<svg width="24" height="24" viewBox="0 0 24 24" fill="none" xmlns="http://www.w3.org/2000/svg">
<path d="M21 4H3V5.29999H21V4Z" fill="black"/>
<path d="M19 1H5V2.29999H19V1Z" fill="black"/>
<path d="M9 10H3V11.3H9V10Z" fill="black"/>
<path d="M21 14C21 11.79 19.54 10 17.75 10C15.96 10 14.5 11.79 14.5 14C14.5 16.21 15.96 18 17.75 18C19.54 18 21 16.21 21 14ZM15.8 14C15.8 12.54 16.69 11.3 17.75 11.3C18.81 11.3 19.7 12.54 19.7 14C19.7 15.46 18.81 16.7 17.75 16.7C16.69 16.7 15.8 15.46 15.8 14Z" fill="black"/>
<path d="M0 7V13.85C0.38 13.4 0.819999 13 1.3 12.66V8.29999H22.7V19.7H11.27C11.15 20.15 10.98 20.59 10.76 21H24V7H0Z" fill="black"/>
<path d="M5 13C2.24 13 0 15.24 0 18C0 20.76 2.24 23 5 23C7.76 23 10 20.76 10 18C10 15.24 7.76 13 5 13ZM8 18.75H5.75V21H4.25V18.75H2V17.25H4.25V15H5.75V17.25H8V18.75Z" fill="black"/>
</svg>
