<svg width="24" height="24" viewBox="0 0 24 24" fill="none" xmlns="http://www.w3.org/2000/svg">
<path d="M11 5.005H3V6.30499H11V5.005Z" fill="black"/>
<path d="M8.5 13.315C5.46 13.315 3 14.595 3 16.175V19.135C3 20.715 5.46 21.995 8.5 21.995C11.54 21.995 14 20.715 14 19.135V16.175C14 14.595 11.54 13.315 8.5 13.315ZM8.5 14.615C11.23 14.615 12.7 15.725 12.7 16.175V16.295C12.7 17.175 10.91 18.165 8.5 18.165C6.09 18.165 4.3 17.175 4.3 16.295V16.175C4.3 15.725 5.77 14.615 8.5 14.615ZM8.5 20.705C5.77 20.705 4.3 19.595 4.3 19.145V18.355C5.3 19.045 6.79 19.485 8.5 19.485C10.21 19.485 11.7 19.045 12.7 18.355V19.145C12.7 19.595 11.23 20.705 8.5 20.705Z" fill="black"/>
<path d="M15.26 9.83501C15.39 9.76501 15.52 9.69499 15.66 9.62499C15.7 9.59499 15.75 9.57498 15.79 9.55498C15.79 9.61498 15.79 9.69497 15.79 9.79497C15.76 10.615 15.78 11.315 16.36 11.565C16.97 11.815 17.45 11.295 18.01 10.695C18.51 10.155 19.57 10.175 19.94 10.225C20.29 10.275 20.63 10.035 20.68 9.67497C20.73 9.32497 20.49 8.98498 20.13 8.93498C20.05 8.92498 18.17 8.66501 17.09 9.77501C17.1 9.06501 16.89 8.58502 16.45 8.34502C15.78 7.97502 15.05 8.455 14.99 8.515C14.91 8.555 14.82 8.60501 14.74 8.64501C14.5 8.335 14.2 8.06497 13.83 7.85497C11.87 6.75497 9.99 8.88496 9.91 8.97496C9.68 9.24496 9.7 9.65501 9.97 9.89501C10.24 10.135 10.65 10.105 10.89 9.83501C10.9 9.82501 12.15 8.41499 13.19 9.00499C13.35 9.09499 13.48 9.19499 13.59 9.31499C12.21 10.205 11.29 11.175 10.94 12.095C11.38 12.195 11.8 12.315 12.2 12.465C12.42 11.975 12.96 11.335 13.96 10.635C13.87 11.285 13.47 11.985 12.82 12.625C12.79 12.655 12.76 12.665 12.74 12.695C13.17 12.895 13.56 13.125 13.9 13.375C14.91 12.315 15.4 11.085 15.26 9.955C15.26 9.915 15.26 9.88497 15.24 9.85497L15.26 9.83501Z" fill="black"/>
<path d="M0 2.005V17.005H1.3V3.30499H22.7V15.705H15.46C15.49 15.865 15.5 16.025 15.5 16.185V17.005H24V2.005H0Z" fill="black"/>
</svg>
