<svg width="24" height="24" viewBox="0 0 24 24" fill="none" xmlns="http://www.w3.org/2000/svg">
<path d="M20.72 8.25999C20.72 6.04999 19.26 4.25999 17.47 4.25999C15.68 4.25999 14.22 6.04999 14.22 8.25999C14.22 10.47 15.68 12.26 17.47 12.26C19.26 12.26 20.72 10.47 20.72 8.25999ZM15.52 8.25999C15.52 6.79999 16.41 5.56001 17.47 5.56001C18.53 5.56001 19.42 6.79999 19.42 8.25999C19.42 9.71999 18.53 10.96 17.47 10.96C16.41 10.96 15.52 9.71999 15.52 8.25999Z" fill="black"/>
<path d="M9 6.50999C7.03 6.90999 4.98 6.90999 3 6.50999V7.84001C3.98 8.03001 4.98 8.12999 6 8.12999C7.02 8.12999 8.02 8.03001 9 7.84001V6.50999Z" fill="black"/>
<path d="M4.5 14.58C5.32843 14.58 6 13.9084 6 13.08C6 12.2516 5.32843 11.58 4.5 11.58C3.67157 11.58 3 12.2516 3 13.08C3 13.9084 3.67157 14.58 4.5 14.58Z" fill="black"/>
<path d="M18 1.43001C15.87 1.43001 13.84 1.86 12 2.64C10.16 3.42 8.13 3.84999 6 3.84999C3.87 3.84999 1.84 3.42 0 2.64V16.27C1.84 17.05 3.87 17.48 6 17.48C7.57 17.48 9.08 17.24 10.5 16.81V16.76C10.5 16.24 10.64 15.75 10.88 15.3C9.32 15.87 7.68 16.18 6 16.18C4.32 16.18 2.81 15.91 1.3 15.38V4.48C2.82 4.92 4.39 5.15001 6 5.15001C8.25 5.15001 10.44 4.71001 12.51 3.84001C14.25 3.11001 16.1 2.73 18 2.73C19.62 2.73 21.2 3.00001 22.7 3.53001V13.78C23.25 14.16 23.69 14.59 24 15.08V2.64C22.16 1.86 20.13 1.43001 18 1.43001Z" fill="black"/>
<path d="M17.5 13.89C14.46 13.89 12 15.17 12 16.75V19.71C12 21.29 14.46 22.57 17.5 22.57C20.54 22.57 23 21.29 23 19.71V16.75C23 15.17 20.54 13.89 17.5 13.89ZM21.7 19.72C21.7 20.17 20.23 21.28 17.5 21.28C14.77 21.28 13.3 20.17 13.3 19.72V18.93C14.3 19.62 15.79 20.06 17.5 20.06C19.21 20.06 20.7 19.62 21.7 18.93V19.72ZM21.7 16.88C21.7 17.76 19.91 18.75 17.5 18.75C15.09 18.75 13.3 17.76 13.3 16.88V16.76C13.3 16.31 14.77 15.2 17.5 15.2C20.23 15.2 21.7 16.31 21.7 16.76V16.88Z" fill="black"/>
</svg>
