<svg width="24" height="24" viewBox="0 0 24 24" fill="none" xmlns="http://www.w3.org/2000/svg">
<path d="M20.0858 13.671H20.0754C20.0441 12.9922 19.7203 12.3446 19.1668 11.7702C18.8326 12.0626 18.4775 12.3551 18.112 12.6266C18.4984 13.0026 18.7073 13.389 18.7281 13.7337C18.6446 15.3838 15.7621 17.1175 11.4801 17.1175C7.19812 17.1175 4.30517 15.3734 4.23207 13.7232C4.23207 13.5875 4.27384 13.4517 4.33651 13.3055L3.5741 11.9896C3.14591 12.5013 2.9057 13.0653 2.87437 13.6501V19.5091C2.86392 21.9843 6.71771 24 11.4801 24C16.2425 24 20.0963 21.9948 20.0963 19.5091C20.0963 19.5091 20.0963 13.7337 20.0963 13.7128C20.0963 13.6919 20.0963 13.671 20.0963 13.6501L20.0858 13.671ZM18.7281 19.53C18.7281 20.8355 15.971 22.6632 11.4697 22.6632C6.96836 22.6632 4.21118 20.8355 4.21118 19.53V19.0705C5.72554 20.3969 8.37828 21.2637 11.4697 21.2637C14.561 21.2637 17.2138 20.3969 18.7281 19.0705V19.53ZM18.7281 16.4491C18.7281 18.1201 15.8143 19.906 11.4697 19.906C7.12502 19.906 4.21118 18.1201 4.21118 16.4491V16.282C5.72554 17.6083 8.37828 18.4752 11.4697 18.4752C14.561 18.4752 17.2138 17.6083 18.7281 16.282V16.4491Z" fill="black"/>
<path d="M5.86131 12.8459C6.43572 13.8485 7.68899 14.3394 9.2869 14.3394C11.1041 14.3394 13.3704 13.6919 15.5741 12.4282C19.6994 10.047 22.0284 6.38119 20.796 4.22975L19.1355 1.3786C18.5297 0.459537 17.3182 0 15.7934 0C13.9762 0 11.7099 0.647521 9.50622 1.91123C5.46444 4.25065 3.14591 7.82245 4.23207 9.98433L5.87175 12.8459H5.86131ZM19.0415 7.51959C18.1851 8.86685 16.6707 10.2245 14.8848 11.2585C12.9736 12.3655 10.937 12.9922 9.27645 12.9922C8.14851 12.9922 7.33389 12.6997 7.03102 12.1775L6.69682 11.6031C7.08324 11.6762 7.49055 11.718 7.93964 11.718C8.05452 11.718 8.17985 11.718 8.29473 11.718C10.0911 11.6345 12.1381 10.987 14.0702 9.86946C16.7438 8.32377 18.6133 6.25588 19.2608 4.34465L19.6054 4.9295C19.9292 5.49347 19.7203 6.46474 19.0415 7.53001V7.51959ZM6.02841 6.83029C6.88481 5.48304 8.39917 4.12533 10.1851 3.09139C12.0963 1.98434 14.1328 1.3577 15.7934 1.3577C16.8796 1.3577 17.6733 1.63968 17.9971 2.1201C18.749 3.58224 17.1198 6.5274 13.4122 8.66839C11.6681 9.671 9.84042 10.2663 8.25295 10.3394C6.88481 10.3916 5.8822 10.0365 5.44356 9.36814C5.16157 8.80417 5.37045 7.86423 6.02841 6.83029Z" fill="black"/>
</svg>
