<svg width="24" height="24" viewBox="0 0 24 24" fill="none" xmlns="http://www.w3.org/2000/svg">
<path d="M13.005 1.5C11.735 1.5 10.515 2.03 9.645 2.93L3.155 9.5H2.015V21.2H0.00500011V22.5H18.005V21.2H16.005V15.58L14.705 15.87V21.2H3.305V10.8H9.675C10.005 10.49 10.385 10.18 10.865 9.91L10.925 9.87L11.695 9.49H9.185L11.305 7.68C11.535 7.5 11.825 7.41 12.125 7.41H13.315C13.445 7.41 13.565 7.48 13.625 7.59L14.455 9.17C14.515 9.28 14.495 9.39 14.475 9.44C14.455 9.49 14.415 9.59 14.295 9.65L11.505 11.03C9.145 12.36 9.615 14.05 9.815 14.54C10.025 15.06 10.415 15.32 10.945 15.32C11.135 15.32 11.355 15.29 11.585 15.22L18.415 13.69C19.425 13.39 20.335 12.82 21.045 12.03L23.995 8.73V1.5H12.985H13.005ZM22.705 8.25L20.085 11.18C19.545 11.79 18.845 12.23 18.105 12.45L11.275 13.98C11.145 14.02 11.065 14.03 11.015 14.04C10.695 13.21 11.455 12.58 12.115 12.2L14.875 10.84C15.275 10.64 15.575 10.3 15.715 9.87C15.855 9.44 15.815 8.99 15.605 8.59L14.775 7.01C14.485 6.47 13.925 6.13 13.315 6.13H12.125C11.555 6.13 10.985 6.32 10.495 6.69L7.185 9.51H4.975L10.575 3.85C11.205 3.19 12.085 2.81 13.005 2.81H22.715V8.26L22.705 8.25Z" fill="black"/>
</svg>
