<svg width="24" height="24" viewBox="0 0 24 24" fill="none" xmlns="http://www.w3.org/2000/svg">
<path d="M12 4.60381C12 4.60381 6.32606 2.49698 1.9675 0V5.09429C6.62704 10.2777 12 13.1872 12 13.1872C12 13.1872 17.373 10.2777 22.0325 5.09429V0C17.6739 2.49698 12 4.60381 12 4.60381ZM20.5834 4.53693C17.2058 8.17092 13.5049 10.601 12 11.5151C10.4951 10.601 6.79425 8.17092 3.41664 4.53693V2.43015C7.30702 4.40321 11.2977 5.89693 11.4984 5.97496L12 6.16445L12.5016 5.97496C12.7023 5.89693 16.693 4.41436 20.5834 2.43015V4.53693Z" fill="black"/>
<path d="M1.9675 10.8128V15.9071C6.62704 21.0906 12 24 12 24C12 24 17.373 21.0906 22.0325 15.9071V10.8128C17.6739 13.3098 12 15.4166 12 15.4166C12 15.4166 6.32606 13.3098 1.9675 10.8128ZM20.5834 13.2318V15.3386C17.2058 18.9726 13.5049 21.4027 12 22.3168C10.4951 21.4027 6.79425 18.9726 3.41664 15.3386V13.2318C7.30702 15.2049 11.2977 16.6986 11.4984 16.7766L12 16.9661L12.5016 16.7766C12.7023 16.6986 16.693 15.216 20.5834 13.2318Z" fill="black"/>
</svg>
