<svg width="24" height="24" viewBox="0 0 24 24" fill="none" xmlns="http://www.w3.org/2000/svg">
<path d="M14.37 18.47L14.25 18.63L14.43 18.55C14.66 18.44 14.88 18.37 15.09 18.32C15.3 18.27 15.54 18.25 15.81 18.25C15.98 18.25 16.14 18.26 16.29 18.29C16.43 18.31 16.62 18.35 16.86 18.39C17.14 18.44 17.36 18.48 17.53 18.51C17.7 18.53 17.89 18.55 18.11 18.55C18.65 18.55 19.05 18.39 19.3 18.08C19.55 17.77 19.68 17.28 19.68 16.62V16.41L19.59 16.59C19.49 16.79 19.36 16.94 19.21 17.04C19.06 17.14 18.86 17.19 18.62 17.19C18.48 17.19 18.35 17.18 18.24 17.15C18.13 17.12 17.99 17.09 17.81 17.03C17.64 16.98 17.5 16.94 17.38 16.91C17.26 16.88 17.11 16.87 16.96 16.87C16.86 16.87 16.76 16.87 16.67 16.89C16.79 16.73 16.88 16.55 16.94 16.37C17.02 16.15 17.05 15.9 17.05 15.62C17.05 15.48 17.04 15.35 17.01 15.21H18.78V14.64H16.84C16.75 14.4 16.68 14.2 16.63 14.05C16.59 13.89 16.56 13.72 16.56 13.52C16.56 13.21 16.66 12.97 16.87 12.79C17.08 12.61 17.37 12.51 17.73 12.51C18.02 12.51 18.31 12.58 18.59 12.72C18.87 12.86 19.09 13.04 19.25 13.26L19.34 13.38V11.71H19.32C19.1 11.52 18.82 11.38 18.5 11.28C18.18 11.18 17.83 11.13 17.47 11.13C16.97 11.13 16.52 11.22 16.14 11.4C15.75 11.58 15.45 11.84 15.23 12.17C15.02 12.5 14.91 12.88 14.91 13.3C14.91 13.52 14.93 13.74 14.98 13.95C15.02 14.14 15.08 14.37 15.16 14.63H14.62V15.2H15.32C15.39 15.48 15.42 15.73 15.42 15.92C15.42 16.35 15.35 16.74 15.2 17.09C15.05 17.45 14.77 17.9 14.36 18.45L14.37 18.47Z" fill="black"/>
<path d="M17.9 2.95C17.54 2.95 17.25 3.24 17.25 3.6C17.25 3.96 17.54 4.25 17.9 4.25H19.78L16.08 7.95H9.44L5 12.39V14.23L9.98 9.25H16.62L20.75 5.12V7.1C20.75 7.46 21.04 7.75 21.4 7.75C21.76 7.75 22.05 7.46 22.05 7.1V2.95H17.9Z" fill="black"/>
<path d="M3.3 2H2V22H22V20.7H3.3V2Z" fill="black"/>
</svg>
