<svg width="24" height="24" viewBox="0 0 24 24" fill="none" xmlns="http://www.w3.org/2000/svg">
<path d="M12 2L1 8.35V22.35H23V8.35L12 2ZM2.3 21.05V15.35H4C4.55 15.35 5 15.8 5 16.35V21.05H2.3ZM7.3 15.35H11.35V21.05H6.3V16.35C6.3 15.8 6.75 15.35 7.3 15.35ZM12.65 21.05V15.35H16.7C17.25 15.35 17.7 15.8 17.7 16.35V21.05H12.65ZM21.7 21.05H19V16.35C19 15.8 19.45 15.35 20 15.35H21.7V21.05ZM21.7 14.05H2.3V11.65H21.7V14.05ZM2.3 10.35V9.1L12 3.5L21.7 9.1V10.35H2.3Z" fill="black"/>
<path d="M12 9C12.8284 9 13.5 8.32843 13.5 7.5C13.5 6.67157 12.8284 6 12 6C11.1716 6 10.5 6.67157 10.5 7.5C10.5 8.32843 11.1716 9 12 9Z" fill="black"/>
</svg>
