<svg width="24" height="24" viewBox="0 0 24 24" fill="none" xmlns="http://www.w3.org/2000/svg">
<path d="M7.08 9.89454H5.69455V16.1127H7.08V9.89454Z" fill="black"/>
<path d="M11.3345 12.5236L10.2436 12.0982C9.88364 11.9564 9.74182 11.7927 9.74182 11.5418C9.74182 11.2145 10.0036 11.0182 10.4727 11.0182C11.0727 11.0182 11.8036 11.3455 12.2073 11.7818L12.3055 11.8909V10.3964H12.2836C11.7709 9.97091 11.16 9.76364 10.44 9.76364C9.17455 9.76364 8.28 10.5273 8.28 11.6291C8.28 12.3927 8.68364 12.9491 9.49091 13.2982L10.5382 13.7455C10.9309 13.9091 11.0945 14.0945 11.0945 14.3564C11.0945 14.7273 10.7782 14.9673 10.2655 14.9673C9.51273 14.9673 8.80364 14.6182 8.26909 13.9855L8.17091 13.8764V15.4145H8.18182C8.67273 15.9709 9.37091 16.2545 10.1891 16.2545C11.6291 16.2545 12.5564 15.4691 12.5564 14.2582C12.5564 13.44 12.1309 12.84 11.3345 12.5455V12.5236Z" fill="black"/>
<path d="M15.3273 9.89454L13.3309 15L12.8945 16.1018H14.3891L14.8473 14.76H17.1818L17.64 16.1018H19.1455L16.7236 9.88364H15.3273V9.89454ZM15.2836 13.5273L16.0145 11.4L16.7564 13.5273H15.2836Z" fill="black"/>
<path d="M22.3636 4.36364H9.39273L7.64727 2.18182H2.61818L0 5.46546V20.1818C0 21.0873 0.730909 21.8182 1.63636 21.8182H22.3636C23.2691 21.8182 24 21.0873 24 20.1818V6C24 5.09455 23.2691 4.36364 22.3636 4.36364ZM22.5818 20.1818C22.5818 20.3018 22.4836 20.4 22.3636 20.4H1.63636C1.51636 20.4 1.41818 20.3018 1.41818 20.1818V5.78182H22.3636C22.4836 5.78182 22.5818 5.88 22.5818 6V20.1818Z" fill="black"/>
</svg>
