<svg width="24" height="24" viewBox="0 0 24 24" fill="none" xmlns="http://www.w3.org/2000/svg">
<path d="M8.23422 9.17294C6.59835 11.3468 5.03934 13.6084 3.64501 16.0348C2.25069 18.4502 1.06496 20.9314 0 23.4346L8.23422 20.8655L16.4684 23.4346C15.4035 20.9314 14.2177 18.4502 12.8234 16.0348C11.4291 13.6194 9.88106 11.3468 8.23422 9.17294ZM8.65142 19.5151L8.22324 19.3834L7.79506 19.5151L2.58005 21.14C3.31564 19.581 4.07319 18.1318 4.87466 16.7484C5.85178 15.0467 6.96066 13.3449 8.22324 11.5773C9.48582 13.3449 10.5947 15.0467 11.5718 16.7484C12.3623 18.1318 13.1308 19.581 13.8664 21.14L8.65142 19.5151Z" fill="black"/>
<path d="M15.7658 3.13451L7.53156 0.565407C8.59652 3.06861 9.78225 5.54988 11.1766 7.96525C12.5709 10.3806 14.1189 12.6533 15.7658 14.8271C17.4016 12.6533 18.9607 10.3916 20.355 7.96525C21.7493 5.54988 22.935 3.06861 24 0.565407L15.7658 3.13451ZM19.1144 7.26258C18.1372 8.96432 17.0284 10.6661 15.7658 12.4337C14.5032 10.6661 13.3943 8.96432 12.4172 7.26258C11.6267 5.87923 10.8582 4.43001 10.1226 2.87099L15.3376 4.49589L15.7658 4.62763L16.194 4.49589L21.409 2.87099C20.6734 4.43001 19.9158 5.87923 19.1144 7.26258Z" fill="black"/>
</svg>
