<svg width="24" height="24" viewBox="0 0 24 24" fill="none" xmlns="http://www.w3.org/2000/svg">
<path d="M13.0909 19.8273L16.3636 16.5545L13.0909 13.2818V15.4636H7.63636V17.6454H13.0909V19.8273Z" fill="black"/>
<path d="M12 0.900013L0 7.82726V23.1H24V7.82726L12 0.900013ZM4.36364 21.6818H1.41818V11.4272H4.36364V21.6818ZM18.2182 21.6818H5.78182V12.5182C5.78182 11.9182 6.27273 11.4272 6.87273 11.4272H17.1273C17.7273 11.4272 18.2182 11.9182 18.2182 12.5182V21.6818ZM22.5818 21.6818H19.6364V11.4272H22.5818V21.6818ZM22.5818 10.0091H1.41818V8.64544L12 2.53638L22.5818 8.64544V10.0091Z" fill="black"/>
<path d="M12 8.53638C12.9037 8.53638 13.6364 7.80375 13.6364 6.90001C13.6364 5.99627 12.9037 5.26365 12 5.26365C11.0963 5.26365 10.3636 5.99627 10.3636 6.90001C10.3636 7.80375 11.0963 8.53638 12 8.53638Z" fill="black"/>
</svg>
