<svg width="24" height="24" viewBox="0 0 24 24" fill="none" xmlns="http://www.w3.org/2000/svg">
<path d="M22.3636 4.36364H9.39273L7.64727 2.18182H2.61818L0 5.46546V20.1818C0 21.0873 0.730909 21.8182 1.63636 21.8182H22.3636C23.2691 21.8182 24 21.0873 24 20.1818V6C24 5.09455 23.2691 4.36364 22.3636 4.36364ZM22.5818 20.1818C22.5818 20.3018 22.4836 20.4 22.3636 20.4H1.63636C1.51636 20.4 1.41818 20.3018 1.41818 20.1818V5.78182H22.3636C22.4836 5.78182 22.5818 5.88 22.5818 6V20.1818Z" fill="black"/>
<path d="M14.9564 14.3345L13.9636 13.9855C13.8327 14.0836 13.7127 14.1927 13.5709 14.2691C13.0582 14.5745 12.5345 14.7273 12.0109 14.7273C11.4873 14.7273 10.9527 14.5745 10.4509 14.2691C10.3091 14.1818 10.1782 14.0836 10.0582 13.9855L9.06546 14.3345C8.20364 14.6182 7.74545 15.0109 7.46182 16.0473L7.11273 17.4545H16.9309L16.5818 16.0473C16.2982 15.0109 15.84 14.6182 14.9782 14.3345H14.9564Z" fill="black"/>
<path d="M11.28 12.8618C11.4982 12.9927 11.7382 13.0909 12.0109 13.0909C12.2836 13.0909 12.5236 12.9927 12.7309 12.8618C13.2109 12.5782 13.56 12.0982 13.7564 11.5745C13.9855 10.9418 14.0073 10.3636 14.0073 10.3636C14.0727 8.90182 13.1018 8.16 12 8.16C10.8982 8.16 9.92727 8.90182 9.99273 10.3636C9.99273 10.3636 10.0145 10.9309 10.2436 11.5745C10.44 12.1091 10.7891 12.5782 11.2691 12.8618H11.28Z" fill="black"/>
</svg>
