<svg width="24" height="24" viewBox="0 0 24 24" fill="none" xmlns="http://www.w3.org/2000/svg">
<path d="M4.95 12.8563C4.95 13.3271 5.3306 13.7077 5.80134 13.7077C6.27208 13.7077 6.65268 13.3271 6.65268 12.8563C6.65268 12.3856 6.27208 12.005 5.80134 12.005C5.3306 12.005 4.95 12.3856 4.95 12.8563Z" fill="black"/>
<path d="M17.5899 6.18584C17.2794 6.59649 16.9188 6.95706 16.4982 7.24752C20.0738 8.02875 22.708 10.6929 22.708 13.8679C22.708 16.1816 21.2857 18.325 18.912 19.607L18.6416 19.7572L18.1508 22.2411H16.3279V20.3682L15.5767 20.4784C14.4149 20.6486 12.7423 20.6186 12.1413 20.4784L11.3501 20.2981V22.2211H9.52721L8.90623 19.0862L8.53565 18.966C6.12185 18.1948 4.15875 16.5121 3.64795 15.781L3.49771 15.5706L1.59472 15.18L1.35434 12.7862H2.28581L4.67957 10.2823L4.65954 9.99184C4.58943 9.01029 4.8198 8.29917 5.07019 7.81842C5.44077 8.40935 5.98163 9.11045 6.68273 9.54113L7.07334 9.78151L7.4239 9.50107C8.83612 8.39933 10.1682 7.68821 11.6205 7.31763C11.1798 7.0472 10.7992 6.70667 10.4787 6.30603C9.29685 6.71668 8.16506 7.32764 7.01325 8.16897C6.4724 7.68821 6.01167 6.92701 5.75126 6.3461L5.40071 5.55485L4.73967 6.10572C4.67957 6.1558 3.27737 7.35769 3.33746 9.77149L1.71491 11.4642H0.603155C0.252603 11.4642 -0.0278384 11.7746 0.00220888 12.1252L0.352761 15.6508C0.382808 16.0013 0.643218 16.2817 0.983755 16.3519L2.75655 16.7224C3.55781 17.714 5.48084 19.2364 7.78446 20.0577L8.36538 23.0123C8.42547 23.2928 8.66585 23.4931 8.95631 23.4931H12.0512C12.3817 23.4931 12.6521 23.2227 12.6521 22.8922V21.8205C13.3532 21.8705 14.2346 21.8705 15.0259 21.8104V22.9022C15.0259 23.2327 15.2963 23.5031 15.6268 23.5031H18.7217C19.0121 23.5031 19.2525 23.3028 19.3126 23.0224L19.7934 20.5685C22.4275 19.0461 24 16.5422 24 13.8379C24 10.3023 21.3158 7.28758 17.5799 6.1558L17.5899 6.18584Z" fill="black"/>
<path d="M10.8994 9.83159C11.0496 10.1521 11.4402 10.2923 11.7607 10.1521C11.7808 10.1421 13.9442 9.17054 16.4381 10.1621C16.5182 10.1922 16.5983 10.2122 16.6785 10.2122C16.9389 10.2122 17.1793 10.0519 17.2794 9.80154C17.4096 9.47102 17.2494 9.09042 16.9188 8.96021C13.8841 7.75832 11.32 8.92015 11.2099 8.98025C10.8894 9.13048 10.7491 9.5211 10.8994 9.8416V9.83159Z" fill="black"/>
<path d="M13.9942 6.50635C15.6569 6.50635 16.999 5.16424 16.999 3.50162C16.999 1.839 15.6569 0.496886 13.9942 0.496886C12.3316 0.496886 10.9895 1.839 10.9895 3.50162C10.9895 5.16424 12.3316 6.50635 13.9942 6.50635ZM13.9942 1.79894C14.9357 1.79894 15.6969 2.56014 15.6969 3.50162C15.6969 4.4431 14.9357 5.2043 13.9942 5.2043C13.0528 5.2043 12.2916 4.4431 12.2916 3.50162C12.2916 2.56014 13.0528 1.79894 13.9942 1.79894Z" fill="black"/>
</svg>
