<svg width="24" height="24" viewBox="0 0 24 24" fill="none" xmlns="http://www.w3.org/2000/svg">
<path d="M4.88727 4.18909C5.66182 4.75636 6.50182 5.23638 7.39636 5.60729C7.21091 6.24002 7.06909 6.92726 6.93818 7.62544H8.37818C8.48727 7.07999 8.59636 6.55637 8.73818 6.07637C9.77455 6.37092 10.8764 6.53453 12.0109 6.53453C13.1455 6.53453 14.2364 6.37092 15.2836 6.07637C15.4255 6.55637 15.5345 7.07999 15.6436 7.62544H17.0836C16.9527 6.91635 16.8109 6.24002 16.6255 5.60729C17.52 5.23638 18.36 4.75636 19.1345 4.18909C20.1927 5.14909 21.0436 6.31636 21.6436 7.63636H23.1818C21.4364 3.17455 17.0945 0 12.0109 0C6.92727 0 2.58545 3.17455 0.84 7.63636H2.37818C2.97818 6.32727 3.84 5.14909 4.88727 4.18909ZM17.9673 3.27273C17.4 3.65455 16.8 3.99273 16.1673 4.26546C15.7964 3.31637 15.3709 2.49817 14.8909 1.83272C16.0036 2.14908 17.04 2.62909 17.9673 3.27273ZM12 1.41819C12.8836 1.41819 13.9855 2.62909 14.8145 4.73454C13.92 4.98545 12.9709 5.12729 12 5.12729C11.0291 5.12729 10.08 4.98545 9.18546 4.73454C10.0145 2.61818 11.1164 1.41819 12 1.41819ZM9.12 1.83272C8.64 2.49817 8.20364 3.31637 7.84364 4.26546C7.21091 3.99273 6.61091 3.65455 6.04364 3.27273C6.97091 2.64 8.01818 2.14908 9.12 1.83272Z" fill="black"/>
<path d="M19.1127 19.8109C18.3382 19.2436 17.4982 18.7636 16.6036 18.3927C16.7891 17.76 16.9309 17.0727 17.0618 16.3746H15.6218C15.5127 16.92 15.4036 17.4436 15.2618 17.9236C14.2255 17.6291 13.1236 17.4655 11.9891 17.4655C10.8545 17.4655 9.76364 17.6291 8.71636 17.9236C8.57454 17.4436 8.46545 16.92 8.35636 16.3746H6.91636C7.04727 17.0836 7.18909 17.76 7.37455 18.3927C6.48 18.7636 5.64 19.2436 4.86545 19.8109C3.80727 18.8509 2.95636 17.6836 2.35636 16.3636H0.818182C2.56364 20.8255 6.90545 24 11.9891 24C17.0727 24 21.4145 20.8255 23.16 16.3636H21.6218C21.0218 17.6727 20.16 18.8509 19.1127 19.8109ZM6.03273 20.7273C6.6 20.3455 7.2 20.0073 7.83273 19.7345C8.20364 20.6836 8.62909 21.5018 9.10909 22.1673C7.99636 21.8509 6.96 21.3709 6.03273 20.7273ZM12 22.5818C11.1164 22.5818 10.0145 21.3709 9.18546 19.2655C10.08 19.0145 11.0291 18.8727 12 18.8727C12.9709 18.8727 13.92 19.0145 14.8145 19.2655C13.9855 21.3818 12.8836 22.5818 12 22.5818ZM14.88 22.1673C15.36 21.5018 15.7964 20.6836 16.1564 19.7345C16.7891 20.0073 17.3891 20.3455 17.9564 20.7273C17.0291 21.36 15.9818 21.8509 14.88 22.1673Z" fill="black"/>
<path d="M2.98909 13.7891C2.66182 13.7891 2.33455 13.7127 2.04 13.56C1.73455 13.4073 1.47273 13.2 1.24364 12.9273L1.14545 12.8073V14.1818H1.15636C1.37455 14.4327 1.62545 14.6073 1.92 14.7382C2.21455 14.8582 2.55273 14.9236 2.91273 14.9236C3.32727 14.9236 3.68727 14.8473 4.00364 14.7164C4.32 14.5745 4.56 14.3673 4.73455 14.1054C4.90909 13.8436 4.99636 13.5273 4.99636 13.1673C4.99636 12.8073 4.90909 12.4909 4.72364 12.24C4.53818 11.9891 4.27636 11.7927 3.92727 11.6618L2.96727 11.2909C2.80364 11.2255 2.69455 11.16 2.62909 11.0836C2.56364 11.0073 2.53091 10.92 2.53091 10.8109C2.53091 10.6691 2.58545 10.56 2.68364 10.4836C2.79273 10.4073 2.95636 10.3636 3.16364 10.3636C3.41455 10.3636 3.69818 10.4291 3.98182 10.5491C4.26546 10.6691 4.50546 10.8327 4.68 11.0291L4.77818 11.1273V9.79638H4.75636C4.30909 9.42547 3.76364 9.24 3.13091 9.24C2.77091 9.24 2.44364 9.30546 2.16 9.44728C1.87636 9.57819 1.64727 9.77455 1.48364 10.0255C1.32 10.2764 1.24364 10.56 1.24364 10.8873C1.24364 11.5527 1.60364 12.0436 2.30182 12.3491L3.21818 12.7418C3.38182 12.8073 3.51273 12.8837 3.58909 12.9709C3.66545 13.0582 3.69818 13.1564 3.69818 13.2655C3.69818 13.4291 3.63273 13.5491 3.51273 13.6473C3.38182 13.7455 3.20727 13.7891 2.97818 13.7891H2.98909Z" fill="black"/>
<path d="M8.86909 10.3964C9.20727 10.3964 9.52364 10.4618 9.79636 10.5927C10.08 10.7236 10.2982 10.9091 10.4509 11.1491L10.5491 11.3018V9.79638H10.5273C10.0691 9.42547 9.46909 9.24 8.73818 9.24C8.16 9.24 7.63636 9.36001 7.2 9.5891C6.76364 9.8291 6.41455 10.1673 6.18545 10.6146C5.94546 11.0509 5.82546 11.5745 5.82546 12.1746C5.82546 12.6982 5.93455 13.1782 6.16364 13.5927C6.39273 14.0073 6.70909 14.3345 7.11273 14.5745C7.51636 14.8036 7.99636 14.9236 8.52 14.9236C9.21818 14.9236 9.75273 14.76 10.1018 14.4327C10.4509 14.1055 10.6255 13.6036 10.6255 12.9491V12.7418L10.5273 12.9164C10.3855 13.1673 10.1673 13.3636 9.88364 13.5055C9.6 13.6473 9.27273 13.7127 8.91273 13.7127C8.55273 13.7127 8.22546 13.6473 7.96364 13.5055C7.69091 13.3746 7.48364 13.1782 7.34182 12.9273C7.2 12.6764 7.12364 12.3818 7.12364 12.0436C7.12364 11.5309 7.27636 11.1164 7.58182 10.8218C7.88727 10.5273 8.31273 10.3854 8.85818 10.3854L8.86909 10.3964Z" fill="black"/>
<path d="M14.4655 9.3491H13.2436L11.4982 13.8327L11.1055 14.8036H12.4364L12.8291 13.6254H14.8582L15.2509 14.76V14.7927H16.5927L14.4764 9.3709V9.33818L14.4655 9.3491ZM13.2 12.5345L13.8327 10.7018L14.4764 12.5345H13.2Z" fill="black"/>
<path d="M23.0182 14.8036V9.3491H21.96L20.2036 11.9018L18.4582 9.38183L18.4473 9.3491H17.3891V14.8036H18.5455V11.4327L20.2036 13.9091L21.8509 11.4327V14.8036H23.0182Z" fill="black"/>
</svg>
