<svg width="100" height="100" viewBox="0 0 100 100" fill="none" xmlns="http://www.w3.org/2000/svg">
<g clip-path="url(#clip0_15980_2090)">
<rect width="100" height="100" fill="#6CF479"/>
<path d="M88 44.3482C88 41.7182 86.3396 39.3484 83.8633 38.5006C73.5359 34.9748 62.5079 32.9999 50.9904 32.9999C39.4729 32.9999 28.4449 34.9748 18.1271 38.5006C15.6413 39.3484 14 41.7182 14 44.3482V79.0482C14 81.7842 16.2075 83.9999 18.9333 83.9999H83.0667C85.7925 83.9999 88 81.7842 88 79.0482V44.3482Z" fill="#006A4D"/>
<path d="M97.3169 41.4687L31.2607 36.0343L2.35097 47.0138L9.92339 48.5641V83.5982H15.4941V48.2489L17.5639 47.6527V80.7872H23.1346V46.0513L25.5793 45.3528V77.8827H31.1414V43.7515L35.6218 42.4653V76.6901H41.1926V42.4994L47.8535 42.9252V77.6697H53.4157V43.283L72.3084 44.4925V79.6373H77.8791V44.8503L84.5401 45.2762V80.6254H90.1023V45.3869L97.3169 41.4687Z" fill="black"/>
<path d="M53.2368 53.3682L65.937 53.8963V74.7992L53.2368 74.3989V53.3682Z" fill="black"/>
<path d="M31.5929 26.1278L2.35097 45.9574V47.0138L31.2607 36.0343L31.2607 34.6968L65.7155 11L31.5929 26.1278Z" fill="#11B67A"/>
<path d="M65.7155 11L31.2607 34.6968L31.2607 36.0343L97.3169 41.4687L97.3168 40.4123L65.7155 11Z" fill="#006A4D"/>
<path d="M87.9131 44.3222C86.7036 44.3222 85.724 44.9099 85.724 45.6425V80.6254H90.1107V45.6425C90.1107 44.9099 89.1312 44.3222 87.9216 44.3222H87.9131Z" fill="#11B67A"/>
<path d="M75.6814 43.3339C74.4719 43.3339 73.4923 43.9216 73.4923 44.6542V79.6371L77.8791 79.6373L77.879 44.6542C77.879 43.9216 76.8995 43.3339 75.69 43.3339H75.6814Z" fill="#11B67A"/>
<path d="M51.2266 41.3661C50.017 41.3661 49.0375 41.9538 49.0375 42.6863V77.6693H53.4242V42.6863C53.4242 41.9538 52.4447 41.3661 51.2351 41.3661H51.2266Z" fill="#11B67A"/>
<path d="M39.0034 40.3866C37.7939 40.3866 36.8143 40.9744 36.8143 41.7069V76.6899H41.201V41.7069C41.201 40.9744 40.2215 40.3866 39.012 40.3866H39.0034Z" fill="#11B67A"/>
<path d="M84.5315 41.9119V43.2663L92.6831 43.9732V42.6104L84.5315 41.9119Z" fill="#006A4D"/>
<path d="M72.2998 42.2868L80.4514 42.9852V41.6309L72.2998 40.9239V42.2868Z" fill="#006A4D"/>
<path d="M47.845 40.3189L55.9966 41.0174V39.663L47.845 38.9561V40.3189Z" fill="#006A4D"/>
<path d="M35.6133 39.3308L43.7649 40.0378V38.6749L35.6133 37.9764V39.3308Z" fill="#006A4D"/>
<path d="M28.9524 41.5788C27.7428 41.5788 26.7633 42.1665 26.7633 42.8991V77.882H31.15V42.8991C31.15 42.1665 30.1704 41.5788 28.9609 41.5788H28.9524Z" fill="#11B67A"/>
<path d="M20.9371 44.4833C19.7275 44.4833 18.748 45.071 18.748 45.8035V80.7865L23.1346 80.7872L23.1347 45.8035C23.1347 45.071 22.1551 44.4833 20.9456 44.4833H20.9371Z" fill="#11B67A"/>
<path d="M13.305 47.2937C12.0954 47.2937 11.1159 47.8815 11.1159 48.614V83.597H15.5026V48.614C15.5026 47.8815 14.523 47.2937 13.3135 47.2937H13.305Z" fill="#11B67A"/>
<path d="M23.5775 40.4555V41.8184L29.6167 39.723V38.2323L23.5775 40.4555Z" fill="#11B67A"/>
<path d="M15.5625 44.7236L21.6102 42.6282V41.1376L15.5625 43.3607V44.7236Z" fill="#11B67A"/>
<path d="M7.93018 47.5344L13.9694 45.439V43.9569L7.93018 46.1801V47.5344Z" fill="#11B67A"/>
<path d="M33.4412 84.8162V79.271H38.322V73.8877L7.8961 78.4278V82.2097L4.029 82.6271V86.0768L0 86.409V90.5317H29.2419V84.8162H33.4412Z" fill="#11B67A"/>
<path d="M65.8944 13.743L35.9795 34.2796L92.9898 39.0837L65.8944 13.743Z" fill="#11B67A"/>
<path d="M63.9608 15.0888L65.8944 13.743L92.9898 39.0837L89.0034 38.7515L63.9608 15.0888Z" fill="black"/>
<path d="M68.6371 27.5501C68.799 30.8295 66.6354 33.4871 63.7905 33.4956C60.9455 33.5042 58.5179 30.8381 58.3561 27.5587C58.1942 24.2793 60.3578 21.6217 63.2027 21.6132C66.0477 21.6047 68.4753 24.2708 68.6371 27.5501Z" fill="white"/>
<path d="M38.322 73.8877L93.1005 75.7361V80.7446H97.1295V85.8213H100V90.5317H29.2419V84.8162H33.4412V79.271H38.322V73.8877Z" fill="#006A4D"/>
</g>
<defs>
<clipPath id="clip0_15980_2090">
<rect width="100" height="100" fill="white"/>
</clipPath>
</defs>
</svg>
