<svg width="100" height="100" viewBox="0 0 100 100" fill="none" xmlns="http://www.w3.org/2000/svg">
<rect width="100" height="100" fill="#6CF479"/>
<path d="M98.1318 26.9792L85.2833 27.2895L61.5454 13.5351C60.0054 12.6407 57.7364 12.9693 56.5153 14.2562L20.0291 52.6626L0 66.0245V73.0432C0.0455622 73.8372 0.510306 74.5948 1.34865 75.0785L36.5864 95.4956C38.1264 96.3901 40.3954 96.0615 41.6165 94.7746L97.3572 36.0971C97.8949 35.5312 98.15 34.874 98.1409 34.2443V26.9792H98.1318Z" fill="black"/>
<path d="M41.6165 87.5717C40.3863 88.8677 38.1264 89.1872 36.5864 88.2927L1.34866 67.8756C-0.191341 66.9812 -0.446494 65.1922 0.774572 63.9053L56.5153 5.22788C57.7455 3.93184 60.0054 3.61242 61.5454 4.50686L96.7832 24.924C98.3232 25.8184 98.5783 27.6073 97.3572 28.8942L41.6165 87.5717Z" fill="#11B67A"/>
<path d="M84.8916 53.9311C84.8916 53.9311 91.7624 56.3133 100 56.149C100 56.149 89.9399 58.3851 88.0536 64.1169C85.8575 70.7796 91.4252 76.5113 91.4252 76.5113C91.4252 76.5113 78.9777 68.1966 75.114 78.6379C75.114 78.6379 73.4737 82.6264 75.6607 88.8693C75.6607 88.8693 69.7376 79.3407 64.8989 74.9506L84.8916 53.9311Z" fill="white"/>
<path d="M91.6892 34.855L92.7372 33.7506C83.7432 33.7506 74.8039 34.8823 71.9244 35.2839C73.027 32.5184 76.2437 23.6835 76.9362 13.4248L75.8792 12.8133C75.2049 24.3498 71.2227 34.1704 70.6304 35.576C60.2058 41.1252 49.0431 44.5752 40.933 46.5832L34.3538 39.4094C36.7322 33.8419 39.5297 26.9419 41.4524 21.0915L39.6573 22.9808C37.3063 29.7165 34.0713 37.374 31.7386 42.695L24.7584 43.5348C24.1206 42.7316 23.428 41.828 22.699 40.8423L21.9336 41.6455C23.0544 43.1514 24.075 44.4475 24.968 45.5336L24.0659 51.5574L24.239 51.5847C24.0477 51.7034 23.8563 51.822 23.6649 51.9316C22.7992 52.4609 21.97 52.9629 21.1317 53.4284C21.1317 53.4284 21.1134 53.4193 21.1043 53.4193L21.0861 53.4558C20.9677 53.5197 20.8492 53.5927 20.7307 53.6566C17.4685 55.3998 11.7915 56.6502 6.9163 57.4625L5.65878 58.786C10.8255 57.9828 17.3591 56.6502 21.1317 54.6697C22.1796 55.2355 24.4759 56.486 25.4054 57.0519C25.0682 58.0832 24.722 59.1967 24.4122 60.3923C23.51 61.3507 16.5573 68.8257 12.8394 74.5392L13.7871 75.0868C17.6963 69.0995 25.2232 61.1316 25.3052 61.0404L25.4054 60.9399L25.4419 60.803C26.18 57.9828 27.0456 55.6189 27.802 53.8027L31.7112 52.5431C34.1807 55.1078 37.7619 59.4796 40.1676 65.3209C40.2769 66.3797 41.3886 78.0896 40.3862 88.4214C40.8236 88.2297 41.2246 87.9741 41.5526 87.6455C42.3272 78.4729 41.5526 68.5245 41.3066 65.832C43.7943 66.2154 52.4967 67.6118 59.0941 69.1816L59.9688 68.2689C52.8703 66.5348 42.9469 64.9741 41.0879 64.6912C39.2016 60.1824 36.6866 56.5773 34.4905 53.9669L38.3724 50.2157C47.7491 50.3982 62.7937 50.7725 75.9247 51.4661L76.918 50.4256C61.8187 49.5951 43.9128 49.2118 34.9644 49.0566C42.8193 47.4594 57.6634 43.7447 71.25 36.4887C72.216 36.3427 81.7931 34.9645 91.7166 34.855H91.6892ZM31.2191 43.8451C30.2623 46.0082 29.4969 47.6784 29.0868 48.5637C28.4307 47.8792 27.2097 46.5466 25.5603 44.5205L31.2191 43.8359V43.8451ZM25.7608 55.984C24.8769 55.4637 23.3278 54.6058 22.2525 54.0217C22.9177 53.6384 23.5738 53.2459 24.2208 52.8443C25.4328 52.0959 26.6812 51.3383 28.0025 50.6812C27.4193 51.8312 26.5991 53.6201 25.7608 55.9748V55.984ZM25.2505 50.955L25.8975 46.6471C26.9819 47.9248 27.802 48.8102 28.3214 49.3395C27.2552 49.8233 26.2347 50.38 25.2505 50.955ZM28.3761 52.461C28.8044 51.5209 29.1688 50.809 29.4149 50.3618C29.752 50.6538 30.2259 51.0828 30.8364 51.6669L28.3761 52.461ZM36.8142 50.1792L33.7615 53.1272C32.5587 51.7764 31.5107 50.7542 30.7635 50.0788C32.0666 50.0971 34.1534 50.1244 36.8142 50.1792ZM30.1803 48.8193C30.8455 47.359 32.2306 44.3106 33.88 40.5046L39.7211 46.8752C35.2104 47.9522 31.7841 48.5637 30.1803 48.8193Z" fill="#C7FFC6"/>
<path d="M78.8498 23.6276L72.8721 20.1228C72.2524 19.7578 72.134 18.9089 72.626 18.3887C73.3186 17.6585 74.4121 17.5125 75.2778 18.0145L81.2555 21.5192C81.8843 21.8843 81.9936 22.7423 81.4924 23.2625H81.4833C80.7908 23.9836 79.7064 24.1296 78.8498 23.6276Z" fill="#024731"/>
<path d="M30.3353 71.4632C30.2624 73.5807 27.8658 75.3696 24.9772 75.4517C22.0885 75.5338 19.8104 73.891 19.8924 71.7736C19.9653 69.6561 22.3619 67.8671 25.2505 67.785C28.1392 67.7029 30.4173 69.3457 30.3353 71.4632Z" fill="#024731"/>
<path d="M69.5999 17.5872C70.586 17.4843 71.3244 16.8156 71.2493 16.0936C71.1742 15.3717 70.3139 14.8699 69.3278 14.9728C68.3417 15.0757 67.6032 15.7444 67.6784 16.4664C67.7535 17.1883 68.6138 17.6902 69.5999 17.5872Z" fill="#024731"/>
</svg>
