<svg width="100" height="100" viewBox="0 0 100 100" fill="none" xmlns="http://www.w3.org/2000/svg">
<g clip-path="url(#clip0_15980_11562)">
<rect width="100" height="100" fill="#6CF479"/>
<path d="M98.1308 27.0666L85.2823 27.3769L61.5444 13.6225C60.0044 12.7281 57.7354 13.0567 56.5143 14.3436L20.0282 52.75L-0.000976562 66.1119V73.1306C0.0445856 73.9246 0.50933 74.6822 1.34767 75.1659L36.5855 95.583C38.1255 96.4775 40.3944 96.1489 41.6155 94.862L97.3563 36.1845C97.8939 35.6186 98.149 34.9614 98.1399 34.3317V27.0666H98.1308Z" fill="black"/>
<path d="M41.6155 87.6591C40.3853 88.9551 38.1255 89.2746 36.5855 88.3801L1.34768 67.963C-0.192318 67.0686 -0.44747 65.2797 0.773595 63.9927L56.5143 5.31528C57.7445 4.01925 60.0044 3.69982 61.5444 4.59427L96.7822 25.0114C98.3222 25.9058 98.5773 27.6947 97.3563 28.9816L41.6155 87.6591Z" fill="#11B67A"/>
<path d="M84.8906 54.0185C84.8906 54.0185 91.7614 56.4007 99.999 56.2364C99.999 56.2364 89.9389 58.4725 88.0526 64.2043C85.8565 70.867 91.4243 76.5987 91.4243 76.5987C91.4243 76.5987 78.9767 68.284 75.113 78.7253C75.113 78.7253 73.4727 82.7138 75.6597 88.9567C75.6597 88.9567 69.7366 79.4281 64.8979 75.038L84.8906 54.0185Z" fill="white"/>
<path d="M91.6883 34.9424L92.7362 33.838C83.7422 33.838 74.8029 34.9697 71.9234 35.3713C73.026 32.6059 76.2427 23.7709 76.9352 13.5122L75.8782 12.9007C75.2039 24.4372 71.2217 34.2578 70.6294 35.6634C60.2048 41.2126 49.0421 44.6626 40.932 46.6706L34.3528 39.4968C36.7312 33.9293 39.5287 27.0293 41.4514 21.1789L39.6563 23.0682C37.3053 29.8039 34.0704 37.4614 31.7376 42.7825L24.7575 43.6222C24.1196 42.819 23.427 41.9154 22.698 40.9297L21.9326 41.7329C23.0534 43.2388 24.074 44.5349 24.9671 45.621L24.0649 51.6448L24.238 51.6721C24.0467 51.7908 23.8553 51.9095 23.664 52.019C22.7983 52.5483 21.969 53.0503 21.1307 53.5158C21.1307 53.5158 21.1125 53.5067 21.1034 53.5067L21.0851 53.5432C20.9667 53.6071 20.8482 53.6801 20.7297 53.744C17.4675 55.4872 11.7905 56.7376 6.91533 57.5499L5.65781 58.8734C10.8246 58.0702 17.3582 56.7376 21.1307 54.7571C22.1786 55.3229 24.475 56.5734 25.4044 57.1393C25.0673 58.1706 24.721 59.2841 24.4112 60.4797C23.509 61.4381 16.5563 68.9131 12.8384 74.6266L13.7861 75.1742C17.6953 69.1869 25.2222 61.219 25.3042 61.1278L25.4044 61.0273L25.4409 60.8904C26.179 58.0702 27.0447 55.7063 27.801 53.8901L31.7102 52.6305C34.1797 55.1952 37.7609 59.567 40.1666 65.4083C40.2759 66.4671 41.3876 78.177 40.3853 88.5088C40.8227 88.3171 41.2236 88.0615 41.5517 87.7329C42.3262 78.5603 41.5517 68.6119 41.3056 65.9194C43.7933 66.3028 52.4957 67.6992 59.0931 69.269L59.9679 68.3563C52.8693 66.6222 42.9459 65.0615 41.0869 64.7786C39.2007 60.2698 36.6856 56.6647 34.4895 54.0543L38.3714 50.3031C47.7481 50.4856 62.7927 50.8599 75.9237 51.5535L76.917 50.5131C61.8177 49.6825 43.9118 49.2992 34.9634 49.144C42.8183 47.5468 57.6624 43.8321 71.2491 36.5761C72.215 36.4301 81.7922 35.0519 91.7156 34.9424H91.6883ZM31.2182 43.9325C30.2614 46.0956 29.4959 47.7658 29.0859 48.6511C28.4298 47.9666 27.2087 46.634 25.5594 44.6079L31.2182 43.9233V43.9325ZM25.7598 56.0714C24.8759 55.5511 23.3268 54.6932 22.2515 54.1091C22.9167 53.7258 23.5728 53.3333 24.2198 52.9317C25.4318 52.1833 26.6802 51.4257 28.0015 50.7686C27.4183 51.9186 26.5982 53.7075 25.7598 56.0622V56.0714ZM25.2495 51.0424L25.8965 46.7345C26.9809 48.0122 27.801 48.8976 28.3204 49.4269C27.2543 49.9107 26.2337 50.4674 25.2495 51.0424ZM28.3751 52.5484C28.8034 51.6083 29.1679 50.8964 29.4139 50.4492C29.7511 50.7412 30.2249 51.1702 30.8355 51.7543L28.3751 52.5484ZM36.8132 50.2666L33.7605 53.2146C32.5577 51.8638 31.5098 50.8416 30.7625 50.1662C32.0656 50.1845 34.1524 50.2118 36.8132 50.2666ZM30.1794 48.9067C30.8446 47.4464 32.2297 44.398 33.879 40.592L39.7201 46.9626C35.2094 48.0396 31.7831 48.6511 30.1794 48.9067Z" fill="#C7FFC6"/>
<path d="M78.8488 23.715L72.8711 20.2102C72.2514 19.8452 72.133 18.9963 72.6251 18.4761C73.3176 17.7459 74.4111 17.5999 75.2768 18.1019L81.2545 21.6066C81.8833 21.9717 81.9927 22.8297 81.4915 23.3499H81.4824C80.7898 24.071 79.7054 24.217 78.8488 23.715Z" fill="#024731"/>
<path d="M30.3343 71.5506C30.2614 73.6681 27.8648 75.457 24.9762 75.5391C22.0875 75.6212 19.8094 73.9784 19.8915 71.861C19.9644 69.7435 22.3609 67.9545 25.2496 67.8724C28.1382 67.7903 30.4163 69.4331 30.3343 71.5506Z" fill="#024731"/>
<path d="M69.5989 17.6746C70.585 17.5717 71.3235 16.903 71.2483 16.181C71.1732 15.4591 70.3129 14.9573 69.3268 15.0602C68.3407 15.1631 67.6023 15.8318 67.6774 16.5538C67.7525 17.2757 68.6128 17.7776 69.5989 17.6746Z" fill="#024731"/>
</g>
<defs>
<clipPath id="clip0_15980_11562">
<rect width="100" height="100" fill="white"/>
</clipPath>
</defs>
</svg>
