<svg width="100" height="100" viewBox="0 0 100 100" fill="none" xmlns="http://www.w3.org/2000/svg">
<g clip-path="url(#clip0_15980_11576)">
<rect width="100" height="100" fill="#6CF479"/>
<path d="M26.6739 89.3696C24.8019 88.1055 23.0247 86.7044 21.3526 85.1768C23.0247 86.6938 24.8019 88.0949 26.6739 89.3696Z" fill="black"/>
<path d="M20.2482 14.3907C28.6929 6.66873 39.8612 1.90706 52.1128 1.69637C50.4092 1.50674 48.6845 1.40137 46.9388 1.40137C34.9501 1.40137 24.0236 5.89967 15.7262 13.3056L20.2588 14.3907H20.2482Z" fill="black"/>
<path d="M15.1903 19.7755C16.0842 18.6588 17.0412 17.5948 18.0297 16.5624L13.4445 15.4668C12.4455 16.4887 11.4885 17.5421 10.5841 18.6483L15.1903 19.7755Z" fill="black"/>
<path d="M4.37928 50.3251C4.37928 41.1915 6.91374 32.6374 11.2991 25.3263L6.67184 24.1991C2.4022 31.2889 -0.0585938 39.5903 -0.0585938 48.471C-0.0585938 66.5801 10.1633 82.2979 25.1281 90.1673C12.5926 81.3603 4.37928 66.7908 4.37928 50.3146V50.3251Z" fill="black"/>
<path d="M52.9436 3.25317C59.9054 3.25317 66.4992 4.78068 72.441 7.50916C71.2947 23.1005 64.8166 38.3864 52.9436 50.3327C52.9015 33.4667 46.6969 18.0755 36.496 6.2345C41.6175 4.31719 47.1596 3.26371 52.9436 3.26371V3.25317Z" fill="#11B67A"/>
<path d="M5.95648 50.3228C5.95648 43.3488 7.48139 36.7436 10.2051 30.7915C25.7693 31.9398 41.0286 38.4291 52.9541 50.3228C36.1174 50.3649 20.753 56.5804 8.93263 66.7991C7.01865 61.6687 5.96701 56.1169 5.96701 50.3228H5.95648Z" fill="#11B67A"/>
<path d="M52.9437 97.4014C45.9819 97.4014 39.3881 95.8739 33.4464 93.1454C34.5927 77.554 41.0707 62.2682 52.9437 50.3218C52.9858 67.1879 59.1904 82.579 69.3913 94.42C64.2699 96.3373 58.7277 97.3908 52.9437 97.3908V97.4014Z" fill="#11B67A"/>
<path d="M99.9414 50.3212C99.9414 57.2952 98.4166 63.9005 95.6928 69.8526C80.1286 68.7043 64.8693 62.2155 52.9437 50.3218C69.7804 50.2797 85.1449 44.0636 96.9653 33.8449C98.8793 38.9753 99.9309 44.5271 99.9309 50.3212H99.9414Z" fill="#11B67A"/>
<path d="M19.7225 17.0493C24.6441 12.1191 30.386 8.52677 36.5066 6.24074C46.7074 18.0817 52.9016 33.4729 52.9436 50.3284C41.0076 38.4347 25.7589 31.9454 10.1841 30.7971C12.4557 25.8142 15.6211 21.1473 19.7225 17.0388V17.0493Z" fill="#C7FFC6"/>
<path d="M19.7225 83.6174C14.8008 78.6872 11.2147 72.9352 8.93269 66.804C20.7531 56.5854 36.1175 50.3804 52.9436 50.3383C41.0707 62.2952 34.5926 77.5704 33.4463 93.1723C28.4721 90.8968 23.8133 87.7259 19.712 83.6174H19.7225Z" fill="#C7FFC6"/>
<path d="M86.1753 83.6174C81.2536 88.5476 75.5117 92.1399 69.3911 94.4259C59.1903 82.585 52.9961 67.1938 52.954 50.3383C64.8901 62.232 80.1389 68.7213 95.7136 69.8696C93.4421 74.8525 90.2766 79.5194 86.1753 83.6279V83.6174Z" fill="#C7FFC6"/>
<path d="M86.1753 17.0467C91.0969 21.9769 94.683 27.7288 96.9651 33.86C85.1447 44.0787 69.7802 50.2836 52.954 50.3258C64.827 38.3689 71.3051 23.0936 72.4514 7.49173C77.4257 9.76723 82.0844 12.9382 86.1858 17.0467H86.1753Z" fill="#C7FFC6"/>
<path d="M48.4431 20.0652C40.2403 19.3699 35.7287 15.3351 35.7287 15.3351C30.418 17.3473 25.6015 20.8448 21.9523 25.7329C18.3873 30.5051 16.4102 35.9726 15.9265 41.4927C16.8835 38.4166 18.3663 35.4459 20.3959 32.7174C26.853 24.0789 37.8321 19.7492 48.4431 20.0547V20.0652Z" fill="white"/>
<path d="M63.4391 78.3638C71.3474 77.3841 76.4057 80.3128 76.4057 80.3128C81.0329 77.3525 84.9029 73.086 87.3848 67.7238C89.8141 62.4986 90.5923 56.9363 89.9613 51.6058C89.6669 54.7135 88.8571 57.8107 87.4689 60.8025C83.0731 70.2732 73.5453 76.5519 63.4391 78.3638Z" fill="white"/>
</g>
<defs>
<clipPath id="clip0_15980_11576">
<rect width="100" height="100" fill="white"/>
</clipPath>
</defs>
</svg>
