<svg width="100" height="100" viewBox="0 0 100 100" fill="none" xmlns="http://www.w3.org/2000/svg">
<rect width="100" height="100" fill="#6CF479"/>
<path d="M59.4856 85.6514C59.0263 85.1105 58.7712 84.4268 58.7712 83.7226V74.3237H38.9018V83.7226C38.9018 84.437 38.6569 85.1207 38.1875 85.6514L31.9419 92.9684C31.6664 93.295 31.5133 93.7134 31.5133 94.142V94.7543C31.5133 95.2544 31.9215 95.6626 32.4216 95.6626H65.2515C65.7515 95.6626 66.1597 95.2544 66.1597 94.7543V94.142C66.1597 93.7134 66.0066 93.295 65.7311 92.9684L59.4856 85.6514Z" fill="#11B67A"/>
<path d="M97.2344 8.11343H2.77579C1.24503 8.11343 0 9.35846 0 10.8892V70.1504C0 71.6811 1.24503 72.9262 2.77579 72.9262H97.2242C98.755 72.9262 100 71.6811 100 70.1504V10.8994C100 9.36866 98.755 8.12364 97.2242 8.12364L97.2344 8.11343Z" fill="#11B67A"/>
<path d="M57.1488 85.3362L63.5882 92.6533H40.4838C40.4838 92.6533 56.6793 91.8777 57.1386 85.3362H57.1488Z" fill="white"/>
<path d="M2.7761 6.73644H97.2347C97.6735 6.73644 98.1022 6.81808 98.5002 6.96095C98.4185 5.59346 97.2755 4.51172 95.8979 4.51172H4.11298C2.72508 4.51172 1.59231 5.59346 1.51067 6.96095C1.91887 6.82828 2.33728 6.73644 2.7761 6.73644Z" fill="black"/>
<path d="M4.58216 12.6843V68.3635H95.4384V12.6843H4.58216Z" fill="black"/>
<path d="M92.6016 42.6071H8.10322V65.2931H92.6016V42.6071Z" fill="#6CF479"/>
<path d="M89.8962 51.5667L80.8647 47.403L67.0061 59.8022L58.444 54.8119L45.5856 56.955L42.7486 49.8624L33.2578 46.709L24.6141 55.3528L18.8584 51.0462L10.3065 56.3223V57.9449L18.7767 52.7198L24.7263 57.1795L33.6252 48.2806L41.6974 50.9646L44.7079 58.5061L58.1787 56.261L67.1694 61.5065L81.0994 49.046L89.8758 53.0974V51.5667H89.8962Z" fill="#01482F"/>
<path d="M19.1034 21.0058L33.1967 33.585L41.7588 28.5947L54.6173 30.7377L57.4543 23.6452L66.945 20.4918L75.5888 29.1355L81.3445 24.829L89.8964 30.105V31.7276L81.4261 26.5026L75.4765 30.9622L66.5777 22.0634L58.5054 24.7473L55.4949 32.2889L42.0241 30.0438L33.0334 35.2892L19.1034 22.8288V21.0058Z" fill="#6CF479"/>
<path d="M38.9123 74.3237V83.7226C38.9123 84.141 38.8102 84.5594 38.6367 84.9472H45.3109C46.9743 84.9472 48.5153 84.0288 49.2909 82.549L50.6992 79.9161C51.0666 79.2221 51.7911 78.7935 52.5871 78.7935H58.7919V74.3339H38.9225L38.9123 74.3237Z" fill="black"/>
<path d="M8.23571 16.0832H22.0024C22.0024 16.0832 12.2055 20.8388 8.23571 39.6978V16.0832Z" fill="white"/>
</svg>
