<svg width="100" height="100" viewBox="0 0 100 100" fill="none" xmlns="http://www.w3.org/2000/svg">
<g clip-path="url(#clip0_15980_11647)">
<rect width="100" height="100" fill="#6CF479"/>
<path d="M53.5726 18.0552C31.413 18.0552 13.2549 31.3584 11.5658 48.2622C12.9734 64.813 31.2722 77.9548 53.5726 77.9548C75.8729 77.9548 94.1717 64.813 95.5793 48.2622C93.8902 31.3584 75.7422 18.0552 53.5726 18.0552Z" fill="#C7FFC6"/>
<path d="M53.5725 13.0202C30.0254 13.0202 10.9423 27.8665 10.9423 46.1722C10.9423 47.433 11.0429 48.6836 11.2239 49.9141C11.3244 49.2282 11.4551 48.5525 11.616 47.8768C13.5364 31.1646 31.5838 18.053 53.5825 18.053C75.5813 18.053 93.6287 31.1545 95.549 47.8768C95.6999 48.5525 95.8406 49.2282 95.9412 49.9141C96.1221 48.6836 96.2227 47.4431 96.2227 46.1722C96.2227 27.8665 77.1397 13.0202 53.5926 13.0202H53.5725Z" fill="#00482F"/>
<path d="M53.5723 14.4615C76.7877 14.4615 95.6696 28.7027 95.6696 46.2016C95.6696 63.7004 76.7877 77.9416 53.5723 77.9416C30.357 77.9416 11.4751 63.7105 11.4751 46.2116C11.4751 28.7128 30.357 14.4615 53.5723 14.4615ZM53.5723 10.0339C27.8837 10.0339 7.05123 26.2317 7.05123 46.2116C7.05123 66.1916 27.8736 82.3894 53.5723 82.3894C79.2711 82.3894 100.093 66.1916 100.093 46.2116C100.093 26.2317 79.261 10.0339 53.5723 10.0339Z" fill="#11B67A"/>
<path d="M70.9764 11.0935C70.8959 10.801 70.8457 10.5085 70.8557 10.2059C70.9462 8.25938 73.1682 6.66582 75.8225 6.66582C75.9331 6.66582 76.0437 6.66582 76.1644 6.66582C78.9695 6.80702 81.2518 8.66281 81.1613 10.7304C81.101 12.1222 79.9347 13.3225 78.3059 13.8973C79.7537 14.5832 81.1412 15.3194 82.4885 16.1162C84.0771 14.795 85.0926 12.9695 85.183 10.9019C85.3741 6.57505 81.4228 2.87356 76.3655 2.62141C76.1845 2.62141 76.0035 2.61133 75.8326 2.61133C71.0166 2.61133 67.0552 5.81862 66.8541 9.97397C68.2617 10.2967 69.6391 10.6598 70.9864 11.0733L70.9764 11.0935Z" fill="#11B67A"/>
<path d="M75.6117 41.4329C75.1392 41.2816 74.5761 41.2715 74.0533 41.4329L56.2573 46.6674C57.5442 47.202 58.1575 48.2912 57.7553 49.32L75.5414 44.0855C76.5769 43.7829 77.0696 42.9357 76.6574 42.2095C76.4563 41.8565 76.0742 41.5842 75.6017 41.443" fill="#00482F"/>
<path d="M57.8758 48.0315H57.8657C57.9059 47.1943 57.3127 46.3774 56.257 45.9437C56.1464 45.8933 56.0258 45.8529 55.8951 45.8126C55.4024 45.6613 54.8896 45.6008 54.397 45.631L43.9908 25.8528C43.8903 25.6611 43.6892 25.5199 43.4479 25.4493C43.2166 25.3787 42.9452 25.3686 42.6838 25.4392C42.171 25.5805 41.8995 26.0041 42.1006 26.3671L52.5068 46.1454C52.0946 46.3774 51.7527 46.69 51.5215 47.0531C51.3204 47.3759 51.2399 47.7087 51.2399 48.0315V49.2216C51.2098 50.1495 51.9538 51.0269 53.2106 51.4102C54.8896 51.9246 56.8502 51.3699 57.5942 50.1596C57.6646 50.0486 57.7149 49.9478 57.7551 49.8368C57.8355 49.625 57.8657 49.4233 57.8657 49.2115H57.8758V48.0214V48.0315Z" fill="black"/>
<path d="M69.0055 24.565C67.8895 24.2221 66.5825 24.5952 66.0898 25.4021C65.5971 26.209 66.0898 27.1268 67.2159 27.4697C68.342 27.8126 69.639 27.4495 70.1316 26.6427C70.6243 25.8358 70.1216 24.9079 69.0055 24.565Z" fill="black"/>
<path d="M41.447 69.2264C40.331 68.8835 39.034 69.2566 38.5313 70.0534C38.0286 70.8502 38.5313 71.7882 39.6573 72.121C40.7834 72.4538 42.0905 72.0907 42.5831 71.294C43.0758 70.4972 42.563 69.5693 41.447 69.2264Z" fill="black"/>
<path d="M24.0829 37.3458C22.9668 37.0028 21.6497 37.376 21.1571 38.1728C20.6644 38.9696 21.1772 39.8975 22.2932 40.2404C23.4092 40.5833 24.7163 40.2101 25.2089 39.4134C25.7016 38.6166 25.2089 37.6786 24.0829 37.3458Z" fill="black"/>
<path d="M86.3793 56.4458C85.2633 56.1028 83.9462 56.476 83.4536 57.2728C82.9609 58.0696 83.4737 58.9975 84.5897 59.3404C85.7057 59.6833 87.0128 59.3101 87.5054 58.5133C87.9981 57.7166 87.5054 56.7786 86.3793 56.4458Z" fill="black"/>
<path d="M51.3 22.7491C51.0386 22.6684 50.7571 22.6381 50.4554 22.6684C49.5405 22.739 48.887 23.334 48.9875 23.9795C49.0478 24.4132 49.44 24.7662 49.9628 24.9276C50.2242 25.0083 50.5158 25.0385 50.8174 25.0184C51.7323 24.9377 52.3859 24.3527 52.2853 23.7072C52.2149 23.2735 51.8329 22.9205 51.3101 22.7592" fill="#00482F"/>
<path d="M58.7102 71.7644C58.4487 71.6837 58.1572 71.6535 57.8555 71.6736C56.9507 71.7543 56.2871 72.3393 56.3876 72.9848C56.458 73.4185 56.8401 73.7715 57.3629 73.9329C57.6243 74.0135 57.9159 74.0438 58.2175 74.0236C59.1224 73.943 59.7759 73.358 59.6854 72.7125C59.615 72.2788 59.233 71.9258 58.7102 71.7644Z" fill="#00482F"/>
<path d="M34.59 27.4959C34.0672 27.3346 33.4338 27.3749 32.9411 27.6371C32.2071 28.0305 32.0463 28.7768 32.5791 29.2912C32.7601 29.4627 32.9914 29.5938 33.2528 29.6745C33.7756 29.8358 34.409 29.7955 34.9017 29.5333C35.6356 29.1399 35.7965 28.3936 35.2636 27.8792C35.0827 27.7077 34.8514 27.5766 34.59 27.4959Z" fill="#00482F"/>
<path d="M75.4201 67.0118C74.8973 66.8504 74.2639 66.8908 73.7712 67.153C73.0272 67.5363 72.8663 68.2826 73.4093 68.8071C73.5902 68.9785 73.8215 69.1097 74.0729 69.1903C74.5957 69.3517 75.2291 69.3114 75.7218 69.0491C76.4658 68.6558 76.6266 67.9195 76.0837 67.3951C75.9027 67.2236 75.6715 67.0925 75.4101 67.0118" fill="#00482F"/>
<path d="M82.961 32.46C82.4381 32.2987 81.8047 32.339 81.3121 32.6012C80.5781 32.9946 80.4172 33.7308 80.9501 34.2553C81.1311 34.4268 81.3623 34.5579 81.6237 34.6386C82.1466 34.7999 82.78 34.7596 83.2727 34.4974C84.0066 34.104 84.1675 33.3577 83.6346 32.8433C83.4536 32.6718 83.2224 32.5407 82.961 32.46Z" fill="#00482F"/>
<path d="M27.0492 62.0556C26.5263 61.8942 25.903 61.9345 25.4003 62.1968C24.6562 62.5901 24.4954 63.3264 25.0383 63.8509C25.2193 64.0223 25.4505 64.1534 25.7019 64.2341C26.2247 64.3955 26.8481 64.3551 27.3508 64.0929C28.0948 63.7096 28.2557 62.9633 27.7127 62.4388C27.5318 62.2674 27.3005 62.1363 27.0391 62.0556" fill="#00482F"/>
<path d="M89.4256 44.3232C89.1642 44.2426 88.8727 44.2123 88.5811 44.2426C87.6661 44.3132 87.0126 44.9082 87.1132 45.5537C87.1735 45.9874 87.5656 46.3404 88.0884 46.5018C88.3498 46.5825 88.6414 46.6127 88.943 46.5925C89.858 46.5219 90.5115 45.9269 90.411 45.2814C90.3506 44.8477 89.9585 44.4947 89.4357 44.3333" fill="#00482F"/>
<path d="M20.5842 50.1902C20.3228 50.1096 20.0312 50.0793 19.7296 50.0995C18.8247 50.1802 18.1712 50.7651 18.2617 51.4106C18.332 51.8443 18.7141 52.1973 19.2369 52.3587C19.4983 52.4394 19.7899 52.4696 20.0915 52.4495C20.9964 52.3688 21.66 51.7838 21.5595 51.1383C21.4891 50.7046 21.107 50.3516 20.5842 50.1902Z" fill="#00482F"/>
<path d="M20.7049 52.5525C20.7049 42.0431 30.2464 33.1373 43.4577 30.0107C43.7493 26.0167 47.6 22.7086 52.788 21.6798C52.7478 21.6798 52.7076 21.6798 52.6774 21.6798C32.579 21.6798 16.291 33.46 16.291 47.9937C16.291 55.5379 20.6848 62.3256 27.7026 67.1265C23.319 63.1022 20.7049 58.0492 20.7049 52.5525Z" fill="white"/>
<path d="M5.70403 49.14C2.12471 53.5778 0.09375 58.6408 0.09375 64.0166C0.09375 81.465 21.439 95.3128 47.7611 95.6053C57.4232 95.7163 67.7691 94.3042 77.0592 90.2498V79.0646C70.1117 82.1307 62.0984 83.8957 53.5724 83.8957C28.3463 83.8957 7.6244 68.5552 5.70403 49.14Z" fill="black"/>
<path d="M86.2689 85.0474C86.9123 84.5834 87.5558 84.1094 88.1792 83.6051C88.8126 83.0605 89.4159 82.4957 89.999 81.9208V70.7457C88.8227 71.8148 87.5759 72.8335 86.2689 73.8017V85.0575V85.0474Z" fill="black"/>
<path d="M93.3172 67.3332V78.2259C97.6103 72.7493 100.094 66.3146 100.094 59.4259V55.5933C98.6962 59.8395 96.3737 63.8032 93.3172 67.3332Z" fill="black"/>
</g>
<defs>
<clipPath id="clip0_15980_11647">
<rect width="100" height="100" fill="white"/>
</clipPath>
</defs>
</svg>
