<svg width="100" height="100" viewBox="0 0 100 100" fill="none" xmlns="http://www.w3.org/2000/svg">
<rect width="100" height="100" fill="#6CF479"/>
<path d="M76.9365 8.86218C76.9365 8.86218 79.5205 17.4536 90 19.8374C90 19.8374 82.0566 21.2133 81.8971 30.7806C81.8971 30.7806 79.0978 22.4932 69.049 19.8294C69.049 19.8294 77.4469 18.8295 76.9285 8.86218H76.9365Z" fill="white"/>
<path d="M35.1699 21.4164C21.4365 21.4164 10.3031 24.8561 10.3031 29.1118C10.3031 33.3675 21.4365 36.8073 35.1699 36.8073C48.9033 36.8073 60.0368 33.3595 60.0368 29.1118C60.0368 24.8641 48.9033 21.4164 35.1699 21.4164Z" fill="#11B67A"/>
<path d="M30.6798 82.5765C42.101 82.5765 51.3597 79.7113 51.3597 76.177C51.3597 72.6426 42.101 69.7774 30.6798 69.7774C19.2587 69.7774 10 72.6426 10 76.177C10 79.7113 19.2587 82.5765 30.6798 82.5765Z" fill="black"/>
<path d="M35.1701 35.0124C43.6318 35.0124 50.993 33.6845 54.7414 31.7326C52.4046 29.0608 44.541 27.1009 35.1701 27.1009C25.7992 27.1009 17.9435 29.0688 15.5988 31.7326C19.3472 33.6845 26.7083 35.0124 35.1701 35.0124Z" fill="black"/>
<path d="M65.7472 31.3079C62.565 31.0919 59.8694 32.6678 58.4099 33.7477C53.6327 37.0035 44.1661 38.5314 35.17 38.5314C25.52 38.5314 15.3196 36.7715 10.9571 33.0118C11.0369 41.5552 12.0019 61.4817 18.8766 76.8086H18.9005C20.0489 79.2725 26.8837 81.1683 35.162 81.1683C43.4404 81.1683 50.5623 79.2005 51.4954 76.6646C52.899 73.5369 54.0474 70.2171 54.9965 66.8493C55.4192 65.3535 56.2486 64.0096 57.4449 63.0256C59.2074 61.5937 61.289 59.7299 63.2987 57.554C68.2035 52.2344 70.5004 47.3068 71.3298 43.0511C72.6856 36.1076 70.5084 31.6279 65.7232 31.3079H65.7472ZM64.7502 50.9625C62.6926 54.0183 60.3559 56.5141 58.378 58.354C57.8437 58.8499 57.0063 58.378 57.1339 57.666C58.3621 51.0025 58.9363 44.6269 59.1995 39.5633C59.3111 37.3635 60.7227 35.4436 62.7804 34.6917L62.8202 34.6757C66.6404 33.2758 68.2833 35.3956 68.706 37.1795C69.0569 38.6354 69.4875 43.907 64.7423 50.9625H64.7502Z" fill="#11B67A"/>
<path d="M56.3443 37.625C56.3443 37.625 55.9854 54.9998 49.0071 74.6704C49.0071 74.6704 52.4923 60.9114 47.0851 52.584C47.0851 52.584 54.0634 49.4482 56.3523 37.617L56.3443 37.625Z" fill="white"/>
<path d="M33.8063 29.4299C33.8063 29.4299 28.3034 22.1984 36.6694 14.7349C41.8374 10.1353 46.9734 4.56767 45.6894 0C45.6894 0 52.5641 7.39947 43.7275 16.2628C38.6233 21.3825 34.6995 23.7023 33.8063 29.4299Z" fill="white"/>
<path d="M59.497 76.407C59.8606 76.2697 60.0693 75.9292 59.9632 75.6463C59.8571 75.3635 59.4763 75.2455 59.1127 75.3828C58.7491 75.52 58.5403 75.8605 58.6465 76.1434C58.7526 76.4262 59.1334 76.5443 59.497 76.407Z" fill="#006A4D"/>
<path d="M58.6475 91.6894C59.0112 91.5521 59.2199 91.2116 59.1138 90.9287C59.0076 90.6459 58.6269 90.5279 58.2633 90.6652C57.8996 90.8024 57.6909 91.1429 57.797 91.4258C57.9031 91.7086 58.2839 91.8266 58.6475 91.6894Z" fill="#006A4D"/>
<path d="M60.7539 86.7538C61.1176 86.6165 61.3263 86.276 61.2202 85.9931C61.114 85.7103 60.7333 85.5923 60.3697 85.7296C60.006 85.8668 59.7973 86.2074 59.9034 86.4902C60.0096 86.773 60.3903 86.8911 60.7539 86.7538Z" fill="#006A4D"/>
<path d="M62.8062 81.6748C63.1698 81.5376 63.3785 81.197 63.2724 80.9142C63.1663 80.6313 62.7855 80.5133 62.4219 80.6506C62.0583 80.7878 61.8495 81.1284 61.9557 81.4112C62.0618 81.6941 62.4426 81.8121 62.8062 81.6748Z" fill="#006A4D"/>
<path d="M64.6409 77.3512C65.0045 77.2139 65.2133 76.8734 65.1072 76.5905C65.001 76.3077 64.6203 76.1897 64.2566 76.3269C63.893 76.4642 63.6843 76.8047 63.7904 77.0876C63.8965 77.3704 64.2773 77.4884 64.6409 77.3512Z" fill="#006A4D"/>
<path d="M70.289 99.9923C79.8707 100.237 87.8564 94.6072 87.9029 88.3534C87.9477 82.0951 80.2174 76.8229 70.6402 76.5763C61.0586 76.3314 53.2545 81.2056 53.208 87.4594C53.1633 93.7177 60.7119 99.7457 70.2935 99.9906L70.289 99.9923Z" fill="#11B67A"/>
<path d="M78.281 95.0487C75.8625 95.9617 73.1567 96.4087 70.457 96.3405C61.8668 96.1214 54.6455 90.775 54.6916 84.6701C54.7208 80.946 57.607 77.641 62.4126 75.827C64.9297 74.8769 67.8242 74.4151 70.7877 74.4913C79.6115 74.7197 86.7578 79.6482 86.7164 85.4796C86.6874 89.3677 83.3777 93.1248 78.281 95.0487Z" fill="#6CF479"/>
<path d="M70.7605 69.3674C67.415 69.2815 64.2887 69.8205 61.6284 70.8248C56.675 72.6946 53.3566 76.1832 53.33 80.255C53.2852 86.5133 60.8338 92.5414 70.4155 92.7862C73.4882 92.8675 76.3983 92.3382 78.9332 91.3813C84.3032 89.3543 87.9974 85.3955 88.0277 81.1428C88.0724 74.8845 80.3421 69.6123 70.765 69.3657L70.7605 69.3674Z" fill="#11B67A"/>
<path d="M70.7983 85.4688C74.5986 85.5677 77.7678 83.3303 77.7839 80.8523C77.8028 78.3681 74.7384 76.2785 70.9337 76.1813C67.1334 76.0824 64.0345 78.0163 64.02 80.4988C64.0011 82.9831 66.9936 85.3716 70.7983 85.4688Z" fill="black"/>
<path d="M58.3681 87.2017C58.3681 87.2017 58.3508 84.3209 63.5933 83.5215C63.5933 83.5215 56.961 81.7479 58.3681 87.2017Z" fill="#6CF479"/>
<path d="M56.2575 77.6677C56.2575 77.6677 58.1105 75.4656 62.6163 78.2625C62.6163 78.2625 59.6401 72.565 56.2575 77.6677Z" fill="#6CF479"/>
<path d="M64.142 71.1318C64.142 71.1318 66.7294 70.9962 67.6702 75.6977C67.6702 75.6977 68.9821 69.6279 64.142 71.1318Z" fill="#6CF479"/>
<path d="M75.6027 70.3282C75.6027 70.3282 77.0049 72.5118 73.4045 75.671C73.4045 75.671 79.3072 73.7967 75.6027 70.3282Z" fill="#6CF479"/>
<path d="M83.3061 75.0927C83.3061 75.0927 83.0655 77.6811 78.2945 77.9384C78.2945 77.9384 84.0911 80.1147 83.3061 75.0927Z" fill="#6CF479"/>
<path d="M84.7534 83.6257C84.7534 83.6257 82.7205 85.2393 79.2408 81.9474C79.2408 81.9474 81.6754 87.6596 84.7534 83.6257Z" fill="#6CF479"/>
<path d="M77.7394 90.1238C77.7394 90.1238 74.8122 88.9722 75.166 85.459C75.166 85.459 72.3987 90.3755 77.7394 90.1238Z" fill="#6CF479"/>
<path d="M67.3191 90.9996C67.3191 90.9996 65.7161 88.9892 68.8618 85.8991C68.8618 85.8991 63.3394 87.8606 67.3191 90.9996Z" fill="#6CF479"/>
<path d="M72.2209 77.2941C69.2948 76.6499 66.1167 77.8957 65.0339 79.684C65.0339 79.684 69.3229 76.6701 72.9952 80.4072C72.9952 80.4072 74.4966 78.8352 76.8505 80.1622C75.9908 78.743 74.2355 77.744 72.2226 77.2986L72.2209 77.2941Z" fill="white"/>
<path d="M86.3268 86.0224C84.7388 88.263 82.1383 90.1626 78.9316 91.3731C76.3966 92.33 73.4848 92.8548 70.4138 92.7781C63.6394 92.6018 57.8832 89.5384 55.1067 85.5452C54.6046 84.8475 54.1347 83.8812 54.1347 83.8812C54.1914 84.5367 54.4204 85.8555 54.4204 85.8555C55.2359 91.6403 62.2292 96.4881 70.4542 96.7015C73.1965 96.7741 75.9504 96.3192 78.4137 95.3894C83.3134 93.5398 86.6076 90.0141 87.0339 86.2581C87.1256 85.603 87.0759 84.8166 87.0759 84.8166C86.8681 85.2438 86.3313 86.0208 86.3313 86.0208L86.3268 86.0224ZM78.1547 94.7127C75.8661 95.5766 73.2416 96.0493 70.4691 95.9779C63.1536 95.7904 57.1511 91.8662 55.5029 87.2418C58.7047 90.8284 64.2339 93.3415 70.3928 93.4988C73.4229 93.5756 76.4614 93.0749 79.1844 92.047C81.9074 91.0191 84.3626 89.3999 86.02 87.5486C85.0596 90.5626 82.1094 93.2199 78.1547 94.7127Z" fill="#6CF479"/>
</svg>
