<svg width="100" height="100" viewBox="0 0 100 100" fill="none" xmlns="http://www.w3.org/2000/svg">
<g clip-path="url(#clip0_15980_11703)">
<rect width="100" height="100" fill="#6CF479"/>
<path d="M51.2517 98.7766L17.3877 79.1542C15.8276 78.2512 15.5241 76.124 16.7636 74.8216L57.6657 31.7565C59.0438 30.3065 61.2454 29.9852 62.9789 30.9924L97.0508 50.7364C98.611 51.6394 98.9144 53.7666 97.675 55.069L56.9376 97.9605C55.4555 99.5146 53.1065 99.8532 51.2517 98.7766Z" fill="black"/>
<path d="M51.2517 96.6297L17.3877 77.0073C15.8276 76.1043 15.5241 73.9771 16.7636 72.6747L57.6657 29.6096C59.0438 28.1596 61.2454 27.8384 62.9789 28.8455L97.0508 48.5895C98.611 49.4925 98.9144 51.6197 97.675 52.9221L56.9376 95.8136C55.4555 97.3677 53.1065 97.7064 51.2517 96.6297Z" fill="#C7FFC6"/>
<path d="M51.2517 96.6297L17.3877 77.0073C15.8276 76.1043 15.5241 73.9771 16.7636 72.6747L57.6657 29.6096C59.0438 28.1596 61.2454 27.8384 62.9789 28.8455L97.0508 48.5895C98.611 49.4925 98.9144 51.6197 97.675 52.9221L56.9376 95.8136C55.4555 97.3677 53.1065 97.7064 51.2517 96.6297Z" fill="black"/>
<path d="M81.7352 37.4662L31.4462 90.412L39.403 95.0225L89.6919 42.0853L81.7352 37.4662Z" fill="black"/>
<path d="M55.828 65.7786L9.2227 81.1727L32.3736 48.5873L58.1162 53.5971L62.9787 61.3332L55.828 65.7786Z" fill="black"/>
<path d="M68.7169 47.5998L55.5769 5.83701C55.0915 4.29153 53.4187 3.26701 51.8326 3.54485L24.5212 8.43309L16.079 7.15676L14.5275 10.3867C14.1548 11.0639 14.0508 11.8193 14.2935 12.6181L30.5624 64.3223C31.0478 65.8678 32.7206 66.8923 34.3068 66.6144L70.1816 60.1981C71.0397 60.0418 71.6811 59.5295 72.0191 58.8523L73.718 55.4054L68.7169 47.5998Z" fill="black"/>
<path d="M35.9709 63.1773L71.8458 56.7609C73.4233 56.4744 74.3074 54.9984 73.822 53.4442L57.5531 1.73996C57.0677 0.194476 55.3948 -0.830044 53.8086 -0.552204L17.9339 5.86414C16.3564 6.15066 15.4723 7.62669 15.9577 9.18086L32.2266 60.8851C32.712 62.4306 34.3848 63.4551 35.9709 63.1773Z" fill="#11B67A"/>
<path d="M23.6632 18.3499L56.149 12.5326C56.7818 12.4197 57.1457 11.8206 56.9464 11.1955L54.7276 4.13663C54.5282 3.51149 53.8521 3.10342 53.2194 3.21629L20.7336 9.03357C20.1008 9.14644 19.7368 9.74551 19.9361 10.3707L22.1551 17.4295C22.3544 18.0547 23.0305 18.4627 23.6632 18.3499Z" fill="black"/>
<path d="M37.1674 29.5072L41.5098 28.7258C42.0818 28.6216 42.4025 28.0833 42.2292 27.5276L40.8857 23.2732C40.7124 22.7088 40.1056 22.3442 39.5249 22.4397L35.1825 23.2211C34.6104 23.3253 34.2897 23.8636 34.4631 24.4193L35.8066 28.6737C35.9799 29.2381 36.5866 29.6027 37.1674 29.5072Z" fill="#C7FFC6"/>
<path d="M27.945 31.1555L32.2874 30.3741C32.8595 30.2699 33.1801 29.7316 33.0068 29.1759L31.6634 24.9215C31.49 24.3571 30.8833 23.9925 30.3025 24.088L25.9601 24.8694C25.388 24.9736 25.0674 25.5119 25.2407 26.0676L26.5842 30.322C26.7576 30.8864 27.3643 31.251 27.945 31.1555Z" fill="#C7FFC6"/>
<path d="M46.3808 27.8555L50.7233 27.0741C51.2953 26.9699 51.616 26.4316 51.4426 25.8759L50.0992 21.6215C49.9259 21.0571 49.3191 20.6925 48.7384 20.788L44.3959 21.5694C43.8239 21.6736 43.5032 22.2119 43.6766 22.7676L45.0201 27.022C45.1934 27.5864 45.8001 27.951 46.3808 27.8555Z" fill="#C7FFC6"/>
<path d="M55.6028 26.2072L59.9452 25.4258C60.5173 25.3216 60.8379 24.7833 60.6646 24.2276L59.3212 19.9732C59.1478 19.4088 58.541 19.0441 57.9603 19.1397L53.6179 19.9211C53.0458 20.0253 52.7251 20.5636 52.8985 21.1193L54.2419 25.3737C54.4152 25.938 55.022 26.3027 55.6028 26.2072Z" fill="#C7FFC6"/>
<path d="M65.1286 38.4156L69.3236 51.665C69.497 52.2294 69.1763 52.7677 68.6042 52.8632L64.2618 53.6446C63.6897 53.7488 63.0831 53.3755 62.9011 52.8111L58.7059 39.5616C58.5325 38.9973 58.8533 38.459 59.4254 38.3635L63.7678 37.582C64.3399 37.4779 64.9465 37.8512 65.1286 38.4156Z" fill="#C7FFC6"/>
<path d="M42.9743 47.9575L47.3168 47.1761C47.8888 47.0719 48.2096 46.5336 48.0362 45.9779L46.6927 41.7235C46.5194 41.1591 45.9127 40.7945 45.332 40.89L40.9895 41.6714C40.4175 41.7756 40.0967 42.3139 40.2701 42.8696L41.6136 47.124C41.7869 47.6884 42.3936 48.053 42.9743 47.9575Z" fill="#00482F"/>
<path d="M52.1878 46.3058L56.5302 45.5244C57.1023 45.4202 57.4231 44.8819 57.2497 44.3262L55.9062 40.0718C55.7328 39.5074 55.1262 39.1428 54.5454 39.2383L50.203 40.0197C49.631 40.1239 49.3102 40.6622 49.4835 41.2179L50.827 45.4723C51.0004 46.0367 51.6071 46.4013 52.1878 46.3058Z" fill="#00482F"/>
<path d="M33.804 49.633L38.1465 48.8515C38.7185 48.7473 39.0392 48.209 38.8658 47.6533L37.5224 43.3989C37.3491 42.8346 36.7423 42.4699 36.1616 42.5654L31.8191 43.3468C31.2471 43.451 30.9264 43.9893 31.0998 44.545L32.4433 48.7994C32.6166 49.3638 33.2233 49.7285 33.804 49.633Z" fill="#00482F"/>
<path d="M45.8696 57.1793L50.212 56.3978C50.7841 56.2936 51.1047 55.7553 50.9314 55.1996L49.5879 50.9452C49.4145 50.3809 48.8078 50.0162 48.2271 50.1117L43.8847 50.8931C43.3126 50.9973 42.992 51.5357 43.1653 52.0913L44.5087 56.3457C44.6821 56.9101 45.2888 57.2748 45.8696 57.1793Z" fill="#00482F"/>
<path d="M55.0915 55.5275L59.4339 54.7461C60.006 54.6419 60.3267 54.1036 60.1533 53.5479L58.8098 49.2935C58.6365 48.7292 58.0298 48.3645 57.449 48.46L53.1066 49.2414C52.5346 49.3456 52.2139 49.8839 52.3872 50.4396L53.7306 54.694C53.904 55.2584 54.5108 55.6231 55.0915 55.5275Z" fill="#00482F"/>
<path d="M36.7077 58.8547L41.0502 58.0733C41.6222 57.9691 41.943 57.4308 41.7696 56.8751L40.4261 52.6207C40.2528 52.0563 39.6461 51.6917 39.0654 51.7872L34.7229 52.5686C34.1509 52.6728 33.8301 53.2111 34.0035 53.7668L35.347 58.0212C35.5203 58.5856 36.127 58.9502 36.7077 58.8547Z" fill="#00482F"/>
<path d="M40.0706 38.729L44.4131 37.9475C44.9851 37.8434 45.3059 37.305 45.1325 36.7494L43.789 32.4949C43.6157 31.9306 43.0089 31.5659 42.4282 31.6614L38.0858 32.4429C37.5138 32.547 37.193 33.0854 37.3664 33.641L38.7099 37.8955C38.8832 38.4598 39.4899 38.8245 40.0706 38.729Z" fill="#00482F"/>
<path d="M30.8487 40.3773L35.1911 39.5959C35.7632 39.4917 36.0839 38.9534 35.9106 38.3977L34.5671 34.1433C34.3937 33.5789 33.7871 33.2142 33.2063 33.3098L28.8639 34.0912C28.2918 34.1954 27.9711 34.7337 28.1444 35.2894L29.4879 39.5438C29.6613 40.1081 30.268 40.4728 30.8487 40.3773Z" fill="#00482F"/>
<path d="M49.2841 37.0773L53.6265 36.2958C54.1986 36.1917 54.5192 35.6533 54.3459 35.0977L53.0025 30.8432C52.8291 30.2789 52.2224 29.9142 51.6416 30.0097L47.2993 30.7911C46.7272 30.8953 46.4065 31.4337 46.5798 31.9893L47.9233 36.2437C48.0967 36.8081 48.7034 37.1728 49.2841 37.0773Z" fill="#00482F"/>
<path d="M58.5065 35.429L62.8489 34.6475C63.421 34.5434 63.7416 34.005 63.5683 33.4494L62.2249 29.1949C62.0515 28.6306 61.4447 28.2659 60.864 28.3614L56.5216 29.1429C55.9495 29.247 55.6288 29.7853 55.8022 30.341L57.1457 34.5955C57.3191 35.1598 57.9257 35.5245 58.5065 35.429Z" fill="#00482F"/>
<path d="M23.6632 18.3499L56.149 12.5326C56.7818 12.4197 57.1457 11.8206 56.9464 11.1955L54.7276 4.13663C54.5282 3.51149 53.8521 3.10342 53.2194 3.21629L20.7336 9.03357C20.1008 9.14644 19.7368 9.74551 19.9361 10.3707L22.1551 17.4295C22.3544 18.0547 23.0305 18.4627 23.6632 18.3499Z" fill="black"/>
<path d="M23.0042 19.462L55.4901 13.6447C56.1228 13.5319 56.4869 12.9328 56.2875 12.3076L53.9299 4.82332C53.8086 4.4326 53.3925 4.18081 52.9938 4.25027L20.0746 10.1457C19.4419 10.2586 19.0778 10.8576 19.2772 11.4828L21.4961 18.5416C21.6955 19.1668 22.3715 19.5749 23.0042 19.462Z" fill="#2F8260"/>
<path d="M10.731 66.2145C4.80237 61.4131 5.63445 52.5135 12.3518 45.6544C10.6096 41.426 12.1005 35.9039 16.2869 31.0765C12.4905 33.6639 8.90209 37.215 5.94647 41.3913C-1.5336 51.9579 0.693939 65.546 9.72549 69.5312C13.9726 71.4066 19.0777 71.042 24.0269 68.9321C18.9824 69.783 14.1026 68.9408 10.731 66.2145Z" fill="white"/>
</g>
<defs>
<clipPath id="clip0_15980_11703">
<rect width="100" height="100" fill="white"/>
</clipPath>
</defs>
</svg>
