<svg width="100" height="100" viewBox="0 0 100 100" fill="none" xmlns="http://www.w3.org/2000/svg">
<rect width="100" height="100" fill="#6CF479"/>
<path d="M50 78.5879C77.6142 78.5879 100 70.0833 100 59.5924C100 49.1014 77.6142 40.5968 50 40.5968C22.3858 40.5968 0 49.1014 0 59.5924C0 70.0833 22.3858 78.5879 50 78.5879Z" fill="#11B67A"/>
<path d="M93.5635 54.5841L87.6213 31.2993C87.6213 31.2993 81.7861 21.0838 49.1589 21.6074C16.5289 22.1309 11.9913 32.053 11.9913 32.053L5.68492 55.9391C5.57798 56.1951 5.48839 56.4512 5.41613 56.7101L5.40747 56.736C5.27742 57.2164 5.20805 57.7026 5.20805 58.1974C5.20805 66.7616 25.2601 73.7062 49.9971 73.7062C74.7341 73.7062 94.7861 66.7645 94.7861 58.1974C94.7861 56.9546 94.3612 55.7435 93.5635 54.587V54.5841Z" fill="#C7FFC6"/>
<path d="M50.2891 43.0966C68.3709 43.0966 83.029 38.9029 83.029 33.7297C83.029 28.5566 68.3709 24.3629 50.2891 24.3629C32.2074 24.3629 17.5493 28.5566 17.5493 33.7297C17.5493 38.9029 32.2074 43.0966 50.2891 43.0966Z" fill="#11B67A"/>
<path d="M93.5635 54.5841V54.587C94.3612 55.7435 94.7861 56.9546 94.7861 58.1974C94.7861 66.7645 74.7341 73.7062 49.9971 73.7062C25.2601 73.7062 5.20805 66.7616 5.20805 58.1974C5.20805 57.7026 5.27742 57.2164 5.40747 56.736L5.41613 56.7101C5.48839 56.4512 5.57798 56.1951 5.68492 55.9391L6.39013 53.2671C6.27208 55.5216 6.35107 57.6291 6.916 58.5543C8.58941 61.2959 17.5492 70.7779 50 71.0512C58.3196 71.1214 65.1934 70.4245 70.6373 69.2854C70.9224 69.1743 84.201 63.9534 83.0289 55.1367C81.8371 46.158 61.1347 45.4011 61.0694 45.3988C61.1121 45.3933 71.6386 44.0394 77.2947 41.9293C81.5807 40.3298 85.075 37.5019 86.5403 35.7471C87.4262 34.6877 87.9082 33.7691 88.0226 32.8721L93.5635 54.5841Z" fill="black"/>
<path d="M8.37275 54.3713L13.1011 34.6336C13.1011 34.6336 13.4103 36.5898 16.4363 39.3026C19.6184 42.1507 27.6242 43.0971 27.6242 43.0971C27.6242 43.0971 17.997 42.2456 13.6386 46.1149C10.5028 48.8996 8.37275 54.3713 8.37275 54.3713Z" fill="white"/>
<path d="M51.3207 24.0812C52.575 23.1635 54.3035 22.4156 56.7341 23.5145C57.8092 23.9978 58.4162 24.5098 58.7485 25.0075C60.0491 26.9378 57.344 28.6727 62.3727 27.8327C68.6993 26.7712 65.4682 34.4494 69.263 34.5932C73.0578 34.7342 70.9046 40.3267 76.0549 38.6265C76.5238 38.4728 77.0193 38.662 77.5021 38.9386C71.6269 41.4458 61.6315 43.0966 50.2891 43.0966C36.5987 43.0966 24.8702 40.692 19.9815 37.2788C21.6191 36.0239 23.5574 35.4259 25.7197 35.1397C30.2109 34.5413 30.5088 37.795 32.9625 33.92C35.4192 30.0421 37.4565 32.8525 39.1039 31.2473C40.2166 30.157 38.2197 27.5622 40.2399 25.465C40.7254 24.9587 41.344 24.4813 42.0319 24.1045C43.7053 23.1753 45.7832 22.8041 47.3179 23.9576C47.7687 24.2942 48.1734 24.7631 48.5057 25.3874C49.0578 26.423 49.8814 25.137 51.3207 24.0812Z" fill="#006A4D"/>
<path d="M55.5346 23.1034C55.9132 23.1897 56.3121 23.3218 56.7312 23.5117C57.8063 23.995 58.4133 24.507 58.7456 25.0047C60.0462 26.935 57.341 28.6699 62.3698 27.8299C62.7657 27.7637 63.1242 27.729 63.4479 27.729C63.841 27.729 64.1791 27.7752 64.4826 27.8529C64.63 27.8932 64.7659 27.9391 64.896 27.9937C65.2659 28.152 65.5637 28.3736 65.8035 28.644C65.8063 28.6467 65.8092 28.6497 65.8092 28.6497C65.8208 28.664 65.8323 28.6814 65.8467 28.6986L65.8206 28.7103C65.9218 28.8282 66.0116 28.9546 66.0926 29.0899C66.3237 29.4696 66.4912 29.904 66.6241 30.3585C67.1183 32.0443 67.182 34.0064 68.6011 34.4926C68.7861 34.5587 68.997 34.5961 69.234 34.6048C69.7079 34.622 70.0895 34.7255 70.4045 34.8895C70.6386 35.0103 70.8381 35.1686 71.0086 35.347C71.182 35.5253 71.3006 35.7439 71.4538 35.9453C73.157 38.189 76.5169 38.4952 78.5756 38.4488C72.8968 41.2287 62.355 43.0966 50.2891 43.0966C45.579 43.0966 41.1012 42.8115 37.0542 42.2991C39.0701 40.966 41.3553 39.2334 41.8179 37.9677C42.6792 35.6116 44.9393 37.6744 44.9393 37.6744C44.9476 37.6773 46.5143 38.2301 47.526 37.3924C49.8555 35.462 49.581 33.1863 49.581 33.1863C49.5879 33.19 51.3967 34.1376 53.289 33.5892C55.0924 33.0685 54.3873 29.9672 54.3873 29.9672C54.3764 29.9466 51.9646 25.3431 54.3033 23.6066C54.601 23.3851 55.0375 23.2012 55.5346 23.1034Z" fill="black"/>
<path d="M52.9854 65.3118C51.9421 65.6627 50.9739 65.0068 50.2802 64.5379C49.8814 64.2675 49.4681 63.9884 49.2397 64.023C49.0201 64.0546 48.8553 64.2445 48.6068 64.5465C48.1126 65.1478 47.4392 65.9706 45.5894 65.5189C44.4883 65.2485 43.9623 64.1352 44.1068 62.3803C44.3525 59.4201 46.6501 54.7136 49.1993 54.5209C51.1733 54.3713 52.916 56.6842 53.8062 58.7095C54.7571 60.8671 55.1386 63.5799 53.8525 64.7738C53.5606 65.0442 53.2686 65.2168 52.9854 65.3118Z" fill="#11B67A"/>
<path d="M55.6502 57.5269C55.0317 57.734 54.4537 57.6794 53.9942 57.3572C53.1358 56.7559 53.0288 55.6023 53.7225 54.42C54.4046 53.2635 55.789 52.3458 57.0115 52.9269C57.6849 53.2462 58.0635 53.7928 58.078 54.4631C58.104 55.6311 57.0838 56.8106 56.1098 57.3284C55.9537 57.4118 55.8005 57.478 55.6502 57.5298V57.5269Z" fill="#11B67A"/>
<path d="M44.13 58.6749C43.6386 58.8418 43.0288 58.8303 42.367 58.626C41.0808 58.2262 39.8727 57.0898 40.1675 55.7722C40.3294 55.0473 40.7773 54.5582 41.4305 54.3914C42.5693 54.1037 43.9537 54.8286 44.6762 55.6572C45.2658 56.3303 45.445 57.0582 45.182 57.7026C44.9855 58.183 44.6155 58.5138 44.1329 58.6778L44.13 58.6749Z" fill="#11B67A"/>
<path d="M47.2312 54.7563C46.3295 55.0583 45.3642 54.5693 44.7226 53.4617C44.0492 52.2995 43.9364 50.6482 45.0492 49.8772C45.6619 49.4543 46.3266 49.3968 46.9162 49.7132C47.948 50.2685 48.474 51.7356 48.4422 52.8346C48.4162 53.7293 48.0521 54.3823 47.4191 54.6786C47.3555 54.7074 47.2919 54.7333 47.2283 54.7534L47.2312 54.7563Z" fill="#11B67A"/>
<path d="M51.9132 54.4146C51.5924 54.5211 51.2659 54.5355 50.945 54.4434C49.9335 54.1615 49.445 53.1086 49.7051 51.7651C49.9595 50.4475 50.9566 49.1242 52.3063 49.2652C53.0491 49.3428 53.5895 49.7312 53.8265 50.3583C54.2427 51.4515 53.6763 52.9014 52.9306 53.7127C52.6127 54.0579 52.2687 54.2938 51.9132 54.4118V54.4146Z" fill="#11B67A"/>
</svg>
