<svg width="100" height="100" viewBox="0 0 100 100" fill="none" xmlns="http://www.w3.org/2000/svg">
<rect width="100" height="100" fill="#6CF479"/>
<path d="M26.5896 100L41.8734 73.2911V100H45.343V73.2911L60.6267 100H64.6342L43.6082 63.2589L22.5822 100H26.5896Z" fill="black"/>
<path d="M75.7457 4.70877H9.7358C8.77768 4.70877 8.00098 5.49264 8.00098 6.4596V80.6422C8.00098 81.6091 8.77768 82.393 9.7358 82.393H75.7457C76.7038 82.393 77.4806 81.6091 77.4806 80.6422V6.4596C77.4806 5.49264 76.7038 4.70877 75.7457 4.70877Z" fill="#11B67A"/>
<path d="M9.7358 3.39661H75.7457C76.2055 3.39661 76.6391 3.51038 77.0295 3.69422L75.8498 1.03298C75.5722 0.402684 74.9476 0 74.2624 0H11.2191C10.5339 0 9.91796 0.402684 9.63171 1.03298L8.45205 3.69422C8.84238 3.51038 9.27607 3.39661 9.7358 3.39661Z" fill="black"/>
<path d="M58.4495 63.5996C58.4495 63.5996 57.1744 71.8461 55.1707 76.1443L68.9886 77.7813L69.2315 75.7679L57.2438 74.3585L58.4495 63.6084V63.5996ZM17.8201 61.595C17.8201 61.595 15.5388 69.6225 13.0233 73.6319L26.5376 76.9847L27.0233 75.0151L15.3046 72.1087L17.8201 61.5862V61.595ZM24.5338 57.6293L38.4384 58.0758L38.5078 56.0536L26.4421 55.6772L26.7371 44.8571C26.7371 44.8571 26.1559 53.1822 24.5338 57.6381V57.6293ZM60.6181 47.6059L71.7556 47.5183V45.4873L59.6813 45.5837L59.5512 34.7635C59.5512 34.7635 59.3343 41.6355 58.2066 46.2752L48.8126 49.4792L45.343 39.2456C45.343 39.2456 47.685 47.2557 47.7023 52.0004L60.6181 47.5971V47.6059ZM36.8944 41.0052L36.8077 38.983L24.7507 39.5433L24.2216 28.7319C24.2216 28.7319 24.2823 37.0834 22.9985 41.6443L36.8944 41.0052ZM46.089 28.478L59.8374 26.3246L59.5338 24.3198L47.6069 26.1932L45.9242 15.5044C45.9242 15.5044 46.8783 23.7946 46.089 28.478ZM38.6379 71.6447L36.9551 60.9559C36.9551 60.9559 37.9093 69.2461 37.12 73.9296L50.8684 71.776L50.5648 69.7713L38.6379 71.6447Z" fill="#00482F"/>
<path d="M80.4124 44.2872C80.4124 44.2872 82.7023 51.9558 92.001 54.0743C92.001 54.0743 84.9576 55.2999 84.8188 63.8352C84.8188 63.8352 82.338 56.4379 73.4297 54.0656C73.4297 54.0656 80.8721 53.1726 80.4124 44.2872Z" fill="white"/>
<path d="M57.2011 74.3968L69.6764 75.8669L71.1331 63.2764L58.6578 61.8063L57.2011 74.3968Z" fill="#C7FFC6"/>
<path d="M15.3676 72.0499L27.5651 75.0736L30.5611 62.7635L18.3636 59.7398L15.3676 72.0499Z" fill="#C7FFC6"/>
<path d="M26.4365 55.684L38.9905 56.0778L39.3807 43.4079L26.8267 43.0141L26.4365 55.684Z" fill="#C7FFC6"/>
<path d="M72.2328 45.4869L72.1374 32.8109L59.5773 32.916L59.6553 42.2829L56.6888 33.4237L44.7879 37.4857L48.8127 49.4875L60.2625 45.5832L72.2328 45.4869Z" fill="#C7FFC6"/>
<path d="M24.7203 39.582L37.2671 39.0004L36.6908 26.3377L24.144 26.9194L24.7203 39.582Z" fill="#C7FFC6"/>
<path d="M47.6313 26.1256L60.0425 24.1798L58.1145 11.6541L45.7032 13.5999L47.6313 26.1256Z" fill="#C7FFC6"/>
<path d="M38.6773 71.5822L51.0885 69.6364L49.1605 57.1106L36.7493 59.0564L38.6773 71.5822Z" fill="#C7FFC6"/>
<path d="M21.2288 62.1544C21.2288 62.1544 22.4345 66.19 27.3267 67.3018C27.3267 67.3018 23.6228 67.9496 23.5448 72.4405C23.5448 72.4405 22.2436 68.5449 17.551 67.3018C17.551 67.3018 21.4716 66.8291 21.2288 62.1544Z" fill="#00482F"/>
<path d="M52.048 14.1024C52.048 14.1024 53.2538 18.138 58.146 19.2498C58.146 19.2498 54.4421 19.8976 54.3641 24.3885C54.3641 24.3885 53.0629 20.4929 48.3702 19.2498C48.3702 19.2498 52.2909 18.7771 52.048 14.1024Z" fill="#00482F"/>
<path d="M17.3229 26.4148L29.7671 28.1329L31.4695 15.5739L19.0254 13.8558L17.3229 26.4148Z" fill="#C7FFC6"/>
<path d="M15.1656 28.2131L28.9487 30.1215L29.2264 28.1168L17.2734 26.471L18.6873 15.7472C18.6873 15.7472 17.2474 23.9673 15.1656 28.2218V28.2131Z" fill="#00482F"/>
</svg>
