<svg width="100" height="100" viewBox="0 0 100 100" fill="none" xmlns="http://www.w3.org/2000/svg">
<rect width="100" height="100" fill="#6CF479"/>
<path d="M26.5886 100L41.8724 73.2911V100H45.342V73.2911L60.6258 100H64.6332L43.6072 63.2589L22.5812 100H26.5886Z" fill="black"/>
<path d="M75.7448 4.70877H9.73482C8.7767 4.70877 8 5.49264 8 6.4596V80.6422C8 81.6091 8.7767 82.393 9.73482 82.393H75.7448C76.7029 82.393 77.4796 81.6091 77.4796 80.6422V6.4596C77.4796 5.49264 76.7029 4.70877 75.7448 4.70877Z" fill="#11B67A"/>
<path d="M9.73482 3.39661H75.7448C76.2045 3.39661 76.6382 3.51038 77.0285 3.69422L75.8488 1.03298C75.5713 0.402684 74.9467 0 74.2614 0H11.2182C10.5329 0 9.91698 0.402684 9.63073 1.03298L8.45107 3.69422C8.8414 3.51038 9.27509 3.39661 9.73482 3.39661Z" fill="black"/>
<path d="M58.4486 63.5996C58.4486 63.5996 57.1734 71.8461 55.1697 76.1443L68.9876 77.7813L69.2305 75.7679L57.2428 74.3585L58.4486 63.6084V63.5996ZM17.8191 61.595C17.8191 61.595 15.5378 69.6225 13.0223 73.6319L26.5366 76.9847L27.0223 75.0151L15.3036 72.1087L17.8191 61.5862V61.595ZM24.5329 57.6293L38.4375 58.0758L38.5068 56.0536L26.4411 55.6772L26.7361 44.8571C26.7361 44.8571 26.1549 53.1822 24.5329 57.6381V57.6293ZM60.6171 47.6059L71.7546 47.5183V45.4873L59.6803 45.5837L59.5502 34.7635C59.5502 34.7635 59.3333 41.6355 58.2057 46.2752L48.8117 49.4792L45.342 39.2456C45.342 39.2456 47.684 47.2557 47.7013 52.0004L60.6171 47.5971V47.6059ZM36.8935 41.0052L36.8067 38.983L24.7497 39.5433L24.2206 28.7319C24.2206 28.7319 24.2813 37.0834 22.9975 41.6443L36.8935 41.0052ZM46.088 28.478L59.8364 26.3246L59.5328 24.3198L47.6059 26.1932L45.9232 15.5044C45.9232 15.5044 46.8773 23.7946 46.088 28.478ZM38.637 71.6447L36.9541 60.9559C36.9541 60.9559 37.9083 69.2461 37.119 73.9296L50.8674 71.776L50.5638 69.7713L38.637 71.6447Z" fill="#00482F"/>
<path d="M80.4114 44.2872C80.4114 44.2872 82.7014 51.9558 92 54.0743C92 54.0743 84.9566 55.2999 84.8178 63.8352C84.8178 63.8352 82.337 56.4379 73.4287 54.0656C73.4287 54.0656 80.8711 53.1726 80.4114 44.2872Z" fill="white"/>
<path d="M57.2001 74.3968L69.6754 75.8669L71.1321 63.2764L58.6568 61.8063L57.2001 74.3968Z" fill="#C7FFC6"/>
<path d="M15.3666 72.0499L27.5641 75.0736L30.5602 62.7635L18.3626 59.7398L15.3666 72.0499Z" fill="#C7FFC6"/>
<path d="M26.4355 55.684L38.9896 56.0778L39.3797 43.4079L26.8257 43.0141L26.4355 55.684Z" fill="#C7FFC6"/>
<path d="M72.2318 45.4869L72.1364 32.8109L59.5763 32.916L59.6544 42.2829L56.6878 33.4237L44.787 37.4857L48.8118 49.4875L60.2615 45.5832L72.2318 45.4869Z" fill="#C7FFC6"/>
<path d="M24.7193 39.582L37.2662 39.0004L36.6898 26.3377L24.143 26.9194L24.7193 39.582Z" fill="#C7FFC6"/>
<path d="M47.6303 26.1256L60.0415 24.1798L58.1135 11.6541L45.7023 13.5999L47.6303 26.1256Z" fill="#C7FFC6"/>
<path d="M38.6763 71.5822L51.0875 69.6364L49.1595 57.1106L36.7483 59.0564L38.6763 71.5822Z" fill="#C7FFC6"/>
<path d="M21.2278 62.1544C21.2278 62.1544 22.4335 66.19 27.3257 67.3018C27.3257 67.3018 23.6219 67.9496 23.5438 72.4405C23.5438 72.4405 22.2427 68.5449 17.55 67.3018C17.55 67.3018 21.4707 66.8291 21.2278 62.1544Z" fill="#00482F"/>
<path d="M52.0471 14.1024C52.0471 14.1024 53.2528 18.138 58.145 19.2498C58.145 19.2498 54.4412 19.8976 54.3631 24.3885C54.3631 24.3885 53.062 20.4929 48.3693 19.2498C48.3693 19.2498 52.2899 18.7771 52.0471 14.1024Z" fill="#00482F"/>
<path d="M17.322 26.4148L29.7661 28.1329L31.4686 15.5739L19.0244 13.8558L17.322 26.4148Z" fill="#C7FFC6"/>
<path d="M15.1646 28.2131L28.9477 30.1215L29.2254 28.1168L17.2724 26.471L18.6863 15.7472C18.6863 15.7472 17.2464 23.9673 15.1646 28.2218V28.2131Z" fill="#00482F"/>
</svg>
