<svg width="100" height="100" viewBox="0 0 100 100" fill="none" xmlns="http://www.w3.org/2000/svg">
<rect width="100" height="100" fill="#6CF479"/>
<path d="M84.5534 80.9594H0V85.2235H84.5534V80.9594Z" fill="black"/>
<path d="M73.1279 59.9801H11.4344L0.263719 84.1033C-0.577904 85.9149 0.739789 88 2.72908 88H81.8332C83.8225 88 85.1402 85.9235 84.2985 84.1033L73.1279 59.9801Z" fill="black"/>
<path d="M73.1279 55.7676H11.4344L0.263719 79.8908C-0.577904 81.7024 0.739789 83.7875 2.72908 83.7875H81.8332C83.8225 83.7875 85.1402 81.7109 84.2985 79.8908L73.1279 55.7676Z" fill="#C7FFC6"/>
<path d="M14.2906 12H70.2628C71.7675 12 72.9832 13.2305 72.9832 14.7345V54.1793H11.5702V14.7345C11.5702 13.222 12.7944 12 14.2906 12Z" fill="#11B67A"/>
<path d="M42.2769 17.579C42.8778 17.579 43.365 17.0892 43.365 16.4852C43.365 15.8811 42.8778 15.3914 42.2769 15.3914C41.6759 15.3914 41.1887 15.8811 41.1887 16.4852C41.1887 17.0892 41.6759 17.579 42.2769 17.579Z" fill="#C7FFC6"/>
<path d="M75.9502 70.7832L71.1555 60.5887C70.8579 59.9478 70.2203 59.5462 69.5147 59.5462H15.0473C14.3416 59.5462 13.7041 59.9564 13.4065 60.5887L8.61181 70.7832C8.18675 71.689 8.84134 72.74 9.84449 72.74H25.1892C25.7418 72.74 26.1754 73.2357 26.0904 73.7912L25.9118 74.9276C25.7843 75.7565 26.4219 76.5085 27.255 76.5085H57.2984C58.1316 76.5085 58.7692 75.7565 58.6416 74.9276L58.4631 73.7912C58.3781 73.2357 58.8032 72.74 59.3642 72.74H74.709C75.7121 72.74 76.3667 71.6976 75.9417 70.7832H75.9502Z" fill="black"/>
<path d="M66.4032 24.1503H53.9659C53.0269 24.1503 52.2656 24.9154 52.2656 25.8593V43.0523C52.2656 43.9962 53.0269 44.7614 53.9659 44.7614H66.4032C67.3422 44.7614 68.1035 43.9962 68.1035 43.0523V25.8593C68.1035 24.9154 67.3422 24.1503 66.4032 24.1503Z" fill="#00482F"/>
<path d="M99.9662 72.2198C99.7877 74.245 98.4785 76.9453 93.5818 76.9453C90.6488 76.9453 88.0135 75.5439 86.7553 72.912L83.2018 65.4606C83.0487 65.1444 83.0062 64.7769 83.0657 64.4095L83.2868 63.2046C83.3973 62.5723 83.8478 62.0596 84.4174 61.7861C86.0837 61 88.7616 60.453 91.7795 60.8888C93.3522 61.111 94.7804 61.8715 95.8346 63.0422C97.5944 64.982 100.272 68.5881 99.9577 72.2198H99.9662Z" fill="#11B67A"/>
<path d="M100 71.6033C99.2094 74.7907 95.9534 75.4658 93.0035 75.2693C92.0598 75.2094 90.9887 74.9017 90.3171 74.5599C89.1014 73.9532 88.1578 72.9278 87.5287 71.723L83.7286 64.4253C83.2015 63.3657 83.5841 62.477 83.5841 62.477C83.5841 62.477 83.3546 62.7932 83.2951 63.1948L83.074 64.3996C83.006 64.7671 83.057 65.1346 83.21 65.4508L86.7636 72.9022C88.0217 75.5341 90.6571 76.9355 93.5901 76.9355C98.4783 76.9355 100 74.2951 100 71.5948V71.6033Z" fill="black"/>
<path d="M95.6815 64.2127C95.6815 64.2127 97.6283 66.3832 98.555 69.357C99.1245 71.2027 98.0874 73.1937 96.2341 73.7065C95.571 73.8944 94.7549 74.0227 93.7432 74.0568C93.7432 74.0568 99.7791 71.3565 95.6815 64.2127Z" fill="white"/>
<path d="M65.0601 37.9523C64.7541 36.8329 64.2695 36.4141 63.3343 36.1065L61.9656 35.6195C61.8466 35.7135 61.7276 35.8159 61.6001 35.8929C61.1325 36.1748 60.6479 36.3201 60.1719 36.3201C59.6958 36.3201 59.2112 36.1748 58.7437 35.8929C58.6161 35.8159 58.4971 35.7135 58.3696 35.6195L57.0009 36.1065C56.0743 36.4141 55.5812 36.8329 55.2752 37.9523L54.9011 39.4734H65.4257L65.0516 37.9523H65.0601ZM59.3983 34.7906C59.6278 34.9273 59.8913 35.0383 60.1804 35.0383C60.4694 35.0383 60.733 34.9359 60.9625 34.7906C61.4811 34.483 61.8551 33.9702 62.0677 33.3977C62.3142 32.7056 62.3397 32.0903 62.3397 32.0903C62.4077 30.5094 61.3706 29.7147 60.1889 29.7147C59.0072 29.7147 57.9701 30.5094 58.0381 32.0903C58.0381 32.0903 58.0551 32.7056 58.3101 33.3977C58.5141 33.9702 58.8882 34.4744 59.4153 34.7906H59.3983Z" fill="white"/>
<path d="M48.287 24.1503H35.8497C34.9107 24.1503 34.1494 24.9154 34.1494 25.8593V43.0523C34.1494 43.9962 34.9107 44.7614 35.8497 44.7614H48.287C49.226 44.7614 49.9873 43.9962 49.9873 43.0523V25.8593C49.9873 24.9154 49.226 24.1503 48.287 24.1503Z" fill="#00482F"/>
<path d="M46.9522 37.9523C46.6462 36.8329 46.1616 36.4141 45.2264 36.1065L43.8577 35.6195C43.7387 35.7135 43.6197 35.8159 43.4922 35.8929C43.0246 36.1748 42.5401 36.3201 42.064 36.3201C41.5879 36.3201 41.1033 36.1748 40.6358 35.8929C40.5083 35.8159 40.3892 35.7135 40.2617 35.6195L38.893 36.1065C37.9664 36.4141 37.4733 36.8329 37.1673 37.9523L36.7932 39.4734H47.3177L46.9437 37.9523H46.9522ZM41.2819 34.7906C41.5114 34.9273 41.7749 35.0383 42.064 35.0383C42.353 35.0383 42.6166 34.9359 42.8461 34.7906C43.3647 34.483 43.7387 33.9702 43.9513 33.3977C44.1978 32.7056 44.2233 32.0903 44.2233 32.0903C44.2913 30.5094 43.2542 29.7147 42.0725 29.7147C40.8908 29.7147 39.8537 30.5094 39.9217 32.0903C39.9217 32.0903 39.9387 32.7056 40.1937 33.3977C40.3977 33.9702 40.7718 34.4744 41.2989 34.7906H41.2819Z" fill="white"/>
<path d="M30.1708 24.1503H17.7335C16.7945 24.1503 16.0332 24.9154 16.0332 25.8593V43.0523C16.0332 43.9962 16.7945 44.7614 17.7335 44.7614H30.1708C31.1098 44.7614 31.8711 43.9962 31.8711 43.0523V25.8593C31.8711 24.9154 31.1098 24.1503 30.1708 24.1503Z" fill="#C7FFC6"/>
<path d="M28.836 37.9523C28.5299 36.8329 28.0454 36.4141 27.1102 36.1065L25.7415 35.6195C25.6225 35.7135 25.5035 35.8159 25.376 35.8929C24.9084 36.1748 24.4238 36.3201 23.9478 36.3201C23.4717 36.3201 22.9871 36.1748 22.5196 35.8929C22.392 35.8159 22.273 35.7135 22.1455 35.6195L20.7768 36.1065C19.8502 36.4141 19.3571 36.8329 19.0511 37.9523L18.677 39.4734H29.2015L28.8275 37.9523H28.836ZM23.1657 34.7906C23.3952 34.9273 23.6587 35.0383 23.9478 35.0383C24.2368 35.0383 24.5004 34.9359 24.7299 34.7906C25.2485 34.483 25.6225 33.9702 25.8351 33.3977C26.0816 32.7056 26.1071 32.0903 26.1071 32.0903C26.1751 30.5094 25.138 29.7147 23.9563 29.7147C22.7746 29.7147 21.7375 30.5094 21.8055 32.0903C21.8055 32.0903 21.8225 32.7056 22.0775 33.3977C22.2815 33.9702 22.6556 34.4744 23.1827 34.7906H23.1657Z" fill="black"/>
</svg>
