<svg width="100" height="100" viewBox="0 0 100 100" fill="none" xmlns="http://www.w3.org/2000/svg">
<g clip-path="url(#clip0_15980_11819)">
<rect width="100" height="100" fill="#6CF479"/>
<path d="M72.3622 19.1987C63.6578 19.1987 56.1996 24.2497 52.8765 31.8214C49.5628 24.2497 42.0952 19.1987 33.3908 19.1987C21.7881 19.1987 12.404 28.2055 12.253 40.6583C13.0837 71.795 53.2919 93.6795 53.2919 93.6795C53.2919 93.6795 93.5 71.795 93.5 40.6583C93.5 28.8758 83.9649 19.1987 72.3622 19.1987Z" fill="#11B67A"/>
<path d="M20.7307 21.5914C24.2993 19.184 28.6325 17.7961 33.3907 17.7961C34.4575 17.7961 35.5054 17.8717 36.5345 18.0133C33.8344 16.7954 30.8322 16.1156 27.6601 16.1156C23.0247 16.1156 18.7198 17.664 15.2267 20.2697L20.7307 21.582V21.5914Z" fill="black"/>
<path d="M52.8766 28.774C56.8983 22.0237 64.281 17.7941 72.3623 17.7941C73.3252 17.7941 74.2693 17.8601 75.1945 17.9829C72.57 16.7933 69.6811 16.123 66.6317 16.123C59.655 16.123 53.4902 19.3707 49.6006 24.5539C50.8468 25.819 51.9514 27.2257 52.8766 28.774Z" fill="black"/>
<path d="M32.1445 79.8606C18.5782 67.3512 11.2144 53.8033 10.8651 40.6896V40.6329C10.9029 37.423 11.5259 34.4018 12.6305 31.6733L7.74021 30.4838C6.96607 32.7119 6.53177 35.091 6.53177 37.574C5.60657 59.213 25.1017 76.037 37.5446 84.5151C35.7887 83.0895 33.9666 81.5412 32.1445 79.8512V79.8606Z" fill="black"/>
<path d="M15.5192 26.5592C16.3689 25.4357 17.313 24.3972 18.3609 23.4531L13.0174 22.1786C12.045 23.1321 11.1576 24.1801 10.374 25.3036L15.5192 26.5592Z" fill="black"/>
<path d="M82.8602 26.0603C76.3083 21.2454 68.9917 23.5584 68.9917 23.5584C82.7186 23.87 79.6881 35.6525 79.6881 35.6525C92.0177 46.0565 81.3214 65.9489 81.3214 65.9489C95.5769 44.9519 89.4121 30.8847 82.8602 26.0698V26.0603ZM28.4721 23.5962C36.2701 23.5018 38.4321 29.8934 38.4321 29.8934C45.4749 29.8934 50.8372 35.3409 50.8372 35.3409C43.4167 18.7152 28.4815 23.5962 28.4815 23.5962H28.4721ZM18.125 80.1766C18.597 89.2306 10.9406 90.137 10.9406 90.137C20.0981 92.5539 22.6471 100.088 22.6471 100.088C22.7887 91.3927 30.0298 90.1464 30.0298 90.1464C20.4757 87.9844 18.125 80.1766 18.125 80.1766ZM49.0246 0.0878906C49.355 6.3851 44.0304 7.01764 44.0304 7.01764C50.3935 8.69816 52.1683 13.938 52.1683 13.938C52.2722 7.89567 57.3041 7.02709 57.3041 7.02709C50.6673 5.52596 49.0246 0.0973409 49.0246 0.0973409V0.0878906Z" fill="white"/>
</g>
<defs>
<clipPath id="clip0_15980_11819">
<rect width="100" height="100" fill="white"/>
</clipPath>
</defs>
</svg>
