<svg width="100" height="100" viewBox="0 0 100 100" fill="none" xmlns="http://www.w3.org/2000/svg">
<rect width="100" height="100" fill="#6CF479"/>
<path d="M99.569 70.4287L75.8551 16.5544C74.3936 13.222 70.7748 11.3822 67.2168 12.1545L56.2906 14.5063C56.8822 15.6258 57.291 16.6933 57.5259 17.4222C57.726 18.0297 57.6564 18.6979 57.3258 19.2533C57.004 19.8087 56.4472 20.2079 55.8208 20.3381L48.096 21.9262C47.9481 21.9609 47.7915 21.9696 47.6349 21.9696C46.4867 21.9696 45.521 21.1105 45.3818 19.9823C45.2339 18.75 44.9469 17.778 44.5815 17.023L26.0697 21.015C22.9119 21.6919 21.1721 25.0938 22.4682 28.053L46.1039 81.7538C47.5653 85.0688 51.1581 86.9086 54.7074 86.1623L95.9415 77.4754C99.1167 76.8072 100.865 73.3967 99.569 70.4374V70.4287ZM36.935 24.8247C35.5692 24.8247 34.4557 23.9569 34.4557 22.8808C34.4557 21.8047 35.5692 20.9369 36.935 20.9369C38.3007 20.9369 39.4142 21.8047 39.4142 22.8808C39.4142 23.9569 38.3007 24.8247 36.935 24.8247ZM67.7214 19.3314C66.199 19.3314 64.9637 18.3595 64.9637 17.1619C64.9637 15.9643 66.199 14.9923 67.7214 14.9923C69.2437 14.9923 70.479 15.9643 70.479 17.1619C70.479 18.3595 69.2437 19.3314 67.7214 19.3314Z" fill="black"/>
<path d="M91.731 50.7381L75.855 14.6628C74.3935 11.3304 70.7747 9.49061 67.2167 10.263L55.2553 12.8404C56.4558 14.4806 57.1691 16.329 57.5258 17.4312C57.7259 18.0386 57.6563 18.7069 57.3257 19.2623C57.0039 19.8177 56.4471 20.2169 55.8207 20.347L48.0959 21.9352C47.948 21.9699 47.7914 21.9786 47.6348 21.9786C46.4865 21.9786 45.5209 21.1194 45.3817 19.9912C45.086 17.5874 44.2856 16.1902 43.3722 15.3918L26.0609 19.1234C22.9031 19.8003 21.1632 23.2022 22.4594 26.1614L38.3354 62.2454L91.7223 50.7468L91.731 50.7381ZM67.7214 14.9923C69.2437 14.9923 70.479 15.9643 70.479 17.1619C70.479 18.3595 69.2437 19.3314 67.7214 19.3314C66.199 19.3314 64.9637 18.3595 64.9637 17.1619C64.9637 15.9643 66.199 14.9923 67.7214 14.9923ZM34.4556 22.8724C34.4556 21.7963 35.5691 20.9285 36.9349 20.9285C38.3006 20.9285 39.4141 21.7963 39.4141 22.8724C39.4141 23.9485 38.3006 24.8163 36.9349 24.8163C35.5691 24.8163 34.4556 23.9485 34.4556 22.8724Z" fill="#11B67A"/>
<path d="M0.502921 76.6096C1.27715 88.2384 15.7265 94.6256 26.5221 86.3118C37.9442 77.5121 35.4214 66.9855 34.8473 62.7071L31.2719 54.4281C31.2719 54.4281 36.1522 79.4474 17.2054 84.1249C17.2054 84.1249 6.11389 86.7458 1.53813 78.5969L0.502921 76.6009V76.6096Z" fill="#11B67A"/>
<path d="M99.5688 68.5375L92.2702 51.9535L38.8834 63.4521L46.1037 79.8539C47.5651 83.169 51.1579 85.0088 54.7072 84.2624L95.9413 75.5755C99.1165 74.9073 100.865 71.4968 99.5688 68.5375Z" fill="#C7FFC6"/>
<path d="M62.8759 17.1525C62.8759 17.1525 62.4496 20.6585 66.8166 21.3007C71.1836 21.9429 72.8886 19.0704 72.8886 19.0704L85.1458 43.8467C85.1458 43.8467 72.1405 20.7713 54.0288 23.6438C54.0288 23.6438 59.4658 22.4722 62.8759 17.1612V17.1525Z" fill="white"/>
<path d="M34.6294 45.54L38.4657 55.4245C38.4657 55.4245 43.7374 49.3671 46.6168 34.536C46.6168 34.536 43.5808 41.5567 34.6294 45.54Z" fill="white"/>
<path d="M68.2347 72.9897L76.238 71.2975C76.4815 71.2454 76.6207 70.985 76.5251 70.7594L73.3411 63.1747C73.2367 62.9317 72.9758 62.7928 72.7148 62.8449L64.7116 64.5371C64.468 64.5892 64.3288 64.8495 64.4245 65.0752L67.6084 72.6599C67.7128 72.9029 67.9737 73.0418 68.2347 72.9897ZM50.9582 67.4357L47.4785 68.1733L53.7158 71.4537L51.0191 76.6259L54.4987 75.8882L57.1954 70.716L50.9582 67.4357ZM54.6553 66.6633L60.8926 69.9437L58.1959 75.1159L61.6755 74.3782L64.3723 69.206L58.135 65.9256L54.6553 66.6633ZM90.061 59.174L86.5813 59.9117L83.8845 65.0839L90.1219 68.3642L93.6015 67.6266L87.3642 64.3462L90.061 59.174ZM82.8841 60.6927L79.4045 61.4303L76.7077 66.6025L82.945 69.8829L86.4247 69.1453L80.1874 65.8649L82.8841 60.6927Z" fill="#00482F"/>
<path d="M57.3781 39.5975C58.0653 39.7971 58.8134 39.9013 59.492 39.7624C60.1705 39.6236 60.7012 39.2417 61.1187 38.8165C62.0582 37.8445 62.441 36.4907 62.3714 35.0849C62.2844 33.3839 61.719 31.9694 61.719 31.9694C60.301 28.3332 57.0214 27.0402 54.1855 27.639C51.3496 28.2377 49.6532 30.5722 51.393 34.1476C51.393 34.1476 52.0629 35.5448 53.3504 36.9854C54.4204 38.183 55.8296 39.1549 57.3868 39.6062L57.3781 39.5975ZM74.1414 43.9366C72.2885 41.5328 70.6965 40.8298 68.165 40.5955L64.0851 40.1443C64.0851 40.1443 63.4762 40.0748 62.5715 40.0748C61.8929 40.7604 61.1013 41.2117 60.214 41.3939C59.3267 41.5762 58.3089 41.5154 57.1954 41.203C56.4386 41.5501 55.9949 41.8452 55.9949 41.8452L52.9589 43.7891C51.0451 44.9607 50.2795 46.1669 50.671 48.8745L51.2887 52.5281L76.5511 47.1996L74.1327 43.9193L74.1414 43.9366Z" fill="black"/>
<path d="M24.8604 42.2225C24.0688 43.2031 23.3293 44.2358 22.6247 45.2772C21.4242 47.0562 18.597 50.5622 13.2818 53.643C5.7744 57.9908 -0.349822 61.5315 0.0155435 70.5134C0.0155435 70.5134 0.0155413 72.8132 0.502695 75.4687C0.502695 75.4687 0.502714 69.5762 5.46994 64.7424C10.4372 59.9087 15.5871 59.7091 20.7979 54.9968C26.0087 50.2845 26.4871 44.097 25.8869 40.9555L24.8691 42.2138L24.8604 42.2225ZM56.2905 17.8194C55.6207 15.7539 53.7417 11.2586 49.9749 10.7727L39.9534 13.1158C39.9534 13.1158 45.7297 12.1351 46.6779 19.8327C46.7475 20.3881 47.2782 20.77 47.8349 20.6571L55.5598 19.069C56.1252 18.9562 56.4645 18.3748 56.2905 17.828V17.8194Z" fill="black"/>
<path d="M91.731 50.7331L38.3528 62.2317L38.8835 63.4467L92.2703 51.948L91.731 50.7331Z" fill="black"/>
</svg>
