<svg width="100" height="100" viewBox="0 0 100 100" fill="none" xmlns="http://www.w3.org/2000/svg">
<rect width="100" height="100" fill="#6CF479"/>
<path d="M43.6883 80.5136L8.2597 59.9518C7.74397 59.6274 7.21075 59.452 6.7125 59.452C6.11809 59.452 5.60233 59.6888 5.19149 60.171C4.51841 60.9514 4.2387 62.2316 4.43975 63.5995C4.69325 65.3444 5.69849 66.9841 7.00095 67.782L43.0589 88.7208C43.8894 89.2031 44.9383 89.054 45.5939 88.3526L89.3705 42.1959L88.9684 35.0759L46.2146 80.1454C45.559 80.8381 44.51 80.9959 43.6796 80.5136H43.6883Z" fill="white"/>
<path d="M45.8999 90.9561C45.1918 91.7014 44.0729 91.8592 43.19 91.3506L4.64953 68.9737C3.25966 68.1232 2.18447 66.3695 1.91349 64.5019C1.7037 63.0376 2.00091 61.6697 2.7177 60.8367C3.15477 60.3281 3.69672 60.0738 4.34358 60.0738C4.8768 60.0738 5.445 60.258 5.9957 60.6087L43.8631 82.5823C44.746 83.0996 45.8649 82.933 46.5729 82.1877L94.4492 31.7169C95.1922 30.9365 95.0086 29.6651 94.0821 29.1302L56.6954 7.41099C54.4838 6.12204 51.6866 6.52538 49.9209 8.38428C38.9243 19.9761 1.45896 59.4951 1.38903 59.5653L1.35406 59.6091C0.305098 60.8104 -0.219393 62.6781 0.0865538 64.7825C0.45369 67.2902 1.88726 69.4648 3.68798 70.5696L43.5222 93.7006C44.4051 94.2179 45.524 94.0513 46.232 93.306L94.4842 42.4319C95.166 41.7129 95.0611 40.5642 94.2656 39.9767L45.8999 90.9736V90.9561Z" fill="#11B67A"/>
<path d="M92.4476 51.3426L84.563 33.4113L75.8741 13.7438C75.5944 13.1125 74.9125 12.6653 74.2657 12.6653C74.1783 12.6653 74.0908 12.6653 74.0034 12.6916L43.7934 19.0926L20.2093 18.1456V24.6955C20.2093 25.0726 20.288 25.283 20.3666 25.4672L24.5537 34.9019L18.3299 41.6799C18.8893 41.1889 19.3789 41.1538 19.7985 41.2327C20.5764 41.3905 20.8999 42.0745 20.8999 42.0745L34.5626 74.4736C34.886 75.2452 35.7077 75.6749 36.5206 75.5083L95.8568 62.7678C96.5648 62.6188 96.8882 62.1102 96.8533 61.2597V55.1393L92.4476 51.3251V51.3426Z" fill="black"/>
<path d="M89.2305 37.5148L96.7655 54.5079C97.0802 55.2269 96.7655 55.9284 96.0487 56.0774L43.2861 67.5026C43.1987 67.5202 43.1025 67.5289 43.0151 67.5289C42.3595 67.5289 41.6777 67.0905 41.3979 66.4592L34.3874 50.5533L89.2392 37.5148H89.2305Z" fill="#00482F"/>
<path d="M89.2306 37.5135L75.8651 7.07851C75.5854 6.44719 74.9036 6 74.2567 6C74.1693 6 74.0819 6 73.9945 6.0263L21.1007 17.2323C20.3752 17.3726 20.043 18.0828 20.3664 18.8106L34.2477 50.6047C34.2477 50.6047 38.6883 59.7238 47.9541 61.9861C49.2915 62.3105 50.6988 62.2667 52.045 61.9773L99.1346 51.7621C100.061 51.5605 100.315 50.368 99.5454 49.8156C96.7569 47.8164 91.9317 43.6777 89.2306 37.5135Z" fill="#C7FFC6"/>
<path d="M5.7158 12.4633C5.7158 12.4633 6.93084 16.5055 11.8609 17.6191C11.8609 17.6191 8.12841 18.2679 8.04974 22.7661C8.04974 22.7661 6.73854 18.8642 2.00948 17.6191C2.00948 17.6191 5.96055 17.1456 5.7158 12.4633Z" fill="white"/>
<path d="M78.1467 64.5186C78.1467 64.5186 80.4544 72.1997 89.8251 74.3217C89.8251 74.3217 82.7272 75.5492 82.5873 84.0984C82.5873 84.0984 80.0873 76.6891 71.1099 74.3129C71.1099 74.3129 78.61 73.4185 78.1467 64.5186Z" fill="white"/>
</svg>
