<svg width="100" height="100" viewBox="0 0 100 100" fill="none" xmlns="http://www.w3.org/2000/svg">
<rect width="100" height="100" fill="#6CF479"/>
<path d="M43.6883 80.6015L8.2597 60.0397C7.74397 59.7153 7.21075 59.5399 6.7125 59.5399C6.11809 59.5399 5.60233 59.7766 5.19149 60.2589C4.51841 61.0393 4.2387 62.3195 4.43975 63.6873C4.69325 65.4323 5.69849 67.0719 7.00095 67.8699L43.0589 88.8087C43.8894 89.291 44.9383 89.1419 45.5939 88.4405L89.3705 42.2837L88.9684 35.1638L46.2146 80.2333C45.559 80.926 44.51 81.0838 43.6796 80.6015H43.6883Z" fill="white"/>
<path d="M45.8999 91.0439C45.1918 91.7893 44.0729 91.9471 43.19 91.4385L4.64953 69.0616C3.25966 68.2111 2.18447 66.4574 1.91349 64.5898C1.7037 63.1254 2.00091 61.7576 2.7177 60.9246C3.15477 60.416 3.69672 60.1617 4.34358 60.1617C4.8768 60.1617 5.445 60.3459 5.9957 60.6966L43.8631 82.6701C44.746 83.1875 45.8649 83.0209 46.5729 82.2756L94.4492 31.8048C95.1922 31.0244 95.0086 29.753 94.0821 29.2181L56.6954 7.49888C54.4838 6.20993 51.6866 6.61327 49.9209 8.47217C38.9243 20.064 1.45896 59.583 1.38903 59.6532L1.35406 59.697C0.305098 60.8983 -0.219393 62.7659 0.0865538 64.8703C0.45369 67.3781 1.88726 69.5527 3.68798 70.6575L43.5222 93.7884C44.4051 94.3058 45.524 94.1392 46.232 93.3939L94.4842 42.5198C95.166 41.8008 95.0611 40.6521 94.2656 40.0646L45.8999 91.0615V91.0439Z" fill="#11B67A"/>
<path d="M92.4476 51.4305L84.563 33.4992L75.8741 13.8317C75.5944 13.2004 74.9125 12.7532 74.2657 12.7532C74.1783 12.7532 74.0908 12.7532 74.0034 12.7795L43.7934 19.1804L20.2093 18.2335V24.7834C20.2093 25.1605 20.288 25.3709 20.3666 25.555L24.5537 34.9898L18.3299 41.7678C18.8893 41.2767 19.3789 41.2417 19.7985 41.3206C20.5764 41.4784 20.8999 42.1624 20.8999 42.1624L34.5626 74.5615C34.886 75.3331 35.7077 75.7628 36.5206 75.5962L95.8568 62.8557C96.5648 62.7067 96.8882 62.1981 96.8533 61.3476V55.2272L92.4476 51.413V51.4305Z" fill="black"/>
<path d="M89.2305 37.6027L96.7655 54.5958C97.0802 55.3148 96.7655 56.0163 96.0487 56.1653L43.2861 67.5905C43.1987 67.608 43.1025 67.6168 43.0151 67.6168C42.3595 67.6168 41.6777 67.1784 41.3979 66.5471L34.3874 50.6412L89.2392 37.6027H89.2305Z" fill="#00482F"/>
<path d="M89.2306 37.6014L75.8651 7.1664C75.5854 6.53508 74.9036 6.08789 74.2567 6.08789C74.1693 6.08789 74.0819 6.08789 73.9945 6.1142L21.1007 17.3202C20.3752 17.4605 20.043 18.1707 20.3664 18.8985L34.2477 50.6926C34.2477 50.6926 38.6883 59.8117 47.9541 62.074C49.2915 62.3984 50.6988 62.3545 52.045 62.0652L99.1346 51.85C100.061 51.6484 100.315 50.4559 99.5454 49.9035C96.7569 47.9043 91.9317 43.7656 89.2306 37.6014Z" fill="#C7FFC6"/>
<path d="M5.7158 12.5511C5.7158 12.5511 6.93084 16.5934 11.8609 17.7069C11.8609 17.7069 8.12841 18.3558 8.04974 22.854C8.04974 22.854 6.73854 18.9521 2.00948 17.7069C2.00948 17.7069 5.96055 17.2335 5.7158 12.5511Z" fill="white"/>
<path d="M78.1467 64.6065C78.1467 64.6065 80.4544 72.2876 89.8251 74.4096C89.8251 74.4096 82.7272 75.6371 82.5873 84.1863C82.5873 84.1863 80.0873 76.777 71.1099 74.4008C71.1099 74.4008 78.61 73.5064 78.1467 64.6065Z" fill="white"/>
</svg>
