<svg width="100" height="100" viewBox="0 0 100 100" fill="none" xmlns="http://www.w3.org/2000/svg">
<rect width="100" height="100" fill="#6CF479"/>
<path d="M84.4601 80.9594H0V85.2235H84.4601V80.9594Z" fill="black"/>
<path d="M73.0472 59.9801H11.4217L0.263426 84.1033C-0.577268 85.9149 0.738991 88 2.72609 88H81.7428C83.7299 88 85.0462 85.9235 84.2055 84.1033L73.0472 59.9801Z" fill="black"/>
<path d="M73.0472 55.7676H11.4217L0.263426 79.8908C-0.577268 81.7024 0.738991 83.7875 2.72609 83.7875H81.7428C83.7299 83.7875 85.0462 81.7109 84.2055 79.8908L73.0472 55.7676Z" fill="#C7FFC6"/>
<path d="M70.1852 12C71.6883 12 72.9026 13.2305 72.9026 14.7345V54.1793H11.549V14.7345C11.549 13.222 12.7717 12 14.2663 12H70.1852Z" fill="#11B67A"/>
<path d="M42.2302 17.579C42.8305 17.579 43.3171 17.0892 43.3171 16.4852C43.3171 15.8811 42.8305 15.3914 42.2302 15.3914C41.6299 15.3914 41.1432 15.8811 41.1432 16.4852C41.1432 17.0892 41.6299 17.579 42.2302 17.579Z" fill="#C7FFC6"/>
<path d="M75.8663 70.7832L71.0769 60.5887C70.7797 59.9478 70.1428 59.5462 69.438 59.5462H15.0306C14.3258 59.5462 13.6889 59.9564 13.3917 60.5887L8.6023 70.7832C8.17771 71.689 8.83159 72.74 9.83363 72.74H25.1614C25.7134 72.74 26.1465 73.2357 26.0616 73.7912L25.8833 74.9276C25.7559 75.7565 26.3927 76.5085 27.2249 76.5085H57.2352C58.0674 76.5085 58.7043 75.7565 58.5769 74.9276L58.3986 73.7912C58.3137 73.2357 58.7383 72.74 59.2987 72.74H74.6265C75.6285 72.74 76.2824 71.6976 75.8578 70.7832H75.8663Z" fill="black"/>
<path d="M100 61.4775L85.5978 51.1378L87.8991 68.7922L91.9327 63.8018L98.0723 74.0989L99.8726 73.0136L93.733 62.7166L100 61.4775Z" fill="white"/>
<path d="M30.6047 35.0721C31.2246 35.4481 31.9549 35.7386 32.7192 35.7386C33.4834 35.7386 34.2137 35.4481 34.8336 35.0721C36.2433 34.2261 37.2623 32.8417 37.8312 31.2865C38.5106 29.4151 38.57 27.7318 38.57 27.7318C38.7568 23.4335 35.9376 21.263 32.7192 21.263C29.5007 21.263 26.6814 23.425 26.8683 27.7318C26.8683 27.7318 26.9277 29.4065 27.607 31.2865C28.176 32.8417 29.1866 34.2261 30.6047 35.0721ZM46.0174 43.6771C45.1937 40.6264 43.8605 39.4815 41.3384 38.644L37.3047 37.2169C37.3047 37.2169 36.7018 36.9948 35.7677 36.7982C34.7487 37.3964 33.7297 37.704 32.7277 37.704C31.7256 37.704 30.6981 37.3964 29.6876 36.7982C28.7535 37.0033 28.1505 37.2169 28.1505 37.2169L24.1169 38.644C21.5948 39.4815 20.2616 40.6264 19.4379 43.6771L18.4188 47.813H47.0449L46.0259 43.6771H46.0174Z" fill="black"/>
<path d="M65.4466 17.5043H50.9595C50.0215 17.5043 49.2611 18.2695 49.2611 19.2134V36.4064C49.2611 37.3503 50.0215 38.1155 50.9595 38.1155H65.4466C66.3846 38.1155 67.1449 37.3503 67.1449 36.4064V19.2134C67.1449 18.2695 66.3846 17.5043 65.4466 17.5043Z" fill="#00482F"/>
<path d="M64.0966 31.6356C63.7484 30.3452 63.188 29.8667 62.118 29.5078L60.4196 28.9011C60.4196 28.9011 60.3856 28.8926 60.3347 28.8755C60.2328 28.9524 60.1394 29.0293 60.029 29.0977C59.5194 29.4053 59.0014 29.5591 58.4834 29.5591C57.9654 29.5591 57.4474 29.4053 56.9379 29.0977C56.8275 29.0293 56.7341 28.9524 56.6322 28.8755C56.5813 28.8926 56.5473 28.9011 56.5473 28.9011L54.8489 29.5078C53.7875 29.8582 53.2185 30.3452 52.8703 31.6356L52.4372 33.3788H64.5296L64.0966 31.6356ZM57.5833 28.0038C57.8465 28.1577 58.1522 28.2859 58.4749 28.2859C58.7976 28.2859 59.1034 28.1662 59.3666 28.0038C59.9611 27.6449 60.3941 27.0639 60.6319 26.4059C60.9206 25.6112 60.9461 24.9019 60.9461 24.9019C61.0225 23.0818 59.8336 22.1675 58.4749 22.1675C57.1162 22.1675 55.9274 23.0818 56.0038 24.9019C56.0038 24.9019 56.0293 25.6112 56.318 26.4059C56.5558 27.0639 56.9889 27.6449 57.5833 28.0038Z" fill="white"/>
</svg>
