<svg width="100" height="100" viewBox="0 0 100 100" fill="none" xmlns="http://www.w3.org/2000/svg">
<g clip-path="url(#clip0_15980_11917)">
<rect width="100" height="100" fill="#6CF479"/>
<path d="M52.5248 99.1113C65.8144 99.1113 76.5878 96.5701 76.5878 93.4354C76.5878 90.3007 65.8144 87.7595 52.5248 87.7595C39.2351 87.7595 28.4618 90.3007 28.4618 93.4354C28.4618 96.5701 39.2351 99.1113 52.5248 99.1113Z" fill="black"/>
<path d="M54.3075 89.6373H45.0233L44.2496 81.7426L52.4506 79.8127L54.3075 89.6373Z" fill="black"/>
<path d="M53.9565 -0.888672H43.4302L47.8162 1.04115L53.9565 -0.888672Z" fill="black"/>
<path d="M45.8867 -0.888672C62.6629 -0.888534 76.2484 13.0012 76.2373 30.1299C76.2373 30.6208 76.2257 31.112 76.2031 31.6123C76.1978 31.6569 76.1958 31.6998 76.1943 31.7422H65.2256C65.2675 31.2105 65.29 30.6726 65.29 30.1299C65.2899 19.1767 56.5973 10.3009 45.8867 10.3008C35.1761 10.3008 26.4835 19.1766 26.4834 30.1299C26.4834 41.0833 35.176 49.96 45.8867 49.96C51.1302 49.9599 55.8888 47.831 59.3818 44.374H73.6875C66.3807 66.7491 45.8867 89.6377 45.8867 89.6377C45.8867 89.6377 16.9004 57.2684 15.5811 31.8867C15.5698 31.7923 15.5693 31.7067 15.5693 31.6123C15.5468 31.112 15.5352 30.6208 15.5352 30.1299C15.5353 13.0011 29.1217 -0.888672 45.8867 -0.888672ZM75.5186 37.3564C75.3207 38.4033 75.0844 39.4568 74.8145 40.5146H62.418C63.0195 39.5169 63.5377 38.461 63.9609 37.3564H75.5186Z" fill="black"/>
<path d="M37.8175 12.0935C35.0578 13.3853 32.6455 15.3187 30.7638 17.7078H18.0695C18.921 15.719 19.9691 13.8385 21.1916 12.0935H37.8175Z" fill="#C7FFC6"/>
<path d="M41.0147 8.93553H23.7276C25.0265 7.51774 26.4539 6.22503 27.9913 5.07616H41.0147V8.93553Z" fill="#C7FFC6"/>
<path d="M54.3073 -0.888672C37.5421 -0.888672 23.9564 13.0014 23.9564 30.1303C23.9564 30.6213 23.9677 31.1123 23.9902 31.6128C23.9902 31.7072 23.9902 31.7922 24.0015 31.8866C25.3206 57.2683 54.3075 89.6373 54.3075 89.6373C54.3075 89.6373 83.2939 57.2683 84.613 31.8866C84.613 31.7922 84.613 31.7072 84.6243 31.6128C84.6469 31.1123 84.6581 30.6213 84.6581 30.1303C84.6694 13.0014 71.0837 -0.888672 54.3073 -0.888672ZM54.3073 49.9598C43.5965 49.9598 34.9039 41.0837 34.9039 30.1303C34.9039 19.1769 43.5965 10.3008 54.3073 10.3008C65.018 10.3008 73.7106 19.1769 73.7106 30.1303C73.7106 41.0837 65.018 49.9598 54.3073 49.9598Z" fill="#11B67A"/>
<path d="M41.5005 66.4798C37.002 59.4622 33.9566 54.0236 32.3777 50.3394C35.7578 57.0061 43.2055 66.0397 50.2724 67.8833C54.3075 68.9359 62.0268 70.164 69.0443 64.9008C65.5355 70.164 63.9566 72.7956 60.4478 77.1815C58.2022 79.9885 56.1203 82.7371 54.3075 84.5499C50.9741 80.3394 46.5407 74.3425 41.5005 66.4798Z" fill="white"/>
<path d="M58.1666 0.865529C58.1666 0.865529 78.1666 4.3743 81.8508 23.3217C81.8508 23.3217 74.1415 9.66058 66.0126 11.1288C66.0126 11.1288 66.9385 4.04829 58.1666 0.865529Z" fill="white"/>
</g>
<defs>
<clipPath id="clip0_15980_11917">
<rect width="100" height="100" fill="white"/>
</clipPath>
</defs>
</svg>
