<svg width="100" height="100" viewBox="0 0 100 100" fill="none" xmlns="http://www.w3.org/2000/svg">
<g clip-path="url(#clip0_15980_11964)">
<rect width="100" height="100" fill="#6CF479"/>
<path d="M99.2501 85.2473L86.9384 70.8361C86.0335 69.7712 85.5298 68.4233 85.5298 67.0371H85.5206V25.4789C85.5206 24.3957 84.6387 23.5144 83.5547 23.5144L83.5623 23.5067H16.6405C15.5564 23.5067 14.6745 24.388 14.6745 25.4713V67.0355H14.6699C14.6699 68.4431 14.1876 69.7896 13.2613 70.8346L0.951144 85.2473C0.407599 85.8899 0.10597 86.0046 0.10597 86.8492V87.5821C0.10597 88.5674 0.909804 88.6623 1.89584 88.6623H98.3039C99.2899 88.6623 100.094 88.5674 100.094 87.5821V86.8492C100.094 86.0046 99.7921 85.8899 99.2501 85.2473Z" fill="#11B67A"/>
<path d="M84.2699 70.5719H15.2918L9.6435 77.6345H89.9182L84.2699 70.5719Z" fill="#6CF479"/>
<path d="M65.6915 78.4129H33.8704L31.2644 84.4197H68.2975L65.6915 78.4129Z" fill="#6CF479"/>
<path d="M34.273 78.8581H63.8174C63.8174 78.8581 41.4095 79.2299 32.2918 83.4497L34.273 78.8581Z" fill="#11B67A"/>
<path d="M59.1822 72.8529C59.5711 72.8177 59.9539 72.7825 60.3306 72.7489H59.1608L59.1822 72.8529Z" fill="#11B67A"/>
<path d="M58.7966 70.9207L59.0202 72.0407H61.989L61.6812 70.9207H58.7966Z" fill="#11B67A"/>
<path d="M48.2917 72.7489L48.2473 73.8505C49.3971 73.7449 50.5087 73.6424 51.5851 73.5445L51.5529 72.7489H48.2901H48.2917Z" fill="#11B67A"/>
<path d="M51.4823 70.9207H48.365L48.3206 72.0407H51.5267L51.4823 70.9207Z" fill="#11B67A"/>
<path d="M55.7097 72.7489L55.7602 73.1635C56.8136 73.0671 57.8257 72.9753 58.801 72.8881L58.7734 72.7504H55.7082L55.7097 72.7489Z" fill="#11B67A"/>
<path d="M79.1646 70.9207L79.2764 71.089C80.1261 71.0187 80.8182 70.9636 81.3801 70.9207H79.1646Z" fill="#11B67A"/>
<path d="M55.1264 70.9207H51.8376L51.882 72.0407H55.2642L55.1264 70.9207Z" fill="#11B67A"/>
<path d="M58.4108 70.9207H55.4833L55.6226 72.0407H58.6343L58.4108 70.9207Z" fill="#11B67A"/>
<path d="M51.9093 72.7489L51.9399 73.5124C53.1403 73.4022 54.2947 73.2966 55.4079 73.1957L55.3527 72.7489H51.9093Z" fill="#11B67A"/>
<path d="M72.7155 70.9207L73.0738 71.6169C73.9481 71.5404 74.7519 71.4715 75.4899 71.4088L75.2021 70.9223H72.7155V70.9207Z" fill="#11B67A"/>
<path d="M69.4633 70.9207L69.8951 71.8953C70.7525 71.8204 71.5548 71.75 72.3096 71.6827L71.9177 70.9207H69.4633Z" fill="#11B67A"/>
<path d="M65.798 70.9207L66.2007 72.0407H68.2463C68.6306 72.007 69.0072 71.9734 69.3732 71.9412L68.9215 70.9207H65.798Z" fill="#11B67A"/>
<path d="M76.0271 70.9207L76.2752 71.3415C77.0913 71.2726 77.8201 71.2099 78.4693 71.1564L78.3131 70.9207H76.0256H76.0271Z" fill="#11B67A"/>
<path d="M62.1222 70.9207L62.4315 72.0407H65.6989L65.2962 70.9207H62.1222Z" fill="#11B67A"/>
<path d="M41.436 70.9207L41.2124 72.0407H44.2241L44.3635 70.9207H41.436Z" fill="#11B67A"/>
<path d="M42.8988 74.3433C43.2525 74.3111 43.6031 74.279 43.9506 74.2469L44.1359 72.7505H41.0706L40.7522 74.3433H42.8988Z" fill="#11B67A"/>
<path d="M32.9923 75.2597C33.7502 75.1893 34.4989 75.1204 35.2354 75.0516H33.0673L32.9923 75.2597Z" fill="#11B67A"/>
<path d="M21.4432 76.3368C22.4752 76.2404 23.4903 76.1456 24.487 76.0522L25.0015 75.0516H22.2011L21.4417 76.3368H21.4432Z" fill="#11B67A"/>
<path d="M25.3261 75.9743C26.3228 75.881 27.3012 75.7907 28.2643 75.7004L28.5521 75.0532H25.8007L25.3261 75.9758V75.9743Z" fill="#11B67A"/>
<path d="M28.8325 75.6468C30.0727 75.5305 31.2869 75.4188 32.4735 75.3086L32.5653 75.0516H29.0958L28.8325 75.6468Z" fill="#11B67A"/>
<path d="M12.301 75.0516L11.9258 75.5213L10.6137 77.2732H11.442C11.886 77.2319 12.3285 77.1906 12.7679 77.1492L14.3174 75.0516H12.301Z" fill="#11B67A"/>
<path d="M37.2246 74.3432H40.3679L40.6864 72.7489H37.6625L37.2246 74.3432Z" fill="#11B67A"/>
<path d="M44.5828 72.0407H47.965L48.0094 70.9207H44.7206L44.5828 72.0407Z" fill="#11B67A"/>
<path d="M17.3686 70.9207H15.6048L14.7091 72.0407H16.5403L17.3686 70.9207Z" fill="#11B67A"/>
<path d="M44.3131 74.2132C45.5426 74.1 46.7369 73.9898 47.8914 73.8843L47.9373 72.7505H44.4953L44.3147 74.2132H44.3131Z" fill="#11B67A"/>
<path d="M17.7119 76.6856C18.6781 76.5954 19.6319 76.5051 20.5705 76.4179L21.3774 75.0516H18.7929L17.7104 76.6856H17.7119Z" fill="#11B67A"/>
<path d="M37.7251 70.9207H34.5511L34.1499 72.0407H37.4158L37.7251 70.9207Z" fill="#11B67A"/>
<path d="M15.1988 75.0516L13.7152 77.0605C14.7609 76.9626 15.7898 76.8662 16.8034 76.7713L17.9426 75.0531H15.1973L15.1988 75.0516Z" fill="#11B67A"/>
<path d="M30.3831 70.9207H27.9287L27.353 72.0407H29.887L30.3831 70.9207Z" fill="#11B67A"/>
<path d="M29.5736 72.7489H26.9875L26.1668 74.3432H28.8662L29.5736 72.7489Z" fill="#11B67A"/>
<path d="M33.3214 74.3432H36.7817L37.2211 72.7489H33.894L33.3214 74.3432Z" fill="#11B67A"/>
<path d="M41.0508 70.9207H38.1661L37.8584 72.0407H40.8272L41.0508 70.9207Z" fill="#11B67A"/>
<path d="M27.1313 70.9207H24.6448L23.9818 72.0407H26.5541L27.1313 70.9207Z" fill="#11B67A"/>
<path d="M34.0489 70.9207H30.927L30.4309 72.0407H33.6462L34.0489 70.9207Z" fill="#11B67A"/>
<path d="M30.1151 72.7489L29.4093 74.3432H32.8191L33.3917 72.7489H30.1151Z" fill="#11B67A"/>
<path d="M20.6825 70.9207H18.2511L17.4228 72.0407H19.94L20.6825 70.9207Z" fill="#11B67A"/>
<path d="M15.7234 74.3432H18.4135L19.47 72.7489H16.8993L15.7234 74.3432Z" fill="#11B67A"/>
<path d="M26.1896 72.7489H23.5638L22.6221 74.3432H25.3689L26.1896 72.7489Z" fill="#11B67A"/>
<path d="M16.0174 72.7489H14.1433L12.8679 74.3432H14.8415L16.0174 72.7489Z" fill="#11B67A"/>
<path d="M22.7389 72.7489H20.3213L19.2648 74.3432H21.7973L22.7389 72.7489Z" fill="#11B67A"/>
<path d="M23.8193 70.9207H21.5333L20.7907 72.0407H23.1578L23.8193 70.9207Z" fill="#11B67A"/>
<path d="M0.09375 86.429V87.6346C0.09375 88.6199 0.897584 88.7148 1.88362 88.7148H98.2917C99.2777 88.7148 100.082 88.6199 100.082 87.6346V86.429H0.09375Z" fill="black"/>
<path d="M89.3714 9.50879C89.3714 9.50879 91.3741 16.1261 99.4752 17.959C99.4752 17.959 93.337 19.0163 93.2083 26.3848C93.2083 26.3848 91.051 20.0016 83.2821 17.9514C83.2821 17.9514 89.7756 17.1772 89.3714 9.50879Z" fill="white"/>
<path d="M16.1137 25.1072V66.1604H84.1059V25.1072H16.1137Z" fill="black"/>
<path d="M18.7338 27.7085H25.7218C25.7218 27.7085 20.7487 30.1198 18.7338 39.6854V27.7085Z" fill="white"/>
</g>
<defs>
<clipPath id="clip0_15980_11964">
<rect width="100" height="100" fill="white"/>
</clipPath>
</defs>
</svg>
