<svg width="100" height="100" viewBox="0 0 100 100" fill="none" xmlns="http://www.w3.org/2000/svg">
<rect width="100" height="100" fill="#6CF479"/>
<path d="M12.9925 42.8015C21.4908 39.9108 30.5657 38.2917 40.0355 38.2917C49.5053 38.2917 58.5881 39.9108 67.0864 42.8015C68.2948 43.2122 69.2584 44.0652 69.8428 45.1393L64.7012 33.924C64.0299 32.7709 62.9557 31.8705 61.6288 31.4361C54.8207 29.2326 47.5782 28.0005 40.0355 28.0005C32.4928 28.0005 25.2503 29.2326 18.4422 31.4361C17.1074 31.8705 16.0411 32.7709 15.3698 33.924L10.2282 45.1393C10.8205 44.0652 11.7762 43.2122 12.9846 42.8015H12.9925Z" fill="#006A4D"/>
<path d="M70.4903 47.5956C70.4903 45.4394 69.1241 43.4965 67.0864 42.8015C58.5881 39.9108 49.5132 38.2917 40.0355 38.2917C30.5578 38.2917 21.4829 39.9108 12.9925 42.8015C10.9469 43.4965 9.59609 45.4394 9.59609 47.5956V76.0445C9.59609 78.2875 11.4127 80.1041 13.6557 80.1041H66.4307C68.6737 80.1041 70.4903 78.2875 70.4903 76.0445V47.5956Z" fill="#11B67A"/>
<path d="M9.58837 76.0367C9.58837 76.0367 9.98327 78.1613 13.6796 78.1613H67.7103V80.0964H13.4821C13.4821 80.0964 9.77793 80.1437 9.58837 76.0367Z" fill="black"/>
<path d="M15.3698 33.924L10.2282 45.1393C10.8205 44.0652 11.7762 43.2122 12.9846 42.8015C16.4676 41.6168 20.0534 40.6611 23.7181 39.9266C32.4691 35.8906 28.141 31.2308 34.4752 28.2295C28.9229 28.6797 23.5601 29.7854 18.4422 31.444C17.1074 31.8784 16.0411 32.7788 15.3698 33.9319V33.924Z" fill="black"/>
<path d="M55.3893 34.3742C53.4148 34.698 51.6772 35.0771 50.3741 35.3852C49.995 35.4799 50.066 36.0328 50.461 36.0407C55.4841 36.1039 57.6956 36.3487 57.6956 36.3487V34.1925L55.3893 34.3742Z" fill="black"/>
<path d="M60.0651 35.6853V25.4099C60.0651 14.4079 51.1086 5.45146 40.1066 5.45146C29.1046 5.45146 20.1482 14.4079 20.1482 25.4099V35.7169C20.1798 36.2934 21.2223 36.5778 22.5097 36.3566C23.8129 36.1276 24.8791 35.4641 24.8791 34.8718V25.4099C24.8791 17.0142 31.711 10.1903 40.0987 10.1903C48.4865 10.1903 55.3183 17.0221 55.3183 25.4099V34.8718C55.3183 35.4641 56.3846 36.1355 57.6877 36.3566C58.9751 36.5778 60.0256 36.2618 60.0651 35.6853Z" fill="white"/>
<path d="M21.0167 36.3645C21.0167 36.3645 21.7749 36.5462 22.699 36.3092V26.2076C22.699 26.2076 21.7986 13.1442 33.1876 7.59973C33.1876 7.59973 21.0167 11.4698 21.0167 26.2076V36.3645Z" fill="black"/>
<path d="M47.3094 10.5694C57.4426 15.5057 56.637 27.1238 56.637 27.1238V36.0565C57.4031 36.3645 58.1377 36.404 58.1377 36.404V27.1317C58.1377 14.0209 47.3094 10.5773 47.3094 10.5773V10.5694Z" fill="black"/>
<path d="M38.9216 47.4771C46.8591 47.4771 53.2882 53.9141 53.2882 61.8437C53.2882 63.7788 52.9012 65.619 52.2061 67.3013C53.4461 65.1767 54.1728 62.7046 54.1728 60.0667C54.1728 52.1291 47.7358 45.7001 39.8062 45.7001C33.8036 45.7001 28.662 49.3885 26.5137 54.617C29.0095 50.352 33.6299 47.4771 38.9216 47.4771Z" fill="#024731"/>
<path d="M40.0668 52.3425H39.5613C39.1339 52.3425 38.7873 52.6891 38.7873 53.1165V67.0092C38.7873 67.4367 39.1339 67.7833 39.5613 67.7833H40.0668C40.4943 67.7833 40.8408 67.4367 40.8408 67.0092V53.1165C40.8408 52.6891 40.4943 52.3425 40.0668 52.3425Z" fill="black"/>
<path d="M4.00433 19.9999C4.00433 19.9999 5.32332 24.3597 10.6545 25.5602C10.6545 25.5602 6.61071 26.2552 6.53172 31.1046C6.53172 31.1046 5.11005 26.9028 0 25.5523C0 25.5523 4.27287 25.0468 4.00433 19.992V19.9999Z" fill="white"/>
<path d="M67.7971 2C67.7971 2 69.8348 8.75285 78.0962 10.6247C78.0962 10.6247 71.833 11.7067 71.7145 19.2178C71.7145 19.2178 69.511 12.7019 61.5892 10.6168C61.5892 10.6168 68.2078 9.83489 67.7971 2Z" fill="white"/>
<path d="M54.7179 50.0124C54.9786 50.3994 55.2155 50.7943 55.4446 51.1971H70.5141V50.0124H54.7179Z" fill="#024731"/>
<path d="M57.4112 56.4095H70.5141V55.2248H57.1268C57.2374 55.6118 57.3322 56.0067 57.4191 56.4095H57.4112Z" fill="#024731"/>
<path d="M70.5062 61.615V60.4303H57.7666C57.7587 60.8252 57.735 61.2201 57.7034 61.615H70.5062Z" fill="#024731"/>
<path d="M56.4635 66.8274H70.5142V65.6427H56.8979C56.7636 66.0455 56.6215 66.4404 56.4635 66.8274Z" fill="#024731"/>
<path d="M53.2094 72.0399H70.5141V70.8551H54.1888C53.8808 71.2659 53.557 71.6608 53.2173 72.0399H53.2094Z" fill="#024731"/>
<path d="M24.9104 50.0124H9.56446V51.1971H24.1838C24.4128 50.7943 24.6577 50.3994 24.9104 50.0124Z" fill="#024731"/>
<path d="M22.5017 55.2248H9.55675V56.4095H22.2095C22.2884 56.0067 22.3911 55.6118 22.5017 55.2248Z" fill="#024731"/>
<path d="M21.8462 60.4303H9.55675V61.615H21.9094C21.8778 61.2201 21.8541 60.8252 21.8462 60.4303Z" fill="#024731"/>
<path d="M22.7229 65.6427H9.55675V66.8274H23.1572C22.9993 66.4404 22.8571 66.0455 22.7229 65.6427Z" fill="#024731"/>
<path d="M9.55675 70.8551V72.0399H26.4112C26.0716 71.6608 25.7478 71.2659 25.4398 70.8551H9.55675Z" fill="#024731"/>
<path d="M95.1323 61.1881C89.888 58.1631 82.2031 58.637 77.9224 62.4834C75.3476 64.7975 74.6131 67.783 75.624 70.5078C75.8689 71.1713 75.5529 71.8979 74.8105 72.3955L73.0967 73.5565L72.3542 72.9404V74.4174H72.3779C72.3779 74.5753 72.4174 74.7333 72.5517 74.8597L74.1392 76.5025C74.3366 76.7078 74.3208 76.9921 74.0918 77.2133L73.9576 77.3397L73.223 76.7315V78.2084C73.223 78.2795 73.2309 78.3427 73.2704 78.4059L73.7285 79.251C73.8075 79.4011 73.768 79.5748 73.6258 79.717L72.5754 80.7437C72.4569 80.8622 72.2831 80.9412 72.0936 80.957L71.2643 81.0518C71.0432 81.0754 70.8378 81.1702 70.7035 81.3045L70.1428 81.8495C70.0006 81.9837 69.9453 82.1575 69.9848 82.3154L70.1744 83.0184C70.2139 83.1605 70.1586 83.3185 70.0322 83.4449L69.3214 84.1399C69.1634 84.2979 68.9028 84.3926 68.65 84.3847H68.0814C67.7576 84.3689 67.4258 84.4874 67.2205 84.6849L65.6724 86.1776L64.9616 85.5931V87.0701C64.9616 87.1333 64.9616 87.1964 64.9853 87.2596L65.2539 87.9863C65.3091 88.1363 65.2539 88.318 65.1038 88.4601L64.3456 89.1947L62.7028 89.7001C62.7028 89.7001 61.5418 90.0793 61.834 91.2087C61.8893 91.4298 61.8103 91.6747 61.6049 91.88L61.1232 92.3539C61.1232 92.3539 60.8704 92.5671 60.6256 92.891L60.1754 92.5197V93.9967C60.1754 94.2178 60.2149 94.4469 60.3492 94.668L61.7471 97.6693C61.913 98.0247 62.2289 98.3169 62.6633 98.5065L63.3267 98.7987C63.6268 98.933 64.0691 98.8303 64.314 98.5776L81.2791 81.186C81.5002 80.957 81.8793 80.8543 82.2189 80.9254L84.691 81.4782C85.2123 81.5967 85.7968 81.3835 86.0495 80.9886L87.7397 78.3111C88.1109 77.7188 88.8375 77.2844 89.6668 77.1896C92.9208 76.8184 95.9142 75.4994 97.865 73.3827C101.467 69.4732 100.242 64.1104 95.1402 61.1644L95.1323 61.1881ZM92.8182 65.5478C91.6887 66.6931 89.4615 66.9221 87.8503 66.0296C86.2233 65.1292 85.8757 63.4627 87.0605 62.3175C88.2294 61.1881 90.4487 61.0143 92.0204 61.9068C93.5764 62.7914 93.9318 64.4105 92.8182 65.5478Z" fill="black"/>
<path d="M87.9529 63.8183C88.9086 62.9021 90.7093 62.76 91.9809 63.4866C92.3284 63.684 92.5891 63.9289 92.7865 64.1895C92.8497 63.4866 92.4469 62.7679 91.6255 62.294C90.3539 61.5674 88.5452 61.7095 87.5975 62.6257C86.8945 63.297 86.8629 64.1974 87.3921 64.9161C87.4316 64.5291 87.6054 64.1421 87.945 63.8183H87.9529Z" fill="black"/>
<path d="M95.2902 59.4745C89.5167 56.0863 82.211 57.1525 77.9224 61.0068C75.3476 63.3209 74.6131 66.3064 75.624 69.0312C75.8689 69.6947 75.5529 70.4213 74.8105 70.9189L72.757 72.3089C72.3226 72.6012 72.2358 73.0592 72.5517 73.3831L74.1392 75.0259C74.3366 75.2312 74.3208 75.5155 74.0918 75.7367L73.3889 76.408C73.2309 76.566 73.1835 76.7634 73.2704 76.9293L73.7285 77.7744C73.8075 77.9245 73.768 78.0982 73.6258 78.2404L72.5754 79.2671C72.4569 79.3856 72.2831 79.4646 72.0936 79.4804L71.2643 79.5751C71.0432 79.5988 70.8378 79.6936 70.7035 79.8279L70.1428 80.3729C70.0006 80.5071 69.9453 80.6809 69.9848 80.8388L70.1744 81.5418C70.2139 81.6839 70.1586 81.834 70.0322 81.9683L69.3214 82.6633C69.1634 82.8213 68.9028 82.916 68.65 82.9081H68.0814C67.7576 82.8923 67.4258 83.0108 67.2205 83.2083L65.1749 85.1828C64.9853 85.3644 64.9221 85.5856 64.9932 85.783L65.2618 86.5097C65.317 86.6597 65.2618 86.8414 65.1117 86.9835L64.3535 87.7181L62.7107 88.2235C62.7107 88.2235 61.5497 88.6026 61.8419 89.7321C61.8972 89.9532 61.8182 90.1981 61.6129 90.4034L61.1311 90.8773C61.1311 90.8773 59.6936 92.0857 60.3649 93.1914L61.7629 96.1927C61.9288 96.5481 62.2447 96.8403 62.6791 97.0299L63.3425 97.3221C63.6427 97.4564 64.085 97.3537 64.3298 97.101L81.2948 79.7094C81.516 79.4804 81.8951 79.3777 82.2347 79.4567L84.7068 80.0095C85.2281 80.128 85.8126 79.9148 86.0653 79.5199L87.7555 76.8424C88.1267 76.2501 88.8533 75.8157 89.6826 75.7209C92.9366 75.3497 95.93 74.0307 97.8808 71.914C101.482 68.0045 100.408 62.4047 95.306 59.4666L95.2902 59.4745ZM92.2732 65.2559C91.3491 66.1879 89.5404 66.3696 88.2373 65.6508C86.9183 64.9242 86.6339 63.5658 87.5975 62.6338C88.5532 61.7176 90.354 61.5754 91.6334 62.3021C92.8971 63.0208 93.1894 64.3398 92.2811 65.2559H92.2732Z" fill="#C7FFC6"/>
<path d="M87.6211 74.1966C85.5992 74.1966 83.5536 73.7859 81.7529 72.925C79.107 71.6613 77.3931 69.6394 77.0535 67.3647C76.7534 65.3507 77.5511 63.3525 79.3045 61.7571C82.8744 58.4952 89.3271 57.8554 93.987 60.296C96.3406 61.5281 97.9044 63.4473 98.2598 65.5561C98.5758 67.4042 97.9597 69.2682 96.5222 70.8004C94.4687 73.004 91.0726 74.1887 87.629 74.1887L87.6211 74.1966ZM87.7159 60.0195C84.8331 60.0195 81.974 60.9199 80.1022 62.6338C78.6568 63.9528 77.9855 65.5719 78.2303 67.191C78.5068 69.0628 79.9837 70.7609 82.2662 71.8508C86.7128 73.9675 92.7154 73.1303 95.6614 69.9869C96.8382 68.7311 97.3437 67.2305 97.0909 65.7535C96.7987 64.008 95.4639 62.4047 93.4341 61.3464C91.7281 60.4539 89.7141 60.0195 87.7159 60.0195Z" fill="#024731"/>
</svg>
