<svg width="100" height="100" viewBox="0 0 100 100" fill="none" xmlns="http://www.w3.org/2000/svg">
<g clip-path="url(#clip0_15980_12022)">
<rect width="100" height="100" fill="#6CF479"/>
<path d="M52.3759 54.2068L26.6397 96.8279C25.2852 99.0705 22.3845 99.7821 20.1558 98.419C17.9271 97.056 17.22 94.137 18.5746 91.8944L44.1997 49.4619L52.3866 54.2064L52.3759 54.2068Z" fill="#006A4D"/>
<path d="M52.3866 54.2064L52.3759 54.2068L26.6397 96.8279C25.2852 99.0705 22.3845 99.7821 20.1558 98.419C18.0181 97.1116 17.2807 94.3735 18.4195 92.173C19.0201 94.4041 22.1476 96.0515 24.8919 92.359C33.0327 81.4157 47.5938 57.8305 50.4945 53.11L52.3866 54.2064Z" fill="black"/>
<path d="M39.0444 45.7393L39.3672 46.0424C39.2596 45.9341 39.152 45.8367 39.0552 45.7284L39.0444 45.7393ZM74.6135 38.9511C63.4565 50.7952 47.6731 53.9782 39.3672 46.0532L44.5638 51.0118C52.8697 58.9367 68.6423 55.7537 79.8101 43.9096C90.9671 32.0655 92.4948 18.3483 83.5864 7.21873L79.7885 3.15881C88.0944 11.0838 85.7705 27.1069 74.6135 38.9511ZM79.455 2.85567C79.5626 2.9531 79.6702 3.05054 79.7778 3.15881L79.455 2.85567Z" fill="#006A4D"/>
<path d="M43.9825 9.90373C51.8365 1.44826 62.2727 -2.30852 70.3849 -0.403062C73.0424 0.224873 75.4309 1.44826 77.4213 3.31041C85.4582 10.8889 83.5216 26.1109 73.0854 37.3271C65.2314 45.7718 54.7845 49.5394 46.6722 47.6339C44.0148 47.006 41.6263 45.7826 39.6359 43.9205C31.599 36.3419 33.5356 21.1199 43.9717 9.90373H43.9825Z" fill="#035D3E"/>
<path d="M48.2 13.8987C39.4637 23.2853 37.0645 35.6599 41.949 43.3142C40.9484 42.7513 40.0124 42.1125 39.1732 41.3222C31.5882 34.1875 34.5684 20.9143 44.4128 10.3368C54.2465 -0.251441 67.2002 -4.11649 74.7853 3.01815C75.6245 3.80848 76.3346 4.7179 76.9586 5.67063C69.0508 1.26426 56.9362 4.49055 48.2 13.8879V13.8987Z" fill="black"/>
<path d="M43.9825 9.90373C33.5463 21.1199 31.6206 36.3423 39.6467 43.9208C41.6371 45.7938 44.0256 47.0172 46.6831 47.6343C54.7953 49.529 65.2423 45.7722 73.0963 37.3275C83.5325 26.1113 85.4583 10.8893 77.4321 3.3108C75.4417 1.43782 73.0532 0.214432 70.3958 -0.402677C62.2836 -2.29731 51.8365 1.45909 43.9825 9.90373ZM75.5493 5.32452C82.4781 11.8312 80.4769 25.3535 71.0951 35.4437C64.1986 42.8382 54.6447 46.6708 47.3071 44.9494C45.0477 44.4189 43.1004 43.4012 41.5188 41.9071C34.59 35.4004 36.5912 21.8782 45.973 11.7879C52.8695 4.39345 62.4234 0.560879 69.761 2.28229C72.0204 2.81278 73.9678 3.83047 75.5493 5.32452Z" fill="#11B67A"/>
<path d="M64.5432 8.23654C64.5432 8.23654 60.4978 15.3279 50.7395 15.2629C50.7395 15.2629 57.4853 18.1319 55.6563 26.6415C55.6563 26.6415 59.8308 19.8642 69.2556 19.5935C69.2556 19.5935 62.0363 16.9627 64.5432 8.24736V8.23654Z" fill="white"/>
<path d="M89.0842 19.2904L84.7268 14.635C84.9958 19.3337 83.7908 24.552 81.2301 29.5972L82.7041 30.983C84.942 33.0833 85.3508 36.5261 82.4244 40.8459C87.7393 34.3392 90.2569 26.3492 89.0842 19.2904Z" fill="black"/>
<path d="M99.0863 88.044C99.0863 88.044 87.9765 82.0521 75.1783 90.1792C75.1783 90.1792 81.7231 80.8492 72.3765 71.1282C72.3765 71.1282 83.3892 76.6014 96.038 69.1885C96.038 69.1885 88.6713 78.6013 99.0788 88.029L99.0938 88.044H99.0863Z" fill="white"/>
<path d="M15.2148 34.8855C15.2148 34.8855 12.4124 25.5584 1.09375 22.9848C1.09375 22.9848 9.68246 21.4972 9.86385 11.1114C9.86385 11.1114 12.893 20.1008 23.7582 22.9848C23.7582 22.9848 14.6706 24.0617 15.242 34.8855H15.2148Z" fill="white"/>
</g>
<defs>
<clipPath id="clip0_15980_12022">
<rect width="100" height="100" fill="white"/>
</clipPath>
</defs>
</svg>
