<svg width="100" height="100" viewBox="0 0 100 100" fill="none" xmlns="http://www.w3.org/2000/svg">
<g clip-path="url(#clip0_15980_12036)">
<rect width="100" height="100" fill="#6CF479"/>
<path d="M14.6384 78.5181L2.57629 92.0493H100.094L83.2532 80.5826L14.6384 78.5181Z" fill="black"/>
<path d="M20.0959 92.0484L27.1012 76.6538L42.4262 69.1072L40.0911 82.2054L20.0959 92.0484Z" fill="white"/>
<path d="M57.7598 76.6538L60.0949 92.0484L80.0902 82.2054L73.0849 69.1072L57.7598 76.6538Z" fill="white"/>
<path d="M0.09375 82.2054L20.0959 92.0484L27.1012 76.6538L11.7692 69.1072L0.09375 82.2054Z" fill="#11B67A"/>
<path d="M40.0923 82.2054L42.4274 69.1072L57.7598 76.6538L60.0949 92.0484L40.0923 82.2054Z" fill="#11B67A"/>
<path d="M73.0849 69.1072L80.0902 82.2054L100.094 92.0493L88.4177 76.6538L73.0849 69.1072Z" fill="#11B67A"/>
<path d="M33.388 78.7878L41.4913 74.3805L58.239 79.8317L73.0849 69.1072L57.7598 76.6538L42.4274 69.1072L29.6766 74.9914L33.388 78.7878Z" fill="black"/>
<path d="M33.3972 78.7886H26.6075L26.0417 72.4561L32.0393 70.9082L33.3972 78.7886Z" fill="black"/>
<path d="M33.1162 6.17687H24.673L28.191 7.72479L33.1162 6.17687Z" fill="black"/>
<path d="M26.6429 6.1748C40.0993 6.17491 50.9967 17.3162 50.9877 31.0554C50.9877 31.4492 50.978 31.843 50.9599 32.2443C50.9556 32.2804 50.957 32.3151 50.9558 32.3494H42.155C42.1886 31.9226 42.2065 31.491 42.2065 31.0554C42.2065 22.2696 35.234 15.1498 26.6429 15.1497C18.0517 15.1497 11.0793 22.2696 11.0793 31.0554C11.0793 39.8412 18.0517 46.9611 26.6429 46.9611C30.849 46.961 34.6664 45.2534 37.4682 42.4803H48.9426C43.0853 60.4168 26.6626 78.7648 26.6429 78.7868C26.6429 78.7868 3.3922 52.8227 2.33412 32.4638C2.32513 32.3882 2.32485 32.3199 2.32485 32.2443C2.30677 31.843 2.29806 31.4492 2.29806 31.0554C2.29809 17.3162 13.1955 6.1748 26.6429 6.1748ZM50.4066 36.8528C50.248 37.6918 50.0614 38.5365 49.8451 39.3843H39.9028C40.3848 38.5846 40.7998 37.7382 41.1391 36.8528H50.4066Z" fill="black"/>
<path d="M20.168 16.5911C17.955 17.6276 16.0206 19.1783 14.5117 21.0945H4.33032C5.01321 19.4993 5.85357 17.9908 6.83393 16.5911H20.168Z" fill="#11B67A"/>
<path d="M22.7355 14.0576H8.86877C9.91072 12.9201 11.056 11.8832 12.2893 10.9616H22.7355V14.0576Z" fill="#11B67A"/>
<path d="M33.3968 6.17687C19.9494 6.17687 9.05216 17.3182 9.05216 31.0574C9.05216 31.4513 9.0612 31.8451 9.07929 32.2465C9.07929 32.3223 9.07929 32.3904 9.08833 32.4662C10.1464 52.8251 33.3972 78.7886 33.3972 78.7886C33.3972 78.7886 56.6472 52.8251 57.7053 32.4662C57.7053 32.3904 57.7053 32.3223 57.7144 32.2465C57.7324 31.8451 57.7415 31.4513 57.7415 31.0574C57.7505 17.3182 46.8533 6.17687 33.3968 6.17687ZM33.3968 46.9628C24.8057 46.9628 17.8332 39.8433 17.8332 31.0574C17.8332 22.2716 24.8057 15.152 33.3968 15.152C41.988 15.152 48.9604 22.2716 48.9604 31.0574C48.9604 39.8433 41.988 46.9628 33.3968 46.9628Z" fill="#11B67A"/>
<path d="M23.1253 60.2134C19.517 54.5845 17.0743 50.2222 15.8078 47.2671C18.5191 52.6144 24.4929 59.8604 30.1613 61.3391C33.3979 62.1834 39.5896 63.1685 45.2184 58.9469C42.404 63.1685 41.1375 65.2793 38.3231 68.7973C36.5219 71.0489 34.852 73.2535 33.3979 74.7076C30.7242 71.3303 27.1681 66.5201 23.1253 60.2134Z" fill="white"/>
<path d="M36.493 7.58219C36.493 7.58219 52.5352 10.3966 55.4903 25.5944C55.4903 25.5944 49.3066 14.6368 42.7864 15.8144C42.7864 15.8144 43.529 10.1351 36.493 7.58219Z" fill="white"/>
</g>
<defs>
<clipPath id="clip0_15980_12036">
<rect width="100" height="100" fill="white"/>
</clipPath>
</defs>
</svg>
