<svg width="100" height="100" viewBox="0 0 100 100" fill="none" xmlns="http://www.w3.org/2000/svg">
<rect width="100" height="100" fill="#6CF479"/>
<path d="M55.3611 6.21156V47.65L91.2863 68.2442C94.7777 62.1681 96.7996 55.154 96.7996 47.65C96.7996 24.763 78.2482 6.21156 55.3611 6.21156Z" fill="#C7FFC6"/>
<path d="M91.5255 24.5025C85.5536 9.34867 72.0882 0.354353 55.3815 0V4.70039C70.5457 4.70039 83.8861 12.6108 91.5255 24.5129V24.5025Z" fill="black"/>
<path d="M47.4509 57.696L16.7159 88.4309C24.4075 95.6014 34.7254 99.9995 46.0751 99.9995C62.0627 99.9995 75.9867 91.2657 83.4281 78.3319L47.4405 57.7064L47.4509 57.696Z" fill="#11B67A"/>
<path d="M46.0854 55.3929V13.8293C22.8024 13.8293 3.84446 32.3078 3.04195 55.3929H46.0854Z" fill="#11B67A"/>
<path d="M65.9186 11.141C65.9186 11.141 87.7739 16.5188 93.9021 43.9082C93.9021 43.9082 87.9302 30.0467 72.9953 29.067C72.9953 29.067 74.569 17.9779 65.9186 11.1305V11.141Z" fill="white"/>
<path d="M35.4753 13.6009C38.8834 12.7671 42.4269 12.319 46.0851 12.319H46.231V6.90987C42.8438 6.87861 39.3107 7.31634 35.788 8.20222L35.4649 13.6009H35.4753Z" fill="black"/>
<path d="M47.6071 51.6208V56.0398L83.5844 76.6652V72.2566L47.6071 51.6208Z" fill="black"/>
<path d="M4.68854 40.354C8.49263 30.8907 15.4442 23.0324 24.2405 18.0611L24.6574 12.6832C15.142 18.0923 7.18986 27.2951 4.68854 40.354Z" fill="black"/>
<path d="M27.4086 16.4459C28.357 16.0082 29.3159 15.5809 30.306 15.2161L30.6187 9.8487C29.6807 10.2135 28.7531 10.6199 27.8255 11.0472L27.4086 16.4459Z" fill="black"/>
<path d="M46.0852 56.9157H3C3 68.8074 7.82546 79.5839 15.6212 87.3797L46.0852 56.9157Z" fill="black"/>
</svg>
