<svg width="100" height="100" viewBox="0 0 100 100" fill="none" xmlns="http://www.w3.org/2000/svg">
<g clip-path="url(#clip0_15980_12050)">
<rect width="100" height="100" fill="#6CF479"/>
<path fill-rule="evenodd" clip-rule="evenodd" d="M52.3186 45.483C50.1984 32.918 52.8328 21.9957 58.1965 21.0954C63.5602 20.1951 69.628 29.6484 71.7481 42.2213C73.8683 54.7863 71.2339 65.7086 65.8702 66.6089C60.5065 67.5092 54.4387 58.0559 52.3186 45.483Z" fill="#6CF479"/>
<path fill-rule="evenodd" clip-rule="evenodd" d="M54.7788 38.1698C53.1966 38.4383 52.4213 41.6526 53.0463 45.3644C53.6713 49.0684 55.4592 51.8641 57.0414 51.5956C58.6236 51.3271 60.6409 47.8995 60.016 44.1956C59.391 40.4916 56.361 37.9092 54.7788 38.1777" fill="#1A1A1A"/>
<path fill-rule="evenodd" clip-rule="evenodd" d="M72.4759 42.1029C70.1975 28.5903 63.6709 18.4182 57.9037 19.3817C52.1365 20.3531 49.3044 32.0968 51.5828 45.6094C53.8612 59.1221 60.3878 69.2942 66.1549 68.3307C71.9221 67.3593 74.7543 55.6156 72.4759 42.1029ZM52.3186 45.483C50.1984 32.918 52.8328 21.9957 58.1965 21.0954C63.5602 20.1951 69.628 29.6484 71.7481 42.2213C73.8683 54.7863 71.2339 65.7086 65.8702 66.6089C60.5065 67.5092 54.4387 58.0559 52.3186 45.483Z" fill="black"/>
<path fill-rule="evenodd" clip-rule="evenodd" d="M75.1418 41.6527C72.3651 25.1863 64.4223 12.7951 57.3894 13.9797L55.5145 14.2956C48.4895 15.4723 45.0402 29.7827 47.817 46.249C50.5938 62.7154 58.5365 75.1066 65.5695 73.922L67.4444 73.6061C74.4694 72.4294 77.9186 58.119 75.1418 41.6527ZM51.108 45.6883C48.6398 31.0621 51.7093 18.3549 57.9511 17.3046C64.1929 16.2542 71.2575 27.2634 73.7178 41.8896C76.1861 56.5158 73.1245 69.223 66.8748 70.2733C60.633 71.3237 53.5684 60.3146 51.1001 45.6883" fill="#11B67A"/>
<path d="M57.2392 25.1546C60.2058 24.4281 63.9082 28.669 66.4398 35.1845C67.6027 35.0581 69.0188 36.7877 69.9523 39.3623C69.9523 39.3386 69.9444 39.3228 69.9364 39.307C67.6343 29.1666 62.3023 21.8219 58.2043 22.817C56.0763 23.3382 54.0906 26.363 53.6159 30.2722C54.2013 27.7687 55.6807 25.5416 57.2313 25.1625L57.2392 25.1546Z" fill="white"/>
<path fill-rule="evenodd" clip-rule="evenodd" d="M23.7515 50.2846C22.9604 45.5856 23.5854 41.3683 25.1359 39.465C24.5031 39.078 23.8702 38.9042 23.2452 39.0069L12.1539 40.8707C9.45621 41.3209 8.10342 46.6438 9.13186 52.7486C10.1603 58.8534 13.1823 63.434 15.88 62.9838L26.9792 61.12C27.6042 61.0173 28.1501 60.6383 28.6168 60.0696C26.5204 58.7744 24.5505 54.9915 23.7594 50.2925" fill="black"/>
<path fill-rule="evenodd" clip-rule="evenodd" d="M98.0207 37.8065C99.595 47.1493 98.0049 55.6313 94.4053 59.58C98.883 56.7448 101.074 47.6942 99.3656 37.5854C97.6647 27.4766 92.6253 19.6343 87.4673 18.4181C92.1665 20.9769 96.4385 28.4716 98.0207 37.8065Z" fill="white"/>
<path fill-rule="evenodd" clip-rule="evenodd" d="M90.6 39.0545C91.6047 45.0171 90.8136 50.3954 88.82 52.8673C91.3199 51.114 92.4512 45.3804 91.3674 38.9281C90.2757 32.468 87.3327 27.4214 84.3898 26.5843C87.0796 28.2665 89.5953 33.0919 90.6 39.0545Z" fill="white"/>
<path fill-rule="evenodd" clip-rule="evenodd" d="M7.78714 53.0645C7.35994 50.5373 7.35203 48.1523 7.66848 46.1858L5.15276 46.6123C1.751 47.1809 -0.54321 50.3952 0.0342981 53.7911C0.603895 57.1871 3.8237 59.4694 7.22546 58.9008L9.40891 58.5375C8.70483 56.9659 8.13523 55.11 7.79505 53.0724" fill="#11B67A"/>
<path fill-rule="evenodd" clip-rule="evenodd" d="M26.3305 78.7553C25.9982 78.4157 25.8084 77.9576 25.8084 77.4838L25.9587 63.0471L16.5682 64.6266L16.0699 83.02C16.0461 84.173 17.0904 85.0654 18.2296 84.8759L26.821 83.4306C28.2924 83.1858 28.8858 81.3931 27.8415 80.319L26.3226 78.7553H26.3305Z" fill="black"/>
<path fill-rule="evenodd" clip-rule="evenodd" d="M46.3456 46.4861C44.7397 36.9538 45.1985 28.148 47.208 22.2012L26.4572 40.3103C23.7675 45.1199 26.0142 56.3896 29.5663 58.7747L55.6095 69.7602C51.5511 64.8716 48.0149 56.4212 46.3377 46.4861" fill="black"/>
<path d="M26.4574 40.3182C23.7677 45.1278 26.0144 56.3976 29.5665 58.7826L55.6176 69.776C51.5513 64.8874 48.023 56.437 46.3458 46.5019C44.7399 36.9696 45.1987 28.1639 47.2081 22.217L26.4574 40.3261V40.3182Z" fill="black"/>
<path d="M47.2081 22.217C45.1987 28.1639 44.7399 36.9696 46.3458 46.5019C46.484 47.3204 46.6361 48.1287 46.7986 48.9258L25.7112 50.6668C24.9997 46.8929 25.0875 42.7678 26.4574 40.3182V40.3261L47.2081 22.217Z" fill="#11B67A"/>
<path d="M51.6691 63.5583C52.8861 65.9954 54.2202 68.096 55.6176 69.776L29.5665 58.7826C28.9536 58.371 28.3795 57.6947 27.863 56.8329L51.6691 63.5583Z" fill="#035D3E"/>
<path d="M23.245 38.9994L12.1537 40.8632C9.456 41.3134 8.10321 46.6363 9.13165 52.7411C10.1601 58.8459 13.1821 63.4265 15.8798 62.9763L26.9711 61.1125C27.5961 61.0098 28.1419 60.6308 28.6087 60.0621C26.5123 58.7669 24.5426 54.9836 23.7515 50.2846C22.9604 45.5935 23.5854 41.3683 25.1359 39.465C24.6296 39.1491 24.1073 38.9757 23.601 38.9757C23.4823 38.9757 23.3639 38.9832 23.2452 39.0069" fill="black"/>
<path d="M26.3333 57.596C26.559 57.9571 26.7919 58.2903 27.0313 58.5922L12.4083 61.0488C12.1693 60.7464 11.9365 60.4131 11.7112 60.0517L26.3333 57.596Z" fill="#035D3E"/>
<path d="M24.5368 53.5758C24.792 54.3848 25.0831 55.144 25.4003 55.8423L10.78 58.297C10.4633 57.5986 10.1723 56.8398 9.91743 56.0314L24.5368 53.5758Z" fill="#035D3E"/>
<path d="M0.0325298 53.8029C0.114547 53.9851 1.23339 56.1229 8.1792 54.9517C8.50442 56.26 8.92022 57.4694 9.40129 58.5378L7.2178 58.9006C3.82395 59.4758 0.61125 57.1977 0.0307003 53.8148L0.0325298 53.8029Z" fill="black"/>
<path d="M0.0342981 53.7911L0.0325298 53.8029C0.0289229 53.7949 0.0261266 53.791 0.0261266 53.791L0.0342981 53.7911Z" fill="black"/>
<path fill-rule="evenodd" clip-rule="evenodd" d="M28.6802 39.5915L43.2287 27.2318C43.2287 27.2318 36.615 33.4709 36.702 36.7405C36.702 36.7405 34.7006 34.9082 28.6802 39.5915Z" fill="#6CF479"/>
<path fill-rule="evenodd" clip-rule="evenodd" d="M1.03114 52.3777C1.03114 52.3777 1.51372 48.6184 6.01511 47.5286C6.01511 47.5286 3.75255 48.6895 4.28259 49.8268C4.28259 49.8268 2.32856 48.8475 1.03114 52.3777Z" fill="#6CF479"/>
<path d="M23.601 38.9757C24.1073 38.9757 24.6296 39.1491 25.1359 39.465C23.5854 41.3683 22.9604 45.5935 23.7515 50.2846C24.5426 54.9836 26.5123 58.7669 28.6087 60.0621C28.2246 60.5301 27.786 60.8668 27.2947 61.0296C25.1212 61.0707 22.6259 56.5345 21.6315 50.6321C20.6396 44.7887 21.4882 39.7261 23.5122 38.978C23.5418 38.9769 23.5714 38.9757 23.601 38.9757Z" fill="#11B67A"/>
</g>
<defs>
<clipPath id="clip0_15980_12050">
<rect width="100" height="100" fill="white"/>
</clipPath>
</defs>
</svg>
