<svg width="100" height="100" viewBox="0 0 100 100" fill="none" xmlns="http://www.w3.org/2000/svg">
<g clip-path="url(#clip0_15980_12078)">
<rect width="100" height="100" fill="#6CF479"/>
<path d="M13.0049 70.5299C13.0049 70.5299 15.5405 52.5207 51.0279 54.2436C80.6422 55.6848 106.226 73.098 98.3588 86.1227C91.9982 96.6443 49.8359 98.7789 29.0636 92.2341C8.29131 85.6892 13.0049 70.5191 13.0049 70.5191V70.5299Z" fill="#C7FFC6"/>
<path d="M83.1235 65.6446C83.1235 65.6446 95.8881 71.5935 97.2859 81.2266C97.2859 81.2266 93.1575 74.6059 84.9222 73.9666C84.9222 73.9666 86.4718 69.4372 83.1235 65.6446Z" fill="white"/>
<path d="M35.8034 93.4694C30.9381 92.1474 25.6393 89.6226 23.3421 85.1366C22.2586 83.0236 21.6192 80.6072 22.1719 78.1258C24.274 68.6011 36.8111 69.2079 36.8111 69.2079C84.4563 71.7652 81.0863 61.5253 81.0863 61.5253C72.6669 57.5702 62.1345 54.7854 51.0386 54.2436C15.5512 52.5207 13.0156 70.5299 13.0156 70.5299C13.0156 70.5299 11.867 74.2466 13.2215 78.7976C6.3082 81.3441 3.42585 83.7496 3.42585 83.7496C3.42585 83.7496 -12.1453 94.6288 25.13 98.6056C66.9131 103.07 86.9052 96.7093 94.8912 89.3734C83.9037 96.265 49.4023 97.1644 35.8142 93.4694H35.8034Z" fill="black"/>
<path d="M85.8109 44.418C85.8109 44.418 83.9796 29.7354 54.6036 31.946C32.2601 33.6363 16.7865 44.6889 20.9583 52.4474C25.1301 60.2058 57.1392 62.9798 73.0029 59.1006C88.8666 55.2213 85.8109 44.418 85.8109 44.418Z" fill="#11B67A"/>
<path d="M75.3759 37.2218C75.3759 37.2218 84.3805 39.9416 83.1127 47.8735C83.1127 47.8735 80.6746 43.2249 73.3713 44.9261C73.3713 44.9261 77.6081 41.9788 75.3868 37.2218H75.3759Z" fill="white"/>
<path d="M20.9692 52.4555C23.028 56.2805 31.8809 58.9028 42.2074 60.0948C42.3808 60.1164 42.5542 60.1381 42.7384 60.1598V60.1164C33.5387 59.3254 30.884 54.3409 31.4149 50.375C32.2601 44.036 43.0635 43.4617 43.0635 43.4617C70.8899 41.5763 73.2521 34.4572 73.4472 33.3952C73.4472 33.3952 67.0865 31.0439 54.6036 31.9541C32.2601 33.5795 16.7865 44.697 20.9583 52.4555H20.9692Z" fill="black"/>
<path d="M74.563 23.1878C74.1512 28.7466 67.3896 35.0531 53.1297 37.3286C40.3542 39.3766 29.3667 37.2852 28.4781 31.8782C27.5896 26.4711 38.1437 19.1569 50.6916 15.9278C65.6884 12.0702 75.0614 16.4046 74.563 23.1878Z" fill="#C7FFC6"/>
<path d="M53.8231 14.9535C48.7953 16.243 41.4486 18.5727 37.9811 20.8699C37.7102 21.7042 37.7861 22.4953 38.2195 23.1888C39.6932 25.5401 46.8232 27.0138 55.3293 24.1748C62.8061 21.6826 68.4082 17.9009 67.9422 15.2678C64.3773 14.1517 60.0321 13.3498 53.8231 14.9427V14.9535Z" fill="black"/>
<path d="M39.2492 10.5552C40.3002 15.0087 45.3931 18.8446 54.5494 17.9886C62.7521 17.2193 69.2428 13.4267 69.0152 8.85399C68.7877 4.28126 61.2026 0.337015 52.9782 0.0986265C43.1501 -0.183105 37.9705 5.12646 39.26 10.5661L39.2492 10.5552Z" fill="#11B67A"/>
<path d="M69.5571 18.64C69.5571 18.64 72.3095 19.5503 72.2011 22.606C72.0927 25.6617 68.9178 29.1833 63.4132 32.1307C63.4132 32.1307 69.9797 25.445 69.5571 18.64Z" fill="white"/>
<path d="M55.4593 2.66564C55.4593 2.66564 60.433 3.2291 64.3556 5.84054C68.2781 8.45198 66.4794 11.2801 64.8865 12.7538C64.8865 12.7538 65.3091 6.85911 58.2117 7.76932C58.2117 7.76932 59.3819 5.04952 55.4593 2.66564Z" fill="white"/>
</g>
<defs>
<clipPath id="clip0_15980_12078">
<rect width="100" height="100" fill="white"/>
</clipPath>
</defs>
</svg>
