<svg width="100" height="100" viewBox="0 0 100 100" fill="none" xmlns="http://www.w3.org/2000/svg">
<rect width="100" height="100" fill="#6CF479"/>
<path d="M99.9921 35.2785L90.0118 35.5195L71.5721 24.8524C70.3761 24.159 68.613 24.4129 67.6645 25.4117L39.3231 55.1978L23.7651 65.5608V71.0046C23.7999 71.6206 24.162 72.2083 24.8128 72.5833L52.1851 88.4172C53.381 89.1105 55.1441 88.8566 56.0926 87.8578L99.3915 42.3513C99.8091 41.9118 100.008 41.4028 99.9998 40.9143V35.2798H99.9933L99.9921 35.2785Z" fill="black"/>
<path d="M56.0911 82.2722C55.1361 83.2775 53.3795 83.5249 52.1835 82.8316L24.8113 66.9977C23.6153 66.3044 23.4168 64.9164 24.3654 63.9188L67.6642 18.411C68.6192 17.4058 70.3758 17.1583 71.5718 17.8517L98.944 33.6856C100.14 34.3789 100.338 35.7669 99.3899 36.7644L56.0911 82.271V82.2722Z" fill="#006A4D"/>
<path d="M85.0141 32.688L80.3707 29.9699C79.89 29.6864 79.7972 29.0291 80.18 28.6245C80.7174 28.0587 81.568 27.9453 82.2394 28.3345L86.8829 31.0525C87.3713 31.336 87.4564 32.001 87.0672 32.4044H87.0607C86.5233 32.9638 85.6804 33.0772 85.0154 32.688H85.0141Z" fill="#6CF479"/>
<path d="M47.3295 69.7804C47.2728 71.4223 45.4118 72.8103 43.1667 72.8734C40.923 72.9366 39.1535 71.6633 39.2167 70.0214C39.2734 68.3795 41.1343 66.9915 43.3794 66.9283C45.6231 66.8652 47.3926 68.1385 47.3295 69.7804Z" fill="#6CF479"/>
<path d="M77.8279 28.0087C78.5934 27.9288 79.1669 27.4107 79.1089 26.8501C79.0509 26.2908 78.382 25.9016 77.6165 25.9815C76.851 26.0614 76.2775 26.5795 76.3355 27.1401C76.3935 27.6994 77.0623 28.0886 77.8279 28.01V28.0087Z" fill="#6CF479"/>
<path d="M6.46963 33.3137C6.46963 33.3137 8.59353 40.3492 17.1935 42.2965C17.1935 42.2965 10.6749 43.4216 10.5473 51.2509C10.5473 51.2509 8.25329 44.4694 0 42.29C0 42.29 6.89493 41.4691 6.46963 33.315V33.3137Z" fill="white"/>
<path d="M54.8813 11.3672C54.8813 11.3672 55.8157 14.4602 59.6021 15.3173C59.6021 15.3173 56.7358 15.8122 56.6714 19.2596C56.6714 19.2596 55.6597 16.2723 52.028 15.3173C52.028 15.3173 55.0643 14.9564 54.8736 11.3672H54.8813Z" fill="white"/>
<path d="M68.8541 45.2377C68.8541 45.2377 70.2279 49.7896 75.798 51.0488C75.798 51.0488 71.5799 51.7782 71.4948 56.8457C71.4948 56.8457 70.0088 52.4574 64.6707 51.0488C64.6707 51.0488 69.1299 50.5178 68.8541 45.2441V45.2364V45.2377Z" fill="white"/>
<path d="M58.2666 29.2705L56.3786 36.1693L60.7449 37.0586L60.098 42.0784L56.7059 45.9962L56.1672 47.3675L52.8435 51.2067L47.5402 49.2491L45.4446 49.7878L38.3744 50.3729L34.838 46.9061L54.0214 28.8362L58.2666 29.2705Z" fill="#006A4D"/>
<path d="M60.7449 37.0586C60.7436 36.949 60.7123 36.8848 60.5989 36.8462C60.4545 36.7985 60.3166 36.7302 60.18 36.6632C59.2791 36.2173 58.5136 35.6012 57.8873 34.8138C57.3988 34.2016 57.0341 33.525 56.8331 32.7646C56.7248 32.3548 56.6797 31.9385 56.7093 31.5158C56.7184 31.3831 56.73 31.249 56.7751 31.1215C56.7828 30.9629 56.8408 30.8173 56.8975 30.673C57.1591 30.017 57.6205 29.553 58.2675 29.2721C58.3113 29.2527 58.4144 29.2205 58.4195 29.2141C58.4337 29.169 58.4015 29.1367 58.3834 29.1019C58.1515 28.6612 57.9053 28.2269 57.645 27.8016C56.8369 26.4806 55.9206 25.2395 54.8935 24.0809C54.8368 24.0165 54.7788 23.9533 54.7246 23.8876C54.7014 23.8592 54.6782 23.8438 54.6499 23.8438C54.6344 23.8438 54.6177 23.8476 54.5996 23.8566C54.5494 23.8811 54.4978 23.9018 54.445 23.9211C54.0532 24.068 53.6549 24.1299 53.2516 24.1299C53.0015 24.1299 52.7502 24.1067 52.4963 24.0641C51.9563 23.9752 51.4447 23.7948 50.9563 23.5499C50.2436 23.1916 49.6172 22.7187 49.0721 22.1374C48.505 21.533 48.0604 20.8525 47.782 20.0689C47.5707 19.4748 47.4804 18.8652 47.5642 18.2363C47.5745 18.1603 47.5552 18.1152 47.4843 18.0752C47.0861 17.8561 46.6853 17.6435 46.278 17.4424C45.0756 16.8457 43.8345 16.3457 42.5509 15.9539C42.2738 15.8688 41.9967 15.7825 41.7132 15.7219C41.7055 15.7219 41.6977 15.7219 41.69 15.7219C41.6732 15.7219 41.6578 15.7193 41.6449 15.7026C41.6384 15.7 41.6333 15.6987 41.6268 15.6987C41.6191 15.6987 41.6114 15.7013 41.6036 15.7077C41.5972 15.9384 41.556 16.1653 41.4786 16.3805C41.3704 16.6795 41.2415 16.9733 41.0276 17.2143C40.8381 17.427 40.6358 17.6254 40.3793 17.7646C40.1731 17.8767 39.9669 17.9798 39.7414 18.0469C39.6782 18.0662 39.5184 18.1074 39.5004 18.11C39.2375 18.1616 38.9745 18.186 38.7116 18.186C38.4242 18.186 38.1368 18.1564 37.8495 18.0984C37.0994 17.9476 36.4125 17.6435 35.7745 17.2246C35.0348 16.7388 34.4097 16.1356 33.911 15.4036C33.8646 15.3366 33.8478 15.3147 33.8066 15.3147C33.786 15.3147 33.7589 15.3198 33.7177 15.3288C33.148 15.4423 32.5874 15.5905 32.0371 15.776C31.202 16.0583 30.4081 16.4282 29.6567 16.8895C29.4866 16.9939 29.3139 17.097 29.158 17.2246C29.1606 17.2736 29.2057 17.2968 29.2276 17.3342C29.3461 17.5417 29.4943 17.7311 29.6052 17.9463C29.6877 18.1074 29.7495 18.2776 29.8346 18.4374C29.9248 18.6062 29.9776 18.7853 30.0253 18.9683C30.0356 19.0109 30.0794 19.0418 30.0691 19.0908C30.1194 19.2196 30.1323 19.3563 30.1594 19.489C30.2212 19.7931 30.207 20.1012 30.2032 20.4092C30.2019 20.5613 30.1709 20.712 30.131 20.8564C30.0215 21.2611 29.8513 21.6335 29.5691 21.9544C29.2765 22.2856 28.9196 22.5099 28.5136 22.6697C28.2984 22.7547 28.0741 22.805 27.8486 22.8385C27.7481 22.854 27.645 22.8694 27.5393 22.8694C27.5238 22.8694 27.5096 22.8694 27.4942 22.8694C27.4504 22.8669 27.4065 22.8669 27.3627 22.8669C27.288 22.8669 27.2119 22.8682 27.1359 22.8682C27.0251 22.8682 26.9142 22.8643 26.8047 22.8437C26.7093 22.8153 26.6101 22.8205 26.5134 22.8011C26.3291 22.7741 26.15 22.7251 25.9708 22.6761C25.7453 22.613 25.5288 22.5228 25.3084 22.4442C25.3071 22.4442 25.3046 22.4442 25.3033 22.4442C25.2878 22.4442 25.2736 22.4403 25.2633 22.4261C25.2569 22.4222 25.2504 22.421 25.244 22.421C25.2362 22.421 25.2285 22.4235 25.2221 22.43C25.1808 22.5601 25.1396 22.6916 25.0971 22.8218C24.972 23.1981 24.8844 23.5847 24.7994 23.9713C24.7426 24.2304 24.7014 24.4933 24.664 24.7575C24.6421 24.9147 24.6267 25.0732 24.6125 25.2318C24.5957 25.4122 24.5867 25.5939 24.5661 25.773C24.539 26.0179 24.5558 26.2628 24.5493 26.5076C24.5455 26.6597 24.5493 26.8131 24.5493 26.9652C24.5493 27.1765 24.5429 27.3879 24.5725 27.5992C25.1422 27.8067 25.6654 28.0993 26.1526 28.4601C26.467 28.6921 26.7634 28.946 27.0302 29.2321C27.2222 29.4383 27.413 29.6458 27.5663 29.8842C27.605 29.8984 27.6166 29.9371 27.6372 29.9667C27.7983 30.2064 27.9568 30.4474 28.0857 30.7052C28.2636 31.0596 28.4053 31.4295 28.4956 31.8161C28.5033 31.8483 28.5407 31.9875 28.5484 32.0262C28.569 32.128 28.5832 32.2311 28.5883 32.3329C28.5961 32.4914 28.6322 32.6499 28.6154 32.8097C28.5883 33.0817 28.569 33.3523 28.4865 33.6178C28.404 33.8833 28.2945 34.1333 28.1386 34.3601C27.9878 34.5767 27.8086 34.77 27.5947 34.9285C27.3962 35.0754 27.181 35.1888 26.9542 35.2842C26.9181 35.2997 26.8588 35.2932 26.8511 35.3525C26.9245 35.4865 27.0006 35.618 27.0715 35.7533C27.1746 35.9518 27.2841 36.1451 27.4014 36.3358C27.4723 36.4492 27.5212 36.573 27.5895 36.6877C27.6798 36.8372 27.7829 36.9763 27.8756 37.1233C28.0264 37.3617 28.1759 37.6014 28.3435 37.8295C28.3744 37.8708 28.4002 37.9146 28.4208 37.9648C28.4543 38.0473 28.5252 38.1066 28.5755 38.1788C28.6734 38.318 28.7636 38.4623 28.8667 38.5976C28.926 38.6762 28.9853 38.7561 29.0433 38.836C29.1966 39.0126 29.3294 39.2046 29.475 39.3863C29.5833 39.5204 29.6915 39.6557 29.8011 39.7897C29.8836 39.8903 29.966 39.9895 30.0421 40.0939C30.1258 40.2099 30.2431 40.2988 30.3333 40.4109C30.421 40.5205 30.5151 40.6249 30.6066 40.7318C30.6646 40.7292 30.7109 40.6944 30.7625 40.6738C31.0937 40.5424 31.4339 40.4599 31.7909 40.4431C31.8541 40.4406 31.9172 40.429 31.9804 40.429C32.0062 40.429 32.0319 40.4303 32.0577 40.4354C32.1015 40.429 32.1453 40.4264 32.1892 40.4264C32.3013 40.4264 32.4134 40.4431 32.5243 40.4534C32.9276 40.4947 33.322 40.5888 33.7048 40.7254C34.3504 40.9561 34.942 41.2899 35.4807 41.7139C35.8403 41.9974 36.174 42.3067 36.4666 42.6624C36.58 42.8003 36.696 42.9343 36.7952 43.0825C36.8635 43.1367 36.8983 43.2166 36.9447 43.2862C37.2192 43.7012 37.4396 44.1432 37.5917 44.6175C37.6342 44.7502 37.7244 45.1046 37.7335 45.1484C37.8056 45.4964 37.8082 45.8482 37.7979 46.2001C37.7953 46.2916 37.7708 46.3831 37.7773 46.4759C38.0453 46.6292 38.316 46.7762 38.5905 46.9179C39.0661 47.1641 39.5481 47.3974 40.0378 47.6139C40.6706 47.8935 41.3124 48.1474 41.9671 48.3717C42.4852 48.5495 43.6631 48.9104 43.743 48.9104C43.7907 48.8086 43.7868 48.6951 43.8074 48.5869C43.9531 47.7878 44.3655 47.1744 45.0704 46.7646C45.4055 46.57 45.7702 46.4656 46.1517 46.4063C46.269 46.3805 46.47 46.3702 46.6621 46.3702C46.8348 46.3702 47.001 46.3792 47.0938 46.3934C47.4908 46.4321 47.8787 46.521 48.255 46.6524C48.9252 46.887 49.5335 47.2337 50.0915 47.6719C50.3737 47.8922 50.6405 48.1307 50.8776 48.3987C51.0246 48.5637 51.4756 49.1488 51.5439 49.248C51.5452 49.248 51.5478 49.248 51.5491 49.248C51.6934 49.248 52.9229 48.9258 53.4243 48.7506C53.7503 48.6371 54.0712 48.5057 54.3857 48.3626C54.9631 48.0997 56.1565 47.3716 56.1681 47.3651C56.2402 47.311 56.2402 47.311 56.199 47.2466C56.1835 47.2221 56.1642 47.1976 56.1474 47.1744C55.8587 46.7671 55.6216 46.3328 55.4463 45.865C55.4347 45.8341 55.4244 45.8018 55.4128 45.7709C55.3935 45.7129 55.3729 45.6614 55.3523 45.5918C55.2814 45.3392 55.2144 45.0879 55.1963 44.825C55.1486 44.5749 55.1564 44.3236 55.177 44.071C55.1912 43.897 55.2221 43.7256 55.2698 43.5568C55.5069 42.7256 56.0314 42.1508 56.8356 41.8363C57.1772 41.7023 57.5329 41.6301 57.9014 41.6301C57.9195 41.6301 57.9375 41.6301 57.9569 41.6301C58.0149 41.6275 58.0729 41.6249 58.1296 41.6249C58.493 41.6249 58.85 41.6829 59.2031 41.7719C59.4673 41.8389 59.7225 41.9278 59.9738 42.0309C60.015 42.0477 60.0537 42.0696 60.0988 42.076C60.1323 42.0515 60.1336 42.0116 60.1452 41.9781C60.2599 41.6365 60.3566 41.2886 60.4378 40.9367C60.6697 39.9354 60.7715 38.9198 60.7703 37.8927C60.7703 37.613 60.7509 37.3346 60.7458 37.0562L60.7449 37.0586ZM51.8094 35.2365C51.8017 35.4324 51.7914 35.6283 51.7708 35.8229C51.7489 36.033 51.7192 36.2405 51.6793 36.4479C51.6548 36.5755 51.6238 36.7005 51.5852 36.8243C51.5414 36.966 51.5079 37.1104 51.4589 37.2509C51.3261 37.631 51.1586 37.9945 50.9421 38.3334C50.7733 38.5989 50.5851 38.8515 50.3737 39.0873C50.0129 39.4894 49.5979 39.8194 49.1327 40.09C48.862 40.2472 48.5811 40.38 48.2911 40.4998C48.2589 40.5127 48.1519 40.5591 48.139 40.5591C47.898 40.6352 47.657 40.7125 47.4109 40.7692C46.8361 40.9032 46.2535 40.9651 45.6671 40.9651C45.5357 40.9651 45.4029 40.9625 45.2715 40.9561C44.0897 40.9007 42.9543 40.6313 41.855 40.1996C40.6126 39.7111 39.4759 39.041 38.4268 38.2187C37.2734 37.314 36.2746 36.2624 35.4523 35.0483C34.7293 33.9799 34.1739 32.8342 33.8401 31.5841C33.612 30.7297 33.5089 29.861 33.5578 28.9769C33.5733 28.6908 33.612 28.4073 33.6661 28.1251C33.6738 28.0851 33.7073 27.9317 33.7164 27.8944C33.7963 27.5541 33.9007 27.2203 34.0437 26.9007C34.2783 26.3736 34.5824 25.8929 34.969 25.4625C35.4343 24.9431 35.9846 24.5384 36.6097 24.233C37.1819 23.9533 37.7837 23.7703 38.4114 23.6698C38.5583 23.6466 38.7039 23.6234 38.8521 23.6131C39.1305 23.5808 39.4089 23.5628 39.6885 23.5628C39.7736 23.5628 39.8587 23.5641 39.9424 23.568C40.4734 23.5899 41.0005 23.6504 41.5237 23.7523C42.2738 23.8992 43.0007 24.1247 43.7069 24.416C44.3925 24.6995 45.0485 25.041 45.6775 25.4341C46.287 25.8156 46.8644 26.2409 47.4109 26.7074C47.907 27.1301 48.3723 27.5864 48.8027 28.0748C49.0231 28.3248 49.2396 28.5787 49.4407 28.8455C49.4793 28.8957 49.5863 29.0349 49.6043 29.0594C49.7822 29.3107 49.9639 29.5582 50.1147 29.8275C50.1946 29.9693 50.3029 30.0943 50.375 30.2412C50.5245 30.5441 50.7178 30.8225 50.8441 31.1369C50.8905 31.2542 50.9537 31.365 51.0014 31.481C51.1805 31.9153 51.3532 32.3522 51.4718 32.8085C51.4756 32.8226 51.4756 32.8381 51.4769 32.8523C51.5414 32.9747 51.5594 33.1113 51.5878 33.2441C51.6342 33.4567 51.6728 33.6719 51.7141 33.8859C51.7308 33.9696 51.7347 34.0547 51.7424 34.1385C51.7592 34.3369 51.7888 34.5354 51.7978 34.7352C51.8056 34.9014 51.8172 35.069 51.8107 35.2352L51.8094 35.2365Z" fill="#C7FFC6"/>
<path d="M34.8953 27.6929C34.9107 27.6916 34.9262 27.689 34.9417 27.6877C34.9726 27.6929 35.0022 27.6838 35.0293 27.6709C35.0448 27.6697 35.0602 27.6671 35.0757 27.6658C35.1208 27.6709 35.1633 27.6606 35.2046 27.6477C35.2213 27.6465 35.2368 27.6452 35.2535 27.6439C35.2986 27.6477 35.3412 27.6374 35.3837 27.6258C35.4069 27.6245 35.4301 27.6233 35.4546 27.622C35.5203 27.6271 35.5848 27.6155 35.6492 27.6026C35.7871 27.5975 35.9237 27.5885 36.0616 27.5859C36.8851 27.5717 37.6958 27.6709 38.4961 27.8617C39.3132 28.0563 40.098 28.3424 40.8558 28.7032C41.5569 29.037 42.2219 29.4288 42.8573 29.8747C43.6886 30.4598 44.4502 31.1236 45.141 31.8685C45.8034 32.5837 46.386 33.3583 46.8808 34.1999C47.0174 34.4331 47.1412 34.6741 47.2688 34.9126C47.2778 34.937 47.2855 34.9615 47.2971 34.9847C47.4311 35.2373 47.5407 35.5002 47.6489 35.7644C47.7791 36.084 47.8848 36.4114 47.9905 36.74C47.9866 36.7619 47.9892 36.7838 47.9956 36.8058C48.1786 37.405 48.283 38.0198 48.3217 38.6435C48.3449 39.0237 48.3423 39.4026 48.3062 39.779C48.4854 39.6965 48.6516 39.6127 48.805 39.5238C49.2238 39.2802 49.5782 38.9941 49.8863 38.65C50.0667 38.4489 50.2304 38.2311 50.3902 37.9811C50.5706 37.6976 50.7188 37.3883 50.8412 37.0352C50.8631 36.9733 50.8825 36.9024 50.9031 36.8277C50.9211 36.7645 50.9392 36.6988 50.9611 36.6292C50.9907 36.5364 51.0152 36.4359 51.0371 36.3238C51.0719 36.1459 51.099 35.959 51.1209 35.7554C51.1389 35.5879 51.148 35.4165 51.1557 35.2103C51.1596 35.102 51.1544 34.9821 51.148 34.8558L51.1441 34.7682C51.1389 34.6625 51.1273 34.5517 51.1145 34.4344C51.1054 34.3558 51.0977 34.2772 51.09 34.1973L51.0848 34.1419C51.0809 34.0903 51.0771 34.0426 51.0706 34.0117C51.0603 33.955 51.0487 33.8996 51.0384 33.8429C51.0088 33.6844 50.9791 33.5336 50.9469 33.3841C50.9405 33.3544 50.934 33.3235 50.9289 33.2939C50.9198 33.2449 50.9057 33.1779 50.8979 33.1598L50.8399 33.0503L50.8271 32.9317C50.7162 32.5193 50.5538 32.1133 50.3966 31.7306C50.3811 31.6919 50.3592 31.6481 50.336 31.6004C50.3051 31.536 50.269 31.4625 50.2368 31.38C50.1775 31.2331 50.0912 31.081 49.9997 30.9199C49.9288 30.7962 49.8566 30.6686 49.7883 30.5294C49.769 30.4895 49.7316 30.4354 49.6917 30.3787C49.6453 30.3116 49.5937 30.2356 49.5447 30.148C49.4262 29.9366 49.2805 29.7317 49.1259 29.5139L49.0743 29.4417C49.0614 29.425 49.0318 29.385 49.0009 29.3463C48.9686 29.3051 48.9364 29.2639 48.9197 29.2394C48.7199 28.9739 48.5021 28.7213 48.314 28.5086C47.9119 28.0524 47.4646 27.6142 46.9878 27.2057C46.4671 26.7611 45.9091 26.3512 45.3317 25.9891C44.7286 25.6102 44.0984 25.2854 43.4591 25.0212C42.78 24.7403 42.0866 24.5302 41.401 24.3949C40.9241 24.3021 40.4254 24.2428 39.9189 24.2222C39.8441 24.2196 39.7681 24.217 39.6921 24.217C39.4511 24.217 39.201 24.2325 38.9304 24.2634H38.9175L38.9046 24.266C38.7822 24.275 38.652 24.2944 38.5193 24.3163C37.9406 24.4091 37.3955 24.5792 36.9019 24.8215C36.3348 25.0986 35.8631 25.4517 35.461 25.9002C35.1311 26.2675 34.8579 26.6928 34.6478 27.167C34.5602 27.3642 34.4854 27.573 34.4223 27.8011C34.5524 27.7689 34.6826 27.738 34.8128 27.7109C34.8437 27.716 34.8721 27.707 34.9004 27.6941L34.8953 27.6929ZM35.5229 27.5472C35.51 27.5614 35.4997 27.5769 35.5023 27.6001C35.5358 27.6001 35.568 27.6001 35.6015 27.6013C35.568 27.6013 35.5358 27.6013 35.5023 27.6013C35.4997 27.5794 35.51 27.5627 35.5229 27.5485V27.5472ZM25.9009 21.548C26.0156 21.7129 26.1174 21.8856 26.2102 22.0622C26.3404 22.0983 26.4796 22.1344 26.6072 22.1524L26.6239 22.155L26.6368 22.1576C26.6471 22.1589 26.6755 22.1614 26.6961 22.164C26.7605 22.1705 26.8469 22.1782 26.9448 22.2027C27.0054 22.2117 27.075 22.213 27.1369 22.213C27.1717 22.213 27.2064 22.213 27.2412 22.213C27.2812 22.213 27.3224 22.213 27.3624 22.213C27.423 22.213 27.4745 22.213 27.5248 22.2169C27.5299 22.2169 27.5338 22.2169 27.539 22.2169C27.5918 22.2169 27.664 22.2065 27.7413 22.195H27.7516C27.9604 22.1627 28.1266 22.1202 28.2736 22.0622C28.6177 21.9269 28.8728 21.7568 29.0777 21.5235C29.2698 21.307 29.4038 21.0402 29.4992 20.6871C29.5314 20.5685 29.5469 20.4783 29.5481 20.4036C29.5481 20.3623 29.5481 20.3224 29.5494 20.2811C29.5533 20.0427 29.5572 19.8172 29.5172 19.6226C29.5082 19.5787 29.5005 19.5349 29.4927 19.4924C29.4811 19.428 29.4695 19.3622 29.4579 19.33L29.3896 19.1534L29.3922 19.1406C29.3922 19.1406 29.3909 19.1354 29.3896 19.1328C29.3497 18.9769 29.3123 18.8532 29.2569 18.7501C29.1989 18.6431 29.1525 18.5361 29.1113 18.442C29.0803 18.3725 29.0507 18.3054 29.021 18.2474C28.9746 18.1572 28.9115 18.0606 28.8445 17.9588C28.7981 17.8879 28.7504 17.8157 28.7027 17.7371C27.8715 18.7075 27.0402 19.6793 26.2089 20.651C26.0569 20.8289 25.9061 21.0093 25.7514 21.1858C25.7102 21.2322 25.7037 21.2696 25.7437 21.3212C25.8004 21.3946 25.8481 21.4745 25.9009 21.5506V21.548ZM53.6404 49.3713C53.2654 49.5014 51.8594 49.9048 51.5501 49.9048C51.5281 49.9048 51.5088 49.9048 51.4921 49.9023L51.184 49.8765L51.0075 49.6239C50.9546 49.5478 50.519 48.9821 50.3889 48.8352C50.2007 48.6225 49.9726 48.4111 49.6891 48.1895C49.1723 47.7848 48.6181 47.4768 48.0407 47.2732C47.7057 47.1559 47.3667 47.0798 47.0329 47.0476H47.0149L46.9968 47.0425C46.9582 47.036 46.8344 47.027 46.6643 47.027C46.4401 47.027 46.3202 47.0425 46.2919 47.0489L46.2725 47.0528L46.2532 47.0554C45.9052 47.1095 45.6346 47.1971 45.4013 47.3324C44.8691 47.6418 44.5675 48.0786 44.4528 48.7063C44.4502 48.7179 44.4476 48.7424 44.4451 48.7643C44.4335 48.8661 44.4154 49.022 44.3381 49.1896L44.1667 49.5569L43.7607 49.5672H43.744C43.6434 49.5672 43.588 49.5672 42.8289 49.3352C42.4307 49.2141 42.0093 49.0787 41.7554 48.9924C41.1059 48.7694 40.4383 48.5078 39.7733 48.2153C39.2913 48.0026 38.7925 47.7629 38.2899 47.5013C37.9767 47.3389 37.7035 47.1894 37.4522 47.0463L37.1493 46.8724L37.1248 46.5231C37.1171 46.4045 37.1287 46.3053 37.139 46.2331C37.1416 46.2151 37.1442 46.1906 37.1442 46.1829C37.1519 45.8864 37.1519 45.572 37.0939 45.2846C37.0797 45.224 37.0011 44.9199 36.9689 44.818C36.84 44.4172 36.6531 44.0345 36.398 43.6466C36.3812 43.6208 36.3645 43.5937 36.3477 43.5667C36.3477 43.5667 36.3464 43.5641 36.3451 43.5628L36.3078 43.5331L36.2498 43.4455C36.1866 43.3514 36.1067 43.2548 36.0216 43.1517L35.9598 43.0769C35.7188 42.7844 35.4301 42.506 35.0744 42.2276C34.5834 41.841 34.0485 41.5433 33.4828 41.3409C33.1387 41.2172 32.7933 41.1373 32.4569 41.1038C32.4286 41.1012 32.4002 41.0974 32.3718 41.0948C32.3022 41.0871 32.2365 41.0793 32.1863 41.0793C32.1708 41.0793 32.1566 41.0793 32.1463 41.0819L32.0381 41.0974L31.9633 41.0832C31.9543 41.0832 31.9453 41.0858 31.9362 41.0858C31.9053 41.0896 31.8654 41.0935 31.8215 41.0948C31.5548 41.1077 31.2906 41.1682 31.0122 41.2765L31.007 41.2791C30.9439 41.3113 30.8124 41.377 30.632 41.3835L30.315 41.3964L30.1088 41.1554C30.0817 41.1244 30.0559 41.0935 30.0289 41.0626C29.9618 40.9852 29.8923 40.9053 29.8227 40.819C29.8046 40.7958 29.7711 40.7636 29.7376 40.7288C29.6719 40.6631 29.5894 40.5806 29.5121 40.4749C29.4528 40.3924 29.3832 40.3086 29.311 40.221L29.2955 40.2017C29.2195 40.1089 29.1448 40.0161 29.07 39.9233L28.9656 39.7944C28.8999 39.7132 28.8393 39.6333 28.78 39.5547C28.7001 39.4503 28.6254 39.3511 28.5494 39.2622L28.5326 39.2428L28.5171 39.2222L28.463 39.1487C28.4231 39.0946 28.3844 39.0418 28.3431 38.9876C28.2697 38.8897 28.204 38.7943 28.1421 38.7015C28.1086 38.6513 28.0751 38.601 28.0416 38.5546C28.0338 38.5456 28.0261 38.5366 28.0184 38.5276C27.9655 38.4657 27.8792 38.3639 27.8173 38.217C27.8173 38.2157 27.8148 38.2144 27.8148 38.2131C27.6459 37.9824 27.4977 37.7478 27.3534 37.5197L27.3224 37.4695C27.2876 37.4153 27.249 37.3586 27.209 37.2994C27.1497 37.2117 27.0879 37.1215 27.0286 37.0223C26.9822 36.9449 26.9448 36.8715 26.9126 36.807C26.8881 36.7568 26.8636 36.7104 26.843 36.6769C26.7193 36.4771 26.6007 36.267 26.4899 36.0518C26.4461 35.9681 26.3997 35.883 26.3494 35.7941C26.3262 35.7515 26.3017 35.709 26.2785 35.6665L26.1716 35.4732L26.2038 35.2554C26.2205 35.1445 26.3069 34.7837 26.7373 34.6638C26.9203 34.5839 27.0737 34.4976 27.2065 34.4009C27.3534 34.2927 27.4861 34.1535 27.6008 33.9859C27.7065 33.8326 27.7916 33.6483 27.8624 33.4214C27.9153 33.25 27.9346 33.049 27.9552 32.8363L27.9642 32.7435C27.9681 32.7087 27.9604 32.6404 27.9526 32.5734C27.9462 32.5103 27.9372 32.4394 27.9346 32.3608C27.932 32.3041 27.923 32.2345 27.9075 32.1559C27.9024 32.1327 27.8908 32.0889 27.8818 32.0528C27.8715 32.0115 27.8624 31.9754 27.8586 31.9613C27.7851 31.6442 27.6691 31.3285 27.5016 30.996C27.4023 30.7988 27.2786 30.6029 27.1613 30.4276L27.1356 30.4186L27.0183 30.2382C26.8959 30.05 26.7348 29.8722 26.5518 29.6763C26.3301 29.4391 26.0723 29.2123 25.7643 28.9842C25.3055 28.6453 24.8428 28.3927 24.3492 28.2122L23.9807 28.0769L23.9265 27.6877C23.8956 27.4699 23.8969 27.2624 23.8969 27.0794C23.8969 27.042 23.8969 27.0034 23.8969 26.966V26.8526C23.8956 26.7353 23.8943 26.6129 23.8969 26.4878C23.8995 26.4144 23.8982 26.3371 23.8969 26.2546C23.8969 26.087 23.8943 25.8963 23.9175 25.6991C23.9291 25.5999 23.9368 25.4981 23.9446 25.3898C23.9497 25.3176 23.9562 25.2442 23.9626 25.172C23.9755 25.0341 23.9923 24.8524 24.018 24.6668C24.0528 24.4207 24.0966 24.1294 24.1611 23.8304C24.1791 23.7479 24.1972 23.6693 24.2152 23.5894C23.4381 24.4967 22.661 25.4053 21.8838 26.3126C21.8168 26.3899 21.7665 26.4737 21.7369 26.5716C21.6957 26.7108 21.6467 26.8474 21.6054 26.9866C21.3451 27.8746 21.1879 28.7819 21.126 29.7059C21.0861 30.3052 21.0874 30.9032 21.1131 31.5025C21.1144 31.545 21.108 31.5914 21.1492 31.6223C21.3954 31.7267 21.6428 31.8298 21.8787 31.9574C22.7267 32.4149 23.4458 33.0232 24.0361 33.7836C24.3544 34.1947 24.616 34.6393 24.8145 35.12C24.9008 35.3301 24.9653 35.5479 25.0349 35.7631C25.0349 35.8237 25.0542 35.8791 25.0722 35.9345C25.1096 36.1755 25.1509 36.414 25.1573 36.6588C25.1625 36.8741 25.1405 37.0854 25.1174 37.2981C25.098 37.3561 25.0555 37.3999 25.0168 37.445C24.5 38.0456 23.9832 38.6474 23.4677 39.248C23.4145 39.3098 23.4067 39.3769 23.4445 39.449C23.7525 40.0316 24.0812 40.6012 24.433 41.1579C24.7861 41.7173 25.1599 42.2624 25.5542 42.7921C25.5826 42.8308 25.6071 42.8733 25.647 42.9016C25.6586 42.9197 25.6702 42.939 25.6831 42.9571C25.9589 43.3192 26.2347 43.6814 26.5324 44.0255C26.7219 44.2445 26.91 44.4636 27.1008 44.6814C27.1278 44.7124 27.1497 44.7639 27.2077 44.7278C27.4745 44.6157 27.7503 44.5345 28.0351 44.4855C28.0738 44.4894 28.1099 44.4791 28.146 44.4688C28.329 44.4598 28.512 44.4508 28.695 44.4417C28.8432 44.4533 28.9927 44.4572 29.1396 44.4765C29.8497 44.5667 30.5134 44.7987 31.1372 45.1454C32.0097 45.63 32.7417 46.2744 33.3281 47.0811C33.6877 47.5747 33.9673 48.1096 34.1478 48.6947C34.2689 49.0877 34.3372 49.4898 34.3411 49.9023C34.3308 49.9319 34.3359 49.9628 34.3411 49.9925C34.3321 50.1072 34.3205 50.2219 34.314 50.3366C34.3114 50.383 34.2818 50.4281 34.3076 50.4758C34.3334 50.5157 34.3785 50.5273 34.4158 50.5492C34.9352 50.8405 35.4636 51.1124 36.001 51.365C37.3491 51.9991 38.741 52.5133 40.1818 52.8922C40.2682 52.9154 40.3158 52.8922 40.37 52.8291C40.9821 52.1189 41.5969 51.4114 42.2116 50.7039C42.2877 50.6175 42.3534 50.5209 42.4462 50.4513C42.6434 50.4203 42.8405 50.3868 43.0403 50.3843C43.1846 50.383 43.3277 50.3843 43.472 50.3843C43.8844 50.4178 44.2891 50.4938 44.6809 50.6265C45.8808 51.0325 46.868 51.7452 47.6747 52.7169C47.8165 52.8883 47.9376 53.0765 48.0755 53.2505C48.0742 53.2582 48.0755 53.2647 48.0755 53.2724H48.1206C48.1206 53.2647 48.1206 53.2582 48.1219 53.2505C48.1619 53.2427 48.2018 53.235 48.2405 53.2273C48.6555 53.1396 49.0666 53.0378 49.4713 52.9077C49.8811 52.7762 50.2858 52.637 50.6776 52.4553C50.9224 52.3419 51.1699 52.2336 51.4109 52.1151C51.8426 51.9024 52.2486 51.6485 52.6455 51.3779C52.7164 51.3289 52.7808 51.2761 52.8375 51.2104C53.5245 50.4203 54.2114 49.6316 54.8983 48.8429C54.8094 48.888 54.7256 48.9292 54.6508 48.9627C54.3055 49.12 53.9626 49.2579 53.634 49.3726L53.6404 49.3713ZM58.1292 42.283C58.0828 42.283 58.0364 42.283 57.9901 42.2869H57.9437C57.9295 42.2869 57.9153 42.2869 57.9011 42.2869C57.6266 42.2869 57.3482 42.341 57.0737 42.448C56.4551 42.6903 56.0814 43.1014 55.8984 43.7393C55.8636 43.8631 55.8391 43.9932 55.8288 44.1273C55.8133 44.3077 55.803 44.5178 55.8391 44.7059L55.8468 44.7446L55.8494 44.7833C55.8623 44.9817 55.919 45.1957 55.9821 45.4147C55.9899 45.4405 55.9976 45.4637 56.0092 45.4959C56.0169 45.5179 56.0247 45.5398 56.0324 45.5617C56.0414 45.5874 56.0492 45.6119 56.0595 45.6377C56.093 45.7292 56.1304 45.8194 56.1703 45.9084C56.285 45.9483 56.3997 45.9908 56.5131 46.0372C56.6278 46.0849 56.6278 46.0862 56.7077 45.996C57.6266 44.9405 58.5455 43.885 59.4644 42.8295C59.5276 42.7573 59.5907 42.6838 59.6526 42.6104C59.4399 42.5253 59.2389 42.4583 59.043 42.408C58.7027 42.3217 58.4037 42.2805 58.1292 42.2805V42.283Z" fill="black"/>
<path d="M42.1414 16.6712L47.0374 18.7835C47.0374 18.7835 46.8054 20.0439 47.5014 21.4345C48.1973 22.8263 50.2735 24.717 51.811 24.8897C53.413 25.0701 54.5355 24.677 54.5355 24.677L57.3798 28.8256C57.3798 28.8256 55.4312 29.5821 55.9055 32.9032C56.421 36.5157 59.9548 37.1974 59.9458 37.5583C59.9367 37.9191 59.7125 40.5856 59.505 40.9362C59.4522 41.0264 57.4997 40.2931 55.8152 41.5715C52.7415 43.9068 54.9775 47.0514 54.9775 47.0514L51.811 48.3814C51.811 48.3814 53.8821 45.0821 51.9232 42.6322C50.6808 41.0779 48.6407 41.2068 48.7154 41.1746C55.1038 38.4269 52.4528 31.8426 52.4528 31.8426C52.4528 31.8426 50.0931 25.9065 45.0566 23.6834C37.3858 20.2965 34.4165 23.5867 34.4165 23.5867C33.8687 21.2502 30.8389 21.6407 30.8389 21.6407C31.7217 19.5567 30.3504 17.4457 30.3504 17.4457L33.2553 16.1866C33.2553 16.1866 37.159 21.2373 41.3179 18.063C42.2458 17.3555 42.1414 16.6686 42.1414 16.6686V16.6712Z" fill="white"/>
<path d="M48.2444 53.2258L33.5447 54.271L37.8131 49.7371L47.7907 50.0967L48.2444 53.2258Z" fill="black"/>
</svg>
