<svg width="100" height="100" viewBox="0 0 100 100" fill="none" xmlns="http://www.w3.org/2000/svg">
<rect width="100" height="100" fill="#6CF479"/>
<path d="M93.6322 32.0515C93.5346 31.3494 93.0755 30.7324 92.3422 30.3066H92.3381L63.4307 13.4308C62.8117 13.0735 62.0847 12.9032 61.3514 12.9032C60.1985 12.9032 59.0331 13.327 58.2687 14.1288L47.953 24.9182V24.9265C49.8765 27.2696 51.4428 29.9639 52.4399 32.8305C54.6397 39.1537 54.0747 44.5089 51.0253 47.3423L50.9754 47.388L46.9559 50.7636C45.3522 52.0598 43.2583 52.7972 40.7552 52.7972H40.7012C34.2887 52.7972 28.8379 52.2177 24.5172 49.4341L11.5509 62.9966C10.9941 63.5804 10.7386 64.2742 10.8384 64.9534C10.9401 65.6597 11.3992 66.2767 12.1325 66.7025L41.044 83.5803C42.6372 84.5026 44.9513 84.1869 46.2018 82.8782L92.9155 34.0125C93.4723 33.4329 93.7278 32.7349 93.6281 32.0557H93.6322V32.0515Z" fill="#11B67A"/>
<path d="M27.2997 46.5258L24.5244 49.4319C28.8452 52.2155 34.2938 52.793 40.7043 52.7971C36.1717 52.7743 31.2839 50.3355 27.3017 46.5279L27.2997 46.5258Z" fill="#006A4D"/>
<path d="M24.3265 32.4649C27.6023 41.8749 36.7776 49.5048 44.8188 49.5089C47.3177 49.5089 49.3742 48.6863 50.9779 47.3859L46.9584 50.7615C45.3547 52.0577 43.2608 52.7952 40.7577 52.7952C32.7166 52.791 23.5433 45.1612 20.2654 35.7511C20.2384 35.6722 20.2114 35.5953 20.1885 35.5206L24.2932 32.361C24.3036 32.3943 24.3161 32.4296 24.3265 32.4628V32.467V32.4649Z" fill="black"/>
<path d="M94.882 38.5595L94.3773 33.921C94.2111 34.2284 94.0013 34.5234 93.7395 34.7976L47.0258 83.6633C46.0516 84.6833 44.5684 85.2296 43.0998 85.2296C42.1733 85.2296 41.2572 85.0136 40.4762 84.5628L11.5647 67.685C10.6237 67.1428 10.0026 66.3451 9.77826 65.4207L10.3994 71.1395C10.4949 72.0119 11.0329 72.8387 11.9802 73.385L41.4338 90.5744C43.2473 91.6214 45.8667 91.2641 47.2896 89.7747L94.0033 40.9089C94.6826 40.2006 94.9672 39.3613 94.88 38.5657V38.5616L94.882 38.5595Z" fill="#024731"/>
<path d="M28.3235 80.4665C28.4897 79.9928 28.1822 79.3468 27.638 79.029L23.4772 76.5944C22.935 76.2766 22.3576 76.4054 22.1955 76.879C22.0294 77.3526 22.3368 77.9986 22.881 78.3165L27.0418 80.751C27.584 81.0689 28.1615 80.9401 28.3235 80.4665Z" fill="#6CF479"/>
<path d="M34.5849 67.1073C36.4856 68.2041 36.8118 70.3582 35.3203 71.9161C33.8288 73.4741 31.0847 73.8501 29.1882 72.7554C27.2875 71.6586 26.9551 69.5044 28.4445 67.9465C29.936 66.3885 32.6801 66.0125 34.5849 67.1093V67.1073Z" fill="#6CF479"/>
<path d="M70.2837 22.3237C70.9401 22.7038 71.0564 23.4496 70.5413 23.9897C70.0261 24.5277 69.0706 24.6606 68.4142 24.2826C67.7577 23.9024 67.6435 23.1567 68.1607 22.6166C68.6759 22.0786 69.6252 21.9456 70.2837 22.3278V22.3237Z" fill="#6CF479"/>
<path d="M79.4965 27.6416C80.1529 28.0217 80.2692 28.7675 79.7541 29.3076C79.2389 29.8456 78.2834 29.9785 77.627 29.6005L72.3361 26.5469C71.6797 26.1667 71.5634 25.421 72.0786 24.8788C72.5937 24.3408 73.5472 24.212 74.2057 24.5901L79.4965 27.6437V27.6416Z" fill="#6CF479"/>
<path d="M32.9465 16.4995C29.9427 16.4995 27.5373 17.6482 25.9938 19.8211C23.8854 22.7916 23.6424 27.2702 25.3291 32.1164C28.4658 41.1173 37.207 48.4438 44.8202 48.4479C47.8322 48.4479 50.2356 47.2992 51.779 45.1264C53.8875 42.1559 54.1305 37.6773 52.4438 32.831C49.3071 23.8302 40.5659 16.5036 32.9527 16.4995H32.9444H32.9465Z" fill="#C7FFC6"/>
<path d="M50.0234 33.7362C47.8692 27.5501 42.6054 21.9249 36.9241 19.7416C35.3204 19.1226 33.7562 18.8131 32.2814 18.8131C30.6923 18.8131 29.2963 19.1725 28.1434 19.8746C29.4625 18.6075 31.2573 17.9448 33.4073 17.9469C34.8821 17.9469 36.4442 18.2626 38.05 18.8754C43.7313 21.0607 48.9951 26.6839 51.1492 32.87C52.674 37.2427 52.4683 41.2663 50.5925 43.9066C50.0587 44.6606 49.3981 45.2713 48.6357 45.7387C48.939 45.4458 49.2153 45.128 49.4667 44.7707C51.3445 42.1305 51.546 38.1068 50.0234 33.7342V33.7362Z" fill="black"/>
<path d="M48.3769 44.1163C47.4588 45.3564 45.9798 45.9941 44.0978 45.9567C43.7405 45.9484 43.3686 45.9193 42.9989 45.8653C40.1198 45.4561 36.9914 43.7714 34.1913 41.1167C31.4804 38.6281 29.856 35.6285 29.856 35.6285C32.9158 39.2762 34.4717 38.9854 35.5415 37.791C40.7554 44.6813 49.4613 45.0926 49.5361 38.2272C49.802 40.6327 49.4114 42.7224 48.379 44.1163H48.3749H48.3769Z" fill="white"/>
<path d="M7.39925 30.9444C7.68383 35.9548 4.73618 39.8808 0 40.7948C5.17241 41.713 9.98337 45.6348 12.0793 50.6473C11.7948 45.6328 14.7424 41.7109 19.4786 40.7969C14.3062 39.8787 9.49521 35.9568 7.39925 30.9444Z" fill="white"/>
<path d="M44.4228 9C44.5433 11.1541 43.2803 12.843 41.2446 13.2335C43.4673 13.6282 45.5342 15.3128 46.4378 17.469C46.3173 15.3149 47.5803 13.6261 49.616 13.2356C47.3892 12.8409 45.3223 11.1541 44.4228 9Z" fill="white"/>
<path d="M82.0963 50.2195C82.3165 50.6287 82.7486 50.6973 83.0644 50.367L87.6697 45.5685C87.9854 45.2424 88.0644 44.642 87.8442 44.2328C87.624 43.8236 87.1919 43.755 86.8762 44.0853L82.2708 48.8838C81.9551 49.2099 81.8762 49.8103 82.0963 50.2195Z" fill="#6CF479"/>
<path d="M75.2792 57.3199C75.2792 57.3199 75.9315 57.7976 76.2473 57.4674L80.8526 52.6688C81.1683 52.3427 81.2472 51.7445 81.0271 51.3332C80.8069 50.9239 80.3748 50.8554 80.059 51.1857L75.4537 55.9842C75.138 56.3103 75.2792 57.3199 75.2792 57.3199Z" fill="#6CF479"/>
<path d="M22.6928 20.7532L26.7538 17.4649C24.8531 19 23.6483 21.3307 23.2827 24.1516L19.2466 27.2571C19.6412 24.5151 20.8357 22.2592 22.6948 20.7532H22.6907H22.6928Z" fill="black"/>
<path d="M19.1049 29.4654L23.166 26.3412C23.1764 26.9187 23.22 27.5065 23.2906 28.1089L19.2129 31.2456C19.1444 30.639 19.107 30.0429 19.1028 29.4675L19.1049 29.4654Z" fill="black"/>
<path d="M71.7559 90.7908C71.7559 75.1905 59.1094 62.5482 43.5153 62.5482C59.1156 62.5482 71.7559 49.9017 71.7559 34.3056C71.7559 49.9059 84.4023 62.5482 99.9984 62.5482C84.3981 62.5482 71.7559 75.1946 71.7559 90.7908Z" fill="#006A4D"/>
<path d="M71.7557 69.7147C73.9265 61.0026 84.4023 62.5482 99.9984 62.5482C84.3981 62.5482 71.7559 75.1946 71.7559 90.7908" fill="#024731"/>
<path d="M71.7557 69.7147C69.585 61.0026 59.1094 62.5482 43.5153 62.5482C59.1156 62.5482 71.7559 75.1946 71.7559 90.7908" fill="black"/>
<path d="M90.4851 62.1578C81.1561 62.1578 79.4818 62.8558 75.8528 59.6588C74.6999 58.641 71.0668 54.1354 71.8333 41.6821C72.5541 54.3244 88.2354 62.1703 90.4851 62.1578Z" fill="white"/>
</svg>
