<svg width="100" height="100" viewBox="0 0 100 100" fill="none" xmlns="http://www.w3.org/2000/svg">
<g clip-path="url(#clip0_4483_8486)">
<rect width="100" height="100" fill="#6CF479"/>
<path d="M99.9894 97.3157V92.3947H0.616426V97.3157C0.616426 98.3398 1.42302 99.2642 2.55587 99.2642H98.05C99.1738 99.2642 99.9894 98.3398 99.9803 97.3157H99.9894Z" fill="black"/>
<path d="M86.8484 63.7929C86.3681 62.7597 85.3349 62.1072 84.2021 62.1072H16.4037C15.2709 62.1072 14.2377 62.7688 13.7574 63.7929L0.788625 91.6427C0.190484 92.9296 1.13302 94.4068 2.55587 94.4068H98.05C99.4728 94.4068 100.415 92.9296 99.8172 91.6427L86.8484 63.7929Z" fill="#C7FFC6"/>
<path d="M30.3511 81.8366L31.1033 77.8943H26.0644L24.6959 83.4769H22.1311L25.1128 72.4385L25.4572 71.1516H27.7048L26.6353 75.5198H31.5473L32.3811 71.1425H34.6286L34.4202 72.4385L32.8795 81.8456L32.6167 83.4679H30.052L30.3511 81.8366Z" fill="#024731"/>
<path d="M39.6766 82.8514C38.7703 82.2351 38.1088 81.4013 37.71 80.3319C37.3203 79.2988 37.2116 78.1478 37.3928 76.9062C37.565 75.6918 37.9547 74.6315 38.5801 73.7161C39.1873 72.8189 39.9576 72.1301 40.882 71.6408C41.7973 71.1604 42.8033 70.9248 43.9089 70.9248C45.0146 70.9248 45.9843 71.1604 46.8271 71.6408C47.679 72.1301 48.3406 72.8189 48.8209 73.7161C49.3103 74.6315 49.5459 75.6918 49.5369 76.9062C49.5278 78.1206 49.256 79.2988 48.7122 80.3319C48.1594 81.3923 47.38 82.2351 46.3831 82.8514C45.3862 83.4676 44.2352 83.7848 42.9664 83.7848C41.6976 83.7848 40.601 83.4767 39.6766 82.8514ZM40.1207 79.1085C40.3654 79.7519 40.7551 80.2413 41.2807 80.5947C41.8154 80.9391 42.4408 81.1204 43.1658 81.1204C43.8908 81.1204 44.5252 80.9482 45.1052 80.5947C45.6852 80.2504 46.1474 79.7519 46.4827 79.1085C46.8181 78.465 46.9993 77.74 47.0265 76.8972C47.0537 76.0543 46.9268 75.3746 46.6549 74.7946C46.383 74.2146 45.9934 73.7796 45.4859 73.4805C44.9783 73.1814 44.4074 73.0364 43.7548 73.0364C43.1023 73.0364 42.4951 73.1814 41.9423 73.4805C41.3895 73.7796 40.9363 74.2146 40.5829 74.7946C40.2294 75.3746 39.9938 76.0815 39.8941 76.8972C39.8035 77.7309 39.876 78.4741 40.1207 79.1085Z" fill="#024731"/>
<path d="M53.2705 72.4383L53.2525 71.1514H55.2191L59.2701 76.7159L62.4149 71.1514H64.3633L64.5537 72.4473L66.1578 83.4767H63.738L62.714 75.0484L59.6235 81.066L55.5362 75.0484L55.8172 81.8545L55.8806 83.4767H53.4609L53.2705 72.4383Z" fill="#024731"/>
<path d="M71.0248 81.8363L69.3481 72.4383L69.1216 71.1514H76.0636L76.5983 73.2177H71.786L72.2754 75.6102H76.3174L76.8793 77.885H72.7376L73.3539 80.921H78.5921L79.2537 83.4858H71.3148L71.0248 81.8454V81.8363Z" fill="#024731"/>
<path d="M5.17479 42.1322C5.17479 42.1322 6.86954 47.7602 13.7482 49.3099C13.7482 49.3099 8.53709 50.2071 8.42834 56.4695C8.42834 56.4695 6.58861 51.0409 0 49.3009C0 49.3009 5.51011 48.6483 5.17479 42.1232V42.1322Z" fill="white"/>
<path d="M59.651 0.00906273C59.651 0.00906273 61.0375 4.59481 66.6474 5.86359C66.6474 5.86359 62.397 6.59768 62.3154 11.7C62.3154 11.7 60.82 7.27738 55.4368 5.85453C55.4368 5.85453 59.9319 5.31983 59.651 0V0.00906273Z" fill="white"/>
<path d="M30.3783 62.1072L35.7072 67.7352L60.1313 62.1072H30.3783Z" fill="black"/>
<path d="M85.6067 17.8443C85.6067 17.8443 88.235 26.5536 98.8927 28.9642C98.8927 28.9642 90.8178 30.3599 90.6547 40.057C90.6547 40.057 87.809 31.6559 77.5953 28.9552C77.5953 28.9552 86.1324 27.9401 85.6067 17.8352V17.8443Z" fill="white"/>
<path d="M41.5162 64.5899L79.4437 56.5784L68.4506 31.6559L30.5956 39.8305L41.5162 64.5899Z" fill="#11B67A"/>
<path d="M62.7502 35.6165L67.0188 34.6287L68.8766 39.006L64.7168 39.9938L62.7502 35.6165Z" fill="#6CF479"/>
<path d="M52.8446 45.4139L51.8568 48.1508L33.7857 47.1086L30.5956 39.8305L48.5761 34.6836L52.8446 45.4139Z" fill="black"/>
<path d="M55.0381 45.794L17.1015 37.7826L28.0946 12.8691L65.9587 21.0346L55.0381 45.794Z" fill="#006A4D"/>
<path d="M28.0946 12.8691L38.3082 28.2576C39.0604 29.3905 40.4832 29.8708 41.7701 29.4267L65.9495 21.0437L28.0946 12.8691Z" fill="#11B67A"/>
</g>
<defs>
<clipPath id="clip0_4483_8486">
<rect width="100" height="100" fill="white"/>
</clipPath>
</defs>
</svg>
