<svg width="100" height="100" viewBox="0 0 100 100" fill="none" xmlns="http://www.w3.org/2000/svg">
<rect width="100" height="100" fill="#6CF479"/>
<path d="M51.1122 67.5032C36.2363 67.5032 24.62 65.1814 23.9785 62.2619L25.1748 70.5007C25.6169 73.3163 36.7825 75.5774 51.1122 75.5774C65.4419 75.5774 76.5468 73.3682 77.0496 70.5007L78.2459 62.2619C77.5611 65.2334 65.9967 67.5032 51.1122 67.5032Z" fill="#006A4D"/>
<path d="M51.1125 77.1115C44.134 77.1115 37.563 76.5744 32.639 75.6041C31.2433 75.3269 30.073 75.041 29.0761 74.7377L33.2372 96.5C33.5406 98.4406 41.2299 100 51.1038 100C60.9777 100 68.6324 98.4752 68.9705 96.5L73.1316 74.7637C66.0491 76.9642 54.2073 77.1288 51.1038 77.1288L51.1125 77.1115Z" fill="#006A4D"/>
<path d="M51.1122 65.329C64.3583 65.329 75.0991 63.657 75.0991 61.5952C75.0991 59.5333 64.3583 57.8613 51.1122 57.8613C37.8661 57.8613 27.1253 59.5333 27.1253 61.5952C27.1253 63.657 37.8661 65.329 51.1122 65.329Z" fill="black"/>
<path d="M69.2562 74.1232L70.1751 65.9624C68.1379 66.3696 65.7886 66.6988 63.1879 66.95L62.9972 70.1121C62.4251 74.6864 57.5705 75.3708 56.5215 75.4574C61.4628 75.2495 65.8406 74.7817 69.2648 74.1059L69.2562 74.1232Z" fill="black"/>
<path d="M59.3044 76.8437L57.8047 94.6121C57.1459 99.6888 51.1123 99.9834 51.1123 99.9834C56.2703 99.9834 60.8128 99.5676 64.029 98.8831L67.4099 76.0033C64.7225 76.4192 61.8791 76.6791 59.2958 76.8437H59.3044Z" fill="black"/>
<path d="M22.1314 17.2143C23.0417 17.067 33.141 15.5769 40.4922 23.1833C46.9592 29.8714 46.2744 38.3961 46.153 39.6263L38.1863 23.1833L22.1314 17.2143Z" fill="black"/>
<path d="M75.2634 33.8391C75.9309 35.927 77.266 41.1163 75.0727 46.6522C72.1426 54.068 64.0892 59.0321 54.7441 59.1014C56.0271 58.9021 68.3196 56.7536 73.391 45.9245C75.6969 41.0037 75.5408 36.3515 75.2548 33.8478L75.2634 33.8391Z" fill="black"/>
<path d="M52.8551 59.1007C52.6297 58.217 50.3671 48.6267 57.1289 40.7604C64.1507 32.5823 74.5014 33.7431 75.2643 33.8384C75.3683 34.6441 76.738 46.8681 67.5056 54.3705C61.5761 59.1787 54.8316 59.1787 52.8551 59.1007Z" fill="#006A4D"/>
<path d="M74.5873 36.6291C74.4052 39.1675 73.6857 43.8544 70.5129 48.4632C69.1865 50.3865 67.7388 51.8506 66.4818 52.9249C67.1146 50.7244 67.1233 49.4249 66.5165 49.0004C65.6323 48.3853 63.413 49.6934 59.8674 52.9249C60.6996 51.686 62.0607 49.9187 64.1152 48.212C66.6292 46.1155 68.1549 45.8209 70.0361 44.2269C71.5618 42.936 73.4256 40.7096 74.5873 36.6378V36.6291Z" fill="black"/>
<path d="M45.3562 41.7405C44.4546 41.8878 34.6934 43.2999 27.4462 35.8841C19.9129 28.1737 21.9667 17.9766 22.1314 17.2143C22.9463 17.1796 35.2482 16.8854 41.9233 26.7356C46.1971 33.0598 45.6076 39.7739 45.3562 41.7318V41.7405Z" fill="#006A4D"/>
<path d="M23.4323 18.4443C25.9723 18.6262 30.6622 19.3452 35.2741 22.516C37.1986 23.8415 38.6636 25.2883 39.7386 26.5445C37.5367 25.912 36.2363 25.9034 35.8116 26.5098C35.1961 27.3935 36.5051 29.6113 39.7386 33.1546C38.4989 32.3229 36.7305 30.9628 35.0227 28.9095C32.9248 26.3972 32.6301 24.8724 31.035 22.9925C29.7433 21.4678 27.5154 19.6051 23.441 18.4443H23.4323Z" fill="black"/>
<path d="M63.0406 30.8414C61.5322 32.7473 59.9024 34.3327 58.2553 35.6409C56.5822 36.9491 54.9004 37.9973 53.2967 38.8203C52.8026 39.0456 51.0948 39.9726 50.2106 42.0344C50.1239 42.2077 50.0632 42.3896 50.0198 42.5542C49.569 43.8884 49.6817 45.3438 50.1845 46.6693L56.0014 62.4019H51.4762L44.151 41.8612L43.9516 41.298C43.5702 40.4664 42.9287 38.8983 42.3565 36.8191C41.5676 33.9602 40.9261 30.1224 41.2989 25.8254C41.585 22.4813 42.5039 18.8514 44.4544 15.1955C51.6062 1.724 66.2914 0.10396 67.3837 0C67.7911 1.09158 73.4953 17.5865 63.0319 30.8414H63.0406Z" fill="#11B67A"/>
<path d="M65.9629 1.43715C63.2495 2.13021 56.8432 4.16609 51.1737 10.0572C45.3222 16.1388 43.597 22.8702 43.0509 25.6078C46.1891 23.3987 48.2783 22.6536 49.3272 23.3987C50.9483 24.5509 50.0554 29.2551 46.6312 37.5285C48.2783 35.2934 50.5322 31.7848 52.2313 27.1066C54.3205 21.3714 53.8871 18.5212 55.4995 14.2069C56.8085 10.7242 59.5392 6.03737 65.9629 1.44581V1.43715Z" fill="#006A4D"/>
<path d="M67.809 12.2153C67.887 9.72025 67.6529 7.51977 67.3235 5.74379C67.3322 6.61012 67.3235 7.57175 67.2628 8.60269C67.0981 10.0754 66.6994 11.8688 65.7978 13.7574C64.3588 16.7635 62.3216 18.6002 61.1859 19.4838C61.5067 20.3501 61.7494 21.3118 61.8708 22.3514C62.2175 25.5568 61.1859 28.3897 59.9636 30.5295C59.3741 31.4132 58.7933 32.2189 58.2385 32.9293C57.8571 33.4058 57.4756 33.8736 57.1029 34.3501C59.5648 32.1323 65.9105 25.8254 67.4796 15.8106C67.6703 14.5977 67.7656 13.4455 67.809 12.3452C67.809 12.3279 67.809 12.3106 67.8177 12.3019C67.8177 12.2759 67.8177 12.2586 67.8177 12.2326L67.809 12.2153Z" fill="white"/>
<path d="M55.9844 62.4277C55.9844 62.6876 54.7967 62.9909 53.7218 62.9909C52.6469 62.9909 51.4505 62.6876 51.4592 62.4277C51.4592 62.1679 52.7335 61.9599 53.7218 61.9599C54.7101 61.9599 55.9757 62.1679 55.9844 62.4277Z" fill="#6CF479"/>
</svg>
