<svg width="100" height="100" viewBox="0 0 100 100" fill="none" xmlns="http://www.w3.org/2000/svg">
<g clip-path="url(#clip0_15980_12269)">
<rect width="100" height="100" fill="#6CF479"/>
<path d="M93.5538 82.9579L77.5329 46.6396C77.1682 45.8099 76.2746 45.2354 75.4175 45.2354C75.299 45.2354 75.1896 45.2445 75.071 45.2719L5.65353 59.9341C4.69611 60.1256 4.26755 61.0466 4.68699 61.9949L20.881 98.5958C21.2458 99.4255 22.1485 100 23.0056 100C23.1242 100 23.2518 99.9909 23.3703 99.9635L92.6146 85.0095C93.5538 84.818 93.9732 83.8971 93.5629 82.9579H93.5538Z" fill="black"/>
<path d="M93.5538 81.8003L77.5329 45.482C77.1682 44.6523 76.2746 44.0778 75.4175 44.0778C75.299 44.0778 75.1896 44.0869 75.071 44.1143L5.65353 58.7765C4.69611 58.968 4.26755 59.889 4.68699 60.8373L20.881 97.4382C21.2458 98.268 22.1485 98.8424 23.0056 98.8424C23.1242 98.8424 23.2518 98.8333 23.3703 98.8059L92.6146 83.8519C93.5538 83.6604 93.9732 82.7395 93.5629 81.8003H93.5538Z" fill="#11B67A"/>
<path d="M18.1271 91.2273L90.7907 75.5438L87.3895 67.8388L14.7259 83.5223L18.1271 91.2273Z" fill="black"/>
<path d="M87.818 19.5403C87.818 19.5403 90.2252 27.5279 100 29.7345C100 29.7345 92.596 31.0111 92.4501 39.9015C92.4501 39.9015 89.8422 32.1965 80.4778 29.7254C80.4778 29.7254 88.3012 28.7954 87.818 19.5403Z" fill="white"/>
<path d="M5.3342 33.6665C5.3342 33.6665 7.08491 39.4749 14.1972 41.0888C14.1972 41.0888 8.80828 42.0189 8.70798 48.4838C8.70798 48.4838 6.81136 42.876 0 41.0797C0 41.0797 5.69894 40.405 5.34333 33.6665H5.3342Z" fill="white"/>
<path d="M44.005 73.2386C44.005 73.2386 45.7557 79.047 52.868 80.6609C52.868 80.6609 47.479 81.591 47.3787 88.0559C47.3787 88.0559 45.4821 82.4481 38.6708 80.6518C38.6708 80.6518 44.3697 79.977 44.0141 73.2386H44.005Z" fill="white"/>
<path d="M72.5815 51.792L71.9797 46.3758C71.0679 48.1447 69.9372 49.4851 68.5968 50.3969C67.2564 51.3088 65.4966 51.7647 63.3356 51.7647C62.0772 51.7647 60.9648 51.6461 59.9983 51.4273C59.0318 51.1993 57.8008 50.8528 56.3236 50.3969C54.9012 49.941 53.6702 49.5945 52.6489 49.3666C51.6186 49.1386 50.4515 49.0292 49.1384 49.0292C47.8254 49.0292 46.713 49.1751 45.6279 49.4577C46.9956 47.8073 47.9895 46.0657 48.6187 44.2421C49.2478 42.4184 49.5579 40.3394 49.5579 37.996C49.5579 37.7407 49.5488 37.4854 49.5396 37.2301L64.758 35.0143L64.3659 30.0357H47.9348C47.0777 27.8109 46.4576 26.0146 46.0564 24.6468C45.6552 23.2791 45.4546 21.7381 45.4546 20.0238C45.4546 17.2883 46.3938 15.0908 48.2813 13.4404C50.1597 11.79 52.7037 10.9602 55.8951 10.9602C58.4573 10.9602 60.9648 11.562 63.4268 12.7565C65.8796 13.951 67.8218 15.5194 69.2442 17.4616L69.7731 9.0089L69.2442 4.70505C67.3659 3.21877 65.0589 2.06986 62.3508 1.24009C59.6427 0.419443 56.7522 0 53.6702 0C49.4485 0 45.7191 0.765938 42.4638 2.30693C39.2086 3.84793 36.6919 5.99985 34.8956 8.7627C33.0993 11.5347 32.1966 14.6805 32.1966 18.2184C32.1966 20.0968 32.379 21.9387 32.7529 23.735C33.1176 25.5313 33.6738 27.6285 34.4215 30.0175H29.6344L29.0964 34.9961L35.9534 35.9353C36.309 37.7407 36.4822 39.2999 36.4822 40.6221C36.4822 44.3333 35.844 47.7253 34.5583 50.7981C34.2938 51.4455 33.9565 52.1294 33.5917 52.8498L5.66243 58.7493C4.70501 58.9408 4.27646 59.8617 4.6959 60.8101L8.04232 68.3691H26.7348L56.7978 68.1959L50.9256 63.8282L48.9834 61.2568C51.0806 61.6489 52.804 61.9407 54.1079 62.1231C55.5303 62.3237 57.1534 62.424 58.977 62.424C63.4815 62.424 70.384 57.8101 70.384 57.8101L72.5907 51.7647L72.5815 51.792Z" fill="black"/>
<path d="M34.148 56.3586C35.4702 53.1945 36.1267 49.7113 36.1267 45.909C36.1267 44.0945 35.8075 41.8331 35.1602 39.1432H29.1056V35.0126H34.0295C33.2636 32.5507 32.6891 30.3988 32.3153 28.5569C31.9323 26.7058 31.7408 24.8183 31.7408 22.8853C31.7408 19.2562 32.6618 16.0192 34.5128 13.1743C36.3547 10.3293 38.9442 8.12271 42.2815 6.54524C45.6188 4.96777 49.4576 4.17448 53.7888 4.17448C56.9528 4.17448 59.9254 4.60304 62.7065 5.45104C65.4875 6.29905 67.8492 7.48443 69.7823 9.00719V22.1011C68.3142 20.1133 66.3265 18.4994 63.8098 17.2684C61.2932 16.0374 58.7127 15.4265 56.0775 15.4265C52.7949 15.4265 50.1871 16.2745 48.254 17.9705C46.3209 19.6665 45.3544 21.9278 45.3544 24.7363C45.3544 26.4961 45.5641 28.0736 45.9653 29.4778C46.3756 30.882 47.023 32.7239 47.8984 35.0126H64.7672V39.1432H49.1294C49.4212 40.4927 49.5671 41.8331 49.5671 43.1826C49.5671 45.5899 49.2479 47.7236 48.6005 49.5928C47.9531 51.4712 46.9319 53.2584 45.5276 54.9544C46.6401 54.6626 47.8346 54.5167 49.1294 54.5167C50.4242 54.5167 51.6734 54.6352 52.7311 54.8632C53.7888 55.1003 55.0471 55.4468 56.5061 55.9209C58.0288 56.386 59.2871 56.7416 60.281 56.9787C61.2749 57.2157 62.4238 57.3251 63.7095 57.3251C65.9344 57.3251 67.7307 56.8601 69.1167 55.9209C70.4935 54.9817 71.6515 53.6049 72.5907 51.7903C72.5907 57.5349 71.5147 61.7202 69.3811 64.3554C67.2383 66.9906 63.8645 68.3127 59.2324 68.3127C57.354 68.3127 55.6945 68.2124 54.2265 68.0027C52.7584 67.793 50.798 67.4647 48.3361 66.9906C46.2845 66.5802 44.5976 66.2702 43.2845 66.0696C41.9715 65.869 40.5491 65.7596 39.0263 65.7596C36.5644 65.7596 34.4216 65.9693 32.5706 66.3705C30.7196 66.7808 28.7774 67.4556 26.7257 68.3948C30.3548 63.5347 32.835 59.5227 34.148 56.3586Z" fill="#C7FFC6"/>
</g>
<defs>
<clipPath id="clip0_15980_12269">
<rect width="100" height="100" fill="white"/>
</clipPath>
</defs>
</svg>
