<svg width="100" height="100" viewBox="0 0 100 100" fill="none" xmlns="http://www.w3.org/2000/svg">
<g clip-path="url(#clip0_15980_12255)">
<rect width="100" height="100" fill="#6CF479"/>
<path d="M30.8435 78.8588C32.6656 74.4909 33.5664 69.6821 33.5664 64.4222C33.5664 61.9204 33.1262 58.8034 32.2356 55.0814H23.8827V49.3806H30.6592C29.6049 45.9867 28.8167 43.0132 28.2946 40.4704C27.7726 37.9173 27.5064 35.313 27.5064 32.6471C27.5064 27.6333 28.7758 23.1731 31.3246 19.246C33.8633 15.3293 37.4358 12.2738 42.0422 10.0898C46.6485 7.90587 51.9305 6.81901 57.9086 6.81901C62.2694 6.81901 66.3639 7.40345 70.2026 8.57233C74.0413 9.75146 77.2862 11.3817 79.9579 13.4837V31.5603C77.9413 28.8124 75.1877 26.5874 71.7176 24.8854C68.2474 23.1833 64.6954 22.3425 61.0615 22.3425C56.537 22.3425 52.9439 23.5114 50.2825 25.8594C47.621 28.2074 46.2903 31.3142 46.2903 35.2002C46.2903 37.6302 46.5769 39.8142 47.1399 41.7521C47.7029 43.69 48.5935 46.243 49.8014 49.3908H73.0483V55.0917H51.4904C51.8998 56.9475 52.0943 58.8136 52.0943 60.6695C52.0943 63.9915 51.6542 66.9342 50.7636 69.5283C49.873 72.1224 48.4604 74.5832 46.5257 76.9312C48.0509 76.5314 49.7092 76.3263 51.4904 76.3263C53.2715 76.3263 55.0015 76.4903 56.4551 76.8082C57.9086 77.1363 59.6488 77.6182 61.6654 78.2642C63.7639 78.9101 65.5041 79.4023 66.8758 79.7201C68.2474 80.038 69.8238 80.202 71.605 80.202C74.6657 80.202 77.1531 79.5561 79.0571 78.2642C80.9508 76.9723 82.5477 75.0754 83.8375 72.5633C83.8375 80.4891 82.3635 86.272 79.4154 89.9119C76.4673 93.5519 71.8097 95.3667 65.4324 95.3667C62.8528 95.3667 60.5496 95.2232 58.533 94.9463C56.5165 94.6592 53.8038 94.1978 50.4156 93.5519C47.5903 92.9879 45.2666 92.5676 43.4445 92.2805C41.6327 92.0036 39.6775 91.8601 37.5688 91.8601C34.1806 91.8601 31.212 92.1472 28.6734 92.7111C26.1245 93.275 23.4426 94.2081 20.6173 95.5C25.6229 88.7841 29.0316 83.2473 30.8537 78.8794L30.8435 78.8588Z" fill="#11B67A"/>
<path d="M28.1821 21.931L22.0709 20.4647C21.5796 21.6234 21.1804 22.823 20.8733 24.0637L26.923 25.5401C27.2505 24.2995 27.6703 23.0998 28.1821 21.931Z" fill="black"/>
<path d="M68.2168 47.8711L65.6577 47.0713H50.5384C50.6408 47.3379 50.733 47.5942 50.8353 47.8711H68.2168Z" fill="black"/>
<path d="M22.3678 49.3871V47.8696H28.6223C27.8443 45.2345 27.2403 42.8558 26.8206 40.7743C26.2781 38.1495 26.0017 35.4118 26.0017 32.6434C26.0017 32.3051 26.0222 31.977 26.0324 31.6489L20.126 30.2134C20.126 30.2134 20.126 30.2852 20.126 30.3262C20.126 32.9921 20.3819 35.6067 20.9142 38.1495C21.4363 40.6923 22.2245 43.6658 23.2788 47.0596H16.5023V52.7605L22.378 54.6061V49.3769L22.3678 49.3871Z" fill="black"/>
<path d="M71.5947 78.6821C74.3381 78.6821 76.5594 78.1182 78.187 77.0006C79.8044 75.8932 81.2067 74.2322 82.343 72.0893L76.4264 70.2334C75.1366 72.7455 73.5396 74.6423 71.6459 75.9342C70.049 77.0211 68.0222 77.6466 65.5962 77.8209C66.1797 77.9747 66.7325 78.1182 67.2136 78.231C68.4727 78.5283 69.9467 78.6719 71.5947 78.6719V78.6821Z" fill="black"/>
<path d="M19.399 94.5758C24.3023 87.9931 27.6803 82.5178 29.4512 78.2832C31.1812 74.1306 32.0615 69.4756 32.0615 64.431C32.0615 62.2983 31.7135 59.6734 31.0379 56.6077H25.6331C25.9913 58.6789 26.1858 60.5347 26.1858 62.1137C26.1858 67.3737 25.285 72.1825 23.4629 76.5504C21.6408 80.9183 18.2321 86.4551 13.2264 93.171L19.092 95.0064L19.4093 94.5758H19.399Z" fill="black"/>
<path d="M77.2756 30.7174C75.5969 28.9539 73.5189 27.4466 71.0519 26.247C70.233 25.8471 69.4038 25.4985 68.5747 25.1909C70.1204 26.3803 71.4511 27.7235 72.5567 29.2307L77.2654 30.7072L77.2756 30.7174Z" fill="black"/>
<path d="M29.3693 19.5826C29.5945 19.193 29.8197 18.8034 30.0654 18.424C32.7473 14.2817 36.5655 11.0211 41.3971 8.72437C46.1775 6.45838 51.7359 5.29976 57.9085 5.29976C58.3077 5.29976 58.6967 5.33052 59.0857 5.34077C56.3526 4.79735 53.4966 4.5 50.5178 4.5C44.5397 4.5 39.2577 5.58685 34.6514 7.77081C30.045 9.95477 26.4826 13.0103 23.9338 16.927C23.6779 17.3167 23.4527 17.7165 23.2275 18.1164L29.3693 19.5826Z" fill="black"/>
<path d="M49.9648 74.6952C49.9341 74.7465 49.9034 74.7977 49.8727 74.849C50.0774 74.8388 50.2924 74.8387 50.5073 74.8285C50.3231 74.7772 50.149 74.7362 49.975 74.6952H49.9648Z" fill="black"/>
<path d="M86.3251 48.3009C86.3251 48.3009 89.0275 57.2828 100.001 59.7641C100.001 59.7641 91.689 61.1996 91.5252 71.1966C91.5252 71.1966 88.5976 62.5325 78.0848 59.7539C78.0848 59.7539 86.8676 58.708 86.3251 48.3009Z" fill="white"/>
<path d="M5.73342 14.1388C5.73342 14.1388 7.6169 20.383 15.243 22.1056C15.243 22.1056 9.45945 23.1002 9.34685 30.0519C9.34685 30.0519 7.30979 24.0332 0.000976562 22.0953C0.000976562 22.0953 6.11217 21.3674 5.73342 14.1285V14.1388Z" fill="white"/>
</g>
<defs>
<clipPath id="clip0_15980_12255">
<rect width="100" height="100" fill="white"/>
</clipPath>
</defs>
</svg>
