<svg width="100" height="100" viewBox="0 0 100 100" fill="none" xmlns="http://www.w3.org/2000/svg">
<rect width="100" height="100" fill="#6CF479"/>
<path d="M50.3809 0C32.4994 0 18 14.4994 18 32.3809V77.1042C18 75.421 22.0789 73.9061 28.577 72.857C30.7261 70.7236 33.8577 67.9247 37.0833 65.1415C44.7244 58.5494 56.0413 58.5494 63.6785 65.1415C66.9041 67.9247 70.0357 70.7196 72.1847 72.857C78.6789 73.9061 82.7579 75.421 82.7618 77.1003V32.3809C82.7657 14.4994 68.2663 0 50.3809 0Z" fill="#C7FFC6"/>
<path d="M75.0115 76.3667C75.0115 76.7894 74.671 77.2005 74.0407 77.5841C71.966 75.1258 63.1427 65.0107 58.0656 64.1886C52.597 63.3039 59.0012 78.273 48.8978 80.7314C35.9877 80.5944 25.7552 78.6919 25.7552 76.3667C25.7552 75.2236 31.2707 70.1582 37.0838 65.1398C44.7249 58.5478 56.0418 58.5478 63.679 65.1398C69.4921 70.1582 75.0115 75.2236 75.0115 76.3667Z" fill="#11B67A"/>
<path d="M77.3594 36.9332C74.9716 46.6256 63.8309 47.659 57.8612 52.2899C56.5812 53.2802 55.7083 54.709 55.3912 56.2944C54.9958 58.2712 54.3617 60.205 53.4965 62.0448C53.4143 62.221 53.3321 62.3971 53.2499 62.5694C52.1695 64.4405 47.613 63.6615 48.4077 61.994C48.8539 61.3128 49.265 60.616 49.6368 59.9036C50.2827 58.6705 49.7464 57.1439 48.4742 56.5841C44.5714 54.8617 35.4663 54.6073 32.5069 48.4654C41.1619 45.8661 49.4842 49.2013 50.7446 55.1866C50.9365 56.1143 50.8621 57.0695 50.6116 57.9816C50.6037 58.0011 50.6037 58.009 50.6116 58.009C52.0443 53.9849 52.6236 48.5672 51.4297 44.3003C51.1439 43.2317 50.7877 42.1787 50.3649 41.1492C50.9991 38.5734 50.6076 36.5379 50.6076 36.5379C50.6076 36.5379 51.3475 37.399 52.2596 38.2602C53.1756 39.8848 53.9428 41.5915 54.5496 43.3569C55.2189 45.2829 55.7983 48.5515 55.6182 52.3916C58.4054 37.3247 70.2977 36.3108 77.3594 36.9332Z" fill="#024731"/>
<path d="M57.8868 49.8241C65.7863 43.5961 69.509 39.6307 76.2538 37.7165C76.2538 37.7165 68.6909 36.6283 63.0971 40.6132C66.3618 41.7954 62.4081 45.3537 57.8868 49.8241Z" fill="#11B67A"/>
<path d="M34.1626 48.7479C34.1626 48.7479 39.7369 47.2995 43.9724 49.4603C42.4066 49.5386 41.835 51.0066 48.3057 53.8211L34.1626 48.744V48.7479Z" fill="#11B67A"/>
<path d="M50.5861 3.77724C50.5195 3.77724 50.4491 3.77724 50.3825 3.77724C60.4154 4.13738 70.9846 12.2248 71.1216 20.8876C74.4568 22.2459 78.1208 25.4089 79.4321 32.6233C79.4321 24.9195 76.4297 17.6738 70.9846 12.2248C65.5356 6.77576 58.2938 3.77724 50.5861 3.77724Z" fill="white"/>
<path d="M47.6888 23.3769C47.6888 23.3769 49.4621 13.8215 39.4096 12.7294C37.6794 15.0507 38.4075 20.3744 41.2299 24.285C41.2299 24.285 32.7236 18.0962 26.8088 26.2423C26.8088 26.2423 28.081 29.4287 37.9534 29.6988C37.9534 29.6988 28.081 33.5664 28.8091 39.2541C28.8091 39.2541 37.3623 44.3039 42.596 34.9756C42.596 34.9756 40.7758 43.9829 43.5042 46.2572C43.5042 46.2572 52.3745 44.0299 48.918 33.1984C48.918 33.1984 55.4239 40.9335 59.5655 40.6125C59.5655 40.6125 63.249 29.9219 51.3763 27.3266C51.3763 27.3266 61.6128 25.3694 63.022 21.5018C63.022 21.5018 55.5609 13.8568 47.6888 23.369V23.3769Z" fill="#024731"/>
<path d="M51.2355 22.1952C51.2355 22.1952 56.9663 20.0578 60.1997 22.1952C59.0606 18.0105 54.0108 20.1009 51.2355 22.1952Z" fill="#11B67A"/>
<path d="M40.2693 15.3252C40.2693 15.3252 43.5457 15.6892 44.908 18.8756C44.908 18.8756 45.362 13.3248 40.2693 15.3252Z" fill="#11B67A"/>
<path d="M29.4496 25.7885C29.4496 25.7885 31.7709 28.1098 34.4993 27.9728C31.0428 28.7909 28.8585 27.2447 29.4496 25.7885Z" fill="#11B67A"/>
<path d="M31.2598 38.0243C31.2598 38.0243 34.3522 39.2965 39.95 35.977C36.0433 40.4004 32.305 40.2086 31.2598 38.0243Z" fill="#11B67A"/>
<path d="M47.824 35.4807C47.824 35.4807 47.1859 41.7595 44.0465 43.4898C47.7379 43.5328 48.6852 40.5343 47.824 35.4807Z" fill="#11B67A"/>
<path d="M54.9267 31.4956C54.9267 31.4956 58.3401 35.0264 57.7491 38.1659C60.9355 34.2983 55.9288 31.9692 54.9267 31.4956Z" fill="#11B67A"/>
<path d="M46.6399 31.6878C48.9409 30.174 49.8314 27.4651 48.629 25.6373C47.4265 23.8095 44.5864 23.555 42.2854 25.0688C39.9844 26.5825 39.0938 29.2914 40.2963 31.1192C41.4988 32.947 44.3389 33.2016 46.6399 31.6878Z" fill="white"/>
<path d="M60.3825 95.5531V95.5453C57.1921 95.7293 53.8257 95.8232 50.3809 95.8232C41.6476 95.8232 33.4271 95.2165 27.2265 94.1165C24.1458 93.5724 21.707 92.9265 19.9768 92.1984C19.5619 92.0261 18.7398 91.6777 18 91.118V94.2496C18 97.4243 32.4994 100 50.3809 100C51.5552 100 52.7178 99.9883 53.857 99.9687C53.9235 99.9687 53.994 99.9648 54.0605 99.9648H54.0684C56.2292 99.7573 60.3786 98.853 60.3825 95.5531Z" fill="black"/>
<path d="M72.0345 95.5018V94.3666C71.1146 94.5115 70.1516 94.6445 69.1612 94.7698V98.9309C69.4039 98.9035 69.6427 98.8722 69.8815 98.8409C69.9598 98.8292 70.0381 98.8213 70.1164 98.8096C71.8192 98.4181 72.0188 97.3495 72.0345 95.5018Z" fill="black"/>
<path d="M80.7789 92.198C79.6045 92.6913 78.1014 93.1493 76.2929 93.5603V97.694C80.3522 96.735 82.7557 95.541 82.7557 94.2493V91.1216C82.0159 91.6774 81.1938 92.0258 80.7789 92.198Z" fill="black"/>
<path d="M60.3825 87.5808V82.5781C57.2313 82.7582 53.8726 82.856 50.3809 82.856C32.4994 82.856 18 80.2842 18 77.1056V88.6065C18 91.7811 32.4994 94.3569 50.3809 94.3569C51.6805 94.3569 52.9566 94.3412 54.2132 94.3138C54.1506 94.3138 54.0879 94.3138 54.0253 94.3138C60.2494 93.711 60.3786 87.5926 60.3786 87.5769L60.3825 87.5808Z" fill="black"/>
<path d="M69.873 93.185C71.5445 92.8562 72.0417 90.2961 72.0417 88.1001V81.3828C71.1296 81.5276 70.1705 81.6646 69.1684 81.7899V93.2907C69.4385 93.2555 69.7047 93.2242 69.9709 93.185C69.9552 93.185 69.9435 93.185 69.9278 93.189H69.873V93.185Z" fill="black"/>
<path d="M76.3 80.5543V92.0551C80.3555 91.0961 82.7629 89.9022 82.7629 88.6104C82.7629 88.5947 82.7629 77.1056 82.7629 77.1056C82.7629 78.4013 80.3594 79.5913 76.3 80.5543Z" fill="black"/>
</svg>
