<svg width="100" height="100" viewBox="0 0 100 100" fill="none" xmlns="http://www.w3.org/2000/svg">
<g clip-path="url(#clip0_15980_12306)">
<rect width="100" height="100" fill="#6CF479"/>
<path d="M65.0371 6.71734L61.343 5.43357L65.7762 0.0868835L55.5513 5.35689L59.2403 6.63899L54.8122 11.9873L65.0371 6.71734Z" fill="white"/>
<path d="M44.9857 11.6895L40.5576 6.34117L44.2466 5.05907L34.0217 -0.210938L38.4548 5.13575L34.7607 6.41952L44.9857 11.6895Z" fill="white"/>
<path d="M55.6789 16.7826L60.107 22.131L56.418 23.4131L66.6429 28.6831L62.2098 23.3364L65.9039 22.0527L55.6789 16.7826Z" fill="white"/>
<path d="M33.9378 22.7415L37.6319 24.0253L33.1988 29.372L43.4237 24.102L39.7347 22.8199L44.1628 17.4715L33.9378 22.7415Z" fill="white"/>
<path fill-rule="evenodd" clip-rule="evenodd" d="M42.3419 44.6391C42.4388 44.6279 42.6738 44.6788 42.863 44.7533C43.0503 44.827 43.3519 44.8712 43.5303 44.8503C43.7085 44.8298 43.9162 44.8542 43.9918 44.9044C44.1176 44.9911 43.9709 45.6757 43.0151 49.4431C42.4465 51.6779 42.2479 52.2972 40.8207 56.2649C40.6816 56.6526 40.5343 57.0613 40.3851 57.4768L49.6667 52.763L50.149 53.7037L50.5353 52.951L61.364 58.5798L60.581 59.99L49.8845 54.5706L40.8069 59.1806L50.4385 64.0729L50.117 64.6995L51.1205 66.6581L44.9909 69.7798L49.1162 79.5946L49.0747 79.6117L51.1144 80.6477L49.9787 82.8638L34.6203 75.0635L33.1588 75.8086C32.9651 76.2824 32.779 76.7333 32.6082 77.1527C32.0498 78.5272 31.314 80.2476 30.9764 80.9738C30.6364 81.7004 30.3432 82.2917 30.323 82.2871C30.2999 82.2819 29.831 82.1932 29.2798 82.0879C28.7273 81.9836 28.1008 81.8629 27.8866 81.8219C27.5258 81.7511 27.5354 81.6635 28.0214 80.5275C28.3115 79.8566 28.934 78.4014 29.4095 77.2909C29.8834 76.1807 30.6599 74.4172 31.1346 73.3718C32.2074 71.01 35.0721 64.4609 35.8242 62.6567C38.2312 56.8748 39.6483 52.9151 41.5873 46.5575C41.9055 45.5138 42.2451 44.6505 42.3419 44.6391ZM37.3653 73.6645L45.5925 77.8427L42.6954 70.9488L37.3653 73.6645ZM38.7749 61.9658C38.3671 63.1 37.6871 64.8527 37.2624 65.8608C36.7123 67.1691 35.6704 69.6909 34.6194 72.2457L41.7239 68.6374L38.8415 61.7787C38.8179 61.8446 38.7959 61.9072 38.7749 61.9658ZM44.0212 67.471L48.6866 65.102L41.4888 61.4465L44.0212 67.471Z" fill="#006A4D"/>
<path fill-rule="evenodd" clip-rule="evenodd" d="M57.9273 45.7977C58.0591 46.1572 58.7698 48.3937 59.5055 50.7656C62.0573 58.9823 63.6074 63.0522 70.03 78.3979C70.9542 80.6055 71.7025 82.5255 71.6912 82.6663C71.6776 82.846 71.3564 83.0305 70.6108 83.2869C70.0254 83.4867 69.4976 83.6632 69.4345 83.6791C69.3733 83.6932 69.0893 83.0787 68.8053 82.3127C67.8124 79.6355 66.8881 77.2365 65.9661 74.927L52.1565 81.9393C52.2624 85.3174 52.357 88.012 52.4235 89.3156L52.5316 91.4468L51.7736 91.5266C51.3565 91.5714 50.3915 91.6077 49.6293 91.609L48.2438 91.6099L48.3718 85.6155C48.4441 82.3185 48.5942 72.3236 48.7045 63.4025C48.8169 54.4814 48.962 46.7651 49.026 46.2535C49.1049 45.6349 49.3224 45.3526 49.6794 45.4063C50.3931 45.5165 50.4486 45.427 51.0139 45.4269C52.2134 45.4269 51.0757 45.4481 51.1997 46.2097L51.6111 61.4575C51.6213 61.9296 51.6329 62.4117 51.644 62.9021L59.9869 58.6646C59.7429 57.9234 59.3788 56.8508 59.0371 55.8708C58.5485 54.4718 57.8801 52.364 57.5531 51.187C57.224 50.0115 56.7795 48.4405 56.567 47.6963C56.1572 46.2694 56.1024 45.6728 56.3794 45.6879C56.4724 45.6929 56.8045 45.5721 57.1184 45.4201L57.6879 45.142L57.9273 45.7977ZM53.8609 78.3902L62.8815 73.764L57.1132 70.7685L53.8609 78.3902ZM51.7658 67.9918C51.837 70.8315 51.9146 73.7565 51.9931 76.5131L54.9291 69.6346L51.7658 67.9918ZM58.0345 68.6081L64.8339 72.0602C63.6197 68.9228 61.9835 64.4921 60.993 61.6764L58.0345 68.6081ZM51.688 64.829C51.6924 65.0156 51.6965 65.203 51.701 65.3912L55.8418 67.494L58.4425 61.3992L51.688 64.829Z" fill="#11B67A"/>
<path d="M50.0113 50.256C55.0441 50.256 59.1239 48.5681 59.1239 46.486C59.1239 44.4038 55.0441 42.7159 50.0113 42.7159C44.9786 42.7159 40.8988 44.4038 40.8988 46.486C40.8988 48.5681 44.9786 50.256 50.0113 50.256Z" fill="black"/>
<path d="M56.0868 43.5911L54.841 36.6204C53.6844 37.6117 51.9503 38.2423 50.0113 38.2423C47.7794 38.2423 45.8185 37.4073 44.6981 36.1474L43.3677 43.5915C42.1366 44.039 41.3883 44.6235 41.3883 45.2578C41.3883 46.6815 45.1224 48.9281 49.7272 48.9281C54.3321 48.9281 58.0662 46.6815 58.0662 45.2578C58.0662 44.6235 57.3178 44.0453 56.0868 43.5911Z" fill="#006A4D"/>
<path d="M56.0458 43.5911L54.8055 36.6502C53.6489 37.6243 51.9305 38.2423 50.0113 38.2423C47.7567 38.2423 45.7788 37.3897 44.6639 36.108L43.3268 43.5907C42.0957 44.0382 41.3473 44.6227 41.3473 45.257C41.3473 46.6807 45.0814 48.6638 49.6863 48.6638C54.2912 48.6638 58.0252 46.6807 58.0252 45.257C58.0252 44.6227 57.2769 44.0453 56.0458 43.5911Z" fill="black"/>
<path d="M56.0295 43.591L56.0265 43.5755C54.6359 45.8343 51.7314 46.4854 49.6691 46.4854C47.4813 46.4854 44.3693 46.2231 43.1016 43.6698C41.9951 44.1064 41.3306 44.6594 41.3306 45.2569C41.3306 46.6806 45.0646 48.9272 49.6695 48.9272C54.2744 48.9272 58.0085 46.6806 58.0085 45.2569C58.0085 44.6225 57.2606 44.0452 56.0295 43.591Z" fill="#006A4D"/>
<path d="M50.0113 37.2467C53.4936 37.2467 56.3166 35.2138 56.3166 32.7061C56.3166 30.1985 53.4936 28.1656 50.0113 28.1656C46.529 28.1656 43.7061 30.1985 43.7061 32.7061C43.7061 35.2138 46.529 37.2467 50.0113 37.2467Z" fill="#006A4D"/>
<path d="M50.1013 11.402C52.3772 11.4021 54.2221 13.239 54.2222 15.5047C54.2222 17.3344 53.0188 18.8836 51.3571 19.4125C51.371 23.0099 51.2335 26.6017 51.2335 30.198C51.2335 30.55 51.1971 30.6553 51.0148 30.8229C50.5026 31.2949 49.5021 31.2932 49.0261 30.8194C48.8466 30.6407 48.7994 30.5466 48.7746 30.3534L48.7175 28.1673C48.7259 26.4371 48.7383 23.7367 48.7383 23.7367L48.759 19.3834C47.142 18.829 45.9795 17.3026 45.9795 15.5047C45.9796 13.2389 47.8252 11.402 50.1013 11.402Z" fill="#11B67A"/>
<path d="M65.8292 87.9068L69.9172 85.7871V90.7533L65.8292 92.873V87.9068Z" fill="#024731"/>
<path d="M65.8292 87.9068L54.0035 94.0387C51.8014 95.1804 48.1987 95.1804 45.9966 94.0387L24.5089 82.897C23.7311 82.4935 23.2285 81.9995 23 81.4792V87.081L45.7597 98.8822C48.0918 100.091 51.9083 100.091 54.2404 98.8822L65.8292 92.873V87.9068Z" fill="black"/>
<path d="M75.4911 82.897L69.9172 85.7871V90.7533L77 87.081V81.4792C76.7719 82 76.2689 82.494 75.4911 82.897Z" fill="black"/>
<path d="M69.0613 86.231L68.2561 86.6483V91.6146L69.0613 91.1973V86.231Z" fill="black"/>
</g>
<defs>
<clipPath id="clip0_15980_12306">
<rect width="100" height="100" fill="white"/>
</clipPath>
</defs>
</svg>
