<svg width="100" height="100" viewBox="0 0 100 100" fill="none" xmlns="http://www.w3.org/2000/svg">
<rect width="100" height="100" fill="#6CF479"/>
<path d="M68.7813 37.2367L67.7042 37.4175C67.622 36.5625 67.1205 35.7649 66.2078 35.2305C64.9416 34.4987 63.2644 34.4987 61.8913 35.1072C62.2366 33.9068 61.7515 32.657 60.4854 31.9253C59.2192 31.1935 57.5419 31.1935 56.1688 31.8019C56.5141 30.6015 56.029 29.3518 54.7629 28.62C53.4967 27.8883 51.8194 27.8883 50.4463 28.4967C50.7916 27.2963 50.3066 26.0466 49.0404 25.3148C47.7742 24.5831 46.0969 24.5831 44.7239 25.1915C45.0692 23.9911 44.5841 22.7413 43.3179 22.0096C41.5666 20.9983 39.0014 21.3683 37.5954 22.8482C36.5841 23.9171 36.4608 25.2573 37.1185 26.3097C35.6386 26.1206 34.0271 26.6056 33.0076 27.6663C31.9963 28.7351 31.8729 30.0753 32.5307 31.1277C31.0507 30.9386 29.4392 31.4237 28.4197 32.4844C27.4084 33.5532 27.2851 34.8934 27.9428 35.9458C26.4629 35.7567 24.8514 36.2418 23.8319 37.3024C22.8206 38.3713 22.6972 39.7115 23.355 40.7639C21.875 40.5748 20.2635 41.0599 19.244 42.1205C18.2245 43.1811 18.1094 44.5295 18.7671 45.5819C17.2872 45.3928 15.6757 45.8779 14.6562 46.9385C13.6449 48.0074 13.5215 49.3476 14.1793 50.4C12.6993 50.2109 11.0878 50.696 10.0683 51.7566C9.05701 52.8255 8.93368 54.1657 9.59143 55.2181C8.11148 55.029 6.49998 55.5141 5.48046 56.5747C4.97069 57.1091 4.69114 57.7093 4.61715 58.3095L0.0128468 59.329V63.5469H0.0210768C0.0457426 64.4678 0.547283 65.3475 1.5257 65.9148C2.75899 66.6301 4.38693 66.6384 5.73533 66.0793V66.885C5.76822 67.7977 6.27798 68.6692 7.23995 69.2283C8.47325 69.9436 10.093 69.9518 11.4414 69.3927V70.1902C11.4825 71.1029 11.9922 71.9744 12.9624 72.5335C14.1957 73.2488 15.8237 73.257 17.1721 72.698V73.4544C17.1885 74.3834 17.6901 75.2714 18.6767 75.847C19.91 76.5623 21.5297 76.5705 22.8781 76.0114L22.8946 76.7349C22.8946 77.6722 23.4043 78.5766 24.3992 79.1522C25.6325 79.8675 27.2604 79.8757 28.6088 79.3166V80.0648C28.6253 80.9939 29.1268 81.8901 30.1134 82.4574C31.8647 83.4687 34.43 83.0987 35.8359 81.6188C36.7074 80.6979 36.7321 79.5222 36.7321 79.5222V78.1902C38.0887 78.2478 39.5029 77.7627 40.4155 76.8007C41.024 76.1594 41.32 75.4194 41.3035 74.6959V73.3721C42.6601 73.4297 44.0825 72.9528 45.0034 71.9826C45.5954 71.3578 45.8996 70.6425 45.9078 69.9436V68.5541C47.2644 68.6116 48.6704 68.1265 49.5913 67.1646C50.1832 66.5397 50.4792 65.8244 50.4792 65.1173V63.7278C51.8358 63.7853 53.25 63.3085 54.1709 62.3383C54.8122 61.6641 55.1 60.8748 55.0506 60.1266V58.9097C56.4155 58.9755 57.8297 58.4904 58.7587 57.5202C59.3425 56.9036 59.6385 56.1965 59.6549 55.514V54.0917C61.0116 54.1492 62.4257 53.6723 63.3466 52.7021C63.9879 52.0279 64.2674 51.2469 64.2263 50.4987V49.2654C65.5912 49.3312 67.0054 48.8461 67.9262 47.8759C68.584 47.177 68.8635 46.3712 68.7977 45.5984V44.4473C70.1626 44.5131 71.5768 44.028 72.5141 43.0578C73.3938 42.1451 73.4349 40.9448 73.4349 40.9448V36.5542L68.7402 37.2449L68.7813 37.2367Z" fill="#024731"/>
<path d="M71.9328 34.0955C70.6666 33.3638 68.9893 33.3638 67.6163 33.9722C67.9616 32.7718 67.4765 31.5221 66.2103 30.7903C64.9441 30.0586 63.2669 30.0586 61.8938 30.667C62.2391 29.4666 61.754 28.2168 60.4878 27.4851C59.2217 26.7533 57.5444 26.7533 56.1713 27.3617C56.5166 26.1613 56.0315 24.9116 54.7653 24.1799C53.4992 23.4481 51.8219 23.4481 50.4488 24.0565C50.7941 22.8561 50.309 21.6064 49.0429 20.8746C47.7767 20.1429 46.0994 20.1429 44.7263 20.7513C45.0717 19.5509 44.5866 18.3011 43.3204 17.5694C41.5691 16.5581 39.0039 16.9281 37.5979 18.408C36.5866 19.4769 36.4633 20.8171 37.121 21.8695C35.6411 21.6804 34.0296 22.1655 33.01 23.2261C31.9987 24.295 31.8754 25.6351 32.5332 26.6875C31.0532 26.4984 29.4417 26.9835 28.4222 28.0442C27.4109 29.113 27.2876 30.4532 27.9453 31.5056C26.4654 31.3165 24.8539 31.8016 23.8343 32.8622C22.823 33.9311 22.6997 35.2713 23.3575 36.3237C21.8775 36.1346 20.266 36.6197 19.2465 37.6803C18.2352 38.7492 18.1119 40.0893 18.7696 41.1418C17.2897 40.9527 15.6782 41.4377 14.6586 42.4984C13.6473 43.5672 13.524 44.9074 14.1818 45.9598C12.7018 45.7707 11.0903 46.2558 10.0708 47.3165C9.05949 48.3853 8.93616 49.7255 9.59392 50.7779C8.11397 50.5888 6.50247 51.0739 5.48294 52.1345C4.47164 53.2034 4.34831 54.5435 5.00607 55.5959C3.52612 55.4068 1.91461 55.8919 0.89509 56.9526C-0.510865 58.4325 -0.231315 60.4551 1.52818 61.4664C2.79437 62.1982 4.47164 62.1982 5.84471 61.5898C5.49939 62.7902 5.98448 64.0399 7.25066 64.7716C8.51684 65.5034 10.1941 65.5034 11.5672 64.895C11.2219 66.0954 11.707 67.3451 12.9731 68.0769C14.2393 68.8086 15.9166 68.8086 17.2897 68.2002C16.9444 69.4006 17.4294 70.6504 18.6956 71.3821C19.9618 72.1139 21.6391 72.1139 23.0121 71.5054C22.6668 72.7058 23.1519 73.9556 24.4181 74.6873C25.6843 75.4191 27.3616 75.4191 28.7346 74.8107C28.3893 76.0111 28.8744 77.2608 30.1406 77.9926C31.8919 79.0039 34.4571 78.6339 35.8631 77.1539C36.8744 76.0851 36.9977 74.7449 36.3399 73.6925C37.8199 73.8816 39.4314 73.3965 40.4509 72.3359C41.4704 71.2752 41.5856 69.9268 40.9278 68.8744C42.4078 69.0635 44.0193 68.5784 45.0388 67.5178C46.0501 66.4489 46.1734 65.1088 45.5156 64.0563C46.9956 64.2454 48.6071 63.7604 49.6266 62.6997C50.6379 61.6309 50.7613 60.2907 50.1035 59.2383C51.5835 59.4274 53.195 58.9423 54.2145 57.8816C55.2258 56.8128 55.3491 55.4726 54.6913 54.4202C56.1713 54.6093 57.7828 54.1242 58.8023 53.0636C59.8136 51.9947 59.937 50.6546 59.2792 49.6022C60.7592 49.7913 62.3707 49.3061 63.3902 48.2455C64.4015 47.1767 64.5248 45.8365 63.8671 44.7841C65.347 44.9732 66.9585 44.4881 67.978 43.4275C68.9893 42.3586 69.1127 41.0184 68.4549 39.966C69.9349 40.1551 71.5464 39.67 72.5659 38.6094C73.9718 37.1294 73.6923 35.1068 71.9328 34.0955Z" fill="#C7FFC6"/>
<path d="M16.6633 63.9011C17.3308 63.9011 17.872 63.4814 17.872 62.9638C17.872 62.4461 17.3308 62.0265 16.6633 62.0265C15.9958 62.0265 15.4547 62.4461 15.4547 62.9638C15.4547 63.4814 15.9958 63.9011 16.6633 63.9011Z" fill="#11B67A"/>
<path d="M24.8339 68.4561C25.5014 68.4561 26.0425 68.0364 26.0425 67.5187C26.0425 67.0011 25.5014 66.5815 24.8339 66.5815C24.1664 66.5815 23.6253 67.0011 23.6253 67.5187C23.6253 68.0364 24.1664 68.4561 24.8339 68.4561Z" fill="#11B67A"/>
<path d="M47.9389 28.6783C48.6064 28.6783 49.1475 28.2587 49.1475 27.741C49.1475 27.2234 48.6064 26.8037 47.9389 26.8037C47.2714 26.8037 46.7303 27.2234 46.7303 27.741C46.7303 28.2587 47.2714 28.6783 47.9389 28.6783Z" fill="#11B67A"/>
<path d="M56.103 33.2325C56.7705 33.2325 57.3117 32.8129 57.3117 32.2952C57.3117 31.7775 56.7705 31.3579 56.103 31.3579C55.4355 31.3579 54.8944 31.7775 54.8944 32.2952C54.8944 32.8129 55.4355 33.2325 56.103 33.2325Z" fill="#00482F"/>
<path d="M9.55905 59.0827C10.2266 59.0827 10.7677 58.663 10.7677 58.1454C10.7677 57.6277 10.2266 57.2081 9.55905 57.2081C8.89155 57.2081 8.35042 57.6277 8.35042 58.1454C8.35042 58.663 8.89155 59.0827 9.55905 59.0827Z" fill="#11B67A"/>
<path d="M22.6243 44.8179C23.2918 44.8179 23.8329 44.3983 23.8329 43.8806C23.8329 43.363 23.2918 42.9433 22.6243 42.9433C21.9567 42.9433 21.4156 43.363 21.4156 43.8806C21.4156 44.3983 21.9567 44.8179 22.6243 44.8179Z" fill="#11B67A"/>
<path d="M15.7255 52.0532C16.393 52.0532 16.9341 51.6336 16.9341 51.1159C16.9341 50.5983 16.393 50.1786 15.7255 50.1786C15.058 50.1786 14.5169 50.5983 14.5169 51.1159C14.5169 51.6336 15.058 52.0532 15.7255 52.0532Z" fill="#11B67A"/>
<path d="M28.9898 38.1914C29.6574 38.1914 30.1985 37.7717 30.1985 37.2541C30.1985 36.7364 29.6574 36.3168 28.9898 36.3168C28.3223 36.3168 27.7812 36.7364 27.7812 37.2541C27.7812 37.7717 28.3223 38.1914 28.9898 38.1914Z" fill="#11B67A"/>
<path d="M35.3426 31.2927C36.0101 31.2927 36.5512 30.873 36.5512 30.3554C36.5512 29.8377 36.0101 29.418 35.3426 29.418C34.6751 29.418 34.134 29.8377 34.134 30.3554C34.134 30.873 34.6751 31.2927 35.3426 31.2927Z" fill="#11B67A"/>
<path d="M40.8988 25.4634C41.5663 25.4634 42.1075 25.0438 42.1075 24.5261C42.1075 24.0085 41.5663 23.5888 40.8988 23.5888C40.2313 23.5888 39.6902 24.0085 39.6902 24.5261C39.6902 25.0438 40.2313 25.4634 40.8988 25.4634Z" fill="#11B67A"/>
<path d="M32.4649 71.4734C33.1324 71.4734 33.6735 71.0538 33.6735 70.5362C33.6735 70.0185 33.1324 69.5988 32.4649 69.5988C31.7974 69.5988 31.2563 70.0185 31.2563 70.5362C31.2563 71.0538 31.7974 71.4734 32.4649 71.4734Z" fill="#11B67A"/>
<path d="M45.5237 57.2087C46.1912 57.2087 46.7323 56.789 46.7323 56.2714C46.7323 55.7537 46.1912 55.3341 45.5237 55.3341C44.8562 55.3341 44.3151 55.7537 44.3151 56.2714C44.3151 56.789 44.8562 57.2087 45.5237 57.2087Z" fill="#00482F"/>
<path d="M38.625 64.4358C39.2925 64.4358 39.8336 64.0162 39.8336 63.4985C39.8336 62.9809 39.2925 62.5612 38.625 62.5612C37.9574 62.5612 37.4163 62.9809 37.4163 63.4985C37.4163 64.0162 37.9574 64.4358 38.625 64.4358Z" fill="#11B67A"/>
<path d="M51.8829 50.5733C52.5504 50.5733 53.0915 50.1536 53.0915 49.636C53.0915 49.1183 52.5504 48.6987 51.8829 48.6987C51.2154 48.6987 50.6742 49.1183 50.6742 49.636C50.6742 50.1536 51.2154 50.5733 51.8829 50.5733Z" fill="#00482F"/>
<path d="M58.2485 43.6754C58.916 43.6754 59.4571 43.2557 59.4571 42.7381C59.4571 42.2204 58.916 41.8008 58.2485 41.8008C57.5809 41.8008 57.0398 42.2204 57.0398 42.7381C57.0398 43.2557 57.5809 43.6754 58.2485 43.6754Z" fill="#00482F"/>
<path d="M63.8047 37.8542C64.4722 37.8542 65.0133 37.4345 65.0133 36.9168C65.0133 36.3992 64.4722 35.9796 63.8047 35.9796C63.1372 35.9796 62.5961 36.3992 62.5961 36.9168C62.5961 37.4345 63.1372 37.8542 63.8047 37.8542Z" fill="#00482F"/>
<path d="M56.0216 55.9581L39.7339 46.2891C39.7339 46.2891 34.628 54.8399 40.9343 68.8913C40.9343 68.8913 41.9456 70.289 40.4574 72.3527V76.7926C41.0658 76.1512 41.3618 75.4113 41.3454 74.6877V73.364C42.702 73.4216 44.1244 72.9447 45.0453 71.9745C45.6373 71.3496 45.9414 70.6343 45.9497 69.9354V68.5459C47.3063 68.6035 48.7123 68.1184 49.6331 67.1564C50.2251 66.5316 50.5211 65.8162 50.5211 65.1092V63.7197C51.8777 63.7772 53.2919 63.3003 54.2127 62.3301C54.8541 61.6559 55.1418 60.8666 55.0925 60.1184V58.9016C55.4214 58.918 55.742 58.9016 56.0709 58.8523L56.0216 55.9581Z" fill="black"/>
<path d="M59.2324 77.5736C74.4924 83.7647 90.7308 79.5715 94.5786 69.5736C98.4265 59.5675 89.1768 46.437 73.9251 40.2459C58.6651 34.0548 43.1749 37.1462 39.3271 47.1441C35.4792 57.1502 43.9807 71.3825 59.2406 77.5736H59.2324Z" fill="#006A4D"/>
<path d="M75.0673 74.4813C70.6275 74.4813 66.0067 73.5605 61.7066 71.8174C48.0253 66.2676 39.6389 53.3262 43.3964 43.5667C45.6903 37.6141 52.3254 34.0622 61.1476 34.0622C65.7683 34.0622 70.7015 35.0735 75.4209 36.9892C89.4722 42.6952 97.9902 54.9213 94.4054 64.245C92.0128 70.4608 84.4239 74.4813 75.0673 74.4813Z" fill="white"/>
<path d="M78.4664 28.7509C73.1386 26.5885 67.7861 25.5608 62.9023 25.5608C53.8088 25.5608 46.3679 29.1456 43.8684 35.6574C40.0205 45.6635 48.522 59.8957 63.782 66.0868C68.6741 68.0765 73.673 68.9892 78.3266 68.9892C88.1848 68.9892 96.5136 64.8782 99.1282 58.0786C102.976 48.0725 93.7264 34.942 78.4746 28.7509H78.4664Z" fill="#006A4D"/>
<path d="M68.8151 54.5843C74.8665 57.0427 81.3125 55.3736 82.8336 51.4106C84.3628 47.4394 80.6959 42.2349 74.6363 39.7766C68.5849 37.3182 62.4349 38.5433 60.9138 42.5145C59.3845 46.4857 62.7555 52.126 68.8151 54.5843Z" fill="black"/>
<path d="M47.7773 49.856C47.7773 49.856 49.4875 45.2271 58.4001 47.1181C58.4001 47.1181 48.805 40.261 47.7773 49.856Z" fill="#11B67A"/>
<path d="M50.1347 33.2885C50.1347 33.2885 54.443 30.8795 60.001 38.0902C60.001 38.0902 58.6526 27.155 50.1347 33.2885Z" fill="#11B67A"/>
<path d="M66.7649 27.5745C66.7649 27.5745 71.0074 28.9229 69.6837 37.0298C69.6837 37.0298 75.4555 28.0925 66.7649 27.5745Z" fill="#11B67A"/>
<path d="M85.67 33.2303C85.67 33.2303 86.6073 37.5797 78.9115 40.4656C78.9115 40.4656 89.5343 41.033 85.67 33.2303Z" fill="#11B67A"/>
<path d="M95.1879 45.5312C95.1879 45.5312 93.2393 49.5352 85.412 47.0604C85.412 47.0604 93.4202 54.0573 95.1879 45.5312Z" fill="#11B67A"/>
<path d="M92.3647 60.0841C92.3647 60.0841 88.1222 61.4407 84.5127 54.0574C84.5127 54.0574 84.9814 64.6884 92.3647 60.0841Z" fill="#11B67A"/>
<path d="M77.1657 66.2673C77.1657 66.2673 73.1533 62.6497 75.8419 57.2314C75.8419 57.2314 68.4257 63.439 77.1657 66.2673Z" fill="#11B67A"/>
<path d="M59.8771 61.3585C59.8771 61.3585 58.5123 57.1653 65.4352 54.1149C65.4352 54.1149 55.3715 53.9176 59.8771 61.3585Z" fill="#11B67A"/>
<path d="M76.0382 42.3424C71.7217 39.5387 65.8594 39.6127 63.0393 41.8244C63.0393 41.8244 71.7546 39.588 75.4051 47.8018C75.4051 47.8018 78.7679 46.1903 81.7525 49.7421C81.2263 46.9467 79.0063 44.2828 76.0382 42.3506V42.3424Z" fill="white"/>
<path d="M93.452 64.8783C89.5466 67.5094 84.2187 68.9811 78.3318 68.9811C73.6782 68.9811 68.6792 68.0602 63.7872 66.0787C53 61.6964 45.592 53.3018 43.5365 45.2196C43.1501 43.7972 42.9774 41.9638 42.9774 41.9638C42.6732 43.0491 42.2456 45.3019 42.2456 45.3019C40.0668 55.0696 48.3875 67.0736 61.485 72.3932C65.8509 74.1692 70.5538 75.1065 75.0759 75.1065C84.0707 75.1065 91.4952 71.4477 94.4469 65.6841C94.9895 64.6893 95.3842 63.3984 95.3842 63.3984C94.7922 63.9575 93.4602 64.8783 93.4602 64.8783H93.452ZM75.0677 73.8649C70.8663 73.8649 66.3606 73.0345 61.9455 71.2421C50.2949 66.5145 43.0103 56.5906 43.1501 48.1796C46.1346 55.8671 53.5097 63.2422 63.3185 67.2216C68.1448 69.1784 73.3329 70.2144 78.3318 70.2144C83.3308 70.2144 88.2557 69.1044 92.0378 67.1394C88.675 71.3901 82.3277 73.8649 75.0677 73.8649Z" fill="#6CF479"/>
</svg>
