<svg width="100" height="100" viewBox="0 0 100 100" fill="none" xmlns="http://www.w3.org/2000/svg">
<rect width="100" height="100" fill="#6CF479"/>
<path d="M44.9527 9.58969C45.3022 9.29392 45.6159 8.96229 45.9386 8.63962C46.7003 7.84192 48.86 5.97762 52.0236 6.33614C53.341 6.48851 54.3626 7.08903 55.0706 7.69851C56.854 4.59733 60.2058 2.5 64.0415 2.5C69.7591 2.5 74.3925 7.13384 74.3925 12.8522V13.8471H31.4023C38.993 13.8471 42.6315 11.5884 44.9437 9.58969H44.9527Z" fill="white"/>
<path d="M22.1177 59.785C23.3365 59.7492 24.5374 59.5878 25.7024 59.301V26.0216C24.5374 25.7348 23.3365 25.5734 22.1177 25.5376V59.785ZM11.0588 56.164C12.1701 57.0334 13.371 57.7594 14.6435 58.333V27.0165C13.371 27.5811 12.1701 28.2982 11.0588 29.1676V56.164ZM34.4045 31.2918C33.9922 30.8257 33.5083 30.2969 33.0154 29.8488C32.9526 29.795 32.8809 29.7412 32.8182 29.6874V55.6352C33.1319 55.3663 33.4455 55.0884 33.7502 54.7926L36.403 52.1217V33.5594L34.4045 31.2918Z" fill="black"/>
<path d="M85.1199 66.9825C84.9048 66.14 84.1699 65.5395 83.3096 65.4768L71.5247 64.6522C71.462 64.6522 71.3993 64.6522 71.3365 64.6522C70.754 64.6522 70.1894 64.8404 69.7144 65.1899L59.2201 73.1042C58.8975 73.3462 59.0409 73.8661 59.4441 73.9109L70.9064 75.0851C72.3313 75.2285 73.5054 76.2682 73.8369 77.6574L75.6293 85.258C75.7279 85.6882 76.1132 85.9571 76.5076 85.9571C76.6958 85.9571 76.8839 85.8944 77.0452 85.7689C80.3343 83.1696 83.7218 79.9071 86.7419 75.8738C87.0646 75.4346 87.1722 74.8699 87.0377 74.3501L85.1289 66.9915L85.1199 66.9825ZM94.3416 59.1668L93.6963 56.1463C93.5171 55.3128 92.7912 54.7302 91.9488 54.7302C91.9219 54.7302 91.8861 54.7302 91.8592 54.7302C89.6636 54.8377 85.326 55.0529 80.5314 55.259C80.0744 55.2769 79.6441 55.4741 79.3305 55.7968L72.627 62.6355C72.3581 62.9044 72.5374 63.3705 72.9138 63.3974L83.3992 64.1323C84.842 64.2309 86.0519 65.2437 86.4193 66.642L87.9966 72.7188C88.0504 72.9339 88.2475 73.0594 88.4357 73.0594C88.5791 73.0594 88.7225 72.9967 88.8032 72.8533C91.0078 69.3936 92.9077 65.4499 94.2699 60.9505C94.4492 60.3769 94.4671 59.7584 94.3327 59.1668H94.3416ZM70.763 76.4205L57.1231 75.0223C56.9349 75.0044 56.7556 74.9954 56.5674 74.9954C56.1104 74.9954 55.6623 75.0492 55.2142 75.1657C50.7153 76.3399 39.3785 79.925 37.5772 86.5487C37.5772 86.5487 35.3188 93.8624 48.8601 94.9201C49.8191 94.9918 50.787 95.0366 51.737 95.0366C59.5607 95.0366 67.2051 92.5628 73.7383 88.1799C74.0071 87.4898 74.2043 86.9789 74.4642 86.2887L72.5015 77.9711C72.3044 77.1376 71.5964 76.5191 70.745 76.4295L70.763 76.4205Z" fill="#C7FFC6"/>
<path d="M50.3299 77.9683C52.3821 77.2692 55.5009 76.2385 56.4419 76.0592L68.5852 77.2244L63.8623 79.743C63.2171 80.0836 62.4911 80.227 61.7652 80.1463L50.4284 78.8377C49.9534 78.7839 49.8818 78.1207 50.3388 77.9683H50.3299Z" fill="black"/>
<path d="M61.6307 72.9278L71.0407 65.8919L81.4006 66.5641L72.7614 73.8151L61.6307 72.9278Z" fill="black"/>
<path d="M74.8315 62.391L80.3251 56.5651L90.2728 56.1797L84.9404 62.9377L74.8315 62.391Z" fill="black"/>
<path d="M94.3412 59.1635L93.696 56.143C93.6064 55.7127 93.3555 55.3453 93.0328 55.0943L85.3167 64.8998C85.8454 65.339 86.2397 65.9395 86.419 66.6386L87.6557 71.3979L87.9963 72.7155C88.0949 73.0919 88.5968 73.1815 88.8118 72.8499C91.0165 69.3902 92.9164 65.4465 94.2785 60.9471C94.4578 60.3735 94.4757 59.755 94.3412 59.1635ZM85.1196 66.9792C84.9941 66.4862 84.6893 66.0829 84.2861 65.814L72.788 75.9063C73.2989 76.3544 73.6753 76.9639 73.8366 77.6541L75.6378 85.3084C75.7902 85.9448 76.5431 86.2137 77.0629 85.8103C81.1763 82.6554 84.9672 78.389 86.7595 76.2558C87.1359 75.8077 87.2614 75.2161 87.118 74.6604L85.1196 66.9881V66.9792ZM72.322 77.4658C72.2951 77.421 72.2772 77.3672 72.2414 77.3314C72.1697 77.2238 72.08 77.1252 71.9904 77.0266C71.9187 76.9549 71.847 76.8832 71.7664 76.8295C69.7141 78.0395 62.24 82.2162 60.5014 83.2738C60.5014 83.2738 53.1078 87.2175 53.8426 91.3136C54.3714 94.2176 56.8538 94.4954 59.9546 94.119C65.2062 92.9538 70.3055 90.6414 74.7596 87.4774C74.7954 87.4506 72.5191 77.9678 72.5191 77.9678C72.4743 77.7885 72.4027 77.6272 72.322 77.4748V77.4658Z" fill="#11B67A"/>
<path d="M92.5044 31.8464C84.4208 24.452 72.8869 23.717 62.8407 29.283C62.8048 29.3009 62.778 29.3099 62.7421 29.3278C60.2955 30.6991 57.9385 32.438 55.7429 34.5442L34.6825 55.7416C31.035 59.3895 26.1867 61.2987 21.0336 61.1463C15.8805 60.9849 11.1576 58.7621 7.72521 54.8722C1.57738 47.908 1.57738 37.4034 7.72521 30.4482C11.0232 26.7196 15.5579 24.4968 20.4959 24.201C25.4518 23.9052 30.2016 25.5544 33.8939 28.8348C34.3868 29.274 34.8528 29.776 35.3995 30.3854L45.6518 42.0104L47.6682 40.2357L37.4159 28.6018C36.8065 27.9206 36.2867 27.356 35.6862 26.8182C31.4562 23.0537 26.0074 21.1536 20.3346 21.5032C14.6707 21.8438 9.48173 24.3803 5.70879 28.6556C-1.33523 36.6326 -1.33523 48.6699 5.70879 56.6469C9.63409 61.0925 15.0471 63.638 20.953 63.8262C21.1681 63.8262 21.3831 63.8352 21.5982 63.8352C27.1904 63.8352 32.6213 61.5944 36.5914 57.6328L57.6248 36.4623C59.6681 34.4994 61.8638 32.8951 64.1401 31.6313C72.6449 27.58 78.4164 32.2766 79.4918 33.2715C82.4671 36.0052 85.5769 44.0181 84.2416 53.7429C85.2005 53.6981 86.1235 53.6533 86.9749 53.6174C87.5754 48.7685 87.1183 44.7172 86.5179 41.9118C85.5321 37.2959 83.6322 33.4239 81.3111 31.2907C80.7286 30.7529 79.0079 29.3188 76.391 28.3329C81.6247 28.3329 86.6433 30.1345 90.6851 33.8272C96.1967 38.8644 98.5895 49.1897 96.6538 59.515C94.8524 69.1143 87.8711 86.619 61.5322 97.491H68.0564C91.0705 86.0723 97.523 69.437 99.2975 60.008C101.404 48.8043 98.6702 37.4841 92.4955 31.8374L92.5044 31.8464Z" fill="#C7FFC6"/>
<path d="M40.7138 94.3002C36.681 95.6357 32.8184 96.6844 29.3681 97.5H39.5399C41.2785 96.9533 43.0529 96.3617 44.8542 95.7074C43.259 95.3668 41.8878 94.8918 40.7138 94.3002Z" fill="#C7FFC6"/>
<path d="M47.8204 48.2601L44.2356 51.8721V77.9364C45.4096 77.3 46.6284 76.7354 47.8204 76.2334V48.2601Z" fill="#11B67A"/>
<path d="M68.9078 64.1138C69.2215 63.8808 69.5709 63.6926 69.9383 63.5581V31.3005C68.7822 31.417 67.5903 31.7038 66.3536 32.1699V66.0409L68.9078 64.1138Z" fill="#11B67A"/>
<path d="M56.5763 73.6504C56.8093 73.6504 57.0422 73.6594 57.2662 73.6863L57.7323 73.7311C57.6337 73.0857 57.8757 72.4315 58.4044 72.0281L58.8705 71.6786V37.1264L58.5837 37.4132L55.2857 40.7385V73.7938C55.7069 73.7132 56.1371 73.6594 56.5673 73.6594L56.5763 73.6504Z" fill="#11B67A"/>
<path d="M78.3626 54.866C78.9182 54.2924 79.671 53.9608 80.4686 53.9249C80.6478 53.9249 80.8182 53.907 80.9884 53.898V37.7737C80.2087 36.1514 79.3304 34.9593 78.5776 34.2692C78.2012 33.9196 77.807 33.6059 77.4037 33.3101V55.834L78.3626 54.8571V54.866Z" fill="#11B67A"/>
<path d="M22.118 86.1831H25.7028V64.8065C24.5198 65.0306 23.3279 65.1561 22.118 65.1829V86.1921V86.1831Z" fill="#11B67A"/>
<path d="M0 86.1834H3.58474V56.1486C1.93576 53.9437 0.734872 51.5058 0 48.9603V86.1834Z" fill="#11B67A"/>
<path d="M36.7616 84.8981V59.3447C35.6593 60.3486 34.4494 61.2359 33.1768 61.9888V86.1887H36.2956C36.4121 85.7496 36.5734 85.3193 36.7616 84.8981Z" fill="#11B67A"/>
<path d="M11.0588 86.1812H14.6435V64.0875C13.4068 63.6842 12.2059 63.1823 11.0588 62.5728V86.1812Z" fill="#11B67A"/>
</svg>
