<svg width="100" height="100" viewBox="0 0 100 100" fill="none" xmlns="http://www.w3.org/2000/svg">
<rect width="100" height="100" fill="#6CF479"/>
<path d="M44.9527 9.67758C45.3022 9.38181 45.6159 9.05018 45.9386 8.72751C46.7003 7.92981 48.86 6.06552 52.0236 6.42403C53.341 6.5764 54.3626 7.17692 55.0706 7.7864C56.854 4.68522 60.2058 2.58789 64.0415 2.58789C69.7591 2.58789 74.3925 7.22173 74.3925 12.9401V13.935H31.4023C38.993 13.935 42.6315 11.6763 44.9437 9.67758H44.9527Z" fill="white"/>
<path d="M22.1177 59.8729C23.3365 59.8371 24.5374 59.6757 25.7024 59.3889V26.1095C24.5374 25.8227 23.3365 25.6613 22.1177 25.6255V59.8729ZM11.0588 56.2519C12.1701 57.1213 13.371 57.8473 14.6435 58.4209V27.1044C13.371 27.669 12.1701 28.3861 11.0588 29.2555V56.2519ZM34.4045 31.3797C33.9922 30.9136 33.5083 30.3848 33.0154 29.9367C32.9526 29.8829 32.8809 29.8291 32.8182 29.7753V55.7231C33.1319 55.4542 33.4455 55.1763 33.7502 54.8805L36.403 52.2096V33.6473L34.4045 31.3797Z" fill="black"/>
<path d="M85.1199 67.0704C84.9048 66.2279 84.1699 65.6274 83.3096 65.5647L71.5247 64.7401C71.462 64.7401 71.3993 64.7401 71.3365 64.7401C70.754 64.7401 70.1894 64.9283 69.7144 65.2778L59.2201 73.1921C58.8975 73.4341 59.0409 73.954 59.4441 73.9988L70.9064 75.1729C72.3313 75.3164 73.5054 76.356 73.8369 77.7453L75.6293 85.3459C75.7279 85.7761 76.1132 86.045 76.5076 86.045C76.6958 86.045 76.8839 85.9823 77.0452 85.8568C80.3343 83.2575 83.7218 79.995 86.7419 75.9617C87.0646 75.5225 87.1722 74.9578 87.0377 74.438L85.1289 67.0794L85.1199 67.0704ZM94.3416 59.2547L93.6963 56.2342C93.5171 55.4007 92.7912 54.8181 91.9488 54.8181C91.9219 54.8181 91.8861 54.8181 91.8592 54.8181C89.6636 54.9256 85.326 55.1407 80.5314 55.3469C80.0744 55.3648 79.6441 55.562 79.3305 55.8847L72.627 62.7234C72.3581 62.9923 72.5374 63.4584 72.9138 63.4852L83.3992 64.2202C84.842 64.3188 86.0519 65.3316 86.4193 66.7298L87.9966 72.8067C88.0504 73.0218 88.2475 73.1473 88.4357 73.1473C88.5791 73.1473 88.7225 73.0846 88.8032 72.9412C91.0078 69.4815 92.9077 65.5378 94.2699 61.0384C94.4492 60.4647 94.4671 59.8463 94.3327 59.2547H94.3416ZM70.763 76.5084L57.1231 75.1102C56.9349 75.0923 56.7556 75.0833 56.5674 75.0833C56.1104 75.0833 55.6623 75.1371 55.2142 75.2536C50.7153 76.4277 39.3785 80.0129 37.5772 86.6366C37.5772 86.6366 35.3188 93.9503 48.8601 95.0079C49.8191 95.0796 50.787 95.1245 51.737 95.1245C59.5607 95.1245 67.2051 92.6507 73.7383 88.2678C74.0071 87.5777 74.2043 87.0668 74.4642 86.3766L72.5015 78.059C72.3044 77.2255 71.5964 76.607 70.745 76.5174L70.763 76.5084Z" fill="#C7FFC6"/>
<path d="M50.3299 78.0562C52.3821 77.3571 55.5009 76.3264 56.4419 76.1471L68.5852 77.3123L63.8623 79.8309C63.2171 80.1715 62.4911 80.3149 61.7652 80.2342L50.4284 78.9256C49.9534 78.8718 49.8818 78.2086 50.3388 78.0562H50.3299Z" fill="black"/>
<path d="M61.6307 73.0157L71.0407 65.9798L81.4006 66.652L72.7614 73.903L61.6307 73.0157Z" fill="black"/>
<path d="M74.8315 62.4789L80.3251 56.653L90.2728 56.2676L84.9404 63.0256L74.8315 62.4789Z" fill="black"/>
<path d="M94.3412 59.2514L93.696 56.2309C93.6064 55.8006 93.3555 55.4332 93.0328 55.1822L85.3167 64.9877C85.8454 65.4269 86.2397 66.0274 86.419 66.7265L87.6557 71.4858L87.9963 72.8034C88.0949 73.1798 88.5968 73.2694 88.8118 72.9378C91.0165 69.4781 92.9164 65.5344 94.2785 61.035C94.4578 60.4614 94.4757 59.8429 94.3412 59.2514ZM85.1196 67.0671C84.9941 66.5741 84.6893 66.1708 84.2861 65.9019L72.788 75.9942C73.2989 76.4423 73.6753 77.0518 73.8366 77.7419L75.6378 85.3963C75.7902 86.0327 76.5431 86.3016 77.0629 85.8982C81.1763 82.7433 84.9672 78.4769 86.7595 76.3437C87.1359 75.8956 87.2614 75.304 87.118 74.7483L85.1196 67.076V67.0671ZM72.322 77.5537C72.2951 77.5089 72.2772 77.4551 72.2414 77.4193C72.1697 77.3117 72.08 77.2131 71.9904 77.1145C71.9187 77.0428 71.847 76.9711 71.7664 76.9174C69.7141 78.1273 62.24 82.3041 60.5014 83.3617C60.5014 83.3617 53.1078 87.3054 53.8426 91.4015C54.3714 94.3055 56.8538 94.5833 59.9546 94.2069C65.2062 93.0417 70.3055 90.7293 74.7596 87.5653C74.7954 87.5385 72.5191 78.0556 72.5191 78.0556C72.4743 77.8764 72.4027 77.7151 72.322 77.5627V77.5537Z" fill="#11B67A"/>
<path d="M92.5044 31.9343C84.4208 24.5399 72.8869 23.8049 62.8407 29.3709C62.8048 29.3888 62.778 29.3978 62.7421 29.4157C60.2955 30.787 57.9385 32.5258 55.7429 34.6321L34.6825 55.8295C31.035 59.4774 26.1867 61.3865 21.0336 61.2342C15.8805 61.0728 11.1576 58.85 7.72521 54.9601C1.57738 47.9959 1.57738 37.4913 7.72521 30.5361C11.0232 26.8075 15.5579 24.5847 20.4959 24.2889C25.4518 23.9931 30.2016 25.6423 33.8939 28.9227C34.3868 29.3619 34.8528 29.8638 35.3995 30.4733L45.6518 42.0983L47.6682 40.3236L37.4159 28.6897C36.8065 28.0085 36.2867 27.4439 35.6862 26.9061C31.4562 23.1416 26.0074 21.2415 20.3346 21.591C14.6707 21.9316 9.48173 24.4682 5.70879 28.7435C-1.33523 36.7205 -1.33523 48.7578 5.70879 56.7348C9.63409 61.1804 15.0471 63.7259 20.953 63.9141C21.1681 63.9141 21.3831 63.9231 21.5982 63.9231C27.1904 63.9231 32.6213 61.6823 36.5914 57.7207L57.6248 36.5502C59.6681 34.5873 61.8638 32.983 64.1401 31.7192C72.6449 27.6679 78.4164 32.3645 79.4918 33.3594C82.4671 36.0931 85.5769 44.106 84.2416 53.8308C85.2005 53.786 86.1235 53.7411 86.9749 53.7053C87.5754 48.8563 87.1183 44.8051 86.5179 41.9997C85.5321 37.3838 83.6322 33.5118 81.3111 31.3786C80.7286 30.8408 79.0079 29.4067 76.391 28.4208C81.6247 28.4208 86.6433 30.2224 90.6851 33.9151C96.1967 38.9523 98.5895 49.2776 96.6538 59.6029C94.8524 69.2022 87.8711 86.7069 61.5322 97.5789H68.0564C91.0705 86.1601 97.523 69.5249 99.2975 60.0959C101.404 48.8922 98.6702 37.572 92.4955 31.9253L92.5044 31.9343Z" fill="#C7FFC6"/>
<path d="M40.7138 94.3881C36.681 95.7236 32.8184 96.7723 29.3681 97.5879H39.5399C41.2785 97.0412 43.0529 96.4496 44.8542 95.7953C43.259 95.4547 41.8878 94.9797 40.7138 94.3881Z" fill="#C7FFC6"/>
<path d="M47.8204 48.3479L44.2356 51.96V78.0243C45.4096 77.3879 46.6284 76.8232 47.8204 76.3213V48.3479Z" fill="#11B67A"/>
<path d="M68.9078 64.2017C69.2215 63.9687 69.5709 63.7805 69.9383 63.646V31.3884C68.7822 31.5049 67.5903 31.7917 66.3536 32.2578V66.1288L68.9078 64.2017Z" fill="#11B67A"/>
<path d="M56.5763 73.7383C56.8093 73.7383 57.0422 73.7473 57.2662 73.7741L57.7323 73.819C57.6337 73.1736 57.8757 72.5193 58.4044 72.116L58.8705 71.7665V37.2143L58.5837 37.5011L55.2857 40.8264V73.8817C55.7069 73.801 56.1371 73.7473 56.5673 73.7473L56.5763 73.7383Z" fill="#11B67A"/>
<path d="M78.3626 54.9539C78.9182 54.3803 79.671 54.0487 80.4686 54.0128C80.6478 54.0128 80.8182 53.9949 80.9884 53.9859V37.8616C80.2087 36.2393 79.3304 35.0472 78.5776 34.3571C78.2012 34.0075 77.807 33.6938 77.4037 33.398V55.9219L78.3626 54.945V54.9539Z" fill="#11B67A"/>
<path d="M22.118 86.271H25.7028V64.8944C24.5198 65.1185 23.3279 65.2439 22.118 65.2708V86.28V86.271Z" fill="#11B67A"/>
<path d="M0 86.2713H3.58474V56.2365C1.93576 54.0316 0.734872 51.5937 0 49.0482V86.2713Z" fill="#11B67A"/>
<path d="M36.7616 84.986V59.4326C35.6593 60.4364 34.4494 61.3238 33.1768 62.0767V86.2766H36.2956C36.4121 85.8374 36.5734 85.4072 36.7616 84.986Z" fill="#11B67A"/>
<path d="M11.0588 86.2691H14.6435V64.1754C13.4068 63.7721 12.2059 63.2701 11.0588 62.6607V86.2691Z" fill="#11B67A"/>
</svg>
