<svg width="100" height="100" viewBox="0 0 100 100" fill="none" xmlns="http://www.w3.org/2000/svg">
<rect width="100" height="100" fill="#6CF479"/>
<path d="M49.9447 67.3094C66.8266 67.3094 80.5121 61.4749 80.5121 54.2776C80.5121 47.0803 66.8266 41.2458 49.9447 41.2458C33.0627 41.2458 19.3772 47.0803 19.3772 54.2776C19.3772 61.4749 33.0627 67.3094 49.9447 67.3094Z" fill="#11B67A"/>
<path fill-rule="evenodd" clip-rule="evenodd" d="M40.9253 62.4862C40.9253 64.6112 44.9633 66.3305 49.9448 66.3305C54.9262 66.3305 58.9642 64.6112 58.9642 62.4862C58.9642 60.3613 54.9262 56.9843 49.9448 56.9843C44.9633 56.9843 40.9253 60.3701 40.9253 62.4862Z" fill="#1A1A1A"/>
<path fill-rule="evenodd" clip-rule="evenodd" d="M49.9448 40.2675C31.7824 40.2675 17.0674 46.5365 17.0674 54.278C17.0674 62.0195 31.7912 68.2885 49.9448 68.2885C68.0983 68.2885 82.8222 62.0195 82.8222 54.278C82.8222 46.5365 68.0983 40.2675 49.9448 40.2675ZM49.9448 67.301C33.0608 67.301 19.3774 61.464 19.3774 54.2692C19.3774 47.0744 33.0608 41.2374 49.9448 41.2374C66.8287 41.2374 80.5122 47.0744 80.5122 54.2692C80.5122 61.464 66.8287 67.301 49.9448 67.301Z" fill="black"/>
<path fill-rule="evenodd" clip-rule="evenodd" d="M30.7248 75.2538C30.8923 75.1039 31.0863 74.954 31.2803 74.8042L30.4251 73.6579C30.2399 73.7725 30.0724 73.8872 29.8961 74.0018L30.7248 75.2538Z" fill="#11B67A"/>
<path fill-rule="evenodd" clip-rule="evenodd" d="M69.1476 75.2451L69.9764 73.993C69.8089 73.8872 69.6414 73.7726 69.465 73.6668L68.6098 74.813C68.8038 74.9541 68.9801 75.104 69.1476 75.2539V75.2451Z" fill="#11B67A"/>
<path fill-rule="evenodd" clip-rule="evenodd" d="M70.4262 79.7069C70.2675 80.0243 70.0647 80.3418 69.7914 80.6592C66.9613 83.9744 58.365 86.0377 49.9363 86.0377C41.5075 86.0377 32.9113 83.9744 30.0811 80.6592C29.8695 80.4123 29.702 80.1654 29.5609 79.9185L27.1892 76.3299C26.3428 77.3792 25.8755 78.499 25.8755 79.6716C25.8755 85.3323 36.6495 89.926 49.9363 89.926C63.223 89.926 73.997 85.3323 73.997 79.6716C73.997 78.499 73.5209 77.3704 72.6657 76.3211L70.4174 79.7157L70.4262 79.7069Z" fill="#006A4D"/>
<path fill-rule="evenodd" clip-rule="evenodd" d="M49.9448 36.6874C27.8237 36.6874 9.89062 44.3319 9.89062 53.7575V56.2792C9.89062 65.7048 27.8237 73.3493 49.9448 73.3493C72.0658 73.3493 89.999 65.7048 89.999 56.2792V53.7575C89.999 44.3319 72.0658 36.6874 49.9448 36.6874ZM76.6858 41.6868C77.5586 41.6868 78.264 41.9866 78.264 42.3569C78.264 42.7272 77.5586 43.027 76.6858 43.027C75.8129 43.027 75.1076 42.7272 75.1076 42.3569C75.1076 41.9866 75.8129 41.6868 76.6858 41.6868ZM49.9448 36.9696C50.8176 36.9696 51.523 37.2694 51.523 37.6397C51.523 38.01 50.8176 38.3098 49.9448 38.3098C49.0719 38.3098 48.3666 38.01 48.3666 37.6397C48.3666 37.2694 49.0719 36.9696 49.9448 36.9696ZM23.2038 41.6868C24.0767 41.6868 24.782 41.9866 24.782 42.3569C24.782 42.7272 24.0767 43.027 23.2038 43.027C22.331 43.027 21.6256 42.7272 21.6256 42.3569C21.6256 41.9866 22.331 41.6868 23.2038 41.6868ZM12.1212 54.4276C11.2484 54.4276 10.5431 54.1278 10.5431 53.7575C10.5431 53.3872 11.2484 53.0874 12.1212 53.0874C12.9941 53.0874 13.6994 53.3872 13.6994 53.7575C13.6994 54.1278 12.9941 54.4276 12.1212 54.4276ZM23.2038 65.8282C22.331 65.8282 21.6256 65.5285 21.6256 65.1581C21.6256 64.7878 22.331 64.488 23.2038 64.488C24.0767 64.488 24.782 64.7878 24.782 65.1581C24.782 65.5285 24.0767 65.8282 23.2038 65.8282ZM49.9448 70.5454C49.0719 70.5454 48.3666 70.2457 48.3666 69.8753C48.3666 69.505 49.0719 69.2052 49.9448 69.2052C50.8176 69.2052 51.523 69.505 51.523 69.8753C51.523 70.2457 50.8176 70.5454 49.9448 70.5454ZM76.6858 65.8282C75.8129 65.8282 75.1076 65.5285 75.1076 65.1581C75.1076 64.7878 75.8129 64.488 76.6858 64.488C77.5586 64.488 78.264 64.7878 78.264 65.1581C78.264 65.5285 77.5586 65.8282 76.6858 65.8282ZM49.9448 68.9231C30.2924 68.9231 14.3607 62.1338 14.3607 53.7575C14.3607 45.3812 30.2924 38.5919 49.9448 38.5919C69.5972 38.5919 85.5289 45.3812 85.5289 53.7575C85.5289 62.1338 69.5972 68.9231 49.9448 68.9231ZM87.7595 54.4276C86.8867 54.4276 86.1813 54.1278 86.1813 53.7575C86.1813 53.3872 86.8867 53.0874 87.7595 53.0874C88.6324 53.0874 89.3377 53.3872 89.3377 53.7575C89.3377 54.1278 88.6324 54.4276 87.7595 54.4276Z" fill="#006A4D"/>
<path d="M24.4648 56.412C24.165 52.3826 30.5219 48.4854 39.5854 46.6161C39.6736 45.0731 42.248 43.6095 45.8188 42.9482C45.7923 42.9482 45.7659 42.9482 45.7394 42.9482C31.9942 43.7241 21.2203 49.0585 21.6258 54.6221C21.8374 57.5142 25.3553 60.7589 30.3632 62.249C27.2244 60.9264 24.6323 58.5105 24.4736 56.412H24.4648Z" fill="white"/>
<path fill-rule="evenodd" clip-rule="evenodd" d="M68.0899 79.5122C65.2156 81.0464 61.301 82.2015 56.7957 82.801C55.9669 82.9068 55.6143 82.2808 55.87 81.5578L58.0036 75.4916C63.7256 74.9449 68.9363 73.8251 73.3005 72.291L69.0333 78.657C68.804 78.992 68.4602 79.3271 68.1075 79.521L68.0899 79.5122Z" fill="black"/>
<path fill-rule="evenodd" clip-rule="evenodd" d="M31.7912 79.5122C34.6655 81.0464 38.5801 82.2015 43.0854 82.801C43.9142 82.9068 44.2668 82.2808 44.0111 81.5578L41.8775 75.4916C36.1555 74.9449 30.9448 73.8251 26.5806 72.291L30.8478 78.657C31.0771 78.992 31.4209 79.3271 31.7736 79.521L31.7912 79.5122Z" fill="black"/>
<path d="M49.9448 90.7191C37.7248 90.7191 27.6121 86.9189 25.8841 81.9725V88.2503C25.8841 93.9109 36.658 98.5047 49.9448 98.5047C53.1364 98.5047 56.1782 98.2402 58.9642 97.7552V89.9873C56.1782 90.4546 53.1364 90.7191 49.9448 90.7191Z" fill="black"/>
<path d="M58.9554 89.9962V97.7642C60.5953 97.482 62.1559 97.1205 63.593 96.6973V88.9558C62.1471 89.3702 60.5953 89.7141 58.9554 89.9962Z" fill="#006A4D"/>
<path d="M63.593 88.9558V96.6973C64.3953 96.4592 65.1621 96.2032 65.8939 95.9299V88.206C65.1621 88.4705 64.3953 88.7266 63.593 88.9558Z" fill="black"/>
<path d="M68.2129 87.2364V94.925C71.819 93.1351 74.0055 90.8074 74.0055 88.2592V81.9814C73.309 83.9829 71.2371 85.7904 68.2129 87.2364Z" fill="black"/>
<path d="M65.8939 88.206V95.9299C66.7227 95.6213 67.4899 95.2776 68.2128 94.9161V87.2275C67.4899 87.5714 66.714 87.8976 65.894 88.1974L65.8939 88.206Z" fill="#006A4D"/>
<path fill-rule="evenodd" clip-rule="evenodd" d="M49.945 14.1502C62.4999 14.1502 73.221 18.0827 77.5941 23.6463C74.8697 17.1833 63.5315 12.3427 49.945 12.3427C36.3585 12.3427 25.0202 17.1921 22.2959 23.6463C26.6689 18.0827 37.3988 14.1502 49.945 14.1502Z" fill="white"/>
<path fill-rule="evenodd" clip-rule="evenodd" d="M49.9449 24.0959C57.9593 24.0959 64.8098 26.3179 67.5959 29.4568C65.859 25.8065 58.6117 23.0731 49.9449 23.0731C41.2781 23.0731 34.0308 25.8065 32.2939 29.4568C35.0888 26.3179 41.9306 24.0959 49.9449 24.0959Z" fill="white"/>
<path fill-rule="evenodd" clip-rule="evenodd" d="M49.9448 3.00571C68.2218 3.07624 66.6171 8.7457 66.6171 8.7457C66.6171 8.7457 75.6631 3.40248 86.1814 17.1837C82.6106 7.53774 67.7457 0.298828 49.9448 0.298828C32.1439 0.298828 17.279 7.53774 13.7083 17.1837C19.4303 8.87795 33.4929 2.94398 49.9448 3.00571Z" fill="white"/>
</svg>
