<svg width="100" height="100" viewBox="0 0 100 100" fill="none" xmlns="http://www.w3.org/2000/svg">
<rect width="100" height="100" fill="#6CF479"/>
<path d="M84.332 15.0752L26.7472 4.77185L5.36584 72.7205L1.35235 73.8001L3.30265 77.0289C3.74403 77.8001 4.51388 78.3451 5.38638 78.4994L71.5217 90.3349C72.5174 90.5097 73.4926 89.9235 73.8005 88.9569L91.5892 32.4223C91.8971 31.4351 91.815 30.3657 91.3633 29.4299L84.3423 15.0752H84.332Z" fill="black"/>
<path d="M79.9489 9.76123L34.8048 1.67898L26.9523 26.6353C26.552 27.8898 27.3526 29.2163 28.646 29.4425L68.514 36.5787C70.1358 36.8666 71.7166 35.9104 72.2093 34.3371L79.9386 9.751L79.9489 9.76123Z" fill="#11B67A"/>
<path d="M80.3903 9.84047L25.6077 0.0307231C24.612 -0.144084 23.6369 0.441999 23.3289 1.40858L1.09562 72.0821C0.72609 73.2441 1.46515 74.4574 2.66611 74.6734L69.3045 86.6014C70.3001 86.7762 71.2753 86.1901 71.5832 85.2235L89.5259 28.185C89.8338 27.1978 89.7517 26.1284 89.3 25.1926L82.5767 11.4755C82.1558 10.6117 81.3449 10.005 80.4006 9.83018L80.3903 9.84047Z" fill="#11B67A"/>
<path d="M20.229 43.4478L9.99513 75.9826L61.2775 85.1651L71.6346 52.2499C72.0349 50.9954 71.2342 49.6689 69.9409 49.4427L23.9243 41.2062C22.3025 40.9183 20.7217 41.8746 20.229 43.4478Z" fill="#00482F"/>
<path d="M52.871 33.7828L68.5246 36.5797C70.1464 36.8676 71.7272 35.9113 72.2199 34.338L79.9492 9.75194L59.0195 6.009L51.167 30.9653C50.7667 32.2198 51.5673 33.5463 52.8607 33.7725L52.871 33.7828Z" fill="#C7FFC6"/>
<path d="M6.05342 2.34576C6.05342 2.34576 7.48021 7.08612 13.2695 8.39204C13.2695 8.39204 8.88647 9.15296 8.79409 14.428C8.79409 14.428 7.25438 9.85219 1.70119 8.39204C1.70119 8.39204 6.34083 7.83676 6.05342 2.34576Z" fill="white"/>
<path d="M29.4772 87.9177C29.4772 87.9177 30.904 92.6581 36.6933 93.964C36.6933 93.964 32.3103 94.7249 32.2179 100C32.2179 100 30.6782 95.4242 25.125 93.964C25.125 93.964 29.7647 93.4087 29.4772 87.9177Z" fill="white"/>
<path d="M85.2864 36.4396C85.2864 36.4396 87.9963 45.4473 99 47.9357C99 47.9357 90.6651 49.3753 90.5008 59.401C90.5008 59.401 87.5651 50.7121 77.0233 47.9254C77.0233 47.9254 85.8304 46.8766 85.2864 36.4396Z" fill="white"/>
<path d="M49.8942 33.2574C49.7094 32.8667 49.617 32.4656 49.576 32.0955L29.1082 28.4553C29.1082 28.4553 29.0876 28.4553 29.0774 28.4553C28.3999 28.3216 27.9996 27.6019 28.2049 26.9335L36.0574 1.91547L34.8153 1.67898L26.9628 26.6353C26.6036 27.7664 27.1373 28.8667 28.2973 29.3397C28.4718 29.4322 28.9234 29.5351 28.9234 29.5351L49.8942 33.2574Z" fill="#C7FFC6"/>
<path d="M77.003 11.2297L70.4028 32.1141C70.4028 32.1141 73.1024 22.3865 68.4114 17.677C68.4114 17.677 72.0759 11.9084 64.634 8.95726L77.0132 11.2297H77.003Z" fill="white"/>
</svg>
