<svg width="100" height="100" viewBox="0 0 100 100" fill="none" xmlns="http://www.w3.org/2000/svg">
<g clip-path="url(#clip0_15980_12405)">
<rect width="100" height="100" fill="#6CF479"/>
<path d="M84.332 15.1631L26.7472 4.85974L5.36584 72.8083L1.35235 73.888L3.30265 77.1168C3.74403 77.888 4.51388 78.433 5.38638 78.5873L71.5217 90.4227C72.5174 90.5976 73.4926 90.0114 73.8005 89.0448L91.5892 32.5101C91.8971 31.523 91.815 30.4536 91.3633 29.5178L84.3423 15.1631H84.332Z" fill="black"/>
<path d="M79.9489 9.84912L34.8048 1.76688L26.9523 26.7232C26.552 27.9777 27.3526 29.3041 28.646 29.5304L68.514 36.6666C70.1358 36.9545 71.7166 35.9982 72.2093 34.425L79.9386 9.83889L79.9489 9.84912Z" fill="#11B67A"/>
<path d="M80.3903 9.92836L25.6077 0.118614C24.612 -0.0561934 23.6369 0.52989 23.3289 1.49647L1.09562 72.17C0.72609 73.332 1.46515 74.5453 2.66611 74.7613L69.3045 86.6893C70.3001 86.8641 71.2753 86.278 71.5832 85.3114L89.5259 28.2729C89.8338 27.2857 89.7517 26.2163 89.3 25.2805L82.5767 11.5633C82.1558 10.6996 81.3449 10.0929 80.4006 9.91807L80.3903 9.92836Z" fill="#11B67A"/>
<path d="M20.229 43.5357L9.99513 76.0704L61.2775 85.253L71.6346 52.3378C72.0349 51.0833 71.2342 49.7568 69.9409 49.5306L23.9243 41.2941C22.3025 41.0062 20.7217 41.9625 20.229 43.5357Z" fill="#00482F"/>
<path d="M52.871 33.8707L68.5246 36.6676C70.1464 36.9555 71.7272 35.9992 72.2199 34.4259L79.9492 9.83983L59.0195 6.09689L51.167 31.0531C50.7667 32.3076 51.5673 33.6342 52.8607 33.8604L52.871 33.8707Z" fill="#C7FFC6"/>
<path d="M6.05342 2.43365C6.05342 2.43365 7.48021 7.17401 13.2695 8.47993C13.2695 8.47993 8.88647 9.24085 8.79409 14.5159C8.79409 14.5159 7.25438 9.94008 1.70119 8.47993C1.70119 8.47993 6.34083 7.92465 6.05342 2.43365Z" fill="white"/>
<path d="M29.4772 88.0056C29.4772 88.0056 30.904 92.746 36.6933 94.0519C36.6933 94.0519 32.3103 94.8128 32.2179 100.088C32.2179 100.088 30.6782 95.5121 25.125 94.0519C25.125 94.0519 29.7647 93.4966 29.4772 88.0056Z" fill="white"/>
<path d="M85.2864 36.5275C85.2864 36.5275 87.9963 45.5352 99 48.0236C99 48.0236 90.6651 49.4632 90.5008 59.4889C90.5008 59.4889 87.5651 50.8 77.0233 48.0133C77.0233 48.0133 85.8304 46.9645 85.2864 36.5275Z" fill="white"/>
<path d="M49.8942 33.3453C49.7094 32.9546 49.617 32.5535 49.576 32.1833L29.1082 28.5432C29.1082 28.5432 29.0876 28.5432 29.0774 28.5432C28.3999 28.4095 27.9996 27.6898 28.2049 27.0214L36.0574 2.00336L34.8153 1.76688L26.9628 26.7232C26.6036 27.8543 27.1373 28.9546 28.2973 29.4276C28.4718 29.5201 28.9234 29.6229 28.9234 29.6229L49.8942 33.3453Z" fill="#C7FFC6"/>
<path d="M77.003 11.3176L70.4028 32.202C70.4028 32.202 73.1024 22.4744 68.4114 17.7649C68.4114 17.7649 72.0759 11.9963 64.634 9.04515L77.0132 11.3176H77.003Z" fill="white"/>
</g>
<defs>
<clipPath id="clip0_15980_12405">
<rect width="100" height="100" fill="white"/>
</clipPath>
</defs>
</svg>
