<svg width="100" height="100" viewBox="0 0 100 100" fill="none" xmlns="http://www.w3.org/2000/svg">
<rect width="100" height="100" fill="#6CF479"/>
<path d="M19 32.6124C19 27.9074 22.0734 23.8569 24.9761 21.0681C44.1755 27.139 65.8349 23.5976 74.2647 21.0681C77.1674 23.8474 80.2408 27.9074 80.2408 32.6124V88.4462C80.2408 92.4398 73.8378 100 49.6204 100C25.403 100 19 92.4398 19 88.4462V32.6124Z" fill="#C7FFC6"/>
<path d="M66.2423 79.8138C61.9642 79.8138 58.4923 81.5687 58.4923 83.7314C58.4923 85.8942 61.9642 87.6491 66.2423 87.6491C70.5204 87.6491 73.9922 85.8942 73.9922 83.7314C73.9922 81.5687 70.5204 79.8138 66.2423 79.8138Z" fill="#024731"/>
<path d="M37.3033 80.203L48.3259 53.9556L45.0532 40.4667H45.0343C45.0058 40.3339 44.9868 40.2011 44.9394 40.0683C43.9529 37.2131 38.6218 36.2455 33.0252 37.915C27.438 39.5751 23.7005 43.2461 24.6871 46.1013L33.0346 80.7437C31.9817 80.4781 30.8055 80.3169 29.5438 80.3169C25.2657 80.3169 21.7939 82.0718 21.7939 84.2345C21.7939 86.3973 25.2657 88.1522 29.5438 88.1522C31.4695 88.1522 33.2338 87.7917 34.5903 87.2036L35.3302 90.2581L35.4346 90.2296C36.497 92.9521 41.5814 93.8912 46.9884 92.3734C46.2864 92.1173 45.5844 91.8327 44.9015 91.5007C41.183 89.7079 38.3278 87.0234 37.2843 84.3958C37.2843 84.3484 37.3033 84.3009 37.3033 84.244C37.3033 83.7982 37.1515 83.3713 36.8764 82.9729C36.7341 81.9769 36.8764 81.0283 37.3033 80.203Z" fill="#024731"/>
<path d="M55.5073 66.7519C60.5158 69.1613 65.5054 68.317 67.1844 67.3495L75.1904 48.207L67.2887 42.0696L55.9815 39.4136L48.0134 58.3853C48.2126 61.1932 50.3659 64.2856 55.5073 66.7519Z" fill="#11B67A"/>
<path d="M52.2543 74.1315C46.041 71.2573 44.9691 67.5388 44.7889 66.0685L38.5946 80.8096C37.1623 83.4751 40.2736 87.6868 45.5288 90.2195C48.071 91.4432 50.6417 92.0503 52.7855 92.0503C54.9293 92.0503 56.798 91.3863 57.5664 90.0773L57.6707 90.1247L64.197 74.5204C62.9923 75.4595 59.3307 77.4136 52.2543 74.141V74.1315Z" fill="#11B67A"/>
<path d="M75.2779 48.0615C76.5441 45.3224 73.2761 41.1167 67.9786 38.6678C62.6811 36.2189 57.3602 36.4542 56.094 39.1933C54.8277 41.9324 58.0957 46.1381 63.3932 48.587C68.6907 51.0359 74.0116 50.8006 75.2779 48.0615Z" fill="#006A4D"/>
<path d="M48.8793 21.0966C62.7761 21.0966 74.0453 18.8864 74.0453 16.1734V4.93265H23.7133V16.1734C23.7133 18.8959 34.9825 21.0966 48.8793 21.0966Z" fill="#024731"/>
<path d="M26.8851 23.6674C26.8851 23.6674 22.6165 27.0823 22.6165 34.4718V53.5005C22.6165 53.5005 23.6125 37.6022 37.1204 38.1713C37.1204 38.1713 21.63 36.1793 26.8851 23.6674Z" fill="#6CF479"/>
<path d="M48.8793 9.84633C62.7781 9.84633 74.0453 7.64216 74.0453 4.92317C74.0453 2.20418 62.7781 0 48.8793 0C34.9805 0 23.7133 2.20418 23.7133 4.92317C23.7133 7.64216 34.9805 9.84633 48.8793 9.84633Z" fill="#11B67A"/>
<path d="M39.5428 6.75401L55.3937 2.21028L58.4956 2.50434L42.6922 7.12396L39.5428 6.75401Z" fill="black"/>
<path d="M55.5093 66.7516C55.9077 66.9413 56.3157 67.1121 56.7141 67.2639C56.9038 66.6188 57.084 65.9643 57.2358 65.2908C59.0665 56.9622 56.6571 49.715 51.8383 49.1079L48.006 58.2997C48.1768 61.1265 50.3206 64.2474 55.5093 66.7516Z" fill="black"/>
<path d="M52.2577 74.1313C46.0066 71.2381 44.9536 67.4911 44.7924 66.0398L40.8842 75.4308C41.4249 77.2047 43.2177 79.0449 45.2003 79.2916C47.9417 79.633 50.8633 77.7549 53.2158 74.5391C52.9028 74.4063 52.5898 74.2925 52.2672 74.1407L52.2577 74.1313Z" fill="black"/>
<path d="M73.7925 28.2492C73.7925 28.2492 76.0691 36.0655 55.5132 40.8085C55.5132 40.8085 83.174 40.0496 73.7925 28.2492Z" fill="#6CF479"/>
</svg>
