<svg width="100" height="100" viewBox="0 0 100 100" fill="none" xmlns="http://www.w3.org/2000/svg">
<g clip-path="url(#clip0_15980_12417)">
<rect width="100" height="100" fill="#6CF479"/>
<path d="M84.8249 79.1428H83.1605L73.7147 58.992H13.7713L4.32554 79.1428H2.66116V83.2429C2.644 84.6408 3.76791 85.9023 5.31218 85.9023H82.1739C83.7095 85.9023 84.8335 84.6408 84.8163 83.2429V79.1428H84.8249Z" fill="black"/>
<path d="M73.7231 54.9498H13.7797L2.91829 78.1181C2.10326 79.857 3.38162 81.8601 5.32053 81.8601H82.1822C84.1211 81.8601 85.3994 79.8655 84.5844 78.1181L73.7231 54.9498Z" fill="#11B67A"/>
<path d="M16.5511 12.9023H70.9437C72.4022 12.9023 73.5861 14.0787 73.5861 15.5277V53.4085H13.9087V15.5363C13.9087 14.0872 15.0926 12.9109 16.5511 12.9109V12.9023Z" fill="#11B67A"/>
<path d="M76.4601 69.3639L71.8016 59.5783C71.5099 58.9646 70.8922 58.5725 70.2058 58.5725H17.2803C16.594 58.5725 15.9762 58.9646 15.6845 59.5783L11.026 69.3639C10.6142 70.2333 11.2491 71.2392 12.2185 71.2392H27.1293C27.6698 71.2392 28.0816 71.7165 28.0044 72.245L27.8328 73.3361C27.7127 74.1288 28.3304 74.8533 29.1369 74.8533H58.3321C59.1471 74.8533 59.7649 74.1373 59.6362 73.3361L59.4646 72.245C59.3788 71.7165 59.7992 71.2392 60.3397 71.2392H75.2505C76.2199 71.2392 76.8633 70.2333 76.4429 69.3639H76.4601Z" fill="black"/>
<path d="M43.7474 18.2624C44.3302 18.2624 44.8026 17.7929 44.8026 17.2139C44.8026 16.6349 44.3302 16.1654 43.7474 16.1654C43.1646 16.1654 42.6921 16.6349 42.6921 17.2139C42.6921 17.7929 43.1646 18.2624 43.7474 18.2624Z" fill="#00482F"/>
<path d="M73.5861 42.7098H13.9087V46.8439H73.5861V42.7098Z" fill="#00482F"/>
<path d="M84.8848 24.4597H2.60955C1.13597 24.4597 -0.0585938 25.6466 -0.0585938 27.1107V41.1583C-0.0585938 42.6224 1.13597 43.8093 2.60955 43.8093H84.8848C86.3584 43.8093 87.5529 42.6224 87.5529 41.1583V27.1107C87.5529 25.6466 86.3584 24.4597 84.8848 24.4597Z" fill="#C7FFC6"/>
<path d="M16.1304 30.7756L12.2011 33.026V28.5253H10.9142V33.026L6.98496 30.7756L6.34151 31.8837L10.2708 34.1341L6.34151 36.393L6.98496 37.5011L10.9142 35.2422V39.7514H12.2011V35.2422L16.1304 37.5011L16.7739 36.393L12.8446 34.1341L16.7739 31.8837L16.1304 30.7756Z" fill="#00482F"/>
<path d="M31.0584 30.7756L27.1291 33.026V28.5253H25.8422V33.026L21.9129 30.7756L21.2694 31.8837L25.1987 34.1341L21.2694 36.393L21.9129 37.5011L25.8422 35.2422V39.7514H27.1291V35.2422L31.0584 37.5011L31.7018 36.393L27.7725 34.1341L31.7018 31.8837L31.0584 30.7756Z" fill="#00482F"/>
<path d="M45.9863 30.7756L42.057 33.026V28.5253H40.7701V33.026L36.8408 30.7756L36.1974 31.8837L40.1267 34.1341L36.1974 36.393L36.8408 37.5011L40.7701 35.2422V39.7514H42.057V35.2422L45.9863 37.5011L46.6297 36.393L42.7005 34.1341L46.6297 31.8837L45.9863 30.7756Z" fill="#00482F"/>
<path d="M60.9145 30.7756L56.9851 33.026V28.5253H55.6982V33.026L51.7689 30.7756L51.1255 31.8837L55.0548 34.1341L51.1255 36.393L51.7689 37.5011L55.6982 35.2422V39.7514H56.9851V35.2422L60.9145 37.5011L61.5579 36.393L57.6286 34.1341L61.5579 31.8837L60.9145 30.7756Z" fill="#00482F"/>
<path d="M76.4856 31.8837L75.8422 30.7756L71.9129 33.026V28.5253H70.626V33.026L66.6967 30.7756L66.0532 31.8837L69.9826 34.1341L66.0532 36.393L66.6967 37.5011L70.626 35.2422V39.7514H71.9129V35.2422L75.8422 37.5011L76.4856 36.393L72.5563 34.1341L76.4856 31.8837Z" fill="#00482F"/>
<path d="M81.7792 26.7106H80.4923V41.568H81.7792V26.7106Z" fill="black"/>
<path d="M99.9414 60.4251L85.9314 50.4946L88.1621 67.4489L92.0913 62.6584L98.0711 72.5463L99.8127 71.5063L93.8416 61.6185L99.9414 60.4251Z" fill="white"/>
</g>
<defs>
<clipPath id="clip0_15980_12417">
<rect width="100" height="100" fill="white"/>
</clipPath>
</defs>
</svg>
