<svg width="100" height="100" viewBox="0 0 100 100" fill="none" xmlns="http://www.w3.org/2000/svg">
<g clip-path="url(#clip0_15980_12445)">
<rect width="100" height="100" fill="#6CF479"/>
<path d="M56.3713 77.7034C56.3713 77.5498 56.3303 77.4577 56.1666 77.4065C55.9721 77.3451 55.7776 77.2428 55.5831 77.1507C54.3343 76.5365 53.2799 75.6767 52.4098 74.5918C51.7342 73.7422 51.2326 72.8108 50.946 71.7565C50.7925 71.1936 50.7311 70.6102 50.772 70.0268C50.7822 69.8425 50.8027 69.6583 50.8641 69.4843C50.8744 69.2693 50.9563 69.0646 51.0382 68.8599C51.3964 67.949 52.0413 67.3144 52.9319 66.9254C52.9933 66.8947 53.1366 66.8538 53.1468 66.8435C53.1673 66.7821 53.1264 66.7412 53.0957 66.69C52.7783 66.0759 52.4303 65.4822 52.072 64.8885C50.9563 63.0666 49.6869 61.3471 48.2641 59.7401C48.1822 59.648 48.1003 59.5661 48.0287 59.474C47.9979 59.433 47.9672 59.4126 47.9263 59.4126C47.9058 59.4126 47.8853 59.4126 47.8546 59.433C47.783 59.4637 47.7113 59.4944 47.6397 59.5252C47.0971 59.7299 46.5444 59.8117 45.9916 59.8117C45.6436 59.8117 45.2955 59.781 44.9475 59.7196C44.2003 59.5968 43.4939 59.3512 42.8183 59.0031C41.8357 58.5118 40.9656 57.8568 40.2081 57.0482C39.4199 56.2089 38.8057 55.2672 38.4269 54.1822C38.1301 53.3634 38.0073 52.5138 38.1301 51.6438C38.1403 51.5415 38.1199 51.4801 38.0175 51.4187C37.4647 51.1116 36.912 50.825 36.349 50.5384C34.6907 49.7093 32.971 49.0235 31.1898 48.4811C30.8111 48.3685 30.4221 48.2457 30.0331 48.1638C30.0229 48.1638 30.0127 48.1638 30.0024 48.1638C29.9819 48.1638 29.9615 48.1638 29.941 48.1331H29.9205C29.9103 48.1331 29.9001 48.1331 29.8898 48.1433C29.8898 48.4606 29.8284 48.7779 29.7158 49.0747C29.5623 49.4841 29.3882 49.8936 29.0914 50.2313C28.8252 50.5282 28.5489 50.8045 28.1906 50.9888C27.904 51.1423 27.6173 51.2856 27.3103 51.3777C27.2181 51.4084 27.0032 51.4596 26.9725 51.4698C26.6039 51.5415 26.2457 51.5722 25.8772 51.5722C25.4779 51.5722 25.0787 51.5312 24.6795 51.4494C23.6456 51.2446 22.6937 50.825 21.8133 50.2416C20.7897 49.566 19.9298 48.737 19.2338 47.7236C19.1723 47.6315 19.1519 47.6008 19.0905 47.6008C19.0597 47.6008 19.0188 47.6008 18.9676 47.6213C18.1794 47.7748 17.4015 47.9795 16.644 48.2354C15.4873 48.6244 14.392 49.1361 13.3479 49.781C13.1124 49.9243 12.877 50.0676 12.662 50.2416C12.662 50.3132 12.7234 50.3439 12.7541 50.3951C12.9179 50.6817 13.1227 50.9478 13.2762 51.2446C13.3888 51.4698 13.4809 51.7052 13.5935 51.9202C13.7164 52.1556 13.788 52.4013 13.8597 52.6571C13.8699 52.7186 13.9313 52.7595 13.9211 52.8311C13.9927 53.0051 14.0132 53.1996 14.0439 53.3839C14.1258 53.8035 14.1053 54.2334 14.1053 54.6531C14.1053 54.8578 14.0644 55.0727 14.003 55.2672C13.8494 55.8301 13.614 56.3419 13.225 56.782C12.8258 57.2426 12.3242 57.5497 11.7612 57.7749C11.4644 57.8875 11.1573 57.9591 10.8399 58.0103C10.6966 58.0308 10.5533 58.0512 10.41 58.0512C10.3895 58.0512 10.3691 58.0512 10.3486 58.0512C10.2872 58.0512 10.2258 58.0512 10.1643 58.0512C10.062 58.0512 9.95962 58.0512 9.84702 58.0512C9.69347 58.0512 9.53993 58.0512 9.38638 58.0205C9.25331 57.9796 9.12024 57.9898 8.98716 57.9591C8.73125 57.9182 8.48558 57.8568 8.23991 57.7851C7.92258 57.7032 7.62573 57.5702 7.32887 57.4678C7.3084 57.4678 7.28793 57.4678 7.27769 57.4371C7.27769 57.4371 7.25722 57.4371 7.24698 57.4371C7.23674 57.4371 7.22651 57.4371 7.21627 57.4473C7.15485 57.6316 7.10367 57.8056 7.04225 57.9898C6.86824 58.5118 6.7454 59.0441 6.6328 59.5763C6.55091 59.9346 6.49973 60.3031 6.44854 60.6613C6.41784 60.8762 6.39736 61.1014 6.37689 61.3164C6.35642 61.562 6.33594 61.8179 6.31547 62.0635C6.27453 62.4013 6.30524 62.7391 6.295 63.0769C6.295 63.2918 6.295 63.4965 6.295 63.7115C6.295 64.0083 6.295 64.2949 6.32571 64.5917C7.11391 64.8783 7.84069 65.2877 8.51629 65.779C8.94622 66.0963 9.36591 66.4546 9.73442 66.8435C10.0006 67.1301 10.2667 67.4167 10.4817 67.7442C10.5329 67.7647 10.5533 67.8159 10.584 67.8568C10.8092 68.1844 11.0242 68.5221 11.2085 68.8804C11.4541 69.3717 11.6486 69.8835 11.7715 70.4157C11.7715 70.4566 11.8329 70.6511 11.8431 70.7023C11.8738 70.8456 11.8943 70.9889 11.8943 71.122C11.8943 71.3471 11.9557 71.5621 11.9352 71.777C11.8943 72.1557 11.8738 72.5242 11.7612 72.8927C11.6486 73.2612 11.4951 73.6092 11.2801 73.9162C11.0754 74.2131 10.8195 74.4792 10.5329 74.7044C10.2565 74.9091 9.95962 75.0626 9.64229 75.1957C9.59111 75.2161 9.50922 75.2059 9.49898 75.2878C9.60135 75.472 9.70371 75.6563 9.80607 75.8405C9.94938 76.1169 10.1029 76.383 10.2667 76.6491C10.3588 76.8027 10.4305 76.9766 10.5226 77.1404C10.6455 77.3451 10.7888 77.5396 10.9218 77.7443C11.1266 78.0718 11.3415 78.4096 11.5667 78.7167C11.6077 78.7781 11.6486 78.8395 11.6691 78.9009C11.7203 79.0135 11.8124 79.0954 11.8841 79.1977C12.0171 79.3922 12.14 79.5867 12.2833 79.7812C12.3652 79.8938 12.4471 79.9961 12.5289 80.1087C12.7439 80.3544 12.9282 80.6205 13.1227 80.8661C13.2762 81.0504 13.4195 81.2346 13.5731 81.4291C13.6857 81.5724 13.7983 81.7054 13.9109 81.8487C14.0235 82.0125 14.1872 82.1353 14.3101 82.2889C14.4329 82.4424 14.566 82.5857 14.6888 82.729C14.7707 82.729 14.8321 82.6778 14.9038 82.6471C15.3644 82.4629 15.8353 82.3503 16.3266 82.3298C16.4188 82.3298 16.5007 82.3093 16.5928 82.3093C16.6235 82.3093 16.6644 82.3093 16.6951 82.3093C16.7566 82.3093 16.818 82.2991 16.8794 82.2991C17.0329 82.2991 17.1865 82.3196 17.34 82.34C17.903 82.4015 18.4456 82.5243 18.9676 82.7188C19.8582 83.0361 20.6771 83.4967 21.4243 84.0903C21.9259 84.4793 22.3866 84.9091 22.7858 85.4004C22.9393 85.5949 23.1031 85.7792 23.2362 85.9839C23.3283 86.0555 23.3795 86.1681 23.4409 86.2705C23.8197 86.8436 24.1267 87.4578 24.3315 88.1129C24.3929 88.2971 24.5157 88.7884 24.526 88.8498C24.6283 89.3309 24.6283 89.8222 24.6181 90.3032C24.6181 90.4261 24.5771 90.5591 24.5874 90.682C24.9559 90.8969 25.3346 91.1016 25.7134 91.2961C26.3685 91.6339 27.0339 91.9614 27.7197 92.2582C28.5898 92.6472 29.4804 92.9952 30.3914 93.3022C31.1079 93.5479 32.7355 94.0494 32.8481 94.0494C32.9095 93.9061 32.9095 93.7526 32.9403 93.5991C33.145 92.4936 33.708 91.6441 34.6907 91.0811C35.1513 90.815 35.6631 90.6717 36.1852 90.5898C36.349 90.5591 36.6254 90.5387 36.8915 90.5387C37.1269 90.5387 37.3624 90.5489 37.4852 90.5694C38.038 90.6205 38.5703 90.7434 39.0923 90.9276C40.0238 91.2551 40.8632 91.7362 41.6309 92.3401C42.0199 92.6472 42.3884 92.9747 42.716 93.3432C42.9207 93.5684 43.5451 94.377 43.6373 94.5203C43.8317 94.5203 45.5412 94.0699 46.2271 93.8345C46.6775 93.6809 47.1176 93.4967 47.5578 93.3022C48.3562 92.944 50.0043 91.9307 50.0247 91.9204C50.1271 91.8488 50.1271 91.8488 50.0657 91.7567C50.0452 91.726 50.0145 91.685 49.994 91.6543C49.5948 91.0914 49.2673 90.4875 49.0216 89.8427C49.0011 89.8017 48.9909 89.7608 48.9806 89.7096C48.9499 89.6277 48.9295 89.5561 48.8988 89.4639C48.7964 89.1159 48.7043 88.7679 48.6838 88.3994C48.6224 88.0514 48.6326 87.7034 48.6531 87.3554C48.6735 87.1098 48.7145 86.8744 48.7862 86.6492C49.1137 85.5028 49.8405 84.7044 50.9563 84.2643C51.4271 84.0801 51.9185 83.9777 52.4303 83.9777C52.4508 83.9777 52.4815 83.9777 52.5019 83.9777C52.5838 83.9777 52.6657 83.9777 52.7374 83.9777C53.239 83.9777 53.7303 84.0596 54.2217 84.1824C54.5902 84.2746 54.9382 84.3974 55.2862 84.5407C55.3477 84.5611 55.3988 84.5918 55.4603 84.6021C55.5114 84.5714 55.5114 84.51 55.5217 84.469C55.6855 83.9982 55.8185 83.5171 55.9311 83.0258C56.2485 81.644 56.3918 80.2315 56.3918 78.819C56.3918 78.4301 56.3611 78.0514 56.3611 77.6624L56.3713 77.7034ZM44.0058 75.1854C43.9955 75.4516 43.9853 75.7279 43.9546 75.994C43.9239 76.2806 43.8829 76.5672 43.8317 76.8538C43.801 77.0278 43.7601 77.2018 43.6987 77.3758C43.6373 77.5703 43.5963 77.775 43.5247 77.9695C43.3404 78.4915 43.105 78.993 42.8081 79.4639C42.5727 79.8323 42.3168 80.1804 42.0199 80.5079C41.5183 81.0606 40.9451 81.5212 40.3002 81.8897C39.9215 82.1046 39.5325 82.2889 39.1333 82.4526C39.0923 82.4731 38.9388 82.5345 38.9183 82.5345C38.5805 82.6369 38.2529 82.7495 37.9151 82.8211C37.1167 83.0053 36.3183 83.0872 35.4993 83.0872C35.3151 83.0872 35.1308 83.0872 34.9466 83.077C33.3088 83.0053 31.7426 82.6266 30.2174 82.033C28.4977 81.3574 26.9213 80.426 25.4779 79.2899C23.8811 78.0411 22.4992 76.5877 21.3629 74.8988C20.3598 73.4249 19.592 71.8384 19.1314 70.1086C18.8141 68.9316 18.6708 67.7238 18.7424 66.5057C18.7629 66.1066 18.8141 65.7176 18.896 65.3287C18.9062 65.2775 18.9574 65.0625 18.9676 65.0114C19.0802 64.5405 19.2235 64.0799 19.418 63.6398C19.7456 62.9131 20.1653 62.2478 20.6976 61.6541C21.3425 60.9376 22.0999 60.3747 22.97 59.955C23.7582 59.5661 24.5976 59.3204 25.4677 59.1771C25.6724 59.1464 25.8772 59.1157 26.0819 59.0953C26.4709 59.0543 26.8496 59.0236 27.2386 59.0236C27.3512 59.0236 27.474 59.0236 27.5866 59.0236C28.3237 59.0543 29.0504 59.1362 29.7772 59.2795C30.8111 59.4842 31.8245 59.7913 32.7969 60.2007C33.7489 60.5896 34.6497 61.0605 35.5198 61.6132C36.3592 62.1454 37.1576 62.7289 37.9151 63.3737C38.601 63.9571 39.2459 64.5917 39.8396 65.2673C40.1467 65.6153 40.4435 65.9633 40.7199 66.3317C40.7711 66.4034 40.9246 66.5979 40.9451 66.6286C41.1908 66.9766 41.4467 67.3144 41.6514 67.6931C41.764 67.8875 41.9073 68.0615 42.0097 68.2663C42.2144 68.6859 42.4805 69.0749 42.6546 69.5047C42.716 69.6685 42.8081 69.8221 42.8695 69.9858C43.1152 70.5897 43.3609 71.1936 43.5247 71.818C43.5247 71.8384 43.5247 71.8589 43.5247 71.8794C43.6168 72.0534 43.6373 72.2376 43.6782 72.4219C43.7396 72.7187 43.7908 73.0155 43.8522 73.3123C43.8727 73.4249 43.8829 73.5478 43.8932 73.6603C43.9136 73.9367 43.9546 74.2131 43.9648 74.4894C43.9751 74.7248 43.9955 74.95 43.9853 75.1854H44.0058Z" fill="#11B67A"/>
<path d="M20.6049 64.755C20.6049 64.755 20.6458 64.755 20.6663 64.755C20.6663 64.755 20.7482 64.755 20.7892 64.7345C20.8096 64.7345 20.8301 64.7345 20.8506 64.7345C20.912 64.7345 20.9734 64.7345 21.0246 64.7141C21.0246 64.7141 21.0655 64.7141 21.0962 64.7141C21.1577 64.7141 21.2191 64.7141 21.2805 64.6936C21.3112 64.6936 21.3419 64.6936 21.3726 64.6936C21.4648 64.6936 21.5569 64.6936 21.6388 64.6629C21.8333 64.6629 22.0175 64.6424 22.212 64.6424C23.3482 64.6219 24.4743 64.755 25.5798 65.0211C26.7058 65.2873 27.7908 65.6864 28.8452 66.188C29.8176 66.6486 30.7389 67.1911 31.609 67.8052C32.7555 68.6138 33.8098 69.535 34.772 70.5585C35.6933 71.5514 36.4917 72.6159 37.1776 73.7827C37.3721 74.1102 37.5359 74.4378 37.7099 74.7653C37.7201 74.796 37.7303 74.837 37.7508 74.8677C37.9351 75.2157 38.0886 75.5841 38.2422 75.9424C38.4264 76.3825 38.5697 76.8431 38.713 77.2935C38.713 77.3242 38.713 77.3549 38.713 77.3856C38.9689 78.2147 39.1122 79.0642 39.1634 79.924C39.1941 80.446 39.1941 80.9782 39.143 81.5003C39.3886 81.3877 39.6241 81.2751 39.8288 81.142C40.4123 80.8042 40.9036 80.4051 41.3233 79.9342C41.569 79.6579 41.8044 79.3508 42.0194 79.013C42.265 78.6241 42.4698 78.1942 42.6438 77.7029C42.6745 77.621 42.7052 77.5187 42.7257 77.4163C42.7462 77.3242 42.7769 77.2423 42.8076 77.1399C42.8485 77.0069 42.8792 76.8738 42.9099 76.7203C42.9611 76.4746 42.9918 76.2187 43.0225 75.9322C43.043 75.6967 43.0635 75.4613 43.0737 75.1747C43.0737 75.0212 43.0737 74.8574 43.0635 74.6834V74.5606C43.0532 74.4173 43.0328 74.2638 43.0123 74.1C43.0021 73.9874 42.9918 73.8851 42.9816 73.7725V73.7008C42.9714 73.6292 42.9611 73.5677 42.9611 73.5166C42.9509 73.4347 42.9304 73.363 42.9202 73.2812C42.8792 73.0662 42.8383 72.8513 42.7973 72.6466C42.7973 72.6056 42.7769 72.5647 42.7769 72.5237C42.7666 72.4521 42.7462 72.36 42.7359 72.3395L42.654 72.186L42.6336 72.0222C42.48 71.449 42.2548 70.8861 42.0398 70.3641C42.0194 70.3129 41.9887 70.2515 41.958 70.1798C41.917 70.0877 41.8658 69.9853 41.8249 69.8727C41.743 69.668 41.6202 69.4633 41.4973 69.2381C41.395 69.0641 41.3028 68.8901 41.2005 68.6957C41.1698 68.6445 41.1186 68.5626 41.0674 68.491C41.006 68.3988 40.9343 68.2965 40.8627 68.1737C40.6989 67.8768 40.4942 67.6005 40.2792 67.2934L40.2075 67.191C40.2075 67.191 40.1461 67.1092 40.1052 67.058C40.0642 66.9966 40.0131 66.9454 39.9926 66.9147C39.7162 66.5462 39.4193 66.1982 39.1532 65.9014C38.6004 65.2668 37.976 64.6629 37.3209 64.0999C36.6043 63.4858 35.8264 62.9229 35.0279 62.4213C34.1886 61.8993 33.3185 61.4489 32.4381 61.0805C31.4964 60.6915 30.5444 60.4049 29.5924 60.2105C28.9373 60.0774 28.2412 60.0057 27.5452 59.975C27.4428 59.975 27.3404 59.975 27.2278 59.975C26.89 59.975 26.5522 59.9955 26.1735 60.0364H26.1325C25.9585 60.0467 25.7845 60.0774 25.6003 60.1081C24.8018 60.2412 24.0443 60.4766 23.3585 60.8041C22.5703 61.1931 21.9254 61.6741 21.3624 62.2985C20.9018 62.8103 20.523 63.3937 20.2364 64.0488C20.1136 64.3251 20.0112 64.6117 19.9293 64.929C20.1136 64.8881 20.2876 64.8369 20.4718 64.8062C20.5128 64.8062 20.5537 64.8062 20.5947 64.7857L20.6049 64.755ZM21.475 64.5503C21.475 64.5503 21.4443 64.5912 21.4443 64.6219C21.4443 64.5912 21.4545 64.5708 21.475 64.5503ZM8.16772 56.2493C8.3315 56.4745 8.46458 56.7202 8.59765 56.9658C8.78191 57.017 8.96616 57.0682 9.15041 57.0886H9.19136C9.2016 57.0886 9.24254 57.0886 9.27325 57.0886C9.36538 57.0886 9.47798 57.1091 9.62129 57.1398C9.70318 57.15 9.80554 57.15 9.88743 57.15C9.93861 57.15 9.97956 57.15 10.0307 57.15C10.0819 57.15 10.1433 57.15 10.1945 57.15C10.2764 57.15 10.3481 57.15 10.4197 57.15C10.4197 57.15 10.43 57.15 10.4402 57.15C10.5119 57.15 10.6142 57.1398 10.7166 57.1193H10.7268C11.0134 57.0784 11.2489 57.017 11.4536 56.9351C11.9245 56.7509 12.2827 56.5154 12.5694 56.1879C12.8355 55.8911 13.0198 55.5226 13.1528 55.0313C13.1938 54.8675 13.2143 54.7447 13.2245 54.6423C13.2245 54.5809 13.2245 54.5298 13.2245 54.4683C13.2245 54.1408 13.2347 53.8235 13.1835 53.5574C13.1733 53.496 13.1631 53.4346 13.1528 53.3731C13.1324 53.281 13.1221 53.1889 13.1017 53.148L13.0095 52.9023V52.8818C13.0095 52.8818 13.0095 52.8818 13.0095 52.8716C12.9583 52.6567 12.9072 52.4827 12.8253 52.3394C12.7434 52.1858 12.682 52.0425 12.6205 51.9095C12.5796 51.8174 12.5386 51.7252 12.4977 51.6434C12.4363 51.5205 12.3442 51.3875 12.252 51.2442C12.1906 51.1418 12.119 51.0497 12.0575 50.9371C10.9111 52.278 9.75436 53.6188 8.60789 54.9699C8.39292 55.2155 8.1882 55.4612 7.97323 55.7068C7.91181 55.7683 7.90158 55.8194 7.963 55.8911C8.04489 55.9934 8.10631 56.106 8.17796 56.2084L8.16772 56.2493ZM46.5336 94.7347C46.0116 94.919 44.0667 95.4717 43.6367 95.4717C43.606 95.4717 43.5753 95.4717 43.5548 95.4717L43.1249 95.4307L42.8792 95.0827C42.8076 94.9804 42.2036 94.1922 42.0194 93.9875C41.7635 93.6907 41.4461 93.4041 41.0469 93.0971C40.3304 92.5341 39.5626 92.1144 38.7642 91.8279C38.3036 91.6641 37.8327 91.5617 37.3721 91.5106H37.3106C37.2595 91.5106 37.0854 91.4901 36.85 91.4901C36.5429 91.4901 36.3689 91.5106 36.3382 91.5208H36.2768C35.7957 91.5924 35.4169 91.7153 35.0996 91.8995C34.3626 92.3294 33.9429 92.9333 33.7893 93.8033C33.7893 93.8238 33.7893 93.8545 33.7791 93.8852C33.7586 94.0285 33.7382 94.2434 33.6256 94.4686L33.3901 94.9804H32.8271L32.8169 94.9906H32.8067C32.6633 94.9906 32.5917 94.9906 31.5373 94.6733C30.9846 94.5096 30.4011 94.3151 30.0531 94.2025C29.1523 93.8954 28.231 93.5372 27.3097 93.1278C26.6444 92.8309 25.9483 92.5034 25.2522 92.1349C24.8223 91.9097 24.4435 91.705 24.0955 91.5003L23.6758 91.2547L23.6451 90.7736C23.6349 90.6098 23.6451 90.4768 23.6656 90.3744C23.6656 90.3539 23.6656 90.313 23.6656 90.3028C23.6758 89.8933 23.6758 89.4532 23.5939 89.0643C23.5735 88.9824 23.4608 88.5627 23.4199 88.4194C23.2459 87.8667 22.9797 87.3345 22.6317 86.8022C22.6112 86.7613 22.5805 86.7306 22.56 86.6896L22.5089 86.6487L22.427 86.5259C22.3451 86.3928 22.2325 86.2598 22.1096 86.1165L22.0278 86.0141C21.69 85.6047 21.2907 85.226 20.7994 84.837C20.1238 84.3048 19.3765 83.8851 18.5986 83.6088C18.1175 83.4348 17.6466 83.3324 17.1757 83.2812C17.1348 83.2812 17.0938 83.2812 17.0631 83.271C16.971 83.2607 16.8789 83.2505 16.8072 83.2505C16.7867 83.2505 16.7663 83.2505 16.756 83.2505L16.6025 83.271L16.5001 83.2505C16.5001 83.2505 16.4797 83.2505 16.4592 83.2505C16.4182 83.2505 16.3568 83.2505 16.2954 83.2608C15.9269 83.2812 15.5584 83.3631 15.1796 83.5166C15.0875 83.5678 14.9135 83.6599 14.6576 83.6599L14.2174 83.6804L13.9308 83.3426C13.9308 83.3426 13.8591 83.2607 13.8182 83.2096C13.7261 83.1072 13.6339 82.9946 13.5316 82.8718C13.5111 82.8411 13.4599 82.8002 13.4087 82.749C13.3166 82.6569 13.204 82.5443 13.1017 82.401C13.0198 82.2884 12.9276 82.1758 12.8253 82.053L12.8048 82.0223C12.7024 81.8994 12.6001 81.7664 12.4875 81.6333L12.3442 81.4593C12.252 81.3467 12.1701 81.2341 12.0883 81.1318C11.9756 80.9885 11.8733 80.8452 11.7709 80.7326L11.73 80.6712L11.6583 80.5688C11.6071 80.4972 11.5457 80.4153 11.4945 80.3436C11.3922 80.2106 11.3 80.0775 11.2182 79.9445C11.167 79.8728 11.126 79.8012 11.0749 79.7397C11.0749 79.7295 11.0544 79.7193 11.0441 79.6988C10.9725 79.6169 10.8497 79.4736 10.7678 79.2689C10.5323 78.9516 10.3276 78.6241 10.1331 78.3068L10.0922 78.2351C10.041 78.1635 9.9898 78.0816 9.93861 77.9997C9.85672 77.8769 9.77483 77.7541 9.69294 77.6108C9.63152 77.5084 9.58034 77.4061 9.52916 77.3139C9.49845 77.2423 9.4575 77.1809 9.43703 77.1297C9.26301 76.8533 9.09923 76.5667 8.94569 76.2699C8.88427 76.1573 8.82285 76.0345 8.7512 75.9117C8.72049 75.8503 8.68978 75.7889 8.64883 75.7377L8.50552 75.4716L8.54647 75.1645C8.56694 75.011 8.68978 74.5094 9.28349 74.3457C9.5394 74.2331 9.75436 74.1205 9.92838 73.9772C10.1331 73.8236 10.3174 73.6394 10.4709 73.404C10.6142 73.189 10.7371 72.9332 10.8292 72.6261C10.9008 72.3907 10.9315 72.1143 10.9622 71.8175V71.6844C10.9622 71.6844 10.9622 71.5411 10.9622 71.449C10.9622 71.3569 10.9418 71.2648 10.9418 71.1522C10.9418 71.0703 10.9213 70.9782 10.9008 70.8656C10.9008 70.8349 10.8804 70.7735 10.8599 70.7223C10.8497 70.6609 10.8292 70.6199 10.8292 70.5995C10.7268 70.1593 10.563 69.7192 10.3378 69.2689C10.2048 68.9925 10.0307 68.7264 9.86696 68.4807H9.83625L9.67247 68.2146C9.49845 67.9587 9.28349 67.7131 9.02758 67.4367C8.72049 67.1092 8.36221 66.7919 7.93229 66.4746C7.29763 66.0037 6.65274 65.6557 5.97714 65.4101L5.46532 65.2258L5.39367 64.6834C5.35272 64.3865 5.35272 64.0897 5.35272 63.844C5.35272 63.7929 5.35272 63.7417 5.35272 63.6905V63.537C5.35272 63.3732 5.35272 63.2094 5.35272 63.0354C5.35272 62.9331 5.35272 62.8307 5.35272 62.7181C5.35272 62.4827 5.35272 62.2268 5.38343 61.9505C5.39367 61.8174 5.41414 61.6741 5.42438 61.5206C5.42438 61.4182 5.43461 61.3159 5.44485 61.2238C5.46532 61.0293 5.4858 60.7836 5.52674 60.5277C5.57792 60.19 5.63934 59.7806 5.72123 59.3711C5.74171 59.2585 5.77241 59.146 5.79289 59.0436C4.71807 60.3026 3.64325 61.5513 2.56843 62.8103C2.4763 62.9229 2.40465 63.0354 2.3637 63.1685C2.30229 63.363 2.24087 63.5472 2.17945 63.7417C1.82118 64.9699 1.60621 66.2289 1.51409 67.4981C1.4629 68.3272 1.4629 69.1563 1.49361 69.9853C1.49361 70.0467 1.49361 70.1082 1.5448 70.1491C1.8826 70.2924 2.23063 70.4357 2.5582 70.6097C3.73538 71.2443 4.7283 72.0836 5.54721 73.1379C5.98738 73.7008 6.34565 74.3252 6.62203 74.9905C6.74487 75.2771 6.82676 75.5841 6.92912 75.881C6.92912 75.9629 6.95983 76.0447 6.98031 76.1164C7.03149 76.4439 7.0929 76.7817 7.0929 77.1195C7.0929 77.4163 7.07243 77.7131 7.04172 77.9997C7.01101 78.0816 6.95983 78.143 6.89841 78.2044C6.18187 79.0335 5.46532 79.8626 4.75901 80.7019C4.68395 80.7906 4.67371 80.8827 4.7283 80.9782C5.15823 81.7868 5.60863 82.575 6.09998 83.3426C6.59132 84.1205 7.10314 84.8677 7.6559 85.6047C7.69685 85.6559 7.72756 85.7173 7.78898 85.7582C7.80945 85.7787 7.81969 85.8094 7.84016 85.8299C8.2189 86.3314 8.60789 86.8329 9.01734 87.3038C9.28349 87.6108 9.5394 87.9077 9.80554 88.2147C9.84649 88.2557 9.8772 88.3273 9.94885 88.2761C10.3174 88.1226 10.6961 88.01 11.0953 87.9384C11.1465 87.9384 11.1977 87.9384 11.2489 87.9179C11.5048 87.9077 11.7607 87.8974 12.0064 87.877C12.2111 87.8974 12.4158 87.8974 12.6205 87.9281C13.6032 88.051 14.5245 88.3785 15.3844 88.8493C16.5922 89.5146 17.6056 90.4154 18.4143 91.531C18.9159 92.2168 19.2947 92.9538 19.5506 93.7624C19.7143 94.3048 19.8167 94.8576 19.8167 95.4307C19.8065 95.4717 19.8167 95.5126 19.8167 95.5536C19.8065 95.7071 19.786 95.8709 19.7758 96.0244C19.7758 96.0858 19.7348 96.1472 19.7758 96.2189C19.8065 96.27 19.8781 96.2905 19.9293 96.3212C20.6458 96.7204 21.3829 97.0991 22.1199 97.4471C23.9829 98.3274 25.9073 99.0336 27.9034 99.5556C28.0263 99.5863 28.0877 99.5556 28.1696 99.4635C29.0192 98.4809 29.8688 97.4983 30.7184 96.5259C30.8208 96.4031 30.9129 96.27 31.046 96.1779C31.3224 96.137 31.5885 96.0858 31.8649 96.0858C32.0594 96.0858 32.2641 96.0858 32.4586 96.0858C33.0318 96.1268 33.5846 96.2393 34.1271 96.4236C35.7854 96.9865 37.1571 97.9691 38.2729 99.3202C38.4674 99.5556 38.6414 99.8218 38.8256 100.057C38.8256 100.057 38.8256 100.078 38.8256 100.088H38.8871C38.8871 100.088 38.8871 100.067 38.8871 100.057C38.9382 100.047 38.9996 100.037 39.0508 100.026C39.6241 99.9036 40.1973 99.7604 40.7501 99.5863C41.3131 99.4021 41.8761 99.2076 42.4186 98.962C42.7564 98.8084 43.0942 98.6549 43.432 98.4911C44.0257 98.1943 44.5887 97.8463 45.1415 97.4676C45.2438 97.396 45.3257 97.3243 45.4076 97.2322C46.3596 96.137 47.3116 95.052 48.2636 93.9568C48.1407 94.0182 48.0281 94.0797 47.9258 94.1206C47.4446 94.3355 46.9738 94.53 46.5234 94.6835L46.5336 94.7347ZM42.2958 96.1677C42.2958 96.1677 42.3367 96.1165 42.3469 96.0756C42.3469 96.0756 42.3162 96.137 42.2958 96.1677ZM52.7471 84.9291C52.6857 84.9291 52.614 84.9291 52.5526 84.9291H52.4912C52.4707 84.9291 52.4502 84.9291 52.4298 84.9291C52.051 84.9291 51.662 85.0008 51.2833 85.1543C50.4234 85.4921 49.9116 86.055 49.6557 86.9455C49.6045 87.1195 49.5738 87.2935 49.5636 87.4778C49.5431 87.7234 49.5329 88.0203 49.5738 88.2761V88.3273L49.584 88.3785C49.6045 88.6549 49.6762 88.9517 49.7683 89.2485C49.7683 89.2792 49.7888 89.3202 49.8092 89.3611C49.8195 89.3918 49.8297 89.4225 49.84 89.4532C49.8502 89.4839 49.8604 89.5249 49.8809 89.5556C49.9321 89.6784 49.9833 89.8012 50.0345 89.9343C50.1982 89.9855 50.3518 90.0469 50.5053 90.1083C50.6691 90.1697 50.6691 90.1799 50.7715 90.0469C52.0408 88.5832 53.3101 87.1298 54.5896 85.6661C54.6818 85.5637 54.7636 85.4614 54.8558 85.359C54.5589 85.2362 54.2825 85.1441 54.0164 85.0827C53.5455 84.9599 53.1361 84.9087 52.7573 84.9087L52.7471 84.9291Z" fill="black"/>
<path d="M30.6372 49.5058L37.4137 52.4331C37.4137 52.4331 37.0964 54.1731 38.0586 56.0974C39.0208 58.0217 41.8972 60.642 44.0161 60.8774C46.2374 61.123 47.7831 60.5805 47.7831 60.5805L51.7139 66.3226C51.7139 66.3226 49.0217 67.3667 49.6768 71.9624C50.3934 76.9573 55.2761 77.899 55.2659 78.4005C55.2557 78.9021 54.9383 82.5868 54.6517 83.0679C54.5801 83.1907 51.8777 82.1774 49.5438 83.9481C45.2957 87.1826 48.3871 91.5326 48.3871 91.5326L44.0059 93.375C44.0059 93.375 46.8721 88.81 44.1594 85.4221C42.4397 83.2726 39.6145 83.4466 39.7271 83.4057C48.5611 79.6083 44.8965 70.4987 44.8965 70.4987C44.8965 70.4987 41.6311 62.2899 34.6601 59.209C24.045 54.5211 19.9402 59.0759 19.9402 59.0759C19.1827 55.8415 14.996 56.384 14.996 56.384C16.2142 53.4976 14.3204 50.5805 14.3204 50.5805L18.3433 48.8404C18.3433 48.8404 23.7481 55.8313 29.501 51.4403C30.7805 50.4576 30.6372 49.516 30.6372 49.516V49.5058Z" fill="white"/>
<path d="M64.8773 0.118597C64.7238 0.118597 64.6317 0.159539 64.5805 0.323307C64.5191 0.517781 64.4167 0.712255 64.3246 0.906729C63.7104 2.15546 62.8505 3.20971 61.7655 4.07973C60.9159 4.75527 59.9843 5.25681 58.93 5.5434C58.367 5.69693 57.7835 5.75835 57.2001 5.71741C57.0158 5.70717 56.8315 5.6867 56.6575 5.62529C56.4426 5.61505 56.2378 5.53317 56.0331 5.45128C55.1221 5.09304 54.4874 4.44821 54.0984 3.55772C54.0677 3.49631 54.0268 3.35301 54.0165 3.34277C53.9551 3.3223 53.9142 3.36325 53.863 3.39395C53.2488 3.71125 52.6551 4.05926 52.0614 4.4175C50.2393 5.53317 48.5196 6.80237 46.9125 8.2251C46.8204 8.30698 46.7385 8.38887 46.6464 8.46052C46.6054 8.49122 46.5849 8.52193 46.5849 8.56287C46.5849 8.58334 46.5849 8.60381 46.6054 8.63452C46.6361 8.70617 46.6668 8.77782 46.6975 8.84946C46.9023 9.39194 46.9842 9.94466 46.9842 10.4974C46.9842 10.8454 46.9534 11.1934 46.892 11.5414C46.7692 12.2886 46.5235 12.9948 46.1755 13.6704C45.6841 14.653 45.029 15.523 44.2203 16.2804C43.381 17.0686 42.4392 17.6827 41.3542 18.0614C40.5352 18.3582 39.6856 18.4811 38.8155 18.3582C38.7132 18.348 38.6518 18.3685 38.5903 18.4708C38.2832 19.0235 37.9966 19.5762 37.71 20.1392C36.8809 21.7973 36.195 23.5169 35.6525 25.2979C35.5399 25.6766 35.4171 26.0655 35.3352 26.4545C35.3352 26.4647 35.3352 26.475 35.3352 26.4852C35.3352 26.5057 35.3352 26.5261 35.3045 26.5466V26.5671C35.3045 26.5773 35.3045 26.5876 35.3147 26.5978C35.632 26.5978 35.9494 26.6592 36.2462 26.7718C36.6557 26.9253 37.0651 27.0993 37.4029 27.3962C37.6998 27.6623 37.9762 27.9386 38.1604 28.2969C38.314 28.5835 38.4573 28.8701 38.5494 29.1771C38.5801 29.2693 38.6313 29.4842 38.6415 29.5149C38.7132 29.8834 38.7439 30.2416 38.7439 30.6101C38.7439 31.0093 38.7029 31.4085 38.621 31.8076C38.4163 32.8414 37.9966 33.7933 37.4132 34.6736C36.7376 35.6971 35.9084 36.5569 34.895 37.2529C34.8029 37.3143 34.7722 37.3348 34.7722 37.3962C34.7722 37.4269 34.7722 37.4679 34.7926 37.519C34.9462 38.3072 35.1509 39.0851 35.4068 39.8425C35.7958 40.9991 36.3076 42.0943 36.9525 43.1383C37.0958 43.3737 37.2391 43.6092 37.4132 43.8241C37.4848 43.8241 37.5155 43.7627 37.5667 43.732C37.8533 43.5682 38.1195 43.3635 38.4163 43.21C38.6415 43.0974 38.877 43.0053 39.0919 42.8927C39.3274 42.7698 39.573 42.6982 39.8289 42.6266C39.8904 42.6163 39.9313 42.5549 40.003 42.5651C40.177 42.4935 40.3715 42.473 40.5557 42.4423C40.9754 42.3604 41.4053 42.3809 41.825 42.3809C42.0298 42.3809 42.2447 42.4218 42.4392 42.4833C43.0022 42.6368 43.514 42.8722 43.9542 43.2612C44.4148 43.6603 44.7219 44.1619 44.9471 44.7248C45.0597 45.0217 45.1314 45.3287 45.1826 45.646C45.203 45.7893 45.2235 45.9326 45.2235 46.0759C45.2235 46.0964 45.2235 46.1169 45.2235 46.1373C45.2235 46.1987 45.2235 46.2601 45.2235 46.3216C45.2235 46.4239 45.2235 46.5263 45.2235 46.6389C45.2235 46.7924 45.2235 46.9459 45.1928 47.0995C45.1518 47.2325 45.1621 47.3656 45.1314 47.4986C45.0904 47.7545 45.029 48.0002 44.9574 48.2458C44.8755 48.5631 44.7424 48.86 44.64 49.1568C44.64 49.1773 44.64 49.1977 44.6093 49.208C44.6093 49.208 44.6093 49.2284 44.6093 49.2387C44.6093 49.2489 44.6093 49.2591 44.6196 49.2694C44.8038 49.3308 44.9778 49.382 45.1621 49.4434C45.6841 49.6174 46.2164 49.7402 46.7487 49.8528C47.107 49.9347 47.4755 49.9859 47.8338 50.037C48.0487 50.0677 48.2739 50.0882 48.4889 50.1087C48.7346 50.1292 48.9905 50.1496 49.2362 50.1701C49.574 50.211 49.9118 50.1803 50.2496 50.1906C50.4645 50.1906 50.6693 50.1906 50.8842 50.1906C51.1811 50.1906 51.4677 50.1906 51.7645 50.1599C52.0512 49.3717 52.4606 48.645 52.952 47.9695C53.2693 47.5396 53.6276 47.1199 54.0165 46.7515C54.3032 46.4853 54.5898 46.2192 54.9173 46.0043C54.9378 45.9531 54.989 45.9326 55.0299 45.9019C55.3575 45.6767 55.6953 45.4618 56.0536 45.2775C56.5449 45.0319 57.0567 44.8374 57.589 44.7146C57.63 44.7146 57.8245 44.6532 57.8757 44.6429C58.019 44.6122 58.1623 44.5918 58.2953 44.5918C58.5205 44.5918 58.7355 44.5303 58.9505 44.5508C59.3292 44.5918 59.6977 44.6122 60.0662 44.7248C60.4347 44.8374 60.7828 44.991 61.0899 45.2059C61.3867 45.4106 61.6529 45.6665 61.8781 45.9531C62.0828 46.2294 62.2363 46.5263 62.3694 46.8436C62.3899 46.8947 62.3797 46.9766 62.4615 46.9869C62.6458 46.8845 62.8301 46.7822 63.0143 46.6798C63.2907 46.5365 63.5568 46.383 63.823 46.2192C63.9765 46.1271 64.1505 46.0554 64.3143 45.9633C64.5191 45.8405 64.7135 45.6972 64.9183 45.5641C65.2458 45.3594 65.5836 45.1445 65.8907 44.9193C65.9521 44.8784 66.0136 44.8374 66.075 44.8169C66.1876 44.7658 66.2695 44.6737 66.3718 44.602C66.5663 44.4689 66.7608 44.3461 66.9553 44.2028C67.0679 44.1209 67.1703 44.039 67.2829 43.9572C67.5285 43.7422 67.7947 43.558 68.0404 43.3635C68.2246 43.21 68.4089 43.0667 68.6034 42.9131C68.7467 42.8006 68.8797 42.688 69.023 42.5754C69.1868 42.4628 69.3097 42.299 69.4632 42.1762C69.6168 42.0534 69.7601 41.9203 69.9034 41.7975C69.9034 41.7156 69.8522 41.6542 69.8215 41.5825C69.6372 41.1219 69.5246 40.6511 69.5042 40.1598C69.5042 40.0677 69.4837 39.9858 69.4837 39.8937C69.4837 39.863 69.4837 39.822 69.4837 39.7913C69.4837 39.7299 69.4735 39.6685 69.4735 39.6071C69.4735 39.4536 69.4939 39.3 69.5144 39.1465C69.5758 38.5835 69.6987 38.0411 69.8931 37.519C70.2105 36.6286 70.6711 35.8097 71.2648 35.0625C71.6538 34.561 72.0837 34.1004 72.5751 33.7012C72.7696 33.5477 72.9538 33.3839 73.1585 33.2509C73.2302 33.1587 73.3428 33.1076 73.4452 33.0461C74.0184 32.6674 74.6326 32.3604 75.2877 32.1557C75.472 32.0942 75.9633 31.9714 76.0247 31.9612C76.5058 31.8588 76.9972 31.8588 77.4783 31.8691C77.6011 31.8691 77.7342 31.91 77.857 31.8998C78.072 31.5313 78.2767 31.1526 78.4712 30.7739C78.809 30.1188 79.1366 29.4535 79.4334 28.7677C79.8224 27.8977 80.1704 27.0072 80.4775 26.0963C80.7232 25.3798 81.2248 23.7523 81.2248 23.6397C81.0815 23.5681 80.9279 23.5783 80.7744 23.5476C79.6689 23.3429 78.8193 22.78 78.2562 21.7973C77.9901 21.3368 77.8468 20.825 77.7649 20.303C77.7342 20.1392 77.7137 19.8628 77.7137 19.5967C77.7137 19.3613 77.724 19.1259 77.7444 19.0031C77.7956 18.4503 77.9184 17.9181 78.1027 17.3961C78.4303 16.4647 78.9114 15.6254 79.5153 14.8577C79.8224 14.4687 80.15 14.1003 80.5185 13.7727C80.7437 13.568 81.5524 12.9437 81.6957 12.8515C81.6957 12.6571 81.2453 10.9477 81.0098 10.262C80.8563 9.8116 80.672 9.37147 80.4775 8.93135C80.1193 8.13298 79.1059 6.48507 79.0956 6.4646C79.024 6.36224 79.024 6.36224 78.9318 6.42365C78.9011 6.44413 78.8602 6.47483 78.8295 6.4953C78.2665 6.89449 77.6625 7.22202 77.0177 7.46767C76.9767 7.48814 76.9358 7.49838 76.8846 7.50862C76.8027 7.53932 76.731 7.55979 76.6389 7.5905C76.2909 7.69285 75.9428 7.78497 75.5743 7.80544C75.2263 7.86686 74.8783 7.85662 74.5302 7.83615C74.2845 7.81568 74.0491 7.77474 73.8239 7.70309C72.6774 7.37555 71.879 6.64883 71.4388 5.53317C71.2546 5.06234 71.1522 4.57103 71.1522 4.05926C71.1522 4.03879 71.1522 4.00808 71.1522 3.98761C71.1522 3.90573 71.1522 3.82384 71.1522 3.75219C71.1522 3.25065 71.2341 2.75935 71.3569 2.26805C71.4491 1.89957 71.5719 1.55156 71.7152 1.20356C71.7357 1.14215 71.7664 1.09097 71.7766 1.02955C71.7459 0.978378 71.6845 0.978378 71.6436 0.968142C71.1727 0.804374 70.6916 0.671313 70.2002 0.558723C68.8593 0.231187 67.4569 0.0878906 66.034 0.0878906C65.6451 0.0878906 65.2663 0.118597 64.8773 0.118597ZM62.3592 12.4831C62.6253 12.4933 62.9017 12.5035 63.1679 12.5342C63.4545 12.5649 63.7411 12.6059 64.0277 12.6571C64.2017 12.6878 64.3757 12.7287 64.5498 12.7901C64.7443 12.8515 64.949 12.8925 65.1435 12.9641C65.6655 13.1484 66.1671 13.3838 66.638 13.6806C67.0065 13.916 67.3545 14.1719 67.6821 14.4687C68.2349 14.9703 68.6955 15.5435 69.064 16.1883C69.279 16.567 69.4632 16.956 69.627 17.3552C69.6475 17.3961 69.7089 17.5496 69.7089 17.5701C69.8112 17.9079 69.9239 18.2354 69.9955 18.5732C70.1798 19.3715 70.2617 20.1699 70.2617 20.9887C70.2617 21.173 70.2617 21.3572 70.2514 21.5415C70.1798 23.1791 69.801 24.7452 69.2073 26.2703C68.5317 27.9898 67.6002 29.5661 66.464 31.0093C65.2151 32.606 63.7616 33.9878 62.0726 35.1239C60.5985 36.127 59.0119 36.8947 57.2819 37.3553C56.1048 37.6726 54.8969 37.8159 53.6787 37.7442C53.2795 37.7238 52.8905 37.6726 52.5016 37.5907C52.4504 37.5805 52.2354 37.5293 52.1842 37.519C51.7134 37.4065 51.2527 37.2632 50.8126 37.0687C50.0858 36.7412 49.4204 36.3215 48.8267 35.7893C48.1102 35.1444 47.5472 34.387 47.1275 33.517C46.7385 32.7288 46.4928 31.8895 46.3495 31.0195C46.3188 30.8148 46.2881 30.6101 46.2676 30.4054C46.2267 30.0164 46.196 29.6377 46.196 29.2488C46.196 29.1362 46.196 29.0134 46.196 28.9008C46.2267 28.1638 46.3086 27.4371 46.4519 26.7104C46.6566 25.6766 46.9637 24.6633 47.3731 23.6909C47.7621 22.739 48.233 21.8383 48.7858 20.9683C49.3181 20.129 49.9015 19.3306 50.5464 18.5732C51.1299 17.8874 51.7645 17.2426 52.4401 16.6489C52.7882 16.3418 53.1362 16.045 53.5047 15.7686C53.5764 15.7175 53.7709 15.5639 53.8016 15.5435C54.1496 15.2978 54.4874 15.0419 54.8662 14.8372C55.0606 14.7246 55.2347 14.5813 55.4394 14.479C55.8591 14.2743 56.2481 14.0081 56.678 13.8341C56.8418 13.7727 56.9953 13.6806 57.1591 13.6192C57.7631 13.3735 58.367 13.1279 58.9914 12.9641C59.0119 12.9641 59.0324 12.9641 59.0528 12.9641C59.2268 12.872 59.4111 12.8515 59.5954 12.8106C59.8922 12.7492 60.1891 12.698 60.4859 12.6366C60.5985 12.6161 60.7214 12.6059 60.834 12.5957C61.1103 12.5752 61.3867 12.5342 61.6631 12.524C61.8985 12.5138 62.1237 12.4933 62.3592 12.5035V12.4831Z" fill="#11B67A"/>
<path d="M51.9184 35.8818C51.9184 35.8818 51.9184 35.8409 51.9184 35.8204C51.9184 35.8204 51.9184 35.7385 51.8979 35.6976C51.8979 35.6771 51.8979 35.6566 51.8979 35.6361C51.8979 35.5747 51.8979 35.5133 51.8775 35.4621V35.3905C51.8775 35.3291 51.8672 35.2677 51.8468 35.2063C51.8468 35.1756 51.8468 35.1448 51.8468 35.1141C51.8468 35.022 51.8468 34.9299 51.8161 34.848C51.8161 34.6535 51.7956 34.4693 51.7956 34.2748C51.7751 33.1387 51.9082 32.0128 52.1743 30.9074C52.4405 29.7814 52.8397 28.6965 53.3413 27.6422C53.8019 26.6699 54.3444 25.7487 54.9586 24.8787C55.7673 23.7323 56.6886 22.678 57.7122 21.7159C58.7051 20.7947 59.7697 19.9963 60.9367 19.3106C61.2642 19.1161 61.5918 18.9523 61.9193 18.7783C61.9501 18.7681 61.991 18.7578 62.0217 18.7374C62.3698 18.5531 62.7383 18.3996 63.0965 18.2461C63.5367 18.0618 63.9973 17.9185 64.4477 17.7752C64.4784 17.7752 64.5091 17.7752 64.5399 17.7752C65.369 17.5193 66.2186 17.376 67.0785 17.3249C67.6005 17.2942 68.1328 17.2942 68.6549 17.3453C68.5423 17.0997 68.4297 16.8643 68.2966 16.6596C67.9588 16.0761 67.5596 15.5848 67.0887 15.1652C66.8123 14.9195 66.5052 14.6841 66.1674 14.4692C65.7785 14.2235 65.3485 14.0188 64.8572 13.8448C64.7753 13.8141 64.6729 13.7834 64.5706 13.7629C64.4784 13.7425 64.3965 13.7117 64.2942 13.681C64.1611 13.6401 64.028 13.6094 63.8745 13.5787C63.6288 13.5275 63.3729 13.4968 63.0863 13.4661C62.8509 13.4456 62.6154 13.4252 62.3288 13.4149C62.1753 13.4149 62.0115 13.4149 61.8375 13.4252H61.7146C61.5713 13.4354 61.4178 13.4559 61.254 13.4763C61.1414 13.4866 61.039 13.4968 60.9264 13.507H60.8548C60.7831 13.5173 60.7217 13.5275 60.6705 13.5275C60.5886 13.5377 60.517 13.5582 60.4351 13.5684C60.2201 13.6094 60.0051 13.6503 59.8004 13.6913C59.7595 13.6913 59.7185 13.7117 59.6776 13.7117C59.6059 13.722 59.5138 13.7425 59.4933 13.7527L59.3398 13.8346L59.176 13.855C58.6028 14.0086 58.0398 14.2338 57.5177 14.4487C57.4665 14.4692 57.4051 14.4999 57.3335 14.5306C57.2413 14.5715 57.139 14.6227 57.0264 14.6636C56.8216 14.7455 56.6169 14.8684 56.3917 14.9912C56.2177 15.0935 56.0437 15.1857 55.8492 15.288C55.798 15.3187 55.7161 15.3699 55.6445 15.4211C55.5523 15.4825 55.45 15.5541 55.3271 15.6258C55.0303 15.7895 54.7539 15.9943 54.4468 16.2092L54.3444 16.2809C54.3444 16.2809 54.2625 16.3423 54.2114 16.3832C54.1499 16.4241 54.0988 16.4753 54.0681 16.4958C53.6995 16.7722 53.3515 17.069 53.0547 17.3351C52.42 17.8878 51.8161 18.5122 51.2531 19.1673C50.6389 19.8837 50.0759 20.6616 49.5743 21.46C49.0522 22.2993 48.6018 23.1693 48.2333 24.0496C47.8443 24.9912 47.5577 25.9431 47.3632 26.895C47.2302 27.5501 47.1585 28.2461 47.1278 28.9421C47.1278 29.0445 47.1278 29.1469 47.1278 29.2594C47.1278 29.5972 47.1483 29.935 47.1892 30.3137V30.3546C47.1995 30.5286 47.2302 30.7026 47.2609 30.8869C47.3939 31.6852 47.6294 32.4427 47.9569 33.1285C48.3459 33.9166 48.827 34.5614 49.4515 35.1244C49.9633 35.585 50.5467 35.9637 51.2019 36.2503C51.4783 36.3731 51.7649 36.4755 52.0822 36.5573C52.0413 36.3731 51.9901 36.1991 51.9594 36.0149C51.9594 35.9739 51.9594 35.933 51.9389 35.892L51.9184 35.8818ZM51.7239 35.0118C51.7239 35.0118 51.7649 35.0425 51.7956 35.0425C51.7649 35.0425 51.7444 35.0323 51.7239 35.0118ZM43.4222 48.3179C43.6474 48.1541 43.8931 48.0211 44.1388 47.888C44.19 47.7038 44.2411 47.5195 44.2616 47.3353V47.2944C44.2616 47.2841 44.2616 47.2432 44.2616 47.2125C44.2616 47.1204 44.2821 47.0078 44.3128 46.8645C44.323 46.7826 44.323 46.6802 44.323 46.5983C44.323 46.5472 44.323 46.5062 44.323 46.455C44.323 46.4039 44.323 46.3425 44.323 46.2913C44.323 46.2094 44.323 46.1377 44.323 46.0661C44.323 46.0661 44.323 46.0559 44.323 46.0456C44.323 45.974 44.3128 45.8716 44.2923 45.7693C44.2514 45.4622 44.19 45.237 44.1081 45.0323C43.9238 44.5615 43.6884 44.2032 43.3608 43.9167C43.064 43.6505 42.6955 43.4663 42.2041 43.3332C42.0403 43.2923 41.9175 43.2718 41.8151 43.2616C41.7537 43.2616 41.7025 43.2616 41.6411 43.2616C41.3135 43.2616 40.9962 43.2513 40.7301 43.3025C40.6687 43.3128 40.6072 43.323 40.5458 43.3332C40.4537 43.3537 40.3616 43.3639 40.3206 43.3844L40.0749 43.4765H40.0545C40.0545 43.4765 40.0545 43.4765 40.0442 43.4765C39.8293 43.5277 39.6553 43.5789 39.5119 43.6608C39.3584 43.7426 39.2151 43.8041 39.082 43.8655C38.9899 43.9064 38.8978 43.9474 38.8159 43.9883C38.693 44.0497 38.56 44.1418 38.4167 44.234C38.3143 44.2954 38.2222 44.367 38.1096 44.4284C39.4505 45.5748 40.7915 46.7314 42.1427 47.8778C42.3884 48.0927 42.634 48.2974 42.8797 48.5124C42.9411 48.5738 42.9923 48.584 43.064 48.5226C43.1663 48.4407 43.2789 48.3793 43.3813 48.3077L43.4222 48.3179ZM81.911 9.95532C82.0952 10.4773 82.648 12.4221 82.648 12.852C82.648 12.8827 82.648 12.9134 82.648 12.9338L82.607 13.3637L82.259 13.6094C82.1566 13.681 81.3684 14.2849 81.1637 14.4692C80.8669 14.7251 80.5802 15.0424 80.2732 15.4415C79.7102 16.158 79.2905 16.9257 79.0038 17.7241C78.8401 18.1846 78.7377 18.6555 78.6865 19.1161V19.1775C78.6865 19.2287 78.666 19.4027 78.666 19.6381C78.666 19.9452 78.6865 20.1192 78.6967 20.1499V20.2113C78.7684 20.6923 78.8912 21.0711 79.0755 21.3884C79.5054 22.1253 80.1094 22.545 80.9795 22.6985C80.9999 22.6985 81.0306 22.6985 81.0613 22.7087C81.2047 22.7292 81.4196 22.7497 81.6448 22.8623L82.1566 23.0977V23.6606L82.1669 23.6709C82.1669 23.8244 82.1669 23.896 81.8496 24.9503C81.6858 25.503 81.4913 26.0864 81.3787 26.4344C81.0716 27.3352 80.7133 28.2564 80.3039 29.1776C80.007 29.8429 79.6794 30.5389 79.3109 31.2349C79.0857 31.6648 78.881 32.0435 78.6763 32.3915L78.4306 32.8111L77.9495 32.8419C77.7857 32.8521 77.6526 32.8419 77.5503 32.8214C77.5298 32.8214 77.4889 32.8214 77.4786 32.8214C77.0692 32.8111 76.629 32.8112 76.24 32.893C76.1581 32.9135 75.7384 33.0261 75.5951 33.067C75.0424 33.241 74.5101 33.5072 73.9778 33.8552C73.9368 33.8756 73.9061 33.9064 73.8652 33.9268L73.8242 33.978L73.7014 34.0599C73.5683 34.1418 73.4353 34.2544 73.292 34.3772L73.1896 34.4591C72.7801 34.7968 72.4014 35.196 72.0124 35.6873C71.4801 36.3629 71.0604 37.1101 70.784 37.888C70.61 38.369 70.5077 38.8399 70.4565 39.3107C70.4565 39.3516 70.4565 39.3926 70.4462 39.4233C70.436 39.5154 70.4258 39.6075 70.4258 39.6792C70.4258 39.6996 70.4258 39.7201 70.4258 39.7303L70.4462 39.8839L70.4258 39.9862C70.4258 39.9862 70.4258 40.0067 70.4258 40.0272C70.4258 40.0681 70.4258 40.1295 70.436 40.1909C70.4565 40.5594 70.5384 40.9279 70.6919 41.3066C70.7329 41.3987 70.825 41.583 70.8352 41.8286L70.8557 42.2687L70.5179 42.5553C70.5179 42.5553 70.436 42.627 70.3848 42.6679C70.2825 42.76 70.1699 42.8522 70.047 42.9545C70.0163 42.975 69.9754 43.0262 69.9242 43.0773C69.8321 43.1695 69.7195 43.2821 69.5761 43.3844C69.4635 43.4663 69.351 43.5584 69.2281 43.6608L69.1974 43.6812C69.0746 43.7836 68.9415 43.8859 68.8084 43.9985L68.6344 44.1418C68.5218 44.234 68.4092 44.3158 68.3068 44.3977C68.1635 44.5103 68.0202 44.6127 67.9076 44.715L67.8462 44.756L67.7438 44.8276C67.6722 44.8788 67.5903 44.9402 67.5186 44.9914C67.3856 45.0937 67.2525 45.1859 67.1194 45.2677C67.0478 45.3189 66.9761 45.3599 66.9147 45.411C66.9045 45.411 66.8942 45.4315 66.8737 45.4417C66.7919 45.5134 66.6485 45.6362 66.4438 45.7181C66.1265 45.9535 65.7989 46.1582 65.4816 46.3527L65.4099 46.3936C65.3383 46.4448 65.2564 46.496 65.1745 46.5472C65.0517 46.6291 64.9288 46.7109 64.7855 46.7928C64.6832 46.8542 64.5808 46.9054 64.4887 46.9566C64.417 46.9873 64.3556 47.0282 64.3044 47.0487C64.028 47.2227 63.7414 47.3865 63.4446 47.54C63.332 47.6014 63.2091 47.6628 63.0863 47.7345C63.0249 47.7652 62.9635 47.7959 62.9123 47.8368L62.6461 47.9801L62.339 47.9392C62.1855 47.9187 61.6839 47.7959 61.5201 47.2022C61.4075 46.9464 61.2949 46.7314 61.1516 46.5574C60.9981 46.3527 60.8138 46.1685 60.5784 46.0149C60.3634 45.8716 60.1075 45.7488 59.8004 45.6567C59.565 45.585 59.2886 45.5543 58.9918 45.5236H58.8587C58.8587 45.5236 58.7154 45.5236 58.6232 45.5236C58.5311 45.5236 58.439 45.5441 58.3264 45.5441C58.2445 45.5441 58.1524 45.5646 58.0398 45.585C58.0091 45.585 57.9476 45.6055 57.8965 45.626C57.835 45.6362 57.7941 45.6567 57.7736 45.6567C57.3335 45.759 56.8933 45.9228 56.4429 46.148C56.1665 46.281 55.9004 46.4551 55.6547 46.6188V46.6495L55.3885 46.8133C55.1326 46.9873 54.887 47.2022 54.6106 47.4581C54.283 47.7652 53.9657 48.1234 53.6484 48.5533C53.1775 49.1879 52.8295 49.8328 52.5838 50.5083L52.3995 51.0201L51.857 51.0917C51.5602 51.1327 51.2633 51.1327 51.0176 51.1327C50.9664 51.1327 50.9153 51.1327 50.8641 51.1327H50.7105C50.5467 51.1327 50.383 51.1327 50.2089 51.1327C50.1066 51.1327 50.0042 51.1327 49.8916 51.1327C49.6562 51.1327 49.4003 51.1327 49.1239 51.102C48.9908 51.0917 48.8475 51.0713 48.694 51.061C48.5916 51.061 48.4892 51.0508 48.3971 51.0405C48.2026 51.0201 47.9569 50.9996 47.701 50.9587C47.3632 50.9075 46.9538 50.8461 46.5443 50.7642C46.4317 50.7437 46.3191 50.713 46.2168 50.6925C47.4758 51.7673 48.7247 52.842 49.9837 53.9167C50.0963 54.0088 50.2089 54.0805 50.342 54.1214C50.5365 54.1828 50.7208 54.2443 50.9153 54.3057C52.1436 54.6639 53.4027 54.8788 54.672 54.971C55.5011 55.0221 56.3303 55.0221 57.1594 54.9914C57.2209 54.9914 57.2823 54.9914 57.3232 54.9403C57.4665 54.6025 57.6098 54.2545 57.7839 53.9269C58.4185 52.7499 59.2579 51.757 60.3122 50.9382C60.8752 50.4981 61.4997 50.1398 62.165 49.8635C62.4516 49.7406 62.7587 49.6588 63.0556 49.5564C63.1375 49.5564 63.2194 49.5257 63.291 49.5052C63.6186 49.454 63.9564 49.3926 64.2942 49.3926C64.591 49.3926 64.8879 49.4131 65.1745 49.4438C65.2564 49.4745 65.3178 49.5257 65.3792 49.5871C66.2084 50.3036 67.0375 51.0201 67.8769 51.7263C67.9656 51.8014 68.0578 51.8116 68.1533 51.757C68.962 51.3271 69.7502 50.8768 70.5179 50.3855C71.2959 49.8942 72.0431 49.3824 72.7801 48.8297C72.8313 48.7887 72.8927 48.758 72.9337 48.6966C72.9541 48.6761 72.9849 48.6659 73.0053 48.6454C73.5069 48.2667 74.0085 47.8778 74.4794 47.4684C74.7865 47.2022 75.0833 46.9464 75.3904 46.6802C75.4314 46.6393 75.503 46.6086 75.4518 46.5369C75.2983 46.1685 75.1857 45.7897 75.114 45.3906C75.114 45.3394 75.114 45.2882 75.0935 45.237C75.0833 44.9811 75.0731 44.7253 75.0526 44.4796C75.0731 44.2749 75.0731 44.0702 75.1038 43.8655C75.2266 42.8829 75.5542 41.9617 76.0251 41.1019C76.6904 39.8941 77.5912 38.8808 78.707 38.0722C79.3928 37.5707 80.1298 37.1919 80.9385 36.9361C81.481 36.7723 82.0338 36.6699 82.607 36.6699C82.648 36.6802 82.6889 36.6699 82.7299 36.6699C82.8834 36.6802 83.0472 36.7006 83.2008 36.7109C83.2622 36.7109 83.3236 36.7518 83.3952 36.7109C83.4464 36.6802 83.4669 36.6085 83.4976 36.5573C83.8968 35.8409 84.2756 35.1039 84.6236 34.3669C85.5039 32.5041 86.2102 30.5798 86.7323 28.5839C86.763 28.4611 86.7323 28.3997 86.6402 28.3178C85.6575 27.4682 84.6748 26.6187 83.7023 25.7691C83.5795 25.6668 83.4464 25.5747 83.3543 25.4416C83.3133 25.1652 83.2622 24.8991 83.2622 24.6228C83.2622 24.4283 83.2622 24.2236 83.2622 24.0291C83.3031 23.4559 83.4157 22.9032 83.6 22.3607C84.163 20.7026 85.1457 19.331 86.4969 18.2154C86.7323 18.0209 86.9984 17.8469 87.2339 17.6626C87.2339 17.6626 87.2543 17.6626 87.2646 17.6626V17.6012C87.2646 17.6012 87.2441 17.6012 87.2339 17.6012C87.2236 17.5501 87.2134 17.4886 87.2032 17.4375C87.0803 16.8643 86.937 16.2911 86.763 15.7384C86.5788 15.1754 86.3843 14.6125 86.1386 14.07C85.985 13.7322 85.8315 13.3944 85.6677 13.0567C85.3709 12.463 85.0228 11.9001 84.6441 11.3473C84.5724 11.245 84.5008 11.1631 84.4086 11.0812C83.3134 10.1293 82.2283 9.17743 81.133 8.22553C81.1944 8.34835 81.2558 8.46094 81.2968 8.5633C81.5118 9.04436 81.7062 9.5152 81.8598 9.96556L81.911 9.95532ZM83.3441 14.1928C83.3441 14.1928 83.2929 14.1519 83.2519 14.1416C83.2519 14.1416 83.3134 14.1723 83.3441 14.1928ZM72.1045 3.74239C72.1045 3.8038 72.1045 3.87545 72.1045 3.93686V3.99827C72.1045 4.01874 72.1045 4.03922 72.1045 4.05969C72.1045 4.4384 72.1762 4.82735 72.3297 5.20606C72.6675 6.06584 73.2305 6.57761 74.1211 6.8335C74.2951 6.88468 74.4691 6.91539 74.6534 6.92562C74.8991 6.94609 75.1959 6.95633 75.4518 6.91539H75.503L75.5542 6.90515C75.8306 6.88468 76.1274 6.81303 76.4243 6.72091C76.455 6.72091 76.4959 6.70044 76.5369 6.67997C76.5676 6.66973 76.5983 6.6595 76.629 6.64926C76.6597 6.63903 76.7007 6.62879 76.7314 6.60832C76.8542 6.55714 76.977 6.50597 77.1101 6.45479C77.1613 6.29102 77.2227 6.13749 77.2841 5.98396C77.3455 5.82019 77.3558 5.82019 77.2227 5.71783C75.7589 4.44863 74.3053 3.17943 72.8415 1.9C72.7392 1.80788 72.6368 1.726 72.5345 1.63388C72.4116 1.93071 72.3195 2.20706 72.2581 2.47319C72.1352 2.94402 72.0841 3.35344 72.0841 3.73215L72.1045 3.74239Z" fill="black"/>
<path d="M36.6761 25.8516L39.6037 19.0757C39.6037 19.0757 41.3439 19.393 43.2683 18.4309C45.1927 17.4688 47.8132 14.5926 48.0487 12.4738C48.2943 10.2527 47.7518 8.70719 47.7518 8.70719L53.4944 4.77677C53.4944 4.77677 54.5385 7.4687 59.1347 6.81363C64.13 6.09714 65.0718 1.21482 65.5733 1.22506C66.0749 1.23529 69.76 1.55259 70.2411 1.83918C70.364 1.91083 69.3505 4.613 71.1214 6.94669C74.3561 11.1944 78.7066 8.1033 78.7066 8.1033L80.5491 12.4841C80.5491 12.4841 75.9837 9.61815 72.5955 12.3306C70.4458 14.0501 70.6199 16.8751 70.5789 16.7625C66.7812 7.9293 57.6709 11.5936 57.6709 11.5936C57.6709 11.5936 49.4613 14.8587 46.3801 21.8291C41.6919 32.4433 46.2471 36.5477 46.2471 36.5477C43.0124 37.3051 43.5549 41.4914 43.5549 41.4914C40.6683 40.2734 37.7509 42.167 37.7509 42.167L36.0107 38.1444C36.0107 38.1444 43.0022 32.7401 38.6108 26.9878C37.6281 25.7083 36.6863 25.8516 36.6863 25.8516H36.6761Z" fill="white"/>
<path d="M98.5248 80.8654C98.5248 80.8654 85.9341 75.6351 73.0158 85.6966C73.0158 85.6966 79.0655 75.021 67.9897 65.6146C67.9897 65.6146 80.4167 70.3024 93.2428 61.0291C93.2428 61.0291 86.3128 71.8787 98.5043 80.8552H98.5248V80.8654Z" fill="white"/>
<path d="M21.9771 34.4176C21.9771 34.4176 15.5589 29.1566 6.25409 32.739C6.25409 32.739 11.6691 27.5803 6.85804 20.1494C6.85804 20.1494 13.2865 25.0726 22.3968 21.9201C22.3968 21.9201 16.4495 27.0276 21.9771 34.4074V34.4176Z" fill="white"/>
</g>
<defs>
<clipPath id="clip0_15980_12445">
<rect width="100" height="100" fill="white"/>
</clipPath>
</defs>
</svg>
