<svg width="100" height="100" viewBox="0 0 100 100" fill="none" xmlns="http://www.w3.org/2000/svg">
<rect width="100" height="100" fill="#6CF479"/>
<path d="M51.4077 63.5527L88.9703 41.9189V78.3661L51.4077 100V63.5527Z" fill="#11B67A"/>
<path d="M77.6167 84.9008L85.2737 80.5039V65.8192L77.6167 70.1231V84.9008Z" fill="#006A4D"/>
<path d="M71.2259 83.7782V73.5403L55.9049 82.2411V92.4789L71.2259 83.7782Z" fill="#6CF479"/>
<path d="M71.2259 68.6284V58.3905L55.9049 67.0913V77.3291L71.2259 68.6284Z" fill="#6CF479"/>
<path d="M70.2105 60.2493V67.9492L61.567 72.7321C61.567 72.7321 67.8942 68.4282 67.0434 61.9509L70.2105 60.2565V60.2493Z" fill="white"/>
<path d="M70.2105 75.3992V83.099L61.567 87.8819C61.567 87.8819 67.8942 83.578 67.0434 77.1008L70.2105 75.4064V75.3992Z" fill="white"/>
<path d="M77.6167 65.5045L85.2737 61.1148V50.4337L77.6167 54.7447V65.5045Z" fill="#6CF479"/>
<path d="M78.7176 63.5454L84.3369 60.4355V52.6856C84.3369 52.6856 83.6506 59.5704 78.7176 63.5454Z" fill="white"/>
<path d="M90.6788 43.6989L74.5642 12.6994L37.0016 34.3261L53.1162 65.3256L90.6788 43.6989Z" fill="#C7FFC6"/>
<path d="M53.1162 65.3256L37.0016 34.3261L24.7119 47.2591L23.4465 48.6604L24.7119 49.4611V85.5652L51.4077 100L51.4075 64.539L53.1162 65.3256Z" fill="black"/>
<path d="M64.3337 44.3785L56.4336 44.3999L51.4935 37.0933L56.5337 34.1049H61.7313L64.3337 44.3785Z" fill="#006A4D"/>
<path d="M64.3333 31.5668L64.3337 44.3785L59.2358 36.1638V29.4506L64.3333 31.5668Z" fill="#006A4D"/>
<path d="M70.7605 28.1133L64.3333 31.5668L59.2358 29.4506L65.6702 25.9971L70.7605 28.1133Z" fill="#6CF479"/>
<path d="M70.7605 28.1133L64.3333 31.5668L64.3337 44.3785L70.7609 40.9251L70.7605 28.1133Z" fill="#11B67A"/>
<path d="M65.7278 27.2051L68.2229 28.2418L64.2693 30.3651L61.7742 29.3285L65.7278 27.2051Z" fill="#024731"/>
<path d="M40.9336 72.1679L33.2767 67.7782V57.0971L40.9336 61.401V72.1679Z" fill="#006A4D"/>
<path d="M47.6576 0C44.4603 0 41.6739 1.74804 40.1798 4.33275C39.5822 3.82477 38.7381 3.32426 37.6399 3.19726C34.9955 2.89845 33.2026 4.45227 32.5677 5.11713C32.3062 5.39352 32.0373 5.66245 31.7459 5.90897C29.8186 7.57484 26.7857 9.45734 20.4584 9.45734H56.2931V8.62814C56.2931 3.86212 52.4311 0 47.6651 0H47.6576Z" fill="white"/>
<path d="M10 22.6625L27.7344 22.6775C27.7344 22.6775 23.6033 13.6833 10 22.6625Z" fill="white"/>
</svg>
