<svg width="100" height="100" viewBox="0 0 100 100" fill="none" xmlns="http://www.w3.org/2000/svg">
<g clip-path="url(#clip0_15980_12515)">
<rect width="100" height="100" fill="#6CF479"/>
<path fill-rule="evenodd" clip-rule="evenodd" d="M63.685 76.3438H63.6644L63.6712 76.337L63.685 76.3438Z" fill="black"/>
<path fill-rule="evenodd" clip-rule="evenodd" d="M46.539 54.1207L51.7566 51.7985V71.2959C51.9195 74.1914 54.6239 75.1684 56.7336 75.4445L63.6644 76.3438C62.9281 77.2642 61.7177 77.7808 60.3796 77.6109L50.631 76.5136C48.3867 76.2304 46.546 74.1702 46.546 71.9189V71.3596H46.539V54.1136V54.1207Z" fill="#006A4D"/>
<path fill-rule="evenodd" clip-rule="evenodd" d="M56.1169 79.041V99.0835H61.9576V79.5579C61.4549 79.6287 60.931 79.6357 60.393 79.5649L56.1169 79.034V79.041Z" fill="black"/>
<path d="M56.1169 79.041L60.1735 79.7988V99.4023H56.1169V79.041Z" fill="#006A4D"/>
<path d="M66.0287 10.7227L60.5774 -0.597656L40.5845 7.31738L46.2977 15.9758L49.9083 23.5651C52.0181 23.1899 54.0499 23.5439 55.7703 24.797C56.28 25.1651 56.719 25.6041 57.1154 26.0713C52.5703 24.2377 46.2694 26.7651 42.1915 32.3651C38.1137 37.9722 37.6323 44.7403 40.7615 48.5067C40.188 48.2731 39.6429 47.9899 39.1331 47.6218C34.5809 44.3085 35.3172 37.0165 39.9119 30.7156C41.1225 29.0519 42.4818 27.6289 43.9119 26.489L41.1084 24.4926L31.0057 20.4076L16.9102 47.6147L27.5438 50.9917L40.0181 49.5262L40.8535 49.4271L41.0588 48.6908C41.9296 49.151 42.8853 49.4341 43.8907 49.5403C48.0322 49.9793 52.988 47.4872 56.3791 42.843C60.5915 37.066 60.8889 30.0147 57.2641 26.4678L65.9862 24.3297L66.0287 10.7227Z" fill="#11B67A"/>
<path d="M80.3368 53.3561L60.981 38.5809C62.0288 35.7137 62.3332 32.8394 61.8801 30.3473L82.9775 46.6659C82.4111 44.2517 81.1226 41.9933 79.0908 40.011C79.0908 40.011 58.7651 24.7686 58.0925 24.3225C52.6766 20.7332 44.4642 23.5579 39.5793 30.6234C36.7404 34.5668 35.5793 39.0411 36.089 42.765C36.3864 45.9296 37.7103 48.6977 40.0324 50.4676L60.981 66.0004C62.043 66.7862 63.2465 67.2747 64.5421 67.4942V54.5172C64.5421 52.9668 65.7881 51.7207 67.3386 51.7207H69.2359L69.4058 52.5845C69.8872 53.0871 70.1846 53.7668 70.1846 54.5172V66.9491C73.512 65.8305 76.8677 63.388 79.473 59.8694C79.82 59.4022 80.1385 58.9349 80.4359 58.4606C81.3492 56.5986 81.6748 54.319 80.3438 53.3491L80.3368 53.3561ZM55.912 42.3685C52.6908 46.7792 47.7987 49.4553 43.7421 49.0234C42.4961 48.8889 41.3775 48.4712 40.4288 47.7774C36.2731 44.7544 36.4643 37.3986 40.8465 31.3809C44.0678 26.9703 48.9598 24.2942 53.0164 24.7261C54.2625 24.8606 55.381 25.2783 56.3297 25.9721C60.4855 28.9951 60.2943 36.3509 55.912 42.3615V42.3685Z" fill="black"/>
<path d="M81.9293 15.6358L67.4585 46.149L62.0001 50.0641L58.97 48.3366L67.5788 28.0535L69.6036 27.834L81.9293 15.6358Z" fill="#11B67A"/>
<path d="M54.4039 52.6129L40.7898 53.8377L29.8447 61.5687L19.7208 65.7386L38.6163 64.351L48.2446 60.9527L54.4039 52.6129Z" fill="#11B67A"/>
<path d="M57.1283 26.4339C60.9062 29.2786 60.2866 36.4746 55.7445 42.5066C51.2024 48.5385 44.4578 51.1223 40.6799 48.2775C36.902 45.4328 37.5216 38.2368 42.0637 32.2048C46.6058 26.1729 53.3505 23.5891 57.1283 26.4339Z" fill="white"/>
<path d="M54.7707 33.4084C54.7707 33.4084 50.5799 33.5411 48.2379 37.9916C48.2379 37.9916 48.5831 34.2329 44.2841 33.0036C44.2841 33.0036 48.3613 32.7379 50.777 28.5158C50.777 28.5158 50.2103 32.4365 54.7674 33.4075L54.7724 33.4089L54.7707 33.4084Z" fill="#6CF479"/>
<path fill-rule="evenodd" clip-rule="evenodd" d="M66.418 74.2908V71.9758H66.4251V54.5244C66.4251 52.974 67.6711 51.728 69.2216 51.728H69.2711C70.8216 51.728 72.0676 52.974 72.0676 54.5244V73.2784C72.0676 73.2784 72.0676 73.2784 72.0676 73.2855V73.3067C72.0676 76.0607 70.1986 78.1704 67.6711 78.5669L62.6304 79.4448C62.5526 79.4519 62.5101 79.466 62.4535 79.466C64.7685 78.9067 66.4251 76.8819 66.4251 74.2837H66.418V74.2908Z" fill="#006A4D"/>
<path d="M66.9349 55.0269C66.9349 55.0269 66.9489 55.0128 66.9559 55.0058L66.9349 55.0339V55.0269Z" fill="white"/>
<path d="M66.9844 54.9631V54.6233C66.9844 53.3843 67.9897 52.379 69.2287 52.379C70.4676 52.379 71.4729 53.3843 71.4729 54.6233V54.9914C71.4729 54.9914 71.4517 54.956 71.4375 54.9348L71.4729 54.9985V74.5878C71.4729 74.5878 70.857 64.2516 70.4251 58.3259C70.1278 54.3047 68.2021 53.7525 66.9986 54.9631C66.9986 54.9702 66.9844 54.9843 66.9844 54.9914V54.9772C66.9844 54.9772 66.963 54.9987 66.9559 55.0058L66.9844 54.956V54.9631Z" fill="white"/>
</g>
<defs>
<clipPath id="clip0_15980_12515">
<rect width="100" height="100" fill="white"/>
</clipPath>
</defs>
</svg>
