<svg width="100" height="100" viewBox="0 0 100 100" fill="none" xmlns="http://www.w3.org/2000/svg">
<rect width="100" height="100" fill="#6CF479"/>
<path d="M20.8537 0C21.54 5.33344 25.1254 8.84541 29.8585 8.8097C25.0544 10.8574 21.185 15.9884 20.1319 21.7147C19.4456 16.3813 15.8602 12.8693 11.127 12.905C15.9312 10.8455 19.8006 5.7144 20.8537 0Z" fill="white"/>
<path d="M89.6733 44.3654C90.1518 48.0842 92.6517 50.5329 95.9519 50.508C92.6022 51.9357 89.9043 55.5134 89.17 59.5061C88.6915 55.7873 86.1916 53.3386 82.8913 53.3635C86.2411 51.9274 88.939 48.3498 89.6733 44.3654Z" fill="white"/>
<path d="M23.0692 86.7407C23.3666 89.0522 24.9206 90.5744 26.972 90.5589C24.8898 91.4464 23.2128 93.6703 22.7563 96.1521C22.4589 93.8405 20.9049 92.3184 18.8535 92.3339C20.9357 91.4412 22.6127 89.2174 23.0692 86.7407Z" fill="white"/>
<path d="M44.1344 53.3867C44.0714 53.5036 43.9905 53.6384 43.9185 53.7553L4.16818 76.5218L21.1244 53.3867H44.1344Z" fill="#11B67A"/>
<path d="M56.0167 73.7539L44.4398 99.9282V53.4691L56.0167 73.7539Z" fill="#006A4D"/>
<path d="M84.7569 76.6657L44.6288 53.3867H67.7647L67.7557 53.4046L84.7569 76.6657Z" fill="#006A4D"/>
<path d="M44.4398 53.4691L44.4391 53.397H44.1333L43.8274 53.9275C39.9324 60.4913 36.0375 67.0641 32.1515 73.6279L32.7722 73.5649L44.4121 100L44.4391 99.9371V53.4779L44.4398 53.4691Z" fill="#11B67A"/>
<path d="M84.7747 76.6747L84.7569 76.6657L44.6288 53.3867H44.4398V53.4676L44.4667 53.5125L56.0167 73.7524L56.0887 73.5816L84.8107 76.7197L84.7747 76.6747Z" fill="#11B67A"/>
<path d="M44.7364 53.3866C44.7994 53.2697 44.8803 53.1349 44.9523 53.018L84.7026 30.2604L67.7464 53.3956H44.7364V53.3866Z" fill="#11B67A"/>
<path d="M32.8633 33.0222L44.4312 6.84788V53.3161L32.8633 33.0222Z" fill="#006A4D"/>
<path d="M4.11411 30.1183L44.2422 53.3884H21.1153L21.1243 53.3704L4.11411 30.1183Z" fill="#006A4D"/>
<path d="M44.4312 53.3161L44.4307 53.3873L44.7364 53.3866L45.0424 52.8568C48.9374 46.293 52.8323 39.7202 56.7183 33.1564L56.0976 33.2193L44.4577 6.78427L44.4312 6.84788L44.4307 53.3064L44.4312 53.3161Z" fill="#11B67A"/>
<path d="M4.10528 30.1076L4.11428 30.1166L44.2424 53.3867L44.4307 53.3873L44.4313 53.3147L44.4043 53.2608L32.8633 33.0209L32.7824 33.2007L4.0693 30.0627L4.10528 30.1076Z" fill="#11B67A"/>
<path d="M44.4312 6.84788L44.4307 53.3873L52.6882 39.9636L46.6973 43.4434L44.4312 6.84788Z" fill="#6CF479"/>
<path d="M44.4307 53.3873L35.9842 67.1527L42.3619 62.3782L44.4398 99.9268L44.4307 53.3873Z" fill="#6CF479"/>
<path d="M32.8633 33.0222L35.1121 27.9243L44.4312 53.3883L32.8633 33.0222Z" fill="#006A4D"/>
<path d="M56.0167 73.7524C55.3601 75.2361 54.7034 76.7286 54.0467 78.2122C50.8444 69.94 47.6421 61.6589 44.4398 53.3867L56.0167 73.7524Z" fill="#006A4D"/>
<path d="M44.4398 53.4676C42.3259 56.5876 40.167 59.9958 38.0261 63.7003C36.0561 67.1081 34.311 70.4169 32.7728 73.564C23.2018 74.598 13.6308 75.641 4.05078 76.675L4.15872 76.5222C17.5797 68.8344 31.0097 61.1467 44.4308 53.4589L44.4398 53.4676Z" fill="#006A4D"/>
<path d="M44.4398 53.4691C46.5626 50.2681 54.5325 36.3933 56.0976 33.2193C65.6687 32.1853 75.2398 31.1421 84.8198 30.1081L84.7118 30.2609C71.2908 37.9936 57.8698 45.7353 44.4488 53.468L44.4398 53.4691Z" fill="#006A4D"/>
<path d="M4.16818 76.5218L32.7733 73.5546L44.4398 99.9268L31.0732 76.7196L4.16818 76.5218Z" fill="black"/>
<path d="M56.0167 73.7524L44.4398 99.9268L57.9327 76.7196L84.7569 76.6657L56.0167 73.7524Z" fill="black"/>
</svg>
