<svg width="100" height="100" viewBox="0 0 100 100" fill="none" xmlns="http://www.w3.org/2000/svg">
<rect width="100" height="100" fill="#6CF479"/>
<path d="M82.0639 63.9551C78.1851 65.6621 66.4236 70.1486 50.8816 69.8716L50.7743 70.1754C53.4287 70.4614 56.1367 70.6044 58.8179 70.6044C71.8039 70.6044 81.8405 67.3244 86.6398 65.385L82.0729 63.9551H82.0639Z" fill="black"/>
<path d="M16.151 78.7195L14.7658 77.5756L16.2583 76.5746C21.3079 73.1784 26.1251 70.238 30.8798 67.6373L25.6782 66.3771C20.727 69.0493 15.7131 72.097 10.449 75.6451C16.2494 80.4355 21.7726 84.502 27.3138 88.0769C31.4339 90.7313 35.8042 93.2606 40.5499 95.7451C37.9849 94.2794 35.5182 92.7958 33.1409 91.2586C27.5551 87.6569 21.9961 83.5457 16.151 78.7195Z" fill="black"/>
<path d="M46.9401 56.7784C44.107 57.8419 41.4079 58.9323 38.8072 60.0495L43.9104 61.2649C46.3324 60.2103 48.8348 59.1915 51.4445 58.1816L46.9491 56.7695L46.9401 56.7784Z" fill="black"/>
<path d="M39.9153 63.07L34.7763 61.8456C33.7664 62.3103 32.7565 62.7751 31.7734 63.2487L36.9123 64.5C37.8954 64.0174 38.8964 63.5437 39.9153 63.07Z" fill="black"/>
<path d="M60.9982 88.9445C74.9225 88.9445 85.4239 84.8244 87.7565 83.8324L88.6234 66.0024C84.8608 67.6558 73.6713 71.9457 58.8175 71.9457C56.0201 71.9457 53.0886 71.7938 50.05 71.4453L48.9239 71.3112L53.4908 58.8257C46.7253 61.3729 40.6568 64.0452 34.9906 66.9498C29.1366 69.9617 23.238 73.474 16.9997 77.6746C22.8001 82.465 28.3233 86.5315 33.8645 90.1064C39.2179 93.5562 45.0004 96.8004 51.4799 100L48.3161 87.7737L49.6746 88.0061C53.6159 88.6675 57.4143 88.9445 60.9892 88.9445H60.9982Z" fill="#11B67A"/>
<path d="M92.9584 31.5219C87.158 26.7315 81.6348 22.665 76.0936 19.0901C70.7402 15.6403 64.9577 12.396 58.4782 9.19649L61.642 21.4227L60.2835 21.1904C56.3421 20.529 52.5438 20.252 48.9689 20.252C35.0445 20.252 24.5431 24.3721 22.2105 25.3641L21.3436 43.1941C24.3465 41.8713 32.0862 38.8773 42.6502 37.7155C45.3135 37.4206 48.1556 37.2507 51.1496 37.2507C53.9469 37.2507 56.8784 37.4027 59.9081 37.7512L61.0342 37.8853L56.4673 50.3707C63.2328 47.8236 69.3013 45.1513 74.9675 42.2467C80.8215 39.2348 86.7201 35.7225 92.9584 31.5219Z" fill="#C7FFC6"/>
<path d="M79.007 0C79.3556 6.60468 73.7698 7.26604 73.7698 7.26604C80.4459 9.0267 82.3049 14.5232 82.3049 14.5232C82.4122 8.17765 87.6852 7.27498 87.6852 7.27498C80.723 5.70201 78.9981 0 78.9981 0H79.007Z" fill="white"/>
<path d="M13.2373 48.9589C13.5858 55.5636 8 56.225 8 56.225C14.6762 57.9856 16.5351 63.4821 16.5351 63.4821C16.6424 57.1366 21.9154 56.2339 21.9154 56.2339C14.9532 54.6609 13.2283 48.9589 13.2283 48.9589H13.2373Z" fill="white"/>
<path d="M66.6199 76.6822C66.9684 83.2869 61.3826 83.9483 61.3826 83.9483C68.0588 85.7089 69.9178 91.2054 69.9178 91.2054C70.025 84.8599 75.298 83.9572 75.298 83.9572C68.3359 82.3842 66.611 76.6822 66.611 76.6822H66.6199Z" fill="white"/>
<path d="M59.8274 19.7692L57.182 9.54485L56.9764 8.74049L51.9268 7.15859L55.0459 19.1972C56.6547 19.3402 58.2544 19.5189 59.8363 19.7692H59.8274Z" fill="black"/>
<path d="M49.9157 48.3237L55.1888 49.9771L55.2066 49.9145L59.1927 39.0288C57.298 38.8233 55.3764 38.6982 53.4549 38.6356L49.9068 48.3237H49.9157Z" fill="black"/>
<path d="M15.7573 23.2722L20.9052 24.5056V24.4698L21.6828 24.1391C24.5516 22.9147 35.0173 18.9197 48.9684 18.9197C50.3716 18.9197 51.7747 18.9733 53.169 19.0538C34.3201 16.0419 18.8943 21.9495 15.7663 23.2722H15.7573Z" fill="black"/>
<path d="M15.427 28.0179L20.6732 29.296L20.7804 27.2314L15.5253 25.9802L15.427 28.0179Z" fill="black"/>
<path d="M14.7833 41.147L20.0116 42.8629L20.4585 33.8452L15.2033 32.5671L14.7833 41.147Z" fill="black"/>
</svg>
