<svg width="100" height="100" viewBox="0 0 100 100" fill="none" xmlns="http://www.w3.org/2000/svg">
<g clip-path="url(#clip0_15980_1716)">
<rect width="100" height="100" fill="#6CF479"/>
<path d="M37.6138 42.0011C32.3526 45.7157 27.0913 49.4304 21.8301 53.145C17.2382 56.4699 17.1123 63.2483 21.5777 66.7402L22.2412 67.2591L36.1709 52.293C36.6519 48.8624 37.1328 45.4318 37.6138 42.0011Z" fill="#006A4D"/>
<path d="M37.6138 42.0011C36.6423 42.8773 35.2192 44.2447 33.6805 46.0772C31.6558 48.4886 31.3205 49.4546 29.7433 51.59C25.9632 56.708 23.9822 56.4485 22.2939 59.8274C21.495 61.4266 20.7193 63.9253 21.1584 67.6574C24.7771 63.5387 28.3958 59.42 32.0144 55.3014L34.0393 48.4218L37.6138 42.0011Z" fill="#024731"/>
<path d="M68.1635 64.4246C68.9867 60.8925 73.1116 58.8296 77.3771 59.8167C81.6427 60.8038 84.4335 64.4675 83.6102 67.9996C83.228 69.6391 82.1331 70.9604 80.6441 71.8087C83.1477 72.5969 85.6447 73.9064 87.7521 75.4882C88.3662 74.3113 89.3041 73.3256 90.5293 72.6867C94.0081 70.8729 98.4744 72.5362 100.505 76.4022C102.535 80.2683 101.36 84.873 97.8812 86.6869C96.1106 87.61 94.0852 87.6306 92.2545 86.9201C87.8368 93.1888 70.3856 96.9117 55.7858 95.5389C42.7122 94.3096 28.5972 88.6815 28.9492 84.505C29.2315 81.1617 38.5395 82.4334 61.1061 74.784C65.4267 73.3195 68.6375 72.0812 71.5633 71.4431C68.9824 69.8354 67.5415 67.093 68.1635 64.4246Z" fill="black"/>
<path d="M4.19312 62.231C6.23695 61.9434 9.83206 61.7042 14.0571 62.8858C18.4621 64.1177 21.4943 66.3185 23.089 67.6622C23.9262 72.2013 24.7633 76.7403 25.6003 81.2794C22.759 82.0453 19.0441 82.7694 14.6628 82.921C10.5368 83.0638 6.97664 82.659 4.19312 82.1455V62.231Z" fill="#11B67A"/>
<path d="M4.19312 82.1455C7.33729 82.1455 9.88603 77.6874 9.88603 72.1882C9.88603 66.6889 7.33729 62.231 4.19312 62.231C1.04895 62.231 -1.5 66.6889 -1.5 72.1882C-1.5 77.6874 1.04895 82.1455 4.19312 82.1455Z" fill="white"/>
<path d="M69.2811 54.2171L70.3286 51.4667L68.6328 47.0766L39.0776 41.069C36.8714 42.3417 34.0562 44.4806 32.779 47.9486C32.1951 49.5342 32.5307 49.7685 31.893 51.5001C30.6713 54.8171 28.7234 55.9195 25.5473 59.658C25.275 59.9785 22.6666 63.0619 21.7698 64.7645C18.3793 71.201 24.8101 85.6965 36.0719 91.6912C48.0473 98.0658 67.013 95.6412 70.9677 85.1185C72.4665 81.1305 71.4861 76.839 69.9109 73.2731C67.2382 67.2225 66.9271 60.3978 69.2811 54.2171Z" fill="#11B67A"/>
<path d="M60.896 67.064C57.5764 75.2637 59.8004 82.9235 64.339 85.2147C67.0505 86.5835 70.1651 85.8225 71.9672 85.1633L63.0366 78.7666C62.3231 74.8657 61.6095 70.9648 60.896 67.064Z" fill="#024731"/>
<path d="M2.55121 80.5848C4.65512 80.5848 6.36067 77.7963 6.36067 74.3566C6.36067 70.9168 4.65512 68.1284 2.55121 68.1284C0.447304 68.1284 -1.25825 70.9168 -1.25825 74.3566C-1.25825 77.7963 0.447304 80.5848 2.55121 80.5848Z" fill="#024731"/>
<path d="M6.22463 68.6988C6.8894 68.6988 7.42831 67.9146 7.42831 66.9471C7.42831 65.9797 6.8894 65.1954 6.22463 65.1954C5.55985 65.1954 5.02095 65.9797 5.02095 66.9471C5.02095 67.9146 5.55985 68.6988 6.22463 68.6988Z" fill="#024731"/>
<path d="M2.57035 67.5579C3.23513 67.5579 3.77403 66.7736 3.77403 65.8062C3.77403 64.8387 3.23513 64.0545 2.57035 64.0545C1.90558 64.0545 1.36667 64.8387 1.36667 65.8062C1.36667 66.7736 1.90558 67.5579 2.57035 67.5579Z" fill="#024731"/>
<path d="M59.2696 92.2705C46.4807 94.5581 35.4509 85.655 30.2887 81.488C25.921 77.9626 22.8519 74.39 20.8648 71.7763C20.9017 72.0997 20.9407 72.5839 20.9242 73.1704C20.9242 73.1704 20.8664 75.2242 19.9626 77.1904C19.0005 79.2835 13.3269 82.3805 5.18362 82.3352C8.20541 82.8168 12.0527 83.1425 16.4801 82.8199C19.6553 82.5886 22.4533 82.0729 24.7981 81.487C24.797 81.4845 24.7958 81.482 24.7946 81.4795C25.8766 83.202 27.2336 84.9571 28.9433 86.6217C29.6473 87.3073 31.8149 89.3445 35.1955 91.1998C42.0736 94.9746 57.406 98.583 66.7177 90.7857C67.9851 89.7245 68.8786 88.6714 69.4431 87.9343C65.4542 90.7252 61.8393 91.8109 59.2696 92.2705Z" fill="black"/>
<path d="M46.6485 100.088C53.1709 100.088 58.4584 94.8193 58.4584 88.3202C58.4584 81.8212 53.1709 76.5526 46.6485 76.5526C40.126 76.5526 34.8385 81.8212 34.8385 88.3202C34.8385 94.8193 40.126 100.088 46.6485 100.088Z" fill="white"/>
<path d="M46.6482 97.9459C50.5365 97.9459 53.6887 94.805 53.6887 90.9305C53.6887 87.056 50.5365 83.9151 46.6482 83.9151C42.7598 83.9151 39.6076 87.056 39.6076 90.9305C39.6076 94.805 42.7598 97.9459 46.6482 97.9459Z" fill="#024731"/>
<path d="M40.7052 85.1732C41.9595 85.1732 42.9764 84.16 42.9764 82.9102C42.9764 81.6604 41.9595 80.6472 40.7052 80.6472C39.4509 80.6472 38.4341 81.6604 38.4341 82.9102C38.4341 84.16 39.4509 85.1732 40.7052 85.1732Z" fill="#024731"/>
<path d="M52.6703 85.1732C53.9246 85.1732 54.9414 84.16 54.9414 82.9102C54.9414 81.6604 53.9246 80.6472 52.6703 80.6472C51.416 80.6472 50.3992 81.6604 50.3992 82.9102C50.3992 84.16 51.416 85.1732 52.6703 85.1732Z" fill="#024731"/>
<path d="M46.688 82.9103C47.9423 82.9103 48.9591 81.8971 48.9591 80.6472C48.9591 79.3974 47.9423 78.3842 46.688 78.3842C45.4337 78.3842 44.4168 79.3974 44.4168 80.6472C44.4168 81.8971 45.4337 82.9103 46.688 82.9103Z" fill="#024731"/>
<path d="M68.7538 47.3542C66.5933 48.6979 63.1749 50.3867 58.7432 50.8963C47.6672 52.1698 39.5627 45.0078 38.101 43.6697C40.677 47.9752 43.7088 50.1726 45.4595 51.2282C45.4595 51.2282 54.0703 56.4198 66.5569 53.1954C66.6323 53.1759 68.8246 52.6073 68.8246 52.6073C69.3369 52.4284 69.8491 52.2495 70.3614 52.0706C70.2708 51.6089 70.1574 51.1244 70.0159 50.6215C69.6621 49.3637 69.2113 48.2721 68.7538 47.3542Z" fill="#024731"/>
<path d="M70.2721 51.0658C70.6278 51.1099 71.2019 51.2743 72.6251 52.9731C74.9718 55.7743 77.0341 59.6519 78.908 70.8601C79.8203 76.317 79.7171 77.6987 79.1223 79.174C78.9326 79.6443 77.1843 83.79 73.0055 84.8326C72.6274 84.927 71.0209 85.2974 69.2141 84.8537C64.3995 83.6715 61.5038 77.3788 60.6522 72.9743C58.5973 62.3458 66.1123 50.5494 70.2721 51.0658Z" fill="#006A4D"/>
<path d="M89.1334 23.9861C84.8912 27.343 78.0037 25.4837 75.2622 20.8347C73.0175 17.0279 73.4851 11.2366 77.632 8.42651C81.7618 5.62799 87.2944 7.30816 90.0847 10.7878C93.1938 14.6649 93.0115 20.9175 89.1334 23.9861Z" fill="#006A4D"/>
<path d="M86.7455 22.9885C83.7154 25.3861 78.7961 24.0581 76.8379 20.7375C75.2346 18.0185 75.5686 13.8821 78.5305 11.8749C81.4803 9.87605 85.432 11.0761 87.425 13.5615C89.6457 16.3307 89.5154 20.7967 86.7455 22.9885Z" fill="#C7FFC6"/>
<path d="M47.6206 6.93741C48.7973 12.2063 44.1095 17.567 38.7148 17.9928C34.2976 18.3415 29.2739 15.3919 28.5491 10.4473C27.8273 5.5231 31.7614 1.29847 36.1217 0.317985C40.9802 -0.774512 46.5449 2.12073 47.6206 6.93741Z" fill="#006A4D"/>
<path d="M45.6769 8.64167C46.5173 12.405 43.1691 16.2339 39.3159 16.538C36.1608 16.7871 32.5727 14.6803 32.055 11.1486C31.5394 7.63144 34.3494 4.61397 37.4638 3.91369C40.9339 3.13339 44.9086 5.20135 45.6769 8.64167Z" fill="#C7FFC6"/>
<path d="M43.7243 15.7138C46.4808 12.9918 46.6239 8.67024 44.2787 5.98799C42.2289 3.64353 38.6437 2.96957 35.6582 4.48563C38.6482 4.1536 41.5728 5.50229 43.205 7.97026C45.5956 11.5848 43.8253 15.5005 43.7243 15.7138Z" fill="#024731"/>
<path d="M80.2968 26.5665C81.5377 39.4136 70.2249 49.3234 58.9727 50.8359C49.197 52.15 38.3252 47.2794 34.6699 39.2262C33.1221 35.8161 33.2851 32.7534 33.3948 31.0643C33.9374 22.7151 40.0874 8.19805 54.7189 6.79495C67.6705 5.55291 79.1221 14.405 80.2968 26.5665Z" fill="#11B67A"/>
<path d="M46.4597 25.6983C47.7235 25.6983 48.748 24.6774 48.748 23.4182C48.748 22.159 47.7235 21.1381 46.4597 21.1381C45.196 21.1381 44.1715 22.159 44.1715 23.4182C44.1715 24.6774 45.196 25.6983 46.4597 25.6983Z" fill="black"/>
<path d="M47.2182 23.6126C47.5777 23.6126 47.8692 23.3222 47.8692 22.9639C47.8692 22.6056 47.5777 22.3151 47.2182 22.3151C46.8586 22.3151 46.5671 22.6056 46.5671 22.9639C46.5671 23.3222 46.8586 23.6126 47.2182 23.6126Z" fill="white"/>
<path d="M62.4483 28.7762C63.7121 28.7762 64.7365 27.7554 64.7365 26.4961C64.7365 25.2369 63.7121 24.2161 62.4483 24.2161C61.1845 24.2161 60.16 25.2369 60.16 26.4961C60.16 27.7554 61.1845 28.7762 62.4483 28.7762Z" fill="black"/>
<path d="M63.4193 26.75C63.7789 26.75 64.0704 26.4595 64.0704 26.1012C64.0704 25.7429 63.7789 25.4525 63.4193 25.4525C63.0597 25.4525 62.7682 25.7429 62.7682 26.1012C62.7682 26.4595 63.0597 26.75 63.4193 26.75Z" fill="white"/>
<path d="M67.7732 40.5389C69.0898 34.8901 63.37 28.7401 54.9975 26.8026C46.6251 24.8651 38.7705 27.8737 37.4539 33.5226C36.1373 39.1714 41.8571 45.3214 50.2295 47.2589C58.602 49.1964 66.4565 46.1878 67.7732 40.5389Z" fill="white"/>
<path d="M46.3193 29.0567C47.1072 27.1862 53.0176 28.2003 53.6485 28.313C54.681 28.4974 59.5645 29.3692 59.7189 31.1855C59.8627 32.877 55.9076 35.4171 52.2645 34.8369C48.6325 34.2585 45.6552 30.6336 46.3193 29.0567Z" fill="black"/>
<path d="M83.7584 11.148C86.2266 12.6911 87.4781 15.6176 86.8855 18.4595C86.2924 21.3038 83.9711 23.4923 81.0875 23.9256C81.4915 24.0604 83.6024 24.7198 85.7853 23.5971C87.6639 22.6311 88.3835 20.9688 88.5889 20.4736C89.85 17.4325 88.1753 14.6187 87.9757 14.2955C86.5807 12.0382 84.3519 11.3191 83.7584 11.148Z" fill="#024731"/>
<path d="M49.1497 28.6912C49.0818 28.6926 49.0699 28.7873 49.1347 28.8077C49.7161 28.9905 50.5054 29.3288 51.277 29.9714C51.8466 30.4457 52.2375 30.9448 52.4964 31.3392C52.791 31.0899 53.1557 30.8283 53.5973 30.5963C54.7106 30.0115 55.794 29.8876 56.5427 29.8857C56.6111 29.8855 56.6267 29.7908 56.5616 29.7699C55.6137 29.4661 54.5081 29.1804 53.2626 28.9786C51.7164 28.7281 50.3232 28.6666 49.1497 28.6912Z" fill="white"/>
<path d="M51.0474 87.1048C51.2089 87.2646 53.2517 89.3562 52.6706 92.2301C52.226 94.4298 50.4275 96.1809 48.1208 96.6445C48.2553 96.5741 49.2996 96.0052 49.5005 94.8115C49.618 94.1131 49.3874 93.5533 49.2775 93.3257C49.6887 92.9851 50.5749 92.1562 51.0473 90.7707C51.632 89.0559 51.2087 87.5861 51.0474 87.1048Z" fill="white"/>
<path d="M3.97183 70.2392C4.359 70.7583 5.79331 72.8083 5.57139 75.7133C5.37256 78.316 3.96626 80.0091 3.49801 80.5286C3.54971 80.394 4.10408 78.8809 3.21928 77.7167C2.89916 77.2955 2.50091 77.0651 2.22432 76.9416C2.63103 76.6871 3.70584 75.9387 4.26447 74.5091C5.08602 72.4066 4.127 70.5307 3.97183 70.2392Z" fill="white"/>
</g>
<defs>
<clipPath id="clip0_15980_1716">
<rect width="100" height="100" fill="white"/>
</clipPath>
</defs>
</svg>
