<svg width="100" height="100" viewBox="0 0 100 100" fill="none" xmlns="http://www.w3.org/2000/svg">
<g clip-path="url(#clip0_15980_12573)">
<rect width="100" height="100" fill="#6CF479"/>
<path d="M67.0071 74.2353C67.0071 80.0667 71.7518 84.8119 77.5824 84.8119C83.4131 84.8119 88.1578 80.0667 88.1578 74.2353C88.1578 70.0064 85.6386 66.1871 81.7485 64.5133L80.6803 64.0504L81.6239 63.3737C89.9916 57.3821 94.5938 49.2805 94.5938 40.5645C94.5938 23.284 76.1136 9.22642 53.4052 9.22642C30.6967 9.22642 12.2166 23.284 12.2166 40.5645C12.2166 57.845 30.6967 71.9028 53.4052 71.9028C57.9362 71.9028 62.4049 71.3419 66.7045 70.2201L67.8529 69.9262L67.4968 71.0569C67.1763 72.0807 67.0071 73.1581 67.0071 74.2353Z" fill="#11B67A"/>
<path d="M67.7905 99.7949C70.524 99.7949 72.74 97.5788 72.74 94.845C72.74 92.1112 70.524 89.8949 67.7905 89.8949C65.0571 89.8949 62.8412 92.1112 62.8412 94.845C62.8412 97.5788 65.0571 99.7949 67.7905 99.7949Z" fill="#11B67A"/>
<path d="M26.2459 15.464C33.6165 10.7455 43.088 7.90544 53.4052 7.90544C57.8294 7.90544 62.0934 8.43075 66.1081 9.39226C60.4822 7.24666 54.153 6.02694 47.4411 6.02694C36.8924 6.02694 27.2607 9.01832 19.9078 13.9416L26.2459 15.4551V15.464Z" fill="black"/>
<path d="M20.6912 19.7407C21.6615 18.8415 22.7031 17.9869 23.7891 17.1767L17.5222 15.681C16.4807 16.5001 15.4926 17.3548 14.5668 18.254L20.6912 19.7407Z" fill="black"/>
<path d="M65.6898 74.2303C65.6898 73.3934 65.7789 72.5654 65.948 71.7553C64.141 72.1826 62.2893 72.5031 60.4288 72.7435C60.8828 77.6579 64.497 81.6464 69.2149 82.6702C67.034 80.5157 65.6898 77.5244 65.6898 74.2303Z" fill="black"/>
<path d="M10.8992 40.5595C10.8992 34.6213 12.9822 29.0481 16.6142 24.2406L10.641 22.7894C7.4275 27.321 5.59375 32.5114 5.59375 38.0311C5.59375 49.7384 13.819 59.9679 26.0857 65.5411C16.81 59.5494 10.9081 50.5753 10.9081 40.5595H10.8992Z" fill="black"/>
<path d="M61.5238 94.8428C61.5238 91.887 63.5801 89.412 66.3307 88.7531C65.3871 88.0409 64.2211 87.6135 62.957 87.6135C59.8592 87.6135 57.3489 90.1242 57.3489 93.2224C57.3489 96.3206 59.8592 98.8313 62.957 98.8313C62.058 97.7451 61.5238 96.3563 61.5238 94.8428Z" fill="black"/>
<path d="M56.8149 13.8102C56.8149 13.8102 70.9063 13.2227 81.2235 22.7042C91.5407 32.1858 89.2262 46.4838 89.2262 46.4838C89.2262 46.4838 88.0067 23.4431 68.8678 22.7754C68.8678 22.7754 67.684 16.0448 56.806 13.8102H56.8149Z" fill="white"/>
<path d="M22.9433 69.3209C22.9433 69.3209 25.2933 77.1198 34.836 79.2743C34.836 79.2743 27.6078 80.5207 27.4653 89.201C27.4653 89.201 24.9195 81.6781 15.7773 79.2655C15.7773 79.2655 23.4151 78.3573 22.9433 69.3209Z" fill="white"/>
<path d="M82.1135 -0.196167C82.1135 -0.196167 83.7514 5.22571 90.3833 6.72139C90.3833 6.72139 85.3538 7.58497 85.2558 13.6211C85.2558 13.6211 83.4844 8.39513 77.1285 6.71248C77.1285 6.71248 82.4428 6.08036 82.1135 -0.205078V-0.196167Z" fill="white"/>
</g>
<defs>
<clipPath id="clip0_15980_12573">
<rect width="100" height="100" fill="white"/>
</clipPath>
</defs>
</svg>
