<svg width="100" height="100" viewBox="0 0 100 100" fill="none" xmlns="http://www.w3.org/2000/svg">
<rect width="100" height="100" fill="#6CF479"/>
<path d="M17.4502 52.66C28.2102 49 39.7002 46.95 51.6902 46.95C63.6802 46.95 75.1802 49 85.9402 52.66C87.4702 53.18 88.6902 54.26 89.4302 55.62L82.9202 41.42C82.0702 39.96 80.7102 38.82 79.0302 38.27C70.4102 35.48 61.2402 33.92 51.6902 33.92C42.1402 33.92 32.9702 35.48 24.3502 38.27C22.6602 38.82 21.3102 39.96 20.4602 41.42L13.9502 55.62C14.7002 54.26 15.9102 53.18 17.4402 52.66H17.4502Z" fill="#006A4D"/>
<path d="M90.2499 58.73C90.2499 56 88.5202 53.54 85.9402 52.66C75.1802 49 63.6902 46.95 51.6902 46.95C39.6902 46.95 28.2002 49 17.4502 52.66C14.8602 53.54 13.1499 56 13.1499 58.73V94.75C13.1499 97.59 15.4499 99.89 18.2899 99.89H85.1099C87.9499 99.89 90.2499 97.59 90.2499 94.75V58.73Z" fill="#11B67A"/>
<path d="M13.1401 94.7402C13.1401 94.7402 13.6401 97.4302 18.3201 97.4302H86.7301V99.8802H18.0701C18.0701 99.8802 13.3801 99.9402 13.1401 94.7402Z" fill="black"/>
<path d="M20.4602 41.42L13.9502 55.62C14.7002 54.26 15.9102 53.18 17.4402 52.66C21.8502 51.16 26.3902 49.95 31.0302 49.02C42.1102 43.91 36.6302 38.01 44.6502 34.21C37.6202 34.78 30.8302 36.18 24.3502 38.28C22.6602 38.83 21.3102 39.97 20.4602 41.43V41.42Z" fill="black"/>
<path d="M71.1302 41.99C68.6302 42.4 66.4302 42.88 64.7802 43.27C64.3002 43.39 64.3902 44.09 64.8902 44.1C71.2502 44.18 74.0502 44.49 74.0502 44.49V41.76L71.1302 41.99Z" fill="black"/>
<path d="M77.0503 43.65V30.64C77.0503 16.71 65.7102 5.37 51.7802 5.37C37.8502 5.37 26.5103 16.71 26.5103 30.64V43.69C26.5503 44.42 27.8702 44.78 29.5002 44.5C31.1502 44.21 32.5002 43.37 32.5002 42.62V30.64C32.5002 20.01 41.1503 11.37 51.7703 11.37C62.3903 11.37 71.0403 20.02 71.0403 30.64V42.62C71.0403 43.37 72.3903 44.22 74.0403 44.5C75.6702 44.78 77.0003 44.38 77.0503 43.65Z" fill="white"/>
<path d="M27.6099 44.51C27.6099 44.51 28.5699 44.74 29.7399 44.44V31.65C29.7399 31.65 28.5999 15.11 43.0199 8.09C43.0199 8.09 27.6099 12.99 27.6099 31.65V44.51Z" fill="black"/>
<path d="M60.8999 11.85C73.7299 18.1 72.7099 32.81 72.7099 32.81V44.12C73.6799 44.51 74.6099 44.56 74.6099 44.56V32.82C74.6099 16.22 60.8999 11.86 60.8999 11.86V11.85Z" fill="black"/>
<path d="M6.07001 23.7903C6.07001 23.7903 7.74002 29.3103 14.49 30.8303C14.49 30.8303 9.37002 31.7103 9.27002 37.8503C9.27002 37.8503 7.47 32.5303 1 30.8203C1 30.8203 6.41001 30.1803 6.07001 23.7803V23.7903Z" fill="white"/>
<path d="M86.84 1C86.84 1 89.42 9.55 99.88 11.92C99.88 11.92 91.95 13.29 91.8 22.8C91.8 22.8 89.01 14.55 78.98 11.91C78.98 11.91 87.36 10.92 86.84 1Z" fill="white"/>
<path d="M70.2801 61.79C70.6101 62.28 70.9101 62.78 71.2001 63.29H90.2801V61.79H70.2801Z" fill="#00482F"/>
<path d="M73.6901 69.8896H90.2801V68.3896H73.3301C73.4701 68.8796 73.5901 69.3796 73.7001 69.8896H73.6901Z" fill="#00482F"/>
<path d="M90.2701 76.4804V74.9804H74.1401C74.1301 75.4804 74.1001 75.9804 74.0601 76.4804H90.2701Z" fill="#00482F"/>
<path d="M72.4902 83.08H90.2802V81.58H73.0402C72.8702 82.09 72.6902 82.59 72.4902 83.08Z" fill="#00482F"/>
<path d="M68.3701 89.6797H90.2801V88.1797H69.6101C69.2201 88.6997 68.8101 89.1997 68.3801 89.6797H68.3701Z" fill="#00482F"/>
<path d="M32.5399 61.79H13.1099V63.29H31.6198C31.9098 62.78 32.2199 62.28 32.5399 61.79Z" fill="#00482F"/>
<path d="M29.4901 68.3896H13.1001V69.8896H29.1201C29.2201 69.3796 29.3501 68.8796 29.4901 68.3896Z" fill="#00482F"/>
<path d="M28.6601 74.9804H13.1001V76.4804H28.7401C28.7001 75.9804 28.6701 75.4804 28.6601 74.9804Z" fill="#00482F"/>
<path d="M29.7701 81.58H13.1001V83.08H30.3201C30.1201 82.59 29.9401 82.09 29.7701 81.58Z" fill="#00482F"/>
<path d="M13.1001 88.1797V89.6797H34.4401C34.0101 89.1997 33.6001 88.6997 33.2101 88.1797H13.1001Z" fill="#00482F"/>
<path d="M51.7259 61.7178C47.9412 61.7178 44.5752 63.6258 42.2919 66.5901C41.9906 66.9813 42.0525 67.5515 42.4302 67.8637C42.808 68.1758 43.3586 68.1117 43.6599 67.7204C45.6508 65.1359 48.5341 63.5303 51.7259 63.5303C54.9178 63.5303 57.8011 65.1359 59.7919 67.7204C60.0933 68.1117 60.6439 68.1758 61.0216 67.8637C61.3994 67.5515 61.4613 66.9813 61.1599 66.5901C58.8766 63.6258 55.5107 61.7178 51.7259 61.7178Z" fill="black"/>
<path d="M41.2259 76.051C41.2259 70.1221 45.9413 65.3428 51.7259 65.3428C57.5105 65.3428 62.2259 70.1221 62.2259 76.051C62.2259 78.3707 60.3831 80.2246 58.1422 80.2246C55.9014 80.2246 54.0586 78.3707 54.0586 76.051C54.0586 74.7614 53.0276 73.6899 51.7249 73.6899C50.4222 73.6899 49.3912 74.7614 49.3912 76.051C49.3912 79.23 51.0334 82.0258 53.5152 83.6013C53.9272 83.8629 54.0565 84.4209 53.804 84.8476C53.5515 85.2743 53.0127 85.4082 52.6007 85.1467C49.6303 83.261 47.6412 79.8967 47.6412 76.051C47.6412 73.7313 49.484 71.8774 51.7249 71.8774C53.9658 71.8774 55.8086 73.7313 55.8086 76.051C55.8086 77.3406 56.8396 78.4121 58.1422 78.4121C59.4449 78.4121 60.4759 77.3406 60.4759 76.051C60.4759 71.1519 56.5721 67.1553 51.7259 67.1553C46.8798 67.1553 42.9759 71.1519 42.9759 76.051C42.9759 77.1887 43.101 78.2976 43.3316 79.3683C43.4368 79.8568 43.1397 80.3411 42.668 80.4501C42.1964 80.5591 41.7287 80.2514 41.6235 79.7629C41.3662 78.5681 41.2259 77.3268 41.2259 76.051Z" fill="black"/>
<path d="M51.7259 75.3115C52.2092 75.3115 52.6009 75.7172 52.6009 76.2178C52.6009 79.1533 55.1149 81.6553 58.3682 81.6553C58.4268 81.6553 58.4729 81.6523 58.5409 81.6479C58.5789 81.6455 58.6236 81.6426 58.6812 81.6395C59.1638 81.6139 59.5751 81.9984 59.5998 82.4982C59.6245 82.9981 59.2533 83.424 58.7707 83.4496C58.7527 83.4506 58.7297 83.4521 58.7032 83.4538C58.6138 83.4595 58.4838 83.4678 58.3682 83.4678C54.2848 83.4678 50.8509 80.2899 50.8509 76.2178C50.8509 75.7172 51.2427 75.3115 51.7259 75.3115Z" fill="black"/>
<path d="M51.7259 69.874C48.8776 69.874 46.4759 72.4382 46.4759 75.724C46.4759 78.4258 47.2446 80.9217 48.5461 82.9695C48.8118 83.3875 48.7 83.9495 48.2963 84.2247C47.8927 84.4999 47.35 84.3841 47.0843 83.966C45.5976 81.6267 44.7259 78.7852 44.7259 75.724C44.7259 71.5464 47.8089 68.0615 51.7259 68.0615C55.643 68.0615 58.7259 71.5464 58.7259 75.724C58.7259 76.2245 58.3342 76.6302 57.8509 76.6302C57.3677 76.6302 56.9759 76.2245 56.9759 75.724C56.9759 72.4382 54.5743 69.874 51.7259 69.874Z" fill="black"/>
</svg>
