<svg width="100" height="100" viewBox="0 0 100 100" fill="none" xmlns="http://www.w3.org/2000/svg">
<g clip-path="url(#clip0_15980_12613)">
<rect width="100" height="100" fill="#6CF479"/>
<path d="M31.9548 95.0858C31.9548 95.0858 36.1501 91.7729 39.1286 91.0679L41.9284 91.2463L46.8216 89.3265L49.2725 87.4067C49.2725 87.4067 50.4979 86.3619 51.5447 86.1835C52.5914 86.0051 58.1908 87.0584 58.1908 87.0584C58.1908 87.0584 61.3396 88.1033 62.9139 90.898C62.9139 90.898 65.186 90.898 65.8838 93.8626C65.8838 93.8626 67.9857 93.5143 70.0792 95.7824C70.0792 95.7824 70.6068 97.1755 67.1092 97.5322C63.6116 97.8805 62.9138 99.1038 60.1141 99.2822C57.3143 99.4605 52.4211 97.7107 52.4211 97.7107L45.077 97.184C45.077 97.184 40.8816 97.8805 38.2521 97.184C35.631 96.4874 31.9548 95.0858 31.9548 95.0858Z" fill="black"/>
<path d="M43.2559 50.8509C41.4348 50.8509 40.8391 51.2332 40.6349 51.488C40.5668 51.5815 40.5413 51.7004 40.5328 51.8193L39.9881 93.3663C40.754 93.3918 42.039 93.5362 43.0602 94.1393C43.0602 94.1393 44.2856 92.6867 45.6132 91.9732L45.9706 51.7174C45.9706 51.7174 46.0301 50.8509 43.2559 50.8509Z" fill="#C7FFC6"/>
<path d="M72.1387 64.6645C72.4706 64.3841 72.7684 64.0698 73.0748 63.764C73.7981 63.008 75.849 61.2411 78.853 61.5809C80.104 61.7253 81.0741 62.2944 81.7464 62.8721C83.4399 59.933 86.6226 57.9452 90.2649 57.9452C95.6942 57.9452 100.094 62.3369 100.094 67.7565V68.6994H59.2717C66.4796 68.6994 69.9346 66.5587 72.1302 64.6645H72.1387Z" fill="white"/>
<path d="M29.0447 53.2646C29.0447 53.2646 24.3387 43.0371 8.84217 53.2476L29.0447 53.2646Z" fill="white"/>
<path d="M0.09375 10.7401C0.09375 10.7401 1.79572 8.36161 4.76568 7.45269C7.19952 6.70517 9.85469 7.46968 11.6503 9.27053L11.6928 9.32149C11.6928 9.32149 12.2374 6.04258 15.0797 3.68959C16.4158 2.58529 18.1262 1.96519 19.8537 2.08411C20.6281 2.13508 21.4622 2.33895 22.1685 2.81464C22.1685 2.81464 19.9474 -0.430278 16.0159 0.444663C14.6117 0.758962 13.3607 1.57443 12.4161 2.65325C11.7608 3.39227 11.0801 4.39464 10.7737 5.54141C10.7737 5.54141 4.28064 1.52347 0.102268 10.7401H0.09375Z" fill="white"/>
<path d="M52.0725 55.9625C50.7364 62.1975 49.5961 72.6289 49.9365 89.9324C49.9535 90.6289 50.5151 91.1811 51.213 91.1811H51.2384C51.9447 91.1641 52.5065 90.5864 52.4894 89.8814C52.1916 74.6421 53.0851 64.8819 54.1744 58.7403C53.5957 58.0522 52.7872 57.0413 52.0809 55.9625H52.0725ZM80.5551 29.5784C80.5551 29.5784 77.1852 26.6732 73.5344 27.8625C73.5344 27.8625 66.2414 29.9097 69.5688 37.2235C72.8962 44.5288 86.5376 49.5151 86.5376 49.5151C86.5376 49.5151 91.8647 41.8785 92.1966 32.577C92.5285 23.2754 81.8827 24.6006 80.5466 29.5869L80.5551 29.5784ZM85.8483 45.6416C85.8483 45.6416 84.725 38.4467 81.5423 31.4387C81.5423 31.4387 81.9167 28.2617 85.0994 27.5142C85.0994 27.5142 83.8825 29.383 84.3505 31.6256C84.8186 33.8681 87.6268 38.3533 85.8483 45.6416ZM88.3162 16.2164L86.9631 14.4156C84.4697 11.1027 81.4911 8.17204 78.0446 5.87001C70.4878 0.824234 66.5563 2.35326 64.8628 3.77185C63.6969 4.74023 63.3906 6.49011 64.3437 7.67935C65.6372 9.30181 68.3604 9.91343 68.3604 9.91343C68.3604 9.91343 58.0464 7.9172 62.3694 14.56C66.6925 21.2027 88.3247 16.2249 88.3247 16.2249L88.3162 16.2164ZM72.5558 5.50474C72.5558 5.50474 73.56 7.69634 73.3473 9.45471C73.3473 9.45471 75.713 7.46699 79.9254 8.45236C79.9254 8.45236 77.5341 8.59677 77.1171 9.78601C77.1171 9.78601 80.3509 9.43773 84.3505 13.1499C84.3505 13.1499 77.8234 11.0432 70.5219 10.2022L69.2369 10.0154C69.2369 10.0154 72.3516 8.09559 72.5643 5.50474H72.5558ZM28.3808 21.585V18.2381C28.3808 18.2381 15.8116 16.2844 13.582 33.5708C13.582 33.5708 30.8998 31.6171 38.7204 23.2584C46.541 14.8997 31.1806 18.2381 28.3893 21.585H28.3808ZM24.3471 29.1027C18.5433 30.1305 18.1689 30.1305 16.3904 31.1584C16.3904 31.1584 18.637 28.3552 21.7261 26.8601C24.8152 25.3651 27.1554 23.87 27.9979 22.4684C27.9979 22.4684 28.4659 23.7766 27.3426 24.8979C26.2193 26.0191 27.4363 27.888 32.3976 25.3651C32.3976 25.3651 30.1509 28.0748 24.3471 29.1027ZM58.6677 42.5836C59.2293 40.341 59.6633 37.8436 59.8165 35.1253C59.9186 33.316 59.7909 31.9484 59.4931 30.9375C60.7781 26.8091 62.48 22.5024 63.8076 19.3679C63.28 18.6204 62.6757 17.669 62.1992 16.6326C60.9567 19.4698 59.0931 23.955 57.5869 28.5081C56.4636 28.0494 55.102 28.3467 53.9531 28.8139C52.8809 20.2258 50.9491 13.3452 50.1151 10.61C51.281 8.57977 53.3999 3.12626 42.5072 3.33013C29.1382 3.58497 23.411 10.5845 23.411 10.5845C23.411 10.5845 36.8993 8.12107 47.4771 10.7374C48.1409 12.8441 50.4215 20.5741 51.5278 30.139C51.5278 30.139 48.0472 29.9012 45.8176 31.9144C44.0901 29.3065 42.5924 27.3868 41.333 25.9682C41.333 26.8941 41.2223 28.0918 40.8904 29.417C41.8861 30.6912 43.0349 32.2881 44.3198 34.2844C44.1241 34.9215 44.005 35.652 44.005 36.493C44.005 43.3821 53.5617 54.408 53.5617 54.408C53.5617 54.408 53.6638 54.2636 53.8425 54.0003L57.4337 48.6997C60.4291 43.8238 64.148 40.1032 67.3903 37.4529C67.3478 36.5524 67.3903 35.3292 67.6626 33.9786C64.9394 36.0003 61.6972 38.846 58.6677 42.5751V42.5836ZM53.5532 49.9144C53.5532 49.9144 54.0467 47.8927 53.2043 42.8469C52.3618 37.8011 51.264 36.8582 51.4938 31.9738C51.4938 31.9738 52.5235 36.6459 54.5829 36.459C54.5829 36.459 55.6296 36.4505 56.7359 35.5246C56.7359 35.5246 57.8592 40.0097 53.5532 49.9144Z" fill="#11B67A"/>
<path d="M54.3957 67.2264V65.3745C54.3957 64.7714 53.9531 64.2787 53.3914 64.1768C53.2638 65.2641 53.1531 66.4279 53.051 67.6681C53.034 67.9059 52.8894 68.1268 52.6852 68.2372C48.1579 70.6921 43.7327 71.4991 41.2989 71.7625C40.2096 71.8219 40.2862 71.2188 40.2862 71.2188L40.3117 69.3585C40.2351 69.4095 40.167 69.4604 40.099 69.5029C39.6394 69.8172 39.3756 70.3439 39.3756 70.896V75.4066C39.3756 76.0522 39.9288 76.4939 40.5756 76.4854C46.1155 76.3835 52.1235 73.4869 53.7319 72.2382C54.1574 71.9069 54.4042 71.4227 54.4042 70.8196V67.2178L54.3957 67.2264ZM50.7619 64.559C49.0174 64.9668 47.3494 65.5869 45.8432 66.258L45.8007 70.5732C47.5027 69.8682 49.0514 69.3925 50.3449 69.0867C50.4641 67.3793 50.6087 66.0116 50.7619 64.5506V64.559Z" fill="black"/>
</g>
<defs>
<clipPath id="clip0_15980_12613">
<rect width="100" height="100" fill="white"/>
</clipPath>
</defs>
</svg>
