<svg width="100" height="100" viewBox="0 0 100 100" fill="none" xmlns="http://www.w3.org/2000/svg">
<g clip-path="url(#clip0_15980_12642)">
<rect width="100" height="100" fill="#6CF479"/>
<path d="M97.2919 32.387C97.1755 31.5817 96.6516 30.8735 95.8172 30.3884L62.7045 11.0621C61.9963 10.6547 61.1619 10.4606 60.3276 10.4606C59.0081 10.4606 57.6789 10.9457 56.7961 11.8674L44.9791 24.2179C31.183 38.8484 17.1928 53.2849 3.29967 67.8184C2.65935 68.4878 2.36829 69.2834 2.48471 70.0595C2.60113 70.8648 3.12504 71.573 3.96911 72.0581L37.0721 91.3844C38.896 92.4419 41.5447 92.0829 42.9805 90.5791L96.4672 34.6281C97.1076 33.9684 97.3986 33.1631 97.2822 32.387H97.2919Z" fill="#11B67A"/>
<path d="M98.7176 39.8367L98.1355 34.5297C97.9415 34.879 97.7086 35.2186 97.4079 35.529L43.9211 91.48C42.8054 92.6442 41.1076 93.2749 39.4292 93.2749C38.3716 93.2749 37.3141 93.0226 36.4216 92.5084L3.31859 73.1822C2.24168 72.5613 1.53344 71.6493 1.27148 70.5918L1.97972 77.1406C2.08645 78.1399 2.70737 79.0907 3.79398 79.7116L37.5179 99.3968C39.5941 100.6 42.592 100.192 44.2219 98.4848L97.7086 42.5338C98.4848 41.7188 98.8146 40.7584 98.7079 39.8464L98.7176 39.8367Z" fill="black"/>
<path d="M29.6691 72.5238C31.8424 73.7754 32.2207 76.2493 30.5132 78.0345C28.8057 79.8196 25.6622 80.2465 23.489 78.995C21.3158 77.7434 20.9277 75.2694 22.6352 73.4843C24.3428 71.6991 27.4862 71.2723 29.6691 72.5238Z" fill="#C7FFC6"/>
<path d="M79.8186 61.6193C79.8186 61.6193 82.5449 70.6518 93.576 73.1452C93.576 73.1452 85.2129 74.5908 85.048 84.6323C85.048 84.6323 82.1083 75.9296 71.5138 73.1355C71.5138 73.1355 80.3619 72.078 79.8186 61.6193Z" fill="#006A4D"/>
<path d="M70.5436 21.2364C71.2906 21.673 71.4264 22.5268 70.8346 23.1477C70.2428 23.7686 69.1465 23.9142 68.3994 23.4776C67.6524 23.041 67.5166 22.1872 68.1084 21.5663C68.7002 20.9454 69.7868 20.7999 70.5436 21.2364Z" fill="#C7FFC6"/>
<path d="M81.0987 27.3327C81.8554 27.7693 81.9816 28.6231 81.3995 29.244C80.8076 29.8649 79.7113 30.0105 78.9643 29.5739L72.9103 26.0812C72.1632 25.6446 72.0274 24.7908 72.6192 24.1699C73.211 23.549 74.2976 23.4035 75.0544 23.84L81.1084 27.3327H81.0987Z" fill="#C7FFC6"/>
<path d="M84.0684 53.1867C84.3206 53.6524 84.8154 53.73 85.1744 53.3516L90.4426 47.8603C90.8015 47.4916 90.8888 46.8028 90.6463 46.3274C90.394 45.8617 89.8992 45.7841 89.5403 46.1625L84.2721 51.6538C83.9132 52.0224 83.8161 52.7113 84.0684 53.1867Z" fill="#C7FFC6"/>
<path d="M76.2671 61.3158C76.5193 61.7815 77.0141 61.8591 77.3731 61.4807L82.6412 55.9895C83.0002 55.6111 83.0972 54.9319 82.845 54.4566C82.5927 53.9909 82.0979 53.9132 81.7389 54.2916L76.4708 59.7829C76.1118 60.1516 76.0148 60.8404 76.2671 61.3158Z" fill="#C7FFC6"/>
<path d="M39.0701 0.0878906C39.0701 0.0878906 40.8359 5.92845 47.9765 7.54867C47.9765 7.54867 42.5628 8.48005 42.4561 14.99C42.4561 14.99 40.5448 9.36293 33.6952 7.54867C33.6952 7.54867 39.4194 6.86953 39.0604 0.0975925L39.0701 0.0878906Z" fill="#006A4D"/>
<path d="M18.531 62.7412C15.0577 62.5181 9.77014 60.9658 9.77014 60.9755C9.77014 60.9852 17.5899 52.9714 17.5899 52.9714C18.0556 52.0691 42.7179 25.7866 42.7179 25.7866C48.2092 37.361 58.1051 37.7782 58.1051 37.7782L57.882 43.3471C57.882 43.3471 42.5918 64.2839 18.531 62.7412Z" fill="#024731"/>
<path d="M58.1057 37.789C56.243 37.0807 54.3996 36.2464 52.7212 35.0724C47.094 31.1431 44.0768 25.3802 43.6887 19.3844C37.1205 20.5195 30.2321 19.6367 24.5759 15.591C22.8877 14.3782 21.4907 12.8259 20.2585 11.3512C19.8996 11.749 19.4533 12.108 19.1331 12.5349C9.06251 25.9235 0.612131 40.2921 10.6536 57.4451C28.8932 62.6841 45.6388 51.8762 57.1258 39.0502C57.4848 38.6524 57.7565 38.1964 58.096 37.7793C58.096 37.7793 58.096 37.7793 58.1057 37.7793V37.789ZM12.3029 55.5532C3.85257 39.7196 11.5462 28.2714 20.4235 15.0477C21.3354 16.0178 22.2474 16.8328 23.1885 17.5119C28.4178 21.2763 34.8793 22.3823 41.5348 21.8584C42.6021 27.7669 46.0947 33.0932 51.2562 36.7314C52.1876 37.3912 53.2063 37.983 54.3608 38.5457C41.6804 49.9552 30.4552 59.0168 12.3127 55.5532H12.3029Z" fill="#C7FFC6"/>
<path d="M40.6712 22.8594C34.0351 23.1795 27.7676 22.1317 22.5868 18.3868C21.898 17.892 21.2382 17.3293 20.5882 16.6986C12.4386 28.8163 4.9293 40.1676 13.0692 54.6817C30.1737 57.7087 40.613 49.4232 52.7307 38.8093C51.9642 38.3921 51.256 37.9556 50.5866 37.4802C45.5027 33.8807 41.9518 28.7096 40.6809 22.8594H40.6712Z" fill="#C7FFC6"/>
<path d="M20.743 19.0445C20.743 19.0445 27.253 23.75 35.5482 24.0119C35.5482 24.0119 30.0375 24.7105 27.3888 26.3792C27.3888 26.3792 20.1997 21.0722 13.8935 29.2898C13.8935 29.2898 17.5608 23.2358 20.743 19.0445Z" fill="white"/>
<path d="M13.3117 39.2835C14.4468 44.4255 26.0406 50.819 29.805 49.9944C29.805 49.9944 31.4155 47.501 30.8431 46.036C30.2707 44.571 27.331 41.1365 27.331 41.1365C25.0802 42.097 22.48 40.9813 22.2084 37.9543C20.1031 37.246 17.8231 36.4796 16.4454 36.761C15.0387 36.8677 14.1461 38.0222 13.3117 39.2738V39.2835Z" fill="black"/>
<path d="M30.5526 30.553C30.5526 30.553 29.0779 29.5343 27.186 30.0388C25.2941 30.5433 24.1396 32.7069 24.1396 32.7069C23.6254 33.4927 22.1313 38.2467 24.4016 39.6825C26.6718 41.1184 29.6988 38.5571 29.6988 38.5571C29.6988 38.5571 31.5519 37.2765 32.1825 34.589C32.8131 31.9016 30.5429 30.553 30.5429 30.553H30.5526Z" fill="black"/>
</g>
<defs>
<clipPath id="clip0_15980_12642">
<rect width="100" height="100" fill="white"/>
</clipPath>
</defs>
</svg>
