<svg width="100" height="100" viewBox="0 0 100 100" fill="none" xmlns="http://www.w3.org/2000/svg">
<rect width="100" height="100" fill="#6CF479"/>
<path d="M49.5219 11.1792C65.274 11.1792 78.0437 8.67667 78.0437 5.58961C78.0437 2.50255 65.274 0 49.5219 0C33.7697 0 21 2.50255 21 5.58961C21 8.67667 33.7697 11.1792 49.5219 11.1792Z" fill="#024731"/>
<path d="M49.5219 13.1683C41.7755 13.1683 34.4843 12.5648 28.9739 11.4865C26.273 10.9622 23.038 10.1509 21 8.74609V11.8031C21 14.8897 33.772 17.3927 49.5219 17.3927C65.2717 17.3927 78.0437 14.8897 78.0437 11.8031V8.76588C76.6191 9.72551 74.1953 10.6851 70.0698 11.4964C64.5594 12.5747 57.2583 13.1683 49.5219 13.1683Z" fill="#024731"/>
<path d="M70.0698 94.1055C64.5594 95.1839 57.2583 95.7774 49.5219 95.7774C41.7854 95.7774 34.4843 95.1839 28.9739 94.1055C26.2829 93.5812 23.038 92.7798 21 91.375V94.4122C21 97.4988 33.772 100.002 49.5219 100.002C65.2717 100.002 78.0437 97.4988 78.0437 94.4122V91.375C76.6092 92.3346 74.1854 93.2943 70.0698 94.1055Z" fill="#024731"/>
<path d="M40.1331 44.6295C42.1216 47.2709 42.1216 50.9017 40.1331 53.5333C39.4307 54.4632 38.5502 55.4328 37.4916 56.4814C23.4533 70.3714 21.5637 81.3626 21.3362 84.8351C22.8004 83.9447 25.1648 83.0741 28.9638 82.3321C34.4742 81.2538 41.7753 80.6602 49.5118 80.6602C57.2482 80.6602 64.5493 81.2538 70.0598 82.3321C72.6023 82.8268 75.6494 83.5787 77.6874 84.845C77.4598 81.3923 75.5702 70.3911 61.5319 56.4913C60.4733 55.4426 59.5929 54.4731 58.8905 53.5432C56.9019 50.9017 56.9019 47.2511 58.8905 44.6196C59.5929 43.6896 60.4733 42.7201 61.5319 41.6714C73.5026 29.8294 76.6387 20.0945 77.4401 15.3359C75.9561 16.1769 73.6609 16.998 70.0598 17.7004C64.5493 18.7787 57.2482 19.3723 49.5118 19.3723C41.7753 19.3723 34.4742 18.7787 28.9638 17.7004C26.5202 17.2255 23.6215 16.5132 21.5835 15.3458C22.3947 20.1143 25.5309 29.8491 37.4916 41.6813C38.5502 42.73 39.4307 43.6995 40.1331 44.6295Z" fill="#C7FFC6"/>
<path d="M72.88 86.5828C66.9936 78.6386 60.5235 72.0498 56.5266 68.2509C55.013 66.8164 52.4309 64.5508 50.4028 63.146C50.1456 62.9679 49.8389 62.8789 49.5223 62.8789C49.1958 62.8789 48.8793 62.9778 48.6121 63.1658C46.6038 64.63 44.0118 66.8164 42.4982 68.2509C38.5014 72.0597 32.0313 78.6485 26.135 86.6026C25.5513 87.3941 25.9569 88.5318 26.9165 88.7692C30.1813 89.5903 37.5615 91.0248 49.3343 91.0248C49.3937 91.0248 49.4531 91.0248 49.5124 91.0248C49.5718 91.0248 49.6312 91.0248 49.6905 91.0248C61.2853 91.0248 68.7842 89.5804 72.1083 88.7593C73.0679 88.5219 73.4637 87.3842 72.88 86.5828Z" fill="#11B67A"/>
<path d="M48.4638 58.5066C48.533 59.0013 49.0079 59.3575 49.5125 59.3575C50.017 59.3575 50.482 59.0013 50.5413 58.5066C51.1151 54.1537 52.5299 48.1485 56.7542 43.479C63.5706 35.9503 66.865 31.4688 66.865 31.4688C63.2144 33.6749 56.2893 34.6741 49.5026 34.5752C42.7159 34.6642 35.7907 33.665 32.1401 31.4688C32.1401 31.4688 35.4345 35.9503 42.2509 43.479C46.4852 48.1485 47.89 54.1438 48.4638 58.5066Z" fill="#11B67A"/>
<path d="M58.703 38.8095C66.3899 30.2519 72.6226 20.1016 72.6226 20.1016C65.371 22.7133 54.9337 22.2781 54.9337 22.2781C67.8442 25.6021 58.703 38.8095 58.703 38.8095Z" fill="white"/>
<path d="M59.1478 58.9708C68.8134 72.3067 63.016 76.5608 63.016 76.5608C66.7853 87.1069 53.8352 88.1753 53.8352 88.1753C65.6278 87.9775 74.4822 85.5833 74.4822 85.5833C72.1672 70.3083 59.1478 58.9609 59.1478 58.9609V58.9708Z" fill="white"/>
<path d="M27.7769 74.624C36.0079 70.36 37.9866 60.457 37.9866 60.457C30.3689 67.1646 27.7769 74.624 27.7769 74.624Z" fill="white"/>
<path d="M70.07 11.486C67.5374 11.9807 64.609 12.3665 61.4531 12.6534V16.8679C65.9248 16.4623 69.7634 15.839 72.6225 15.0673V10.9023C71.8508 11.1002 71.0099 11.2981 70.07 11.4761V11.486Z" fill="#11B67A"/>
<path d="M70.07 94.1032C67.5374 94.5979 64.609 94.9837 61.4531 95.2706V99.4851C65.9248 99.0795 69.7634 98.4562 72.6225 97.6845V93.5195C71.8508 93.7174 71.0099 93.9153 70.07 94.0933V94.1032Z" fill="#11B67A"/>
</svg>
