<svg width="100" height="100" viewBox="0 0 100 100" fill="none" xmlns="http://www.w3.org/2000/svg">
<g clip-path="url(#clip0_15980_12723)">
<rect width="100" height="100" fill="#6CF479"/>
<path d="M50.0124 59.6789C43.6435 59.6789 37.8762 62.2497 33.7099 66.4052L33.5152 70.6664H37.9912L50.0124 82.6312L62.0335 70.6664H66.5095L66.3149 66.4052C62.1398 62.2497 56.3724 59.6789 50.0035 59.6789H50.0124Z" fill="black"/>
<path d="M50.0122 44.1996C39.3444 44.1996 29.6938 48.5048 22.7057 55.4601L22.3873 59.598C22.3873 59.598 23.4222 58.9377 25.2533 57.9957L27.9247 60.6545C33.0905 55.5129 40.0431 52.1674 47.7654 51.6215C48.5084 51.5775 49.2603 51.5423 50.0211 51.5335C58.6367 51.5335 66.4562 55.0199 72.1174 60.6545L74.8331 57.9516C76.6376 58.9201 77.6459 59.6068 77.6459 59.6068L77.3275 55.4689C70.3395 48.5136 60.6889 44.2084 50.0211 44.2084L50.0122 44.1996Z" fill="black"/>
<path d="M42.3431 20.8864C42.5642 20.86 42.7765 20.8247 42.9977 20.8071C43.3427 20.7631 43.6876 20.7279 44.0237 20.7015C45.9874 20.5166 47.9865 20.411 50.0033 20.411C59.9104 20.411 69.278 22.7264 77.6106 26.8203L79.1674 19.4337C78.1678 18.9759 77.1595 18.5445 76.1422 18.1307L75.1868 23.7125L73.0108 23.3427L74.0458 17.3119C66.5536 14.5826 58.4598 13.0859 50.0122 13.0859C30.7199 13.0859 13.2498 20.8688 0.60052 33.4586L0.016732 37.3412L4.06799 36.9186L5.81946 38.6619C12.6483 31.8651 21.0604 26.6443 30.4368 23.554C34.55 22.251 38.5305 21.3882 42.3519 20.8952L42.3431 20.8864Z" fill="black"/>
<path d="M50.0124 28.6444C35.0279 28.6444 21.4675 34.6841 11.6489 44.4566L11.1977 48.4625C11.1977 48.4625 12.2504 47.8374 14.0991 46.8953L16.8678 49.651C20.5564 45.9797 24.8643 42.9159 29.6055 40.618C36.0805 38.6459 43.6701 37.1404 51.3569 37.3957C58.3273 37.6246 64.8908 38.9893 70.5254 40.6796C75.2225 42.9687 79.486 46.0061 83.1481 49.651L85.9344 46.8777C87.7832 47.8374 88.8181 48.4625 88.8181 48.4625L88.367 44.4566C78.5483 34.6841 64.988 28.6444 50.0035 28.6444H50.0124Z" fill="black"/>
<path d="M99.424 33.4494C94.8862 28.9329 89.7204 25.0503 84.0769 21.9072L82.4935 29.4347L82.4051 29.4171C86.704 32.0232 90.6668 35.1222 94.2051 38.6438L95.0985 37.7546L99.999 37.332L99.4152 33.4494H99.424Z" fill="black"/>
<path d="M0.016732 37.3315L5.29755 42.5875C16.7526 31.1862 32.5686 24.1253 50.0033 24.1253C67.4381 24.1253 83.2541 31.1862 94.7092 42.5875L99.99 37.3315C87.1992 24.6007 69.5168 16.7211 49.9945 16.7211C30.4722 16.7211 12.7987 24.6007 -0.000976562 37.3315H0.016732Z" fill="#11B67A"/>
<path d="M22.3784 59.5907L27.6504 64.838C33.3735 59.1417 41.2815 55.6113 50.0033 55.6113C58.7251 55.6113 66.6331 59.1417 72.3562 64.838L77.6282 59.5907C70.5605 52.5562 60.7861 48.1982 50.0033 48.1982C39.2205 48.1982 29.4461 52.5474 22.3784 59.5907ZM33.5062 70.6663L50.0033 87.0859L66.5004 70.6663C62.281 66.4667 56.4429 63.8607 50.0033 63.8607C43.5637 63.8607 37.7255 66.4579 33.5062 70.6663ZM50.0121 32.4653C34.8596 32.4653 21.1312 38.5753 11.2064 48.4623L16.4872 53.7184C25.0763 45.1696 36.9383 39.8695 50.021 39.8695C63.1037 39.8695 74.9657 45.1696 83.5548 53.7184L88.8356 48.4623C78.902 38.5753 65.1824 32.4653 50.0299 32.4653H50.0121Z" fill="#C7FFC6"/>
<path d="M8.92434 63.7783C8.92434 63.7783 11.2596 71.4907 20.7421 73.6213C20.7421 73.6213 13.5594 74.8539 13.4179 83.4379C13.4179 83.4379 10.888 75.9984 1.80357 73.6125C1.80357 73.6125 9.39316 72.7145 8.92434 63.7783Z" fill="white"/>
</g>
<defs>
<clipPath id="clip0_15980_12723">
<rect width="100" height="100" fill="white"/>
</clipPath>
</defs>
</svg>
