<svg width="100" height="100" viewBox="0 0 100 100" fill="none" xmlns="http://www.w3.org/2000/svg">
<rect width="100" height="100" fill="#6CF479"/>
<path d="M50.0133 59.593C43.6445 59.593 37.8772 62.1638 33.7109 66.3193L33.5162 70.5805H37.9922L50.0133 82.5453L62.0345 70.5805H66.5105L66.3159 66.3193C62.1407 62.1638 56.3733 59.593 50.0045 59.593H50.0133Z" fill="black"/>
<path d="M50.0132 44.1137C39.3453 44.1137 29.6948 48.4189 22.7067 55.3741L22.3883 59.5121C22.3883 59.5121 23.4232 58.8518 25.2543 57.9097L27.9257 60.5686C33.0915 55.427 40.0441 52.0814 47.7663 51.5356C48.5094 51.4915 49.2613 51.4563 50.022 51.4475C58.6377 51.4475 66.4572 54.9339 72.1184 60.5686L74.8341 57.8657C76.6386 58.8342 77.6469 59.5209 77.6469 59.5209L77.3285 55.383C70.3404 48.4277 60.6899 44.1225 50.022 44.1225L50.0132 44.1137Z" fill="black"/>
<path d="M42.3441 20.8004C42.5652 20.774 42.7775 20.7388 42.9986 20.7212C43.3436 20.6772 43.6885 20.642 44.0247 20.6155C45.9884 20.4307 47.9875 20.325 50.0043 20.325C59.9114 20.325 69.279 22.6405 77.6116 26.7344L79.1683 19.3478C78.1688 18.8899 77.1604 18.4585 76.1432 18.0448L75.1878 23.6266L73.0118 23.2568L74.0468 17.226C66.5545 14.4967 58.4608 13 50.0132 13C30.7209 13 13.2507 20.7828 0.601496 33.3727L0.0177085 37.2553L4.06897 36.8327L5.82044 38.5759C12.6493 31.7792 21.0614 26.5583 30.4378 23.4681C34.551 22.1651 38.5315 21.3023 42.3528 20.8092L42.3441 20.8004Z" fill="black"/>
<path d="M50.0133 28.5585C35.0288 28.5585 21.4685 34.5981 11.6498 44.3707L11.1987 48.3765C11.1987 48.3765 12.2514 47.7514 14.1001 46.8094L16.8688 49.5651C20.5574 45.8938 24.8653 42.83 29.6065 40.5321C36.0815 38.56 43.671 37.0545 51.3579 37.3098C58.3282 37.5387 64.8917 38.9033 70.5264 40.5937C75.2234 42.8828 79.4869 45.9202 83.149 49.5651L85.9354 46.7918C87.7842 47.7514 88.8191 48.3765 88.8191 48.3765L88.368 44.3707C78.5493 34.5981 64.989 28.5585 50.0045 28.5585H50.0133Z" fill="black"/>
<path d="M99.425 33.3635C94.8872 28.847 89.7214 24.9644 84.0779 21.8213L82.4945 29.3488L82.406 29.3312C86.705 31.9372 90.6678 35.0363 94.2061 38.5579L95.0995 37.6687L100 37.2461L99.4162 33.3635H99.425Z" fill="black"/>
<path d="M0.0177085 37.2455L5.29852 42.5016C16.7536 31.1003 32.5696 24.0394 50.0043 24.0394C67.4391 24.0394 83.2551 31.1003 94.7102 42.5016L99.991 37.2455C87.2002 24.5148 69.5178 16.6351 49.9955 16.6351C30.4732 16.6351 12.7996 24.5148 0 37.2455H0.0177085Z" fill="#11B67A"/>
<path d="M22.3794 59.5048L27.6513 64.752C33.3745 59.0558 41.2825 55.5253 50.0043 55.5253C58.7261 55.5253 66.6341 59.0558 72.3572 64.752L77.6292 59.5048C70.5615 52.4703 60.7871 48.1123 50.0043 48.1123C39.2214 48.1123 29.447 52.4615 22.3794 59.5048ZM33.5071 70.5804L50.0043 87L66.5014 70.5804C62.282 66.3808 56.4439 63.7748 50.0043 63.7748C43.5646 63.7748 37.7265 66.372 33.5071 70.5804ZM50.0131 32.3793C34.8606 32.3793 21.1321 38.4894 11.2073 48.3764L16.4882 53.6325C25.0773 45.0837 36.9393 39.7836 50.022 39.7836C63.1047 39.7836 74.9667 45.0837 83.5558 53.6325L88.8366 48.3764C78.903 38.4894 65.1834 32.3793 50.0308 32.3793H50.0131Z" fill="#C7FFC6"/>
<path d="M8.92532 63.6924C8.92532 63.6924 11.2606 71.4048 20.7431 73.5354C20.7431 73.5354 13.5604 74.7679 13.4189 83.3519C13.4189 83.3519 10.889 75.9125 1.80454 73.5266C1.80454 73.5266 9.39414 72.6285 8.92532 63.6924Z" fill="white"/>
</svg>
