<svg width="24" height="24" viewBox="0 0 24 24" fill="none" xmlns="http://www.w3.org/2000/svg">
<path d="M17.4545 13.0909C14.4435 13.0909 11.9999 15.5345 11.9999 18.5455C11.9999 21.5564 14.4435 24 17.4545 24C20.4654 24 22.909 21.5564 22.909 18.5455C22.909 15.5345 20.4654 13.0909 17.4545 13.0909ZM20.3126 17.3891L16.2654 21.4364L14.2363 19.4073C13.9199 19.0909 13.9199 18.5673 14.2363 18.2509C14.5526 17.9345 15.0763 17.9345 15.3926 18.2509L16.2654 19.1236L19.1563 16.2327C19.4726 15.9164 19.9963 15.9164 20.3126 16.2327C20.629 16.5491 20.629 17.0727 20.3126 17.3891Z" fill="#00855D"/>
<path d="M17.4545 3.27273H11.9999V4.69091H17.4545V3.27273Z" fill="black"/>
<path d="M17.4545 8.72727H4.36355V10.1455H17.4545V8.72727Z" fill="black"/>
<path d="M1.09082 0V21.8182H11.1708C10.9417 21.3709 10.7563 20.8909 10.6145 20.4H2.509V1.41819H19.309V11.7055C19.7999 11.8364 20.2799 12.0218 20.7272 12.2618V0H1.09082Z" fill="black"/>
<path d="M4.36355 16.6909H10.6145C10.7454 16.2 10.9308 15.72 11.1708 15.2727H4.36355V16.6909Z" fill="black"/>
<path d="M4.36355 13.4182H12.5672C13.189 12.8182 13.9199 12.3382 14.7272 12H4.36355V13.4182Z" fill="black"/>
</svg>
