<svg width="24" height="24" viewBox="0 0 24 24" fill="none" xmlns="http://www.w3.org/2000/svg">
<path d="M7.19995 12.78H11.22V16.8C11.22 17.232 11.568 17.58 12 17.58C12.432 17.58 12.78 17.232 12.78 16.8V12.78H16.7999C17.2319 12.78 17.58 12.432 17.58 12C17.58 11.568 17.2319 11.22 16.7999 11.22H12.78V7.2C12.78 6.768 12.432 6.42 12 6.42C11.568 6.42 11.22 6.768 11.22 7.2V11.22H7.19995C6.76795 11.22 6.41995 11.568 6.41995 12C6.41995 12.432 6.76795 12.78 7.19995 12.78Z" fill="black"/>
<path d="M1.19995 0V24H16.0919C16.7279 24 17.34 23.748 17.7839 23.292L22.0919 18.984C22.5479 18.528 22.7999 17.928 22.7999 17.292V0H1.19995ZM21.24 17.4C21.24 17.736 20.976 18 20.64 18H16.7999V21.84C16.7999 22.176 16.536 22.44 16.2 22.44H2.75995V1.56H21.24V17.4Z" fill="black"/>
</svg>
