<svg width="24" height="24" viewBox="0 0 24 24" fill="none" xmlns="http://www.w3.org/2000/svg">
<path d="M10.0439 16.212L17.4359 8.82001C17.7359 8.52001 17.7359 8.01599 17.4359 7.71599C17.1359 7.41599 16.632 7.41599 16.332 7.71599L10.0439 14.004L7.73995 11.7C7.43995 11.4 6.93595 11.4 6.63595 11.7C6.33595 12 6.33595 12.504 6.63595 12.804L10.0439 16.212Z" fill="black"/>
<path d="M1.19995 0V24H16.0919C16.7279 24 17.34 23.748 17.7839 23.292L22.0919 18.984C22.5479 18.528 22.7999 17.928 22.7999 17.292V0H1.19995ZM21.24 17.4C21.24 17.736 20.976 18 20.64 18H16.7999V21.84C16.7999 22.176 16.5359 22.44 16.2 22.44H2.75995V1.56H21.24V17.4Z" fill="black"/>
</svg>
