<svg width="24" height="24" viewBox="0 0 24 24" fill="none" xmlns="http://www.w3.org/2000/svg">
<path d="M16.4039 12.996C16.104 12.696 15.6 12.696 15.3 12.996L12.78 15.516V6.6H11.22V15.516L8.69995 12.996C8.39995 12.696 7.89595 12.696 7.59595 12.996C7.29595 13.296 7.29595 13.8 7.59595 14.1L12 18.504L16.4039 14.1C16.7039 13.8 16.7039 13.296 16.4039 12.996Z" fill="black"/>
<path d="M1.19995 0V24H16.0919C16.7279 24 17.34 23.748 17.7839 23.292L22.0919 18.984C22.5479 18.528 22.7999 17.928 22.7999 17.292V0H1.19995ZM16.7999 18V21.84C16.7999 22.176 16.5359 22.44 16.2 22.44H2.75995V1.56H21.24V17.4C21.24 17.736 20.976 18 20.64 18H16.7999Z" fill="black"/>
</svg>
