<svg width="24" height="24" viewBox="0 0 24 24" fill="none" xmlns="http://www.w3.org/2000/svg">
<path d="M23.731 22.4986L17.9612 16.7295C17.5711 16.3394 17.4883 15.7129 17.8075 15.2518C19.1199 13.3248 19.7702 10.9131 19.4037 8.32414C18.7889 3.99732 15.2064 0.54534 10.8554 0.0606419C4.60082 -0.625029 -0.625106 4.60026 0.0606494 10.854C0.533584 15.1927 3.98601 18.7865 8.31336 19.4013C10.8908 19.7677 13.3146 19.1294 15.2418 17.8171C15.703 17.4979 16.3178 17.5807 16.7198 17.9708L22.4896 23.7399C22.6669 23.9172 22.8916 24 23.1162 24C23.3408 24 23.5655 23.9172 23.7428 23.7399C24.0857 23.3971 24.0857 22.8296 23.7428 22.4868L23.731 22.4986ZM1.76321 9.76642C1.76321 5.36867 5.34569 1.78663 9.74398 1.78663C14.1423 1.78663 17.7248 5.36867 17.7248 9.76642C17.7248 14.1642 14.1423 17.7462 9.74398 17.7462C5.34569 17.7462 1.76321 14.1642 1.76321 9.76642Z" fill="black"/>
</svg>
