<svg width="24" height="24" viewBox="0 0 24 24" fill="none" xmlns="http://www.w3.org/2000/svg">
<path d="M4.79995 8.4V20.4H15V18.84H6.35995V9.95999H17.64V16.2H19.1999V8.4H4.79995Z" fill="black"/>
<path d="M19.1999 3.6H4.79995V6H19.1999V3.6Z" fill="black"/>
<path d="M1.19995 0V24H16.0919C16.7279 24 17.34 23.748 17.7839 23.292L22.0919 18.984C22.5479 18.528 22.7999 17.928 22.7999 17.292V0H1.19995ZM16.7999 18V21.84C16.7999 22.176 16.5359 22.44 16.2 22.44H2.75995V1.55999H21.24V17.4C21.24 17.736 20.976 18 20.64 18H16.7999Z" fill="black"/>
</svg>
