<svg width="24" height="24" viewBox="0 0 24 24" fill="none" xmlns="http://www.w3.org/2000/svg">
<path d="M16.8626 3.86088C16.7269 3.42262 16.3199 3.13043 15.8713 3.13043H14.0869V2.08696C14.0869 0.93913 13.1478 0 11.9999 0C10.8521 0 9.91299 0.93913 9.91299 2.08696V3.13043H8.12864C7.66951 3.13043 7.27299 3.42262 7.13734 3.86088L5.73908 8.34783H18.2608L16.8626 3.86088ZM7.58603 6.99132L8.36864 4.48694H11.2799V2.08696C11.2799 1.68 11.6034 1.35651 12.0104 1.35651C12.4173 1.35651 12.7408 1.68 12.7408 2.08696V4.48694H15.6521L16.4347 6.99132H7.58603Z" fill="black"/>
<path d="M18.6052 4.17391L19.0226 5.53042H20.0347V22.6435H3.96516V5.53042H4.97734L5.39473 4.17391H2.60864V24H21.3913V4.17391H18.6052Z" fill="black"/>
<path d="M17.2173 10.4348H6.78256V11.7913H17.2173V10.4348Z" fill="black"/>
<path d="M14.3373 14.2957L10.8104 17.8226L9.62082 16.633C9.35995 16.3722 8.92169 16.3722 8.66082 16.633C8.39995 16.8939 8.39995 17.3322 8.66082 17.593L10.8104 19.7426L15.2973 15.2556C15.5582 14.9948 15.5582 14.5565 15.2973 14.2957C15.0365 14.0348 14.5982 14.0348 14.3373 14.2957Z" fill="black"/>
</svg>
