<svg width="100" height="100" viewBox="0 0 100 100" fill="none" xmlns="http://www.w3.org/2000/svg">
<g clip-path="url(#clip0_15980_1321)">
<rect width="100" height="100" fill="white"/>
<path d="M88 43.3483C88 40.7184 86.3396 38.3485 83.8633 37.5008C73.5359 33.9749 62.5079 32 50.9904 32C39.4729 32 28.4449 33.9749 18.1271 37.5008C15.6413 38.3485 14 40.7184 14 43.3483V78.0484C14 80.7843 16.2075 83 18.9333 83H83.0667C85.7925 83 88 80.7843 88 78.0484V43.3483Z" fill="#6CF479"/>
<path d="M97.3169 40.4688L31.2607 35.0344L2.35097 46.014L9.92339 47.5642V82.5983H15.4941V47.249L17.5639 46.6528V79.7874H23.1346V45.0514L25.5793 44.353V76.8828H31.1414V42.7516L35.6218 41.4654V75.6903H41.1926V41.4995L47.8535 41.9254V76.6698H53.4157V42.2831L72.3084 43.4927V78.6375H77.8791V43.8504L84.5401 44.2763V79.6255H90.1023V44.387L97.3169 40.4688Z" fill="black"/>
<path d="M53.2368 52.3683L65.937 52.8964V73.7993L53.2368 73.399V52.3683Z" fill="black"/>
<path d="M31.5929 25.1279L2.35097 44.9575V46.014L31.2607 35.0344L31.2607 33.6969L65.7155 10.0001L31.5929 25.1279Z" fill="#11B67A"/>
<path d="M65.7155 10.0001L31.2607 33.6969L31.2607 35.0344L97.3169 40.4688L97.3168 39.4124L65.7155 10.0001Z" fill="#006A4D"/>
<path d="M87.9131 43.3223C86.7036 43.3223 85.724 43.91 85.724 44.6426V79.6255H90.1107V44.6426C90.1107 43.91 89.1312 43.3223 87.9216 43.3223H87.9131Z" fill="#11B67A"/>
<path d="M75.6814 42.334C74.4719 42.334 73.4923 42.9218 73.4923 43.6543V78.6372L77.8791 78.6375L77.879 43.6543C77.879 42.9218 76.8995 42.334 75.69 42.334H75.6814Z" fill="#11B67A"/>
<path d="M51.2266 40.3662C50.017 40.3662 49.0375 40.9539 49.0375 41.6864V76.6694H53.4242V41.6864C53.4242 40.9539 52.4447 40.3662 51.2351 40.3662H51.2266Z" fill="#11B67A"/>
<path d="M39.0034 39.3868C37.7939 39.3868 36.8143 39.9745 36.8143 40.707V75.69H41.201V40.707C41.201 39.9745 40.2215 39.3868 39.012 39.3868H39.0034Z" fill="#11B67A"/>
<path d="M84.5315 40.912V42.2664L92.6831 42.9734V41.6105L84.5315 40.912Z" fill="#006A4D"/>
<path d="M72.2998 41.2869L80.4514 41.9853V40.631L72.2998 39.924V41.2869Z" fill="#006A4D"/>
<path d="M47.845 39.319L55.9966 40.0175V38.6632L47.845 37.9562V39.319Z" fill="#006A4D"/>
<path d="M35.6133 38.3309L43.7649 39.0379V37.675L35.6133 36.9766V38.3309Z" fill="#006A4D"/>
<path d="M28.9524 40.5789C27.7428 40.5789 26.7633 41.1667 26.7633 41.8992V76.8822H31.15V41.8992C31.15 41.1667 30.1704 40.5789 28.9609 40.5789H28.9524Z" fill="#11B67A"/>
<path d="M20.9371 43.4834C19.7275 43.4834 18.748 44.0711 18.748 44.8037V79.7866L23.1346 79.7874L23.1347 44.8037C23.1347 44.0711 22.1551 43.4834 20.9456 43.4834H20.9371Z" fill="#11B67A"/>
<path d="M13.305 46.2939C12.0954 46.2939 11.1159 46.8816 11.1159 47.6141V82.5971H15.5026V47.6141C15.5026 46.8816 14.523 46.2939 13.3135 46.2939H13.305Z" fill="#11B67A"/>
<path d="M23.5775 39.4556V40.8185L29.6167 38.7231V37.2324L23.5775 39.4556Z" fill="#11B67A"/>
<path d="M15.5623 43.7237L21.6099 41.6283V40.1377L15.5623 42.3609V43.7237Z" fill="#11B67A"/>
<path d="M7.93018 46.5345L13.9694 44.4391V42.957L7.93018 45.1802V46.5345Z" fill="#11B67A"/>
<path d="M33.4412 83.8163V78.2712H38.322V72.8879L7.8961 77.4279V81.2098L4.029 81.6272V85.077L0 85.4091V89.5318H29.2419V83.8163H33.4412Z" fill="#11B67A"/>
<path d="M65.8944 12.7431L35.9795 33.2797L92.9898 38.0838L65.8944 12.7431Z" fill="#11B67A"/>
<path d="M63.9608 14.0889L65.8944 12.7431L92.9898 38.0838L89.0034 37.7516L63.9608 14.0889Z" fill="black"/>
<path d="M68.637 26.5503C68.7989 29.8297 66.6353 32.4872 63.7903 32.4958C60.9454 32.5043 58.5178 29.8382 58.3559 26.5588C58.1941 23.2794 60.3576 20.6218 63.2026 20.6133C66.0476 20.6048 68.4752 23.2709 68.637 26.5503Z" fill="white"/>
<path d="M38.322 72.8879L93.1005 74.7362V79.7448H97.1295V84.8214H100V89.5318H29.2419V83.8163H33.4412V78.2712H38.322V72.8879Z" fill="#006A4D"/>
</g>
<defs>
<clipPath id="clip0_15980_1321">
<rect width="100" height="100" fill="white"/>
</clipPath>
</defs>
</svg>
