<svg width="100" height="100" viewBox="0 0 100 100" fill="none" xmlns="http://www.w3.org/2000/svg">
<g clip-path="url(#clip0_15980_17641)">
<path d="M31.1314 47.3077C29.929 46.3138 28.6383 45.5486 27.2945 44.9945L26.2159 45.1968C24.262 45.5662 22.4232 44.1326 22.3259 42.1536L22.3082 41.7666H22.2905L21.6451 28.644C21.5302 26.8497 20.3632 26.4187 20.0538 26.3308C20.0273 26.3308 20.0007 26.322 19.9742 26.3132L0.754109 20.5699C0.36511 20.4819 0.0556805 20.262 0.0379987 19.9981H0.0114502L0.630323 35.0558C0.745255 37.2194 2.1775 39.1016 4.24627 39.7877L18.153 44.4228C8.10972 47.0702 0.108741 59.8322 0.108741 73.553C0.108741 81.8822 2.96434 89.0152 7.95061 93.1226C10.6648 95.3566 13.7768 96.5 17.0744 96.5C17.9939 96.5 18.931 96.4121 19.877 96.2361C30.4153 94.2396 38.9821 81.0642 38.9821 66.8597C38.9821 58.5306 36.1265 51.3975 31.1402 47.2901L31.1314 47.3077ZM19.205 92.7972C15.9428 93.4129 12.8219 92.5949 10.1962 90.4312C6.08516 87.045 3.63625 80.7475 3.63625 73.5705C3.63625 60.9756 10.9211 49.3482 19.8681 47.6507C20.5754 47.5188 21.2738 47.4484 21.9722 47.4484C24.4654 47.4484 26.8259 48.3191 28.8858 50.0166C32.9968 53.4028 35.4458 59.7003 35.4458 66.8773C35.4458 79.4722 28.1609 91.0997 19.2139 92.7972H19.205Z" fill="#024731"/>
<path d="M42.4036 44.2106C45.8603 48.7314 49.9449 53.393 55.4704 53.393C55.6561 53.393 55.8505 53.393 56.045 53.3754L54.9311 57.5092L58.7857 56.7792L65.0539 33.4539C65.0539 33.4539 62.216 32.803 60.1826 37.9571L57.0352 49.6813C53.322 50.5433 50.0774 48.4499 45.2149 42.0821C40.7591 36.2596 33.987 25.2391 33.9163 25.1335C33.4035 24.3068 32.3161 24.0429 31.4851 24.553C30.654 25.0631 30.3888 26.145 30.9015 26.9717C31.1845 27.4291 37.8417 38.2473 42.4036 44.2194V44.2106Z" fill="#11B67A"/>
<path d="M50.6698 59.3308C43.155 50.6058 32.8465 35.1259 32.7227 34.9412C32.1834 34.1321 31.0872 33.9122 30.2738 34.4399C29.4605 34.9764 29.2395 36.0671 29.7699 36.8762C30.2738 37.6414 41.0686 53.8336 48.7778 62.5234C49.2022 61.2657 49.8564 60.1575 50.6609 59.322L50.6698 59.3308Z" fill="#11B67A"/>
<path d="M78.4125 84.4863C75.159 84.4863 72.0912 83.3605 69.4213 81.1616C64.5058 77.1158 61.6944 70.0883 61.6944 61.8823C61.6944 47.8889 70.1374 34.907 80.5254 32.9368C84.7956 32.1276 88.8624 33.1831 92.275 35.9976C97.1906 40.0434 100.002 47.0709 100.002 55.2769C100.002 69.2703 91.5589 82.2523 81.1709 84.2225C80.2426 84.3984 79.3142 84.4863 78.4125 84.4863ZM83.2396 36.1471C82.5589 36.1471 81.8693 36.2087 81.1709 36.3494C72.3477 38.0205 65.1777 49.4808 65.1777 61.8911C65.1777 68.9625 67.5912 75.172 71.6404 78.4967C74.2307 80.6339 77.2985 81.4343 80.5166 80.8274C89.3398 79.1563 96.5098 67.696 96.5098 55.2858C96.5098 48.2143 94.0962 42.0048 90.0471 38.6801C88.0137 37.009 85.6974 36.1559 83.2396 36.1559V36.1471Z" fill="#024731"/>
<path d="M62.879 14.2545C62.7022 13.2079 61.6677 12.5746 60.6776 12.8385L51.5803 15.2836C50.6697 15.4331 42.4211 16.6205 32.6077 13.7268C28.5586 12.5306 26.5429 11.2201 25.535 10.2526C25.0488 9.78647 25.2698 8.97732 25.9152 8.79262L32.2099 6.97197C33.1029 6.71691 33.7217 5.84617 33.5537 4.94025C33.3592 3.9024 32.316 3.28673 31.317 3.56818L23.6873 5.76702C22.2374 6.18919 21.1676 7.4821 21.1234 9.10924C21.1058 9.68093 21.2649 10.2526 21.5301 10.7628C22.8209 13.2958 26.0213 15.3715 31.0429 16.9283C31.8475 17.1834 32.3337 18.0013 32.1569 18.8281L25.6323 48.8905C25.6146 49.0225 23.369 62.1364 19.6912 68.2316C19.2668 68.9264 19.3553 69.8499 19.9476 70.4128C20.3101 70.7558 20.7521 70.9229 21.1942 70.9229C21.7954 70.9229 22.3789 70.6151 22.706 70.0697C26.7463 63.4117 29.0272 50.0339 29.1068 49.5502L35.6137 19.822C35.817 18.9072 36.7011 18.3092 37.6206 18.4587C40.8298 18.9864 43.7208 19.1535 46.0725 19.1535C49.4232 19.1535 51.6687 18.8281 52.1373 18.7489C52.2611 18.7314 52.3672 18.705 52.4821 18.6786L61.491 16.2599C62.3839 16.0224 63.0293 15.1605 62.879 14.2457V14.2545Z" fill="#11B67A"/>
<path d="M50.7227 66.7444C50.7227 62.9448 52.9594 59.4354 55.7266 58.9165L81.2325 54.0791C81.6127 54.0087 81.9664 54.0439 82.3023 54.1406V54.1055L79.9064 53.349C79.1638 53.1116 78.377 53.0676 77.6167 53.2083L53.2777 57.8259C50.5105 58.3536 48.2737 61.8541 48.2737 65.6537C48.2737 68.5034 49.5203 70.6671 51.2797 71.3971L53.7551 72.5141H53.7727C51.9957 71.8017 50.7227 69.6205 50.7227 66.7444Z" fill="#024731"/>
<path d="M75.9635 23.1902C75.1678 22.7768 74.2572 22.3458 73.1963 21.8709C70.3672 20.6043 68.0067 20.0766 66.265 19.8743C64.5853 19.6808 62.879 19.8831 61.27 20.4109L58.6088 21.2728C57.601 21.5982 57.2297 22.8032 57.8485 23.6651C57.9458 23.8058 58.0342 23.9465 58.1049 24.0961C58.3878 24.7205 58.0607 25.4594 57.4153 25.6793C56.5312 25.9783 55.4261 26.1806 54.6216 26.5764C53.0125 27.3767 53.3308 28.9511 53.3308 28.9511C53.3308 29.9362 55.214 30.8773 57.5214 30.7366C60.6776 30.5431 63.6216 27.9485 70.7739 29.4613C72.1885 29.7603 73.6472 29.7251 75.0529 29.3821L75.2208 29.3381C78.2002 28.6081 78.6954 24.5886 75.9724 23.1814L75.9635 23.1902Z" fill="#6CF479"/>
<path d="M11.0095 57.7563C11.0095 57.7563 4.29927 67.5543 6.99574 81.1255C6.99574 81.1255 7.14604 73.1393 11.0802 75.3206C15.0144 77.5018 18.1529 81.1958 23.5547 77.2116C23.5547 77.2116 14.3779 78.7332 14.2895 67.2728C14.2188 57.8354 11.0095 57.7651 11.0095 57.7651V57.7563Z" fill="white"/>
<path d="M81.1797 66.3213C81.1797 66.3213 85.1228 65.6704 86.723 61.2376C86.723 61.2376 88.111 63.4892 86.7937 66.6819C86.7937 66.6819 91.4617 65.8815 93.946 58.2647C93.946 58.2647 94.1936 69.1358 84.3183 77.1308C84.3183 77.1308 87.386 69.2413 81.1797 66.3213Z" fill="white"/>
<path d="M41.8111 22.6808L21.8749 16.1899C21.0262 15.9172 20.1244 15.8556 19.2492 16.0228L0.506461 19.5233C0.506461 19.5233 0.126313 19.5673 0.0202226 19.8839C-0.0858681 20.2094 0.285447 20.482 0.736333 20.5875L19.9564 26.3309C19.9564 26.3309 20.0095 26.3397 20.036 26.3485C20.3454 26.4277 21.5301 26.8586 21.6362 28.6881L22.3258 42.1625C22.4319 44.1415 24.2619 45.5751 26.2158 45.2057L36.0469 43.3411C38.2748 42.9189 39.9899 41.1247 40.3082 38.8906L42.2974 23.147C42.3416 22.8216 41.8111 22.6896 41.8111 22.6896V22.6808Z" fill="#6CF479"/>
<path d="M81.2325 54.08L55.7266 58.9175C52.9594 59.4452 50.7227 62.9457 50.7227 66.7453C50.7227 70.1403 52.4908 72.5591 54.7718 72.735L54.7276 66.1297L56.3543 65.5755L57.9015 71.9346L81.6658 63.1217C83.319 62.506 84.5567 60.3335 84.5567 58.0291C84.5567 55.4961 83.0627 53.7282 81.2237 54.08H81.2325Z" fill="#6CF479"/>
<path d="M57.9457 64.6441C57.8219 63.8525 57.318 63.2808 56.6372 63.2808C55.7532 63.2808 54.9221 64.2043 54.7629 65.3653C54.6922 65.8755 54.7807 66.3416 54.9663 66.711L59.1922 75.6295L60.6068 74.9962L57.9457 64.6353V64.6441Z" fill="white"/>
<path d="M62.3573 74.132C62.1717 74.0616 61.9595 74.0616 61.7738 74.132L57.8219 75.504C57.318 75.6711 56.9555 76.2077 56.9555 76.8585C56.9555 77.5094 57.2915 77.9931 57.7512 78.1866L63.3386 80.0776C63.6127 80.1744 63.9133 80.1655 64.1874 80.06L67.5116 78.7583C67.8475 78.6264 68.0686 78.301 68.0686 77.9403V76.7794C68.0686 76.41 67.8298 76.0757 67.4762 75.9526L62.3662 74.1496L62.3573 74.132Z" fill="#11B67A"/>
<path d="M63.6481 80.1319C63.5243 80.1143 63.4271 80.0439 63.3563 79.9648C63.1707 79.7449 63.1618 79.4634 63.1972 79.2523C63.2326 79.0413 63.1176 78.8126 62.9054 78.7422L57.8131 77.0447C57.5567 76.9568 57.3799 76.8776 57.2473 76.5346C57.1324 76.2268 57.2738 75.9013 57.3092 75.8486C57.0793 76.1036 56.9467 76.4555 56.9467 76.86C56.9467 77.4757 57.2827 77.9946 57.7424 78.1881L63.3298 80.0791C63.4359 80.1143 63.542 80.1319 63.6393 80.1407L63.6481 80.1319Z" fill="#024731"/>
<path d="M2.69912 20.1727L20.5665 16.8304L38.3279 22.6705L21.5125 25.7929L2.69912 20.1727Z" fill="#00482F"/>
</g>
<defs>
<clipPath id="clip0_15980_17641">
<rect width="100" height="100" fill="white"/>
</clipPath>
</defs>
</svg>
