<svg width="100" height="100" viewBox="0 0 100 100" fill="none" xmlns="http://www.w3.org/2000/svg">
<g clip-path="url(#clip0_15980_17639)">
<rect width="100" height="100" fill="white"/>
<path d="M31.0787 47.3077C29.8763 46.3138 28.5856 45.5486 27.2417 44.9945L26.1631 45.1968C24.2093 45.5662 22.3704 44.1326 22.2732 42.1536L22.2555 41.7666H22.2378L21.5924 28.644C21.4775 26.8497 20.3105 26.4187 20.0011 26.3308C19.9745 26.3308 19.948 26.322 19.9215 26.3132L0.701374 20.5699C0.312375 20.4819 0.00294615 20.262 -0.0147356 19.9981H-0.0412842L0.577589 35.0558C0.69252 37.2194 2.12477 39.1016 4.19354 39.7877L18.1002 44.4228C8.05699 47.0702 0.0560066 59.8322 0.0560066 73.553C0.0560066 81.8822 2.91161 89.0152 7.89787 93.1226C10.612 95.3566 13.724 96.5 17.0217 96.5C17.9411 96.5 18.8783 96.4121 19.8242 96.2361C30.3626 94.2396 38.9294 81.0642 38.9294 66.8597C38.9294 58.5306 36.0738 51.3975 31.0875 47.2901L31.0787 47.3077ZM19.1523 92.7972C15.89 93.4129 12.7692 92.5949 10.1434 90.4312C6.03242 87.045 3.58351 80.7475 3.58351 73.5705C3.58351 60.9756 10.8684 49.3482 19.8154 47.6507C20.5226 47.5188 21.2211 47.4484 21.9195 47.4484C24.4126 47.4484 26.7732 48.3191 28.8331 50.0166C32.9441 53.4028 35.393 59.7003 35.393 66.8773C35.393 79.4722 28.1081 91.0997 19.1612 92.7972H19.1523Z" fill="black"/>
<path d="M42.3508 44.2106C45.8076 48.7314 49.8921 53.393 55.4177 53.393C55.6033 53.393 55.7978 53.393 55.9923 53.3754L54.8783 57.5092L58.733 56.7792L65.0012 33.4539C65.0012 33.4539 62.1632 32.803 60.1298 37.9571L56.9825 49.6813C53.2693 50.5433 50.0247 48.4499 45.1622 42.0821C40.7064 36.2596 33.9343 25.2391 33.8636 25.1335C33.3508 24.3068 32.2634 24.0429 31.4323 24.553C30.6013 25.0631 30.336 26.145 30.8488 26.9717C31.1317 27.4291 37.7889 38.2473 42.3508 44.2194V44.2106Z" fill="#11B67A"/>
<path d="M50.6171 59.3308C43.1023 50.6058 32.7938 35.1259 32.67 34.9412C32.1307 34.1321 31.0345 33.9122 30.2211 34.4399C29.4077 34.9764 29.1867 36.0671 29.7172 36.8762C30.2211 37.6414 41.0158 53.8336 48.7251 62.5234C49.1495 61.2657 49.8037 60.1575 50.6082 59.322L50.6171 59.3308Z" fill="#11B67A"/>
<path d="M78.3597 84.4863C75.1063 84.4863 72.0385 83.3605 69.3686 81.1616C64.453 77.1158 61.6416 70.0883 61.6416 61.8823C61.6416 47.8889 70.0847 34.907 80.4727 32.9368C84.7429 32.1276 88.8097 33.1831 92.2223 35.9976C97.1378 40.0434 99.9492 47.0709 99.9492 55.2769C99.9492 69.2703 91.5062 82.2523 81.1181 84.2225C80.1898 84.3984 79.2615 84.4863 78.3597 84.4863ZM83.1869 36.1471C82.5061 36.1471 81.8166 36.2087 81.1181 36.3494C72.2949 38.0205 65.1249 49.4808 65.1249 61.8911C65.1249 68.9625 67.5385 75.172 71.5876 78.4967C74.178 80.6339 77.2458 81.4343 80.4639 80.8274C89.2871 79.1563 96.4571 67.696 96.4571 55.2858C96.4571 48.2143 94.0435 42.0048 89.9944 38.6801C87.961 37.009 85.6446 36.1559 83.1869 36.1559V36.1471Z" fill="black"/>
<path d="M62.8263 14.2545C62.6494 13.2079 61.615 12.5746 60.6248 12.8385L51.5276 15.2836C50.617 15.4331 42.3684 16.6205 32.555 13.7268C28.5059 12.5306 26.4902 11.2201 25.4823 10.2526C24.996 9.78647 25.2171 8.97732 25.8625 8.79262L32.1572 6.97197C33.0501 6.71691 33.669 5.84617 33.501 4.94025C33.3065 3.9024 32.2633 3.28673 31.2643 3.56818L23.6346 5.76702C22.1847 6.18919 21.1149 7.4821 21.0707 9.10924C21.053 9.68093 21.2122 10.2526 21.4774 10.7628C22.7682 13.2958 25.9686 15.3715 30.9902 16.9283C31.7947 17.1834 32.281 18.0013 32.1042 18.8281L25.5796 48.8905C25.5619 49.0225 23.3163 62.1364 19.6385 68.2316C19.2141 68.9264 19.3026 69.8499 19.8949 70.4128C20.2574 70.7558 20.6994 70.9229 21.1414 70.9229C21.7426 70.9229 22.3261 70.6151 22.6533 70.0697C26.6935 63.4117 28.9745 50.0339 29.054 49.5502L35.5609 19.822C35.7643 18.9072 36.6484 18.3092 37.5678 18.4587C40.7771 18.9864 43.668 19.1535 46.0197 19.1535C49.3704 19.1535 51.616 18.8281 52.0846 18.7489C52.2083 18.7314 52.3144 18.705 52.4294 18.6786L61.4382 16.2599C62.3312 16.0224 62.9766 15.1605 62.8263 14.2457V14.2545Z" fill="#11B67A"/>
<path d="M50.6699 66.7444C50.6699 62.9448 52.9067 59.4354 55.6739 58.9165L81.1798 54.0791C81.56 54.0087 81.9136 54.0439 82.2496 54.1406V54.1055L79.8537 53.349C79.111 53.1116 78.3242 53.0676 77.5639 53.2083L53.2249 57.8259C50.4577 58.3536 48.221 61.8541 48.221 65.6537C48.221 68.5034 49.4676 70.6671 51.2269 71.3971L53.7024 72.5141H53.72C51.943 71.8017 50.6699 69.6205 50.6699 66.7444Z" fill="black"/>
<path d="M75.9108 23.1902C75.1151 22.7768 74.2045 22.3458 73.1436 21.8709C70.3145 20.6043 67.9539 20.0766 66.2123 19.8743C64.5325 19.6808 62.8263 19.8831 61.2172 20.4109L58.5561 21.2728C57.5482 21.5982 57.1769 22.8032 57.7958 23.6651C57.8931 23.8058 57.9814 23.9465 58.0522 24.0961C58.3351 24.7205 58.0079 25.4594 57.3626 25.6793C56.4785 25.9783 55.3734 26.1806 54.5689 26.5764C52.9598 27.3767 53.2781 28.9511 53.2781 28.9511C53.2781 29.9362 55.1612 30.8773 57.4687 30.7366C60.6249 30.5431 63.5689 27.9485 70.7212 29.4613C72.1357 29.7603 73.5944 29.7251 75.0001 29.3821L75.1681 29.3381C78.1475 28.6081 78.6426 24.5886 75.9196 23.1814L75.9108 23.1902Z" fill="#00482F"/>
<path d="M10.9568 57.7563C10.9568 57.7563 4.24654 67.5543 6.94301 81.1255C6.94301 81.1255 7.0933 73.1393 11.0275 75.3206C14.9617 77.5018 18.1002 81.1958 23.502 77.2116C23.502 77.2116 14.3252 78.7332 14.2367 67.2728C14.166 57.8354 10.9568 57.7651 10.9568 57.7651V57.7563Z" fill="#6CF479"/>
<path d="M81.127 66.3213C81.127 66.3213 85.07 65.6704 86.6702 61.2376C86.6702 61.2376 88.0583 63.4892 86.741 66.6819C86.741 66.6819 91.4089 65.8815 93.8932 58.2647C93.8932 58.2647 94.1408 69.1358 84.2655 77.1308C84.2655 77.1308 87.3333 69.2413 81.127 66.3213Z" fill="#6CF479"/>
<path d="M41.7584 22.6808L21.8222 16.1899C20.9735 15.9172 20.0717 15.8556 19.1964 16.0228L0.453726 19.5233C0.453726 19.5233 0.0735789 19.5673 -0.0325118 19.8839C-0.138603 20.2094 0.232713 20.482 0.683598 20.5875L19.9037 26.3309C19.9037 26.3309 19.9568 26.3397 19.9833 26.3485C20.2927 26.4277 21.4774 26.8586 21.5835 28.6881L22.2731 42.1625C22.3792 44.1415 24.2092 45.5751 26.1631 45.2057L35.9941 43.3411C38.222 42.9189 39.9372 41.1247 40.2554 38.8906L42.2446 23.147C42.2888 22.8216 41.7584 22.6896 41.7584 22.6896V22.6808Z" fill="#6CF479"/>
<path d="M81.1798 54.08L55.6739 58.9175C52.9067 59.4452 50.6699 62.9457 50.6699 66.7453C50.6699 70.1403 52.4381 72.5591 54.719 72.735L54.6748 66.1297L56.3016 65.5755L57.8487 71.9346L81.6131 63.1217C83.2663 62.506 84.504 60.3335 84.504 58.0291C84.504 55.4961 83.0099 53.7282 81.171 54.08H81.1798Z" fill="#6CF479"/>
<path d="M57.8929 64.6441C57.7692 63.8525 57.2653 63.2808 56.5845 63.2808C55.7004 63.2808 54.8693 64.2043 54.7102 65.3653C54.6395 65.8755 54.7279 66.3416 54.9136 66.711L59.1395 75.6295L60.5541 74.9962L57.8929 64.6353V64.6441Z" fill="#6CF479"/>
<path d="M62.3046 74.132C62.1189 74.0616 61.9068 74.0616 61.7211 74.132L57.7692 75.504C57.2653 75.6711 56.9028 76.2077 56.9028 76.8585C56.9028 77.5094 57.2387 77.9931 57.6985 78.1866L63.2859 80.0776C63.56 80.1744 63.8606 80.1655 64.1347 80.06L67.4588 78.7583C67.7948 78.6264 68.0158 78.301 68.0158 77.9403V76.7794C68.0158 76.41 67.7771 76.0757 67.4234 75.9526L62.3134 74.1496L62.3046 74.132Z" fill="#11B67A"/>
<path d="M63.5954 80.1319C63.4716 80.1143 63.3743 80.0439 63.3036 79.9648C63.118 79.7449 63.1091 79.4634 63.1445 79.2523C63.1798 79.0413 63.0649 78.8126 62.8527 78.7422L57.7604 77.0447C57.504 76.9568 57.3272 76.8776 57.1946 76.5346C57.0796 76.2268 57.2211 75.9013 57.2564 75.8486C57.0266 76.1036 56.894 76.4555 56.894 76.86C56.894 77.4757 57.2299 77.9946 57.6897 78.1881L63.2771 80.0791C63.3832 80.1143 63.4893 80.1319 63.5865 80.1407L63.5954 80.1319Z" fill="black"/>
<path d="M2.64638 20.1727L20.5138 16.8304L38.2752 22.6705L21.4598 25.7929L2.64638 20.1727Z" fill="#00482F"/>
</g>
<defs>
<clipPath id="clip0_15980_17639">
<rect width="100" height="100" fill="white"/>
</clipPath>
</defs>
</svg>
