<svg width="100" height="100" viewBox="0 0 100 100" fill="none" xmlns="http://www.w3.org/2000/svg">
<g clip-path="url(#clip0_15980_17686)">
<path d="M26.6739 90.3706C24.8019 89.1064 23.0247 87.7054 21.3526 86.1778C23.0247 87.6948 24.8019 89.0959 26.6739 90.3706Z" fill="#024731"/>
<path d="M20.2485 15.3916C28.6931 7.66971 39.8615 2.90804 52.1131 2.69735C50.4094 2.50772 48.6848 2.40234 46.939 2.40234C34.9504 2.40234 24.0239 6.90064 15.7265 14.3065L20.259 15.3916H20.2485Z" fill="#024731"/>
<path d="M15.1903 20.7765C16.0842 19.6598 17.0412 18.5958 18.0297 17.5634L13.4445 16.4678C12.4455 17.4897 11.4885 18.5431 10.5841 19.6492L15.1903 20.7765Z" fill="#024731"/>
<path d="M4.37928 51.3261C4.37928 42.1925 6.91374 33.6384 11.2991 26.3273L6.67184 25.2001C2.4022 32.2899 -0.0585938 40.5912 -0.0585938 49.472C-0.0585938 67.5811 10.1633 83.2989 25.1281 91.1683C12.5926 82.3613 4.37928 67.7918 4.37928 51.3155V51.3261Z" fill="#024731"/>
<path d="M52.9438 4.25414C59.9057 4.25414 66.4995 5.78165 72.4412 8.51014C71.2949 24.1015 64.8168 39.3873 52.9438 51.3337C52.9018 34.4676 46.6972 19.0765 36.4963 7.23548C41.6178 5.31817 47.1598 4.26469 52.9438 4.26469V4.25414Z" fill="#11B67A"/>
<path d="M5.95674 51.3238C5.95674 44.3498 7.48165 37.7446 10.2054 31.7925C25.7696 32.9408 41.0288 39.4301 52.9544 51.3238C36.1177 51.3659 20.7533 57.5814 8.93288 67.8C7.01891 62.6697 5.96726 57.1179 5.96726 51.3238H5.95674Z" fill="#11B67A"/>
<path d="M52.9437 98.4024C45.9819 98.4024 39.3881 96.8748 33.4464 94.1464C34.5927 78.555 41.0707 63.2692 52.9437 51.3228C52.9858 68.1889 59.1904 83.58 69.3913 95.421C64.2699 97.3383 58.7277 98.3918 52.9437 98.3918V98.4024Z" fill="#11B67A"/>
<path d="M99.9414 51.3222C99.9414 58.2961 98.4166 64.9014 95.6928 70.8535C80.1286 69.7052 64.8693 63.2165 52.9437 51.3228C69.7804 51.2807 85.1449 45.0645 96.9653 34.8459C98.8793 39.9763 99.9309 45.5281 99.9309 51.3222H99.9414Z" fill="#11B67A"/>
<path d="M19.7227 18.0503C24.6444 13.1201 30.3863 9.52775 36.5068 7.24172C46.7077 19.0827 52.9018 34.4739 52.9439 51.3294C41.0078 39.4357 25.7591 32.9464 10.1844 31.7981C12.4559 26.8152 15.6214 22.1483 19.7227 18.0398V18.0503Z" fill="#6CF479"/>
<path d="M19.7227 84.6184C14.8011 79.6882 11.215 73.9362 8.93295 67.805C20.7533 57.5863 36.1177 51.3814 52.9439 51.3393C41.0709 63.2961 34.5929 78.5714 33.4466 94.1733C28.4723 91.8978 23.8136 88.7269 19.7122 84.6184H19.7227Z" fill="#6CF479"/>
<path d="M86.1758 84.6184C81.2541 89.5486 75.5122 93.1409 69.3916 95.4269C59.1908 83.5859 52.9966 68.1948 52.9546 51.3393C64.8906 63.2329 80.1394 69.7223 95.7141 70.8706C93.4426 75.8535 90.2772 80.5203 86.1758 84.6289V84.6184Z" fill="#6CF479"/>
<path d="M86.1758 18.0477C91.0974 22.9779 94.6835 28.7298 96.9656 34.861C85.1452 45.0797 69.7807 51.2846 52.9546 51.3267C64.8275 39.3699 71.3057 24.0946 72.4519 8.49271C77.4262 10.7682 82.0849 13.9392 86.1863 18.0477H86.1758Z" fill="#6CF479"/>
<path d="M48.4428 21.0662C40.24 20.3709 35.7285 16.3361 35.7285 16.3361C30.4177 18.3482 25.6013 21.8458 21.9521 26.7339C18.387 31.5061 16.41 36.9735 15.9262 42.4937C16.8832 39.4176 18.366 36.4468 20.3957 33.7184C26.8527 25.0799 37.8318 20.7501 48.4428 21.0556V21.0662Z" fill="white"/>
<path d="M63.4391 79.3648C71.3474 78.3851 76.4057 81.3138 76.4057 81.3138C81.0329 78.3535 84.9029 74.087 87.3848 68.7248C89.8141 63.4996 90.5923 57.9373 89.9613 52.6067C89.6669 55.7145 88.8571 58.8116 87.4689 61.8035C83.0731 71.2742 73.5453 77.5528 63.4391 79.3648Z" fill="white"/>
</g>
<defs>
<clipPath id="clip0_15980_17686">
<rect width="100" height="100" fill="white"/>
</clipPath>
</defs>
</svg>
