<svg width="100" height="100" viewBox="0 0 100 100" fill="none" xmlns="http://www.w3.org/2000/svg">
<rect width="100" height="100" fill="white"/>
<path d="M28.1842 66.3052L48.4004 77.5382L68.6167 66.3052L48.4004 55.0721L28.1842 66.3052Z" fill="#11B67A"/>
<path d="M28.1842 66.3061V88.7722L48.4004 100V77.5392L28.1842 66.3061Z" fill="#6CF479"/>
<path d="M48.4004 77.5392V100L68.6167 88.7722V66.3061L48.4004 77.5392Z" fill="#221F1F"/>
<path d="M39.1427 0L25.619 38.3077L64.073 32.0778L39.1427 0Z" fill="#6CF479"/>
<path d="M36.9938 9.13744C34.0074 18.733 31.0211 28.3233 28.0402 37.9189C29.1814 37.3855 30.3226 36.8521 31.4637 36.3187C33.3089 27.2565 35.1486 18.1997 36.9938 9.13744Z" fill="white"/>
<path d="M39.1427 0C44.0861 11.0357 49.0242 22.0715 53.9676 33.1072C57.3379 32.7658 60.7028 32.4191 64.073 32.0778C55.7647 21.3834 47.4564 10.6944 39.1427 0Z" fill="#11B67A"/>
<path d="M45.3823 38.4921C56.1683 36.7447 64.6746 33.862 64.3818 32.0533C64.0889 30.2446 55.1076 30.1948 44.3216 31.9421C33.5356 33.6894 25.0293 36.5722 25.3222 38.3809C25.6151 40.1896 34.5963 40.2394 45.3823 38.4921Z" fill="#221F1F"/>
<path d="M48.4004 67.8791C55.3598 67.8791 61.0015 64.7221 61.0015 60.8277C61.0015 56.9334 55.3598 53.7764 48.4004 53.7764C41.441 53.7764 35.7992 56.9334 35.7992 60.8277C35.7992 64.7221 41.441 67.8791 48.4004 67.8791Z" fill="white"/>
<path d="M48.2242 65.7614C56.7622 65.7614 63.6837 58.8384 63.6837 50.2986C63.6837 41.7587 56.7622 34.8357 48.2242 34.8357C39.6862 34.8357 32.7647 41.7587 32.7647 50.2986C32.7647 58.8384 39.6862 65.7614 48.2242 65.7614Z" fill="#11B67A"/>
<path d="M42.241 38.324C37.6976 40.9963 34.9992 45.9408 35.2712 51.1199C35.6552 58.566 41.9584 62.2997 42.3957 62.5504C40.3159 60.1288 39.676 56.8752 40.7746 54.1122C41.8624 51.3813 44.2301 50.1812 44.8647 49.8878C44.6994 49.8558 41.0892 49.0291 39.9373 45.6207C39.0681 43.0391 39.9853 40.0949 42.2464 38.324H42.241Z" fill="white"/>
<path d="M47.563 65.7615C48.7148 65.5108 56.8898 63.5693 60.7934 55.7019C63.2891 50.6774 62.7078 45.9249 62.3932 44.1221C64.6009 49.3066 63.9023 55.2592 60.5481 59.681C55.802 65.9269 48.2722 65.7882 47.563 65.7615Z" fill="#006A4D"/>
<path d="M28.92 67.8785C28.936 71.4948 28.9573 75.1165 28.9733 78.7329C29.0693 78.2261 29.6985 75.2072 32.5515 73.495C34.418 72.3749 36.2631 72.3962 36.999 72.4496C34.306 70.9241 31.613 69.3986 28.92 67.8785Z" fill="white"/>
<path d="M20.4569 53.6535C20.4569 53.6535 21.7527 57.9579 27.0214 59.1473C27.0214 59.1473 23.0326 59.8354 22.9526 64.6305C22.9526 64.6305 21.5447 60.4755 16.5 59.1473C16.5 59.1473 20.7182 58.646 20.4569 53.6588V53.6535Z" fill="#6CF479"/>
<path d="M72.5146 28.5575C72.5146 28.5575 74.6851 35.7635 83.5 37.753C83.5 37.753 76.8235 38.9051 76.6901 46.9219C76.6901 46.9219 74.3384 39.9719 65.8914 37.7423C65.8914 37.7423 72.9466 36.9049 72.5093 28.5575H72.5146Z" fill="#6CF479"/>
<path d="M22.8779 1.8939C22.8779 1.8939 23.5285 4.04878 26.1629 4.64083C26.1629 4.64083 24.1684 4.98753 24.1258 7.38243C24.1258 7.38243 23.4219 5.30756 20.8995 4.64083C20.8995 4.64083 23.0059 4.39014 22.8779 1.8939Z" fill="#6CF479"/>
</svg>
