<svg width="100" height="100" viewBox="0 0 100 100" fill="none" xmlns="http://www.w3.org/2000/svg">
<rect width="100" height="100" fill="white"/>
<path d="M99.8364 82.2947L84.085 46.5873C83.7264 45.7715 82.8478 45.2067 82.0051 45.2067C81.8886 45.2067 81.781 45.2157 81.6645 45.2426L13.4142 59.6582C12.4729 59.8465 12.0515 60.7519 12.4639 61.6843L28.3857 97.6696C28.7443 98.4855 29.6319 99.0502 30.4746 99.0502C30.5911 99.0502 30.7165 99.0413 30.8331 99.0144L98.913 84.3119C99.8364 84.1236 100.249 83.2181 99.8454 82.2947H99.8364Z" fill="black"/>
<path d="M99.8364 81.1566L84.085 45.4492C83.7264 44.6334 82.8478 44.0686 82.0051 44.0686C81.8886 44.0686 81.781 44.0775 81.6645 44.1044L13.4142 58.5201C12.4729 58.7083 12.0515 59.6138 12.4639 60.5462L28.3857 96.5315C28.7443 97.3473 29.6319 97.9121 30.4746 97.9121C30.5911 97.9121 30.7165 97.9032 30.8331 97.8763L98.913 83.1737C99.8364 82.9855 100.249 82.08 99.8454 81.1566H99.8364Z" fill="#11B67A"/>
<path d="M66.6462 64.76L74.0513 45.7005L13.4212 58.5024C12.4799 58.6907 12.0585 59.5962 12.4709 60.5285L13.4123 62.6622L64.1539 66.1944C65.1938 66.2661 66.3055 65.6206 66.6462 64.751V64.76Z" fill="#006A4D"/>
<path d="M67.8225 62.7413L5.28298 50.4234C4.26097 50.2262 3.79488 49.2311 4.2521 48.218L21.5544 9.10389C22.0026 8.09085 23.1951 7.43642 24.2081 7.64262L86.5593 20.2653C87.5634 20.4715 88.0117 21.4486 87.5724 22.4527L70.4493 61.271C70.0011 62.2751 68.8266 62.9385 67.8225 62.7413Z" fill="#6CF479"/>
<path d="M58.691 37.4953L56.145 32.8873L53.6975 33.1742C53.6975 32.2418 53.4106 31.3812 52.9086 30.7985C51.528 29.1848 52.8548 28.2255 52.8548 28.2255L53.9934 29.2475C53.9934 29.2475 53.8947 29.642 54.4954 29.7944C55.2664 29.9916 56.0732 29.2386 55.9387 28.7365L55.1947 26.2443C55.9119 25.4823 54.8541 25.1057 55.132 24.783C55.5713 24.2809 55.4098 23.7251 55.4098 23.7251L54.8271 24.263C55.1229 23.8506 54.7823 23.4562 54.7823 23.4562C54.7823 23.4562 53.9485 24.6216 53.3748 24.523C53.3748 24.523 53.339 24.523 53.33 24.514C53.33 24.514 53.321 24.514 53.3031 24.514C52.9714 24.3796 53.1148 23.8148 53.2851 23.7072C52.2452 23.6444 52.3439 24.3078 51.537 24.4602C50.8109 24.5947 50.6673 24.0478 50.6673 24.0478C49.7888 24.8009 50.0488 25.4285 50.0488 25.4285C50.0488 25.4285 49.4481 24.6933 47.9868 25.6346C48.6951 26.7284 47.9599 27.3918 47.5386 26.8091C47.5386 26.8091 46.6422 28.3152 48.0676 28.6917C47.5566 28.5841 46.4897 29.3013 46.4359 30.404C46.4359 30.404 47.189 29.9647 47.2787 30.673C47.2787 30.673 46.1401 31.5157 46.7139 32.1791C47.3235 31.8743 48.9282 32.3763 45.7008 33.3893C44.8043 33.6224 43.6837 33.6942 42.1955 33.3893C40.9673 33.1473 39.766 33.228 38.7709 33.5955C38.6185 30.5833 33.8939 30.8523 32.6568 33.6583C31.6258 35.9892 33.2575 36.0609 32.8182 37.047C32.5134 37.7463 31.7065 37.5491 31.7065 37.5491C31.7065 37.5491 31.9395 38.4456 32.7284 38.598C33.8401 38.8221 34.6291 37.9973 34.8443 37.5043C35.3822 36.285 34.3153 36.2133 35.0146 34.6355C35.1401 35.3975 35.8573 35.1196 35.8573 35.1196C35.5346 34.3217 36.8345 33.3355 37.5068 34.2948C36.6103 35.021 36.0993 36.0878 36.2697 37.4056C36.5117 39.2614 34.0464 40.1758 34.0464 40.1758C34.0464 40.1758 34.3153 42.5784 33.3202 45.3934L33.6967 45.8237L33.4367 46.4423L35.5077 46.8547L35.2118 45.8596C34.2704 44.7928 35.0414 42.5874 35.3283 41.6102C35.6062 40.6779 37.5158 40.6061 37.9371 40.131C37.9371 40.131 37.1751 41.3144 36.5386 41.924C37.3902 43.466 37.9013 44.9362 38.0357 46.3078L38.4033 46.7561L38.1433 47.3747L40.1245 47.7691L39.7928 46.783C38.9412 45.6893 38.5916 43.6363 38.4033 42.5695C38.1882 41.3054 40.8418 40.7675 41.9534 38.8849C46.66 39.2614 49.0985 38.6697 50.6853 37.9884C50.9722 37.8628 51.2321 37.7373 51.4742 37.6118C55.2843 35.8547 55.0334 36.9574 52.4335 39.9517L52.3438 40.4537L51.7252 40.3372L50.9363 42.166L52.4693 41.5654L53.3748 40.5703L56.1539 36.1416C55.5712 35.4333 54.1368 35.2899 53.2762 35.272C53.832 34.9582 54.343 34.6803 54.7105 34.5279C55.2395 34.3038 55.4816 34.4024 55.8043 34.7341C56.8622 35.8188 57.0056 37.1367 57.0056 37.1367L57.4449 37.3967L57.1491 38.1408L59.0048 38.5083L58.709 37.4953H58.691Z" fill="black"/>
<path d="M43.97 35.5692C43.97 35.5064 43.97 35.4257 43.9073 35.354C43.9521 35.4257 43.97 35.4974 43.97 35.5692Z" fill="#6CF479"/>
<path d="M27.7853 29.9126L23.5987 29.0789C22.7828 28.9175 22.4152 28.1286 22.7738 27.3128L23.9393 24.6771C24.2979 23.8702 25.2482 23.3413 26.064 23.5027L30.2417 24.3454C31.0575 24.5067 31.425 25.2957 31.0664 26.1115L29.901 28.7472C29.5424 29.554 28.5922 30.0829 27.7764 29.9216L27.7853 29.9126Z" fill="#11B67A"/>
<path d="M65.0472 1C65.0472 1 66.5802 6.0652 72.775 7.4727C72.775 7.4727 68.0773 8.27954 67.9877 13.9275C67.9877 13.9275 66.3292 9.04157 60.3944 7.4727C60.3944 7.4727 65.3609 6.88101 65.0561 1.00896L65.0472 1Z" fill="#C7FFC6"/>
<path d="M3.80113 58.5193C3.80113 58.5193 5.04718 62.6522 10.1034 63.7907C10.1034 63.7907 6.27539 64.4541 6.19471 69.0531C6.19471 69.0531 4.85004 65.0637 0 63.7907C0 63.7907 4.05215 63.3066 3.80113 58.5193Z" fill="#C7FFC6"/>
<path d="M25.6882 90.4253L97.1211 74.9966L93.7772 67.4212L22.3354 82.8499L25.6882 90.4253Z" fill="black"/>
<path d="M43.7489 62.1053C43.7489 62.1053 46.1157 69.9586 55.7261 72.1281C55.7261 72.1281 48.4466 73.3832 48.3032 82.1241C48.3032 82.1241 45.7392 74.5487 36.5322 72.1192C36.5322 72.1192 44.2241 71.2047 43.7489 62.1053Z" fill="white"/>
</svg>
