<svg width="100" height="100" viewBox="0 0 100 100" fill="none" xmlns="http://www.w3.org/2000/svg">
<rect width="100" height="100" fill="white"/>
<path d="M59.4856 85.6523C59.0263 85.1115 58.7712 84.4277 58.7712 83.7236V74.3247H38.9018V83.7236C38.9018 84.4379 38.6569 85.1217 38.1875 85.6523L31.9419 92.9694C31.6664 93.296 31.5133 93.7144 31.5133 94.143V94.7553C31.5133 95.2554 31.9215 95.6636 32.4216 95.6636H65.2515C65.7515 95.6636 66.1597 95.2554 66.1597 94.7553V94.143C66.1597 93.7144 66.0066 93.296 65.7311 92.9694L59.4856 85.6523Z" fill="#11B67A"/>
<path d="M97.2344 8.11441H2.77579C1.24503 8.11441 0 9.35944 0 10.8902V70.1514C0 71.6821 1.24503 72.9271 2.77579 72.9271H97.2242C98.755 72.9271 100 71.6821 100 70.1514V10.9004C100 9.36964 98.755 8.12462 97.2242 8.12462L97.2344 8.11441Z" fill="#11B67A"/>
<path d="M57.1485 85.3372L63.5879 92.6542H40.4835C40.4835 92.6542 56.679 91.8786 57.1383 85.3372H57.1485Z" fill="white"/>
<path d="M2.7761 6.73741H97.2347C97.6735 6.73741 98.1022 6.81905 98.5002 6.96192C98.4185 5.59444 97.2755 4.5127 95.8979 4.5127H4.11298C2.72508 4.5127 1.59231 5.59444 1.51067 6.96192C1.91887 6.82926 2.33728 6.73741 2.7761 6.73741Z" fill="black"/>
<path d="M4.58216 12.6853V68.3644H95.4384V12.6853H4.58216Z" fill="black"/>
<path d="M92.6016 42.6081H8.10322V65.2941H92.6016V42.6081Z" fill="#6CF479"/>
<path d="M89.8965 51.5676L80.865 47.404L67.0064 59.8032L58.4443 54.8129L45.5859 56.9559L42.7488 49.8634L33.2581 46.71L24.6143 55.3537L18.8586 51.0472L10.3068 56.3232V57.9458L18.777 52.7208L24.7266 57.1805L33.6255 48.2816L41.6977 50.9655L44.7082 58.5071L58.179 56.262L67.1697 61.5074L81.0997 49.047L89.8761 53.0984V51.5676H89.8965Z" fill="#01482F"/>
<path d="M19.1034 21.0068L33.1967 33.5859L41.7588 28.5956L54.6173 30.7387L57.4543 23.6462L66.945 20.4928L75.5888 29.1365L81.3445 24.8299L89.8964 30.106V31.7286L81.4261 26.5036L75.4765 30.9632L66.5777 22.0644L58.5054 24.7483L55.4949 32.2899L42.0241 30.0448L33.0334 35.2902L19.1034 22.8297V21.0068Z" fill="#6CF479"/>
<path d="M38.9126 74.3247V83.7236C38.9126 84.142 38.8105 84.5604 38.637 84.9482H45.3112C46.9746 84.9482 48.5156 84.0297 49.2912 82.55L50.6995 79.9171C51.0668 79.2231 51.7914 78.7945 52.5874 78.7945H58.7921V74.3349H38.9228L38.9126 74.3247Z" fill="black"/>
<path d="M8.23571 16.0842H22.0024C22.0024 16.0842 12.2055 20.8398 8.23571 39.6988V16.0842Z" fill="white"/>
</svg>
