<svg width="100" height="100" viewBox="0 0 100 100" fill="none" xmlns="http://www.w3.org/2000/svg">
<path d="M0.209753 62.7721C0.209753 62.7721 -1.04534 66.8367 2.58478 69.8103C6.2149 72.7742 28.3046 88.2698 47.4303 80.691C61.217 75.2265 75.612 69.3372 87.0333 59.6247C87.4292 59.2868 87.8153 58.9489 88.2015 58.6013C93.6757 53.6871 100.772 45.9249 99.9318 37.9502C99.787 36.5406 99.3333 35.189 98.5995 33.9725C98.5609 33.9049 98.5223 33.847 98.4837 33.7794L77.4367 38.8094L41.1644 68.2655L13.0503 71.2971L0.209753 62.7721Z" fill="#024731"/>
<path d="M0.210436 59.4698C0.210436 59.4698 -1.16051 65.4073 3.24197 68.4872C7.6348 71.567 28.2956 86.7343 43.685 74.8592C59.0744 62.9937 85.1224 30.9019 99.9518 39.2531C99.9518 39.2531 100.657 33.721 92.8847 27.3104L62.801 42.0047L18.5058 66.4018L0.210436 59.4698Z" fill="#17B47A"/>
<path d="M1.12829 55.4344C0.249722 57.4715 -0.0399153 59.7307 0.442813 61.8933C0.800033 63.5056 1.59171 65.2338 3.24264 66.4116C7.20101 69.2597 29.0686 78.4026 36.8695 71.3065C44.6704 64.2104 81.493 24.0956 96.11 30.4677C96.11 30.4677 83.4721 14.3156 54.2381 17.714C26.5102 20.9483 7.08516 41.6863 1.12829 55.4344Z" fill="#6BF278"/>
<path d="M13.0404 72.6587C12.6446 72.6587 12.297 72.3691 12.2487 71.9636C12.1522 71.2588 10.395 54.315 57.4032 20.9005C57.77 20.6399 58.2721 20.7268 58.5231 21.0936C58.7838 21.4605 58.6969 21.9625 58.33 22.2136C12.3935 54.875 13.8224 71.587 13.8417 71.7512C13.89 72.1953 13.581 72.5911 13.1466 72.649C13.108 72.649 13.079 72.649 13.0404 72.649V72.6587Z" fill="#17B47A"/>
<path d="M32.7758 36.5011L23.1116 46.175C22.3392 46.9473 21.7406 47.8935 21.451 48.9458C21.0841 50.2685 21.2676 51.7746 23.0054 52.6822C26.2976 54.391 31.5111 50.5968 34.8805 47.1308C38.25 43.6648 44.4578 37.5148 40.4512 34.8791C37.13 32.6972 32.7661 36.5108 32.7661 36.5108L32.7758 36.5011Z" fill="#17B47A"/>
<path d="M32.1945 37.8236L24.6446 45.4797C24.0364 46.0976 23.573 46.841 23.3413 47.6713C23.0613 48.7237 23.1965 49.9112 24.5577 50.6256C27.1355 51.9772 31.2097 48.9747 33.8454 46.2328C36.4811 43.4812 41.3374 38.625 38.1997 36.5299C35.6026 34.8018 32.1945 37.8236 32.1945 37.8236Z" fill="black"/>
<path d="M23.2263 32.4671C23.2263 32.4671 -4.16374 55.6767 4.70881 64.4527C4.70881 64.4527 2.66204 57.82 7.82723 57.5304C7.82723 57.5304 4.29366 54.1127 23.2166 32.4671H23.2263Z" fill="white"/>
<path d="M32.193 37.8236L24.6432 45.4797C24.0349 46.0976 23.5715 46.841 23.3398 47.6713C23.0598 48.7237 23.195 49.9112 24.5563 50.6256C27.1341 51.9772 31.2083 48.9747 33.844 46.2328C36.4797 43.4812 41.3359 38.625 38.1982 36.5299C35.6011 34.8018 32.193 37.8236 32.193 37.8236Z" fill="black"/>
<path d="M24.913 51.1861C24.913 51.1861 25.753 37.4187 39.4624 36.9939C39.4624 36.9939 40.2638 39.369 38.217 41.966C36.1702 44.5728 31.8257 49.7959 28.4562 50.9641C28.4562 50.9641 26.7377 51.6303 24.913 51.1861Z" fill="white"/>
</svg>
