<svg width="100" height="100" viewBox="0 0 100 100" fill="none" xmlns="http://www.w3.org/2000/svg">
<g clip-path="url(#clip0_15980_17785)">
<path fill-rule="evenodd" clip-rule="evenodd" d="M24.0547 38.0344L32.2556 33.5553C32.775 33.2632 33.3592 33.2632 33.8677 33.5553L41.982 37.8613C42.5014 38.1535 37.5462 35.7624 33.2943 35.6542C29.3237 35.546 23.5354 38.3374 24.0439 38.0453L24.0547 38.0344Z" fill="white"/>
<path fill-rule="evenodd" clip-rule="evenodd" d="M36.2025 14.2972L48.4065 21.3513C48.9258 21.6434 49.2179 22.1628 49.2179 22.747V36.8551C49.2179 37.4394 48.9258 37.9587 48.4065 38.2508C47.8872 38.5429 47.303 38.5429 46.7945 38.2508L34.5905 31.1967C34.0711 30.9046 33.779 30.3853 33.779 29.8011V15.6929C33.779 15.1087 34.0711 14.5894 34.5905 14.2972C35.1098 14.0051 35.694 14.0051 36.2025 14.2972Z" fill="#006A4D"/>
<path fill-rule="evenodd" clip-rule="evenodd" d="M51.4913 21.3622L63.7061 14.3082C64.2254 14.016 64.8096 14.016 65.3181 14.3082C65.8375 14.6003 66.1296 15.1196 66.1296 15.7038V29.812C66.1296 30.3962 65.8375 30.9155 65.3181 31.2077L53.1033 38.2617C52.584 38.5539 51.9998 38.5539 51.4913 38.2617C50.972 37.9696 50.6798 37.4503 50.6798 36.8661V22.7579C50.6798 22.1737 50.972 21.6544 51.4913 21.3622Z" fill="#11B67A"/>
<path fill-rule="evenodd" clip-rule="evenodd" d="M36.9174 10.284L49.1322 3.21909C49.6515 2.92697 50.2358 2.92697 50.7443 3.21909L62.9591 10.2732C63.4784 10.5653 63.7705 11.0846 63.7705 11.6797C63.7705 12.2639 63.4784 12.7832 62.9591 13.0753L50.7443 20.1294C50.2249 20.4215 49.6407 20.4215 49.1322 20.1294L36.9174 13.0753C36.3981 12.7832 36.106 12.2639 36.106 11.6797C36.106 11.0738 36.3981 10.5653 36.9174 10.2732V10.284Z" fill="#6CF479"/>
<path fill-rule="evenodd" clip-rule="evenodd" d="M40.9744 9.11563L49.1753 4.63651C49.6946 4.34439 50.2789 4.34439 50.7874 4.63651L58.9017 8.94252C59.421 9.23464 54.4659 6.84361 50.214 6.73542C46.2433 6.62723 40.4551 9.41856 40.9636 9.12645L40.9744 9.11563Z" fill="white"/>
<path fill-rule="evenodd" clip-rule="evenodd" d="M64.9825 16.5699L64.6795 28.4277C64.6795 29.1851 64.3009 29.8234 63.6517 30.2021L53.763 36.369C53.1139 36.7476 58.8805 32.8311 61.7151 28.233C64.355 23.9378 64.9825 15.8018 64.9825 16.5591V16.5699Z" fill="#035D3E"/>
<path fill-rule="evenodd" clip-rule="evenodd" d="M19.2838 43.2707L21.8371 44.7529L31.477 50.3248C31.9963 50.6169 32.2884 51.1362 32.2884 51.7204V65.8286C32.2884 66.4128 31.9963 66.9321 31.477 67.2243C30.9577 67.5164 30.3734 67.5164 29.8649 67.2243L17.661 60.1702C17.1416 59.8781 16.8495 59.3587 16.8495 58.7745V44.6772C16.8495 44.0713 17.1416 43.5628 17.661 43.2707C18.1803 42.9786 18.7645 42.9786 19.273 43.2707H19.2838Z" fill="#006A4D"/>
<path fill-rule="evenodd" clip-rule="evenodd" d="M34.5694 50.3248L46.7842 43.2707C47.3035 42.9786 47.8878 42.9786 48.3963 43.2707C48.9156 43.5628 49.2077 44.0821 49.2077 44.6772V58.7745C49.2077 59.3587 48.9156 59.8781 48.3963 60.1702L36.1815 67.2243C35.6622 67.5164 35.0779 67.5164 34.5694 67.2243C34.0609 66.9321 33.758 66.4128 33.758 65.8286V51.7204C33.758 51.1362 34.0501 50.6169 34.5694 50.3248Z" fill="#11B67A"/>
<path fill-rule="evenodd" clip-rule="evenodd" d="M20.0081 39.2029L32.2229 32.1488C32.7422 31.8567 33.3265 31.8567 33.835 32.1488L46.0498 39.2029C46.5691 39.495 46.8612 40.0143 46.8612 40.6094C46.8612 41.2044 46.5691 41.7129 46.0498 42.0051L33.835 49.0591C33.3156 49.3513 32.7314 49.3513 32.2229 49.0591L20.0081 42.0051C19.4888 41.7129 19.1967 41.1936 19.1967 40.6094C19.1967 40.0252 19.4888 39.495 20.0081 39.2029Z" fill="#6CF479"/>
<path fill-rule="evenodd" clip-rule="evenodd" d="M48.5488 45.8778L48.2459 57.7356C48.2459 58.4929 47.8672 59.1313 47.2181 59.5099L37.3294 65.6768C36.6803 66.0555 42.4468 62.139 45.2815 57.5408C47.9213 53.2456 48.5488 45.1097 48.5488 45.867V45.8778Z" fill="#035D3E"/>
<path fill-rule="evenodd" clip-rule="evenodd" d="M2.36099 72.2234L4.9143 73.7056L14.5542 79.2775C15.0735 79.5696 15.3656 80.0889 15.3656 80.6731V94.7813C15.3656 95.3655 15.0735 95.8848 14.5542 96.177C14.0348 96.4691 13.4506 96.4691 12.9421 96.177L0.738116 89.1229C0.229617 88.8308 -0.0625 88.3114 -0.0625 87.7272V73.6299C-0.0625 73.024 0.229617 72.5155 0.748935 72.2234C1.26825 71.9313 1.85249 71.9313 2.36099 72.2234Z" fill="#006A4D"/>
<path fill-rule="evenodd" clip-rule="evenodd" d="M17.6476 79.2775L29.8624 72.2234C30.3817 71.9313 30.9659 71.9313 31.4744 72.2234C31.9937 72.5155 32.2859 73.0348 32.2859 73.6299V87.7272C32.2859 88.3114 31.9937 88.8308 31.4744 89.1229L19.2596 96.177C18.7403 96.4691 18.1561 96.4691 17.6476 96.177C17.1391 95.8848 16.8361 95.3655 16.8361 94.7813V80.6731C16.8361 80.0889 17.1283 79.5696 17.6476 79.2775Z" fill="#11B67A"/>
<path fill-rule="evenodd" clip-rule="evenodd" d="M3.08571 68.1436L15.3005 61.0895C15.8198 60.7974 16.4041 60.7974 16.9126 61.0895L29.1274 68.1436C29.6467 68.4357 29.9388 68.955 29.9388 69.5501C29.9388 70.1343 29.6467 70.6536 29.1274 70.9457L16.9126 77.9998C16.3932 78.2919 15.809 78.2919 15.3005 77.9998L3.08571 70.9457C2.56639 70.6536 2.27427 70.1343 2.27427 69.5501C2.27427 68.9658 2.56639 68.4357 3.08571 68.1436Z" fill="#6CF479"/>
<path fill-rule="evenodd" clip-rule="evenodd" d="M7.14271 66.986L15.3436 62.5069C15.8629 62.2148 16.4472 62.2148 16.9557 62.5069L25.07 66.8129C25.5893 67.1051 20.6342 64.714 16.3823 64.6058C12.4116 64.4976 6.6234 67.289 7.1319 66.9969L7.14271 66.986Z" fill="white"/>
<path fill-rule="evenodd" clip-rule="evenodd" d="M31.6264 74.8196L31.3235 86.6773C31.3235 87.4347 30.9448 88.073 30.2957 88.4517L20.407 94.6186C19.7579 94.9973 25.5244 91.0807 28.3591 86.4826C30.9989 82.1874 31.6264 74.0514 31.6264 74.8088V74.8196Z" fill="#035D3E"/>
<path fill-rule="evenodd" clip-rule="evenodd" d="M53.1153 43.2171L65.3193 50.2711C65.8386 50.5633 66.1307 51.0826 66.1307 51.6668V65.775C66.1307 66.3592 65.8386 66.8785 65.3193 67.1706C64.8 67.4628 64.2158 67.4628 63.7073 67.1706L51.5033 60.1166C50.984 59.8244 50.6918 59.3051 50.6918 58.7209V44.6127C50.6918 44.0285 50.984 43.5092 51.5033 43.2171C52.0226 42.9249 52.6068 42.9249 53.1153 43.2171Z" fill="#006A4D"/>
<path fill-rule="evenodd" clip-rule="evenodd" d="M68.4019 50.282L80.6168 43.2279C81.1361 42.9358 81.7203 42.9358 82.2288 43.2279C82.7481 43.52 83.0402 44.0393 83.0402 44.6236V58.7317C83.0402 59.316 82.7481 59.8353 82.2288 60.1274L70.014 67.1815C69.4947 67.4736 68.9104 67.4736 68.4019 67.1815C67.8826 66.8894 67.5905 66.37 67.5905 65.7858V51.6777C67.5905 51.0934 67.8826 50.5741 68.4019 50.282Z" fill="#11B67A"/>
<path fill-rule="evenodd" clip-rule="evenodd" d="M53.84 39.2032L66.0548 32.1491C66.5742 31.857 67.1584 31.857 67.6669 32.1491L79.8817 39.2032C80.401 39.4953 80.6931 40.0146 80.6931 40.6097C80.6931 41.2047 80.401 41.7132 79.8817 42.0053L67.6669 49.0594C67.1476 49.3515 66.5633 49.3515 66.0548 49.0594L53.84 42.0053C53.3207 41.7132 53.0286 41.1939 53.0286 40.6097C53.0286 40.0038 53.3207 39.4953 53.84 39.2032Z" fill="#6CF479"/>
<path fill-rule="evenodd" clip-rule="evenodd" d="M57.887 38.0344L66.0879 33.5553C66.6072 33.2632 67.1914 33.2632 67.6999 33.5553L75.8143 37.8613C76.3336 38.1535 71.3784 35.7624 67.1265 35.6542C63.1559 35.546 57.3677 38.3374 57.8762 38.0453L57.887 38.0344Z" fill="white"/>
<path fill-rule="evenodd" clip-rule="evenodd" d="M24.0679 38.0344L32.2688 33.5553C32.7881 33.2632 33.3723 33.2632 33.8808 33.5553L41.9952 37.8613C42.5145 38.1535 37.5593 35.7624 33.3074 35.6542C29.3368 35.546 23.5485 38.3374 24.057 38.0453L24.0679 38.0344Z" fill="white"/>
<path fill-rule="evenodd" clip-rule="evenodd" d="M81.8953 45.489L81.5923 57.3468C81.5923 58.1041 81.2137 58.7425 80.5645 59.1211L70.6758 65.288C70.0267 65.6667 75.7933 61.7502 78.6279 57.1521C81.2678 52.8569 81.8953 44.7209 81.8953 45.4782V45.489Z" fill="#035D3E"/>
<path fill-rule="evenodd" clip-rule="evenodd" d="M36.1935 72.1909L38.7469 73.6731L48.3867 79.2449C48.906 79.5371 49.1981 80.0564 49.1981 80.6406V94.7488C49.1981 95.333 48.906 95.8523 48.3867 96.1444C47.8674 96.4365 47.2832 96.4365 46.7747 96.1444L34.5707 89.0904C34.0513 88.7982 33.7592 88.2789 33.7592 87.6947V73.5974C33.7592 72.9915 34.0513 72.483 34.5707 72.1909C35.09 71.8988 35.6742 71.8988 36.1827 72.1909H36.1935Z" fill="#006A4D"/>
<path fill-rule="evenodd" clip-rule="evenodd" d="M51.4821 79.2449L63.6969 72.1909C64.2162 71.8988 64.8005 71.8988 65.309 72.1909C65.8283 72.483 66.1204 73.0023 66.1204 73.5974V87.6947C66.1204 88.2789 65.8283 88.7982 65.309 89.0904L53.0942 96.1444C52.5748 96.4365 51.9906 96.4365 51.4821 96.1444C50.9736 95.8523 50.6707 95.333 50.6707 94.7488V80.6406C50.6707 80.0564 50.9628 79.5371 51.4821 79.2449Z" fill="#11B67A"/>
<path fill-rule="evenodd" clip-rule="evenodd" d="M36.9181 68.1228L49.1329 61.0687C49.6522 60.7766 50.2365 60.7766 50.7449 61.0687L62.9598 68.1228C63.4791 68.4149 63.7712 68.9342 63.7712 69.5293C63.7712 70.1135 63.4791 70.6328 62.9598 70.9249L50.7449 77.979C50.2256 78.2711 49.6414 78.2711 49.1329 77.979L36.9181 70.9249C36.3988 70.6328 36.1067 70.1135 36.1067 69.5293C36.1067 68.9234 36.3988 68.4149 36.9181 68.1228Z" fill="#6CF479"/>
<path fill-rule="evenodd" clip-rule="evenodd" d="M65.4587 74.7977L65.1557 86.6555C65.1557 87.4128 64.7771 88.0512 64.1279 88.4298L54.2392 94.5967C53.5901 94.9754 59.3567 91.0589 62.1913 86.4608C64.8312 82.1656 65.4587 74.0296 65.4587 74.7869V74.7977Z" fill="#035D3E"/>
<path fill-rule="evenodd" clip-rule="evenodd" d="M70.0126 72.1797L82.2166 79.2338C82.7359 79.5259 83.028 80.0452 83.028 80.6294V94.7376C83.028 95.3218 82.7359 95.8411 82.2166 96.1333C81.6973 96.4254 81.1131 96.4254 80.6046 96.1333L68.4006 89.0792C67.8812 88.787 67.5891 88.2677 67.5891 87.6835V73.5753C67.5891 72.9911 67.8812 72.4718 68.4006 72.1797C68.9199 71.8876 69.5041 71.8876 70.0126 72.1797Z" fill="#006A4D"/>
<path fill-rule="evenodd" clip-rule="evenodd" d="M85.2992 79.2447L97.514 72.1906C98.0333 71.8985 98.6176 71.8985 99.1261 72.1906C99.6454 72.4827 99.9375 73.002 99.9375 73.5863V87.6944C99.9375 88.2787 99.6454 88.798 99.1261 89.0901L86.9112 96.1442C86.3919 96.4363 85.8077 96.4363 85.2992 96.1442C84.7799 95.8521 84.4878 95.3327 84.4878 94.7485V80.6404C84.4878 80.0561 84.7799 79.5368 85.2992 79.2447Z" fill="#11B67A"/>
<path fill-rule="evenodd" clip-rule="evenodd" d="M70.7373 68.1654L82.9521 61.1114C83.4715 60.8192 84.0557 60.8192 84.5642 61.1114L96.779 68.1654C97.2983 68.4576 97.5904 68.9769 97.5904 69.5719C97.5904 70.167 97.2983 70.6755 96.779 70.9676L84.5642 78.0217C84.0449 78.3138 83.4606 78.3138 82.9521 78.0217L70.7373 70.9676C70.218 70.6755 69.9259 70.1562 69.9259 69.5719C69.9259 68.966 70.218 68.4576 70.7373 68.1654Z" fill="#6CF479"/>
<path fill-rule="evenodd" clip-rule="evenodd" d="M74.7943 66.997L82.9953 62.5178C83.5146 62.2257 84.0988 62.2257 84.6073 62.5178L92.7217 66.8239C93.241 67.116 88.2858 64.725 84.0339 64.6168C80.0633 64.5086 74.275 67.2999 74.7835 67.0078L74.7943 66.997Z" fill="white"/>
<path fill-rule="evenodd" clip-rule="evenodd" d="M98.8024 74.4513L98.4995 86.3091C98.4995 87.0664 98.1208 87.7047 97.4717 88.0834L87.583 94.2503C86.9338 94.629 92.7004 90.7125 95.535 86.1143C98.1749 81.8191 98.8024 73.6831 98.8024 74.4405V74.4513Z" fill="#035D3E"/>
<path fill-rule="evenodd" clip-rule="evenodd" d="M40.9747 66.986L49.1756 62.5069C49.6949 62.2148 50.2791 62.2148 50.7876 62.5069L58.902 66.8129C59.4213 67.1051 54.4661 64.714 50.2142 64.6058C46.2436 64.4976 40.4554 67.289 40.9639 66.9969L40.9747 66.986Z" fill="white"/>
</g>
<defs>
<clipPath id="clip0_15980_17785">
<rect width="100" height="100" fill="white"/>
</clipPath>
</defs>
</svg>
