<svg width="100" height="100" viewBox="0 0 100 100" fill="none" xmlns="http://www.w3.org/2000/svg">
<path d="M76.9365 8.86218C76.9365 8.86218 79.5205 17.4536 90 19.8374C90 19.8374 82.0566 21.2133 81.8971 30.7806C81.8971 30.7806 79.0978 22.4932 69.0489 19.8294C69.0489 19.8294 77.4469 18.8295 76.9285 8.86218H76.9365Z" fill="white"/>
<path d="M35.1699 21.4164C21.4364 21.4164 10.3029 24.8561 10.3029 29.1118C10.3029 33.3675 21.4364 36.8073 35.1699 36.8073C48.9033 36.8073 60.0368 33.3595 60.0368 29.1118C60.0368 24.8641 48.9033 21.4164 35.1699 21.4164Z" fill="#6CF479"/>
<path d="M30.6799 82.5765C42.1012 82.5765 51.3599 79.7113 51.3599 76.177C51.3599 72.6426 42.1012 69.7774 30.6799 69.7774C19.2587 69.7774 10 72.6426 10 76.177C10 79.7113 19.2587 82.5765 30.6799 82.5765Z" fill="black"/>
<path d="M35.17 35.0124C43.6318 35.0124 50.993 33.6845 54.7414 31.7326C52.4046 29.0608 44.541 27.1009 35.17 27.1009C25.799 27.1009 17.9434 29.0688 15.5986 31.7326C19.347 33.6845 26.7082 35.0124 35.17 35.0124Z" fill="#00482F"/>
<path d="M65.7474 31.3079C62.5653 31.0919 59.8696 32.6678 58.4102 33.7477C53.633 37.0035 44.1663 38.5314 35.1701 38.5314C25.52 38.5314 15.3196 36.7715 10.9571 33.0118C11.0369 41.5552 12.0019 61.4817 18.8766 76.8086H18.9005C20.049 79.2725 26.8838 81.1683 35.1622 81.1683C43.4405 81.1683 50.5625 79.2005 51.4956 76.6646C52.8992 73.5369 54.0477 70.2171 54.9967 66.8493C55.4194 65.3535 56.2489 64.0096 57.4452 63.0256C59.2077 61.5937 61.2892 59.7299 63.299 57.554C68.2038 52.2344 70.5007 47.3068 71.3301 43.0511C72.6859 36.1076 70.5087 31.6279 65.7235 31.3079H65.7474ZM64.7505 50.9625C62.6929 54.0183 60.3561 56.5141 58.3783 58.354C57.8439 58.8499 57.0065 58.378 57.1341 57.666C58.3623 51.0025 58.9365 44.6269 59.1997 39.5633C59.3114 37.3635 60.723 35.4436 62.7806 34.6917L62.8205 34.6757C66.6407 33.2758 68.2836 35.3956 68.7063 37.1795C69.0572 38.6354 69.4878 43.907 64.7425 50.9625H64.7505Z" fill="#6CF479"/>
<path d="M56.3444 37.625C56.3444 37.625 55.9855 54.9998 49.0071 74.6704C49.0071 74.6704 52.4923 60.9114 47.085 52.584C47.085 52.584 54.0634 49.4482 56.3523 37.617L56.3444 37.625Z" fill="white"/>
<path d="M33.8064 29.4299C33.8064 29.4299 28.3035 22.1984 36.6695 14.7349C41.8375 10.1353 46.9736 4.56767 45.6896 0C45.6896 0 52.5643 7.39947 43.7277 16.2628C38.6235 21.3825 34.6996 23.7023 33.8064 29.4299Z" fill="white"/>
<path d="M59.4964 76.42C59.86 76.2828 60.0687 75.9422 59.9626 75.6594C59.8565 75.3765 59.4757 75.2585 59.1121 75.3958C58.7485 75.533 58.5398 75.8736 58.6459 76.1564C58.752 76.4392 59.1328 76.5573 59.4964 76.42Z" fill="#00482F"/>
<path d="M58.6472 91.696C59.0108 91.5588 59.2195 91.2182 59.1134 90.9354C59.0073 90.6526 58.6265 90.5346 58.2629 90.6718C57.8993 90.8091 57.6905 91.1496 57.7967 91.4324C57.9028 91.7153 58.2836 91.8333 58.6472 91.696Z" fill="#00482F"/>
<path d="M60.7534 86.7603C61.117 86.6231 61.3257 86.2825 61.2196 85.9997C61.1135 85.7168 60.7327 85.5988 60.3691 85.7361C60.0055 85.8733 59.7968 86.2139 59.9029 86.4967C60.009 86.7795 60.3898 86.8976 60.7534 86.7603Z" fill="#00482F"/>
<path d="M62.8056 81.6878C63.1692 81.5506 63.378 81.21 63.2719 80.9272C63.1657 80.6444 62.785 80.5263 62.4213 80.6636C62.0577 80.8009 61.849 81.1414 61.9551 81.4242C62.0612 81.7071 62.442 81.8251 62.8056 81.6878Z" fill="#00482F"/>
<path d="M64.6402 77.3642C65.0038 77.2269 65.2125 76.8864 65.1064 76.6035C65.0003 76.3207 64.6195 76.2027 64.2559 76.34C63.8923 76.4772 63.6836 76.8177 63.7897 77.1006C63.8958 77.3834 64.2766 77.5014 64.6402 77.3642Z" fill="#00482F"/>
<path d="M70.2889 99.9923C79.8706 100.237 87.8564 94.6072 87.9029 88.3534C87.9477 82.0951 80.2173 76.8229 70.6401 76.5763C61.0585 76.3314 53.2543 81.2056 53.2079 87.4594C53.1631 93.7177 60.7117 99.7457 70.2934 99.9906L70.2889 99.9923Z" fill="#11B67A"/>
<path d="M78.2809 95.0487C75.8624 95.9617 73.1566 96.4087 70.4569 96.3405C61.8666 96.1214 54.6454 90.775 54.6914 84.6701C54.7207 80.946 57.6068 77.641 62.4125 75.827C64.9295 74.8769 67.8241 74.415 70.7876 74.4913C79.6114 74.7197 86.7578 79.6482 86.7164 85.4796C86.6874 89.3677 83.3777 93.1248 78.2809 95.0487Z" fill="#024731"/>
<path d="M70.7602 69.3609C67.4147 69.275 64.2884 69.814 61.628 70.8183C56.6746 72.6881 53.3562 76.1767 53.3296 80.2485C53.2849 86.5068 60.8335 92.5348 70.4152 92.7797C73.4879 92.8609 76.398 92.3317 78.933 91.3748C84.303 89.3478 87.9971 85.389 88.0275 81.1363C88.0722 74.878 80.3419 69.6058 70.7647 69.3592L70.7602 69.3609Z" fill="#11B67A"/>
<path d="M70.7982 85.4623C74.5985 85.5612 77.7677 83.3238 77.7838 80.8458C77.8028 78.3616 74.7383 76.272 70.9336 76.1748C67.1333 76.0759 64.0343 78.0098 64.0199 80.4923C64.0009 82.9765 66.9935 85.3651 70.7982 85.4623Z" fill="black"/>
<path d="M58.3676 87.2147C58.3676 87.2147 58.3502 84.3339 63.5928 83.5345C63.5928 83.5345 56.9604 81.7609 58.3676 87.2147Z" fill="#6CF479"/>
<path d="M56.2566 77.6807C56.2566 77.6807 58.1096 75.4786 62.6154 78.2755C62.6154 78.2755 59.6391 72.578 56.2566 77.6807Z" fill="#6CF479"/>
<path d="M64.141 71.1383C64.141 71.1383 66.7285 71.0027 67.6693 75.7043C67.6693 75.7043 68.9812 69.6344 64.141 71.1383Z" fill="#6CF479"/>
<path d="M75.602 70.3347C75.602 70.3347 77.0042 72.5184 73.4038 75.6776C73.4038 75.6776 79.3066 73.8032 75.602 70.3347Z" fill="#6CF479"/>
<path d="M83.3055 75.1058C83.3055 75.1058 83.0649 77.6942 78.2938 77.9515C78.2938 77.9515 84.0904 80.1277 83.3055 75.1058Z" fill="#6CF479"/>
<path d="M84.7526 83.6388C84.7526 83.6388 82.7197 85.2523 79.2399 81.9605C79.2399 81.9605 81.6746 87.6726 84.7526 83.6388Z" fill="#6CF479"/>
<path d="M77.7387 90.1368C77.7387 90.1368 74.8115 88.9852 75.1653 85.472C75.1653 85.472 72.398 90.3886 77.7387 90.1368Z" fill="#6CF479"/>
<path d="M67.3184 91.0062C67.3184 91.0062 65.7153 88.9958 68.8611 85.9056C68.8611 85.9056 63.3387 87.8671 67.3184 91.0062Z" fill="#6CF479"/>
<path d="M72.2208 77.2876C69.2947 76.6433 66.1166 77.8892 65.0338 79.6775C65.0338 79.6775 69.3228 76.6635 72.9951 80.4007C72.9951 80.4007 74.4966 78.8287 76.8505 80.1557C75.9908 78.7365 74.2354 77.7375 72.2225 77.2921L72.2208 77.2876Z" fill="white"/>
<path d="M86.3264 86.0159C84.7384 88.2565 82.1379 90.1561 78.9311 91.3666C76.3962 92.3235 73.4843 92.8483 70.4133 92.7715C63.6388 92.5953 57.8826 89.5319 55.1061 85.5387C54.604 84.841 54.1341 83.8747 54.1341 83.8747C54.1908 84.5302 54.4198 85.849 54.4198 85.849C55.2353 91.6338 62.2286 96.4816 70.4537 96.695C73.196 96.7676 75.95 96.3127 78.4133 95.3828C83.313 93.5333 86.6072 90.0076 87.0335 86.2516C87.1252 85.5965 87.0755 84.81 87.0755 84.81C86.8677 85.2372 86.3309 86.0143 86.3309 86.0143L86.3264 86.0159ZM78.1543 94.7062C75.8656 95.5701 73.2411 96.0428 70.4686 95.9714C63.1531 95.7839 57.1505 91.8597 55.5024 87.2353C58.7041 90.8219 64.2334 93.335 70.3923 93.4923C73.4225 93.5691 76.4609 93.0683 79.1839 92.0405C81.907 91.0126 84.3622 89.3934 86.0196 87.5421C85.0592 90.5561 82.109 93.2134 78.1543 94.7062Z" fill="#024731"/>
</svg>
