<svg width="100" height="100" viewBox="0 0 100 100" fill="none" xmlns="http://www.w3.org/2000/svg">
<rect width="100" height="100" fill="white"/>
<path d="M76.9365 8.86218C76.9365 8.86218 79.5205 17.4536 90 19.8374C90 19.8374 82.0566 21.2133 81.8971 30.7806C81.8971 30.7806 79.0978 22.4932 69.0489 19.8294C69.0489 19.8294 77.4469 18.8295 76.9285 8.86218H76.9365Z" fill="#006A4D"/>
<path d="M35.1699 21.4164C21.4364 21.4164 10.3029 24.8561 10.3029 29.1118C10.3029 33.3675 21.4364 36.8073 35.1699 36.8073C48.9033 36.8073 60.0368 33.3595 60.0368 29.1118C60.0368 24.8641 48.9033 21.4164 35.1699 21.4164Z" fill="#6CF479"/>
<path d="M30.6799 82.5765C42.1012 82.5765 51.3599 79.7113 51.3599 76.177C51.3599 72.6426 42.1012 69.7774 30.6799 69.7774C19.2587 69.7774 10 72.6426 10 76.177C10 79.7113 19.2587 82.5765 30.6799 82.5765Z" fill="black"/>
<path d="M35.17 35.0124C43.6318 35.0124 50.993 33.6845 54.7414 31.7326C52.4046 29.0608 44.541 27.1009 35.17 27.1009C25.799 27.1009 17.9434 29.0688 15.5986 31.7326C19.347 33.6845 26.7082 35.0124 35.17 35.0124Z" fill="black"/>
<path d="M65.7474 31.3079C62.5653 31.0919 59.8696 32.6678 58.4102 33.7477C53.633 37.0035 44.1663 38.5314 35.1701 38.5314C25.52 38.5314 15.3196 36.7715 10.9571 33.0118C11.0369 41.5552 12.0019 61.4817 18.8766 76.8086H18.9005C20.049 79.2725 26.8838 81.1683 35.1622 81.1683C43.4405 81.1683 50.5625 79.2005 51.4956 76.6646C52.8992 73.5369 54.0477 70.2171 54.9967 66.8493C55.4194 65.3535 56.2489 64.0096 57.4452 63.0256C59.2077 61.5937 61.2892 59.7299 63.299 57.554C68.2038 52.2344 70.5007 47.3068 71.3301 43.0511C72.6859 36.1076 70.5087 31.6279 65.7235 31.3079H65.7474ZM64.7505 50.9625C62.6929 54.0183 60.3561 56.5141 58.3783 58.354C57.8439 58.8499 57.0065 58.378 57.1341 57.666C58.3623 51.0025 58.9365 44.6269 59.1997 39.5633C59.3114 37.3635 60.723 35.4436 62.7806 34.6917L62.8205 34.6757C66.6407 33.2758 68.2836 35.3956 68.7063 37.1795C69.0572 38.6354 69.4878 43.907 64.7425 50.9625H64.7505Z" fill="#6CF479"/>
<path d="M56.3444 37.625C56.3444 37.625 55.9855 54.9998 49.0071 74.6704C49.0071 74.6704 52.4923 60.9114 47.085 52.584C47.085 52.584 54.0634 49.4482 56.3523 37.617L56.3444 37.625Z" fill="white"/>
<path d="M33.8064 29.4299C33.8064 29.4299 28.3035 22.1984 36.6695 14.7349C41.8375 10.1353 46.9736 4.56767 45.6896 0C45.6896 0 52.5643 7.39947 43.7277 16.2628C38.6235 21.3825 34.6996 23.7023 33.8064 29.4299Z" fill="#006A4D"/>
<path d="M59.497 76.407C59.8606 76.2697 60.0694 75.9292 59.9632 75.6463C59.8571 75.3635 59.4763 75.2455 59.1127 75.3828C58.7491 75.52 58.5404 75.8605 58.6465 76.1434C58.7526 76.4262 59.1334 76.5442 59.497 76.407Z" fill="black"/>
<path d="M58.6478 91.683C59.0114 91.5458 59.2201 91.2052 59.114 90.9224C59.0079 90.6395 58.6271 90.5215 58.2635 90.6588C57.8999 90.796 57.6912 91.1366 57.7973 91.4194C57.9034 91.7022 58.2842 91.8203 58.6478 91.683Z" fill="black"/>
<path d="M60.7542 86.7473C61.1178 86.61 61.3265 86.2695 61.2204 85.9866C61.1143 85.7038 60.7335 85.5858 60.3699 85.723C60.0063 85.8603 59.7976 86.2008 59.9037 86.4837C60.0098 86.7665 60.3906 86.8845 60.7542 86.7473Z" fill="black"/>
<path d="M62.8062 81.6748C63.1699 81.5376 63.3786 81.197 63.2725 80.9142C63.1664 80.6313 62.7856 80.5133 62.422 80.6506C62.0583 80.7878 61.8496 81.1284 61.9557 81.4112C62.0619 81.6941 62.4426 81.8121 62.8062 81.6748Z" fill="black"/>
<path d="M64.6408 77.3512C65.0044 77.2139 65.2132 76.8734 65.107 76.5905C65.0009 76.3077 64.6201 76.1897 64.2565 76.3269C63.8929 76.4642 63.6842 76.8047 63.7903 77.0876C63.8964 77.3704 64.2772 77.4884 64.6408 77.3512Z" fill="black"/>
<path d="M70.2889 99.9923C79.8706 100.237 87.8564 94.6072 87.9029 88.3534C87.9477 82.0951 80.2173 76.8229 70.6401 76.5763C61.0585 76.3314 53.2543 81.2056 53.2079 87.4594C53.1631 93.7177 60.7117 99.7457 70.2934 99.9906L70.2889 99.9923Z" fill="#11B67A"/>
<path d="M78.2809 95.0487C75.8624 95.9617 73.1566 96.4087 70.4569 96.3405C61.8666 96.1214 54.6454 90.775 54.6914 84.6701C54.7207 80.946 57.6068 77.641 62.4125 75.827C64.9295 74.8769 67.8241 74.415 70.7876 74.4913C79.6114 74.7197 86.7578 79.6482 86.7164 85.4796C86.6874 89.3677 83.3777 93.1248 78.2809 95.0487Z" fill="#006A4D"/>
<path d="M70.7602 69.3674C67.4147 69.2815 64.2884 69.8205 61.628 70.8248C56.6746 72.6946 53.3562 76.1832 53.3296 80.255C53.2849 86.5133 60.8335 92.5414 70.4152 92.7862C73.4879 92.8675 76.398 92.3382 78.933 91.3813C84.303 89.3543 87.9971 85.3955 88.0275 81.1428C88.0722 74.8845 80.3419 69.6123 70.7647 69.3657L70.7602 69.3674Z" fill="#11B67A"/>
<path d="M70.7982 85.4688C74.5985 85.5677 77.7677 83.3303 77.7838 80.8523C77.8028 78.3681 74.7383 76.2785 70.9336 76.1813C67.1333 76.0824 64.0343 78.0163 64.0199 80.4988C64.0009 82.9831 66.9935 85.3716 70.7982 85.4688Z" fill="black"/>
<path d="M58.368 87.1952C58.368 87.1952 58.3506 84.3143 63.5932 83.5149C63.5932 83.5149 56.9608 81.7414 58.368 87.1952Z" fill="#6CF479"/>
<path d="M56.2572 77.6612C56.2572 77.6612 58.1102 75.4591 62.616 78.2559C62.616 78.2559 59.6397 72.5585 56.2572 77.6612Z" fill="#6CF479"/>
<path d="M64.1414 71.1253C64.1414 71.1253 66.7289 70.9897 67.6697 75.6912C67.6697 75.6912 68.9816 69.6213 64.1414 71.1253Z" fill="#6CF479"/>
<path d="M75.6024 70.3217C75.6024 70.3217 77.0046 72.5053 73.4042 75.6645C73.4042 75.6645 79.307 73.7902 75.6024 70.3217Z" fill="#6CF479"/>
<path d="M83.3059 75.0862C83.3059 75.0862 83.0653 77.6746 78.2942 77.9319C78.2942 77.9319 84.0908 80.1082 83.3059 75.0862Z" fill="#6CF479"/>
<path d="M84.7532 83.6192C84.7532 83.6192 82.7203 85.2328 79.2405 81.9409C79.2405 81.9409 81.6752 87.6531 84.7532 83.6192Z" fill="#6CF479"/>
<path d="M77.7391 90.1238C77.7391 90.1238 74.8119 88.9722 75.1657 85.459C75.1657 85.459 72.3985 90.3755 77.7391 90.1238Z" fill="#6CF479"/>
<path d="M67.3188 90.9931C67.3188 90.9931 65.7157 88.9827 68.8615 85.8926C68.8615 85.8926 63.3391 87.8541 67.3188 90.9931Z" fill="#6CF479"/>
<path d="M72.2208 77.2941C69.2947 76.6499 66.1166 77.8957 65.0338 79.684C65.0338 79.684 69.3228 76.6701 72.9951 80.4072C72.9951 80.4072 74.4966 78.8352 76.8505 80.1622C75.9908 78.743 74.2354 77.744 72.2225 77.2986L72.2208 77.2941Z" fill="white"/>
<path d="M86.3266 86.0224C84.7386 88.263 82.1381 90.1626 78.9313 91.3731C76.3964 92.33 73.4845 92.8548 70.4135 92.7781C63.639 92.6018 57.8828 89.5384 55.1063 85.5452C54.6042 84.8475 54.1343 83.8812 54.1343 83.8812C54.191 84.5367 54.42 85.8555 54.42 85.8555C55.2355 91.6403 62.2288 96.4881 70.4539 96.7015C73.1962 96.7741 75.9502 96.3192 78.4135 95.3893C83.3132 93.5398 86.6074 90.0141 87.0337 86.2581C87.1254 85.603 87.0757 84.8166 87.0757 84.8166C86.8679 85.2438 86.3311 86.0208 86.3311 86.0208L86.3266 86.0224ZM78.1545 94.7127C75.8658 95.5766 73.2413 96.0493 70.4688 95.9779C63.1533 95.7904 57.1507 91.8662 55.5026 87.2418C58.7043 90.8284 64.2336 93.3415 70.3925 93.4988C73.4227 93.5756 76.4611 93.0749 79.1842 92.047C81.9072 91.0191 84.3624 89.3999 86.0198 87.5486C85.0594 90.5626 82.1092 93.2199 78.1545 94.7127Z" fill="#006A4D"/>
</svg>
