<svg width="100" height="100" viewBox="0 0 100 100" fill="none" xmlns="http://www.w3.org/2000/svg">
<path d="M51.3103 99.3743L17.4463 79.7518C15.8862 78.8488 15.5827 76.7216 16.8222 75.4193L57.7243 32.3541C59.1024 30.9041 61.304 30.5829 63.0375 31.5901L97.1094 51.3341C98.6696 52.237 98.973 54.3642 97.7336 55.6666L56.9962 98.5581C55.5141 100.112 53.1651 100.451 51.3103 99.3743Z" fill="#024731"/>
<path d="M51.3103 97.2274L17.4463 77.6049C15.8862 76.702 15.5827 74.5748 16.8222 73.2724L57.7243 30.2072C59.1024 28.7573 61.304 28.436 63.0375 29.4432L97.1094 49.1872C98.6696 50.0902 98.973 52.2174 97.7336 53.5197L56.9962 96.4112C55.5141 97.9654 53.1651 98.304 51.3103 97.2274Z" fill="#6CF479"/>
<path d="M51.3103 97.2274L17.4463 77.6049C15.8862 76.702 15.5827 74.5748 16.8222 73.2724L57.7243 30.2072C59.1024 28.7573 61.304 28.436 63.0375 29.4432L97.1094 49.1872C98.6696 50.0902 98.973 52.2174 97.7336 53.5197L56.9962 96.4112C55.5141 97.9654 53.1651 98.304 51.3103 97.2274Z" fill="black"/>
<path d="M81.794 38.0639L31.505 91.0097L39.4618 95.6201L89.7507 42.683L81.794 38.0639Z" fill="#024731"/>
<path d="M55.8868 66.3763L9.28151 81.7703L32.4324 49.1849L58.175 54.1947L63.0375 61.9308L55.8868 66.3763Z" fill="#024731"/>
<path d="M68.7752 48.1974L55.6353 6.43467C55.1499 4.88918 53.4771 3.86466 51.8909 4.1425L24.5796 9.03075L16.1374 7.75442L14.5859 10.9843C14.2132 11.6615 14.1092 12.4169 14.3519 13.2157L30.6208 64.9199C31.1062 66.4654 32.779 67.4899 34.3651 67.2121L70.24 60.7957C71.0981 60.6395 71.7395 60.1272 72.0775 59.45L73.7764 56.003L68.7752 48.1974Z" fill="#024731"/>
<path d="M36.0293 63.7749L71.9042 57.3586C73.4817 57.0721 74.3658 55.596 73.8804 54.0419L57.6115 2.33762C57.1261 0.792132 55.4532 -0.232388 53.867 0.0454518L17.9923 6.4618C16.4148 6.74832 15.5307 8.22435 16.016 9.77852L32.285 61.4828C32.7704 63.0282 34.4432 64.0528 36.0293 63.7749Z" fill="#11B67A"/>
<path d="M23.7214 18.9475L56.2072 13.1303C56.8399 13.0174 57.2039 12.4183 57.0046 11.7932L54.7857 4.73429C54.5864 4.10915 53.9103 3.70107 53.2776 3.81395L20.7917 9.63122C20.159 9.7441 19.7949 10.3432 19.9943 10.9683L22.2132 18.0272C22.4126 18.6523 23.0886 19.0604 23.7214 18.9475Z" fill="#024731"/>
<path d="M37.2255 30.1049L41.568 29.3235C42.14 29.2193 42.4607 28.6809 42.2873 28.1253L40.9439 23.8708C40.7706 23.3065 40.1638 22.9418 39.5831 23.0373L35.2406 23.8188C34.6686 23.9229 34.3479 24.4613 34.5213 25.0169L35.8648 29.2714C36.0381 29.8357 36.6448 30.2004 37.2255 30.1049Z" fill="#6CF479"/>
<path d="M28.0032 31.7532L32.3456 30.9718C32.9177 30.8676 33.2383 30.3293 33.065 29.7736L31.7216 25.5192C31.5482 24.9548 30.9414 24.5901 30.3607 24.6857L26.0183 25.4671C25.4462 25.5713 25.1256 26.1096 25.2989 26.6653L26.6424 30.9197C26.8158 31.484 27.4224 31.8487 28.0032 31.7532Z" fill="#6CF479"/>
<path d="M46.439 28.4532L50.7814 27.6718C51.3535 27.5676 51.6741 27.0293 51.5008 26.4736L50.1574 22.2192C49.984 21.6548 49.3773 21.2901 48.7965 21.3856L44.4541 22.1671C43.882 22.2713 43.5614 22.8096 43.7347 23.3652L45.0782 27.6197C45.2516 28.184 45.8583 28.5487 46.439 28.4532Z" fill="#6CF479"/>
<path d="M55.6614 26.8049L60.0038 26.0235C60.5758 25.9193 60.8965 25.3809 60.7232 24.8253L59.3797 20.5708C59.2064 20.0065 58.5996 19.6418 58.0189 19.7373L53.6765 20.5187C53.1044 20.6229 52.7837 21.1612 52.9571 21.7169L54.3005 25.9713C54.4738 26.5357 55.0806 26.9004 55.6614 26.8049Z" fill="#6CF479"/>
<path d="M65.1869 39.0132L69.382 52.2627C69.5553 52.827 69.2347 53.3654 68.6626 53.4609L64.3202 54.2423C63.7481 54.3465 63.1414 53.9731 62.9594 53.4088L58.7643 40.1593C58.5909 39.5949 58.9117 39.0566 59.4837 38.9611L63.8262 38.1797C64.3982 38.0755 65.0049 38.4488 65.1869 39.0132Z" fill="#6CF479"/>
<path d="M43.0327 48.5552L47.3751 47.7737C47.9472 47.6696 48.268 47.1312 48.0946 46.5756L46.7511 42.3211C46.5778 41.7568 45.9711 41.3921 45.3904 41.4876L41.0479 42.269C40.4759 42.3732 40.1551 42.9116 40.3284 43.4672L41.672 47.7216C41.8453 48.286 42.452 48.6507 43.0327 48.5552Z" fill="#00482F"/>
<path d="M52.2464 46.9035L56.5888 46.1221C57.1609 46.0179 57.4817 45.4795 57.3083 44.9239L55.9648 40.6695C55.7914 40.1051 55.1848 39.7404 54.604 39.8359L50.2616 40.6174C49.6895 40.7216 49.3688 41.2598 49.5421 41.8155L50.8856 46.07C51.059 46.6343 51.6657 46.999 52.2464 46.9035Z" fill="#00482F"/>
<path d="M33.8626 50.2306L38.2051 49.4492C38.7771 49.345 39.0978 48.8067 38.9244 48.251L37.581 43.9966C37.4077 43.4322 36.8009 43.0676 36.2202 43.1631L31.8777 43.9445C31.3057 44.0487 30.985 44.587 31.1584 45.1427L32.5019 49.3971C32.6752 49.9615 33.2819 50.3261 33.8626 50.2306Z" fill="#00482F"/>
<path d="M45.9277 57.7769L50.2702 56.9955C50.8422 56.8913 51.1629 56.353 50.9895 55.7973L49.646 51.5429C49.4727 50.9785 48.866 50.6139 48.2853 50.7094L43.9428 51.4908C43.3708 51.595 43.0501 52.1333 43.2235 52.689L44.5669 56.9434C44.7402 57.5078 45.347 57.8724 45.9277 57.7769Z" fill="#00482F"/>
<path d="M55.1501 56.1252L59.4925 55.3438C60.0646 55.2396 60.3853 54.7013 60.2119 54.1456L58.8684 49.8912C58.695 49.3268 58.0884 48.9622 57.5076 49.0577L53.1652 49.8391C52.5932 49.9433 52.2725 50.4816 52.4458 51.0373L53.7892 55.2917C53.9626 55.8561 54.5694 56.2207 55.1501 56.1252Z" fill="#00482F"/>
<path d="M36.7661 59.4524L41.1085 58.6709C41.6806 58.5668 42.0014 58.0284 41.828 57.4728L40.4845 53.2183C40.3112 52.654 39.7045 52.2893 39.1238 52.3848L34.7813 53.1663C34.2093 53.2704 33.8885 53.8088 34.0619 54.3644L35.4054 58.6189C35.5787 59.1832 36.1854 59.5479 36.7661 59.4524Z" fill="#00482F"/>
<path d="M40.1292 39.3266L44.4717 38.5452C45.0437 38.441 45.3645 37.9027 45.1911 37.347L43.8476 33.0926C43.6743 32.5282 43.0675 32.1636 42.4868 32.2591L38.1444 33.0405C37.5724 33.1447 37.2516 33.683 37.425 34.2387L38.7685 38.4931C38.9418 39.0575 39.5485 39.4221 40.1292 39.3266Z" fill="#00482F"/>
<path d="M30.9069 40.9749L35.2493 40.1935C35.8214 40.0893 36.1421 39.551 35.9688 38.9953L34.6253 34.7409C34.4519 34.1766 33.8452 33.8119 33.2645 33.9074L28.9221 34.6888C28.35 34.793 28.0292 35.3313 28.2026 35.887L29.5461 40.1414C29.7195 40.7058 30.3261 41.0704 30.9069 40.9749Z" fill="#00482F"/>
<path d="M49.3427 37.6749L53.6851 36.8935C54.2572 36.7893 54.5778 36.251 54.4045 35.6953L53.0611 31.4409C52.8877 30.8765 52.281 30.5119 51.7002 30.6074L47.3579 31.3888C46.7858 31.493 46.4651 32.0313 46.6384 32.587L47.9819 36.8414C48.1553 37.4058 48.762 37.7704 49.3427 37.6749Z" fill="#00482F"/>
<path d="M58.5651 36.0266L62.9075 35.2452C63.4795 35.141 63.8002 34.6027 63.6269 34.047L62.2835 29.7926C62.1101 29.2282 61.5033 28.8636 60.9226 28.9591L56.5802 29.7405C56.0081 29.8447 55.6874 30.383 55.8608 30.9387L57.2043 35.1931C57.3777 35.7575 57.9843 36.1221 58.5651 36.0266Z" fill="#00482F"/>
<path d="M23.7214 18.9475L56.2072 13.1303C56.8399 13.0174 57.2039 12.4183 57.0046 11.7932L54.7857 4.73429C54.5864 4.10915 53.9103 3.70107 53.2776 3.81395L20.7917 9.63122C20.159 9.7441 19.7949 10.3432 19.9943 10.9683L22.2132 18.0272C22.4126 18.6523 23.0886 19.0604 23.7214 18.9475Z" fill="black"/>
<path d="M23.0626 20.0596L55.5485 14.2424C56.1812 14.1295 56.5453 13.5304 56.3459 12.9053L53.9883 5.42097C53.8669 5.03026 53.4509 4.77846 53.0522 4.84792L20.133 10.7433C19.5003 10.8562 19.1362 11.4553 19.3356 12.0804L21.5545 19.1393C21.7538 19.7644 22.4299 20.1725 23.0626 20.0596Z" fill="#2F8260"/>
<path d="M10.7895 66.8122C4.86097 62.0107 5.69304 53.1112 12.4104 46.252C10.6682 42.0237 12.159 36.5016 16.3455 31.6741C12.5491 34.2615 8.96069 37.8127 6.00506 41.9889C-1.47501 52.5555 0.752533 66.1436 9.78409 70.1289C14.0312 72.0043 19.1363 71.6396 24.0855 69.5298C19.041 70.3807 14.1612 69.5385 10.7895 66.8122Z" fill="white"/>
</svg>
