<svg width="100" height="100" viewBox="0 0 100 100" fill="none" xmlns="http://www.w3.org/2000/svg">
<rect width="100" height="100" fill="white"/>
<path d="M51.2595 99.3743L17.3956 79.7518C15.8354 78.8488 15.532 76.7216 16.7714 75.4193L57.6735 32.3541C59.0516 30.9041 61.2532 30.5829 62.9867 31.5901L97.0586 51.3341C98.6188 52.237 98.9222 54.3642 97.6828 55.6666L56.9454 98.5581C55.4633 100.112 53.1144 100.451 51.2595 99.3743Z" fill="black"/>
<path d="M51.2595 97.2274L17.3956 77.6049C15.8354 76.702 15.532 74.5748 16.7714 73.2724L57.6735 30.2072C59.0516 28.7573 61.2532 28.436 62.9867 29.4432L97.0586 49.1872C98.6188 50.0902 98.9222 52.2174 97.6828 53.5197L56.9454 96.4112C55.4633 97.9654 53.1144 98.304 51.2595 97.2274Z" fill="#6CF479"/>
<path d="M51.2595 97.2274L17.3956 77.6049C15.8354 76.702 15.532 74.5748 16.7714 73.2724L57.6735 30.2072C59.0516 28.7573 61.2532 28.436 62.9867 29.4432L97.0586 49.1872C98.6188 50.0902 98.9222 52.2174 97.6828 53.5197L56.9454 96.4112C55.4633 97.9654 53.1144 98.304 51.2595 97.2274Z" fill="black"/>
<path d="M81.7432 38.0639L31.4543 91.0097L39.411 95.6201L89.6999 42.683L81.7432 38.0639Z" fill="black"/>
<path d="M55.836 66.3763L9.23073 81.7703L32.3816 49.1849L58.1242 54.1947L62.9867 61.9308L55.836 66.3763Z" fill="black"/>
<path d="M68.7245 48.1974L55.5845 6.43467C55.0991 4.88918 53.4263 3.86466 51.8402 4.1425L24.5288 9.03075L16.0866 7.75442L14.5351 10.9843C14.1624 11.6615 14.0584 12.4169 14.3011 13.2157L30.57 64.9199C31.0554 66.4654 32.7282 67.4899 34.3144 67.2121L70.1892 60.7957C71.0473 60.6395 71.6887 60.1272 72.0267 59.45L73.7256 56.003L68.7245 48.1974Z" fill="black"/>
<path d="M35.9785 63.7749L71.8534 57.3586C73.4309 57.0721 74.315 55.596 73.8296 54.0419L57.5607 2.33762C57.0753 0.792132 55.4024 -0.232388 53.8162 0.0454518L17.9415 6.4618C16.364 6.74832 15.4799 8.22435 15.9653 9.77852L32.2342 61.4828C32.7196 63.0282 34.3924 64.0528 35.9785 63.7749Z" fill="#11B67A"/>
<path d="M23.6706 18.9475L56.1564 13.1303C56.7892 13.0174 57.1531 12.4183 56.9538 11.7932L54.7349 4.73429C54.5356 4.10915 53.8595 3.70107 53.2268 3.81395L20.741 9.63122C20.1082 9.7441 19.7442 10.3432 19.9435 10.9683L22.1625 18.0272C22.3618 18.6523 23.0379 19.0604 23.6706 18.9475Z" fill="black"/>
<path d="M37.1747 30.1049L41.5172 29.3235C42.0892 29.2193 42.4099 28.6809 42.2365 28.1253L40.8931 23.8708C40.7198 23.3065 40.113 22.9418 39.5323 23.0373L35.1898 23.8188C34.6178 23.9229 34.2971 24.4613 34.4705 25.0169L35.814 29.2714C35.9873 29.8357 36.594 30.2004 37.1747 30.1049Z" fill="#6CF479"/>
<path d="M27.9524 31.7532L32.2948 30.9718C32.8669 30.8676 33.1875 30.3293 33.0142 29.7736L31.6708 25.5192C31.4974 24.9548 30.8906 24.5901 30.3099 24.6857L25.9675 25.4671C25.3954 25.5713 25.0748 26.1096 25.2481 26.6653L26.5916 30.9197C26.765 31.484 27.3717 31.8487 27.9524 31.7532Z" fill="#6CF479"/>
<path d="M46.3882 28.4532L50.7306 27.6718C51.3027 27.5676 51.6234 27.0293 51.45 26.4736L50.1066 22.2192C49.9333 21.6548 49.3265 21.2901 48.7458 21.3856L44.4033 22.1671C43.8313 22.2713 43.5106 22.8096 43.6839 23.3652L45.0275 27.6197C45.2008 28.184 45.8075 28.5487 46.3882 28.4532Z" fill="#6CF479"/>
<path d="M55.6106 26.8049L59.953 26.0235C60.5251 25.9193 60.8457 25.3809 60.6724 24.8253L59.329 20.5708C59.1556 20.0065 58.5488 19.6418 57.9681 19.7373L53.6257 20.5187C53.0536 20.6229 52.733 21.1612 52.9063 21.7169L54.2497 25.9713C54.4231 26.5357 55.0298 26.9004 55.6106 26.8049Z" fill="#6CF479"/>
<path d="M65.1362 39.0132L69.3312 52.2627C69.5046 52.827 69.1839 53.3654 68.6118 53.4609L64.2694 54.2423C63.6973 54.3465 63.0907 53.9731 62.9087 53.4088L58.7135 40.1593C58.5401 39.5949 58.8609 39.0566 59.433 38.9611L63.7754 38.1797C64.3475 38.0755 64.9541 38.4488 65.1362 39.0132Z" fill="#6CF479"/>
<path d="M42.9819 48.5552L47.3244 47.7737C47.8964 47.6696 48.2172 47.1312 48.0438 46.5756L46.7003 42.3211C46.527 41.7568 45.9203 41.3921 45.3396 41.4876L40.9971 42.269C40.4251 42.3732 40.1043 42.9116 40.2777 43.4672L41.6212 47.7216C41.7945 48.286 42.4012 48.6507 42.9819 48.5552Z" fill="#00482F"/>
<path d="M52.1956 46.9035L56.538 46.1221C57.1101 46.0179 57.4309 45.4795 57.2575 44.9239L55.914 40.6695C55.7407 40.1051 55.134 39.7404 54.5533 39.8359L50.2108 40.6174C49.6388 40.7216 49.318 41.2598 49.4913 41.8155L50.8349 46.07C51.0082 46.6343 51.6149 46.999 52.1956 46.9035Z" fill="#00482F"/>
<path d="M33.8118 50.2306L38.1543 49.4492C38.7263 49.345 39.047 48.8067 38.8736 48.251L37.5302 43.9966C37.3569 43.4322 36.7501 43.0676 36.1694 43.1631L31.827 43.9445C31.2549 44.0487 30.9342 44.587 31.1076 45.1427L32.4511 49.3971C32.6244 49.9615 33.2311 50.3261 33.8118 50.2306Z" fill="#00482F"/>
<path d="M45.877 57.7769L50.2194 56.9955C50.7915 56.8913 51.1121 56.353 50.9388 55.7973L49.5953 51.5429C49.4219 50.9785 48.8152 50.6139 48.2345 50.7094L43.8921 51.4908C43.32 51.595 42.9994 52.1333 43.1727 52.689L44.5161 56.9434C44.6895 57.5078 45.2962 57.8724 45.877 57.7769Z" fill="#00482F"/>
<path d="M55.0993 56.1252L59.4418 55.3438C60.0138 55.2396 60.3345 54.7013 60.1611 54.1456L58.8176 49.8912C58.6443 49.3268 58.0376 48.9622 57.4569 49.0577L53.1144 49.8391C52.5424 49.9433 52.2217 50.4816 52.3951 51.0373L53.7385 55.2917C53.9118 55.8561 54.5186 56.2207 55.0993 56.1252Z" fill="#00482F"/>
<path d="M36.7153 59.4524L41.0578 58.6709C41.6298 58.5668 41.9506 58.0284 41.7772 57.4728L40.4337 53.2183C40.2604 52.654 39.6537 52.2893 39.073 52.3848L34.7305 53.1663C34.1585 53.2704 33.8377 53.8088 34.0111 54.3644L35.3546 58.6189C35.5279 59.1832 36.1346 59.5479 36.7153 59.4524Z" fill="#00482F"/>
<path d="M40.0784 39.3266L44.4209 38.5452C44.9929 38.441 45.3137 37.9027 45.1403 37.347L43.7968 33.0926C43.6235 32.5282 43.0167 32.1636 42.436 32.2591L38.0936 33.0405C37.5216 33.1447 37.2008 33.683 37.3742 34.2387L38.7177 38.4931C38.891 39.0575 39.4977 39.4221 40.0784 39.3266Z" fill="#00482F"/>
<path d="M30.8561 40.9749L35.1985 40.1935C35.7706 40.0893 36.0913 39.551 35.918 38.9953L34.5745 34.7409C34.4011 34.1766 33.7944 33.8119 33.2137 33.9074L28.8713 34.6888C28.2992 34.793 27.9785 35.3313 28.1518 35.887L29.4953 40.1414C29.6687 40.7058 30.2754 41.0704 30.8561 40.9749Z" fill="#00482F"/>
<path d="M49.2919 37.6749L53.6343 36.8935C54.2064 36.7893 54.5271 36.251 54.3537 35.6953L53.0103 31.4409C52.837 30.8765 52.2302 30.5119 51.6494 30.6074L47.3071 31.3888C46.7351 31.493 46.4143 32.0313 46.5876 32.587L47.9312 36.8414C48.1045 37.4058 48.7112 37.7704 49.2919 37.6749Z" fill="#00482F"/>
<path d="M58.5143 36.0266L62.8567 35.2452C63.4288 35.141 63.7494 34.6027 63.5761 34.047L62.2327 29.7926C62.0593 29.2282 61.4525 28.8636 60.8718 28.9591L56.5294 29.7405C55.9573 29.8447 55.6367 30.383 55.81 30.9387L57.1535 35.1931C57.3269 35.7575 57.9335 36.1221 58.5143 36.0266Z" fill="#00482F"/>
<path d="M23.6706 18.9475L56.1564 13.1303C56.7892 13.0174 57.1531 12.4183 56.9538 11.7932L54.7349 4.73429C54.5356 4.10915 53.8595 3.70107 53.2268 3.81395L20.741 9.63122C20.1082 9.7441 19.7442 10.3432 19.9435 10.9683L22.1625 18.0272C22.3618 18.6523 23.0379 19.0604 23.6706 18.9475Z" fill="black"/>
<path d="M23.0119 20.0596L55.4977 14.2424C56.1304 14.1295 56.4945 13.5304 56.2951 12.9053L53.9375 5.42097C53.8162 5.03026 53.4002 4.77846 53.0014 4.84792L20.0822 10.7433C19.4495 10.8562 19.0854 11.4553 19.2848 12.0804L21.5037 19.1393C21.7031 19.7644 22.3791 20.1725 23.0119 20.0596Z" fill="#2F8260"/>
<path d="M10.7388 66.8122C4.81018 62.0107 5.64226 53.1112 12.3596 46.252C10.6174 42.0237 12.1083 36.5016 16.2947 31.6741C12.4983 34.2615 8.9099 37.8127 5.95428 41.9889C-1.52579 52.5555 0.701752 66.1436 9.73331 70.1289C13.9804 72.0043 19.0856 71.6396 24.0347 69.5298C18.9902 70.3807 14.1104 69.5385 10.7388 66.8122Z" fill="#6CF479"/>
</svg>
