<svg width="100" height="100" viewBox="0 0 100 100" fill="none" xmlns="http://www.w3.org/2000/svg">
<g clip-path="url(#clip0_15980_17841)">
<path d="M94.4207 76.2618L92.2839 73.5361L91.6119 72.6828L72.4258 48.2491C71.331 46.8522 68.6807 46.0745 66.5137 46.5049L-2.57431 60.315C-4.74133 60.7529 -5.60965 62.2328 -4.51481 63.6372L17.4801 91.6424C18.5749 93.0393 21.2252 93.817 23.3922 93.3866L92.4802 79.569C94.6472 79.1311 95.5156 77.6511 94.4207 76.2467V76.2618Z" fill="#003221"/>
<path d="M100.71 69.5798L80.8372 24.5253C80.3842 23.4984 79.2743 22.7811 78.2096 22.7811C78.0662 22.7811 77.9303 22.7962 77.7793 22.8264L1.96365 39.2641C0.778206 39.4982 0.242113 40.6459 0.763105 41.8237L20.8553 87.2255C21.3083 88.2524 22.4258 88.9697 23.4904 88.9697C23.6339 88.9697 23.7924 88.9546 23.9435 88.9244L99.5476 72.1243C100.71 71.8902 101.231 70.7426 100.726 69.5798H100.71Z" fill="#035D3E"/>
<path d="M101.118 68.3337L81.2447 23.2792C80.7917 22.2523 79.6817 21.535 78.6171 21.535C78.4736 21.535 78.3377 21.5501 78.1867 21.5803L2.37112 38.0255C1.18568 38.2596 0.649584 39.4073 1.17058 40.5852L21.2627 85.987C21.7158 87.0138 22.8333 87.7312 23.8979 87.7312C24.0413 87.7312 24.1999 87.7161 24.3509 87.6859L99.9551 70.8858C101.118 70.6517 101.639 69.504 101.133 68.3412H101.118V68.3337Z" fill="#006A4D"/>
<path d="M2.76389 38.9842V34.2122L32.6718 28.5643L99.3361 69.0205L23.747 85.1561L2.76389 38.9842Z" fill="#035D3E"/>
<path d="M63.2213 76.2163C63.2213 76.2163 50.9591 71.1801 24.0185 80.3767L2.1218 31.109C2.1218 31.109 27.522 17.752 41.5435 27.3866L63.2213 76.2239V76.2163Z" fill="#6CF479"/>
<path d="M100.665 64.3921L93.635 51.3749L86.696 68.9602L100.665 64.3921Z" fill="#035D3E"/>
<path d="M65.1091 76.2168C65.1091 76.2168 68.9143 69.2094 100.665 64.3921L99.3359 69.0135L65.1091 76.2168Z" fill="#035D3E"/>
<path d="M41.5435 27.3866L63.2213 76.2239C63.2213 76.2239 72.1989 65.2758 102.643 62.9955L80.3448 15.5963C80.3448 15.5963 50.3022 14.6865 41.5435 27.3866Z" fill="#6CF479"/>
<path d="M41.5435 27.3866L57.4906 63.2976C57.4906 63.2976 44.5338 25.9372 64.3843 16.6953C64.3843 16.6953 48.3242 18.1828 41.5362 27.3794L41.5435 27.3866Z" fill="#11B67A"/>
<path d="M5.20377 32.5061L21.2186 68.9227C21.2186 68.9227 9.85495 27.5982 34.1226 25.552C34.1226 25.552 23.0307 23.7248 5.20377 32.5061Z" fill="white"/>
<path d="M56.1013 80.1664C56.1013 80.1664 62.1267 82.7487 70.9911 76.8593L56.1013 80.1664Z" fill="#035D3E"/>
<path d="M41.5183 27.4003L63.1361 76.1825C63.1361 76.1825 54.1761 72.4847 34.6916 77.178C34.6916 77.178 57.305 67.6492 41.5183 27.4003Z" fill="#11B67A"/>
<path d="M80.3448 15.5963L102.674 62.9556C102.674 62.9556 93.856 63.0978 79.3493 67.7911C79.3493 67.7911 96.1315 55.8451 80.3448 15.5963Z" fill="#11B67A"/>
<path d="M23.747 85.1561C23.747 85.1561 57.4752 77.3949 63.2212 78.5804C63.2212 78.5804 69.028 75.3177 99.3361 69.0205L77.8618 71.2865L62.7984 76.8513L43.9521 77.0929L26.5781 81.2608L23.7542 85.1569L23.747 85.1561Z" fill="#035D3E"/>
<path d="M23.747 85.1561C23.747 85.1561 54.236 75.0693 63.2212 78.5804L27.3185 85.73L23.7395 85.1637L23.747 85.1561Z" fill="#035D3E"/>
<path d="M63.2212 78.5804C63.2212 78.5804 66.4457 73.4829 99.3361 69.0205L98.3925 70.3124L69.2169 76.8588L65.117 78.7918L63.2293 78.5804H63.2212Z" fill="#035D3E"/>
<path d="M84.8966 50.0115C82.2892 50.8649 74.6801 54.2776 69.8204 61.1043C65.6361 66.9822 64.1546 71.7014 63.1593 76.0828L41.544 27.3856C46.3322 20.4429 57.5337 17.5604 66.7052 16.3709L84.8966 50.0115Z" fill="#035D3E"/>
<path d="M44.2231 12.1825C41.5548 17.2389 40.9968 24.1292 41.5183 27.4003L63.1387 76.1825C63.0439 71.7736 62.4192 63.8091 66.2679 56.5558C69.8148 49.8714 76.6975 46.9321 80.0635 45.6047L55.4589 0.804688C52.3298 2.65358 46.925 7.06247 44.2231 12.1825Z" fill="#6CF479"/>
<path d="M50.1202 4.85723C46.7069 10.7279 50.0463 18.8115 55.8702 30.7957C58.9281 37.0882 62.5955 42.4842 65.9532 46.0584C67.8682 48.0969 70.2095 49.3056 71.8868 50.0418C69.7673 51.675 67.7324 53.7959 66.2679 56.5558C65.4298 58.1353 64.8045 59.7485 64.3389 61.3514C64.0841 58.232 63.2004 51.9992 61.003 46.4578C57.7319 38.2089 54.4634 32.2474 50.1329 26.032C46.4027 20.6783 43.6857 18.5477 42.0831 18.2459C42.5448 16.1577 43.2415 14.0455 44.2247 12.1824C45.6704 9.44283 47.8895 6.90637 50.1202 4.85723Z" fill="white"/>
<path d="M73.1114 99.1964C80.1129 99.1964 85.7888 98.2464 85.7888 97.0747C85.7888 95.9029 80.1129 94.9529 73.1114 94.9529C66.1098 94.9529 60.4339 95.9029 60.4339 97.0747C60.4339 98.2464 66.1098 99.1964 73.1114 99.1964Z" fill="#003221"/>
<path d="M63.1063 97.0748C63.1063 97.0748 68.3388 92.5519 71.4346 93.3674C71.4346 93.3674 71.1628 88.7464 74.2283 86.0131L71.9933 84.8201L63.1063 97.0748Z" fill="#035D3E"/>
<path d="M70.8907 84.4136L63.1136 97.0684C63.1136 97.0684 67.644 92.2662 70.3848 92.8099C70.3848 92.8099 69.894 88.7326 73.1181 85.2215L70.8983 84.4061L70.8907 84.4136Z" fill="#11B67A"/>
<path d="M70.1655 84.3225C71.8417 86.935 74.6807 87.0105 74.6807 87.0105L75.7303 85.4853L87.177 68.7984L80.2606 64.6758L70.1655 84.3225Z" fill="#035D3E"/>
<path d="M70.1655 84.3225C71.8417 86.935 74.6807 87.0105 74.6807 87.0105L75.7303 85.4853L87.177 68.7984L80.2606 64.6758L70.1655 84.3225Z" fill="black"/>
<path d="M71.5322 85.8099L82.4805 67.4544L80.2682 64.6682L69.0329 86.7537L71.5322 85.8099Z" fill="#11B67A"/>
<path d="M87.7283 69.818C88.9439 67.9228 90.1747 65.937 91.4054 63.8756C100.594 48.4724 108.039 35.9837 103.751 33.4241C99.4619 30.8644 92.0095 43.3531 82.8279 58.7563C81.4688 61.0366 80.4721 62.8035 79.2867 64.9705C81.2423 68.3758 84.8062 69.7047 87.7283 69.818Z" fill="#035D3E"/>
<path d="M87.7283 69.818C88.9439 67.9228 90.1747 65.937 91.4054 63.8756C100.594 48.4724 108.039 35.9837 103.751 33.4241C99.4619 30.8644 92.0095 43.3531 82.8279 58.7563C81.4688 61.0366 80.4721 62.8035 79.2867 64.9705C81.2423 68.3758 84.8062 69.7047 87.7283 69.818Z" fill="#035D3E"/>
<path d="M83.8387 69.6359C84.2917 68.8959 104.626 37.8176 103.289 34.6842C103.289 34.6842 109.413 33.1816 86.0586 69.9908" fill="#6CF479"/>
<path d="M74.6807 87.0105C74.6807 87.0105 72.1588 86.9425 70.1655 84.3225C70.1655 84.3225 70.9356 87.8335 74.6807 87.0105Z" fill="black"/>
</g>
<defs>
<clipPath id="clip0_15980_17841">
<rect width="100" height="100" fill="white"/>
</clipPath>
</defs>
</svg>
