<svg width="100" height="100" viewBox="0 0 100 100" fill="none" xmlns="http://www.w3.org/2000/svg">
<rect width="100" height="100" fill="white"/>
<path d="M14.0809 25.0521L0.984023 72.8692C0.565001 74.3797 1.91951 75.7927 3.44943 75.4516L10.7579 73.8145C12.015 73.5319 13.311 74.0484 14.0321 75.1105L28.3179 96.2467L36.25 87.4278L21.136 27.8975L14.0809 25.0521Z" fill="black"/>
<path d="M5.56422 81.0745C5.56422 81.0745 7.38648 87.1259 14.7924 88.802C14.7924 88.802 9.1795 89.7668 9.07231 96.5003C9.07231 96.5003 7.09413 90.6633 0 88.7923C0 88.7923 5.93452 88.0907 5.56422 81.0745Z" fill="#6CF479"/>
<path d="M97.5053 68.669C94.0557 65.6287 85.9188 57.18 81.5045 42.0758L74.8976 13.29C74.6053 12.0329 73.2898 11.1267 72.1106 11.3703L16.0008 23.1613C14.5975 23.4537 13.7985 24.7595 14.1103 26.2504L28.3278 96.2367C28.5227 97.1917 29.5264 97.903 30.4326 97.7179L89.6803 85.2642C90.6353 85.0596 91.1615 84.1631 90.9276 83.1496L90.0019 79.1153C92.9642 76.9422 95.7318 74.4281 97.9925 71.5339C98.6162 70.7349 98.4115 69.4681 97.5053 68.669Z" fill="#11B67A"/>
<path d="M8.60447 3C8.60447 3 10.0954 7.93081 16.1274 9.29506C16.1274 9.29506 11.5571 10.0844 11.4597 15.5804C11.4597 15.5804 9.8518 10.825 4.06346 9.29506C4.06346 9.29506 8.89681 8.72013 8.60447 3Z" fill="#6CF479"/>
<path d="M16.9365 40.2145L78.1136 27.3515L74.7517 12.6955C74.5373 11.7503 73.5434 11.0682 72.6566 11.2631L15.9913 23.1808C14.588 23.4732 13.789 24.7789 14.1008 26.2699L16.9365 40.2243V40.2145Z" fill="#6CF479"/>
<path d="M30.5986 30.4511C30.4524 31.484 29.5559 32.0882 28.6107 31.7861C27.6557 31.4937 27.0028 30.4121 27.149 29.3791C27.2951 28.3462 28.1916 27.742 29.1369 28.0441C30.0821 28.3462 30.7448 29.4181 30.5986 30.4511Z" fill="white"/>
<path d="M30.1111 29.9152C31.9821 28.853 33.3074 26.7774 33.7361 24.2145C34.5157 19.5761 32.2355 14.8012 28.552 13.3492C26.8954 12.6963 25.1413 12.8035 23.6212 13.6708C21.7502 14.7329 20.4249 16.8086 19.9961 19.3714C19.8305 20.3556 19.811 21.3496 19.9084 22.3241L22.4323 21.7881C22.3836 21.1255 22.4128 20.4628 22.52 19.8002C22.8221 18.0072 23.6796 16.5844 24.888 15.9023C25.3655 15.6295 25.8722 15.493 26.3984 15.493C26.7979 15.493 27.2072 15.571 27.6165 15.7366C30.1306 16.7306 31.7775 20.4141 31.2123 23.7955C30.9102 25.5885 30.0526 27.0112 28.8443 27.6934C28.6397 27.8103 28.4253 27.898 28.2109 27.9662C28.2109 27.9662 26.8954 28.317 27.1487 30.0711C27.1487 30.0711 27.1877 30.3342 27.3436 30.6558C28.2986 30.6558 29.2341 30.4121 30.1014 29.9152H30.1111Z" fill="#11B67A"/>
<path d="M66.4298 22.9084C66.2836 23.9414 65.3871 24.5456 64.4419 24.2435C63.4869 23.9511 62.834 22.8695 62.9802 21.8365C63.1263 20.8036 64.0228 20.1994 64.9681 20.5015C65.9133 20.8036 66.5759 21.8755 66.4298 22.9084Z" fill="white"/>
<path d="M65.9423 22.363C67.8133 21.3009 69.1386 19.2252 69.5674 16.6624C70.3469 12.0239 68.0667 7.24903 64.3832 5.79707C62.7266 5.14418 60.9725 5.25137 59.4524 6.11865C57.5814 7.18082 56.2561 9.25643 55.8273 11.8193C55.6617 12.8035 55.6422 13.7975 55.7396 14.7719L58.2635 14.236C58.2148 13.5733 58.2441 12.9107 58.3512 12.2481C58.6533 10.455 59.5109 9.03231 60.7192 8.35018C61.1967 8.07733 61.7034 7.9409 62.2296 7.9409C62.6291 7.9409 63.0384 8.01886 63.4477 8.18452C65.9618 9.17848 67.6087 12.8717 67.0435 16.2434C66.7414 18.0364 65.8839 19.4591 64.6755 20.1412C64.4709 20.2582 64.2565 20.3459 64.0421 20.4141C64.0421 20.4141 62.7266 20.7649 62.98 22.5189C62.98 22.5189 63.0189 22.7821 63.1748 23.1036C64.1298 23.1036 65.0653 22.86 65.9326 22.363H65.9423Z" fill="#11B67A"/>
<path d="M40.5574 49.0053C38.9885 51.344 37.3417 53.0688 35.0419 54.6182L35.6558 57.8145C37.6632 56.3723 39.4465 54.7352 40.8303 52.6693L45.459 76.5925L48.8209 75.9006L43.5003 48.4109L40.5477 49.0248L40.5574 49.0053Z" fill="black"/>
<path d="M72.5786 68.0753L59.2576 70.833C59.2576 70.833 61.2358 68.0071 62.3564 66.3992C63.5063 64.7329 64.6756 62.9106 65.7476 61.0299C67.8621 57.3074 69.4213 53.3511 68.8074 50.1548C67.8426 45.1753 63.555 43.6454 59.2966 44.5321C54.6289 45.4969 51.3157 49.0342 52.2706 54.3743L55.8177 53.6434C55.2038 50.4472 56.7727 47.9428 59.7253 47.3386C62.4538 46.7734 64.7146 48.2449 65.2896 51.2072C65.5137 52.3474 65.4357 53.3901 65.1921 54.5107C64.0617 59.1004 58.098 67.2178 55.2136 71.1351L55.8567 74.4386L73.134 70.8623L72.5981 68.085L72.5786 68.0753Z" fill="black"/>
<path d="M17.0924 40.9847L16.7806 39.4548L77.9577 26.5918L78.2987 28.1023L17.0924 40.9847Z" fill="white"/>
<path d="M85.7045 25.1501C85.7045 25.1501 88.5305 34.5245 100 37.1166C100 37.1166 91.3077 38.6173 91.1323 49.0538C91.1323 49.0538 88.0725 40.0108 77.0805 37.1068C77.0805 37.1068 86.2697 36.0154 85.7045 25.1501Z" fill="#6CF479"/>
<path d="M89.9921 79.1161C89.9921 79.1161 80.2377 87.3016 64.3149 90.6148L89.6608 85.2649C90.6158 85.0603 91.142 84.1638 90.9081 83.1503L89.9824 79.1161H89.9921Z" fill="#6CF479"/>
</svg>
