<svg width="100" height="100" viewBox="0 0 100 100" fill="none" xmlns="http://www.w3.org/2000/svg">
<g clip-path="url(#clip0_15980_1337)">
<rect width="100" height="100" fill="white"/>
<path d="M17.0791 52.684C27.9599 48.9829 39.5788 46.9099 51.7034 46.9099C63.8279 46.9099 75.457 48.9829 86.3378 52.684C87.8849 53.2099 89.1186 54.302 89.8669 55.6772L83.2839 41.3179C82.4243 39.8415 81.0491 38.6887 79.3502 38.1325C70.6335 35.3112 61.3606 33.7337 51.7034 33.7337C42.0462 33.7337 32.7733 35.3112 24.0566 38.1325C22.3476 38.6887 20.9824 39.8415 20.1229 41.3179L13.5399 55.6772C14.2983 54.302 15.5218 53.2099 17.069 52.684H17.0791Z" fill="#6CF479"/>
<path d="M90.6973 58.8224C90.6973 56.0618 88.9479 53.5742 86.339 52.6843C75.4582 48.9832 63.8393 46.9102 51.7046 46.9102C39.5699 46.9102 27.951 48.9832 17.0803 52.6843C14.4613 53.5742 12.7321 56.0618 12.7321 58.8224V95.2467C12.7321 98.1185 15.0579 100.444 17.9298 100.444H85.4997C88.3715 100.444 90.6973 98.1185 90.6973 95.2467V58.8224Z" fill="#11B67A"/>
<path d="M12.7222 95.2366C12.7222 95.2366 13.2278 97.9568 17.9603 97.9568H87.1381V100.434H17.7075C17.7075 100.434 12.9649 100.495 12.7222 95.2366Z" fill="#024731"/>
<path d="M20.1229 41.3179L13.5399 55.6772C14.2983 54.302 15.5218 53.2099 17.069 52.684C21.5285 51.1672 26.1201 49.9441 30.8122 49.0036C42.0165 43.8363 36.475 37.8701 44.585 34.0274C37.4761 34.6038 30.6099 36.0195 24.0572 38.1431C22.3482 38.6993 20.9831 39.8521 20.1235 41.3284L20.1229 41.3179Z" fill="#024731"/>
<path d="M71.3622 41.8945C68.8341 42.3091 66.6094 42.7945 64.9409 43.1889C64.4555 43.3102 64.5465 44.0181 65.0522 44.0282C71.4835 44.1091 74.315 44.4226 74.315 44.4226V41.6619L71.3622 41.8945Z" fill="black"/>
<path d="M77.3486 43.5731V30.4171C77.3486 16.3308 65.8813 4.8635 51.7949 4.8635C37.7086 4.8635 26.2414 16.3308 26.2414 30.4171V43.6135C26.2818 44.3517 27.6166 44.7158 29.2649 44.4326C30.9334 44.1394 32.2986 43.29 32.2986 42.5315V30.4171C32.2986 19.6678 41.0457 10.9308 51.7849 10.9308C62.524 10.9308 71.2711 19.6779 71.2711 30.4171V42.5315C71.2711 43.29 72.6363 44.1495 74.3048 44.4326C75.9531 44.7158 77.298 44.3113 77.3486 43.5731Z" fill="#6CF479"/>
<path d="M27.353 44.4427C27.353 44.4427 28.3237 44.6753 29.5069 44.3719V31.4384C29.5069 31.4384 28.3541 14.7128 42.9359 7.614C42.9359 7.614 27.353 12.569 27.353 31.4384V44.4427Z" fill="black"/>
<path d="M61.0156 11.416C73.9896 17.7361 72.9581 32.6112 72.9581 32.6112V44.0481C73.939 44.4425 74.8795 44.493 74.8795 44.493V32.6213C74.8795 15.835 61.0156 11.4261 61.0156 11.4261V11.416Z" fill="black"/>
<path d="M5.57222 23.4904C5.57222 23.4904 7.26097 29.0723 14.0867 30.6094C14.0867 30.6094 8.90927 31.4993 8.80814 37.7082C8.80814 37.7082 6.98792 32.3285 0.445312 30.5993C0.445312 30.5993 5.91603 29.9521 5.57222 23.4803V23.4904Z" fill="#6CF479"/>
<path d="M87.2491 0.444336C87.2491 0.444336 89.8581 9.09029 100.435 11.4869C100.435 11.4869 92.4165 12.8723 92.2648 22.489C92.2648 22.489 89.4435 14.1464 79.3009 11.4768C79.3009 11.4768 87.775 10.4757 87.2491 0.444336Z" fill="#6CF479"/>
<path d="M70.503 61.917C70.8367 62.4125 71.1401 62.9181 71.4333 63.4338H90.7274V61.917H70.503Z" fill="#00482F"/>
<path d="M73.952 70.1075H90.7282V68.5906H73.588C73.7296 69.0861 73.8509 69.5917 73.9621 70.1075H73.952Z" fill="#00482F"/>
<path d="M90.7166 76.7723V75.2554H74.4056C74.3955 75.761 74.3651 76.2666 74.3247 76.7723H90.7166Z" fill="#00482F"/>
<path d="M72.7387 83.4459H90.7283V81.9291H73.2949C73.123 82.4448 72.941 82.9504 72.7387 83.4459Z" fill="#00482F"/>
<path d="M68.5714 90.1196H90.7273V88.6028H69.8253C69.4309 89.1286 69.0163 89.6342 68.5815 90.1196H68.5714Z" fill="#00482F"/>
<path d="M32.3395 61.917H12.6915V63.4338H31.4092C31.7024 62.9181 32.0159 62.4125 32.3395 61.917Z" fill="#00482F"/>
<path d="M29.2555 68.5906H12.6816V70.1075H28.8813C28.9825 69.5917 29.114 69.0861 29.2555 68.5906Z" fill="#00482F"/>
<path d="M28.4162 75.2554H12.6816V76.7723H28.4971C28.4567 76.2666 28.4263 75.761 28.4162 75.2554Z" fill="#00482F"/>
<path d="M29.5387 81.9291H12.6816V83.4459H30.0948C29.8926 82.9504 29.7106 82.4448 29.5387 81.9291Z" fill="#00482F"/>
<path d="M12.6816 88.6028V90.1196H34.2611C33.8262 89.6342 33.4116 89.1286 33.0172 88.6028H12.6816Z" fill="#00482F"/>
<path d="M38.3031 79.6284C38.7001 79.6284 39.0218 79.9613 39.0218 80.3725V83.6655C39.0218 85.4656 40.4361 86.931 42.1741 86.9311H45.3538C45.7509 86.9311 46.0726 87.264 46.0726 87.6752C46.0726 88.0864 45.7509 88.4194 45.3538 88.4194H42.1741C39.6433 88.4193 37.5843 86.2867 37.5843 83.6655V80.3725C37.5843 79.9613 37.9061 79.6284 38.3031 79.6284Z" fill="#024731"/>
<path d="M65.182 79.6284C65.5789 79.6284 65.9007 79.9613 65.9007 80.3725V83.6655C65.9007 86.2867 63.8417 88.4193 61.3109 88.4194H58.1312C57.7341 88.4194 57.4124 88.0864 57.4124 87.6752C57.4124 87.264 57.7341 86.9311 58.1312 86.9311H61.3109C63.0489 86.931 64.4632 85.4656 64.4632 83.6655V80.3725C64.4632 79.9613 64.7849 79.6284 65.182 79.6284Z" fill="#024731"/>
<path d="M55.6898 79.6342C55.9927 79.3449 56.4648 79.3646 56.7445 79.6782C57.024 79.9919 57.0053 80.4812 56.7025 80.7709C55.3481 82.0665 53.5862 82.7796 51.7415 82.7797C49.8966 82.7797 48.1341 82.0667 46.7796 80.7709C46.4768 80.4813 46.4582 79.9919 46.7376 79.6782C47.0174 79.3645 47.4903 79.3445 47.7933 79.6342C48.871 80.6653 50.2733 81.2338 51.7415 81.2338C53.2097 81.2337 54.6121 80.6652 55.6898 79.6342Z" fill="#024731"/>
<path d="M52.4866 69.3774C52.8988 69.3776 53.2327 69.7239 53.2327 70.1508V75.6489C53.2327 76.7385 52.3766 77.6254 51.3245 77.6254H50.7171C50.3048 77.6254 49.9701 77.279 49.97 76.852C49.97 76.4249 50.3048 76.0786 50.7171 76.0786H51.3245C51.5532 76.0786 51.7396 75.8857 51.7396 75.6489V70.1508C51.7396 69.7238 52.0743 69.3774 52.4866 69.3774Z" fill="#024731"/>
<path d="M45.9788 69.3774C46.3682 69.3774 46.6839 69.7046 46.6839 70.1078V72.3129C46.6838 72.7161 46.3681 73.0433 45.9788 73.0434C45.5895 73.0434 45.2738 72.7162 45.2738 72.3129V70.1078C45.2738 69.7045 45.5894 69.3774 45.9788 69.3774Z" fill="#024731"/>
<path d="M57.6741 69.3774C58.0634 69.3775 58.3792 69.7046 58.3792 70.1078V72.3129C58.3791 72.7161 58.0634 73.0433 57.6741 73.0434C57.2848 73.0434 56.9692 72.7162 56.9691 72.3129V70.1078C56.9691 69.7045 57.2847 69.3774 57.6741 69.3774Z" fill="#024731"/>
<path d="M45.3538 59.0952C45.7507 59.0952 46.0723 59.4283 46.0726 59.8393C46.0726 60.2505 45.7509 60.5844 45.3538 60.5844H42.1741C40.4361 60.5845 39.0218 62.0489 39.0218 63.8491V67.142C39.0218 67.5532 38.7001 67.8871 38.3031 67.8871C37.9061 67.8871 37.5843 67.5532 37.5843 67.142V63.8491C37.5843 61.2278 39.6433 59.0952 42.1741 59.0952H45.3538Z" fill="#024731"/>
<path d="M61.3109 59.0952C63.8417 59.0952 65.9007 61.2278 65.9007 63.8491V67.142C65.9007 67.5532 65.5789 67.8871 65.182 67.8871C64.7849 67.8871 64.4632 67.5532 64.4632 67.142V63.8491C64.4632 62.0489 63.0489 60.5845 61.3109 60.5844H58.1312C57.7341 60.5844 57.4124 60.2505 57.4124 59.8393C57.4127 59.4283 57.7343 59.0952 58.1312 59.0952H61.3109Z" fill="#024731"/>
</g>
<defs>
<clipPath id="clip0_15980_1337">
<rect width="100" height="100" fill="white"/>
</clipPath>
</defs>
</svg>
