<svg width="100" height="100" viewBox="0 0 100 100" fill="none" xmlns="http://www.w3.org/2000/svg">
<g clip-path="url(#clip0_4535_1889)">
<path d="M57.0232 65.3535C60.3263 65.3535 63.004 62.6758 63.004 59.3727C63.004 56.0695 60.3263 53.3918 57.0232 53.3918C53.7201 53.3918 51.0424 56.0695 51.0424 59.3727C51.0424 62.6758 53.7201 65.3535 57.0232 65.3535Z" fill="#6CF479"/>
<path d="M49.5964 59.3718C49.5964 55.2782 52.9255 51.9394 57.0289 51.9394C58.7128 51.9394 60.2709 52.5103 61.5194 53.4587L71.6326 47.6231C65.7582 46.8198 59.5064 42.3487 55.4901 35.3808C51.4739 28.4225 50.719 20.7675 52.9643 15.2802L28.6732 29.3032C22.1795 33.0485 21.1052 43.3262 26.2538 52.2587C30.1345 58.975 36.425 63.0106 42.0768 63.0106C43.9446 63.0106 45.735 62.5752 47.3415 61.6364L49.6642 60.3009C49.6254 59.9912 49.5964 59.6815 49.5964 59.3622V59.3718Z" fill="#11B67A"/>
<path d="M49.6524 60.2248C43.2941 62.4507 34.9616 58.2118 30.2098 49.9858C25.371 41.5952 25.971 32.053 31.3518 27.7658L28.6808 29.3045C22.187 33.0498 21.1128 43.3275 26.2613 52.26C31.4196 61.1926 40.8553 65.3927 47.3491 61.6474L49.6717 60.3119C49.6717 60.3119 49.662 60.2538 49.662 60.2248H49.6524Z" fill="#6CF479"/>
<path d="M96.1648 11.2648C92.1098 4.23882 85.529 0 79.6546 0C77.7288 0 75.89 0.454844 74.2254 1.41294C67.4994 5.30338 66.4058 16.0069 71.7963 25.3362C75.8513 32.3623 82.4321 36.6011 88.3065 36.6011C90.2324 36.6011 92.0711 36.1462 93.7357 35.1881C100.462 31.2977 101.555 20.5942 96.1648 11.2648Z" fill="black"/>
<path d="M16.6029 67.2598C13.9899 68.4308 10.4188 66.7276 8.41555 63.2726C6.32517 59.6532 6.76066 55.4821 9.393 53.9627L2.29924 58.2402C-0.333098 59.7596 -0.768595 63.9307 1.32179 67.5502C3.41218 71.1696 7.24455 72.8729 9.87689 71.3535L16.6029 67.2598Z" fill="#6CF479"/>
<path d="M9.48108 62.6535C10.6618 64.6954 12.5683 65.9245 14.2909 65.9245C14.8619 65.9245 15.4038 65.789 15.8877 65.5084C15.9845 65.4503 16.0813 65.3826 16.1684 65.3148C14.7167 64.0954 13.4006 62.5373 12.336 60.6986C11.3779 59.034 10.7198 57.3017 10.3618 55.6081C10.3134 55.6371 10.265 55.6565 10.2166 55.6758C8.24233 56.8178 7.91329 59.934 9.48108 62.6535Z" fill="black"/>
<path d="M15.3747 43.5885C10.7487 46.2596 9.9842 53.5759 13.652 59.9438C16.4102 64.7246 20.9007 67.6086 24.9169 67.6086C26.2427 67.6086 27.5202 67.2989 28.6719 66.6311L35.3592 62.7697C31.3526 61.1438 27.4912 57.776 24.8008 53.1114C22.2846 48.7564 21.2587 44.082 21.6168 39.9981L15.3747 43.6078V43.5885Z" fill="#6CF479"/>
<path d="M23.1672 49.6857C22.5672 48.176 22.1414 46.6469 21.8801 45.1469L11.3411 51.7181C11.3411 54.3407 12.0959 57.2247 13.654 59.9344C14.2734 61.0183 14.9896 61.9958 15.7638 62.8765C14.7767 60.2828 14.6025 55.3085 23.1576 49.6857H23.1672Z" fill="white"/>
<path d="M42.1777 32.7495L52.2328 26.9428C51.7296 24.504 51.5941 22.1233 51.836 19.9168L27.2933 34.7334C26.3256 39.2722 27.245 44.8466 30.2063 49.9855C31.2709 51.8339 32.5193 53.4791 33.8935 54.9017C31.8903 51.2145 28.4837 41.4304 42.1777 32.7495Z" fill="black"/>
<path d="M23.3088 44.227L27.2282 41.8753C26.7927 39.3591 26.8218 36.9203 27.2863 34.7235L23.4055 36.9591C22.9023 39.1849 22.8636 41.6624 23.3088 44.2173V44.227Z" fill="white"/>
<path d="M79.815 44.7881L93.5671 36.8524L93.4896 36.7073C91.767 37.6653 89.8702 38.1105 87.8862 38.1105C81.6538 38.1105 74.6762 33.6201 70.3696 26.1586C65.7243 18.1164 65.6178 9.1161 69.5663 3.80304L59.5112 9.60966C52.4561 13.684 51.2755 24.8618 56.8789 34.5782C61.0983 41.8848 67.9502 46.2785 74.0858 46.2785C76.1085 46.2785 78.0634 45.8043 79.815 44.7881Z" fill="#11B67A"/>
<path d="M67.1993 9.12578L53.9796 17.1873C52.6343 22.0649 53.4182 28.2199 56.5345 33.9491C55.6925 30.0199 56.2441 23.0423 66.967 16.4131C66.6186 13.8485 66.6961 11.371 67.209 9.13547L67.1993 9.12578Z" fill="black"/>
<path d="M92.6184 13.3164C97.1282 21.1263 96.8089 29.962 92.241 34.4041C93.0152 34.1815 93.7604 33.8912 94.4668 33.4847C100.815 29.8266 100.873 20.2843 95.7927 11.4873C90.7119 2.69026 82.4278 -2.02278 76.0792 1.6354C75.3727 2.04186 74.7437 2.54511 74.163 3.09674C80.2987 1.35475 88.1086 5.4968 92.6184 13.3067V13.3164Z" fill="#00482F"/>
<path d="M79.6546 1.93554C84.9677 1.93554 90.9292 6.07759 94.4906 12.2326C99.3391 20.6232 98.5649 30.1751 92.7679 33.5139C91.4421 34.2785 89.942 34.6656 88.3065 34.6656C82.9934 34.6656 77.032 30.5235 73.4706 24.3685C68.622 15.9779 69.3963 6.426 75.1932 3.08719C76.5191 2.32265 78.0191 1.93554 79.6546 1.93554ZM79.6546 0C77.7288 0 75.89 0.454844 74.2254 1.41294C67.4994 5.30338 66.4058 16.0069 71.7963 25.3362C75.8513 32.3623 82.4321 36.6011 88.3065 36.6011C90.2324 36.6011 92.0711 36.1462 93.7357 35.1881C100.462 31.2977 101.555 20.5942 96.1648 11.2648C92.1098 4.23882 85.529 0 79.6546 0Z" fill="#6CF479"/>
<path d="M59.4287 62.3149C56.1286 62.3149 53.4479 59.6342 53.4479 56.3341C53.4479 55.6373 53.5737 54.9695 53.7963 54.3502C52.1511 55.4147 51.0575 57.2632 51.0575 59.3729C51.0575 62.673 53.7382 65.3537 57.0383 65.3537C59.6416 65.3537 61.8481 63.6892 62.6707 61.3665C61.732 61.9665 60.6287 62.3246 59.4287 62.3246V62.3149Z" fill="black"/>
<path d="M82.2974 6.84244C82.2974 6.84244 83.9523 12.3297 90.6686 13.8491C90.6686 13.8491 85.5782 14.7298 85.4814 20.8364C85.4814 20.8364 83.691 15.5427 77.2553 13.8491C77.2553 13.8491 82.6361 13.2104 82.2974 6.8521V6.84244Z" fill="white"/>
<path d="M60.7446 65.799C59.651 66.4377 58.3832 66.8055 57.0283 66.8055C55.6734 66.8055 54.4057 66.4377 53.3121 65.799L33.5696 100H38.0407L55.0928 70.4733V100H58.9639V70.4733L76.016 100H80.4871L60.7446 65.799Z" fill="#6CF479"/>
</g>
<defs>
<clipPath id="clip0_4535_1889">
<rect width="100" height="100" fill="white"/>
</clipPath>
</defs>
</svg>
