<svg width="100" height="100" viewBox="0 0 100 100" fill="none" xmlns="http://www.w3.org/2000/svg">
<rect width="100" height="100" fill="white"/>
<path d="M26.2596 100L41.7253 73.2911V100H45.2363V73.2911L60.702 100H64.7571L43.4808 63.2589L22.2045 100H26.2596Z" fill="black"/>
<path d="M76.0009 4.70877H9.20518C8.23566 4.70877 7.44971 5.49264 7.44971 6.4596V80.6422C7.44971 81.6091 8.23566 82.393 9.20518 82.393H76.0009C76.9705 82.393 77.7564 81.6091 77.7564 80.6422V6.4596C77.7564 5.49264 76.9705 4.70877 76.0009 4.70877Z" fill="#11B67A"/>
<path d="M9.20518 3.39661H76.0009C76.4661 3.39661 76.905 3.51038 77.3 3.69422L76.1063 1.03298C75.8254 0.402684 75.1934 0 74.4999 0H10.7062C10.0128 0 9.38951 0.402684 9.09985 1.03298L7.90615 3.69422C8.30113 3.51038 8.73998 3.39661 9.20518 3.39661Z" fill="black"/>
<path d="M58.4988 63.5996C58.4988 63.5996 57.2085 71.8461 55.181 76.1443L69.1634 77.7813L69.4091 75.7679L57.2788 74.3585L58.4988 63.6084V63.5996ZM17.3857 61.595C17.3857 61.595 15.0773 69.6225 12.5318 73.6319L26.207 76.9847L26.6985 75.0151L14.8403 72.1087L17.3857 61.5862V61.595ZM24.1794 57.6293L38.2495 58.0758L38.3197 56.0536L26.1104 55.6772L26.4089 44.8571C26.4089 44.8571 25.8208 53.1822 24.1794 57.6381V57.6293ZM60.6932 47.6059L71.9633 47.5183V45.4873L59.7453 45.5837L59.6136 34.7635C59.6136 34.7635 59.3941 41.6355 58.2531 46.2752L48.7472 49.4792L45.2363 39.2456C45.2363 39.2456 47.6061 47.2557 47.6237 52.0004L60.6932 47.5971V47.6059ZM36.6871 41.0052L36.5994 38.983L24.3988 39.5433L23.8634 28.7319C23.8634 28.7319 23.9248 37.0834 22.6258 41.6443L36.6871 41.0052ZM45.9911 28.478L59.9032 26.3246L59.596 24.3198L47.5271 26.1932L45.8244 15.5044C45.8244 15.5044 46.7898 23.7946 45.9911 28.478ZM38.4514 71.6447L36.7485 60.9559C36.7485 60.9559 37.7141 69.2461 36.9154 73.9296L50.8274 71.776L50.5203 69.7713L38.4514 71.6447Z" fill="#00482F"/>
<path d="M80.7232 44.2872C80.7232 44.2872 83.0404 51.9558 92.4497 54.0743C92.4497 54.0743 85.3225 55.2999 85.182 63.8352C85.182 63.8352 82.6717 56.4379 73.6574 54.0656C73.6574 54.0656 81.1884 53.1726 80.7232 44.2872Z" fill="#006A4D"/>
<path d="M57.2355 74.3968L69.8594 75.8669L71.3334 63.2764L58.7096 61.8063L57.2355 74.3968Z" fill="#6CF479"/>
<path d="M14.9043 72.0498L27.247 75.0735L30.2787 62.7633L17.9359 59.7397L14.9043 72.0498Z" fill="#6CF479"/>
<path d="M26.1047 55.684L38.8082 56.0778L39.203 43.4079L26.4995 43.0141L26.1047 55.684Z" fill="#6CF479"/>
<path d="M72.4462 45.4869L72.3496 32.8109L59.64 32.916L59.719 42.2829L56.7171 33.4237L44.6746 37.4857L48.7473 49.4875L60.3334 45.5832L72.4462 45.4869Z" fill="#6CF479"/>
<path d="M24.3681 39.582L37.0643 39.0004L36.4811 26.3377L23.7849 26.9194L24.3681 39.582Z" fill="#6CF479"/>
<path d="M47.5518 26.1256L60.1107 24.1798L58.1598 11.6541L45.6008 13.5999L47.5518 26.1256Z" fill="#6CF479"/>
<path d="M38.4912 71.5822L51.0502 69.6364L49.0992 57.1106L36.5403 59.0564L38.4912 71.5822Z" fill="#6CF479"/>
<path d="M20.8352 62.1544C20.8352 62.1544 22.0553 66.19 27.0057 67.3018C27.0057 67.3018 23.2578 67.9496 23.1788 72.4405C23.1788 72.4405 21.8621 68.5449 17.1136 67.3018C17.1136 67.3018 21.0809 66.8291 20.8352 62.1544Z" fill="#6CF479"/>
<path d="M52.0211 14.1024C52.0211 14.1024 53.2412 18.138 58.1917 19.2498C58.1917 19.2498 54.4437 19.8976 54.3647 24.3885C54.3647 24.3885 53.0481 20.4929 48.2996 19.2498C48.2996 19.2498 52.2669 18.7771 52.0211 14.1024Z" fill="#6CF479"/>
<path d="M16.8827 26.4148L29.475 28.1329L31.1976 15.5739L18.6053 13.8558L16.8827 26.4148Z" fill="#6CF479"/>
<path d="M14.6998 28.2131L28.647 30.1215L28.928 28.1168L16.8328 26.471L18.2635 15.7472C18.2635 15.7472 16.8064 23.9673 14.6998 28.2218V28.2131Z" fill="#00482F"/>
</svg>
