<svg width="100" height="100" viewBox="0 0 100 100" fill="none" xmlns="http://www.w3.org/2000/svg">
<path d="M26.3119 100L41.7776 73.2911V100H45.2885V73.2911L60.7542 100H64.8093L43.533 63.2589L22.2567 100H26.3119Z" fill="#024731"/>
<path d="M76.0532 4.70877H9.25742C8.2879 4.70877 7.50195 5.49264 7.50195 6.4596V80.6422C7.50195 81.6091 8.2879 82.393 9.25742 82.393H76.0532C77.0227 82.393 77.8087 81.6091 77.8087 80.6422V6.4596C77.8087 5.49264 77.0227 4.70877 76.0532 4.70877Z" fill="#11B67A"/>
<path d="M9.25742 3.39661H76.0532C76.5184 3.39661 76.9572 3.51038 77.3522 3.69422L76.1585 1.03298C75.8776 0.402684 75.2456 0 74.5522 0H10.7584C10.065 0 9.44175 0.402684 9.1521 1.03298L7.95839 3.69422C8.35337 3.51038 8.79222 3.39661 9.25742 3.39661Z" fill="#024731"/>
<path d="M58.5511 63.5996C58.5511 63.5996 57.2608 71.8461 55.2332 76.1443L69.2156 77.7813L69.4614 75.7679L57.331 74.3585L58.5511 63.6084V63.5996ZM17.438 61.595C17.438 61.595 15.1295 69.6225 12.5841 73.6319L26.2593 76.9847L26.7507 75.0151L14.8925 72.1087L17.438 61.5862V61.595ZM24.2316 57.6293L38.3018 58.0758L38.372 56.0536L26.1626 55.6772L26.4611 44.8571C26.4611 44.8571 25.873 53.1822 24.2316 57.6381V57.6293ZM60.7454 47.6059L72.0155 47.5183V45.4873L59.7975 45.5837L59.6658 34.7635C59.6658 34.7635 59.4464 41.6355 58.3053 46.2752L48.7995 49.4792L45.2885 39.2456C45.2885 39.2456 47.6584 47.2557 47.6759 52.0004L60.7454 47.5971V47.6059ZM36.7394 41.0052L36.6516 38.983L24.4511 39.5433L23.9157 28.7319C23.9157 28.7319 23.9771 37.0834 22.678 41.6443L36.7394 41.0052ZM46.0434 28.478L59.9554 26.3246L59.6483 24.3198L47.5794 26.1932L45.8766 15.5044C45.8766 15.5044 46.8421 23.7946 46.0434 28.478ZM38.5036 71.6447L36.8008 60.9559C36.8008 60.9559 37.7663 69.2461 36.9676 73.9296L50.8797 71.776L50.5725 69.7713L38.5036 71.6447Z" fill="#00482F"/>
<path d="M80.7754 44.2872C80.7754 44.2872 83.0926 51.9558 92.502 54.0743C92.502 54.0743 85.3747 55.2999 85.2343 63.8352C85.2343 63.8352 82.7239 56.4379 73.7096 54.0656C73.7096 54.0656 81.2406 53.1726 80.7754 44.2872Z" fill="white"/>
<path d="M57.2878 74.3968L69.9116 75.8669L71.3857 63.2764L58.7618 61.8063L57.2878 74.3968Z" fill="#6CF479"/>
<path d="M14.9565 72.0498L27.2992 75.0735L30.3309 62.7633L17.9882 59.7397L14.9565 72.0498Z" fill="#6CF479"/>
<path d="M26.157 55.684L38.8604 56.0778L39.2552 43.4079L26.5518 43.0141L26.157 55.684Z" fill="#6CF479"/>
<path d="M72.4984 45.4869L72.4019 32.8109L59.6923 32.916L59.7713 42.2829L56.7694 33.4237L44.7269 37.4857L48.7996 49.4875L60.3856 45.5832L72.4984 45.4869Z" fill="#6CF479"/>
<path d="M24.4203 39.582L37.1165 39.0004L36.5333 26.3377L23.8371 26.9194L24.4203 39.582Z" fill="#6CF479"/>
<path d="M47.604 26.1256L60.163 24.1798L58.212 11.6541L45.6531 13.5999L47.604 26.1256Z" fill="#6CF479"/>
<path d="M38.5435 71.5822L51.1024 69.6364L49.1515 57.1106L36.5925 59.0564L38.5435 71.5822Z" fill="#6CF479"/>
<path d="M20.8874 62.1544C20.8874 62.1544 22.1075 66.19 27.0579 67.3018C27.0579 67.3018 23.31 67.9496 23.231 72.4405C23.231 72.4405 21.9144 68.5449 17.1658 67.3018C17.1658 67.3018 21.1332 66.8291 20.8874 62.1544Z" fill="#024731"/>
<path d="M52.0734 14.1024C52.0734 14.1024 53.2935 18.138 58.2439 19.2498C58.2439 19.2498 54.496 19.8976 54.417 24.3885C54.417 24.3885 53.1004 20.4929 48.3518 19.2498C48.3518 19.2498 52.3192 18.7771 52.0734 14.1024Z" fill="#024731"/>
<path d="M16.9349 26.4148L29.5272 28.1329L31.2499 15.5739L18.6576 13.8558L16.9349 26.4148Z" fill="#6CF479"/>
<path d="M14.7521 28.2131L28.6993 30.1215L28.9802 28.1168L16.885 26.471L18.3157 15.7472C18.3157 15.7472 16.8586 23.9673 14.7521 28.2218V28.2131Z" fill="#00482F"/>
</svg>
