<svg width="100" height="100" viewBox="0 0 100 100" fill="none" xmlns="http://www.w3.org/2000/svg">
<path d="M72.0927 19.1108C63.3883 19.1108 55.9301 24.1618 52.607 31.7336C49.2933 24.1618 41.8256 19.1108 33.1213 19.1108C21.5186 19.1108 12.1345 28.1176 11.9834 40.5704C12.8142 71.7071 53.0224 93.5916 53.0224 93.5916C53.0224 93.5916 93.2305 71.7071 93.2305 40.5704C93.2305 28.7879 83.6954 19.1108 72.0927 19.1108Z" fill="#6CF479"/>
<path d="M20.4611 21.5036C24.0297 19.0961 28.363 17.7082 33.1211 17.7082C34.188 17.7082 35.2359 17.7838 36.2649 17.9254C33.5649 16.7075 30.5627 16.0277 27.3906 16.0277C22.7552 16.0277 18.4502 17.5761 14.9572 20.1818L20.4611 21.4941V21.5036Z" fill="#024731"/>
<path d="M52.6068 28.6861C56.6286 21.9358 64.0112 17.7062 72.0925 17.7062C73.0555 17.7062 73.9995 17.7723 74.9247 17.895C72.3002 16.7054 69.4113 16.0351 66.362 16.0351C59.3853 16.0351 53.2204 19.2828 49.3308 24.466C50.577 25.7311 51.6816 27.1378 52.6068 28.6861Z" fill="#024731"/>
<path d="M31.875 79.7728C18.3086 67.2633 10.9449 53.7154 10.5956 40.6017V40.545C10.6333 37.3351 11.2564 34.3139 12.361 31.5855L7.47068 30.3959C6.69654 32.624 6.26223 35.0031 6.26223 37.4861C5.33704 59.1251 24.8322 75.9491 37.2751 84.4272C35.5191 83.0016 33.697 81.4533 31.875 79.7633V79.7728Z" fill="#024731"/>
<path d="M15.2497 26.4713C16.0994 25.3478 17.0435 24.3093 18.0914 23.3652L12.7479 22.0907C11.7755 23.0442 10.8881 24.0922 10.1045 25.2157L15.2497 26.4713Z" fill="#024731"/>
<path d="M82.5907 25.9724C76.0388 21.1575 68.7222 23.4705 68.7222 23.4705C82.4491 23.7821 79.4186 35.5646 79.4186 35.5646C91.7482 45.9687 81.0518 65.861 81.0518 65.861C95.3074 44.8641 89.1425 30.7968 82.5907 25.9819V25.9724ZM28.2026 23.5083C36.0006 23.4139 38.1625 29.8055 38.1625 29.8055C45.2053 29.8055 50.5676 35.253 50.5676 35.253C43.1472 18.6273 28.2119 23.5083 28.2119 23.5083H28.2026ZM17.8555 80.0888C18.3275 89.1428 10.6711 90.0491 10.6711 90.0491C19.8286 92.466 22.3776 100 22.3776 100C22.5192 91.3048 29.7602 90.0585 29.7602 90.0585C20.2062 87.8965 17.8555 80.0888 17.8555 80.0888ZM48.755 0C49.0854 6.2972 43.7609 6.92975 43.7609 6.92975C50.1239 8.61027 51.8988 13.8501 51.8988 13.8501C52.0027 7.80778 57.0346 6.9392 57.0346 6.9392C50.3977 5.43807 48.755 0.00945031 48.755 0.00945031V0Z" fill="white"/>
</svg>
