<svg width="100" height="100" viewBox="0 0 100 100" fill="none" xmlns="http://www.w3.org/2000/svg">
<path d="M84.4599 81.0473H0V85.3114H84.4599V81.0473Z" fill="#024731"/>
<path d="M73.0468 60.068H11.4215L0.263218 84.1912C-0.577475 86.0028 0.738782 88.0879 2.72587 88.0879H81.7425C83.7296 88.0879 85.0458 86.0114 84.2051 84.1912L73.0468 60.068Z" fill="#024731"/>
<path d="M73.0468 55.8555H11.4215L0.263218 79.9787C-0.577475 81.7903 0.738782 83.8754 2.72587 83.8754H81.7425C83.7296 83.8754 85.0458 81.7988 84.2051 79.9787L73.0468 55.8555Z" fill="#6CF479"/>
<path d="M70.1851 12.0879C71.6882 12.0879 72.9025 13.3184 72.9025 14.8224V54.2671H11.5489V14.8224C11.5489 13.3099 12.7717 12.0879 14.2663 12.0879H70.1851Z" fill="#11B67A"/>
<path d="M42.2299 17.6669C42.8302 17.6669 43.3168 17.1771 43.3168 16.573C43.3168 15.969 42.8302 15.4793 42.2299 15.4793C41.6296 15.4793 41.1429 15.969 41.1429 16.573C41.1429 17.1771 41.6296 17.6669 42.2299 17.6669Z" fill="#6CF479"/>
<path d="M75.8662 70.8711L71.0768 60.6766C70.7796 60.0357 70.1427 59.6341 69.4379 59.6341H15.0306C14.3258 59.6341 13.6889 60.0442 13.3917 60.6766L8.60228 70.8711C8.17769 71.7769 8.83157 72.8279 9.83361 72.8279H25.1614C25.7133 72.8279 26.1464 73.3236 26.0615 73.879L25.8832 75.0155C25.7558 75.8444 26.3927 76.5964 27.2249 76.5964H57.2351C58.0673 76.5964 58.7042 75.8444 58.5768 75.0155L58.3985 73.879C58.3135 73.3236 58.7381 72.8279 59.2986 72.8279H74.6264C75.6284 72.8279 76.2823 71.7854 75.8577 70.8711H75.8662Z" fill="#024731"/>
<path d="M100 61.5654L85.5978 51.2257L87.8991 68.8801L91.9327 63.8897L98.0723 74.1868L99.8726 73.1015L93.733 62.8045L100 61.5654Z" fill="white"/>
<path d="M30.6046 35.16C31.2245 35.536 31.9548 35.8265 32.7191 35.8265C33.4834 35.8265 34.2136 35.536 34.8336 35.16C36.2432 34.314 37.2622 32.9296 37.8312 31.3744C38.5105 29.503 38.5699 27.8196 38.5699 27.8196C38.7568 23.5214 35.9375 21.3509 32.7191 21.3509C29.5007 21.3509 26.6814 23.5128 26.8682 27.8196C26.8682 27.8196 26.9276 29.4944 27.607 31.3744C28.1759 32.9296 29.1865 34.314 30.6046 35.16ZM46.0173 43.765C45.1936 40.7143 43.8604 39.5694 41.3383 38.7319L37.3047 37.3048C37.3047 37.3048 36.7017 37.0827 35.7676 36.8861C34.7486 37.4843 33.7296 37.7919 32.7276 37.7919C31.7256 37.7919 30.698 37.4843 29.6875 36.8861C28.7534 37.0912 28.1505 37.3048 28.1505 37.3048L24.1169 38.7319C21.5948 39.5694 20.2615 40.7143 19.4378 43.765L18.4188 47.9009H47.0448L46.0258 43.765H46.0173Z" fill="#024731"/>
<path d="M65.4466 17.5922H50.9596C50.0216 17.5922 49.2612 18.3574 49.2612 19.3013V36.4943C49.2612 37.4382 50.0216 38.2034 50.9596 38.2034H65.4466C66.3846 38.2034 67.145 37.4382 67.145 36.4943V19.3013C67.145 18.3574 66.3846 17.5922 65.4466 17.5922Z" fill="#00482F"/>
<path d="M64.0965 31.7235C63.7483 30.4331 63.1878 29.9546 62.1179 29.5957L60.4195 28.989C60.4195 28.989 60.3855 28.9805 60.3345 28.9634C60.2326 29.0403 60.1392 29.1172 60.0288 29.1856C59.5193 29.4932 59.0013 29.647 58.4833 29.647C57.9653 29.647 57.4473 29.4932 56.9378 29.1856C56.8274 29.1172 56.734 29.0403 56.6321 28.9634C56.5812 28.9805 56.5472 28.989 56.5472 28.989L54.8488 29.5957C53.7874 29.9461 53.2184 30.4331 52.8702 31.7235L52.4371 33.4667H64.5295L64.0965 31.7235ZM57.5832 28.0917C57.8464 28.2456 58.1521 28.3738 58.4748 28.3738C58.7975 28.3738 59.1033 28.2541 59.3665 28.0917C59.9609 27.7328 60.394 27.1518 60.6318 26.4938C60.9205 25.6991 60.946 24.9898 60.946 24.9898C61.0224 23.1697 59.8335 22.2554 58.4748 22.2554C57.1161 22.2554 55.9273 23.1697 56.0037 24.9898C56.0037 24.9898 56.0292 25.6991 56.3179 26.4938C56.5557 27.1518 56.9888 27.7328 57.5832 28.0917Z" fill="white"/>
</svg>
