<svg width="100" height="100" viewBox="0 0 100 100" fill="none" xmlns="http://www.w3.org/2000/svg">
<g clip-path="url(#clip0_15980_18041)">
<rect width="100" height="100" fill="white"/>
<path d="M96.8934 63.1618L51.0546 40.4689L49.4161 46.6763L91.5566 72.837C92.4539 73.3928 93.4526 73.6511 94.4279 73.6511C96.3628 73.6511 98.251 72.6256 99.2575 70.8017C100.779 68.0463 99.7022 64.5786 96.8934 63.1696V63.1618Z" fill="#11B67A"/>
<path d="M49.416 46.6776L63.0545 55.1473C63.1091 53.8635 63.1872 52.1649 63.2808 50.5993C63.4603 47.6404 62.0792 46.114 61.6033 45.6991L51.0545 40.4779L49.416 46.6854V46.6776Z" fill="black"/>
<path d="M59.6371 36.7049C56.4382 35.6716 52.4356 33.8478 48.3628 31.5855C44.2899 29.3233 40.6306 26.881 38.0559 24.7127C37.26 24.0395 36.6124 23.4289 36.0818 22.8653L25.143 42.6854C25.1118 42.7323 25.1118 42.795 25.0962 42.8498C26.0949 44.5093 29.996 48.0631 37.0884 52.0005C44.1729 55.9379 49.2444 57.3704 51.1794 57.3469C51.2184 57.3078 51.273 57.2686 51.2964 57.2217L62.2353 37.4016C61.4785 37.2529 60.6203 37.0259 59.6294 36.7049H59.6371Z" fill="#6CF479"/>
<path d="M38.6801 63.2398C23.6528 63.2398 11.4655 67.0128 11.4655 71.6626C11.4655 76.3123 23.6528 80.0853 38.6801 80.0853C53.7074 80.0853 65.8947 76.3123 65.8947 71.6626C65.8947 67.0128 53.7074 63.2398 38.6801 63.2398Z" fill="#6CF479"/>
<path d="M11.4655 71.6564C11.4655 72.0087 11.5435 72.3609 11.684 72.6975C16.0221 73.4647 22.0143 73.723 28.4356 73.2768C40.4434 72.447 49.3849 69.4803 48.4174 66.6466C47.8712 65.0497 44.2822 63.8364 39.1092 63.2337C38.9688 63.2337 38.8283 63.2337 38.6879 63.2337C23.6606 63.2337 11.4733 67.0067 11.4733 71.6564H11.4655Z" fill="#00482F"/>
<path d="M50.8361 62.0358C50.4538 62.2315 49.97 62.3333 49.3771 62.3333C45.7412 62.3333 38.641 58.983 34.6072 56.7442C29.8478 54.0984 21.5383 48.6502 21.507 45.6209C20.9609 45.5817 20.563 45.9575 20.563 45.9575C19.416 47.1003 17.5435 49.386 17.4264 52.1962C17.2704 54.0827 23.0519 58.8421 30.9011 63.2022C38.7503 67.5623 45.8426 69.9576 47.3484 68.8304C49.6657 67.2413 50.602 64.4311 50.9609 62.8577C50.9609 62.8577 51.1092 62.3098 50.8283 62.0358H50.8361Z" fill="#11B67A"/>
<path d="M68.9922 79.1849C68.7425 78.0811 68.0324 76.6799 66.7529 76.3434L66.3316 73.9637C65.5669 75.13 64.2249 76.1711 62.4616 77.0635L63.6085 82.3003C63.0624 82.6056 62.4616 82.8952 61.8062 83.1771L60.6515 77.8698C59.879 78.1751 59.0598 78.4647 58.1859 78.7308L59.3797 84.0851C58.0143 84.5313 56.4928 84.9383 54.8543 85.2906L53.6449 79.8659C49.0728 80.7739 43.8218 81.2436 38.6957 81.2436C26.7347 81.2436 14.1261 78.6995 11.0363 73.948L10.615 76.3355C9.34323 76.6643 8.63318 78.0733 8.38351 79.177C8.3601 79.2866 8.34454 79.3884 8.32893 79.498H8.3055L7.98563 81.2905C7.95442 81.4706 7.931 81.6506 7.931 81.8307C7.931 87.091 21.7021 91.3493 38.6957 91.3493C55.6892 91.3493 69.4603 87.091 69.4603 81.8307C69.4603 81.5958 69.039 79.2866 69.0156 79.177L68.9922 79.1849Z" fill="black"/>
<path d="M7.55651 47.578C11.2392 54.9127 4.66968 57.2454 4.66968 57.2454C12.0429 57.9186 18.8309 59.9303 18.8309 59.9303C12.0585 55.0458 7.55651 47.578 7.55651 47.578ZM29.4343 73.1672C29.4343 73.1672 13.2991 73.6447 19.8686 63.312C19.8686 63.312 11.6293 64.9949 -0.0507812 63.8521C-0.0507812 63.8521 8.59424 65.5977 10.3108 70.4823C12.3082 76.1574 7.63456 81.1673 7.63456 81.1673C7.63456 81.1673 15.5071 76.6976 20.1495 81.316C20.1495 81.316 23.1066 86.1066 21.3355 91.5C21.3355 91.5 26.3524 77.2847 29.4343 73.1672Z" fill="#11B67A"/>
<path d="M58.0299 14.0812C51.8504 10.6448 46.1547 8.5 43.6111 8.5C42.9245 8.5 42.472 8.65656 42.2925 8.9775C41.4421 10.5196 47.1066 15.3024 54.9557 19.6625C61.1352 23.0989 66.8309 25.2437 69.3745 25.2437C70.0611 25.2437 70.5137 25.0872 70.6931 24.7662C71.5436 23.2242 65.879 18.4413 58.0299 14.0812Z" fill="#6CF479"/>
<path d="M50.4772 27.7628C49.3147 27.121 41.052 22.4477 37.7516 18.5416C37.3225 18.7452 36.948 19.0661 36.6983 19.5201C36.2848 20.2716 36.3316 21.1483 36.7373 21.8372C37.2133 22.3695 37.8764 23.027 38.8127 23.8176C41.3329 25.9389 44.922 28.3343 48.9324 30.5652C52.935 32.7883 56.8674 34.573 59.9961 35.5907C61.4395 36.0603 62.4928 36.2873 63.2419 36.3813C63.9285 36.2795 64.5683 35.8725 64.9272 35.2149C65.1847 34.7453 65.2549 34.2208 65.1769 33.7276C61.9155 33.2736 56.3602 31.0349 50.4694 27.7707L50.4772 27.7628Z" fill="#11B67A"/>
<path d="M69.3667 26.4191C66.5267 26.4191 60.6437 24.1725 54.3784 20.6892C50.524 18.5443 47.052 16.2273 44.6021 14.1607C42.0585 12.0159 40.9193 10.4347 41.0286 9.16659C39.9675 10.1529 37.6814 12.6108 37.5565 15.7263C37.4005 17.6128 43.182 22.3721 51.0312 26.7323C57.5696 30.3644 63.5852 32.6344 66.2848 32.6344C66.8231 32.6344 67.2289 32.5405 67.4786 32.3526C70.0689 30.5835 70.9272 27.2959 71.1924 25.8868C70.7555 26.2234 70.1469 26.4035 69.3589 26.4035L69.3667 26.4191Z" fill="#11B67A"/>
<path d="M34.7556 42.3619L42.636 28.0917C40.8882 26.9019 39.554 25.9078 38.5787 25.125L27.398 45.3678C29.3408 47.1134 32.4071 49.3521 36.6672 51.7553C33.8583 49.5556 32.9767 45.5869 34.7556 42.3619Z" fill="#6CF479"/>
<path d="M22.7166 45.6126C22.7322 47.3504 28.3265 51.8749 35.1926 55.687C39.913 58.3094 46.3577 61.1274 49.3772 61.1274C49.861 61.1274 50.134 61.0413 50.2823 60.963C50.2823 60.963 50.8596 60.6812 51.1639 60.1411C51.4682 59.601 51.5151 59.0217 51.3824 58.4816C51.2576 58.4894 51.1328 58.5051 51.0001 58.5051C47.4345 58.5051 40.4825 55.2252 36.5267 53.0256C32.4851 50.779 25.8297 46.4737 24.1054 43.4287C23.6217 43.6243 23.2081 43.9688 22.9272 44.4541C22.6464 44.9394 22.7088 45.6126 22.7088 45.6126H22.7166Z" fill="#11B67A"/>
</g>
<defs>
<clipPath id="clip0_15980_18041">
<rect width="100" height="100" fill="white"/>
</clipPath>
</defs>
</svg>
