<svg width="100" height="100" viewBox="0 0 100 100" fill="none" xmlns="http://www.w3.org/2000/svg">
<g clip-path="url(#clip0_15980_18060)">
<path d="M49.7294 97.0064C68.6985 97.1252 75.8169 86.8637 75.8169 86.8637C77.3045 84.0408 78.7221 81.6934 77.1447 77.2064L61.3904 36.2001L61.5102 17.3609L50.2385 18.3217H50.4582L39.1965 17.2222L39.0767 36.0614L22.7932 76.8697C22.0445 80.901 22.7134 83.4465 24.161 86.2892C24.161 86.2892 30.9799 96.8875 49.949 97.0064" fill="#6CF479"/>
<path d="M49.7094 100.087C69.0878 100.206 76.1863 89.4688 76.1863 89.4688C77.5515 87.3237 78.1261 84.3051 77.9771 81.4479C77.9584 81.2973 77.8062 80.314 77.9584 80.3068L70.9697 83.7735H49.0055C49.0055 83.7735 40.2495 83.429 34.0299 82.783C29.1309 82.2741 22.7633 77.157 22.7633 77.157C21.5553 82.1689 21.7449 86.9035 23.5919 89.142C23.5919 89.142 30.5506 99.968 49.929 100.087" fill="white"/>
<path d="M49.8991 97.2542C68.8682 97.3731 75.8169 86.8637 75.8169 86.8637C75.8169 86.8637 78.1032 84.1203 77.7937 80.0196C77.7937 80.0196 78.173 72.0759 49.4299 71.8085C22.3939 71.5608 22.7633 77.157 22.7633 77.157C22.0145 81.1883 22.8731 83.6944 24.3307 86.5371C24.3307 86.5371 31.1496 97.1354 50.1187 97.2542" fill="black"/>
<path d="M69.5271 90.8553C66.562 91.41 63.1276 93.9655 59.4436 94.2725L59.4136 99.1556C65.1343 98.2048 68.369 96.6992 69.8566 95.164L69.8766 91.4397C68.978 91.6675 70.6253 90.6572 69.5271 90.8553Z" fill="black"/>
<path d="M53.4938 49.6014C56.2479 49.6014 58.4813 47.3857 58.4813 44.6533C58.4813 41.9209 56.2479 39.6965 53.4938 39.6965C50.7397 39.6965 48.5063 41.9122 48.5063 44.6446C48.5063 47.377 50.7397 49.5927 53.4938 49.5927V49.6014Z" fill="#024731"/>
<path d="M53.7321 42.7352C53.7321 42.7352 57.0865 43.0855 56.3186 47.4993C57.0689 46.7724 57.5279 45.7653 57.5279 44.6443C57.5279 42.4374 55.7271 40.6421 53.4938 40.6421C53.2113 40.6421 52.9377 40.6684 52.6817 40.7209C53.1937 40.8347 53.997 41.2464 53.7321 42.7264V42.7352Z" fill="#54B27F"/>
<path d="M46.5096 32.7534C48.1637 32.7534 49.5047 31.423 49.5047 29.7819C49.5047 28.1408 48.1637 26.8104 46.5096 26.8104C44.8554 26.8104 43.5145 28.1408 43.5145 29.7819C43.5145 31.423 44.8554 32.7534 46.5096 32.7534Z" fill="#024731"/>
<path d="M28.2743 68.8567C28.2743 68.8567 29.4723 65.3801 34.1547 64.2806C39.9653 62.9137 42.6309 67.6879 47.7426 65.5484C48.2318 65.3404 54.9409 59.9423 55.2803 59.8234C62.858 57.1689 48.0521 86.1111 25.5587 75.909L28.2743 68.8666V68.8567Z" fill="#11B67A"/>
<path d="M50.0089 94.1737C67.2308 94.2826 73.5406 84.7442 73.5406 84.7442C75.737 81.8223 75.8568 78.8112 74.8884 76.2062L66.8614 55.9209C50.1986 47.0659 49.5397 67.8266 39.9852 71.8975C33.5457 74.6412 27.256 72.9177 28.2743 68.8666L25.5587 75.909C24.8798 79.5738 24.8698 82.0105 26.8067 84.457C26.8067 84.457 32.9966 94.0746 50.2086 94.1836" fill="#024731"/>
<path d="M64.665 73.9376C69.9065 82.9115 57.6265 88.8742 57.6265 88.8742C68.2592 87.2102 71.0646 81.2573 71.0646 81.2573C73.6704 78.058 66.1526 64.6666 66.1526 64.6666C62.5684 66.5386 61.62 69.4606 64.675 73.9376H64.665Z" fill="white"/>
<path d="M38.5077 17.2222L62.1492 17.3708V19.4508C62.1292 21.0158 56.4584 22.4421 50.6679 22.452C44.5977 22.452 38.3779 20.9168 38.3978 18.9259L38.5077 17.2321V17.2222Z" fill="black"/>
<path d="M36.3012 13.5603V15.2014C36.2812 18.1927 42.6409 20.659 50.5081 20.7086C58.3752 20.7581 64.7648 18.371 64.7848 15.3797H64.8048V13.686C64.8012 13.6835 64.7976 13.681 64.7939 13.6785C64.8028 10.6895 58.4436 8.22789 50.5817 8.17889C42.7136 8.12984 36.3198 10.5157 36.3009 13.508C36.3008 13.5254 36.3009 13.5429 36.3012 13.5603Z" fill="white"/>
<path d="M61.2302 13.2547C61.2414 11.4823 56.4947 10.0159 50.628 9.97931C44.7614 9.94273 39.9964 11.3499 39.9852 13.1222C39.974 14.8946 44.7207 16.361 50.5874 16.3976C56.454 16.4341 61.219 15.027 61.2302 13.2547Z" fill="#6CF479"/>
<path d="M64.8248 13.4287C64.3256 15.4493 58.7247 17.8165 54.0124 18.2226C58.7846 18.3316 64.2258 16.41 64.8148 14.9837L64.8348 13.4287H64.8248Z" fill="black"/>
<path d="M61.2302 13.2547C61.2414 11.4823 56.4947 10.0159 50.628 9.97931C44.7614 9.94273 39.9964 11.3499 39.9852 13.1222C39.974 14.8946 44.7207 16.361 50.5874 16.3976C56.454 16.4341 61.219 15.027 61.2302 13.2547Z" fill="#6CF479"/>
<path d="M47.1683 13.0447C47.1683 14.6211 49.2958 14.9343 49.2958 14.9343C46.2584 14.7929 42.5161 14.0451 42.5161 12.9335C42.5161 11.822 47.0017 10.9428 52.4998 10.9731C52.4998 10.9731 47.1683 11.2864 47.1683 13.0447Z" fill="white"/>
<path d="M55.3221 5.08933C56.7142 5.08933 57.8427 3.96972 57.8427 2.58861C57.8427 1.2075 56.7142 0.0878906 55.3221 0.0878906C53.93 0.0878906 52.8015 1.2075 52.8015 2.58861C52.8015 3.96972 53.93 5.08933 55.3221 5.08933Z" fill="#024731"/>
</g>
<defs>
<clipPath id="clip0_15980_18060">
<rect width="100" height="100" fill="white"/>
</clipPath>
</defs>
</svg>
