<svg width="100" height="100" viewBox="0 0 100 100" fill="none" xmlns="http://www.w3.org/2000/svg">
<g clip-path="url(#clip0_15980_18072)">
<rect width="100" height="100" fill="white"/>
<path d="M99.0939 86.607L86.7823 72.1959C85.8774 71.1311 85.3737 69.7831 85.3737 68.3969H85.3645V26.8391C85.3645 25.7559 84.4826 24.8746 83.3986 24.8746L83.4062 24.867H16.4849C15.4009 24.867 14.519 25.7482 14.519 26.8315V68.3954H14.5144C14.5144 69.803 14.0321 71.1494 13.1057 72.1944L0.795702 86.607C0.252162 87.2496 -0.0494651 87.3643 -0.0494651 88.2089V88.9418C-0.0494651 89.9271 0.754362 90.022 1.74039 90.022H98.1476C99.1337 90.022 99.9375 89.9271 99.9375 88.9418V88.2089C99.9375 87.3643 99.6359 87.2496 99.0939 86.607Z" fill="#11B67A"/>
<path d="M84.113 71.9318H15.1354L9.48717 78.9943H89.7612L84.113 71.9318Z" fill="#6CF479"/>
<path d="M65.5339 79.7727H33.7131L31.1071 85.7794H68.1398L65.5339 79.7727Z" fill="#6CF479"/>
<path d="M34.1165 80.2179H63.6606C63.6606 80.2179 41.2529 80.5897 32.1352 84.8094L34.1165 80.2179Z" fill="#11B67A"/>
<path d="M59.0256 74.2126C59.4145 74.1774 59.7972 74.1422 60.1739 74.1085H59.0041L59.0256 74.2126Z" fill="#11B67A"/>
<path d="M58.6392 72.2804L58.8627 73.4004H61.8315L61.5238 72.2804H58.6392Z" fill="#11B67A"/>
<path d="M48.1351 74.1085L48.0907 75.2102C49.2406 75.1046 50.3521 75.0021 51.4285 74.9042L51.3963 74.1085H48.1336H48.1351Z" fill="#11B67A"/>
<path d="M51.3257 72.2804H48.2084L48.164 73.4004H51.3701L51.3257 72.2804Z" fill="#11B67A"/>
<path d="M55.5531 74.1085L55.6036 74.5232C56.657 74.4268 57.669 74.335 58.6443 74.2478L58.6168 74.1101H55.5515L55.5531 74.1085Z" fill="#11B67A"/>
<path d="M79.0078 72.2804L79.1195 72.4487C79.9693 72.3783 80.6614 72.3232 81.2233 72.2804H79.0078Z" fill="#11B67A"/>
<path d="M54.969 72.2804H51.6802L51.7246 73.4004H55.1068L54.969 72.2804Z" fill="#11B67A"/>
<path d="M58.2541 72.2804H55.3267L55.466 73.4004H58.4777L58.2541 72.2804Z" fill="#11B67A"/>
<path d="M51.7535 74.1085L51.7841 74.872C52.9845 74.7619 54.1389 74.6563 55.2521 74.5553L55.1969 74.1085H51.7535Z" fill="#11B67A"/>
<path d="M72.5588 72.2804L72.917 72.9766C73.7913 72.9001 74.5951 72.8312 75.3331 72.7685L75.0453 72.2819H72.5588V72.2804Z" fill="#11B67A"/>
<path d="M69.3066 72.2804L69.7383 73.255C70.5958 73.18 71.3981 73.1097 72.1529 73.0423L71.7609 72.2804H69.3066Z" fill="#11B67A"/>
<path d="M65.6421 72.2804L66.0448 73.4004H68.0904C68.4747 73.3667 68.8513 73.333 69.2173 73.3009L68.7656 72.2804H65.6421Z" fill="#11B67A"/>
<path d="M75.8712 72.2804L76.1192 72.7012C76.9353 72.6323 77.6641 72.5696 78.3133 72.516L78.1571 72.2804H75.8696H75.8712Z" fill="#11B67A"/>
<path d="M61.9647 72.2804L62.274 73.4004H65.5413L65.1387 72.2804H61.9647Z" fill="#11B67A"/>
<path d="M41.2803 72.2804L41.0568 73.4004H44.0684L44.2078 72.2804H41.2803Z" fill="#11B67A"/>
<path d="M42.7423 75.7029C43.0959 75.6708 43.4466 75.6386 43.7941 75.6065L43.9794 74.1102H40.9141L40.5956 75.7029H42.7423Z" fill="#11B67A"/>
<path d="M32.8366 76.6193C33.5945 76.5489 34.3433 76.4801 35.0797 76.4112H32.9117L32.8366 76.6193Z" fill="#11B67A"/>
<path d="M21.286 77.6964C22.318 77.6 23.3331 77.5052 24.3299 77.4119L24.8443 76.4112H22.0439L21.2845 77.6964H21.286Z" fill="#11B67A"/>
<path d="M25.1705 77.3339C26.1673 77.2406 27.1456 77.1503 28.1087 77.0601L28.3965 76.4129H25.6452L25.1705 77.3355V77.3339Z" fill="#11B67A"/>
<path d="M28.6753 77.0064C29.9155 76.8901 31.1296 76.7784 32.3162 76.6683L32.4081 76.4112H28.9386L28.6753 77.0064Z" fill="#11B67A"/>
<path d="M12.1447 76.4112L11.7696 76.881L10.4574 78.6328H11.2857C11.7298 78.5915 12.1722 78.5502 12.6117 78.5089L14.1611 76.4112H12.1447Z" fill="#11B67A"/>
<path d="M37.0681 75.7028H40.2114L40.5299 74.1085H37.506L37.0681 75.7028Z" fill="#11B67A"/>
<path d="M44.4263 73.4004H47.8085L47.8529 72.2804H44.5641L44.4263 73.4004Z" fill="#11B67A"/>
<path d="M17.2131 72.2804H15.4493L14.5536 73.4004H16.3848L17.2131 72.2804Z" fill="#11B67A"/>
<path d="M44.1574 75.5729C45.3869 75.4596 46.5812 75.3495 47.7356 75.2439L47.7815 74.1102H44.3396L44.159 75.5729H44.1574Z" fill="#11B67A"/>
<path d="M17.5548 78.0453C18.5209 77.955 19.4748 77.8647 20.4134 77.7775L21.2202 76.4112H18.6358L17.5533 78.0453H17.5548Z" fill="#11B67A"/>
<path d="M37.5686 72.2804H34.3946L33.9935 73.4004H37.2593L37.5686 72.2804Z" fill="#11B67A"/>
<path d="M15.0433 76.4112L13.5597 78.4201C14.6054 78.3222 15.6343 78.2258 16.6479 78.131L17.7871 76.4128H15.0418L15.0433 76.4112Z" fill="#11B67A"/>
<path d="M30.2275 72.2804H27.7731L27.1974 73.4004H29.7314L30.2275 72.2804Z" fill="#11B67A"/>
<path d="M29.4163 74.1085H26.8303L26.0096 75.7028H28.709L29.4163 74.1085Z" fill="#11B67A"/>
<path d="M33.1658 75.7028H36.6261L37.0655 74.1085H33.7384L33.1658 75.7028Z" fill="#11B67A"/>
<path d="M40.8943 72.2804H38.0097L37.7019 73.4004H40.6707L40.8943 72.2804Z" fill="#11B67A"/>
<path d="M26.9741 72.2804H24.4876L23.8247 73.4004H26.3969L26.9741 72.2804Z" fill="#11B67A"/>
<path d="M33.8917 72.2804H30.7697L30.2737 73.4004H33.489L33.8917 72.2804Z" fill="#11B67A"/>
<path d="M29.9595 74.1085L29.2537 75.7028H32.6634L33.2361 74.1085H29.9595Z" fill="#11B67A"/>
<path d="M20.5262 72.2804H18.0948L17.2665 73.4004H19.7836L20.5262 72.2804Z" fill="#11B67A"/>
<path d="M15.5671 75.7028H18.2572L19.3137 74.1085H16.743L15.5671 75.7028Z" fill="#11B67A"/>
<path d="M26.0332 74.1085H23.4074L22.4658 75.7028H25.2126L26.0332 74.1085Z" fill="#11B67A"/>
<path d="M15.8603 74.1085H13.9862L12.7108 75.7028H14.6844L15.8603 74.1085Z" fill="#11B67A"/>
<path d="M22.5817 74.1085H20.1641L19.1077 75.7028H21.6401L22.5817 74.1085Z" fill="#11B67A"/>
<path d="M23.6629 72.2804H21.377L20.6344 73.4004H23.0015L23.6629 72.2804Z" fill="#11B67A"/>
<path d="M-0.0625 87.7887V88.9943C-0.0625 89.9797 0.741327 90.0745 1.72736 90.0745H98.1346C99.1206 90.0745 99.9245 89.9797 99.9245 88.9943V87.7887H-0.0625Z" fill="black"/>
<path d="M89.2136 10.8691C89.2136 10.8691 91.2162 17.4864 99.3173 19.3193C99.3173 19.3193 93.1791 20.3766 93.0505 27.745C93.0505 27.745 90.8932 21.3619 83.1244 19.3117C83.1244 19.3117 89.6178 18.5375 89.2136 10.8691Z" fill="#11B67A"/>
<path d="M15.9573 26.4674V67.5203H83.9489V26.4674H15.9573Z" fill="black"/>
<path d="M18.5774 29.0687H25.5653C25.5653 29.0687 20.5923 31.4799 18.5774 41.0455V29.0687Z" fill="white"/>
</g>
<defs>
<clipPath id="clip0_15980_18072">
<rect width="100" height="100" fill="white"/>
</clipPath>
</defs>
</svg>
