<svg width="100" height="100" viewBox="0 0 100 100" fill="none" xmlns="http://www.w3.org/2000/svg">
<g clip-path="url(#clip0_15980_18088)">
<rect width="100" height="100" fill="white"/>
<path d="M86.6341 45.5465C86.1002 45.1055 85.8913 44.3859 86.1157 43.7282C87.0597 40.989 87.5626 38.1029 87.5626 35.1162C87.5626 32.1294 87.0597 29.2356 86.1079 26.4964C85.8526 25.7614 86.1466 24.9412 86.8121 24.5311L99.6875 16.6464L85.0479 21.1265C84.336 21.3432 83.5623 21.0646 83.1599 20.4301C80.3357 16.0119 76.2734 12.1896 71.3523 9.27246C79.0899 16.4839 83.9337 26.7595 83.9337 38.1725C83.9337 43.1943 82.9974 47.9916 81.2874 52.4098C82.4093 51.0016 83.392 49.5159 84.2354 47.9684C84.5991 47.303 85.3651 46.9625 86.1002 47.1482L89.6673 48.038L86.6264 45.5388L86.6341 45.5465Z" fill="#11B67A"/>
<path d="M9.46788 33.2438C9.87024 33.5765 10.025 34.1181 9.85476 34.6056C9.15063 36.6561 8.77149 38.8226 8.77149 41.0588C8.77149 43.295 9.15063 45.4615 9.85476 47.512C10.0482 48.0613 9.82381 48.6726 9.3286 48.9821L-0.3125 54.8859L10.6517 51.5278C11.1856 51.3653 11.766 51.5742 12.0677 52.0462C14.1801 55.3579 17.221 58.2131 20.9118 60.4029C15.1164 55.002 11.4874 47.3031 11.4874 38.753C11.4874 34.9925 12.1915 31.4022 13.4682 28.0905C12.6326 29.1428 11.8898 30.257 11.263 31.4177C10.9922 31.9206 10.4119 32.1682 9.8625 32.0289L7.19301 31.3635L9.46788 33.236V33.2438Z" fill="#11B67A"/>
<path d="M59.0996 76.0027C60.709 68.2573 63.7422 60.8756 68.0753 54.2522C70.5745 50.4375 72.0215 45.8801 72.0215 40.9899C72.0215 27.6037 61.181 16.7556 47.8026 16.7401C34.5403 16.7246 23.6689 27.4567 23.5219 40.719C23.4678 45.7253 24.9302 50.3911 27.4836 54.2754C31.8167 60.8833 34.8344 68.265 36.4438 76.0027C36.4438 76.0027 36.5599 78.5871 47.6247 78.5871C59.2079 78.5871 59.1073 76.0027 59.1073 76.0027H59.0996Z" fill="#6CF479"/>
<path d="M48.2825 19.727H48.1355C55.525 19.9901 63.309 25.9481 63.4096 32.3316C65.8702 33.3298 68.5629 35.6588 69.5301 40.9746C69.5301 35.3029 67.3171 29.9639 63.309 25.9481C59.2932 21.9323 53.9619 19.727 48.2825 19.727Z" fill="white"/>
<path d="M47.7724 88.4914C45.7296 88.4914 43.8107 88.3908 42.1548 88.2051C42.9054 89.7681 45.5749 90.8514 47.4551 90.8514C48.136 90.8514 47.4087 90.8514 48.0896 90.8514C49.9776 90.8514 52.6393 89.7681 53.3899 88.2051C51.7263 88.3831 49.8151 88.4914 47.7724 88.4914Z" fill="#006A4D"/>
<path d="M47.7719 85.1174C41.458 85.1174 36.3434 84.1193 36.3434 82.8812V84.2508C36.3434 84.2508 36.3434 85.1252 36.3434 85.1406C36.3434 86.3709 41.458 87.3768 47.7719 87.3768C54.0859 87.3768 59.2004 86.3786 59.2004 85.1406C59.2004 85.1329 59.2004 84.2585 59.2004 84.2508V82.8812C59.2004 84.1115 54.0859 85.1174 47.7719 85.1174Z" fill="#006A4D"/>
<path d="M59.2004 77.7512C59.2004 78.9815 54.0859 79.9874 47.7719 79.9874C41.458 79.9874 36.3434 78.9892 36.3434 77.7512V82.2545C36.3434 82.2545 36.3434 82.27 36.3434 82.2777C36.3434 83.508 41.458 84.5139 47.7719 84.5139C54.0859 84.5139 59.2004 83.5157 59.2004 82.2777C59.2004 82.27 59.2004 82.2545 59.2004 82.2545V77.7512Z" fill="#006A4D"/>
<path d="M41.9454 84.9243V84.8082C41.69 84.7772 41.4424 84.7463 41.1948 84.7153C40.5062 84.6225 39.8717 84.5142 39.2991 84.3904V86.642C39.8949 86.7658 40.5681 86.8819 41.2954 86.9825C41.3496 86.9902 41.4115 86.9979 41.4656 87.0057C41.6204 87.0289 41.7751 87.0444 41.9376 87.0676C42.3168 87.1063 42.6959 87.145 43.0983 87.1837C42.0692 87.0366 41.9454 85.2492 41.9376 84.9243H41.9454Z" fill="black"/>
<path d="M41.0872 84.0887C41.0872 84.0887 41.1259 84.0887 41.1491 84.0965C41.242 84.112 41.3348 84.1197 41.4277 84.1352C41.5515 84.1506 41.683 84.1661 41.8068 84.1816C41.8532 84.1816 41.8919 84.1971 41.9383 84.1971C42.4722 84.259 43.0293 84.3131 43.6097 84.3596C41.8997 84.228 41.9461 82.4793 41.9461 82.4793V79.6783C40.9634 79.5622 40.0736 79.4229 39.3075 79.2527V83.7792C39.8414 83.8953 40.4372 83.9959 41.0872 84.0887Z" fill="black"/>
<path fill-rule="evenodd" clip-rule="evenodd" d="M50.7351 28.1678C48.3983 33.7389 46.0538 39.31 43.717 44.8888C42.8969 45.2912 40.1577 46.6375 39.6084 46.9006C43.3147 40.6563 47.0288 34.4121 50.7351 28.1678Z" fill="#006A4D"/>
<path fill-rule="evenodd" clip-rule="evenodd" d="M57.5981 42.2578C53.5358 48.5176 49.4735 54.7851 45.4113 61.0448C47.632 55.6594 49.8527 50.2663 52.0734 44.8809C53.9149 44.0065 55.7565 43.1322 57.5981 42.2578Z" fill="black"/>
<path fill-rule="evenodd" clip-rule="evenodd" d="M57.6677 42.1808L57.5981 42.2659C55.7565 43.1402 53.915 44.0146 52.0734 44.8889L43.717 44.8888C45.7056 43.9139 47.6939 42.9391 49.6825 41.9641C49.6825 41.9796 49.6825 41.9873 49.6748 42.0028C52.3442 42.0647 55.006 42.1266 57.6755 42.1885L57.6677 42.1808Z" fill="#006A4D"/>
<path fill-rule="evenodd" clip-rule="evenodd" d="M52.0734 44.8809C50.0152 45.8558 47.9648 46.8315 45.9066 47.8065H37.8749L37.9523 47.7059C39.8712 46.7619 41.7902 45.8256 43.7091 44.8817H52.0658L52.0734 44.8809Z" fill="#006A4D"/>
<path fill-rule="evenodd" clip-rule="evenodd" d="M50.7351 28.1678C50.3792 32.7639 50.03 37.3602 49.674 41.9564C48.8229 42.3742 47.964 42.792 47.1129 43.2099C45.9754 43.767 44.8465 44.3245 43.7091 44.8817C46.0459 39.3106 48.3896 33.739 50.7264 28.1602L50.7351 28.1678Z" fill="#006A4D"/>
<path d="M52.0734 44.8809C51.0211 47.4266 46.5874 58.2051 45.4113 61.0448C45.5892 56.6343 45.7672 52.2162 45.9452 47.8058H45.8988C46.6725 47.4343 47.4463 47.0707 48.22 46.6993C49.5045 46.088 50.7812 45.4845 52.0657 44.8732L52.0734 44.8809Z" fill="#006A4D"/>
<path d="M50.7351 28.1678C50.5881 28.0981 46.3249 34.6138 37.9528 47.7136C38.5022 47.4428 39.0515 47.172 39.6009 46.9012C47.1606 34.4822 50.8746 28.238 50.7276 28.1683L50.7351 28.1678Z" fill="black"/>
</g>
<defs>
<clipPath id="clip0_15980_18088">
<rect width="100" height="100" fill="white"/>
</clipPath>
</defs>
</svg>
