<svg width="100" height="100" viewBox="0 0 100 100" fill="none" xmlns="http://www.w3.org/2000/svg">
<g clip-path="url(#clip0_15980_18132)">
<path d="M52.2429 55.5671L26.2442 98.1882C24.8758 100.431 21.9455 101.142 19.6941 99.7794C17.4427 98.4163 16.7283 95.4974 18.0967 93.2547L43.9833 50.8223L52.2538 55.5667L52.2429 55.5671Z" fill="#11B67A"/>
<path d="M52.2538 55.5667L52.2429 55.5671L26.2442 98.1882C24.8758 100.431 21.9455 101.142 19.6941 99.7794C17.5345 98.4719 16.7896 95.7338 17.94 93.5333C18.5467 95.7644 21.7062 97.4119 24.4785 93.7193C32.7023 82.7761 47.4121 59.1908 50.3424 54.4703L52.2538 55.5667Z" fill="#006A4D"/>
<path d="M38.7755 47.0996L39.1015 47.4028C38.9928 47.2945 38.8841 47.1971 38.7863 47.0888L38.7755 47.0996ZM74.7075 40.3114C63.4366 52.1556 47.4922 55.3386 39.1015 47.4136L44.3511 52.3721C52.7418 60.2971 68.6753 57.1141 79.957 45.27C91.2279 33.4258 92.7713 19.7087 83.772 8.57908L79.9353 4.51916C88.326 12.4441 85.9783 28.4673 74.7075 40.3114ZM79.5984 4.21602C79.7071 4.31346 79.8157 4.41089 79.9244 4.51916L79.5984 4.21602Z" fill="#11B67A"/>
<path d="M43.7639 11.2641C51.6981 2.80862 62.2407 -0.948167 70.4358 0.95729C73.1203 1.58522 75.5332 2.80861 77.5439 4.67077C85.6628 12.2493 83.7065 27.4713 73.1638 38.6875C65.2296 47.1321 54.6761 50.8997 46.4811 48.9943C43.7965 48.3664 41.3837 47.143 39.3729 45.2808C31.254 37.7023 33.2104 22.4803 43.753 11.2641H43.7639Z" fill="#035D3E"/>
<path d="M48.0244 15.2591C39.199 24.6456 36.7753 37.0203 41.7097 44.6746C40.6989 44.1116 39.7533 43.4729 38.9055 42.6825C31.2431 35.5479 34.2537 22.2746 44.1986 11.6972C54.1326 1.10891 67.2186 -2.75614 74.881 4.3785C75.7288 5.16883 76.4461 6.07826 77.0765 7.03098C69.088 2.62462 56.8498 5.8509 48.0244 15.2483V15.2591Z" fill="black"/>
<path d="M43.7639 11.2641C33.2212 22.4803 31.2758 37.7027 39.3839 45.2812C41.3946 47.1542 43.8075 48.3776 46.492 48.9947C54.6871 50.8893 65.2406 47.1325 73.1748 38.6879C83.7174 27.4717 85.6629 12.2497 77.5549 4.67115C75.5441 2.79817 73.1313 1.57478 70.4467 0.957675C62.2517 -0.936955 51.6981 2.81944 43.7639 11.2641ZM75.6528 6.68487C82.6523 13.1916 80.6307 26.7138 71.1532 36.8041C64.1863 44.1986 54.5349 48.0311 47.1224 46.3097C44.84 45.7792 42.8728 44.7615 41.2751 43.2675C34.2756 36.7608 36.2972 23.2385 45.7747 13.1483C52.7416 5.7538 62.393 1.92123 69.8055 3.64264C72.0879 4.17313 74.0551 5.19082 75.6528 6.68487Z" fill="#6CF479"/>
<path d="M64.5344 9.59689C64.5344 9.59689 60.4477 16.6882 50.5898 16.6233C50.5898 16.6233 57.4045 19.4923 55.5568 28.0019C55.5568 28.0019 59.7739 21.2245 69.2949 20.9538C69.2949 20.9538 62.002 18.323 64.5344 9.60771V9.59689Z" fill="white"/>
<path d="M89.3258 20.6507L84.924 15.9953C85.1957 20.694 83.9784 25.9124 81.3916 30.9575L82.8806 32.3433C85.1413 34.4436 85.5543 37.8864 82.598 42.2062C87.9672 35.6995 90.5105 27.7096 89.3258 20.6507Z" fill="#006A4D"/>
<path d="M99.4299 89.4044C99.4299 89.4044 88.2068 83.4124 75.278 91.5396C75.278 91.5396 81.8896 82.2095 72.4477 72.4886C72.4477 72.4886 83.5727 77.9618 96.3506 70.5489C96.3506 70.5489 88.9087 79.9616 99.4224 89.3894L99.4375 89.4044H99.4299Z" fill="white"/>
<path d="M14.7026 36.2458C14.7026 36.2458 11.8716 26.9187 0.4375 24.3451C0.4375 24.3451 9.11386 22.8575 9.29709 12.4718C9.29709 12.4718 12.3572 21.4612 23.3332 24.3451C23.3332 24.3451 14.1529 25.422 14.7301 36.2458H14.7026Z" fill="white"/>
</g>
<defs>
<clipPath id="clip0_15980_18132">
<rect width="100" height="100" fill="white"/>
</clipPath>
</defs>
</svg>
