<svg width="100" height="100" viewBox="0 0 100 100" fill="none" xmlns="http://www.w3.org/2000/svg">
<g clip-path="url(#clip0_15980_18188)">
<path d="M13.0056 70.5299C13.0056 70.5299 15.5412 52.5207 51.0286 54.2436C80.643 55.6848 106.226 73.098 98.3596 86.1227C91.9989 96.6443 49.8366 98.7789 29.0643 92.2341C8.29202 85.6892 13.0056 70.5191 13.0056 70.5191V70.5299Z" fill="#6CF479"/>
<path d="M83.1245 65.6446C83.1245 65.6446 95.8891 71.5935 97.2869 81.2266C97.2869 81.2266 93.1585 74.6059 84.9232 73.9666C84.9232 73.9666 86.4727 69.4372 83.1245 65.6446Z" fill="white"/>
<path d="M35.8043 93.4694C30.939 92.1474 25.6403 89.6226 23.3431 85.1366C22.2595 83.0236 21.6202 80.6072 22.1728 78.1258C24.275 68.6011 36.8121 69.2079 36.8121 69.2079C84.4573 71.7652 81.0873 61.5253 81.0873 61.5253C72.6679 57.5702 62.1355 54.7854 51.0395 54.2436C15.5522 52.5207 13.0166 70.5299 13.0166 70.5299C13.0166 70.5299 11.868 74.2466 13.2224 78.7976C6.30917 81.3441 3.42683 83.7496 3.42683 83.7496C3.42683 83.7496 -12.1443 94.6288 25.131 98.6056C66.914 103.07 86.9062 96.7093 94.8922 89.3734C83.9047 96.265 49.4033 97.1644 35.8152 93.4694H35.8043Z" fill="#024731"/>
<path d="M85.8118 44.418C85.8118 44.418 83.9806 29.7354 54.6046 31.946C32.2611 33.6363 16.7875 44.6889 20.9593 52.4474C25.1311 60.2058 57.1402 62.9798 73.0039 59.1006C88.8675 55.2213 85.8118 44.418 85.8118 44.418Z" fill="#11B67A"/>
<path d="M75.3769 37.2218C75.3769 37.2218 84.3815 39.9416 83.1137 47.8735C83.1137 47.8735 80.6756 43.2249 73.3723 44.9261C73.3723 44.9261 77.6091 41.9788 75.3877 37.2218H75.3769Z" fill="white"/>
<path d="M20.9701 52.4555C23.029 56.2805 31.8818 58.9028 42.2084 60.0948C42.3818 60.1164 42.5551 60.1381 42.7393 60.1598V60.1164C33.5397 59.3254 30.8849 54.3409 31.4159 50.375C32.2611 44.036 43.0644 43.4617 43.0644 43.4617C70.8909 41.5763 73.2531 34.4572 73.4481 33.3952C73.4481 33.3952 67.0875 31.0439 54.6046 31.9541C32.2611 33.5795 16.7875 44.697 20.9593 52.4555H20.9701Z" fill="#024731"/>
<path d="M74.5642 23.1878C74.1525 28.7466 67.3909 35.0531 53.1309 37.3286C40.3555 39.3766 29.3679 37.2852 28.4794 31.8782C27.5908 26.4711 38.1449 19.1569 50.6928 15.9278C65.6897 12.0702 75.0627 16.4046 74.5642 23.1878Z" fill="#6CF479"/>
<path d="M53.8244 14.9535C48.7965 16.243 41.4498 18.5727 37.9824 20.8699C37.7115 21.7042 37.7873 22.4953 38.2208 23.1888C39.6944 25.5401 46.8244 27.0138 55.3306 24.1748C62.8073 21.6826 68.4094 17.9009 67.9435 15.2678C64.3785 14.1517 60.0333 13.3498 53.8244 14.9427V14.9535Z" fill="#024731"/>
<path d="M39.2501 10.5552C40.3012 15.0087 45.3941 18.8446 54.5504 17.9886C62.7531 17.2193 69.2438 13.4267 69.0162 8.85399C68.7887 4.28126 61.2036 0.337015 52.9791 0.0986265C43.151 -0.183105 37.9715 5.12646 39.261 10.5661L39.2501 10.5552Z" fill="#11B67A"/>
<path d="M69.5581 18.64C69.5581 18.64 72.3104 19.5503 72.2021 22.606C72.0937 25.6617 68.9188 29.1833 63.4142 32.1307C63.4142 32.1307 69.9807 25.445 69.5581 18.64Z" fill="white"/>
<path d="M55.4606 2.66564C55.4606 2.66564 60.4342 3.2291 64.3568 5.84054C68.2794 8.45198 66.4806 11.2801 64.8878 12.7538C64.8878 12.7538 65.3104 6.85911 58.2129 7.76932C58.2129 7.76932 59.3832 5.04952 55.4606 2.66564Z" fill="white"/>
</g>
<defs>
<clipPath id="clip0_15980_18188">
<rect width="100" height="100" fill="white"/>
</clipPath>
</defs>
</svg>
