<svg width="100" height="100" viewBox="0 0 100 100" fill="none" xmlns="http://www.w3.org/2000/svg">
<rect width="100" height="100" fill="white"/>
<path d="M93.6343 32.0514C93.5367 31.3493 93.0776 30.7323 92.3444 30.3065H92.3402L63.4327 13.4306C62.8137 13.0733 62.0867 12.903 61.3534 12.903C60.2005 12.903 59.0351 13.3268 58.2707 14.1286L47.9549 24.918V24.9263C49.8785 27.2695 51.4448 29.9637 52.4418 32.8304C54.6417 39.1536 54.0767 44.5089 51.0272 47.3423L50.9774 47.388L46.9578 50.7635C45.3542 52.0598 43.2603 52.7972 40.7571 52.7972H40.7031C34.2906 52.7972 28.8398 52.2176 24.519 49.4341L11.5526 62.9967C10.9959 63.5804 10.7404 64.2742 10.8401 64.9535C10.9419 65.6597 11.401 66.2767 12.1343 66.7025L41.0459 83.5804C42.6392 84.5028 44.9533 84.187 46.2038 82.8783L92.9177 34.0123C93.4744 33.4328 93.7299 32.7348 93.6302 32.0555H93.6343V32.0514Z" fill="#11B67A"/>
<path d="M27.2998 46.5262L24.5245 49.4323C28.8453 52.2159 34.294 52.7934 40.7045 52.7975C36.1719 52.7747 31.284 50.3359 27.3019 46.5283L27.2998 46.5262Z" fill="#006A4D"/>
<path d="M24.3266 32.4648C27.6025 41.8749 36.7778 49.5047 44.819 49.5089C47.3179 49.5089 49.3744 48.6863 50.9781 47.3859L46.9586 50.7615C45.3549 52.0577 43.261 52.7951 40.7579 52.7951C32.7167 52.791 23.5434 45.1611 20.2655 35.751C20.2385 35.6721 20.2115 35.5952 20.1886 35.5205L24.2933 32.3609C24.3037 32.3941 24.3162 32.4295 24.3266 32.4627V32.4669V32.4648Z" fill="black"/>
<path d="M94.8824 38.5596L94.3777 33.9211C94.2115 34.2285 94.0017 34.5235 93.7399 34.7977L47.026 83.6637C46.0518 84.6836 44.5686 85.2299 43.1 85.2299C42.1735 85.2299 41.2574 85.0139 40.4764 84.5631L11.5648 67.6852C10.6238 67.143 10.0026 66.3454 9.7783 65.421L10.3994 71.1397C10.495 72.0122 11.033 72.839 11.9802 73.3853L41.434 90.5748C43.2475 91.6217 45.8669 91.2644 47.2898 89.775L94.0038 40.909C94.683 40.2007 94.9676 39.3615 94.8804 38.5659V38.5617L94.8824 38.5596Z" fill="#024731"/>
<path d="M28.3236 80.467C28.4898 79.9934 28.1824 79.3473 27.6381 79.0295L23.4773 76.5949C22.9351 76.2771 22.3577 76.4059 22.1956 76.8795C22.0294 77.3531 22.3369 77.9992 22.8811 78.317L27.0419 80.7516C27.5841 81.0694 28.1616 80.9406 28.3236 80.467Z" fill="#6CF479"/>
<path d="M34.5851 67.1075C36.4858 68.2043 36.8119 70.3585 35.3204 71.9164C33.8289 73.4744 31.0849 73.8504 29.1883 72.7556C27.2876 71.6588 26.9552 69.5047 28.4446 67.9467C29.9361 66.3888 32.6802 66.0128 34.5851 67.1096V67.1075Z" fill="#6CF479"/>
<path d="M70.284 22.3235C70.9404 22.7037 71.0567 23.4494 70.5416 23.9895C70.0264 24.5275 69.0709 24.6605 68.4144 24.2824C67.758 23.9023 67.6438 23.1565 68.161 22.6164C68.6762 22.0784 69.6255 21.9455 70.284 22.3277V22.3235Z" fill="#6CF479"/>
<path d="M79.4968 27.6415C80.1533 28.0216 80.2696 28.7673 79.7544 29.3074C79.2393 29.8455 78.2837 29.9784 77.6273 29.6003L72.3365 26.5467C71.68 26.1666 71.5637 25.4208 72.0789 24.8787C72.594 24.3407 73.5475 24.2119 74.206 24.5899L79.4968 27.6435V27.6415Z" fill="#6CF479"/>
<path d="M32.9483 16.4995C29.9446 16.4995 27.5391 17.6483 25.9957 19.8211C23.8872 22.7916 23.6442 27.2702 25.331 32.1165C28.4677 41.1174 37.2089 48.444 44.8221 48.4481C47.8341 48.4481 50.2376 47.2994 51.781 45.1265C53.8894 42.156 54.1325 37.6774 52.4457 32.8311C49.309 23.8303 40.5678 16.5037 32.9546 16.4995H32.9463H32.9483Z" fill="#6CF479"/>
<path d="M50.0236 33.7366C47.8694 27.5504 42.6056 21.9251 36.9242 19.7419C35.3206 19.1229 33.7564 18.8134 32.2815 18.8134C30.6924 18.8134 29.2965 19.1727 28.1436 19.8749C29.4626 18.6077 31.2574 17.9451 33.4074 17.9471C34.8823 17.9471 36.4444 18.2629 38.0501 18.8757C43.7315 21.061 48.9953 26.6842 51.1495 32.8703C52.6742 37.243 52.4685 41.2667 50.5928 43.9069C50.0589 44.661 49.3983 45.2717 48.636 45.7391C48.9392 45.4462 49.2155 45.1284 49.4669 44.7711C51.3447 42.1309 51.5462 38.1072 50.0236 33.7345V33.7366Z" fill="black"/>
<path d="M48.3772 44.1162C47.459 45.3563 45.98 45.9941 44.098 45.9567C43.7407 45.9484 43.3688 45.9193 42.9991 45.8653C40.12 45.456 36.9916 43.7714 34.1914 41.1166C31.4805 38.628 29.8561 35.6284 29.8561 35.6284C32.9159 39.2761 34.4718 38.9853 35.5416 37.7909C40.7556 44.6812 49.4615 45.0925 49.5363 38.2271C49.8022 40.6326 49.4116 42.7223 48.3792 44.1162H48.3751H48.3772Z" fill="white"/>
<path d="M7.39928 30.9445C7.68387 35.9549 4.7362 39.8809 0 40.7949C5.17243 41.7131 9.98342 45.635 12.0794 50.6475C11.7948 45.6329 14.7425 41.711 19.4787 40.797C14.3062 39.8789 9.49525 35.9569 7.39928 30.9445Z" fill="#006A4D"/>
<path d="M44.423 9C44.5435 11.1541 43.2805 12.843 41.2448 13.2335C43.4675 13.6282 45.5344 15.3129 46.438 17.4691C46.3175 15.3149 47.5805 13.6261 49.6162 13.2356C47.3894 12.8409 45.3225 11.1541 44.423 9Z" fill="#006A4D"/>
<path d="M82.0967 50.2197C82.3169 50.6289 82.749 50.6975 83.0647 50.3672L87.6701 45.5686C87.9858 45.2425 88.0647 44.6422 87.8445 44.233C87.6244 43.8237 87.1923 43.7552 86.8765 44.0855L82.2712 48.884C81.9554 49.2101 81.8765 49.8105 82.0967 50.2197Z" fill="#6CF479"/>
<path d="M75.2813 57.3201C75.2813 57.3201 75.9336 57.7978 76.2493 57.4676L80.8547 52.669C81.1704 52.3429 81.2493 51.7446 81.0291 51.3333C80.809 50.9241 80.3769 50.8556 80.0611 51.1859L75.4558 55.9844C75.14 56.3105 75.2813 57.3201 75.2813 57.3201Z" fill="#6CF479"/>
<path d="M22.6929 20.7532L26.7539 17.4649C24.8532 19 23.6484 21.3307 23.2828 24.1517L19.2466 27.2572C19.6413 24.5152 20.8358 22.2593 22.6949 20.7532H22.6908H22.6929Z" fill="black"/>
<path d="M19.105 29.4653L23.1661 26.341C23.1765 26.9185 23.2201 27.5064 23.2907 28.1088L19.213 31.2455C19.1445 30.6389 19.1071 30.0427 19.1029 29.4673L19.105 29.4653Z" fill="black"/>
<path d="M71.7563 90.791C71.7563 75.1906 59.1099 62.5483 43.5157 62.5483C59.1161 62.5483 71.7563 49.9018 71.7563 34.3056C71.7563 49.9059 84.4028 62.5483 99.9991 62.5483C84.3987 62.5483 71.7563 75.1948 71.7563 90.791Z" fill="#6CF479"/>
<path d="M71.7562 69.7146C73.927 61.0025 84.4028 62.5483 99.9991 62.5483C84.3987 62.5483 71.7563 75.1948 71.7563 90.791" fill="#11B57A"/>
<path d="M71.7562 69.7146C69.5855 61.0025 59.1099 62.5483 43.5157 62.5483C59.1161 62.5483 71.7563 75.1948 71.7563 90.791" fill="black"/>
<path d="M90.4857 62.1579C81.1566 62.1579 79.4823 62.8559 75.8533 59.6589C74.7004 58.6411 71.0673 54.1354 71.8338 41.6821C72.5546 54.3245 88.236 62.1704 90.4857 62.1579Z" fill="white"/>
</svg>
