<svg width="100" height="100" viewBox="0 0 100 100" fill="none" xmlns="http://www.w3.org/2000/svg">
<rect width="100" height="100" fill="white"/>
<path d="M98.6687 31.2916C98.5648 30.5523 98.0812 29.9008 97.3098 29.4532H97.3058L66.8434 11.668C66.192 11.2923 65.4246 11.1125 64.6533 11.1125C63.4383 11.1125 62.2113 11.5601 61.404 12.4034L50.5331 23.7739V23.7819C52.5594 26.2519 54.21 29.0895 55.2611 32.111C57.5792 38.7734 56.9837 44.4167 53.7704 47.4022L53.7184 47.4501L49.482 51.0072C47.7914 52.374 45.5853 53.1494 42.9475 53.1494C42.9275 53.1494 42.9075 53.1494 42.8915 53.1494C36.1332 53.1494 30.39 52.5379 25.8379 49.6044L12.1733 63.8964C11.5858 64.5119 11.318 65.2433 11.422 65.9587C11.5299 66.7021 12.0135 67.3535 12.7848 67.8012L43.2512 85.5863C44.9298 86.5575 47.3678 86.2258 48.6867 84.8469L97.9133 33.3539C98.5008 32.7424 98.7686 32.007 98.6647 31.2916H98.6687Z" fill="#11B67A"/>
<path d="M28.7679 46.5428L25.8424 49.6042C30.3945 52.5378 36.1372 53.1454 42.8915 53.1494C38.1155 53.1254 32.9644 50.5554 28.7679 46.5428Z" fill="#006A4D"/>
<path d="M25.6355 31.7273C29.0886 41.6431 38.7565 49.6843 47.2294 49.6883C49.8631 49.6883 52.0293 48.8211 53.7199 47.4502L49.4835 51.0072C47.7929 52.3741 45.5867 53.1494 42.9489 53.1494C34.4761 53.1455 24.8082 45.1042 21.3551 35.1884C21.3271 35.1045 21.2991 35.0246 21.2751 34.9446L25.5995 31.6154C25.6115 31.6514 25.6235 31.6874 25.6355 31.7233V31.7273Z" fill="black"/>
<path d="M99.9839 38.15L99.4523 33.2621C99.2765 33.5858 99.0566 33.8975 98.7809 34.1853L49.5542 85.6783C48.5271 86.7534 46.9644 87.3289 45.4177 87.3289C44.4425 87.3289 43.4753 87.1011 42.652 86.6255L12.1856 68.8404C11.1944 68.2689 10.539 67.4296 10.3032 66.4544L10.9586 72.4813C11.0586 73.4006 11.6261 74.2718 12.6252 74.8474L43.6632 92.9602C45.5736 94.0633 48.3352 93.6876 49.834 92.117L99.0606 40.6239C99.776 39.8766 100.076 38.9933 99.9839 38.154V38.15Z" fill="#024731"/>
<path d="M29.8457 82.3092C30.0215 81.8096 29.6978 81.1302 29.1223 80.7945L24.738 78.2286C24.1664 77.8929 23.559 78.0288 23.3871 78.5284C23.2112 79.028 23.535 79.7074 24.1105 80.0431L28.4948 82.609C29.0663 82.9447 29.6738 82.8088 29.8457 82.3092Z" fill="#11B67A"/>
<path d="M36.4433 68.2327C38.4456 69.3877 38.7893 71.6578 37.2186 73.3004C35.6479 74.9431 32.7544 75.3387 30.756 74.1837C28.7537 73.0287 28.402 70.7586 29.9727 69.1159C31.5434 67.4733 34.4369 67.0776 36.4433 68.2327Z" fill="#C7FFC6"/>
<path d="M74.0635 21.0402C74.7549 21.4398 74.8788 22.2272 74.3353 22.7947C73.7918 23.3622 72.7846 23.5021 72.0932 23.1024C71.4018 22.7028 71.2819 21.9154 71.8254 21.3479C72.3689 20.7804 73.3681 20.6405 74.0635 21.0442V21.0402Z" fill="#C7FFC6"/>
<path d="M83.7726 26.6434C84.4641 27.043 84.5879 27.8304 84.0444 28.3979C83.5009 28.9654 82.4937 29.1053 81.8023 28.7057L76.227 25.4883C75.5355 25.0887 75.4117 24.3013 75.9552 23.7298C76.4987 23.1623 77.5019 23.0264 78.1973 23.4261L83.7726 26.6434Z" fill="#C7FFC6"/>
<path d="M34.7192 14.9014C31.5539 14.9014 29.02 16.1124 27.3934 18.4025C25.1712 21.5318 24.9154 26.2519 26.6939 31.3596C29.9992 40.8437 39.2114 48.5653 47.2327 48.5693C50.406 48.5693 52.9399 47.3583 54.5665 45.0682C56.7887 41.9388 57.0444 37.2188 55.2659 32.111C51.9607 22.6269 42.7485 14.9054 34.7272 14.9014H34.7192Z" fill="#0BE248"/>
<path d="M52.7131 33.0663C50.443 26.5477 44.8956 20.6207 38.9087 18.3186C37.2181 17.6671 35.5715 17.3394 34.0168 17.3394C32.3422 17.3394 30.8714 17.7191 29.6564 18.4585C31.0473 17.1236 32.9377 16.4242 35.2038 16.4282C36.7585 16.4282 38.4051 16.7599 40.0957 17.4073C46.0827 19.7094 51.63 25.6365 53.9001 32.155C55.5067 36.7632 55.2909 41.0036 53.3126 43.7853C52.7491 44.5807 52.0536 45.2241 51.2503 45.7157C51.57 45.408 51.8618 45.0722 52.1256 44.6966C54.1039 41.9149 54.3157 37.6744 52.7131 33.0663Z" fill="black"/>
<path d="M50.9783 44.0051C50.0111 45.312 48.4524 45.9834 46.4701 45.9435C46.0944 45.9355 45.7028 45.9035 45.3111 45.8475C42.2776 45.4159 38.9804 43.6414 36.0309 40.8437C33.1733 38.2219 31.4627 35.0606 31.4627 35.0606C34.688 38.9053 36.3266 38.5976 37.4537 37.3387C42.9491 44.6006 52.1214 45.0322 52.2013 37.7983C52.4811 40.3322 52.0694 42.5343 50.9823 44.0051H50.9783Z" fill="white"/>
<path d="M7.79745 30.1246C8.0972 35.4042 4.99181 39.5408 0 40.504C5.45142 41.4712 10.5192 45.6037 12.7293 50.8873C12.4296 45.6037 15.535 41.4712 20.5268 40.508C15.0753 39.5408 10.0076 35.4082 7.79745 30.1246Z" fill="#6CF479"/>
<path d="M46.812 7C46.9399 9.2701 45.609 11.0486 43.4628 11.4603C45.8048 11.8759 47.983 13.6504 48.9342 15.9246C48.8063 13.6544 50.1372 11.8759 52.2834 11.4643C49.9374 11.0486 47.7592 9.2701 46.812 7Z" fill="#6CF479"/>
<path d="M62.9684 43.1099C63.1602 46.4552 61.1938 49.077 58.0285 49.6845C61.4816 50.2959 64.6949 52.9138 66.0897 56.263C65.8979 52.9178 67.8642 50.2959 71.0296 49.6885C67.5765 49.077 64.3632 46.4591 62.9684 43.1099Z" fill="white"/>
<path d="M86.5099 50.4357C86.7417 50.8673 87.1973 50.9393 87.5291 50.5916L92.381 45.5358C92.7127 45.1921 92.7967 44.5606 92.5648 44.129C92.333 43.6973 91.8774 43.6254 91.5457 43.9731L86.6938 49.0289C86.3621 49.3726 86.2781 50.0041 86.5099 50.4357Z" fill="#6CF479"/>
<path d="M79.3286 57.9174C79.3286 57.9174 80.0161 58.4209 80.3478 58.0732L85.1997 53.0174C85.5314 52.6737 85.6154 52.0423 85.3835 51.6106C85.1517 51.179 84.6961 51.107 84.3644 51.4548L79.5125 56.5105C79.1808 56.8542 79.3286 57.9174 79.3286 57.9174Z" fill="#6CF479"/>
<path d="M23.9119 19.3857L28.1923 15.9206C26.19 17.5392 24.919 19.9932 24.5354 22.9667L20.2829 26.24C20.6986 23.3504 21.9575 20.9723 23.9159 19.3857H23.9119Z" fill="black"/>
<path d="M20.1314 28.566L24.4118 25.2727C24.4238 25.8802 24.4677 26.4997 24.5437 27.1352L20.2473 30.4404C20.1753 29.801 20.1354 29.1735 20.1314 28.566Z" fill="black"/>
</svg>
