<svg width="100" height="100" viewBox="0 0 100 100" fill="none" xmlns="http://www.w3.org/2000/svg">
<g clip-path="url(#clip0_15980_18258)">
<path d="M16.8483 68.285C16.7396 74.9689 12.0074 81.7393 6.27758 83.4063C12.0074 81.7393 16.5649 85.8086 16.4562 92.4925C16.5649 85.8086 21.297 79.0381 27.0268 77.3711C21.297 79.0381 16.7396 74.9689 16.8483 68.285Z" fill="#6CF479"/>
<path d="M5.36859 12.9539C5.31511 16.2985 2.87914 19.6814 -0.0625 20.5151C2.884 19.6814 5.22274 21.7131 5.16925 25.0576C5.22274 21.7131 7.6587 18.3301 10.6003 17.4964C7.65383 18.3301 5.31511 16.2985 5.36859 12.9539Z" fill="#6CF479"/>
<path d="M58.5424 59.1519C62.5259 53.5229 64.9677 46.4441 64.9359 39.2614C64.8772 26.6215 57.1541 17.8531 46.976 17.8531C45.5879 17.8531 44.1545 18.0158 42.6895 18.3546C30.4719 21.1735 20.6191 35.1053 20.6871 49.4709C20.7458 62.1152 28.4689 70.8791 38.6515 70.8791C40.0398 70.8791 41.4732 70.7165 42.938 70.3778L65.0672 65.2731L58.5514 59.1519H58.5424Z" fill="#11B57A"/>
<path d="M54.3354 23.3391C54.8448 23.3708 55.3451 23.4297 55.8453 23.4977C55.6741 23.398 55.5119 23.2893 55.336 23.1941C46.8304 18.7313 36.6299 22.5191 30.0581 31.2136C27.2364 34.9424 23.6258 42.8712 24.2074 47.248C24.5094 46.2195 25.7849 43.1114 27.9081 41.5892C30.4727 39.7496 34.2905 40.3477 37.775 42.4228C36.8869 40.5607 36.4362 38.5263 36.5669 36.4103C37.0446 28.6129 45.0049 22.7592 54.3399 23.3437L54.3354 23.3391Z" fill="white"/>
<path d="M21.2517 42.7908C21.2834 42.6282 21.3239 42.4657 21.3555 42.3076C21.3285 42.4341 21.2969 42.5605 21.2699 42.6915C21.2609 42.7276 21.2562 42.7593 21.2517 42.7953V42.7908ZM24.1974 29.5863L18.4233 26.9716C18.4233 26.9716 18.4098 26.9897 18.4053 26.9987C18.1662 27.36 17.9316 27.7258 17.7061 28.1005C17.679 28.1503 17.6474 28.1955 17.6158 28.2406C17.6113 28.2496 17.6068 28.2586 17.6023 28.2631C17.3542 28.6786 17.1106 29.103 16.8806 29.5277C16.8129 29.6541 16.7497 29.7806 16.6821 29.9069C16.5197 30.2141 16.3573 30.5255 16.2039 30.8372C16.1723 30.9004 16.1407 30.9592 16.1091 31.0223C16.064 31.1173 16.0234 31.2166 15.9783 31.3114C15.8385 31.6048 15.7031 31.903 15.5678 32.2056C15.4956 32.3682 15.4235 32.5308 15.3558 32.6979C15.2205 33.0183 15.0897 33.339 14.9633 33.6641C14.9227 33.7727 14.8731 33.8765 14.8325 33.9848C14.819 34.0163 14.81 34.0526 14.7964 34.0841C14.616 34.5718 14.4401 35.0596 14.2822 35.5563C14.2506 35.6557 14.2235 35.755 14.192 35.8545C14.0656 36.2562 13.9438 36.6627 13.8356 37.0691C13.8175 37.1414 13.7905 37.2092 13.7724 37.2815C13.7273 37.4531 13.6867 37.6247 13.6416 37.8008C13.6145 37.9136 13.5829 38.0266 13.5559 38.1439C13.4612 38.5369 13.3709 38.9298 13.2897 39.3271C13.2807 39.3633 13.2762 39.4038 13.2672 39.4446C13.195 39.8013 13.1319 40.158 13.0687 40.5194C13.0461 40.6457 13.0281 40.7768 13.01 40.9076C12.9875 41.0567 12.9604 41.2058 12.9379 41.3548C12.9198 41.4722 12.9108 41.5895 12.8928 41.707C12.8702 41.8786 12.8476 42.0457 12.8296 42.2173C12.8025 42.4747 12.7755 42.7321 12.7529 42.9895C12.7394 43.152 12.7213 43.3146 12.7123 43.4772C12.6898 43.7573 12.6762 44.0372 12.6627 44.3171C12.6582 44.4572 12.6447 44.5972 12.6401 44.7371C12.6266 45.1526 12.6176 45.5635 12.6176 45.979V45.997C12.6311 48.6434 12.9785 51.1181 13.6145 53.376C13.6687 53.5657 13.7228 53.7555 13.7814 53.9406C15.5317 59.6395 19.1406 63.9027 23.8051 65.98C20.3992 61.8027 18.3692 56.0314 18.3376 49.3705C18.306 42.5062 20.3766 35.5428 24.1884 29.5818L24.1974 29.5863ZM22.9434 37.0286C22.8894 37.1684 22.8306 37.3085 22.7765 37.4531C22.5961 37.9408 22.4246 38.4284 22.2622 38.9206C22.2306 39.0201 22.1991 39.1239 22.1676 39.2232C22.0412 39.6252 21.9239 40.0271 21.8111 40.4336C22.357 38.4466 23.0788 36.5183 23.9494 34.6802C23.8096 34.9738 23.6742 35.2719 23.5434 35.5654C23.4713 35.7279 23.399 35.895 23.3269 36.0576C23.1916 36.3783 23.0653 36.6989 22.9389 37.0196L22.9434 37.0286ZM21.0578 43.8339C21.0578 43.8339 21.0533 43.8656 21.0487 43.8791C21.0262 44.0055 21.0082 44.132 20.9902 44.2586C21.0127 44.1185 21.0352 43.9739 21.0578 43.8339ZM20.9359 44.6288C20.9134 44.7733 20.8909 44.9224 20.8729 45.0668C20.8503 45.2339 20.8323 45.4009 20.8096 45.568C20.8458 45.2519 20.8909 44.9404 20.9359 44.6288ZM20.5977 49.3525C20.5977 49.0003 20.6067 48.6479 20.6157 48.2957C20.6022 48.6524 20.5977 49.0048 20.5977 49.3615V49.3525ZM21.5494 56.5779C21.3555 55.8688 21.1931 55.1417 21.0533 54.3966C21.1886 55.1417 21.3555 55.8733 21.5494 56.5779ZM38.9667 19.4346C39.3005 19.2946 39.6343 19.1636 39.9682 19.0372C39.8734 19.0733 39.7741 19.1094 39.6795 19.1456C39.4404 19.2359 39.2012 19.3307 38.9622 19.4346H38.9667ZM37.8029 19.9675C38.1411 19.8004 38.4796 19.6468 38.8224 19.4978C38.7096 19.5475 38.5967 19.5972 38.4886 19.6468C38.2585 19.7507 38.0328 19.8546 37.8074 19.9675H37.8029ZM24.8876 19.7778C24.6215 19.9945 24.36 20.2113 24.1028 20.4371C24.0215 20.5049 23.9449 20.5771 23.8681 20.6494C23.6517 20.8435 23.4351 21.0377 23.2231 21.2364C23.1148 21.3403 23.011 21.4442 22.9029 21.548C22.7223 21.7241 22.5464 21.8958 22.3705 22.0764L22.3615 22.0854L27.9957 24.6369C28.7673 23.7969 29.5702 23.0067 30.4003 22.2706L24.8876 19.7733V19.7778ZM36.6525 20.5681C36.5849 20.6042 36.5172 20.6449 36.4451 20.6855C36.7924 20.4868 37.1441 20.2971 37.5006 20.1165C37.4419 20.1481 37.3833 20.1752 37.3247 20.2068C37.0991 20.3242 36.8736 20.4462 36.6525 20.5681ZM32.6377 23.3318C32.6377 23.3318 32.6647 23.3137 32.6738 23.3002C32.6738 23.3002 32.6512 23.3183 32.6377 23.3318ZM30.8784 24.9079C30.8379 24.944 30.8016 24.9846 30.7611 25.0207C31.0137 24.7769 31.2664 24.533 31.5234 24.2982C31.4153 24.3976 31.3025 24.4924 31.1986 24.5962C31.0948 24.7001 30.9867 24.804 30.8784 24.9079ZM30.1701 25.6214C30.3415 25.4452 30.5174 25.2646 30.6935 25.093C30.5762 25.2059 30.4588 25.3233 30.3415 25.4407C30.2829 25.4994 30.2242 25.5627 30.1656 25.6259L30.1701 25.6214ZM20.6247 48.2912C20.6337 47.984 20.6517 47.6726 20.6652 47.3654C20.6607 47.4692 20.6517 47.5731 20.6472 47.6771C20.6382 47.8169 20.6292 47.957 20.6247 48.0925V48.2912ZM45.4987 17.8089C45.634 17.7998 45.7649 17.7863 45.9002 17.7818H45.8462C45.7333 17.7863 45.616 17.7998 45.4987 17.8089ZM44.3213 15.298C44.1094 15.2258 43.8927 15.1535 43.6763 15.0903C43.6402 15.0767 43.5995 15.0632 43.5635 15.0542C43.5454 15.0496 43.5319 15.0451 43.5139 15.0406C43.3741 15 43.2297 14.9639 43.0898 14.9277C43.0131 14.9096 42.9365 14.8871 42.8597 14.869C42.6748 14.8239 42.4899 14.7832 42.3003 14.7426C42.2642 14.7335 42.2282 14.7245 42.1922 14.72C41.9665 14.6748 41.7411 14.6342 41.5154 14.5981C41.4524 14.589 41.3891 14.58 41.3305 14.571C41.1636 14.5484 40.9968 14.5213 40.8297 14.5032C40.8162 14.5032 40.8071 14.5032 40.7936 14.4987C40.7576 14.4987 40.717 14.4942 40.6808 14.4897C40.4554 14.4671 40.2297 14.4445 39.9998 14.431C39.9185 14.4265 39.8329 14.4219 39.7516 14.4174C39.5352 14.4084 39.314 14.3994 39.0931 14.3949H38.908C38.6285 14.3949 38.3533 14.3994 38.0691 14.4129C38.0013 14.4129 37.9337 14.4219 37.8659 14.4265C37.645 14.44 37.4238 14.4536 37.1984 14.4761C37.1534 14.4761 37.1036 14.4807 37.0585 14.4852C37.027 14.4852 36.9908 14.4942 36.9592 14.4987C36.6075 14.5348 36.251 14.58 35.8902 14.6387C35.8316 14.6477 35.7683 14.6613 35.7098 14.6703C35.3353 14.7335 34.9565 14.8058 34.5729 14.8961H34.5684C34.1624 14.9909 33.7608 15.0993 33.3595 15.2167C33.2242 15.2574 33.0933 15.3025 32.958 15.3432C32.6918 15.429 32.4256 15.5148 32.1596 15.6096C32.0015 15.6638 31.8482 15.727 31.6948 15.7857C31.4558 15.8761 31.2167 15.9709 30.9777 16.0748C30.8151 16.1425 30.6573 16.2147 30.4994 16.287C30.2694 16.3909 30.0393 16.4992 29.8138 16.6076C29.656 16.6844 29.4979 16.7657 29.34 16.847C29.1146 16.9644 28.8889 17.0863 28.668 17.2128C28.6047 17.2489 28.5416 17.285 28.4831 17.3166L33.7428 19.6965C36.3593 17.9669 39.1561 16.7251 42.0478 16.0567C43.0538 15.8219 44.0641 15.6728 45.0656 15.5825C44.8897 15.5103 44.7093 15.4425 44.5334 15.3748C44.4611 15.3477 44.3891 15.3251 44.3168 15.298H44.3213ZM46.577 17.7592C46.6761 17.7592 46.7799 17.7547 46.8792 17.7547H46.8339C46.7483 17.7547 46.6625 17.7592 46.5724 17.7637L46.577 17.7592ZM42.589 18.2469C42.986 18.1566 43.3786 18.0798 43.7709 18.0121C43.7484 18.0121 43.7213 18.0211 43.6988 18.0256C43.3333 18.0888 42.9635 18.1611 42.589 18.2469ZM47.4159 17.7682C47.5827 17.7727 47.7498 17.7773 47.9167 17.7908C47.8534 17.7908 47.7949 17.7818 47.7316 17.7818C47.628 17.7773 47.5197 17.7727 47.4159 17.7727V17.7682ZM52.3013 18.6624C52.1615 18.6127 52.0173 18.5675 51.8729 18.5224C52.0443 18.5766 52.2202 18.6308 52.3871 18.694C52.3601 18.6849 52.3285 18.6759 52.3013 18.6624ZM48.3453 17.8224C48.4851 17.836 48.6293 17.845 48.7691 17.8585C48.7331 17.8585 48.6971 17.854 48.661 17.8495C48.5572 17.8405 48.4489 17.8314 48.3453 17.8224ZM24.3372 62.8639C23.9719 62.2994 23.6292 61.7124 23.3087 61.1028C23.6247 61.7169 23.9719 62.3039 24.3372 62.8639ZM25.5824 31.6276C25.4831 31.7901 25.393 31.9572 25.2982 32.1243C25.4426 31.8714 25.5914 31.6186 25.7448 31.3702C25.7268 31.4017 25.7042 31.4332 25.6862 31.465C25.65 31.519 25.6139 31.5733 25.5824 31.6321V31.6276ZM24.6577 33.2759C24.6577 33.2759 24.6395 33.3164 24.626 33.3345C24.7703 33.0591 24.9192 32.7882 25.0725 32.5171C25.0005 32.6436 24.9282 32.7654 24.8561 32.892C24.7883 33.0183 24.7208 33.1449 24.6532 33.2759H24.6577ZM42.553 18.2559H42.5575C42.1514 18.3508 41.7456 18.4592 41.344 18.5766C41.7456 18.4592 42.1469 18.3508 42.553 18.2559ZM24.0577 34.468C24.2021 34.1744 24.351 33.881 24.4998 33.5919C24.396 33.7952 24.2877 33.9983 24.1884 34.2016C24.1433 34.2919 24.1028 34.3822 24.0577 34.468ZM26.1101 30.7921C26.1688 30.7018 26.2229 30.616 26.2817 30.5257C26.2274 30.616 26.1688 30.7018 26.1146 30.7921H26.1101ZM42.5575 18.2559C42.5575 18.2559 42.5755 18.2559 42.5845 18.2514C42.5755 18.2514 42.5665 18.2514 42.5575 18.2559Z" fill="#006A4D"/>
<path d="M74.4331 57.911C74.4331 43.8234 63.0124 32.4068 48.9288 32.4068C63.0165 32.4068 74.4331 20.9861 74.4331 6.90234C74.4331 20.9901 85.8537 32.4068 99.9375 32.4068C85.8496 32.4068 74.4331 43.8274 74.4331 57.911Z" fill="#6CF479"/>
<path d="M74.4332 38.8793C76.393 31.0121 85.8537 32.4068 99.9375 32.4068C85.8496 32.4068 74.4331 43.8274 74.4331 57.911" fill="#11B57A"/>
<path d="M74.4332 38.8793C72.4736 31.0121 63.0124 32.4068 48.9288 32.4068C63.0165 32.4068 74.4331 43.8274 74.4331 57.911" fill="#006A4D"/>
<path d="M91.3468 32.0522C82.9227 32.0522 81.4101 32.6825 78.1333 29.7957C77.0923 28.877 73.8113 24.8071 74.5024 13.5613C75.153 24.9779 89.3139 32.0645 91.3468 32.0522Z" fill="white"/>
</g>
<defs>
<clipPath id="clip0_15980_18258">
<rect width="100" height="100" fill="white"/>
</clipPath>
</defs>
</svg>
