<svg width="100" height="100" viewBox="0 0 100 100" fill="none" xmlns="http://www.w3.org/2000/svg">
<g clip-path="url(#clip0_15980_18300)">
<path d="M93.5457 82.9654L77.5249 46.6439C77.1602 45.814 76.2666 45.2395 75.4095 45.2395C75.2909 45.2395 75.1815 45.2486 75.063 45.276L5.65459 59.9305C4.69717 60.122 4.26861 61.043 4.68806 61.9914L20.8821 98.5956C21.2469 99.4255 22.1496 100 23.0067 100C23.1252 100 23.2529 99.9909 23.3714 99.9635L92.6157 85.0081C93.5548 84.8166 93.9743 83.8956 93.564 82.9563L93.5457 82.9654Z" fill="#024731"/>
<path d="M93.5457 81.8077L77.5249 45.4862C77.1602 44.6563 76.2666 44.0818 75.4095 44.0818C75.2909 44.0818 75.1815 44.0909 75.063 44.1183L5.65459 58.7819C4.69717 58.9734 4.26861 59.8944 4.68806 60.8428L20.8821 97.4471C21.2469 98.2769 22.1496 98.8514 23.0067 98.8514C23.1252 98.8514 23.2529 98.8423 23.3714 98.8149L92.6157 83.8595C93.5548 83.668 93.9743 82.747 93.564 81.8077H93.5457Z" fill="#11B67A"/>
<path d="M18.1297 91.2356L90.7841 75.5507L87.3922 67.845L14.7194 83.53L18.1297 91.2356Z" fill="#024731"/>
<path d="M87.8199 19.542C87.8199 19.542 90.2272 27.5304 100.002 29.7373C100.002 29.7373 92.5979 31.0139 92.452 39.9051C92.452 39.9051 89.8442 32.1994 80.4797 29.7281C80.4797 29.7281 88.3032 28.798 87.8199 19.542Z" fill="white"/>
<path d="M5.33615 33.6696C5.33615 33.6696 7.08686 39.4785 14.1991 41.0926C14.1991 41.0926 8.81021 42.0227 8.70991 48.4882C8.70991 48.4882 6.81331 42.8799 0.00195312 41.0835C0.00195312 41.0835 5.70088 40.4086 5.34527 33.6696H5.33615Z" fill="white"/>
<path d="M43.998 73.2453C43.998 73.2453 45.7487 79.0542 52.861 80.6683C52.861 80.6683 47.4721 81.5984 47.3718 88.0639C47.3718 88.0639 45.4752 82.4556 38.6638 80.6591C38.6638 80.6591 44.3628 79.9843 44.0071 73.2453H43.998Z" fill="white"/>
<path d="M78.5553 39.5224C77.2787 37.352 75.5189 35.6285 73.3031 34.3518C71.0783 33.0751 68.6346 32.4368 65.9629 32.4368C63.2913 32.4368 60.7564 33.0751 58.5406 34.3518C56.3158 35.6285 54.5468 37.3611 53.2429 39.5224C51.939 41.6927 51.2825 44.0546 51.2825 46.6171C51.2825 47.4652 51.3554 48.295 51.5013 49.0975L37.5686 52.043L79.9504 5.89097L78.6373 1.23108H69.5464L26.5902 54.3592L5.65459 58.7819C4.69717 58.9734 4.26861 59.8944 4.68806 60.8428L7.36883 66.8981L30.5475 67.0166L31.8241 63.2686L43.0122 62.8674C55.6501 69.3876 66.7015 68.3207 66.7015 68.3207C61.495 65.211 58.3218 61.1621 56.3796 57.4233C57.0544 57.9887 57.7565 58.5176 58.5498 58.9644C60.7746 60.2411 63.2548 60.8794 65.972 60.8794C68.6893 60.8794 71.0874 60.2411 73.3123 58.9644C75.5371 57.6877 77.2878 55.9642 78.5644 53.7938C79.8409 51.6235 80.4792 49.2343 80.4792 46.6171C80.4792 43.9999 79.8409 41.6927 78.5644 39.5224H78.5553ZM70.8777 51.66C69.5373 52.9731 67.9051 53.6206 65.9538 53.6206C64.0025 53.6206 62.27 52.9549 60.9023 51.6144C59.5345 50.283 58.8598 48.6142 58.8598 46.608C58.8598 44.6017 59.5345 42.9694 60.9023 41.6836C62.2609 40.4069 63.9478 39.7686 65.9538 39.7686C67.9598 39.7686 69.5373 40.4069 70.8777 41.6836C72.2089 42.9603 72.8746 44.6017 72.8746 46.608C72.8746 48.6142 72.2089 50.3468 70.8777 51.66ZM27.3288 26.5094C29.5536 27.786 32.0338 28.4244 34.751 28.4244C37.4683 28.4244 39.9485 27.786 42.1733 26.5094C44.3982 25.2327 46.1489 23.4909 47.4254 21.2932C48.702 19.0955 49.3403 16.688 49.3403 14.0708C49.3403 11.4536 48.702 9.14651 47.4254 6.97615C46.1489 4.80579 44.3891 3.09139 42.1733 1.84207C40.4044 0.848081 38.4713 0.255336 36.3923 0.0547148L35.1705 7.2406C36.985 7.32268 38.5169 7.9519 39.7661 9.1465C41.0974 10.4232 41.763 12.0646 41.763 14.0708C41.763 16.0771 41.0974 17.8097 39.7661 19.1229C38.4257 20.436 36.7571 21.0835 34.7602 21.0835C32.7633 21.0835 31.1767 20.4178 29.8363 19.0773C28.505 17.7459 27.8394 16.0771 27.8394 14.0708C27.8394 12.0646 28.4868 10.4323 29.7998 9.1465C30.5384 8.42609 31.3864 7.91542 32.3438 7.59625L33.6386 0C32.7724 0.0547149 31.9244 0.182383 31.1128 0.373885L29.1889 9.54775L24.73 8.60848L25.961 2.72662C24.3835 3.8574 23.0796 5.27087 22.0857 6.96703C20.8092 9.13739 20.1709 11.4992 20.1709 14.0617C20.1709 16.6242 20.8092 19.0864 22.0857 21.2841C23.3623 23.4818 25.113 25.2144 27.3379 26.5002L27.3288 26.5094Z" fill="#024731"/>
<path d="M20.7557 11.9092C22.0961 9.63851 23.9288 7.85116 26.254 6.538C28.5792 5.22484 31.1687 4.57738 34.0228 4.57738C36.8768 4.57738 39.4664 5.23396 41.7915 6.538C44.1167 7.85116 45.9495 9.63851 47.2899 11.9092C48.6303 14.1798 49.2959 16.6511 49.2959 19.3322C49.2959 22.0132 48.6303 24.5848 47.2899 26.8828C45.9495 29.1808 44.1167 31.0047 41.7915 32.3361C39.4573 33.6766 36.8768 34.3423 34.0228 34.3423C31.1687 34.3423 28.5792 33.6766 26.254 32.3361C23.9197 30.9956 22.0869 29.1808 20.7557 26.8828C19.4153 24.5848 18.7496 22.0679 18.7496 19.3322C18.7496 16.5964 19.4153 14.1798 20.7557 11.9092ZM70.4412 5.89054H79.9607L30.5487 67.0162H21.0292L70.4412 5.89054ZM28.8801 24.5757C30.2752 25.9709 31.9985 26.6731 34.0319 26.6731C36.0653 26.6731 37.8707 25.9891 39.2749 24.6213C40.67 23.2534 41.363 21.4934 41.363 19.3413C41.363 17.1892 40.67 15.5295 39.2749 14.189C37.8798 12.8485 36.1291 12.1828 34.0319 12.1828C31.9347 12.1828 30.2022 12.8485 28.8345 14.189C27.4667 15.5295 26.7829 17.2439 26.7829 19.3413C26.7829 21.4387 27.4758 23.1804 28.8709 24.5757H28.8801ZM53.3718 45.9692C54.7395 43.6985 56.5905 41.8929 58.9157 40.5524C61.2408 39.2119 63.8304 38.5462 66.6845 38.5462C69.5385 38.5462 72.0369 39.2119 74.3712 40.5524C76.6963 41.8929 78.5291 43.6985 79.8695 45.9692C81.2099 48.2399 81.8755 50.7111 81.8755 53.3922C81.8755 56.0732 81.2099 58.6266 79.8695 60.9064C78.5291 63.177 76.6963 64.9826 74.3712 66.314C72.0369 67.6545 69.4838 68.3202 66.6845 68.3202C63.8852 68.3202 61.2408 67.6545 58.9157 66.314C56.5814 64.9735 54.7395 63.1679 53.3718 60.9064C52.004 58.6357 51.3201 56.137 51.3201 53.3922C51.3201 50.6473 52.004 48.2399 53.3718 45.9692ZM61.405 58.6266C62.8274 60.0218 64.5873 60.724 66.6845 60.724C68.7817 60.724 70.4412 60.04 71.8363 58.6722C73.2314 57.3043 73.9244 55.5443 73.9244 53.3922C73.9244 51.2401 73.2314 49.5804 71.8363 48.2399C70.4412 46.8993 68.7178 46.2337 66.6845 46.2337C64.6511 46.2337 62.8274 46.8993 61.405 48.2399C59.9734 49.5804 59.2713 51.2948 59.2713 53.3922C59.2713 55.4896 59.9825 57.2313 61.405 58.6266Z" fill="#6CF479"/>
</g>
<defs>
<clipPath id="clip0_15980_18300">
<rect width="100" height="100" fill="white"/>
</clipPath>
</defs>
</svg>
