<svg width="100" height="100" viewBox="0 0 100 100" fill="none" xmlns="http://www.w3.org/2000/svg">
<g clip-path="url(#clip0_15980_18298)">
<rect width="100" height="100" fill="white"/>
<path d="M93.493 82.9654L77.4722 46.6439C77.1074 45.814 76.2138 45.2395 75.3567 45.2395C75.2382 45.2395 75.1288 45.2486 75.0102 45.276L5.60186 59.9305C4.64444 60.122 4.21588 61.043 4.63532 61.9914L20.8294 98.5956C21.1941 99.4255 22.0968 100 22.954 100C23.0725 100 23.2001 99.9909 23.3187 99.9635L92.5629 85.0081C93.5021 84.8166 93.9215 83.8956 93.5112 82.9563L93.493 82.9654Z" fill="black"/>
<path d="M93.493 81.8077L77.4722 45.4862C77.1074 44.6563 76.2138 44.0818 75.3567 44.0818C75.2382 44.0818 75.1288 44.0909 75.0102 44.1183L5.60186 58.7819C4.64444 58.9734 4.21588 59.8944 4.63532 60.8428L20.8294 97.4471C21.1941 98.2769 22.0968 98.8514 22.954 98.8514C23.0725 98.8514 23.2001 98.8423 23.3187 98.8149L92.5629 83.8595C93.5021 83.668 93.9215 82.747 93.5112 81.8077H93.493Z" fill="#11B67A"/>
<path d="M18.0769 91.2356L90.7314 75.5507L87.3394 67.845L14.6667 83.53L18.0769 91.2356Z" fill="black"/>
<path d="M87.7672 19.542C87.7672 19.542 90.1744 27.5304 99.9492 29.7373C99.9492 29.7373 92.5452 31.0139 92.3993 39.9051C92.3993 39.9051 89.7914 32.1994 80.427 29.7281C80.427 29.7281 88.2505 28.798 87.7672 19.542Z" fill="#006A4D"/>
<path d="M5.28341 33.6696C5.28341 33.6696 7.03412 39.4785 14.1464 41.0926C14.1464 41.0926 8.75748 42.0227 8.65718 48.4882C8.65718 48.4882 6.76058 42.8799 -0.0507812 41.0835C-0.0507812 41.0835 5.64815 40.4086 5.29253 33.6696H5.28341Z" fill="#006A4D"/>
<path d="M43.9453 73.2453C43.9453 73.2453 45.696 79.0542 52.8083 80.6683C52.8083 80.6683 47.4194 81.5984 47.3191 88.0639C47.3191 88.0639 45.4225 82.4556 38.6111 80.6591C38.6111 80.6591 44.31 79.9843 43.9544 73.2453H43.9453Z" fill="#6CF479"/>
<path d="M78.5025 39.5224C77.226 37.352 75.4661 35.6285 73.2504 34.3518C71.0255 33.0751 68.5818 32.4368 65.9102 32.4368C63.2385 32.4368 60.7036 33.0751 58.4879 34.3518C56.263 35.6285 54.4941 37.3611 53.1902 39.5224C51.8863 41.6927 51.2297 44.0546 51.2297 46.6171C51.2297 47.4652 51.3027 48.295 51.4486 49.0975L37.5159 52.043L79.8976 5.89097L78.5846 1.23108H69.4937L26.5374 54.3592L5.60186 58.7819C4.64444 58.9734 4.21588 59.8944 4.63532 60.8428L7.3161 66.8981L30.4948 67.0166L31.7713 63.2686L42.9595 62.8674C55.5974 69.3876 66.6488 68.3207 66.6488 68.3207C61.4422 65.211 58.2691 61.1621 56.3269 57.4233C57.0016 57.9887 57.7037 58.5176 58.497 58.9644C60.7219 60.2411 63.202 60.8794 65.9193 60.8794C68.6366 60.8794 71.0347 60.2411 73.2595 58.9644C75.4844 57.6877 77.2351 55.9642 78.5117 53.7938C79.7882 51.6235 80.4265 49.2343 80.4265 46.6171C80.4265 43.9999 79.7882 41.6927 78.5117 39.5224H78.5025ZM70.8249 51.66C69.4846 52.9731 67.8524 53.6206 65.9011 53.6206C63.9498 53.6206 62.2173 52.9549 60.8495 51.6144C59.4818 50.283 58.807 48.6142 58.807 46.608C58.807 44.6017 59.4818 42.9694 60.8495 41.6836C62.2082 40.4069 63.895 39.7686 65.9011 39.7686C67.9071 39.7686 69.4846 40.4069 70.8249 41.6836C72.1562 42.9603 72.8218 44.6017 72.8218 46.608C72.8218 48.6142 72.1562 50.3468 70.8249 51.66ZM27.276 26.5094C29.5009 27.786 31.9811 28.4244 34.6983 28.4244C37.4155 28.4244 39.8957 27.786 42.1206 26.5094C44.3454 25.2327 46.0962 23.4909 47.3727 21.2932C48.6493 19.0955 49.2876 16.688 49.2876 14.0708C49.2876 11.4536 48.6493 9.14651 47.3727 6.97615C46.0962 4.80579 44.3363 3.09139 42.1206 1.84207C40.3516 0.848081 38.4186 0.255336 36.3396 0.0547148L35.1177 7.2406C36.9323 7.32268 38.4641 7.9519 39.7134 9.1465C41.0446 10.4232 41.7103 12.0646 41.7103 14.0708C41.7103 16.0771 41.0446 17.8097 39.7134 19.1229C38.373 20.436 36.7043 21.0835 34.7074 21.0835C32.7105 21.0835 31.1239 20.4178 29.7835 19.0773C28.4523 17.7459 27.7866 16.0771 27.7866 14.0708C27.7866 12.0646 28.434 10.4323 29.7471 9.1465C30.4857 8.42609 31.3337 7.91542 32.2911 7.59625L33.5859 0C32.7196 0.0547149 31.8716 0.182383 31.0601 0.373885L29.1361 9.54775L24.6773 8.60848L25.9083 2.72662C24.3308 3.8574 23.0269 5.27087 22.033 6.96703C20.7564 9.13739 20.1182 11.4992 20.1182 14.0617C20.1182 16.6242 20.7564 19.0864 22.033 21.2841C23.3096 23.4818 25.0603 25.2144 27.2851 26.5002L27.276 26.5094Z" fill="black"/>
<path d="M20.7029 11.9092C22.0433 9.63851 23.8761 7.85116 26.2013 6.538C28.5264 5.22484 31.116 4.57738 33.97 4.57738C36.8241 4.57738 39.4136 5.23396 41.7388 6.538C44.064 7.85116 45.8967 9.63851 47.2371 11.9092C48.5775 14.1798 49.2432 16.6511 49.2432 19.3322C49.2432 22.0132 48.5775 24.5848 47.2371 26.8828C45.8967 29.1808 44.064 31.0047 41.7388 32.3361C39.4045 33.6766 36.8241 34.3423 33.97 34.3423C31.116 34.3423 28.5264 33.6766 26.2013 32.3361C23.867 30.9956 22.0342 29.1808 20.7029 26.8828C19.3625 24.5848 18.6969 22.0679 18.6969 19.3322C18.6969 16.5964 19.3625 14.1798 20.7029 11.9092ZM70.3885 5.89054H79.9079L30.496 67.0162H20.9765L70.3885 5.89054ZM28.8273 24.5757C30.2224 25.9709 31.9458 26.6731 33.9791 26.6731C36.0125 26.6731 37.8179 25.9891 39.2222 24.6213C40.6173 23.2534 41.3102 21.4934 41.3102 19.3413C41.3102 17.1892 40.6173 15.5295 39.2222 14.189C37.8271 12.8485 36.0764 12.1828 33.9791 12.1828C31.8819 12.1828 30.1495 12.8485 28.7817 14.189C27.414 15.5295 26.7301 17.2439 26.7301 19.3413C26.7301 21.4387 27.4231 23.1804 28.8182 24.5757H28.8273ZM53.319 45.9692C54.6868 43.6985 56.5378 41.8929 58.8629 40.5524C61.1881 39.2119 63.7777 38.5462 66.6317 38.5462C69.4857 38.5462 71.9842 39.2119 74.3184 40.5524C76.6436 41.8929 78.4764 43.6985 79.8168 45.9692C81.1571 48.2399 81.8228 50.7112 81.8228 53.3922C81.8228 56.0732 81.1571 58.6266 79.8168 60.9064C78.4764 63.177 76.6436 64.9826 74.3184 66.314C71.9842 67.6545 69.431 68.3202 66.6317 68.3202C63.8324 68.3202 61.1881 67.6545 58.8629 66.314C56.5287 64.9735 54.6868 63.1679 53.319 60.9064C51.9513 58.6357 51.2674 56.137 51.2674 53.3922C51.2674 50.6473 51.9513 48.2399 53.319 45.9692ZM61.3522 58.6266C62.7747 60.0218 64.5345 60.724 66.6317 60.724C68.7289 60.724 70.3885 60.04 71.7836 58.6722C73.1786 57.3043 73.8716 55.5443 73.8716 53.3922C73.8716 51.2401 73.1786 49.5804 71.7836 48.2399C70.3885 46.8993 68.6651 46.2337 66.6317 46.2337C64.5984 46.2337 62.7747 46.8993 61.3522 48.2399C59.9207 49.5804 59.2186 51.2948 59.2186 53.3922C59.2186 55.4896 59.9298 57.2313 61.3522 58.6266Z" fill="#6CF479"/>
</g>
<defs>
<clipPath id="clip0_15980_18298">
<rect width="100" height="100" fill="white"/>
</clipPath>
</defs>
</svg>
