<svg width="100" height="100" viewBox="0 0 100 100" fill="none" xmlns="http://www.w3.org/2000/svg">
<g clip-path="url(#clip0_15980_18328)">
<path d="M51.1112 67.5033C36.2352 67.5033 24.6188 65.1815 23.9773 62.262L25.1737 70.5008C25.6158 73.3164 36.7814 75.5776 51.1112 75.5776C65.4409 75.5776 76.5459 73.3684 77.0487 70.5008L78.245 62.262C77.5601 65.2335 65.9957 67.5033 51.1112 67.5033Z" fill="#11B67A"/>
<path d="M51.1104 77.1117C44.1319 77.1117 37.5608 76.5745 32.6369 75.6042C31.2412 75.327 30.0709 75.0411 29.0739 74.7379L33.235 96.5002C33.5384 98.4408 41.2278 100 51.1017 100C60.9757 100 68.6303 98.4755 68.9684 96.5002L73.1295 74.7639C66.047 76.9644 54.2052 77.129 51.1017 77.129L51.1104 77.1117Z" fill="#11B67A"/>
<path d="M51.1122 65.3292C64.3584 65.3292 75.0992 63.6572 75.0992 61.5953C75.0992 59.5334 64.3584 57.8614 51.1122 57.8614C37.8661 57.8614 27.1252 59.5334 27.1252 61.5953C27.1252 63.6572 37.8661 65.3292 51.1122 65.3292Z" fill="#01482F"/>
<path d="M69.2552 74.1234L70.1741 65.9625C68.1369 66.3697 65.7876 66.6989 63.1869 66.9501L62.9962 70.1123C62.4241 74.6865 57.5694 75.3709 56.5205 75.4575C61.4618 75.2496 65.8396 74.7818 69.2639 74.106L69.2552 74.1234Z" fill="#01482F"/>
<path d="M59.3034 76.8438L57.8037 94.6124C57.1449 99.6891 51.1113 99.9836 51.1113 99.9836C56.2693 99.9836 60.8118 99.5678 64.028 98.8834L67.4089 76.0035C64.7215 76.4193 61.8781 76.6792 59.2948 76.8438H59.3034Z" fill="#01482F"/>
<path d="M22.1313 17.2143C23.0415 17.067 33.1409 15.577 40.4921 23.1834C46.9592 29.8715 46.2743 38.3962 46.153 39.6264L38.1862 23.1834L22.1313 17.2143Z" fill="black"/>
<path d="M75.2645 33.8392C75.932 35.9271 77.2671 41.1165 75.0738 46.6523C72.1437 54.0682 64.0903 59.0323 54.7451 59.1016C56.0281 58.9023 68.3207 56.7538 73.392 45.9246C75.698 41.0038 75.5419 36.3516 75.2559 33.8479L75.2645 33.8392Z" fill="black"/>
<path d="M52.8551 59.1009C52.6297 58.2172 50.3671 48.6269 57.1289 40.7606C64.1507 32.5824 74.5017 33.744 75.2645 33.8392C75.3686 34.6449 76.738 46.8682 67.5056 54.3707C61.576 59.1789 54.8316 59.1789 52.8551 59.1009Z" fill="#11B67A"/>
<path d="M74.5873 36.6292C74.4052 39.1676 73.6857 43.8545 70.5129 48.4634C69.1865 50.3866 67.7388 51.8507 66.4818 52.925C67.1146 50.7245 67.1233 49.425 66.5165 49.0005C65.6323 48.3854 63.413 49.6936 59.8674 52.925C60.6996 51.6861 62.0606 49.9188 64.1152 48.2121C66.6292 46.1156 68.1549 45.8211 70.0361 44.227C71.5618 42.9362 73.4256 40.7097 74.5873 36.6379V36.6292Z" fill="#01482F"/>
<path d="M45.3562 41.7406C44.4546 41.8879 34.6933 43.3 27.4461 35.8842C19.9128 28.1738 21.9666 17.9767 22.1313 17.2143C22.9462 17.1797 35.2482 16.8855 41.9233 26.7357C46.197 33.0599 45.6076 39.774 45.3562 41.7319V41.7406Z" fill="#11B67A"/>
<path d="M23.4333 18.4443C25.9733 18.6262 30.6632 19.3453 35.2751 22.5161C37.1996 23.8416 38.6646 25.2884 39.7396 26.5445C37.5377 25.9121 36.2373 25.9035 35.8125 26.5099C35.1971 27.3935 36.5061 29.6114 39.7396 33.1547C38.4999 32.323 36.7315 30.9628 35.0237 28.9096C32.9258 26.3973 32.631 24.8725 31.036 22.9926C29.7443 21.4678 27.5164 19.6052 23.442 18.4443H23.4333Z" fill="#01482F"/>
<path d="M63.0406 30.8415C61.5322 32.7474 59.9024 34.3328 58.2553 35.641C56.5822 36.9492 54.9004 37.9974 53.2966 38.8204C52.8025 39.0457 51.0947 39.9727 50.2105 42.0345C50.1238 42.2078 50.0631 42.3897 50.0198 42.5543C49.569 43.8885 49.6817 45.3439 50.1845 46.6694L56.0014 62.4021H51.4762L44.1509 41.8613L43.9515 41.2982C43.5701 40.4665 42.9286 38.8984 42.3564 36.8192C41.5676 33.9603 40.9261 30.1224 41.2988 25.8254C41.5849 22.4814 42.5038 18.8514 44.4543 15.1955C51.6062 1.72401 66.2914 0.10396 67.3837 0C67.7911 1.09158 73.4953 17.5866 63.0319 30.8415H63.0406Z" fill="#6CF479"/>
<path d="M65.9629 1.43716C63.2495 2.13023 56.8431 4.16611 51.1736 10.0572C45.3221 16.1389 43.597 22.8703 43.0508 25.6079C46.189 23.3987 48.2782 22.6537 49.3272 23.3987C50.9482 24.551 50.0553 29.2552 46.6311 37.5286C48.2782 35.2935 50.5321 31.7849 52.2313 27.1066C54.3205 21.3715 53.887 18.5213 55.4994 14.2069C56.8085 10.7243 59.5392 6.0374 65.9629 1.44582V1.43716Z" fill="#11B67A"/>
<path d="M67.809 12.2153C67.887 9.7203 67.6529 7.51981 67.3235 5.74382C67.3322 6.61016 67.3235 7.57179 67.2628 8.60273C67.0981 10.0755 66.6994 11.8688 65.7978 13.7574C64.3587 16.7636 62.3215 18.6002 61.1859 19.4839C61.5067 20.3502 61.7494 21.3118 61.8708 22.3514C62.2175 25.5569 61.1859 28.3898 59.9636 30.5296C59.3741 31.4133 58.7933 32.219 58.2385 32.9294C57.857 33.4059 57.4756 33.8737 57.1028 34.3502C59.5648 32.1324 65.9105 25.8255 67.4796 15.8106C67.6703 14.5978 67.7656 13.4455 67.809 12.3453C67.809 12.328 67.809 12.3106 67.8177 12.302C67.8177 12.276 67.8177 12.2587 67.8177 12.2327L67.809 12.2153Z" fill="white"/>
<path d="M55.9854 62.4279C55.9854 62.6878 54.7978 62.991 53.7228 62.991C52.6479 62.991 51.4516 62.6878 51.4602 62.4279C51.4602 62.168 52.7346 61.9601 53.7228 61.9601C54.7111 61.9601 55.9768 62.168 55.9854 62.4279Z" fill="#6CF479"/>
</g>
<defs>
<clipPath id="clip0_15980_18328">
<rect width="100" height="100" fill="white"/>
</clipPath>
</defs>
</svg>
