<svg width="100" height="100" viewBox="0 0 100 100" fill="none" xmlns="http://www.w3.org/2000/svg">
<rect width="100" height="100" fill="white"/>
<path d="M96.8434 43.6803C92.3906 45.0161 80.9418 46.8863 70.7992 43.6803C69.2654 45.1547 67.6426 47.292 67.6426 49.7856L74.0052 62.3229C74.0052 62.3229 74.1042 62.3031 74.1438 62.2932L77.2113 61.4521C77.2113 61.4521 82.1787 59.948 86.8196 64.3316C89.5506 66.6867 91.8859 70.4072 93.1327 74.9195C94.0332 78.1948 94.2311 81.4108 93.8353 84.2309C98.5058 82.8851 100 80.6785 100 79.2932V49.7856C100 47.3019 98.3772 45.1547 96.8434 43.6803Z" fill="#11B67A"/>
<path d="M70.5222 35.6545V41.5917C70.5222 43.0265 76.4791 44.1941 83.8213 44.1941C91.1636 44.1941 97.1205 43.0265 97.1205 41.5917V35.6545H70.5222Z" fill="black"/>
<path d="M83.8213 38.2577C91.1636 38.2577 97.1205 37.0893 97.1205 35.6545C97.1205 34.2197 91.1636 33.0528 83.8213 33.0528C76.4791 33.0528 70.5222 34.2197 70.5222 35.6545C70.5222 37.0893 76.4791 38.2577 83.8213 38.2577Z" fill="#11B67A"/>
<path d="M78.8832 36.6148L87.2645 34.2103L88.9071 34.3686L80.5555 36.8127L78.8931 36.6148H78.8832Z" fill="black"/>
<path d="M96.9821 46.9847C96.9821 46.9847 98.1894 51.111 87.3244 53.6244C87.3244 53.6244 101.94 53.2187 96.9821 46.9847Z" fill="#6CF479"/>
<path d="M13.8338 44.0357V48.6964C13.8338 49.8244 18.5044 50.7348 24.2733 50.7348C30.0422 50.7348 34.7128 49.8145 34.7128 48.6964V44.0357H13.8338Z" fill="black"/>
<path d="M24.2733 46.0839C30.0422 46.0839 34.7128 45.1736 34.7128 44.0455C34.7128 42.9174 30.0422 42.0071 24.2733 42.0071C18.5044 42.0071 13.8338 42.9174 13.8338 44.0455C13.8338 45.1736 18.5044 46.0839 24.2733 46.0839Z" fill="#11B67A"/>
<path d="M20.405 44.7983L26.9754 42.9182L28.2618 43.037L21.7112 44.9567L20.405 44.7983Z" fill="black"/>
<path d="M11.5784 55.1285C11.5784 53.1792 12.8549 51.497 14.0621 50.3393C22.0278 52.8526 31.0126 51.3882 34.5057 50.3393C35.7129 51.497 36.9894 53.1792 36.9894 55.1285V78.2834C36.9894 79.9359 34.3374 83.0727 24.2839 83.0727C14.2303 83.0727 11.5784 79.9359 11.5784 78.2834V55.1285Z" fill="#11B67A"/>
<path d="M34.6133 52.9318C34.6133 52.9318 35.5534 56.1774 27.0336 58.1367C27.0336 58.1367 38.5022 57.82 34.6133 52.9318Z" fill="#6CF479"/>
<path d="M14.0915 4C14.0915 4 16.4268 11.748 25.9064 13.8853C25.9064 13.8853 18.7225 15.1222 18.584 23.741C18.584 23.741 16.0508 16.2701 6.97686 13.8754C6.97686 13.8754 14.5665 12.975 14.0915 4Z" fill="#006A4D"/>
<path d="M5.16531 59.5315C5.16531 59.5315 6.86728 65.1619 13.7643 66.7253C13.7643 66.7253 8.53958 67.6258 8.44062 73.8994C8.44062 73.8994 6.60011 68.457 0 66.7155C0 66.7155 5.52153 66.0624 5.1851 59.5315H5.16531Z" fill="#006A4D"/>
<path d="M34.3285 20.6039V29.5393C34.3285 31.7064 43.2837 33.4578 54.3366 33.4578C65.3896 33.4578 74.3448 31.6965 74.3448 29.5393V20.6039H34.3285Z" fill="black"/>
<path d="M54.3272 24.522C65.3801 24.522 74.3353 22.7706 74.3353 20.6134C74.3353 18.4563 65.3801 16.6949 54.3272 16.6949C43.2742 16.6949 34.319 18.4464 34.319 20.6134C34.319 22.7805 43.2742 24.522 54.3272 24.522Z" fill="#11B67A"/>
<path d="M46.9047 22.0586L59.5013 18.4469L61.9652 18.6844L49.3983 22.3555L46.8948 22.0586H46.9047Z" fill="black"/>
<path d="M36.841 35.5064C36.841 35.5064 33.4469 38.2177 33.4469 44.0955V59.2253C33.4469 59.2253 34.2386 46.5891 44.9749 47.0343C44.9749 47.0343 32.6652 45.4511 36.841 35.5064Z" fill="#F3F3F5"/>
<path d="M74.1359 37.6536C74.1359 37.6536 75.9467 43.8678 59.5998 47.6379C59.5998 47.6379 81.587 47.0343 74.1359 37.6536Z" fill="#F3F3F5"/>
<path d="M66.2696 73.9491C66.5764 68.1802 69.1393 63.5987 73.2557 62.4706C73.5525 62.3915 73.8494 62.3321 74.1462 62.2925L77.2138 61.4514C77.2138 61.4514 77.7679 61.2832 78.6684 61.2238V41.8589C78.6684 38.1185 76.2242 34.8926 73.9186 32.686C67.2196 34.6947 50.0019 37.5149 34.7336 32.686C32.428 34.9025 29.9839 38.1185 29.9839 41.8589V86.2488C29.9839 89.4252 35.07 95.4316 54.3261 95.4316C60.5601 95.4316 65.2999 94.7983 68.8721 93.8385C67.7836 91.7407 67.3086 90.0486 67.3086 90.0486C65.6561 83.3397 65.7254 77.8874 66.2597 73.9392L66.2696 73.9491Z" fill="#6CF479"/>
<path d="M66.2384 74.7114C66.3571 68.5862 68.9497 63.6386 73.2541 62.471C73.5509 62.3918 73.8469 62.3328 74.1438 62.2932L74.3722 62.2335C74.4613 61.3825 74.2832 60.6404 73.7884 60.1159L72.9374 59.2352C71.8687 58.1171 69.7017 58.3941 67.693 59.7399C67.6732 59.6508 67.6435 59.5717 67.6138 59.4925L67.1388 58.3645C66.4066 56.6229 63.438 56.2073 60.4892 57.4343C59.8757 57.6916 59.3216 57.9983 58.817 58.3447C58.6092 58.216 58.4014 58.0973 58.1837 57.9884C56.739 57.2463 55.2646 56.9296 54.0376 57.0187L53.7209 56.3063C52.9491 54.5845 49.9706 54.2283 47.0515 55.5245C44.9241 56.4745 43.42 58.0379 43.0737 59.4826C42.6185 59.3738 42.1534 59.2847 41.6586 59.2451C38.4823 58.9582 35.771 60.2544 35.6028 62.1345L35.5533 62.659C33.4654 64.0146 32.3571 65.964 32.9904 67.4087L33.4852 68.5268C33.6732 68.9622 34.0096 69.3086 34.445 69.5658L34.3857 70.1892C34.3065 71.0501 34.7815 71.8813 35.6226 72.5641C33.9701 74.1275 33.2576 76.0373 34.0294 77.3039L34.6726 78.3429C34.7221 78.4221 34.8013 78.4814 34.8606 78.5606C34.8408 78.5705 34.821 78.5804 34.8111 78.6002L33.9602 79.4809C32.7826 80.6782 33.2774 83.1124 35.0091 85.2003C34.6231 85.6456 34.3857 86.1206 34.3857 86.6054C34.3857 89.7917 43.3408 92.3644 54.3938 92.3644C59.4898 92.3644 64.1307 91.8103 67.6633 90.9098C67.4753 90.3755 67.3763 90.049 67.3763 90.049C65.8327 83.7952 65.7931 78.6101 66.2285 74.741L66.2384 74.7114Z" fill="#11B67A"/>
<path d="M72.9176 80.4306C70.5131 71.7129 73.0661 63.3911 78.6371 61.8474C84.2081 60.3136 90.6697 66.132 93.0841 74.8596C95.4886 83.5773 92.9357 91.8992 87.3647 93.4428C81.7937 94.9766 75.3321 89.1582 72.9176 80.4306Z" fill="#6CF479"/>
<path d="M72.9192 65.3211L68.4069 66.3403C69.6043 64.4008 71.2469 63.0155 73.2556 62.4613L77.4512 61.3926C75.6997 62.1051 73.9681 63.4805 72.9093 65.3211H72.9192Z" fill="black"/>
<path d="M67.4459 68.2299L72.0274 67.2008C71.8691 67.6362 71.7207 68.0815 71.5821 68.5367L66.971 69.5757C67.1095 69.1106 67.2678 68.6653 67.4459 68.2299Z" fill="black"/>
<path d="M70.9492 72.2968C70.7513 74.9289 71.0185 77.8184 71.8299 80.7572C74.373 89.9598 81.2303 96.0948 87.1576 94.472L82.4771 95.8079C76.5499 97.4505 69.6727 91.3055 67.1297 82.0931C66.2886 79.0454 66.0214 76.057 66.2688 73.3457L70.9492 72.2968Z" fill="black"/>
<path d="M91.0273 75.4835C88.8998 67.7652 83.2793 62.5306 78.3119 63.4905C78.5296 63.4014 78.7572 63.3124 78.9848 63.253C84.0709 61.8479 89.9784 67.1715 92.185 75.1371C94.3818 83.1028 92.0465 90.7122 86.9604 92.1075C86.802 92.1569 86.6338 92.1866 86.4755 92.2163C91.0867 90.3461 93.1251 83.083 91.0174 75.4736H91.0273V75.4835Z" fill="#024731"/>
<path d="M75.3614 81.9741C74.9656 80.7174 74.6984 79.4607 74.5698 78.2337C75.2624 80.1732 76.3014 80.8955 76.8753 81.0637C77.5383 81.2617 78.231 80.9846 78.231 80.9846C80.3585 87.4165 83.7327 89.1976 86.2956 89.1185C87.7898 89.069 88.8585 88.1784 89.4917 87.4561C88.7595 89.1679 87.6116 90.4246 86.1076 90.9491C82.199 92.3146 77.3998 88.2873 75.3812 81.9642L75.3614 81.9741Z" fill="white"/>
<path d="M87.2572 61.1056C87.2572 61.1056 88.9592 66.736 95.8561 68.2994C95.8561 68.2994 90.6315 69.1999 90.5325 75.4735C90.5325 75.4735 88.692 70.0311 82.0919 68.2896C82.0919 68.2896 87.6134 67.6365 87.277 61.1056H87.2572Z" fill="#006A4D"/>
</svg>
