<svg width="100" height="100" viewBox="0 0 100 100" fill="none" xmlns="http://www.w3.org/2000/svg">
<g clip-path="url(#clip0_15980_18377)">
<rect width="100" height="100" fill="white"/>
<path d="M93.5026 82.9579L77.4818 46.6396C77.117 45.8099 76.2234 45.2354 75.3663 45.2354C75.2478 45.2354 75.1384 45.2445 75.0199 45.2719L5.60251 59.9341C4.6451 60.1256 4.21654 61.0466 4.63598 61.9949L20.83 98.5958C21.1947 99.4255 22.0974 100 22.9546 100C23.0731 100 23.2008 99.9909 23.3193 99.9635L92.5634 85.0095C93.5026 84.818 93.922 83.8971 93.5117 82.9579H93.5026Z" fill="black"/>
<path d="M93.5026 81.8004L77.4818 45.4822C77.117 44.6524 76.2234 44.0779 75.3663 44.0779C75.2478 44.0779 75.1384 44.0871 75.0199 44.1144L5.60251 58.7767C4.6451 58.9681 4.21654 59.8891 4.63598 60.8374L20.83 97.4383C21.1947 98.2681 22.0974 98.8425 22.9546 98.8425C23.0731 98.8425 23.2008 98.8334 23.3193 98.8061L92.5634 83.852C93.5026 83.6605 93.922 82.7396 93.5117 81.8004H93.5026Z" fill="#11B67A"/>
<path d="M18.0762 91.2273L90.7397 75.5438L87.3386 67.8388L14.6751 83.5223L18.0762 91.2273Z" fill="black"/>
<path d="M87.7672 19.5403C87.7672 19.5403 90.1744 27.5279 99.9492 29.7345C99.9492 29.7345 92.5452 31.0111 92.3993 39.9015C92.3993 39.9015 89.7915 32.1965 80.427 29.7254C80.427 29.7254 88.2505 28.7954 87.7672 19.5403Z" fill="#006A4D"/>
<path d="M5.28341 33.6665C5.28341 33.6665 7.03412 39.4749 14.1464 41.0888C14.1464 41.0888 8.75748 42.0189 8.65718 48.4838C8.65718 48.4838 6.76056 42.876 -0.0507812 41.0797C-0.0507812 41.0797 5.64815 40.405 5.29253 33.6665H5.28341Z" fill="#006A4D"/>
<path d="M43.9541 73.2386C43.9541 73.2386 45.7048 79.047 52.8171 80.6609C52.8171 80.6609 47.4281 81.591 47.3278 88.0559C47.3278 88.0559 45.4313 82.4481 38.6199 80.6518C38.6199 80.6518 44.3188 79.977 43.9632 73.2386H43.9541Z" fill="#6CF479"/>
<path d="M72.5306 51.792L71.9288 46.3758C71.0169 48.1447 69.8863 49.4851 68.5459 50.3969C67.2055 51.3088 65.4457 51.7647 63.2846 51.7647C62.0263 51.7647 60.9139 51.6461 59.9474 51.4273C58.9809 51.1993 57.7499 50.8528 56.2727 50.3969C54.8503 49.941 53.6193 49.5945 52.598 49.3666C51.5677 49.1386 50.4006 49.0292 49.0875 49.0292C47.7745 49.0292 46.6621 49.1751 45.577 49.4577C46.9447 47.8073 47.9386 46.0657 48.5678 44.2421C49.1969 42.4184 49.507 40.3394 49.507 37.996C49.507 37.7407 49.4979 37.4854 49.4887 37.2301L64.7071 35.0143L64.315 30.0357H47.8839C47.0268 27.8109 46.4068 26.0146 46.0056 24.6468C45.6044 23.2791 45.4038 21.7381 45.4038 20.0238C45.4038 17.2883 46.3429 15.0908 48.2304 13.4404C50.1088 11.79 52.6528 10.9602 55.8442 10.9602C58.4064 10.9602 60.9139 11.562 63.3758 12.7565C65.8287 13.951 67.7708 15.5194 69.1933 17.4616L69.7221 9.0089L69.1933 4.70505C67.3149 3.21877 65.008 2.06986 62.2999 1.24009C59.5918 0.419443 56.7013 0 53.6193 0C49.3976 0 45.6682 0.765938 42.413 2.30693C39.1577 3.84793 36.6411 5.99985 34.8448 8.7627C33.0485 11.5347 32.1458 14.6805 32.1458 18.2184C32.1458 20.0968 32.3282 21.9387 32.702 23.735C33.0667 25.5313 33.623 27.6285 34.3707 30.0175H29.5836L29.0456 34.9961L35.9025 35.9353C36.2581 37.7407 36.4314 39.2999 36.4314 40.6221C36.4314 44.3333 35.7931 47.7253 34.5074 50.7981C34.243 51.4455 33.9056 52.1294 33.5409 52.8498L5.61164 58.7493C4.65422 58.9408 4.22567 59.8617 4.64511 60.8101L7.99152 68.3691H26.684L56.7469 68.1959L50.8747 63.8282L48.9325 61.2568C51.0297 61.6489 52.7531 61.9407 54.057 62.1231C55.4794 62.3237 57.1025 62.424 58.9261 62.424C63.4305 62.424 70.3331 57.8101 70.3331 57.8101L72.5397 51.7647L72.5306 51.792Z" fill="black"/>
<path d="M34.0972 56.3586C35.4193 53.1945 36.0758 49.7113 36.0758 45.909C36.0758 44.0945 35.7567 41.8331 35.1093 39.1432H29.0548V35.0126H33.9786C33.2127 32.5507 32.6382 30.3988 32.2644 28.5569C31.8814 26.7058 31.6899 24.8183 31.6899 22.8853C31.6899 19.2562 32.6109 16.0192 34.4619 13.1743C36.3038 10.3293 38.8934 8.12271 42.2307 6.54524C45.5679 4.96777 49.4067 4.17448 53.7379 4.17448C56.9019 4.17448 59.8745 4.60304 62.6556 5.45104C65.4366 6.29905 67.7983 7.48443 69.7313 9.00719V22.1011C68.2633 20.1133 66.2755 18.4994 63.7589 17.2684C61.2422 16.0374 58.6618 15.4265 56.0266 15.4265C52.744 15.4265 50.1362 16.2745 48.2031 17.9705C46.2701 19.6665 45.3035 21.9278 45.3035 24.7363C45.3035 26.4961 45.5132 28.0736 45.9144 29.4778C46.3248 30.882 46.9722 32.7239 47.8475 35.0126H64.7163V39.1432H49.0785C49.3703 40.4927 49.5162 41.8331 49.5162 43.1826C49.5162 45.5899 49.197 47.7236 48.5496 49.5928C47.9022 51.4712 46.881 53.2584 45.4768 54.9544C46.5892 54.6626 47.7837 54.5167 49.0785 54.5167C50.3733 54.5167 51.6225 54.6352 52.6802 54.8632C53.7379 55.1003 54.9962 55.4468 56.4551 55.9209C57.9779 56.386 59.2362 56.7416 60.2301 56.9787C61.224 57.2157 62.3729 57.3251 63.6586 57.3251C65.8834 57.3251 67.6797 56.8601 69.0657 55.9209C70.4426 54.9817 71.6006 53.6049 72.5398 51.7903C72.5398 57.5349 71.4638 61.7202 69.3301 64.3554C67.1873 66.9906 63.8136 68.3127 59.1815 68.3127C57.3031 68.3127 55.6436 68.2124 54.1756 68.0027C52.7075 67.793 50.7471 67.4647 48.2852 66.9906C46.2336 66.5802 44.5467 66.2702 43.2337 66.0696C41.9206 65.869 40.4982 65.7596 38.9755 65.7596C36.5135 65.7596 34.3707 65.9693 32.5197 66.3705C30.6687 66.7808 28.7265 67.4556 26.6749 68.3948C30.304 63.5347 32.7841 59.5227 34.0972 56.3586Z" fill="#6CF479"/>
</g>
<defs>
<clipPath id="clip0_15980_18377">
<rect width="100" height="100" fill="white"/>
</clipPath>
</defs>
</svg>
