<svg width="100" height="100" viewBox="0 0 100 100" fill="none" xmlns="http://www.w3.org/2000/svg">
<g clip-path="url(#clip0_15980_18363)">
<rect width="100" height="100" fill="white"/>
<path d="M30.7918 78.8588C32.6139 74.4909 33.5147 69.6821 33.5147 64.4222C33.5147 61.9204 33.0745 58.8034 32.184 55.0814H23.831V49.3806H30.6076C29.5532 45.9867 28.765 43.0132 28.2429 40.4704C27.7209 37.9173 27.4547 35.313 27.4547 32.6471C27.4547 27.6333 28.7241 23.1731 31.273 19.246C33.8116 15.3293 37.3841 12.2738 41.9905 10.0898C46.5969 7.90587 51.8789 6.81901 57.857 6.81901C62.2178 6.81901 66.3123 7.40345 70.151 8.57233C73.9897 9.75146 77.2346 11.3817 79.9063 13.4837V31.5603C77.8898 28.8124 75.1362 26.5874 71.666 24.8854C68.1958 23.1833 64.6438 22.3425 61.0099 22.3425C56.4854 22.3425 52.8923 23.5114 50.2308 25.8594C47.5694 28.2074 46.2387 31.3142 46.2387 35.2002C46.2387 37.6302 46.5252 39.8142 47.0882 41.7521C47.6512 43.69 48.5419 46.243 49.7498 49.3908H72.9967V55.0917H51.4387C51.8482 56.9475 52.0427 58.8136 52.0427 60.6695C52.0427 63.9915 51.6026 66.9342 50.712 69.5283C49.8214 72.1224 48.4088 74.5832 46.4741 76.9312C47.9993 76.5314 49.6576 76.3263 51.4387 76.3263C53.2199 76.3263 54.9499 76.4903 56.4035 76.8082C57.857 77.1363 59.5972 77.6182 61.6138 78.2642C63.7123 78.9101 65.4525 79.4023 66.8242 79.7201C68.1959 80.038 69.7723 80.202 71.5534 80.202C74.6141 80.202 77.1015 79.5561 79.0055 78.2642C80.8993 76.9723 82.4962 75.0754 83.786 72.5633C83.786 80.4891 82.3119 86.272 79.3638 89.9119C76.4157 93.5519 71.7581 95.3667 65.3808 95.3667C62.8012 95.3667 60.498 95.2232 58.4814 94.9463C56.4648 94.6592 53.7522 94.1978 50.3639 93.5519C47.5387 92.9879 45.215 92.5676 43.3929 92.2805C41.581 92.0036 39.6259 91.8601 37.5172 91.8601C34.1289 91.8601 31.1603 92.1472 28.6217 92.7111C26.0728 93.275 23.3909 94.2081 20.5656 95.5C25.5712 88.7841 28.98 83.2473 30.8021 78.8794L30.7918 78.8588Z" fill="#11B67A"/>
<path d="M28.1302 21.931L22.019 20.4647C21.5276 21.6234 21.1284 22.823 20.8213 24.0637L26.871 25.5401C27.1986 24.2995 27.6183 23.0998 28.1302 21.931Z" fill="black"/>
<path d="M68.165 47.8711L65.6058 47.0713H50.4866C50.5889 47.3379 50.6811 47.5942 50.7835 47.8711H68.165Z" fill="black"/>
<path d="M22.3159 49.3871V47.8696H28.5703C27.7924 45.2345 27.1884 42.8558 26.7687 40.7743C26.2262 38.1495 25.9498 35.4118 25.9498 32.6434C25.9498 32.3051 25.9702 31.977 25.9805 31.6489L20.0741 30.2134C20.0741 30.2134 20.0741 30.2852 20.0741 30.3262C20.0741 32.9921 20.3299 35.6067 20.8622 38.1495C21.3843 40.6923 22.1725 43.6658 23.2269 47.0596H16.4503V52.7605L22.326 54.6061V49.3769L22.3159 49.3871Z" fill="black"/>
<path d="M71.5432 78.6821C74.2865 78.6821 76.5079 78.1182 78.1354 77.0006C79.7528 75.8932 81.1552 74.2322 82.2915 72.0893L76.3748 70.2334C75.085 72.7455 73.4881 74.6423 71.5943 75.9342C69.9974 77.0211 67.9706 77.6466 65.5446 77.8209C66.1281 77.9747 66.6809 78.1182 67.162 78.231C68.4211 78.5283 69.8951 78.6719 71.5432 78.6719V78.6821Z" fill="black"/>
<path d="M19.3473 94.5758C24.2506 87.9931 27.6286 82.5178 29.3995 78.2832C31.1295 74.1306 32.0098 69.4756 32.0098 64.431C32.0098 62.2983 31.6618 59.6734 30.9862 56.6077H25.5814C25.9396 58.6789 26.1341 60.5347 26.1341 62.1137C26.1341 67.3737 25.2333 72.1825 23.4112 76.5504C21.5891 80.9183 18.1803 86.4551 13.1747 93.171L19.0402 95.0064L19.3576 94.5758H19.3473Z" fill="black"/>
<path d="M77.2243 30.7174C75.5455 28.9539 73.4676 27.4466 71.0006 26.247C70.1817 25.8471 69.3525 25.4985 68.5233 25.1909C70.069 26.3803 71.3998 27.7235 72.5053 29.2307L77.2141 30.7072L77.2243 30.7174Z" fill="black"/>
<path d="M29.3176 19.5826C29.5428 19.193 29.768 18.8034 30.0137 18.424C32.6957 14.2817 36.5139 11.0211 41.3455 8.72437C46.1259 6.45838 51.6843 5.29976 57.8569 5.29976C58.2561 5.29976 58.6451 5.33052 59.0341 5.34077C56.301 4.79735 53.445 4.5 50.4662 4.5C44.4881 4.5 39.2061 5.58685 34.5997 7.77081C29.9933 9.95477 26.431 13.0103 23.8821 16.927C23.6262 17.3167 23.401 17.7165 23.1758 18.1164L29.3176 19.5826Z" fill="black"/>
<path d="M49.9134 74.6952C49.8827 74.7465 49.852 74.7977 49.8213 74.849C50.026 74.8388 50.241 74.8387 50.456 74.8285C50.2717 74.7772 50.0977 74.7362 49.9236 74.6952H49.9134Z" fill="black"/>
<path d="M86.2733 48.3009C86.2733 48.3009 88.9757 57.2828 99.9492 59.7641C99.9492 59.7641 91.6372 61.1996 91.4735 71.1966C91.4735 71.1966 88.5458 62.5325 78.033 59.7539C78.033 59.7539 86.8159 58.708 86.2733 48.3009Z" fill="#006A4D"/>
<path d="M5.68167 14.1388C5.68167 14.1388 7.56516 20.383 15.1913 22.1056C15.1913 22.1056 9.40771 23.1002 9.29511 30.0519C9.29511 30.0519 7.25805 24.0332 -0.0507812 22.0953C-0.0507812 22.0953 6.06042 21.3674 5.68167 14.1285V14.1388Z" fill="#006A4D"/>
</g>
<defs>
<clipPath id="clip0_15980_18363">
<rect width="100" height="100" fill="white"/>
</clipPath>
</defs>
</svg>
