<svg width="100" height="100" viewBox="0 0 100 100" fill="none" xmlns="http://www.w3.org/2000/svg">
<g clip-path="url(#clip0_15980_18379)">
<path d="M93.5553 82.9579L77.5345 46.6396C77.1698 45.8099 76.2762 45.2354 75.4191 45.2354C75.3005 45.2354 75.1911 45.2445 75.0726 45.2719L5.65525 59.9341C4.69783 60.1256 4.26927 61.0466 4.68871 61.9949L20.8827 98.5958C21.2475 99.4255 22.1502 100 23.0073 100C23.1258 100 23.2535 99.9909 23.372 99.9635L92.6161 85.0095C93.5553 84.818 93.9747 83.8971 93.5644 82.9579H93.5553Z" fill="#024731"/>
<path d="M93.5553 81.8004L77.5345 45.4822C77.1698 44.6524 76.2762 44.0779 75.4191 44.0779C75.3005 44.0779 75.1911 44.0871 75.0726 44.1144L5.65525 58.7767C4.69783 58.9681 4.26927 59.8891 4.68871 60.8374L20.8827 97.4383C21.2475 98.2681 22.1502 98.8425 23.0073 98.8425C23.1258 98.8425 23.2535 98.8334 23.372 98.8061L92.6161 83.852C93.5553 83.6605 93.9747 82.7396 93.5644 81.8004H93.5553Z" fill="#11B67A"/>
<path d="M18.129 91.2273L90.7924 75.5438L87.3913 67.8388L14.7279 83.5223L18.129 91.2273Z" fill="#024731"/>
<path d="M87.8199 19.5403C87.8199 19.5403 90.2272 27.5279 100.002 29.7345C100.002 29.7345 92.5979 31.0111 92.452 39.9015C92.452 39.9015 89.8442 32.1965 80.4797 29.7254C80.4797 29.7254 88.3032 28.7954 87.8199 19.5403Z" fill="white"/>
<path d="M5.33614 33.6665C5.33614 33.6665 7.08685 39.4749 14.1991 41.0888C14.1991 41.0888 8.81021 42.0189 8.70991 48.4838C8.70991 48.4838 6.81329 42.876 0.00195312 41.0797C0.00195312 41.0797 5.70088 40.405 5.34527 33.6665H5.33614Z" fill="white"/>
<path d="M44.0068 73.2386C44.0068 73.2386 45.7575 79.047 52.8698 80.6609C52.8698 80.6609 47.4809 81.591 47.3806 88.0559C47.3806 88.0559 45.484 82.4481 38.6726 80.6518C38.6726 80.6518 44.3715 79.977 44.0159 73.2386H44.0068Z" fill="white"/>
<path d="M72.5833 51.792L71.9815 46.3758C71.0697 48.1447 69.939 49.4851 68.5986 50.3969C67.2583 51.3088 65.4984 51.7647 63.3374 51.7647C62.0791 51.7647 60.9667 51.6461 60.0001 51.4273C59.0336 51.1993 57.8026 50.8528 56.3254 50.3969C54.903 49.941 53.672 49.5945 52.6508 49.3666C51.6204 49.1386 50.4533 49.0292 49.1403 49.0292C47.8272 49.0292 46.7148 49.1751 45.6297 49.4577C46.9975 47.8073 47.9914 46.0657 48.6205 44.2421C49.2497 42.4184 49.5597 40.3394 49.5597 37.996C49.5597 37.7407 49.5506 37.4854 49.5415 37.2301L64.7598 35.0143L64.3678 30.0357H47.9367C47.0795 27.8109 46.4595 26.0146 46.0583 24.6468C45.6571 23.2791 45.4565 21.7381 45.4565 20.0238C45.4565 17.2883 46.3957 15.0908 48.2832 13.4404C50.1615 11.79 52.7055 10.9602 55.8969 10.9602C58.4591 10.9602 60.9666 11.562 63.4286 12.7565C65.8814 13.951 67.8236 15.5194 69.246 17.4616L69.7749 9.0089L69.246 4.70505C67.3677 3.21877 65.0607 2.06986 62.3526 1.24009C59.6445 0.419443 56.754 0 53.6721 0C49.4503 0 45.7209 0.765938 42.4657 2.30693C39.2105 3.84793 36.6938 5.99985 34.8975 8.7627C33.1012 11.5347 32.1985 14.6805 32.1985 18.2184C32.1985 20.0968 32.3809 21.9387 32.7547 23.735C33.1195 25.5313 33.6757 27.6285 34.4234 30.0175H29.6363L29.0983 34.9961L35.9552 35.9353C36.3109 37.7407 36.4841 39.2999 36.4841 40.6221C36.4841 44.3333 35.8458 47.7253 34.5602 50.7981C34.2957 51.4455 33.9583 52.1294 33.5936 52.8498L5.66437 58.7493C4.70696 58.9408 4.2784 59.8617 4.69784 60.8101L8.04426 68.3691H26.7367L56.7996 68.1959L50.9274 63.8282L48.9852 61.2568C51.0825 61.6489 52.8058 61.9407 54.1097 62.1231C55.5322 62.3237 57.1552 62.424 58.9789 62.424C63.4833 62.424 70.3858 57.8101 70.3858 57.8101L72.5924 51.7647L72.5833 51.792Z" fill="#024731"/>
<path d="M34.1499 56.3586C35.4721 53.1945 36.1286 49.7113 36.1286 45.909C36.1286 44.0945 35.8094 41.8331 35.162 39.1432H29.1075V35.0126H34.0314C33.2654 32.5507 32.691 30.3988 32.3171 28.5569C31.9342 26.7058 31.7427 24.8183 31.7427 22.8853C31.7427 19.2562 32.6636 16.0192 34.5146 13.1743C36.3565 10.3293 38.9461 8.12271 42.2834 6.54524C45.6207 4.96777 49.4595 4.17448 53.7906 4.17448C56.9547 4.17448 59.9272 4.60304 62.7083 5.45104C65.4894 6.29905 67.851 7.48443 69.7841 9.00719V22.1011C68.316 20.1133 66.3283 18.4994 63.8116 17.2684C61.295 16.0374 58.7145 15.4265 56.0793 15.4265C52.7967 15.4265 50.1889 16.2745 48.2559 17.9705C46.3228 19.6665 45.3562 21.9278 45.3562 24.7363C45.3562 26.4961 45.566 28.0736 45.9672 29.4778C46.3775 30.882 47.0249 32.7239 47.9002 35.0126H64.769V39.1432H49.1312C49.423 40.4927 49.5689 41.8331 49.5689 43.1826C49.5689 45.5899 49.2498 47.7236 48.6024 49.5928C47.955 51.4712 46.9337 53.2584 45.5295 54.9544C46.6419 54.6626 47.8364 54.5167 49.1312 54.5167C50.426 54.5167 51.6752 54.6352 52.7329 54.8632C53.7907 55.1003 55.049 55.4468 56.5079 55.9209C58.0306 56.386 59.289 56.7416 60.2829 56.9787C61.2767 57.2157 62.4256 57.3251 63.7113 57.3251C65.9362 57.3251 67.7325 56.8601 69.1185 55.9209C70.4953 54.9817 71.6533 53.6049 72.5925 51.7903C72.5925 57.5349 71.5165 61.7202 69.3829 64.3554C67.2401 66.9906 63.8663 68.3127 59.2342 68.3127C57.3559 68.3127 55.6964 68.2124 54.2283 68.0027C52.7603 67.793 50.7999 67.4647 48.3379 66.9906C46.2863 66.5802 44.5994 66.2702 43.2864 66.0696C41.9734 65.869 40.5509 65.7596 39.0282 65.7596C36.5663 65.7596 34.4235 65.9693 32.5724 66.3705C30.7214 66.7808 28.7792 67.4556 26.7276 68.3948C30.3567 63.5347 32.8369 59.5227 34.1499 56.3586Z" fill="#6CF479"/>
</g>
<defs>
<clipPath id="clip0_15980_18379">
<rect width="100" height="100" fill="white"/>
</clipPath>
</defs>
</svg>
