<svg width="100" height="100" viewBox="0 0 100 100" fill="none" xmlns="http://www.w3.org/2000/svg">
<g clip-path="url(#clip0_15980_18414)">
<rect width="100" height="100" fill="white"/>
<path d="M64.7246 6.99078L61.0305 5.707L65.4637 0.360321L55.2388 5.63033L58.9278 6.91243L54.4997 12.2608L64.7246 6.99078Z" fill="#6CF479"/>
<path d="M44.6732 11.963L40.2451 6.61461L43.9341 5.33251L33.7092 0.0625L38.1423 5.40918L34.4482 6.69296L44.6732 11.963Z" fill="#6CF479"/>
<path d="M55.3664 17.0561L59.7945 22.4044L56.1055 23.6865L66.3304 28.9565L61.8973 23.6099L65.5914 22.3261L55.3664 17.0561Z" fill="#6CF479"/>
<path d="M33.6253 23.0149L37.3194 24.2987L32.8863 29.6454L43.1112 24.3754L39.4222 23.0933L43.8503 17.7449L33.6253 23.0149Z" fill="#6CF479"/>
<path fill-rule="evenodd" clip-rule="evenodd" d="M42.0294 44.9126C42.1263 44.9014 42.3613 44.9522 42.5505 45.0267C42.7378 45.1004 43.0394 45.1447 43.2178 45.1237C43.396 45.1032 43.6037 45.1277 43.6793 45.1778C43.8051 45.2645 43.6584 45.9491 42.7026 49.7165C42.134 51.9514 41.9354 52.5706 40.5082 56.5383C40.3691 56.926 40.2218 57.3348 40.0726 57.7503L49.3542 53.0365L49.8365 53.9772L50.2228 53.2244L61.0515 58.8532L60.2685 60.2634L49.572 54.8441L40.4944 59.454L50.126 64.3464L49.8045 64.9729L50.808 66.9316L44.6784 70.0532L48.8037 79.868L48.7622 79.8852L50.8019 80.9211L49.6662 83.1373L34.3078 75.337L32.8463 76.082C32.6526 76.5558 32.4665 77.0068 32.2957 77.4261C31.7373 78.8006 31.0015 80.5211 30.6639 81.2473C30.3239 81.9738 30.0307 82.5651 30.0105 82.5605C29.9874 82.5553 29.5185 82.4666 28.9673 82.3614C28.4148 82.257 27.7883 82.1364 27.5741 82.0953C27.2133 82.0245 27.2229 81.937 27.7089 80.801C27.999 80.13 28.6215 78.6748 29.097 77.5643C29.5709 76.4541 30.3474 74.6906 30.8221 73.6453C31.8949 71.2834 34.7596 64.7343 35.5117 62.9302C37.9187 57.1482 39.3358 53.1885 41.2748 46.8309C41.593 45.7873 41.9326 44.9239 42.0294 44.9126ZM37.0528 73.9379L45.28 78.1162L42.3829 71.2223L37.0528 73.9379ZM38.4624 62.2392C38.0546 63.3734 37.3746 65.1261 36.9499 66.1342C36.3998 67.4426 35.3579 69.9644 34.3069 72.5192L41.4114 68.9108L38.529 62.0521C38.5054 62.1181 38.4834 62.1806 38.4624 62.2392ZM43.7087 67.7444L48.3741 65.3755L41.1763 61.7199L43.7087 67.7444Z" fill="#006A4D"/>
<path fill-rule="evenodd" clip-rule="evenodd" d="M57.6148 46.0712C57.7466 46.4307 58.4573 48.6672 59.193 51.0391C61.7448 59.2557 63.2949 63.3256 69.7175 78.6714C70.6417 80.879 71.39 82.799 71.3787 82.9398C71.3651 83.1195 71.0439 83.3039 70.2983 83.5603C69.7129 83.7602 69.1851 83.9366 69.122 83.9526C69.0608 83.9666 68.7768 83.3521 68.4928 82.5861C67.4999 79.909 66.5756 77.51 65.6536 75.2004L51.844 82.2128C51.9499 85.5908 52.0445 88.2855 52.111 89.5891L52.2191 91.7202L51.4611 91.8C51.044 91.8449 50.079 91.8812 49.3168 91.8824L47.9313 91.8833L48.0593 85.8889C48.1316 82.5919 48.2817 72.597 48.392 63.6759C48.5044 54.7549 48.6495 47.0385 48.7135 46.5269C48.7924 45.9083 49.0099 45.626 49.3669 45.6798C50.0806 45.79 50.1361 45.7004 50.7014 45.7004C51.9009 45.7004 50.7632 45.7215 50.8872 46.4832L51.2986 61.731C51.3088 62.2031 51.3204 62.6851 51.3315 63.1755L59.6744 58.9381C59.4304 58.1969 59.0663 57.1243 58.7246 56.1443C58.236 54.7453 57.5676 52.6374 57.2406 51.4605C56.9115 50.2849 56.467 48.714 56.2545 47.9697C55.8447 46.5428 55.7899 45.9463 56.0669 45.9613C56.1599 45.9663 56.492 45.8455 56.8059 45.6935L57.3754 45.4154L57.6148 46.0712ZM53.5484 78.6637L62.569 74.0374L56.8007 71.0419L53.5484 78.6637ZM51.4533 68.2653C51.5245 71.1049 51.6021 74.0299 51.6806 76.7865L54.6166 69.9081L51.4533 68.2653ZM57.722 68.8815L64.5214 72.3336C63.3072 69.1962 61.671 64.7655 60.6805 61.9499L57.722 68.8815ZM51.3755 65.1024C51.3799 65.289 51.384 65.4764 51.3885 65.6646L55.5293 67.7675L58.13 61.6726L51.3755 65.1024Z" fill="#11B67A"/>
<path d="M49.6988 50.5294C54.7316 50.5294 58.8114 48.8415 58.8114 46.7594C58.8114 44.6773 54.7316 42.9893 49.6988 42.9893C44.6661 42.9893 40.5863 44.6773 40.5863 46.7594C40.5863 48.8415 44.6661 50.5294 49.6988 50.5294Z" fill="black"/>
<path d="M55.7743 43.8645L54.5285 36.8938C53.3719 37.8852 51.6378 38.5157 49.6988 38.5157C47.4669 38.5157 45.506 37.6807 44.3856 36.4208L43.0552 43.8649C41.8241 44.3124 41.0758 44.8969 41.0758 45.5312C41.0758 46.955 44.8099 49.2016 49.4147 49.2016C54.0196 49.2016 57.7537 46.955 57.7537 45.5312C57.7537 44.8969 57.0053 44.3187 55.7743 43.8645Z" fill="#006A4D"/>
<path d="M55.7333 43.8646L54.493 36.9236C53.3364 37.8978 51.618 38.5157 49.6988 38.5157C47.4442 38.5157 45.4663 37.6632 44.3514 36.3815L43.0143 43.8641C41.7832 44.3116 41.0348 44.8961 41.0348 45.5305C41.0348 46.9542 44.7689 48.9372 49.3738 48.9372C53.9787 48.9372 57.7127 46.9542 57.7127 45.5305C57.7127 44.8961 56.9644 44.3187 55.7333 43.8646Z" fill="black"/>
<path d="M55.717 43.8644L55.714 43.8489C54.3234 46.1077 51.4189 46.7588 49.3566 46.7588C47.1688 46.7588 44.0568 46.4965 42.7891 43.9432C41.6826 44.3798 41.0181 44.9329 41.0181 45.5303C41.0181 46.954 44.7521 49.2006 49.357 49.2006C53.9619 49.2006 57.696 46.954 57.696 45.5303C57.696 44.896 56.9481 44.3186 55.717 43.8644Z" fill="#006A4D"/>
<path d="M49.6988 37.5201C53.1811 37.5201 56.0041 35.4873 56.0041 32.9796C56.0041 30.4719 53.1811 28.439 49.6988 28.439C46.2165 28.439 43.3936 30.4719 43.3936 32.9796C43.3936 35.4873 46.2165 37.5201 49.6988 37.5201Z" fill="#006A4D"/>
<path d="M49.7888 11.6754C52.0647 11.6756 53.9096 13.5124 53.9097 15.7781C53.9097 17.6078 52.7063 19.1571 51.0446 19.686C51.0585 23.2834 50.921 26.8752 50.921 30.4715C50.921 30.8234 50.8846 30.9287 50.7023 31.0963C50.1901 31.5683 49.1896 31.5667 48.7136 31.0929C48.5341 30.9142 48.4869 30.82 48.4621 30.6268L48.405 28.4407C48.4134 26.7105 48.4258 24.0101 48.4258 24.0101L48.4465 19.6568C46.8295 19.1024 45.667 17.576 45.667 15.7781C45.6671 13.5123 47.5127 11.6754 49.7888 11.6754Z" fill="#11B67A"/>
<path d="M65.5167 88.1802L69.6047 86.0605V91.0268L65.5167 93.1464V88.1802Z" fill="#024731"/>
<path d="M65.5167 88.1802L53.691 94.3121C51.4889 95.4539 47.8862 95.4539 45.6841 94.3121L24.1964 83.1704C23.4186 82.767 22.916 82.273 22.6875 81.7526V87.3544L45.4472 99.1556C47.7793 100.365 51.5958 100.365 53.9279 99.1556L65.5167 93.1464V88.1802Z" fill="black"/>
<path d="M75.1786 83.1705L69.6047 86.0605V91.0268L76.6875 87.3545V81.7526C76.4594 82.2734 75.9564 82.7674 75.1786 83.1705Z" fill="black"/>
<path d="M68.7488 86.5044L67.9436 86.9218V91.888L68.7488 91.4707V86.5044Z" fill="black"/>
</g>
<defs>
<clipPath id="clip0_15980_18414">
<rect width="100" height="100" fill="white"/>
</clipPath>
</defs>
</svg>
