<svg width="100" height="100" viewBox="0 0 100 100" fill="none" xmlns="http://www.w3.org/2000/svg">
<g clip-path="url(#clip0_15980_18416)">
<path d="M64.7246 6.98882L61.0305 5.70505L65.4637 0.358368L55.2388 5.62838L58.9278 6.91047L54.4997 12.2588L64.7246 6.98882Z" fill="white"/>
<path d="M44.6732 11.961L40.2451 6.61265L43.9341 5.33055L33.7092 0.0605469L38.1423 5.40723L34.4482 6.691L44.6732 11.961Z" fill="white"/>
<path d="M55.3664 17.0541L59.7945 22.4025L56.1055 23.6846L66.3304 28.9546L61.8973 23.6079L65.5914 22.3241L55.3664 17.0541Z" fill="white"/>
<path d="M33.6253 23.013L37.3194 24.2968L32.8863 29.6434L43.1112 24.3734L39.4222 23.0913L43.8503 17.743L33.6253 23.013Z" fill="white"/>
<path fill-rule="evenodd" clip-rule="evenodd" d="M42.0294 44.9106C42.1263 44.8994 42.3613 44.9503 42.5505 45.0248C42.7378 45.0985 43.0394 45.1427 43.2178 45.1218C43.396 45.1013 43.6037 45.1257 43.6793 45.1758C43.8051 45.2626 43.6584 45.9472 42.7026 49.7146C42.134 51.9494 41.9354 52.5687 40.5082 56.5364C40.3691 56.924 40.2218 57.3328 40.0726 57.7483L49.3542 53.0345L49.8365 53.9752L50.2228 53.2225L61.0515 58.8512L60.2685 60.2614L49.572 54.8421L40.4944 59.4521L50.126 64.3444L49.8045 64.971L50.808 66.9296L44.6784 70.0513L48.8037 79.866L48.7622 79.8832L50.8019 80.9192L49.6662 83.1353L34.3078 75.335L32.8463 76.08C32.6526 76.5538 32.4665 77.0048 32.2957 77.4241C31.7373 78.7987 31.0015 80.5191 30.6639 81.2453C30.3239 81.9719 30.0307 82.5632 30.0105 82.5585C29.9874 82.5534 29.5185 82.4646 28.9673 82.3594C28.4148 82.2551 27.7883 82.1344 27.5741 82.0933C27.2133 82.0225 27.2229 81.935 27.7089 80.799C27.999 80.1281 28.6215 78.6729 29.097 77.5623C29.5709 76.4521 30.3474 74.6887 30.8221 73.6433C31.8949 71.2815 34.7596 64.7324 35.5117 62.9282C37.9187 57.1463 39.3358 53.1866 41.2748 46.8289C41.593 45.7853 41.9326 44.9219 42.0294 44.9106ZM37.0528 73.936L45.28 78.1142L42.3829 71.2203L37.0528 73.936ZM38.4624 62.2373C38.0546 63.3715 37.3746 65.1242 36.9499 66.1323C36.3998 67.4406 35.3579 69.9624 34.3069 72.5172L41.4114 68.9089L38.529 62.0502C38.5054 62.1161 38.4834 62.1787 38.4624 62.2373ZM43.7087 67.7424L48.3741 65.3735L41.1763 61.718L43.7087 67.7424Z" fill="#11B67A"/>
<path fill-rule="evenodd" clip-rule="evenodd" d="M57.6148 46.0692C57.7466 46.4287 58.4573 48.6652 59.193 51.0371C61.7448 59.2538 63.2949 63.3237 69.7175 78.6694C70.6417 80.877 71.39 82.797 71.3787 82.9378C71.3651 83.1175 71.0439 83.302 70.2983 83.5583C69.7129 83.7582 69.1851 83.9347 69.122 83.9506C69.0608 83.9647 68.7768 83.3501 68.4928 82.5842C67.4999 79.907 66.5756 77.508 65.6536 75.1984L51.844 82.2108C51.9499 85.5888 52.0445 88.2835 52.111 89.5871L52.2191 91.7183L51.4611 91.7981C51.044 91.8429 50.079 91.8792 49.3168 91.8805L47.9313 91.8814L48.0593 85.8869C48.1316 82.5899 48.2817 72.5951 48.392 63.674C48.5044 54.7529 48.6495 47.0366 48.7135 46.525C48.7924 45.9064 49.0099 45.6241 49.3669 45.6778C50.0806 45.788 50.1361 45.6985 50.7014 45.6984C51.9009 45.6984 50.7632 45.7196 50.8872 46.4812L51.2986 61.729C51.3088 62.2011 51.3204 62.6832 51.3315 63.1736L59.6744 58.9361C59.4304 58.1949 59.0663 57.1223 58.7246 56.1423C58.236 54.7433 57.5676 52.6355 57.2406 51.4585C56.9115 50.283 56.467 48.712 56.2545 47.9678C55.8447 46.5408 55.7899 45.9443 56.0669 45.9594C56.1599 45.9644 56.492 45.8436 56.8059 45.6916L57.3754 45.4135L57.6148 46.0692ZM53.5484 78.6617L62.569 74.0354L56.8007 71.0399L53.5484 78.6617ZM51.4533 68.2633C51.5245 71.103 51.6021 74.0279 51.6806 76.7846L54.6166 69.9061L51.4533 68.2633ZM57.722 68.8796L64.5214 72.3317C63.3072 69.1943 61.671 64.7635 60.6805 61.9479L57.722 68.8796ZM51.3755 65.1005C51.3799 65.287 51.384 65.4745 51.3885 65.6627L55.5293 67.7655L58.13 61.6707L51.3755 65.1005Z" fill="#6CF479"/>
<path d="M49.6988 50.5275C54.7316 50.5275 58.8114 48.8396 58.8114 46.7574C58.8114 44.6753 54.7316 42.9874 49.6988 42.9874C44.6661 42.9874 40.5863 44.6753 40.5863 46.7574C40.5863 48.8396 44.6661 50.5275 49.6988 50.5275Z" fill="#006A4D"/>
<path d="M55.7743 43.8626L54.5285 36.8919C53.3719 37.8832 51.6378 38.5138 49.6988 38.5138C47.4669 38.5138 45.506 37.6787 44.3856 36.4189L43.0552 43.863C41.8241 44.3105 41.0758 44.8949 41.0758 45.5293C41.0758 46.953 44.8099 49.1996 49.4147 49.1996C54.0196 49.1996 57.7537 46.953 57.7537 45.5293C57.7537 44.8949 57.0053 44.3167 55.7743 43.8626Z" fill="#11B67A"/>
<path d="M55.7333 43.8626L54.493 36.9217C53.3364 37.8958 51.618 38.5138 49.6988 38.5138C47.4442 38.5138 45.4663 37.6612 44.3514 36.3795L43.0143 43.8622C41.7832 44.3097 41.0348 44.8942 41.0348 45.5285C41.0348 46.9522 44.7689 48.9353 49.3738 48.9353C53.9787 48.9353 57.7127 46.9522 57.7127 45.5285C57.7127 44.8942 56.9644 44.3168 55.7333 43.8626Z" fill="#006A4D"/>
<path d="M55.717 43.8625L55.714 43.847C54.3234 46.1057 51.4189 46.7568 49.3566 46.7568C47.1688 46.7568 44.0568 46.4946 42.7891 43.9413C41.6826 44.3778 41.0181 44.9309 41.0181 45.5284C41.0181 46.9521 44.7521 49.1987 49.357 49.1987C53.9619 49.1987 57.696 46.9521 57.696 45.5284C57.696 44.894 56.9481 44.3167 55.717 43.8625Z" fill="#11B67A"/>
<path d="M49.6988 37.5182C53.1811 37.5182 56.0041 35.4853 56.0041 32.9776C56.0041 30.4699 53.1811 28.4371 49.6988 28.4371C46.2165 28.4371 43.3936 30.4699 43.3936 32.9776C43.3936 35.4853 46.2165 37.5182 49.6988 37.5182Z" fill="#11B67A"/>
<path d="M49.7888 11.6734C52.0647 11.6736 53.9096 13.5105 53.9097 15.7761C53.9097 17.6059 52.7063 19.1551 51.0446 19.684C51.0585 23.2814 50.921 26.8732 50.921 30.4695C50.921 30.8214 50.8846 30.9268 50.7023 31.0943C50.1901 31.5664 49.1896 31.5647 48.7136 31.0909C48.5341 30.9122 48.4869 30.8181 48.4621 30.6249L48.405 28.4387C48.4134 26.7086 48.4258 24.0082 48.4258 24.0082L48.4465 19.6548C46.8295 19.1005 45.667 17.5741 45.667 15.7761C45.6671 13.5104 47.5127 11.6734 49.7888 11.6734Z" fill="#6CF479"/>
<path d="M65.5167 88.1782L69.6047 86.0586V91.0248L65.5167 93.1445V88.1782Z" fill="#024731"/>
<path d="M65.5167 88.1782L53.691 94.3102C51.4889 95.4519 47.8862 95.4519 45.6841 94.3102L24.1964 83.1685C23.4186 82.765 22.916 82.271 22.6875 81.7506V87.3525L45.4472 99.1537C47.7793 100.363 51.5958 100.363 53.9279 99.1537L65.5167 93.1445V88.1782Z" fill="#006A4D"/>
<path d="M75.1786 83.1685L69.6047 86.0586V91.0248L76.6875 87.3525V81.7507C76.4594 82.2715 75.9564 82.7654 75.1786 83.1685Z" fill="#006A4D"/>
<path d="M68.7488 86.5025L67.9436 86.9198V91.8861L68.7488 91.4687V86.5025Z" fill="#006A4D"/>
</g>
<defs>
<clipPath id="clip0_15980_18416">
<rect width="100" height="100" fill="white"/>
</clipPath>
</defs>
</svg>
