<svg width="100" height="100" viewBox="0 0 100 100" fill="none" xmlns="http://www.w3.org/2000/svg">
<g clip-path="url(#clip0_4483_12912)">
<rect width="100" height="100" fill="white"/>
<path d="M32.1887 62.2775L6.07937 47.1693C5.69637 46.933 5.30522 46.8026 4.93852 46.8026C4.49847 46.8026 4.12362 46.9819 3.82211 47.3323C3.32502 47.9027 3.1213 48.848 3.26798 49.8503C3.45541 51.1297 4.19697 52.3358 5.15856 52.9225L31.7324 68.3078C32.3436 68.6582 33.1177 68.5522 33.5985 68.0388L65.8603 34.1309L65.567 28.8993L34.063 62.0086C33.5741 62.522 32.8081 62.628 32.1969 62.2775H32.1887Z" fill="white"/>
<path d="M33.8185 69.9454C33.2969 70.4914 32.4739 70.6136 31.822 70.2306L3.42278 53.786C2.396 53.1585 1.60554 51.871 1.40182 50.502C1.24699 49.4263 1.46702 48.4158 1.9967 47.8047C2.32266 47.4298 2.72196 47.2424 3.1946 47.2424C3.58576 47.2424 4.00135 47.3809 4.4088 47.6335L32.3191 63.7766C32.971 64.1515 33.794 64.0374 34.3156 63.4915L69.6007 26.4054C70.1467 25.835 70.0081 24.8978 69.3318 24.5067L41.7801 8.55096C40.1503 7.60567 38.0885 7.89903 36.7929 9.25991C28.6928 17.7756 1.07587 46.8105 1.02697 46.8593L0.994369 46.892C0.220216 47.7721 -0.162774 49.1411 0.0653978 50.6894C0.334314 52.5311 1.39367 54.1283 2.72195 54.935L32.0746 71.9256C32.7265 72.3005 33.5496 72.1864 34.0711 71.6404L69.6251 34.2692C70.1222 33.7395 70.0489 32.9002 69.4703 32.4683L33.8266 69.9291L33.8185 69.9454Z" fill="#11B67A"/>
<path d="M20.2515 37.26H43.5576V48.3751H20.2515C19.3551 48.3751 18.6217 47.6417 18.6217 46.7453V38.8897C18.6217 37.9934 19.3551 37.26 20.2515 37.26Z" fill="#006A4D"/>
<path d="M53.6683 23.7205C53.9208 20.49 49.5207 17.5111 43.8403 17.067C38.1599 16.623 33.3503 18.8819 33.0978 22.1124C32.8452 25.343 37.2454 28.3218 42.9258 28.7659C48.6061 29.2099 53.4157 26.9511 53.6683 23.7205Z" fill="#6CF479"/>
<path d="M37.6656 46.0281C37.6656 46.0281 32.4584 57.021 35.7343 69.9127C37.959 67.574 40.7541 64.6322 43.7855 61.4541L39.2302 49.6381L37.6738 46.0281H37.6656Z" fill="#00482F"/>
<path d="M51.7715 33.4295C51.7715 33.4295 59.7494 31.873 66.3338 37.7321C67.8495 36.1349 69.3 34.6192 70.6364 33.2095C65.6248 30.7648 58.5026 29.0046 51.7715 33.4213V33.4295Z" fill="#16B57A"/>
<path d="M66.929 64.7055C59.6519 59.1398 50.7614 58.333 46.8988 62.8475C46.7929 62.9698 46.6951 63.1083 46.6054 63.255L44.2911 66.9791L45.1305 67.191C44.7149 71.8114 47.7381 77.5891 53.2713 81.8102C58.7229 85.9825 65.0792 87.4657 69.5448 86.0559L70.0337 86.7974L73.163 83.7579C73.3585 83.5704 73.546 83.3667 73.7089 83.1385C77.0989 78.3632 74.1408 70.2142 66.9371 64.6974L66.929 64.7055Z" fill="black"/>
<path d="M70.7951 85.9894C74.2812 81.2851 71.2446 73.127 64.0127 67.7679C56.7809 62.4088 48.0922 61.878 44.6061 66.5823C41.12 71.2866 44.1566 79.4447 51.3884 84.8038C58.6203 90.1629 67.3089 90.6937 70.7951 85.9894Z" fill="#6CF479"/>
<path d="M43.8367 39.3378C43.8367 39.3378 49.0521 32.2401 58.3745 32.2075C67.6969 32.1749 74.6317 37.9688 79.2766 46.9897L86.3174 44.9443C86.3174 44.9443 74.6154 15.6162 47.4467 33.9595L42.5084 38.2947L43.8367 39.3378Z" fill="#024731"/>
<path d="M49.4005 77.4183C49.4005 77.4183 34.5368 61.813 36.8755 48.9213C38.1386 41.9702 41.5367 38.0261 44.7556 35.4917C47.1269 33.6175 49.2375 32.3137 51.397 31.1076C51.397 31.1076 51.9185 31.8084 52.546 31.4172C52.546 31.4172 41.2026 35.9807 43.5903 49.8584C44.9756 57.8933 47.8603 63.5406 58.397 75.0958L49.4005 77.4183Z" fill="#6CF479"/>
<path d="M55.1602 73.3109C52.2021 70.4343 47.875 63.4343 47.6876 63.1328C40.3861 51.2923 43.0182 42.8662 43.2708 42.1165C43.4501 41.2772 45.9926 30.8628 58.6969 28.2877C70.7574 25.8512 80.6177 31.914 86.4442 45.3517L85.3196 45.8406C79.7457 32.9815 70.3744 27.1713 58.9332 29.4856C46.5549 31.9873 44.4688 42.2877 44.4525 42.3936L44.428 42.4832C44.3954 42.5647 41.5596 50.8686 48.7225 62.4809C48.7633 62.5542 53.1556 69.652 55.9996 72.4226L55.1521 73.3027L55.1602 73.3109Z" fill="#0BE248"/>
<path d="M98.4066 61.9376C98.1635 69.7269 92.9839 75.6253 85.9658 75.5519C78.1754 75.4704 71.0694 68.063 70.0916 59.0095C69.1137 49.956 74.6387 42.6789 82.4291 42.7604C86.2984 42.8009 89.9989 44.6485 92.8635 47.6075L93.2748 47.6495C94.2853 47.7554 95.2713 48.1139 96.0129 48.7984C96.135 48.9125 96.2491 49.0346 96.3631 49.1568C97.6262 50.6073 99.6799 53.6145 99.9895 58.1372C100.071 59.2699 99.6718 60.3863 98.9383 61.2827L98.4066 61.9376Z" fill="black"/>
<path d="M88.5567 59.8083C90.162 65.7571 88.1248 71.0132 84.0096 71.5347C79.8943 72.0644 75.2657 67.664 73.6604 61.7071C72.055 55.7583 74.0922 50.5022 78.2075 49.9807C82.3227 49.4591 86.9514 53.8514 88.5567 59.8083Z" fill="#006A4D"/>
<path d="M59.2228 74.3052C54.6104 70.7766 49.0039 69.8477 46.2251 72.3168C45.8829 72.6183 45.6384 73.0176 45.4999 73.4577L43.2915 80.2621L50.8782 88.5088L56.8025 91.2306L61.5126 88.4762C62.1645 88.1177 63.0365 87.5554 63.5906 86.8628C66.1168 83.701 64.161 78.0782 59.2228 74.297V74.3052Z" fill="#11B67A"/>
<path d="M51.3131 79.0399L53.4319 71.3472C53.4319 71.3472 56.8381 71.9747 60.1222 75.0958L54.3527 81.3053L51.3131 79.0318V79.0399Z" fill="white"/>
<path d="M57.8964 90.2998C59.7989 87.7324 58.1432 83.2813 54.1982 80.3579C50.2532 77.4345 45.5128 77.1459 43.6103 79.7132C41.7079 82.2805 43.3636 86.7316 47.3086 89.655C51.2536 92.5784 55.9939 92.8671 57.8964 90.2998Z" fill="black"/>
<path d="M96.35 49.1501C96.24 49.0301 96.12 48.9101 96 48.7901C95.26 48.1101 94.28 47.7501 93.27 47.6401L92.85 47.6001C95.75 50.6001 97.8 54.7401 98.3 59.3001C98.4 60.2101 98.41 61.0901 98.39 61.9601L98.94 61.2801C99.67 60.3801 100.07 59.2701 99.99 58.1301C99.68 53.6101 97.63 50.6001 96.36 49.1501H96.35Z" fill="#16B57A"/>
</g>
<defs>
<clipPath id="clip0_4483_12912">
<rect width="100" height="100" fill="white"/>
</clipPath>
</defs>
</svg>
