<svg width="100" height="100" viewBox="0 0 100 100" fill="none" xmlns="http://www.w3.org/2000/svg">
<path d="M6.71897 52.8284C6.71897 52.8284 8.26544 57.9539 14.5398 59.3766C14.5398 59.3766 9.78543 60.1985 9.68822 65.9072C9.68822 65.9072 8.01806 60.9585 2 59.3766C2 59.3766 7.02827 58.7845 6.71897 52.8372V52.8284Z" fill="white"/>
<path d="M56.9576 28.9768L11.2876 76.9445L50.7098 99.753C51.4344 100.177 52.3535 100.045 52.9279 99.4349L96.8128 53.3318C97.2193 52.9076 97.1221 52.2183 96.6096 51.9179L56.9487 28.9768H56.9576Z" fill="#024731"/>
<path d="M95.2134 36.7979L56.9576 28.9682L11.2876 76.9359L50.1619 84.8893C50.7717 85.013 51.408 84.8186 51.841 84.3591L78.7764 56.0716L84.9535 55.4795C85.8107 55.3999 86.606 55.0111 87.2069 54.4014L94.2766 47.1373C94.8068 46.5894 94.9394 45.7675 94.6124 45.0871L92.8097 41.349L95.6906 38.3179C96.1855 37.8053 95.9115 36.9481 95.2134 36.8067V36.7979Z" fill="#11B67A"/>
<path d="M79.9696 6.1687C79.9696 6.1687 82.3644 14.1132 92.0852 16.3137C92.0852 16.3137 84.7239 17.5862 84.5737 26.4233C84.5737 26.4233 81.9844 18.7616 72.6613 16.3048C72.6613 16.3048 80.4468 15.3769 79.9696 6.1687Z" fill="white"/>
<path d="M82.0905 64.59C78.9975 60.2244 75.2418 56.5129 71.2651 53.8087C75.6395 58.8459 77.2035 64.6165 75.3831 69.035C82.4086 76.2019 83.2835 85.4985 77.0799 90.518C73.5539 93.3724 68.446 94.2472 63.1614 93.3547C68.34 95.5551 73.6865 95.9351 78.1315 93.9821C87.5872 89.8198 89.929 75.6186 82.0905 64.59Z" fill="white"/>
<path d="M48.7922 61.5768C48.7922 61.5768 49.1369 64.0159 49.4904 66.1102C49.4904 66.1102 34.5115 66.8084 22.5902 64.9968L31.1623 55.9388L48.7922 61.5857V61.5768Z" fill="#024731"/>
<path d="M69.1881 44.6184L66.4222 47.6496L67.0937 48.71C67.3941 49.1784 67.2617 49.797 66.7403 50.3714L63.3733 54.0741L66.6518 54.7634L74.8086 45.8026L77.7247 38.9185L69.1881 44.6184Z" fill="#024731"/>
<path d="M65.4765 49.3728L63.4175 46.1031C63.3468 45.9882 63.1965 45.8998 63.0198 45.8645C62.8342 45.8291 62.6222 45.8291 62.3836 45.8822L56.0032 47.358C55.6144 47.4463 55.2521 47.6408 55.0312 47.8882L51.6642 51.5909L55.6674 52.4393L57.8413 50.0444L60.1301 50.5305L57.9562 52.9253L61.9594 53.7737L65.3263 50.0709C65.5472 49.8323 65.6003 49.5672 65.4765 49.3728Z" fill="#024731"/>
<path d="M49.8085 47.8617L52.8043 48.4979L53.6261 47.5965L50.6303 46.9603L51.7085 45.7673L55.314 46.5273C55.5084 46.4566 55.7117 46.3947 55.915 46.3417L57.6558 45.9352L52.5303 44.8482L53.6085 43.6552L60.8549 45.184L62.2865 44.857C62.8786 44.7245 63.4618 44.7068 63.9567 44.804C64.1158 44.8394 64.2571 44.8836 64.3897 44.9454L67.9245 41.0571C68.278 40.6683 68.1455 40.2706 67.6241 40.1557L58.2567 38.1762C57.7353 38.0702 57.0373 38.2911 56.6838 38.6799L46.0262 50.3891L50.2415 51.2816L51.0722 50.3714L48.0765 49.7351L49.7908 47.844L49.8085 47.8617ZM57.7265 39.1571L66.5283 41.0218L65.1674 42.5152L56.3657 40.6506L57.7265 39.1571ZM55.5438 41.5697L64.3455 43.4343L63.2674 44.6273L54.4657 42.7627L55.5438 41.5697Z" fill="#024731"/>
<path d="M29.9073 0C39.1244 13.9361 62.0566 16.3044 62.0566 16.3044C42.7211 34.5177 51.0368 62.6196 51.0368 62.6196C51.0368 62.6196 9.67038 58.1215 18.2158 41.7111L22.7934 34.2879L23.0497 24.6732L25.3562 6.15061L27.8394 2.13858L29.1915 0.645107L29.9073 0Z" fill="#6CF479"/>
<path d="M17.2617 44.0617C17.2617 44.0617 19.0467 35.8697 30.9238 34.173C30.9238 34.173 18.5781 11.1701 29.9073 0C29.9073 0 20.8848 5.83248 20.8583 26.6968C20.8495 36.073 17.2617 44.0617 17.2617 44.0617Z" fill="#024731"/>
<path d="M44.8154 53.1109C44.3824 53.2523 43.9406 53.2612 43.534 53.0225C43.2424 52.8546 43.101 52.5719 42.8536 52.3598C42.4647 52.0328 42.0141 52.024 41.5634 52.2272C41.3336 52.3333 41.1391 52.4923 40.927 52.616C40.6443 52.7839 40.5912 52.837 40.4675 52.5188C40.3791 52.2891 40.4057 51.9621 40.4145 51.7235C40.4145 51.644 40.4587 51.2021 40.4322 51.3788C40.5029 50.8398 39.9815 50.5217 39.5485 50.8663C39.1774 51.1579 37.2067 53.0402 36.8709 52.3156C36.6234 51.7854 37.4276 50.7072 37.728 50.1151C37.728 50.1063 37.7457 50.0975 37.7457 50.0886C37.7634 50.0444 37.79 50.0003 37.8076 49.9649C38.0462 49.364 37.1624 49.1077 36.8355 49.5584C36.2611 50.3537 35.2536 51.1844 34.2904 51.4672C33.5127 51.697 32.8854 51.423 32.6203 50.8398C33.3979 50.7337 34.1755 50.4951 34.8648 50.177C36.6764 49.3375 38.9122 47.6938 38.1522 45.3961C37.8694 44.5478 37.1537 43.8496 36.2258 43.8055C35.0593 43.7524 34.0871 44.592 33.3978 45.4403C32.5848 46.4212 31.4979 48.224 31.3742 49.8235C30.6142 49.7263 29.9161 49.3817 29.3682 48.6747C28.9528 48.1356 28.2017 48.8956 28.617 49.4259C29.3594 50.3803 30.3756 50.8044 31.4537 50.884C31.5421 51.2286 31.6923 51.5556 31.931 51.8384C32.9914 53.0844 34.5467 52.7132 35.8457 51.8826C35.7132 52.4747 35.7927 53.0402 36.3936 53.4379C37.3127 54.0565 38.488 53.1993 39.4071 52.4128C39.4955 53.2081 39.8224 53.9416 40.7238 53.8532C41.0596 53.8179 41.3424 53.6235 41.6252 53.4467C41.7401 53.376 41.9875 53.1374 42.1377 53.1551C42.2526 53.1639 42.4912 53.5263 42.5707 53.597C43.2512 54.2509 44.2498 54.4276 45.1335 54.136C45.7786 53.9239 45.5047 52.8988 44.8508 53.1109H44.8154ZM33.6012 46.9338C34.1049 46.1385 34.9002 45.0427 35.8988 44.8748C36.9504 44.698 37.4099 45.9352 37.1801 46.7747C36.9239 47.7203 35.996 48.3654 35.1918 48.8161C34.3964 49.2668 33.4509 49.6556 32.5141 49.797C32.6467 48.7896 33.071 47.791 33.61 46.9338H33.6012Z" fill="#11B67A"/>
</svg>
