<svg width="100" height="100" viewBox="0 0 100 100" fill="none" xmlns="http://www.w3.org/2000/svg">
<g clip-path="url(#clip0_4483_13149)">
<rect width="100" height="100" fill="white"/>
<path d="M27.5659 50.7071L66.3401 28.5153V70.3145L27.5659 92.5149V50.7071Z" fill="#11B67A"/>
<path d="M54.6201 77.0167L62.5258 72.5111V55.8587L54.6201 60.2781V77.0167Z" fill="black"/>
<path d="M12.6907 22.1918L0 35.4587V77.7058L27.5659 92.5149V50.7071L12.6907 22.1918Z" fill="black"/>
<path d="M12.6907 22.1918L51.4649 0L66.3401 28.5153L27.5659 50.7071L12.6907 22.1918Z" fill="#6CF479"/>
<path d="M40.4298 18.8837V32.03L35.168 23.596V16.7128L40.4298 18.8837Z" fill="black"/>
<path d="M47.0699 15.3427L40.4298 18.8837L35.168 16.7128L41.8081 13.1632L47.0699 15.3427Z" fill="#6CF479"/>
<path d="M47.0699 15.3427L40.4298 18.8837V32.03L47.07 28.4806L47.0699 15.3427Z" fill="#11B67A"/>
<path d="M41.8688 14.4039L44.4433 15.4721L40.3605 17.6517L37.7859 16.5834L41.8688 14.4039Z" fill="#00482F"/>
<path d="M54.6201 54.1959L62.5258 49.6903V38L54.6201 42.4194V54.1959Z" fill="#6CF479"/>
<path d="M48.0232 57.409V46.1666L32.2032 55.0916V66.334L48.0232 57.409Z" fill="#6CF479"/>
<path d="M48.0232 74.415V63.1726L32.2032 72.1062V83.3486L48.0232 74.415Z" fill="#6CF479"/>
<path d="M46.9742 48.0709V56.7029L38.0456 61.6134C38.0456 61.6134 44.5817 56.4703 43.7062 49.8111L46.9742 48.0709Z" fill="white"/>
<path d="M46.9742 65.0852V73.7173L38.0456 78.6278C38.0456 78.6278 44.5817 73.4847 43.7062 66.8254L46.9742 65.0852Z" fill="white"/>
<path d="M55.7556 52.1888L61.5549 48.9926V40.3089C61.5549 40.3089 60.8527 48.1053 55.7556 52.1888Z" fill="white"/>
<path d="M40.4298 32.03L32.2729 32.0474L27.1672 24.5524L32.3769 21.4856H37.7427L40.4298 32.03Z" fill="black"/>
<path d="M70.7696 55.729C70.7696 55.729 54.7588 61.7077 47.9887 80.8585L57.5241 75.2933L71.6624 56.1425L70.7696 55.729Z" fill="black"/>
<path d="M99.8094 66.5236C99.3067 63.2499 97.885 60.4674 95.5012 58.5807L90.8635 54.9366C92.8139 56.8836 93.9495 59.5456 94.3223 62.5952L99.8094 66.5236Z" fill="black"/>
<path d="M94.4348 65.6277C94.4088 66.2997 94.3568 66.9716 94.2614 67.6608L99.87 71.6753C99.948 70.9775 99.9913 70.2884 100 69.6078L94.4262 65.6191L94.4348 65.6277Z" fill="black"/>
<path d="M86.9538 83.8564C78.268 94.7111 65.534 99.0099 58.4865 93.4706L63.2108 97.2697C63.9476 97.8641 64.7538 98.3638 65.6293 98.717H65.6467C65.6467 98.717 65.6553 98.717 65.6727 98.717C77.4878 103.843 89.1383 91.9544 89.1383 91.9544C90.3172 90.8603 91.4528 89.6456 92.519 88.3017C95.3883 84.7093 97.4601 80.8498 98.691 77.0938L93.0044 73.0276C91.7649 76.663 89.7451 80.376 86.9712 83.8392L86.9538 83.8564Z" fill="black"/>
<path d="M85.6957 82.8643C93.9284 72.5747 95.2438 59.9989 88.6336 54.7754C82.0235 49.5519 69.991 53.6587 61.7583 63.9482C53.5256 74.2378 52.2103 86.8136 58.8204 92.0371C65.4305 97.2606 77.463 93.1538 85.6957 82.8643Z" fill="#6CF479"/>
<path d="M64.5804 66.2994C71.862 57.1935 82.4115 53.3857 88.5488 57.495C88.3061 57.2452 88.0461 57.0126 87.7687 56.7886C81.7267 52.0159 70.7351 55.772 63.2108 65.1708C55.6865 74.5696 54.4903 86.0618 60.5236 90.8344C60.7143 90.9809 60.905 91.1273 61.1044 91.2565C55.9726 86.1307 57.3942 75.2674 64.5718 66.2994H64.5804Z" fill="#00482F"/>
<path d="M81.5011 83.4779C82.7667 82.022 83.8329 80.4885 84.7085 78.9378C82.6627 81.1346 80.851 81.5137 79.9841 81.4103C78.9873 81.2983 78.2071 80.5316 78.2071 80.5316C71.6624 87.9145 66.1059 88.3797 62.7078 86.8204C60.7314 85.9159 59.7952 84.1154 59.3704 82.7801C59.3704 85.4851 60.2026 87.8197 61.9276 89.3876C66.3919 93.4366 75.1558 90.7832 81.5011 83.4693V83.4779Z" fill="white"/>
</g>
<defs>
<clipPath id="clip0_4483_13149">
<rect width="100" height="100" fill="white"/>
</clipPath>
</defs>
</svg>
