<svg width="100" height="100" viewBox="0 0 100 100" fill="none" xmlns="http://www.w3.org/2000/svg">
<g clip-path="url(#clip0_4483_13636)">
<rect width="100" height="100" fill="white"/>
<path d="M4.96394 52.5708C4.96394 52.5708 6.59069 57.9623 13.1907 59.459C13.1907 59.459 8.18959 60.3235 8.08733 66.3286C8.08733 66.3286 6.33046 61.1229 0 59.459C0 59.459 5.2893 58.8362 4.96394 52.5801V52.5708Z" fill="#6CF479"/>
<path d="M57.8105 27.481L9.7697 77.9388L51.2384 101.931C52.0007 102.378 52.9674 102.238 53.5717 101.597L99.7347 53.1003C100.162 52.6541 100.06 51.9291 99.5209 51.613L57.8012 27.481H57.8105Z" fill="black"/>
<path d="M98.0522 35.7081L57.8105 27.472L9.7697 77.9298L50.6621 86.2961C51.3035 86.4262 51.9728 86.2217 52.4283 85.7383L80.762 55.9823L87.2598 55.3595C88.1615 55.2758 88.998 54.8668 89.6301 54.2254L97.0668 46.5842C97.6246 46.0079 97.764 45.1434 97.4201 44.4276L95.5238 40.4955L98.5542 37.307C99.0748 36.7678 98.7866 35.8661 98.0522 35.7174V35.7081Z" fill="#11B67A"/>
<path d="M82.0171 3.48893C82.0171 3.48893 84.5363 11.8459 94.7617 14.1605C94.7617 14.1605 87.0183 15.4991 86.8602 24.795C86.8602 24.795 84.1366 16.7355 74.3295 14.1513C74.3295 14.1513 82.5191 13.1752 82.0171 3.48893Z" fill="#6CF479"/>
<path d="M84.2482 64.9429C80.9946 60.3508 77.0439 56.4465 72.8608 53.602C77.4622 58.9006 79.1075 64.9708 77.1925 69.6187C84.5827 77.1577 85.5031 86.9369 78.9774 92.2169C75.2683 95.2195 69.8953 96.1398 64.3364 95.2009C69.7838 97.5155 75.4078 97.9153 80.0836 95.8609C90.0302 91.4825 92.4936 76.5441 84.2482 64.9429Z" fill="#6CF479"/>
<path d="M49.2213 61.7734C49.2213 61.7734 49.5839 64.339 49.9557 66.5421C49.9557 66.5421 34.1992 67.2765 21.6591 65.3709L30.6761 55.8426L49.2213 61.7827V61.7734Z" fill="black"/>
<path d="M70.6759 43.9347L67.7664 47.1231L68.4728 48.2386C68.7889 48.7313 68.6495 49.382 68.1011 49.9862L64.5593 53.8812L68.008 54.6063L76.5882 45.1803L79.6557 37.9388L70.6759 43.9347Z" fill="#00482F"/>
<path d="M66.7717 48.9358L64.6058 45.4964C64.5315 45.3755 64.3734 45.2826 64.1874 45.2454C63.9922 45.2082 63.7692 45.2082 63.5182 45.264L56.8066 46.8164C56.3976 46.9093 56.0165 47.1139 55.7841 47.3741L52.2423 51.2691L56.4534 52.1615L58.7401 49.6423L61.1477 50.1536L58.861 52.6728L63.072 53.5652L66.6136 49.6702C66.846 49.4192 66.9019 49.1404 66.7717 48.9358Z" fill="#00482F"/>
<path d="M50.2903 47.3462L53.4416 48.0155L54.3061 47.0674L51.1548 46.3981L52.289 45.1431L56.0816 45.9426C56.2861 45.8682 56.5 45.8031 56.7138 45.7474L58.545 45.3197L53.1534 44.1764L54.2876 42.9214L61.9101 44.5296L63.416 44.1857C64.0389 44.0462 64.6524 44.0276 65.173 44.1299C65.3403 44.1671 65.489 44.2135 65.6285 44.2786L69.3468 40.1884C69.7186 39.7794 69.5792 39.3611 69.0308 39.2403L59.1771 37.158C58.6286 37.0464 57.8944 37.2788 57.5225 37.6879L46.3117 50.0048L50.7458 50.9437L51.6196 49.9863L48.4684 49.317L50.2717 47.3276L50.2903 47.3462ZM58.6194 38.1898L67.8781 40.1513L66.4465 41.7223L57.1879 39.7608L58.6194 38.1898ZM56.3233 40.7276L65.5819 42.689L64.4479 43.944L55.1893 41.9825L56.3233 40.7276Z" fill="#00482F"/>
<path d="M29.356 -3C39.0516 11.6595 63.1743 14.1508 63.1743 14.1508C42.835 33.3095 51.5824 62.8703 51.5824 62.8703C51.5824 62.8703 8.06856 58.1387 17.0576 40.8763L21.8728 33.0678L22.1424 22.954L24.5686 3.4699L27.1808 -0.750408L28.6031 -2.3214L29.356 -3Z" fill="#6CF479"/>
<path d="M16.0539 43.349C16.0539 43.349 17.9316 34.7318 30.4253 32.947C30.4253 32.947 17.4387 8.74994 29.356 -3C29.356 -3 19.8652 3.13525 19.8373 25.0827C19.828 34.9456 16.0539 43.349 16.0539 43.349Z" fill="#11B67A"/>
<path d="M45.038 52.868C44.5825 53.0167 44.1178 53.026 43.6902 52.775C43.3834 52.5984 43.2346 52.3009 42.9744 52.0778C42.5653 51.7339 42.0913 51.7246 41.6172 51.9384C41.3755 52.05 41.1709 52.2173 40.9478 52.3474C40.6503 52.524 40.5946 52.5798 40.4644 52.2452C40.3715 52.0035 40.3994 51.6595 40.4087 51.4086C40.4087 51.3249 40.4552 50.8601 40.4273 51.046C40.5017 50.479 39.9532 50.1443 39.4977 50.5069C39.1073 50.8136 37.0343 52.7936 36.6811 52.0314C36.4208 51.4736 37.2667 50.3395 37.5827 49.7167C37.5827 49.7074 37.6013 49.6981 37.6013 49.6888C37.6199 49.6423 37.6479 49.5959 37.6665 49.5587C37.9175 48.9266 36.9878 48.657 36.6438 49.1311C36.0396 49.9677 34.9799 50.8415 33.9666 51.139C33.1486 51.3807 32.4887 51.0925 32.2098 50.479C33.0279 50.3674 33.8458 50.1164 34.5709 49.7818C36.4765 48.8987 38.8284 47.1696 38.0289 44.7527C37.7314 43.8603 36.9785 43.126 36.0025 43.0795C34.7754 43.0237 33.7528 43.9068 33.0277 44.7992C32.1725 45.831 31.0292 47.7274 30.8991 49.4099C30.0996 49.3077 29.3652 48.9452 28.7889 48.2015C28.352 47.6344 27.5619 48.4339 27.9988 48.9916C28.7796 49.9956 29.8486 50.4418 30.9827 50.5254C31.0757 50.888 31.2337 51.2319 31.4847 51.5294C32.6002 52.8401 34.2362 52.4497 35.6027 51.5759C35.4633 52.1987 35.5469 52.7936 36.179 53.2119C37.1458 53.8626 38.3822 52.961 39.349 52.1336C39.4419 52.9702 39.7859 53.7418 40.734 53.6488C41.0873 53.6117 41.3848 53.4072 41.6822 53.2212C41.8031 53.1469 42.0633 52.8959 42.2213 52.9145C42.3422 52.9238 42.5932 53.3049 42.6768 53.3793C43.3926 54.0672 44.4431 54.2531 45.3726 53.9463C46.0512 53.7232 45.7631 52.6449 45.0752 52.868H45.038ZM33.2416 46.3702C33.7715 45.5336 34.6081 44.3809 35.6585 44.2043C36.7647 44.0184 37.2481 45.3198 37.0064 46.2029C36.7368 47.1975 35.7607 47.8761 34.9148 48.3502C34.0782 48.8243 33.0835 49.2333 32.0982 49.3821C32.2376 48.3223 32.6839 47.2719 33.2509 46.3702H33.2416Z" fill="#11B67A"/>
</g>
<defs>
<clipPath id="clip0_4483_13636">
<rect width="100" height="100" fill="white"/>
</clipPath>
</defs>
</svg>
