<svg width="100" height="100" viewBox="0 0 100 100" fill="none" xmlns="http://www.w3.org/2000/svg">
<path d="M24.5066 4.97068V16.319C24.5066 19.0675 35.8836 21.2893 49.9134 21.2893C63.9431 21.2893 75.3202 19.0579 75.3202 16.319V4.97068H24.5066Z" fill="black"/>
<path d="M49.9134 9.94054C63.9451 9.94054 75.3202 7.71568 75.3202 4.97068C75.3202 2.22568 63.9451 0 49.9134 0C35.8816 0 24.5066 2.22568 24.5066 4.97068C24.5066 7.71568 35.8816 9.94054 49.9134 9.94054Z" fill="#11B67A"/>
<path d="M40.4875 6.81861L56.4901 2.23143L59.6217 2.5283L43.667 7.19211L40.4875 6.81861Z" fill="black"/>
<path d="M19 31.9677C19 27.2177 22.1028 23.1284 25.0333 20.3129C44.4164 26.442 66.283 22.8667 74.7934 20.3129C77.7239 23.1189 80.8267 27.2177 80.8267 31.9677V88.3357C80.8267 92.3674 74.3625 100 49.9133 100C25.4642 100 19 92.3674 19 88.3357V31.9677Z" fill="#6CF479"/>
<path d="M72.3878 78.7101C72.225 78.6143 72.0718 78.5378 71.909 78.4516C68.4423 82.8472 63.7689 85.5478 58.6167 85.5478C49.3178 85.5478 41.5607 76.7852 39.7029 65.1018C39.6837 64.9773 39.6646 64.8527 39.6454 64.7187C39.406 63.1002 39.2815 61.4243 39.2815 59.7101C39.2815 55.8603 39.9135 52.2116 41.0436 48.9268C38.1131 45.7091 33.4397 44.5599 30.4326 45.1249L25.9221 58.4268C25.9221 58.4268 30.3273 58.3023 33.1141 62.4394C32.5683 62.765 32.032 63.1194 31.4957 63.5504C29.3697 65.2646 28.0098 67.3523 27.7704 68.9899C25.8838 68.6643 24.3323 68.9994 23.729 70.0529C22.7235 71.7958 24.6963 74.8124 28.1343 76.7948C28.3067 76.9001 28.4886 76.9864 28.661 77.0821C25.6922 78.3175 23.7865 80.3573 24.2653 82.0236C24.8207 83.9581 28.3545 84.6381 32.1756 83.5463C32.9513 83.3261 33.6695 83.0483 34.3303 82.7323C34.1675 83.192 34.1867 83.6899 34.3591 84.2071C33.7653 84.1209 33.1333 84.0826 32.4821 84.0826C28.5078 84.0826 25.29 85.7106 25.29 87.7122C25.29 89.7137 28.5078 91.3513 32.4821 91.3513C33.9856 91.3513 35.3838 91.1119 36.5425 90.7192C36.8586 92.5771 39.9423 94.0423 43.7059 94.0423C46.4448 94.0423 48.8198 93.2666 50.036 92.1366C51.1278 93.439 53.6847 94.3583 56.663 94.3583C60.532 94.3583 63.6827 92.8069 63.8359 90.8724C67.6283 90.7767 70.6449 89.187 70.6449 87.2525C70.6449 86.6587 70.3576 86.0937 69.8501 85.5957C72.9242 87.0322 75.8929 87.0226 76.7931 85.4712C77.7987 83.7282 75.8258 80.7116 72.3878 78.7293V78.7101Z" fill="#024731"/>
<path d="M58.6182 35.7786C49.0128 35.7786 41.1983 46.514 41.1983 59.7106C41.1983 72.9072 49.0128 83.6425 58.6182 83.6425C68.2235 83.6425 76.0381 72.9072 76.0381 59.7106C76.0381 46.514 68.2235 35.7786 58.6182 35.7786Z" fill="#C7FFC6"/>
<path d="M27.7087 23.8939C27.7087 23.8939 23.3993 27.3415 23.3993 34.8017V54.0124C23.3993 54.0124 24.4048 37.962 38.0419 38.5366C38.0419 38.5366 22.4033 36.5254 27.7087 23.8939Z" fill="#F4F4F6"/>
<path d="M75.0649 26.6228C75.0649 26.6228 77.3632 34.514 56.6107 39.3023C56.6107 39.3023 84.5361 38.5361 75.0649 26.6228Z" fill="#F4F4F6"/>
<path d="M68.6952 62.1806C68.542 63.1096 68.226 63.8853 67.7471 64.5173C67.2683 65.1494 66.5883 65.6474 65.6977 66.0113C65.1614 66.2316 64.673 66.3944 64.2229 66.4901C63.7728 66.5859 63.2461 66.6817 62.6237 66.7583C61.484 66.9019 60.5359 67.1318 59.7794 67.4478C59.4538 67.5819 59.1952 67.716 59.0228 67.8309C59.7698 66.2316 59.9039 64.5748 59.4155 62.851C59.358 62.6308 59.2622 62.4201 59.1856 62.1998C60.9765 61.4624 62.9301 60.5622 64.7688 59.5375L64.2229 57.6413C62.3172 58.7522 60.2008 59.7099 58.3046 60.4856L57.7779 59.7195C57.7013 59.6142 57.5289 59.3939 57.2416 59.0491C56.9639 58.7044 56.6766 58.3021 56.3989 57.8425C56.1211 57.3828 55.8913 56.8369 55.7093 56.2048C55.3933 55.0939 55.5178 54.0405 56.0828 53.0446C56.6478 52.0486 57.5385 51.292 58.7834 50.7749C59.7698 50.3631 60.7753 50.1907 61.8 50.2482C62.8151 50.3057 63.7058 50.5834 64.4624 51.0622L63.4951 47.6146C62.7098 47.3465 61.7905 47.2603 60.7658 47.356C59.7315 47.4518 58.6685 47.7295 57.5768 48.1796C56.1977 48.7542 55.039 49.5204 54.1196 50.478C53.1907 51.4357 52.5586 52.5083 52.2234 53.6862C51.8882 54.8641 51.8882 56.0516 52.2234 57.2391C52.4341 57.9957 52.7023 58.666 53.0279 59.2598C53.3535 59.8535 53.7653 60.4952 54.2537 61.1751L54.7038 61.8263C53.4014 62.2764 52.5586 62.5255 52.5299 62.535L52.9512 64.4024C53.0566 64.3833 54.1292 64.0673 55.7093 63.5118C55.9104 63.914 56.0541 64.3067 56.169 64.6898C56.5042 65.8773 56.5616 67.1413 56.3509 68.4821C56.1402 69.8228 55.6232 71.5083 54.79 73.5577C55.3837 72.9544 55.9487 72.4756 56.485 72.1021C57.0309 71.7382 57.6917 71.3838 58.477 71.0582C59.0133 70.8379 59.5208 70.6656 59.9901 70.5507C60.4593 70.4262 61.0722 70.2921 61.8096 70.1389C62.6332 69.9665 63.3227 69.8132 63.859 69.6696C64.3953 69.5259 64.9891 69.3153 65.6498 69.0375C67.2013 68.3959 68.2164 67.5245 68.6952 66.4231C69.1836 65.3218 69.1836 63.9045 68.6952 62.1615V62.1806Z" fill="black"/>
</svg>
