<svg width="100" height="100" viewBox="0 0 100 100" fill="none" xmlns="http://www.w3.org/2000/svg">
<g clip-path="url(#clip0_15980_18527)">
<rect width="100" height="100" fill="white"/>
<path d="M84.8325 79.7404H83.1681L73.7223 59.5897H13.7789L4.33315 79.7404H2.66877V83.8405C2.65161 85.2384 3.77551 86.5 5.31978 86.5H82.1815C83.7171 86.5 84.841 85.2384 84.8239 83.8405V79.7404H84.8325Z" fill="black"/>
<path d="M73.7309 55.5474H13.7875L2.92611 78.7157C2.11108 80.4546 3.38943 82.4578 5.32834 82.4578H82.19C84.1289 82.4578 85.4072 80.4631 84.5922 78.7157L73.7309 55.5474Z" fill="#11B67A"/>
<path d="M16.5587 13.5H70.9513C72.4098 13.5 73.5937 14.6763 73.5937 16.1254V54.0062H13.9163V16.1339C13.9163 14.6848 15.1002 13.5085 16.5587 13.5085V13.5Z" fill="#11B67A"/>
<path d="M76.4677 69.9615L71.8092 60.176C71.5175 59.5622 70.8998 59.1701 70.2134 59.1701H17.2879C16.6016 59.1701 15.9838 59.5622 15.6921 60.176L11.0336 69.9615C10.6218 70.831 11.2567 71.8368 12.2261 71.8368H27.1369C27.6774 71.8368 28.0892 72.3142 28.012 72.8427L27.8404 73.9337C27.7203 74.7265 28.338 75.451 29.1445 75.451H58.3397C59.1547 75.451 59.7725 74.735 59.6438 73.9337L59.4722 72.8427C59.3864 72.3142 59.8068 71.8368 60.3473 71.8368H75.2581C76.2275 71.8368 76.8709 70.831 76.4505 69.9615H76.4677Z" fill="black"/>
<path d="M43.755 18.86C44.3378 18.86 44.8102 18.3906 44.8102 17.8116C44.8102 17.2325 44.3378 16.7631 43.755 16.7631C43.1722 16.7631 42.6997 17.2325 42.6997 17.8116C42.6997 18.3906 43.1722 18.86 43.755 18.86Z" fill="#00482F"/>
<path d="M73.5937 43.3074H13.9163V47.4416H73.5937V43.3074Z" fill="#00482F"/>
<path d="M84.8926 25.0574H2.61736C1.14378 25.0574 -0.0507812 26.2443 -0.0507812 27.7083V41.7559C-0.0507812 43.22 1.14378 44.4069 2.61736 44.4069H84.8926C86.3662 44.4069 87.5607 43.22 87.5607 41.7559V27.7083C87.5607 26.2443 86.3662 25.0574 84.8926 25.0574Z" fill="#6CF479"/>
<path d="M16.1383 31.3733L12.2089 33.6236V29.1229H10.922V33.6236L6.99277 31.3733L6.34932 32.4814L10.2786 34.7317L6.34932 36.9906L6.99277 38.0987L10.922 35.8399V40.3491H12.2089V35.8399L16.1383 38.0987L16.7817 36.9906L12.8524 34.7317L16.7817 32.4814L16.1383 31.3733Z" fill="#00482F"/>
<path d="M31.0662 31.3733L27.1369 33.6236V29.1229H25.85V33.6236L21.9207 31.3733L21.2772 32.4814L25.2065 34.7317L21.2772 36.9906L21.9207 38.0987L25.85 35.8399V40.3491H27.1369V35.8399L31.0662 38.0987L31.7097 36.9906L27.7803 34.7317L31.7097 32.4814L31.0662 31.3733Z" fill="#00482F"/>
<path d="M45.9941 31.3733L42.0648 33.6236V29.1229H40.7779V33.6236L36.8486 31.3733L36.2052 32.4814L40.1345 34.7317L36.2052 36.9906L36.8486 38.0987L40.7779 35.8399V40.3491H42.0648V35.8399L45.9941 38.0987L46.6376 36.9906L42.7083 34.7317L46.6376 32.4814L45.9941 31.3733Z" fill="#00482F"/>
<path d="M60.9221 31.3733L56.9927 33.6236V29.1229H55.7059V33.6236L51.7765 31.3733L51.1331 32.4814L55.0624 34.7317L51.1331 36.9906L51.7765 38.0987L55.7059 35.8399V40.3491H56.9927V35.8399L60.9221 38.0987L61.5655 36.9906L57.6362 34.7317L61.5655 32.4814L60.9221 31.3733Z" fill="#00482F"/>
<path d="M76.4934 32.4814L75.85 31.3733L71.9207 33.6236V29.1229H70.6338V33.6236L66.7045 31.3733L66.061 32.4814L69.9904 34.7317L66.061 36.9906L66.7045 38.0987L70.6338 35.8399V40.3491H71.9207V35.8399L75.85 38.0987L76.4934 36.9906L72.5641 34.7317L76.4934 32.4814Z" fill="#00482F"/>
<path d="M81.787 27.3083H80.5001V42.1656H81.787V27.3083Z" fill="#6CF479"/>
<path d="M99.9492 61.0228L85.9393 51.0923L88.1699 68.0466L92.0992 63.2561L98.0789 73.1439L99.8205 72.104L93.8494 62.2161L99.9492 61.0228Z" fill="#006A4D"/>
</g>
<defs>
<clipPath id="clip0_15980_18527">
<rect width="100" height="100" fill="white"/>
</clipPath>
</defs>
</svg>
