<svg width="100" height="100" viewBox="0 0 100 100" fill="none" xmlns="http://www.w3.org/2000/svg">
<rect width="100" height="100" fill="white"/>
<path d="M50.0358 68.2348C67.2261 68.2348 81.1616 62.2937 81.1616 54.9649C81.1616 47.6362 67.2261 41.695 50.0358 41.695C32.8455 41.695 18.9099 47.6362 18.9099 54.9649C18.9099 62.2937 32.8455 68.2348 50.0358 68.2348Z" fill="#6CF479"/>
<path fill-rule="evenodd" clip-rule="evenodd" d="M40.8516 63.3235C40.8516 65.4873 44.9635 67.238 50.0359 67.238C55.1083 67.238 59.2201 65.4873 59.2201 63.3235C59.2201 61.1598 55.1083 57.7211 50.0359 57.7211C44.9635 57.7211 40.8516 61.1687 40.8516 63.3235Z" fill="#1A1A1A"/>
<path fill-rule="evenodd" clip-rule="evenodd" d="M50.0359 40.6989C31.5417 40.6989 16.5579 47.0824 16.5579 54.9654C16.5579 62.8483 31.5507 69.2318 50.0359 69.2318C68.5211 69.2318 83.5139 62.8483 83.5139 54.9654C83.5139 47.0824 68.5211 40.6989 50.0359 40.6989ZM50.0359 68.2262C32.8435 68.2262 18.91 62.2826 18.91 54.9564C18.91 47.6301 32.8435 41.6865 50.0359 41.6865C67.2283 41.6865 81.1618 47.6301 81.1618 54.9564C81.1618 62.2826 67.2283 68.2262 50.0359 68.2262Z" fill="black"/>
<path fill-rule="evenodd" clip-rule="evenodd" d="M30.4648 76.3244C30.6354 76.1717 30.8329 76.0191 31.0304 75.8665L30.1596 74.6993C29.971 74.816 29.8005 74.9327 29.6209 75.0494L30.4648 76.3244Z" fill="#11B67A"/>
<path fill-rule="evenodd" clip-rule="evenodd" d="M69.5896 76.3154L70.4335 75.0405C70.2629 74.9328 70.0923 74.8161 69.9128 74.7083L69.0419 75.8755C69.2394 76.0192 69.419 76.1718 69.5896 76.3244V76.3154Z" fill="#11B67A"/>
<path fill-rule="evenodd" clip-rule="evenodd" d="M70.8915 80.8588C70.7299 81.182 70.5234 81.5052 70.2451 81.8285C67.3633 85.2043 58.61 87.3052 50.0272 87.3052C41.4445 87.3052 32.6912 85.2043 29.8093 81.8285C29.5939 81.5771 29.4233 81.3257 29.2796 81.0743L26.8646 77.4201C26.0028 78.4885 25.5269 79.6288 25.5269 80.8229C25.5269 86.5869 36.4978 91.2646 50.0272 91.2646C63.5567 91.2646 74.5275 86.5869 74.5275 80.8229C74.5275 79.6288 74.0427 78.4796 73.1719 77.4111L70.8825 80.8678L70.8915 80.8588Z" fill="#11B67A"/>
<path fill-rule="evenodd" clip-rule="evenodd" d="M50.0359 37.0534C27.5107 37.0534 9.25 44.8376 9.25 54.4353V57.0031C9.25 66.6009 27.5107 74.385 50.0359 74.385C72.5611 74.385 90.8218 66.6009 90.8218 57.0031V54.4353C90.8218 44.8376 72.5611 37.0534 50.0359 37.0534ZM77.2654 42.1441C78.1542 42.1441 78.8725 42.4493 78.8725 42.8264C78.8725 43.2035 78.1542 43.5088 77.2654 43.5088C76.3766 43.5088 75.6584 43.2035 75.6584 42.8264C75.6584 42.4493 76.3766 42.1441 77.2654 42.1441ZM50.0359 37.3407C50.9247 37.3407 51.6429 37.646 51.6429 38.023C51.6429 38.4001 50.9247 38.7054 50.0359 38.7054C49.1471 38.7054 48.4289 38.4001 48.4289 38.023C48.4289 37.646 49.1471 37.3407 50.0359 37.3407ZM22.8064 42.1441C23.6952 42.1441 24.4134 42.4493 24.4134 42.8264C24.4134 43.2035 23.6952 43.5088 22.8064 43.5088C21.9176 43.5088 21.1994 43.2035 21.1994 42.8264C21.1994 42.4493 21.9176 42.1441 22.8064 42.1441ZM11.5214 55.1177C10.6326 55.1177 9.91435 54.8124 9.91435 54.4353C9.91435 54.0582 10.6326 53.753 11.5214 53.753C12.4102 53.753 13.1284 54.0582 13.1284 54.4353C13.1284 54.8124 12.4102 55.1177 11.5214 55.1177ZM22.8064 66.7266C21.9176 66.7266 21.1994 66.4213 21.1994 66.0442C21.1994 65.6671 21.9176 65.3619 22.8064 65.3619C23.6952 65.3619 24.4134 65.6671 24.4134 66.0442C24.4134 66.4213 23.6952 66.7266 22.8064 66.7266ZM50.0359 71.5299C49.1471 71.5299 48.4289 71.2247 48.4289 70.8476C48.4289 70.4705 49.1471 70.1653 50.0359 70.1653C50.9247 70.1653 51.6429 70.4705 51.6429 70.8476C51.6429 71.2247 50.9247 71.5299 50.0359 71.5299ZM77.2654 66.7266C76.3766 66.7266 75.6584 66.4213 75.6584 66.0442C75.6584 65.6671 76.3766 65.3619 77.2654 65.3619C78.1542 65.3619 78.8725 65.6671 78.8725 66.0442C78.8725 66.4213 78.1542 66.7266 77.2654 66.7266ZM50.0359 69.8779C30.0245 69.8779 13.8017 62.9647 13.8017 54.4353C13.8017 45.906 30.0245 38.9927 50.0359 38.9927C70.0473 38.9927 86.2701 45.906 86.2701 54.4353C86.2701 62.9647 70.0473 69.8779 50.0359 69.8779ZM88.5415 55.1177C87.6527 55.1177 86.9345 54.8124 86.9345 54.4353C86.9345 54.0582 87.6527 53.753 88.5415 53.753C89.4303 53.753 90.1485 54.0582 90.1485 54.4353C90.1485 54.8124 89.4303 55.1177 88.5415 55.1177Z" fill="#11B67A"/>
<path d="M24.0902 57.1383C23.7849 53.0353 30.2579 49.0669 39.487 47.1635C39.5768 45.5923 42.1983 44.1019 45.8343 43.4285C45.8074 43.4285 45.7804 43.4285 45.7535 43.4285C31.7572 44.2186 20.7864 49.6505 21.1993 55.3157C21.4148 58.2606 24.9969 61.5646 30.0963 63.082C26.9002 61.7352 24.2608 59.2752 24.0992 57.1383H24.0902Z" fill="white"/>
<path fill-rule="evenodd" clip-rule="evenodd" d="M68.5122 80.6606C65.5855 82.2228 61.5994 83.3989 57.0117 84.0095C56.1678 84.1172 55.8087 83.4797 56.0691 82.7435L58.2417 76.5665C64.0682 76.0098 69.3741 74.8696 73.8181 73.3074L69.4729 79.7897C69.2394 80.1308 68.8893 80.472 68.5302 80.6695L68.5122 80.6606Z" fill="black"/>
<path fill-rule="evenodd" clip-rule="evenodd" d="M31.5507 80.6606C34.4774 82.2228 38.4636 83.3989 43.0512 84.0095C43.8951 84.1172 44.2542 83.4797 43.9939 82.7435L41.8212 76.5665C35.9947 76.0098 30.6888 74.8696 26.2449 73.3074L30.5901 79.7897C30.8235 80.1308 31.1736 80.472 31.5327 80.6695L31.5507 80.6606Z" fill="black"/>
<path d="M50.0359 92.0722C37.5927 92.0722 27.2952 88.2026 25.5356 83.1657V89.5583C25.5356 95.3223 36.5064 100 50.0359 100C53.2858 100 56.3832 99.7307 59.2201 99.2368V91.327C56.3832 91.8028 53.2858 92.0722 50.0359 92.0722Z" fill="black"/>
<path d="M59.2112 91.3361V99.2459C60.881 98.9586 62.4701 98.5905 63.9335 98.1596V90.2767C62.4611 90.6986 60.881 91.0488 59.2112 91.3361Z" fill="#006A4D"/>
<path d="M63.9335 90.2767V98.1596C64.7505 97.9172 65.5315 97.6564 66.2767 97.3781V89.5131C65.5315 89.7825 64.7505 90.0432 63.9335 90.2767Z" fill="black"/>
<path d="M68.6378 88.5258V96.3549C72.3097 94.5323 74.5362 92.162 74.5362 89.5673V83.1748C73.8269 85.2129 71.7172 87.0534 68.6378 88.5258Z" fill="black"/>
<path d="M66.2767 89.5131V97.3781C67.1206 97.0639 67.9018 96.7139 68.6379 96.3458V88.5168C67.9018 88.8669 67.1117 89.1991 66.2768 89.5044L66.2767 89.5131Z" fill="#006A4D"/>
<path fill-rule="evenodd" clip-rule="evenodd" d="M50.0361 14.1044C62.8204 14.1044 73.7374 18.1087 78.1903 23.774C75.4162 17.1929 63.8708 12.2639 50.0361 12.2639C36.2014 12.2639 24.656 17.2019 21.8819 23.774C26.3348 18.1087 37.2608 14.1044 50.0361 14.1044Z" fill="#11B67A"/>
<path fill-rule="evenodd" clip-rule="evenodd" d="M50.036 24.2319C58.1968 24.2319 65.1725 26.4944 68.0095 29.6907C66.2409 25.9736 58.8612 23.1904 50.036 23.1904C41.2109 23.1904 33.8312 25.9736 32.0626 29.6907C34.9085 26.4944 41.8753 24.2319 50.036 24.2319Z" fill="#11B67A"/>
<path fill-rule="evenodd" clip-rule="evenodd" d="M50.0359 2.75633C68.6468 2.82816 67.0129 8.60118 67.0129 8.60118C67.0129 8.60118 76.224 3.16035 86.9345 17.1934C83.2985 7.37116 68.162 0 50.0359 0C31.9099 0 16.7734 7.37116 13.1374 17.1934C18.9639 8.73586 33.2835 2.69348 50.0359 2.75633Z" fill="#11B67A"/>
</svg>
