<svg width="100" height="100" viewBox="0 0 100 100" fill="none" xmlns="http://www.w3.org/2000/svg">
<g clip-path="url(#clip0_15980_18627)">
<path fill-rule="evenodd" clip-rule="evenodd" d="M63.6811 77.3438H63.6605L63.6673 77.337L63.6811 77.3438Z" fill="black"/>
<path fill-rule="evenodd" clip-rule="evenodd" d="M46.535 55.1207L51.7527 52.7985V72.2959C51.9156 75.1914 54.62 76.1684 56.7297 76.4445L63.6605 77.3438C62.9242 78.2642 61.7138 78.7808 60.3757 78.6109L50.6271 77.5136C48.3828 77.2304 46.5421 75.1702 46.5421 72.9189V72.3596H46.535V55.1136V55.1207Z" fill="#11B67A"/>
<path fill-rule="evenodd" clip-rule="evenodd" d="M56.113 80.041V100.084H61.9537V80.5579C61.451 80.6287 60.9271 80.6357 60.3891 80.5649L56.113 80.034V80.041Z" fill="black"/>
<path d="M56.113 80.041L60.1696 80.7988V100.402H56.113V80.041Z" fill="#11B67A"/>
<path d="M66.0248 11.7227L60.5735 0.402344L40.5806 8.31738L46.2938 16.9758L49.9044 24.5651C52.0142 24.1899 54.046 24.5439 55.7664 25.797C56.2761 26.1651 56.7151 26.6041 57.1115 27.0713C52.5664 25.2377 46.2655 27.7651 42.1876 33.3651C38.1098 38.9722 37.6283 45.7403 40.7575 49.5067C40.1841 49.2731 39.639 48.9899 39.1292 48.6218C34.577 45.3085 35.3133 38.0165 39.908 31.7156C41.1186 30.0519 42.4779 28.6289 43.908 27.489L41.1045 25.4926L31.0018 21.4076L16.9062 48.6147L27.5399 51.9917L40.0142 50.5262L40.8496 50.4271L41.0549 49.6908C41.9257 50.151 42.8814 50.4341 43.8868 50.5403C48.0283 50.9793 52.9841 48.4872 56.3752 43.843C60.5876 38.066 60.885 31.0147 57.2602 27.4678L65.9823 25.3297L66.0248 11.7227Z" fill="#6CF479"/>
<path d="M80.3329 54.3561L60.9771 39.5809C62.0249 36.7137 62.3293 33.8394 61.8762 31.3473L82.9736 47.6659C82.4072 45.2517 81.1187 42.9933 79.0868 41.011C79.0868 41.011 58.7612 25.7686 58.0886 25.3225C52.6727 21.7332 44.4603 24.5579 39.5754 31.6234C36.7364 35.5668 35.5754 40.0411 36.0851 43.765C36.3825 46.9296 37.7064 49.6977 40.0285 51.4676L60.9771 67.0004C62.0391 67.7862 63.2426 68.2747 64.5382 68.4942V55.5172C64.5382 53.9668 65.7842 52.7207 67.3346 52.7207H69.232L69.4019 53.5845C69.8833 54.0871 70.1807 54.7668 70.1807 55.5172V67.9491C73.5081 66.8305 76.8638 64.388 79.4691 60.8694C79.816 60.4022 80.1346 59.9349 80.432 59.4606C81.3453 57.5986 81.6709 55.319 80.3399 54.3491L80.3329 54.3561ZM55.9081 43.3685C52.6869 47.7792 47.7948 50.4553 43.7382 50.0234C42.4922 49.8889 41.3736 49.4712 40.4249 48.7774C36.2692 45.7544 36.4603 38.3986 40.8426 32.3809C44.0639 27.9703 48.9559 25.2942 53.0125 25.7261C54.2586 25.8606 55.3771 26.2783 56.3258 26.9721C60.4816 29.9951 60.2904 37.3509 55.9081 43.3615V43.3685Z" fill="#006A4D"/>
<path d="M81.9254 16.6358L67.4546 47.149L61.9962 51.0641L58.9661 49.3366L67.5749 29.0535L69.5997 28.834L81.9254 16.6358Z" fill="#6CF479"/>
<path d="M54.4 53.6129L40.7859 54.8377L29.8408 62.5687L19.7169 66.7386L38.6124 65.351L48.2407 61.9527L54.4 53.6129Z" fill="#6CF479"/>
<path d="M57.1244 27.4339C60.9023 30.2786 60.2827 37.4746 55.7406 43.5066C51.1985 49.5385 44.4538 52.1223 40.676 49.2775C36.8981 46.4328 37.5177 39.2368 42.0598 33.2048C46.6019 27.1729 53.3466 24.5891 57.1244 27.4339Z" fill="white"/>
<path d="M54.7668 34.4084C54.7668 34.4084 50.576 34.5411 48.234 38.9916C48.234 38.9916 48.5792 35.2329 44.2802 34.0036C44.2802 34.0036 48.3574 33.7379 50.7731 29.5158C50.7731 29.5158 50.2064 33.4365 54.7635 34.4075L54.7685 34.4089L54.7668 34.4084Z" fill="#6CF479"/>
<path fill-rule="evenodd" clip-rule="evenodd" d="M66.4141 75.2908V72.9758H66.4212V55.5244C66.4212 53.974 67.6672 52.728 69.2177 52.728H69.2672C70.8177 52.728 72.0637 53.974 72.0637 55.5244V74.2784C72.0637 74.2784 72.0637 74.2784 72.0637 74.2855V74.3067C72.0637 77.0607 70.1947 79.1704 67.6672 79.5669L62.6265 80.4448C62.5487 80.4519 62.5062 80.466 62.4495 80.466C64.7646 79.9067 66.4212 77.8819 66.4212 75.2837H66.4141V75.2908Z" fill="#11B67A"/>
<path d="M66.931 56.0269C66.931 56.0269 66.945 56.0128 66.952 56.0058L66.931 56.0339V56.0269Z" fill="white"/>
<path d="M66.9805 55.9631V55.6233C66.9805 54.3843 67.9858 53.379 69.2247 53.379C70.4637 53.379 71.469 54.3843 71.469 55.6233V55.9914C71.469 55.9914 71.4478 55.956 71.4336 55.9348L71.469 55.9985V75.5878C71.469 75.5878 70.8531 65.2516 70.4212 59.3259C70.1239 55.3047 68.1982 54.7525 66.9947 55.9631C66.9947 55.9702 66.9805 55.9843 66.9805 55.9914V55.9772C66.9805 55.9772 66.9591 55.9987 66.952 56.0058L66.9805 55.956V55.9631Z" fill="white"/>
</g>
<defs>
<clipPath id="clip0_15980_18627">
<rect width="100" height="100" fill="white"/>
</clipPath>
</defs>
</svg>
