<svg width="100" height="100" viewBox="0 0 100 100" fill="none" xmlns="http://www.w3.org/2000/svg">
<rect width="100" height="100" fill="white"/>
<path d="M20.8034 0C21.4897 5.33344 25.0751 8.84541 29.8082 8.8097C25.0041 10.8574 21.1347 15.9884 20.0816 21.7147C19.3953 16.3813 15.8099 12.8693 11.0767 12.905C15.8809 10.8455 19.7503 5.7144 20.8034 0Z" fill="#006A4D"/>
<path d="M89.6228 44.3654C90.1014 48.0842 92.6013 50.5329 95.9015 50.508C92.5518 51.9357 89.8539 55.5134 89.1196 59.5061C88.641 55.7873 86.1411 53.3386 82.8409 53.3635C86.1906 51.9274 88.8885 48.3498 89.6228 44.3654Z" fill="#006A4D"/>
<path d="M23.0197 86.7406C23.3171 89.0522 24.8711 90.5744 26.9225 90.5589C24.8403 91.4464 23.1633 93.6702 22.7068 96.1521C22.4094 93.8405 20.8554 92.3184 18.804 92.3339C20.8862 91.4412 22.5632 89.2173 23.0197 86.7406Z" fill="#006A4D"/>
<path d="M44.0836 53.3867C44.0206 53.5035 43.9397 53.6384 43.8677 53.7553L4.11742 76.5218L21.0736 53.3867H44.0836Z" fill="#6CF479"/>
<path d="M55.9665 73.7539L44.3895 99.9282V53.4691L55.9665 73.7539Z" fill="#11B67A"/>
<path d="M84.7071 76.6657L44.579 53.3867H67.715L67.706 53.4046L84.7071 76.6657Z" fill="#11B67A"/>
<path d="M44.3895 53.4691L44.3889 53.397H44.083L43.7772 53.9275C39.8822 60.4913 35.9872 67.0641 32.1013 73.6279L32.7219 73.5649L44.3619 100L44.3889 99.9371V53.4779L44.3895 53.4691Z" fill="#6CF479"/>
<path d="M84.7245 76.6747L84.7071 76.6657L44.579 53.3867H44.3895V53.4676L44.4165 53.5125L55.9665 73.7524L56.0384 73.5816L84.7605 76.7196L84.7245 76.6747Z" fill="#6CF479"/>
<path d="M44.6861 53.3866C44.7491 53.2697 44.8301 53.1349 44.902 53.018L84.6523 30.2604L67.6962 53.3956H44.6861V53.3866Z" fill="#6CF479"/>
<path d="M32.812 33.0222L44.3799 6.84788V53.316L32.812 33.0222Z" fill="#11B67A"/>
<path d="M4.06386 30.1183L44.192 53.3883H21.065L21.074 53.3704L4.06386 30.1183Z" fill="#11B67A"/>
<path d="M44.3792 53.3873H44.685L44.9909 52.8568C48.8858 46.293 52.7808 39.7202 56.6668 33.1564L56.0461 33.2193L44.4062 6.78428L44.3792 6.84722V53.3873Z" fill="#6CF479"/>
<path d="M4.05452 30.1076L4.06352 30.1166L44.1916 53.3867H44.3805V53.3147L44.3535 53.2608L32.8125 33.0209L32.7316 33.2007L4.01854 30.0627L4.05452 30.1076Z" fill="#6CF479"/>
<path d="M44.3792 6.84722V53.3873L52.6369 39.9636L46.646 43.4434L44.3792 6.84722Z" fill="#C7FFC6"/>
<path d="M44.3792 53.3873L35.933 67.1527L42.3106 62.3782L44.3886 99.9268L44.3792 53.3873Z" fill="#C7FFC6"/>
<path d="M32.812 33.0222L35.0608 27.9243L44.3799 53.3883L32.812 33.0222Z" fill="#006A4D"/>
<path d="M55.9665 73.7524C55.3098 75.236 54.6532 76.7286 53.9965 78.2122C50.7942 69.94 47.5918 61.6589 44.3895 53.3867L55.9665 73.7524Z" fill="#006A4D"/>
<path d="M44.3895 53.4676C42.2756 56.5876 40.1162 59.9958 37.9753 63.7003C36.0053 67.108 34.2601 70.4179 32.7219 73.5649C23.1509 74.599 13.58 75.641 4 76.675L4.10794 76.5222C17.529 68.8344 30.959 61.1467 44.38 53.4589L44.3895 53.4676Z" fill="#11B67A"/>
<path d="M44.3895 53.4691C46.5124 50.2681 54.4822 36.3932 56.0474 33.2192C65.6184 32.1851 75.1895 31.1421 84.7695 30.1081L84.6615 30.261C71.2405 37.9937 57.8195 45.7354 44.3985 53.4681L44.3895 53.4691Z" fill="#11B67A"/>
<path d="M4.11742 76.5218L32.7225 73.5546L44.3886 99.9268L31.0224 76.7196L4.11742 76.5218Z" fill="black"/>
<path d="M55.9665 73.7524L44.3886 99.9268L57.8825 76.7196L84.7071 76.6657L55.9665 73.7524Z" fill="black"/>
</svg>
