<svg width="100" height="100" viewBox="0 0 100 100" fill="none" xmlns="http://www.w3.org/2000/svg">
<rect width="100" height="100" fill="white"/>
<path d="M99.7385 51.8761C102.014 65.8803 81.5699 81.4992 54.0904 86.7591C26.6108 92.0283 2.48361 84.946 0.217256 70.9418C-2.05854 56.9376 18.3859 41.3187 45.8654 36.0589C73.3449 30.7896 97.4721 37.8719 99.7385 51.8761Z" fill="#6CF479"/>
<path d="M99.6942 59.1473C101.97 73.1515 81.5256 88.7705 54.0461 94.0303C26.5665 99.2996 2.43934 92.2172 0.172992 78.213C-2.1028 64.2089 18.3416 48.5899 45.8211 43.3301C73.3006 38.0608 97.4279 45.1432 99.6942 59.1473Z" fill="#024731"/>
<path d="M99.827 53.7177C102.103 67.7219 81.6584 83.3408 54.1789 88.6007C26.6994 93.8699 2.57214 86.7876 0.305786 72.7834C-1.97001 58.7792 18.4744 43.1603 45.9539 37.9005C73.4334 32.6312 97.5607 39.7135 99.827 53.7177Z" fill="#6CF479"/>
<path d="M14.0918 56.1726C22.3167 49.8835 33.9035 45.077 46.7178 42.6217C59.5321 40.1665 71.931 40.3837 81.6385 43.2356C89.8824 45.653 95.2272 49.7797 96.4926 54.624C96.4737 54.3407 96.4454 54.0479 96.3981 53.7741C95.5482 48.5615 90.0712 44.1043 81.3647 41.5452C71.6571 38.6934 59.2583 38.4762 46.4439 40.9314C33.6296 43.3867 22.0429 48.2026 13.8179 54.4823C6.43337 60.1199 2.68445 66.3524 3.53433 71.565C3.58154 71.8483 3.64765 72.1221 3.71375 72.4054C3.38324 67.3722 7.10384 61.5174 14.0918 56.1821V56.1726Z" fill="#00482F"/>
<path d="M53.223 86.9668C53.223 86.9668 92.3081 76.6549 95.4433 58.2219C95.4433 58.2219 89.9946 66.494 80.9291 67.7027C80.9291 67.7027 70.0412 81.7447 53.2136 86.9573L53.223 86.9668Z" fill="white"/>
<path d="M81.1687 64.4264L78.8551 51.3288H78.8457C78.7795 50.9794 78.449 50.7433 78.0996 50.8094L76.3432 51.121C75.9938 51.1871 75.7577 51.5176 75.8238 51.867L77.3064 60.262L77.1837 60.2809L69.6291 52.5847C69.4875 52.4336 69.2703 52.3675 69.0626 52.4053L67.3628 52.7075C67.0134 52.7736 66.7773 53.1041 66.8434 53.4535L69.157 66.5511C69.2231 66.9005 69.5536 67.1366 69.903 67.0705L71.6783 66.7589C72.0277 66.6928 72.2638 66.3623 72.1977 66.0129L70.7151 57.6085L70.819 57.5896L78.4207 65.2857C78.5623 65.4368 78.7795 65.5029 78.9873 65.4652L80.6493 65.1724C80.9987 65.1063 81.2348 64.7758 81.1687 64.4264Z" fill="black"/>
<path d="M53.1037 69.3743L50.7901 56.2767C50.724 55.9273 50.9601 55.5968 51.3095 55.5307L59.7233 54.0481C60.0727 53.982 60.4032 54.2181 60.4693 54.5675L60.6865 55.8046C60.7526 56.154 60.5165 56.4844 60.1671 56.5505L54.794 57.4949C54.4446 57.561 54.2085 57.8915 54.2746 58.2409L54.6523 60.3939C54.7184 60.7433 55.049 60.9794 55.3984 60.9133L60.271 60.054C60.6204 59.9879 60.9509 60.2239 61.017 60.5733L61.2342 61.8104C61.3003 62.1598 61.0642 62.4903 60.7148 62.5564L55.8422 63.4157C55.4928 63.4818 55.2567 63.8123 55.3228 64.1617L55.7005 66.3242C55.7666 66.6736 56.0971 66.9097 56.4465 66.8436L61.848 65.8898C62.1974 65.8237 62.5279 66.0598 62.594 66.4092L62.8112 67.6462C62.8773 67.9956 62.6412 68.3261 62.2918 68.3922L53.8497 69.8843C53.5003 69.9504 53.1698 69.7143 53.1037 69.3649V69.3743Z" fill="black"/>
<path fill-rule="evenodd" clip-rule="evenodd" d="M34.0507 59.2234L36.3642 72.3211L36.3548 72.3305C36.4209 72.6799 36.7514 72.916 37.1008 72.8499L38.8761 72.5382C39.2255 72.4721 39.4616 72.1417 39.3955 71.7923L38.6852 67.7604L41.2369 67.3068C42.3323 67.1179 43.2388 66.7496 43.9471 66.2019C44.6553 65.6542 45.1463 64.9838 45.4296 64.1811C45.7129 63.3784 45.7601 62.5002 45.5996 61.5464C45.4391 60.5927 45.0802 59.79 44.5514 59.129C44.0226 58.468 43.3333 57.9958 42.4928 57.722C41.6524 57.4387 40.6892 57.4009 39.6032 57.5897L34.57 58.4774C34.2206 58.5435 33.9846 58.8741 34.0507 59.2234ZM38.2561 65.3243L40.3115 64.9648C40.8969 64.861 41.3596 64.6721 41.709 64.4077C42.0584 64.1339 42.2945 63.8034 42.4173 63.4067C42.54 63.0101 42.5589 62.5757 42.4834 62.1036C42.4078 61.6314 42.2284 61.2254 41.9829 60.9043C41.7279 60.5832 41.3974 60.3566 40.9725 60.2244C40.5475 60.0922 40.0471 60.0827 39.4616 60.1866L38.0451 60.4321C37.6957 60.4982 37.4596 60.8288 37.5257 61.1782L38.2561 65.3243Z" fill="black"/>
<path fill-rule="evenodd" clip-rule="evenodd" d="M28.8412 71.0273C29.2379 69.8186 29.2945 68.4399 29.0207 66.8723H29.0301C28.7468 65.3048 28.218 64.0205 27.4342 63.029C26.6504 62.0374 25.6967 61.3387 24.5824 60.9421C23.4587 60.5455 22.2688 60.451 21.0034 60.6776C19.7286 60.9043 18.6332 61.3953 17.7172 62.1508C16.8012 62.9062 16.1497 63.8883 15.7531 65.0876C15.3564 66.2963 15.2998 67.6844 15.5736 69.2426C15.8475 70.8007 16.3763 72.0849 17.1601 73.0765C17.9439 74.0775 18.8976 74.7762 20.0119 75.1728C21.1262 75.5789 22.3255 75.6639 23.6003 75.4373C24.8751 75.2106 25.9705 74.7196 26.8771 73.9641C27.7836 73.2087 28.4446 72.2266 28.8412 71.0273ZM25.0357 64.927C25.4606 65.5692 25.7628 66.4002 25.9422 67.4106H25.9328C26.1122 68.421 26.1122 69.2992 25.9328 70.0547C25.7533 70.8101 25.4228 71.4145 24.9412 71.8677C24.4596 72.321 23.8458 72.6138 23.1187 72.746C22.3916 72.8782 21.7211 72.8121 21.1073 72.5477C20.5029 72.2833 19.9836 71.83 19.5586 71.1879C19.1337 70.5457 18.8315 69.7147 18.6521 68.7043C18.4727 67.6939 18.4727 66.8062 18.6521 66.0602C18.8315 65.3048 19.162 64.7004 19.6436 64.2472C20.1252 63.7939 20.7296 63.5011 21.4662 63.3689C22.2027 63.2367 22.8732 63.3028 23.487 63.5672C24.0913 63.8316 24.6107 64.2849 25.0357 64.927Z" fill="black"/>
<path d="M74.2747 46.8051C75.1092 46.8051 75.7856 46.1286 75.7856 45.2942C75.7856 44.4597 75.1092 43.7833 74.2747 43.7833C73.4403 43.7833 72.7638 44.4597 72.7638 45.2942C72.7638 46.1286 73.4403 46.8051 74.2747 46.8051Z" fill="#00482F"/>
<path d="M22.5366 56.0971C23.3711 56.0971 24.0475 55.4207 24.0475 54.5862C24.0475 53.7518 23.3711 53.0753 22.5366 53.0753C21.7022 53.0753 21.0257 53.7518 21.0257 54.5862C21.0257 55.4207 21.7022 56.0971 22.5366 56.0971Z" fill="#00482F"/>
<path d="M45.0782 14.028L22.2352 53.472C22.0369 53.812 22.1597 54.2464 22.4902 54.4447C22.6035 54.5108 22.7263 54.5391 22.849 54.5391C23.0946 54.5391 23.3306 54.4164 23.4628 54.1897L46.2114 14.8969C45.7959 14.6513 45.4181 14.3586 45.0782 14.028Z" fill="#0BE248"/>
<path d="M74.3488 44.1422L53.895 13.6786C53.5833 14.0375 53.2245 14.3586 52.8373 14.6419L73.1684 44.9355C73.3856 45.2565 73.8294 45.3509 74.1505 45.1337C74.4715 44.9165 74.566 44.4727 74.3488 44.1517V44.1422Z" fill="#0BE248"/>
<path d="M49.3153 5C46.7373 5 44.641 7.09639 44.641 9.67436C44.641 12.2523 46.7373 14.3487 49.3153 14.3487C51.8933 14.3487 53.9897 12.2523 53.9897 9.67436C53.9897 7.09639 51.8933 5 49.3153 5Z" fill="#0BE248"/>
</svg>
