<svg width="100" height="100" viewBox="0 0 100 100" fill="none" xmlns="http://www.w3.org/2000/svg">
<path d="M59.1157 69.6939H51.0661V99.9967H59.1157V69.6939Z" fill="#6CF479"/>
<path d="M50.9502 90.2775C50.9502 90.2775 51.557 82.8087 59.1425 83.7167V69.6869H50.9502V90.2775Z" fill="#024731"/>
<path d="M51.0127 100V90.4748C51.0127 91.5252 52.8243 92.3886 55.0643 92.3886C57.3042 92.3886 59.1158 91.5341 59.1158 90.4748V100H51.0127Z" fill="#11B67A"/>
<path d="M29.7466 63.7481C35.2617 72.5701 43.9092 77.1191 53.0386 77.1191C60.2672 77.1191 67.7902 74.2615 74.2959 68.4128C89.0119 55.1754 92.9296 31.6293 83.0416 15.8191C77.5265 6.99709 68.879 2.44808 59.7496 2.44808C52.521 2.44808 44.9979 5.30569 38.4922 11.1544C23.7763 24.3918 19.8586 47.938 29.7466 63.7481Z" fill="#11B67A"/>
<path d="M27.5334 23.7567C27.9528 22.8665 28.4169 21.9941 28.8988 21.1395L24.16 19.1187C23.6692 19.9733 23.2141 20.8457 22.7857 21.7359L27.5334 23.7656V23.7567Z" fill="#024731"/>
<path d="M30.041 19.2013C32.1203 15.8719 34.6458 12.8185 37.5908 10.1657C44.0787 4.33476 51.9498 1.12112 59.7495 1.12112C60.3831 1.12112 61.0078 1.13893 61.6325 1.18344C52.271 -1.70975 41.4193 0.667119 32.4862 8.69683C29.7019 11.1983 27.3102 14.0737 25.3112 17.1894L30.0321 19.2102L30.041 19.2013Z" fill="#024731"/>
<path d="M28.6131 64.4521C22.1788 54.1613 21.4113 40.6747 25.5254 28.7013L20.7599 26.6716C16.7708 38.2711 17.5115 51.3127 23.7405 61.2831C26.6587 65.9478 30.4515 69.4107 34.7262 71.6451C32.4059 69.6422 30.3444 67.2385 28.6042 64.4611L28.6131 64.4521Z" fill="#024731"/>
<path d="M35.2439 59.3408C43.1685 72.0886 59.1517 73.7711 70.9494 63.1063C82.7471 52.4416 85.8795 33.4534 77.9638 20.7056C70.0392 7.95775 54.056 6.27526 42.2583 16.94C30.4605 27.6047 27.3282 46.5929 35.2439 59.3408Z" fill="#6CF479"/>
<path d="M72.395 36.5704L74.4476 36.0274C75.3311 35.796 76.0896 35.431 76.7143 34.9414C77.339 34.4518 77.8209 33.8642 78.1511 33.1965C78.4813 32.5289 78.6509 31.8078 78.6509 31.0423C78.6509 30.2767 78.4902 29.6446 78.16 29.1461C77.8388 28.6476 77.3658 28.3093 76.75 28.1402C76.1342 27.971 75.3846 28.0066 74.5101 28.2381L69.9587 29.4488V40.9503L72.395 40.3004V36.5704ZM72.395 30.7841L74.0371 30.3479C74.5101 30.2232 74.9027 30.1965 75.2061 30.2766C75.5096 30.3567 75.7416 30.517 75.8933 30.7573C76.045 30.9977 76.1253 31.3182 76.1253 31.701C76.1253 32.0838 76.0539 32.4309 75.8933 32.7603C75.7416 33.0897 75.5096 33.3745 75.2061 33.6238C74.9027 33.8642 74.51 34.0511 74.046 34.1757L72.3861 34.612V30.7752L72.395 30.7841ZM59.2051 43.256C60.0172 43.5052 60.9364 43.4963 61.9627 43.2203C62.98 42.9532 63.8992 42.4815 64.7113 41.796C65.5324 41.1194 66.1749 40.2738 66.6479 39.2678C67.1208 38.2619 67.3618 37.1313 67.3618 35.8761C67.3618 34.6209 67.1208 33.6149 66.6479 32.8582C66.1749 32.1015 65.5234 31.6031 64.7113 31.3627C63.8903 31.1135 62.98 31.1312 61.9627 31.3983C60.9364 31.6653 60.0172 32.1461 59.2051 32.8227C58.393 33.4993 57.7505 34.3449 57.2775 35.3509C56.8045 36.3568 56.5725 37.4873 56.5725 38.7425C56.5725 39.9977 56.8134 40.9948 57.2775 41.7514C57.7505 42.5081 58.393 43.0067 59.2051 43.256ZM59.3925 35.9384C59.6335 35.3153 59.9726 34.7989 60.4188 34.3983C60.8561 33.9888 61.3737 33.7129 61.9627 33.5526C62.5517 33.4013 63.0693 33.4013 63.5066 33.5793C63.9439 33.7574 64.283 34.0868 64.5328 34.5764C64.7738 35.0749 64.8987 35.7247 64.8987 36.5348C64.8987 37.3449 64.7738 38.066 64.5328 38.6892C64.2919 39.3123 63.9528 39.8286 63.5066 40.2292C63.0693 40.6387 62.5517 40.9146 61.9627 41.0749C61.3737 41.2262 60.8561 41.2263 60.4188 41.0482C59.9815 40.8791 59.6424 40.5408 59.3925 40.0512C59.1427 39.5616 59.0267 38.9028 59.0267 38.0927C59.0267 37.2826 59.1516 36.5616 59.3925 35.9384ZM38.983 49.3182C39.92 49.069 40.7232 48.7129 41.3925 48.2589C42.0618 47.796 42.5705 47.2619 42.9275 46.6565C43.2844 46.0512 43.4629 45.3924 43.4629 44.6892C43.4629 44.2085 43.3737 43.8079 43.2041 43.4874C43.0346 43.158 42.7936 42.8999 42.4902 42.7129C42.1778 42.526 41.8209 42.3835 41.4015 42.3123C40.982 42.2411 40.518 42.2144 40.0182 42.2322L38.983 42.2589C38.7331 42.2678 38.4922 42.2589 38.2691 42.2411C38.046 42.2233 37.8496 42.1788 37.6801 42.1075C37.5105 42.0452 37.3767 41.9473 37.2874 41.8138C37.1893 41.6892 37.1446 41.52 37.1535 41.3063C37.1535 41.0571 37.2249 40.8168 37.3677 40.5853C37.5105 40.3539 37.7247 40.1401 37.9924 39.9621C38.2691 39.7752 38.5993 39.6327 39.0009 39.5259C39.5898 39.3746 40.0539 39.3746 40.393 39.5259C40.7321 39.6861 40.9285 39.9888 40.9731 40.425L43.3112 39.8019C43.3023 39.1165 43.1149 38.5645 42.7579 38.1372C42.4009 37.7099 41.9012 37.4339 41.2587 37.3182C40.6161 37.1936 39.8665 37.247 39.0098 37.4696C38.1709 37.6921 37.4213 38.0393 36.7609 38.5022C36.1005 38.9741 35.5829 39.517 35.2081 40.1313C34.8333 40.7455 34.6459 41.4132 34.6459 42.1075C34.6459 42.9621 34.9225 43.5586 35.4847 43.9147C36.047 44.2708 36.8144 44.431 37.7872 44.4132L39.0455 44.3954C39.4649 44.3865 39.8219 44.3954 40.1164 44.4488C40.4109 44.5022 40.625 44.5824 40.7857 44.7248C40.9374 44.8584 41.0177 45.0541 41.0177 45.3123C41.0177 45.5882 40.9374 45.8553 40.7678 46.1135C40.5983 46.3717 40.3573 46.6031 40.0539 46.799C39.7505 47.0037 39.3846 47.1551 38.9741 47.2619C38.5546 47.3776 38.1798 47.4043 37.8407 47.3687C37.5105 47.3242 37.2428 47.2085 37.0465 47.0037C36.8501 46.799 36.7341 46.5052 36.7073 46.1313L34.3514 46.7544C34.3692 47.5734 34.5745 48.2144 34.9582 48.6773C35.342 49.1313 35.8774 49.4162 36.5735 49.5142C37.2606 49.621 38.0727 49.5409 39.0009 49.3005L38.983 49.3182ZM48.9781 46.5052L51.3876 45.8642V36.3657L54.9215 35.431V33.428L45.4441 35.9384V37.9414L48.9781 37.0066V46.5052ZM76.9106 42.7396L38.2066 54.0364C37.3856 54.2768 36.7163 55.1403 36.7163 55.9593C36.7163 56.7783 37.3856 57.25 38.2066 57.0097L76.9106 45.7129C77.7317 45.4726 78.401 44.6091 78.401 43.7901C78.401 42.9711 77.7317 42.4992 76.9106 42.7396Z" fill="#00482F"/>
<path d="M57.6791 12.5005C58.6875 16.9783 54.2879 19.3551 54.2879 19.3551C68.9592 14.6014 76.9285 24.1979 76.9285 24.1979C71.1546 11.5747 57.6791 12.4916 57.6791 12.4916V12.5005ZM29.6215 86.1122C20.742 86.0321 14.3702 80.7709 15.1198 73.765C15.5392 69.7857 18.1897 66.0468 22.045 63.305C17.4312 65.1655 13.8436 68.2634 12.2908 72.2604C8.97998 80.762 16.4049 91.0795 28.2115 93.0736C32.8789 93.8659 37.5462 93.8392 41.7316 93.0469C35.8417 92.6374 31.2547 90.0113 29.6305 86.1122H29.6215Z" fill="white"/>
</svg>
