<svg width="100" height="100" viewBox="0 0 100 100" fill="none" xmlns="http://www.w3.org/2000/svg">
<rect width="100" height="100" fill="white"/>
<path d="M59.0649 69.6939H51.0153V99.9967H59.0649V69.6939Z" fill="#6CF479"/>
<path d="M50.8994 90.2775C50.8994 90.2775 51.5062 82.8087 59.0918 83.7167V69.6869H50.8994V90.2775Z" fill="black"/>
<path d="M50.9619 100V90.4748C50.9619 91.5252 52.7735 92.3886 55.0135 92.3886C57.2534 92.3886 59.0651 91.5341 59.0651 90.4748V100H50.9619Z" fill="#11B67A"/>
<path d="M29.6958 63.7481C35.2109 72.5701 43.8584 77.1191 52.9878 77.1191C60.2164 77.1191 67.7394 74.2615 74.2451 68.4128C88.9611 55.1754 92.8788 31.6293 82.9908 15.8191C77.4757 6.99709 68.8282 2.44808 59.6988 2.44808C52.4702 2.44808 44.9472 5.30569 38.4415 11.1544C23.7255 24.3918 19.8078 47.938 29.6958 63.7481Z" fill="#6CF479"/>
<path d="M27.4826 23.7567C27.902 22.8665 28.3661 21.9941 28.848 21.1395L24.1093 19.1187C23.6184 19.9733 23.1633 20.8457 22.7349 21.7359L27.4826 23.7656V23.7567Z" fill="black"/>
<path d="M29.9902 19.2013C32.0695 15.8719 34.5951 12.8185 37.54 10.1657C44.0279 4.33476 51.899 1.12112 59.6987 1.12112C60.3323 1.12112 60.957 1.13893 61.5817 1.18344C52.2202 -1.70975 41.3685 0.667119 32.4354 8.69683C29.6511 11.1983 27.2594 14.0737 25.2604 17.1894L29.9813 19.2102L29.9902 19.2013Z" fill="black"/>
<path d="M28.5623 64.4521C22.128 54.1613 21.3605 40.6747 25.4746 28.7013L20.7091 26.6716C16.72 38.2711 17.4607 51.3127 23.6897 61.2831C26.6079 65.9478 30.4007 69.4107 34.6754 71.6451C32.3551 69.6422 30.2936 67.2385 28.5534 64.4611L28.5623 64.4521Z" fill="black"/>
<path d="M35.1931 59.3408C43.1177 72.0886 59.1009 73.7711 70.8986 63.1063C82.6964 52.4416 85.8288 33.4534 77.913 20.7056C69.9884 7.95775 54.0052 6.27526 42.2075 16.94C30.4098 27.6047 27.2774 46.5929 35.1931 59.3408Z" fill="#11B67A"/>
<path d="M72.3442 36.5704L74.3968 36.0274C75.2803 35.796 76.0389 35.431 76.6636 34.9414C77.2882 34.4518 77.7701 33.8642 78.1003 33.1965C78.4305 32.5289 78.6001 31.8078 78.6001 31.0423C78.6001 30.2767 78.4395 29.6446 78.1093 29.1461C77.788 28.6476 77.315 28.3093 76.6992 28.1402C76.0835 27.971 75.3338 28.0066 74.4593 28.2381L69.908 29.4488V40.9503L72.3442 40.3004V36.5704ZM72.3442 30.7841L73.9863 30.3479C74.4593 30.2232 74.8519 30.1965 75.1554 30.2766C75.4588 30.3567 75.6908 30.517 75.8425 30.7573C75.9942 30.9977 76.0746 31.3182 76.0746 31.701C76.0746 32.0838 76.0032 32.4309 75.8425 32.7603C75.6908 33.0897 75.4588 33.3745 75.1554 33.6238C74.8519 33.8642 74.4593 34.0511 73.9952 34.1757L72.3353 34.612V30.7752L72.3442 30.7841ZM59.1543 43.256C59.9664 43.5052 60.8856 43.4963 61.9119 43.2203C62.9293 42.9532 63.8485 42.4815 64.6606 41.796C65.4816 41.1194 66.1241 40.2738 66.5971 39.2678C67.0701 38.2619 67.311 37.1313 67.311 35.8761C67.311 34.6209 67.0701 33.6149 66.5971 32.8582C66.1241 32.1015 65.4726 31.6031 64.6606 31.3627C63.8395 31.1135 62.9293 31.1312 61.9119 31.3983C60.8856 31.6653 59.9664 32.1461 59.1543 32.8227C58.3422 33.4993 57.6997 34.3449 57.2267 35.3509C56.7537 36.3568 56.5217 37.4873 56.5217 38.7425C56.5217 39.9977 56.7627 40.9948 57.2267 41.7514C57.6997 42.5081 58.3422 43.0067 59.1543 43.256ZM59.3418 35.9384C59.5827 35.3153 59.9218 34.7989 60.368 34.3983C60.8053 33.9888 61.3229 33.7129 61.9119 33.5526C62.5009 33.4013 63.0185 33.4013 63.4558 33.5793C63.8931 33.7574 64.2322 34.0868 64.4821 34.5764C64.723 35.0749 64.848 35.7247 64.848 36.5348C64.848 37.3449 64.723 38.066 64.4821 38.6892C64.2411 39.3123 63.902 39.8286 63.4558 40.2292C63.0185 40.6387 62.5009 40.9146 61.9119 41.0749C61.3229 41.2262 60.8053 41.2263 60.368 41.0482C59.9308 40.8791 59.5916 40.5408 59.3418 40.0512C59.0919 39.5616 58.9759 38.9028 58.9759 38.0927C58.9759 37.2826 59.1008 36.5616 59.3418 35.9384ZM38.9322 49.3182C39.8693 49.069 40.6724 48.7129 41.3417 48.2589C42.011 47.796 42.5197 47.2619 42.8767 46.6565C43.2337 46.0512 43.4121 45.3924 43.4121 44.6892C43.4121 44.2085 43.3229 43.8079 43.1533 43.4874C42.9838 43.158 42.7428 42.8999 42.4394 42.7129C42.1271 42.526 41.7701 42.3835 41.3507 42.3123C40.9312 42.2411 40.4672 42.2144 39.9674 42.2322L38.9322 42.2589C38.6823 42.2678 38.4414 42.2589 38.2183 42.2411C37.9952 42.2233 37.7988 42.1788 37.6293 42.1075C37.4597 42.0452 37.3259 41.9473 37.2366 41.8138C37.1385 41.6892 37.0938 41.52 37.1028 41.3063C37.1028 41.0571 37.1742 40.8168 37.3169 40.5853C37.4597 40.3539 37.6739 40.1401 37.9416 39.9621C38.2183 39.7752 38.5485 39.6327 38.9501 39.5259C39.5391 39.3746 40.0031 39.3746 40.3422 39.5259C40.6814 39.6861 40.8777 39.9888 40.9223 40.425L43.2604 39.8019C43.2515 39.1165 43.0641 38.5645 42.7071 38.1372C42.3502 37.7099 41.8504 37.4339 41.2079 37.3182C40.5653 37.1936 39.8157 37.247 38.959 37.4696C38.1201 37.6921 37.3705 38.0393 36.7101 38.5022C36.0497 38.9741 35.5321 39.517 35.1573 40.1313C34.7825 40.7455 34.5951 41.4132 34.5951 42.1075C34.5951 42.9621 34.8717 43.5586 35.434 43.9147C35.9962 44.2708 36.7637 44.431 37.7364 44.4132L38.9947 44.3954C39.4141 44.3865 39.7711 44.3954 40.0656 44.4488C40.3601 44.5022 40.5743 44.5824 40.7349 44.7248C40.8866 44.8584 40.9669 45.0541 40.9669 45.3123C40.9669 45.5882 40.8866 45.8553 40.7171 46.1135C40.5475 46.3717 40.3065 46.6031 40.0031 46.799C39.6997 47.0037 39.3338 47.1551 38.9233 47.2619C38.5039 47.3776 38.129 47.4043 37.7899 47.3687C37.4597 47.3242 37.192 47.2085 36.9957 47.0037C36.7993 46.799 36.6833 46.5052 36.6566 46.1313L34.3006 46.7544C34.3184 47.5734 34.5237 48.2144 34.9074 48.6773C35.2912 49.1313 35.8266 49.4162 36.5227 49.5142C37.2099 49.621 38.022 49.5409 38.9501 49.3005L38.9322 49.3182ZM48.9273 46.5052L51.3368 45.8642V36.3657L54.8708 35.431V33.428L45.3933 35.9384V37.9414L48.9273 37.0066V46.5052ZM76.8599 42.7396L38.1558 54.0364C37.3348 54.2768 36.6655 55.1403 36.6655 55.9593C36.6655 56.7783 37.3348 57.25 38.1558 57.0097L76.8599 45.7129C77.6809 45.4726 78.3502 44.6091 78.3502 43.7901C78.3502 42.9711 77.6809 42.4992 76.8599 42.7396Z" fill="#00482F"/>
<path d="M57.6283 12.5005C58.6367 16.9783 54.2371 19.3551 54.2371 19.3551C68.9084 14.6014 76.8777 24.1979 76.8777 24.1979C71.1038 11.5747 57.6283 12.4916 57.6283 12.4916V12.5005ZM29.5708 86.1122C20.6912 86.0321 14.3194 80.7709 15.069 73.765C15.4885 69.7857 18.1389 66.0468 21.9942 63.305C17.3804 65.1655 13.7929 68.2634 12.2401 72.2604C8.9292 80.762 16.3541 91.0795 28.1607 93.0736C32.8281 93.8659 37.4954 93.8392 41.6808 93.0469C35.7909 92.6374 31.2039 90.0113 29.5797 86.1122H29.5708Z" fill="#6CF479"/>
</svg>
