<svg width="100" height="100" viewBox="0 0 100 100" fill="none" xmlns="http://www.w3.org/2000/svg">
<g clip-path="url(#clip0_4483_13119)">
<rect width="100" height="100" fill="white"/>
<path d="M47.2935 52.8788C46.1724 52.7875 45.126 52.447 44.196 51.9238L40.1103 97.1987H55.4566L52.5833 66.2985C50.1667 62.1298 48.2318 57.6039 47.2935 52.8788Z" fill="#11B67A"/>
<path d="M47.9494 38.7619C44.3869 38.7619 41.497 41.6518 41.497 45.2143C41.497 48.7768 44.3869 51.6667 47.9494 51.6667C51.512 51.6667 54.4018 48.7768 54.4018 45.2143C54.4018 41.6518 51.512 38.7619 47.9494 38.7619Z" fill="#6CF479"/>
<path d="M47.2684 45.5129L42.0533 47.8381C43.0582 50.0886 45.3169 51.6664 47.9411 51.6664C50.5652 51.6664 52.824 50.0969 53.8288 47.8381L48.6137 45.5129C48.1819 45.3219 47.7002 45.3219 47.2684 45.5129Z" fill="black"/>
<path d="M48.3314 39.775C48.3314 39.775 52.442 40.0573 53.4136 44.2094L48.3314 44.6496C48.3314 44.6496 50.2663 42.1085 48.3314 39.7667V39.775Z" fill="white"/>
<path d="M47.2935 52.8788C46.1724 52.7875 45.126 52.447 44.196 51.9238L40.1103 97.1987H44.9101L46.2471 60.6184C47.335 64.8785 49.5439 70.6084 53.5632 76.82L52.575 66.2985C50.1667 62.1298 48.2318 57.6039 47.2852 52.8871L47.2935 52.8788Z" fill="black"/>
<path d="M40.9989 41.9252C26.4166 37.117 8.28008 42.2574 0.822844 44.8317C-0.31484 45.222 -0.256711 46.8413 0.897583 47.1652C21.1268 52.9034 33.9984 51.0682 41.0653 48.6682C40.5422 47.6302 40.2432 46.451 40.2432 45.2137C40.2432 44.0345 40.5172 42.9217 40.9906 41.9252H40.9989Z" fill="#6CF479"/>
<path d="M54.2027 40.7463C59.6171 35.6059 67.2321 25.0761 71.5752 4.48982C71.8243 3.31892 70.4209 2.5134 69.5407 3.33553C63.7941 8.7333 50.7979 22.3938 48.2651 37.5408C50.7066 37.6405 52.8574 38.8861 54.2027 40.7546V40.7463Z" fill="#6CF479"/>
<path d="M73.1612 84.9748C68.0126 64.5795 59.9906 54.357 54.3769 49.4325C53.1064 51.3591 50.9971 52.6795 48.5723 52.8788C51.703 67.9095 65.2223 81.0469 71.1765 86.2122C71.4173 86.4198 71.6997 86.5194 71.9654 86.5194C72.6962 86.5194 73.3771 85.8302 73.1612 84.9831V84.9748Z" fill="#6CF479"/>
<path d="M75.2955 39.2515C75.5861 39.0024 75.8519 38.7283 76.1176 38.4543C76.757 37.7899 78.5674 36.2204 81.2247 36.5194C82.3292 36.6439 83.1845 37.1505 83.7825 37.6654C85.2855 35.0578 88.0924 33.3056 91.3144 33.3056C96.1143 33.3056 100.001 37.2003 100.001 41.9919V42.8223H63.9186C70.288 42.8223 73.3523 40.929 75.2955 39.2515Z" fill="#6CF479"/>
<path d="M39.3878 6.69047C42.2445 6.46625 45.0347 6.69877 47.6838 7.32989C47.5592 7.32989 47.443 7.35481 47.3267 7.3465C39.1553 7.1555 30.959 9.79626 26.5162 17.7601C25.7356 18.0756 24.9716 18.4327 24.2076 18.8396C20.6451 20.733 17.7552 23.382 15.5961 26.4795C18.4528 15.8169 27.7618 7.61224 39.3878 6.69047Z" fill="#6CF479"/>
<path d="M24.8637 75.0018C24.8637 75.0018 20.2714 65.0034 5.14932 74.9852L24.8637 75.0018Z" fill="#6CF479"/>
<path d="M59.3511 82.8238C56.4944 83.048 53.7042 82.8155 51.0551 82.1843C51.1797 82.1843 51.296 82.1594 51.4122 82.1677C59.5836 82.3587 67.7799 79.718 72.2227 71.7542C73.0033 71.4386 73.7673 71.0815 74.5313 70.6746C78.0938 68.7813 80.9837 66.1322 83.1428 63.0347C80.2862 73.6974 70.9771 81.902 59.3511 82.8238Z" fill="#6CF479"/>
</g>
<defs>
<clipPath id="clip0_4483_13119">
<rect width="100" height="100" fill="white"/>
</clipPath>
</defs>
</svg>
