<svg width="100" height="100" viewBox="0 0 100 100" fill="none" xmlns="http://www.w3.org/2000/svg">
<g clip-path="url(#clip0_40000012_3227)">
<path d="M34.0807 59.134C59.8246 33.6314 88.1152 20.1742 96.8186 16.3944L89.7861 16.1084C89.7861 16.1084 59.5565 27.0815 29.6665 55.4614C31.6413 56.9716 33.1693 58.2941 34.0807 59.1251V59.134Z" fill="black"/>
<path d="M23.4832 70.8307L16.9512 69.5708C17.4963 70.4286 18.0324 71.2864 18.5507 72.1353L25.1006 73.3953C24.5644 72.5374 24.0193 71.6796 23.4743 70.8218L23.4832 70.8307Z" fill="black"/>
<path d="M21.4637 67.7119C14.4938 57.0962 7.4256 47.535 7.31837 47.3831L7.05926 47.0257C4.80745 46.1142 2.43052 45.3636 0 44.8989C0 44.8989 7.66691 55.2376 14.9585 66.452L21.4637 67.703V67.7119Z" fill="black"/>
<path d="M28.2368 78.5511L21.6333 77.2822C22.8396 79.3732 23.9298 81.3837 24.8591 83.2424L31.5788 84.5917C30.6048 82.6973 29.4789 80.6599 28.2368 78.5511Z" fill="black"/>
<path d="M25.8422 15C25.8422 15 28.2012 22.8277 37.7803 24.9902C37.7803 24.9902 30.5245 26.2412 30.3815 34.9535C30.3815 34.9535 27.8259 27.4028 18.6489 24.9812C18.6489 24.9812 26.3158 24.0698 25.8422 15Z" fill="#6CF479"/>
<path d="M61.9427 69.106C61.9427 69.106 63.6584 74.7981 70.6283 76.3797C70.6283 76.3797 65.3472 77.2911 65.2489 83.6266C65.2489 83.6266 63.3903 78.1311 56.7153 76.3707C56.7153 76.3707 62.3002 75.7095 61.9517 69.106H61.9427Z" fill="#6CF479"/>
<path d="M87.5436 52.1636C87.5436 52.1636 88.7857 56.283 93.8254 57.4178C93.8254 57.4178 90.0099 58.0791 89.9294 62.6631C89.9294 62.6631 88.5891 58.6867 83.7549 57.4178C83.7549 57.4178 87.7938 56.9353 87.5436 52.1636Z" fill="#6CF479"/>
<path d="M8.39062 46.5878C8.39062 46.5878 26.0208 70.3747 33.2498 84.931C33.2498 84.931 61.871 46.1678 99.9998 16.519C99.9998 16.519 65.2219 29.7439 34.1077 60.9922C34.1077 60.9922 22.2589 49.2327 8.39062 46.5788V46.5878Z" fill="#6CF479"/>
</g>
<defs>
<clipPath id="clip0_40000012_3227">
<rect width="100" height="100" fill="white"/>
</clipPath>
</defs>
</svg>
