<svg width="100" height="100" viewBox="0 0 100 100" fill="none" xmlns="http://www.w3.org/2000/svg">
<g clip-path="url(#clip0_15980_18695)">
<rect width="100" height="100" fill="white"/>
<path d="M22.4795 78.2608H14.8092V98.5H22.4795V78.2608Z" fill="black"/>
<path d="M31.8861 14.6765H8.20948C6.65932 14.6765 5.40267 15.937 5.40267 17.4918V80.0777C5.40267 81.6325 6.65932 82.8929 8.20948 82.8929H31.8861C33.4363 82.8929 34.693 81.6325 34.693 80.0777V17.4918C34.693 15.937 33.4363 14.6765 31.8861 14.6765Z" fill="#11B67A"/>
<path d="M74.4435 77.0125H66.7732V98.4945H74.4435V77.0125Z" fill="black"/>
<path d="M85.2746 27.6087H55.9337L41.2675 53.0979L55.9337 78.5786H85.2746L99.9492 53.0979L85.2746 27.6087Z" fill="#6CF479"/>
<path d="M85.2746 25.3829H55.9337L41.2675 50.8721V53.0955L55.9337 27.6063H85.2746L99.9492 53.0955V50.8721L85.2746 25.3829Z" fill="black"/>
<path d="M83.3358 30.9904H57.8891L45.1615 53.0979L57.8891 75.2054H83.3358L96.0634 53.0979L83.3358 30.9904ZM82.6025 73.9289H58.614L46.6197 53.0895L58.614 32.25H82.6025L94.5968 53.0895L82.6025 73.9289ZM62.0614 55.1607H61.9771L60.2998 48.7356H58.4791L56.8018 55.1438H56.7259L55.2003 48.7356H53.0762L55.706 57.959H57.6025L59.3473 51.9312H59.4232L61.1764 57.959H63.0729L65.7027 48.7356H63.5786L62.053 55.1607H62.0614ZM69.1248 48.744L65.9471 57.9675H68.029L68.7118 55.8624H72.0327L72.7155 57.9675H74.7974L71.6282 48.744H69.1248ZM69.2091 54.3407L70.3385 50.8491H70.4144L71.5439 54.3407H69.2091ZM80.3604 48.744V50.3503H83.1757V57.9675H85.0975V50.3503H87.9127V48.744H80.3604ZM76.5337 57.9675H78.4808V48.744H76.5337V57.9675Z" fill="#00482F"/>
<path d="M5.64713 16.3433C6.08543 15.3627 7.06318 14.6779 8.2095 14.6779H31.8862C32.2318 14.6779 32.552 14.7455 32.8555 14.8639L28.6663 12.0994C27.7476 11.4907 26.6771 11.1694 25.5814 11.1694H3.45562C2.11544 11.1694 0.960682 11.9303 0.370662 13.0378L5.64713 16.3433Z" fill="black"/>
<path d="M5.40269 18.6817L-0.0507812 15.2578V18.9691L5.40269 22.4776V18.6817Z" fill="black"/>
<path d="M6.81865 82.5077L6.95351 82.6092H6.99565C6.93665 82.5753 6.86922 82.5415 6.81022 82.5077H6.81865Z" fill="black"/>
<path d="M5.40267 80.0777L5.40269 28.4998L-0.0507812 24.9998V75.6147C-0.0507812 76.7222 0.471808 77.7705 1.35684 78.4384L6.21186 82.0736C5.70613 81.5664 5.39426 80.8647 5.39426 80.0954L5.40267 80.0777Z" fill="black"/>
<path d="M20.0437 36.5466C24.4847 36.5466 28.0848 32.9356 28.0848 28.4813C28.0848 24.027 24.4847 20.4161 20.0437 20.4161C15.6027 20.4161 12.0025 24.027 12.0025 28.4813C12.0025 32.9356 15.6027 36.5466 20.0437 36.5466Z" fill="black"/>
<path d="M19.7571 24.9029C19.7571 24.9029 26.6182 24.2096 24.7639 32.5961C25.7248 31.4971 26.3063 30.0599 26.3063 28.479C26.3063 25.0128 23.508 22.206 20.0521 22.206C19.1502 22.206 18.2989 22.4004 17.5235 22.7471C17.5235 22.7471 19.5885 22.8147 19.7655 24.9113L19.7571 24.9029Z" fill="white"/>
<path d="M20.0437 56.8497C24.4847 56.8497 28.0848 53.2388 28.0848 48.7845C28.0848 44.3302 24.4847 40.7192 20.0437 40.7192C15.6027 40.7192 12.0025 44.3302 12.0025 48.7845C12.0025 53.2388 15.6027 56.8497 20.0437 56.8497Z" fill="#6CF479"/>
<path d="M19.7571 45.272C19.7571 45.272 26.6182 44.5788 24.7639 52.9653C25.7248 51.8662 26.3063 50.429 26.3063 48.8481C26.3063 45.3819 23.508 42.5752 20.0521 42.5752C19.1502 42.5752 18.2989 42.7696 17.5235 43.1162C17.5235 43.1162 19.5885 43.1839 19.7655 45.2805L19.7571 45.272Z" fill="white"/>
<path d="M20.0437 77.1593C24.4847 77.1593 28.0848 73.5484 28.0848 69.0941C28.0848 64.6398 24.4847 61.0288 20.0437 61.0288C15.6027 61.0288 12.0025 64.6398 12.0025 69.0941C12.0025 73.5484 15.6027 77.1593 20.0437 77.1593Z" fill="black"/>
<path d="M19.7571 65.6346C19.7571 65.6346 26.6182 64.9413 24.7639 73.3278C25.7248 72.2288 26.3063 70.7916 26.3063 69.2107C26.3063 65.7445 23.508 62.9377 20.0521 62.9377C19.1502 62.9377 18.2989 63.1322 17.5235 63.4788C17.5235 63.4788 19.5885 63.5464 19.7655 65.643L19.7571 65.6346Z" fill="white"/>
<path d="M69.4368 1.50329C68.0123 1.54556 66.6468 2.12044 65.5174 2.99967C64.7419 3.59991 63.8906 4.45378 63.3849 5.519C63.3849 5.519 57.8134 0.387343 52.0396 8.62166C52.0396 8.62166 54.13 6.60958 57.1896 6.27141C59.7014 5.99243 62.1374 7.23518 63.5534 9.33181L63.5871 9.38253C63.5871 9.38253 64.725 6.27987 67.928 4.5045C69.4284 3.66754 71.2068 3.3801 72.8673 3.81972C73.6091 4.01416 74.3845 4.36078 74.983 4.96102C74.983 4.96102 73.4236 1.37648 69.4284 1.50329H69.4368ZM84.1789 16.2896C84.1367 15.461 83.808 14.6917 83.4708 14.0999C82.9735 13.2376 82.2486 12.5106 81.3468 12.0963C78.8097 10.955 75.6067 12.5359 75.6067 12.5359C76.1461 12.3077 77.9921 12.6036 78.5231 12.6712C79.7116 12.8318 80.782 13.4912 81.5238 14.4212C83.1168 16.4164 83.0325 18.7159 83.0325 18.7159L83.0747 18.6905C84.5413 17.7183 86.4378 17.5661 87.9803 18.4115C89.8599 19.4429 90.6775 21.2944 90.6775 21.2944C89.135 14.455 84.1873 16.2811 84.1873 16.2811L84.1789 16.2896Z" fill="#006A4D"/>
</g>
<defs>
<clipPath id="clip0_15980_18695">
<rect width="100" height="100" fill="white"/>
</clipPath>
</defs>
</svg>
