<svg width="100" height="100" viewBox="0 0 100 100" fill="none" xmlns="http://www.w3.org/2000/svg">
<rect width="100" height="100" fill="white"/>
<path d="M55.4211 73.2729H47.3697V100H55.4211V73.2729Z" fill="#6CF479"/>
<path d="M47.2625 94.5374C47.2625 94.5374 47.8695 87.085 55.4568 87.991V73.2729H47.2625V94.5374Z" fill="black"/>
<path d="M78.5845 3.77528L25.0003 17.5963C22.3581 18.2802 20.5104 20.6519 20.5104 23.3788V81.4874C20.5104 84.2765 23.1615 86.3194 25.8751 85.6177L79.4593 71.7967C82.1015 71.1127 83.9492 68.7412 83.9492 66.0143V7.90557C83.9492 5.11649 81.2981 3.07357 78.5845 3.77528Z" fill="#11B67A"/>
<path d="M19.6 20.9114C20.4034 18.682 22.2601 16.9233 24.6612 16.3104L78.2454 2.48935C78.7096 2.36499 79.1916 2.31169 79.6647 2.31169C80.9233 2.31169 82.0837 2.72917 83.021 3.43088L83.137 3.29762L78.7185 0.721759C77.7456 0.0822256 76.5227 -0.184277 75.273 0.13549L20.4391 14.2852C18.3147 14.8359 16.7258 16.4791 16.1724 18.5132L19.6 20.9114Z" fill="black"/>
<path d="M19.1716 81.4866V33.8858L15.9492 31.6297V78.1734C15.9492 79.5946 16.6365 80.8115 17.672 81.5843L19.3322 82.8012C19.2341 82.3837 19.1716 81.9396 19.1716 81.4866Z" fill="black"/>
<path d="M19.1716 27.3567V23.3685C19.1716 23.3685 19.1716 23.3329 19.1716 23.3241L15.9492 21.0679V25.1005L19.1716 27.3567Z" fill="black"/>
<path d="M58.3757 12.2425L78.2187 7.33054C79.2988 7.06407 80.3431 7.87235 80.3431 8.98265V28.7549C80.3431 28.7549 79.6826 9.14252 58.3757 12.2425Z" fill="white"/>
<path d="M56.635 32.8249V23.978L52.6093 20.9847L48.5836 26.0032V34.7968C42.7458 37.9589 38.479 44.3898 38.479 50.7407C38.479 57.0916 42.7458 61.364 48.5836 61.5861V71.3656L56.635 69.3316V59.4899C62.3657 56.2922 66.5253 49.9324 66.5253 43.6525C66.5253 37.3727 62.3657 33.118 56.635 32.816V32.8249ZM52.5022 53.9029C48.7888 54.8444 45.7718 52.606 45.7718 48.9021C45.7718 45.1981 48.7888 41.4497 52.5022 40.5082C56.2155 39.5666 59.2326 41.805 59.2326 45.509C59.2326 49.2129 56.2244 52.9613 52.5022 53.9029Z" fill="black"/>
</svg>
