<svg width="100" height="100" viewBox="0 0 100 100" fill="none" xmlns="http://www.w3.org/2000/svg">
<g clip-path="url(#clip0_15980_18723)">
<rect width="100" height="100" fill="white"/>
<path d="M31.7986 95.0858C31.7986 95.0858 35.9939 91.7729 38.9724 91.0679L41.7722 91.2463L46.6654 89.3265L49.1162 87.4067C49.1162 87.4067 50.3417 86.3619 51.3884 86.1835C52.4351 86.0051 58.0346 87.0584 58.0346 87.0584C58.0346 87.0584 61.1833 88.1033 62.7576 90.898C62.7576 90.898 65.0298 90.898 65.7276 93.8626C65.7276 93.8626 67.8295 93.5143 69.9229 95.7824C69.9229 95.7824 70.4505 97.1755 66.953 97.5322C63.4554 97.8805 62.7576 99.1038 59.9578 99.2822C57.1581 99.4605 52.2648 97.7107 52.2648 97.7107L44.9208 97.184C44.9208 97.184 40.7254 97.8805 38.0958 97.184C35.4748 96.4874 31.7986 95.0858 31.7986 95.0858Z" fill="black"/>
<path d="M43.0997 50.8509C41.2785 50.8509 40.6829 51.2332 40.4786 51.488C40.4106 51.5815 40.385 51.7004 40.3765 51.8193L39.8319 93.3663C40.5978 93.3918 41.8827 93.5362 42.9039 94.1393C42.9039 94.1393 44.1294 92.6867 45.4569 91.9732L45.8144 51.7174C45.8144 51.7174 45.8739 50.8509 43.0997 50.8509Z" fill="#6CF479"/>
<path d="M71.9825 64.6645C72.3143 64.3841 72.6122 64.0698 72.9185 63.764C73.6419 63.008 75.6928 61.2411 78.6968 61.5809C79.9477 61.7253 80.9179 62.2944 81.5902 62.8721C83.2837 59.933 86.4664 57.9452 90.1086 57.9452C95.5379 57.9452 99.9375 62.3369 99.9375 67.7565V68.6994H59.1155C66.3234 68.6994 69.7784 66.5587 71.9739 64.6645H71.9825Z" fill="#006A4D"/>
<path d="M28.8882 53.2646C28.8882 53.2646 24.1823 43.0371 8.68572 53.2476L28.8882 53.2646Z" fill="#006A4D"/>
<path d="M-0.0625 10.7401C-0.0625 10.7401 1.63947 8.36161 4.60943 7.45269C7.04327 6.70517 9.69844 7.46968 11.494 9.27053L11.5365 9.32149C11.5365 9.32149 12.0811 6.04258 14.9234 3.68959C16.2595 2.58529 17.97 1.96519 19.6975 2.08411C20.4719 2.13508 21.3059 2.33895 22.0123 2.81464C22.0123 2.81464 19.7912 -0.430278 15.8596 0.444663C14.4555 0.758962 13.2044 1.57443 12.2598 2.65325C11.6046 3.39227 10.9238 4.39464 10.6175 5.54141C10.6175 5.54141 4.12439 1.52347 -0.0539818 10.7401H-0.0625Z" fill="#006A4D"/>
<path d="M51.9162 55.9625C50.5802 62.1975 49.4398 72.6289 49.7802 89.9324C49.7972 90.6289 50.3589 91.1811 51.0567 91.1811H51.0822C51.7885 91.1641 52.3502 90.5864 52.3332 89.8814C52.0354 74.6421 52.9289 64.8819 54.0181 58.7403C53.4395 58.0522 52.631 57.0413 51.9246 55.9625H51.9162ZM80.3989 29.5784C80.3989 29.5784 77.0289 26.6732 73.3782 27.8625C73.3782 27.8625 66.0852 29.9097 69.4125 37.2235C72.7399 44.5288 86.3814 49.5151 86.3814 49.5151C86.3814 49.5151 91.7085 41.8785 92.0404 32.577C92.3723 23.2754 81.7264 24.6006 80.3904 29.5869L80.3989 29.5784ZM85.692 45.6416C85.692 45.6416 84.5688 38.4467 81.3861 31.4387C81.3861 31.4387 81.7604 28.2617 84.9431 27.5142C84.9431 27.5142 83.7262 29.383 84.1943 31.6256C84.6623 33.8681 87.4706 38.3533 85.692 45.6416ZM88.1599 16.2164L86.8069 14.4156C84.3135 11.1027 81.3349 8.17204 77.8884 5.87001C70.3316 0.824234 66.4 2.35326 64.7065 3.77185C63.5407 4.74023 63.2343 6.49011 64.1874 7.67935C65.481 9.30181 68.2041 9.91343 68.2041 9.91343C68.2041 9.91343 57.8902 7.9172 62.2132 14.56C66.5362 21.2027 88.1684 16.2249 88.1684 16.2249L88.1599 16.2164ZM72.3995 5.50474C72.3995 5.50474 73.4037 7.69634 73.191 9.45471C73.191 9.45471 75.5567 7.46699 79.7691 8.45236C79.7691 8.45236 77.3778 8.59677 76.9608 9.78601C76.9608 9.78601 80.1946 9.43773 84.1943 13.1499C84.1943 13.1499 77.6672 11.0432 70.3657 10.2022L69.0807 10.0154C69.0807 10.0154 72.1953 8.09559 72.4081 5.50474H72.3995ZM28.2245 21.585V18.2381C28.2245 18.2381 15.6554 16.2844 13.4258 33.5708C13.4258 33.5708 30.7435 31.6171 38.5641 23.2584C46.3847 14.8997 31.0243 18.2381 28.2331 21.585H28.2245ZM24.1909 29.1027C18.3871 30.1305 18.0127 30.1305 16.2341 31.1584C16.2341 31.1584 18.4807 28.3552 21.5698 26.8601C24.6589 25.3651 26.9992 23.87 27.8416 22.4684C27.8416 22.4684 28.3097 23.7766 27.1864 24.8979C26.0631 26.0191 27.28 27.888 32.2413 25.3651C32.2413 25.3651 29.9946 28.0748 24.1909 29.1027ZM58.5114 42.5836C59.0731 40.341 59.507 37.8436 59.6602 35.1253C59.7623 33.316 59.6347 31.9484 59.3368 30.9375C60.6218 26.8091 62.3238 22.5024 63.6513 19.3679C63.1237 18.6204 62.5195 17.669 62.0429 16.6326C60.8005 19.4698 58.9369 23.955 57.4306 28.5081C56.3073 28.0494 54.9457 28.3467 53.7969 28.8139C52.7246 20.2258 50.7929 13.3452 49.9589 10.61C51.1248 8.57977 53.2437 3.12626 42.351 3.33013C28.9819 3.58497 23.2548 10.5845 23.2548 10.5845C23.2548 10.5845 36.743 8.12107 47.3208 10.7374C47.9846 12.8441 50.2653 20.5741 51.3716 30.139C51.3716 30.139 47.8909 29.9012 45.6614 31.9144C43.9338 29.3065 42.4362 27.3868 41.1767 25.9682C41.1767 26.8941 41.0661 28.0918 40.7342 29.417C41.7298 30.6912 42.8786 32.2881 44.1636 34.2844C43.9679 34.9215 43.8487 35.652 43.8487 36.493C43.8487 43.3821 53.4055 54.408 53.4055 54.408C53.4055 54.408 53.5075 54.2636 53.6862 54.0003L57.2774 48.6997C60.2729 43.8238 63.9918 40.1032 67.2341 37.4529C67.1915 36.5524 67.234 35.3292 67.5063 33.9786C64.7832 36.0003 61.5409 38.846 58.5114 42.5751V42.5836ZM53.3969 49.9144C53.3969 49.9144 53.8905 47.8927 53.048 42.8469C52.2055 37.8011 51.1077 36.8582 51.3375 31.9738C51.3375 31.9738 52.3672 36.6459 54.4266 36.459C54.4266 36.459 55.4733 36.4505 56.5796 35.5246C56.5796 35.5246 57.703 40.0097 53.3969 49.9144Z" fill="#11B67A"/>
<path d="M54.2394 67.2264V65.3745C54.2394 64.7714 53.7968 64.2787 53.2352 64.1768C53.1075 65.2641 52.9969 66.4279 52.8948 67.6681C52.8778 67.9059 52.7331 68.1268 52.5289 68.2372C48.0016 70.6921 43.5765 71.4991 41.1426 71.7625C40.0534 71.8219 40.1299 71.2188 40.1299 71.2188L40.1555 69.3585C40.0789 69.4095 40.0108 69.4604 39.9427 69.5029C39.4832 69.8172 39.2194 70.3439 39.2194 70.896V75.4066C39.2194 76.0522 39.7726 76.4939 40.4193 76.4854C45.9593 76.3835 51.9672 73.4869 53.5756 72.2382C54.0011 71.9069 54.2479 71.4227 54.2479 70.8196V67.2178L54.2394 67.2264ZM50.6057 64.559C48.8611 64.9668 47.1932 65.5869 45.6869 66.258L45.6444 70.5732C47.3464 69.8682 48.8952 69.3925 50.1887 69.0867C50.3078 67.3793 50.4525 66.0116 50.6057 64.5506V64.559Z" fill="black"/>
</g>
<defs>
<clipPath id="clip0_15980_18723">
<rect width="100" height="100" fill="white"/>
</clipPath>
</defs>
</svg>
