<svg width="100" height="100" viewBox="0 0 100 100" fill="none" xmlns="http://www.w3.org/2000/svg">
<rect width="100" height="100" fill="white"/>
<path d="M9.19828 40.8601L15.2576 15.3821C16.1602 11.5714 18.8531 8.3742 22.4584 6.82884C26.2192 5.21987 30.3755 5.52495 33.8599 7.66619C37.3443 9.80742 39.4947 13.3778 39.7551 17.461L40.4166 27.6927L35.9418 27.9824L35.2803 17.7507C35.114 15.1401 33.7383 12.858 31.5105 11.4882C29.2826 10.1184 26.6255 9.92417 24.2225 10.9513C21.9178 11.9391 20.1967 13.983 19.619 16.4171L13.5597 41.8951L9.19632 40.8574L9.19828 40.8601Z" fill="#6CF479"/>
<path d="M41.6567 12.2752L1.22381 45.3811C1.02483 45.5027 0.846249 45.6471 0.690021 45.8169L0.679059 45.8248C-2.1733 49.0076 4.22242 59.4122 14.9703 69.0719C18.8143 72.5268 22.6916 75.4171 26.2219 77.5586C30.7618 80.3147 35.8101 81.2147 38.6209 80.9632C38.6209 80.9632 39.6114 80.8037 39.6083 80.808L39.6087 80.8057C39.7634 80.6308 39.8898 80.4367 39.9911 80.2191L68.6075 36.4959L41.6567 12.2752Z" fill="#11B67A"/>
<path d="M32.8395 80.3327C32.7631 80.3128 32.6843 80.2924 32.6079 80.2725C32.6867 80.2928 32.7631 80.3128 32.8395 80.3327Z" fill="#11B67A"/>
<path d="M32.3976 80.2128C32.3192 80.1901 32.2404 80.1698 32.162 80.1471C32.2404 80.1698 32.3188 80.1925 32.3976 80.2128Z" fill="#11B67A"/>
<path d="M31.95 80.0852C31.8692 80.0621 31.7889 80.0367 31.7062 80.0109C31.7865 80.0363 31.8696 80.0598 31.95 80.0852Z" fill="#11B67A"/>
<path d="M33.2757 80.4405C33.2012 80.4233 33.1267 80.4062 33.0503 80.3862C33.1244 80.4058 33.2012 80.4233 33.2757 80.4405Z" fill="#11B67A"/>
<path d="M30.1245 79.4664C29.9724 79.4073 29.818 79.3479 29.6643 79.2837C29.8184 79.3455 29.9701 79.4069 30.1245 79.4664Z" fill="#11B67A"/>
<path d="M30.5844 79.6362C30.4704 79.5956 30.359 79.5529 30.2453 79.5099C30.359 79.5529 30.4727 79.5959 30.5844 79.6362Z" fill="#11B67A"/>
<path d="M33.8861 80.5782C33.832 80.5692 33.7763 80.5551 33.7206 80.5411C33.7767 80.5528 33.83 80.5665 33.8861 80.5782Z" fill="#11B67A"/>
<path d="M31.0434 79.7962C30.9521 79.7641 30.8607 79.732 30.7671 79.6996C30.8584 79.7316 30.9521 79.7641 31.0434 79.7962Z" fill="#11B67A"/>
<path d="M31.4992 79.9476C31.4141 79.9214 31.3295 79.8929 31.2448 79.8643C31.3295 79.8929 31.4145 79.919 31.4992 79.9476Z" fill="#11B67A"/>
<path d="M34.7083 80.7337C34.6566 80.7251 34.6025 80.7161 34.5507 80.7075C34.6048 80.7165 34.6566 80.7251 34.7083 80.7337Z" fill="#11B67A"/>
<path d="M34.3026 80.6599C34.2462 80.6505 34.1925 80.6392 34.1364 80.6275C34.1929 80.6369 34.2485 80.6509 34.3026 80.6599Z" fill="#11B67A"/>
<path d="M37.7901 81.0049C37.7783 81.0029 37.7634 81.0053 37.7513 81.0057C37.763 81.0076 37.7779 81.0053 37.7901 81.0049Z" fill="#11B67A"/>
<path d="M38.0908 80.9968C38.0786 80.9972 38.0641 80.9973 38.0496 80.9973C38.0641 80.9973 38.0763 80.9969 38.0908 80.9968Z" fill="#11B67A"/>
<path d="M38.3706 80.9848C38.3706 80.9848 38.351 80.9864 38.3436 80.9875C38.353 80.9891 38.3632 80.986 38.3706 80.9848Z" fill="#11B67A"/>
<path d="M35.1063 80.7979C35.0569 80.7897 35.0099 80.7819 34.9605 80.7737C35.0099 80.7819 35.0592 80.7901 35.1063 80.7979Z" fill="#11B67A"/>
<path d="M35.4911 80.8521C35.4488 80.8451 35.4037 80.8401 35.3587 80.835C35.4034 80.8424 35.4461 80.8471 35.4911 80.8521Z" fill="#11B67A"/>
<path d="M37.4738 81.0029C37.4738 81.0029 37.4668 81.0017 37.4622 81.0009C37.4668 81.0017 37.4691 81.0021 37.4738 81.0029Z" fill="#11B67A"/>
<path d="M28.0762 78.572C27.9844 78.5278 27.8907 78.4808 27.797 78.4339C27.8907 78.4808 27.9821 78.5274 28.0762 78.572Z" fill="#11B67A"/>
<path d="M26.6844 77.8327C26.5322 77.7447 26.3781 77.6539 26.2264 77.5634C26.3777 77.6562 26.5322 77.7447 26.6844 77.8327Z" fill="#11B67A"/>
<path d="M28.5469 78.7961C28.4528 78.7515 28.3606 78.7096 28.2666 78.665C28.3606 78.7096 28.4524 78.7538 28.5469 78.7961Z" fill="#11B67A"/>
<path d="M27.6082 78.3345C27.5125 78.2849 27.4169 78.2352 27.324 78.1835C27.4192 78.2355 27.5149 78.2852 27.6082 78.3345Z" fill="#11B67A"/>
<path d="M27.1438 78.0895C27.0396 78.0336 26.9357 77.9753 26.8341 77.9174C26.938 77.9757 27.0419 78.034 27.1438 78.0895Z" fill="#11B67A"/>
<path d="M39.6105 80.809L39.6109 80.8067C39.7656 80.6317 39.892 80.4377 39.9933 80.2201L68.6096 36.4968L39.6083 80.808L39.6105 80.809Z" fill="#11B67A"/>
<path d="M26.2177 77.5566C26.1146 77.4936 25.1112 76.8705 23.6828 75.9256C24.5431 76.5081 25.3904 77.0521 26.2177 77.5566Z" fill="#11B67A"/>
<path d="M44.1853 56.8083L62.3173 35.8575C64.503 37.0005 68.6116 36.5003 68.6116 36.5003L41.6565 12.2765L1.2236 45.3823C1.02462 45.504 0.84603 45.6483 0.689802 45.8181L0.678841 45.826C-1.98675 48.8006 3.426 58.0805 12.9158 67.1667C12.9268 67.1733 28.1582 75.3246 44.1806 56.8075L44.1853 56.8083Z" fill="#11B67A"/>
<path d="M35.7489 80.8843C35.6635 80.875 35.5762 80.8638 35.4911 80.8521C35.5785 80.8642 35.6638 80.8726 35.7489 80.8843Z" fill="#006B4E"/>
<path d="M34.9601 80.7758C34.8778 80.7621 34.7931 80.7481 34.7108 80.7344C34.7955 80.7485 34.8778 80.7621 34.9601 80.7758Z" fill="#006B4E"/>
<path d="M26.2264 77.5607C26.2264 77.5607 26.22 77.5573 26.2181 77.5546C26.2245 77.558 26.2264 77.5607 26.2264 77.5607Z" fill="#006B4E"/>
<path d="M35.3587 80.835C35.2764 80.8214 35.1909 80.8119 35.1063 80.7979C35.1909 80.8119 35.276 80.8237 35.3587 80.835Z" fill="#006B4E"/>
<path d="M29.6643 79.2837C29.6188 79.2665 29.5761 79.2467 29.5311 79.2272C29.5761 79.2467 29.6192 79.2642 29.6643 79.2837Z" fill="#006B4E"/>
<path d="M38.3417 80.9848C38.2587 80.9903 38.176 80.9935 38.0886 80.996C38.1736 80.9931 38.259 80.988 38.3417 80.9848Z" fill="#006B4E"/>
<path d="M26.8339 77.9184C26.783 77.8906 26.7349 77.8628 26.6844 77.8327C26.7353 77.8605 26.7833 77.8883 26.8339 77.9184Z" fill="#006B4E"/>
<path d="M37.4617 81.0049C37.0592 80.9985 36.6309 80.9734 36.1786 80.9322C36.6305 80.9758 37.0592 80.9985 37.4617 81.0049Z" fill="#006B4E"/>
<path d="M38.3706 80.9862C38.842 80.9556 39.2626 80.8963 39.6105 80.809C39.6113 80.8043 38.6229 80.9652 38.6229 80.9652C38.5395 80.9731 38.4564 80.9786 38.3686 80.9834L38.3706 80.9862Z" fill="#006B4E"/>
<path d="M28.735 78.8824C28.6723 78.8527 28.6096 78.8258 28.5469 78.7961C28.6096 78.8258 28.6719 78.855 28.735 78.8824Z" fill="#006B4E"/>
<path d="M31.7062 80.0109C31.6372 79.9898 31.568 79.9683 31.4994 79.9448C31.5684 79.9659 31.6372 79.9898 31.7062 80.0109Z" fill="#006B4E"/>
<path d="M34.5513 80.7061C34.469 80.6925 34.3841 80.6782 34.3026 80.6599C34.3873 80.6739 34.4694 80.6901 34.5513 80.7061Z" fill="#006B4E"/>
<path d="M29.2011 79.0903C29.1423 79.066 29.0839 79.0394 29.0255 79.0128C29.0839 79.0394 29.1427 79.0637 29.2011 79.0903Z" fill="#006B4E"/>
<path d="M28.2666 78.665C28.2015 78.6349 28.1392 78.6018 28.0741 78.5717C28.1388 78.6042 28.2015 78.6349 28.2666 78.665Z" fill="#006B4E"/>
<path d="M30.2453 79.5099C30.2046 79.4935 30.1657 79.4789 30.1246 79.4648C30.1653 79.4813 30.2042 79.4958 30.2453 79.5099Z" fill="#006B4E"/>
<path d="M32.162 80.1471C32.0907 80.1256 32.0213 80.1067 31.95 80.0852C32.0213 80.1067 32.0903 80.128 32.162 80.1471Z" fill="#006B4E"/>
<path d="M32.6079 80.2704C32.5385 80.2516 32.467 80.2315 32.3976 80.2128C32.467 80.2315 32.5381 80.254 32.6079 80.2704Z" fill="#006B4E"/>
<path d="M33.0503 80.3862C32.9805 80.3698 32.9089 80.3514 32.8395 80.3327C32.9089 80.3514 32.9809 80.3675 33.0503 80.3862Z" fill="#006B4E"/>
<path d="M61.3408 34.1397L59.3053 36.5338C59.3053 36.5338 59.3053 36.5338 43.7771 54.7992C28.2546 73.0584 13.5834 65.0906 13.5728 65.0841C14.2127 65.7085 14.8716 66.3313 15.5493 66.9525C18.3784 69.54 21.2264 71.8025 23.929 73.6629C25.3045 74.5876 26.2708 75.1972 26.3701 75.2589C26.3724 75.2592 26.3765 75.2623 26.3784 75.265C26.5242 75.3558 26.673 75.4422 26.8195 75.5284C26.8686 75.5555 26.9154 75.5823 26.9641 75.6118C27.0642 75.6688 27.1643 75.7258 27.2625 75.7801C27.3203 75.8111 27.3781 75.8421 27.4359 75.8731C27.5277 75.924 27.6198 75.9725 27.7097 76.0207C27.7698 76.0521 27.8321 76.0838 27.8921 76.1152C27.9824 76.161 28.0704 76.2066 28.1611 76.2501C28.2234 76.2818 28.2839 76.3109 28.3466 76.3403C28.4372 76.3839 28.5256 76.4271 28.6167 76.4683C28.6771 76.4974 28.7375 76.5264 28.7984 76.5531C28.8913 76.5971 28.9846 76.6387 29.0779 76.6803C29.1342 76.7063 29.1909 76.73 29.2472 76.7559C29.3537 76.8021 29.4602 76.8483 29.5672 76.8922C29.6106 76.9113 29.6522 76.9277 29.6956 76.9468C29.8441 77.0071 29.9903 77.067 30.1392 77.125C30.1785 77.141 30.2159 77.1543 30.2556 77.1681C30.3651 77.21 30.4747 77.252 30.5824 77.2912C30.6417 77.3129 30.6992 77.332 30.7585 77.3537C30.8465 77.3849 30.9368 77.4165 31.0249 77.4478C31.0887 77.4703 31.153 77.4904 31.2168 77.5129C31.2985 77.5407 31.3805 77.5662 31.4621 77.594C31.5286 77.6146 31.5947 77.6374 31.6612 77.6579C31.7387 77.6827 31.8188 77.7055 31.8963 77.7302C31.9651 77.7511 32.0316 77.7717 32.1007 77.7903C32.1763 77.8123 32.2519 77.8344 32.3279 77.8541C32.3948 77.8723 32.4636 77.8932 32.5308 77.9091C32.6068 77.9289 32.6805 77.9482 32.7542 77.9676C32.8211 77.9858 32.8906 78.0021 32.9575 78.0203C33.029 78.0393 33.1031 78.0563 33.1749 78.073C33.3185 78.1063 33.4621 78.1397 33.6039 78.1703C33.6579 78.1816 33.7093 78.1949 33.7634 78.2063C33.8443 78.2244 33.9233 78.2399 34.0046 78.2558C34.059 78.2648 34.1127 78.2785 34.1648 78.2871C34.2465 78.3007 34.3255 78.3161 34.4045 78.3316C34.4567 78.3403 34.5066 78.3485 34.5565 78.3568C34.6381 78.3704 34.7175 78.3835 34.7969 78.3967C34.8445 78.4046 34.8922 78.4125 34.9375 78.42C35.0192 78.4336 35.1012 78.4448 35.181 78.4556C35.2241 78.4628 35.2653 78.4672 35.3088 78.4721C35.3931 78.4837 35.4755 78.4926 35.5575 78.5038C35.5916 78.5095 35.6264 78.5105 35.6604 78.5161C35.7496 78.5262 35.8388 78.5362 35.9262 78.5436C35.9421 78.5462 35.9561 78.5461 35.9719 78.5488C36.4079 78.5902 36.8216 78.6112 37.2099 78.6162C37.2145 78.617 37.2168 78.6173 37.2213 78.6181C37.3121 78.6189 37.4006 78.6193 37.4894 78.6174C37.5008 78.6192 37.5151 78.6169 37.5269 78.6165C37.6108 78.6161 37.6952 78.6135 37.7772 78.6104C37.7912 78.6104 37.803 78.6099 37.817 78.6099C37.899 78.6068 37.9815 78.6015 38.0613 78.5981C38.0704 78.5996 38.0802 78.5965 38.0874 78.5953C38.1698 78.59 38.2527 78.5823 38.3329 78.5766C38.3329 78.5766 39.2893 78.4166 39.2863 78.4209L67.4126 34.7544C67.4126 34.7544 63.4461 35.2591 61.3404 34.142L61.3408 34.1397Z" fill="#006B4E"/>
<path d="M41.8108 68.3296C41.8108 68.3296 40.262 79.605 39.6105 80.809L45.9538 71.1189L41.8105 68.332L41.8108 68.3296Z" fill="black"/>
<path d="M68.6117 36.4974C70.591 34.2958 66.1584 27.0898 58.7162 20.4019C51.2739 13.714 43.6355 10.0744 41.659 12.274C39.6797 14.4757 44.1123 21.6817 51.5545 28.3696C58.9967 35.0575 66.6352 38.6971 68.6117 36.4974Z" fill="black"/>
<path d="M40.4849 16.2667L3.96675 46.6171C3.96675 46.6171 29.0121 25.2568 35.5502 28.9459C35.5502 28.9459 33.951 23.1883 40.4802 16.2659L40.4849 16.2667Z" fill="white"/>
<path d="M82.4062 55.9074C82.4062 55.9074 48.4921 59.8033 48.328 59.8316C46.5647 60.1336 44.4891 61.9254 43.0906 64.5593C41.2253 68.0701 41.2733 71.7437 43.194 72.7653C43.6402 73.0036 44.1505 73.0738 44.6916 73.0016L44.6904 73.0087L44.7684 72.9902C44.8824 72.9729 44.9996 72.9512 45.116 72.9198C45.1665 72.9064 45.2202 72.8887 45.2711 72.873L81.4392 64.3902C82.1436 64.2219 82.7311 63.7394 83.0284 63.0832L84.7915 59.1832C85.5391 57.5312 84.1989 55.7045 82.4035 55.9094L82.4062 55.9074Z" fill="#11B67A"/>
<path d="M81.5143 63.5743C81.226 64.2054 80.6632 64.6703 79.9838 64.8331L45.1933 72.9934C45.1424 73.0091 45.0938 73.0252 45.0433 73.0386C44.9297 73.0681 44.82 73.0886 44.7083 73.1063L44.6303 73.1248L44.6315 73.1177C44.1127 73.1863 43.6212 73.1193 43.1927 72.8912C42.4932 72.5191 42.0522 71.7838 41.8696 70.8305L81.5088 63.5782L81.5143 63.5743Z" fill="#006B4E"/>
<path d="M85.0331 57.5662C84.5589 57.0744 83.8677 56.7834 83.0919 56.8722C83.0919 56.8722 49.1778 60.7681 49.0136 60.7964C47.2504 61.0984 45.1748 62.8902 43.7763 65.5241C43.7763 65.5241 45.4625 62.4523 52.6406 61.845C59.8187 61.2377 85.0331 57.5662 85.0331 57.5662Z" fill="#6CF479"/>
<path d="M83.4502 68.5394C87.5742 68.136 90.5473 64.0356 90.0944 59.3792C89.6392 54.7223 85.9296 51.2728 81.8057 51.6762C77.6818 52.0796 74.7087 56.18 75.1615 60.8364C75.6167 65.4933 79.3287 68.9432 83.4526 68.5398L83.4502 68.5394Z" fill="#6CF479"/>
<path d="M84.4719 71.7917C87.9064 71.2329 90.4003 65.3447 90.0427 58.6429C89.685 51.9411 86.6133 46.9615 83.1788 47.5203C79.7444 48.0792 77.2504 53.9674 77.6081 60.6692C77.9658 67.3709 81.0371 72.3529 84.4719 71.7917Z" fill="#11B67A"/>
<path d="M85.4615 69.4388C87.937 68.9649 89.7657 64.1601 89.5465 58.7064C89.3274 53.2526 87.1429 49.2175 84.6674 49.6913C82.1918 50.1652 80.3632 54.97 80.5823 60.4237C80.8014 65.8775 82.9859 69.9126 85.4615 69.4388Z" fill="#6CF479"/>
<path d="M87.7604 55.7524C87.7783 56.096 87.6653 56.3987 87.505 56.4325C87.3447 56.4663 87.2007 56.2129 87.1828 55.8692C87.1649 55.5256 87.2779 55.2229 87.4382 55.1891C87.5984 55.1553 87.7424 55.4087 87.7604 55.7524Z" fill="black"/>
<path d="M86.6645 57.9711C86.6824 58.3148 86.5694 58.6175 86.4092 58.6513C86.2489 58.6851 86.1049 58.4317 86.087 58.088C86.0691 57.7443 86.1821 57.4417 86.3423 57.4079C86.5026 57.374 86.6466 57.6275 86.6645 57.9711Z" fill="black"/>
<path d="M87.9839 58.3349C88.0019 58.6786 87.8888 58.9812 87.7286 59.015C87.5683 59.0489 87.4243 58.7954 87.4064 58.4518C87.3885 58.1081 87.5015 57.8055 87.6618 57.7716C87.822 57.7378 87.966 57.9912 87.9839 58.3349Z" fill="black"/>
<path d="M87.1079 60.0914C87.1258 60.4351 87.0128 60.7377 86.8526 60.7716C86.6923 60.8054 86.5483 60.552 86.5304 60.2083C86.5125 59.8646 86.6255 59.562 86.7858 59.5282C86.946 59.4943 87.09 59.7478 87.1079 60.0914Z" fill="black"/>
<path d="M88.356 60.61C88.3739 60.9536 88.2609 61.2563 88.1006 61.2901C87.9404 61.3239 87.7964 61.0705 87.7785 60.7268C87.7605 60.3831 87.8736 60.0805 88.0338 60.0467C88.1941 60.0128 88.3381 60.2663 88.356 60.61Z" fill="black"/>
<path d="M89.1629 58.9055C89.1808 59.2492 89.0678 59.5518 88.9075 59.5857C88.7473 59.6195 88.6033 59.3661 88.5854 59.0224C88.5675 58.6787 88.6805 58.3761 88.8407 58.3423C89.001 58.3084 89.145 58.5619 89.1629 58.9055Z" fill="black"/>
<path d="M88.8951 56.5281C88.913 56.8718 88.8 57.1744 88.6398 57.2083C88.4795 57.2421 88.3355 56.9887 88.3176 56.645C88.2997 56.3013 88.4127 55.9987 88.5729 55.9649C88.7332 55.931 88.8772 56.1845 88.8951 56.5281Z" fill="black"/>
<path d="M86.6017 55.4971C86.6196 55.8408 86.5066 56.1434 86.3464 56.1773C86.1861 56.2111 86.0421 55.9577 86.0242 55.614C86.0063 55.2703 86.1193 54.9677 86.2795 54.9339C86.4398 54.9 86.5838 55.1535 86.6017 55.4971Z" fill="black"/>
<path d="M87.4035 53.1094C87.4214 53.4531 87.3084 53.7557 87.1481 53.7896C86.9879 53.8234 86.8438 53.57 86.8259 53.2263C86.808 52.8826 86.921 52.58 87.0813 52.5462C87.2415 52.5123 87.3856 52.7658 87.4035 53.1094Z" fill="black"/>
<path d="M86.1774 53.0995C86.1953 53.4432 86.0823 53.7458 85.9221 53.7796C85.7618 53.8135 85.6178 53.56 85.5999 53.2164C85.582 52.8727 85.695 52.5701 85.8552 52.5362C86.0155 52.5024 86.1595 52.7558 86.1774 53.0995Z" fill="black"/>
<path d="M85.3871 56.8035C85.405 57.1472 85.292 57.4498 85.1317 57.4836C84.9715 57.5174 84.8275 57.264 84.8095 56.9203C84.7916 56.5767 84.9046 56.274 85.0649 56.2402C85.2252 56.2064 85.3692 56.4598 85.3871 56.8035Z" fill="black"/>
<path d="M88.4859 63.8778C88.5038 64.2215 88.3908 64.5241 88.2305 64.558C88.0703 64.5918 87.9262 64.3383 87.9083 63.9947C87.8904 63.651 88.0034 63.3484 88.1637 63.3145C88.3239 63.2807 88.468 63.5341 88.4859 63.8778Z" fill="black"/>
<path d="M82.893 53.9918C82.9109 54.3355 82.7979 54.6381 82.6376 54.672C82.4774 54.7058 82.3333 54.4524 82.3154 54.1087C82.2975 53.765 82.4105 53.4624 82.5708 53.4286C82.731 53.3947 82.8751 53.6482 82.893 53.9918Z" fill="black"/>
<path d="M86.2005 62.0388C86.2185 62.3825 86.1054 62.6851 85.9452 62.719C85.7849 62.7528 85.6409 62.4994 85.623 62.1557C85.6051 61.812 85.7181 61.5094 85.8784 61.4756C86.0386 61.4417 86.1826 61.6952 86.2005 62.0388Z" fill="black"/>
<path d="M86.7723 64.1271C86.7903 64.4708 86.6772 64.7734 86.517 64.8072C86.3567 64.8411 86.2127 64.5876 86.1948 64.244C86.1769 63.9003 86.2899 63.5977 86.4502 63.5638C86.6104 63.53 86.7544 63.7834 86.7723 64.1271Z" fill="black"/>
<path d="M85.943 67.1457C85.9609 67.4894 85.8479 67.792 85.6877 67.8258C85.5274 67.8596 85.3834 67.6062 85.3655 67.2625C85.3476 66.9189 85.4606 66.6162 85.6208 66.5824C85.7811 66.5486 85.9251 66.802 85.943 67.1457Z" fill="black"/>
<path d="M84.639 60.1035C84.6569 60.4472 84.5439 60.7498 84.3836 60.7836C84.2233 60.8175 84.0793 60.564 84.0614 60.2204C84.0435 59.8767 84.1565 59.5741 84.3168 59.5402C84.477 59.5064 84.621 59.7598 84.639 60.1035Z" fill="black"/>
<path d="M83.2768 63.1021C83.2948 63.4457 83.1817 63.7484 83.0215 63.7822C82.8612 63.816 82.7172 63.5626 82.6993 63.2189C82.6814 62.8752 82.7944 62.5726 82.9547 62.5388C83.1149 62.5049 83.2589 62.7584 83.2768 63.1021Z" fill="black"/>
<path d="M83.9011 66.4905C83.919 66.8342 83.806 67.1368 83.6458 67.1706C83.4855 67.2045 83.3415 66.951 83.3236 66.6074C83.3057 66.2637 83.4187 65.9611 83.5789 65.9272C83.7392 65.8934 83.8832 66.1468 83.9011 66.4905Z" fill="black"/>
<path d="M85.5082 64.0285C85.5261 64.3722 85.4131 64.6749 85.2528 64.7087C85.0926 64.7425 84.9485 64.4891 84.9306 64.1454C84.9127 63.8017 85.0257 63.4991 85.186 63.4653C85.3462 63.4314 85.4903 63.6849 85.5082 64.0285Z" fill="black"/>
<path d="M96.1571 68.0347C96.041 67.9043 95.9511 67.7468 95.8718 67.5838C95.7352 67.3002 95.6264 66.9946 95.5184 66.6988C95.4174 66.4187 95.3369 66.1178 95.3162 65.8196C95.3123 65.7706 95.3001 65.684 95.34 65.6471C95.4003 65.5895 95.5638 65.6528 95.6257 65.6728C95.8123 65.7279 95.9926 65.8061 96.1702 65.8863C96.5093 66.0416 96.8598 66.2012 97.1707 66.4099C97.4903 66.6248 97.8099 66.9122 97.8471 67.3146C97.9064 67.9623 97.2825 68.4895 96.655 68.3396C96.448 68.2907 96.2877 68.1796 96.1594 68.0351L96.1571 68.0347Z" fill="#006A4D"/>
<path d="M90.289 71.2906C90.3018 71.184 90.3339 71.0782 90.3773 70.9767C90.4501 70.8003 90.5444 70.625 90.6328 70.456C90.7173 70.2961 90.821 70.1369 90.9491 70.0059C90.9694 69.9851 91.0031 69.9424 91.0388 69.9459C91.0889 69.9494 91.1255 70.0496 91.1435 70.0865C91.1934 70.1938 91.2327 70.3066 91.2696 70.4191C91.3376 70.6357 91.4091 70.8602 91.4394 71.0852C91.471 71.3175 91.4735 71.5789 91.3055 71.7613C91.0373 72.0527 90.5435 71.9853 90.3543 71.6398C90.2935 71.5258 90.2769 71.407 90.2913 71.291L90.289 71.2906Z" fill="#006A4D"/>
<path d="M96.1336 75.4037C95.8975 75.0939 95.7232 74.7316 95.5755 74.3543C95.3214 73.7008 95.1296 73.007 94.9394 72.3327C94.7598 71.6964 94.6339 71.0134 94.638 70.3472C94.6391 70.2387 94.6253 70.0455 94.7228 69.9674C94.8677 69.8513 95.2166 70.0203 95.353 70.0719C95.7576 70.226 96.1441 70.4303 96.5229 70.638C97.2513 71.0392 97.9994 71.4532 98.6531 71.9699C99.3236 72.5016 99.9845 73.1935 99.9997 74.0925C100.023 75.5389 98.5486 76.6065 97.1817 76.1647C96.7298 76.0197 96.3957 75.7468 96.136 75.4041L96.1336 75.4037Z" fill="#006A4D"/>
<path d="M68.6117 36.4974C70.591 34.2958 66.1584 27.0898 58.7162 20.4019C51.2739 13.714 43.6355 10.0744 41.659 12.274C39.6797 14.4757 44.1123 21.6817 51.5545 28.3696C58.9967 35.0575 66.6352 38.6971 68.6117 36.4974Z" fill="#6CF479"/>
<path d="M54.7397 19.2039C49.6274 14.6107 44.385 12.1127 43.0256 13.6222C41.8666 14.9136 43.9142 18.7109 47.721 22.6526" fill="black"/>
<path d="M41.8108 68.3296C41.8108 68.3296 41.8751 70.8261 47.0085 69.8869L41.8751 70.8261C41.8751 70.8261 41.4969 69.7418 41.8108 68.3296Z" fill="#006B4E"/>
<path d="M36.5614 94.1907C50.3537 94.1907 61.5346 92.765 61.5346 91.0063C61.5346 89.2476 50.3537 87.822 36.5614 87.822C22.769 87.822 11.5881 89.2476 11.5881 91.0063C11.5881 92.765 22.769 94.1907 36.5614 94.1907Z" fill="black"/>
</svg>
