<svg width="100" height="100" viewBox="0 0 100 100" fill="none" xmlns="http://www.w3.org/2000/svg">
<rect width="100" height="100" fill="white"/>
<path d="M50.0132 59.593C43.6444 59.593 37.8771 62.1638 33.7108 66.3193L33.5161 70.5805H37.992L50.0132 82.5453L62.0344 70.5805H66.5104L66.3158 66.3193C62.1407 62.1638 56.3732 59.593 50.0044 59.593H50.0132Z" fill="black"/>
<path d="M50.0133 44.1137C39.3454 44.1137 29.6948 48.4189 22.7068 55.3741L22.3883 59.5121C22.3883 59.5121 23.4233 58.8518 25.2543 57.9097L27.9257 60.5686C33.0916 55.427 40.0442 52.0814 47.7665 51.5356C48.5095 51.4915 49.2614 51.4563 50.0221 51.4475C58.6378 51.4475 66.4573 54.9339 72.1186 60.5686L74.8342 57.8657C76.6387 58.8342 77.6471 59.5209 77.6471 59.5209L77.3287 55.383C70.3406 48.4277 60.69 44.1225 50.0221 44.1225L50.0133 44.1137Z" fill="black"/>
<path d="M42.3442 20.8004C42.5653 20.774 42.7776 20.7388 42.9987 20.7212C43.3437 20.6772 43.6886 20.642 44.0248 20.6155C45.9885 20.4307 47.9876 20.325 50.0044 20.325C59.9116 20.325 69.2792 22.6405 77.6118 26.7344L79.1685 19.3478C78.169 18.8899 77.1606 18.4585 76.1434 18.0448L75.188 23.6266L73.012 23.2568L74.047 17.226C66.5547 14.4967 58.4609 13 50.0133 13C30.7209 13 13.2508 20.7828 0.601498 33.3727L0.0177086 37.2553L4.06898 36.8327L5.82045 38.5759C12.6493 31.7792 21.0615 26.5583 30.4379 23.4681C34.5511 22.1651 38.5316 21.3023 42.3529 20.8092L42.3442 20.8004Z" fill="black"/>
<path d="M50.0132 28.5585C35.0287 28.5585 21.4683 34.5981 11.6497 44.3707L11.1985 48.3765C11.1985 48.3765 12.2512 47.7514 14.0999 46.8094L16.8686 49.5651C20.5572 45.8938 24.8651 42.83 29.6064 40.5321C36.0814 38.56 43.6709 37.0545 51.3578 37.3098C58.3282 37.5387 64.8917 38.9033 70.5263 40.5937C75.2234 42.8828 79.4869 45.9202 83.149 49.5651L85.9354 46.7918C87.7841 47.7514 88.8191 48.3765 88.8191 48.3765L88.368 44.3707C78.5493 34.5981 64.9889 28.5585 50.0044 28.5585H50.0132Z" fill="black"/>
<path d="M99.425 33.3635C94.8872 28.847 89.7214 24.9644 84.0778 21.8213L82.4944 29.3488L82.406 29.3312C86.705 31.9372 90.6678 35.0363 94.2061 38.5579L95.0995 37.6687L100 37.2461L99.4162 33.3635H99.425Z" fill="black"/>
<path d="M0.0177086 37.2455L5.29854 42.5016C16.7537 31.1003 32.5697 24.0394 50.0044 24.0394C67.4392 24.0394 83.2553 31.1003 94.7104 42.5016L99.9912 37.2455C87.2004 24.5148 69.5179 16.6351 49.9956 16.6351C30.4732 16.6351 12.7997 24.5148 0 37.2455H0.0177086Z" fill="#11B67A"/>
<path d="M22.3794 59.5048L27.6514 64.752C33.3745 59.0558 41.2826 55.5253 50.0044 55.5253C58.7262 55.5253 66.6342 59.0558 72.3573 64.752L77.6293 59.5048C70.5616 52.4703 60.7872 48.1123 50.0044 48.1123C39.2215 48.1123 29.4471 52.4615 22.3794 59.5048ZM33.5072 70.5804L50.0044 87L66.5015 70.5804C62.2822 66.3808 56.444 63.7748 50.0044 63.7748C43.5647 63.7748 37.7266 66.372 33.5072 70.5804ZM50.0132 32.3793C34.8606 32.3793 21.1322 38.4894 11.2074 48.3764L16.4882 53.6325C25.0774 45.0837 36.9394 39.7836 50.0221 39.7836C63.1048 39.7836 74.9668 45.0837 83.556 53.6325L88.8368 48.3764C78.9031 38.4894 65.1835 32.3793 50.0309 32.3793H50.0132Z" fill="#6CF479"/>
<path d="M8.92534 63.6924C8.92534 63.6924 11.2606 71.4048 20.7431 73.5354C20.7431 73.5354 13.5604 74.7679 13.4189 83.3519C13.4189 83.3519 10.889 75.9125 1.80455 73.5266C1.80455 73.5266 9.39416 72.6285 8.92534 63.6924Z" fill="#006A4D"/>
</svg>
