<svg width="24" height="24" viewBox="0 0 24 24" fill="none" xmlns="http://www.w3.org/2000/svg">
<path d="M12 0C5.376 0 0 5.376 0 12C0 18.624 5.376 24 12 24C18.624 24 24 18.624 24 12C24 5.376 18.624 0 12 0ZM12 22.44C6.24 22.44 1.55999 17.76 1.55999 12C1.55999 6.24 6.24 1.56 12 1.56C17.76 1.56 22.44 6.24 22.44 12C22.44 17.76 17.76 22.44 12 22.44Z" fill="black"/>
<path d="M16.164 6.564L12 10.728L7.836 6.564L6.564 7.836L10.728 12L6.564 16.164L7.836 17.436L12 13.272L16.164 17.436L17.436 16.164L13.272 12L17.436 7.836L16.164 6.564Z" fill="black"/>
</svg>
