<svg width="24" height="24" viewBox="0 0 24 24" fill="none" xmlns="http://www.w3.org/2000/svg">
<path d="M23.8593 20.9386L12.9301 2.00342C12.7229 1.64348 12.3629 1.46896 12.003 1.46896C11.643 1.46896 11.2831 1.64348 11.0759 2.00342L0.146683 20.9386C-0.267797 21.6476 0.244848 22.5311 1.07381 22.5311H22.9322C23.7502 22.5311 24.2629 21.6476 23.8593 20.9386ZM1.68462 21.1131L12.003 3.23596L22.3214 21.1131H1.68462Z" fill="black"/>
<path d="M12.7531 8.65503H11.2531V15.155H12.7531V8.65503Z" fill="black"/>
<path d="M10.8532 17.505C10.8532 18.145 11.3632 18.655 12.0032 18.655C12.6432 18.655 13.1532 18.145 13.1532 17.505C13.1532 16.865 12.6432 16.355 12.0032 16.355C11.3632 16.355 10.8532 16.865 10.8532 17.505Z" fill="black"/>
</svg>
