<svg width="24" height="24" viewBox="0 0 24 24" fill="none" xmlns="http://www.w3.org/2000/svg">
<path d="M2.08683 8.04156C2.86708 7.778 2.84707 6.88598 2.84707 6.88598C2.84707 6.15613 2.21687 5.41614 1.03649 5.81148C-0.143883 6.20681 0.00616523 6.98735 0.00616523 6.98735C0.00616523 7.74762 1.31658 8.29497 2.09683 8.03141L2.08683 8.04156Z" fill="black"/>
<path d="M22.9535 5.81148C21.7731 5.41614 21.1429 6.15613 21.1429 6.88598C21.1429 6.88598 21.1129 7.778 21.9032 8.04156C22.6934 8.30512 23.9938 7.75776 23.9938 6.9975C23.9938 6.9975 24.1439 6.20682 22.9635 5.82162L22.9535 5.81148Z" fill="black"/>
<path d="M20.7528 8.50787L20.7028 8.38623C20.0926 6.50078 19.4024 4.83832 18.9122 3.77395C18.5421 2.95286 17.7618 2.39535 16.8716 2.29398C15.3011 2.11151 13.6705 2 11.99 2C10.3095 2 8.67894 2.10138 7.10844 2.29398C6.21815 2.39535 5.44791 2.95286 5.06778 3.77395C4.57763 4.84845 3.8774 6.50078 3.27721 8.38623L3.2272 8.50787C2.9271 8.75115 2.03681 9.45062 1.34659 10.9407C1.09651 11.4678 0.976475 12.0558 0.976475 12.6437V20.4795C0.976475 21.3208 1.64669 22 2.47696 22H4.47759C5.30786 22 5.97808 21.3208 5.97808 20.4795V18.9589H17.9819V20.4795C17.9819 21.3208 18.6521 22 19.4824 22H21.483C22.3133 22 22.9835 21.3208 22.9835 20.4795V12.6437C22.9835 12.0558 22.8635 11.4678 22.6134 10.9306C21.9232 9.45061 21.0429 8.75115 20.7328 8.50787H20.7528ZM19.0723 10.3325C19.3123 10.1297 19.5724 10.0892 19.7625 10.0892C20.2126 10.0892 20.6628 10.3224 20.9929 10.7177C21.523 11.3664 21.5431 12.2585 21.0229 12.6944C20.7828 12.8971 20.5227 12.9377 20.3327 12.9377C19.8825 12.9377 19.4324 12.7045 19.1023 12.3092C18.8222 11.9747 18.6821 11.5692 18.7021 11.1739C18.7021 10.9711 18.7722 10.596 19.0823 10.3325H19.0723ZM6.25816 4.32135C6.43822 3.92601 6.81834 3.65232 7.26849 3.60164C8.83899 3.41918 10.4295 3.31781 12 3.31781C13.5705 3.31781 15.161 3.40904 16.7315 3.60164C17.1817 3.65232 17.5618 3.92601 17.7418 4.32135C18.102 5.10188 18.5721 6.23722 19.0423 7.53474C19.1723 7.88953 18.8922 8.25447 18.5221 8.21392C16.4114 7.97064 14.2407 7.82871 12 7.82871C9.75928 7.82871 7.58859 7.97064 5.47791 8.21392C5.1078 8.25447 4.82771 7.88953 4.95775 7.53474C5.4279 6.23722 5.90805 5.10188 6.25816 4.32135ZM2.99712 10.7177C3.31722 10.3224 3.77737 10.0892 4.22751 10.0892C4.40757 10.0892 4.67766 10.1297 4.91774 10.3325C5.22783 10.596 5.28785 10.9711 5.29786 11.1739C5.30786 11.5692 5.16782 11.9747 4.88773 12.3092C4.56762 12.7045 4.10748 12.9377 3.65733 12.9377C3.47728 12.9377 3.20719 12.8971 2.96711 12.6944C2.44695 12.2585 2.45695 11.3664 2.99712 10.7177ZM21.493 20.6822H19.4924C19.3824 20.6822 19.2923 20.591 19.2923 20.4795V17.6412H4.68766V20.4795C4.68766 20.591 4.59763 20.6822 4.4876 20.6822H2.48696C2.37692 20.6822 2.28689 20.591 2.28689 20.4795V13.8196C2.69703 14.1135 3.16718 14.2656 3.65733 14.2656C4.45759 14.2656 5.28785 13.8905 5.87804 13.1708C6.81834 12.0253 6.79834 10.4237 5.87804 9.49111C7.9287 9.2681 9.96935 9.14649 11.98 9.14649C13.9906 9.14649 16.0313 9.25796 18.0819 9.49111C17.1617 10.4237 17.1416 12.0253 18.0819 13.1708C18.6721 13.8905 19.5024 14.2656 20.3027 14.2656C20.7928 14.2656 21.273 14.1135 21.6731 13.8196V20.4795C21.6731 20.591 21.5831 20.6822 21.473 20.6822H21.493Z" fill="black"/>
<path d="M8.28881 15.9179H15.6912C16.4114 15.9179 16.9916 15.33 16.9916 14.6001H6.9884C6.9884 15.33 7.56858 15.9179 8.28881 15.9179Z" fill="black"/>
</svg>
