<svg width="24" height="24" viewBox="0 0 24 24" fill="none" xmlns="http://www.w3.org/2000/svg">
<path d="M21.12 7.62544H16.3636V9.80726H14.7273V7.62544H12.7091V4.15629C13.1345 3.93811 14.2582 3.51267 16.2873 3.89449C20.1709 4.6254 21.2291 1.59268 21.2291 1.59268C19.8327 1.88723 18.0436 1.6582 15.9382 0.698198C14.7164 0.141834 13.5818 0 12.7091 0H11.2909V7.63636H9.27273V9.81818H7.63636V7.63636H2.88L0 24H24L21.12 7.63636V7.62544ZM10.1455 22.5708V18.0437C10.1455 17.0182 10.9745 16.1891 12 16.1891C13.0255 16.1891 13.8545 17.0182 13.8545 18.0437V22.5708H10.1455ZM12 14.771C10.1891 14.771 8.72727 16.2328 8.72727 18.0437V22.5708H1.69091L4.08 9.04368H6.21818V11.2255H10.6909V9.04368H13.3091V11.2255H17.7818V9.04368H19.92L22.3091 22.5708H15.2727V18.0437C15.2727 16.2328 13.8109 14.771 12 14.771Z" fill="black"/>
</svg>
