<svg width="24" height="24" viewBox="0 0 24 24" fill="none" xmlns="http://www.w3.org/2000/svg">
<path d="M11.9888 0C7.16701 0 3.27246 3.90544 3.27246 8.71635C3.27246 9.94908 3.53428 11.1163 3.99246 12.1745C4.37428 13.08 7.0361 19.1891 11.9997 24C16.9634 19.1891 19.6252 13.08 20.007 12.1745C20.4652 11.1163 20.727 9.94908 20.727 8.71635C20.727 3.90544 16.8216 0 12.0106 0H11.9888ZM18.687 11.6291C18.4252 12.2509 16.167 17.4982 11.9888 21.9709C7.81064 17.4982 5.55246 12.2509 5.27973 11.6073C4.88701 10.6909 4.67973 9.71999 4.67973 8.71635C4.67973 4.6909 7.95246 1.41817 11.9779 1.41817C16.0034 1.41817 19.2761 4.6909 19.2761 8.71635C19.2761 9.71999 19.0797 10.6909 18.6761 11.6291H18.687Z" fill="black"/>
<path d="M11.9888 10.8982C13.1938 10.8982 14.1706 9.92134 14.1706 8.71635C14.1706 7.51137 13.1938 6.53453 11.9888 6.53453C10.7838 6.53453 9.80701 7.51137 9.80701 8.71635C9.80701 9.92134 10.7838 10.8982 11.9888 10.8982Z" fill="black"/>
</svg>
