<svg width="24" height="24" viewBox="0 0 24 24" fill="none" xmlns="http://www.w3.org/2000/svg">
<path d="M24 1.20107C24 0.567763 23.4216 0 22.7995 0C20.191 0 18.03 2.17288 18.03 2.17288L15.749 4.45498C15.5089 4.6952 15.1705 4.80436 14.8322 4.76068L3.36153 3.26478L0.480218 6.14742L9.15689 10.0782C9.49522 10.2311 9.58254 10.657 9.34243 10.93C8.56753 11.8035 7.49795 13.0919 6.46112 14.5878L1.60437 13.9545L0 15.5596L4.63847 17.656C4.60573 17.7216 4.57299 17.7871 4.54025 17.8526C4.16917 18.6388 4.90041 19.5559 5.69713 19.5559C5.84993 19.5559 5.99181 19.5232 6.14461 19.4577C6.2101 19.425 6.27558 19.3922 6.34106 19.3594L8.43656 24L10.0409 22.3949L9.40791 17.536C10.9031 16.5096 12.191 15.4286 13.0641 14.6533C13.337 14.4131 13.7626 14.5005 13.9154 14.839L17.8445 23.5196L20.7258 20.637L19.2306 9.16108C19.1869 8.82259 19.307 8.48407 19.5362 8.24385L21.8172 5.96181C21.8172 5.96181 23.9891 3.78893 23.9891 1.1902L24 1.20107ZM3.86357 4.78254L14.09 6.11463L10.8813 9.32483L2.92497 5.72156L3.86357 4.78254ZM19.2196 20.1456L18.281 21.0846L14.6794 13.1247L17.8881 9.9145L19.2196 20.1456ZM13.2169 12.5787C13.2169 12.5787 9.82265 15.9527 6.10096 17.8963C8.05457 14.1729 11.3834 10.8098 11.4161 10.7771L19.0123 3.17741C19.0123 3.17741 20.6821 1.55049 22.5593 1.41946C22.4284 3.29753 20.824 4.95722 20.8022 4.96814L13.1951 12.5787H13.2169Z" fill="black"/>
</svg>
