<svg width="24" height="24" viewBox="0 0 24 24" fill="none" xmlns="http://www.w3.org/2000/svg">
<path d="M11.2807 12.0035V20.8724C11.2807 21.7134 10.6812 22.4671 9.85286 22.5654C8.85014 22.6965 7.9891 21.9101 7.9891 20.9271C7.9891 20.8288 7.9891 20.7304 8.0109 20.6321C8.0654 20.3372 7.90191 20.0423 7.62943 19.9003C7.20436 19.6819 6.6812 19.933 6.6049 20.4136C6.57221 20.5884 6.56131 20.7632 6.56131 20.9271C6.56131 22.6746 8.0218 24.0835 9.78747 23.9961C11.4332 23.9088 12.6975 22.4889 12.6975 20.8396V12.0035C12.4687 11.9599 12.2289 11.9271 11.9891 11.9271C11.7493 11.9271 11.5095 11.9599 11.2807 12.0035Z" fill="black"/>
<path d="M12.1199 0.0109329C12.1199 0.0109329 12.0327 0 11.9891 0C11.9455 0 11.9128 0.0109329 11.8801 0.0109329C5.3079 0.0655442 0 5.41745 0 12.0254C1.01362 10.9659 2.41962 10.3105 4 10.3105C5.58038 10.3105 6.98638 10.9769 8 12.0254C9.01362 10.9659 10.4196 10.3105 12 10.3105C13.5804 10.3105 14.9864 10.9769 16 12.0254C17.0136 10.9659 18.4196 10.3105 20 10.3105C22.5504 10.3105 24 12.0254 24 12.0254C24 5.43929 18.703 0.0873993 12.1417 0.0218658L12.1199 0.0109329ZM1.78747 9.24018C2.77929 5.59215 5.67847 2.7087 9.3406 1.75847C8.14169 3.58248 7.42234 6.59704 7.24796 9.69896C6.25613 9.16377 5.15531 8.87979 4 8.87979C3.23706 8.87979 2.49591 8.99989 1.78747 9.24018ZM8.66485 9.74269C8.93733 4.95875 10.4959 1.51825 11.9346 1.41995C11.9564 1.41995 11.9782 1.41995 11.9891 1.41995C12.0109 1.41995 12.0436 1.41995 12.0654 1.41995C13.5041 1.52917 15.0627 4.96968 15.3243 9.75362C14.3106 9.18567 13.1771 8.87979 11.9782 8.87979C10.7793 8.87979 9.65668 9.18567 8.65395 9.75362L8.66485 9.74269ZM19.9782 8.87979C18.8338 8.87979 17.733 9.16376 16.7411 9.68803C16.5668 6.59703 15.8583 3.5934 14.6594 1.75847C18.3106 2.71962 21.1989 5.59215 22.1907 9.24018C21.5477 9.02173 20.8065 8.87979 19.9782 8.87979Z" fill="black"/>
</svg>
