<svg width="24" height="24" viewBox="0 0 24 24" fill="none" xmlns="http://www.w3.org/2000/svg">
<path d="M21.2727 5.28003H16.9091C16.6036 5.28003 16.3636 5.04003 16.3636 4.73458V2.0073C15 1.5273 13.5273 1.26543 12 1.26543C10.4727 1.26543 9 1.5273 7.63636 2.0073V4.73458C7.63636 5.04003 7.39636 5.28003 7.09091 5.28003H2.72727C1.22182 5.28003 0 6.50185 0 8.0073V20.0073C0 21.5128 1.22182 22.7346 2.72727 22.7346H21.2727C22.7782 22.7346 24 21.5128 24 20.0073V8.0073C24 6.50185 22.7782 5.28003 21.2727 5.28003ZM18.2182 6.69827V21.3163H5.78182V6.69827H18.2182ZM9.05455 3.05453C10.0145 2.80362 10.9964 2.68366 12 2.68366C13.0036 2.68366 13.9855 2.81453 14.9455 3.05453V4.73458C14.9455 5.04003 14.7055 5.28003 14.4 5.28003H9.6C9.29455 5.28003 9.05455 5.04003 9.05455 4.73458V3.05453ZM1.41818 20.0073V8.0073C1.41818 7.2873 2.00727 6.69827 2.72727 6.69827H4.36364V21.3163H2.72727C2.00727 21.3163 1.41818 20.7273 1.41818 20.0073ZM22.5818 20.0073C22.5818 20.7273 21.9927 21.3163 21.2727 21.3163H19.6364V6.69827H21.2727C21.9927 6.69827 22.5818 7.2873 22.5818 8.0073V20.0073Z" fill="black"/>
<path d="M9.24207 8.30746L7.82494 9.12565C7.30317 9.42689 7.12439 10.0941 7.42564 10.6159L9.60746 14.3949C9.90871 14.9166 10.5759 15.0954 11.0977 14.7942L12.5148 13.976C13.0366 13.6747 13.2153 13.0076 12.9141 12.4858L10.7323 8.70676C10.431 8.18499 9.76385 8.00622 9.24207 8.30746Z" fill="black"/>
</svg>
