<svg width="24" height="24" viewBox="0 0 24 24" fill="none" xmlns="http://www.w3.org/2000/svg">
<path d="M19.5619 2.01079C17.3349 0.735119 14.7511 0 11.9944 0C9.23762 0 6.65384 0.735119 4.42681 2.01079C3.08627 2.77836 2.26465 4.21623 2.26465 5.76218V18.5946C2.26465 19.8595 2.99978 20.9405 4.05924 21.4811L2.61059 24H4.2214L5.47546 21.8378C5.47546 21.8378 5.49708 21.8378 5.50789 21.8378H18.4809C18.4809 21.8378 18.5025 21.8378 18.5133 21.8378L19.7673 24H21.389L19.9403 21.4811C20.9998 20.9513 21.7349 19.8595 21.7349 18.5946V5.76218C21.7349 4.21623 20.9133 2.77836 19.5727 2.01079H19.5619ZM5.1187 3.23242C7.20519 2.04323 9.57275 1.40539 11.9944 1.40539C14.416 1.40539 16.7836 2.03242 18.87 3.23242C19.6268 3.66485 20.1241 4.43246 20.2646 5.29732H3.73492C3.87546 4.43246 4.36194 3.66485 5.12951 3.23242H5.1187ZM14.1565 7.24325V10.4865C14.1565 10.7892 13.9187 11.027 13.616 11.027H10.3728C10.07 11.027 9.83221 10.7892 9.83221 10.4865V7.24325C9.83221 6.94055 10.07 6.70271 10.3728 6.70271H13.616C13.9187 6.70271 14.1565 6.94055 14.1565 7.24325ZM4.21059 6.70271H7.88627C8.18897 6.70271 8.42681 6.94055 8.42681 7.24325V10.4865C8.42681 10.7892 8.18897 11.027 7.88627 11.027H4.21059C3.90789 11.027 3.67005 10.7892 3.67005 10.4865V7.24325C3.67005 6.94055 3.90789 6.70271 4.21059 6.70271ZM20.3187 18.5946C20.3187 19.6108 19.4971 20.4324 18.4809 20.4324H5.50789C4.49167 20.4324 3.67005 19.6108 3.67005 18.5946V12.4324H20.3187V18.5946ZM19.7782 11.027H16.1025C15.7998 11.027 15.5619 10.7892 15.5619 10.4865V7.24325C15.5619 6.94055 15.7998 6.70271 16.1025 6.70271H19.7782C20.0809 6.70271 20.3187 6.94055 20.3187 7.24325V10.4865C20.3187 10.7892 20.0809 11.027 19.7782 11.027Z" fill="black"/>
<path d="M6.85924 17.5135C7.60557 17.5135 8.21059 16.9085 8.21059 16.1622C8.21059 15.4158 7.60557 14.8108 6.85924 14.8108C6.11291 14.8108 5.50789 15.4158 5.50789 16.1622C5.50789 16.9085 6.11291 17.5135 6.85924 17.5135Z" fill="black"/>
<path d="M17.1295 17.5135C17.8758 17.5135 18.4809 16.9085 18.4809 16.1622C18.4809 15.4158 17.8758 14.8108 17.1295 14.8108C16.3832 14.8108 15.7782 15.4158 15.7782 16.1622C15.7782 16.9085 16.3832 17.5135 17.1295 17.5135Z" fill="black"/>
</svg>
