<svg width="24" height="24" viewBox="0 0 24 24" fill="none" xmlns="http://www.w3.org/2000/svg">
<path d="M19.0907 0H4.90891C3.40346 0 2.18164 1.22182 2.18164 2.72727V4.90909C2.18164 6.41455 3.40346 7.63636 4.90891 7.63636H6.54528V6.21813H4.90891C4.18891 6.21813 3.59982 5.62909 3.59982 4.90909V2.72727C3.59982 2.00727 4.18891 1.41824 4.90891 1.41824H19.0907C19.8107 1.41824 20.3998 2.00727 20.3998 2.72727V4.90909C20.3998 5.62909 19.8107 6.21813 19.0907 6.21813H14.7271V7.63636H19.0907C20.5962 7.63636 21.818 6.41455 21.818 4.90909V2.72727C21.818 1.22182 20.5962 0 19.0907 0Z" fill="black"/>
<path d="M17.8253 11.3455L12.7089 9.42547V4.87633C12.7089 3.65451 11.7162 2.67267 10.5053 2.67267C9.29437 2.67267 8.30164 3.66542 8.30164 4.87633V14.5309L7.98528 14.2146C6.71982 12.9382 4.72346 12.6873 3.53437 13.6364C2.79255 14.2255 2.91255 15.1963 3.38164 15.8945L9.95982 24H18.8616L19.0253 23.5201C20.0507 20.5637 20.4653 17.0182 20.4216 14.9891C20.3889 13.3527 19.3744 11.9237 17.8362 11.3455H17.8253ZM17.8253 22.5818H10.6144L4.50528 15.0655C4.43982 14.9673 4.38528 14.7927 4.39619 14.7491C4.99619 14.2691 6.218 14.4872 6.95982 15.229L9.698 18.0872V4.89817C9.698 4.46181 10.058 4.10183 10.4944 4.10183C10.9307 4.10183 11.2907 4.46181 11.2907 4.89817V10.4292L17.3235 12.6873C18.3053 13.0582 18.9598 13.9746 18.9925 15.0328C19.0362 16.8873 18.6435 20.0072 17.8362 22.5927L17.8253 22.5818Z" fill="black"/>
</svg>
