<svg width="24" height="24" viewBox="0 0 24 24" fill="none" xmlns="http://www.w3.org/2000/svg">
<path d="M20.4 1.18799H3.6C1.608 1.18799 0 2.79599 0 4.78799V15.588C0 17.58 1.608 19.188 3.6 19.188H18.816C19.788 19.188 20.7 19.584 21.384 20.268C22.236 21.132 23.112 21.972 24 22.812V4.78799C24 2.79599 22.392 1.18799 20.4 1.18799ZM22.44 19.1159C21.456 18.1559 20.172 17.6279 18.816 17.6279H3.6C2.472 17.6279 1.56 16.716 1.56 15.588V4.78799C1.56 3.65999 2.472 2.74805 3.6 2.74805H20.4C21.528 2.74805 22.44 3.65999 22.44 4.78799V19.1159Z" fill="black"/>
<path d="M15.084 13.356C14.856 13.512 14.568 13.5839 14.196 13.5839C13.98 13.5839 13.8 13.56 13.632 13.524C13.464 13.488 13.26 13.428 13.008 13.356C12.768 13.284 12.564 13.224 12.384 13.188C12.216 13.152 12.012 13.1279 11.796 13.1279C11.58 13.1279 11.388 13.152 11.208 13.2C11.436 12.924 11.604 12.624 11.712 12.324C11.82 12.012 11.868 11.664 11.868 11.268C11.868 11.052 11.844 10.824 11.796 10.608H14.364V9.93604H11.604C11.46 9.56404 11.352 9.26402 11.292 9.02402C11.22 8.79602 11.196 8.53199 11.196 8.24399C11.196 7.78799 11.352 7.41594 11.676 7.13994C11.988 6.86394 12.42 6.71997 12.96 6.71997C13.392 6.71997 13.812 6.81597 14.232 7.01997C14.652 7.22397 14.976 7.48801 15.216 7.81201V5.66397C14.904 5.41196 14.508 5.21998 14.052 5.07598C13.596 4.93198 13.104 4.87192 12.588 4.87192C11.88 4.87192 11.244 5.00401 10.704 5.25601C10.164 5.50801 9.732 5.88005 9.432 6.34805C9.132 6.81605 8.976 7.34399 8.976 7.94399C8.976 8.25599 9.012 8.56802 9.072 8.86802C9.132 9.16802 9.228 9.52802 9.348 9.92402H8.544V10.5959H9.54C9.648 11.0399 9.696 11.412 9.696 11.7C9.696 12.324 9.588 12.8999 9.372 13.4159C9.156 13.9319 8.748 14.5919 8.16 15.3839C8.496 15.2279 8.82 15.12 9.12 15.048C9.42 14.976 9.78 14.952 10.176 14.952C10.428 14.952 10.656 14.964 10.872 15C11.088 15.036 11.364 15.084 11.7 15.156C12.108 15.228 12.42 15.288 12.66 15.324C12.9 15.36 13.176 15.3719 13.476 15.3719C14.232 15.3719 14.784 15.156 15.144 14.724C15.492 14.292 15.672 13.6081 15.672 12.6601C15.516 12.9601 15.324 13.188 15.108 13.332L15.084 13.356Z" fill="black"/>
</svg>
