<svg width="24" height="24" viewBox="0 0 24 24" fill="none" xmlns="http://www.w3.org/2000/svg">
<path d="M12 0C5.36727 0 0 5.36727 0 12C0 18.6327 5.36727 24 12 24C18.6327 24 24 18.6327 24 12C24 5.36727 18.6327 0 12 0ZM12 22.5818C6.16364 22.5818 1.41818 17.8364 1.41818 12C1.41818 6.16364 6.16364 1.41817 12 1.41817C17.8364 1.41817 22.5818 6.16364 22.5818 12C22.5818 17.8364 17.8364 22.5818 12 22.5818Z" fill="black"/>
<path d="M18.5018 13.9855L16.4073 12.8509C15.8509 12.5455 15.1527 12.6546 14.7055 13.1018L14.0509 13.7564C13.2764 13.2436 12.5673 12.6764 11.9455 12.0545C11.3236 11.4327 10.7564 10.7236 10.2436 9.94909L10.8982 9.29457C11.3455 8.8473 11.4436 8.14912 11.1491 7.59275L10.0145 5.49816C9.68728 4.89816 9 4.61452 8.33455 4.81088C7.71273 4.98543 7.10182 5.20364 6.52364 5.45455C5.04 6.08728 4.35273 7.74548 4.94182 9.22912C5.82546 11.4546 7.14546 13.4509 8.83636 15.1527C10.5382 16.8546 12.5236 18.1636 14.76 19.0582C15.12 19.2 15.4909 19.2654 15.8509 19.2654C16.9855 19.2654 18.0546 18.6 18.5345 17.4764C18.7855 16.8982 18.9927 16.2873 19.1782 15.6654C19.3636 15 19.08 14.3127 18.4909 13.9855H18.5018ZM17.2473 16.9091C16.92 17.6727 16.0691 18.0327 15.2945 17.7273C13.2436 16.9091 11.4109 15.6982 9.85091 14.1382C8.29091 12.5782 7.08 10.7454 6.26182 8.69452C5.95637 7.93088 6.31637 7.06909 7.08 6.74181C7.60364 6.51272 8.16 6.31639 8.76 6.16367L9.89455 8.28003L8.45455 9.71997L8.73818 10.2C9.37091 11.2582 10.1127 12.2182 10.9418 13.0473C11.76 13.8655 12.72 14.6073 13.7891 15.2509L14.2582 15.5345L15.7309 14.0836L17.8255 15.2509C17.6618 15.8182 17.4655 16.3745 17.2473 16.8982V16.9091Z" fill="black"/>
</svg>
