<svg width="24" height="24" viewBox="0 0 24 24" fill="none" xmlns="http://www.w3.org/2000/svg">
<path d="M12 0C5.36727 0 0 5.36727 0 12C0 18.6327 5.36727 24 12 24C18.6327 24 24 18.6327 24 12C24 5.36727 18.6327 0 12 0ZM12 19.1891C11.2691 19.1891 10.68 18.6 10.68 17.8691C10.68 17.1382 11.2691 16.5491 12 16.5491C12.7309 16.5491 13.32 17.1382 13.32 17.8691C13.32 18.6 12.7309 19.1891 12 19.1891ZM16.5273 9.22912C16.2327 10.5055 15.4036 11.4873 13.9964 12.2182C13.4291 12.5127 13.0691 13.0691 13.0691 13.6691V14.5745H10.8873V13.6691C10.8873 12.2619 11.6945 10.9636 12.9818 10.2873C13.8109 9.8509 14.2473 9.38183 14.3891 8.73819C14.4545 8.46547 14.4655 7.86545 14.1055 7.36364C13.7891 6.91636 13.2327 6.64366 12.4582 6.56729C10.32 6.34911 9.56727 8.05091 9.49091 8.24727L7.45091 7.46185C7.90909 6.26185 9.57818 4.06912 12.6764 4.3964C14.4436 4.58185 15.3927 5.42185 15.8727 6.09821C16.6255 7.15639 16.7018 8.41093 16.5055 9.22912H16.5273Z" fill="black"/>
</svg>
