<svg width="24" height="24" viewBox="0 0 24 24" fill="none" xmlns="http://www.w3.org/2000/svg">
<path d="M19.9402 8.39395C20.6802 8.39395 21.3802 8.73395 21.8502 9.31395C22.3102 9.87395 22.4802 10.6039 22.3302 11.3139C21.6702 14.3539 20.3902 17.2439 18.7402 19.4739C18.0402 20.4239 16.8402 21.0039 15.5502 21.0339H15.4702C14.0702 21.0339 10.5102 20.2739 8.49023 19.8139C8.16023 19.7339 7.82023 19.6939 7.49023 19.6939V18.3939C7.93023 18.4039 8.36023 18.4439 8.78023 18.5439C12.1402 19.3139 14.6302 19.7339 15.5202 19.7339C16.4202 19.7139 17.2302 19.3239 17.7002 18.6939C19.2402 16.6139 20.4402 13.8939 21.0602 11.0339C21.1302 10.7139 21.0502 10.3839 20.8402 10.1239C20.6202 9.85395 20.2902 9.69395 19.9402 9.69395H13.1102L14.2302 6.19395C14.5802 5.11395 14.5802 3.71395 13.4602 3.33395C13.2502 3.26395 13.1002 3.32395 13.0302 3.51395C11.0702 8.52395 8.01023 11.6539 7.88023 11.7839L7.50023 12.1639V10.2639C8.45023 9.15395 10.4302 6.57395 11.8102 3.06395C12.0402 2.46395 12.7802 1.72395 13.8802 2.10395C15.5202 2.66395 16.1602 4.46395 15.4702 6.59395L14.8902 8.39395H19.9402Z" fill="black"/>
<path d="M5 21.694H2C1.45 21.694 1 21.244 1 20.694V10.694H6V20.694C6 21.244 5.55 21.694 5 21.694Z" fill="black"/>
</svg>
