<svg width="24" height="24" viewBox="0 0 24 24" fill="none" xmlns="http://www.w3.org/2000/svg">
<path d="M20.25 14.7849C18.18 14.7849 16.5 16.4649 16.5 18.5349C16.5 20.6049 18.18 22.2849 20.25 22.2849C22.32 22.2849 24 20.6049 24 18.5349C24 16.4649 22.32 14.7849 20.25 14.7849ZM20.25 20.1449C19.36 20.1449 18.64 19.4249 18.64 18.5349C18.64 17.6449 19.36 16.9249 20.25 16.9249C21.14 16.9249 21.86 17.6449 21.86 18.5349C21.86 19.4249 21.14 20.1449 20.25 20.1449Z" fill="black"/>
<path d="M5.88002 14.5549C4.86002 14.5549 4.03002 15.3849 4.03002 16.4049C4.03002 17.4249 4.86002 18.2549 5.88002 18.2549C6.90002 18.2549 7.73002 17.4249 7.73002 16.4049C7.73002 15.3849 6.90002 14.5549 5.88002 14.5549Z" fill="black"/>
<path d="M5.88002 10.5349C2.64002 10.5349 1.52588e-05 13.1649 1.52588e-05 16.4149C1.52588e-05 19.6649 2.63002 22.2949 5.88002 22.2949C9.13002 22.2949 11.76 19.6649 11.76 16.4149C11.76 13.1649 9.13002 10.5349 5.88002 10.5349ZM5.88002 19.7649C4.03002 19.7649 2.53002 18.2649 2.53002 16.4149C2.53002 14.5649 4.03002 13.0649 5.88002 13.0649C7.73002 13.0649 9.23001 14.5649 9.23001 16.4149C9.23001 18.2649 7.73002 19.7649 5.88002 19.7649Z" fill="black"/>
<path d="M20.25 13.2849C20.92 13.2849 21.56 13.4249 22.14 13.6549C22.28 13.7149 22.43 13.5949 22.41 13.4449C22.18 11.8049 21.75 10.4349 21.51 9.77485C21.41 9.49485 21.2 9.28485 20.92 9.18485C20.1 8.88485 18.13 8.26485 15.11 7.90485L14.02 3.44485L14.25 2.94485C9.77002 1.26485 3.86002 1.72485 2.36002 1.88485C2.16002 1.90485 2.00002 2.07485 2.00002 2.28485V3.89485C2.00002 4.11485 2.18002 4.29485 2.40002 4.29485H3.22002L2.76002 8.35485C2.53002 8.44485 2.31002 8.53485 2.10002 8.64485C1.96002 8.71485 1.88002 8.85485 1.88002 9.00485V9.90485C1.88002 10.0549 2.05002 10.1549 2.18002 10.0749C3.27002 9.43485 4.53002 9.06485 5.88002 9.06485C9.73001 9.06485 12.89 12.0449 13.2 15.8149V16.3849C13.2 16.6049 13.38 16.7749 13.59 16.7749H15.06C15.22 16.7749 15.36 16.6749 15.43 16.5249C16.22 14.6349 18.08 13.2849 20.26 13.2849H20.25ZM8.70002 8.24485C7.81002 7.93485 6.87002 7.76485 5.88002 7.76485C5.27002 7.76485 4.69002 7.84485 4.12002 7.96485L4.53002 4.29485H8.70002V8.25485V8.24485ZM14 11.2849H12.83C12.08 10.2649 11.12 9.41485 10 8.80485V4.28485H12.9L14 8.79485V11.2849Z" fill="black"/>
</svg>
