<svg width="24" height="24" viewBox="0 0 24 24" fill="none" xmlns="http://www.w3.org/2000/svg">
<path d="M17.85 12.7258L12.7094 10.794C12.2838 10.6303 12 10.2265 12 9.76809V4.63847C12 3.8854 11.3888 3.27422 10.6358 3.27422C9.88269 3.27422 9.27151 3.8854 9.27151 4.63847V15.9127C9.27151 16.3056 8.8022 16.4911 8.52935 16.2183L7.74354 15.4325C6.7831 14.4721 5.16782 14.1555 4.24012 14.8977C3.67259 15.3561 4.19647 16.1528 4.19647 16.1528L10.5703 24H18.9741C19.8909 20.7149 20.0328 17.6808 19.9891 15.7272C19.9564 14.3847 19.1269 13.1951 17.8609 12.7149L17.85 12.7258Z" fill="black"/>
<path d="M19.0942 0H4.90588C3.39974 0 2.17737 1.22237 2.17737 2.72851V4.91133C2.17737 6.41747 3.39974 7.63984 4.90588 7.63984H7.6344V6.22103H4.90588C4.18555 6.22103 3.5962 5.63165 3.5962 4.91133V2.72851C3.5962 2.00819 4.18555 1.41881 4.90588 1.41881H19.0942C19.8145 1.41881 20.4038 2.00819 20.4038 2.72851V4.91133C20.4038 5.63165 19.8145 6.22103 19.0942 6.22103H13.6371V7.63984H19.0942C20.6003 7.63984 21.8227 6.41747 21.8227 4.91133V2.72851C21.8227 1.22237 20.6003 0 19.0942 0Z" fill="black"/>
</svg>
