<svg width="24" height="24" viewBox="0 0 24 24" fill="none" xmlns="http://www.w3.org/2000/svg">
<path d="M17.7256 4.77137C17.2008 4.77137 16.7475 4.43736 16.5924 3.93637L15.8887 1.68188C15.5785 0.679889 14.66 0 13.6103 0H10.4016C9.35189 0 8.4334 0.679889 8.12326 1.68188L7.41948 3.93637C7.26441 4.43736 6.7992 4.77137 6.28628 4.77137H0.846916C0.417492 4.77137 0.0715675 5.11733 0.0715675 5.54675C0.0715675 5.97617 0.417492 6.32205 0.846916 6.32205H2.40954L4.31809 21.9006C4.46123 23.0934 5.47515 24 6.69185 24H17.3082C18.5129 24 19.5268 23.1054 19.6819 21.9006L21.5905 6.32205H23.1531C23.5825 6.32205 23.9284 5.97617 23.9284 5.54675C23.9284 5.11733 23.5825 4.77137 23.1531 4.77137H17.7256ZM7.55069 21.4712C7.08549 21.4712 6.70378 21.1133 6.65606 20.6481L5.60636 8.3499H7.40755L8.44533 20.505C8.49304 21.0298 8.07555 21.4712 7.55069 21.4712ZM12.8946 20.5765C12.8946 21.0656 12.4891 21.4712 12 21.4712C11.5109 21.4712 11.1054 21.0656 11.1054 20.5765V8.3499H12.8946V20.5765ZM9.75745 4.77137C9.28032 4.77137 8.93439 4.30613 9.07753 3.84092L9.61431 2.13516C9.72167 1.78924 10.0437 1.55068 10.4135 1.55068H13.6223C13.992 1.55068 14.3141 1.78924 14.4215 2.13516L14.9583 3.84092C15.1014 4.30613 14.7555 4.77137 14.2783 4.77137H9.75745ZM17.3439 20.6481C17.3082 21.1133 16.9145 21.4712 16.4493 21.4712C15.9245 21.4712 15.5189 21.0179 15.5547 20.505L16.5924 8.3499H18.3936L17.3439 20.6481Z" fill="black"/>
</svg>
