<svg width="24" height="24" viewBox="0 0 24 24" fill="none" xmlns="http://www.w3.org/2000/svg">
<path d="M19.6364 0H4.36364C3.16364 0 2.18182 0.981818 2.18182 2.18182V21.8182C2.18182 23.0182 3.16364 24 4.36364 24H19.6364C20.8364 24 21.8182 23.0182 21.8182 21.8182V2.18182C21.8182 0.981818 20.8364 0 19.6364 0ZM6 20.7273C5.4 20.7273 4.90909 20.2364 4.90909 19.6364C4.90909 19.0364 5.4 18.5455 6 18.5455C6.6 18.5455 7.09091 19.0364 7.09091 19.6364C7.09091 20.2364 6.6 20.7273 6 20.7273ZM6 16.3636C5.4 16.3636 4.90909 15.8727 4.90909 15.2727C4.90909 14.6727 5.4 14.1818 6 14.1818C6.6 14.1818 7.09091 14.6727 7.09091 15.2727C7.09091 15.8727 6.6 16.3636 6 16.3636ZM6 12C5.4 12 4.90909 11.5091 4.90909 10.9091C4.90909 10.3091 5.4 9.81818 6 9.81818C6.6 9.81818 7.09091 10.3091 7.09091 10.9091C7.09091 11.5091 6.6 12 6 12ZM10.0036 20.7273C9.40364 20.7273 8.91273 20.2364 8.91273 19.6364C8.91273 19.0364 9.40364 18.5455 10.0036 18.5455C10.6036 18.5455 11.0945 19.0364 11.0945 19.6364C11.0945 20.2364 10.6036 20.7273 10.0036 20.7273ZM10.0036 16.3636C9.40364 16.3636 8.91273 15.8727 8.91273 15.2727C8.91273 14.6727 9.40364 14.1818 10.0036 14.1818C10.6036 14.1818 11.0945 14.6727 11.0945 15.2727C11.0945 15.8727 10.6036 16.3636 10.0036 16.3636ZM10.0036 12C9.40364 12 8.91273 11.5091 8.91273 10.9091C8.91273 10.3091 9.40364 9.81818 10.0036 9.81818C10.6036 9.81818 11.0945 10.3091 11.0945 10.9091C11.0945 11.5091 10.6036 12 10.0036 12ZM13.9964 20.7273C13.3964 20.7273 12.9055 20.2364 12.9055 19.6364C12.9055 19.0364 13.3964 18.5455 13.9964 18.5455C14.5964 18.5455 15.0873 19.0364 15.0873 19.6364C15.0873 20.2364 14.5964 20.7273 13.9964 20.7273ZM13.9964 16.3636C13.3964 16.3636 12.9055 15.8727 12.9055 15.2727C12.9055 14.6727 13.3964 14.1818 13.9964 14.1818C14.5964 14.1818 15.0873 14.6727 15.0873 15.2727C15.0873 15.8727 14.5964 16.3636 13.9964 16.3636ZM13.9964 12C13.3964 12 12.9055 11.5091 12.9055 10.9091C12.9055 10.3091 13.3964 9.81818 13.9964 9.81818C14.5964 9.81818 15.0873 10.3091 15.0873 10.9091C15.0873 11.5091 14.5964 12 13.9964 12ZM19.0909 19.6364C19.0909 20.2364 18.6 20.7273 18 20.7273C17.4 20.7273 16.9091 20.2364 16.9091 19.6364V15.2727C16.9091 14.6727 17.4 14.1818 18 14.1818C18.6 14.1818 19.0909 14.6727 19.0909 15.2727V19.6364ZM18 12C17.4 12 16.9091 11.5091 16.9091 10.9091C16.9091 10.3091 17.4 9.81818 18 9.81818C18.6 9.81818 19.0909 10.3091 19.0909 10.9091C19.0909 11.5091 18.6 12 18 12ZM19.6364 6.54545H4.36364V3.27273H19.6364V6.54545Z" fill="black"/>
</svg>
