<svg width="24" height="24" viewBox="0 0 24 24" fill="none" xmlns="http://www.w3.org/2000/svg">
<path d="M20.7528 8.55888L20.7028 8.43884C20.0926 6.57825 19.4024 4.93774 18.9122 3.8874C18.5421 3.07714 17.7618 2.52694 16.8716 2.42691C15.3011 2.24685 13.6705 2.13684 11.99 2.13684C10.3095 2.13684 8.67894 2.23685 7.10844 2.42691C6.21815 2.52694 5.44791 3.07714 5.06778 3.8874C4.57763 4.94774 3.8774 6.57825 3.27721 8.43884L3.2272 8.55888C2.9271 8.79895 2.03681 9.48919 1.34659 10.9497C1.09651 11.4698 0.976476 12.06 0.976476 12.6302V20.8628C0.976476 21.413 1.42662 21.8631 1.9768 21.8631H3.97744C4.52761 21.8631 4.97776 21.413 4.97776 20.8628V18.8622H18.9822V20.8628C18.9822 21.413 19.4324 21.8631 19.9826 21.8631H21.9832C22.5334 21.8631 22.9835 21.413 22.9835 20.8628V12.6302C22.9835 12.05 22.8635 11.4698 22.6134 10.9497C21.9232 9.47919 21.0429 8.79895 20.7328 8.55888H20.7528ZM6.43822 4.50759C6.58827 4.17749 6.90837 3.95738 7.2885 3.90737C8.84899 3.72731 10.4295 3.62731 11.99 3.62731C13.5505 3.62731 15.131 3.7173 16.6915 3.90737C17.0716 3.94738 17.3917 4.17749 17.5418 4.50759C17.8919 5.25783 18.352 6.32817 18.8022 7.56857C18.9322 7.91868 18.6521 8.27878 18.282 8.23877C16.2414 8.00869 14.1407 7.87867 11.99 7.87867C9.83931 7.87867 7.72864 8.00869 5.69799 8.23877C5.32787 8.27878 5.04778 7.91868 5.17782 7.56857C5.62796 6.32817 6.08811 5.25783 6.43822 4.50759ZM5.64797 12.6802C4.89773 13.5805 3.72736 13.8406 3.03713 13.2604C2.33691 12.6802 2.38693 11.4798 3.13717 10.5795C3.88741 9.67925 5.05778 9.41916 5.748 9.99934C6.44823 10.5795 6.39821 11.7799 5.64797 12.6802ZM15.4911 15.8712H8.48888C7.65861 15.8712 6.9884 15.201 6.9884 14.3707H16.9916C16.9916 15.201 16.3214 15.8712 15.4911 15.8712ZM20.9529 13.2504C20.2526 13.8306 19.0823 13.5705 18.342 12.6702C17.5918 11.7699 17.5518 10.5695 18.242 9.98933C18.9422 9.40914 20.1126 9.66924 20.8528 10.5695C21.6031 11.4698 21.6431 12.6702 20.9529 13.2504Z" fill="black"/>
<path d="M2.08683 8.09872C2.86708 7.83864 2.84707 6.9584 2.84707 6.9584C2.84707 6.23817 2.21687 5.50794 1.03649 5.89807C-0.143883 6.28819 0.00616523 7.05841 0.00616523 7.05841C0.00616523 7.80865 1.31658 8.34879 2.09683 8.08871L2.08683 8.09872Z" fill="black"/>
<path d="M22.9535 5.89807C21.7731 5.50794 21.1429 6.23817 21.1429 6.9584C21.1429 6.9584 21.1129 7.83864 21.9032 8.09872C22.6934 8.3588 23.9938 7.81866 23.9938 7.06842C23.9938 7.06842 24.1439 6.28814 22.9635 5.90802L22.9535 5.89807Z" fill="black"/>
</svg>
