<svg width="24" height="24" viewBox="0 0 24 24" fill="none" xmlns="http://www.w3.org/2000/svg">
<path d="M20.7273 16.0363H14.1818V17.4545H20.7273V16.0363Z" fill="black"/>
<path d="M21.8182 3.27271H2.18182C0.981818 3.27271 0 4.25452 0 5.45452V18.5454C0 19.7454 0.981818 20.7273 2.18182 20.7273H21.8182C23.0182 20.7273 24 19.7454 24 18.5454V5.45452C24 4.25452 23.0182 3.27271 21.8182 3.27271ZM7.09091 12C7.09091 12.3054 6.85091 12.5454 6.54545 12.5454H3.81818C3.51273 12.5454 3.27273 12.3054 3.27273 12V10.3636C3.27273 10.0691 3.51273 9.81816 3.81818 9.81816H6.54545C6.85091 9.81816 7.09091 10.0691 7.09091 10.3636V12ZM21.8182 19.0909H8.50909C9.34909 17.1818 11.2909 13.2108 13.9309 10.5817C14.2582 10.2545 14.64 10.0036 15.0545 9.79632C16.2109 9.22905 18.8727 8.10537 22.3636 7.43992V18.5564C22.3636 18.8509 22.1127 19.1018 21.8182 19.1018V19.0909Z" fill="black"/>
</svg>
