<svg width="24" height="24" viewBox="0 0 24 24" fill="none" xmlns="http://www.w3.org/2000/svg">
<path d="M17 9H2C0.9 9 0 9.9 0 11V21C0 22.1 0.9 23 2 23H17C18.1 23 19 22.1 19 21V11C19 9.9 18.1 9 17 9ZM17.7 21C17.7 21.38 17.38 21.7 17 21.7H2C1.62 21.7 1.3 21.38 1.3 21V11C1.3 10.62 1.62 10.3 2 10.3H17C17.38 10.3 17.7 10.62 17.7 11V21Z" fill="black"/>
<path d="M6 13H3.5C3.22386 13 3 13.2239 3 13.5V15C3 15.2761 3.22386 15.5 3.5 15.5H6C6.27614 15.5 6.5 15.2761 6.5 15V13.5C6.5 13.2239 6.27614 13 6 13Z" fill="black"/>
<path d="M16 18.7H10V20H16V18.7Z" fill="black"/>
<path d="M22 1H8C6.9 1 6 1.9 6 3V7.5H9V5.5C9 5.23 9.23 5 9.5 5H12C12.27 5 12.5 5.23 12.5 5.5V7.5H18C19.38 7.5 20.5 8.62 20.5 10V14H22C23.1 14 24 13.1 24 12V3C24 1.9 23.1 1 22 1Z" fill="black"/>
</svg>
