<svg width="24" height="24" viewBox="0 0 24 24" fill="none" xmlns="http://www.w3.org/2000/svg">
<path d="M6.03742 8.15731C7.91351 8.15731 9.72973 7.78811 11.4462 7.06961C13.5318 6.19144 15.7372 5.7423 18.0125 5.7423C19.3696 5.7423 20.7069 5.92192 22.0042 6.24126V4.39513C21.605 4.27538 21.2058 4.18552 20.7967 4.10569C20.6071 4.06577 20.4075 4.03586 20.2079 4.00592C20.0782 3.98596 19.9484 3.95608 19.8187 3.93612V0.772669L19.19 0.752691C17.7031 0.702795 16.2162 0.872441 14.7692 1.25165C12.7834 1.78055 10.9572 2.66874 9.35052 3.91614C7.8736 5.05377 6.20707 5.87202 4.39085 6.361C2.94387 6.74021 1.46694 6.87997 0 6.79016L0.648649 7.05962C2.36507 7.77812 4.18129 8.14732 6.05738 8.14732L6.03742 8.15731Z" fill="black"/>
<path d="M18.0125 7.23919C15.8869 7.23919 13.8611 7.66837 12.0249 8.44675C10.1888 9.22513 8.16299 9.6542 6.03742 9.6542C3.91185 9.6542 1.88607 9.22513 0.0498961 8.44675V22.0483C1.88607 22.8267 3.91185 23.2559 6.03742 23.2559C8.16299 23.2559 10.1888 22.8267 12.0249 22.0483C13.8611 21.2699 15.8869 20.8409 18.0125 20.8409C20.138 20.8409 22.1638 21.2699 24 22.0483V8.44675C22.1638 7.66837 20.138 7.23919 18.0125 7.23919ZM22.7027 20.2122C21.1859 19.7731 19.6191 19.5436 18.0125 19.5436C15.7672 19.5436 13.5817 19.9827 11.516 20.8508C9.77963 21.5793 7.93347 21.9585 6.03742 21.9585C4.42079 21.9585 2.84408 21.6892 1.34719 21.1603V10.2829C2.86403 10.722 4.43077 10.9514 6.03742 10.9514C8.28275 10.9514 10.4682 10.5124 12.5339 9.64421C14.2703 8.91573 16.1164 8.53653 18.0125 8.53653C19.6291 8.53653 21.1958 8.8059 22.7027 9.33479V20.2122Z" fill="black"/>
<path d="M14.2403 14.0551C14.2403 16.2605 15.6973 18.0467 17.4836 18.0467C19.2699 18.0467 20.7268 16.2605 20.7268 14.0551C20.7268 11.8497 19.2798 10.0634 17.4836 10.0634C15.6873 10.0634 14.2403 11.8497 14.2403 14.0551ZM19.4295 14.0551C19.4295 15.512 18.5414 16.7494 17.4836 16.7494C16.4258 16.7494 15.5376 15.512 15.5376 14.0551C15.5376 12.5981 16.4258 11.3606 17.4836 11.3606C18.5414 11.3606 19.4295 12.5981 19.4295 14.0551Z" fill="black"/>
<path d="M3.04366 12.3087V13.6359C4.02162 13.8255 5.01954 13.9253 6.03742 13.9253C7.0553 13.9253 8.05322 13.8255 9.03119 13.6359V12.3087C7.06528 12.7079 5.00956 12.7079 3.04366 12.3087Z" fill="black"/>
<path d="M4.54054 20.3619C5.36725 20.3619 6.03742 19.6917 6.03742 18.865C6.03742 18.0383 5.36725 17.3681 4.54054 17.3681C3.71384 17.3681 3.04366 18.0383 3.04366 18.865C3.04366 19.6917 3.71384 20.3619 4.54054 20.3619Z" fill="black"/>
</svg>
