<svg width="24" height="24" viewBox="0 0 24 24" fill="none" xmlns="http://www.w3.org/2000/svg">
<path d="M22.1508 15.1399C20.7214 15.1399 19.342 15.6499 18.2624 16.5699L15.4536 18.9699C15.1037 19.2299 14.6839 19.3799 14.2441 19.3799H12.055C11.6851 19.3799 11.3453 19.1699 11.1753 18.8499L10.3457 17.2699C10.0858 16.7699 10.2857 16.1599 10.7855 15.9099L13.5443 14.5499C15.1137 13.6699 15.2636 12.6199 14.9438 11.8499C14.8238 11.5699 14.6439 11.4699 14.404 11.4699C14.2541 11.4699 14.0942 11.5099 13.9042 11.5599L5.11786 14.0699C4.21824 14.3299 3.41861 14.8399 2.78888 15.5399L0 18.6499L7.62939e-06 24L13.3544 23.9999C14.444 23.9999 15.4935 23.5499 16.2532 22.7599L22.6306 16.3099C23.0604 15.8799 22.7505 15.1499 22.1408 15.1499L22.1508 15.1399Z" fill="black"/>
<path d="M7.99618 11.6899C6.92662 10.2699 6.12697 8.62989 6.07699 6.83989C6.07699 5.07989 7.47641 3.64989 9.19569 3.64989C10.0353 3.64989 11.8346 4.09989 13.274 6.81989C14.7134 4.09989 16.5126 3.64989 17.3523 3.64989C19.0715 3.64989 20.471 5.07989 20.471 6.83989C20.471 10.1699 17.8221 13.0099 15.623 14.7899C14.0237 16.1099 11.8946 17.0099 11.8946 17.0099C12.7642 17.5999 13.3539 17.7999 13.3539 17.7999C13.3539 17.7999 21.7605 13.3499 21.7605 6.82989C21.7605 4.35989 19.7713 2.33989 17.3423 2.33989C15.5231 2.33989 14.1236 3.20989 13.264 4.50989C12.4044 3.19989 11.0049 2.33989 9.18568 2.33989C6.7567 2.33989 4.76754 4.36989 4.76754 6.82989C4.81752 8.76989 5.60717 10.5299 6.67672 12.0499L7.98617 11.6799L7.99618 11.6899Z" fill="black"/>
</svg>
