<svg width="24" height="24" viewBox="0 0 24 24" fill="none" xmlns="http://www.w3.org/2000/svg">
<path d="M17.99 7.50749V5.51082C17.99 4.13311 16.8719 3.01498 15.4942 3.01498H5.33112C4.52247 3.01498 3.76374 2.68552 3.19468 2.11647C2.48586 1.39767 1.75708 0.698835 1.01831 0V7.50749C1.01831 8.88519 2.13645 10.0033 3.51415 10.0033H15.4942C16.8719 10.0033 17.99 8.88519 17.99 7.50749ZM2.31615 7.50749V3.07487C3.13478 3.87354 4.203 4.31282 5.33112 4.31282H15.4942C16.1531 4.31282 16.6922 4.85191 16.6922 5.51082V7.50749C16.6922 8.16639 16.1531 8.70549 15.4942 8.70549H3.51415C2.85525 8.70549 2.31615 8.16639 2.31615 7.50749Z" fill="black"/>
<path d="M19.9867 12H9.005C7.34776 12 6.00999 13.3378 6.00999 14.995V17.99C6.00999 19.6473 7.34776 20.985 9.005 20.985H18.6689C19.4775 20.985 20.2363 21.3145 20.8053 21.8835C21.5142 22.6023 22.2429 23.3012 22.9817 24V14.995C22.9817 13.3378 21.6439 12 19.9867 12ZM19.9867 17.4909H9.005V15.9933H19.9867V17.4909Z" fill="black"/>
</svg>
