<svg width="24" height="24" viewBox="0 0 24 24" fill="none" xmlns="http://www.w3.org/2000/svg">
<path d="M2.84152 18.6448V19.6469C2.84152 22.0479 6.57868 24 11.1927 24C15.8068 24 19.5439 22.0479 19.5439 19.6469V18.6448C17.8006 20.1793 14.7524 21.1815 11.1927 21.1815C7.63302 21.1815 4.58483 20.1793 2.84152 18.6448Z" fill="black"/>
<path d="M18.8341 11.6089C18.4791 11.8908 18.1138 12.1622 17.7275 12.4232C18.0198 12.7468 18.1868 13.0704 18.1868 13.3627C18.1868 14.5841 15.4623 16.3587 11.1927 16.3587C6.92317 16.3587 4.19859 14.5841 4.19859 13.3627C4.19859 12.9765 4.48044 12.5275 4.99195 12.0995L4.30298 10.899C3.94806 11.1704 3.6662 11.4733 3.42611 11.7864C3.06074 12.2771 2.84152 12.799 2.84152 13.3523V15.6488C2.84152 17.5591 6.21332 19.6157 11.1927 19.6157C16.1721 19.6157 19.5439 17.5696 19.5439 15.6488V13.3523C19.5439 12.7259 19.2934 12.1413 18.8341 11.5985V11.6089Z" fill="black"/>
<path d="M6.7979 12.0995C7.96707 14.1247 12.0592 13.9472 15.932 11.7028C19.8153 9.45842 22.0075 6.01354 20.8488 3.98837L19.356 1.40997C18.1868 -0.615194 14.0948 -0.437726 10.2219 1.80666C6.33859 4.05104 4.1464 7.49592 5.30512 9.52109L6.7979 12.0995ZM10.9213 3.00717C14.1783 1.12815 17.4979 0.783682 18.3434 2.24514C19.189 3.7066 17.2265 6.41021 13.9799 8.28923C10.723 10.1683 7.40336 10.5128 6.5578 9.05138C5.71224 7.58993 7.67478 4.88619 10.9213 3.00717Z" fill="black"/>
</svg>
