<svg width="24" height="24" viewBox="0 0 24 24" fill="none" xmlns="http://www.w3.org/2000/svg">
<path d="M23.0035 6.84422L11.7415 0.27296C11.4315 0.0909867 11.0814 0 10.7514 0C10.0612 0 9.38113 0.363947 9.01107 1.01096L5.01038 8.01694C4.46029 8.97736 4.79034 10.2208 5.74051 10.7769L17.0024 17.3481C17.3125 17.5301 17.6626 17.6211 17.9926 17.6211C18.6827 17.6211 19.3628 17.2571 19.7329 16.6101L23.7336 9.60416C24.2837 8.64374 23.9536 7.40025 23.0035 6.84422ZM22.6134 8.95714L18.6127 15.9631C18.4927 16.1754 18.2527 16.317 18.0026 16.317C17.8826 16.317 17.7626 16.2866 17.6626 16.226L6.40062 9.65471C6.18058 9.53339 6.10057 9.3312 6.08056 9.21999C6.05056 9.10878 6.02055 8.90659 6.15058 8.68418L10.1513 1.6782C10.2713 1.4659 10.5113 1.32436 10.7614 1.32436C10.8814 1.32436 11.0014 1.35469 11.1014 1.41535L22.3634 7.98661C22.5834 8.10793 22.6634 8.31012 22.6834 8.42133C22.7134 8.53253 22.7434 8.73473 22.6134 8.95714Z" fill="black"/>
<path d="M10.3631 4.72324L9.61297 6.03652C9.47487 6.27828 9.55682 6.58743 9.79601 6.72702L11.9614 7.99072C12.2006 8.13031 12.5065 8.04747 12.6446 7.8057L13.3947 6.49242C13.5328 6.25065 13.4508 5.94151 13.2117 5.80192L11.0462 4.53822C10.807 4.39863 10.5012 4.48147 10.3631 4.72324Z" fill="black"/>
<path d="M3.67063 10.6957C1.48026 11.8887 0 14.2341 0 16.9233C0 20.8357 3.13054 24 7.0012 24C10.8719 24 13.7724 21.048 13.9824 17.3377L5.00086 12.101C4.43076 11.7673 3.98069 11.2821 3.67063 10.7058V10.6957ZM7.0012 20.9469L5.94102 19.8753C6.21107 19.6023 6.59113 19.4304 7.0012 19.4304C7.41128 19.4304 7.79134 19.6023 8.06139 19.8753L7.0012 20.9469ZM8.90153 19.0159C8.41145 18.5206 7.74133 18.2173 6.99121 18.2173C6.24108 18.2173 5.57096 18.5206 5.08088 19.0159L4.16072 18.0859C4.88084 17.358 5.88101 16.903 6.99121 16.903C8.1014 16.903 9.09157 17.358 9.82169 18.0859L8.90153 19.0159ZM11.592 16.2965L10.6718 17.2265C9.73168 16.2762 8.43145 15.6899 6.99121 15.6899C5.55096 15.6899 4.26073 16.2762 3.31057 17.2265L2.39041 16.2965C3.57061 15.1035 5.1909 14.3756 6.99121 14.3756C8.79152 14.3756 10.4118 15.1136 11.592 16.2965Z" fill="black"/>
</svg>
