<svg width="24" height="24" viewBox="0 0 24 24" fill="none" xmlns="http://www.w3.org/2000/svg">
<path d="M22 17.49H2.00001C1.45001 17.49 1.00001 17.94 1.00001 18.49V21.49C1.00001 22.04 1.45001 22.49 2.00001 22.49H22C22.55 22.49 23 22.04 23 21.49V18.49C23 17.94 22.55 17.49 22 17.49ZM12 20.99C11.45 20.99 11 20.54 11 19.99C11 19.44 11.45 18.99 12 18.99C12.55 18.99 13 19.44 13 19.99C13 20.54 12.55 20.99 12 20.99Z" fill="black"/>
<path d="M5.50001 14.49H10V15.99H14V14.49H18.5C19.33 14.49 20 13.82 20 12.99V11.99L21.45 11.27C21.79 11.1 22 10.75 22 10.38V5.61998C22 5.23998 21.79 4.88998 21.45 4.72998L20 4.00998V3.00998C20 2.17998 19.33 1.50998 18.5 1.50998H5.50001C4.68001 1.50998 4.00001 2.17998 4.00001 3.00998V13.01C4.00001 13.84 4.68001 14.51 5.50001 14.51V14.49ZM5.3 2.98998C5.3 2.87998 5.39001 2.78998 5.50001 2.78998H18.5C18.61 2.78998 18.7 2.87998 18.7 2.98998V12.99C18.7 13.1 18.61 13.19 18.5 13.19H5.50001C5.39001 13.19 5.3 13.1 5.3 12.99V2.98998Z" fill="black"/>
<path d="M8.00001 7.23998C8.55229 7.23998 9.00001 6.79226 9.00001 6.23998C9.00001 5.68769 8.55229 5.23998 8.00001 5.23998C7.44772 5.23998 7.00001 5.68769 7.00001 6.23998C7.00001 6.79226 7.44772 7.23998 8.00001 7.23998Z" fill="black"/>
<path d="M12 7.23998C12.5523 7.23998 13 6.79226 13 6.23998C13 5.68769 12.5523 5.23998 12 5.23998C11.4477 5.23998 11 5.68769 11 6.23998C11 6.79226 11.4477 7.23998 12 7.23998Z" fill="black"/>
<path d="M16 7.23998C16.5523 7.23998 17 6.79226 17 6.23998C17 5.68769 16.5523 5.23998 16 5.23998C15.4477 5.23998 15 5.68769 15 6.23998C15 6.79226 15.4477 7.23998 16 7.23998Z" fill="black"/>
<path d="M8.00001 10.74C8.55229 10.74 9.00001 10.2923 9.00001 9.73998C9.00001 9.18769 8.55229 8.73998 8.00001 8.73998C7.44772 8.73998 7.00001 9.18769 7.00001 9.73998C7.00001 10.2923 7.44772 10.74 8.00001 10.74Z" fill="black"/>
<path d="M12 10.74C12.5523 10.74 13 10.2923 13 9.73998C13 9.18769 12.5523 8.73998 12 8.73998C11.4477 8.73998 11 9.18769 11 9.73998C11 10.2923 11.4477 10.74 12 10.74Z" fill="black"/>
<path d="M16 10.74C16.5523 10.74 17 10.2923 17 9.73998C17 9.18769 16.5523 8.73998 16 8.73998C15.4477 8.73998 15 9.18769 15 9.73998C15 10.2923 15.4477 10.74 16 10.74Z" fill="black"/>
</svg>
