<svg width="24" height="24" viewBox="0 0 24 24" fill="none" xmlns="http://www.w3.org/2000/svg">
<path d="M9.09 18.2661C8.39 19.406 8.8 20.8861 9.92 21.5361C11.04 22.1861 12.53 21.7761 13.16 20.5961C13.69 19.5961 14.11 17.636 14.37 16.366C14.53 15.576 14.66 14.786 14.76 13.996C14.81 13.566 14.31 13.2761 13.96 13.5361C13.33 14.0161 12.72 14.526 12.12 15.076C11.16 15.946 9.69 17.2961 9.09 18.2661Z" fill="black"/>
<path d="M12.47 2.15604V3.65604C14.72 3.75604 16.78 4.57601 18.45 5.87601L16.5 8.15604C15.36 7.29604 13.98 6.75604 12.47 6.65604V8.15604C15.56 8.39604 18 10.976 18 14.136V15.136H24V14.136C24 7.66602 18.88 2.40604 12.47 2.15604ZM19.49 13.636C19.38 11.926 18.68 10.376 17.61 9.17599L19.57 6.88602C21.27 8.65602 22.37 11.016 22.49 13.636H19.49Z" fill="black"/>
<path d="M0 14.136V15.136H6V14.136C6 12.956 6.35 11.856 6.95 10.926L2.36 7.00601C0.88 8.99601 0 11.466 0 14.136Z" fill="black"/>
<path d="M10.97 2.186C7.97 2.446 5.29 3.80599 3.32 5.85599L7.9 9.77603C8.74 8.99603 9.78 8.42604 10.96 8.22604V2.186H10.97Z" fill="black"/>
</svg>
