<svg width="24" height="24" viewBox="0 0 24 24" fill="none" xmlns="http://www.w3.org/2000/svg">
<path d="M20.7273 17.1272H14.1818V18.5455H20.7273V17.1272Z" fill="black"/>
<path d="M22.3636 4.36364H9.39273L7.97455 2.59637C7.76727 2.33456 7.45091 2.18182 7.12364 2.18182H3.15273C2.82545 2.18182 2.50909 2.33456 2.30182 2.59637L0.48 4.86542C0.174546 5.24724 0 5.73814 0 6.22905V20.1818C0 21.0873 0.730909 21.8182 1.63636 21.8182H22.3636C23.2691 21.8182 24 21.0873 24 20.1818V6.00001C24 5.09455 23.2691 4.36364 22.3636 4.36364ZM8.52 20.1818C9.36 18.2727 11.3018 14.3018 13.9418 11.6727C14.2691 11.3454 14.6509 11.0945 15.0655 10.8873C16.2218 10.32 18.8836 9.19631 22.3745 8.53086V20.1927H8.53091L8.52 20.1818Z" fill="black"/>
</svg>
