<svg width="24" height="24" viewBox="0 0 24 24" fill="none" xmlns="http://www.w3.org/2000/svg">
<path d="M1.19998 0V24H16.092C16.728 24 17.34 23.748 17.784 23.292L22.092 18.984C22.548 18.528 22.8 17.928 22.8 17.292V0H1.19998ZM20.4 2.4V4.2H14.4V2.4H20.4ZM16.8 18V21.84C16.8 22.176 16.536 22.44 16.2 22.44H2.75998V7.2H21.24V17.4C21.24 17.736 20.976 18 20.64 18H16.8Z" fill="black"/>
<path d="M19.2 9.6H4.79998V11.16H19.2V9.6Z" fill="black"/>
<path d="M19.2 13.2H4.79998V14.76H19.2V13.2Z" fill="black"/>
<path d="M13.2 16.8H4.79998V18.36H13.2V16.8Z" fill="black"/>
</svg>
