<svg width="24" height="24" viewBox="0 0 24 24" fill="none" xmlns="http://www.w3.org/2000/svg">
<path d="M22.8391 10.8499C22.8391 4.87161 17.9675 0 11.9892 0C6.01085 0 1.13924 4.87161 1.13924 10.8499C1.13924 11.9892 1.32369 13.085 1.64919 14.1157C1.66004 14.2242 1.68174 14.3327 1.71429 14.4521L2.64738 17.9349C2.92948 18.9982 3.84087 19.7685 4.93671 19.8662L6.81374 20.0506C6.81374 20.0506 6.90054 20.0506 6.94394 20.0506C7.79024 20.0506 8.43038 19.2369 8.21338 18.4015L6.3038 11.2731C6.14105 10.6655 5.59855 10.2966 5.03436 10.2966C4.77396 10.2966 4.51356 10.3725 4.27486 10.5353L2.73418 11.6311C2.73418 11.6311 2.64738 11.7071 2.60398 11.7396C2.57143 11.4467 2.56058 11.1537 2.56058 10.8499C2.56058 5.64195 6.79204 1.41048 12 1.41048C17.208 1.41048 21.4394 5.64195 21.4394 10.8499C21.4394 11.1429 21.4286 11.4358 21.396 11.7288C21.3526 11.6962 21.3201 11.6636 21.2767 11.6311L19.736 10.5353C19.4973 10.3725 19.2369 10.2966 18.9765 10.2966C18.4123 10.2966 17.8698 10.6655 17.7071 11.2731L15.7975 18.4015C15.5696 19.2478 16.2098 20.0506 17.0669 20.0506C17.1103 20.0506 17.1537 20.0506 17.1971 20.0506L19.0741 19.8662C19.1826 19.8662 19.2803 19.8337 19.3888 19.812L18.8788 21.7323C18.7378 22.2423 18.2821 22.5895 17.7613 22.5895H13.0741C12.6835 22.5895 12.3689 22.9041 12.3689 23.2947C12.3689 23.6853 12.6835 24 13.0741 24H17.7613C18.9222 24 19.9421 23.2188 20.2459 22.0904C20.2459 22.0904 22.3617 14.1483 22.3725 14.0072C22.6763 13.009 22.8608 11.9458 22.8608 10.8499H22.8391ZM3.54792 12.7704L4.96926 11.7505L5.39241 13.3129C5.00181 13.5407 3.98192 14.2459 3.47197 15.5262L3.08137 14.0615C2.95118 13.5733 3.13562 13.0525 3.54792 12.7595V12.7704ZM18.5859 13.378L19.0199 11.7613L20.4412 12.7812C20.8535 13.0741 21.038 13.5949 20.9078 14.0832L20.4846 15.689C20.0289 14.4087 19.0416 13.6709 18.5859 13.378Z" fill="black"/>
</svg>
