<svg width="24" height="24" viewBox="0 0 24 24" fill="none" xmlns="http://www.w3.org/2000/svg">
<path d="M23.9891 24L21.1091 7.63636H16.3527V9.81818H14.7164V7.63636H12.6982V4.16727C13.1236 3.94909 14.2473 3.52364 16.2873 3.90545C20.1709 4.63636 21.2291 1.60364 21.2291 1.60364C19.8327 1.89818 18.0436 1.66909 15.9382 0.709091C14.7164 0.141818 13.5818 0 12.6982 0H11.28V7.63636H9.26182V9.81818H7.62545V7.63636H2.88L0 24H24H23.9891ZM1.68 22.5818L4.06909 9.05455H6.20727V11.2364H10.68V9.05455H13.2982V11.2364H17.7709V9.05455H19.9091L22.2982 22.5818H15.2618V18.0545C15.2618 16.2436 13.8 14.7818 11.9891 14.7818C10.1782 14.7818 8.71636 16.2436 8.71636 18.0545V22.5818H1.68Z" fill="black"/>
</svg>
