<svg width="24" height="24" viewBox="0 0 24 24" fill="none" xmlns="http://www.w3.org/2000/svg">
<path d="M21.2836 4.21638H17.1927L16.7455 2.77638C16.4618 1.86001 15.6218 1.23819 14.6618 1.23819H9.34909C8.38909 1.23819 7.54909 1.86001 7.26545 2.77638L6.81818 4.21638H2.72727C1.22182 4.21638 0 5.43819 0 6.94365V20.0346C0 21.54 1.22182 22.7618 2.72727 22.7618H21.2727C22.7782 22.7618 24 21.54 24 20.0346V6.94365C24 5.43819 22.7782 4.21638 21.2727 4.21638H21.2836ZM21.8291 8.58001V10.2164H15.2836V8.58001H21.8291ZM15.2836 11.8527H19.6473V13.4891H15.2836V11.8527ZM8.62909 3.20183C8.72727 2.88547 9.02182 2.66729 9.36 2.66729H14.6727C15.0109 2.66729 15.3055 2.88547 15.4036 3.20183L15.72 4.21638H8.31273L8.62909 3.20183ZM1.42909 20.0346V6.94365C1.42909 6.22365 2.01818 5.63456 2.73818 5.63456H13.1018V21.3436H2.73818C2.01818 21.3436 1.42909 20.7546 1.42909 20.0346Z" fill="black"/>
<path d="M11.4109 17.0673C11.1382 16.0855 10.7127 15.7146 9.89455 15.4527L9.05455 15.1582C8.91273 15.2673 8.77091 15.3764 8.61818 15.4746C8.12727 15.7691 7.61455 15.9218 7.09091 15.9218C6.56727 15.9218 6.06545 15.7691 5.56364 15.4746C5.41091 15.3873 5.26909 15.2782 5.12727 15.1582L4.28727 15.4527C3.46909 15.7255 3.04364 16.0855 2.77091 17.0673L2.44364 18.3982H11.7164L11.3891 17.0673H11.4109Z" fill="black"/>
<path d="M6.41455 14.0673C6.61091 14.1873 6.85091 14.2855 7.10182 14.2855C7.35273 14.2855 7.58182 14.1873 7.78909 14.0673C8.24727 13.7946 8.57454 13.3473 8.76 12.8455C8.97818 12.2455 9 11.7 9 11.7C9.06545 10.3146 8.14909 9.61637 7.10182 9.61637C6.05455 9.61637 5.14909 10.3146 5.20364 11.7C5.20364 11.7 5.22545 12.2346 5.44364 12.8455C5.62909 13.3473 5.95636 13.7946 6.41455 14.0673Z" fill="black"/>
</svg>
