<svg width="24" height="24" viewBox="0 0 24 24" fill="none" xmlns="http://www.w3.org/2000/svg">
<path d="M21.735 3.18496C17.475 1.88496 13.915 2.91496 11.425 6.08496C11.175 6.40496 10.665 6.30496 10.565 5.91496C9.995 3.72496 8.295 1.34496 3.445 0.614959L2.68501 0.504959V1.27496C2.69501 1.34496 2.865 7.52496 8.395 9.76496C8.865 9.95496 9.115 10.485 8.975 10.975C8.815 11.525 8.695 12.055 8.605 12.495H5.915L4.605 8.29496L2.695 8.89496L3.81499 12.495H1.56499L4.775 22.795C4.905 23.215 5.295 23.495 5.725 23.495H13.155C13.595 23.495 13.975 23.215 14.105 22.795L17.315 12.495H9.925C10.015 12.095 10.125 11.645 10.255 11.175C10.385 10.705 10.845 10.425 11.335 10.465C18.945 11.065 22.095 4.16496 22.135 4.09496L22.435 3.42496L21.735 3.21496V3.18496ZM5.945 22.165L3.325 13.765H5.695C6.195 13.765 6.62501 14.135 6.68501 14.635L7.665 22.165H5.945ZM4.075 2.03496C9.485 3.17496 9.615 6.74496 9.525 8.78496C5.315 7.46496 4.315 3.69496 4.075 2.03496ZM11.075 9.10496C13.105 4.89496 16.365 3.21496 20.585 4.21496C19.615 5.82496 16.645 9.72496 11.075 9.10496Z" fill="black"/>
</svg>
