<svg width="24" height="24" viewBox="0 0 24 24" fill="none" xmlns="http://www.w3.org/2000/svg">
<path d="M23.99 9.99998L20.23 1.99998H3.78998L0.0299683 9.98998H0.0499878L0.00997925 9.99998C0.339979 12.2 2.21998 13.89 4.50998 13.89C6.79998 13.89 8.67998 12.2 9.00998 9.99998H8.96997H8.98999L5.83997 3.29998H11.01V16.92C11.01 17.36 10.73 17.75 10.3 17.87C8.51999 18.37 7.06998 19.63 6.28998 21.28C6.12998 21.61 6.36999 22 6.73999 22H17.26C17.63 22 17.87 21.61 17.71 21.28C16.94 19.63 15.48 18.37 13.7 17.87C13.28 17.75 12.99 17.36 12.99 16.92V3.29998H18.16L15.01 9.98998H15.03L14.99 9.99998C15.32 12.2 17.2 13.89 19.49 13.89C21.78 13.89 23.66 12.2 23.99 9.99998ZM7.55997 9.99998H1.44998L4.49997 3.51998L7.54999 9.99998H7.55997ZM16.46 9.99998L19.51 3.51998L22.56 9.99998H16.45H16.46Z" fill="black"/>
</svg>
