<svg width="24" height="24" viewBox="0 0 24 24" fill="none" xmlns="http://www.w3.org/2000/svg">
<path d="M22.079 1.93295C20.8424 0.684325 19.1856 0 17.4207 0C15.6558 0 14.011 0.684325 12.7624 1.93295L9.23262 5.46279C6.66333 8.03207 6.66333 12.1982 9.23262 14.7674C9.78489 15.3197 10.4332 15.7519 11.1296 16.064L11.6938 15.4998C12.1141 15.0796 12.3302 14.5273 12.3422 13.975C11.8139 13.7829 11.3337 13.4828 10.9255 13.0746C9.29265 11.4417 9.29265 8.80036 10.9255 7.16755L14.4552 3.63785C15.2476 2.84546 16.2921 2.41322 17.4087 2.41322C18.5253 2.41322 19.5698 2.84546 20.3622 3.63785C21.1546 4.43025 21.5868 5.47473 21.5868 6.59128C21.5868 7.70784 21.1546 8.75232 20.3622 9.54471L18.2731 11.6337V11.6818C18.5613 12.7023 18.6213 13.7588 18.5133 14.7913C18.5133 14.7913 18.5253 14.7915 18.5373 14.7795L22.067 11.2496C23.3157 10.001 24 8.35617 24 6.59128C24 4.8264 23.3157 3.18157 22.067 1.93295H22.079Z" fill="black"/>
<path d="M12.8584 7.94797L12.2941 8.51221C11.8859 8.92042 11.6698 9.44868 11.6458 10.013C12.1741 10.2171 12.6543 10.5292 13.0625 10.9375C14.6953 12.5703 14.6953 15.2116 13.0625 16.8445L9.53277 20.3742C7.89995 22.007 5.25863 22.007 3.62581 20.3742C2.83342 19.5818 2.4012 18.5373 2.4012 17.4207C2.4012 16.3042 2.83342 15.2597 3.62581 14.4673L5.71486 12.3783L5.65483 12.114C5.48674 11.4297 5.4027 10.7574 5.4027 10.0971C5.4027 9.80895 5.41471 9.53271 5.45073 9.24456L1.93297 12.7624C0.684342 14.011 0 15.6558 0 17.4207C0 19.1856 0.684342 20.8304 1.93297 22.0791C3.21761 23.3637 4.89845 24 6.5913 24C8.28414 24 9.96498 23.3637 11.2496 22.0791L14.7794 18.5492C17.3487 15.9799 17.3487 11.8138 14.7794 9.24456C14.2271 8.69229 13.5788 8.26012 12.8824 7.94797H12.8584Z" fill="black"/>
</svg>
