<svg width="24" height="24" viewBox="0 0 24 24" fill="none" xmlns="http://www.w3.org/2000/svg">
<path d="M20.01 10.98C19.35 10.76 18.68 10.56 18 10.39V8C18 4.69 15.31 2 12 2C8.69002 2 6.00002 4.69 6.00002 8V10.39C5.32002 10.56 4.65002 10.76 3.99002 10.98C3.39002 11.18 3.00002 11.76 3.00002 12.39V20.5C3.00002 21.33 3.67002 22 4.50002 22H19.5C20.33 22 21 21.33 21 20.5V12.39C21 11.76 20.61 11.18 20.01 10.98ZM13 18H11V13.9C11 13.35 11.45 12.9 12 12.9C12.55 12.9 13 13.35 13 13.9V18ZM16.7 10.12C15.18 9.82 13.61 9.65 12 9.65C10.39 9.65 8.82002 9.82 7.30002 10.12V8.01C7.30002 5.42 9.41002 3.31 12 3.31C14.59 3.31 16.7 5.42 16.7 8.01V10.12Z" fill="black"/>
</svg>
