<svg width="24" height="24" viewBox="0 0 24 24" fill="none" xmlns="http://www.w3.org/2000/svg">
<path d="M19.48 20.5013C20.0323 20.5013 20.48 20.0538 20.48 19.5017C20.48 18.9497 20.0323 18.5022 19.48 18.5022C18.9277 18.5022 18.48 18.9497 18.48 19.5017C18.48 20.0538 18.9277 20.5013 19.48 20.5013Z" fill="black"/>
<path d="M15.24 20.5013C15.7923 20.5013 16.24 20.0538 16.24 19.5017C16.24 18.9497 15.7923 18.5022 15.24 18.5022C14.6877 18.5022 14.24 18.9497 14.24 19.5017C14.24 20.0538 14.6877 20.5013 15.24 20.5013Z" fill="black"/>
<path d="M11 20.5013C11.5523 20.5013 12 20.0538 12 19.5017C12 18.9497 11.5523 18.5022 11 18.5022C10.4477 18.5022 10 18.9497 10 19.5017C10 20.0538 10.4477 20.5013 11 20.5013Z" fill="black"/>
<path d="M6.76001 20.5013C7.31229 20.5013 7.76001 20.0538 7.76001 19.5017C7.76001 18.9497 7.31229 18.5022 6.76001 18.5022C6.20773 18.5022 5.76001 18.9497 5.76001 19.5017C5.76001 20.0538 6.20773 20.5013 6.76001 20.5013Z" fill="black"/>
<path d="M2.53 20.5013C3.08228 20.5013 3.53 20.0538 3.53 19.5017C3.53 18.9497 3.08228 18.5022 2.53 18.5022C1.97771 18.5022 1.53 18.9497 1.53 19.5017C1.53 20.0538 1.97771 20.5013 2.53 20.5013Z" fill="black"/>
<path d="M19.5 16.0032H1V17.3027H19.5C20.71 17.3027 21.7 18.2922 21.7 19.5017C21.7 20.7112 20.71 21.7008 19.5 21.7008H1V23.0003H19.5C21.43 23.0003 23 21.4309 23 19.5017C23 17.5725 21.43 16.0032 19.5 16.0032Z" fill="black"/>
<path d="M1.37 9.21603C1.47 9.276 1.58 9.30599 1.69 9.30599C1.91 9.30599 2.13 9.18604 2.25 8.97613L4.98999 4.22811V13.1444C4.98999 13.6142 5.37 13.994 5.84 13.994H18.13C18.6 13.994 18.98 13.6142 18.98 13.1444V4.22811L21.72 8.97613C21.84 9.18604 22.06 9.30599 22.28 9.30599C22.39 9.30599 22.5 9.276 22.6 9.21603C22.91 9.0361 23.02 8.63627 22.84 8.3264L18.84 1.38929C18.7 1.13939 18.43 0.999451 18.12 0.999451H5.82999C5.82999 0.999451 5.35999 0.999451 5.10999 1.38929L1.10001 8.3264C0.920007 8.63627 1.03 9.0361 1.34 9.21603H1.37ZM10.94 7.39679L13.4 4.93781L15.86 7.39679C16.11 7.64668 16.11 8.06651 15.86 8.3164C15.73 8.44635 15.57 8.50632 15.4 8.50632C15.23 8.50632 15.07 8.44635 14.94 8.3164L14.05 7.42677V11.0053H12.75V7.42677L11.86 8.3164C11.61 8.5663 11.19 8.5663 10.94 8.3164C10.69 8.06651 10.69 7.64668 10.94 7.39679Z" fill="black"/>
</svg>
