<svg width="24" height="24" viewBox="0 0 24 24" fill="none" xmlns="http://www.w3.org/2000/svg">
<path d="M11.96 14.2C11.61 14.2 11.28 14.14 10.96 14.04L9.94004 15.06C10.56 15.34 11.24 15.5 11.96 15.5C14.72 15.5 16.96 13.26 16.96 10.5V8.04L15.66 9.34V10.5C15.66 12.54 14 14.2 11.96 14.2Z" fill="black"/>
<path d="M21 0.04L16.88 4.16C16.48 1.8 14.44 0 11.96 0C9.20003 0 6.96003 2.24 6.96003 5V10.5C6.96003 11.52 7.28003 12.45 7.80003 13.24L6.57001 14.47C5.75001 13.36 5.26003 11.99 5.26003 10.5V7H3.96003V10.5C3.96003 12.35 4.60003 14.04 5.65003 15.39L2.28882e-05 21.04L0.920036 21.96L21.92 0.96L21 0.04ZM8.26002 10.5V8.3H12.74L8.75004 12.29C8.45004 11.76 8.26002 11.16 8.26002 10.5Z" fill="black"/>
<path d="M18.66 10.37C18.66 13.97 15.87 17.03 12.27 17.19C10.96 17.25 9.73002 16.93 8.67002 16.33L7.72004 17.28C8.64004 17.85 9.68002 18.24 10.79 18.4C11.09 18.44 11.31 18.69 11.31 18.99V20.1C11.31 20.43 11.04 20.7 10.71 20.7H7.76002C7.32002 20.7 6.96003 21.06 6.96003 21.5V22H16.96V21.5C16.96 21.06 16.6 20.7 16.16 20.7H13.21C12.88 20.7 12.61 20.43 12.61 20.1V19C12.61 18.7 12.83 18.45 13.12 18.41C16.99 17.85 19.95 14.52 19.95 10.5V7H18.65V10.37H18.66Z" fill="black"/>
</svg>
