<svg width="24" height="24" viewBox="0 0 24 24" fill="none" xmlns="http://www.w3.org/2000/svg">
<path d="M12 15.5C14.76 15.5 17 13.26 17 10.5V5C17 2.24 14.76 0 12 0C9.24 0 7 2.24 7 5V10.5C7 13.26 9.24 15.5 12 15.5ZM8.3 8.3H15.7V10.5C15.7 12.54 14.04 14.2 12 14.2C9.96 14.2 8.3 12.54 8.3 10.5V8.3Z" fill="black"/>
<path d="M18.7 7V10.37C18.7 14.12 15.63 17.27 11.88 17.2C8.13 17.13 5.3 14.16 5.3 10.5V7H4V10.5C4 14.52 6.97 17.84 10.84 18.41C11.13 18.45 11.35 18.7 11.35 19V20.1C11.35 20.43 11.08 20.7 10.75 20.7H7.8C7.36 20.7 7 21.06 7 21.5V22H17V21.5C17 21.06 16.64 20.7 16.2 20.7H13.25C12.92 20.7 12.65 20.43 12.65 20.1V19C12.65 18.7 12.87 18.45 13.16 18.41C17.03 17.85 19.99 14.52 19.99 10.5V7H18.69H18.7Z" fill="black"/>
</svg>
