<svg width="24" height="24" viewBox="0 0 24 24" fill="none" xmlns="http://www.w3.org/2000/svg">
<path d="M3.35682 10.48C3.11682 9.57997 3.23681 8.62997 3.70681 7.81997L6.28681 3.35997H2.01681C0.916808 3.35997 0.0168076 4.25997 0.0168076 5.35997V21.36C0.0168076 22.46 0.916808 23.36 2.01681 23.36H10.0168C11.1168 23.36 12.0168 22.46 12.0168 21.36V16.66L4.98681 12.6C4.17681 12.13 3.59682 11.38 3.35682 10.47V10.48ZM6.00681 19.36C6.55681 19.36 7.00681 19.81 7.00681 20.36C7.00681 20.91 6.55681 21.36 6.00681 21.36C5.45681 21.36 5.00681 20.91 5.00681 20.36C5.00681 19.81 5.45681 19.36 6.00681 19.36Z" fill="black"/>
<path d="M22.9868 7.40997L11.7268 0.909969C11.4168 0.729969 11.0668 0.639969 10.7368 0.639969C10.0468 0.639969 9.3668 0.999969 8.9968 1.63997L4.99682 8.56997C4.44682 9.51997 4.77681 10.75 5.72681 11.3L16.9868 17.8C17.2968 17.98 17.6468 18.07 17.9768 18.07C18.6668 18.07 19.3468 17.71 19.7168 17.07L23.7168 10.14C24.2668 9.18997 23.9368 7.95997 22.9868 7.40997ZM22.5968 9.49997L18.5968 16.43C18.4768 16.64 18.2368 16.78 17.9868 16.78C17.8668 16.78 17.7468 16.75 17.6468 16.69L6.38682 10.19C6.16682 10.07 6.08681 9.86997 6.06681 9.75997C6.03681 9.64997 6.00681 9.44997 6.13682 9.22997L10.1368 2.29997C10.2568 2.08997 10.4968 1.94997 10.7468 1.94997C10.8668 1.94997 10.9868 1.97997 11.0868 2.03997L22.3468 8.53997C22.5668 8.65997 22.6468 8.85997 22.6668 8.96997C22.6968 9.07997 22.7268 9.27997 22.5968 9.49997Z" fill="black"/>
<path d="M10.3481 5.31712L9.59812 6.61616C9.46005 6.8553 9.54199 7.1611 9.78113 7.29917L11.9462 8.54917C12.1853 8.68724 12.4911 8.6053 12.6292 8.36616L13.3792 7.06712C13.5173 6.82797 13.4353 6.52218 13.1962 6.3841L11.0311 5.1341C10.792 4.99603 10.4862 5.07797 10.3481 5.31712Z" fill="black"/>
</svg>
