<svg width="24" height="24" viewBox="0 0 24 24" fill="none" xmlns="http://www.w3.org/2000/svg">
<path d="M22.2301 15.2936C18.885 13.1284 19.8587 11.4902 18.8277 5.87685C17.7852 0.252034 12.9623 0 12.126 0C12.0458 0 12 0 12 0C12 0 11.9542 0 11.874 0C11.0377 0 6.20334 0.240578 5.17231 5.87685C4.14129 11.4902 5.10358 13.1284 1.76993 15.2936C1.09403 15.7289 0.670166 16.4621 0.670166 17.264V18.295H23.3298V17.264C23.3298 16.4621 22.906 15.7289 22.2301 15.2936ZM9.11312 9.3136C8.99856 10.4134 8.89546 11.3642 8.6778 12.1088C7.99045 14.4687 6.38663 15.706 3.91217 15.8205C5.88257 14.0792 6.08878 12.2348 6.35226 9.8291C6.46682 8.80953 6.59284 7.64104 6.85632 6.18615C7.62386 2.03913 10.8888 1.71838 11.9083 1.71838H12.0458C9.81193 2.9327 9.41097 6.61001 9.12458 9.30214L9.11312 9.3136Z" fill="black"/>
<path d="M13.7184 20.0134C13.8329 20.231 13.9017 20.4716 13.9017 20.7236C13.9017 21.5828 13.2029 22.2816 12.3437 22.2816C11.4845 22.2816 10.7857 21.5828 10.7857 20.7236C10.7857 20.4716 10.8544 20.231 10.969 20.0134H9.15894C9.11312 20.2425 9.07875 20.483 9.07875 20.7236C9.07875 22.5336 10.5451 24 12.3551 24C14.1651 24 15.6315 22.5336 15.6315 20.7236C15.6315 20.483 15.5971 20.2425 15.5513 20.0134H13.7184Z" fill="black"/>
</svg>
