<svg width="24" height="24" viewBox="0 0 24 24" fill="none" xmlns="http://www.w3.org/2000/svg">
<path d="M13.51 20.4999C14.0623 20.4999 14.51 20.0522 14.51 19.4999C14.51 18.9476 14.0623 18.4999 13.51 18.4999C12.9577 18.4999 12.51 18.9476 12.51 19.4999C12.51 20.0522 12.9577 20.4999 13.51 20.4999Z" fill="black"/>
<path d="M8.53 20.4999C9.08228 20.4999 9.53 20.0522 9.53 19.4999C9.53 18.9476 9.08228 18.4999 8.53 18.4999C7.97772 18.4999 7.53 18.9476 7.53 19.4999C7.53 20.0522 7.97772 20.4999 8.53 20.4999Z" fill="black"/>
<path d="M3.54 20.4999C4.09228 20.4999 4.54 20.0522 4.54 19.4999C4.54 18.9476 4.09228 18.4999 3.54 18.4999C2.98772 18.4999 2.54 18.9476 2.54 19.4999C2.54 20.0522 2.98772 20.4999 3.54 20.4999Z" fill="black"/>
<path d="M13.5 15.9999H3.5C1.57 15.9999 0 17.5699 0 19.4999C0 21.4299 1.57 22.9999 3.5 22.9999H13.5C15.43 22.9999 17 21.4299 17 19.4999C17 17.5699 15.43 15.9999 13.5 15.9999ZM13.5 21.6999H3.5C2.29 21.6999 1.3 20.7099 1.3 19.4999C1.3 18.2899 2.29 17.2999 3.5 17.2999H13.5C14.71 17.2999 15.7 18.2899 15.7 19.4999C15.7 20.7099 14.71 21.6999 13.5 21.6999Z" fill="black"/>
<path d="M24 3.37992C24.01 2.80992 23.82 2.23992 23.42 1.78992C22.96 1.26992 22.32 0.999916 21.67 0.999916C21.19 0.999916 20.71 1.14992 20.29 1.44992L15.4 5.04992L15.73 6.41992L21.06 2.49992C21.24 2.36992 21.45 2.29992 21.67 2.29992C21.97 2.29992 22.25 2.42992 22.44 2.64992C22.79 3.04992 22.78 3.64992 22.41 4.03992L16.62 10.0499L16.99 11.5399L19.75 8.66992L20.33 12.6799C20.45 13.5399 21.12 14.2099 21.95 14.3599L19.08 18.1999C18.83 18.5299 19.07 18.9999 19.48 18.9999H21.92C23.06 18.9999 23.99 18.0699 23.99 16.9299V3.38992C23.99 3.38992 23.99 3.38992 23.99 3.37992H24ZM22.7 13.0899H22.31C21.96 13.0899 21.67 12.8299 21.62 12.4899L20.9 7.47992L22.7 5.60992V13.0899Z" fill="black"/>
<path d="M1 13.9999H14.78C15.43 13.9999 15.91 13.3899 15.75 12.7599L13.74 4.51992C13.52 3.61992 12.72 2.99992 11.8 2.99992H7.01C6.46 2.99992 6.01 3.44992 6.01 3.99992V7.99992H1C0.45 7.99992 0 8.44992 0 8.99992V12.9999C0 13.5499 0.45 13.9999 1 13.9999ZM9 4.29992H11.79C12.11 4.29992 12.39 4.51992 12.47 4.82992L14.39 12.6999H12.08L9 8.81992V4.29992Z" fill="black"/>
</svg>
