<svg width="24" height="24" viewBox="0 0 24 24" fill="none" xmlns="http://www.w3.org/2000/svg">
<path d="M22 2.5H2.00001C1.45001 2.5 1.00001 2.95 1.00001 3.5V16.5C1.00001 17.05 1.45001 17.5 2.00001 17.5H10V19.2C10 19.75 9.55001 20.2 9.00001 20.2H7.00001V21.5H17V20.2H15C14.45 20.2 14 19.75 14 19.2V17.5H22C22.55 17.5 23 17.05 23 16.5V3.5C23 2.95 22.55 2.5 22 2.5ZM10.07 8.39C10.66 7.37 11.31 6.42 12 5.5C12.69 6.41 13.34 7.37 13.93 8.39C14.52 9.41 15.02 10.45 15.46 11.5L12 10.42L8.54002 11.5C8.99002 10.45 9.49002 9.4 10.07 8.39ZM21.7 16.2H2.3V14.5H21.7V16.2Z" fill="black"/>
</svg>
