<svg width="24" height="24" viewBox="0 0 24 24" fill="none" xmlns="http://www.w3.org/2000/svg">
<path d="M17.6165 0.999985C14.6448 0.999985 12.233 3.41061 12.233 6.38084C12.233 9.35107 14.6448 11.7617 17.6165 11.7617C20.5882 11.7617 23 9.35107 23 6.38084C23 3.41061 20.5882 0.999985 17.6165 0.999985ZM17.6165 7.63996L14.5049 8.60851C14.9032 7.66148 15.3554 6.72521 15.883 5.81047C16.4106 4.89572 16.992 4.04555 17.6165 3.22766C18.2302 4.04555 18.8224 4.90648 19.35 5.81047C19.8776 6.72521 20.3298 7.66148 20.7282 8.60851L17.6165 7.63996Z" fill="black"/>
<path d="M20.3298 17.0134C19.4469 16.5399 18.0149 15.7543 17.1428 15.2808C16.7121 15.044 16.1737 15.1193 15.8292 15.4745L14.451 16.852C14.0957 17.2071 13.5358 17.2824 13.1159 17.0026C11.9208 16.2278 10.7795 15.3238 9.72431 14.2692C8.66915 13.2145 7.76472 12.0738 6.9895 10.8792C6.72033 10.4595 6.78493 9.89991 7.14024 9.54478L8.51842 8.16728C8.86296 7.82291 8.9491 7.28482 8.71222 6.85435C8.23848 5.99342 7.46325 4.55135 6.97874 3.66889C6.7311 3.2169 6.20352 2.9909 5.70824 3.1308C4.68538 3.42137 3.79171 3.75498 3.03803 4.07783C1.33684 4.79887 0.561625 6.76826 1.25071 8.49013C2.51045 11.611 4.39466 14.5382 6.9249 17.078C9.45514 19.607 12.3838 21.4903 15.517 22.7494C17.2289 23.4381 19.21 22.6633 19.9314 20.9629C20.2544 20.2096 20.5774 19.3164 20.8789 18.294C21.0189 17.799 20.7928 17.2717 20.3405 17.0349L20.3298 17.0134Z" fill="black"/>
</svg>
