<svg width="24" height="24" viewBox="0 0 24 24" fill="none" xmlns="http://www.w3.org/2000/svg">
<path d="M21.087 2.49998H4.82609C3.77391 2.49998 2.91304 3.31426 2.91304 4.3095V11.7647C3.30522 11.5747 3.72608 11.4209 4.15651 11.3033V4.3095C4.15651 3.95664 4.46261 3.67617 4.82609 3.67617H21.087C21.4504 3.67617 21.7565 3.95664 21.7565 4.3095V14.2619C21.7565 14.6147 21.4504 14.8952 21.087 14.8952H11.5887C11.847 15.5466 12 16.2433 12 16.9762C12 17.9533 11.7417 18.8762 11.2922 19.6905H18.2174V18.5143H16.3043C15.7783 18.5143 15.3478 18.1071 15.3478 17.6095V16.0714H21.087C22.1391 16.0714 23 15.2571 23 14.2619V4.3095C23 3.31426 22.1391 2.49998 21.087 2.49998Z" fill="black"/>
<path d="M5.78261 12.4524C3.14261 12.4524 1 14.479 1 16.9762C1 19.4733 3.14261 21.5 5.78261 21.5C8.42261 21.5 10.5652 19.4733 10.5652 16.9762C10.5652 14.479 8.42261 12.4524 5.78261 12.4524ZM5.78261 18.0347L3.01825 18.849C3.37216 18.0528 3.77393 17.2657 4.24262 16.4966C4.71132 15.7276 5.22783 15.0128 5.78261 14.3252C6.32783 15.0128 6.8539 15.7366 7.32259 16.4966C7.79129 17.2657 8.19306 18.0528 8.54697 18.849L5.78261 18.0347Z" fill="black"/>
<path d="M19.1739 6.11902H6.73913C6.21086 6.11902 5.78261 6.5241 5.78261 7.02379V8.83331C5.78261 9.333 6.21086 9.73807 6.73913 9.73807H19.1739C19.7022 9.73807 20.1304 9.333 20.1304 8.83331V7.02379C20.1304 6.5241 19.7022 6.11902 19.1739 6.11902Z" fill="black"/>
</svg>
