<svg width="24" height="24" viewBox="0 0 24 24" fill="none" xmlns="http://www.w3.org/2000/svg">
<path d="M18.3646 9.96995C19.4637 9.96995 20.3629 8.92995 20.3629 7.63995C20.3629 6.34995 19.4637 5.30995 18.3646 5.30995C17.2655 5.30995 16.3662 6.34995 16.3662 7.63995C16.3662 8.92995 17.2655 9.96995 18.3646 9.96995Z" fill="black"/>
<path d="M23.5004 2.56994C22.0416 1.94994 20.433 1.60994 18.7544 1.60994C17.0758 1.60994 15.4671 1.94994 14.0083 2.56994C12.5495 3.18994 10.9409 3.52994 9.26227 3.52994C7.58367 3.52994 5.97501 3.18994 4.51623 2.56994V11.2499C4.74603 11.1499 4.97584 11.0599 5.21564 10.9899L5.81514 10.8199V4.38994C6.93421 4.67994 8.08325 4.82994 9.26227 4.82994C11.0808 4.82994 12.8493 4.46994 14.5179 3.76994C15.8668 3.19994 17.2856 2.91994 18.7544 2.91994C19.9434 2.91994 21.0924 3.10994 22.2015 3.47994V12.5599C21.0824 12.2699 19.9334 12.1199 18.7544 12.1199C18.0649 12.1199 17.3955 12.1899 16.7261 12.2899C16.4363 12.8799 15.9367 13.4499 15.1773 13.9599C16.3064 13.6099 17.5054 13.4299 18.7544 13.4299C19.3139 13.4299 19.8534 13.4799 20.393 13.5499L15.9467 17.3599C15.597 17.6199 15.1773 17.7699 14.7377 17.7699H12.5495C12.1798 17.7699 11.8401 17.5599 11.6703 17.2399L10.841 15.6599C10.5812 15.1599 10.781 14.5499 11.2806 14.2999L14.0383 12.9399C15.607 12.0599 15.7569 11.0099 15.4371 10.2399C15.3172 9.95994 15.1374 9.85994 14.8976 9.85994C14.7477 9.85994 14.5878 9.89994 14.398 9.94994L5.61531 12.4599C4.71606 12.7199 3.91673 13.2299 3.28725 13.9299L0.499573 17.0399V22.3899H13.8484C14.9375 22.3899 15.9867 21.9399 16.746 21.1499L23.4904 14.3999V2.56994H23.5004Z" fill="black"/>
</svg>
