<svg width="24" height="24" viewBox="0 0 24 24" fill="none" xmlns="http://www.w3.org/2000/svg">
<path d="M8.23422 9.17293C6.59835 11.3468 5.03934 13.6084 3.64501 16.0348C2.25069 18.4501 1.06496 20.9314 0 23.4346L8.23422 20.8655L16.4684 23.4346C15.4035 20.9314 14.2177 18.4501 12.8234 16.0348C11.4291 13.6194 9.88106 11.3468 8.23422 9.17293Z" fill="black"/>
<path d="M15.7658 3.1345L7.53156 0.56543C8.59652 3.06863 9.78225 5.54988 11.1766 7.96525C12.5709 10.3806 14.1189 12.6533 15.7658 14.8271C17.4016 12.6533 18.9607 10.3916 20.355 7.96525C21.7493 5.5389 22.935 3.06863 24 0.56543L15.7658 3.1345ZM19.1144 7.26258C18.1372 8.96432 17.0284 10.6661 15.7658 12.4337C14.5032 10.6661 13.3943 8.96432 12.4172 7.26258C11.6157 5.87923 10.8582 4.43002 10.1226 2.88199L15.3376 4.50687L15.7658 4.63861L16.194 4.50687L21.409 2.88199C20.6734 4.441 19.9158 5.89022 19.1144 7.27357V7.26258Z" fill="black"/>
</svg>
