<svg width="24" height="24" viewBox="0 0 24 24" fill="none" xmlns="http://www.w3.org/2000/svg">
<path d="M17.788 11.4265C20.665 11.4265 23 9.09099 23 6.21326C23 3.33554 20.665 0.999992 17.788 0.999992C14.9109 0.999992 12.5759 3.33554 12.5759 6.21326C12.5759 9.09099 14.9109 11.4265 17.788 11.4265ZM16.1097 5.67108C16.6205 4.78483 17.1834 3.96113 17.788 3.16871C18.3821 3.96113 18.9555 4.79525 19.4662 5.67108C19.977 6.55734 20.4148 7.46445 20.8005 8.38198L17.788 7.44359L14.7754 8.38198C15.1611 7.46445 15.5989 6.55734 16.1097 5.67108Z" fill="black"/>
<path d="M20.738 15.9204L17.6629 14.2521C16.9853 13.8872 16.1305 14.0019 15.5781 14.5545L14.0249 16.108C12.7531 15.3052 11.6169 14.3981 10.6162 13.3971C9.61547 12.3962 8.70858 11.2597 7.90593 9.98767L9.44869 8.44454C9.99074 7.90236 10.1158 7.04739 9.75098 6.35923L8.08314 3.2834C7.68702 2.55355 6.84266 2.20947 6.04001 2.43886C5.13311 2.69952 4.2575 3.01231 3.41315 3.36682C1.42215 4.21137 0.483973 6.45307 1.28663 8.45497C2.57921 11.6976 4.48683 14.5858 6.94692 17.0569C9.41742 19.528 12.3049 21.4256 15.5468 22.7185C16.0367 22.9166 16.5371 23 17.027 23C18.5593 23 19.9979 22.0929 20.6442 20.5915C20.9986 19.7573 21.3113 18.8711 21.5719 17.964C21.8012 17.1507 21.4572 16.3166 20.7276 15.9204H20.738ZM19.4037 20.0597C18.8512 21.3735 17.3814 21.9782 16.0576 21.4569C12.9929 20.237 10.2513 18.4227 7.91635 16.0872C5.58135 13.7517 3.77799 11.0095 2.54795 7.94407C2.02675 6.63032 2.63134 5.16018 3.94477 4.59715C4.737 4.2635 5.5605 3.97156 6.41528 3.72132C6.45697 3.71089 6.49868 3.70047 6.54038 3.70047C6.68631 3.70047 6.82182 3.77345 6.89479 3.909L8.56264 6.98483C8.64603 7.14122 8.61477 7.3289 8.48968 7.45402L6.18595 9.75829L6.45698 10.2171C7.38473 11.7602 8.4584 13.1469 9.64675 14.3355C10.8351 15.5242 12.2215 16.5981 13.7643 17.5261L14.2125 17.7971L16.5162 15.4929C16.6413 15.3678 16.8394 15.3365 16.9853 15.4199L20.0604 17.0881C20.2272 17.182 20.3002 17.3801 20.248 17.5678C20.0083 18.4227 19.706 19.2464 19.3724 20.0389L19.4037 20.0597Z" fill="black"/>
</svg>
