<svg width="24" height="24" viewBox="0 0 24 24" fill="none" xmlns="http://www.w3.org/2000/svg">
<path d="M23.1491 19.3091C22.4509 16.7673 21.3382 15.8182 19.2218 15.12L15.84 13.9309C15.4909 14.2473 15.1091 14.5418 14.7055 14.7818C13.8 15.3273 12.8836 15.6 12 15.6C11.1164 15.6 10.2 15.3273 9.29455 14.7818C8.89091 14.5418 8.52 14.2582 8.16 13.9309L4.77818 15.12C2.66182 15.8182 1.54909 16.7673 0.850909 19.3091L0 22.7564H24L23.1491 19.3091Z" fill="black"/>
<path d="M7.48364 10.0473C7.98546 11.4109 8.88 12.6327 10.1345 13.3746C10.68 13.7018 11.3345 13.9527 12.0109 13.9527C12.6873 13.9527 13.3309 13.7018 13.8873 13.3746C15.1418 12.6327 16.0364 11.4109 16.5382 10.0473C17.1382 8.40002 17.1927 6.9273 17.1927 6.9273C17.3564 3.14184 14.8691 1.24365 12.0218 1.24365C9.17455 1.24365 6.68727 3.14184 6.85091 6.9273C6.85091 6.9273 6.90545 8.40002 7.50546 10.0473H7.48364ZM9.38182 3.88365C10.0036 3.24001 10.9309 2.88002 12 2.88002C13.0691 2.88002 13.9964 3.24001 14.6182 3.88365C15.2727 4.57092 15.5891 5.59637 15.5345 6.86183C15.5345 6.87274 15.48 8.11638 14.9782 9.48002C14.5745 10.5709 13.8873 11.4546 13.0255 11.9673C12.6436 12.1964 12.2836 12.3164 11.9891 12.3164C11.6945 12.3164 11.3455 12.1964 10.9527 11.9673C10.0909 11.4546 9.40364 10.5709 9 9.48002C8.49818 8.11638 8.44364 6.87274 8.44364 6.85092C8.38909 5.59638 8.70545 4.57092 9.36 3.88365H9.38182Z" fill="black"/>
</svg>
