<svg width="24" height="24" viewBox="0 0 24 24" fill="none" xmlns="http://www.w3.org/2000/svg">
<path d="M10.9795 1.58252C4.91132 1.58252 0 6.50475 0 12.5621C0 18.6194 4.92224 23.5416 10.9795 23.5416C15.0614 23.5416 18.6085 21.3151 20.5075 18.0191L10.9795 12.5621V1.58252ZM9.56071 3.1105V12.191H1.42974C1.61528 7.57434 5.07503 3.78717 9.56071 3.1105ZM3.57981 18.6303C2.43383 17.2333 1.66985 15.4979 1.46248 13.5989H8.61119L3.57981 18.6303ZM10.9795 22.1337C8.51296 22.1337 6.27558 21.1842 4.57299 19.6562L10.3683 13.8608L18.4666 18.5102C16.6658 20.7803 13.9045 22.1446 10.9686 22.1446L10.9795 22.1337Z" fill="black"/>
<path d="M13.0205 0.458374V11.4379L22.5375 16.8949C23.4652 15.2906 24 13.4243 24 11.4379C24 5.36969 19.0778 0.458374 13.0205 0.458374Z" fill="black"/>
</svg>
