<svg width="24" height="24" viewBox="0 0 24 24" fill="none" xmlns="http://www.w3.org/2000/svg">
<path d="M17.5854 6.18078C16.7648 7.28158 15.4638 8.0021 13.9928 8.0021C12.5217 8.0021 11.3308 7.33162 10.5002 6.31088C9.31938 6.72117 8.18856 7.3316 7.03773 8.17221C6.49733 7.69186 6.037 6.9313 5.77681 6.35088L5.42656 5.56034L4.76608 6.11072C4.70604 6.16076 3.30503 7.36166 3.36507 9.77341L1.7439 11.4646H0.502998C0.202781 11.4646 -0.027386 11.7248 0.00263575 12.015L0.352889 15.4975C0.392918 15.9278 0.71315 16.2881 1.14346 16.3782L2.77464 16.7184C3.57522 17.7092 5.49661 19.2302 7.79828 20.0508L8.39871 23.093C8.44875 23.3232 8.64889 23.4933 8.88906 23.4933H12.1614C12.4416 23.4933 12.6618 23.2731 12.6618 22.9929V21.8221C13.3623 21.8721 14.2429 21.8721 15.0335 21.8121V23.0029C15.0335 23.2832 15.2537 23.5033 15.5339 23.5033H18.8062C19.0464 23.5033 19.2466 23.3332 19.2966 23.1031L19.797 20.5712C22.4289 19.0501 24 16.5483 24 13.8464C24 10.3138 21.3181 7.30158 17.5854 6.17076V6.18078ZM5.79683 13.6962C5.32649 13.6962 4.94621 13.316 4.94621 12.8456C4.94621 12.3753 5.32649 11.995 5.79683 11.995C6.26717 11.995 6.64744 12.3753 6.64744 12.8456C6.64744 13.316 6.26717 13.6962 5.79683 13.6962ZM13.9127 19.9807C10.3701 19.9807 7.37797 18.6298 6.41728 16.7685C8.29864 17.6291 10.9606 18.1595 13.9127 18.1595C16.8648 18.1595 19.5168 17.6191 21.4081 16.7685C20.4474 18.6198 17.4653 19.9807 13.9127 19.9807ZM19.4267 11.1043C18.536 10.2137 18.1358 9.15294 18.536 8.75265C18.9363 8.35236 19.9971 8.75266 20.8877 9.64331C21.7784 10.534 22.1787 11.5947 21.7784 11.995C21.3781 12.3953 20.3173 11.995 19.4267 11.1043Z" fill="black"/>
<path d="M13.9928 6.50102C15.654 6.50102 16.9949 5.16005 16.9949 3.49885C16.9949 1.83764 15.654 0.496674 13.9928 0.496674C12.3316 0.496674 10.9906 1.83764 10.9906 3.49885C10.9906 5.16005 12.3316 6.50102 13.9928 6.50102ZM13.9928 1.7976C14.9334 1.7976 15.694 2.55817 15.694 3.49885C15.694 4.43953 14.9334 5.20009 13.9928 5.20009C13.0521 5.20009 12.2915 4.43953 12.2915 3.49885C12.2915 2.55817 13.0521 1.7976 13.9928 1.7976Z" fill="black"/>
</svg>
