<svg width="24" height="24" viewBox="0 0 24 24" fill="none" xmlns="http://www.w3.org/2000/svg">
<path d="M20 1.09512L17 10.0951V14.4351L18.46 15.5351C19.11 16.0251 19.5 16.8051 19.5 17.6151V22.9051H23V10.0951L20 1.09512Z" fill="black"/>
<path d="M17.56 16.7351L13.05 13.3451C12.89 13.2251 12.69 13.1651 12.5 13.1651C12.31 13.1651 12.11 13.2251 11.95 13.3451L7.44 16.7351C7.16 16.9451 7 17.2651 7 17.6151V22.9051H11.28V19.4851H13.72V22.9051H18V17.6151C18 17.2651 17.84 16.9451 17.56 16.7351Z" fill="black"/>
<path d="M2.29999 12.9051H10.04L11.05 12.1451C11.47 11.8351 11.98 11.6651 12.5 11.6651C12.67 11.6651 12.84 11.6851 13 11.7251V6.16512C13 5.61512 12.55 5.16512 12 5.16512H2C1.45 5.16512 1 5.61512 1 6.16512V22.9051H5.5V21.6051H2.29999V18.9051H5.5V17.6151H2.29999V15.9151H6.14999C6.26999 15.7751 6.40001 15.6551 6.54001 15.5451L7.76999 14.6151H2.29999V12.9051ZM2.29999 6.46512H11.7V8.60512H2.29999V6.46512ZM2.29999 9.90512H11.7V11.6051H2.29999V9.90512Z" fill="black"/>
</svg>
