<svg width="24" height="24" viewBox="0 0 24 24" fill="none" xmlns="http://www.w3.org/2000/svg">
<path d="M3.3 4.73C3.3 3.94 3.94 3.3 4.73 3.3H8V2H4.73C3.23 2 2 3.23 2 4.73V5H3.3V4.73Z" fill="black"/>
<path d="M19.27 2H16V3.3H19.27C20.06 3.3 20.7 3.94 20.7 4.73V5H22V4.73C22 3.23 20.77 2 19.27 2Z" fill="black"/>
<path d="M20.7 19.27C20.7 20.06 20.06 20.7 19.27 20.7H16V22H19.27C20.77 22 22 20.77 22 19.27V16H20.7V19.27Z" fill="black"/>
<path d="M3.3 19.27V16H2V19.27C2 20.77 3.23 22 4.73 22H8V20.7H4.73C3.94 20.7 3.3 20.06 3.3 19.27Z" fill="black"/>
<path d="M22 7H2V8.3H22V7Z" fill="black"/>
<path d="M14.61 13.25H18V11.5C18 10.67 17.33 10 16.5 10H7.5C6.68 10 6 10.67 6 11.5V13.25H9.39C9.72 12.11 10.76 11.27 12 11.27C13.24 11.27 14.28 12.11 14.61 13.25Z" fill="black"/>
<path d="M12 15.23C12.6793 15.23 13.23 14.6793 13.23 14C13.23 13.3207 12.6793 12.77 12 12.77C11.3207 12.77 10.77 13.3207 10.77 14C10.77 14.6793 11.3207 15.23 12 15.23Z" fill="black"/>
<path d="M6 16.5C6 17.33 6.68 18 7.5 18H16.5C17.33 18 18 17.33 18 16.5V14.75H14.61C14.28 15.89 13.24 16.73 12 16.73C10.76 16.73 9.72 15.89 9.39 14.75H6V16.5Z" fill="black"/>
</svg>
