<svg width="24" height="24" viewBox="0 0 24 24" fill="none" xmlns="http://www.w3.org/2000/svg">
<path d="M23.666 20.7355L18.5441 15.6137C18.1909 15.2604 18.0849 14.707 18.3204 14.2596C19.3448 12.3286 19.7451 10.0208 19.2153 7.58346C18.4146 3.85096 15.365 0.883784 11.609 0.177316C4.77977 -1.1061 -1.08391 4.76937 0.187734 11.5986C0.894201 15.3428 3.86137 18.3924 7.5821 19.2049C10.0194 19.7347 12.3272 19.3344 14.2582 18.31C14.7056 18.0745 15.259 18.1687 15.6123 18.5337L20.7342 23.6556C21.1934 24.1148 21.9352 24.1148 22.3944 23.6556L23.6425 22.4075C24.1017 21.9483 24.1017 21.2065 23.6425 20.7473L23.666 20.7355ZM9.73682 17.8979C5.2272 17.8979 1.55357 14.2243 1.55357 9.71464C1.55357 5.20502 5.2272 1.53137 9.73682 1.53137C14.2464 1.53137 17.9201 5.20502 17.9201 9.71464C17.9201 14.2243 14.2464 17.8979 9.73682 17.8979Z" fill="black"/>
<path d="M4.34412 11.6339C4.04976 11.3866 3.77894 11.1276 3.54345 10.845C3.73185 12.1402 4.29702 13.4001 5.29785 14.4009C7.74694 16.85 11.7267 16.85 14.1758 14.4009C15.1766 13.4001 15.7418 12.152 15.9302 10.845C15.6947 11.1158 15.4357 11.3866 15.1295 11.6339C12.1506 14.083 7.32306 14.083 4.34412 11.6339Z" fill="black"/>
</svg>
