<svg width="24" height="24" viewBox="0 0 24 24" fill="none" xmlns="http://www.w3.org/2000/svg">
<path d="M17 2H2C1.44772 2 1 2.44772 1 3V6C1 6.55228 1.44772 7 2 7H17C17.5523 7 18 6.55228 18 6V3C18 2.44772 17.5523 2 17 2Z" fill="black"/>
<path d="M17.67 9.67C17.78 9.67 17.89 9.68 18 9.69V9.01H1V10.31H15C15.81 9.91 16.71 9.68 17.67 9.68V9.67Z" fill="black"/>
<path d="M21.65 17.74C22.12 16.86 22.3 15.81 22.06 14.7C21.68 12.94 20.32 11.59 18.56 11.25C15.38 10.64 12.64 13.38 13.25 16.56C13.59 18.33 14.94 19.69 16.69 20.06C17.8 20.3 18.85 20.11 19.73 19.65C20.11 19.45 20.57 19.5 20.88 19.81L22.63 21.56C22.88 21.81 23.3 21.81 23.55 21.56C23.8 21.31 23.8 20.89 23.55 20.64L21.8 18.89C21.5 18.59 21.44 18.12 21.64 17.74H21.65ZM17.67 18.87C15.91 18.87 14.47 17.43 14.47 15.67C14.47 13.91 15.91 12.47 17.67 12.47C19.43 12.47 20.87 13.91 20.87 15.67C20.87 17.43 19.43 18.87 17.67 18.87Z" fill="black"/>
<path d="M12.15 13.3C12.35 12.83 12.61 12.4 12.92 12H0.990005V13.3H12.15Z" fill="black"/>
<path d="M11.67 15.67C11.67 15.44 11.68 15.22 11.71 15H1.01001V16.3H11.71C11.69 16.09 11.68 15.88 11.68 15.67H11.67Z" fill="black"/>
<path d="M1 18V19.3H12.9C12.6 18.9 12.33 18.47 12.14 18H1Z" fill="black"/>
</svg>
