<svg width="24" height="24" viewBox="0 0 24 24" fill="none" xmlns="http://www.w3.org/2000/svg">
<path d="M12.0055 6.76407C8.96981 6.76407 6.50605 9.22782 6.50605 12.2635C6.50605 15.2992 8.96981 17.763 12.0055 17.763C15.0412 17.763 17.5049 15.2992 17.5049 12.2635C17.5049 9.22782 15.0412 6.76407 12.0055 6.76407ZM12.0055 16.1131C9.88272 16.1131 8.15589 14.3863 8.15589 12.2635C8.15589 10.1407 9.88272 8.4139 12.0055 8.4139C14.1283 8.4139 15.8551 10.1407 15.8551 12.2635C15.8551 14.3863 14.1283 16.1131 12.0055 16.1131Z" fill="black"/>
<path d="M21.8165 13.5284C21.8495 13.2644 21.9705 13.0224 22.1685 12.8465L23.6313 11.5486C23.9173 11.2956 24.0493 10.9106 23.9833 10.5367L23.8513 9.78876C23.7853 9.4148 23.5323 9.09586 23.1694 8.95287L21.3546 8.23792C21.1016 8.13893 20.9146 7.95194 20.7936 7.72097C20.6506 7.446 20.5076 7.18202 20.3427 6.92905C20.1997 6.70907 20.1337 6.4451 20.1777 6.18113L20.4636 4.24535C20.5186 3.87139 20.3757 3.4864 20.0787 3.24443L19.4957 2.74948C19.1988 2.5075 18.8028 2.43052 18.4399 2.55151L16.581 3.16744C16.3281 3.25543 16.0641 3.23344 15.8111 3.13445C15.5361 3.01346 15.2502 2.91447 14.9532 2.82648C14.7002 2.74949 14.4803 2.58449 14.3373 2.36451L13.3144 0.692693C13.1164 0.362726 12.7644 0.164734 12.3795 0.164734H11.6205C11.2356 0.164734 10.8836 0.362726 10.6856 0.692693L9.66274 2.36451C9.51975 2.59549 9.29977 2.74949 9.0468 2.82648C8.76083 2.91447 8.47486 3.02446 8.18888 3.13445C7.94691 3.23344 7.67194 3.25543 7.41896 3.16744L5.56015 2.55151C5.19719 2.43052 4.80123 2.5075 4.50426 2.74948L3.92131 3.24443C3.62434 3.4864 3.48136 3.87139 3.53635 4.24535L3.82232 6.17015C3.86632 6.43413 3.80033 6.69809 3.65734 6.91807C3.49236 7.17104 3.33837 7.43502 3.20639 7.70999C3.0854 7.94097 2.88742 8.13895 2.64544 8.22694L0.830626 8.94186C0.478661 9.08485 0.214688 9.39283 0.148695 9.77779L0.0167079 10.5257C-0.0492855 10.8997 0.0827012 11.2846 0.368672 11.5376L1.83153 12.8355C2.02951 13.0115 2.15049 13.2534 2.18349 13.5174C2.22749 13.8254 2.28248 14.1224 2.34847 14.4193C2.40347 14.6833 2.38147 14.9472 2.24948 15.1782L1.31458 16.8941C1.1276 17.235 1.13859 17.642 1.32558 17.9719L1.71054 18.6319C1.89752 18.9619 2.24948 19.1708 2.63444 19.1818L4.58125 19.2368C4.84522 19.2368 5.0872 19.3468 5.28518 19.5338C5.51615 19.7428 5.74713 19.9407 6.00011 20.1277C6.20908 20.2927 6.36307 20.5127 6.41806 20.7767L6.80302 22.6905C6.88002 23.0644 7.14399 23.3724 7.50695 23.5044L8.22188 23.7684C8.58485 23.9004 8.98081 23.8344 9.28877 23.5924L10.8176 22.3715C11.0156 22.2175 11.2576 22.1295 11.5216 22.1295C11.8185 22.1295 12.2035 22.1295 12.5005 22.1295C12.7534 22.1295 12.9954 22.2065 13.2044 22.3715L14.7332 23.5924C15.0302 23.8344 15.4372 23.9004 15.7891 23.7684L16.504 23.5044C16.867 23.3724 17.131 23.0644 17.208 22.6905L17.5929 20.7767C17.6479 20.5127 17.8019 20.2927 18.0109 20.1277C18.2529 19.9407 18.4948 19.7428 18.7258 19.5338C18.9238 19.3578 19.1658 19.2478 19.4298 19.2368L21.3766 19.1818C21.7615 19.1818 22.1135 18.9619 22.3005 18.6319L22.6854 17.9719C22.8724 17.642 22.8834 17.235 22.6964 16.8941L21.7615 15.1782C21.6295 14.9472 21.6075 14.6723 21.6625 14.4193C21.7285 14.1224 21.7835 13.8254 21.8275 13.5174L21.8165 13.5284ZM12.0055 20.5127C7.45196 20.5127 3.75633 16.8171 3.75633 12.2635C3.75633 7.70997 7.45196 4.01435 12.0055 4.01435C16.559 4.01435 20.2547 7.70997 20.2547 12.2635C20.2547 16.8171 16.559 20.5127 12.0055 20.5127Z" fill="black"/>
</svg>
