<svg width="24" height="24" viewBox="0 0 24 24" fill="none" xmlns="http://www.w3.org/2000/svg">
<path d="M22.9451 3.27471C22.044 3.51647 21.1319 3.6813 20.1539 3.6813C16.9011 3.6813 14.011 2.24176 12 0C9.98901 2.24176 7.09889 3.6813 3.84614 3.6813C2.87911 3.6813 1.95603 3.50548 1.05493 3.27471C1.05493 3.52746 1.01097 3.78021 1.01097 4.03295C1.01097 12.7912 3.40658 20.4286 12 24C20.5934 20.4286 22.989 12.7912 22.989 4.03295C22.989 3.76922 22.9451 3.52746 22.9451 3.27471ZM2.45053 5.01099C2.93405 5.07693 3.39559 5.10992 3.84614 5.10992C4.35164 5.10992 4.85713 5.06593 5.36263 4.99999C5.34065 6.62637 5.36263 13.7803 7.04395 18.9671C4.07691 15.7912 2.59339 11.2198 2.45053 5.01099ZM12 22.4506V2.01101C14.2637 4.00002 17.1539 5.10992 20.1539 5.10992C20.6044 5.10992 21.0659 5.07693 21.5495 5.01099C21.3517 14.022 18.2967 19.5935 12 22.4506Z" fill="black"/>
</svg>
