<svg width="24" height="24" viewBox="0 0 24 24" fill="none" xmlns="http://www.w3.org/2000/svg">
<path d="M19.2 3.6H4.79998V5.15999H19.2V3.6Z" fill="black"/>
<path d="M15 7.2H4.79998V20.4H15V7.2Z" fill="black"/>
<path d="M19.2 7.2H16.8V16.2H19.2V7.2Z" fill="black"/>
<path d="M1.19998 0V24H16.092C16.728 24 17.34 23.748 17.784 23.292L22.092 18.984C22.548 18.528 22.8 17.928 22.8 17.292V0H1.19998ZM20.64 18H16.8V21.84C16.8 22.176 16.536 22.44 16.2 22.44H2.75998V1.55999H21.24V17.4C21.24 17.736 20.976 18 20.64 18Z" fill="black"/>
</svg>
