<svg width="24" height="24" viewBox="0 0 24 24" fill="none" xmlns="http://www.w3.org/2000/svg">
<path d="M21.8182 20.7273V2.18182H7.86546C7.5491 0.927273 6.42546 0 5.07273 0C3.48001 0 2.18182 1.29821 2.18182 2.89094V20.8582C2.18182 22.5927 3.5891 24 5.32364 24H21.8182V22.5818H5.32364C4.37455 22.5818 3.60001 21.8073 3.60001 20.8582V20.6073C3.60001 19.8 4.26546 19.1345 5.07273 19.1345C5.88001 19.1345 6.54546 19.9091 6.54546 20.7164H21.8182V20.7273ZM20.4 19.3091H7.96364V3.59999H20.4V19.3091Z" fill="black"/>
<path d="M18.5455 16.0364H9.81819V17.4545H18.5455V16.0364Z" fill="black"/>
<path d="M18.5455 12.7636H9.81819V14.1818H18.5455V12.7636Z" fill="black"/>
<path d="M18.5455 9.49092H9.81819V10.9091H18.5455V9.49092Z" fill="black"/>
<path d="M18.5455 5.45455H9.81819V6.87271H18.5455V5.45455Z" fill="black"/>
</svg>
