<svg width="24" height="24" viewBox="0 0 24 24" fill="none" xmlns="http://www.w3.org/2000/svg">
<path d="M23.4052 13.153L20.16 1.05914L0 6.45384L3.24522 18.5478L23.4052 13.1426V13.153ZM19.2 2.71824L21.7357 12.193L4.19478 16.8886L1.65913 7.41389L19.2 2.71824Z" fill="black"/>
<path d="M13.9096 12.6104L15.7043 10.3982L18.3652 11.4208L16.8104 9.02089L18.6052 6.80872L15.8504 7.54955L14.2957 5.1495L14.1496 7.9983L11.3948 8.73913L14.0557 9.76172L13.9096 12.6104Z" fill="black"/>
<path d="M6.30261 11.64C5.88522 11.7548 5.63478 12.1825 5.74957 12.5999C5.84348 12.9443 6.15652 13.1843 6.50087 13.1843C6.57391 13.1843 6.63652 13.1843 6.70957 13.153C7.11652 13.0382 7.36696 12.6104 7.25217 12.193C7.14783 11.7756 6.72 11.5252 6.30261 11.64Z" fill="black"/>
<path d="M6.88696 13.8522C6.48 13.9669 6.22957 14.3947 6.34435 14.8225C6.43826 15.1669 6.7513 15.3965 7.09565 15.3965C7.15826 15.3965 7.2313 15.3965 7.29391 15.3652C7.7113 15.2608 7.96174 14.8329 7.85739 14.4156C7.74261 13.9982 7.31478 13.7478 6.88696 13.8522Z" fill="black"/>
<path d="M5.3113 8.74956C5.38435 8.74956 5.44696 8.74953 5.52 8.71823C5.93739 8.60345 6.17739 8.17557 6.07304 7.75818C5.95826 7.34079 5.53044 7.09045 5.11304 7.20524C4.69565 7.32002 4.44522 7.74776 4.56 8.16515C4.65391 8.5095 4.96696 8.74956 5.3113 8.74956Z" fill="black"/>
<path d="M5.70783 9.41738C5.29043 9.53216 5.04 9.95992 5.15478 10.3877C5.2487 10.7321 5.56174 10.9617 5.90609 10.9617C5.9687 10.9617 6.04174 10.9617 6.10435 10.9304C6.53217 10.826 6.77217 10.3982 6.66783 9.98077C6.55304 9.56338 6.12522 9.31303 5.70783 9.41738Z" fill="black"/>
<path d="M23.8017 14.666L21.287 15.3339L20.8696 15.6365L18.5635 17.3165L19.4504 20.0295L17.1339 18.3495L14.8278 20.0295L15.7148 17.3165L15.2243 16.9617L3.65217 20.0608L3.13043 20.1965V22.9409H24V14.6139L23.8017 14.666Z" fill="black"/>
</svg>
