<svg width="24" height="24" viewBox="0 0 24 24" fill="none" xmlns="http://www.w3.org/2000/svg">
<path d="M4.3 7.82991H8.7V10.0699C9.2 9.86991 9.64 9.66991 10 9.50991V7.82991H14V9.50991C14.36 9.67991 14.8 9.86991 15.3 10.0699V7.82991H19.7V11.4599C20.12 11.5599 20.55 11.6499 21 11.7399V2.52991C21 1.97991 20.55 1.52991 20 1.52991H4C3.45 1.52991 3 1.97991 3 2.52991V11.7399C3.45 11.6499 3.88 11.5599 4.3 11.4599V7.82991ZM15.3 2.82991H19.7V6.52991H15.3V2.82991ZM10 2.82991H14V6.52991H10V2.82991ZM4.3 2.82991H8.7V6.52991H4.3V2.82991Z" fill="black"/>
<path d="M12 10.1499C12 10.1499 7.69 12.8199 0.5 13.6399C0.5 13.6399 1.69 18.3799 3.98 22.4699C4.49 22.4699 4.95 22.2699 5.3 21.9499C5.66 21.6299 6.12 21.4299 6.64 21.4299C7.16 21.4299 7.62 21.6299 7.98 21.9499C8.34 22.2699 8.8 22.4699 9.32 22.4699C9.84 22.4699 10.3 22.2699 10.66 21.9499C11.02 21.6299 11.48 21.4299 12 21.4299C12.52 21.4299 12.98 21.6299 13.34 21.9499C13.7 22.2699 14.16 22.4699 14.68 22.4699C15.2 22.4699 15.66 22.2699 16.02 21.9499C16.38 21.6299 16.84 21.4299 17.36 21.4299C17.88 21.4299 18.34 21.6299 18.7 21.9499C19.05 22.2599 19.51 22.4599 20.02 22.4699C22.31 18.3699 23.5 13.6399 23.5 13.6399C16.31 12.8199 12 10.1499 12 10.1499ZM4.76 20.6699C4.76 20.6699 3.38 17.6899 2.61 14.9399C2.61 14.9399 4.7 14.7199 6.69 13.8399C6.69 13.8399 4.21 16.9799 4.76 20.6699Z" fill="black"/>
</svg>
