<svg width="24" height="24" viewBox="0 0 24 24" fill="none" xmlns="http://www.w3.org/2000/svg">
<path d="M20.01 11.48C17.49 10.62 14.8 10.14 12 10.14C10.39 10.14 8.81999 10.31 7.29999 10.61V7.5C7.29999 4.91 9.41 2.8 12 2.8C14.25 2.8 16.13 4.39 16.59 6.5H17.91C17.43 3.66 14.97 1.5 12 1.5C8.69 1.5 6 4.19 6 7.5V10.89C5.32 11.06 4.65001 11.26 3.99001 11.48C3.39001 11.68 3 12.26 3 12.89V21C3 21.83 3.67 22.5 4.5 22.5H19.5C20.33 22.5 21 21.83 21 21V12.89C21 12.26 20.61 11.68 20.01 11.48ZM13 18.5H11V14.4C11 13.85 11.45 13.4 12 13.4C12.55 13.4 13 13.85 13 14.4V18.5Z" fill="black"/>
</svg>
