<svg width="24" height="24" viewBox="0 0 24 24" fill="none" xmlns="http://www.w3.org/2000/svg">
<path d="M12 5C6.97 5 2.56 7.79 0 12C2.56 16.21 6.97 19 12 19C17.03 19 21.44 16.21 24 12C21.44 7.79 17.03 5 12 5ZM17.35 9.75C17.35 12.7 14.95 15.1 12 15.1C9.05 15.1 6.65 12.7 6.65 9.75C6.65 8.86 6.87 8.02003 7.26 7.28003C8.36 6.81003 9.51 6.51 10.71 6.38C9.35 6.9 8.38 8.21 8.38 9.75C8.38 11.75 10 13.36 11.99 13.36C13.98 13.36 15.6 11.74 15.6 9.75C15.6 9.22 15.48 8.72001 15.27 8.26001C15.05 8.79001 14.53 9.17004 13.91 9.17004C13.1 9.17004 12.44 8.50995 12.44 7.69995C12.44 7.11995 12.78 6.62 13.27 6.38C14.45 6.51 15.6 6.81001 16.69 7.26001C17.09 8.01001 17.33 8.83999 17.33 9.73999L17.35 9.75ZM12 17.7C7.86 17.7 4.01 15.58 1.55 12C2.64 10.42 4.01 9.13994 5.54 8.18994C5.42 8.68994 5.35 9.22 5.35 9.75C5.35 13.42 8.33 16.4 12 16.4C15.67 16.4 18.65 13.42 18.65 9.75C18.65 9.21 18.58 8.69005 18.46 8.18005C20 9.13005 21.37 10.41 22.45 12C19.99 15.58 16.14 17.7 12 17.7Z" fill="black"/>
</svg>
