<svg width="24" height="24" viewBox="0 0 24 24" fill="none" xmlns="http://www.w3.org/2000/svg">
<path d="M20.7273 18.7636H14.1818V20.1818H20.7273V18.7636Z" fill="black"/>
<path d="M21.8182 7.09091H2.18182C0.981818 7.09091 0 8.07273 0 9.27273V21.2727C0 22.4727 0.981818 23.4545 2.18182 23.4545H21.8182C23.0182 23.4545 24 22.4727 24 21.2727V9.27273C24 8.07273 23.0182 7.09091 21.8182 7.09091ZM7.09091 14.7273C7.09091 15.0218 6.84 15.2727 6.54545 15.2727H3.81818C3.51273 15.2727 3.27273 15.0218 3.27273 14.7273V13.0909C3.27273 12.7855 3.51273 12.5455 3.81818 12.5455H6.54545C6.84 12.5455 7.09091 12.7855 7.09091 13.0909V14.7273ZM22.5818 21.2727C22.5818 21.6873 22.2327 22.0364 21.8182 22.0364H8.42182C9.20727 20.2255 11.2036 16.0364 13.9418 13.3091C14.2691 12.9818 14.6509 12.7309 15.0655 12.5236C16.2545 11.9454 18.9818 10.7782 22.5927 10.1127V21.2727H22.5818Z" fill="black"/>
<path d="M20.4 3.81818H3.6C2.81455 3.81818 2.18182 4.4509 2.18182 5.23635H21.8182C21.8182 4.4509 21.1855 3.81818 20.4 3.81818Z" fill="black"/>
<path d="M18.2182 0.545456H5.78182C4.99636 0.545456 4.36364 1.17817 4.36364 1.96362H19.6364C19.6364 1.17817 19.0036 0.545456 18.2182 0.545456Z" fill="black"/>
</svg>
