<svg width="100" height="100" viewBox="0 0 100 100" fill="none" xmlns="http://www.w3.org/2000/svg">
<g clip-path="url(#clip0_15980_16420)">
<rect width="100" height="100" fill="#11B67A"/>
<path d="M31.1314 47.2787C29.929 46.2742 28.6383 45.5007 27.2945 44.9407L26.2159 45.1452C24.262 45.5185 22.4232 44.0695 22.3259 42.0692L22.3082 41.6781H22.2905L21.6451 28.4143C21.5302 26.6008 20.3632 26.1652 20.0538 26.0763C20.0273 26.0763 20.0007 26.0674 19.9742 26.0585L0.754109 20.2534C0.36511 20.1645 0.0556805 19.9422 0.0379987 19.6755H0.0114502L0.630323 34.8951C0.745255 37.082 2.1775 38.9844 4.24627 39.6778L18.153 44.3629C8.10972 47.0387 0.108741 59.938 0.108741 73.8062C0.108741 82.225 2.96434 89.4347 7.95061 93.5863C10.6648 95.8443 13.7768 97 17.0744 97C17.9939 97 18.931 96.9111 19.877 96.7333C30.4153 94.7153 38.9821 81.3982 38.9821 67.041C38.9821 58.6223 36.1265 51.4126 31.1402 47.261L31.1314 47.2787ZM19.205 93.2574C15.9428 93.8797 12.8219 93.0529 10.1962 90.866C6.08516 87.4434 3.63625 81.0782 3.63625 73.824C3.63625 61.0936 10.9211 49.3412 19.8681 47.6254C20.5754 47.4921 21.2738 47.421 21.9722 47.421C24.4654 47.421 26.8259 48.3011 28.8858 50.0168C32.9968 53.4394 35.4458 59.8046 35.4458 67.0588C35.4458 79.7891 28.1609 91.5416 19.2139 93.2574H19.205Z" fill="black"/>
<path d="M42.4036 44.1484C45.8603 48.7178 49.9449 53.4295 55.4704 53.4295C55.6561 53.4295 55.8505 53.4294 56.045 53.4117L54.9311 57.5899L58.7857 56.8521L65.0539 33.276C65.0539 33.276 62.216 32.6181 60.1826 37.8276L57.0352 49.6779C53.322 50.5491 50.0774 48.4333 45.2149 41.997C40.7591 36.1119 33.987 24.9728 33.9163 24.8662C33.4035 24.0305 32.3161 23.7638 31.4851 24.2794C30.654 24.795 30.3888 25.8885 30.9015 26.7241C31.1845 27.1864 37.8417 38.121 42.4036 44.1572V44.1484Z" fill="#006A4D"/>
<path d="M50.6698 59.4311C43.155 50.6123 32.8465 34.966 32.7227 34.7793C32.1834 33.9614 31.0872 33.7392 30.2738 34.2726C29.4605 34.8149 29.2395 35.9172 29.7699 36.7351C30.2738 37.5085 41.0686 53.8748 48.7778 62.6581C49.2022 61.3868 49.8564 60.2667 50.6609 59.4222L50.6698 59.4311Z" fill="#006A4D"/>
<path d="M78.4125 84.8571C75.159 84.8571 72.0912 83.7192 69.4213 81.4967C64.5058 77.4073 61.6944 70.3043 61.6944 62.01C61.6944 47.8662 70.1374 34.7447 80.5254 32.7533C84.7956 31.9355 88.8624 33.0022 92.275 35.847C97.1906 39.9364 100.002 47.0394 100.002 55.3337C100.002 69.4775 91.5589 82.5991 81.1709 84.5904C80.2426 84.7682 79.3142 84.8571 78.4125 84.8571ZM83.2396 35.9981C82.5589 35.9981 81.8693 36.0604 81.1709 36.2026C72.3477 37.8917 65.1777 49.4753 65.1777 62.0189C65.1777 69.1664 67.5912 75.4427 71.6404 78.8031C74.2307 80.9633 77.2985 81.7723 80.5166 81.1589C89.3398 79.4698 96.5098 67.8863 96.5098 55.3426C96.5098 48.1951 94.0962 41.9188 90.0471 38.5584C88.0137 36.8693 85.6974 36.007 83.2396 36.007V35.9981Z" fill="black"/>
<path d="M62.879 13.8702C62.7022 12.8123 61.6677 12.1722 60.6776 12.4389L51.5803 14.9103C50.6697 15.0614 42.4211 16.2615 32.6077 13.3368C28.5586 12.1277 26.5429 10.8031 25.535 9.82523C25.0488 9.35406 25.2698 8.53621 25.9152 8.34953L32.2099 6.50931C33.1029 6.2515 33.7217 5.3714 33.5537 4.45574C33.3592 3.40673 32.316 2.78444 31.317 3.06891L23.6873 5.29139C22.2374 5.71811 21.1676 7.02492 21.1234 8.66955C21.1058 9.2474 21.2649 9.82524 21.5301 10.3409C22.8209 12.9012 26.0213 14.9992 31.0429 16.5727C31.8475 16.8305 32.3337 17.6572 32.1569 18.4929L25.6323 48.8786C25.6146 49.012 23.369 62.2669 19.6912 68.4276C19.2668 69.1299 19.3553 70.0633 19.9476 70.6323C20.3101 70.979 20.7521 71.1479 21.1942 71.1479C21.7954 71.1479 22.3789 70.8367 22.706 70.2856C26.7463 63.5559 29.0272 50.0343 29.1068 49.5454L35.6137 19.4975C35.817 18.5729 36.7011 17.9684 37.6206 18.1195C40.8298 18.6529 43.7208 18.8218 46.0725 18.8218C49.4232 18.8218 51.6687 18.4929 52.1373 18.4129C52.2611 18.3951 52.3672 18.3685 52.4821 18.3418L61.491 15.8971C62.3839 15.657 63.0293 14.7858 62.879 13.8613V13.8702Z" fill="#006A4D"/>
<path d="M50.7227 66.9244C50.7227 63.084 52.9594 59.5369 55.7266 59.0124L81.2325 54.1229C81.6127 54.0518 81.9664 54.0874 82.3023 54.1852V54.1496L79.9064 53.3851C79.1638 53.145 78.377 53.1006 77.6167 53.2428L53.2777 57.91C50.5105 58.4434 48.2737 61.9816 48.2737 65.822C48.2737 68.7024 49.5203 70.8893 51.2797 71.6272L53.7551 72.7562H53.7727C51.9957 72.0361 50.7227 69.8314 50.7227 66.9244Z" fill="black"/>
<path d="M75.9637 22.9019C75.168 22.4841 74.2574 22.0485 73.1965 21.5684C70.3674 20.2883 68.0069 19.7548 66.2652 19.5504C64.5855 19.3548 62.8792 19.5593 61.2702 20.0927L58.6091 20.9639C57.6012 21.2928 57.2299 22.5107 57.8488 23.3819C57.946 23.5242 58.0344 23.6664 58.1051 23.8175C58.388 24.4487 58.0609 25.1955 57.4155 25.4178C56.5314 25.72 55.4263 25.9244 54.6218 26.3245C53.0128 27.1335 53.331 28.7248 53.331 28.7248C53.331 29.7204 55.2142 30.6717 57.5216 30.5295C60.6778 30.3339 63.6218 27.7113 70.7741 29.2404C72.1887 29.5427 73.6474 29.5071 75.0531 29.1604L75.2211 29.1159C78.2004 28.3781 78.6956 24.3154 75.9726 22.893L75.9637 22.9019Z" fill="#6CF479"/>
<path d="M11.0095 57.8397C11.0095 57.8397 4.29927 67.743 6.99574 81.4602C6.99574 81.4602 7.14604 73.3882 11.0802 75.5929C15.0144 77.7976 18.1529 81.5313 23.5547 77.5042C23.5547 77.5042 14.3779 79.0421 14.2895 67.4586C14.2188 57.9197 11.0095 57.8486 11.0095 57.8486V57.8397Z" fill="white"/>
<path d="M81.1797 66.4968C81.1797 66.4968 85.1228 65.8389 86.723 61.3584C86.723 61.3584 88.111 63.6342 86.7937 66.8613C86.7937 66.8613 91.4617 66.0523 93.946 58.3536C93.946 58.3536 94.1936 69.3416 84.3183 77.4225C84.3183 77.4225 87.386 69.4482 81.1797 66.4968Z" fill="white"/>
<path d="M41.8111 22.3871L21.8749 15.8263C21.0262 15.5507 20.1244 15.4885 19.2492 15.6574L0.506461 19.1956C0.506461 19.1956 0.126313 19.2401 0.0202226 19.5601C-0.0858681 19.889 0.285447 20.1646 0.736333 20.2713L19.9564 26.0764C19.9564 26.0764 20.0095 26.0853 20.036 26.0942C20.3454 26.1742 21.5301 26.6098 21.6362 28.4589L22.3258 42.0783C22.4319 44.0785 24.2619 45.5275 26.2158 45.1541L36.0469 43.2695C38.2748 42.8428 39.9899 41.0292 40.3082 38.7712L42.2974 22.8583C42.3416 22.5293 41.8111 22.396 41.8111 22.396V22.3871Z" fill="#6CF479"/>
<path d="M81.2325 54.1239L55.7266 59.0133C52.9594 59.5467 50.7227 63.085 50.7227 66.9254C50.7227 70.3569 52.4908 72.8016 54.7718 72.9794L54.7276 66.3031L56.3543 65.743L57.9015 72.1704L81.6658 63.2628C83.319 62.6405 84.5567 60.4446 84.5567 58.1155C84.5567 55.5552 83.0627 53.7683 81.2237 54.1239H81.2325Z" fill="#6CF479"/>
<path d="M57.9457 64.8016C57.8219 64.0015 57.318 63.4236 56.6372 63.4236C55.7532 63.4236 54.9221 64.3571 54.7629 65.5305C54.6922 66.0462 54.7807 66.5173 54.9663 66.8907L59.1922 75.9051L60.6068 75.265L57.9457 64.7927V64.8016Z" fill="white"/>
<path d="M62.3575 74.3914C62.1719 74.3203 61.9597 74.3203 61.7741 74.3914L57.8222 75.7783C57.3182 75.9472 56.9558 76.4895 56.9558 77.1473C56.9558 77.8052 57.2917 78.2941 57.7514 78.4897L63.3389 80.401C63.6129 80.4988 63.9135 80.4899 64.1876 80.3832L67.5118 79.0675C67.8477 78.9342 68.0688 78.6053 68.0688 78.2408V77.0673C68.0688 76.6939 67.83 76.3561 67.4764 76.2317L62.3664 74.4092L62.3575 74.3914Z" fill="#006A4D"/>
<path d="M63.6481 80.4559C63.5243 80.4381 63.4271 80.367 63.3563 80.287C63.1707 80.0647 63.1618 79.7803 63.1972 79.5669C63.2326 79.3535 63.1176 79.1224 62.9054 79.0513L57.8131 77.3355C57.5567 77.2466 57.3799 77.1666 57.2473 76.8199C57.1324 76.5088 57.2738 76.1798 57.3092 76.1265C57.0793 76.3843 56.9467 76.7399 56.9467 77.1489C56.9467 77.7712 57.2827 78.2956 57.7424 78.4912L63.3298 80.4025C63.4359 80.4381 63.542 80.4559 63.6393 80.4648L63.6481 80.4559Z" fill="black"/>
<path d="M2.69912 19.8519L20.5665 16.4738L38.3279 22.3766L21.5125 25.5326L2.69912 19.8519Z" fill="#00482F"/>
</g>
<defs>
<clipPath id="clip0_15980_16420">
<rect width="100" height="100" fill="white"/>
</clipPath>
</defs>
</svg>
