<svg width="100" height="100" viewBox="0 0 100 100" fill="none" xmlns="http://www.w3.org/2000/svg">
<rect width="100" height="100" fill="#11B67A"/>
<path d="M98.1318 27.0162L85.2833 27.3265L61.5454 13.5721C60.0054 12.6777 57.7364 13.0063 56.5153 14.2932L20.0291 52.6996L0 66.0615V73.0802C0.0455622 73.8742 0.510306 74.6318 1.34865 75.1155L36.5864 95.5326C38.1264 96.4271 40.3954 96.0984 41.6165 94.8115L97.3572 36.1341C97.8949 35.5682 98.15 34.911 98.1409 34.2813V27.0162H98.1318Z" fill="black"/>
<path d="M41.6165 87.6087C40.3863 88.9047 38.1264 89.2242 36.5864 88.3297L1.34866 67.9126C-0.191341 67.0182 -0.446494 65.2292 0.774572 63.9423L56.5153 5.26486C57.7455 3.96883 60.0054 3.64941 61.5454 4.54385L96.7832 24.9609C98.3232 25.8554 98.5783 27.6443 97.3572 28.9312L41.6165 87.6087Z" fill="#006A4D"/>
<path d="M84.8916 53.9681C84.8916 53.9681 91.7624 56.3502 100 56.186C100 56.186 89.9399 58.4221 88.0536 64.1539C85.8575 70.8166 91.4252 76.5483 91.4252 76.5483C91.4252 76.5483 78.9777 68.2336 75.114 78.6749C75.114 78.6749 73.4737 82.6634 75.6607 88.9063C75.6607 88.9063 69.7376 79.3777 64.8989 74.9876L84.8916 53.9681Z" fill="white"/>
<path d="M91.6892 34.892L92.7372 33.7876C83.7432 33.7876 74.8039 34.9193 71.9244 35.3209C73.027 32.5554 76.2437 23.7205 76.9362 13.4617L75.8792 12.8502C75.2049 24.3868 71.2227 34.2074 70.6304 35.613C60.2058 41.1622 49.0431 44.6122 40.933 46.6201L34.3538 39.4463C36.7322 33.8789 39.5297 26.9789 41.4524 21.1284L39.6573 23.0177C37.3063 29.7535 34.0713 37.411 31.7386 42.732L24.7584 43.5718C24.1206 42.7686 23.428 41.865 22.699 40.8793L21.9336 41.6825C23.0544 43.1884 24.075 44.4845 24.968 45.5706L24.0659 51.5944L24.239 51.6217C24.0477 51.7404 23.8563 51.859 23.6649 51.9686C22.7992 52.4979 21.97 52.9999 21.1317 53.4654C21.1317 53.4654 21.1134 53.4563 21.1043 53.4563L21.0861 53.4928C20.9677 53.5567 20.8492 53.6297 20.7307 53.6936C17.4685 55.4368 11.7915 56.6872 6.9163 57.4995L5.65878 58.8229C10.8255 58.0198 17.3591 56.6872 21.1317 54.7067C22.1796 55.2725 24.4759 56.523 25.4054 57.0888C25.0682 58.1202 24.722 59.2337 24.4122 60.4293C23.51 61.3876 16.5573 68.8627 12.8394 74.5762L13.7871 75.1238C17.6963 69.1364 25.2232 61.1686 25.3052 61.0773L25.4054 60.9769L25.4419 60.84C26.18 58.0198 27.0456 55.6559 27.802 53.8396L31.7112 52.5801C34.1807 55.1448 37.7619 59.5166 40.1676 65.3579C40.2769 66.4166 41.3886 78.1266 40.3862 88.4583C40.8236 88.2667 41.2246 88.0111 41.5526 87.6825C42.3272 78.5099 41.5526 68.5615 41.3066 65.869C43.7943 66.2524 52.4967 67.6488 59.0941 69.2186L59.9688 68.3059C52.8703 66.5718 42.9469 65.0111 41.0879 64.7281C39.2016 60.2194 36.6866 56.6142 34.4905 54.0039L38.3724 50.2527C47.7491 50.4352 62.7937 50.8095 75.9247 51.5031L76.918 50.4626C61.8187 49.6321 43.9128 49.2487 34.9644 49.0936C42.8193 47.4964 57.6634 43.7817 71.25 36.5257C72.216 36.3797 81.7931 35.0015 91.7166 34.892H91.6892ZM31.2191 43.882C30.2623 46.0451 29.4969 47.7154 29.0868 48.6007C28.4307 47.9162 27.2097 46.5836 25.5603 44.5574L31.2191 43.8729V43.882ZM25.7608 56.021C24.8769 55.5007 23.3278 54.6428 22.2525 54.0587C22.9177 53.6753 23.5738 53.2828 24.2208 52.8813C25.4328 52.1328 26.6812 51.3753 28.0025 50.7182C27.4193 51.8682 26.5991 53.657 25.7608 56.0118V56.021ZM25.2505 50.992L25.8975 46.684C26.9819 47.9618 27.802 48.8472 28.3214 49.3765C27.2552 49.8603 26.2347 50.417 25.2505 50.992ZM28.3761 52.4979C28.8044 51.5579 29.1688 50.846 29.4149 50.3987C29.752 50.6908 30.2259 51.1198 30.8364 51.7039L28.3761 52.4979ZM36.8142 50.2162L33.7615 53.1642C32.5587 51.8134 31.5107 50.7912 30.7635 50.1158C32.0666 50.1341 34.1534 50.1614 36.8142 50.2162ZM30.1803 48.8563C30.8455 47.396 32.2306 44.3475 33.88 40.5416L39.7211 46.9122C35.2104 47.9892 31.7841 48.6007 30.1803 48.8563Z" fill="#6CF479"/>
<path d="M78.8498 23.6646L72.8721 20.1598C72.2524 19.7947 72.134 18.9459 72.626 18.4257C73.3186 17.6955 74.4121 17.5495 75.2778 18.0515L81.2555 21.5562C81.8843 21.9213 81.9936 22.7793 81.4924 23.2995H81.4833C80.7908 24.0205 79.7064 24.1666 78.8498 23.6646Z" fill="#024731"/>
<path d="M30.3353 71.5002C30.2624 73.6177 27.8658 75.4065 24.9772 75.4887C22.0885 75.5708 19.8104 73.928 19.8924 71.8105C19.9653 69.6931 22.3619 67.9041 25.2505 67.822C28.1392 67.7398 30.4173 69.3827 30.3353 71.5002Z" fill="#024731"/>
<path d="M69.5999 17.6242C70.586 17.5213 71.3244 16.8526 71.2493 16.1306C71.1742 15.4087 70.3139 14.9069 69.3278 15.0098C68.3417 15.1127 67.6032 15.7814 67.6784 16.5034C67.7535 17.2253 68.6138 17.7271 69.5999 17.6242Z" fill="#024731"/>
</svg>
