<svg width="100" height="100" viewBox="0 0 100 100" fill="none" xmlns="http://www.w3.org/2000/svg">
<g clip-path="url(#clip0_15980_16463)">
<rect width="100" height="100" fill="#11B67A"/>
<path d="M26.7637 89.9683C24.8918 88.7041 23.1145 87.303 21.4424 85.7755C23.1145 87.2925 24.8918 88.6936 26.7637 89.9683Z" fill="black"/>
<path d="M20.3381 14.9893C28.7827 7.26736 39.9511 2.5057 52.2027 2.295C50.499 2.10538 48.7743 2 47.0286 2C35.04 2 24.1135 6.4983 15.8161 13.9042L20.3486 14.9893H20.3381Z" fill="black"/>
<path d="M15.2801 20.3741C16.174 19.2574 17.131 18.1934 18.1195 17.161L13.5344 16.0655C12.5353 17.0873 11.5783 18.1407 10.6739 19.2469L15.2801 20.3741Z" fill="black"/>
<path d="M4.46912 50.9237C4.46912 41.7902 7.00359 33.236 11.3889 25.9249L6.76168 24.7977C2.49204 31.8876 0.03125 40.1889 0.03125 49.0696C0.03125 67.1788 10.2532 82.8965 25.218 90.766C12.6824 81.959 4.46912 67.3895 4.46912 50.9132V50.9237Z" fill="black"/>
<path d="M53.0334 3.8518C59.9953 3.8518 66.5891 5.37931 72.5308 8.10779C71.3845 23.6991 64.9064 38.985 53.0334 50.9313C52.9914 34.0653 46.7868 18.6741 36.5859 6.83314C41.7074 4.91582 47.2494 3.86235 53.0334 3.86235V3.8518Z" fill="#006A4D"/>
<path d="M6.04632 50.9214C6.04632 43.9475 7.57124 37.3422 10.295 31.3901C25.8592 32.5384 41.1184 39.0278 53.044 50.9214C36.2073 50.9636 20.8429 57.1791 9.02247 67.3977C7.10849 62.2673 6.05685 56.7155 6.05685 50.9214H6.04632Z" fill="#006A4D"/>
<path d="M53.0336 98C46.0717 98 39.478 96.4725 33.5362 93.744C34.6825 78.1527 41.1606 62.8668 53.0336 50.9205C53.0756 67.7865 59.2803 83.1777 69.4812 95.0187C64.3597 96.936 58.8176 97.9895 53.0336 97.9895V98Z" fill="#006A4D"/>
<path d="M100.031 50.9198C100.031 57.8938 98.5064 64.4991 95.7827 70.4512C80.2184 69.3029 64.9591 62.8141 53.0336 50.9205C69.8703 50.8783 85.2348 44.6622 97.0552 34.4436C98.9691 39.5739 100.021 45.1257 100.021 50.9198H100.031Z" fill="#006A4D"/>
<path d="M19.8123 17.648C24.734 12.7177 30.4759 9.1254 36.5964 6.83937C46.7973 18.6804 52.9914 34.0715 53.0335 50.927C41.0974 39.0334 25.8487 32.544 10.274 31.3957C12.5455 26.4128 15.711 21.746 19.8123 17.6374V17.648Z" fill="#6CF479"/>
<path d="M19.8123 84.216C14.8907 79.2858 11.3046 73.5338 9.02254 67.4027C20.8429 57.184 36.2073 50.9791 53.0335 50.9369C41.1605 62.8938 34.6825 78.1691 33.5362 93.771C28.5619 91.4955 23.9032 88.3246 19.8018 84.216H19.8123Z" fill="#6CF479"/>
<path d="M86.2651 84.216C81.3435 89.1463 75.6015 92.7386 69.481 95.0246C59.2801 83.1836 53.086 67.7924 53.0439 50.9369C64.98 62.8306 80.2287 69.3199 95.8035 70.4682C93.5319 75.4511 90.3665 80.118 86.2651 84.2265V84.216Z" fill="#6CF479"/>
<path d="M86.2651 17.6453C91.1868 22.5756 94.7729 28.3275 97.0549 34.4587C85.2345 44.6773 69.8701 50.8823 53.0439 50.9244C64.9169 38.9675 71.395 23.6922 72.5413 8.09037C77.5155 10.3659 82.1743 13.5368 86.2756 17.6453H86.2651Z" fill="#6CF479"/>
<path d="M48.5329 20.6638C40.3301 19.9685 35.8186 15.9338 35.8186 15.9338C30.5078 17.9459 25.6914 21.4434 22.0422 26.3315C18.4771 31.1037 16.5001 36.5712 16.0163 42.0914C16.9733 39.0152 18.4561 36.0445 20.4858 33.316C26.9428 24.6776 37.9219 20.3478 48.5329 20.6533V20.6638Z" fill="white"/>
<path d="M63.5289 78.9625C71.4372 77.9827 76.4956 80.9114 76.4956 80.9114C81.1228 77.9512 84.9928 73.6846 87.4746 68.3224C89.9039 63.0972 90.6822 57.5349 90.0512 52.2044C89.7567 55.3121 88.947 58.4093 87.5588 61.4011C83.163 70.8718 73.6352 77.1505 63.5289 78.9625Z" fill="white"/>
</g>
<defs>
<clipPath id="clip0_15980_16463">
<rect width="100" height="100" fill="white"/>
</clipPath>
</defs>
</svg>
