<svg width="100" height="100" viewBox="0 0 100 100" fill="none" xmlns="http://www.w3.org/2000/svg">
<rect width="100" height="100" fill="#11B67A"/>
<path d="M28.2152 66.3052L48.4315 77.5382L68.6477 66.3052L48.4315 55.0721L28.2152 66.3052Z" fill="#C7FFC6"/>
<path d="M28.2152 66.3061V88.7722L48.4315 100V77.5392L28.2152 66.3061Z" fill="#6CF479"/>
<path d="M48.4315 77.5392V100L68.6475 88.7722V66.3061L48.4315 77.5392Z" fill="#221F1F"/>
<path d="M39.1737 0L25.65 38.3077L64.1041 32.0778L39.1737 0Z" fill="#6CF479"/>
<path d="M37.0248 9.13744C34.0385 18.733 31.0522 28.3233 28.0712 37.9189C29.2124 37.3855 30.3536 36.8521 31.4948 36.3187C33.3399 27.2565 35.1797 18.1997 37.0248 9.13744Z" fill="white"/>
<path d="M39.1737 0C44.1171 11.0357 49.0553 22.0715 53.9987 33.1072C57.3689 32.7658 60.7338 32.4191 64.1041 32.0778C55.7957 21.3834 47.4874 10.6944 39.1737 0Z" fill="#C7FFC6"/>
<path d="M45.4133 38.4921C56.1993 36.7447 64.7057 33.862 64.4128 32.0533C64.1199 30.2446 55.1387 30.1948 44.3527 31.9421C33.5667 33.6894 25.0603 36.5722 25.3532 38.3809C25.6461 40.1896 34.6273 40.2394 45.4133 38.4921Z" fill="#221F1F"/>
<path d="M48.4314 67.8791C55.3909 67.8791 61.0326 64.7221 61.0326 60.8277C61.0326 56.9334 55.3909 53.7764 48.4314 53.7764C41.472 53.7764 35.8303 56.9334 35.8303 60.8277C35.8303 64.7221 41.472 67.8791 48.4314 67.8791Z" fill="#11B67A"/>
<path d="M48.2555 65.7614C56.7935 65.7614 63.7149 58.8384 63.7149 50.2986C63.7149 41.7587 56.7935 34.8357 48.2555 34.8357C39.7174 34.8357 32.796 41.7587 32.796 50.2986C32.796 58.8384 39.7174 65.7614 48.2555 65.7614Z" fill="white"/>
<path d="M42.2721 38.324C37.7286 40.9963 35.0303 45.9408 35.3023 51.1199C35.6862 58.566 41.9895 62.2997 42.4267 62.5504C40.347 60.1288 39.7071 56.8752 40.8056 54.1122C41.8935 51.3813 44.2612 50.1812 44.8958 49.8878C44.7305 49.8558 41.1202 49.0291 39.9684 45.6207C39.0991 43.0391 40.0164 40.0949 42.2774 38.324H42.2721Z" fill="#C7FFC6"/>
<path d="M47.594 65.7615C48.7459 65.5108 56.9209 63.5693 60.8244 55.7019C63.3201 50.6774 62.7388 45.9249 62.4242 44.1221C64.632 49.3066 63.9334 55.2592 60.5791 59.681C55.833 65.9269 48.3033 65.7882 47.594 65.7615Z" fill="#6CF479"/>
<path d="M28.9512 67.8785C28.9672 71.4948 28.9886 75.1165 29.0046 78.7329C29.1005 78.2261 29.7298 75.2072 32.5828 73.495C34.4492 72.3749 36.2943 72.3962 37.0303 72.4496C34.3372 70.9241 31.6442 69.3986 28.9512 67.8785Z" fill="#C7FFC6"/>
<path d="M20.4881 53.6535C20.4881 53.6535 21.784 57.9579 27.0527 59.1473C27.0527 59.1473 23.0638 59.8354 22.9838 64.6305C22.9838 64.6305 21.576 60.4755 16.5312 59.1473C16.5312 59.1473 20.7494 58.646 20.4881 53.6588V53.6535Z" fill="white"/>
<path d="M72.5459 28.5575C72.5459 28.5575 74.7163 35.7635 83.5312 37.753C83.5312 37.753 76.8547 38.9051 76.7214 46.9219C76.7214 46.9219 74.3697 39.9719 65.9227 37.7423C65.9227 37.7423 72.9779 36.9049 72.5406 28.5575H72.5459Z" fill="white"/>
<path d="M22.909 1.8939C22.909 1.8939 23.5596 4.04878 26.1939 4.64083C26.1939 4.64083 24.1995 4.98753 24.1568 7.38243C24.1568 7.38243 23.4529 5.30756 20.9305 4.64083C20.9305 4.64083 23.037 4.39014 22.909 1.8939Z" fill="white"/>
</svg>
