<svg width="100" height="100" viewBox="0 0 100 100" fill="none" xmlns="http://www.w3.org/2000/svg">
<rect width="100" height="100" fill="#11B67A"/>
<path d="M59.4856 85.6016C59.0263 85.0607 58.7712 84.3769 58.7712 83.6728V74.2739H38.9018V83.6728C38.9018 84.3872 38.6569 85.0709 38.1875 85.6016L31.9419 92.9186C31.6664 93.2452 31.5133 93.6636 31.5133 94.0922V94.7045C31.5133 95.2046 31.9215 95.6128 32.4216 95.6128H65.2515C65.7515 95.6128 66.1597 95.2046 66.1597 94.7045V94.0922C66.1597 93.6636 66.0066 93.2452 65.7311 92.9186L59.4856 85.6016Z" fill="#006A4D"/>
<path d="M97.2344 8.06363H2.77579C1.24503 8.06363 0 9.30865 0 10.8394V70.1006C0 71.6313 1.24503 72.8764 2.77579 72.8764H97.2242C98.755 72.8764 100 71.6313 100 70.1006V10.8496C100 9.31886 98.755 8.07383 97.2242 8.07383L97.2344 8.06363Z" fill="#006A4D"/>
<path d="M57.1488 85.2864L63.5882 92.6035H40.4838C40.4838 92.6035 56.6793 91.8279 57.1386 85.2864H57.1488Z" fill="white"/>
<path d="M2.7761 6.68663H97.2347C97.6735 6.68663 98.1022 6.76827 98.5002 6.91114C98.4185 5.54366 97.2755 4.46191 95.8979 4.46191H4.11298C2.72508 4.46191 1.59231 5.54366 1.51067 6.91114C1.91887 6.77848 2.33728 6.68663 2.7761 6.68663Z" fill="black"/>
<path d="M4.58216 12.6345V68.3137H95.4384V12.6345H4.58216Z" fill="black"/>
<path d="M92.6016 42.5573H8.10322V65.2433H92.6016V42.5573Z" fill="#6CF479"/>
<path d="M89.8962 51.5169L80.8647 47.3532L67.0061 59.7524L58.444 54.7621L45.5856 56.9052L42.7486 49.8126L33.2578 46.6592L24.6141 55.303L18.8584 50.9964L10.3065 56.2724V57.8951L18.7767 52.67L24.7263 57.1297L33.6252 48.2308L41.6974 50.9148L44.7079 58.4563L58.1787 56.2112L67.1694 61.4567L81.0994 48.9962L89.8758 53.0476V51.5169H89.8962Z" fill="#01482F"/>
<path d="M19.1034 20.956L33.1967 33.5352L41.7588 28.5449L54.6173 30.6879L57.4543 23.5954L66.945 20.442L75.5888 29.0857L81.3445 24.7792L89.8964 30.0552V31.6778L81.4261 26.4528L75.4765 30.9124L66.5777 22.0136L58.5054 24.6975L55.4949 32.2391L42.0241 29.994L33.0334 35.2394L19.1034 22.779V20.956Z" fill="#6CF479"/>
<path d="M38.9123 74.2739V83.6728C38.9123 84.0912 38.8102 84.5096 38.6367 84.8974H45.3109C46.9743 84.8974 48.5153 83.979 49.2909 82.4992L50.6992 79.8663C51.0666 79.1723 51.7911 78.7437 52.5871 78.7437H58.7919V74.2841H38.9225L38.9123 74.2739Z" fill="black"/>
<path d="M8.23571 16.0334H22.0024C22.0024 16.0334 12.2055 20.789 8.23571 39.648V16.0334Z" fill="white"/>
</svg>
