<svg width="100" height="100" viewBox="0 0 100 100" fill="none" xmlns="http://www.w3.org/2000/svg">
<g clip-path="url(#clip0_4535_2502)">
<rect width="100" height="100" fill="#11B67A"/>
<path d="M91.4671 61.0523C103.379 40.4202 100.97 16.7406 86.0826 8.14387L84.7442 7.37171C88.5226 11.8914 90.9112 17.8834 91.6216 24.8946C92.6717 35.2107 89.9846 46.5356 84.0647 56.7899C75.0562 72.3978 60.1998 82.4771 46.2186 82.4771C44.6434 82.4771 43.1196 82.3433 41.6371 82.0859L42.9549 82.8477C44.5095 83.7434 46.1362 84.4333 47.8144 84.9377L39.1147 100H43.8712L52.0664 85.8128C55.2889 86.1732 58.6349 85.9158 62.0118 85.0922V100H66.13V83.8053C68.4362 82.9301 70.7321 81.8079 72.9765 80.4489L84.2603 100H89.0168L76.4049 78.153C82.1291 73.9319 87.3695 68.1355 91.4568 61.0626L91.4671 61.0523Z" fill="black"/>
<path d="M77.3479 3.11949C73.6828 0.998627 69.5955 0 65.3434 0C52.3506 0 37.8134 9.36888 28.8357 24.915C16.9239 45.5471 19.333 69.2267 34.2203 77.8234C37.8854 79.9443 41.9727 80.9429 46.2248 80.9429C59.2176 80.9429 73.7548 71.574 82.7325 56.0279C94.6443 35.3958 92.2352 11.7162 77.3479 3.11949Z" fill="#6CF479"/>
<path d="M75.5431 51.8674C85.1183 35.2826 83.6194 16.4909 72.1952 9.89516C60.7709 3.29937 43.7475 11.3971 34.1722 27.982C24.597 44.5668 26.0958 63.3584 37.5201 69.9542C48.9443 76.55 65.9678 68.4523 75.5431 51.8674Z" fill="#11B67A"/>
<path d="M68.2909 47.6868C75.0516 35.9769 74.1412 22.7944 66.2575 18.2427C58.3738 13.691 46.5021 19.4939 39.7414 31.2038C32.9808 42.9136 33.8912 56.0962 41.7749 60.6478C49.6586 65.1995 61.5302 59.3966 68.2909 47.6868Z" fill="#6CF479"/>
<path d="M60.9131 43.4311C64.0688 37.9651 63.5054 31.7319 59.6546 29.5086C55.8039 27.2854 50.124 29.9141 46.9682 35.38C43.8125 40.8459 44.3759 47.0792 48.2267 49.3024C52.0774 51.5257 57.7573 48.897 60.9131 43.4311Z" fill="black"/>
<path d="M98.9863 32.3384L91.831 28.21C91.8928 30.7426 91.7383 33.3268 91.3883 35.9316L98.6672 40.1321C98.9966 37.4758 99.1099 34.8608 98.9966 32.3384H98.9863Z" fill="#006A4D"/>
<path d="M98.6431 28.6523C98.4886 27.561 98.293 26.5006 98.0562 25.4607L91.1068 21.4455C91.3024 22.4648 91.4671 23.5046 91.5804 24.5753L98.6431 28.6523Z" fill="#006A4D"/>
<path d="M54.0005 40.0495C54.4947 39.7612 54.6595 39.1331 54.3815 38.6389C54.0932 38.1448 53.4652 37.98 52.971 38.258L30.1666 51.4259C28.2207 51.6319 25.688 51.498 23.1759 50.2008L21.2919 51.2921C21.261 55.5441 21.8375 59.5799 23.0112 63.2348L27.4383 60.6404C27.5721 57.8091 29.0443 55.3588 30.5166 53.588L54.0005 40.0289V40.0495Z" fill="black"/>
<path d="M51.948 39.1703C51.778 39.1703 51.608 39.1304 51.448 39.0404L16.618 18.9303C16.138 18.6503 15.978 18.0403 16.248 17.5603C16.528 17.0803 17.138 16.9203 17.618 17.1903L52.448 37.3003C52.928 37.5803 53.088 38.1903 52.818 38.6703C52.628 38.9903 52.298 39.1703 51.948 39.1703Z" fill="white"/>
<path d="M14.9 14.04C14.36 11.65 15.32 10.76 15.32 10.76L18.76 12.75C19.03 18.38 22.65 21.26 22.65 21.26C22.65 21.26 18.35 19.56 13.33 22.14L6.44 18.16C6.44 18.16 6.68 17.03 8.71 16.38C8.71 16.38 6.88 15.88 4.69 17.25L0 14.54C0 14.54 3.29 12.23 7.67 12.61C5.15 8.99999 5.51 5 5.51 5L13.37 9.54004C13.37 9.54004 13.41 11.85 14.89 14.04H14.9Z" fill="#024731"/>
</g>
<defs>
<clipPath id="clip0_4535_2502">
<rect width="100" height="100" fill="white"/>
</clipPath>
</defs>
</svg>
