<svg width="100" height="100" viewBox="0 0 100 100" fill="none" xmlns="http://www.w3.org/2000/svg">
<rect width="100" height="100" fill="#11B67A"/>
<path fill-rule="evenodd" clip-rule="evenodd" d="M24.1165 37.9394L32.3175 33.4602C32.8368 33.1681 33.421 33.1681 33.9295 33.4602L42.0439 37.7663C42.5632 38.0584 37.6081 35.6674 33.3561 35.5592C29.3855 35.451 23.5972 38.2423 24.1057 37.9502L24.1165 37.9394Z" fill="white"/>
<path fill-rule="evenodd" clip-rule="evenodd" d="M36.2645 14.2023L48.4685 21.2564C48.9879 21.5485 49.28 22.0678 49.28 22.6521V36.7603C49.28 37.3445 48.9879 37.8639 48.4685 38.156C47.9492 38.4481 47.365 38.4481 46.8565 38.156L34.6524 31.1019C34.1331 30.8097 33.841 30.2904 33.841 29.7062V15.598C33.841 15.0137 34.1331 14.4944 34.6524 14.2023C35.1718 13.9102 35.756 13.9102 36.2645 14.2023Z" fill="black"/>
<path fill-rule="evenodd" clip-rule="evenodd" d="M51.5535 21.2672L63.7683 14.2131C64.2877 13.921 64.8719 13.921 65.3804 14.2131C65.8997 14.5053 66.1918 15.0246 66.1918 15.6088V29.717C66.1918 30.3013 65.8997 30.8206 65.3804 31.1127L53.1655 38.1668C52.6462 38.4589 52.062 38.4589 51.5535 38.1668C51.0341 37.8747 50.742 37.3554 50.742 36.7711V22.6629C50.742 22.0787 51.0341 21.5594 51.5535 21.2672Z" fill="#006A4D"/>
<path fill-rule="evenodd" clip-rule="evenodd" d="M36.9798 10.1888L49.1947 3.12387C49.714 2.83176 50.2982 2.83176 50.8067 3.12387L63.0216 10.178C63.5409 10.4701 63.833 10.9894 63.833 11.5845C63.833 12.1687 63.5409 12.688 63.0216 12.9802L50.8067 20.0343C50.2874 20.3264 49.7032 20.3264 49.1947 20.0343L36.9798 12.9802C36.4605 12.688 36.1684 12.1687 36.1684 11.5845C36.1684 10.9786 36.4605 10.4701 36.9798 10.178V10.1888Z" fill="#6CF479"/>
<path fill-rule="evenodd" clip-rule="evenodd" d="M41.0365 9.02044L49.2375 4.5413C49.7568 4.24918 50.341 4.24918 50.8495 4.5413L58.9639 8.84733C59.4833 9.13945 54.5281 6.74841 50.2761 6.64022C46.3055 6.53203 40.5172 9.32338 41.0257 9.03126L41.0365 9.02044Z" fill="white"/>
<path fill-rule="evenodd" clip-rule="evenodd" d="M65.0447 16.4748L64.7418 28.3326C64.7418 29.09 64.3631 29.7283 63.714 30.107L53.8252 36.2739C53.1761 36.6526 58.9427 32.736 61.7773 28.1379C64.4172 23.8427 65.0447 15.7066 65.0447 16.464V16.4748Z" fill="black"/>
<path fill-rule="evenodd" clip-rule="evenodd" d="M19.3458 43.1759L21.8991 44.6581L31.539 50.23C32.0583 50.5221 32.3505 51.0414 32.3505 51.6257V65.7339C32.3505 66.3181 32.0583 66.8374 31.539 67.1296C31.0197 67.4217 30.4355 67.4217 29.927 67.1296L17.7229 60.0755C17.2036 59.7833 16.9115 59.264 16.9115 58.6798V44.5824C16.9115 43.9765 17.2036 43.468 17.7229 43.1759C18.2422 42.8838 18.8265 42.8838 19.335 43.1759H19.3458Z" fill="black"/>
<path fill-rule="evenodd" clip-rule="evenodd" d="M34.6315 50.23L46.8463 43.1759C47.3656 42.8838 47.9499 42.8838 48.4584 43.1759C48.9777 43.468 49.2698 43.9873 49.2698 44.5824V58.6798C49.2698 59.264 48.9777 59.7833 48.4584 60.0755L36.2435 67.1296C35.7242 67.4217 35.14 67.4217 34.6315 67.1296C34.123 66.8374 33.82 66.3181 33.82 65.7339V51.6257C33.82 51.0414 34.1121 50.5221 34.6315 50.23Z" fill="#006A4D"/>
<path fill-rule="evenodd" clip-rule="evenodd" d="M20.0702 39.1081L32.285 32.054C32.8044 31.7619 33.3886 31.7619 33.8971 32.054L46.112 39.1081C46.6313 39.4002 46.9234 39.9196 46.9234 40.5146C46.9234 41.1097 46.6313 41.6182 46.112 41.9103L33.8971 48.9644C33.3778 49.2565 32.7935 49.2565 32.285 48.9644L20.0702 41.9103C19.5509 41.6182 19.2587 41.0989 19.2587 40.5146C19.2587 39.9304 19.5509 39.4002 20.0702 39.1081Z" fill="#6CF479"/>
<path fill-rule="evenodd" clip-rule="evenodd" d="M48.611 45.7828L48.3081 57.6406C48.3081 58.398 47.9294 59.0363 47.2803 59.415L37.3915 65.5819C36.7424 65.9606 42.509 62.044 45.3436 57.4459C47.9835 53.1507 48.611 45.0146 48.611 45.772V45.7828Z" fill="black"/>
<path fill-rule="evenodd" clip-rule="evenodd" d="M2.4235 72.1285L4.97683 73.6107L14.6167 79.1826C15.136 79.4747 15.4282 79.994 15.4282 80.5783V94.6865C15.4282 95.2707 15.136 95.7901 14.6167 96.0822C14.0974 96.3743 13.5132 96.3743 13.0047 96.0822L0.80062 89.0281C0.292118 88.7359 0 88.2166 0 87.6324V73.535C0 72.9291 0.292118 72.4206 0.811439 72.1285C1.33076 71.8364 1.915 71.8364 2.4235 72.1285Z" fill="black"/>
<path fill-rule="evenodd" clip-rule="evenodd" d="M17.7101 79.1826L29.925 72.1285C30.4443 71.8364 31.0286 71.8364 31.5371 72.1285C32.0564 72.4206 32.3485 72.9399 32.3485 73.535V87.6324C32.3485 88.2166 32.0564 88.7359 31.5371 89.0281L19.3222 96.0822C18.8029 96.3743 18.2187 96.3743 17.7101 96.0822C17.2016 95.7901 16.8987 95.2707 16.8987 94.6865V80.5783C16.8987 79.994 17.1908 79.4747 17.7101 79.1826Z" fill="#006A4D"/>
<path fill-rule="evenodd" clip-rule="evenodd" d="M3.14795 68.0487L15.3628 60.9946C15.8821 60.7024 16.4664 60.7024 16.9749 60.9946L29.1897 68.0487C29.709 68.3408 30.0012 68.8601 30.0012 69.4552C30.0012 70.0394 29.709 70.5587 29.1897 70.8508L16.9749 77.9049C16.4555 78.1971 15.8713 78.1971 15.3628 77.9049L3.14795 70.8508C2.62863 70.5587 2.33651 70.0394 2.33651 69.4552C2.33651 68.8709 2.62863 68.3408 3.14795 68.0487Z" fill="#6CF479"/>
<path fill-rule="evenodd" clip-rule="evenodd" d="M7.20525 66.8911L15.4062 62.412C15.9255 62.1199 16.5097 62.1199 17.0182 62.412L25.1326 66.718C25.652 67.0101 20.6968 64.6191 16.4448 64.5109C12.4742 64.4027 6.68593 67.1941 7.19443 66.9019L7.20525 66.8911Z" fill="white"/>
<path fill-rule="evenodd" clip-rule="evenodd" d="M31.6889 74.7246L31.386 86.5825C31.386 87.3398 31.0073 87.9782 30.3582 88.3568L20.4694 94.5238C19.8203 94.9024 25.5869 90.9859 28.4216 86.3877C31.0614 82.0925 31.6889 73.9565 31.6889 74.7138V74.7246Z" fill="black"/>
<path fill-rule="evenodd" clip-rule="evenodd" d="M53.1773 43.1223L65.3814 50.1764C65.9007 50.4685 66.1928 50.9878 66.1928 51.5721V65.6803C66.1928 66.2645 65.9007 66.7839 65.3814 67.076C64.8621 67.3681 64.2778 67.3681 63.7693 67.076L51.5653 60.0219C51.046 59.7297 50.7538 59.2104 50.7538 58.6262V44.518C50.7538 43.9337 51.046 43.4144 51.5653 43.1223C52.0846 42.8302 52.6688 42.8302 53.1773 43.1223Z" fill="black"/>
<path fill-rule="evenodd" clip-rule="evenodd" d="M68.464 50.1872L80.6789 43.1331C81.1982 42.841 81.7824 42.841 82.291 43.1331C82.8103 43.4253 83.1024 43.9446 83.1024 44.5288V58.637C83.1024 59.2213 82.8103 59.7406 82.291 60.0327L70.0761 67.0868C69.5568 67.3789 68.9725 67.3789 68.464 67.0868C67.9447 66.7947 67.6526 66.2754 67.6526 65.6911V51.5829C67.6526 50.9987 67.9447 50.4794 68.464 50.1872Z" fill="#006A4D"/>
<path fill-rule="evenodd" clip-rule="evenodd" d="M53.902 39.1084L66.1169 32.0543C66.6362 31.7622 67.2205 31.7622 67.729 32.0543L79.9438 39.1084C80.4631 39.4005 80.7553 39.9198 80.7553 40.5149C80.7553 41.1099 80.4631 41.6184 79.9438 41.9106L67.729 48.9647C67.2096 49.2568 66.6254 49.2568 66.1169 48.9647L53.902 41.9106C53.3827 41.6184 53.0906 41.0991 53.0906 40.5149C53.0906 39.909 53.3827 39.4005 53.902 39.1084Z" fill="#6CF479"/>
<path fill-rule="evenodd" clip-rule="evenodd" d="M57.949 37.9397L66.1499 33.4605C66.6693 33.1684 67.2535 33.1684 67.762 33.4605L75.8764 37.7665C76.3957 38.0587 71.4405 35.6676 67.1886 35.5594C63.2179 35.4512 57.4297 38.2426 57.9382 37.9505L57.949 37.9397Z" fill="white"/>
<path fill-rule="evenodd" clip-rule="evenodd" d="M24.1297 37.9397L32.3307 33.4605C32.85 33.1684 33.4342 33.1684 33.9427 33.4605L42.0571 37.7665C42.5764 38.0587 37.6213 35.6676 33.3693 35.5594C29.3987 35.4512 23.6104 38.2426 24.1189 37.9505L24.1297 37.9397Z" fill="white"/>
<path fill-rule="evenodd" clip-rule="evenodd" d="M81.9574 45.3943L81.6545 57.2521C81.6545 58.0094 81.2758 58.6478 80.6267 59.0264L70.7379 65.1934C70.0888 65.5721 75.8554 61.6555 78.69 57.0574C81.3299 52.7621 81.9574 44.6261 81.9574 45.3834V45.3943Z" fill="black"/>
<path fill-rule="evenodd" clip-rule="evenodd" d="M36.2555 72.0962L38.8088 73.5785L48.4487 79.1503C48.968 79.4425 49.2601 79.9618 49.2601 80.546V94.6542C49.2601 95.2385 48.968 95.7578 48.4487 96.0499C47.9294 96.342 47.3451 96.342 46.8366 96.0499L34.6326 88.9958C34.1133 88.7037 33.8212 88.1844 33.8212 87.6001V73.5027C33.8212 72.8969 34.1133 72.3883 34.6326 72.0962C35.1519 71.8041 35.7362 71.8041 36.2447 72.0962H36.2555Z" fill="black"/>
<path fill-rule="evenodd" clip-rule="evenodd" d="M51.5441 79.1503L63.759 72.0962C64.2783 71.8041 64.8625 71.8041 65.371 72.0962C65.8904 72.3883 66.1825 72.9077 66.1825 73.5027V87.6001C66.1825 88.1844 65.8904 88.7037 65.371 88.9958L53.1562 96.0499C52.6369 96.342 52.0526 96.342 51.5441 96.0499C51.0356 95.7578 50.7327 95.2385 50.7327 94.6542V80.546C50.7327 79.9618 51.0248 79.4425 51.5441 79.1503Z" fill="#006A4D"/>
<path fill-rule="evenodd" clip-rule="evenodd" d="M36.98 68.0281L49.1949 60.974C49.7142 60.6819 50.2985 60.6819 50.807 60.974L63.0218 68.0281C63.5411 68.3202 63.8333 68.8396 63.8333 69.4346C63.8333 70.0189 63.5411 70.5382 63.0218 70.8303L50.807 77.8844C50.2876 78.1765 49.7034 78.1765 49.1949 77.8844L36.98 70.8303C36.4607 70.5382 36.1686 70.0189 36.1686 69.4346C36.1686 68.8287 36.4607 68.3202 36.98 68.0281Z" fill="#6CF479"/>
<path fill-rule="evenodd" clip-rule="evenodd" d="M65.5208 74.7031L65.2178 86.5609C65.2178 87.3183 64.8391 87.9566 64.19 88.3353L54.3013 94.5022C53.6521 94.8809 59.4187 90.9643 62.2534 86.3662C64.8932 82.071 65.5208 73.9349 65.5208 74.6923V74.7031Z" fill="black"/>
<path fill-rule="evenodd" clip-rule="evenodd" d="M70.0749 72.0848L82.279 79.1389C82.7983 79.431 83.0904 79.9503 83.0904 80.5346V94.6428C83.0904 95.227 82.7983 95.7463 82.279 96.0385C81.7597 96.3306 81.1754 96.3306 80.6669 96.0385L68.4629 88.9843C67.9436 88.6922 67.6515 88.1729 67.6515 87.5887V73.4805C67.6515 72.8962 67.9436 72.3769 68.4629 72.0848C68.9822 71.7927 69.5664 71.7927 70.0749 72.0848Z" fill="black"/>
<path fill-rule="evenodd" clip-rule="evenodd" d="M85.3616 79.1497L97.5765 72.0956C98.0958 71.8035 98.6801 71.8035 99.1886 72.0956C99.7079 72.3877 100 72.9071 100 73.4913V87.5995C100 88.1838 99.7079 88.7031 99.1886 88.9952L86.9737 96.0493C86.4544 96.3414 85.8701 96.3414 85.3616 96.0493C84.8423 95.7572 84.5502 95.2379 84.5502 94.6536V80.5454C84.5502 79.9612 84.8423 79.4418 85.3616 79.1497Z" fill="#006A4D"/>
<path fill-rule="evenodd" clip-rule="evenodd" d="M70.7996 68.0705L83.0145 61.0164C83.5338 60.7243 84.118 60.7243 84.6265 61.0164L96.8414 68.0705C97.3607 68.3626 97.6528 68.882 97.6528 69.477C97.6528 70.0721 97.3607 70.5806 96.8414 70.8727L84.6265 77.9268C84.1072 78.2189 83.523 78.2189 83.0145 77.9268L70.7996 70.8727C70.2803 70.5806 69.9882 70.0612 69.9882 69.477C69.9882 68.8711 70.2803 68.3626 70.7996 68.0705Z" fill="#6CF479"/>
<path fill-rule="evenodd" clip-rule="evenodd" d="M74.8569 66.9021L83.0579 62.4229C83.5772 62.1308 84.1614 62.1308 84.6699 62.4229L92.7843 66.7289C93.3036 67.0211 88.3484 64.63 84.0965 64.5218C80.1259 64.4136 74.3376 67.205 74.8461 66.9129L74.8569 66.9021Z" fill="white"/>
<path fill-rule="evenodd" clip-rule="evenodd" d="M98.8651 74.3564L98.5622 86.2142C98.5622 86.9716 98.1835 87.6099 97.5343 87.9886L87.6456 94.1555C86.9965 94.5342 92.7631 90.6176 95.5977 86.0195C98.2376 81.7243 98.8651 73.5882 98.8651 74.3456V74.3564Z" fill="black"/>
<path fill-rule="evenodd" clip-rule="evenodd" d="M41.0365 66.8911L49.2375 62.412C49.7568 62.1199 50.341 62.1199 50.8495 62.412L58.9639 66.718C59.4833 67.0101 54.5281 64.6191 50.2761 64.5109C46.3055 64.4027 40.5172 67.1941 41.0257 66.9019L41.0365 66.8911Z" fill="white"/>
</svg>
