<svg width="100" height="100" viewBox="0 0 100 100" fill="none" xmlns="http://www.w3.org/2000/svg">
<g clip-path="url(#clip0_15980_16618)">
<rect width="100" height="100" fill="#11B67A"/>
<path d="M90.3354 73.8778L88.3925 71.3995L87.7815 70.6237L70.3369 48.4077C69.3414 47.1376 66.9317 46.4305 64.9613 46.8218L2.14409 59.3784C0.173757 59.7766 -0.615749 61.1222 0.379716 62.3991L20.3783 87.8624C21.3737 89.1325 23.7834 89.8396 25.7538 89.4483L88.571 76.8848C90.5414 76.4866 91.3309 75.141 90.3354 73.8641V73.8778Z" fill="black"/>
<path d="M96.0575 67.8022L77.9881 26.8371C77.5762 25.9034 76.567 25.2512 75.599 25.2512C75.4686 25.2512 75.345 25.2649 75.2077 25.2924L6.27345 40.2381C5.1956 40.4509 4.70817 41.4944 5.18187 42.5654L23.4504 83.8463C23.8623 84.78 24.8783 85.4322 25.8463 85.4322C25.9768 85.4322 26.121 85.4185 26.2583 85.391L95.0003 70.1158C96.0575 69.9029 96.5312 68.8594 96.0712 67.8022H96.0575Z" fill="black"/>
<path d="M96.4287 66.6692L78.3593 25.7041C77.9473 24.7704 76.9381 24.1182 75.9701 24.1182C75.8397 24.1182 75.7161 24.1319 75.5788 24.1594L6.6446 39.112C5.56675 39.3248 5.07932 40.3683 5.55302 41.4393L23.8215 82.7202C24.2334 83.6539 25.2495 84.3061 26.2175 84.3061C26.3479 84.3061 26.4921 84.2923 26.6294 84.2649L95.3714 68.9896C96.4287 68.7768 96.9024 67.7333 96.4424 66.676H96.4287V66.6692Z" fill="#035D3E"/>
<path d="M7.00217 39.9836V35.6447L34.1955 30.5095L94.809 67.2936L26.0808 81.9647L7.00217 39.9836Z" fill="black"/>
<path d="M61.9699 73.8364C61.9699 73.8364 50.8207 69.2572 26.3254 77.6191L6.41614 32.8232C6.41614 32.8232 29.5109 20.6785 42.2597 29.4386L61.9699 73.8432V73.8364Z" fill="#6CF479"/>
<path d="M96.0148 63.0854L89.6232 51.2496L83.314 67.2389L96.0148 63.0854Z" fill="black"/>
<path d="M63.6873 73.8368C63.6873 73.8368 67.1474 67.4658 96.0159 63.0858L94.8076 67.2873L63.6873 73.8368Z" fill="black"/>
<path d="M42.2597 29.4386L61.9699 73.8432C61.9699 73.8432 70.1329 63.8889 97.8137 61.8156L77.5395 18.7185C77.5395 18.7185 50.2235 17.8912 42.2597 29.4386Z" fill="#6CF479"/>
<path d="M42.2614 29.439L56.7609 62.0902C56.7609 62.0902 44.9801 28.1208 63.0289 19.7178C63.0289 19.7178 48.4265 21.0702 42.2546 29.4321L42.2614 29.439Z" fill="#11B67A"/>
<path d="M9.2202 34.0934L23.7815 67.2047C23.7815 67.2047 13.4492 29.631 35.5142 27.7705C35.5142 27.7705 25.4291 26.1091 9.2202 34.0934Z" fill="white"/>
<path d="M55.4971 77.4279C55.4971 77.4279 60.9756 79.7758 69.0354 74.4209L55.4971 77.4279Z" fill="#035D3E"/>
<path d="M42.2354 29.4511L61.891 73.8057C61.891 73.8057 53.7443 70.4435 36.0283 74.7109C36.0283 74.7109 56.5892 66.0469 42.2354 29.4511Z" fill="#11B67A"/>
<path d="M77.5383 18.7179L97.8406 61.7793C97.8406 61.7793 89.8231 61.9086 76.6332 66.1759C76.6332 66.1759 91.8921 55.3136 77.5383 18.7179Z" fill="#006A4D"/>
<path d="M26.0755 81.9655C26.0755 81.9655 56.7427 74.908 61.9672 75.9859C61.9672 75.9859 67.2466 73.0201 94.8038 67.2944L75.2789 69.354L61.5827 74.4137L44.447 74.6334L28.65 78.423L26.0824 81.9655H26.0755Z" fill="black"/>
<path d="M26.0771 81.9648C26.0771 81.9648 53.799 72.7928 61.9687 75.9851L29.3243 82.4865L26.0702 81.9717L26.0771 81.9648Z" fill="#035D3E"/>
<path d="M61.9687 75.9851C61.9687 75.9851 64.9005 71.3518 94.8056 67.2944L93.9475 68.4684L67.42 74.4206L63.6922 76.1781L61.9759 75.9859L61.9687 75.9851Z" fill="#035D3E"/>
<path d="M81.6741 50.0098C79.3031 50.7858 72.3855 53.8899 67.967 60.0967C64.1634 65.44 62.8154 69.7298 61.9104 73.7129L42.2571 29.4375C46.6105 23.1252 56.7951 20.5044 65.134 19.4228L81.6741 50.0098Z" fill="black"/>
<path d="M44.6941 15.6146C42.2679 20.2121 41.7612 26.4769 42.2354 29.4511L61.8927 73.8057C61.8065 69.797 61.2386 62.5554 64.7379 55.9604C67.9629 49.8827 74.2209 47.2102 77.2813 46.0033L54.91 5.26953C52.0649 6.95061 47.1507 10.9593 44.6941 15.6146Z" fill="#6CF479"/>
<path d="M50.0519 8.96201C46.9556 14.2992 49.9906 21.6469 55.2833 32.5382C58.0638 38.2597 61.3993 43.1663 64.4523 46.4161C66.1931 48.269 68.321 49.3679 69.8458 50.0372C67.9187 51.5221 66.0695 53.4511 64.7379 55.9604C63.976 57.3965 63.4068 58.8631 62.9835 60.3204C62.7518 57.484 61.9483 51.8168 59.9503 46.7784C56.9762 39.2784 54.0049 33.8582 50.0675 28.2071C46.6753 23.3385 44.2042 21.4019 42.7472 21.128C43.1671 19.2292 43.8001 17.3087 44.6941 15.6146C46.0074 13.126 48.0255 10.8242 50.0519 8.96201Z" fill="white"/>
<path d="M70.9604 94.7307C77.3265 94.7307 82.4872 93.867 82.4872 92.8015C82.4872 91.7361 77.3265 90.8724 70.9604 90.8724C64.5944 90.8724 59.4336 91.7361 59.4336 92.8015C59.4336 93.867 64.5944 94.7307 70.9604 94.7307Z" fill="black"/>
<path d="M61.8634 92.8016C61.8634 92.8016 66.6211 88.6893 69.4358 89.4308C69.4358 89.4308 69.1887 85.2292 71.976 82.744L69.9439 81.6593L61.8634 92.8016Z" fill="black"/>
<path d="M68.9418 81.2897L61.8705 92.7959C61.8705 92.7959 65.9897 88.4296 68.4818 88.9239C68.4818 88.9239 68.0356 85.2166 70.967 82.0243L68.9486 81.2828L68.9418 81.2897Z" fill="#006A4D"/>
<path d="M68.2813 81.2068C69.8054 83.5822 72.3867 83.6509 72.3867 83.6509L73.341 82.2641L83.7488 67.0918L77.4602 63.3434L68.2813 81.2068Z" fill="#035D3E"/>
<path d="M68.2813 81.2068C69.8054 83.5822 72.3867 83.6509 72.3867 83.6509L73.341 82.2641L83.7488 67.0918L77.4602 63.3434L68.2813 81.2068Z" fill="black"/>
<path d="M69.5233 82.5593L79.478 65.8698L77.4665 63.3365L67.2509 83.4175L69.5233 82.5593Z" fill="#006A4D"/>
<path d="M84.2499 68.0188C85.3552 66.2956 86.4742 64.4901 87.5933 62.6158C95.9483 48.6107 102.717 37.2555 98.818 34.9282C94.9185 32.6008 88.1425 43.956 79.7943 57.9612C78.5586 60.0345 77.6524 61.641 76.5745 63.6113C78.3526 66.7075 81.593 67.9158 84.2499 68.0188Z" fill="black"/>
<path d="M84.2499 68.0188C85.3552 66.2956 86.4742 64.4901 87.5933 62.6158C95.9483 48.6107 102.717 37.2555 98.818 34.9282C94.9185 32.6008 88.1425 43.956 79.7943 57.9612C78.5586 60.0345 77.6524 61.641 76.5745 63.6113C78.3526 66.7075 81.593 67.9158 84.2499 68.0188Z" fill="black"/>
<path d="M80.7137 67.8532C81.1257 67.1804 99.6139 38.923 98.3987 36.0739C98.3987 36.0739 103.966 34.7077 82.7321 68.1759" fill="#6CF479"/>
<path d="M72.3867 83.6509C72.3867 83.6509 70.0937 83.5891 68.2813 81.2068C68.2813 81.2068 68.9816 84.3992 72.3867 83.6509Z" fill="black"/>
</g>
<defs>
<clipPath id="clip0_15980_16618">
<rect width="100" height="100" fill="white"/>
</clipPath>
</defs>
</svg>
