<svg width="100" height="100" viewBox="0 0 100 100" fill="none" xmlns="http://www.w3.org/2000/svg">
<rect width="100" height="100" fill="#11B67A"/>
<path d="M50 78.5371C77.6142 78.5371 100 70.0325 100 59.5416C100 49.0507 77.6142 40.5461 50 40.5461C22.3858 40.5461 0 49.0507 0 59.5416C0 70.0325 22.3858 78.5371 50 78.5371Z" fill="#024731"/>
<path d="M93.5635 54.5333L87.6213 31.2485C87.6213 31.2485 81.7861 21.033 49.1589 21.5566C16.5289 22.0801 11.9913 32.0022 11.9913 32.0022L5.68492 55.8883C5.57798 56.1444 5.48839 56.4004 5.41613 56.6593L5.40747 56.6852C5.27742 57.1656 5.20805 57.6518 5.20805 58.1466C5.20805 66.7108 25.2601 73.6554 49.9971 73.6554C74.7341 73.6554 94.7861 66.7137 94.7861 58.1466C94.7861 56.9038 94.3612 55.6927 93.5635 54.5362V54.5333Z" fill="#6CF379"/>
<path d="M50.2891 43.0458C68.3709 43.0458 83.029 38.8521 83.029 33.679C83.029 28.5058 68.3709 24.3121 50.2891 24.3121C32.2074 24.3121 17.5493 28.5058 17.5493 33.679C17.5493 38.8521 32.2074 43.0458 50.2891 43.0458Z" fill="#11B67A"/>
<path d="M93.5635 54.5333V54.5362C94.3612 55.6927 94.7861 56.9038 94.7861 58.1466C94.7861 66.7137 74.7341 73.6554 49.9971 73.6554C25.2601 73.6554 5.20805 66.7108 5.20805 58.1466C5.20805 57.6518 5.27742 57.1656 5.40747 56.6852L5.41613 56.6593C5.48839 56.4004 5.57798 56.1444 5.68492 55.8883L6.39013 53.2163C6.27208 55.4709 6.35107 57.5784 6.916 58.5035C8.58941 61.2451 17.5492 70.7271 50 71.0004C58.3196 71.0707 65.1934 70.3737 70.6373 69.2346C70.9224 69.1236 84.201 63.9026 83.0289 55.0859C81.8371 46.1072 61.1347 45.3504 61.0694 45.348C61.1121 45.3425 71.6386 43.9886 77.2947 41.8785C81.5807 40.279 85.075 37.4512 86.5403 35.6963C87.4262 34.6369 87.9082 33.7183 88.0226 32.8213L93.5635 54.5333Z" fill="black"/>
<path d="M8.37275 54.3205L13.1011 34.5828C13.1011 34.5828 13.4103 36.539 16.4363 39.2518C19.6184 42.0999 27.6242 43.0463 27.6242 43.0463C27.6242 43.0463 17.997 42.1948 13.6386 46.0641C10.5028 48.8488 8.37275 54.3205 8.37275 54.3205Z" fill="white"/>
<path d="M51.3207 24.0304C52.575 23.1127 54.3035 22.3648 56.7341 23.4637C57.8092 23.947 58.4162 24.4591 58.7485 24.9567C60.0491 26.887 57.344 28.6219 62.3727 27.7819C68.6993 26.7204 65.4682 34.3986 69.263 34.5425C73.0578 34.6834 70.9046 40.2759 76.0549 38.5757C76.5238 38.422 77.0193 38.6112 77.5021 38.8878C71.6269 41.395 61.6315 43.0458 50.2891 43.0458C36.5987 43.0458 24.8702 40.6412 19.9815 37.228C21.6191 35.9731 23.5574 35.3751 25.7197 35.0889C30.2109 34.4905 30.5088 37.7443 32.9625 33.8692C35.4192 29.9914 37.4565 32.8018 39.1039 31.1965C40.2166 30.1062 38.2197 27.5114 40.2399 25.4142C40.7254 24.9079 41.344 24.4305 42.0319 24.0537C43.7053 23.1245 45.7832 22.7533 47.3179 23.9069C47.7687 24.2435 48.1734 24.7124 48.5057 25.3366C49.0578 26.3723 49.8814 25.0862 51.3207 24.0304Z" fill="#006A4D"/>
<path d="M55.5346 23.0527C55.9132 23.139 56.3121 23.271 56.7312 23.4609C57.8063 23.9442 58.4133 24.4563 58.7456 24.9539C60.0462 26.8842 57.341 28.6191 62.3698 27.7791C62.7657 27.713 63.1242 27.6783 63.4479 27.6783C63.841 27.6783 64.1791 27.7244 64.4826 27.8021C64.63 27.8424 64.7659 27.8883 64.896 27.943C65.2659 28.1012 65.5637 28.3228 65.8035 28.5932C65.8063 28.5959 65.8092 28.5989 65.8092 28.5989C65.8208 28.6133 65.8323 28.6306 65.8467 28.6478L65.8206 28.6595C65.9218 28.7774 66.0116 28.9039 66.0926 29.0391C66.3237 29.4188 66.4912 29.8532 66.6241 30.3077C67.1183 31.9935 67.182 33.9556 68.6011 34.4418C68.7861 34.5079 68.997 34.5454 69.234 34.554C69.7079 34.5712 70.0895 34.6747 70.4045 34.8387C70.6386 34.9595 70.8381 35.1178 71.0086 35.2962C71.182 35.4745 71.3006 35.6931 71.4538 35.8945C73.157 38.1383 76.5169 38.4444 78.5756 38.398C72.8968 41.1779 62.355 43.0458 50.2891 43.0458C45.579 43.0458 41.1012 42.7607 37.0542 42.2483C39.0701 40.9153 41.3553 39.1826 41.8179 37.9169C42.6792 35.5609 44.9393 37.6236 44.9393 37.6236C44.9476 37.6265 46.5143 38.1794 47.526 37.3416C49.8555 35.4113 49.581 33.1356 49.581 33.1356C49.5879 33.1392 51.3967 34.0869 53.289 33.5384C55.0924 33.0177 54.3873 29.9164 54.3873 29.9164C54.3764 29.8958 51.9646 25.2924 54.3033 23.5558C54.601 23.3343 55.0375 23.1505 55.5346 23.0527Z" fill="black"/>
<path d="M52.9854 65.261C51.9421 65.612 50.9739 64.956 50.2802 64.4871C49.8814 64.2167 49.4681 63.9377 49.2397 63.9722C49.0201 64.0038 48.8553 64.1937 48.6068 64.4958C48.1126 65.097 47.4392 65.9198 45.5894 65.4681C44.4883 65.1977 43.9623 64.0844 44.1068 62.3295C44.3525 59.3693 46.6501 54.6628 49.1993 54.4701C51.1733 54.3205 52.916 56.6335 53.8062 58.6587C54.7571 60.8163 55.1386 63.5292 53.8525 64.723C53.5606 64.9934 53.2686 65.166 52.9854 65.261Z" fill="#11B67A"/>
<path d="M55.6502 57.4761C55.0317 57.6833 54.4537 57.6286 53.9942 57.3064C53.1358 56.7052 53.0288 55.5516 53.7225 54.3692C54.4046 53.2127 55.789 52.295 57.0115 52.8761C57.6849 53.1955 58.0635 53.742 58.078 54.4123C58.104 55.5803 57.0838 56.7598 56.1098 57.2776C55.9537 57.3611 55.8005 57.4272 55.6502 57.479V57.4761Z" fill="#11B67A"/>
<path d="M44.13 58.6242C43.6386 58.791 43.0288 58.7795 42.367 58.5752C41.0808 58.1754 39.8727 57.039 40.1675 55.7215C40.3294 54.9965 40.7773 54.5075 41.4305 54.3406C42.5693 54.0529 43.9537 54.7779 44.6762 55.6064C45.2658 56.2796 45.445 57.0074 45.182 57.6518C44.9855 58.1322 44.6155 58.463 44.1329 58.627L44.13 58.6242Z" fill="#11B67A"/>
<path d="M47.2312 54.7055C46.3295 55.0076 45.3642 54.5185 44.7226 53.4109C44.0492 52.2487 43.9364 50.5974 45.0492 49.8264C45.6619 49.4036 46.3266 49.346 46.9162 49.6625C47.948 50.2177 48.474 51.6849 48.4422 52.7838C48.4162 53.6785 48.0521 54.3315 47.4191 54.6278C47.3555 54.6566 47.2919 54.6825 47.2283 54.7026L47.2312 54.7055Z" fill="#11B67A"/>
<path d="M51.9132 54.3639C51.5924 54.4703 51.2659 54.4847 50.945 54.3926C49.9335 54.1107 49.445 53.0578 49.7051 51.7143C49.9595 50.3967 50.9566 49.0734 52.3063 49.2144C53.0491 49.292 53.5895 49.6804 53.8265 50.3076C54.2427 51.4007 53.6763 52.8507 52.9306 53.6619C52.6127 54.0071 52.2687 54.243 51.9132 54.361V54.3639Z" fill="#11B67A"/>
</svg>
