<svg width="100" height="100" viewBox="0 0 100 100" fill="none" xmlns="http://www.w3.org/2000/svg">
<g clip-path="url(#clip0_15980_1491)">
<rect width="100" height="100" fill="#11B67A"/>
<path d="M16.6338 52.2397C27.5146 48.5386 39.1335 46.4656 51.2581 46.4656C63.3826 46.4656 75.0117 48.5386 85.8924 52.2397C87.4396 52.7655 88.6733 53.8576 89.4216 55.2329L82.8386 40.8735C81.979 39.3972 80.6037 38.2444 78.9049 37.6882C70.1882 34.8669 60.9152 33.2894 51.2581 33.2894C41.6009 33.2894 32.328 34.8669 23.6112 37.6882C21.9023 38.2444 20.5371 39.3972 19.6776 40.8735L13.0945 55.2329C13.853 53.8576 15.0765 52.7655 16.6237 52.2397H16.6338Z" fill="#006A4D"/>
<path d="M90.252 58.3781C90.252 55.6174 88.5026 53.1298 85.8937 52.24C75.0129 48.5389 63.394 46.4659 51.2593 46.4659C39.1246 46.4659 27.5057 48.5389 16.635 52.24C14.016 53.1298 12.2867 55.6174 12.2867 58.3781V94.8023C12.2867 97.6742 14.6126 100 17.4844 100H85.0544C87.9262 100 90.252 97.6742 90.252 94.8023V58.3781Z" fill="#6CF479"/>
<path d="M12.2769 94.7922C12.2769 94.7922 12.7825 97.5124 17.515 97.5124H86.6927V99.9899H17.2622C17.2622 99.9899 12.5196 100.051 12.2769 94.7922Z" fill="black"/>
<path d="M19.6776 40.8735L13.0945 55.2329C13.853 53.8576 15.0765 52.7655 16.6237 52.2397C21.0832 50.7228 25.6748 49.4997 30.3668 48.5593C41.5712 43.3919 36.0297 37.4257 44.1397 33.5831C37.0308 34.1595 30.1646 35.5752 23.6119 37.6988C21.9029 38.2549 20.5378 39.4077 19.6782 40.8841L19.6776 40.8735Z" fill="black"/>
<path d="M70.9169 41.4502C68.3888 41.8648 66.1641 42.3502 64.4956 42.7446C64.0102 42.8659 64.1012 43.5738 64.6068 43.5839C71.0382 43.6648 73.8696 43.9783 73.8696 43.9783V41.2176L70.9169 41.4502Z" fill="black"/>
<path d="M76.9033 43.1288V29.9728C76.9033 15.8864 65.436 4.41916 51.3496 4.41916C37.2633 4.41916 25.7961 15.8864 25.7961 29.9728V43.1692C25.8365 43.9074 27.1713 44.2714 28.8196 43.9883C30.4881 43.695 31.8533 42.8456 31.8533 42.0872V29.9728C31.8533 19.2235 40.6004 10.4865 51.3395 10.4865C62.0787 10.4865 70.8258 19.2336 70.8258 29.9728V42.0872C70.8258 42.8456 72.1909 43.7052 73.8595 43.9883C75.5078 44.2714 76.8527 43.867 76.9033 43.1288Z" fill="white"/>
<path d="M26.9076 43.9984C26.9076 43.9984 27.8784 44.231 29.0615 43.9276V30.9941C29.0615 30.9941 27.9088 14.2684 42.4906 7.16966C42.4906 7.16966 26.9076 12.1247 26.9076 30.9941V43.9984Z" fill="black"/>
<path d="M60.5703 10.9716C73.5443 17.2918 72.5128 32.1668 72.5128 32.1668V43.6038C73.4937 43.9981 74.4342 44.0487 74.4342 44.0487V32.177C74.4342 15.3907 60.5703 10.9817 60.5703 10.9817V10.9716Z" fill="black"/>
<path d="M5.12691 23.046C5.12691 23.046 6.81566 28.628 13.6414 30.165C13.6414 30.165 8.46395 31.0549 8.36283 37.2638C8.36283 37.2638 6.54261 31.8841 0 30.1549C0 30.1549 5.47072 29.5078 5.12691 23.0359V23.046Z" fill="white"/>
<path d="M86.8038 0C86.8038 0 89.4128 8.64595 99.9902 11.0426C99.9902 11.0426 91.9712 12.4279 91.8195 22.0447C91.8195 22.0447 88.9982 13.7021 78.8556 11.0324C78.8556 11.0324 87.3296 10.0313 86.8038 0Z" fill="white"/>
<path d="M70.0577 61.4726C70.3914 61.9681 70.6947 62.4737 70.988 62.9895H90.2821V61.4726H70.0577Z" fill="#00482F"/>
<path d="M73.5067 69.6631H90.2829V68.1463H73.1427C73.2842 68.6418 73.4056 69.1474 73.5168 69.6631H73.5067Z" fill="#00482F"/>
<path d="M90.2713 76.3279V74.8111H73.9603C73.9502 75.3167 73.9198 75.8223 73.8794 76.3279H90.2713Z" fill="#00482F"/>
<path d="M72.2934 83.0016H90.283V81.4848H72.8496C72.6777 82.0005 72.4957 82.5061 72.2934 83.0016Z" fill="#00482F"/>
<path d="M68.1261 89.6753H90.282V88.1584H69.38C68.9856 88.6843 68.571 89.1899 68.1362 89.6753H68.1261Z" fill="#00482F"/>
<path d="M31.8942 61.4726H12.2461V62.9895H30.9638C31.2571 62.4737 31.5706 61.9681 31.8942 61.4726Z" fill="#00482F"/>
<path d="M28.8102 68.1463H12.2363V69.6631H28.436C28.5372 69.1474 28.6686 68.6418 28.8102 68.1463Z" fill="#00482F"/>
<path d="M27.9709 74.8111H12.2363V76.3279H28.0518C28.0113 75.8223 27.981 75.3167 27.9709 74.8111Z" fill="#00482F"/>
<path d="M29.0934 81.4848H12.2363V83.0016H29.6495C29.4473 82.5061 29.2653 82.0005 29.0934 81.4848Z" fill="#00482F"/>
<path d="M12.2363 88.1584V89.6753H33.8158C33.3809 89.1899 32.9663 88.6843 32.5719 88.1584H12.2363Z" fill="#00482F"/>
<path d="M37.8577 79.184C38.2548 79.184 38.5765 79.5169 38.5765 79.9282V83.2211C38.5765 85.0212 39.9908 86.4867 41.7288 86.4868H44.9085C45.3056 86.4868 45.6273 86.8197 45.6273 87.2309C45.6273 87.6421 45.3055 87.975 44.9085 87.975H41.7288C39.198 87.9749 37.139 85.8424 37.139 83.2211V79.9282C37.139 79.517 37.4608 79.1841 37.8577 79.184Z" fill="black"/>
<path d="M64.7366 79.184C65.1336 79.1841 65.4554 79.517 65.4554 79.9282V83.2211C65.4554 85.8424 63.3964 87.975 60.8656 87.975H57.6859C57.2888 87.975 56.9671 87.6421 56.9671 87.2309C56.9671 86.8197 57.2888 86.4868 57.6859 86.4868H60.8656C62.6036 86.4867 64.0179 85.0212 64.0179 83.2211V79.9282C64.0179 79.5169 64.3396 79.184 64.7366 79.184Z" fill="black"/>
<path d="M55.2445 79.1899C55.5474 78.9005 56.0195 78.9203 56.2991 79.2338C56.5787 79.5475 56.56 80.0369 56.2572 80.3266C54.9028 81.6222 53.1409 82.3353 51.2962 82.3354C49.4513 82.3354 47.6888 81.6223 46.3343 80.3266C46.0315 80.0369 46.0129 79.5475 46.2923 79.2338C46.5721 78.9202 47.045 78.9002 47.348 79.1899C48.4257 80.221 49.8279 80.7895 51.2962 80.7895C52.7644 80.7894 54.1668 80.2209 55.2445 79.1899Z" fill="black"/>
<path d="M52.0413 68.933C52.4535 68.9332 52.7874 69.2795 52.7874 69.7065V75.2045C52.7874 76.2941 51.9313 77.1811 50.8792 77.1811H50.2718C49.8595 77.1811 49.5248 76.8347 49.5247 76.4077C49.5247 75.9806 49.8595 75.6342 50.2718 75.6342H50.8792C51.1079 75.6342 51.2943 75.4414 51.2943 75.2045V69.7065C51.2943 69.2794 51.629 68.933 52.0413 68.933Z" fill="black"/>
<path d="M45.5335 68.933C45.9229 68.9331 46.2386 69.2602 46.2386 69.6635V71.8686C46.2385 72.2718 45.9228 72.599 45.5335 72.5991C45.1442 72.5991 44.8285 72.2718 44.8284 71.8686V69.6635C44.8284 69.2602 45.1441 68.933 45.5335 68.933Z" fill="black"/>
<path d="M57.2288 68.933C57.6181 68.9332 57.9339 69.2603 57.9339 69.6635V71.8686C57.9338 72.2717 57.6181 72.5989 57.2288 72.5991C56.8395 72.5991 56.5238 72.2718 56.5238 71.8686V69.6635C56.5238 69.2602 56.8394 68.933 57.2288 68.933Z" fill="black"/>
<path d="M44.9085 58.6508C45.3054 58.6508 45.627 58.984 45.6273 59.395C45.6273 59.8062 45.3056 60.1401 44.9085 60.1401H41.7288C39.9908 60.1402 38.5765 61.6046 38.5765 63.4047V66.6977C38.5765 67.1089 38.2548 67.4428 37.8577 67.4428C37.4608 67.4427 37.139 67.1088 37.139 66.6977V63.4047C37.139 60.7835 39.198 58.6509 41.7288 58.6508H44.9085Z" fill="black"/>
<path d="M60.8656 58.6508C63.3964 58.6509 65.4554 60.7834 65.4554 63.4047V66.6977C65.4554 67.1089 65.1336 67.4427 64.7366 67.4428C64.3396 67.4428 64.0179 67.1089 64.0179 66.6977V63.4047C64.0179 61.6046 62.6036 60.1402 60.8656 60.1401H57.6859C57.2888 60.1401 56.9671 59.8062 56.9671 59.395C56.9674 58.984 57.289 58.6508 57.6859 58.6508H60.8656Z" fill="black"/>
</g>
<defs>
<clipPath id="clip0_15980_1491">
<rect width="100" height="100" fill="white"/>
</clipPath>
</defs>
</svg>
