<svg width="100" height="100" viewBox="0 0 100 100" fill="none" xmlns="http://www.w3.org/2000/svg">
<rect width="100" height="100" fill="#11B67A"/>
<path d="M84.5534 80.9965H0V85.2606H84.5534V80.9965Z" fill="black"/>
<path d="M73.1279 60.0173H11.4344L0.263719 84.1404C-0.577904 85.952 0.739789 88.0371 2.72908 88.0371H81.8332C83.8225 88.0371 85.1402 85.9606 84.2985 84.1404L73.1279 60.0173Z" fill="black"/>
<path d="M73.1279 55.8047H11.4344L0.263719 79.9279C-0.577904 81.7395 0.739789 83.8246 2.72908 83.8246H81.8332C83.8225 83.8246 85.1402 81.748 84.2985 79.9279L73.1279 55.8047Z" fill="#6CF479"/>
<path d="M14.2906 12.0371H70.2628C71.7675 12.0371 72.9832 13.2676 72.9832 14.7716V54.2164H11.5702V14.7716C11.5702 13.2591 12.7944 12.0371 14.2906 12.0371Z" fill="#006A4D"/>
<path d="M42.2769 17.6161C42.8778 17.6161 43.365 17.1263 43.365 16.5223C43.365 15.9182 42.8778 15.4285 42.2769 15.4285C41.6759 15.4285 41.1887 15.9182 41.1887 16.5223C41.1887 17.1263 41.6759 17.6161 42.2769 17.6161Z" fill="#6CF479"/>
<path d="M75.9502 70.8203L71.1555 60.6258C70.8579 59.9849 70.2203 59.5833 69.5147 59.5833H15.0473C14.3416 59.5833 13.7041 59.9935 13.4065 60.6258L8.61181 70.8203C8.18675 71.7261 8.84134 72.7771 9.84449 72.7771H25.1892C25.7418 72.7771 26.1754 73.2728 26.0904 73.8283L25.9118 74.9647C25.7843 75.7936 26.4219 76.5456 27.255 76.5456H57.2984C58.1316 76.5456 58.7692 75.7936 58.6416 74.9647L58.4631 73.8283C58.3781 73.2728 58.8032 72.7771 59.3642 72.7771H74.709C75.7121 72.7771 76.3667 71.7347 75.9417 70.8203H75.9502Z" fill="black"/>
<path d="M66.4032 24.1874H53.9659C53.0269 24.1874 52.2656 24.9525 52.2656 25.8964V43.0894C52.2656 44.0333 53.0269 44.7985 53.9659 44.7985H66.4032C67.3422 44.7985 68.1035 44.0333 68.1035 43.0894V25.8964C68.1035 24.9525 67.3422 24.1874 66.4032 24.1874Z" fill="#00482F"/>
<path d="M99.9662 72.2569C99.7877 74.2821 98.4785 76.9825 93.5818 76.9825C90.6488 76.9825 88.0135 75.5811 86.7553 72.9491L83.2018 65.4977C83.0487 65.1815 83.0062 64.814 83.0657 64.4466L83.2868 63.2418C83.3973 62.6094 83.8478 62.0967 84.4174 61.8232C86.0837 61.0371 88.7616 60.4901 91.7795 60.9259C93.3522 61.1481 94.7804 61.9086 95.8346 63.0793C97.5944 65.0191 100.272 68.6252 99.9577 72.2569H99.9662Z" fill="#006A4D"/>
<path d="M100 71.6404C99.2094 74.8278 95.9534 75.5029 93.0035 75.3064C92.0598 75.2465 90.9887 74.9389 90.3171 74.597C89.1014 73.9903 88.1578 72.9649 87.5287 71.7601L83.7286 64.4624C83.2015 63.4028 83.5841 62.5141 83.5841 62.5141C83.5841 62.5141 83.3546 62.8303 83.2951 63.2319L83.074 64.4367C83.006 64.8042 83.057 65.1717 83.21 65.4879L86.7636 72.9393C88.0217 75.5712 90.6571 76.9726 93.5901 76.9726C98.4783 76.9726 100 74.3322 100 71.6319V71.6404Z" fill="black"/>
<path d="M95.6815 64.2498C95.6815 64.2498 97.6283 66.4203 98.555 69.3941C99.1245 71.2398 98.0874 73.2308 96.2341 73.7436C95.571 73.9316 94.7549 74.0598 93.7432 74.0939C93.7432 74.0939 99.7791 71.3936 95.6815 64.2498Z" fill="white"/>
<path d="M65.0601 37.9894C64.7541 36.87 64.2695 36.4512 63.3343 36.1436L61.9656 35.6566C61.8466 35.7506 61.7276 35.8531 61.6001 35.93C61.1325 36.212 60.6479 36.3572 60.1719 36.3572C59.6958 36.3572 59.2112 36.212 58.7437 35.93C58.6161 35.8531 58.4971 35.7506 58.3696 35.6566L57.0009 36.1436C56.0743 36.4512 55.5812 36.87 55.2752 37.9894L54.9011 39.5105H65.4257L65.0516 37.9894H65.0601ZM59.3983 34.8277C59.6278 34.9644 59.8913 35.0754 60.1804 35.0754C60.4694 35.0754 60.733 34.973 60.9625 34.8277C61.4811 34.5201 61.8551 34.0074 62.0677 33.4348C62.3142 32.7427 62.3397 32.1274 62.3397 32.1274C62.4077 30.5465 61.3706 29.7518 60.1889 29.7518C59.0072 29.7518 57.9701 30.5465 58.0381 32.1274C58.0381 32.1274 58.0551 32.7427 58.3101 33.4348C58.5141 34.0074 58.8882 34.5115 59.4153 34.8277H59.3983Z" fill="white"/>
<path d="M48.287 24.1874H35.8497C34.9107 24.1874 34.1494 24.9525 34.1494 25.8964V43.0894C34.1494 44.0333 34.9107 44.7985 35.8497 44.7985H48.287C49.226 44.7985 49.9873 44.0333 49.9873 43.0894V25.8964C49.9873 24.9525 49.226 24.1874 48.287 24.1874Z" fill="#00482F"/>
<path d="M46.9522 37.9894C46.6462 36.87 46.1616 36.4512 45.2264 36.1436L43.8577 35.6566C43.7387 35.7506 43.6197 35.8531 43.4922 35.93C43.0246 36.212 42.5401 36.3572 42.064 36.3572C41.5879 36.3572 41.1033 36.212 40.6358 35.93C40.5083 35.8531 40.3892 35.7506 40.2617 35.6566L38.893 36.1436C37.9664 36.4512 37.4733 36.87 37.1673 37.9894L36.7932 39.5105H47.3177L46.9437 37.9894H46.9522ZM41.2819 34.8277C41.5114 34.9644 41.7749 35.0754 42.064 35.0754C42.353 35.0754 42.6166 34.973 42.8461 34.8277C43.3647 34.5201 43.7387 34.0074 43.9513 33.4348C44.1978 32.7427 44.2233 32.1274 44.2233 32.1274C44.2913 30.5465 43.2542 29.7518 42.0725 29.7518C40.8908 29.7518 39.8537 30.5465 39.9217 32.1274C39.9217 32.1274 39.9387 32.7427 40.1937 33.4348C40.3977 34.0074 40.7718 34.5115 41.2989 34.8277H41.2819Z" fill="white"/>
<path d="M30.1708 24.1874H17.7335C16.7945 24.1874 16.0332 24.9525 16.0332 25.8964V43.0894C16.0332 44.0333 16.7945 44.7985 17.7335 44.7985H30.1708C31.1098 44.7985 31.8711 44.0333 31.8711 43.0894V25.8964C31.8711 24.9525 31.1098 24.1874 30.1708 24.1874Z" fill="#6CF479"/>
<path d="M28.836 37.9894C28.5299 36.87 28.0454 36.4512 27.1102 36.1436L25.7415 35.6566C25.6225 35.7506 25.5035 35.8531 25.376 35.93C24.9084 36.212 24.4238 36.3572 23.9478 36.3572C23.4717 36.3572 22.9871 36.212 22.5196 35.93C22.392 35.8531 22.273 35.7506 22.1455 35.6566L20.7768 36.1436C19.8502 36.4512 19.3571 36.87 19.0511 37.9894L18.677 39.5105H29.2015L28.8275 37.9894H28.836ZM23.1657 34.8277C23.3952 34.9644 23.6587 35.0754 23.9478 35.0754C24.2368 35.0754 24.5004 34.973 24.7299 34.8277C25.2485 34.5201 25.6225 34.0074 25.8351 33.4348C26.0816 32.7427 26.1071 32.1274 26.1071 32.1274C26.1751 30.5465 25.138 29.7518 23.9563 29.7518C22.7746 29.7518 21.7375 30.5465 21.8055 32.1274C21.8055 32.1274 21.8225 32.7427 22.0775 33.4348C22.2815 34.0074 22.6556 34.5115 23.1827 34.8277H23.1657Z" fill="black"/>
</svg>
