<svg width="100" height="100" viewBox="0 0 100 100" fill="none" xmlns="http://www.w3.org/2000/svg">
<g clip-path="url(#clip0_15980_16822)">
<rect width="100" height="100" fill="#11B67A"/>
<path d="M96.9459 63.1618L51.1071 40.4689L49.4686 46.6763L91.6091 72.837C92.5064 73.3928 93.5051 73.6511 94.4803 73.6511C96.4153 73.6511 98.3035 72.6256 99.31 70.8017C100.831 68.0463 99.7547 64.5786 96.9459 63.1696V63.1618Z" fill="#006A4D"/>
<path d="M49.4685 46.6776L63.107 55.1473C63.1616 53.8635 63.2397 52.1649 63.3333 50.5993C63.5128 47.6404 62.1317 46.114 61.6558 45.6991L51.107 40.4779L49.4685 46.6854V46.6776Z" fill="black"/>
<path d="M59.6896 36.7049C56.4907 35.6716 52.4881 33.8478 48.4153 31.5855C44.3424 29.3233 40.6831 26.881 38.1083 24.7127C37.3125 24.0395 36.6649 23.4289 36.1343 22.8653L25.1955 42.6854C25.1643 42.7323 25.1643 42.795 25.1487 42.8498C26.1474 44.5093 30.0485 48.0631 37.1409 52.0005C44.2254 55.9379 49.2969 57.3704 51.2319 57.3469C51.2709 57.3078 51.3255 57.2686 51.3489 57.2217L62.2878 37.4016C61.531 37.2529 60.6728 37.0259 59.6819 36.7049H59.6896Z" fill="#6CF479"/>
<path d="M38.7324 63.2398C23.7051 63.2398 11.5178 67.0128 11.5178 71.6626C11.5178 76.3123 23.7051 80.0853 38.7324 80.0853C53.7597 80.0853 65.947 76.3123 65.947 71.6626C65.947 67.0128 53.7597 63.2398 38.7324 63.2398Z" fill="#6CF479"/>
<path d="M11.5178 71.6564C11.5178 72.0087 11.5958 72.3609 11.7363 72.6975C16.0744 73.4647 22.0666 73.723 28.4879 73.2768C40.4957 72.447 49.4372 69.4803 48.4697 66.6466C47.9235 65.0497 44.3345 63.8364 39.1615 63.2337C39.0211 63.2337 38.8806 63.2337 38.7402 63.2337C23.7129 63.2337 11.5256 67.0067 11.5256 71.6564H11.5178Z" fill="black"/>
<path d="M50.8886 62.0358C50.5063 62.2315 50.0225 62.3333 49.4295 62.3333C45.7937 62.3333 38.6935 58.983 34.6597 56.7442C29.9003 54.0984 21.5907 48.6502 21.5595 45.6209C21.0134 45.5817 20.6155 45.9575 20.6155 45.9575C19.4685 47.1003 17.596 49.386 17.4789 52.1962C17.3229 54.0827 23.1044 58.8421 30.9536 63.2022C38.8028 67.5623 45.8951 69.9576 47.4009 68.8304C49.7182 67.2413 50.6545 64.4311 51.0134 62.8577C51.0134 62.8577 51.1617 62.3098 50.8808 62.0358H50.8886Z" fill="#006A4D"/>
<path d="M69.0447 79.1849C68.795 78.0811 68.0849 76.6799 66.8054 76.3434L66.384 73.9637C65.6194 75.13 64.2774 76.1711 62.5141 77.0635L63.661 82.3003C63.1149 82.6056 62.5141 82.8952 61.8587 83.1771L60.704 77.8698C59.9315 78.1751 59.1123 78.4647 58.2384 78.7308L59.4322 84.0851C58.0668 84.5313 56.5453 84.9383 54.9068 85.2906L53.6974 79.8659C49.1252 80.7739 43.8743 81.2436 38.7481 81.2436C26.7871 81.2436 14.1785 78.6995 11.0888 73.948L10.6675 76.3355C9.39572 76.6643 8.68567 78.0733 8.436 79.177C8.41259 79.2866 8.39703 79.3884 8.38142 79.498H8.35799L8.03812 81.2905C8.00691 81.4706 7.98349 81.6506 7.98349 81.8307C7.98349 87.091 21.7546 91.3493 38.7481 91.3493C55.7417 91.3493 69.5128 87.091 69.5128 81.8307C69.5128 81.5958 69.0915 79.2866 69.0681 79.177L69.0447 79.1849Z" fill="black"/>
<path d="M7.609 47.578C11.2917 54.9127 4.72217 57.2454 4.72217 57.2454C12.0954 57.9186 18.8834 59.9303 18.8834 59.9303C12.111 55.0458 7.609 47.578 7.609 47.578ZM29.4868 73.1672C29.4868 73.1672 13.3515 73.6447 19.9211 63.312C19.9211 63.312 11.6818 64.9949 0.00170898 63.8521C0.00170898 63.8521 8.64673 65.5977 10.3632 70.4823C12.3606 76.1574 7.68705 81.1673 7.68705 81.1673C7.68705 81.1673 15.5596 76.6976 20.202 81.316C20.202 81.316 23.1591 86.1066 21.388 91.5C21.388 91.5 26.4049 77.2847 29.4868 73.1672Z" fill="white"/>
<path d="M58.0824 14.0812C51.9029 10.6448 46.2072 8.5 43.6636 8.5C42.977 8.5 42.5245 8.65656 42.345 8.9775C41.4946 10.5196 47.1591 15.3024 55.0082 19.6625C61.1877 23.0989 66.8834 25.2437 69.427 25.2437C70.1136 25.2437 70.5661 25.0872 70.7456 24.7662C71.5961 23.2242 65.9315 18.4413 58.0824 14.0812Z" fill="#6CF479"/>
<path d="M50.5299 27.7628C49.3674 27.121 41.1047 22.4477 37.8043 18.5416C37.3752 18.7452 37.0007 19.0661 36.751 19.5201C36.3375 20.2716 36.3843 21.1483 36.79 21.8372C37.2659 22.3695 37.9291 23.027 38.8654 23.8176C41.3856 25.9389 44.9747 28.3343 48.9851 30.5652C52.9877 32.7883 56.9201 34.573 60.0488 35.5907C61.4922 36.0603 62.5455 36.2873 63.2946 36.3813C63.9812 36.2795 64.621 35.8725 64.9799 35.2149C65.2374 34.7453 65.3076 34.2208 65.2296 33.7276C61.9682 33.2736 56.4129 31.0349 50.5221 27.7707L50.5299 27.7628Z" fill="#006A4D"/>
<path d="M69.4194 26.4191C66.5793 26.4191 60.6964 24.1725 54.4311 20.6892C50.5767 18.5443 47.1047 16.2273 44.6548 14.1607C42.1112 12.0159 40.972 10.4347 41.0813 9.16659C40.0201 10.1529 37.734 12.6108 37.6092 15.7263C37.4532 17.6128 43.2347 22.3721 51.0839 26.7323C57.6222 30.3644 63.6378 32.6344 66.3375 32.6344C66.8758 32.6344 67.2816 32.5405 67.5312 32.3526C70.1216 30.5835 70.9798 27.2959 71.2451 25.8868C70.8082 26.2234 70.1996 26.4035 69.4116 26.4035L69.4194 26.4191Z" fill="#006A4D"/>
<path d="M34.8081 42.3619L42.6885 28.0917C40.9407 26.9019 39.6065 25.9078 38.6312 25.125L27.4505 45.3678C29.3933 47.1134 32.4596 49.3521 36.7196 51.7553C33.9108 49.5556 33.0292 45.5869 34.8081 42.3619Z" fill="white"/>
<path d="M22.7691 45.6126C22.7847 47.3504 28.379 51.8749 35.2451 55.687C39.9655 58.3094 46.4102 61.1274 49.4297 61.1274C49.9135 61.1274 50.1865 61.0413 50.3348 60.963C50.3348 60.963 50.9121 60.6812 51.2164 60.1411C51.5207 59.601 51.5676 59.0217 51.4349 58.4816C51.3101 58.4894 51.1853 58.5051 51.0526 58.5051C47.4869 58.5051 40.535 55.2252 36.5792 53.0256C32.5376 50.779 25.8822 46.4737 24.1579 43.4287C23.6742 43.6243 23.2606 43.9688 22.9797 44.4541C22.6989 44.9394 22.7613 45.6126 22.7613 45.6126H22.7691Z" fill="#006A4D"/>
</g>
<defs>
<clipPath id="clip0_15980_16822">
<rect width="100" height="100" fill="white"/>
</clipPath>
</defs>
</svg>
