<svg width="100" height="100" viewBox="0 0 100 100" fill="none" xmlns="http://www.w3.org/2000/svg">
<g clip-path="url(#clip0_15980_16820)">
<rect width="100" height="100" fill="#11B67A"/>
<path d="M96.8931 63.1618L51.0543 40.4689L49.4159 46.6763L91.5564 72.837C92.4536 73.3928 93.4523 73.6511 94.4276 73.6511C96.3626 73.6511 98.2508 72.6256 99.2573 70.8017C100.779 68.0463 99.702 64.5786 96.8931 63.1696V63.1618Z" fill="#006A4D"/>
<path d="M49.4158 46.6776L63.0543 55.1473C63.1089 53.8635 63.1869 52.1649 63.2806 50.5993C63.46 47.6404 62.079 46.114 61.603 45.6991L51.0543 40.4779L49.4158 46.6854V46.6776Z" fill="black"/>
<path d="M59.6369 36.7049C56.4379 35.6716 52.4354 33.8478 48.3625 31.5855C44.2897 29.3233 40.6304 26.881 38.0556 24.7127C37.2598 24.0395 36.6122 23.4289 36.0816 22.8653L25.1427 42.6854C25.1115 42.7323 25.1115 42.795 25.0959 42.8498C26.0946 44.5093 29.9958 48.0631 37.0881 52.0005C44.1727 55.9379 49.2442 57.3704 51.1792 57.3469C51.2182 57.3078 51.2728 57.2686 51.2962 57.2217L62.2351 37.4016C61.4782 37.2529 60.62 37.0259 59.6291 36.7049H59.6369Z" fill="#6CF479"/>
<path d="M38.6796 63.2398C23.6523 63.2398 11.4651 67.0128 11.4651 71.6626C11.4651 76.3123 23.6523 80.0853 38.6796 80.0853C53.707 80.0853 65.8942 76.3123 65.8942 71.6626C65.8942 67.0128 53.707 63.2398 38.6796 63.2398Z" fill="#6CF479"/>
<path d="M11.4651 71.6564C11.4651 72.0087 11.5431 72.3609 11.6835 72.6975C16.0216 73.4647 22.0138 73.723 28.4352 73.2768C40.443 72.447 49.3844 69.4803 48.417 66.6466C47.8708 65.0497 44.2817 63.8364 39.1088 63.2337C38.9683 63.2337 38.8279 63.2337 38.6875 63.2337C23.6601 63.2337 11.4729 67.0067 11.4729 71.6564H11.4651Z" fill="black"/>
<path d="M50.8358 62.0358C50.4535 62.2315 49.9698 62.3333 49.3768 62.3333C45.7409 62.3333 38.6408 58.983 34.607 56.7442C29.8475 54.0984 21.538 48.6502 21.5068 45.6209C20.9606 45.5817 20.5628 45.9575 20.5628 45.9575C19.4158 47.1003 17.5432 49.386 17.4262 52.1962C17.2701 54.0827 23.0517 58.8421 30.9009 63.2022C38.75 67.5623 45.8423 69.9576 47.3482 68.8304C49.6655 67.2413 50.6018 64.4311 50.9607 62.8577C50.9607 62.8577 51.1089 62.3098 50.828 62.0358H50.8358Z" fill="#006A4D"/>
<path d="M68.9919 79.1849C68.7423 78.0811 68.0322 76.6799 66.7526 76.3434L66.3313 73.9637C65.5667 75.13 64.2247 76.1711 62.4613 77.0635L63.6083 82.3003C63.0621 82.6056 62.4614 82.8952 61.806 83.1771L60.6512 77.8698C59.8788 78.1751 59.0595 78.4647 58.1857 78.7308L59.3794 84.0851C58.014 84.5313 56.4925 84.9383 54.854 85.2906L53.6447 79.8659C49.0725 80.7739 43.8216 81.2436 38.6954 81.2436C26.7344 81.2436 14.1258 78.6995 11.0361 73.948L10.6148 76.3355C9.34299 76.6643 8.63294 78.0733 8.38326 79.177C8.35985 79.2866 8.34429 79.3884 8.32869 79.498H8.30526L7.98538 81.2905C7.95417 81.4706 7.93076 81.6506 7.93076 81.8307C7.93076 87.091 21.7019 91.3493 38.6954 91.3493C55.6889 91.3493 69.4601 87.091 69.4601 81.8307C69.4601 81.5958 69.0387 79.2866 69.0153 79.177L68.9919 79.1849Z" fill="black"/>
<path d="M7.55626 47.578C11.239 54.9127 4.66943 57.2454 4.66943 57.2454C12.0427 57.9186 18.8307 59.9303 18.8307 59.9303C12.0582 55.0458 7.55626 47.578 7.55626 47.578ZM29.4341 73.1672C29.4341 73.1672 13.2988 73.6447 19.8684 63.312C19.8684 63.312 11.6291 64.9949 -0.0510254 63.8521C-0.0510254 63.8521 8.594 65.5977 10.3105 70.4823C12.3079 76.1574 7.63432 81.1673 7.63432 81.1673C7.63432 81.1673 15.5069 76.6976 20.1493 81.316C20.1493 81.316 23.1064 86.1066 21.3352 91.5C21.3352 91.5 26.3521 77.2847 29.4341 73.1672Z" fill="white"/>
<path d="M58.0296 14.0812C51.8502 10.6448 46.1545 8.5 43.6109 8.5C42.9243 8.5 42.4718 8.65656 42.2923 8.9775C41.4418 10.5196 47.1063 15.3024 54.9555 19.6625C61.135 23.0989 66.8307 25.2437 69.3743 25.2437C70.0609 25.2437 70.5134 25.0872 70.6929 24.7662C71.5433 23.2242 65.8788 18.4413 58.0296 14.0812Z" fill="#6CF479"/>
<path d="M50.4772 27.7628C49.3146 27.121 41.052 22.4477 37.7516 18.5416C37.3224 18.7452 36.9479 19.0661 36.6983 19.5201C36.2847 20.2716 36.3315 21.1483 36.7373 21.8372C37.2132 22.3695 37.8764 23.027 38.8127 23.8176C41.3328 25.9389 44.9219 28.3343 48.9323 30.5652C52.9349 32.7883 56.8673 34.573 59.9961 35.5907C61.4395 36.0603 62.4928 36.2873 63.2418 36.3813C63.9284 36.2795 64.5682 35.8725 64.9272 35.2149C65.1846 34.7453 65.2549 34.2208 65.1768 33.7276C61.9155 33.2736 56.3602 31.0349 50.4694 27.7707L50.4772 27.7628Z" fill="#006A4D"/>
<path d="M69.3667 26.4191C66.5266 26.4191 60.6436 24.1725 54.3783 20.6892C50.524 18.5443 47.052 16.2273 44.602 14.1607C42.0585 12.0159 40.9193 10.4347 41.0285 9.16659C39.9674 10.1529 37.6813 12.6108 37.5565 15.7263C37.4004 17.6128 43.182 22.3721 51.0311 26.7323C57.5695 30.3644 63.5851 32.6344 66.2847 32.6344C66.8231 32.6344 67.2288 32.5405 67.4785 32.3526C70.0689 30.5835 70.9271 27.2959 71.1924 25.8868C70.7554 26.2234 70.1469 26.4035 69.3588 26.4035L69.3667 26.4191Z" fill="#006A4D"/>
<path d="M34.7554 42.3619L42.6357 28.0917C40.888 26.9019 39.5538 25.9078 38.5785 25.125L27.3978 45.3678C29.3406 47.1134 32.4068 49.3521 36.6669 51.7553C33.8581 49.5556 32.9764 45.5869 34.7554 42.3619Z" fill="white"/>
<path d="M22.7164 45.6126C22.732 47.3504 28.3263 51.8749 35.1923 55.687C39.9127 58.3094 46.3575 61.1274 49.377 61.1274C49.8607 61.1274 50.1338 61.0413 50.282 60.963C50.282 60.963 50.8594 60.6812 51.1637 60.1411C51.468 59.601 51.5148 59.0217 51.3822 58.4816C51.2574 58.4894 51.1325 58.5051 50.9999 58.5051C47.4342 58.5051 40.4823 55.2252 36.5265 53.0256C32.4849 50.779 25.8295 46.4737 24.1052 43.4287C23.6214 43.6243 23.2079 43.9688 22.927 44.4541C22.6461 44.9394 22.7086 45.6126 22.7086 45.6126H22.7164Z" fill="#006A4D"/>
</g>
<defs>
<clipPath id="clip0_15980_16820">
<rect width="100" height="100" fill="white"/>
</clipPath>
</defs>
</svg>
