<svg width="100" height="100" viewBox="0 0 100 100" fill="none" xmlns="http://www.w3.org/2000/svg">
<g clip-path="url(#clip0_15980_16837)">
<rect width="100" height="100" fill="#11B67A"/>
<path d="M61.2306 13.2038C61.2418 11.4314 56.4951 9.965 50.6284 9.92843C44.7618 9.89186 39.9968 11.299 39.9856 13.0713C39.9744 14.8437 44.7211 16.3101 50.5878 16.3467C56.4544 16.3833 61.2194 14.9761 61.2306 13.2038Z" fill="#6CF479"/>
<path d="M49.7294 96.9556C68.6985 97.0744 75.8169 86.8129 75.8169 86.8129C77.3045 83.99 78.7221 81.6426 77.1447 77.1556L61.3904 36.1493L61.5102 17.3101L50.2385 18.2709H50.4582L39.1965 17.1714L39.0767 36.0106L22.7932 76.8189C22.0445 80.8502 22.7134 83.3958 24.161 86.2385C24.161 86.2385 30.9799 96.8367 49.949 96.9556" fill="#6CF479"/>
<path d="M49.7094 100.036C69.0878 100.155 76.1863 89.4181 76.1863 89.4181C77.5515 87.273 78.1261 84.2544 77.9771 81.3971C77.9584 81.2465 77.8062 80.2632 77.9584 80.256L70.9697 83.7227H49.0055C49.0055 83.7227 40.2495 83.3783 34.0299 82.7322C29.1309 82.2233 22.7633 77.1062 22.7633 77.1062C21.5553 82.1181 21.7449 86.8527 23.5919 89.0912C23.5919 89.0912 30.5506 99.9173 49.929 100.036" fill="black"/>
<path d="M49.8991 97.2034C68.8682 97.3223 75.8169 86.8129 75.8169 86.8129C75.8169 86.8129 78.1032 84.0695 77.7937 79.9689C77.7937 79.9689 78.173 72.0251 49.4299 71.7577C22.3939 71.5101 22.7633 77.1062 22.7633 77.1062C22.0145 81.1375 22.8731 83.6436 24.3307 86.4863C24.3307 86.4863 31.1496 97.0846 50.1187 97.2034" fill="#11B67A"/>
<path d="M69.5271 90.8045C66.562 91.3592 63.1276 93.9147 59.4436 94.2217L59.4136 99.1049C65.1343 98.154 68.369 96.6484 69.8566 95.1132L69.8766 91.3889C68.978 91.6167 70.6253 90.6064 69.5271 90.8045Z" fill="#11B67A"/>
<path d="M53.4938 49.5506C56.2479 49.5506 58.4813 47.3349 58.4813 44.6026C58.4813 41.8702 56.2479 39.6457 53.4938 39.6457C50.7397 39.6457 48.5063 41.8614 48.5063 44.5938C48.5063 47.3262 50.7397 49.5419 53.4938 49.5419V49.5506Z" fill="#024731"/>
<path d="M53.7321 42.6844C53.7321 42.6844 57.0865 43.0347 56.3186 47.4486C57.0689 46.7217 57.5279 45.7145 57.5279 44.5936C57.5279 42.3866 55.7271 40.5913 53.4938 40.5913C53.2113 40.5913 52.9377 40.6176 52.6817 40.6701C53.1937 40.784 53.997 41.1956 53.7321 42.6756V42.6844Z" fill="#54B27F"/>
<path d="M46.5096 32.7026C48.1637 32.7026 49.5047 31.3722 49.5047 29.7311C49.5047 28.09 48.1637 26.7597 46.5096 26.7597C44.8554 26.7597 43.5145 28.09 43.5145 29.7311C43.5145 31.3722 44.8554 32.7026 46.5096 32.7026Z" fill="#024731"/>
<path d="M28.2743 68.8059C28.2743 68.8059 29.4723 65.3293 34.1547 64.2298C39.9653 62.863 42.6309 67.6371 47.7426 65.4977C48.2318 65.2897 54.9409 59.8915 55.2803 59.7726C62.858 57.1181 48.0521 86.0603 25.5587 75.8582L28.2743 68.8158V68.8059Z" fill="#11B67A"/>
<path d="M50.0089 94.1229C67.2308 94.2319 73.5406 84.6934 73.5406 84.6934C75.737 81.7715 75.8568 78.7604 74.8884 76.1554L66.8614 55.8701C50.1986 47.0151 49.5397 67.7758 39.9852 71.8467C33.5457 74.5904 27.256 72.8669 28.2743 68.8158L25.5587 75.8582C24.8798 79.523 24.8698 81.9597 26.8067 84.4062C26.8067 84.4062 32.9966 94.0239 50.2086 94.1328" fill="#024731"/>
<path d="M64.665 73.8868C69.9065 82.8607 57.6265 88.8234 57.6265 88.8234C68.2592 87.1594 71.0646 81.2066 71.0646 81.2066C73.6704 78.0073 66.1526 64.6158 66.1526 64.6158C62.5684 66.4878 61.62 69.4098 64.675 73.8868H64.665Z" fill="#F1F1F1"/>
<path d="M38.5077 17.1714L62.1492 17.32V19.4001C62.1292 20.965 56.4584 22.3913 50.6679 22.4012C44.5977 22.4012 38.3779 20.866 38.3978 18.8751L38.5077 17.1814V17.1714Z" fill="#11B67A"/>
<path d="M36.3012 13.5111V15.1507C36.2813 18.1419 42.6409 20.6083 50.5081 20.6578C58.3753 20.7073 64.7649 18.3202 64.7848 15.3289H64.8048V13.6352C64.8012 13.6327 64.7976 13.6302 64.7939 13.6277C64.8028 10.6387 58.4436 8.17711 50.5817 8.12811C42.7136 8.07906 36.3198 10.465 36.3009 13.4572C36.3008 13.4752 36.3009 13.4932 36.3012 13.5111Z" fill="black"/>
<path d="M61.2306 13.2038C61.2418 11.4314 56.4951 9.965 50.6284 9.92843C44.7618 9.89186 39.9968 11.299 39.9856 13.0713C39.9744 14.8437 44.7211 16.3101 50.5878 16.3467C56.4544 16.3833 61.2194 14.9761 61.2306 13.2038Z" fill="#6CF479"/>
<path d="M64.8248 13.3779C64.3256 15.3985 58.7247 17.7658 54.0124 18.1719C58.7846 18.2808 64.2258 16.3593 64.8148 14.9329L64.8348 13.3779H64.8248Z" fill="#6CF479"/>
<path d="M61.2306 13.2038C61.2418 11.4314 56.4951 9.965 50.6284 9.92843C44.7618 9.89186 39.9968 11.299 39.9856 13.0713C39.9744 14.8437 44.7211 16.3101 50.5878 16.3467C56.4544 16.3833 61.2194 14.9761 61.2306 13.2038Z" fill="#6CF479"/>
<path d="M47.1683 12.9939C47.1683 14.5703 49.2958 14.8836 49.2958 14.8836C46.2584 14.7421 42.5161 13.9943 42.5161 12.8828C42.5161 11.7712 47.0017 10.892 52.4998 10.9224C52.4998 10.9224 47.1683 11.2356 47.1683 12.9939Z" fill="#F1F1F1"/>
<path d="M55.3221 5.03855C56.7142 5.03855 57.8427 3.91894 57.8427 2.53783C57.8427 1.15672 56.7142 0.0371094 55.3221 0.0371094C53.93 0.0371094 52.8015 1.15672 52.8015 2.53783C52.8015 3.91894 53.93 5.03855 55.3221 5.03855Z" fill="#024731"/>
</g>
<defs>
<clipPath id="clip0_15980_16837">
<rect width="100" height="100" fill="white"/>
</clipPath>
</defs>
</svg>
