<svg width="100" height="100" viewBox="0 0 100 100" fill="none" xmlns="http://www.w3.org/2000/svg">
<rect width="100" height="100" fill="#11B67A"/>
<path d="M99.1564 85.7384L86.8447 71.3273C85.9398 70.2624 85.4361 68.9144 85.4361 67.5283H85.4269V25.9702C85.4269 24.8869 84.545 24.0056 83.4609 24.0056L83.4686 23.998H16.5468C15.4628 23.998 14.5809 24.8793 14.5809 25.9625V67.5267H14.5763C14.5763 68.9343 14.094 70.2807 13.1677 71.3257L0.857556 85.7384C0.314012 86.381 0.0123832 86.4958 0.0123832 87.3403V88.0732C0.0123832 89.0585 0.816216 89.1534 1.80225 89.1534H98.2101C99.1962 89.1534 100 89.0585 100 88.0732V87.3403C100 86.4958 99.6984 86.381 99.1564 85.7384Z" fill="#006A4D"/>
<path d="M84.1758 71.0627H15.1978L9.54953 78.1253H89.8241L84.1758 71.0627Z" fill="#6CF479"/>
<path d="M65.5972 78.9041H33.7762L31.1702 84.9109H68.2032L65.5972 78.9041Z" fill="#6CF479"/>
<path d="M34.179 79.3491H63.7233C63.7233 79.3491 41.3155 79.7209 32.1978 83.9406L34.179 79.3491Z" fill="#11B67A"/>
<path d="M59.0885 73.344C59.4774 73.3088 59.8602 73.2736 60.2368 73.24H59.0671L59.0885 73.344Z" fill="#11B67A"/>
<path d="M58.7025 71.4117L58.926 72.5317H61.8948L61.5871 71.4117H58.7025Z" fill="#11B67A"/>
<path d="M48.1977 73.24L48.1533 74.3416C49.3032 74.236 50.4147 74.1335 51.4911 74.0356L51.459 73.24H48.1962H48.1977Z" fill="#11B67A"/>
<path d="M51.3884 71.4117H48.2711L48.2267 72.5317H51.4328L51.3884 71.4117Z" fill="#11B67A"/>
<path d="M55.6158 73.24L55.6663 73.6546C56.7197 73.5582 57.7318 73.4664 58.7071 73.3792L58.6795 73.2415H55.6142L55.6158 73.24Z" fill="#11B67A"/>
<path d="M79.071 71.4117L79.1828 71.58C80.0326 71.5096 80.7246 71.4545 81.2865 71.4117H79.071Z" fill="#11B67A"/>
<path d="M55.0325 71.4117H51.7436L51.788 72.5317H55.1703L55.0325 71.4117Z" fill="#11B67A"/>
<path d="M58.3167 71.4117H55.3892L55.5285 72.5317H58.5402L58.3167 71.4117Z" fill="#11B67A"/>
<path d="M51.8156 73.24L51.8462 74.0034C53.0466 73.8933 54.2011 73.7877 55.3142 73.6867L55.2591 73.24H51.8156Z" fill="#11B67A"/>
<path d="M72.6218 71.4117L72.9801 72.1078C73.8544 72.0313 74.6582 71.9625 75.3962 71.8998L75.1084 71.4132H72.6218V71.4117Z" fill="#11B67A"/>
<path d="M69.3696 71.4117L69.8013 72.3863C70.6588 72.3113 71.4611 72.241 72.2159 72.1736L71.8239 71.4117H69.3696Z" fill="#11B67A"/>
<path d="M65.7043 71.4117L66.107 72.5317H68.1526C68.5369 72.498 68.9135 72.4643 69.2795 72.4322L68.8278 71.4117H65.7043Z" fill="#11B67A"/>
<path d="M75.9335 71.4117L76.1816 71.8324C76.9977 71.7636 77.7265 71.7009 78.3757 71.6473L78.2195 71.4117H75.932H75.9335Z" fill="#11B67A"/>
<path d="M62.0282 71.4117L62.3375 72.5317H65.6049L65.2022 71.4117H62.0282Z" fill="#11B67A"/>
<path d="M41.3426 71.4117L41.1191 72.5317H44.1308L44.2701 71.4117H41.3426Z" fill="#11B67A"/>
<path d="M42.8049 74.8343C43.1586 74.8021 43.5093 74.77 43.8568 74.7379L44.0421 73.2415H40.9768L40.6583 74.8343H42.8049Z" fill="#11B67A"/>
<path d="M32.8987 75.7508C33.6566 75.6804 34.4053 75.6116 35.1418 75.5427H32.9737L32.8987 75.7508Z" fill="#11B67A"/>
<path d="M21.3495 76.8279C22.3815 76.7315 23.3966 76.6367 24.3933 76.5434L24.9078 75.5427H22.1074L21.348 76.8279H21.3495Z" fill="#11B67A"/>
<path d="M25.2326 76.4653C26.2294 76.372 27.2078 76.2817 28.1708 76.1915L28.4587 75.5443H25.7073L25.2326 76.4669V76.4653Z" fill="#11B67A"/>
<path d="M28.7386 76.1379C29.9788 76.0216 31.193 75.9099 32.3796 75.7998L32.4715 75.5427H29.002L28.7386 76.1379Z" fill="#11B67A"/>
<path d="M12.2073 75.5427L11.8322 76.0124L10.52 77.7643H11.3484C11.7924 77.723 12.2349 77.6817 12.6743 77.6404L14.2238 75.5427H12.2073Z" fill="#11B67A"/>
<path d="M37.1307 74.8342H40.274L40.5925 73.24H37.5686L37.1307 74.8342Z" fill="#11B67A"/>
<path d="M44.4893 72.5317H47.8715L47.9159 71.4117H44.6271L44.4893 72.5317Z" fill="#11B67A"/>
<path d="M17.2751 71.4117H15.5113L14.6156 72.5317H16.4468L17.2751 71.4117Z" fill="#11B67A"/>
<path d="M44.2198 74.7042C45.4493 74.591 46.6435 74.4808 47.798 74.3753L47.8439 73.2415H44.402L44.2213 74.7042H44.2198Z" fill="#11B67A"/>
<path d="M17.6182 77.1768C18.5843 77.0865 19.5382 76.9962 20.4768 76.909L21.2836 75.5427H18.6991L17.6166 77.1768H17.6182Z" fill="#11B67A"/>
<path d="M37.6314 71.4117H34.4574L34.0563 72.5317H37.3221L37.6314 71.4117Z" fill="#11B67A"/>
<path d="M15.1055 75.5427L13.6219 77.5516C14.6676 77.4537 15.6965 77.3573 16.7101 77.2625L17.8493 75.5443H15.104L15.1055 75.5427Z" fill="#11B67A"/>
<path d="M30.2896 71.4117H27.8353L27.2596 72.5317H29.7936L30.2896 71.4117Z" fill="#11B67A"/>
<path d="M29.4797 73.24H26.8937L26.073 74.8342H28.7723L29.4797 73.24Z" fill="#11B67A"/>
<path d="M33.2277 74.8342H36.6881L37.1275 73.24H33.8004L33.2277 74.8342Z" fill="#11B67A"/>
<path d="M40.9569 71.4117H38.0723L37.7645 72.5317H40.7333L40.9569 71.4117Z" fill="#11B67A"/>
<path d="M27.0376 71.4117H24.5511L23.8881 72.5317H26.4604L27.0376 71.4117Z" fill="#11B67A"/>
<path d="M33.9551 71.4117H30.8332L30.3371 72.5317H33.5525L33.9551 71.4117Z" fill="#11B67A"/>
<path d="M30.0217 73.24L29.3158 74.8342H32.7256L33.2982 73.24H30.0217Z" fill="#11B67A"/>
<path d="M20.5886 71.4117H18.1572L17.3289 72.5317H19.846L20.5886 71.4117Z" fill="#11B67A"/>
<path d="M15.6294 74.8342H18.3196L19.376 73.24H16.8053L15.6294 74.8342Z" fill="#11B67A"/>
<path d="M26.0961 73.24H23.4703L22.5287 74.8342H25.2755L26.0961 73.24Z" fill="#11B67A"/>
<path d="M15.9235 73.24H14.0494L12.774 74.8342H14.7476L15.9235 73.24Z" fill="#11B67A"/>
<path d="M22.6449 73.24H20.2273L19.1709 74.8342H21.7033L22.6449 73.24Z" fill="#11B67A"/>
<path d="M23.7257 71.4117H21.4397L20.6971 72.5317H23.0642L23.7257 71.4117Z" fill="#11B67A"/>
<path d="M0 86.9198V88.1254C0 89.1107 0.803833 89.2056 1.78987 89.2056H98.1977C99.1838 89.2056 99.9876 89.1107 99.9876 88.1254V86.9198H0Z" fill="black"/>
<path d="M89.2773 10C89.2773 10 91.28 16.6173 99.3811 18.4502C99.3811 18.4502 93.2429 19.5075 93.1143 26.876C93.1143 26.876 90.9569 20.4928 83.1881 18.4426C83.1881 18.4426 89.6815 17.6684 89.2773 10Z" fill="white"/>
<path d="M16.0199 25.5984V66.6516H84.0119V25.5984H16.0199Z" fill="black"/>
<path d="M18.6398 28.1994H25.6278C25.6278 28.1994 20.6548 30.6107 18.6398 40.1763V28.1994Z" fill="white"/>
</svg>
