<svg width="100" height="100" viewBox="0 0 100 100" fill="none" xmlns="http://www.w3.org/2000/svg">
<rect width="100" height="100" fill="#11B67A"/>
<path d="M10.7476 19.2993H16.2085L0.549675 49.7098C0.549675 49.7098 0.513027 49.7831 0.494702 49.8197L0.476415 49.8472C0.439764 49.9388 0.403099 50.0305 0.403099 50.1221C0.403099 52.0462 8.37451 53.6039 18.2059 53.6039C20.3225 53.6039 22.3474 53.5306 24.2257 53.3931C24.5373 52.5044 24.9404 50.4611 23.1262 48.4087C23.1262 48.4087 29.4026 48.6378 33.4799 49.8472C33.4799 49.8472 35.12 50.2778 35.0192 51.2491C35.6423 50.8917 35.9996 50.5161 35.9996 50.1129C35.9996 50.0213 35.963 49.9297 35.9263 49.8472L35.908 49.8106C35.8897 49.7739 35.8713 49.7373 35.853 49.7006L20.1942 19.2901H44.9606V14.8737C44.9606 14.3881 45.0247 13.8934 45.1438 13.4261L45.4554 12.2166H14.376L10.711 19.2901L10.7476 19.2993ZM18.2151 46.6403C12.0304 46.6403 6.57867 47.2634 3.3901 48.198L18.2151 19.4092L33.0401 48.198C29.8515 47.2634 24.409 46.6403 18.2151 46.6403Z" fill="#006A4D"/>
<path d="M99.5145 49.8562L99.4961 49.8195C99.4778 49.7829 99.4594 49.7462 99.4411 49.7096L83.7823 19.299H89.2432L85.5781 12.2256H53.5826L53.8941 13.435C54.0132 13.9115 54.0773 14.3971 54.0773 14.8827V19.299H79.7599L64.1012 49.7096C64.1012 49.7096 64.0645 49.7829 64.0462 49.8195L64.0278 49.847C63.9912 49.9386 63.9545 50.0302 63.9545 50.1219C63.9545 52.046 71.926 53.6036 81.7574 53.6036C83.874 53.6036 85.8989 53.5303 87.7772 53.3929C88.0887 52.5041 88.4919 50.4609 86.6777 48.4085C86.6777 48.4085 92.954 48.6375 97.0313 49.847C97.0313 49.847 98.6715 50.2776 98.5707 51.2489C99.1937 50.8915 99.551 50.5159 99.551 50.1127C99.551 50.0211 99.5144 49.9295 99.4778 49.847L99.5145 49.8562ZM81.7848 46.6401C75.6001 46.6401 70.1485 47.2632 66.9599 48.1977L81.7848 19.409L96.6099 48.1977C93.4213 47.2632 87.9787 46.6401 81.7848 46.6401Z" fill="#006A4D"/>
<path d="M58.6861 82.9237C55.3235 82.6671 52.7121 79.8909 52.7121 76.5282V14.8825C52.7121 14.5069 52.6663 14.1404 52.5747 13.7739L49.5419 2L46.5091 13.7739C46.4174 14.1404 46.3717 14.5069 46.3717 14.8825V76.5099C46.3717 79.8817 43.7512 82.658 40.3885 82.9053C30.6029 83.62 23.6394 85.4709 23.6394 87.6332C23.6394 90.4186 35.1842 92.6818 49.4228 92.6818C63.6614 92.6818 75.2062 90.4186 75.2062 87.6332C75.2062 85.4892 68.3526 83.6475 58.6861 82.9237ZM49.5419 16.8433C49.0013 16.8433 48.5615 16.4035 48.5615 15.8629C48.5615 15.3224 49.0013 14.8825 49.5419 14.8825C50.0825 14.8825 50.5223 15.3224 50.5223 15.8629C50.5223 16.4035 50.0825 16.8433 49.5419 16.8433Z" fill="#6CF479"/>
<path d="M47.3519 79.5607C47.3519 79.5607 45.5378 82.8867 41.9094 82.8867C41.4055 82.8867 40.8465 82.8959 40.2601 82.9233C30.5478 83.6472 23.6392 85.4889 23.6392 87.6421C23.6392 88.3567 24.3997 89.0256 25.7558 89.6395C25.7832 89.6487 25.8199 89.667 25.8474 89.6761C26.049 89.7678 26.2597 89.8502 26.4796 89.9327C26.5345 89.951 26.5804 89.9693 26.6354 89.9968C27.2126 90.2076 27.854 90.4091 28.5687 90.6016C28.6145 90.6107 28.6603 90.6291 28.7061 90.6382C29.0177 90.7207 29.3383 90.8031 29.6773 90.8764C29.7598 90.8948 29.8422 90.9131 29.9247 90.9314C30.2454 91.0047 30.5844 91.078 30.9326 91.1422C31.0059 91.1605 31.0792 91.1696 31.1616 91.188C32.3528 91.4262 33.663 91.6369 35.0741 91.8202C35.2115 91.8385 35.349 91.8568 35.4864 91.8752C36.2469 90.7115 37.9786 89.3096 41.0114 87.8711C49.3768 83.9037 47.3611 79.5515 47.3611 79.5515L47.3519 79.5607Z" fill="#006A4D"/>
<path d="M51.2735 77.5086C51.2735 77.5086 49.1845 82.0807 52.8861 84.3622C55.4608 85.9473 58.5669 84.5363 58.5669 84.5363C51.7682 83.9407 51.2735 77.5086 51.2735 77.5086Z" fill="white"/>
<path d="M72.8148 86.8724C71.3488 85.7913 67.4272 85.4247 67.4272 85.4247C67.4272 85.4247 70.8264 86.735 67.1248 88.2835C64.4585 89.4013 59.0618 90.794 59.0618 90.794C65.2098 90.4916 70.5791 89.1264 71.8894 88.5217C72.4574 88.2651 72.7689 87.9811 72.9521 87.752C73.1629 87.4772 73.0988 87.074 72.824 86.8724H72.8148Z" fill="white"/>
<path d="M73.8592 13.7189H84.671L87.1631 18.1078C87.1631 18.1078 84.7443 15.3132 73.8592 13.7189Z" fill="white"/>
<path d="M31.1526 54.3824C27.68 55.0604 23.0805 55.436 18.2152 55.436C13.3498 55.436 8.75025 55.0604 5.27764 54.3824C3.38099 54.0159 1.32857 53.4844 0 52.5407C1.98827 60.7687 9.38246 66.8892 18.2152 66.8892C27.0479 66.8892 34.4511 60.7687 36.4303 52.5407C35.1017 53.4844 33.0401 54.0159 31.1526 54.3824Z" fill="#6CF479"/>
<path d="M17.2348 63.9847C12.2228 61.8498 10.821 56.9112 10.4728 55.097C8.57614 54.9229 6.80779 54.6847 5.27764 54.3824C3.38099 54.0159 1.32857 53.4844 0 52.5407C1.98827 60.7687 9.38246 66.8892 18.2152 66.8892C21.3396 66.8892 24.2716 66.1104 26.8646 64.7635C25.362 65.2583 21.8435 65.9638 17.2348 63.9939V63.9847Z" fill="black"/>
<path d="M27.213 62.4729C27.213 62.4729 30.2366 60.8878 33.416 55.8942C33.416 55.8942 27.2404 56.6272 27.213 62.4729Z" fill="white"/>
<path d="M94.7224 54.3824C91.2497 55.0604 86.6502 55.436 81.7848 55.436C76.9195 55.436 72.3199 55.0604 68.8473 54.3824C66.9507 54.0159 64.8983 53.4844 63.5697 52.5407C65.558 60.7687 72.9521 66.8892 81.7848 66.8892C90.6175 66.8892 98.0209 60.7687 100 52.5407C98.6714 53.4844 96.6098 54.0159 94.7224 54.3824Z" fill="#6CF479"/>
<path d="M80.8045 63.9847C75.7926 61.8498 74.3907 56.9112 74.0425 55.097C72.1459 54.9229 70.3775 54.6847 68.8473 54.3824C66.9507 54.0159 64.8983 53.4844 63.5697 52.5407C65.558 60.7687 72.9521 66.8892 81.7848 66.8892C84.9093 66.8892 87.8413 66.1104 90.4343 64.7635C88.9317 65.2583 85.4133 65.9638 80.8045 63.9939V63.9847Z" fill="black"/>
<path d="M90.7826 62.4729C90.7826 62.4729 93.8063 60.8878 96.9857 55.8942C96.9857 55.8942 90.8101 56.6272 90.7826 62.4729Z" fill="white"/>
<path d="M67.9218 92.5536C62.9648 93.5248 56.3953 94.0562 49.4226 94.0562C42.4499 94.0562 35.8803 93.5248 30.9234 92.5536C27.3958 91.8664 24.9953 91.0234 23.6392 89.9972V93.2407C23.6392 96.0262 35.184 98.2893 49.4226 98.2893C63.6612 98.2893 75.2061 96.0262 75.2061 93.2407V89.9972C73.8409 91.0234 71.4494 91.8664 67.9218 92.5536Z" fill="black"/>
</svg>
