<svg width="100" height="100" viewBox="0 0 100 100" fill="none" xmlns="http://www.w3.org/2000/svg">
<g clip-path="url(#clip0_15980_16881)">
<rect width="100" height="100" fill="#11B67A"/>
<path d="M52.4271 99.6035C65.7167 99.6035 76.4901 97.0623 76.4901 93.9276C76.4901 90.7929 65.7167 88.2517 52.4271 88.2517C39.1375 88.2517 28.3641 90.7929 28.3641 93.9276C28.3641 97.0623 39.1375 99.6035 52.4271 99.6035Z" fill="black"/>
<path d="M54.2098 90.1295H44.9256L44.1519 82.2347L52.353 80.3049L54.2098 90.1295Z" fill="black"/>
<path d="M53.8589 -0.396484H43.3326L47.7185 1.53334L53.8589 -0.396484Z" fill="black"/>
<path d="M45.7881 -0.396484C62.5643 -0.396377 76.1498 13.4934 76.1387 30.6221C76.1387 31.113 76.127 31.6041 76.1045 32.1045C76.0992 32.1491 76.0972 32.192 76.0957 32.2344H65.127C65.1688 31.7027 65.1914 31.1648 65.1914 30.6221C65.1913 19.6688 56.4987 10.7931 45.7881 10.793C35.0774 10.793 26.3849 19.6688 26.3848 30.6221C26.3848 41.5755 35.0773 50.4521 45.7881 50.4521C51.0316 50.4521 55.7902 48.3231 59.2832 44.8662H73.5889C66.282 67.2412 45.7881 90.1299 45.7881 90.1299C45.7881 90.1299 16.8017 57.7606 15.4824 32.3789C15.4711 32.2845 15.4707 32.1989 15.4707 32.1045C15.4482 31.6041 15.4375 31.113 15.4375 30.6221C15.4376 13.4933 29.023 -0.396484 45.7881 -0.396484ZM75.4199 37.8486C75.2221 38.8955 74.9857 39.949 74.7158 41.0068H62.3193C62.9208 40.0091 63.439 38.9532 63.8623 37.8486H75.4199Z" fill="black"/>
<path d="M37.7199 12.5857C34.9603 13.8774 32.5488 15.8111 30.6671 18.1999H17.9728C18.8243 16.2111 19.8725 14.3307 21.0949 12.5857H37.7199Z" fill="#C7FFC6"/>
<path d="M40.916 9.42772H23.6289C24.9277 8.00989 26.3552 6.71725 27.8925 5.56834H40.916V9.42772Z" fill="#C7FFC6"/>
<path d="M54.2085 -0.396484C37.4434 -0.396484 23.8577 13.4936 23.8577 30.6225C23.8577 31.1135 23.8689 31.6045 23.8915 32.105C23.8915 32.1994 23.8915 32.2844 23.9028 32.3788C25.2219 57.7605 54.2085 90.1298 54.2085 90.1298C54.2085 90.1298 83.1952 57.7605 84.5143 32.3788C84.5143 32.2844 84.5143 32.1994 84.5256 32.105C84.5481 31.6045 84.5594 31.1135 84.5594 30.6225C84.5707 13.4936 70.9849 -0.396484 54.2085 -0.396484ZM54.2085 50.452C43.4978 50.452 34.8052 41.5759 34.8052 30.6225C34.8052 19.6691 43.4978 10.793 54.2085 10.793C64.9193 10.793 73.6119 19.6691 73.6119 30.6225C73.6119 41.5759 64.9193 50.452 54.2085 50.452Z" fill="#6CF479"/>
<path d="M41.4028 66.972C36.9044 59.9544 33.859 54.5158 32.28 50.8316C35.6602 57.4983 43.1079 66.5319 50.1747 68.3755C54.2098 69.4281 61.9291 70.6562 68.9467 65.393C65.4379 70.6562 63.8589 73.2878 60.3502 77.6737C58.1046 80.4807 56.0227 83.2293 54.2098 85.0421C50.8765 80.8316 46.443 74.8347 41.4028 66.972Z" fill="white"/>
<path d="M58.07 1.35772C58.07 1.35772 78.07 4.86649 81.7542 23.8138C81.7542 23.8138 74.045 10.1528 65.9161 11.621C65.9161 11.621 66.8419 4.54048 58.07 1.35772Z" fill="white"/>
</g>
<defs>
<clipPath id="clip0_15980_16881">
<rect width="100" height="100" fill="white"/>
</clipPath>
</defs>
</svg>
