<svg width="100" height="100" viewBox="0 0 100 100" fill="none" xmlns="http://www.w3.org/2000/svg">
<g clip-path="url(#clip0_15980_16911)">
<rect width="100" height="100" fill="#11B67A"/>
<path d="M52.2821 54.699L26.546 97.3201C25.1914 99.5627 22.2907 100.274 20.062 98.9112C17.8334 97.5482 17.1263 94.6292 18.4808 92.3866L44.106 49.9541L52.2929 54.6985L52.2821 54.699Z" fill="#006A4D"/>
<path d="M52.2929 54.6985L52.2821 54.699L26.546 97.3201C25.1914 99.5627 22.2907 100.274 20.062 98.9112C17.9243 97.6038 17.1869 94.8657 18.3257 92.6652C18.9263 94.8963 22.0538 96.5437 24.7982 92.8512C32.9389 81.9079 47.5001 58.3227 50.4008 53.6022L52.2929 54.6985Z" fill="black"/>
<path d="M38.9507 46.2315L39.2735 46.5346C39.1659 46.4263 39.0583 46.3289 38.9615 46.2206L38.9507 46.2315ZM74.5197 39.4433C63.3627 51.2874 47.5794 54.4704 39.2735 46.5454L44.47 51.5039C52.7759 59.4289 68.5485 56.2459 79.7163 44.4018C90.8733 32.5576 92.4011 18.8405 83.4927 7.71092L79.6948 3.65099C88.0007 11.576 85.6768 27.5991 74.5197 39.4433ZM79.3613 3.34785C79.4689 3.44529 79.5764 3.54273 79.684 3.65099L79.3613 3.34785Z" fill="#006A4D"/>
<path d="M43.8888 10.3959C51.7428 1.94045 62.179 -1.81633 70.2912 0.0891255C72.9487 0.71706 75.3371 1.94045 77.3275 3.8026C85.3645 11.3811 83.4279 26.6031 72.9917 37.8193C65.1377 46.264 54.6907 50.0316 46.5785 48.1261C43.921 47.4982 41.5326 46.2748 39.5421 44.4127C31.5052 36.8341 33.4418 21.6121 43.878 10.3959H43.8888Z" fill="#035D3E"/>
<path d="M48.1062 14.3909C39.37 23.7775 36.9707 36.1521 41.8553 43.8064C40.8547 43.2435 39.9187 42.6047 39.0795 41.8144C31.4944 34.6797 34.4746 21.4065 44.3191 10.829C54.1527 0.240747 67.1065 -3.6243 74.6916 3.51034C75.5307 4.30067 76.2408 5.21009 76.8649 6.16282C68.957 1.75645 56.8425 4.98274 48.1062 14.3801V14.3909Z" fill="black"/>
<path d="M43.8888 10.3959C33.4526 21.6121 31.5268 36.8345 39.553 44.413C41.5434 46.286 43.9319 47.5094 46.5893 48.1265C54.7016 50.0211 65.1485 46.2644 73.0025 37.8197C83.4387 26.6035 85.3646 11.3815 77.3384 3.80299C75.348 1.93001 72.9595 0.706619 70.302 0.089511C62.1898 -1.80512 51.7428 1.95128 43.8888 10.3959ZM75.4556 5.81671C82.3843 12.3234 80.3832 25.8457 71.0014 35.9359C64.1049 43.3304 54.551 47.163 47.2134 45.4415C44.954 44.9111 43.0066 43.8934 41.4251 42.3993C34.4963 35.8926 36.4975 22.3704 45.8793 12.2801C52.7757 4.88563 62.3297 1.05307 69.6673 2.77447C71.9266 3.30497 73.874 4.32266 75.4556 5.81671Z" fill="#6CF479"/>
<path d="M64.4494 8.72872C64.4494 8.72872 60.4041 15.8201 50.6457 15.7551C50.6457 15.7551 57.3916 18.6241 55.5625 27.1337C55.5625 27.1337 59.737 20.3563 69.1618 20.0857C69.1618 20.0857 61.9426 17.4548 64.4494 8.73955V8.72872Z" fill="white"/>
<path d="M88.9904 19.7826L84.633 15.1272C84.902 19.8259 83.697 25.0442 81.1364 30.0894L82.6104 31.4751C84.8482 33.5755 85.2571 37.0183 82.3306 41.338C87.6455 34.8313 90.1631 26.8414 88.9904 19.7826Z" fill="black"/>
<path d="M98.9925 88.5362C98.9925 88.5362 87.8828 82.5443 75.0845 90.6714C75.0845 90.6714 81.6293 81.3414 72.2828 71.6204C72.2828 71.6204 83.2954 77.0936 95.9443 69.6807C95.9443 69.6807 88.5776 79.0934 98.9851 88.5212L99 88.5362H98.9925Z" fill="white"/>
<path d="M15.121 35.3777C15.121 35.3777 12.3186 26.0506 1 23.4769C1 23.4769 9.58871 21.9894 9.7701 11.6036C9.7701 11.6036 12.7993 20.593 23.6644 23.4769C23.6644 23.4769 14.5769 24.5539 15.1483 35.3777H15.121Z" fill="white"/>
</g>
<defs>
<clipPath id="clip0_15980_16911">
<rect width="100" height="100" fill="white"/>
</clipPath>
</defs>
</svg>
