<svg width="100" height="100" viewBox="0 0 100 100" fill="none" xmlns="http://www.w3.org/2000/svg">
<rect width="100" height="100" fill="#11B67A"/>
<path d="M99.992 35.2278L90.0118 35.4688L71.572 24.8016C70.3761 24.1083 68.613 24.3622 67.6645 25.361L39.3231 55.1471L23.7651 65.5101V70.9539C23.7999 71.5699 24.162 72.1576 24.8128 72.5326L52.1851 88.3664C53.381 89.0598 55.1441 88.8059 56.0926 87.8071L99.3915 42.3006C99.8091 41.8611 100.008 41.3521 99.9998 40.8636V35.2291H99.9933L99.992 35.2278Z" fill="black"/>
<path d="M56.0911 82.2215C55.1361 83.2268 53.3795 83.4742 52.1835 82.7809L24.8113 66.947C23.6153 66.2536 23.4168 64.8656 24.3654 63.8681L67.6642 18.3603C68.6192 17.3551 70.3758 17.1076 71.5718 17.801L98.944 33.6348C100.14 34.3282 100.338 35.7162 99.3899 36.7137L56.0911 82.2202V82.2215Z" fill="#006A4D"/>
<path d="M85.0141 32.6372L80.3707 29.9192C79.89 29.6357 79.7972 28.9784 80.18 28.5737C80.7174 28.008 81.568 27.8946 82.2394 28.2838L86.8829 31.0018C87.3713 31.2853 87.4564 31.9503 87.0672 32.3537H87.0607C86.5233 32.913 85.6804 33.0264 85.0154 32.6372H85.0141Z" fill="#6CF479"/>
<path d="M47.329 69.7296C47.2723 71.3715 45.4113 72.7596 43.1663 72.8227C40.9225 72.8858 39.153 71.6125 39.2162 69.9706C39.2729 68.3288 41.1339 66.9407 43.3789 66.8776C45.6227 66.8144 47.3921 68.0878 47.329 69.7296Z" fill="#6CF479"/>
<path d="M77.8279 27.958C78.5934 27.8781 79.1669 27.36 79.1089 26.7994C79.0509 26.2401 78.382 25.8509 77.6165 25.9308C76.851 26.0107 76.2775 26.5287 76.3355 27.0894C76.3935 27.6487 77.0623 28.0379 77.8279 27.9593V27.958Z" fill="#6CF479"/>
<path d="M6.46963 33.263C6.46963 33.263 8.59353 40.2984 17.1935 42.2458C17.1935 42.2458 10.6749 43.3709 10.5473 51.2002C10.5473 51.2002 8.25329 44.4186 0 42.2393C0 42.2393 6.89493 41.4184 6.46963 33.2643V33.263Z" fill="white"/>
<path d="M54.8814 11.3164C54.8814 11.3164 55.8157 14.4095 59.6022 15.2665C59.6022 15.2665 56.7359 15.7614 56.6715 19.2088C56.6715 19.2088 55.6598 16.2215 52.028 15.2665C52.028 15.2665 55.0644 14.9056 54.8737 11.3164H54.8814Z" fill="white"/>
<path d="M68.8541 45.187C68.8541 45.187 70.228 49.7389 75.798 50.998C75.798 50.998 71.5799 51.7275 71.4948 56.7949C71.4948 56.7949 70.0089 52.4067 64.6708 50.998C64.6708 50.998 69.1299 50.4671 68.8541 45.1934V45.1857V45.187Z" fill="white"/>
<path d="M58.2666 29.2198L56.3786 36.1186L60.7449 37.0079L60.098 42.0276L56.7059 45.9455L56.1672 47.3168L52.8435 51.156L47.5402 49.1984L45.4446 49.7371L38.3744 50.3222L34.838 46.8554L54.0214 28.7855L58.2666 29.2198Z" fill="#006A4D"/>
<path d="M60.7449 37.0079C60.7436 36.8983 60.712 36.8341 60.5986 36.7954C60.4542 36.7478 60.3163 36.6795 60.1797 36.6124C59.2789 36.1665 58.5133 35.5505 57.887 34.7631C57.3986 34.1509 57.0338 33.4743 56.8328 32.7139C56.7245 32.3041 56.6794 31.8878 56.7091 31.4651C56.7181 31.3323 56.7297 31.1983 56.7748 31.0707C56.7825 30.9122 56.8405 30.7666 56.8972 30.6222C57.1588 29.9662 57.6202 29.5023 58.2672 29.2213C58.311 29.202 58.4141 29.1698 58.4193 29.1633C58.4334 29.1182 58.4012 29.086 58.3832 29.0512C58.1512 28.6105 57.905 28.1761 57.6447 27.7508C56.8366 26.4299 55.9203 25.1888 54.8932 24.0302C54.8365 23.9657 54.7785 23.9026 54.7243 23.8368C54.7012 23.8085 54.678 23.793 54.6496 23.793C54.6341 23.793 54.6174 23.7969 54.5993 23.8059C54.5491 23.8304 54.4975 23.851 54.4447 23.8704C54.0529 24.0173 53.6547 24.0791 53.2513 24.0791C53.0013 24.0791 52.75 24.0559 52.4961 24.0134C51.9561 23.9245 51.4444 23.7441 50.956 23.4992C50.2433 23.1409 49.617 22.6679 49.0718 22.0867C48.5047 21.4823 48.0601 20.8018 47.7817 20.0182C47.5704 19.4241 47.4802 18.8145 47.5639 18.1856C47.5742 18.1095 47.5549 18.0644 47.484 18.0245C47.0858 17.8054 46.685 17.5927 46.2777 17.3917C45.0753 16.795 43.8342 16.295 42.5506 15.9032C42.2735 15.8181 41.9964 15.7318 41.7129 15.6712C41.7052 15.6712 41.6975 15.6712 41.6897 15.6712C41.673 15.6712 41.6575 15.6686 41.6446 15.6519C41.6382 15.6493 41.633 15.648 41.6266 15.648C41.6188 15.648 41.6111 15.6506 41.6034 15.657C41.5969 15.8877 41.5557 16.1145 41.4784 16.3297C41.3701 16.6287 41.2412 16.9226 41.0273 17.1636C40.8378 17.3762 40.6355 17.5747 40.379 17.7139C40.1728 17.826 39.9666 17.9291 39.7411 17.9961C39.6779 18.0155 39.5181 18.0567 39.5001 18.0593C39.2372 18.1108 38.9743 18.1353 38.7114 18.1353C38.424 18.1353 38.1366 18.1057 37.8492 18.0477C37.0991 17.8969 36.4122 17.5927 35.7743 17.1739C35.0345 16.688 34.4094 16.0849 33.9107 15.3529C33.8643 15.2858 33.8475 15.2639 33.8063 15.2639C33.7857 15.2639 33.7586 15.2691 33.7174 15.2781C33.1477 15.3915 32.5871 15.5397 32.0368 15.7253C31.2017 16.0076 30.4078 16.3774 29.6565 16.8388C29.4863 16.9432 29.3136 17.0463 29.1577 17.1739C29.1603 17.2229 29.2054 17.2461 29.2273 17.2834C29.3459 17.4909 29.4941 17.6804 29.6049 17.8956C29.6874 18.0567 29.7492 18.2268 29.8343 18.3866C29.9245 18.5555 29.9774 18.7346 30.025 18.9176C30.0354 18.9601 30.0792 18.9911 30.0689 19.04C30.1191 19.1689 30.132 19.3055 30.1591 19.4383C30.2209 19.7424 30.2068 20.0504 30.2029 20.3584C30.2016 20.5105 30.1707 20.6613 30.1307 20.8057C30.0212 21.2103 29.8511 21.5828 29.5688 21.9037C29.2763 22.2349 28.9193 22.4591 28.5133 22.619C28.2981 22.704 28.0738 22.7543 27.8483 22.7878C27.7478 22.8033 27.6447 22.8187 27.539 22.8187C27.5235 22.8187 27.5094 22.8187 27.4939 22.8187C27.4501 22.8161 27.4063 22.8161 27.3624 22.8161C27.2877 22.8161 27.2117 22.8174 27.1356 22.8174C27.0248 22.8174 26.9139 22.8136 26.8044 22.7929C26.709 22.7646 26.6098 22.7697 26.5131 22.7504C26.3288 22.7233 26.1497 22.6744 25.9706 22.6254C25.745 22.5623 25.5285 22.472 25.3081 22.3934H25.303C25.2875 22.3934 25.2733 22.3896 25.263 22.3754C25.2566 22.3715 25.2501 22.3702 25.2437 22.3702C25.236 22.3702 25.2282 22.3728 25.2218 22.3792C25.1806 22.5094 25.1393 22.6409 25.0968 22.771C24.9718 23.1474 24.8841 23.534 24.7991 23.9206C24.7424 24.1797 24.7011 24.4426 24.6638 24.7068C24.6418 24.864 24.6264 25.0225 24.6122 25.181C24.5954 25.3615 24.5864 25.5432 24.5658 25.7223C24.5387 25.9672 24.5555 26.2121 24.5491 26.4569C24.5452 26.609 24.5491 26.7624 24.5491 26.9144C24.5491 27.1258 24.5426 27.3371 24.5723 27.5485C25.1419 27.756 25.6651 28.0486 26.1523 28.4094C26.4667 28.6414 26.7632 28.8953 27.0299 29.1814C27.222 29.3876 27.4127 29.5951 27.5661 29.8335C27.6047 29.8477 27.6163 29.8863 27.637 29.916C27.798 30.1557 27.9566 30.3967 28.0854 30.6544C28.2633 31.0089 28.4051 31.3787 28.4953 31.7654C28.503 31.7976 28.5404 31.9368 28.5481 31.9754C28.5687 32.0773 28.5829 32.1804 28.5881 32.2822C28.5958 32.4407 28.6319 32.5992 28.6151 32.759C28.5881 33.0309 28.5687 33.3016 28.4862 33.5671C28.4038 33.8326 28.2942 34.0826 28.1383 34.3094C27.9875 34.5259 27.8084 34.7192 27.5944 34.8778C27.3959 35.0247 27.1807 35.1381 26.9539 35.2335C26.9178 35.2489 26.8585 35.2425 26.8508 35.3018C26.9243 35.4358 27.0003 35.5672 27.0712 35.7026C27.1743 35.901 27.2838 36.0944 27.4011 36.2851C27.472 36.3985 27.521 36.5222 27.5893 36.6369C27.6795 36.7864 27.7826 36.9256 27.8754 37.0725C28.0262 37.311 28.1757 37.5507 28.3432 37.7788C28.3741 37.82 28.3999 37.8638 28.4205 37.9141C28.454 37.9966 28.5249 38.0559 28.5752 38.128C28.6731 38.2672 28.7633 38.4116 28.8664 38.5469C28.9257 38.6255 28.985 38.7054 29.043 38.7853C29.1964 38.9619 29.3291 39.1539 29.4747 39.3356C29.583 39.4696 29.6913 39.605 29.8008 39.739C29.8833 39.8395 29.9658 39.9388 30.0418 40.0431C30.1256 40.1591 30.2428 40.2481 30.3331 40.3602C30.4207 40.4697 30.5148 40.5741 30.6063 40.6811C30.6643 40.6785 30.7107 40.6437 30.7622 40.6231C31.0934 40.4916 31.4337 40.4092 31.7907 40.3924C31.8538 40.3898 31.917 40.3782 31.9801 40.3782C32.0059 40.3782 32.0317 40.3795 32.0574 40.3847C32.1013 40.3782 32.1451 40.3757 32.1889 40.3757C32.301 40.3757 32.4131 40.3924 32.524 40.4027C32.9274 40.444 33.3217 40.538 33.7045 40.6746C34.3502 40.9053 34.9417 41.2391 35.4804 41.6631C35.84 41.9467 36.1738 42.256 36.4663 42.6117C36.5797 42.7496 36.6957 42.8836 36.795 43.0318C36.8633 43.0859 36.8981 43.1658 36.9445 43.2354C37.219 43.6504 37.4393 44.0925 37.5914 44.5667C37.634 44.6995 37.7242 45.0539 37.7332 45.0977C37.8054 45.4457 37.8079 45.7975 37.7976 46.1494C37.795 46.2409 37.7706 46.3324 37.777 46.4251C38.0451 46.5785 38.3157 46.7254 38.5902 46.8672C39.0658 47.1134 39.5478 47.3466 40.0375 47.5631C40.6703 47.8428 41.3121 48.0967 41.9668 48.3209C42.4849 48.4988 43.6628 48.8596 43.7427 48.8596C43.7904 48.7578 43.7865 48.6444 43.8072 48.5362C43.9528 47.7371 44.3652 47.1237 45.0702 46.7138C45.4052 46.5192 45.77 46.4148 46.1514 46.3556C46.2687 46.3298 46.4698 46.3195 46.6618 46.3195C46.8345 46.3195 47.0007 46.3285 47.0935 46.3427C47.4905 46.3813 47.8784 46.4703 48.2547 46.6017C48.9249 46.8363 49.5332 47.1829 50.0912 47.6211C50.3735 47.8415 50.6402 48.0799 50.8774 48.348C51.0243 48.513 51.4754 49.0981 51.5437 49.1973H51.5488C51.6932 49.1973 52.9226 48.8751 53.424 48.6998C53.75 48.5864 54.0709 48.455 54.3854 48.3119C54.9628 48.049 56.1562 47.3208 56.1678 47.3144C56.2399 47.2603 56.2399 47.2603 56.1987 47.1958C56.1832 47.1713 56.1639 47.1469 56.1472 47.1237C55.8585 46.7164 55.6213 46.2821 55.4461 45.8143C55.4345 45.7833 55.4242 45.7511 55.4126 45.7202C55.3932 45.6622 55.3726 45.6106 55.352 45.541C55.2811 45.2885 55.2141 45.0371 55.196 44.7742C55.1484 44.5242 55.1561 44.2729 55.1767 44.0203C55.1909 43.8463 55.2218 43.6749 55.2695 43.5061C55.5066 42.6748 56.0312 42.1 56.8354 41.7856C57.1769 41.6515 57.5326 41.5794 57.9012 41.5794C57.9192 41.5794 57.9373 41.5794 57.9566 41.5794C58.0146 41.5768 58.0726 41.5742 58.1293 41.5742C58.4927 41.5742 58.8497 41.6322 59.2028 41.7211C59.467 41.7881 59.7222 41.8771 59.9735 41.9802C60.0148 41.9969 60.0534 42.0188 60.0985 42.0253C60.132 42.0008 60.1333 41.9608 60.1449 41.9273C60.2596 41.5858 60.3563 41.2378 60.4375 40.886C60.6695 39.8846 60.7713 38.8691 60.77 37.8419C60.77 37.5623 60.7506 37.2839 60.7455 37.0055L60.7449 37.0079ZM51.8092 35.1858C51.8014 35.3817 51.7911 35.5776 51.7705 35.7722C51.7486 35.9822 51.7189 36.1897 51.679 36.3972C51.6545 36.5248 51.6236 36.6498 51.5849 36.7735C51.5411 36.9153 51.5076 37.0596 51.4586 37.2001C51.3259 37.5803 51.1583 37.9437 50.9418 38.2827C50.773 38.5482 50.5848 38.8008 50.3735 39.0366C50.0126 39.4387 49.5976 39.7686 49.1324 40.0393C48.8617 40.1965 48.5808 40.3293 48.2908 40.4491C48.2586 40.462 48.1516 40.5084 48.1387 40.5084C47.8977 40.5844 47.6567 40.6618 47.4106 40.7185C46.8358 40.8525 46.2533 40.9144 45.6669 40.9144C45.5354 40.9144 45.4027 40.9118 45.2712 40.9053C44.0894 40.8499 42.954 40.5806 41.8547 40.1488C40.6123 39.6604 39.4756 38.9902 38.4265 38.168C37.2731 37.2633 36.2743 36.2116 35.4521 34.9976C34.7291 33.9292 34.1736 32.7835 33.8398 31.5334C33.6117 30.6789 33.5086 29.8103 33.5576 28.9262C33.573 28.6401 33.6117 28.3566 33.6658 28.0743C33.6736 28.0344 33.7071 27.881 33.7161 27.8436C33.796 27.5034 33.9004 27.1696 34.0434 26.85C34.278 26.3229 34.5821 25.8422 34.9688 25.4117C35.434 24.8924 35.9843 24.4877 36.6094 24.1822C37.1816 23.9026 37.7835 23.7196 38.4111 23.619C38.558 23.5958 38.7036 23.5726 38.8518 23.5623C39.1302 23.5301 39.4086 23.5121 39.6883 23.5121C39.7733 23.5121 39.8584 23.5134 39.9421 23.5172C40.4731 23.5391 41.0002 23.5997 41.5235 23.7015C42.2735 23.8484 43.0004 24.074 43.7066 24.3652C44.3923 24.6488 45.0483 24.9903 45.6772 25.3834C46.2868 25.7648 46.8641 26.1901 47.4106 26.6567C47.9068 27.0794 48.372 27.5356 48.8024 28.0241C49.0228 28.2741 49.2393 28.528 49.4404 28.7948C49.4791 28.845 49.586 28.9842 49.6041 29.0087C49.7819 29.26 49.9636 29.5074 50.1144 29.7768C50.1943 29.9186 50.3026 30.0436 50.3747 30.1905C50.5242 30.4934 50.7176 30.7717 50.8439 31.0862C50.8903 31.2035 50.9534 31.3143 51.0011 31.4303C51.1802 31.8646 51.3529 32.3015 51.4715 32.7577C51.4754 32.7719 51.4754 32.7874 51.4767 32.8015C51.5411 32.924 51.5591 33.0606 51.5875 33.1933C51.6339 33.406 51.6725 33.6212 51.7138 33.8351C51.7305 33.9189 51.7344 34.004 51.7421 34.0877C51.7589 34.2862 51.7885 34.4847 51.7976 34.6844C51.8053 34.8507 51.8169 35.0182 51.8104 35.1845L51.8092 35.1858Z" fill="#6CF379"/>
<path d="M34.8952 27.6422C34.9107 27.6409 34.9262 27.6383 34.9416 27.637C34.9726 27.6422 35.0022 27.6331 35.0293 27.6203C35.0447 27.619 35.0602 27.6164 35.0757 27.6151C35.1208 27.6203 35.1633 27.6099 35.2046 27.5971C35.2213 27.5958 35.2368 27.5945 35.2535 27.5932C35.2986 27.5971 35.3412 27.5867 35.3837 27.5751C35.4069 27.5739 35.4301 27.5726 35.4546 27.5713C35.5203 27.5764 35.5847 27.5648 35.6492 27.5519C35.7871 27.5468 35.9237 27.5378 36.0616 27.5352C36.8851 27.521 37.6958 27.6203 38.4961 27.811C39.3132 28.0056 40.098 28.2917 40.8558 28.6526C41.5569 28.9863 42.2219 29.3781 42.8573 29.8241C43.6885 30.4092 44.4502 31.0729 45.141 31.8178C45.8034 32.5331 46.3859 33.3076 46.8808 34.1492C47.0174 34.3824 47.1412 34.6234 47.2687 34.8619C47.2778 34.8864 47.2855 34.9108 47.2971 34.934C47.4311 35.1866 47.5407 35.4495 47.6489 35.7137C47.7791 36.0334 47.8848 36.3607 47.9905 36.6893C47.9866 36.7113 47.9892 36.7332 47.9956 36.7551C48.1786 37.3543 48.283 37.9691 48.3217 38.5929C48.3449 38.973 48.3423 39.3519 48.3062 39.7283C48.4853 39.6458 48.6516 39.562 48.805 39.4731C49.2238 39.2295 49.5782 38.9434 49.8862 38.5993C50.0667 38.3983 50.2303 38.1805 50.3901 37.9304C50.5706 37.6469 50.7188 37.3376 50.8412 36.9845C50.8631 36.9226 50.8825 36.8517 50.9031 36.777C50.9211 36.7138 50.9392 36.6481 50.9611 36.5785C50.9907 36.4857 51.0152 36.3852 51.0371 36.2731C51.0719 36.0952 51.099 35.9083 51.1209 35.7047C51.1389 35.5372 51.1479 35.3658 51.1557 35.1596C51.1595 35.0513 51.1544 34.9315 51.1479 34.8052L51.1441 34.7175C51.1389 34.6118 51.1273 34.501 51.1144 34.3837C51.1054 34.3051 51.0977 34.2265 51.09 34.1466L51.0848 34.0912C51.0809 34.0396 51.0771 33.9919 51.0706 33.961C51.0603 33.9043 51.0487 33.8489 51.0384 33.7922C51.0088 33.6337 50.9791 33.4829 50.9469 33.3334C50.9405 33.3037 50.934 33.2728 50.9289 33.2432C50.9198 33.1942 50.9057 33.1272 50.8979 33.1091L50.8399 32.9996L50.827 32.881C50.7162 32.4686 50.5538 32.0626 50.3966 31.6799C50.3811 31.6412 50.3592 31.5974 50.336 31.5497C50.3051 31.4853 50.269 31.4118 50.2368 31.3293C50.1775 31.1824 50.0912 31.0303 49.9996 30.8692C49.9288 30.7455 49.8566 30.6179 49.7883 30.4787C49.769 30.4388 49.7316 30.3847 49.6916 30.328C49.6452 30.2609 49.5937 30.1849 49.5447 30.0973C49.4261 29.8859 49.2805 29.681 49.1259 29.4632L49.0743 29.391C49.0614 29.3743 49.0318 29.3343 49.0009 29.2957C48.9686 29.2544 48.9364 29.2132 48.9197 29.1887C48.7199 28.9232 48.5021 28.6706 48.3139 28.458C47.9118 28.0017 47.4646 27.5635 46.9878 27.155C46.4671 26.7104 45.9091 26.3006 45.3317 25.9384C44.7286 25.5595 44.0984 25.2347 43.4591 24.9705C42.78 24.6896 42.0866 24.4795 41.401 24.3442C40.9241 24.2514 40.4254 24.1921 39.9189 24.1715C39.8441 24.1689 39.7681 24.1663 39.6921 24.1663C39.4511 24.1663 39.201 24.1818 38.9304 24.2127H38.9175L38.9046 24.2153C38.7822 24.2243 38.652 24.2437 38.5193 24.2656C37.9406 24.3584 37.3955 24.5285 36.9019 24.7708C36.3348 25.0479 35.8631 25.401 35.461 25.8495C35.1311 26.2168 34.8579 26.6421 34.6478 27.1163C34.5602 27.3135 34.4854 27.5223 34.4223 27.7504C34.5524 27.7182 34.6826 27.6873 34.8128 27.6602C34.8437 27.6654 34.872 27.6563 34.9004 27.6435L34.8952 27.6422ZM35.5229 27.4965C35.51 27.5107 35.4997 27.5262 35.5023 27.5494C35.5358 27.5494 35.568 27.5494 35.6015 27.5507C35.568 27.5507 35.5358 27.5507 35.5023 27.5507C35.4997 27.5287 35.51 27.512 35.5229 27.4978V27.4965ZM25.9009 21.4973C26.0156 21.6623 26.1174 21.835 26.2102 22.0115C26.3404 22.0476 26.4796 22.0837 26.6072 22.1017L26.6239 22.1043L26.6368 22.1069C26.6471 22.1082 26.6755 22.1108 26.6961 22.1133C26.7605 22.1198 26.8469 22.1275 26.9448 22.152C27.0054 22.161 27.075 22.1623 27.1368 22.1623C27.1716 22.1623 27.2064 22.1623 27.2412 22.1623C27.2812 22.1623 27.3224 22.1623 27.3624 22.1623C27.4229 22.1623 27.4745 22.1623 27.5248 22.1662C27.5299 22.1662 27.5338 22.1662 27.5389 22.1662C27.5918 22.1662 27.6639 22.1559 27.7413 22.1443H27.7516C27.9604 22.112 28.1266 22.0695 28.2735 22.0115C28.6176 21.8762 28.8728 21.7061 29.0777 21.4728C29.2698 21.2563 29.4038 20.9895 29.4992 20.6364C29.5314 20.5178 29.5468 20.4276 29.5481 20.3529C29.5481 20.3116 29.5481 20.2717 29.5494 20.2304C29.5533 19.992 29.5572 19.7665 29.5172 19.5719C29.5082 19.5281 29.5005 19.4842 29.4927 19.4417C29.4811 19.3773 29.4695 19.3115 29.4579 19.2793L29.3896 19.1028L29.3922 19.0899C29.3922 19.0899 29.3909 19.0847 29.3896 19.0821C29.3497 18.9262 29.3123 18.8025 29.2569 18.6994C29.1989 18.5924 29.1525 18.4854 29.1112 18.3914C29.0803 18.3218 29.0507 18.2547 29.021 18.1968C28.9746 18.1065 28.9115 18.0099 28.8445 17.9081C28.7981 17.8372 28.7504 17.765 28.7027 17.6864C27.8714 18.6568 27.0402 19.6286 26.2089 20.6003C26.0569 20.7782 25.9061 20.9586 25.7514 21.1352C25.7102 21.1815 25.7037 21.2189 25.7437 21.2705C25.8004 21.3439 25.8481 21.4238 25.9009 21.4999V21.4973ZM53.6404 49.3206C53.2654 49.4508 51.8593 49.8541 51.55 49.8541C51.5281 49.8541 51.5088 49.8541 51.4921 49.8516L51.184 49.8258L51.0075 49.5732C50.9546 49.4972 50.519 48.9314 50.3889 48.7845C50.2007 48.5718 49.9726 48.3605 49.6891 48.1388C49.1723 47.7341 48.6181 47.4261 48.0407 47.2225C47.7056 47.1052 47.3667 47.0292 47.0329 46.9969H47.0149L46.9968 46.9918C46.9582 46.9853 46.8344 46.9763 46.6643 46.9763C46.4401 46.9763 46.3202 46.9918 46.2919 46.9982L46.2725 47.0021L46.2532 47.0047C45.9052 47.0588 45.6346 47.1464 45.4013 47.2818C44.8691 47.5911 44.5675 48.028 44.4528 48.6556C44.4502 48.6672 44.4476 48.6917 44.445 48.7136C44.4334 48.8154 44.4154 48.9713 44.3381 49.1389L44.1667 49.5062L43.7607 49.5165H43.744C43.6434 49.5165 43.588 49.5165 42.8289 49.2845C42.4307 49.1634 42.0093 49.028 41.7554 48.9417C41.1058 48.7187 40.4383 48.4571 39.7733 48.1646C39.2912 47.9519 38.7925 47.7122 38.2899 47.4506C37.9767 47.2882 37.7035 47.1387 37.4522 46.9956L37.1493 46.8217L37.1248 46.4724C37.1171 46.3538 37.1287 46.2546 37.139 46.1824C37.1416 46.1644 37.1442 46.1399 37.1442 46.1322C37.1519 45.8358 37.1519 45.5213 37.0939 45.2339C37.0797 45.1733 37.0011 44.8692 36.9689 44.7674C36.84 44.3666 36.6531 43.9838 36.398 43.5959C36.3812 43.5701 36.3644 43.543 36.3477 43.516L36.3451 43.5121L36.3077 43.4825L36.2497 43.3948C36.1866 43.3007 36.1067 43.2041 36.0216 43.101L35.9598 43.0262C35.7188 42.7337 35.4301 42.4553 35.0744 42.1769C34.5834 41.7903 34.0485 41.4926 33.4827 41.2903C33.1386 41.1665 32.7933 41.0866 32.4569 41.0531C32.4285 41.0505 32.4002 41.0467 32.3718 41.0441C32.3022 41.0364 32.2365 41.0286 32.1862 41.0286C32.1708 41.0286 32.1566 41.0286 32.1463 41.0312L32.038 41.0467L31.9633 41.0325C31.9543 41.0325 31.9452 41.0351 31.9362 41.0351C31.9053 41.0389 31.8653 41.0428 31.8215 41.0441C31.5548 41.057 31.2906 41.1176 31.0122 41.2258L31.007 41.2284C30.9439 41.2606 30.8124 41.3263 30.632 41.3328L30.315 41.3457L30.1087 41.1047C30.0817 41.0737 30.0559 41.0428 30.0288 41.0119C29.9618 40.9346 29.8922 40.8547 29.8226 40.7683C29.8046 40.7451 29.7711 40.7129 29.7376 40.6781C29.6719 40.6124 29.5894 40.5299 29.512 40.4242C29.4528 40.3417 29.3832 40.258 29.311 40.1703L29.2955 40.151C29.2195 40.0582 29.1447 39.9654 29.07 39.8726L28.9656 39.7437C28.8999 39.6625 28.8393 39.5826 28.78 39.504C28.7001 39.3996 28.6254 39.3004 28.5493 39.2115L28.5326 39.1921L28.5171 39.1715L28.463 39.0981C28.423 39.0439 28.3844 38.9911 28.3431 38.937C28.2697 38.839 28.2039 38.7436 28.1421 38.6509C28.1086 38.6006 28.0751 38.5503 28.0416 38.5039C28.0338 38.4949 28.0261 38.4859 28.0184 38.4769C27.9655 38.415 27.8792 38.3132 27.8173 38.1663L27.8147 38.1624C27.6459 37.9317 27.4977 37.6972 27.3534 37.469L27.3224 37.4188C27.2876 37.3647 27.249 37.308 27.209 37.2487C27.1497 37.161 27.0879 37.0708 27.0286 36.9716C26.9822 36.8943 26.9448 36.8208 26.9126 36.7564C26.8881 36.7061 26.8636 36.6597 26.843 36.6262C26.7193 36.4264 26.6007 36.2164 26.4899 36.0011C26.4461 35.9174 26.3997 35.8323 26.3494 35.7434C26.3262 35.7009 26.3017 35.6583 26.2785 35.6158L26.1716 35.4225L26.2038 35.2047C26.2205 35.0938 26.3069 34.733 26.7373 34.6131C26.9203 34.5332 27.0737 34.4469 27.2064 34.3502C27.3534 34.242 27.4861 34.1028 27.6008 33.9352C27.7065 33.7819 27.7915 33.5976 27.8624 33.3708C27.9153 33.1993 27.9346 32.9983 27.9552 32.7857L27.9642 32.6929C27.9681 32.6581 27.9604 32.5898 27.9526 32.5227C27.9462 32.4596 27.9372 32.3887 27.9346 32.3101C27.932 32.2534 27.923 32.1838 27.9075 32.1052C27.9024 32.082 27.8908 32.0382 27.8818 32.0021C27.8714 31.9608 27.8624 31.9248 27.8586 31.9106C27.7851 31.5935 27.6691 31.2778 27.5016 30.9453C27.4023 30.7481 27.2786 30.5522 27.1613 30.3769L27.1356 30.3679L27.0183 30.1875C26.8958 29.9993 26.7347 29.8215 26.5517 29.6256C26.3301 29.3884 26.0723 29.1616 25.7643 28.9335C25.3055 28.5946 24.8428 28.342 24.3492 28.1615L23.9806 28.0262L23.9265 27.637C23.8956 27.4192 23.8969 27.2117 23.8969 27.0287C23.8969 26.9913 23.8969 26.9527 23.8969 26.9153V26.8019C23.8956 26.6846 23.8943 26.5622 23.8969 26.4372C23.8994 26.3637 23.8982 26.2864 23.8969 26.2039C23.8969 26.0364 23.8943 25.8456 23.9175 25.6484C23.9291 25.5492 23.9368 25.4474 23.9446 25.3391C23.9497 25.267 23.9562 25.1935 23.9626 25.1213C23.9755 24.9834 23.9922 24.8017 24.018 24.6161C24.0528 24.37 24.0966 24.0787 24.1611 23.7797C24.1791 23.6972 24.1972 23.6186 24.2152 23.5387C23.4381 24.446 22.6609 25.3546 21.8838 26.2619C21.8168 26.3392 21.7665 26.423 21.7369 26.5209C21.6956 26.6601 21.6467 26.7967 21.6054 26.9359C21.3451 27.8239 21.1879 28.7312 21.126 29.6552C21.0861 30.2545 21.0873 30.8525 21.1131 31.4518C21.1144 31.4943 21.108 31.5407 21.1492 31.5716C21.3954 31.676 21.6428 31.7791 21.8787 31.9067C22.7267 32.3642 23.4458 32.9725 24.0361 33.7329C24.3544 34.144 24.616 34.5886 24.8145 35.0694C24.9008 35.2794 24.9653 35.4972 25.0349 35.7125C25.0349 35.773 25.0542 35.8284 25.0722 35.8839C25.1096 36.1249 25.1508 36.3633 25.1573 36.6082C25.1624 36.8234 25.1405 37.0347 25.1173 37.2474C25.098 37.3054 25.0555 37.3492 25.0168 37.3943C24.5 37.9949 23.9832 38.5967 23.4677 39.1973C23.4144 39.2592 23.4067 39.3262 23.4445 39.3983C23.7525 39.9809 24.0812 40.5505 24.433 41.1073C24.7861 41.6666 25.1599 42.2117 25.5542 42.7414C25.5826 42.7801 25.6071 42.8226 25.647 42.851C25.6586 42.869 25.6702 42.8883 25.6831 42.9064C25.9589 43.2685 26.2347 43.6307 26.5324 43.9748C26.7219 44.1939 26.91 44.4129 27.1008 44.6307C27.1278 44.6617 27.1497 44.7132 27.2077 44.6771C27.4745 44.565 27.7503 44.4838 28.0351 44.4349C28.0738 44.4387 28.1099 44.4284 28.146 44.4181C28.329 44.4091 28.512 44.4001 28.695 44.391C28.8432 44.4026 28.9927 44.4065 29.1396 44.4258C29.8497 44.516 30.5134 44.748 31.1372 45.0947C32.0097 45.5793 32.7417 46.2237 33.3281 47.0304C33.6877 47.524 33.9673 48.0589 34.1478 48.644C34.2689 49.0371 34.3372 49.4392 34.3411 49.8516C34.3308 49.8812 34.3359 49.9121 34.3411 49.9418C34.3321 50.0565 34.3205 50.1712 34.314 50.2859C34.3114 50.3323 34.2818 50.3774 34.3076 50.4251C34.3333 50.465 34.3785 50.4766 34.4158 50.4985C34.9352 50.7898 35.4636 51.0617 36.001 51.3143C37.3491 51.9484 38.7409 52.4626 40.1818 52.8415C40.2681 52.8647 40.3158 52.8415 40.37 52.7784C40.9821 52.0683 41.5969 51.3607 42.2116 50.6532C42.2876 50.5668 42.3534 50.4702 42.4462 50.4006C42.6433 50.3697 42.8405 50.3361 43.0403 50.3336C43.1846 50.3323 43.3277 50.3336 43.472 50.3336C43.8844 50.3671 44.2891 50.4431 44.6809 50.5759C45.8807 50.9818 46.8679 51.6945 47.6747 52.6662C47.8165 52.8376 47.9376 53.0258 48.0755 53.1998C48.0742 53.2075 48.0755 53.214 48.0755 53.2217H48.1206C48.1206 53.214 48.1206 53.2075 48.1219 53.1998C48.1619 53.1921 48.2018 53.1843 48.2405 53.1766C48.6555 53.089 49.0666 52.9872 49.4713 52.857C49.8811 52.7255 50.2858 52.5863 50.6775 52.4046C50.9224 52.2912 51.1699 52.183 51.4109 52.0644C51.8426 51.8517 52.2486 51.5979 52.6455 51.3272C52.7164 51.2782 52.7808 51.2254 52.8375 51.1597C53.5244 50.3697 54.2114 49.5809 54.8983 48.7922C54.8093 48.8373 54.7256 48.8785 54.6508 48.912C54.3054 49.0693 53.9626 49.2072 53.634 49.3219L53.6404 49.3206ZM58.1292 42.2323C58.0828 42.2323 58.0364 42.2323 57.99 42.2362H57.9436C57.9295 42.2362 57.9153 42.2362 57.9011 42.2362C57.6266 42.2362 57.3482 42.2903 57.0737 42.3973C56.4551 42.6396 56.0814 43.0507 55.8984 43.6887C55.8636 43.8124 55.8391 43.9425 55.8288 44.0766C55.8133 44.257 55.803 44.4671 55.8391 44.6552L55.8468 44.6939L55.8494 44.7326C55.8623 44.931 55.919 45.145 55.9821 45.3641C55.9899 45.3898 55.9976 45.413 56.0092 45.4453C56.0169 45.4672 56.0247 45.4891 56.0324 45.511C56.0414 45.5368 56.0491 45.5612 56.0595 45.587C56.093 45.6785 56.1303 45.7687 56.1703 45.8577C56.285 45.8976 56.3997 45.9401 56.5131 45.9865C56.6278 46.0342 56.6278 46.0355 56.7077 45.9453C57.6266 44.8898 58.5455 43.8343 59.4644 42.7788C59.5275 42.7066 59.5907 42.6332 59.6526 42.5597C59.4399 42.4746 59.2389 42.4076 59.043 42.3574C58.7027 42.271 58.4037 42.2298 58.1292 42.2298V42.2323Z" fill="black"/>
<path d="M42.1418 16.6205L47.0379 18.7328C47.0379 18.7328 46.8059 19.9932 47.5019 21.3838C48.1978 22.7756 50.274 24.6663 51.8115 24.839C53.4134 25.0194 54.536 24.6263 54.536 24.6263L57.3803 28.7749C57.3803 28.7749 55.4317 29.5314 55.9059 32.8526C56.4214 36.465 59.9553 37.1467 59.9462 37.5076C59.9372 37.8685 59.713 40.5349 59.5055 40.8855C59.4526 40.9757 57.5001 40.2424 55.8157 41.5208C52.742 43.8561 54.978 47.0007 54.978 47.0007L51.8115 48.3307C51.8115 48.3307 53.8826 45.0314 51.9236 42.5815C50.6813 41.0272 48.6411 41.1561 48.7159 41.1239C55.1043 38.3762 52.4533 31.7919 52.4533 31.7919C52.4533 31.7919 50.0936 25.8558 45.057 23.6327C37.3863 20.2458 34.417 23.536 34.417 23.536C33.8692 21.1995 30.8393 21.59 30.8393 21.59C31.7221 19.506 30.3509 17.395 30.3509 17.395L33.2558 16.1359C33.2558 16.1359 37.1595 21.1866 41.3183 18.0123C42.2462 17.3048 42.1418 16.6179 42.1418 16.6179V16.6205Z" fill="white"/>
<path d="M48.2449 53.1751L33.5451 54.2203L37.8135 49.6864L47.7912 50.046L48.2449 53.1751Z" fill="black"/>
</svg>
