<svg width="100" height="100" viewBox="0 0 100 100" fill="none" xmlns="http://www.w3.org/2000/svg">
<rect width="100" height="100" fill="#11B67A"/>
<path d="M16.9108 68.1912C16.8021 74.8751 12.0699 81.6456 6.34008 83.3126C12.0699 81.6456 16.6274 85.7148 16.5187 92.3987C16.6274 85.7148 21.3595 78.9444 27.0893 77.2774C21.3595 78.9444 16.8021 74.8751 16.9108 68.1912Z" fill="#6CF479"/>
<path d="M5.43109 12.8601C5.37761 16.2047 2.94164 19.5876 0 20.4214C2.9465 19.5876 5.28524 21.6193 5.23175 24.9639C5.28524 21.6193 7.7212 18.2364 10.6628 17.4027C7.71633 18.2364 5.37761 16.2047 5.43109 12.8601Z" fill="#6CF479"/>
<path d="M58.6049 59.0581C62.5884 53.4292 65.0302 46.3503 64.9984 39.1676C64.9397 26.5277 57.2166 17.7593 47.0385 17.7593C45.6504 17.7593 44.217 17.922 42.752 18.2608C30.5344 21.0797 20.6816 35.0116 20.7496 49.3771C20.8083 62.0214 28.5314 70.7853 38.714 70.7853C40.1023 70.7853 41.5357 70.6227 43.0005 70.284L65.1297 65.1793L58.6139 59.0581H58.6049Z" fill="#006A4D"/>
<path d="M54.3979 23.2454C54.9073 23.2771 55.4076 23.336 55.9078 23.404C55.7366 23.3043 55.5744 23.1956 55.3985 23.1004C46.8929 18.6376 36.6924 22.4253 30.1206 31.1199C27.2989 34.8486 23.6883 42.7775 24.2699 47.1543C24.5719 46.1258 25.8474 43.0177 27.9706 41.4955C30.5352 39.6559 34.353 40.254 37.8375 42.329C36.9494 40.4669 36.4987 38.4326 36.6294 36.3166C37.1071 28.5192 45.0674 22.6655 54.4024 23.2499L54.3979 23.2454Z" fill="white"/>
<path d="M21.3143 42.697C21.3461 42.5344 21.3866 42.3718 21.4181 42.2137C21.3911 42.3403 21.3596 42.4666 21.3326 42.5977C21.3235 42.6337 21.3188 42.6654 21.3143 42.7015V42.697ZM24.2601 29.4924L18.486 26.8778C18.486 26.8778 18.4725 26.8958 18.4679 26.9048C18.2289 27.2661 17.9943 27.6319 17.7687 28.0067C17.7417 28.0564 17.7101 28.1017 17.6785 28.1467C17.674 28.1557 17.6695 28.1647 17.665 28.1692C17.4169 28.5847 17.1733 29.0092 16.9432 29.4338C16.8755 29.5602 16.8124 29.6867 16.7447 29.8131C16.5823 30.1202 16.4199 30.4317 16.2666 30.7433C16.235 30.8066 16.2034 30.8653 16.1718 30.9284C16.1267 31.0234 16.0861 31.1227 16.041 31.2175C15.9012 31.511 15.7658 31.8091 15.6305 32.1117C15.5583 32.2743 15.4861 32.4369 15.4185 32.604C15.2831 32.9244 15.1523 33.2451 15.026 33.5703C14.9854 33.6788 14.9358 33.7826 14.8952 33.8909C14.8816 33.9225 14.8726 33.9587 14.8591 33.9902C14.6787 34.478 14.5027 34.9657 14.3448 35.4625C14.3133 35.5618 14.2862 35.6611 14.2546 35.7606C14.1283 36.1624 14.0065 36.5688 13.8983 36.9753C13.8802 37.0476 13.8531 37.1153 13.8351 37.1876C13.79 37.3592 13.7494 37.5308 13.7043 37.7069C13.6772 37.8197 13.6456 37.9327 13.6186 38.0501C13.5238 38.443 13.4336 38.836 13.3524 39.2332C13.3434 39.2694 13.3389 39.31 13.3298 39.3507C13.2577 39.7074 13.1945 40.0641 13.1314 40.4255C13.1088 40.5519 13.0908 40.6829 13.0727 40.8138C13.0502 40.9628 13.0231 41.1119 13.0006 41.261C12.9825 41.3783 12.9735 41.4956 12.9554 41.6132C12.9329 41.7847 12.9103 41.9518 12.8923 42.1234C12.8652 42.3808 12.8382 42.6382 12.8156 42.8956C12.8021 43.0582 12.784 43.2207 12.775 43.3833C12.7524 43.6634 12.7389 43.9434 12.7254 44.2233C12.7209 44.3633 12.7073 44.5034 12.7028 44.6432C12.6893 45.0587 12.6803 45.4697 12.6803 45.8851V45.9031C12.6938 48.5495 13.0411 51.0243 13.6772 53.2822C13.7313 53.4718 13.7855 53.6616 13.8441 53.8467C15.5944 59.5457 19.2032 63.8088 23.8677 65.8862C20.4618 61.7088 18.4319 55.9375 18.4003 49.2766C18.3687 42.4123 20.4393 35.449 24.251 29.4879L24.2601 29.4924ZM23.0061 36.9347C22.952 37.0746 22.8933 37.2146 22.8392 37.3592C22.6588 37.8469 22.4872 38.3345 22.3248 38.8267C22.2933 38.9263 22.2618 39.0301 22.2302 39.1294C22.1039 39.5313 21.9866 39.9333 21.8737 40.3397C22.4196 38.3527 23.1414 36.4245 24.0121 34.5863C23.8722 34.8799 23.7369 35.1781 23.606 35.4715C23.534 35.6341 23.4617 35.8012 23.3896 35.9637C23.2543 36.2844 23.1279 36.6051 23.0016 36.9257L23.0061 36.9347ZM21.1204 43.74C21.1204 43.74 21.1159 43.7718 21.1114 43.7853C21.0889 43.9116 21.0709 44.0382 21.0529 44.1647C21.0754 44.0246 21.0979 43.8801 21.1204 43.74ZM20.9986 44.5349C20.9761 44.6795 20.9535 44.8285 20.9355 44.9729C20.913 45.14 20.895 45.3071 20.8723 45.4742C20.9085 45.158 20.9535 44.8466 20.9986 44.5349ZM20.6603 49.2586C20.6603 48.9064 20.6693 48.554 20.6783 48.2018C20.6648 48.5585 20.6603 48.9109 20.6603 49.2676V49.2586ZM21.6121 56.4841C21.4181 55.775 21.2558 55.0479 21.1159 54.3027C21.2513 55.0479 21.4181 55.7795 21.6121 56.4841ZM39.0294 19.3407C39.3632 19.2007 39.6969 19.0698 40.0309 18.9433C39.9361 18.9795 39.8368 19.0156 39.7422 19.0517C39.503 19.142 39.2639 19.2369 39.0249 19.3407H39.0294ZM37.8655 19.8736C38.2038 19.7065 38.5423 19.553 38.885 19.4039C38.7722 19.4536 38.6594 19.5033 38.5513 19.553C38.3211 19.6568 38.0955 19.7607 37.87 19.8736H37.8655ZM24.9503 19.6839C24.6841 19.9007 24.4226 20.1175 24.1655 20.3433C24.0842 20.411 24.0076 20.4832 23.9308 20.5555C23.7144 20.7497 23.4977 20.9439 23.2858 21.1426C23.1775 21.2464 23.0737 21.3503 22.9655 21.4542C22.7849 21.6303 22.6091 21.8019 22.4332 21.9825L22.4242 21.9916L28.0584 24.543C28.83 23.7031 29.6328 22.9128 30.4629 22.1767L24.9503 19.6794V19.6839ZM36.7152 20.4742C36.6476 20.5103 36.5798 20.551 36.5077 20.5916C36.855 20.3929 37.2068 20.2033 37.5633 20.0226C37.5045 20.0542 37.446 20.0813 37.3874 20.1129C37.1618 20.2303 36.9363 20.3523 36.7152 20.4742ZM32.7004 23.2379C32.7004 23.2379 32.7274 23.2199 32.7364 23.2063C32.7364 23.2063 32.7139 23.2244 32.7004 23.2379ZM30.9411 24.814C30.9005 24.8501 30.8643 24.8908 30.8237 24.9269C31.0764 24.683 31.3291 24.4392 31.5861 24.2043C31.4779 24.3037 31.3651 24.3985 31.2613 24.5024C31.1575 24.6063 31.0494 24.7101 30.9411 24.814ZM30.2328 25.5275C30.4042 25.3514 30.5801 25.1707 30.7562 24.9991C30.6388 25.112 30.5215 25.2295 30.4042 25.3469C30.3456 25.4056 30.2868 25.4688 30.2283 25.532L30.2328 25.5275ZM20.6873 48.1973C20.6964 47.8902 20.7144 47.5787 20.7279 47.2716C20.7234 47.3754 20.7144 47.4792 20.7099 47.5832C20.7009 47.7231 20.6919 47.8631 20.6873 47.9987V48.1973ZM45.5613 17.715C45.6967 17.706 45.8275 17.6924 45.9629 17.6879H45.9088C45.796 17.6924 45.6787 17.706 45.5613 17.715ZM44.384 15.2042C44.172 15.1319 43.9554 15.0597 43.7389 14.9964C43.7029 14.9829 43.6622 14.9693 43.6261 14.9603C43.6081 14.9558 43.5946 14.9513 43.5766 14.9467C43.4367 14.9061 43.2924 14.87 43.1525 14.8339C43.0757 14.8158 42.9991 14.7932 42.9224 14.7751C42.7375 14.73 42.5526 14.6893 42.3629 14.6487C42.3269 14.6397 42.2909 14.6306 42.2548 14.6261C42.0292 14.581 41.8037 14.5403 41.5781 14.5042C41.515 14.4952 41.4517 14.4861 41.3932 14.4771C41.2263 14.4545 41.0594 14.4274 40.8923 14.4094C40.8788 14.4094 40.8698 14.4094 40.8563 14.4048C40.8203 14.4048 40.7797 14.4003 40.7435 14.3958C40.518 14.3732 40.2924 14.3506 40.0624 14.3371C39.9811 14.3326 39.8955 14.3281 39.8143 14.3236C39.5978 14.3145 39.3767 14.3055 39.1557 14.301H38.9706C38.6911 14.301 38.4159 14.3055 38.1317 14.319C38.0639 14.319 37.9964 14.3281 37.9286 14.3326C37.7077 14.3461 37.4865 14.3597 37.2611 14.3823C37.216 14.3823 37.1663 14.3868 37.1212 14.3913C37.0897 14.3913 37.0534 14.4003 37.0219 14.4048C36.6701 14.441 36.3136 14.4861 35.9528 14.5448C35.8943 14.5539 35.831 14.5674 35.7724 14.5765C35.3979 14.6397 35.0191 14.7119 34.6356 14.8022H34.6311C34.225 14.8971 33.8235 15.0055 33.4222 15.1229C33.2868 15.1635 33.156 15.2087 33.0206 15.2493C32.7544 15.3351 32.4883 15.4209 32.2223 15.5157C32.0642 15.5699 31.9108 15.6332 31.7575 15.6919C31.5185 15.7822 31.2793 15.877 31.0404 15.9809C30.8778 16.0486 30.7199 16.1209 30.562 16.1931C30.3321 16.297 30.1019 16.4054 29.8765 16.5138C29.7186 16.5905 29.5605 16.6718 29.4027 16.7531C29.1772 16.8705 28.9516 16.9925 28.7306 17.1189C28.6674 17.155 28.6043 17.1912 28.5457 17.2228L33.8055 19.6026C36.422 17.8731 39.2188 16.6312 42.1105 15.9628C43.1165 15.728 44.1268 15.579 45.1283 15.4887C44.9524 15.4164 44.772 15.3487 44.5961 15.2809C44.5238 15.2538 44.4517 15.2312 44.3794 15.2042H44.384ZM46.6396 17.6653C46.7387 17.6653 46.8425 17.6608 46.9418 17.6608H46.8966C46.811 17.6608 46.7252 17.6653 46.6351 17.6698L46.6396 17.6653ZM42.6517 18.153C43.0487 18.0627 43.4412 17.9859 43.8335 17.9182C43.811 17.9182 43.784 17.9272 43.7615 17.9318C43.396 17.995 43.0262 18.0672 42.6517 18.153ZM47.4785 17.6744C47.6454 17.6789 47.8125 17.6834 47.9794 17.6969C47.9161 17.6969 47.8576 17.6879 47.7943 17.6879C47.6907 17.6834 47.5823 17.6789 47.4785 17.6789V17.6744ZM52.364 18.5685C52.2241 18.5188 52.08 18.4737 51.9356 18.4285C52.107 18.4827 52.2829 18.5369 52.4498 18.6001C52.4227 18.5911 52.3912 18.582 52.364 18.5685ZM48.408 17.7285C48.5478 17.7421 48.692 17.7511 48.8318 17.7647C48.7958 17.7647 48.7597 17.7601 48.7237 17.7556C48.6199 17.7466 48.5116 17.7376 48.408 17.7285ZM24.3999 62.7701C24.0346 62.2055 23.6918 61.6185 23.3714 61.0089C23.6873 61.623 24.0346 62.2101 24.3999 62.7701ZM25.6451 31.5337C25.5458 31.6963 25.4557 31.8634 25.3609 32.0304C25.5052 31.7776 25.6541 31.5247 25.8074 31.2763C25.7894 31.3078 25.7669 31.3394 25.7489 31.3711C25.7126 31.4252 25.6766 31.4794 25.6451 31.5382V31.5337ZM24.7204 33.182C24.7204 33.182 24.7021 33.2226 24.6886 33.2406C24.833 32.9652 24.9818 32.6943 25.1352 32.4232C25.0631 32.5497 24.9909 32.6716 24.9188 32.7981C24.851 32.9244 24.7834 33.051 24.7159 33.182H24.7204ZM42.6156 18.1621H42.6201C42.2141 18.2569 41.8082 18.3653 41.4067 18.4827C41.8082 18.3653 42.2096 18.2569 42.6156 18.1621ZM24.1204 34.3742C24.2648 34.0805 24.4136 33.7871 24.5625 33.498C24.4587 33.7013 24.3504 33.9044 24.251 34.1078C24.206 34.1981 24.1655 34.2884 24.1204 34.3742ZM26.1727 30.6983C26.2315 30.608 26.2856 30.5222 26.3443 30.4319C26.2901 30.5222 26.2315 30.608 26.1772 30.6983H26.1727ZM42.6201 18.1621C42.6201 18.1621 42.6381 18.1621 42.6471 18.1576C42.6381 18.1576 42.6291 18.1576 42.6201 18.1621Z" fill="black"/>
<path d="M74.4956 57.8173C74.4956 43.7296 63.0749 32.313 48.9913 32.313C63.079 32.313 74.4956 20.8923 74.4956 6.80859C74.4956 20.8964 85.9162 32.313 100 32.313C85.9121 32.313 74.4956 43.7337 74.4956 57.8173Z" fill="#6CF479"/>
<path d="M74.4959 38.7855C76.4557 30.9183 85.9162 32.313 100 32.313C85.9121 32.313 74.4956 43.7337 74.4956 57.8173" fill="#006A4D"/>
<path d="M74.4959 38.7855C72.5364 30.9183 63.0749 32.313 48.9913 32.313C63.079 32.313 74.4956 43.7337 74.4956 57.8173" fill="black"/>
<path d="M91.4093 31.9585C82.9852 31.9585 81.4726 32.5887 78.1958 29.702C77.1548 28.7832 73.8738 24.7134 74.5649 13.4675C75.2155 24.8841 89.3764 31.9708 91.4093 31.9585Z" fill="white"/>
</svg>
