<svg width="100" height="100" viewBox="0 0 100 100" fill="none" xmlns="http://www.w3.org/2000/svg">
<g clip-path="url(#clip0_15980_17142)">
<rect width="100" height="100" fill="#11B67A"/>
<path d="M30.7917 78.8588C32.6138 74.4909 33.5147 69.6821 33.5147 64.4222C33.5147 61.9204 33.0744 58.8034 32.1839 55.0814H23.831V49.3806H30.6075C29.5531 45.9867 28.7649 43.0132 28.2429 40.4704C27.7208 37.9173 27.4546 35.313 27.4546 32.6471C27.4546 27.6333 28.724 23.1731 31.2729 19.246C33.8115 15.3293 37.384 12.2738 41.9904 10.0898C46.5968 7.90587 51.8788 6.81901 57.8569 6.81901C62.2176 6.81901 66.3122 7.40345 70.1508 8.57233C73.9895 9.75146 77.2344 11.3817 79.9061 13.4837V31.5603C77.8896 28.8124 75.136 26.5874 71.6658 24.8854C68.1957 23.1833 64.6436 22.3425 61.0097 22.3425C56.4852 22.3425 52.8922 23.5114 50.2307 25.8594C47.5692 28.2074 46.2385 31.3142 46.2385 35.2002C46.2385 37.6302 46.5251 39.8142 47.0881 41.7521C47.6511 43.69 48.5417 46.243 49.7496 49.3908H72.9965V55.0917H51.4386C51.8481 56.9475 52.0426 58.8136 52.0426 60.6695C52.0426 63.9915 51.6024 66.9342 50.7119 69.5283C49.8213 72.1224 48.4086 74.5832 46.474 76.9312C47.9992 76.5314 49.6575 76.3263 51.4386 76.3263C53.2197 76.3263 54.9497 76.4903 56.4033 76.8082C57.8569 77.1363 59.597 77.6182 61.6136 78.2642C63.7121 78.9101 65.4523 79.4023 66.824 79.7201C68.1957 80.038 69.7721 80.202 71.5532 80.202C74.6139 80.202 77.1013 79.5561 79.0053 78.2642C80.8991 76.9723 82.496 75.0754 83.7858 72.5633C83.7858 80.4891 82.3117 86.272 79.3636 89.9119C76.4155 93.5519 71.7579 95.3667 65.3806 95.3667C62.801 95.3667 60.4979 95.2232 58.4813 94.9463C56.4647 94.6592 53.7521 94.1978 50.3638 93.5519C47.5385 92.9879 45.2149 92.5676 43.3928 92.2805C41.5809 92.0036 39.6258 91.8601 37.5171 91.8601C34.1288 91.8601 31.1602 92.1472 28.6216 92.7111C26.0727 93.275 23.3908 94.2081 20.5655 95.5C25.5712 88.7841 28.9799 83.2473 30.802 78.8794L30.7917 78.8588Z" fill="#6CF479"/>
<path d="M28.1303 21.931L22.0192 20.4647C21.5278 21.6234 21.1286 22.823 20.8215 24.0637L26.8712 25.5401C27.1988 24.2995 27.6185 23.0998 28.1303 21.931Z" fill="black"/>
<path d="M68.165 47.8711L65.6059 47.0713H50.4867C50.5891 47.3379 50.6812 47.5942 50.7836 47.8711H68.165Z" fill="black"/>
<path d="M22.3161 49.3871V47.8696H28.5705C27.7925 45.2345 27.1886 42.8558 26.7689 40.7743C26.2264 38.1495 25.95 35.4118 25.95 32.6434C25.95 32.3051 25.9704 31.977 25.9807 31.6489L20.0743 30.2134C20.0743 30.2134 20.0743 30.2852 20.0743 30.3262C20.0743 32.9921 20.3301 35.6067 20.8624 38.1495C21.3845 40.6923 22.1727 43.6658 23.2271 47.0596H16.4505V52.7605L22.3262 54.6061V49.3769L22.3161 49.3871Z" fill="black"/>
<path d="M71.543 78.6821C74.2863 78.6821 76.5077 78.1182 78.1352 77.0006C79.7526 75.8932 81.155 74.2322 82.2912 72.0893L76.3746 70.2334C75.0848 72.7455 73.4879 74.6423 71.5941 75.9342C69.9973 77.0211 67.9705 77.6466 65.5444 77.8209C66.1279 77.9747 66.6807 78.1182 67.1618 78.231C68.4209 78.5283 69.8949 78.6719 71.543 78.6719V78.6821Z" fill="black"/>
<path d="M19.3473 94.5758C24.2505 87.9931 27.6286 82.5178 29.3995 78.2832C31.1294 74.1306 32.0097 69.4756 32.0097 64.431C32.0097 62.2983 31.6617 59.6734 30.9861 56.6077H25.5813C25.9396 58.6789 26.134 60.5347 26.134 62.1137C26.134 67.3737 25.2332 72.1825 23.4111 76.5504C21.589 80.9183 18.1803 86.4551 13.1747 93.171L19.0402 95.0064L19.3575 94.5758H19.3473Z" fill="black"/>
<path d="M77.2239 30.7174C75.5451 28.9539 73.4671 27.4466 71.0002 26.247C70.1813 25.8471 69.3521 25.4985 68.5229 25.1909C70.0686 26.3803 71.3994 27.7235 72.5049 29.2307L77.2136 30.7072L77.2239 30.7174Z" fill="black"/>
<path d="M29.3176 19.5826C29.5428 19.193 29.768 18.8034 30.0136 18.424C32.6956 14.2817 36.5138 11.0211 41.3454 8.72437C46.1258 6.45838 51.6842 5.29976 57.8567 5.29976C58.256 5.29976 58.645 5.33052 59.034 5.34077C56.3008 4.79735 53.4449 4.5 50.4661 4.5C44.488 4.5 39.206 5.58685 34.5996 7.77081C29.9932 9.95477 26.4309 13.0103 23.882 16.927C23.6261 17.3167 23.4009 17.7165 23.1757 18.1164L29.3176 19.5826Z" fill="black"/>
<path d="M49.913 74.6952C49.8823 74.7465 49.8516 74.7977 49.8209 74.849C50.0256 74.8388 50.2406 74.8387 50.4556 74.8285C50.2713 74.7772 50.0973 74.7362 49.9233 74.6952H49.913Z" fill="black"/>
<path d="M86.2734 48.3009C86.2734 48.3009 88.9758 57.2828 99.9492 59.7641C99.9492 59.7641 91.6373 61.1996 91.4735 71.1966C91.4735 71.1966 88.5459 62.5325 78.033 59.7539C78.033 59.7539 86.8159 58.708 86.2734 48.3009Z" fill="white"/>
<path d="M5.68166 14.1388C5.68166 14.1388 7.56514 20.383 15.1913 22.1056C15.1913 22.1056 9.40769 23.1002 9.29509 30.0519C9.29509 30.0519 7.25803 24.0332 -0.0507812 22.0953C-0.0507812 22.0953 6.06041 21.3674 5.68166 14.1285V14.1388Z" fill="white"/>
</g>
<defs>
<clipPath id="clip0_15980_17142">
<rect width="100" height="100" fill="white"/>
</clipPath>
</defs>
</svg>
