<svg width="100" height="100" viewBox="0 0 100 100" fill="none" xmlns="http://www.w3.org/2000/svg">
<g clip-path="url(#clip0_15980_17144)">
<rect width="100" height="100" fill="#11B67A"/>
<path d="M30.8445 78.8588C32.6665 74.4909 33.5674 69.6821 33.5674 64.4222C33.5674 61.9204 33.1272 58.8034 32.2366 55.0814H23.8837V49.3806H30.6602C29.6059 45.9867 28.8177 43.0132 28.2956 40.4704C27.7735 37.9173 27.5074 35.313 27.5074 32.6471C27.5074 27.6333 28.7767 23.1731 31.3256 19.246C33.8642 15.3293 37.4367 12.2738 42.0431 10.0898C46.6495 7.90587 51.9315 6.81901 57.9096 6.81901C62.2703 6.81901 66.3649 7.40345 70.2036 8.57233C74.0422 9.75146 77.2872 11.3817 79.9589 13.4837V31.5603C77.9423 28.8124 75.1887 26.5874 71.7185 24.8854C68.2484 23.1833 64.6964 22.3425 61.0624 22.3425C56.5379 22.3425 52.9449 23.5114 50.2834 25.8594C47.622 28.2074 46.2913 31.3142 46.2913 35.2002C46.2913 37.6302 46.5779 39.8142 47.1409 41.7521C47.7039 43.69 48.5945 46.243 49.8024 49.3908H73.0493V55.0917H51.4913C51.9008 56.9475 52.0953 58.8136 52.0953 60.6695C52.0953 63.9915 51.6552 66.9342 50.7646 69.5283C49.874 72.1224 48.4614 74.5832 46.5267 76.9312C48.0519 76.5314 49.7102 76.3263 51.4913 76.3263C53.2725 76.3263 55.0025 76.4903 56.456 76.8082C57.9096 77.1363 59.6498 77.6182 61.6664 78.2642C63.7648 78.9101 65.5051 79.4023 66.8767 79.7201C68.2484 80.038 69.8248 80.202 71.606 80.202C74.6667 80.202 77.1541 79.5561 79.0581 78.2642C80.9518 76.9723 82.5487 75.0754 83.8385 72.5633C83.8385 80.4891 82.3645 86.272 79.4164 89.9119C76.4683 93.5519 71.8107 95.3667 65.4334 95.3667C62.8538 95.3667 60.5506 95.2232 58.534 94.9463C56.5174 94.6592 53.8048 94.1978 50.4165 93.5519C47.5913 92.9879 45.2676 92.5676 43.4455 92.2805C41.6337 92.0036 39.6785 91.8601 37.5698 91.8601C34.1815 91.8601 31.213 92.1472 28.6743 92.7111C26.1255 93.275 23.4435 94.2081 20.6183 95.5C25.6239 88.7841 29.0326 83.2473 30.8547 78.8794L30.8445 78.8588Z" fill="#6CF479"/>
<path d="M28.1831 21.931L22.0719 20.4647C21.5805 21.6234 21.1813 22.823 20.8742 24.0637L26.924 25.5401C27.2515 24.2995 27.6713 23.0998 28.1831 21.931Z" fill="black"/>
<path d="M68.2178 47.8711L65.6587 47.0713H50.5394C50.6418 47.3379 50.734 47.5942 50.8363 47.8711H68.2178Z" fill="black"/>
<path d="M22.3688 49.3871V47.8696H28.6232C27.8453 45.2345 27.2413 42.8558 26.8216 40.7743C26.2791 38.1495 26.0027 35.4118 26.0027 32.6434C26.0027 32.3051 26.0232 31.977 26.0334 31.6489L20.127 30.2134C20.127 30.2134 20.127 30.2852 20.127 30.3262C20.127 32.9921 20.3829 35.6067 20.9152 38.1495C21.4372 40.6923 22.2254 43.6658 23.2798 47.0596H16.5033V52.7605L22.379 54.6061V49.3769L22.3688 49.3871Z" fill="black"/>
<path d="M71.5957 78.6821C74.3391 78.6821 76.5604 78.1182 78.188 77.0006C79.8053 75.8932 81.2077 74.2322 82.344 72.0893L76.4273 70.2334C75.1376 72.7455 73.5406 74.6423 71.6469 75.9342C70.05 77.0211 68.0232 77.6466 65.5972 77.8209C66.1807 77.9747 66.7334 78.1182 67.2146 78.231C68.4736 78.5283 69.9476 78.6719 71.5957 78.6719V78.6821Z" fill="black"/>
<path d="M19.4 94.5758C24.3033 87.9931 27.6813 82.5178 29.4522 78.2832C31.1822 74.1306 32.0625 69.4756 32.0625 64.431C32.0625 62.2983 31.7144 59.6734 31.0388 56.6077H25.634C25.9923 58.6789 26.1868 60.5347 26.1868 62.1137C26.1868 67.3737 25.2859 72.1825 23.4638 76.5504C21.6418 80.9183 18.233 86.4551 13.2274 93.171L19.0929 95.0064L19.4103 94.5758H19.4Z" fill="black"/>
<path d="M77.2766 30.7174C75.5978 28.9539 73.5199 27.4466 71.0529 26.247C70.234 25.8471 69.4048 25.4985 68.5756 25.1909C70.1213 26.3803 71.4521 27.7235 72.5576 29.2307L77.2664 30.7072L77.2766 30.7174Z" fill="black"/>
<path d="M29.3703 19.5826C29.5955 19.193 29.8207 18.8034 30.0664 18.424C32.7483 14.2817 36.5665 11.0211 41.3981 8.72437C46.1785 6.45838 51.7369 5.29976 57.9095 5.29976C58.3087 5.29976 58.6977 5.33052 59.0867 5.34077C56.3536 4.79735 53.4976 4.5 50.5188 4.5C44.5407 4.5 39.2587 5.58685 34.6523 7.77081C30.0459 9.95477 26.4836 13.0103 23.9347 16.927C23.6788 17.3167 23.4536 17.7165 23.2284 18.1164L29.3703 19.5826Z" fill="black"/>
<path d="M49.9657 74.6952C49.935 74.7465 49.9044 74.7977 49.8737 74.849C50.0784 74.8388 50.2933 74.8387 50.5083 74.8285C50.3241 74.7772 50.15 74.7362 49.976 74.6952H49.9657Z" fill="black"/>
<path d="M86.3261 48.3009C86.3261 48.3009 89.0285 57.2828 100.002 59.7641C100.002 59.7641 91.69 61.1996 91.5262 71.1966C91.5262 71.1966 88.5986 62.5325 78.0858 59.7539C78.0858 59.7539 86.8686 58.708 86.3261 48.3009Z" fill="white"/>
<path d="M5.7344 14.1388C5.7344 14.1388 7.61788 20.383 15.244 22.1056C15.244 22.1056 9.46043 23.1002 9.34782 30.0519C9.34782 30.0519 7.31077 24.0332 0.00195312 22.0953C0.00195312 22.0953 6.11314 21.3674 5.7344 14.1285V14.1388Z" fill="white"/>
</g>
<defs>
<clipPath id="clip0_15980_17144">
<rect width="100" height="100" fill="white"/>
</clipPath>
</defs>
</svg>
