<svg width="100" height="100" viewBox="0 0 100 100" fill="none" xmlns="http://www.w3.org/2000/svg">
<rect width="100" height="100" fill="#11B67A"/>
<path d="M90.042 28.9983C95.412 17.0729 94.8432 2.12086 94.8432 2.12086C94.8432 2.12086 79.8556 1.55335 67.9019 6.91067C60.4309 10.2552 28.6808 49.9508 28.6808 49.9508C28.6808 49.9508 26.0337 57.9717 32.4505 64.3657C39.5574 71.4558 46.8995 68.1264 46.8995 68.1264C46.8995 68.1264 86.6819 36.444 90.042 28.9907V28.9983Z" fill="#6CF479"/>
<path d="M66.507 7.79599C63.3366 10.7319 66.3781 20.2207 71.5434 25.3738C76.7086 30.5268 85.6663 34.0378 89.1629 30.3981C89.5497 29.8911 89.8523 29.4144 90.042 28.9983C95.412 17.0729 94.8432 2.12086 94.8432 2.12086C94.8432 2.12086 79.8556 1.55335 67.9019 6.91067C67.4847 7.09984 67.0152 7.39495 66.4995 7.78842L66.507 7.79599Z" fill="#006A4D"/>
<path d="M66.6361 9.58178C66.6361 9.58178 60.72 14.5759 55.0617 21.2801C45.5731 32.5169 29.6298 51.502 29.6298 51.502L35.3791 60.0677C35.3791 60.0677 30.4945 54.5742 45.7324 36.4062C49.6765 31.7072 56.518 23.4442 61.395 20.1375C64.9523 17.7313 67.9104 18.9193 67.9104 18.9193L66.6285 9.58934L66.6361 9.58178Z" fill="white"/>
<path d="M66.507 7.79599C63.3366 10.7319 66.3781 20.2207 71.5434 25.3738C76.7086 30.5268 85.6663 34.0378 89.1629 30.3981C89.5497 29.8911 89.8523 29.4144 90.042 28.9983C95.412 17.0729 94.8432 2.12086 94.8432 2.12086C94.8432 2.12086 79.8556 1.55335 67.9019 6.91067C67.4847 7.09984 67.0152 7.39495 66.4995 7.78842L66.507 7.79599Z" fill="#006A4D"/>
<path d="M94.8465 2.23786C94.8858 3.65628 95.1348 17.6885 90.042 28.9983C89.8523 29.4144 89.5497 29.8911 89.1629 30.3981C85.6663 34.0378 76.7086 30.5268 71.5434 25.3738C70.9632 24.7949 70.4095 24.1611 69.8887 23.4884C69.9879 23.5028 70.1217 23.5448 70.2922 23.6182C73.0531 24.8137 81.8817 28.703 87.4566 22.7101C91.9467 17.8826 93.5472 8.40906 94.4119 4.39855C94.5959 3.54476 94.7372 2.82838 94.8465 2.23786Z" fill="black"/>
<path d="M91.4984 3.42991C91.4984 3.42991 83.9364 3.74015 78.2933 5.16272C74.1671 6.20694 70.9739 7.43277 69.3432 8.42403C68.2737 9.07477 67.5077 10.1341 67.2498 11.3448C67.0374 12.3512 67.0298 13.0625 67.1967 14.538C67.4621 16.8837 68.4558 18.7982 68.4558 18.7982C68.4558 18.7982 67.0677 10.2628 79.8709 5.86644C84.1336 4.40604 91.4908 3.43748 91.4908 3.43748L91.4984 3.42991Z" fill="white"/>
<path d="M90.4224 28.1198C90.2984 28.414 90.173 28.7074 90.042 28.9983V28.9907C86.6819 36.444 46.8995 68.1264 46.8995 68.1264C46.8852 68.1328 45.3732 68.8132 43.0649 68.8983L32.419 57.0939C32.4373 57.1121 38.7392 63.3849 45.4117 60.3173C50.8728 57.8127 68.9021 40.4997 80.8102 28.5063L90.4224 28.1198Z" fill="black"/>
<path d="M31.9214 45.9447C31.5221 49.1591 31.6648 55.0904 36.7296 60.1432C42.0021 65.4032 47.3826 65.6711 50.5377 65.1974C48.2887 67.0191 46.9155 68.1137 46.8995 68.1264C46.8995 68.1264 39.5574 71.4558 32.4505 64.3657C26.0337 57.9717 28.6808 49.9508 28.6808 49.9508C28.694 49.9344 29.9129 48.4109 31.9214 45.9447Z" fill="#006A4D"/>
<path d="M46.9545 27.8351C48.2136 28.6826 39.4304 40.2674 38.4292 40.6836C37.428 41.0998 36.9425 40.0404 34.9781 39.6924C32.6192 39.2686 28.6903 38.0579 25.0799 41.2436C22.2583 43.7331 22.3797 45.0648 21.6743 43.892C20.9689 42.7191 25.2619 33.9945 32.9681 29.008C40.6743 24.0215 46.9621 27.8351 46.9621 27.8351H46.9545Z" fill="#006A4D"/>
<path d="M69.075 49.9032C68.2255 48.6471 56.6132 57.4095 56.196 58.4084C55.7789 59.4072 56.8407 59.8915 57.1896 61.8513C57.6144 64.2046 58.828 68.1242 55.6348 71.726C53.1393 74.5409 51.8044 74.4198 52.9801 75.1235C54.1557 75.8272 62.901 71.5444 67.8994 63.8565C72.8978 56.1686 69.075 49.8957 69.075 49.8957V49.9032Z" fill="black"/>
<path d="M68.7263 52.7711C67.581 54.3525 65.8668 54.7233 65.8668 54.7233C65.8668 54.7233 69.0449 59.7099 65.5482 65.0747C68.5215 62.0253 69.7806 56.4107 68.7263 52.7711Z" fill="#006A4D"/>
<path d="M41.9184 36.6323C40.2863 38.7865 38.8062 40.5269 38.4292 40.6836C37.428 41.0998 36.9425 40.0404 34.9781 39.6924C32.6192 39.2686 28.6903 38.0579 25.0799 41.2436C22.2583 43.7331 22.3797 45.0648 21.6743 43.892C21.402 43.4392 21.8748 41.8609 23.0012 39.8066C23.0249 40.7116 23.552 41.0122 25.519 39.3368C28.0144 37.2105 32.5957 36.4234 35.7434 37.4449C37.3898 37.9789 39.3555 38.5261 41.9184 36.6323Z" fill="black"/>
<path d="M44.0877 28.1833C42.4949 28.7205 41.7061 30.8316 41.7061 30.8316C41.7061 30.8316 37.1248 27.8654 31.7548 31.3538C34.8115 28.3876 40.4394 27.1315 44.0877 28.1833Z" fill="white"/>
<path d="M32.4879 64.4025C32.8664 64.6697 38.3428 68.4513 42.2587 66.3631C42.4079 66.2811 44.2027 64.9538 44.4189 64.8177C46.4666 65.387 48.3217 65.4331 49.803 65.2876C49.8097 65.287 49.8163 65.2863 49.823 65.2857C49.9089 65.2771 49.9936 65.2676 50.077 65.2579C50.117 65.2532 50.1566 65.2487 50.196 65.2438C50.2416 65.2381 50.2868 65.2319 50.3317 65.2258C50.3947 65.2174 50.4569 65.209 50.5182 65.2C50.5247 65.199 50.5312 65.1983 50.5377 65.1974C48.2903 67.0178 46.9174 68.1121 46.8995 68.1264C46.8995 68.1264 39.5832 71.4437 32.4879 64.4025Z" fill="black"/>
<path d="M65.6578 30.2014C68.7903 33.0314 69.0331 37.8666 66.1963 40.9993C63.3596 44.1244 58.5129 44.3665 55.3728 41.5365C52.2403 38.7065 51.9976 33.8713 54.8343 30.7386C57.6786 27.606 62.5177 27.3714 65.6578 30.2014Z" fill="#C7FFC6"/>
<path d="M64.7012 31.2607C67.227 33.5384 67.4166 37.4277 65.1336 39.9475C62.8505 42.4672 58.9519 42.6564 56.4262 40.3788C53.908 38.1012 53.7108 34.2118 55.9939 31.692C58.2769 29.1723 62.1755 28.9831 64.7012 31.2607Z" fill="#00482F"/>
<path d="M55.3504 35.4376C55.6765 33.107 57.4969 31.2683 59.7799 30.9202C61.9188 30.5948 64.0653 31.6466 65.1575 33.561C63.6102 31.8812 61.3575 31.2758 59.5448 32.0098C58.0809 32.6 57.3831 33.8637 57.1632 34.3101C56.9963 34.3101 56.8067 34.3328 56.5943 34.4009C55.8661 34.6279 55.4793 35.2257 55.358 35.4376H55.3504Z" fill="white"/>
<path d="M24.5014 74.4536L0.45717 97.0456C0.367425 97.1276 0.232807 97.1202 0.143062 97.0381L0.0682742 96.9635C-0.0214709 96.874 -0.0214709 96.7397 0.0607954 96.6501L22.7065 72.6629C24.5463 70.7156 26.5805 69.3129 27.0292 69.7606L27.4181 70.1485C27.8668 70.5962 26.4608 72.6256 24.5089 74.461L24.5014 74.4536Z" fill="white"/>
<path d="M32.9747 76.5352L14.8163 92.4719C14.749 92.5316 14.6293 92.5018 14.547 92.4197L14.4722 92.3451C14.39 92.2556 14.3675 92.1362 14.4274 92.0765L31.2172 74.7072C32.5783 73.2971 34.1713 72.3868 34.6126 72.8494L34.9865 73.2449C35.4277 73.7074 34.4405 75.2519 32.9672 76.5426L32.9747 76.5352Z" fill="white"/>
<path d="M22.0711 65.657L4.69046 82.4294C4.63063 82.4891 4.50349 82.4742 4.42122 82.3847L4.34643 82.3101C4.25669 82.228 4.23425 82.1086 4.29408 82.0415L20.2388 63.9037C21.5326 62.4339 23.0807 61.449 23.5444 61.8892L23.9408 62.2623C24.4045 62.7025 23.4921 64.2917 22.0861 65.657H22.0711Z" fill="white"/>
<path d="M82.754 55.7488C82.754 55.7488 86.7701 47.0268 100 55.7338L82.754 55.7488Z" fill="white"/>
<path d="M36.5947 10.1767C36.3105 9.93798 36.0562 9.66939 35.7944 9.40825C35.1737 8.7666 33.4237 7.25947 30.8659 7.54299C29.7965 7.66983 28.9738 8.1548 28.3979 8.64722C26.9545 6.14032 24.2397 4.44666 21.1286 4.44666C16.4918 4.44666 12.7374 8.1921 12.7374 12.8179V13.6237H47.581C41.4259 13.6237 38.4793 11.7958 36.6096 10.1842L36.5947 10.1767Z" fill="white"/>
</svg>
