<svg width="100" height="100" viewBox="0 0 100 100" fill="none" xmlns="http://www.w3.org/2000/svg">
<rect width="100" height="100" fill="#11B67A"/>
<path d="M44.9527 9.6268C45.3022 9.33103 45.6159 8.9994 45.9386 8.67673C46.7003 7.87903 48.86 6.01473 52.0236 6.37325C53.341 6.52562 54.3626 7.12614 55.0706 7.73562C56.854 4.63444 60.2058 2.53711 64.0415 2.53711C69.7591 2.53711 74.3925 7.17095 74.3925 12.8893V13.8842H31.4023C38.993 13.8842 42.6315 11.6255 44.9437 9.6268H44.9527Z" fill="white"/>
<path d="M22.1177 59.8221C23.3365 59.7863 24.5374 59.6249 25.7024 59.3381V26.0587C24.5374 25.7719 23.3365 25.6105 22.1177 25.5747V59.8221ZM11.0588 56.2011C12.1701 57.0705 13.371 57.7965 14.6435 58.3701V27.0536C13.371 27.6182 12.1701 28.3353 11.0588 29.2047V56.2011ZM34.4045 31.3289C33.9922 30.8628 33.5083 30.334 33.0154 29.8859C32.9526 29.8321 32.8809 29.7783 32.8182 29.7245V55.6723C33.1319 55.4034 33.4455 55.1255 33.7502 54.8298L36.403 52.1588V33.5965L34.4045 31.3289Z" fill="black"/>
<path d="M85.1199 67.0196C84.9048 66.1771 84.1699 65.5766 83.3096 65.5139L71.5247 64.6893C71.462 64.6893 71.3993 64.6893 71.3365 64.6893C70.754 64.6893 70.1894 64.8775 69.7144 65.2271L59.2201 73.1413C58.8975 73.3833 59.0409 73.9032 59.4441 73.948L70.9064 75.1222C72.3313 75.2656 73.5054 76.3053 73.8369 77.6945L75.6293 85.2951C75.7279 85.7253 76.1132 85.9942 76.5076 85.9942C76.6958 85.9942 76.8839 85.9315 77.0452 85.806C80.3343 83.2067 83.7218 79.9442 86.7419 75.9109C87.0646 75.4717 87.1722 74.907 87.0377 74.3872L85.1289 67.0286L85.1199 67.0196ZM94.3416 59.204L93.6963 56.1834C93.5171 55.3499 92.7912 54.7673 91.9488 54.7673C91.9219 54.7673 91.8861 54.7673 91.8592 54.7673C89.6636 54.8749 85.326 55.09 80.5314 55.2961C80.0744 55.314 79.6441 55.5112 79.3305 55.8339L72.627 62.6726C72.3581 62.9415 72.5374 63.4076 72.9138 63.4345L83.3992 64.1694C84.842 64.268 86.0519 65.2808 86.4193 66.6791L87.9966 72.7559C88.0504 72.9711 88.2475 73.0965 88.4357 73.0965C88.5791 73.0965 88.7225 73.0338 88.8032 72.8904C91.0078 69.4307 92.9077 65.487 94.2699 60.9876C94.4492 60.414 94.4671 59.7955 94.3327 59.204H94.3416ZM70.763 76.4576L57.1231 75.0594C56.9349 75.0415 56.7556 75.0325 56.5674 75.0325C56.1104 75.0325 55.6623 75.0863 55.2142 75.2028C50.7153 76.377 39.3785 79.9622 37.5772 86.5858C37.5772 86.5858 35.3188 93.8995 48.8601 94.9572C49.8191 95.0289 50.787 95.0737 51.737 95.0737C59.5607 95.0737 67.2051 92.5999 73.7383 88.217C74.0071 87.5269 74.2043 87.016 74.4642 86.3259L72.5015 78.0082C72.3044 77.1747 71.5964 76.5562 70.745 76.4666L70.763 76.4576Z" fill="#6CF479"/>
<path d="M50.3299 78.0054C52.3821 77.3063 55.5009 76.2756 56.4419 76.0963L68.5852 77.2615L63.8623 79.7801C63.2171 80.1207 62.4911 80.2641 61.7652 80.1834L50.4284 78.8748C49.9534 78.8211 49.8818 78.1578 50.3388 78.0054H50.3299Z" fill="black"/>
<path d="M61.6307 72.9649L71.0407 65.929L81.4006 66.6012L72.7614 73.8522L61.6307 72.9649Z" fill="black"/>
<path d="M74.8315 62.4281L80.3251 56.6022L90.2728 56.2168L84.9404 62.9748L74.8315 62.4281Z" fill="black"/>
<path d="M94.3412 59.2006L93.696 56.1801C93.6064 55.7499 93.3555 55.3824 93.0328 55.1314L85.3167 64.9369C85.8454 65.3761 86.2397 65.9766 86.419 66.6757L87.6557 71.435L87.9963 72.7526C88.0949 73.129 88.5968 73.2186 88.8118 72.887C91.0165 69.4273 92.9164 65.4836 94.2785 60.9842C94.4578 60.4106 94.4757 59.7922 94.3412 59.2006ZM85.1196 67.0163C84.9941 66.5233 84.6893 66.12 84.2861 65.8511L72.788 75.9434C73.2989 76.3915 73.6753 77.001 73.8366 77.6912L75.6378 85.3455C75.7902 85.9819 76.5431 86.2508 77.0629 85.8475C81.1763 82.6925 84.9672 78.4261 86.7595 76.2929C87.1359 75.8448 87.2614 75.2532 87.118 74.6975L85.1196 67.0253V67.0163ZM72.322 77.5029C72.2951 77.4581 72.2772 77.4043 72.2414 77.3685C72.1697 77.2609 72.08 77.1623 71.9904 77.0638C71.9187 76.9921 71.847 76.9203 71.7664 76.8666C69.7141 78.0766 62.24 82.2533 60.5014 83.3109C60.5014 83.3109 53.1078 87.2546 53.8426 91.3507C54.3714 94.2547 56.8538 94.5325 59.9546 94.1561C65.2062 92.9909 70.3055 90.6785 74.7596 87.5146C74.7954 87.4877 72.5191 78.0049 72.5191 78.0049C72.4743 77.8256 72.4027 77.6643 72.322 77.5119V77.5029Z" fill="#006A4D"/>
<path d="M92.5044 31.8835C84.4208 24.4891 72.8869 23.7541 62.8407 29.3201C62.8048 29.338 62.778 29.347 62.7421 29.3649C60.2955 30.7363 57.9385 32.4751 55.7429 34.5814L34.6825 55.7787C31.035 59.4267 26.1867 61.3358 21.0336 61.1834C15.8805 61.0221 11.1576 58.7992 7.72521 54.9093C1.57738 47.9451 1.57738 37.4405 7.72521 30.4853C11.0232 26.7567 15.5579 24.5339 20.4959 24.2381C25.4518 23.9423 30.2016 25.5915 33.8939 28.872C34.3868 29.3111 34.8528 29.8131 35.3995 30.4225L45.6518 42.0475L47.6682 40.2728L37.4159 28.6389C36.8065 27.9577 36.2867 27.3931 35.6862 26.8553C31.4562 23.0909 26.0074 21.1907 20.3346 21.5403C14.6707 21.8809 9.48173 24.4174 5.70879 28.6927C-1.33523 36.6697 -1.33523 48.707 5.70879 56.684C9.63409 61.1296 15.0471 63.6751 20.953 63.8633C21.1681 63.8633 21.3831 63.8723 21.5982 63.8723C27.1904 63.8723 32.6213 61.6315 36.5914 57.6699L57.6248 36.4994C59.6681 34.5365 61.8638 32.9322 64.1401 31.6684C72.6449 27.6171 78.4164 32.3137 79.4918 33.3086C82.4671 36.0423 85.5769 44.0552 84.2416 53.78C85.2005 53.7352 86.1235 53.6904 86.9749 53.6545C87.5754 48.8056 87.1183 44.7543 86.5179 41.9489C85.5321 37.333 83.6322 33.461 81.3111 31.3278C80.7286 30.79 79.0079 29.356 76.391 28.37C81.6247 28.37 86.6433 30.1716 90.6851 33.8643C96.1967 38.9015 98.5895 49.2268 96.6538 59.5521C94.8524 69.1515 87.8711 86.6561 61.5322 97.5282H68.0564C91.0705 86.1094 97.523 69.4741 99.2975 60.0451C101.404 48.8414 98.6702 37.5212 92.4955 31.8745L92.5044 31.8835Z" fill="#6CF479"/>
<path d="M40.7138 94.3373C36.681 95.6728 32.8184 96.7215 29.3681 97.5371H39.5399C41.2785 96.9904 43.0529 96.3988 44.8542 95.7445C43.259 95.4039 41.8878 94.9289 40.7138 94.3373Z" fill="#6CF479"/>
<path d="M47.8204 48.2972L44.2356 51.9092V77.9735C45.4096 77.3371 46.6284 76.7725 47.8204 76.2705V48.2972Z" fill="#006A4D"/>
<path d="M68.9078 64.1509C69.2215 63.9179 69.5709 63.7297 69.9383 63.5952V31.3376C68.7822 31.4541 67.5903 31.7409 66.3536 32.207V66.078L68.9078 64.1509Z" fill="#006A4D"/>
<path d="M56.5763 73.6875C56.8093 73.6875 57.0422 73.6965 57.2662 73.7234L57.7323 73.7682C57.6337 73.1229 57.8757 72.4686 58.4044 72.0652L58.8705 71.7157V37.1635L58.5837 37.4503L55.2857 40.7756V73.8309C55.7069 73.7503 56.1371 73.6965 56.5673 73.6965L56.5763 73.6875Z" fill="#006A4D"/>
<path d="M78.3626 54.9031C78.9182 54.3295 79.671 53.9979 80.4686 53.962C80.6478 53.962 80.8182 53.9441 80.9884 53.9351V37.8108C80.2087 36.1885 79.3304 34.9964 78.5776 34.3063C78.2012 33.9567 77.807 33.643 77.4037 33.3472V55.8711L78.3626 54.8942V54.9031Z" fill="#006A4D"/>
<path d="M22.118 86.2202H25.7028V64.8436C24.5198 65.0677 23.3279 65.1932 22.118 65.2201V86.2292V86.2202Z" fill="#006A4D"/>
<path d="M0 86.2205H3.58474V56.1857C1.93576 53.9808 0.734872 51.5429 0 48.9974V86.2205Z" fill="#006A4D"/>
<path d="M36.7616 84.9352V59.3818C35.6593 60.3857 34.4494 61.273 33.1768 62.0259V86.2259H36.2956C36.4121 85.7867 36.5734 85.3564 36.7616 84.9352Z" fill="#006A4D"/>
<path d="M11.0588 86.2183H14.6435V64.1246C13.4068 63.7213 12.2059 63.2194 11.0588 62.6099V86.2183Z" fill="#006A4D"/>
</svg>
