<svg width="100" height="100" viewBox="0 0 100 100" fill="none" xmlns="http://www.w3.org/2000/svg">
<g clip-path="url(#clip0_15980_17252)">
<rect width="100" height="100" fill="#11B67A"/>
<path fill-rule="evenodd" clip-rule="evenodd" d="M36.8305 43.2823L39.3201 44.7315L48.7117 50.1556C49.2139 50.4426 49.5009 50.9448 49.5009 51.5188V65.2654C49.5009 65.8394 49.2139 66.3416 48.7117 66.6286C48.2095 66.9156 47.6355 66.9156 47.1404 66.6286L35.2592 59.7553C34.757 59.4683 34.47 58.9661 34.47 58.3921V44.6598C34.47 44.0715 34.757 43.5692 35.2592 43.2823C35.7614 42.9953 36.3354 42.9953 36.8305 43.2823Z" fill="black"/>
<path fill-rule="evenodd" clip-rule="evenodd" d="M36.8306 62.3098L48.7118 69.1831C49.214 69.4701 49.501 69.9723 49.501 70.5463V84.2929C49.501 84.8669 49.214 85.3691 48.7118 85.6561C48.2096 85.9431 47.6356 85.9431 47.1405 85.6561L35.2593 78.7828C34.7571 78.4958 34.4701 77.9936 34.4701 77.4196V63.673C34.4701 63.099 34.7571 62.5968 35.2593 62.3098C35.7615 62.0228 36.3355 62.0228 36.8306 62.3098Z" fill="black"/>
<path fill-rule="evenodd" clip-rule="evenodd" d="M68.1981 59.662L80.0937 52.803C80.5959 52.5017 81.1699 52.5017 81.6649 52.803C82.1672 53.09 82.4541 53.5779 82.4541 54.1662V67.9128C82.4541 68.4868 82.1672 68.989 81.6649 69.276L69.7694 76.1493C69.2671 76.4363 68.6932 76.4363 68.1981 76.1493C67.6959 75.848 67.4089 75.3601 67.4089 74.7718V61.0252C67.4089 60.4512 67.6959 59.949 68.1981 59.662Z" fill="#006A4D"/>
<path fill-rule="evenodd" clip-rule="evenodd" d="M51.7176 69.1831L63.6132 62.3098C64.1154 62.0228 64.6894 62.0228 65.1844 62.3098C65.6867 62.5968 65.9737 63.099 65.9737 63.673V77.4196C65.9737 77.9936 65.6867 78.4958 65.1844 78.7828L53.2889 85.6561C52.7866 85.9431 52.2127 85.9431 51.7176 85.6561C51.2154 85.3691 50.9284 84.8669 50.9284 84.2929V70.5463C50.9284 69.9723 51.2154 69.4701 51.7176 69.1831Z" fill="#006A4D"/>
<path fill-rule="evenodd" clip-rule="evenodd" d="M67.4089 42.4938C67.4089 41.6256 67.8681 40.8221 68.6214 40.3916C71.1541 38.9351 77.0158 35.5487 80.0937 33.7766C80.5959 33.4896 81.1699 33.4896 81.6649 33.7766C82.1672 34.0635 82.4541 34.5658 82.4541 35.1397V48.8864C82.4541 49.4603 82.1672 49.9626 81.6649 50.2496L69.7694 57.1229C69.2671 57.4099 68.6932 57.4099 68.1981 57.1229C67.6959 56.8359 67.4089 56.3337 67.4089 55.7453V42.4938Z" fill="#006A4D"/>
<path fill-rule="evenodd" clip-rule="evenodd" d="M67.9109 39.1645C67.1576 39.6021 66.2321 39.6021 65.4859 39.1645L54.0136 32.5351C53.5114 32.2481 53.2244 31.7602 53.2244 31.1719C53.2244 30.5979 53.5114 30.0957 54.0136 29.8087L65.9092 22.9354C66.4114 22.6484 66.9854 22.6484 67.4805 22.9354L79.376 29.8087C79.8783 30.0957 80.1652 30.5979 80.1652 31.1719C80.1652 31.7459 79.8783 32.2481 79.376 32.5351L67.9038 39.1645H67.9109Z" fill="#6CF479"/>
<path fill-rule="evenodd" clip-rule="evenodd" d="M58.0533 28.7321L66.0459 24.37C66.5481 24.083 67.1221 24.083 67.6171 24.37L75.5164 28.5599C76.0186 28.8469 71.1973 26.5223 67.0575 26.4076C63.1904 26.3071 57.5511 29.0191 58.0533 28.7321Z" fill="white"/>
<path fill-rule="evenodd" clip-rule="evenodd" d="M51.7178 50.1556L63.6133 43.2823C64.1156 42.9953 64.6895 42.9953 65.1846 43.2823C65.6868 43.5692 65.9738 44.0715 65.9738 44.6598V58.3921C65.9738 58.9661 65.6868 59.4683 65.1846 59.7553L53.289 66.6286C52.7868 66.9156 52.2128 66.9156 51.7178 66.6286C51.2227 66.3416 50.9286 65.8394 50.9286 65.2654V51.5188C50.9286 50.9448 51.2155 50.4426 51.7178 50.1556Z" fill="#006A4D"/>
<path fill-rule="evenodd" clip-rule="evenodd" d="M37.5337 39.3222L49.4293 32.4489C49.9315 32.1619 50.5055 32.1619 51.0005 32.4489L62.8961 39.3222C63.3983 39.6092 63.6853 40.1114 63.6853 40.6998C63.6853 41.2737 63.3983 41.776 62.8961 42.063L51.0005 48.9363C50.4983 49.2233 49.9243 49.2233 49.4293 48.9363L37.5337 42.063C37.0315 41.776 36.7445 41.2737 36.7445 40.6998C36.7445 40.1258 37.0315 39.6092 37.5337 39.3222Z" fill="#6CF479"/>
<path fill-rule="evenodd" clip-rule="evenodd" d="M23.0119 60.7959L32.9919 65.7895V66.6935C32.9919 66.6935 32.9919 66.9518 32.9919 70.2449V80.5693L29.0387 78.5819C28.436 78.2805 27.9194 77.7496 27.6611 77.1183L21.3761 62.2882C21.1035 61.6712 21.1609 61.126 21.5053 60.8103C21.8496 60.4946 22.4093 60.4802 23.0119 60.7959Z" fill="black"/>
<path fill-rule="evenodd" clip-rule="evenodd" d="M31.0046 49.0869L32.9991 53.8868V64.2685L21.1036 58.1844C20.5009 57.8687 19.9987 57.3378 19.7404 56.7064L13.5558 41.8333C13.2975 41.202 13.3549 40.671 13.6993 40.3554C14.058 40.0397 14.6033 40.0397 15.2203 40.341L29.871 47.8529C30.3804 48.1183 30.7822 48.5488 31.0046 49.0797V49.0869Z" fill="black"/>
<path fill-rule="evenodd" clip-rule="evenodd" d="M29.096 44.1435C28.357 44.739 27.3382 44.8395 26.4916 44.4162L16.6982 39.5015L15.5359 38.9132C15.048 38.6693 14.761 38.1814 14.7467 37.55C14.7323 36.9187 15.005 36.3447 15.4785 35.9788L26.757 26.9602C27.2306 26.5871 27.7758 26.5011 28.2637 26.745L39.8436 32.5565C40.3315 32.8004 40.6185 33.3026 40.6328 33.9196C40.6472 34.551 40.3889 35.125 39.901 35.4909L29.0888 44.1364L29.096 44.1435Z" fill="#6CF479"/>
<path fill-rule="evenodd" clip-rule="evenodd" d="M44.464 31.6453C43.7251 32.2408 42.7134 32.3485 41.8668 31.9323L32.0519 27.0679L30.8896 26.4796C30.3874 26.25 30.1004 25.7478 30.086 25.1164C30.0717 24.4994 30.33 23.9254 30.8035 23.5452L42.039 14.4836C42.5269 14.0961 43.0722 14.0244 43.56 14.2683L55.1686 20.0224C55.6565 20.2663 55.9435 20.7542 55.9578 21.3856C55.9722 22.0026 55.7139 22.5909 55.2404 22.9568L44.464 31.6453Z" fill="#6CF479"/>
<path fill-rule="evenodd" clip-rule="evenodd" d="M34.9792 21.8015L42.1683 16.0044C42.6561 15.6169 43.2014 15.5452 43.6893 15.7891L51.0648 19.441C51.5527 19.685 47.8362 18.0492 42.7207 18.4653C39.3988 18.7379 34.5129 22.1818 34.9864 21.8015H34.9792Z" fill="white"/>
<path fill-rule="evenodd" clip-rule="evenodd" d="M19.927 34.4L27.116 28.6029C27.6039 28.2155 28.1491 28.1437 28.637 28.3877L36.0126 32.0396C36.5004 32.2835 32.784 30.6477 27.6684 31.0638C24.3466 31.3364 19.4606 34.7803 19.9342 34.4H19.927Z" fill="white"/>
<path fill-rule="evenodd" clip-rule="evenodd" d="M41.4794 38.1883L49.472 33.8261C49.9742 33.5391 50.5482 33.5391 51.0432 33.8261L58.9425 38.0161C59.4447 38.3031 54.6234 35.9785 50.4836 35.8637C46.6165 35.7633 40.9772 38.4753 41.4794 38.1883Z" fill="white"/>
<path fill-rule="evenodd" clip-rule="evenodd" d="M65.3277 45.8228L65.0335 57.374C65.0335 58.1058 64.6676 58.7371 64.0291 59.1031L54.4007 65.1154C53.7693 65.4813 59.3871 61.6716 62.1421 57.1946C64.7178 53.0118 65.3277 45.091 65.3205 45.8228H65.3277Z" fill="#11B67A"/>
<path fill-rule="evenodd" clip-rule="evenodd" d="M64.862 64.5121L64.5679 76.0633C64.5679 76.7951 64.202 77.4265 63.5634 77.7924L53.935 83.8047C53.3037 84.1706 58.9214 80.3609 61.6765 75.8839C64.2522 71.7011 64.862 63.7803 64.8549 64.5121H64.862Z" fill="#11B67A"/>
<path fill-rule="evenodd" clip-rule="evenodd" d="M81.3132 54.8339L81.019 66.3851C81.019 67.1169 80.6531 67.7482 80.0146 68.1141L70.3862 74.1265C69.7548 74.4924 75.3726 70.6827 78.1277 66.2057C80.7034 62.0229 81.3132 54.102 81.306 54.8339H81.3132Z" fill="#11B67A"/>
<path fill-rule="evenodd" clip-rule="evenodd" d="M81.3133 36.1436L81.0192 47.6948C81.0192 48.4266 80.6533 49.058 80.0147 49.4239L70.3863 55.4363C69.755 55.8022 75.3727 51.9924 78.1278 47.5155C80.7035 43.3326 81.3133 35.4118 81.3062 36.1436H81.3133Z" fill="#11B67A"/>
<path d="M97.4361 66.3562C98.2468 71.0987 94.1429 74.9658 88.1019 75.4107C87.1692 78.137 84.1558 80.1316 80.1667 80.6625C83.0437 81.0284 86.2221 80.8419 89.3646 80.0957C97.3069 78.2159 101.913 70.8619 99.2943 65.2011C98.0603 62.5393 95.4918 60.5878 92.2632 59.5188C95.0111 61.2192 96.9697 63.6514 97.4289 66.3491L97.4361 66.3562Z" fill="white"/>
<path d="M2.62974 36.309C1.81901 31.5665 5.92291 27.6994 11.964 27.2546C12.8967 24.5282 15.91 22.5336 19.8991 22.0027C17.0221 21.6368 13.8437 21.8234 10.7012 22.5695C2.75171 24.4421 -1.85442 31.7961 0.771506 37.4569C2.00555 40.1187 4.57407 42.0702 7.80267 43.1393C5.05478 41.4389 3.09609 39.0067 2.63692 36.309H2.62974Z" fill="white"/>
</g>
<defs>
<clipPath id="clip0_15980_17252">
<rect width="100" height="100" fill="white"/>
</clipPath>
</defs>
</svg>
