<svg width="100" height="100" viewBox="0 0 100 100" fill="none" xmlns="http://www.w3.org/2000/svg">
<rect width="100" height="100" fill="#11B67A"/>
<path d="M84.3633 15.0752L26.7784 4.77185L5.39709 72.7205L1.3836 73.8001L3.3339 77.0289C3.77528 77.8001 4.54513 78.3451 5.41763 78.4994L71.553 90.3349C72.5487 90.5097 73.5238 89.9235 73.8317 88.9569L91.6204 32.4223C91.9284 31.4351 91.8463 30.3657 91.3946 29.4299L84.3736 15.0752H84.3633Z" fill="black"/>
<path d="M79.9801 9.76123L34.836 1.67898L26.9835 26.6353C26.5832 27.8898 27.3839 29.2163 28.6772 29.4425L68.5452 36.5787C70.167 36.8666 71.7478 35.9104 72.2405 34.3371L79.9698 9.751L79.9801 9.76123Z" fill="#006A4D"/>
<path d="M80.4215 9.84047L25.6389 0.0307231C24.6433 -0.144084 23.6681 0.441999 23.3602 1.40858L1.12687 72.0821C0.75734 73.2441 1.4964 74.4574 2.69736 74.6734L69.3357 86.6014C70.3314 86.7762 71.3065 86.1901 71.6145 85.2235L89.5571 28.185C89.865 27.1978 89.7829 26.1284 89.3313 25.1926L82.6079 11.4755C82.1871 10.6117 81.3762 10.005 80.4318 9.83018L80.4215 9.84047Z" fill="#6CF479"/>
<path d="M20.2603 43.4478L10.0264 75.9826L61.3087 85.1651L71.6658 52.2499C72.0661 50.9954 71.2655 49.6689 69.9721 49.4427L23.9556 41.2062C22.3337 40.9183 20.753 41.8746 20.2603 43.4478Z" fill="#00482F"/>
<path d="M52.9022 33.7828L68.5558 36.5797C70.1777 36.8676 71.7584 35.9113 72.2511 34.338L79.9804 9.75194L59.0507 6.009L51.1983 30.9653C50.7979 32.2198 51.5986 33.5463 52.8919 33.7725L52.9022 33.7828Z" fill="#11B67A"/>
<path d="M6.08467 2.34576C6.08467 2.34576 7.51146 7.08612 13.3007 8.39204C13.3007 8.39204 8.91772 9.15296 8.82534 14.428C8.82534 14.428 7.28563 9.85219 1.73244 8.39204C1.73244 8.39204 6.37208 7.83676 6.08467 2.34576Z" fill="white"/>
<path d="M29.5085 87.9177C29.5085 87.9177 30.9353 92.6581 36.7246 93.964C36.7246 93.964 32.3415 94.7249 32.2492 100C32.2492 100 30.7095 95.4242 25.1563 93.964C25.1563 93.964 29.7959 93.4087 29.5085 87.9177Z" fill="white"/>
<path d="M85.3176 36.4396C85.3176 36.4396 88.0275 45.4473 99.0312 47.9357C99.0312 47.9357 90.6963 49.3753 90.5321 59.401C90.5321 59.401 87.5964 50.7121 77.0546 47.9254C77.0546 47.9254 85.8616 46.8766 85.3176 36.4396Z" fill="white"/>
<path d="M49.9254 33.2574C49.7406 32.8667 49.6483 32.4656 49.6072 32.0955L29.1394 28.4553C29.1394 28.4553 29.1189 28.4553 29.1086 28.4553C28.4312 28.3216 28.0308 27.6019 28.2361 26.9335L36.0886 1.91547L34.8466 1.67898L26.9941 26.6353C26.6348 27.7664 27.1686 28.8667 28.3285 29.3397C28.503 29.4322 28.9546 29.5351 28.9546 29.5351L49.9254 33.2574Z" fill="#11B67A"/>
<path d="M77.0342 11.2297L70.434 32.1141C70.434 32.1141 73.1337 22.3865 68.4427 17.677C68.4427 17.677 72.1072 11.9084 64.6653 8.95726L77.0445 11.2297H77.0342Z" fill="white"/>
</svg>
