<svg width="100" height="100" viewBox="0 0 100 100" fill="none" xmlns="http://www.w3.org/2000/svg">
<g clip-path="url(#clip0_15980_17292)">
<rect width="100" height="100" fill="#11B67A"/>
<path d="M84.332 15.1123L26.7472 4.80896L5.36584 72.7576L1.35235 73.8372L3.30265 77.066C3.74403 77.8373 4.51388 78.3822 5.38638 78.5365L71.5217 90.372C72.5174 90.5468 73.4926 89.9606 73.8005 88.994L91.5892 32.4594C91.8971 31.4722 91.815 30.4028 91.3633 29.467L84.3423 15.1123H84.332Z" fill="black"/>
<path d="M79.9489 9.79834L34.8048 1.71609L26.9523 26.6724C26.552 27.9269 27.3526 29.2534 28.646 29.4796L68.514 36.6158C70.1358 36.9038 71.7166 35.9475 72.2093 34.3742L79.9386 9.78811L79.9489 9.79834Z" fill="#006A4D"/>
<path d="M80.3903 9.87758L25.6077 0.0678325C24.612 -0.106975 23.6369 0.479108 23.3289 1.44569L1.09562 72.1193C0.72609 73.2812 1.46515 74.4945 2.66611 74.7105L69.3045 86.6385C70.3001 86.8133 71.2753 86.2272 71.5832 85.2606L89.5259 28.2221C89.8338 27.2349 89.7517 26.1655 89.3 25.2298L82.5767 11.5126C82.1558 10.6488 81.3449 10.0421 80.4006 9.86729L80.3903 9.87758Z" fill="#6CF479"/>
<path d="M20.229 43.4849L9.99513 76.0197L61.2775 85.2022L71.6346 52.287C72.0349 51.0325 71.2342 49.706 69.9409 49.4798L23.9243 41.2433C22.3025 40.9554 20.7217 41.9117 20.229 43.4849Z" fill="#00482F"/>
<path d="M52.871 33.8199L68.5246 36.6168C70.1464 36.9047 71.7272 35.9484 72.2199 34.3751L79.9492 9.78905L59.0195 6.04611L51.167 31.0024C50.7667 32.2569 51.5673 33.5834 52.8607 33.8096L52.871 33.8199Z" fill="#11B67A"/>
<path d="M6.05342 2.38287C6.05342 2.38287 7.48021 7.12323 13.2695 8.42914C13.2695 8.42914 8.88647 9.19007 8.79409 14.4651C8.79409 14.4651 7.25438 9.8893 1.70119 8.42914C1.70119 8.42914 6.34083 7.87387 6.05342 2.38287Z" fill="white"/>
<path d="M29.4772 87.9548C29.4772 87.9548 30.904 92.6952 36.6933 94.0011C36.6933 94.0011 32.3103 94.762 32.2179 100.037C32.2179 100.037 30.6782 95.4613 25.125 94.0011C25.125 94.0011 29.7647 93.4458 29.4772 87.9548Z" fill="white"/>
<path d="M85.2864 36.4767C85.2864 36.4767 87.9963 45.4844 99 47.9728C99 47.9728 90.6651 49.4124 90.5008 59.4382C90.5008 59.4382 87.5651 50.7492 77.0233 47.9625C77.0233 47.9625 85.8304 46.9137 85.2864 36.4767Z" fill="white"/>
<path d="M49.8942 33.2945C49.7094 32.9038 49.617 32.5027 49.576 32.1326L29.1082 28.4924C29.1082 28.4924 29.0876 28.4924 29.0774 28.4924C28.3999 28.3587 27.9996 27.639 28.2049 26.9706L36.0574 1.95258L34.8153 1.71609L26.9628 26.6724C26.6036 27.8035 27.1373 28.9038 28.2973 29.3768C28.4718 29.4693 28.9234 29.5722 28.9234 29.5722L49.8942 33.2945Z" fill="#11B67A"/>
<path d="M77.003 11.2668L70.4028 32.1512C70.4028 32.1512 73.1024 22.4237 68.4114 17.7141C68.4114 17.7141 72.0759 11.9455 64.634 8.99437L77.0132 11.2668H77.003Z" fill="white"/>
</g>
<defs>
<clipPath id="clip0_15980_17292">
<rect width="100" height="100" fill="white"/>
</clipPath>
</defs>
</svg>
