<svg width="100" height="100" viewBox="0 0 100 100" fill="none" xmlns="http://www.w3.org/2000/svg">
<rect width="100" height="100" fill="#11B67A"/>
<path d="M41.0057 100C47.0948 100 52.0311 98.0362 52.0311 95.6138C52.0311 93.1914 47.0948 91.2276 41.0057 91.2276C34.9165 91.2276 29.9802 93.1914 29.9802 95.6138C29.9802 98.0362 34.9165 100 41.0057 100Z" fill="black"/>
<path d="M41.5949 32.0054L42.4002 26.6084C42.5287 26.0516 45.4157 12.8673 28.5306 4.28337C28.4363 4.23197 20.6577 0.0942576 13.2817 3.19543C14.5668 3.975 16.5286 5.68834 18.0706 9.33778C18.2334 9.72328 18.4047 10.1345 18.5846 10.5714C20.8719 16.1655 25.0354 26.3428 39.9158 32.331C41.1494 36.5544 42.9399 43.9646 43.1455 51.846L44.8588 51.8032C44.6532 43.8447 42.8628 36.3574 41.6035 32.0054H41.5949ZM20.4007 5.46559C26.9029 8.57532 28.7447 14.9404 28.7447 14.9404C24.4442 11.3081 20.4007 5.46559 20.4007 5.46559Z" fill="white"/>
<path d="M78.3838 1.071C74.3317 1.071 71.1791 2.30463 71.1277 2.32177C54.4054 8.09577 54.7995 22.0681 54.8252 22.6593V22.6764L54.9109 29.1786C52.7178 34.1302 50.0878 42.3542 49.7708 53.7223C50.3619 53.6881 50.9358 53.6538 51.4927 53.611C51.8525 41.6946 54.8765 33.2649 57.0611 28.6731C72.1129 24.4069 77.3643 14.9578 80.2599 9.74061C80.4912 9.32084 80.7054 8.9353 80.911 8.57549C82.8727 5.14022 85.023 3.66677 86.3937 3.0414C83.7294 1.53365 80.8938 1.06248 78.4009 1.06248L78.3838 1.071ZM69.3116 9.84341C69.3116 9.84341 72.5669 4.75472 79.3518 3.76098C79.3518 3.76098 72.8325 8.24999 69.3116 9.84341Z" fill="white"/>
<path d="M66.916 11.291C68.0212 7.9928 67.0274 7.8129 67.0274 7.8129C67.0274 7.8129 66.1793 7.23032 64.406 9.91171C64.406 9.91171 55.548 24.1497 57.8781 25.3919L58.0837 25.4176C60.4139 26.6598 66.9075 11.291 66.9075 11.291H66.916Z" fill="black"/>
<path d="M31.0227 13.056C30.2603 9.65499 31.2626 9.58642 31.2626 9.58642C31.2626 9.58642 32.1621 9.08959 33.6527 11.9338C33.6527 11.9338 41.0116 27.0026 38.57 28.005H38.3644C35.9229 29.0073 31.0227 13.056 31.0227 13.056Z" fill="black"/>
<path d="M60.916 61.9376L63.0749 51.9745C62.6037 53.8934 55.262 55.5126 45.7786 55.5126C36.2952 55.5126 28.9792 53.9363 28.4823 51.9831L30.6925 61.9462C30.6925 61.9462 23.7706 68.3713 25.998 77.0323C28.2253 85.6847 40.5871 97.5497 40.5871 97.5497C40.5871 97.5497 42.3348 99.1173 45.8043 99.1173C49.2738 99.1173 51.0214 97.5497 51.0214 97.5497C51.0214 97.5497 63.3833 85.6847 65.6107 77.0323C67.838 68.3798 60.916 61.9462 60.916 61.9462V61.9376Z" fill="#024731"/>
<path d="M59.0532 64.5678C59.0532 64.5678 62.6255 67.4548 63.131 72.0465C63.645 76.6383 61.4261 82.2496 51.2231 94.4915C51.2231 94.4915 61.272 80.5191 55.4637 70.6073C55.4637 70.6073 60.2611 69.9134 59.0446 64.5678H59.0532Z" fill="#11B67A"/>
<path d="M34.2539 62.6661C34.2539 62.6661 28.7113 68.1403 29.7393 75.3364C30.9044 83.4577 40.5848 97.5329 40.5848 97.5329C40.5848 97.5329 41.6985 98.5095 43.883 98.9207C43.7459 98.7065 39.651 91.776 36.8925 82.541C34.3311 73.9657 34.7766 69.4082 40.345 63.2658L38.8629 55.2045C35.9073 54.9046 34.1169 54.622 32.0352 54.0651L34.2539 62.6747V62.6661Z" fill="black"/>
<path d="M53.5284 22.7019C53.5198 22.3764 53.4513 17.2535 56.7067 11.8307C56.3126 7.71014 56.0299 3.63231 57.8289 0C55.3017 0.959477 52.7488 1.98752 50.6328 3.67517C48.9623 5.01159 47.6345 6.70782 46.3152 8.39547C44.8588 10.263 43.4025 12.1306 41.9462 13.9981C41.8091 14.178 41.672 14.3493 41.5349 14.5292C42.2717 15.9085 42.7857 17.2278 43.1284 18.4014C44.4648 22.9847 43.7366 26.4885 43.6509 26.874L43.2397 29.6496C44.1563 30.8232 45.39 31.954 46.9748 32.5537C46.7007 35.7063 46.3238 40.9834 46.2809 46.8431C44.8417 44.6843 42.5972 43.1937 40.2328 43.2536C39.162 43.2793 38.0996 43.6048 37.0459 43.9218C37.1573 41.7887 36.8061 39.6213 36.4463 37.4967C36.1464 35.7405 35.838 33.9501 35.0242 32.3567C34.2189 30.7633 32.8225 29.3754 31.0664 29.0242C30.1069 28.8272 29.1131 28.9129 28.1365 28.8529C25.635 28.6987 22.2426 25.4005 17.5309 25.589C7.3707 25.9916 6 32.0654 6 32.0654C8.15026 31.4058 11.3028 32.0825 13.2475 33.2134C15.1922 34.3442 16.9655 35.8091 19.0729 36.6058C21.1375 37.394 23.3991 37.4882 25.5579 37.9765C29.4986 38.876 33.1052 41.1547 35.6495 44.2987C34.6644 44.5215 33.6878 44.6157 32.7197 44.2987C31.3148 43.8533 30.2097 42.6282 28.9161 41.8487C26.466 40.3752 23.2706 40.6836 21.0604 42.5854C19.3727 44.0417 18.3276 46.2348 17.3338 48.368C16.0574 51.0922 14.7809 53.825 13.5045 56.5492C16.8712 54.0905 19.7154 50.1498 23.6904 49.7044C26.5517 49.3874 29.2759 50.998 32.1029 51.5891C34.6901 52.1373 37.3458 51.8204 39.9758 51.9574C42.0746 52.0688 44.2506 52.5485 45.9896 53.825C46.7521 53.825 47.4888 53.8079 48.1999 53.7822C48.1913 53.1225 48.1313 52.4714 48.0457 51.8289C47.8058 44.0075 48.3369 36.443 48.6882 32.5109C49.5363 32.0483 50.4872 31.123 51.0526 30.7375C51.995 30.095 52.843 29.3326 53.5969 28.476L53.5284 22.6934V22.7019ZM16.46 29.2641C13.1618 28.613 9.20396 29.7352 9.20396 29.7352C18.4903 24.0298 24.5213 29.2641 24.5213 29.2641C24.5213 29.2641 20.9833 30.155 16.46 29.2641ZM47.3175 27.4308C47.2232 11.4709 55.3017 2.56151 55.3017 2.56151C52.7916 6.82775 54.9333 12.3619 54.9333 12.3619C48.9023 16.0199 47.326 27.4394 47.326 27.4394L47.3175 27.4308Z" fill="#6CF479"/>
<path d="M76.2911 27.0712C74.3207 27.5082 72.3503 28.4248 71.211 30.0868C70.577 31.0034 70.183 32.1599 69.232 32.7424C68.3582 33.2821 67.2445 33.1793 66.2165 33.2564C61.7961 33.5648 57.8725 39.1932 58.1124 43.6993C58.061 43.8364 58.0181 43.9735 57.9667 44.102C55.3967 47.2631 53.7691 50.9639 52.8696 53.4911C53.5463 53.4226 54.1974 53.3455 54.7971 53.2684C55.1055 52.4631 55.4909 51.5636 55.9364 50.6213C55.9279 50.6641 55.9107 50.6984 55.9022 50.7412C57.6584 47.957 59.6116 45.0186 62.6528 43.7593C64.6574 42.9283 66.9105 42.9455 68.9579 42.2258C70.8683 41.5576 72.5045 40.2812 74.2607 39.2617C80.2489 35.7836 87.9076 35.381 94.2299 38.208C92.388 30.6265 83.9069 25.3579 76.2996 27.0627L76.2911 27.0712ZM71.0739 33.1794C75.5972 26.3945 85.1148 30.5408 85.1148 30.5408C76.1625 29.8811 71.0739 33.1794 71.0739 33.1794Z" fill="#6CF479"/>
</svg>
