<svg width="100" height="100" viewBox="0 0 100 100" fill="none" xmlns="http://www.w3.org/2000/svg">
<g clip-path="url(#clip0_15980_17378)">
<rect width="100" height="100" fill="#11B67A"/>
<path d="M6.96169 42.4561C6.96169 42.4561 9.23183 49.9582 18.4524 52.0278C18.4524 52.0278 11.472 53.2317 11.332 61.5697C11.332 61.5697 8.87181 54.3461 0.03125 52.0178C0.03125 52.0178 7.42172 51.1422 6.96169 42.4461V42.4561Z" fill="white"/>
<path d="M55.3448 4C55.3448 4 56.8148 8.85551 62.7852 10.1987C62.7852 10.1987 58.2649 10.9748 58.1749 16.3776C58.1749 16.3776 56.5848 11.7012 50.8645 10.1987C50.8645 10.1987 55.6448 9.6316 55.3448 4.00995V4Z" fill="white"/>
<path d="M98.8275 39.7497C98.7375 39.0831 98.2975 38.496 97.5974 38.0881L69.9657 22.039C69.3756 21.7007 68.6756 21.5415 67.9756 21.5415C66.8755 21.5415 65.7554 21.9495 65.0254 22.7057L55.1647 32.9639C43.644 45.1226 31.9633 57.1121 20.3625 69.1813C19.8325 69.7385 19.5825 70.3951 19.6825 71.0419C19.7825 71.7085 20.2225 72.3055 20.9226 72.7035L48.5643 88.7526C50.0844 89.6281 52.2946 89.3297 53.4946 88.0859L98.1575 41.6103C98.6875 41.0631 98.9375 40.3964 98.8375 39.7497H98.8275Z" fill="#006A4D"/>
<path d="M100.018 45.9385L99.5376 41.5307C99.3775 41.8193 99.1775 42.1078 98.9275 42.3665L54.2647 88.8421C53.3346 89.8172 51.9145 90.3346 50.5144 90.3346C49.6344 90.3346 48.7543 90.1256 48.0043 89.6978L20.3625 73.6487C19.4625 73.1313 18.8724 72.3752 18.6524 71.4996L19.2425 76.9421C19.3325 77.768 19.8525 78.554 20.7526 79.0813L48.9143 95.4289C50.6445 96.4239 53.1546 96.0856 54.5147 94.6727L99.1775 48.1971C99.8276 47.5205 100.098 46.7245 100.018 45.9683V45.9385Z" fill="black"/>
<path d="M36.3936 85.7975C36.5536 85.3497 36.2635 84.7328 35.7335 84.4343L31.7533 82.116C31.2332 81.8175 30.6832 81.9369 30.5232 82.3847C30.3632 82.8324 30.6532 83.4493 31.1832 83.7478L35.1635 86.0661C35.6835 86.3646 36.2335 86.2452 36.3936 85.7975Z" fill="#C7FFC6"/>
<path d="M42.3639 73.0915C44.184 74.1363 44.4941 76.1859 43.064 77.6685C41.6439 79.151 39.0137 79.5092 37.2036 78.4644C35.3835 77.4197 35.0635 75.37 36.4936 73.8875C37.9136 72.405 40.5438 72.0468 42.3639 73.0915Z" fill="#C7FFC6"/>
<path d="M76.4961 30.4964C77.1261 30.8546 77.2361 31.5709 76.7461 32.0784C76.2561 32.5858 75.336 32.7152 74.716 32.357C74.0859 31.9988 73.9759 31.2824 74.476 30.775C74.966 30.2675 75.8761 30.1382 76.5061 30.4964H76.4961Z" fill="#C7FFC6"/>
<path d="M85.3167 35.5608C85.9467 35.919 86.0567 36.6354 85.5667 37.1428C85.0766 37.6503 84.1566 37.7796 83.5365 37.4214L78.4762 34.5161C77.8462 34.1579 77.7362 33.4415 78.2262 32.9241C78.7162 32.4167 79.6263 32.2873 80.2563 32.6455L85.3167 35.5509V35.5608Z" fill="#C7FFC6"/>
<path d="M87.7868 57.0325C87.9968 57.4206 88.4068 57.4902 88.7069 57.1718L93.1071 52.6049C93.4072 52.2964 93.4872 51.7293 93.2772 51.3313C93.0671 50.9432 92.6571 50.8736 92.3571 51.192L87.9568 55.759C87.6568 56.0674 87.5768 56.6345 87.7868 57.0325Z" fill="#C7FFC6"/>
<path d="M81.2764 63.7885C81.4864 64.1765 81.8964 64.2462 82.1965 63.9278L86.5967 59.3608C86.8967 59.0523 86.9768 58.4852 86.7667 58.0872C86.5567 57.6992 86.1467 57.6295 85.8467 57.9479L81.4464 62.5149C81.1464 62.8233 81.0664 63.3905 81.2764 63.7885Z" fill="#C7FFC6"/>
<path d="M53.7346 43.8988L37.7636 51.1522L25.4029 63.9576L38.2937 68.3853C39.4337 68.7634 42.694 70.3255 44.174 66.8033L53.7446 43.8888L53.7346 43.8988Z" fill="#024731"/>
<path d="M73.1559 48.9632C73.1559 48.9632 74.1559 52.2566 78.2162 53.172C78.2162 53.172 75.146 53.6993 75.076 57.3708C75.076 57.3708 73.9959 54.1869 70.1057 53.172C70.1057 53.172 73.3559 52.784 73.1559 48.9632Z" fill="white"/>
<path d="M18.3724 13.6414L7.1517 31.6505C6.36165 32.9142 6.82168 34.6852 8.17177 35.6205L50.2544 64.6043C51.4445 65.4202 52.9446 65.0819 53.6046 63.8581L67.5355 38.2572C68.1556 37.113 67.7655 35.5011 66.6455 34.6653L35.8435 11.4922C33.2434 9.5321 33.1833 9.2535 31.2432 9.4923C30.6132 9.5719 22.8127 10.537 22.2527 10.6067C20.1825 10.8554 20.1825 10.7261 18.3624 13.6414H18.3724Z" fill="black"/>
<path d="M18.7724 12.915L7.55173 30.9242C6.76168 32.1878 7.2217 33.9589 8.57179 34.8942L50.6545 63.878C51.8445 64.6939 53.3446 64.3556 54.0047 63.1318L67.9355 37.5309C68.5556 36.3867 68.1656 34.7748 67.0455 33.939L36.2435 10.7758C33.6434 8.81571 33.5834 8.53712 31.6433 8.77591C31.0132 8.85551 23.2127 9.82064 22.6527 9.89029C20.5826 10.139 20.5826 10.0097 18.7624 12.925L18.7724 12.915Z" fill="#6CF479"/>
<path d="M33.6434 26.596L30.4932 31.8893L37.1836 36.6752L40.2638 31.4018L33.6434 26.596Z" fill="#006A4D"/>
<path d="M40.8238 30.4267L44.134 24.7454L39.5738 21.3624C38.4937 20.5565 37.1036 20.7555 36.4836 21.8102L34.2234 25.611L40.8338 30.4267H40.8238Z" fill="#006A4D"/>
<path d="M52.2446 30.7551L45.1141 25.4817L37.6136 38.3965L29.9031 32.8943L27.583 36.7946C26.933 37.8891 27.323 39.4214 28.443 40.2074L41.6239 49.4408L52.2446 30.7551Z" fill="#006A4D"/>
<path d="M45.9242 44.3067L42.6239 50.1373L48.2843 54.1073C49.3444 54.8535 50.6845 54.5749 51.2845 53.5003L53.4146 49.6498L45.9342 44.3167L45.9242 44.3067Z" fill="#006A4D"/>
<path d="M50.1044 36.914L57.4749 42.2869L59.445 38.7348C60.015 37.7 59.665 36.2474 58.645 35.4912L53.2046 31.4615L50.1144 36.924L50.1044 36.914Z" fill="#006A4D"/>
<path d="M53.9447 48.6647L56.9449 43.252L49.5544 37.8891L46.4742 43.3217L53.9447 48.6647Z" fill="#006A4D"/>
</g>
<defs>
<clipPath id="clip0_15980_17378">
<rect width="100" height="100" fill="white"/>
</clipPath>
</defs>
</svg>
