<svg width="100" height="100" viewBox="0 0 100 100" fill="none" xmlns="http://www.w3.org/2000/svg">
<rect width="100" height="100" fill="#11B67A"/>
<path d="M50.0319 68.2348C67.2222 68.2348 81.1577 62.2937 81.1577 54.9649C81.1577 47.6362 67.2222 41.695 50.0319 41.695C32.8415 41.695 18.906 47.6362 18.906 54.9649C18.906 62.2937 32.8415 68.2348 50.0319 68.2348Z" fill="#6CF479"/>
<path fill-rule="evenodd" clip-rule="evenodd" d="M40.8477 63.3235C40.8477 65.4873 44.9595 67.238 50.032 67.238C55.1044 67.238 59.2162 65.4873 59.2162 63.3235C59.2162 61.1598 55.1044 57.7211 50.032 57.7211C44.9595 57.7211 40.8477 61.1687 40.8477 63.3235Z" fill="#1A1A1A"/>
<path fill-rule="evenodd" clip-rule="evenodd" d="M50.032 40.6989C31.5378 40.6989 16.554 47.0824 16.554 54.9654C16.554 62.8483 31.5468 69.2318 50.032 69.2318C68.5172 69.2318 83.51 62.8483 83.51 54.9654C83.51 47.0824 68.5172 40.6989 50.032 40.6989ZM50.032 68.2262C32.8396 68.2262 18.9061 62.2826 18.9061 54.9564C18.9061 47.6301 32.8396 41.6865 50.032 41.6865C67.2244 41.6865 81.1579 47.6301 81.1579 54.9564C81.1579 62.2826 67.2244 68.2262 50.032 68.2262Z" fill="black"/>
<path fill-rule="evenodd" clip-rule="evenodd" d="M30.4609 76.3244C30.6315 76.1717 30.829 76.0191 31.0265 75.8665L30.1557 74.6993C29.9671 74.816 29.7966 74.9327 29.617 75.0494L30.4609 76.3244Z" fill="#11B67A"/>
<path fill-rule="evenodd" clip-rule="evenodd" d="M69.5857 76.3154L70.4296 75.0405C70.259 74.9328 70.0884 74.8161 69.9089 74.7083L69.038 75.8755C69.2355 76.0192 69.4151 76.1718 69.5857 76.3244V76.3154Z" fill="#11B67A"/>
<path fill-rule="evenodd" clip-rule="evenodd" d="M70.8876 80.8588C70.726 81.182 70.5195 81.5052 70.2412 81.8285C67.3594 85.2043 58.6061 87.3052 50.0233 87.3052C41.4406 87.3052 32.6873 85.2043 29.8054 81.8285C29.59 81.5771 29.4194 81.3257 29.2757 81.0743L26.8607 77.4201C25.9989 78.4885 25.523 79.6288 25.523 80.8229C25.523 86.5869 36.4939 91.2646 50.0233 91.2646C63.5528 91.2646 74.5236 86.5869 74.5236 80.8229C74.5236 79.6288 74.0388 78.4796 73.168 77.4111L70.8786 80.8678L70.8876 80.8588Z" fill="#006A4D"/>
<path fill-rule="evenodd" clip-rule="evenodd" d="M50.032 37.0534C27.5068 37.0534 9.24609 44.8376 9.24609 54.4353V57.0031C9.24609 66.6009 27.5068 74.385 50.032 74.385C72.5572 74.385 90.8179 66.6009 90.8179 57.0031V54.4353C90.8179 44.8376 72.5572 37.0534 50.032 37.0534ZM77.2615 42.1441C78.1503 42.1441 78.8685 42.4493 78.8685 42.8264C78.8685 43.2035 78.1503 43.5088 77.2615 43.5088C76.3727 43.5088 75.6545 43.2035 75.6545 42.8264C75.6545 42.4493 76.3727 42.1441 77.2615 42.1441ZM50.032 37.3407C50.9208 37.3407 51.639 37.646 51.639 38.023C51.639 38.4001 50.9208 38.7054 50.032 38.7054C49.1432 38.7054 48.425 38.4001 48.425 38.023C48.425 37.646 49.1432 37.3407 50.032 37.3407ZM22.8025 42.1441C23.6913 42.1441 24.4095 42.4493 24.4095 42.8264C24.4095 43.2035 23.6913 43.5088 22.8025 43.5088C21.9137 43.5088 21.1955 43.2035 21.1955 42.8264C21.1955 42.4493 21.9137 42.1441 22.8025 42.1441ZM11.5175 55.1177C10.6287 55.1177 9.91045 54.8124 9.91045 54.4353C9.91045 54.0582 10.6287 53.753 11.5175 53.753C12.4063 53.753 13.1245 54.0582 13.1245 54.4353C13.1245 54.8124 12.4063 55.1177 11.5175 55.1177ZM22.8025 66.7266C21.9137 66.7266 21.1955 66.4213 21.1955 66.0442C21.1955 65.6671 21.9137 65.3619 22.8025 65.3619C23.6913 65.3619 24.4095 65.6671 24.4095 66.0442C24.4095 66.4213 23.6913 66.7266 22.8025 66.7266ZM50.032 71.5299C49.1432 71.5299 48.425 71.2247 48.425 70.8476C48.425 70.4705 49.1432 70.1653 50.032 70.1653C50.9208 70.1653 51.639 70.4705 51.639 70.8476C51.639 71.2247 50.9208 71.5299 50.032 71.5299ZM77.2615 66.7266C76.3727 66.7266 75.6545 66.4213 75.6545 66.0442C75.6545 65.6671 76.3727 65.3619 77.2615 65.3619C78.1503 65.3619 78.8685 65.6671 78.8685 66.0442C78.8685 66.4213 78.1503 66.7266 77.2615 66.7266ZM50.032 69.8779C30.0206 69.8779 13.7978 62.9647 13.7978 54.4353C13.7978 45.906 30.0206 38.9927 50.032 38.9927C70.0434 38.9927 86.2662 45.906 86.2662 54.4353C86.2662 62.9647 70.0434 69.8779 50.032 69.8779ZM88.5376 55.1177C87.6488 55.1177 86.9306 54.8124 86.9306 54.4353C86.9306 54.0582 87.6488 53.753 88.5376 53.753C89.4264 53.753 90.1446 54.0582 90.1446 54.4353C90.1446 54.8124 89.4264 55.1177 88.5376 55.1177Z" fill="#006A4D"/>
<path d="M24.0865 57.1383C23.7813 53.0353 30.2542 49.0669 39.4834 47.1635C39.5731 45.5923 42.1946 44.1019 45.8306 43.4285C45.8037 43.4285 45.7768 43.4285 45.7498 43.4285C31.7535 44.2186 20.7827 49.6505 21.1957 55.3157C21.4112 58.2606 24.9933 61.5646 30.0926 63.082C26.8966 61.7352 24.2571 59.2752 24.0955 57.1383H24.0865Z" fill="white"/>
<path fill-rule="evenodd" clip-rule="evenodd" d="M68.5086 80.6606C65.5818 82.2228 61.5957 83.3989 57.0081 84.0095C56.1642 84.1172 55.8051 83.4797 56.0654 82.7435L58.238 76.5665C64.0646 76.0098 69.3704 74.8696 73.8144 73.3074L69.4692 79.7897C69.2358 80.1308 68.8856 80.472 68.5265 80.6695L68.5086 80.6606Z" fill="black"/>
<path fill-rule="evenodd" clip-rule="evenodd" d="M31.5468 80.6606C34.4735 82.2228 38.4597 83.3989 43.0473 84.0095C43.8912 84.1172 44.2503 83.4797 43.99 82.7435L41.8173 76.5665C35.9908 76.0098 30.6849 74.8696 26.2409 73.3074L30.5862 79.7897C30.8196 80.1308 31.1697 80.472 31.5288 80.6695L31.5468 80.6606Z" fill="black"/>
<path d="M50.032 92.0722C37.5888 92.0722 27.2913 88.2026 25.5317 83.1657V89.5583C25.5317 95.3223 36.5025 100 50.032 100C53.2819 100 56.3792 99.7307 59.2162 99.2368V91.327C56.3792 91.8028 53.2819 92.0722 50.032 92.0722Z" fill="black"/>
<path d="M59.2073 91.3361V99.2459C60.8771 98.9586 62.4662 98.5905 63.9296 98.1596V90.2767C62.4572 90.6986 60.8771 91.0488 59.2073 91.3361Z" fill="#006A4D"/>
<path d="M63.9296 90.2767V98.1596C64.7465 97.9172 65.5274 97.6564 66.2725 97.3781V89.5131C65.5274 89.7825 64.7465 90.0432 63.9296 90.2767Z" fill="black"/>
<path d="M68.6339 88.5258V96.3549C72.3058 94.5323 74.5323 92.162 74.5323 89.5673V83.1748C73.823 85.2129 71.7133 87.0534 68.6339 88.5258Z" fill="black"/>
<path d="M66.2725 89.5131V97.3781C67.1164 97.0639 67.8976 96.7139 68.6338 96.3458V88.5168C67.8976 88.8669 67.1076 89.1991 66.2726 89.5044L66.2725 89.5131Z" fill="#006A4D"/>
<path fill-rule="evenodd" clip-rule="evenodd" d="M50.0322 14.1044C62.8165 14.1044 73.7335 18.1087 78.1864 23.774C75.4123 17.1929 63.8669 12.2639 50.0322 12.2639C36.1975 12.2639 24.6521 17.2019 21.878 23.774C26.3309 18.1087 37.2569 14.1044 50.0322 14.1044Z" fill="white"/>
<path fill-rule="evenodd" clip-rule="evenodd" d="M50.0321 24.2319C58.1929 24.2319 65.1686 26.4944 68.0056 29.6907C66.237 25.9736 58.8573 23.1904 50.0321 23.1904C41.207 23.1904 33.8273 25.9736 32.0587 29.6907C34.9046 26.4944 41.8714 24.2319 50.0321 24.2319Z" fill="white"/>
<path fill-rule="evenodd" clip-rule="evenodd" d="M50.032 2.75633C68.6429 2.82816 67.0089 8.60118 67.0089 8.60118C67.0089 8.60118 76.2201 3.16035 86.9306 17.1934C83.2946 7.37116 68.1581 0 50.032 0C31.9059 0 16.7695 7.37116 13.1335 17.1934C18.96 8.73586 33.2795 2.69348 50.032 2.75633Z" fill="white"/>
</svg>
