<svg width="100" height="100" viewBox="0 0 100 100" fill="none" xmlns="http://www.w3.org/2000/svg">
<rect width="100" height="100" fill="#11B67A"/>
<path d="M53.4788 18.5474C31.3192 18.5474 13.1612 31.8506 11.4721 48.7544C12.8797 65.3052 31.1785 78.447 53.4788 78.447C75.7792 78.447 94.078 65.3052 95.4856 48.7544C93.7965 31.8506 75.6485 18.5474 53.4788 18.5474Z" fill="#6CF479"/>
<path d="M53.4787 13.5124C29.9316 13.5124 10.8486 28.3587 10.8486 46.6644C10.8486 47.9252 10.9492 49.1758 11.1301 50.4063C11.2307 49.7204 11.3614 49.0447 11.5222 48.3689C13.4426 31.6568 31.49 18.5452 53.4888 18.5452C75.4875 18.5452 93.5349 31.6467 95.4553 48.3689C95.6061 49.0447 95.7469 49.7204 95.8474 50.4063C96.0284 49.1758 96.1289 47.9352 96.1289 46.6644C96.1289 28.3587 77.0459 13.5124 53.4988 13.5124H53.4787Z" fill="#00482F"/>
<path d="M88.0352 38.2057C87.9346 38.0241 87.7436 37.893 87.5124 37.8224C87.2711 37.7518 86.9895 37.7417 86.7382 37.8224L55.6906 46.9501C55.3688 46.6777 54.9566 46.4458 54.464 46.2945C52.7949 45.7801 50.8344 46.3348 50.1004 47.535C49.9395 47.7973 49.8591 48.0595 49.839 48.3217H49.8289V48.4024C49.8289 48.4024 49.8289 48.4831 49.8289 48.5234V49.1992C49.7988 50.1271 50.5428 51.0045 51.7996 51.3878C53.4786 51.9022 55.4392 51.3475 56.1832 50.1473C56.2536 50.0363 56.3039 49.9355 56.3441 49.8245C56.4245 49.6127 56.4547 49.411 56.4547 49.1992H56.4648V48.3217H56.4447C56.4447 48.3217 56.4447 48.2814 56.4447 48.2612L87.4922 39.1336C88.005 38.9823 88.2564 38.5687 88.0452 38.1956L88.0352 38.2057Z" fill="black"/>
<path d="M63.4323 29.9677L65.2823 30.5325L68.932 24.6121L67.0921 24.0473L63.4323 29.9677Z" fill="#00482F"/>
<path d="M37.3014 72.336L39.1414 72.9008L42.8011 66.9804L40.9511 66.4156L37.3014 72.336Z" fill="#00482F"/>
<path d="M78.9461 55.6049L78.1317 56.9261L86.3963 59.4677L87.2107 58.1364L78.9461 55.6049Z" fill="#00482F"/>
<path d="M19.0226 38.8032L27.2872 41.3347L28.1016 40.0135L19.837 37.4819L19.0226 38.8032Z" fill="#00482F"/>
<path d="M76.9959 28.2758L75.4375 27.3883L71.1644 31.2007L72.7228 32.0882L76.9959 28.2758Z" fill="#006A4D"/>
<path d="M29.2379 68.678L30.7963 69.5655L35.0694 65.743L33.511 64.8554L29.2379 68.678Z" fill="#006A4D"/>
<path d="M77.9408 36.2099L83.4506 33.3052L82.2642 32.1554L76.7645 35.0702L77.9408 36.2099Z" fill="#006A4D"/>
<path d="M28.2929 60.7345L22.7831 63.6493L23.9695 64.799L29.4692 61.8842L28.2929 60.7345Z" fill="#006A4D"/>
<path d="M24.7537 55.7703L18.4094 57.5757L19.1333 58.907L25.4776 57.1017L24.7537 55.7703Z" fill="#006A4D"/>
<path d="M83.0686 46.6436L89.8351 46.0687L89.624 44.6366L82.8574 45.2215L83.0686 46.6436Z" fill="#006A4D"/>
<path d="M23.1651 50.3098L16.3986 50.8847L16.6097 52.3068L23.3762 51.7319L23.1651 50.3098Z" fill="#006A4D"/>
<path d="M82.616 52.2183L89.3524 52.9142L89.654 51.4921L82.9277 50.8062L82.616 52.2183Z" fill="#006A4D"/>
<path d="M23.6177 44.7235L16.8813 44.0377L16.5797 45.4497L23.306 46.1456L23.6177 44.7235Z" fill="#006A4D"/>
<path d="M46.4608 74.3705L48.4414 74.5722L49.4871 69.7612L47.5064 69.5595L46.4608 74.3705Z" fill="#006A4D"/>
<path d="M56.7463 27.1856L58.7269 27.3873L59.7726 22.5764L57.7919 22.3847L56.7463 27.1856Z" fill="#006A4D"/>
<path d="M55.3289 69.8098L56.0528 74.6308L58.0637 74.4694L57.3297 69.6383L55.3289 69.8098Z" fill="#006A4D"/>
<path d="M48.1701 22.4853L48.904 27.3063L50.9048 27.1348L50.1809 22.3138L48.1701 22.4853Z" fill="#006A4D"/>
<path d="M63.01 68.6049L65.4633 73.1132L67.3434 72.5787L64.8801 68.0703L63.01 68.6049Z" fill="#006A4D"/>
<path d="M38.8901 24.359L41.3534 28.8674L43.2235 28.3328L40.7703 23.8346L38.8901 24.359Z" fill="#006A4D"/>
<path d="M70.008 66.0358L74.0297 69.9188L75.6585 69.0615L71.6367 65.1785L70.008 66.0358Z" fill="#006A4D"/>
<path d="M30.5752 27.8932L34.5969 31.7762L36.2257 30.9189L32.204 27.0258L30.5752 27.8932Z" fill="#006A4D"/>
<path d="M75.8597 62.2659L81.1683 65.2614L82.4251 64.1419L77.1165 61.1363L75.8597 62.2659Z" fill="#006A4D"/>
<path d="M30.3741 34.6882L25.0655 31.6826L23.8087 32.8122L29.1174 35.8077L30.3741 34.6882Z" fill="#006A4D"/>
<path d="M53.4786 14.9537C76.6939 14.9537 95.5758 29.1949 95.5758 46.6937C95.5758 64.1926 76.6939 78.4338 53.4786 78.4338C30.2633 78.4338 11.3814 64.1926 11.3814 46.6937C11.3814 29.1949 30.2633 14.9537 53.4786 14.9537ZM53.4786 10.526C27.7899 10.526 6.95748 26.7238 6.95748 46.7038C6.95748 66.6838 27.7799 82.8816 53.4786 82.8816C79.1773 82.8816 99.9997 66.6838 99.9997 46.7038C99.9997 26.7238 79.1773 10.526 53.4786 10.526Z" fill="#006A4D"/>
<path d="M70.8826 11.5857C70.8022 11.2932 70.7519 11.0007 70.762 10.6981C70.8525 8.75157 73.0745 7.15801 75.7288 7.15801C75.8394 7.15801 75.95 7.15801 76.0706 7.15801C78.8758 7.29921 81.1581 9.155 81.0676 11.2226C81.0073 12.6144 79.841 13.8146 78.2122 14.3895C79.66 15.0754 81.0475 15.8116 82.3948 16.6084C83.9834 15.2872 84.9988 13.4616 85.0893 11.394C85.2803 7.06724 81.329 3.36575 76.2717 3.1136C76.0907 3.1136 75.9097 3.10352 75.7388 3.10352C70.9228 3.10352 66.9614 6.3108 66.7604 10.4662C68.168 10.7889 69.5454 11.152 70.8927 11.5655L70.8826 11.5857Z" fill="#006A4D"/>
<path d="M20.6111 53.0447C20.6111 42.5352 30.1526 33.6295 43.3639 30.5029C43.6555 26.5089 47.5063 23.2007 52.6943 22.172C52.6541 22.172 52.6139 22.172 52.5837 22.172C32.4852 22.172 16.1973 33.9522 16.1973 48.4859C16.1973 56.0301 20.591 62.8178 27.6089 67.6187C23.2252 63.5944 20.6111 58.5414 20.6111 53.0447Z" fill="white"/>
<path d="M5.61029 49.6322C2.03096 54.0699 0 59.133 0 64.5088C0 81.9572 21.3452 95.805 47.6673 96.0975C57.3295 96.2084 67.6753 94.7964 76.9654 90.7419V79.5568C70.0179 82.6229 62.0047 84.3879 53.4787 84.3879C28.2525 84.3879 7.53065 69.0474 5.61029 49.6322Z" fill="black"/>
<path d="M86.1751 85.5396C86.8186 85.0756 87.4621 84.6016 88.0854 84.0973C88.7189 83.5527 89.3221 82.9878 89.9053 82.413V71.2379C88.7289 72.307 87.4822 73.3256 86.1751 74.2939V85.5496V85.5396Z" fill="black"/>
<path d="M93.2234 67.8254V78.7181C97.5166 73.2415 100 66.8067 100 59.9181V56.0855C98.6025 60.3316 96.2799 64.2954 93.2234 67.8254Z" fill="black"/>
</svg>
