<svg width="100" height="100" viewBox="0 0 100 100" fill="none" xmlns="http://www.w3.org/2000/svg">
<g clip-path="url(#clip0_15980_1534)">
<rect width="100" height="100" fill="#11B67A"/>
<path d="M37.6138 41.9503C32.3526 45.665 27.0913 49.3796 21.8301 53.0943C17.2382 56.4191 17.1123 63.1975 21.5777 66.6894L22.2412 67.2083L36.1709 52.2423C36.6519 48.8116 37.1328 45.381 37.6138 41.9503Z" fill="#006A4D"/>
<path d="M37.6138 41.9503C36.6423 42.8265 35.2192 44.1939 33.6805 46.0264C31.6558 48.4379 31.3205 49.4038 29.7433 51.5392C25.9632 56.6573 23.9822 56.3977 22.2939 59.7766C21.495 61.3758 20.7193 63.8745 21.1584 67.6066C24.7771 63.4879 28.3958 59.3692 32.0144 55.2506L34.0393 48.371L37.6138 41.9503Z" fill="#024731"/>
<path d="M68.1635 64.3738C68.9867 60.8417 73.1116 58.7788 77.3771 59.7659C81.6427 60.753 84.4335 64.4167 83.6102 67.9488C83.228 69.5883 82.1331 70.9097 80.6441 71.758C83.1477 72.5461 85.6447 73.8556 87.7521 75.4374C88.3662 74.2605 89.3041 73.2748 90.5293 72.636C94.0081 70.8221 98.4744 72.4854 100.505 76.3514C102.535 80.2176 101.36 84.8223 97.8812 86.6361C96.1106 87.5592 94.0852 87.5798 92.2545 86.8694C87.8368 93.138 70.3856 96.8609 55.7858 95.4881C42.7122 94.2588 28.5972 88.6307 28.9492 84.4542C29.2315 81.1109 38.5395 82.3827 61.1061 74.7332C65.4267 73.2687 68.6375 72.0304 71.5633 71.3924C68.9824 69.7846 67.5415 67.0423 68.1635 64.3738Z" fill="black"/>
<path d="M4.19312 62.1802C6.23695 61.8926 9.83206 61.6535 14.0571 62.835C18.4621 64.0669 21.4943 66.2678 23.089 67.6114C23.9262 72.1505 24.7633 76.6895 25.6003 81.2286C22.759 81.9946 19.0441 82.7186 14.6628 82.8702C10.5368 83.013 6.97664 82.6082 4.19312 82.0947V62.1802Z" fill="#6CF479"/>
<path d="M4.19312 82.0947C7.33729 82.0947 9.88603 77.6366 9.88603 72.1374C9.88603 66.6382 7.33729 62.1802 4.19312 62.1802C1.04895 62.1802 -1.5 66.6382 -1.5 72.1374C-1.5 77.6366 1.04895 82.0947 4.19312 82.0947Z" fill="white"/>
<path d="M69.2811 54.1663L70.3286 51.4159L68.6328 47.0258L39.0776 41.0183C36.8714 42.2909 34.0562 44.4298 32.779 47.8978C32.1951 49.4834 32.5307 49.7177 31.893 51.4493C30.6713 54.7664 28.7234 55.8687 25.5473 59.6072C25.275 59.9277 22.6666 63.0111 21.7698 64.7137C18.3793 71.1503 24.8101 85.6457 36.0719 91.6404C48.0473 98.015 67.013 95.5904 70.9677 85.0677C72.4665 81.0798 71.4861 76.7883 69.9109 73.2223C67.2382 67.1717 66.9271 60.347 69.2811 54.1663Z" fill="#6CF479"/>
<path d="M60.896 67.0132C57.5764 75.2129 59.8004 82.8727 64.339 85.1639C67.0505 86.5328 70.1651 85.7717 71.9672 85.1126L63.0366 78.7158C62.3231 74.8149 61.6095 70.9141 60.896 67.0132Z" fill="#024731"/>
<path d="M2.55121 80.534C4.65512 80.534 6.36067 77.7455 6.36067 74.3058C6.36067 70.866 4.65512 68.0776 2.55121 68.0776C0.447304 68.0776 -1.25825 70.866 -1.25825 74.3058C-1.25825 77.7455 0.447304 80.534 2.55121 80.534Z" fill="#006A4D"/>
<path d="M6.22463 68.648C6.8894 68.648 7.42831 67.8638 7.42831 66.8963C7.42831 65.9289 6.8894 65.1446 6.22463 65.1446C5.55985 65.1446 5.02095 65.9289 5.02095 66.8963C5.02095 67.8638 5.55985 68.648 6.22463 68.648Z" fill="#006A4D"/>
<path d="M2.57035 67.5071C3.23513 67.5071 3.77403 66.7228 3.77403 65.7554C3.77403 64.788 3.23513 64.0037 2.57035 64.0037C1.90558 64.0037 1.36667 64.788 1.36667 65.7554C1.36667 66.7228 1.90558 67.5071 2.57035 67.5071Z" fill="#006A4D"/>
<path d="M59.2696 92.2197C46.4807 94.5073 35.4509 85.6042 30.2887 81.4372C25.921 77.9118 22.8519 74.3393 20.8648 71.7255C20.9017 72.0489 20.9407 72.5331 20.9242 73.1196C20.9242 73.1197 20.8664 75.1734 19.9626 77.1396C19.0005 79.2327 13.3269 82.3297 5.18362 82.2844C8.20541 82.7661 12.0527 83.0917 16.4801 82.7691C19.6553 82.5378 22.4533 82.0222 24.7981 81.4363C24.797 81.4337 24.7958 81.4312 24.7946 81.4287C25.8766 83.1512 27.2336 84.9063 28.9433 86.571C29.6473 87.2565 31.8149 89.2937 35.1955 91.149C42.0736 94.9238 57.406 98.5322 66.7177 90.7349C67.9851 89.6737 68.8786 88.6206 69.4431 87.8835C65.4542 90.6744 61.8393 91.7601 59.2696 92.2197Z" fill="black"/>
<path d="M46.6485 100.037C53.1709 100.037 58.4584 94.7686 58.4584 88.2695C58.4584 81.7704 53.1709 76.5018 46.6485 76.5018C40.126 76.5018 34.8385 81.7704 34.8385 88.2695C34.8385 94.7686 40.126 100.037 46.6485 100.037Z" fill="white"/>
<path d="M46.6482 97.8951C50.5365 97.8951 53.6887 94.7542 53.6887 90.8797C53.6887 87.0052 50.5365 83.8644 46.6482 83.8644C42.7598 83.8644 39.6076 87.0052 39.6076 90.8797C39.6076 94.7542 42.7598 97.8951 46.6482 97.8951Z" fill="#006A4D"/>
<path d="M40.7052 85.1224C41.9595 85.1224 42.9764 84.1093 42.9764 82.8594C42.9764 81.6096 41.9595 80.5964 40.7052 80.5964C39.4509 80.5964 38.4341 81.6096 38.4341 82.8594C38.4341 84.1093 39.4509 85.1224 40.7052 85.1224Z" fill="#006A4D"/>
<path d="M52.6703 85.1224C53.9246 85.1224 54.9414 84.1093 54.9414 82.8594C54.9414 81.6096 53.9246 80.5964 52.6703 80.5964C51.416 80.5964 50.3992 81.6096 50.3992 82.8594C50.3992 84.1093 51.416 85.1224 52.6703 85.1224Z" fill="#006A4D"/>
<path d="M46.688 82.8595C47.9423 82.8595 48.9591 81.8463 48.9591 80.5965C48.9591 79.3466 47.9423 78.3334 46.688 78.3334C45.4337 78.3334 44.4168 79.3466 44.4168 80.5965C44.4168 81.8463 45.4337 82.8595 46.688 82.8595Z" fill="#006A4D"/>
<path d="M68.7538 47.3034C66.5933 48.6472 63.1749 50.336 58.7432 50.8455C47.6672 52.119 39.5627 44.957 38.101 43.6189C40.677 47.9245 43.7088 50.1218 45.4595 51.1774C45.4595 51.1774 54.0703 56.369 66.5569 53.1446C66.6323 53.1251 68.8246 52.5565 68.8246 52.5565C69.3369 52.3776 69.8491 52.1987 70.3614 52.0198C70.2708 51.5581 70.1574 51.0737 70.0159 50.5707C69.6621 49.3129 69.2113 48.2213 68.7538 47.3034Z" fill="#024731"/>
<path d="M70.2721 51.015C70.6278 51.0591 71.2019 51.2236 72.6251 52.9223C74.9718 55.7235 77.0341 59.6012 78.908 70.8094C79.8203 76.2662 79.7171 77.648 79.1223 79.1232C78.9326 79.5935 77.1843 83.7393 73.0055 84.7818C72.6274 84.8762 71.0209 85.2466 69.2141 84.8029C64.3995 83.6207 61.5038 77.328 60.6522 72.9235C58.5973 62.2951 66.1123 50.4986 70.2721 51.015Z" fill="#006A4D"/>
<path d="M89.1334 23.9354C84.8912 27.2922 78.0037 25.4329 75.2622 20.7839C73.0175 16.9771 73.4851 11.1858 77.632 8.37572C81.7618 5.5772 87.2944 7.25738 90.0847 10.737C93.1938 14.6141 93.0115 20.8667 89.1334 23.9354Z" fill="#006A4D"/>
<path d="M86.7455 22.9377C83.7154 25.3353 78.7961 24.0073 76.8379 20.6867C75.2346 17.9678 75.5686 13.8313 78.5305 11.8241C81.4803 9.82527 85.432 11.0254 87.425 13.5107C89.6457 16.2799 89.5154 20.7459 86.7455 22.9377Z" fill="white"/>
<path d="M47.6206 6.88663C48.7973 12.1555 44.1095 17.5162 38.7148 17.942C34.2976 18.2907 29.2739 15.3411 28.5491 10.3965C27.8273 5.47232 31.7614 1.24769 36.1217 0.267203C40.9802 -0.825293 46.5449 2.06995 47.6206 6.88663Z" fill="#006A4D"/>
<path d="M45.6769 8.59089C46.5173 12.3542 43.1691 16.1831 39.3159 16.4872C36.1608 16.7363 32.5727 14.6295 32.055 11.0978C31.5394 7.58066 34.3494 4.56319 37.4638 3.86291C40.9339 3.08261 44.9086 5.15057 45.6769 8.59089Z" fill="white"/>
<path d="M43.7243 15.663C46.4808 12.9411 46.6239 8.61946 44.2787 5.9372C42.2289 3.59275 38.6437 2.91879 35.6582 4.43484C38.6482 4.10282 41.5728 5.45151 43.205 7.91948C45.5956 11.5341 43.8253 15.4497 43.7243 15.663Z" fill="#024731"/>
<path d="M80.2968 26.5158C81.5377 39.3628 70.2249 49.2726 58.9727 50.7851C49.197 52.0992 38.3252 47.2286 34.6699 39.1754C33.1221 35.7653 33.2851 32.7026 33.3948 31.0135C33.9374 22.6643 40.0874 8.14727 54.7189 6.74417C67.6705 5.50213 79.1221 14.3542 80.2968 26.5158Z" fill="#6CF479"/>
<path d="M46.4597 25.6475C47.7235 25.6475 48.748 24.6267 48.748 23.3674C48.748 22.1082 47.7235 21.0874 46.4597 21.0874C45.196 21.0874 44.1715 22.1082 44.1715 23.3674C44.1715 24.6267 45.196 25.6475 46.4597 25.6475Z" fill="black"/>
<path d="M47.2182 23.5619C47.5777 23.5619 47.8692 23.2714 47.8692 22.9131C47.8692 22.5548 47.5777 22.2643 47.2182 22.2643C46.8586 22.2643 46.5671 22.5548 46.5671 22.9131C46.5671 23.2714 46.8586 23.5619 47.2182 23.5619Z" fill="white"/>
<path d="M62.4483 28.7254C63.7121 28.7254 64.7365 27.7046 64.7365 26.4454C64.7365 25.1861 63.7121 24.1653 62.4483 24.1653C61.1845 24.1653 60.16 25.1861 60.16 26.4454C60.16 27.7046 61.1845 28.7254 62.4483 28.7254Z" fill="black"/>
<path d="M63.4193 26.6992C63.7789 26.6992 64.0704 26.4087 64.0704 26.0504C64.0704 25.6921 63.7789 25.4017 63.4193 25.4017C63.0597 25.4017 62.7682 25.6921 62.7682 26.0504C62.7682 26.4087 63.0597 26.6992 63.4193 26.6992Z" fill="white"/>
<path d="M67.7732 40.4882C69.0898 34.8393 63.37 28.6893 54.9975 26.7518C46.6251 24.8143 38.7705 27.8229 37.4539 33.4718C36.1373 39.1207 41.8571 45.2706 50.2295 47.2082C58.602 49.1457 66.4565 46.137 67.7732 40.4882Z" fill="white"/>
<path d="M46.3193 29.0059C47.1072 27.1354 53.0176 28.1496 53.6485 28.2622C54.681 28.4466 59.5645 29.3184 59.7189 31.1347C59.8627 32.8263 55.9076 35.3663 52.2645 34.7862C48.6325 34.2077 45.6552 30.5828 46.3193 29.0059Z" fill="black"/>
<path d="M83.7584 11.0972C86.2266 12.6403 87.4781 15.5668 86.8855 18.4087C86.2924 21.253 83.9711 23.4415 81.0875 23.8748C81.4915 24.0096 83.6024 24.669 85.7853 23.5464C87.6639 22.5803 88.3835 20.918 88.5889 20.4228C89.85 17.3817 88.1753 14.5679 87.9757 14.2447C86.5807 11.9874 84.3519 11.2683 83.7584 11.0972Z" fill="#024731"/>
<path d="M49.1497 28.6404C49.0818 28.6418 49.0699 28.7365 49.1347 28.7569C49.7161 28.9397 50.5054 29.278 51.277 29.9206C51.8466 30.3949 52.2375 30.894 52.4964 31.2884C52.791 31.0391 53.1557 30.7775 53.5973 30.5455C54.7106 29.9608 55.794 29.8368 56.5427 29.8349C56.6111 29.8348 56.6267 29.74 56.5616 29.7191C55.6137 29.4153 54.5081 29.1296 53.2626 28.9278C51.7164 28.6773 50.3232 28.6158 49.1497 28.6404Z" fill="white"/>
<path d="M51.0474 87.054C51.2089 87.2138 53.2517 89.3054 52.6706 92.1794C52.226 94.379 50.4275 96.1301 48.1208 96.5937C48.2553 96.5233 49.2996 95.9544 49.5005 94.7607C49.618 94.0623 49.3874 93.5025 49.2775 93.2749C49.6887 92.9343 50.5749 92.1055 51.0473 90.7199C51.632 89.0051 51.2087 87.5354 51.0474 87.054Z" fill="white"/>
<path d="M3.97183 70.1884C4.359 70.7075 5.79331 72.7576 5.57139 75.6626C5.37256 78.2653 3.96626 79.9584 3.49801 80.4779C3.54971 80.3432 4.10408 78.8301 3.21928 77.666C2.89916 77.2447 2.50091 77.0144 2.22432 76.8908C2.63103 76.6363 3.70584 75.8879 4.26447 74.4583C5.08602 72.3558 4.127 70.4799 3.97183 70.1884Z" fill="white"/>
</g>
<defs>
<clipPath id="clip0_15980_1534">
<rect width="100" height="100" fill="white"/>
</clipPath>
</defs>
</svg>
