<svg width="100" height="100" viewBox="0 0 100 100" fill="none" xmlns="http://www.w3.org/2000/svg">
<g clip-path="url(#clip0_15980_17460)">
<rect width="100" height="100" fill="#11B67A"/>
<path d="M66.9134 74.2353C66.9134 80.0667 71.658 84.8119 77.4887 84.8119C83.3194 84.8119 88.064 80.0667 88.064 74.2353C88.064 70.0064 85.5449 66.1871 81.6548 64.5133L80.5865 64.0504L81.5301 63.3737C89.8978 57.3821 94.5 49.2805 94.5 40.5645C94.5 23.284 76.0199 9.22642 53.3114 9.22642C30.603 9.22642 12.1229 23.284 12.1229 40.5645C12.1229 57.845 30.603 71.9028 53.3114 71.9028C57.8424 71.9028 62.3112 71.3419 66.6107 70.2201L67.7591 69.9262L67.403 71.0569C67.0825 72.0807 66.9134 73.1581 66.9134 74.2353Z" fill="#6CF479"/>
<path d="M67.6968 99.7949C70.4303 99.7949 72.6462 97.5788 72.6462 94.845C72.6462 92.1112 70.4303 89.8949 67.6968 89.8949C64.9633 89.8949 62.7474 92.1112 62.7474 94.845C62.7474 97.5788 64.9633 99.7949 67.6968 99.7949Z" fill="#6CF479"/>
<path d="M26.1521 15.464C33.5228 10.7455 42.9943 7.90544 53.3115 7.90544C57.7357 7.90544 61.9996 8.43075 66.0143 9.39226C60.3884 7.24666 54.0593 6.02694 47.3473 6.02694C36.7987 6.02694 27.167 9.01832 19.8141 13.9416L26.1521 15.4551V15.464Z" fill="black"/>
<path d="M20.5975 19.7407C21.5677 18.8415 22.6093 17.9869 23.6954 17.1767L17.4285 15.681C16.387 16.5001 15.3989 17.3548 14.4731 18.254L20.5975 19.7407Z" fill="black"/>
<path d="M65.5961 74.2303C65.5961 73.3934 65.6851 72.5654 65.8543 71.7553C64.0472 72.1826 62.1956 72.5031 60.3351 72.7435C60.7891 77.6579 64.4032 81.6464 69.1212 82.6702C66.9402 80.5157 65.5961 77.5244 65.5961 74.2303Z" fill="black"/>
<path d="M10.8055 40.5595C10.8055 34.6213 12.8885 29.0481 16.5204 24.2406L10.5473 22.7894C7.33375 27.321 5.5 32.5114 5.5 38.0311C5.5 49.7384 13.7253 59.9679 25.9919 65.5411C16.7163 59.5494 10.8144 50.5753 10.8144 40.5595H10.8055Z" fill="black"/>
<path d="M61.43 94.8428C61.43 91.887 63.4863 89.412 66.237 88.7531C65.2934 88.0409 64.1273 87.6135 62.8633 87.6135C59.7655 87.6135 57.2551 90.1242 57.2551 93.2224C57.2551 96.3206 59.7655 98.8313 62.8633 98.8313C61.9642 97.7451 61.43 96.3563 61.43 94.8428Z" fill="black"/>
<path d="M56.7211 13.8102C56.7211 13.8102 70.8126 13.2227 81.1298 22.7042C91.4469 32.1858 89.1325 46.4838 89.1325 46.4838C89.1325 46.4838 87.9129 23.4431 68.7741 22.7754C68.7741 22.7754 67.5902 16.0448 56.7122 13.8102H56.7211Z" fill="white"/>
<path d="M22.8495 69.3209C22.8495 69.3209 25.1996 77.1198 34.7423 79.2743C34.7423 79.2743 27.514 80.5207 27.3716 89.201C27.3716 89.201 24.8257 81.6781 15.6836 79.2655C15.6836 79.2655 23.3213 78.3573 22.8495 69.3209Z" fill="white"/>
<path d="M82.0197 -0.196167C82.0197 -0.196167 83.6577 5.22571 90.2895 6.72139C90.2895 6.72139 85.26 7.58497 85.1621 13.6211C85.1621 13.6211 83.3906 8.39513 77.0348 6.71248C77.0348 6.71248 82.3491 6.08036 82.0197 -0.205078V-0.196167Z" fill="white"/>
</g>
<defs>
<clipPath id="clip0_15980_17460">
<rect width="100" height="100" fill="white"/>
</clipPath>
</defs>
</svg>
