<svg width="100" height="100" viewBox="0 0 100 100" fill="none" xmlns="http://www.w3.org/2000/svg">
<g clip-path="url(#clip0_15980_17462)">
<rect width="100" height="100" fill="#11B67A"/>
<path d="M66.9134 74.0439C66.9134 79.8753 71.658 84.6205 77.4887 84.6205C83.3194 84.6205 88.064 79.8753 88.064 74.0439C88.064 69.815 85.5449 65.9957 81.6548 64.3219L80.5865 63.8589L81.5301 63.1823C89.8978 57.1907 94.5 49.0891 94.5 40.3731C94.5 23.0926 76.0199 9.03501 53.3114 9.03501C30.603 9.03501 12.1229 23.0926 12.1229 40.3731C12.1229 57.6536 30.603 71.7114 53.3114 71.7114C57.8424 71.7114 62.3112 71.1505 66.6107 70.0287L67.7591 69.7348L67.403 70.8655C67.0825 71.8893 66.9134 72.9667 66.9134 74.0439Z" fill="#6CF479"/>
<path d="M67.6968 99.6035C70.4303 99.6035 72.6462 97.3874 72.6462 94.6536C72.6462 91.9198 70.4303 89.7035 67.6968 89.7035C64.9633 89.7035 62.7474 91.9198 62.7474 94.6536C62.7474 97.3874 64.9633 99.6035 67.6968 99.6035Z" fill="#6CF479"/>
<path d="M26.1521 15.2726C33.5228 10.5541 42.9943 7.71403 53.3115 7.71403C57.7357 7.71403 61.9996 8.23934 66.0143 9.20085C60.3884 7.05526 54.0593 5.83554 47.3473 5.83554C36.7987 5.83554 27.167 8.82692 19.8141 13.7502L26.1521 15.2637V15.2726Z" fill="black"/>
<path d="M20.5975 19.5493C21.5677 18.6501 22.6093 17.7954 23.6954 16.9853L17.4285 15.4896C16.387 16.3087 15.3989 17.1634 14.4731 18.0626L20.5975 19.5493Z" fill="black"/>
<path d="M65.5961 74.0389C65.5961 73.202 65.6851 72.374 65.8543 71.5639C64.0472 71.9912 62.1956 72.3117 60.3351 72.5521C60.7891 77.4665 64.4032 81.455 69.1212 82.4788C66.9402 80.3243 65.5961 77.333 65.5961 74.0389Z" fill="black"/>
<path d="M10.8055 40.3681C10.8055 34.4299 12.8885 28.8567 16.5204 24.0492L10.5473 22.598C7.33375 27.1296 5.5 32.32 5.5 37.8397C5.5 49.547 13.7253 59.7765 25.9919 65.3497C16.7163 59.358 10.8144 50.3839 10.8144 40.3681H10.8055Z" fill="black"/>
<path d="M61.43 94.6514C61.43 91.6956 63.4863 89.2206 66.237 88.5617C65.2934 87.8495 64.1273 87.4221 62.8633 87.4221C59.7655 87.4221 57.2551 89.9328 57.2551 93.031C57.2551 96.1292 59.7655 98.6399 62.8633 98.6399C61.9642 97.5537 61.43 96.1649 61.43 94.6514Z" fill="black"/>
<path d="M56.7211 13.6188C56.7211 13.6188 70.8126 13.0312 81.1298 22.5128C91.4469 31.9944 89.1325 46.2924 89.1325 46.2924C89.1325 46.2924 87.9129 23.2517 68.7741 22.584C68.7741 22.584 67.5902 15.8534 56.7122 13.6188H56.7211Z" fill="white"/>
<path d="M22.8495 69.1295C22.8495 69.1295 25.1996 76.9284 34.7423 79.0829C34.7423 79.0829 27.514 80.3293 27.3716 89.0096C27.3716 89.0096 24.8257 81.4867 15.6836 79.0741C15.6836 79.0741 23.3213 78.1659 22.8495 69.1295Z" fill="white"/>
<path d="M82.0197 -0.387573C82.0197 -0.387573 83.6577 5.0343 90.2895 6.52999C90.2895 6.52999 85.26 7.39357 85.1621 13.4297C85.1621 13.4297 83.3906 8.20372 77.0348 6.52108C77.0348 6.52108 82.3491 5.88895 82.0197 -0.396484V-0.387573Z" fill="white"/>
</g>
<defs>
<clipPath id="clip0_15980_17462">
<rect width="100" height="100" fill="white"/>
</clipPath>
</defs>
</svg>
