<svg width="100" height="100" viewBox="0 0 100 100" fill="none" xmlns="http://www.w3.org/2000/svg">
<rect width="100" height="100" fill="#11B67A"/>
<path d="M55.4719 73.2729H47.4204V100H55.4719V73.2729Z" fill="#6CF479"/>
<path d="M47.3133 94.5374C47.3133 94.5374 47.9203 87.085 55.5076 87.991V73.2729H47.3133V94.5374Z" fill="black"/>
<path d="M78.6353 3.77528L25.0511 17.5963C22.4089 18.2802 20.5612 20.6519 20.5612 23.3788V81.4874C20.5612 84.2765 23.2123 86.3194 25.9259 85.6177L79.5101 71.7967C82.1523 71.1127 84 68.7412 84 66.0143V7.90557C84 5.11649 81.3489 3.07357 78.6353 3.77528Z" fill="#006A4D"/>
<path d="M19.6508 20.9114C20.4542 18.682 22.3108 16.9233 24.712 16.3104L78.2962 2.48935C78.7604 2.36499 79.2424 2.31169 79.7155 2.31169C80.9741 2.31169 82.1345 2.72917 83.0718 3.43088L83.1878 3.29762L78.7693 0.721759C77.7964 0.0822256 76.5735 -0.184277 75.3238 0.13549L20.4899 14.2852C18.3655 14.8359 16.7766 16.4791 16.2232 18.5132L19.6508 20.9114Z" fill="black"/>
<path d="M19.2224 81.4866V33.8858L16 31.6297V78.1734C16 79.5946 16.6873 80.8115 17.7228 81.5843L19.383 82.8012C19.2848 82.3837 19.2224 81.9396 19.2224 81.4866Z" fill="black"/>
<path d="M19.2224 27.3567V23.3685C19.2224 23.3685 19.2224 23.3329 19.2224 23.3241L16 21.0679V25.1005L19.2224 27.3567Z" fill="black"/>
<path d="M58.4267 12.2425L78.2697 7.33054C79.3498 7.06407 80.3941 7.87235 80.3941 8.98265V28.7549C80.3941 28.7549 79.7336 9.14252 58.4267 12.2425Z" fill="white"/>
<path d="M56.686 32.8249V23.978L52.6603 20.9847L48.6346 26.0032V34.7968C42.7968 37.9589 38.53 44.3898 38.53 50.7407C38.53 57.0916 42.7968 61.364 48.6346 61.5861V71.3656L56.686 69.3316V59.4899C62.4167 56.2922 66.5763 49.9324 66.5763 43.6525C66.5763 37.3727 62.4167 33.118 56.686 32.816V32.8249ZM52.5532 53.9029C48.8398 54.8444 45.8228 52.606 45.8228 48.9021C45.8228 45.1981 48.8398 41.4497 52.5532 40.5082C56.2665 39.5666 59.2836 41.805 59.2836 45.509C59.2836 49.2129 56.2754 52.9613 52.5532 53.9029Z" fill="black"/>
</svg>
