<svg width="100" height="100" viewBox="0 0 100 100" fill="none" xmlns="http://www.w3.org/2000/svg">
<g clip-path="url(#clip0_15980_17545)">
<rect width="100" height="100" fill="#11B67A"/>
<path d="M98.3544 52.0396C98.5106 47.9907 98.379 43.6127 98.2064 39.9012C97.9351 33.9265 96.8911 16.4801 96.1842 14.4967L67.1002 14.0195C64.782 13.3858 62.3323 13.3364 59.9977 13.896C50.2975 16.2332 29.6149 22.1584 25.554 24.2487C24.2469 24.9153 22.9892 25.5983 22.126 27.0056C18.8872 32.2971 11.4969 42.7651 11.349 42.979C8.13477 47.7768 3.72863 54.706 3.72863 54.706C2.61065 56.2367 1.49264 58.5739 1.23781 60.3432C0.851446 63.0919 0.440439 67.9473 0.63773 72.6628C0.63773 72.6628 13.0753 83.6409 35.0979 87.484C36.1748 88.8007 38.0326 89.2287 39.5781 88.4387L98.0255 58.6644L98.5023 52.1466L98.3297 52.0479L98.3544 52.0396Z" fill="#006A4D"/>
<path d="M25.2994 26.1257C28.826 27.8703 37.8439 31.8534 51.1939 34.4704C52.6654 34.7584 53.5696 36.2644 53.1257 37.6963L48.4647 52.6657C47.9961 54.1717 46.5493 55.1511 44.971 55.0194C38.1727 54.4434 20.2685 52.0815 11.3575 42.9797C11.3575 42.9797 16.4131 35.0711 22.299 26.7346C22.9566 25.8047 24.2801 25.6237 25.3077 26.1257H25.2994Z" fill="black"/>
<path d="M62.4065 86.4785L84.6346 74.7597C84.6346 74.7597 80.886 78.5123 84.0427 78.7757L59.7101 91.8112C59.7101 91.8112 66.4181 87.9927 62.4065 86.4785Z" fill="white"/>
<path d="M40.6303 33.9466C40.6303 33.9466 43.9103 34.9918 47.4615 35.5514C47.4615 35.5514 42.5786 44.2746 29.1957 48.4634C29.1957 48.4634 40.2111 42.6699 40.6303 33.9466Z" fill="white"/>
<path d="M58.3128 34.2435C57.4579 34.6467 56.8167 35.4039 56.5536 36.3091L52.3283 50.9658C51.9173 52.3895 52.7475 53.7721 54.7287 52.9162L63.2698 49.1883C64.4617 48.6616 65.2345 47.4847 65.2345 46.1762V33.0667C65.2345 32.1614 64.2973 31.5689 63.4753 31.9475L58.3046 34.2353L58.3128 34.2435Z" fill="#00482F"/>
<path d="M33.3965 73.9041C32.6978 74.653 31.6127 74.9246 30.5769 74.6777C27.4285 73.9288 24.6992 73.04 24.6992 73.04C22.5701 72.4063 23.9266 70.7111 23.9266 70.7111C28.1272 66.3659 34.309 66.1931 34.309 66.1931C36.5203 66.0532 37.1286 67.4028 36.7094 68.4562C36.7094 68.4562 35.8462 71.2954 33.3965 73.9206V73.9041Z" fill="white"/>
<path d="M1.03257 61.9302C1.67377 62.7284 3.4412 63.8065 4.19748 64.1604C4.95376 64.5142 5.52096 64.2426 5.52096 64.2426C6.34301 63.9382 6.28546 62.6955 6.28546 62.6955C5.6607 56.4164 4.27143 53.8324 4.27143 53.8324C2.79997 55.8321 1.55866 58.0376 1.27095 60.0785C1.19696 60.597 1.10655 61.2965 1.03257 61.9219V61.9302Z" fill="white"/>
<path d="M24.8143 28.1865C24.691 28.1206 24.5512 28.096 24.4115 28.096C24.1402 28.096 23.8525 28.203 23.6881 28.4252C19.4463 34.0459 14.0866 42.4564 14.0866 42.4564L33.9472 31.9474C29.5575 30.4084 26.4419 28.9847 24.8225 28.1865H24.8143Z" fill="#00482F"/>
<path d="M60.6801 39.3062C63.2285 40.5159 63.9766 46.8937 63.9766 46.8937V34.0393C63.993 33.3809 63.5902 33.241 63.097 33.4715L58.3291 35.5618C58.3291 35.5618 60.0636 34.9857 60.9925 36.2037C61.9214 37.4216 60.6801 39.298 60.6801 39.298V39.3062Z" fill="white"/>
<path d="M51.6376 63.2065C50.4949 63.7908 49.5414 64.7208 49.0564 65.9058C48.9248 66.235 48.818 66.5889 48.7851 66.9427C48.7851 66.9427 49.8702 66.128 51.0457 65.5849L94.2278 43.5134C95.3129 42.962 95.987 41.851 95.987 40.6331L51.6376 63.1983V63.2065Z" fill="#00482F"/>
<path d="M95.2965 13.8195L69.7638 6.75857C68.3252 6.36355 66.7962 6.42113 65.3905 6.93136C55.3697 10.5935 25.735 24.1475 25.735 24.1475C25.735 24.1475 25.102 24.5178 26.1871 25.0445C29.8452 26.822 39.6358 31.0685 53.5119 33.5702C54.2847 33.7101 55.082 33.5949 55.789 33.241L95.2884 15.5805C96.2008 15.1855 96.7434 14.2556 95.2884 13.8112L95.2965 13.8195Z" fill="#6CF479"/>
<path d="M48.6947 72.1767C44.231 72.1767 41.0168 75.1969 39.1837 78.8425C38.5014 80.2004 36.9559 80.8835 35.468 80.5543C34.5391 80.3485 33.4622 80.077 32.4182 79.7561C29.6643 78.9002 13.0097 74.4809 1.6079 65.9881C1.18866 65.6754 0.950277 65.1816 0.950277 64.6632V62.6469C0.950277 62.6469 0.202209 62.9843 0.0706816 63.6674C0.0706816 63.6674 -0.151285 66.8193 0.0049039 72.2343C0.0377858 73.4276 0.613246 74.5303 1.57504 75.238C5.24959 77.9538 15.7882 84.7513 34.5309 89.4175C35.8872 89.7549 37.3258 89.6314 38.6 89.0554L46.467 85.1875L55.5588 80.2992C55.493 77.3119 53.8161 72.1767 48.7112 72.1767H48.6947Z" fill="#6CF479"/>
<path d="M25.8584 60.8903C25.8173 63.8694 22.4304 65.7786 18.2955 65.1532C14.1606 64.5277 10.8395 61.598 10.8806 58.6189C10.9217 55.6399 14.3086 53.7306 18.4435 54.3561C22.5784 54.9815 25.8995 57.9112 25.8584 60.8903Z" fill="#6CF479"/>
<path d="M89.9614 31.0685C91.0136 34.6154 88.0049 39.1251 83.2371 41.1249C78.4692 43.1247 73.7506 41.8738 72.6984 38.3269C71.6462 34.78 74.6549 30.2702 79.4228 28.2705C84.1906 26.2707 88.9092 27.5215 89.9614 31.0685Z" fill="#6CF479"/>
<path d="M99.941 50.0633C99.941 49.0428 99.4724 48.08 98.6751 47.4463C98.6011 47.3887 98.5106 47.3146 98.4284 47.2488H98.412V49.2238C98.412 49.5201 98.2558 49.7917 97.9927 49.9398L95.9129 51.1084C95.0498 50.6064 94.0222 50.3101 92.781 50.3101C88.3172 50.3101 85.103 53.3303 83.2699 56.976C83.2699 56.976 81.3134 60.5394 80.5736 67.5262C80.5736 67.5262 81.6751 67.3863 82.2505 67.2711C82.678 67.1888 84.3714 67.2053 84.6756 64.5718C84.7989 63.5185 85.0126 62.4487 85.2099 61.601C85.5552 60.1032 86.1142 58.663 86.9691 57.3875C88.5392 55.0503 90.7176 53.4867 92.8632 53.4456C95.6664 53.388 97.5324 55.9556 97.6064 59.5272L97.8366 59.4037C99.0121 58.77 99.6286 57.4122 99.308 56.1202C99.2587 55.9309 99.2094 55.7416 99.1436 55.5441C99.4396 55.1161 99.6368 54.6224 99.7108 54.0875C99.8341 53.1576 99.941 51.8161 99.9492 50.0633H99.941Z" fill="#6CF479"/>
<path d="M92.8633 53.4475C90.0026 53.5051 87.0761 56.2619 85.6293 59.9652C85.4814 60.4754 84.9141 62.5575 84.684 64.582C84.4291 66.7628 83.2207 67.1249 82.5713 67.2318C83.27 68.6144 84.3387 69.5937 85.6787 70.0216L88.4572 70.8528C88.8929 70.968 89.197 70.9598 89.4436 70.9516C92.8797 70.8857 96.4392 66.9109 97.3764 62.0802C98.3217 57.2495 96.2995 53.3816 92.8633 53.4475Z" fill="black"/>
<path d="M95.0334 62.121C94.4416 65.133 92.2302 67.6183 90.0847 67.6595C87.9392 67.7006 86.6732 65.2894 87.2651 62.2774C87.857 59.2654 90.0682 56.7801 92.2138 56.7389C94.3593 56.6978 95.6253 59.109 95.0334 62.121Z" fill="#00482F"/>
<path d="M48.5055 75.9877C46.697 76.0206 44.8556 77.1234 43.3924 78.8845C41.1071 81.6496 40.4412 85.4681 40.2439 87.2703C40.1782 87.9205 39.7672 88.48 39.1753 88.7516C38.6492 88.9985 38.0902 89.2536 37.9833 89.2947C38.6574 90.9324 39.8082 92.0846 41.3044 92.5619L43.9596 93.3766C43.9596 93.3766 44.4364 93.5 45.0776 93.5C48.5137 93.4753 52.0732 89.4594 53.0103 84.6286C53.9556 79.7979 51.9334 75.9301 48.4973 75.9959L48.5055 75.9877Z" fill="black"/>
<path d="M50.6839 84.6621C50.092 87.6741 47.8807 90.1594 45.7351 90.2005C43.5896 90.2417 42.3237 87.8304 42.9155 84.8184C43.5074 81.8064 45.7187 79.3212 47.8643 79.28C50.0098 79.2389 51.2758 81.6501 50.6839 84.6621Z" fill="#00482F"/>
</g>
<defs>
<clipPath id="clip0_15980_17545">
<rect width="100" height="100" fill="white"/>
</clipPath>
</defs>
</svg>
