<svg width="100" height="100" viewBox="0 0 100 100" fill="none" xmlns="http://www.w3.org/2000/svg">
<rect width="100" height="100" fill="#11B67A"/>
<path d="M53.7566 44.5054C55.9882 43.9285 57.5421 41.9258 57.5421 39.6264V7.03157C57.5421 4.99594 55.8726 3.43007 53.9385 3.43007C53.641 3.43007 53.3351 3.47129 53.021 3.54546L7.86031 15.2236C5.62872 15.8005 4.07486 17.8031 4.07486 20.1025V52.6973C4.07486 54.733 5.74441 56.2988 7.67845 56.2988C7.976 56.2988 8.2818 56.2576 8.59587 56.1834L20.9523 52.9858C21.8119 52.7632 53.7566 44.5054 53.7566 44.5054Z" fill="#6CF479"/>
<path d="M4.0003 16.4855C4.83508 15.3069 6.06662 14.4003 7.54608 14.0212L52.7068 2.34313C52.9052 2.29368 53.1118 2.25246 53.3102 2.22774L51.8472 1.21406C51.029 0.670125 49.9958 0.447626 48.9379 0.719594L3.77718 12.3977C2.49608 12.7273 1.45468 13.535 0.785199 14.5899L3.99208 16.4772L4.0003 16.4855Z" fill="black"/>
<path d="M2.83494 20.854V20.0958C2.83494 19.486 2.94239 18.909 3.09943 18.3486L0.0578621 16.552C0.0248015 16.791 0 17.03 0 17.2772V19.181L2.83494 20.854Z" fill="black"/>
<path d="M2.83494 52.6889V26.6049L0 24.9318V49.8704C0 51.0654 0.57856 52.1038 1.4464 52.7549L2.96716 53.8097C2.88451 53.4471 2.83494 53.0763 2.83494 52.6889Z" fill="black"/>
<path d="M29.6139 30.6617C30.1346 30.8595 30.7462 30.9666 31.3991 30.7935C32.0521 30.6205 32.672 30.2001 33.2092 29.7221C34.4242 28.6425 35.3085 27.1591 35.821 25.6262C36.4326 23.7801 36.507 22.2389 36.507 22.2389C36.7384 18.2995 34.3828 16.9562 31.6553 17.6732C28.9196 18.3902 26.4896 20.9698 26.5805 24.835C26.5805 24.835 26.5971 26.3432 27.1426 27.8925C27.5971 29.1782 28.4319 30.2084 29.6221 30.6617H29.6139ZM42.9042 34.9308C42.2347 32.2605 41.0859 31.5023 38.8956 31.2963L34.3581 30.7605C34.2506 30.8594 34.1597 30.9831 34.0523 31.0737C33.1514 31.8814 32.2422 32.4006 31.3661 32.6314C30.4817 32.8621 29.5891 32.8045 28.713 32.4666C28.6055 32.4254 28.5146 32.3594 28.4154 32.3099L23.8117 35.2357C21.5884 36.5955 20.3982 37.9719 19.6213 41.0129L18.6543 45.1172L43.7307 38.5734L42.9125 34.939L42.9042 34.9308Z" fill="black"/>
<path d="M35.9946 10.7004L52.7149 6.54677C53.6241 6.32425 54.5085 7.00825 54.5085 7.94777V24.645C54.5085 24.645 53.9547 8.07965 35.9946 10.7004Z" fill="white"/>
<path d="M8.89336 62.8778C8.89336 62.8778 10.0422 66.6771 14.7037 67.7238C14.7037 67.7238 11.1745 68.3337 11.1001 72.5615C11.1001 72.5615 9.86034 68.8941 5.38889 67.7238C5.38889 67.7238 9.12478 67.2788 8.89336 62.8778Z" fill="white"/>
<path d="M75.3203 1.52746C75.3203 1.52746 77.5023 8.74695 86.3626 10.7414C86.3626 10.7414 79.6512 11.8952 79.519 19.9306C79.519 19.9306 77.1552 12.9666 68.6669 10.7331C68.6669 10.7331 75.7584 9.89251 75.3203 1.52746Z" fill="white"/>
<path d="M48.7397 45.8007L57.5504 35.5732V34.9632L37.7719 48.6358C41.7805 47.5974 45.756 46.5672 48.748 45.8007H48.7397Z" fill="black"/>
<path d="M100 43.3525L89.6686 43.5998L70.5843 32.5891C69.3446 31.8721 67.5262 32.1359 66.5344 33.1661L37.2014 63.9066L21.1009 74.604V80.2246C21.134 80.8592 21.5059 81.4608 22.1836 81.8564L50.5083 98.1992C51.7481 98.9162 53.5664 98.6525 54.5582 97.6223L99.3636 50.6626C99.7934 50.2093 100 49.6901 99.9917 49.1791V43.3607L100 43.3525Z" fill="black"/>
<path d="M54.5582 91.8455C53.5746 92.8756 51.748 93.1394 50.5083 92.4224L22.1836 76.0796C20.9438 75.3626 20.7372 73.9368 21.729 72.8984L66.5344 25.9388C67.5179 24.9086 69.3445 24.6449 70.5843 25.3619L98.9089 41.7046C100.149 42.4216 100.355 43.8474 99.3635 44.8858L54.5582 91.8455Z" fill="#006A4D"/>
<path d="M86.4367 38.9938L81.6264 36.1836C80.9321 35.7798 80.0478 35.9034 79.494 36.4803C79.0973 36.9006 79.1882 37.5763 79.6924 37.8648L84.5027 40.6751C85.1887 41.079 86.0648 40.9636 86.6186 40.3949C87.0235 39.9746 86.9326 39.2823 86.4285 38.9938H86.4367ZM41.4082 76.0061C39.0857 76.0721 37.1599 77.5061 37.1021 79.2038C37.0442 80.9016 38.8708 82.2201 41.1933 82.1542C43.5158 82.0883 45.4416 80.6543 45.4994 78.9565C45.5573 77.2588 43.7307 75.9402 41.4082 76.0061ZM76.9896 33.744C76.1962 33.7688 75.5267 34.2551 75.5102 34.8402C75.4854 35.4254 76.1218 35.8786 76.9153 35.8539C77.7087 35.8292 78.3782 35.3429 78.3947 34.7577C78.4195 34.1726 77.7831 33.7193 76.9896 33.744Z" fill="#024731"/>
<path d="M69.7908 49.0643C67.3692 47.6632 63.9556 47.8115 61.5174 50.6218C61.5174 50.6218 60.5587 51.7097 59.947 53.1931C59.4429 54.4293 59.3768 55.748 59.9305 56.9018C60.1785 57.4127 60.5504 57.9072 61.1289 58.2451C61.7075 58.5748 62.4266 58.7067 63.1209 58.7479C64.6912 58.8221 66.2864 58.3852 67.6419 57.6435C69.2784 56.7534 70.3198 55.715 70.3198 55.715C73.0308 53.0695 72.2125 50.4734 69.7826 49.0724L69.7908 49.0643ZM63.6912 61.1709C63.6912 61.1709 63.3688 60.767 62.7902 60.2313C61.6662 60.1654 60.7157 59.9181 59.9553 59.4813C59.2032 59.0445 58.6164 58.4018 58.2031 57.5859C57.3766 57.3057 56.7897 57.182 56.7897 57.182L52.9052 56.3332C50.5083 55.7645 48.8222 55.9129 46.3757 57.487L43.1358 59.671L64.6747 72.1155L66.3856 69.0497C67.5923 66.7586 67.27 65.4482 65.8732 63.8246L63.6994 61.1709H63.6912Z" fill="#6CF479"/>
</svg>
