<svg width="100" height="100" viewBox="0 0 100 100" fill="none" xmlns="http://www.w3.org/2000/svg">
<rect width="100" height="100" fill="#11B67A"/>
<path d="M53.7566 44.6968C55.9882 44.1199 57.5421 42.1172 57.5421 39.8178V7.22298C57.5421 5.18734 55.8726 3.62148 53.9385 3.62148C53.641 3.62148 53.3351 3.66269 53.021 3.73687L7.86031 15.415C5.62872 15.9919 4.07486 17.9945 4.07486 20.2939V52.8887C4.07486 54.9244 5.74441 56.4902 7.67845 56.4902C7.976 56.4902 8.2818 56.449 8.59587 56.3748L20.9523 53.1772C21.8119 52.9546 53.7566 44.6968 53.7566 44.6968Z" fill="#6CF479"/>
<path d="M4.0003 16.6769C4.83508 15.4983 6.06662 14.5917 7.54608 14.2126L52.7068 2.53454C52.9052 2.48509 53.1118 2.44387 53.3102 2.41915L51.8472 1.40547C51.029 0.861531 49.9958 0.639033 48.9379 0.911L3.77718 12.5891C2.49608 12.9188 1.45468 13.7264 0.785199 14.7813L3.99208 16.6686L4.0003 16.6769Z" fill="black"/>
<path d="M2.83494 21.0454V20.2872C2.83494 19.6774 2.94239 19.1004 3.09943 18.54L0.0578621 16.7434C0.0248015 16.9824 0 17.2214 0 17.4686V19.3724L2.83494 21.0454Z" fill="black"/>
<path d="M2.83494 52.8803V26.7963L0 25.1232V50.0618C0 51.2568 0.57856 52.2952 1.4464 52.9463L2.96716 54.0012C2.88451 53.6385 2.83494 53.2677 2.83494 52.8803Z" fill="black"/>
<path d="M29.6139 30.8531C30.1346 31.0509 30.7462 31.158 31.3991 30.985C32.0521 30.8119 32.672 30.3915 33.2092 29.9135C34.4242 28.8339 35.3085 27.3505 35.821 25.8176C36.4326 23.9715 36.507 22.4303 36.507 22.4303C36.7384 18.4909 34.3828 17.1476 31.6553 17.8646C28.9196 18.5816 26.4896 21.1612 26.5805 25.0264C26.5805 25.0264 26.5971 26.5346 27.1426 28.084C27.5971 29.3696 28.4319 30.3998 29.6221 30.8531H29.6139ZM42.9042 35.1222C42.2347 32.4519 41.0859 31.6937 38.8956 31.4877L34.3581 30.952C34.2506 31.0509 34.1597 31.1745 34.0523 31.2651C33.1514 32.0728 32.2422 32.592 31.3661 32.8228C30.4817 33.0535 29.5891 32.9959 28.713 32.658C28.6055 32.6168 28.5146 32.5508 28.4154 32.5013L23.8117 35.4271C21.5884 36.7869 20.3982 38.1633 19.6213 41.2043L18.6543 45.3086L43.7307 38.7648L42.9125 35.1304L42.9042 35.1222Z" fill="black"/>
<path d="M35.9946 10.8918L52.7149 6.73817C53.6241 6.51565 54.5085 7.19965 54.5085 8.13918V24.8364C54.5085 24.8364 53.9547 8.27106 35.9946 10.8918Z" fill="white"/>
<path d="M8.89336 63.0692C8.89336 63.0692 10.0422 66.8685 14.7037 67.9152C14.7037 67.9152 11.1745 68.5251 11.1001 72.7529C11.1001 72.7529 9.86034 69.0855 5.38889 67.9152C5.38889 67.9152 9.12478 67.4702 8.89336 63.0692Z" fill="white"/>
<path d="M75.3203 1.71886C75.3203 1.71886 77.5023 8.93835 86.3626 10.9328C86.3626 10.9328 79.6512 12.0866 79.519 20.122C79.519 20.122 77.1552 13.158 68.6669 10.9245C68.6669 10.9245 75.7584 10.0839 75.3203 1.71886Z" fill="white"/>
<path d="M48.7397 45.9921L57.5504 35.7646V35.1546L37.7719 48.8272C41.7805 47.7888 45.756 46.7586 48.748 45.9921H48.7397Z" fill="black"/>
<path d="M100 43.5439L89.6686 43.7912L70.5843 32.7805C69.3446 32.0635 67.5262 32.3273 66.5344 33.3575L37.2014 64.098L21.1009 74.7954V80.416C21.134 81.0506 21.5059 81.6522 22.1836 82.0478L50.5083 98.3906C51.7481 99.1077 53.5664 98.8439 54.5582 97.8137L99.3636 50.854C99.7934 50.4007 100 49.8815 99.9917 49.3705V43.5521L100 43.5439Z" fill="black"/>
<path d="M54.5582 92.0369C53.5746 93.067 51.748 93.3308 50.5083 92.6138L22.1836 76.271C20.9438 75.554 20.7372 74.1282 21.729 73.0898L66.5344 26.1302C67.5179 25.1 69.3445 24.8363 70.5843 25.5533L98.9089 41.896C100.149 42.613 100.355 44.0388 99.3635 45.0772L54.5582 92.0369Z" fill="#006A4D"/>
<path d="M86.4367 39.1852L81.6264 36.375C80.9321 35.9712 80.0478 36.0948 79.494 36.6717C79.0973 37.092 79.1882 37.7677 79.6924 38.0562L84.5027 40.8665C85.1887 41.2704 86.0648 41.155 86.6186 40.5863C87.0235 40.166 86.9326 39.4737 86.4285 39.1852H86.4367ZM41.4082 76.1975C39.0857 76.2635 37.1599 77.6975 37.1021 79.3952C37.0442 81.093 38.8708 82.4115 41.1933 82.3456C43.5158 82.2797 45.4416 80.8457 45.4994 79.1479C45.5573 77.4502 43.7307 76.1316 41.4082 76.1975ZM76.9896 33.9355C76.1962 33.9602 75.5267 34.4465 75.5102 35.0316C75.4854 35.6168 76.1218 36.07 76.9153 36.0453C77.7087 36.0206 78.3782 35.5343 78.3947 34.9491C78.4195 34.364 77.7831 33.9107 76.9896 33.9355Z" fill="#024731"/>
<path d="M69.7908 49.2557C67.3692 47.8546 63.9556 48.0029 61.5174 50.8132C61.5174 50.8132 60.5587 51.9011 59.947 53.3845C59.4429 54.6207 59.3768 55.9394 59.9305 57.0932C60.1785 57.6041 60.5504 58.0986 61.1289 58.4365C61.7075 58.7662 62.4266 58.8981 63.1209 58.9393C64.6912 59.0135 66.2864 58.5766 67.6419 57.8349C69.2784 56.9448 70.3198 55.9065 70.3198 55.9065C73.0308 53.261 72.2125 50.6649 69.7826 49.2638L69.7908 49.2557ZM63.6912 61.3623C63.6912 61.3623 63.3688 60.9584 62.7902 60.4227C61.6662 60.3568 60.7157 60.1095 59.9553 59.6727C59.2032 59.2359 58.6164 58.5932 58.2031 57.7773C57.3766 57.4971 56.7897 57.3735 56.7897 57.3735L52.9052 56.5246C50.5083 55.9559 48.8222 56.1043 46.3757 57.6784L43.1358 59.8624L64.6747 72.3069L66.3856 69.2411C67.5923 66.95 67.27 65.6396 65.8732 64.016L63.6994 61.3623H63.6912Z" fill="#6CF479"/>
</svg>
