<svg width="100" height="100" viewBox="0 0 100 100" fill="none" xmlns="http://www.w3.org/2000/svg">
<rect width="100" height="100" fill="#11B67A"/>
<path d="M49.5218 11.1792C65.274 11.1792 78.0437 8.67667 78.0437 5.58961C78.0437 2.50255 65.274 0 49.5218 0C33.7697 0 21 2.50255 21 5.58961C21 8.67667 33.7697 11.1792 49.5218 11.1792Z" fill="#024731"/>
<path d="M49.5218 13.1678C41.7755 13.1678 34.4843 12.5643 28.9739 11.4859C26.273 10.9616 23.038 10.1504 21 8.74554V11.8025C21 14.8892 33.772 17.3921 49.5218 17.3921C65.2717 17.3921 78.0437 14.8892 78.0437 11.8025V8.76533C76.6191 9.72496 74.1953 10.6846 70.0698 11.4958C64.5594 12.5742 57.2583 13.1678 49.5218 13.1678Z" fill="#024731"/>
<path d="M70.0698 94.1037C64.5594 95.1821 57.2583 95.7756 49.5218 95.7756C41.7854 95.7756 34.4843 95.1821 28.9739 94.1037C26.2829 93.5794 23.038 92.778 21 91.3732V94.4104C21 97.497 33.772 100 49.5218 100C65.2717 100 78.0437 97.497 78.0437 94.4104V91.3732C76.6092 92.3328 74.1854 93.2925 70.0698 94.1037Z" fill="#024731"/>
<path d="M40.1331 44.6279C42.1217 47.2693 42.1217 50.9001 40.1331 53.5317C39.4307 54.4616 38.5502 55.4311 37.4917 56.4798C23.4533 70.3698 21.5638 81.361 21.3362 84.8335C22.8004 83.9431 25.1648 83.0725 28.9638 82.3305C34.4743 81.2522 41.7754 80.6586 49.5118 80.6586C57.2482 80.6586 64.5494 81.2522 70.0598 82.3305C72.6024 82.8252 75.6494 83.5771 77.6874 84.8434C77.4599 81.3907 75.5703 70.3895 61.5319 56.4897C60.4734 55.441 59.5929 54.4715 58.8905 53.5416C56.902 50.9001 56.902 47.2495 58.8905 44.618C59.5929 43.688 60.4734 42.7185 61.5319 41.6698C73.5026 29.8278 76.6387 20.0929 77.4401 15.3343C75.9561 16.1753 73.6609 16.9964 70.0598 17.6988C64.5494 18.7771 57.2482 19.3707 49.5118 19.3707C41.7754 19.3707 34.4743 18.7771 28.9638 17.6988C26.5202 17.2239 23.6215 16.5116 21.5835 15.3442C22.3948 20.1127 25.5309 29.8475 37.4917 41.6797C38.5502 42.7284 39.4307 43.6979 40.1331 44.6279Z" fill="#6CF479"/>
<path d="M72.8797 86.5842C66.9932 78.64 60.5231 72.0512 56.5263 68.2522C55.0127 66.8177 52.4306 64.5522 50.4025 63.1474C50.1453 62.9693 49.8386 62.8802 49.522 62.8802C49.1955 62.8802 48.879 62.9792 48.6118 63.1671C46.6035 64.6313 44.0115 66.8177 42.4979 68.2522C38.5011 72.0611 32.031 78.6499 26.1347 86.6039C25.551 87.3954 25.9566 88.5331 26.9162 88.7705C30.181 89.5917 37.5612 91.0262 49.334 91.0262C49.3934 91.0262 49.4528 91.0262 49.5121 91.0262C49.5715 91.0262 49.6309 91.0262 49.6902 91.0262C61.2849 91.0262 68.7839 89.5818 72.108 88.7606C73.0676 88.5232 73.4633 87.3855 72.8797 86.5842Z" fill="#006A4D"/>
<path d="M48.4635 58.5075C48.5327 59.0021 49.0076 59.3583 49.5121 59.3583C50.0167 59.3583 50.4817 59.0021 50.541 58.5075C51.1148 54.1545 52.5295 48.1494 56.7539 43.4798C63.5703 35.9512 66.8647 31.4696 66.8647 31.4696C63.2141 33.6758 56.2889 34.675 49.5023 34.576C42.7156 34.6651 35.7904 33.6659 32.1398 31.4696C32.1398 31.4696 35.4342 35.9512 42.2506 43.4798C46.4848 48.1494 47.8897 54.1446 48.4635 58.5075Z" fill="#006A4D"/>
<path d="M58.7028 38.811C66.3897 30.2535 72.6224 20.1031 72.6224 20.1031C65.3708 22.7149 54.9335 22.2796 54.9335 22.2796C67.844 25.6037 58.7028 38.811 58.7028 38.811Z" fill="white"/>
<path d="M59.1478 58.9735C68.8134 72.3094 63.016 76.5634 63.016 76.5634C66.7853 87.1095 53.8352 88.1779 53.8352 88.1779C65.6278 87.9801 74.4822 85.586 74.4822 85.586C72.1672 70.311 59.1478 58.9636 59.1478 58.9636V58.9735Z" fill="white"/>
<path d="M27.7769 74.6241C36.008 70.3602 37.9866 60.4571 37.9866 60.4571C30.3689 67.1647 27.7769 74.6241 27.7769 74.6241Z" fill="white"/>
<path d="M70.07 11.4854C67.5374 11.9801 64.609 12.3659 61.4531 12.6528V16.8673C65.9248 16.4617 69.7633 15.8384 72.6224 15.0668V10.9018C71.8508 11.0996 71.0098 11.2975 70.07 11.4756V11.4854Z" fill="#6CF479"/>
<path d="M70.0698 94.1037C67.5372 94.5984 64.609 94.9841 61.4531 95.271V99.4855C65.9248 99.0799 69.7633 98.4566 72.6224 97.6849V93.5199C71.8508 93.7178 71.0098 93.9157 70.07 94.0937L70.0698 94.1037Z" fill="#6CF479"/>
</svg>
