<svg width="100" height="100" viewBox="0 0 100 100" fill="none" xmlns="http://www.w3.org/2000/svg">
<g clip-path="url(#clip0_15980_17612)">
<rect width="100" height="100" fill="#11B67A"/>
<path d="M50.0446 59.593C43.6757 59.593 37.9084 62.1638 33.7421 66.3193L33.5475 70.5805H38.0234L50.0446 82.5453L62.0658 70.5805H66.5417L66.3471 66.3193C62.172 62.1638 56.4046 59.593 50.0357 59.593H50.0446Z" fill="black"/>
<path d="M50.0444 44.1137C39.3766 44.1137 29.726 48.4189 22.738 55.3741L22.4195 59.5121C22.4195 59.5121 23.4545 58.8518 25.2855 57.9097L27.9569 60.5686C33.1228 55.427 40.0754 52.0814 47.7976 51.5356C48.5406 51.4915 49.2926 51.4563 50.0533 51.4475C58.6689 51.4475 66.4884 54.9339 72.1496 60.5686L74.8653 57.8657C76.6698 58.8342 77.6782 59.5209 77.6782 59.5209L77.3597 55.383C70.3717 48.4277 60.7211 44.1225 50.0533 44.1225L50.0444 44.1137Z" fill="black"/>
<path d="M42.3753 20.8004C42.5965 20.774 42.8088 20.7388 43.0299 20.7212C43.3749 20.6772 43.7198 20.642 44.0559 20.6155C46.0196 20.4307 48.0188 20.325 50.0356 20.325C59.9427 20.325 69.3103 22.6405 77.6429 26.7344L79.1996 19.3478C78.2 18.8899 77.1917 18.4585 76.1745 18.0448L75.2191 23.6266L73.0431 23.2568L74.078 17.226C66.5858 14.4967 58.492 13 50.0444 13C30.7521 13 13.282 20.7828 0.632746 33.3727L0.0489585 37.2553L4.10022 36.8327L5.85169 38.5759C12.6805 31.7792 21.0927 26.5583 30.469 23.4681C34.5823 22.1651 38.5628 21.3023 42.3841 20.8092L42.3753 20.8004Z" fill="black"/>
<path d="M50.0446 28.5585C35.0601 28.5585 21.4997 34.5981 11.6811 44.3707L11.23 48.3765C11.23 48.3765 12.2826 47.7514 14.1313 46.8094L16.9 49.5651C20.5887 45.8938 24.8965 42.83 29.6378 40.5321C36.1128 38.56 43.7023 37.0545 51.3891 37.3098C58.3595 37.5387 64.923 38.9033 70.5577 40.5937C75.2547 42.8828 79.5182 45.9202 83.1803 49.5651L85.9667 46.7918C87.8154 47.7514 88.8504 48.3765 88.8504 48.3765L88.3992 44.3707C78.5806 34.5981 65.0202 28.5585 50.0357 28.5585H50.0446Z" fill="black"/>
<path d="M99.4563 33.3635C94.9185 28.847 89.7526 24.9644 84.1091 21.8213L82.5257 29.3488L82.4373 29.3312C86.7363 31.9372 90.6991 35.0363 94.2373 38.5579L95.1307 37.6687L100.031 37.2461L99.4474 33.3635H99.4563Z" fill="black"/>
<path d="M0.0489585 37.2455L5.32977 42.5016C16.7849 31.1003 32.6008 24.0394 50.0356 24.0394C67.4703 24.0394 83.2863 31.1003 94.7414 42.5016L100.022 37.2455C87.2315 24.5148 69.549 16.6351 50.0267 16.6351C30.5044 16.6351 12.8309 24.5148 0.03125 37.2455H0.0489585Z" fill="#006A4D"/>
<path d="M22.4106 59.5048L27.6826 64.752C33.4057 59.0558 41.3137 55.5253 50.0355 55.5253C58.7573 55.5253 66.6653 59.0558 72.3884 64.752L77.6604 59.5048C70.5927 52.4703 60.8183 48.1123 50.0355 48.1123C39.2527 48.1123 29.4783 52.4615 22.4106 59.5048ZM33.5384 70.5804L50.0355 87L66.5326 70.5804C62.3133 66.3808 56.4751 63.7748 50.0355 63.7748C43.5959 63.7748 37.7578 66.372 33.5384 70.5804ZM50.0444 32.3793C34.8918 32.3793 21.1634 38.4894 11.2386 48.3764L16.5195 53.6325C25.1086 45.0837 36.9705 39.7836 50.0532 39.7836C63.1359 39.7836 74.9979 45.0837 83.587 53.6325L88.8679 48.3764C78.9342 38.4894 65.2146 32.3793 50.0621 32.3793H50.0444Z" fill="#6CF479"/>
<path d="M8.95657 63.6924C8.95657 63.6924 11.2918 71.4048 20.7743 73.5354C20.7743 73.5354 13.5916 74.7679 13.4501 83.3519C13.4501 83.3519 10.9203 75.9125 1.83579 73.5266C1.83579 73.5266 9.42539 72.6285 8.95657 63.6924Z" fill="white"/>
</g>
<defs>
<clipPath id="clip0_15980_17612">
<rect width="100" height="100" fill="white"/>
</clipPath>
</defs>
</svg>
