<svg width="24" height="24" viewBox="0 0 24 24" fill="none" xmlns="http://www.w3.org/2000/svg">
<path d="M18.9824 15.1954C18.9824 16.6856 20.1895 17.8935 21.6787 17.8936C20.1895 17.8938 18.9824 19.1017 18.9824 20.5919C18.9824 19.1016 17.7754 17.8936 16.2861 17.8936C17.7754 17.8936 18.9824 16.6857 18.9824 15.1954Z" fill="black"/>
<path d="M18.9894 15.9211C19.0584 17.1286 20.5553 17.898 20.7707 17.8967L20.2258 17.8986C19.7886 17.8976 19.633 17.867 19.3732 17.6379C19.2627 17.54 18.9167 17.1089 18.9894 15.9211Z" fill="black"/>
<path d="M17.0088 17.894C18.1973 17.8211 18.6275 18.1686 18.7246 18.2788C18.9218 18.503 18.9716 18.6497 18.9824 18.9663C18.9928 18.6498 19.0428 18.5028 19.2402 18.2788C19.3373 18.1686 19.7688 17.8212 20.957 17.894C19.7504 17.9637 18.9825 19.4605 18.9834 19.6762C18.9843 19.4601 18.2152 17.9629 17.0088 17.894Z" fill="black"/>
<path d="M4.53223 0C4.53223 2.50418 6.56099 4.53509 9.06348 4.53516C6.56111 4.53522 4.53241 6.56532 4.53223 9.06934C4.53204 6.56527 2.50243 4.53516 0 4.53516C2.50254 4.53516 4.53223 2.50422 4.53223 0Z" fill="black"/>
<path d="M4.5445 1.21777C4.66025 3.24667 7.17462 4.54007 7.53687 4.53812C6.04083 4.53813 5.77146 4.61657 5.19004 4.10355C5.00556 3.94059 4.42235 3.21658 4.5445 1.21777Z" fill="black"/>
<path d="M1.21338 4.53603C3.20996 4.41386 3.9339 4.99667 4.09717 5.18153C4.42923 5.55838 4.51393 5.80562 4.53174 6.33778C4.54955 5.80435 4.63327 5.55838 4.96533 5.18153C5.12826 4.99689 5.85214 4.41392 7.84912 4.53603C5.82066 4.65214 4.52994 7.16749 4.53174 7.53017C4.53353 7.16746 3.24078 4.65185 1.21338 4.53603Z" fill="black"/>
<path d="M12.0083 0C12.0083 6.62781 17.3771 12 24.0005 12C17.3771 12 12.0083 17.3722 12.0083 24C12.0083 17.3722 6.63949 12 0.0161133 12C6.63949 12 12.0083 6.62781 12.0083 0ZM12.0083 7.21484C10.8286 9.17386 9.18327 10.8198 7.2251 12C9.18303 13.1801 10.8286 14.8255 12.0083 16.7842C13.1877 14.8259 14.8322 13.18 16.7896 12C14.8319 10.8199 13.1878 9.17341 12.0083 7.21484Z" fill="black"/>
</svg>
