<svg width="24" height="24" viewBox="0 0 24 24" fill="none" xmlns="http://www.w3.org/2000/svg">
<path d="M18.9091 0H4.72727C3.22182 0 2 1.22182 2 2.72727V21.2727C2 22.7782 3.22182 24 4.72727 24H18.9091C20.4145 24 21.6364 22.7782 21.6364 21.2727V2.72727C21.6364 1.22182 20.4145 0 18.9091 0ZM20.2182 21.2727C20.2182 21.9927 19.6291 22.5818 18.9091 22.5818H4.72727C4.00727 22.5818 3.41818 21.9927 3.41818 21.2727V2.72727C3.41818 2.00727 4.00727 1.41819 4.72727 1.41819H18.9091C19.6291 1.41819 20.2182 2.00727 20.2182 2.72727V21.2727Z" fill="black"/>
<path d="M6.36364 15.8182C6.96613 15.8182 7.45455 15.3298 7.45455 14.7273C7.45455 14.1248 6.96613 13.6364 6.36364 13.6364C5.76114 13.6364 5.27273 14.1248 5.27273 14.7273C5.27273 15.3298 5.76114 15.8182 6.36364 15.8182Z" fill="black"/>
<path d="M6.36364 11.4545C6.96613 11.4545 7.45455 10.9661 7.45455 10.3636C7.45455 9.76114 6.96613 9.27273 6.36364 9.27273C5.76114 9.27273 5.27273 9.76114 5.27273 10.3636C5.27273 10.9661 5.76114 11.4545 6.36364 11.4545Z" fill="black"/>
<path d="M6.36364 20.1818C6.96613 20.1818 7.45455 19.6934 7.45455 19.0909C7.45455 18.4884 6.96613 18 6.36364 18C5.76114 18 5.27273 18.4884 5.27273 19.0909C5.27273 19.6934 5.76114 20.1818 6.36364 20.1818Z" fill="black"/>
<path d="M9.99636 15.8182C10.5989 15.8182 11.0873 15.3298 11.0873 14.7273C11.0873 14.1248 10.5989 13.6364 9.99636 13.6364C9.39387 13.6364 8.90545 14.1248 8.90545 14.7273C8.90545 15.3298 9.39387 15.8182 9.99636 15.8182Z" fill="black"/>
<path d="M9.99636 11.4545C10.5989 11.4545 11.0873 10.9661 11.0873 10.3636C11.0873 9.76114 10.5989 9.27273 9.99636 9.27273C9.39387 9.27273 8.90545 9.76114 8.90545 10.3636C8.90545 10.9661 9.39387 11.4545 9.99636 11.4545Z" fill="black"/>
<path d="M9.99636 20.1818C10.5989 20.1818 11.0873 19.6934 11.0873 19.0909C11.0873 18.4884 10.5989 18 9.99636 18C9.39387 18 8.90545 18.4884 8.90545 19.0909C8.90545 19.6934 9.39387 20.1818 9.99636 20.1818Z" fill="black"/>
<path d="M13.64 15.8182C14.2425 15.8182 14.7309 15.3298 14.7309 14.7273C14.7309 14.1248 14.2425 13.6364 13.64 13.6364C13.0375 13.6364 12.5491 14.1248 12.5491 14.7273C12.5491 15.3298 13.0375 15.8182 13.64 15.8182Z" fill="black"/>
<path d="M13.64 11.4545C14.2425 11.4545 14.7309 10.9661 14.7309 10.3636C14.7309 9.76114 14.2425 9.27273 13.64 9.27273C13.0375 9.27273 12.5491 9.76114 12.5491 10.3636C12.5491 10.9661 13.0375 11.4545 13.64 11.4545Z" fill="black"/>
<path d="M13.64 20.1818C14.2425 20.1818 14.7309 19.6934 14.7309 19.0909C14.7309 18.4884 14.2425 18 13.64 18C13.0375 18 12.5491 18.4884 12.5491 19.0909C12.5491 19.6934 13.0375 20.1818 13.64 20.1818Z" fill="black"/>
<path d="M17.2727 13.6364C16.6727 13.6364 16.1818 14.1273 16.1818 14.7273V19.0909C16.1818 19.6909 16.6727 20.1818 17.2727 20.1818C17.8727 20.1818 18.3636 19.6909 18.3636 19.0909V14.7273C18.3636 14.1273 17.8727 13.6364 17.2727 13.6364Z" fill="black"/>
<path d="M17.2727 11.4545C17.8752 11.4545 18.3636 10.9661 18.3636 10.3636C18.3636 9.76114 17.8752 9.27273 17.2727 9.27273C16.6702 9.27273 16.1818 9.76114 16.1818 10.3636C16.1818 10.9661 16.6702 11.4545 17.2727 11.4545Z" fill="black"/>
<path d="M18.3636 4.36364H5.27273V6.54545H18.3636V4.36364Z" fill="black"/>
</svg>
