<svg width="24" height="24" viewBox="0 0 24 24" fill="none" xmlns="http://www.w3.org/2000/svg">
<path d="M21.8182 6.25457H17.6073C17.6073 6.25457 16.6691 3.76727 16.3636 3.09091C16.1236 2.57818 15.6436 2.24004 15.0764 2.17458C14.0836 2.05458 13.0582 2 12 2C10.9418 2 9.91636 2.06549 8.92364 2.17458C8.36727 2.24004 7.87636 2.57818 7.63636 3.09091C7.33091 3.75636 6.39273 6.25457 6.39273 6.25457H2.18182C0.981818 6.25457 0 7.23639 0 8.43639V19.3455C0 20.5455 0.981818 21.5273 2.18182 21.5273H21.8182C23.0182 21.5273 24 20.5455 24 19.3455V8.43639C24 7.23639 23.0182 6.25457 21.8182 6.25457ZM22.5818 19.3455C22.5818 19.7709 22.2436 20.1091 21.8182 20.1091H2.18182C1.75636 20.1091 1.41818 19.7709 1.41818 19.3455V8.43639C1.41818 8.01093 1.75636 7.67281 2.18182 7.67281H7.35273C7.35273 7.67281 8.64 4.31278 8.92364 3.69096C8.94546 3.63642 9.01091 3.59281 9.08727 3.5819C10.0582 3.47281 11.0291 3.40732 12 3.40732C12.9709 3.40732 13.9418 3.4619 14.9127 3.5819C14.9891 3.5819 15.0436 3.62551 15.0764 3.69096C15.36 4.31278 16.6473 7.67281 16.6473 7.67281H21.8182C22.2436 7.67281 22.5818 8.01093 22.5818 8.43639V19.3455Z" fill="black"/>
<path d="M12 7.98908C9.14182 7.98908 6.81818 10.3127 6.81818 13.1709C6.81818 16.0291 9.14182 18.3527 12 18.3527C14.8582 18.3527 17.1818 16.0291 17.1818 13.1709C17.1818 10.3127 14.8582 7.98908 12 7.98908ZM12 16.9346C9.92727 16.9346 8.23636 15.2436 8.23636 13.1709C8.23636 11.0982 9.92727 9.40731 12 9.40731C14.0727 9.40731 15.7636 11.0982 15.7636 13.1709C15.7636 15.2436 14.0727 16.9346 12 16.9346Z" fill="black"/>
<path d="M19.4618 18.3527C20.0643 18.3527 20.5527 17.8643 20.5527 17.2618C20.5527 16.6593 20.0643 16.1709 19.4618 16.1709C18.8593 16.1709 18.3709 16.6593 18.3709 17.2618C18.3709 17.8643 18.8593 18.3527 19.4618 18.3527Z" fill="black"/>
</svg>
