<svg width="24" height="24" viewBox="0 0 24 24" fill="none" xmlns="http://www.w3.org/2000/svg">
<path d="M14.41 5.345C17.03 5.345 19.17 7.47499 19.16 10.145V10.275L19.14 10.505C19.12 10.965 19.42 11.375 19.86 11.495L20.08 11.565C21.64 12.025 22.69 13.415 22.69 15.035C22.69 16.905 21.27 18.455 19.4 18.625L19.1 18.665H4.33L3.96 18.635C2.47 18.535 1.3 17.295 1.3 15.805C1.3 14.405 2.31 13.225 3.7 13.005L3.98 12.955C4.51 12.865 4.88 12.375 4.81 11.845C4.77 11.525 4.74 11.245 4.74 11.215C4.74 9.645 6.02 8.36502 7.59 8.36502C7.91 8.36502 8.23 8.42502 8.57 8.55502L8.82 8.64499C9.29 8.82499 9.83 8.61501 10.06 8.16501L10.18 7.92502C11 6.32502 12.62 5.33499 14.41 5.33499M14.41 4.04501C12.06 4.04501 10.03 5.385 9.02 7.345C8.57 7.175 8.09 7.07498 7.59 7.07498C5.3 7.07498 3.44 8.93501 3.44 11.225C3.44 11.395 3.47 11.565 3.49 11.725C1.51 12.045 0 13.745 0 15.815C0 18.015 1.71 19.795 3.87 19.935V19.965H19.53V19.915C22.03 19.675 24 17.595 24 15.025C24 12.785 22.5 10.915 20.46 10.315C20.46 10.245 20.47 10.165 20.47 10.095C20.47 6.755 17.76 4.035 14.41 4.035V4.04501Z" fill="black"/>
</svg>
