<svg width="24" height="24" viewBox="0 0 24 24" fill="none" xmlns="http://www.w3.org/2000/svg">
<path d="M12 0C5.36727 0 0 5.36727 0 12C0 18.6327 5.36727 24 12 24C18.6327 24 24 18.6327 24 12C24 5.36727 18.6327 0 12 0ZM12 22.5818C6.16364 22.5818 1.41818 17.8364 1.41818 12C1.41818 6.16364 6.16364 1.41817 12 1.41817C17.8364 1.41817 22.5818 6.16364 22.5818 12C22.5818 17.8364 17.8364 22.5818 12 22.5818Z" fill="black"/>
<path d="M9.73091 10.5164C8.96727 11.76 9.41455 13.3745 10.6364 14.0836C11.0291 14.3127 11.4655 14.4109 11.8909 14.4109C12.8073 14.4109 13.7018 13.9309 14.1709 13.0473C14.7491 11.9564 15.2073 9.81816 15.4909 8.43271C15.7527 7.14543 15.9273 5.86911 16.0473 4.59275C15.0109 5.34548 13.9964 6.14182 13.0255 7.02546C11.9782 7.97455 10.3745 9.44728 9.72 10.5055L9.73091 10.5164ZM14.1382 7.94185C14.1273 8.01821 14.1055 8.08362 14.0945 8.15998C13.9091 9.05452 13.4291 11.4109 12.9164 12.3927C12.6764 12.84 12.2291 13.0036 11.8909 13.0036C11.6945 13.0036 11.5091 12.9491 11.3345 12.8618C11.0727 12.7091 10.8764 12.4582 10.8 12.1527C10.7236 11.8473 10.7673 11.5309 10.9309 11.2691C11.5091 10.3309 13.2982 8.71636 13.9745 8.10545C14.0291 8.06181 14.0836 8.00726 14.1382 7.96362V7.94185Z" fill="black"/>
</svg>
