<svg width="24" height="25" viewBox="0 0 24 25" fill="none" xmlns="http://www.w3.org/2000/svg">
<path d="M10 1.30817H3C2.45 1.30817 2 1.75817 2 2.30817V10.3082C2 10.8582 2.45 11.3082 3 11.3082H10C10.55 11.3082 11 10.8582 11 10.3082V2.30817C11 1.75817 10.55 1.30817 10 1.30817ZM9.7 10.0082H3.3V2.60817H9.7V10.0082Z" fill="black"/>
<path d="M21 1.1748H14C13.45 1.1748 13 1.6248 13 2.1748V10.1748C13 10.7248 13.45 11.1748 14 11.1748H21C21.55 11.1748 22 10.7248 22 10.1748V2.1748C22 1.6248 21.55 1.1748 21 1.1748ZM20.7 9.87481H14.3V2.4748H20.7V9.87481Z" fill="black"/>
<path d="M10 13.1748H3C2.45 13.1748 2 13.6248 2 14.1748V22.1748C2 22.7248 2.45 23.1748 3 23.1748H10C10.55 23.1748 11 22.7248 11 22.1748V14.1748C11 13.6248 10.55 13.1748 10 13.1748ZM9.7 21.8748H3.3V14.4748H9.7V21.8748Z" fill="black"/>
<path d="M21 13.1748H14C13.45 13.1748 13 13.6248 13 14.1748V22.1748C13 22.7248 13.45 23.1748 14 23.1748H21C21.55 23.1748 22 22.7248 22 22.1748V14.1748C22 13.6248 21.55 13.1748 21 13.1748ZM20.7 21.8748H14.3V14.4748H20.7V21.8748Z" fill="black"/>
</svg>
