<svg width="24" height="24" viewBox="0 0 24 24" fill="none" xmlns="http://www.w3.org/2000/svg">
<path d="M21.2683 9.13415C21.2683 4.08753 17.1808 0 12.1341 0C7.08753 0 3 4.08753 3 9.13415C3 11.8972 4.23311 14.3635 6.1627 16.0305C7.81826 17.4919 8.70884 19.0789 8.70884 21.8306V22.8582C8.70884 23.4862 9.22264 24 9.85061 24H14.4177C15.0457 24 15.5595 23.4862 15.5595 22.8582V21.8306C15.5595 19.0789 16.45 17.4919 18.1056 16.0305C20.0352 14.3521 21.2683 11.8858 21.2683 9.13415ZM14.0752 22.5156H10.1931V20.6546H14.0752V22.5156ZM17.1351 14.9115L16.1075 15.9277C15.2626 16.8982 14.726 17.9601 14.4177 19.1703H9.85061C9.54234 17.9601 9.0057 16.8982 8.1608 15.9277L7.1332 14.9115C5.4548 13.45 4.4843 11.3492 4.4843 9.13415C4.4843 4.92102 7.92102 1.48436 12.1341 1.48436C16.3473 1.48436 19.784 4.92102 19.784 9.13415C19.784 11.3492 18.8135 13.45 17.1351 14.9115Z" fill="black"/>
<path d="M14.4177 3.44816C14.0866 5.17223 12.7165 6.54236 10.9924 6.87347C12.7165 7.20458 14.0866 8.57471 14.4177 10.2988C14.7488 8.57471 16.1189 7.20458 17.843 6.87347C16.1189 6.54236 14.7488 5.17223 14.4177 3.44816Z" fill="black"/>
</svg>
