<svg width="24" height="25" viewBox="0 0 24 25" fill="none" xmlns="http://www.w3.org/2000/svg">
<path d="M22 3.96985H7.55V5.2699H22V3.96985Z" fill="black"/>
<path d="M3.25 5.84985C3.94036 5.84985 4.5 5.29021 4.5 4.59985C4.5 3.9095 3.94036 3.34985 3.25 3.34985C2.55964 3.34985 2 3.9095 2 4.59985C2 5.29021 2.55964 5.84985 3.25 5.84985Z" fill="black"/>
<path d="M22 12.2198H7.55V13.5199H22V12.2198Z" fill="black"/>
<path d="M3.25 14.0999C3.94036 14.0999 4.5 13.5402 4.5 12.8499C4.5 12.1595 3.94036 11.5999 3.25 11.5999C2.55964 11.5999 2 12.1595 2 12.8499C2 13.5402 2.55964 14.0999 3.25 14.0999Z" fill="black"/>
<path d="M22 20.2198H7.55V21.5199H22V20.2198Z" fill="black"/>
<path d="M3.25 22.0999C3.94036 22.0999 4.5 21.5402 4.5 20.8499C4.5 20.1595 3.94036 19.5999 3.25 19.5999C2.55964 19.5999 2 20.1595 2 20.8499C2 21.5402 2.55964 22.0999 3.25 22.0999Z" fill="black"/>
</svg>
