<svg width="24" height="24" viewBox="0 0 24 24" fill="none" xmlns="http://www.w3.org/2000/svg">
<path d="M19.3526 19.7647C19.3526 21.0918 18.279 22.1646 16.9511 22.1646H4.23779C2.90995 22.1646 1.83637 21.0918 1.83637 19.7647V8.47059C1.83637 7.14353 2.90995 6.07066 4.23779 6.07066H11.3008V4.23529H4.23779C1.907 4.23529 0 6.14118 0 8.47059V19.7647C0 22.0941 1.907 24 4.23779 24H16.9511C19.2819 24 21.1889 22.0941 21.1889 19.7647V12.7059H19.3526V19.7647Z" fill="black"/>
<path d="M15.1006 0C14.5921 0 14.1825 0.409446 14.1825 0.917682C14.1825 1.42592 14.5921 1.83536 15.1006 1.83536H20.8782L11.2301 11.4777L12.5297 12.7765L22.1636 3.14821V8.92228C22.1636 9.43051 22.5733 9.83996 23.0818 9.83996C23.5903 9.83996 24 9.43051 24 8.92228V0.0141314H15.0865L15.1006 0Z" fill="black"/>
</svg>
