<svg width="24" height="24" viewBox="0 0 24 24" fill="none" xmlns="http://www.w3.org/2000/svg">
<path d="M16.3636 7.63636H24V0H16.3636V7.63636ZM17.7818 1.41817H22.5818V6.2182H17.7818V1.41817Z" fill="black"/>
<path d="M21.2727 2.72727H19.0909V4.90909H21.2727V2.72727Z" fill="black"/>
<path d="M24 14.1818H16.3636V21.8182H24V14.1818ZM22.5818 20.4H17.7818V15.6H22.5818V20.4Z" fill="black"/>
<path d="M21.2727 16.9091H19.0909V19.0909H21.2727V16.9091Z" fill="black"/>
<path d="M2.18182 0V7.63636H9.81818V0H2.18182ZM3.6 1.41817H8.4V6.2182H3.6V1.41817Z" fill="black"/>
<path d="M7.09091 2.72727H4.90909V4.90909H7.09091V2.72727Z" fill="black"/>
<path d="M13.9091 0H12.2727V4.36364H13.9091V0Z" fill="black"/>
<path d="M13.9091 17.4545H12.2727V21.8182H13.9091V17.4545Z" fill="black"/>
<path d="M12.2727 11.7273H8.72727V10.0909H12.2727V6.54545H13.9091V10.0909H17.4545V11.7273H13.9091V15.2727H12.2727V11.7273Z" fill="black"/>
<path d="M7.09091 10.1127H2.18182V11.7273H7.09091V10.1127Z" fill="black"/>
<path d="M24 10.0909H19.6364V11.7273H24V10.0909Z" fill="black"/>
<path d="M5.45455 13.0909C2.44364 13.0909 0 15.5345 0 18.5455C0 21.5564 2.44364 24 5.45455 24C8.46546 24 10.9091 21.5564 10.9091 18.5455C10.9091 15.5345 8.46546 13.0909 5.45455 13.0909ZM5.45455 19.8218L2.30182 20.8036C2.70545 19.8436 3.16364 18.8945 3.69818 17.9673C4.23273 17.04 4.82182 16.1782 5.45455 15.3491C6.07636 16.1782 6.67636 17.0509 7.21091 17.9673C7.74545 18.8945 8.20364 19.8436 8.60727 20.8036L5.45455 19.8218Z" fill="black"/>
</svg>
