<svg width="24" height="24" viewBox="0 0 24 24" fill="none" xmlns="http://www.w3.org/2000/svg">
<path d="M12 0C5.36727 0 0 5.36727 0 12C0 18.6327 5.36727 24 12 24C18.6327 24 24 18.6327 24 12C24 5.36727 18.6327 0 12 0ZM12 22.5818C6.16364 22.5818 1.41818 17.8364 1.41818 12C1.41818 6.16364 6.16364 1.41817 12 1.41817C17.8364 1.41817 22.5818 6.16364 22.5818 12C22.5818 17.8364 17.8364 22.5818 12 22.5818Z" fill="black"/>
<path d="M15.5345 6.64367L6.90545 17.4545H8.71636L17.3564 6.64367H15.5345Z" fill="black"/>
<path d="M11.0836 9.19636C11.0836 7.73454 9.89455 6.54545 8.43273 6.54545C6.97091 6.54545 5.78182 7.73454 5.78182 9.19636C5.78182 10.6582 6.97091 11.8473 8.43273 11.8473C9.89455 11.8473 11.0836 10.6582 11.0836 9.19636ZM7.2 9.19636C7.2 8.51999 7.75636 7.96362 8.43273 7.96362C9.10909 7.96362 9.66545 8.51999 9.66545 9.19636C9.66545 9.87272 9.10909 10.4291 8.43273 10.4291C7.75636 10.4291 7.2 9.87272 7.2 9.19636Z" fill="black"/>
<path d="M15.8727 12.1527C14.4109 12.1527 13.2218 13.3418 13.2218 14.8036C13.2218 16.2655 14.4109 17.4545 15.8727 17.4545C17.3345 17.4545 18.5236 16.2655 18.5236 14.8036C18.5236 13.3418 17.3345 12.1527 15.8727 12.1527ZM15.8727 16.0364C15.1964 16.0364 14.64 15.48 14.64 14.8036C14.64 14.1273 15.1964 13.5709 15.8727 13.5709C16.5491 13.5709 17.1055 14.1273 17.1055 14.8036C17.1055 15.48 16.5491 16.0364 15.8727 16.0364Z" fill="black"/>
</svg>
