<svg width="24" height="24" viewBox="0 0 24 24" fill="none" xmlns="http://www.w3.org/2000/svg">
<path d="M22.8182 12C22.8182 10.1891 21.3564 8.72727 19.5455 8.72727H4.27273C2.46182 8.72727 1 10.1891 1 12V19.6364H4.54545L3.18182 24H20.6364L19.2727 19.6364H22.8182V12ZM5.11273 22.5818L6.94545 16.6909H16.8727L18.7055 22.5818H5.11273ZM21.4 18.2182H18.8364L17.92 15.2727H5.89818L4.98182 18.2182H2.41818V12C2.41818 10.9745 3.24727 10.1454 4.27273 10.1454H19.5455C20.5709 10.1454 21.4 10.9745 21.4 12V18.2182Z" fill="black"/>
<path d="M7.87273 1.41817H15.9455V7.09091H17.3636V0H6.45455V7.09091H7.87273V1.41817Z" fill="black"/>
</svg>
