<svg width="24" height="24" viewBox="0 0 24 24" fill="none" xmlns="http://www.w3.org/2000/svg">
<path d="M2.18182 1V12.2152C2.62909 11.9852 3.10909 11.7991 3.6 11.6567V2.4238H10.9091V7.57143L12 6.47619L13.0909 7.57143L14.1818 6.47619L15.2727 7.57143V2.4238H22.5818V19.2905H12.5018C12.4473 19.7833 12.3491 20.2543 12.1964 20.7143H24V1H2.18182Z" fill="black"/>
<path d="M13.0909 11.9524V17.4286H20.7273V11.9524H13.0909ZM19.3091 16.0048H14.5091V13.3762H19.3091V16.0048Z" fill="black"/>
<path d="M5.45455 13.0476C2.44364 13.0476 0 15.501 0 18.5238C0 21.5467 2.44364 24 5.45455 24C8.46546 24 10.9091 21.5467 10.9091 18.5238C10.9091 15.501 8.46546 13.0476 5.45455 13.0476ZM9.17455 19.3452H4.60364L5.54182 20.2871C5.85818 20.6047 5.85818 21.1305 5.54182 21.4481C5.37818 21.6124 5.17091 21.6891 4.96364 21.6891C4.75636 21.6891 4.54909 21.6124 4.38546 21.4481L1.47273 18.5238L4.38546 15.5995C4.70182 15.2819 5.22546 15.2819 5.54182 15.5995C5.85818 15.9171 5.85818 16.4429 5.54182 16.7605L4.60364 17.7024H9.17455V19.3452Z" fill="black"/>
</svg>
