<svg width="24" height="24" viewBox="0 0 24 24" fill="none" xmlns="http://www.w3.org/2000/svg">
<path d="M12.0152 6.03629C8.6788 6.03629 5.97893 8.73616 5.97893 12.0726C5.97893 15.409 8.6788 18.1089 12.0152 18.1089C15.3516 18.1089 18.0515 15.409 18.0515 12.0726C18.0515 8.73616 15.3516 6.03629 12.0152 6.03629ZM12.0152 16.6821C9.469 16.6821 7.40569 14.6188 7.40569 12.0726C7.40569 9.52636 9.469 7.46304 12.0152 7.46304C14.5614 7.46304 16.6248 9.52636 16.6248 12.0726C16.6248 14.6188 14.5614 16.6821 12.0152 16.6821Z" fill="black"/>
<path d="M24 10.58L23.7805 9.3398C23.7037 8.91177 23.4073 8.53862 23.0013 8.38497L21.0477 7.6167C20.9819 7.59475 20.927 7.53986 20.8941 7.46304C20.7514 7.18866 20.5977 6.92528 20.4331 6.66188C20.3892 6.59603 20.3673 6.5192 20.3782 6.45335L20.6855 4.36806C20.7514 3.92905 20.5868 3.50104 20.2465 3.21569L19.2807 2.41453C18.9515 2.12918 18.4795 2.04135 18.0625 2.18403L16.065 2.85356C15.9772 2.87551 15.9004 2.85355 15.8455 2.84257C15.5602 2.72185 15.2748 2.62303 14.9785 2.52425C14.9236 2.5023 14.8468 2.46939 14.8029 2.40354L13.7054 0.603616C13.4749 0.230463 13.0688 0 12.6298 0H11.3787C10.9397 0 10.5336 0.230463 10.3031 0.603616L9.2056 2.40354C9.17268 2.45842 9.10683 2.50231 9.03 2.53524C8.73367 2.62304 8.44832 2.73283 8.16297 2.85356C8.08615 2.88648 8.00932 2.88643 7.95444 2.86448L5.95698 2.19501C5.53993 2.05234 5.08995 2.14016 4.74972 2.42551L3.78392 3.23766C3.44369 3.52301 3.27906 3.95103 3.34491 4.39003L3.65222 6.46433C3.66319 6.55213 3.63027 6.62896 3.59734 6.67286C3.43272 6.92529 3.27906 7.19964 3.13639 7.47402C3.11444 7.5289 3.05956 7.59476 2.98274 7.62769L1.0182 8.39596C0.612122 8.56058 0.315795 8.91178 0.23897 9.35078L0.0194683 10.591C-0.0573572 11.019 0.0962938 11.469 0.425546 11.7543L2.00596 13.1481C2.07181 13.203 2.09376 13.3018 2.10473 13.3457C2.14863 13.653 2.20351 13.9603 2.26936 14.2456C2.28033 14.3005 2.29131 14.3883 2.24741 14.4651L1.2377 16.3089C1.02917 16.6931 1.02917 17.154 1.25965 17.5381L1.88523 18.6247C2.10473 19.0089 2.51081 19.2503 2.94981 19.2612L5.04605 19.3162C5.13385 19.3162 5.1997 19.36 5.2436 19.4039C5.47408 19.6124 5.71553 19.81 5.95698 19.9966C6.02283 20.0515 6.06673 20.1063 6.07771 20.1722L6.49476 22.2355C6.58256 22.6635 6.87889 23.0147 7.29594 23.1684L8.48125 23.5964C8.88733 23.7501 9.35925 23.6732 9.69948 23.3989L11.3457 22.0928C11.4006 22.0489 11.4555 22.016 11.5433 22.027C11.8286 22.027 12.2018 22.027 12.4871 22.027C12.564 22.027 12.6298 22.0489 12.6847 22.0928L14.331 23.3989C14.5614 23.5854 14.8358 23.6732 15.1102 23.6732C15.2529 23.6732 15.4065 23.6513 15.5492 23.5964L16.7235 23.1684C17.1406 23.0147 17.4369 22.6635 17.5247 22.2355L17.9418 20.1832C17.9637 20.0954 18.0186 20.0405 18.0625 19.9966C18.3149 19.81 18.5454 19.6124 18.7759 19.4039C18.8417 19.349 18.9076 19.3162 18.9734 19.3162L21.0806 19.2612C21.5196 19.2503 21.9147 19.0088 22.1342 18.6356L22.7598 17.5491C22.9793 17.176 22.9793 16.7041 22.7708 16.3199L21.7611 14.4761C21.7172 14.3993 21.7282 14.3115 21.7391 14.2566C21.805 13.9603 21.8599 13.653 21.9038 13.3457C21.9038 13.2579 21.9477 13.192 22.0025 13.1481L23.572 11.7543C23.9012 11.458 24.0549 11.03 23.978 10.591L24 10.58ZM21.0697 12.0616C20.7624 12.336 20.5648 12.7201 20.5099 13.1481C20.477 13.4115 20.4331 13.664 20.3673 13.9164C20.2685 14.3334 20.3234 14.7614 20.5319 15.1346L21.4977 16.9016L20.9599 17.8345L18.9515 17.8894C18.5454 17.8894 18.1393 18.065 17.832 18.3504C17.6345 18.526 17.4259 18.7015 17.2174 18.8552C16.8772 19.1076 16.6357 19.4807 16.5589 19.8868L16.1638 21.8514L15.1541 22.2135L13.5847 20.9624C13.2774 20.721 12.8932 20.5783 12.5091 20.5783C12.4981 20.5783 12.4871 20.5783 12.4762 20.5783C12.2018 20.5783 11.8506 20.5783 11.5872 20.5783C11.225 20.5783 10.786 20.71 10.4677 20.9624L8.8983 22.2135L7.88859 21.8514L7.49349 19.8758C7.40569 19.4698 7.17521 19.1076 6.83499 18.8442C6.62646 18.6796 6.41793 18.515 6.22038 18.3394C5.90211 18.054 5.507 17.8893 5.08995 17.8784L3.09249 17.8235L2.55471 16.8906L3.52052 15.1237C3.71807 14.7615 3.77294 14.3334 3.68514 13.9054C3.63027 13.653 3.57539 13.3896 3.54247 13.1262C3.48759 12.6982 3.29004 12.3141 2.98274 12.0397L1.47915 10.7117L1.66573 9.65805L3.54247 8.92274C3.92659 8.76909 4.24487 8.47276 4.44242 8.09961C4.56315 7.86913 4.69485 7.63866 4.83752 7.41916C5.068 7.05698 5.1558 6.62892 5.10093 6.22285L4.8046 4.23636L5.62773 3.54493L7.53739 4.1815C7.93249 4.3132 8.34955 4.29126 8.75562 4.12664C8.99708 4.02786 9.23853 3.94007 9.49095 3.86325C9.89703 3.73155 10.2482 3.46815 10.4568 3.11695L11.5104 1.40484H12.5859L13.6395 3.12794C13.859 3.47914 14.1993 3.74253 14.6053 3.87423C14.8578 3.95106 15.0992 4.03886 15.3407 4.14861C15.7358 4.31324 16.1638 4.33517 16.5589 4.20347L18.4686 3.5669L19.2917 4.25833L18.9954 6.24482C18.9295 6.6509 19.0283 7.06797 19.2588 7.43014C19.4014 7.64965 19.5331 7.88012 19.6539 8.11059C19.8514 8.49472 20.1697 8.79105 20.5538 8.93372L22.4306 9.66903L22.6171 10.7227L21.1136 12.0506L21.0697 12.0616Z" fill="black"/>
</svg>
