<svg width="24" height="24" viewBox="0 0 24 24" fill="none" xmlns="http://www.w3.org/2000/svg">
<path d="M21.6364 20.7273V2.18182H7.68364C7.36727 0.927273 6.24364 0 4.89091 0C3.29818 0 2 1.29821 2 2.89094V20.8582C2 22.5927 3.40727 24 5.14182 24H21.6364V22.5818H5.14182C4.19273 22.5818 3.41818 21.8073 3.41818 20.8582V20.6073C3.41818 19.8 4.08364 19.1346 4.89091 19.1346C5.69818 19.1346 6.36364 19.8 6.36364 20.6073V20.7164H21.6364V20.7273ZM20.2182 19.309H7.78182V3.60005H20.2182V19.309ZM4.89091 17.7273C4.35636 17.7273 3.85455 17.88 3.41818 18.1418V2.89094C3.41818 2.08366 4.08364 1.41824 4.89091 1.41824C5.69818 1.41824 6.36364 2.08366 6.36364 2.89094V18.1418C5.92727 17.88 5.43636 17.7273 4.89091 17.7273Z" fill="black"/>
<path d="M18.3636 16.0363H9.63636V17.4545H18.3636V16.0363Z" fill="black"/>
<path d="M18.3636 12.7636H9.63636V14.1818H18.3636V12.7636Z" fill="black"/>
<path d="M18.3636 9.49086H9.63636V10.9091H18.3636V9.49086Z" fill="black"/>
<path d="M18.3636 5.45455H9.63636V6.87278H18.3636V5.45455Z" fill="black"/>
</svg>
