<svg width="24" height="24" viewBox="0 0 24 24" fill="none" xmlns="http://www.w3.org/2000/svg">
<path d="M22.3218 19.9662C19.619 17.3345 18.0034 15.0787 18.0034 15.0787C18.6435 15.16 19.2329 15.1905 19.7409 15.1905C20.9094 15.1905 21.6511 15.0482 21.6511 15.0482C19.1617 12.6299 17.0076 9.61215 17.0076 9.61215C17.7799 9.71376 18.6435 9.74425 19.2837 9.74425C19.8628 9.74425 20.2693 9.72391 20.2693 9.72391C16.1338 4.88733 12.1609 0 12.1609 0C12.1609 0 8.19814 4.88733 4.0525 9.72391C4.0525 9.72391 4.45893 9.74425 5.0381 9.74425C5.67824 9.74425 6.54191 9.72392 7.31414 9.61215C7.31414 9.61215 5.14987 12.6401 2.67062 15.0482C2.67062 15.0482 3.41236 15.1905 4.58086 15.1905C5.08891 15.1905 5.67824 15.16 6.31838 15.0787C6.31838 15.0787 4.7028 17.3345 2 19.9662C2 19.9662 3.53429 20.3624 5.81033 20.3624C7.42591 20.3624 9.4276 20.1592 11.5106 19.4683V24H12.8315V19.4683C14.9145 20.1592 16.906 20.3624 18.5216 20.3624C20.7976 20.3624 22.3319 19.9662 22.3319 19.9662H22.3218ZM11.5004 15.8713V18.0661C9.73243 18.7062 7.82219 19.0415 5.80017 19.0415C5.43438 19.0415 5.07875 19.0313 4.7536 19.011C6.3895 17.2328 7.3243 15.9221 7.37511 15.8408L9.12278 13.3921L6.13548 13.768C5.96274 13.7884 5.79001 13.8086 5.61727 13.8188C7.18205 12.0305 8.30991 10.4555 8.38103 10.3641L10.1592 7.87468L7.13125 8.28114C7.08044 8.28114 7.02964 8.29132 6.96867 8.30149C9.10246 5.77143 11.033 3.43441 12.1507 2.06269C13.2684 3.43441 15.199 5.77143 17.3328 8.30149C17.282 8.30149 17.221 8.2913 17.1702 8.28114L14.1423 7.87468L15.9204 10.3641C15.9814 10.4555 17.1092 12.0305 18.6842 13.8188C18.5114 13.8086 18.3387 13.7884 18.166 13.768L15.1787 13.3921L16.9263 15.8408C16.9771 15.9119 17.9221 17.2227 19.5478 19.011C19.2227 19.0313 18.8772 19.0415 18.5013 19.0415C16.4894 19.0415 14.5792 18.7062 12.8112 18.0661V15.8713H11.4903H11.5004Z" fill="black"/>
</svg>
