<svg width="24" height="24" viewBox="0 0 24 24" fill="none" xmlns="http://www.w3.org/2000/svg">
<path d="M23.2891 1H21.4078C20.8609 1 20.3688 1.36093 20.2047 1.88593L19.1109 5.37499H0.550034C0.178159 5.37499 -0.0843405 5.73596 0.0250343 6.08596L2.72659 14.7812C3.01097 15.7 3.85315 16.3234 4.81565 16.3234H15.6984L15.0203 18.5109H2.94534C1.40316 18.5109 0.0359718 19.7031 0.0359718 21.2453C0.0359718 22.9844 1.65472 24.3406 3.4594 23.8921C4.32347 23.6843 5.0344 23.0062 5.34065 22.164C5.6469 21.3218 5.50471 20.5562 5.15471 19.9218H15.2281C14.8781 20.5453 14.7469 21.3109 15.0313 22.1312C15.3375 23.0172 16.1031 23.7172 17.0219 23.9031C18.9906 24.3078 20.6859 22.6124 20.2813 20.6546C20.0953 19.7468 19.4172 18.9921 18.5531 18.6749C17.7656 18.3906 17.0438 18.489 16.4313 18.7844L21.5281 2.43281H23.2891C23.6828 2.43281 24 2.11559 24 1.72184C24 1.3281 23.6828 1.01095 23.2891 1.01095V1ZM2.77034 22.5469C2.04847 22.5469 1.45784 21.9562 1.45784 21.2343C1.45784 20.5125 2.04847 19.9218 2.77034 19.9218C3.49222 19.9218 4.08284 20.5125 4.08284 21.2343C4.08284 21.9562 3.49222 22.5469 2.77034 22.5469ZM1.74222 6.79685H18.6625L16.1469 14.8906H5.06721C4.58597 14.8906 4.17034 14.5844 4.02815 14.125L1.74222 6.79685ZM17.6125 19.9218C18.3344 19.9218 18.925 20.5125 18.925 21.2343C18.925 21.9562 18.3344 22.5469 17.6125 22.5469C16.8906 22.5469 16.3 21.9562 16.3 21.2343C16.3 20.5125 16.8906 19.9218 17.6125 19.9218Z" fill="black"/>
</svg>
