<svg width="24" height="24" viewBox="0 0 24 24" fill="none" xmlns="http://www.w3.org/2000/svg">
<path d="M12.76 5.03C12.51 5 12.26 4.97 12 4.97C11.74 4.97 11.49 4.99 11.24 5.03C6.53 5.3 2.43 8.01 0 12C2.56 16.21 6.97 19 12 19C17.03 19 21.44 16.21 24 12C21.57 8 17.47 5.29 12.76 5.03ZM16.45 10.72C16.45 13.17 14.45 15.17 12 15.17C9.55 15.17 7.55 13.17 7.55 10.72C7.55 8.54 9.13 6.73001 11.2 6.35001C11.47 6.33001 11.73 6.29999 12 6.29999C12.27 6.29999 12.53 6.33001 12.8 6.35001C14.87 6.73001 16.45 8.54 16.45 10.72ZM12 17.7C7.86 17.7 4.01 15.58 1.55 12C3.08 9.78 5.14 8.11999 7.48 7.17999C6.72 8.15999 6.26 9.38 6.26 10.72C6.26 13.9 8.83 16.47 12.01 16.47C15.19 16.47 17.76 13.9 17.76 10.72C17.76 9.38 17.3 8.15999 16.54 7.17999C18.88 8.11999 20.94 9.77 22.47 12C20.01 15.58 16.16 17.7 12.02 17.7H12Z" fill="black"/>
</svg>
