<svg width="100" height="100" viewBox="0 0 100 100" fill="none" xmlns="http://www.w3.org/2000/svg">
<g clip-path="url(#clip0_15980_12752)">
<rect width="100" height="100" fill="#024731"/>
<path d="M31.1299 47.3078C29.9276 46.3139 28.6368 45.5487 27.293 44.9946L26.2144 45.1969C24.2606 45.5663 22.4217 44.1327 22.3244 42.1537L22.3067 41.7667H22.289L21.6437 28.6441C21.5287 26.8498 20.3618 26.4189 20.0523 26.3309C20.0258 26.3309 19.9993 26.3221 19.9727 26.3133L0.752644 20.57C0.363645 20.482 0.0542157 20.2621 0.0365339 19.9983H0.00998533L0.628858 35.0559C0.74379 37.2195 2.17604 39.1017 4.24481 39.7878L18.1515 44.4229C8.10826 47.0703 0.107276 59.8324 0.107276 73.5531C0.107276 81.8823 2.96288 89.0153 7.94914 93.1227C10.6633 95.3568 13.7753 96.5001 17.0729 96.5001C17.9924 96.5001 18.9295 96.4122 19.8755 96.2363C30.4138 94.2397 38.9806 81.0643 38.9806 66.8599C38.9806 58.5307 36.125 51.3977 31.1388 47.2902L31.1299 47.3078ZM19.2036 92.7973C15.9413 93.413 12.8205 92.595 10.1947 90.4314C6.08369 87.0452 3.63478 80.7477 3.63478 73.5707C3.63478 60.9757 10.9197 49.3483 19.8666 47.6508C20.5739 47.5189 21.2724 47.4485 21.9708 47.4485C24.4639 47.4485 26.8244 48.3193 28.8844 50.0168C32.9954 53.403 35.4443 59.7004 35.4443 66.8774C35.4443 79.4723 28.1594 91.0998 19.2124 92.7973H19.2036Z" fill="black"/>
<path d="M42.4021 44.2108C45.8589 48.7316 49.9434 53.3931 55.4689 53.3931C55.6546 53.3931 55.8491 53.3931 56.0436 53.3755L54.9296 57.5093L58.7843 56.7793L65.0524 33.454C65.0524 33.454 62.2145 32.8032 60.1811 37.9572L57.0337 49.6814C53.3206 50.5434 50.076 48.4501 45.2135 42.0822C40.7577 36.2597 33.9856 25.2392 33.9149 25.1337C33.4021 24.3069 32.3147 24.043 31.4836 24.5531C30.6526 25.0633 30.3873 26.1451 30.9001 26.9718C31.183 27.4292 37.8402 38.2475 42.4021 44.2195V44.2108Z" fill="#11B67A"/>
<path d="M50.6683 59.3309C43.1536 50.6059 32.845 35.1261 32.7213 34.9414C32.182 34.1322 31.0857 33.9123 30.2724 34.44C29.459 34.9765 29.238 36.0672 29.7684 36.8764C30.2724 37.6415 41.0671 53.8337 48.7764 62.5235C49.2007 61.2658 49.8549 60.1576 50.6595 59.3221L50.6683 59.3309Z" fill="#11B67A"/>
<path d="M78.411 84.4864C75.1575 84.4864 72.0898 83.3606 69.4198 81.1618C64.5043 77.1159 61.6929 70.0884 61.6929 61.8824C61.6929 47.889 70.1359 34.9071 80.524 32.9369C84.7941 32.1278 88.861 33.1832 92.2736 35.9977C97.1891 40.0436 100 47.071 100 55.2771C100 69.2705 91.5574 82.2524 81.1694 84.2226C80.2411 84.3985 79.3128 84.4864 78.411 84.4864ZM83.2381 36.1472C82.5574 36.1472 81.8678 36.2088 81.1694 36.3495C72.3462 38.0206 65.1762 49.481 65.1762 61.8912C65.1762 68.9626 67.5898 75.1722 71.6389 78.4968C74.2293 80.6341 77.2971 81.4344 80.5151 80.8275C89.3383 79.1564 96.5083 67.6961 96.5083 55.2859C96.5083 48.2144 94.0948 42.0049 90.0456 38.6803C88.0122 37.0092 85.6959 36.156 83.2381 36.156V36.1472Z" fill="black"/>
<path d="M62.8775 14.2547C62.7007 13.208 61.6663 12.5747 60.6761 12.8386L51.5788 15.2837C50.6682 15.4332 42.4197 16.6206 32.6063 13.7269C28.5571 12.5307 26.5414 11.2202 25.5336 10.2527C25.0473 9.78659 25.2684 8.97744 25.9138 8.79274L32.2085 6.9721C33.1014 6.71703 33.7202 5.8463 33.5523 4.94037C33.3578 3.90252 32.3146 3.28685 31.3155 3.5683L23.6858 5.76714C22.2359 6.18932 21.1662 7.48222 21.122 9.10936C21.1043 9.68106 21.2634 10.2528 21.5287 10.7629C22.8194 13.2959 26.0198 15.3717 31.0415 16.9284C31.846 17.1835 32.3323 18.0014 32.1554 18.8282L25.6309 48.8907C25.6132 49.0226 23.3676 62.1365 19.6897 68.2317C19.2654 68.9265 19.3538 69.85 19.9462 70.4129C20.3086 70.7559 20.7507 70.923 21.1927 70.923C21.7939 70.923 22.3774 70.6152 22.7045 70.0699C26.7448 63.4118 29.0258 50.0341 29.1053 49.5503L35.6122 19.8221C35.8155 18.9074 36.6996 18.3093 37.6191 18.4588C40.8283 18.9865 43.7193 19.1536 46.071 19.1536C49.4217 19.1536 51.6673 18.8282 52.1358 18.7491C52.2596 18.7315 52.3657 18.7051 52.4806 18.6787L61.4895 16.26C62.3824 16.0225 63.0278 15.1606 62.8775 14.2459V14.2547Z" fill="#11B67A"/>
<path d="M50.7212 66.7445C50.7212 62.9449 52.9579 59.4356 55.7251 58.9166L81.2311 54.0792C81.6112 54.0088 81.9649 54.044 82.3008 54.1408V54.1056L79.9049 53.3492C79.1623 53.1117 78.3755 53.0677 77.6152 53.2085L53.2762 57.826C50.509 58.3537 48.2723 61.8543 48.2723 65.6538C48.2723 68.5035 49.5189 70.6672 51.2782 71.3972L53.7536 72.5142H53.7713C51.9943 71.8018 50.7212 69.6206 50.7212 66.7445Z" fill="black"/>
<path d="M75.9623 23.1903C75.1666 22.7769 74.256 22.3459 73.1951 21.871C70.366 20.6045 68.0054 20.0767 66.2638 19.8744C64.584 19.6809 62.8777 19.8833 61.2687 20.411L58.6076 21.2729C57.5997 21.5983 57.2284 22.8033 57.8473 23.6652C57.9445 23.8059 58.0329 23.9467 58.1037 24.0962C58.3866 24.7207 58.0594 25.4595 57.414 25.6794C56.5299 25.9784 55.4249 26.1807 54.6203 26.5765C53.0113 27.3769 53.3295 28.9512 53.3295 28.9512C53.3295 29.9363 55.2127 30.8774 57.5202 30.7367C60.6764 30.5432 63.6204 27.9486 70.7727 29.4614C72.1872 29.7604 73.6459 29.7252 75.0516 29.3822L75.2196 29.3382C78.199 28.6082 78.6941 24.5887 75.9711 23.1815L75.9623 23.1903Z" fill="#6CF479"/>
<path d="M11.008 57.7564C11.008 57.7564 4.29781 67.5544 6.99428 81.1256C6.99428 81.1256 7.14457 73.1395 11.0788 75.3207C15.013 77.502 18.1515 81.196 23.5532 77.2117C23.5532 77.2117 14.3764 78.7333 14.288 67.2729C14.2173 57.8355 11.008 57.7652 11.008 57.7652V57.7564Z" fill="white"/>
<path d="M81.1783 66.3214C81.1783 66.3214 85.1213 65.6705 86.7215 61.2377C86.7215 61.2377 88.1095 63.4893 86.7923 66.682C86.7923 66.682 91.4602 65.8816 93.9445 58.2649C93.9445 58.2649 94.1921 69.1359 84.3168 77.1309C84.3168 77.1309 87.3846 69.2414 81.1783 66.3214Z" fill="white"/>
<path d="M41.8097 22.681L21.8735 16.19C21.0247 15.9173 20.1229 15.8558 19.2477 16.0229L0.504996 19.5235C0.504996 19.5235 0.124848 19.5674 0.0187577 19.884C-0.087333 20.2095 0.283982 20.4821 0.734868 20.5877L19.955 26.331C19.955 26.331 20.008 26.3399 20.0345 26.3487C20.344 26.4278 21.5287 26.8588 21.6347 28.6882L22.3244 42.1627C22.4305 44.1416 24.2605 45.5752 26.2143 45.2058L36.0454 43.3412C38.2733 42.919 39.9884 41.1248 40.3067 38.8908L42.2959 23.1471C42.3401 22.8217 41.8097 22.6898 41.8097 22.6898V22.681Z" fill="#6CF479"/>
<path d="M81.2311 54.0801L55.7251 58.9176C52.9579 59.4453 50.7212 62.9459 50.7212 66.7455C50.7212 70.1405 52.4894 72.5592 54.7703 72.7351L54.7261 66.1298L56.3529 65.5757L57.9 71.9347L81.6643 63.1218C83.3176 62.5061 84.5553 60.3336 84.5553 58.0292C84.5553 55.4962 83.0612 53.7283 81.2223 54.0801H81.2311Z" fill="#6CF479"/>
<path d="M57.9442 64.6442C57.8204 63.8526 57.3165 63.281 56.6358 63.281C55.7517 63.281 54.9206 64.2045 54.7615 65.3654C54.6907 65.8756 54.7792 66.3417 54.9648 66.7111L59.1908 75.6296L60.6053 74.9964L57.9442 64.6354V64.6442Z" fill="white"/>
<path d="M62.3561 74.1321C62.1704 74.0617 61.9583 74.0617 61.7726 74.1321L57.8207 75.5041C57.3168 75.6712 56.9543 76.2078 56.9543 76.8587C56.9543 77.5095 57.2902 77.9932 57.7499 78.1867L63.3374 80.0777C63.6115 80.1745 63.9121 80.1657 64.1861 80.0601L67.5103 78.7584C67.8463 78.6265 68.0673 78.3011 68.0673 77.9405V76.7795C68.0673 76.4101 67.8286 76.0758 67.4749 75.9527L62.3649 74.1497L62.3561 74.1321Z" fill="#11B67A"/>
<path d="M63.6466 80.132C63.5229 80.1144 63.4256 80.044 63.3549 79.9649C63.1692 79.745 63.1604 79.4636 63.1958 79.2525C63.2311 79.0414 63.1162 78.8127 62.904 78.7423L57.8116 77.0448C57.5552 76.9569 57.3785 76.8778 57.2458 76.5347C57.1309 76.2269 57.2723 75.9014 57.3077 75.8487C57.0778 76.1037 56.9452 76.4556 56.9452 76.8602C56.9452 77.4758 57.2812 77.9947 57.7409 78.1882L63.3283 80.0792C63.4344 80.1144 63.5405 80.132 63.6378 80.1408L63.6466 80.132Z" fill="black"/>
<path d="M2.69765 20.1728L20.5651 16.8306L38.3264 22.6706L21.511 25.793L2.69765 20.1728Z" fill="#00482F"/>
</g>
<defs>
<clipPath id="clip0_15980_12752">
<rect width="100" height="100" fill="white"/>
</clipPath>
</defs>
</svg>
