<svg width="100" height="100" viewBox="0 0 100 100" fill="none" xmlns="http://www.w3.org/2000/svg">
<rect width="100" height="100" fill="#024731"/>
<path d="M7.18679 52.8296C7.18679 52.8296 8.73327 57.9552 15.0076 59.378C15.0076 59.378 10.2533 60.1998 10.1561 65.9086C10.1561 65.9086 8.48588 60.9598 2.46777 59.378C2.46777 59.378 7.49609 58.7859 7.18679 52.8385V52.8296Z" fill="white"/>
<path d="M57.4258 28.9762L11.7554 76.9443L51.178 99.753C51.9026 100.177 52.8217 100.045 53.3961 99.4349L97.2814 53.3314C97.6879 52.9072 97.5907 52.2179 97.0781 51.9175L57.4169 28.9762H57.4258Z" fill="black"/>
<path d="M95.6819 36.799L57.4258 28.9693L11.7554 76.9374L50.6301 84.8908C51.2398 85.0146 51.8761 84.8202 52.3092 84.3606L79.2448 56.0729L85.422 55.4808C86.2792 55.4013 87.0744 55.0124 87.6754 54.4027L94.7451 47.1385C95.2753 46.5906 95.4079 45.7687 95.0809 45.0883L93.2782 41.3502L96.1591 38.319C96.654 37.8065 96.38 36.9493 95.6819 36.8079V36.799Z" fill="#11B67A"/>
<path d="M80.438 6.16875C80.438 6.16875 82.8328 14.1134 92.5537 16.3138C92.5537 16.3138 85.1924 17.5864 85.0421 26.4235C85.0421 26.4235 82.4529 18.7617 73.1297 16.305C73.1297 16.305 80.9152 15.3771 80.438 6.16875Z" fill="white"/>
<path d="M82.5589 64.5913C79.4659 60.2258 75.7101 56.5142 71.7334 53.81C76.1078 58.8472 77.6719 64.6179 75.8515 69.0364C82.877 76.2034 83.7519 85.5001 77.5482 90.5196C74.0222 93.374 68.9143 94.2488 63.6297 93.3563C68.8083 95.5567 74.1548 95.9367 78.5999 93.9837C88.0557 89.8214 90.3887 75.6201 82.5501 64.5913H82.5589Z" fill="white"/>
<path d="M49.2604 61.578C49.2604 61.578 49.6051 64.0171 49.9585 66.1115C49.9585 66.1115 34.9795 66.8096 23.0582 64.998L31.6303 55.9399L49.2604 61.5868V61.578Z" fill="black"/>
<path d="M30.3753 0C39.5924 13.9362 62.5249 16.3046 62.5249 16.3046C43.1892 34.5179 51.505 62.6201 51.505 62.6201C51.505 62.6201 10.1382 58.122 18.6837 41.7114L23.2613 34.2882L23.5176 24.6733L25.8241 6.15066L28.3074 2.13859L29.6595 0.645113L30.3753 0Z" fill="#6CF479"/>
<path d="M17.7296 44.0621C17.7296 44.0621 19.5146 35.87 31.3918 34.1733C31.3918 34.1733 19.0461 11.1702 30.3753 0C30.3753 0 21.3528 5.83253 21.3262 26.6971C21.3174 36.0733 17.7296 44.0621 17.7296 44.0621Z" fill="black"/>
</svg>
