<svg width="100" height="100" viewBox="0 0 100 100" fill="none" xmlns="http://www.w3.org/2000/svg">
<g clip-path="url(#clip0_15980_12785)">
<rect width="100" height="100" fill="#024731"/>
<path d="M98.0732 27.0665L85.2247 27.3768L61.4868 13.6224C59.9468 12.728 57.6778 13.0566 56.4567 14.3435L19.9705 52.7499L-0.0585938 66.1118V73.1304C-0.0130316 73.9245 0.451712 74.6821 1.29006 75.1658L36.5278 95.5829C38.0678 96.4773 40.3368 96.1487 41.5579 94.8618L97.2986 36.1844C97.8363 35.6185 98.0914 34.9613 98.0823 34.3316V27.0665H98.0732Z" fill="black"/>
<path d="M41.5579 87.659C40.3277 88.955 38.0678 89.2744 36.5278 88.38L1.29007 67.9629C-0.249935 67.0685 -0.505088 65.2795 0.715978 63.9926L56.4567 5.31516C57.6869 4.01912 59.9468 3.6997 61.4868 4.59414L96.7246 25.0112C98.2646 25.9057 98.5197 27.6946 97.2986 28.9815L41.5579 87.659Z" fill="#11B67A"/>
<path d="M84.833 54.0184C84.833 54.0184 91.7038 56.4005 99.9414 56.2362C99.9414 56.2362 89.8813 58.4724 87.995 64.2042C85.7989 70.8669 91.3666 76.5986 91.3666 76.5986C91.3666 76.5986 78.9191 68.2839 75.0554 78.7252C75.0554 78.7252 73.4151 82.7137 75.6021 88.9566C75.6021 88.9566 69.679 79.428 64.8403 75.0379L84.833 54.0184Z" fill="white"/>
<path d="M91.6307 34.9423L92.6786 33.8379C83.6846 33.8379 74.7453 34.9696 71.8658 35.3712C72.9684 32.6057 76.1851 23.7708 76.8776 13.512L75.8206 12.9005C75.1463 24.4371 71.1641 34.2577 70.5718 35.6633C60.1472 41.2125 48.9845 44.6625 40.8744 46.6704L34.2952 39.4966C36.6736 33.9292 39.4711 27.0291 41.3938 21.1787L39.5987 23.068C37.2477 29.8038 34.0127 37.4613 31.68 42.7823L24.6998 43.6221C24.062 42.8189 23.3694 41.9153 22.6404 40.9296L21.875 41.7328C22.9958 43.2387 24.0164 44.5348 24.9094 45.6209L24.0073 51.6447L24.1804 51.672C23.9891 51.7907 23.7977 51.9093 23.6063 52.0189C22.7407 52.5482 21.9114 53.0502 21.0731 53.5157C21.0731 53.5157 21.0549 53.5066 21.0457 53.5066L21.0275 53.5431C20.9091 53.607 20.7906 53.68 20.6721 53.7439C17.4099 55.4871 11.7329 56.7375 6.85771 57.5498L5.60019 58.8732C10.7669 58.0701 17.3005 56.7375 21.0731 54.757C22.121 55.3228 24.4173 56.5733 25.3468 57.1391C25.0097 58.1705 24.6634 59.284 24.3536 60.4796C23.4514 61.4379 16.4987 68.9129 12.7808 74.6264L13.7285 75.174C17.6377 69.1867 25.1646 61.2189 25.2466 61.1276L25.3468 61.0272L25.3833 60.8903C26.1214 58.0701 26.9871 55.7062 27.7434 53.8899L31.6526 52.6304C34.1221 55.1951 37.7033 59.5669 40.109 65.4082C40.2183 66.4669 41.33 78.1769 40.3277 88.5086C40.765 88.317 41.166 88.0614 41.494 87.7328C42.2686 78.5602 41.494 68.6118 41.248 65.9193C43.7357 66.3026 52.4381 67.6991 59.0355 69.2689L59.9103 68.3562C52.8117 66.6221 42.8883 65.0614 41.0293 64.7784C39.1431 60.2697 36.628 56.6645 34.4319 54.0542L38.3138 50.303C47.6905 50.4855 62.7351 50.8598 75.8661 51.5534L76.8594 50.5129C61.7601 49.6824 43.8542 49.299 34.9058 49.1439C42.7607 47.5467 57.6048 43.8319 71.1915 36.576C72.1574 36.43 81.7346 35.0518 91.658 34.9423H91.6307ZM31.1605 43.9323C30.2037 46.0954 29.4383 47.7657 29.0282 48.651C28.3721 47.9665 27.1511 46.6339 25.5017 44.6077L31.1605 43.9232V43.9323ZM25.7022 56.0712C24.8183 55.551 23.2692 54.6931 22.1939 54.109C22.8591 53.7256 23.5152 53.3331 24.1622 52.9316C25.3742 52.1831 26.6226 51.4256 27.9439 50.7685C27.3607 51.9185 26.5406 53.7073 25.7022 56.0621V56.0712ZM25.1919 51.0423L25.8389 46.7343C26.9233 48.0121 27.7434 48.8974 28.2628 49.4268C27.1966 49.9105 26.1761 50.4673 25.1919 51.0423ZM28.3175 52.5482C28.7458 51.6082 29.1102 50.8963 29.3563 50.449C29.6934 50.7411 30.1673 51.1701 30.7778 51.7542L28.3175 52.5482ZM36.7556 50.2665L33.7029 53.2145C32.5001 51.8637 31.4521 50.8415 30.7049 50.1661C32.008 50.1844 34.0948 50.2117 36.7556 50.2665ZM30.1217 48.9066C30.787 47.4462 32.172 44.3978 33.8214 40.5919L39.6625 46.9625C35.1518 48.0395 31.7255 48.651 30.1217 48.9066Z" fill="#6CF479"/>
<path d="M78.7912 23.7149L72.8135 20.2101C72.1938 19.845 72.0754 18.9962 72.5675 18.476C73.26 17.7458 74.3535 17.5998 75.2192 18.1018L81.1969 21.6065C81.8257 21.9716 81.935 22.8296 81.4339 23.3498H81.4247C80.7322 24.0708 79.6478 24.2169 78.7912 23.7149Z" fill="#024731"/>
<path d="M30.2767 71.5505C30.2038 73.668 27.8072 75.4568 24.9186 75.539C22.0299 75.6211 19.7518 73.9783 19.8338 71.8608C19.9067 69.7434 22.3033 67.9544 25.1919 67.8723C28.0806 67.7901 30.3587 69.433 30.2767 71.5505Z" fill="#024731"/>
<path d="M69.5413 17.6745C70.5274 17.5716 71.2658 16.9029 71.1907 16.1809C71.1156 15.459 70.2553 14.9571 69.2692 15.0601C68.2831 15.163 67.5446 15.8317 67.6198 16.5537C67.6949 17.2756 68.5552 17.7774 69.5413 17.6745Z" fill="#024731"/>
</g>
<defs>
<clipPath id="clip0_15980_12785">
<rect width="100" height="100" fill="white"/>
</clipPath>
</defs>
</svg>
