<svg width="100" height="100" viewBox="0 0 100 100" fill="none" xmlns="http://www.w3.org/2000/svg">
<g clip-path="url(#clip0_15980_12783)">
<rect width="100" height="100" fill="#024731"/>
<path d="M98.0732 26.7462L85.2247 27.0565L61.4868 13.3021C59.9468 12.4076 57.6778 12.7362 56.4567 14.0232L19.9705 52.4296L-0.0585938 65.7915V72.8101C-0.0130316 73.6042 0.451712 74.3618 1.29006 74.8455L36.5278 95.2626C38.0678 96.157 40.3368 95.8284 41.5579 94.5415L97.2986 35.8641C97.8363 35.2982 98.0914 34.641 98.0823 34.0112V26.7462H98.0732Z" fill="black"/>
<path d="M41.5579 87.3387C40.3277 88.6347 38.0678 88.9541 36.5278 88.0597L1.29007 67.6426C-0.249935 66.7481 -0.505088 64.9592 0.715978 63.6723L56.4567 4.99484C57.6869 3.69881 59.9468 3.37939 61.4868 4.27383L96.7246 24.6909C98.2646 25.5854 98.5197 27.3742 97.2986 28.6611L41.5579 87.3387Z" fill="#11B67A"/>
<path d="M84.833 53.6981C84.833 53.6981 91.7038 56.0802 99.9414 55.9159C99.9414 55.9159 89.8813 58.1521 87.995 63.8838C85.7989 70.5466 91.3666 76.2783 91.3666 76.2783C91.3666 76.2783 78.9191 67.9636 75.0554 78.4049C75.0554 78.4049 73.4151 82.3934 75.6021 88.6363C75.6021 88.6363 69.679 79.1077 64.8403 74.7176L84.833 53.6981Z" fill="white"/>
<path d="M91.6307 34.622L92.6786 33.5176C83.6846 33.5176 74.7453 34.6493 71.8658 35.0509C72.9684 32.2854 76.1851 23.4505 76.8776 13.1917L75.8206 12.5802C75.1463 24.1168 71.1641 33.9374 70.5718 35.343C60.1472 40.8922 48.9845 44.3422 40.8744 46.3501L34.2952 39.1763C36.6736 33.6089 39.4711 26.7088 41.3938 20.8584L39.5987 22.7477C37.2477 29.4834 34.0127 37.141 31.68 42.462L24.6998 43.3017C24.062 42.4986 23.3694 41.595 22.6404 40.6093L21.875 41.4124C22.9958 42.9184 24.0164 44.2144 24.9094 45.3006L24.0073 51.3244L24.1804 51.3517C23.9891 51.4704 23.7977 51.589 23.6063 51.6985C22.7407 52.2279 21.9114 52.7299 21.0731 53.1954C21.0731 53.1954 21.0549 53.1862 21.0457 53.1862L21.0275 53.2228C20.9091 53.2867 20.7906 53.3597 20.6721 53.4236C17.4099 55.1668 11.7329 56.4172 6.85771 57.2295L5.60019 58.5529C10.7669 57.7497 17.3005 56.4172 21.0731 54.4366C22.121 55.0025 24.4173 56.253 25.3468 56.8188C25.0097 57.8502 24.6634 58.9636 24.3536 60.1593C23.4514 61.1176 16.4987 68.5926 12.7808 74.3061L13.7285 74.8537C17.6377 68.8664 25.1646 60.8986 25.2466 60.8073L25.3468 60.7069L25.3833 60.57C26.1214 57.7498 26.9871 55.3859 27.7434 53.5696L31.6526 52.3101C34.1221 54.8748 37.7033 59.2466 40.109 65.0879C40.2183 66.1466 41.33 77.8566 40.3277 88.1883C40.765 87.9967 41.166 87.7411 41.494 87.4125C42.2686 78.2399 41.494 68.2915 41.248 65.599C43.7357 65.9823 52.4381 67.3787 59.0355 68.9486L59.9103 68.0359C52.8117 66.3018 42.8883 64.7411 41.0293 64.4581C39.1431 59.9494 36.628 56.3442 34.4319 53.7339L38.3138 49.9827C47.6905 50.1652 62.7351 50.5395 75.8661 51.2331L76.8594 50.1926C61.7601 49.3621 43.8542 48.9787 34.9058 48.8236C42.7607 47.2263 57.6048 43.5116 71.1915 36.2557C72.1574 36.1096 81.7346 34.7315 91.658 34.622H91.6307ZM31.1605 43.612C30.2037 45.7751 29.4383 47.4454 29.0282 48.3307C28.3721 47.6461 27.1511 46.3136 25.5017 44.2874L31.1605 43.6029V43.612ZM25.7022 55.7509C24.8183 55.2307 23.2692 54.3728 22.1939 53.7887C22.8591 53.4053 23.5152 53.0128 24.1622 52.6112C25.3742 51.8628 26.6226 51.1053 27.9439 50.4481C27.3607 51.5981 26.5406 53.387 25.7022 55.7418V55.7509ZM25.1919 50.7219L25.8389 46.414C26.9233 47.6918 27.7434 48.5771 28.2628 49.1065C27.1966 49.5902 26.1761 50.1469 25.1919 50.7219ZM28.3175 52.2279C28.7458 51.2878 29.1102 50.5759 29.3563 50.1287C29.6934 50.4208 30.1673 50.8497 30.7778 51.4339L28.3175 52.2279ZM36.7556 49.9462L33.7029 52.8942C32.5001 51.5434 31.4521 50.5212 30.7049 49.8458C32.008 49.864 34.0948 49.8914 36.7556 49.9462ZM30.1217 48.5863C30.787 47.1259 32.172 44.0775 33.8214 40.2716L39.6625 46.6422C35.1518 47.7192 31.7255 48.3307 30.1217 48.5863Z" fill="#6CF479"/>
<path d="M78.7912 23.3946L72.8135 19.8898C72.1938 19.5247 72.0754 18.6759 72.5675 18.1557C73.26 17.4255 74.3535 17.2795 75.2192 17.7815L81.1969 21.2862C81.8257 21.6513 81.935 22.5093 81.4339 23.0295H81.4247C80.7322 23.7505 79.6478 23.8966 78.7912 23.3946Z" fill="#024731"/>
<path d="M30.2767 71.2302C30.2038 73.3476 27.8072 75.1365 24.9186 75.2187C22.0299 75.3008 19.7518 73.658 19.8338 71.5405C19.9067 69.423 22.3033 67.6341 25.1919 67.552C28.0806 67.4698 30.3587 69.1127 30.2767 71.2302Z" fill="#024731"/>
<path d="M69.5413 17.3542C70.5274 17.2513 71.2658 16.5825 71.1907 15.8606C71.1156 15.1386 70.2553 14.6368 69.2692 14.7398C68.2831 14.8427 67.5446 15.5114 67.6198 16.2334C67.6949 16.9553 68.5552 17.4571 69.5413 17.3542Z" fill="#024731"/>
</g>
<defs>
<clipPath id="clip0_15980_12783">
<rect width="100" height="100" fill="white"/>
</clipPath>
</defs>
</svg>
