<svg width="100" height="100" viewBox="0 0 100 100" fill="none" xmlns="http://www.w3.org/2000/svg">
<g clip-path="url(#clip0_15980_12799)">
<rect width="100" height="100" fill="#024731"/>
<path d="M26.6739 89.7358C24.8019 88.4717 23.0247 87.0706 21.3526 85.5431C23.0247 87.0601 24.8019 88.4612 26.6739 89.7358Z" fill="black"/>
<path d="M20.2482 14.7569C28.6929 7.03494 39.8612 2.27327 52.1128 2.06258C50.4092 1.87296 48.6845 1.76758 46.9388 1.76758C34.9501 1.76758 24.0236 6.26588 15.7262 13.6718L20.2588 14.7569H20.2482Z" fill="black"/>
<path d="M15.1903 20.1417C16.0842 19.025 17.0412 17.961 18.0297 16.9286L13.4445 15.833C12.4455 16.8549 11.4885 17.9083 10.5841 19.0145L15.1903 20.1417Z" fill="black"/>
<path d="M4.37928 50.6913C4.37928 41.5578 6.91374 33.0036 11.2991 25.6925L6.67184 24.5653C2.4022 31.6552 -0.0585938 39.9565 -0.0585938 48.8372C-0.0585938 66.9463 10.1633 82.6641 25.1281 90.5335C12.5926 81.7265 4.37928 67.157 4.37928 50.6808V50.6913Z" fill="black"/>
<path d="M52.9436 3.61938C59.9054 3.61938 66.4992 5.14689 72.441 7.87537C71.2947 23.4667 64.8166 38.7526 52.9436 50.6989C52.9015 33.8329 46.6969 18.4417 36.496 6.60071C41.6175 4.6834 47.1596 3.62992 52.9436 3.62992V3.61938Z" fill="#11B67A"/>
<path d="M5.95648 50.689C5.95648 43.715 7.48139 37.1098 10.2051 31.1577C25.7693 32.306 41.0286 38.7953 52.9541 50.689C36.1174 50.7312 20.753 56.9466 8.93263 67.1653C7.01865 62.0349 5.96701 56.4831 5.96701 50.689H5.95648Z" fill="#11B67A"/>
<path d="M52.9437 97.7676C45.9819 97.7676 39.3881 96.2401 33.4464 93.5116C34.5927 77.9202 41.0707 62.6344 52.9437 50.688C52.9858 67.5541 59.1904 82.9453 69.3913 94.7862C64.2699 96.7036 58.7277 97.757 52.9437 97.757V97.7676Z" fill="#11B67A"/>
<path d="M99.9414 50.6874C99.9414 57.6614 98.4166 64.2667 95.6928 70.2188C80.1286 69.0705 64.8693 62.5817 52.9437 50.688C69.7804 50.6459 85.1449 44.4298 96.9653 34.2111C98.8793 39.3415 99.9309 44.8933 99.9309 50.6874H99.9414Z" fill="#11B67A"/>
<path d="M19.7225 17.4156C24.6441 12.4853 30.386 8.89298 36.5066 6.60695C46.7074 18.4479 52.9016 33.8391 52.9436 50.6946C41.0076 38.8009 25.7589 32.3116 10.1841 31.1633C12.4557 26.1804 15.6211 21.5135 19.7225 17.405V17.4156Z" fill="#6CF479"/>
<path d="M19.7225 83.9836C14.8008 79.0534 11.2147 73.3014 8.93269 67.1702C20.7531 56.9516 36.1175 50.7466 52.9436 50.7045C41.0707 62.6614 34.5926 77.9367 33.4463 93.5385C28.4721 91.263 23.8133 88.0922 19.712 83.9836H19.7225Z" fill="#6CF479"/>
<path d="M86.1753 83.9836C81.2536 88.9139 75.5117 92.5061 69.3911 94.7922C59.1903 82.9512 52.9961 67.56 52.954 50.7045C64.8901 62.5982 80.1389 69.0875 95.7136 70.2358C93.4421 75.2187 90.2766 79.8856 86.1753 83.9941V83.9836Z" fill="#6CF479"/>
<path d="M86.1753 17.4129C91.0969 22.3432 94.683 28.0951 96.9651 34.2262C85.1447 44.4449 69.7802 50.6498 52.954 50.692C64.827 38.7351 71.3051 23.4598 72.4514 7.85795C77.4257 10.1334 82.0844 13.3044 86.1858 17.4129H86.1753Z" fill="#6CF479"/>
<path d="M48.4431 20.4314C40.2403 19.7361 35.7287 15.7014 35.7287 15.7014C30.418 17.7135 25.6015 21.211 21.9523 26.0991C18.3873 30.8713 16.4102 36.3388 15.9265 41.8589C16.8835 38.7828 18.3663 35.8121 20.3959 33.0836C26.853 24.4451 37.8321 20.1154 48.4431 20.4209V20.4314Z" fill="white"/>
<path d="M63.4391 78.73C71.3474 77.7503 76.4057 80.679 76.4057 80.679C81.0329 77.7188 84.9029 73.4522 87.3848 68.09C89.8141 62.8648 90.5923 57.3025 89.9613 51.972C89.6669 55.0797 88.8571 58.1769 87.4689 61.1687C83.0731 70.6394 73.5453 76.9181 63.4391 78.73Z" fill="white"/>
</g>
<defs>
<clipPath id="clip0_15980_12799">
<rect width="100" height="100" fill="white"/>
</clipPath>
</defs>
</svg>
