<svg width="100" height="100" viewBox="0 0 100 100" fill="none" xmlns="http://www.w3.org/2000/svg">
<g clip-path="url(#clip0_15980_12811)">
<rect width="100" height="100" fill="#024731"/>
<path d="M39.0839 -0.232422L25.5602 38.0753L64.0142 31.8454L39.0839 -0.232422Z" fill="#6CF479"/>
<path d="M36.935 8.90502C33.9486 18.5006 30.9623 28.0909 27.9814 37.6865C29.1226 37.1531 30.2638 36.6197 31.405 36.0863C33.2501 27.0241 35.0898 17.9672 36.935 8.90502Z" fill="white"/>
<path d="M39.0839 -0.232422C44.0273 10.8033 48.9654 21.8391 53.9088 32.8748C57.2791 32.5334 60.644 32.1867 64.0142 31.8454C55.7059 21.151 47.3976 10.4619 39.0839 -0.232422Z" fill="#11B67A"/>
<path d="M45.3235 38.2596C56.1095 36.5123 64.6158 33.6296 64.323 31.8209C64.0301 30.0121 55.0488 29.9624 44.2628 31.7097C33.4768 33.457 24.9705 36.3398 25.2634 38.1485C25.5563 39.9572 34.5375 40.007 45.3235 38.2596Z" fill="#221F1F"/>
<path d="M28.1254 66.0727L48.3416 77.3058L68.5579 66.0727L48.3416 54.8396L28.1254 66.0727Z" fill="#11B67A"/>
<path d="M48.3416 67.6466C55.301 67.6466 60.9427 64.4896 60.9427 60.5953C60.9427 56.7009 55.301 53.5439 48.3416 53.5439C41.3822 53.5439 35.7404 56.7009 35.7404 60.5953C35.7404 64.4896 41.3822 67.6466 48.3416 67.6466Z" fill="#006A4D"/>
<path d="M48.1656 65.529C56.7036 65.529 63.6251 58.606 63.6251 50.0661C63.6251 41.5262 56.7036 34.6033 48.1656 34.6033C39.6276 34.6033 32.7061 41.5262 32.7061 50.0661C32.7061 58.606 39.6276 65.529 48.1656 65.529Z" fill="#C7FFC6"/>
<path d="M42.1822 38.0916C37.6388 40.7639 34.9404 45.7083 35.2124 50.8875C35.5964 58.3336 41.8996 62.0673 42.3369 62.3179C40.2571 59.8964 39.6172 56.6427 40.7158 53.8798C41.8036 51.1489 44.1713 49.9487 44.8059 49.6554C44.6406 49.6234 41.0304 48.7966 39.8785 45.3883C39.0093 42.8067 39.9265 39.8624 42.1876 38.0916H42.1822Z" fill="white"/>
<path d="M47.5042 65.5291C48.656 65.2784 56.831 63.3369 60.7346 55.4695C63.2303 50.445 62.649 45.6925 62.3344 43.8897C64.5421 49.0742 63.8435 55.0268 60.4893 59.4485C55.7432 65.6945 48.2134 65.5558 47.5042 65.5291Z" fill="#6CF479"/>
<path d="M28.1254 66.0736V88.5398L48.3416 99.7676V77.3067L28.1254 66.0736Z" fill="#6CF479"/>
<path d="M48.3416 77.3067V99.7676L68.5577 88.5398V66.0736L48.3416 77.3067Z" fill="#221F1F"/>
<path d="M28.8614 67.6461C28.8774 71.2624 28.8987 74.8841 28.9147 78.5004C29.0107 77.9937 29.64 74.9748 32.4929 73.2626C34.3594 72.1425 36.2045 72.1638 36.9404 72.2172C34.2474 70.6917 31.5544 69.1662 28.8614 67.6461Z" fill="#C7FFC6"/>
<path d="M20.3983 53.421C20.3983 53.421 21.6941 57.7255 26.9628 58.9149C26.9628 58.9149 22.974 59.603 22.894 64.3981C22.894 64.3981 21.4861 60.243 16.4414 58.9149C16.4414 58.9149 20.6596 58.4135 20.3983 53.4264V53.421Z" fill="white"/>
<path d="M72.4561 28.325C72.4561 28.325 74.6265 35.5311 83.4414 37.5206C83.4414 37.5206 76.7649 38.6727 76.6316 46.6895C76.6316 46.6895 74.2798 39.7395 65.8329 37.5099C65.8329 37.5099 72.888 36.6725 72.4507 28.325H72.4561Z" fill="white"/>
<path d="M22.8191 1.66148C22.8191 1.66148 23.4697 3.81635 26.1041 4.40841C26.1041 4.40841 24.1096 4.75511 24.067 7.15001C24.067 7.15001 23.3631 5.07514 20.8407 4.40841C20.8407 4.40841 22.9471 4.15772 22.8191 1.66148Z" fill="white"/>
</g>
<defs>
<clipPath id="clip0_15980_12811">
<rect width="100" height="100" fill="white"/>
</clipPath>
</defs>
</svg>
