<svg width="100" height="100" viewBox="0 0 100 100" fill="none" xmlns="http://www.w3.org/2000/svg">
<g clip-path="url(#clip0_15980_12813)">
<rect width="100" height="100" fill="#024731"/>
<path d="M39.0839 0.0878906L25.5602 38.3956L64.0142 32.1657L39.0839 0.0878906Z" fill="#6CF479"/>
<path d="M36.935 9.22533C33.9486 18.8209 30.9623 28.4112 27.9814 38.0068C29.1226 37.4734 30.2638 36.94 31.405 36.4066C33.2501 27.3444 35.0898 18.2875 36.935 9.22533Z" fill="white"/>
<path d="M39.0839 0.0878906C44.0273 11.1236 48.9654 22.1594 53.9088 33.1951C57.2791 32.8537 60.644 32.507 64.0142 32.1657C55.7059 21.4713 47.3976 10.7823 39.0839 0.0878906Z" fill="#11B67A"/>
<path d="M45.3235 38.58C56.1095 36.8326 64.6158 33.9499 64.323 32.1412C64.0301 30.3324 55.0488 30.2827 44.2628 32.03C33.4768 33.7773 24.9705 36.6601 25.2634 38.4688C25.5563 40.2775 34.5375 40.3273 45.3235 38.58Z" fill="#221F1F"/>
<path d="M28.1254 66.393L48.3416 77.6261L68.5579 66.393L48.3416 55.16L28.1254 66.393Z" fill="#11B67A"/>
<path d="M48.3416 67.967C55.301 67.967 60.9427 64.81 60.9427 60.9156C60.9427 57.0213 55.301 53.8643 48.3416 53.8643C41.3822 53.8643 35.7404 57.0213 35.7404 60.9156C35.7404 64.81 41.3822 67.967 48.3416 67.967Z" fill="#006A4D"/>
<path d="M48.1656 65.8493C56.7036 65.8493 63.6251 58.9263 63.6251 50.3864C63.6251 41.8466 56.7036 34.9236 48.1656 34.9236C39.6276 34.9236 32.7061 41.8466 32.7061 50.3864C32.7061 58.9263 39.6276 65.8493 48.1656 65.8493Z" fill="#C7FFC6"/>
<path d="M42.1822 38.4119C37.6388 41.0842 34.9404 46.0287 35.2124 51.2078C35.5964 58.6539 41.8996 62.3876 42.3369 62.6383C40.2571 60.2167 39.6172 56.963 40.7158 54.2001C41.8036 51.4692 44.1713 50.2691 44.8059 49.9757C44.6406 49.9437 41.0304 49.1169 39.8785 45.7086C39.0093 43.127 39.9265 40.1828 42.1876 38.4119H42.1822Z" fill="white"/>
<path d="M47.5042 65.8494C48.656 65.5987 56.831 63.6572 60.7346 55.7898C63.2303 50.7653 62.649 46.0128 62.3344 44.21C64.5421 49.3945 63.8435 55.3471 60.4893 59.7688C55.7432 66.0148 48.2134 65.8761 47.5042 65.8494Z" fill="#6CF479"/>
<path d="M28.1254 66.394V88.8601L48.3416 100.088V77.627L28.1254 66.394Z" fill="#6CF479"/>
<path d="M48.3416 77.627V100.088L68.5577 88.8601V66.394L48.3416 77.627Z" fill="#221F1F"/>
<path d="M28.8614 67.9664C28.8774 71.5827 28.8987 75.2044 28.9147 78.8207C29.0107 78.314 29.64 75.2951 32.4929 73.5829C34.3594 72.4628 36.2045 72.4841 36.9404 72.5375C34.2474 71.012 31.5544 69.4865 28.8614 67.9664Z" fill="#C7FFC6"/>
<path d="M20.3983 53.7414C20.3983 53.7414 21.6941 58.0458 26.9628 59.2352C26.9628 59.2352 22.974 59.9233 22.894 64.7184C22.894 64.7184 21.4861 60.5634 16.4414 59.2352C16.4414 59.2352 20.6596 58.7338 20.3983 53.7467V53.7414Z" fill="white"/>
<path d="M72.4561 28.6453C72.4561 28.6453 74.6265 35.8514 83.4414 37.8409C83.4414 37.8409 76.7649 38.993 76.6316 47.0098C76.6316 47.0098 74.2798 40.0598 65.8329 37.8302C65.8329 37.8302 72.888 36.9928 72.4507 28.6453H72.4561Z" fill="white"/>
<path d="M22.8191 1.98179C22.8191 1.98179 23.4697 4.13667 26.1041 4.72872C26.1041 4.72872 24.1096 5.07542 24.067 7.47032C24.067 7.47032 23.3631 5.39545 20.8407 4.72872C20.8407 4.72872 22.9471 4.47803 22.8191 1.98179Z" fill="white"/>
</g>
<defs>
<clipPath id="clip0_15980_12813">
<rect width="100" height="100" fill="white"/>
</clipPath>
</defs>
</svg>
