<svg width="100" height="100" viewBox="0 0 100 100" fill="none" xmlns="http://www.w3.org/2000/svg">
<rect width="100" height="100" fill="#024731"/>
<path d="M81.0074 43.1112C81.0666 42.9182 81.028 42.7818 80.8736 42.6506C80.4002 42.684 79.8084 42.8384 79.0957 43.2527C78.8435 43.3993 77.9353 44.2562 78.1668 44.6292C78.1668 44.6292 78.262 44.7733 78.4087 44.992C79.0391 44.7656 80.6189 44.1687 81.0074 43.1086V43.1112Z" fill="#6CEE79"/>
<path d="M78.1312 45.0877L78.7255 45.4711C78.6072 45.2935 78.4991 45.1289 78.409 44.9951C78.2392 45.0568 78.1312 45.0903 78.1312 45.0903V45.0877Z" fill="black"/>
<path d="M82.5923 43.4879C82.5254 43.0994 82.2578 42.8575 81.8641 42.7494C81.6325 42.6877 81.3032 42.6208 80.8735 42.6542C81.0279 42.7854 80.9919 42.909 80.9455 43.0633C80.557 44.1234 79.0394 44.7661 78.409 44.9951C78.4991 45.1289 78.6072 45.2935 78.7255 45.4711L80.8323 46.9692C81.7946 46.0841 82.8033 44.6843 82.5897 43.4879H82.5923Z" fill="black"/>
<path d="M73.1407 78.6435C89.2066 81.8598 98.5956 72.3422 98.8837 69.2031C98.8837 69.2031 100.929 77.8304 86.6233 82.3641C78.9814 84.7879 70.4905 83.3521 66.9835 80.81C65.257 79.5595 73.1433 78.6435 73.1433 78.6435H73.1407Z" fill="#11B578"/>
<path d="M22.7807 35.4775L17.6012 37.8936L27.4353 46.6316L47.6541 62.9497L71.7993 76.2496L83.9748 78.1227C83.9748 78.1227 95.9471 79.7823 99.6007 67.7097C102.969 56.5866 83.8719 49.66 83.8719 49.66L52.3653 40.1836L38.6459 32.974L30.4869 34.1524L24.9163 34.806C24.1779 34.9372 23.46 35.1636 22.7833 35.4827L22.7807 35.4775Z" fill="#6FF570"/>
<path d="M17.6016 37.8918C17.6016 37.8918 21.2244 40.4133 25.8713 42.9323C30.5182 45.4539 34.2284 47.5689 43.9442 54.4311C58.299 64.5714 57.4191 62.4255 63.6329 65.9686C69.8467 69.5116 74.491 76.6775 82.6295 76.6311C97.8437 76.5411 99.8018 66.936 99.8018 66.936C99.8018 66.936 98.6414 83.1203 73.9713 83.11C65.1304 83.1074 45.2461 63.6451 45.2461 63.6451L17.4447 50.4172C17.4447 50.4172 14.9771 43.5601 15.8674 40.7247C16.7577 37.8892 17.599 37.8892 17.599 37.8892L17.6016 37.8918Z" fill="#11B578"/>
<path d="M64.3175 67.7047C58.0753 64.5116 56.3668 65.7055 48.9282 59.8622C38.3634 51.5616 31.8485 49.9483 29.3965 49.0658C26.9418 48.1833 24.3894 44.0587 20.9544 44.0587C17.5194 44.0587 17.4422 50.4192 17.4422 50.4192C18.3634 52.5625 25.591 55.7016 28.0173 57.5285L26.9572 59.1469C26.9572 59.1469 34.9696 61.6093 49.9497 71.0857C60.5917 77.8167 63.7102 79.4171 65.0045 79.9909C65.1228 80.0424 65.5294 80.2122 65.941 80.382V80.1376H66.9368V80.7749C66.9432 80.8012 66.9754 80.8091 66.9754 80.8091C74.9286 83.4902 78.307 81.8409 82.2308 81.3572C91.715 80.189 97.8207 72.8868 97.8207 72.8868C76.9973 85.8728 72.0545 71.6672 64.3123 67.7047H64.3175Z" fill="#6FF570"/>
<path d="M37.1505 29.8117C37.1505 29.8117 43.7838 29.1402 51.3484 30.9696C57.7861 32.5288 65.2299 35.0581 70.731 39.0875C84.7771 49.377 80.8738 47.6145 80.8738 47.6145C80.8738 47.6145 90.8185 51.6078 95.2493 56.9108C99.68 62.2138 100.879 67.1951 94.148 71.9706C88.5826 75.9202 80.3309 77.8551 67.1133 67.2363C53.8957 56.6174 41.7845 54.8935 36.1728 47.4987C31.5053 41.3517 25.2297 37.1629 23.2485 35.9252C22.9835 35.7606 23.0092 35.3669 23.2922 35.2357L32.5628 30.9747L37.1531 29.8143L37.1505 29.8117Z" fill="#11B578"/>
<path d="M29.0877 50.5533C29.0877 50.5533 30.2919 56.7851 36.0837 61.149C41.8782 65.5128 57.6662 74.7808 57.6662 74.7808C57.6662 74.7808 52.304 70.224 46.0619 62.1602C39.8223 54.0963 29.0851 50.5533 29.0851 50.5533H29.0877Z" fill="#11B578"/>
<path d="M56.5313 60.1652C54.8563 56.4343 54.1718 55.2971 52.5457 50.1536C52.4788 49.94 52.309 49.7728 52.0928 49.7085C50.8192 49.3354 46.0128 47.7941 37.9052 43.6336C35.5869 42.4448 33.8321 42.6816 34.5294 43.914C40.3496 54.2318 56.5313 60.1626 56.5313 60.1626V60.1652Z" fill="#006B4C"/>
<path d="M54.5495 49.4778C57.6397 48.6853 69.7689 45.2735 71.3256 40.1789C71.3256 40.1789 83.3802 48.5747 83.8717 49.6553C84.3631 50.736 83.1718 53.7259 78.4735 57.1145C72.4861 61.4321 62.5439 64.319 60.2925 62.2786C57.524 59.7673 54.8737 52.6375 54.0787 50.3629C53.9475 49.9873 54.1662 49.5782 54.5521 49.4804L54.5495 49.4778Z" fill="#006B4C"/>
<path d="M32.5585 30.9719C32.5585 30.9719 36.3074 30.3029 38.7183 30.2232C45.9408 29.9839 48.6682 30.4136 48.6682 30.4136L39.5289 28.9753C39.2381 28.9264 38.9422 28.947 38.6617 29.037L32.5585 30.9719Z" fill="#6FF570"/>
<path d="M41.8939 52.4218L40.5637 51.354L40.749 45.0989L42.1435 44.4969L41.8939 52.4218Z" fill="#11B578"/>
<path d="M50.757 30.6963C50.0495 30.5548 48.8479 30.6603 48.1351 30.7658C46.6402 30.987 43.7173 31.5402 40.4392 32.7933C35.7718 34.579 33.3712 35.9735 32.0769 37.0208C30.9011 37.9728 31.1686 39.8331 32.5684 40.4094C34.4544 41.1839 37.6784 42.5965 43.1383 45.1618C48.8813 47.8609 50.3814 49.68 55.3293 48.2854C70.312 44.0631 70.3171 40.201 70.312 39.1615C70.3068 37.5842 64.268 34.6098 60.8098 33.5086C53.8369 31.2881 52.1696 30.9793 50.757 30.6989V30.6963Z" fill="#6FF570"/>
<path d="M73.5548 44.3115C71.1568 44.0619 65.7046 46.2979 65.7046 46.2979C71.0462 43.7017 71.6199 41.0747 71.6199 41.0747L82.2362 48.8246C82.2362 48.8246 76.3466 44.5251 73.5548 44.3115Z" fill="white"/>
<path d="M44.647 47.6534C44.647 47.6534 48.437 49.9717 50.5932 52.1176C51.8823 53.3989 55.5463 58.9901 55.5463 58.9901C55.5463 58.9901 54.2881 56.6023 53.4029 54.4745C52.5178 52.3466 51.9003 50.2187 51.9003 50.2187C51.1618 49.9794 50.0349 49.6115 47.413 48.5771C45.2774 47.7332 43.1675 46.7683 42.9771 46.6293L44.647 47.6534Z" fill="white"/>
<path d="M68.3653 65.1626C68.3653 65.1626 75.6006 72.9382 81.4748 73.3731C89.6853 73.9854 91.5559 72.2641 92.6752 71.7701C92.6752 71.7701 89.3868 72.3696 83.9295 71.9682C78.4721 71.5642 68.3679 65.1626 68.3679 65.1626H68.3653Z" fill="white"/>
<path d="M95.4571 69.202C95.4571 69.202 99.7721 64.0817 97.073 59.6535C93.4708 53.7458 85.2448 50.7406 85.2448 50.7406C85.2448 50.7406 92.7092 55.4029 94.7547 59.2187C96.8003 63.0344 95.4571 69.2045 95.4571 69.2045V69.202Z" fill="white"/>
<path d="M39.31 46.4499C40.1128 48.2124 40.3418 50.7417 40.3418 50.7417V45.4747L36.3871 43.5269C36.3871 43.5269 38.5073 44.6873 39.31 46.4499Z" fill="white"/>
<path d="M54.4154 60.6899C55.1924 60.2679 56.2551 60.219 56.304 58.7086C55.8228 58.3484 55.4343 58.2687 55.0483 58.2687C54.3202 58.2687 53.8622 58.423 53.309 58.7807C52.6065 59.2335 51.5567 60.0955 51.0807 60.7979C51.0113 60.9009 50.9701 61.0038 50.9495 61.1041C51.5516 61.364 52.6014 61.4283 54.4154 60.6873V60.6899Z" fill="#6CEE79"/>
<path d="M51.9086 62.4199C52.5931 62.7519 53.4164 62.7055 54.1394 62.5434C54.8084 62.3942 55.4826 62.2064 56.0898 61.8899C56.5195 61.666 56.9646 61.3341 57.1293 60.853C57.2708 60.4439 57.1499 59.4687 56.6173 58.9747C56.5066 58.8717 56.4011 58.7868 56.3008 58.7122C56.2673 60.0399 55.1815 60.3641 54.4122 60.6934C52.5982 61.4345 51.5484 61.3702 50.9463 61.1103C50.828 61.6918 51.4609 62.209 51.9035 62.4225L51.9086 62.4199Z" fill="black"/>
<path d="M77.3034 77.0835C93.3616 79.5022 99.6218 70.9315 99.8019 66.9381C99.8019 66.9381 100.214 70.229 97.4836 74.3021C97.2983 74.58 94.5787 78.3469 86.1083 80.9173C81.2967 82.3762 79.1251 81.8179 77.7588 80.3693C76.2974 78.8178 77.3034 77.0835 77.3034 77.0835Z" fill="black"/>
<path d="M54.5785 46.7109C64.9118 44.421 68.3416 40.1626 68.3416 39.4447C68.3416 36.2388 49.6589 31.5713 49.6589 31.5713C49.6589 31.5713 66.0851 36.7251 64.778 40.1369C63.7848 42.7305 54.5785 46.7084 54.5785 46.7084V46.7109Z" fill="white"/>
<path d="M20.7589 46.6612C20.4141 46.7049 20.0822 46.8001 19.7657 46.9493C20.0565 46.8541 20.3627 46.8052 20.6791 46.8001C20.7075 46.7538 20.7306 46.7049 20.7589 46.6612Z" fill="black"/>
<path d="M21.6234 46.9069V46.6496C21.3301 46.6187 21.0394 46.6239 20.7589 46.6599C20.7306 46.7037 20.7074 46.7525 20.6791 46.7989C20.9853 46.7937 21.3018 46.8323 21.6234 46.9069Z" fill="black"/>
<path d="M20.1309 48.4438C20.1051 48.6368 20.0897 48.8375 20.082 49.0433C20.2106 48.9687 20.347 48.9172 20.4885 48.8735L20.1309 48.4438Z" fill="black"/>
<path d="M22.5818 55.478C22.1573 55.1126 21.7636 54.6392 21.4394 54.0808C21.2027 53.6717 21.0277 53.2523 20.9094 52.8406C20.3202 51.5284 20.0448 50.2058 20.0834 49.0428C20.0834 49.0428 20.0783 49.0428 20.0757 49.0454C18.5937 49.8997 18.4933 52.4984 19.8493 54.845C21.2053 57.1942 23.5056 58.4035 24.9876 57.5492C25.0262 57.5261 25.0622 57.4978 25.0983 57.472C24.226 57.0475 23.3563 56.3657 22.5844 55.478H22.5818Z" fill="#006A4D"/>
<path d="M26.0787 55.8802V55.0002C25.9474 55.4891 25.6876 55.8828 25.2939 56.1092C24.5348 56.5466 23.4927 56.2627 22.5818 55.478C23.3537 56.3657 24.2235 57.0483 25.0958 57.4729C25.6052 57.1307 25.9346 56.5698 26.0787 55.8802Z" fill="#006A4D"/>
<path d="M23.7693 49.9564C23.0797 49.3415 22.331 48.9427 21.6208 48.8166V49.7223C22.2281 49.3801 23.0128 49.4959 23.7693 49.9564Z" fill="#006A4D"/>
<path d="M26.1437 54.6875L26.1514 54.6978C26.1514 54.6978 26.1514 54.6721 26.1488 54.6592C26.1488 54.6695 26.1463 54.6772 26.1437 54.6875Z" fill="#006A4D"/>
<path d="M21.3608 49.9142L20.4885 48.8696C20.347 48.9133 20.2107 48.9648 20.082 49.0394C20.0434 50.2024 20.3187 51.5249 20.9079 52.8372C20.558 51.6253 20.715 50.4906 21.3582 49.9117L21.3608 49.9142Z" fill="#006A4D"/>
<path d="M26.0801 54.9988V55.8788C26.1547 55.516 26.1797 55.1172 26.1514 54.6978L26.1437 54.6875C26.1283 54.7956 26.1058 54.8985 26.0801 54.9963V54.9988Z" fill="#006A4D"/>
<path d="M21.6222 49.7213V48.8156C21.2234 48.7436 20.8426 48.7616 20.4901 48.8697L21.3623 49.9143C21.4395 49.8449 21.5219 49.7805 21.6119 49.7291C21.6171 49.7291 21.6197 49.7265 21.6248 49.7239L21.6222 49.7213Z" fill="#006A4D"/>
<path d="M25.2118 51.7493C25.7753 52.7245 26.0845 53.7407 26.1488 54.6592C26.2646 53.8127 26.0404 52.7554 25.464 51.757C25.0034 50.9594 24.3988 50.3393 23.771 49.9559C24.3061 50.4319 24.8027 51.0366 25.2144 51.7467L25.2118 51.7493Z" fill="black"/>
<path d="M20.9079 52.8412C21.0262 53.2529 21.2012 53.6723 21.4379 54.0814C21.7621 54.6424 22.1558 55.1132 22.5803 55.4786C22.1532 54.9871 21.757 54.4339 21.4044 53.8267C21.2166 53.4999 21.0545 53.1706 20.9053 52.8412H20.9079Z" fill="black"/>
<path d="M26.0801 54.6098V54.9988C26.1058 54.8985 26.129 54.795 26.1444 54.6895L26.0801 54.6123V54.6098Z" fill="black"/>
<path d="M27.4378 51.4738C26.0226 48.6898 23.7069 46.8655 21.6228 46.6519C21.6228 46.6519 21.1365 46.5748 20.7582 46.6622C20.4495 46.7317 20.0558 46.8552 19.7651 46.9504C19.7368 46.9633 19.7059 46.9761 19.6776 46.9916C19.5052 47.0791 19.3379 47.1846 19.1758 47.3003C18.7976 47.5731 18.4811 47.8227 18.1415 48.3347C17.2178 49.9969 17.4596 52.7346 18.9237 55.2716C20.8149 58.547 24.0208 60.2349 26.087 59.041C26.1024 59.0307 26.1178 59.0179 26.1333 59.0102L27.605 58.1585C27.6694 58.0736 27.7311 57.9887 27.7903 57.9038C27.955 57.6619 28.0965 57.4149 28.2097 57.1679C28.9507 55.5546 28.6137 53.7921 27.4378 51.4789V51.4738ZM26.1514 54.6978C26.1771 55.1172 26.1547 55.516 26.0801 55.8788C25.936 56.5684 25.6058 57.1293 25.0964 57.4715C25.0578 57.4972 25.0243 57.5255 24.9857 57.5487C23.5037 58.4029 21.2034 57.1936 19.8474 54.8444C18.4914 52.4953 18.5943 49.8991 20.0738 49.0449C20.0738 49.0449 20.079 49.0449 20.0815 49.0423C20.3234 48.9291 20.4881 48.8725 20.4881 48.8725C20.8406 48.7644 21.224 48.7464 21.6202 48.8184C22.3304 48.9471 23.0791 49.3433 23.7687 49.9583C24.3965 50.3417 25.0012 50.9618 25.4617 51.7594C26.0381 52.7577 26.2619 53.8152 26.1461 54.6618C26.1461 54.6746 26.1461 54.6875 26.1487 54.7003L26.1514 54.6978Z" fill="black"/>
<path d="M21.6234 49.7214C21.6234 49.7214 21.6156 49.724 21.6105 49.7266C21.5204 49.778 21.4381 49.8424 21.3609 49.9118C20.7151 50.4908 20.5581 51.6255 20.9106 52.8373C21.0599 53.1667 21.222 53.496 21.4098 53.8228C21.7623 54.4326 22.1585 54.9858 22.5857 55.4747C23.4965 56.2569 24.5386 56.5425 25.2976 56.1051C25.6913 55.8787 25.9512 55.485 26.0824 54.9961V54.6076L26.1467 54.6848C26.1467 54.6848 26.1493 54.6668 26.1519 54.6565C26.085 53.7379 25.7779 52.7219 25.2144 51.7467C24.8053 51.0366 24.3061 50.4319 23.771 49.9559C23.0171 49.4953 22.2306 49.3792 21.6234 49.7214Z" fill="black"/>
<path d="M59.4482 70.5298C59.4225 70.7228 59.407 70.9235 59.3993 71.1293C59.528 71.0547 59.6643 71.0033 59.8058 70.9595L59.4482 70.5298Z" fill="black"/>
<path d="M66.7558 73.561C65.3407 70.777 63.0249 68.9527 60.9408 68.7391C60.6475 68.7082 60.3593 68.7134 60.0763 68.7494C59.7315 68.7932 59.3996 68.8884 59.0831 69.0376C59.0548 69.0505 59.0239 69.0633 58.9956 69.0788C58.8232 69.1662 58.656 69.2717 58.4939 69.3875C58.1156 69.6603 57.7374 69.9896 57.4595 70.4219C56.4252 72.0171 56.7777 74.8217 58.2417 77.3587C60.1329 80.6342 63.3389 82.3221 65.405 81.1282C65.4204 81.1179 65.4359 81.105 65.4513 81.0973L66.9231 80.2457C66.9874 80.1607 67.0491 80.0758 67.1083 79.9909C67.2756 79.7491 67.4145 79.5021 67.5277 79.255C68.2688 77.6418 67.9317 75.8792 66.7558 73.5661V73.561ZM65.4693 76.7849C65.495 77.2043 65.4719 77.6032 65.3973 77.966C65.2532 78.6555 64.9238 79.2164 64.4144 79.5587C64.3758 79.5844 64.3423 79.6127 64.3037 79.6359C62.8217 80.4901 60.5214 79.2808 59.1654 76.9316C57.8094 74.5824 57.9124 71.9863 59.3918 71.132C59.3918 71.132 59.3967 71.1319 59.3993 71.1293C59.6772 70.9595 59.8058 70.9595 59.8058 70.9595C60.1583 70.8514 60.542 70.8336 60.9382 70.9056C61.6484 71.0342 62.3971 71.4305 63.0867 72.0454C63.7145 72.4288 64.3192 73.0489 64.7797 73.8466C65.3561 74.8449 65.5799 75.9024 65.4642 76.7489C65.4642 76.7618 65.4642 76.7747 65.4667 76.7875L65.4693 76.7849Z" fill="black"/>
<path d="M61.8974 77.5638C61.4729 77.1984 61.0792 76.725 60.755 76.1667C60.5183 75.7575 60.3433 75.3381 60.2249 74.9265C59.6357 73.6142 59.3607 72.2923 59.3993 71.1293C59.3993 71.1293 59.3944 71.1295 59.3918 71.132C57.9098 71.9863 57.8094 74.585 59.1654 76.9316C60.5214 79.2808 62.8217 80.4901 64.3037 79.6359C64.3423 79.6127 64.3783 79.5844 64.4144 79.5587C63.5421 79.1341 62.6719 78.4515 61.9 77.5638H61.8974Z" fill="#006A4D"/>
<path d="M63.0866 72.0426C62.397 71.4276 61.6483 71.0288 60.9381 70.9027V71.8084C61.5454 71.4662 62.3302 71.582 63.0866 72.0426Z" fill="#006A4D"/>
<path d="M65.461 76.7753L65.4693 76.7849C65.4693 76.7849 65.4687 76.7598 65.4662 76.747C65.4662 76.7573 65.4636 76.765 65.461 76.7753Z" fill="#006A4D"/>
<path d="M65.3973 77.966L65.3968 77.086C65.2656 77.5749 65.0057 77.9686 64.6095 78.195C63.8504 78.6324 62.8083 78.3486 61.8974 77.5638C62.6693 78.4515 63.5391 79.1341 64.4113 79.5587C64.9208 79.2165 65.2501 78.6556 65.3942 77.966L65.3973 77.966Z" fill="#006A4D"/>
<path d="M60.6764 72.002L59.8041 70.9573C59.6626 71.0011 59.5262 71.0525 59.3976 71.1271C59.359 72.2901 59.6343 73.6127 60.2235 74.9249C59.8736 73.713 60.0305 72.5783 60.6738 71.9994L60.6764 72.002Z" fill="#006A4D"/>
<path d="M65.3968 77.086L65.3973 77.966C65.4719 77.6032 65.4976 77.2043 65.4693 76.7849L65.461 76.7753C65.4456 76.8833 65.4232 76.9862 65.3974 77.084L65.3968 77.086Z" fill="#006A4D"/>
<path d="M60.9381 71.8084V70.9027C60.5393 70.8307 60.1582 70.8493 59.8057 70.9574L60.6779 72.0021C60.7551 71.9326 60.8374 71.8683 60.9275 71.8168C60.9326 71.8168 60.9352 71.8142 60.9404 71.8116L60.9381 71.8084Z" fill="#006A4D"/>
<path d="M64.5309 73.8339C65.0944 74.8091 65.4032 75.8254 65.4675 76.744C65.5833 75.8975 65.3595 74.8399 64.7831 73.8416C64.3225 73.044 63.7179 72.4239 63.09 72.0405C63.6252 72.5165 64.1218 73.1212 64.5335 73.8313L64.5309 73.8339Z" fill="black"/>
<path d="M65.3974 76.6975L65.3968 77.086C65.4225 76.9857 65.4463 76.8828 65.4617 76.7773L65.3974 76.7001V76.6975Z" fill="black"/>
<path d="M64.5309 73.8339C64.1218 73.1237 63.6226 72.5193 63.0874 72.0433C62.3335 71.5827 61.5461 71.4669 60.9389 71.8091C60.9338 71.8091 60.9312 71.8117 60.926 71.8143C60.836 71.8657 60.7537 71.9301 60.6765 71.9995C60.0306 72.5785 59.8737 73.7132 60.2262 74.9251C60.3446 75.3368 60.5195 75.7561 60.7562 76.1653C61.0804 76.7262 61.4741 77.197 61.8987 77.5624C62.8095 78.3446 63.8516 78.6302 64.6106 78.1928C65.0043 77.9664 65.2636 77.5729 65.3974 77.084L65.398 76.6953L65.4623 76.7725C65.4623 76.7725 65.4649 76.7543 65.4675 76.744C65.4006 75.8254 65.0944 74.8091 64.5309 73.8339Z" fill="black"/>
<path d="M76.785 77.7415C90.5918 82.0538 100.04 71.6537 99.6051 68.5017C99.6051 68.5017 99.8289 72.2918 94.4822 76.7714C92.6219 78.3307 89.3465 80.052 86.1045 80.914C80.8195 82.3189 79.2422 81.9432 77.755 80.3659C76.1649 78.6806 76.7798 77.7415 76.7798 77.7415H76.785Z" fill="black"/>
<path d="M87.11 79.0287C88.9806 77.6032 90.0304 75.2695 89.454 73.8157C88.8777 72.362 86.8913 72.3388 85.0207 73.7643C83.1501 75.1897 82.1004 77.5235 82.6767 78.9772C83.2531 80.431 85.2394 80.4541 87.11 79.0287Z" fill="#6CEE79"/>
<path d="M99.044 70.7695C99.327 69.658 99.0826 68.4178 98.5011 68.0035C97.9196 67.5893 97.2171 68.1527 96.9367 69.2669C96.6536 70.3784 96.8981 71.6186 97.4796 72.0329C98.0611 72.4471 98.7635 71.8836 99.044 70.7695Z" fill="#6CEE79"/>
<path d="M22.1302 29.5545L1.12154 16.7718C1.04434 16.7229 1.02376 16.6251 1.06493 16.5453L1.10352 16.4759C1.14984 16.3935 1.24761 16.3678 1.32738 16.409L23.0642 27.9078C24.8293 28.8418 26.157 30.172 25.9229 30.5811C25.6887 30.9928 23.8336 30.594 22.1251 29.5571V29.5494L22.1302 29.5545Z" fill="white"/>
<path d="M15.1004 33.2373L0.0456532 23.3621C-0.0109532 23.3261 -0.0135262 23.2334 0.0302151 23.1588L0.0688104 23.0893C0.117698 23.0121 0.197461 22.9735 0.254068 23.0044L16.0704 31.6137C17.3543 32.311 18.2369 33.4174 17.9925 33.8265C17.748 34.2356 16.3174 34.0375 15.0978 33.2347L15.1055 33.2399L15.1004 33.2373Z" fill="white"/>
<path d="M29.9364 27.3283L14.4314 18.1761C14.3774 18.1452 14.3619 18.05 14.4108 17.9729L14.4494 17.9034C14.4906 17.8236 14.5729 17.7825 14.6321 17.8133L30.8344 25.6636C32.1466 26.3017 33.0858 27.3592 32.8619 27.7786C32.6381 28.198 31.1998 28.0745 29.939 27.3361V27.3258L29.9364 27.3283Z" fill="white"/>
</svg>
