<svg width="100" height="100" viewBox="0 0 100 100" fill="none" xmlns="http://www.w3.org/2000/svg">
<rect width="100" height="100" fill="#024731"/>
<path d="M97.2511 33.09C97.2511 33.09 65.5303 14.7847 65.2845 14.7084C62.5726 13.1152 59.5048 12.8779 59.5048 12.8779L55.0979 12.4372C49.225 11.8101 46.2927 17.1406 46.2927 17.1406L11.8347 67.8956C11.0041 69.0057 11.2838 70.421 12.5465 71.1498L43.8181 89.2433C45.1826 90.0314 47.1995 89.7433 48.2843 88.5992L97.7595 36.607C98.8528 35.4629 98.624 33.8781 97.2511 33.09Z" fill="#11B67A"/>
<path d="M99.9376 36.887C99.3698 32.8192 94.9884 32.6836 94.9884 32.6836L91.4544 32.3361C88.5646 32.0564 85.7594 33.37 84.1323 35.7683L48.2928 88.5996C47.1996 89.7436 45.1911 90.0318 43.8267 89.2436L12.5551 71.1502C11.8601 70.7519 11.4788 70.1417 11.394 69.4891L11.3601 69.5146V75.735C11.4025 76.4384 11.8093 77.1079 12.5551 77.5401L43.8267 95.6336C45.1911 96.4217 47.2081 96.1336 48.2928 94.9895L97.7681 42.9973C97.7681 42.9973 100.438 40.4803 99.9376 36.887Z" fill="black"/>
<path d="M62.6487 59.3957L32.6991 42.065L45.64 22.5562L75.4285 39.7853C76.2336 40.2514 76.4794 41.3022 75.9624 42.0819L64.8097 58.8872C64.3352 59.5991 63.3945 59.8195 62.6487 59.3957Z" fill="black"/>
<path d="M52.6062 32.0479L24.8431 48.7769L35.1653 33.2937L46.3773 25.1071L52.6062 32.0479Z" fill="black"/>
<path d="M56.869 37.2009C54.2164 35.6161 51.157 35.2517 48.3773 35.9466L48.9282 38.1246C51.157 37.5653 53.5893 37.8534 55.7164 39.1246C57.8435 40.3958 59.2419 42.4043 59.8012 44.6332L61.9792 44.0823C61.2843 41.3026 59.5215 38.7856 56.869 37.2009Z" fill="#00482F"/>
<path d="M52.4367 44.5991C51.8265 44.2347 51.1231 44.15 50.479 44.311L51.1062 46.8195L53.6147 46.1924C53.4536 45.5483 53.0469 44.9635 52.4367 44.5991Z" fill="#00482F"/>
<path d="M54.6573 40.8957C53.0216 39.9211 51.1403 39.6923 49.4284 40.1245L49.9792 42.3025C51.1318 42.0143 52.403 42.1584 53.5047 42.8194C54.6064 43.4804 55.3352 44.5228 55.6234 45.6754L57.8014 45.133C57.3692 43.4211 56.2844 41.8787 54.6573 40.8957Z" fill="#00482F"/>
<path d="M58.2504 29.4713L47.4367 4.97944C46.9706 3.92858 45.8266 3.34383 44.6994 3.58959L1.27511 12.988C0.275095 13.2084 -0.27576 14.2847 0.1395 15.2253L10.8769 39.5562C11.343 40.607 12.4786 41.1918 13.5973 40.946L57.1064 31.7086C58.1064 31.4967 58.6657 30.412 58.2504 29.4713Z" fill="black"/>
<path d="M58.3098 28.946L47.5046 4.44564C47.0385 3.39477 45.8944 2.81002 44.7673 3.05579L1.33449 12.4542C0.334475 12.6746 -0.21638 13.7508 0.19888 14.6915L10.9363 39.0224C11.4024 40.0732 12.538 40.658 13.6567 40.4122L57.1657 31.1748C58.1658 30.9629 58.7251 29.8867 58.3098 28.946Z" fill="#6CF479"/>
<path d="M8.99557 34.6324L56.3182 24.4204L54.1063 19.3949L6.7752 29.6154L8.99557 34.6324Z" fill="black"/>
<path d="M64.437 35.6071L74.31 41.3444L66.0387 53.2175C66.0387 53.2175 70.4964 41.9546 64.437 35.5986V35.6071Z" fill="white"/>
<path d="M84.3187 32.7175C84.3187 32.7175 75.3779 28.5818 73.1745 21.0393L91.0561 31.1835C91.0561 31.1835 88.1238 29.9801 84.3187 32.7175Z" fill="white"/>
<path d="M39.3266 57.4296L45.4114 60.9466C45.9623 61.2686 46.6742 61.0991 47.0301 60.5652L48.4708 58.3957C48.8098 57.8872 48.6488 57.2092 48.1233 56.9041L42.0385 53.3871C41.4876 53.0651 40.7758 53.2346 40.4198 53.7685L38.9791 55.938C38.6401 56.4465 38.8012 57.1245 39.3266 57.4296Z" fill="#00482F"/>
<path d="M28.9364 51.4211L35.267 55.0821C35.8179 55.4042 36.5297 55.2347 36.8857 54.7008L38.3264 52.5312C38.6654 52.0228 38.5043 51.3448 37.9789 51.0397L31.6483 47.3786C31.0975 47.0566 30.3856 47.2261 30.0296 47.76L28.589 49.9295C28.25 50.438 28.411 51.116 28.9364 51.4211Z" fill="#00482F"/>
<path d="M59.0046 63.2009L52.1825 59.2517C51.6316 58.9296 50.9197 59.0991 50.5638 59.633L49.1231 61.8026C48.7841 62.311 48.9451 62.989 49.4706 63.2941L56.2927 67.2433C56.8436 67.5653 57.5554 67.3959 57.9114 66.8619L59.3521 64.6924C59.6911 64.1839 59.53 63.506 59.0046 63.2009Z" fill="#00482F"/>
<path d="M36.8349 61.2262C36.2841 60.9042 35.5722 61.0737 35.2163 61.6076L33.7756 63.7771C33.4366 64.2856 33.5976 64.9636 34.123 65.2687L40.2079 68.7857C40.7587 69.1077 41.4706 68.9382 41.8265 68.4043L43.2672 66.2348C43.6062 65.7263 43.4452 65.0483 42.9198 64.7432L36.8349 61.2262Z" fill="#00482F"/>
<path d="M23.7415 59.252L30.0721 62.913C30.623 63.2351 31.3349 63.0656 31.6908 62.5317L33.1315 60.3621C33.4705 59.8537 33.3095 59.1757 32.784 58.8706L26.4534 55.2095C25.9026 54.8875 25.1907 55.057 24.8348 55.5909L23.3941 57.7604C23.0551 58.2689 23.2161 58.9469 23.7415 59.252Z" fill="#00482F"/>
<path d="M53.8014 71.04L46.9793 67.0908C46.4285 66.7687 45.7166 66.9382 45.3606 67.4721L43.9199 69.6416C43.581 70.1501 43.742 70.8281 44.2674 71.1332L51.0895 75.0824C51.6404 75.4044 52.3523 75.2349 52.7082 74.701L54.1489 72.5315C54.4879 72.023 54.3269 71.3451 53.8014 71.04Z" fill="#00482F"/>
<path d="M37.7249 72.5823L31.64 69.0653C31.0892 68.7433 30.3773 68.9128 30.0214 69.4467L28.5807 71.6162C28.2417 72.1247 28.4027 72.8027 28.9281 73.1077L35.013 76.6247C35.5638 76.9468 36.2757 76.7773 36.6316 76.2434L38.0723 74.0739C38.4113 73.5654 38.2503 72.8874 37.7249 72.5823Z" fill="#00482F"/>
<path d="M27.5804 66.7097L21.2499 63.0486C20.699 62.7266 19.9871 62.8961 19.6312 63.43L18.1905 65.5995C17.8515 66.108 18.0125 66.786 18.538 67.0911L24.8685 70.7521C25.4194 71.0742 26.1313 70.9047 26.4872 70.3708L27.9279 68.2012C28.2669 67.6928 28.1059 67.0148 27.5804 66.7097Z" fill="#00482F"/>
<path d="M48.6061 78.8706L41.784 74.9214C41.2332 74.5993 40.5213 74.7688 40.1653 75.3027L38.7246 77.4722C38.3857 77.9807 38.5467 78.6587 39.0721 78.9638L45.8942 82.913C46.4451 83.235 47.157 83.0655 47.5129 82.5316L48.9536 80.3621C49.2926 79.8536 49.1316 79.1757 48.6061 78.8706Z" fill="#00482F"/>
</svg>
