<svg width="100" height="100" viewBox="0 0 100 100" fill="none" xmlns="http://www.w3.org/2000/svg">
<g clip-path="url(#clip0_15980_12856)">
<rect width="100" height="100" fill="#024731"/>
<path d="M59.427 85.6514C58.9677 85.1105 58.7126 84.4268 58.7126 83.7226V74.3237H38.8432V83.7226C38.8432 84.437 38.5983 85.1207 38.1289 85.6514L31.8833 92.9684C31.6078 93.295 31.4547 93.7134 31.4547 94.142V94.7543C31.4547 95.2544 31.8629 95.6626 32.363 95.6626H65.1929C65.6929 95.6626 66.1011 95.2544 66.1011 94.7543V94.142C66.1011 93.7134 65.948 93.295 65.6725 92.9684L59.427 85.6514Z" fill="#11B67A"/>
<path d="M97.1758 8.11343H2.7172C1.18643 8.11343 -0.0585938 9.35846 -0.0585938 10.8892V70.1504C-0.0585938 71.6811 1.18643 72.9262 2.7172 72.9262H97.1656C98.6964 72.9262 99.9414 71.6811 99.9414 70.1504V10.8994C99.9414 9.36866 98.6964 8.12364 97.1656 8.12364L97.1758 8.11343Z" fill="#11B67A"/>
<path d="M57.0902 85.3362L63.5296 92.6533H40.4252C40.4252 92.6533 56.6207 91.8777 57.08 85.3362H57.0902Z" fill="white"/>
<path d="M2.71751 6.73644H97.1761C97.615 6.73644 98.0436 6.81808 98.4416 6.96095C98.3599 5.59346 97.2169 4.51172 95.8393 4.51172H4.05438C2.66649 4.51172 1.53372 5.59346 1.45208 6.96095C1.86028 6.82828 2.27869 6.73644 2.71751 6.73644Z" fill="black"/>
<path d="M4.52356 12.6843V68.3635H95.3798V12.6843H4.52356Z" fill="black"/>
<path d="M92.543 42.6071H8.04462V65.2931H92.543V42.6071Z" fill="#6CF479"/>
<path d="M89.8376 51.5667L80.8061 47.403L66.9475 59.8022L58.3854 54.8119L45.527 56.955L42.69 49.8624L33.1992 46.709L24.5555 55.3528L18.7998 51.0462L10.2479 56.3223V57.9449L18.7181 52.7198L24.6677 57.1795L33.5666 48.2806L41.6388 50.9646L44.6493 58.5061L58.1201 56.261L67.1108 61.5065L81.0408 49.046L89.8172 53.0974V51.5667H89.8376Z" fill="#01482F"/>
<path d="M19.0448 21.0058L33.1381 33.585L41.7002 28.5947L54.5587 30.7377L57.3957 23.6452L66.8865 20.4918L75.5302 29.1355L81.2859 24.829L89.8378 30.105V31.7276L81.3675 26.5026L75.4179 30.9622L66.5191 22.0634L58.4468 24.7473L55.4363 32.2889L41.9655 30.0438L32.9748 35.2892L19.0448 22.8288V21.0058Z" fill="#6CF479"/>
<path d="M38.8537 74.3237V83.7226C38.8537 84.141 38.7516 84.5594 38.5781 84.9472H45.2523C46.9157 84.9472 48.4567 84.0288 49.2323 82.549L50.6406 79.9161C51.008 79.2221 51.7325 78.7935 52.5285 78.7935H58.7333V74.3339H38.8639L38.8537 74.3237Z" fill="black"/>
<path d="M8.17712 16.0832H21.9438C21.9438 16.0832 12.1469 20.8388 8.17712 39.6978V16.0832Z" fill="white"/>
</g>
<defs>
<clipPath id="clip0_15980_12856">
<rect width="100" height="100" fill="white"/>
</clipPath>
</defs>
</svg>
