<svg width="100" height="100" viewBox="0 0 100 100" fill="none" xmlns="http://www.w3.org/2000/svg">
<g clip-path="url(#clip0_15980_12868)">
<rect width="100" height="100" fill="#024731"/>
<path d="M53.4163 19.0562C31.2567 19.0562 13.0987 32.3594 11.4096 49.2632C12.8172 65.814 31.116 78.9558 53.4163 78.9558C75.7167 78.9558 94.0155 65.814 95.4231 49.2632C93.7339 32.3594 75.586 19.0562 53.4163 19.0562Z" fill="#6CF479"/>
<path d="M53.4162 14.0212C29.8691 14.0212 10.7861 28.8675 10.7861 47.1732C10.7861 48.4339 10.8866 49.6846 11.0676 50.9151C11.1682 50.2292 11.2989 49.5535 11.4597 48.8777C13.3801 32.1655 31.4275 19.054 53.4263 19.054C75.425 19.054 93.4724 32.1555 95.3928 48.8777C95.5436 49.5535 95.6844 50.2292 95.7849 50.9151C95.9659 49.6846 96.0664 48.444 96.0664 47.1732C96.0664 28.8675 76.9834 14.0212 53.4363 14.0212H53.4162Z" fill="#00482F"/>
<path d="M53.4161 15.4625C76.6314 15.4625 95.5133 29.7037 95.5133 47.2025C95.5133 64.7014 76.6314 78.9426 53.4161 78.9426C30.2008 78.9426 11.3189 64.7115 11.3189 47.2126C11.3189 29.7137 30.2008 15.4625 53.4161 15.4625ZM53.4161 11.0348C27.7274 11.0348 6.89498 27.2326 6.89498 47.2126C6.89498 67.1926 27.7174 83.3904 53.4161 83.3904C79.1148 83.3904 99.9372 67.1926 99.9372 47.2126C99.9372 27.2326 79.1048 11.0348 53.4161 11.0348Z" fill="#11B67A"/>
<path d="M70.8201 12.0945C70.7397 11.802 70.6894 11.5095 70.6995 11.2069C70.7899 9.26036 73.0119 7.6668 75.6663 7.6668C75.7769 7.6668 75.8875 7.6668 76.0081 7.6668C78.8133 7.808 81.0956 9.66379 81.0051 11.7314C80.9448 13.1232 79.7785 14.3234 78.1497 14.8983C79.5975 15.5842 80.985 16.3204 82.3323 17.1172C83.9208 15.796 84.9363 13.9704 85.0268 11.9028C85.2178 7.57603 81.2665 3.87454 76.2092 3.62239C76.0282 3.62239 75.8473 3.6123 75.6763 3.6123C70.8603 3.6123 66.8989 6.81959 66.6979 10.9749C68.1055 11.2977 69.4829 11.6608 70.8302 12.0743L70.8201 12.0945Z" fill="#11B67A"/>
<path d="M75.4555 42.4339C74.9829 42.2826 74.4199 42.2725 73.8971 42.4339L56.101 47.6684C57.388 48.2029 58.0013 49.2922 57.5991 50.321L75.3851 45.0864C76.4207 44.7839 76.9134 43.9367 76.5011 43.2105C76.3 42.8575 75.918 42.5852 75.4454 42.444" fill="#00482F"/>
<path d="M57.7195 49.0324H57.7094C57.7497 48.1953 57.1565 47.3784 56.1008 46.9447C55.9902 46.8942 55.8695 46.8539 55.7388 46.8136C55.2462 46.6623 54.7334 46.6018 54.2407 46.632L43.8346 26.8537C43.734 26.6621 43.5329 26.5209 43.2916 26.4503C43.0604 26.3797 42.7889 26.3696 42.5275 26.4402C42.0147 26.5814 41.7433 27.005 41.9444 27.3681L52.3505 47.1464C51.9383 47.3784 51.5965 47.691 51.3652 48.0541C51.1641 48.3769 51.0837 48.7097 51.0837 49.0324V50.2226C51.0535 51.1505 51.7975 52.0279 53.0543 52.4112C54.7334 52.9256 56.694 52.3708 57.438 51.1605C57.5084 51.0496 57.5586 50.9487 57.5989 50.8378C57.6793 50.626 57.7094 50.4243 57.7094 50.2125H57.7195V49.0224V49.0324Z" fill="black"/>
<path d="M68.8493 25.566C67.7333 25.223 66.4262 25.5962 65.9335 26.4031C65.4409 27.21 65.9336 28.1278 67.0596 28.4707C68.1857 28.8136 69.4827 28.4505 69.9754 27.6436C70.468 26.8368 69.9653 25.9089 68.8493 25.566Z" fill="black"/>
<path d="M41.2908 70.2273C40.1747 69.8844 38.8777 70.2576 38.375 71.0544C37.8723 71.8512 38.375 72.7891 39.5011 73.122C40.6272 73.4548 41.9342 73.0917 42.4269 72.2949C42.9195 71.4982 42.4068 70.5703 41.2908 70.2273Z" fill="black"/>
<path d="M23.9266 38.3467C22.8106 38.0038 21.4935 38.377 21.0008 39.1738C20.5082 39.9706 21.0209 40.8984 22.1369 41.2414C23.253 41.5843 24.56 41.2111 25.0527 40.4143C25.5453 39.6176 25.0527 38.6796 23.9266 38.3467Z" fill="black"/>
<path d="M86.2231 57.4467C85.1071 57.1038 83.79 57.477 83.2973 58.2738C82.8047 59.0705 83.3174 59.9984 84.4334 60.3414C85.5495 60.6843 86.8565 60.3111 87.3492 59.5143C87.8418 58.7175 87.3492 57.7796 86.2231 57.4467Z" fill="black"/>
<path d="M51.1437 23.75C50.8823 23.6694 50.6008 23.6391 50.2992 23.6694C49.3843 23.74 48.7307 24.335 48.8313 24.9805C48.8916 25.4142 49.2837 25.7672 49.8065 25.9286C50.0679 26.0093 50.3595 26.0395 50.6611 26.0194C51.5761 25.9387 52.2296 25.3537 52.1291 24.7082C52.0587 24.2745 51.6766 23.9215 51.1538 23.7601" fill="#00482F"/>
<path d="M58.5539 72.7654C58.2925 72.6847 58.0009 72.6544 57.6993 72.6746C56.7944 72.7553 56.1308 73.3403 56.2314 73.9858C56.3017 74.4195 56.6838 74.7725 57.2066 74.9338C57.468 75.0145 57.7596 75.0448 58.0612 75.0246C58.9661 74.9439 59.6197 74.3589 59.5292 73.7135C59.4588 73.2798 59.0767 72.9268 58.5539 72.7654Z" fill="#00482F"/>
<path d="M34.4338 28.4969C33.9109 28.3355 33.2775 28.3759 32.7848 28.6381C32.0509 29.0314 31.89 29.7778 32.4229 30.2922C32.6039 30.4636 32.8351 30.5947 33.0965 30.6754C33.6194 30.8368 34.2528 30.7965 34.7454 30.5342C35.4794 30.1409 35.6403 29.3945 35.1074 28.8802C34.9264 28.7087 34.6952 28.5776 34.4338 28.4969Z" fill="#00482F"/>
<path d="M75.2639 68.0128C74.7411 67.8514 74.1076 67.8918 73.615 68.154C72.871 68.5372 72.7101 69.2836 73.253 69.8081C73.434 69.9795 73.6653 70.1106 73.9166 70.1913C74.4394 70.3527 75.0728 70.3123 75.5655 70.0501C76.3095 69.6568 76.4704 68.9205 75.9275 68.396C75.7465 68.2246 75.5152 68.0935 75.2538 68.0128" fill="#00482F"/>
<path d="M82.8047 33.461C82.2819 33.2996 81.6485 33.34 81.1558 33.6022C80.4219 33.9956 80.261 34.7318 80.7939 35.2563C80.9748 35.4277 81.2061 35.5589 81.4675 35.6395C81.9903 35.8009 82.6237 35.7606 83.1164 35.4983C83.8504 35.105 84.0112 34.3586 83.4783 33.8443C83.2974 33.6728 83.0661 33.5417 82.8047 33.461Z" fill="#00482F"/>
<path d="M26.8929 63.0566C26.3701 62.8952 25.7467 62.9355 25.244 63.1978C24.5 63.5911 24.3391 64.3274 24.8821 64.8518C25.063 65.0233 25.2943 65.1544 25.5456 65.2351C26.0685 65.3965 26.6918 65.3561 27.1945 65.0939C27.9386 64.7106 28.0994 63.9643 27.5565 63.4398C27.3755 63.2684 27.1443 63.1372 26.8829 63.0566" fill="#00482F"/>
<path d="M89.2694 45.3242C89.008 45.2435 88.7164 45.2133 88.4248 45.2435C87.5099 45.3141 86.8564 45.9092 86.9569 46.5547C87.0172 46.9884 87.4093 47.3414 87.9322 47.5028C88.1936 47.5834 88.4852 47.6137 88.7868 47.5935C89.7017 47.5229 90.3553 46.9279 90.2547 46.2824C90.1944 45.8487 89.8023 45.4957 89.2794 45.3343" fill="#00482F"/>
<path d="M20.4279 51.1912C20.1665 51.1105 19.875 51.0803 19.5733 51.1004C18.6685 51.1811 18.0149 51.7661 18.1054 52.4116C18.1758 52.8453 18.5579 53.1983 19.0807 53.3597C19.3421 53.4404 19.6337 53.4706 19.9353 53.4504C20.8402 53.3698 21.5038 52.7848 21.4032 52.1393C21.3328 51.7056 20.9508 51.3526 20.4279 51.1912Z" fill="#00482F"/>
<path d="M20.5486 53.5534C20.5486 43.044 30.0901 34.1383 43.3014 31.0117C43.593 27.0177 47.4438 23.7095 52.6318 22.6808C52.5916 22.6808 52.5514 22.6808 52.5212 22.6808C32.4227 22.6808 16.1348 34.461 16.1348 48.9947C16.1348 56.5388 20.5285 63.3266 27.5464 68.1274C23.1627 64.1032 20.5486 59.0502 20.5486 53.5534Z" fill="white"/>
<path d="M5.54778 50.141C1.96846 54.5787 -0.0625 59.6418 -0.0625 65.0175C-0.0625 82.466 21.2827 96.3138 47.6048 96.6063C57.267 96.7172 67.6128 95.3052 76.9029 91.2507V80.0656C69.9554 83.1317 61.9422 84.8967 53.4162 84.8967C28.19 84.8967 7.46815 69.5562 5.54778 50.141Z" fill="black"/>
<path d="M86.1126 86.0483C86.7561 85.5844 87.3996 85.1104 88.0229 84.6061C88.6563 84.0614 89.2596 83.4966 89.8428 82.9217V71.7467C88.6664 72.8158 87.4197 73.8344 86.1126 74.8027V86.0584V86.0483Z" fill="black"/>
<path d="M93.1609 68.3342V79.2269C97.4541 73.7503 99.9375 67.3155 99.9375 60.4269V56.5943C98.54 60.8404 96.2174 64.8042 93.1609 68.3342Z" fill="black"/>
</g>
<defs>
<clipPath id="clip0_15980_12868">
<rect width="100" height="100" fill="white"/>
</clipPath>
</defs>
</svg>
