<svg width="100" height="100" viewBox="0 0 100 100" fill="none" xmlns="http://www.w3.org/2000/svg">
<g clip-path="url(#clip0_15980_12898)">
<rect width="100" height="100" fill="#024731"/>
<path fill-rule="evenodd" clip-rule="evenodd" d="M24.0496 38.0349L32.2507 33.5557C32.77 33.2636 33.3542 33.2636 33.8627 33.5557L41.9772 37.8618C42.4965 38.1539 37.5413 35.7629 33.2893 35.6547C29.3186 35.5465 23.5303 38.3379 24.0388 38.0457L24.0496 38.0349Z" fill="white"/>
<path fill-rule="evenodd" clip-rule="evenodd" d="M36.199 14.2974L48.4031 21.3516C48.9224 21.6437 49.2146 22.163 49.2146 22.7473V36.8556C49.2146 37.4398 48.9224 37.9592 48.4031 38.2513C47.8838 38.5434 47.2995 38.5434 46.791 38.2513L34.5869 31.1971C34.0676 30.905 33.7754 30.3857 33.7754 29.8014V15.6931C33.7754 15.1088 34.0676 14.5895 34.5869 14.2974C35.1062 14.0053 35.6904 14.0053 36.199 14.2974Z" fill="black"/>
<path fill-rule="evenodd" clip-rule="evenodd" d="M51.489 21.3625L63.704 14.3083C64.2233 14.0162 64.8076 14.0162 65.3161 14.3083C65.8354 14.6004 66.1275 15.1198 66.1275 15.704V29.8124C66.1275 30.3966 65.8354 30.9159 65.3161 31.208L53.1011 38.2622C52.5818 38.5543 51.9975 38.5543 51.489 38.2622C50.9697 37.9701 50.6776 37.4508 50.6776 36.8665V22.7582C50.6776 22.1739 50.9697 21.6546 51.489 21.3625Z" fill="#11B67A"/>
<path fill-rule="evenodd" clip-rule="evenodd" d="M36.9147 10.2841L49.1296 3.21909C49.649 2.92697 50.2332 2.92697 50.7417 3.21909L62.9567 10.2733C63.476 10.5654 63.7681 11.0847 63.7681 11.6798C63.7681 12.264 63.476 12.7833 62.9567 13.0755L50.7417 20.1296C50.2224 20.4218 49.6381 20.4218 49.1296 20.1296L36.9147 13.0755C36.3953 12.7833 36.1032 12.264 36.1032 11.6798C36.1032 11.0739 36.3953 10.5654 36.9147 10.2733V10.2841Z" fill="#6CF479"/>
<path fill-rule="evenodd" clip-rule="evenodd" d="M40.9715 9.11571L49.1725 4.63653C49.6918 4.34441 50.276 4.34441 50.7846 4.63653L58.899 8.9426C59.4183 9.23472 54.4631 6.84366 50.2111 6.73547C46.2405 6.62728 40.4521 9.41865 40.9606 9.12653L40.9715 9.11571Z" fill="white"/>
<path fill-rule="evenodd" clip-rule="evenodd" d="M64.9793 16.5701L64.6764 28.4281C64.6764 29.1854 64.2977 29.8238 63.6485 30.2024L53.7597 36.3694C53.1106 36.7481 58.8772 32.8315 61.7119 28.2333C64.3518 23.9381 64.9793 15.802 64.9793 16.5593V16.5701Z" fill="#035D3E"/>
<path fill-rule="evenodd" clip-rule="evenodd" d="M19.2792 43.2712L21.8326 44.7535L31.4725 50.3254C31.9919 50.6175 32.284 51.1369 32.284 51.7211V65.8295C32.284 66.4137 31.9919 66.933 31.4725 67.2251C30.9532 67.5173 30.369 67.5173 29.8605 67.2251L17.6563 60.171C17.137 59.8788 16.8449 59.3595 16.8449 58.7753V44.6778C16.8449 44.0719 17.137 43.5634 17.6563 43.2712C18.1756 42.9791 18.7599 42.9791 19.2684 43.2712H19.2792Z" fill="black"/>
<path fill-rule="evenodd" clip-rule="evenodd" d="M34.565 50.3254L46.78 43.2712C47.2993 42.9791 47.8836 42.9791 48.3921 43.2712C48.9114 43.5634 49.2035 44.0827 49.2035 44.6778V58.7753C49.2035 59.3595 48.9114 59.8788 48.3921 60.171L36.1771 67.2251C35.6578 67.5173 35.0735 67.5173 34.565 67.2251C34.0565 66.933 33.7536 66.4137 33.7536 65.8295V51.7211C33.7536 51.1369 34.0457 50.6175 34.565 50.3254Z" fill="#11B67A"/>
<path fill-rule="evenodd" clip-rule="evenodd" d="M20.0038 39.2034L32.2188 32.1492C32.7381 31.8571 33.3223 31.8571 33.8308 32.1492L46.0458 39.2034C46.5651 39.4955 46.8572 40.0148 46.8572 40.6099C46.8572 41.205 46.5651 41.7135 46.0458 42.0056L33.8308 49.0598C33.3115 49.3519 32.7273 49.3519 32.2188 49.0598L20.0038 42.0056C19.4845 41.7135 19.1923 41.1941 19.1923 40.6099C19.1923 40.0257 19.4845 39.4955 20.0038 39.2034Z" fill="#6CF479"/>
<path fill-rule="evenodd" clip-rule="evenodd" d="M48.5449 45.8784L48.242 57.7363C48.242 58.4937 47.8633 59.132 47.2141 59.5107L37.3253 65.6777C36.6762 66.0564 42.4428 62.1398 45.2775 57.5416C47.9174 53.2463 48.5449 45.1102 48.5449 45.8676V45.8784Z" fill="#035D3E"/>
<path fill-rule="evenodd" clip-rule="evenodd" d="M2.35711 72.2243L4.91047 73.7065L14.5504 79.2785C15.0698 79.5706 15.3619 80.0899 15.3619 80.6742V94.7825C15.3619 95.3667 15.0698 95.8861 14.5504 96.1782C14.0311 96.4703 13.4469 96.4703 12.9384 96.1782L0.734221 89.124C0.225715 88.8319 -0.0664062 88.3126 -0.0664062 87.7283V73.6308C-0.0664062 73.0249 0.225714 72.5164 0.74504 72.2243C1.26437 71.9322 1.84861 71.9322 2.35711 72.2243Z" fill="black"/>
<path fill-rule="evenodd" clip-rule="evenodd" d="M17.645 79.2785L29.86 72.2243C30.3793 71.9322 30.9635 71.9322 31.472 72.2243C31.9914 72.5164 32.2835 73.0357 32.2835 73.6308V87.7283C32.2835 88.3126 31.9914 88.8319 31.472 89.124L19.2571 96.1782C18.7377 96.4703 18.1535 96.4703 17.645 96.1782C17.1365 95.8861 16.8336 95.3667 16.8336 94.7825V80.6742C16.8336 80.0899 17.1257 79.5706 17.645 79.2785Z" fill="#11B67A"/>
<path fill-rule="evenodd" clip-rule="evenodd" d="M3.08157 68.1444L15.2965 61.0903C15.8159 60.7981 16.4001 60.7981 16.9086 61.0903L29.1236 68.1444C29.6429 68.4365 29.935 68.9559 29.935 69.5509C29.935 70.1352 29.6429 70.6545 29.1236 70.9466L16.9086 78.0008C16.3893 78.2929 15.805 78.2929 15.2965 78.0008L3.08157 70.9466C2.56225 70.6545 2.27012 70.1352 2.27012 69.5509C2.27012 68.9667 2.56225 68.4365 3.08157 68.1444Z" fill="#6CF479"/>
<path fill-rule="evenodd" clip-rule="evenodd" d="M7.13836 66.9869L15.3394 62.5077C15.8587 62.2156 16.4429 62.2156 16.9515 62.5077L25.0659 66.8138C25.5852 67.1059 20.63 64.7148 16.378 64.6066C12.4074 64.4984 6.61903 67.2898 7.12754 66.9977L7.13836 66.9869Z" fill="white"/>
<path fill-rule="evenodd" clip-rule="evenodd" d="M31.6227 74.8205L31.3198 86.6785C31.3198 87.4358 30.9411 88.0741 30.2919 88.4528L20.4031 94.6198C19.7539 94.9985 25.5206 91.0819 28.3553 86.4837C30.9952 82.1885 31.6227 74.0524 31.6227 74.8097V74.8205Z" fill="#035D3E"/>
<path fill-rule="evenodd" clip-rule="evenodd" d="M53.1134 43.2175L65.3176 50.2716C65.8369 50.5638 66.129 51.0831 66.129 51.6673V65.7757C66.129 66.3599 65.8369 66.8792 65.3176 67.1714C64.7982 67.4635 64.214 67.4635 63.7055 67.1714L51.5013 60.1172C50.982 59.8251 50.6899 59.3057 50.6899 58.7215V44.6132C50.6899 44.0289 50.982 43.5096 51.5013 43.2175C52.0207 42.9253 52.6049 42.9253 53.1134 43.2175Z" fill="black"/>
<path fill-rule="evenodd" clip-rule="evenodd" d="M68.4013 50.2826L80.6163 43.2284C81.1356 42.9363 81.7198 42.9363 82.2283 43.2284C82.7477 43.5205 83.0398 44.0398 83.0398 44.6241V58.7324C83.0398 59.3167 82.7477 59.836 82.2283 60.1281L70.0134 67.1823C69.494 67.4744 68.9098 67.4744 68.4013 67.1823C67.882 66.8902 67.5898 66.3708 67.5898 65.7866V51.6783C67.5898 51.094 67.882 50.5747 68.4013 50.2826Z" fill="#11B67A"/>
<path fill-rule="evenodd" clip-rule="evenodd" d="M53.8379 39.2032L66.0528 32.149C66.5722 31.8569 67.1564 31.8569 67.6649 32.149L79.8799 39.2032C80.3992 39.4953 80.6913 40.0146 80.6913 40.6097C80.6913 41.2047 80.3992 41.7132 79.8799 42.0054L67.6649 49.0595C67.1456 49.3517 66.5613 49.3517 66.0528 49.0595L53.8379 42.0054C53.3185 41.7132 53.0264 41.1939 53.0264 40.6097C53.0264 40.0038 53.3185 39.4953 53.8379 39.2032Z" fill="#6CF479"/>
<path fill-rule="evenodd" clip-rule="evenodd" d="M57.8859 38.0347L66.0869 33.5555C66.6062 33.2634 67.1905 33.2634 67.699 33.5555L75.8135 37.8616C76.3328 38.1537 71.3775 35.7626 67.1256 35.6544C63.1549 35.5463 57.3666 38.3376 57.8751 38.0455L57.8859 38.0347Z" fill="white"/>
<path fill-rule="evenodd" clip-rule="evenodd" d="M24.0663 38.0347L32.2673 33.5555C32.7867 33.2634 33.3709 33.2634 33.8794 33.5555L41.9939 37.8616C42.5132 38.1537 37.558 35.7626 33.306 35.6544C29.3353 35.5463 23.547 38.3376 24.0555 38.0455L24.0663 38.0347Z" fill="white"/>
<path fill-rule="evenodd" clip-rule="evenodd" d="M81.8938 45.4891L81.5908 57.347C81.5908 58.1044 81.2121 58.7427 80.563 59.1214L70.6742 65.2884C70.025 65.6671 75.7917 61.7505 78.6263 57.1523C81.2663 52.857 81.8938 44.7209 81.8938 45.4783V45.4891Z" fill="#035D3E"/>
<path fill-rule="evenodd" clip-rule="evenodd" d="M36.191 72.1915L38.7443 73.6738L48.3843 79.2457C48.9036 79.5378 49.1958 80.0571 49.1958 80.6414V94.7497C49.1958 95.334 48.9036 95.8533 48.3843 96.1454C47.865 96.4375 47.2808 96.4375 46.7723 96.1454L34.5681 89.0912C34.0488 88.7991 33.7566 88.2798 33.7566 87.6955V73.598C33.7566 72.9921 34.0488 72.4836 34.5681 72.1915C35.0874 71.8994 35.6717 71.8994 36.1802 72.1915H36.191Z" fill="black"/>
<path fill-rule="evenodd" clip-rule="evenodd" d="M51.4812 79.2457L63.6961 72.1915C64.2155 71.8994 64.7997 71.8994 65.3082 72.1915C65.8275 72.4836 66.1197 73.003 66.1197 73.598V87.6955C66.1197 88.2798 65.8275 88.7991 65.3082 89.0912L53.0932 96.1454C52.5739 96.4375 51.9897 96.4375 51.4812 96.1454C50.9727 95.8533 50.6697 95.334 50.6697 94.7497V80.6414C50.6697 80.0571 50.9618 79.5378 51.4812 79.2457Z" fill="#11B67A"/>
<path fill-rule="evenodd" clip-rule="evenodd" d="M36.9156 68.1237L49.1305 61.0695C49.6499 60.7774 50.2341 60.7774 50.7426 61.0695L62.9576 68.1237C63.4769 68.4158 63.769 68.9351 63.769 69.5302C63.769 70.1144 63.4769 70.6337 62.9576 70.9259L50.7426 77.98C50.2233 78.2722 49.639 78.2722 49.1305 77.98L36.9156 70.9259C36.3962 70.6337 36.1041 70.1144 36.1041 69.5302C36.1041 68.9243 36.3962 68.4158 36.9156 68.1237Z" fill="#6CF479"/>
<path fill-rule="evenodd" clip-rule="evenodd" d="M65.4567 74.7987L65.1537 86.6566C65.1537 87.414 64.7751 88.0523 64.1259 88.431L54.2371 94.598C53.5879 94.9766 59.3546 91.0601 62.1893 86.4619C64.8292 82.1666 65.4567 74.0305 65.4567 74.7878V74.7987Z" fill="#035D3E"/>
<path fill-rule="evenodd" clip-rule="evenodd" d="M70.0097 72.1806L82.2139 79.2348C82.7332 79.5269 83.0254 80.0462 83.0254 80.6305V94.7388C83.0254 95.3231 82.7332 95.8424 82.2139 96.1345C81.6946 96.4266 81.1103 96.4266 80.6018 96.1345L68.3977 89.0803C67.8783 88.7882 67.5862 88.2689 67.5862 87.6847V73.5763C67.5862 72.9921 67.8783 72.4727 68.3977 72.1806C68.917 71.8885 69.5012 71.8885 70.0097 72.1806Z" fill="black"/>
<path fill-rule="evenodd" clip-rule="evenodd" d="M85.2954 79.2457L97.5104 72.1916C98.0297 71.8994 98.614 71.8994 99.1225 72.1916C99.6418 72.4837 99.9339 73.003 99.9339 73.5872V87.6956C99.9339 88.2798 99.6418 88.7991 99.1225 89.0913L86.9075 96.1454C86.3882 96.4376 85.8039 96.4376 85.2954 96.1454C84.7761 95.8533 84.484 95.334 84.484 94.7498V80.6414C84.484 80.0572 84.7761 79.5378 85.2954 79.2457Z" fill="#11B67A"/>
<path fill-rule="evenodd" clip-rule="evenodd" d="M70.7342 68.1663L82.9492 61.1122C83.4685 60.82 84.0527 60.82 84.5612 61.1122L96.7762 68.1663C97.2955 68.4585 97.5877 68.9778 97.5877 69.5728C97.5877 70.1679 97.2955 70.6764 96.7762 70.9685L84.5612 78.0227C84.0419 78.3148 83.4577 78.3148 82.9492 78.0227L70.7342 70.9685C70.2149 70.6764 69.9228 70.1571 69.9228 69.5728C69.9228 68.9669 70.2149 68.4585 70.7342 68.1663Z" fill="#6CF479"/>
<path fill-rule="evenodd" clip-rule="evenodd" d="M74.791 66.9978L82.992 62.5187C83.5113 62.2265 84.0956 62.2265 84.6041 62.5187L92.7186 66.8247C93.2379 67.1169 88.2826 64.7258 84.0307 64.6176C80.06 64.5094 74.2717 67.3008 74.7802 67.0087L74.791 66.9978Z" fill="white"/>
<path fill-rule="evenodd" clip-rule="evenodd" d="M98.7988 74.4523L98.4959 86.3102C98.4959 87.0676 98.1172 87.7059 97.4681 88.0846L87.5792 94.2516C86.9301 94.6302 92.6968 90.7137 95.5314 86.1155C98.1713 81.8202 98.7988 73.6841 98.7988 74.4415V74.4523Z" fill="#035D3E"/>
<path fill-rule="evenodd" clip-rule="evenodd" d="M40.9719 66.9871L49.1729 62.5079C49.6922 62.2158 50.2764 62.2158 50.785 62.5079L58.8994 66.814C59.4187 67.1061 54.4635 64.715 50.2115 64.6068C46.2409 64.4986 40.4525 67.29 40.961 66.9979L40.9719 66.9871Z" fill="white"/>
</g>
<defs>
<clipPath id="clip0_15980_12898">
<rect width="100" height="100" fill="white"/>
</clipPath>
</defs>
</svg>
