<svg width="100" height="100" viewBox="0 0 100 100" fill="none" xmlns="http://www.w3.org/2000/svg">
<g clip-path="url(#clip0_15980_12924)">
<rect width="100" height="100" fill="#024731"/>
<path d="M51.2517 99.1418L17.3877 79.5194C15.8276 78.6164 15.5241 76.4892 16.7636 75.1869L57.6657 32.1217C59.0438 30.6717 61.2454 30.3505 62.9789 31.3576L97.0508 51.1016C98.611 52.0046 98.9144 54.1318 97.675 55.4342L56.9376 98.3257C55.4555 99.8799 53.1065 100.218 51.2517 99.1418Z" fill="black"/>
<path d="M51.2517 96.995L17.3877 77.3725C15.8276 76.4695 15.5241 74.3423 16.7636 73.04L57.6657 29.9748C59.0438 28.5248 61.2454 28.2036 62.9789 29.2108L97.0508 48.9548C98.611 49.8577 98.9144 51.9849 97.675 53.2873L56.9376 96.1788C55.4555 97.733 53.1065 98.0716 51.2517 96.995Z" fill="#6CF479"/>
<path d="M51.2517 96.995L17.3877 77.3725C15.8276 76.4695 15.5241 74.3423 16.7636 73.04L57.6657 29.9748C59.0438 28.5248 61.2454 28.2036 62.9789 29.2108L97.0508 48.9548C98.611 49.8577 98.9144 51.9849 97.675 53.2873L56.9376 96.1788C55.4555 97.733 53.1065 98.0716 51.2517 96.995Z" fill="black"/>
<path d="M81.7352 37.8315L31.4462 90.7773L39.403 95.3877L89.6919 42.4505L81.7352 37.8315Z" fill="black"/>
<path d="M55.828 66.1438L9.2227 81.5379L32.3736 48.9525L58.1162 53.9623L62.9787 61.6984L55.828 66.1438Z" fill="black"/>
<path d="M68.7169 47.965L55.5769 6.20224C55.0915 4.65676 53.4187 3.63224 51.8326 3.91008L24.5212 8.79833L16.079 7.522L14.5275 10.7519C14.1548 11.4291 14.0508 12.1845 14.2935 12.9833L30.5624 64.6875C31.0478 66.233 32.7206 67.2575 34.3068 66.9797L70.1816 60.5633C71.0397 60.407 71.6811 59.8948 72.0191 59.2175L73.718 55.7706L68.7169 47.965Z" fill="black"/>
<path d="M35.9709 63.5425L71.8458 57.1262C73.4233 56.8396 74.3074 55.3636 73.822 53.8094L57.5531 2.10519C57.0677 0.55971 55.3948 -0.46481 53.8086 -0.18697L17.9339 6.22938C16.3564 6.5159 15.4723 7.99193 15.9577 9.54609L32.2266 61.2503C32.712 62.7958 34.3848 63.8203 35.9709 63.5425Z" fill="#11B67A"/>
<path d="M23.6632 18.7151L56.149 12.8978C56.7818 12.785 57.1457 12.1859 56.9464 11.5607L54.7276 4.50187C54.5282 3.87673 53.8521 3.46865 53.2194 3.58152L20.7336 9.3988C20.1008 9.51167 19.7368 10.1107 19.9361 10.7359L22.1551 17.7948C22.3544 18.4199 23.0305 18.828 23.6632 18.7151Z" fill="black"/>
<path d="M37.1674 29.8724L41.5098 29.091C42.0818 28.9868 42.4025 28.4485 42.2292 27.8928L40.8857 23.6384C40.7124 23.0741 40.1056 22.7094 39.5249 22.8049L35.1825 23.5863C34.6104 23.6905 34.2897 24.2288 34.4631 24.7845L35.8066 29.0389C35.9799 29.6033 36.5866 29.968 37.1674 29.8724Z" fill="#6CF479"/>
<path d="M27.945 31.5208L32.2874 30.7393C32.8595 30.6352 33.1801 30.0968 33.0068 29.5412L31.6634 25.2867C31.49 24.7224 30.8833 24.3577 30.3025 24.4532L25.9601 25.2346C25.388 25.3388 25.0674 25.8772 25.2407 26.4328L26.5842 30.6873C26.7576 31.2516 27.3643 31.6163 27.945 31.5208Z" fill="#6CF479"/>
<path d="M46.3808 28.2208L50.7233 27.4393C51.2953 27.3352 51.616 26.7968 51.4426 26.2412L50.0992 21.9867C49.9259 21.4224 49.3191 21.0577 48.7384 21.1532L44.3959 21.9347C43.8239 22.0388 43.5032 22.5771 43.6766 23.1328L45.0201 27.3873C45.1934 27.9516 45.8001 28.3163 46.3808 28.2208Z" fill="#6CF479"/>
<path d="M55.6028 26.5724L59.9452 25.791C60.5173 25.6868 60.8379 25.1485 60.6646 24.5928L59.3212 20.3384C59.1478 19.774 58.541 19.4094 57.9603 19.5049L53.6179 20.2863C53.0458 20.3905 52.7251 20.9288 52.8985 21.4845L54.2419 25.7389C54.4152 26.3033 55.022 26.668 55.6028 26.5724Z" fill="#6CF479"/>
<path d="M65.1286 38.7808L69.3236 52.0303C69.497 52.5946 69.1763 53.1329 68.6042 53.2284L64.2618 54.0099C63.6897 54.1141 63.0831 53.7407 62.9011 53.1763L58.7059 39.9269C58.5325 39.3625 58.8533 38.8242 59.4254 38.7287L63.7678 37.9473C64.3399 37.8431 64.9465 38.2164 65.1286 38.7808Z" fill="#6CF479"/>
<path d="M42.9743 48.3227L47.3168 47.5413C47.8888 47.4371 48.2096 46.8988 48.0362 46.3431L46.6927 42.0887C46.5194 41.5244 45.9127 41.1597 45.332 41.2552L40.9895 42.0366C40.4175 42.1408 40.0967 42.6791 40.2701 43.2348L41.6136 47.4892C41.7869 48.0536 42.3936 48.4182 42.9743 48.3227Z" fill="#00482F"/>
<path d="M52.1878 46.6711L56.5302 45.8896C57.1023 45.7854 57.4231 45.2471 57.2497 44.6914L55.9062 40.437C55.7328 39.8727 55.1262 39.508 54.5454 39.6035L50.203 40.3849C49.631 40.4891 49.3102 41.0274 49.4835 41.5831L50.827 45.8375C51.0004 46.4019 51.6071 46.7666 52.1878 46.6711Z" fill="#00482F"/>
<path d="M33.804 49.9982L38.1465 49.2168C38.7185 49.1126 39.0392 48.5743 38.8658 48.0186L37.5224 43.7642C37.3491 43.1998 36.7423 42.8351 36.1616 42.9307L31.8191 43.7121C31.2471 43.8163 30.9264 44.3546 31.0998 44.9103L32.4433 49.1647C32.6166 49.729 33.2233 50.0937 33.804 49.9982Z" fill="#00482F"/>
<path d="M45.8696 57.5445L50.212 56.7631C50.7841 56.6589 51.1047 56.1206 50.9314 55.5649L49.5879 51.3105C49.4145 50.7461 48.8078 50.3815 48.2271 50.477L43.8847 51.2584C43.3126 51.3626 42.992 51.9009 43.1653 52.4566L44.5087 56.711C44.6821 57.2753 45.2888 57.64 45.8696 57.5445Z" fill="#00482F"/>
<path d="M55.0915 55.8928L59.4339 55.1114C60.006 55.0072 60.3267 54.4689 60.1533 53.9132L58.8098 49.6588C58.6365 49.0944 58.0298 48.7297 57.449 48.8253L53.1066 49.6067C52.5346 49.7109 52.2139 50.2492 52.3872 50.8049L53.7306 55.0593C53.904 55.6236 54.5108 55.9883 55.0915 55.8928Z" fill="#00482F"/>
<path d="M36.7077 59.22L41.0502 58.4385C41.6222 58.3343 41.943 57.796 41.7696 57.2403L40.4261 52.9859C40.2528 52.4216 39.6461 52.0569 39.0654 52.1524L34.7229 52.9338C34.1509 53.038 33.8301 53.5763 34.0035 54.132L35.347 58.3864C35.5203 58.9508 36.127 59.3155 36.7077 59.22Z" fill="#00482F"/>
<path d="M40.0706 39.0942L44.4131 38.3128C44.9851 38.2086 45.3059 37.6703 45.1325 37.1146L43.789 32.8602C43.6157 32.2958 43.0089 31.9312 42.4282 32.0267L38.0858 32.8081C37.5138 32.9123 37.193 33.4506 37.3664 34.0063L38.7099 38.2607C38.8832 38.8251 39.4899 39.1897 40.0706 39.0942Z" fill="#00482F"/>
<path d="M30.8487 40.7425L35.1911 39.9611C35.7632 39.8569 36.0839 39.3186 35.9106 38.7629L34.5671 34.5085C34.3937 33.9441 33.7871 33.5795 33.2063 33.675L28.8639 34.4564C28.2918 34.5606 27.9711 35.0989 28.1444 35.6546L29.4879 39.909C29.6613 40.4734 30.268 40.838 30.8487 40.7425Z" fill="#00482F"/>
<path d="M49.2841 37.4425L53.6265 36.6611C54.1986 36.5569 54.5192 36.0186 54.3459 35.4629L53.0025 31.2085C52.8291 30.6441 52.2224 30.2795 51.6416 30.375L47.2993 31.1564C46.7272 31.2606 46.4065 31.7989 46.5798 32.3546L47.9233 36.609C48.0967 37.1733 48.7034 37.538 49.2841 37.4425Z" fill="#00482F"/>
<path d="M58.5065 35.7942L62.8489 35.0128C63.421 34.9086 63.7416 34.3703 63.5683 33.8146L62.2249 29.5602C62.0515 28.9958 61.4447 28.6311 60.864 28.7266L56.5216 29.5081C55.9495 29.6123 55.6288 30.1506 55.8022 30.7062L57.1457 34.9607C57.3191 35.5251 57.9257 35.8897 58.5065 35.7942Z" fill="#00482F"/>
<path d="M23.6632 18.7151L56.149 12.8978C56.7818 12.785 57.1457 12.1859 56.9464 11.5607L54.7276 4.50187C54.5282 3.87673 53.8521 3.46865 53.2194 3.58152L20.7336 9.3988C20.1008 9.51167 19.7368 10.1107 19.9361 10.7359L22.1551 17.7948C22.3544 18.4199 23.0305 18.828 23.6632 18.7151Z" fill="black"/>
<path d="M23.0042 19.8272L55.4901 14.01C56.1228 13.8971 56.4869 13.298 56.2875 12.6729L53.9299 5.18855C53.8086 4.79784 53.3925 4.54604 52.9938 4.6155L20.0746 10.5109C19.4419 10.6238 19.0778 11.2229 19.2772 11.848L21.4961 18.9069C21.6955 19.532 22.3715 19.9401 23.0042 19.8272Z" fill="#2F8260"/>
<path d="M10.731 66.5798C4.80237 61.7783 5.63445 52.8788 12.3518 46.0196C10.6096 41.7912 12.1005 36.2692 16.2869 31.4417C12.4905 34.0291 8.90209 37.5802 5.94647 41.7565C-1.5336 52.3231 0.693939 65.9112 9.72549 69.8965C13.9726 71.7719 19.0777 71.4072 24.0269 69.2974C18.9824 70.1483 14.1026 69.306 10.731 66.5798Z" fill="white"/>
</g>
<defs>
<clipPath id="clip0_15980_12924">
<rect width="100" height="100" fill="white"/>
</clipPath>
</defs>
</svg>
