<svg width="100" height="100" viewBox="0 0 100 100" fill="none" xmlns="http://www.w3.org/2000/svg">
<g clip-path="url(#clip0_15980_2164)">
<rect width="100" height="100" fill="#024731"/>
<path d="M49.9414 78.2676C77.5556 78.2676 99.9414 69.763 99.9414 59.2721C99.9414 48.7811 77.5556 40.2765 49.9414 40.2765C22.3272 40.2765 -0.0585938 48.7811 -0.0585938 59.2721C-0.0585938 69.763 22.3272 78.2676 49.9414 78.2676Z" fill="#11B67A"/>
<path d="M93.5049 54.2638L87.5627 30.979C87.5627 30.979 81.7275 20.7635 49.1003 21.287C16.4703 21.8106 11.9327 31.7327 11.9327 31.7327L5.62632 55.6188C5.51939 55.8748 5.42979 56.1309 5.35754 56.3898L5.34888 56.4157C5.21882 56.8961 5.14946 57.3823 5.14946 57.8771C5.14946 66.4413 25.2015 73.3859 49.9385 73.3859C74.6755 73.3859 94.7275 66.4442 94.7275 57.8771C94.7275 56.6343 94.3026 55.4232 93.5049 54.2667V54.2638Z" fill="#6CF379"/>
<path d="M50.2305 42.7763C68.3123 42.7763 82.9704 38.5826 82.9704 33.4094C82.9704 28.2362 68.3123 24.0426 50.2305 24.0426C32.1488 24.0426 17.4907 28.2362 17.4907 33.4094C17.4907 38.5826 32.1488 42.7763 50.2305 42.7763Z" fill="#11B67A"/>
<path d="M93.5049 54.2638V54.2667C94.3026 55.4232 94.7275 56.6343 94.7275 57.8771C94.7275 66.4442 74.6755 73.3859 49.9385 73.3859C25.2015 73.3859 5.14946 66.4413 5.14946 57.8771C5.14946 57.3823 5.21882 56.8961 5.34888 56.4157L5.35754 56.3898C5.42979 56.1309 5.51939 55.8748 5.62632 55.6188L6.33153 52.9468C6.21349 55.2013 6.29248 57.3088 6.8574 58.234C8.53081 60.9756 17.4906 70.4576 49.9414 70.7308C58.261 70.8011 65.1348 70.1042 70.5787 68.9651C70.8638 68.854 84.1425 63.633 82.9703 54.8164C81.7785 45.8377 61.0761 45.0808 61.0108 45.0785C61.0535 45.073 71.58 43.7191 77.2361 41.609C81.5221 40.0095 85.0164 37.1816 86.4817 35.4268C87.3676 34.3674 87.8496 33.4488 87.964 32.5517L93.5049 54.2638Z" fill="black"/>
<path d="M8.31416 54.051L13.0425 34.3133C13.0425 34.3133 13.3517 36.2695 16.3777 38.9823C19.5598 41.8303 27.5656 42.7768 27.5656 42.7768C27.5656 42.7768 17.9384 41.9253 13.58 45.7946C10.4442 48.5793 8.31416 54.051 8.31416 54.051Z" fill="white"/>
<path d="M51.2621 23.7609C52.5164 22.8432 54.2449 22.0952 56.6755 23.1942C57.7506 23.6774 58.3576 24.1895 58.6899 24.6872C59.9905 26.6175 57.2854 28.3524 62.3141 27.5124C68.6407 26.4509 65.4096 34.1291 69.2044 34.2729C72.9992 34.4139 70.8461 40.0063 75.9963 38.3062C76.4652 38.1525 76.9607 38.3417 77.4435 38.6183C71.5683 41.1255 61.5729 42.7763 50.2305 42.7763C36.5401 42.7763 24.8116 40.3717 19.9229 36.9585C21.5605 35.7036 23.4988 35.1056 25.6611 34.8193C30.1523 34.221 30.4502 37.4747 32.9039 33.5997C35.3606 29.7218 37.3979 32.5322 39.0453 30.927C40.158 29.8367 38.1611 27.2419 40.1813 25.1447C40.6668 24.6384 41.2854 24.161 41.9733 23.7842C43.6467 22.855 45.7246 22.4837 47.2593 23.6373C47.7101 23.9739 48.1148 24.4428 48.4471 25.0671C48.9992 26.1027 49.8228 24.8167 51.2621 23.7609Z" fill="#006A4D"/>
<path d="M55.4761 22.7831C55.8546 22.8694 56.2535 23.0015 56.6726 23.1914C57.7477 23.6746 58.3547 24.1867 58.687 24.6844C59.9876 26.6147 57.2824 28.3496 62.3112 27.5096C62.7071 27.4434 63.0656 27.4087 63.3893 27.4087C63.7824 27.4087 64.1205 27.4549 64.424 27.5326C64.5714 27.5728 64.7074 27.6188 64.8374 27.6734C65.2073 27.8316 65.5051 28.0533 65.7449 28.3237C65.7477 28.3264 65.7506 28.3294 65.7506 28.3294C65.7622 28.3437 65.7737 28.3611 65.7881 28.3783L65.762 28.3899C65.8632 28.5079 65.953 28.6343 66.034 28.7695C66.2651 29.1492 66.4326 29.5837 66.5655 30.0382C67.0598 31.724 67.1234 33.6861 68.5425 34.1722C68.7275 34.2384 68.9384 34.2758 69.1754 34.2845C69.6493 34.3017 70.0309 34.4052 70.3459 34.5691C70.58 34.69 70.7795 34.8483 70.95 35.0266C71.1234 35.205 71.242 35.4236 71.3952 35.625C73.0984 37.8687 76.4583 38.1749 78.517 38.1285C72.8382 40.9084 62.2964 42.7763 50.2305 42.7763C45.5204 42.7763 41.0426 42.4912 36.9956 41.9788C39.0115 40.6457 41.2967 38.9131 41.7593 37.6474C42.6206 35.2913 44.8807 37.3541 44.8807 37.3541C44.889 37.357 46.4557 37.9098 47.4674 37.072C49.7969 35.1417 49.5224 32.866 49.5224 32.866C49.5293 32.8697 51.3381 33.8173 53.2305 33.2689C55.0338 32.7481 54.3287 29.6469 54.3287 29.6469C54.3178 29.6263 51.906 25.0228 54.2447 23.2863C54.5424 23.0648 54.979 22.8809 55.4761 22.7831Z" fill="black"/>
<path d="M52.9268 64.9915C51.8835 65.3424 50.9153 64.6865 50.2216 64.2176C49.8228 63.9472 49.4095 63.6681 49.1811 63.7026C48.9615 63.7343 48.7967 63.9242 48.5482 64.2262C48.054 64.8275 47.3806 65.6502 45.5308 65.1986C44.4297 64.9282 43.9037 63.8148 44.0482 62.06C44.2939 59.0998 46.5915 54.3933 49.1407 54.2006C51.1147 54.051 52.8574 56.3639 53.7476 58.3892C54.6985 60.5468 55.08 63.2596 53.7939 64.4535C53.502 64.7239 53.21 64.8965 52.9268 64.9915Z" fill="#11B67A"/>
<path d="M55.5916 57.2066C54.9731 57.4137 54.3951 57.3591 53.9356 57.0369C53.0772 56.4356 52.9702 55.282 53.6639 54.0997C54.346 52.9432 55.7304 52.0255 56.9529 52.6066C57.6263 52.9259 58.0049 53.4725 58.0194 54.1428C58.0454 55.3108 57.0252 56.4903 56.0512 57.0081C55.8951 57.0915 55.7419 57.1577 55.5916 57.2095V57.2066Z" fill="#11B67A"/>
<path d="M44.0714 58.3546C43.58 58.5215 42.9702 58.51 42.3084 58.3057C41.0222 57.9058 39.8141 56.7695 40.1089 55.4519C40.2708 54.727 40.7188 54.2379 41.3719 54.0711C42.5107 53.7834 43.8951 54.5083 44.6176 55.3369C45.2072 56.01 45.3864 56.7379 45.1234 57.3823C44.9269 57.8627 44.5569 58.1935 44.0743 58.3575L44.0714 58.3546Z" fill="#11B67A"/>
<path d="M47.1726 54.436C46.2709 54.738 45.3056 54.249 44.664 53.1414C43.9906 51.9792 43.8779 50.3279 44.9906 49.5569C45.6033 49.134 46.268 49.0765 46.8576 49.3929C47.8894 49.9482 48.4154 51.4153 48.3836 52.5143C48.3576 53.409 47.9935 54.062 47.3605 54.3583C47.2969 54.3871 47.2333 54.413 47.1698 54.4331L47.1726 54.436Z" fill="#11B67A"/>
<path d="M51.8546 54.0943C51.5338 54.2008 51.2073 54.2151 50.8864 54.1231C49.8749 53.8412 49.3864 52.7882 49.6465 51.4448C49.9009 50.1272 50.898 48.8039 52.2477 48.9448C52.9905 49.0225 53.5309 49.4109 53.7679 50.038C54.1841 51.1312 53.6177 52.5811 52.872 53.3924C52.5541 53.7376 52.2101 53.9735 51.8546 54.0914V54.0943Z" fill="#11B67A"/>
</g>
<defs>
<clipPath id="clip0_15980_2164">
<rect width="100" height="100" fill="white"/>
</clipPath>
</defs>
</svg>
