<svg width="100" height="100" viewBox="0 0 100 100" fill="none" xmlns="http://www.w3.org/2000/svg">
<g clip-path="url(#clip0_15980_2166)">
<rect width="100" height="100" fill="#024731"/>
<path d="M49.9414 78.5879C77.5556 78.5879 99.9414 70.0833 99.9414 59.5924C99.9414 49.1014 77.5556 40.5968 49.9414 40.5968C22.3272 40.5968 -0.0585938 49.1014 -0.0585938 59.5924C-0.0585938 70.0833 22.3272 78.5879 49.9414 78.5879Z" fill="#11B67A"/>
<path d="M93.5049 54.5841L87.5627 31.2993C87.5627 31.2993 81.7275 21.0838 49.1003 21.6074C16.4703 22.1309 11.9327 32.053 11.9327 32.053L5.62632 55.9391C5.51939 56.1951 5.42979 56.4512 5.35754 56.7101L5.34888 56.736C5.21882 57.2164 5.14946 57.7026 5.14946 58.1974C5.14946 66.7616 25.2015 73.7062 49.9385 73.7062C74.6755 73.7062 94.7275 66.7645 94.7275 58.1974C94.7275 56.9546 94.3026 55.7435 93.5049 54.587V54.5841Z" fill="#6CF379"/>
<path d="M50.2305 43.0966C68.3123 43.0966 82.9704 38.9029 82.9704 33.7297C82.9704 28.5566 68.3123 24.3629 50.2305 24.3629C32.1488 24.3629 17.4907 28.5566 17.4907 33.7297C17.4907 38.9029 32.1488 43.0966 50.2305 43.0966Z" fill="#11B67A"/>
<path d="M93.5049 54.5841V54.587C94.3026 55.7435 94.7275 56.9546 94.7275 58.1974C94.7275 66.7645 74.6755 73.7062 49.9385 73.7062C25.2015 73.7062 5.14946 66.7616 5.14946 58.1974C5.14946 57.7026 5.21882 57.2164 5.34888 56.736L5.35754 56.7101C5.42979 56.4512 5.51939 56.1951 5.62632 55.9391L6.33153 53.2671C6.21349 55.5216 6.29248 57.6291 6.8574 58.5543C8.53081 61.2959 17.4906 70.7779 49.9414 71.0512C58.261 71.1214 65.1348 70.4245 70.5787 69.2854C70.8638 69.1743 84.1425 63.9534 82.9703 55.1367C81.7785 46.158 61.0761 45.4011 61.0108 45.3988C61.0535 45.3933 71.58 44.0394 77.2361 41.9293C81.5221 40.3298 85.0164 37.5019 86.4817 35.7471C87.3676 34.6877 87.8496 33.7691 87.964 32.8721L93.5049 54.5841Z" fill="black"/>
<path d="M8.31416 54.3713L13.0425 34.6336C13.0425 34.6336 13.3517 36.5898 16.3777 39.3026C19.5598 42.1507 27.5656 43.0971 27.5656 43.0971C27.5656 43.0971 17.9384 42.2456 13.58 46.1149C10.4442 48.8996 8.31416 54.3713 8.31416 54.3713Z" fill="white"/>
<path d="M51.2621 24.0812C52.5164 23.1635 54.2449 22.4156 56.6755 23.5145C57.7506 23.9978 58.3576 24.5098 58.6899 25.0075C59.9905 26.9378 57.2854 28.6727 62.3141 27.8327C68.6407 26.7712 65.4096 34.4494 69.2044 34.5932C72.9992 34.7342 70.8461 40.3267 75.9963 38.6265C76.4652 38.4728 76.9607 38.662 77.4435 38.9386C71.5683 41.4458 61.5729 43.0966 50.2305 43.0966C36.5401 43.0966 24.8116 40.692 19.9229 37.2788C21.5605 36.0239 23.4988 35.4259 25.6611 35.1397C30.1523 34.5413 30.4502 37.795 32.9039 33.92C35.3606 30.0421 37.3979 32.8525 39.0453 31.2473C40.158 30.157 38.1611 27.5622 40.1813 25.465C40.6668 24.9587 41.2854 24.4813 41.9733 24.1045C43.6467 23.1753 45.7246 22.8041 47.2593 23.9576C47.7101 24.2942 48.1148 24.7631 48.4471 25.3874C48.9992 26.423 49.8228 25.137 51.2621 24.0812Z" fill="#006A4D"/>
<path d="M55.4761 23.1034C55.8546 23.1897 56.2535 23.3218 56.6726 23.5117C57.7477 23.995 58.3547 24.507 58.687 25.0047C59.9876 26.935 57.2824 28.6699 62.3112 27.8299C62.7071 27.7637 63.0656 27.729 63.3893 27.729C63.7824 27.729 64.1205 27.7752 64.424 27.8529C64.5714 27.8932 64.7074 27.9391 64.8374 27.9937C65.2073 28.152 65.5051 28.3736 65.7449 28.644C65.7477 28.6467 65.7506 28.6497 65.7506 28.6497C65.7622 28.664 65.7737 28.6814 65.7881 28.6986L65.762 28.7103C65.8632 28.8282 65.953 28.9546 66.034 29.0899C66.2651 29.4696 66.4326 29.904 66.5655 30.3585C67.0598 32.0443 67.1234 34.0064 68.5425 34.4926C68.7275 34.5587 68.9384 34.5961 69.1754 34.6048C69.6493 34.622 70.0309 34.7255 70.3459 34.8895C70.58 35.0103 70.7795 35.1686 70.95 35.347C71.1234 35.5253 71.242 35.7439 71.3952 35.9453C73.0984 38.189 76.4583 38.4952 78.517 38.4488C72.8382 41.2287 62.2964 43.0966 50.2305 43.0966C45.5204 43.0966 41.0426 42.8115 36.9956 42.2991C39.0115 40.966 41.2967 39.2334 41.7593 37.9677C42.6206 35.6116 44.8807 37.6744 44.8807 37.6744C44.889 37.6773 46.4557 38.2301 47.4674 37.3924C49.7969 35.462 49.5224 33.1863 49.5224 33.1863C49.5293 33.19 51.3381 34.1376 53.2305 33.5892C55.0338 33.0685 54.3287 29.9672 54.3287 29.9672C54.3178 29.9466 51.906 25.3431 54.2447 23.6066C54.5424 23.3851 54.979 23.2012 55.4761 23.1034Z" fill="black"/>
<path d="M52.9268 65.3118C51.8835 65.6627 50.9153 65.0068 50.2216 64.5379C49.8228 64.2675 49.4095 63.9884 49.1811 64.023C48.9615 64.0546 48.7967 64.2445 48.5482 64.5465C48.054 65.1478 47.3806 65.9706 45.5308 65.5189C44.4297 65.2485 43.9037 64.1352 44.0482 62.3803C44.2939 59.4201 46.5915 54.7136 49.1407 54.5209C51.1147 54.3713 52.8574 56.6842 53.7476 58.7095C54.6985 60.8671 55.08 63.5799 53.7939 64.7738C53.502 65.0442 53.21 65.2168 52.9268 65.3118Z" fill="#11B67A"/>
<path d="M55.5916 57.5269C54.9731 57.734 54.3951 57.6794 53.9356 57.3572C53.0772 56.7559 52.9702 55.6023 53.6639 54.42C54.346 53.2635 55.7304 52.3458 56.9529 52.9269C57.6263 53.2462 58.0049 53.7928 58.0194 54.4631C58.0454 55.6311 57.0252 56.8106 56.0512 57.3284C55.8951 57.4118 55.7419 57.478 55.5916 57.5298V57.5269Z" fill="#11B67A"/>
<path d="M44.0714 58.6749C43.58 58.8418 42.9702 58.8303 42.3084 58.626C41.0222 58.2262 39.8141 57.0898 40.1089 55.7722C40.2708 55.0473 40.7188 54.5582 41.3719 54.3914C42.5107 54.1037 43.8951 54.8286 44.6176 55.6572C45.2072 56.3303 45.3864 57.0582 45.1234 57.7026C44.9269 58.183 44.5569 58.5138 44.0743 58.6778L44.0714 58.6749Z" fill="#11B67A"/>
<path d="M47.1726 54.7563C46.2709 55.0583 45.3056 54.5693 44.664 53.4617C43.9906 52.2995 43.8779 50.6482 44.9906 49.8772C45.6033 49.4543 46.268 49.3968 46.8576 49.7132C47.8894 50.2685 48.4154 51.7356 48.3836 52.8346C48.3576 53.7293 47.9935 54.3823 47.3605 54.6786C47.2969 54.7074 47.2333 54.7333 47.1698 54.7534L47.1726 54.7563Z" fill="#11B67A"/>
<path d="M51.8546 54.4146C51.5338 54.5211 51.2073 54.5355 50.8864 54.4434C49.8749 54.1615 49.3864 53.1086 49.6465 51.7651C49.9009 50.4475 50.898 49.1242 52.2477 49.2652C52.9905 49.3428 53.5309 49.7312 53.7679 50.3583C54.1841 51.4515 53.6177 52.9014 52.872 53.7127C52.5541 54.0579 52.2101 54.2938 51.8546 54.4118V54.4146Z" fill="#11B67A"/>
</g>
<defs>
<clipPath id="clip0_15980_2166">
<rect width="100" height="100" fill="white"/>
</clipPath>
</defs>
</svg>
