<svg width="100" height="100" viewBox="0 0 100 100" fill="none" xmlns="http://www.w3.org/2000/svg">
<g clip-path="url(#clip0_15980_13028)">
<rect width="100" height="100" fill="#024731"/>
<path d="M84.4948 80.7269H-0.0585938V84.9911H84.4948V80.7269Z" fill="black"/>
<path d="M73.0693 59.7477H11.3758L0.205125 83.8709C-0.636498 85.6825 0.681195 87.7676 2.67049 87.7676H81.7746C83.7639 87.7676 85.0816 85.691 84.2399 83.8709L73.0693 59.7477Z" fill="black"/>
<path d="M73.0693 55.5352H11.3758L0.205125 79.6584C-0.636498 81.47 0.681195 83.555 2.67049 83.555H81.7746C83.7639 83.555 85.0816 81.4785 84.2399 79.6584L73.0693 55.5352Z" fill="#6CF479"/>
<path d="M14.232 11.7676H70.2042C71.7089 11.7676 72.9246 12.9981 72.9246 14.5021V53.9468H11.5116V14.5021C11.5116 12.9896 12.7358 11.7676 14.232 11.7676Z" fill="#11B67A"/>
<path d="M42.2183 17.3465C42.8192 17.3465 43.3064 16.8568 43.3064 16.2527C43.3064 15.6486 42.8192 15.159 42.2183 15.159C41.6173 15.159 41.1301 15.6486 41.1301 16.2527C41.1301 16.8568 41.6173 17.3465 42.2183 17.3465Z" fill="#6CF479"/>
<path d="M75.8916 70.5508L71.0969 60.3563C70.7993 59.7154 70.1617 59.3138 69.4561 59.3138H14.9887C14.2831 59.3138 13.6455 59.7239 13.3479 60.3563L8.55322 70.5508C8.12815 71.4566 8.78275 72.5076 9.7859 72.5076H25.1306C25.6832 72.5076 26.1168 73.0033 26.0318 73.5587L25.8532 74.6952C25.7257 75.5241 26.3633 76.2761 27.1964 76.2761H57.2398C58.073 76.2761 58.7106 75.5241 58.583 74.6952L58.4045 73.5587C58.3195 73.0033 58.7446 72.5076 59.3056 72.5076H74.6504C75.6535 72.5076 76.3081 71.4651 75.8831 70.5508H75.8916Z" fill="black"/>
<path d="M66.3446 23.9178H53.9073C52.9683 23.9178 52.207 24.683 52.207 25.6269V42.8199C52.207 43.7638 52.9683 44.5289 53.9073 44.5289H66.3446C67.2836 44.5289 68.0449 43.7638 68.0449 42.8199V25.6269C68.0449 24.683 67.2836 23.9178 66.3446 23.9178Z" fill="#00482F"/>
<path d="M99.9076 71.9874C99.7291 74.0126 98.4199 76.7129 93.5232 76.7129C90.5902 76.7129 87.9549 75.3115 86.6967 72.6796L83.1432 65.2282C82.9901 64.912 82.9476 64.5445 83.0071 64.177L83.2282 62.9722C83.3387 62.3399 83.7893 61.8271 84.3588 61.5537C86.0251 60.7675 88.703 60.2206 91.7209 60.6564C93.2936 60.8786 94.7219 61.6391 95.776 62.8098C97.5358 64.7496 100.214 68.3557 99.8991 71.9874H99.9076Z" fill="#11B67A"/>
<path d="M99.9414 71.3709C99.1508 74.5583 95.8948 75.2334 92.9449 75.0368C92.0012 74.977 90.9301 74.6693 90.2585 74.3275C89.0428 73.7208 88.0992 72.6954 87.4701 71.4905L83.67 64.1929C83.1429 63.1333 83.5255 62.2445 83.5255 62.2445C83.5255 62.2445 83.296 62.5608 83.2365 62.9624L83.0154 64.1672C82.9474 64.5347 82.9984 64.9022 83.1514 65.2184L86.705 72.6698C87.9632 75.3017 90.5985 76.7031 93.5315 76.7031C98.4197 76.7031 99.9414 74.0626 99.9414 71.3623V71.3709Z" fill="black"/>
<path d="M95.6229 63.9803C95.6229 63.9803 97.5697 66.1508 98.4964 69.1245C99.0659 70.9703 98.0288 72.9613 96.1755 73.474C95.5124 73.662 94.6963 73.7902 93.6847 73.8244C93.6847 73.8244 99.7205 71.1241 95.6229 63.9803Z" fill="white"/>
<path d="M65.0015 37.7199C64.6955 36.6004 64.2109 36.1817 63.2757 35.8741L61.907 35.387C61.788 35.481 61.669 35.5835 61.5415 35.6604C61.0739 35.9424 60.5894 36.0877 60.1133 36.0877C59.6372 36.0877 59.1526 35.9424 58.6851 35.6604C58.5576 35.5835 58.4385 35.481 58.311 35.387L56.9423 35.8741C56.0157 36.1817 55.5226 36.6004 55.2166 37.7199L54.8425 39.2409H65.3671L64.993 37.7199H65.0015ZM59.3397 34.5582C59.5692 34.6949 59.8327 34.8059 60.1218 34.8059C60.4108 34.8059 60.6744 34.7034 60.9039 34.5582C61.4225 34.2505 61.7965 33.7378 62.0091 33.1653C62.2556 32.4731 62.2811 31.8578 62.2811 31.8578C62.3491 30.277 61.312 29.4822 60.1303 29.4822C58.9486 29.4822 57.9115 30.277 57.9795 31.8578C57.9795 31.8578 57.9965 32.4731 58.2515 33.1653C58.4555 33.7378 58.8296 34.242 59.3567 34.5582H59.3397Z" fill="white"/>
<path d="M48.2284 23.9178H35.7911C34.8521 23.9178 34.0908 24.683 34.0908 25.6269V42.8199C34.0908 43.7638 34.8521 44.5289 35.7911 44.5289H48.2284C49.1674 44.5289 49.9287 43.7638 49.9287 42.8199V25.6269C49.9287 24.683 49.1674 23.9178 48.2284 23.9178Z" fill="#00482F"/>
<path d="M46.8936 37.7199C46.5876 36.6004 46.103 36.1817 45.1679 35.8741L43.7991 35.387C43.6801 35.481 43.5611 35.5835 43.4336 35.6604C42.966 35.9424 42.4815 36.0877 42.0054 36.0877C41.5293 36.0877 41.0447 35.9424 40.5772 35.6604C40.4497 35.5835 40.3306 35.481 40.2031 35.387L38.8344 35.8741C37.9078 36.1817 37.4147 36.6004 37.1087 37.7199L36.7346 39.2409H47.2592L46.8851 37.7199H46.8936ZM41.2233 34.5582C41.4528 34.6949 41.7163 34.8059 42.0054 34.8059C42.2944 34.8059 42.558 34.7034 42.7875 34.5582C43.3061 34.2505 43.6801 33.7378 43.8927 33.1653C44.1392 32.4731 44.1647 31.8578 44.1647 31.8578C44.2327 30.277 43.1956 29.4822 42.0139 29.4822C40.8322 29.4822 39.7951 30.277 39.8631 31.8578C39.8631 31.8578 39.8801 32.4731 40.1351 33.1653C40.3391 33.7378 40.7132 34.242 41.2403 34.5582H41.2233Z" fill="white"/>
<path d="M30.1122 23.9178H17.6749C16.7359 23.9178 15.9746 24.683 15.9746 25.6269V42.8199C15.9746 43.7638 16.7359 44.5289 17.6749 44.5289H30.1122C31.0512 44.5289 31.8125 43.7638 31.8125 42.8199V25.6269C31.8125 24.683 31.0512 23.9178 30.1122 23.9178Z" fill="#6CF479"/>
<path d="M28.7774 37.7199C28.4714 36.6004 27.9868 36.1817 27.0516 35.8741L25.6829 35.387C25.5639 35.481 25.4449 35.5835 25.3174 35.6604C24.8498 35.9424 24.3653 36.0877 23.8892 36.0877C23.4131 36.0877 22.9285 35.9424 22.461 35.6604C22.3335 35.5835 22.2144 35.481 22.0869 35.387L20.7182 35.8741C19.7916 36.1817 19.2985 36.6004 18.9925 37.7199L18.6184 39.2409H29.143L28.7689 37.7199H28.7774ZM23.1071 34.5582C23.3366 34.6949 23.6001 34.8059 23.8892 34.8059C24.1782 34.8059 24.4418 34.7034 24.6713 34.5582C25.1899 34.2505 25.5639 33.7378 25.7765 33.1653C26.023 32.4731 26.0485 31.8578 26.0485 31.8578C26.1165 30.277 25.0794 29.4822 23.8977 29.4822C22.716 29.4822 21.6789 30.277 21.7469 31.8578C21.7469 31.8578 21.7639 32.4731 22.0189 33.1653C22.2229 33.7378 22.597 34.242 23.1241 34.5582H23.1071Z" fill="black"/>
</g>
<defs>
<clipPath id="clip0_15980_13028">
<rect width="100" height="100" fill="white"/>
</clipPath>
</defs>
</svg>
