<svg width="100" height="100" viewBox="0 0 100 100" fill="none" xmlns="http://www.w3.org/2000/svg">
<g clip-path="url(#clip0_15980_13030)">
<rect width="100" height="100" fill="#024731"/>
<path d="M84.4948 81.0473H-0.0585938V85.3114H84.4948V81.0473Z" fill="black"/>
<path d="M73.0693 60.068H11.3758L0.205125 84.1912C-0.636498 86.0028 0.681195 88.0879 2.67049 88.0879H81.7746C83.7639 88.0879 85.0816 86.0114 84.2399 84.1912L73.0693 60.068Z" fill="black"/>
<path d="M73.0693 55.8555H11.3758L0.205125 79.9787C-0.636498 81.7903 0.681195 83.8754 2.67049 83.8754H81.7746C83.7639 83.8754 85.0816 81.7988 84.2399 79.9787L73.0693 55.8555Z" fill="#6CF479"/>
<path d="M14.232 12.0879H70.2042C71.7089 12.0879 72.9246 13.3184 72.9246 14.8224V54.2671H11.5116V14.8224C11.5116 13.3099 12.7358 12.0879 14.232 12.0879Z" fill="#11B67A"/>
<path d="M42.2183 17.6669C42.8192 17.6669 43.3064 17.1771 43.3064 16.573C43.3064 15.969 42.8192 15.4793 42.2183 15.4793C41.6173 15.4793 41.1301 15.969 41.1301 16.573C41.1301 17.1771 41.6173 17.6669 42.2183 17.6669Z" fill="#6CF479"/>
<path d="M75.8916 70.8711L71.0969 60.6766C70.7993 60.0357 70.1617 59.6341 69.4561 59.6341H14.9887C14.2831 59.6341 13.6455 60.0442 13.3479 60.6766L8.55322 70.8711C8.12815 71.7769 8.78275 72.8279 9.7859 72.8279H25.1306C25.6832 72.8279 26.1168 73.3236 26.0318 73.879L25.8532 75.0155C25.7257 75.8444 26.3633 76.5964 27.1964 76.5964H57.2398C58.073 76.5964 58.7106 75.8444 58.583 75.0155L58.4045 73.879C58.3195 73.3236 58.7446 72.8279 59.3056 72.8279H74.6504C75.6535 72.8279 76.3081 71.7854 75.8831 70.8711H75.8916Z" fill="black"/>
<path d="M66.3446 24.2381H53.9073C52.9683 24.2381 52.207 25.0033 52.207 25.9472V43.1402C52.207 44.0841 52.9683 44.8492 53.9073 44.8492H66.3446C67.2836 44.8492 68.0449 44.0841 68.0449 43.1402V25.9472C68.0449 25.0033 67.2836 24.2381 66.3446 24.2381Z" fill="#00482F"/>
<path d="M99.9076 72.3077C99.7291 74.3329 98.4199 77.0332 93.5232 77.0332C90.5902 77.0332 87.9549 75.6318 86.6967 72.9999L83.1432 65.5485C82.9901 65.2323 82.9476 64.8648 83.0071 64.4973L83.2282 63.2925C83.3387 62.6602 83.7893 62.1474 84.3588 61.874C86.0251 61.0878 88.703 60.5409 91.7209 60.9767C93.2936 61.1989 94.7219 61.9594 95.776 63.1301C97.5358 65.0699 100.214 68.676 99.8991 72.3077H99.9076Z" fill="#11B67A"/>
<path d="M99.9414 71.6912C99.1508 74.8786 95.8948 75.5537 92.9449 75.3571C92.0012 75.2973 90.9301 74.9896 90.2585 74.6478C89.0428 74.0411 88.0992 73.0157 87.4701 71.8108L83.67 64.5132C83.1429 63.4536 83.5255 62.5648 83.5255 62.5648C83.5255 62.5648 83.296 62.8811 83.2365 63.2827L83.0154 64.4875C82.9474 64.855 82.9984 65.2225 83.1514 65.5387L86.705 72.9901C87.9632 75.622 90.5985 77.0234 93.5315 77.0234C98.4197 77.0234 99.9414 74.3829 99.9414 71.6827V71.6912Z" fill="black"/>
<path d="M95.6229 64.3006C95.6229 64.3006 97.5697 66.4711 98.4964 69.4448C99.0659 71.2906 98.0288 73.2816 96.1755 73.7943C95.5124 73.9823 94.6963 74.1105 93.6847 74.1447C93.6847 74.1447 99.7205 71.4444 95.6229 64.3006Z" fill="white"/>
<path d="M65.0015 38.0402C64.6955 36.9208 64.2109 36.502 63.2757 36.1944L61.907 35.7073C61.788 35.8013 61.669 35.9038 61.5415 35.9807C61.0739 36.2627 60.5894 36.408 60.1133 36.408C59.6372 36.408 59.1526 36.2627 58.6851 35.9807C58.5576 35.9038 58.4385 35.8013 58.311 35.7073L56.9423 36.1944C56.0157 36.502 55.5226 36.9208 55.2166 38.0402L54.8425 39.5613H65.3671L64.993 38.0402H65.0015ZM59.3397 34.8785C59.5692 35.0152 59.8327 35.1262 60.1218 35.1262C60.4108 35.1262 60.6744 35.0238 60.9039 34.8785C61.4225 34.5709 61.7965 34.0581 62.0091 33.4856C62.2556 32.7934 62.2811 32.1782 62.2811 32.1782C62.3491 30.5973 61.312 29.8026 60.1303 29.8026C58.9486 29.8026 57.9115 30.5973 57.9795 32.1782C57.9795 32.1782 57.9965 32.7934 58.2515 33.4856C58.4555 34.0581 58.8296 34.5623 59.3567 34.8785H59.3397Z" fill="white"/>
<path d="M48.2284 24.2381H35.7911C34.8521 24.2381 34.0908 25.0033 34.0908 25.9472V43.1402C34.0908 44.0841 34.8521 44.8492 35.7911 44.8492H48.2284C49.1674 44.8492 49.9287 44.0841 49.9287 43.1402V25.9472C49.9287 25.0033 49.1674 24.2381 48.2284 24.2381Z" fill="#00482F"/>
<path d="M46.8936 38.0402C46.5876 36.9208 46.103 36.502 45.1679 36.1944L43.7991 35.7073C43.6801 35.8013 43.5611 35.9038 43.4336 35.9807C42.966 36.2627 42.4815 36.408 42.0054 36.408C41.5293 36.408 41.0447 36.2627 40.5772 35.9807C40.4497 35.9038 40.3306 35.8013 40.2031 35.7073L38.8344 36.1944C37.9078 36.502 37.4147 36.9208 37.1087 38.0402L36.7346 39.5613H47.2592L46.8851 38.0402H46.8936ZM41.2233 34.8785C41.4528 35.0152 41.7163 35.1262 42.0054 35.1262C42.2944 35.1262 42.558 35.0238 42.7875 34.8785C43.3061 34.5709 43.6801 34.0581 43.8927 33.4856C44.1392 32.7934 44.1647 32.1782 44.1647 32.1782C44.2327 30.5973 43.1956 29.8026 42.0139 29.8026C40.8322 29.8026 39.7951 30.5973 39.8631 32.1782C39.8631 32.1782 39.8801 32.7934 40.1351 33.4856C40.3391 34.0581 40.7132 34.5623 41.2403 34.8785H41.2233Z" fill="white"/>
<path d="M30.1122 24.2381H17.6749C16.7359 24.2381 15.9746 25.0033 15.9746 25.9472V43.1402C15.9746 44.0841 16.7359 44.8492 17.6749 44.8492H30.1122C31.0512 44.8492 31.8125 44.0841 31.8125 43.1402V25.9472C31.8125 25.0033 31.0512 24.2381 30.1122 24.2381Z" fill="#6CF479"/>
<path d="M28.7774 38.0402C28.4714 36.9208 27.9868 36.502 27.0516 36.1944L25.6829 35.7073C25.5639 35.8013 25.4449 35.9038 25.3174 35.9807C24.8498 36.2627 24.3653 36.408 23.8892 36.408C23.4131 36.408 22.9285 36.2627 22.461 35.9807C22.3335 35.9038 22.2144 35.8013 22.0869 35.7073L20.7182 36.1944C19.7916 36.502 19.2985 36.9208 18.9925 38.0402L18.6184 39.5613H29.143L28.7689 38.0402H28.7774ZM23.1071 34.8785C23.3366 35.0152 23.6001 35.1262 23.8892 35.1262C24.1782 35.1262 24.4418 35.0238 24.6713 34.8785C25.1899 34.5709 25.5639 34.0581 25.7765 33.4856C26.023 32.7934 26.0485 32.1782 26.0485 32.1782C26.1165 30.5973 25.0794 29.8026 23.8977 29.8026C22.716 29.8026 21.6789 30.5973 21.7469 32.1782C21.7469 32.1782 21.7639 32.7934 22.0189 33.4856C22.2229 34.0581 22.597 34.5623 23.1241 34.8785H23.1071Z" fill="black"/>
</g>
<defs>
<clipPath id="clip0_15980_13030">
<rect width="100" height="100" fill="white"/>
</clipPath>
</defs>
</svg>
