<svg width="100" height="100" viewBox="0 0 100 100" fill="none" xmlns="http://www.w3.org/2000/svg">
<rect width="100" height="100" fill="#024731"/>
<path d="M59.7883 31.6858C58.8747 31.7114 58.166 32.4713 58.2087 33.3849V33.5898C58.2684 34.512 57.5256 35.2889 56.6035 35.2889H55.3398C54.58 35.2889 53.9225 34.7596 53.7603 34.0167L53.4273 32.4969C53.2651 31.7456 52.5906 31.2077 51.8136 31.2248L45.8113 31.3443C45.0172 31.3614 44.3512 31.9505 44.2402 32.7445L44.0609 34.085C43.967 34.7937 43.4035 35.3572 42.6948 35.4682L41.0982 35.7073C40.0736 35.861 39.1686 35.0157 39.2454 33.9826L39.3051 33.1544C39.382 32.1981 38.6136 31.3955 37.6573 31.4126L35.2495 31.4467C33.5931 31.4724 32.1075 32.4457 31.4244 33.9484L27.2237 43.2123L27.1724 45.3981L32.8674 58.1883L64.3562 58.009L70.2133 43.9125L70.1194 42.5805L65.0734 33.4532C64.4757 32.3689 63.3316 31.6944 62.085 31.6944H59.7967L59.7883 31.6858Z" fill="#6CF479"/>
<path d="M80.8938 74.377C80.8938 74.377 80.0912 71.0385 76.2235 70.9105L77.0773 77.519C77.4103 80.0719 75.4208 82.3345 72.8423 82.3345H63.0576C61.8793 82.565 60.7608 81.6942 60.6925 80.4988L60.2229 72.5327C59.6337 67.1024 56.6112 64.8056 53.8876 63.8408C49.5502 62.2869 45.3579 63.8408 45.3579 63.8408C42.6343 64.8056 39.6118 67.1024 39.0226 72.5327L38.553 80.4988C38.4847 81.6856 37.3833 82.5736 36.2221 82.3431C33.6009 81.8308 33.0459 80.3707 33.0459 80.3707H35.6756C36.094 80.3707 36.4356 80.0463 36.4612 79.6279L36.8881 72.3449C38.0237 61.5355 47.5352 61.0147 49.3282 61.0147H49.9173C51.7189 61.0147 61.2218 61.527 62.3574 72.3449L62.7843 79.6279C62.8099 80.0463 63.1515 80.3707 63.5699 80.3707H72.6289C74.1913 80.3707 75.3867 78.9876 75.1647 77.4422L70.7419 46.6535C70.5626 44.519 70.2467 43.3578 70.1015 42.5808C70.1015 42.5808 70.1869 44.7324 67.1303 44.8605V44.8946L61.4097 44.7324C60.5217 44.7068 59.7789 45.4069 59.7533 46.3034L59.574 52.1009C59.5484 52.9034 58.9337 53.5694 58.1396 53.6633L56.4234 53.8512C55.5013 53.9536 54.6902 53.2621 54.6304 52.3399L54.2974 46.7901C54.2462 45.9192 53.5119 45.2532 52.641 45.2703L45.0591 45.4582C44.1968 45.4838 43.5051 46.1668 43.4795 47.0292L43.3088 52.6046C43.2831 53.5267 42.4891 54.2439 41.567 54.1671L38.1774 53.8939C37.2979 53.8256 36.6319 53.0571 36.6917 52.1777L37.0161 47.217C37.0759 46.2864 36.3331 45.4923 35.4025 45.4923H30.1856C27.1289 45.3642 27.2143 43.2126 27.2143 43.2126C27.0692 43.9896 26.7533 45.1508 26.574 47.2853L21.4425 100H37.6736V99.9744C37.6736 99.9744 46.6984 99.9744 53.1789 95.1845C59.6594 90.3946 66.1399 89.831 72.0568 90.9581C75.0623 91.5301 77.5554 92.3156 79.8778 92.512C82.2001 92.7084 83.8566 90.6763 83.4553 88.4905L80.8853 74.377H80.8938Z" fill="#11B67A"/>
<path d="M38.4949 37.2082C38.2729 37.2082 38.0765 37.063 38.0168 36.8495C37.9314 36.5422 37.6496 36.3373 37.3337 36.3373L28.5735 37.1142L28.4198 37.6863L36.7702 37.4643C37.1117 37.4558 37.4105 37.6863 37.4874 38.0193L37.5557 38.3181C37.6325 38.6511 37.9314 38.8902 38.2729 38.8731L48.2711 38.5657L48.6809 37.2082H38.4949Z" fill="#00482F"/>
<path d="M41.127 3.69703C41.127 3.69703 44.2947 1.71617 49.8957 1.71617C58.9974 1.71617 64.4277 7.47944 73.8367 0C73.8367 0 71.1216 10.6129 55.0357 10.1604C45.7974 9.89574 45.0631 15.8298 45.0631 15.8298L41.127 3.69703Z" fill="white"/>
<path d="M27.6597 78.9178L30.2382 45.4908H30.1955C27.1388 45.3628 27.2242 43.2112 27.2242 43.2112C27.0791 43.9881 26.7632 45.1493 26.5839 47.2839L24.0651 70.9517C20.6498 71.353 19.9241 74.3755 19.9241 74.3755L17.0382 95.405C16.7052 97.8298 18.5921 99.9985 21.0426 99.9985H25.7898L27.1132 85.4239C27.2584 83.8272 26.2936 81.7695 25.047 80.762C22.5197 78.7129 23.6553 76.4246 24.1932 75.6135C25.0641 78.6531 27.6597 78.9178 27.6597 78.9178Z" fill="black"/>
<path d="M49.0465 38.6609C48.6622 38.6609 48.3122 38.4133 48.1926 38.029L37.5114 3.73974C37.3662 3.27014 37.6309 2.76639 38.1005 2.62124C38.5701 2.47609 39.0739 2.74077 39.219 3.21037L49.9003 37.4997C50.0454 37.9693 49.7807 38.473 49.3111 38.6182C49.2257 38.6438 49.1318 38.6609 49.0465 38.6609Z" fill="white"/>
</svg>
