<svg width="100" height="100" viewBox="0 0 100 100" fill="none" xmlns="http://www.w3.org/2000/svg">
<g clip-path="url(#clip0_15980_13112)">
<rect width="100" height="100" fill="#024731"/>
<path d="M43.6297 80.2812L8.20111 59.7194C7.68537 59.395 7.15216 59.2196 6.6539 59.2196C6.05949 59.2196 5.54374 59.4563 5.13289 59.9386C4.45981 60.719 4.1801 61.9992 4.38115 63.367C4.63465 65.1119 5.6399 66.7516 6.94236 67.5495L43.0003 88.4884C43.8308 88.9707 44.8797 88.8216 45.5353 88.1202L89.3119 41.9634L88.9098 34.8435L46.156 79.913C45.5004 80.6057 44.4514 80.7635 43.621 80.2812H43.6297Z" fill="white"/>
<path d="M45.8413 90.7236C45.1332 91.4689 44.0143 91.6268 43.1315 91.1182L4.59093 68.7413C3.20106 67.8908 2.12588 66.1371 1.85489 64.2695C1.6451 62.8051 1.94232 61.4373 2.65911 60.6043C3.09617 60.0957 3.63812 59.8414 4.28498 59.8414C4.8182 59.8414 5.3864 60.0256 5.93711 60.3763L43.8046 82.3498C44.6874 82.8672 45.8063 82.7006 46.5143 81.9553L94.3906 31.4845C95.1336 30.7041 94.95 29.4327 94.0235 28.8978L56.6368 7.17856C54.4253 5.88961 51.628 6.29296 49.8623 8.15185C38.8657 19.7436 1.40037 59.2627 1.33044 59.3329L1.29546 59.3767C0.246504 60.578 -0.277986 62.4456 0.0279601 64.55C0.395096 67.0578 1.82867 69.2323 3.62938 70.3372L43.4636 93.4681C44.3465 93.9855 45.4654 93.8189 46.1734 93.0736L94.4256 42.1995C95.1074 41.4804 95.0025 40.3318 94.2071 39.7443L45.8413 90.7412V90.7236Z" fill="#11B67A"/>
<path d="M92.389 51.1102L84.5044 33.1789L75.8155 13.5114C75.5358 12.8801 74.8539 12.4329 74.2071 12.4329C74.1197 12.4329 74.0322 12.4329 73.9448 12.4592L43.7348 18.8601L20.1507 17.9131V24.4631C20.1507 24.8402 20.2294 25.0506 20.3081 25.2347L24.4952 34.6695L18.2713 41.4475C18.8308 40.9564 19.3203 40.9214 19.7399 41.0003C20.5178 41.1581 20.8413 41.842 20.8413 41.842L34.504 74.2412C34.8274 75.0128 35.6491 75.4425 36.462 75.2758L95.7982 62.5354C96.5062 62.3863 96.8296 61.8778 96.7947 61.0272V54.9069L92.389 51.0927V51.1102Z" fill="black"/>
<path d="M89.1719 37.2823L96.7069 54.2755C97.0216 54.9945 96.7069 55.6959 95.9901 55.845L43.2275 67.2702C43.1401 67.2877 43.0439 67.2965 42.9565 67.2965C42.3009 67.2965 41.6191 66.8581 41.3393 66.2268L34.3288 50.3209L89.1806 37.2823H89.1719Z" fill="#00482F"/>
<path d="M89.172 37.2811L75.8065 6.84609C75.5268 6.21477 74.845 5.76758 74.1981 5.76758C74.1107 5.76758 74.0233 5.76758 73.9359 5.79388L21.0421 16.9999C20.3166 17.1402 19.9844 17.8504 20.3079 18.5782L34.1891 50.3723C34.1891 50.3723 38.6297 59.4914 47.8955 61.7536C49.2329 62.0781 50.6403 62.0342 51.9864 61.7449L99.076 51.5297C100.003 51.3281 100.256 50.1356 99.4868 49.5831C96.6983 47.584 91.8731 43.4453 89.172 37.2811Z" fill="#6CF479"/>
<path d="M5.6572 12.2308C5.6572 12.2308 6.87225 16.273 11.8024 17.3866C11.8024 17.3866 8.06982 18.0355 7.99115 22.5337C7.99115 22.5337 6.67995 18.6317 1.95089 17.3866C1.95089 17.3866 5.90196 16.9131 5.6572 12.2308Z" fill="white"/>
<path d="M78.0881 64.2862C78.0881 64.2862 80.3958 71.9673 89.7665 74.0892C89.7665 74.0892 82.6686 75.3168 82.5287 83.866C82.5287 83.866 80.0287 76.4567 71.0513 74.0805C71.0513 74.0805 78.5514 73.1861 78.0881 64.2862Z" fill="white"/>
</g>
<defs>
<clipPath id="clip0_15980_13112">
<rect width="100" height="100" fill="white"/>
</clipPath>
</defs>
</svg>
