<svg width="100" height="100" viewBox="0 0 100 100" fill="none" xmlns="http://www.w3.org/2000/svg">
<g clip-path="url(#clip0_15980_13128)">
<rect width="100" height="100" fill="#024731"/>
<path d="M84.4015 81.0473H-0.0585938V85.3114H84.4015V81.0473Z" fill="black"/>
<path d="M72.9886 60.068H11.3631L0.204832 84.1912C-0.635862 86.0028 0.680397 88.0879 2.66749 88.0879H81.6842C83.6713 88.0879 84.9876 86.0114 84.1469 84.1912L72.9886 60.068Z" fill="black"/>
<path d="M72.9886 55.8555H11.3631L0.204832 79.9787C-0.635862 81.7903 0.680397 83.8754 2.66749 83.8754H81.6842C83.6713 83.8754 84.9876 81.7988 84.1469 79.9787L72.9886 55.8555Z" fill="#6CF479"/>
<path d="M70.1266 12.0879C71.6297 12.0879 72.8441 13.3184 72.8441 14.8224V54.2671H11.4904V14.8224C11.4904 13.3099 12.7132 12.0879 14.2077 12.0879H70.1266Z" fill="#11B67A"/>
<path d="M42.1716 17.6669C42.7719 17.6669 43.2585 17.1771 43.2585 16.573C43.2585 15.969 42.7719 15.4793 42.1716 15.4793C41.5713 15.4793 41.0846 15.969 41.0846 16.573C41.0846 17.1771 41.5713 17.6669 42.1716 17.6669Z" fill="#6CF479"/>
<path d="M75.8077 70.8711L71.0183 60.6766C70.7211 60.0357 70.0842 59.6341 69.3794 59.6341H14.9721C14.2672 59.6341 13.6303 60.0442 13.3331 60.6766L8.54371 70.8711C8.11911 71.7769 8.773 72.8279 9.77504 72.8279H25.1028C25.6548 72.8279 26.0879 73.3236 26.003 73.879L25.8247 75.0155C25.6973 75.8444 26.3341 76.5964 27.1663 76.5964H57.1766C58.0088 76.5964 58.6457 75.8444 58.5183 75.0155L58.34 73.879C58.2551 73.3236 58.6797 72.8279 59.2401 72.8279H74.5679C75.57 72.8279 76.2238 71.7854 75.7992 70.8711H75.8077Z" fill="black"/>
<path d="M99.9414 61.5654L85.5392 51.2257L87.8405 68.8801L91.8741 63.8897L98.0137 74.1868L99.814 73.1015L93.6744 62.8045L99.9414 61.5654Z" fill="white"/>
<path d="M30.5461 35.16C31.166 35.536 31.8963 35.8265 32.6606 35.8265C33.4248 35.8265 34.1551 35.536 34.775 35.16C36.1847 34.314 37.2037 32.9296 37.7726 31.3744C38.452 29.503 38.5114 27.8196 38.5114 27.8196C38.6982 23.5214 35.879 21.3509 32.6606 21.3509C29.4422 21.3509 26.6228 23.5128 26.8097 27.8196C26.8097 27.8196 26.8691 29.4944 27.5485 31.3744C28.1174 32.9296 29.128 34.314 30.5461 35.16ZM45.9588 43.765C45.1351 40.7143 43.8019 39.5694 41.2798 38.7319L37.2461 37.3048C37.2461 37.3048 36.6432 37.0827 35.7091 36.8861C34.6901 37.4843 33.6711 37.7919 32.6691 37.7919C31.667 37.7919 30.6395 37.4843 29.629 36.8861C28.6949 37.0912 28.0919 37.3048 28.0919 37.3048L24.0583 38.7319C21.5362 39.5694 20.203 40.7143 19.3793 43.765L18.3603 47.9009H46.9863L45.9673 43.765H45.9588Z" fill="black"/>
<path d="M65.388 17.5922H50.9009C49.9629 17.5922 49.2025 18.3574 49.2025 19.3013V36.4943C49.2025 37.4382 49.9629 38.2034 50.9009 38.2034H65.388C66.326 38.2034 67.0863 37.4382 67.0863 36.4943V19.3013C67.0863 18.3574 66.326 17.5922 65.388 17.5922Z" fill="#00482F"/>
<path d="M64.038 31.7235C63.6898 30.4331 63.1294 29.9546 62.0594 29.5957L60.361 28.989C60.361 28.989 60.327 28.9805 60.2761 28.9634C60.1742 29.0403 60.0808 29.1172 59.9704 29.1856C59.4609 29.4932 58.9428 29.647 58.4248 29.647C57.9068 29.647 57.3888 29.4932 56.8793 29.1856C56.7689 29.1172 56.6755 29.0403 56.5736 28.9634C56.5227 28.9805 56.4887 28.989 56.4887 28.989L54.7904 29.5957C53.7289 29.9461 53.1599 30.4331 52.8117 31.7235L52.3786 33.4667H64.471L64.038 31.7235ZM57.5247 28.0917C57.788 28.2456 58.0937 28.3738 58.4163 28.3738C58.739 28.3738 59.0448 28.2541 59.308 28.0917C59.9025 27.7328 60.3355 27.1518 60.5733 26.4938C60.862 25.6991 60.8875 24.9898 60.8875 24.9898C60.9639 23.1697 59.775 22.2554 58.4163 22.2554C57.0576 22.2554 55.8688 23.1697 55.9452 24.9898C55.9452 24.9898 55.9707 25.6991 56.2594 26.4938C56.4972 27.1518 56.9303 27.7328 57.5247 28.0917Z" fill="white"/>
</g>
<defs>
<clipPath id="clip0_15980_13128">
<rect width="100" height="100" fill="white"/>
</clipPath>
</defs>
</svg>
