<svg width="100" height="100" viewBox="0 0 100 100" fill="none" xmlns="http://www.w3.org/2000/svg">
<g clip-path="url(#clip0_15980_13126)">
<rect width="100" height="100" fill="#024731"/>
<path d="M84.4015 80.7269H-0.0585938V84.9911H84.4015V80.7269Z" fill="black"/>
<path d="M72.9886 59.7477H11.3631L0.204832 83.8709C-0.635862 85.6825 0.680397 87.7676 2.66749 87.7676H81.6842C83.6713 87.7676 84.9876 85.691 84.1469 83.8709L72.9886 59.7477Z" fill="black"/>
<path d="M72.9886 55.5352H11.3631L0.204832 79.6584C-0.635862 81.47 0.680397 83.555 2.66749 83.555H81.6842C83.6713 83.555 84.9876 81.4785 84.1469 79.6584L72.9886 55.5352Z" fill="#6CF479"/>
<path d="M70.1266 11.7676C71.6297 11.7676 72.8441 12.9981 72.8441 14.5021V53.9468H11.4904V14.5021C11.4904 12.9896 12.7132 11.7676 14.2077 11.7676H70.1266Z" fill="#11B67A"/>
<path d="M42.1716 17.3465C42.7719 17.3465 43.2585 16.8568 43.2585 16.2527C43.2585 15.6486 42.7719 15.159 42.1716 15.159C41.5713 15.159 41.0846 15.6486 41.0846 16.2527C41.0846 16.8568 41.5713 17.3465 42.1716 17.3465Z" fill="#6CF479"/>
<path d="M75.8077 70.5508L71.0183 60.3563C70.7211 59.7154 70.0842 59.3138 69.3794 59.3138H14.9721C14.2672 59.3138 13.6303 59.7239 13.3331 60.3563L8.54371 70.5508C8.11911 71.4566 8.773 72.5076 9.77504 72.5076H25.1028C25.6548 72.5076 26.0879 73.0033 26.003 73.5587L25.8247 74.6952C25.6973 75.5241 26.3341 76.2761 27.1663 76.2761H57.1766C58.0088 76.2761 58.6457 75.5241 58.5183 74.6952L58.34 73.5587C58.2551 73.0033 58.6797 72.5076 59.2401 72.5076H74.5679C75.57 72.5076 76.2238 71.4651 75.7992 70.5508H75.8077Z" fill="black"/>
<path d="M99.9414 61.2451L85.5392 50.9054L87.8405 68.5598L91.8741 63.5694L98.0137 73.8665L99.814 72.7812L93.6744 62.4841L99.9414 61.2451Z" fill="white"/>
<path d="M30.5461 34.8397C31.166 35.2156 31.8963 35.5062 32.6606 35.5062C33.4248 35.5062 34.1551 35.2156 34.775 34.8397C36.1847 33.9937 37.2037 32.6093 37.7726 31.0541C38.452 29.1827 38.5114 27.4993 38.5114 27.4993C38.6982 23.2011 35.879 21.0306 32.6606 21.0306C29.4422 21.0306 26.6228 23.1925 26.8097 27.4993C26.8097 27.4993 26.8691 29.1741 27.5485 31.0541C28.1174 32.6093 29.128 33.9937 30.5461 34.8397ZM45.9588 43.4447C45.1351 40.394 43.8019 39.249 41.2798 38.4116L37.2461 36.9845C37.2461 36.9845 36.6432 36.7624 35.7091 36.5658C34.6901 37.164 33.6711 37.4715 32.6691 37.4715C31.667 37.4715 30.6395 37.164 29.629 36.5658C28.6949 36.7709 28.0919 36.9845 28.0919 36.9845L24.0583 38.4116C21.5362 39.249 20.203 40.394 19.3793 43.4447L18.3603 47.5806H46.9863L45.9673 43.4447H45.9588Z" fill="black"/>
<path d="M65.388 17.2719H50.9009C49.9629 17.2719 49.2025 18.0371 49.2025 18.981V36.174C49.2025 37.1179 49.9629 37.8831 50.9009 37.8831H65.388C66.326 37.8831 67.0863 37.1179 67.0863 36.174V18.981C67.0863 18.0371 66.326 17.2719 65.388 17.2719Z" fill="#00482F"/>
<path d="M64.038 31.4032C63.6898 30.1128 63.1294 29.6343 62.0594 29.2754L60.361 28.6687C60.361 28.6687 60.327 28.6601 60.2761 28.6431C60.1742 28.72 60.0808 28.7969 59.9704 28.8652C59.4609 29.1729 58.9428 29.3267 58.4248 29.3267C57.9068 29.3267 57.3888 29.1729 56.8793 28.8652C56.7689 28.7969 56.6755 28.72 56.5736 28.6431C56.5227 28.6601 56.4887 28.6687 56.4887 28.6687L54.7904 29.2754C53.7289 29.6258 53.1599 30.1128 52.8117 31.4032L52.3786 33.1464H64.471L64.038 31.4032ZM57.5247 27.7714C57.788 27.9252 58.0937 28.0535 58.4163 28.0535C58.739 28.0535 59.0448 27.9338 59.308 27.7714C59.9025 27.4125 60.3355 26.8315 60.5733 26.1735C60.862 25.3788 60.8875 24.6695 60.8875 24.6695C60.9639 22.8494 59.775 21.9351 58.4163 21.9351C57.0576 21.9351 55.8688 22.8494 55.9452 24.6695C55.9452 24.6695 55.9707 25.3788 56.2594 26.1735C56.4972 26.8315 56.9303 27.4125 57.5247 27.7714Z" fill="white"/>
</g>
<defs>
<clipPath id="clip0_15980_13126">
<rect width="100" height="100" fill="white"/>
</clipPath>
</defs>
</svg>
