<svg width="100" height="100" viewBox="0 0 100 100" fill="none" xmlns="http://www.w3.org/2000/svg">
<g clip-path="url(#clip0_15980_13140)">
<rect width="100" height="100" fill="#024731"/>
<path d="M73.2557 39.2334L75.9275 34.6872C76.5497 32.781 77.5945 30.827 79.062 29.0085C79.2853 28.7373 79.5087 28.4741 79.74 28.2109L83.6879 21.4874C88.1384 19.8523 91.0815 22.3248 91.0815 22.3248L92.9318 23.7924C93.1233 23.912 93.3067 24.0316 93.4822 24.1752C97.0394 26.9986 96.3534 33.7381 91.9428 39.2254C88.0587 44.0587 82.5953 46.3079 78.9105 44.8563L78.8945 44.8483C78.4 44.6489 77.9374 44.3937 77.5227 44.0587C77.3393 43.9152 77.1797 43.7557 77.0202 43.5961L74.6115 41.985L73.2557 39.2414V39.2334Z" fill="#006B4E"/>
<path d="M88.4176 36.5616C92.6049 31.3136 93.2828 24.8931 89.933 22.2133C86.5832 19.5414 80.4738 21.6231 76.2785 26.8711C72.0912 32.1192 71.4133 38.5396 74.7631 41.2195C78.1129 43.8914 84.2224 41.8097 88.4176 36.5616Z" fill="#6CF479"/>
<path d="M92.8282 26.2489L95.6117 28.2588C95.3645 26.5839 94.6467 25.1642 93.4343 24.1991L91.0895 22.3328C92.0785 23.3298 92.6527 24.6936 92.8362 26.2489H92.8282Z" fill="black"/>
<path d="M95.7072 29.8299L92.8838 27.7881C92.8678 28.1311 92.8359 28.474 92.796 28.8329L95.6434 30.8907C95.6833 30.5318 95.7072 30.1808 95.7152 29.8379L95.7072 29.8299Z" fill="black"/>
<path d="M92.1421 31.5768C91.5041 33.4271 90.4832 35.3254 89.0715 37.088C84.6529 42.6232 78.1846 44.8085 74.6114 41.9692L77.4189 44.2502C80.984 47.0976 87.4683 44.9202 91.8869 39.3691C93.3465 37.5347 94.3993 35.5726 95.0293 33.6505L92.1421 31.5688V31.5768Z" fill="black"/>
<path d="M77.5071 27.8919C81.2159 23.25 86.5676 21.3119 89.6861 23.4175C89.5665 23.2899 89.4309 23.1703 89.2953 23.0586C86.2326 20.618 80.6496 22.5242 76.8212 27.3177C72.9929 32.1111 72.3708 37.9812 75.4334 40.4218C75.5292 40.5016 75.6328 40.5734 75.7285 40.6372C73.1285 38.0131 73.8622 32.462 77.5151 27.8919H77.5071Z" fill="#024731"/>
<path d="M86.3041 36.8966C86.9421 36.1548 87.4925 35.3732 87.9391 34.5756C86.9023 35.6922 85.9771 35.8837 85.5384 35.8358C85.0359 35.772 84.6371 35.3892 84.6371 35.3892C81.3033 39.1537 78.4878 39.385 76.7651 38.5874C75.7601 38.1249 75.2896 37.1997 75.0742 36.5217C75.0742 37.9015 75.4969 39.0979 76.3663 39.8955C78.6314 41.9692 83.0819 40.6213 86.3041 36.8886V36.8966Z" fill="white"/>
<path d="M50.3091 75.5788C49.3759 63.1047 55.916 52.4331 64.9525 51.5558V17.4993L21.4847 42.4874V97.2169L51.0109 80.2446C50.668 78.7451 50.4287 77.1898 50.3091 75.5788Z" fill="#11B67A"/>
<path d="M52.5024 40.8605L54.7037 42.3679L44.1039 61.8128L39.6136 58.7342L31.0795 74.3746L27.1953 71.7187L21.4847 82.1988V87.2873L27.1953 76.8072L31.0795 79.4711L39.6136 63.8227L44.1039 66.9013L56.7295 43.7557L58.9947 45.303L61.3714 32.7731L52.5024 40.8605Z" fill="#6CF479"/>
<path d="M63.3575 16.7018L56.2431 13.2562L12.7753 38.2363V92.9659L19.8896 96.4114V41.6898L63.3575 16.7018Z" fill="black"/>
<path d="M61.9612 71.3516C59.377 61.996 62.1207 53.0792 68.0945 51.4282C74.0684 49.7772 80.9993 56.0222 83.5834 65.3778C86.1676 74.7333 83.4239 83.6502 77.4501 85.3012C71.4763 86.9522 64.5453 80.7072 61.9612 71.3516Z" fill="#6CF479"/>
<path d="M61.9613 55.1368L57.12 56.2295C58.4041 54.1478 60.1667 52.6643 62.3282 52.0661L66.5074 50.9256C64.6252 51.6833 63.0858 53.1668 61.9613 55.1368Z" fill="black"/>
<path d="M56.0993 58.2634L61.0123 57.1547C60.8368 57.6173 60.6773 58.0959 60.5338 58.5904L55.5888 59.707C55.7403 59.2125 55.9078 58.7339 56.0913 58.2713L56.0993 58.2634Z" fill="black"/>
<path d="M59.8476 62.6181C59.6402 65.4415 59.9274 68.544 60.7967 71.6945C63.5244 81.5605 70.8781 88.1405 77.2347 86.4017L72.21 87.8374C65.8533 89.592 58.4758 83.0121 55.756 73.1301C54.8548 69.86 54.5756 66.6538 54.8309 63.7426L59.8476 62.6181Z" fill="black"/>
<path d="M81.3819 66.0395C79.1008 57.7607 73.0791 52.1458 67.7433 53.1747C67.9746 53.0789 68.2219 52.9912 68.4691 52.9194C73.9245 51.412 80.2653 57.1226 82.6261 65.6647C84.9869 74.2147 82.4825 82.3659 77.0191 83.8653C76.8437 83.9132 76.6762 83.9531 76.5007 83.985C81.4457 81.9751 83.631 74.1828 81.3739 66.0316H81.3898L81.3819 66.0395Z" fill="#024731"/>
<path d="M64.5854 73.0023C64.1547 71.6544 63.8755 70.3065 63.732 68.9985C64.4817 71.0722 65.5903 71.8538 66.2044 72.0373C66.9143 72.2446 67.656 71.9575 67.656 71.9575C69.9371 78.8565 73.5581 80.7707 76.3017 80.683C77.8969 80.6351 79.0454 79.678 79.7313 78.8964C78.9497 80.7308 77.7135 82.0787 76.0944 82.645C71.9071 84.1125 66.7548 79.7897 64.5933 73.0023H64.5854Z" fill="white"/>
<path d="M27.506 0.112305C27.506 0.112305 29.3882 6.35732 37.029 8.08008C37.029 8.08008 31.2386 9.07705 31.1269 16.0239C31.1269 16.0239 29.0852 10.0022 21.7714 8.0721C21.7714 8.0721 27.8888 7.34631 27.506 0.112305Z" fill="white"/>
<path d="M8.27668 54.0603C8.27668 54.0603 9.64851 58.5985 15.2076 59.8587C15.2076 59.8587 10.9964 60.5845 10.9167 65.6411C10.9167 65.6411 9.43317 61.2544 4.11334 59.8507C4.11334 59.8507 8.56381 59.3243 8.29263 54.0603H8.27668Z" fill="white"/>
<path d="M48.8732 91.7378C48.8732 91.7378 49.8622 95.0238 53.882 95.925C53.882 95.925 50.8353 96.4514 50.7714 100.112C50.7714 100.112 49.7027 96.938 45.8504 95.925C45.8504 95.925 49.0726 95.5422 48.8732 91.7378Z" fill="white"/>
<path d="M50.3328 75.8659L25.4166 90.1824V44.6808L24.1484 45.4066V92.5033L50.4923 77.3654C50.4285 76.8709 50.3727 76.3684 50.3328 75.8659Z" fill="#006B4E"/>
</g>
<defs>
<clipPath id="clip0_15980_13140">
<rect width="100" height="100" fill="white"/>
</clipPath>
</defs>
</svg>
