<svg width="100" height="100" viewBox="0 0 100 100" fill="none" xmlns="http://www.w3.org/2000/svg">
<g clip-path="url(#clip0_15980_13154)">
<rect width="100" height="100" fill="#024731"/>
<path d="M96.9448 63.1618L51.106 40.4689L49.4675 46.6763L91.608 72.837C92.5053 73.3928 93.504 73.6511 94.4792 73.6511C96.4142 73.6511 98.3024 72.6256 99.3089 70.8017C100.83 68.0463 99.7536 64.5786 96.9448 63.1696V63.1618Z" fill="#11B67A"/>
<path d="M49.4674 46.6776L63.1059 55.1473C63.1605 53.8635 63.2386 52.1649 63.3322 50.5993C63.5117 47.6404 62.1306 46.114 61.6547 45.6991L51.1059 40.4779L49.4674 46.6854V46.6776Z" fill="black"/>
<path d="M59.6885 36.7049C56.4896 35.6716 52.487 33.8478 48.4142 31.5855C44.3413 29.3233 40.682 26.881 38.1072 24.7127C37.3114 24.0395 36.6638 23.4289 36.1332 22.8653L25.1944 42.6854C25.1632 42.7323 25.1632 42.795 25.1476 42.8498C26.1463 44.5093 30.0474 48.0631 37.1398 52.0005C44.2243 55.9379 49.2958 57.3704 51.2308 57.3469C51.2698 57.3078 51.3244 57.2686 51.3478 57.2217L62.2867 37.4016C61.5299 37.2529 60.6717 37.0259 59.6808 36.7049H59.6885Z" fill="#6CF479"/>
<path d="M38.7313 63.2398C23.704 63.2398 11.5167 67.0128 11.5167 71.6626C11.5167 76.3123 23.704 80.0853 38.7313 80.0853C53.7586 80.0853 65.9459 76.3123 65.9459 71.6626C65.9459 67.0128 53.7586 63.2398 38.7313 63.2398Z" fill="#6CF479"/>
<path d="M11.5167 71.6564C11.5167 72.0087 11.5947 72.3609 11.7352 72.6975C16.0733 73.4647 22.0655 73.723 28.4868 73.2768C40.4946 72.447 49.4361 69.4803 48.4686 66.6466C47.9224 65.0497 44.3334 63.8364 39.1604 63.2337C39.02 63.2337 38.8795 63.2337 38.7391 63.2337C23.7118 63.2337 11.5245 67.0067 11.5245 71.6564H11.5167Z" fill="black"/>
<path d="M50.8875 62.0358C50.5052 62.2315 50.0214 62.3333 49.4284 62.3333C45.7926 62.3333 38.6924 58.983 34.6586 56.7442C29.8992 54.0984 21.5896 48.6502 21.5584 45.6209C21.0123 45.5817 20.6144 45.9575 20.6144 45.9575C19.4674 47.1003 17.5949 49.386 17.4778 52.1962C17.3218 54.0827 23.1033 58.8421 30.9525 63.2022C38.8017 67.5623 45.894 69.9576 47.3998 68.8304C49.7171 67.2413 50.6534 64.4311 51.0123 62.8577C51.0123 62.8577 51.1606 62.3098 50.8797 62.0358H50.8875Z" fill="#11B67A"/>
<path d="M69.0436 79.1849C68.7939 78.0811 68.0838 76.6799 66.8043 76.3434L66.3829 73.9637C65.6183 75.13 64.2763 76.1711 62.513 77.0635L63.6599 82.3003C63.1138 82.6056 62.513 82.8952 61.8576 83.1771L60.7029 77.8698C59.9304 78.1751 59.1112 78.4647 58.2373 78.7308L59.4311 84.0851C58.0657 84.5313 56.5442 84.9383 54.9057 85.2906L53.6963 79.8659C49.1241 80.7739 43.8732 81.2436 38.747 81.2436C26.786 81.2436 14.1774 78.6995 11.0877 73.948L10.6664 76.3355C9.39462 76.6643 8.68457 78.0733 8.4349 79.177C8.41149 79.2866 8.39593 79.3884 8.38032 79.498H8.35689L8.03702 81.2905C8.00581 81.4706 7.9824 81.6506 7.9824 81.8307C7.9824 87.091 21.7535 91.3493 38.747 91.3493C55.7406 91.3493 69.5117 87.091 69.5117 81.8307C69.5117 81.5958 69.0904 79.2866 69.067 79.177L69.0436 79.1849Z" fill="black"/>
<path d="M7.6079 47.578C11.2906 54.9127 4.72107 57.2454 4.72107 57.2454C12.0943 57.9186 18.8823 59.9303 18.8823 59.9303C12.1099 55.0458 7.6079 47.578 7.6079 47.578ZM29.4857 73.1672C29.4857 73.1672 13.3504 73.6447 19.92 63.312C19.92 63.312 11.6807 64.9949 0.000610352 63.8521C0.000610352 63.8521 8.64563 65.5977 10.3622 70.4823C12.3596 76.1574 7.68595 81.1673 7.68595 81.1673C7.68595 81.1673 15.5585 76.6976 20.2009 81.316C20.2009 81.316 23.158 86.1066 21.3869 91.5C21.3869 91.5 26.4038 77.2847 29.4857 73.1672Z" fill="white"/>
<path d="M58.0813 14.0812C51.9018 10.6448 46.2061 8.5 43.6625 8.5C42.9759 8.5 42.5234 8.65656 42.3439 8.9775C41.4935 10.5196 47.158 15.3024 55.0071 19.6625C61.1866 23.0989 66.8823 25.2437 69.4259 25.2437C70.1125 25.2437 70.565 25.0872 70.7445 24.7662C71.595 23.2242 65.9304 18.4413 58.0813 14.0812Z" fill="#6CF479"/>
<path d="M50.5288 27.7628C49.3663 27.121 41.1036 22.4477 37.8032 18.5416C37.3741 18.7452 36.9996 19.0661 36.7499 19.5201C36.3364 20.2716 36.3832 21.1483 36.7889 21.8372C37.2648 22.3695 37.928 23.027 38.8643 23.8176C41.3845 25.9389 44.9736 28.3343 48.984 30.5652C52.9866 32.7883 56.919 34.573 60.0477 35.5907C61.4911 36.0603 62.5444 36.2873 63.2935 36.3813C63.9801 36.2795 64.6199 35.8725 64.9788 35.2149C65.2363 34.7453 65.3065 34.2208 65.2285 33.7276C61.9671 33.2736 56.4118 31.0349 50.521 27.7707L50.5288 27.7628Z" fill="#11B67A"/>
<path d="M69.4183 26.4191C66.5782 26.4191 60.6953 24.1725 54.43 20.6892C50.5756 18.5443 47.1036 16.2273 44.6537 14.1607C42.1101 12.0159 40.9709 10.4347 41.0802 9.16659C40.019 10.1529 37.7329 12.6108 37.6081 15.7263C37.4521 17.6128 43.2336 22.3721 51.0828 26.7323C57.6211 30.3644 63.6367 32.6344 66.3364 32.6344C66.8747 32.6344 67.2805 32.5405 67.5301 32.3526C70.1205 30.5835 70.9787 27.2959 71.244 25.8868C70.8071 26.2234 70.1985 26.4035 69.4105 26.4035L69.4183 26.4191Z" fill="#11B67A"/>
<path d="M34.807 42.3619L42.6874 28.0917C40.9396 26.9019 39.6054 25.9078 38.6301 25.125L27.4494 45.3678C29.3922 47.1134 32.4585 49.3521 36.7185 51.7553C33.9097 49.5556 33.0281 45.5869 34.807 42.3619Z" fill="white"/>
<path d="M22.768 45.6126C22.7836 47.3504 28.3779 51.8749 35.244 55.687C39.9644 58.3094 46.4091 61.1274 49.4286 61.1274C49.9124 61.1274 50.1854 61.0413 50.3337 60.963C50.3337 60.963 50.911 60.6812 51.2153 60.1411C51.5196 59.601 51.5665 59.0217 51.4338 58.4816C51.309 58.4894 51.1842 58.5051 51.0515 58.5051C47.4858 58.5051 40.5339 55.2252 36.5781 53.0256C32.5365 50.779 25.8811 46.4737 24.1568 43.4287C23.6731 43.6243 23.2595 43.9688 22.9786 44.4541C22.6978 44.9394 22.7602 45.6126 22.7602 45.6126H22.768Z" fill="#11B67A"/>
</g>
<defs>
<clipPath id="clip0_15980_13154">
<rect width="100" height="100" fill="white"/>
</clipPath>
</defs>
</svg>
