<svg width="100" height="100" viewBox="0 0 100 100" fill="none" xmlns="http://www.w3.org/2000/svg">
<g clip-path="url(#clip0_15980_13175)">
<rect width="100" height="100" fill="#024731"/>
<path d="M61.172 13.2546C61.1832 11.4822 56.4365 10.0158 50.5698 9.97921C44.7032 9.94264 39.9382 11.3498 39.927 13.1221C39.9158 14.8945 44.6625 16.3609 50.5292 16.3975C56.3958 16.434 61.1608 15.0269 61.172 13.2546Z" fill="#6CF479"/>
<path d="M49.6708 97.0064C68.6399 97.1252 75.7583 86.8637 75.7583 86.8637C77.2459 84.0408 78.6636 81.6934 77.0861 77.2064L61.3318 36.2001L61.4516 17.3609L50.1799 18.3217H50.3996L39.1379 17.2222L39.0181 36.0614L22.7346 76.8697C21.9859 80.901 22.6548 83.4465 24.1024 86.2892C24.1024 86.2892 30.9213 96.8875 49.8904 97.0064" fill="#11B67A"/>
<path d="M49.6508 100.087C69.0292 100.206 76.1277 89.4688 76.1277 89.4688C77.4929 87.3237 78.0675 84.3051 77.9185 81.4479C77.8998 81.2973 77.7476 80.314 77.8998 80.3068L70.9112 83.7735H48.9469C48.9469 83.7735 40.1909 83.429 33.9713 82.783C29.0723 82.2741 22.7047 77.157 22.7047 77.157C21.4967 82.1689 21.6863 86.9035 23.5333 89.142C23.5333 89.142 30.492 99.968 49.8704 100.087" fill="black"/>
<path d="M49.8405 97.2542C68.8096 97.3731 75.7583 86.8637 75.7583 86.8637C75.7583 86.8637 78.0446 84.1203 77.7351 80.0196C77.7351 80.0196 78.1145 72.0759 49.3713 71.8085C22.3353 71.5608 22.7047 77.157 22.7047 77.157C21.9559 81.1883 22.8145 83.6944 24.2721 86.5371C24.2721 86.5371 31.091 97.1354 50.0601 97.2542" fill="#006A4D"/>
<path d="M69.4685 90.8553C66.5034 91.41 63.069 93.9655 59.385 94.2725L59.355 99.1556C65.0757 98.2048 68.3104 96.6992 69.798 95.164L69.818 91.4397C68.9194 91.6675 70.5667 90.6572 69.4685 90.8553Z" fill="#006A4D"/>
<path d="M53.4352 49.6014C56.1894 49.6014 58.4227 47.3857 58.4227 44.6533C58.4227 41.9209 56.1894 39.6965 53.4352 39.6965C50.6811 39.6965 48.4478 41.9122 48.4478 44.6446C48.4478 47.377 50.6811 49.5927 53.4352 49.5927V49.6014Z" fill="#6CF479"/>
<path d="M53.6735 42.7352C53.6735 42.7352 57.0279 43.0855 56.26 47.4993C57.0103 46.7724 57.4693 45.7653 57.4693 44.6443C57.4693 42.4374 55.6685 40.6421 53.4352 40.6421C53.1527 40.6421 52.8791 40.6684 52.6231 40.7209C53.1351 40.8347 53.9384 41.2464 53.6735 42.7264V42.7352Z" fill="#54B27F"/>
<path d="M46.451 32.7534C48.1051 32.7534 49.4461 31.423 49.4461 29.7819C49.4461 28.1408 48.1051 26.8104 46.451 26.8104C44.7968 26.8104 43.4559 28.1408 43.4559 29.7819C43.4559 31.423 44.7968 32.7534 46.451 32.7534Z" fill="#6CF479"/>
<path d="M28.2157 68.8567C28.2157 68.8567 29.4137 65.3801 34.0961 64.2806C39.9067 62.9137 42.5723 67.6879 47.684 65.5484C48.1732 65.3404 54.8823 59.9423 55.2217 59.8234C62.7994 57.1689 47.9935 86.1111 25.5001 75.909L28.2157 68.8666V68.8567Z" fill="#024731"/>
<path d="M49.9503 94.1737C67.1722 94.2826 73.482 84.7442 73.482 84.7442C75.6784 81.8223 75.7982 78.8112 74.8298 76.2062L66.8028 55.9209C50.14 47.0659 49.4811 67.8266 39.9266 71.8975C33.4871 74.6412 27.1974 72.9177 28.2157 68.8666L25.5001 75.909C24.8212 79.5738 24.8112 82.0105 26.7481 84.457C26.7481 84.457 32.938 94.0746 50.15 94.1836" fill="#6CF479"/>
<path d="M64.6064 73.9376C69.8479 82.9115 57.5679 88.8742 57.5679 88.8742C68.2006 87.2102 71.006 81.2573 71.006 81.2573C73.6118 78.058 66.094 64.6666 66.094 64.6666C62.5099 66.5386 61.5614 69.4606 64.6164 73.9376H64.6064Z" fill="#F1F1F1"/>
<path d="M38.4491 17.2222L62.0906 17.3708V19.4508C62.0706 21.0158 56.3998 22.4421 50.6093 22.452C44.5392 22.452 38.3193 20.9168 38.3393 18.9259L38.4491 17.2321V17.2222Z" fill="#006A4D"/>
<path d="M36.2426 13.5619V15.2014C36.2227 18.1927 42.5823 20.659 50.4495 20.7086C58.3167 20.7581 64.7063 18.371 64.7262 15.3797H64.7462V13.686C64.7426 13.6835 64.739 13.681 64.7354 13.6785C64.7442 10.6895 58.385 8.22789 50.5231 8.17889C42.655 8.12984 36.2612 10.5157 36.2423 13.508C36.2422 13.526 36.2423 13.544 36.2426 13.5619Z" fill="black"/>
<path d="M61.172 13.2546C61.1832 11.4822 56.4365 10.0158 50.5698 9.97921C44.7032 9.94264 39.9382 11.3498 39.927 13.1221C39.9158 14.8945 44.6625 16.3609 50.5292 16.3975C56.3958 16.434 61.1608 15.0269 61.172 13.2546Z" fill="#6CF479"/>
<path d="M64.7662 13.4287C64.267 15.4493 58.6661 17.8165 53.9538 18.2226C58.726 18.3316 64.1672 16.41 64.7562 14.9837L64.7762 13.4287H64.7662Z" fill="#6CF479"/>
<path d="M61.172 13.2546C61.1832 11.4822 56.4365 10.0158 50.5698 9.97921C44.7032 9.94264 39.9382 11.3498 39.927 13.1221C39.9158 14.8945 44.6625 16.3609 50.5292 16.3975C56.3958 16.434 61.1608 15.0269 61.172 13.2546Z" fill="#11B67A"/>
<path d="M47.1097 13.0447C47.1097 14.6211 49.2372 14.9343 49.2372 14.9343C46.1998 14.7929 42.4575 14.0451 42.4575 12.9335C42.4575 11.822 46.9431 10.9428 52.4412 10.9731C52.4412 10.9731 47.1097 11.2864 47.1097 13.0447Z" fill="#F1F1F1"/>
<path d="M55.2635 5.08933C56.6556 5.08933 57.7841 3.96972 57.7841 2.58861C57.7841 1.2075 56.6556 0.0878906 55.2635 0.0878906C53.8714 0.0878906 52.7429 1.2075 52.7429 2.58861C52.7429 3.96972 53.8714 5.08933 55.2635 5.08933Z" fill="#6CF479"/>
</g>
<defs>
<clipPath id="clip0_15980_13175">
<rect width="100" height="100" fill="white"/>
</clipPath>
</defs>
</svg>
