<svg width="100" height="100" viewBox="0 0 100 100" fill="none" xmlns="http://www.w3.org/2000/svg">
<g clip-path="url(#clip0_15980_13173)">
<rect width="100" height="100" fill="#024731"/>
<path d="M61.172 12.9342C61.1832 11.1619 56.4365 9.69547 50.5698 9.6589C44.7032 9.62233 39.9382 11.0295 39.927 12.8018C39.9158 14.5742 44.6625 16.0406 50.5292 16.0772C56.3958 16.1137 61.1608 14.7066 61.172 12.9342Z" fill="#6CF479"/>
<path d="M49.6708 96.6861C68.6399 96.8049 75.7583 86.5434 75.7583 86.5434C77.2459 83.7205 78.6636 81.373 77.0861 76.8861L61.3318 35.8797L61.4516 17.0406L50.1799 18.0014H50.3996L39.1379 16.9019L39.0181 35.7411L22.7346 76.5494C21.9859 80.5807 22.6548 83.1262 24.1024 85.9689C24.1024 85.9689 30.9213 96.5672 49.8904 96.6861" fill="#11B67A"/>
<path d="M49.6508 99.7666C69.0292 99.8855 76.1277 89.1485 76.1277 89.1485C77.4929 87.0034 78.0675 83.9848 77.9185 81.1276C77.8998 80.977 77.7476 79.9937 77.8998 79.9865L70.9112 83.4532H48.9469C48.9469 83.4532 40.1909 83.1087 33.9713 82.4627C29.0723 81.9538 22.7047 76.8367 22.7047 76.8367C21.4967 81.8486 21.6863 86.5831 23.5333 88.8217C23.5333 88.8217 30.492 99.6477 49.8704 99.7666" fill="black"/>
<path d="M49.8405 96.9339C68.8096 97.0528 75.7583 86.5434 75.7583 86.5434C75.7583 86.5434 78.0446 83.8 77.7351 79.6993C77.7351 79.6993 78.1145 71.7556 49.3713 71.4882C22.3353 71.2405 22.7047 76.8367 22.7047 76.8367C21.9559 80.868 22.8145 83.3741 24.2721 86.2168C24.2721 86.2168 31.091 96.815 50.0601 96.9339" fill="#006A4D"/>
<path d="M69.4685 90.535C66.5034 91.0897 63.069 93.6452 59.385 93.9522L59.355 98.8353C65.0757 97.8845 68.3104 96.3789 69.798 94.8437L69.818 91.1194C68.9194 91.3472 70.5667 90.3369 69.4685 90.535Z" fill="#006A4D"/>
<path d="M53.4352 49.2811C56.1894 49.2811 58.4227 47.0654 58.4227 44.333C58.4227 41.6006 56.1894 39.3762 53.4352 39.3762C50.6811 39.3762 48.4478 41.5919 48.4478 44.3243C48.4478 47.0567 50.6811 49.2723 53.4352 49.2723V49.2811Z" fill="#6CF479"/>
<path d="M53.6735 42.4148C53.6735 42.4148 57.0279 42.7652 56.26 47.179C57.0103 46.4521 57.4693 45.445 57.4693 44.324C57.4693 42.1171 55.6685 40.3218 53.4352 40.3218C53.1527 40.3218 52.8791 40.348 52.6231 40.4006C53.1351 40.5144 53.9384 40.926 53.6735 42.4061V42.4148Z" fill="#54B27F"/>
<path d="M46.451 32.4331C48.1051 32.4331 49.4461 31.1027 49.4461 29.4616C49.4461 27.8205 48.1051 26.4901 46.451 26.4901C44.7968 26.4901 43.4559 27.8205 43.4559 29.4616C43.4559 31.1027 44.7968 32.4331 46.451 32.4331Z" fill="#6CF479"/>
<path d="M28.2157 68.5364C28.2157 68.5364 29.4137 65.0598 34.0961 63.9603C39.9067 62.5934 42.5723 67.3676 47.684 65.2281C48.1732 65.0201 54.8823 59.622 55.2217 59.5031C62.7994 56.8486 47.9935 85.7908 25.5001 75.5887L28.2157 68.5463V68.5364Z" fill="#024731"/>
<path d="M49.9503 93.8534C67.1722 93.9623 73.482 84.4239 73.482 84.4239C75.6784 81.5019 75.7982 78.4909 74.8298 75.8859L66.8028 55.6006C50.14 46.7456 49.4811 67.5063 39.9266 71.5772C33.4871 74.3209 27.1974 72.5974 28.2157 68.5463L25.5001 75.5887C24.8212 79.2535 24.8112 81.6901 26.7481 84.1367C26.7481 84.1367 32.938 93.7543 50.15 93.8633" fill="#6CF479"/>
<path d="M64.6064 73.6173C69.8479 82.5911 57.5679 88.5539 57.5679 88.5539C68.2006 86.8899 71.006 80.937 71.006 80.937C73.6118 77.7377 66.094 64.3463 66.094 64.3463C62.5099 66.2183 61.5614 69.1403 64.6164 73.6173H64.6064Z" fill="#F1F1F1"/>
<path d="M38.4491 16.9019L62.0906 17.0505V19.1305C62.0706 20.6955 56.3998 22.1218 50.6093 22.1317C44.5392 22.1317 38.3193 20.5965 38.3393 18.6056L38.4491 16.9118V16.9019Z" fill="#006A4D"/>
<path d="M36.2426 13.2416V14.8811C36.2227 17.8724 42.5823 20.3387 50.4495 20.3883C58.3167 20.4378 64.7063 18.0507 64.7262 15.0594H64.7462V13.3657C64.7426 13.3632 64.739 13.3607 64.7354 13.3581C64.7442 10.3691 58.385 7.90758 50.5231 7.85857C42.655 7.80953 36.2612 10.1954 36.2423 13.1877C36.2422 13.2057 36.2423 13.2236 36.2426 13.2416Z" fill="black"/>
<path d="M61.172 12.9342C61.1832 11.1619 56.4365 9.69547 50.5698 9.6589C44.7032 9.62233 39.9382 11.0295 39.927 12.8018C39.9158 14.5742 44.6625 16.0406 50.5292 16.0772C56.3958 16.1137 61.1608 14.7066 61.172 12.9342Z" fill="#6CF479"/>
<path d="M64.7662 13.1083C64.267 15.1289 58.6661 17.4962 53.9538 17.9023C58.726 18.0113 64.1672 16.0897 64.7562 14.6634L64.7762 13.1083H64.7662Z" fill="#6CF479"/>
<path d="M61.172 12.9342C61.1832 11.1619 56.4365 9.69547 50.5698 9.6589C44.7032 9.62233 39.9382 11.0295 39.927 12.8018C39.9158 14.5742 44.6625 16.0406 50.5292 16.0772C56.3958 16.1137 61.1608 14.7066 61.172 12.9342Z" fill="#11B67A"/>
<path d="M47.1097 12.7244C47.1097 14.3008 49.2372 14.614 49.2372 14.614C46.1998 14.4726 42.4575 13.7248 42.4575 12.6132C42.4575 11.5017 46.9431 10.6225 52.4412 10.6528C52.4412 10.6528 47.1097 10.9661 47.1097 12.7244Z" fill="#F1F1F1"/>
<path d="M55.2635 4.76902C56.6556 4.76902 57.7841 3.64941 57.7841 2.2683C57.7841 0.887189 56.6556 -0.232422 55.2635 -0.232422C53.8714 -0.232422 52.7429 0.887189 52.7429 2.2683C52.7429 3.64941 53.8714 4.76902 55.2635 4.76902Z" fill="#6CF479"/>
</g>
<defs>
<clipPath id="clip0_15980_13173">
<rect width="100" height="100" fill="white"/>
</clipPath>
</defs>
</svg>
