<svg width="100" height="100" viewBox="0 0 100 100" fill="none" xmlns="http://www.w3.org/2000/svg">
<g clip-path="url(#clip0_15980_13189)">
<rect width="100" height="100" fill="#024731"/>
<path d="M99.0939 86.2482L86.7822 71.837C85.8773 70.7721 85.3736 69.4242 85.3736 68.038H85.3644V26.4799C85.3644 25.3967 84.4825 24.5154 83.3984 24.5154L83.4061 24.5077H16.4843C15.4003 24.5077 14.5184 25.389 14.5184 26.4723V68.0365H14.5138C14.5138 69.4441 14.0315 70.7905 13.1052 71.8355L0.795056 86.2482C0.251512 86.8908 -0.0501168 87.0055 -0.0501168 87.8501V88.583C-0.0501168 89.5683 0.753716 89.6632 1.73975 89.6632H98.1476C99.1337 89.6632 99.9375 89.5683 99.9375 88.583V87.8501C99.9375 87.0055 99.6359 86.8908 99.0939 86.2482Z" fill="#11B67A"/>
<path d="M84.1133 71.5725H15.1353L9.48703 78.635H89.7616L84.1133 71.5725Z" fill="#6CF479"/>
<path d="M65.5347 79.4138H33.7137L31.1077 85.4206H68.1407L65.5347 79.4138Z" fill="#6CF479"/>
<path d="M34.1165 79.8588H63.6608C63.6608 79.8588 41.253 80.2306 32.1353 84.4504L34.1165 79.8588Z" fill="#11B67A"/>
<path d="M59.026 73.8538C59.4149 73.8186 59.7977 73.7834 60.1743 73.7497H59.0046L59.026 73.8538Z" fill="#11B67A"/>
<path d="M58.64 71.9215L58.8635 73.0414H61.8323L61.5246 71.9215H58.64Z" fill="#11B67A"/>
<path d="M48.1352 73.7497L48.0908 74.8513C49.2407 74.7458 50.3522 74.6433 51.4286 74.5453L51.3965 73.7497H48.1337H48.1352Z" fill="#11B67A"/>
<path d="M51.3259 71.9215H48.2086L48.1642 73.0414H51.3703L51.3259 71.9215Z" fill="#11B67A"/>
<path d="M55.5533 73.7497L55.6038 74.1644C56.6572 74.068 57.6693 73.9762 58.6446 73.889L58.617 73.7513H55.5517L55.5533 73.7497Z" fill="#11B67A"/>
<path d="M79.0085 71.9215L79.1203 72.0898C79.9701 72.0194 80.6621 71.9643 81.224 71.9215H79.0085Z" fill="#11B67A"/>
<path d="M54.97 71.9215H51.6811L51.7255 73.0414H55.1078L54.97 71.9215Z" fill="#11B67A"/>
<path d="M58.2542 71.9215H55.3267L55.466 73.0414H58.4777L58.2542 71.9215Z" fill="#11B67A"/>
<path d="M51.7531 73.7497L51.7837 74.5132C52.9841 74.403 54.1386 74.2975 55.2517 74.1965L55.1966 73.7497H51.7531Z" fill="#11B67A"/>
<path d="M72.5593 71.9215L72.9176 72.6176C73.7919 72.5411 74.5957 72.4723 75.3337 72.4095L75.0459 71.923H72.5593V71.9215Z" fill="#11B67A"/>
<path d="M69.3071 71.9215L69.7388 72.8961C70.5963 72.8211 71.3986 72.7507 72.1534 72.6834L71.7614 71.9215H69.3071Z" fill="#11B67A"/>
<path d="M65.6418 71.9215L66.0445 73.0414H68.0901C68.4744 73.0078 68.851 72.9741 69.217 72.942L68.7653 71.9215H65.6418Z" fill="#11B67A"/>
<path d="M75.871 71.9215L76.1191 72.3422C76.9352 72.2734 77.664 72.2106 78.3132 72.1571L78.157 71.9215H75.8695H75.871Z" fill="#11B67A"/>
<path d="M61.9657 71.9215L62.275 73.0414H65.5424L65.1397 71.9215H61.9657Z" fill="#11B67A"/>
<path d="M41.2801 71.9215L41.0566 73.0414H44.0683L44.2076 71.9215H41.2801Z" fill="#11B67A"/>
<path d="M42.7424 75.344C43.0961 75.3119 43.4468 75.2798 43.7943 75.2477L43.9796 73.7513H40.9143L40.5958 75.344H42.7424Z" fill="#11B67A"/>
<path d="M32.8362 76.2606C33.5941 76.1902 34.3428 76.1213 35.0793 76.0525H32.9112L32.8362 76.2606Z" fill="#11B67A"/>
<path d="M21.287 77.3377C22.319 77.2413 23.3341 77.1464 24.3308 77.0531L24.8453 76.0525H22.0449L21.2855 77.3377H21.287Z" fill="#11B67A"/>
<path d="M25.1701 76.9751C26.1669 76.8818 27.1453 76.7915 28.1083 76.7012L28.3962 76.0541H25.6448L25.1701 76.9766V76.9751Z" fill="#11B67A"/>
<path d="M28.6761 76.6477C29.9163 76.5314 31.1305 76.4197 32.3171 76.3095L32.409 76.0525H28.9395L28.6761 76.6477Z" fill="#11B67A"/>
<path d="M12.1448 76.0525L11.7697 76.5222L10.4575 78.2741H11.2859C11.7299 78.2327 12.1724 78.1914 12.6118 78.1501L14.1613 76.0525H12.1448Z" fill="#11B67A"/>
<path d="M37.0682 75.344H40.2115L40.53 73.7497H37.5061L37.0682 75.344Z" fill="#11B67A"/>
<path d="M44.4268 73.0414H47.809L47.8534 71.9215H44.5646L44.4268 73.0414Z" fill="#11B67A"/>
<path d="M17.2126 71.9215H15.4488L14.5531 73.0414H16.3843L17.2126 71.9215Z" fill="#11B67A"/>
<path d="M44.1573 75.214C45.3868 75.1008 46.581 74.9906 47.7355 74.885L47.7814 73.7513H44.3395L44.1588 75.214H44.1573Z" fill="#11B67A"/>
<path d="M17.5557 77.6865C18.5218 77.5963 19.4757 77.506 20.4143 77.4188L21.2211 76.0525H18.6366L17.5541 77.6865H17.5557Z" fill="#11B67A"/>
<path d="M37.5689 71.9215H34.3949L33.9938 73.0414H37.2596L37.5689 71.9215Z" fill="#11B67A"/>
<path d="M15.043 76.0525L13.5594 78.0614C14.6051 77.9635 15.634 77.8671 16.6476 77.7722L17.7868 76.054H15.0415L15.043 76.0525Z" fill="#11B67A"/>
<path d="M30.2271 71.9215H27.7728L27.1971 73.0414H29.7311L30.2271 71.9215Z" fill="#11B67A"/>
<path d="M29.4172 73.7497H26.8312L26.0105 75.344H28.7098L29.4172 73.7497Z" fill="#11B67A"/>
<path d="M33.1652 75.344H36.6256L37.065 73.7497H33.7379L33.1652 75.344Z" fill="#11B67A"/>
<path d="M40.8944 71.9215H38.0098L37.702 73.0414H40.6708L40.8944 71.9215Z" fill="#11B67A"/>
<path d="M26.9751 71.9215H24.4886L23.8256 73.0414H26.3979L26.9751 71.9215Z" fill="#11B67A"/>
<path d="M33.8926 71.9215H30.7707L30.2746 73.0414H33.49L33.8926 71.9215Z" fill="#11B67A"/>
<path d="M29.9592 73.7497L29.2533 75.344H32.6631L33.2357 73.7497H29.9592Z" fill="#11B67A"/>
<path d="M20.5261 71.9215H18.0947L17.2664 73.0414H19.7835L20.5261 71.9215Z" fill="#11B67A"/>
<path d="M15.5669 75.344H18.2571L19.3135 73.7497H16.7428L15.5669 75.344Z" fill="#11B67A"/>
<path d="M26.0336 73.7497H23.4078L22.4662 75.344H25.213L26.0336 73.7497Z" fill="#11B67A"/>
<path d="M15.861 73.7497H13.9869L12.7115 75.344H14.6851L15.861 73.7497Z" fill="#11B67A"/>
<path d="M22.5824 73.7497H20.1648L19.1084 75.344H21.6408L22.5824 73.7497Z" fill="#11B67A"/>
<path d="M23.6632 71.9215H21.3772L20.6346 73.0414H23.0017L23.6632 71.9215Z" fill="#11B67A"/>
<path d="M-0.0625 87.4295V88.6352C-0.0625 89.6205 0.741333 89.7154 1.72737 89.7154H98.1352C99.1213 89.7154 99.9251 89.6205 99.9251 88.6352V87.4295H-0.0625Z" fill="black"/>
<path d="M89.2148 10.5098C89.2148 10.5098 91.2175 17.1271 99.3186 18.96C99.3186 18.96 93.1804 20.0172 93.0518 27.3858C93.0518 27.3858 90.8944 21.0026 83.1256 18.9524C83.1256 18.9524 89.619 18.1782 89.2148 10.5098Z" fill="white"/>
<path d="M15.9574 26.1082V67.1614H83.9494V26.1082H15.9574Z" fill="black"/>
<path d="M18.5773 28.7092H25.5653C25.5653 28.7092 20.5923 31.1205 18.5773 40.6861V28.7092Z" fill="white"/>
</g>
<defs>
<clipPath id="clip0_15980_13189">
<rect width="100" height="100" fill="white"/>
</clipPath>
</defs>
</svg>
