<svg width="100" height="100" viewBox="0 0 100 100" fill="none" xmlns="http://www.w3.org/2000/svg">
<rect width="100" height="100" fill="#024731"/>
<path d="M39.0556 5.0087V95.2687H59.003L59.0225 90.1465V20.3839L60.527 21.271V47.7168C61.0575 46.1166 61.7184 44.673 62.4924 43.4207V19.7578L39.0556 5V5.0087ZM48.6912 14.2965L50.8305 15.5574V82.2589H48.6912V14.2965ZM47.3867 82.2589H45.2474V12.2615L47.3867 13.5225V82.2589ZM52.135 16.3227L54.2743 17.5837V82.2502H52.135V16.3227ZM41.2905 9.93086L43.943 11.4962V82.2589H41.2905V9.93086ZM57.7181 82.2589H55.5788V18.3577L57.7181 19.6187V82.2589Z" fill="#6CF479"/>
<path d="M72.6847 27.6537C72.6847 27.6537 78.2852 15.4614 96.7215 27.6364L72.6847 27.6537Z" fill="white"/>
<path d="M39.0556 5.0087L13.4533 14.5571V54.0475L0 66.2312V95.2685L39.0556 95.2687V5.0087Z" fill="#11B67A"/>
<path d="M27.9937 35.8115C27.9937 35.8115 33.255 31.6024 37.0814 25.9585L37.3684 16.0098C37.3684 16.0098 34.4986 26.0541 27.9937 35.8115Z" fill="white"/>
<path d="M25.4631 11.7049L14.9839 15.7052V32.1328C14.9839 32.1328 17.4972 24.0016 23.6194 16.6271C23.6194 16.6271 16.8275 22.3232 17.1667 19.4795C17.5059 16.6271 25.4631 11.7136 25.4631 11.7136V11.7049Z" fill="white"/>
<path d="M62.4922 95.2684V56.4303L60.5182 57.1434L49.6477 95.2684H62.4922Z" fill="black"/>
<path d="M23.1151 95.2689V42.8469L13.4533 37.3508V54.0475L0 66.2312V95.2685L23.1151 95.2689Z" fill="black"/>
<path d="M85.8944 60.9877V95.2689H100V59.2484C100 57.1177 99.7391 55.2654 99.3304 53.674C98.1129 48.9953 94.5822 45.2645 90.0426 43.6122L77.6154 39.0901C84.4856 42.3165 85.9031 54.1349 85.9031 60.979L85.8944 60.9877Z" fill="#6CF479"/>
<path d="M87.5467 44.0905C92.521 46.3864 92.9993 51.1259 92.9993 51.1259C97.9737 52.9435 98.739 59.5962 98.739 59.5962C98.452 46.2038 87.5467 44.0992 87.5467 44.0992V44.0905Z" fill="white"/>
<path d="M87.877 73.9801V93.3992C87.877 93.3992 88.5728 88.0683 94.9559 84.7897C94.9559 84.7897 89.2859 83.9723 87.877 73.9801Z" fill="white"/>
<path d="M60.2922 95.2687H62.962V56.2914C62.962 54.7348 63.0837 53.1781 63.4316 51.6649C65.91 40.6814 73.9368 40.9336 73.9368 40.9336C64.9708 44.1599 65.1187 54.7087 65.1187 54.7087V59.5787L82.6941 58.1264V59.4395L65.1187 60.8918V63.0833L82.6941 61.8136V63.1181L65.1187 64.3878V66.5793L82.6941 65.4922V66.7967L65.1187 67.8837V70.0752L82.6941 69.1708V70.4753L65.1187 71.3797V73.5799L82.6941 72.8494V74.1538L65.1187 74.8843V77.0845L82.6941 76.5367V77.8411L65.1187 78.389V80.5892L82.6941 80.2239V81.5284L65.1187 81.8936V84.0938L82.6941 83.9112V85.2157L65.1187 85.3983V87.5898H82.6941V88.8943H65.1187V95.2774H85.8944V60.9962C85.8944 53.0129 83.9638 38.2638 73.7194 38.2638C73.1107 38.2638 72.4671 38.3159 71.7888 38.429C59.8573 40.3857 60.2922 57.5263 60.2922 57.5263V95.2774V95.2687Z" fill="#11B67A"/>
</svg>
