<svg width="100" height="100" viewBox="0 0 100 100" fill="none" xmlns="http://www.w3.org/2000/svg">
<g clip-path="url(#clip0_15980_13203)">
<rect width="100" height="100" fill="#024731"/>
<path d="M86.6342 45.5072C86.1003 45.0662 85.8914 44.3466 86.1158 43.6889C87.0597 40.9498 87.5627 38.0637 87.5627 35.077C87.5627 32.0902 87.0597 29.1964 86.108 26.4573C85.8527 25.7222 86.1467 24.902 86.8121 24.4919L99.6875 16.6073L85.048 21.0874C84.3361 21.304 83.5624 21.0255 83.16 20.391C80.3358 15.9728 76.2735 12.1505 71.3524 9.2334C79.09 16.4448 83.9338 26.7204 83.9338 38.1333C83.9338 43.155 82.9975 47.9523 81.2875 52.3705C82.4095 50.9622 83.3921 49.4766 84.2355 47.9291C84.5992 47.2637 85.3652 46.9232 86.1003 47.1089L89.6673 47.9987L86.6264 45.4995L86.6342 45.5072Z" fill="white"/>
<path d="M9.46782 33.2044C9.87017 33.5372 10.0249 34.0788 9.8547 34.5663C9.15058 36.6167 8.77143 38.7833 8.77143 41.0194C8.77143 43.2556 9.15058 45.4221 9.8547 47.4726C10.0481 48.0219 9.82375 48.6332 9.32854 48.9427L-0.3125 54.8465L10.6517 51.4884C11.1856 51.3259 11.7659 51.5348 12.0676 52.0068C14.18 55.3185 17.2209 58.1737 20.9117 60.3634C15.1163 54.9626 11.4873 47.2637 11.4873 38.7136C11.4873 34.9531 12.1915 31.3629 13.4682 28.0512C12.6325 29.1035 11.8897 30.2177 11.2629 31.3784C10.9921 31.8813 10.4118 32.1289 9.86243 31.9896L7.19297 31.3242L9.46782 33.1967V33.2044Z" fill="white"/>
<path d="M59.0977 75.9624C60.7071 68.2171 63.7402 60.8354 68.0733 54.212C70.5725 50.3974 72.0194 45.84 72.0194 40.9498C72.0194 27.5638 61.1791 16.7157 47.8008 16.7002C34.5385 16.6847 23.6672 27.4167 23.5202 40.679C23.466 45.6852 24.9284 50.351 27.4819 54.2352C31.8149 60.8431 34.8326 68.2248 36.442 75.9624C36.442 75.9624 36.5581 78.5468 47.6228 78.5468C59.206 78.5468 59.1054 75.9624 59.1054 75.9624H59.0977Z" fill="#6CF479"/>
<path d="M48.281 19.6867H48.134C55.5234 19.9498 63.3074 25.9077 63.408 32.2912C65.8685 33.2894 68.5612 35.6184 69.5284 40.9341C69.5284 35.2625 67.3155 29.9235 63.3074 25.9077C59.2916 21.8919 53.9604 19.6867 48.281 19.6867Z" fill="white"/>
<path d="M47.77 88.4508C45.7272 88.4508 43.8083 88.3502 42.1525 88.1645C42.903 89.7275 45.5725 90.8108 47.4527 90.8108C48.1336 90.8108 47.4063 90.8108 48.0872 90.8108C49.9752 90.8108 52.6369 89.7275 53.3875 88.1645C51.7239 88.3425 49.8127 88.4508 47.77 88.4508Z" fill="#11B67A"/>
<path d="M47.7701 85.0772C41.4563 85.0772 36.3417 84.079 36.3417 82.841V84.2106C36.3417 84.2106 36.3417 85.0849 36.3417 85.1004C36.3417 86.3307 41.4563 87.3365 47.7701 87.3365C54.084 87.3365 59.1986 86.3384 59.1986 85.1004C59.1986 85.0927 59.1986 84.2183 59.1986 84.2106V82.841C59.1986 84.0713 54.084 85.0772 47.7701 85.0772Z" fill="#11B67A"/>
<path d="M59.1986 77.711C59.1986 78.9413 54.084 79.9472 47.7701 79.9472C41.4563 79.9472 36.3417 78.9491 36.3417 77.711V82.2143C36.3417 82.2143 36.3417 82.2298 36.3417 82.2375C36.3417 83.4678 41.4563 84.4737 47.7701 84.4737C54.084 84.4737 59.1986 83.4755 59.1986 82.2375C59.1986 82.2298 59.1986 82.2143 59.1986 82.2143V77.711Z" fill="#11B67A"/>
<path d="M41.944 84.8839V84.7678C41.6887 84.7368 41.4411 84.7059 41.1935 84.6749C40.5048 84.5821 39.8703 84.4738 39.2977 84.35V86.6016C39.8935 86.7254 40.5667 86.8415 41.294 86.9421C41.3482 86.9498 41.4101 86.9575 41.4643 86.9653C41.619 86.9885 41.7738 87.004 41.9363 87.0272C42.3154 87.0659 42.6945 87.1046 43.0969 87.1432C42.0678 86.9962 41.944 85.2088 41.9363 84.8839H41.944Z" fill="black"/>
<path d="M41.085 84.048C41.085 84.048 41.1237 84.048 41.1469 84.0557C41.2397 84.0712 41.3326 84.0789 41.4254 84.0944C41.5492 84.1099 41.6808 84.1254 41.8046 84.1409C41.851 84.1409 41.8897 84.1563 41.9361 84.1563C42.47 84.2182 43.0271 84.2724 43.6074 84.3188C41.8974 84.1873 41.9438 82.4386 41.9438 82.4386V79.6376C40.9612 79.5215 40.0714 79.3822 39.3053 79.212V83.7385C39.8392 83.8546 40.435 83.9552 41.085 84.048Z" fill="black"/>
<path fill-rule="evenodd" clip-rule="evenodd" d="M50.734 28.1288C48.3973 33.6998 46.0528 39.2709 43.716 44.8497C42.8959 45.2521 40.1567 46.5984 39.6074 46.8615C43.3137 40.6172 47.0277 34.373 50.734 28.1288Z" fill="#006A4D"/>
<path fill-rule="evenodd" clip-rule="evenodd" d="M57.5972 42.2188C53.535 48.4785 49.4728 54.7459 45.4105 61.0056C47.6312 55.6203 49.8519 50.2272 52.0726 44.8418C53.9141 43.9674 55.7557 43.0931 57.5972 42.2188Z" fill="black"/>
<path fill-rule="evenodd" clip-rule="evenodd" d="M57.6673 42.1415L57.5976 42.2267C55.7561 43.101 53.9145 43.9753 52.073 44.8497L43.716 44.8497C45.7046 43.8748 47.6935 42.8998 49.6821 41.9249C49.6821 41.9404 49.6821 41.9481 49.6743 41.9636C52.3438 42.0255 55.0055 42.0874 57.675 42.1493L57.6673 42.1415Z" fill="#006A4D"/>
<path fill-rule="evenodd" clip-rule="evenodd" d="M52.0726 44.8418C50.0144 45.8167 47.9638 46.7918 45.9056 47.7667H37.874L37.9513 47.6661C39.8703 46.7221 41.7892 45.7859 43.7081 44.8419H52.0647L52.0726 44.8418Z" fill="#006A4D"/>
<path fill-rule="evenodd" clip-rule="evenodd" d="M50.7331 28.1287C50.3772 32.7248 50.029 37.3209 49.6731 41.917C48.8219 42.3349 47.9631 42.7527 47.1119 43.1705C45.9745 43.7276 44.8455 44.2848 43.7081 44.8419C46.0449 39.2708 48.3886 33.6997 50.7254 28.1209L50.7331 28.1287Z" fill="#006A4D"/>
<path d="M52.0726 44.8418C51.0203 47.3875 46.5867 58.1659 45.4105 61.0056C45.5885 56.5952 45.7665 52.177 45.9444 47.7666H45.898C46.6718 47.3952 47.4455 47.0315 48.2193 46.6601C49.5037 46.0489 50.7804 45.4453 52.0649 44.834L52.0726 44.8418Z" fill="#006A4D"/>
<path d="M50.734 28.1288C50.587 28.0591 46.3231 34.5742 37.951 47.6739C38.5004 47.4031 39.0498 47.1323 39.5991 46.8615C47.1587 34.4427 50.8728 28.1984 50.7258 28.1288L50.734 28.1288Z" fill="black"/>
</g>
<defs>
<clipPath id="clip0_15980_13203">
<rect width="100" height="100" fill="white"/>
</clipPath>
</defs>
</svg>
