<svg width="100" height="100" viewBox="0 0 100 100" fill="none" xmlns="http://www.w3.org/2000/svg">
<g clip-path="url(#clip0_15980_13219)">
<rect width="100" height="100" fill="#024731"/>
<path d="M52.3646 100.112C65.6542 100.112 76.4276 97.5711 76.4276 94.4364C76.4276 91.3016 65.6542 88.7605 52.3646 88.7605C39.075 88.7605 28.3016 91.3016 28.3016 94.4364C28.3016 97.5711 39.075 100.112 52.3646 100.112Z" fill="black"/>
<path d="M54.1473 90.6383H44.8631L44.0894 82.7435L52.2905 80.8137L54.1473 90.6383Z" fill="black"/>
<path d="M53.7964 0.112305H43.2701L47.656 2.04213L53.7964 0.112305Z" fill="black"/>
<path d="M45.7256 0.112305C62.5018 0.112412 76.0873 14.0022 76.0762 31.1309C76.0762 31.6218 76.0645 32.1129 76.042 32.6133C76.0367 32.6579 76.0347 32.7008 76.0332 32.7432H65.0645C65.1063 32.2114 65.1289 31.6736 65.1289 31.1309C65.1288 20.1776 56.4362 11.3019 45.7256 11.3018C35.0149 11.3018 26.3224 20.1776 26.3223 31.1309C26.3223 42.0843 35.0148 50.9609 45.7256 50.9609C50.9691 50.9609 55.7277 48.8319 59.2207 45.375H73.5264C66.2195 67.75 45.7256 90.6387 45.7256 90.6387C45.7256 90.6387 16.7392 58.2694 15.4199 32.8877C15.4086 32.7933 15.4082 32.7077 15.4082 32.6133C15.3857 32.1129 15.375 31.6218 15.375 31.1309C15.3751 14.0021 28.9605 0.112305 45.7256 0.112305ZM75.3574 38.3574C75.1596 39.4043 74.9232 40.4578 74.6533 41.5156H62.2568C62.8583 40.5179 63.3765 39.462 63.7998 38.3574H75.3574Z" fill="black"/>
<path d="M37.6574 13.0945C34.8978 14.3862 32.4863 16.3199 30.6046 18.7087H17.9103C18.7618 16.7199 19.81 14.8395 21.0324 13.0945H37.6574Z" fill="#11B67A"/>
<path d="M40.8535 9.93651H23.5664C24.8652 8.51868 26.2927 7.22604 27.83 6.07713H40.8535V9.93651Z" fill="#11B67A"/>
<path d="M54.146 0.112305C37.3809 0.112305 23.7952 14.0024 23.7952 31.1313C23.7952 31.6223 23.8064 32.1133 23.829 32.6138C23.829 32.7082 23.829 32.7932 23.8403 32.8876C25.1594 58.2693 54.146 90.6386 54.146 90.6386C54.146 90.6386 83.1327 58.2693 84.4518 32.8876C84.4518 32.7932 84.4518 32.7082 84.4631 32.6138C84.4856 32.1133 84.4969 31.6223 84.4969 31.1313C84.5082 14.0024 70.9224 0.112305 54.146 0.112305ZM54.146 50.9607C43.4353 50.9607 34.7427 42.0847 34.7427 31.1313C34.7427 20.1778 43.4353 11.3018 54.146 11.3018C64.8568 11.3018 73.5494 20.1778 73.5494 31.1313C73.5494 42.0847 64.8568 50.9607 54.146 50.9607Z" fill="#6CF479"/>
<path d="M41.3403 67.4808C36.8419 60.4632 33.7965 55.0246 32.2175 51.3404C35.5977 58.0071 43.0454 67.0407 50.1122 68.8843C54.1473 69.9369 61.8666 71.165 68.8842 65.9018C65.3754 71.165 63.7964 73.7965 60.2877 78.1825C58.0421 80.9895 55.9602 83.7381 54.1473 85.5509C50.814 81.3404 46.3805 75.3435 41.3403 67.4808Z" fill="white"/>
<path d="M58.0075 1.86651C58.0075 1.86651 78.0075 5.37527 81.6917 24.3226C81.6917 24.3226 73.9825 10.6616 65.8536 12.1298C65.8536 12.1298 66.7794 5.04927 58.0075 1.86651Z" fill="white"/>
</g>
<defs>
<clipPath id="clip0_15980_13219">
<rect width="100" height="100" fill="white"/>
</clipPath>
</defs>
</svg>
