<svg width="100" height="100" viewBox="0 0 100 100" fill="none" xmlns="http://www.w3.org/2000/svg">
<rect width="100" height="100" fill="#024731"/>
<path d="M52.0771 42.5409C44.7672 43.1978 34.2699 42.2979 28.0504 41.6216C26.1184 41.4117 24.5966 41.2212 23.7142 41.1085C23.1739 41.0385 22.6277 41.1609 22.169 41.4564C22.169 41.4564 23.5101 47.4387 23.9202 49.7769C23.9202 49.7769 27.0222 50.1365 31.8579 50.5271C41.879 51.3376 59.3461 52.2841 72.0417 50.4494L52.0751 42.5409H52.0771Z" fill="#11B67A"/>
<path d="M61.3343 41.6913L49.7193 42.0664L68.8307 51.8874L81.606 48.6649L61.3343 41.6913Z" fill="#6AEF80"/>
<path d="M73.3671 77.9596C72.9667 71.0054 72.0435 50.4499 72.0435 50.4499C59.348 52.2847 41.8828 51.3381 31.8597 50.5277C27.024 50.137 23.9221 49.7774 23.9221 49.7774C23.9221 49.7774 26.6606 62.5818 21.6306 82.2879C21.3818 83.2617 21.9338 84.2626 22.89 84.5697C24.2194 84.9973 26.2855 85.6115 28.9482 86.2373C37.2804 88.1965 51.457 90.2839 67.1807 87.2499C70.304 85.0731 73.5868 81.7612 73.3671 77.9596Z" fill="#6CF479"/>
<path d="M61.8279 89.9556C61.859 89.9692 61.9212 89.9692 62.0067 89.9556H61.8279Z" fill="#0C0D11"/>
<path d="M80.6189 80.903C78.4012 75.319 77.6393 62.7012 77.9484 51.1038C77.134 50.6937 76.2905 50.2816 75.4256 49.8696C74.3449 50.0892 72.3139 50.5226 67.1828 51.0047C67.1828 51.0047 68.2634 71.9274 68.6638 78.8797C68.8834 82.6814 65.418 85.8747 62.2927 88.0515C69.554 87.4645 75.1282 85.9505 79.2584 83.9097C80.4226 83.3344 81.097 82.1099 80.6189 80.903Z" fill="black"/>
<path d="M85.7518 32.7189C81.746 31.4187 77.7947 30.6665 75.2641 30.4061C72.442 30.1165 69.6025 30.0135 66.7668 29.9824C57.5075 29.8813 48.2346 31.2301 39.4029 34.0192C37.9491 34.4779 36.5069 34.9774 35.0784 35.5138C35.3544 35.5702 35.1211 35.4069 37.6012 36.0736C37.7469 36.1125 37.8927 36.1513 38.0385 36.1921C38.332 36.2718 38.6254 36.3515 38.9189 36.4331C39.0666 36.474 39.2144 36.5148 39.3621 36.5556C39.8052 36.678 40.2483 36.8044 40.6954 36.9326C40.9927 37.0162 41.2901 37.1037 41.5894 37.1892C41.844 37.2631 42.0986 37.3369 42.3552 37.4127C43.0316 37.611 43.7079 37.815 44.3882 38.023C44.9091 38.1824 45.4319 38.3418 45.9567 38.507C46.1219 38.5575 46.2852 38.61 46.4504 38.6624C46.5242 38.6858 46.6 38.7091 46.6739 38.7324C46.8741 38.7966 47.0762 38.8588 47.2764 38.9229C47.4941 38.9909 47.7098 39.0609 47.9255 39.1309C48.1005 39.1872 48.2734 39.2416 48.4464 39.298C48.7224 39.3874 48.9984 39.4768 49.2744 39.5682C49.4377 39.6206 49.599 39.6751 49.7622 39.7275C50.0616 39.8267 50.3628 39.9258 50.6621 40.0269C50.9323 40.1163 51.2024 40.2076 51.4726 40.299C52.0635 40.4972 52.6524 40.6993 53.2413 40.9054C53.4026 40.9598 53.562 41.0161 53.7233 41.0725C53.974 41.16 54.2247 41.2474 54.4755 41.3368C54.7029 41.4165 54.9303 41.4962 55.1577 41.5798C55.4784 41.6925 55.7971 41.8072 56.1178 41.9219C63.0409 44.4135 69.7385 47.1598 75.4216 49.8692C76.2865 50.2813 77.13 50.6933 77.9444 51.1034C77.9444 51.1034 94.7429 58.3413 99.1432 48.6214C102.787 40.5769 94.1423 35.4439 85.746 32.717L85.7518 32.7189Z" fill="#11B67A"/>
<path d="M81.853 41.7364C83.6119 38.6674 76.7432 36.3973 74.8482 35.8745C70.0728 34.5548 68.0398 34.17 63.0856 34.1389C59.523 34.1155 55.7855 34.5354 52.2481 35.0077C50.4445 35.2487 48.6544 35.5927 46.9032 36.0922C45.7585 36.4187 44.0636 36.8813 42.3533 37.4138C43.0296 37.6121 47.014 39.4624 47.7156 39.3438C48.3804 39.233 52.0149 38.6208 54.0945 38.6927C59.9894 38.8968 61.0545 39.5537 66.7512 40.9687C69.9096 41.7539 79.6023 45.6586 81.851 41.7364H81.853Z" fill="black"/>
<path d="M59.0956 43.0092C57.5776 42.4534 56.5553 42.0433 55.6418 41.7129C54.2327 41.2036 52.8158 40.708 51.397 40.228C48.5574 39.2678 45.6965 38.366 42.818 37.5225C36.0251 35.5342 29.0049 33.4973 21.9496 32.7587C16.7505 32.2145 10.9877 31.338 4.7527 34.0473C3.09092 34.7703 1.48746 35.8315 0.593403 37.4078C-0.147107 38.712 -0.275384 40.5486 0.675034 41.7789C1.09291 42.3212 1.65655 42.7352 2.25518 43.0695C4.43006 44.2842 6.76043 44.1793 9.15688 43.948C11.5553 43.7167 13.9245 43.2716 16.2899 42.8304C19.7495 42.1871 23.2441 41.5438 26.7775 41.6176C29.7629 41.6798 32.7366 42.2843 35.7142 42.5447C41.8015 43.0753 47.9063 43.2289 54.0131 43.1006C55.6865 43.0656 57.4202 43.0734 59.0937 43.0053L59.0956 43.0092Z" fill="#6CF479"/>
<path d="M26.2311 55.2877C28.0347 64.753 23.786 78.7547 25.2204 81.1317C26.6548 83.5106 31.333 84.7234 39.4786 85.9654C44.4095 86.7176 50.0362 86.1228 50.0362 86.1228C50.0362 86.1228 40.6448 86.3172 32.5866 74.0142C28.3068 67.4779 26.2311 55.2877 26.2311 55.2877Z" fill="white"/>
<path d="M0.593146 37.4099C5.53571 29.4898 17.3625 30.1215 25.4731 31.2876C34.3223 32.6831 42.845 35.4663 51.1596 38.716C63.5889 43.3534 75.0114 50.5545 88.0277 53.1122C91.1316 53.6156 94.6903 53.5476 96.9916 51.1142C97.7787 50.364 98.5095 49.5302 99.1489 48.6225C98.665 49.6293 98.0605 50.5797 97.3531 51.4485C93.8021 56.0451 86.0958 54.2842 81.2562 53.0345C72.6733 50.6497 64.5899 46.8539 56.3918 43.4798C52.3239 41.8025 48.2054 40.2476 44.0578 38.7899C33.1503 35.1145 9.09249 26.8096 0.593146 37.4099Z" fill="black"/>
<path d="M89.3009 62.1114C89.3009 62.1114 90.3308 65.5333 94.5167 66.4718C94.5167 66.4718 91.344 67.0199 91.2776 70.8321C91.2776 70.8321 90.1646 67.5266 86.1531 66.4718C86.1531 66.4718 89.5085 66.0731 89.3009 62.1114Z" fill="white"/>
<path d="M36.7209 10.0332C36.7209 10.0332 38.681 16.5364 46.6376 18.3304C46.6376 18.3304 40.6079 19.3685 40.4916 26.6026C40.4916 26.6026 38.3654 20.332 30.7493 18.3221C30.7493 18.3221 37.1196 17.5663 36.7209 10.0332Z" fill="white"/>
<path d="M10.4302 70.1463C10.4302 70.1463 11.8588 74.8721 17.6477 76.1844C17.6477 76.1844 13.2624 76.9402 13.1794 82.2059C13.1794 82.2059 11.6345 77.6379 6.0948 76.1761C6.0948 76.1761 10.7292 75.6279 10.4469 70.1463H10.4302Z" fill="white"/>
</svg>
