<svg width="100" height="100" viewBox="0 0 100 100" fill="none" xmlns="http://www.w3.org/2000/svg">
<g clip-path="url(#clip0_15980_13247)">
<rect width="100" height="100" fill="#024731"/>
<path d="M52.2196 55.2078L26.4835 97.8289C25.1289 100.072 22.2282 100.783 19.9995 99.42C17.7709 98.0569 17.0638 95.138 18.4183 92.8954L44.0435 50.4629L52.2304 55.2073L52.2196 55.2078Z" fill="#11B67A"/>
<path d="M52.2304 55.2073L52.2196 55.2078L26.4835 97.8289C25.1289 100.072 22.2282 100.783 19.9995 99.42C17.8618 98.1126 17.1244 95.3745 18.2632 93.174C18.8638 95.4051 21.9913 97.0525 24.7357 93.3599C32.8764 82.4167 47.4376 58.8315 50.3383 54.111L52.2304 55.2073Z" fill="black"/>
<path d="M38.8882 46.7402L39.211 47.0434C39.1034 46.9351 38.9958 46.8377 38.899 46.7294L38.8882 46.7402ZM74.4572 39.9521C63.3002 51.7962 47.5169 54.9792 39.211 47.0542L44.4075 52.0127C52.7134 59.9377 68.486 56.7547 79.6538 44.9106C90.8108 33.0664 92.3386 19.3493 83.4302 8.21971L79.6323 4.15978C87.9382 12.0848 85.6143 28.1079 74.4572 39.9521ZM79.2988 3.85664C79.4063 3.95408 79.5139 4.05152 79.6215 4.15978L79.2988 3.85664Z" fill="#11B67A"/>
<path d="M43.8263 10.9047C51.6803 2.44924 62.1165 -1.30754 70.2287 0.597915C72.8862 1.22585 75.2746 2.44924 77.265 4.31139C85.302 11.8899 83.3654 27.1119 72.9292 38.3281C65.0752 46.7728 54.6282 50.5404 46.516 48.6349C43.8585 48.007 41.4701 46.7836 39.4796 44.9214C31.4427 37.3429 33.3793 22.1209 43.8155 10.9047H43.8263Z" fill="#035D3E"/>
<path d="M48.0437 14.8997C39.3075 24.2863 36.9082 36.6609 41.7928 44.3152C40.7922 43.7522 39.8562 43.1135 39.017 42.3231C31.4319 35.1885 34.4121 21.9153 44.2566 11.3378C54.0902 0.749535 67.044 -3.11551 74.6291 4.01913C75.4682 4.80946 76.1783 5.71888 76.8024 6.67161C68.8945 2.26524 56.78 5.49152 48.0437 14.8889V14.8997Z" fill="black"/>
<path d="M43.8263 10.9047C33.3901 22.1209 31.4643 37.3433 39.4905 44.9218C41.4809 46.7948 43.8694 48.0182 46.5268 48.6353C54.6391 50.5299 65.086 46.7732 72.94 38.3285C83.3762 27.1123 85.3021 11.8903 77.2759 4.31178C75.2855 2.4388 72.897 1.21541 70.2395 0.5983C62.1273 -1.29633 51.6803 2.46007 43.8263 10.9047ZM75.3931 6.3255C82.3218 12.8322 80.3207 26.3545 70.9389 36.4447C64.0424 43.8392 54.4885 47.6717 47.1509 45.9503C44.8915 45.4198 42.9441 44.4022 41.3626 42.9081C34.4338 36.4014 36.435 22.8792 45.8168 12.7889C52.7132 5.39442 62.2672 1.56186 69.6048 3.28326C71.8641 3.81376 73.8115 4.83145 75.3931 6.3255Z" fill="#6CF479"/>
<path d="M64.3869 9.23751C64.3869 9.23751 60.3416 16.3288 50.5832 16.2639C50.5832 16.2639 57.3291 19.1329 55.5 27.6425C55.5 27.6425 59.6745 20.8651 69.0993 20.5945C69.0993 20.5945 61.8801 17.9636 64.3869 9.24834V9.23751Z" fill="white"/>
<path d="M88.9279 20.2914L84.5705 15.636C84.8395 20.3347 83.6345 25.553 81.0739 30.5981L82.5479 31.9839C84.7857 34.0843 85.1946 37.5271 82.2681 41.8468C87.583 35.3401 90.1006 27.3502 88.9279 20.2914Z" fill="black"/>
<path d="M98.93 89.045C98.93 89.045 87.8203 83.0531 75.022 91.1802C75.022 91.1802 81.5668 81.8502 72.2203 72.1292C72.2203 72.1292 83.2329 77.6024 95.8818 70.1895C95.8818 70.1895 88.5151 79.6022 98.9226 89.03L98.9375 89.045H98.93Z" fill="white"/>
<path d="M15.0585 35.8864C15.0585 35.8864 12.2561 26.5594 0.9375 23.9857C0.9375 23.9857 9.52621 22.4981 9.7076 12.1124C9.7076 12.1124 12.7368 21.1018 23.6019 23.9857C23.6019 23.9857 14.5144 25.0626 15.0858 35.8864H15.0585Z" fill="white"/>
</g>
<defs>
<clipPath id="clip0_15980_13247">
<rect width="100" height="100" fill="white"/>
</clipPath>
</defs>
</svg>
