<svg width="100" height="100" viewBox="0 0 100 100" fill="none" xmlns="http://www.w3.org/2000/svg">
<g clip-path="url(#clip0_15980_13273)">
<rect width="100" height="100" fill="#024731"/>
<path fill-rule="evenodd" clip-rule="evenodd" d="M52.3146 45.8492C50.1945 33.2842 52.8289 22.3619 58.1926 21.4616C63.5563 20.5613 69.6241 30.0147 71.7442 42.5875C73.8644 55.1525 71.23 66.0748 65.8663 66.9751C60.5026 67.8754 54.4348 58.4221 52.3146 45.8492Z" fill="#6CF479"/>
<path fill-rule="evenodd" clip-rule="evenodd" d="M54.7749 38.536C53.1927 38.8045 52.4174 42.0188 53.0424 45.7306C53.6674 49.4346 55.4553 52.2303 57.0375 51.9618C58.6197 51.6933 60.637 48.2657 60.0121 44.5618C59.3871 40.8579 56.3571 38.2754 54.7749 38.5439" fill="#1A1A1A"/>
<path fill-rule="evenodd" clip-rule="evenodd" d="M72.472 42.4692C70.1936 28.9565 63.667 18.7844 57.8998 19.7479C52.1326 20.7193 49.3005 32.463 51.5789 45.9757C53.8573 59.4883 60.3839 69.6604 66.151 68.6969C71.9182 67.7255 74.7504 55.9818 72.472 42.4692ZM52.3146 45.8492C50.1945 33.2842 52.8289 22.3619 58.1926 21.4616C63.5563 20.5613 69.6241 30.0147 71.7442 42.5875C73.8644 55.1525 71.23 66.0748 65.8663 66.9751C60.5026 67.8754 54.4348 58.4221 52.3146 45.8492Z" fill="black"/>
<path fill-rule="evenodd" clip-rule="evenodd" d="M75.1379 42.0189C72.3612 25.5525 64.4184 13.1613 57.3855 14.3459L55.5106 14.6618C48.4856 15.8385 45.0363 30.1489 47.8131 46.6153C50.5899 63.0816 58.5326 75.4729 65.5656 74.2882L67.4405 73.9723C74.4655 72.7956 77.9147 58.4852 75.1379 42.0189ZM51.1041 46.0545C48.6359 31.4283 51.7054 18.7211 57.9472 17.6708C64.189 16.6204 71.2536 27.6296 73.7139 42.2558C76.1822 56.882 73.1206 69.5892 66.8709 70.6396C60.629 71.6899 53.5645 60.6808 51.0962 46.0545" fill="#11B67A"/>
<path d="M57.2353 25.5208C60.2019 24.7943 63.9043 29.0352 66.4358 35.5507C67.5988 35.4244 69.0149 37.1539 69.9484 39.7285C69.9484 39.7048 69.9405 39.689 69.9325 39.6732C67.6304 29.5328 62.2984 22.1881 58.2004 23.1832C56.0724 23.7044 54.0867 26.7292 53.612 30.6384C54.1974 28.1349 55.6768 25.9078 57.2274 25.5287L57.2353 25.5208Z" fill="white"/>
<path fill-rule="evenodd" clip-rule="evenodd" d="M23.7476 50.6508C22.9565 45.9518 23.5815 41.7345 25.132 39.8312C24.4992 39.4442 23.8663 39.2705 23.2413 39.3731L12.15 41.2369C9.45231 41.6871 8.09952 47.01 9.12796 53.1148C10.1564 59.2196 13.1784 63.8002 15.8761 63.35L26.9753 61.4862C27.6003 61.3836 28.1462 61.0045 28.6129 60.4359C26.5165 59.1407 24.5466 55.3577 23.7555 50.6587" fill="black"/>
<path fill-rule="evenodd" clip-rule="evenodd" d="M98.0168 38.1727C99.5911 47.5155 98.001 55.9975 94.4014 59.9463C98.8791 57.111 101.07 48.0605 99.3617 37.9516C97.6608 27.8428 92.6214 20.0005 87.4634 18.7843C92.1626 21.3431 96.4346 28.8379 98.0168 38.1727Z" fill="white"/>
<path fill-rule="evenodd" clip-rule="evenodd" d="M90.5961 39.4207C91.6008 45.3834 90.8097 50.7616 88.8161 53.2335C91.316 51.4803 92.4473 45.7466 91.3635 39.2944C90.2718 32.8342 87.3288 27.7876 84.3859 26.9505C87.0757 28.6327 89.5914 33.4581 90.5961 39.4207Z" fill="white"/>
<path fill-rule="evenodd" clip-rule="evenodd" d="M7.78323 53.4308C7.35604 50.9035 7.34813 48.5185 7.66457 46.552L5.14885 46.9785C1.74709 47.5471 -0.547116 50.7614 0.0303918 54.1573C0.599989 57.5533 3.81979 59.8357 7.22155 59.267L9.405 58.9037C8.70092 57.3321 8.13132 55.4762 7.79115 53.4386" fill="#11B67A"/>
<path fill-rule="evenodd" clip-rule="evenodd" d="M26.3266 79.1215C25.9943 78.7819 25.8045 78.3239 25.8045 77.85L25.9548 63.4133L16.5643 64.9928L16.0659 83.3862C16.0422 84.5392 17.0865 85.4316 18.2257 85.2421L26.8171 83.7969C28.2885 83.552 28.8819 81.7593 27.8376 80.6852L26.3187 79.1215H26.3266Z" fill="black"/>
<path fill-rule="evenodd" clip-rule="evenodd" d="M46.3417 46.8523C44.7358 37.32 45.1946 28.5143 47.204 22.5674L26.4533 40.6765C23.7636 45.4861 26.0103 56.7558 29.5624 59.1409L55.6056 70.1264C51.5472 65.2378 48.011 56.7874 46.3338 46.8523" fill="black"/>
<path d="M26.4535 40.6844C23.7638 45.494 26.0105 56.7638 29.5626 59.1488L55.6137 70.1422C51.5474 65.2536 48.0191 56.8033 46.3419 46.8682C44.736 37.3358 45.1948 28.5301 47.2042 22.5832L26.4535 40.6923V40.6844Z" fill="black"/>
<path d="M47.2042 22.5832C45.1948 28.5301 44.736 37.3358 46.3419 46.8682C46.4801 47.6866 46.6322 48.4949 46.7947 49.2921L25.7073 51.033C24.9958 47.2592 25.0836 43.134 26.4535 40.6844V40.6923L47.2042 22.5832Z" fill="#11B67A"/>
<path d="M51.6652 63.9246C52.8822 66.3616 54.2163 68.4622 55.6137 70.1422L29.5626 59.1488C28.9497 58.7372 28.3756 58.0609 27.8591 57.1991L51.6652 63.9246Z" fill="#035D3E"/>
<path d="M23.2411 39.3656L12.1498 41.2294C9.4521 41.6796 8.0993 47.0025 9.12774 53.1073C10.1562 59.2121 13.1782 63.7927 15.8759 63.3425L26.9672 61.4787C27.5922 61.3761 28.138 60.997 28.6048 60.4283C26.5084 59.1332 24.5387 55.3498 23.7476 50.6508C22.9565 45.9597 23.5815 41.7345 25.132 39.8312C24.6257 39.5153 24.1034 39.3419 23.5971 39.3419C23.4784 39.3419 23.36 39.3494 23.2413 39.3731" fill="black"/>
<path d="M26.3294 57.9622C26.5551 58.3233 26.788 58.6566 27.0274 58.9584L12.4044 61.415C12.1654 61.1126 11.9326 60.7793 11.7073 60.4179L26.3294 57.9622Z" fill="#035D3E"/>
<path d="M24.5329 53.942C24.7881 54.751 25.0792 55.5102 25.3964 56.2085L10.7761 58.6632C10.4594 57.9648 10.1684 57.2061 9.91352 56.3976L24.5329 53.942Z" fill="#035D3E"/>
<path d="M0.0286236 54.1691C0.110641 54.3513 1.22949 56.4891 8.17529 55.3179C8.50051 56.6262 8.91631 57.8356 9.39738 58.904L7.2139 59.2668C3.82005 59.842 0.607344 57.5639 0.0267941 54.181L0.0286236 54.1691Z" fill="black"/>
<path d="M0.0303918 54.1573L0.0286236 54.1691C0.0250167 54.1611 0.0222204 54.1572 0.0222204 54.1572L0.0303918 54.1573Z" fill="black"/>
<path fill-rule="evenodd" clip-rule="evenodd" d="M28.6763 39.9577L43.2248 27.5981C43.2248 27.5981 36.6111 33.8371 36.6981 37.1067C36.6981 37.1067 34.6966 35.2745 28.6763 39.9577Z" fill="#6CF479"/>
<path fill-rule="evenodd" clip-rule="evenodd" d="M1.02724 52.7439C1.02724 52.7439 1.50981 48.9846 6.01121 47.8948C6.01121 47.8948 3.74864 49.0557 4.27869 50.193C4.27869 50.193 2.32465 49.2137 1.02724 52.7439Z" fill="#6CF479"/>
<path d="M23.5971 39.3419C24.1034 39.3419 24.6257 39.5153 25.132 39.8312C23.5815 41.7345 22.9565 45.9597 23.7476 50.6508C24.5387 55.3498 26.5084 59.1332 28.6048 60.4283C28.2207 60.8963 27.7821 61.233 27.2908 61.3958C25.1172 61.4369 22.622 56.9007 21.6276 50.9983C20.6357 45.1549 21.4842 40.0924 23.5083 39.3442C23.5379 39.3431 23.5675 39.3419 23.5971 39.3419Z" fill="#11B67A"/>
</g>
<defs>
<clipPath id="clip0_15980_13273">
<rect width="100" height="100" fill="white"/>
</clipPath>
</defs>
</svg>
