<svg width="100" height="100" viewBox="0 0 100 100" fill="none" xmlns="http://www.w3.org/2000/svg">
<g clip-path="url(#clip0_15980_13303)">
<rect width="100" height="100" fill="#024731"/>
<path d="M12.9473 70.5289C12.9473 70.5289 15.4829 52.5197 50.9703 54.2426C80.5846 55.6838 106.168 73.097 98.3012 86.1217C91.9406 96.6433 49.7783 98.778 29.006 92.2331C8.23369 85.6883 12.9473 70.5181 12.9473 70.5181V70.5289Z" fill="#6CF479"/>
<path d="M83.0659 65.6437C83.0659 65.6437 95.8305 71.5925 97.2283 81.2256C97.2283 81.2256 93.0999 74.6049 84.8646 73.9656C84.8646 73.9656 86.4142 69.4362 83.0659 65.6437Z" fill="white"/>
<path d="M35.7457 93.4684C30.8805 92.1464 25.5817 89.6217 23.2845 85.1356C22.2009 83.0226 21.5616 80.6062 22.1143 78.1248C24.2164 68.6001 36.7535 69.2069 36.7535 69.2069C84.3987 71.7642 81.0287 61.5243 81.0287 61.5243C72.6093 57.5692 62.0769 54.7844 50.981 54.2426C15.4936 52.5197 12.958 70.5289 12.958 70.5289C12.958 70.5289 11.8094 74.2456 13.1638 78.7967C6.25058 81.3431 3.36824 83.7486 3.36824 83.7486C3.36824 83.7486 -12.2029 94.6278 25.0724 98.6046C66.8554 103.069 86.8476 96.7083 94.8336 89.3724C83.8461 96.264 49.3447 97.1634 35.7566 93.4684H35.7457Z" fill="black"/>
<path d="M85.7533 44.417C85.7533 44.417 83.922 29.7345 54.546 31.945C32.2025 33.6354 16.7289 44.6879 20.9007 52.4464C25.0725 60.2049 57.0816 62.9788 72.9453 59.0996C88.809 55.2204 85.7533 44.417 85.7533 44.417Z" fill="#11B67A"/>
<path d="M75.3183 37.2208C75.3183 37.2208 84.3229 39.9406 83.0551 47.8725C83.0551 47.8725 80.617 43.2239 73.3137 44.9251C73.3137 44.9251 77.5505 41.9778 75.3292 37.2208H75.3183Z" fill="white"/>
<path d="M20.9115 52.4545C22.9704 56.2796 31.8233 58.9018 42.1498 60.0938C42.3232 60.1155 42.4965 60.1371 42.6808 60.1588V60.1155C33.4811 59.3244 30.8263 54.34 31.3573 50.374C32.2025 44.0351 43.0058 43.4608 43.0058 43.4608C70.8323 41.5753 73.1945 34.4562 73.3895 33.3943C73.3895 33.3943 67.0289 31.0429 54.546 31.9531C32.2025 33.5785 16.7289 44.696 20.9007 52.4545H20.9115Z" fill="black"/>
<path d="M74.5054 23.1868C74.0936 28.7456 67.332 35.0521 53.0721 37.3276C40.2966 39.3756 29.309 37.2843 28.4205 31.8772C27.532 26.4701 38.0861 19.1559 50.634 15.9268C65.6308 12.0693 75.0038 16.4036 74.5054 23.1868Z" fill="#6CF479"/>
<path d="M53.7655 14.9525C48.7377 16.242 41.391 18.5717 37.9235 20.8689C37.6526 21.7033 37.7285 22.4943 38.1619 23.1878C39.6356 25.5392 46.7656 27.0128 55.2717 24.1738C62.7485 21.6816 68.3506 17.8999 67.8846 15.2668C64.3196 14.1507 59.9745 13.3488 53.7655 14.9417V14.9525Z" fill="black"/>
<path d="M39.1915 10.5542C40.2426 15.0078 45.3355 18.8437 54.4918 17.9876C62.6945 17.2183 69.1852 13.4257 68.9576 8.85301C68.7301 4.28029 61.145 0.336038 52.9206 0.0976499C43.0924 -0.184082 37.9129 5.12548 39.2024 10.5651L39.1915 10.5542Z" fill="#11B67A"/>
<path d="M69.4995 18.6391C69.4995 18.6391 72.2518 19.5493 72.1435 22.605C72.0351 25.6607 68.8602 29.1823 63.3556 32.1297C63.3556 32.1297 69.9221 25.444 69.4995 18.6391Z" fill="white"/>
<path d="M55.4017 2.66466C55.4017 2.66466 60.3754 3.22812 64.2979 5.83956C68.2205 8.451 66.4218 11.2792 64.8289 12.7528C64.8289 12.7528 65.2515 6.85813 58.154 7.76834C58.154 7.76834 59.3243 5.04855 55.4017 2.66466Z" fill="white"/>
</g>
<defs>
<clipPath id="clip0_15980_13303">
<rect width="100" height="100" fill="white"/>
</clipPath>
</defs>
</svg>
