<svg width="100" height="100" viewBox="0 0 100 100" fill="none" xmlns="http://www.w3.org/2000/svg">
<g clip-path="url(#clip0_15980_13345)">
<rect width="100" height="100" fill="#024731"/>
<path d="M99.9334 35.2786L89.9532 35.5196L71.5135 24.8524C70.3175 24.1591 68.5544 24.413 67.6059 25.4118L39.2645 55.1978L23.7065 65.5609V71.0046C23.7413 71.6207 24.1034 72.2083 24.7542 72.5834L52.1265 88.4172C53.3224 89.1106 55.0855 88.8567 56.034 87.8579L99.3329 42.3514C99.7505 41.9119 99.9489 41.4028 99.9412 40.9144V35.2799H99.9347L99.9334 35.2786Z" fill="black"/>
<path d="M56.0325 82.2723C55.0775 83.2775 53.3209 83.525 52.1249 82.8316L24.7527 66.9978C23.5567 66.3044 23.3582 64.9164 24.3068 63.9189L67.6056 18.4111C68.5606 17.4058 70.3172 17.1584 71.5132 17.8518L98.8854 33.6856C100.081 34.379 100.28 35.767 99.3313 36.7645L56.0325 82.271V82.2723Z" fill="#11B57A"/>
<path d="M84.9555 32.688L80.3121 29.97C79.8314 29.6865 79.7386 29.0292 80.1214 28.6245C80.6588 28.0588 81.5094 27.9453 82.1808 28.3345L86.8243 31.0526C87.3127 31.3361 87.3978 32.0011 87.0086 32.4045H87.0021C86.4647 32.9638 85.6218 33.0772 84.9568 32.688H84.9555Z" fill="#024731"/>
<path d="M47.2704 69.7804C47.2137 71.4223 45.3527 72.8103 43.1077 72.8735C40.8639 72.9366 39.0944 71.6633 39.1576 70.0214C39.2143 68.3795 41.0753 66.9915 43.3203 66.9284C45.5641 66.8652 47.3335 68.1385 47.2704 69.7804Z" fill="#024731"/>
<path d="M77.7693 28.0088C78.5348 27.9289 79.1083 27.4108 79.0503 26.8502C78.9923 26.2908 78.3235 25.9016 77.5579 25.9815C76.7924 26.0614 76.2189 26.5795 76.2769 27.1401C76.3349 27.6995 77.0038 28.0887 77.7693 28.0101V28.0088Z" fill="#024731"/>
<path d="M6.41104 33.3138C6.41104 33.3138 8.53494 40.3492 17.1349 42.2965C17.1349 42.2965 10.6163 43.4216 10.4887 51.2509C10.4887 51.2509 8.1947 44.4694 -0.0585938 42.2901C-0.0585938 42.2901 6.83633 41.4692 6.41104 33.3151V33.3138Z" fill="white"/>
<path d="M54.8228 11.3672C54.8228 11.3672 55.7572 14.4602 59.5436 15.3173C59.5436 15.3173 56.6773 15.8122 56.6129 19.2596C56.6129 19.2596 55.6012 16.2723 51.9695 15.3173C51.9695 15.3173 55.0058 14.9564 54.8151 11.3672H54.8228Z" fill="white"/>
<path d="M68.7955 45.2377C68.7955 45.2377 70.1693 49.7897 75.7394 51.0488C75.7394 51.0488 71.5213 51.7783 71.4362 56.8457C71.4362 56.8457 69.9503 52.4574 64.6122 51.0488C64.6122 51.0488 69.0713 50.5178 68.7955 45.2442V45.2365V45.2377Z" fill="white"/>
<path d="M58.208 29.2706L56.32 36.1694L60.6863 37.0587L60.0394 42.0784L56.6473 45.9963L56.1086 47.3675L52.7849 51.2068L47.4816 49.2491L45.386 49.7878L38.3158 50.373L34.7794 46.9062L53.9628 28.8363L58.208 29.2706Z" fill="#006A4D"/>
<path d="M60.6863 37.0587C60.685 36.9491 60.6534 36.8849 60.54 36.8462C60.3956 36.7985 60.2577 36.7302 60.1211 36.6632C59.2203 36.2173 58.4548 35.6013 57.8284 34.8138C57.34 34.2017 56.9752 33.5251 56.7742 32.7647C56.6659 32.3549 56.6208 31.9386 56.6505 31.5159C56.6595 31.3831 56.6711 31.2491 56.7162 31.1215C56.7239 30.963 56.7819 30.8174 56.8386 30.673C57.1003 30.017 57.5616 29.5531 58.2086 29.2721C58.2524 29.2528 58.3555 29.2206 58.3607 29.2141C58.3748 29.169 58.3426 29.1368 58.3246 29.102C58.0926 28.6612 57.8464 28.2269 57.5861 27.8016C56.7781 26.4806 55.8617 25.2395 54.8346 24.0809C54.7779 24.0165 54.7199 23.9534 54.6658 23.8876C54.6426 23.8593 54.6194 23.8438 54.591 23.8438C54.5755 23.8438 54.5588 23.8477 54.5407 23.8567C54.4905 23.8812 54.4389 23.9018 54.3861 23.9211C53.9943 24.0681 53.5961 24.1299 53.1927 24.1299C52.9427 24.1299 52.6914 24.1067 52.4375 24.0642C51.8975 23.9753 51.3858 23.7948 50.8974 23.55C50.1847 23.1917 49.5584 22.7187 49.0132 22.1375C48.4461 21.533 48.0015 20.8526 47.7231 20.069C47.5118 19.4749 47.4216 18.8653 47.5053 18.2364C47.5157 18.1603 47.4963 18.1152 47.4254 18.0753C47.0272 17.8562 46.6264 17.6435 46.2191 17.4425C45.0167 16.8458 43.7756 16.3457 42.492 15.9539C42.2149 15.8689 41.9379 15.7825 41.6543 15.722C41.6466 15.722 41.6389 15.722 41.6311 15.722C41.6144 15.722 41.5989 15.7194 41.586 15.7026C41.5796 15.7001 41.5744 15.6988 41.568 15.6988C41.5602 15.6988 41.5525 15.7013 41.5448 15.7078C41.5383 15.9385 41.4971 16.1653 41.4198 16.3805C41.3115 16.6795 41.1826 16.9734 40.9687 17.2144C40.7792 17.427 40.5769 17.6255 40.3204 17.7647C40.1142 17.8768 39.908 17.9799 39.6825 18.0469C39.6193 18.0662 39.4595 18.1075 39.4415 18.1101C39.1786 18.1616 38.9157 18.1861 38.6528 18.1861C38.3654 18.1861 38.078 18.1565 37.7906 18.0985C37.0405 17.9477 36.3536 17.6435 35.7157 17.2247C34.9759 16.7388 34.3508 16.1357 33.8521 15.4036C33.8057 15.3366 33.7889 15.3147 33.7477 15.3147C33.7271 15.3147 33.7 15.3199 33.6588 15.3289C33.0891 15.4423 32.5285 15.5905 31.9782 15.7761C31.1431 16.0583 30.3492 16.4282 29.5979 16.8896C29.4277 16.994 29.255 17.0971 29.0991 17.2247C29.1017 17.2736 29.1468 17.2968 29.1687 17.3342C29.2873 17.5417 29.4355 17.7312 29.5463 17.9464C29.6288 18.1075 29.6907 18.2776 29.7757 18.4374C29.8659 18.6062 29.9188 18.7854 29.9664 18.9684C29.9768 19.0109 30.0206 19.0418 30.0103 19.0908C30.0605 19.2197 30.0734 19.3563 30.1005 19.489C30.1623 19.7932 30.1482 20.1012 30.1443 20.4092C30.143 20.5613 30.1121 20.7121 30.0721 20.8564C29.9626 21.2611 29.7925 21.6336 29.5102 21.9545C29.2177 22.2857 28.8607 22.5099 28.4547 22.6697C28.2395 22.7548 28.0153 22.8051 27.7897 22.8386C27.6892 22.854 27.5861 22.8695 27.4804 22.8695C27.4649 22.8695 27.4508 22.8695 27.4353 22.8695C27.3915 22.8669 27.3477 22.8669 27.3038 22.8669C27.2291 22.8669 27.1531 22.8682 27.077 22.8682C26.9662 22.8682 26.8554 22.8643 26.7458 22.8437C26.6504 22.8154 26.5512 22.8205 26.4545 22.8012C26.2703 22.7741 26.0911 22.7252 25.912 22.6762C25.6864 22.613 25.4699 22.5228 25.2495 22.4442C25.2483 22.4442 25.2457 22.4442 25.2444 22.4442C25.2289 22.4442 25.2147 22.4403 25.2044 22.4262C25.198 22.4223 25.1915 22.421 25.1851 22.421C25.1774 22.421 25.1696 22.4236 25.1632 22.43C25.122 22.5602 25.0807 22.6916 25.0382 22.8218C24.9132 23.1981 24.8255 23.5848 24.7405 23.9714C24.6838 24.2304 24.6425 24.4934 24.6052 24.7575C24.5833 24.9148 24.5678 25.0733 24.5536 25.2318C24.5369 25.4122 24.5278 25.594 24.5072 25.7731C24.4801 26.018 24.4969 26.2628 24.4905 26.5077C24.4866 26.6598 24.4905 26.8131 24.4905 26.9652C24.4905 27.1766 24.484 27.3879 24.5137 27.5993C25.0833 27.8068 25.6065 28.0993 26.0937 28.4602C26.4082 28.6922 26.7046 28.9461 26.9713 29.2322C27.1634 29.4384 27.3541 29.6459 27.5075 29.8843C27.5461 29.8985 27.5577 29.9371 27.5784 29.9668C27.7395 30.2065 27.898 30.4475 28.0268 30.7052C28.2047 31.0596 28.3465 31.4295 28.4367 31.8161C28.4444 31.8484 28.4818 31.9876 28.4895 32.0262C28.5101 32.128 28.5243 32.2311 28.5295 32.3329C28.5372 32.4915 28.5733 32.65 28.5565 32.8098C28.5295 33.0817 28.5101 33.3524 28.4277 33.6179C28.3452 33.8833 28.2356 34.1334 28.0797 34.3602C27.9289 34.5767 27.7498 34.77 27.5358 34.9285C27.3374 35.0755 27.1221 35.1889 26.8953 35.2842C26.8592 35.2997 26.7999 35.2933 26.7922 35.3525C26.8657 35.4866 26.9417 35.618 27.0126 35.7533C27.1157 35.9518 27.2252 36.1451 27.3425 36.3359C27.4134 36.4493 27.4624 36.573 27.5307 36.6877C27.6209 36.8372 27.724 36.9764 27.8168 37.1233C27.9676 37.3617 28.1171 37.6014 28.2846 37.8296C28.3155 37.8708 28.3413 37.9146 28.3619 37.9649C28.3954 38.0474 28.4663 38.1066 28.5166 38.1788C28.6145 38.318 28.7047 38.4623 28.8078 38.5977C28.8671 38.6763 28.9264 38.7562 28.9844 38.8361C29.1378 39.0127 29.2705 39.2047 29.4161 39.3864C29.5244 39.5204 29.6327 39.6557 29.7422 39.7898C29.8247 39.8903 29.9072 39.9895 29.9832 40.0939C30.067 40.2099 30.1843 40.2988 30.2745 40.411C30.3621 40.5205 30.4562 40.6249 30.5477 40.7319C30.6057 40.7293 30.6521 40.6945 30.7036 40.6739C31.0348 40.5424 31.3751 40.4599 31.7321 40.4432C31.7952 40.4406 31.8584 40.429 31.9215 40.429C31.9473 40.429 31.9731 40.4303 31.9988 40.4355C32.0427 40.429 32.0865 40.4264 32.1303 40.4264C32.2424 40.4264 32.3545 40.4432 32.4654 40.4535C32.8688 40.4947 33.2631 40.5888 33.6459 40.7254C34.2916 40.9561 34.8831 41.2899 35.4218 41.7139C35.7814 41.9974 36.1152 42.3068 36.4077 42.6625C36.5211 42.8004 36.6371 42.9344 36.7364 43.0826C36.8047 43.1367 36.8395 43.2166 36.8859 43.2862C37.1604 43.7012 37.3808 44.1433 37.5328 44.6175C37.5754 44.7503 37.6656 45.1047 37.6746 45.1485C37.7468 45.4965 37.7493 45.8483 37.739 46.2001C37.7365 46.2916 37.712 46.3831 37.7184 46.4759C37.9865 46.6293 38.2571 46.7762 38.5316 46.918C39.0072 47.1641 39.4892 47.3974 39.9789 47.6139C40.6117 47.8936 41.2535 48.1475 41.9082 48.3717C42.4263 48.5496 43.6042 48.9104 43.6841 48.9104C43.7318 48.8086 43.728 48.6952 43.7486 48.5869C43.8942 47.7879 44.3066 47.1744 45.0116 46.7646C45.3466 46.57 45.7114 46.4656 46.0929 46.4063C46.2101 46.3806 46.4112 46.3703 46.6032 46.3703C46.7759 46.3703 46.9422 46.3793 47.0349 46.3934C47.4319 46.4321 47.8198 46.521 48.1961 46.6525C48.8663 46.887 49.4746 47.2337 50.0326 47.6719C50.3149 47.8923 50.5816 48.1307 50.8188 48.3988C50.9657 48.5637 51.4168 49.1488 51.4851 49.2481C51.4864 49.2481 51.4889 49.2481 51.4902 49.2481C51.6346 49.2481 52.8641 48.9259 53.3654 48.7506C53.6914 48.6372 54.0124 48.5057 54.3268 48.3627C54.9042 48.0998 56.0976 47.3716 56.1092 47.3652C56.1814 47.3111 56.1814 47.3111 56.1401 47.2466C56.1246 47.2221 56.1053 47.1976 56.0886 47.1744C55.7999 46.7672 55.5627 46.3329 55.3875 45.865C55.3759 45.8341 55.3656 45.8019 55.354 45.771C55.3346 45.713 55.314 45.6614 55.2934 45.5918C55.2225 45.3392 55.1555 45.0879 55.1375 44.825C55.0898 44.575 55.0975 44.3237 55.1181 44.0711C55.1323 43.8971 55.1632 43.7257 55.2109 43.5569C55.448 42.7256 55.9726 42.1508 56.7768 41.8363C57.1183 41.7023 57.474 41.6301 57.8426 41.6301C57.8606 41.6301 57.8787 41.6301 57.898 41.6301C57.956 41.6276 58.014 41.625 58.0707 41.625C58.4341 41.625 58.7911 41.683 59.1442 41.7719C59.4084 41.8389 59.6636 41.9279 59.9149 42.031C59.9562 42.0477 59.9948 42.0696 60.0399 42.0761C60.0734 42.0516 60.0747 42.0116 60.0863 41.9781C60.201 41.6366 60.2977 41.2886 60.3789 40.9368C60.6109 39.9354 60.7127 38.9199 60.7114 37.8927C60.7114 37.613 60.6921 37.3347 60.6869 37.0563L60.6863 37.0587ZM51.7506 35.2365C51.7428 35.4324 51.7325 35.6283 51.7119 35.8229C51.69 36.033 51.6603 36.2405 51.6204 36.448C51.5959 36.5756 51.565 36.7006 51.5263 36.8243C51.4825 36.9661 51.449 37.1104 51.4 37.2509C51.2673 37.6311 51.0997 37.9945 50.8832 38.3335C50.7144 38.599 50.5262 38.8516 50.3149 39.0874C49.954 39.4895 49.539 39.8194 49.0738 40.0901C48.8031 40.2473 48.5222 40.38 48.2322 40.4999C48.2 40.5128 48.093 40.5592 48.0801 40.5592C47.8391 40.6352 47.5981 40.7125 47.352 40.7692C46.7772 40.9033 46.1947 40.9651 45.6083 40.9651C45.4768 40.9651 45.3441 40.9626 45.2126 40.9561C44.0308 40.9007 42.8954 40.6313 41.7961 40.1996C40.5537 39.7112 39.417 39.041 38.368 38.2188C37.2145 37.3141 36.2157 36.2624 35.3935 35.0484C34.6705 33.98 34.115 32.8343 33.7812 31.5842C33.5531 30.7297 33.45 29.8611 33.499 28.977C33.5144 28.6909 33.5531 28.4073 33.6072 28.1251C33.615 28.0852 33.6485 27.9318 33.6575 27.8944C33.7374 27.5542 33.8418 27.2204 33.9848 26.9008C34.2194 26.3737 34.5235 25.893 34.9102 25.4625C35.3754 24.9431 35.9257 24.5385 36.5508 24.233C37.123 23.9534 37.7249 23.7703 38.3525 23.6698C38.4994 23.6466 38.645 23.6234 38.7932 23.6131C39.0716 23.5809 39.35 23.5629 39.6297 23.5629C39.7147 23.5629 39.7998 23.5641 39.8836 23.568C40.4145 23.5899 40.9416 23.6505 41.4649 23.7523C42.2149 23.8992 42.9418 24.1248 43.648 24.416C44.3337 24.6996 44.9897 25.0411 45.6186 25.4342C46.2282 25.8156 46.8055 26.2409 47.352 26.7075C47.8482 27.1302 48.3134 27.5864 48.7439 28.0748C48.9642 28.3249 49.1807 28.5788 49.3818 28.8455C49.4205 28.8958 49.5274 29.035 49.5455 29.0595C49.7233 29.3108 49.905 29.5582 50.0558 29.8276C50.1357 29.9693 50.244 30.0944 50.3162 30.2413C50.4657 30.5441 50.659 30.8225 50.7853 31.137C50.8317 31.2542 50.8948 31.3651 50.9425 31.4811C51.1216 31.9154 51.2943 32.3523 51.4129 32.8085C51.4168 32.8227 51.4168 32.8381 51.4181 32.8523C51.4825 32.9748 51.5005 33.1114 51.5289 33.2441C51.5753 33.4568 51.6139 33.672 51.6552 33.8859C51.6719 33.9697 51.6758 34.0547 51.6835 34.1385C51.7003 34.337 51.7299 34.5355 51.739 34.7352C51.7467 34.9015 51.7583 35.069 51.7518 35.2353L51.7506 35.2365Z" fill="#6CF379"/>
<path d="M34.8367 27.6929C34.8521 27.6917 34.8676 27.6891 34.883 27.6878C34.914 27.6929 34.9436 27.6839 34.9707 27.671C34.9861 27.6697 35.0016 27.6672 35.0171 27.6659C35.0622 27.671 35.1047 27.6607 35.146 27.6478C35.1627 27.6465 35.1782 27.6453 35.1949 27.644C35.24 27.6478 35.2826 27.6375 35.3251 27.6259C35.3483 27.6246 35.3715 27.6234 35.396 27.6221C35.4617 27.6272 35.5261 27.6156 35.5906 27.6027C35.7285 27.5976 35.8651 27.5886 36.003 27.586C36.8265 27.5718 37.6372 27.671 38.4375 27.8618C39.2546 28.0564 40.0394 28.3425 40.7972 28.7033C41.4983 29.0371 42.1633 29.4289 42.7987 29.8748C43.6299 30.4599 44.3916 31.1237 45.0824 31.8686C45.7448 32.5838 46.3273 33.3584 46.8222 34.2C46.9588 34.4332 47.0826 34.6742 47.2102 34.9126C47.2192 34.9371 47.2269 34.9616 47.2385 34.9848C47.3725 35.2374 47.4821 35.5003 47.5903 35.7645C47.7205 36.0841 47.8262 36.4115 47.9319 36.7401C47.928 36.762 47.9306 36.7839 47.937 36.8059C48.12 37.4051 48.2244 38.0199 48.2631 38.6436C48.2863 39.0238 48.2837 39.4027 48.2476 39.779C48.4268 39.6966 48.593 39.6128 48.7464 39.5239C49.1652 39.2803 49.5196 38.9942 49.8276 38.6501C50.0081 38.449 50.1717 38.2312 50.3316 37.9812C50.512 37.6977 50.6602 37.3884 50.7826 37.0353C50.8045 36.9734 50.8239 36.9025 50.8445 36.8278C50.8625 36.7646 50.8806 36.6989 50.9025 36.6293C50.9321 36.5365 50.9566 36.436 50.9785 36.3238C51.0133 36.146 51.0404 35.9591 51.0623 35.7555C51.0803 35.588 51.0894 35.4166 51.0971 35.2104C51.101 35.1021 51.0958 34.9822 51.0894 34.8559L51.0855 34.7683C51.0803 34.6626 51.0687 34.5518 51.0558 34.4345C51.0468 34.3559 51.0391 34.2773 51.0314 34.1974L51.0262 34.142C51.0223 34.0904 51.0185 34.0427 51.012 34.0118C51.0017 33.9551 50.9901 33.8997 50.9798 33.843C50.9502 33.6844 50.9205 33.5337 50.8883 33.3842C50.8819 33.3545 50.8754 33.3236 50.8703 33.2939C50.8612 33.245 50.8471 33.178 50.8393 33.1599L50.7813 33.0504L50.7685 32.9318C50.6576 32.5194 50.4952 32.1134 50.338 31.7307C50.3225 31.692 50.3006 31.6482 50.2774 31.6005C50.2465 31.5361 50.2104 31.4626 50.1782 31.3801C50.1189 31.2332 50.0326 31.0811 49.9411 30.92C49.8702 30.7963 49.798 30.6687 49.7297 30.5295C49.7104 30.4896 49.673 30.4354 49.633 30.3787C49.5866 30.3117 49.5351 30.2357 49.4861 30.1481C49.3676 29.9367 49.2219 29.7318 49.0673 29.514L49.0157 29.4418C49.0028 29.4251 48.9732 29.3851 48.9423 29.3464C48.91 29.3052 48.8778 29.264 48.8611 29.2395C48.6613 28.974 48.4435 28.7214 48.2553 28.5087C47.8533 28.0525 47.406 27.6143 46.9292 27.2058C46.4085 26.7612 45.8505 26.3513 45.2731 25.9892C44.67 25.6103 44.0398 25.2855 43.4005 25.0213C42.7214 24.7404 42.028 24.5303 41.3424 24.395C40.8655 24.3022 40.3668 24.2429 39.8603 24.2223C39.7855 24.2197 39.7095 24.2171 39.6335 24.2171C39.3925 24.2171 39.1424 24.2326 38.8718 24.2635H38.8589L38.846 24.2661C38.7236 24.2751 38.5934 24.2945 38.4607 24.3164C37.882 24.4092 37.3369 24.5793 36.8433 24.8216C36.2762 25.0986 35.8045 25.4518 35.4024 25.9003C35.0725 26.2676 34.7993 26.6929 34.5892 27.1671C34.5016 27.3643 34.4268 27.5731 34.3637 27.8012C34.4938 27.769 34.624 27.7381 34.7542 27.711C34.7851 27.7161 34.8135 27.7071 34.8418 27.6942L34.8367 27.6929ZM35.4643 27.5473C35.4514 27.5615 35.4411 27.577 35.4437 27.6002C35.4772 27.6002 35.5094 27.6002 35.5429 27.6014C35.5094 27.6014 35.4772 27.6014 35.4437 27.6014C35.4411 27.5795 35.4514 27.5628 35.4643 27.5486V27.5473ZM25.8423 21.5481C25.957 21.713 26.0588 21.8857 26.1516 22.0623C26.2818 22.0984 26.421 22.1345 26.5486 22.1525L26.5653 22.1551L26.5782 22.1577C26.5885 22.159 26.6169 22.1615 26.6375 22.1641C26.7019 22.1706 26.7883 22.1783 26.8862 22.2028C26.9468 22.2118 27.0164 22.2131 27.0782 22.2131C27.113 22.2131 27.1478 22.2131 27.1826 22.2131C27.2226 22.2131 27.2638 22.2131 27.3038 22.2131C27.3644 22.2131 27.4159 22.2131 27.4662 22.217C27.4713 22.217 27.4752 22.217 27.4803 22.217C27.5332 22.217 27.6054 22.2066 27.6827 22.195H27.693C27.9018 22.1628 28.068 22.1203 28.2149 22.0623C28.559 21.927 28.8142 21.7569 29.0191 21.5236C29.2112 21.3071 29.3452 21.0403 29.4406 20.6872C29.4728 20.5686 29.4883 20.4784 29.4895 20.4037C29.4895 20.3624 29.4895 20.3225 29.4908 20.2812C29.4947 20.0428 29.4986 19.8173 29.4586 19.6227C29.4496 19.5788 29.4419 19.535 29.4341 19.4925C29.4225 19.4281 29.4109 19.3623 29.3993 19.3301L29.331 19.1535L29.3336 19.1407C29.3336 19.1407 29.3323 19.1355 29.331 19.1329C29.2911 18.977 29.2537 18.8533 29.1983 18.7502C29.1403 18.6432 29.0939 18.5362 29.0526 18.4421C29.0217 18.3725 28.9921 18.3055 28.9624 18.2475C28.916 18.1573 28.8529 18.0607 28.7859 17.9589C28.7395 17.888 28.6918 17.8158 28.6441 17.7372C27.8128 18.7076 26.9816 19.6794 26.1503 20.6511C25.9983 20.8289 25.8475 21.0094 25.6928 21.1859C25.6516 21.2323 25.6451 21.2697 25.6851 21.3213C25.7418 21.3947 25.7895 21.4746 25.8423 21.5507V21.5481ZM53.5818 49.3714C53.2068 49.5015 51.8008 49.9049 51.4914 49.9049C51.4695 49.9049 51.4502 49.9049 51.4335 49.9023L51.1254 49.8766L50.9489 49.624C50.896 49.5479 50.4604 48.9822 50.3303 48.8352C50.1421 48.6226 49.914 48.4112 49.6305 48.1896C49.1137 47.7849 48.5595 47.4769 47.9821 47.2733C47.647 47.156 47.3081 47.0799 46.9743 47.0477H46.9563L46.9382 47.0426C46.8996 47.0361 46.7758 47.0271 46.6057 47.0271C46.3815 47.0271 46.2616 47.0426 46.2333 47.049L46.2139 47.0529L46.1946 47.0555C45.8466 47.1096 45.576 47.1972 45.3427 47.3325C44.8105 47.6418 44.5089 48.0787 44.3942 48.7064C44.3916 48.718 44.389 48.7425 44.3864 48.7644C44.3749 48.8662 44.3568 49.0221 44.2795 49.1897L44.1081 49.557L43.7021 49.5673H43.6854C43.5848 49.5673 43.5294 49.5673 42.7703 49.3353C42.3721 49.2141 41.9507 49.0788 41.6968 48.9925C41.0472 48.7695 40.3797 48.5079 39.7147 48.2153C39.2327 48.0027 38.7339 47.763 38.2313 47.5014C37.9181 47.339 37.6449 47.1895 37.3936 47.0464L37.0907 46.8724L37.0662 46.5232C37.0585 46.4046 37.0701 46.3054 37.0804 46.2332C37.083 46.2152 37.0856 46.1907 37.0856 46.183C37.0933 45.8865 37.0933 45.5721 37.0353 45.2847C37.0211 45.2241 36.9425 44.92 36.9103 44.8181C36.7814 44.4173 36.5945 44.0346 36.3394 43.6466C36.3226 43.6209 36.3059 43.5938 36.2891 43.5667C36.2891 43.5667 36.2878 43.5642 36.2865 43.5629L36.2491 43.5332L36.1912 43.4456C36.128 43.3515 36.0481 43.2549 35.963 43.1518L35.9012 43.077C35.6602 42.7845 35.3715 42.5061 35.0158 42.2277C34.5248 41.8411 33.9899 41.5434 33.4242 41.341C33.0801 41.2173 32.7347 41.1374 32.3983 41.1039C32.3699 41.1013 32.3416 41.0975 32.3132 41.0949C32.2436 41.0872 32.1779 41.0794 32.1277 41.0794C32.1122 41.0794 32.098 41.0794 32.0877 41.082L31.9794 41.0975L31.9047 41.0833C31.8957 41.0833 31.8867 41.0859 31.8776 41.0859C31.8467 41.0897 31.8068 41.0936 31.7629 41.0949C31.4962 41.1078 31.232 41.1683 30.9536 41.2766L30.9484 41.2792C30.8853 41.3114 30.7538 41.3771 30.5734 41.3836L30.2564 41.3965L30.0502 41.1555C30.0231 41.1245 29.9973 41.0936 29.9703 41.0627C29.9032 40.9853 29.8336 40.9054 29.764 40.8191C29.746 40.7959 29.7125 40.7637 29.679 40.7289C29.6133 40.6631 29.5308 40.5807 29.4535 40.475C29.3942 40.3925 29.3246 40.3087 29.2524 40.2211L29.2369 40.2018C29.1609 40.109 29.0862 40.0162 29.0114 39.9234L28.907 39.7945C28.8413 39.7133 28.7807 39.6334 28.7214 39.5548C28.6415 39.4504 28.5668 39.3512 28.4907 39.2622L28.474 39.2429L28.4585 39.2223L28.4044 39.1488C28.3644 39.0947 28.3258 39.0419 28.2845 38.9877C28.2111 38.8898 28.1454 38.7944 28.0835 38.7016C28.05 38.6514 28.0165 38.6011 27.983 38.5547C27.9752 38.5457 27.9675 38.5367 27.9598 38.5277C27.9069 38.4658 27.8206 38.364 27.7587 38.2171C27.7587 38.2158 27.7561 38.2145 27.7561 38.2132C27.5873 37.9825 27.4391 37.7479 27.2948 37.5198L27.2638 37.4696C27.229 37.4154 27.1904 37.3587 27.1504 37.2995C27.0911 37.2118 27.0293 37.1216 26.97 37.0224C26.9236 36.945 26.8862 36.8716 26.854 36.8071C26.8295 36.7569 26.805 36.7105 26.7844 36.677C26.6607 36.4772 26.5421 36.2671 26.4313 36.0519C26.3875 35.9681 26.3411 35.8831 26.2908 35.7942C26.2676 35.7516 26.2431 35.7091 26.2199 35.6666L26.113 35.4733L26.1452 35.2555C26.1619 35.1446 26.2483 34.7838 26.6787 34.6639C26.8617 34.584 27.0151 34.4977 27.1478 34.401C27.2948 34.2927 27.4275 34.1536 27.5422 33.986C27.6479 33.8327 27.7329 33.6484 27.8038 33.4215C27.8567 33.2501 27.876 33.0491 27.8966 32.8364L27.9056 32.7436C27.9095 32.7088 27.9018 32.6405 27.894 32.5735C27.8876 32.5104 27.8786 32.4395 27.876 32.3609C27.8734 32.3042 27.8644 32.2346 27.8489 32.156C27.8438 32.1328 27.8322 32.0889 27.8232 32.0529C27.8128 32.0116 27.8038 31.9755 27.8 31.9614C27.7265 31.6443 27.6105 31.3286 27.443 30.9961C27.3437 30.7989 27.22 30.603 27.1027 30.4277L27.077 30.4187L26.9597 30.2383C26.8372 30.0501 26.6762 29.8723 26.4931 29.6764C26.2715 29.4392 26.0137 29.2124 25.7057 28.9843C25.2469 28.6453 24.7842 28.3927 24.2906 28.2123L23.922 28.077L23.8679 27.6878C23.837 27.47 23.8383 27.2625 23.8383 27.0795C23.8383 27.0421 23.8383 27.0035 23.8383 26.9661V26.8527C23.837 26.7354 23.8357 26.613 23.8383 26.4879C23.8409 26.4145 23.8396 26.3372 23.8383 26.2547C23.8383 26.0871 23.8357 25.8964 23.8589 25.6992C23.8705 25.6 23.8782 25.4982 23.886 25.3899C23.8911 25.3177 23.8976 25.2443 23.904 25.1721C23.9169 25.0342 23.9336 24.8525 23.9594 24.6669C23.9942 24.4208 24.038 24.1295 24.1025 23.8305C24.1205 23.748 24.1386 23.6694 24.1566 23.5895C23.3795 24.4968 22.6023 25.4054 21.8252 26.3127C21.7582 26.39 21.7079 26.4738 21.6783 26.5717C21.6371 26.7109 21.5881 26.8475 21.5468 26.9867C21.2865 27.8747 21.1293 28.782 21.0674 29.706C21.0275 30.3053 21.0288 30.9033 21.0545 31.5026C21.0558 31.5451 21.0494 31.5915 21.0906 31.6224C21.3368 31.7268 21.5842 31.8299 21.8201 31.9575C22.6681 32.415 23.3872 33.0233 23.9775 33.7837C24.2958 34.1948 24.5574 34.6394 24.7559 35.1201C24.8422 35.3302 24.9067 35.548 24.9763 35.7632C24.9763 35.8238 24.9956 35.8792 25.0136 35.9346C25.051 36.1756 25.0923 36.4141 25.0987 36.6589C25.1038 36.8742 25.0819 37.0855 25.0587 37.2982C25.0394 37.3562 24.9969 37.4 24.9582 37.4451C24.4414 38.0456 23.9246 38.6475 23.4091 39.2481C23.3558 39.3099 23.3481 39.377 23.3859 39.4491C23.6939 40.0316 24.0226 40.6013 24.3744 41.158C24.7275 41.7174 25.1013 42.2625 25.4956 42.7922C25.524 42.8309 25.5485 42.8734 25.5884 42.9017C25.6 42.9198 25.6116 42.9391 25.6245 42.9572C25.9003 43.3193 26.1761 43.6814 26.4738 44.0256C26.6633 44.2446 26.8514 44.4637 27.0422 44.6815C27.0692 44.7125 27.0911 44.764 27.1491 44.7279C27.4159 44.6158 27.6917 44.5346 27.9765 44.4856C28.0152 44.4895 28.0513 44.4792 28.0874 44.4689C28.2704 44.4599 28.4534 44.4508 28.6364 44.4418C28.7846 44.4534 28.9341 44.4573 29.081 44.4766C29.7911 44.5668 30.4548 44.7988 31.0786 45.1455C31.9511 45.6301 32.6831 46.2745 33.2695 47.0812C33.6291 47.5748 33.9087 48.1097 34.0892 48.6948C34.2103 49.0878 34.2786 49.4899 34.2825 49.9023C34.2722 49.932 34.2773 49.9629 34.2825 49.9926C34.2735 50.1073 34.2619 50.222 34.2554 50.3367C34.2528 50.3831 34.2232 50.4282 34.249 50.4759C34.2747 50.5158 34.3199 50.5274 34.3572 50.5493C34.8766 50.8406 35.405 51.1125 35.9424 51.3651C37.2905 51.9992 38.6823 52.5134 40.1232 52.8923C40.2095 52.9155 40.2572 52.8923 40.3114 52.8291C40.9235 52.119 41.5383 51.4115 42.153 50.704C42.229 50.6176 42.2948 50.521 42.3876 50.4514C42.5848 50.4204 42.7819 50.3869 42.9817 50.3843C43.126 50.3831 43.2691 50.3843 43.4134 50.3843C43.8258 50.4179 44.2305 50.4939 44.6223 50.6266C45.8221 51.0326 46.8093 51.7453 47.6161 52.717C47.7579 52.8884 47.879 53.0766 48.0169 53.2506C48.0156 53.2583 48.0169 53.2648 48.0169 53.2725H48.062C48.062 53.2648 48.062 53.2583 48.0633 53.2506C48.1033 53.2428 48.1432 53.2351 48.1819 53.2274C48.5969 53.1397 49.008 53.0379 49.4127 52.9078C49.8225 52.7763 50.2272 52.6371 50.619 52.4554C50.8638 52.342 51.1113 52.2337 51.3523 52.1152C51.784 51.9025 52.19 51.6486 52.5869 51.378C52.6578 51.329 52.7222 51.2762 52.7789 51.2104C53.4658 50.4204 54.1528 49.6317 54.8397 48.843C54.7508 48.8881 54.667 48.9293 54.5922 48.9628C54.2468 49.1201 53.904 49.258 53.5754 49.3727L53.5818 49.3714ZM58.0706 42.2831C58.0242 42.2831 57.9778 42.2831 57.9314 42.287H57.885C57.8709 42.287 57.8567 42.287 57.8425 42.287C57.568 42.287 57.2896 42.3411 57.0151 42.4481C56.3965 42.6904 56.0228 43.1015 55.8398 43.7394C55.805 43.8632 55.7805 43.9933 55.7702 44.1274C55.7547 44.3078 55.7444 44.5179 55.7805 44.706L55.7882 44.7447L55.7908 44.7833C55.8037 44.9818 55.8604 45.1958 55.9235 45.4148C55.9313 45.4406 55.939 45.4638 55.9506 45.496C55.9583 45.5179 55.9661 45.5399 55.9738 45.5618C55.9828 45.5875 55.9906 45.612 56.0009 45.6378C56.0344 45.7293 56.0717 45.8195 56.1117 45.9084C56.2264 45.9484 56.3411 45.9909 56.4545 46.0373C56.5692 46.085 56.5692 46.0863 56.6491 45.9961C57.568 44.9406 58.4869 43.8851 59.4058 42.8296C59.4689 42.7574 59.5321 42.6839 59.594 42.6105C59.3813 42.5254 59.1803 42.4584 58.9844 42.4081C58.6441 42.3218 58.3451 42.2806 58.0706 42.2806V42.2831Z" fill="black"/>
<path d="M42.0833 16.6713L46.9793 18.7836C46.9793 18.7836 46.7473 20.044 47.4433 21.4346C48.1392 22.8264 50.2154 24.7171 51.7529 24.8898C53.3549 25.0702 54.4774 24.6771 54.4774 24.6771L57.3217 28.8257C57.3217 28.8257 55.3731 29.5822 55.8473 32.9033C56.3628 36.5158 59.8967 37.1975 59.8876 37.5584C59.8786 37.9192 59.6544 40.5857 59.4469 40.9362C59.394 41.0265 57.4415 40.2932 55.7571 41.5716C52.6834 43.9069 54.9194 47.0515 54.9194 47.0515L51.7529 48.3815C51.7529 48.3815 53.824 45.0822 51.865 42.6323C50.6227 41.078 48.5825 41.2069 48.6573 41.1747C55.0457 38.427 52.3947 31.8427 52.3947 31.8427C52.3947 31.8427 50.035 25.9066 44.9985 23.6835C37.3277 20.2966 34.3584 23.5868 34.3584 23.5868C33.8106 21.2503 30.7807 21.6408 30.7807 21.6408C31.6635 19.5568 30.2923 17.4458 30.2923 17.4458L33.1972 16.1867C33.1972 16.1867 37.1009 21.2374 41.2597 18.0631C42.1876 17.3556 42.0833 16.6687 42.0833 16.6687V16.6713Z" fill="white"/>
<path d="M48.1863 53.2259L33.4865 54.2711L37.755 49.7372L47.7326 50.0967L48.1863 53.2259Z" fill="black"/>
</g>
<defs>
<clipPath id="clip0_15980_13345">
<rect width="100" height="100" fill="white"/>
</clipPath>
</defs>
</svg>
