<svg width="100" height="100" viewBox="0 0 100 100" fill="none" xmlns="http://www.w3.org/2000/svg">
<g clip-path="url(#clip0_15980_13343)">
<rect width="100" height="100" fill="#024731"/>
<path d="M99.9334 34.9583L89.9532 35.1993L71.5135 24.5321C70.3175 23.8388 68.5544 24.0926 67.6059 25.0914L39.2645 54.8775L23.7065 65.2406V70.6843C23.7413 71.3004 24.1034 71.888 24.7542 72.2631L52.1265 88.0969C53.3224 88.7903 55.0855 88.5364 56.034 87.5376L99.3329 42.0311C99.7505 41.5916 99.9489 41.0825 99.9412 40.5941V34.9596H99.9347L99.9334 34.9583Z" fill="black"/>
<path d="M56.0325 81.952C55.0775 82.9572 53.3209 83.2047 52.1249 82.5113L24.7527 66.6775C23.5567 65.9841 23.3582 64.5961 24.3068 63.5986L67.6056 18.0908C68.5606 17.0855 70.3172 16.8381 71.5132 17.5315L98.8854 33.3653C100.081 34.0587 100.28 35.4467 99.3313 36.4442L56.0325 81.9507V81.952Z" fill="#11B57A"/>
<path d="M84.9555 32.3677L80.3121 29.6497C79.8314 29.3662 79.7386 28.7089 80.1214 28.3042C80.6588 27.7384 81.5094 27.625 82.1808 28.0142L86.8243 30.7323C87.3127 31.0158 87.3978 31.6808 87.0086 32.0842H87.0021C86.4647 32.6435 85.6218 32.7569 84.9568 32.3677H84.9555Z" fill="#024731"/>
<path d="M47.2704 69.4601C47.2137 71.102 45.3527 72.49 43.1077 72.5532C40.8639 72.6163 39.0944 71.343 39.1576 69.7011C39.2143 68.0592 41.0753 66.6712 43.3203 66.6081C45.5641 66.5449 47.3335 67.8182 47.2704 69.4601Z" fill="#024731"/>
<path d="M77.7693 27.6885C78.5348 27.6086 79.1083 27.0905 79.0503 26.5299C78.9923 25.9705 78.3235 25.5813 77.5579 25.6612C76.7924 25.7411 76.2189 26.2592 76.2769 26.8198C76.3349 27.3792 77.0038 27.7684 77.7693 27.6898V27.6885Z" fill="#024731"/>
<path d="M6.41104 32.9935C6.41104 32.9935 8.53494 40.0289 17.1349 41.9762C17.1349 41.9762 10.6163 43.1013 10.4887 50.9306C10.4887 50.9306 8.1947 44.1491 -0.0585938 41.9698C-0.0585938 41.9698 6.83633 41.1488 6.41104 32.9948V32.9935Z" fill="white"/>
<path d="M54.8228 11.0469C54.8228 11.0469 55.7572 14.1399 59.5436 14.997C59.5436 14.997 56.6773 15.4918 56.6129 18.9393C56.6129 18.9393 55.6012 15.9519 51.9695 14.997C51.9695 14.997 55.0058 14.6361 54.8151 11.0469H54.8228Z" fill="white"/>
<path d="M68.7955 44.9174C68.7955 44.9174 70.1693 49.4694 75.7394 50.7285C75.7394 50.7285 71.5213 51.458 71.4362 56.5254C71.4362 56.5254 69.9503 52.1371 64.6122 50.7285C64.6122 50.7285 69.0713 50.1975 68.7955 44.9239V44.9161V44.9174Z" fill="white"/>
<path d="M58.208 28.9503L56.32 35.8491L60.6863 36.7383L60.0394 41.7581L56.6473 45.676L56.1086 47.0472L52.7849 50.8865L47.4816 48.9288L45.386 49.4675L38.3158 50.0526L34.7794 46.5858L53.9628 28.516L58.208 28.9503Z" fill="#006A4D"/>
<path d="M60.6863 36.7383C60.685 36.6288 60.6534 36.5646 60.54 36.5259C60.3956 36.4782 60.2577 36.4099 60.1211 36.3429C59.2203 35.897 58.4548 35.281 57.8284 34.4935C57.34 33.8814 56.9752 33.2047 56.7742 32.4444C56.6659 32.0345 56.6208 31.6183 56.6505 31.1956C56.6595 31.0628 56.6711 30.9288 56.7162 30.8012C56.7239 30.6427 56.7819 30.497 56.8386 30.3527C57.1003 29.6967 57.5616 29.2328 58.2086 28.9518C58.2524 28.9325 58.3555 28.9002 58.3607 28.8938C58.3748 28.8487 58.3426 28.8165 58.3246 28.7817C58.0926 28.3409 57.8464 27.9066 57.5861 27.4813C56.7781 26.1603 55.8617 24.9192 54.8346 23.7606C54.7779 23.6962 54.7199 23.633 54.6658 23.5673C54.6426 23.539 54.6194 23.5235 54.591 23.5235C54.5755 23.5235 54.5588 23.5274 54.5407 23.5364C54.4905 23.5609 54.4389 23.5815 54.3861 23.6008C53.9943 23.7477 53.5961 23.8096 53.1927 23.8096C52.9427 23.8096 52.6914 23.7864 52.4375 23.7439C51.8975 23.655 51.3858 23.4745 50.8974 23.2297C50.1847 22.8714 49.5584 22.3984 49.0132 21.8172C48.4461 21.2127 48.0015 20.5323 47.7231 19.7487C47.5118 19.1546 47.4216 18.545 47.5053 17.916C47.5157 17.84 47.4963 17.7949 47.4254 17.755C47.0272 17.5359 46.6264 17.3232 46.2191 17.1222C45.0167 16.5255 43.7756 16.0254 42.492 15.6336C42.2149 15.5486 41.9379 15.4622 41.6543 15.4017C41.6466 15.4017 41.6389 15.4017 41.6311 15.4017C41.6144 15.4017 41.5989 15.3991 41.586 15.3823C41.5796 15.3797 41.5744 15.3785 41.568 15.3785C41.5602 15.3785 41.5525 15.381 41.5448 15.3875C41.5383 15.6182 41.4971 15.845 41.4198 16.0602C41.3115 16.3592 41.1826 16.6531 40.9687 16.8941C40.7792 17.1067 40.5769 17.3052 40.3204 17.4444C40.1142 17.5565 39.908 17.6596 39.6825 17.7266C39.6193 17.7459 39.4595 17.7872 39.4415 17.7897C39.1786 17.8413 38.9157 17.8658 38.6528 17.8658C38.3654 17.8658 38.078 17.8361 37.7906 17.7782C37.0405 17.6274 36.3536 17.3232 35.7157 16.9044C34.9759 16.4185 34.3508 15.8154 33.8521 15.0833C33.8057 15.0163 33.7889 14.9944 33.7477 14.9944C33.7271 14.9944 33.7 14.9996 33.6588 15.0086C33.0891 15.122 32.5285 15.2702 31.9782 15.4558C31.1431 15.738 30.3492 16.1079 29.5979 16.5693C29.4277 16.6737 29.255 16.7768 29.0991 16.9044C29.1017 16.9533 29.1468 16.9765 29.1687 17.0139C29.2873 17.2214 29.4355 17.4109 29.5463 17.6261C29.6288 17.7872 29.6907 17.9573 29.7757 18.1171C29.8659 18.2859 29.9188 18.4651 29.9664 18.6481C29.9768 18.6906 30.0206 18.7215 30.0103 18.7705C30.0605 18.8994 30.0734 19.036 30.1005 19.1687C30.1623 19.4729 30.1482 19.7809 30.1443 20.0889C30.143 20.241 30.1121 20.3918 30.0721 20.5361C29.9626 20.9408 29.7925 21.3133 29.5102 21.6342C29.2177 21.9654 28.8607 22.1896 28.4547 22.3494C28.2395 22.4345 28.0153 22.4847 27.7897 22.5183C27.6892 22.5337 27.5861 22.5492 27.4804 22.5492C27.4649 22.5492 27.4508 22.5492 27.4353 22.5492C27.3915 22.5466 27.3477 22.5466 27.3038 22.5466C27.2291 22.5466 27.1531 22.5479 27.077 22.5479C26.9662 22.5479 26.8554 22.544 26.7458 22.5234C26.6504 22.4951 26.5512 22.5002 26.4545 22.4809C26.2703 22.4538 26.0911 22.4048 25.912 22.3559C25.6864 22.2927 25.4699 22.2025 25.2495 22.1239C25.2483 22.1239 25.2457 22.1239 25.2444 22.1239C25.2289 22.1239 25.2147 22.12 25.2044 22.1058C25.198 22.102 25.1915 22.1007 25.1851 22.1007C25.1774 22.1007 25.1696 22.1033 25.1632 22.1097C25.122 22.2399 25.0807 22.3713 25.0382 22.5015C24.9132 22.8778 24.8255 23.2645 24.7405 23.6511C24.6838 23.9101 24.6425 24.173 24.6052 24.4372C24.5833 24.5945 24.5678 24.753 24.5536 24.9115C24.5369 25.0919 24.5278 25.2736 24.5072 25.4528C24.4801 25.6977 24.4969 25.9425 24.4905 26.1874C24.4866 26.3395 24.4905 26.4928 24.4905 26.6449C24.4905 26.8563 24.484 27.0676 24.5137 27.279C25.0833 27.4865 25.6065 27.779 26.0937 28.1399C26.4082 28.3719 26.7046 28.6257 26.9713 28.9118C27.1634 29.1181 27.3541 29.3255 27.5075 29.564C27.5461 29.5781 27.5577 29.6168 27.5784 29.6465C27.7395 29.8862 27.898 30.1272 28.0268 30.3849C28.2047 30.7393 28.3465 31.1092 28.4367 31.4958C28.4444 31.5281 28.4818 31.6672 28.4895 31.7059C28.5101 31.8077 28.5243 31.9108 28.5295 32.0126C28.5372 32.1712 28.5733 32.3297 28.5565 32.4895C28.5295 32.7614 28.5101 33.0321 28.4277 33.2975C28.3452 33.563 28.2356 33.813 28.0797 34.0399C27.9289 34.2564 27.7498 34.4497 27.5358 34.6082C27.3374 34.7551 27.1221 34.8686 26.8953 34.9639C26.8592 34.9794 26.7999 34.9729 26.7922 35.0322C26.8657 35.1663 26.9417 35.2977 27.0126 35.433C27.1157 35.6315 27.2252 35.8248 27.3425 36.0156C27.4134 36.129 27.4624 36.2527 27.5307 36.3674C27.6209 36.5169 27.724 36.6561 27.8168 36.803C27.9676 37.0414 28.1171 37.2811 28.2846 37.5092C28.3155 37.5505 28.3413 37.5943 28.3619 37.6446C28.3954 37.7271 28.4663 37.7863 28.5166 37.8585C28.6145 37.9977 28.7047 38.142 28.8078 38.2774C28.8671 38.356 28.9264 38.4359 28.9844 38.5158C29.1378 38.6923 29.2705 38.8844 29.4161 39.0661C29.5244 39.2001 29.6327 39.3354 29.7422 39.4695C29.8247 39.57 29.9072 39.6692 29.9832 39.7736C30.067 39.8896 30.1843 39.9785 30.2745 40.0907C30.3621 40.2002 30.4562 40.3046 30.5477 40.4116C30.6057 40.409 30.6521 40.3742 30.7036 40.3536C31.0348 40.2221 31.3751 40.1396 31.7321 40.1229C31.7952 40.1203 31.8584 40.1087 31.9215 40.1087C31.9473 40.1087 31.9731 40.11 31.9988 40.1151C32.0427 40.1087 32.0865 40.1061 32.1303 40.1061C32.2424 40.1061 32.3545 40.1229 32.4654 40.1332C32.8688 40.1744 33.2631 40.2685 33.6459 40.4051C34.2916 40.6358 34.8831 40.9696 35.4218 41.3936C35.7814 41.6771 36.1152 41.9864 36.4077 42.3421C36.5211 42.48 36.6371 42.6141 36.7364 42.7623C36.8047 42.8164 36.8395 42.8963 36.8859 42.9659C37.1604 43.3809 37.3808 43.8229 37.5328 44.2972C37.5754 44.43 37.6656 44.7844 37.6746 44.8282C37.7468 45.1762 37.7493 45.528 37.739 45.8798C37.7365 45.9713 37.712 46.0628 37.7184 46.1556C37.9865 46.309 38.2571 46.4559 38.5316 46.5977C39.0072 46.8438 39.4892 47.0771 39.9789 47.2936C40.6117 47.5733 41.2535 47.8272 41.9082 48.0514C42.4263 48.2292 43.6042 48.5901 43.6841 48.5901C43.7318 48.4883 43.728 48.3749 43.7486 48.2666C43.8942 47.4676 44.3066 46.8541 45.0116 46.4443C45.3466 46.2497 45.7114 46.1453 46.0929 46.086C46.2101 46.0602 46.4112 46.0499 46.6032 46.0499C46.7759 46.0499 46.9422 46.059 47.0349 46.0731C47.4319 46.1118 47.8198 46.2007 48.1961 46.3322C48.8663 46.5667 49.4746 46.9134 50.0326 47.3516C50.3149 47.572 50.5816 47.8104 50.8188 48.0785C50.9657 48.2434 51.4168 48.8285 51.4851 48.9278C51.4864 48.9278 51.4889 48.9278 51.4902 48.9278C51.6346 48.9278 52.8641 48.6056 53.3654 48.4303C53.6914 48.3169 54.0124 48.1854 54.3268 48.0424C54.9042 47.7795 56.0976 47.0513 56.1092 47.0449C56.1814 46.9907 56.1814 46.9907 56.1401 46.9263C56.1246 46.9018 56.1053 46.8773 56.0886 46.8541C55.7999 46.4469 55.5627 46.0126 55.3875 45.5447C55.3759 45.5138 55.3656 45.4816 55.354 45.4507C55.3346 45.3927 55.314 45.3411 55.2934 45.2715C55.2225 45.0189 55.1555 44.7676 55.1375 44.5047C55.0898 44.2547 55.0975 44.0034 55.1181 43.7508C55.1323 43.5768 55.1632 43.4054 55.2109 43.2365C55.448 42.4053 55.9726 41.8305 56.7768 41.516C57.1183 41.382 57.474 41.3098 57.8426 41.3098C57.8606 41.3098 57.8787 41.3098 57.898 41.3098C57.956 41.3073 58.014 41.3047 58.0707 41.3047C58.4341 41.3047 58.7911 41.3627 59.1442 41.4516C59.4084 41.5186 59.6636 41.6075 59.9149 41.7106C59.9562 41.7274 59.9948 41.7493 60.0399 41.7558C60.0734 41.7313 60.0747 41.6913 60.0863 41.6578C60.201 41.3163 60.2977 40.9683 60.3789 40.6165C60.6109 39.6151 60.7127 38.5995 60.7114 37.5724C60.7114 37.2927 60.6921 37.0144 60.6869 36.736L60.6863 36.7383ZM51.7506 34.9162C51.7428 35.1121 51.7325 35.308 51.7119 35.5026C51.69 35.7127 51.6603 35.9202 51.6204 36.1277C51.5959 36.2553 51.565 36.3803 51.5263 36.504C51.4825 36.6458 51.449 36.7901 51.4 36.9306C51.2673 37.3108 51.0997 37.6742 50.8832 38.0132C50.7144 38.2786 50.5262 38.5312 50.3149 38.7671C49.954 39.1692 49.539 39.4991 49.0738 39.7698C48.8031 39.927 48.5222 40.0597 48.2322 40.1796C48.2 40.1925 48.093 40.2389 48.0801 40.2389C47.8391 40.3149 47.5981 40.3922 47.352 40.4489C46.7772 40.583 46.1947 40.6448 45.6083 40.6448C45.4768 40.6448 45.3441 40.6423 45.2126 40.6358C44.0308 40.5804 42.8954 40.311 41.7961 39.8793C40.5537 39.3909 39.417 38.7207 38.368 37.8985C37.2145 36.9937 36.2157 35.9421 35.3935 34.7281C34.6705 33.6597 34.115 32.514 33.7812 31.2639C33.5531 30.4094 33.45 29.5408 33.499 28.6567C33.5144 28.3706 33.5531 28.087 33.6072 27.8048C33.615 27.7648 33.6485 27.6115 33.6575 27.5741C33.7374 27.2339 33.8418 26.9001 33.9848 26.5805C34.2194 26.0534 34.5235 25.5726 34.9102 25.1422C35.3754 24.6228 35.9257 24.2181 36.5508 23.9127C37.123 23.633 37.7249 23.45 38.3525 23.3495C38.4994 23.3263 38.645 23.3031 38.7932 23.2928C39.0716 23.2606 39.35 23.2425 39.6297 23.2425C39.7147 23.2425 39.7998 23.2438 39.8836 23.2477C40.4145 23.2696 40.9416 23.3302 41.4649 23.432C42.2149 23.5789 42.9418 23.8044 43.648 24.0957C44.3337 24.3792 44.9897 24.7208 45.6186 25.1138C46.2282 25.4953 46.8055 25.9206 47.352 26.3871C47.8482 26.8099 48.3134 27.2661 48.7439 27.7545C48.9642 28.0046 49.1807 28.2584 49.3818 28.5252C49.4205 28.5755 49.5274 28.7147 49.5455 28.7392C49.7233 28.9905 49.905 29.2379 50.0558 29.5073C50.1357 29.649 50.244 29.774 50.3162 29.921C50.4657 30.2238 50.659 30.5022 50.7853 30.8167C50.8317 30.9339 50.8948 31.0448 50.9425 31.1608C51.1216 31.5951 51.2943 32.032 51.4129 32.4882C51.4168 32.5024 51.4168 32.5178 51.4181 32.532C51.4825 32.6544 51.5005 32.7911 51.5289 32.9238C51.5753 33.1364 51.6139 33.3517 51.6552 33.5656C51.6719 33.6494 51.6758 33.7344 51.6835 33.8182C51.7003 34.0167 51.7299 34.2151 51.739 34.4149C51.7467 34.5812 51.7583 34.7487 51.7518 34.9149L51.7506 34.9162Z" fill="#6CF379"/>
<path d="M34.8367 27.3726C34.8521 27.3713 34.8676 27.3688 34.883 27.3675C34.914 27.3726 34.9436 27.3636 34.9707 27.3507C34.9861 27.3494 35.0016 27.3469 35.0171 27.3456C35.0622 27.3507 35.1047 27.3404 35.146 27.3275C35.1627 27.3262 35.1782 27.3249 35.1949 27.3237C35.24 27.3275 35.2826 27.3172 35.3251 27.3056C35.3483 27.3043 35.3715 27.303 35.396 27.3017C35.4617 27.3069 35.5261 27.2953 35.5906 27.2824C35.7285 27.2773 35.8651 27.2682 36.003 27.2657C36.8265 27.2515 37.6372 27.3507 38.4375 27.5415C39.2546 27.7361 40.0394 28.0222 40.7972 28.383C41.4983 28.7168 42.1633 29.1086 42.7987 29.5545C43.6299 30.1396 44.3916 30.8033 45.0824 31.5483C45.7448 32.2635 46.3273 33.0381 46.8222 33.8796C46.9588 34.1129 47.0826 34.3539 47.2102 34.5923C47.2192 34.6168 47.2269 34.6413 47.2385 34.6645C47.3725 34.9171 47.4821 35.18 47.5903 35.4442C47.7205 35.7638 47.8262 36.0912 47.9319 36.4198C47.928 36.4417 47.9306 36.4636 47.937 36.4855C48.12 37.0848 48.2244 37.6996 48.2631 38.3233C48.2863 38.7035 48.2837 39.0824 48.2476 39.4587C48.4268 39.3763 48.593 39.2925 48.7464 39.2036C49.1652 38.96 49.5196 38.6739 49.8276 38.3298C50.0081 38.1287 50.1717 37.9109 50.3316 37.6609C50.512 37.3774 50.6602 37.0681 50.7826 36.7149C50.8045 36.6531 50.8239 36.5822 50.8445 36.5074C50.8625 36.4443 50.8806 36.3786 50.9025 36.309C50.9321 36.2162 50.9566 36.1157 50.9785 36.0035C51.0133 35.8257 51.0404 35.6388 51.0623 35.4352C51.0803 35.2676 51.0894 35.0962 51.0971 34.89C51.101 34.7818 51.0958 34.6619 51.0894 34.5356L51.0855 34.448C51.0803 34.3423 51.0687 34.2315 51.0558 34.1142C51.0468 34.0356 51.0391 33.957 51.0314 33.8771L51.0262 33.8216C51.0223 33.7701 51.0185 33.7224 51.012 33.6915C51.0017 33.6348 50.9901 33.5794 50.9798 33.5227C50.9502 33.3641 50.9205 33.2133 50.8883 33.0638C50.8819 33.0342 50.8754 33.0033 50.8703 32.9736C50.8612 32.9247 50.8471 32.8576 50.8393 32.8396L50.7813 32.7301L50.7685 32.6115C50.6576 32.1991 50.4952 31.7931 50.338 31.4104C50.3225 31.3717 50.3006 31.3279 50.2774 31.2802C50.2465 31.2157 50.2104 31.1423 50.1782 31.0598C50.1189 30.9129 50.0326 30.7608 49.9411 30.5997C49.8702 30.476 49.798 30.3484 49.7297 30.2092C49.7104 30.1693 49.673 30.1151 49.633 30.0584C49.5866 29.9914 49.5351 29.9154 49.4861 29.8277C49.3676 29.6164 49.2219 29.4115 49.0673 29.1937L49.0157 29.1215C49.0028 29.1047 48.9732 29.0648 48.9423 29.0261C48.91 28.9849 48.8778 28.9436 48.8611 28.9192C48.6613 28.6537 48.4435 28.4011 48.2553 28.1884C47.8533 27.7322 47.406 27.294 46.9292 26.8855C46.4085 26.4409 45.8505 26.031 45.2731 25.6689C44.67 25.29 44.0398 24.9652 43.4005 24.701C42.7214 24.4201 42.028 24.21 41.3424 24.0747C40.8655 23.9819 40.3668 23.9226 39.8603 23.902C39.7855 23.8994 39.7095 23.8968 39.6335 23.8968C39.3925 23.8968 39.1424 23.9123 38.8718 23.9432H38.8589L38.846 23.9458C38.7236 23.9548 38.5934 23.9741 38.4607 23.996C37.882 24.0888 37.3369 24.259 36.8433 24.5012C36.2762 24.7783 35.8045 25.1315 35.4024 25.5799C35.0725 25.9472 34.7993 26.3725 34.5892 26.8468C34.5016 27.044 34.4268 27.2528 34.3637 27.4809C34.4938 27.4487 34.624 27.4177 34.7542 27.3907C34.7851 27.3958 34.8135 27.3868 34.8418 27.3739L34.8367 27.3726ZM35.4643 27.227C35.4514 27.2412 35.4411 27.2566 35.4437 27.2798C35.4772 27.2798 35.5094 27.2798 35.5429 27.2811C35.5094 27.2811 35.4772 27.2811 35.4437 27.2811C35.4411 27.2592 35.4514 27.2425 35.4643 27.2283V27.227ZM25.8423 21.2278C25.957 21.3927 26.0588 21.5654 26.1516 21.742C26.2818 21.7781 26.421 21.8142 26.5486 21.8322L26.5653 21.8348L26.5782 21.8374C26.5885 21.8386 26.6169 21.8412 26.6375 21.8438C26.7019 21.8502 26.7883 21.858 26.8862 21.8825C26.9468 21.8915 27.0164 21.8928 27.0782 21.8928C27.113 21.8928 27.1478 21.8928 27.1826 21.8928C27.2226 21.8928 27.2638 21.8928 27.3038 21.8928C27.3644 21.8928 27.4159 21.8928 27.4662 21.8966C27.4713 21.8966 27.4752 21.8966 27.4803 21.8966C27.5332 21.8966 27.6054 21.8863 27.6827 21.8747H27.693C27.9018 21.8425 28.068 21.8 28.2149 21.742C28.559 21.6067 28.8142 21.4365 29.0191 21.2033C29.2112 20.9868 29.3452 20.72 29.4406 20.3669C29.4728 20.2483 29.4883 20.1581 29.4895 20.0833C29.4895 20.0421 29.4895 20.0021 29.4908 19.9609C29.4947 19.7225 29.4986 19.4969 29.4586 19.3023C29.4496 19.2585 29.4419 19.2147 29.4341 19.1722C29.4225 19.1077 29.4109 19.042 29.3993 19.0098L29.331 18.8332L29.3336 18.8203C29.3336 18.8203 29.3323 18.8152 29.331 18.8126C29.2911 18.6567 29.2537 18.5329 29.1983 18.4298C29.1403 18.3229 29.0939 18.2159 29.0526 18.1218C29.0217 18.0522 28.9921 17.9852 28.9624 17.9272C28.916 17.837 28.8529 17.7404 28.7859 17.6385C28.7395 17.5677 28.6918 17.4955 28.6441 17.4169C27.8128 18.3873 26.9816 19.359 26.1503 20.3308C25.9983 20.5086 25.8475 20.6891 25.6928 20.8656C25.6516 20.912 25.6451 20.9494 25.6851 21.0009C25.7418 21.0744 25.7895 21.1543 25.8423 21.2303V21.2278ZM53.5818 49.0511C53.2068 49.1812 51.8008 49.5846 51.4914 49.5846C51.4695 49.5846 51.4502 49.5846 51.4335 49.582L51.1254 49.5563L50.9489 49.3037C50.896 49.2276 50.4604 48.6618 50.3303 48.5149C50.1421 48.3023 49.914 48.0909 49.6305 47.8693C49.1137 47.4646 48.5595 47.1566 47.9821 46.9529C47.647 46.8357 47.3081 46.7596 46.9743 46.7274H46.9563L46.9382 46.7223C46.8996 46.7158 46.7758 46.7068 46.6057 46.7068C46.3815 46.7068 46.2616 46.7222 46.2333 46.7287L46.2139 46.7326L46.1946 46.7351C45.8466 46.7893 45.576 46.8769 45.3427 47.0122C44.8105 47.3215 44.5089 47.7584 44.3942 48.3861C44.3916 48.3977 44.389 48.4221 44.3864 48.4441C44.3749 48.5459 44.3568 48.7018 44.2795 48.8693L44.1081 49.2366L43.7021 49.247H43.6854C43.5848 49.247 43.5294 49.247 42.7703 49.015C42.3721 48.8938 41.9507 48.7585 41.6968 48.6722C41.0472 48.4492 40.3797 48.1876 39.7147 47.895C39.2327 47.6824 38.7339 47.4427 38.2313 47.1811C37.9181 47.0187 37.6449 46.8692 37.3936 46.7261L37.0907 46.5521L37.0662 46.2029C37.0585 46.0843 37.0701 45.9851 37.0804 45.9129C37.083 45.8949 37.0856 45.8704 37.0856 45.8626C37.0933 45.5662 37.0933 45.2518 37.0353 44.9644C37.0211 44.9038 36.9425 44.5996 36.9103 44.4978C36.7814 44.097 36.5945 43.7143 36.3394 43.3263C36.3226 43.3006 36.3059 43.2735 36.2891 43.2464C36.2891 43.2464 36.2878 43.2439 36.2865 43.2426L36.2491 43.2129L36.1912 43.1253C36.128 43.0312 36.0481 42.9345 35.963 42.8314L35.9012 42.7567C35.6602 42.4641 35.3715 42.1858 35.0158 41.9074C34.5248 41.5208 33.9899 41.2231 33.4242 41.0207C33.0801 40.897 32.7347 40.8171 32.3983 40.7836C32.3699 40.781 32.3416 40.7771 32.3132 40.7746C32.2436 40.7668 32.1779 40.7591 32.1277 40.7591C32.1122 40.7591 32.098 40.7591 32.0877 40.7617L31.9794 40.7771L31.9047 40.763C31.8957 40.763 31.8867 40.7655 31.8776 40.7655C31.8467 40.7694 31.8068 40.7733 31.7629 40.7746C31.4962 40.7875 31.232 40.848 30.9536 40.9563L30.9484 40.9589C30.8853 40.9911 30.7538 41.0568 30.5734 41.0633L30.2564 41.0761L30.0502 40.8351C30.0231 40.8042 29.9973 40.7733 29.9703 40.7423C29.9032 40.665 29.8336 40.5851 29.764 40.4988C29.746 40.4756 29.7125 40.4434 29.679 40.4086C29.6133 40.3428 29.5308 40.2604 29.4535 40.1547C29.3942 40.0722 29.3246 39.9884 29.2524 39.9008L29.2369 39.8815C29.1609 39.7887 29.0862 39.6959 29.0114 39.6031L28.907 39.4742C28.8413 39.393 28.7807 39.3131 28.7214 39.2345C28.6415 39.1301 28.5668 39.0309 28.4907 38.9419L28.474 38.9226L28.4585 38.902L28.4044 38.8285C28.3644 38.7744 28.3258 38.7216 28.2845 38.6674C28.2111 38.5695 28.1454 38.4741 28.0835 38.3813C28.05 38.3311 28.0165 38.2808 27.983 38.2344C27.9752 38.2254 27.9675 38.2164 27.9598 38.2073C27.9069 38.1455 27.8206 38.0437 27.7587 37.8967C27.7587 37.8955 27.7561 37.8942 27.7561 37.8929C27.5873 37.6622 27.4391 37.4276 27.2948 37.1995L27.2638 37.1493C27.229 37.0951 27.1904 37.0384 27.1504 36.9791C27.0911 36.8915 27.0293 36.8013 26.97 36.702C26.9236 36.6247 26.8862 36.5513 26.854 36.4868C26.8295 36.4366 26.805 36.3902 26.7844 36.3567C26.6607 36.1569 26.5421 35.9468 26.4313 35.7316C26.3875 35.6478 26.3411 35.5628 26.2908 35.4739C26.2676 35.4313 26.2431 35.3888 26.2199 35.3463L26.113 35.1529L26.1452 34.9351C26.1619 34.8243 26.2483 34.4635 26.6787 34.3436C26.8617 34.2637 27.0151 34.1773 27.1478 34.0807C27.2948 33.9724 27.4275 33.8332 27.5422 33.6657C27.6479 33.5123 27.7329 33.328 27.8038 33.1012C27.8567 32.9298 27.876 32.7288 27.8966 32.5161L27.9056 32.4233C27.9095 32.3885 27.9018 32.3202 27.894 32.2532C27.8876 32.1901 27.8786 32.1192 27.876 32.0406C27.8734 31.9839 27.8644 31.9143 27.8489 31.8356C27.8438 31.8125 27.8322 31.7686 27.8232 31.7325C27.8128 31.6913 27.8038 31.6552 27.8 31.641C27.7265 31.324 27.6105 31.0083 27.443 30.6758C27.3437 30.4786 27.22 30.2827 27.1027 30.1074L27.077 30.0984L26.9597 29.918C26.8372 29.7298 26.6762 29.5519 26.4931 29.3561C26.2715 29.1189 26.0137 28.8921 25.7057 28.664C25.2469 28.325 24.7842 28.0724 24.2906 27.892L23.922 27.7567L23.8679 27.3675C23.837 27.1497 23.8383 26.9422 23.8383 26.7592C23.8383 26.7218 23.8383 26.6831 23.8383 26.6458V26.5324C23.837 26.4151 23.8357 26.2926 23.8383 26.1676C23.8409 26.0942 23.8396 26.0168 23.8383 25.9344C23.8383 25.7668 23.8357 25.5761 23.8589 25.3789C23.8705 25.2797 23.8782 25.1779 23.886 25.0696C23.8911 24.9974 23.8976 24.924 23.904 24.8518C23.9169 24.7139 23.9336 24.5322 23.9594 24.3466C23.9942 24.1004 24.038 23.8092 24.1025 23.5102C24.1205 23.4277 24.1386 23.3491 24.1566 23.2692C23.3795 24.1765 22.6023 25.0851 21.8252 25.9924C21.7582 26.0697 21.7079 26.1535 21.6783 26.2514C21.6371 26.3906 21.5881 26.5272 21.5468 26.6664C21.2865 27.5543 21.1293 28.4616 21.0674 29.3857C21.0275 29.985 21.0288 30.583 21.0545 31.1822C21.0558 31.2248 21.0494 31.2712 21.0906 31.3021C21.3368 31.4065 21.5842 31.5096 21.8201 31.6372C22.6681 32.0947 23.3872 32.703 23.9775 33.4634C24.2958 33.8745 24.5574 34.3191 24.7559 34.7998C24.8422 35.0099 24.9067 35.2277 24.9763 35.4429C24.9763 35.5035 24.9956 35.5589 25.0136 35.6143C25.051 35.8553 25.0923 36.0938 25.0987 36.3386C25.1038 36.5538 25.0819 36.7652 25.0587 36.9778C25.0394 37.0358 24.9969 37.0797 24.9582 37.1248C24.4414 37.7253 23.9246 38.3272 23.4091 38.9278C23.3558 38.9896 23.3481 39.0566 23.3859 39.1288C23.6939 39.7113 24.0226 40.281 24.3744 40.8377C24.7275 41.397 25.1013 41.9422 25.4956 42.4719C25.524 42.5105 25.5485 42.5531 25.5884 42.5814C25.6 42.5995 25.6116 42.6188 25.6245 42.6368C25.9003 42.999 26.1761 43.3611 26.4738 43.7052C26.6633 43.9243 26.8514 44.1434 27.0422 44.3612C27.0692 44.3921 27.0911 44.4437 27.1491 44.4076C27.4159 44.2955 27.6917 44.2143 27.9765 44.1653C28.0152 44.1692 28.0513 44.1589 28.0874 44.1486C28.2704 44.1396 28.4534 44.1305 28.6364 44.1215C28.7846 44.1331 28.9341 44.137 29.081 44.1563C29.7911 44.2465 30.4548 44.4785 31.0786 44.8252C31.9511 45.3098 32.6831 45.9541 33.2695 46.7609C33.6291 47.2545 33.9087 47.7894 34.0892 48.3745C34.2103 48.7675 34.2786 49.1696 34.2825 49.582C34.2722 49.6117 34.2773 49.6426 34.2825 49.6723C34.2735 49.787 34.2619 49.9017 34.2554 50.0164C34.2528 50.0627 34.2232 50.1079 34.249 50.1555C34.2747 50.1955 34.3199 50.2071 34.3572 50.229C34.8766 50.5203 35.405 50.7922 35.9424 51.0448C37.2905 51.6789 38.6823 52.1931 40.1232 52.572C40.2095 52.5952 40.2572 52.572 40.3114 52.5088C40.9235 51.7987 41.5383 51.0912 42.153 50.3837C42.229 50.2973 42.2948 50.2006 42.3876 50.1311C42.5848 50.1001 42.7819 50.0666 42.9817 50.064C43.126 50.0627 43.2691 50.064 43.4134 50.064C43.8258 50.0975 44.2305 50.1736 44.6223 50.3063C45.8221 50.7123 46.8093 51.425 47.6161 52.3967C47.7579 52.5681 47.879 52.7563 48.0169 52.9303C48.0156 52.938 48.0169 52.9444 48.0169 52.9522H48.062C48.062 52.9444 48.062 52.938 48.0633 52.9303C48.1033 52.9225 48.1432 52.9148 48.1819 52.9071C48.5969 52.8194 49.008 52.7176 49.4127 52.5875C49.8225 52.456 50.2272 52.3168 50.619 52.1351C50.8638 52.0217 51.1113 51.9134 51.3523 51.7949C51.784 51.5822 52.19 51.3283 52.5869 51.0577C52.6578 51.0087 52.7222 50.9559 52.7789 50.8901C53.4658 50.1001 54.1528 49.3114 54.8397 48.5227C54.7508 48.5678 54.667 48.609 54.5922 48.6425C54.2468 48.7997 53.904 48.9376 53.5754 49.0523L53.5818 49.0511ZM58.0706 41.9628C58.0242 41.9628 57.9778 41.9628 57.9314 41.9667H57.885C57.8709 41.9667 57.8567 41.9667 57.8425 41.9667C57.568 41.9667 57.2896 42.0208 57.0151 42.1278C56.3965 42.3701 56.0228 42.7812 55.8398 43.4191C55.805 43.5429 55.7805 43.673 55.7702 43.807C55.7547 43.9875 55.7444 44.1975 55.7805 44.3857L55.7882 44.4244L55.7908 44.463C55.8037 44.6615 55.8604 44.8754 55.9235 45.0945C55.9313 45.1203 55.939 45.1435 55.9506 45.1757C55.9583 45.1976 55.9661 45.2195 55.9738 45.2415C55.9828 45.2672 55.9906 45.2917 56.0009 45.3175C56.0344 45.409 56.0717 45.4992 56.1117 45.5881C56.2264 45.6281 56.3411 45.6706 56.4545 45.717C56.5692 45.7647 56.5692 45.766 56.6491 45.6758C57.568 44.6203 58.4869 43.5648 59.4058 42.5093C59.4689 42.4371 59.5321 42.3636 59.594 42.2902C59.3813 42.2051 59.1803 42.1381 58.9844 42.0878C58.6441 42.0015 58.3451 41.9602 58.0706 41.9602V41.9628Z" fill="black"/>
<path d="M42.0833 16.3509L46.9793 18.4632C46.9793 18.4632 46.7473 19.7237 47.4433 21.1142C48.1392 22.5061 50.2154 24.3967 51.7529 24.5694C53.3549 24.7499 54.4774 24.3568 54.4774 24.3568L57.3217 28.5053C57.3217 28.5053 55.3731 29.2619 55.8473 32.583C56.3628 36.1954 59.8967 36.8772 59.8876 37.2381C59.8786 37.5989 59.6544 40.2654 59.4469 40.6159C59.394 40.7062 57.4415 39.9728 55.7571 41.2513C52.6834 43.5866 54.9194 46.7312 54.9194 46.7312L51.7529 48.0612C51.7529 48.0612 53.824 44.7619 51.865 42.312C50.6227 40.7577 48.5825 40.8866 48.6573 40.8544C55.0457 38.1067 52.3947 31.5224 52.3947 31.5224C52.3947 31.5224 50.035 25.5863 44.9985 23.3631C37.3277 19.9763 34.3584 23.2665 34.3584 23.2665C33.8106 20.9299 30.7807 21.3204 30.7807 21.3204C31.6635 19.2365 30.2923 17.1255 30.2923 17.1255L33.1972 15.8664C33.1972 15.8664 37.1009 20.9171 41.2597 17.7428C42.1876 17.0353 42.0833 16.3484 42.0833 16.3484V16.3509Z" fill="white"/>
<path d="M48.1863 52.9056L33.4865 53.9508L37.755 49.4169L47.7326 49.7764L48.1863 52.9056Z" fill="black"/>
</g>
<defs>
<clipPath id="clip0_15980_13343">
<rect width="100" height="100" fill="white"/>
</clipPath>
</defs>
</svg>
