<svg width="100" height="100" viewBox="0 0 100 100" fill="none" xmlns="http://www.w3.org/2000/svg">
<g clip-path="url(#clip0_15980_13331)">
<rect width="100" height="100" fill="#024731"/>
<path d="M93.5775 32.0515C93.4799 31.3494 93.0208 30.7324 92.2875 30.3066H92.2834L63.376 13.4308C62.757 13.0735 62.03 12.9032 61.2967 12.9032C60.1438 12.9032 58.9785 13.327 58.214 14.1288L47.8983 24.9182V24.9265C49.8218 27.2696 51.3881 29.9639 52.3852 32.8305C54.585 39.1537 54.02 44.5089 50.9706 47.3423L50.9207 47.388L46.9012 50.7636C45.2975 52.0598 43.2037 52.7972 40.7005 52.7972H40.6465C34.234 52.7972 28.7832 52.2177 24.4625 49.4341L11.4962 62.9966C10.9395 63.5804 10.684 64.2742 10.7837 64.9534C10.8855 65.6597 11.3445 66.2767 12.0778 66.7025L40.9893 83.5803C42.5826 84.5026 44.8966 84.1869 46.1472 82.8782L92.8609 34.0125C93.4176 33.4329 93.6731 32.7349 93.5734 32.0557H93.5775V32.0515Z" fill="#11B67A"/>
<path d="M27.245 46.5258L24.4697 49.4319C28.7905 52.2155 34.2392 52.793 40.6496 52.7971C36.117 52.7743 31.2292 50.3355 27.2471 46.5279L27.245 46.5258Z" fill="#006A4D"/>
<path d="M24.2718 32.4649C27.5476 41.8749 36.723 49.5048 44.7641 49.5089C47.263 49.5089 49.3195 48.6863 50.9232 47.3859L46.9037 50.7615C45.3 52.0577 43.2061 52.7952 40.703 52.7952C32.6619 52.791 23.4887 45.1612 20.2107 35.7511C20.1837 35.6722 20.1567 35.5953 20.1339 35.5206L24.2385 32.361C24.2489 32.3943 24.2614 32.4296 24.2718 32.4628V32.467V32.4649Z" fill="black"/>
<path d="M94.8273 38.5595L94.3226 33.921C94.1564 34.2284 93.9466 34.5234 93.6849 34.7976L46.9711 83.6633C45.9969 84.6833 44.5137 85.2296 43.0451 85.2296C42.1186 85.2296 41.2026 85.0136 40.4215 84.5628L11.51 67.685C10.569 67.1428 9.94792 66.3451 9.72357 65.4207L10.3447 71.1395C10.4402 72.0119 10.9782 72.8387 11.9255 73.385L41.3791 90.5744C43.1926 91.6214 45.812 91.2641 47.235 89.7747L93.9487 40.9089C94.6279 40.2006 94.9125 39.3613 94.8253 38.5657V38.5616L94.8273 38.5595Z" fill="#024731"/>
<path d="M28.2688 80.4665C28.435 79.9928 28.1275 79.3468 27.5833 79.029L23.4225 76.5944C22.8804 76.2766 22.3029 76.4054 22.1408 76.879C21.9747 77.3526 22.2821 77.9986 22.8263 78.3165L26.9871 80.751C27.5293 81.0689 28.1068 80.9401 28.2688 80.4665Z" fill="#6CF479"/>
<path d="M34.5302 67.1073C36.4309 68.2041 36.7571 70.3582 35.2656 71.9161C33.7741 73.4741 31.03 73.8501 29.1335 72.7554C27.2328 71.6586 26.9004 69.5044 28.3898 67.9465C29.8813 66.3885 32.6254 66.0125 34.5302 67.1093V67.1073Z" fill="#6CF479"/>
<path d="M70.229 22.3237C70.8854 22.7038 71.0018 23.4496 70.4866 23.9897C69.9714 24.5277 69.0159 24.6606 68.3595 24.2826C67.703 23.9024 67.5888 23.1567 68.106 22.6166C68.6212 22.0786 69.5705 21.9456 70.229 22.3278V22.3237Z" fill="#6CF479"/>
<path d="M79.4418 27.6416C80.0982 28.0217 80.2146 28.7675 79.6994 29.3076C79.1842 29.8456 78.2287 29.9785 77.5723 29.6005L72.2815 26.5469C71.625 26.1667 71.5087 25.421 72.0239 24.8788C72.539 24.3408 73.4925 24.212 74.151 24.5901L79.4418 27.6437V27.6416Z" fill="#6CF479"/>
<path d="M32.8918 16.4995C29.888 16.4995 27.4826 17.6482 25.9392 19.8211C23.8307 22.7916 23.5877 27.2702 25.2744 32.1164C28.4111 41.1173 37.1523 48.4438 44.7655 48.4479C47.7775 48.4479 50.1809 47.2992 51.7243 45.1264C53.8328 42.1559 54.0758 37.6773 52.3891 32.831C49.2524 23.8302 40.5112 16.5036 32.898 16.4995H32.8897H32.8918Z" fill="#C7FFC6"/>
<path d="M49.9687 33.7362C47.8145 27.5501 42.5507 21.9249 36.8694 19.7416C35.2657 19.1226 33.7015 18.8131 32.2267 18.8131C30.6376 18.8131 29.2416 19.1725 28.0888 19.8746C29.4078 18.6075 31.2026 17.9448 33.3526 17.9469C34.8274 17.9469 36.3895 18.2626 37.9953 18.8754C43.6766 21.0607 48.9404 26.6839 51.0946 32.87C52.6193 37.2427 52.4136 41.2663 50.5378 43.9066C50.004 44.6606 49.3434 45.2713 48.5811 45.7387C48.8843 45.4458 49.1606 45.128 49.412 44.7707C51.2898 42.1305 51.4913 38.1068 49.9687 33.7342V33.7362Z" fill="black"/>
<path d="M48.3223 44.1163C47.4041 45.3564 45.9251 45.9941 44.0431 45.9567C43.6858 45.9484 43.314 45.9193 42.9442 45.8653C40.0651 45.4561 36.9367 43.7714 34.1366 41.1167C31.4257 38.6281 29.8013 35.6285 29.8013 35.6285C32.8611 39.2762 34.417 38.9854 35.4868 37.791C40.7007 44.6813 49.4066 45.0926 49.4814 38.2272C49.7473 40.6327 49.3567 42.7224 48.3243 44.1163H48.3202H48.3223Z" fill="white"/>
<path d="M7.34456 30.9444C7.62914 35.9548 4.68149 39.8808 -0.0546875 40.7948C5.11772 41.713 9.92869 45.6348 12.0247 50.6473C11.7401 45.6328 14.6877 41.7109 19.4239 40.7969C14.2515 39.8787 9.44053 35.9568 7.34456 30.9444Z" fill="white"/>
<path d="M44.3682 9C44.4886 11.1541 43.2257 12.843 41.1899 13.2335C43.4126 13.6282 45.4795 15.3128 46.3831 17.469C46.2626 15.3149 47.5256 13.6261 49.5613 13.2356C47.3345 12.8409 45.2676 11.1541 44.3682 9Z" fill="white"/>
<path d="M82.0417 50.2195C82.2618 50.6287 82.6939 50.6973 83.0097 50.367L87.615 45.5685C87.9307 45.2424 88.0097 44.642 87.7895 44.2328C87.5693 43.8236 87.1372 43.755 86.8215 44.0853L82.2161 48.8838C81.9004 49.2099 81.8215 49.8103 82.0417 50.2195Z" fill="#6CF479"/>
<path d="M75.2246 57.3199C75.2246 57.3199 75.8768 57.7976 76.1926 57.4674L80.7979 52.6688C81.1136 52.3427 81.1926 51.7445 80.9724 51.3332C80.7522 50.9239 80.3201 50.8554 80.0044 51.1857L75.399 55.9842C75.0833 56.3103 75.2246 57.3199 75.2246 57.3199Z" fill="#6CF479"/>
<path d="M22.6381 20.7532L26.6991 17.4649C24.7984 19 23.5936 21.3307 23.228 24.1516L19.1919 27.2571C19.5866 24.5151 20.781 22.2592 22.6401 20.7532H22.636H22.6381Z" fill="black"/>
<path d="M19.0502 29.4654L23.1113 26.3412C23.1217 26.9187 23.1653 27.5065 23.2359 28.1089L19.1583 31.2456C19.0897 30.639 19.0523 30.0429 19.0482 29.4675L19.0502 29.4654Z" fill="black"/>
<path d="M71.7012 90.7908C71.7012 75.1905 59.0547 62.5482 43.4606 62.5482C59.061 62.5482 71.7012 49.9017 71.7012 34.3056C71.7012 49.9059 84.3476 62.5482 99.9438 62.5482C84.3434 62.5482 71.7012 75.1946 71.7012 90.7908Z" fill="#6CF479"/>
<path d="M71.701 69.7147C73.8718 61.0026 84.3476 62.5482 99.9438 62.5482C84.3434 62.5482 71.7012 75.1946 71.7012 90.7908" fill="#11B57A"/>
<path d="M71.701 69.7147C69.5303 61.0026 59.0547 62.5482 43.4606 62.5482C59.061 62.5482 71.7012 75.1946 71.7012 90.7908" fill="black"/>
<path d="M90.4304 62.1578C81.1014 62.1578 79.4271 62.8558 75.7981 59.6588C74.6452 58.641 71.0121 54.1354 71.7786 41.6821C72.4994 54.3244 88.1807 62.1703 90.4304 62.1578Z" fill="white"/>
</g>
<defs>
<clipPath id="clip0_15980_13331">
<rect width="100" height="100" fill="white"/>
</clipPath>
</defs>
</svg>
