<svg width="100" height="100" viewBox="0 0 100 100" fill="none" xmlns="http://www.w3.org/2000/svg">
<g clip-path="url(#clip0_15980_13357)">
<rect width="100" height="100" fill="#024731"/>
<path d="M59.4273 85.3312C58.9681 84.7903 58.7129 84.1066 58.7129 83.4024V74.0035H38.8436V83.4024C38.8436 84.1168 38.5986 84.8005 38.1292 85.3312L31.8837 92.6483C31.6081 92.9749 31.455 93.3933 31.455 93.8219V94.4342C31.455 94.9342 31.8633 95.3424 32.3633 95.3424H65.1932C65.6932 95.3424 66.1014 94.9342 66.1014 94.4342V93.8219C66.1014 93.3933 65.9484 92.9749 65.6728 92.6483L59.4273 85.3312Z" fill="#11B67A"/>
<path d="M97.1758 7.79245H2.7172C1.18643 7.79245 -0.0585938 9.03747 -0.0585938 10.5682V69.8294C-0.0585938 71.3602 1.18643 72.6052 2.7172 72.6052H97.1656C98.6964 72.6052 99.9414 71.3602 99.9414 69.8294V10.5784C99.9414 9.04768 98.6964 7.80265 97.1656 7.80265L97.1758 7.79245Z" fill="#11B67A"/>
<path d="M57.0901 85.0151L63.5295 92.3322H40.4251C40.4251 92.3322 56.6207 91.5566 57.0799 85.0151H57.0901Z" fill="white"/>
<path d="M2.7171 6.41612H97.1757C97.6145 6.41612 98.0431 6.49776 98.4411 6.64064C98.3595 5.27315 97.2165 4.19141 95.8388 4.19141H4.05397C2.66608 4.19141 1.53331 5.27315 1.45167 6.64064C1.85987 6.50797 2.27828 6.41612 2.7171 6.41612Z" fill="black"/>
<path d="M4.52321 12.364V68.0432H95.3794V12.364H4.52321Z" fill="black"/>
<path d="M8.17697 15.7655H21.9437C21.9437 15.7655 12.1468 20.5211 8.17697 39.3802V15.7655Z" fill="white"/>
<path d="M38.8533 74.0035V83.4024C38.8533 83.8209 38.7513 84.2393 38.5778 84.6271H45.2519C46.9154 84.6271 48.4563 83.7086 49.2319 82.2289L50.6402 79.5959C51.0076 78.902 51.7322 78.4734 52.5282 78.4734H58.7329V74.0137H38.8635L38.8533 74.0035Z" fill="black"/>
</g>
<defs>
<clipPath id="clip0_15980_13357">
<rect width="100" height="100" fill="white"/>
</clipPath>
</defs>
</svg>
