<svg width="100" height="100" viewBox="0 0 100 100" fill="none" xmlns="http://www.w3.org/2000/svg">
<g clip-path="url(#clip0_15980_13359)">
<rect width="100" height="100" fill="#024731"/>
<path d="M59.4273 85.6515C58.9681 85.1107 58.7129 84.4269 58.7129 83.7228V74.3238H38.8436V83.7228C38.8436 84.4371 38.5986 85.1209 38.1292 85.6515L31.8837 92.9686C31.6081 93.2952 31.455 93.7136 31.455 94.1422V94.7545C31.455 95.2545 31.8633 95.6628 32.3633 95.6628H65.1932C65.6932 95.6628 66.1014 95.2545 66.1014 94.7545V94.1422C66.1014 93.7136 65.9484 93.2952 65.6728 92.9686L59.4273 85.6515Z" fill="#11B67A"/>
<path d="M97.1758 8.11276H2.7172C1.18643 8.11276 -0.0585938 9.35779 -0.0585938 10.8886V70.1497C-0.0585938 71.6805 1.18643 72.9255 2.7172 72.9255H97.1656C98.6964 72.9255 99.9414 71.6805 99.9414 70.1497V10.8988C99.9414 9.36799 98.6964 8.12296 97.1656 8.12296L97.1758 8.11276Z" fill="#11B67A"/>
<path d="M57.0901 85.3354L63.5295 92.6525H40.4251C40.4251 92.6525 56.6207 91.8769 57.0799 85.3354H57.0901Z" fill="white"/>
<path d="M2.7171 6.73644H97.1757C97.6145 6.73644 98.0431 6.81808 98.4411 6.96095C98.3595 5.59346 97.2165 4.51172 95.8388 4.51172H4.05397C2.66608 4.51172 1.53331 5.59346 1.45167 6.96095C1.85987 6.82828 2.27828 6.73644 2.7171 6.73644Z" fill="black"/>
<path d="M4.52321 12.6844V68.3635H95.3794V12.6844H4.52321Z" fill="black"/>
<path d="M8.17697 16.0858H21.9437C21.9437 16.0858 12.1468 20.8414 8.17697 39.7005V16.0858Z" fill="white"/>
<path d="M38.8533 74.3238V83.7228C38.8533 84.1412 38.7513 84.5596 38.5778 84.9474H45.2519C46.9154 84.9474 48.4563 84.0289 49.2319 82.5492L50.6402 79.9162C51.0076 79.2223 51.7322 78.7937 52.5282 78.7937H58.7329V74.334H38.8635L38.8533 74.3238Z" fill="black"/>
</g>
<defs>
<clipPath id="clip0_15980_13359">
<rect width="100" height="100" fill="white"/>
</clipPath>
</defs>
</svg>
