<svg width="100" height="100" viewBox="0 0 100 100" fill="none" xmlns="http://www.w3.org/2000/svg">
<g clip-path="url(#clip0_15980_13371)">
<rect width="100" height="100" fill="#024731"/>
<path d="M16.8492 68.2866C16.7404 74.9705 12.0083 81.7409 6.27851 83.4079C12.0083 81.7409 16.5658 85.8102 16.4571 92.494C16.5658 85.8102 21.2978 79.0397 27.0277 77.3727C21.2978 79.0397 16.7404 74.9705 16.8492 68.2866Z" fill="#6CF479"/>
<path d="M5.36856 12.9557C5.31508 16.3003 2.87913 19.6832 -0.0625 20.517C2.88398 19.6832 5.22271 21.7149 5.16923 25.0595C5.22271 21.7149 7.65866 18.332 10.6003 17.4982C7.65379 18.332 5.31508 16.3003 5.36856 12.9557Z" fill="#6CF479"/>
<path d="M58.543 59.1535C62.5265 53.5246 64.9683 46.4458 64.9365 39.2632C64.8778 26.6234 57.1548 17.855 46.9767 17.855C45.5886 17.855 44.1553 18.0176 42.6902 18.3564C30.4726 21.1753 20.6199 35.1071 20.6879 49.4726C20.7467 62.1169 28.4697 70.8807 38.6523 70.8807C40.0406 70.8807 41.4739 70.7181 42.9388 70.3794L65.0678 65.2747L58.5521 59.1535H58.543Z" fill="#11B57A"/>
<path d="M54.3352 23.3411C54.8446 23.3728 55.3448 23.4317 55.8451 23.4996C55.6739 23.4 55.5117 23.2912 55.3358 23.1961C46.8302 18.7333 36.6298 22.521 30.058 31.2155C27.2363 34.9443 23.6258 42.873 24.2073 47.2498C24.5093 46.2213 25.7848 43.1132 27.908 41.591C30.4726 39.7515 34.2904 40.3496 37.7748 42.4246C36.8868 40.5625 36.4361 38.5282 36.5667 36.4122C37.0444 28.6149 45.0048 22.7611 54.3397 23.3456L54.3352 23.3411Z" fill="white"/>
<path d="M21.2518 42.7927C21.2836 42.6301 21.3241 42.4675 21.3556 42.3095C21.3286 42.436 21.2971 42.5623 21.2701 42.6934C21.261 42.7294 21.2563 42.7612 21.2518 42.7972V42.7927ZM24.1975 29.5882L18.4235 26.9736C18.4235 26.9736 18.41 26.9916 18.4055 27.0007C18.1664 27.3619 17.9318 27.7277 17.7063 28.1025C17.6792 28.1522 17.6476 28.1975 17.616 28.2425C17.6115 28.2515 17.607 28.2605 17.6025 28.265C17.3544 28.6805 17.1108 29.105 16.8807 29.5297C16.8131 29.656 16.7499 29.7825 16.6822 29.9089C16.5198 30.216 16.3574 30.5275 16.2041 30.8391C16.1725 30.9024 16.1409 30.9611 16.1093 31.0242C16.0642 31.1192 16.0236 31.2185 15.9785 31.3133C15.8387 31.6068 15.7033 31.9049 15.568 32.2075C15.4958 32.3701 15.4237 32.5327 15.356 32.6998C15.2207 33.0202 15.0898 33.3409 14.9635 33.666C14.9229 33.7746 14.8733 33.8784 14.8327 33.9867C14.8192 34.0182 14.8102 34.0545 14.7966 34.086C14.6162 34.5738 14.4403 35.0615 14.2824 35.5583C14.2508 35.6576 14.2237 35.7569 14.1922 35.8564C14.0658 36.2581 13.944 36.6646 13.8358 37.071C13.8177 37.1433 13.7907 37.2111 13.7726 37.2834C13.7275 37.455 13.6869 37.6266 13.6418 37.8027C13.6147 37.9155 13.5831 38.0285 13.5561 38.1458C13.4614 38.5388 13.3711 38.9317 13.2899 39.3289C13.2809 39.3652 13.2764 39.4057 13.2674 39.4465C13.1952 39.8032 13.1321 40.1599 13.0689 40.5213C13.0463 40.6476 13.0283 40.7787 13.0102 40.9095C12.9877 41.0586 12.9606 41.2076 12.9381 41.3567C12.92 41.474 12.911 41.5914 12.893 41.7089C12.8704 41.8805 12.8478 42.0476 12.8298 42.2192C12.8027 42.4765 12.7757 42.7339 12.7531 42.9913C12.7396 43.1539 12.7216 43.3165 12.7125 43.4791C12.69 43.7592 12.6764 44.0391 12.6629 44.319C12.6584 44.4591 12.6449 44.5991 12.6403 44.739C12.6268 45.1544 12.6178 45.5654 12.6178 45.9808V45.9989C12.6313 48.6452 12.9787 51.12 13.6147 53.3779C13.6689 53.5675 13.723 53.7573 13.7816 53.9424C15.5319 59.6413 19.1408 63.9045 23.8052 65.9818C20.3993 61.8044 18.3694 56.0332 18.3378 49.3723C18.3062 42.5081 20.3768 35.5447 24.1885 29.5837L24.1975 29.5882ZM22.9436 37.0305C22.8895 37.1703 22.8307 37.3104 22.7767 37.455C22.5963 37.9427 22.4247 38.4302 22.2623 38.9225C22.2308 39.022 22.1993 39.1258 22.1677 39.2251C22.0414 39.6271 21.9241 40.029 21.8112 40.4355C22.3571 38.4485 23.0789 36.5202 23.9496 34.6821C23.8097 34.9757 23.6744 35.2738 23.5435 35.5673C23.4714 35.7298 23.3992 35.8969 23.3271 36.0595C23.1917 36.3802 23.0654 36.7008 22.9391 37.0215L22.9436 37.0305ZM21.0579 43.8358C21.0579 43.8358 21.0534 43.8675 21.0489 43.881C21.0264 44.0074 21.0084 44.1339 20.9903 44.2604C21.0129 44.1204 21.0354 43.9758 21.0579 43.8358ZM20.9361 44.6306C20.9136 44.7752 20.891 44.9243 20.873 45.0686C20.8505 45.2357 20.8325 45.4028 20.8097 45.5699C20.846 45.2537 20.891 44.9423 20.9361 44.6306ZM20.5978 49.3543C20.5978 49.0021 20.6068 48.6497 20.6158 48.2975C20.6023 48.6542 20.5978 49.0066 20.5978 49.3633V49.3543ZM21.5496 56.5797C21.3556 55.8706 21.1933 55.1435 21.0534 54.3984C21.1888 55.1435 21.3556 55.8751 21.5496 56.5797ZM38.9668 19.4366C39.3006 19.2966 39.6343 19.1656 39.9683 19.0392C39.8735 19.0753 39.7742 19.1114 39.6796 19.1475C39.4404 19.2379 39.2013 19.3327 38.9623 19.4366H38.9668ZM37.8029 19.9694C38.1412 19.8024 38.4797 19.6488 38.8224 19.4998C38.7096 19.5495 38.5968 19.5992 38.4887 19.6488C38.2585 19.7527 38.0329 19.8566 37.8074 19.9694H37.8029ZM24.8878 19.7798C24.6216 19.9965 24.3601 20.2133 24.1029 20.4391C24.0216 20.5068 23.9451 20.5791 23.8683 20.6513C23.6518 20.8455 23.4352 21.0397 23.2233 21.2384C23.115 21.3423 23.0111 21.4461 22.903 21.55C22.7224 21.7261 22.5465 21.8977 22.3706 22.0784L22.3616 22.0874L27.9959 24.6389C28.7674 23.7989 29.5703 23.0086 30.4004 22.2725L24.8878 19.7753V19.7798ZM36.6526 20.5701C36.585 20.6062 36.5172 20.6468 36.4452 20.6875C36.7924 20.4888 37.1442 20.2991 37.5007 20.1185C37.4419 20.1501 37.3834 20.1772 37.3248 20.2088C37.0992 20.3262 36.8737 20.4481 36.6526 20.5701ZM32.6378 23.3338C32.6378 23.3338 32.6648 23.3157 32.6739 23.3022C32.6739 23.3022 32.6513 23.3202 32.6378 23.3338ZM30.8785 24.9098C30.838 24.9459 30.8017 24.9866 30.7612 25.0227C31.0139 24.7789 31.2665 24.535 31.5235 24.3002C31.4154 24.3995 31.3026 24.4944 31.1988 24.5982C31.0949 24.7021 30.9868 24.8059 30.8785 24.9098ZM30.1702 25.6233C30.3416 25.4472 30.5175 25.2666 30.6936 25.095C30.5763 25.2079 30.4589 25.3253 30.3416 25.4427C30.2831 25.5014 30.2243 25.5646 30.1657 25.6278L30.1702 25.6233ZM20.6248 48.293C20.6339 47.9859 20.6519 47.6744 20.6654 47.3673C20.6609 47.4711 20.6519 47.5749 20.6474 47.6789C20.6384 47.8188 20.6294 47.9588 20.6248 48.0944V48.293ZM45.4987 17.8109C45.6341 17.8018 45.7649 17.7883 45.9002 17.7838H45.8462C45.7334 17.7883 45.616 17.8018 45.4987 17.8109ZM44.3213 15.3C44.1094 15.2278 43.8928 15.1555 43.6763 15.0923C43.6403 15.0787 43.5995 15.0652 43.5635 15.0562C43.5455 15.0517 43.532 15.0472 43.514 15.0426C43.3741 15.002 43.2297 14.9659 43.0899 14.9297C43.0131 14.9117 42.9365 14.8891 42.8597 14.871C42.6748 14.8259 42.4899 14.7852 42.3003 14.7446C42.2643 14.7355 42.2283 14.7265 42.1922 14.722C41.9666 14.6768 41.7411 14.6362 41.5155 14.6001C41.4524 14.591 41.3891 14.582 41.3306 14.573C41.1637 14.5504 40.9968 14.5233 40.8297 14.5052C40.8162 14.5052 40.8072 14.5052 40.7937 14.5007C40.7577 14.5007 40.7171 14.4962 40.6809 14.4917C40.4554 14.4691 40.2298 14.4465 39.9998 14.433C39.9185 14.4285 39.833 14.424 39.7517 14.4194C39.5352 14.4104 39.3141 14.4014 39.0931 14.3969H38.908C38.6285 14.3969 38.3533 14.4014 38.0691 14.4149C38.0014 14.4149 37.9338 14.424 37.866 14.4285C37.6451 14.442 37.4239 14.4556 37.1985 14.4781C37.1534 14.4781 37.1037 14.4827 37.0586 14.4872C37.0271 14.4872 36.9909 14.4962 36.9593 14.5007C36.6075 14.5368 36.251 14.582 35.8903 14.6407C35.8317 14.6497 35.7684 14.6633 35.7099 14.6723C35.3354 14.7355 34.9565 14.8078 34.573 14.8981H34.5685C34.1625 14.9929 33.7609 15.1013 33.3596 15.2187C33.2243 15.2594 33.0934 15.3046 32.9581 15.3452C32.6919 15.431 32.4257 15.5168 32.1597 15.6116C32.0016 15.6658 31.8483 15.729 31.6949 15.7878C31.4559 15.8781 31.2168 15.9729 30.9778 16.0768C30.8152 16.1445 30.6574 16.2168 30.4995 16.289C30.2695 16.3929 30.0394 16.5012 29.8139 16.6096C29.6561 16.6864 29.498 16.7677 29.3401 16.849C29.1147 16.9664 28.889 17.0883 28.6681 17.2148C28.6048 17.2509 28.5418 17.287 28.4832 17.3186L33.7429 19.6985C36.3594 17.9689 39.1562 16.7271 42.0479 16.0587C43.0539 15.8239 44.0641 15.6748 45.0656 15.5845C44.8897 15.5123 44.7094 15.4445 44.5335 15.3768C44.4612 15.3497 44.3891 15.3271 44.3168 15.3H44.3213ZM46.577 17.7612C46.6761 17.7612 46.7799 17.7567 46.8792 17.7567H46.834C46.7484 17.7567 46.6626 17.7612 46.5725 17.7657L46.577 17.7612ZM42.589 18.2489C42.9861 18.1586 43.3786 18.0818 43.7709 18.0141C43.7484 18.0141 43.7214 18.0231 43.6989 18.0276C43.3334 18.0908 42.9636 18.1631 42.589 18.2489ZM47.4159 17.7702C47.5828 17.7747 47.7499 17.7792 47.9167 17.7928C47.8535 17.7928 47.7949 17.7838 47.7316 17.7838C47.628 17.7792 47.5197 17.7747 47.4159 17.7747V17.7702ZM52.3013 18.6644C52.1615 18.6147 52.0173 18.5695 51.8729 18.5244C52.0443 18.5786 52.2202 18.6328 52.3871 18.696C52.3601 18.6869 52.3285 18.6779 52.3013 18.6644ZM48.3453 17.8244C48.4852 17.838 48.6293 17.847 48.7692 17.8605C48.7331 17.8605 48.6971 17.856 48.6611 17.8515C48.5572 17.8425 48.4489 17.8334 48.3453 17.8244ZM24.3374 62.8657C23.9721 62.3012 23.6293 61.7141 23.3089 61.1046C23.6248 61.7186 23.9721 62.3057 24.3374 62.8657ZM25.5825 31.6295C25.4832 31.7921 25.3931 31.9592 25.2983 32.1262C25.4427 31.8734 25.5916 31.6205 25.7449 31.3721C25.7269 31.4036 25.7044 31.4352 25.6864 31.4669C25.6501 31.521 25.6141 31.5752 25.5825 31.634V31.6295ZM24.6578 33.2778C24.6578 33.2778 24.6396 33.3184 24.6261 33.3364C24.7705 33.061 24.9193 32.7901 25.0727 32.519C25.0006 32.6455 24.9283 32.7674 24.8563 32.8939C24.7885 33.0202 24.7209 33.1468 24.6533 33.2778H24.6578ZM42.553 18.2579H42.5575C42.1515 18.3528 41.7456 18.4611 41.3441 18.5786C41.7456 18.4611 42.147 18.3528 42.553 18.2579ZM24.0579 34.4699C24.2022 34.1763 24.3511 33.8829 24.5 33.5938C24.3962 33.7971 24.2878 34.0002 24.1885 34.2036C24.1435 34.2938 24.1029 34.3841 24.0579 34.4699ZM26.1102 30.7941C26.169 30.7038 26.223 30.618 26.2818 30.5277C26.2275 30.618 26.169 30.7038 26.1147 30.7941H26.1102ZM42.5575 18.2579C42.5575 18.2579 42.5755 18.2579 42.5845 18.2534C42.5755 18.2534 42.5665 18.2534 42.5575 18.2579Z" fill="black"/>
<path d="M74.4324 57.9127C74.4324 43.8251 63.0118 32.4086 48.9282 32.4086C63.0159 32.4086 74.4324 20.9879 74.4324 6.9043C74.4324 20.992 85.853 32.4086 99.9367 32.4086C85.8489 32.4086 74.4324 43.8292 74.4324 57.9127Z" fill="#6CF479"/>
<path d="M74.4332 38.8811C76.393 31.0139 85.853 32.4086 99.9367 32.4086C85.8489 32.4086 74.4324 43.8292 74.4324 57.9127" fill="#11B57A"/>
<path d="M74.4332 38.8811C72.4736 31.0139 63.0118 32.4086 48.9282 32.4086C63.0159 32.4086 74.4324 43.8292 74.4324 57.9127" fill="black"/>
<path d="M91.3465 32.0541C82.9224 32.0541 81.4098 32.6843 78.133 29.7976C77.092 28.8788 73.8111 24.809 74.5021 13.5632C75.1527 24.9798 89.3136 32.0663 91.3465 32.0541Z" fill="white"/>
</g>
<defs>
<clipPath id="clip0_15980_13371">
<rect width="100" height="100" fill="white"/>
</clipPath>
</defs>
</svg>
