<svg width="100" height="100" viewBox="0 0 100 100" fill="none" xmlns="http://www.w3.org/2000/svg">
<g clip-path="url(#clip0_15980_13385)">
<rect width="100" height="100" fill="#024731"/>
<path d="M85.5954 63.2178L84.5651 50.5425V50.5573C84.3797 48.4077 82.5859 46.7621 80.4289 46.7621H50.7864V38.2303H49.1482V46.7621H20.5509C18.3938 46.7621 16.6 48.4077 16.4147 50.5573L15.3177 63.2178L16.9484 63.3587L18.0455 50.6981C18.1567 49.4009 19.2463 48.4003 20.5509 48.4003H49.1482V60.4085H50.7864V48.4003H80.4289C81.7335 48.4003 82.8231 49.4009 82.9343 50.6981L83.9647 63.3512L85.5954 63.2178Z" fill="black"/>
<path d="M59.0583 34.0052H40.8236C39.4894 34.0052 38.422 32.8933 38.4739 31.559L38.8445 22.4565C38.8964 21.1964 39.9341 20.2031 41.1943 20.2031H58.6877C59.9478 20.2031 60.9856 21.1964 61.0375 22.4565L61.4081 31.559C61.46 32.8933 60.3926 34.0052 59.0583 34.0052Z" fill="#6CF479"/>
<path d="M60.5927 71.8163H39.2818C37.9476 71.8163 36.8802 70.7044 36.9321 69.3701L37.4584 56.465C37.5103 55.2049 38.548 54.2116 39.8081 54.2116H60.0664C61.3266 54.2116 62.3643 55.2049 62.4162 56.465L62.9425 69.3701C62.9944 70.7044 61.927 71.8163 60.5927 71.8163Z" fill="#11B67A"/>
<path d="M97.5962 71.8163H76.315C75.0845 71.8163 74.0616 70.8675 73.9727 69.6444L73.0016 56.7393C72.8979 55.3754 73.9801 54.2116 75.344 54.2116H95.5726C96.729 54.2116 97.7148 55.0566 97.8927 56.1982L99.9089 69.1033C100.131 70.5265 99.0269 71.8163 97.5888 71.8163H97.5962Z" fill="#6CF479"/>
<path d="M23.5676 71.8163H2.28633C0.840892 71.8163 -0.256155 70.5265 -0.0337809 69.1033L1.98241 56.1982C2.16031 55.0566 3.14617 54.2116 4.30252 54.2116H24.5312C25.9025 54.2116 26.9773 55.3754 26.8735 56.7393L25.9025 69.6444C25.8135 70.8675 24.7906 71.8163 23.5601 71.8163H23.5676Z" fill="#6CF479"/>
<path d="M49.9638 27.2076C51.63 27.2076 52.9807 26.1125 52.9807 24.7615C52.9807 23.4105 51.63 22.3154 49.9638 22.3154C48.2976 22.3154 46.9469 23.4105 46.9469 24.7615C46.9469 26.1125 48.2976 27.2076 49.9638 27.2076Z" fill="black"/>
<path d="M44.5155 32.4187C44.5155 29.98 46.9542 28.0008 49.9637 28.0008C52.9732 28.0008 55.4119 29.98 55.4119 32.4187" fill="black"/>
<path d="M49.8897 63.1879C52.0963 63.1879 53.8851 61.741 53.8851 59.9561C53.8851 58.1712 52.0963 56.7242 49.8897 56.7242C47.6832 56.7242 45.8944 58.1712 45.8944 59.9561C45.8944 61.741 47.6832 63.1879 49.8897 63.1879Z" fill="black"/>
<path d="M42.6847 70.0888C42.6847 66.8644 45.9091 64.2478 49.8896 64.2478C53.8701 64.2478 57.0946 66.8644 57.0946 70.0888" fill="black"/>
<path d="M89.7465 59.9858C89.9096 61.7648 88.2121 63.2102 85.9587 63.2102C83.7053 63.2102 81.7484 61.7648 81.5853 59.9858C81.4223 58.2068 83.1197 56.7614 85.3731 56.7614C87.6265 56.7614 89.5834 58.2068 89.7465 59.9858Z" fill="black"/>
<path d="M79.2133 70.089C78.9242 66.8719 81.9856 64.2627 86.055 64.2627C90.1245 64.2627 93.6528 66.8719 93.9493 70.089" fill="black"/>
<path d="M9.72081 59.9561C9.55773 61.7425 11.2626 63.1879 13.516 63.1879C15.7768 63.1879 17.7337 61.7425 17.8968 59.9561C18.0598 58.1697 16.355 56.7242 14.1016 56.7242C11.8408 56.7242 9.88388 58.1697 9.72081 59.9561Z" fill="black"/>
<path d="M20.2764 70.0888C20.5655 66.8644 17.4967 64.2478 13.4198 64.2478C9.34298 64.2478 5.79981 66.8644 5.51073 70.0888" fill="black"/>
<path d="M30.2395 64.9373C30.2692 64.4333 30.1654 63.9514 29.9578 63.5512L27.6081 57.9622L26.8965 67.4279L29.602 74.3215" fill="black"/>
<path d="M26.7262 69.7035C26.6002 71.3565 25.2215 72.6389 23.5685 72.6389H2.2873C2.17611 72.6389 2.07234 72.6389 1.96115 72.6241L7.52051 78.9098C7.8689 79.5696 8.49896 80.0217 9.22538 80.0217H27.4082C28.4608 80.0217 29.3354 79.0729 29.4096 77.8499L29.4911 76.5527" fill="black"/>
<path d="M70.2747 74.3291L72.9877 67.4133L72.2687 57.8808L69.7632 63.8331L69.8003 63.8553C69.6817 64.1889 69.6224 64.5521 69.6446 64.9375" fill="black"/>
<path d="M73.1432 69.7037L70.3857 76.5232L70.4673 77.8426C70.5488 79.0657 71.416 80.0145 72.4686 80.0145H90.6514C91.3779 80.0145 92.0005 79.5623 92.3563 78.9026L97.9157 72.6168C97.8119 72.6242 97.7007 72.6316 97.5895 72.6316H76.3083C74.6479 72.6316 73.2692 71.3567 73.1506 69.6963" fill="black"/>
<path d="M42.129 72.6393L43.1222 80.0221H43.9376L43.1222 72.6393H42.129Z" fill="black"/>
<path d="M39.2827 72.6391C38.6674 72.6391 38.0967 72.4612 37.6149 72.1573L38.8305 77.5684C38.8157 78.0651 38.9269 78.5172 39.1344 78.9027C39.4902 79.5698 40.1203 80.0145 40.8393 80.0145H42.2254L41.1432 72.6317H39.2901L39.2827 72.6391Z" fill="black"/>
<path d="M60.594 72.6391H45.48L46.199 80.022H59.0374C59.7638 80.022 60.3864 79.5772 60.7422 78.9101C60.9424 78.5321 61.0536 78.0799 61.0462 77.6055L62.3063 72.1351C61.8097 72.4538 61.2241 72.6391 60.594 72.6391Z" fill="black"/>
<path d="M40.8241 34.8281C40.1496 34.8281 39.5195 34.6131 39.0007 34.2499L40.1422 39.7648C40.0977 41.0991 41.0095 42.2109 42.151 42.2109H42.2177L41.1355 34.8281H40.8167H40.8241Z" fill="black"/>
<path d="M59.0588 34.8281H45.4866L46.2056 42.211H57.732C58.8735 42.211 59.7853 41.0991 59.7408 39.7648L60.7859 34.3167C60.2893 34.6354 59.6963 34.8281 59.0588 34.8281Z" fill="black"/>
<path d="M42.1286 34.828L43.1219 42.2108H43.9373L43.1219 34.828H42.1286Z" fill="black"/>
</g>
<defs>
<clipPath id="clip0_15980_13385">
<rect width="100" height="100" fill="white"/>
</clipPath>
</defs>
</svg>
