<svg width="100" height="100" viewBox="0 0 100 100" fill="none" xmlns="http://www.w3.org/2000/svg">
<g clip-path="url(#clip0_15980_13401)">
<rect width="100" height="100" fill="#024731"/>
<path d="M45.7861 10.8472L44.721 18.4415C45.9991 18.2945 47.3066 18.1181 48.6728 17.9122C50.6194 17.6108 52.5218 17.2653 54.3655 16.8756C53.3372 14.3908 52.3749 12.075 51.5082 10.0018C50.7736 10.1268 50.0317 10.2517 49.2825 10.3694C48.1072 10.5532 46.9393 10.7075 45.7787 10.8472H45.7861Z" fill="#6CF479"/>
<path d="M44.1407 22.6042L43.0756 30.1911C44.8532 30.0147 46.7189 29.7868 48.6728 29.4854C52.1986 28.9413 55.5849 28.2429 58.7361 27.4122C57.7885 25.1185 56.8556 22.8688 55.9521 20.7001C53.7999 21.1779 51.5669 21.5896 49.2898 21.9425C47.5563 22.2072 45.8301 22.4277 44.1407 22.6042Z" fill="#6CF479"/>
<path d="M42.4953 34.3371L41.4302 41.9167C43.6926 41.7329 46.1019 41.4609 48.6728 41.0639C53.8513 40.2699 58.7581 39.123 63.0038 37.7336C62.1076 35.5648 61.2041 33.3814 60.308 31.2126C56.863 32.1463 53.1462 32.9329 49.2898 33.521C46.9907 33.8739 44.7136 34.1459 42.4953 34.3371Z" fill="#6CF479"/>
<path d="M48.673 6.34843C49.0843 6.28227 49.4957 6.2161 49.907 6.14994C48.3057 2.29764 47.3214 -0.0696036 47.3214 -0.0696036L46.3739 6.67191C47.1304 6.56898 47.887 6.46606 48.673 6.34843Z" fill="#6CF479"/>
<path d="M44.06 11.0401C43.5825 11.0916 43.1124 11.1357 42.6423 11.1724C41.6654 13.5176 40.5856 16.1275 39.4324 18.9064C40.2036 18.8623 40.9969 18.8035 41.8049 18.7373L44.06 11.0401Z" fill="#6CF479"/>
<path d="M37.1407 34.6534C36.3621 34.6754 35.5835 34.6901 34.8269 34.6901C34.1731 34.6901 33.5341 34.6828 32.9097 34.6607C31.8887 37.1309 30.8677 39.5937 29.8761 42.0051C31.4039 42.13 33.086 42.1962 34.9297 42.1962L37.1407 34.646V34.6534Z" fill="#6CF479"/>
<path d="M38.3453 30.5438L40.5856 22.9127C39.6161 22.9789 38.6538 23.0303 37.7136 23.0598C36.6926 25.5152 35.6422 28.0589 34.5771 30.6246C35.767 30.6246 37.0231 30.6026 38.3453 30.5438Z" fill="#6CF479"/>
<path d="M33.7396 46.2476C31.8077 46.2182 29.9714 46.1153 28.2599 45.9315C27.2462 48.3943 26.2766 50.7615 25.3658 52.9817C27.0699 53.3199 29.1413 53.5772 31.558 53.6949L33.7396 46.2476Z" fill="#6CF479"/>
<path d="M47.3214 -0.0696036C47.3214 -0.0696036 46.2049 2.61455 44.4199 6.90794C44.7137 6.87118 45.0076 6.84178 45.3087 6.80502L47.3287 -0.0761719L47.3214 -0.0696036Z" fill="#6CF479"/>
<path d="M73.2434 72.1614C73.1552 72.2422 73.0598 72.3157 72.9643 72.3893C73.0157 73.8522 72.8247 75.4329 72.0755 76.8003C71.0985 78.5941 69.2842 79.7557 66.6839 80.2556C65.9861 80.3879 65.3985 80.6232 64.8549 80.8952C65.2663 80.7702 65.6996 80.6673 66.1918 80.6232C68.8214 80.3879 70.7459 79.4101 71.8992 77.7266C73.0377 76.0651 73.2948 73.9478 73.2434 72.1614Z" fill="black"/>
<path d="M21.7519 85.3413C21.9943 85.0031 22.3028 84.4297 22.5525 83.9151C22.435 83.8636 22.3248 83.8121 22.2073 83.7607C21.5535 83.4593 20.8778 83.1505 20.224 82.7903C19.607 82.4521 19.3572 81.4743 19.3499 80.2025C19.1589 80.0775 18.9679 79.9672 18.777 79.8349C18.3215 79.5187 18.013 79.0776 17.8 78.5704C17.5576 80.967 17.8 83.3196 19.4307 84.2165C20.1359 84.6061 20.8778 84.9443 21.5242 85.2384C21.5976 85.2678 21.6711 85.3045 21.7372 85.3339L21.7519 85.3413Z" fill="black"/>
<path d="M57.2453 84.1155C54.8213 83.895 53.2715 85.8799 51.8979 87.637C51.8832 87.659 51.8611 87.6811 51.8464 87.7031C51.8244 87.7326 51.8097 87.762 51.7877 87.7914C50.8842 89.2176 50.2598 90.1513 49.6648 90.0042C49.6355 89.9969 49.5987 89.9895 49.562 89.9822C49.0111 90.291 48.4088 90.3939 47.733 90.1586C47.1086 89.9381 46.1758 89.7249 45.096 89.5484C41.291 89.4235 36.5753 89.7322 35.3192 91.0776C29.2005 97.6353 27.3641 98.7969 24.7344 97.7676C23.7355 97.378 23.3829 96.6134 23.28 95.9371C22.854 95.7753 22.4647 95.5621 21.9579 95.3048C21.7008 95.1725 21.4731 95.0328 21.2527 94.8784C21.2086 95.2533 21.1793 95.6062 21.1939 95.9003C21.2454 97.3192 22.3472 98.5837 24.1468 99.2821C25.3 99.7305 25.8509 100.047 27.511 99.8776C30.2949 99.5982 33.3139 95.4298 36.4798 92.2097C37.6624 91.0041 46.4255 90.8864 49.2755 91.5775C51.0311 92.0039 52.1109 90.2983 53.1539 88.6515C54.3439 86.7695 55.6881 84.6375 58.1194 84.6154C61.5351 84.5787 63.2465 83.6156 64.6201 82.8363C64.8993 82.6819 65.1637 82.5349 65.4281 82.3952C64.8993 82.5423 64.4071 82.7481 63.8709 82.9834C62.4239 83.6156 60.6242 84.4096 57.2306 84.1008L57.2453 84.1155Z" fill="black"/>
<path d="M21.6711 92.8123C21.8548 93.2093 22.178 93.5769 22.7142 93.8562C22.9272 93.9665 23.1402 94.0547 23.3459 94.1282C23.4928 92.9299 23.8748 91.3713 24.7562 89.6437C25.2557 88.6659 25.7111 87.1588 25.5642 86.431C25.4173 85.7032 24.8664 85.1739 24.1025 84.7107C23.9262 85.093 23.7278 85.4606 23.5295 85.7693C23.4487 85.8943 23.3826 86.012 23.3092 86.1369C23.6691 86.3575 23.9262 86.5633 23.9629 86.7471C23.9849 86.8721 23.1623 89.232 22.7583 89.6584C22.5599 89.8642 22.0531 91.2905 21.6711 92.8123Z" fill="black"/>
<path d="M20.6283 73.3385L22.6923 73.1327C21.9798 72.6695 21.3701 72.1843 20.8707 71.677L20.048 71.7579C19.1518 74.4633 18.6523 77.2643 19.4897 78.2862C19.7027 76.6615 20.1361 74.8677 20.6283 73.3385Z" fill="black"/>
<path d="M68.6893 51.5547C69.5561 53.6646 70.3641 55.6495 71.106 57.4728C71.6643 58.8402 72.1784 60.112 72.6485 61.2736C73.53 63.4644 74.2425 65.2362 74.7126 66.4565C75.146 67.5667 75.381 68.221 75.381 68.3165C75.381 67.7725 85.4076 39.1376 85.4076 39.1376L66.4563 46.1364C66.684 46.6878 66.9118 47.2392 67.1321 47.7832C67.661 49.0771 68.1825 50.3343 68.682 51.5547H68.6893Z" fill="black"/>
<path d="M66.4637 46.137C65.8394 44.6226 65.2077 43.0787 64.5539 41.5128C60.0218 43.0199 54.7918 44.255 49.2828 45.1004C46.4107 45.5415 43.5754 45.8577 40.8429 46.0488L39.7778 53.6211C42.4956 53.452 45.4558 53.1432 48.6584 52.6506C50.1716 52.4154 51.6553 52.1581 53.1097 51.8714C58.3617 50.8274 63.1877 49.4306 67.1322 47.7985C66.9118 47.2545 66.6841 46.7031 66.4564 46.1517L66.4637 46.137Z" fill="#6CF479"/>
<path d="M27.0995 57.3698C25.9022 57.2154 24.815 57.0169 23.8014 56.789C22.7877 59.2739 21.8989 61.4647 21.1864 63.2511C22.2662 63.7952 23.9115 64.2951 26.0711 64.6774C26.7469 64.795 27.4667 64.8979 28.2454 64.9935L30.3902 57.6859C29.2517 57.6124 28.1499 57.5095 27.1068 57.3698H27.0995Z" fill="#6CF479"/>
<path d="M40.8427 57.6107C40.5562 57.7503 39.212 57.7136 39.212 57.7136L39.1092 58.434L38.1469 65.2785C41.2908 65.1388 44.8092 64.808 48.6656 64.2198C56.4958 63.0215 63.7017 61.0145 68.9463 58.5811C69.7543 58.2061 70.4595 57.8386 71.1059 57.4857C70.364 55.6625 69.5486 53.6775 68.6892 51.5676C63.3491 53.7657 56.5619 55.5669 49.2899 56.677C46.4105 57.1181 43.5825 57.4342 40.8427 57.6254V57.6107Z" fill="#6CF479"/>
<path d="M74.7568 70.434C74.6687 70.581 74.5805 70.7207 74.4703 70.8604C74.1398 71.3089 73.7282 71.7423 73.2434 72.1614C73.2875 73.9478 73.0377 76.0578 71.8992 77.7266C70.7459 79.4101 68.8214 80.3879 66.1918 80.6232C65.707 80.6673 65.2663 80.7702 64.8549 80.8952C64.2746 81.0716 63.746 81.2925 63.2392 81.513C61.8289 82.1306 60.3745 82.7701 57.3996 82.4981C54.1015 82.1967 52.0888 84.7625 50.6197 86.6371C49.5767 87.9678 48.8642 88.828 48.2912 88.6295C45.8232 87.7546 36.0097 86.424 33.9162 88.2619C27.746 93.6727 25.5938 94.9372 23.3535 94.1359C23.1405 94.0624 22.9348 93.9741 22.7218 93.8639C22.1856 93.5919 21.8697 93.2169 21.6787 92.8199C21.4804 92.4009 21.4363 91.9524 21.4584 91.5775C21.5318 90.4821 21.9358 88.4383 23.3241 86.1372C23.3975 86.0123 23.4637 85.8946 23.5445 85.7697C23.7428 85.4609 23.9411 85.0933 24.1174 84.711C24.47 83.9538 24.7197 83.1451 24.6757 82.6525C24.5508 81.3807 23.1845 80.5867 21.6053 79.6604C20.9809 79.3001 20.3418 78.9252 19.7248 78.4988C19.644 78.44 19.5706 78.3665 19.5045 78.2856C18.6744 77.2637 19.1666 74.4627 20.0627 71.7573C20.1435 71.5147 20.2243 71.2721 20.3125 71.0295C19.8056 70.3825 19.4751 69.7135 19.3429 69.0298C18.388 71.3088 16.7352 75.9772 17.8224 78.5723C18.0354 79.087 18.3439 79.5207 18.7993 79.8368C18.9903 79.9692 19.1813 80.0868 19.3723 80.2044C19.857 80.5132 20.3418 80.8073 20.7826 81.0646C21.7742 81.6453 23.0082 82.3658 23.0523 82.8069C23.0523 82.8657 22.8466 83.3583 22.5675 83.917C22.3104 84.4316 22.0019 85.0051 21.7669 85.3432C21.6934 85.4535 21.62 85.5344 21.5612 85.5859C21.1866 85.9093 19.5118 89.7543 19.3869 91.6437C19.3061 92.8493 20.0113 94.0183 21.2821 94.8858C21.5024 95.0328 21.7375 95.1798 21.9872 95.3122C22.4941 95.5695 22.8834 95.79 23.3094 95.9444C23.8089 96.1282 24.3745 96.2385 25.278 96.2385C28.0766 96.2385 31.4922 92.3935 34.9666 89.5043C35.9729 88.6662 41.4232 88.9309 45.1253 89.5484C46.2051 89.7249 47.138 89.9381 47.7624 90.1586C48.4308 90.3939 49.0331 90.2909 49.5914 89.9822C50.4287 89.519 51.1559 88.6074 51.8685 87.6958C51.8831 87.6737 51.9052 87.6517 51.9199 87.6296C53.2935 85.8726 54.8434 83.8876 57.2673 84.1082C60.6683 84.4169 62.4679 83.6303 63.9076 82.9907C64.4438 82.7554 64.936 82.5496 65.4648 82.4026C65.7513 82.3217 66.0378 82.2629 66.3536 82.2335C69.4975 81.9468 71.8186 80.7411 73.2584 78.6311C75.0433 76.0213 75.0433 72.6469 74.7715 70.4266L74.7568 70.434Z" fill="#6CF479"/>
<path d="M20.8411 67.5007C20.775 67.4787 20.7089 67.4566 20.6501 67.4272C20.3196 67.2949 20.0037 67.1625 19.7025 67.0229C19.4087 67.7874 19.2545 68.2359 19.2545 68.3094C19.2545 68.552 19.2839 68.7873 19.3353 69.0225C19.4748 69.7136 19.8054 70.3826 20.3049 71.0222C20.4738 71.2427 20.6648 71.4559 20.8705 71.6618C21.37 72.169 21.9796 72.6543 22.6921 73.1174C23.4854 73.632 24.4036 74.1172 25.4246 74.5731L26.4383 71.0957L27.0186 69.1107L27.07 68.9269C24.5873 68.6035 22.5085 68.1183 20.8264 67.4787L20.8411 67.5007Z" fill="#6CF479"/>
<path d="M72.6558 61.2714C72.0315 61.6022 71.3777 61.933 70.6726 62.2639C66.067 64.4032 60.0878 66.2191 53.5357 67.4983C52.1474 67.7703 50.7297 68.0202 49.2973 68.2334C46.6897 68.6304 44.1188 68.9318 41.6214 69.123C40.2478 69.2333 38.9035 69.3068 37.5887 69.3509L37.5006 69.9978L37.2655 71.6593L36.531 76.8937C40.0788 76.8129 44.1408 76.4747 48.6803 75.7763C56.5106 74.5779 63.7164 72.5709 68.9611 70.1375C69.7029 69.792 70.364 69.4538 70.9664 69.123C71.4438 68.8657 71.8772 68.6084 72.2739 68.3584C72.7513 68.057 73.1627 67.7703 73.5299 67.4909C73.5813 67.4542 73.6254 67.4174 73.6695 67.3806C74.0955 67.0498 74.4481 66.7337 74.7272 66.447C74.2498 65.2266 73.5446 63.4475 72.6632 61.264L72.6558 61.2714Z" fill="#6CF479"/>
<path d="M36.4209 77.5566C36.4209 77.5566 36.3768 77.5567 36.3181 77.5419C36.3548 77.5419 36.3915 77.5566 36.4209 77.5566Z" fill="black"/>
<path d="M35.9801 77.4826C35.3778 77.387 34.2172 77.1811 32.8583 76.9018C33.8573 77.115 34.9003 77.3061 35.9801 77.4826Z" fill="black"/>
<path d="M32.7629 76.8885C32.7629 76.8885 32.7703 76.8885 32.7776 76.8885C32.7776 76.8885 32.7703 76.8885 32.7629 76.8885Z" fill="black"/>
<path d="M73.6989 67.5014C73.6842 67.4646 73.6769 67.4278 73.6622 67.3911C73.6181 67.4278 73.5667 67.4646 73.5226 67.5014H73.6989Z" fill="black"/>
<path d="M74.7199 66.4556C74.4408 66.7423 74.0882 67.0584 73.6621 67.3893C73.6768 67.426 73.6842 67.4628 73.6989 67.4995H73.5226C73.1553 67.7789 72.744 68.0656 72.2665 68.367C71.8699 68.617 71.4365 68.8743 70.959 69.1316C70.3567 69.4624 69.6956 69.8006 68.9537 70.1461C63.7091 72.5796 56.5032 74.5866 48.673 75.7849C44.1335 76.4833 40.0715 76.8215 36.5236 76.9024L36.4281 77.5567C39.7777 78.0639 43.4577 78.336 47.3214 78.336C53.8368 78.336 59.8307 77.542 64.5979 76.2113C67.2349 75.4761 69.4899 74.5792 71.2528 73.5573C71.8919 73.1824 72.4648 72.7928 72.9717 72.3884C73.0672 72.3149 73.1627 72.234 73.2508 72.1605C73.7429 71.7415 74.1543 71.3077 74.4775 70.8593C74.5803 70.7196 74.6758 70.5726 74.764 70.4329C75.1753 69.7492 75.3957 69.0434 75.3957 68.3156C75.3957 68.2274 75.1533 67.5657 74.7272 66.4556H74.7199Z" fill="#17B17C"/>
<path d="M21.1864 63.2579C20.54 64.8679 20.0332 66.1545 19.7026 67.0293C20.0038 67.169 20.3196 67.3014 20.6502 67.4337C20.709 67.4557 20.7751 67.4778 20.8412 67.5072C22.5233 68.1395 24.602 68.6247 27.0848 68.9555L27.5108 67.5072L28.2454 65.0003C27.4741 64.9121 26.7469 64.8018 26.0711 64.6842C23.9116 64.3092 22.2662 63.8019 21.1864 63.2579Z" fill="#17B17C"/>
<path d="M38.1544 65.2654L37.8385 67.4929L37.6108 69.125L37.5814 69.3529C38.8962 69.3088 40.2405 69.2353 41.6141 69.125C44.1115 68.9265 46.6824 68.6324 49.29 68.2354C50.7224 68.0149 52.1401 67.7649 53.5283 67.5003C60.0805 66.2211 66.0597 64.4052 70.6652 62.2659C71.3704 61.935 72.0315 61.6044 72.6485 61.2736C72.1784 60.112 71.6643 58.8402 71.106 57.4728C70.4669 57.833 69.7544 58.193 68.9464 58.568C63.7018 61.0014 56.4959 63.0084 48.6657 64.2067C44.8093 64.7948 41.2982 65.133 38.147 65.2654H38.1544Z" fill="#17B17C"/>
<path d="M48.6732 52.6354C45.4706 53.1279 42.5104 53.4367 39.7926 53.6058L39.2196 57.708C39.7559 57.6786 40.2994 57.6492 40.8503 57.6051C43.5828 57.414 46.4182 57.0978 49.2976 56.6567C56.5696 55.5393 63.3567 53.7455 68.6969 51.5473C68.1974 50.3269 67.6832 49.0698 67.147 47.7759C63.2025 49.4006 58.3765 50.8048 53.1246 51.8487C51.6702 52.1354 50.1864 52.4001 48.6732 52.628V52.6354Z" fill="#17B17C"/>
<path d="M23.8014 56.7957C24.815 57.0236 25.9095 57.2221 27.0995 57.3765C28.1425 57.5162 29.2443 57.6118 30.3829 57.6926L31.5508 53.7007C29.1341 53.5757 27.0627 53.3184 25.3586 52.9876C24.815 54.3182 24.2935 55.5974 23.8014 56.8031V56.7957Z" fill="#17B17C"/>
<path d="M41.4304 41.9157L40.8501 46.0327C43.5826 45.8415 46.4106 45.5254 49.2901 45.0843C54.7991 44.2388 60.0291 43.0038 64.5612 41.4967C64.047 40.2469 63.5255 38.9897 63.004 37.7179C58.7583 39.1074 53.8589 40.2542 48.673 41.0482C46.1021 41.4452 43.6928 41.7172 41.4304 41.901V41.9157Z" fill="#17B17C"/>
<path d="M28.2601 45.9296C29.9716 46.1134 31.8079 46.2164 33.7398 46.2458L34.9297 42.195C33.086 42.195 31.4039 42.1288 29.8761 42.0038C29.3252 43.3345 28.7889 44.6431 28.2601 45.9296Z" fill="#17B17C"/>
<path d="M60.3082 31.2111C59.7793 29.9392 59.2578 28.6674 58.7362 27.4176C55.5924 28.2484 52.1988 28.9541 48.673 29.4908C46.7191 29.7922 44.8534 30.0201 43.0758 30.1966L42.4955 34.3356C44.7138 34.1444 46.9909 33.8724 49.29 33.5195C53.1464 32.9314 56.8631 32.1448 60.3082 31.2111Z" fill="#17B17C"/>
<path d="M37.1407 34.6521L38.3453 30.5425C37.0232 30.6013 35.7671 30.6307 34.5771 30.6234C34.0189 31.9614 33.468 33.3141 32.9097 34.6595C33.5414 34.6742 34.1805 34.6889 34.8269 34.6889C35.5835 34.6889 36.3547 34.6742 37.1407 34.6521Z" fill="#17B17C"/>
<path d="M41.805 18.7429C40.997 18.809 40.2037 18.8678 39.4324 18.912C38.8742 20.2573 38.3012 21.6394 37.7136 23.0583C38.6538 23.0216 39.6161 22.9775 40.5857 22.9113L41.805 18.7429Z" fill="#17B17C"/>
<path d="M44.7212 18.4511L44.1409 22.6122C45.8377 22.4357 47.5565 22.2152 49.29 21.9505C51.5671 21.5976 53.8001 21.1859 55.9523 20.7081C55.4088 19.3995 54.8799 18.1203 54.3657 16.8852C52.522 17.2748 50.6122 17.6277 48.673 17.9218C47.3141 18.1276 45.9993 18.3041 44.7212 18.4511Z" fill="#17B17C"/>
<path d="M45.3013 6.81054C45.0002 6.8473 44.7063 6.87671 44.4125 6.91347C43.8763 8.20001 43.2813 9.6336 42.6423 11.1775C43.1124 11.1333 43.5825 11.0892 44.0599 11.0451L45.3013 6.81054Z" fill="#17B17C"/>
<path d="M51.5083 10.01C50.928 8.60587 50.3845 7.3115 49.907 6.14994C49.4957 6.2161 49.0843 6.28227 48.673 6.34843C47.8944 6.46606 47.1304 6.57633 46.3739 6.67191L45.7862 10.8481C46.9468 10.7085 48.1147 10.5541 49.29 10.3703C50.0392 10.2526 50.7738 10.135 51.5157 10.0027L51.5083 10.01Z" fill="#17B17C"/>
<path d="M32.8582 76.9032C32.8582 76.9032 32.7997 76.8885 32.7776 76.8885C32.807 76.8885 32.8289 76.9032 32.8582 76.9032Z" fill="white"/>
<path d="M36.3179 77.5338C36.2077 77.5191 36.0975 77.497 35.9874 77.4823C36.1343 77.5044 36.2444 77.5264 36.3179 77.5338Z" fill="white"/>
<path d="M36.4282 77.5553C36.4282 77.5553 36.4282 77.5553 36.4207 77.5553H36.4282Z" fill="white"/>
<path d="M45.3013 6.81054L44.0599 11.0451L27.511 67.5059L27.085 68.9541L27.0335 69.1379L26.4533 71.1229L25.4396 74.6003C26.9234 75.5486 30.1847 76.3647 32.7703 76.9013C32.7703 76.9013 32.7777 76.9013 32.785 76.9013C32.8144 76.9013 32.8438 76.916 32.8658 76.916C34.2247 77.1954 35.3853 77.3939 35.9876 77.4968C36.0978 77.5115 36.208 77.5336 36.3182 77.5483C36.3769 77.5556 36.4137 77.563 36.421 77.563C36.421 77.563 36.421 77.563 36.4284 77.563L36.5238 76.9087L37.2584 71.6743L37.4934 70.0128L37.5816 69.3658L37.611 69.1379L37.8387 67.5059L38.1545 65.2783L39.1168 58.4339L39.2196 57.7134L47.329 -0.0562681L45.309 6.82492L45.3013 6.81054Z" fill="#C7FFC6"/>
<path d="M66.3462 9.18724C65.1856 6.25391 66.6841 4.57772 66.6841 4.57772L63.9516 4.07045H63.9443C63.9443 4.07045 62.6662 6.30537 63.6872 9.17253C64.7082 12.0397 63.3199 14.1496 63.3199 14.1496L65.9569 14.701C65.9569 14.701 67.8153 12.8851 66.3462 9.18724Z" fill="white"/>
<path d="M16.2428 29.257C18.6594 31.0949 18.6594 33.6239 18.6594 33.6239L21.1716 32.6388C21.1716 32.6388 21.7298 30.1024 18.4758 27.8087C15.8975 25.9928 16.2354 23.7653 16.2354 23.7653L13.6719 24.8386C13.6719 24.8386 13.8261 27.4117 16.2428 29.257Z" fill="#17B17C"/>
<path d="M78.5544 32.4486C74.6907 27.5303 78.4956 25.4571 78.4956 25.4571C67.3012 23.0678 64.0986 29.7799 64.0986 29.7799C72.4356 25.9056 78.5544 32.456 78.5544 32.456V32.4486Z" fill="#6CF479"/>
</g>
<defs>
<clipPath id="clip0_15980_13401">
<rect width="100" height="100" fill="white"/>
</clipPath>
</defs>
</svg>
