<svg width="100" height="100" viewBox="0 0 100 100" fill="none" xmlns="http://www.w3.org/2000/svg">
<g clip-path="url(#clip0_15980_13415)">
<rect width="100" height="100" fill="#024731"/>
<path d="M93.5462 82.9654L77.5253 46.6439C77.1606 45.814 76.267 45.2395 75.4099 45.2395C75.2914 45.2395 75.1819 45.2486 75.0634 45.276L5.65503 59.9305C4.69761 60.122 4.26905 61.043 4.68849 61.9914L20.8826 98.5956C21.2473 99.4255 22.15 100 23.0071 100C23.1257 100 23.2533 99.9909 23.3719 99.9635L92.6161 85.0081C93.5553 84.8166 93.9747 83.8956 93.5644 82.9563L93.5462 82.9654Z" fill="black"/>
<path d="M93.5444 81.8077L77.5236 45.4862C77.1588 44.6563 76.2652 44.0818 75.4081 44.0818C75.2896 44.0818 75.1802 44.0909 75.0616 44.1183L5.65325 58.7819C4.69583 58.9734 4.26727 59.8944 4.68671 60.8428L20.8808 97.4471C21.2455 98.2769 22.1482 98.8514 23.0053 98.8514C23.1239 98.8514 23.2515 98.8423 23.3701 98.8149L92.6143 83.8595C93.5535 83.668 93.9729 82.747 93.5626 81.8077H93.5444Z" fill="#11B67A"/>
<path d="M18.1283 91.2356L90.7828 75.5507L87.3908 67.845L14.7181 83.53L18.1283 91.2356Z" fill="black"/>
<path d="M87.8186 19.542C87.8186 19.542 90.2258 27.5304 100.001 29.7373C100.001 29.7373 92.5966 31.0139 92.4507 39.9051C92.4507 39.9051 89.8428 32.1994 80.4784 29.7281C80.4784 29.7281 88.3018 28.798 87.8186 19.542Z" fill="white"/>
<path d="M5.33481 33.6696C5.33481 33.6696 7.08552 39.4785 14.1978 41.0926C14.1978 41.0926 8.80887 42.0227 8.70857 48.4882C8.70857 48.4882 6.81197 42.8799 0.000610352 41.0835C0.000610352 41.0835 5.69954 40.4086 5.34392 33.6696H5.33481Z" fill="white"/>
<path d="M43.9967 73.2453C43.9967 73.2453 45.7474 79.0542 52.8597 80.6683C52.8597 80.6683 47.4707 81.5984 47.3704 88.0639C47.3704 88.0639 45.4738 82.4556 38.6625 80.6591C38.6625 80.6591 44.3614 79.9843 44.0058 73.2453H43.9967Z" fill="white"/>
<path d="M78.5539 39.5224C77.2774 37.352 75.5175 35.6285 73.3018 34.3518C71.0769 33.0751 68.6332 32.4368 65.9616 32.4368C63.2899 32.4368 60.755 33.0751 58.5393 34.3518C56.3144 35.6285 54.5455 37.3611 53.2416 39.5224C51.9377 41.6927 51.2811 44.0546 51.2811 46.6171C51.2811 47.4652 51.3541 48.295 51.5 49.0975L37.5672 52.043L79.949 5.89097L78.636 1.23108H69.5451L26.5888 54.3592L5.65325 58.7819C4.69583 58.9734 4.26727 59.8944 4.68671 60.8428L7.36749 66.8981L30.5462 67.0166L31.8227 63.2686L43.0109 62.8674C55.6488 69.3876 66.7002 68.3207 66.7002 68.3207C61.4936 65.211 58.3205 61.1621 56.3783 57.4233C57.053 57.9887 57.7551 58.5176 58.5484 58.9644C60.7733 60.2411 63.2534 60.8794 65.9707 60.8794C68.6879 60.8794 71.0861 60.2411 73.3109 58.9644C75.5358 57.6877 77.2865 55.9642 78.563 53.7938C79.8396 51.6235 80.4779 49.2343 80.4779 46.6171C80.4779 43.9999 79.8396 41.6927 78.563 39.5224H78.5539ZM70.8763 51.66C69.5359 52.9731 67.9038 53.6206 65.9525 53.6206C64.0011 53.6206 62.2687 52.9549 60.9009 51.6144C59.5332 50.283 58.8584 48.6142 58.8584 46.608C58.8584 44.6017 59.5332 42.9694 60.9009 41.6836C62.2596 40.4069 63.9464 39.7686 65.9525 39.7686C67.9585 39.7686 69.5359 40.4069 70.8763 41.6836C72.2076 42.9603 72.8732 44.6017 72.8732 46.608C72.8732 48.6142 72.2076 50.3468 70.8763 51.66ZM27.3274 26.5094C29.5523 27.786 32.0324 28.4244 34.7497 28.4244C37.4669 28.4244 39.9471 27.786 42.172 26.5094C44.3968 25.2327 46.1475 23.4909 47.4241 21.2932C48.7007 19.0955 49.3389 16.688 49.3389 14.0708C49.3389 11.4536 48.7007 9.14651 47.4241 6.97615C46.1475 4.80579 44.3877 3.09139 42.172 1.84207C40.403 0.848081 38.47 0.255336 36.391 0.0547148L35.1691 7.2406C36.9837 7.32268 38.5155 7.9519 39.7647 9.1465C41.096 10.4232 41.7617 12.0646 41.7617 14.0708C41.7617 16.0771 41.096 17.8097 39.7647 19.1229C38.4244 20.436 36.7557 21.0835 34.7588 21.0835C32.7619 21.0835 31.1753 20.4178 29.8349 19.0773C28.5037 17.7459 27.838 16.0771 27.838 14.0708C27.838 12.0646 28.4854 10.4323 29.7985 9.1465C30.537 8.42609 31.385 7.91542 32.3425 7.59625L33.6373 0C32.771 0.0547149 31.923 0.182383 31.1115 0.373885L29.1875 9.54775L24.7287 8.60848L25.9597 2.72662C24.3822 3.8574 23.0783 5.27087 22.0844 6.96703C20.8078 9.13739 20.1696 11.4992 20.1696 14.0617C20.1696 16.6242 20.8078 19.0864 22.0844 21.2841C23.361 23.4818 25.1117 25.2144 27.3365 26.5002L27.3274 26.5094Z" fill="black"/>
<path d="M20.7543 11.9092C22.0947 9.63851 23.9275 7.85116 26.2526 6.538C28.5778 5.22484 31.1674 4.57738 34.0214 4.57738C36.8754 4.57738 39.465 5.23396 41.7902 6.538C44.1154 7.85116 45.9481 9.63851 47.2885 11.9092C48.6289 14.1798 49.2945 16.6511 49.2945 19.3322C49.2945 22.0132 48.6289 24.5848 47.2885 26.8828C45.9481 29.1808 44.1154 31.0047 41.7902 32.3361C39.4559 33.6766 36.8754 34.3423 34.0214 34.3423C31.1674 34.3423 28.5778 33.6766 26.2526 32.3361C23.9184 30.9956 22.0856 29.1808 20.7543 26.8828C19.4139 24.5848 18.7483 22.0679 18.7483 19.3322C18.7483 16.5964 19.4139 14.1798 20.7543 11.9092ZM70.4398 5.89054H79.9593L30.5474 67.0162H21.0279L70.4398 5.89054ZM28.8787 24.5757C30.2738 25.9709 31.9972 26.6731 34.0305 26.6731C36.0639 26.6731 37.8693 25.9891 39.2736 24.6213C40.6687 23.2534 41.3616 21.4934 41.3616 19.3413C41.3616 17.1892 40.6687 15.5295 39.2736 14.189C37.8785 12.8485 36.1277 12.1828 34.0305 12.1828C31.9333 12.1828 30.2009 12.8485 28.8331 14.189C27.4654 15.5295 26.7815 17.2439 26.7815 19.3413C26.7815 21.4387 27.4745 23.1804 28.8696 24.5757H28.8787ZM53.3704 45.9692C54.7382 43.6985 56.5892 41.8929 58.9143 40.5524C61.2395 39.2119 63.8291 38.5462 66.6831 38.5462C69.5371 38.5462 72.0355 39.2119 74.3698 40.5524C76.695 41.8929 78.5278 43.6985 79.8681 45.9692C81.2085 48.2399 81.8742 50.7111 81.8742 53.3922C81.8742 56.0732 81.2085 58.6266 79.8681 60.9064C78.5278 63.177 76.695 64.9826 74.3698 66.314C72.0355 67.6545 69.4824 68.3202 66.6831 68.3202C63.8838 68.3202 61.2395 67.6545 58.9143 66.314C56.5801 64.9735 54.7382 63.1679 53.3704 60.9064C52.0027 58.6357 51.3188 56.137 51.3188 53.3922C51.3188 50.6473 52.0027 48.2399 53.3704 45.9692ZM61.4036 58.6266C62.8261 60.0218 64.5859 60.724 66.6831 60.724C68.7803 60.724 70.4398 60.04 71.8349 58.6722C73.23 57.3043 73.923 55.5443 73.923 53.3922C73.923 51.2401 73.23 49.5804 71.8349 48.2399C70.4398 46.8993 68.7165 46.2337 66.6831 46.2337C64.6497 46.2337 62.8261 46.8993 61.4036 48.2399C59.9721 49.5804 59.27 51.2948 59.27 53.3922C59.27 55.4896 59.9812 57.2313 61.4036 58.6266Z" fill="#6CF479"/>
</g>
<defs>
<clipPath id="clip0_15980_13415">
<rect width="100" height="100" fill="white"/>
</clipPath>
</defs>
</svg>
