<svg width="100" height="100" viewBox="0 0 100 100" fill="none" xmlns="http://www.w3.org/2000/svg">
<g clip-path="url(#clip0_15980_13429)">
<rect width="100" height="100" fill="#024731"/>
<path d="M91.26 31.4994C91.6056 38.0954 86.0303 38.7587 86.0303 38.7587C92.6982 40.5151 94.5566 46.0087 94.5566 46.0087C94.6594 39.6743 99.9358 38.768 99.9358 38.768C92.9784 37.1985 91.26 31.5087 91.26 31.5087V31.4994ZM7.45354 47.9893C7.94849 57.4722 -0.064209 58.4252 -0.064209 58.4252C9.52675 60.9571 12.1977 68.8517 12.1977 68.8517C12.3471 59.7425 19.9302 58.4345 19.9302 58.4345C9.92832 56.1736 7.45354 47.9893 7.45354 47.9893Z" fill="white"/>
<path d="M19.4819 19.5948C21.2002 16.6705 23.5536 14.3722 26.5513 12.6905C29.5398 11.0088 32.8737 10.168 36.5439 10.168C40.214 10.168 43.5386 11.0088 46.5364 12.6905C49.5248 14.3722 51.8782 16.6705 53.6059 19.5948C55.3242 22.5097 56.1834 25.6956 56.1834 29.1338C56.1834 32.5719 55.3242 35.8886 53.6059 38.8502C51.8875 41.8119 49.5248 44.1476 46.5364 45.8666C43.5386 47.5857 40.214 48.4452 36.5439 48.4452C32.8737 48.4452 29.5491 47.5857 26.5513 45.8666C23.5536 44.1476 21.2002 41.8119 19.4819 38.8502C17.7635 35.8979 16.9043 32.656 16.9043 29.1338C16.9043 25.6115 17.7635 22.5097 19.4819 19.5948ZM83.3313 11.8403H95.5652L32.0519 90.4222H19.8181L83.3313 11.8403ZM29.9133 35.8699C31.7157 37.6637 33.9197 38.5606 36.5345 38.5606C39.1494 38.5606 41.4748 37.6824 43.2678 35.9259C45.0609 34.1695 45.9574 31.9086 45.9574 29.1338C45.9574 26.359 45.0609 24.2382 43.2678 22.5097C41.4654 20.7907 39.2241 19.9311 36.5345 19.9311C33.8449 19.9311 31.613 20.7907 29.8573 22.5097C28.1016 24.2288 27.2237 26.443 27.2237 29.1338C27.2237 31.8245 28.1203 34.0761 29.9133 35.8699ZM61.3945 63.375C63.1502 60.46 65.5315 58.1337 68.5199 56.4146C71.5084 54.6955 74.8423 53.836 78.5125 53.836C82.1826 53.836 85.3952 54.6955 88.3836 56.4146C91.372 58.1337 93.7254 60.46 95.4531 63.375C97.1808 66.2899 98.0306 69.4758 98.0306 72.9139C98.0306 76.352 97.1714 79.65 95.4531 82.5743C93.7348 85.4893 91.372 87.8156 88.3836 89.5347C85.3859 91.2538 82.0986 92.1133 78.5125 92.1133C74.9264 92.1133 71.5177 91.2538 68.5199 89.5347C65.5222 87.8156 63.1502 85.4986 61.3945 82.5743C59.6388 79.65 58.7609 76.4361 58.7609 72.9139C58.7609 69.3917 59.6388 66.2899 61.3945 63.375ZM71.7232 79.65C73.5536 81.4532 75.8136 82.3408 78.5125 82.3408C81.2114 82.3408 83.3406 81.4625 85.1337 79.7061C86.9268 77.9497 87.8233 75.6887 87.8233 72.9139C87.8233 70.1391 86.9268 68.0183 85.1337 66.2899C83.3313 64.5708 81.1273 63.7113 78.5125 63.7113C75.8976 63.7113 73.5536 64.5708 71.7232 66.2899C69.8834 68.009 68.9776 70.2232 68.9776 72.9139C68.9776 75.6046 69.8928 77.8562 71.7232 79.65Z" fill="#6CF479"/>
<path d="M39.1961 64.2272L33.8356 62.9472L31.7624 65.5072L37.1135 66.8058L39.1961 64.2272Z" fill="black"/>
<path d="M32.6311 36.1875C33.7797 36.8322 35.0778 37.1592 36.544 37.1592C38.8787 37.1592 40.7652 36.4304 42.2967 34.9169C43.819 33.4221 44.5661 31.5255 44.5661 29.1244C44.5661 26.7233 43.8283 24.9762 42.3061 23.5188C40.9986 22.2668 39.4297 21.5661 37.5526 21.3793C38.7853 22.9488 39.4204 24.8454 39.4204 27.0784C39.4204 29.8531 38.5239 32.1141 36.7308 33.8705C35.5541 35.0197 34.1906 35.7858 32.6311 36.1875Z" fill="black"/>
<path d="M81.2768 70.8673C81.2768 73.6421 80.3803 75.903 78.5872 77.6595C77.4012 78.818 76.0284 79.5934 74.4875 79.9858C75.6641 80.6304 76.9902 80.9481 78.5031 80.9481C80.7631 80.9481 82.6122 80.2194 84.1438 78.7058C85.666 77.211 86.4131 75.3144 86.4131 72.9133C86.4131 70.5122 85.6754 68.7651 84.1531 67.3077C82.8177 66.0277 81.2581 65.327 79.3903 65.1588C80.6324 66.7284 81.2674 68.625 81.2674 70.8673H81.2768Z" fill="black"/>
<path d="M19.1178 17.5771C19.7529 16.6615 20.4626 15.8113 21.2377 15.0171L15.8866 13.7372C15.1022 14.5126 14.4017 15.3628 13.7574 16.2784L19.1178 17.5864V17.5771Z" fill="black"/>
<path d="M23.3669 13.121C24.1513 12.5231 24.9825 11.9625 25.8603 11.4673C28.7367 9.84169 31.9492 8.95413 35.4139 8.7953C33.6956 8.34685 31.8932 8.11328 29.9974 8.11328C26.3273 8.11328 23.0027 8.95413 20.0049 10.6358C19.3325 11.0095 18.7068 11.4206 18.0998 11.8597L23.3669 13.121Z" fill="black"/>
<path d="M33.2193 71.6254L27.8682 70.3267L13.281 88.3769L18.3799 89.9839L33.2193 71.6254Z" fill="black"/>
<path d="M60.1899 83.2949C58.3128 80.1651 57.3509 76.6709 57.3509 72.9151C57.3509 69.1593 58.3034 65.7772 60.1899 62.6474C62.067 59.5363 64.6351 57.0324 67.8197 55.1919C70.668 53.5476 73.8432 52.6413 77.2612 52.4638C75.5709 52.006 73.8059 51.7724 71.9661 51.7724C68.9964 51.7724 66.2414 52.3517 63.7106 53.4821L52.5601 67.2814C52.3359 68.4399 52.2239 69.6264 52.2239 70.8503C52.2239 74.3726 53.1017 77.5865 54.8574 80.5107C56.6225 83.4257 58.9945 85.752 61.9829 87.4711C63.0008 88.0597 64.0655 88.5362 65.1675 88.9286C63.1876 87.359 61.516 85.4811 60.1992 83.2855L60.1899 83.2949Z" fill="black"/>
<path d="M20.0049 43.8136C21.0322 44.4022 22.1061 44.888 23.2175 45.2804C21.2283 43.7015 19.566 41.7862 18.2772 39.5626C16.4375 36.4048 15.5036 32.9012 15.5036 29.1454C15.5036 26.9125 15.8491 24.7637 16.5309 22.727L11.2171 21.4377C10.6474 23.2408 10.3579 25.128 10.3579 27.0994C10.3579 30.6216 11.2171 33.8542 12.9354 36.8158C14.6538 39.7682 17.0071 42.1132 20.0049 43.8322V43.8136Z" fill="black"/>
<path d="M54.8105 39.5508C52.9708 42.7086 50.4213 45.2405 47.2274 47.0717C46.9006 47.2586 46.5644 47.4361 46.2282 47.6042L35.4605 60.9364L40.821 62.2163L82.2386 10.9619L82.6589 10.4388H91.0825L89.0093 9.78476H76.7754L56.9118 34.3562C56.4448 36.1687 55.7444 37.9065 54.7919 39.5414L54.8105 39.5508Z" fill="black"/>
</g>
<defs>
<clipPath id="clip0_15980_13429">
<rect width="100" height="100" fill="white"/>
</clipPath>
</defs>
</svg>
