<svg width="100" height="100" viewBox="0 0 100 100" fill="none" xmlns="http://www.w3.org/2000/svg">
<g clip-path="url(#clip0_15980_13466)">
<rect width="100" height="100" fill="#024731"/>
<path d="M96.7852 43.4111C92.3323 44.747 80.8835 46.6172 70.7409 43.4111C69.2071 44.8855 67.5843 47.0229 67.5843 49.5165L73.9469 62.0538C73.9469 62.0538 74.0459 62.034 74.0855 62.0241L77.153 61.183C77.153 61.183 82.1204 59.679 86.7613 64.0626C89.4924 66.4176 91.8277 70.1383 93.0745 74.6505C93.975 77.9258 94.1729 81.1418 93.7771 83.962C98.4476 82.6162 99.9418 80.4096 99.9418 79.0242V49.5165C99.9418 47.0328 98.319 44.8855 96.7852 43.4111Z" fill="#11B67A"/>
<path d="M70.4649 35.3854V41.3225C70.4649 42.7573 76.4218 43.925 83.7641 43.925C91.1064 43.925 97.0633 42.7573 97.0633 41.3225V35.3854H70.4649Z" fill="black"/>
<path d="M83.7641 37.9886C91.1064 37.9886 97.0633 36.8202 97.0633 35.3854C97.0633 33.9505 91.1064 32.7836 83.7641 32.7836C76.4218 32.7836 70.4649 33.9505 70.4649 35.3854C70.4649 36.8202 76.4218 37.9886 83.7641 37.9886Z" fill="#11B67A"/>
<path d="M78.8246 36.3455L87.2059 33.941L88.8486 34.0993L80.4969 36.5434L78.8345 36.3455H78.8246Z" fill="black"/>
<path d="M96.924 46.7156C96.924 46.7156 98.1312 50.8419 87.2662 53.3554C87.2662 53.3554 101.881 52.9496 96.924 46.7156Z" fill="#6CF479"/>
<path d="M13.7742 43.7663V48.427C13.7742 49.555 18.4447 50.4654 24.2137 50.4654C29.9826 50.4654 34.6532 49.5452 34.6532 48.427V43.7663H13.7742Z" fill="black"/>
<path d="M24.2137 45.8145C29.9826 45.8145 34.6532 44.9041 34.6532 43.7761C34.6532 42.648 29.9826 41.7377 24.2137 41.7377C18.4447 41.7377 13.7742 42.648 13.7742 43.7761C13.7742 44.9041 18.4447 45.8145 24.2137 45.8145Z" fill="#11B67A"/>
<path d="M20.3464 44.5289L26.9168 42.6488L28.2032 42.7676L21.6526 44.6872L20.3464 44.5289Z" fill="black"/>
<path d="M11.5187 54.8592C11.5187 52.9098 12.7952 51.2276 14.0025 50.0699C21.9682 52.5833 30.9531 51.1188 34.4461 50.0699C35.6533 51.2276 36.9298 52.9098 36.9298 54.8592V78.0141C36.9298 79.6666 34.2779 82.8034 24.2243 82.8034C14.1707 82.8034 11.5187 79.6666 11.5187 78.0141V54.8592Z" fill="#11B67A"/>
<path d="M34.5535 52.6624C34.5535 52.6624 35.4936 55.908 26.9737 57.8673C26.9737 57.8673 38.4424 57.5507 34.5535 52.6624Z" fill="#6CF479"/>
<path d="M14.0328 3.73047C14.0328 3.73047 16.3681 11.4785 25.8478 13.6158C25.8478 13.6158 18.6638 14.8528 18.5253 23.4715C18.5253 23.4715 15.9921 16.0006 6.91812 13.606C6.91812 13.606 14.5078 12.7055 14.0328 3.73047Z" fill="white"/>
<path d="M5.10674 59.2622C5.10674 59.2622 6.80873 64.8927 13.7057 66.4561C13.7057 66.4561 8.48103 67.3566 8.38207 73.6302C8.38207 73.6302 6.54155 68.1878 -0.0585938 66.4462C-0.0585938 66.4462 5.46297 65.7931 5.12653 59.2622H5.10674Z" fill="white"/>
<path d="M34.272 20.3348V29.2702C34.272 31.4373 43.2273 33.1887 54.2803 33.1887C65.3333 33.1887 74.2885 31.4274 74.2885 29.2702V20.3348H34.272Z" fill="black"/>
<path d="M54.2701 24.2527C65.3231 24.2527 74.2783 22.5013 74.2783 20.3441C74.2783 18.1869 65.3231 16.4256 54.2701 16.4256C43.217 16.4256 34.2618 18.177 34.2618 20.3441C34.2618 22.5112 43.217 24.2527 54.2701 24.2527Z" fill="#11B67A"/>
<path d="M46.8482 21.7892L59.4449 18.1774L61.9088 18.4149L49.3418 22.086L46.8383 21.7892H46.8482Z" fill="black"/>
<path d="M36.7836 35.2372C36.7836 35.2372 33.3895 37.9485 33.3895 43.8263V58.9561C33.3895 58.9561 34.1811 46.3199 44.9175 46.7651C44.9175 46.7651 32.6078 45.1819 36.7836 35.2372Z" fill="#F3F3F5"/>
<path d="M74.0796 37.3843C74.0796 37.3843 75.8905 43.5985 59.5435 47.3686C59.5435 47.3686 81.5308 46.765 74.0796 37.3843Z" fill="#F3F3F5"/>
<path d="M66.2126 73.6801C66.5194 67.9112 69.0823 63.3297 73.1987 62.2016C73.4955 62.1225 73.7924 62.0631 74.0893 62.0235L77.1568 61.1824C77.1568 61.1824 77.7109 61.0142 78.6114 60.9548V41.5898C78.6114 37.8493 76.1673 34.6235 73.8617 32.4168C67.1626 34.4256 49.9448 37.2457 34.6764 32.4168C32.3708 34.6334 29.9267 37.8493 29.9267 41.5898V85.98C29.9267 89.1563 35.0128 95.1628 54.269 95.1628C60.503 95.1628 65.2429 94.5295 68.8151 93.5696C67.7266 91.4718 67.2516 89.7797 67.2516 89.7797C65.5991 83.0708 65.6684 77.6185 66.2027 73.6702L66.2126 73.6801Z" fill="#6CF479"/>
<path d="M66.1791 74.4424C66.2979 68.3172 68.8904 63.3696 73.1949 62.2019C73.4917 62.1228 73.7886 62.0637 74.0855 62.0241L74.313 61.9645C74.4021 61.1135 74.224 60.3713 73.7292 59.8469L72.8782 58.9662C71.8095 57.848 69.6425 58.1251 67.6337 59.4709C67.6139 59.3818 67.5842 59.3026 67.5546 59.2235L67.0796 58.0954C66.3473 56.3538 63.3788 55.9382 60.43 57.1653C59.8165 57.4225 59.2623 57.7293 58.7577 58.0756C58.5499 57.947 58.3421 57.8282 58.1244 57.7194C56.6797 56.9772 55.2053 56.6606 53.9782 56.7497L53.6616 56.0372C52.8898 54.3154 49.9113 53.9592 46.9922 55.2555C44.8647 56.2054 43.3606 57.7689 43.0143 59.2136C42.5591 59.1047 42.094 59.0157 41.5993 58.9761C38.4229 58.6891 35.7116 59.9854 35.5434 61.8655L35.4939 62.39C33.406 63.7456 32.2977 65.695 32.931 67.1397L33.4258 68.2579C33.6138 68.6932 33.9502 69.0396 34.3856 69.2969L34.3262 69.9203C34.2471 70.7811 34.722 71.6123 35.5631 72.2951C33.9106 73.8586 33.1982 75.7684 33.97 77.035L34.6132 78.074C34.6627 78.1531 34.7418 78.2125 34.8012 78.2917C34.7814 78.3016 34.7616 78.3114 34.7517 78.3312L33.9007 79.2119C32.7232 80.4092 33.218 82.8435 34.9496 84.9314C34.5637 85.3767 34.3262 85.8516 34.3262 86.3365C34.3262 89.5228 43.2815 92.0956 54.3345 92.0956C59.4305 92.0956 64.0714 91.5414 67.604 90.641C67.416 90.1066 67.3171 89.7801 67.3171 89.7801C65.7734 83.5263 65.7338 78.3411 66.1692 74.4721L66.1791 74.4424Z" fill="#11B67A"/>
<path d="M72.8588 80.1612C70.4543 71.4435 73.0073 63.1216 78.5783 61.5779C84.1494 60.0441 90.611 65.8626 93.0254 74.5902C95.43 83.3079 92.877 91.6299 87.306 93.1735C81.7349 94.7073 75.2733 88.8889 72.8588 80.1612Z" fill="#6CF479"/>
<path d="M72.8607 65.0517L68.3485 66.0709C69.5458 64.1314 71.1884 62.7461 73.1972 62.1919L77.3928 61.1232C75.6413 61.8357 73.9096 63.2111 72.8508 65.0517H72.8607Z" fill="black"/>
<path d="M67.3872 67.9605L71.9688 66.9314C71.8104 67.3668 71.662 67.8121 71.5235 68.2672L66.9123 69.3062C67.0508 68.8412 67.2091 68.3959 67.3872 67.9605Z" fill="black"/>
<path d="M70.8905 72.0275C70.6926 74.6597 70.9598 77.5491 71.7712 80.488C74.3143 89.6906 81.1717 95.8257 87.099 94.2029L82.4185 95.5387C76.4912 97.1813 69.614 91.0364 67.0709 81.8239C66.2298 78.7761 65.9627 75.7878 66.21 73.0764L70.8905 72.0275Z" fill="black"/>
<path d="M90.9682 75.2141C88.8407 67.4958 83.2202 62.2612 78.2527 63.2211C78.4704 63.132 78.698 63.043 78.9256 62.9836C84.0118 61.5785 89.9193 66.9021 92.1259 74.8678C94.3227 82.8335 91.9874 90.443 86.9012 91.8382C86.7429 91.8877 86.5747 91.9174 86.4164 91.947C91.0275 90.0768 93.066 82.8137 90.9583 75.2042H90.9682V75.2141Z" fill="#024731"/>
<path d="M75.3017 81.7048C74.9058 80.4481 74.6387 79.1914 74.51 77.9644C75.2027 79.9039 76.2417 80.6262 76.8156 80.7944C77.4786 80.9923 78.1713 80.7153 78.1713 80.7153C80.2988 87.1472 83.6731 88.9284 86.2359 88.8492C87.7301 88.7997 88.7988 87.9091 89.4321 87.1868C88.6999 88.8987 87.552 90.1554 86.0479 90.6798C82.1393 92.0454 77.3401 88.018 75.3215 81.6949L75.3017 81.7048Z" fill="white"/>
<path d="M87.1991 60.8363C87.1991 60.8363 88.901 66.4668 95.798 68.0302C95.798 68.0302 90.5733 68.9307 90.4744 75.2043C90.4744 75.2043 88.6339 69.7619 82.0337 68.0203C82.0337 68.0203 87.5553 67.3672 87.2188 60.8363H87.1991Z" fill="white"/>
</g>
<defs>
<clipPath id="clip0_15980_13466">
<rect width="100" height="100" fill="white"/>
</clipPath>
</defs>
</svg>
