<svg width="100" height="100" viewBox="0 0 100 100" fill="none" xmlns="http://www.w3.org/2000/svg">
<g clip-path="url(#clip0_15980_13494)">
<rect width="100" height="100" fill="#024731"/>
<path d="M93.5547 82.9579L77.5339 46.6396C77.1692 45.8099 76.2756 45.2354 75.4185 45.2354C75.2999 45.2354 75.1905 45.2445 75.072 45.2719L5.65451 59.9341C4.69709 60.1256 4.26853 61.0466 4.68797 61.9949L20.882 98.5958C21.2468 99.4255 22.1495 100 23.0066 100C23.1251 100 23.2528 99.9909 23.3713 99.9635L92.6156 85.0095C93.5547 84.818 93.9742 83.8971 93.5639 82.9579H93.5547Z" fill="black"/>
<path d="M93.5547 81.8003L77.5339 45.482C77.1692 44.6523 76.2756 44.0778 75.4185 44.0778C75.2999 44.0778 75.1905 44.0869 75.072 44.1143L5.65451 58.7765C4.69709 58.968 4.26853 59.889 4.68797 60.8373L20.882 97.4382C21.2468 98.268 22.1495 98.8424 23.0066 98.8424C23.1251 98.8424 23.2528 98.8333 23.3713 98.8059L92.6156 83.8519C93.5547 83.6604 93.9742 82.7395 93.5639 81.8003H93.5547Z" fill="#11B67A"/>
<path d="M18.128 91.2273L90.7916 75.5438L87.3905 67.8388L14.7269 83.5223L18.128 91.2273Z" fill="black"/>
<path d="M87.8189 19.5403C87.8189 19.5403 90.2262 27.5279 100.001 29.7345C100.001 29.7345 92.5969 31.0111 92.451 39.9015C92.451 39.9015 89.8432 32.1965 80.4787 29.7254C80.4787 29.7254 88.3022 28.7954 87.8189 19.5403Z" fill="white"/>
<path d="M5.33518 33.6665C5.33518 33.6665 7.08589 39.4749 14.1981 41.0888C14.1981 41.0888 8.80925 42.0189 8.70895 48.4838C8.70895 48.4838 6.81233 42.876 0.000976562 41.0797C0.000976562 41.0797 5.69992 40.405 5.3443 33.6665H5.33518Z" fill="white"/>
<path d="M44.006 73.2386C44.006 73.2386 45.7567 79.047 52.8689 80.6609C52.8689 80.6609 47.48 81.591 47.3797 88.0559C47.3797 88.0559 45.4831 82.4481 38.6718 80.6518C38.6718 80.6518 44.3707 79.977 44.0151 73.2386H44.006Z" fill="white"/>
<path d="M72.5825 51.792L71.9807 46.3758C71.0689 48.1447 69.9382 49.4851 68.5978 50.3969C67.2574 51.3088 65.4976 51.7647 63.3365 51.7647C62.0782 51.7647 60.9658 51.6461 59.9993 51.4273C59.0327 51.1993 57.8018 50.8528 56.3246 50.3969C54.9021 49.941 53.6712 49.5945 52.6499 49.3666C51.6196 49.1386 50.4524 49.0292 49.1394 49.0292C47.8264 49.0292 46.7139 49.1751 45.6289 49.4577C46.9966 47.8073 47.9905 46.0657 48.6197 44.2421C49.2488 42.4184 49.5588 40.3394 49.5588 37.996C49.5588 37.7407 49.5497 37.4854 49.5406 37.2301L64.759 35.0143L64.3669 30.0357H47.9358C47.0787 27.8109 46.4586 26.0146 46.0574 24.6468C45.6562 23.2791 45.4556 21.7381 45.4556 20.0238C45.4556 17.2883 46.3948 15.0908 48.2823 13.4404C50.1607 11.79 52.7047 10.9602 55.8961 10.9602C58.4583 10.9602 60.9658 11.562 63.4277 12.7565C65.8806 13.951 67.8228 15.5194 69.2452 17.4616L69.7741 9.0089L69.2452 4.70505C67.3668 3.21877 65.0599 2.06986 62.3518 1.24009C59.6437 0.419443 56.7532 0 53.6712 0C49.4494 0 45.72 0.765938 42.4648 2.30693C39.2096 3.84793 36.6929 5.99985 34.8966 8.7627C33.1003 11.5347 32.1976 14.6805 32.1976 18.2184C32.1976 20.0968 32.38 21.9387 32.7538 23.735C33.1186 25.5313 33.6748 27.6285 34.4225 30.0175H29.6354L29.0974 34.9961L35.9543 35.9353C36.31 37.7407 36.4832 39.2999 36.4832 40.6221C36.4832 44.3333 35.8449 47.7253 34.5593 50.7981C34.2948 51.4455 33.9574 52.1294 33.5927 52.8498L5.66341 58.7493C4.70599 58.9408 4.27743 59.8617 4.69688 60.8101L8.0433 68.3691H26.7358L56.7988 68.1959L50.9266 63.8282L48.9844 61.2568C51.0816 61.6489 52.8049 61.9407 54.1089 62.1231C55.5313 62.3237 57.1544 62.424 58.978 62.424C63.4824 62.424 70.385 57.8101 70.385 57.8101L72.5916 51.7647L72.5825 51.792Z" fill="black"/>
<path d="M34.149 56.3586C35.4712 53.1945 36.1277 49.7113 36.1277 45.909C36.1277 44.0945 35.8085 41.8331 35.1611 39.1432H29.1066V35.0126H34.0305C33.2645 32.5507 32.6901 30.3988 32.3162 28.5569C31.9333 26.7058 31.7418 24.8183 31.7418 22.8853C31.7418 19.2562 32.6627 16.0192 34.5137 13.1743C36.3556 10.3293 38.9452 8.12271 42.2825 6.54524C45.6198 4.96777 49.4586 4.17448 53.7898 4.17448C56.9538 4.17448 59.9264 4.60304 62.7075 5.45104C65.4885 6.29905 67.8502 7.48443 69.7832 9.00719V22.1011C68.3152 20.1133 66.3274 18.4994 63.8108 17.2684C61.2941 16.0374 58.7137 15.4265 56.0785 15.4265C52.7959 15.4265 50.1881 16.2745 48.255 17.9705C46.3219 19.6665 45.3554 21.9278 45.3554 24.7363C45.3554 26.4961 45.5651 28.0736 45.9663 29.4778C46.3766 30.882 47.024 32.7239 47.8994 35.0126H64.7682V39.1432H49.1303C49.4221 40.4927 49.568 41.8331 49.568 43.1826C49.568 45.5899 49.2489 47.7236 48.6015 49.5928C47.9541 51.4712 46.9328 53.2584 45.5286 54.9544C46.641 54.6626 47.8355 54.5167 49.1303 54.5167C50.4251 54.5167 51.6744 54.6352 52.7321 54.8632C53.7898 55.1003 55.0481 55.4468 56.507 55.9209C58.0298 56.386 59.2881 56.7416 60.282 56.9787C61.2759 57.2157 62.4248 57.3251 63.7105 57.3251C65.9353 57.3251 67.7317 56.8601 69.1176 55.9209C70.4945 54.9817 71.6525 53.6049 72.5917 51.7903C72.5917 57.5349 71.5157 61.7202 69.382 64.3554C67.2392 66.9906 63.8655 68.3127 59.2334 68.3127C57.355 68.3127 55.6955 68.2124 54.2275 68.0027C52.7594 67.793 50.799 67.4647 48.3371 66.9906C46.2854 66.5802 44.5986 66.2702 43.2855 66.0696C41.9725 65.869 40.5501 65.7596 39.0273 65.7596C36.5654 65.7596 34.4226 65.9693 32.5715 66.3705C30.7205 66.7808 28.7783 67.4556 26.7267 68.3948C30.3558 63.5347 32.836 59.5227 34.149 56.3586Z" fill="#6CF479"/>
</g>
<defs>
<clipPath id="clip0_15980_13494">
<rect width="100" height="100" fill="white"/>
</clipPath>
</defs>
</svg>
