<svg width="100" height="100" viewBox="0 0 100 100" fill="none" xmlns="http://www.w3.org/2000/svg">
<g clip-path="url(#clip0_15980_13531)">
<rect width="100" height="100" fill="#024731"/>
<path d="M64.7246 6.94976L61.0305 5.66599L65.4637 0.319305L55.2388 5.58931L58.9278 6.87141L54.4997 12.2198L64.7246 6.94976Z" fill="white"/>
<path d="M44.6732 11.9219L40.2451 6.57359L43.9341 5.29149L33.7092 0.0214844L38.1423 5.36817L34.4482 6.65194L44.6732 11.9219Z" fill="white"/>
<path d="M55.3664 17.0151L59.7945 22.3634L56.1055 23.6455L66.3304 28.9155L61.8973 23.5688L65.5914 22.2851L55.3664 17.0151Z" fill="white"/>
<path d="M33.6253 22.9739L37.3194 24.2577L32.8863 29.6044L43.1112 24.3344L39.4222 23.0523L43.8503 17.7039L33.6253 22.9739Z" fill="white"/>
<path fill-rule="evenodd" clip-rule="evenodd" d="M42.0294 44.8716C42.1263 44.8604 42.3613 44.9112 42.5505 44.9857C42.7378 45.0594 43.0394 45.1037 43.2178 45.0827C43.396 45.0622 43.6037 45.0866 43.6793 45.1368C43.8051 45.2235 43.6584 45.9081 42.7026 49.6755C42.134 51.9104 41.9354 52.5296 40.5082 56.4973C40.3691 56.885 40.2218 57.2938 40.0726 57.7093L49.3542 52.9954L49.8365 53.9361L50.2228 53.1834L61.0515 58.8122L60.2685 60.2224L49.572 54.803L40.4944 59.413L50.126 64.3054L49.8045 64.9319L50.808 66.8906L44.6784 70.0122L48.8037 79.827L48.7622 79.8441L50.8019 80.8801L49.6662 83.0963L34.3078 75.296L32.8463 76.041C32.6526 76.5148 32.4665 76.9658 32.2957 77.3851C31.7373 78.7596 31.0015 80.48 30.6639 81.2063C30.3239 81.9328 30.0307 82.5241 30.0105 82.5195C29.9874 82.5143 29.5185 82.4256 28.9673 82.3204C28.4148 82.216 27.7883 82.0953 27.5741 82.0543C27.2133 81.9835 27.2229 81.8959 27.7089 80.7599C27.999 80.089 28.6215 78.6338 29.097 77.5233C29.5709 76.4131 30.3474 74.6496 30.8221 73.6042C31.8949 71.2424 34.7596 64.6933 35.5117 62.8891C37.9187 57.1072 39.3358 53.1475 41.2748 46.7899C41.593 45.7463 41.9326 44.8829 42.0294 44.8716ZM37.0528 73.8969L45.28 78.0752L42.3829 71.1812L37.0528 73.8969ZM38.4624 62.1982C38.0546 63.3324 37.3746 65.0851 36.9499 66.0932C36.3998 67.4016 35.3579 69.9233 34.3069 72.4781L41.4114 68.8698L38.529 62.0111C38.5054 62.0771 38.4834 62.1396 38.4624 62.1982ZM43.7087 67.7034L48.3741 65.3345L41.1763 61.6789L43.7087 67.7034Z" fill="#11B67A"/>
<path fill-rule="evenodd" clip-rule="evenodd" d="M57.6148 46.0302C57.7466 46.3896 58.4573 48.6262 59.193 50.998C61.7448 59.2147 63.2949 63.2846 69.7175 78.6304C70.6417 80.8379 71.39 82.758 71.3787 82.8987C71.3651 83.0784 71.0439 83.2629 70.2983 83.5193C69.7129 83.7191 69.1851 83.8956 69.122 83.9115C69.0608 83.9256 68.7768 83.3111 68.4928 82.5451C67.4999 79.868 66.5756 77.4689 65.6536 75.1594L51.844 82.1717C51.9499 85.5498 52.0445 88.2444 52.111 89.548L52.2191 91.6792L51.4611 91.759C51.044 91.8039 50.079 91.8402 49.3168 91.8414L47.9313 91.8423L48.0593 85.8479C48.1316 82.5509 48.2817 72.556 48.392 63.6349C48.5044 54.7138 48.6495 46.9975 48.7135 46.4859C48.7924 45.8673 49.0099 45.585 49.3669 45.6388C50.0806 45.7489 50.1361 45.6594 50.7014 45.6594C51.9009 45.6594 50.7632 45.6805 50.8872 46.4421L51.2986 61.69C51.3088 62.1621 51.3204 62.6441 51.3315 63.1345L59.6744 58.897C59.4304 58.1559 59.0663 57.0832 58.7246 56.1032C58.236 54.7043 57.5676 52.5964 57.2406 51.4195C56.9115 50.2439 56.467 48.673 56.2545 47.9287C55.8447 46.5018 55.7899 45.9053 56.0669 45.9203C56.1599 45.9253 56.492 45.8045 56.8059 45.6525L57.3754 45.3744L57.6148 46.0302ZM53.5484 78.6227L62.569 73.9964L56.8007 71.0009L53.5484 78.6227ZM51.4533 68.2243C51.5245 71.0639 51.6021 73.9889 51.6806 76.7455L54.6166 69.8671L51.4533 68.2243ZM57.722 68.8405L64.5214 72.2926C63.3072 69.1552 61.671 64.7245 60.6805 61.9088L57.722 68.8405ZM51.3755 65.0614C51.3799 65.248 51.384 65.4354 51.3885 65.6236L55.5293 67.7264L58.13 61.6316L51.3755 65.0614Z" fill="#6CF479"/>
<path d="M49.6988 50.4884C54.7316 50.4884 58.8114 48.8005 58.8114 46.7184C58.8114 44.6362 54.7316 42.9483 49.6988 42.9483C44.6661 42.9483 40.5863 44.6362 40.5863 46.7184C40.5863 48.8005 44.6661 50.4884 49.6988 50.4884Z" fill="black"/>
<path d="M55.7743 43.8235L54.5285 36.8528C53.3719 37.8441 51.6378 38.4747 49.6988 38.4747C47.4669 38.4747 45.506 37.6397 44.3856 36.3798L43.0552 43.8239C41.8241 44.2714 41.0758 44.8559 41.0758 45.4902C41.0758 46.9139 44.8099 49.1605 49.4147 49.1605C54.0196 49.1605 57.7537 46.9139 57.7537 45.4902C57.7537 44.8559 57.0053 44.2777 55.7743 43.8235Z" fill="#11B67A"/>
<path d="M55.7333 43.8236L54.493 36.8826C53.3364 37.8568 51.618 38.4747 49.6988 38.4747C47.4442 38.4747 45.4663 37.6221 44.3514 36.3405L43.0143 43.8231C41.7832 44.2706 41.0348 44.8551 41.0348 45.4894C41.0348 46.9132 44.7689 48.8962 49.3738 48.8962C53.9787 48.8962 57.7127 46.9132 57.7127 45.4894C57.7127 44.8551 56.9644 44.2777 55.7333 43.8236Z" fill="black"/>
<path d="M55.717 43.8234L55.714 43.8079C54.3234 46.0667 51.4189 46.7178 49.3566 46.7178C47.1688 46.7178 44.0568 46.4555 42.7891 43.9022C41.6826 44.3388 41.0181 44.8918 41.0181 45.4893C41.0181 46.913 44.7521 49.1596 49.357 49.1596C53.9619 49.1596 57.696 46.913 57.696 45.4893C57.696 44.855 56.9481 44.2776 55.717 43.8234Z" fill="#11B67A"/>
<path d="M49.6988 37.4791C53.1811 37.4791 56.0041 35.4462 56.0041 32.9386C56.0041 30.4309 53.1811 28.398 49.6988 28.398C46.2165 28.398 43.3936 30.4309 43.3936 32.9386C43.3936 35.4462 46.2165 37.4791 49.6988 37.4791Z" fill="#11B67A"/>
<path d="M49.7888 11.6344C52.0647 11.6345 53.9096 13.4714 53.9097 15.7371C53.9097 17.5668 52.7063 19.116 51.0446 19.645C51.0585 23.2424 50.921 26.8341 50.921 30.4304C50.921 30.7824 50.8846 30.8877 50.7023 31.0553C50.1901 31.5273 49.1896 31.5257 48.7136 31.0519C48.5341 30.8732 48.4869 30.779 48.4621 30.5858L48.405 28.3997C48.4134 26.6695 48.4258 23.9691 48.4258 23.9691L48.4465 19.6158C46.8295 19.0614 45.667 17.535 45.667 15.7371C45.6671 13.4713 47.5127 11.6344 49.7888 11.6344Z" fill="#6CF479"/>
<path d="M65.5167 88.1392L69.6047 86.0195V90.9858L65.5167 93.1054V88.1392Z" fill="#024731"/>
<path d="M65.5167 88.1392L53.691 94.2711C51.4889 95.4129 47.8862 95.4129 45.6841 94.2711L24.1964 83.1294C23.4186 82.7259 22.916 82.232 22.6875 81.7116V87.3134L45.4472 99.1146C47.7793 100.324 51.5958 100.324 53.9279 99.1146L65.5167 93.1054V88.1392Z" fill="black"/>
<path d="M75.1786 83.1294L69.6047 86.0195V90.9858L76.6875 87.3134V81.7116C76.4594 82.2324 75.9564 82.7264 75.1786 83.1294Z" fill="black"/>
<path d="M68.7488 86.4634L67.9436 86.8807V91.847L68.7488 91.4297V86.4634Z" fill="black"/>
</g>
<defs>
<clipPath id="clip0_15980_13531">
<rect width="100" height="100" fill="white"/>
</clipPath>
</defs>
</svg>
