<svg width="100" height="100" viewBox="0 0 100 100" fill="none" xmlns="http://www.w3.org/2000/svg">
<rect width="100" height="100" fill="#024731"/>
<path d="M60.22 61.8121C58.1747 67.9195 33.0445 67.9953 31.9272 67.9953C30.8099 67.9953 5.50923 67.9195 3.61547 61.7553C3.21778 62.0488 3 62.3613 3 62.6738V66.1962C3 70.0784 15.9249 72.3509 31.8799 72.3509C47.8348 72.3509 60.7597 70.5802 60.7597 66.1962V62.6738C60.7597 62.3802 60.5703 62.0867 60.22 61.8121Z" fill="#6CF479"/>
<path d="M31.8893 0C15.9344 0 3.00947 2.00739 3.00947 4.49768V7.24364C3.00947 9.72447 15.9344 11.7413 31.8893 11.7413C47.8443 11.7413 60.7692 9.73393 60.7692 7.24364V4.49768C60.7692 2.01686 47.8443 0 31.8893 0ZM31.8893 7.35726C19.2295 7.35726 8.96535 6.17366 8.96535 4.72493C8.96535 3.27621 19.2295 2.09261 31.8893 2.09261C44.5491 2.09261 54.8133 3.27621 54.8133 4.72493C54.8133 6.17366 44.5491 7.35726 31.8893 7.35726Z" fill="#6CF479"/>
<path d="M52.522 11.8174C47.0017 12.6791 39.6729 13.1525 31.8895 13.1525C24.1061 13.1525 16.7773 12.6791 11.2475 11.8174C8.31217 11.3629 6.26691 10.8516 4.82765 10.3214L4.92233 60.9984C4.92233 64.0758 17.014 66.5756 31.9368 66.5756C46.8597 66.5756 58.9514 64.0758 58.9514 60.9984V10.3214C57.5121 10.8516 55.4668 11.3629 52.522 11.8174Z" fill="#11B67A"/>
<path d="M54.7754 45.9802C52.3419 49.976 48.6018 52.4379 43.2235 52.6841C33.4043 53.1292 27.3348 48.7072 21.36 39.1721C20.7445 38.1874 20.2048 37.0227 19.7314 35.7728V12.7352C16.6256 12.508 13.7473 12.2057 11.2475 11.8174C10.5752 11.7133 9.95956 11.599 9.37249 11.4948V64.0656C13.5009 65.3534 20.1575 66.2719 27.884 66.5086C27.1076 66.2719 19.7314 63.7342 19.7314 54.1897V44.0486C23.8787 50.9608 30.3838 56.4527 40.5911 56.7652C49.4066 57.1345 54.9269 52.2959 58.402 46.482L54.7849 45.9897L54.7754 45.9802Z" fill="black"/>
<path d="M60.3809 11.8453V22.9048C61.8202 28.9838 62.2557 36.0475 59.2636 40.9713C56.8301 44.9671 52.2945 47.1923 45.7895 47.5805C35.9703 48.1581 27.9786 43.6226 22.0038 34.0875C18.6519 28.7471 16.8907 23.2268 16.1805 20.6134C15.9438 19.7422 15.0727 19.212 14.1826 19.3919C13.2073 19.5907 12.6013 20.566 12.8664 21.5224C14.7034 28.1505 22.6288 51.0745 44.1324 51.0745C44.7384 51.0745 45.3634 51.0556 45.9883 51.0177C53.6959 50.5537 59.1499 47.7794 62.1989 42.7704C68.9407 31.6729 62.5682 16.5986 60.3714 11.8547L60.3809 11.8453Z" fill="#6CF479"/>
<path d="M60.381 13.4644L60.3809 22.9048C61.8202 28.9838 62.2557 36.0475 59.2636 40.9713C58.2031 42.723 54.6429 45.3175 54.6429 45.3175C58.3263 43.5847 63.0133 39.7688 64.0549 33.1501C65.1628 26.1526 62.663 18.7575 60.381 13.4644Z" fill="#11B67A"/>
<path d="M93.3515 19.5821L91.4104 26.7974C85.6439 28.8331 78.4949 40.5082 75.891 46.0285C69.1114 60.4022 60.4379 62.4569 56.622 62.6084C55.3627 62.6557 54.1696 63.328 53.5068 64.3791L53.0239 65.1555L46.7082 65.9793L47.9012 73.0903L73.0788 82.9L78.3529 74.861C79.4418 73.2324 78.6654 71.3386 78.6654 71.3386L77.0178 66.4622L75.7016 63.8677C74.4234 58.8493 75.3608 54.0486 82.2067 46.625C86.9127 41.5214 89.9522 39.4098 94.4972 32.8479C95.1885 31.8537 95.9081 30.5659 96.3531 29.4013C99.5252 21.0782 93.3515 19.5916 93.3515 19.5916V19.5821Z" fill="#11B67A"/>
<path d="M70.9577 77.3317L46.7081 65.9691C46.7081 65.9691 42.627 72.5594 36.5954 80.9393C36.5954 80.9393 33.7737 85.4464 29.5885 86.0903C29.5885 86.0903 33.3476 89.9252 39.5213 92.406C39.5213 92.406 42.3619 90.9762 43.7917 89.2718C43.7917 89.2718 43.2898 92.3303 41.576 93.9684C41.576 93.9684 47.7497 96.0988 52.7871 100C52.7871 100 60.5231 98.7406 64.1118 94.7353C67.7004 90.7206 70.3706 86.7626 73.0787 82.9088L70.9577 77.3506V77.3317Z" fill="#11B67A"/>
<path d="M82.1972 42.4395C87.0073 36.4836 99.4967 22.394 94.1279 19.8848C86.515 16.334 78.618 32.8949 75.4459 39.6178C68.6663 53.9914 62.6441 55.2886 55.4289 55.4875C54.1695 55.5254 52.9764 56.2071 52.3136 57.2581L46.6986 65.96L70.9482 77.3226L76.5632 68.6207C77.2166 67.5791 77.0935 66.424 76.5822 65.4108C73.6374 59.5401 71.9141 55.175 82.1972 42.4395Z" fill="#6CF479"/>
<path d="M74.9345 71.2341L50.6848 59.8715L46.7174 65.9695L70.9577 77.3317L73.088 82.8902L77.0555 76.7923L74.9345 71.2341Z" fill="white"/>
<path d="M52.3228 57.2678L31.8891 72.3611C31.8891 72.3611 37.8355 72.38 42.7688 72.0581L52.3323 57.2678H52.3228Z" fill="black"/>
<path d="M47.1626 16.3431C47.1626 16.3431 51.4236 16.2011 55.6751 15.0648V39.1914C55.6751 39.1914 53.9707 22.3085 47.1626 16.3431Z" fill="white"/>
</svg>
