<svg width="100" height="100" viewBox="0 0 100 100" fill="none" xmlns="http://www.w3.org/2000/svg">
<g clip-path="url(#clip0_15980_13557)">
<rect width="100" height="100" fill="#024731"/>
<path d="M89.9795 29.508C95.3495 17.5827 94.7807 2.63063 94.7807 2.63063C94.7807 2.63063 79.7931 2.06311 67.8394 7.42043C60.3684 10.765 28.6183 50.4606 28.6183 50.4606C28.6183 50.4606 25.9712 58.4814 32.388 64.8754C39.4949 71.9655 46.837 68.6361 46.837 68.6361C46.837 68.6361 86.6194 36.9538 89.9795 29.5005V29.508Z" fill="#6CF479"/>
<path d="M66.4445 8.30575C63.2741 11.2417 66.3156 20.7305 71.4809 25.8835C76.6461 31.0365 85.6038 34.5475 89.1004 30.9079C89.4872 30.4009 89.7898 29.9242 89.9795 29.508C95.3495 17.5827 94.7807 2.63063 94.7807 2.63063C94.7807 2.63063 79.7931 2.06311 67.8394 7.42043C67.4222 7.6096 66.9527 7.90471 66.437 8.29819L66.4445 8.30575Z" fill="#006A4D"/>
<path d="M66.5736 10.0915C66.5736 10.0915 60.6575 15.0857 54.9992 21.7899C45.5106 33.0266 29.5673 52.0118 29.5673 52.0118L35.3166 60.5775C35.3166 60.5775 30.432 55.084 45.6699 36.916C49.614 32.217 56.4555 23.954 61.3325 20.6473C64.8898 18.241 67.8479 19.429 67.8479 19.429L66.566 10.0991L66.5736 10.0915Z" fill="white"/>
<path d="M66.4445 8.30575C63.2741 11.2417 66.3156 20.7305 71.4809 25.8835C76.6461 31.0365 85.6038 34.5475 89.1004 30.9079C89.4872 30.4009 89.7898 29.9242 89.9795 29.508C95.3495 17.5827 94.7807 2.63063 94.7807 2.63063C94.7807 2.63063 79.7931 2.06311 67.8394 7.42043C67.4222 7.6096 66.9527 7.90471 66.437 8.29819L66.4445 8.30575Z" fill="#006A4D"/>
<path d="M94.784 2.74763C94.8233 4.16604 95.0723 18.1982 89.9795 29.508C89.7898 29.9242 89.4872 30.4009 89.1004 30.9079C85.6038 34.5475 76.6461 31.0365 71.4809 25.8835C70.9007 25.3047 70.347 24.6709 69.8262 23.9981C69.9254 24.0126 70.0592 24.0546 70.2297 24.1279C72.9906 25.3235 81.8192 29.2127 87.3941 23.2199C91.8842 18.3923 93.4847 8.91882 94.3494 4.90832C94.5334 4.05453 94.6747 3.33814 94.784 2.74763Z" fill="black"/>
<path d="M91.4359 3.93968C91.4359 3.93968 83.8739 4.24992 78.2308 5.67249C74.1046 6.71671 70.9114 7.94254 69.2807 8.93379C68.2112 9.58454 67.4452 10.6439 67.1873 11.8546C66.9749 12.861 66.9673 13.5723 67.1342 15.0478C67.3996 17.3935 68.3933 19.3079 68.3933 19.3079C68.3933 19.3079 67.0052 10.7725 79.8084 6.3762C84.0711 4.9158 91.4283 3.94725 91.4283 3.94725L91.4359 3.93968Z" fill="white"/>
<path d="M90.3599 28.6296C90.2359 28.9238 90.1105 29.2172 89.9795 29.508V29.5005C86.6194 36.9538 46.837 68.6361 46.837 68.6361C46.8227 68.6426 45.3107 69.323 43.0024 69.408L32.3565 57.6037C32.3748 57.6219 38.6767 63.8946 45.3492 60.8271C50.8103 58.3224 68.8396 41.0095 80.7477 29.0161L90.3599 28.6296Z" fill="black"/>
<path d="M31.8589 46.4545C31.4596 49.6689 31.6023 55.6002 36.6671 60.653C41.9396 65.913 47.3201 66.1808 50.4752 65.7071C48.2262 67.5288 46.853 68.6234 46.837 68.6361C46.837 68.6361 39.4949 71.9655 32.388 64.8754C25.9712 58.4814 28.6183 50.4606 28.6183 50.4606C28.6315 50.4442 29.8504 48.9206 31.8589 46.4545Z" fill="#006A4D"/>
<path d="M46.892 28.3449C48.1511 29.1924 39.3679 40.7772 38.3667 41.1934C37.3655 41.6096 36.88 40.5502 34.9156 40.2021C32.5567 39.7784 28.6278 38.5677 25.0174 41.7533C22.1958 44.2428 22.3172 45.5746 21.6118 44.4017C20.9064 43.2289 25.1994 34.5043 32.9056 29.5178C40.6118 24.5312 46.8996 28.3449 46.8996 28.3449H46.892Z" fill="#006A4D"/>
<path d="M69.0125 50.413C68.163 49.1569 56.5507 57.9193 56.1335 58.9181C55.7164 59.917 56.7782 60.4012 57.1271 62.361C57.5519 64.7143 58.7655 68.6339 55.5723 72.2358C53.0768 75.0506 51.7419 74.9296 52.9176 75.6333C54.0932 76.337 62.8385 72.0542 67.8369 64.3662C72.8353 56.6783 69.0125 50.4054 69.0125 50.4054V50.413Z" fill="black"/>
<path d="M68.6638 53.2808C67.5185 54.8623 65.8043 55.2331 65.8043 55.2331C65.8043 55.2331 68.9824 60.2196 65.4857 65.5845C68.459 62.5351 69.7181 56.9205 68.6638 53.2808Z" fill="#006A4D"/>
<path d="M41.8559 37.1421C40.2238 39.2963 38.7437 41.0367 38.3667 41.1934C37.3655 41.6096 36.88 40.5502 34.9156 40.2021C32.5567 39.7784 28.6278 38.5677 25.0174 41.7533C22.1958 44.2428 22.3172 45.5746 21.6118 44.4017C21.3395 43.9489 21.8123 42.3706 22.9387 40.3164C22.9624 41.2214 23.4895 41.522 25.4565 39.8465C27.9519 37.7203 32.5332 36.9331 35.6809 37.9546C37.3273 38.4887 39.293 39.0359 41.8559 37.1421Z" fill="black"/>
<path d="M44.0252 28.693C42.4324 29.2303 41.6436 31.3414 41.6436 31.3414C41.6436 31.3414 37.0623 28.3752 31.6923 31.8635C34.749 28.8973 40.3769 27.6412 44.0252 28.693Z" fill="white"/>
<path d="M32.4254 64.9122C32.8039 65.1794 38.2803 68.9611 42.1962 66.8728C42.3454 66.7909 44.1402 65.4636 44.3564 65.3275C46.4041 65.8968 48.2592 65.9429 49.7405 65.7974C49.7472 65.7967 49.7538 65.7961 49.7605 65.7954C49.8464 65.7869 49.9311 65.7774 50.0145 65.7676C50.0545 65.763 50.0941 65.7585 50.1335 65.7536C50.1791 65.7478 50.2243 65.7416 50.2692 65.7356C50.3322 65.7271 50.3944 65.7188 50.4557 65.7097C50.4622 65.7088 50.4688 65.7081 50.4752 65.7071C48.2278 67.5275 46.8549 68.6219 46.837 68.6361C46.837 68.6361 39.5207 71.9535 32.4254 64.9122Z" fill="black"/>
<path d="M65.5953 30.7111C68.7278 33.5411 68.9706 38.3764 66.1338 41.509C63.2971 44.6341 58.4504 44.8763 55.3103 42.0463C52.1778 39.2163 51.9351 34.3811 54.7718 31.2484C57.6161 28.1157 62.4552 27.8811 65.5953 30.7111Z" fill="#C7FFC6"/>
<path d="M64.6387 31.7705C67.1645 34.0481 67.3541 37.9375 65.0711 40.4572C62.788 42.977 58.8894 43.1662 56.3637 40.8885C53.8455 38.6109 53.6483 34.7216 55.9314 32.2018C58.2144 29.6821 62.113 29.4929 64.6387 31.7705Z" fill="#00482F"/>
<path d="M55.2879 35.9474C55.614 33.6168 57.4344 31.778 59.7174 31.43C61.8563 31.1046 64.0028 32.1564 65.095 34.0708C63.5477 32.3909 61.295 31.7856 59.4823 32.5196C58.0184 33.1098 57.3206 34.3735 57.1007 34.8199C56.9338 34.8199 56.7442 34.8426 56.5318 34.9107C55.8036 35.1377 55.4168 35.7355 55.2955 35.9474H55.2879Z" fill="white"/>
<path d="M24.4389 74.9633L0.39467 97.5553C0.304925 97.6374 0.170307 97.6299 0.0805618 97.5479L0.0057742 97.4733C-0.0839709 97.3837 -0.0839709 97.2494 -0.00170457 97.1599L22.644 73.1727C24.4838 71.2253 26.518 69.8227 26.9667 70.2703L27.3556 70.6583C27.8043 71.106 26.3983 73.1354 24.4464 74.9708L24.4389 74.9633Z" fill="white"/>
<path d="M32.9122 77.0449L14.7538 92.9817C14.6865 93.0414 14.5668 93.0116 14.4845 92.9295L14.4097 92.8549C14.3275 92.7653 14.305 92.646 14.3649 92.5863L31.1547 75.217C32.5158 73.8069 34.1088 72.8966 34.5501 73.3592L34.924 73.7546C35.3652 74.2172 34.378 75.7616 32.9047 77.0524L32.9122 77.0449Z" fill="white"/>
<path d="M22.0086 66.1668L4.62796 82.9392C4.56813 82.9989 4.44099 82.984 4.35872 82.8944L4.28393 82.8198C4.19419 82.7377 4.17175 82.6184 4.23158 82.5512L20.1763 64.4134C21.4701 62.9436 23.0182 61.9588 23.4819 62.399L23.8783 62.772C24.342 63.2122 23.4296 64.8014 22.0236 66.1668H22.0086Z" fill="white"/>
<path d="M82.6915 56.2585C82.6915 56.2585 86.7076 47.5366 99.9375 56.2436L82.6915 56.2585Z" fill="white"/>
<path d="M36.5322 10.6865C36.248 10.4477 35.9937 10.1792 35.7319 9.91802C35.1112 9.27637 33.3612 7.76924 30.8034 8.05276C29.734 8.17959 28.9113 8.66456 28.3354 9.15699C26.892 6.65008 24.1772 4.95643 21.0661 4.95643C16.4293 4.95643 12.6749 8.70187 12.6749 13.3277V14.1335H47.5185C41.3634 14.1335 38.4168 12.3055 36.5471 10.694L36.5322 10.6865Z" fill="white"/>
</g>
<defs>
<clipPath id="clip0_15980_13557">
<rect width="100" height="100" fill="white"/>
</clipPath>
</defs>
</svg>
