<svg width="100" height="100" viewBox="0 0 100 100" fill="none" xmlns="http://www.w3.org/2000/svg">
<g clip-path="url(#clip0_15980_13571)">
<rect width="100" height="100" fill="#024731"/>
<path d="M44.8941 9.35727C45.2436 9.06149 45.5573 8.72986 45.88 8.4072C46.6417 7.6095 48.8015 5.7452 51.965 6.10372C53.2824 6.25609 54.3041 6.85661 55.012 7.46609C56.7955 4.36491 60.1472 2.26758 63.9829 2.26758C69.7005 2.26758 74.3339 6.90142 74.3339 12.6198V13.6147H31.3437C38.9344 13.6147 42.5729 11.356 44.8851 9.35727H44.8941Z" fill="white"/>
<path d="M22.0591 59.5526C23.2779 59.5167 24.4788 59.3554 25.6438 59.0686V25.7892C24.4788 25.5023 23.2779 25.341 22.0591 25.3052V59.5526ZM11.0002 55.9316C12.1115 56.801 13.3124 57.527 14.5849 58.1006V26.784C13.3124 27.3487 12.1115 28.0657 11.0002 28.9352V55.9316ZM34.3459 31.0594C33.9336 30.5933 33.4497 30.0645 32.9568 29.6163C32.894 29.5626 32.8224 29.5088 32.7596 29.455V55.4027C33.0733 55.1339 33.3869 54.856 33.6916 54.5602L36.3444 51.8893V33.327L34.3459 31.0594Z" fill="black"/>
<path d="M85.0613 66.7501C84.8462 65.9076 84.1113 65.3071 83.251 65.2443L71.4661 64.4198C71.4034 64.4198 71.3407 64.4198 71.278 64.4198C70.6954 64.4198 70.1308 64.608 69.6558 64.9575L59.1615 72.8718C58.8389 73.1138 58.9823 73.6337 59.3856 73.6785L70.8478 74.8526C72.2727 74.996 73.4468 76.0357 73.7784 77.425L75.5707 85.0256C75.6693 85.4558 76.0546 85.7247 76.449 85.7247C76.6372 85.7247 76.8253 85.6619 76.9867 85.5365C80.2757 82.9372 83.6632 79.6747 86.6833 75.6414C87.006 75.2022 87.1136 74.6375 86.9791 74.1177L85.0703 66.7591L85.0613 66.7501ZM94.283 58.9344L93.6377 55.9139C93.4585 55.0804 92.7327 54.4978 91.8902 54.4978C91.8633 54.4978 91.8275 54.4978 91.8006 54.4978C89.605 54.6053 85.2674 54.8204 80.4728 55.0266C80.0158 55.0445 79.5855 55.2417 79.2719 55.5644L72.5684 62.4031C72.2996 62.672 72.4789 63.138 72.8553 63.1649L83.3406 63.8999C84.7834 63.9985 85.9933 65.0113 86.3607 66.4095L87.938 72.4864C87.9918 72.7015 88.1889 72.827 88.3771 72.827C88.5205 72.827 88.664 72.7643 88.7446 72.6208C90.9492 69.1612 92.8491 65.2175 94.2113 60.7181C94.3906 60.1444 94.4085 59.526 94.2741 58.9344H94.283ZM70.7044 76.1881L57.0645 74.7899C56.8763 74.772 56.697 74.763 56.5088 74.763C56.0518 74.763 55.6037 74.8168 55.1556 74.9333C50.6567 76.1074 39.3199 79.6926 37.5186 86.3162C37.5186 86.3162 35.2602 93.63 48.8015 94.6876C49.7605 94.7593 50.7284 94.8042 51.6784 94.8042C59.5021 94.8042 67.1465 92.3304 73.6797 87.9475C73.9485 87.2574 74.1457 86.7465 74.4056 86.0563L72.4429 77.7387C72.2458 76.9051 71.5378 76.2867 70.6864 76.1971L70.7044 76.1881Z" fill="#6CF479"/>
<path d="M50.2713 77.7359C52.3235 77.0368 55.4423 76.006 56.3833 75.8268L68.5266 76.992L63.8038 79.5106C63.1585 79.8512 62.4325 79.9946 61.7066 79.9139L50.3698 78.6053C49.8948 78.5515 49.8232 77.8883 50.2802 77.7359H50.2713Z" fill="black"/>
<path d="M61.5721 72.6954L70.9821 65.6594L81.342 66.3317L72.7028 73.5827L61.5721 72.6954Z" fill="black"/>
<path d="M74.7729 62.1586L80.2666 56.3326L90.2142 55.9472L84.8818 62.7053L74.7729 62.1586Z" fill="black"/>
<path d="M94.2826 58.9311L93.6374 55.9105C93.5478 55.4803 93.2969 55.1129 92.9743 54.8619L85.2581 64.6674C85.7868 65.1065 86.1812 65.7071 86.3604 66.4062L87.5971 71.1655L87.9377 72.483C88.0363 72.8595 88.5382 72.9491 88.7533 72.6175C90.9579 69.1578 92.8578 65.2141 94.22 60.7147C94.3992 60.1411 94.4171 59.5226 94.2826 58.9311ZM85.061 66.7468C84.9355 66.2538 84.6307 65.8505 84.2275 65.5816L72.7294 75.6739C73.2403 76.122 73.6167 76.7315 73.778 77.4216L75.5792 85.076C75.7316 85.7124 76.4845 85.9812 77.0043 85.5779C81.1178 82.423 84.9086 78.1566 86.7009 76.0234C87.0773 75.5753 87.2028 74.9837 87.0594 74.428L85.061 66.7557V66.7468ZM72.2634 77.2334C72.2365 77.1886 72.2186 77.1348 72.1828 77.099C72.1111 76.9914 72.0214 76.8928 71.9318 76.7942C71.8601 76.7225 71.7884 76.6508 71.7078 76.597C69.6555 77.807 62.1814 81.9838 60.4428 83.0414C60.4428 83.0414 53.0492 86.9851 53.7841 91.0812C54.3128 93.9852 56.7952 94.263 59.896 93.8866C65.1476 92.7214 70.247 90.409 74.701 87.245C74.7368 87.2181 72.4605 77.7353 72.4605 77.7353C72.4157 77.5561 72.3441 77.3947 72.2634 77.2424V77.2334Z" fill="#11B67A"/>
<path d="M92.4458 31.614C84.3622 24.2195 72.8283 23.4846 62.7821 29.0506C62.7463 29.0685 62.7194 29.0775 62.6835 29.0954C60.2369 30.4667 57.8799 32.2055 55.6843 34.3118L34.6239 55.5092C30.9764 59.1571 26.1281 61.0662 20.975 60.9139C15.8219 60.7525 11.099 58.5297 7.66662 54.6398C1.51878 47.6756 1.51878 37.171 7.66662 30.2158C10.9646 26.4872 15.4993 24.2644 20.4373 23.9686C25.3932 23.6728 30.143 25.322 33.8353 28.6024C34.3282 29.0416 34.7942 29.5435 35.3409 30.153L45.5932 41.778L47.6096 40.0033L37.3573 28.3694C36.7479 27.6882 36.2281 27.1235 35.6276 26.5858C31.3976 22.8213 25.9488 20.9212 20.276 21.2707C14.6121 21.6113 9.42314 24.1478 5.6502 28.4232C-1.39382 36.4002 -1.39382 48.4374 5.6502 56.4145C9.57549 60.8601 14.9885 63.4056 20.8944 63.5938C21.1095 63.5938 21.3245 63.6027 21.5396 63.6027C27.1318 63.6027 32.5627 61.362 36.5328 57.4004L57.5662 36.2299C59.6096 34.267 61.8052 32.6626 64.0815 31.3989C72.5863 27.3476 78.3578 32.0442 79.4332 33.0391C82.4085 35.7728 85.5183 43.7857 84.183 53.5105C85.1419 53.4656 86.0649 53.4208 86.9163 53.385C87.5168 48.536 87.0597 44.4848 86.4593 41.6794C85.4735 37.0635 83.5736 33.1915 81.2525 31.0583C80.67 30.5205 78.9493 29.0864 76.3324 28.1005C81.5662 28.1005 86.5848 29.9021 90.6265 33.5948C96.1381 38.632 98.5309 48.9573 96.5952 59.2826C94.7938 68.8819 87.8125 86.3866 61.4736 97.2586H67.9979C91.0119 85.8398 97.4644 69.2046 99.2389 59.7756C101.345 48.5719 98.6116 37.2517 92.4369 31.605L92.4458 31.614Z" fill="#6CF479"/>
<path d="M40.6552 94.0678C36.6224 95.4033 32.7598 96.452 29.3095 97.2676H39.4813C41.2199 96.7208 42.9943 96.1293 44.7956 95.475C43.2004 95.1344 41.8292 94.6594 40.6552 94.0678Z" fill="#6CF479"/>
<path d="M47.7618 48.0276L44.177 51.6397V77.704C45.351 77.0676 46.5698 76.5029 47.7618 76.001V48.0276Z" fill="#11B67A"/>
<path d="M68.8492 63.8814C69.1629 63.6484 69.5123 63.4602 69.8797 63.3257V31.0681C68.7237 31.1846 67.5317 31.4714 66.295 31.9375V65.8084L68.8492 63.8814Z" fill="#11B67A"/>
<path d="M56.5177 73.418C56.7507 73.418 56.9836 73.4269 57.2077 73.4538L57.6737 73.4987C57.5751 72.8533 57.8171 72.199 58.3458 71.7957L58.8119 71.4461V36.894L58.5251 37.1808L55.2271 40.506V73.5614C55.6483 73.4807 56.0785 73.4269 56.5087 73.4269L56.5177 73.418Z" fill="#11B67A"/>
<path d="M78.304 54.6336C78.8596 54.06 79.6124 53.7284 80.41 53.6925C80.5892 53.6925 80.7596 53.6746 80.9298 53.6656V37.5413C80.1502 35.919 79.2718 34.7269 78.519 34.0368C78.1426 33.6872 77.7484 33.3735 77.3451 33.0777V55.6016L78.304 54.6246V54.6336Z" fill="#11B67A"/>
<path d="M22.0594 85.9507H25.6442V64.5741C24.4612 64.7982 23.2693 64.9236 22.0594 64.9505V85.9597V85.9507Z" fill="#11B67A"/>
<path d="M-0.0585938 85.951H3.52615V55.9161C1.87717 53.7113 0.676279 51.2733 -0.0585938 48.7279V85.951Z" fill="#11B67A"/>
<path d="M36.703 84.6657V59.1123C35.6007 60.1161 34.3908 61.0035 33.1182 61.7564V85.9563H36.237C36.3535 85.5171 36.5148 85.0869 36.703 84.6657Z" fill="#11B67A"/>
<path d="M11.0002 85.9488H14.5849V63.8551C13.3482 63.4517 12.1473 62.9498 11.0002 62.3403V85.9488Z" fill="#11B67A"/>
</g>
<defs>
<clipPath id="clip0_15980_13571">
<rect width="100" height="100" fill="white"/>
</clipPath>
</defs>
</svg>
