<svg width="100" height="100" viewBox="0 0 100 100" fill="none" xmlns="http://www.w3.org/2000/svg">
<g clip-path="url(#clip0_15980_13573)">
<rect width="100" height="100" fill="#024731"/>
<path d="M44.8941 9.67758C45.2436 9.38181 45.5573 9.05018 45.88 8.72751C46.6417 7.92981 48.8015 6.06552 51.965 6.42403C53.2824 6.5764 54.3041 7.17692 55.012 7.7864C56.7955 4.68522 60.1472 2.58789 63.9829 2.58789C69.7005 2.58789 74.3339 7.22173 74.3339 12.9401V13.935H31.3437C38.9344 13.935 42.5729 11.6763 44.8851 9.67758H44.8941Z" fill="white"/>
<path d="M22.0591 59.8729C23.2779 59.8371 24.4788 59.6757 25.6438 59.3889V26.1095C24.4788 25.8227 23.2779 25.6613 22.0591 25.6255V59.8729ZM11.0002 56.2519C12.1115 57.1213 13.3124 57.8473 14.5849 58.4209V27.1044C13.3124 27.669 12.1115 28.3861 11.0002 29.2555V56.2519ZM34.3459 31.3797C33.9336 30.9136 33.4497 30.3848 32.9568 29.9367C32.894 29.8829 32.8224 29.8291 32.7596 29.7753V55.7231C33.0733 55.4542 33.3869 55.1763 33.6916 54.8805L36.3444 52.2096V33.6473L34.3459 31.3797Z" fill="black"/>
<path d="M85.0613 67.0704C84.8462 66.2279 84.1113 65.6274 83.251 65.5647L71.4661 64.7401C71.4034 64.7401 71.3407 64.7401 71.278 64.7401C70.6954 64.7401 70.1308 64.9283 69.6558 65.2778L59.1615 73.1921C58.8389 73.4341 58.9823 73.954 59.3856 73.9988L70.8478 75.1729C72.2727 75.3164 73.4468 76.356 73.7784 77.7453L75.5707 85.3459C75.6693 85.7761 76.0546 86.045 76.449 86.045C76.6372 86.045 76.8253 85.9823 76.9867 85.8568C80.2757 83.2575 83.6632 79.995 86.6833 75.9617C87.006 75.5225 87.1136 74.9578 86.9791 74.438L85.0703 67.0794L85.0613 67.0704ZM94.283 59.2547L93.6377 56.2342C93.4585 55.4007 92.7327 54.8181 91.8902 54.8181C91.8633 54.8181 91.8275 54.8181 91.8006 54.8181C89.605 54.9256 85.2674 55.1407 80.4728 55.3469C80.0158 55.3648 79.5855 55.562 79.2719 55.8847L72.5684 62.7234C72.2996 62.9923 72.4789 63.4584 72.8553 63.4852L83.3406 64.2202C84.7834 64.3188 85.9933 65.3316 86.3607 66.7298L87.938 72.8067C87.9918 73.0218 88.1889 73.1473 88.3771 73.1473C88.5205 73.1473 88.664 73.0846 88.7446 72.9412C90.9492 69.4815 92.8491 65.5378 94.2113 61.0384C94.3906 60.4647 94.4085 59.8463 94.2741 59.2547H94.283ZM70.7044 76.5084L57.0645 75.1102C56.8763 75.0923 56.697 75.0833 56.5088 75.0833C56.0518 75.0833 55.6037 75.1371 55.1556 75.2536C50.6567 76.4277 39.3199 80.0129 37.5186 86.6366C37.5186 86.6366 35.2602 93.9503 48.8015 95.0079C49.7605 95.0796 50.7284 95.1245 51.6784 95.1245C59.5021 95.1245 67.1465 92.6507 73.6797 88.2678C73.9485 87.5777 74.1457 87.0668 74.4056 86.3766L72.4429 78.059C72.2458 77.2255 71.5378 76.607 70.6864 76.5174L70.7044 76.5084Z" fill="#6CF479"/>
<path d="M50.2713 78.0562C52.3235 77.3571 55.4423 76.3264 56.3833 76.1471L68.5266 77.3123L63.8038 79.8309C63.1585 80.1715 62.4325 80.3149 61.7066 80.2342L50.3698 78.9256C49.8948 78.8718 49.8232 78.2086 50.2802 78.0562H50.2713Z" fill="black"/>
<path d="M61.5721 73.0157L70.9821 65.9798L81.342 66.652L72.7028 73.903L61.5721 73.0157Z" fill="black"/>
<path d="M74.7729 62.4789L80.2666 56.653L90.2142 56.2676L84.8818 63.0256L74.7729 62.4789Z" fill="black"/>
<path d="M94.2826 59.2514L93.6374 56.2309C93.5478 55.8006 93.2969 55.4332 92.9743 55.1822L85.2581 64.9877C85.7868 65.4269 86.1812 66.0274 86.3604 66.7265L87.5971 71.4858L87.9377 72.8034C88.0363 73.1798 88.5382 73.2694 88.7533 72.9378C90.9579 69.4781 92.8578 65.5344 94.22 61.035C94.3992 60.4614 94.4171 59.8429 94.2826 59.2514ZM85.061 67.0671C84.9355 66.5741 84.6307 66.1708 84.2275 65.9019L72.7294 75.9942C73.2403 76.4423 73.6167 77.0518 73.778 77.7419L75.5792 85.3963C75.7316 86.0327 76.4845 86.3016 77.0043 85.8982C81.1178 82.7433 84.9086 78.4769 86.7009 76.3437C87.0773 75.8956 87.2028 75.304 87.0594 74.7483L85.061 67.076V67.0671ZM72.2634 77.5537C72.2365 77.5089 72.2186 77.4551 72.1828 77.4193C72.1111 77.3117 72.0214 77.2131 71.9318 77.1145C71.8601 77.0428 71.7884 76.9711 71.7078 76.9174C69.6555 78.1273 62.1814 82.3041 60.4428 83.3617C60.4428 83.3617 53.0492 87.3054 53.7841 91.4015C54.3128 94.3055 56.7952 94.5833 59.896 94.2069C65.1476 93.0417 70.247 90.7293 74.701 87.5653C74.7368 87.5385 72.4605 78.0556 72.4605 78.0556C72.4157 77.8764 72.3441 77.7151 72.2634 77.5627V77.5537Z" fill="#11B67A"/>
<path d="M92.4458 31.9343C84.3622 24.5399 72.8283 23.8049 62.7821 29.3709C62.7463 29.3888 62.7194 29.3978 62.6835 29.4157C60.2369 30.787 57.8799 32.5258 55.6843 34.6321L34.6239 55.8295C30.9764 59.4774 26.1281 61.3865 20.975 61.2342C15.8219 61.0728 11.099 58.85 7.66662 54.9601C1.51878 47.9959 1.51878 37.4913 7.66662 30.5361C10.9646 26.8075 15.4993 24.5847 20.4373 24.2889C25.3932 23.9931 30.143 25.6423 33.8353 28.9227C34.3282 29.3619 34.7942 29.8638 35.3409 30.4733L45.5932 42.0983L47.6096 40.3236L37.3573 28.6897C36.7479 28.0085 36.2281 27.4439 35.6276 26.9061C31.3976 23.1416 25.9488 21.2415 20.276 21.591C14.6121 21.9316 9.42314 24.4682 5.6502 28.7435C-1.39382 36.7205 -1.39382 48.7578 5.6502 56.7348C9.57549 61.1804 14.9885 63.7259 20.8944 63.9141C21.1095 63.9141 21.3245 63.9231 21.5396 63.9231C27.1318 63.9231 32.5627 61.6823 36.5328 57.7207L57.5662 36.5502C59.6096 34.5873 61.8052 32.983 64.0815 31.7192C72.5863 27.6679 78.3578 32.3645 79.4332 33.3594C82.4085 36.0931 85.5183 44.106 84.183 53.8308C85.1419 53.786 86.0649 53.7411 86.9163 53.7053C87.5168 48.8563 87.0597 44.8051 86.4593 41.9997C85.4735 37.3838 83.5736 33.5118 81.2525 31.3786C80.67 30.8408 78.9493 29.4067 76.3324 28.4208C81.5662 28.4208 86.5848 30.2224 90.6265 33.9151C96.1381 38.9523 98.5309 49.2776 96.5952 59.6029C94.7938 69.2022 87.8125 86.7069 61.4736 97.5789H67.9979C91.0119 86.1601 97.4644 69.5249 99.2389 60.0959C101.345 48.8922 98.6116 37.572 92.4369 31.9253L92.4458 31.9343Z" fill="#6CF479"/>
<path d="M40.6552 94.3881C36.6224 95.7236 32.7598 96.7723 29.3095 97.5879H39.4813C41.2199 97.0412 42.9943 96.4496 44.7956 95.7953C43.2004 95.4547 41.8292 94.9797 40.6552 94.3881Z" fill="#6CF479"/>
<path d="M47.7618 48.3479L44.177 51.96V78.0243C45.351 77.3879 46.5698 76.8232 47.7618 76.3213V48.3479Z" fill="#11B67A"/>
<path d="M68.8492 64.2017C69.1629 63.9687 69.5123 63.7805 69.8797 63.646V31.3884C68.7237 31.5049 67.5317 31.7917 66.295 32.2578V66.1288L68.8492 64.2017Z" fill="#11B67A"/>
<path d="M56.5177 73.7383C56.7507 73.7383 56.9836 73.7473 57.2077 73.7741L57.6737 73.819C57.5751 73.1736 57.8171 72.5193 58.3458 72.116L58.8119 71.7665V37.2143L58.5251 37.5011L55.2271 40.8264V73.8817C55.6483 73.801 56.0785 73.7473 56.5087 73.7473L56.5177 73.7383Z" fill="#11B67A"/>
<path d="M78.304 54.9539C78.8596 54.3803 79.6124 54.0487 80.41 54.0128C80.5892 54.0128 80.7596 53.9949 80.9298 53.9859V37.8616C80.1502 36.2393 79.2718 35.0472 78.519 34.3571C78.1426 34.0075 77.7484 33.6938 77.3451 33.398V55.9219L78.304 54.945V54.9539Z" fill="#11B67A"/>
<path d="M22.0594 86.271H25.6442V64.8944C24.4612 65.1185 23.2693 65.2439 22.0594 65.2708V86.28V86.271Z" fill="#11B67A"/>
<path d="M-0.0585938 86.2713H3.52615V56.2365C1.87717 54.0316 0.676279 51.5937 -0.0585938 49.0482V86.2713Z" fill="#11B67A"/>
<path d="M36.703 84.986V59.4326C35.6007 60.4364 34.3908 61.3238 33.1182 62.0767V86.2766H36.237C36.3535 85.8374 36.5148 85.4072 36.703 84.986Z" fill="#11B67A"/>
<path d="M11.0002 86.2691H14.5849V64.1754C13.3482 63.7721 12.1473 63.2701 11.0002 62.6607V86.2691Z" fill="#11B67A"/>
</g>
<defs>
<clipPath id="clip0_15980_13573">
<rect width="100" height="100" fill="white"/>
</clipPath>
</defs>
</svg>
