<svg width="100" height="100" viewBox="0 0 100 100" fill="none" xmlns="http://www.w3.org/2000/svg">
<g clip-path="url(#clip0_15980_13586)">
<rect width="100" height="100" fill="#024731"/>
<path fill-rule="evenodd" clip-rule="evenodd" d="M36.7414 43.0498L39.231 44.4991L48.6227 49.9232C49.1249 50.2101 49.4119 50.7124 49.4119 51.2863V65.033C49.4119 65.6069 49.1249 66.1092 48.6227 66.3962C48.1204 66.6831 47.5465 66.6831 47.0514 66.3962L35.1702 59.5228C34.668 59.2359 34.381 58.7336 34.381 58.1597V44.4274C34.381 43.8391 34.668 43.3368 35.1702 43.0498C35.6724 42.7628 36.2464 42.7628 36.7414 43.0498Z" fill="black"/>
<path fill-rule="evenodd" clip-rule="evenodd" d="M36.7415 62.0774L48.6228 68.9507C49.125 69.2377 49.412 69.7399 49.412 70.3139V84.0605C49.412 84.6345 49.125 85.1367 48.6228 85.4237C48.1205 85.7107 47.5466 85.7107 47.0515 85.4237L35.1703 78.5504C34.6681 78.2634 34.3811 77.7612 34.3811 77.1872V63.4406C34.3811 62.8666 34.6681 62.3644 35.1703 62.0774C35.6725 61.7904 36.2465 61.7904 36.7415 62.0774Z" fill="black"/>
<path fill-rule="evenodd" clip-rule="evenodd" d="M68.1091 59.4295L80.0047 52.5706C80.5069 52.2692 81.0809 52.2692 81.5759 52.5706C82.0781 52.8576 82.3651 53.3454 82.3651 53.9338V67.6804C82.3651 68.2544 82.0781 68.7566 81.5759 69.0436L69.6803 75.9169C69.1781 76.2039 68.6041 76.2039 68.1091 75.9169C67.6069 75.6156 67.3199 75.1277 67.3199 74.5394V60.7927C67.3199 60.2188 67.6069 59.7165 68.1091 59.4295Z" fill="#11B67A"/>
<path fill-rule="evenodd" clip-rule="evenodd" d="M51.6286 68.9507L63.5242 62.0774C64.0264 61.7904 64.6004 61.7904 65.0954 62.0774C65.5976 62.3644 65.8846 62.8666 65.8846 63.4406V77.1872C65.8846 77.7612 65.5976 78.2634 65.0954 78.5504L53.1998 85.4237C52.6976 85.7107 52.1236 85.7107 51.6286 85.4237C51.1264 85.1367 50.8394 84.6345 50.8394 84.0605V70.3139C50.8394 69.7399 51.1264 69.2377 51.6286 68.9507Z" fill="#11B67A"/>
<path fill-rule="evenodd" clip-rule="evenodd" d="M67.3199 42.2613C67.3199 41.3932 67.779 40.5896 68.5324 40.1592C71.065 38.7027 76.9267 35.3163 80.0047 33.5441C80.5069 33.2571 81.0809 33.2571 81.5759 33.5441C82.0781 33.8311 82.3651 34.3333 82.3651 34.9073V48.654C82.3651 49.2279 82.0781 49.7301 81.5759 50.0171L69.6803 56.8905C69.1781 57.1774 68.6041 57.1774 68.1091 56.8905C67.6069 56.6035 67.3199 56.1012 67.3199 55.5129V42.2613Z" fill="#11B67A"/>
<path fill-rule="evenodd" clip-rule="evenodd" d="M67.8219 38.932C67.0686 39.3697 66.143 39.3697 65.3969 38.932L53.9246 32.3027C53.4224 32.0157 53.1354 31.5278 53.1354 30.9395C53.1354 30.3655 53.4224 29.8633 53.9246 29.5763L65.8202 22.703C66.3224 22.416 66.8964 22.416 67.3914 22.703L79.287 29.5763C79.7892 29.8633 80.0762 30.3655 80.0762 30.9395C80.0762 31.5135 79.7892 32.0157 79.287 32.3027L67.8147 38.932H67.8219Z" fill="#6CF479"/>
<path fill-rule="evenodd" clip-rule="evenodd" d="M57.9643 28.4997L65.9569 24.1375C66.4591 23.8505 67.0331 23.8505 67.5281 24.1375L75.4274 28.3275C75.9296 28.6145 71.1083 26.2899 66.9685 26.1751C63.1013 26.0747 57.4621 28.7867 57.9643 28.4997Z" fill="white"/>
<path fill-rule="evenodd" clip-rule="evenodd" d="M51.6287 49.9232L63.5243 43.0498C64.0266 42.7628 64.6005 42.7628 65.0956 43.0498C65.5978 43.3368 65.8848 43.8391 65.8848 44.4274V58.1597C65.8848 58.7336 65.5978 59.2359 65.0956 59.5228L53.2 66.3962C52.6978 66.6831 52.1238 66.6831 51.6287 66.3962C51.1337 66.1092 50.8395 65.6069 50.8395 65.033V51.2863C50.8395 50.7124 51.1265 50.2101 51.6287 49.9232Z" fill="#11B67A"/>
<path fill-rule="evenodd" clip-rule="evenodd" d="M37.4447 39.0898L49.3402 32.2165C49.8425 31.9295 50.4164 31.9295 50.9115 32.2165L62.8071 39.0898C63.3093 39.3768 63.5963 39.879 63.5963 40.4673C63.5963 41.0413 63.3093 41.5435 62.8071 41.8305L50.9115 48.7038C50.4093 48.9908 49.8353 48.9908 49.3402 48.7038L37.4447 41.8305C36.9424 41.5435 36.6554 41.0413 36.6554 40.4673C36.6554 39.8934 36.9424 39.3768 37.4447 39.0898Z" fill="#6CF479"/>
<path fill-rule="evenodd" clip-rule="evenodd" d="M22.9229 60.5635L32.9029 65.5571V66.4611C32.9029 66.4611 32.9029 66.7194 32.9029 70.0125V80.3368L28.9496 78.3495C28.347 78.0481 27.8304 77.5172 27.5721 76.8858L21.2871 62.0558C21.0145 61.4388 21.0719 60.8935 21.4162 60.5779C21.7606 60.2622 22.3202 60.2478 22.9229 60.5635Z" fill="black"/>
<path fill-rule="evenodd" clip-rule="evenodd" d="M30.9156 48.8545L32.9101 53.6543V64.0361L21.0145 57.952C20.4119 57.6363 19.9096 57.1053 19.6513 56.474L13.4668 41.6009C13.2085 40.9695 13.2659 40.4386 13.6103 40.1229C13.969 39.8073 14.5143 39.8073 15.1313 40.1086L29.782 47.6204C30.2914 47.8859 30.6931 48.3164 30.9156 48.8473V48.8545Z" fill="black"/>
<path fill-rule="evenodd" clip-rule="evenodd" d="M29.007 43.9111C28.268 44.5066 27.2492 44.607 26.4026 44.1837L16.6092 39.2691L15.4469 38.6808C14.959 38.4368 14.672 37.949 14.6576 37.3176C14.6433 36.6862 14.9159 36.1123 15.3895 35.7463L26.668 26.7278C27.1415 26.3547 27.6868 26.2686 28.1747 26.5126L39.7546 32.324C40.2425 32.568 40.5295 33.0702 40.5438 33.6872C40.5582 34.3186 40.2999 34.8926 39.812 35.2585L28.9998 43.9039L29.007 43.9111Z" fill="#6CF479"/>
<path fill-rule="evenodd" clip-rule="evenodd" d="M44.375 31.4129C43.636 32.0084 42.6244 32.116 41.7778 31.6999L31.9629 26.8355L30.8006 26.2472C30.2983 26.0176 30.0114 25.5154 29.997 24.884C29.9827 24.267 30.2409 23.693 30.7145 23.3127L41.95 14.2511C42.4379 13.8637 42.9831 13.792 43.471 14.0359L55.0796 19.79C55.5675 20.0339 55.8545 20.5218 55.8688 21.1532C55.8832 21.7702 55.6249 22.3585 55.1513 22.7244L44.375 31.4129Z" fill="#6CF479"/>
<path fill-rule="evenodd" clip-rule="evenodd" d="M34.8902 21.5691L42.0792 15.772C42.5671 15.3845 43.1124 15.3128 43.6003 15.5567L50.9758 19.2086C51.4637 19.4526 47.7472 17.8167 42.6317 18.2329C39.3098 18.5055 34.4239 21.9493 34.8974 21.5691H34.8902Z" fill="white"/>
<path fill-rule="evenodd" clip-rule="evenodd" d="M19.838 34.1676L27.027 28.3705C27.5148 27.983 28.0601 27.9113 28.548 28.1552L35.9235 31.8071C36.4114 32.0511 32.6949 30.4153 27.5794 30.8314C24.2575 31.104 19.3716 34.5479 19.8451 34.1676H19.838Z" fill="white"/>
<path fill-rule="evenodd" clip-rule="evenodd" d="M41.3904 37.9559L49.383 33.5937C49.8852 33.3067 50.4592 33.3067 50.9542 33.5937L58.8535 37.7837C59.3557 38.0707 54.5344 35.7461 50.3946 35.6313C46.5274 35.5308 40.8882 38.2429 41.3904 37.9559Z" fill="white"/>
<path fill-rule="evenodd" clip-rule="evenodd" d="M65.2386 45.5903L64.9445 57.1415C64.9445 57.8734 64.5786 58.5047 63.94 58.8706L54.3116 64.883C53.6803 65.2489 59.298 61.4392 62.0531 56.9622C64.6288 52.7794 65.2386 44.8585 65.2315 45.5903H65.2386Z" fill="#006A4D"/>
<path fill-rule="evenodd" clip-rule="evenodd" d="M64.773 64.2797L64.4789 75.8309C64.4789 76.5627 64.1129 77.194 63.4744 77.5599L53.846 83.5723C53.2146 83.9382 58.8324 80.1285 61.5875 75.6515C64.1632 71.4687 64.773 63.5478 64.7658 64.2797H64.773Z" fill="#006A4D"/>
<path fill-rule="evenodd" clip-rule="evenodd" d="M81.2242 54.6014L80.93 66.1526C80.93 66.8844 80.5641 67.5158 79.9256 67.8817L70.2972 73.8941C69.6658 74.26 75.2836 70.4502 78.0386 65.9733C80.6143 61.7904 81.2242 53.8696 81.217 54.6014H81.2242Z" fill="#006A4D"/>
<path fill-rule="evenodd" clip-rule="evenodd" d="M81.2243 35.9112L80.9301 47.4624C80.9301 48.1942 80.5642 48.8256 79.9257 49.1915L70.2973 55.2039C69.6659 55.5698 75.2837 51.76 78.0388 47.283C80.6145 43.1002 81.2243 35.1794 81.2171 35.9112H81.2243Z" fill="#006A4D"/>
<path d="M97.3462 66.1239C98.157 70.8663 94.0531 74.7334 88.012 75.1783C87.0793 77.9046 84.066 79.8992 80.0769 80.4301C82.9539 80.796 86.1323 80.6095 89.2748 79.8633C97.2171 77.9836 101.823 70.6295 99.2045 64.9687C97.9704 62.3069 95.4019 60.3554 92.1733 59.2864C94.9212 60.9868 96.8799 63.419 97.3391 66.1167L97.3462 66.1239Z" fill="white"/>
<path d="M2.5399 36.0766C1.72916 31.3342 5.83306 27.467 11.8741 27.0222C12.8068 24.2958 15.8202 22.3013 19.8093 21.7703C16.9323 21.4044 13.7539 21.591 10.6114 22.3371C2.66187 24.2097 -1.94426 31.5637 0.681662 37.2245C1.9157 39.8863 4.48423 41.8378 7.71282 42.9069C4.96493 41.2065 3.00625 38.7743 2.54707 36.0766H2.5399Z" fill="white"/>
</g>
<defs>
<clipPath id="clip0_15980_13586">
<rect width="100" height="100" fill="white"/>
</clipPath>
</defs>
</svg>
