<svg width="100" height="100" viewBox="0 0 100 100" fill="none" xmlns="http://www.w3.org/2000/svg">
<g clip-path="url(#clip0_15980_13628)">
<rect width="100" height="100" fill="#024731"/>
<path d="M84.2734 14.8428L26.6886 4.53943L5.30725 72.488L1.29375 73.5677L3.24405 76.7965C3.68543 77.5677 4.45528 78.1127 5.32778 78.2669L71.4631 90.1024C72.4588 90.2772 73.434 89.6911 73.7419 88.7245L91.5306 32.1898C91.8385 31.2027 91.7564 30.1332 91.3048 29.1975L84.2837 14.8428H84.2734Z" fill="black"/>
<path d="M79.8903 9.52881L34.7462 1.44656L26.8937 26.4029C26.4934 27.6574 27.294 28.9838 28.5874 29.2101L68.4554 36.3463C70.0772 36.6342 71.658 35.6779 72.1507 34.1047L79.88 9.51858L79.8903 9.52881Z" fill="#11B67A"/>
<path d="M80.3317 9.60805L25.5491 -0.201699C24.5534 -0.376506 23.5783 0.209577 23.2703 1.17616L1.03702 71.8497C0.667496 73.0117 1.40655 74.225 2.60752 74.4409L69.2459 86.369C70.2415 86.5438 71.2167 85.9577 71.5246 84.9911L89.4673 27.9525C89.7752 26.9654 89.6931 25.896 89.2414 24.9602L82.5181 11.243C82.0972 10.3793 81.2863 9.77256 80.342 9.59775L80.3317 9.60805Z" fill="#11B67A"/>
<path d="M20.1704 43.2154L9.93654 75.7501L61.2189 84.9326L71.576 52.0175C71.9763 50.763 71.1756 49.4365 69.8823 49.2103L23.8657 40.9738C22.2439 40.6859 20.6631 41.6421 20.1704 43.2154Z" fill="#00482F"/>
<path d="M52.8124 33.5504L68.466 36.3472C70.0878 36.6352 71.6686 35.6789 72.1613 34.1056L79.8906 9.51952L58.9609 5.77658L51.1084 30.7328C50.7081 31.9873 51.5087 33.3139 52.8021 33.5401L52.8124 33.5504Z" fill="#6CF479"/>
<path d="M5.99482 2.11334C5.99482 2.11334 7.42161 6.8537 13.2109 8.15961C13.2109 8.15961 8.82787 8.92053 8.73549 14.1956C8.73549 14.1956 7.19579 9.61977 1.64259 8.15961C1.64259 8.15961 6.28223 7.60434 5.99482 2.11334Z" fill="white"/>
<path d="M29.4186 87.6853C29.4186 87.6853 30.8454 92.4257 36.6347 93.7316C36.6347 93.7316 32.2517 94.4925 32.1593 99.7676C32.1593 99.7676 30.6196 95.1917 25.0664 93.7316C25.0664 93.7316 29.7061 93.1763 29.4186 87.6853Z" fill="white"/>
<path d="M85.2278 36.2072C85.2278 36.2072 87.9377 45.2149 98.9414 47.7033C98.9414 47.7033 90.6065 49.1429 90.4422 59.1686C90.4422 59.1686 87.5065 50.4796 76.9647 47.693C76.9647 47.693 85.7718 46.6442 85.2278 36.2072Z" fill="white"/>
<path d="M49.8356 33.025C49.6508 32.6342 49.5584 32.2332 49.5174 31.863L29.0496 28.2229C29.0496 28.2229 29.029 28.2229 29.0188 28.2229C28.3413 28.0892 27.941 27.3694 28.1463 26.7011L35.9988 1.68305L34.7567 1.44656L26.9042 26.4029C26.545 27.534 27.0787 28.6342 28.2387 29.1073C28.4132 29.1998 28.8648 29.3026 28.8648 29.3026L49.8356 33.025Z" fill="#6CF479"/>
<path d="M76.9444 10.9973L70.3442 31.8817C70.3442 31.8817 73.0438 22.1541 68.3529 17.4446C68.3529 17.4446 72.0173 11.676 64.5754 8.72484L76.9546 10.9973H76.9444Z" fill="white"/>
</g>
<defs>
<clipPath id="clip0_15980_13628">
<rect width="100" height="100" fill="white"/>
</clipPath>
</defs>
</svg>
