<svg width="100" height="100" viewBox="0 0 100 100" fill="none" xmlns="http://www.w3.org/2000/svg">
<g clip-path="url(#clip0_15980_13616)">
<rect width="100" height="100" fill="#024731"/>
<path d="M96.5732 67.8461L74.1396 16.8133L67.2879 13.5475L11.712 24.4579L7.3287 22.5399L6.14894 25.851C5.84946 26.6833 5.87668 27.5971 6.23969 28.4113C10.7863 38.7879 27.3211 76.5219 31.2688 85.5144C31.7679 86.6453 32.984 87.2695 34.2001 87.0252L96.5641 74.4231C97.4626 74.2421 98.1977 73.6088 98.5153 72.7494L99.7314 69.4021L96.5732 67.837V67.8461Z" fill="black"/>
<path d="M76.6895 18.0282L62.8681 11.4331C62.1875 11.1075 61.4161 11.008 60.672 11.1527L8.64443 21.3665C7.54635 21.5836 6.92924 22.7507 7.37392 23.7729C11.4486 33.0911 28.655 72.3449 32.6934 81.5365C33.1926 82.6673 34.4086 83.2915 35.6247 83.0472L98.5333 70.3456C99.6314 70.1285 100.239 68.9524 99.7947 67.9302L78.8131 20.1995C78.3956 19.2405 77.6424 18.4625 76.6895 18.0102V18.0282Z" fill="#11B67A"/>
<path d="M29.9983 54.4708L42.0137 81.8101L92.1536 71.6867L80.12 44.3022C79.6209 43.1714 78.4048 42.5381 77.1888 42.7824L31.2597 52.0553C30.1616 52.2724 29.5536 53.4485 29.9983 54.4708Z" fill="#00482F"/>
<path d="M83.9497 19.6823C83.9497 19.6823 85.2111 23.8529 90.3295 25.0018C90.3295 25.0018 86.4544 25.6713 86.3727 30.3122C86.3727 30.3122 85.0115 26.2864 80.1018 25.0018C80.1018 25.0018 84.2038 24.5133 83.9497 19.6823Z" fill="white"/>
<path d="M7.24686 40.7231C7.24686 40.7231 9.64269 48.648 19.3712 50.8374C19.3712 50.8374 12.0022 52.1039 11.857 60.9245C11.857 60.9245 9.26153 53.28 -0.0585938 50.8283C-0.0585938 50.8283 7.72784 49.9055 7.24686 40.7231Z" fill="white"/>
<path d="M54.2468 34.819L67.4601 32.1503C68.5582 31.9331 69.1663 30.757 68.7216 29.7347L60.5631 11.1798L43.1026 14.6086L51.3155 33.2992C51.8147 34.43 53.0307 35.0633 54.2468 34.819Z" fill="#6CF479"/>
<path d="M68.3315 78.458C68.3315 78.458 69.5929 82.6285 74.7113 83.7774C74.7113 83.7774 70.8362 84.4469 70.7545 89.0879C70.7545 89.0879 69.3932 85.062 64.4836 83.7774C64.4836 83.7774 68.5856 83.2889 68.3315 78.458Z" fill="white"/>
<path d="M50.4807 34.6137L30.5336 38.6757C30.4247 38.6938 30.3158 38.7119 30.2069 38.7119C29.5535 38.7119 28.9636 38.3229 28.7004 37.7258L20.4966 19.0533L19.5074 19.2433L27.802 38.1148C28.2285 39.0828 29.1814 39.6889 30.2069 39.6889C30.3793 39.6889 30.5518 39.6708 30.7333 39.6346L51.3156 35.446C50.8981 35.1384 50.6259 34.8218 50.4898 34.6137H50.4807Z" fill="#6CF479"/>
<path d="M66.1805 28.66L59.3651 13.4344L49.328 15.298C49.328 15.298 55.3176 15.2437 55.5263 20.4366C55.5263 20.4366 61.5522 19.9299 66.1805 28.66Z" fill="white"/>
</g>
<defs>
<clipPath id="clip0_15980_13616">
<rect width="100" height="100" fill="white"/>
</clipPath>
</defs>
</svg>
