<svg width="100" height="100" viewBox="0 0 100 100" fill="none" xmlns="http://www.w3.org/2000/svg">
<rect width="100" height="100" fill="#024731"/>
<path d="M99.9843 39.5007L99.4669 34.7426C99.2957 35.0577 99.0817 35.3612 98.8132 35.6413L50.8934 85.7673C49.8935 86.8139 48.3723 87.3742 46.8667 87.3742C45.9174 87.3742 44.9759 87.1524 44.1744 86.6894L14.5168 69.3764C13.5519 68.82 12.9139 68.003 12.6843 67.0537L13.3224 72.9207C13.4196 73.8155 13.9721 74.6637 14.9447 75.2239L45.1587 92.856C47.0184 93.9298 49.7068 93.5641 51.1657 92.0351L99.0856 41.909C99.782 41.1815 100.074 40.3216 99.9843 39.5046V39.5007Z" fill="black"/>
<path d="M97.3796 31.0354C98.1305 31.4712 98.6012 32.1053 98.7024 32.8251H98.6985C98.7997 33.5215 98.539 34.2374 97.9671 34.8326L50.0472 84.9587C48.7633 86.3009 46.3901 86.6238 44.7561 85.6784L15.0984 68.3654C14.3475 67.9297 13.8768 67.2955 13.7717 66.5719C13.6706 65.8755 13.9313 65.1635 14.5032 64.5643C18.7048 60.1698 22.9164 55.7852 27.128 51.4007C35.3926 42.7969 43.6569 34.1932 51.8446 25.5147V25.5069L62.4269 14.4383C63.2128 13.6174 64.4072 13.1816 65.5899 13.1816C66.3408 13.1816 67.0878 13.3567 67.722 13.7224L97.3757 31.0354H97.3796Z" fill="#11B67A"/>
<path d="M49.3423 55.0552C49.3423 55.0552 35.0445 58.4884 22.998 55.4724L30.3163 47.7282L49.3509 55.0552H49.3423Z" fill="#024731"/>
<path d="M31.7091 82.4874C31.8803 82.001 31.5652 81.3397 31.005 81.0128L26.737 78.5151C26.1807 78.1883 25.5893 78.3206 25.422 78.8069C25.2508 79.2932 25.566 79.9546 26.1262 80.2814L30.3941 82.7792C30.9505 83.106 31.5419 82.9737 31.7091 82.4874Z" fill="#C7FFC6"/>
<path d="M38.1234 68.7851C40.0726 69.9094 40.4071 72.1193 38.8782 73.7183C37.3492 75.3173 34.5324 75.7025 32.5871 74.5781C30.638 73.4537 30.2956 71.2439 31.8246 69.6449C33.3536 68.0458 36.1703 67.6607 38.1234 68.7851Z" fill="#C7FFC6"/>
<path d="M74.7457 22.8455C75.4187 23.2346 75.5393 24.001 75.0102 24.5535C74.4811 25.1059 73.5007 25.2421 72.8276 24.8531C72.1546 24.464 72.0378 23.6976 72.567 23.1451C73.0961 22.5926 74.0687 22.4565 74.7457 22.8494V22.8455Z" fill="#C7FFC6"/>
<path d="M84.202 28.2994C84.8751 28.6884 84.9957 29.4549 84.4666 30.0073C83.9375 30.5598 82.9571 30.696 82.284 30.3069L76.8567 27.175C76.1836 26.7859 76.063 26.0195 76.5921 25.4631C77.1212 24.9107 78.0978 24.7784 78.7747 25.1675L84.202 28.2994Z" fill="#C7FFC6"/>
<path d="M86.8605 51.4609C87.0861 51.8811 87.5296 51.9512 87.8526 51.6127L92.5757 46.6911C92.8986 46.3565 92.9803 45.7418 92.7547 45.3216C92.529 44.9014 92.0855 44.8314 91.7626 45.1699L87.0394 50.0915C86.7165 50.426 86.6348 51.0408 86.8605 51.4609Z" fill="#C7FFC6"/>
<path d="M79.8732 58.7444C80.0989 59.1646 80.5424 59.2346 80.8653 58.8961L85.5884 53.9746C85.9114 53.64 85.9931 53.0253 85.7674 52.6051C85.5418 52.1849 85.0982 52.1149 84.7753 52.4534L80.0522 57.3749C79.7293 57.7095 79.6476 58.3242 79.8732 58.7444Z" fill="#C7FFC6"/>
<path d="M68.2378 39.8363C68.6203 43.3999 66.4734 45.4598 66.4734 45.4598C72.1229 51.5961 76.8164 50.6574 76.8164 50.6574C76.8164 50.6574 78.4505 45.8596 73.7135 38.8889C73.7135 38.8889 71.4624 40.8185 68.2378 39.8276V39.8363Z" fill="white"/>
<path d="M50.5504 44.7729C50.3418 37.4893 48.1602 26.703 39.9032 13.6135C39.9032 13.6135 35.9051 16.7946 29.6645 17.3596L26.014 12.5705L20.6774 16.2297C21.59 28.7195 12.6724 34.3864 12.6724 34.3864C13.3938 35.299 14.1152 36.1508 14.8366 36.9852L19.7735 33.5259L20.773 34.9514L15.9926 38.2976C16.4272 38.7844 16.8617 39.2364 17.2963 39.697L22.8503 35.8031L25.3448 39.3667L20.4427 42.7999C36.105 57.254 49.351 55.0464 49.351 55.0464L55.635 51.4133L50.5678 44.7642L50.5504 44.7729Z" fill="black"/>
<path d="M2.59878 42.5219C3.16374 47.789 0 50.8397 0 50.8397C8.34394 59.9051 15.2712 58.5231 15.2712 58.5231C15.2712 58.5231 17.6787 51.4308 10.6907 41.1399C10.6907 41.1399 7.36178 43.9821 2.59878 42.5219Z" fill="#6CF479"/>
<path d="M45.1443 9.30264C45.1443 9.30264 37.4348 16.0474 25.9271 12.6489L24.9623 13.379C25.8489 25.8167 18.322 32.5353 18.322 32.5353C39.121 55.1335 55.635 51.4309 55.635 51.4309C55.635 51.4309 62.3797 34.8994 45.153 9.31134L45.1443 9.30264Z" fill="#00482F"/>
<path d="M55.6176 6.94736C56 10.5109 53.8532 12.5709 53.8532 12.5709C59.5027 18.7071 64.1962 17.7684 64.1962 17.7684C64.1962 17.7684 65.8302 12.9707 61.0933 6C61.0933 6 58.8422 7.92955 55.6176 6.93871V6.94736Z" fill="#6CF479"/>
<path d="M45.1443 9.30264C45.1443 9.30264 40.1638 13.5616 32.4543 13.5616C30.4726 13.5616 28.3172 13.2834 26.0226 12.5794C27.3611 25.0258 19.8689 32.2398 19.8689 32.2398C34.9923 48.6669 48.1427 50.5878 53.4707 50.5878C55.096 50.5878 55.9912 50.4052 55.9912 50.4052C55.9912 50.4052 61.6842 33.6478 45.1528 9.30264H45.1443Z" fill="#6CF479"/>
<path d="M54.5485 48.1282H54.6354C54.9657 46.4247 55.4003 43.1392 54.9657 38.6196C54.3921 32.6572 52.1671 23.3224 44.9443 12.0841C42.615 13.4922 38.3648 15.4652 32.8456 15.4652C31.481 15.4652 30.1077 15.3435 28.7432 15.1001C28.7518 15.7694 28.7258 16.4212 28.6823 17.0557C29.9426 17.2643 31.2116 17.3773 32.4632 17.3773C37.9737 17.3773 42.2239 15.413 44.5619 13.9963C51.7846 25.2345 54.0096 34.5693 54.5833 40.5318C54.8962 43.7303 54.7658 46.2943 54.5485 48.1282Z" fill="#024731"/>
<path d="M27.4394 25.5043C26.4833 28.5638 23.9019 31.5276 23.9019 31.5276C27.8566 35.9343 31.6288 39.0198 35.0272 41.1927C29.6644 33.405 27.4394 25.5043 27.4394 25.5043Z" fill="white"/>
</svg>
