<svg width="100" height="100" viewBox="0 0 100 100" fill="none" xmlns="http://www.w3.org/2000/svg">
<g clip-path="url(#clip0_15980_13670)">
<rect width="100" height="100" fill="#024731"/>
<path d="M56.3119 77.3832C56.3119 77.2296 56.2709 77.1375 56.1071 77.0863C55.9127 77.0249 55.7182 76.9226 55.5237 76.8305C54.2748 76.2163 53.2205 75.3565 52.3504 74.2716C51.6748 73.422 51.1732 72.4906 50.8866 71.4364C50.7331 70.8734 50.6716 70.29 50.7126 69.7066C50.7228 69.5223 50.7433 69.3381 50.8047 69.1641C50.8149 68.9491 50.8968 68.7444 50.9787 68.5397C51.337 67.6288 51.9819 66.9942 52.8725 66.6052C52.9339 66.5745 53.0772 66.5336 53.0874 66.5233C53.1079 66.4619 53.0669 66.421 53.0362 66.3698C52.7189 65.7557 52.3709 65.162 52.0126 64.5683C50.8968 62.7464 49.6275 61.0269 48.2047 59.4199C48.1228 59.3278 48.0409 59.2459 47.9692 59.1538C47.9385 59.1128 47.9078 59.0924 47.8669 59.0924C47.8464 59.0924 47.8259 59.0924 47.7952 59.1128C47.7236 59.1435 47.6519 59.1742 47.5802 59.2049C47.0377 59.4097 46.485 59.4915 45.9322 59.4915C45.5842 59.4915 45.2361 59.4608 44.8881 59.3994C44.1408 59.2766 43.4345 59.0309 42.7589 58.6829C41.7762 58.1916 40.9061 57.5366 40.1486 56.728C39.3604 55.8887 38.7463 54.947 38.3675 53.862C38.0707 53.0432 37.9478 52.1936 38.0707 51.3236C38.0809 51.2213 38.0604 51.1599 37.9581 51.0984C37.4053 50.7914 36.8525 50.5048 36.2895 50.2182C34.6312 49.3891 32.9115 48.7033 31.1304 48.1609C30.7517 48.0483 30.3627 47.9254 29.9737 47.8436C29.9635 47.8436 29.9532 47.8436 29.943 47.8436C29.9225 47.8436 29.902 47.8436 29.8816 47.8129H29.8611C29.8509 47.8129 29.8406 47.8129 29.8304 47.8231C29.8304 48.1404 29.769 48.4577 29.6564 48.7545C29.5028 49.1639 29.3288 49.5734 29.032 49.9111C28.7658 50.208 28.4894 50.4843 28.1312 50.6686C27.8445 50.8221 27.5579 50.9654 27.2508 51.0575C27.1587 51.0882 26.9437 51.1394 26.913 51.1496C26.5445 51.2213 26.1862 51.252 25.8177 51.252C25.4185 51.252 25.0193 51.211 24.6201 51.1292C23.5862 50.9244 22.6342 50.5048 21.7539 49.9214C20.7303 49.2458 19.8704 48.4167 19.1743 47.4034C19.1129 47.3113 19.0924 47.2806 19.031 47.2806C19.0003 47.2806 18.9594 47.2806 18.9082 47.3011C18.12 47.4546 17.342 47.6593 16.5845 47.9152C15.4278 48.3042 14.3325 48.8159 13.2884 49.4608C13.053 49.6041 12.8175 49.7474 12.6026 49.9214C12.6026 49.993 12.664 50.0237 12.6947 50.0749C12.8585 50.3615 13.0632 50.6276 13.2168 50.9244C13.3294 51.1496 13.4215 51.385 13.5341 51.6C13.6569 51.8354 13.7286 52.0811 13.8002 52.3369C13.8105 52.3983 13.8719 52.4393 13.8617 52.5109C13.9333 52.6849 13.9538 52.8794 13.9845 53.0637C14.0664 53.4833 14.0459 53.9132 14.0459 54.3329C14.0459 54.5376 14.005 54.7525 13.9435 54.947C13.79 55.5099 13.5546 56.0217 13.1656 56.4618C12.7664 56.9224 12.2648 57.2295 11.7018 57.4547C11.4049 57.5673 11.0978 57.6389 10.7805 57.6901C10.6372 57.7106 10.4939 57.731 10.3506 57.731C10.3301 57.731 10.3096 57.731 10.2892 57.731C10.2277 57.731 10.1663 57.731 10.1049 57.731C10.0025 57.731 9.90018 57.731 9.78758 57.731C9.63403 57.731 9.48048 57.731 9.32694 57.7003C9.19387 57.6594 9.06079 57.6696 8.92772 57.6389C8.67181 57.598 8.42614 57.5366 8.18047 57.4649C7.86314 57.383 7.56628 57.25 7.26943 57.1476C7.24896 57.1476 7.22848 57.1476 7.21825 57.1169C7.21825 57.1169 7.19777 57.1169 7.18754 57.1169C7.1773 57.1169 7.16707 57.1169 7.15683 57.1271C7.09541 57.3114 7.04423 57.4854 6.98281 57.6696C6.80879 58.1916 6.68596 58.7239 6.57336 59.2561C6.49146 59.6144 6.44028 59.9828 6.3891 60.3411C6.35839 60.556 6.33792 60.7812 6.31745 60.9962C6.29697 61.2418 6.2765 61.4977 6.25603 61.7433C6.21508 62.0811 6.24579 62.4189 6.23556 62.7567C6.23556 62.9716 6.23556 63.1763 6.23556 63.3913C6.23556 63.6881 6.23556 63.9747 6.26626 64.2715C7.05446 64.5581 7.78125 64.9675 8.45685 65.4588C8.88678 65.7761 9.30647 66.1344 9.67498 66.5233C9.94112 66.8099 10.2073 67.0965 10.4222 67.424C10.4734 67.4445 10.4939 67.4957 10.5246 67.5366C10.7498 67.8642 10.9648 68.2019 11.149 68.5602C11.3947 69.0515 11.5892 69.5633 11.712 70.0955C11.712 70.1365 11.7734 70.3309 11.7837 70.3821C11.8144 70.5254 11.8349 70.6687 11.8349 70.8018C11.8349 71.0269 11.8963 71.2419 11.8758 71.4568C11.8348 71.8355 11.8144 72.204 11.7018 72.5725C11.5892 72.941 11.4356 73.289 11.2207 73.596C11.0159 73.8929 10.76 74.159 10.4734 74.3842C10.197 74.5889 9.90018 74.7424 9.58285 74.8755C9.53167 74.8959 9.44978 74.8857 9.43954 74.9676C9.5419 75.1518 9.64427 75.3361 9.74663 75.5203C9.88994 75.7967 10.0435 76.0628 10.2073 76.3289C10.2994 76.4825 10.371 76.6564 10.4632 76.8202C10.586 77.0249 10.7293 77.2194 10.8624 77.4241C11.0671 77.7517 11.2821 78.0894 11.5073 78.3965C11.5482 78.4579 11.5892 78.5193 11.6096 78.5807C11.6608 78.6933 11.753 78.7752 11.8246 78.8776C11.9577 79.072 12.0805 79.2665 12.2238 79.461C12.3057 79.5736 12.3876 79.6759 12.4695 79.7885C12.6845 80.0342 12.8687 80.3003 13.0632 80.5459C13.2168 80.7302 13.3601 80.9144 13.5136 81.1089C13.6262 81.2522 13.7388 81.3852 13.8514 81.5285C13.964 81.6923 14.1278 81.8151 14.2506 81.9687C14.3735 82.1222 14.5065 82.2655 14.6294 82.4088C14.7113 82.4088 14.7727 82.3576 14.8443 82.3269C15.305 82.1427 15.7759 82.0301 16.2672 82.0096C16.3593 82.0096 16.4412 81.9891 16.5333 81.9891C16.5641 81.9891 16.605 81.9891 16.6357 81.9891C16.6971 81.9891 16.7585 81.9789 16.82 81.9789C16.9735 81.9789 17.1271 81.9994 17.2806 82.0199C17.8436 82.0813 18.3861 82.2041 18.9082 82.3986C19.7987 82.7159 20.6177 83.1765 21.3649 83.7701C21.8665 84.1591 22.3271 84.589 22.7264 85.0803C22.8799 85.2747 23.0437 85.459 23.1767 85.6637C23.2689 85.7353 23.3201 85.8479 23.3815 85.9503C23.7602 86.5235 24.0673 87.1376 24.272 87.7927C24.3335 87.9769 24.4563 88.4682 24.4665 88.5296C24.5689 89.0107 24.5689 89.502 24.5587 89.9831C24.5587 90.1059 24.5177 90.2389 24.528 90.3618C24.8965 90.5767 25.2752 90.7814 25.654 90.9759C26.3091 91.3137 26.9744 91.6412 27.6603 91.938C28.5304 92.327 29.4209 92.675 30.332 92.982C31.0485 93.2277 32.6761 93.7292 32.7887 93.7292C32.8501 93.5859 32.8501 93.4324 32.8808 93.2789C33.0856 92.1735 33.6486 91.3239 34.6312 90.761C35.0919 90.4948 35.6037 90.3515 36.1258 90.2696C36.2895 90.2389 36.5659 90.2185 36.8321 90.2185C37.0675 90.2185 37.3029 90.2287 37.4258 90.2492C37.9785 90.3004 38.5108 90.4232 39.0329 90.6074C39.9644 90.935 40.8038 91.416 41.5715 92.0199C41.9605 92.327 42.329 92.6545 42.6566 93.023C42.8613 93.2482 43.4857 94.0568 43.5778 94.2001C43.7723 94.2001 45.4818 93.7497 46.1676 93.5143C46.618 93.3608 47.0582 93.1765 47.4984 92.982C48.2968 92.6238 49.9449 91.6105 49.9653 91.6003C50.0677 91.5286 50.0677 91.5286 50.0063 91.4365C49.9858 91.4058 49.9551 91.3648 49.9346 91.3341C49.5354 90.7712 49.2078 90.1673 48.9622 89.5225C48.9417 89.4815 48.9314 89.4406 48.9212 89.3894C48.8905 89.3075 48.87 89.2359 48.8393 89.1437C48.737 88.7957 48.6448 88.4477 48.6244 88.0793C48.5629 87.7312 48.5732 87.3832 48.5937 87.0352C48.6141 86.7896 48.6551 86.5542 48.7267 86.329C49.0543 85.1826 49.7811 84.3842 50.8968 83.9441C51.3677 83.7599 51.8591 83.6575 52.3709 83.6575C52.3913 83.6575 52.4221 83.6575 52.4425 83.6575C52.5244 83.6575 52.6063 83.6575 52.678 83.6575C53.1795 83.6575 53.6709 83.7394 54.1622 83.8622C54.5308 83.9544 54.8788 84.0772 55.2268 84.2205C55.2882 84.241 55.3394 84.2717 55.4008 84.2819C55.452 84.2512 55.452 84.1898 55.4623 84.1488C55.626 83.678 55.7591 83.1969 55.8717 82.7056C56.189 81.3238 56.3323 79.9113 56.3323 78.4988C56.3323 78.1099 56.3016 77.7312 56.3016 77.3422L56.3119 77.3832ZM43.9463 74.8652C43.9361 75.1314 43.9259 75.4077 43.8952 75.6738C43.8644 75.9604 43.8235 76.247 43.7723 76.5336C43.7416 76.7076 43.7007 76.8816 43.6392 77.0556C43.5778 77.2501 43.5369 77.4548 43.4652 77.6493C43.281 78.1713 43.0455 78.6728 42.7487 79.1437C42.5132 79.5122 42.2573 79.8602 41.9605 80.1877C41.4589 80.7404 40.8857 81.201 40.2408 81.5695C39.862 81.7844 39.473 81.9687 39.0738 82.1324C39.0329 82.1529 38.8793 82.2143 38.8589 82.2143C38.5211 82.3167 38.1935 82.4293 37.8557 82.5009C37.0573 82.6852 36.2588 82.767 35.4399 82.767C35.2557 82.767 35.0714 82.767 34.8872 82.7568C33.2493 82.6852 31.6832 82.3064 30.158 81.7128C28.4382 81.0372 26.8618 80.1058 25.4185 78.9697C23.8216 77.7209 22.4397 76.2675 21.3035 74.5786C20.3003 73.1047 19.5326 71.5182 19.072 69.7884C18.7546 68.6114 18.6113 67.4036 18.683 66.1856C18.7035 65.7864 18.7546 65.3974 18.8365 65.0085C18.8468 64.9573 18.8979 64.7423 18.9082 64.6912C19.0208 64.2203 19.1641 63.7597 19.3586 63.3196C19.6861 62.5929 20.1058 61.9276 20.6381 61.3339C21.283 60.6174 22.0405 60.0545 22.9106 59.6348C23.6988 59.2459 24.5382 59.0002 25.4083 58.8569C25.613 58.8262 25.8177 58.7955 26.0225 58.7751C26.4114 58.7341 26.7902 58.7034 27.1792 58.7034C27.2918 58.7034 27.4146 58.7034 27.5272 58.7034C28.2642 58.7341 28.991 58.816 29.7178 58.9593C30.7517 59.164 31.7651 59.4711 32.7375 59.8805C33.6895 60.2694 34.5903 60.7403 35.4604 61.293C36.2998 61.8252 37.0982 62.4087 37.8557 63.0535C38.5415 63.6369 39.1864 64.2715 39.7801 64.9471C40.0872 65.2951 40.3841 65.6431 40.6605 66.0116C40.7116 66.0832 40.8652 66.2777 40.8857 66.3084C41.1313 66.6564 41.3872 66.9942 41.592 67.3729C41.7046 67.5673 41.8479 67.7413 41.9503 67.9461C42.155 68.3657 42.4211 68.7547 42.5951 69.1845C42.6566 69.3483 42.7487 69.5018 42.8101 69.6656C43.0558 70.2695 43.3015 70.8734 43.4652 71.4978C43.4652 71.5182 43.4652 71.5387 43.4652 71.5592C43.5574 71.7332 43.5778 71.9174 43.6188 72.1017C43.6802 72.3985 43.7314 72.6953 43.7928 72.9922C43.8133 73.1047 43.8235 73.2276 43.8337 73.3401C43.8542 73.6165 43.8952 73.8929 43.9054 74.1692C43.9156 74.4046 43.9361 74.6298 43.9259 74.8652H43.9463Z" fill="#6CF379"/>
<path d="M20.5463 64.4347C20.5463 64.4347 20.5873 64.4347 20.6077 64.4347C20.6077 64.4347 20.6896 64.4347 20.7306 64.4142C20.751 64.4142 20.7715 64.4142 20.792 64.4142C20.8534 64.4142 20.9148 64.4142 20.966 64.3937C20.966 64.3937 21.007 64.3937 21.0377 64.3937C21.0991 64.3937 21.1605 64.3937 21.2219 64.3733C21.2526 64.3733 21.2833 64.3733 21.314 64.3733C21.4062 64.3733 21.4983 64.3733 21.5802 64.3426C21.7747 64.3426 21.9589 64.3221 22.1534 64.3221C23.2897 64.3016 24.4157 64.4347 25.5212 64.7008C26.6472 64.9669 27.7323 65.3661 28.7866 65.8676C29.7591 66.3282 30.6803 66.8707 31.5504 67.4849C32.6969 68.2935 33.7512 69.2146 34.7135 70.2382C35.6347 71.231 36.4332 72.2955 37.119 73.4624C37.3135 73.7899 37.4773 74.1174 37.6513 74.445C37.6615 74.4757 37.6718 74.5166 37.6922 74.5473C37.8765 74.8953 38.03 75.2638 38.1836 75.6221C38.3678 76.0622 38.5112 76.5228 38.6545 76.9732C38.6545 77.0039 38.6545 77.0346 38.6545 77.0653C38.9104 77.8943 39.0537 78.7439 39.1049 79.6037C39.1356 80.1257 39.1356 80.6579 39.0844 81.1799C39.3301 81.0673 39.5655 80.9548 39.7702 80.8217C40.3537 80.4839 40.845 80.0847 41.2647 79.6139C41.5104 79.3375 41.7458 79.0305 41.9608 78.6927C42.2065 78.3038 42.4112 77.8739 42.5852 77.3826C42.6159 77.3007 42.6466 77.1983 42.6671 77.096C42.6876 77.0039 42.7183 76.922 42.749 76.8196C42.79 76.6866 42.8207 76.5535 42.8514 76.4C42.9025 76.1543 42.9333 75.8984 42.964 75.6118C42.9844 75.3764 43.0049 75.141 43.0151 74.8544C43.0151 74.7009 43.0152 74.5371 43.0049 74.3631V74.2403C42.9947 74.097 42.9742 73.9434 42.9537 73.7797C42.9435 73.6671 42.9333 73.5647 42.923 73.4521V73.3805C42.9128 73.3088 42.9026 73.2474 42.9026 73.1963C42.8923 73.1144 42.8718 73.0427 42.8616 72.9608C42.8207 72.7459 42.7797 72.5309 42.7388 72.3262C42.7388 72.2853 42.7183 72.2443 42.7183 72.2034C42.7081 72.1318 42.6876 72.0396 42.6774 72.0192L42.5955 71.8656L42.575 71.7019C42.4214 71.1287 42.1962 70.5657 41.9813 70.0437C41.9608 69.9925 41.9301 69.9311 41.8994 69.8595C41.8584 69.7674 41.8073 69.665 41.7663 69.5524C41.6844 69.3477 41.5616 69.143 41.4388 68.9178C41.3364 68.7438 41.2443 68.5698 41.1419 68.3753C41.1112 68.3242 41.06 68.2423 41.0088 68.1706C40.9474 68.0785 40.8758 67.9762 40.8041 67.8533C40.6403 67.5565 40.4356 67.2801 40.2206 66.9731L40.149 66.8707C40.149 66.8707 40.0876 66.7888 40.0466 66.7377C40.0057 66.6762 39.9545 66.6251 39.934 66.5944C39.6576 66.2259 39.3608 65.8779 39.0946 65.5811C38.5419 64.9464 37.9174 64.3426 37.2623 63.7796C36.5458 63.1655 35.7678 62.6025 34.9694 62.101C34.13 61.579 33.2599 61.1286 32.3796 60.7601C31.4378 60.3712 30.4858 60.0846 29.5339 59.8901C28.8787 59.7571 28.1827 59.6854 27.4866 59.6547C27.3842 59.6547 27.2819 59.6547 27.1693 59.6547C26.8315 59.6547 26.4937 59.6752 26.1149 59.7161H26.074C25.8999 59.7263 25.7259 59.7571 25.5417 59.7878C24.7432 59.9208 23.9857 60.1562 23.2999 60.4838C22.5117 60.8727 21.8668 61.3538 21.3038 61.9782C20.8432 62.4899 20.4644 63.0734 20.1778 63.7284C20.055 64.0048 19.9526 64.2914 19.8707 64.6087C20.055 64.5677 20.229 64.5166 20.4132 64.4859C20.4542 64.4859 20.4951 64.4858 20.5361 64.4654L20.5463 64.4347ZM21.4164 64.23C21.4164 64.23 21.3857 64.2709 21.3857 64.3016C21.3857 64.2709 21.3959 64.2504 21.4164 64.23ZM8.10913 55.929C8.27291 56.1542 8.40599 56.3998 8.53906 56.6455C8.72332 56.6966 8.90757 56.7478 9.09182 56.7683H9.13277C9.14301 56.7683 9.18395 56.7683 9.21466 56.7683C9.30679 56.7683 9.41939 56.7888 9.5627 56.8195C9.64459 56.8297 9.74695 56.8297 9.82884 56.8297C9.88002 56.8297 9.92097 56.8297 9.97215 56.8297C10.0233 56.8297 10.0848 56.8297 10.1359 56.8297C10.2178 56.8297 10.2895 56.8297 10.3611 56.8297C10.3611 56.8297 10.3714 56.8297 10.3816 56.8297C10.4533 56.8297 10.5556 56.8195 10.658 56.799H10.6682C10.9548 56.7581 11.1903 56.6966 11.395 56.6148C11.8659 56.4305 12.2242 56.1951 12.5108 55.8676C12.7769 55.5707 12.9612 55.2023 13.0942 54.711C13.1352 54.5472 13.1557 54.4244 13.1659 54.322C13.1659 54.2606 13.1659 54.2094 13.1659 54.148C13.1659 53.8205 13.1761 53.5032 13.125 53.2371C13.1147 53.1756 13.1045 53.1142 13.0942 53.0528C13.0738 52.9607 13.0635 52.8686 13.0431 52.8276L12.9509 52.582V52.5615C12.9509 52.5615 12.9509 52.5615 12.9509 52.5513C12.8998 52.3363 12.8486 52.1623 12.7667 52.019C12.6848 51.8655 12.6234 51.7222 12.562 51.5891C12.521 51.497 12.4801 51.4049 12.4391 51.323C12.3777 51.2002 12.2856 51.0671 12.1934 50.9238C12.132 50.8215 12.0604 50.7294 11.999 50.6168C10.8525 51.9576 9.69577 53.2985 8.5493 54.6495C8.33433 54.8952 8.12961 55.1409 7.91464 55.3865C7.85322 55.4479 7.84299 55.4991 7.90441 55.5707C7.9863 55.6731 8.04772 55.7857 8.11937 55.888L8.10913 55.929ZM46.475 94.4144C45.953 94.5987 44.0081 95.1514 43.5782 95.1514C43.5474 95.1514 43.5167 95.1514 43.4963 95.1514L43.0663 95.1104L42.8207 94.7624C42.749 94.6601 42.1451 93.8719 41.9608 93.6672C41.7049 93.3704 41.3876 93.0838 40.9883 92.7767C40.2718 92.2138 39.5041 91.7941 38.7056 91.5075C38.245 91.3438 37.7741 91.2414 37.3135 91.1902H37.2521C37.2009 91.1902 37.0269 91.1698 36.7914 91.1698C36.4843 91.1698 36.3103 91.1902 36.2796 91.2005H36.2182C35.7371 91.2721 35.3583 91.3949 35.041 91.5792C34.304 92.0091 33.8843 92.613 33.7308 93.483C33.7308 93.5035 33.7308 93.5342 33.7205 93.5649C33.7001 93.7082 33.6796 93.9231 33.567 94.1483L33.3315 94.6601H32.7685L32.7583 94.6703H32.7481C32.6048 94.6703 32.5331 94.6703 31.4788 94.353C30.926 94.1892 30.3425 93.9948 29.9945 93.8822C29.0937 93.5751 28.1724 93.2169 27.2511 92.8074C26.5858 92.5106 25.8897 92.1831 25.1936 91.8146C24.7637 91.5894 24.385 91.3847 24.0369 91.18L23.6172 90.9343L23.5865 90.4533C23.5763 90.2895 23.5865 90.1565 23.607 90.0541C23.607 90.0336 23.607 89.9927 23.607 89.9824C23.6172 89.573 23.6172 89.1329 23.5353 88.744C23.5149 88.6621 23.4023 88.2424 23.3613 88.0991C23.1873 87.5464 22.9212 87.0142 22.5731 86.4819C22.5527 86.441 22.5219 86.4103 22.5015 86.3693L22.4503 86.3284L22.3684 86.2056C22.2865 86.0725 22.1739 85.9394 22.0511 85.7961L21.9692 85.6938C21.6314 85.2844 21.2322 84.9057 20.7408 84.5167C20.0652 83.9845 19.318 83.5648 18.54 83.2884C18.0589 83.1144 17.588 83.0121 17.1171 82.9609C17.0762 82.9609 17.0352 82.9609 17.0045 82.9507C16.9124 82.9404 16.8203 82.9302 16.7486 82.9302C16.7282 82.9302 16.7077 82.9302 16.6974 82.9302L16.5439 82.9507L16.4415 82.9302C16.4415 82.9302 16.4211 82.9302 16.4006 82.9302C16.3596 82.9302 16.2982 82.9302 16.2368 82.9404C15.8683 82.9609 15.4998 83.0428 15.121 83.1963C15.0289 83.2475 14.8549 83.3396 14.599 83.3396L14.1588 83.3601L13.8722 83.0223C13.8722 83.0223 13.8006 82.9404 13.7596 82.8893C13.6675 82.7869 13.5754 82.6743 13.473 82.5515C13.4525 82.5208 13.4013 82.4798 13.3502 82.4287C13.258 82.3365 13.1454 82.224 13.0431 82.0807C12.9612 81.9681 12.869 81.8555 12.7667 81.7327L12.7462 81.702C12.6438 81.5791 12.5415 81.4461 12.4289 81.313L12.2856 81.139C12.1934 81.0264 12.1116 80.9138 12.0297 80.8115C11.9171 80.6682 11.8147 80.5249 11.7123 80.4123L11.6714 80.3509L11.5997 80.2485C11.5486 80.1768 11.4871 80.095 11.436 80.0233C11.3336 79.8903 11.2415 79.7572 11.1596 79.6241C11.1084 79.5525 11.0674 79.4808 11.0163 79.4194C11.0163 79.4092 10.9958 79.3989 10.9856 79.3785C10.9139 79.2966 10.7911 79.1533 10.7092 78.9486C10.4737 78.6313 10.269 78.3038 10.0745 77.9865L10.0336 77.9148C9.98239 77.8432 9.93121 77.7613 9.88002 77.6794C9.79813 77.5566 9.71624 77.4337 9.63435 77.2904C9.57293 77.1881 9.52175 77.0857 9.47057 76.9936C9.43986 76.922 9.39892 76.8605 9.37844 76.8094C9.20442 76.533 9.04064 76.2464 8.8871 75.9496C8.82568 75.837 8.76426 75.7142 8.69261 75.5914C8.6619 75.5299 8.63119 75.4685 8.59024 75.4174L8.44693 75.1512L8.48788 74.8442C8.50835 74.6906 8.63119 74.1891 9.2249 74.0253C9.48081 73.9127 9.69577 73.8001 9.86979 73.6568C10.0745 73.5033 10.2588 73.3191 10.4123 73.0837C10.5556 72.8687 10.6785 72.6128 10.7706 72.3058C10.8422 72.0704 10.873 71.794 10.9037 71.4972V71.3641C10.9037 71.3641 10.9037 71.2208 10.9037 71.1287C10.9037 71.0366 10.8832 70.9444 10.8832 70.8319C10.8832 70.75 10.8627 70.6579 10.8422 70.5453C10.8422 70.5146 10.8218 70.4531 10.8013 70.402C10.7911 70.3406 10.7706 70.2996 10.7706 70.2791C10.6682 69.839 10.5044 69.3989 10.2792 68.9485C10.1462 68.6722 9.97215 68.406 9.80837 68.1604H9.77766L9.61388 67.8943C9.43986 67.6384 9.2249 67.3927 8.96899 67.1164C8.6619 66.7888 8.30362 66.4715 7.8737 66.1542C7.23904 65.6834 6.59415 65.3354 5.91855 65.0897L5.40673 64.9055L5.33508 64.363C5.29413 64.0662 5.29413 63.7694 5.29413 63.5237C5.29413 63.4725 5.29413 63.4214 5.29413 63.3702V63.2167C5.29413 63.0529 5.29413 62.8891 5.29413 62.7151C5.29413 62.6128 5.29413 62.5104 5.29413 62.3978C5.29413 62.1624 5.29413 61.9065 5.32484 61.6301C5.33508 61.4971 5.35555 61.3538 5.36579 61.2003C5.36579 61.0979 5.37602 60.9955 5.38626 60.9034C5.40673 60.709 5.4272 60.4633 5.46815 60.2074C5.51933 59.8696 5.58075 59.4602 5.66264 59.0508C5.68311 58.9382 5.71382 58.8256 5.7343 58.7233C4.65948 59.9822 3.58466 61.231 2.50984 62.4899C2.41771 62.6025 2.34606 62.7151 2.30511 62.8482C2.24369 63.0426 2.18228 63.2269 2.12086 63.4214C1.76258 64.6496 1.54762 65.9086 1.45549 67.1778C1.40431 68.0069 1.40431 68.8359 1.43502 69.665C1.43502 69.7264 1.43502 69.7878 1.4862 69.8288C1.824 69.9721 2.17204 70.1154 2.4996 70.2894C3.67678 70.924 4.66971 71.7633 5.48862 72.8175C5.92879 73.3805 6.28706 74.0049 6.56344 74.6702C6.68628 74.9568 6.76817 75.2638 6.87053 75.5607C6.87053 75.6425 6.90124 75.7244 6.92171 75.7961C6.9729 76.1236 7.03431 76.4614 7.03431 76.7991C7.03431 77.096 7.01384 77.3928 6.98313 77.6794C6.95242 77.7613 6.90124 77.8227 6.83982 77.8841C6.12328 78.7132 5.40673 79.5423 4.70042 80.3816C4.62536 80.4703 4.61512 80.5624 4.66971 80.6579C5.09964 81.4665 5.55004 82.2547 6.04139 83.0223C6.53273 83.8002 7.04455 84.5474 7.59731 85.2844C7.63826 85.3355 7.66897 85.3969 7.73039 85.4379C7.75086 85.4584 7.7611 85.4891 7.78157 85.5095C8.16031 86.0111 8.5493 86.5126 8.95875 86.9835C9.2249 87.2905 9.48081 87.5873 9.74695 87.8944C9.7879 87.9354 9.81861 88.007 9.89026 87.9558C10.2588 87.8023 10.6375 87.6897 11.0367 87.6181C11.0879 87.6181 11.1391 87.618 11.1903 87.5976C11.4462 87.5873 11.7021 87.5771 11.9478 87.5566C12.1525 87.5771 12.3572 87.5771 12.562 87.6078C13.5446 87.7306 14.4659 88.0582 15.3258 88.529C16.5337 89.1943 17.5471 90.095 18.3557 91.2107C18.8573 91.8965 19.2361 92.6334 19.492 93.442C19.6558 93.9845 19.7581 94.5372 19.7581 95.1104C19.7479 95.1514 19.7581 95.1923 19.7581 95.2332C19.7479 95.3868 19.7274 95.5506 19.7172 95.7041C19.7172 95.7655 19.6762 95.8269 19.7172 95.8986C19.7479 95.9497 19.8195 95.9702 19.8707 96.0009C20.5873 96.4001 21.3243 96.7788 22.0613 97.1268C23.9243 98.0071 25.8488 98.7133 27.8449 99.2353C27.9677 99.266 28.0291 99.2353 28.111 99.1432C28.9606 98.1606 29.8102 97.178 30.6599 96.2056C30.7622 96.0828 30.8543 95.9497 30.9874 95.8576C31.2638 95.8167 31.5299 95.7655 31.8063 95.7655C32.0008 95.7655 32.2055 95.7655 32.4 95.7655C32.9733 95.8064 33.526 95.919 34.0686 96.1033C35.7269 96.6662 37.0985 97.6488 38.2143 98.9999C38.4088 99.2353 38.5828 99.5014 38.7671 99.7369C38.7671 99.7369 38.7671 99.7573 38.7671 99.7676H38.8285C38.8285 99.7676 38.8285 99.7471 38.8285 99.7369C38.8797 99.7266 38.9411 99.7164 38.9923 99.7062C39.5655 99.5833 40.1387 99.44 40.6915 99.266C41.2545 99.0818 41.8175 98.8873 42.36 98.6417C42.6978 98.4881 43.0356 98.3346 43.3734 98.1708C43.9671 97.874 44.5301 97.526 45.0829 97.1473C45.1853 97.0756 45.2672 97.004 45.349 96.9119C46.301 95.8167 47.253 94.7317 48.205 93.6365C48.0822 93.6979 47.9696 93.7593 47.8672 93.8003C47.3861 94.0152 46.9152 94.2097 46.4648 94.3632L46.475 94.4144ZM42.2372 95.8474C42.2372 95.8474 42.2781 95.7962 42.2884 95.7553C42.2884 95.7553 42.2577 95.8167 42.2372 95.8474ZM52.6885 84.6088C52.6271 84.6088 52.5554 84.6088 52.494 84.6088H52.4326C52.4121 84.6088 52.3917 84.6088 52.3712 84.6088C51.9925 84.6088 51.6035 84.6805 51.2247 84.834C50.3649 85.1718 49.8531 85.7347 49.5971 86.6252C49.546 86.7992 49.5152 86.9732 49.505 87.1575C49.4845 87.4031 49.4743 87.6999 49.5152 87.9558V88.007L49.5255 88.0582C49.546 88.3345 49.6176 88.6314 49.7097 88.9282C49.7097 88.9589 49.7302 88.9998 49.7507 89.0408C49.7609 89.0715 49.7712 89.1022 49.7814 89.1329C49.7916 89.1636 49.8019 89.2046 49.8223 89.2353C49.8735 89.3581 49.9247 89.4809 49.9759 89.614C50.1397 89.6651 50.2932 89.7266 50.4468 89.788C50.6105 89.8494 50.6105 89.8596 50.7129 89.7266C51.9822 88.2629 53.2515 86.8094 54.5311 85.3458C54.6232 85.2434 54.7051 85.1411 54.7972 85.0387C54.5004 84.9159 54.224 84.8238 53.9578 84.7624C53.487 84.6395 53.0775 84.5883 52.6988 84.5883L52.6885 84.6088Z" fill="black"/>
<path d="M30.5781 49.1854L37.3546 52.1128C37.3546 52.1128 37.0372 53.8528 37.9995 55.7771C38.9617 57.7013 41.8381 60.3216 43.957 60.557C46.1783 60.8027 47.724 60.2602 47.724 60.2602L51.6548 66.0023C51.6548 66.0023 48.9626 67.0463 49.6177 71.6421C50.3343 76.637 55.217 77.5786 55.2068 78.0802C55.1966 78.5817 54.8792 82.2665 54.5926 82.7476C54.521 82.8704 51.8185 81.8571 49.4846 83.6278C45.2366 86.8622 48.3279 91.2123 48.3279 91.2123L43.9468 93.0547C43.9468 93.0547 46.813 88.4897 44.1003 85.1017C42.3806 82.9523 39.5554 83.1263 39.668 83.0853C48.502 79.288 44.8373 70.1784 44.8373 70.1784C44.8373 70.1784 41.5719 61.9695 34.601 58.8886C23.9859 54.2008 19.8811 58.7556 19.8811 58.7556C19.1236 55.5212 14.9369 56.0637 14.9369 56.0637C16.155 53.1772 14.2613 50.2601 14.2613 50.2601L18.2842 48.5201C18.2842 48.5201 23.689 55.5109 29.4418 51.1199C30.7214 50.1373 30.5781 49.1956 30.5781 49.1956V49.1854Z" fill="white"/>
<path d="M64.8184 -0.201715C64.6649 -0.201715 64.5728 -0.160773 64.5216 0.00299431C64.4602 0.197469 64.3578 0.391943 64.2657 0.586417C63.6515 1.83515 62.7916 2.8894 61.7066 3.75942C60.857 4.43496 59.9254 4.9365 58.8711 5.22309C58.3081 5.37663 57.7246 5.43804 57.1412 5.3971C56.9569 5.38686 56.7726 5.36639 56.5986 5.30498C56.3837 5.29474 56.1789 5.21286 55.9742 5.13097C55.0632 4.77273 54.4285 4.1279 54.0395 3.23741C54.0088 3.176 53.9679 3.0327 53.9576 3.02246C53.8962 3.00199 53.8553 3.04293 53.8041 3.07364C53.1899 3.39094 52.5962 3.73895 52.0025 4.09719C50.1804 5.21286 48.4607 6.48206 46.8536 7.90479C46.7615 7.98667 46.6796 8.06856 46.5875 8.14021C46.5465 8.17091 46.526 8.20162 46.526 8.24256C46.526 8.26303 46.526 8.2835 46.5465 8.31421C46.5772 8.38586 46.6079 8.45751 46.6386 8.52915C46.8434 9.07164 46.9253 9.62435 46.9253 10.1771C46.9253 10.5251 46.8946 10.8731 46.8331 11.2211C46.7103 11.9683 46.4646 12.6745 46.1166 13.3501C45.6252 14.3327 44.9701 15.2027 44.1614 15.9601C43.3221 16.7482 42.3803 17.3624 41.2953 17.7411C40.4763 18.0379 39.6267 18.1607 38.7566 18.0379C38.6543 18.0277 38.5929 18.0482 38.5314 18.1505C38.2243 18.7032 37.9377 19.2559 37.6511 19.8189C36.822 21.477 36.1361 23.1966 35.5936 24.9776C35.481 25.3563 35.3582 25.7452 35.2763 26.1342C35.2763 26.1444 35.2763 26.1547 35.2763 26.1649C35.2763 26.1854 35.2763 26.2058 35.2456 26.2263V26.2468C35.2456 26.257 35.2456 26.2673 35.2558 26.2775C35.5731 26.2775 35.8905 26.3389 36.1873 26.4515C36.5968 26.605 37.0062 26.779 37.344 27.0759C37.6409 27.342 37.9173 27.6183 38.1015 27.9766C38.2551 28.2632 38.3984 28.5498 38.4905 28.8568C38.5212 28.949 38.5724 29.1639 38.5826 29.1946C38.6543 29.5631 38.685 29.9213 38.685 30.2898C38.685 30.689 38.644 31.0882 38.5621 31.4874C38.3574 32.5211 37.9377 33.473 37.3543 34.3533C36.6787 35.3768 35.8495 36.2366 34.8361 36.9326C34.744 36.994 34.7133 37.0145 34.7133 37.0759C34.7133 37.1066 34.7133 37.1476 34.7337 37.1987C34.8873 37.9869 35.092 38.7648 35.3479 39.5222C35.7369 40.6788 36.2487 41.774 36.8936 42.818C37.0369 43.0535 37.1802 43.2889 37.3543 43.5038C37.4259 43.5038 37.4566 43.4424 37.5078 43.4117C37.7944 43.2479 38.0606 43.0432 38.3574 42.8897C38.5826 42.7771 38.8181 42.685 39.033 42.5724C39.2685 42.4496 39.5141 42.3779 39.77 42.3063C39.8315 42.296 39.8724 42.2346 39.9441 42.2448C40.1181 42.1732 40.3126 42.1527 40.4968 42.122C40.9165 42.0401 41.3464 42.0606 41.7661 42.0606C41.9709 42.0606 42.1858 42.1016 42.3803 42.163C42.9433 42.3165 43.4551 42.5519 43.8953 42.9409C44.3559 43.34 44.663 43.8416 44.8882 44.4045C45.0008 44.7014 45.0725 45.0084 45.1237 45.3257C45.1441 45.469 45.1646 45.6123 45.1646 45.7556C45.1646 45.7761 45.1646 45.7966 45.1646 45.817C45.1646 45.8784 45.1646 45.9399 45.1646 46.0013C45.1646 46.1036 45.1646 46.206 45.1646 46.3186C45.1646 46.4721 45.1646 46.6256 45.1339 46.7792C45.0929 46.9122 45.1032 47.0453 45.0725 47.1784C45.0315 47.4342 44.9701 47.6799 44.8985 47.9255C44.8166 48.2428 44.6835 48.5397 44.5811 48.8365C44.5811 48.857 44.5811 48.8774 44.5504 48.8877C44.5504 48.8877 44.5504 48.9082 44.5504 48.9184C44.5504 48.9286 44.5504 48.9389 44.5607 48.9491C44.7449 49.0105 44.9189 49.0617 45.1032 49.1231C45.6252 49.2971 46.1575 49.4199 46.6898 49.5325C47.0481 49.6144 47.4166 49.6656 47.7749 49.7168C47.9898 49.7475 48.215 49.7679 48.43 49.7884C48.6757 49.8089 48.9316 49.8293 49.1773 49.8498C49.5151 49.8908 49.8529 49.8601 50.1907 49.8703C50.4056 49.8703 50.6104 49.8703 50.8253 49.8703C51.1222 49.8703 51.4088 49.8703 51.7056 49.8396C51.9923 49.0514 52.4017 48.3247 52.8931 47.6492C53.2104 47.2193 53.5687 46.7996 53.9576 46.4312C54.2443 46.165 54.5309 45.8989 54.8584 45.684C54.8789 45.6328 54.9301 45.6123 54.971 45.5816C55.2986 45.3564 55.6364 45.1415 55.9947 44.9573C56.486 44.7116 56.9978 44.5171 57.5301 44.3943C57.5711 44.3943 57.7656 44.3329 57.8168 44.3227C57.9601 44.2919 58.1034 44.2715 58.2365 44.2715C58.4617 44.2715 58.6766 44.2101 58.8916 44.2305C59.2703 44.2715 59.6388 44.2919 60.0073 44.4045C60.3759 44.5171 60.7239 44.6707 61.031 44.8856C61.3278 45.0903 61.594 45.3462 61.8192 45.6328C62.0239 45.9092 62.1775 46.206 62.3105 46.5233C62.331 46.5745 62.3208 46.6563 62.4026 46.6666C62.5869 46.5642 62.7712 46.4619 62.9554 46.3595C63.2318 46.2162 63.4979 46.0627 63.7641 45.8989C63.9176 45.8068 64.0917 45.7351 64.2554 45.643C64.4602 45.5202 64.6546 45.3769 64.8594 45.2438C65.1869 45.0391 65.5247 44.8242 65.8318 44.599C65.8933 44.5581 65.9547 44.5171 66.0161 44.4967C66.1287 44.4455 66.2106 44.3534 66.3129 44.2817C66.5074 44.1486 66.7019 44.0258 66.8964 43.8825C67.009 43.8006 67.1114 43.7188 67.224 43.6369C67.4697 43.4219 67.7358 43.2377 67.9815 43.0432C68.1657 42.8897 68.35 42.7464 68.5445 42.5929C68.6878 42.4803 68.8208 42.3677 68.9642 42.2551C69.1279 42.1425 69.2508 41.9787 69.4043 41.8559C69.5579 41.7331 69.7012 41.6 69.8445 41.4772C69.8445 41.3953 69.7933 41.3339 69.7626 41.2622C69.5783 40.8016 69.4657 40.3308 69.4453 39.8395C69.4453 39.7474 69.4248 39.6655 69.4248 39.5734C69.4248 39.5427 69.4248 39.5017 69.4248 39.471C69.4248 39.4096 69.4146 39.3482 69.4146 39.2868C69.4146 39.1333 69.435 38.9797 69.4555 38.8262C69.5169 38.2632 69.6398 37.7208 69.8343 37.1987C70.1516 36.3083 70.6122 35.4894 71.2059 34.7422C71.5949 34.2407 72.0248 33.7801 72.5162 33.3809C72.7107 33.2274 72.8949 33.0636 73.0997 32.9306C73.1713 32.8384 73.2839 32.7873 73.3863 32.7258C73.9595 32.3471 74.5737 32.0401 75.2288 31.8354C75.4131 31.7739 75.9044 31.6511 75.9658 31.6409C76.447 31.5385 76.9383 31.5385 77.4194 31.5488C77.5422 31.5488 77.6753 31.5897 77.7981 31.5795C78.0131 31.211 78.2178 30.8323 78.4123 30.4536C78.7501 29.7985 79.0777 29.1332 79.3746 28.4474C79.7635 27.5774 80.1116 26.6869 80.4187 25.7759C80.6643 25.0595 81.1659 23.432 81.1659 23.3194C81.0226 23.2478 80.8691 23.258 80.7155 23.2273C79.61 23.0226 78.7604 22.4597 78.1974 21.477C77.9312 21.0164 77.7879 20.5047 77.706 19.9827C77.6753 19.8189 77.6548 19.5425 77.6548 19.2764C77.6548 19.041 77.6651 18.8056 77.6856 18.6828C77.7367 18.13 77.8596 17.5978 78.0438 17.0758C78.3714 16.1444 78.8525 15.305 79.4564 14.5374C79.7635 14.1484 80.0911 13.78 80.4596 13.4524C80.6848 13.2477 81.4935 12.6233 81.6368 12.5312C81.6368 12.3368 81.1864 10.6274 80.951 9.94165C80.7974 9.49129 80.6132 9.05116 80.4187 8.61104C80.0604 7.81267 79.047 6.16476 79.0368 6.14429C78.9651 6.04193 78.9651 6.04193 78.873 6.10334C78.8423 6.12382 78.8013 6.15452 78.7706 6.17499C78.2076 6.57418 77.6037 6.90171 76.9588 7.14736C76.9178 7.16784 76.8769 7.17807 76.8257 7.18831C76.7438 7.21901 76.6721 7.23948 76.58 7.27019C76.232 7.37254 75.8839 7.46466 75.5154 7.48514C75.1674 7.54655 74.8194 7.53631 74.4713 7.51584C74.2257 7.49537 73.9902 7.45443 73.765 7.38278C72.6185 7.05524 71.8201 6.32853 71.3799 5.21286C71.1957 4.74202 71.0933 4.25072 71.0933 3.73895C71.0933 3.71848 71.0933 3.68777 71.0933 3.6673C71.0933 3.58541 71.0933 3.50353 71.0933 3.43188C71.0933 2.93034 71.1752 2.43904 71.2981 1.94774C71.3902 1.57926 71.513 1.23125 71.6563 0.883246C71.6768 0.821833 71.7075 0.770656 71.7178 0.709243C71.687 0.658065 71.6256 0.658065 71.5847 0.64783C71.1138 0.484062 70.6327 0.351001 70.1413 0.238411C68.8004 -0.0891251 67.398 -0.232422 65.9751 -0.232422C65.5862 -0.232422 65.2074 -0.201715 64.8184 -0.201715ZM62.3003 12.1628C62.5664 12.173 62.8428 12.1832 63.109 12.2139C63.3956 12.2446 63.6822 12.2856 63.9688 12.3368C64.1428 12.3675 64.3169 12.4084 64.4909 12.4698C64.6854 12.5312 64.8901 12.5722 65.0846 12.6438C65.6066 12.8281 66.1082 13.0635 66.5791 13.3603C66.9476 13.5957 67.2956 13.8516 67.6232 14.1484C68.176 14.65 68.6366 15.2232 69.0051 15.868C69.2201 16.2467 69.4043 16.6357 69.5681 17.0348C69.5886 17.0758 69.65 17.2293 69.65 17.2498C69.7524 17.5876 69.865 17.9151 69.9366 18.2529C70.1209 19.0512 70.2028 19.8496 70.2028 20.6684C70.2028 20.8527 70.2028 21.0369 70.1925 21.2212C70.1209 22.8588 69.7421 24.4249 69.1484 25.95C68.4728 27.6695 67.5413 29.2458 66.4051 30.689C65.1562 32.2857 63.7027 33.6675 62.0137 34.8036C60.5396 35.8067 58.953 36.5744 57.223 37.035C56.0459 37.3523 54.838 37.4956 53.6198 37.4239C53.2206 37.4035 52.8316 37.3523 52.4427 37.2704C52.3915 37.2602 52.1765 37.209 52.1253 37.1987C51.6545 37.0862 51.1938 36.9429 50.7537 36.7484C50.0269 36.4209 49.3615 36.0012 48.7678 35.469C48.0513 34.8241 47.4883 34.0667 47.0686 33.1967C46.6796 32.4085 46.4339 31.5692 46.2906 30.6992C46.2599 30.4945 46.2292 30.2898 46.2087 30.0851C46.1678 29.6961 46.1371 29.3174 46.1371 28.9285C46.1371 28.8159 46.1371 28.6931 46.1371 28.5805C46.1678 27.8435 46.2497 27.1168 46.393 26.3901C46.5977 25.3563 46.9048 24.343 47.3142 23.3706C47.7032 22.4187 48.1741 21.518 48.7269 20.648C49.2592 19.8087 49.8426 19.0103 50.4875 18.2529C51.071 17.5671 51.7056 16.9223 52.3812 16.3286C52.7293 16.0215 53.0773 15.7247 53.4458 15.4483C53.5175 15.3972 53.712 15.2436 53.7427 15.2232C54.0907 14.9775 54.4285 14.7216 54.8073 14.5169C55.0018 14.4043 55.1758 14.261 55.3805 14.1587C55.8002 13.954 56.1892 13.6878 56.6191 13.5138C56.7829 13.4524 56.9364 13.3603 57.1002 13.2989C57.7042 13.0532 58.3081 12.8076 58.9325 12.6438C58.953 12.6438 58.9735 12.6438 58.9939 12.6438C59.168 12.5517 59.3522 12.5312 59.5365 12.4903C59.8333 12.4289 60.1302 12.3777 60.427 12.3163C60.5396 12.2958 60.6625 12.2856 60.7751 12.2753C61.0515 12.2549 61.3278 12.2139 61.6042 12.2037C61.8396 12.1935 62.0648 12.173 62.3003 12.1832V12.1628Z" fill="#6CF379"/>
<path d="M51.8593 35.5614C51.8593 35.5614 51.8593 35.5205 51.8593 35.5C51.8593 35.5 51.8593 35.4182 51.8388 35.3772C51.8388 35.3567 51.8388 35.3363 51.8388 35.3158C51.8388 35.2544 51.8388 35.193 51.8184 35.1418V35.0701C51.8184 35.0087 51.8081 34.9473 51.7877 34.8859C51.7877 34.8552 51.7877 34.8245 51.7877 34.7938C51.7877 34.7017 51.7877 34.6095 51.7569 34.5277C51.7569 34.3332 51.7365 34.149 51.7365 33.9545C51.716 32.8183 51.8491 31.6924 52.1152 30.587C52.3814 29.4611 52.7806 28.3761 53.2822 27.3219C53.7428 26.3495 54.2853 25.4283 54.8995 24.5583C55.7082 23.4119 56.6295 22.3577 57.6531 21.3955C58.646 20.4743 59.7106 19.676 60.8775 18.9902C61.2051 18.7957 61.5327 18.632 61.8602 18.4579C61.8909 18.4477 61.9319 18.4375 61.9626 18.417C62.3106 18.2328 62.6791 18.0792 63.0374 17.9257C63.4776 17.7415 63.9382 17.5982 64.3886 17.4549C64.4193 17.4549 64.45 17.4549 64.4808 17.4549C65.3099 17.199 66.1595 17.0557 67.0194 17.0045C67.5414 16.9738 68.0737 16.9738 68.5958 17.025C68.4832 16.7793 68.3706 16.5439 68.2375 16.3392C67.8997 15.7558 67.5005 15.2645 67.0296 14.8448C66.7532 14.5992 66.4461 14.3638 66.1083 14.1488C65.7194 13.9032 65.2894 13.6984 64.7981 13.5244C64.7162 13.4937 64.6138 13.463 64.5115 13.4426C64.4193 13.4221 64.3374 13.3914 64.2351 13.3607C64.102 13.3197 63.9689 13.289 63.8154 13.2583C63.5697 13.2071 63.3138 13.1764 63.0272 13.1457C62.7918 13.1253 62.5563 13.1048 62.2697 13.0946C62.1161 13.0946 61.9524 13.0946 61.7784 13.1048H61.6555C61.5122 13.115 61.3587 13.1355 61.1949 13.156C61.0823 13.1662 60.9799 13.1764 60.8673 13.1867H60.7957C60.724 13.1969 60.6626 13.2071 60.6114 13.2071C60.5295 13.2174 60.4579 13.2379 60.376 13.2481C60.161 13.289 59.946 13.33 59.7413 13.3709C59.7004 13.3709 59.6594 13.3914 59.6185 13.3914C59.5468 13.4016 59.4547 13.4221 59.4342 13.4323L59.2807 13.5142L59.1169 13.5347C58.5437 13.6882 57.9807 13.9134 57.4586 14.1283C57.4074 14.1488 57.346 14.1795 57.2743 14.2102C57.1822 14.2512 57.0799 14.3023 56.9673 14.3433C56.7625 14.4252 56.5578 14.548 56.3326 14.6708C56.1586 14.7732 55.9846 14.8653 55.7901 14.9677C55.7389 14.9984 55.657 15.0495 55.5853 15.1007C55.4932 15.1621 55.3909 15.2338 55.268 15.3054C54.9712 15.4692 54.6948 15.6739 54.3877 15.8888L54.2853 15.9605C54.2853 15.9605 54.2034 16.0219 54.1523 16.0628C54.0908 16.1038 54.0397 16.155 54.0089 16.1754C53.6404 16.4518 53.2924 16.7486 52.9955 17.0147C52.3609 17.5675 51.7569 18.1918 51.1939 18.8469C50.5798 19.5634 50.0168 20.3413 49.5152 21.1396C48.9931 21.979 48.5427 22.849 48.1742 23.7292C47.7852 24.6709 47.4986 25.6228 47.3041 26.5747C47.171 27.2298 47.0994 27.9258 47.0687 28.6218C47.0687 28.7241 47.0687 28.8265 47.0687 28.9391C47.0687 29.2769 47.0892 29.6146 47.1301 29.9933V30.0343C47.1403 30.2083 47.171 30.3823 47.2018 30.5665C47.3348 31.3649 47.5703 32.1223 47.8978 32.8081C48.2868 33.5962 48.7679 34.2411 49.3923 34.804C49.9042 35.2646 50.4876 35.6433 51.1428 35.9299C51.4191 36.0528 51.7058 36.1551 52.0231 36.237C51.9821 36.0528 51.931 35.8787 51.9002 35.6945C51.9002 35.6536 51.9002 35.6126 51.8798 35.5717L51.8593 35.5614ZM51.6648 34.6914C51.6648 34.6914 51.7058 34.7221 51.7365 34.7221C51.7058 34.7221 51.6853 34.7119 51.6648 34.6914ZM43.3631 47.9976C43.5883 47.8338 43.834 47.7007 44.0797 47.5677C44.1308 47.3834 44.182 47.1992 44.2025 47.015V46.974C44.2025 46.9638 44.2025 46.9228 44.2025 46.8921C44.2025 46.8 44.223 46.6874 44.2537 46.5441C44.2639 46.4622 44.2639 46.3599 44.2639 46.278C44.2639 46.2268 44.2639 46.1859 44.2639 46.1347C44.2639 46.0835 44.2639 46.0221 44.2639 45.9709C44.2639 45.8891 44.2639 45.8174 44.2639 45.7458C44.2639 45.7458 44.2639 45.7355 44.2639 45.7253C44.2639 45.6536 44.2537 45.5513 44.2332 45.4489C44.1923 45.1419 44.1308 44.9167 44.049 44.712C43.8647 44.2411 43.6293 43.8829 43.3017 43.5963C43.0048 43.3302 42.6363 43.1459 42.145 43.0129C41.9812 42.9719 41.8584 42.9515 41.756 42.9412C41.6946 42.9412 41.6434 42.9412 41.582 42.9412C41.2544 42.9412 40.9371 42.931 40.671 42.9822C40.6095 42.9924 40.5481 43.0026 40.4867 43.0129C40.3946 43.0334 40.3024 43.0436 40.2615 43.0641L40.0158 43.1562H39.9954C39.9954 43.1562 39.9954 43.1562 39.9851 43.1562C39.7702 43.2074 39.5961 43.2585 39.4528 43.3404C39.2993 43.4223 39.156 43.4837 39.0229 43.5451C38.9308 43.5861 38.8386 43.627 38.7567 43.668C38.6339 43.7294 38.5008 43.8215 38.3575 43.9136C38.2552 43.975 38.163 44.0467 38.0504 44.1081C39.3914 45.2545 40.7324 46.4111 42.0836 47.5574C42.3292 47.7724 42.5749 47.9771 42.8206 48.192C42.882 48.2535 42.9332 48.2637 43.0048 48.2023C43.1072 48.1204 43.2198 48.059 43.3222 47.9873L43.3631 47.9976ZM81.8519 9.63496C82.0361 10.157 82.5889 12.1017 82.5889 12.5316C82.5889 12.5623 82.5889 12.593 82.5889 12.6135L82.5479 13.0434L82.1999 13.289C82.0975 13.3607 81.3093 13.9646 81.1046 14.1488C80.8078 14.4047 80.5211 14.722 80.2141 15.1212C79.6511 15.8377 79.2314 16.6053 78.9447 17.4037C78.781 17.8643 78.6786 18.3351 78.6274 18.7957V18.8571C78.6274 18.9083 78.6069 19.0823 78.6069 19.3177C78.6069 19.6248 78.6274 19.7988 78.6377 19.8295V19.8909C78.7093 20.372 78.8321 20.7507 79.0164 21.068C79.4463 21.805 80.0503 22.2246 80.9204 22.3781C80.9408 22.3781 80.9715 22.3781 81.0023 22.3884C81.1456 22.4088 81.3605 22.4293 81.5857 22.5419L82.0975 22.7773V23.3403L82.1078 23.3505C82.1078 23.504 82.1078 23.5757 81.7905 24.6299C81.6267 25.1827 81.4322 25.7661 81.3196 26.1141C81.0125 27.0148 80.6542 27.936 80.2448 28.8572C79.9479 29.5225 79.6203 30.2185 79.2518 30.9145C79.0266 31.3444 78.8219 31.7231 78.6172 32.0711L78.3715 32.4908L77.8904 32.5215C77.7266 32.5317 77.5935 32.5215 77.4912 32.501C77.4707 32.501 77.4298 32.501 77.4195 32.501C77.0101 32.4908 76.5699 32.4908 76.1809 32.5727C76.099 32.5932 75.6793 32.7057 75.536 32.7467C74.9833 32.9207 74.451 33.1868 73.9187 33.5348C73.8777 33.5553 73.847 33.586 73.8061 33.6065L73.7651 33.6576L73.6423 33.7395C73.5092 33.8214 73.3762 33.934 73.2328 34.0568L73.1305 34.1387C72.721 34.4765 72.3423 34.8757 71.9533 35.367C71.421 36.0425 71.0013 36.7897 70.7249 37.5676C70.5509 38.0487 70.4485 38.5195 70.3974 38.9903C70.3974 39.0313 70.3974 39.0722 70.3871 39.1029C70.3769 39.195 70.3667 39.2872 70.3667 39.3588C70.3667 39.3793 70.3667 39.3998 70.3667 39.41L70.3871 39.5635L70.3667 39.6659C70.3667 39.6659 70.3667 39.6864 70.3667 39.7068C70.3667 39.7478 70.3667 39.8092 70.3769 39.8706C70.3974 40.2391 70.4793 40.6075 70.6328 40.9863C70.6738 41.0784 70.7659 41.2626 70.7761 41.5083L70.7966 41.9484L70.4588 42.235C70.4588 42.235 70.3769 42.3066 70.3257 42.3476C70.2234 42.4397 70.1108 42.5318 69.9879 42.6342C69.9572 42.6546 69.9163 42.7058 69.8651 42.757C69.773 42.8491 69.6603 42.9617 69.517 43.0641C69.4044 43.1459 69.2918 43.2381 69.169 43.3404L69.1383 43.3609C69.0155 43.4632 68.8824 43.5656 68.7493 43.6782L68.5753 43.8215C68.4627 43.9136 68.3501 43.9955 68.2477 44.0774C68.1044 44.19 67.9611 44.2923 67.8485 44.3947L67.7871 44.4356L67.6847 44.5073C67.6131 44.5584 67.5312 44.6199 67.4595 44.671C67.3265 44.7734 67.1934 44.8655 67.0603 44.9474C66.9887 44.9986 66.917 45.0395 66.8556 45.0907C66.8454 45.0907 66.8351 45.1112 66.8146 45.1214C66.7327 45.193 66.5894 45.3159 66.3847 45.3978C66.0674 45.6332 65.7398 45.8379 65.4225 46.0324L65.3508 46.0733C65.2792 46.1245 65.1973 46.1756 65.1154 46.2268C64.9926 46.3087 64.8697 46.3906 64.7264 46.4725C64.6241 46.5339 64.5217 46.5851 64.4296 46.6362C64.3579 46.667 64.2965 46.7079 64.2453 46.7284C63.9689 46.9024 63.6823 47.0661 63.3855 47.2197C63.2729 47.2811 63.15 47.3425 63.0272 47.4141C62.9658 47.4448 62.9044 47.4756 62.8532 47.5165L62.587 47.6598L62.2799 47.6189C62.1264 47.5984 61.6248 47.4756 61.461 46.8819C61.3484 46.626 61.2358 46.4111 61.0925 46.2371C60.939 46.0324 60.7547 45.8481 60.5193 45.6946C60.3043 45.5513 60.0484 45.4285 59.7413 45.3363C59.5059 45.2647 59.2295 45.234 58.9326 45.2033H58.7996C58.7996 45.2033 58.6563 45.2033 58.5641 45.2033C58.472 45.2033 58.3799 45.2237 58.2673 45.2237C58.1854 45.2237 58.0933 45.2442 57.9807 45.2647C57.9499 45.2647 57.8885 45.2852 57.8373 45.3056C57.7759 45.3159 57.735 45.3363 57.7145 45.3363C57.2743 45.4387 56.8342 45.6025 56.3838 45.8276C56.1074 45.9607 55.8413 46.1347 55.5956 46.2985V46.3292L55.3294 46.4929C55.0735 46.667 54.8279 46.8819 54.5515 47.1378C54.2239 47.4448 53.9066 47.8031 53.5893 48.233C53.1184 48.8676 52.7703 49.5124 52.5247 50.188L52.3404 50.6997L51.7979 50.7714C51.501 50.8123 51.2042 50.8123 50.9585 50.8123C50.9073 50.8123 50.8561 50.8123 50.805 50.8123H50.6514C50.4876 50.8123 50.3239 50.8123 50.1498 50.8123C50.0475 50.8123 49.9451 50.8123 49.8325 50.8123C49.5971 50.8123 49.3412 50.8123 49.0648 50.7816C48.9317 50.7714 48.7884 50.7509 48.6348 50.7407C48.5325 50.7407 48.4301 50.7304 48.338 50.7202C48.1435 50.6997 47.8978 50.6793 47.6419 50.6383C47.3041 50.5871 46.8947 50.5257 46.4852 50.4438C46.3726 50.4234 46.26 50.3927 46.1576 50.3722C47.4167 51.4469 48.6656 52.5216 49.9246 53.5964C50.0372 53.6885 50.1498 53.7601 50.2829 53.8011C50.4774 53.8625 50.6616 53.9239 50.8561 53.9853C52.0845 54.3436 53.3436 54.5585 54.6129 54.6506C55.442 54.7018 56.2712 54.7018 57.1003 54.6711C57.1617 54.6711 57.2232 54.6711 57.2641 54.6199C57.4074 54.2822 57.5507 53.9341 57.7248 53.6066C58.3594 52.4295 59.1988 51.4367 60.2531 50.6178C60.8161 50.1777 61.4405 49.8195 62.1059 49.5431C62.3925 49.4203 62.6996 49.3384 62.9965 49.2361C63.0784 49.2361 63.1603 49.2053 63.2319 49.1849C63.5595 49.1337 63.8973 49.0723 64.2351 49.0723C64.5319 49.0723 64.8288 49.0928 65.1154 49.1235C65.1973 49.1542 65.2587 49.2054 65.3201 49.2668C66.1493 49.9832 66.9784 50.6997 67.8178 51.406C67.9065 51.481 67.9986 51.4913 68.0942 51.4367C68.9029 51.0068 69.6911 50.5564 70.4588 50.0651C71.2368 49.5738 71.984 49.0621 72.721 48.5093C72.7722 48.4684 72.8336 48.4377 72.8746 48.3763C72.895 48.3558 72.9258 48.3456 72.9462 48.3251C73.4478 47.9464 73.9494 47.5574 74.4203 47.148C74.7274 46.8819 75.0242 46.626 75.3313 46.3599C75.3722 46.3189 75.4439 46.2882 75.3927 46.2166C75.2392 45.8481 75.1266 45.4694 75.0549 45.0702C75.0549 45.019 75.0549 44.9679 75.0344 44.9167C75.0242 44.6608 75.014 44.4049 74.9935 44.1593C75.014 43.9545 75.014 43.7498 75.0447 43.5451C75.1675 42.5625 75.4951 41.6413 75.966 40.7815C76.6313 39.5738 77.5321 38.5604 78.6479 37.7518C79.3337 37.2503 80.0707 36.8716 80.8794 36.6157C81.4219 36.4519 81.9747 36.3496 82.5479 36.3496C82.5889 36.3598 82.6298 36.3496 82.6708 36.3496C82.8243 36.3598 82.9881 36.3803 83.1417 36.3905C83.2031 36.3905 83.2645 36.4315 83.3361 36.3905C83.3873 36.3598 83.4078 36.2882 83.4385 36.237C83.8377 35.5205 84.2165 34.7836 84.5645 34.0466C85.4448 32.1837 86.1511 30.2595 86.6732 28.2635C86.7039 28.1407 86.6732 28.0793 86.5811 27.9974C85.5984 27.1479 84.6157 26.2983 83.6432 25.4488C83.5204 25.3464 83.3873 25.2543 83.2952 25.1213C83.2543 24.8449 83.2031 24.5788 83.2031 24.3024C83.2031 24.1079 83.2031 23.9032 83.2031 23.7088C83.244 23.1356 83.3566 22.5828 83.5409 22.0404C84.1039 20.3822 85.0866 19.0107 86.4378 17.895C86.6732 17.7005 86.9393 17.5265 87.1748 17.3423C87.1748 17.3423 87.1953 17.3423 87.2055 17.3423V17.2809C87.2055 17.2809 87.185 17.2809 87.1748 17.2809C87.1645 17.2297 87.1543 17.1683 87.1441 17.1171C87.0212 16.5439 86.8779 15.9707 86.7039 15.418C86.5197 14.8551 86.3252 14.2921 86.0795 13.7496C85.9259 13.4119 85.7724 13.0741 85.6086 12.7363C85.3118 12.1427 84.9637 11.5797 84.585 11.027C84.5133 10.9246 84.4417 10.8427 84.3495 10.7609C83.2543 9.80896 82.1692 8.85706 81.0739 7.90516C81.1353 8.02799 81.1967 8.14058 81.2377 8.24294C81.4527 8.724 81.6471 9.19483 81.8007 9.6452L81.8519 9.63496ZM83.285 13.8725C83.285 13.8725 83.2338 13.8315 83.1928 13.8213C83.1928 13.8213 83.2543 13.852 83.285 13.8725ZM72.0454 3.42202C72.0454 3.48343 72.0454 3.55508 72.0454 3.6165V3.67791C72.0454 3.69838 72.0454 3.71885 72.0454 3.73932C72.0454 4.11803 72.1171 4.50698 72.2706 4.8857C72.6084 5.74548 73.1714 6.25725 74.062 6.51314C74.236 6.56432 74.41 6.59502 74.5943 6.60526C74.84 6.62573 75.1368 6.63596 75.3927 6.59502H75.4439L75.4951 6.58479C75.7715 6.56432 76.0683 6.49267 76.3652 6.40055C76.3959 6.40055 76.4368 6.38008 76.4778 6.35961C76.5085 6.34937 76.5392 6.33913 76.5699 6.3289C76.6006 6.31866 76.6416 6.30843 76.6723 6.28796C76.7951 6.23678 76.9179 6.1856 77.051 6.13443C77.1022 5.97066 77.1636 5.81712 77.225 5.66359C77.2864 5.49983 77.2967 5.49982 77.1636 5.39747C75.6998 4.12827 74.2462 2.85907 72.7824 1.57963C72.6801 1.48751 72.5777 1.40563 72.4754 1.31351C72.3525 1.61034 72.2604 1.8867 72.199 2.15282C72.0761 2.62365 72.025 3.03307 72.025 3.41179L72.0454 3.42202Z" fill="black"/>
<path d="M36.617 25.5313L39.5446 18.7554C39.5446 18.7554 41.2847 19.0727 43.2092 18.1105C45.1336 17.1484 47.7541 14.2722 47.9896 12.1535C48.2352 9.93239 47.6927 8.38683 47.6927 8.38683L53.4353 4.4564C53.4353 4.4564 54.4794 7.14834 59.0756 6.49326C64.0709 5.77678 65.0126 0.894454 65.5142 0.904689C66.0158 0.914925 69.7009 1.23222 70.182 1.51882C70.3048 1.59047 69.2914 4.29263 71.0623 6.62633C74.297 10.8741 78.6475 7.78294 78.6475 7.78294L80.49 12.1637C80.49 12.1637 75.9246 9.29779 72.5364 12.0102C70.3867 13.7298 70.5608 16.5547 70.5198 16.4422C66.7221 7.60893 57.6117 11.2732 57.6117 11.2732C57.6117 11.2732 49.4022 14.5384 46.321 21.5087C41.6328 32.1229 46.188 36.2273 46.188 36.2273C42.9533 36.9848 43.4958 41.1711 43.4958 41.1711C40.6091 39.9531 37.6918 41.8466 37.6918 41.8466L35.9516 37.8241C35.9516 37.8241 42.943 32.4198 38.5516 26.6674C37.5689 25.388 36.6272 25.5313 36.6272 25.5313H36.617Z" fill="white"/>
<path d="M98.4657 80.5451C98.4657 80.5451 85.875 75.3148 72.9567 85.3762C72.9567 85.3762 79.0064 74.7006 67.9306 65.2942C67.9306 65.2942 80.3576 69.9821 93.1837 60.7087C93.1837 60.7087 86.2537 71.5583 98.4452 80.5349H98.4657V80.5451Z" fill="white"/>
<path d="M21.9177 34.0973C21.9177 34.0973 15.4995 28.8363 6.19465 32.4187C6.19465 32.4187 11.6097 27.26 6.79859 19.8291C6.79859 19.8291 13.227 24.7523 22.3374 21.5998C22.3374 21.5998 16.3901 26.7073 21.9177 34.0871V34.0973Z" fill="white"/>
</g>
<defs>
<clipPath id="clip0_15980_13670">
<rect width="100" height="100" fill="white"/>
</clipPath>
</defs>
</svg>
