<svg width="100" height="100" viewBox="0 0 100 100" fill="none" xmlns="http://www.w3.org/2000/svg">
<g clip-path="url(#clip0_15980_13672)">
<rect width="100" height="100" fill="#024731"/>
<path d="M56.3119 77.7035C56.3119 77.55 56.2709 77.4578 56.1071 77.4067C55.9127 77.3452 55.7182 77.2429 55.5237 77.1508C54.2748 76.5366 53.2205 75.6769 52.3504 74.5919C51.6748 73.7423 51.1732 72.8109 50.8866 71.7567C50.7331 71.1937 50.6716 70.6103 50.7126 70.0269C50.7228 69.8426 50.7433 69.6584 50.8047 69.4844C50.8149 69.2694 50.8968 69.0647 50.9787 68.86C51.337 67.9491 51.9819 67.3145 52.8725 66.9255C52.9339 66.8948 53.0772 66.8539 53.0874 66.8436C53.1079 66.7822 53.0669 66.7413 53.0362 66.6901C52.7189 66.076 52.3709 65.4823 52.0126 64.8887C50.8968 63.0667 49.6275 61.3472 48.2047 59.7402C48.1228 59.6481 48.0409 59.5662 47.9692 59.4741C47.9385 59.4331 47.9078 59.4127 47.8669 59.4127C47.8464 59.4127 47.8259 59.4127 47.7952 59.4331C47.7236 59.4638 47.6519 59.4946 47.5802 59.5253C47.0377 59.73 46.485 59.8119 45.9322 59.8119C45.5842 59.8119 45.2361 59.7811 44.8881 59.7197C44.1408 59.5969 43.4345 59.3513 42.7589 59.0033C41.7762 58.512 40.9061 57.8569 40.1486 57.0483C39.3604 56.209 38.7463 55.2673 38.3675 54.1823C38.0707 53.3635 37.9478 52.514 38.0707 51.6439C38.0809 51.5416 38.0604 51.4802 37.9581 51.4188C37.4053 51.1117 36.8525 50.8251 36.2895 50.5385C34.6312 49.7094 32.9115 49.0237 31.1304 48.4812C30.7517 48.3686 30.3627 48.2458 29.9737 48.1639C29.9635 48.1639 29.9532 48.1639 29.943 48.1639C29.9225 48.1639 29.902 48.1639 29.8816 48.1332H29.8611C29.8509 48.1332 29.8406 48.1332 29.8304 48.1434C29.8304 48.4607 29.769 48.778 29.6564 49.0748C29.5028 49.4842 29.3288 49.8937 29.032 50.2314C28.7658 50.5283 28.4894 50.8046 28.1312 50.9889C27.8445 51.1424 27.5579 51.2857 27.2508 51.3778C27.1587 51.4085 26.9437 51.4597 26.913 51.4699C26.5445 51.5416 26.1862 51.5723 25.8177 51.5723C25.4185 51.5723 25.0193 51.5313 24.6201 51.4495C23.5862 51.2448 22.6342 50.8251 21.7539 50.2417C20.7303 49.5661 19.8704 48.7371 19.1743 47.7237C19.1129 47.6316 19.0924 47.6009 19.031 47.6009C19.0003 47.6009 18.9594 47.6009 18.9082 47.6214C18.12 47.7749 17.342 47.9796 16.5845 48.2355C15.4278 48.6245 14.3325 49.1362 13.2884 49.7811C13.053 49.9244 12.8175 50.0677 12.6026 50.2417C12.6026 50.3133 12.664 50.344 12.6947 50.3952C12.8585 50.6818 13.0632 50.9479 13.2168 51.2448C13.3294 51.4699 13.4215 51.7053 13.5341 51.9203C13.6569 52.1557 13.7286 52.4014 13.8002 52.6572C13.8105 52.7187 13.8719 52.7596 13.8617 52.8313C13.9333 53.0053 13.9538 53.1997 13.9845 53.384C14.0664 53.8036 14.0459 54.2335 14.0459 54.6532C14.0459 54.8579 14.005 55.0728 13.9435 55.2673C13.79 55.8302 13.5546 56.342 13.1656 56.7822C12.7664 57.2427 12.2648 57.5498 11.7018 57.775C11.4049 57.8876 11.0978 57.9592 10.7805 58.0104C10.6372 58.0309 10.4939 58.0513 10.3506 58.0513C10.3301 58.0513 10.3096 58.0513 10.2892 58.0513C10.2277 58.0513 10.1663 58.0513 10.1049 58.0513C10.0025 58.0513 9.90018 58.0513 9.78758 58.0513C9.63403 58.0513 9.48048 58.0513 9.32694 58.0206C9.19387 57.9797 9.06079 57.9899 8.92772 57.9592C8.67181 57.9183 8.42614 57.8569 8.18047 57.7852C7.86314 57.7033 7.56628 57.5703 7.26943 57.4679C7.24896 57.4679 7.22848 57.4679 7.21825 57.4372C7.21825 57.4372 7.19777 57.4372 7.18754 57.4372C7.1773 57.4372 7.16707 57.4372 7.15683 57.4475C7.09541 57.6317 7.04423 57.8057 6.98281 57.9899C6.80879 58.5119 6.68596 59.0442 6.57336 59.5764C6.49146 59.9347 6.44028 60.3032 6.3891 60.6614C6.35839 60.8763 6.33792 61.1015 6.31745 61.3165C6.29697 61.5621 6.2765 61.818 6.25603 62.0637C6.21508 62.4014 6.24579 62.7392 6.23556 63.077C6.23556 63.2919 6.23556 63.4966 6.23556 63.7116C6.23556 64.0084 6.23556 64.295 6.26626 64.5918C7.05446 64.8784 7.78125 65.2878 8.45685 65.7791C8.88678 66.0964 9.30647 66.4547 9.67498 66.8436C9.94112 67.1302 10.2073 67.4168 10.4222 67.7444C10.4734 67.7648 10.4939 67.816 10.5246 67.8569C10.7498 68.1845 10.9648 68.5223 11.149 68.8805C11.3947 69.3718 11.5892 69.8836 11.712 70.4158C11.712 70.4568 11.7734 70.6512 11.7837 70.7024C11.8144 70.8457 11.8349 70.989 11.8349 71.1221C11.8349 71.3473 11.8963 71.5622 11.8758 71.7771C11.8348 72.1558 11.8144 72.5243 11.7018 72.8928C11.5892 73.2613 11.4356 73.6093 11.2207 73.9164C11.0159 74.2132 10.76 74.4793 10.4734 74.7045C10.197 74.9092 9.90018 75.0627 9.58285 75.1958C9.53167 75.2163 9.44978 75.206 9.43954 75.2879C9.5419 75.4721 9.64427 75.6564 9.74663 75.8406C9.88994 76.117 10.0435 76.3831 10.2073 76.6492C10.2994 76.8028 10.371 76.9768 10.4632 77.1405C10.586 77.3452 10.7293 77.5397 10.8624 77.7444C11.0671 78.072 11.2821 78.4097 11.5073 78.7168C11.5482 78.7782 11.5892 78.8396 11.6096 78.901C11.6608 79.0136 11.753 79.0955 11.8246 79.1979C11.9577 79.3923 12.0805 79.5868 12.2238 79.7813C12.3057 79.8939 12.3876 79.9962 12.4695 80.1088C12.6845 80.3545 12.8687 80.6206 13.0632 80.8662C13.2168 81.0505 13.3601 81.2347 13.5136 81.4292C13.6262 81.5725 13.7388 81.7056 13.8514 81.8489C13.964 82.0126 14.1278 82.1354 14.2506 82.289C14.3735 82.4425 14.5065 82.5858 14.6294 82.7291C14.7113 82.7291 14.7727 82.6779 14.8443 82.6472C15.305 82.463 15.7759 82.3504 16.2672 82.3299C16.3593 82.3299 16.4412 82.3095 16.5333 82.3095C16.5641 82.3095 16.605 82.3095 16.6357 82.3095C16.6971 82.3095 16.7585 82.2992 16.82 82.2992C16.9735 82.2992 17.1271 82.3197 17.2806 82.3402C17.8436 82.4016 18.3861 82.5244 18.9082 82.7189C19.7987 83.0362 20.6177 83.4968 21.3649 84.0904C21.8665 84.4794 22.3271 84.9093 22.7264 85.4006C22.8799 85.595 23.0437 85.7793 23.1767 85.984C23.2689 86.0556 23.3201 86.1682 23.3815 86.2706C23.7602 86.8438 24.0673 87.4579 24.272 88.113C24.3335 88.2972 24.4563 88.7885 24.4665 88.8499C24.5689 89.331 24.5689 89.8223 24.5587 90.3034C24.5587 90.4262 24.5177 90.5593 24.528 90.6821C24.8965 90.897 25.2752 91.1017 25.654 91.2962C26.3091 91.634 26.9744 91.9615 27.6603 92.2583C28.5304 92.6473 29.4209 92.9953 30.332 93.3024C31.0485 93.548 32.6761 94.0496 32.7887 94.0496C32.8501 93.9063 32.8501 93.7527 32.8808 93.5992C33.0856 92.4938 33.6486 91.6442 34.6312 91.0813C35.0919 90.8151 35.6037 90.6718 36.1258 90.59C36.2895 90.5592 36.5659 90.5388 36.8321 90.5388C37.0675 90.5388 37.3029 90.549 37.4258 90.5695C37.9785 90.6207 38.5108 90.7435 39.0329 90.9277C39.9644 91.2553 40.8038 91.7363 41.5715 92.3402C41.9605 92.6473 42.329 92.9748 42.6566 93.3433C42.8613 93.5685 43.4857 94.3771 43.5778 94.5204C43.7723 94.5204 45.4818 94.07 46.1676 93.8346C46.618 93.6811 47.0582 93.4968 47.4984 93.3024C48.2968 92.9441 49.9449 91.9308 49.9653 91.9206C50.0677 91.8489 50.0677 91.8489 50.0063 91.7568C49.9858 91.7261 49.9551 91.6852 49.9346 91.6544C49.5354 91.0915 49.2078 90.4876 48.9622 89.8428C48.9417 89.8018 48.9314 89.7609 48.9212 89.7097C48.8905 89.6278 48.87 89.5562 48.8393 89.4641C48.737 89.1161 48.6448 88.768 48.6244 88.3996C48.5629 88.0516 48.5732 87.7036 48.5937 87.3556C48.6141 87.1099 48.6551 86.8745 48.7267 86.6493C49.0543 85.5029 49.7811 84.7046 50.8968 84.2644C51.3677 84.0802 51.8591 83.9778 52.3709 83.9778C52.3913 83.9778 52.4221 83.9778 52.4425 83.9778C52.5244 83.9778 52.6063 83.9778 52.678 83.9778C53.1795 83.9778 53.6709 84.0597 54.1622 84.1826C54.5308 84.2747 54.8788 84.3975 55.2268 84.5408C55.2882 84.5613 55.3394 84.592 55.4008 84.6022C55.452 84.5715 55.452 84.5101 55.4623 84.4691C55.626 83.9983 55.7591 83.5172 55.8717 83.0259C56.189 81.6441 56.3323 80.2316 56.3323 78.8192C56.3323 78.4302 56.3016 78.0515 56.3016 77.6625L56.3119 77.7035ZM43.9463 75.1856C43.9361 75.4517 43.9259 75.728 43.8952 75.9942C43.8644 76.2808 43.8235 76.5673 43.7723 76.8539C43.7416 77.0279 43.7007 77.202 43.6392 77.376C43.5778 77.5704 43.5369 77.7751 43.4652 77.9696C43.281 78.4916 43.0455 78.9932 42.7487 79.464C42.5132 79.8325 42.2573 80.1805 41.9605 80.508C41.4589 81.0607 40.8857 81.5213 40.2408 81.8898C39.862 82.1047 39.473 82.289 39.0738 82.4528C39.0329 82.4732 38.8793 82.5346 38.8589 82.5346C38.5211 82.637 38.1935 82.7496 37.8557 82.8212C37.0573 83.0055 36.2588 83.0873 35.4399 83.0873C35.2557 83.0873 35.0714 83.0873 34.8872 83.0771C33.2493 83.0055 31.6832 82.6268 30.158 82.0331C28.4382 81.3576 26.8618 80.4261 25.4185 79.29C23.8216 78.0413 22.4397 76.5878 21.3035 74.899C20.3003 73.425 19.5326 71.8386 19.072 70.1088C18.7546 68.9317 18.6113 67.7239 18.683 66.5059C18.7035 66.1067 18.7546 65.7177 18.8365 65.3288C18.8468 65.2776 18.8979 65.0627 18.9082 65.0115C19.0208 64.5406 19.1641 64.0801 19.3586 63.6399C19.6861 62.9132 20.1058 62.2479 20.6381 61.6542C21.283 60.9378 22.0405 60.3748 22.9106 59.9552C23.6988 59.5662 24.5382 59.3205 25.4083 59.1773C25.613 59.1465 25.8177 59.1158 26.0225 59.0954C26.4114 59.0544 26.7902 59.0237 27.1792 59.0237C27.2918 59.0237 27.4146 59.0237 27.5272 59.0237C28.2642 59.0544 28.991 59.1363 29.7178 59.2796C30.7517 59.4843 31.7651 59.7914 32.7375 60.2008C33.6895 60.5897 34.5903 61.0606 35.4604 61.6133C36.2998 62.1455 37.0982 62.729 37.8557 63.3738C38.5415 63.9572 39.1864 64.5918 39.7801 65.2674C40.0872 65.6154 40.3841 65.9634 40.6605 66.3319C40.7116 66.4035 40.8652 66.598 40.8857 66.6287C41.1313 66.9767 41.3872 67.3145 41.592 67.6932C41.7046 67.8877 41.8479 68.0617 41.9503 68.2664C42.155 68.686 42.4211 69.075 42.5951 69.5049C42.6566 69.6686 42.7487 69.8222 42.8101 69.9859C43.0558 70.5898 43.3015 71.1937 43.4652 71.8181C43.4652 71.8385 43.4652 71.859 43.4652 71.8795C43.5574 72.0535 43.5778 72.2377 43.6188 72.422C43.6802 72.7188 43.7314 73.0156 43.7928 73.3125C43.8133 73.4251 43.8235 73.5479 43.8337 73.6605C43.8542 73.9368 43.8952 74.2132 43.9054 74.4895C43.9156 74.725 43.9361 74.9501 43.9259 75.1856H43.9463Z" fill="#6CF379"/>
<path d="M20.5463 64.755C20.5463 64.755 20.5873 64.755 20.6077 64.755C20.6077 64.755 20.6896 64.755 20.7306 64.7345C20.751 64.7345 20.7715 64.7345 20.792 64.7345C20.8534 64.7345 20.9148 64.7345 20.966 64.714C20.966 64.714 21.007 64.714 21.0377 64.714C21.0991 64.714 21.1605 64.714 21.2219 64.6936C21.2526 64.6936 21.2833 64.6936 21.314 64.6936C21.4062 64.6936 21.4983 64.6936 21.5802 64.6629C21.7747 64.6629 21.9589 64.6424 22.1534 64.6424C23.2897 64.6219 24.4157 64.755 25.5212 65.0211C26.6472 65.2872 27.7323 65.6864 28.7866 66.188C29.7591 66.6486 30.6803 67.191 31.5504 67.8052C32.6969 68.6138 33.7512 69.535 34.7135 70.5585C35.6347 71.5513 36.4332 72.6158 37.119 73.7827C37.3135 74.1102 37.4773 74.4378 37.6513 74.7653C37.6615 74.796 37.6718 74.8369 37.6922 74.8676C37.8765 75.2157 38.03 75.5841 38.1836 75.9424C38.3678 76.3825 38.5112 76.8431 38.6545 77.2935C38.6545 77.3242 38.6545 77.3549 38.6545 77.3856C38.9104 78.2147 39.0537 79.0642 39.1049 79.924C39.1356 80.446 39.1356 80.9782 39.0844 81.5002C39.3301 81.3877 39.5655 81.2751 39.7702 81.142C40.3537 80.8042 40.845 80.405 41.2647 79.9342C41.5104 79.6579 41.7458 79.3508 41.9608 79.013C42.2065 78.6241 42.4112 78.1942 42.5852 77.7029C42.6159 77.621 42.6466 77.5186 42.6671 77.4163C42.6876 77.3242 42.7183 77.2423 42.749 77.1399C42.79 77.0069 42.8207 76.8738 42.8514 76.7203C42.9025 76.4746 42.9333 76.2187 42.964 75.9321C42.9844 75.6967 43.0049 75.4613 43.0151 75.1747C43.0151 75.0212 43.0152 74.8574 43.0049 74.6834V74.5606C42.9947 74.4173 42.9742 74.2638 42.9537 74.1C42.9435 73.9874 42.9333 73.885 42.923 73.7725V73.7008C42.9128 73.6292 42.9026 73.5677 42.9026 73.5166C42.8923 73.4347 42.8718 73.363 42.8616 73.2812C42.8207 73.0662 42.7797 72.8513 42.7388 72.6466C42.7388 72.6056 42.7183 72.5647 42.7183 72.5237C42.7081 72.4521 42.6876 72.3599 42.6774 72.3395L42.5955 72.186L42.575 72.0222C42.4214 71.449 42.1962 70.886 41.9813 70.364C41.9608 70.3129 41.9301 70.2514 41.8994 70.1798C41.8584 70.0877 41.8073 69.9853 41.7663 69.8727C41.6844 69.668 41.5616 69.4633 41.4388 69.2381C41.3364 69.0641 41.2443 68.8901 41.1419 68.6956C41.1112 68.6445 41.06 68.5626 41.0088 68.4909C40.9474 68.3988 40.8758 68.2965 40.8041 68.1736C40.6403 67.8768 40.4356 67.6005 40.2206 67.2934L40.149 67.191C40.149 67.191 40.0876 67.1092 40.0466 67.058C40.0057 66.9966 39.9545 66.9454 39.934 66.9147C39.6576 66.5462 39.3608 66.1982 39.0946 65.9014C38.5419 65.2668 37.9174 64.6629 37.2623 64.0999C36.5458 63.4858 35.7678 62.9228 34.9694 62.4213C34.13 61.8993 33.2599 61.4489 32.3796 61.0804C31.4378 60.6915 30.4858 60.4049 29.5339 60.2104C28.8787 60.0774 28.1827 60.0057 27.4866 59.975C27.3842 59.975 27.2819 59.975 27.1693 59.975C26.8315 59.975 26.4937 59.9955 26.1149 60.0364H26.074C25.8999 60.0467 25.7259 60.0774 25.5417 60.1081C24.7432 60.2411 23.9857 60.4766 23.2999 60.8041C22.5117 61.193 21.8668 61.6741 21.3038 62.2985C20.8432 62.8102 20.4644 63.3937 20.1778 64.0487C20.055 64.3251 19.9526 64.6117 19.8707 64.929C20.055 64.888 20.229 64.8369 20.4132 64.8062C20.4542 64.8062 20.4951 64.8062 20.5361 64.7857L20.5463 64.755ZM21.4164 64.5503C21.4164 64.5503 21.3857 64.5912 21.3857 64.6219C21.3857 64.5912 21.3959 64.5707 21.4164 64.5503ZM8.10913 56.2493C8.27291 56.4745 8.40599 56.7201 8.53906 56.9658C8.72332 57.017 8.90757 57.0681 9.09182 57.0886H9.13277C9.14301 57.0886 9.18395 57.0886 9.21466 57.0886C9.30679 57.0886 9.41939 57.1091 9.5627 57.1398C9.64459 57.15 9.74695 57.15 9.82884 57.15C9.88002 57.15 9.92097 57.15 9.97215 57.15C10.0233 57.15 10.0848 57.15 10.1359 57.15C10.2178 57.15 10.2895 57.15 10.3611 57.15C10.3611 57.15 10.3714 57.15 10.3816 57.15C10.4533 57.15 10.5556 57.1398 10.658 57.1193H10.6682C10.9548 57.0784 11.1903 57.017 11.395 56.9351C11.8659 56.7508 12.2242 56.5154 12.5108 56.1879C12.7769 55.8911 12.9612 55.5226 13.0942 55.0313C13.1352 54.8675 13.1557 54.7447 13.1659 54.6423C13.1659 54.5809 13.1659 54.5297 13.1659 54.4683C13.1659 54.1408 13.1761 53.8235 13.125 53.5574C13.1147 53.496 13.1045 53.4345 13.0942 53.3731C13.0738 53.281 13.0635 53.1889 13.0431 53.1479L12.9509 52.9023V52.8818C12.9509 52.8818 12.9509 52.8818 12.9509 52.8716C12.8998 52.6566 12.8486 52.4826 12.7667 52.3393C12.6848 52.1858 12.6234 52.0425 12.562 51.9095C12.521 51.8173 12.4801 51.7252 12.4391 51.6433C12.3777 51.5205 12.2856 51.3874 12.1934 51.2441C12.132 51.1418 12.0604 51.0497 11.999 50.9371C10.8525 52.2779 9.69577 53.6188 8.5493 54.9699C8.33433 55.2155 8.12961 55.4612 7.91464 55.7068C7.85322 55.7682 7.84299 55.8194 7.90441 55.8911C7.9863 55.9934 8.04772 56.106 8.11937 56.2084L8.10913 56.2493ZM46.475 94.7347C45.953 94.919 44.0081 95.4717 43.5782 95.4717C43.5474 95.4717 43.5167 95.4717 43.4963 95.4717L43.0663 95.4307L42.8207 95.0827C42.749 94.9804 42.1451 94.1922 41.9608 93.9875C41.7049 93.6907 41.3876 93.4041 40.9883 93.0971C40.2718 92.5341 39.5041 92.1144 38.7056 91.8279C38.245 91.6641 37.7741 91.5617 37.3135 91.5105H37.2521C37.2009 91.5105 37.0269 91.4901 36.7914 91.4901C36.4843 91.4901 36.3103 91.5106 36.2796 91.5208H36.2182C35.7371 91.5924 35.3583 91.7153 35.041 91.8995C34.304 92.3294 33.8843 92.9333 33.7308 93.8033C33.7308 93.8238 33.7308 93.8545 33.7205 93.8852C33.7001 94.0285 33.6796 94.2434 33.567 94.4686L33.3315 94.9804H32.7685L32.7583 94.9906H32.7481C32.6048 94.9906 32.5331 94.9906 31.4788 94.6733C30.926 94.5096 30.3425 94.3151 29.9945 94.2025C29.0937 93.8954 28.1724 93.5372 27.2511 93.1278C26.5858 92.8309 25.8897 92.5034 25.1936 92.1349C24.7637 91.9097 24.385 91.705 24.0369 91.5003L23.6172 91.2547L23.5865 90.7736C23.5763 90.6098 23.5865 90.4768 23.607 90.3744C23.607 90.3539 23.607 90.313 23.607 90.3028C23.6172 89.8933 23.6172 89.4532 23.5353 89.0643C23.5149 88.9824 23.4023 88.5627 23.3613 88.4194C23.1873 87.8667 22.9212 87.3345 22.5731 86.8022C22.5527 86.7613 22.5219 86.7306 22.5015 86.6896L22.4503 86.6487L22.3684 86.5259C22.2865 86.3928 22.1739 86.2597 22.0511 86.1164L21.9692 86.0141C21.6314 85.6047 21.2322 85.226 20.7408 84.837C20.0652 84.3048 19.318 83.8851 18.54 83.6087C18.0589 83.4347 17.588 83.3324 17.1171 83.2812C17.0762 83.2812 17.0352 83.2812 17.0045 83.271C16.9124 83.2607 16.8203 83.2505 16.7486 83.2505C16.7282 83.2505 16.7077 83.2505 16.6974 83.2505L16.5439 83.271L16.4415 83.2505C16.4415 83.2505 16.4211 83.2505 16.4006 83.2505C16.3596 83.2505 16.2982 83.2505 16.2368 83.2607C15.8683 83.2812 15.4998 83.3631 15.121 83.5166C15.0289 83.5678 14.8549 83.6599 14.599 83.6599L14.1588 83.6804L13.8722 83.3426C13.8722 83.3426 13.8006 83.2607 13.7596 83.2096C13.6675 83.1072 13.5754 82.9946 13.473 82.8718C13.4525 82.8411 13.4013 82.8001 13.3502 82.749C13.258 82.6569 13.1454 82.5443 13.0431 82.401C12.9612 82.2884 12.869 82.1758 12.7667 82.053L12.7462 82.0223C12.6438 81.8994 12.5415 81.7664 12.4289 81.6333L12.2856 81.4593C12.1934 81.3467 12.1116 81.2341 12.0297 81.1318C11.9171 80.9885 11.8147 80.8452 11.7123 80.7326L11.6714 80.6712L11.5997 80.5688C11.5486 80.4972 11.4871 80.4153 11.436 80.3436C11.3336 80.2106 11.2415 80.0775 11.1596 79.9444C11.1084 79.8728 11.0674 79.8011 11.0163 79.7397C11.0163 79.7295 10.9958 79.7193 10.9856 79.6988C10.9139 79.6169 10.7911 79.4736 10.7092 79.2689C10.4737 78.9516 10.269 78.6241 10.0745 78.3068L10.0336 78.2351C9.98239 78.1635 9.93121 78.0816 9.88002 77.9997C9.79813 77.8769 9.71624 77.7541 9.63435 77.6108C9.57293 77.5084 9.52175 77.406 9.47057 77.3139C9.43986 77.2423 9.39892 77.1809 9.37844 77.1297C9.20442 76.8533 9.04064 76.5667 8.8871 76.2699C8.82568 76.1573 8.76426 76.0345 8.69261 75.9117C8.6619 75.8503 8.63119 75.7888 8.59024 75.7377L8.44693 75.4715L8.48788 75.1645C8.50835 75.0109 8.63119 74.5094 9.2249 74.3456C9.48081 74.233 9.69577 74.1205 9.86979 73.9772C10.0745 73.8236 10.2588 73.6394 10.4123 73.404C10.5556 73.189 10.6785 72.9331 10.7706 72.6261C10.8422 72.3907 10.873 72.1143 10.9037 71.8175V71.6844C10.9037 71.6844 10.9037 71.5411 10.9037 71.449C10.9037 71.3569 10.8832 71.2648 10.8832 71.1522C10.8832 71.0703 10.8627 70.9782 10.8422 70.8656C10.8422 70.8349 10.8218 70.7735 10.8013 70.7223C10.7911 70.6609 10.7706 70.6199 10.7706 70.5994C10.6682 70.1593 10.5044 69.7192 10.2792 69.2688C10.1462 68.9925 9.97215 68.7264 9.80837 68.4807H9.77766L9.61388 68.2146C9.43986 67.9587 9.2249 67.713 8.96899 67.4367C8.6619 67.1092 8.30362 66.7918 7.8737 66.4745C7.23904 66.0037 6.59415 65.6557 5.91855 65.4101L5.40673 65.2258L5.33508 64.6833C5.29413 64.3865 5.29413 64.0897 5.29413 63.844C5.29413 63.7929 5.29413 63.7417 5.29413 63.6905V63.537C5.29413 63.3732 5.29413 63.2094 5.29413 63.0354C5.29413 62.9331 5.29413 62.8307 5.29413 62.7181C5.29413 62.4827 5.29413 62.2268 5.32484 61.9505C5.33508 61.8174 5.35555 61.6741 5.36579 61.5206C5.36579 61.4182 5.37602 61.3159 5.38626 61.2237C5.40673 61.0293 5.4272 60.7836 5.46815 60.5277C5.51933 60.19 5.58075 59.7805 5.66264 59.3711C5.68311 59.2585 5.71382 59.1459 5.7343 59.0436C4.65948 60.3025 3.58466 61.5513 2.50984 62.8102C2.41771 62.9228 2.34606 63.0354 2.30511 63.1685C2.24369 63.363 2.18228 63.5472 2.12086 63.7417C1.76258 64.9699 1.54762 66.2289 1.45549 67.4981C1.40431 68.3272 1.40431 69.1562 1.43502 69.9853C1.43502 70.0467 1.43502 70.1081 1.4862 70.1491C1.824 70.2924 2.17204 70.4357 2.4996 70.6097C3.67678 71.2443 4.66971 72.0836 5.48862 73.1379C5.92879 73.7008 6.28706 74.3252 6.56344 74.9905C6.68628 75.2771 6.76817 75.5841 6.87053 75.881C6.87053 75.9629 6.90124 76.0447 6.92171 76.1164C6.9729 76.4439 7.03431 76.7817 7.03431 77.1195C7.03431 77.4163 7.01384 77.7131 6.98313 77.9997C6.95242 78.0816 6.90124 78.143 6.83982 78.2044C6.12328 79.0335 5.40673 79.8626 4.70042 80.7019C4.62536 80.7906 4.61512 80.8827 4.66971 80.9782C5.09964 81.7868 5.55004 82.575 6.04139 83.3426C6.53273 84.1205 7.04455 84.8677 7.59731 85.6047C7.63826 85.6559 7.66897 85.7173 7.73039 85.7582C7.75086 85.7787 7.7611 85.8094 7.78157 85.8299C8.16031 86.3314 8.5493 86.8329 8.95875 87.3038C9.2249 87.6108 9.48081 87.9077 9.74695 88.2147C9.7879 88.2557 9.81861 88.3273 9.89026 88.2761C10.2588 88.1226 10.6375 88.01 11.0367 87.9384C11.0879 87.9384 11.1391 87.9384 11.1903 87.9179C11.4462 87.9077 11.7021 87.8974 11.9478 87.8769C12.1525 87.8974 12.3572 87.8974 12.562 87.9281C13.5446 88.051 14.4659 88.3785 15.3258 88.8493C16.5337 89.5146 17.5471 90.4154 18.3557 91.531C18.8573 92.2168 19.2361 92.9538 19.492 93.7624C19.6558 94.3048 19.7581 94.8576 19.7581 95.4307C19.7479 95.4717 19.7581 95.5126 19.7581 95.5536C19.7479 95.7071 19.7274 95.8709 19.7172 96.0244C19.7172 96.0858 19.6762 96.1472 19.7172 96.2189C19.7479 96.2701 19.8195 96.2905 19.8707 96.3212C20.5873 96.7204 21.3243 97.0991 22.0613 97.4471C23.9243 98.3274 25.8488 99.0336 27.8449 99.5556C27.9677 99.5863 28.0291 99.5556 28.111 99.4635C28.9606 98.4809 29.8102 97.4983 30.6599 96.5259C30.7622 96.4031 30.8543 96.2701 30.9874 96.1779C31.2638 96.137 31.5299 96.0858 31.8063 96.0858C32.0008 96.0858 32.2055 96.0858 32.4 96.0858C32.9733 96.1268 33.526 96.2393 34.0686 96.4236C35.7269 96.9865 37.0985 97.9691 38.2143 99.3202C38.4088 99.5556 38.5828 99.8218 38.7671 100.057C38.7671 100.057 38.7671 100.078 38.7671 100.088H38.8285C38.8285 100.088 38.8285 100.067 38.8285 100.057C38.8797 100.047 38.9411 100.037 38.9923 100.026C39.5655 99.9036 40.1387 99.7603 40.6915 99.5863C41.2545 99.4021 41.8175 99.2076 42.36 98.962C42.6978 98.8085 43.0356 98.6549 43.3734 98.4912C43.9671 98.1943 44.5301 97.8463 45.0829 97.4676C45.1853 97.396 45.2672 97.3243 45.349 97.2322C46.301 96.137 47.253 95.052 48.205 93.9568C48.0822 94.0182 47.9696 94.0797 47.8672 94.1206C47.3861 94.3355 46.9152 94.53 46.4648 94.6835L46.475 94.7347ZM42.2372 96.1677C42.2372 96.1677 42.2781 96.1165 42.2884 96.0756C42.2884 96.0756 42.2577 96.137 42.2372 96.1677ZM52.6885 84.9291C52.6271 84.9291 52.5554 84.9291 52.494 84.9291H52.4326C52.4121 84.9291 52.3917 84.9291 52.3712 84.9291C51.9925 84.9291 51.6035 85.0008 51.2247 85.1543C50.3649 85.4921 49.8531 86.055 49.5971 86.9455C49.546 87.1195 49.5152 87.2935 49.505 87.4778C49.4845 87.7234 49.4743 88.0202 49.5152 88.2761V88.3273L49.5255 88.3785C49.546 88.6548 49.6176 88.9517 49.7097 89.2485C49.7097 89.2792 49.7302 89.3202 49.7507 89.3611C49.7609 89.3918 49.7712 89.4225 49.7814 89.4532C49.7916 89.4839 49.8019 89.5249 49.8223 89.5556C49.8735 89.6784 49.9247 89.8012 49.9759 89.9343C50.1397 89.9855 50.2932 90.0469 50.4468 90.1083C50.6105 90.1697 50.6105 90.1799 50.7129 90.0469C51.9822 88.5832 53.2515 87.1298 54.5311 85.6661C54.6232 85.5637 54.7051 85.4614 54.7972 85.359C54.5004 85.2362 54.224 85.1441 53.9578 85.0827C53.487 84.9598 53.0775 84.9087 52.6988 84.9087L52.6885 84.9291Z" fill="black"/>
<path d="M30.5781 49.5057L37.3546 52.4331C37.3546 52.4331 37.0372 54.1731 37.9995 56.0974C38.9617 58.0217 41.8381 60.6419 43.957 60.8773C46.1783 61.123 47.724 60.5805 47.724 60.5805L51.6548 66.3226C51.6548 66.3226 48.9626 67.3667 49.6177 71.9624C50.3343 76.9573 55.217 77.899 55.2068 78.4005C55.1966 78.902 54.8792 82.5868 54.5926 83.0679C54.521 83.1907 51.8185 82.1774 49.4846 83.9481C45.2366 87.1825 48.3279 91.5326 48.3279 91.5326L43.9468 93.375C43.9468 93.375 46.813 88.81 44.1003 85.4221C42.3806 83.2726 39.5554 83.4466 39.668 83.4057C48.502 79.6083 44.8373 70.4987 44.8373 70.4987C44.8373 70.4987 41.5719 62.2898 34.601 59.209C23.9859 54.5211 19.8811 59.0759 19.8811 59.0759C19.1236 55.8415 14.9369 56.384 14.9369 56.384C16.155 53.4976 14.2613 50.5805 14.2613 50.5805L18.2842 48.8404C18.2842 48.8404 23.689 55.8312 29.4418 51.4402C30.7214 50.4576 30.5781 49.516 30.5781 49.516V49.5057Z" fill="white"/>
<path d="M64.8184 0.118597C64.6649 0.118597 64.5728 0.159539 64.5216 0.323307C64.4602 0.517781 64.3578 0.712255 64.2657 0.90673C63.6515 2.15546 62.7916 3.20971 61.7066 4.07973C60.857 4.75527 59.9254 5.25681 58.8711 5.54341C58.3081 5.69694 57.7246 5.75835 57.1412 5.71741C56.9569 5.70717 56.7726 5.6867 56.5986 5.62529C56.3837 5.61505 56.1789 5.53317 55.9742 5.45129C55.0632 5.09304 54.4285 4.44821 54.0395 3.55772C54.0088 3.49631 53.9679 3.35301 53.9576 3.34278C53.8962 3.3223 53.8553 3.36325 53.8041 3.39395C53.1899 3.71125 52.5962 4.05926 52.0025 4.4175C50.1804 5.53317 48.4607 6.80237 46.8536 8.2251C46.7615 8.30699 46.6796 8.38887 46.5875 8.46052C46.5465 8.49123 46.526 8.52193 46.526 8.56287C46.526 8.58334 46.526 8.60382 46.5465 8.63452C46.5772 8.70617 46.6079 8.77782 46.6386 8.84947C46.8434 9.39195 46.9253 9.94466 46.9253 10.4974C46.9253 10.8454 46.8946 11.1934 46.8331 11.5414C46.7103 12.2886 46.4646 12.9948 46.1166 13.6704C45.6252 14.653 44.9701 15.523 44.1614 16.2804C43.3221 17.0686 42.3803 17.6827 41.2953 18.0614C40.4763 18.3582 39.6267 18.4811 38.7566 18.3582C38.6543 18.348 38.5929 18.3685 38.5314 18.4708C38.2243 19.0235 37.9377 19.5763 37.6511 20.1392C36.822 21.7974 36.1361 23.5169 35.5936 25.2979C35.481 25.6766 35.3582 26.0656 35.2763 26.4545C35.2763 26.4647 35.2763 26.475 35.2763 26.4852C35.2763 26.5057 35.2763 26.5262 35.2456 26.5466V26.5671C35.2456 26.5773 35.2456 26.5876 35.2558 26.5978C35.5731 26.5978 35.8905 26.6592 36.1873 26.7718C36.5968 26.9253 37.0062 27.0993 37.344 27.3962C37.6409 27.6623 37.9173 27.9387 38.1015 28.2969C38.2551 28.5835 38.3984 28.8701 38.4905 29.1771C38.5212 29.2693 38.5724 29.4842 38.5826 29.5149C38.6543 29.8834 38.685 30.2416 38.685 30.6101C38.685 31.0093 38.644 31.4085 38.5621 31.8077C38.3574 32.8414 37.9377 33.7934 37.3543 34.6736C36.6787 35.6972 35.8495 36.5569 34.8361 37.2529C34.744 37.3144 34.7133 37.3348 34.7133 37.3962C34.7133 37.4269 34.7133 37.4679 34.7337 37.5191C34.8873 38.3072 35.092 39.0851 35.3479 39.8425C35.7369 40.9991 36.2487 42.0943 36.8936 43.1384C37.0369 43.3738 37.1802 43.6092 37.3543 43.8241C37.4259 43.8241 37.4566 43.7627 37.5078 43.732C37.7944 43.5682 38.0606 43.3635 38.3574 43.21C38.5826 43.0974 38.8181 43.0053 39.033 42.8927C39.2685 42.7699 39.5141 42.6982 39.77 42.6266C39.8315 42.6163 39.8724 42.5549 39.9441 42.5652C40.1181 42.4935 40.3126 42.473 40.4968 42.4423C40.9165 42.3605 41.3464 42.3809 41.7661 42.3809C41.9709 42.3809 42.1858 42.4219 42.3803 42.4833C42.9433 42.6368 43.4551 42.8722 43.8953 43.2612C44.3559 43.6604 44.663 44.1619 44.8882 44.7248C45.0008 45.0217 45.0725 45.3287 45.1237 45.646C45.1441 45.7893 45.1646 45.9326 45.1646 46.0759C45.1646 46.0964 45.1646 46.1169 45.1646 46.1373C45.1646 46.1988 45.1646 46.2602 45.1646 46.3216C45.1646 46.4239 45.1646 46.5263 45.1646 46.6389C45.1646 46.7924 45.1646 46.9459 45.1339 47.0995C45.0929 47.2325 45.1032 47.3656 45.0725 47.4987C45.0315 47.7546 44.9701 48.0002 44.8985 48.2459C44.8166 48.5632 44.6835 48.86 44.5811 49.1568C44.5811 49.1773 44.5811 49.1978 44.5504 49.208C44.5504 49.208 44.5504 49.2285 44.5504 49.2387C44.5504 49.2489 44.5504 49.2592 44.5607 49.2694C44.7449 49.3308 44.9189 49.382 45.1032 49.4434C45.6252 49.6174 46.1575 49.7402 46.6898 49.8528C47.0481 49.9347 47.4166 49.9859 47.7749 50.0371C47.9898 50.0678 48.215 50.0882 48.43 50.1087C48.6757 50.1292 48.9316 50.1497 49.1773 50.1701C49.5151 50.2111 49.8529 50.1804 50.1907 50.1906C50.4056 50.1906 50.6104 50.1906 50.8253 50.1906C51.1222 50.1906 51.4088 50.1906 51.7056 50.1599C51.9923 49.3718 52.4017 48.645 52.8931 47.9695C53.2104 47.5396 53.5687 47.12 53.9576 46.7515C54.2443 46.4854 54.5309 46.2192 54.8584 46.0043C54.8789 45.9531 54.9301 45.9326 54.971 45.9019C55.2986 45.6767 55.6364 45.4618 55.9947 45.2776C56.486 45.0319 56.9978 44.8374 57.5301 44.7146C57.5711 44.7146 57.7656 44.6532 57.8168 44.643C57.9601 44.6123 58.1034 44.5918 58.2365 44.5918C58.4617 44.5918 58.6766 44.5304 58.8916 44.5508C59.2703 44.5918 59.6388 44.6123 60.0073 44.7248C60.3759 44.8374 60.7239 44.991 61.031 45.2059C61.3278 45.4106 61.594 45.6665 61.8192 45.9531C62.0239 46.2295 62.1775 46.5263 62.3105 46.8436C62.331 46.8948 62.3208 46.9767 62.4026 46.9869C62.5869 46.8845 62.7712 46.7822 62.9554 46.6798C63.2318 46.5365 63.4979 46.383 63.7641 46.2192C63.9176 46.1271 64.0917 46.0555 64.2554 45.9633C64.4602 45.8405 64.6546 45.6972 64.8594 45.5642C65.1869 45.3594 65.5247 45.1445 65.8318 44.9193C65.8933 44.8784 65.9547 44.8374 66.0161 44.817C66.1287 44.7658 66.2106 44.6737 66.3129 44.602C66.5074 44.469 66.7019 44.3461 66.8964 44.2028C67.009 44.121 67.1114 44.0391 67.224 43.9572C67.4697 43.7422 67.7358 43.558 67.9815 43.3635C68.1657 43.21 68.35 43.0667 68.5445 42.9132C68.6878 42.8006 68.8208 42.688 68.9642 42.5754C69.1279 42.4628 69.2508 42.299 69.4043 42.1762C69.5579 42.0534 69.7012 41.9203 69.8445 41.7975C69.8445 41.7156 69.7933 41.6542 69.7626 41.5826C69.5783 41.122 69.4657 40.6511 69.4453 40.1598C69.4453 40.0677 69.4248 39.9858 69.4248 39.8937C69.4248 39.863 69.4248 39.8221 69.4248 39.7913C69.4248 39.7299 69.4146 39.6685 69.4146 39.6071C69.4146 39.4536 69.435 39.3 69.4555 39.1465C69.5169 38.5836 69.6398 38.0411 69.8343 37.5191C70.1516 36.6286 70.6122 35.8097 71.2059 35.0625C71.5949 34.561 72.0248 34.1004 72.5162 33.7012C72.7107 33.5477 72.8949 33.3839 73.0997 33.2509C73.1713 33.1587 73.2839 33.1076 73.3863 33.0462C73.9595 32.6674 74.5737 32.3604 75.2288 32.1557C75.4131 32.0943 75.9044 31.9714 75.9658 31.9612C76.447 31.8588 76.9383 31.8588 77.4194 31.8691C77.5422 31.8691 77.6753 31.91 77.7981 31.8998C78.0131 31.5313 78.2178 31.1526 78.4123 30.7739C78.7501 30.1188 79.0777 29.4535 79.3746 28.7677C79.7635 27.8977 80.1116 27.0072 80.4187 26.0963C80.6643 25.3798 81.1659 23.7523 81.1659 23.6397C81.0226 23.5681 80.8691 23.5783 80.7155 23.5476C79.61 23.3429 78.7604 22.78 78.1974 21.7974C77.9312 21.3368 77.7879 20.825 77.706 20.303C77.6753 20.1392 77.6548 19.8629 77.6548 19.5967C77.6548 19.3613 77.6651 19.1259 77.6856 19.0031C77.7367 18.4504 77.8596 17.9181 78.0438 17.3961C78.3714 16.4647 78.8525 15.6254 79.4564 14.8577C79.7635 14.4688 80.0911 14.1003 80.4596 13.7727C80.6848 13.568 81.4935 12.9437 81.6368 12.8515C81.6368 12.6571 81.1864 10.9477 80.951 10.262C80.7974 9.8116 80.6132 9.37148 80.4187 8.93135C80.0604 8.13298 79.047 6.48507 79.0368 6.4646C78.9651 6.36224 78.9651 6.36224 78.873 6.42366C78.8423 6.44413 78.8013 6.47483 78.7706 6.49531C78.2076 6.89449 77.6037 7.22202 76.9588 7.46768C76.9178 7.48815 76.8769 7.49838 76.8257 7.50862C76.7438 7.53932 76.6721 7.5598 76.58 7.5905C76.232 7.69286 75.8839 7.78498 75.5154 7.80545C75.1674 7.86686 74.8194 7.85663 74.4713 7.83615C74.2257 7.81568 73.9902 7.77474 73.765 7.70309C72.6185 7.37556 71.8201 6.64884 71.3799 5.53317C71.1957 5.06234 71.0933 4.57103 71.0933 4.05926C71.0933 4.03879 71.0933 4.00808 71.0933 3.98761C71.0933 3.90573 71.0933 3.82384 71.0933 3.75219C71.0933 3.25066 71.1752 2.75935 71.2981 2.26805C71.3902 1.89957 71.513 1.55157 71.6563 1.20356C71.6768 1.14215 71.7075 1.09097 71.7178 1.02956C71.687 0.978378 71.6256 0.978378 71.5847 0.968143C71.1138 0.804375 70.6327 0.671313 70.1413 0.558723C68.8004 0.231187 67.398 0.0878906 65.9751 0.0878906C65.5862 0.0878906 65.2074 0.118597 64.8184 0.118597ZM62.3003 12.4831C62.5664 12.4933 62.8428 12.5035 63.109 12.5342C63.3956 12.5649 63.6822 12.6059 63.9688 12.6571C64.1428 12.6878 64.3169 12.7287 64.4909 12.7901C64.6854 12.8515 64.8901 12.8925 65.0846 12.9641C65.6066 13.1484 66.1082 13.3838 66.5791 13.6806C66.9476 13.916 67.2956 14.1719 67.6232 14.4688C68.176 14.9703 68.6366 15.5435 69.0051 16.1883C69.2201 16.567 69.4043 16.956 69.5681 17.3552C69.5886 17.3961 69.65 17.5496 69.65 17.5701C69.7524 17.9079 69.865 18.2354 69.9366 18.5732C70.1209 19.3715 70.2028 20.1699 70.2028 20.9888C70.2028 21.173 70.2028 21.3572 70.1925 21.5415C70.1209 23.1791 69.7421 24.7452 69.1484 26.2703C68.4728 27.9898 67.5413 29.5661 66.4051 31.0093C65.1562 32.606 63.7027 33.9878 62.0137 35.124C60.5396 36.127 58.953 36.8947 57.223 37.3553C56.0459 37.6726 54.838 37.8159 53.6198 37.7442C53.2206 37.7238 52.8316 37.6726 52.4427 37.5907C52.3915 37.5805 52.1765 37.5293 52.1253 37.5191C51.6545 37.4065 51.1938 37.2632 50.7537 37.0687C50.0269 36.7412 49.3615 36.3215 48.7678 35.7893C48.0513 35.1444 47.4883 34.387 47.0686 33.517C46.6796 32.7289 46.4339 31.8895 46.2906 31.0195C46.2599 30.8148 46.2292 30.6101 46.2087 30.4054C46.1678 30.0165 46.1371 29.6377 46.1371 29.2488C46.1371 29.1362 46.1371 29.0134 46.1371 28.9008C46.1678 28.1638 46.2497 27.4371 46.393 26.7104C46.5977 25.6766 46.9048 24.6633 47.3142 23.6909C47.7032 22.739 48.1741 21.8383 48.7269 20.9683C49.2592 20.129 49.8426 19.3306 50.4875 18.5732C51.071 17.8874 51.7056 17.2426 52.3812 16.6489C52.7293 16.3418 53.0773 16.045 53.4458 15.7687C53.5175 15.7175 53.712 15.5639 53.7427 15.5435C54.0907 15.2978 54.4285 15.0419 54.8073 14.8372C55.0018 14.7246 55.1758 14.5813 55.3805 14.479C55.8002 14.2743 56.1892 14.0082 56.6191 13.8341C56.7829 13.7727 56.9364 13.6806 57.1002 13.6192C57.7042 13.3736 58.3081 13.1279 58.9325 12.9641C58.953 12.9641 58.9735 12.9641 58.9939 12.9641C59.168 12.872 59.3522 12.8515 59.5365 12.8106C59.8333 12.7492 60.1302 12.698 60.427 12.6366C60.5396 12.6161 60.6625 12.6059 60.7751 12.5957C61.0515 12.5752 61.3278 12.5342 61.6042 12.524C61.8396 12.5138 62.0648 12.4933 62.3003 12.5035V12.4831Z" fill="#6CF379"/>
<path d="M51.8593 35.8818C51.8593 35.8818 51.8593 35.8408 51.8593 35.8203C51.8593 35.8203 51.8593 35.7385 51.8388 35.6975C51.8388 35.6771 51.8388 35.6566 51.8388 35.6361C51.8388 35.5747 51.8388 35.5133 51.8184 35.4621V35.3905C51.8184 35.329 51.8081 35.2676 51.7877 35.2062C51.7877 35.1755 51.7877 35.1448 51.7877 35.1141C51.7877 35.022 51.7877 34.9299 51.7569 34.848C51.7569 34.6535 51.7365 34.4693 51.7365 34.2748C51.716 33.1386 51.8491 32.0127 52.1152 30.9073C52.3814 29.7814 52.7806 28.6964 53.2822 27.6422C53.7428 26.6698 54.2853 25.7486 54.8995 24.8786C55.7082 23.7322 56.6295 22.678 57.6531 21.7158C58.646 20.7947 59.7106 19.9963 60.8775 19.3105C61.2051 19.116 61.5327 18.9523 61.8602 18.7783C61.8909 18.768 61.9319 18.7578 61.9626 18.7373C62.3106 18.5531 62.6791 18.3995 63.0374 18.246C63.4776 18.0618 63.9382 17.9185 64.3886 17.7752C64.4193 17.7752 64.45 17.7752 64.4808 17.7752C65.3099 17.5193 66.1595 17.376 67.0194 17.3248C67.5414 17.2941 68.0737 17.2941 68.5958 17.3453C68.4832 17.0996 68.3706 16.8642 68.2375 16.6595C67.8997 16.0761 67.5005 15.5848 67.0296 15.1651C66.7532 14.9195 66.4461 14.6841 66.1083 14.4691C65.7194 14.2235 65.2894 14.0188 64.7981 13.8448C64.7162 13.8141 64.6138 13.7833 64.5115 13.7629C64.4193 13.7424 64.3374 13.7117 64.2351 13.681C64.102 13.64 63.9689 13.6093 63.8154 13.5786C63.5697 13.5275 63.3138 13.4968 63.0272 13.466C62.7918 13.4456 62.5563 13.4251 62.2697 13.4149C62.1161 13.4149 61.9524 13.4149 61.7784 13.4251H61.6555C61.5122 13.4353 61.3587 13.4558 61.1949 13.4763C61.0823 13.4865 60.9799 13.4968 60.8673 13.507H60.7957C60.724 13.5172 60.6626 13.5275 60.6114 13.5275C60.5295 13.5377 60.4579 13.5582 60.376 13.5684C60.161 13.6093 59.946 13.6503 59.7413 13.6912C59.7004 13.6912 59.6594 13.7117 59.6185 13.7117C59.5468 13.7219 59.4547 13.7424 59.4342 13.7526L59.2807 13.8345L59.1169 13.855C58.5437 14.0085 57.9807 14.2337 57.4586 14.4487C57.4074 14.4691 57.346 14.4998 57.2743 14.5305C57.1822 14.5715 57.0799 14.6227 56.9673 14.6636C56.7625 14.7455 56.5578 14.8683 56.3326 14.9911C56.1586 15.0935 55.9846 15.1856 55.7901 15.288C55.7389 15.3187 55.657 15.3698 55.5853 15.421C55.4932 15.4824 55.3909 15.5541 55.268 15.6257C54.9712 15.7895 54.6948 15.9942 54.3877 16.2092L54.2853 16.2808C54.2853 16.2808 54.2034 16.3422 54.1523 16.3832C54.0908 16.4241 54.0397 16.4753 54.0089 16.4957C53.6404 16.7721 53.2924 17.0689 52.9955 17.3351C52.3609 17.8878 51.7569 18.5121 51.1939 19.1672C50.5798 19.8837 50.0168 20.6616 49.5152 21.46C48.9931 22.2993 48.5427 23.1693 48.1742 24.0495C47.7852 24.9912 47.4986 25.9431 47.3041 26.895C47.171 27.5501 47.0994 28.2461 47.0687 28.9421C47.0687 29.0445 47.0687 29.1468 47.0687 29.2594C47.0687 29.5972 47.0892 29.9349 47.1301 30.3137V30.3546C47.1403 30.5286 47.171 30.7026 47.2018 30.8868C47.3348 31.6852 47.5703 32.4426 47.8978 33.1284C48.2868 33.9165 48.7679 34.5614 49.3923 35.1243C49.9042 35.5849 50.4876 35.9636 51.1428 36.2502C51.4191 36.3731 51.7058 36.4754 52.0231 36.5573C51.9821 36.3731 51.931 36.1991 51.9002 36.0148C51.9002 35.9739 51.9002 35.9329 51.8798 35.892L51.8593 35.8818ZM51.6648 35.0117C51.6648 35.0117 51.7058 35.0425 51.7365 35.0425C51.7058 35.0425 51.6853 35.0322 51.6648 35.0117ZM43.3631 48.3179C43.5883 48.1541 43.834 48.021 44.0797 47.888C44.1308 47.7037 44.182 47.5195 44.2025 47.3353V47.2943C44.2025 47.2841 44.2025 47.2431 44.2025 47.2124C44.2025 47.1203 44.223 47.0077 44.2537 46.8644C44.2639 46.7826 44.2639 46.6802 44.2639 46.5983C44.2639 46.5471 44.2639 46.5062 44.2639 46.455C44.2639 46.4038 44.2639 46.3424 44.2639 46.2913C44.2639 46.2094 44.2639 46.1377 44.2639 46.0661C44.2639 46.0661 44.2639 46.0558 44.2639 46.0456C44.2639 45.9739 44.2537 45.8716 44.2332 45.7692C44.1923 45.4622 44.1308 45.237 44.049 45.0323C43.8647 44.5615 43.6293 44.2032 43.3017 43.9166C43.0048 43.6505 42.6363 43.4663 42.145 43.3332C41.9812 43.2923 41.8584 43.2718 41.756 43.2615C41.6946 43.2615 41.6434 43.2615 41.582 43.2615C41.2544 43.2615 40.9371 43.2513 40.671 43.3025C40.6095 43.3127 40.5481 43.323 40.4867 43.3332C40.3946 43.3537 40.3024 43.3639 40.2615 43.3844L40.0158 43.4765H39.9954C39.9954 43.4765 39.9954 43.4765 39.9851 43.4765C39.7702 43.5277 39.5961 43.5788 39.4528 43.6607C39.2993 43.7426 39.156 43.804 39.0229 43.8654C38.9308 43.9064 38.8386 43.9473 38.7567 43.9883C38.6339 44.0497 38.5008 44.1418 38.3575 44.2339C38.2552 44.2953 38.163 44.367 38.0504 44.4284C39.3914 45.5748 40.7324 46.7314 42.0836 47.8778C42.3292 48.0927 42.5749 48.2974 42.8206 48.5124C42.882 48.5738 42.9332 48.584 43.0048 48.5226C43.1072 48.4407 43.2198 48.3793 43.3222 48.3076L43.3631 48.3179ZM81.8519 9.95527C82.0361 10.4773 82.5889 12.422 82.5889 12.8519C82.5889 12.8826 82.5889 12.9133 82.5889 12.9338L82.5479 13.3637L82.1999 13.6093C82.0975 13.681 81.3093 14.2849 81.1046 14.4691C80.8078 14.725 80.5211 15.0423 80.2141 15.4415C79.6511 16.158 79.2314 16.9256 78.9447 17.724C78.781 18.1846 78.6786 18.6554 78.6274 19.116V19.1774C78.6274 19.2286 78.6069 19.4026 78.6069 19.638C78.6069 19.9451 78.6274 20.1191 78.6377 20.1498V20.2112C78.7093 20.6923 78.8321 21.071 79.0164 21.3883C79.4463 22.1253 80.0503 22.5449 80.9204 22.6985C80.9408 22.6985 80.9715 22.6985 81.0023 22.7087C81.1456 22.7292 81.3605 22.7496 81.5857 22.8622L82.0975 23.0976V23.6606L82.1078 23.6708C82.1078 23.8244 82.1078 23.896 81.7905 24.9503C81.6267 25.503 81.4322 26.0864 81.3196 26.4344C81.0125 27.3351 80.6542 28.2563 80.2448 29.1775C79.9479 29.8428 79.6203 30.5388 79.2518 31.2348C79.0266 31.6647 78.8219 32.0434 78.6172 32.3915L78.3715 32.8111L77.8904 32.8418C77.7266 32.8521 77.5935 32.8418 77.4912 32.8214C77.4707 32.8214 77.4298 32.8214 77.4195 32.8214C77.0101 32.8111 76.5699 32.8111 76.1809 32.893C76.099 32.9135 75.6793 33.0261 75.536 33.067C74.9833 33.241 74.451 33.5071 73.9187 33.8551C73.8777 33.8756 73.847 33.9063 73.8061 33.9268L73.7651 33.978L73.6423 34.0598C73.5092 34.1417 73.3762 34.2543 73.2328 34.3771L73.1305 34.459C72.721 34.7968 72.3423 35.196 71.9533 35.6873C71.421 36.3628 71.0013 37.11 70.7249 37.8879C70.5509 38.369 70.4485 38.8398 70.3974 39.3106C70.3974 39.3516 70.3974 39.3925 70.3871 39.4232C70.3769 39.5154 70.3667 39.6075 70.3667 39.6791C70.3667 39.6996 70.3667 39.7201 70.3667 39.7303L70.3871 39.8838L70.3667 39.9862C70.3667 39.9862 70.3667 40.0067 70.3667 40.0271C70.3667 40.0681 70.3667 40.1295 70.3769 40.1909C70.3974 40.5594 70.4793 40.9279 70.6328 41.3066C70.6738 41.3987 70.7659 41.5829 70.7761 41.8286L70.7966 42.2687L70.4588 42.5553C70.4588 42.5553 70.3769 42.6269 70.3257 42.6679C70.2234 42.76 70.1108 42.8521 69.9879 42.9545C69.9572 42.975 69.9163 43.0261 69.8651 43.0773C69.773 43.1694 69.6603 43.282 69.517 43.3844C69.4044 43.4663 69.2918 43.5584 69.169 43.6607L69.1383 43.6812C69.0155 43.7836 68.8824 43.8859 68.7493 43.9985L68.5753 44.1418C68.4627 44.2339 68.3501 44.3158 68.2477 44.3977C68.1044 44.5103 67.9611 44.6126 67.8485 44.715L67.7871 44.7559L67.6847 44.8276C67.6131 44.8787 67.5312 44.9402 67.4595 44.9913C67.3265 45.0937 67.1934 45.1858 67.0603 45.2677C66.9887 45.3189 66.917 45.3598 66.8556 45.411C66.8454 45.411 66.8351 45.4315 66.8146 45.4417C66.7327 45.5134 66.5894 45.6362 66.3847 45.7181C66.0674 45.9535 65.7398 46.1582 65.4225 46.3527L65.3508 46.3936C65.2792 46.4448 65.1973 46.496 65.1154 46.5471C64.9926 46.629 64.8697 46.7109 64.7264 46.7928C64.6241 46.8542 64.5217 46.9054 64.4296 46.9566C64.3579 46.9873 64.2965 47.0282 64.2453 47.0487C63.9689 47.2227 63.6823 47.3864 63.3855 47.54C63.2729 47.6014 63.15 47.6628 63.0272 47.7345C62.9658 47.7652 62.9044 47.7959 62.8532 47.8368L62.587 47.9801L62.2799 47.9392C62.1264 47.9187 61.6248 47.7959 61.461 47.2022C61.3484 46.9463 61.2358 46.7314 61.0925 46.5574C60.939 46.3527 60.7547 46.1684 60.5193 46.0149C60.3043 45.8716 60.0484 45.7488 59.7413 45.6567C59.5059 45.585 59.2295 45.5543 58.9326 45.5236H58.7996C58.7996 45.5236 58.6563 45.5236 58.5641 45.5236C58.472 45.5236 58.3799 45.5441 58.2673 45.5441C58.1854 45.5441 58.0933 45.5645 57.9807 45.585C57.9499 45.585 57.8885 45.6055 57.8373 45.6259C57.7759 45.6362 57.735 45.6567 57.7145 45.6567C57.2743 45.759 56.8342 45.9228 56.3838 46.148C56.1074 46.281 55.8413 46.455 55.5956 46.6188V46.6495L55.3294 46.8133C55.0735 46.9873 54.8279 47.2022 54.5515 47.4581C54.2239 47.7652 53.9066 48.1234 53.5893 48.5533C53.1184 49.1879 52.7703 49.8327 52.5247 50.5083L52.3404 51.02L51.7979 51.0917C51.501 51.1326 51.2042 51.1326 50.9585 51.1326C50.9073 51.1326 50.8561 51.1326 50.805 51.1326H50.6514C50.4876 51.1326 50.3239 51.1326 50.1498 51.1326C50.0475 51.1326 49.9451 51.1326 49.8325 51.1326C49.5971 51.1326 49.3412 51.1326 49.0648 51.1019C48.9317 51.0917 48.7884 51.0712 48.6348 51.061C48.5325 51.061 48.4301 51.0508 48.338 51.0405C48.1435 51.02 47.8978 50.9996 47.6419 50.9586C47.3041 50.9075 46.8947 50.846 46.4852 50.7642C46.3726 50.7437 46.26 50.713 46.1576 50.6925C47.4167 51.7672 48.6656 52.842 49.9246 53.9167C50.0372 54.0088 50.1498 54.0805 50.2829 54.1214C50.4774 54.1828 50.6616 54.2442 50.8561 54.3056C52.0845 54.6639 53.3436 54.8788 54.6129 54.9709C55.442 55.0221 56.2712 55.0221 57.1003 54.9914C57.1617 54.9914 57.2232 54.9914 57.2641 54.9402C57.4074 54.6025 57.5507 54.2545 57.7248 53.9269C58.3594 52.7498 59.1988 51.757 60.2531 50.9382C60.8161 50.498 61.4405 50.1398 62.1059 49.8634C62.3925 49.7406 62.6996 49.6587 62.9965 49.5564C63.0784 49.5564 63.1603 49.5257 63.2319 49.5052C63.5595 49.454 63.8973 49.3926 64.2351 49.3926C64.5319 49.3926 64.8288 49.4131 65.1154 49.4438C65.1973 49.4745 65.2587 49.5257 65.3201 49.5871C66.1493 50.3036 66.9784 51.02 67.8178 51.7263C67.9065 51.8014 67.9986 51.8116 68.0942 51.757C68.9029 51.3271 69.6911 50.8767 70.4588 50.3854C71.2368 49.8941 71.984 49.3824 72.721 48.8296C72.7722 48.7887 72.8336 48.758 72.8746 48.6966C72.895 48.6761 72.9258 48.6659 72.9462 48.6454C73.4478 48.2667 73.9494 47.8778 74.4203 47.4683C74.7274 47.2022 75.0242 46.9463 75.3313 46.6802C75.3722 46.6393 75.4439 46.6086 75.3927 46.5369C75.2392 46.1684 75.1266 45.7897 75.0549 45.3905C75.0549 45.3393 75.0549 45.2882 75.0344 45.237C75.0242 44.9811 75.014 44.7252 74.9935 44.4796C75.014 44.2749 75.014 44.0701 75.0447 43.8654C75.1675 42.8828 75.4951 41.9616 75.966 41.1019C76.6313 39.8941 77.5321 38.8808 78.6479 38.0722C79.3337 37.5706 80.0707 37.1919 80.8794 36.936C81.4219 36.7722 81.9747 36.6699 82.5479 36.6699C82.5889 36.6801 82.6298 36.6699 82.6708 36.6699C82.8243 36.6801 82.9881 36.7006 83.1417 36.7108C83.2031 36.7108 83.2645 36.7518 83.3361 36.7108C83.3873 36.6801 83.4078 36.6085 83.4385 36.5573C83.8377 35.8408 84.2165 35.1039 84.5645 34.3669C85.4448 32.5041 86.1511 30.5798 86.6732 28.5839C86.7039 28.461 86.6732 28.3996 86.5811 28.3177C85.5984 27.4682 84.6157 26.6186 83.6432 25.7691C83.5204 25.6667 83.3873 25.5746 83.2952 25.4416C83.2543 25.1652 83.2031 24.8991 83.2031 24.6227C83.2031 24.4282 83.2031 24.2235 83.2031 24.0291C83.244 23.4559 83.3566 22.9032 83.5409 22.3607C84.1039 20.7025 85.0866 19.331 86.4378 18.2153C86.6732 18.0208 86.9393 17.8468 87.1748 17.6626C87.1748 17.6626 87.1953 17.6626 87.2055 17.6626V17.6012C87.2055 17.6012 87.185 17.6012 87.1748 17.6012C87.1645 17.55 87.1543 17.4886 87.1441 17.4374C87.0212 16.8642 86.8779 16.291 86.7039 15.7383C86.5197 15.1754 86.3252 14.6124 86.0795 14.0699C85.9259 13.7322 85.7724 13.3944 85.6086 13.0566C85.3118 12.463 84.9637 11.9 84.585 11.3473C84.5133 11.2449 84.4417 11.1631 84.3495 11.0812C83.2543 10.1293 82.1692 9.17738 81.0739 8.22548C81.1353 8.3483 81.1967 8.46089 81.2377 8.56325C81.4527 9.04432 81.6471 9.51515 81.8007 9.96551L81.8519 9.95527ZM83.285 14.1928C83.285 14.1928 83.2338 14.1518 83.1928 14.1416C83.1928 14.1416 83.2543 14.1723 83.285 14.1928ZM72.0454 3.74233C72.0454 3.80375 72.0454 3.8754 72.0454 3.93681V3.99822C72.0454 4.01869 72.0454 4.03916 72.0454 4.05963C72.0454 4.43835 72.1171 4.8273 72.2706 5.20601C72.6084 6.06579 73.1714 6.57756 74.062 6.83345C74.236 6.88463 74.41 6.91533 74.5943 6.92557C74.84 6.94604 75.1368 6.95628 75.3927 6.91533H75.4439L75.4951 6.9051C75.7715 6.88463 76.0683 6.81298 76.3652 6.72086C76.3959 6.72086 76.4368 6.70039 76.4778 6.67992C76.5085 6.66968 76.5392 6.65945 76.5699 6.64921C76.6006 6.63898 76.6416 6.62874 76.6723 6.60827C76.7951 6.55709 76.9179 6.50591 77.051 6.45474C77.1022 6.29097 77.1636 6.13744 77.225 5.98391C77.2864 5.82014 77.2967 5.82014 77.1636 5.71778C75.6998 4.44858 74.2462 3.17938 72.7824 1.89995C72.6801 1.80783 72.5777 1.72594 72.4754 1.63382C72.3525 1.93065 72.2604 2.20701 72.199 2.47313C72.0761 2.94397 72.025 3.35339 72.025 3.7321L72.0454 3.74233Z" fill="black"/>
<path d="M36.617 25.8516L39.5446 19.0757C39.5446 19.0757 41.2847 19.393 43.2092 18.4309C45.1336 17.4687 47.7541 14.5925 47.9896 12.4738C48.2352 10.2527 47.6927 8.70714 47.6927 8.70714L53.4353 4.77672C53.4353 4.77672 54.4794 7.46865 59.0756 6.81358C64.0709 6.09709 65.0126 1.21477 65.5142 1.225C66.0158 1.23524 69.7009 1.55254 70.182 1.83913C70.3048 1.91078 69.2914 4.61295 71.0623 6.94664C74.297 11.1944 78.6475 8.10325 78.6475 8.10325L80.49 12.484C80.49 12.484 75.9246 9.6181 72.5364 12.3305C70.3867 14.0501 70.5608 16.8751 70.5198 16.7625C66.7221 7.92925 57.6117 11.5935 57.6117 11.5935C57.6117 11.5935 49.4022 14.8587 46.321 21.829C41.6328 32.4432 46.188 36.5477 46.188 36.5477C42.9533 37.3051 43.4958 41.4914 43.4958 41.4914C40.6091 40.2734 37.6918 42.1669 37.6918 42.1669L35.9516 38.1444C35.9516 38.1444 42.943 32.7401 38.5516 26.9877C37.5689 25.7083 36.6272 25.8516 36.6272 25.8516H36.617Z" fill="white"/>
<path d="M98.4657 80.8654C98.4657 80.8654 85.875 75.6351 72.9567 85.6966C72.9567 85.6966 79.0064 75.021 67.9306 65.6145C67.9306 65.6145 80.3576 70.3024 93.1837 61.029C93.1837 61.029 86.2537 71.8787 98.4452 80.8552H98.4657V80.8654Z" fill="white"/>
<path d="M21.9177 34.4177C21.9177 34.4177 15.4995 29.1566 6.19465 32.739C6.19465 32.739 11.6097 27.5803 6.79859 20.1494C6.79859 20.1494 13.227 25.0727 22.3374 21.9201C22.3374 21.9201 16.3901 27.0276 21.9177 34.4074V34.4177Z" fill="white"/>
</g>
<defs>
<clipPath id="clip0_15980_13672">
<rect width="100" height="100" fill="white"/>
</clipPath>
</defs>
</svg>
