<svg width="100" height="100" viewBox="0 0 100 100" fill="none" xmlns="http://www.w3.org/2000/svg">
<rect width="100" height="100" fill="#024731"/>
<path d="M26.3058 29.9778L24.0813 29.2529C28.9331 14.44 36.6487 -2.60891 45.8006 0.334466C51.1866 2.06381 54.3744 10.1515 55.2676 24.388L52.9381 24.5365C52.1236 11.5402 49.4087 3.94162 45.0911 2.56164C39.5387 0.779892 32.515 11.0337 26.3058 29.9866V29.9778Z" fill="white"/>
<path d="M24.9924 34.5271L8.13364 31.968L4 90.9927L19.764 91.936L33.899 99.9975L34.2931 39.8548L24.9924 34.5271Z" fill="black"/>
<path d="M62.7471 23.425V33.5478L81.3923 30.2725L68.7374 27.827L62.7471 23.425Z" fill="black"/>
<path d="M34.2929 39.8573L88.6259 30.3372L96 89.1174L33.8987 100L34.2929 39.8573Z" fill="#6CF479"/>
<path d="M4 90.9955L23.267 82.1479L33.8987 100L19.764 91.9387L4 90.9955Z" fill="#11B67A"/>
<path d="M68.7374 27.8305L81.3923 30.2761L34.5296 38.4861L25.6492 33.3941L16.1295 31.8569L62.7471 23.4285M63.0711 22.0398L8.1424 31.9705L25.0011 34.5295L34.2929 39.8573L88.6259 30.3372L69.2803 26.599L63.0711 22.0486V22.0398Z" fill="#11B67A"/>
<path d="M16.1296 31.8534L62.7471 23.425V33.5478L34.5297 38.4825L25.6493 33.3906L16.1296 31.8534Z" fill="#00482F"/>
<path d="M44.8286 48.5227C44.1981 48.5227 43.6638 48.0336 43.6201 47.4047C43.6201 47.2912 42.8144 36.295 43.6814 25.1766C44.8812 9.73476 48.6121 1.40248 54.7775 0.398061C60.9518 -0.606355 67.0909 6.1276 73.0199 20.4165C77.2937 30.7052 79.9473 41.3957 79.9735 41.5093C80.1312 42.1556 79.7371 42.8106 79.089 42.9766C78.4322 43.1338 77.7841 42.7408 77.6177 42.0944C74.7802 30.6092 65.2343 1.19286 55.1628 2.79993C45.1002 4.43319 45.1614 35.4304 46.0372 47.2388C46.0898 47.9026 45.5819 48.4878 44.9163 48.5314C44.89 48.5314 44.8549 48.5314 44.8286 48.5314V48.5227Z" fill="white"/>
</svg>
