<svg width="100" height="100" viewBox="0 0 100 100" fill="none" xmlns="http://www.w3.org/2000/svg">
<g clip-path="url(#clip0_15980_13728)">
<rect width="100" height="100" fill="#024731"/>
<path d="M49.942 68.0024C67.1324 68.0024 81.0679 62.0613 81.0679 54.7325C81.0679 47.4038 67.1324 41.4626 49.942 41.4626C32.7517 41.4626 18.8162 47.4038 18.8162 54.7325C18.8162 62.0613 32.7517 68.0024 49.942 68.0024Z" fill="#6CF479"/>
<path fill-rule="evenodd" clip-rule="evenodd" d="M40.7579 63.0911C40.7579 65.2549 44.8697 67.0056 49.9421 67.0056C55.0146 67.0056 59.1264 65.2549 59.1264 63.0911C59.1264 60.9273 55.0146 57.4887 49.9421 57.4887C44.8697 57.4887 40.7579 60.9363 40.7579 63.0911Z" fill="#1A1A1A"/>
<path fill-rule="evenodd" clip-rule="evenodd" d="M49.9421 40.4665C31.448 40.4665 16.4641 46.85 16.4641 54.7329C16.4641 62.6159 31.457 68.9994 49.9421 68.9994C68.4273 68.9994 83.4202 62.6159 83.4202 54.7329C83.4202 46.85 68.4273 40.4665 49.9421 40.4665ZM49.9421 67.9938C32.7498 67.9938 18.8163 62.0502 18.8163 54.7239C18.8163 47.3977 32.7498 41.4541 49.9421 41.4541C67.1345 41.4541 81.068 47.3977 81.068 54.7239C81.068 62.0502 67.1345 67.9938 49.9421 67.9938Z" fill="black"/>
<path fill-rule="evenodd" clip-rule="evenodd" d="M30.3711 76.0919C30.5416 75.9393 30.7392 75.7867 30.9367 75.634L30.0658 74.4669C29.8773 74.5836 29.7067 74.7003 29.5272 74.817L30.3711 76.0919Z" fill="#11B67A"/>
<path fill-rule="evenodd" clip-rule="evenodd" d="M69.4958 76.083L70.3397 74.8081C70.1691 74.7004 69.9986 74.5837 69.819 74.4759L68.9482 75.6431C69.1457 75.7868 69.3252 75.9394 69.4958 76.092V76.083Z" fill="#11B67A"/>
<path fill-rule="evenodd" clip-rule="evenodd" d="M70.7978 80.6264C70.6362 80.9496 70.4297 81.2728 70.1514 81.596C67.2695 84.9719 58.5162 87.0728 49.9335 87.0728C41.3507 87.0728 32.5974 84.9719 29.7156 81.596C29.5001 81.3446 29.3295 81.0932 29.1859 80.8419L26.7709 77.1877C25.909 78.2561 25.4332 79.3963 25.4332 80.5905C25.4332 86.3545 36.404 91.0322 49.9335 91.0322C63.4629 91.0322 74.4338 86.3545 74.4338 80.5905C74.4338 79.3963 73.949 78.2471 73.0781 77.1787L70.7888 80.6354L70.7978 80.6264Z" fill="#11B67A"/>
<path fill-rule="evenodd" clip-rule="evenodd" d="M49.9422 36.821C27.417 36.821 9.15625 44.6051 9.15625 54.2029V56.7707C9.15625 66.3685 27.417 74.1526 49.9422 74.1526C72.4673 74.1526 90.7281 66.3685 90.7281 56.7707V54.2029C90.7281 44.6051 72.4673 36.821 49.9422 36.821ZM77.1717 41.9117C78.0605 41.9117 78.7787 42.2169 78.7787 42.594C78.7787 42.9711 78.0605 43.2764 77.1717 43.2764C76.2829 43.2764 75.5647 42.9711 75.5647 42.594C75.5647 42.2169 76.2829 41.9117 77.1717 41.9117ZM49.9422 37.1083C50.831 37.1083 51.5492 37.4135 51.5492 37.7906C51.5492 38.1677 50.831 38.473 49.9422 38.473C49.0534 38.473 48.3351 38.1677 48.3351 37.7906C48.3351 37.4135 49.0534 37.1083 49.9422 37.1083ZM22.7127 41.9117C23.6014 41.9117 24.3197 42.2169 24.3197 42.594C24.3197 42.9711 23.6014 43.2764 22.7127 43.2764C21.8239 43.2764 21.1056 42.9711 21.1056 42.594C21.1056 42.2169 21.8239 41.9117 22.7127 41.9117ZM11.4276 54.8853C10.5388 54.8853 9.8206 54.58 9.8206 54.2029C9.8206 53.8258 10.5388 53.5206 11.4276 53.5206C12.3164 53.5206 13.0346 53.8258 13.0346 54.2029C13.0346 54.58 12.3164 54.8853 11.4276 54.8853ZM22.7127 66.4941C21.8239 66.4941 21.1056 66.1889 21.1056 65.8118C21.1056 65.4347 21.8239 65.1295 22.7127 65.1295C23.6014 65.1295 24.3197 65.4347 24.3197 65.8118C24.3197 66.1889 23.6014 66.4941 22.7127 66.4941ZM49.9422 71.2975C49.0534 71.2975 48.3351 70.9923 48.3351 70.6152C48.3351 70.2381 49.0534 69.9328 49.9422 69.9328C50.831 69.9328 51.5492 70.2381 51.5492 70.6152C51.5492 70.9923 50.831 71.2975 49.9422 71.2975ZM77.1717 66.4941C76.2829 66.4941 75.5647 66.1889 75.5647 65.8118C75.5647 65.4347 76.2829 65.1295 77.1717 65.1295C78.0605 65.1295 78.7787 65.4347 78.7787 65.8118C78.7787 66.1889 78.0605 66.4941 77.1717 66.4941ZM49.9422 69.6455C29.9308 69.6455 13.708 62.7323 13.708 54.2029C13.708 45.6735 29.9308 38.7603 49.9422 38.7603C69.9536 38.7603 86.1764 45.6735 86.1764 54.2029C86.1764 62.7323 69.9536 69.6455 49.9422 69.6455ZM88.4477 54.8853C87.5589 54.8853 86.8407 54.58 86.8407 54.2029C86.8407 53.8258 87.5589 53.5206 88.4477 53.5206C89.3365 53.5206 90.0548 53.8258 90.0548 54.2029C90.0548 54.58 89.3365 54.8853 88.4477 54.8853Z" fill="#11B67A"/>
<path d="M23.9967 56.9059C23.6914 52.8028 30.1644 48.8344 39.3935 46.9311C39.4833 45.3599 42.1048 43.8695 45.7408 43.1961C45.7139 43.1961 45.6869 43.1961 45.66 43.1961C31.6637 43.9862 20.6929 49.418 21.1058 55.0833C21.3213 58.0282 24.9034 61.3322 30.0028 62.8495C26.8067 61.5028 24.1673 59.0427 24.0057 56.9059H23.9967Z" fill="white"/>
<path fill-rule="evenodd" clip-rule="evenodd" d="M68.4187 80.4281C65.492 81.9904 61.5059 83.1665 56.9182 83.777C56.0743 83.8848 55.7152 83.2473 55.9756 82.5111L58.1482 76.334C63.9747 75.7774 69.2806 74.6372 73.7246 73.0749L69.3794 79.5572C69.1459 79.8984 68.7958 80.2396 68.4367 80.4371L68.4187 80.4281Z" fill="black"/>
<path fill-rule="evenodd" clip-rule="evenodd" d="M31.457 80.4281C34.3837 81.9904 38.3698 83.1665 42.9575 83.777C43.8014 83.8848 44.1605 83.2473 43.9001 82.5111L41.7275 76.334C35.9009 75.7774 30.5951 74.6372 26.1511 73.0749L30.4963 79.5572C30.7298 79.8984 31.0799 80.2396 31.439 80.4371L31.457 80.4281Z" fill="black"/>
<path d="M49.9421 91.8398C37.499 91.8398 27.2015 87.9701 25.4419 82.9333V89.3259C25.4419 95.0899 36.4127 99.7676 49.9421 99.7676C53.1921 99.7676 56.2894 99.4982 59.1264 99.0044V91.0946C56.2894 91.5704 53.1921 91.8398 49.9421 91.8398Z" fill="black"/>
<path d="M59.1174 91.1037V99.0135C60.7873 98.7262 62.3764 98.3581 63.8397 97.9272V90.0442C62.3674 90.4662 60.7873 90.8164 59.1174 91.1037Z" fill="#006A4D"/>
<path d="M63.8397 90.0442V97.9272C64.6567 97.6847 65.4375 97.424 66.1827 97.1457V89.2807C65.4375 89.5501 64.6567 89.8108 63.8397 90.0442Z" fill="black"/>
<path d="M68.5441 88.2934V96.1225C72.216 94.2999 74.4424 91.9296 74.4424 89.3349V82.9424C73.7332 84.9804 71.6234 86.821 68.5441 88.2934Z" fill="black"/>
<path d="M66.1827 89.2807V97.1457C67.0266 96.8315 67.8078 96.4815 68.5439 96.1134V88.2843C67.8078 88.6345 67.0177 88.9667 66.1828 89.2719L66.1827 89.2807Z" fill="#006A4D"/>
<path fill-rule="evenodd" clip-rule="evenodd" d="M49.9424 13.872C62.7267 13.872 73.6436 17.8763 78.0966 23.5416C75.3225 16.9605 63.7771 12.0315 49.9424 12.0315C36.1076 12.0315 24.5623 16.9695 21.7881 23.5416C26.2411 17.8763 37.167 13.872 49.9424 13.872Z" fill="white"/>
<path fill-rule="evenodd" clip-rule="evenodd" d="M49.9423 23.9994C58.1031 23.9994 65.0788 26.262 67.9157 29.4582C66.1471 25.7412 58.7674 22.958 49.9423 22.958C41.1172 22.958 33.7375 25.7412 31.9688 29.4582C34.8148 26.262 41.7815 23.9994 49.9423 23.9994Z" fill="white"/>
<path fill-rule="evenodd" clip-rule="evenodd" d="M49.9422 2.52391C68.5531 2.59573 66.9191 8.36876 66.9191 8.36876C66.9191 8.36876 76.1303 2.92793 86.8407 16.961C83.2048 7.13874 68.0683 -0.232422 49.9422 -0.232422C31.8161 -0.232422 16.6796 7.13874 13.0436 16.961C18.8702 8.50344 33.1897 2.46106 49.9422 2.52391Z" fill="white"/>
</g>
<defs>
<clipPath id="clip0_15980_13728">
<rect width="100" height="100" fill="white"/>
</clipPath>
</defs>
</svg>
