<svg width="100" height="100" viewBox="0 0 100 100" fill="none" xmlns="http://www.w3.org/2000/svg">
<g clip-path="url(#clip0_15980_13740)">
<rect width="100" height="100" fill="#024731"/>
<path fill-rule="evenodd" clip-rule="evenodd" d="M63.6811 76.7091H63.6605L63.6673 76.7022L63.6811 76.7091Z" fill="black"/>
<path fill-rule="evenodd" clip-rule="evenodd" d="M46.535 54.4859L51.7527 52.1638V71.6611C51.9156 74.5567 54.62 75.5337 56.7297 75.8098L63.6605 76.7091C62.9242 77.6294 61.7138 78.146 60.3757 77.9761L50.6271 76.8788C48.3828 76.5956 46.5421 74.5354 46.5421 72.2841V71.7248H46.535V54.4788V54.4859Z" fill="#11B67A"/>
<path fill-rule="evenodd" clip-rule="evenodd" d="M56.113 79.4063V99.4487H61.9537V79.9231C61.451 79.9939 60.9271 80.001 60.3891 79.9302L56.113 79.3992V79.4063Z" fill="black"/>
<path d="M56.113 79.4063L60.1696 80.1641V99.7676H56.113V79.4063Z" fill="#11B67A"/>
<path d="M66.0248 11.0879L60.5735 -0.232422L40.5806 7.68261L46.2938 16.341L49.9044 23.9304C52.0142 23.5552 54.046 23.9091 55.7664 25.1622C56.2761 25.5304 56.7151 25.9693 57.1115 26.4366C52.5664 24.6029 46.2655 27.1304 42.1876 32.7304C38.1098 38.3374 37.6283 45.1056 40.7575 48.8719C40.1841 48.6383 39.639 48.3551 39.1292 47.987C34.577 44.6737 35.3133 37.3817 39.908 31.0808C41.1186 29.4171 42.4779 27.9941 43.908 26.8543L41.1045 24.8578L31.0018 20.7729L16.9062 47.9799L27.5399 51.3569L40.0142 49.8914L40.8496 49.7923L41.0549 49.056C41.9257 49.5162 42.8814 49.7994 43.8868 49.9056C48.0283 50.3445 52.9841 47.8525 56.3752 43.2082C60.5876 37.4313 60.885 30.3799 57.2602 26.833L65.9823 24.695L66.0248 11.0879Z" fill="#6CF479"/>
<path d="M80.3329 53.7214L60.9771 38.9462C62.0249 36.0789 62.3293 33.2046 61.8762 30.7126L82.9736 47.0311C82.4072 44.617 81.1187 42.3586 79.0868 40.3763C79.0868 40.3763 58.7612 25.1338 58.0886 24.6878C52.6727 21.0984 44.4603 23.9232 39.5754 30.9887C36.7364 34.932 35.5754 39.4063 36.0851 43.1302C36.3825 46.2948 37.7064 49.063 40.0285 50.8329L60.9771 66.3656C62.0391 67.1514 63.2426 67.6399 64.5382 67.8594V54.8824C64.5382 53.332 65.7842 52.086 67.3346 52.086H69.232L69.4019 52.9497C69.8833 53.4524 70.1807 54.132 70.1807 54.8824V67.3143C73.5081 66.1957 76.8638 63.7532 79.4691 60.2346C79.816 59.7674 80.1346 59.3001 80.432 58.8258C81.3453 56.9638 81.6709 54.6842 80.3399 53.7143L80.3329 53.7214ZM55.9081 42.7338C52.6869 47.1444 47.7948 49.8205 43.7382 49.3886C42.4922 49.2541 41.3736 48.8364 40.4249 48.1426C36.2692 45.1196 36.4603 37.7639 40.8426 31.7462C44.0639 27.3356 48.9559 24.6595 53.0125 25.0913C54.2586 25.2258 55.3771 25.6435 56.3258 26.3373C60.4816 29.3603 60.2904 36.7161 55.9081 42.7267V42.7338Z" fill="black"/>
<path d="M81.9254 16.001L67.4546 46.5143L61.9962 50.4293L58.9661 48.7019L67.5749 28.4187L69.5997 28.1992L81.9254 16.001Z" fill="#6CF479"/>
<path d="M54.4 52.9782L40.7859 54.2029L29.8408 61.9339L19.7169 66.1038L38.6124 64.7162L48.2407 61.318L54.4 52.9782Z" fill="#6CF479"/>
<path d="M57.1244 26.7991C60.9023 29.6439 60.2827 36.8399 55.7406 42.8718C51.1985 48.9038 44.4538 51.4875 40.676 48.6428C36.8981 45.798 37.5177 38.602 42.0598 32.5701C46.6019 26.5381 53.3466 23.9543 57.1244 26.7991Z" fill="white"/>
<path d="M54.7668 33.7737C54.7668 33.7737 50.576 33.9063 48.234 38.3569C48.234 38.3569 48.5792 34.5981 44.2802 33.3688C44.2802 33.3688 48.3574 33.1032 50.7731 28.881C50.7731 28.881 50.2064 32.8018 54.7635 33.7728L54.7685 33.7741L54.7668 33.7737Z" fill="#6CF479"/>
<path fill-rule="evenodd" clip-rule="evenodd" d="M66.4141 74.656V72.341H66.4212V54.8897C66.4212 53.3392 67.6672 52.0932 69.2177 52.0932H69.2672C70.8177 52.0932 72.0637 53.3392 72.0637 54.8897V73.6436C72.0637 73.6436 72.0637 73.6436 72.0637 73.6507V73.672C72.0637 76.4259 70.1947 78.5357 67.6672 78.9321L62.6265 79.81C62.5487 79.8171 62.5062 79.8312 62.4495 79.8312C64.7646 79.2719 66.4212 77.2472 66.4212 74.6489H66.4141V74.656Z" fill="#11B67A"/>
<path d="M66.931 55.3921C66.931 55.3921 66.945 55.3781 66.952 55.371L66.931 55.3991V55.3921Z" fill="white"/>
<path d="M66.9805 55.3283V54.9885C66.9805 53.7495 67.9858 52.7442 69.2247 52.7442C70.4637 52.7442 71.469 53.7495 71.469 54.9885V55.3566C71.469 55.3566 71.4478 55.3212 71.4336 55.3L71.469 55.3637V74.9531C71.469 74.9531 70.8531 64.6168 70.4212 58.6911C70.1239 54.6699 68.1982 54.1177 66.9947 55.3283C66.9947 55.3354 66.9805 55.3495 66.9805 55.3566V55.3425C66.9805 55.3425 66.9591 55.364 66.952 55.371L66.9805 55.3212V55.3283Z" fill="white"/>
</g>
<defs>
<clipPath id="clip0_15980_13740">
<rect width="100" height="100" fill="white"/>
</clipPath>
</defs>
</svg>
