<svg width="100" height="100" viewBox="0 0 100 100" fill="none" xmlns="http://www.w3.org/2000/svg">
<rect width="100" height="100" fill="#024731"/>
<path d="M99.7385 51.8761C102.014 65.8803 81.5699 81.4992 54.0904 86.7591C26.6108 92.0283 2.48361 84.946 0.217256 70.9418C-2.05854 56.9376 18.3859 41.3187 45.8654 36.0589C73.3449 30.7896 97.4721 37.8719 99.7385 51.8761Z" fill="#6CF479"/>
<path d="M99.6942 59.1473C101.97 73.1515 81.5256 88.7705 54.0461 94.0303C26.5666 99.2996 2.43935 92.2172 0.172992 78.213C-2.1028 64.2089 18.3416 48.5899 45.8211 43.3301C73.3007 38.0608 97.4279 45.1432 99.6942 59.1473Z" fill="black"/>
<path d="M99.827 53.7177C102.103 67.7219 81.6584 83.3408 54.1789 88.6007C26.6994 93.8699 2.57214 86.7876 0.305786 72.7834C-1.97001 58.7792 18.4744 43.1603 45.9539 37.9005C73.4335 32.6312 97.5607 39.7135 99.827 53.7177Z" fill="#11B67A"/>
<path d="M14.0918 56.1726C22.3167 49.8835 33.9035 45.0769 46.7178 42.6217C59.5321 40.1665 71.931 40.3837 81.6385 43.2356C89.8824 45.653 95.2272 49.7797 96.4926 54.624C96.4737 54.3407 96.4454 54.0479 96.3981 53.7741C95.5483 48.5615 90.0713 44.1043 81.3647 41.5452C71.6571 38.6934 59.2583 38.4762 46.444 40.9314C33.6296 43.3866 22.0429 48.2026 13.8179 54.4823C6.43337 60.1199 2.68445 66.3524 3.53433 71.565C3.58154 71.8483 3.64765 72.1221 3.71375 72.4054C3.38324 67.3722 7.10384 61.5174 14.0918 56.1821V56.1726Z" fill="#00482F"/>
<path d="M53.223 86.9668C53.223 86.9668 92.3082 76.6549 95.4433 58.2218C95.4433 58.2218 89.9946 66.494 80.9291 67.7027C80.9291 67.7027 70.0412 81.7447 53.2136 86.9573L53.223 86.9668Z" fill="white"/>
<path d="M29.0207 66.8722C29.2945 68.4398 29.2379 69.8185 28.8412 71.0272C28.4446 72.2265 27.7836 73.2086 26.8771 73.964C25.9705 74.7195 24.8751 75.2105 23.6003 75.4371C22.3255 75.6638 21.1262 75.5788 20.0119 75.1727C18.8976 74.7761 17.9439 74.0773 17.1601 73.0764C16.3763 72.0848 15.8475 70.8006 15.5736 69.2424C15.2998 67.6843 15.3564 66.2962 15.7531 65.0874C16.1497 63.8882 16.8012 62.9061 17.7172 62.1506C18.6332 61.3952 19.7286 60.9042 21.0034 60.6775C22.2688 60.4509 23.4587 60.5453 24.5824 60.942C25.6967 61.3386 26.6504 62.0373 27.4342 63.0288C28.218 64.0204 28.7468 65.3046 29.0301 66.8722H29.0207ZM25.9422 67.4105C25.7628 66.4001 25.4606 65.5691 25.0357 64.9269C24.6107 64.2848 24.0913 63.8315 23.487 63.5671C22.8732 63.3027 22.2027 63.2366 21.4662 63.3688C20.7296 63.501 20.1252 63.7938 19.6436 64.2471C19.162 64.7003 18.8315 65.3047 18.6521 66.0601C18.4727 66.8061 18.4727 67.6938 18.6521 68.7042C18.8315 69.7146 19.1337 70.5456 19.5586 71.1877C19.9836 71.8299 20.5029 72.2831 21.1073 72.5475C21.7211 72.812 22.3916 72.8781 23.1187 72.7459C23.8458 72.6137 24.4596 72.3209 24.9412 71.8676C25.4228 71.4143 25.7533 70.81 25.9328 70.0545C26.1122 69.2991 26.1122 68.4209 25.9328 67.4105H25.9422Z" fill="black"/>
<path d="M36.3642 72.3211L35.2075 65.7723L34.0507 59.2234C33.9846 58.874 34.2206 58.5435 34.57 58.4774L39.6032 57.5897C40.6892 57.4009 41.6524 57.4387 42.4928 57.722C43.3333 57.9958 44.0226 58.468 44.5514 59.129C45.0802 59.79 45.4391 60.5927 45.5996 61.5464C45.7601 62.5002 45.7129 63.3784 45.4296 64.1811C45.1463 64.9838 44.6553 65.6542 43.9471 66.2019C43.2388 66.7496 42.3323 67.1179 41.2369 67.3068L38.6965 67.8242C38.6308 67.4512 38.5999 67.2499 38.5338 66.9005L38.3892 66.0799C38.3231 65.7305 38.3153 65.6601 38.2602 65.3475L40.3115 64.9648C40.8969 64.861 41.3596 64.6721 41.709 64.4077C42.0584 64.1339 42.2945 63.8034 42.4173 63.4067C42.54 63.0101 42.5589 62.5757 42.4834 62.1036C42.4078 61.6314 42.2284 61.2254 41.9829 60.9043C41.7279 60.5832 41.3974 60.3566 40.9725 60.2244C40.5475 60.0922 40.0471 60.0827 39.4616 60.1866L38.0451 60.4321C37.6957 60.4982 37.4596 60.8288 37.5257 61.1782L39.3955 71.7922C39.4616 72.1416 39.2255 72.4721 38.8761 72.5382L37.1008 72.8499C36.7514 72.916 36.4209 72.6799 36.3548 72.3305L36.3642 72.3211Z" fill="black"/>
<path d="M53.1037 69.3743L50.7901 56.2767C50.724 55.9273 50.9601 55.5968 51.3095 55.5307L59.7233 54.0481C60.0727 53.982 60.4032 54.2181 60.4693 54.5675L60.6865 55.8046C60.7526 56.154 60.5165 56.4844 60.1671 56.5505L54.794 57.4949C54.4446 57.561 54.2085 57.8915 54.2746 58.2408L54.6523 60.3939C54.7184 60.7433 55.049 60.9794 55.3984 60.9133L60.271 60.054C60.6204 59.9879 60.9509 60.2239 61.017 60.5733L61.2342 61.8104C61.3003 62.1598 61.0642 62.4903 60.7148 62.5564L55.8422 63.4157C55.4928 63.4818 55.2567 63.8123 55.3228 64.1617L55.7005 66.3242C55.7666 66.6736 56.0971 66.9097 56.4465 66.8436L61.848 65.8898C62.1974 65.8237 62.5279 66.0598 62.594 66.4092L62.8112 67.6462C62.8773 67.9956 62.6412 68.3261 62.2918 68.3922L53.8497 69.8842C53.5003 69.9504 53.1698 69.7143 53.1037 69.3649V69.3743Z" fill="black"/>
<path d="M78.8551 51.3288L81.1687 64.4264C81.2348 64.7758 80.9987 65.1063 80.6493 65.1724L78.9873 65.4652C78.7796 65.5029 78.5624 65.4368 78.4207 65.2857L70.819 57.5896L70.7151 57.6085L72.1977 66.0129C72.2638 66.3623 72.0277 66.6928 71.6783 66.7589L69.903 67.0705C69.5536 67.1366 69.2231 66.9005 69.157 66.5511L66.8434 53.4535C66.7773 53.1041 67.0134 52.7736 67.3628 52.7075L69.0626 52.4053C69.2703 52.3675 69.4875 52.4336 69.6292 52.5847L77.1837 60.2809L77.3064 60.262L75.8238 51.867C75.7577 51.5176 75.9938 51.1871 76.3432 51.121L78.0996 50.8094C78.449 50.7433 78.7796 50.9794 78.8457 51.3288H78.8551Z" fill="black"/>
<path d="M74.2747 46.8051C75.1092 46.8051 75.7856 46.1286 75.7856 45.2942C75.7856 44.4597 75.1092 43.7833 74.2747 43.7833C73.4403 43.7833 72.7638 44.4597 72.7638 45.2942C72.7638 46.1286 73.4403 46.8051 74.2747 46.8051Z" fill="#00482F"/>
<path d="M22.5366 56.0971C23.3711 56.0971 24.0475 55.4207 24.0475 54.5862C24.0475 53.7518 23.3711 53.0753 22.5366 53.0753C21.7022 53.0753 21.0257 53.7518 21.0257 54.5862C21.0257 55.4207 21.7022 56.0971 22.5366 56.0971Z" fill="#00482F"/>
<path d="M45.0782 14.028L22.2352 53.472C22.0369 53.812 22.1597 54.2464 22.4902 54.4447C22.6035 54.5108 22.7263 54.5391 22.849 54.5391C23.0946 54.5391 23.3306 54.4164 23.4628 54.1897L46.2114 14.8968C45.7959 14.6513 45.4181 14.3585 45.0782 14.028Z" fill="#6CF479"/>
<path d="M74.3488 44.1422L53.895 13.6786C53.5833 14.0375 53.2245 14.3586 52.8373 14.6419L73.1684 44.9355C73.3856 45.2565 73.8294 45.3509 74.1505 45.1337C74.4715 44.9165 74.566 44.4727 74.3488 44.1517V44.1422Z" fill="#6CF479"/>
<path d="M49.3153 5C46.7373 5 44.641 7.09639 44.641 9.67436C44.641 12.2523 46.7373 14.3487 49.3153 14.3487C51.8933 14.3487 53.9897 12.2523 53.9897 9.67436C53.9897 7.09639 51.8933 5 49.3153 5Z" fill="#6CF479"/>
</svg>
