<svg width="100" height="100" viewBox="0 0 100 100" fill="none" xmlns="http://www.w3.org/2000/svg">
<rect width="100" height="100" fill="#024731"/>
<path d="M47.2931 51.8785C46.1721 51.7871 45.1257 51.4466 44.1957 50.9235L40.11 96.198H55.4562L52.5829 65.2981C50.1664 61.1294 48.2315 56.6036 47.2931 51.8785Z" fill="#11B67A"/>
<path d="M47.9491 37.7616C44.3866 37.7616 41.4967 40.6515 41.4967 44.214C41.4967 47.7765 44.3866 50.6664 47.9491 50.6664C51.5116 50.6664 54.4015 47.7765 54.4015 44.214C54.4015 40.6515 51.5116 37.7616 47.9491 37.7616Z" fill="#6CF479"/>
<path d="M47.2681 44.5126L42.053 46.8378C43.0579 49.0882 45.3166 50.666 47.9407 50.666C50.5649 50.666 52.8236 49.0965 53.8284 46.8378L48.6134 44.5126C48.1815 44.3216 47.6999 44.3216 47.2681 44.5126Z" fill="black"/>
<path d="M48.3311 38.7747C48.3311 38.7747 52.4417 39.0571 53.4133 43.2092L48.3311 43.6493C48.3311 43.6493 50.266 41.1082 48.3311 38.7664V38.7747Z" fill="white"/>
<path d="M47.2931 51.8785C46.1721 51.7871 45.1257 51.4466 44.1957 50.9235L40.11 96.198H44.9098L46.2468 59.618C47.3347 63.878 49.5436 69.608 53.5628 75.8195L52.5746 65.2981C50.1664 61.1294 48.2315 56.6036 47.2848 51.8868L47.2931 51.8785Z" fill="black"/>
<path d="M40.9986 40.9249C26.4164 36.1168 8.28002 41.2571 0.822839 43.8314C-0.314838 44.2217 -0.256709 45.841 0.897577 46.1649C21.1266 51.9031 33.9982 50.0678 41.065 47.6679C40.5419 46.6299 40.2429 45.4507 40.2429 44.2134C40.2429 43.0342 40.517 41.9214 40.9903 40.9249H40.9986Z" fill="#6CF479"/>
<path d="M54.2023 39.746C59.6167 34.6057 67.2316 24.0759 71.5747 3.48981C71.8238 2.31892 70.4204 1.51341 69.5402 2.33552C63.7937 7.73326 50.7976 21.3937 48.2648 36.5406C50.7062 36.6402 52.857 37.8858 54.2023 39.7543V39.746Z" fill="#6CF479"/>
<path d="M73.1607 83.9742C68.0121 63.5791 59.9902 53.3566 54.3766 48.4322C53.106 50.3588 50.9968 51.6792 48.5719 51.8785C51.7026 66.9091 65.2219 80.0463 71.176 85.2116C71.4168 85.4192 71.6992 85.5188 71.9649 85.5188C72.6957 85.5188 73.3766 84.8296 73.1607 83.9825V83.9742Z" fill="#6CF479"/>
<path d="M75.295 38.2512C75.5856 38.0021 75.8514 37.7281 76.1171 37.454C76.7565 36.7897 78.5668 35.2202 81.2242 35.5191C82.3286 35.6437 83.184 36.1503 83.7819 36.6651C85.2849 34.0576 88.0918 32.3054 91.3138 32.3054C96.1136 32.3054 100 36.2001 100 40.9916V41.822H63.9182C70.2875 41.822 73.3518 39.9287 75.295 38.2512Z" fill="white"/>
<path d="M39.3875 5.69044C42.2442 5.46623 45.0344 5.69874 47.6835 6.32986C47.5589 6.32986 47.4426 6.35478 47.3264 6.34647C39.155 6.15548 30.9588 8.79622 26.516 16.76C25.7354 17.0755 24.9714 17.4326 24.2074 17.8395C20.6449 19.7329 17.7551 22.3819 15.596 25.4794C18.4526 14.8168 27.7616 6.61221 39.3875 5.69044Z" fill="white"/>
<path d="M24.8635 74.0013C24.8635 74.0013 20.2713 64.003 5.14928 73.9847L24.8635 74.0013Z" fill="white"/>
<path d="M59.3507 81.8232C56.494 82.0474 53.7038 81.8149 51.0548 81.1838C51.1793 81.1838 51.2956 81.1589 51.4119 81.1672C59.5832 81.3582 67.7795 78.7174 72.2222 70.7537C73.0028 70.4381 73.7668 70.0811 74.5308 69.6741C78.0933 67.7808 80.9832 65.1317 83.1423 62.0343C80.2856 72.6969 70.9766 80.9014 59.3507 81.8232Z" fill="white"/>
</svg>
