<svg width="100" height="100" viewBox="0 0 100 100" fill="none" xmlns="http://www.w3.org/2000/svg">
<rect width="100" height="100" fill="#024731"/>
<path d="M96.852 41.7869L95.6296 41.3736C95.6296 41.3736 95.5592 41.312 95.5153 41.2856L60.637 21.1115C59.1948 20.276 57.3743 20.5399 56.2311 21.7447L10.3776 69.9375L9.51572 70.1749V71.8722L9.5421 71.8898C9.5421 72.8132 9.99061 73.7278 10.8788 74.2379L45.7571 94.4121C47.1993 95.2475 49.0198 94.9837 50.163 93.7789L96.1221 45.4717C96.6321 44.9353 96.8608 44.2493 96.852 43.5722H96.8608V41.7781L96.852 41.7869Z" fill="black"/>
<path d="M56.2306 19.9592L10.2715 68.2663C9.0667 69.5327 9.36571 71.5818 10.8783 72.4612L45.7565 92.6354C47.1988 93.4708 49.0192 93.207 50.1625 92.0022L96.1216 43.695C97.3264 42.4287 97.0274 40.3796 95.5148 39.5001L60.6365 19.326C59.1943 18.4905 57.3738 18.7544 56.2306 19.9592Z" fill="#11B67A"/>
<path d="M80.3014 30.6967L30.0243 83.5329L38.7835 88.6776L89.1661 35.7535L80.3014 30.6967Z" fill="black"/>
<path d="M10.2459 68.301C25.7855 69.1805 37.5171 66.1376 37.5171 66.1376L28.3886 57.4752L23.7979 54.0454L10.2635 68.2658C10.2635 68.2658 10.2459 68.2922 10.2371 68.301H10.2459Z" fill="black"/>
<path d="M86.6766 44.2403C86.6766 44.2403 89.3149 52.9819 100 55.4003C100 55.4003 91.9005 56.7986 91.7422 66.5251C91.7422 66.5251 88.8928 58.1001 78.6386 55.3915C78.6386 55.3915 87.2043 54.3714 86.6766 44.2403Z" fill="white"/>
<path d="M67.1972 25.0861C67.1972 25.0861 68.3581 28.9292 73.063 29.9933C73.063 29.9933 69.5013 30.6089 69.4222 34.8917C69.4222 34.8917 68.1646 31.1805 63.6531 29.9933C63.6531 29.9933 67.4259 29.5448 67.1884 25.0861H67.1972Z" fill="white"/>
<path d="M88.6472 7.84097C88.6472 7.84097 90.3533 13.4957 97.2744 15.0611C97.2744 15.0611 92.033 15.9669 91.9274 22.2636C91.9274 22.2636 90.0807 16.8112 83.4497 15.0611C83.4497 15.0611 88.9902 14.4015 88.6472 7.84977V7.84097Z" fill="white"/>
<path d="M48.3687 45.2073C48.3687 45.2073 37.1647 49.5781 22.6893 46.2802L25.2924 41.0212L26.7171 39.2008V38.1367C22.1265 39.2711 17.5534 40.6343 13.0244 42.3755C8.4953 44.108 4.1773 46.1571 0 48.3733V49.4374L1.62695 50.0178C4.42354 52.832 7.36084 55.5494 10.518 58.1086C13.2179 60.2983 16.0056 62.3122 18.8462 64.203L22.2232 67.4481V66.384L21.0008 57.9766C34.7375 61.8637 46.3548 57.8535 46.3548 57.8535L48.1576 46.5265L48.3687 46.2714V45.2073Z" fill="black"/>
<path d="M46.3281 13.2754C42.5554 10.2238 38.6331 7.50638 34.6229 5V6.06411L34.8955 6.84681L35.8453 13.4074C22.1086 9.52027 10.4913 13.5305 10.4913 13.5305L8.4774 26.1855V27.2496L15.2402 24.5146C19.8836 23.7671 26.5673 23.3889 34.1568 25.1126L30.129 33.2561V34.3202L56.8461 24.0837V23.0195C53.5658 19.6161 50.1009 16.3359 46.3281 13.2754Z" fill="black"/>
<path d="M46.329 14.3395C42.5562 11.2879 38.6331 8.57049 34.6229 6.06411L35.8462 14.4714C22.1095 10.5844 10.4922 14.5946 10.4922 14.5946L8.4774 27.2496C8.4774 27.2496 19.6822 22.8788 34.1576 26.1767L30.129 34.3202C34.7196 33.1858 39.2935 31.8226 43.8226 30.0813C48.3517 28.3489 52.6688 26.2998 56.8461 24.0837C53.5658 20.6803 50.1017 17.3999 46.329 14.3395Z" fill="#6CF479"/>
<path d="M22.6893 47.3443L26.7171 39.2008C22.1265 40.3353 17.5534 41.6983 13.0244 43.4396C8.4953 45.1721 4.1773 47.2212 0 49.4374C3.28028 52.8408 6.74524 56.121 10.518 59.1814C14.2908 62.233 18.213 64.9505 22.2232 67.4569L21.0008 59.0495C34.7375 62.9366 46.3548 58.9264 46.3548 58.9264L48.3687 46.2714C48.3687 46.2714 37.1647 50.6422 22.6893 47.3443Z" fill="#6CF479"/>
</svg>
