<svg width="100" height="100" viewBox="0 0 100 100" fill="none" xmlns="http://www.w3.org/2000/svg">
<g clip-path="url(#clip0_15980_1684)">
<rect width="100" height="100" fill="#024731"/>
<path d="M37.5552 41.6808C32.294 45.3954 27.0327 49.1101 21.7716 52.8247C17.1796 56.1496 17.0537 62.928 21.5191 66.4199L22.1826 66.9388L36.1123 51.9727C36.5933 48.5421 37.0742 45.1115 37.5552 41.6808Z" fill="#11B67A"/>
<path d="M37.5552 41.6808C36.5837 42.557 35.1606 43.9244 33.6219 45.7569C31.5972 48.1683 31.2619 49.1343 29.6847 51.2697C25.9046 56.3877 23.9236 56.1282 22.2354 59.5071C21.4364 61.1063 20.6607 63.605 21.0998 67.3371C24.7185 63.2184 28.3372 59.0997 31.9558 54.981L33.9807 48.1015L37.5552 41.6808Z" fill="#024731"/>
<path d="M68.1049 64.1043C68.9281 60.5722 73.053 58.5093 77.3185 59.4964C81.5841 60.4835 84.3749 64.1472 83.5516 67.6793C83.1694 69.3188 82.0745 70.6401 80.5855 71.4884C83.0891 72.2766 85.5861 73.5861 87.6935 75.1679C88.3076 73.991 89.2455 73.0053 90.4707 72.3664C93.9495 70.5526 98.4158 72.2159 100.446 76.0819C102.476 79.948 101.301 84.5527 97.8226 86.3666C96.052 87.2897 94.0266 87.3102 92.1959 86.5998C87.7782 92.8685 70.327 96.5914 55.7272 95.2186C42.6536 93.9893 28.5387 88.3612 28.8906 84.1847C29.173 80.8414 38.4809 82.1131 61.0475 74.4637C65.3681 72.9992 68.5789 71.7608 71.5047 71.1228C68.9238 69.5151 67.4829 66.7727 68.1049 64.1043Z" fill="black"/>
<path d="M4.13453 61.9107C6.17835 61.6231 9.77347 61.3839 13.9985 62.5655C18.4035 63.7974 21.4357 65.9982 23.0304 67.3419C23.8676 71.881 24.7047 76.42 25.5417 80.9591C22.7004 81.725 18.9855 82.4491 14.6042 82.6007C10.4782 82.7435 6.91805 82.3387 4.13453 81.8252V61.9107Z" fill="#6CF479"/>
<path d="M4.13453 81.8252C7.27869 81.8252 9.82744 77.3671 9.82744 71.8679C9.82744 66.3686 7.27869 61.9107 4.13453 61.9107C0.99036 61.9107 -1.55859 66.3686 -1.55859 71.8679C-1.55859 77.3671 0.99036 81.8252 4.13453 81.8252Z" fill="#C7FFC6"/>
<path d="M69.2225 53.8968L70.27 51.1464L68.5742 46.7563L39.019 40.7487C36.8128 42.0214 33.9976 44.1602 32.7204 47.6283C32.1365 49.2139 32.4721 49.4482 31.8344 51.1798C30.6127 54.4968 28.6648 55.5992 25.4887 59.3377C25.2164 59.6582 22.608 62.7416 21.7112 64.4442C18.3208 70.8807 24.7515 85.3762 36.0133 91.3709C47.9887 97.7455 66.9544 95.3209 70.9091 84.7982C72.4079 80.8102 71.4275 76.5187 69.8523 72.9528C67.1796 66.9022 66.8685 60.0774 69.2225 53.8968Z" fill="#6CF479"/>
<path d="M60.8374 66.7437C57.5178 74.9434 59.7418 82.6032 64.2804 84.8944C66.9919 86.2632 70.1065 85.5022 71.9086 84.843L62.978 78.4463C62.2645 74.5454 61.5509 70.6445 60.8374 66.7437Z" fill="#024731"/>
<path d="M2.49262 80.2645C4.59652 80.2645 6.30208 77.476 6.30208 74.0363C6.30208 70.5965 4.59652 67.808 2.49262 67.808C0.38871 67.808 -1.31684 70.5965 -1.31684 74.0363C-1.31684 77.476 0.38871 80.2645 2.49262 80.2645Z" fill="#11B67A"/>
<path d="M6.16603 68.3785C6.83081 68.3785 7.36972 67.5942 7.36972 66.6268C7.36972 65.6594 6.83081 64.8751 6.16603 64.8751C5.50126 64.8751 4.96235 65.6594 4.96235 66.6268C4.96235 67.5942 5.50126 68.3785 6.16603 68.3785Z" fill="#11B67A"/>
<path d="M2.51176 67.2375C3.17653 67.2375 3.71544 66.4533 3.71544 65.4859C3.71544 64.5184 3.17653 63.7342 2.51176 63.7342C1.84698 63.7342 1.30807 64.5184 1.30807 65.4859C1.30807 66.4533 1.84698 67.2375 2.51176 67.2375Z" fill="#11B67A"/>
<path d="M59.211 91.9502C46.4221 94.2378 35.3923 85.3347 30.2301 81.1677C25.8624 77.6422 22.7933 74.0697 20.8062 71.456C20.8431 71.7793 20.8821 72.2636 20.8656 72.8501C20.8656 72.8501 20.8078 74.9039 19.904 76.8701C18.9419 78.9632 13.2683 82.0602 5.12503 82.0148C8.14682 82.4965 11.9941 82.8222 16.4215 82.4996C19.5967 82.2683 22.3947 81.7526 24.7395 81.1667C24.7384 81.1642 24.7372 81.1616 24.7361 81.1592C25.818 82.8817 27.175 84.6368 28.8847 86.3014C29.5887 86.987 31.7563 89.0242 35.137 90.8795C42.015 94.6543 57.3474 98.2627 66.6591 90.4654C67.9265 89.4042 68.82 88.3511 69.3845 87.614C65.3956 90.4049 61.7807 91.4905 59.211 91.9502Z" fill="black"/>
<path d="M46.5899 99.7676C53.1123 99.7676 58.3998 94.499 58.3998 87.9999C58.3998 81.5008 53.1123 76.2323 46.5899 76.2323C40.0674 76.2323 34.7799 81.5008 34.7799 87.9999C34.7799 94.499 40.0674 99.7676 46.5899 99.7676Z" fill="#C7FFC6"/>
<path d="M46.5896 97.6255C50.478 97.6255 53.6301 94.4847 53.6301 90.6102C53.6301 86.7357 50.478 83.5948 46.5896 83.5948C42.7012 83.5948 39.549 86.7357 39.549 90.6102C39.549 94.4847 42.7012 97.6255 46.5896 97.6255Z" fill="#11B67A"/>
<path d="M40.6466 84.8529C41.9009 84.8529 42.9178 83.8397 42.9178 82.5899C42.9178 81.3401 41.9009 80.3269 40.6466 80.3269C39.3923 80.3269 38.3755 81.3401 38.3755 82.5899C38.3755 83.8397 39.3923 84.8529 40.6466 84.8529Z" fill="#11B67A"/>
<path d="M52.6117 84.8529C53.866 84.8529 54.8829 83.8397 54.8829 82.5899C54.8829 81.3401 53.866 80.3269 52.6117 80.3269C51.3574 80.3269 50.3406 81.3401 50.3406 82.5899C50.3406 83.8397 51.3574 84.8529 52.6117 84.8529Z" fill="#11B67A"/>
<path d="M46.6294 82.5899C47.8837 82.5899 48.9005 81.5768 48.9005 80.3269C48.9005 79.0771 47.8837 78.0639 46.6294 78.0639C45.3751 78.0639 44.3582 79.0771 44.3582 80.3269C44.3582 81.5768 45.3751 82.5899 46.6294 82.5899Z" fill="#11B67A"/>
<path d="M68.6952 47.0338C66.5347 48.3776 63.1163 50.0664 58.6846 50.576C47.6086 51.8495 39.5041 44.6875 38.0425 43.3494C40.6184 47.6549 43.6502 49.8523 45.4009 50.9079C45.4009 50.9079 54.0117 56.0995 66.4983 52.875C66.5737 52.8556 68.766 52.2869 68.766 52.2869C69.2783 52.1081 69.7905 51.9291 70.3028 51.7503C70.2122 51.2886 70.0989 50.8041 69.9574 50.3012C69.6035 49.0434 69.1527 47.9518 68.6952 47.0338Z" fill="#024731"/>
<path d="M70.2135 50.7455C70.5693 50.7896 71.1433 50.954 72.5665 52.6528C74.9132 55.454 76.9755 59.3316 78.8494 70.5398C79.7617 75.9966 79.6585 77.3784 79.0637 78.8537C78.874 79.324 77.1257 83.4697 72.9469 84.5123C72.5688 84.6067 70.9623 84.9771 69.1555 84.5334C64.3409 83.3512 61.4452 77.0584 60.5937 72.654C58.5387 62.0255 66.0537 50.2291 70.2135 50.7455Z" fill="#11B67A"/>
<path d="M89.0748 23.6658C84.8326 27.0226 77.9451 25.1634 75.2036 20.5143C72.9589 16.7076 73.4265 10.9163 77.5734 8.10619C81.7032 5.30767 87.2358 6.98785 90.0261 10.4675C93.1352 14.3446 92.9529 20.5972 89.0748 23.6658Z" fill="#11B67A"/>
<path d="M86.6869 22.6682C83.6569 25.0658 78.7375 23.7378 76.7793 20.4172C75.176 17.6982 75.51 13.5618 78.4719 11.5546C81.4217 9.55574 85.3734 10.7558 87.3664 13.2411C89.5871 16.0104 89.4568 20.4764 86.6869 22.6682Z" fill="#C7FFC6"/>
<path d="M47.562 6.6171C48.7387 11.886 44.0509 17.2467 38.6562 17.6725C34.239 18.0212 29.2154 15.0716 28.4905 10.127C27.7687 5.20279 31.7028 0.978157 36.0631 -0.00232781C40.9216 -1.09482 46.4863 1.80042 47.562 6.6171Z" fill="#11B67A"/>
<path d="M45.6183 8.32135C46.4587 12.0847 43.1105 15.9136 39.2573 16.2177C36.1022 16.4667 32.5141 14.36 31.9964 10.8283C31.4808 7.31113 34.2908 4.29366 37.4052 3.59338C40.8753 2.81307 44.85 4.88104 45.6183 8.32135Z" fill="#C7FFC6"/>
<path d="M43.6657 15.3934C46.4222 12.6715 46.5653 8.34993 44.2201 5.66767C42.1703 3.32322 38.5851 2.64926 35.5996 4.16531C38.5896 3.83329 41.5142 5.18197 43.1464 7.64995C45.537 11.2645 43.7667 15.1802 43.6657 15.3934Z" fill="#024731"/>
<path d="M80.2382 26.2462C81.4791 39.0933 70.1663 49.003 58.9141 50.5156C49.1384 51.8297 38.2666 46.9591 34.6113 38.9059C33.0635 35.4957 33.2265 32.4331 33.3362 30.744C33.8788 22.3948 40.0288 7.87774 54.6603 6.47464C67.6119 5.2326 79.0635 14.0847 80.2382 26.2462Z" fill="#6CF479"/>
<path d="M46.4011 25.378C47.6649 25.378 48.6894 24.3571 48.6894 23.0979C48.6894 21.8386 47.6649 20.8178 46.4011 20.8178C45.1374 20.8178 44.1129 21.8386 44.1129 23.0979C44.1129 24.3571 45.1374 25.378 46.4011 25.378Z" fill="black"/>
<path d="M47.1596 23.2923C47.5191 23.2923 47.8106 23.0019 47.8106 22.6436C47.8106 22.2853 47.5191 21.9948 47.1596 21.9948C46.8 21.9948 46.5085 22.2853 46.5085 22.6436C46.5085 23.0019 46.8 23.2923 47.1596 23.2923Z" fill="white"/>
<path d="M62.3897 28.4559C63.6535 28.4559 64.6779 27.4351 64.6779 26.1758C64.6779 24.9166 63.6535 23.8958 62.3897 23.8958C61.1259 23.8958 60.1014 24.9166 60.1014 26.1758C60.1014 27.4351 61.1259 28.4559 62.3897 28.4559Z" fill="black"/>
<path d="M63.3607 26.4297C63.7203 26.4297 64.0118 26.1392 64.0118 25.7809C64.0118 25.4226 63.7203 25.1321 63.3607 25.1321C63.0011 25.1321 62.7096 25.4226 62.7096 25.7809C62.7096 26.1392 63.0011 26.4297 63.3607 26.4297Z" fill="white"/>
<path d="M67.7146 40.2186C69.0312 34.5698 63.3114 28.4198 54.939 26.4823C46.5665 24.5447 38.712 27.5534 37.3953 33.2023C36.0787 38.8511 41.7985 45.0011 50.1709 46.9386C58.5434 48.8761 66.3979 45.8675 67.7146 40.2186Z" fill="white"/>
<path d="M46.2607 28.7364C47.0486 26.8659 52.959 27.88 53.5899 27.9927C54.6224 28.1771 59.5059 29.0489 59.6603 30.8652C59.8041 32.5567 55.849 35.0968 52.2059 34.5166C48.5739 33.9382 45.5966 30.3133 46.2607 28.7364Z" fill="black"/>
<path d="M83.6999 10.8277C86.168 12.3708 87.4195 15.2973 86.8269 18.1392C86.2338 20.9835 83.9125 23.172 81.0289 23.6053C81.4329 23.7401 83.5438 24.3995 85.7267 23.2768C87.6053 22.3107 88.3249 20.6484 88.5303 20.1532C89.7915 17.1122 88.1167 14.2984 87.9171 13.9752C86.5221 11.7179 84.2933 10.9988 83.6999 10.8277Z" fill="#024731"/>
<path d="M49.0912 28.3709C49.0232 28.3723 49.0113 28.467 49.0761 28.4874C49.6576 28.6701 50.4468 29.0085 51.2184 29.6511C51.788 30.1253 52.1789 30.6245 52.4378 31.0189C52.7324 30.7696 53.0971 30.5079 53.5387 30.276C54.652 29.6912 55.7354 29.5673 56.4841 29.5654C56.5525 29.5652 56.5681 29.4704 56.503 29.4496C55.5551 29.1458 54.4495 28.8601 53.204 28.6583C51.6578 28.4078 50.2646 28.3463 49.0912 28.3709Z" fill="white"/>
<path d="M50.9888 86.7845C51.1503 86.9443 53.1931 89.0359 52.612 91.9098C52.1674 94.1095 50.3689 95.8606 48.0622 96.3242C48.1967 96.2538 49.241 95.6849 49.4419 94.4912C49.5594 93.7928 49.3288 93.2329 49.2189 93.0054C49.6301 92.6648 50.5163 91.8359 50.9887 90.4504C51.5734 88.7355 51.1501 87.2658 50.9888 86.7845Z" fill="white"/>
<path d="M3.91323 69.9189C4.30041 70.438 5.73472 72.488 5.51279 75.393C5.31397 77.9957 3.90767 79.6888 3.43941 80.2083C3.49112 80.0737 4.04549 78.5606 3.16069 77.3964C2.84056 76.9752 2.44232 76.7448 2.16572 76.6212C2.57244 76.3668 3.64724 75.6184 4.20588 74.1888C5.02742 72.0863 4.06841 70.2104 3.91323 69.9189Z" fill="white"/>
</g>
<defs>
<clipPath id="clip0_15980_1684">
<rect width="100" height="100" fill="white"/>
</clipPath>
</defs>
</svg>
