<svg width="100" height="100" viewBox="0 0 100 100" fill="none" xmlns="http://www.w3.org/2000/svg">
<g clip-path="url(#clip0_15980_1686)">
<rect width="100" height="100" fill="#024731"/>
<path d="M37.5552 42.0011C32.294 45.7157 27.0327 49.4304 21.7716 53.145C17.1796 56.4699 17.0537 63.2483 21.5191 66.7402L22.1826 67.2591L36.1123 52.293C36.5933 48.8624 37.0742 45.4318 37.5552 42.0011Z" fill="#11B67A"/>
<path d="M37.5552 42.0011C36.5837 42.8773 35.1606 44.2447 33.6219 46.0772C31.5972 48.4886 31.2619 49.4546 29.6847 51.59C25.9046 56.708 23.9236 56.4485 22.2354 59.8274C21.4364 61.4266 20.6607 63.9253 21.0998 67.6574C24.7185 63.5387 28.3372 59.42 31.9558 55.3014L33.9807 48.4218L37.5552 42.0011Z" fill="#024731"/>
<path d="M68.1049 64.4246C68.9281 60.8925 73.053 58.8296 77.3185 59.8167C81.5841 60.8038 84.3749 64.4675 83.5516 67.9996C83.1694 69.6391 82.0745 70.9604 80.5855 71.8087C83.0891 72.5969 85.5861 73.9064 87.6935 75.4882C88.3076 74.3113 89.2455 73.3256 90.4707 72.6867C93.9495 70.8729 98.4158 72.5362 100.446 76.4022C102.476 80.2683 101.301 84.873 97.8226 86.6869C96.052 87.61 94.0266 87.6306 92.1959 86.9201C87.7782 93.1888 70.327 96.9117 55.7272 95.5389C42.6536 94.3096 28.5387 88.6815 28.8906 84.505C29.173 81.1617 38.4809 82.4334 61.0475 74.784C65.3681 73.3195 68.5789 72.0812 71.5047 71.4431C68.9238 69.8354 67.4829 67.093 68.1049 64.4246Z" fill="black"/>
<path d="M4.13453 62.231C6.17835 61.9434 9.77347 61.7042 13.9985 62.8858C18.4035 64.1177 21.4357 66.3185 23.0304 67.6622C23.8676 72.2013 24.7047 76.7403 25.5417 81.2794C22.7004 82.0453 18.9855 82.7694 14.6042 82.921C10.4782 83.0638 6.91805 82.659 4.13453 82.1455V62.231Z" fill="#6CF479"/>
<path d="M4.13453 82.1455C7.27869 82.1455 9.82744 77.6874 9.82744 72.1882C9.82744 66.6889 7.27869 62.231 4.13453 62.231C0.99036 62.231 -1.55859 66.6889 -1.55859 72.1882C-1.55859 77.6874 0.99036 82.1455 4.13453 82.1455Z" fill="#C7FFC6"/>
<path d="M69.2225 54.2171L70.27 51.4667L68.5742 47.0766L39.019 41.069C36.8128 42.3417 33.9976 44.4806 32.7204 47.9486C32.1365 49.5342 32.4721 49.7685 31.8344 51.5001C30.6127 54.8171 28.6648 55.9195 25.4887 59.658C25.2164 59.9785 22.608 63.0619 21.7112 64.7645C18.3208 71.201 24.7515 85.6965 36.0133 91.6912C47.9887 98.0658 66.9544 95.6412 70.9091 85.1185C72.4079 81.1305 71.4275 76.839 69.8523 73.2731C67.1796 67.2225 66.8685 60.3978 69.2225 54.2171Z" fill="#6CF479"/>
<path d="M60.8374 67.064C57.5178 75.2637 59.7418 82.9235 64.2804 85.2147C66.9919 86.5835 70.1065 85.8225 71.9086 85.1633L62.978 78.7666C62.2645 74.8657 61.5509 70.9648 60.8374 67.064Z" fill="#024731"/>
<path d="M2.49262 80.5848C4.59652 80.5848 6.30208 77.7963 6.30208 74.3566C6.30208 70.9168 4.59652 68.1284 2.49262 68.1284C0.38871 68.1284 -1.31684 70.9168 -1.31684 74.3566C-1.31684 77.7963 0.38871 80.5848 2.49262 80.5848Z" fill="#11B67A"/>
<path d="M6.16603 68.6988C6.83081 68.6988 7.36972 67.9146 7.36972 66.9471C7.36972 65.9797 6.83081 65.1954 6.16603 65.1954C5.50126 65.1954 4.96235 65.9797 4.96235 66.9471C4.96235 67.9146 5.50126 68.6988 6.16603 68.6988Z" fill="#11B67A"/>
<path d="M2.51176 67.5579C3.17653 67.5579 3.71544 66.7736 3.71544 65.8062C3.71544 64.8387 3.17653 64.0545 2.51176 64.0545C1.84698 64.0545 1.30807 64.8387 1.30807 65.8062C1.30807 66.7736 1.84698 67.5579 2.51176 67.5579Z" fill="#11B67A"/>
<path d="M59.211 92.2705C46.4221 94.5581 35.3923 85.655 30.2301 81.488C25.8624 77.9626 22.7933 74.39 20.8062 71.7763C20.8431 72.0997 20.8821 72.5839 20.8656 73.1704C20.8656 73.1704 20.8078 75.2242 19.904 77.1904C18.9419 79.2835 13.2683 82.3805 5.12503 82.3352C8.14682 82.8168 11.9941 83.1425 16.4215 82.8199C19.5967 82.5886 22.3947 82.0729 24.7395 81.487C24.7384 81.4845 24.7372 81.482 24.7361 81.4795C25.818 83.202 27.175 84.9571 28.8847 86.6217C29.5887 87.3073 31.7563 89.3445 35.137 91.1998C42.015 94.9746 57.3474 98.583 66.6591 90.7857C67.9265 89.7245 68.82 88.6714 69.3845 87.9343C65.3956 90.7252 61.7807 91.8109 59.211 92.2705Z" fill="black"/>
<path d="M46.5899 100.088C53.1123 100.088 58.3998 94.8193 58.3998 88.3202C58.3998 81.8212 53.1123 76.5526 46.5899 76.5526C40.0674 76.5526 34.7799 81.8212 34.7799 88.3202C34.7799 94.8193 40.0674 100.088 46.5899 100.088Z" fill="#C7FFC6"/>
<path d="M46.5896 97.9459C50.478 97.9459 53.6301 94.805 53.6301 90.9305C53.6301 87.056 50.478 83.9151 46.5896 83.9151C42.7012 83.9151 39.549 87.056 39.549 90.9305C39.549 94.805 42.7012 97.9459 46.5896 97.9459Z" fill="#11B67A"/>
<path d="M40.6466 85.1732C41.9009 85.1732 42.9178 84.16 42.9178 82.9102C42.9178 81.6604 41.9009 80.6472 40.6466 80.6472C39.3923 80.6472 38.3755 81.6604 38.3755 82.9102C38.3755 84.16 39.3923 85.1732 40.6466 85.1732Z" fill="#11B67A"/>
<path d="M52.6117 85.1732C53.866 85.1732 54.8829 84.16 54.8829 82.9102C54.8829 81.6604 53.866 80.6472 52.6117 80.6472C51.3574 80.6472 50.3406 81.6604 50.3406 82.9102C50.3406 84.16 51.3574 85.1732 52.6117 85.1732Z" fill="#11B67A"/>
<path d="M46.6294 82.9103C47.8837 82.9103 48.9005 81.8971 48.9005 80.6472C48.9005 79.3974 47.8837 78.3842 46.6294 78.3842C45.3751 78.3842 44.3582 79.3974 44.3582 80.6472C44.3582 81.8971 45.3751 82.9103 46.6294 82.9103Z" fill="#11B67A"/>
<path d="M68.6952 47.3542C66.5347 48.6979 63.1163 50.3867 58.6846 50.8963C47.6086 52.1698 39.5041 45.0078 38.0425 43.6697C40.6184 47.9752 43.6502 50.1726 45.4009 51.2282C45.4009 51.2282 54.0117 56.4198 66.4983 53.1954C66.5737 53.1759 68.766 52.6073 68.766 52.6073C69.2783 52.4284 69.7905 52.2495 70.3028 52.0706C70.2122 51.6089 70.0989 51.1244 69.9574 50.6215C69.6035 49.3637 69.1527 48.2721 68.6952 47.3542Z" fill="#024731"/>
<path d="M70.2135 51.0658C70.5693 51.1099 71.1433 51.2743 72.5665 52.9731C74.9132 55.7743 76.9755 59.6519 78.8494 70.8601C79.7617 76.317 79.6585 77.6987 79.0637 79.174C78.874 79.6443 77.1257 83.79 72.9469 84.8326C72.5688 84.927 70.9623 85.2974 69.1555 84.8537C64.3409 83.6715 61.4452 77.3788 60.5937 72.9743C58.5387 62.3458 66.0537 50.5494 70.2135 51.0658Z" fill="#11B67A"/>
<path d="M89.0748 23.9861C84.8326 27.343 77.9451 25.4837 75.2036 20.8347C72.9589 17.0279 73.4265 11.2366 77.5734 8.42651C81.7032 5.62799 87.2358 7.30816 90.0261 10.7878C93.1352 14.6649 92.9529 20.9175 89.0748 23.9861Z" fill="#11B67A"/>
<path d="M86.6869 22.9885C83.6569 25.3861 78.7375 24.0581 76.7793 20.7375C75.176 18.0185 75.51 13.8821 78.4719 11.8749C81.4217 9.87605 85.3734 11.0761 87.3664 13.5615C89.5871 16.3307 89.4568 20.7967 86.6869 22.9885Z" fill="#C7FFC6"/>
<path d="M47.562 6.93741C48.7387 12.2063 44.0509 17.567 38.6562 17.9928C34.239 18.3415 29.2154 15.3919 28.4905 10.4473C27.7687 5.5231 31.7028 1.29847 36.0631 0.317985C40.9216 -0.774512 46.4863 2.12073 47.562 6.93741Z" fill="#11B67A"/>
<path d="M45.6183 8.64167C46.4587 12.405 43.1105 16.2339 39.2573 16.538C36.1022 16.7871 32.5141 14.6803 31.9964 11.1486C31.4808 7.63144 34.2908 4.61397 37.4052 3.91369C40.8753 3.13339 44.85 5.20135 45.6183 8.64167Z" fill="#C7FFC6"/>
<path d="M43.6657 15.7138C46.4222 12.9918 46.5653 8.67024 44.2201 5.98799C42.1703 3.64353 38.5851 2.96957 35.5996 4.48563C38.5896 4.1536 41.5142 5.50229 43.1464 7.97026C45.537 11.5848 43.7667 15.5005 43.6657 15.7138Z" fill="#024731"/>
<path d="M80.2382 26.5665C81.4791 39.4136 70.1663 49.3234 58.9141 50.8359C49.1384 52.15 38.2666 47.2794 34.6113 39.2262C33.0635 35.8161 33.2265 32.7534 33.3362 31.0643C33.8788 22.7151 40.0288 8.19805 54.6603 6.79495C67.6119 5.55291 79.0635 14.405 80.2382 26.5665Z" fill="#6CF479"/>
<path d="M46.4011 25.6983C47.6649 25.6983 48.6894 24.6774 48.6894 23.4182C48.6894 22.159 47.6649 21.1381 46.4011 21.1381C45.1374 21.1381 44.1129 22.159 44.1129 23.4182C44.1129 24.6774 45.1374 25.6983 46.4011 25.6983Z" fill="black"/>
<path d="M47.1596 23.6126C47.5191 23.6126 47.8106 23.3222 47.8106 22.9639C47.8106 22.6056 47.5191 22.3151 47.1596 22.3151C46.8 22.3151 46.5085 22.6056 46.5085 22.9639C46.5085 23.3222 46.8 23.6126 47.1596 23.6126Z" fill="white"/>
<path d="M62.3897 28.7762C63.6535 28.7762 64.6779 27.7554 64.6779 26.4961C64.6779 25.2369 63.6535 24.2161 62.3897 24.2161C61.1259 24.2161 60.1014 25.2369 60.1014 26.4961C60.1014 27.7554 61.1259 28.7762 62.3897 28.7762Z" fill="black"/>
<path d="M63.3607 26.75C63.7203 26.75 64.0118 26.4595 64.0118 26.1012C64.0118 25.7429 63.7203 25.4525 63.3607 25.4525C63.0011 25.4525 62.7096 25.7429 62.7096 26.1012C62.7096 26.4595 63.0011 26.75 63.3607 26.75Z" fill="white"/>
<path d="M67.7146 40.5389C69.0312 34.8901 63.3114 28.7401 54.939 26.8026C46.5665 24.8651 38.712 27.8737 37.3953 33.5226C36.0787 39.1714 41.7985 45.3214 50.1709 47.2589C58.5434 49.1964 66.3979 46.1878 67.7146 40.5389Z" fill="white"/>
<path d="M46.2607 29.0567C47.0486 27.1862 52.959 28.2003 53.5899 28.313C54.6224 28.4974 59.5059 29.3692 59.6603 31.1855C59.8041 32.877 55.849 35.4171 52.2059 34.8369C48.5739 34.2585 45.5966 30.6336 46.2607 29.0567Z" fill="black"/>
<path d="M83.6999 11.148C86.168 12.6911 87.4195 15.6176 86.8269 18.4595C86.2338 21.3038 83.9125 23.4923 81.0289 23.9256C81.4329 24.0604 83.5438 24.7198 85.7267 23.5971C87.6053 22.6311 88.3249 20.9688 88.5303 20.4736C89.7915 17.4325 88.1167 14.6187 87.9171 14.2955C86.5221 12.0382 84.2933 11.3191 83.6999 11.148Z" fill="#024731"/>
<path d="M49.0912 28.6912C49.0232 28.6926 49.0113 28.7873 49.0761 28.8077C49.6576 28.9905 50.4468 29.3288 51.2184 29.9714C51.788 30.4457 52.1789 30.9448 52.4378 31.3392C52.7324 31.0899 53.0971 30.8283 53.5387 30.5963C54.652 30.0115 55.7354 29.8876 56.4841 29.8857C56.5525 29.8855 56.5681 29.7908 56.503 29.7699C55.5551 29.4661 54.4495 29.1804 53.204 28.9786C51.6578 28.7281 50.2646 28.6666 49.0912 28.6912Z" fill="white"/>
<path d="M50.9888 87.1048C51.1503 87.2646 53.1931 89.3562 52.612 92.2301C52.1674 94.4298 50.3689 96.1809 48.0622 96.6445C48.1967 96.5741 49.241 96.0052 49.4419 94.8115C49.5594 94.1131 49.3288 93.5533 49.2189 93.3257C49.6301 92.9851 50.5163 92.1562 50.9887 90.7707C51.5734 89.0559 51.1501 87.5861 50.9888 87.1048Z" fill="white"/>
<path d="M3.91323 70.2392C4.30041 70.7583 5.73472 72.8083 5.51279 75.7133C5.31397 78.316 3.90767 80.0091 3.43941 80.5286C3.49112 80.394 4.04549 78.8809 3.16069 77.7167C2.84056 77.2955 2.44232 77.0651 2.16572 76.9416C2.57244 76.6871 3.64724 75.9387 4.20588 74.5091C5.02742 72.4066 4.06841 70.5307 3.91323 70.2392Z" fill="white"/>
</g>
<defs>
<clipPath id="clip0_15980_1686">
<rect width="100" height="100" fill="white"/>
</clipPath>
</defs>
</svg>
