<svg width="100" height="100" viewBox="0 0 100 100" fill="none" xmlns="http://www.w3.org/2000/svg">
<g clip-path="url(#clip0_15980_13796)">
<rect width="100" height="100" fill="#024731"/>
<path d="M66.8509 74.1396C66.8509 79.971 71.5955 84.7162 77.4262 84.7162C83.2569 84.7162 88.0015 79.971 88.0015 74.1396C88.0015 69.9107 85.4824 66.0914 81.5923 64.4176L80.524 63.9547L81.4676 63.278C89.8353 57.2864 94.4375 49.1848 94.4375 40.4688C94.4375 23.1883 75.9574 9.13071 53.2489 9.13071C30.5405 9.13071 12.0604 23.1883 12.0604 40.4688C12.0604 57.7493 30.5405 71.8071 53.2489 71.8071C57.7799 71.8071 62.2487 71.2462 66.5482 70.1244L67.6966 69.8305L67.3405 70.9612C67.02 71.985 66.8509 73.0624 66.8509 74.1396Z" fill="#6CF479"/>
<path d="M67.6343 99.6992C70.3678 99.6992 72.5837 97.4831 72.5837 94.7493C72.5837 92.0155 70.3678 89.7992 67.6343 89.7992C64.9008 89.7992 62.6849 92.0155 62.6849 94.7493C62.6849 97.4831 64.9008 99.6992 67.6343 99.6992Z" fill="#6CF479"/>
<path d="M26.0896 15.3683C33.4603 10.6498 42.9318 7.80974 53.249 7.80974C57.6732 7.80974 61.9371 8.33504 65.9518 9.29656C60.3259 7.15096 53.9968 5.93124 47.2848 5.93124C36.7362 5.93124 27.1045 8.92262 19.7516 13.8459L26.0896 15.3594V15.3683Z" fill="black"/>
<path d="M20.535 19.645C21.5052 18.7458 22.5468 17.8911 23.6329 17.081L17.366 15.5853C16.3245 16.4044 15.3364 17.2591 14.4106 18.1583L20.535 19.645Z" fill="black"/>
<path d="M65.5336 74.1346C65.5336 73.2977 65.6226 72.4697 65.7918 71.6596C63.9847 72.0869 62.1331 72.4074 60.2726 72.6478C60.7266 77.5622 64.3407 81.5507 69.0587 82.5745C66.8777 80.42 65.5336 77.4287 65.5336 74.1346Z" fill="black"/>
<path d="M10.743 40.4638C10.743 34.5256 12.826 28.9524 16.4579 24.1449L10.4848 22.6937C7.27125 27.2253 5.4375 32.4157 5.4375 37.9354C5.4375 49.6427 13.6628 59.8722 25.9294 65.4454C16.6538 59.4537 10.7519 50.4796 10.7519 40.4638H10.743Z" fill="black"/>
<path d="M61.3675 94.7471C61.3675 91.7913 63.4238 89.3163 66.1745 88.6574C65.2309 87.9452 64.0648 87.5178 62.8008 87.5178C59.703 87.5178 57.1926 90.0285 57.1926 93.1267C57.1926 96.2249 59.703 98.7356 62.8008 98.7356C61.9017 97.6494 61.3675 96.2606 61.3675 94.7471Z" fill="black"/>
<path d="M56.6586 13.7145C56.6586 13.7145 70.7501 13.127 81.0673 22.6085C91.3844 32.0901 89.07 46.3881 89.07 46.3881C89.07 46.3881 87.8504 23.3474 68.7116 22.6797C68.7116 22.6797 67.5277 15.9491 56.6497 13.7145H56.6586Z" fill="white"/>
<path d="M22.787 69.2252C22.787 69.2252 25.1371 77.0241 34.6798 79.1786C34.6798 79.1786 27.4515 80.425 27.3091 89.1053C27.3091 89.1053 24.7632 81.5824 15.6211 79.1698C15.6211 79.1698 23.2588 78.2616 22.787 69.2252Z" fill="white"/>
<path d="M81.9572 -0.29187C81.9572 -0.29187 83.5952 5.13001 90.227 6.62569C90.227 6.62569 85.1975 7.48927 85.0996 13.5254C85.0996 13.5254 83.3281 8.29942 76.9723 6.61678C76.9723 6.61678 82.2866 5.98466 81.9572 -0.300781V-0.29187Z" fill="white"/>
</g>
<defs>
<clipPath id="clip0_15980_13796">
<rect width="100" height="100" fill="white"/>
</clipPath>
</defs>
</svg>
