<svg width="100" height="100" viewBox="0 0 100 100" fill="none" xmlns="http://www.w3.org/2000/svg">
<rect width="100" height="100" fill="#024731"/>
<path d="M53.2105 80.2211C74.1872 80.2211 91.1922 63.2161 91.1922 42.2394C91.1922 21.2627 74.1872 4.25773 53.2105 4.25773C32.2338 4.25773 15.2288 21.2627 15.2288 42.2394C15.2288 63.2161 32.2338 80.2211 53.2105 80.2211Z" fill="#11B67A"/>
<path d="M58.2049 16.5754L60.856 16.1714C61.2206 16.1123 61.3881 15.6786 61.1417 15.3928L58.6977 12.5348C58.4217 12.2096 57.8896 12.387 57.86 12.8108L57.6531 16.0728C57.6334 16.3783 57.8994 16.6149 58.195 16.5754H58.2049Z" fill="#6CF479"/>
<path d="M59.737 18.0636L58.9092 18.6845C58.5051 18.99 58.2587 19.4729 58.2587 19.9854V21.8283C58.2587 22.0451 58.2193 22.2521 58.1306 22.4492L56.81 25.6127C56.7312 25.8098 56.6819 26.0266 56.6819 26.2335V30.0573C56.6819 30.3234 56.7509 30.5797 56.8691 30.8162L60.5057 37.6951C60.762 38.178 61.2448 38.4933 61.7868 38.5525L66.7834 39.0354C67.1481 39.0748 67.5225 38.9762 67.828 38.7791L71.3857 36.4435C71.7208 36.2267 72.115 36.138 72.5092 36.1971L73.889 36.3942C74.6577 36.5026 75.2293 37.1333 75.2786 37.902L75.4264 40.3658C75.4855 41.3907 75.7418 42.3861 76.1656 43.3125L78.3435 48.0035C78.4519 48.2302 78.5012 48.4766 78.4913 48.723L78.3435 55.8877C78.3435 56.0946 78.373 56.2917 78.442 56.479L79.1122 58.2923C79.5163 59.3862 80.9255 59.7213 81.7632 58.9033C83.0345 57.6419 84.6213 55.6019 85.3998 52.7439C86.6317 48.2401 85.725 42.6818 85.4589 41.2922C85.4195 41.0754 85.4293 40.8487 85.4786 40.6319L86.8977 34.6498C86.9371 34.4724 87.016 34.295 87.1146 34.1472L87.834 33.0336C88.307 32.2945 88.1197 31.3188 87.4003 30.8162L86.2079 29.9884C85.6166 29.5843 85.5476 28.7367 86.0502 28.2341C86.4148 27.8695 86.4937 27.3176 86.2473 26.8643C84.7395 24.1245 79.1122 14.7425 70.5382 10.6624C69.4837 10.1598 68.2419 10.8792 68.1927 12.052C68.1631 12.8108 67.6014 13.4514 66.8524 13.5795L65.6501 13.7865C64.9799 13.9048 64.4478 14.4369 64.3295 15.1071L64.1225 16.2996C63.9944 17.0486 63.3539 17.6103 62.595 17.6399L60.6338 17.7187C60.3086 17.7286 59.9932 17.8468 59.7271 18.0439L59.737 18.0636Z" fill="#6CF479"/>
<path d="M32.9678 49.9253L36.4763 48.6244C36.6536 48.5554 36.8507 48.5259 37.0379 48.5259H41.4826C41.8768 48.5259 42.2513 48.6638 42.5469 48.9201L46.6763 52.4975C46.7551 52.5665 46.834 52.6453 46.9029 52.734L49.554 56.1735C49.8103 56.4987 50.1748 56.7155 50.5789 56.7845L54.6984 57.4448C54.7772 57.4546 54.8462 57.4743 54.925 57.494L58.0984 58.4796C58.8375 58.7062 59.3106 59.4256 59.2317 60.1943L58.6109 66.4129C58.5911 66.6199 58.532 66.817 58.4433 66.9944L56.0977 71.5475C55.9795 71.7741 55.9204 72.0304 55.9204 72.2866V75.9429C55.9204 76.889 55.1123 77.6379 54.1662 77.5591L45.1487 76.8495C44.4588 76.7904 43.8774 76.3075 43.7 75.6275L41.7586 67.9799C41.5911 67.3098 41.0194 66.8269 40.3295 66.7677L35.0275 66.2947C34.6333 66.2553 34.2588 66.0779 33.9927 65.7921L29.755 61.2981C29.4298 60.9532 29.2721 60.4703 29.3214 59.9972L30.0507 53.8181C30.1295 53.1676 29.8042 52.5369 29.2326 52.2117L26.7787 50.8221C26.6407 50.7433 26.5127 50.6447 26.3945 50.5265L23.7335 47.7177L19.6831 43.3618C19.5648 43.2337 19.4169 43.1154 19.2592 43.0366L18.0372 42.3861C17.4755 42.0905 17.1404 41.4992 17.1798 40.8684C17.3474 38.1188 18.2048 30.4515 22.6001 23.9077C23.0436 23.2376 23.9011 22.9813 24.6304 23.3066L27.1532 24.4399C27.6657 24.6666 28.2571 24.6173 28.7203 24.3118L30.1492 23.3558C30.5631 23.0799 31.0756 23.0109 31.5487 23.1587L34.6235 24.1443C34.998 24.2625 35.3134 24.5089 35.5105 24.844L36.6733 26.746C37.0872 27.426 36.9493 28.313 36.3284 28.8353L34.86 30.0672C34.5643 30.3136 34.1996 30.4515 33.8153 30.4515H32.4061C31.5782 30.4515 30.8884 31.0724 30.7898 31.8904L30.4843 34.6794L29.6367 42.8493C29.5776 43.4308 29.213 43.9334 28.6808 44.1699L26.6901 45.0569C25.9115 45.4018 25.5271 46.2986 25.8228 47.0969L26.0889 47.8261C26.2762 48.3386 26.7098 48.723 27.242 48.8511L32.0316 49.9549C32.3371 50.0238 32.6622 50.0041 32.9579 49.8957L32.9678 49.9253Z" fill="#6CF479"/>
<path d="M51.7026 6.22904C51.7026 6.22904 75.9561 3.92294 88.1666 29.9504C88.1666 29.9504 79.8489 16.1433 66.5641 17.5624C66.5641 17.5624 63.5583 7.29339 51.6928 6.22904H51.7026Z" fill="white"/>
<path d="M21.051 29.9115C21.051 26.6396 21.4354 23.4564 22.1548 20.4013C17.7988 26.5805 15.2365 34.1098 15.2365 42.2403C15.2365 63.212 32.2366 80.222 53.2182 80.222C64.7093 80.222 75.0078 75.1072 81.9754 67.0358C76.2397 70.0022 69.7354 71.6874 62.827 71.6874C39.7561 71.6874 21.051 52.9824 21.051 29.9115Z" fill="black"/>
<path d="M89.9991 32.7894C84.0663 27.9111 67.8644 28.6896 49.9576 35.2039C33.4996 41.1958 21.2595 49.9767 18.2931 57.2202C18.5789 57.8805 18.8844 58.531 19.2097 59.1716C20.6584 52.3321 33.6376 42.7135 50.4603 36.5934C69.7862 29.5569 88.1858 29.3203 90.6397 36.0613H90.6693C90.4919 34.9476 90.2652 33.8537 89.9892 32.7894H89.9991Z" fill="#6CF479"/>
<path d="M53.2102 86.4493C28.8286 86.4493 9 66.6207 9 42.2391C9 22.7358 21.5062 5.76526 40.1127 0L41.1376 3.29162C23.9799 8.60353 12.4494 24.2535 12.4494 42.2293C12.4494 64.699 30.7306 82.9901 53.2102 82.9901C63.292 82.9901 72.9698 79.2846 80.4597 72.5437L82.7657 75.106C74.6451 82.4185 64.1494 86.4394 53.2102 86.4394V86.4493Z" fill="#6CF479"/>
<path d="M68.0917 98.1275C63.2824 95.851 57.9213 94.5403 52.2546 94.5403C46.5879 94.5403 41.2266 95.851 36.4173 98.1275V100H68.1016V98.1275H68.0917Z" fill="#6CF479"/>
<path d="M54.4602 86.4219L52.2697 86.4394L50.0489 86.3375V94.6067L52.2546 94.5403L54.4602 94.6067V86.4219Z" fill="#6CF479"/>
<path d="M90.7508 36.4246C90.6129 35.5475 90.4453 34.6802 90.2482 33.8327C84.0296 29.2796 68.1234 30.1666 50.5813 36.5428C34.1232 42.5348 21.8831 51.3157 18.9167 58.5592C19.2124 59.1801 19.5278 59.801 19.853 60.4021C21.4102 53.5725 34.34 44.0229 51.0839 37.9324C69.4243 31.2605 86.9172 30.6987 90.7508 36.4246Z" fill="#00482F"/>
</svg>
