<svg width="100" height="100" viewBox="0 0 100 100" fill="none" xmlns="http://www.w3.org/2000/svg">
<g clip-path="url(#clip0_15980_13838)">
<rect width="100" height="100" fill="#024731"/>
<path d="M31.7986 94.9901C31.7986 94.9901 35.9939 91.6772 38.9724 90.9722L41.7722 91.1506L46.6654 89.2308L49.1162 87.311C49.1162 87.311 50.3417 86.2662 51.3884 86.0878C52.4351 85.9094 58.0346 86.9627 58.0346 86.9627C58.0346 86.9627 61.1833 88.0076 62.7576 90.8023C62.7576 90.8023 65.0298 90.8023 65.7276 93.7669C65.7276 93.7669 67.8295 93.4186 69.9229 95.6867C69.9229 95.6867 70.4505 97.0798 66.953 97.4365C63.4554 97.7848 62.7576 99.0081 59.9578 99.1864C57.1581 99.3648 52.2648 97.615 52.2648 97.615L44.9208 97.0883C44.9208 97.0883 40.7254 97.7848 38.0958 97.0883C35.4748 96.3917 31.7986 94.9901 31.7986 94.9901Z" fill="black"/>
<path d="M43.0997 50.7552C41.2785 50.7552 40.6829 51.1375 40.4786 51.3923C40.4106 51.4858 40.385 51.6047 40.3765 51.7236L39.8319 93.2706C40.5978 93.2961 41.8827 93.4405 42.9039 94.0436C42.9039 94.0436 44.1294 92.591 45.4569 91.8775L45.8144 51.6217C45.8144 51.6217 45.8739 50.7552 43.0997 50.7552Z" fill="#6CF479"/>
<path d="M71.9825 64.5687C72.3143 64.2884 72.6122 63.9741 72.9185 63.6683C73.6419 62.9123 75.6928 61.1454 78.6968 61.4852C79.9477 61.6296 80.9179 62.1987 81.5902 62.7764C83.2837 59.8372 86.4664 57.8495 90.1086 57.8495C95.5379 57.8495 99.9375 62.2412 99.9375 67.6608V68.6037H59.1155C66.3234 68.6037 69.7784 66.463 71.9739 64.5687H71.9825Z" fill="white"/>
<path d="M28.8884 53.1689C28.8884 53.1689 24.1825 42.9414 8.68592 53.1519L28.8884 53.1689Z" fill="white"/>
<path d="M-0.0625 10.6444C-0.0625 10.6444 1.63947 8.26591 4.60943 7.35699C7.04327 6.60946 9.69844 7.37398 11.494 9.17483L11.5365 9.22579C11.5365 9.22579 12.0811 5.94688 14.9234 3.59388C16.2595 2.48959 17.97 1.86948 19.6975 1.98841C20.4719 2.03937 21.3059 2.24325 22.0123 2.71894C22.0123 2.71894 19.7912 -0.525982 15.8596 0.34896C14.4555 0.663259 13.2044 1.47873 12.2598 2.55754C11.6046 3.29657 10.9238 4.29894 10.6175 5.44571C10.6175 5.44571 4.12439 1.42777 -0.0539818 10.6444H-0.0625Z" fill="white"/>
<path d="M51.9162 55.8668C50.5802 62.1018 49.4398 72.5332 49.7802 89.8367C49.7972 90.5332 50.3589 91.0854 51.0567 91.0854H51.0822C51.7885 91.0684 52.3502 90.4907 52.3332 89.7857C52.0354 74.5464 52.9289 64.7861 54.0181 58.6446C53.4395 57.9565 52.631 56.9456 51.9246 55.8668H51.9162ZM80.3989 29.4827C80.3989 29.4827 77.0289 26.5775 73.3782 27.7668C73.3782 27.7668 66.0852 29.814 69.4125 37.1278C72.7399 44.4331 86.3814 49.4194 86.3814 49.4194C86.3814 49.4194 91.7085 41.7828 92.0404 32.4813C92.3723 23.1797 81.7264 24.5049 80.3904 29.4912L80.3989 29.4827ZM85.692 45.5459C85.692 45.5459 84.5688 38.351 81.3861 31.343C81.3861 31.343 81.7604 28.166 84.9431 27.4185C84.9431 27.4185 83.7262 29.2873 84.1943 31.5299C84.6623 33.7724 87.4706 38.2576 85.692 45.5459ZM88.1599 16.1207L86.8069 14.3199C84.3135 11.007 81.3349 8.07634 77.8884 5.77431C70.3316 0.728531 66.4 2.25755 64.7065 3.67615C63.5407 4.64453 63.2343 6.3944 64.1874 7.58365C65.481 9.20611 68.2041 9.81773 68.2041 9.81773C68.2041 9.81773 57.8902 7.8215 62.2132 14.4643C66.5362 21.107 88.1684 16.1292 88.1684 16.1292L88.1599 16.1207ZM72.3995 5.40904C72.3995 5.40904 73.4037 7.60063 73.191 9.35901C73.191 9.35901 75.5567 7.37128 79.7691 8.35666C79.7691 8.35666 77.3778 8.50107 76.9608 9.69031C76.9608 9.69031 80.1946 9.34203 84.1943 13.0542C84.1943 13.0542 77.6672 10.9475 70.3657 10.1065L69.0807 9.91966C69.0807 9.91966 72.1953 7.99988 72.4081 5.40904H72.3995ZM28.2245 21.4893V18.1424C28.2245 18.1424 15.6554 16.1887 13.4258 33.4751C13.4258 33.4751 30.7435 31.5214 38.5641 23.1627C46.3847 14.804 31.0243 18.1424 28.2331 21.4893H28.2245ZM24.1909 29.007C18.3871 30.0348 18.0127 30.0348 16.2341 31.0627C16.2341 31.0627 18.4807 28.2595 21.5698 26.7644C24.6589 25.2694 26.9992 23.7743 27.8416 22.3727C27.8416 22.3727 28.3097 23.6809 27.1864 24.8022C26.0631 25.9234 27.28 27.7923 32.2413 25.2694C32.2413 25.2694 29.9946 27.9791 24.1909 29.007ZM58.5114 42.4879C59.0731 40.2453 59.507 37.7479 59.6602 35.0296C59.7623 33.2203 59.6347 31.8527 59.3368 30.8418C60.6218 26.7134 62.3238 22.4067 63.6513 19.2722C63.1237 18.5247 62.5195 17.5733 62.0429 16.5369C60.8005 19.3741 58.9369 23.8593 57.4306 28.4124C56.3073 27.9536 54.9457 28.251 53.7969 28.7182C52.7246 20.1301 50.7929 13.2495 49.9589 10.5143C51.1248 8.48407 53.2437 3.03056 42.351 3.23443C28.9819 3.48926 23.2548 10.4888 23.2548 10.4888C23.2548 10.4888 36.743 8.02537 47.3208 10.6417C47.9846 12.7484 50.2653 20.4784 51.3716 30.0433C51.3716 30.0433 47.8909 29.8055 45.6614 31.8187C43.9338 29.2108 42.4362 27.2911 41.1767 25.8725C41.1767 26.7984 41.0661 27.9961 40.7342 29.3213C41.7298 30.5955 42.8786 32.1924 44.1636 34.1887C43.9679 34.8258 43.8487 35.5563 43.8487 36.3973C43.8487 43.2864 53.4055 54.3123 53.4055 54.3123C53.4055 54.3123 53.5075 54.1679 53.6862 53.9046L57.2774 48.604C60.2729 43.7281 63.9918 40.0075 67.2341 37.3571C67.1915 36.4567 67.234 35.2335 67.5063 33.8829C64.7832 35.9046 61.5409 38.7503 58.5114 42.4794V42.4879ZM53.3969 49.8187C53.3969 49.8187 53.8905 47.797 53.048 42.7512C52.2055 37.7054 51.1077 36.7625 51.3375 31.8781C51.3375 31.8781 52.3672 36.5502 54.4266 36.3633C54.4266 36.3633 55.4733 36.3548 56.5796 35.4289C56.5796 35.4289 57.703 39.914 53.3969 49.8187Z" fill="#11B67A"/>
<path d="M54.2394 67.1307V65.2788C54.2394 64.6757 53.7968 64.183 53.2352 64.0811C53.1075 65.1684 52.9969 66.3322 52.8948 67.5724C52.8778 67.8102 52.7331 68.0311 52.5289 68.1415C48.0016 70.5964 43.5765 71.4034 41.1426 71.6667C40.0534 71.7262 40.1299 71.1231 40.1299 71.1231L40.1555 69.2628C40.0789 69.3138 40.0108 69.3647 39.9427 69.4072C39.4832 69.7215 39.2194 70.2482 39.2194 70.8003V75.3109C39.2194 75.9565 39.7726 76.3982 40.4193 76.3897C45.9593 76.2878 51.9672 73.3912 53.5756 72.1424C54.0011 71.8112 54.2479 71.327 54.2479 70.7239V67.1221L54.2394 67.1307ZM50.6057 64.4633C48.8611 64.8711 47.1932 65.4912 45.6869 66.1623L45.6444 70.4775C47.3464 69.7725 48.8952 69.2968 50.1887 68.991C50.3078 67.2836 50.4525 65.9159 50.6057 64.4549V64.4633Z" fill="black"/>
</g>
<defs>
<clipPath id="clip0_15980_13838">
<rect width="100" height="100" fill="white"/>
</clipPath>
</defs>
</svg>
