<svg width="100" height="100" viewBox="0 0 100 100" fill="none" xmlns="http://www.w3.org/2000/svg">
<rect width="100" height="100" fill="#024731"/>
<path fill-rule="evenodd" clip-rule="evenodd" d="M3.92154 27.4543C5.92322 25.3096 8.35384 23.7101 11.8032 23.0131L40.1574 17.3029C53.0343 14.7114 62.8372 21.4939 74.052 27.4632C70.9244 30.4747 67.6359 32.1189 63.8827 33.924C56.7606 28.759 49.6833 23.3973 38.388 25.9709L12.2232 31.9491C8.92575 32.6998 6.7096 34.0849 5.01174 36.0508C3.33176 33.9687 2.91176 31.0913 3.92154 27.4454V27.4543Z" fill="black"/>
<path fill-rule="evenodd" clip-rule="evenodd" d="M38.1482 51.7423C26.3705 54.8074 25.2177 95.5559 41.6423 91.1683C58.3974 86.6913 74.0981 80.302 90.3261 73.7608C100.692 69.5787 104.454 35.5143 92.8818 38.3292C74.6343 42.7794 56.3421 47.0061 38.1572 51.7423H38.1482Z" fill="black"/>
<path fill-rule="evenodd" clip-rule="evenodd" d="M41.355 55.308C37.0121 56.4876 34.3581 63.4488 33.7862 70.8747C34.8585 65.0483 37.9504 59.8118 41.5248 58.8914L93.6133 45.4604C95.0252 45.094 96.3567 45.6928 97.2771 46.4255C96.312 43.557 94.5337 41.9039 91.7993 42.6009C75.6875 46.6936 57.4132 50.9651 41.355 55.3169V55.308Z" fill="white"/>
<path fill-rule="evenodd" clip-rule="evenodd" d="M91.6574 35.8187L78.2265 29.3668C77.3239 28.9289 76.4392 28.7502 75.5724 29.1523C61.6947 41.4931 39.14 41.1088 23.4035 39.9829C9.22195 38.9642 8.34621 61.9478 16.4423 70.7588L28.6133 84.0021C23.484 73.6988 27.1835 51.3943 35.7264 49.1692C53.9203 44.4331 71.4797 40.385 89.7272 35.9438C90.4332 35.774 91.0766 35.7382 91.6574 35.8365V35.8187Z" fill="#6CF479"/>
<path fill-rule="evenodd" clip-rule="evenodd" d="M12.3668 44.0395C7.10349 40.751 0.472908 37.5072 2.26906 29.5898C1.08056 31.1805 0.60695 32.9945 0.40142 35.2643C0.213762 37.2928 0.0171679 41.4927 0.0797205 43.414C0.258442 48.7756 2.52821 51.0722 10.1418 60.2585C9.09624 54.6109 9.78432 48.311 12.3668 44.0395Z" fill="#11B67A"/>
<path fill-rule="evenodd" clip-rule="evenodd" d="M31.6074 52.109L13.8603 44.8975C13.8603 44.8975 12.5556 47.0958 11.9748 49.5622C10.3037 56.6485 12.1088 62.0459 12.1088 62.0459C12.1088 62.0459 9.99991 49.1511 17.2828 52.386C28.3993 57.3277 28.7121 57.4349 28.7121 57.4349C28.998 56.7736 29.9453 54.629 30.401 53.8605C30.8121 53.1813 31.2231 52.5915 31.6074 52.0911V52.109Z" fill="white"/>
<path d="M78.0115 63.4488C73.0877 63.6901 69.3345 61.0004 68.6018 56.7021C67.5384 61.3935 63.535 65.7454 58.5487 67.622C63.4724 67.3807 67.2256 70.0705 67.9584 74.3687C69.0218 69.6773 73.0251 65.3254 78.0115 63.4488Z" fill="white"/>
<path d="M5.70123 74.0821C6.10335 77.1829 8.20333 79.2293 10.9735 79.2114C8.15865 80.3999 5.88889 83.3935 5.27229 86.7177C4.87017 83.6169 2.77019 81.5706 0 81.5884C2.81487 80.3999 5.08464 77.4063 5.70123 74.0821Z" fill="white"/>
<path d="M85.3567 8C85.875 12.0034 88.5827 14.6395 92.1571 14.6127C88.529 16.1497 85.6069 20.0012 84.8116 24.2994C84.2933 20.2961 81.5857 17.6599 78.0113 17.6867C81.6393 16.1497 84.5614 12.2983 85.3567 8Z" fill="white"/>
</svg>
