<svg xmlns="http://www.w3.org/2000/svg" width="64" height="64" fill="none" viewBox="0 0 64 64">
  <g clip-path="url(#a)">
    <path fill="#C7FFC6" fill-rule="evenodd" d="M12.206 10.083 10.435 8.31A31.91 31.91 0 0 1 30.499 0l-.002 2.505a29.416 29.416 0 0 0-18.291 7.577Zm-9.7 20.415L0 30.499a31.91 31.91 0 0 1 8.31-20.064l1.773 1.771a29.415 29.415 0 0 0-7.577 18.291Zm5.805 23.067A31.91 31.91 0 0 1 0 33.501l2.505.002a29.415 29.415 0 0 0 7.577 18.291L8.31 53.565ZM33.502 2.506V0a31.91 31.91 0 0 1 20.064 8.31l-1.771 1.773a29.415 29.415 0 0 0-18.291-7.577ZM64 30.5l-2.506-.002a29.415 29.415 0 0 0-7.577-18.291l1.773-1.771A31.91 31.91 0 0 1 64 30.499ZM30.5 64a31.91 31.91 0 0 1-20.065-8.31l1.771-1.772a29.416 29.416 0 0 0 18.291 7.577L30.5 64Zm25.19-10.434-1.773-1.771a29.415 29.415 0 0 0 7.577-18.291L64 33.5a31.91 31.91 0 0 1-8.31 20.064Z" clip-rule="evenodd"/>
    <path fill="#0BE248" fill-rule="evenodd" d="M53.565 55.69A31.91 31.91 0 0 1 33.501 64v-2.506a29.416 29.416 0 0 0 18.293-7.577l1.771 1.773Z" clip-rule="evenodd"/>
    <path fill="#0BE248" d="M32 23c2.979 0 5.4 2.421 5.4 5.4v2.15a25.07 25.07 0 0 1 1.809.532c.54.18.891.702.892 1.269v7.3c0 .746-.604 1.349-1.351 1.349h-13.5c-.747 0-1.35-.603-1.35-1.35v-7.3c0-.566.351-1.088.891-1.268a24.582 24.582 0 0 1 1.81-.531V28.4A5.402 5.402 0 0 1 32 23Zm0 8.046a21.17 21.17 0 0 0-6.831 1.144c-.054.018-.099.089-.099.16v7.3c0 .1.081.18.18.18h13.5a.18.18 0 0 0 .18-.18v-7.3c0-.071-.045-.143-.099-.16A21.17 21.17 0 0 0 32 31.046Zm0 2.079c.324 0 .585.261.585.585v3.69h-1.17v-3.69c0-.324.261-.585.585-.585Zm0-8.955c-2.33 0-4.23 1.9-4.23 4.23v1.9a21.819 21.819 0 0 1 4.23-.423c1.449 0 2.862.153 4.23.423v-1.9c0-2.33-1.899-4.23-4.23-4.23Z"/>
  </g>
  <defs>
    <clipPath id="a">
      <path fill="#fff" d="M0 0h64v64H0z"/>
    </clipPath>
  </defs>
</svg>
