<svg width="24" height="24" viewBox="0 0 24 24" fill="none" xmlns="http://www.w3.org/2000/svg">
<path d="M23.9766 12.0059C23.9766 6.51311 19.5145 2.05099 14.0217 2.05099C8.52897 2.05099 4.06685 6.51311 4.06685 12.0059C4.06685 12.0293 4.06685 12.0527 4.06685 12.0761L1.9939 10.0031C1.53715 9.54639 0.799317 9.54639 0.342564 10.0031C-0.114188 10.4599 -0.114188 11.1978 0.342564 11.6545L5.27315 16.5851L10.2037 11.6545C10.6605 11.1978 10.6605 10.4599 10.2037 10.0031C9.74698 9.54639 9.00915 9.54639 8.5524 10.0031L6.4326 12.1229C6.4326 12.1229 6.4326 12.041 6.4326 11.9941C6.4326 7.80138 9.85238 4.38159 14.0451 4.38159C18.2379 4.38159 21.6577 7.80138 21.6577 11.9941C21.6577 16.1869 18.2379 19.6067 14.0451 19.6067H13.1082V21.949H14.2794C19.6667 21.8085 24 17.4166 24 11.9941L23.9766 12.0059Z" fill="black"/>
</svg>
