<svg width="24" height="24" viewBox="0 0 24 24" fill="none" xmlns="http://www.w3.org/2000/svg">
<path d="M11.0271 5.6V18.4L2.49714 12L11.0271 5.6ZM22.0271 5.6V18.4L13.4971 12L22.0271 5.6ZM22.3271 4C22.1271 4 21.9171 4.06 21.7271 4.2L12.3271 11.25V5C12.3271 4.41 11.8371 4 11.3271 4C11.1271 4 10.9171 4.06 10.7271 4.2L1.39715 11.2C0.867149 11.6 0.867149 12.4 1.39715 12.8L10.7271 19.8C10.9171 19.94 11.1171 20 11.3271 20C11.8471 20 12.3271 19.59 12.3271 19V12.75L21.7271 19.8C21.9171 19.94 22.1171 20 22.3271 20C22.8471 20 23.3271 19.59 23.3271 19V5C23.3271 4.41 22.8371 4 22.3271 4Z" fill="black"/>
</svg>
