<svg width="100" height="100" viewBox="0 0 100 100" fill="none" xmlns="http://www.w3.org/2000/svg">
<rect width="100" height="100" fill="#1E1E1E"/>
<g id="Default">
<path d="M-105 -335.001C-105 -336.105 -104.105 -337 -103 -337H1103C1104.1 -337 1105 -336.105 1105 -335V32871C1105 32872.1 1104.1 32873 1103 32873H-103C-104.105 32873 -105 32872.1 -105 32871V-335.001Z" fill="white"/>
<path d="M-103 -337V-336H1103V-337V-338H-103V-337ZM1105 -335H1104V32871H1105H1106V-335H1105ZM1103 32873V32872H-103V32873V32874H1103V32873ZM-105 32871H-104V-335.001H-105H-106V32871H-105ZM-103 32873V32872C-103.552 32872 -104 32871.6 -104 32871H-105H-106C-106 32872.7 -104.657 32874 -103 32874V32873ZM1105 32871H1104C1104 32871.6 1103.55 32872 1103 32872V32873V32874C1104.66 32874 1106 32872.7 1106 32871H1105ZM1103 -337V-336C1103.55 -336 1104 -335.552 1104 -335H1105H1106C1106 -336.657 1104.66 -338 1103 -338V-337ZM-103 -337V-338C-104.656 -338 -106 -336.658 -106 -335.001H-105H-104C-104 -335.553 -103.553 -336 -103 -336V-337Z" fill="white" fill-opacity="0.1"/>
<g id="Ai">
<rect x="-24.5" y="-24.5" width="1049" height="149" rx="4.5" stroke="#9747FF" stroke-dasharray="10 5"/>
<g id="Brand=Lloyds - V2" clip-path="url(#clip0_4483_4)">
<rect width="100" height="100" fill="#C7FFC6"/>
<g id="Path">
<path d="M79.0946 85.7977C79.0946 79.5882 74.0648 74.5551 67.8594 74.5551C74.0648 74.5551 79.0946 69.522 79.0946 63.3125C79.0946 69.522 84.1243 74.5551 90.3298 74.5551C84.1243 74.5551 79.0946 79.5882 79.0946 85.7977Z" fill="#11B57A"/>
<path d="M86.5444 74.5639C82.8349 74.5639 82.1666 74.7609 80.7236 73.4886C80.2649 73.0838 78.8201 71.2892 79.1235 66.3339C79.4107 71.3651 85.6468 74.5711 86.5444 74.5657V74.5639Z" fill="white"/>
<path d="M80.1703 76.1582C79.3467 77.0925 79.139 77.7033 79.0957 79.0226C79.0505 77.7033 78.8428 77.0925 78.0211 76.1582C77.6166 75.6991 75.8232 74.2534 70.8711 74.557C75.899 74.8443 79.1029 81.0846 79.0975 81.9828C79.0975 81.9792 79.0975 81.9737 79.0975 81.9701V81.9828C79.0921 81.0864 82.2941 74.8461 87.3239 74.557C82.3718 74.2534 80.5784 75.6991 80.1739 76.1582H80.1703Z" fill="black"/>
<path d="M18.8827 37.7903C18.8827 27.3561 10.4274 18.8952 0 18.8952C10.4274 18.8952 18.8827 10.4342 18.8827 0C18.8827 10.4342 27.3381 18.8952 37.7654 18.8952C27.3381 18.8952 18.8827 27.3561 18.8827 37.7903Z" fill="#11B57A"/>
<path d="M31.405 18.9109C25.1708 18.9109 24.047 19.2398 21.6244 17.102C20.8557 16.423 18.4278 13.4046 18.9367 5.07635C19.4191 13.532 29.8995 18.9215 31.405 18.9109Z" fill="white"/>
<path d="M20.6917 21.5891C19.3081 23.1592 18.9582 24.183 18.884 26.4057C18.8098 24.1883 18.4599 23.1592 17.0763 21.5891C16.3978 20.8199 13.3814 18.3904 5.05859 18.8996C13.5086 19.3823 18.8946 29.8696 18.884 31.3761C18.884 31.3708 18.884 31.3602 18.884 31.3549V31.3761C18.8734 29.8696 24.2541 19.3823 32.7094 18.8996C24.3866 18.3904 21.3702 20.8199 20.6917 21.5891Z" fill="black"/>
<path d="M50.0335 100C50.0335 72.3841 27.6641 50 0.0664062 50C27.6641 50 50.0335 27.6159 50.0335 0C50.0335 27.6159 72.4029 50 100.001 50C72.4029 50 50.0335 72.3841 50.0335 100Z" fill="#11B57A"/>
<path d="M83.1675 50.0317C66.6654 50.0317 63.698 50.9047 57.2839 45.2487C55.2442 43.4474 48.8178 35.4676 50.1695 13.4277C51.4474 35.8057 79.1864 50.0624 83.1675 50.0378V50.0317Z" fill="white"/>
<path d="M54.8128 57.1188C51.1511 61.2747 50.2296 63.9859 50.033 69.857C49.8364 63.9859 48.9087 61.2747 45.2532 57.1188C43.453 55.0777 35.4785 48.6471 13.4531 49.9997C35.8164 51.2784 50.0637 79.0357 50.0391 83.0195C50.0391 83.001 50.0391 82.9826 50.0391 82.9641V83.0195C50.0146 79.0295 64.2558 51.2784 86.6251 49.9997C64.5998 48.6533 56.6191 55.0777 54.8251 57.1188H54.8128Z" fill="black"/>
</g>
</g>
</g>
</g>
<defs>
<clipPath id="clip0_4483_4">
<rect width="100" height="100" fill="white"/>
</clipPath>
</defs>
</svg>
