<svg width="100" height="100" viewBox="0 0 100 100" fill="none" xmlns="http://www.w3.org/2000/svg">
<rect width="100" height="100" fill="#1E1E1E"/>
<g id="Default">
<path d="M-105 -971.001C-105 -972.105 -104.105 -973 -103 -973H1103C1104.1 -973 1105 -972.105 1105 -971V32235C1105 32236.1 1104.1 32237 1103 32237H-103C-104.105 32237 -105 32236.1 -105 32235V-971.001Z" fill="white"/>
<path d="M-103 -973V-972H1103V-973V-974H-103V-973ZM1105 -971H1104V32235H1105H1106V-971H1105ZM1103 32237V32236H-103V32237V32238H1103V32237ZM-105 32235H-104V-971.001H-105H-106V32235H-105ZM-103 32237V32236C-103.552 32236 -104 32235.6 -104 32235H-105H-106C-106 32236.7 -104.657 32238 -103 32238V32237ZM1105 32235H1104C1104 32235.6 1103.55 32236 1103 32236V32237V32238C1104.66 32238 1106 32236.7 1106 32235H1105ZM1103 -973V-972C1103.55 -972 1104 -971.552 1104 -971H1105H1106C1106 -972.657 1104.66 -974 1103 -974V-973ZM-103 -973V-974C-104.656 -974 -106 -972.658 -106 -971.001H-105H-104C-104 -971.553 -103.553 -972 -103 -972V-973Z" fill="white" fill-opacity="0.1"/>
<g id="_Bicycle">
<rect x="-24.5" y="-24.5" width="1049" height="149" rx="4.5" stroke="#9747FF" stroke-dasharray="10 5"/>
<g id="Brand=Lloyds - V2" clip-path="url(#clip0_4483_4)">
<rect width="100" height="100" fill="#C7FFC6"/>
<g id="Path">
<path d="M31.0801 47.3078C29.8778 46.3139 28.587 45.5487 27.2432 44.9946L26.1646 45.1969C24.2108 45.5663 22.3719 44.1327 22.2746 42.1537L22.2569 41.7667H22.2392L21.5939 28.6441C21.4789 26.8498 20.3119 26.4189 20.0025 26.3309C19.976 26.3309 19.9494 26.3221 19.9229 26.3133L0.702839 20.57C0.31384 20.482 0.004411 20.2621 -0.0132708 19.9983H-0.0398194L0.579054 35.0559C0.693985 37.2195 2.12623 39.1017 4.195 39.7878L18.1017 44.4229C8.05845 47.0703 0.0574714 59.8324 0.0574714 73.5531C0.0574714 81.8823 2.91307 89.0153 7.89934 93.1227C10.6135 95.3568 13.7255 96.5001 17.0231 96.5001C17.9426 96.5001 18.8797 96.4122 19.8257 96.2363C30.364 94.2397 38.9308 81.0643 38.9308 66.8599C38.9308 58.5307 36.0752 51.3977 31.089 47.2902L31.0801 47.3078ZM19.1538 92.7973C15.8915 93.413 12.7706 92.595 10.1449 90.4314C6.03389 87.0452 3.58498 80.7477 3.58498 73.5707C3.58498 60.9757 10.8699 49.3483 19.8168 47.6508C20.5241 47.5189 21.2225 47.4485 21.921 47.4485C24.4141 47.4485 26.7746 48.3193 28.8346 50.0168C32.9456 53.403 35.3945 59.7004 35.3945 66.8774C35.3945 79.4723 28.1096 91.0998 19.1626 92.7973H19.1538Z" fill="black"/>
<path d="M42.3523 44.2108C45.8091 48.7316 49.8936 53.3931 55.4191 53.3931C55.6048 53.3931 55.7993 53.3931 55.9938 53.3755L54.8798 57.5093L58.7345 56.7793L65.0026 33.454C65.0026 33.454 62.1647 32.8032 60.1313 37.9572L56.9839 49.6814C53.2708 50.5434 50.0262 48.4501 45.1637 42.0822C40.7079 36.2597 33.9358 25.2392 33.865 25.1337C33.3523 24.3069 32.2648 24.043 31.4338 24.5531C30.6028 25.0633 30.3375 26.1451 30.8503 26.9718C31.1332 27.4292 37.7904 38.2475 42.3523 44.2195V44.2108Z" fill="#11B67A"/>
<path d="M50.6185 59.3309C43.1038 50.6059 32.7952 35.1261 32.6715 34.9414C32.1322 34.1322 31.0359 33.9123 30.2226 34.44C29.4092 34.9765 29.1882 36.0672 29.7186 36.8764C30.2226 37.6415 41.0173 53.8337 48.7266 62.5235C49.1509 61.2658 49.8051 60.1576 50.6097 59.3221L50.6185 59.3309Z" fill="#11B67A"/>
<path d="M78.3612 84.4864C75.1077 84.4864 72.04 83.3606 69.37 81.1618C64.4545 77.1159 61.6431 70.0884 61.6431 61.8824C61.6431 47.889 70.0861 34.9071 80.4742 32.9369C84.7443 32.1278 88.8112 33.1832 92.2238 35.9977C97.1393 40.0436 99.9507 47.071 99.9507 55.2771C99.9507 69.2705 91.5076 82.2524 81.1196 84.2226C80.1913 84.3985 79.263 84.4864 78.3612 84.4864ZM83.1883 36.1472C82.5076 36.1472 81.818 36.2088 81.1196 36.3495C72.2964 38.0206 65.1264 49.481 65.1264 61.8912C65.1264 68.9626 67.54 75.1722 71.5891 78.4968C74.1795 80.6341 77.2472 81.4344 80.4653 80.8275C89.2885 79.1564 96.4585 67.6961 96.4585 55.2859C96.4585 48.2144 94.045 42.0049 89.9958 38.6803C87.9624 37.0092 85.6461 36.156 83.1883 36.156V36.1472Z" fill="black"/>
<path d="M62.8277 14.2547C62.6509 13.208 61.6165 12.5747 60.6263 12.8386L51.529 15.2837C50.6184 15.4332 42.3699 16.6206 32.5565 13.7269C28.5073 12.5307 26.4916 11.2202 25.4838 10.2527C24.9975 9.78659 25.2186 8.97744 25.864 8.79274L32.1587 6.9721C33.0516 6.71703 33.6704 5.8463 33.5025 4.94037C33.308 3.90252 32.2648 3.28685 31.2657 3.5683L23.636 5.76714C22.1861 6.18932 21.1164 7.48222 21.0722 9.10936C21.0545 9.68106 21.2136 10.2528 21.4789 10.7629C22.7696 13.2959 25.97 15.3717 30.9917 16.9284C31.7962 17.1835 32.2825 18.0014 32.1056 18.8282L25.5811 48.8907C25.5634 49.0226 23.3178 62.1365 19.6399 68.2317C19.2156 68.9265 19.304 69.85 19.8964 70.4129C20.2588 70.7559 20.7009 70.923 21.1429 70.923C21.7441 70.923 22.3276 70.6152 22.6547 70.0699C26.695 63.4118 28.9759 50.0341 29.0555 49.5503L35.5624 19.8221C35.7657 18.9074 36.6498 18.3093 37.5693 18.4588C40.7785 18.9865 43.6695 19.1536 46.0212 19.1536C49.3719 19.1536 51.6175 18.8282 52.086 18.7491C52.2098 18.7315 52.3159 18.7051 52.4308 18.6787L61.4397 16.26C62.3326 16.0225 62.978 15.1606 62.8277 14.2459V14.2547Z" fill="#11B67A"/>
<path d="M50.6714 66.7445C50.6714 62.9449 52.9081 59.4356 55.6753 58.9166L81.1813 54.0792C81.5614 54.0088 81.9151 54.044 82.251 54.1408V54.1056L79.8551 53.3492C79.1125 53.1117 78.3257 53.0677 77.5654 53.2085L53.2264 57.826C50.4592 58.3537 48.2225 61.8543 48.2225 65.6538C48.2225 68.5035 49.4691 70.6672 51.2284 71.3972L53.7038 72.5142H53.7215C51.9445 71.8018 50.6714 69.6206 50.6714 66.7445Z" fill="black"/>
<path d="M75.9125 23.1903C75.1168 22.7769 74.2062 22.3459 73.1453 21.871C70.3162 20.6045 67.9556 20.0767 66.214 19.8744C64.5342 19.6809 62.8279 19.8833 61.2189 20.411L58.5578 21.2729C57.5499 21.5983 57.1786 22.8033 57.7975 23.6652C57.8947 23.8059 57.9831 23.9467 58.0538 24.0962C58.3368 24.7207 58.0096 25.4595 57.3642 25.6794C56.4801 25.9784 55.3751 26.1807 54.5705 26.5765C52.9615 27.3769 53.2797 28.9512 53.2797 28.9512C53.2797 29.9363 55.1629 30.8774 57.4704 30.7367C60.6266 30.5432 63.5706 27.9486 70.7229 29.4614C72.1374 29.7604 73.5961 29.7252 75.0018 29.3822L75.1698 29.3382C78.1492 28.6082 78.6443 24.5887 75.9213 23.1815L75.9125 23.1903Z" fill="#6CF479"/>
<path d="M10.9582 57.7564C10.9582 57.7564 4.248 67.5544 6.94447 81.1256C6.94447 81.1256 7.09477 73.1395 11.029 75.3207C14.9632 77.502 18.1017 81.196 23.5034 77.2117C23.5034 77.2117 14.3266 78.7333 14.2382 67.2729C14.1675 57.8355 10.9582 57.7652 10.9582 57.7652V57.7564Z" fill="#006A4D"/>
<path d="M81.1284 66.3214C81.1284 66.3214 85.0715 65.6705 86.6717 61.2377C86.6717 61.2377 88.0597 63.4893 86.7424 66.682C86.7424 66.682 91.4104 65.8816 93.8947 58.2649C93.8947 58.2649 94.1423 69.1359 84.267 77.1309C84.267 77.1309 87.3348 69.2414 81.1284 66.3214Z" fill="#006A4D"/>
<path d="M41.7599 22.681L21.8237 16.19C20.9749 15.9173 20.0731 15.8558 19.1979 16.0229L0.455191 19.5235C0.455191 19.5235 0.0750437 19.5674 -0.031047 19.884C-0.137138 20.2095 0.234178 20.4821 0.685063 20.5877L19.9051 26.331C19.9051 26.331 19.9582 26.3399 19.9847 26.3487C20.2942 26.4278 21.4788 26.8588 21.5849 28.6882L22.2746 42.1627C22.3806 44.1416 24.2107 45.5752 26.1645 45.2058L35.9956 43.3412C38.2235 42.919 39.9386 41.1248 40.2569 38.8908L42.2461 23.1471C42.2903 22.8217 41.7599 22.6898 41.7599 22.6898V22.681Z" fill="#6CF479"/>
<path d="M81.1813 54.0801L55.6753 58.9176C52.9081 59.4453 50.6714 62.9459 50.6714 66.7455C50.6714 70.1405 52.4395 72.5592 54.7205 72.7351L54.6763 66.1298L56.3031 65.5757L57.8502 71.9347L81.6145 63.1218C83.2678 62.5061 84.5055 60.3336 84.5055 58.0292C84.5055 55.4962 83.0114 53.7283 81.1725 54.0801H81.1813Z" fill="#6CF479"/>
<path d="M57.8944 64.6442C57.7706 63.8526 57.2667 63.281 56.586 63.281C55.7019 63.281 54.8708 64.2045 54.7117 65.3654C54.6409 65.8756 54.7294 66.3417 54.915 66.7111L59.141 75.6296L60.5555 74.9964L57.8944 64.6354V64.6442Z" fill="white"/>
<path d="M62.3063 74.1321C62.1206 74.0617 61.9085 74.0617 61.7228 74.1321L57.7709 75.5041C57.267 75.6712 56.9045 76.2078 56.9045 76.8587C56.9045 77.5095 57.2404 77.9932 57.7001 78.1867L63.2876 80.0777C63.5617 80.1745 63.8623 80.1657 64.1363 80.0601L67.4605 78.7584C67.7965 78.6265 68.0175 78.3011 68.0175 77.9405V76.7795C68.0175 76.4101 67.7788 76.0758 67.4251 75.9527L62.3151 74.1497L62.3063 74.1321Z" fill="#11B67A"/>
<path d="M63.5968 80.132C63.4731 80.1144 63.3758 80.044 63.3051 79.9649C63.1194 79.745 63.1106 79.4636 63.1459 79.2525C63.1813 79.0414 63.0664 78.8127 62.8542 78.7423L57.7618 77.0448C57.5054 76.9569 57.3287 76.8778 57.196 76.5347C57.0811 76.2269 57.2225 75.9014 57.2579 75.8487C57.028 76.1037 56.8954 76.4556 56.8954 76.8602C56.8954 77.4758 57.2314 77.9947 57.6911 78.1882L63.2785 80.0792C63.3846 80.1144 63.4907 80.132 63.588 80.1408L63.5968 80.132Z" fill="black"/>
<path d="M2.64785 20.1728L20.5153 16.8306L38.2766 22.6706L21.4612 25.793L2.64785 20.1728Z" fill="#006A4D"/>
</g>
</g>
</g>
</g>
<defs>
<clipPath id="clip0_4483_4">
<rect width="100" height="100" fill="white"/>
</clipPath>
</defs>
</svg>
