<svg width="100" height="100" viewBox="0 0 100 100" fill="none" xmlns="http://www.w3.org/2000/svg">
<rect width="100" height="100" fill="#1E1E1E"/>
<g id="Default">
<path d="M-105 -1395C-105 -1396.11 -104.105 -1397 -103 -1397H1103C1104.1 -1397 1105 -1396.1 1105 -1395V31811C1105 31812.1 1104.1 31813 1103 31813H-103C-104.105 31813 -105 31812.1 -105 31811V-1395Z" fill="white"/>
<path d="M-103 -1397V-1396H1103V-1397V-1398H-103V-1397ZM1105 -1395H1104V31811H1105H1106V-1395H1105ZM1103 31813V31812H-103V31813V31814H1103V31813ZM-105 31811H-104V-1395H-105H-106V31811H-105ZM-103 31813V31812C-103.552 31812 -104 31811.6 -104 31811H-105H-106C-106 31812.7 -104.657 31814 -103 31814V31813ZM1105 31811H1104C1104 31811.6 1103.55 31812 1103 31812V31813V31814C1104.66 31814 1106 31812.7 1106 31811H1105ZM1103 -1397V-1396C1103.55 -1396 1104 -1395.55 1104 -1395H1105H1106C1106 -1396.66 1104.66 -1398 1103 -1398V-1397ZM-103 -1397V-1398C-104.656 -1398 -106 -1396.66 -106 -1395H-105H-104C-104 -1395.55 -103.553 -1396 -103 -1396V-1397Z" fill="white" fill-opacity="0.1"/>
<g id="Broken Phone">
<rect x="-24.5" y="-24.5" width="1049" height="149" rx="4.5" stroke="#9747FF" stroke-dasharray="10 5"/>
<g id="Brand=Lloyds - V2">
<rect width="100" height="100" fill="#C7FFC6"/>
<g id="Vector">
<path d="M98.1318 27.067L85.2833 27.3773L61.5454 13.6229C60.0054 12.7284 57.7364 13.057 56.5153 14.344L20.0291 52.7504L0 66.1123V73.1309C0.0455622 73.925 0.510306 74.6826 1.34865 75.1663L36.5864 95.5834C38.1264 96.4778 40.3954 96.1492 41.6165 94.8623L97.3572 36.1849C97.8949 35.619 98.15 34.9618 98.1409 34.3321V27.067H98.1318Z" fill="black"/>
<path d="M41.6165 87.6595C40.3863 88.9555 38.1264 89.2749 36.5864 88.3805L1.34866 67.9634C-0.191341 67.0689 -0.446494 65.28 0.774572 63.9931L56.5153 5.31565C57.7455 4.01961 60.0054 3.70019 61.5454 4.59463L96.7832 25.0117C98.3232 25.9062 98.5783 27.695 97.3572 28.982L41.6165 87.6595Z" fill="#11B67A"/>
<path d="M84.8916 54.0189C84.8916 54.0189 91.7624 56.401 100 56.2367C100 56.2367 89.9399 58.4729 88.0536 64.2046C85.8575 70.8674 91.4252 76.5991 91.4252 76.5991C91.4252 76.5991 78.9777 68.2844 75.114 78.7257C75.114 78.7257 73.4737 82.7142 75.6607 88.9571C75.6607 88.9571 69.7376 79.4285 64.8989 75.0384L84.8916 54.0189Z" fill="#006A4D"/>
<path d="M91.6892 34.9428L92.7372 33.8384C83.7432 33.8384 74.8039 34.9701 71.9244 35.3717C73.027 32.6062 76.2437 23.7713 76.9362 13.5125L75.8792 12.901C75.2049 24.4376 71.2227 34.2582 70.6304 35.6638C60.2058 41.213 49.0431 44.663 40.933 46.6709L34.3538 39.4971C36.7322 33.9297 39.5297 27.0296 41.4524 21.1792L39.6573 23.0685C37.3063 29.8042 34.0713 37.4618 31.7386 42.7828L24.7584 43.6225C24.1206 42.8194 23.428 41.9158 22.699 40.9301L21.9336 41.7332C23.0544 43.2392 24.075 44.5352 24.968 45.6214L24.0659 51.6452L24.239 51.6725C24.0477 51.7912 23.8563 51.9098 23.6649 52.0193C22.7992 52.5487 21.97 53.0507 21.1317 53.5162C21.1317 53.5162 21.1134 53.507 21.1043 53.507L21.0861 53.5436C20.9677 53.6075 20.8492 53.6805 20.7307 53.7444C17.4685 55.4876 11.7915 56.738 6.9163 57.5503L5.65878 58.8737C10.8255 58.0705 17.3591 56.738 21.1317 54.7574C22.1796 55.3233 24.4759 56.5738 25.4054 57.1396C25.0682 58.171 24.722 59.2845 24.4122 60.4801C23.51 61.4384 16.5573 68.9134 12.8394 74.6269L13.7871 75.1745C17.6963 69.1872 25.2232 61.2194 25.3052 61.1281L25.4054 61.0277L25.4419 60.8908C26.18 58.0706 27.0456 55.7067 27.802 53.8904L31.7112 52.6309C34.1807 55.1956 37.7619 59.5674 40.1676 65.4087C40.2769 66.4674 41.3886 78.1774 40.3862 88.5091C40.8236 88.3175 41.2246 88.0619 41.5526 87.7333C42.3272 78.5607 41.5526 68.6123 41.3066 65.9198C43.7943 66.3031 52.4967 67.6996 59.0941 69.2694L59.9688 68.3567C52.8703 66.6226 42.9469 65.0619 41.0879 64.7789C39.2016 60.2702 36.6866 56.665 34.4905 54.0547L38.3724 50.3035C47.7491 50.486 62.7937 50.8603 75.9247 51.5539L76.918 50.5134C61.8187 49.6829 43.9128 49.2995 34.9644 49.1444C42.8193 47.5471 57.6634 43.8324 71.25 36.5765C72.216 36.4304 81.7931 35.0523 91.7166 34.9428H91.6892ZM31.2191 43.9328C30.2623 46.0959 29.4969 47.7662 29.0868 48.6515C28.4307 47.9669 27.2097 46.6344 25.5603 44.6082L31.2191 43.9237V43.9328ZM25.7608 56.0717C24.8769 55.5515 23.3278 54.6936 22.2525 54.1095C22.9177 53.7261 23.5738 53.3336 24.2208 52.932C25.4328 52.1836 26.6812 51.4261 28.0025 50.7689C27.4193 51.9189 26.5991 53.7078 25.7608 56.0626V56.0717ZM25.2505 51.0427L25.8975 46.7348C26.9819 48.0126 27.802 48.8979 28.3214 49.4273C27.2552 49.911 26.2347 50.4677 25.2505 51.0427ZM28.3761 52.5487C28.8044 51.6086 29.1688 50.8967 29.4149 50.4495C29.752 50.7416 30.2259 51.1705 30.8364 51.7547L28.3761 52.5487ZM36.8142 50.267L33.7615 53.215C32.5587 51.8642 31.5107 50.842 30.7635 50.1666C32.0666 50.1848 34.1534 50.2122 36.8142 50.267ZM30.1803 48.9071C30.8455 47.4467 32.2306 44.3983 33.88 40.5924L39.7211 46.963C35.2104 48.04 31.7841 48.6515 30.1803 48.9071Z" fill="#6CF479"/>
<path d="M78.8498 23.7154L72.8721 20.2106C72.2524 19.8455 72.134 18.9967 72.626 18.4765C73.3186 17.7463 74.4121 17.6003 75.2778 18.1023L81.2555 21.607C81.8843 21.9721 81.9936 22.8301 81.4924 23.3503H81.4833C80.7908 24.0713 79.7064 24.2174 78.8498 23.7154Z" fill="#006A4D"/>
<path d="M30.3353 71.551C30.2624 73.6684 27.8658 75.4573 24.9772 75.5395C22.0885 75.6216 19.8104 73.9788 19.8924 71.8613C19.9653 69.7439 22.3619 67.9549 25.2505 67.8728C28.1392 67.7906 30.4173 69.4335 30.3353 71.551Z" fill="#006A4D"/>
<path d="M69.5999 17.675C70.586 17.5721 71.3244 16.9033 71.2493 16.1814C71.1742 15.4594 70.3139 14.9576 69.3278 15.0606C68.3417 15.1635 67.6032 15.8322 67.6784 16.5542C67.7535 17.2761 68.6138 17.7779 69.5999 17.675Z" fill="#006A4D"/>
</g>
</g>
</g>
</g>
</svg>
