<svg width="100" height="100" viewBox="0 0 100 100" fill="none" xmlns="http://www.w3.org/2000/svg">
<rect width="100" height="100" fill="#1E1E1E"/>
<g id="Default">
<path d="M-105 -1819C-105 -1820.11 -104.105 -1821 -103 -1821H1103C1104.1 -1821 1105 -1820.1 1105 -1819V31387C1105 31388.1 1104.1 31389 1103 31389H-103C-104.105 31389 -105 31388.1 -105 31387V-1819Z" fill="white"/>
<path d="M-103 -1821V-1820H1103V-1821V-1822H-103V-1821ZM1105 -1819H1104V31387H1105H1106V-1819H1105ZM1103 31389V31388H-103V31389V31390H1103V31389ZM-105 31387H-104V-1819H-105H-106V31387H-105ZM-103 31389V31388C-103.552 31388 -104 31387.6 -104 31387H-105H-106C-106 31388.7 -104.657 31390 -103 31390V31389ZM1105 31387H1104C1104 31387.6 1103.55 31388 1103 31388V31389V31390C1104.66 31390 1106 31388.7 1106 31387H1105ZM1103 -1821V-1820C1103.55 -1820 1104 -1819.55 1104 -1819H1105H1106C1106 -1820.66 1104.66 -1822 1103 -1822V-1821ZM-103 -1821V-1822C-104.656 -1822 -106 -1820.66 -106 -1819H-105H-104C-104 -1819.55 -103.553 -1820 -103 -1820V-1821Z" fill="white" fill-opacity="0.1"/>
<g id="_Building Blocks">
<rect x="-24.5" y="-24.5" width="1049" height="149" rx="4.5" stroke="#9747FF" stroke-dasharray="10 5"/>
<g id="Brand=Lloyds - V2">
<rect width="100" height="100" fill="#C7FFC6"/>
<g id="Path">
<path d="M27.684 66.3052L47.9002 77.5382L68.1165 66.3052L47.9002 55.0721L27.684 66.3052Z" fill="white"/>
<path d="M27.684 66.3061V88.7722L47.9002 100V77.5392L27.684 66.3061Z" fill="#6CF479"/>
<path d="M47.9002 77.5392V100L68.1163 88.7722V66.3061L47.9002 77.5392Z" fill="#221F1F"/>
<path d="M38.6425 0L25.1188 38.3077L63.5728 32.0778L38.6425 0Z" fill="#6CF479"/>
<path d="M36.4935 9.13744C33.5072 18.733 30.5209 28.3233 27.54 37.9189C28.6812 37.3855 29.8223 36.8521 30.9635 36.3187C32.8087 27.2565 34.6484 18.1997 36.4935 9.13744Z" fill="white"/>
<path d="M38.6425 0C43.5859 11.0357 48.524 22.0715 53.4674 33.1072C56.8377 32.7658 60.2026 32.4191 63.5728 32.0778C55.2645 21.3834 46.9562 10.6944 38.6425 0Z" fill="#11B67A"/>
<path d="M44.8821 38.4921C55.6681 36.7447 64.1744 33.862 63.8815 32.0533C63.5887 30.2446 54.6074 30.1948 43.8214 31.9421C33.0354 33.6894 24.5291 36.5722 24.822 38.3809C25.1148 40.1896 34.0961 40.2394 44.8821 38.4921Z" fill="#221F1F"/>
<path d="M47.9002 67.8791C54.8596 67.8791 60.5013 64.7221 60.5013 60.8277C60.5013 56.9334 54.8596 53.7764 47.9002 53.7764C40.9408 53.7764 35.299 56.9334 35.299 60.8277C35.299 64.7221 40.9408 67.8791 47.9002 67.8791Z" fill="#C7FFC6"/>
<path d="M47.7242 65.7614C56.2622 65.7614 63.1837 58.8384 63.1837 50.2986C63.1837 41.7587 56.2622 34.8357 47.7242 34.8357C39.1862 34.8357 32.2647 41.7587 32.2647 50.2986C32.2647 58.8384 39.1862 65.7614 47.7242 65.7614Z" fill="#11B67A"/>
<path d="M41.7408 38.324C37.1974 40.9963 34.499 45.9408 34.771 51.1199C35.155 58.566 41.4582 62.2997 41.8955 62.5504C39.8157 60.1288 39.1758 56.8752 40.2743 54.1122C41.3622 51.3813 43.7299 50.1812 44.3645 49.8878C44.1992 49.8558 40.589 49.0291 39.4371 45.6207C38.5679 43.0391 39.4851 40.0949 41.7462 38.324H41.7408Z" fill="white"/>
<path d="M47.0628 65.7615C48.2146 65.5108 56.3896 63.5693 60.2932 55.7019C62.7889 50.6774 62.2076 45.9249 61.893 44.1221C64.1007 49.3066 63.4021 55.2592 60.0479 59.681C55.3018 65.9269 47.772 65.7882 47.0628 65.7615Z" fill="#006A4D"/>
<path d="M28.42 67.8785C28.436 71.4948 28.4573 75.1165 28.4733 78.7329C28.5693 78.2261 29.1985 75.2072 32.0515 73.495C33.918 72.3749 35.7631 72.3962 36.499 72.4496C33.806 70.9241 31.113 69.3986 28.42 67.8785Z" fill="#C7FFC6"/>
<path d="M19.9569 53.6535C19.9569 53.6535 21.2527 57.9579 26.5214 59.1473C26.5214 59.1473 22.5326 59.8354 22.4526 64.6305C22.4526 64.6305 21.0447 60.4755 16 59.1473C16 59.1473 20.2182 58.646 19.9569 53.6588V53.6535Z" fill="#11B67A"/>
<path d="M72.0146 28.5575C72.0146 28.5575 74.1851 35.7635 83 37.753C83 37.753 76.3235 38.9051 76.1901 46.9219C76.1901 46.9219 73.8384 39.9719 65.3914 37.7423C65.3914 37.7423 72.4466 36.9049 72.0093 28.5575H72.0146Z" fill="#11B67A"/>
<path d="M22.3779 1.8939C22.3779 1.8939 23.0285 4.04878 25.6629 4.64083C25.6629 4.64083 23.6684 4.98753 23.6258 7.38243C23.6258 7.38243 22.9219 5.30756 20.3995 4.64083C20.3995 4.64083 22.5059 4.39014 22.3779 1.8939Z" fill="#11B67A"/>
</g>
</g>
</g>
</g>
</svg>
