<svg width="100" height="100" viewBox="0 0 100 100" fill="none" xmlns="http://www.w3.org/2000/svg">
<rect width="100" height="100" fill="#1E1E1E"/>
<g id="Default">
<path d="M-105 -3303C-105 -3304.11 -104.105 -3305 -103 -3305H1103C1104.1 -3305 1105 -3304.1 1105 -3303V29903C1105 29904.1 1104.1 29905 1103 29905H-103C-104.105 29905 -105 29904.1 -105 29903V-3303Z" fill="white"/>
<path d="M-103 -3305V-3304H1103V-3305V-3306H-103V-3305ZM1105 -3303H1104V29903H1105H1106V-3303H1105ZM1103 29905V29904H-103V29905V29906H1103V29905ZM-105 29903H-104V-3303H-105H-106V29903H-105ZM-103 29905V29904C-103.552 29904 -104 29903.6 -104 29903H-105H-106C-106 29904.7 -104.657 29906 -103 29906V29905ZM1105 29903H1104C1104 29903.6 1103.55 29904 1103 29904V29905V29906C1104.66 29906 1106 29904.7 1106 29903H1105ZM1103 -3305V-3304C1103.55 -3304 1104 -3303.55 1104 -3303H1105H1106C1106 -3304.66 1104.66 -3306 1103 -3306V-3305ZM-103 -3305V-3306C-104.656 -3306 -106 -3304.66 -106 -3303H-105H-104C-104 -3303.55 -103.553 -3304 -103 -3304V-3305Z" fill="white" fill-opacity="0.1"/>
<g id="Card Reader">
<rect x="-24.5" y="-24.5" width="1049" height="149" rx="4.5" stroke="#9747FF" stroke-dasharray="10 5"/>
<g id="Brand=Lloyds - V2" clip-path="url(#clip0_4483_4)">
<rect width="100" height="100" fill="#C7FFC6"/>
<g id="Path">
<path d="M97.2564 33.0939C97.2564 33.0939 65.5357 14.7886 65.2899 14.7123C62.578 13.1191 59.5102 12.8818 59.5102 12.8818L55.1033 12.4411C49.2304 11.814 46.2981 17.1445 46.2981 17.1445L11.84 67.8995C11.0095 69.0096 11.2892 70.4249 12.5519 71.1537L43.8235 89.2472C45.1879 90.0353 47.2049 89.7472 48.2897 88.6031L97.7649 36.6109C98.8581 35.4668 98.6293 33.882 97.2564 33.0939Z" fill="#6CF479"/>
<path d="M99.943 36.8909C99.3752 32.8231 94.9938 32.6875 94.9938 32.6875L91.4598 32.34C88.5699 32.0603 85.7648 33.3739 84.1377 35.7722L48.2982 88.6035C47.205 89.7476 45.1965 90.0357 43.8321 89.2475L12.5604 71.1541C11.8655 70.7558 11.4842 70.1456 11.3994 69.493L11.3655 69.5185V75.7389C11.4079 76.4423 11.8147 77.1118 12.5604 77.544L43.8321 95.6375C45.1965 96.4256 47.2135 96.1375 48.2982 94.9934L97.7735 43.0012C97.7735 43.0012 100.443 40.4842 99.943 36.8909Z" fill="black"/>
<path d="M62.6541 59.3996L32.7045 42.0689L45.6454 22.5601L75.4339 39.7892C76.239 40.2553 76.4848 41.3062 75.9678 42.0858L64.8151 58.8911C64.3405 59.603 63.3998 59.8234 62.6541 59.3996Z" fill="black"/>
<path d="M52.6115 32.0518L24.8485 48.7808L35.1706 33.2976L46.3826 25.111L52.6115 32.0518Z" fill="black"/>
<path d="M56.8743 37.2048C54.2218 35.62 51.1624 35.2556 48.3827 35.9505L48.9336 38.1285C51.1624 37.5692 53.5946 37.8573 55.7218 39.1285C57.8489 40.3997 59.2472 42.4082 59.8066 44.6371L61.9846 44.0862C61.2896 41.3065 59.5269 38.7895 56.8743 37.2048Z" fill="#024731"/>
<path d="M52.4421 44.603C51.8319 44.2386 51.1285 44.1539 50.4844 44.3149L51.1115 46.8234L53.62 46.1963C53.459 45.5522 53.0522 44.9674 52.4421 44.603Z" fill="#024731"/>
<path d="M54.6626 40.8996C53.027 39.925 51.1456 39.6962 49.4338 40.1284L49.9846 42.3064C51.1372 42.0182 52.4084 42.1623 53.5101 42.8233C54.6118 43.4843 55.3406 44.5267 55.6287 45.6793L57.8067 45.1369C57.3745 43.425 56.2898 41.8826 54.6626 40.8996Z" fill="#024731"/>
<path d="M58.2558 29.4752L47.4421 4.98335C46.976 3.93249 45.8319 3.34773 44.7048 3.5935L1.28048 12.9919C0.280466 13.2123 -0.270389 14.2886 0.144871 15.2292L10.8823 39.5601C11.3484 40.6109 12.484 41.1957 13.6027 40.9499L57.1117 31.7125C58.1118 31.5007 58.6711 30.4159 58.2558 29.4752Z" fill="black"/>
<path d="M58.3152 28.9499L47.51 4.44954C47.0439 3.39868 45.8998 2.81393 44.7726 3.05969L1.33986 12.4581C0.339847 12.6785 -0.211008 13.7548 0.204251 14.6954L10.9417 39.0263C11.4078 40.0771 12.5434 40.6619 13.6621 40.4161L57.1711 31.1787C58.1711 30.9668 58.7305 29.8906 58.3152 28.9499Z" fill="#11B67A"/>
<path d="M9.00094 34.6363L56.3236 24.4243L54.1117 19.3988L6.78057 29.6193L9.00094 34.6363Z" fill="black"/>
<path d="M64.4424 35.611L74.3154 41.3483L66.0441 53.2214C66.0441 53.2214 70.5018 41.9585 64.4424 35.6025V35.611Z" fill="white"/>
<path d="M84.3241 32.7214C84.3241 32.7214 75.3833 28.5857 73.1799 21.0432L91.0614 31.1874C91.0614 31.1874 88.1292 29.984 84.3241 32.7214Z" fill="white"/>
<path d="M39.332 57.4335L45.4168 60.9505C45.9677 61.2725 46.6795 61.103 47.0355 60.5691L48.4762 58.3996C48.8151 57.8911 48.6541 57.2131 48.1287 56.9081L42.0439 53.3911C41.493 53.069 40.7811 53.2385 40.4252 53.7724L38.9845 55.9419C38.6455 56.4504 38.8065 57.1284 39.332 57.4335Z" fill="#11B67A"/>
<path d="M28.9418 51.425L35.2724 55.086C35.8232 55.4081 36.5351 55.2386 36.891 54.7047L38.3317 52.5351C38.6707 52.0267 38.5097 51.3487 37.9843 51.0436L31.6537 47.3825C31.1028 47.0605 30.391 47.23 30.035 47.7639L28.5943 49.9334C28.2553 50.4419 28.4164 51.1199 28.9418 51.425Z" fill="#11B67A"/>
<path d="M59.01 63.2048L52.1878 59.2556C51.637 58.9335 50.9251 59.103 50.5692 59.6369L49.1285 61.8065C48.7895 62.3149 48.9505 62.9929 49.4759 63.298L56.2981 67.2472C56.8489 67.5692 57.5608 67.3998 57.9167 66.8658L59.3574 64.6963C59.6964 64.1879 59.5354 63.5099 59.01 63.2048Z" fill="#11B67A"/>
<path d="M36.8403 61.2301C36.2894 60.9081 35.5776 61.0776 35.2216 61.6115L33.7809 63.781C33.4419 64.2895 33.603 64.9675 34.1284 65.2726L40.2132 68.7896C40.7641 69.1116 41.476 68.9421 41.8319 68.4082L43.2726 66.2387C43.6116 65.7302 43.4506 65.0522 42.9251 64.7471L36.8403 61.2301Z" fill="#11B67A"/>
<path d="M23.7469 59.2559L30.0775 62.9169C30.6283 63.239 31.3402 63.0695 31.6962 62.5356L33.1369 60.3661C33.4758 59.8576 33.3148 59.1796 32.7894 58.8745L26.4588 55.2134C25.9079 54.8914 25.1961 55.0609 24.8401 55.5948L23.3994 57.7643C23.0604 58.2728 23.2215 58.9508 23.7469 59.2559Z" fill="#11B67A"/>
<path d="M53.8068 71.0439L46.9847 67.0947C46.4338 66.7726 45.722 66.9421 45.366 67.476L43.9253 69.6455C43.5863 70.154 43.7473 70.832 44.2728 71.1371L51.0949 75.0863C51.6458 75.4083 52.3576 75.2388 52.7136 74.7049L54.1543 72.5354C54.4933 72.0269 54.3322 71.349 53.8068 71.0439Z" fill="#11B67A"/>
<path d="M37.7302 72.5862L31.6454 69.0692C31.0946 68.7472 30.3827 68.9167 30.0267 69.4506L28.586 71.6201C28.2471 72.1286 28.4081 72.8066 28.9335 73.1117L35.0183 76.6287C35.5692 76.9507 36.2811 76.7812 36.637 76.2473L38.0777 74.0778C38.4167 73.5693 38.2557 72.8913 37.7302 72.5862Z" fill="#11B67A"/>
<path d="M27.5858 66.7136L21.2552 63.0525C20.7044 62.7305 19.9925 62.9 19.6366 63.4339L18.1959 65.6034C17.8569 66.1119 18.0179 66.7899 18.5433 67.095L24.8739 70.756C25.4248 71.0781 26.1366 70.9086 26.4926 70.3747L27.9333 68.2051C28.2723 67.6967 28.1112 67.0187 27.5858 66.7136Z" fill="#11B67A"/>
<path d="M48.6115 78.8745L41.7894 74.9253C41.2385 74.6032 40.5267 74.7727 40.1707 75.3066L38.73 77.4762C38.391 77.9846 38.5521 78.6626 39.0775 78.9677L45.8996 82.9169C46.4505 83.2389 47.1623 83.0695 47.5183 82.5355L48.959 80.366C49.298 79.8575 49.1369 79.1796 48.6115 78.8745Z" fill="#11B67A"/>
</g>
</g>
</g>
</g>
<defs>
<clipPath id="clip0_4483_4">
<rect width="100" height="100" fill="white"/>
</clipPath>
</defs>
</svg>
