<svg width="100" height="100" viewBox="0 0 100 100" fill="none" xmlns="http://www.w3.org/2000/svg">
<rect width="100" height="100" fill="#1E1E1E"/>
<g id="Default">
<path d="M-105 -3939C-105 -3940.11 -104.105 -3941 -103 -3941H1103C1104.1 -3941 1105 -3940.1 1105 -3939V29267C1105 29268.1 1104.1 29269 1103 29269H-103C-104.105 29269 -105 29268.1 -105 29267V-3939Z" fill="white"/>
<path d="M-103 -3941V-3940H1103V-3941V-3942H-103V-3941ZM1105 -3939H1104V29267H1105H1106V-3939H1105ZM1103 29269V29268H-103V29269V29270H1103V29269ZM-105 29267H-104V-3939H-105H-106V29267H-105ZM-103 29269V29268C-103.552 29268 -104 29267.6 -104 29267H-105H-106C-106 29268.7 -104.657 29270 -103 29270V29269ZM1105 29267H1104C1104 29267.6 1103.55 29268 1103 29268V29269V29270C1104.66 29270 1106 29268.7 1106 29267H1105ZM1103 -3941V-3940C1103.55 -3940 1104 -3939.55 1104 -3939H1105H1106C1106 -3940.66 1104.66 -3942 1103 -3942V-3941ZM-103 -3941V-3942C-104.656 -3942 -106 -3940.66 -106 -3939H-105H-104C-104 -3939.55 -103.553 -3940 -103 -3940V-3941Z" fill="white" fill-opacity="0.1"/>
<g id="Charities">
<rect x="-24.5" y="-24.5" width="1049" height="149" rx="4.5" stroke="#9747FF" stroke-dasharray="10 5"/>
<g id="Brand=Lloyds - V2">
<rect width="100" height="100" fill="#C7FFC6"/>
<g id="Path">
<path d="M71.61 11.4992C65.6 12.5952 57.6301 13.199 49.1801 13.199C40.7301 13.199 32.76 12.5952 26.75 11.4992C22.62 10.7468 19.74 9.83652 18 8.70332V44.7891C18 47.9194 19.13 50.966 21.21 53.4275L31.98 66.2084C32.88 67.2859 33.38 68.6049 33.38 69.9703V79.008C33.38 80.5127 32.7801 81.971 31.6901 83.0949L23.48 91.566C22.37 92.7085 22.55 94.4919 23.88 95.4115C26.74 97.3806 33.4901 100 49.1801 100C64.8701 100 71.62 97.3806 74.48 95.4115C75.81 94.4919 75.99 92.7085 74.88 91.566L66.67 83.0949C65.58 81.971 64.98 80.522 64.98 79.008V69.9703C64.98 68.6049 65.47 67.2859 66.38 66.2084L77.15 53.4275C79.23 50.9567 80.36 47.9194 80.36 44.7891V8.70332C78.63 9.82723 75.74 10.7468 71.61 11.4992Z" fill="#6CF479"/>
<path d="M49.1801 11.332C66.4003 11.332 80.36 8.79522 80.36 5.66599C80.36 2.53675 66.4003 0 49.1801 0C31.9598 0 18 2.53675 18 5.66599C18 8.79522 31.9598 11.332 49.1801 11.332Z" fill="#11B67A"/>
<path d="M39.09 7.38462L56.34 2.78681C56.94 2.6289 57.5601 2.57317 58.1801 2.6289L61.3901 2.90756C61.7201 2.93542 61.76 3.36269 61.45 3.45558L44.33 8.09983C43.7 8.26702 43.0501 8.32275 42.4001 8.25773L39.1401 7.93264C38.8101 7.89548 38.77 7.46821 39.09 7.38462Z" fill="#006A4D"/>
<path d="M56.6198 88.0919C56.0998 87.8225 55.6098 87.5253 55.1298 87.2095C53.3798 86.8008 51.6898 86.1877 50.1498 85.3146C45.7098 82.7882 43.0098 78.4319 42.1298 72.3665L41.9098 70.8153V70.7224C41.9098 68.8647 41.4997 67.0163 40.7097 65.3072L35.1798 53.4086C34.0398 50.9472 33.4497 48.2999 33.4497 45.6156V12.3163C31.0497 12.0655 28.7998 11.759 26.7798 11.3874C22.5998 10.6258 19.7098 9.70623 18.0098 8.56374V44.7889C18.0098 47.9191 19.1397 50.9658 21.2197 53.4272L31.9897 66.2082C32.8897 67.2856 33.3898 68.6046 33.3898 69.97V79.0077C33.3898 80.5125 32.7897 81.9708 31.6997 83.0947L23.4897 91.5658C22.3797 92.7083 22.5598 94.4917 23.8898 95.4112C25.6998 96.6652 29.0997 98.1699 35.3297 99.1081C34.5297 96.8324 36.2097 94.1944 36.2097 94.1944L39.8998 88.1755C41.1398 86.1506 41.9098 83.8842 41.9098 81.5528C41.9098 81.5342 41.9098 81.5156 41.9098 81.4971V81.0233C43.5198 83.8192 45.7297 86.067 48.5797 87.6832C50.4597 88.7514 52.5098 89.4852 54.6298 89.9496C57.7298 90.6277 60.9497 90.6369 64.0997 90.2004L65.0897 90.0611C62.0397 90.0611 59.1497 89.4016 56.6097 88.0826L56.6198 88.0919Z" fill="black"/>
<path d="M55.7998 18.1685C55.7998 18.1685 66.3297 18.5958 76.0897 16.0136V41.1854C76.0897 41.1854 73.4598 22.3391 55.7998 18.1685Z" fill="white"/>
<path d="M70.0699 86.6249C65.6799 87.7488 61.47 87.4237 58.08 85.6682C54.41 83.7641 51.88 80.2251 50.76 75.4323C48.42 65.4007 46.34 57.4405 40.99 46.4614C37.42 39.1421 32.47 29.1663 30.04 24.2898C30.46 23.6396 30.71 22.8408 30.71 21.977C30.71 19.7942 29.15 18.0201 27.23 18.0201C25.31 18.0201 23.75 19.7942 23.75 21.977C23.75 24.1598 25.31 25.9339 27.23 25.9339C27.33 25.9339 27.43 25.906 27.54 25.8967C30.03 30.9125 34.8 40.5168 38.26 47.6132C43.5 58.3507 45.53 66.1624 47.84 76.0267C49.15 81.6277 52.19 85.8075 56.63 88.1111C59.17 89.4301 62.05 90.0895 65.11 90.0895C67.44 90.0895 69.8601 89.6994 72.3 88.9285L70.09 86.6435L70.0699 86.6249Z" fill="#006A4D"/>
<path d="M82.3999 72.738C82.0899 70.9174 81.4199 69.0876 80.3499 67.1556C79.2199 65.0935 76.7499 59.8269 77.0299 53.5758L74.1199 57.0218C74.5899 62.0469 76.4199 66.1338 77.6699 68.4188C78.5899 70.0907 79.1599 71.6512 79.4299 73.1838C79.9999 76.4812 79.9698 82.463 73.3198 85.5097L75.9598 87.3302C81.1598 84.3579 83.4999 79.1192 82.3899 72.7287L82.3999 72.738Z" fill="#006A4D"/>
</g>
</g>
</g>
</g>
</svg>
