<svg width="100" height="100" viewBox="0 0 100 100" fill="none" xmlns="http://www.w3.org/2000/svg">
<rect width="100" height="100" fill="#1E1E1E"/>
<g id="Default">
<path d="M-105 -4151C-105 -4152.11 -104.105 -4153 -103 -4153H1103C1104.1 -4153 1105 -4152.1 1105 -4151V29055C1105 29056.1 1104.1 29057 1103 29057H-103C-104.105 29057 -105 29056.1 -105 29055V-4151Z" fill="white"/>
<path d="M-103 -4153V-4152H1103V-4153V-4154H-103V-4153ZM1105 -4151H1104V29055H1105H1106V-4151H1105ZM1103 29057V29056H-103V29057V29058H1103V29057ZM-105 29055H-104V-4151H-105H-106V29055H-105ZM-103 29057V29056C-103.552 29056 -104 29055.6 -104 29055H-105H-106C-106 29056.7 -104.657 29058 -103 29058V29057ZM1105 29055H1104C1104 29055.6 1103.55 29056 1103 29056V29057V29058C1104.66 29058 1106 29056.7 1106 29055H1105ZM1103 -4153V-4152C1103.55 -4152 1104 -4151.55 1104 -4151H1105H1106C1106 -4152.66 1104.66 -4154 1103 -4154V-4153ZM-103 -4153V-4154C-104.656 -4154 -106 -4152.66 -106 -4151H-105H-104C-104 -4151.55 -103.553 -4152 -103 -4152V-4153Z" fill="white" fill-opacity="0.1"/>
<g id="_Charts on Monitor">
<rect x="-24.5" y="-24.5" width="1049" height="149" rx="4.5" stroke="#9747FF" stroke-dasharray="10 5"/>
<g id="Brand=Lloyds - V2">
<rect width="100" height="100" fill="#C7FFC6"/>
<g id="Path">
<path d="M59.4861 85.6523C59.0269 85.1115 58.7718 84.4277 58.7718 83.7236V74.3247H38.9024V83.7236C38.9024 84.4379 38.6575 85.1217 38.188 85.6523L31.9425 92.9694C31.667 93.296 31.5139 93.7144 31.5139 94.143V94.7553C31.5139 95.2554 31.9221 95.6636 32.4221 95.6636H65.252C65.7521 95.6636 66.1603 95.2554 66.1603 94.7553V94.143C66.1603 93.7144 66.0072 93.296 65.7317 92.9694L59.4861 85.6523Z" fill="#11B67A"/>
<path d="M97.2344 8.11441H2.77579C1.24503 8.11441 0 9.35944 0 10.8902V70.1513C0 71.6821 1.24503 72.9271 2.77579 72.9271H97.2242C98.755 72.9271 100 71.6821 100 70.1513V10.9004C100 9.36964 98.755 8.12462 97.2242 8.12462L97.2344 8.11441Z" fill="#11B67A"/>
<path d="M57.1493 85.3372L63.5888 92.6542H40.4844C40.4844 92.6542 56.6799 91.8786 57.1391 85.3372H57.1493Z" fill="white"/>
<path d="M2.77554 6.73741H97.2342C97.673 6.73741 98.1016 6.81905 98.4996 6.96192C98.418 5.59444 97.275 4.5127 95.8973 4.5127H4.11241C2.72452 4.5127 1.59175 5.59444 1.51011 6.96192C1.91831 6.82926 2.33672 6.73741 2.77554 6.73741Z" fill="black"/>
<path d="M4.58216 12.6853V68.3645H95.4384V12.6853H4.58216Z" fill="black"/>
<path d="M92.6011 42.6082H8.10273V65.2942H92.6011V42.6082Z" fill="#6CF479"/>
<path d="M89.8968 51.5676L80.8653 47.404L67.0067 59.8032L58.4446 54.8129L45.5862 56.956L42.7491 49.8634L33.2584 46.71L24.6146 55.3537L18.8589 51.0472L10.307 56.3232V57.9458L18.7773 52.7208L24.7269 57.1805L33.6257 48.2816L41.698 50.9655L44.7085 58.5071L58.1793 56.262L67.17 61.5074L81.1 49.047L89.8764 53.0984V51.5676H89.8968Z" fill="#01482F"/>
<path d="M19.1034 21.0068L33.1967 33.5859L41.7588 28.5956L54.6173 30.7387L57.4543 23.6462L66.945 20.4928L75.5888 29.1365L81.3445 24.8299L89.8964 30.106V31.7286L81.4261 26.5036L75.4765 30.9632L66.5777 22.0644L58.5054 24.7483L55.4949 32.2899L42.0241 30.0448L33.0334 35.2902L19.1034 22.8297V21.0068Z" fill="#6CF479"/>
<path d="M38.9117 74.3247V83.7236C38.9117 84.142 38.8097 84.5604 38.6362 84.9482H45.3103C46.9738 84.9482 48.5147 84.0297 49.2903 82.55L50.6986 79.9171C51.066 79.2231 51.7906 78.7945 52.5866 78.7945H58.7913V74.3349H38.9219L38.9117 74.3247Z" fill="black"/>
<path d="M8.23571 16.0842H22.0024C22.0024 16.0842 12.2055 20.8398 8.23571 39.6988V16.0842Z" fill="white"/>
</g>
</g>
</g>
</g>
</svg>
