<svg width="100" height="100" viewBox="0 0 100 100" fill="none" xmlns="http://www.w3.org/2000/svg">
<rect width="100" height="100" fill="#1E1E1E"/>
<g id="Default">
<path d="M-105 -4999C-105 -5000.11 -104.105 -5001 -103 -5001H1103C1104.1 -5001 1105 -5000.1 1105 -4999V28207C1105 28208.1 1104.1 28209 1103 28209H-103C-104.105 28209 -105 28208.1 -105 28207V-4999Z" fill="white"/>
<path d="M-103 -5001V-5000H1103V-5001V-5002H-103V-5001ZM1105 -4999H1104V28207H1105H1106V-4999H1105ZM1103 28209V28208H-103V28209V28210H1103V28209ZM-105 28207H-104V-4999H-105H-106V28207H-105ZM-103 28209V28208C-103.552 28208 -104 28207.6 -104 28207H-105H-106C-106 28208.7 -104.657 28210 -103 28210V28209ZM1105 28207H1104C1104 28207.6 1103.55 28208 1103 28208V28209V28210C1104.66 28210 1106 28208.7 1106 28207H1105ZM1103 -5001V-5000C1103.55 -5000 1104 -4999.55 1104 -4999H1105H1106C1106 -5000.66 1104.66 -5002 1103 -5002V-5001ZM-103 -5001V-5002C-104.656 -5002 -106 -5000.66 -106 -4999H-105H-104C-104 -4999.55 -103.553 -5000 -103 -5000V-5001Z" fill="white" fill-opacity="0.1"/>
<g id="Complete">
<rect x="-24.5" y="-24.5" width="1049" height="149" rx="4.5" stroke="#9747FF" stroke-dasharray="10 5"/>
<g id="Brand=Lloyds - V2">
<rect width="100" height="100" fill="#C7FFC6"/>
<g id="Path">
<path d="M91.2727 81.8817V80.8403L74.924 44.5211C74.5553 43.6824 73.6522 43.1018 72.7859 43.1018C72.6661 43.1018 72.5555 43.1111 72.4357 43.1387L1.09662 58.2341L1.13352 59.2755C1.13352 59.5243 1.17958 59.7731 1.29017 60.0404L17.6573 97.0323C18.026 97.871 18.9383 98.4516 19.8046 98.4516C19.9244 98.4516 20.0534 98.4424 20.1732 98.4147L90.1575 83.3009C90.8856 83.1534 91.3003 82.5729 91.2727 81.8817Z" fill="black"/>
<path d="M91.1254 80.0573L74.9242 43.351C74.5556 42.5124 73.6524 41.9318 72.7861 41.9318C72.6663 41.9318 72.5557 41.941 72.4359 41.9687L2.2765 56.7876C1.30885 56.9811 0.875712 57.9119 1.29964 58.8703L17.6668 95.8623C18.0354 96.7009 18.9477 97.2815 19.814 97.2815C19.9338 97.2815 20.0629 97.2723 20.1827 97.2447L90.167 82.1308C91.1162 81.9373 91.5401 81.0065 91.1254 80.0573Z" fill="#11B67A"/>
<path d="M14.8926 89.5861L88.3236 73.735L84.8953 65.9477L11.4459 81.7988L14.8926 89.5861Z" fill="black"/>
<path d="M41.9867 3.09707C41.9867 3.09707 44.4197 11.1701 54.299 13.4003C54.299 13.4003 46.8157 14.6905 46.6683 23.6758C46.6683 23.6758 44.0326 15.8885 34.568 13.391C34.568 13.391 42.4752 12.451 41.9867 3.09707Z" fill="white"/>
<path d="M59.8468 49.9587C59.8468 49.9587 61.6163 55.8291 68.8046 57.4603C68.8046 57.4603 63.3581 58.4003 63.2567 64.9343C63.2567 64.9343 61.3398 59.2666 54.4557 57.4511C54.4557 57.4511 60.2155 56.7691 59.8561 49.9587H59.8468Z" fill="white"/>
<path d="M36.0522 67.552C36.0522 67.552 16.7729 63.3772 3.31789 63.7274L1.19828 58.668C0.866515 57.8754 1.33652 56.9723 2.18437 56.7972L12.3493 54.4656C12.3493 54.4656 24.2007 53.5993 33.5823 55.7282L36.0522 67.552Z" fill="black"/>
<path d="M12.2385 30.8084C12.2385 30.8084 29.131 53.5989 36.052 67.5423C36.052 67.5423 63.478 30.4029 100 2C100 2 66.6759 14.6716 36.8722 44.6136C36.8722 44.6136 25.5184 33.3519 12.2293 30.8084H12.2385Z" fill="#6CF479"/>
<path d="M3.90752 37.7758C3.90752 37.7758 5.18848 42.0242 10.3862 43.1946C10.3862 43.1946 6.45105 43.8766 6.36811 48.6043C6.36811 48.6043 4.98571 44.5033 0 43.1946C0 43.1946 4.16556 42.697 3.90752 37.7758Z" fill="white"/>
</g>
</g>
</g>
</g>
</svg>
