<svg width="100" height="100" viewBox="0 0 100 100" fill="none" xmlns="http://www.w3.org/2000/svg">
<rect width="100" height="100" fill="#1E1E1E"/>
<g id="Default">
<path d="M-105 -5635C-105 -5636.11 -104.105 -5637 -103 -5637H1103C1104.1 -5637 1105 -5636.1 1105 -5635V27571C1105 27572.1 1104.1 27573 1103 27573H-103C-104.105 27573 -105 27572.1 -105 27571V-5635Z" fill="white"/>
<path d="M-103 -5637V-5636H1103V-5637V-5638H-103V-5637ZM1105 -5635H1104V27571H1105H1106V-5635H1105ZM1103 27573V27572H-103V27573V27574H1103V27573ZM-105 27571H-104V-5635H-105H-106V27571H-105ZM-103 27573V27572C-103.552 27572 -104 27571.6 -104 27571H-105H-106C-106 27572.7 -104.657 27574 -103 27574V27573ZM1105 27571H1104C1104 27571.6 1103.55 27572 1103 27572V27573V27574C1104.66 27574 1106 27572.7 1106 27571H1105ZM1103 -5637V-5636C1103.55 -5636 1104 -5635.55 1104 -5635H1105H1106C1106 -5636.66 1104.66 -5638 1103 -5638V-5637ZM-103 -5637V-5638C-104.656 -5638 -106 -5636.66 -106 -5635H-105H-104C-104 -5635.55 -103.553 -5636 -103 -5636V-5637Z" fill="white" fill-opacity="0.1"/>
<g id="_Cube Tower">
<rect x="-24.5" y="-24.5" width="1049" height="149" rx="4.5" stroke="#9747FF" stroke-dasharray="10 5"/>
<g id="Brand=Lloyds - V2">
<rect width="100" height="100" fill="#C7FFC6"/>
<g id="Path">
<g id="Vector">
<path fill-rule="evenodd" clip-rule="evenodd" d="M24.1145 38.0342L32.3154 33.5551C32.8347 33.263 33.4189 33.263 33.9274 33.5551L42.0417 37.8611C42.561 38.1532 37.6059 35.7622 33.354 35.654C29.3834 35.5458 23.5952 38.3371 24.1037 38.045L24.1145 38.0342Z" fill="white"/>
<path fill-rule="evenodd" clip-rule="evenodd" d="M36.2636 14.2971L48.4675 21.3512C48.9868 21.6433 49.2789 22.1626 49.2789 22.7468V36.8549C49.2789 37.4391 48.9868 37.9584 48.4675 38.2505C47.9482 38.5426 47.3639 38.5426 46.8554 38.2505L34.6516 31.1965C34.1322 30.9044 33.8401 30.3851 33.8401 29.8008V15.6928C33.8401 15.1086 34.1322 14.5893 34.6516 14.2971C35.1709 14.005 35.7551 14.005 36.2636 14.2971Z" fill="black"/>
<path fill-rule="evenodd" clip-rule="evenodd" d="M51.5533 21.3621L63.768 14.3081C64.2873 14.016 64.8716 14.016 65.3801 14.3081C65.8994 14.6002 66.1915 15.1195 66.1915 15.7037V29.8118C66.1915 30.396 65.8994 30.9153 65.3801 31.2074L53.1654 38.2614C52.646 38.5536 52.0618 38.5536 51.5533 38.2614C51.034 37.9693 50.7419 37.45 50.7419 36.8658V22.7578C50.7419 22.1735 51.034 21.6542 51.5533 21.3621Z" fill="#006A4D"/>
<path fill-rule="evenodd" clip-rule="evenodd" d="M36.9793 10.2839L49.194 3.21909C49.7133 2.92697 50.2975 2.92697 50.806 3.21909L63.0207 10.2731C63.5401 10.5652 63.8322 11.0845 63.8322 11.6796C63.8322 12.2638 63.5401 12.7831 63.0207 13.0752L50.806 20.1293C50.2867 20.4214 49.7025 20.4214 49.194 20.1293L36.9793 13.0752C36.46 12.7831 36.1679 12.2638 36.1679 11.6796C36.1679 11.0737 36.46 10.5652 36.9793 10.2731V10.2839Z" fill="#6CF479"/>
<path fill-rule="evenodd" clip-rule="evenodd" d="M41.036 9.11558L49.2368 4.63649C49.7561 4.34438 50.3404 4.34438 50.8489 4.63649L58.9632 8.94247C59.4825 9.23459 54.5274 6.84358 50.2755 6.73539C46.3049 6.6272 40.5167 9.41851 41.0252 9.1264L41.036 9.11558Z" fill="white"/>
<path fill-rule="evenodd" clip-rule="evenodd" d="M65.0433 16.5698L64.7404 28.4275C64.7404 29.1849 64.3617 29.8232 63.7126 30.2018L53.824 36.3687C53.1748 36.7474 58.9414 32.8309 61.776 28.2328C64.4158 23.9376 65.0433 15.8017 65.0433 16.559V16.5698Z" fill="black"/>
<path fill-rule="evenodd" clip-rule="evenodd" d="M19.3442 43.2704L21.8975 44.7526L31.5373 50.3244C32.0566 50.6165 32.3487 51.1358 32.3487 51.72V65.8281C32.3487 66.4123 32.0566 66.9316 31.5373 67.2237C31.018 67.5159 30.4337 67.5159 29.9253 67.2237L17.7214 60.1697C17.2021 59.8776 16.9099 59.3583 16.9099 58.7741V44.6768C16.9099 44.071 17.2021 43.5625 17.7214 43.2704C18.2407 42.9783 18.8249 42.9783 19.3334 43.2704H19.3442Z" fill="black"/>
<path fill-rule="evenodd" clip-rule="evenodd" d="M34.6297 50.3244L46.8444 43.2704C47.3637 42.9783 47.9479 42.9783 48.4564 43.2704C48.9758 43.5625 49.2679 44.0818 49.2679 44.6768V58.7741C49.2679 59.3583 48.9758 59.8776 48.4564 60.1697L36.2417 67.2237C35.7224 67.5159 35.1382 67.5159 34.6297 67.2237C34.1212 66.9316 33.8183 66.4123 33.8183 65.8281V51.72C33.8183 51.1358 34.1104 50.6165 34.6297 50.3244Z" fill="#006A4D"/>
<path fill-rule="evenodd" clip-rule="evenodd" d="M20.0688 39.2026L32.2835 32.1486C32.8028 31.8565 33.387 31.8565 33.8955 32.1486L46.1102 39.2026C46.6295 39.4947 46.9217 40.014 46.9217 40.6091C46.9217 41.2041 46.6295 41.7126 46.1102 42.0047L33.8955 49.0588C33.3762 49.3509 32.792 49.3509 32.2835 49.0588L20.0688 42.0047C19.5495 41.7126 19.2573 41.1933 19.2573 40.6091C19.2573 40.0249 19.5495 39.4947 20.0688 39.2026Z" fill="#6CF479"/>
<path fill-rule="evenodd" clip-rule="evenodd" d="M48.6093 45.8775L48.3063 57.7351C48.3063 58.4925 47.9277 59.1308 47.2785 59.5095L37.3899 65.6763C36.7408 66.055 42.5073 62.1385 45.3419 57.5404C47.9818 53.2452 48.6093 45.1093 48.6093 45.8666V45.8775Z" fill="black"/>
<path fill-rule="evenodd" clip-rule="evenodd" d="M2.42347 72.223L4.97676 73.7052L14.6165 79.277C15.1358 79.5692 15.428 80.0885 15.428 80.6727V94.7807C15.428 95.365 15.1358 95.8843 14.6165 96.1764C14.0972 96.4685 13.513 96.4685 13.0045 96.1764L0.80061 89.1224C0.292114 88.8303 0 88.311 0 87.7267V73.6295C0 73.0236 0.292114 72.5151 0.811429 72.223C1.33074 71.9309 1.91497 71.9309 2.42347 72.223Z" fill="black"/>
<path fill-rule="evenodd" clip-rule="evenodd" d="M17.711 79.277L29.9257 72.223C30.445 71.9309 31.0293 71.9309 31.5378 72.223C32.0571 72.5151 32.3492 73.0345 32.3492 73.6295V87.7267C32.3492 88.311 32.0571 88.8303 31.5378 89.1224L19.3231 96.1764C18.8037 96.4685 18.2195 96.4685 17.711 96.1764C17.2025 95.8843 16.8996 95.365 16.8996 94.7807V80.6727C16.8996 80.0885 17.1917 79.5692 17.711 79.277Z" fill="#006A4D"/>
<path fill-rule="evenodd" clip-rule="evenodd" d="M3.14791 68.1432L15.3626 61.0892C15.8819 60.7971 16.4662 60.7971 16.9747 61.0892L29.1894 68.1432C29.7087 68.4354 30.0008 68.9547 30.0008 69.5497C30.0008 70.1339 29.7087 70.6533 29.1894 70.9454L16.9747 77.9994C16.4553 78.2915 15.8711 78.2915 15.3626 77.9994L3.14791 70.9454C2.62859 70.6533 2.33648 70.1339 2.33648 69.5497C2.33648 68.9655 2.62859 68.4354 3.14791 68.1432Z" fill="#6CF479"/>
<path fill-rule="evenodd" clip-rule="evenodd" d="M7.20461 66.9857L15.4054 62.5066C15.9248 62.2145 16.509 62.2145 17.0175 62.5066L25.1318 66.8126C25.6511 67.1047 20.696 64.7137 16.4441 64.6055C12.4735 64.4973 6.68529 67.2887 7.19379 66.9965L7.20461 66.9857Z" fill="white"/>
<path fill-rule="evenodd" clip-rule="evenodd" d="M31.6884 74.8192L31.3855 86.6769C31.3855 87.4342 31.0068 88.0725 30.3577 88.4512L20.4691 94.618C19.8199 94.9967 25.5865 91.0802 28.4211 86.4821C31.0609 82.187 31.6884 74.051 31.6884 74.8084V74.8192Z" fill="black"/>
<path fill-rule="evenodd" clip-rule="evenodd" d="M53.1776 43.2173L65.3815 50.2713C65.9008 50.5635 66.1929 51.0828 66.1929 51.667V65.775C66.1929 66.3593 65.9008 66.8786 65.3815 67.1707C64.8622 67.4628 64.2779 67.4628 63.7694 67.1707L51.5656 60.1167C51.0462 59.8246 50.7541 59.3052 50.7541 58.721V44.613C50.7541 44.0287 51.0462 43.5094 51.5656 43.2173C52.0849 42.9252 52.6691 42.9252 53.1776 43.2173Z" fill="black"/>
<path fill-rule="evenodd" clip-rule="evenodd" d="M68.4651 50.2823L80.6799 43.2282C81.1992 42.9361 81.7834 42.9361 82.2919 43.2282C82.8112 43.5204 83.1033 44.0397 83.1033 44.6239V58.7319C83.1033 59.3162 82.8112 59.8355 82.2919 60.1276L70.0772 67.1816C69.5579 67.4737 68.9736 67.4737 68.4651 67.1816C67.9458 66.8895 67.6537 66.3702 67.6537 65.786V51.6779C67.6537 51.0937 67.9458 50.5744 68.4651 50.2823Z" fill="#006A4D"/>
<path fill-rule="evenodd" clip-rule="evenodd" d="M53.902 39.2031L66.1167 32.1491C66.6361 31.857 67.2203 31.857 67.7288 32.1491L79.9435 39.2031C80.4628 39.4952 80.7549 40.0145 80.7549 40.6096C80.7549 41.2046 80.4628 41.7131 79.9435 42.0052L67.7288 49.0593C67.2095 49.3514 66.6252 49.3514 66.1167 49.0593L53.902 42.0052C53.3827 41.7131 53.0906 41.1938 53.0906 40.6096C53.0906 40.0037 53.3827 39.4952 53.902 39.2031Z" fill="#6CF479"/>
<path fill-rule="evenodd" clip-rule="evenodd" d="M57.95 38.0347L66.1508 33.5556C66.6702 33.2635 67.2544 33.2635 67.7629 33.5556L75.8772 37.8616C76.3965 38.1537 71.4413 35.7627 67.1895 35.6545C63.2189 35.5463 57.4307 38.3376 57.9392 38.0455L57.95 38.0347Z" fill="white"/>
<path fill-rule="evenodd" clip-rule="evenodd" d="M24.1311 38.0347L32.332 33.5556C32.8513 33.2635 33.4355 33.2635 33.944 33.5556L42.0583 37.8616C42.5776 38.1537 37.6225 35.7627 33.3706 35.6545C29.4 35.5463 23.6118 38.3376 24.1203 38.0455L24.1311 38.0347Z" fill="white"/>
<path fill-rule="evenodd" clip-rule="evenodd" d="M81.9573 45.4889L81.6544 57.3466C81.6544 58.1039 81.2757 58.7423 80.6266 59.1209L70.738 65.2878C70.0888 65.6664 75.8554 61.7499 78.69 57.1519C81.3298 52.8567 81.9573 44.7208 81.9573 45.4781V45.4889Z" fill="black"/>
<path fill-rule="evenodd" clip-rule="evenodd" d="M36.2551 72.1903L38.8084 73.6726L48.4482 79.2444C48.9675 79.5365 49.2596 80.0558 49.2596 80.64V94.7481C49.2596 95.3323 48.9675 95.8516 48.4482 96.1437C47.9289 96.4358 47.3446 96.4358 46.8361 96.1437L34.6322 89.0897C34.1129 88.7976 33.8208 88.2783 33.8208 87.694V73.5968C33.8208 72.991 34.1129 72.4825 34.6322 72.1903C35.1516 71.8982 35.7358 71.8982 36.2443 72.1903H36.2551Z" fill="black"/>
<path fill-rule="evenodd" clip-rule="evenodd" d="M51.5449 79.2444L63.7597 72.1903C64.279 71.8982 64.8632 71.8982 65.3717 72.1903C65.891 72.4825 66.1831 73.0018 66.1831 73.5968V87.694C66.1831 88.2783 65.891 88.7976 65.3717 89.0897L53.157 96.1437C52.6377 96.4358 52.0534 96.4358 51.5449 96.1437C51.0364 95.8516 50.7335 95.3323 50.7335 94.7481V80.64C50.7335 80.0558 51.0256 79.5365 51.5449 79.2444Z" fill="#006A4D"/>
<path fill-rule="evenodd" clip-rule="evenodd" d="M36.9796 68.1226L49.1944 61.0686C49.7137 60.7765 50.2979 60.7765 50.8064 61.0686L63.0211 68.1226C63.5404 68.4147 63.8325 68.934 63.8325 69.5291C63.8325 70.1133 63.5404 70.6326 63.0211 70.9247L50.8064 77.9788C50.2871 78.2709 49.7029 78.2709 49.1944 77.9788L36.9796 70.9247C36.4603 70.6326 36.1682 70.1133 36.1682 69.5291C36.1682 68.9232 36.4603 68.4147 36.9796 68.1226Z" fill="#6CF479"/>
<path fill-rule="evenodd" clip-rule="evenodd" d="M65.5202 74.7974L65.2172 86.6551C65.2172 87.4125 64.8386 88.0508 64.1894 88.4295L54.3008 94.5963C53.6517 94.975 59.4182 91.0585 62.2528 86.4604C64.8927 82.1652 65.5202 74.0293 65.5202 74.7866V74.7974Z" fill="black"/>
<path fill-rule="evenodd" clip-rule="evenodd" d="M70.0722 72.1793L82.2761 79.2333C82.7954 79.5254 83.0875 80.0448 83.0875 80.629V94.737C83.0875 95.3213 82.7954 95.8406 82.2761 96.1327C81.7567 96.4248 81.1725 96.4248 80.664 96.1327L68.4601 89.0787C67.9408 88.7866 67.6487 88.2672 67.6487 87.683V73.575C67.6487 72.9907 67.9408 72.4714 68.4601 72.1793C68.9794 71.8872 69.5637 71.8872 70.0722 72.1793Z" fill="black"/>
<path fill-rule="evenodd" clip-rule="evenodd" d="M85.3597 79.2443L97.5744 72.1902C98.0937 71.8981 98.678 71.8981 99.1865 72.1902C99.7058 72.4824 99.9979 73.0017 99.9979 73.5859V87.6939C99.9979 88.2782 99.7058 88.7975 99.1865 89.0896L86.9717 96.1436C86.4524 96.4357 85.8682 96.4357 85.3597 96.1436C84.8404 95.8515 84.5483 95.3322 84.5483 94.748V80.6399C84.5483 80.0557 84.8404 79.5364 85.3597 79.2443Z" fill="#006A4D"/>
<path fill-rule="evenodd" clip-rule="evenodd" d="M70.7966 68.1651L83.0113 61.1111C83.5306 60.819 84.1149 60.819 84.6233 61.1111L96.8381 68.1651C97.3574 68.4572 97.6495 68.9765 97.6495 69.5716C97.6495 70.1666 97.3574 70.6751 96.8381 70.9672L84.6233 78.0213C84.104 78.3134 83.5198 78.3134 83.0113 78.0213L70.7966 70.9672C70.2773 70.6751 69.9852 70.1558 69.9852 69.5716C69.9852 68.9657 70.2773 68.4572 70.7966 68.1651Z" fill="#6CF479"/>
<path fill-rule="evenodd" clip-rule="evenodd" d="M74.8533 66.9967L83.0541 62.5176C83.5735 62.2254 84.1577 62.2254 84.6662 62.5176L92.7805 66.8235C93.2998 67.1157 88.3447 64.7246 84.0928 64.6165C80.1222 64.5083 74.334 67.2996 74.8425 67.0075L74.8533 66.9967Z" fill="white"/>
<path fill-rule="evenodd" clip-rule="evenodd" d="M98.8606 74.4509L98.5577 86.3086C98.5577 87.0659 98.179 87.7042 97.5299 88.0829L87.6413 94.2498C86.9921 94.6284 92.7587 90.7119 95.5933 86.1138C98.2331 81.8187 98.8606 73.6828 98.8606 74.4401V74.4509Z" fill="black"/>
<path fill-rule="evenodd" clip-rule="evenodd" d="M41.0354 66.9856L49.2363 62.5066C49.7556 62.2144 50.3398 62.2144 50.8483 62.5066L58.9626 66.8125C59.4819 67.1047 54.5268 64.7136 50.2749 64.6054C46.3043 64.4973 40.5161 67.2886 41.0246 66.9965L41.0354 66.9856Z" fill="white"/>
</g>
</g>
</g>
</g>
</g>
</svg>
