<svg width="100" height="100" viewBox="0 0 100 100" fill="none" xmlns="http://www.w3.org/2000/svg">
<rect width="100" height="100" fill="#1E1E1E"/>
<g id="Default">
<path d="M-105 -5847C-105 -5848.11 -104.105 -5849 -103 -5849H1103C1104.1 -5849 1105 -5848.1 1105 -5847V27359C1105 27360.1 1104.1 27361 1103 27361H-103C-104.105 27361 -105 27360.1 -105 27359V-5847Z" fill="white"/>
<path d="M-103 -5849V-5848H1103V-5849V-5850H-103V-5849ZM1105 -5847H1104V27359H1105H1106V-5847H1105ZM1103 27361V27360H-103V27361V27362H1103V27361ZM-105 27359H-104V-5847H-105H-106V27359H-105ZM-103 27361V27360C-103.552 27360 -104 27359.6 -104 27359H-105H-106C-106 27360.7 -104.657 27362 -103 27362V27361ZM1105 27359H1104C1104 27359.6 1103.55 27360 1103 27360V27361V27362C1104.66 27362 1106 27360.7 1106 27359H1105ZM1103 -5849V-5848C1103.55 -5848 1104 -5847.55 1104 -5847H1105H1106C1106 -5848.66 1104.66 -5850 1103 -5850V-5849ZM-103 -5849V-5850C-104.656 -5850 -106 -5848.66 -106 -5847H-105H-104C-104 -5847.55 -103.553 -5848 -103 -5848V-5849Z" fill="white" fill-opacity="0.1"/>
<g id="_Cup of Tea">
<rect x="-24.5" y="-24.5" width="1049" height="149" rx="4.5" stroke="#9747FF" stroke-dasharray="10 5"/>
<g id="Brand=Lloyds - V2">
<rect width="100" height="100" fill="#C7FFC6"/>
<g id="Path">
<path d="M76.9365 8.86218C76.9365 8.86218 79.5205 17.4536 90 19.8374C90 19.8374 82.0566 21.2133 81.8971 30.7806C81.8971 30.7806 79.0978 22.4932 69.049 19.8294C69.049 19.8294 77.4469 18.8295 76.9285 8.86218H76.9365Z" fill="#006A4D"/>
<path d="M35.1699 21.4164C21.4365 21.4164 10.3031 24.8561 10.3031 29.1118C10.3031 33.3675 21.4365 36.8073 35.1699 36.8073C48.9033 36.8073 60.0368 33.3595 60.0368 29.1118C60.0368 24.8641 48.9033 21.4164 35.1699 21.4164Z" fill="#6CF479"/>
<path d="M30.6798 82.5765C42.101 82.5765 51.3597 79.7113 51.3597 76.177C51.3597 72.6426 42.101 69.7774 30.6798 69.7774C19.2587 69.7774 10 72.6426 10 76.177C10 79.7113 19.2587 82.5765 30.6798 82.5765Z" fill="black"/>
<path d="M35.1701 35.0124C43.6318 35.0124 50.993 33.6845 54.7414 31.7326C52.4046 29.0608 44.541 27.1009 35.1701 27.1009C25.7992 27.1009 17.9435 29.0688 15.5988 31.7326C19.3472 33.6845 26.7083 35.0124 35.1701 35.0124Z" fill="black"/>
<path d="M65.7472 31.3079C62.565 31.0919 59.8694 32.6678 58.4099 33.7477C53.6327 37.0035 44.1661 38.5314 35.17 38.5314C25.52 38.5314 15.3196 36.7715 10.9571 33.0118C11.0369 41.5552 12.0019 61.4817 18.8766 76.8086H18.9005C20.0489 79.2725 26.8837 81.1683 35.162 81.1683C43.4404 81.1683 50.5623 79.2005 51.4954 76.6646C52.899 73.5369 54.0474 70.2171 54.9965 66.8493C55.4192 65.3535 56.2486 64.0096 57.4449 63.0256C59.2074 61.5937 61.289 59.7299 63.2987 57.554C68.2035 52.2344 70.5004 47.3068 71.3298 43.0511C72.6856 36.1076 70.5084 31.6279 65.7232 31.3079H65.7472ZM64.7502 50.9625C62.6926 54.0183 60.3559 56.5141 58.378 58.354C57.8437 58.8499 57.0063 58.378 57.1339 57.666C58.3621 51.0025 58.9363 44.6269 59.1995 39.5633C59.3111 37.3635 60.7227 35.4436 62.7804 34.6917L62.8202 34.6757C66.6404 33.2758 68.2833 35.3956 68.706 37.1795C69.0569 38.6354 69.4875 43.907 64.7423 50.9625H64.7502Z" fill="#6CF479"/>
<path d="M56.3443 37.625C56.3443 37.625 55.9854 54.9998 49.0071 74.6704C49.0071 74.6704 52.4923 60.9114 47.0851 52.584C47.0851 52.584 54.0634 49.4482 56.3523 37.617L56.3443 37.625Z" fill="white"/>
<path d="M33.8063 29.4299C33.8063 29.4299 28.3034 22.1984 36.6694 14.7349C41.8374 10.1353 46.9734 4.56767 45.6894 0C45.6894 0 52.5641 7.39947 43.7275 16.2628C38.6233 21.3825 34.6995 23.7023 33.8063 29.4299Z" fill="#006A4D"/>
<path d="M59.4974 76.42C59.861 76.2828 60.0697 75.9422 59.9636 75.6594C59.8575 75.3765 59.4767 75.2585 59.1131 75.3958C58.7495 75.533 58.5407 75.8736 58.6469 76.1564C58.753 76.4393 59.1338 76.5573 59.4974 76.42Z" fill="#006A4D"/>
<path d="M58.6478 91.696C59.0114 91.5588 59.2201 91.2182 59.114 90.9354C59.0079 90.6526 58.6271 90.5346 58.2635 90.6718C57.8998 90.8091 57.6911 91.1496 57.7972 91.4324C57.9034 91.7153 58.2841 91.8333 58.6478 91.696Z" fill="#006A4D"/>
<path d="M60.7544 86.7603C61.118 86.6231 61.3267 86.2825 61.2206 85.9997C61.1145 85.7168 60.7337 85.5988 60.3701 85.7361C60.0065 85.8733 59.7977 86.2139 59.9038 86.4967C60.01 86.7795 60.3907 86.8976 60.7544 86.7603Z" fill="#006A4D"/>
<path d="M62.8066 81.6878C63.1702 81.5506 63.3789 81.21 63.2728 80.9272C63.1667 80.6444 62.7859 80.5263 62.4223 80.6636C62.0587 80.8009 61.85 81.1414 61.9561 81.4242C62.0622 81.7071 62.443 81.8251 62.8066 81.6878Z" fill="#006A4D"/>
<path d="M64.6409 77.3642C65.0045 77.2269 65.2133 76.8864 65.1072 76.6035C65.001 76.3207 64.6203 76.2027 64.2566 76.34C63.893 76.4772 63.6843 76.8177 63.7904 77.1006C63.8965 77.3834 64.2773 77.5014 64.6409 77.3642Z" fill="#006A4D"/>
<path d="M70.289 99.9923C79.8707 100.237 87.8564 94.6072 87.9029 88.3534C87.9477 82.0951 80.2174 76.8229 70.6402 76.5763C61.0586 76.3314 53.2545 81.2056 53.208 87.4594C53.1633 93.7177 60.7119 99.7457 70.2935 99.9906L70.289 99.9923Z" fill="#11B67A"/>
<path d="M78.281 95.0488C75.8625 95.9617 73.1567 96.4087 70.457 96.3405C61.8668 96.1214 54.6455 90.775 54.6916 84.6701C54.7208 80.946 57.607 77.641 62.4126 75.827C64.9297 74.8769 67.8242 74.4151 70.7877 74.4913C79.6115 74.7197 86.7578 79.6482 86.7164 85.4796C86.6874 89.3677 83.3777 93.1248 78.281 95.0488Z" fill="#6CF479"/>
<path d="M70.7605 69.3609C67.415 69.275 64.2887 69.814 61.6284 70.8183C56.675 72.6881 53.3566 76.1767 53.33 80.2485C53.2852 86.5068 60.8338 92.5348 70.4155 92.7797C73.4882 92.8609 76.3983 92.3317 78.9332 91.3748C84.3032 89.3478 87.9974 85.389 88.0277 81.1363C88.0724 74.878 80.3421 69.6058 70.765 69.3592L70.7605 69.3609Z" fill="#11B67A"/>
<path d="M70.7983 85.4623C74.5986 85.5612 77.7678 83.3238 77.7839 80.8458C77.8028 78.3616 74.7384 76.272 70.9337 76.1748C67.1334 76.0759 64.0345 78.0098 64.02 80.4923C64.0011 82.9765 66.9936 85.3651 70.7983 85.4623Z" fill="black"/>
<path d="M58.3681 87.2147C58.3681 87.2147 58.3508 84.3339 63.5933 83.5345C63.5933 83.5345 56.961 81.7609 58.3681 87.2147Z" fill="#6CF479"/>
<path d="M56.2571 77.6807C56.2571 77.6807 58.1101 75.4786 62.6159 78.2755C62.6159 78.2755 59.6397 72.578 56.2571 77.6807Z" fill="#6CF479"/>
<path d="M64.1416 71.1383C64.1416 71.1383 66.729 71.0027 67.6698 75.7043C67.6698 75.7043 68.9817 69.6344 64.1416 71.1383Z" fill="#6CF479"/>
<path d="M75.6027 70.3347C75.6027 70.3347 77.0049 72.5184 73.4045 75.6776C73.4045 75.6776 79.3072 73.8033 75.6027 70.3347Z" fill="#6CF479"/>
<path d="M83.3061 75.1058C83.3061 75.1058 83.0655 77.6942 78.2944 77.9515C78.2944 77.9515 84.0911 80.1277 83.3061 75.1058Z" fill="#6CF479"/>
<path d="M84.753 83.6388C84.753 83.6388 82.7201 85.2523 79.2404 81.9605C79.2404 81.9605 81.675 87.6726 84.753 83.6388Z" fill="#6CF479"/>
<path d="M77.7394 90.1368C77.7394 90.1368 74.8122 88.9852 75.166 85.472C75.166 85.472 72.3987 90.3886 77.7394 90.1368Z" fill="#6CF479"/>
<path d="M67.3191 91.0062C67.3191 91.0062 65.7161 88.9958 68.8618 85.9056C68.8618 85.9056 63.3394 87.8671 67.3191 91.0062Z" fill="#6CF479"/>
<path d="M72.2209 77.2876C69.2948 76.6433 66.1167 77.8892 65.0339 79.6775C65.0339 79.6775 69.3229 76.6635 72.9952 80.4007C72.9952 80.4007 74.4966 78.8287 76.8505 80.1557C75.9908 78.7365 74.2355 77.7375 72.2226 77.2921L72.2209 77.2876Z" fill="white"/>
<path d="M86.3268 86.0159C84.7388 88.2565 82.1383 90.1561 78.9316 91.3666C76.3966 92.3235 73.4848 92.8483 70.4138 92.7715C63.6394 92.5953 57.8832 89.5319 55.1067 85.5387C54.6046 84.841 54.1346 83.8747 54.1346 83.8747C54.1914 84.5302 54.4204 85.849 54.4204 85.849C55.2359 91.6338 62.2292 96.4816 70.4542 96.695C73.1965 96.7676 75.9504 96.3127 78.4137 95.3828C83.3134 93.5333 86.6076 90.0076 87.0339 86.2516C87.1256 85.5965 87.0759 84.81 87.0759 84.81C86.8681 85.2372 86.3313 86.0143 86.3313 86.0143L86.3268 86.0159ZM78.1547 94.7062C75.8661 95.5701 73.2416 96.0428 70.4691 95.9714C63.1536 95.7839 57.1511 91.8597 55.5029 87.2353C58.7047 90.8219 64.2339 93.335 70.3928 93.4923C73.4229 93.5691 76.4614 93.0684 79.1844 92.0405C81.9074 91.0126 84.3626 89.3934 86.02 87.5421C85.0596 90.5561 82.1094 93.2134 78.1547 94.7062Z" fill="#6CF479"/>
</g>
</g>
</g>
</g>
</svg>
