<svg width="100" height="100" viewBox="0 0 100 100" fill="none" xmlns="http://www.w3.org/2000/svg">
<rect width="100" height="100" fill="#1E1E1E"/>
<g id="Default">
<path d="M-105 -6059C-105 -6060.11 -104.105 -6061 -103 -6061H1103C1104.1 -6061 1105 -6060.1 1105 -6059V27147C1105 27148.1 1104.1 27149 1103 27149H-103C-104.105 27149 -105 27148.1 -105 27147V-6059Z" fill="white"/>
<path d="M-103 -6061V-6060H1103V-6061V-6062H-103V-6061ZM1105 -6059H1104V27147H1105H1106V-6059H1105ZM1103 27149V27148H-103V27149V27150H1103V27149ZM-105 27147H-104V-6059H-105H-106V27147H-105ZM-103 27149V27148C-103.552 27148 -104 27147.6 -104 27147H-105H-106C-106 27148.7 -104.657 27150 -103 27150V27149ZM1105 27147H1104C1104 27147.6 1103.55 27148 1103 27148V27149V27150C1104.66 27150 1106 27148.7 1106 27147H1105ZM1103 -6061V-6060C1103.55 -6060 1104 -6059.55 1104 -6059H1105H1106C1106 -6060.66 1104.66 -6062 1103 -6062V-6061ZM-103 -6061V-6062C-104.656 -6062 -106 -6060.66 -106 -6059H-105H-104C-104 -6059.55 -103.553 -6060 -103 -6060V-6061Z" fill="white" fill-opacity="0.1"/>
<g id="_Debt">
<rect x="-24.5" y="-24.5" width="1049" height="149" rx="4.5" stroke="#9747FF" stroke-dasharray="10 5"/>
<g id="Brand=Lloyds - V2">
<rect width="100" height="100" fill="#C7FFC6"/>
<g id="Path">
<path d="M50.8415 99.3743L16.9776 79.7518C15.4174 78.8488 15.114 76.7216 16.3534 75.4193L57.2555 32.3541C58.6337 30.9041 60.8352 30.5829 62.5687 31.5901L96.6407 51.3341C98.2008 52.237 98.5043 54.3642 97.2648 55.6666L56.5275 98.5581C55.0453 100.112 52.6964 100.451 50.8415 99.3743Z" fill="black"/>
<path d="M50.8415 97.2274L16.9776 77.6049C15.4174 76.702 15.114 74.5748 16.3534 73.2724L57.2555 30.2072C58.6337 28.7573 60.8352 28.436 62.5687 29.4432L96.6407 49.1872C98.2008 50.0902 98.5043 52.2174 97.2648 53.5197L56.5275 96.4112C55.0453 97.9654 52.6964 98.304 50.8415 97.2274Z" fill="#6CF479"/>
<path d="M50.8415 97.2274L16.9776 77.6049C15.4174 76.702 15.114 74.5748 16.3534 73.2724L57.2555 30.2072C58.6337 28.7573 60.8352 28.436 62.5687 29.4432L96.6407 49.1872C98.2008 50.0902 98.5043 52.2174 97.2648 53.5197L56.5275 96.4112C55.0453 97.9654 52.6964 98.304 50.8415 97.2274Z" fill="black"/>
<path d="M81.325 38.0639L31.0361 91.0097L38.9928 95.6201L89.2818 42.683L81.325 38.0639Z" fill="black"/>
<path d="M55.4178 66.3763L8.81255 81.7703L31.9635 49.1849L57.7061 54.1947L62.5685 61.9308L55.4178 66.3763Z" fill="black"/>
<path d="M68.3067 48.1974L55.1667 6.43467C54.6813 4.88918 53.0086 3.86466 51.4224 4.1425L24.111 9.03075L15.6689 7.75442L14.1174 10.9843C13.7447 11.6615 13.6406 12.4169 13.8833 13.2157L30.1523 64.9199C30.6377 66.4654 32.3104 67.4899 33.8966 67.2121L69.7715 60.7957C70.6295 60.6395 71.2709 60.1272 71.609 59.45L73.3079 56.003L68.3067 48.1974Z" fill="black"/>
<path d="M35.5608 63.7749L71.4356 57.3586C73.0131 57.0721 73.8972 55.596 73.4119 54.0419L57.1429 2.33762C56.6575 0.792132 54.9846 -0.232388 53.3985 0.0454518L17.5237 6.4618C15.9462 6.74832 15.0621 8.22435 15.5475 9.77852L31.8164 61.4828C32.3018 63.0282 33.9746 64.0528 35.5608 63.7749Z" fill="#11B67A"/>
<path d="M23.253 18.9475L55.7389 13.1303C56.3716 13.0174 56.7356 12.4183 56.5362 11.7932L54.3174 4.73429C54.118 4.10915 53.442 3.70107 52.8093 3.81395L20.3234 9.63122C19.6907 9.7441 19.3266 10.3432 19.526 10.9683L21.7449 18.0272C21.9443 18.6523 22.6203 19.0604 23.253 18.9475Z" fill="black"/>
<path d="M36.7572 30.1049L41.0996 29.3235C41.6717 29.2193 41.9923 28.6809 41.819 28.1253L40.4756 23.8708C40.3022 23.3065 39.6955 22.9418 39.1147 23.0373L34.7723 23.8188C34.2002 23.9229 33.8796 24.4613 34.0529 25.0169L35.3964 29.2714C35.5698 29.8357 36.1765 30.2004 36.7572 30.1049Z" fill="#6CF479"/>
<path d="M27.5348 31.7532L31.8773 30.9718C32.4493 30.8676 32.77 30.3293 32.5966 29.7736L31.2532 25.5192C31.0799 24.9548 30.4731 24.5901 29.8924 24.6857L25.5499 25.4671C24.9779 25.5713 24.6572 26.1096 24.8306 26.6653L26.1741 30.9197C26.3474 31.484 26.9541 31.8487 27.5348 31.7532Z" fill="#6CF479"/>
<path d="M45.9707 28.4532L50.3131 27.6718C50.8852 27.5676 51.2058 27.0293 51.0325 26.4736L49.6891 22.2192C49.5157 21.6548 48.9089 21.2901 48.3282 21.3856L43.9858 22.1671C43.4137 22.2713 43.0931 22.8096 43.2664 23.3652L44.6099 27.6197C44.7833 28.184 45.3899 28.5487 45.9707 28.4532Z" fill="#6CF479"/>
<path d="M55.1926 26.8049L59.535 26.0235C60.1071 25.9193 60.4278 25.3809 60.2544 24.8253L58.911 20.5708C58.7376 20.0065 58.1309 19.6418 57.5501 19.7373L53.2077 20.5187C52.6357 20.6229 52.315 21.1612 52.4883 21.7169L53.8317 25.9713C54.0051 26.5357 54.6119 26.9004 55.1926 26.8049Z" fill="#6CF479"/>
<path d="M64.7184 39.0132L68.9135 52.2627C69.0868 52.827 68.7661 53.3654 68.1941 53.4609L63.8516 54.2423C63.2796 54.3465 62.6729 53.9731 62.4909 53.4088L58.2957 40.1593C58.1224 39.5949 58.4432 39.0566 59.0152 38.9611L63.3576 38.1797C63.9297 38.0755 64.5364 38.4488 64.7184 39.0132Z" fill="#6CF479"/>
<path d="M42.5642 48.5552L46.9066 47.7737C47.4787 47.6696 47.7994 47.1312 47.6261 46.5756L46.2826 42.3211C46.1092 41.7568 45.5025 41.3921 44.9218 41.4876L40.5794 42.269C40.0073 42.3732 39.6866 42.9116 39.8599 43.4672L41.2034 47.7216C41.3768 48.286 41.9834 48.6507 42.5642 48.5552Z" fill="#006A4D"/>
<path d="M51.7776 46.9035L56.1201 46.1221C56.6921 46.0179 57.0129 45.4795 56.8396 44.9239L55.496 40.6695C55.3227 40.1051 54.716 39.7404 54.1353 39.8359L49.7929 40.6174C49.2208 40.7216 48.9 41.2598 49.0734 41.8155L50.4169 46.07C50.5902 46.6343 51.1969 46.999 51.7776 46.9035Z" fill="#006A4D"/>
<path d="M33.3939 50.2306L37.7363 49.4492C38.3084 49.345 38.629 48.8067 38.4557 48.251L37.1123 43.9966C36.9389 43.4322 36.3321 43.0676 35.7514 43.1631L31.409 43.9445C30.8369 44.0487 30.5163 44.587 30.6896 45.1427L32.0331 49.3971C32.2065 49.9615 32.8132 50.3261 33.3939 50.2306Z" fill="#006A4D"/>
<path d="M45.4594 57.7769L49.8019 56.9955C50.3739 56.8913 50.6946 56.353 50.5212 55.7973L49.1777 51.5429C49.0044 50.9785 48.3977 50.6139 47.817 50.7094L43.4745 51.4908C42.9025 51.595 42.5818 52.1333 42.7552 52.689L44.0986 56.9434C44.2719 57.5078 44.8787 57.8724 45.4594 57.7769Z" fill="#006A4D"/>
<path d="M54.6814 56.1252L59.0238 55.3438C59.5958 55.2396 59.9165 54.7013 59.7432 54.1456L58.3996 49.8912C58.2263 49.3268 57.6196 48.9622 57.0389 49.0577L52.6965 49.8391C52.1244 49.9433 51.8037 50.4816 51.9771 51.0373L53.3205 55.2917C53.4938 55.8561 54.1006 56.2207 54.6814 56.1252Z" fill="#006A4D"/>
<path d="M36.2976 59.4524L40.64 58.6709C41.2121 58.5668 41.5328 58.0284 41.3595 57.4728L40.016 53.2183C39.8426 52.654 39.2359 52.2893 38.6552 52.3848L34.3128 53.1663C33.7407 53.2704 33.42 53.8088 33.5933 54.3644L34.9368 58.6189C35.1102 59.1832 35.7169 59.5479 36.2976 59.4524Z" fill="#006A4D"/>
<path d="M39.6605 39.3266L44.0029 38.5452C44.575 38.441 44.8957 37.9027 44.7224 37.347L43.3789 33.0926C43.2055 32.5282 42.5987 32.1636 42.018 32.2591L37.6757 33.0405C37.1036 33.1447 36.7829 33.683 36.9562 34.2387L38.2997 38.4931C38.4731 39.0575 39.0797 39.4221 39.6605 39.3266Z" fill="#006A4D"/>
<path d="M30.4385 40.9749L34.781 40.1935C35.353 40.0893 35.6738 39.551 35.5004 38.9953L34.1569 34.7409C33.9836 34.1766 33.3769 33.8119 32.7962 33.9074L28.4537 34.6888C27.8817 34.793 27.5609 35.3313 27.7343 35.887L29.0778 40.1414C29.2511 40.7058 29.8578 41.0704 30.4385 40.9749Z" fill="#006A4D"/>
<path d="M48.8739 37.6749L53.2164 36.8935C53.7884 36.7893 54.1091 36.251 53.9357 35.6953L52.5923 31.4409C52.419 30.8765 51.8122 30.5119 51.2315 30.6074L46.8891 31.3888C46.3171 31.493 45.9963 32.0313 46.1697 32.587L47.5132 36.8414C47.6865 37.4058 48.2932 37.7704 48.8739 37.6749Z" fill="#006A4D"/>
<path d="M58.0963 36.0266L62.4387 35.2452C63.0108 35.141 63.3315 34.6027 63.1581 34.047L61.8147 29.7926C61.6414 29.2282 61.0346 28.8636 60.4538 28.9591L56.1114 29.7405C55.5394 29.8447 55.2187 30.383 55.392 30.9387L56.7355 35.1931C56.9089 35.7575 57.5156 36.1221 58.0963 36.0266Z" fill="#006A4D"/>
<path d="M23.253 18.9475L55.7389 13.1303C56.3716 13.0174 56.7356 12.4183 56.5362 11.7932L54.3174 4.73429C54.118 4.10915 53.442 3.70107 52.8093 3.81395L20.3234 9.63122C19.6907 9.7441 19.3266 10.3432 19.526 10.9683L21.7449 18.0272C21.9443 18.6523 22.6203 19.0604 23.253 18.9475Z" fill="black"/>
<path d="M22.5941 20.0596L55.0799 14.2424C55.7127 14.1295 56.0767 13.5304 55.8774 12.9053L53.5197 5.42097C53.3984 5.03026 52.9824 4.77846 52.5837 4.84792L19.6645 10.7433C19.0317 10.8562 18.6677 11.4553 18.867 12.0804L21.086 19.1393C21.2853 19.7644 21.9614 20.1725 22.5941 20.0596Z" fill="#2F8260"/>
<path d="M10.3208 66.8122C4.39222 62.0107 5.22429 53.1112 11.9416 46.252C10.1994 42.0237 11.6903 36.5016 15.8767 31.6741C12.0803 34.2615 8.49194 37.8127 5.53631 41.9889C-1.94376 52.5555 0.283783 66.1436 9.31534 70.1289C13.5624 72.0043 18.6676 71.6396 23.6167 69.5298C18.5722 70.3807 13.6925 69.5385 10.3208 66.8122Z" fill="#006A4D"/>
</g>
</g>
</g>
</g>
</svg>
