<svg width="100" height="100" viewBox="0 0 100 100" fill="none" xmlns="http://www.w3.org/2000/svg">
<rect width="100" height="100" fill="#1E1E1E"/>
<g id="Default">
<path d="M-105 -6695C-105 -6696.11 -104.105 -6697 -103 -6697H1103C1104.1 -6697 1105 -6696.1 1105 -6695V26511C1105 26512.1 1104.1 26513 1103 26513H-103C-104.105 26513 -105 26512.1 -105 26511V-6695Z" fill="white"/>
<path d="M-103 -6697V-6696H1103V-6697V-6698H-103V-6697ZM1105 -6695H1104V26511H1105H1106V-6695H1105ZM1103 26513V26512H-103V26513V26514H1103V26513ZM-105 26511H-104V-6695H-105H-106V26511H-105ZM-103 26513V26512C-103.552 26512 -104 26511.6 -104 26511H-105H-106C-106 26512.7 -104.657 26514 -103 26514V26513ZM1105 26511H1104C1104 26511.6 1103.55 26512 1103 26512V26513V26514C1104.66 26514 1106 26512.7 1106 26511H1105ZM1103 -6697V-6696C1103.55 -6696 1104 -6695.55 1104 -6695H1105H1106C1106 -6696.66 1104.66 -6698 1103 -6698V-6697ZM-103 -6697V-6698C-104.656 -6698 -106 -6696.66 -106 -6695H-105H-104C-104 -6695.55 -103.553 -6696 -103 -6696V-6697Z" fill="white" fill-opacity="0.1"/>
<g id="_Diary">
<rect x="-24.5" y="-24.5" width="1049" height="149" rx="4.5" stroke="#9747FF" stroke-dasharray="10 5"/>
<g id="Brand=Lloyds - V2" clip-path="url(#clip0_4483_4)">
<rect width="100" height="100" fill="#C7FFC6"/>
<g id="Path">
<path d="M90.3393 73.8778L88.3964 71.3995L87.7854 70.6237L70.3408 48.4077C69.3453 47.1376 66.9356 46.4305 64.9653 46.8218L2.148 59.3784C0.177664 59.7766 -0.611843 61.1222 0.383622 62.3991L20.3822 87.8624C21.3776 89.1325 23.7873 89.8396 25.7577 89.4483L88.5749 76.8848C90.5453 76.4866 91.3348 75.141 90.3393 73.8641V73.8778Z" fill="black"/>
<path d="M96.0614 67.8022L77.992 26.8371C77.5801 25.9034 76.5709 25.2512 75.6029 25.2512C75.4725 25.2512 75.3489 25.2649 75.2116 25.2924L6.27736 40.2381C5.19951 40.4509 4.71207 41.4944 5.18578 42.5654L23.4543 83.8463C23.8662 84.78 24.8823 85.4322 25.8503 85.4322C25.9807 85.4322 26.1249 85.4185 26.2622 85.391L95.0042 70.1158C96.0614 69.9029 96.5351 68.8594 96.0751 67.8022H96.0614Z" fill="black"/>
<path d="M96.4326 66.6692L78.3632 25.7041C77.9512 24.7704 76.9421 24.1182 75.9741 24.1182C75.8436 24.1182 75.72 24.1319 75.5827 24.1594L6.64851 39.112C5.57066 39.3248 5.08323 40.3683 5.55693 41.4393L23.8254 82.7202C24.2373 83.6539 25.2534 84.3061 26.2214 84.3061C26.3518 84.3061 26.496 84.2923 26.6333 84.2649L95.3753 68.9896C96.4326 68.7768 96.9063 67.7333 96.4463 66.676H96.4326V66.6692Z" fill="#035D3E"/>
<path d="M7.00607 39.9836V35.6447L34.1994 30.5095L94.8129 67.2936L26.0847 81.9647L7.00607 39.9836Z" fill="black"/>
<path d="M61.9738 73.8364C61.9738 73.8364 50.8246 69.2572 26.3293 77.6191L6.42004 32.8232C6.42004 32.8232 29.5148 20.6785 42.2636 29.4386L61.9738 73.8432V73.8364Z" fill="#6CF479"/>
<path d="M96.0187 63.0854L89.6271 51.2496L83.3179 67.2389L96.0187 63.0854Z" fill="black"/>
<path d="M63.6912 73.8368C63.6912 73.8368 67.1513 67.4658 96.0198 63.0858L94.8115 67.2873L63.6912 73.8368Z" fill="black"/>
<path d="M42.2636 29.4386L61.9738 73.8432C61.9738 73.8432 70.1368 63.8889 97.8176 61.8156L77.5434 18.7185C77.5434 18.7185 50.2274 17.8912 42.2636 29.4386Z" fill="#6CF479"/>
<path d="M42.2653 29.439L56.7648 62.0902C56.7648 62.0902 44.984 28.1208 63.0328 19.7178C63.0328 19.7178 48.4304 21.0702 42.2585 29.4321L42.2653 29.439Z" fill="#11B67A"/>
<path d="M9.22411 34.0934L23.7854 67.2047C23.7854 67.2047 13.4531 29.631 35.5181 27.7705C35.5181 27.7705 25.433 26.1091 9.22411 34.0934Z" fill="white"/>
<path d="M55.501 77.4279C55.501 77.4279 60.9795 79.7758 69.0393 74.4209L55.501 77.4279Z" fill="#035D3E"/>
<path d="M42.2393 29.4511L61.8949 73.8057C61.8949 73.8057 53.7482 70.4435 36.0322 74.7109C36.0322 74.7109 56.5931 66.0469 42.2393 29.4511Z" fill="#11B67A"/>
<path d="M77.5423 18.7179L97.8445 61.7793C97.8445 61.7793 89.827 61.9086 76.6371 66.1759C76.6371 66.1759 91.896 55.3136 77.5423 18.7179Z" fill="#11B67A"/>
<path d="M26.0794 81.9655C26.0794 81.9655 56.7466 74.908 61.9711 75.9859C61.9711 75.9859 67.2505 73.0201 94.8077 67.2944L75.2829 69.354L61.5866 74.4137L44.4509 74.6334L28.6539 78.423L26.0863 81.9655H26.0794Z" fill="black"/>
<path d="M26.081 81.9648C26.081 81.9648 53.803 72.7928 61.9726 75.9851L29.3282 82.4865L26.0741 81.9717L26.081 81.9648Z" fill="#035D3E"/>
<path d="M61.9726 75.9851C61.9726 75.9851 64.9044 71.3518 94.8095 67.2944L93.9514 68.4684L67.424 74.4206L63.6961 76.1781L61.9798 75.9859L61.9726 75.9851Z" fill="#035D3E"/>
<path d="M81.678 50.0098C79.307 50.7858 72.3894 53.8899 67.9709 60.0967C64.1673 65.44 62.8193 69.7298 61.9143 73.7129L42.261 29.4375C46.6145 23.1252 56.7991 20.5044 65.1379 19.4228L81.678 50.0098Z" fill="black"/>
<path d="M44.698 15.6146C42.2718 20.2121 41.7651 26.4769 42.2393 29.4511L61.8966 73.8057C61.8104 69.797 61.2425 62.5554 64.7418 55.9604C67.9668 49.8827 74.2248 47.2102 77.2852 46.0033L54.9139 5.26953C52.0688 6.95061 47.1546 10.9593 44.698 15.6146Z" fill="#6CF479"/>
<path d="M50.0558 8.96201C46.9595 14.2992 49.9945 21.6469 55.2873 32.5382C58.0677 38.2597 61.4032 43.1663 64.4562 46.4161C66.197 48.269 68.3249 49.3679 69.8498 50.0372C67.9226 51.5221 66.0734 53.4511 64.7418 55.9604C63.9799 57.3965 63.4107 58.8631 62.9874 60.3204C62.7557 57.484 61.9522 51.8168 59.9542 46.7784C56.9801 39.2784 54.0088 33.8582 50.0714 28.2071C46.6792 23.3385 44.2081 21.4019 42.7511 21.128C43.171 19.2292 43.804 17.3087 44.698 15.6146C46.0113 13.126 48.0294 10.8242 50.0558 8.96201Z" fill="white"/>
<path d="M70.9643 94.7307C77.3304 94.7307 82.4911 93.867 82.4911 92.8015C82.4911 91.7361 77.3304 90.8724 70.9643 90.8724C64.5983 90.8724 59.4375 91.7361 59.4375 92.8015C59.4375 93.867 64.5983 94.7307 70.9643 94.7307Z" fill="black"/>
<path d="M61.8673 92.8016C61.8673 92.8016 66.625 88.6893 69.4397 89.4308C69.4397 89.4308 69.1926 85.2292 71.9799 82.744L69.9478 81.6593L61.8673 92.8016Z" fill="black"/>
<path d="M68.9457 81.2897L61.8744 92.7959C61.8744 92.7959 65.9936 88.4296 68.4857 88.9239C68.4857 88.9239 68.0395 85.2166 70.9709 82.0243L68.9525 81.2828L68.9457 81.2897Z" fill="#11B67A"/>
<path d="M68.2852 81.2068C69.8093 83.5822 72.3906 83.6509 72.3906 83.6509L73.3449 82.2641L83.7527 67.0918L77.4641 63.3434L68.2852 81.2068Z" fill="#035D3E"/>
<path d="M68.2852 81.2068C69.8093 83.5822 72.3906 83.6509 72.3906 83.6509L73.3449 82.2641L83.7527 67.0918L77.4641 63.3434L68.2852 81.2068Z" fill="black"/>
<path d="M69.5273 82.5593L79.4819 65.8698L77.4704 63.3365L67.2548 83.4175L69.5273 82.5593Z" fill="#11B67A"/>
<path d="M84.2538 68.0188C85.3591 66.2956 86.4781 64.4901 87.5972 62.6158C95.9522 48.6107 102.721 37.2555 98.8219 34.9282C94.9224 32.6008 88.1464 43.956 79.7982 57.9612C78.5625 60.0345 77.6563 61.641 76.5784 63.6113C78.3565 66.7075 81.5969 67.9158 84.2538 68.0188Z" fill="black"/>
<path d="M84.2538 68.0188C85.3591 66.2956 86.4781 64.4901 87.5972 62.6158C95.9522 48.6107 102.721 37.2555 98.8219 34.9282C94.9224 32.6008 88.1464 43.956 79.7982 57.9612C78.5625 60.0345 77.6563 61.641 76.5784 63.6113C78.3565 66.7075 81.5969 67.9158 84.2538 68.0188Z" fill="black"/>
<path d="M80.7177 67.8532C81.1296 67.1804 99.6178 38.923 98.4026 36.0739C98.4026 36.0739 103.97 34.7077 82.736 68.1759" fill="#6CF479"/>
<path d="M72.3906 83.6509C72.3906 83.6509 70.0976 83.5891 68.2852 81.2068C68.2852 81.2068 68.9855 84.3992 72.3906 83.6509Z" fill="black"/>
</g>
</g>
</g>
</g>
<defs>
<clipPath id="clip0_4483_4">
<rect width="100" height="100" fill="white"/>
</clipPath>
</defs>
</svg>
