<svg width="100" height="100" viewBox="0 0 100 100" fill="none" xmlns="http://www.w3.org/2000/svg">
<rect width="100" height="100" fill="#1E1E1E"/>
<g id="Default">
<path d="M-105 -6907C-105 -6908.11 -104.105 -6909 -103 -6909H1103C1104.1 -6909 1105 -6908.1 1105 -6907V26299C1105 26300.1 1104.1 26301 1103 26301H-103C-104.105 26301 -105 26300.1 -105 26299V-6907Z" fill="white"/>
<path d="M-103 -6909V-6908H1103V-6909V-6910H-103V-6909ZM1105 -6907H1104V26299H1105H1106V-6907H1105ZM1103 26301V26300H-103V26301V26302H1103V26301ZM-105 26299H-104V-6907H-105H-106V26299H-105ZM-103 26301V26300C-103.552 26300 -104 26299.6 -104 26299H-105H-106C-106 26300.7 -104.657 26302 -103 26302V26301ZM1105 26299H1104C1104 26299.6 1103.55 26300 1103 26300V26301V26302C1104.66 26302 1106 26300.7 1106 26299H1105ZM1103 -6909V-6908C1103.55 -6908 1104 -6907.55 1104 -6907H1105H1106C1106 -6908.66 1104.66 -6910 1103 -6910V-6909ZM-103 -6909V-6910C-104.656 -6910 -106 -6908.66 -106 -6907H-105H-104C-104 -6907.55 -103.553 -6908 -103 -6908V-6909Z" fill="white" fill-opacity="0.1"/>
<g id="Dog Bowl">
<rect x="-24.5" y="-24.5" width="1049" height="149" rx="4.5" stroke="#9747FF" stroke-dasharray="10 5"/>
<g id="Brand=Lloyds - V2">
<rect width="100" height="100" fill="#C7FFC6"/>
<g id="Path">
<path d="M50 79C77.6142 79 100 70.4954 100 60.0045C100 49.5135 77.6142 41.009 50 41.009C22.3858 41.009 0 49.5135 0 60.0045C0 70.4954 22.3858 79 50 79Z" fill="#11B67A"/>
<path d="M93.5635 54.9962L87.6213 31.7114C87.6213 31.7114 81.7861 21.4959 49.1589 22.0195C16.5289 22.543 11.9913 32.4651 11.9913 32.4651L5.68492 56.3512C5.57798 56.6072 5.48839 56.8633 5.41613 57.1222L5.40747 57.1481C5.27742 57.6285 5.20805 58.1147 5.20805 58.6095C5.20805 67.1737 25.2601 74.1183 49.9971 74.1183C74.7341 74.1183 94.7861 67.1766 94.7861 58.6095C94.7861 57.3667 94.3612 56.1556 93.5635 54.9991V54.9962Z" fill="#6CF379"/>
<path d="M50.2891 43.5087C68.3709 43.5087 83.029 39.315 83.029 34.1418C83.029 28.9687 68.3709 24.775 50.2891 24.775C32.2074 24.775 17.5493 28.9687 17.5493 34.1418C17.5493 39.315 32.2074 43.5087 50.2891 43.5087Z" fill="#11B67A"/>
<path d="M93.5635 54.9962V54.9991C94.3612 56.1556 94.7861 57.3667 94.7861 58.6095C94.7861 67.1766 74.7341 74.1183 49.9971 74.1183C25.2601 74.1183 5.20805 67.1737 5.20805 58.6095C5.20805 58.1147 5.27742 57.6285 5.40747 57.1481L5.41613 57.1222C5.48839 56.8633 5.57798 56.6072 5.68492 56.3512L6.39013 53.6792C6.27208 55.9337 6.35107 58.0412 6.916 58.9664C8.58941 61.708 17.5492 71.19 50 71.4633C58.3196 71.5335 65.1934 70.8366 70.6373 69.6975C70.9224 69.5865 84.201 64.3655 83.0289 55.5488C81.8371 46.5701 61.1347 45.8133 61.0694 45.8109C61.1121 45.8054 71.6386 44.4515 77.2947 42.3414C81.5807 40.7419 85.075 37.9141 86.5403 36.1592C87.4262 35.0998 87.9082 34.1812 88.0226 33.2842L93.5635 54.9962Z" fill="black"/>
<path d="M8.37275 54.7834L13.1011 35.0457C13.1011 35.0457 13.4103 37.0019 16.4363 39.7147C19.6184 42.5628 27.6242 43.5092 27.6242 43.5092C27.6242 43.5092 17.997 42.6577 13.6386 46.527C10.5028 49.3117 8.37275 54.7834 8.37275 54.7834Z" fill="white"/>
<path d="M51.3207 24.4933C52.575 23.5756 54.3035 22.8277 56.7341 23.9266C57.8092 24.4099 58.4162 24.922 58.7485 25.4196C60.0491 27.3499 57.344 29.0848 62.3727 28.2448C68.6993 27.1833 65.4682 34.8615 69.263 35.0054C73.0578 35.1463 70.9046 40.7388 76.0549 39.0386C76.5238 38.8849 77.0193 39.0741 77.5021 39.3507C71.6269 41.8579 61.6315 43.5087 50.2891 43.5087C36.5987 43.5087 24.8702 41.1041 19.9815 37.6909C21.6191 36.436 23.5574 35.838 25.7197 35.5518C30.2109 34.9534 30.5088 38.2071 32.9625 34.3321C35.4192 30.4542 37.4565 33.2647 39.1039 31.6594C40.2166 30.5691 38.2197 27.9743 40.2399 25.8771C40.7254 25.3708 41.344 24.8934 42.0319 24.5166C43.7053 23.5874 45.7832 23.2162 47.3179 24.3698C47.7687 24.7063 48.1734 25.1752 48.5057 25.7995C49.0578 26.8351 49.8814 25.5491 51.3207 24.4933Z" fill="#006A4D"/>
<path d="M55.5346 23.5155C55.9132 23.6018 56.3121 23.7339 56.7312 23.9238C57.8063 24.4071 58.4133 24.9192 58.7456 25.4168C60.0462 27.3471 57.341 29.082 62.3698 28.242C62.7657 28.1758 63.1242 28.1411 63.4479 28.1411C63.841 28.1411 64.1791 28.1873 64.4826 28.265C64.63 28.3053 64.7659 28.3512 64.896 28.4058C65.2659 28.5641 65.5637 28.7857 65.8035 29.0561C65.8063 29.0588 65.8092 29.0618 65.8092 29.0618C65.8208 29.0762 65.8323 29.0935 65.8467 29.1107L65.8206 29.1224C65.9218 29.2403 66.0116 29.3668 66.0926 29.502C66.3237 29.8817 66.4912 30.3161 66.6241 30.7706C67.1183 32.4564 67.182 34.4185 68.6011 34.9047C68.7861 34.9708 68.997 35.0082 69.234 35.0169C69.7079 35.0341 70.0895 35.1376 70.4045 35.3016C70.6386 35.4224 70.8381 35.5807 71.0086 35.7591C71.182 35.9374 71.3006 36.156 71.4538 36.3574C73.157 38.6011 76.5169 38.9073 78.5756 38.8609C72.8968 41.6408 62.355 43.5087 50.2891 43.5087C45.579 43.5087 41.1012 43.2236 37.0542 42.7112C39.0701 41.3781 41.3553 39.6455 41.8179 38.3798C42.6792 36.0237 44.9393 38.0865 44.9393 38.0865C44.9476 38.0894 46.5143 38.6423 47.526 37.8045C49.8555 35.8741 49.581 33.5985 49.581 33.5985C49.5879 33.6021 51.3967 34.5497 53.289 34.0013C55.0924 33.4806 54.3873 30.3793 54.3873 30.3793C54.3764 30.3587 51.9646 25.7552 54.3033 24.0187C54.601 23.7972 55.0375 23.6134 55.5346 23.5155Z" fill="black"/>
<path d="M52.9854 65.7239C51.9421 66.0748 50.9739 65.4189 50.2802 64.95C49.8814 64.6796 49.4681 64.4006 49.2397 64.4351C49.0201 64.4667 48.8553 64.6566 48.6068 64.9586C48.1126 65.5599 47.4392 66.3827 45.5894 65.931C44.4883 65.6606 43.9623 64.5473 44.1068 62.7924C44.3525 59.8322 46.6501 55.1257 49.1993 54.933C51.1733 54.7834 52.916 57.0963 53.8062 59.1216C54.7571 61.2792 55.1386 63.992 53.8525 65.1859C53.5606 65.4563 53.2686 65.6289 52.9854 65.7239Z" fill="#11B67A"/>
<path d="M55.6502 57.939C55.0317 58.1462 54.4537 58.0915 53.9942 57.7693C53.1358 57.168 53.0288 56.0144 53.7225 54.8321C54.4046 53.6756 55.789 52.7579 57.0115 53.339C57.6849 53.6583 58.0635 54.2049 58.078 54.8752C58.104 56.0432 57.0838 57.2227 56.1098 57.7405C55.9537 57.824 55.8005 57.8901 55.6502 57.9419V57.939Z" fill="#11B67A"/>
<path d="M44.13 59.087C43.6386 59.2539 43.0288 59.2424 42.367 59.0381C41.0808 58.6383 39.8727 57.5019 40.1675 56.1843C40.3294 55.4594 40.7773 54.9703 41.4305 54.8035C42.5693 54.5158 43.9537 55.2408 44.6762 56.0693C45.2658 56.7424 45.445 57.4703 45.182 58.1147C44.9855 58.5951 44.6155 58.9259 44.1329 59.0899L44.13 59.087Z" fill="#11B67A"/>
<path d="M47.2312 55.1684C46.3295 55.4705 45.3642 54.9814 44.7226 53.8738C44.0492 52.7116 43.9364 51.0603 45.0492 50.2893C45.6619 49.8664 46.3266 49.8089 46.9162 50.1254C47.948 50.6806 48.474 52.1477 48.4422 53.2467C48.4162 54.1414 48.0521 54.7944 47.4191 55.0907C47.3555 55.1195 47.2919 55.1454 47.2283 55.1655L47.2312 55.1684Z" fill="#11B67A"/>
<path d="M51.9132 54.8267C51.5924 54.9332 51.2659 54.9476 50.945 54.8555C49.9335 54.5736 49.445 53.5207 49.7051 52.1772C49.9595 50.8596 50.9566 49.5363 52.3063 49.6773C53.0491 49.7549 53.5895 50.1433 53.8265 50.7704C54.2427 51.8636 53.6763 53.3135 52.9306 54.1248C52.6127 54.47 52.2687 54.7059 51.9132 54.8239V54.8267Z" fill="#11B67A"/>
</g>
</g>
</g>
</g>
</svg>
