<svg width="100" height="100" viewBox="0 0 100 100" fill="none" xmlns="http://www.w3.org/2000/svg">
<rect width="100" height="100" fill="#1E1E1E"/>
<g id="Default">
<path d="M-105 -7967C-105 -7968.11 -104.105 -7969 -103 -7969H1103C1104.1 -7969 1105 -7968.1 1105 -7967V25239C1105 25240.1 1104.1 25241 1103 25241H-103C-104.105 25241 -105 25240.1 -105 25239V-7967Z" fill="white"/>
<path d="M-103 -7969V-7968H1103V-7969V-7970H-103V-7969ZM1105 -7967H1104V25239H1105H1106V-7967H1105ZM1103 25241V25240H-103V25241V25242H1103V25241ZM-105 25239H-104V-7967H-105H-106V25239H-105ZM-103 25241V25240C-103.552 25240 -104 25239.6 -104 25239H-105H-106C-106 25240.7 -104.657 25242 -103 25242V25241ZM1105 25239H1104C1104 25239.6 1103.55 25240 1103 25240V25241V25242C1104.66 25242 1106 25240.7 1106 25239H1105ZM1103 -7969V-7968C1103.55 -7968 1104 -7967.55 1104 -7967H1105H1106C1106 -7968.66 1104.66 -7970 1103 -7970V-7969ZM-103 -7969V-7970C-104.656 -7970 -106 -7968.66 -106 -7967H-105H-104C-104 -7967.55 -103.553 -7968 -103 -7968V-7969Z" fill="white" fill-opacity="0.1"/>
<g id="FaceID">
<rect x="-24.5" y="-24.5" width="1049" height="149" rx="4.5" stroke="#9747FF" stroke-dasharray="10 5"/>
<g id="Brand=Lloyds - V2" clip-path="url(#clip0_4483_4)">
<rect width="100" height="100" fill="#C7FFC6"/>
<g id="Path">
<path d="M16.6338 52.2394C27.5146 48.5383 39.1337 46.4653 51.2583 46.4653C63.383 46.4653 75.0121 48.5383 85.8929 52.2394C87.4401 52.7652 88.6738 53.8574 89.4221 55.2326L82.839 40.8732C81.9795 39.3968 80.6042 38.244 78.9053 37.6878C70.1885 34.8665 60.9156 33.289 51.2583 33.289C41.6011 33.289 32.3281 34.8665 23.6113 37.6878C21.9023 38.244 20.5371 39.3968 19.6776 40.8732L13.0945 55.2326C13.8529 53.8574 15.0765 52.7652 16.6237 52.2394H16.6338Z" fill="#006A4D"/>
<path d="M90.2538 58.3778C90.2538 55.6171 88.5043 53.1295 85.8954 52.2396C75.0145 48.5385 63.3955 46.4655 51.2607 46.4655C39.126 46.4655 27.507 48.5385 16.6362 52.2396C14.0172 53.1295 12.2879 55.6171 12.2879 58.3778V94.8023C12.2879 97.6742 14.6138 100 17.4857 100H85.0561C87.928 100 90.2538 97.6742 90.2538 94.8023V58.3778Z" fill="#11B67A"/>
<path d="M12.2782 94.7931C12.2782 94.7931 12.7838 97.5133 17.5163 97.5133H86.6946V99.9908H17.2635C17.2635 99.9908 12.5209 100.051 12.2782 94.7931Z" fill="black"/>
<path d="M19.6776 40.8732L13.0945 55.2326C13.8529 53.8574 15.0765 52.7652 16.6237 52.2394C21.0832 50.7226 25.6737 49.4992 30.3658 48.5587C41.5702 43.3913 36.0286 37.4251 44.1387 33.5824C37.0298 34.1588 30.1635 35.5745 23.6108 37.6981C21.9018 38.2543 20.5366 39.4071 19.6771 40.8835L19.6776 40.8732Z" fill="black"/>
<path d="M70.917 41.4491C68.3887 41.8637 66.1638 42.3492 64.4951 42.7436C64.0097 42.8649 64.1007 43.5729 64.6064 43.583C71.0384 43.6639 73.8701 43.9774 73.8701 43.9774V41.2165L70.917 41.4491Z" fill="black"/>
<path d="M76.904 43.1284V29.9723C76.904 15.8859 65.4367 4.41854 51.3502 4.41854C37.2638 4.41854 25.7965 15.8859 25.7965 29.9723V43.1689C25.8369 43.9071 27.1717 44.2711 28.82 43.988C30.4886 43.6947 31.8537 42.8453 31.8537 42.0869V29.9723C31.8537 19.2229 40.6009 10.4859 51.3402 10.4859C62.0794 10.4859 70.8265 19.2331 70.8265 29.9723V42.0869C70.8265 42.8453 72.1917 43.7048 73.8602 43.988C75.5085 44.2711 76.8535 43.8666 76.904 43.1284Z" fill="white"/>
<path d="M26.9098 43.9983C26.9098 43.9983 27.8806 44.2308 29.0637 43.9275V30.9938C29.0637 30.9938 27.9109 14.2681 42.4929 7.16927C42.4929 7.16927 26.9098 12.1243 26.9098 30.9938V43.9983Z" fill="black"/>
<path d="M60.5728 10.9717C73.5468 17.2918 72.5154 32.167 72.5154 32.167V43.604C73.4963 43.9984 74.4367 44.049 74.4367 44.049V32.1771C74.4367 15.3907 60.5728 10.9818 60.5728 10.9818V10.9717Z" fill="black"/>
<path d="M5.12694 23.0461C5.12694 23.0461 6.81571 28.6281 13.6415 30.1652C13.6415 30.1652 8.46401 31.055 8.36289 37.264C8.36289 37.264 6.54266 31.8842 0 30.155C0 30.155 5.47076 29.5079 5.12694 23.036V23.0461Z" fill="#11B67A"/>
<path d="M86.8043 0C86.8043 0 89.4133 8.64602 99.9908 11.0426C99.9908 11.0426 91.9717 12.428 91.8201 22.0448C91.8201 22.0448 88.9987 13.7022 78.8561 11.0325C78.8561 11.0325 87.3302 10.0314 86.8043 0Z" fill="#11B67A"/>
<path d="M70.0576 61.4728C70.3913 61.9683 70.6947 62.474 70.9879 62.9897H90.2822V61.4728H70.0576Z" fill="#00482F"/>
<path d="M73.5073 69.6629H90.2836V68.1461H73.1433C73.2848 68.6416 73.4062 69.1472 73.5174 69.6629H73.5073Z" fill="#00482F"/>
<path d="M90.2716 76.3273V74.8105H73.9604C73.9503 75.3161 73.92 75.8217 73.8795 76.3273H90.2716Z" fill="#00482F"/>
<path d="M72.2937 83.0015H90.2835V81.4847H72.8499C72.678 82.0004 72.496 82.506 72.2937 83.0015Z" fill="#00482F"/>
<path d="M68.1261 89.6748H90.2822V88.1579H69.3801C68.9857 88.6837 68.5711 89.1894 68.1363 89.6748H68.1261Z" fill="#00482F"/>
<path d="M31.8947 61.4728H12.2465V62.9897H30.9643C31.2576 62.474 31.5711 61.9683 31.8947 61.4728Z" fill="#00482F"/>
<path d="M28.8108 68.1461H12.2367V69.6629H28.4366C28.5377 69.1472 28.6692 68.6416 28.8108 68.1461Z" fill="#00482F"/>
<path d="M27.9714 74.8105H12.2367V76.3273H28.0524C28.0119 75.8217 27.9816 75.3161 27.9714 74.8105Z" fill="#00482F"/>
<path d="M29.0939 81.4847H12.2367V83.0015H29.6501C29.4478 82.506 29.2658 82.0004 29.0939 81.4847Z" fill="#00482F"/>
<path d="M12.2367 88.1579V89.6748H33.8163C33.3815 89.1894 32.9669 88.6837 32.5725 88.1579H12.2367Z" fill="#00482F"/>
<path d="M37.8579 79.1842C38.2549 79.1842 38.5766 79.5172 38.5767 79.9283V83.2223C38.5769 85.0222 39.9911 86.4868 41.729 86.4869H44.9087C45.3057 86.4869 45.6284 86.8199 45.6284 87.231C45.6284 87.6423 45.3058 87.9762 44.9087 87.9762H41.729C39.1983 87.9761 37.1394 85.8433 37.1392 83.2223V79.9283C37.1393 79.5172 37.461 79.1843 37.8579 79.1842Z" fill="black"/>
<path d="M64.7368 79.1842C65.1338 79.1842 65.4555 79.5172 65.4556 79.9283V83.2223C65.4554 85.8434 63.3966 87.9762 60.8658 87.9762H57.6861C57.289 87.9762 56.9673 87.6423 56.9673 87.231C56.9674 86.8199 57.2891 86.4869 57.6861 86.4869H60.8658C62.6037 86.4869 64.0179 85.0222 64.0181 83.2223V79.9283C64.0182 79.5172 64.3399 79.1842 64.7368 79.1842Z" fill="black"/>
<path d="M55.2447 79.19C55.5476 78.9007 56.0197 78.9204 56.2993 79.234C56.5791 79.5477 56.5602 80.037 56.2574 80.3267C54.903 81.6223 53.1412 82.3355 51.2964 82.3355C49.4515 82.3355 47.689 81.6225 46.3345 80.3267C46.0318 80.0371 46.013 79.5477 46.2925 79.234C46.5723 78.9203 47.0452 78.9004 47.3482 79.19C48.4259 80.2211 49.8281 80.7896 51.2964 80.7896C52.7646 80.7896 54.167 80.2211 55.2447 79.19Z" fill="black"/>
<path d="M52.0415 68.9332C52.4538 68.9333 52.7876 69.2796 52.7876 69.7066V75.2047C52.7876 76.2941 51.9322 77.181 50.8804 77.1812H50.272C49.8597 77.1812 49.5249 76.8349 49.5249 76.4078C49.525 75.9808 49.8597 75.6344 50.272 75.6344H50.8804C51.1089 75.6341 51.2945 75.4414 51.2945 75.2047V69.7066C51.2945 69.2796 51.6292 68.9332 52.0415 68.9332Z" fill="black"/>
<path d="M45.5337 68.9332C45.9231 68.9332 46.2388 69.2604 46.2388 69.6637V71.8687C46.2388 72.272 45.9231 72.5992 45.5337 72.5992C45.1443 72.5992 44.8287 72.272 44.8286 71.8687V69.6637C44.8286 69.2603 45.1443 68.9332 45.5337 68.9332Z" fill="black"/>
<path d="M57.229 68.9332C57.6184 68.9332 57.9341 69.2604 57.9341 69.6637V71.8687C57.9341 72.272 57.6184 72.5992 57.229 72.5992C56.8397 72.5992 56.524 72.272 56.524 71.8687V69.6637C56.524 69.2603 56.8396 68.9332 57.229 68.9332Z" fill="black"/>
<path d="M44.9087 58.651C45.3056 58.651 45.6282 58.9841 45.6284 59.3951C45.6284 59.8063 45.3058 60.1402 44.9087 60.1402H41.729C39.991 60.1403 38.5767 61.6048 38.5767 63.4049V66.6988C38.5764 67.1098 38.2548 67.443 37.8579 67.443C37.4611 67.4429 37.1394 67.1098 37.1392 66.6988V63.4049C37.1392 60.7836 39.1982 58.6511 41.729 58.651H44.9087Z" fill="black"/>
<path d="M60.8658 58.651C63.3967 58.651 65.4556 60.7835 65.4556 63.4049V66.6988C65.4553 67.1098 65.1337 67.443 64.7368 67.443C64.34 67.4429 64.0183 67.1098 64.0181 66.6988V63.4049C64.0181 61.6047 62.6038 60.1402 60.8658 60.1402H57.6861C57.289 60.1402 56.9673 59.8063 56.9673 59.3951C56.9676 58.9841 57.2892 58.651 57.6861 58.651H60.8658Z" fill="black"/>
</g>
</g>
</g>
</g>
<defs>
<clipPath id="clip0_4483_4">
<rect width="100" height="100" fill="white"/>
</clipPath>
</defs>
</svg>
