<svg width="100" height="100" viewBox="0 0 100 100" fill="none" xmlns="http://www.w3.org/2000/svg">
<rect width="100" height="100" fill="#1E1E1E"/>
<g id="Default">
<path d="M-105 -8391C-105 -8392.11 -104.105 -8393 -103 -8393H1103C1104.1 -8393 1105 -8392.1 1105 -8391V24815C1105 24816.1 1104.1 24817 1103 24817H-103C-104.105 24817 -105 24816.1 -105 24815V-8391Z" fill="white"/>
<path d="M-103 -8393V-8392H1103V-8393V-8394H-103V-8393ZM1105 -8391H1104V24815H1105H1106V-8391H1105ZM1103 24817V24816H-103V24817V24818H1103V24817ZM-105 24815H-104V-8391H-105H-106V24815H-105ZM-103 24817V24816C-103.552 24816 -104 24815.6 -104 24815H-105H-106C-106 24816.7 -104.657 24818 -103 24818V24817ZM1105 24815H1104C1104 24815.6 1103.55 24816 1103 24816V24817V24818C1104.66 24818 1106 24816.7 1106 24815H1105ZM1103 -8393V-8392C1103.55 -8392 1104 -8391.55 1104 -8391H1105H1106C1106 -8392.66 1104.66 -8394 1103 -8394V-8393ZM-103 -8393V-8394C-104.656 -8394 -106 -8392.66 -106 -8391H-105H-104C-104 -8391.55 -103.553 -8392 -103 -8392V-8393Z" fill="white" fill-opacity="0.1"/>
<g id="Financial Planning">
<rect x="-24.5" y="-24.5" width="1049" height="149" rx="4.5" stroke="#9747FF" stroke-dasharray="10 5"/>
<g id="Brand=Lloyds - V2" clip-path="url(#clip0_4483_4)">
<rect width="100" height="100" fill="#C7FFC6"/>
<g id="Path">
<path d="M55.1993 14.8903C55.4472 13.9262 55.7581 12.9975 56.1438 12.1161C56.4153 11.5022 56.7143 10.9237 57.041 10.3728L36.2284 18.6128C33.4267 19.7461 31.3726 22.0836 30.1881 25.086L55.1993 14.8903Z" fill="#11B67A"/>
<path d="M57.62 32.4839L57.5413 32.3304C57.5058 32.2596 57.4704 32.1887 57.435 32.1179C57.0966 31.4489 56.7818 30.7485 56.4906 30.0323C55.3337 27.1597 54.7001 24.1651 54.5742 21.2611C54.5742 21.2925 42.8556 26.1838 42.8556 26.1838C32.2978 30.7878 30.6097 40.2399 33.4429 45.0249C37.7046 50.9826 44.1896 53.9024 49.5767 51.7224L70.0036 43.6397C65.1281 42.1326 60.5358 38.0795 57.62 32.4799V32.4839Z" fill="#11B67A"/>
<path d="M30.1881 25.0939C29.405 27.089 29.0076 29.3713 29.039 31.7953C29.0745 34.4672 29.6214 37.3044 30.7469 40.0943C31.4788 41.9084 32.3996 43.5651 33.4542 45.0407C33.4542 45.0407 33.4502 45.0328 33.4463 45.0289C33.4424 45.021 33.4384 45.0132 33.4345 45.0092C33.3519 44.8676 33.2692 44.722 33.1984 44.5764C30.7233 39.6693 32.6239 30.6541 42.859 26.1918L54.5776 21.269C54.4713 19.0221 54.672 16.9286 55.1915 14.8981L30.192 25.0899V25.0978L30.1881 25.0939Z" fill="#006A4D"/>
<path d="M36.2284 18.6128L32.1133 20.1632C29.2564 21.3201 27.1708 23.7323 26.0021 26.8213L30.1851 25.0978C31.3656 22.0953 33.4237 19.754 36.2294 18.6167L36.2284 18.6128Z" fill="#11B67A"/>
<path d="M48.3612 52.1277C47.5348 52.3442 46.6849 52.4465 45.831 52.4465C39.9874 52.4465 33.7739 47.5945 30.7479 40.0943C29.6224 37.3004 29.0715 34.4672 29.04 31.7953L24.9279 33.5149C24.983 36.1357 25.53 38.9099 26.6318 41.6447C29.6539 49.145 35.8713 53.9969 41.7149 53.9969C42.9938 53.9969 44.2569 53.7647 45.465 53.2768L49.5811 51.7264L48.3612 52.1277Z" fill="#11B67A"/>
<path d="M30.1881 25.0939L26.0061 26.8174C25.2505 28.8164 24.8768 31.0988 24.9279 33.5149L29.04 31.7953C29.0086 29.3713 29.405 27.085 30.1881 25.0939Z" fill="white"/>
<path d="M50.3452 62.8626C50.1485 62.9688 49.9438 63.0672 49.7353 63.1538C49.0112 63.4489 48.2518 63.5984 47.4765 63.5984C46.5518 63.5984 45.6664 63.3899 44.8676 63.0082L24.8421 100.006H29.8081L45.5484 70.9177V100.006H49.7431V70.9177L65.4873 100.006H70.4416L50.3452 62.8665V62.8626Z" fill="black"/>
<path d="M15.4377 53.8907C12.7501 54.9807 9.37379 52.8951 7.89814 49.2355C6.4225 45.5759 7.40626 41.7235 10.0939 40.6374L2.88094 43.7225C0.763879 44.5803 -0.294652 47.146 0.0713086 49.9871C0.169685 50.7544 0.370373 51.5415 0.685178 52.3206C1.2715 53.7766 2.16083 54.9807 3.18394 55.8385C4.73829 57.1371 6.60744 57.6329 8.22475 56.9758L15.4377 53.8907Z" fill="#0BE248"/>
<path d="M12.2181 47.5394C11.5098 45.7765 11.0848 43.9625 10.951 42.1799C8.93235 43.022 8.20043 45.93 9.31405 48.6924C10.4277 51.4548 12.9658 53.0328 15.0002 52.2379C13.8827 50.8803 12.9264 49.2945 12.2181 47.5394Z" fill="black"/>
<path d="M87.4292 1.03886C85.8 0.346285 84.1749 0 82.6087 0C81.2983 0 80.0312 0.243974 78.835 0.727986C71.9762 3.51007 69.501 13.4815 73.322 22.9611C75.5335 28.4466 79.563 32.8735 84.0962 34.7977C87.0868 36.0648 90.0578 36.175 92.6903 35.1086C99.5491 32.3265 102.024 22.3551 98.2034 12.8755C95.9919 7.39004 91.9624 2.9631 87.4292 1.03886Z" fill="#0BE248"/>
<path d="M97.1451 25.7431C96.7201 27.4077 96.0433 28.844 95.1579 30.0088C95.571 29.206 95.8977 28.3167 96.1456 27.3526C97.0821 23.6772 96.6965 19.4156 95.0555 15.3506C92.4033 8.77123 86.9415 4.17508 81.7747 4.17508C80.7359 4.17508 79.7364 4.36396 78.8037 4.74566C77.4501 5.29263 76.2814 6.21344 75.3527 7.44511C76.3837 5.39495 77.9144 3.89962 79.8033 3.13229C80.7398 2.75452 81.7393 2.56564 82.7782 2.56564C87.9449 2.56564 93.4068 7.16179 96.059 13.7412C97.696 17.8061 98.0816 22.0678 97.1451 25.7431Z" fill="#11B67A"/>
<path d="M83.5766 10.5184C83.7852 14.178 81.6327 17.0467 78.1738 17.7117C81.9515 18.3807 85.4655 21.2454 86.9962 24.9089C86.7877 21.2493 88.9401 18.3807 92.399 17.7156C88.6214 17.0467 85.1074 14.182 83.5766 10.5184Z" fill="white"/>
<path d="M23.463 34.1247C23.463 34.1247 23.463 34.1247 23.4669 34.1247C23.3882 32.4602 23.4984 30.8232 23.7935 29.2571L17.4502 31.8267C14.8216 32.8931 13.1217 35.4587 12.5707 38.6343L23.4591 34.1208L23.463 34.1247Z" fill="#0BE248"/>
<path d="M25.2612 42.1955C24.7811 41.0111 24.4034 39.807 24.1122 38.5989C15.7266 42.109 13.578 47.6417 15.821 50.892C15.8053 50.8724 15.7856 50.8527 15.7659 50.833C17.82 53.5325 20.5273 55.2757 23.215 55.6298C23.3291 55.6416 23.4432 55.6416 23.5495 55.6535C23.7856 55.6731 24.0177 55.6849 24.2499 55.6849C25.1471 55.6849 26.0325 55.5275 26.8746 55.1852L33.2572 52.5959C29.9203 50.2624 27.0556 46.6343 25.2651 42.1877L25.2612 42.1955Z" fill="#0BE248"/>
<path d="M24.1089 38.595C23.7508 37.0997 23.5338 35.6004 23.463 34.1247L23.4596 34.1248L12.5713 38.6383C12.1306 41.1843 12.4257 44.1198 13.5826 46.9885C14.1611 48.4209 14.9048 49.7076 15.7627 50.837C15.7784 50.8567 15.802 50.8763 15.8178 50.896C13.5748 47.6417 15.7194 42.1129 24.1089 38.6068V38.595Z" fill="white"/>
<path d="M51.6936 55.8503L47.3021 57.6289C44.4806 58.7347 44.8623 61.7647 47.2903 62.111C47.3493 62.111 47.4122 62.1188 47.4713 62.1188C48.0379 62.1188 48.6164 62.0126 49.1752 61.7843C51.5086 60.8439 52.6341 58.1838 51.6897 55.8503H51.6936Z" fill="#6CF479"/>
<path d="M47.3025 57.6328L51.694 55.8542C51.2297 54.7287 50.3522 53.8591 49.3251 53.3987L46.004 54.65C45.2012 54.9727 44.3709 55.201 43.5131 55.3308C43.1235 56.0273 42.9228 56.8222 42.9346 57.6328H42.9307V57.6525C42.9425 58.1837 43.0448 58.7189 43.2494 59.2383H43.2533L43.2612 59.2698C43.9538 60.9855 45.5711 62.048 47.3025 62.1149C44.8628 61.7764 44.4767 58.7386 47.3021 57.6289L47.3025 57.6328Z" fill="black"/>
<path d="M71.3454 6.8076C72.097 4.88335 73.1634 3.19128 74.521 1.84942L63.7783 6.30391C60.9372 7.45295 58.8004 9.75103 57.4979 12.7141L71.3493 6.81153L71.3454 6.8076Z" fill="#11B67A"/>
<path d="M88.9113 37.3082C87.1484 37.3082 85.3343 36.9225 83.5163 36.1512C78.629 34.0775 74.3044 29.3515 71.9512 23.5079C70.6133 20.1906 70.0112 16.8144 70.0624 13.6545L70.027 13.6663C58.4579 18.6284 55.9985 25.8217 58.7569 31.4607C58.7884 31.5276 58.8199 31.5905 58.8553 31.6535C58.8789 31.6968 58.9025 31.744 58.9261 31.7912C62.448 38.5556 68.4569 42.8054 74.1391 42.8054C75.5203 42.8054 76.8858 42.5536 78.1883 42.0263L89.6275 37.2806C89.3914 37.2964 89.1513 37.3042 88.9113 37.3042V37.3082Z" fill="#11B67A"/>
<path d="M71.3495 6.80758L57.4941 12.7102C56.5104 14.9374 55.9988 17.5424 56.0106 20.3206C56.0224 23.2601 56.6166 26.3963 57.8601 29.4814C58.1356 30.1622 58.4346 30.8272 58.7573 31.4647C55.9988 25.8257 58.4582 18.6324 70.0273 13.6703L70.0624 13.6545C70.1017 11.1912 70.5428 8.86168 71.3456 6.80365L71.3495 6.80758Z" fill="#006A4D"/>
</g>
</g>
</g>
</g>
<defs>
<clipPath id="clip0_4483_4">
<rect width="100" height="100" fill="white"/>
</clipPath>
</defs>
</svg>
