<svg width="100" height="100" viewBox="0 0 100 100" fill="none" xmlns="http://www.w3.org/2000/svg">
<rect width="100" height="100" fill="#1E1E1E"/>
<g id="Default">
<path d="M-105 -8603C-105 -8604.11 -104.105 -8605 -103 -8605H1103C1104.1 -8605 1105 -8604.1 1105 -8603V24603C1105 24604.1 1104.1 24605 1103 24605H-103C-104.105 24605 -105 24604.1 -105 24603V-8603Z" fill="white"/>
<path d="M-103 -8605V-8604H1103V-8605V-8606H-103V-8605ZM1105 -8603H1104V24603H1105H1106V-8603H1105ZM1103 24605V24604H-103V24605V24606H1103V24605ZM-105 24603H-104V-8603H-105H-106V24603H-105ZM-103 24605V24604C-103.552 24604 -104 24603.6 -104 24603H-105H-106C-106 24604.7 -104.657 24606 -103 24606V24605ZM1105 24603H1104C1104 24603.6 1103.55 24604 1103 24604V24605V24606C1104.66 24606 1106 24604.7 1106 24603H1105ZM1103 -8605V-8604C1103.55 -8604 1104 -8603.55 1104 -8603H1105H1106C1106 -8604.66 1104.66 -8606 1103 -8606V-8605ZM-103 -8605V-8606C-104.656 -8606 -106 -8604.66 -106 -8603H-105H-104C-104 -8603.55 -103.553 -8604 -103 -8604V-8605Z" fill="white" fill-opacity="0.1"/>
<g id="Gift">
<rect x="-24.5" y="-24.5" width="1049" height="149" rx="4.5" stroke="#9747FF" stroke-dasharray="10 5"/>
<g id="Brand=Lloyds - V2">
<rect width="100" height="100" fill="#C7FFC6"/>
<g id="Path">
<path d="M15.2981 52.1782V78.9146L52.6394 100L89.8645 78.5661V52.3193L93.8061 50.0207V39.5818L52.6394 15.8742L11.481 39.5818V50.0207L15.2981 52.1782Z" fill="#C7FFC6"/>
<path d="M51.4112 74.8568L15.2981 54.0619V78.9146L51.4112 99.3112V74.8568Z" fill="black"/>
<path d="M93.8061 39.5818L52.6394 15.8742L11.481 39.5818L52.6394 63.2893L93.8061 39.5818Z" fill="#11B67A"/>
<path d="M52.6394 65.1232L51.8427 64.6668L11.481 41.4156V50.0207L52.6394 73.7283L93.8061 50.0207V41.4156L53.436 64.6668L52.6394 65.1232Z" fill="#11B67A"/>
<path d="M44.9802 39.6979L28.3343 49.2905L33.6285 52.3359L50.2495 42.7599L44.9802 39.6979Z" fill="white"/>
<path d="M57.0954 38.8184L74.7869 28.6283C73.0194 27.6077 71.2436 26.587 69.4927 25.5829L51.8013 35.773L34.9479 26.0642L29.6537 29.1096L70.8204 52.8172C72.5796 51.8048 74.3554 50.7759 76.1146 49.7718L57.0954 38.8184Z" fill="white"/>
<path d="M52.6394 100L69.1442 90.4987V68.5586L52.6394 79.3876L52.6394 100Z" fill="#6CF479"/>
<path d="M89.8645 54.9664L76.1146 63.9864V49.7469L70.7955 52.8089V89.5693L76.1146 86.4907V86.4825L89.8645 78.5661V54.9664Z" fill="#6CF479"/>
<path d="M52.1913 37.9885L32.1099 44.1789C32.1099 44.1789 26.3013 40.6937 17.2149 42.8512L11.481 39.5735L28.7575 29.6822L43.3621 27.6989L52.1913 37.9803V37.9885Z" fill="black"/>
<path d="M30.3757 10.6796C31.7282 13.7831 35.3794 16.8783 40.6404 17.9238C46.4573 19.069 50.1002 24.5291 50.1002 24.5291L52.183 37.9885L36.9062 41.3659C36.9062 41.3659 33.6451 36.1796 27.4464 34.7606C22.2187 33.5574 18.5343 30.6282 17.1817 27.5164C14.7089 21.8737 11.2071 18.123 7 16.8368L20.1939 0C25.3387 2.07452 28.1933 5.65928 30.3757 10.6796Z" fill="#6CF479"/>
<path d="M33.7364 89.3287V53.5391L27.8779 50.0954V86.026L33.7364 89.3287Z" fill="#006A4D"/>
</g>
</g>
</g>
</g>
</svg>
