<svg width="100" height="100" viewBox="0 0 100 100" fill="none" xmlns="http://www.w3.org/2000/svg">
<rect width="100" height="100" fill="#1E1E1E"/>
<g id="Default">
<path d="M-105 -9239C-105 -9240.11 -104.105 -9241 -103 -9241H1103C1104.1 -9241 1105 -9240.1 1105 -9239V23967C1105 23968.1 1104.1 23969 1103 23969H-103C-104.105 23969 -105 23968.1 -105 23967V-9239Z" fill="white"/>
<path d="M-103 -9241V-9240H1103V-9241V-9242H-103V-9241ZM1105 -9239H1104V23967H1105H1106V-9239H1105ZM1103 23969V23968H-103V23969V23970H1103V23969ZM-105 23967H-104V-9239H-105H-106V23967H-105ZM-103 23969V23968C-103.552 23968 -104 23967.6 -104 23967H-105H-106C-106 23968.7 -104.657 23970 -103 23970V23969ZM1105 23967H1104C1104 23967.6 1103.55 23968 1103 23968V23969V23970C1104.66 23970 1106 23968.7 1106 23967H1105ZM1103 -9241V-9240C1103.55 -9240 1104 -9239.55 1104 -9239H1105H1106C1106 -9240.66 1104.66 -9242 1103 -9242V-9241ZM-103 -9241V-9242C-104.656 -9242 -106 -9240.66 -106 -9239H-105H-104C-104 -9239.55 -103.553 -9240 -103 -9240V-9241Z" fill="white" fill-opacity="0.1"/>
<g id="Heart">
<rect x="-24.5" y="-24.5" width="1049" height="149" rx="4.5" stroke="#9747FF" stroke-dasharray="10 5"/>
<g id="Brand=Lloyds - V2" clip-path="url(#clip0_4483_4)">
<rect width="100" height="100" fill="#C7FFC6"/>
<g id="Path">
<path d="M72.3661 19.1987C63.6618 19.1987 56.2036 24.2497 52.8804 31.8214C49.5667 24.2497 42.0991 19.1987 33.3947 19.1987C21.792 19.1987 12.4079 28.2055 12.2569 40.6583C13.0876 71.795 53.2958 93.6795 53.2958 93.6795C53.2958 93.6795 93.5039 71.795 93.5039 40.6583C93.5039 28.8758 83.9688 19.1987 72.3661 19.1987Z" fill="#6CF479"/>
<path d="M20.7346 21.5914C24.3032 19.184 28.6364 17.7961 33.3946 17.7961C34.4614 17.7961 35.5093 17.8717 36.5384 18.0133C33.8383 16.7954 30.8361 16.1156 27.664 16.1156C23.0286 16.1156 18.7237 17.664 15.2306 20.2697L20.7346 21.582V21.5914Z" fill="black"/>
<path d="M52.8805 28.774C56.9022 22.0237 64.2849 17.7941 72.3662 17.7941C73.3291 17.7941 74.2732 17.8601 75.1984 17.9829C72.5739 16.7933 69.685 16.123 66.6356 16.123C59.6589 16.123 53.4941 19.3707 49.6045 24.5539C50.8507 25.819 51.9553 27.2257 52.8805 28.774Z" fill="black"/>
<path d="M32.1484 79.8606C18.5821 67.3512 11.2183 53.8033 10.869 40.6896V40.6329C10.9068 37.423 11.5298 34.4018 12.6344 31.6733L7.74411 30.4838C6.96997 32.7119 6.53567 35.091 6.53567 37.574C5.61048 59.213 25.1056 76.037 37.5485 84.5151C35.7926 83.0895 33.9705 81.5412 32.1484 79.8512V79.8606Z" fill="black"/>
<path d="M15.5231 26.5592C16.3728 25.4357 17.3169 24.3972 18.3648 23.4531L13.0213 22.1786C12.0489 23.1321 11.1615 24.1801 10.3779 25.3036L15.5231 26.5592Z" fill="black"/>
<path d="M82.8641 26.0603C76.3122 21.2454 68.9957 23.5584 68.9957 23.5584C82.7225 23.87 79.692 35.6525 79.692 35.6525C92.0216 46.0565 81.3253 65.9489 81.3253 65.9489C95.5808 44.9519 89.416 30.8847 82.8641 26.0698V26.0603ZM28.476 23.5962C36.274 23.5018 38.436 29.8934 38.436 29.8934C45.4788 29.8934 50.8411 35.3409 50.8411 35.3409C43.4206 18.7152 28.4854 23.5962 28.4854 23.5962H28.476ZM18.1289 80.1766C18.601 89.2306 10.9445 90.137 10.9445 90.137C20.102 92.5539 22.651 100.088 22.651 100.088C22.7926 91.3927 30.0337 90.1464 30.0337 90.1464C20.4796 87.9844 18.1289 80.1766 18.1289 80.1766ZM49.0285 0.0878906C49.3589 6.3851 44.0343 7.01764 44.0343 7.01764C50.3974 8.69816 52.1722 13.938 52.1722 13.938C52.2761 7.89567 57.308 7.02709 57.308 7.02709C50.6712 5.52596 49.0285 0.0973409 49.0285 0.0973409V0.0878906Z" fill="#006A4D"/>
</g>
</g>
</g>
</g>
<defs>
<clipPath id="clip0_4483_4">
<rect width="100" height="100" fill="white"/>
</clipPath>
</defs>
</svg>
