<svg width="100" height="100" viewBox="0 0 100 100" fill="none" xmlns="http://www.w3.org/2000/svg">
<rect width="100" height="100" fill="#1E1E1E"/>
<g id="Default">
<path d="M-105 -9663C-105 -9664.11 -104.105 -9665 -103 -9665H1103C1104.1 -9665 1105 -9664.1 1105 -9663V23543C1105 23544.1 1104.1 23545 1103 23545H-103C-104.105 23545 -105 23544.1 -105 23543V-9663Z" fill="white"/>
<path d="M-103 -9665V-9664H1103V-9665V-9666H-103V-9665ZM1105 -9663H1104V23543H1105H1106V-9663H1105ZM1103 23545V23544H-103V23545V23546H1103V23545ZM-105 23543H-104V-9663H-105H-106V23543H-105ZM-103 23545V23544C-103.552 23544 -104 23543.6 -104 23543H-105H-106C-106 23544.7 -104.657 23546 -103 23546V23545ZM1105 23543H1104C1104 23543.6 1103.55 23544 1103 23544V23545V23546C1104.66 23546 1106 23544.7 1106 23543H1105ZM1103 -9665V-9664C1103.55 -9664 1104 -9663.55 1104 -9663H1105H1106C1106 -9664.66 1104.66 -9666 1103 -9666V-9665ZM-103 -9665V-9666C-104.656 -9666 -106 -9664.66 -106 -9663H-105H-104C-104 -9663.55 -103.553 -9664 -103 -9664V-9665Z" fill="white" fill-opacity="0.1"/>
<g id="Higher Education">
<rect x="-24.5" y="-24.5" width="1049" height="149" rx="4.5" stroke="#9747FF" stroke-dasharray="10 5"/>
<g id="Brand=Lloyds - V2">
<rect width="100" height="100" fill="#C7FFC6"/>
<g id="Path">
<path d="M89.9048 27.8513L45.0215 2L0 27.7562L20.484 39.5626C16.707 48.0328 15.8513 59.0008 15.8513 59.165C15.8513 64.8694 28.6516 69.502 44.4511 69.502C60.2505 69.502 73.0508 64.878 73.0508 59.165C73.0508 59.0008 71.6766 48.3958 68.5565 40.1503L89.9048 27.8513Z" fill="#6CF479"/>
<path d="M65.0388 16.6154L84.8659 27.739L72.4545 34.7312C72.4545 34.7312 78.4441 26.1746 65.0388 16.6154Z" fill="white"/>
<path d="M0 27.7562V30.0464H0.164217L12.0138 36.8917C12.0311 36.9609 13.6041 43.253 10.2852 49.0525C9.99134 49.571 9.65426 50.1156 9.30854 50.686C6.63784 55.0507 2.98184 61.0317 6.74156 69.3722C8.37509 72.985 11.1841 76.0446 14.8746 78.2572C14.7882 78.5598 14.7277 78.8709 14.7018 79.1907C14.5116 81.3947 15.9291 82.7689 15.9291 82.7689C20.8729 88.0325 27.4762 90.8156 27.4762 90.8156C36.3353 85.6643 35.7735 76.7534 35.7735 76.7534C27.0354 76.9003 20.8815 75.1198 20.8815 75.1198C20.8815 75.1198 20.1383 74.9383 19.758 74.9124C18.4356 74.8087 17.1996 75.2668 16.2748 76.0792C13.0078 74.1345 10.5358 71.4638 9.10975 68.3178C5.91183 61.2305 9.02332 56.1397 11.5212 52.0516C11.8842 51.4552 12.2299 50.8934 12.541 50.3489C15.0994 45.8632 15.1599 41.2219 14.8919 38.5425L19.7493 41.3429C16.5946 49.4933 15.86 59.0179 15.86 59.1734C15.86 61.5935 18.1763 63.8234 22.0397 65.5866C22.3595 59.6056 24.1054 55.5952 26.0587 52.9418C26.7242 53.106 37.9775 56.0447 43.5176 64.0654C43.5176 64.0654 48.0379 55.2149 60.5444 50.2193C60.5444 50.2193 67.865 47.3239 71.1667 48.9315C70.6395 46.6756 69.9826 44.2642 69.2133 41.9652L89.9134 30.0464V27.8511L45.0302 53.7024L0 27.7562Z" fill="black"/>
<path d="M89.7492 27.756L89.9048 27.8513V27.756H89.7492Z" fill="black"/>
<path d="M60.8252 97.4996C64.6608 95.2457 65.7822 90.0355 63.33 85.8625C60.8777 81.6894 55.7804 80.1337 51.9448 82.3876C48.1092 84.6415 46.9878 89.8516 49.44 94.0247C51.8923 98.1977 56.9896 99.7535 60.8252 97.4996Z" fill="black"/>
<path d="M98.8676 48.983C96.5686 44.7307 91.5124 42.9761 87.5885 45.0677C86.7328 45.5258 86.0068 46.1308 85.4104 46.8396L51.3137 82.8291C51.5989 82.6217 51.8928 82.4229 52.2126 82.25C56.1365 80.1584 61.1927 81.913 63.4917 86.1653C65.3413 89.5793 64.8487 93.5638 62.5669 96.0875L97.7354 59.1213C100.199 56.6148 100.769 52.5007 98.8676 48.9917V48.983Z" fill="#11B67A"/>
<path d="M56.4651 85.3007L53.8549 87.9801C53.3363 88.5159 52.8955 89.1382 52.6189 89.8297C52.3423 90.5211 52.1435 91.4546 52.351 92.4744C52.7918 94.6266 54.4512 96.3638 57.3726 96.6404C59.2135 96.8132 61.0977 96.2514 62.3164 94.8599C62.6016 94.5401 62.8522 94.1598 63.051 93.719C63.051 93.719 59.0839 94.4018 56.9664 91.3163C54.9785 88.4122 56.4564 85.2921 56.4564 85.2921L56.4651 85.3007Z" fill="#006A4D"/>
<path d="M89.5592 45.8192C88.3492 46.1217 87.2775 46.8218 86.4218 47.7293L79.3259 55.2747C89.0061 47.2108 95.3241 47.0898 95.3241 47.0898C93.0942 45.4735 91.0458 45.4476 89.5592 45.8192Z" fill="#6CF479"/>
<path d="M55.5057 80.1582C58.2715 79.7952 60.5014 81.1176 60.5014 81.1176C60.5014 81.1176 59.421 79.5532 60.7434 78.4123C62.0658 77.2714 63.7511 77.6863 63.7511 77.6863C62.9733 72.4486 65.497 69.8039 65.497 69.8039L55.5143 80.1496L55.5057 80.1582Z" fill="#6CF479"/>
<path d="M85.3932 63.1749C83.0941 58.9225 78.0379 57.168 74.114 59.2596C73.2583 59.7177 72.5323 60.3227 71.936 61.0314L65.0907 68.257C65.5488 67.8249 66.0587 67.4446 66.6378 67.1421C70.5876 65.0418 75.6697 66.805 77.9774 71.0833C79.6283 74.1429 79.4208 77.6433 77.7354 80.1671L84.2523 73.3132C86.7155 70.8067 87.286 66.6926 85.3845 63.1836L85.3932 63.1749Z" fill="black"/>
</g>
</g>
</g>
</g>
</svg>
