<svg width="100" height="100" viewBox="0 0 100 100" fill="none" xmlns="http://www.w3.org/2000/svg">
<rect width="100" height="100" fill="#1E1E1E"/>
<g id="Default">
<path d="M-105 -10087C-105 -10088.1 -104.105 -10089 -103 -10089H1103C1104.1 -10089 1105 -10088.1 1105 -10087V23119C1105 23120.1 1104.1 23121 1103 23121H-103C-104.105 23121 -105 23120.1 -105 23119V-10087Z" fill="white"/>
<path d="M-103 -10089V-10088H1103V-10089V-10090H-103V-10089ZM1105 -10087H1104V23119H1105H1106V-10087H1105ZM1103 23121V23120H-103V23121V23122H1103V23121ZM-105 23119H-104V-10087H-105H-106V23119H-105ZM-103 23121V23120C-103.552 23120 -104 23119.6 -104 23119H-105H-106C-106 23120.7 -104.657 23122 -103 23122V23121ZM1105 23119H1104C1104 23119.6 1103.55 23120 1103 23120V23121V23122C1104.66 23122 1106 23120.7 1106 23119H1105ZM1103 -10089V-10088C1103.55 -10088 1104 -10087.6 1104 -10087H1105H1106C1106 -10088.7 1104.66 -10090 1103 -10090V-10089ZM-103 -10089V-10090C-104.656 -10090 -106 -10088.7 -106 -10087H-105H-104C-104 -10087.6 -103.553 -10088 -103 -10088V-10089Z" fill="white" fill-opacity="0.1"/>
<g id="ID">
<rect x="-24.5" y="-24.5" width="1049" height="149" rx="4.5" stroke="#9747FF" stroke-dasharray="10 5"/>
<g id="Brand=Lloyds - V2">
<rect width="100" height="100" fill="#C7FFC6"/>
<g id="Path">
<path d="M99.569 70.8408L75.8551 16.9665C74.3936 13.6341 70.7748 11.7943 67.2168 12.5667L56.2906 14.9185C56.8822 16.0379 57.291 17.1054 57.5259 17.8343C57.726 18.4418 57.6564 19.11 57.3258 19.6654C57.004 20.2208 56.4472 20.62 55.8208 20.7502L48.096 22.3383C47.9481 22.373 47.7915 22.3817 47.6349 22.3817C46.4867 22.3817 45.521 21.5226 45.3818 20.3944C45.2339 19.1621 44.9469 18.1901 44.5815 17.4351L26.0697 21.4271C22.9119 22.104 21.1721 25.5059 22.4682 28.4651L46.1039 82.1659C47.5653 85.481 51.1581 87.3207 54.7074 86.5744L95.9415 77.8875C99.1167 77.2193 100.865 73.8088 99.569 70.8495V70.8408ZM36.935 25.2368C35.5692 25.2368 34.4557 24.369 34.4557 23.2929C34.4557 22.2168 35.5692 21.349 36.935 21.349C38.3007 21.349 39.4142 22.2168 39.4142 23.2929C39.4142 24.369 38.3007 25.2368 36.935 25.2368ZM67.7214 19.7435C66.199 19.7435 64.9637 18.7716 64.9637 17.574C64.9637 16.3764 66.199 15.4044 67.7214 15.4044C69.2437 15.4044 70.479 16.3764 70.479 17.574C70.479 18.7716 69.2437 19.7435 67.7214 19.7435Z" fill="black"/>
<path d="M91.731 51.1502L75.855 15.0749C74.3935 11.7425 70.7747 9.90272 67.2167 10.6751L55.2553 13.2525C56.4558 14.8927 57.1691 16.7411 57.5258 17.8433C57.7259 18.4508 57.6563 19.119 57.3257 19.6744C57.0039 20.2298 56.4471 20.629 55.8207 20.7592L48.0959 22.3473C47.948 22.382 47.7914 22.3907 47.6348 22.3907C46.4865 22.3907 45.5209 21.5315 45.3817 20.4034C45.086 17.9995 44.2856 16.6023 43.3722 15.8039L26.0609 19.5355C22.9031 20.2124 21.1632 23.6143 22.4594 26.5736L38.3354 62.6575L91.7223 51.1589L91.731 51.1502ZM67.7214 15.4044C69.2437 15.4044 70.479 16.3764 70.479 17.574C70.479 18.7716 69.2437 19.7435 67.7214 19.7435C66.199 19.7435 64.9637 18.7716 64.9637 17.574C64.9637 16.3764 66.199 15.4044 67.7214 15.4044ZM34.4556 23.2845C34.4556 22.2084 35.5691 21.3406 36.9349 21.3406C38.3006 21.3406 39.4141 22.2084 39.4141 23.2845C39.4141 24.3606 38.3006 25.2284 36.9349 25.2284C35.5691 25.2284 34.4556 24.3606 34.4556 23.2845Z" fill="#11B67A"/>
<path d="M0.502921 77.0217C1.27715 88.6505 15.7265 95.0377 26.5221 86.724C37.9442 77.9242 35.4214 67.3976 34.8473 63.1192L31.2719 54.8402C31.2719 54.8402 36.1522 79.8595 17.2054 84.537C17.2054 84.537 6.11389 87.1579 1.53813 79.009L0.502921 77.013V77.0217Z" fill="#11B67A"/>
<path d="M99.5688 68.9496L92.2702 52.3656L38.8834 63.8642L46.1037 80.266C47.5651 83.5811 51.1579 85.4209 54.7072 84.6745L95.9413 75.9877C99.1165 75.3194 100.865 71.9089 99.5688 68.9496Z" fill="#6CF479"/>
<path d="M62.8759 17.5646C62.8759 17.5646 62.4496 21.0706 66.8166 21.7128C71.1836 22.355 72.8886 19.4825 72.8886 19.4825L85.1458 44.2588C85.1458 44.2588 72.1405 21.1834 54.0288 24.0559C54.0288 24.0559 59.4658 22.8843 62.8759 17.5733V17.5646Z" fill="white"/>
<path d="M34.6294 45.9521L38.4657 55.8366C38.4657 55.8366 43.7374 49.7792 46.6168 34.9481C46.6168 34.9481 43.5808 41.9688 34.6294 45.9521Z" fill="white"/>
<path d="M68.2347 73.4018L76.238 71.7096C76.4815 71.6575 76.6207 71.3972 76.5251 71.1715L73.3411 63.5868C73.2367 63.3438 72.9758 63.2049 72.7148 63.257L64.7116 64.9492C64.468 65.0013 64.3288 65.2617 64.4245 65.4873L67.6084 73.072C67.7128 73.315 67.9737 73.4539 68.2347 73.4018ZM50.9582 67.8478L47.4785 68.5854L53.7158 71.8658L51.0191 77.038L54.4987 76.3003L57.1954 71.1281L50.9582 67.8478ZM54.6553 67.0754L60.8926 70.3558L58.1959 75.528L61.6755 74.7903L64.3723 69.6181L58.135 66.3378L54.6553 67.0754ZM90.061 59.5861L86.5813 60.3238L83.8845 65.496L90.1219 68.7763L93.6015 68.0387L87.3642 64.7583L90.061 59.5861ZM82.8841 61.1048L79.4045 61.8424L76.7077 67.0147L82.945 70.295L86.4247 69.5574L80.1874 66.277L82.8841 61.1048Z" fill="#00482F"/>
<path d="M57.3781 40.0096C58.0653 40.2092 58.8134 40.3134 59.492 40.1745C60.1705 40.0357 60.7012 39.6538 61.1187 39.2286C62.0582 38.2566 62.441 36.9028 62.3714 35.497C62.2844 33.796 61.719 32.3815 61.719 32.3815C60.301 28.7453 57.0214 27.4523 54.1855 28.0511C51.3496 28.6499 49.6532 30.9843 51.393 34.5597C51.393 34.5597 52.0629 35.9569 53.3504 37.3975C54.4204 38.5951 55.8296 39.567 57.3868 40.0183L57.3781 40.0096ZM74.1414 44.3487C72.2885 41.9449 70.6965 41.2419 68.165 41.0076L64.0851 40.5564C64.0851 40.5564 63.4762 40.4869 62.5715 40.4869C61.8929 41.1725 61.1013 41.6238 60.214 41.806C59.3267 41.9883 58.3089 41.9275 57.1954 41.6151C56.4386 41.9622 55.9949 42.2573 55.9949 42.2573L52.9589 44.2012C51.0451 45.3728 50.2795 46.579 50.671 49.2866L51.2887 52.9402L76.5511 47.6117L74.1327 44.3314L74.1414 44.3487Z" fill="black"/>
<path d="M24.8604 42.6346C24.0688 43.6152 23.3293 44.6479 22.6247 45.6893C21.4242 47.4683 18.597 50.9743 13.2818 54.0551C5.7744 58.4029 -0.349822 61.9436 0.0155435 70.9256C0.0155435 70.9256 0.0155413 73.2253 0.502695 75.8808C0.502695 75.8808 0.502714 69.9883 5.46994 65.1545C10.4372 60.3208 15.5871 60.1212 20.7979 55.4089C26.0087 50.6966 26.4871 44.5091 25.8869 41.3676L24.8691 42.6259L24.8604 42.6346ZM56.2905 18.2315C55.6207 16.1661 53.7417 11.6707 49.9749 11.1848L39.9534 13.5279C39.9534 13.5279 45.7297 12.5472 46.6779 20.2448C46.7475 20.8002 47.2782 21.1821 47.8349 21.0692L55.5598 19.4811C56.1252 19.3683 56.4645 18.7869 56.2905 18.2401V18.2315Z" fill="black"/>
<path d="M91.731 51.1452L38.3528 62.6438L38.8835 63.8588L92.2703 52.3601L91.731 51.1452Z" fill="black"/>
</g>
</g>
</g>
</g>
</svg>
