<svg width="100" height="100" viewBox="0 0 100 100" fill="none" xmlns="http://www.w3.org/2000/svg">
<rect width="100" height="100" fill="#1E1E1E"/>
<g id="Default">
<path d="M-105 -10299C-105 -10300.1 -104.105 -10301 -103 -10301H1103C1104.1 -10301 1105 -10300.1 1105 -10299V22907C1105 22908.1 1104.1 22909 1103 22909H-103C-104.105 22909 -105 22908.1 -105 22907V-10299Z" fill="white"/>
<path d="M-103 -10301V-10300H1103V-10301V-10302H-103V-10301ZM1105 -10299H1104V22907H1105H1106V-10299H1105ZM1103 22909V22908H-103V22909V22910H1103V22909ZM-105 22907H-104V-10299H-105H-106V22907H-105ZM-103 22909V22908C-103.552 22908 -104 22907.6 -104 22907H-105H-106C-106 22908.7 -104.657 22910 -103 22910V22909ZM1105 22907H1104C1104 22907.6 1103.55 22908 1103 22908V22909V22910C1104.66 22910 1106 22908.7 1106 22907H1105ZM1103 -10301V-10300C1103.55 -10300 1104 -10299.6 1104 -10299H1105H1106C1106 -10300.7 1104.66 -10302 1103 -10302V-10301ZM-103 -10301V-10302C-104.656 -10302 -106 -10300.7 -106 -10299H-105H-104C-104 -10299.6 -103.553 -10300 -103 -10300V-10301Z" fill="white" fill-opacity="0.1"/>
<g id="_Individual Learning">
<rect x="-24.5" y="-24.5" width="1049" height="149" rx="4.5" stroke="#9747FF" stroke-dasharray="10 5"/>
<g id="Brand=Lloyds - V2">
<rect width="100" height="100" fill="#C7FFC6"/>
<g id="Path">
<path d="M43.6882 81.0115L8.25957 60.45C7.74384 60.1256 7.21062 59.9502 6.71237 59.9502C6.11796 59.9502 5.6022 60.187 5.19136 60.6692C4.51828 61.4496 4.23857 62.7297 4.43962 64.0976C4.69312 65.8425 5.69836 67.4821 7.00082 68.28L43.0588 89.2186C43.8892 89.7008 44.9382 89.5518 45.5938 88.8503L89.3704 42.6943L88.9682 35.5745L46.2144 80.6433C45.5588 81.3359 44.5098 81.4938 43.6794 81.0115H43.6882Z" fill="white"/>
<path d="M45.8999 91.4561C45.1918 92.2014 44.0729 92.3592 43.19 91.8507L4.64953 69.4741C3.25966 68.6236 2.18447 66.87 1.91349 65.0023C1.7037 63.538 2.00091 62.1702 2.7177 61.3372C3.15477 60.8286 3.69672 60.5744 4.34358 60.5744C4.8768 60.5744 5.445 60.7585 5.9957 61.1092L43.8631 83.0824C44.746 83.5998 45.8649 83.4332 46.5729 82.6879L94.4492 32.2179C95.1922 31.4375 95.0086 30.1661 94.082 29.6313L56.6954 7.91232C54.4838 6.62339 51.6866 7.02673 49.9209 8.8856C38.9243 20.4772 1.45896 59.9957 1.38903 60.0658L1.35406 60.1096C0.305098 61.3109 -0.219393 63.1785 0.0865538 65.2829C0.45369 67.7906 1.88726 69.9651 3.68798 71.0699L43.5222 94.2006C44.4051 94.7179 45.524 94.5513 46.232 93.806L94.4842 42.9327C95.166 42.2137 95.0611 41.065 94.2656 40.4776L45.8999 91.4736V91.4561Z" fill="#11B67A"/>
<path d="M92.4473 51.8395L84.5627 33.9084L75.8738 14.2413C75.5941 13.61 74.9122 13.1628 74.2654 13.1628C74.178 13.1628 74.0905 13.1628 74.0031 13.1891L43.7931 19.5899L20.209 18.6429V25.1928C20.209 25.5698 20.2877 25.7803 20.3664 25.9644L24.5535 35.399L18.3296 42.1769C18.8891 41.6859 19.3786 41.6508 19.7982 41.7297C20.5762 41.8875 20.8996 42.5714 20.8996 42.5714L34.5623 74.9701C34.8857 75.7417 35.7074 76.1713 36.5203 76.0047L95.8565 63.2645C96.5645 63.1154 96.8879 62.6069 96.853 61.7563V55.6361L92.4473 51.8219V51.8395Z" fill="black"/>
<path d="M89.2305 38.0141L96.7655 55.0069C97.0802 55.7259 96.7655 56.4274 96.0487 56.5765L43.2861 68.0015C43.1987 68.019 43.1025 68.0278 43.0151 68.0278C42.3595 68.0278 41.6777 67.5894 41.3979 66.958L34.3874 51.0525L89.2393 38.0141H89.2305Z" fill="#00482F"/>
<path d="M89.2306 38.0131L75.8651 7.57849C75.5854 6.94718 74.9036 6.5 74.2567 6.5C74.1693 6.5 74.0819 6.5 73.9945 6.5263L21.1007 17.7321C20.3752 17.8724 20.043 18.5826 20.3664 19.3104L34.2477 51.104C34.2477 51.104 38.6883 60.223 47.9541 62.4852C49.2915 62.8096 50.6988 62.7658 52.045 62.4764L99.1345 52.2614C100.061 52.0598 100.315 50.8673 99.5454 50.3149C96.7569 48.3157 91.9317 44.1771 89.2306 38.0131Z" fill="#6CF479"/>
<path d="M5.716 12.9624C5.716 12.9624 6.93105 17.0046 11.8612 18.1182C11.8612 18.1182 8.12862 18.767 8.04995 23.2651C8.04995 23.2651 6.73875 19.3633 2.00969 18.1182C2.00969 18.1182 5.96076 17.6447 5.716 12.9624Z" fill="#006A4D"/>
<path d="M78.1466 65.0206C78.1466 65.0206 80.4543 72.7016 89.825 74.8235C89.825 74.8235 82.7271 76.0511 82.5872 84.6001C82.5872 84.6001 80.0872 77.1909 71.1099 74.8148C71.1099 74.8148 78.6099 73.9204 78.1466 65.0206Z" fill="#006A4D"/>
</g>
</g>
</g>
</g>
</svg>
