<svg width="100" height="100" viewBox="0 0 100 100" fill="none" xmlns="http://www.w3.org/2000/svg">
<rect width="100" height="100" fill="#1E1E1E"/>
<g id="Default">
<path d="M-105 -10511C-105 -10512.1 -104.105 -10513 -103 -10513H1103C1104.1 -10513 1105 -10512.1 1105 -10511V22695C1105 22696.1 1104.1 22697 1103 22697H-103C-104.105 22697 -105 22696.1 -105 22695V-10511Z" fill="white"/>
<path d="M-103 -10513V-10512H1103V-10513V-10514H-103V-10513ZM1105 -10511H1104V22695H1105H1106V-10511H1105ZM1103 22697V22696H-103V22697V22698H1103V22697ZM-105 22695H-104V-10511H-105H-106V22695H-105ZM-103 22697V22696C-103.552 22696 -104 22695.6 -104 22695H-105H-106C-106 22696.7 -104.657 22698 -103 22698V22697ZM1105 22695H1104C1104 22695.6 1103.55 22696 1103 22696V22697V22698C1104.66 22698 1106 22696.7 1106 22695H1105ZM1103 -10513V-10512C1103.55 -10512 1104 -10511.6 1104 -10511H1105H1106C1106 -10512.7 1104.66 -10514 1103 -10514V-10513ZM-103 -10513V-10514C-104.656 -10514 -106 -10512.7 -106 -10511H-105H-104C-104 -10511.6 -103.553 -10512 -103 -10512V-10513Z" fill="white" fill-opacity="0.1"/>
<g id="_Individual Learning Online">
<rect x="-24.5" y="-24.5" width="1049" height="149" rx="4.5" stroke="#9747FF" stroke-dasharray="10 5"/>
<g id="Brand=Lloyds - V2">
<rect width="100" height="100" fill="#C7FFC6"/>
<g id="Path">
<path d="M84.4601 81.4593H0V85.7233H84.4601V81.4593Z" fill="black"/>
<path d="M73.047 60.4808H11.4215L0.2632 84.6034C-0.577494 86.415 0.738765 88.5 2.72586 88.5H81.7426C83.7297 88.5 85.046 86.4235 84.2053 84.6034L73.047 60.4808Z" fill="black"/>
<path d="M73.047 56.2675H11.4215L0.2632 80.3901C-0.577494 82.2016 0.738765 84.2867 2.72586 84.2867H81.7426C83.7297 84.2867 85.046 82.2102 84.2053 80.3901L73.047 56.2675Z" fill="#6CF479"/>
<path d="M70.1853 12.5C71.6884 12.5 72.9027 13.7305 72.9027 15.2344V54.6783H11.549V15.2344C11.549 13.722 12.7718 12.5 14.2664 12.5H70.1853Z" fill="#11B67A"/>
<path d="M42.2301 18.0821C42.8304 18.0821 43.317 17.5924 43.317 16.9883C43.317 16.3843 42.8304 15.8946 42.2301 15.8946C41.6298 15.8946 41.1431 16.3843 41.1431 16.9883C41.1431 17.5924 41.6298 18.0821 42.2301 18.0821Z" fill="#6CF479"/>
<path d="M75.8661 71.283L71.0767 61.0887C70.7795 60.4478 70.1426 60.0462 69.4378 60.0462H15.0304C14.3256 60.0462 13.6887 60.4564 13.3915 61.0887L8.60209 71.283C8.1775 72.1888 8.83138 73.2397 9.83342 73.2397H25.1612C25.7132 73.2397 26.1463 73.7354 26.0614 74.2908L25.8831 75.4273C25.7557 76.2562 26.3925 77.0081 27.2247 77.0081H57.235C58.0672 77.0081 58.7041 76.2562 58.5767 75.4273L58.3984 74.2908C58.3135 73.7354 58.7381 73.2397 59.2985 73.2397H74.6263C75.6284 73.2397 76.2822 72.1973 75.8577 71.283H75.8661Z" fill="black"/>
<path d="M100 61.978L85.5978 51.6385L87.8991 69.2925L91.9327 64.3022L98.0723 74.599L99.8726 73.5138L93.733 63.217L100 61.978Z" fill="#006A4D"/>
<path d="M30.6046 35.573C31.2245 35.949 31.9548 36.2395 32.7191 36.2395C33.4834 36.2395 34.2137 35.949 34.8336 35.573C36.2432 34.7271 37.2622 33.3427 37.8312 31.7875C38.5105 29.9162 38.57 28.2329 38.57 28.2329C38.7568 23.9347 35.9375 21.7643 32.7191 21.7643C29.5007 21.7643 26.6814 23.9262 26.8682 28.2329C26.8682 28.2329 26.9276 29.9076 27.607 31.7875C28.1759 33.3427 29.1865 34.7271 30.6046 35.573ZM46.0173 44.1778C45.1936 41.1272 43.8604 39.9823 41.3383 39.1449L37.3047 37.7178C37.3047 37.7178 36.7018 37.4957 35.7676 37.2991C34.7486 37.8973 33.7296 38.2048 32.7276 38.2048C31.7256 38.2048 30.698 37.8973 29.6875 37.2991C28.7534 37.5042 28.1505 37.7178 28.1505 37.7178L24.1168 39.1449C21.5948 39.9823 20.2615 41.1272 19.4378 44.1778L18.4188 48.3137H47.0449L46.0258 44.1778H46.0173Z" fill="black"/>
<path d="M65.447 18.0044H50.9598C50.0219 18.0044 49.2615 18.7695 49.2615 19.7134V36.9061C49.2615 37.8499 50.0219 38.6151 50.9598 38.6151H65.447C66.3849 38.6151 67.1453 37.8499 67.1453 36.9061V19.7134C67.1453 18.7695 66.3849 18.0044 65.447 18.0044Z" fill="#00482F"/>
<path d="M64.0968 32.1359C63.7486 30.8456 63.1881 30.3671 62.1181 30.0082L60.4198 29.4015C60.4198 29.4015 60.3858 29.3929 60.3348 29.3758C60.2329 29.4527 60.1395 29.5297 60.0291 29.598C59.5196 29.9056 59.0016 30.0595 58.4836 30.0595C57.9656 30.0595 57.4476 29.9056 56.9381 29.598C56.8277 29.5297 56.7343 29.4527 56.6324 29.3758C56.5814 29.3929 56.5475 29.4015 56.5475 29.4015L54.8491 30.0082C53.7876 30.3585 53.2187 30.8456 52.8705 32.1359L52.4374 33.8791H64.5298L64.0968 32.1359ZM57.5835 28.5042C57.8467 28.658 58.1524 28.7863 58.4751 28.7863C58.7978 28.7863 59.1035 28.6666 59.3668 28.5042C59.9612 28.1453 60.3943 27.5643 60.6321 26.9063C60.9208 26.1116 60.9463 25.4024 60.9463 25.4024C61.0227 23.5823 59.8338 22.668 58.4751 22.668C57.1164 22.668 55.9276 23.5823 56.004 25.4024C56.004 25.4024 56.0295 26.1116 56.3182 26.9063C56.556 27.5643 56.989 28.1453 57.5835 28.5042Z" fill="white"/>
</g>
</g>
</g>
</g>
</svg>
