<svg width="100" height="100" viewBox="0 0 100 100" fill="none" xmlns="http://www.w3.org/2000/svg">
<rect width="100" height="100" fill="#1E1E1E"/>
<g id="Default">
<path d="M-105 -10723C-105 -10724.1 -104.105 -10725 -103 -10725H1103C1104.1 -10725 1105 -10724.1 1105 -10723V22483C1105 22484.1 1104.1 22485 1103 22485H-103C-104.105 22485 -105 22484.1 -105 22483V-10723Z" fill="white"/>
<path d="M-103 -10725V-10724H1103V-10725V-10726H-103V-10725ZM1105 -10723H1104V22483H1105H1106V-10723H1105ZM1103 22485V22484H-103V22485V22486H1103V22485ZM-105 22483H-104V-10723H-105H-106V22483H-105ZM-103 22485V22484C-103.552 22484 -104 22483.6 -104 22483H-105H-106C-106 22484.7 -104.657 22486 -103 22486V22485ZM1105 22483H1104C1104 22483.6 1103.55 22484 1103 22484V22485V22486C1104.66 22486 1106 22484.7 1106 22483H1105ZM1103 -10725V-10724C1103.55 -10724 1104 -10723.6 1104 -10723H1105H1106C1106 -10724.7 1104.66 -10726 1103 -10726V-10725ZM-103 -10725V-10726C-104.656 -10726 -106 -10724.7 -106 -10723H-105H-104C-104 -10723.6 -103.553 -10724 -103 -10724V-10725Z" fill="white" fill-opacity="0.1"/>
<g id="Insure">
<rect x="-24.5" y="-24.5" width="1049" height="149" rx="4.5" stroke="#9747FF" stroke-dasharray="10 5"/>
<g id="Brand=Lloyds - V2">
<rect width="100" height="100" fill="#C7FFC6"/>
<g id="Path">
<path d="M25.8168 36.3733C27.0454 38.5782 27.8265 40.8076 28.1519 42.8091C30.1779 42.8661 32.5294 43.4763 34.832 44.6724C38.1028 46.3729 40.4704 48.8138 41.3654 51.1163C43.6598 50.1237 47.1911 50.1969 50.7792 51.5313C54.53 52.9308 57.329 55.331 58.3134 57.6824C60.5021 56.5596 63.8462 56.2504 67.3774 57.0477C71.3316 57.9427 74.4641 59.9768 75.7496 62.2143C75.774 62.2143 75.7985 62.2225 75.8229 62.2306C77.9872 61.0101 81.2092 60.2941 84.7892 60.3999C87.1813 60.4731 89.3861 60.9044 91.2168 61.5878C92.7546 60.2209 95.7651 58.7157 98.4907 57.959C99.3044 48.9358 86.5547 30.6534 68.1584 24.7058C50.0144 18.8313 28.5507 27.1222 24.0431 33.8022C24.4825 34.4287 25.4263 35.6736 25.8168 36.3814V36.3733Z" fill="black"/>
<path d="M60.2904 44.2091L48.1185 86.4124C47.3374 88.1942 45.5799 89.3496 43.6272 89.3496C40.9259 89.3496 38.7291 87.1528 38.7291 84.4515C38.7291 83.1416 39.2417 81.913 40.1611 80.9854C40.7388 80.4078 40.7388 79.4639 40.1611 78.8863C39.5834 78.3086 38.6396 78.3086 38.062 78.8863C36.573 80.3752 35.7594 82.3523 35.7594 84.4515C35.7594 88.7882 39.2905 92.3194 43.6272 92.3194C46.8085 92.3194 49.6644 90.4236 50.893 87.4864L61.7713 49.7907L60.2904 44.2091Z" fill="#006A4D"/>
<path d="M29.6245 56.0069C26.1421 56.0069 23.1073 57.9108 21.48 60.7259C20.8291 60.1727 19.9096 59.6275 18.7136 59.4892C15.8333 59.1637 13.8806 60.8561 13.189 61.5802C12.9043 61.8813 12.6114 62.1742 12.2941 62.4427C10.1949 64.2571 6.89149 66.3075 0 66.3075H39.03V65.4043C39.03 60.2133 34.8236 56.0069 29.6326 56.0069H29.6245Z" fill="white"/>
<path d="M65.701 73.427L85.0167 73.4433C85.0167 73.4433 80.5173 63.6471 65.701 73.427Z" fill="white"/>
<path d="M54.717 32.6225C59.1595 33.7046 62.6175 36.0235 63.6996 38.3586L72.9018 9.92206C57.4264 10.4672 48.5334 23.7132 44.0177 33.6558C46.0193 32.0204 50.2095 31.5159 54.717 32.6225Z" fill="#11B67A"/>
<path d="M73.6828 39.0095C78.1415 40.6693 81.4612 43.452 82.4213 46.0068C84.5774 35.2993 85.0982 19.4009 72.9018 9.92206L63.6996 38.3586C66.1975 37.6426 69.9482 37.6101 73.6828 39.0095Z" fill="#6CF479"/>
<path d="M97.7582 59.993C97.7582 59.993 97.7907 60.0581 97.807 60.0906C97.8477 59.9849 97.8802 59.871 97.9208 59.7652C97.8639 59.8384 97.8151 59.9198 97.7582 59.993Z" fill="#11B67A"/>
<path d="M82.4049 46.0477C84.8539 46.0477 87.9376 46.9427 90.948 48.6757C95.5532 51.3363 98.523 55.1279 98.4823 57.943C104.267 37.7405 93.039 16.4395 72.8934 9.91416C85.1061 19.4093 84.561 35.3403 82.4049 46.0396V46.0477Z" fill="#11B67A"/>
<path d="M24.043 33.7862C26.0201 31.9881 29.8279 30.7676 34.1971 30.7676C38.5663 30.7676 41.9673 31.9881 44.0095 33.6479C48.5414 23.7216 57.4832 10.4593 72.8934 9.91416C52.7641 3.39695 31.2029 14.0556 24.0348 33.7781L24.043 33.7862Z" fill="#6CF479"/>
<path d="M30.9181 26.2764C30.9181 26.2764 38.9812 11.7855 59.7777 10.142C59.7777 10.142 51.5845 11.1509 46.5481 19.8486C46.5481 19.8486 37.8503 18.5875 30.9181 26.2764Z" fill="white"/>
</g>
</g>
</g>
</g>
</svg>
