<svg width="100" height="100" viewBox="0 0 100 100" fill="none" xmlns="http://www.w3.org/2000/svg">
<rect width="100" height="100" fill="#1E1E1E"/>
<g id="Default">
<path d="M-105 -11147C-105 -11148.1 -104.105 -11149 -103 -11149H1103C1104.1 -11149 1105 -11148.1 1105 -11147V22059C1105 22060.1 1104.1 22061 1103 22061H-103C-104.105 22061 -105 22060.1 -105 22059V-11147Z" fill="white"/>
<path d="M-103 -11149V-11148H1103V-11149V-11150H-103V-11149ZM1105 -11147H1104V22059H1105H1106V-11147H1105ZM1103 22061V22060H-103V22061V22062H1103V22061ZM-105 22059H-104V-11147H-105H-106V22059H-105ZM-103 22061V22060C-103.552 22060 -104 22059.6 -104 22059H-105H-106C-106 22060.7 -104.657 22062 -103 22062V22061ZM1105 22059H1104C1104 22059.6 1103.55 22060 1103 22060V22061V22062C1104.66 22062 1106 22060.7 1106 22059H1105ZM1103 -11149V-11148C1103.55 -11148 1104 -11147.6 1104 -11147H1105H1106C1106 -11148.7 1104.66 -11150 1103 -11150V-11149ZM-103 -11149V-11150C-104.656 -11150 -106 -11148.7 -106 -11147H-105H-104C-104 -11147.6 -103.553 -11148 -103 -11148V-11149Z" fill="white" fill-opacity="0.1"/>
<g id="Invest">
<rect x="-24.5" y="-24.5" width="1049" height="149" rx="4.5" stroke="#9747FF" stroke-dasharray="10 5"/>
<g id="Brand=Lloyds - V2">
<rect width="100" height="100" fill="#C7FFC6"/>
<g id="Path">
<path d="M46.2958 54.484C29.1398 54.484 15.7386 51.802 15 48.4342L16.3806 57.9486C16.8906 61.2022 29.7729 63.805 46.2958 63.805C62.8186 63.805 75.6394 61.255 76.211 57.9486L77.5916 48.4342C76.8002 51.8636 63.4605 54.484 46.2958 54.484Z" fill="#11B67A"/>
<path d="M46.2936 65.565C38.2388 65.565 30.6677 64.9494 24.9871 63.8239C23.3779 63.5073 22.0237 63.1732 20.8806 62.8214L25.6818 95.9638C26.0336 98.2061 34.9061 100 46.2936 100C57.6811 100 66.5096 98.2413 66.9053 95.9638L71.7066 62.8478C63.5375 65.3891 49.8725 65.5738 46.2936 65.5738V65.565Z" fill="#11B67A"/>
<path d="M46.2933 51.9698C61.5766 51.9698 73.9662 50.0407 73.9662 47.661C73.9662 45.2813 61.5766 43.3522 46.2933 43.3522C31.01 43.3522 18.6204 45.2813 18.6204 47.661C18.6204 50.0407 31.01 51.9698 46.2933 51.9698Z" fill="#024731"/>
<path d="M26.7977 11.8189C27.5891 11.3616 28.6092 11.7573 28.8818 12.6367L39.0294 45.2163L32.6014 48.9271L22.3746 16.0925C22.1108 15.2395 22.4713 14.3162 23.2452 13.8678L26.8065 11.8101L26.7977 11.8189Z" fill="white"/>
<path d="M67.2307 62.1164L68.2947 52.6987C65.9469 53.1647 63.2385 53.5516 60.2311 53.8418L60.0113 57.4911C59.3518 62.7672 53.7504 63.5586 52.5369 63.6641C58.235 63.4267 63.2825 62.8815 67.2395 62.1076L67.2307 62.1164Z" fill="#F1F1F1"/>
<path d="M55.752 65.2554L54.8858 79.5227L54.0197 93.7901C53.2635 99.6465 46.2991 99.9894 46.2991 99.9894C52.2522 99.9894 57.4843 99.5058 61.2039 98.7232L65.1082 64.2881C62.0041 64.7718 58.7242 65.0708 55.752 65.2554Z" fill="#F1F1F1"/>
<path d="M58.7497 23.6543C58.4859 23.8829 57.1669 25.1052 56.9295 25.3426C56.569 25.6944 55.9886 25.325 56.1469 24.8414C56.27 24.4633 56.5426 23.1355 56.5426 23.1355C57.7033 16.1095 57.4219 2.2775 37.9797 0C37.9797 0 38.5073 4.77483 42.3852 9.13636C47.459 14.8345 49.1737 18.7652 50.5103 21.623C52.8406 27.3563 50.9676 31.4453 50.9676 31.4453C46.5005 41.3818 46.7027 47.335 46.7203 47.6427L49.798 47.5021C49.798 47.4405 49.6661 42.7272 52.9373 34.6988C53.4473 33.459 54.4234 32.4389 55.672 31.9465C57.5187 31.2254 59.4004 31.1375 60.4557 31.1639C61.5109 31.1903 62.5221 31.1903 63.551 31.1287C80.2321 30.0119 85.7983 19.3719 85.7983 19.3719C73.1446 14.2102 63.8587 19.2576 58.7497 23.6719V23.6543Z" fill="#006A4D"/>
<path d="M56.9542 27.6298C56.9542 27.6298 59.7593 26.7504 67.137 25.0005C74.5059 23.2418 77.7155 20.296 84.0379 19.7684C84.0379 19.7684 74.119 15.7411 65.0354 20.7885C65.0354 20.7885 70.6104 22.6439 56.963 27.6386L56.9542 27.6298Z" fill="#6CF479"/>
<path d="M54.4179 10.8858C53.5913 9.16233 52.3778 7.45641 50.6191 5.92635C50.6191 5.92635 45.9322 1.81983 40.7001 1.77586C40.7001 1.77586 43.9713 4.57217 46.5302 6.55069C49.8101 9.10078 51.6128 10.9738 53.7056 17.9997C52.8175 12.6709 53.8815 11.2552 54.4267 10.877L54.4179 10.8858Z" fill="#6CF479"/>
</g>
</g>
</g>
</g>
</svg>
