<svg width="100" height="100" viewBox="0 0 100 100" fill="none" xmlns="http://www.w3.org/2000/svg">
<rect width="100" height="100" fill="#1E1E1E"/>
<g id="Default">
<path d="M-105 -11359C-105 -11360.1 -104.105 -11361 -103 -11361H1103C1104.1 -11361 1105 -11360.1 1105 -11359V21847C1105 21848.1 1104.1 21849 1103 21849H-103C-104.105 21849 -105 21848.1 -105 21847V-11359Z" fill="white"/>
<path d="M-103 -11361V-11360H1103V-11361V-11362H-103V-11361ZM1105 -11359H1104V21847H1105H1106V-11359H1105ZM1103 21849V21848H-103V21849V21850H1103V21849ZM-105 21847H-104V-11359H-105H-106V21847H-105ZM-103 21849V21848C-103.552 21848 -104 21847.6 -104 21847H-105H-106C-106 21848.7 -104.657 21850 -103 21850V21849ZM1105 21847H1104C1104 21847.6 1103.55 21848 1103 21848V21849V21850C1104.66 21850 1106 21848.7 1106 21847H1105ZM1103 -11361V-11360C1103.55 -11360 1104 -11359.6 1104 -11359H1105H1106C1106 -11360.7 1104.66 -11362 1103 -11362V-11361ZM-103 -11361V-11362C-104.656 -11362 -106 -11360.7 -106 -11359H-105H-104C-104 -11359.6 -103.553 -11360 -103 -11360V-11361Z" fill="white" fill-opacity="0.1"/>
<g id="_Judges Gavel">
<rect x="-24.5" y="-24.5" width="1049" height="149" rx="4.5" stroke="#9747FF" stroke-dasharray="10 5"/>
<g id="Brand=Lloyds - V2" clip-path="url(#clip0_4483_4)">
<rect width="100" height="100" fill="#C7FFC6"/>
<g id="Path">
<path d="M96.4769 63.1618L50.6381 40.4689L48.9996 46.6763L91.1401 72.837C92.0374 73.3928 93.0361 73.6511 94.0114 73.6511C95.9463 73.6511 97.8345 72.6256 98.841 70.8017C100.362 68.0463 99.2857 64.5786 96.4769 63.1696V63.1618Z" fill="#11B67A"/>
<path d="M48.9995 46.6776L62.638 55.1473C62.6926 53.8635 62.7707 52.1649 62.8643 50.5993C63.0438 47.6404 61.6627 46.114 61.1868 45.6991L50.638 40.4779L48.9995 46.6854V46.6776Z" fill="black"/>
<path d="M59.2206 36.7049C56.0217 35.6716 52.0191 33.8478 47.9463 31.5855C43.8734 29.3233 40.2141 26.881 37.6394 24.7127C36.8435 24.0395 36.1959 23.4289 35.6653 22.8653L24.7265 42.6854C24.6953 42.7323 24.6953 42.795 24.6797 42.8498C25.6784 44.5093 29.5795 48.0631 36.6719 52.0005C43.7564 55.9379 48.8279 57.3704 50.7629 57.3469C50.8019 57.3078 50.8565 57.2686 50.8799 57.2217L61.8188 37.4016C61.062 37.2529 60.2038 37.0259 59.2129 36.7049H59.2206Z" fill="#6CF479"/>
<path d="M38.2634 63.2398C23.2361 63.2398 11.0488 67.0128 11.0488 71.6626C11.0488 76.3123 23.2361 80.0853 38.2634 80.0853C53.2907 80.0853 65.478 76.3123 65.478 71.6626C65.478 67.0128 53.2907 63.2398 38.2634 63.2398Z" fill="#6CF479"/>
<path d="M11.0488 71.6564C11.0488 72.0087 11.1268 72.3609 11.2673 72.6975C15.6054 73.4647 21.5976 73.723 28.0189 73.2768C40.0267 72.447 48.9682 69.4803 48.0007 66.6466C47.4545 65.0497 43.8655 63.8364 38.6925 63.2337C38.5521 63.2337 38.4116 63.2337 38.2712 63.2337C23.2439 63.2337 11.0566 67.0067 11.0566 71.6564H11.0488Z" fill="black"/>
<path d="M50.4196 62.0358C50.0373 62.2315 49.5535 62.3333 48.9606 62.3333C45.3247 62.3333 38.2245 58.983 34.1907 56.7442C29.4313 54.0984 21.1218 48.6502 21.0905 45.6209C20.5444 45.5817 20.1465 45.9575 20.1465 45.9575C18.9995 47.1003 17.127 49.386 17.0099 52.1962C16.8539 54.0827 22.6354 58.8421 30.4846 63.2022C38.3338 67.5623 45.4261 69.9576 46.9319 68.8304C49.2492 67.2413 50.1855 64.4311 50.5444 62.8577C50.5444 62.8577 50.6927 62.3098 50.4118 62.0358H50.4196Z" fill="#11B67A"/>
<path d="M68.5757 79.1849C68.326 78.0811 67.6159 76.6799 66.3364 76.3434L65.915 73.9637C65.1504 75.13 63.8084 76.1711 62.0451 77.0635L63.192 82.3003C62.6459 82.6056 62.0451 82.8952 61.3897 83.1771L60.235 77.8698C59.4625 78.1751 58.6433 78.4647 57.7694 78.7308L58.9632 84.0851C57.5978 84.5313 56.0763 84.9383 54.4378 85.2906L53.2284 79.8659C48.6562 80.7739 43.4053 81.2436 38.2791 81.2436C26.3182 81.2436 13.7095 78.6995 10.6198 73.948L10.1985 76.3355C8.92673 76.6643 8.21668 78.0733 7.967 79.177C7.94359 79.2866 7.92803 79.3884 7.91243 79.498H7.889L7.56912 81.2905C7.53791 81.4706 7.5145 81.6506 7.5145 81.8307C7.5145 87.091 21.2856 91.3493 38.2791 91.3493C55.2727 91.3493 69.0438 87.091 69.0438 81.8307C69.0438 81.5958 68.6225 79.2866 68.5991 79.177L68.5757 79.1849Z" fill="black"/>
<path d="M7.14 47.578C10.8227 54.9127 4.25317 57.2454 4.25317 57.2454C11.6264 57.9186 18.4144 59.9303 18.4144 59.9303C11.642 55.0458 7.14 47.578 7.14 47.578ZM29.0178 73.1672C29.0178 73.1672 12.8826 73.6447 19.4521 63.312C19.4521 63.312 11.2128 64.9949 -0.467285 63.8521C-0.467285 63.8521 8.17774 65.5977 9.89425 70.4823C11.8917 76.1574 7.21806 81.1673 7.21806 81.1673C7.21806 81.1673 15.0906 76.6976 19.733 81.316C19.733 81.316 22.6901 86.1066 20.919 91.5C20.919 91.5 25.9359 77.2847 29.0178 73.1672Z" fill="#006A4D"/>
<path d="M57.6134 14.0812C51.4339 10.6448 45.7382 8.5 43.1946 8.5C42.508 8.5 42.0555 8.65656 41.876 8.9775C41.0256 10.5196 46.6901 15.3024 54.5392 19.6625C60.7187 23.0989 66.4144 25.2437 68.958 25.2437C69.6446 25.2437 70.0972 25.0872 70.2766 24.7662C71.1271 23.2242 65.4625 18.4413 57.6134 14.0812Z" fill="#6CF479"/>
<path d="M50.0609 27.7628C48.8984 27.121 40.6357 22.4477 37.3353 18.5416C36.9062 18.7452 36.5317 19.0661 36.282 19.5201C35.8685 20.2716 35.9153 21.1483 36.321 21.8372C36.797 22.3695 37.4601 23.027 38.3964 23.8176C40.9166 25.9389 44.5057 28.3343 48.5161 30.5652C52.5187 32.7883 56.4511 34.573 59.5798 35.5907C61.0232 36.0603 62.0765 36.2873 62.8256 36.3813C63.5122 36.2795 64.152 35.8725 64.5109 35.2149C64.7684 34.7453 64.8386 34.2208 64.7606 33.7276C61.4992 33.2736 55.9439 31.0349 50.0531 27.7707L50.0609 27.7628Z" fill="#11B67A"/>
<path d="M68.9504 26.4191C66.1103 26.4191 60.2274 24.1725 53.9621 20.6892C50.1077 18.5443 46.6357 16.2273 44.1858 14.1607C41.6422 12.0159 40.503 10.4347 40.6123 9.16659C39.5512 10.1529 37.2651 12.6108 37.1402 15.7263C36.9842 17.6128 42.7657 22.3721 50.6149 26.7323C57.1533 30.3644 63.1688 32.6344 65.8685 32.6344C66.4068 32.6344 66.8126 32.5405 67.0622 32.3526C69.6526 30.5835 70.5108 27.2959 70.7761 25.8868C70.3392 26.2234 69.7306 26.4035 68.9426 26.4035L68.9504 26.4191Z" fill="#11B67A"/>
<path d="M34.3391 42.3619L42.2195 28.0917C40.4717 26.9019 39.1375 25.9078 38.1622 25.125L26.9815 45.3678C28.9243 47.1134 31.9906 49.3521 36.2507 51.7553C33.4418 49.5556 32.5602 45.5869 34.3391 42.3619Z" fill="white"/>
<path d="M22.3001 45.6126C22.3157 47.3504 27.91 51.8749 34.7761 55.687C39.4965 58.3094 45.9412 61.1274 48.9607 61.1274C49.4445 61.1274 49.7175 61.0413 49.8658 60.963C49.8658 60.963 50.4431 60.6812 50.7474 60.1411C51.0517 59.601 51.0986 59.0217 50.9659 58.4816C50.8411 58.4894 50.7163 58.5051 50.5836 58.5051C47.0179 58.5051 40.066 55.2252 36.1102 53.0256C32.0686 50.779 25.4132 46.4737 23.6889 43.4287C23.2052 43.6243 22.7916 43.9688 22.5107 44.4541C22.2299 44.9394 22.2923 45.6126 22.2923 45.6126H22.3001Z" fill="#11B67A"/>
</g>
</g>
</g>
</g>
<defs>
<clipPath id="clip0_4483_4">
<rect width="100" height="100" fill="white"/>
</clipPath>
</defs>
</svg>
