<svg width="100" height="100" viewBox="0 0 100 100" fill="none" xmlns="http://www.w3.org/2000/svg">
<rect width="100" height="100" fill="#1E1E1E"/>
<g id="Default">
<path d="M-105 -11571C-105 -11572.1 -104.105 -11573 -103 -11573H1103C1104.1 -11573 1105 -11572.1 1105 -11571V21635C1105 21636.1 1104.1 21637 1103 21637H-103C-104.105 21637 -105 21636.1 -105 21635V-11571Z" fill="white"/>
<path d="M-103 -11573V-11572H1103V-11573V-11574H-103V-11573ZM1105 -11571H1104V21635H1105H1106V-11571H1105ZM1103 21637V21636H-103V21637V21638H1103V21637ZM-105 21635H-104V-11571H-105H-106V21635H-105ZM-103 21637V21636C-103.552 21636 -104 21635.6 -104 21635H-105H-106C-106 21636.7 -104.657 21638 -103 21638V21637ZM1105 21635H1104C1104 21635.6 1103.55 21636 1103 21636V21637V21638C1104.66 21638 1106 21636.7 1106 21635H1105ZM1103 -11573V-11572C1103.55 -11572 1104 -11571.6 1104 -11571H1105H1106C1106 -11572.7 1104.66 -11574 1103 -11574V-11573ZM-103 -11573V-11574C-104.656 -11574 -106 -11572.7 -106 -11571H-105H-104C-104 -11571.6 -103.553 -11572 -103 -11572V-11573Z" fill="white" fill-opacity="0.1"/>
<g id="Lab">
<rect x="-24.5" y="-24.5" width="1049" height="149" rx="4.5" stroke="#9747FF" stroke-dasharray="10 5"/>
<g id="Brand=Lloyds - V2" clip-path="url(#clip0_4483_4)">
<rect width="100" height="100" fill="#C7FFC6"/>
<g id="Path">
<path d="M61.2306 13.6667C61.2418 11.8943 56.4951 10.4279 50.6284 10.3913C44.7618 10.3547 39.9968 11.7619 39.9856 13.5342C39.9744 15.3066 44.7211 16.773 50.5878 16.8096C56.4544 16.8462 61.2194 15.439 61.2306 13.6667Z" fill="#6CF479"/>
<path d="M49.7294 97.4185C68.6985 97.5373 75.8169 87.2758 75.8169 87.2758C77.3045 84.4529 78.7221 82.1055 77.1447 77.6185L61.3904 36.6122L61.5102 17.773L50.2385 18.7338H50.4582L39.1965 17.6343L39.0767 36.4735L22.7932 77.2818C22.0445 81.3131 22.7134 83.8586 24.161 86.7014C24.161 86.7014 30.9799 97.2996 49.949 97.4185" fill="#6CF479"/>
<path d="M49.7094 100.499C69.0878 100.618 76.1863 89.8809 76.1863 89.8809C77.5515 87.7358 78.1261 84.7173 77.9771 81.86C77.9584 81.7094 77.8062 80.7261 77.9584 80.7189L70.9697 84.1856H49.0055C49.0055 84.1856 40.2495 83.8412 34.0299 83.1951C29.1309 82.6862 22.7633 77.5691 22.7633 77.5691C21.5553 82.581 21.7449 87.3156 23.5919 89.5541C23.5919 89.5541 30.5506 100.38 49.929 100.499" fill="black"/>
<path d="M49.8991 97.6663C68.8682 97.7852 75.8169 87.2758 75.8169 87.2758C75.8169 87.2758 78.1032 84.5324 77.7937 80.4318C77.7937 80.4318 78.173 72.488 49.4299 72.2206C22.3939 71.973 22.7633 77.5691 22.7633 77.5691C22.0145 81.6004 22.8731 84.1065 24.3307 86.9492C24.3307 86.9492 31.1496 97.5475 50.1187 97.6663" fill="#C7FFC6"/>
<path d="M69.5271 91.2674C66.562 91.8221 63.1276 94.3776 59.4436 94.6846L59.4136 99.5678C65.1343 98.6169 68.369 97.1113 69.8566 95.5761L69.8766 91.8518C68.978 92.0796 70.6253 91.0693 69.5271 91.2674Z" fill="#C7FFC6"/>
<path d="M53.4938 50.0135C56.2479 50.0135 58.4813 47.7978 58.4813 45.0654C58.4813 42.333 56.2479 40.1086 53.4938 40.1086C50.7397 40.1086 48.5063 42.3243 48.5063 45.0567C48.5063 47.7891 50.7397 50.0048 53.4938 50.0048V50.0135Z" fill="#024731"/>
<path d="M53.7321 43.1473C53.7321 43.1473 57.0865 43.4976 56.3186 47.9114C57.0689 47.1846 57.5279 46.1774 57.5279 45.0564C57.5279 42.8495 55.7271 41.0542 53.4938 41.0542C53.2113 41.0542 52.9377 41.0805 52.6817 41.133C53.1937 41.2469 53.997 41.6585 53.7321 43.1385V43.1473Z" fill="#54B27F"/>
<path d="M46.5096 33.1655C48.1637 33.1655 49.5047 31.8351 49.5047 30.194C49.5047 28.5529 48.1637 27.2226 46.5096 27.2226C44.8554 27.2226 43.5145 28.5529 43.5145 30.194C43.5145 31.8351 44.8554 33.1655 46.5096 33.1655Z" fill="#024731"/>
<path d="M28.2743 69.2688C28.2743 69.2688 29.4723 65.7922 34.1547 64.6927C39.9653 63.3259 42.6309 68.1 47.7426 65.9606C48.2318 65.7526 54.9409 60.3544 55.2803 60.2355C62.858 57.581 48.0521 86.5232 25.5587 76.3211L28.2743 69.2787V69.2688Z" fill="#11B67A"/>
<path d="M50.0089 94.5858C67.2308 94.6948 73.5406 85.1563 73.5406 85.1563C75.737 82.2344 75.8568 79.2233 74.8884 76.6183L66.8614 56.333C50.1986 47.478 49.5397 68.2387 39.9852 72.3096C33.5457 75.0533 27.256 73.3298 28.2743 69.2787L25.5587 76.3211C24.8798 79.9859 24.8698 82.4226 26.8067 84.8691C26.8067 84.8691 32.9966 94.4868 50.2086 94.5957" fill="#024731"/>
<path d="M64.665 74.3497C69.9065 83.3236 57.6265 89.2863 57.6265 89.2863C68.2592 87.6223 71.0646 81.6694 71.0646 81.6694C73.6704 78.4702 66.1526 65.0787 66.1526 65.0787C62.5684 66.9507 61.62 69.8727 64.675 74.3497H64.665Z" fill="#F1F1F1"/>
<path d="M38.5077 17.6343L62.1492 17.7829V19.8629C62.1292 21.4279 56.4584 22.8542 50.6679 22.8641C44.5977 22.8641 38.3779 21.3289 38.3978 19.338L38.5077 17.6442V17.6343Z" fill="#C7FFC6"/>
<path d="M36.3012 13.974V15.6135C36.2813 18.6048 42.6409 21.0712 50.5081 21.1207C58.3753 21.1702 64.7649 18.7831 64.7848 15.7918H64.8048V14.0981C64.8012 14.0956 64.7976 14.0931 64.7939 14.0906C64.8028 11.1016 58.4436 8.64 50.5817 8.591C42.7136 8.54195 36.3198 10.9279 36.3009 13.9201C36.3008 13.9381 36.3009 13.9561 36.3012 13.974Z" fill="black"/>
<path d="M61.2306 13.6667C61.2418 11.8943 56.4951 10.4279 50.6284 10.3913C44.7618 10.3547 39.9968 11.7619 39.9856 13.5342C39.9744 15.3066 44.7211 16.773 50.5878 16.8096C56.4544 16.8462 61.2194 15.439 61.2306 13.6667Z" fill="#6CF479"/>
<path d="M64.8248 13.8408C64.3256 15.8614 58.7247 18.2286 54.0124 18.6347C58.7846 18.7437 64.2258 16.8221 64.8148 15.3958L64.8348 13.8408H64.8248Z" fill="#6CF479"/>
<path d="M61.2306 13.6667C61.2418 11.8943 56.4951 10.4279 50.6284 10.3913C44.7618 10.3547 39.9968 11.7619 39.9856 13.5342C39.9744 15.3066 44.7211 16.773 50.5878 16.8096C56.4544 16.8462 61.2194 15.439 61.2306 13.6667Z" fill="#6CF479"/>
<path d="M47.1683 13.4568C47.1683 15.0332 49.2958 15.3465 49.2958 15.3465C46.2584 15.205 42.5161 14.4572 42.5161 13.3456C42.5161 12.2341 47.0017 11.3549 52.4998 11.3853C52.4998 11.3853 47.1683 11.6985 47.1683 13.4568Z" fill="#F1F1F1"/>
<path d="M55.3221 5.50144C56.7142 5.50144 57.8427 4.38183 57.8427 3.00072C57.8427 1.61961 56.7142 0.5 55.3221 0.5C53.93 0.5 52.8015 1.61961 52.8015 3.00072C52.8015 4.38183 53.93 5.50144 55.3221 5.50144Z" fill="#024731"/>
</g>
</g>
</g>
</g>
<defs>
<clipPath id="clip0_4483_4">
<rect width="100" height="100" fill="white"/>
</clipPath>
</defs>
</svg>
