<svg width="100" height="100" viewBox="0 0 100 100" fill="none" xmlns="http://www.w3.org/2000/svg">
<rect width="100" height="100" fill="#1E1E1E"/>
<g id="Default">
<path d="M-105 -13903C-105 -13904.1 -104.105 -13905 -103 -13905H1103C1104.1 -13905 1105 -13904.1 1105 -13903V19303C1105 19304.1 1104.1 19305 1103 19305H-103C-104.105 19305 -105 19304.1 -105 19303V-13903Z" fill="white"/>
<path d="M-103 -13905V-13904H1103V-13905V-13906H-103V-13905ZM1105 -13903H1104V19303H1105H1106V-13903H1105ZM1103 19305V19304H-103V19305V19306H1103V19305ZM-105 19303H-104V-13903H-105H-106V19303H-105ZM-103 19305V19304C-103.552 19304 -104 19303.6 -104 19303H-105H-106C-106 19304.7 -104.657 19306 -103 19306V19305ZM1105 19303H1104C1104 19303.6 1103.55 19304 1103 19304V19305V19306C1104.66 19306 1106 19304.7 1106 19303H1105ZM1103 -13905V-13904C1103.55 -13904 1104 -13903.6 1104 -13903H1105H1106C1106 -13904.7 1104.66 -13906 1103 -13906V-13905ZM-103 -13905V-13906C-104.656 -13906 -106 -13904.7 -106 -13903H-105H-104C-104 -13903.6 -103.553 -13904 -103 -13904V-13905Z" fill="white" fill-opacity="0.1"/>
<g id="Map Location">
<rect x="-24.5" y="-24.5" width="1049" height="149" rx="4.5" stroke="#9747FF" stroke-dasharray="10 5"/>
<g id="Brand=Lloyds - V2" clip-path="url(#clip0_4483_4)">
<rect width="100" height="100" fill="#C7FFC6"/>
<g id="Path">
<path d="M14.4821 79.8785L2.42004 93.4097H99.9375L83.0969 81.9429L14.4821 79.8785Z" fill="black"/>
<path d="M19.9396 93.4088L26.9449 78.0141L42.27 70.4676L39.9349 83.5658L19.9396 93.4088Z" fill="white"/>
<path d="M57.6036 78.0141L59.9387 93.4088L79.9339 83.5658L72.9286 70.4676L57.6036 78.0141Z" fill="white"/>
<path d="M-0.0625 83.5658L19.9396 93.4088L26.9449 78.0141L11.613 70.4676L-0.0625 83.5658Z" fill="#11B67A"/>
<path d="M39.9361 83.5658L42.2712 70.4676L57.6036 78.0141L59.9387 93.4088L39.9361 83.5658Z" fill="#11B67A"/>
<path d="M72.9286 70.4676L79.9339 83.5658L99.9375 93.4097L88.2615 78.0141L72.9286 70.4676Z" fill="#11B67A"/>
<path d="M33.2318 80.1482L41.335 75.7409L58.0828 81.192L72.9286 70.4676L57.6036 78.0141L42.2712 70.4676L29.5203 76.3517L33.2318 80.1482Z" fill="black"/>
<path d="M33.241 80.1489H26.4513L25.8855 73.8165L31.883 72.2685L33.241 80.1489Z" fill="black"/>
<path d="M32.9599 7.53722H24.5167L28.0347 9.08514L32.9599 7.53722Z" fill="black"/>
<path d="M26.4866 7.53516C39.943 7.53526 50.8405 18.6766 50.8315 32.4157C50.8315 32.8095 50.8217 33.2033 50.8036 33.6047C50.7993 33.6408 50.8007 33.6755 50.7995 33.7098H41.9987C42.0324 33.283 42.0503 32.8514 42.0503 32.4157C42.0502 23.63 35.0777 16.5102 26.4866 16.51C17.8955 16.51 10.923 23.6299 10.923 32.4157C10.923 41.2016 17.8955 48.3214 26.4866 48.3214C30.6928 48.3214 34.5101 46.6138 37.3119 43.8407H48.7863C42.9291 61.7772 26.5064 80.1251 26.4866 80.1472C26.4866 80.1472 3.23595 54.183 2.17787 33.8241C2.16888 33.7486 2.1686 33.6803 2.1686 33.6047C2.15052 33.2033 2.14181 32.8095 2.14181 32.4157C2.14184 18.6765 13.0392 7.53516 26.4866 7.53516ZM50.2504 38.2132C50.0918 39.0522 49.9052 39.8969 49.6889 40.7446H39.7465C40.2286 39.9449 40.6435 39.0985 40.9829 38.2132H50.2504Z" fill="black"/>
<path d="M20.0118 17.9514C17.7988 18.9879 15.8643 20.5386 14.3554 22.4548H4.17407C4.85696 20.8597 5.69732 19.3511 6.67768 17.9514H20.0118Z" fill="#11B67A"/>
<path d="M22.5792 15.4179H8.71252C9.75447 14.2805 10.8998 13.2436 12.1331 12.3219H22.5792V15.4179Z" fill="#11B67A"/>
<path d="M33.2406 7.53722C19.7931 7.53722 8.89591 18.6786 8.89591 32.4178C8.89591 32.8116 8.90495 33.2055 8.92304 33.6069C8.92304 33.6826 8.92304 33.7508 8.93208 33.8265C9.99015 54.1854 33.241 80.1489 33.241 80.1489C33.241 80.1489 56.491 54.1854 57.5491 33.8265C57.5491 33.7508 57.5491 33.6826 57.5581 33.6069C57.5762 33.2055 57.5852 32.8116 57.5852 32.4178C57.5943 18.6786 46.6971 7.53722 33.2406 7.53722ZM33.2406 48.3232C24.6494 48.3232 17.677 41.2036 17.677 32.4178C17.677 23.6319 24.6494 16.5124 33.2406 16.5124C41.8317 16.5124 48.8042 23.6319 48.8042 32.4178C48.8042 41.2036 41.8317 48.3232 33.2406 48.3232Z" fill="#6CF479"/>
<path d="M22.969 61.5737C19.3608 55.9449 16.918 51.5825 15.6515 48.6274C18.3628 53.9748 24.3366 61.2208 30.0051 62.6995C33.2416 63.5438 39.4333 64.5288 45.0622 60.3072C42.2477 64.5288 40.9813 66.6397 38.1668 70.1577C36.3656 72.4092 34.6957 74.6138 33.2416 76.0679C30.5679 72.6906 27.0118 67.8805 22.969 61.5737Z" fill="white"/>
<path d="M36.3368 8.94254C36.3368 8.94254 52.3789 11.757 55.334 26.9548C55.334 26.9548 49.1504 15.9971 42.6301 17.1748C42.6301 17.1748 43.3728 11.4955 36.3368 8.94254Z" fill="white"/>
</g>
</g>
</g>
</g>
<defs>
<clipPath id="clip0_4483_4">
<rect width="100" height="100" fill="white"/>
</clipPath>
</defs>
</svg>
