<svg width="100" height="100" viewBox="0 0 100 100" fill="none" xmlns="http://www.w3.org/2000/svg">
<rect width="100" height="100" fill="#1E1E1E"/>
<g id="Default">
<path d="M-105 -14327C-105 -14328.1 -104.105 -14329 -103 -14329H1103C1104.1 -14329 1105 -14328.1 1105 -14327V18879C1105 18880.1 1104.1 18881 1103 18881H-103C-104.105 18881 -105 18880.1 -105 18879V-14327Z" fill="white"/>
<path d="M-103 -14329V-14328H1103V-14329V-14330H-103V-14329ZM1105 -14327H1104V18879H1105H1106V-14327H1105ZM1103 18881V18880H-103V18881V18882H1103V18881ZM-105 18879H-104V-14327H-105H-106V18879H-105ZM-103 18881V18880C-103.552 18880 -104 18879.6 -104 18879H-105H-106C-106 18880.7 -104.657 18882 -103 18882V18881ZM1105 18879H1104C1104 18879.6 1103.55 18880 1103 18880V18881V18882C1104.66 18882 1106 18880.7 1106 18879H1105ZM1103 -14329V-14328C1103.55 -14328 1104 -14327.6 1104 -14327H1105H1106C1106 -14328.7 1104.66 -14330 1103 -14330V-14329ZM-103 -14329V-14330C-104.656 -14330 -106 -14328.7 -106 -14327H-105H-104C-104 -14327.6 -103.553 -14328 -103 -14328V-14329Z" fill="white" fill-opacity="0.1"/>
<g id="Markets Alt 01">
<rect x="-24.5" y="-24.5" width="1049" height="149" rx="4.5" stroke="#9747FF" stroke-dasharray="10 5"/>
<g id="Brand=Lloyds - V2">
<rect width="100" height="100" fill="#C7FFC6"/>
<g id="Path">
<path d="M55.3611 6.21156V47.65L91.2863 68.2442C94.7777 62.1681 96.7996 55.154 96.7996 47.65C96.7996 24.763 78.2482 6.21156 55.3611 6.21156Z" fill="#6CF479"/>
<path d="M91.5257 24.5025C85.5538 9.34867 72.0884 0.354353 55.3817 0V4.70039C70.5459 4.70039 83.8863 12.6108 91.5257 24.5129V24.5025Z" fill="black"/>
<path d="M47.4506 57.6965L16.7157 88.4314C24.4073 95.6019 34.7252 100 46.0749 100C62.0625 100 75.9865 91.2662 83.4279 78.3324L47.4402 57.7069L47.4506 57.6965Z" fill="#11B67A"/>
<path d="M46.0852 55.3932V13.8297C22.8021 13.8297 3.84423 32.3082 3.04173 55.3932H46.0852Z" fill="#11B67A"/>
<path d="M65.9186 11.141C65.9186 11.141 87.7739 16.5188 93.9021 43.9082C93.9021 43.9082 87.9302 30.0467 72.9953 29.067C72.9953 29.067 74.569 17.9779 65.9186 11.1305V11.141Z" fill="white"/>
<path d="M35.4755 13.6013C38.8836 12.7676 42.4271 12.3194 46.0853 12.3194H46.2312V6.91031C42.844 6.87904 39.3109 7.31677 35.7882 8.20266L35.4651 13.6013H35.4755Z" fill="black"/>
<path d="M47.6071 51.6213V56.0403L83.5844 76.6657V72.2572L47.6071 51.6213Z" fill="black"/>
<path d="M4.68851 40.3545C8.4926 30.8912 15.4442 23.0329 24.2405 18.0615L24.6574 12.6837C15.1419 18.0928 7.18983 27.2955 4.68851 40.3545Z" fill="black"/>
<path d="M27.4086 16.4464C28.357 16.0086 29.3158 15.5813 30.306 15.2165L30.6186 9.84914C29.6806 10.2139 28.753 10.6204 27.8255 11.0477L27.4086 16.4464Z" fill="black"/>
<path d="M46.0852 56.9157H3C3 68.8074 7.82546 79.5839 15.6212 87.3797L46.0852 56.9157Z" fill="black"/>
</g>
</g>
</g>
</g>
</svg>
