<svg width="100" height="100" viewBox="0 0 100 100" fill="none" xmlns="http://www.w3.org/2000/svg">
<rect width="100" height="100" fill="#1E1E1E"/>
<g id="Default">
<path d="M-105 -15175C-105 -15176.1 -104.105 -15177 -103 -15177H1103C1104.1 -15177 1105 -15176.1 1105 -15175V18031C1105 18032.1 1104.1 18033 1103 18033H-103C-104.105 18033 -105 18032.1 -105 18031V-15175Z" fill="white"/>
<path d="M-103 -15177V-15176H1103V-15177V-15178H-103V-15177ZM1105 -15175H1104V18031H1105H1106V-15175H1105ZM1103 18033V18032H-103V18033V18034H1103V18033ZM-105 18031H-104V-15175H-105H-106V18031H-105ZM-103 18033V18032C-103.552 18032 -104 18031.6 -104 18031H-105H-106C-106 18032.7 -104.657 18034 -103 18034V18033ZM1105 18031H1104C1104 18031.6 1103.55 18032 1103 18032V18033V18034C1104.66 18034 1106 18032.7 1106 18031H1105ZM1103 -15177V-15176C1103.55 -15176 1104 -15175.6 1104 -15175H1105H1106C1106 -15176.7 1104.66 -15178 1103 -15178V-15177ZM-103 -15177V-15178C-104.656 -15178 -106 -15176.7 -106 -15175H-105H-104C-104 -15175.6 -103.553 -15176 -103 -15176V-15177Z" fill="white" fill-opacity="0.1"/>
<g id="_Microphone">
<rect x="-24.5" y="-24.5" width="1049" height="149" rx="4.5" stroke="#9747FF" stroke-dasharray="10 5"/>
<g id="Brand=Lloyds - V2">
<rect width="100" height="100" fill="#C7FFC6"/>
<g id="Path">
<path d="M8.05517 50.0582C8.05517 50.0582 9.70921 55.5372 16.4184 57.0672C16.4184 57.0672 11.3322 57.9459 11.2289 64.0555C11.2289 64.0555 9.44043 58.7626 3 57.0672C3 57.0672 8.37564 56.4263 8.04483 50.0685L8.05517 50.0582Z" fill="#11B67A"/>
<path d="M83.1284 2.73232C83.1284 2.73232 86.0437 12.3671 97.8391 15.0446C97.8391 15.0446 88.8969 16.5849 88.7211 27.3155C88.7211 27.3155 85.5785 18.0115 74.2586 15.0343C74.2586 15.0343 83.7073 13.9178 83.1284 2.73232Z" fill="#11B67A"/>
<path d="M62.9084 69.8236L46.3059 73.6486C37.891 75.5817 29.4864 70.3301 27.5532 61.9152L20.813 32.6386C17.691 19.0652 26.1576 5.53301 39.7311 2.41101C51.268 -0.245799 62.6499 0.891354 65.4411 18.4966L73.4012 53.0764C75.1379 60.6023 70.4343 68.1075 62.9084 69.8339V69.8236Z" fill="black"/>
<path fill-rule="evenodd" clip-rule="evenodd" d="M50.6665 84.9379V100H42.4273V85.6719C43.1303 85.7752 43.8746 85.7856 44.6396 85.6925L50.6665 84.9379Z" fill="black"/>
<path fill-rule="evenodd" clip-rule="evenodd" d="M39.9882 81.1231L49.7884 79.8516C52.7967 79.4588 55.3915 78.0425 55.5362 73.835C57.8829 73.3801 59.5783 72.9666 61.8836 72.3154C62.2144 72.2223 62.5452 72.1293 62.876 72.0259V74.8791C62.876 78.0528 60.2812 80.9681 57.1179 81.3609L44.6505 82.9116C42.7484 83.1493 41.0426 82.4257 39.9985 81.1128L39.9882 81.1231Z" fill="black"/>
<path fill-rule="evenodd" clip-rule="evenodd" d="M75.55 56.1264L74.723 52.3841C74.2888 50.4096 73.7615 50.9161 71.2908 50.8127C70.0813 50.7611 68.6857 50.7507 67.2487 50.7714C66.3804 50.7714 65.6671 50.0891 65.6567 49.2104C65.6567 48.342 66.339 47.6287 67.2177 47.6184C68.7271 47.5977 70.1847 47.6184 71.4149 47.6597C73.0379 47.7321 73.7719 48.0836 73.348 46.1814C72.9449 44.362 71.7457 44.2172 69.8745 44.0725C68.6443 43.9795 67.2591 43.9278 65.8531 43.9071C64.9848 43.9071 64.2818 43.1938 64.2921 42.3151C64.2921 41.4467 65.0055 40.7438 65.8738 40.7541C67.4348 40.7748 68.9131 40.8161 70.1123 40.9195C71.663 41.0436 72.2832 41.4054 71.8801 39.5859C71.4872 37.7872 70.2777 37.5494 68.4479 37.3323C67.2694 37.1979 65.8842 37.1152 64.4472 37.0635C63.5788 37.0325 62.8965 36.3089 62.9172 35.4405C62.9482 34.5721 63.6719 33.8898 64.5403 33.9105C66.1013 33.9622 67.5796 34.0449 68.7994 34.1896C70.2777 34.3654 70.8049 34.7272 70.4224 32.9904C70.0296 31.2123 68.8201 30.8815 67.0213 30.6127C65.8738 30.4473 64.5092 30.3233 63.062 30.2509C62.1936 30.2096 61.5216 29.4653 61.563 28.5969C61.6043 27.7285 62.3486 27.0566 63.217 27.0979C64.778 27.1806 66.2563 27.3047 67.4658 27.4804C68.8821 27.6872 69.3163 28.0386 68.9545 26.3949C68.5616 24.6375 67.3315 24.2137 65.574 23.8932C64.4989 23.6968 63.1447 23.552 61.6664 23.4487C60.798 23.3866 60.1467 22.632 60.1984 21.7636C60.2604 20.8952 61.0151 20.244 61.8834 20.2957C63.4134 20.399 64.8814 20.5644 66.1219 20.7919C67.4658 21.0296 67.838 21.3708 67.4865 19.7994C67.104 18.0627 65.8531 17.5561 64.1267 17.184C63.0413 16.9566 61.7077 16.7808 60.2811 16.6568C59.4127 16.5844 58.7718 15.8194 58.8441 14.951C58.9165 14.0827 59.6815 13.4417 60.5499 13.5141C62.1212 13.6588 63.5788 13.8449 64.7573 14.093C65.1192 14.1654 65.4707 14.2584 65.7911 14.3514C66.0186 14.4135 66.2356 14.217 66.184 13.9793L65.7498 12.0358C65.0365 9.11019 63.7339 6.7325 62.0075 4.87171C62.7932 6.35001 63.3307 8.06608 63.6099 9.96823C63.858 11.5809 61.3459 11.9634 61.0978 10.3507C60.3121 4.63394 57.2418 0.0956588 51.8455 0.0336322C54.9882 1.55328 56.7663 4.85103 57.4485 9.48235C57.7173 11.2811 54.8538 11.7567 54.585 9.95789C53.7063 3.98266 50.5016 -0.431567 43.8234 0.0336322C47.0384 1.46024 48.0205 5.27488 48.5374 8.83107C48.8372 10.8159 45.6221 11.3845 45.3223 9.39965C44.4643 3.57949 42.2107 1.27416 37.2692 1.33619C30.3533 3.79658 21.7316 8.73803 19.0127 14.5065C16.6971 19.4169 16.9142 21.7223 17.9169 26.4363C18.2477 26.0848 18.6199 25.7333 19.0127 25.4025C20.8425 23.8312 23.2719 22.4149 25.7943 21.1434C26.5696 20.7505 27.5207 21.0606 27.9135 21.8463C28.3064 22.6217 27.9963 23.5727 27.2106 23.9656C24.8846 25.1337 22.6723 26.4259 21.0596 27.8009C20.4704 28.3074 18.6509 29.8271 18.8473 30.6954L19.1471 32.0187C19.1988 32.2461 19.3435 32.4115 19.5606 32.4839C19.7777 32.5562 19.9948 32.5149 20.1706 32.3702C20.2739 32.2875 20.3773 32.2048 20.4807 32.1221C22.3208 30.6438 24.7605 29.2688 27.2829 28.0386C28.0686 27.6561 29.0094 27.9766 29.3919 28.7623C29.7743 29.548 29.4539 30.4887 28.6682 30.8712C26.3422 32.0083 24.0989 33.2696 22.4552 34.5824C21.4628 35.3785 20.7185 36.1641 20.3566 36.9084C20.2946 37.0428 20.2739 37.1772 20.305 37.322L20.6151 38.7176C20.6668 38.9346 20.8115 39.1 21.0183 39.1724C21.225 39.2448 21.4421 39.2138 21.6179 39.0794C21.7212 38.9967 21.8246 38.914 21.9383 38.8416C23.8095 37.446 26.2492 36.1228 28.7612 34.9236C28.9266 34.8409 29.1024 34.7995 29.2781 34.7789C28.5855 35.4922 28.1513 36.4743 28.1513 37.5494V38.7486C26.518 39.5859 25.019 40.475 23.8198 41.364C22.9204 42.036 22.2071 42.6873 21.8143 43.2765C21.7109 43.4212 21.6799 43.5866 21.7212 43.7624L22.083 45.3854C22.1347 45.6025 22.2691 45.7576 22.4759 45.8403C22.6826 45.923 22.8894 45.892 23.0755 45.7576C23.1789 45.6749 23.2926 45.6025 23.4063 45.5198C24.7399 44.5894 26.3939 43.6693 28.1617 42.7906V46.3365C27.0762 46.9154 26.0734 47.515 25.2051 48.1146C24.3884 48.6832 23.7268 49.2104 23.3029 49.6756C23.1582 49.8307 23.1065 50.0271 23.1582 50.2338L23.551 52.0429C23.5924 52.2497 23.7371 52.4151 23.9335 52.4978C24.1299 52.5805 24.3367 52.5598 24.5228 52.4358C25.5669 51.7431 26.8074 51.0402 28.1617 50.3475V53.9141C27.407 54.3379 26.7144 54.7514 26.1148 55.1649C25.5876 55.5268 25.1327 55.8576 24.8019 56.147C24.6261 56.3021 24.5434 56.5295 24.5951 56.757L25.019 58.7005C25.0603 58.9072 25.1947 59.0623 25.3911 59.145C25.5876 59.2277 25.784 59.2173 25.97 59.1036C26.6317 58.7005 27.3656 58.2869 28.1617 57.8734V61.471C27.9342 61.6054 27.7068 61.7398 27.4897 61.8741C27.0142 62.1636 26.611 62.4324 26.2802 62.6702C26.0734 62.8149 25.97 63.0733 26.0321 63.3214L26.1148 63.7143C26.5903 65.8645 27.2726 67.653 28.1617 69.1209V76.8536C28.1617 80.7406 30.7978 83.7075 34.3643 84.2864L41.4767 85.5166C41.5801 85.5373 41.6421 85.5373 41.7351 85.5476C38.4684 84.7516 36.1321 81.9087 36.1321 78.2388V37.5494C36.1321 35.5955 34.7158 33.9622 32.855 33.6314C35.7392 33.3729 38.9026 34.6858 38.9026 37.5494V38.2937C39.006 38.2213 39.13 38.149 39.2644 38.1076C41.8902 37.1152 44.5263 36.2055 47.2865 35.4818C50.0674 34.7582 52.9516 34.231 56.0219 34.0449C56.911 33.9932 57.8 33.9622 58.6891 33.9312C59.5575 33.9105 60.2811 34.6031 60.3018 35.4715C60.3224 36.3399 59.6298 37.0635 58.7614 37.0842C57.9137 37.1049 57.0557 37.1462 56.208 37.1979C53.3445 37.3736 50.667 37.8595 48.0722 38.5315C45.4671 39.2138 42.924 40.0925 40.3706 41.0642C39.864 41.2606 39.3161 41.1676 38.9026 40.8781V74.631C39.4918 74.6413 40.0914 74.631 40.7117 74.6103C48.341 74.2588 60.891 72.1912 67.7656 69.0072C73.5031 66.3401 77.1006 62.7218 75.5603 56.1574L75.55 56.1264ZM33.8784 19.1171C33.527 18.3211 33.8784 17.3907 34.6744 17.0393C36.8661 16.0675 38.8716 15.2405 41.0632 14.5995C43.2755 13.9586 45.6532 13.5141 48.5374 13.3177C50.5326 13.1833 52.6208 13.1936 54.616 13.235C55.4844 13.2453 56.177 13.9689 56.1667 14.8373C56.1563 15.7057 55.4327 16.3983 54.5643 16.388C52.6415 16.3466 50.667 16.3466 48.7442 16.4707C46.0873 16.6464 43.9268 17.0496 41.9419 17.6285C39.926 18.2178 38.0446 18.9931 35.9563 19.9235C35.1603 20.275 34.2299 19.9235 33.8784 19.1275V19.1171ZM35.3671 26.1365C35.0259 25.3405 35.4084 24.4101 36.2044 24.0689C38.5718 23.0765 40.7841 22.2081 43.1411 21.5465C45.5291 20.8746 48.0619 20.4094 51.0288 20.2129C52.6415 20.1096 54.3576 20.0889 55.9702 20.0992C56.8386 20.0992 57.5416 20.8125 57.5416 21.6809C57.5416 22.5493 56.8283 23.2523 55.9599 23.2523C54.3886 23.2523 52.7966 23.2626 51.2356 23.366C48.5167 23.5417 46.1907 23.9656 43.9991 24.5858C41.7662 25.2164 39.6676 26.0331 37.4346 26.9739C36.6386 27.315 35.7082 26.9325 35.3671 26.1365ZM57.3452 30.1475C56.1357 30.1579 54.9261 30.1992 53.7166 30.2716C50.9254 30.4473 48.4237 30.9022 46.0253 31.5535C43.5856 32.2151 41.2699 33.0628 38.8923 34.0139C38.0859 34.3343 37.1658 33.9415 36.8454 33.1352C36.5249 32.3288 36.9177 31.4088 37.7241 31.0883C40.2465 30.0855 42.6759 29.1861 45.2086 28.5038C47.7827 27.8112 50.4809 27.315 53.5099 27.1289C54.7711 27.0462 56.0529 27.0152 57.3142 27.0049C58.1825 27.0049 58.8958 27.6975 58.9062 28.5659C58.9062 29.4342 58.2135 30.1475 57.3452 30.1579V30.1475ZM39.802 47.1015C39.5125 46.2848 39.9364 45.3751 40.7634 45.0856C43.5029 44.1035 46.3561 43.1628 49.3231 42.4185C52.29 41.6742 55.3603 41.1263 58.503 40.9402C59.0095 40.9092 59.5161 40.8885 60.033 40.8678C60.9014 40.8265 61.6353 41.5088 61.6767 42.3771C61.718 43.2455 61.0358 43.9795 60.1674 44.0208C59.6712 44.0415 59.1853 44.0622 58.6891 44.0932C55.7738 44.2689 52.8999 44.7755 50.0881 45.4888C47.2762 46.2021 44.5057 47.1118 41.8282 48.0732C41.0115 48.3627 40.1018 47.9388 39.8123 47.1118L39.802 47.1015ZM41.2803 54.0588C41.0012 53.2318 41.4457 52.3324 42.2727 52.0533C45.1156 51.0919 48.1859 50.1305 51.3596 49.3551C54.5436 48.5798 57.8 48.0009 60.9944 47.8251L61.3976 47.8045C62.2659 47.7528 63.0103 48.4247 63.062 49.2931C63.1136 50.1615 62.4417 50.9058 61.5733 50.9575L61.1701 50.9781C58.1825 51.1436 55.1122 51.6915 52.1039 52.4254C49.0853 53.1594 46.0873 54.1002 43.2962 55.0512C42.4691 55.3303 41.5697 54.8858 41.2906 54.0588H41.2803ZM51.7731 71.1058C48.0722 72.5324 46.873 70.0513 48.9612 69.4207C56.6215 66.4538 57.1384 64.0141 55.6911 56.4365C55.5361 55.5784 56.0943 54.7514 56.9523 54.5964C57.8104 54.4413 58.6374 54.9995 58.7925 55.8576C60.3948 64.2312 60.0743 67.8907 51.7731 71.1058ZM58.8648 68.3973C65.3363 65.513 65.388 62.205 64.0751 55.3407C63.9303 54.5653 64.4369 53.821 65.2122 53.6763C65.9875 53.5316 66.7319 54.0381 66.8766 54.8135C68.3239 62.4117 67.869 66.1747 60.6636 69.2657C57.3658 70.6819 57.0247 69.1313 58.8441 68.3973H58.8648ZM67.1247 67.777C64.2198 69.183 64.7367 68.5627 66.308 67.7253C71.5803 64.9238 71.1771 60.7577 69.9986 54.5964C69.8642 53.9037 70.3294 53.2318 71.022 53.0974C71.7147 52.963 72.3866 53.4282 72.521 54.1208C73.8236 60.9334 73.2136 64.8204 67.1247 67.777Z" fill="#11B67A"/>
<path fill-rule="evenodd" clip-rule="evenodd" d="M30.9844 76.7916C30.9844 76.7916 33.6206 83.6972 37.1871 84.2658L44.2995 85.496C44.4028 85.5166 44.4649 85.5166 44.5579 85.527C41.2912 84.731 38.9548 81.8881 38.9548 78.2182V74.9618H38.9342V37.4564C38.9342 35.2751 37.1664 33.5177 34.9955 33.5177H32.2456L30.9844 76.7916Z" fill="#035D3E"/>
<path d="M19.1167 20.751C19.1167 20.751 18.5792 9.57592 38.2312 2.73232C38.2312 2.73232 26.3635 6.81573 30.1988 13.8454C30.1988 13.8454 23.686 9.72065 19.1167 20.751Z" fill="white"/>
<path d="M50.6665 84.9379L44.9496 85.6512V100H50.6665V84.9379Z" fill="#11B67A"/>
<path fill-rule="evenodd" clip-rule="evenodd" d="M36.1331 78.2286V74.9722H36.1124V37.4668C36.1124 35.2855 34.3447 33.5281 32.1737 33.5281H32.1014C29.9201 33.5281 28.1627 35.2958 28.1627 37.4668V76.802C28.1627 76.802 28.1627 76.802 28.1627 76.8123V76.8433C28.1627 80.7303 30.7988 83.6973 34.3654 84.2762L41.4777 85.5064C41.5811 85.527 41.6431 85.527 41.7362 85.5374C38.4694 84.7414 36.1331 81.8985 36.1331 78.2286Z" fill="#6CF479"/>
<path fill-rule="evenodd" clip-rule="evenodd" d="M35.336 38.118C35.3464 37.9216 35.336 37.7769 35.336 37.6011C35.336 35.854 33.9198 34.4274 32.1623 34.4274C30.4049 34.4274 28.9886 35.8437 28.9886 37.6011C28.9886 37.7769 28.9783 37.9216 28.9886 38.118C30.3842 35.7507 34.0645 35.8334 35.3257 38.118H35.336Z" fill="white"/>
<path d="M35.3976 38.1698C33.7126 36.34 30.8904 37.043 30.4665 42.8218C29.8566 51.1851 28.9882 65.7613 28.9882 65.7613L28.9886 38.118L30.3218 35.6371L33.5575 35.3579L35.3873 38.1698H35.3976Z" fill="white"/>
</g>
</g>
</g>
</g>
</svg>
