<svg width="100" height="100" viewBox="0 0 100 100" fill="none" xmlns="http://www.w3.org/2000/svg">
<rect width="100" height="100" fill="#1E1E1E"/>
<g id="Default">
<path d="M-105 -15811C-105 -15812.1 -104.105 -15813 -103 -15813H1103C1104.1 -15813 1105 -15812.1 1105 -15811V17395C1105 17396.1 1104.1 17397 1103 17397H-103C-104.105 17397 -105 17396.1 -105 17395V-15811Z" fill="white"/>
<path d="M-103 -15813V-15812H1103V-15813V-15814H-103V-15813ZM1105 -15811H1104V17395H1105H1106V-15811H1105ZM1103 17397V17396H-103V17397V17398H1103V17397ZM-105 17395H-104V-15811H-105H-106V17395H-105ZM-103 17397V17396C-103.552 17396 -104 17395.6 -104 17395H-105H-106C-106 17396.7 -104.657 17398 -103 17398V17397ZM1105 17395H1104C1104 17395.6 1103.55 17396 1103 17396V17397V17398C1104.66 17398 1106 17396.7 1106 17395H1105ZM1103 -15813V-15812C1103.55 -15812 1104 -15811.6 1104 -15811H1105H1106C1106 -15812.7 1104.66 -15814 1103 -15814V-15813ZM-103 -15813V-15814C-104.656 -15814 -106 -15812.7 -106 -15811H-105H-104C-104 -15811.6 -103.553 -15812 -103 -15812V-15813Z" fill="white" fill-opacity="0.1"/>
<g id="Mobile Savings">
<rect x="-24.5" y="-24.5" width="1049" height="149" rx="4.5" stroke="#9747FF" stroke-dasharray="10 5"/>
<g id="Brand=Lloyds - V2">
<rect width="100" height="100" fill="#C7FFC6"/>
<g id="Path">
<path d="M93.6326 32.0516C93.535 31.3495 93.0759 30.7325 92.3426 30.3067H92.3385L63.431 13.4309C62.812 13.0736 62.0849 12.9032 61.3517 12.9032C60.1988 12.9032 59.0334 13.327 58.269 14.1288L47.9532 24.9182V24.9265C49.8768 27.2697 51.443 29.9639 52.4401 32.8306C54.64 39.1538 54.0749 44.5091 51.0255 47.3425L50.9756 47.3882L46.9561 50.7638C45.3524 52.06 43.2585 52.7974 40.7554 52.7974H40.7014C34.2888 52.7974 28.838 52.2179 24.5173 49.4343L11.5509 62.9969C10.9942 63.5806 10.7387 64.2744 10.8384 64.9537C10.9402 65.66 11.3993 66.2769 12.1325 66.7027L41.0442 83.5807C42.6374 84.503 44.9515 84.1872 46.202 82.8785L92.9159 34.0126C93.4727 33.433 93.7282 32.735 93.6285 32.0558H93.6326V32.0516Z" fill="#11B67A"/>
<path d="M27.2998 46.526L24.5245 49.4321C28.8453 52.2157 34.294 52.7931 40.7045 52.7973C36.1719 52.7744 31.284 50.3357 27.3019 46.5281L27.2998 46.526Z" fill="#006A4D"/>
<path d="M24.3266 32.465C27.6025 41.8751 36.7778 49.5049 44.819 49.5091C47.3179 49.5091 49.3744 48.6865 50.9781 47.3861L46.9586 50.7617C45.3549 52.0579 43.261 52.7953 40.7579 52.7953C32.7167 52.7912 23.5434 45.1613 20.2655 35.7512C20.2385 35.6723 20.2115 35.5955 20.1886 35.5207L24.2933 32.3611C24.3037 32.3944 24.3162 32.4297 24.3266 32.4629V32.4671V32.465Z" fill="black"/>
<path d="M94.8824 38.5596L94.3777 33.9211C94.2115 34.2285 94.0017 34.5235 93.7399 34.7977L47.026 83.6637C46.0518 84.6836 44.5686 85.2299 43.1 85.2299C42.1735 85.2299 41.2574 85.0139 40.4764 84.5631L11.5648 67.6852C10.6238 67.143 10.0026 66.3454 9.7783 65.421L10.3994 71.1397C10.495 72.0122 11.033 72.839 11.9802 73.3853L41.434 90.5748C43.2475 91.6217 45.8669 91.2644 47.2898 89.775L94.0038 40.909C94.683 40.2007 94.9676 39.3615 94.8804 38.5659V38.5617L94.8824 38.5596Z" fill="#024731"/>
<path d="M28.3236 80.4668C28.4898 79.9931 28.1824 79.3471 27.6381 79.0293L23.4773 76.5947C22.9351 76.2769 22.3577 76.4057 22.1956 76.8793C22.0294 77.3529 22.3369 77.999 22.8811 78.3168L27.0419 80.7514C27.5841 81.0692 28.1616 80.9404 28.3236 80.4668Z" fill="#6CF479"/>
<path d="M34.5851 67.1075C36.4858 68.2043 36.8119 70.3585 35.3204 71.9164C33.8289 73.4744 31.0849 73.8504 29.1883 72.7556C27.2876 71.6588 26.9552 69.5047 28.4446 67.9467C29.9361 66.3888 32.6802 66.0128 34.5851 67.1096V67.1075Z" fill="#6CF479"/>
<path d="M70.284 22.3237C70.9404 22.7039 71.0567 23.4496 70.5416 23.9897C70.0264 24.5277 69.0709 24.6607 68.4144 24.2826C67.758 23.9025 67.6438 23.1567 68.161 22.6166C68.6762 22.0786 69.6255 21.9457 70.284 22.3279V22.3237Z" fill="#6CF479"/>
<path d="M79.4968 27.6417C80.1533 28.0218 80.2696 28.7676 79.7544 29.3077C79.2393 29.8457 78.2837 29.9786 77.6273 29.6006L72.3365 26.5469C71.68 26.1668 71.5637 25.4211 72.0789 24.8789C72.594 24.3409 73.5475 24.2121 74.206 24.5901L79.4968 27.6438V27.6417Z" fill="#6CF479"/>
<path d="M32.9466 16.4995C29.9429 16.4995 27.5374 17.6483 25.994 19.8211C23.8855 22.7916 23.6425 27.2702 25.3292 32.1165C28.4659 41.1174 37.2071 48.444 44.8204 48.4481C47.8324 48.4481 50.2358 47.2994 51.7793 45.1265C53.8877 42.156 54.1307 37.6774 52.444 32.8311C49.3073 23.8303 40.5661 16.5037 32.9528 16.4995H32.9445H32.9466Z" fill="#6CF479"/>
<path d="M50.0236 33.7363C47.8694 27.5502 42.6056 21.9249 36.9242 19.7417C35.3206 19.1227 33.7564 18.8132 32.2815 18.8132C30.6924 18.8132 29.2965 19.1725 28.1436 19.8746C29.4626 18.6075 31.2574 17.9448 33.4074 17.9469C34.8823 17.9469 36.4444 18.2627 38.0501 18.8755C43.7315 21.0608 48.9953 26.684 51.1495 32.8701C52.6742 37.2428 52.4685 41.2665 50.5928 43.9067C50.0589 44.6608 49.3983 45.2715 48.636 45.7389C48.9392 45.446 49.2155 45.1282 49.4669 44.7709C51.3447 42.1306 51.5462 38.1069 50.0236 33.7343V33.7363Z" fill="black"/>
<path d="M48.3772 44.1164C47.459 45.3566 45.98 45.9943 44.098 45.9569C43.7407 45.9486 43.3688 45.9195 42.9991 45.8655C40.12 45.4563 36.9916 43.7716 34.1914 41.1168C31.4805 38.6282 29.8561 35.6286 29.8561 35.6286C32.9159 39.2763 34.4718 38.9855 35.5416 37.7911C40.7556 44.6814 49.4615 45.0927 49.5363 38.2273C49.8022 40.6328 49.4116 42.7226 48.3792 44.1164H48.3751H48.3772Z" fill="white"/>
<path d="M7.39928 30.9445C7.68387 35.9549 4.7362 39.8809 0 40.7949C5.17243 41.7131 9.98342 45.635 12.0794 50.6475C11.7948 45.6329 14.7425 41.711 19.4787 40.797C14.3062 39.8789 9.49525 35.9569 7.39928 30.9445Z" fill="#006A4D"/>
<path d="M44.423 9C44.5435 11.1541 43.2805 12.843 41.2448 13.2335C43.4675 13.6282 45.5344 15.3129 46.438 17.4691C46.3175 15.3149 47.5805 13.6261 49.6162 13.2356C47.3894 12.8409 45.3225 11.1541 44.423 9Z" fill="#006A4D"/>
<path d="M82.0967 50.2197C82.3169 50.6289 82.749 50.6975 83.0647 50.3672L87.6701 45.5686C87.9858 45.2425 88.0647 44.6422 87.8445 44.233C87.6244 43.8237 87.1923 43.7552 86.8765 44.0855L82.2712 48.884C81.9554 49.2101 81.8765 49.8105 82.0967 50.2197Z" fill="#6CF479"/>
<path d="M75.2796 57.3201C75.2796 57.3201 75.9318 57.7978 76.2476 57.4676L80.8529 52.669C81.1687 52.3429 81.2476 51.7446 81.0274 51.3333C80.8072 50.9241 80.3751 50.8556 80.0594 51.1859L75.4541 55.9844C75.1383 56.3105 75.2796 57.3201 75.2796 57.3201Z" fill="#6CF479"/>
<path d="M22.6929 20.7532L26.7539 17.4649C24.8532 19 23.6484 21.3307 23.2828 24.1517L19.2466 27.2572C19.6413 24.5152 20.8358 22.2593 22.6949 20.7532H22.6908H22.6929Z" fill="black"/>
<path d="M19.105 29.4655L23.1661 26.3412C23.1765 26.9187 23.2201 27.5066 23.2907 28.109L19.213 31.2457C19.1445 30.6391 19.1071 30.043 19.1029 29.4676L19.105 29.4655Z" fill="black"/>
<path d="M71.7563 90.791C71.7563 75.1906 59.1099 62.5483 43.5157 62.5483C59.1161 62.5483 71.7563 49.9018 71.7563 34.3056C71.7563 49.9059 84.4028 62.5483 99.9991 62.5483C84.3987 62.5483 71.7563 75.1948 71.7563 90.791Z" fill="#6CF479"/>
<path d="M71.7562 69.7148C73.927 61.0027 84.4028 62.5483 99.9991 62.5483C84.3987 62.5483 71.7563 75.1948 71.7563 90.791" fill="#11B57A"/>
<path d="M71.7562 69.7148C69.5855 61.0027 59.1099 62.5483 43.5157 62.5483C59.1161 62.5483 71.7563 75.1948 71.7563 90.791" fill="black"/>
<path d="M90.4857 62.1579C81.1566 62.1579 79.4823 62.8559 75.8533 59.6589C74.7004 58.6411 71.0673 54.1354 71.8338 41.6821C72.5546 54.3245 88.236 62.1704 90.4857 62.1579Z" fill="white"/>
</g>
</g>
</g>
</g>
</svg>
