<svg width="100" height="100" viewBox="0 0 100 100" fill="none" xmlns="http://www.w3.org/2000/svg">
<rect width="100" height="100" fill="#1E1E1E"/>
<g id="Default">
<path d="M-105 -16023C-105 -16024.1 -104.105 -16025 -103 -16025H1103C1104.1 -16025 1105 -16024.1 1105 -16023V17183C1105 17184.1 1104.1 17185 1103 17185H-103C-104.105 17185 -105 17184.1 -105 17183V-16023Z" fill="white"/>
<path d="M-103 -16025V-16024H1103V-16025V-16026H-103V-16025ZM1105 -16023H1104V17183H1105H1106V-16023H1105ZM1103 17185V17184H-103V17185V17186H1103V17185ZM-105 17183H-104V-16023H-105H-106V17183H-105ZM-103 17185V17184C-103.552 17184 -104 17183.6 -104 17183H-105H-106C-106 17184.7 -104.657 17186 -103 17186V17185ZM1105 17183H1104C1104 17183.6 1103.55 17184 1103 17184V17185V17186C1104.66 17186 1106 17184.7 1106 17183H1105ZM1103 -16025V-16024C1103.55 -16024 1104 -16023.6 1104 -16023H1105H1106C1106 -16024.7 1104.66 -16026 1103 -16026V-16025ZM-103 -16025V-16026C-104.656 -16026 -106 -16024.7 -106 -16023H-105H-104C-104 -16023.6 -103.553 -16024 -103 -16024V-16025Z" fill="white" fill-opacity="0.1"/>
<g id="Mobile Settings ">
<rect x="-24.5" y="-24.5" width="1049" height="149" rx="4.5" stroke="#9747FF" stroke-dasharray="10 5"/>
<g id="Brand=Lloyds - V2">
<rect width="100" height="100" fill="#C7FFC6"/>
<g id="Path">
<path d="M99.992 35.2786L90.0118 35.5196L71.572 24.8524C70.3761 24.1591 68.613 24.413 67.6645 25.4118L39.3231 55.1978L23.7651 65.5609V71.0046C23.7999 71.6207 24.162 72.2083 24.8128 72.5834L52.1851 88.4172C53.381 89.1106 55.1441 88.8567 56.0926 87.8579L99.3915 42.3514C99.8091 41.9119 100.008 41.4028 99.9998 40.9144V35.2799H99.9933L99.992 35.2786Z" fill="black"/>
<path d="M56.0911 82.2723C55.1361 83.2775 53.3795 83.525 52.1835 82.8316L24.8113 66.9978C23.6153 66.3044 23.4168 64.9164 24.3654 63.9189L67.6642 18.4111C68.6192 17.4058 70.3758 17.1584 71.5718 17.8518L98.944 33.6856C100.14 34.379 100.338 35.767 99.3899 36.7645L56.0911 82.271V82.2723Z" fill="#11B57A"/>
<path d="M85.0141 32.688L80.3707 29.97C79.89 29.6865 79.7972 29.0292 80.18 28.6245C80.7174 28.0588 81.568 27.9453 82.2394 28.3345L86.8829 31.0526C87.3713 31.3361 87.4564 32.0011 87.0672 32.4045H87.0607C86.5233 32.9638 85.6804 33.0772 85.0154 32.688H85.0141Z" fill="#024731"/>
<path d="M47.329 69.7804C47.2723 71.4223 45.4113 72.8103 43.1663 72.8735C40.9225 72.9366 39.153 71.6633 39.2162 70.0214C39.2729 68.3795 41.1339 66.9915 43.3789 66.9284C45.6227 66.8652 47.3921 68.1385 47.329 69.7804Z" fill="#024731"/>
<path d="M77.8279 28.0088C78.5934 27.9289 79.1669 27.4108 79.1089 26.8502C79.0509 26.2908 78.382 25.9016 77.6165 25.9815C76.851 26.0614 76.2775 26.5795 76.3355 27.1401C76.3935 27.6995 77.0624 28.0887 77.8279 28.0101V28.0088Z" fill="#024731"/>
<path d="M6.46963 33.3138C6.46963 33.3138 8.59353 40.3492 17.1935 42.2965C17.1935 42.2965 10.6749 43.4216 10.5473 51.2509C10.5473 51.2509 8.25329 44.4694 0 42.2901C0 42.2901 6.89493 41.4692 6.46963 33.3151V33.3138Z" fill="#006A4D"/>
<path d="M54.8814 11.3672C54.8814 11.3672 55.8157 14.4602 59.6022 15.3173C59.6022 15.3173 56.7359 15.8122 56.6715 19.2596C56.6715 19.2596 55.6598 16.2723 52.028 15.3173C52.028 15.3173 55.0644 14.9564 54.8737 11.3672H54.8814Z" fill="#006A4D"/>
<path d="M68.8541 45.2377C68.8541 45.2377 70.2279 49.7897 75.798 51.0488C75.798 51.0488 71.5799 51.7783 71.4948 56.8457C71.4948 56.8457 70.0089 52.4574 64.6708 51.0488C64.6708 51.0488 69.1299 50.5178 68.8541 45.2442V45.2365V45.2377Z" fill="#006A4D"/>
<path d="M58.2666 29.2706L56.3786 36.1694L60.7449 37.0587L60.098 42.0784L56.7059 45.9963L56.1672 47.3675L52.8435 51.2068L47.5402 49.2491L45.4446 49.7878L38.3744 50.373L34.838 46.9062L54.0214 28.8363L58.2666 29.2706Z" fill="#006A4D"/>
<path d="M60.7449 37.0587C60.7436 36.9491 60.712 36.8849 60.5986 36.8462C60.4542 36.7985 60.3163 36.7302 60.1797 36.6632C59.2789 36.2173 58.5133 35.6013 57.887 34.8138C57.3986 34.2017 57.0338 33.5251 56.8328 32.7647C56.7245 32.3549 56.6794 31.9386 56.7091 31.5159C56.7181 31.3831 56.7297 31.2491 56.7748 31.1215C56.7825 30.963 56.8405 30.8174 56.8972 30.673C57.1588 30.017 57.6202 29.5531 58.2672 29.2721C58.311 29.2528 58.4141 29.2206 58.4193 29.2141C58.4334 29.169 58.4012 29.1368 58.3832 29.102C58.1512 28.6612 57.905 28.2269 57.6447 27.8016C56.8366 26.4806 55.9203 25.2395 54.8932 24.0809C54.8365 24.0165 54.7785 23.9534 54.7243 23.8876C54.7012 23.8593 54.678 23.8438 54.6496 23.8438C54.6341 23.8438 54.6174 23.8477 54.5993 23.8567C54.5491 23.8812 54.4975 23.9018 54.4447 23.9211C54.0529 24.0681 53.6547 24.1299 53.2513 24.1299C53.0013 24.1299 52.75 24.1067 52.4961 24.0642C51.9561 23.9753 51.4444 23.7948 50.956 23.55C50.2433 23.1917 49.617 22.7187 49.0718 22.1375C48.5047 21.533 48.0601 20.8526 47.7817 20.069C47.5704 19.4749 47.4802 18.8653 47.5639 18.2364C47.5742 18.1603 47.5549 18.1152 47.484 18.0753C47.0858 17.8562 46.685 17.6435 46.2777 17.4425C45.0753 16.8458 43.8342 16.3457 42.5506 15.9539C42.2735 15.8689 41.9964 15.7825 41.7129 15.722C41.7052 15.722 41.6975 15.722 41.6897 15.722C41.673 15.722 41.6575 15.7194 41.6446 15.7026C41.6382 15.7001 41.633 15.6988 41.6266 15.6988C41.6188 15.6988 41.6111 15.7013 41.6034 15.7078C41.5969 15.9385 41.5557 16.1653 41.4784 16.3805C41.3701 16.6795 41.2412 16.9734 41.0273 17.2144C40.8378 17.427 40.6355 17.6255 40.379 17.7647C40.1728 17.8768 39.9666 17.9799 39.7411 18.0469C39.6779 18.0662 39.5181 18.1075 39.5001 18.1101C39.2372 18.1616 38.9743 18.1861 38.7114 18.1861C38.424 18.1861 38.1366 18.1565 37.8492 18.0985C37.0991 17.9477 36.4122 17.6435 35.7743 17.2247C35.0345 16.7388 34.4094 16.1357 33.9107 15.4036C33.8643 15.3366 33.8475 15.3147 33.8063 15.3147C33.7857 15.3147 33.7586 15.3199 33.7174 15.3289C33.1477 15.4423 32.5871 15.5905 32.0368 15.7761C31.2017 16.0583 30.4078 16.4282 29.6565 16.8896C29.4863 16.994 29.3136 17.0971 29.1577 17.2247C29.1603 17.2736 29.2054 17.2968 29.2273 17.3342C29.3459 17.5417 29.4941 17.7312 29.6049 17.9464C29.6874 18.1075 29.7492 18.2776 29.8343 18.4374C29.9245 18.6062 29.9774 18.7854 30.025 18.9684C30.0354 19.0109 30.0792 19.0418 30.0689 19.0908C30.1191 19.2197 30.132 19.3563 30.1591 19.489C30.2209 19.7932 30.2068 20.1012 30.2029 20.4092C30.2016 20.5613 30.1707 20.7121 30.1307 20.8564C30.0212 21.2611 29.8511 21.6336 29.5688 21.9545C29.2763 22.2857 28.9193 22.5099 28.5133 22.6697C28.2981 22.7548 28.0738 22.8051 27.8483 22.8386C27.7478 22.854 27.6447 22.8695 27.539 22.8695C27.5235 22.8695 27.5094 22.8695 27.4939 22.8695C27.4501 22.8669 27.4063 22.8669 27.3624 22.8669C27.2877 22.8669 27.2117 22.8682 27.1356 22.8682C27.0248 22.8682 26.9139 22.8643 26.8044 22.8437C26.709 22.8154 26.6098 22.8205 26.5131 22.8012C26.3288 22.7741 26.1497 22.7252 25.9706 22.6762C25.745 22.613 25.5285 22.5228 25.3081 22.4442C25.3069 22.4442 25.3043 22.4442 25.303 22.4442C25.2875 22.4442 25.2733 22.4403 25.263 22.4262C25.2566 22.4223 25.2501 22.421 25.2437 22.421C25.236 22.421 25.2282 22.4236 25.2218 22.43C25.1806 22.5602 25.1393 22.6916 25.0968 22.8218C24.9718 23.1981 24.8841 23.5848 24.7991 23.9714C24.7424 24.2304 24.7011 24.4934 24.6638 24.7575C24.6418 24.9148 24.6264 25.0733 24.6122 25.2318C24.5954 25.4122 24.5864 25.594 24.5658 25.7731C24.5387 26.018 24.5555 26.2628 24.5491 26.5077C24.5452 26.6598 24.5491 26.8131 24.5491 26.9652C24.5491 27.1766 24.5426 27.3879 24.5723 27.5993C25.1419 27.8068 25.6651 28.0993 26.1523 28.4602C26.4667 28.6922 26.7632 28.9461 27.0299 29.2322C27.222 29.4384 27.4127 29.6459 27.5661 29.8843C27.6047 29.8985 27.6163 29.9371 27.637 29.9668C27.798 30.2065 27.9566 30.4475 28.0854 30.7052C28.2633 31.0596 28.4051 31.4295 28.4953 31.8161C28.503 31.8484 28.5404 31.9876 28.5481 32.0262C28.5687 32.128 28.5829 32.2311 28.5881 32.3329C28.5958 32.4915 28.6319 32.65 28.6151 32.8098C28.5881 33.0817 28.5687 33.3524 28.4862 33.6179C28.4038 33.8833 28.2942 34.1334 28.1383 34.3602C27.9875 34.5767 27.8084 34.77 27.5944 34.9285C27.396 35.0755 27.1807 35.1889 26.9539 35.2842C26.9178 35.2997 26.8585 35.2933 26.8508 35.3525C26.9243 35.4866 27.0003 35.618 27.0712 35.7533C27.1743 35.9518 27.2838 36.1451 27.4011 36.3359C27.472 36.4493 27.521 36.573 27.5893 36.6877C27.6795 36.8372 27.7826 36.9764 27.8754 37.1233C28.0262 37.3617 28.1757 37.6014 28.3432 37.8296C28.3741 37.8708 28.3999 37.9146 28.4205 37.9649C28.454 38.0474 28.5249 38.1066 28.5752 38.1788C28.6731 38.318 28.7633 38.4623 28.8664 38.5977C28.9257 38.6763 28.985 38.7562 29.043 38.8361C29.1964 39.0127 29.3291 39.2047 29.4747 39.3864C29.583 39.5204 29.6913 39.6557 29.8008 39.7898C29.8833 39.8903 29.9658 39.9895 30.0418 40.0939C30.1256 40.2099 30.2428 40.2988 30.3331 40.411C30.4207 40.5205 30.5148 40.6249 30.6063 40.7319C30.6643 40.7293 30.7107 40.6945 30.7622 40.6739C31.0934 40.5424 31.4337 40.4599 31.7907 40.4432C31.8538 40.4406 31.917 40.429 31.9801 40.429C32.0059 40.429 32.0317 40.4303 32.0574 40.4355C32.1013 40.429 32.1451 40.4264 32.1889 40.4264C32.301 40.4264 32.4131 40.4432 32.524 40.4535C32.9274 40.4947 33.3217 40.5888 33.7045 40.7254C34.3502 40.9561 34.9417 41.2899 35.4804 41.7139C35.84 41.9974 36.1738 42.3068 36.4663 42.6625C36.5797 42.8004 36.6957 42.9344 36.795 43.0826C36.8633 43.1367 36.8981 43.2166 36.9445 43.2862C37.219 43.7012 37.4393 44.1433 37.5914 44.6175C37.6339 44.7503 37.7242 45.1047 37.7332 45.1485C37.8054 45.4965 37.8079 45.8483 37.7976 46.2001C37.7951 46.2916 37.7706 46.3831 37.777 46.4759C38.0451 46.6293 38.3157 46.7762 38.5902 46.918C39.0658 47.1641 39.5478 47.3974 40.0375 47.6139C40.6703 47.8936 41.3121 48.1475 41.9668 48.3717C42.4849 48.5496 43.6628 48.9104 43.7427 48.9104C43.7904 48.8086 43.7865 48.6952 43.8072 48.5869C43.9528 47.7879 44.3652 47.1744 45.0702 46.7646C45.4052 46.57 45.77 46.4656 46.1514 46.4063C46.2687 46.3806 46.4698 46.3703 46.6618 46.3703C46.8345 46.3703 47.0007 46.3793 47.0935 46.3934C47.4905 46.4321 47.8784 46.521 48.2547 46.6525C48.9249 46.887 49.5332 47.2337 50.0912 47.6719C50.3735 47.8923 50.6402 48.1307 50.8774 48.3988C51.0243 48.5637 51.4754 49.1488 51.5437 49.2481C51.545 49.2481 51.5475 49.2481 51.5488 49.2481C51.6932 49.2481 52.9226 48.9259 53.424 48.7506C53.75 48.6372 54.0709 48.5057 54.3854 48.3627C54.9628 48.0998 56.1562 47.3716 56.1678 47.3652C56.2399 47.3111 56.2399 47.3111 56.1987 47.2466C56.1832 47.2221 56.1639 47.1976 56.1472 47.1744C55.8585 46.7672 55.6213 46.3329 55.4461 45.865C55.4345 45.8341 55.4242 45.8019 55.4126 45.771C55.3932 45.713 55.3726 45.6614 55.352 45.5918C55.2811 45.3392 55.2141 45.0879 55.196 44.825C55.1484 44.575 55.1561 44.3237 55.1767 44.0711C55.1909 43.8971 55.2218 43.7257 55.2695 43.5569C55.5066 42.7256 56.0312 42.1508 56.8354 41.8363C57.1769 41.7023 57.5326 41.6301 57.9012 41.6301C57.9192 41.6301 57.9373 41.6301 57.9566 41.6301C58.0146 41.6276 58.0726 41.625 58.1293 41.625C58.4927 41.625 58.8497 41.683 59.2028 41.7719C59.467 41.8389 59.7222 41.9279 59.9735 42.031C60.0148 42.0477 60.0534 42.0696 60.0985 42.0761C60.132 42.0516 60.1333 42.0116 60.1449 41.9781C60.2596 41.6366 60.3563 41.2886 60.4375 40.9368C60.6695 39.9354 60.7713 38.9199 60.77 37.8927C60.77 37.613 60.7506 37.3347 60.7455 37.0563L60.7449 37.0587ZM51.8092 35.2365C51.8014 35.4324 51.7911 35.6283 51.7705 35.8229C51.7486 36.033 51.7189 36.2405 51.679 36.448C51.6545 36.5756 51.6236 36.7006 51.5849 36.8243C51.5411 36.9661 51.5076 37.1104 51.4586 37.2509C51.3259 37.6311 51.1583 37.9945 50.9418 38.3335C50.773 38.599 50.5848 38.8516 50.3735 39.0874C50.0126 39.4895 49.5976 39.8194 49.1324 40.0901C48.8617 40.2473 48.5808 40.38 48.2908 40.4999C48.2586 40.5128 48.1516 40.5592 48.1387 40.5592C47.8977 40.6352 47.6567 40.7125 47.4106 40.7692C46.8358 40.9033 46.2533 40.9651 45.6669 40.9651C45.5354 40.9651 45.4027 40.9626 45.2712 40.9561C44.0894 40.9007 42.954 40.6313 41.8547 40.1996C40.6123 39.7112 39.4756 39.041 38.4265 38.2188C37.2731 37.3141 36.2743 36.2624 35.4521 35.0484C34.7291 33.98 34.1736 32.8343 33.8398 31.5842C33.6117 30.7297 33.5086 29.8611 33.5576 28.977C33.573 28.6909 33.6117 28.4073 33.6658 28.1251C33.6736 28.0852 33.7071 27.9318 33.7161 27.8944C33.796 27.5542 33.9004 27.2204 34.0434 26.9008C34.278 26.3737 34.5821 25.893 34.9688 25.4625C35.434 24.9431 35.9843 24.5385 36.6094 24.233C37.1816 23.9534 37.7835 23.7703 38.4111 23.6698C38.558 23.6466 38.7036 23.6234 38.8518 23.6131C39.1302 23.5809 39.4086 23.5629 39.6883 23.5629C39.7733 23.5629 39.8584 23.5641 39.9421 23.568C40.4731 23.5899 41.0002 23.6505 41.5235 23.7523C42.2735 23.8992 43.0004 24.1248 43.7066 24.416C44.3923 24.6996 45.0483 25.0411 45.6772 25.4342C46.2868 25.8156 46.8641 26.2409 47.4106 26.7075C47.9067 27.1302 48.372 27.5864 48.8024 28.0748C49.0228 28.3249 49.2393 28.5788 49.4404 28.8455C49.4791 28.8958 49.586 29.035 49.6041 29.0595C49.7819 29.3108 49.9636 29.5582 50.1144 29.8276C50.1943 29.9693 50.3026 30.0944 50.3747 30.2413C50.5242 30.5441 50.7176 30.8225 50.8439 31.137C50.8903 31.2542 50.9534 31.3651 51.0011 31.4811C51.1802 31.9154 51.3529 32.3523 51.4715 32.8085C51.4754 32.8227 51.4754 32.8381 51.4767 32.8523C51.5411 32.9748 51.5591 33.1114 51.5875 33.2441C51.6339 33.4568 51.6725 33.672 51.7138 33.8859C51.7305 33.9697 51.7344 34.0547 51.7421 34.1385C51.7589 34.337 51.7885 34.5355 51.7976 34.7352C51.8053 34.9015 51.8169 35.069 51.8104 35.2353L51.8092 35.2365Z" fill="#6CF379"/>
<path d="M34.8952 27.6929C34.9107 27.6917 34.9262 27.6891 34.9416 27.6878C34.9726 27.6929 35.0022 27.6839 35.0293 27.671C35.0447 27.6697 35.0602 27.6672 35.0757 27.6659C35.1208 27.671 35.1633 27.6607 35.2046 27.6478C35.2213 27.6465 35.2368 27.6453 35.2535 27.644C35.2986 27.6478 35.3412 27.6375 35.3837 27.6259C35.4069 27.6246 35.4301 27.6234 35.4546 27.6221C35.5203 27.6272 35.5847 27.6156 35.6492 27.6027C35.7871 27.5976 35.9237 27.5886 36.0616 27.586C36.8851 27.5718 37.6958 27.671 38.4961 27.8618C39.3132 28.0564 40.098 28.3425 40.8558 28.7033C41.5569 29.0371 42.2219 29.4289 42.8573 29.8748C43.6885 30.4599 44.4502 31.1237 45.141 31.8686C45.8034 32.5838 46.3859 33.3584 46.8808 34.2C47.0174 34.4332 47.1412 34.6742 47.2687 34.9126C47.2778 34.9371 47.2855 34.9616 47.2971 34.9848C47.4311 35.2374 47.5407 35.5003 47.6489 35.7645C47.7791 36.0841 47.8848 36.4115 47.9905 36.7401C47.9866 36.762 47.9892 36.7839 47.9956 36.8059C48.1786 37.4051 48.283 38.0199 48.3217 38.6436C48.3449 39.0238 48.3423 39.4027 48.3062 39.779C48.4853 39.6966 48.6516 39.6128 48.805 39.5239C49.2238 39.2803 49.5782 38.9942 49.8862 38.6501C50.0667 38.449 50.2303 38.2312 50.3901 37.9812C50.5706 37.6977 50.7188 37.3884 50.8412 37.0353C50.8631 36.9734 50.8825 36.9025 50.9031 36.8278C50.9211 36.7646 50.9392 36.6989 50.9611 36.6293C50.9907 36.5365 51.0152 36.436 51.0371 36.3238C51.0719 36.146 51.099 35.9591 51.1209 35.7555C51.1389 35.588 51.1479 35.4166 51.1557 35.2104C51.1595 35.1021 51.1544 34.9822 51.1479 34.8559L51.1441 34.7683C51.1389 34.6626 51.1273 34.5518 51.1144 34.4345C51.1054 34.3559 51.0977 34.2773 51.09 34.1974L51.0848 34.142C51.0809 34.0904 51.0771 34.0427 51.0706 34.0118C51.0603 33.9551 51.0487 33.8997 51.0384 33.843C51.0088 33.6844 50.9791 33.5337 50.9469 33.3842C50.9405 33.3545 50.934 33.3236 50.9289 33.2939C50.9198 33.245 50.9057 33.178 50.8979 33.1599L50.8399 33.0504L50.827 32.9318C50.7162 32.5194 50.5538 32.1134 50.3966 31.7307C50.3811 31.692 50.3592 31.6482 50.336 31.6005C50.3051 31.5361 50.269 31.4626 50.2368 31.3801C50.1775 31.2332 50.0912 31.0811 49.9996 30.92C49.9288 30.7963 49.8566 30.6687 49.7883 30.5295C49.769 30.4896 49.7316 30.4354 49.6916 30.3787C49.6452 30.3117 49.5937 30.2357 49.5447 30.1481C49.4261 29.9367 49.2805 29.7318 49.1259 29.514L49.0743 29.4418C49.0614 29.4251 49.0318 29.3851 49.0009 29.3464C48.9686 29.3052 48.9364 29.264 48.9197 29.2395C48.7199 28.974 48.5021 28.7214 48.3139 28.5087C47.9118 28.0525 47.4646 27.6143 46.9878 27.2058C46.4671 26.7612 45.9091 26.3513 45.3317 25.9892C44.7286 25.6103 44.0984 25.2855 43.4591 25.0213C42.78 24.7404 42.0866 24.5303 41.401 24.395C40.9241 24.3022 40.4254 24.2429 39.9189 24.2223C39.8441 24.2197 39.7681 24.2171 39.6921 24.2171C39.4511 24.2171 39.201 24.2326 38.9304 24.2635H38.9175L38.9046 24.2661C38.7822 24.2751 38.652 24.2945 38.5193 24.3164C37.9406 24.4092 37.3955 24.5793 36.9019 24.8216C36.3348 25.0986 35.8631 25.4518 35.461 25.9003C35.1311 26.2676 34.8579 26.6929 34.6478 27.1671C34.5602 27.3643 34.4854 27.5731 34.4223 27.8012C34.5524 27.769 34.6826 27.7381 34.8128 27.711C34.8437 27.7161 34.8721 27.7071 34.9004 27.6942L34.8952 27.6929ZM35.5229 27.5473C35.51 27.5615 35.4997 27.577 35.5023 27.6002C35.5358 27.6002 35.568 27.6002 35.6015 27.6014C35.568 27.6014 35.5358 27.6014 35.5023 27.6014C35.4997 27.5795 35.51 27.5628 35.5229 27.5486V27.5473ZM25.9009 21.5481C26.0156 21.713 26.1174 21.8857 26.2102 22.0623C26.3404 22.0984 26.4796 22.1345 26.6072 22.1525L26.6239 22.1551L26.6368 22.1577C26.6471 22.159 26.6755 22.1615 26.6961 22.1641C26.7605 22.1706 26.8469 22.1783 26.9448 22.2028C27.0054 22.2118 27.075 22.2131 27.1368 22.2131C27.1716 22.2131 27.2064 22.2131 27.2412 22.2131C27.2812 22.2131 27.3224 22.2131 27.3624 22.2131C27.4229 22.2131 27.4745 22.2131 27.5248 22.217C27.5299 22.217 27.5338 22.217 27.5389 22.217C27.5918 22.217 27.6639 22.2066 27.7413 22.195H27.7516C27.9604 22.1628 28.1266 22.1203 28.2735 22.0623C28.6176 21.927 28.8728 21.7569 29.0777 21.5236C29.2698 21.3071 29.4038 21.0403 29.4992 20.6872C29.5314 20.5686 29.5468 20.4784 29.5481 20.4037C29.5481 20.3624 29.5481 20.3225 29.5494 20.2812C29.5533 20.0428 29.5572 19.8173 29.5172 19.6227C29.5082 19.5788 29.5005 19.535 29.4927 19.4925C29.4811 19.4281 29.4695 19.3623 29.4579 19.3301L29.3896 19.1535L29.3922 19.1407C29.3922 19.1407 29.3909 19.1355 29.3896 19.1329C29.3497 18.977 29.3123 18.8533 29.2569 18.7502C29.1989 18.6432 29.1525 18.5362 29.1112 18.4421C29.0803 18.3725 29.0507 18.3055 29.021 18.2475C28.9746 18.1573 28.9115 18.0607 28.8445 17.9589C28.7981 17.888 28.7504 17.8158 28.7027 17.7372C27.8714 18.7076 27.0402 19.6794 26.2089 20.6511C26.0569 20.8289 25.9061 21.0094 25.7514 21.1859C25.7102 21.2323 25.7037 21.2697 25.7437 21.3213C25.8004 21.3947 25.8481 21.4746 25.9009 21.5507V21.5481ZM53.6404 49.3714C53.2654 49.5015 51.8593 49.9049 51.55 49.9049C51.5281 49.9049 51.5088 49.9049 51.4921 49.9023L51.184 49.8766L51.0075 49.624C50.9546 49.5479 50.519 48.9822 50.3889 48.8352C50.2007 48.6226 49.9726 48.4112 49.6891 48.1896C49.1723 47.7849 48.6181 47.4769 48.0407 47.2733C47.7056 47.156 47.3667 47.0799 47.0329 47.0477H47.0149L46.9968 47.0426C46.9582 47.0361 46.8344 47.0271 46.6643 47.0271C46.4401 47.0271 46.3202 47.0426 46.2919 47.049L46.2725 47.0529L46.2532 47.0555C45.9052 47.1096 45.6346 47.1972 45.4013 47.3325C44.8691 47.6418 44.5675 48.0787 44.4528 48.7064C44.4502 48.718 44.4476 48.7425 44.445 48.7644C44.4334 48.8662 44.4154 49.0221 44.3381 49.1897L44.1667 49.557L43.7607 49.5673H43.744C43.6434 49.5673 43.588 49.5673 42.8289 49.3353C42.4307 49.2141 42.0093 49.0788 41.7554 48.9925C41.1058 48.7695 40.4383 48.5079 39.7733 48.2153C39.2912 48.0027 38.7925 47.763 38.2899 47.5014C37.9767 47.339 37.7035 47.1895 37.4522 47.0464L37.1493 46.8724L37.1248 46.5232C37.1171 46.4046 37.1287 46.3054 37.139 46.2332C37.1416 46.2152 37.1442 46.1907 37.1442 46.183C37.1519 45.8865 37.1519 45.5721 37.0939 45.2847C37.0797 45.2241 37.0011 44.92 36.9689 44.8181C36.84 44.4173 36.6531 44.0346 36.398 43.6466C36.3812 43.6209 36.3644 43.5938 36.3477 43.5667C36.3477 43.5667 36.3464 43.5642 36.3451 43.5629L36.3077 43.5332L36.2497 43.4456C36.1866 43.3515 36.1067 43.2549 36.0216 43.1518L35.9598 43.077C35.7188 42.7845 35.4301 42.5061 35.0744 42.2277C34.5834 41.8411 34.0485 41.5434 33.4827 41.341C33.1386 41.2173 32.7933 41.1374 32.4569 41.1039C32.4285 41.1013 32.4002 41.0975 32.3718 41.0949C32.3022 41.0872 32.2365 41.0794 32.1862 41.0794C32.1708 41.0794 32.1566 41.0794 32.1463 41.082L32.038 41.0975L31.9633 41.0833C31.9543 41.0833 31.9452 41.0859 31.9362 41.0859C31.9053 41.0897 31.8653 41.0936 31.8215 41.0949C31.5548 41.1078 31.2906 41.1683 31.0122 41.2766L31.007 41.2792C30.9439 41.3114 30.8124 41.3771 30.632 41.3836L30.315 41.3965L30.1087 41.1555C30.0817 41.1245 30.0559 41.0936 30.0288 41.0627C29.9618 40.9853 29.8922 40.9054 29.8226 40.8191C29.8046 40.7959 29.7711 40.7637 29.7376 40.7289C29.6719 40.6631 29.5894 40.5807 29.512 40.475C29.4528 40.3925 29.3832 40.3087 29.311 40.2211L29.2955 40.2018C29.2195 40.109 29.1447 40.0162 29.07 39.9234L28.9656 39.7945C28.8999 39.7133 28.8393 39.6334 28.78 39.5548C28.7001 39.4504 28.6254 39.3512 28.5493 39.2622L28.5326 39.2429L28.5171 39.2223L28.463 39.1488C28.423 39.0947 28.3844 39.0419 28.3431 38.9877C28.2697 38.8898 28.2039 38.7944 28.1421 38.7016C28.1086 38.6514 28.0751 38.6011 28.0416 38.5547C28.0338 38.5457 28.0261 38.5367 28.0184 38.5277C27.9655 38.4658 27.8792 38.364 27.8173 38.2171C27.8173 38.2158 27.8147 38.2145 27.8147 38.2132C27.6459 37.9825 27.4977 37.7479 27.3534 37.5198L27.3224 37.4696C27.2876 37.4154 27.249 37.3587 27.209 37.2995C27.1497 37.2118 27.0879 37.1216 27.0286 37.0224C26.9822 36.945 26.9448 36.8716 26.9126 36.8071C26.8881 36.7569 26.8636 36.7105 26.843 36.677C26.7193 36.4772 26.6007 36.2671 26.4899 36.0519C26.4461 35.9681 26.3997 35.8831 26.3494 35.7942C26.3262 35.7516 26.3017 35.7091 26.2785 35.6666L26.1716 35.4733L26.2038 35.2555C26.2205 35.1446 26.3069 34.7838 26.7373 34.6639C26.9203 34.584 27.0737 34.4977 27.2064 34.401C27.3534 34.2927 27.4861 34.1536 27.6008 33.986C27.7065 33.8327 27.7915 33.6484 27.8624 33.4215C27.9153 33.2501 27.9346 33.0491 27.9552 32.8364L27.9642 32.7436C27.9681 32.7088 27.9604 32.6405 27.9526 32.5735C27.9462 32.5104 27.9372 32.4395 27.9346 32.3609C27.932 32.3042 27.923 32.2346 27.9075 32.156C27.9024 32.1328 27.8908 32.0889 27.8818 32.0529C27.8714 32.0116 27.8624 31.9755 27.8586 31.9614C27.7851 31.6443 27.6691 31.3286 27.5016 30.9961C27.4023 30.7989 27.2786 30.603 27.1613 30.4277L27.1356 30.4187L27.0183 30.2383C26.8958 30.0501 26.7347 29.8723 26.5517 29.6764C26.3301 29.4392 26.0723 29.2124 25.7643 28.9843C25.3055 28.6453 24.8428 28.3927 24.3492 28.2123L23.9806 28.077L23.9265 27.6878C23.8956 27.47 23.8969 27.2625 23.8969 27.0795C23.8969 27.0421 23.8969 27.0035 23.8969 26.9661V26.8527C23.8956 26.7354 23.8943 26.613 23.8969 26.4879C23.8994 26.4145 23.8982 26.3372 23.8969 26.2547C23.8969 26.0871 23.8943 25.8964 23.9175 25.6992C23.9291 25.6 23.9368 25.4982 23.9446 25.3899C23.9497 25.3177 23.9562 25.2443 23.9626 25.1721C23.9755 25.0342 23.9922 24.8525 24.018 24.6669C24.0528 24.4208 24.0966 24.1295 24.1611 23.8305C24.1791 23.748 24.1972 23.6694 24.2152 23.5895C23.4381 24.4968 22.6609 25.4054 21.8838 26.3127C21.8168 26.39 21.7665 26.4738 21.7369 26.5717C21.6956 26.7109 21.6467 26.8475 21.6054 26.9867C21.3451 27.8747 21.1879 28.782 21.126 29.706C21.0861 30.3053 21.0874 30.9033 21.1131 31.5026C21.1144 31.5451 21.108 31.5915 21.1492 31.6224C21.3954 31.7268 21.6428 31.8299 21.8787 31.9575C22.7267 32.415 23.4458 33.0233 24.0361 33.7837C24.3544 34.1948 24.616 34.6394 24.8145 35.1201C24.9008 35.3302 24.9653 35.548 25.0349 35.7632C25.0349 35.8238 25.0542 35.8792 25.0722 35.9346C25.1096 36.1756 25.1508 36.4141 25.1573 36.6589C25.1624 36.8742 25.1405 37.0855 25.1173 37.2982C25.098 37.3562 25.0555 37.4 25.0168 37.4451C24.5 38.0456 23.9832 38.6475 23.4677 39.2481C23.4144 39.3099 23.4067 39.377 23.4445 39.4491C23.7525 40.0316 24.0812 40.6013 24.433 41.158C24.7861 41.7174 25.1599 42.2625 25.5542 42.7922C25.5826 42.8309 25.6071 42.8734 25.647 42.9017C25.6586 42.9198 25.6702 42.9391 25.6831 42.9572C25.9589 43.3193 26.2347 43.6814 26.5324 44.0256C26.7219 44.2446 26.91 44.4637 27.1008 44.6815C27.1278 44.7125 27.1497 44.764 27.2077 44.7279C27.4745 44.6158 27.7503 44.5346 28.0351 44.4856C28.0738 44.4895 28.1099 44.4792 28.146 44.4689C28.329 44.4599 28.512 44.4508 28.695 44.4418C28.8432 44.4534 28.9927 44.4573 29.1396 44.4766C29.8497 44.5668 30.5134 44.7988 31.1372 45.1455C32.0097 45.6301 32.7417 46.2745 33.3281 47.0812C33.6877 47.5748 33.9673 48.1097 34.1478 48.6948C34.2689 49.0878 34.3372 49.4899 34.3411 49.9023C34.3308 49.932 34.3359 49.9629 34.3411 49.9926C34.3321 50.1073 34.3205 50.222 34.314 50.3367C34.3114 50.3831 34.2818 50.4282 34.3076 50.4759C34.3333 50.5158 34.3784 50.5274 34.4158 50.5493C34.9352 50.8406 35.4636 51.1125 36.001 51.3651C37.3491 51.9992 38.7409 52.5134 40.1818 52.8923C40.2681 52.9155 40.3158 52.8923 40.37 52.8291C40.9821 52.119 41.5969 51.4115 42.2116 50.704C42.2876 50.6176 42.3534 50.521 42.4462 50.4514C42.6433 50.4204 42.8405 50.3869 43.0403 50.3843C43.1846 50.3831 43.3277 50.3843 43.472 50.3843C43.8844 50.4179 44.2891 50.4939 44.6809 50.6266C45.8807 51.0326 46.8679 51.7453 47.6747 52.717C47.8165 52.8884 47.9376 53.0766 48.0755 53.2506C48.0742 53.2583 48.0755 53.2648 48.0755 53.2725H48.1206C48.1206 53.2648 48.1206 53.2583 48.1219 53.2506C48.1619 53.2428 48.2018 53.2351 48.2405 53.2274C48.6555 53.1397 49.0666 53.0379 49.4713 52.9078C49.8811 52.7763 50.2858 52.6371 50.6775 52.4554C50.9224 52.342 51.1699 52.2337 51.4109 52.1152C51.8426 51.9025 52.2486 51.6486 52.6455 51.378C52.7164 51.329 52.7808 51.2762 52.8375 51.2104C53.5244 50.4204 54.2114 49.6317 54.8983 48.843C54.8093 48.8881 54.7256 48.9293 54.6508 48.9628C54.3054 49.1201 53.9626 49.258 53.634 49.3727L53.6404 49.3714ZM58.1292 42.2831C58.0828 42.2831 58.0364 42.2831 57.99 42.287H57.9436C57.9295 42.287 57.9153 42.287 57.9011 42.287C57.6266 42.287 57.3482 42.3411 57.0737 42.4481C56.4551 42.6904 56.0814 43.1015 55.8984 43.7394C55.8636 43.8632 55.8391 43.9933 55.8288 44.1274C55.8133 44.3078 55.803 44.5179 55.8391 44.706L55.8468 44.7447L55.8494 44.7833C55.8623 44.9818 55.919 45.1958 55.9821 45.4148C55.9899 45.4406 55.9976 45.4638 56.0092 45.496C56.0169 45.5179 56.0247 45.5399 56.0324 45.5618C56.0414 45.5875 56.0491 45.612 56.0595 45.6378C56.093 45.7293 56.1303 45.8195 56.1703 45.9084C56.285 45.9484 56.3997 45.9909 56.5131 46.0373C56.6278 46.085 56.6278 46.0863 56.7077 45.9961C57.6266 44.9406 58.5455 43.8851 59.4644 42.8296C59.5275 42.7574 59.5907 42.6839 59.6526 42.6105C59.4399 42.5254 59.2389 42.4584 59.043 42.4081C58.7027 42.3218 58.4037 42.2806 58.1292 42.2806V42.2831Z" fill="black"/>
<path d="M42.1418 16.6713L47.0379 18.7836C47.0379 18.7836 46.8059 20.044 47.5019 21.4346C48.1978 22.8264 50.274 24.7171 51.8115 24.8898C53.4134 25.0702 54.536 24.6771 54.536 24.6771L57.3803 28.8257C57.3803 28.8257 55.4317 29.5822 55.9059 32.9033C56.4214 36.5158 59.9553 37.1975 59.9462 37.5584C59.9372 37.9192 59.713 40.5857 59.5055 40.9362C59.4526 41.0265 57.5001 40.2932 55.8157 41.5716C52.742 43.9069 54.978 47.0515 54.978 47.0515L51.8115 48.3815C51.8115 48.3815 53.8826 45.0822 51.9236 42.6323C50.6813 41.078 48.6411 41.2069 48.7159 41.1747C55.1043 38.427 52.4533 31.8427 52.4533 31.8427C52.4533 31.8427 50.0936 25.9066 45.057 23.6835C37.3863 20.2966 34.417 23.5868 34.417 23.5868C33.8692 21.2503 30.8393 21.6408 30.8393 21.6408C31.7221 19.5568 30.3509 17.4458 30.3509 17.4458L33.2558 16.1867C33.2558 16.1867 37.1595 21.2374 41.3183 18.0631C42.2462 17.3556 42.1418 16.6687 42.1418 16.6687V16.6713Z" fill="white"/>
<path d="M48.2449 53.2259L33.5451 54.2711L37.8135 49.7372L47.7912 50.0967L48.2449 53.2259Z" fill="black"/>
</g>
</g>
</g>
</g>
</svg>
