<svg width="100" height="100" viewBox="0 0 100 100" fill="none" xmlns="http://www.w3.org/2000/svg">
<rect width="100" height="100" fill="#1E1E1E"/>
<g id="Default">
<path d="M-105 -16235C-105 -16236.1 -104.105 -16237 -103 -16237H1103C1104.1 -16237 1105 -16236.1 1105 -16235V16971C1105 16972.1 1104.1 16973 1103 16973H-103C-104.105 16973 -105 16972.1 -105 16971V-16235Z" fill="white"/>
<path d="M-103 -16237V-16236H1103V-16237V-16238H-103V-16237ZM1105 -16235H1104V16971H1105H1106V-16235H1105ZM1103 16973V16972H-103V16973V16974H1103V16973ZM-105 16971H-104V-16235H-105H-106V16971H-105ZM-103 16973V16972C-103.552 16972 -104 16971.6 -104 16971H-105H-106C-106 16972.7 -104.657 16974 -103 16974V16973ZM1105 16971H1104C1104 16971.6 1103.55 16972 1103 16972V16973V16974C1104.66 16974 1106 16972.7 1106 16971H1105ZM1103 -16237V-16236C1103.55 -16236 1104 -16235.6 1104 -16235H1105H1106C1106 -16236.7 1104.66 -16238 1103 -16238V-16237ZM-103 -16237V-16238C-104.656 -16238 -106 -16236.7 -106 -16235H-105H-104C-104 -16235.6 -103.553 -16236 -103 -16236V-16237Z" fill="white" fill-opacity="0.1"/>
<g id="Monitor">
<rect x="-24.5" y="-24.5" width="1049" height="149" rx="4.5" stroke="#9747FF" stroke-dasharray="10 5"/>
<g id="Brand=Lloyds - V2">
<rect width="100" height="100" fill="#C7FFC6"/>
<g id="Path">
<path d="M59.4859 85.6515C59.0267 85.1107 58.7715 84.4269 58.7715 83.7228V74.3238H38.9022V83.7228C38.9022 84.4371 38.6572 85.1209 38.1878 85.6515L31.9423 92.9686C31.6667 93.2952 31.5136 93.7136 31.5136 94.1422V94.7545C31.5136 95.2545 31.9218 95.6628 32.4219 95.6628H65.2518C65.7518 95.6628 66.16 95.2545 66.16 94.7545V94.1422C66.16 93.7136 66.007 93.2952 65.7314 92.9686L59.4859 85.6515Z" fill="#11B67A"/>
<path d="M97.2344 8.11276H2.77579C1.24503 8.11276 0 9.35779 0 10.8886V70.1497C0 71.6805 1.24503 72.9255 2.77579 72.9255H97.2242C98.755 72.9255 100 71.6805 100 70.1497V10.8988C100 9.36799 98.755 8.12296 97.2242 8.12296L97.2344 8.11276Z" fill="#11B67A"/>
<path d="M57.1487 85.3354L63.5881 92.6525H40.4837C40.4837 92.6525 56.6792 91.8769 57.1385 85.3354H57.1487Z" fill="white"/>
<path d="M2.7757 6.73644H97.2343C97.6731 6.73644 98.1017 6.81808 98.4997 6.96095C98.4181 5.59346 97.2751 4.51172 95.8974 4.51172H4.11257C2.72467 4.51172 1.5919 5.59346 1.51026 6.96095C1.91847 6.82828 2.33687 6.73644 2.7757 6.73644Z" fill="black"/>
<path d="M4.5818 12.6844V68.3635H95.438V12.6844H4.5818Z" fill="black"/>
<path d="M8.23557 16.0858H22.0023C22.0023 16.0858 12.2054 20.8414 8.23557 39.7005V16.0858Z" fill="white"/>
<path d="M38.9119 74.3238V83.7228C38.9119 84.1412 38.8098 84.5596 38.6364 84.9474H45.3105C46.9739 84.9474 48.5149 84.0289 49.2905 82.5492L50.6988 79.9162C51.0662 79.2223 51.7908 78.7937 52.5868 78.7937H58.7915V74.334H38.9221L38.9119 74.3238Z" fill="black"/>
</g>
</g>
</g>
</g>
</svg>
