<svg width="100" height="100" viewBox="0 0 100 100" fill="none" xmlns="http://www.w3.org/2000/svg">
<rect width="100" height="100" fill="#1E1E1E"/>
<g id="Default">
<path d="M-105 -18355C-105 -18356.1 -104.105 -18357 -103 -18357H1103C1104.1 -18357 1105 -18356.1 1105 -18355V14851C1105 14852.1 1104.1 14853 1103 14853H-103C-104.105 14853 -105 14852.1 -105 14851V-18355Z" fill="white"/>
<path d="M-103 -18357V-18356H1103V-18357V-18358H-103V-18357ZM1105 -18355H1104V14851H1105H1106V-18355H1105ZM1103 14853V14852H-103V14853V14854H1103V14853ZM-105 14851H-104V-18355H-105H-106V14851H-105ZM-103 14853V14852C-103.552 14852 -104 14851.6 -104 14851H-105H-106C-106 14852.7 -104.657 14854 -103 14854V14853ZM1105 14851H1104C1104 14851.6 1103.55 14852 1103 14852V14853V14854C1104.66 14854 1106 14852.7 1106 14851H1105ZM1103 -18357V-18356C1103.55 -18356 1104 -18355.6 1104 -18355H1105H1106C1106 -18356.7 1104.66 -18358 1103 -18358V-18357ZM-103 -18357V-18358C-104.656 -18358 -106 -18356.7 -106 -18355H-105H-104C-104 -18355.6 -103.553 -18356 -103 -18356V-18357Z" fill="white" fill-opacity="0.1"/>
<g id="Pay">
<rect x="-24.5" y="-24.5" width="1049" height="149" rx="4.5" stroke="#9747FF" stroke-dasharray="10 5"/>
<g id="Brand=Lloyds - V2">
<rect width="100" height="100" fill="#C7FFC6"/>
<g id="Path">
<path d="M45.0957 78.0454L93.5 22.4992L48.8535 60.786L45.0957 78.0454Z" fill="black"/>
<path d="M99.1087 13.7571L11.858 39.0608C11.858 39.0608 50.4273 60.975 70.4343 72.2673L99.1087 13.7476V13.7571Z" fill="#6CF479"/>
<path d="M46.9592 58.8976L43.2015 76.1571L33.6181 51.3631L99.1058 13.7569L46.9592 58.8976Z" fill="#006A4D"/>
<path d="M16.0312 18.9208C14.2467 20.3937 13.312 22.622 13.4725 24.9068C11.9713 23.1885 9.73357 22.2821 7.4298 22.4992C3.76642 22.858 1 25.8982 1 29.5805C1 29.6843 1.07553 29.7788 1.17939 29.8071C1.19828 29.8071 1.21716 29.8071 1.23604 29.8071C1.32102 29.8071 1.39655 29.7599 1.44376 29.6843C2.72783 27.3428 5.07881 25.7849 7.73193 25.53C10.3567 25.2751 12.9721 26.342 14.681 28.3814C14.7471 28.4758 14.8793 28.5136 14.9832 28.4664C15.0209 28.4475 15.0493 28.4192 15.0681 28.3908C15.1059 28.3342 15.1248 28.2681 15.1059 28.202C14.8699 25.5489 15.9462 22.9619 17.9856 21.2718C20.0439 19.5723 22.8009 19.0058 25.3596 19.7517C25.454 19.78 25.5767 19.7422 25.624 19.6478C25.6806 19.5534 25.6617 19.4401 25.5862 19.3646C22.9803 16.7681 18.8731 16.5793 16.0312 18.9302V18.9208Z" fill="#11B67A"/>
<path d="M37.9427 3.31368C35.6295 3.42698 33.5429 4.6544 32.3155 6.5805C32.1361 4.30505 30.8898 2.23732 28.907 1.03823C25.7535 -0.868998 21.7219 -0.0853364 19.5125 2.86992C19.4464 2.95489 19.4464 3.07763 19.5125 3.16261C19.5786 3.24758 19.6919 3.26647 19.7958 3.2287C22.2223 2.11458 25.0359 2.27509 27.3114 3.65358C29.5774 5.02262 31.022 7.43026 31.173 10.1023C31.173 10.1495 31.1919 10.1967 31.2202 10.2344C31.258 10.2816 31.3052 10.3289 31.3713 10.3383C31.3902 10.3383 31.3996 10.3383 31.4185 10.3383C31.5129 10.3383 31.5979 10.2817 31.6357 10.1967C33.0236 7.93067 35.4407 6.49553 38.0938 6.36334C40.7563 6.22172 43.3056 7.42082 44.9201 9.55464C44.9862 9.63962 45.0995 9.67738 45.2034 9.63017C45.3072 9.59241 45.3639 9.48855 45.345 9.37525C44.8068 5.73075 41.6155 3.14372 37.9427 3.31368Z" fill="#11B67A"/>
<path d="M23.7437 94.0402C17.0212 88.6018 17.9654 78.5181 25.5849 70.757C23.6116 65.97 25.3016 59.7102 30.0508 54.2529C25.7359 57.1798 21.676 61.202 18.3148 65.9323C9.82667 77.8949 12.3476 93.2849 22.6013 97.798C27.4166 99.9224 33.2138 99.507 38.8221 97.1182C33.1005 98.0813 27.5676 97.1277 23.7437 94.0402Z" fill="#11B67A"/>
</g>
</g>
</g>
</g>
</svg>
