<svg width="100" height="100" viewBox="0 0 100 100" fill="none" xmlns="http://www.w3.org/2000/svg">
<rect width="100" height="100" fill="#1E1E1E"/>
<g id="Default">
<path d="M-105 -18991C-105 -18992.1 -104.105 -18993 -103 -18993H1103C1104.1 -18993 1105 -18992.1 1105 -18991V14215C1105 14216.1 1104.1 14217 1103 14217H-103C-104.105 14217 -105 14216.1 -105 14215V-18991Z" fill="white"/>
<path d="M-103 -18993V-18992H1103V-18993V-18994H-103V-18993ZM1105 -18991H1104V14215H1105H1106V-18991H1105ZM1103 14217V14216H-103V14217V14218H1103V14217ZM-105 14215H-104V-18991H-105H-106V14215H-105ZM-103 14217V14216C-103.552 14216 -104 14215.6 -104 14215H-105H-106C-106 14216.7 -104.657 14218 -103 14218V14217ZM1105 14215H1104C1104 14215.6 1103.55 14216 1103 14216V14217V14218C1104.66 14218 1106 14216.7 1106 14215H1105ZM1103 -18993V-18992C1103.55 -18992 1104 -18991.6 1104 -18991H1105H1106C1106 -18992.7 1104.66 -18994 1103 -18994V-18993ZM-103 -18993V-18994C-104.656 -18994 -106 -18992.7 -106 -18991H-105H-104C-104 -18991.6 -103.553 -18992 -103 -18992V-18993Z" fill="white" fill-opacity="0.1"/>
<g id="_Percentage Symbol">
<rect x="-24.5" y="-24.5" width="1049" height="149" rx="4.5" stroke="#9747FF" stroke-dasharray="10 5"/>
<g id="Brand=Lloyds - V2" clip-path="url(#clip0_4483_4)">
<rect width="100" height="100" fill="#C7FFC6"/>
<g id="Path">
<path d="M93.0783 82.9654L77.0574 46.6439C76.6927 45.814 75.7991 45.2395 74.942 45.2395C74.8235 45.2395 74.714 45.2486 74.5955 45.276L5.18714 59.9305C4.22972 60.122 3.80116 61.043 4.2206 61.9914L20.4147 98.5956C20.7794 99.4255 21.6821 100 22.5392 100C22.6578 100 22.7854 99.9909 22.904 99.9635L92.1482 85.0081C93.0874 84.8166 93.5068 83.8956 93.0965 82.9563L93.0783 82.9654Z" fill="black"/>
<path d="M93.0765 81.8077L77.0557 45.4862C76.6909 44.6563 75.7973 44.0818 74.9402 44.0818C74.8217 44.0818 74.7123 44.0909 74.5937 44.1183L5.18536 58.7819C4.22794 58.9734 3.79938 59.8944 4.21882 60.8428L20.4129 97.4471C20.7776 98.2769 21.6803 98.8514 22.5374 98.8514C22.656 98.8514 22.7836 98.8423 22.9022 98.8149L92.1464 83.8595C93.0856 83.668 93.505 82.747 93.0947 81.8077H93.0765Z" fill="#11B67A"/>
<path d="M17.6604 91.2356L90.3149 75.5507L86.9229 67.845L14.2502 83.53L17.6604 91.2356Z" fill="black"/>
<path d="M87.3507 19.542C87.3507 19.542 89.7579 27.5304 99.5327 29.7373C99.5327 29.7373 92.1287 31.0139 91.9828 39.9051C91.9828 39.9051 89.3749 32.1994 80.0105 29.7281C80.0105 29.7281 87.834 28.798 87.3507 19.542Z" fill="#006A4D"/>
<path d="M4.86691 33.6696C4.86691 33.6696 6.61762 39.4785 13.7299 41.0926C13.7299 41.0926 8.34098 42.0227 8.24067 48.4882C8.24067 48.4882 6.34407 42.8799 -0.467285 41.0835C-0.467285 41.0835 5.23164 40.4086 4.87603 33.6696H4.86691Z" fill="#006A4D"/>
<path d="M43.5288 73.2453C43.5288 73.2453 45.2795 79.0542 52.3918 80.6683C52.3918 80.6683 47.0028 81.5984 46.9025 88.0639C46.9025 88.0639 45.0059 82.4556 38.1946 80.6591C38.1946 80.6591 43.8935 79.9843 43.5379 73.2453H43.5288Z" fill="white"/>
<path d="M78.086 39.5224C76.8095 37.352 75.0496 35.6285 72.8339 34.3518C70.609 33.0751 68.1653 32.4368 65.4937 32.4368C62.822 32.4368 60.2871 33.0751 58.0714 34.3518C55.8465 35.6285 54.0776 37.3611 52.7737 39.5224C51.4698 41.6927 50.8132 44.0546 50.8132 46.6171C50.8132 47.4652 50.8862 48.295 51.0321 49.0975L37.0993 52.043L79.4811 5.89097L78.1681 1.23108H69.0772L26.1209 54.3592L5.18536 58.7819C4.22794 58.9734 3.79938 59.8944 4.21882 60.8428L6.89959 66.8981L30.0783 67.0166L31.3548 63.2686L42.543 62.8674C55.1809 69.3876 66.2323 68.3206 66.2323 68.3206C61.0257 65.211 57.8526 61.1621 55.9104 57.4233C56.5851 57.9886 57.2872 58.5176 58.0805 58.9644C60.3054 60.2411 62.7855 60.8794 65.5028 60.8794C68.22 60.8794 70.6181 60.2411 72.843 58.9644C75.0679 57.6877 76.8186 55.9642 78.0951 53.7938C79.3717 51.6235 80.01 49.2343 80.01 46.6171C80.01 43.9999 79.3717 41.6927 78.0951 39.5224H78.086ZM70.4084 51.66C69.068 52.9731 67.4359 53.6206 65.4846 53.6206C63.5332 53.6206 61.8008 52.9549 60.433 51.6144C59.0653 50.283 58.3905 48.6142 58.3905 46.608C58.3905 44.6017 59.0653 42.9694 60.433 41.6836C61.7917 40.4069 63.4785 39.7686 65.4846 39.7686C67.4906 39.7686 69.068 40.4069 70.4084 41.6836C71.7397 42.9603 72.4053 44.6017 72.4053 46.608C72.4053 48.6142 71.7397 50.3468 70.4084 51.66ZM26.8595 26.5094C29.0844 27.786 31.5645 28.4244 34.2818 28.4244C36.999 28.4244 39.4792 27.786 41.7041 26.5094C43.9289 25.2327 45.6796 23.4909 46.9562 21.2932C48.2328 19.0955 48.871 16.688 48.871 14.0708C48.871 11.4536 48.2328 9.1465 46.9562 6.97615C45.6796 4.80579 43.9198 3.09139 41.7041 1.84207C39.9351 0.848081 38.0021 0.255336 35.9231 0.0547148L34.7012 7.2406C36.5158 7.32267 38.0476 7.95189 39.2969 9.1465C40.6281 10.4232 41.2938 12.0646 41.2938 14.0708C41.2938 16.0771 40.6281 17.8097 39.2969 19.1228C37.9565 20.436 36.2878 21.0835 34.2909 21.0835C32.294 21.0835 30.7074 20.4178 29.367 19.0773C28.0358 17.7459 27.3701 16.0771 27.3701 14.0708C27.3701 12.0646 28.0175 10.4323 29.3306 9.1465C30.0691 8.42609 30.9172 7.91542 31.8746 7.59625L33.1694 0C32.3031 0.0547149 31.4551 0.182383 30.6436 0.373885L28.7196 9.54775L24.2608 8.60847L25.4918 2.72662C23.9143 3.8574 22.6104 5.27087 21.6165 6.96703C20.3399 9.13738 19.7017 11.4992 19.7017 14.0617C19.7017 16.6242 20.3399 19.0864 21.6165 21.2841C22.8931 23.4818 24.6438 25.2144 26.8686 26.5002L26.8595 26.5094Z" fill="black"/>
<path d="M20.2864 11.9092C21.6268 9.63851 23.4596 7.85116 25.7847 6.538C28.1099 5.22484 30.6995 4.57738 33.5535 4.57738C36.4076 4.57738 38.9971 5.23396 41.3223 6.538C43.6475 7.85116 45.4802 9.63851 46.8206 11.9092C48.161 14.1798 48.8266 16.6511 48.8266 19.3322C48.8266 22.0132 48.161 24.5848 46.8206 26.8828C45.4802 29.1808 43.6475 31.0047 41.3223 32.3361C38.988 33.6766 36.4076 34.3423 33.5535 34.3423C30.6995 34.3423 28.1099 33.6766 25.7847 32.3361C23.4505 30.9956 21.6177 29.1808 20.2864 26.8828C18.946 24.5848 18.2804 22.0679 18.2804 19.3322C18.2804 16.5964 18.946 14.1798 20.2864 11.9092ZM69.9719 5.89054H79.4914L30.0795 67.0162H20.56L69.9719 5.89054ZM28.4108 24.5757C29.8059 25.9709 31.5293 26.6731 33.5626 26.6731C35.596 26.6731 37.4014 25.9891 38.8057 24.6213C40.2008 23.2534 40.8937 21.4934 40.8937 19.3413C40.8937 17.1892 40.2008 15.5295 38.8057 14.189C37.4106 12.8485 35.6599 12.1828 33.5626 12.1828C31.4654 12.1828 29.733 12.8485 28.3652 14.189C26.9975 15.5295 26.3136 17.2439 26.3136 19.3413C26.3136 21.4387 27.0066 23.1804 28.4017 24.5757H28.4108ZM52.9025 45.9692C54.2703 43.6985 56.1213 41.8929 58.4464 40.5524C60.7716 39.2119 63.3612 38.5462 66.2152 38.5462C69.0692 38.5462 71.5676 39.2119 73.9019 40.5524C76.2271 41.8929 78.0599 43.6985 79.4003 45.9692C80.7406 48.2399 81.4063 50.7112 81.4063 53.3922C81.4063 56.0732 80.7406 58.6266 79.4003 60.9064C78.0599 63.177 76.2271 64.9826 73.9019 66.314C71.5676 67.6545 69.0145 68.3202 66.2152 68.3202C63.4159 68.3202 60.7716 67.6545 58.4464 66.314C56.1122 64.9735 54.2703 63.1679 52.9025 60.9064C51.5348 58.6357 50.8509 56.137 50.8509 53.3922C50.8509 50.6473 51.5348 48.2399 52.9025 45.9692ZM60.9357 58.6266C62.3582 60.0218 64.118 60.724 66.2152 60.724C68.3124 60.724 69.9719 60.04 71.3671 58.6722C72.7621 57.3043 73.4551 55.5443 73.4551 53.3922C73.4551 51.2401 72.7621 49.5804 71.3671 48.2399C69.9719 46.8993 68.2486 46.2337 66.2152 46.2337C64.1818 46.2337 62.3582 46.8993 60.9357 48.2399C59.5042 49.5804 58.8021 51.2948 58.8021 53.3922C58.8021 55.4896 59.5133 57.2313 60.9357 58.6266Z" fill="#6CF479"/>
</g>
</g>
</g>
</g>
<defs>
<clipPath id="clip0_4483_4">
<rect width="100" height="100" fill="white"/>
</clipPath>
</defs>
</svg>
