<svg width="100" height="100" viewBox="0 0 100 100" fill="none" xmlns="http://www.w3.org/2000/svg">
<rect width="100" height="100" fill="#1E1E1E"/>
<g id="Default">
<path d="M-105 -19627C-105 -19628.1 -104.105 -19629 -103 -19629H1103C1104.1 -19629 1105 -19628.1 1105 -19627V13579C1105 13580.1 1104.1 13581 1103 13581H-103C-104.105 13581 -105 13580.1 -105 13579V-19627Z" fill="white"/>
<path d="M-103 -19629V-19628H1103V-19629V-19630H-103V-19629ZM1105 -19627H1104V13579H1105H1106V-19627H1105ZM1103 13581V13580H-103V13581V13582H1103V13581ZM-105 13579H-104V-19627H-105H-106V13579H-105ZM-103 13581V13580C-103.552 13580 -104 13579.6 -104 13579H-105H-106C-106 13580.7 -104.657 13582 -103 13582V13581ZM1105 13579H1104C1104 13579.6 1103.55 13580 1103 13580V13581V13582C1104.66 13582 1106 13580.7 1106 13579H1105ZM1103 -19629V-19628C1103.55 -19628 1104 -19627.6 1104 -19627H1105H1106C1106 -19628.7 1104.66 -19630 1103 -19630V-19629ZM-103 -19629V-19630C-104.656 -19630 -106 -19628.7 -106 -19627H-105H-104C-104 -19627.6 -103.553 -19628 -103 -19628V-19629Z" fill="white" fill-opacity="0.1"/>
<g id="Pots">
<rect x="-24.5" y="-24.5" width="1049" height="149" rx="4.5" stroke="#9747FF" stroke-dasharray="10 5"/>
<g id="Brand=Lloyds - V2" clip-path="url(#clip0_4483_4)">
<rect width="100" height="100" fill="#C7FFC6"/>
<g id="Path">
<path d="M96.8747 43.6431C92.4218 44.979 80.973 46.8492 70.8304 43.6431C69.2967 45.1175 67.6739 47.2549 67.6739 49.7485L74.0365 62.2857C74.0365 62.2857 74.1354 62.2659 74.175 62.256L77.2426 61.415C77.2426 61.415 82.21 59.9109 86.8508 64.2945C89.5819 66.6495 91.9172 70.3701 93.164 74.8823C94.0644 78.1577 94.2623 81.3736 93.8665 84.1938C98.5371 82.848 100.031 80.6414 100.031 79.256V49.7485C100.031 47.2648 98.4084 45.1175 96.8747 43.6431Z" fill="#11B67A"/>
<path d="M70.5534 35.6174V41.5545C70.5534 42.9893 76.5103 44.157 83.8526 44.157C91.1948 44.157 97.1518 42.9893 97.1518 41.5545V35.6174H70.5534Z" fill="black"/>
<path d="M83.8526 38.2206C91.1948 38.2206 97.1518 37.0522 97.1518 35.6174C97.1518 34.1826 91.1948 33.0157 83.8526 33.0157C76.5103 33.0157 70.5534 34.1826 70.5534 35.6174C70.5534 37.0522 76.5103 38.2206 83.8526 38.2206Z" fill="#11B67A"/>
<path d="M78.9145 36.5777L87.2957 34.1731L88.9383 34.3314L80.5867 36.7756L78.9244 36.5777H78.9145Z" fill="black"/>
<path d="M97.0134 46.9476C97.0134 46.9476 98.2206 51.0739 87.3557 53.5873C87.3557 53.5873 101.971 53.1816 97.0134 46.9476Z" fill="#6CF479"/>
<path d="M13.8651 43.9986V48.6593C13.8651 49.7873 18.5356 50.6977 24.3046 50.6977C30.0735 50.6977 34.744 49.7774 34.744 48.6593V43.9986H13.8651Z" fill="black"/>
<path d="M24.3046 46.0468C30.0735 46.0468 34.744 45.1364 34.744 44.0084C34.744 42.8803 30.0735 41.97 24.3046 41.97C18.5356 41.97 13.8651 42.8803 13.8651 44.0084C13.8651 45.1364 18.5356 46.0468 24.3046 46.0468Z" fill="#11B67A"/>
<path d="M20.4362 44.7612L27.0067 42.8811L28.2931 42.9999L21.7424 44.9195L20.4362 44.7612Z" fill="black"/>
<path d="M11.6093 55.0916C11.6093 53.1422 12.8858 51.46 14.093 50.3023C22.0587 52.8157 31.0435 51.3512 34.5365 50.3023C35.7438 51.46 37.0202 53.1422 37.0202 55.0916V78.2464C37.0202 79.8989 34.3683 83.0357 24.3148 83.0357C14.2612 83.0357 11.6093 79.8989 11.6093 78.2464V55.0916Z" fill="#11B67A"/>
<path d="M34.6443 52.8946C34.6443 52.8946 35.5843 56.1402 27.0645 58.0995C27.0645 58.0995 38.5331 57.7829 34.6443 52.8946Z" fill="#6CF479"/>
<path d="M14.1228 3.96289C14.1228 3.96289 16.4581 11.7108 25.9377 13.8482C25.9377 13.8482 18.7537 15.0851 18.6152 23.7039C18.6152 23.7039 16.082 16.233 7.00812 13.8383C7.00812 13.8383 14.5978 12.9379 14.1228 3.96289Z" fill="#006A4D"/>
<path d="M5.19656 59.4944C5.19656 59.4944 6.89853 65.1248 13.7955 66.6882C13.7955 66.6882 8.57083 67.5887 8.47187 73.8622C8.47187 73.8622 6.63136 68.4199 0.03125 66.6783C0.03125 66.6783 5.55278 66.0252 5.21635 59.4944H5.19656Z" fill="#006A4D"/>
<path d="M34.3598 20.5668V29.5022C34.3598 31.6693 43.3149 33.4207 54.3679 33.4207C65.4209 33.4207 74.376 31.6594 74.376 29.5022V20.5668H34.3598Z" fill="black"/>
<path d="M54.3584 24.4849C65.4114 24.4849 74.3665 22.7335 74.3665 20.5763C74.3665 18.4191 65.4114 16.6578 54.3584 16.6578C43.3055 16.6578 34.3503 18.4092 34.3503 20.5763C34.3503 22.7433 43.3055 24.4849 54.3584 24.4849Z" fill="#11B67A"/>
<path d="M46.9359 22.0215L59.5325 18.4097L61.9964 18.6472L49.4295 22.3184L46.926 22.0215H46.9359Z" fill="black"/>
<path d="M36.8725 35.4693C36.8725 35.4693 33.4784 38.1806 33.4784 44.0583V59.1881C33.4784 59.1881 34.2701 46.5519 45.0064 46.9972C45.0064 46.9972 32.6967 45.414 36.8725 35.4693Z" fill="#F3F3F5"/>
<path d="M74.1671 37.6165C74.1671 37.6165 75.9779 43.8307 59.631 47.6007C59.631 47.6007 81.6182 46.9971 74.1671 37.6165Z" fill="#F3F3F5"/>
<path d="M66.3009 73.912C66.6076 68.143 69.1705 63.5616 73.2869 62.4335C73.5838 62.3543 73.8806 62.295 74.1775 62.2554L77.245 61.4143C77.245 61.4143 77.7991 61.2461 78.6996 61.1867V41.8217C78.6996 38.0814 76.2555 34.8555 73.9499 32.6489C67.2508 34.6576 50.0331 37.4777 34.7648 32.6489C32.4592 34.8654 30.0151 38.0814 30.0151 41.8217V86.2117C30.0151 89.3881 35.1013 95.3945 54.3574 95.3945C60.5913 95.3945 65.3312 94.7612 68.9033 93.8014C67.8149 91.7036 67.3399 90.0115 67.3399 90.0115C65.6874 83.3025 65.7567 77.8503 66.291 73.9021L66.3009 73.912Z" fill="#6CF479"/>
<path d="M66.2686 74.6742C66.3874 68.5491 68.9799 63.6015 73.2843 62.4338C73.5812 62.3547 73.8782 62.2956 74.175 62.256L74.4025 62.1963C74.4915 61.3453 74.3134 60.6032 73.8187 60.0788L72.9677 59.1981C71.899 58.0799 69.7319 58.357 67.7232 59.7027C67.7034 59.6137 67.6737 59.5345 67.6441 59.4554L67.1691 58.3273C66.4368 56.5857 63.4683 56.1701 60.5195 57.3971C59.906 57.6544 59.3519 57.9612 58.8472 58.3075C58.6394 58.1789 58.4316 58.0601 58.2139 57.9513C56.7692 57.2091 55.2948 56.8925 54.0678 56.9815L53.7512 56.2691C52.9793 54.5473 50.0009 54.1911 47.0818 55.4874C44.9543 56.4373 43.4502 58.0008 43.1039 59.4455C42.6487 59.3366 42.1837 59.2476 41.6889 59.208C38.5125 58.921 35.8012 60.2173 35.633 62.0974L35.5835 62.6218C33.4957 63.9775 32.3874 65.9268 33.0207 67.3715L33.5154 68.4897C33.7034 68.9251 34.0399 69.2714 34.4753 69.5287L34.4159 70.1521C34.3367 71.013 34.8117 71.8442 35.6528 72.5269C34.0003 74.0904 33.2879 76.0002 34.0597 77.2668L34.7029 78.3057C34.7523 78.3849 34.8315 78.4443 34.8909 78.5234C34.8711 78.5333 34.8513 78.5432 34.8414 78.563L33.9904 79.4437C32.8129 80.641 33.3076 83.0752 35.0393 85.1631C34.6534 85.6084 34.4159 86.0834 34.4159 86.5683C34.4159 89.7545 43.3711 92.3273 54.424 92.3273C59.5201 92.3273 64.1609 91.7731 67.6935 90.8727C67.5055 90.3383 67.4066 90.0118 67.4066 90.0118C65.8629 83.758 65.8233 78.5729 66.2587 74.7039L66.2686 74.6742Z" fill="#11B67A"/>
<path d="M72.9489 80.3935C70.5443 71.6758 73.0973 63.3539 78.6683 61.8103C84.2393 60.2765 90.7009 66.0949 93.1153 74.8225C95.5199 83.5402 92.9669 91.8621 87.3959 93.4057C81.8249 94.9395 75.3633 89.1211 72.9489 80.3935Z" fill="#6CF479"/>
<path d="M72.9507 65.2839L68.4384 66.3031C69.6358 64.3637 71.2784 62.9783 73.2871 62.4242L77.4827 61.3555C75.7312 62.068 73.9996 63.4434 72.9408 65.2839H72.9507Z" fill="black"/>
<path d="M67.4772 68.1928L72.0587 67.1637C71.9004 67.5991 71.7519 68.0443 71.6134 68.4995L67.0022 69.5385C67.1408 69.0734 67.2991 68.6282 67.4772 68.1928Z" fill="black"/>
<path d="M70.9805 72.2597C70.7826 74.8918 71.0497 77.7812 71.8611 80.7201C74.4042 89.9227 81.2616 96.0577 87.1888 94.4349L82.5084 95.7707C76.5812 97.4133 69.704 91.2684 67.1609 82.056C66.3198 79.0082 66.0526 76.0199 66.3 73.3086L70.9805 72.2597Z" fill="black"/>
<path d="M91.0585 75.4463C88.9311 67.7281 83.3106 62.4935 78.3432 63.4533C78.5609 63.3643 78.7885 63.2752 79.0161 63.2159C84.1022 61.8107 90.0096 67.1344 92.2163 75.1C94.413 83.0657 92.0777 90.6751 86.9916 92.0703C86.8333 92.1198 86.6651 92.1495 86.5067 92.1792C91.1179 90.309 93.1563 83.0459 91.0486 75.4365H91.0585V75.4463Z" fill="#024731"/>
<path d="M75.3926 81.937C74.9968 80.6803 74.7296 79.4236 74.601 78.1966C75.2937 80.136 76.3327 80.8584 76.9066 81.0266C77.5696 81.2245 78.2622 80.9475 78.2622 80.9475C80.3897 87.3794 83.764 89.1605 86.3268 89.0813C87.821 89.0319 88.8897 88.1413 89.523 87.4189C88.7907 89.1308 87.6429 90.3875 86.1388 90.9119C82.2302 92.2775 77.431 88.2501 75.4124 81.9271L75.3926 81.937Z" fill="white"/>
<path d="M87.2885 61.0685C87.2885 61.0685 88.9904 66.6989 95.8874 68.2623C95.8874 68.2623 90.6627 69.1628 90.5638 75.4363C90.5638 75.4363 88.7233 69.994 82.1232 68.2524C82.1232 68.2524 87.6447 67.5993 87.3083 61.0685H87.2885Z" fill="#006A4D"/>
</g>
</g>
</g>
</g>
<defs>
<clipPath id="clip0_4483_4">
<rect width="100" height="100" fill="white"/>
</clipPath>
</defs>
</svg>
