<svg width="100" height="100" viewBox="0 0 100 100" fill="none" xmlns="http://www.w3.org/2000/svg">
<rect width="100" height="100" fill="#1E1E1E"/>
<g id="Default">
<path d="M-105 -19839C-105 -19840.1 -104.105 -19841 -103 -19841H1103C1104.1 -19841 1105 -19840.1 1105 -19839V13367C1105 13368.1 1104.1 13369 1103 13369H-103C-104.105 13369 -105 13368.1 -105 13367V-19839Z" fill="white"/>
<path d="M-103 -19841V-19840H1103V-19841V-19842H-103V-19841ZM1105 -19839H1104V13367H1105H1106V-19839H1105ZM1103 13369V13368H-103V13369V13370H1103V13369ZM-105 13367H-104V-19839H-105H-106V13367H-105ZM-103 13369V13368C-103.552 13368 -104 13367.6 -104 13367H-105H-106C-106 13368.7 -104.657 13370 -103 13370V13369ZM1105 13367H1104C1104 13367.6 1103.55 13368 1103 13368V13369V13370C1104.66 13370 1106 13368.7 1106 13367H1105ZM1103 -19841V-19840C1103.55 -19840 1104 -19839.6 1104 -19839H1105H1106C1106 -19840.7 1104.66 -19842 1103 -19842V-19841ZM-103 -19841V-19842C-104.656 -19842 -106 -19840.7 -106 -19839H-105H-104C-104 -19839.6 -103.553 -19840 -103 -19840V-19841Z" fill="white" fill-opacity="0.1"/>
<g id="Pound Symbol">
<rect x="-24.5" y="-24.5" width="1049" height="149" rx="4.5" stroke="#9747FF" stroke-dasharray="10 5"/>
<g id="Brand=Lloyds - V2" clip-path="url(#clip0_4483_4)">
<rect width="100" height="100" fill="#C7FFC6"/>
<g id="Path">
<path d="M30.3757 78.8588C32.1978 74.4909 33.0986 69.6821 33.0986 64.4222C33.0986 61.9204 32.6584 58.8034 31.7679 55.0814H23.415V49.3806H30.1915C29.1371 45.9867 28.3489 43.0132 27.8269 40.4704C27.3048 37.9173 27.0386 35.313 27.0386 32.6471C27.0386 27.6333 28.308 23.1731 30.8569 19.246C33.3955 15.3293 36.968 12.2738 41.5744 10.0898C46.1808 7.90587 51.4628 6.81901 57.4409 6.81901C61.8016 6.81901 65.8962 7.40345 69.7348 8.57233C73.5735 9.75146 76.8184 11.3817 79.4901 13.4837V31.5603C77.4735 28.8124 74.7199 26.5874 71.2498 24.8854C67.7796 23.1833 64.2276 22.3425 60.5937 22.3425C56.0692 22.3425 52.4762 23.5114 49.8147 25.8594C47.1532 28.2074 45.8225 31.3142 45.8225 35.2002C45.8225 37.6302 46.1091 39.8142 46.6721 41.7521C47.2351 43.69 48.1257 46.243 49.3336 49.3908H72.5805V55.0917H51.0226C51.432 56.9475 51.6266 58.8136 51.6266 60.6695C51.6266 63.9915 51.1864 66.9342 50.2958 69.5283C49.4053 72.1224 47.9926 74.5832 46.0579 76.9312C47.5832 76.5314 49.2415 76.3263 51.0226 76.3263C52.8037 76.3263 54.5337 76.4903 55.9873 76.8082C57.4409 77.1363 59.181 77.6182 61.1976 78.2642C63.2961 78.9101 65.0363 79.4023 66.408 79.7201C67.7797 80.038 69.3561 80.202 71.1372 80.202C74.1979 80.202 76.6853 79.5561 78.5893 78.2642C80.483 76.9723 82.08 75.0754 83.3698 72.5633C83.3698 80.4891 81.8957 86.272 78.9476 89.9119C75.9995 93.5519 71.3419 95.3667 64.9646 95.3667C62.385 95.3667 60.0818 95.2232 58.0653 94.9463C56.0487 94.6592 53.336 94.1978 49.9478 93.5519C47.1225 92.9879 44.7989 92.5676 42.9768 92.2805C41.1649 92.0036 39.2098 91.8601 37.1011 91.8601C33.7128 91.8601 30.7442 92.1472 28.2056 92.7111C25.6567 93.275 22.9748 94.2081 20.1495 95.5C25.1551 88.7841 28.5639 83.2473 30.386 78.8794L30.3757 78.8588Z" fill="#11B67A"/>
<path d="M27.7143 21.931L21.6031 20.4647C21.1118 21.6234 20.7126 22.823 20.4055 24.0637L26.4552 25.5401C26.7828 24.2995 27.2025 23.0998 27.7143 21.931Z" fill="black"/>
<path d="M67.749 47.8711L65.1899 47.0713H50.0707C50.173 47.3379 50.2652 47.5942 50.3676 47.8711H67.749Z" fill="black"/>
<path d="M21.9 49.3871V47.8696H28.1545C27.3765 45.2345 26.7726 42.8558 26.3529 40.7743C25.8103 38.1495 25.534 35.4118 25.534 32.6434C25.534 32.3051 25.5544 31.977 25.5646 31.6489L19.6583 30.2134C19.6583 30.2134 19.6583 30.2852 19.6583 30.3262C19.6583 32.9921 19.9141 35.6067 20.4464 38.1495C20.9685 40.6923 21.7567 43.6658 22.811 47.0596H16.0345V52.7605L21.9102 54.6061V49.3769L21.9 49.3871Z" fill="black"/>
<path d="M71.127 78.6821C73.8703 78.6821 76.0916 78.1182 77.7192 77.0006C79.3366 75.8932 80.739 74.2322 81.8752 72.0893L75.9586 70.2334C74.6688 72.7455 73.0719 74.6423 71.1781 75.9342C69.5813 77.0211 67.5545 77.6466 65.1284 77.8209C65.7119 77.9747 66.2647 78.1182 66.7458 78.231C68.0049 78.5283 69.4789 78.6719 71.127 78.6719V78.6821Z" fill="black"/>
<path d="M18.9313 94.5758C23.8345 87.9931 27.2125 82.5178 28.9834 78.2832C30.7134 74.1306 31.5937 69.4756 31.5937 64.431C31.5937 62.2983 31.2457 59.6734 30.5701 56.6077H25.1653C25.5236 58.6789 25.718 60.5347 25.718 62.1137C25.718 67.3737 24.8172 72.1825 22.9951 76.5504C21.173 80.9183 17.7643 86.4551 12.7587 93.171L18.6242 95.0064L18.9415 94.5758H18.9313Z" fill="black"/>
<path d="M76.8079 30.7174C75.1291 28.9539 73.0511 27.4466 70.5842 26.247C69.7652 25.8471 68.936 25.4985 68.1069 25.1909C69.6526 26.3803 70.9833 27.7235 72.0889 29.2307L76.7976 30.7072L76.8079 30.7174Z" fill="black"/>
<path d="M28.9015 19.5826C29.1267 19.193 29.3519 18.8034 29.5976 18.424C32.2796 14.2817 36.0978 11.0211 40.9294 8.72437C45.7098 6.45838 51.2682 5.29976 57.4407 5.29976C57.84 5.29976 58.229 5.33052 58.6179 5.34077C55.8848 4.79735 53.0289 4.5 50.0501 4.5C44.072 4.5 38.79 5.58685 34.1836 7.77081C29.5772 9.95477 26.0149 13.0103 23.466 16.927C23.2101 17.3167 22.9849 17.7165 22.7597 18.1164L28.9015 19.5826Z" fill="black"/>
<path d="M49.497 74.6952C49.4663 74.7465 49.4356 74.7977 49.4049 74.849C49.6096 74.8388 49.8246 74.8387 50.0396 74.8285C49.8553 74.7772 49.6813 74.7362 49.5072 74.6952H49.497Z" fill="black"/>
<path d="M85.8573 48.3009C85.8573 48.3009 88.5597 57.2828 99.5332 59.7641C99.5332 59.7641 91.2212 61.1996 91.0575 71.1966C91.0575 71.1966 88.1298 62.5325 77.617 59.7539C77.617 59.7539 86.3999 58.708 85.8573 48.3009Z" fill="#006A4D"/>
<path d="M5.26565 14.1388C5.26565 14.1388 7.14913 20.383 14.7753 22.1056C14.7753 22.1056 8.99168 23.1002 8.87907 30.0519C8.87907 30.0519 6.84202 24.0332 -0.466797 22.0953C-0.466797 22.0953 5.64439 21.3674 5.26565 14.1285V14.1388Z" fill="#006A4D"/>
</g>
</g>
</g>
</g>
<defs>
<clipPath id="clip0_4483_4">
<rect width="100" height="100" fill="white"/>
</clipPath>
</defs>
</svg>
