<svg width="100" height="100" viewBox="0 0 100 100" fill="none" xmlns="http://www.w3.org/2000/svg">
<rect width="100" height="100" fill="#1E1E1E"/>
<g id="Default">
<path d="M-105 -20051C-105 -20052.1 -104.105 -20053 -103 -20053H1103C1104.1 -20053 1105 -20052.1 1105 -20051V13155C1105 13156.1 1104.1 13157 1103 13157H-103C-104.105 13157 -105 13156.1 -105 13155V-20051Z" fill="white"/>
<path d="M-103 -20053V-20052H1103V-20053V-20054H-103V-20053ZM1105 -20051H1104V13155H1105H1106V-20051H1105ZM1103 13157V13156H-103V13157V13158H1103V13157ZM-105 13155H-104V-20051H-105H-106V13155H-105ZM-103 13157V13156C-103.552 13156 -104 13155.6 -104 13155H-105H-106C-106 13156.7 -104.657 13158 -103 13158V13157ZM1105 13155H1104C1104 13155.6 1103.55 13156 1103 13156V13157V13158C1104.66 13158 1106 13156.7 1106 13155H1105ZM1103 -20053V-20052C1103.55 -20052 1104 -20051.6 1104 -20051H1105H1106C1106 -20052.7 1104.66 -20054 1103 -20054V-20053ZM-103 -20053V-20054C-104.656 -20054 -106 -20052.7 -106 -20051H-105H-104C-104 -20051.6 -103.553 -20052 -103 -20052V-20053Z" fill="white" fill-opacity="0.1"/>
<g id="Pound Symbol Alt 01">
<rect x="-24.5" y="-24.5" width="1049" height="149" rx="4.5" stroke="#9747FF" stroke-dasharray="10 5"/>
<g id="Brand=Lloyds - V2" clip-path="url(#clip0_4483_4)">
<rect width="100" height="100" fill="#C7FFC6"/>
<g id="Path">
<path d="M93.087 82.9579L77.0661 46.6396C76.7014 45.8099 75.8078 45.2354 74.9507 45.2354C74.8322 45.2354 74.7228 45.2445 74.6042 45.2719L5.18673 59.9341C4.22931 60.1256 3.80076 61.0466 4.2202 61.9949L20.4142 98.5958C20.779 99.4255 21.6817 100 22.5388 100C22.6574 100 22.785 99.9909 22.9035 99.9635L92.1478 85.0095C93.087 84.818 93.5064 83.8971 93.0961 82.9579H93.087Z" fill="black"/>
<path d="M93.087 81.8003L77.0661 45.482C76.7014 44.6523 75.8078 44.0778 74.9507 44.0778C74.8322 44.0778 74.7228 44.0869 74.6042 44.1143L5.18673 58.7765C4.22931 58.968 3.80076 59.889 4.2202 60.8373L20.4142 97.4382C20.779 98.268 21.6817 98.8424 22.5388 98.8424C22.6574 98.8424 22.785 98.8333 22.9035 98.8059L92.1478 83.8519C93.087 83.6604 93.5064 82.7395 93.0961 81.8003H93.087Z" fill="#11B67A"/>
<path d="M17.6603 91.2273L90.3239 75.5438L86.9227 67.8388L14.2591 83.5223L17.6603 91.2273Z" fill="black"/>
<path d="M87.3512 19.5403C87.3512 19.5403 89.7584 27.5279 99.5332 29.7345C99.5332 29.7345 92.1292 31.0111 91.9833 39.9015C91.9833 39.9015 89.3754 32.1965 80.011 29.7254C80.011 29.7254 87.8344 28.7954 87.3512 19.5403Z" fill="white"/>
<path d="M4.8674 33.6665C4.8674 33.6665 6.61812 39.4749 13.7304 41.0888C13.7304 41.0888 8.34148 42.0189 8.24118 48.4838C8.24118 48.4838 6.34456 42.876 -0.466797 41.0797C-0.466797 41.0797 5.23214 40.405 4.87653 33.6665H4.8674Z" fill="white"/>
<path d="M43.5382 73.2386C43.5382 73.2386 45.2889 79.047 52.4012 80.6609C52.4012 80.6609 47.0122 81.591 46.9119 88.0559C46.9119 88.0559 45.0153 82.4481 38.204 80.6518C38.204 80.6518 43.9029 79.977 43.5473 73.2386H43.5382Z" fill="white"/>
<path d="M72.1147 51.792L71.5129 46.3758C70.6011 48.1447 69.4704 49.4851 68.13 50.3969C66.7896 51.3088 65.0298 51.7647 62.8688 51.7647C61.6105 51.7647 60.498 51.6461 59.5315 51.4273C58.565 51.1993 57.334 50.8528 55.8568 50.3969C54.4344 49.941 53.2034 49.5945 52.1821 49.3666C51.1518 49.1386 49.9847 49.0292 48.6716 49.0292C47.3586 49.0292 46.2462 49.1751 45.1611 49.4577C46.5288 47.8073 47.5227 46.0657 48.1519 44.2421C48.781 42.4184 49.0911 40.3394 49.0911 37.996C49.0911 37.7407 49.082 37.4854 49.0728 37.2301L64.2912 35.0143L63.8991 30.0357H47.468C46.6109 27.8109 45.9909 26.0146 45.5896 24.6468C45.1884 23.2791 44.9878 21.7381 44.9878 20.0238C44.9878 17.2883 45.927 15.0908 47.8145 13.4404C49.6929 11.79 52.2369 10.9602 55.4283 10.9602C57.9905 10.9602 60.498 11.562 62.96 12.7565C65.4128 13.951 67.355 15.5194 68.7774 17.4616L69.3063 9.0089L68.7774 4.70505C66.8991 3.21877 64.5921 2.06986 61.884 1.24009C59.1759 0.419443 56.2854 0 53.2034 0C48.9817 0 45.2523 0.765938 41.997 2.30693C38.7418 3.84793 36.2252 5.99985 34.4289 8.7627C32.6325 11.5347 31.7298 14.6805 31.7298 18.2184C31.7298 20.0968 31.9122 21.9387 32.2861 23.735C32.6508 25.5313 33.207 27.6285 33.9547 30.0175H29.1676L28.6296 34.9961L35.4866 35.9353C35.8422 37.7407 36.0154 39.2999 36.0154 40.6221C36.0154 44.3333 35.3772 47.7253 34.0915 50.7981C33.827 51.4455 33.4897 52.1294 33.1249 52.8498L5.19564 58.7493C4.23822 58.9408 3.80966 59.8617 4.2291 60.8101L7.57552 68.3691H26.268L56.331 68.1959L50.4588 63.8282L48.5166 61.2568C50.6138 61.6489 52.3372 61.9407 53.6411 62.1231C55.0635 62.3237 56.6866 62.424 58.5102 62.424C63.0147 62.424 69.9172 57.8101 69.9172 57.8101L72.1239 51.7647L72.1147 51.792Z" fill="black"/>
<path d="M33.6812 56.3586C35.0034 53.1945 35.6599 49.7113 35.6599 45.909C35.6599 44.0945 35.3408 41.8331 34.6934 39.1432H28.6388V35.0126H33.5627C32.7968 32.5507 32.2223 30.3988 31.8485 28.5569C31.4655 26.7058 31.274 24.8183 31.274 22.8853C31.274 19.2562 32.195 16.0192 34.046 13.1743C35.8879 10.3293 38.4774 8.12271 41.8147 6.54524C45.152 4.96777 48.9908 4.17448 53.322 4.17448C56.486 4.17448 59.4586 4.60304 62.2397 5.45104C65.0208 6.29905 67.3824 7.48443 69.3155 9.00719V22.1011C67.8474 20.1133 65.8597 18.4994 63.343 17.2684C60.8264 16.0374 58.2459 15.4265 55.6107 15.4265C52.3281 15.4265 49.7203 16.2745 47.7872 17.9705C45.8541 19.6665 44.8876 21.9278 44.8876 24.7363C44.8876 26.4961 45.0973 28.0736 45.4985 29.4778C45.9088 30.882 46.5562 32.7239 47.4316 35.0126H64.3004V39.1432H48.6626C48.9544 40.4927 49.1003 41.8331 49.1003 43.1826C49.1003 45.5899 48.7811 47.7236 48.1337 49.5928C47.4863 51.4712 46.4651 53.2584 45.0608 54.9544C46.1733 54.6626 47.3678 54.5167 48.6626 54.5167C49.9574 54.5167 51.2066 54.6352 52.2643 54.8632C53.322 55.1003 54.5803 55.4468 56.0393 55.9209C57.562 56.386 58.8203 56.7416 59.8142 56.9787C60.8081 57.2157 61.957 57.3251 63.2427 57.3251C65.4676 57.3251 67.2639 56.8601 68.6499 55.9209C70.0267 54.9817 71.1847 53.6049 72.1239 51.7903C72.1239 57.5349 71.048 61.7202 68.9143 64.3554C66.7715 66.9906 63.3977 68.3127 58.7656 68.3127C56.8872 68.3127 55.2277 68.2124 53.7597 68.0027C52.2916 67.793 50.3312 67.4647 47.8693 66.9906C45.8177 66.5802 44.1308 66.2702 42.8177 66.0696C41.5047 65.869 40.0823 65.7596 38.5595 65.7596C36.0976 65.7596 33.9548 65.9693 32.1038 66.3705C30.2528 66.7808 28.3106 67.4556 26.2589 68.3948C29.888 63.5347 32.3682 59.5227 33.6812 56.3586Z" fill="#6CF479"/>
</g>
</g>
</g>
</g>
<defs>
<clipPath id="clip0_4483_4">
<rect width="100" height="100" fill="white"/>
</clipPath>
</defs>
</svg>
