<svg width="100" height="100" viewBox="0 0 100 100" fill="none" xmlns="http://www.w3.org/2000/svg">
<rect width="100" height="100" fill="#1E1E1E"/>
<g id="Default">
<path d="M-105 -22171C-105 -22172.1 -104.105 -22173 -103 -22173H1103C1104.1 -22173 1105 -22172.1 1105 -22171V11035C1105 11036.1 1104.1 11037 1103 11037H-103C-104.105 11037 -105 11036.1 -105 11035V-22171Z" fill="white"/>
<path d="M-103 -22173V-22172H1103V-22173V-22174H-103V-22173ZM1105 -22171H1104V11035H1105H1106V-22171H1105ZM1103 11037V11036H-103V11037V11038H1103V11037ZM-105 11035H-104V-22171H-105H-106V11035H-105ZM-103 11037V11036C-103.552 11036 -104 11035.6 -104 11035H-105H-106C-106 11036.7 -104.657 11038 -103 11038V11037ZM1105 11035H1104C1104 11035.6 1103.55 11036 1103 11036V11037V11038C1104.66 11038 1106 11036.7 1106 11035H1105ZM1103 -22173V-22172C1103.55 -22172 1104 -22171.6 1104 -22171H1105H1106C1106 -22172.7 1104.66 -22174 1103 -22174V-22173ZM-103 -22173V-22174C-104.656 -22174 -106 -22172.7 -106 -22171H-105H-104C-104 -22171.6 -103.553 -22172 -103 -22172V-22173Z" fill="white" fill-opacity="0.1"/>
<g id="_Rocket">
<rect x="-24.5" y="-24.5" width="1049" height="149" rx="4.5" stroke="#9747FF" stroke-dasharray="10 5"/>
<g id="Brand=Lloyds - V2" clip-path="url(#clip0_4483_4)">
<rect width="100" height="100" fill="#C7FFC6"/>
<g id="Path">
<path d="M89.9756 29.8674C95.3456 17.9421 94.7768 2.99 94.7768 2.99C94.7768 2.99 79.7892 2.42249 67.8355 7.77981C60.3645 11.1244 28.6144 50.82 28.6144 50.82C28.6144 50.82 25.9673 58.8408 32.3841 65.2348C39.491 72.3249 46.8331 68.9955 46.8331 68.9955C46.8331 68.9955 86.6155 37.3132 89.9756 29.8598V29.8674Z" fill="#6CF479"/>
<path d="M66.4406 8.66513C63.2702 11.6011 66.3117 21.0899 71.477 26.2429C76.6422 31.3959 85.5999 34.9069 89.0965 31.2673C89.4833 30.7603 89.7859 30.2836 89.9756 29.8674C95.3456 17.9421 94.7768 2.99 94.7768 2.99C94.7768 2.99 79.7892 2.42249 67.8355 7.77981C67.4183 7.96898 66.9488 8.26409 66.4331 8.65756L66.4406 8.66513Z" fill="#11B67A"/>
<path d="M66.5697 10.4509C66.5697 10.4509 60.6536 15.445 54.9953 22.1492C45.5067 33.386 29.5634 52.3712 29.5634 52.3712L35.3127 60.9368C35.3127 60.9368 30.4281 55.4433 45.666 37.2754C49.6101 32.5763 56.4516 24.3134 61.3286 21.0067C64.8859 18.6004 67.844 19.7884 67.844 19.7884L66.5621 10.4585L66.5697 10.4509Z" fill="white"/>
<path d="M66.4406 8.66513C63.2702 11.6011 66.3117 21.0899 71.477 26.2429C76.6422 31.3959 85.5999 34.9069 89.0965 31.2673C89.4833 30.7603 89.7859 30.2836 89.9756 29.8674C95.3456 17.9421 94.7768 2.99 94.7768 2.99C94.7768 2.99 79.7892 2.42249 67.8355 7.77981C67.4183 7.96898 66.9488 8.26409 66.4331 8.65756L66.4406 8.66513Z" fill="#11B67A"/>
<path d="M94.7801 3.107C94.8194 4.52542 95.0684 18.5576 89.9756 29.8674C89.7859 30.2836 89.4833 30.7603 89.0965 31.2673C85.5999 34.9069 76.6422 31.3959 71.477 26.2429C70.8968 25.6641 70.3431 25.0303 69.8223 24.3575C69.9214 24.372 70.0553 24.414 70.2258 24.4873C72.9867 25.6829 81.8153 29.5721 87.3902 23.5793C91.8803 18.7517 93.4808 9.2782 94.3455 5.2677C94.5295 4.4139 94.6708 3.69752 94.7801 3.107Z" fill="black"/>
<path d="M91.432 4.29905C91.432 4.29905 83.87 4.6093 78.2269 6.03186C74.1007 7.07608 70.9075 8.30191 69.2768 9.29317C68.2073 9.94391 67.4413 11.0033 67.1834 12.214C66.971 13.2204 66.9634 13.9316 67.1303 15.4072C67.3957 17.7529 68.3894 19.6673 68.3894 19.6673C68.3894 19.6673 67.0013 11.1319 79.8045 6.73558C84.0672 5.27518 91.4244 4.30662 91.4244 4.30662L91.432 4.29905Z" fill="white"/>
<path d="M90.356 28.9889C90.232 29.2832 90.1065 29.5765 89.9756 29.8674V29.8598C86.6155 37.3132 46.8331 68.9955 46.8331 68.9955C46.8188 69.002 45.3068 69.6824 42.9985 69.7674L32.3526 57.9631C32.3709 57.9812 38.6728 64.254 45.3453 61.1864C50.8063 58.6818 68.8356 41.3689 80.7438 29.3754L90.356 28.9889Z" fill="black"/>
<path d="M31.855 46.8139C31.4557 50.0283 31.5984 55.9595 36.6632 61.0124C41.9357 66.2724 47.3162 66.5402 50.4713 66.0665C48.2223 67.8882 46.8491 68.9828 46.8331 68.9955C46.8331 68.9955 39.491 72.3249 32.3841 65.2348C25.9673 58.8408 28.6144 50.82 28.6144 50.82C28.6276 50.8035 29.8465 49.28 31.855 46.8139Z" fill="#11B67A"/>
<path d="M46.8881 28.7043C48.1472 29.5518 39.364 41.1366 38.3628 41.5528C37.3616 41.9689 36.8761 40.9096 34.9117 40.5615C32.5528 40.1378 28.6239 38.9271 25.0135 42.1127C22.1919 44.6022 22.3133 45.934 21.6079 44.7611C20.9025 43.5882 25.1955 34.8637 32.9017 29.8771C40.6079 24.8906 46.8957 28.7043 46.8957 28.7043H46.8881Z" fill="#11B67A"/>
<path d="M69.0086 50.7724C68.1591 49.5163 56.5468 58.2787 56.1296 59.2775C55.7125 60.2763 56.7743 60.7606 57.1232 62.7204C57.548 65.0737 58.7616 68.9933 55.5683 72.5951C53.0729 75.41 51.738 75.2889 52.9137 75.9926C54.0893 76.6964 62.8346 72.4135 67.833 64.7256C72.8314 57.0377 69.0086 50.7648 69.0086 50.7648V50.7724Z" fill="black"/>
<path d="M68.6599 53.6402C67.5146 55.2217 65.8004 55.5924 65.8004 55.5924C65.8004 55.5924 68.9784 60.579 65.4818 65.9439C68.4551 62.8944 69.7142 57.2799 68.6599 53.6402Z" fill="#11B67A"/>
<path d="M41.852 37.5014C40.2199 39.6557 38.7397 41.3961 38.3628 41.5528C37.3616 41.9689 36.8761 40.9096 34.9117 40.5615C32.5528 40.1378 28.6239 38.9271 25.0135 42.1127C22.1919 44.6022 22.3133 45.934 21.6079 44.7611C21.3356 44.3083 21.8083 42.73 22.9347 40.6758C22.9585 41.5808 23.4856 41.8814 25.4526 40.2059C27.948 38.0797 32.5293 37.2925 35.677 38.314C37.3233 38.848 39.2891 39.3952 41.852 37.5014Z" fill="black"/>
<path d="M44.0213 29.0524C42.4285 29.5896 41.6397 31.7008 41.6397 31.7008C41.6397 31.7008 37.0584 28.7346 31.6884 32.2229C34.7451 29.2567 40.373 28.0006 44.0213 29.0524Z" fill="white"/>
<path d="M32.4215 65.2716C32.8 65.5388 38.2764 69.3205 42.1922 67.2322C42.3415 67.1503 44.1363 65.8229 44.3525 65.6869C46.4002 66.2562 48.2553 66.3023 49.7366 66.1568C49.7433 66.1561 49.7499 66.1554 49.7566 66.1548C49.8425 66.1462 49.9272 66.1368 50.0106 66.127C50.0505 66.1224 50.0902 66.1178 50.1296 66.1129C50.1752 66.1072 50.2204 66.101 50.2653 66.095C50.3282 66.0865 50.3904 66.0782 50.4518 66.0691C50.4583 66.0682 50.4648 66.0675 50.4713 66.0665C48.2239 67.8869 46.851 68.9813 46.8331 68.9955C46.8331 68.9955 39.5168 72.3129 32.4215 65.2716Z" fill="black"/>
<path d="M65.5914 31.0705C68.7239 33.9005 68.9667 38.7357 66.1299 41.8684C63.2932 44.9935 58.4465 45.2356 55.3064 42.4056C52.1739 39.5756 51.9311 34.7404 54.7679 31.6078C57.6122 28.4751 62.4513 28.2405 65.5914 31.0705Z" fill="#C7FFC6"/>
<path d="M64.6348 32.1299C67.1606 34.4075 67.3502 38.2968 65.0671 40.8166C62.7841 43.3364 58.8855 43.5255 56.3598 41.2479C53.8416 38.9703 53.6444 35.0809 55.9275 32.5612C58.2105 30.0414 62.1091 29.8523 64.6348 32.1299Z" fill="#00482F"/>
<path d="M55.284 36.3067C55.6101 33.9762 57.4305 32.1374 59.7135 31.7893C61.8524 31.464 63.9989 32.5158 65.0911 34.4302C63.5438 32.7503 61.2911 32.145 59.4784 32.879C58.0145 33.4692 57.3167 34.7328 57.0968 35.1793C56.9299 35.1793 56.7403 35.202 56.5279 35.2701C55.7997 35.4971 55.4129 36.0949 55.2916 36.3067H55.284Z" fill="white"/>
<path d="M24.435 75.3227L0.390764 97.9147C0.301018 97.9968 0.166401 97.9893 0.0766556 97.9072L0.00186795 97.8326C-0.0878772 97.7431 -0.0878772 97.6088 -0.00561082 97.5193L22.6401 73.5321C24.4799 71.5847 26.5141 70.182 26.9628 70.6297L27.3517 71.0177C27.8004 71.4653 26.3944 73.4947 24.4425 75.3302L24.435 75.3227Z" fill="#11B67A"/>
<path d="M32.9083 77.4043L14.7499 93.3411C14.6826 93.4008 14.5629 93.3709 14.4806 93.2889L14.4058 93.2142C14.3236 93.1247 14.3011 93.0053 14.361 92.9456L31.1508 75.5764C32.5119 74.1662 34.1049 73.256 34.5461 73.7186L34.9201 74.114C35.3613 74.5766 34.3741 76.121 32.9008 77.4118L32.9083 77.4043Z" fill="#11B67A"/>
<path d="M22.0047 66.5262L4.62405 83.2986C4.56422 83.3583 4.43708 83.3433 4.35481 83.2538L4.28003 83.1792C4.19028 83.0971 4.16785 82.9777 4.22768 82.9106L20.1724 64.7728C21.4662 63.303 23.0143 62.3181 23.478 62.7583L23.8744 63.1314C24.3381 63.5716 23.4257 65.1608 22.0197 66.5262H22.0047Z" fill="#11B67A"/>
<path d="M82.6876 56.6179C82.6876 56.6179 86.7037 47.896 99.9336 56.603L82.6876 56.6179Z" fill="#11B67A"/>
<path d="M36.5283 11.0459C36.2441 10.8071 35.9898 10.5385 35.728 10.2774C35.1073 9.63574 33.3573 8.12861 30.7995 8.41213C29.7301 8.53897 28.9074 9.02394 28.3315 9.51637C26.8881 7.00946 24.1733 5.3158 21.0622 5.3158C16.4253 5.3158 12.671 9.06124 12.671 13.6871V14.4929H47.5146C41.3595 14.4929 38.4129 12.6649 36.5432 11.0533L36.5283 11.0459Z" fill="#11B67A"/>
</g>
</g>
</g>
</g>
<defs>
<clipPath id="clip0_4483_4">
<rect width="100" height="100" fill="white"/>
</clipPath>
</defs>
</svg>
