<svg width="100" height="100" viewBox="0 0 100 100" fill="none" xmlns="http://www.w3.org/2000/svg">
<rect width="100" height="100" fill="#1E1E1E"/>
<g id="Default">
<path d="M-105 -22595C-105 -22596.1 -104.105 -22597 -103 -22597H1103C1104.1 -22597 1105 -22596.1 1105 -22595V10611C1105 10612.1 1104.1 10613 1103 10613H-103C-104.105 10613 -105 10612.1 -105 10611V-22595Z" fill="white"/>
<path d="M-103 -22597V-22596H1103V-22597V-22598H-103V-22597ZM1105 -22595H1104V10611H1105H1106V-22595H1105ZM1103 10613V10612H-103V10613V10614H1103V10613ZM-105 10611H-104V-22595H-105H-106V10611H-105ZM-103 10613V10612C-103.552 10612 -104 10611.6 -104 10611H-105H-106C-106 10612.7 -104.657 10614 -103 10614V10613ZM1105 10611H1104C1104 10611.6 1103.55 10612 1103 10612V10613V10614C1104.66 10614 1106 10612.7 1106 10611H1105ZM1103 -22597V-22596C1103.55 -22596 1104 -22595.6 1104 -22595H1105H1106C1106 -22596.7 1104.66 -22598 1103 -22598V-22597ZM-103 -22597V-22598C-104.656 -22598 -106 -22596.7 -106 -22595H-105H-104C-104 -22595.6 -103.553 -22596 -103 -22596V-22597Z" fill="white" fill-opacity="0.1"/>
<g id="_Rubix Cube">
<rect x="-24.5" y="-24.5" width="1049" height="149" rx="4.5" stroke="#9747FF" stroke-dasharray="10 5"/>
<g id="Brand=Lloyds - V2" clip-path="url(#clip0_4483_4)">
<rect width="100" height="100" fill="#C7FFC6"/>
<g id="Path">
<path fill-rule="evenodd" clip-rule="evenodd" d="M36.8291 43.2825L39.3187 44.7317L48.7104 50.1558C49.2126 50.4428 49.4996 50.945 49.4996 51.519V65.2658C49.4996 65.8397 49.2126 66.342 48.7104 66.629C48.2082 66.9159 47.6342 66.9159 47.1391 66.629L35.2578 59.7556C34.7556 59.4686 34.4686 58.9664 34.4686 58.3924V44.66C34.4686 44.0717 34.7556 43.5694 35.2578 43.2825C35.76 42.9955 36.334 42.9955 36.8291 43.2825Z" fill="black"/>
<path fill-rule="evenodd" clip-rule="evenodd" d="M36.8308 62.3102L48.7121 69.1836C49.2143 69.4706 49.5013 69.9728 49.5013 70.5468V84.2936C49.5013 84.8675 49.2143 85.3698 48.7121 85.6568C48.2099 85.9437 47.6359 85.9437 47.1409 85.6568L35.2595 78.7834C34.7573 78.4964 34.4703 77.9942 34.4703 77.4202V63.6734C34.4703 63.0995 34.7573 62.5972 35.2595 62.3102C35.7618 62.0233 36.3357 62.0233 36.8308 62.3102Z" fill="black"/>
<path fill-rule="evenodd" clip-rule="evenodd" d="M68.1974 59.6623L80.0931 52.8033C80.5953 52.5019 81.1693 52.5019 81.6643 52.8033C82.1666 53.0903 82.4535 53.5781 82.4535 54.1665V67.9132C82.4535 68.4872 82.1666 68.9894 81.6643 69.2764L69.7687 76.1498C69.2664 76.4368 68.6925 76.4368 68.1974 76.1498C67.6952 75.8484 67.4082 75.3606 67.4082 74.7722V61.0255C67.4082 60.4515 67.6952 59.9493 68.1974 59.6623Z" fill="#11B67A"/>
<path fill-rule="evenodd" clip-rule="evenodd" d="M51.7165 69.1836L63.6122 62.3102C64.1144 62.0233 64.6884 62.0233 65.1834 62.3102C65.6857 62.5972 65.9727 63.0995 65.9727 63.6734V77.4202C65.9727 77.9942 65.6857 78.4964 65.1834 78.7834L53.2878 85.6568C52.7855 85.9437 52.2116 85.9437 51.7165 85.6568C51.2143 85.3698 50.9273 84.8675 50.9273 84.2936V70.5468C50.9273 69.9728 51.2143 69.4706 51.7165 69.1836Z" fill="#11B67A"/>
<path fill-rule="evenodd" clip-rule="evenodd" d="M67.4082 42.4939C67.4082 41.6258 67.8674 40.8222 68.6207 40.3918C71.1534 38.9353 77.0151 35.5488 80.0931 33.7767C80.5953 33.4897 81.1693 33.4897 81.6643 33.7767C82.1666 34.0637 82.4535 34.5659 82.4535 35.1399V48.8866C82.4535 49.4606 82.1666 49.9628 81.6643 50.2498L69.7687 57.1232C69.2664 57.4102 68.6925 57.4102 68.1974 57.1232C67.6952 56.8362 67.4082 56.334 67.4082 55.7456V42.4939Z" fill="#11B67A"/>
<path fill-rule="evenodd" clip-rule="evenodd" d="M67.9105 39.1647C67.1571 39.6024 66.2316 39.6024 65.4854 39.1647L54.0131 32.5353C53.5108 32.2483 53.2238 31.7604 53.2238 31.1721C53.2238 30.5981 53.5108 30.0959 54.0131 29.8089L65.9087 22.9355C66.411 22.6485 66.9849 22.6485 67.48 22.9355L79.3757 29.8089C79.8779 30.0959 80.1649 30.5981 80.1649 31.1721C80.1649 31.746 79.8779 32.2483 79.3757 32.5353L67.9033 39.1647H67.9105Z" fill="#6CF479"/>
<path fill-rule="evenodd" clip-rule="evenodd" d="M58.0534 28.7322L66.046 24.37C66.5482 24.083 67.1222 24.083 67.6173 24.37L75.5166 28.56C76.0189 28.847 71.1974 26.5224 67.0576 26.4076C63.1905 26.3072 57.5512 29.0192 58.0534 28.7322Z" fill="white"/>
<path fill-rule="evenodd" clip-rule="evenodd" d="M51.7165 50.1558L63.6122 43.2825C64.1144 42.9955 64.6884 42.9955 65.1834 43.2825C65.6857 43.5694 65.9727 44.0717 65.9727 44.66V58.3924C65.9727 58.9664 65.6857 59.4686 65.1834 59.7556L53.2878 66.629C52.7855 66.9159 52.2116 66.9159 51.7165 66.629C51.2214 66.342 50.9273 65.8397 50.9273 65.2658V51.519C50.9273 50.945 51.2143 50.4428 51.7165 50.1558Z" fill="#11B67A"/>
<path fill-rule="evenodd" clip-rule="evenodd" d="M37.5339 39.3223L49.4295 32.449C49.9318 32.162 50.5057 32.162 51.0008 32.449L62.8965 39.3223C63.3987 39.6093 63.6857 40.1116 63.6857 40.6999C63.6857 41.2739 63.3987 41.7761 62.8965 42.0631L51.0008 48.9365C50.4986 49.2234 49.9246 49.2234 49.4295 48.9365L37.5339 42.0631C37.0316 41.7761 36.7447 41.2739 36.7447 40.6999C36.7447 40.1259 37.0316 39.6093 37.5339 39.3223Z" fill="#6CF479"/>
<path fill-rule="evenodd" clip-rule="evenodd" d="M23.0115 60.7962L32.9915 65.7898V66.6938C32.9915 66.6938 32.9915 66.9521 32.9915 70.2453V80.5697L29.0382 78.5823C28.4356 78.281 27.919 77.7501 27.6607 77.1187L21.3756 62.2886C21.103 61.6716 21.1604 61.1263 21.5048 60.8106C21.8492 60.4949 22.4088 60.4806 23.0115 60.7962Z" fill="black"/>
<path fill-rule="evenodd" clip-rule="evenodd" d="M31.004 49.0873L32.9986 53.8871V64.269L21.1029 58.1848C20.5002 57.8691 19.998 57.3382 19.7397 56.7068L13.5551 41.8336C13.2968 41.2023 13.3542 40.6713 13.6986 40.3556C14.0573 40.04 14.6026 40.04 15.2196 40.3413L29.8704 47.8532C30.3798 48.1187 30.7816 48.5492 31.004 49.0801V49.0873Z" fill="black"/>
<path fill-rule="evenodd" clip-rule="evenodd" d="M29.0962 44.1438C28.3572 44.7393 27.3384 44.8398 26.4917 44.4165L16.6983 39.5018L15.536 38.9135C15.0481 38.6695 14.7611 38.1816 14.7467 37.5503C14.7324 36.9189 15.005 36.3449 15.4786 35.979L26.7572 26.9604C27.2307 26.5873 27.776 26.5012 28.2639 26.7452L39.8439 32.5567C40.3318 32.8006 40.6187 33.3028 40.6331 33.9199C40.6474 34.5512 40.3892 35.1252 39.9013 35.4911L29.089 44.1367L29.0962 44.1438Z" fill="#6CF479"/>
<path fill-rule="evenodd" clip-rule="evenodd" d="M44.4643 31.6455C43.7253 32.241 42.7137 32.3486 41.8671 31.9325L32.0521 27.068L30.8898 26.4797C30.3876 26.2501 30.1006 25.7479 30.0862 25.1165C30.0719 24.4995 30.3302 23.9255 30.8037 23.5452L42.0393 14.4836C42.5272 14.0961 43.0724 14.0244 43.5603 14.2683L55.169 20.0224C55.6569 20.2664 55.9439 20.7543 55.9582 21.3856C55.9726 22.0027 55.7143 22.591 55.2408 22.9569L44.4643 31.6455Z" fill="#6CF479"/>
<path fill-rule="evenodd" clip-rule="evenodd" d="M34.9787 21.8015L42.1678 16.0044C42.6556 15.6169 43.2009 15.5452 43.6888 15.7891L51.0644 19.441C51.5523 19.685 47.8358 18.0492 42.7202 18.4653C39.3983 18.7379 34.5124 22.1818 34.9859 21.8015H34.9787Z" fill="white"/>
<path fill-rule="evenodd" clip-rule="evenodd" d="M19.9263 34.4001L27.1154 28.603C27.6033 28.2155 28.1485 28.1438 28.6364 28.3877L36.012 32.0397C36.4999 32.2836 32.7834 30.6478 27.6678 31.0639C24.3459 31.3365 19.46 34.7804 19.9335 34.4001H19.9263Z" fill="white"/>
<path fill-rule="evenodd" clip-rule="evenodd" d="M41.4785 38.1884L49.4711 33.8262C49.9734 33.5392 50.5473 33.5392 51.0424 33.8262L58.9417 38.0163C59.444 38.3032 54.6226 35.9786 50.4828 35.8638C46.6156 35.7634 40.9763 38.4754 41.4785 38.1884Z" fill="white"/>
<path fill-rule="evenodd" clip-rule="evenodd" d="M65.3278 45.823L65.0336 57.3743C65.0336 58.1061 64.6677 58.7375 64.0292 59.1034L54.4007 65.1158C53.7693 65.4817 59.3871 61.6719 62.1422 57.1949C64.7179 53.012 65.3278 45.0912 65.3206 45.823H65.3278Z" fill="#006A4D"/>
<path fill-rule="evenodd" clip-rule="evenodd" d="M64.8613 64.5124L64.5671 76.0637C64.5671 76.7955 64.2012 77.4269 63.5627 77.7928L53.9342 83.8052C53.3028 84.1712 58.9206 80.3614 61.6757 75.8844C64.2514 71.7015 64.8613 63.7806 64.8541 64.5124H64.8613Z" fill="#006A4D"/>
<path fill-rule="evenodd" clip-rule="evenodd" d="M81.3132 54.8341L81.019 66.3854C81.019 67.1172 80.6531 67.7486 80.0145 68.1145L70.3861 74.1269C69.7547 74.4928 75.3725 70.683 78.1276 66.206C80.7033 62.0231 81.3131 54.1023 81.306 54.8341H81.3132Z" fill="#006A4D"/>
<path fill-rule="evenodd" clip-rule="evenodd" d="M81.3132 36.1438L81.019 47.6951C81.019 48.4269 80.6531 49.0582 80.0145 49.4242L70.3861 55.4366C69.7547 55.8025 75.3725 51.9927 78.1276 47.5157C80.7033 43.3328 81.3131 35.4119 81.306 36.1438H81.3132Z" fill="#006A4D"/>
<path d="M97.4361 66.3567C98.2468 71.0992 94.1429 74.9663 88.1018 75.4112C87.1691 78.1376 84.1557 80.1321 80.1665 80.6631C83.0436 81.029 86.222 80.8424 89.3645 80.0963C97.3069 78.2165 101.913 70.8624 99.2943 65.2016C98.0603 62.5397 95.4917 60.5882 92.2631 59.5192C95.011 61.2196 96.9697 63.6518 97.4289 66.3495L97.4361 66.3567Z" fill="#006A4D"/>
<path d="M2.62976 36.3095C1.81902 31.567 5.92295 27.6998 11.9641 27.255C12.8968 24.5286 15.9102 22.534 19.8993 22.0031C17.0222 21.6372 13.8438 21.8237 10.7013 22.5699C2.75173 24.4425 -1.85443 31.7966 0.771511 37.4574C2.00556 40.1192 4.57411 42.0708 7.80273 43.1398C5.05481 41.4394 3.09612 39.0072 2.63694 36.3095H2.62976Z" fill="#006A4D"/>
</g>
</g>
</g>
</g>
<defs>
<clipPath id="clip0_4483_4">
<rect width="100" height="100" fill="white"/>
</clipPath>
</defs>
</svg>
