<svg width="100" height="100" viewBox="0 0 100 100" fill="none" xmlns="http://www.w3.org/2000/svg">
<rect width="100" height="100" fill="#1E1E1E"/>
<g id="Default">
<path d="M-105 -23655C-105 -23656.1 -104.105 -23657 -103 -23657H1103C1104.1 -23657 1105 -23656.1 1105 -23655V9551C1105 9552.11 1104.1 9553 1103 9553H-103C-104.105 9553 -105 9552.11 -105 9551V-23655Z" fill="white"/>
<path d="M-103 -23657V-23656H1103V-23657V-23658H-103V-23657ZM1105 -23655H1104V9551H1105H1106V-23655H1105ZM1103 9553V9552H-103V9553V9554H1103V9553ZM-105 9551H-104V-23655H-105H-106V9551H-105ZM-103 9553V9552C-103.552 9552 -104 9551.55 -104 9551H-105H-106C-106 9552.66 -104.657 9554 -103 9554V9553ZM1105 9551H1104C1104 9551.55 1103.55 9552 1103 9552V9553V9554C1104.66 9554 1106 9552.66 1106 9551H1105ZM1103 -23657V-23656C1103.55 -23656 1104 -23655.6 1104 -23655H1105H1106C1106 -23656.7 1104.66 -23658 1103 -23658V-23657ZM-103 -23657V-23658C-104.656 -23658 -106 -23656.7 -106 -23655H-105H-104C-104 -23655.6 -103.553 -23656 -103 -23656V-23657Z" fill="white" fill-opacity="0.1"/>
<g id="_Save Disc Alt 02">
<rect x="-24.5" y="-24.5" width="1049" height="149" rx="4.5" stroke="#9747FF" stroke-dasharray="10 5"/>
<g id="Brand=Lloyds - V2" clip-path="url(#clip0_4483_4)">
<rect width="100" height="100" fill="white"/>
<g id="Path">
<path d="M84.6822 15.0752L26.5098 4.77186L4.91038 72.7206L0.855942 73.8002L2.82614 77.029C3.27202 77.8002 4.04972 78.3452 4.93112 78.4995L71.7412 90.335C72.747 90.5098 73.7321 89.9236 74.0432 88.957L92.0133 32.4223C92.3244 31.4351 92.2415 30.3657 91.7852 29.43L84.6925 15.0752H84.6822Z" fill="black"/>
<path d="M80.2542 9.76124L34.6496 1.67899L26.717 26.6353C26.3126 27.8898 27.1214 29.2163 28.428 29.4425L68.7027 36.5788C70.3411 36.8667 71.938 35.9104 72.4357 34.3371L80.2439 9.75101L80.2542 9.76124Z" fill="#11B67A"/>
<path d="M80.7002 9.84048L25.3587 0.0307232C24.3529 -0.144084 23.3678 0.442 23.0567 1.40858L0.596594 72.0822C0.223295 73.2442 0.969891 74.4575 2.18311 74.6735L69.5013 86.6015C70.5071 86.7763 71.4922 86.1902 71.8033 85.2236L89.929 28.185C90.24 27.1979 90.1571 26.1284 89.7008 25.1927L82.9089 11.4755C82.4837 10.6117 81.6646 10.005 80.7106 9.83019L80.7002 9.84048Z" fill="#11B67A"/>
<path d="M19.9252 43.4479L9.58689 75.9826L61.3924 85.1652L71.8551 52.25C72.2595 50.9954 71.4507 49.669 70.1442 49.4428L23.6582 41.2062C22.0198 40.9183 20.4229 41.8746 19.9252 43.4479Z" fill="#00482F"/>
<path d="M52.8999 33.7828L68.7132 36.5797C70.3516 36.8676 71.9485 35.9113 72.4462 34.3381L80.2543 9.75196L59.1111 6.00901L51.1785 30.9653C50.7741 32.2198 51.5829 33.5463 52.8895 33.7725L52.8999 33.7828Z" fill="#6CF479"/>
<path d="M5.60497 2.34576C5.60497 2.34576 7.04632 7.08613 12.8947 8.39205C12.8947 8.39205 8.46692 9.15297 8.3736 14.428C8.3736 14.428 6.81818 9.8522 1.20834 8.39205C1.20834 8.39205 5.89531 7.83677 5.60497 2.34576Z" fill="#006A4D"/>
<path d="M29.268 87.9177C29.268 87.9177 30.7094 92.6581 36.5577 93.964C36.5577 93.964 32.13 94.7249 32.0366 100C32.0366 100 30.4812 95.4242 24.8714 93.964C24.8714 93.964 29.5584 93.4087 29.268 87.9177Z" fill="#006A4D"/>
<path d="M85.6465 36.4396C85.6465 36.4396 88.384 45.4473 99.5 47.9358C99.5 47.9358 91.0801 49.3754 90.9141 59.4011C90.9141 59.4011 87.9485 50.7121 77.2991 47.9255C77.2991 47.9255 86.1961 46.8767 85.6465 36.4396Z" fill="#006A4D"/>
<path d="M49.8927 33.2575C49.706 32.8667 49.6127 32.4657 49.5713 32.0955L28.8947 28.4553C28.8947 28.4553 28.8739 28.4553 28.8636 28.4553C28.1792 28.3217 27.7748 27.6019 27.9822 26.9335L35.9147 1.91547L34.66 1.67899L26.7274 26.6353C26.3645 27.7664 26.9037 28.8667 28.0755 29.3397C28.2518 29.4323 28.708 29.5351 28.708 29.5351L49.8927 33.2575Z" fill="#6CF479"/>
<path d="M77.2783 11.2297L70.6108 32.1141C70.6108 32.1141 73.338 22.3866 68.5991 17.6771C68.5991 17.6771 72.301 11.9084 64.7832 8.95727L77.2887 11.2297H77.2783Z" fill="#006A4D"/>
</g>
</g>
</g>
</g>
<defs>
<clipPath id="clip0_4483_4">
<rect width="100" height="100" fill="white"/>
</clipPath>
</defs>
</svg>
