<svg width="100" height="100" viewBox="0 0 100 100" fill="none" xmlns="http://www.w3.org/2000/svg">
<rect width="100" height="100" fill="#1E1E1E"/>
<g id="Default">
<path d="M-105 -24291C-105 -24292.1 -104.105 -24293 -103 -24293H1103C1104.1 -24293 1105 -24292.1 1105 -24291V8915C1105 8916.11 1104.1 8917 1103 8917H-103C-104.105 8917 -105 8916.11 -105 8915V-24291Z" fill="white"/>
<path d="M-103 -24293V-24292H1103V-24293V-24294H-103V-24293ZM1105 -24291H1104V8915H1105H1106V-24291H1105ZM1103 8917V8916H-103V8917V8918H1103V8917ZM-105 8915H-104V-24291H-105H-106V8915H-105ZM-103 8917V8916C-103.552 8916 -104 8915.55 -104 8915H-105H-106C-106 8916.66 -104.657 8918 -103 8918V8917ZM1105 8915H1104C1104 8915.55 1103.55 8916 1103 8916V8917V8918C1104.66 8918 1106 8916.66 1106 8915H1105ZM1103 -24293V-24292C1103.55 -24292 1104 -24291.6 1104 -24291H1105H1106C1106 -24292.7 1104.66 -24294 1103 -24294V-24293ZM-103 -24293V-24294C-104.656 -24294 -106 -24292.7 -106 -24291H-105H-104C-104 -24291.6 -103.553 -24292 -103 -24292V-24293Z" fill="white" fill-opacity="0.1"/>
<g id="Secure Website Online Safety">
<rect x="-24.5" y="-24.5" width="1049" height="149" rx="4.5" stroke="#9747FF" stroke-dasharray="10 5"/>
<g id="Brand=Lloyds - V2">
<rect width="100" height="100" fill="#C7FFC6"/>
<g id="Path">
<path d="M84.8835 80.2404H83.2191L73.7733 60.0897H13.8299L4.38414 80.2404H2.71976V84.3405C2.7026 85.7384 3.82651 87 5.37077 87H82.2325C83.7681 87 84.892 85.7384 84.8749 84.3405V80.2404H84.8835Z" fill="black"/>
<path d="M73.7816 56.0474H13.8383L2.97689 79.2157C2.16186 80.9546 3.44021 82.9578 5.37913 82.9578H82.2408C84.1797 82.9578 85.458 80.9631 84.643 79.2157L73.7816 56.0474Z" fill="#11B67A"/>
<path d="M16.6097 14H71.0023C72.4608 14 73.6447 15.1763 73.6447 16.6254V54.5062H13.9673V16.6339C13.9673 15.1848 15.1512 14.0085 16.6097 14.0085V14Z" fill="#11B67A"/>
<path d="M76.5187 70.4615L71.8602 60.676C71.5685 60.0622 70.9508 59.6701 70.2644 59.6701H17.3389C16.6526 59.6701 16.0348 60.0622 15.7431 60.676L11.0846 70.4615C10.6728 71.331 11.3076 72.3368 12.2771 72.3368H27.1879C27.7284 72.3368 28.1402 72.8142 28.063 73.3427L27.8914 74.4337C27.7713 75.2265 28.389 75.951 29.1955 75.951H58.3907C59.2057 75.951 59.8235 75.235 59.6948 74.4337L59.5232 73.3427C59.4374 72.8142 59.8578 72.3368 60.3983 72.3368H75.309C76.2785 72.3368 76.9219 71.331 76.5015 70.4615H76.5187Z" fill="black"/>
<path d="M43.806 19.36C44.3888 19.36 44.8612 18.8906 44.8612 18.3116C44.8612 17.7325 44.3888 17.2631 43.806 17.2631C43.2232 17.2631 42.7507 17.7325 42.7507 18.3116C42.7507 18.8906 43.2232 19.36 43.806 19.36Z" fill="#00482F"/>
<path d="M73.6447 43.8074H13.9673V47.9416H73.6447V43.8074Z" fill="#00482F"/>
<path d="M84.9434 25.5574H2.66814C1.19456 25.5574 0 26.7443 0 28.2083V42.2559C0 43.72 1.19456 44.9069 2.66814 44.9069H84.9434C86.417 44.9069 87.6115 43.72 87.6115 42.2559V28.2083C87.6115 26.7443 86.417 25.5574 84.9434 25.5574Z" fill="#6CF479"/>
<path d="M16.189 31.8733L12.2597 34.1236V29.6229H10.9728V34.1236L7.04355 31.8733L6.4001 32.9814L10.3294 35.2317L6.4001 37.4906L7.04355 38.5987L10.9728 36.3399V40.8491H12.2597V36.3399L16.189 38.5987L16.8325 37.4906L12.9032 35.2317L16.8325 32.9814L16.189 31.8733Z" fill="#00482F"/>
<path d="M31.117 31.8733L27.1877 34.1236V29.6229H25.9008V34.1236L21.9715 31.8733L21.328 32.9814L25.2573 35.2317L21.328 37.4906L21.9715 38.5987L25.9008 36.3399V40.8491H27.1877V36.3399L31.117 38.5987L31.7604 37.4906L27.8311 35.2317L31.7604 32.9814L31.117 31.8733Z" fill="#00482F"/>
<path d="M46.0449 31.8733L42.1156 34.1236V29.6229H40.8287V34.1236L36.8994 31.8733L36.256 32.9814L40.1853 35.2317L36.256 37.4906L36.8994 38.5987L40.8287 36.3399V40.8491H42.1156V36.3399L46.0449 38.5987L46.6883 37.4906L42.7591 35.2317L46.6883 32.9814L46.0449 31.8733Z" fill="#00482F"/>
<path d="M60.9731 31.8733L57.0437 34.1236V29.6229H55.7568V34.1236L51.8275 31.8733L51.1841 32.9814L55.1134 35.2317L51.1841 37.4906L51.8275 38.5987L55.7568 36.3399V40.8491H57.0437V36.3399L60.9731 38.5987L61.6165 37.4906L57.6872 35.2317L61.6165 32.9814L60.9731 31.8733Z" fill="#00482F"/>
<path d="M76.5442 32.9814L75.9007 31.8733L71.9715 34.1236V29.6229H70.6846V34.1236L66.7553 31.8733L66.1118 32.9814L70.0411 35.2317L66.1118 37.4906L66.7553 38.5987L70.6846 36.3399V40.8491H71.9715V36.3399L75.9007 38.5987L76.5442 37.4906L72.6149 35.2317L76.5442 32.9814Z" fill="#00482F"/>
<path d="M81.8378 27.8083H80.5509V42.6656H81.8378V27.8083Z" fill="white"/>
<path d="M100 61.5228L85.99 51.5923L88.2207 68.5466L92.1499 63.7561L98.1297 73.6439L99.8713 72.604L93.9001 62.7161L100 61.5228Z" fill="#006A4D"/>
</g>
</g>
</g>
</g>
</svg>
