<svg width="100" height="100" viewBox="0 0 100 100" fill="none" xmlns="http://www.w3.org/2000/svg">
<rect width="100" height="100" fill="#1E1E1E"/>
<g id="Default">
<path d="M-105 -26411C-105 -26412.1 -104.105 -26413 -103 -26413H1103C1104.1 -26413 1105 -26412.1 1105 -26411V6795C1105 6796.11 1104.1 6797 1103 6797H-103C-104.105 6797 -105 6796.11 -105 6795V-26411Z" fill="white"/>
<path d="M-103 -26413V-26412H1103V-26413V-26414H-103V-26413ZM1105 -26411H1104V6795H1105H1106V-26411H1105ZM1103 6797V6796H-103V6797V6798H1103V6797ZM-105 6795H-104V-26411H-105H-106V6795H-105ZM-103 6797V6796C-103.552 6796 -104 6795.55 -104 6795H-105H-106C-106 6796.66 -104.657 6798 -103 6798V6797ZM1105 6795H1104C1104 6795.55 1103.55 6796 1103 6796V6797V6798C1104.66 6798 1106 6796.66 1106 6795H1105ZM1103 -26413V-26412C1103.55 -26412 1104 -26411.6 1104 -26411H1105H1106C1106 -26412.7 1104.66 -26414 1103 -26414V-26413ZM-103 -26413V-26414C-104.656 -26414 -106 -26412.7 -106 -26411H-105H-104C-104 -26411.6 -103.553 -26412 -103 -26412V-26413Z" fill="white" fill-opacity="0.1"/>
<g id="_Spot Light">
<rect x="-24.5" y="-24.5" width="1049" height="149" rx="4.5" stroke="#9747FF" stroke-dasharray="10 5"/>
<g id="Brand=Lloyds - V2">
<rect width="100" height="100" fill="#C7FFC6"/>
<g id="Path">
<path fill-rule="evenodd" clip-rule="evenodd" d="M63.7748 76.9415H63.7542L63.7611 76.9346L63.7748 76.9415Z" fill="black"/>
<path fill-rule="evenodd" clip-rule="evenodd" d="M46.6288 54.7183L51.8465 52.3962V71.8935C52.0093 74.7891 54.7137 75.7661 56.8235 76.0422L63.7542 76.9415C63.0179 77.8618 61.8075 78.3785 60.4695 78.2086L50.7208 77.1112C48.4766 76.828 46.6359 74.7679 46.6359 72.5165V71.9572H46.6288V54.7112V54.7183Z" fill="#006A4D"/>
<path fill-rule="evenodd" clip-rule="evenodd" d="M56.2067 79.6387V99.6812H62.0474V80.1555C61.5448 80.2263 61.0209 80.2334 60.4828 80.1626L56.2067 79.6316V79.6387Z" fill="black"/>
<path d="M56.2067 79.6387L60.2634 80.3965V100H56.2067V79.6387Z" fill="#006A4D"/>
<path d="M66.1185 11.3203L60.6672 0L40.6743 7.91504L46.3876 16.5734L49.9982 24.1628C52.1079 23.7876 54.1398 24.1416 55.8601 25.3947C56.3699 25.7628 56.8088 26.2017 57.2053 26.669C52.6601 24.8354 46.3593 27.3628 42.2814 32.9628C38.2035 38.5699 37.7221 45.338 40.8513 49.1044C40.2778 48.8707 39.7327 48.5876 39.223 48.2194C34.6708 44.9061 35.4071 37.6141 40.0017 31.3132C41.2124 29.6495 42.5717 28.2265 44.0017 27.0867L41.1982 25.0902L31.0956 21.0053L17 48.2123L27.6336 51.5893L40.1079 50.1238L40.9433 50.0247L41.1486 49.2884C42.0194 49.7486 42.9752 50.0318 43.9805 50.138C48.1221 50.5769 53.0778 48.0849 56.469 43.4407C60.6814 37.6637 60.9787 30.6124 57.3539 27.0655L66.076 24.9274L66.1185 11.3203Z" fill="#11B67A"/>
<path d="M80.4266 53.9538L61.0709 39.1786C62.1187 36.3113 62.4231 33.437 61.97 30.945L83.0673 47.2635C82.5009 44.8494 81.2124 42.591 79.1806 40.6087C79.1806 40.6087 58.855 25.3662 58.1824 24.9202C52.7665 21.3308 44.5541 24.1556 39.6691 31.2211C36.8302 35.1644 35.6691 39.6388 36.1789 43.3627C36.4762 46.5273 37.8001 49.2954 40.1222 51.0653L61.0709 66.598C62.1328 67.3839 63.3364 67.8724 64.6319 68.0918V55.1149C64.6319 53.5644 65.878 52.3184 67.4284 52.3184H69.3257L69.4957 53.1821C69.9771 53.6848 70.2744 54.3644 70.2744 55.1149V67.5467C73.6018 66.4281 76.9576 63.9856 79.5629 60.4671C79.9098 59.9998 80.2284 59.5326 80.5257 59.0582C81.439 57.1963 81.7647 54.9166 80.4337 53.9467L80.4266 53.9538ZM56.0019 42.9662C52.7806 47.3768 47.8886 50.0529 43.832 49.6211C42.5859 49.4865 41.4674 49.0689 40.5187 48.375C36.3629 45.352 36.5541 37.9963 40.9364 31.9786C44.1576 27.568 49.0497 24.8919 53.1063 25.3237C54.3523 25.4583 55.4709 25.8759 56.4196 26.5698C60.5753 29.5928 60.3842 36.9485 56.0019 42.9591V42.9662Z" fill="black"/>
<path d="M82.0191 16.2334L67.5483 46.7467L62.0899 50.6617L59.0598 48.9343L67.6687 28.6511L69.6935 28.4317L82.0191 16.2334Z" fill="#11B67A"/>
<path d="M54.4938 53.2106L40.8796 54.4354L29.9345 62.1663L19.8106 66.3362L38.7062 64.9486L48.3345 61.5504L54.4938 53.2106Z" fill="#11B67A"/>
<path d="M57.2182 27.0315C60.996 29.8763 60.3765 37.0723 55.8344 43.1042C51.2923 49.1362 44.5476 51.7199 40.7697 48.8752C36.9919 46.0304 37.6114 38.8344 42.1535 32.8025C46.6957 26.7705 53.4403 24.1868 57.2182 27.0315Z" fill="white"/>
<path d="M54.8606 34.0061C54.8606 34.0061 50.6697 34.1387 48.3278 38.5893C48.3278 38.5893 48.673 34.8305 44.374 33.6012C44.374 33.6012 48.4511 33.3356 50.8668 29.1135C50.8668 29.1135 50.3001 33.0342 54.8572 34.0052L54.8622 34.0065L54.8606 34.0061Z" fill="#11B67A"/>
<path fill-rule="evenodd" clip-rule="evenodd" d="M66.5079 74.8884V72.5734H66.515V55.1221C66.515 53.5717 67.761 52.3256 69.3114 52.3256H69.361C70.9114 52.3256 72.1574 53.5717 72.1574 55.1221V73.8761C72.1574 73.8761 72.1574 73.8761 72.1574 73.8831V73.9044C72.1574 76.6584 70.2884 78.7681 67.761 79.1646L62.7203 80.0424C62.6424 80.0495 62.5999 80.0637 62.5433 80.0637C64.8583 79.5044 66.515 77.4796 66.515 74.8814H66.5079V74.8884Z" fill="#006A4D"/>
<path d="M67.0247 55.6245C67.0247 55.6245 67.0388 55.6105 67.0458 55.6035L67.0247 55.6315V55.6245Z" fill="white"/>
<path d="M67.0742 55.5607V55.2209C67.0742 53.982 68.0796 52.9767 69.3185 52.9767C70.5574 52.9767 71.5627 53.982 71.5627 55.2209V55.589C71.5627 55.589 71.5415 55.5537 71.5273 55.5324L71.5627 55.5961V75.1855C71.5627 75.1855 70.9468 64.8492 70.5149 58.9236C70.2176 54.9023 68.2919 54.3501 67.0884 55.5607C67.0884 55.5678 67.0742 55.582 67.0742 55.589V55.5749C67.0742 55.5749 67.0529 55.5964 67.0458 55.6035L67.0742 55.5536V55.5607Z" fill="white"/>
</g>
</g>
</g>
</g>
</svg>
