<svg width="100" height="100" viewBox="0 0 100 100" fill="none" xmlns="http://www.w3.org/2000/svg">
<rect width="100" height="100" fill="#1E1E1E"/>
<g id="Default">
<path d="M-105 -29379C-105 -29380.1 -104.105 -29381 -103 -29381H1103C1104.1 -29381 1105 -29380.1 1105 -29379V3827C1105 3828.11 1104.1 3829 1103 3829H-103C-104.105 3829 -105 3828.11 -105 3827V-29379Z" fill="white"/>
<path d="M-103 -29381V-29380H1103V-29381V-29382H-103V-29381ZM1105 -29379H1104V3827H1105H1106V-29379H1105ZM1103 3829V3828H-103V3829V3830H1103V3829ZM-105 3827H-104V-29379H-105H-106V3827H-105ZM-103 3829V3828C-103.552 3828 -104 3827.55 -104 3827H-105H-106C-106 3828.66 -104.657 3830 -103 3830V3829ZM1105 3827H1104C1104 3827.55 1103.55 3828 1103 3828V3829V3830C1104.66 3830 1106 3828.66 1106 3827H1105ZM1103 -29381V-29380C1103.55 -29380 1104 -29379.6 1104 -29379H1105H1106C1106 -29380.7 1104.66 -29382 1103 -29382V-29381ZM-103 -29381V-29382C-104.656 -29382 -106 -29380.7 -106 -29379H-105H-104C-104 -29379.6 -103.553 -29380 -103 -29380V-29381Z" fill="white" fill-opacity="0.1"/>
<g id="Teddy Bear">
<rect x="-24.5" y="-24.5" width="1049" height="149" rx="4.5" stroke="#9747FF" stroke-dasharray="10 5"/>
<g id="Brand=Lloyds - V2" clip-path="url(#clip0_4483_4)">
<rect width="100" height="100" fill="#C7FFC6"/>
<g id="Path">
<path d="M37.6138 42.4132C32.3526 46.1279 27.0913 49.8425 21.8301 53.5572C17.2382 56.882 17.1123 63.6604 21.5777 67.1523L22.2412 67.6712L36.1709 52.7051C36.6519 49.2745 37.1328 45.8439 37.6138 42.4132Z" fill="#11B67A"/>
<path d="M37.6138 42.4132C36.6423 43.2894 35.2192 44.6568 33.6805 46.4893C31.6558 48.9008 31.3205 49.8667 29.7433 52.0021C25.9632 57.1202 23.9822 56.8606 22.2939 60.2395C21.495 61.8387 20.7193 64.3374 21.1584 68.0695C24.7771 63.9508 28.3958 59.8321 32.0144 55.7135L34.0393 48.8339L37.6138 42.4132Z" fill="#024731"/>
<path d="M68.1635 64.8367C68.9867 61.3046 73.1116 59.2417 77.3771 60.2288C81.6427 61.2159 84.4335 64.8796 83.6102 68.4117C83.228 70.0512 82.1331 71.3726 80.6441 72.2209C83.1477 73.009 85.6447 74.3185 87.7521 75.9003C88.3662 74.7234 89.3041 73.7377 90.5293 73.0989C94.0081 71.285 98.4744 72.9483 100.505 76.8143C102.535 80.6804 101.36 85.2852 97.8812 87.099C96.1106 88.0221 94.0852 88.0427 92.2545 87.3323C87.8368 93.6009 70.3856 97.3238 55.7858 95.951C42.7122 94.7217 28.5972 89.0936 28.9492 84.9171C29.2315 81.5738 38.5395 82.8456 61.1061 75.1961C65.4267 73.7316 68.6375 72.4933 71.5633 71.8553C68.9824 70.2475 67.5415 67.5052 68.1635 64.8367Z" fill="black"/>
<path d="M4.19312 62.6431C6.23695 62.3555 9.83206 62.1163 14.0571 63.2979C18.4621 64.5298 21.4943 66.7307 23.089 68.0743C23.9262 72.6134 24.7633 77.1524 25.6003 81.6915C22.759 82.4574 19.0441 83.1815 14.6628 83.3331C10.5368 83.4759 6.97664 83.0711 4.19312 82.5576V62.6431Z" fill="#6CF479"/>
<path d="M4.19312 82.5576C7.33729 82.5576 9.88603 78.0995 9.88603 72.6003C9.88603 67.1011 7.33729 62.6431 4.19312 62.6431C1.04895 62.6431 -1.5 67.1011 -1.5 72.6003C-1.5 78.0995 1.04895 82.5576 4.19312 82.5576Z" fill="white"/>
<path d="M69.2811 54.6292L70.3286 51.8788L68.6328 47.4887L39.0776 41.4812C36.8714 42.7538 34.0562 44.8927 32.779 48.3607C32.1951 49.9463 32.5307 50.1806 31.893 51.9122C30.6713 55.2292 28.7234 56.3316 25.5473 60.0701C25.275 60.3906 22.6666 63.474 21.7698 65.1766C18.3793 71.6132 24.8101 86.1086 36.0719 92.1033C48.0473 98.4779 67.013 96.0533 70.9677 85.5306C72.4665 81.5426 71.4861 77.2512 69.9109 73.6852C67.2382 67.6346 66.9271 60.8099 69.2811 54.6292Z" fill="#6CF479"/>
<path d="M60.896 67.4761C57.5764 75.6758 59.8004 83.3356 64.339 85.6268C67.0505 86.9957 70.1651 86.2346 71.9672 85.5754L63.0366 79.1787C62.3231 75.2778 61.6095 71.377 60.896 67.4761Z" fill="#024731"/>
<path d="M2.55121 80.9969C4.65512 80.9969 6.36067 78.2084 6.36067 74.7687C6.36067 71.3289 4.65512 68.5405 2.55121 68.5405C0.447304 68.5405 -1.25825 71.3289 -1.25825 74.7687C-1.25825 78.2084 0.447304 80.9969 2.55121 80.9969Z" fill="#11B67A"/>
<path d="M6.22463 69.1109C6.8894 69.1109 7.42831 68.3267 7.42831 67.3592C7.42831 66.3918 6.8894 65.6075 6.22463 65.6075C5.55985 65.6075 5.02095 66.3918 5.02095 67.3592C5.02095 68.3267 5.55985 69.1109 6.22463 69.1109Z" fill="#11B67A"/>
<path d="M2.57035 67.97C3.23513 67.97 3.77403 67.1857 3.77403 66.2183C3.77403 65.2508 3.23513 64.4666 2.57035 64.4666C1.90558 64.4666 1.36667 65.2508 1.36667 66.2183C1.36667 67.1857 1.90558 67.97 2.57035 67.97Z" fill="#11B67A"/>
<path d="M59.2696 92.6826C46.4807 94.9702 35.4509 86.0671 30.2887 81.9001C25.921 78.3747 22.8519 74.8022 20.8648 72.1884C20.9017 72.5118 20.9407 72.996 20.9242 73.5825C20.9242 73.5826 20.8664 75.6363 19.9626 77.6025C19.0005 79.6956 13.3269 82.7926 5.18362 82.7473C8.20541 83.2289 12.0527 83.5546 16.4801 83.232C19.6553 83.0007 22.4533 82.4851 24.7981 81.8991C24.797 81.8966 24.7958 81.8941 24.7946 81.8916C25.8766 83.6141 27.2336 85.3692 28.9433 87.0339C29.6473 87.7194 31.8149 89.7566 35.1955 91.6119C42.0736 95.3867 57.406 98.9951 66.7177 91.1978C67.9851 90.1366 68.8786 89.0835 69.4431 88.3464C65.4542 91.1373 61.8393 92.223 59.2696 92.6826Z" fill="black"/>
<path d="M46.6485 100.5C53.1709 100.5 58.4584 95.2314 58.4584 88.7324C58.4584 82.2333 53.1709 76.9647 46.6485 76.9647C40.126 76.9647 34.8385 82.2333 34.8385 88.7324C34.8385 95.2314 40.126 100.5 46.6485 100.5Z" fill="white"/>
<path d="M46.6482 98.358C50.5365 98.358 53.6887 95.2171 53.6887 91.3426C53.6887 87.4681 50.5365 84.3272 46.6482 84.3272C42.7598 84.3272 39.6076 87.4681 39.6076 91.3426C39.6076 95.2171 42.7598 98.358 46.6482 98.358Z" fill="#11B67A"/>
<path d="M40.7052 85.5853C41.9595 85.5853 42.9764 84.5722 42.9764 83.3223C42.9764 82.0725 41.9595 81.0593 40.7052 81.0593C39.4509 81.0593 38.4341 82.0725 38.4341 83.3223C38.4341 84.5722 39.4509 85.5853 40.7052 85.5853Z" fill="#11B67A"/>
<path d="M52.6703 85.5853C53.9246 85.5853 54.9414 84.5722 54.9414 83.3223C54.9414 82.0725 53.9246 81.0593 52.6703 81.0593C51.416 81.0593 50.3992 82.0725 50.3992 83.3223C50.3992 84.5722 51.416 85.5853 52.6703 85.5853Z" fill="#11B67A"/>
<path d="M46.688 83.3224C47.9423 83.3224 48.9591 82.3092 48.9591 81.0593C48.9591 79.8095 47.9423 78.7963 46.688 78.7963C45.4337 78.7963 44.4168 79.8095 44.4168 81.0593C44.4168 82.3092 45.4337 83.3224 46.688 83.3224Z" fill="#11B67A"/>
<path d="M68.7538 47.7663C66.5933 49.1101 63.1749 50.7988 58.7432 51.3084C47.6672 52.5819 39.5627 45.4199 38.101 44.0818C40.677 48.3874 43.7088 50.5847 45.4595 51.6403C45.4595 51.6403 54.0703 56.8319 66.5569 53.6075C66.6323 53.588 68.8246 53.0194 68.8246 53.0194C69.3369 52.8405 69.8491 52.6616 70.3614 52.4827C70.2708 52.021 70.1574 51.5365 70.0159 51.0336C69.6621 49.7758 69.2113 48.6842 68.7538 47.7663Z" fill="#024731"/>
<path d="M70.2721 51.4779C70.6278 51.522 71.2019 51.6864 72.6251 53.3852C74.9718 56.1864 77.0341 60.0641 78.908 71.2722C79.8203 76.7291 79.7171 78.1108 79.1223 79.5861C78.9326 80.0564 77.1843 84.2021 73.0055 85.2447C72.6274 85.3391 71.0209 85.7095 69.2141 85.2658C64.3995 84.0836 61.5038 77.7909 60.6522 73.3864C58.5973 62.7579 66.1123 50.9615 70.2721 51.4779Z" fill="#11B67A"/>
<path d="M89.1334 24.3983C84.8912 27.7551 78.0037 25.8958 75.2622 21.2468C73.0175 17.44 73.4851 11.6487 77.632 8.83861C81.7618 6.04009 87.2944 7.72027 90.0847 11.1999C93.1938 15.077 93.0115 21.3296 89.1334 24.3983Z" fill="#11B67A"/>
<path d="M86.7455 23.4006C83.7154 25.7982 78.7961 24.4702 76.8379 21.1496C75.2346 18.4307 75.5686 14.2942 78.5305 12.287C81.4803 10.2882 85.432 11.4882 87.425 13.9736C89.6457 16.7428 89.5154 21.2088 86.7455 23.4006Z" fill="white"/>
<path d="M47.6206 7.34952C48.7973 12.6184 44.1095 17.9791 38.7148 18.4049C34.2976 18.7536 29.2739 15.804 28.5491 10.8594C27.8273 5.93521 31.7614 1.71058 36.1217 0.730094C40.9802 -0.362403 46.5449 2.53284 47.6206 7.34952Z" fill="#11B67A"/>
<path d="M45.6769 9.05378C46.5173 12.8171 43.1691 16.646 39.3159 16.9501C36.1608 17.1992 32.5727 15.0924 32.055 11.5607C31.5394 8.04355 34.3494 5.02608 37.4638 4.3258C40.9339 3.5455 44.9086 5.61346 45.6769 9.05378Z" fill="white"/>
<path d="M43.7243 16.1259C46.4808 13.4039 46.6239 9.08235 44.2787 6.4001C42.2289 4.05564 38.6437 3.38168 35.6582 4.89774C38.6482 4.56571 41.5728 5.9144 43.205 8.38237C45.5956 11.997 43.8253 15.9126 43.7243 16.1259Z" fill="#024731"/>
<path d="M80.2968 26.9786C81.5377 39.8257 70.2249 49.7355 58.9727 51.248C49.197 52.5621 38.3252 47.6915 34.6699 39.6383C33.1221 36.2282 33.2851 33.1655 33.3948 31.4764C33.9374 23.1272 40.0874 8.61016 54.7189 7.20706C67.6705 5.96502 79.1221 14.8171 80.2968 26.9786Z" fill="#6CF479"/>
<path d="M46.4597 26.1104C47.7235 26.1104 48.748 25.0896 48.748 23.8303C48.748 22.5711 47.7235 21.5502 46.4597 21.5502C45.196 21.5502 44.1715 22.5711 44.1715 23.8303C44.1715 25.0896 45.196 26.1104 46.4597 26.1104Z" fill="black"/>
<path d="M47.2182 24.0248C47.5777 24.0248 47.8692 23.7343 47.8692 23.376C47.8692 23.0177 47.5777 22.7272 47.2182 22.7272C46.8586 22.7272 46.5671 23.0177 46.5671 23.376C46.5671 23.7343 46.8586 24.0248 47.2182 24.0248Z" fill="white"/>
<path d="M62.4483 29.1883C63.7121 29.1883 64.7365 28.1675 64.7365 26.9082C64.7365 25.649 63.7121 24.6282 62.4483 24.6282C61.1845 24.6282 60.16 25.649 60.16 26.9082C60.16 28.1675 61.1845 29.1883 62.4483 29.1883Z" fill="black"/>
<path d="M63.4193 27.1621C63.7789 27.1621 64.0704 26.8716 64.0704 26.5133C64.0704 26.155 63.7789 25.8646 63.4193 25.8646C63.0597 25.8646 62.7682 26.155 62.7682 26.5133C62.7682 26.8716 63.0597 27.1621 63.4193 27.1621Z" fill="white"/>
<path d="M67.7732 40.951C69.0898 35.3022 63.37 29.1522 54.9975 27.2147C46.6251 25.2772 38.7705 28.2858 37.4539 33.9347C36.1373 39.5835 41.8571 45.7335 50.2295 47.671C58.602 49.6086 66.4565 46.5999 67.7732 40.951Z" fill="white"/>
<path d="M46.3193 29.4688C47.1072 27.5983 53.0176 28.6125 53.6485 28.7251C54.681 28.9095 59.5645 29.7813 59.7189 31.5976C59.8627 33.2891 55.9076 35.8292 52.2645 35.2491C48.6325 34.6706 45.6552 31.0457 46.3193 29.4688Z" fill="black"/>
<path d="M83.7584 11.5601C86.2266 13.1032 87.4781 16.0297 86.8855 18.8716C86.2924 21.7159 83.9711 23.9044 81.0875 24.3377C81.4915 24.4725 83.6024 25.1319 85.7853 24.0092C87.6639 23.0432 88.3835 21.3809 88.5889 20.8857C89.85 17.8446 88.1753 15.0308 87.9757 14.7076C86.5807 12.4503 84.3519 11.7312 83.7584 11.5601Z" fill="#024731"/>
<path d="M49.1497 29.1033C49.0818 29.1047 49.0699 29.1994 49.1347 29.2198C49.7161 29.4026 50.5054 29.7409 51.277 30.3835C51.8466 30.8578 52.2375 31.3569 52.4964 31.7513C52.791 31.502 53.1557 31.2404 53.5973 31.0084C54.7106 30.4236 55.794 30.2997 56.5427 30.2978C56.6111 30.2977 56.6267 30.2029 56.5616 30.182C55.6137 29.8782 54.5081 29.5925 53.2626 29.3907C51.7164 29.1402 50.3232 29.0787 49.1497 29.1033Z" fill="white"/>
<path d="M51.0474 87.5169C51.2089 87.6767 53.2517 89.7683 52.6706 92.6422C52.226 94.8419 50.4275 96.593 48.1208 97.0566C48.2553 96.9862 49.2996 96.4173 49.5005 95.2236C49.618 94.5252 49.3874 93.9654 49.2775 93.7378C49.6887 93.3972 50.5749 92.5684 51.0473 91.1828C51.632 89.468 51.2087 87.9982 51.0474 87.5169Z" fill="white"/>
<path d="M3.97183 70.6513C4.359 71.1704 5.79331 73.2205 5.57139 76.1254C5.37256 78.7281 3.96626 80.4212 3.49801 80.9408C3.54971 80.8061 4.10408 79.293 3.21928 78.1288C2.89916 77.7076 2.50091 77.4772 2.22432 77.3537C2.63103 77.0992 3.70584 76.3508 4.26447 74.9212C5.08602 72.8187 4.127 70.9428 3.97183 70.6513Z" fill="white"/>
</g>
</g>
</g>
</g>
<defs>
<clipPath id="clip0_4483_4">
<rect width="100" height="100" fill="white"/>
</clipPath>
</defs>
</svg>
