<svg width="100" height="100" viewBox="0 0 100 100" fill="none" xmlns="http://www.w3.org/2000/svg">
<rect width="100" height="100" fill="#1E1E1E"/>
<g id="Default">
<path d="M-105 -29591C-105 -29592.1 -104.105 -29593 -103 -29593H1103C1104.1 -29593 1105 -29592.1 1105 -29591V3615C1105 3616.11 1104.1 3617 1103 3617H-103C-104.105 3617 -105 3616.11 -105 3615V-29591Z" fill="white"/>
<path d="M-103 -29593V-29592H1103V-29593V-29594H-103V-29593ZM1105 -29591H1104V3615H1105H1106V-29591H1105ZM1103 3617V3616H-103V3617V3618H1103V3617ZM-105 3615H-104V-29591H-105H-106V3615H-105ZM-103 3617V3616C-103.552 3616 -104 3615.55 -104 3615H-105H-106C-106 3616.66 -104.657 3618 -103 3618V3617ZM1105 3615H1104C1104 3615.55 1103.55 3616 1103 3616V3617V3618C1104.66 3618 1106 3616.66 1106 3615H1105ZM1103 -29593V-29592C1103.55 -29592 1104 -29591.6 1104 -29591H1105H1106C1106 -29592.7 1104.66 -29594 1103 -29594V-29593ZM-103 -29593V-29594C-104.656 -29594 -106 -29592.7 -106 -29591H-105H-104C-104 -29591.6 -103.553 -29592 -103 -29592V-29593Z" fill="white" fill-opacity="0.1"/>
<g id="_Thought Bubble">
<rect x="-24.5" y="-24.5" width="1049" height="149" rx="4.5" stroke="#9747FF" stroke-dasharray="10 5"/>
<g id="Brand=Lloyds - V2" clip-path="url(#clip0_4483_4)">
<rect width="100" height="100" fill="#C7FFC6"/>
<g id="Path">
<path d="M66.8509 74.913C66.8509 80.7444 71.5955 85.4897 77.4262 85.4897C83.2569 85.4897 88.0015 80.7444 88.0015 74.913C88.0015 70.6842 85.4824 66.8648 81.5923 65.1911L80.524 64.7281L81.4676 64.0515C89.8353 58.0598 94.4375 49.9582 94.4375 41.2423C94.4375 23.9618 75.9574 9.90415 53.2489 9.90415C30.5405 9.90415 12.0604 23.9618 12.0604 41.2423C12.0604 58.5228 30.5405 72.5805 53.2489 72.5805C57.7799 72.5805 62.2487 72.0196 66.5482 70.8978L67.6966 70.604L67.3405 71.7347C67.02 72.7585 66.8509 73.8358 66.8509 74.913Z" fill="#11B67A"/>
<path d="M67.6343 100.473C70.3678 100.473 72.5837 98.2565 72.5837 95.5227C72.5837 92.7889 70.3678 90.5726 67.6343 90.5726C64.9008 90.5726 62.6849 92.7889 62.6849 95.5227C62.6849 98.2565 64.9008 100.473 67.6343 100.473Z" fill="#11B67A"/>
<path d="M26.0896 16.1418C33.4603 11.4232 42.9318 8.58317 53.249 8.58317C57.6732 8.58317 61.9371 9.10848 65.9518 10.07C60.3259 7.9244 53.9968 6.70468 47.2848 6.70468C36.7362 6.70468 27.1045 9.69606 19.7516 14.6194L26.0896 16.1329V16.1418Z" fill="black"/>
<path d="M20.535 20.4185C21.5052 19.5193 22.5468 18.6646 23.6329 17.8544L17.366 16.3587C16.3245 17.1778 15.3364 18.0325 14.4106 18.9317L20.535 20.4185Z" fill="black"/>
<path d="M65.5336 74.9081C65.5336 74.0712 65.6226 73.2432 65.7918 72.433C63.9847 72.8604 62.1331 73.1808 60.2726 73.4212C60.7266 78.3356 64.3407 82.3241 69.0587 83.348C66.8777 81.1935 65.5336 78.2021 65.5336 74.9081Z" fill="black"/>
<path d="M10.743 41.2373C10.743 35.299 12.826 29.7259 16.4579 24.9183L10.4848 23.4671C7.27125 27.9987 5.4375 33.1891 5.4375 38.7089C5.4375 50.4162 13.6628 60.6456 25.9294 66.2188C16.6538 60.2272 10.7519 51.253 10.7519 41.2373H10.743Z" fill="black"/>
<path d="M61.3675 95.5205C61.3675 92.5648 63.4238 90.0897 66.1745 89.4309C65.2309 88.7187 64.0648 88.2913 62.8008 88.2913C59.703 88.2913 57.1926 90.8019 57.1926 93.9001C57.1926 96.9984 59.703 99.509 62.8008 99.509C61.9017 98.4229 61.3675 97.034 61.3675 95.5205Z" fill="black"/>
<path d="M56.6586 14.4879C56.6586 14.4879 70.7501 13.9004 81.0673 23.382C91.3844 32.8635 89.07 47.1615 89.07 47.1615C89.07 47.1615 87.8504 24.1209 68.7116 23.4531C68.7116 23.4531 67.5277 16.7226 56.6497 14.4879H56.6586Z" fill="white"/>
<path d="M22.787 69.9986C22.787 69.9986 25.1371 77.7975 34.6798 79.952C34.6798 79.952 27.4515 81.1984 27.3091 89.8787C27.3091 89.8787 24.7632 82.3559 15.6211 79.9432C15.6211 79.9432 23.2588 79.0351 22.787 69.9986Z" fill="#006A4D"/>
<path d="M81.9572 0.481568C81.9572 0.481568 83.5952 5.90344 90.227 7.39913C90.227 7.39913 85.1975 8.26271 85.0996 14.2989C85.0996 14.2989 83.3281 9.07286 76.9723 7.39022C76.9723 7.39022 82.2866 6.75809 81.9572 0.472656V0.481568Z" fill="#006A4D"/>
</g>
</g>
</g>
</g>
<defs>
<clipPath id="clip0_4483_4">
<rect width="100" height="100" fill="white"/>
</clipPath>
</defs>
</svg>
