<svg width="100" height="100" viewBox="0 0 100 100" fill="none" xmlns="http://www.w3.org/2000/svg">
<rect width="100" height="100" fill="#1E1E1E"/>
<g id="Default">
<path d="M-105 -29803C-105 -29804.1 -104.105 -29805 -103 -29805H1103C1104.1 -29805 1105 -29804.1 1105 -29803V3403C1105 3404.11 1104.1 3405 1103 3405H-103C-104.105 3405 -105 3404.11 -105 3403V-29803Z" fill="white"/>
<path d="M-103 -29805V-29804H1103V-29805V-29806H-103V-29805ZM1105 -29803H1104V3403H1105H1106V-29803H1105ZM1103 3405V3404H-103V3405V3406H1103V3405ZM-105 3403H-104V-29803H-105H-106V3403H-105ZM-103 3405V3404C-103.552 3404 -104 3403.55 -104 3403H-105H-106C-106 3404.66 -104.657 3406 -103 3406V3405ZM1105 3403H1104C1104 3403.55 1103.55 3404 1103 3404V3405V3406C1104.66 3406 1106 3404.66 1106 3403H1105ZM1103 -29805V-29804C1103.55 -29804 1104 -29803.6 1104 -29803H1105H1106C1106 -29804.7 1104.66 -29806 1103 -29806V-29805ZM-103 -29805V-29806C-104.656 -29806 -106 -29804.7 -106 -29803H-105H-104C-104 -29803.6 -103.553 -29804 -103 -29804V-29805Z" fill="white" fill-opacity="0.1"/>
<g id="Tick">
<rect x="-24.5" y="-24.5" width="1049" height="149" rx="4.5" stroke="#9747FF" stroke-dasharray="10 5"/>
<g id="Brand=Lloyds - V2">
<rect width="100" height="100" fill="#C7FFC6"/>
<g id="Path">
<path d="M34.0809 59.1338C59.8248 33.6312 88.1154 20.174 96.8188 16.3942L89.7863 16.1082C89.7863 16.1082 59.5567 27.0813 29.6667 55.4612C31.6415 56.9714 33.1695 58.2939 34.0809 59.1249V59.1338Z" fill="black"/>
<path d="M23.4833 70.8307L16.9513 69.5708C17.4964 70.4286 18.0325 71.2864 18.5508 72.1353L25.1007 73.3953C24.5645 72.5374 24.0194 71.6796 23.4744 70.8218L23.4833 70.8307Z" fill="black"/>
<path d="M21.4637 67.7119C14.4938 57.0962 7.4256 47.535 7.31837 47.3831L7.05926 47.0257C4.80745 46.1142 2.43052 45.3636 0 44.8989C0 44.8989 7.66691 55.2376 14.9585 66.452L21.4637 67.703V67.7119Z" fill="black"/>
<path d="M28.2369 78.5512L21.6334 77.2823C22.8397 79.3733 23.9299 81.3838 24.8592 83.2425L31.5789 84.5918C30.6049 82.6974 29.479 80.66 28.2369 78.5512Z" fill="black"/>
<path d="M25.8422 15C25.8422 15 28.2012 22.8277 37.7803 24.9902C37.7803 24.9902 30.5245 26.2412 30.3815 34.9535C30.3815 34.9535 27.8259 27.4028 18.6489 24.9812C18.6489 24.9812 26.3158 24.0698 25.8422 15Z" fill="white"/>
<path d="M61.9427 69.1059C61.9427 69.1059 63.6584 74.798 70.6283 76.3796C70.6283 76.3796 65.3472 77.291 65.2489 83.6265C65.2489 83.6265 63.3903 78.131 56.7153 76.3706C56.7153 76.3706 62.3002 75.7094 61.9517 69.1059H61.9427Z" fill="white"/>
<path d="M87.5434 52.1637C87.5434 52.1637 88.7855 56.2831 93.8252 57.4179C93.8252 57.4179 90.0097 58.0792 89.9292 62.6632C89.9292 62.6632 88.5889 58.6868 83.7547 57.4179C83.7547 57.4179 87.7936 56.9354 87.5434 52.1637Z" fill="white"/>
<path d="M8.39078 46.5879C8.39078 46.5879 26.021 70.3748 33.25 84.9311C33.25 84.9311 61.8712 46.1679 100 16.5191C100 16.5191 65.2221 29.744 34.1079 60.9923C34.1079 60.9923 22.2591 49.2328 8.39078 46.5789V46.5879Z" fill="#6CF479"/>
</g>
</g>
</g>
</g>
</svg>
