<svg width="100" height="100" viewBox="0 0 100 100" fill="none" xmlns="http://www.w3.org/2000/svg">
<rect width="100" height="100" fill="#1E1E1E"/>
<g id="Default">
<path d="M-105 -30227C-105 -30228.1 -104.105 -30229 -103 -30229H1103C1104.1 -30229 1105 -30228.1 1105 -30227V2979C1105 2980.11 1104.1 2981 1103 2981H-103C-104.105 2981 -105 2980.11 -105 2979V-30227Z" fill="white"/>
<path d="M-103 -30229V-30228H1103V-30229V-30230H-103V-30229ZM1105 -30227H1104V2979H1105H1106V-30227H1105ZM1103 2981V2980H-103V2981V2982H1103V2981ZM-105 2979H-104V-30227H-105H-106V2979H-105ZM-103 2981V2980C-103.552 2980 -104 2979.55 -104 2979H-105H-106C-106 2980.66 -104.657 2982 -103 2982V2981ZM1105 2979H1104C1104 2979.55 1103.55 2980 1103 2980V2981V2982C1104.66 2982 1106 2980.66 1106 2979H1105ZM1103 -30229V-30228C1103.55 -30228 1104 -30227.6 1104 -30227H1105H1106C1106 -30228.7 1104.66 -30230 1103 -30230V-30229ZM-103 -30229V-30230C-104.656 -30230 -106 -30228.7 -106 -30227H-105H-104C-104 -30227.6 -103.553 -30228 -103 -30228V-30229Z" fill="white" fill-opacity="0.1"/>
<g id="_Traffic Lights">
<rect x="-24.5" y="-24.5" width="1049" height="149" rx="4.5" stroke="#9747FF" stroke-dasharray="10 5"/>
<g id="Brand=Lloyds - V2" clip-path="url(#clip0_4483_4)">
<rect width="100" height="100" fill="#C7FFC6"/>
<g id="Path">
<path d="M22.4834 78.2608H14.8131V98.5H22.4834V78.2608Z" fill="black"/>
<path d="M31.8898 14.6765H8.21318C6.66302 14.6765 5.40637 15.937 5.40637 17.4918V80.0777C5.40637 81.6325 6.66302 82.8929 8.21318 82.8929H31.8898C33.44 82.8929 34.6967 81.6325 34.6967 80.0777V17.4918C34.6967 15.937 33.44 14.6765 31.8898 14.6765Z" fill="#11B67A"/>
<path d="M74.4476 77.0125H66.7774V98.4945H74.4476V77.0125Z" fill="black"/>
<path d="M85.2785 27.6087H55.9376L41.2714 53.0979L55.9376 78.5786H85.2785L99.9531 53.0979L85.2785 27.6087Z" fill="#6CF479"/>
<path d="M85.2785 25.3829H55.9376L41.2714 50.8721V53.0955L55.9376 27.6063H85.2785L99.9531 53.0955V50.8721L85.2785 25.3829Z" fill="black"/>
<path d="M83.3395 30.9904H57.8928L45.1652 53.0979L57.8928 75.2054H83.3395L96.0671 53.0979L83.3395 30.9904ZM82.6062 73.9289H58.6177L46.6234 53.0895L58.6177 32.25H82.6062L94.6005 53.0895L82.6062 73.9289ZM62.0651 55.1607H61.9808L60.3035 48.7356H58.4828L56.8055 55.1438H56.7296L55.204 48.7356H53.0799L55.7097 57.959H57.6062L59.351 51.9312H59.4269L61.1801 57.959H63.0766L65.7064 48.7356H63.5823L62.0567 55.1607H62.0651ZM69.1285 48.744L65.9508 57.9675H68.0327L68.7155 55.8624H72.0364L72.7192 57.9675H74.8011L71.6319 48.744H69.1285ZM69.2128 54.3407L70.3422 50.8491H70.4181L71.5476 54.3407H69.2128ZM80.3641 48.744V50.3503H83.1794V57.9675H85.1012V50.3503H87.9164V48.744H80.3641ZM76.5374 57.9675H78.4845V48.744H76.5374V57.9675Z" fill="#00482F"/>
<path d="M5.65103 16.3433C6.08933 15.3627 7.06708 14.6779 8.21341 14.6779H31.8901C32.2357 14.6779 32.556 14.7455 32.8594 14.8639L28.6702 12.0994C27.7515 11.4907 26.681 11.1694 25.5853 11.1694H3.45953C2.11934 11.1694 0.964588 11.9303 0.374568 13.0378L5.65103 16.3433Z" fill="black"/>
<path d="M5.4066 18.6817L-0.046875 15.2578V18.9691L5.4066 22.4776V18.6817Z" fill="black"/>
<path d="M6.82235 82.5077L6.95721 82.6092H6.99935C6.94035 82.5753 6.87292 82.5415 6.81392 82.5077H6.82235Z" fill="black"/>
<path d="M5.40637 80.0777L5.4066 28.4998L-0.046875 24.9998V75.6147C-0.046875 76.7222 0.475714 77.7705 1.36074 78.4384L6.21577 82.0736C5.71004 81.5664 5.39817 80.8647 5.39817 80.0954L5.40637 80.0777Z" fill="black"/>
<path d="M20.0474 36.5466C24.4884 36.5466 28.0885 32.9356 28.0885 28.4813C28.0885 24.027 24.4884 20.4161 20.0474 20.4161C15.6064 20.4161 12.0062 24.027 12.0062 28.4813C12.0062 32.9356 15.6064 36.5466 20.0474 36.5466Z" fill="black"/>
<path d="M19.761 24.9029C19.761 24.9029 26.6221 24.2096 24.7678 32.5961C25.7287 31.4971 26.3102 30.0599 26.3102 28.479C26.3102 25.0128 23.5119 22.206 20.056 22.206C19.1541 22.206 18.3028 22.4004 17.5274 22.7471C17.5274 22.7471 19.5924 22.8147 19.7695 24.9113L19.761 24.9029Z" fill="white"/>
<path d="M20.0474 56.8497C24.4884 56.8497 28.0885 53.2388 28.0885 48.7845C28.0885 44.3302 24.4884 40.7192 20.0474 40.7192C15.6064 40.7192 12.0062 44.3302 12.0062 48.7845C12.0062 53.2388 15.6064 56.8497 20.0474 56.8497Z" fill="#6CF479"/>
<path d="M19.761 45.272C19.761 45.272 26.6221 44.5788 24.7678 52.9653C25.7287 51.8662 26.3102 50.429 26.3102 48.8481C26.3102 45.3819 23.5119 42.5752 20.056 42.5752C19.1541 42.5752 18.3028 42.7696 17.5274 43.1162C17.5274 43.1162 19.5924 43.1839 19.7695 45.2805L19.761 45.272Z" fill="white"/>
<path d="M20.0474 77.1594C24.4884 77.1594 28.0885 73.5485 28.0885 69.0942C28.0885 64.6399 24.4884 61.0289 20.0474 61.0289C15.6064 61.0289 12.0062 64.6399 12.0062 69.0942C12.0062 73.5485 15.6064 77.1594 20.0474 77.1594Z" fill="black"/>
<path d="M19.761 65.6346C19.761 65.6346 26.6221 64.9413 24.7678 73.3278C25.7287 72.2288 26.3102 70.7916 26.3102 69.2107C26.3102 65.7445 23.5119 62.9377 20.056 62.9377C19.1541 62.9377 18.3028 63.1322 17.5274 63.4788C17.5274 63.4788 19.5924 63.5464 19.7695 65.643L19.761 65.6346Z" fill="white"/>
<path d="M69.4405 1.50329C68.016 1.54556 66.6505 2.12044 65.5211 2.99967C64.7456 3.59991 63.8943 4.45378 63.3886 5.519C63.3886 5.519 57.8171 0.387343 52.0433 8.62166C52.0433 8.62166 54.1337 6.60958 57.1933 6.27141C59.7051 5.99243 62.1411 7.23518 63.5571 9.33181L63.5908 9.38253C63.5908 9.38253 64.7287 6.27987 67.9317 4.5045C69.4321 3.66754 71.2105 3.3801 72.871 3.81972C73.6128 4.01416 74.3882 4.36078 74.9867 4.96102C74.9867 4.96102 73.4273 1.37648 69.4321 1.50329H69.4405ZM84.1826 16.2896C84.1404 15.461 83.8117 14.6917 83.4745 14.0999C82.9772 13.2376 82.2523 12.5106 81.3505 12.0963C78.8134 10.955 75.6104 12.5359 75.6104 12.5359C76.1498 12.3077 77.9958 12.6036 78.5268 12.6712C79.7153 12.8318 80.7857 13.4912 81.5275 14.4212C83.1205 16.4164 83.0362 18.7159 83.0362 18.7159L83.0784 18.6905C84.545 17.7183 86.4415 17.5661 87.984 18.4115C89.8636 19.4429 90.6812 21.2944 90.6812 21.2944C89.1387 14.455 84.191 16.2811 84.191 16.2811L84.1826 16.2896Z" fill="#006A4D"/>
</g>
</g>
</g>
</g>
<defs>
<clipPath id="clip0_4483_4">
<rect width="100" height="100" fill="white"/>
</clipPath>
</defs>
</svg>
