<svg width="100" height="100" viewBox="0 0 100 100" fill="none" xmlns="http://www.w3.org/2000/svg">
<rect width="100" height="100" fill="#1E1E1E"/>
<g id="Default">
<path d="M-105 -30439C-105 -30440.1 -104.105 -30441 -103 -30441H1103C1104.1 -30441 1105 -30440.1 1105 -30439V2767C1105 2768.11 1104.1 2769 1103 2769H-103C-104.105 2769 -105 2768.11 -105 2767V-30439Z" fill="white"/>
<path d="M-103 -30441V-30440H1103V-30441V-30442H-103V-30441ZM1105 -30439H1104V2767H1105H1106V-30439H1105ZM1103 2769V2768H-103V2769V2770H1103V2769ZM-105 2767H-104V-30439H-105H-106V2767H-105ZM-103 2769V2768C-103.552 2768 -104 2767.55 -104 2767H-105H-106C-106 2768.66 -104.657 2770 -103 2770V2769ZM1105 2767H1104C1104 2767.55 1103.55 2768 1103 2768V2769V2770C1104.66 2770 1106 2768.66 1106 2767H1105ZM1103 -30441V-30440C1103.55 -30440 1104 -30439.6 1104 -30439H1105H1106C1106 -30440.7 1104.66 -30442 1103 -30442V-30441ZM-103 -30441V-30442C-104.656 -30442 -106 -30440.7 -106 -30439H-105H-104C-104 -30439.6 -103.553 -30440 -103 -30440V-30441Z" fill="white" fill-opacity="0.1"/>
<g id="_Traffic Sign">
<rect x="-24.5" y="-24.5" width="1049" height="149" rx="4.5" stroke="#9747FF" stroke-dasharray="10 5"/>
<g id="Brand=Lloyds - V2">
<rect width="100" height="100" fill="#C7FFC6"/>
<g id="Path">
<path d="M55.4251 73.2729H47.3736V100H55.4251V73.2729Z" fill="#6CF479"/>
<path d="M47.2665 94.5374C47.2665 94.5374 47.8734 87.085 55.4607 87.991V73.2729H47.2665V94.5374Z" fill="black"/>
<path d="M78.5884 3.77528L25.0042 17.5963C22.362 18.2802 20.5143 20.6519 20.5143 23.3788V81.4874C20.5143 84.2765 23.1654 86.3194 25.879 85.6177L79.4632 71.7967C82.1054 71.1127 83.9531 68.7412 83.9531 66.0143V7.90557C83.9531 5.11649 81.302 3.07357 78.5884 3.77528Z" fill="#11B67A"/>
<path d="M19.604 20.9114C20.4073 18.682 22.264 16.9233 24.6651 16.3104L78.2494 2.48935C78.7135 2.36499 79.1955 2.31169 79.6686 2.31169C80.9272 2.31169 82.0876 2.72917 83.0249 3.43088L83.1409 3.29762L78.7224 0.721759C77.7495 0.0822256 76.5266 -0.184277 75.2769 0.13549L20.443 14.2852C18.3186 14.8359 16.7297 16.4791 16.1763 18.5132L19.604 20.9114Z" fill="black"/>
<path d="M19.1755 81.4866V33.8858L15.9531 31.6297V78.1734C15.9531 79.5946 16.6404 80.8115 17.6759 81.5843L19.3362 82.8012C19.238 82.3837 19.1755 81.9396 19.1755 81.4866Z" fill="black"/>
<path d="M19.1755 27.3567V23.3685C19.1755 23.3685 19.1755 23.3329 19.1755 23.3241L15.9531 21.0679V25.1005L19.1755 27.3567Z" fill="black"/>
<path d="M58.3798 12.2425L78.2228 7.33054C79.3029 7.06407 80.3473 7.87235 80.3473 8.98265V28.7549C80.3473 28.7549 79.6867 9.14252 58.3798 12.2425Z" fill="white"/>
<path d="M56.6391 32.8249V23.978L52.6134 20.9847L48.5877 26.0032V34.7968C42.7499 37.9589 38.4832 44.3898 38.4832 50.7407C38.4832 57.0916 42.7499 61.364 48.5877 61.5861V71.3656L56.6391 69.3316V59.4899C62.3698 56.2922 66.5294 49.9324 66.5294 43.6525C66.5294 37.3727 62.3698 33.118 56.6391 32.816V32.8249ZM52.5063 53.9029C48.793 54.8444 45.7759 52.606 45.7759 48.9021C45.7759 45.1981 48.793 41.4497 52.5063 40.5082C56.2196 39.5666 59.2367 41.805 59.2367 45.509C59.2367 49.2129 56.2285 52.9613 52.5063 53.9029Z" fill="black"/>
</g>
</g>
</g>
</g>
</svg>
