<svg width="100" height="100" viewBox="0 0 100 100" fill="none" xmlns="http://www.w3.org/2000/svg">
<rect width="100" height="100" fill="#1E1E1E"/>
<g id="Default">
<path d="M-105 -30651C-105 -30652.1 -104.105 -30653 -103 -30653H1103C1104.1 -30653 1105 -30652.1 1105 -30651V2555C1105 2556.11 1104.1 2557 1103 2557H-103C-104.105 2557 -105 2556.11 -105 2555V-30651Z" fill="white"/>
<path d="M-103 -30653V-30652H1103V-30653V-30654H-103V-30653ZM1105 -30651H1104V2555H1105H1106V-30651H1105ZM1103 2557V2556H-103V2557V2558H1103V2557ZM-105 2555H-104V-30651H-105H-106V2555H-105ZM-103 2557V2556C-103.552 2556 -104 2555.55 -104 2555H-105H-106C-106 2556.66 -104.657 2558 -103 2558V2557ZM1105 2555H1104C1104 2555.55 1103.55 2556 1103 2556V2557V2558C1104.66 2558 1106 2556.66 1106 2555H1105ZM1103 -30653V-30652C1103.55 -30652 1104 -30651.6 1104 -30651H1105H1106C1106 -30652.7 1104.66 -30654 1103 -30654V-30653ZM-103 -30653V-30654C-104.656 -30654 -106 -30652.7 -106 -30651H-105H-104C-104 -30651.6 -103.553 -30652 -103 -30652V-30653Z" fill="white" fill-opacity="0.1"/>
<g id="_Trees">
<rect x="-24.5" y="-24.5" width="1049" height="149" rx="4.5" stroke="#9747FF" stroke-dasharray="10 5"/>
<g id="Brand=Lloyds - V2" clip-path="url(#clip0_4483_4)">
<rect width="100" height="100" fill="#C7FFC6"/>
<g id="Path">
<path d="M31.7986 95.7636C31.7986 95.7636 35.9939 92.4507 38.9724 91.7456L41.7722 91.924L46.6654 90.0042L49.1162 88.0845C49.1162 88.0845 50.3417 87.0396 51.3884 86.8612C52.4351 86.6829 58.0346 87.7362 58.0346 87.7362C58.0346 87.7362 61.1833 88.781 62.7576 91.5757C62.7576 91.5757 65.0298 91.5757 65.7276 94.5403C65.7276 94.5403 67.8295 94.192 69.9229 96.4601C69.9229 96.4601 70.4505 97.8532 66.953 98.21C63.4554 98.5583 62.7576 99.7815 59.9578 99.9599C57.1581 100.138 52.2648 98.3884 52.2648 98.3884L44.9208 97.8617C44.9208 97.8617 40.7254 98.5583 38.0958 97.8617C35.4748 97.1652 31.7986 95.7636 31.7986 95.7636Z" fill="black"/>
<path d="M43.0997 51.5287C41.2785 51.5287 40.6829 51.9109 40.4786 52.1658C40.4106 52.2592 40.385 52.3781 40.3765 52.497L39.8319 94.044C40.5978 94.0695 41.8827 94.2139 42.9039 94.817C42.9039 94.817 44.1294 93.3645 45.4569 92.6509L45.8144 52.3951C45.8144 52.3951 45.8739 51.5287 43.0997 51.5287Z" fill="#6CF479"/>
<path d="M71.9825 65.3422C72.3143 65.0619 72.6122 64.7475 72.9185 64.4417C73.6419 63.6857 75.6928 61.9189 78.6968 62.2586C79.9477 62.4031 80.9179 62.9722 81.5902 63.5498C83.2837 60.6107 86.4664 58.623 90.1086 58.623C95.5379 58.623 99.9375 63.0147 99.9375 68.4342V69.3771H59.1155C66.3234 69.3771 69.7784 67.2365 71.9739 65.3422H71.9825Z" fill="#006A4D"/>
<path d="M28.888 53.9423C28.888 53.9423 24.1821 43.7149 8.68551 53.9253L28.888 53.9423Z" fill="#006A4D"/>
<path d="M-0.0625 11.4178C-0.0625 11.4178 1.63947 9.03934 4.60943 8.13042C7.04327 7.3829 9.69844 8.14741 11.494 9.94826L11.5365 9.99923C11.5365 9.99923 12.0811 6.72032 14.9234 4.36732C16.2595 3.26302 17.97 2.64292 19.6975 2.76184C20.4719 2.81281 21.3059 3.01668 22.0123 3.49238C22.0123 3.49238 19.7912 0.247456 15.8596 1.1224C14.4555 1.4367 13.2044 2.25217 12.2598 3.33098C11.6046 4.07001 10.9238 5.07238 10.6175 6.21914C10.6175 6.21914 4.12439 2.2012 -0.0539818 11.4178H-0.0625Z" fill="#006A4D"/>
<path d="M51.9162 56.6403C50.5802 62.8753 49.4398 73.3066 49.7802 90.6101C49.7972 91.3067 50.3589 91.8588 51.0567 91.8588H51.0822C51.7885 91.8418 52.3502 91.2642 52.3332 90.5591C52.0354 75.3198 52.9289 65.5596 54.0181 59.418C53.4395 58.7299 52.631 57.7191 51.9246 56.6403H51.9162ZM80.3989 30.2561C80.3989 30.2561 77.0289 27.351 73.3782 28.5402C73.3782 28.5402 66.0852 30.5874 69.4125 37.9012C72.7399 45.2066 86.3814 50.1929 86.3814 50.1929C86.3814 50.1929 91.7085 42.5563 92.0404 33.2547C92.3723 23.9531 81.7264 25.2783 80.3904 30.2646L80.3989 30.2561ZM85.692 46.3194C85.692 46.3194 84.5688 39.1244 81.3861 32.1164C81.3861 32.1164 81.7604 28.9395 84.9431 28.1919C84.9431 28.1919 83.7262 30.0607 84.1943 32.3033C84.6623 34.5459 87.4706 39.031 85.692 46.3194ZM88.1599 16.8941L86.8069 15.0933C84.3135 11.7804 81.3349 8.84978 77.8884 6.54775C70.3316 1.50197 66.4 3.03099 64.7065 4.44959C63.5407 5.41797 63.2343 7.16784 64.1874 8.35708C65.481 9.97955 68.2041 10.5912 68.2041 10.5912C68.2041 10.5912 57.8902 8.59494 62.2132 15.2377C66.5362 21.8805 88.1684 16.9026 88.1684 16.9026L88.1599 16.8941ZM72.3995 6.18247C72.3995 6.18247 73.4037 8.37407 73.191 10.1324C73.191 10.1324 75.5567 8.14472 79.7691 9.13009C79.7691 9.13009 77.3778 9.27451 76.9608 10.4637C76.9608 10.4637 80.1946 10.1155 84.1943 13.8276C84.1943 13.8276 77.6672 11.7209 70.3657 10.88L69.0807 10.6931C69.0807 10.6931 72.1953 8.77332 72.4081 6.18247H72.3995ZM28.2245 22.2627V18.9159C28.2245 18.9159 15.6554 16.9621 13.4258 34.2486C13.4258 34.2486 30.7435 32.2948 38.5641 23.9361C46.3847 15.5775 31.0243 18.9159 28.2331 22.2627H28.2245ZM24.1909 29.7804C18.3871 30.8083 18.0127 30.8083 16.2341 31.8361C16.2341 31.8361 18.4807 29.0329 21.5698 27.5378C24.6589 26.0428 26.9992 24.5478 27.8416 23.1461C27.8416 23.1461 28.3097 24.4543 27.1864 25.5756C26.0631 26.6969 27.28 28.5657 32.2413 26.0428C32.2413 26.0428 29.9946 28.7526 24.1909 29.7804ZM58.5114 43.2613C59.0731 41.0187 59.507 38.5213 59.6602 35.8031C59.7623 33.9937 59.6347 32.6261 59.3368 31.6152C60.6218 27.4869 62.3238 23.1801 63.6513 20.0456C63.1237 19.2981 62.5195 18.3467 62.0429 17.3104C60.8005 20.1476 58.9369 24.6327 57.4306 29.1858C56.3073 28.7271 54.9457 29.0244 53.7969 29.4916C52.7246 20.9036 50.7929 14.023 49.9589 11.2877C51.1248 9.25751 53.2437 3.80399 42.351 4.00786C28.9819 4.2627 23.2548 11.2622 23.2548 11.2622C23.2548 11.2622 36.743 8.79881 47.3208 11.4151C47.9846 13.5218 50.2653 21.2519 51.3716 30.8168C51.3716 30.8168 47.8909 30.5789 45.6614 32.5921C43.9338 29.9843 42.4362 28.0645 41.1767 26.6459C41.1767 27.5718 41.0661 28.7696 40.7342 30.0947C41.7298 31.3689 42.8786 32.9659 44.1636 34.9621C43.9679 35.5992 43.8487 36.3297 43.8487 37.1707C43.8487 44.0598 53.4055 55.0858 53.4055 55.0858C53.4055 55.0858 53.5075 54.9413 53.6862 54.678L57.2774 49.3774C60.2729 44.5015 63.9918 40.7809 67.2341 38.1306C67.1915 37.2302 67.234 36.0069 67.5063 34.6563C64.7832 36.678 61.5409 39.5237 58.5114 43.2528V43.2613ZM53.3969 50.5921C53.3969 50.5921 53.8905 48.5704 53.048 43.5246C52.2055 38.4789 51.1077 37.536 51.3375 32.6516C51.3375 32.6516 52.3672 37.3236 54.4266 37.1367C54.4266 37.1367 55.4733 37.1282 56.5796 36.2023C56.5796 36.2023 57.703 40.6875 53.3969 50.5921Z" fill="#11B67A"/>
<path d="M54.2394 67.9041V66.0523C54.2394 65.4492 53.7968 64.9565 53.2352 64.8545C53.1075 65.9418 52.9969 67.1056 52.8948 68.3458C52.8778 68.5836 52.7331 68.8045 52.5289 68.9149C48.0016 71.3699 43.5765 72.1769 41.1426 72.4402C40.0534 72.4996 40.1299 71.8966 40.1299 71.8966L40.1555 70.0362C40.0789 70.0872 40.0108 70.1382 39.9427 70.1806C39.4832 70.4949 39.2194 71.0216 39.2194 71.5738V76.0844C39.2194 76.73 39.7726 77.1717 40.4193 77.1632C45.9593 77.0612 51.9672 74.1646 53.5756 72.9159C54.0011 72.5846 54.2479 72.1004 54.2479 71.4973V67.8956L54.2394 67.9041ZM50.6057 65.2368C48.8611 65.6445 47.1932 66.2646 45.6869 66.9357L45.6444 71.251C47.3464 70.5459 48.8952 70.0702 50.1887 69.7644C50.3078 68.057 50.4525 66.6894 50.6057 65.2283V65.2368Z" fill="black"/>
</g>
</g>
</g>
</g>
<defs>
<clipPath id="clip0_4483_4">
<rect width="100" height="100" fill="white"/>
</clipPath>
</defs>
</svg>
