<svg width="100" height="100" viewBox="0 0 100 100" fill="none" xmlns="http://www.w3.org/2000/svg">
<rect width="100" height="100" fill="#1E1E1E"/>
<g id="Default">
<path d="M-105 -32135C-105 -32136.1 -104.105 -32137 -103 -32137H1103C1104.1 -32137 1105 -32136.1 1105 -32135V1071C1105 1072.11 1104.1 1073 1103 1073H-103C-104.105 1073 -105 1072.11 -105 1071V-32135Z" fill="white"/>
<path d="M-103 -32137V-32136H1103V-32137V-32138H-103V-32137ZM1105 -32135H1104V1071H1105H1106V-32135H1105ZM1103 1073V1072H-103V1073V1074H1103V1073ZM-105 1071H-104V-32135H-105H-106V1071H-105ZM-103 1073V1072C-103.552 1072 -104 1071.55 -104 1071H-105H-106C-106 1072.66 -104.657 1074 -103 1074V1073ZM1105 1071H1104C1104 1071.55 1103.55 1072 1103 1072V1073V1074C1104.66 1074 1106 1072.66 1106 1071H1105ZM1103 -32137V-32136C1103.55 -32136 1104 -32135.6 1104 -32135H1105H1106C1106 -32136.7 1104.66 -32138 1103 -32138V-32137ZM-103 -32137V-32138C-104.656 -32138 -106 -32136.7 -106 -32135H-105H-104C-104 -32135.6 -103.553 -32136 -103 -32136V-32137Z" fill="white" fill-opacity="0.1"/>
<g id="Virtual Meetings">
<rect x="-24.5" y="-24.5" width="1049" height="149" rx="4.5" stroke="#9747FF" stroke-dasharray="10 5"/>
<g id="Brand=Lloyds - V2">
<rect width="100" height="100" fill="#C7FFC6"/>
<g id="Path">
<path d="M53.7566 44.5991C55.9882 44.0222 57.5421 42.0195 57.5421 39.7202V7.12532C57.5421 5.08969 55.8726 3.52382 53.9385 3.52382C53.641 3.52382 53.3351 3.56504 53.021 3.63921L7.86031 15.3173C5.62872 15.8942 4.07486 17.8969 4.07486 20.1962V52.7911C4.07486 54.8267 5.74441 56.3926 7.67845 56.3926C7.976 56.3926 8.2818 56.3514 8.59587 56.2772L20.9523 53.0795C21.8119 52.857 53.7566 44.5991 53.7566 44.5991Z" fill="#6CF479"/>
<path d="M4.0003 16.5792C4.83508 15.4007 6.06662 14.4941 7.54608 14.115L52.7068 2.43688C52.9052 2.38743 53.1118 2.34621 53.3102 2.32149L51.8472 1.30781C51.029 0.763875 49.9958 0.541376 48.9379 0.813344L3.77718 12.4914C2.49608 12.8211 1.45468 13.6287 0.785199 14.6836L3.99208 16.571L4.0003 16.5792Z" fill="black"/>
<path d="M2.83494 20.9478V20.1896C2.83494 19.5797 2.94239 19.0028 3.09943 18.4424L0.0578621 16.6457C0.0248015 16.8847 0 17.1237 0 17.371V19.2747L2.83494 20.9478Z" fill="black"/>
<path d="M2.83494 52.7827V26.6986L0 25.0256V49.9642C0 51.1592 0.57856 52.1976 1.4464 52.8487L2.96716 53.9035C2.88451 53.5409 2.83494 53.17 2.83494 52.7827Z" fill="black"/>
<path d="M29.6139 30.7554C30.1346 30.9532 30.7462 31.0604 31.3991 30.8873C32.0521 30.7142 32.672 30.2939 33.2092 29.8159C34.4242 28.7362 35.3085 27.2528 35.821 25.7199C36.4326 23.8738 36.507 22.3327 36.507 22.3327C36.7384 18.3933 34.3828 17.0499 31.6553 17.767C28.9196 18.484 26.4896 21.0635 26.5805 24.9288C26.5805 24.9288 26.5971 26.4369 27.1426 27.9863C27.5971 29.272 28.4319 30.3021 29.6221 30.7554H29.6139ZM42.9042 35.0245C42.2347 32.3543 41.0859 31.596 38.8956 31.39L34.3581 30.8543C34.2506 30.9532 34.1597 31.0768 34.0523 31.1675C33.1514 31.9751 32.2422 32.4944 31.3661 32.7251C30.4817 32.9559 29.5891 32.8982 28.713 32.5603C28.6055 32.5191 28.5146 32.4531 28.4154 32.4037L23.8117 35.3294C21.5884 36.6893 20.3982 38.0656 19.6213 41.1067L18.6543 45.2109L43.7307 38.6672L42.9125 35.0328L42.9042 35.0245Z" fill="black"/>
<path d="M35.9946 10.7942L52.7149 6.64052C53.6241 6.418 54.5085 7.102 54.5085 8.04152V24.7387C54.5085 24.7387 53.9547 8.1734 35.9946 10.7942Z" fill="white"/>
<path d="M8.89336 62.9716C8.89336 62.9716 10.0422 66.7709 14.7037 67.8176C14.7037 67.8176 11.1745 68.4274 11.1001 72.6553C11.1001 72.6553 9.86034 68.9878 5.38889 67.8176C5.38889 67.8176 9.12478 67.3725 8.89336 62.9716Z" fill="#006A4D"/>
<path d="M75.3203 1.62121C75.3203 1.62121 77.5023 8.8407 86.3626 10.8351C86.3626 10.8351 79.6512 11.9889 79.519 20.0243C79.519 20.0243 77.1552 13.0603 68.6669 10.8269C68.6669 10.8269 75.7584 9.98626 75.3203 1.62121Z" fill="#006A4D"/>
<path d="M48.7397 45.8945L57.5504 35.6669V35.057L37.7719 48.7296C41.7805 47.6911 45.756 46.6609 48.748 45.8945H48.7397Z" fill="black"/>
<path d="M100 43.4462L89.6686 43.6935L70.5843 32.6829C69.3446 31.9659 67.5262 32.2296 66.5344 33.2598L37.2014 64.0003L21.1009 74.6978V80.3184C21.134 80.953 21.5059 81.5546 22.1836 81.9502L50.5083 98.293C51.7481 99.01 53.5664 98.7462 54.5582 97.716L99.3636 50.7564C99.7934 50.3031 100 49.7838 99.9917 49.2729V43.4545L100 43.4462Z" fill="black"/>
<path d="M54.5582 91.9392C53.5746 92.9694 51.748 93.2332 50.5083 92.5162L22.1836 76.1733C20.9438 75.4563 20.7372 74.0306 21.729 72.9922L66.5344 26.0325C67.5179 25.0023 69.3445 24.7386 70.5843 25.4557L98.9089 41.7984C100.149 42.5154 100.355 43.9411 99.3635 44.9796L54.5582 91.9392Z" fill="#11B67A"/>
<path d="M86.4367 39.0876L81.6264 36.2773C80.9321 35.8735 80.0478 35.9971 79.494 36.574C79.0973 36.9943 79.1882 37.6701 79.6924 37.9585L84.5027 40.7689C85.1887 41.1727 86.0648 41.0574 86.6186 40.4887C87.0235 40.0684 86.9326 39.376 86.4285 39.0876H86.4367ZM41.4082 76.0999C39.0857 76.1658 37.1599 77.5998 37.1021 79.2976C37.0442 80.9953 38.8708 82.3139 41.1933 82.248C43.5158 82.182 45.4416 80.748 45.4994 79.0503C45.5573 77.3525 43.7307 76.034 41.4082 76.0999ZM76.9896 33.8378C76.1962 33.8625 75.5267 34.3488 75.5102 34.934C75.4854 35.5191 76.1218 35.9724 76.9153 35.9477C77.7087 35.9229 78.3782 35.4366 78.3947 34.8515C78.4195 34.2663 77.7831 33.8131 76.9896 33.8378Z" fill="#024731"/>
<path d="M69.7908 49.158C67.3692 47.757 63.9556 47.9052 61.5174 50.7155C61.5174 50.7155 60.5587 51.8034 59.947 53.2869C59.4429 54.5231 59.3768 55.8417 59.9305 56.9955C60.1785 57.5065 60.5504 58.001 61.1289 58.3389C61.7075 58.6685 62.4266 58.8005 63.1209 58.8417C64.6912 58.9159 66.2864 58.479 67.6419 57.7373C69.2784 56.8472 70.3198 55.8088 70.3198 55.8088C73.0308 53.1633 72.2125 50.5672 69.7826 49.1662L69.7908 49.158ZM63.6912 61.2646C63.6912 61.2646 63.3688 60.8608 62.7902 60.3251C61.6662 60.2592 60.7157 60.0119 59.9553 59.5751C59.2032 59.1383 58.6164 58.4955 58.2031 57.6796C57.3766 57.3994 56.7897 57.2758 56.7897 57.2758L52.9052 56.4269C50.5083 55.8582 48.8222 56.0066 46.3757 57.5807L43.1358 59.7647L64.6747 72.2093L66.3856 69.1435C67.5923 66.8524 67.27 65.5419 65.8732 63.9183L63.6994 61.2646H63.6912Z" fill="black"/>
</g>
</g>
</g>
</g>
</svg>
