<svg width="100" height="100" viewBox="0 0 100 100" fill="none" xmlns="http://www.w3.org/2000/svg">
<rect width="100" height="100" fill="#1E1E1E"/>
<g id="Default">
<path d="M-105 -32347C-105 -32348.1 -104.105 -32349 -103 -32349H1103C1104.1 -32349 1105 -32348.1 1105 -32347V859C1105 860.105 1104.1 861 1103 861H-103C-104.105 861 -105 860.105 -105 859V-32347Z" fill="white"/>
<path d="M-103 -32349V-32348H1103V-32349V-32350H-103V-32349ZM1105 -32347H1104V859H1105H1106V-32347H1105ZM1103 861V860H-103V861V862H1103V861ZM-105 859H-104V-32347H-105H-106V859H-105ZM-103 861V860C-103.552 860 -104 859.551 -104 859H-105H-106C-106 860.656 -104.657 862 -103 862V861ZM1105 859H1104C1104 859.551 1103.55 860 1103 860V861V862C1104.66 862 1106 860.656 1106 859H1105ZM1103 -32349V-32348C1103.55 -32348 1104 -32347.6 1104 -32347H1105H1106C1106 -32348.7 1104.66 -32350 1103 -32350V-32349ZM-103 -32349V-32350C-104.656 -32350 -106 -32348.7 -106 -32347H-105H-104C-104 -32347.6 -103.553 -32348 -103 -32348V-32349Z" fill="white" fill-opacity="0.1"/>
<g id="_VR Headset">
<rect x="-24.5" y="-24.5" width="1049" height="149" rx="4.5" stroke="#9747FF" stroke-dasharray="10 5"/>
<g id="Brand=Lloyds - V2">
<rect width="100" height="100" fill="#C7FFC6"/>
<g id="Path">
<path fill-rule="evenodd" clip-rule="evenodd" d="M3.92246 27.4538C5.92415 25.3091 8.35476 23.7095 11.8041 23.0125L40.1583 17.3024C53.0352 14.7109 62.8381 21.4934 74.0529 27.4627C70.9253 30.4742 67.6368 32.1184 63.8836 33.9235C56.7616 28.7584 49.6842 23.3968 38.389 25.9704L12.2241 31.9486C8.92667 32.6992 6.71052 34.0843 5.01267 36.0503C3.33268 33.9682 2.91268 31.0908 3.92246 27.4448V27.4538Z" fill="black"/>
<path fill-rule="evenodd" clip-rule="evenodd" d="M38.1492 51.7417C26.3714 54.8068 25.2186 95.5554 41.6432 91.1678C58.3984 86.6908 74.0991 80.3015 90.327 73.7603C100.693 69.5782 104.455 35.5138 92.8827 38.3287C74.6352 42.7788 56.3431 47.0056 38.1581 51.7417H38.1492Z" fill="black"/>
<path fill-rule="evenodd" clip-rule="evenodd" d="M41.3559 55.3075C37.013 56.487 34.359 63.4482 33.7871 70.8741C34.8594 65.0478 37.9513 59.8113 41.5257 58.8908L93.6142 45.4599C95.0261 45.0935 96.3576 45.6922 97.278 46.425C96.3129 43.5565 94.5346 41.9033 91.8002 42.6003C75.6884 46.6931 57.4141 50.9645 41.3559 55.3164V55.3075Z" fill="white"/>
<path fill-rule="evenodd" clip-rule="evenodd" d="M91.6583 35.8181L78.2274 29.3663C77.3248 28.9284 76.4402 28.7497 75.5734 29.1518C61.6956 41.4926 39.1409 41.1083 23.4045 39.9824C9.22287 38.9636 8.34714 61.9473 16.4432 70.7583L28.6142 84.0015C23.4849 73.6982 27.1844 51.3937 35.7273 49.1687C53.9212 44.4325 71.4806 40.3845 89.7281 35.9432C90.4341 35.7735 91.0775 35.7377 91.6583 35.836V35.8181Z" fill="#11B67A"/>
<path fill-rule="evenodd" clip-rule="evenodd" d="M12.3678 44.039C7.10441 40.7505 0.473833 37.5067 2.26999 29.5893C1.08149 31.1799 0.607875 32.994 0.402344 35.2637C0.214686 37.2922 0.0180924 41.4922 0.0806451 43.4134C0.259367 48.7751 2.52913 51.0717 10.1427 60.258C9.09716 54.6104 9.78524 48.3104 12.3678 44.039Z" fill="#006A4D"/>
<path fill-rule="evenodd" clip-rule="evenodd" d="M31.6074 52.1089L13.8603 44.8974C13.8603 44.8974 12.5556 47.0957 11.9748 49.5621C10.3038 56.6484 12.1088 62.0458 12.1088 62.0458C12.1088 62.0458 9.99993 49.151 17.2828 52.3859C28.3993 57.3275 28.7121 57.4348 28.7121 57.4348C28.9981 56.7735 29.9453 54.6288 30.401 53.8603C30.8121 53.1812 31.2231 52.5914 31.6074 52.091V52.1089Z" fill="white"/>
<path d="M78.0115 63.4488C73.0877 63.6901 69.3345 61.0004 68.6018 56.7021C67.5384 61.3935 63.535 65.7454 58.5487 67.622C63.4724 67.3807 67.2256 70.0705 67.9584 74.3687C69.0218 69.6773 73.0251 65.3254 78.0115 63.4488Z" fill="white"/>
<path d="M5.70123 74.0821C6.10335 77.1829 8.20333 79.2293 10.9735 79.2114C8.15865 80.3999 5.88889 83.3935 5.27229 86.7177C4.87017 83.6169 2.77019 81.5706 0 81.5884C2.81487 80.3999 5.08464 77.4063 5.70123 74.0821Z" fill="#11B67A"/>
<path d="M85.3567 8C85.875 12.0034 88.5827 14.6395 92.1571 14.6127C88.529 16.1497 85.6069 20.0012 84.8116 24.2994C84.2933 20.2961 81.5857 17.6599 78.0113 17.6867C81.6393 16.1497 84.5614 12.2983 85.3567 8Z" fill="#11B67A"/>
</g>
</g>
</g>
</g>
</svg>
