<svg width="100" height="100" viewBox="0 0 100 100" fill="none" xmlns="http://www.w3.org/2000/svg">
<rect width="100" height="100" fill="#1E1E1E"/>
<g id="Default">
<path d="M-105 -32983C-105 -32984.1 -104.105 -32985 -103 -32985H1103C1104.1 -32985 1105 -32984.1 1105 -32983V223C1105 224.105 1104.1 225 1103 225H-103C-104.105 225 -105 224.105 -105 223V-32983Z" fill="white"/>
<path d="M-103 -32985V-32984H1103V-32985V-32986H-103V-32985ZM1105 -32983H1104V223H1105H1106V-32983H1105ZM1103 225V224H-103V225V226H1103V225ZM-105 223H-104V-32983H-105H-106V223H-105ZM-103 225V224C-103.552 224 -104 223.551 -104 223H-105H-106C-106 224.656 -104.657 226 -103 226V225ZM1105 223H1104C1104 223.551 1103.55 224 1103 224V225V226C1104.66 226 1106 224.656 1106 223H1105ZM1103 -32985V-32984C1103.55 -32984 1104 -32983.6 1104 -32983H1105H1106C1106 -32984.7 1104.66 -32986 1103 -32986V-32985ZM-103 -32985V-32986C-104.656 -32986 -106 -32984.7 -106 -32983H-105H-104C-104 -32983.6 -103.553 -32984 -103 -32984V-32985Z" fill="white" fill-opacity="0.1"/>
<g id="Wifi">
<rect x="-24.5" y="-24.5" width="1049" height="149" rx="4.5" stroke="#9747FF" stroke-dasharray="10 5"/>
<g id="Brand=Lloyds - V2">
<rect width="100" height="100" fill="#C7FFC6"/>
<g id="Path">
<path d="M50.0133 60.093C43.6445 60.093 37.8772 62.6638 33.7109 66.8193L33.5162 71.0805H37.9922L50.0133 83.0453L62.0345 71.0805H66.5105L66.3159 66.8193C62.1407 62.6638 56.3733 60.093 50.0045 60.093H50.0133Z" fill="black"/>
<path d="M50.0132 44.6137C39.3453 44.6137 29.6948 48.9189 22.7067 55.8741L22.3883 60.0121C22.3883 60.0121 23.4232 59.3518 25.2543 58.4097L27.9257 61.0686C33.0915 55.927 40.0441 52.5814 47.7663 52.0356C48.5094 51.9915 49.2613 51.9563 50.022 51.9475C58.6377 51.9475 66.4572 55.4339 72.1184 61.0686L74.8341 58.3657C76.6386 59.3342 77.6469 60.0209 77.6469 60.0209L77.3285 55.883C70.3404 48.9277 60.6899 44.6225 50.022 44.6225L50.0132 44.6137Z" fill="black"/>
<path d="M42.3441 21.3004C42.5652 21.274 42.7775 21.2388 42.9986 21.2212C43.3436 21.1772 43.6885 21.142 44.0247 21.1155C45.9884 20.9307 47.9875 20.825 50.0043 20.825C59.9114 20.825 69.279 23.1405 77.6116 27.2344L79.1683 19.8478C78.1688 19.3899 77.1604 18.9585 76.1432 18.5448L75.1878 24.1266L73.0118 23.7568L74.0468 17.726C66.5545 14.9967 58.4608 13.5 50.0132 13.5C30.7209 13.5 13.2507 21.2828 0.601496 33.8727L0.0177085 37.7553L4.06897 37.3327L5.82044 39.0759C12.6493 32.2792 21.0614 27.0583 30.4378 23.9681C34.551 22.6651 38.5315 21.8023 42.3528 21.3092L42.3441 21.3004Z" fill="black"/>
<path d="M50.0133 29.0585C35.0288 29.0585 21.4685 35.0981 11.6498 44.8707L11.1987 48.8765C11.1987 48.8765 12.2514 48.2514 14.1001 47.3094L16.8688 50.0651C20.5574 46.3938 24.8653 43.33 29.6065 41.0321C36.0815 39.06 43.671 37.5545 51.3579 37.8098C58.3282 38.0387 64.8917 39.4033 70.5264 41.0937C75.2234 43.3828 79.4869 46.4202 83.149 50.0651L85.9354 47.2918C87.7842 48.2514 88.8191 48.8765 88.8191 48.8765L88.368 44.8707C78.5493 35.0981 64.989 29.0585 50.0045 29.0585H50.0133Z" fill="black"/>
<path d="M99.425 33.8635C94.8872 29.347 89.7214 25.4644 84.0779 22.3213L82.4945 29.8488L82.406 29.8312C86.705 32.4372 90.6678 35.5363 94.2061 39.0579L95.0995 38.1687L100 37.7461L99.4162 33.8635H99.425Z" fill="black"/>
<path d="M0.0177085 37.7455L5.29852 43.0016C16.7536 31.6003 32.5696 24.5394 50.0043 24.5394C67.4391 24.5394 83.2551 31.6003 94.7102 43.0016L99.991 37.7455C87.2002 25.0148 69.5178 17.1351 49.9955 17.1351C30.4732 17.1351 12.7996 25.0148 0 37.7455H0.0177085Z" fill="#11B67A"/>
<path d="M22.3794 60.0048L27.6513 65.252C33.3745 59.5558 41.2825 56.0253 50.0043 56.0253C58.7261 56.0253 66.6341 59.5558 72.3572 65.252L77.6292 60.0048C70.5615 52.9703 60.7871 48.6123 50.0043 48.6123C39.2214 48.6123 29.447 52.9615 22.3794 60.0048ZM33.5071 71.0804L50.0043 87.5L66.5014 71.0804C62.282 66.8808 56.4439 64.2748 50.0043 64.2748C43.5646 64.2748 37.7265 66.872 33.5071 71.0804ZM50.0131 32.8793C34.8606 32.8793 21.1321 38.9894 11.2073 48.8764L16.4882 54.1325C25.0773 45.5837 36.9393 40.2836 50.022 40.2836C63.1047 40.2836 74.9667 45.5837 83.5558 54.1325L88.8366 48.8764C78.903 38.9894 65.1834 32.8793 50.0308 32.8793H50.0131Z" fill="#6CF479"/>
<path d="M8.92532 64.1924C8.92532 64.1924 11.2606 71.9048 20.7431 74.0354C20.7431 74.0354 13.5604 75.2679 13.4189 83.8519C13.4189 83.8519 10.889 76.4125 1.80454 74.0266C1.80454 74.0266 9.39414 73.1285 8.92532 64.1924Z" fill="#006A4D"/>
</g>
</g>
</g>
</g>
</svg>
