<svg width="24" height="24" viewBox="0 0 24 24" fill="none" xmlns="http://www.w3.org/2000/svg">
<path d="M14.24 9.12999C14.61 9.34999 15.04 9.51999 15.5 9.51999C15.96 9.51999 16.39 9.34999 16.76 9.12999C17.6 8.62999 18.2 7.80998 18.54 6.89998C18.94 5.79998 18.98 4.80999 18.98 4.80999C19.09 2.26999 17.42 0.999985 15.51 0.999985C13.6 0.999985 11.93 2.27999 12.04 4.80999C12.04 4.80999 12.07 5.79998 12.48 6.89998C12.82 7.81998 13.42 8.62999 14.26 9.12999H14.24ZM13.89 2.89998C14.27 2.49998 14.84 2.28999 15.5 2.28999C16.16 2.28999 16.73 2.50998 17.11 2.89998C17.52 3.31998 17.71 3.94998 17.67 4.74998C17.67 4.74998 17.63 5.56999 17.31 6.44999C17.06 7.13999 16.62 7.69999 16.09 8.01999C15.87 8.14999 15.66 8.22998 15.5 8.22998C15.34 8.22998 15.13 8.15999 14.91 8.01999C14.37 7.69999 13.94 7.13999 13.69 6.44999C13.37 5.56999 13.33 4.75998 13.33 4.74998C13.3 3.94998 13.48 3.32998 13.89 2.90998V2.89998Z" fill="black"/>
<path d="M7.24 15.13C7.61 15.35 8.04 15.52 8.5 15.52C8.96 15.52 9.39 15.35 9.76 15.13C10.6 14.63 11.2 13.81 11.54 12.9C11.94 11.8 11.98 10.81 11.98 10.81C12.09 8.26999 10.42 6.99998 8.51 6.99998C6.6 6.99998 4.93 8.27999 5.04 10.81C5.04 10.81 5.07 11.8 5.48 12.9C5.82 13.82 6.42 14.63 7.26 15.13H7.24ZM6.89 8.89998C7.27 8.49998 7.84 8.28999 8.5 8.28999C9.16 8.28999 9.73 8.50998 10.11 8.89998C10.52 9.31998 10.71 9.94998 10.67 10.75C10.67 10.75 10.63 11.57 10.31 12.45C10.06 13.14 9.62 13.7 9.09 14.02C8.87 14.15 8.66 14.23 8.5 14.23C8.34 14.23 8.13 14.16 7.91 14.02C7.37 13.7 6.94 13.14 6.69 12.45C6.37 11.57 6.33 10.76 6.33 10.75C6.3 9.94998 6.48 9.32998 6.89 8.90998V8.89998Z" fill="black"/>
<path d="M23.44 14.39C23.4 13.84 23.28 13.3 23.05 12.8C22.55 11.71 21.8 11.21 20.62 10.82L18.16 9.95998C17.96 10.13 17.75 10.29 17.53 10.42C17.26 10.58 16.99 10.7 16.71 10.8C16.8 10.84 16.89 10.89 16.98 10.92L20.21 12.06C21.07 12.34 21.54 12.63 21.88 13.37C22.04 13.71 22.12 14.08 22.14 14.46L22.6 20.94H16.67L16.39 19.8C15.9 18 15.11 17.33 13.61 16.83L11.15 15.97C10.95 16.14 10.74 16.3 10.52 16.43C10.25 16.59 9.98 16.71 9.7 16.81C9.79 16.85 9.88 16.9 9.97 16.93L13.2 18.07C14.31 18.44 14.77 18.8 15.13 20.12L15.34 20.95H1.66L1.86 20.15C1.96 19.8 2.06 19.51 2.18 19.28C2.53 19.61 2.97 19.79 3.44 19.79C3.66 19.79 3.89 19.75 4.11 19.66L5.32 19.19C6.15 18.87 6.62 18 6.45 17.13L6.22 15.99C6.11 15.45 5.78 15 5.3 14.74C4.82 14.48 4.26 14.45 3.76 14.65C2.79 15.04 2.03 15.5 1.5 16.03C0.9 16.63 0.829999 17.58 1.28 18.29C1.01 18.69 0.790001 19.17 0.610001 19.82L0 22.26H24L23.44 14.42V14.39ZM2.41 16.93C2.81 16.53 3.44 16.15 4.24 15.84C4.44 15.76 4.6 15.82 4.68 15.87C4.82 15.95 4.92 16.08 4.95 16.24L5.18 17.38C5.23 17.63 5.09 17.88 4.85 17.98L3.64 18.45C3.44 18.53 3.21 18.48 3.06 18.32L2.43 17.66C2.23 17.45 2.23 17.13 2.41 16.94V16.93Z" fill="black"/>
</svg>
