<svg width="24" height="24" viewBox="0 0 24 24" fill="none" xmlns="http://www.w3.org/2000/svg">
<path fill-rule="evenodd" clip-rule="evenodd" d="M19.1702 14.15C19.5302 13.18 19.5602 12.3 19.5602 12.3C19.6602 10.06 18.1802 8.94001 16.5002 8.94001C14.8202 8.94001 13.3402 10.07 13.4402 12.3C13.4402 12.3 13.4702 13.17 13.8302 14.15C14.1302 14.96 14.6602 15.68 15.4002 16.12C15.7302 16.31 16.1102 16.47 16.5102 16.47C16.9102 16.47 17.2902 16.32 17.6202 16.12C18.3602 15.68 18.8902 14.96 19.1902 14.15H19.1702ZM16.9302 15.01C16.7602 15.11 16.6002 15.17 16.4902 15.17C16.3802 15.17 16.2202 15.11 16.0502 15.01C15.6102 14.75 15.2502 14.28 15.0402 13.71C14.7602 12.96 14.7302 12.27 14.7302 12.25C14.7002 11.59 14.8502 11.08 15.1802 10.74C15.4802 10.42 15.9502 10.25 16.4902 10.25C17.0302 10.25 17.5002 10.43 17.8002 10.74C18.1302 11.08 18.2802 11.59 18.2502 12.26C18.2502 12.26 18.2202 12.96 17.9402 13.71C17.7302 14.29 17.3702 14.75 16.9302 15.01Z" fill="black"/>
<path fill-rule="evenodd" clip-rule="evenodd" d="M23.4602 20.24C23.0302 18.65 22.3302 18.06 21.0102 17.62L19.0402 16.93C18.8302 17.11 18.6102 17.28 18.3702 17.42C18.1102 17.58 17.8502 17.69 17.5802 17.78C17.6402 17.8 17.6902 17.84 17.7502 17.85L20.6002 18.85C21.5502 19.16 21.9002 19.44 22.2002 20.55L22.3302 21.09H17.2102L17.4402 22.03L17.5302 22.39H23.9802L23.4502 20.24H23.4602Z" fill="black"/>
<path fill-rule="evenodd" clip-rule="evenodd" d="M7.38024 16.13C7.71024 16.32 8.09024 16.48 8.49024 16.48C8.89024 16.48 9.27024 16.33 9.60024 16.13C10.3402 15.69 10.8702 14.97 11.1702 14.16C11.5302 13.19 11.5602 12.31 11.5602 12.31C11.6602 10.07 10.1802 8.95002 8.50024 8.95002C6.82024 8.95002 5.34024 10.08 5.44024 12.31C5.44024 12.31 5.47024 13.18 5.83024 14.16C6.13024 14.97 6.66024 15.69 7.40024 16.13H7.38024ZM7.18024 10.74C7.48024 10.42 7.95024 10.25 8.49024 10.25C9.03024 10.25 9.50024 10.43 9.80024 10.74C10.1302 11.08 10.2802 11.59 10.2502 12.26C10.2502 12.26 10.2202 12.96 9.94024 13.71C9.73024 14.29 9.37024 14.75 8.93024 15.01C8.76024 15.11 8.60024 15.17 8.49024 15.17C8.38024 15.17 8.22024 15.11 8.05024 15.01C7.61024 14.75 7.25024 14.28 7.04024 13.71C6.76024 12.96 6.73024 12.27 6.73024 12.25C6.70024 11.59 6.85024 11.08 7.18024 10.74Z" fill="black"/>
<path fill-rule="evenodd" clip-rule="evenodd" d="M13.0002 17.62L11.0302 16.93C10.8202 17.11 10.6002 17.28 10.3602 17.42C10.1002 17.58 9.84024 17.69 9.57024 17.78C9.63024 17.8 9.68024 17.84 9.74024 17.85L12.5902 18.85C13.5402 19.16 13.8902 19.44 14.1902 20.55L14.3202 21.09H2.65024L2.78024 20.58C3.09024 19.45 3.43024 19.17 4.41024 18.85L7.23024 17.86C7.29024 17.84 7.34024 17.81 7.40024 17.79C7.14024 17.7 6.87024 17.58 6.61024 17.43C6.37024 17.29 6.15024 17.12 5.94024 16.94L3.98024 17.63C2.66024 18.07 1.96024 18.66 1.53024 20.25L1.00024 22.4H16.0002L15.4702 20.25C15.0402 18.66 14.3402 18.07 13.0202 17.63L13.0002 17.62Z" fill="black"/>
<path fill-rule="evenodd" clip-rule="evenodd" d="M12.5302 8.40001C12.5302 8.40001 16.5302 6.23002 16.5302 3.13002C16.5302 1.96002 15.5802 1.00002 14.4302 1.00002C13.5602 1.00002 12.8202 1.50002 12.4902 2.25002C12.1602 1.50002 11.4202 1.00002 10.5502 1.00002C9.40024 1.00002 8.45024 1.96002 8.45024 3.13002C8.53024 6.22002 12.5302 8.40001 12.5302 8.40001Z" fill="black"/>
</svg>
