<svg width="24" height="24" viewBox="0 0 24 24" fill="none" xmlns="http://www.w3.org/2000/svg">
<path d="M15.2071 13.3527C15.6326 12.1854 15.6762 11.1382 15.6762 11.1382C15.7962 8.45454 14.018 7.10183 11.9998 7.10183C9.98164 7.10183 8.20346 8.45454 8.32346 11.1382C8.32346 11.1382 8.35619 12.1854 8.79255 13.3527C9.15255 14.3236 9.78528 15.1855 10.6798 15.72C11.0725 15.9491 11.5307 16.1346 12.0107 16.1346C12.4907 16.1346 12.9489 15.9491 13.3416 15.72C14.2253 15.1855 14.8689 14.3236 15.2289 13.3527H15.2071ZM12.5998 14.4982C12.3707 14.64 12.1525 14.7164 11.9998 14.7164C11.8471 14.7164 11.6289 14.64 11.3998 14.4982C10.8435 14.16 10.3853 13.5818 10.1235 12.8618C9.78528 11.9346 9.74164 11.0836 9.74164 11.0727C9.70891 10.2436 9.90528 9.58911 10.3198 9.15274C10.7126 8.7382 11.3125 8.52 11.9998 8.52C12.6871 8.52 13.2871 8.74911 13.6798 9.15274C14.1053 9.58911 14.3016 10.2436 14.258 11.0836C14.258 11.0836 14.2144 11.9455 13.8762 12.8618C13.6144 13.5818 13.1562 14.16 12.5998 14.4982Z" fill="black"/>
<path d="M9.19619 16.6582L6.0871 17.7491C5.68346 17.88 5.33437 18.0327 5.0071 18.1964V19.9527C5.3671 19.56 5.8471 19.32 6.55619 19.0909L10.2544 17.7818C10.4507 17.7273 10.6362 17.6509 10.8107 17.5636C10.4835 17.4546 10.1453 17.3127 9.818 17.1164C9.58891 16.9855 9.39255 16.8218 9.18528 16.6582H9.19619Z" fill="black"/>
<path d="M14.8035 16.6582C14.5962 16.8218 14.3889 16.9855 14.1707 17.1164C13.8435 17.3127 13.5053 17.4546 13.178 17.5636C13.3525 17.6509 13.538 17.7273 13.7344 17.7818L17.4653 19.0909C18.1526 19.32 18.6216 19.5491 18.9816 19.9418V18.1964C18.6653 18.0327 18.3053 17.88 17.9125 17.7491L14.8035 16.6582Z" fill="black"/>
<path d="M18.5453 0H5.45437C3.64346 0 2.18164 1.46182 2.18164 3.27273V24H21.818V3.27273C21.818 1.46182 20.3562 0 18.5453 0ZM20.3998 22.5818H3.59982V3.27273C3.59982 2.24727 4.42891 1.41817 5.45437 1.41817H18.5453C19.5707 1.41817 20.3998 2.24727 20.3998 3.27273V22.5818Z" fill="black"/>
<path d="M11.9998 4.90909C12.6023 4.90909 13.0907 4.42067 13.0907 3.81818C13.0907 3.21569 12.6023 2.72727 11.9998 2.72727C11.3973 2.72727 10.9089 3.21569 10.9089 3.81818C10.9089 4.42067 11.3973 4.90909 11.9998 4.90909Z" fill="black"/>
</svg>
