<svg width="24" height="24" viewBox="0 0 24 24" fill="none" xmlns="http://www.w3.org/2000/svg">
<path d="M15.9567 8.92255C16.2565 9.1024 16.6162 9.24229 16.9858 9.24229C17.3555 9.24229 17.7152 9.1024 18.015 8.92255C18.7044 8.51289 19.204 7.84346 19.4738 7.08409C19.8035 6.17485 19.8335 5.36552 19.8335 5.36552C19.9234 3.27726 18.5445 2.22813 16.9759 2.22813C15.4072 2.22813 14.0283 3.27726 14.1182 5.36552C14.1182 5.36552 14.1482 6.17485 14.4779 7.08409C14.7577 7.84346 15.2473 8.51289 15.9367 8.92255H15.9567ZM15.8268 3.95669C16.0966 3.67692 16.5062 3.52705 16.9858 3.52705C17.4654 3.52705 17.8751 3.67692 18.1449 3.95669C18.4346 4.25644 18.5645 4.71607 18.5445 5.31557C18.5445 5.31557 18.5146 5.95502 18.2648 6.63445C18.0749 7.15402 17.7552 7.56369 17.3555 7.80349C17.1357 7.93338 17.0158 7.94339 16.9858 7.94339C16.9559 7.94339 16.836 7.93338 16.6162 7.80349C16.2165 7.56369 15.8968 7.15402 15.7069 6.63445C15.4571 5.94502 15.4271 5.31556 15.4271 5.30557C15.3972 4.71606 15.5371 4.25644 15.8268 3.95669Z" fill="black"/>
<path d="M5.96503 8.92255C6.26478 9.1024 6.62448 9.24229 6.99417 9.24229C7.36386 9.24229 7.72356 9.1024 8.02331 8.92255C8.71274 8.51289 9.21232 7.84346 9.4821 7.08409C9.81182 6.17485 9.8418 5.36552 9.8418 5.36552C9.93172 3.27726 8.55287 2.22813 6.98418 2.22813C5.41549 2.22813 4.03664 3.27726 4.12656 5.36552C4.12656 5.36552 4.15654 6.17485 4.48626 7.08409C4.76603 7.84346 5.25562 8.51289 5.94505 8.92255H5.96503ZM5.83514 3.95669C6.10491 3.67692 6.51457 3.52705 6.99417 3.52705C7.47377 3.52705 7.88343 3.67692 8.1532 3.95669C8.44296 4.25644 8.57286 4.71607 8.55287 5.31557C8.55287 5.31557 8.5229 5.95502 8.27311 6.63445C8.08326 7.15402 7.76353 7.56369 7.36386 7.80349C7.14405 7.93338 7.02415 7.94339 6.99417 7.94339C6.9642 7.94339 6.8443 7.93338 6.62448 7.80349C6.22481 7.56369 5.90508 7.15402 5.71524 6.63445C5.46545 5.94502 5.43547 5.31556 5.43547 5.30557C5.4055 4.71606 5.54538 4.25644 5.83514 3.95669Z" fill="black"/>
<path d="M8.93256 11.6903C8.93256 11.6903 8.96253 12.5595 9.32223 13.5387C9.62198 14.348 10.1515 15.0674 10.8909 15.5071C11.2206 15.6969 11.6003 15.8568 12 15.8568C12.3997 15.8568 12.7794 15.7069 13.1091 15.5071C13.8485 15.0674 14.378 14.348 14.6778 13.5387C15.0375 12.5695 15.0674 11.6903 15.0674 11.6903C15.1674 9.45213 13.6886 8.33305 12.01 8.33305C10.3314 8.33305 8.85262 9.46212 8.95254 11.6903H8.93256ZM10.6811 10.1216C10.9808 9.80183 11.4505 9.63195 11.99 9.63195C12.5296 9.63195 12.9992 9.81182 13.2989 10.1216C13.6286 10.4613 13.7785 10.9708 13.7485 11.6403C13.7485 11.6403 13.7186 12.3397 13.4388 13.0891C13.229 13.6686 12.8693 14.1282 12.4296 14.388C12.2598 14.4879 12.0999 14.5479 11.99 14.5479C11.8801 14.5479 11.7202 14.4879 11.5504 14.388C11.1107 14.1282 10.751 13.6586 10.5412 13.0891C10.2614 12.3397 10.2315 11.6503 10.2315 11.6303C10.2015 10.9708 10.3514 10.4613 10.6811 10.1216Z" fill="black"/>
<path d="M16.4963 16.9958L14.5279 16.3064C14.3181 16.4863 14.0983 16.6561 13.8585 16.796C13.5987 16.9559 13.3389 17.0658 13.0691 17.1557C13.1291 17.1757 13.179 17.2156 13.239 17.2256L16.0866 18.2248C17.0358 18.5345 17.3855 18.8143 17.6853 19.9234L17.8152 20.463H6.15487L6.28476 19.9534C6.5945 18.8243 6.93422 18.5445 7.91341 18.2248L10.7311 17.2356C10.791 17.2156 10.841 17.1857 10.9009 17.1657C10.6411 17.0758 10.3714 16.9559 10.1116 16.806C9.87177 16.6661 9.65196 16.4962 9.44213 16.3164L7.48376 17.0058C6.16486 17.4454 5.46545 18.035 5.0358 19.6236L4.50624 21.7719H19.4938L18.9642 19.6236C18.5346 18.035 17.8351 17.4454 16.5162 17.0058L16.4963 16.9958Z" fill="black"/>
<path d="M18.7843 10.2115C18.5246 10.3614 18.2748 10.4813 18.015 10.5612C18.055 10.5712 18.0949 10.6012 18.1349 10.6111L20.7927 11.5504C21.642 11.8301 21.9617 12.0799 22.2315 13.0691L22.3314 13.4688H16.2664C16.2165 13.6586 16.1565 13.8485 16.0866 14.0483C15.9967 14.2981 15.8768 14.5379 15.7569 14.7677H24L23.5004 12.7594C23.1007 11.2806 22.4413 10.721 21.2123 10.3214L19.4938 9.7119C19.2839 9.90174 19.0541 10.0716 18.8143 10.2115H18.7843Z" fill="black"/>
<path d="M8.24313 14.7677C8.12323 14.5379 8.00333 14.2981 7.91341 14.0483C7.84346 13.8485 7.78351 13.6586 7.73355 13.4688H1.65862L1.74854 13.0991C2.02831 12.0799 2.33805 11.8301 3.21732 11.5404L5.84513 10.6111C5.84513 10.6111 5.92506 10.5712 5.96503 10.5612C5.70525 10.4713 5.44546 10.3614 5.19567 10.2115C4.95587 10.0716 4.72606 9.90174 4.51624 9.7119L2.79767 10.3214C1.56869 10.731 0.909242 11.2806 0.509575 12.7594L0 14.7677H8.24313Z" fill="black"/>
</svg>
