<svg width="24" height="24" viewBox="0 0 24 24" fill="none" xmlns="http://www.w3.org/2000/svg">
<path d="M14.24 9.51498C14.61 9.73498 15.04 9.90498 15.5 9.90498C15.96 9.90498 16.39 9.73498 16.76 9.51498C17.6 9.01498 18.2 8.19499 18.54 7.28499C18.94 6.18499 18.98 5.19499 18.98 5.19499C19.09 2.65499 17.42 1.38499 15.51 1.38499C13.6 1.38499 11.93 2.66499 12.04 5.19499C12.04 5.19499 12.07 6.18499 12.48 7.28499C12.82 8.20499 13.42 9.01498 14.26 9.51498H14.24ZM13.89 3.28499C14.27 2.88499 14.84 2.67499 15.5 2.67499C16.16 2.67499 16.73 2.89499 17.11 3.28499C17.52 3.70499 17.71 4.33499 17.67 5.13499C17.67 5.13499 17.63 5.95499 17.31 6.83499C17.06 7.52499 16.62 8.08498 16.09 8.40498C15.87 8.53498 15.66 8.61499 15.5 8.61499C15.34 8.61499 15.13 8.54498 14.91 8.40498C14.37 8.08498 13.94 7.52499 13.69 6.83499C13.37 5.95499 13.33 5.14499 13.33 5.13499C13.3 4.33499 13.48 3.71498 13.89 3.29498V3.28499Z" fill="black"/>
<path d="M7.24 15.515C7.61 15.735 8.04 15.905 8.5 15.905C8.96 15.905 9.39 15.735 9.76 15.515C10.6 15.015 11.2 14.195 11.54 13.285C11.94 12.185 11.98 11.195 11.98 11.195C12.09 8.65499 10.42 7.38499 8.51 7.38499C6.6 7.38499 4.93 8.66499 5.04 11.195C5.04 11.195 5.07 12.185 5.48 13.285C5.82 14.205 6.42 15.015 7.26 15.515H7.24ZM6.89 9.28499C7.27 8.88499 7.84 8.67499 8.5 8.67499C9.16 8.67499 9.73 8.89499 10.11 9.28499C10.52 9.70499 10.71 10.335 10.67 11.135C10.67 11.135 10.63 11.955 10.31 12.835C10.06 13.525 9.62 14.085 9.09 14.405C8.87 14.535 8.66 14.615 8.5 14.615C8.34 14.615 8.13 14.545 7.91 14.405C7.37 14.085 6.94 13.525 6.69 12.835C6.37 11.955 6.33 11.145 6.33 11.135C6.3 10.335 6.48 9.71498 6.89 9.29498V9.28499Z" fill="black"/>
<path d="M13.61 17.205L11.15 16.345C10.95 16.515 10.74 16.675 10.52 16.805C10.25 16.965 9.98 17.085 9.7 17.185C9.79 17.225 9.88 17.275 9.97 17.305L13.2 18.445C14.31 18.815 14.77 19.185 15.13 20.495L15.34 21.325H1.66L1.86 20.525C2.23 19.185 2.68 18.815 3.82 18.445L7.02 17.315C7.12 17.285 7.2 17.235 7.29 17.195C7.02 17.095 6.74 16.975 6.47 16.815C6.25 16.685 6.04 16.515 5.84 16.355L3.38 17.215C1.88 17.705 1.09 18.385 0.6 20.185L0 22.615H17L16.39 20.175C15.9 18.375 15.11 17.705 13.61 17.205Z" fill="black"/>
<path d="M17.52 10.805C17.25 10.965 16.98 11.085 16.7 11.185C16.79 11.225 16.88 11.275 16.97 11.305L20.2 12.445C21.31 12.815 21.77 13.185 22.13 14.495L22.34 15.325H12.76L14.08 15.795C14.75 16.015 15.31 16.295 15.79 16.625H24L23.39 14.185C22.9 12.385 22.11 11.715 20.61 11.215L18.15 10.355C17.95 10.525 17.74 10.685 17.52 10.815V10.805Z" fill="black"/>
</svg>
