<svg width="24" height="24" viewBox="0 0 24 24" fill="none" xmlns="http://www.w3.org/2000/svg">
<path d="M12 0C5.36727 0 0 5.36727 0 12C0 18.6327 5.36727 24 12 24C18.6327 24 24 18.6327 24 12C24 5.36727 18.6327 0 12 0ZM12 22.5818C6.16364 22.5818 1.41818 17.8364 1.41818 12C1.41818 6.16364 6.16364 1.41817 12 1.41817C17.8364 1.41817 22.5818 6.16364 22.5818 12C22.5818 17.8364 17.8364 22.5818 12 22.5818Z" fill="black"/>
<path d="M13.4727 11.2364L12.8727 10.9963L13.4727 8.00727C14.16 8.26909 14.7164 8.6509 15.1309 9.16363L15.2291 9.28365V7.3091H15.2073C14.8036 6.9382 14.3345 6.65454 13.7891 6.46908L14.0836 4.94182V4.87637H13.5273L13.2436 6.30545C12.9927 6.26182 12.7636 6.22908 12.5564 6.19636L12.8182 4.87637H12.2291L11.9673 6.17455C11.3127 6.17455 10.7127 6.30547 10.2 6.55637C9.68727 6.80728 9.27273 7.16726 8.97818 7.62544C8.68364 8.08363 8.53091 8.60726 8.53091 9.19636C8.53091 9.82908 8.70545 10.3745 9.03273 10.8436C9.37091 11.3018 9.89455 11.6836 10.6036 11.9891L10.7891 12.0655L10.1236 15.4691C9.45818 15.1527 8.85818 14.64 8.32364 13.9418L8.22545 13.8109V15.9054H8.23636C8.68364 16.4509 9.20727 16.8436 9.78545 17.0836L9.45818 18.7527H10.0255L10.3091 17.2691C10.4727 17.3127 10.7018 17.3564 11.0073 17.4109L10.7455 18.7527H11.3018L11.5636 17.4545H11.76C12.5018 17.4545 13.1782 17.3236 13.7564 17.0509C14.3345 16.7782 14.7818 16.3964 15.0982 15.9164C15.4145 15.4255 15.5673 14.8582 15.5673 14.2036C15.5673 13.5273 15.3818 12.9273 15.0327 12.4364C14.6727 11.9454 14.1382 11.5527 13.4291 11.2691L13.4727 11.2364ZM11.7055 10.5164L12.2509 7.73454C12.4582 7.74545 12.6873 7.77818 12.9491 7.84364L12.36 10.7782L11.6945 10.5164H11.7055ZM11.6618 7.75635L11.1709 10.2655C10.8873 10.1018 10.68 9.92727 10.5491 9.74181C10.4073 9.54545 10.3418 9.31636 10.3418 9.06545C10.3418 8.70545 10.4618 8.4109 10.7127 8.1709C10.9527 7.95272 11.2691 7.81089 11.6727 7.75635H11.6618ZM12.0218 12.5455L11.3891 15.7855C11.1273 15.7527 10.8982 15.7091 10.6909 15.6546L11.3564 12.2727L12.0327 12.5564L12.0218 12.5455ZM13.3091 15.3927C12.9709 15.6654 12.5018 15.8073 11.9236 15.8073L12.5345 12.7636H12.5455C13.3964 13.1127 13.8218 13.6364 13.8218 14.3127C13.8218 14.76 13.6473 15.1309 13.2982 15.4036L13.3091 15.3927Z" fill="black"/>
</svg>
