<svg width="24" height="24" viewBox="0 0 24 24" fill="none" xmlns="http://www.w3.org/2000/svg">
<path d="M12 0C5.36727 0 0 5.36727 0 12C0 18.6327 5.36727 24 12 24C18.6327 24 24 18.6327 24 12C24 5.36727 18.6327 0 12 0ZM12 22.5818C6.16364 22.5818 1.41818 17.8364 1.41818 12C1.41818 6.16364 6.16364 1.41817 12 1.41817C17.8364 1.41817 22.5818 6.16364 22.5818 12C22.5818 17.8364 17.8364 22.5818 12 22.5818Z" fill="black"/>
<path d="M14.16 15.5782C13.6909 15.8073 13.1455 15.9273 12.5236 15.9273C11.6945 15.9273 11.04 15.6764 10.56 15.1746C10.0909 14.6836 9.78546 13.9527 9.65455 13.0145H13.0145L13.3527 12.2945H9.58909C9.58909 12.1964 9.57818 12.0546 9.57818 11.88C9.57818 11.7055 9.57818 11.5418 9.58909 11.4436H13.7127L14.0509 10.7127H9.64364C9.91636 8.80364 10.8764 7.84364 12.5127 7.84364C13.1018 7.84364 13.6255 7.95273 14.0727 8.18182C14.5091 8.41091 14.8691 8.71636 15.1091 9.09818L15.2073 9.25092V7.27638H15.1964C14.8582 6.91638 14.4655 6.66545 14.0182 6.50181C13.5818 6.33817 13.0473 6.26181 12.4582 6.26181C11.1927 6.26181 10.1564 6.65453 9.37091 7.41817C8.59636 8.1818 8.11636 9.28363 7.93091 10.7018H7.05818V11.4327H7.87636C7.87636 11.5527 7.87636 11.7273 7.87636 11.9455V12.2836H7.06909V13.0037H7.93091C8.07273 14.4327 8.49818 15.5454 9.21818 16.32C9.94909 17.1054 10.9091 17.5091 12.0873 17.5091C13.1345 17.5091 13.9527 17.2582 14.5418 16.7563C15.12 16.2545 15.4145 15.4582 15.4145 14.3891V14.1709L15.3164 14.3673C15.0218 14.9346 14.6291 15.3382 14.1709 15.5782H14.16Z" fill="black"/>
</svg>
