<svg width="24" height="24" viewBox="0 0 24 24" fill="none" xmlns="http://www.w3.org/2000/svg">
<path d="M16.99 14.18C17.35 14.18 17.67 14.25 17.94 14.39C18.21 14.52 18.43 14.71 18.58 14.93L18.67 15.06V13.38H18.65C18.44 13.17 18.19 13.01 17.91 12.91C17.63 12.8 17.29 12.75 16.89 12.75C16.02 12.75 15.3 13.01 14.75 13.53C14.21 14.04 13.87 14.76 13.74 15.67H13.16V16.22H13.69C13.69 16.29 13.69 16.38 13.69 16.5V16.68H13.17V17.23H13.73C13.84 18.14 14.14 18.85 14.62 19.36C15.11 19.88 15.75 20.15 16.52 20.15C17.24 20.15 17.8 19.97 18.18 19.61C18.57 19.25 18.77 18.67 18.77 17.89V17.71L18.68 17.86C18.33 18.43 17.77 18.72 17.02 18.72C16.54 18.72 16.16 18.59 15.88 18.32C15.61 18.07 15.43 17.7 15.34 17.23H17.2L17.45 16.68H15.28C15.28 16.62 15.28 16.54 15.28 16.43C15.28 16.34 15.28 16.27 15.28 16.22H17.65L17.91 15.67H15.34C15.52 14.67 16.07 14.18 17 14.18H16.99Z" fill="black"/>
<path d="M16.5 9C16.5 9 16.41 9 16.36 9C16.28 9.45 16.18 9.89 16.04 10.32C16.19 10.31 16.34 10.3 16.5 10.3C19.92 10.3 22.7 13.08 22.7 16.5C22.7 19.92 19.92 22.7 16.5 22.7C13.08 22.7 10.3 19.92 10.3 16.5C10.3 16.34 10.31 16.19 10.32 16.04C9.89001 16.18 9.45 16.29 9 16.36C9 16.41 9 16.45 9 16.5C9 20.64 12.36 24 16.5 24C20.64 24 24 20.64 24 16.5C24 12.36 20.64 9 16.5 9Z" fill="black"/>
<path d="M8.70999 6.88L8.28 6.72L8.60999 5.3C9.06999 5.48 9.45001 5.72 9.73001 6.02L9.82001 6.11V4.44L9.79999 4.42C9.52999 4.2 9.23999 4.04 8.92999 3.93L9.16 2.87H8.78L8.56 3.82C8.48 3.8 8.36999 3.78 8.23999 3.76L8.44 2.87H8.06L7.87 3.73C7.87 3.73 7.76 3.73 7.69 3.73C7.22 3.73 6.79999 3.82 6.42999 3.99C6.05999 4.17 5.75999 4.42 5.54999 4.74C5.33999 5.06 5.23001 5.44 5.23001 5.85C5.23001 6.71 5.68999 7.35 6.60999 7.75L6.92999 7.88L6.56 9.51C6.05 9.33 5.59 9 5.19 8.54L5.10001 8.44V10.16H5.10999C5.40999 10.51 5.79001 10.76 6.23001 10.91L6 11.96H6.38L6.59 11.02C6.72 11.05 6.83 11.07 6.91 11.08L6.70999 11.96H7.09L7.28 11.11H7.39999C7.93999 11.11 8.41001 11.02 8.82001 10.84C9.22001 10.66 9.53999 10.39 9.76999 10.05C9.98999 9.71 10.11 9.3 10.11 8.84C10.11 8.38 9.99001 7.97 9.76001 7.63C9.52001 7.3 9.18 7.05 8.72 6.88H8.70999ZM7.92001 5.15C8.04001 5.16 8.14999 5.18 8.23999 5.2L7.92999 6.59L7.62 6.47L7.92001 5.16V5.15ZM6.87 5.74C6.87 5.56 6.93 5.42 7.06 5.32C7.18 5.22 7.34001 5.16 7.54001 5.14L7.28 6.31C7.14 6.24 7.04001 6.16 6.98001 6.08C6.91001 5.99 6.87 5.87 6.87 5.74ZM7.23001 9.67C7.13001 9.66 7.02 9.64 6.91 9.63L7.26999 8.04L7.57999 8.17L7.23999 9.68L7.23001 9.67ZM8.20999 9.48C8.05999 9.6 7.85999 9.67 7.60999 9.68L7.91 8.31C8.09 8.39 8.22 8.49 8.31 8.59C8.4 8.7 8.45001 8.82 8.45001 8.97C8.45001 9.18 8.36999 9.35 8.20999 9.48Z" fill="black"/>
<path d="M15 7.5C15 3.36 11.64 0 7.5 0C3.36 0 0 3.36 0 7.5C0 11.64 3.36 15 7.5 15C11.64 15 15 11.64 15 7.5ZM7.5 13.7C4.08 13.7 1.29999 10.92 1.29999 7.5C1.29999 4.08 4.08 1.3 7.5 1.3C10.92 1.3 13.7 4.08 13.7 7.5C13.7 10.92 10.92 13.7 7.5 13.7Z" fill="black"/>
</svg>
