<svg width="24" height="24" viewBox="0 0 24 24" fill="none" xmlns="http://www.w3.org/2000/svg">
<path d="M12 0C5.36727 0 0 5.36727 0 12C0 18.6327 5.36727 24 12 24C18.6327 24 24 18.6327 24 12C24 5.36727 18.6327 0 12 0ZM12 22.5818C6.16364 22.5818 1.41818 17.8364 1.41818 12C1.41818 6.16364 6.16364 1.41817 12 1.41817C17.8364 1.41817 22.5818 6.16364 22.5818 12C22.5818 17.8364 17.8364 22.5818 12 22.5818Z" fill="black"/>
<path d="M14.7491 15.4472C14.4655 15.6436 14.1164 15.7309 13.6909 15.7309C13.4291 15.7309 13.1891 15.7091 12.9927 15.6654C12.7855 15.6218 12.5345 15.5673 12.2618 15.48C11.7382 15.3273 11.28 15.2509 10.8982 15.2509C10.8 15.2509 10.7236 15.2509 10.6582 15.2509C11.1273 14.6727 11.3673 13.9527 11.3673 13.1127C11.3673 12.7855 11.3236 12.4364 11.2473 12.0655H14.1927V11.3018H11.0182C10.9964 11.2363 10.9527 11.1164 10.8764 10.92C10.8 10.7127 10.7236 10.4727 10.6582 10.2109C10.5927 9.94908 10.56 9.65454 10.56 9.33818C10.56 8.78182 10.7455 8.33456 11.1055 7.99638C11.4655 7.6582 11.9455 7.48362 12.5455 7.48362C13.0255 7.48362 13.4836 7.5927 13.92 7.81088C14.3564 8.02906 14.7055 8.32366 14.9782 8.68366L15.0764 8.81456V6.85091H15.0545C14.7382 6.55636 14.3345 6.3382 13.8545 6.18547C13.3855 6.03274 12.8727 5.95635 12.3273 5.95635C11.64 5.95635 11.0182 6.08726 10.4836 6.35999C9.94909 6.63271 9.52364 7.01454 9.22909 7.49454C8.93455 7.98545 8.78182 8.54183 8.78182 9.15274C8.78182 9.53456 8.81455 9.90547 8.89091 10.2437C8.95636 10.5709 9.05455 10.92 9.17455 11.2909H8.17091V12.0545H9.40364C9.53455 12.5345 9.6 12.96 9.6 13.3309C9.6 13.9309 9.46909 14.52 9.21818 15.0873C8.95636 15.6546 8.52 16.3418 7.90909 17.1164L7.75636 17.3018L7.97455 17.1927C8.30182 17.0291 8.60727 16.92 8.89091 16.8546C9.17455 16.7891 9.50182 16.7563 9.88364 16.7563C10.1455 16.7563 10.3855 16.7782 10.6036 16.8109C10.8327 16.8436 11.1164 16.8982 11.4545 16.9745C11.8364 17.0509 12.1636 17.1163 12.4255 17.1491C12.6873 17.1818 12.9818 17.2037 13.2982 17.2037C14.0727 17.2037 14.6509 16.9855 15.0109 16.5709C15.3709 16.1455 15.5455 15.48 15.5455 14.5745V14.3236L15.4473 14.5528C15.2727 14.9346 15.0327 15.2291 14.76 15.4255L14.7491 15.4472Z" fill="black"/>
</svg>
