<svg width="24" height="24" viewBox="0 0 24 24" fill="none" xmlns="http://www.w3.org/2000/svg">
<path d="M11.06 2.02991C5.5 2.02991 1 6.53997 1 12.09C1 17.64 5.51 22.1499 11.06 22.1499C14.8 22.1499 18.05 20.11 19.79 17.09L11.06 12.09V2.02991ZM9.76 3.42993V11.75H2.32C2.49 7.52 5.66 4.04993 9.77 3.42993H9.76ZM4.29 17.6499C3.24 16.3699 2.54 14.7799 2.35 13.0399H8.9L4.29 17.6499ZM11.06 20.86C8.8 20.86 6.75 19.99 5.19 18.59L10.5 13.2799L17.92 17.5399C16.27 19.6199 13.74 20.87 11.05 20.87L11.06 20.86Z" fill="black"/>
<path d="M12.94 1V11.0599L21.66 16.0599C22.51 14.5899 23 12.8799 23 11.0599C23 5.49994 18.49 1 12.94 1ZM21.1 14.24L14.24 10.3099V2.3999C18.46 3.0299 21.7 6.67995 21.7 11.0699C21.7 12.1599 21.49 13.24 21.1 14.25V14.24Z" fill="black"/>
</svg>
