<svg width="24" height="24" viewBox="0 0 24 24" fill="none" xmlns="http://www.w3.org/2000/svg">
<path d="M12 0C5.36727 0 0 5.36727 0 12C0 18.6327 5.36727 24 12 24C18.6327 24 24 18.6327 24 12C24 5.36727 18.6327 0 12 0ZM22.5818 12C22.5818 14.5964 21.6327 16.9855 20.0727 18.8291L17.5964 16.3527C18.5345 15.1527 19.0909 13.6473 19.0909 12C19.0909 8.32364 16.2873 5.30185 12.7091 4.94185V1.45086C18.2182 1.82177 22.5818 6.40364 22.5818 12ZM3.92727 18.8291C2.50909 17.1491 1.60364 15.0328 1.45091 12.7091H4.94182C5.07273 14.0728 5.60727 15.3164 6.40364 16.3527L3.92727 18.8291ZM6.32727 12C6.32727 8.86909 8.86909 6.32733 12 6.32733C15.1309 6.32733 17.6727 8.86909 17.6727 12C17.6727 15.1309 15.1309 17.6727 12 17.6727C8.86909 17.6727 6.32727 15.1309 6.32727 12ZM11.2909 1.45086V4.94185C7.94182 5.28003 5.28 7.94179 4.94182 11.2909H1.45091C1.8 6.02179 6.02182 1.81086 11.2909 1.45086ZM4.92 19.8436L7.38546 17.3782C8.62909 18.4473 10.2327 19.0909 12 19.0909C13.7673 19.0909 15.3709 18.4473 16.6145 17.3782L19.08 19.8436C17.2036 21.5454 14.7273 22.5818 12 22.5818C9.27273 22.5818 6.79636 21.5345 4.92 19.8436Z" fill="black"/>
</svg>
