<svg width="24" height="24" viewBox="0 0 24 24" fill="none" xmlns="http://www.w3.org/2000/svg">
<path d="M21.8507 4.31775H2.14931C2.06726 4.31775 1.98506 4.31775 1.90315 4.31823C1.83391 4.31872 1.76484 4.31949 1.69576 4.32137C1.54511 4.32545 1.39317 4.33434 1.2444 4.36107C1.09326 4.38828 0.95261 4.43264 0.8154 4.5025C0.680509 4.5711 0.557016 4.66083 0.449995 4.76789C0.342928 4.87496 0.253204 4.99825 0.184621 5.13328C0.114747 5.27049 0.0703489 5.41118 0.043336 5.56244C0.0164551 5.71125 0.00750735 5.86317 0.00344744 6.01366C0.00159148 6.08274 0.000795452 6.15181 0.000344512 6.22087C-0.000133977 6.30296 2.55194e-05 6.38498 2.55194e-05 6.46721V17.533C2.55194e-05 17.6153 -0.000133977 17.6971 0.000344512 17.7794C0.000795452 17.8484 0.00159148 17.9175 0.00344744 17.9866C0.00750735 18.137 0.0164551 18.2889 0.043336 18.4376C0.0703489 18.589 0.114747 18.7296 0.184621 18.8668C0.253204 19.0018 0.342928 19.1253 0.449995 19.2322C0.557016 19.3394 0.680509 19.4292 0.8154 19.4976C0.95261 19.5676 1.09326 19.612 1.2444 19.6392C1.39317 19.6658 1.54511 19.6748 1.69576 19.6789C1.76484 19.6804 1.83391 19.6814 1.90315 19.6817C1.98506 19.6823 2.06726 19.6823 2.14931 19.6823H21.8507C21.9326 19.6823 22.0148 19.6823 22.0967 19.6817C22.1658 19.6814 22.2349 19.6804 22.3043 19.6789C22.4546 19.6748 22.6065 19.6658 22.7556 19.6392C22.9066 19.612 23.0473 19.5676 23.1845 19.4976C23.3195 19.4292 23.4426 19.3394 23.5499 19.2322C23.6568 19.1253 23.7465 19.0018 23.8153 18.8668C23.8853 18.7296 23.9296 18.589 23.9565 18.4376C23.9834 18.2889 23.9922 18.137 23.9962 17.9866C23.9981 17.9175 23.999 17.8484 23.9994 17.7794C24 17.6971 24 17.6153 24 17.533V6.46721C24 6.38498 24 6.30296 23.9994 6.22087C23.999 6.15181 23.9981 6.08274 23.9962 6.01366C23.9922 5.86317 23.9834 5.71125 23.9565 5.56244C23.9296 5.41118 23.8853 5.27049 23.8153 5.13328C23.7465 4.99825 23.6568 4.87496 23.5499 4.76789C23.4426 4.66083 23.3195 4.5711 23.1845 4.5025C23.0473 4.43264 22.9066 4.38828 22.7556 4.36107C22.6065 4.33434 22.4546 4.32545 22.3043 4.32137C22.2349 4.31949 22.1658 4.31872 22.0967 4.31823C22.0148 4.31775 21.9326 4.31775 21.8507 4.31775Z" fill="black"/>
<path d="M21.8507 4.82988L22.0931 4.83034C22.1587 4.83081 22.2244 4.83152 22.2904 4.83331C22.4052 4.83642 22.5396 4.84264 22.6648 4.86508C22.7736 4.88469 22.8649 4.9145 22.9525 4.9591C23.039 5.00305 23.1183 5.06064 23.1875 5.12973C23.2569 5.19929 23.3146 5.27866 23.3591 5.3661C23.4035 5.45303 23.4331 5.54388 23.4526 5.65353C23.475 5.77739 23.4812 5.91209 23.4843 6.02764C23.4861 6.09286 23.4869 6.15808 23.4873 6.22485C23.4879 6.30559 23.4879 6.3863 23.4879 6.46721V17.533C23.4879 17.6139 23.4879 17.6945 23.4872 17.777C23.4869 17.8422 23.4861 17.9074 23.4843 17.9727C23.4812 18.0881 23.475 18.2227 23.4523 18.3481C23.4331 18.4562 23.4035 18.5471 23.3589 18.6344C23.3145 18.7217 23.2569 18.8009 23.1878 18.8701C23.1182 18.9397 23.0392 18.9971 22.9517 19.0414C22.8647 19.0858 22.7736 19.1156 22.6658 19.135C22.5381 19.1578 22.3981 19.164 22.2927 19.1669C22.2264 19.1684 22.1604 19.1693 22.0927 19.1696C22.0122 19.1702 21.9313 19.1702 21.8507 19.1702H2.14611C2.06645 19.1702 1.98662 19.1702 1.90551 19.1696C1.83938 19.1693 1.77339 19.1684 1.70959 19.1669C1.60177 19.164 1.46172 19.1578 1.33501 19.1351C1.22631 19.1156 1.13518 19.0858 1.04708 19.0409C0.960384 18.9969 0.881461 18.9395 0.811848 18.8698C0.742771 18.8008 0.685367 18.7218 0.640984 18.6344C0.596557 18.5472 0.566832 18.456 0.547288 18.3466C0.524696 18.2215 0.518491 18.0874 0.515389 17.9728C0.513619 17.9072 0.512879 17.8416 0.512459 17.7764L0.51214 17.5839V6.41637L0.512444 6.22424C0.512879 6.15863 0.513619 6.09303 0.515389 6.02748C0.518491 5.91277 0.524696 5.77862 0.547475 5.6525C0.566847 5.54406 0.596557 5.45291 0.641216 5.3652C0.685251 5.27851 0.742757 5.19937 0.812197 5.12995C0.881361 5.06076 0.960542 5.00323 1.04779 4.95887C1.13494 4.91448 1.22625 4.88469 1.33495 4.86513C1.4602 4.84262 1.59463 4.83642 1.70975 4.8333C1.77538 4.83152 1.841 4.83081 1.90614 4.83036L2.14931 4.82988H21.8507Z" fill="white"/>
<path d="M6.55185 9.48551C6.75734 9.22848 6.89679 8.88336 6.86001 8.53069C6.5592 8.54565 6.19211 8.72915 5.97958 8.98638C5.78876 9.20666 5.61986 9.56623 5.66389 9.90411C6.00157 9.9334 6.33894 9.73532 6.55185 9.48551Z" fill="black"/>
<path d="M6.85617 9.97008C6.36578 9.94087 5.94882 10.2484 5.71464 10.2484C5.48032 10.2484 5.1217 9.9848 4.73382 9.99191C4.22898 9.99932 3.76054 10.2848 3.50435 10.7388C2.97742 11.647 3.3653 12.9941 3.87771 13.7338C4.12655 14.0998 4.42645 14.5027 4.82161 14.4882C5.19496 14.4736 5.3413 14.2465 5.79514 14.2465C6.24863 14.2465 6.38046 14.4882 6.77568 14.4809C7.18553 14.4736 7.44177 14.1148 7.6906 13.7485C7.97607 13.3313 8.09293 12.9285 8.10028 12.9064C8.09293 12.8991 7.30996 12.5987 7.3027 11.6981C7.29531 10.9439 7.91742 10.5852 7.9467 10.563C7.59539 10.0434 7.04647 9.9848 6.85617 9.97008Z" fill="black"/>
<path d="M11.1262 8.94949C12.192 8.94949 12.9342 9.6842 12.9342 10.7539C12.9342 11.8274 12.1767 12.5659 11.0994 12.5659H9.91931V14.4426H9.06667V8.94949L11.1262 8.94949ZM9.91931 11.8502H10.8976C11.64 11.8502 12.0625 11.4506 12.0625 10.7577C12.0625 10.0649 11.64 9.669 10.9015 9.669H9.91931V11.8502Z" fill="black"/>
<path d="M13.157 13.3044C13.157 12.604 13.6937 12.1738 14.6455 12.1205L15.7418 12.0558V11.7475C15.7418 11.3021 15.441 11.0356 14.9386 11.0356C14.4627 11.0356 14.1657 11.264 14.0935 11.6219H13.3169C13.3626 10.8985 13.9792 10.3656 14.969 10.3656C15.9397 10.3656 16.5602 10.8795 16.5602 11.6827V14.4426H15.7722V13.7841H15.7532C15.521 14.2295 15.0147 14.5111 14.4894 14.5111C13.7052 14.5111 13.157 14.0239 13.157 13.3044ZM15.7418 12.9428V12.6269L14.7558 12.6877C14.2647 12.722 13.9869 12.939 13.9869 13.2816C13.9869 13.6318 14.2762 13.8602 14.7178 13.8602C15.2925 13.8602 15.7418 13.4643 15.7418 12.9428Z" fill="black"/>
<path d="M17.3041 15.9159V15.2497C17.3649 15.2649 17.502 15.2649 17.5705 15.2649C17.9512 15.2649 18.1568 15.105 18.2823 14.6939C18.2823 14.6863 18.3547 14.4503 18.3547 14.4465L16.9082 10.4379H17.7989L18.8116 13.6965H18.8267L19.8394 10.4379H20.7073L19.2074 14.652C18.8649 15.6228 18.469 15.9349 17.6391 15.9349C17.5705 15.9349 17.3649 15.9273 17.3041 15.9159Z" fill="black"/>
</svg>
