<svg width="24" height="24" viewBox="0 0 24 24" fill="none" xmlns="http://www.w3.org/2000/svg">
<path d="M1.57879 0V23.4101C1.97205 23.7687 2.49253 24 3.07084 24C3.64916 24 4.16964 23.7687 4.56289 23.4101C4.75952 23.2251 5.01398 23.1094 5.30313 23.1094C5.59229 23.1094 5.84675 23.2251 6.04337 23.4101C6.43663 23.7687 6.95711 24 7.53542 24C8.11373 24 8.63422 23.7687 9.02747 23.4101C9.2241 23.2251 9.47855 23.1094 9.76771 23.1094C10.0569 23.1094 10.3113 23.2251 10.508 23.4101C10.9012 23.7687 11.4217 24 12 24C12.5783 24 13.0988 23.7687 13.492 23.4101C13.6887 23.2251 13.9431 23.1094 14.2323 23.1094C14.5214 23.1094 14.7759 23.2251 14.9725 23.4101C15.3658 23.7687 15.8863 24 16.4646 24C17.0429 24 17.5634 23.7687 17.9566 23.4101C18.1533 23.2251 18.4077 23.1094 18.6969 23.1094C18.986 23.1094 19.2405 23.2251 19.4371 23.4101C19.8304 23.7687 20.3508 24 20.9292 24C21.5075 24 22.028 23.7687 22.4212 23.4101V0H1.57879ZM20.8945 22.4964C20.6863 22.4964 20.5359 22.3923 20.4434 22.3113C19.9576 21.8602 19.333 21.6173 18.6737 21.6173C18.0145 21.6173 17.3899 21.8602 16.9041 22.3113C16.8116 22.3923 16.6612 22.4964 16.4414 22.4964C16.2217 22.4964 16.0713 22.3923 15.9788 22.3113C15.493 21.8602 14.8684 21.6173 14.2092 21.6173C13.5499 21.6173 12.9253 21.8602 12.4395 22.3113C12.347 22.3923 12.1966 22.4964 11.9769 22.4964C11.7571 22.4964 11.6067 22.3923 11.5142 22.3113C11.0284 21.8602 10.4039 21.6173 9.74458 21.6173C9.0853 21.6173 8.46072 21.8602 7.97494 22.3113C7.88241 22.3923 7.73205 22.4964 7.51229 22.4964C7.29253 22.4964 7.14217 22.3923 7.04964 22.3113C6.56386 21.8602 5.93928 21.6173 5.28 21.6173C4.62072 21.6173 3.99614 21.8602 3.51036 22.3113C3.41783 22.3923 3.26747 22.4964 3.05928 22.4964V1.50361H20.8713V22.4964H20.8945Z" fill="black"/>
<path d="M14.3017 10.4096H5.04867V11.9133H14.3017V10.4096Z" fill="black"/>
<path d="M18.9282 10.4096H16.6149V11.9133H18.9282V10.4096Z" fill="black"/>
<path d="M14.3017 13.8795H5.04867V15.3831H14.3017V13.8795Z" fill="black"/>
<path d="M18.9282 13.8795H16.6149V15.3831H18.9282V13.8795Z" fill="black"/>
<path d="M14.3017 17.3494H5.04867V18.853H14.3017V17.3494Z" fill="black"/>
<path d="M18.9282 17.3494H16.6149V18.853H18.9282V17.3494Z" fill="black"/>
<path d="M11.9884 6.93976C12.9466 6.93976 13.7234 6.163 13.7234 5.20482C13.7234 4.24664 12.9466 3.46988 11.9884 3.46988C11.0303 3.46988 10.2535 4.24664 10.2535 5.20482C10.2535 6.163 11.0303 6.93976 11.9884 6.93976Z" fill="black"/>
</svg>
