<svg width="24" height="24" viewBox="0 0 24 24" fill="none" xmlns="http://www.w3.org/2000/svg">
<path d="M5.9219 13.15C6.4919 13.15 7.0019 13.37 7.4019 13.72C7.4619 13.24 7.6119 12.76 7.8919 12.28C7.3219 11.92 6.6519 11.7 5.9319 11.7C3.9019 11.7 2.2619 13.35 2.2619 15.37C2.2619 17.39 3.9119 19.04 5.9319 19.04C7.3719 19.04 8.6019 18.2 9.2119 17C8.7319 16.85 8.3219 16.56 8.0119 16.15C7.6919 16.99 6.8819 17.6 5.9319 17.6C4.7019 17.6 3.7019 16.6 3.7019 15.37C3.7019 14.14 4.7019 13.14 5.9319 13.14L5.9219 13.15Z" fill="black"/>
<path d="M14.0319 21H1.0319V22.3H14.0319V21Z" fill="black"/>
<path d="M12.0219 2C10.7519 2 9.5319 2.53 8.6619 3.43L1.5919 10.57C1.0019 11.16 0.841902 12.01 1.1619 12.78C1.2019 12.88 1.2719 12.96 1.3219 13.05C1.6119 12.48 2.0019 11.97 2.4719 11.55C2.4919 11.53 2.4919 11.51 2.5219 11.48L9.6019 4.33C10.2319 3.67 11.1119 3.29 12.0319 3.29H21.7419V8.74L19.1219 11.67C18.5819 12.28 17.8819 12.72 17.1419 12.94L10.3119 14.47C10.1819 14.51 10.1019 14.52 10.0519 14.53C9.7319 13.7 10.4919 13.07 11.1519 12.69L13.9119 11.33C14.3119 11.13 14.6119 10.79 14.7519 10.36C14.8919 9.93 14.8519 9.48 14.6419 9.08L13.8119 7.5C13.5219 6.96 12.9619 6.62 12.3519 6.62H11.1619C10.5919 6.62 10.0219 6.81 9.5219 7.19L6.1419 10.22C6.6919 10.24 7.2219 10.35 7.7319 10.54L10.3419 8.2C10.5719 8.02 10.8619 7.93 11.1619 7.93H12.3519C12.4819 7.93 12.6019 8 12.6619 8.11L13.4919 9.69C13.5519 9.8 13.5319 9.91 13.5119 9.96C13.4919 10.01 13.4519 10.11 13.3319 10.17L10.5419 11.55C8.1819 12.88 8.6519 14.57 8.8519 15.06C9.0619 15.58 9.4519 15.84 9.9819 15.84C10.1719 15.84 10.3919 15.81 10.6219 15.74L17.4519 14.21C18.4619 13.91 19.3719 13.34 20.0819 12.55L23.0319 9.25V2H12.0219Z" fill="black"/>
</svg>
