<svg width="24" height="24" viewBox="0 0 24 24" fill="none" xmlns="http://www.w3.org/2000/svg">
<path d="M12 0C5.36727 0 0 5.36727 0 12C0 18.6327 5.36727 24 12 24C18.6327 24 24 18.6327 24 12C24 5.36727 18.6327 0 12 0ZM12 6.32726C15.1309 6.32726 17.6727 8.86909 17.6727 12C17.6727 15.1309 15.1309 17.6727 12 17.6727C8.86909 17.6727 6.32727 15.1309 6.32727 12C6.32727 8.86909 8.86909 6.32726 12 6.32726ZM16.3418 6.40363C15.3164 5.60727 14.0727 5.07276 12.7091 4.94185V1.45093C15.0327 1.60366 17.1491 2.50906 18.8291 3.92725L16.3527 6.40363H16.3418ZM12 22.5818C6.16364 22.5818 1.41818 17.8364 1.41818 12C1.41818 6.16364 5.78182 1.82184 11.2909 1.45093V4.94185C7.71273 5.30185 4.90909 8.32364 4.90909 12C4.90909 15.9164 8.08364 19.0909 12 19.0909C15.9164 19.0909 19.0909 15.9164 19.0909 12C19.0909 10.2327 18.4473 8.62911 17.3782 7.38548L19.8436 4.92001C21.5455 6.79637 22.5818 9.27273 22.5818 12C22.5818 17.8364 17.8364 22.5818 12 22.5818Z" fill="black"/>
<path d="M15.3382 9.27273H13.2436L8.89091 14.7273H10.9855L15.3382 9.27273Z" fill="black"/>
<path d="M10.0255 11.2691C10.5382 11.2691 10.9527 10.8545 10.9527 10.3418C10.9527 9.82907 10.5382 9.41455 10.0255 9.41455C9.51273 9.41455 9.09818 9.82907 9.09818 10.3418C9.09818 10.8545 9.51273 11.2691 10.0255 11.2691Z" fill="black"/>
<path d="M14.1709 12.6873C13.6582 12.6873 13.2436 13.1018 13.2436 13.6145C13.2436 14.1273 13.6582 14.5418 14.1709 14.5418C14.6836 14.5418 15.0982 14.1273 15.0982 13.6145C15.0982 13.1018 14.6836 12.6873 14.1709 12.6873Z" fill="black"/>
</svg>
