<svg width="24" height="24" viewBox="0 0 24 24" fill="none" xmlns="http://www.w3.org/2000/svg">
<path d="M5.97619 0C2.95333 0 0.5 2.44364 0.5 5.45455C0.5 8.46546 2.95333 10.9091 5.97619 10.9091C8.99905 10.9091 11.4524 8.46546 11.4524 5.45455C11.4524 2.44364 8.99905 0 5.97619 0ZM3.9281 2.81453C4.44286 2.81453 4.85905 3.22908 4.85905 3.74181C4.85905 4.25454 4.44286 4.66909 3.9281 4.66909C3.41333 4.66909 2.99714 4.25454 2.99714 3.74181C2.99714 3.22908 3.41333 2.81453 3.9281 2.81453ZM8.07905 7.94182C7.56429 7.94182 7.1481 7.52727 7.1481 7.01454C7.1481 6.50181 7.56429 6.08726 8.07905 6.08726C8.59381 6.08726 9.01 6.50181 9.01 7.01454C9.01 7.52727 8.59381 7.94182 8.07905 7.94182ZM4.88095 8.12729H2.7781L7.1481 2.67274H9.25095L4.88095 8.12729Z" fill="black"/>
<path d="M12.2848 2.18182C12.5148 2.62909 12.701 3.10908 12.8433 3.59999H22.0762V18C22.0762 18.3055 21.8352 18.5455 21.5286 18.5455H18.0238V22.0364C18.0238 22.3418 17.7829 22.5818 17.4762 22.5818H5.20952V12.5018C4.71667 12.4473 4.24571 12.3491 3.78571 12.1964V24H17.3776C17.9581 24 18.5167 23.7709 18.9219 23.3564L22.8538 19.44C23.27 19.0255 23.5 18.48 23.5 17.9018V2.18182H12.2848Z" fill="black"/>
<path d="M20.2143 5.45455H14.7381V6.87271H20.2143V5.45455Z" fill="black"/>
<path d="M20.2143 14.1818H7.07143V15.6H20.2143V14.1818Z" fill="black"/>
<path d="M14.7381 17.4545H7.07143V18.8727H14.7381V17.4545Z" fill="black"/>
<path d="M20.2143 10.9091H10.5214C9.71095 11.5745 8.74714 12.0654 7.69571 12.3273H20.2143V10.9091Z" fill="black"/>
</svg>
