<svg width="24" height="24" viewBox="0 0 24 24" fill="none" xmlns="http://www.w3.org/2000/svg">
<path d="M21.96 3.98C21.14 4.2 20.31 4.35 19.42 4.35C16.46 4.35 13.83 3.04 12 1C10.17 3.04 7.54002 4.35 4.58002 4.35C3.70002 4.35 2.85998 4.19 2.03998 3.98C2.03998 4.21 2 4.44 2 4.67C2 12.64 4.18 19.59 12 22.84C19.82 19.59 22 12.64 22 4.67C22 4.43 21.96 4.21 21.96 3.98ZM12 21.43C6.27 18.84 3.49 13.77 3.31 5.56C3.75 5.62 4.17002 5.65 4.58002 5.65C7.30002 5.65 9.94 4.63 12 2.83C14.06 4.64 16.69 5.65 19.42 5.65C19.83 5.65 20.25 5.62 20.69 5.56C20.51 13.76 17.73 18.83 12 21.43Z" fill="black"/>
<path d="M14.72 14.61C14.53 14.74 14.29 14.8 13.98 14.8C13.8 14.8 13.65 14.78 13.51 14.75C13.37 14.72 13.2 14.67 12.99 14.61C12.79 14.55 12.62 14.5 12.47 14.47C12.32 14.44 12.16 14.42 11.98 14.42C11.8 14.42 11.64 14.44 11.49 14.48C11.68 14.25 11.82 14 11.91 13.75C12 13.5 12.04 13.2 12.04 12.87C12.04 12.69 12.02 12.5 11.98 12.32H14.12V11.76H11.82C11.7 11.45 11.61 11.2 11.56 11C11.5 10.81 11.48 10.59 11.48 10.35C11.48 9.97 11.61 9.66 11.88 9.43C12.14 9.2 12.5 9.08 12.95 9.08C13.31 9.08 13.66 9.16 14.01 9.33C14.36 9.5 14.63 9.72 14.83 9.99V8.2C14.57 7.99 14.24 7.83 13.86 7.71C13.48 7.59 13.07 7.54 12.64 7.54C12.05 7.54 11.52 7.65 11.07 7.86C10.61 8.08 10.26 8.38 10.01 8.77C9.76001 9.16 9.63 9.6 9.63 10.1C9.63 10.36 9.66002 10.62 9.71002 10.87C9.76002 11.12 9.84 11.42 9.94 11.75H9.27002V12.31H10.1C10.19 12.68 10.23 12.99 10.23 13.23C10.23 13.75 10.14 14.23 9.96002 14.66C9.78002 15.09 9.44001 15.64 8.95001 16.3C9.23001 16.17 9.5 16.08 9.75 16.02C10 15.96 10.3 15.94 10.63 15.94C10.84 15.94 11.03 15.95 11.21 15.98C11.39 16.01 11.62 16.05 11.9 16.11C12.24 16.17 12.5 16.22 12.7 16.25C12.9 16.28 13.13 16.29 13.38 16.29C14.01 16.29 14.47 16.11 14.77 15.75C15.06 15.39 15.21 14.82 15.21 14.03C15.08 14.28 14.92 14.47 14.74 14.59L14.72 14.61Z" fill="black"/>
</svg>
