<svg width="24" height="24" viewBox="0 0 24 24" fill="none" xmlns="http://www.w3.org/2000/svg">
<path d="M22.2625 2.80812C17.3525 1.32573 13.3381 2.74556 10.704 6.80646C10.409 4.28014 8.98659 1.0126 2.99138 0.114817L2.19061 0V0.803848C2.20115 0.876924 2.38027 7.32842 8.2069 9.66683C8.70211 9.86517 8.96551 10.408 8.818 10.9299C8.64942 11.5041 8.52299 12.0574 8.42816 12.5167H5.59387L4.37165 8.63334C4.28736 8.36192 3.99234 8.20525 3.70785 8.28876L2.69636 8.60199C2.42241 8.68551 2.26437 8.97781 2.34866 9.25968L3.37069 12.5167H1L4.61399 24H14.0019L17.6159 12.5167H9.8295C9.92433 12.0992 10.0402 11.6293 10.1772 11.1387C10.3142 10.648 10.7988 10.3558 11.3046 10.3975C19.3333 11.0239 22.6418 3.82076 22.6839 3.74768L23 3.0482L22.2625 2.82902V2.80812ZM12.9904 22.6324H5.62548L2.86494 13.8635H15.7404L12.9799 22.6324H12.9904ZM3.64463 1.6077C9.34482 2.79778 9.4818 6.52462 9.38697 8.65424C4.95115 7.27625 3.89751 3.34062 3.64463 1.6077ZM11.0201 8.99869C13.159 4.60374 16.5939 2.84992 21.0402 3.89385C20.0182 5.57458 16.8889 9.63549 11.0201 8.99869Z" fill="black"/>
</svg>
