<svg width="24" height="24" viewBox="0 0 24 24" fill="none" xmlns="http://www.w3.org/2000/svg">
<path d="M19.2222 3.27273H18.6667V1.09091C18.6667 0.490909 18.1667 0 17.5556 0H6.44444C5.83333 0 5.33333 0.490909 5.33333 1.09091V3.27273H4.77778C3.24444 3.27273 2 4.49455 2 6V21.2727C2 22.7782 3.24444 24 4.77778 24H19.2222C20.7556 24 22 22.7782 22 21.2727V6C22 4.49455 20.7556 3.27273 19.2222 3.27273ZM7.55556 1.09091H9.77778V3.27273H7.55556V1.09091ZM20.5556 21.2727C20.5556 21.9927 19.9556 22.5818 19.2222 22.5818H4.77778C4.04444 22.5818 3.44444 21.9927 3.44444 21.2727V6C3.44444 5.28 4.04444 4.69096 4.77778 4.69096H19.2222C19.9556 4.69096 20.5556 5.28 20.5556 6V21.2727Z" fill="black"/>
<path d="M14.8556 16.68C14.6444 16.8219 14.3778 16.8873 14.0333 16.8873C13.8333 16.8873 13.6667 16.8655 13.5111 16.8328C13.3556 16.8001 13.1667 16.7455 12.9333 16.68C12.7111 16.6146 12.5222 16.56 12.3556 16.5273C12.2 16.4946 12.0111 16.4727 11.8111 16.4727C11.6111 16.4727 11.4333 16.4946 11.2667 16.5382C11.4778 16.2873 11.6333 16.0146 11.7333 15.7419C11.8333 15.4582 11.8778 15.1419 11.8778 14.7819C11.8778 14.5855 11.8556 14.3782 11.8111 14.1818H14.1889V13.5708H11.6333C11.5 13.2327 11.4 12.9601 11.3444 12.7419C11.2778 12.5346 11.2556 12.2946 11.2556 12.0328C11.2556 11.6182 11.4 11.28 11.7 11.0291C11.9889 10.7782 12.3889 10.6473 12.8889 10.6473C13.2889 10.6473 13.6778 10.7346 14.0667 10.92C14.4556 11.1055 14.7556 11.3455 14.9778 11.64V9.68728C14.6889 9.45819 14.3222 9.28365 13.9 9.15274C13.4778 9.02183 13.0222 8.96724 12.5444 8.96724C11.8889 8.96724 11.3 9.08732 10.8 9.31641C10.3 9.5455 9.9 9.88358 9.62222 10.309C9.34444 10.7345 9.2 11.2146 9.2 11.76C9.2 12.0437 9.23333 12.3273 9.28889 12.6001C9.34444 12.8728 9.43333 13.2001 9.54445 13.5601H8.8V14.1709H9.72222C9.82222 14.5745 9.86667 14.9128 9.86667 15.1746C9.86667 15.7419 9.76667 16.2654 9.56667 16.7345C9.36667 17.2036 8.98889 17.8036 8.44444 18.5236C8.75556 18.3818 9.05556 18.2836 9.33333 18.2181C9.61111 18.1527 9.94444 18.1309 10.3111 18.1309C10.5444 18.1309 10.7556 18.1419 10.9556 18.1746C11.1556 18.2073 11.4111 18.251 11.7222 18.3164C12.1 18.3819 12.3889 18.4364 12.6111 18.4692C12.8333 18.5019 13.0889 18.5127 13.3667 18.5127C14.0667 18.5127 14.5778 18.3164 14.9111 17.9237C15.2333 17.531 15.4 16.909 15.4 16.0472C15.2556 16.32 15.0778 16.5273 14.8778 16.6582L14.8556 16.68Z" fill="black"/>
</svg>
