<svg width="24" height="24" viewBox="0 0 24 24" fill="none" xmlns="http://www.w3.org/2000/svg">
<path d="M7.495 14C4.735 14 2.495 16.24 2.495 19C2.495 21.76 4.735 24 7.495 24C10.255 24 12.495 21.76 12.495 19C12.495 16.24 10.255 14 7.495 14ZM7.495 20.17L4.605 21.07C4.975 20.19 5.395 19.32 5.885 18.47C6.375 17.62 6.915 16.83 7.495 16.07C8.065 16.83 8.615 17.63 9.105 18.47C9.595 19.32 10.015 20.19 10.385 21.07L7.495 20.17Z" fill="black"/>
<path d="M16.845 2.70001H12.145C11.786 2.70001 11.495 2.99099 11.495 3.34998C11.495 3.70896 11.786 4 12.145 4H16.845C17.204 4 17.495 3.70896 17.495 3.34998C17.495 2.99099 17.204 2.70001 16.845 2.70001Z" fill="black"/>
<path d="M9.495 0C8.395 0 7.495 0.9 7.495 2V12.5C7.945 12.5 8.375 12.55 8.795 12.63V2C8.795 1.62 9.115 1.29999 9.495 1.29999H19.495C19.875 1.29999 20.195 1.62 20.195 2V21C20.195 21.38 19.875 21.7 19.495 21.7H13.405C13.195 22.17 12.925 22.6 12.615 23H19.505C20.605 23 21.505 22.1 21.505 21V2C21.505 0.9 20.605 0 19.505 0H9.495Z" fill="black"/>
<path d="M14.495 20.5C15.0473 20.5 15.495 20.0523 15.495 19.5C15.495 18.9477 15.0473 18.5 14.495 18.5C13.9427 18.5 13.495 18.9477 13.495 19.5C13.495 20.0523 13.9427 20.5 14.495 20.5Z" fill="black"/>
</svg>
