<svg width="24" height="24" viewBox="0 0 24 24" fill="none" xmlns="http://www.w3.org/2000/svg">
<path d="M12 0C5.36727 0 0 5.36727 0 12C0 18.6327 5.36727 24 12 24C18.6327 24 24 18.6327 24 12C24 5.36727 18.6327 0 12 0ZM17.6727 12C17.6727 15.1309 15.1309 17.6727 12 17.6727C8.86909 17.6727 6.32727 15.1309 6.32727 12C6.32727 8.86909 8.86909 6.32726 12 6.32726C15.1309 6.32726 17.6727 8.86909 17.6727 12ZM11.2909 1.45089V4.94182C7.94182 5.28 5.28 7.94182 4.94182 11.2909H1.45091C1.8 6.02183 6.02182 1.81089 11.2909 1.45089ZM12 22.5818C6.40364 22.5818 1.82182 18.2182 1.45091 12.7091H4.94182C5.30182 16.2873 8.32364 19.0909 12 19.0909C15.9164 19.0909 19.0909 15.9164 19.0909 12C19.0909 8.32364 16.2873 5.30182 12.7091 4.94182V1.45089C18.2182 1.8218 22.5818 6.40364 22.5818 12C22.5818 17.5964 17.8364 22.5818 12 22.5818Z" fill="black"/>
<path d="M9.29455 15.4146C9.52364 15.3055 9.74182 15.2291 9.94909 15.1855C10.1564 15.1418 10.3964 15.12 10.6691 15.12C10.8436 15.12 10.9964 15.12 11.1491 15.1527C11.3018 15.1855 11.4873 15.2073 11.7164 15.2509C11.9891 15.3055 12.2073 15.3382 12.3709 15.36C12.5345 15.3818 12.72 15.3927 12.9273 15.3927C13.44 15.3927 13.8218 15.2509 14.0618 14.9564C14.3018 14.6618 14.4218 14.1927 14.4218 13.5491C14.3127 13.7564 14.1927 13.9091 14.0291 14.0073C13.8764 14.1164 13.6691 14.16 13.4291 14.16C13.2873 14.16 13.1564 14.1491 13.0473 14.1164C12.9382 14.0945 12.7964 14.0509 12.6218 13.9963C12.4582 13.9418 12.3164 13.9091 12.1964 13.8764C12.0764 13.8545 11.9455 13.8327 11.7927 13.8327C11.64 13.8327 11.52 13.8436 11.3891 13.8764C11.5418 13.6909 11.6618 13.4837 11.7382 13.2764C11.8145 13.0691 11.8473 12.8291 11.8473 12.5564C11.8473 12.4036 11.8364 12.2509 11.8036 12.1091H13.5491V11.6509H11.6618C11.5636 11.4 11.4873 11.1927 11.4436 11.0291C11.4 10.8763 11.3782 10.6909 11.3782 10.4945C11.3782 10.1782 11.4873 9.92727 11.7055 9.74181C11.9236 9.55636 12.2073 9.4582 12.5782 9.4582C12.8727 9.4582 13.1564 9.52362 13.44 9.66544C13.7236 9.80726 13.9418 9.9818 14.1055 10.2109V8.74908C13.8873 8.57453 13.6255 8.44363 13.32 8.34545C13.0036 8.24727 12.6764 8.20362 12.3273 8.20362C11.8473 8.20362 11.4109 8.29092 11.04 8.46547C10.6691 8.64001 10.3745 8.89091 10.1673 9.20728C9.96 9.52364 9.86182 9.88363 9.86182 10.2873C9.86182 10.5054 9.88364 10.7127 9.92727 10.92C9.97091 11.1273 10.0364 11.3673 10.1236 11.64H9.57818V12.0982H10.2545C10.3309 12.4036 10.3636 12.6545 10.3636 12.8509C10.3636 13.2764 10.2873 13.6691 10.1455 14.0182C9.99273 14.3673 9.72 14.8145 9.31637 15.36L9.29455 15.4146Z" fill="black"/>
</svg>
