<svg width="24" height="24" viewBox="0 0 24 24" fill="none" xmlns="http://www.w3.org/2000/svg">
<path d="M12 0C12 0 6.62704 2.90944 1.9675 8.09289V24C6.32606 21.503 12 19.3962 12 19.3962C12 19.3962 17.6739 21.503 22.0325 24V8.09289C17.373 2.90944 12 0 12 0ZM20.5834 21.5699C16.693 19.5969 12.7023 18.1031 12.5016 18.0251L12 17.8356L11.4984 18.0251C11.2977 18.1031 7.30702 19.5857 3.41664 21.5699V8.65025C6.79425 5.01626 10.4951 2.58616 12 1.67208C13.5049 2.58616 17.2058 5.01626 20.5834 8.65025V21.5699Z" fill="black"/>
<path d="M14.5973 13.8337C14.3855 13.9787 14.118 14.0455 13.7724 14.0455C13.5718 14.0455 13.4045 14.0233 13.2485 13.9898C13.0924 13.9564 12.9029 13.9006 12.6688 13.8337C12.4459 13.7669 12.2564 13.7111 12.0892 13.6777C11.9331 13.6442 11.7436 13.6219 11.543 13.6219C11.3423 13.6219 11.164 13.6442 10.9968 13.6888C11.2085 13.4324 11.3646 13.1538 11.4649 12.8751C11.5653 12.5964 11.6098 12.262 11.6098 11.8941C11.6098 11.6935 11.5876 11.4817 11.543 11.2811H13.9285V10.6568H11.3646C11.2308 10.3112 11.1305 10.0326 11.0748 9.80961C11.0079 9.59781 10.9856 9.35255 10.9856 9.08501C10.9856 8.66142 11.1305 8.31587 11.4315 8.05949C11.7213 7.8031 12.1226 7.66929 12.6242 7.66929C13.0255 7.66929 13.4157 7.75847 13.8058 7.94797C14.196 8.13748 14.497 8.38275 14.7199 8.68373V6.68833C14.4301 6.45424 14.0622 6.2759 13.6386 6.14213C13.215 6.00836 12.758 5.95265 12.2787 5.95265C11.621 5.95265 11.0302 6.07527 10.5286 6.30937C10.0158 6.5546 9.62564 6.88899 9.34696 7.32373C9.06828 7.75847 8.92337 8.24897 8.92337 8.80633C8.92337 9.09616 8.95681 9.38601 9.01254 9.66469C9.06828 9.94337 9.15746 10.2778 9.26893 10.6457H8.52207V11.2699H9.44729C9.54761 11.6823 9.5922 12.0279 9.5922 12.2954C9.5922 12.8751 9.49187 13.4101 9.29123 13.8895C9.09058 14.3688 8.71157 14.9819 8.16536 15.7176C8.47748 15.5727 8.77845 15.4724 9.05713 15.4055C9.33581 15.3386 9.67023 15.3163 10.0381 15.3163C10.2722 15.3163 10.484 15.3275 10.6846 15.3609C10.8853 15.3943 11.1417 15.4389 11.4538 15.5058C11.8328 15.5727 12.1226 15.6285 12.3456 15.6619C12.5685 15.6953 12.8249 15.7065 13.1036 15.7065C13.8058 15.7065 14.3186 15.5058 14.653 15.1045C14.9875 14.7032 15.1435 14.0678 15.1435 13.1872C14.9986 13.4659 14.8202 13.6777 14.6196 13.8114L14.5973 13.8337Z" fill="black"/>
</svg>
