<svg width="24" height="24" viewBox="0 0 24 24" fill="none" xmlns="http://www.w3.org/2000/svg">
<path d="M1.35652 17.3948V6.6052C1.35652 5.72868 2.07652 5.00868 2.95304 5.00868H20.8696V3.65217H2.95304C1.32522 3.65217 0 4.97738 0 6.6052V17.3948C0 19.0226 1.32522 20.3478 2.95304 20.3478H20.8696V18.9913H2.95304C2.07652 18.9913 1.35652 18.2713 1.35652 17.3948Z" fill="black"/>
<path d="M24 0.521739H22.6435V23.4783H24V0.521739Z" fill="black"/>
<path d="M4.86261 9.14088L4.8313 9.09913H3.82957V15.1513H4.88348V10.9878L7.79478 15.1096L7.82609 15.1513H8.82783V9.09913H7.77391V13.2522L4.86261 9.14088Z" fill="black"/>
<path d="M10.1113 13.1061C9.86087 13.3461 9.73565 13.6487 9.73565 14.0244C9.73565 14.4 9.8713 14.7026 10.153 14.9426C10.4243 15.1722 10.7791 15.287 11.207 15.287C11.4991 15.287 11.7704 15.2348 12.0104 15.1304C12.1878 15.047 12.3339 14.953 12.4487 14.8383C12.5948 15.1409 12.8557 15.287 13.2417 15.287C13.513 15.287 13.7322 15.2035 13.9096 15.0261C14.087 14.8487 14.1704 14.5983 14.1704 14.2748V13.993L13.9826 14.2122C13.8991 14.3061 13.7843 14.3583 13.6487 14.3583C13.5443 14.3583 13.4713 14.3269 13.4296 14.2748C13.3774 14.2226 13.3565 14.1391 13.3565 14.0244V12.48C13.3565 11.9269 13.2 11.4991 12.8974 11.1965C12.5948 10.9044 12.1565 10.7583 11.6035 10.7583C11.0504 10.7583 10.6226 10.9043 10.3096 11.1861C9.99652 11.4678 9.84 11.8852 9.84 12.4174V12.7931L10.0383 12.48C10.1948 12.2191 10.3826 12.0313 10.5913 11.9165C10.8104 11.8018 11.0817 11.7391 11.3948 11.7391C11.6974 11.7391 11.927 11.8122 12.073 11.9478C12.2087 12.0731 12.2817 12.24 12.3026 12.4696L11.1443 12.6678C10.6957 12.7409 10.3513 12.8974 10.1009 13.1374L10.1113 13.1061ZM12.313 13.2V13.9304C12.2296 14.0661 12.1148 14.1704 11.9687 14.2539C11.8122 14.3374 11.6348 14.3791 11.4365 14.3791C11.2383 14.3791 11.0922 14.3374 10.9774 14.2435C10.873 14.16 10.8209 14.0556 10.8209 13.92C10.8209 13.6174 11.0191 13.44 11.4574 13.3565L12.3235 13.2H12.313Z" fill="black"/>
<path d="M19.4087 10.7478C19.0957 10.7478 18.8139 10.8104 18.5739 10.9461C18.3861 11.0504 18.2191 11.1861 18.0939 11.3322C17.9687 11.1652 17.8122 11.0296 17.6243 10.9357C17.3948 10.8104 17.113 10.7478 16.8104 10.7478C16.5391 10.7478 16.2887 10.8 16.08 10.9044C15.9548 10.967 15.8296 11.0504 15.7252 11.1548V10.8731H14.6713V15.1409H15.7252V12.313C15.8296 12.1252 15.9443 11.9896 16.0696 11.8956C16.2052 11.8017 16.3722 11.76 16.56 11.76C16.8104 11.76 17.0087 11.833 17.1548 11.9896C17.3009 12.1461 17.3739 12.3652 17.3739 12.6365V15.1409H18.4174V12.3548C18.5843 11.9583 18.8557 11.76 19.2522 11.76C19.5026 11.76 19.7009 11.8435 19.847 11.9896C19.993 12.1461 20.0661 12.3652 20.0661 12.6365V15.1409H21.1096V12.3965C21.1096 11.9061 20.953 11.4991 20.6609 11.1965C20.3583 10.8939 19.9409 10.7374 19.4191 10.7374L19.4087 10.7478Z" fill="black"/>
</svg>
