<svg width="24" height="24" viewBox="0 0 24 24" fill="none" xmlns="http://www.w3.org/2000/svg">
<path d="M9.155 8.56995L7.925 11.98L9.235 11.49C10.895 10.87 12.375 10.22 13.755 9.51001C15.135 8.79001 16.515 7.95995 17.975 6.94995L18.685 6.45996L18.025 5.91003C16.645 4.77003 15.345 3.81999 14.045 2.98999C12.745 2.15999 11.335 1.37999 9.725 0.609985L8.455 0.0100098L9.295 3.20996C4.865 2.76996 1.515 4.33002 1.365 4.40002L0.995 4.57996V10.41L1.955 9.89001C1.985 9.87001 4.905 8.31006 9.145 8.56006L9.155 8.56995ZM2.305 5.43005C3.335 5.03005 6.395 4.03 10.075 4.63L11.065 4.79004L10.445 2.42004C11.495 2.96004 12.455 3.50997 13.355 4.08997C14.395 4.74997 15.435 5.5 16.525 6.37C15.375 7.13 14.265 7.78999 13.165 8.35999C12.205 8.85999 11.205 9.32001 10.115 9.76001L10.955 7.43994L10.135 7.34998C9.475 7.27998 8.845 7.25 8.235 7.25C5.545 7.25 3.445 7.88997 2.305 8.33997V5.43005Z" fill="black"/>
<path d="M23.005 13.58L22.045 14.1C22.045 14.1 19.075 15.6701 14.855 15.4301L16.085 12.02L14.775 12.51C13.115 13.13 11.635 13.78 10.255 14.49C8.875 15.21 7.495 16.04 6.035 17.05L5.325 17.54L5.985 18.09C7.355 19.23 8.655 20.18 9.955 21.01C11.255 21.84 12.665 22.62 14.275 23.39L15.545 23.99L14.705 20.79C19.145 21.23 22.485 19.67 22.635 19.6L23.005 19.42V13.58ZM21.705 18.5699C20.675 18.9699 17.605 19.97 13.935 19.37L12.945 19.21L13.565 21.58C12.515 21.04 11.555 20.49 10.655 19.91C9.615 19.25 8.575 18.5 7.485 17.63C8.635 16.87 9.745 16.21 10.845 15.64C11.805 15.14 12.805 14.68 13.895 14.24L13.055 16.5601L13.875 16.65C17.475 17.04 20.295 16.22 21.695 15.67V18.5699H21.705Z" fill="black"/>
</svg>
