<svg width="24" height="24" viewBox="0 0 24 24" fill="none" xmlns="http://www.w3.org/2000/svg">
<path d="M22.5 3H14.61L13.01 1H8.4L6 4.01V5H7.3V4.3H22.5C22.61 4.3 22.7 4.39 22.7 4.5V14.5C22.7 14.61 22.61 14.7 22.5 14.7H21V16H22.5C23.33 16 24 15.33 24 14.5V4.5C24 3.67 23.33 3 22.5 3Z" fill="black"/>
<path d="M17.5 9H8.61L7.01 7H2.4L0 10.01V21.5C0 22.33 0.67 23 1.5 23H17.5C18.33 23 19 22.33 19 21.5V10.5C19 9.67 18.33 9 17.5 9ZM17.7 21.5C17.7 21.61 17.61 21.7 17.5 21.7H1.5C1.39 21.7 1.3 21.61 1.3 21.5V10.3H17.5C17.61 10.3 17.7 10.39 17.7 10.5V21.5Z" fill="black"/>
<path d="M6.9 12.51L7.98 15.97L6.9 19.43C7.95 18.98 9 18.48 10.01 17.9C11.03 17.31 11.98 16.66 12.9 15.97C11.99 15.28 11.03 14.63 10.01 14.04C8.99 13.45 7.95 12.95 6.9 12.51Z" fill="black"/>
</svg>
