<svg width="24" height="24" viewBox="0 0 24 24" fill="none" xmlns="http://www.w3.org/2000/svg">
<path d="M11.9998 4.66667C13.2885 4.66667 14.3332 3.622 14.3332 2.33333C14.3332 1.04467 13.2885 0 11.9998 0C10.7112 0 9.6665 1.04467 9.6665 2.33333C9.6665 3.622 10.7112 4.66667 11.9998 4.66667Z" fill="black"/>
<path d="M11.9998 24C13.2885 24 14.3332 22.9553 14.3332 21.6667C14.3332 20.378 13.2885 19.3333 11.9998 19.3333C10.7112 19.3333 9.6665 20.378 9.6665 21.6667C9.6665 22.9553 10.7112 24 11.9998 24Z" fill="black"/>
<path d="M11.9998 14.3333C13.2885 14.3333 14.3332 13.2887 14.3332 12C14.3332 10.7113 13.2885 9.66667 11.9998 9.66667C10.7112 9.66667 9.6665 10.7113 9.6665 12C9.6665 13.2887 10.7112 14.3333 11.9998 14.3333Z" fill="black"/>
</svg>
