<svg width="24" height="24" viewBox="0 0 24 24" fill="none" xmlns="http://www.w3.org/2000/svg">
<path d="M14.3991 12.0021L23.4645 2.93671C24.1328 2.26838 24.1328 1.18892 23.4645 0.520582C22.7961 -0.14775 21.7165 -0.14775 21.0482 0.520582L11.9829 9.58577L2.91753 0.520582C2.2492 -0.14775 1.16958 -0.14775 0.50125 0.520582C-0.167083 1.18892 -0.167083 2.26838 0.50125 2.93671L9.56658 12.0021L0.50125 21.0675C-0.167083 21.7358 -0.167083 22.8153 0.50125 23.4836C0.843984 23.8264 1.2724 23.9807 1.71796 23.9807C2.16351 23.9807 2.59193 23.8092 2.93467 23.4836L12 14.4184L21.0653 23.4836C21.4081 23.8264 21.8365 23.9807 22.282 23.9807C22.7276 23.9807 23.156 23.8092 23.4988 23.4836C24.1671 22.8153 24.1671 21.7358 23.4988 21.0675L14.4334 12.0021H14.3991Z" fill="black"/>
</svg>
