<svg width="24" height="24" viewBox="0 0 24 24" fill="none" xmlns="http://www.w3.org/2000/svg">
<path d="M0 4.79973C0 4.13699 0.537258 3.59973 1.2 3.59973H22.8C23.4627 3.59973 24 4.13699 24 4.79973C24 5.46247 23.4627 5.99973 22.8 5.99973H1.2C0.537259 5.99973 0 5.46247 0 4.79973Z" fill="black"/>
<path d="M2.4 11.9997C2.4 11.337 2.93726 10.7997 3.6 10.7997H19.2C19.8627 10.7997 20.4 11.337 20.4 11.9997C20.4 12.6625 19.8627 13.1997 19.2 13.1997H3.6C2.93726 13.1997 2.4 12.6625 2.4 11.9997Z" fill="black"/>
<path d="M6 19.1997C6 18.537 6.53726 17.9997 7.2 17.9997H16.8C17.4627 17.9997 18 18.537 18 19.1997C18 19.8625 17.4627 20.3997 16.8 20.3997H7.2C6.53726 20.3997 6 19.8625 6 19.1997Z" fill="black"/>
</svg>
