<svg width="24" height="24" viewBox="0 0 24 24" fill="none" xmlns="http://www.w3.org/2000/svg">
<path d="M23.04 8.064L13.2 0.672001C12.84 0.408001 12.42 0.276001 12 0.276001C11.58 0.276001 11.16 0.408001 10.8 0.672001L0.96 8.064C0.36 8.52 0 9.228 0 9.984V23.724H24V9.984C24 9.228 23.64 8.52 23.04 8.064ZM8.76 22.152V14.472H15.24V22.152H8.76ZM22.44 22.152H16.8V12.912H7.2V22.152H1.56V9.972C1.56 9.708 1.68 9.456 1.896 9.3L11.736 1.92C11.832 1.848 11.928 1.836 12 1.836C12.072 1.836 12.168 1.848 12.264 1.92L22.104 9.312C22.32 9.468 22.44 9.72 22.44 9.984V22.164V22.152Z" fill="black"/>
</svg>
