<svg width="24" height="24" viewBox="0 0 24 24" fill="none" xmlns="http://www.w3.org/2000/svg">
<path d="M12.96 15.2C12.61 15.2 12.28 15.14 11.96 15.04L10.94 16.06C11.56 16.34 12.24 16.5 12.96 16.5C15.72 16.5 17.96 14.26 17.96 11.5V9.04L16.66 10.34V11.5C16.66 13.54 15 15.2 12.96 15.2Z" fill="black"/>
<path d="M22.92 1.96L22 1.04L17.88 5.16C17.48 2.8 15.44 1 12.96 1C10.2 1 7.96001 3.24 7.96001 6V11.5C7.96001 12.52 8.28 13.45 8.8 14.24L7.56999 15.47C6.74999 14.36 6.26001 12.99 6.26001 11.5V8H4.96001V11.5C4.96001 13.35 5.60001 15.04 6.65001 16.39L1 22.04L1.92001 22.96L22.92 1.96ZM9.25999 6C9.25999 3.96 10.92 2.3 12.96 2.3C15 2.3 16.66 3.96 16.66 6V6.38L15.04 8H9.25999V6ZM9.25999 11.5V9.3H13.74L9.75002 13.29C9.45002 12.76 9.25999 12.16 9.25999 11.5Z" fill="black"/>
<path d="M19.66 11.37C19.66 14.97 16.87 18.03 13.27 18.19C11.96 18.25 10.73 17.93 9.67 17.33L8.72002 18.28C9.64002 18.85 10.68 19.25 11.79 19.41C12.09 19.45 12.31 19.7 12.31 20V21.1C12.31 21.43 12.04 21.7 11.71 21.7H8.75999C8.31999 21.7 7.96001 22.06 7.96001 22.5V23H17.96V22.5C17.96 22.06 17.6 21.7 17.16 21.7H14.21C13.88 21.7 13.61 21.43 13.61 21.1V20C13.61 19.7 13.83 19.45 14.12 19.41C17.99 18.85 20.96 15.52 20.96 11.5V8H19.66V11.37Z" fill="black"/>
</svg>
