<svg width="24" height="24" viewBox="0 0 24 24" fill="none" xmlns="http://www.w3.org/2000/svg">
<path d="M23.7296 22.4986L17.9605 16.7295C17.5704 16.3394 17.4876 15.7129 17.8068 15.2518C19.119 13.3248 19.7692 10.9131 19.4027 8.32414C18.788 3.99732 15.206 0.54534 10.8555 0.0606419C4.60172 -0.625029 -0.623564 4.60026 0.0621068 10.854C0.534983 15.1927 3.98698 18.7865 8.3138 19.4013C10.891 19.7677 13.3145 19.1294 15.2414 17.8171C15.7025 17.4979 16.3172 17.5807 16.7192 17.9708L22.4883 23.7399C22.6656 23.9172 22.8902 24 23.1148 24C23.3394 24 23.5641 23.9172 23.7414 23.7399C24.0842 23.3971 24.0842 22.8296 23.7414 22.4868L23.7296 22.4986ZM1.76446 9.76642C1.76446 5.36867 5.3465 1.78663 9.74425 1.78663C14.142 1.78663 17.724 5.36867 17.724 9.76642C17.724 14.1642 14.142 17.7462 9.74425 17.7462C5.3465 17.7462 1.76446 14.1642 1.76446 9.76642Z" fill="black"/>
</svg>
