<svg width="24" height="24" viewBox="0 0 24 24" fill="none" xmlns="http://www.w3.org/2000/svg">
<path d="M22.5882 10.5882H13.4118V1.41176C13.4118 0.635294 12.7765 0 12 0C11.2235 0 10.5882 0.635294 10.5882 1.41176V10.5882H1.41176C0.635294 10.5882 0 11.2235 0 12C0 12.7765 0.635294 13.4118 1.41176 13.4118H10.5882V22.5882C10.5882 23.3647 11.2235 24 12 24C12.7765 24 13.4118 23.3647 13.4118 22.5882V13.4118H22.5882C23.3647 13.4118 24 12.7765 24 12C24 11.2235 23.3647 10.5882 22.5882 10.5882Z" fill="black"/>
</svg>
