<svg width="24" height="24" viewBox="0 0 24 24" fill="none" xmlns="http://www.w3.org/2000/svg">
<path d="M22.9242 5.40829L8.60618 19.8705C8.52308 19.9545 8.42438 20.0212 8.31574 20.0667C8.20711 20.1122 8.09066 20.1356 7.97306 20.1356C7.85546 20.1356 7.73901 20.1122 7.63038 20.0667C7.52174 20.0212 7.42305 19.9545 7.33994 19.8705L1.07581 13.5433C0.907893 13.3737 0.813559 13.1436 0.813559 12.9038C0.813559 12.6639 0.907893 12.4339 1.07581 12.2643C1.24372 12.0947 1.47146 11.9994 1.70893 11.9994C1.9464 11.9994 2.17414 12.0947 2.34206 12.2643L7.97306 17.9531L21.6579 4.12929C21.8259 3.95969 22.0536 3.8644 22.2911 3.8644C22.5285 3.8644 22.7563 3.95969 22.9242 4.12929C23.0921 4.2989 23.1864 4.52893 23.1864 4.76879C23.1864 5.00865 23.0921 5.23869 22.9242 5.40829Z" fill="black"/>
<path fill-rule="evenodd" clip-rule="evenodd" d="M21.6579 4.12929C21.8259 3.95969 22.0536 3.8644 22.2911 3.8644C22.5285 3.8644 22.7563 3.95969 22.9242 4.12929C23.0921 4.2989 23.1864 4.52893 23.1864 4.76879C23.1864 5.00865 23.0921 5.23869 22.9242 5.40829L8.60618 19.8705C8.52308 19.9545 8.42438 20.0212 8.31574 20.0667C8.20711 20.1122 8.09066 20.1356 7.97306 20.1356C7.85546 20.1356 7.73901 20.1122 7.63038 20.0667C7.52174 20.0212 7.42305 19.9545 7.33994 19.8705L1.07581 13.5433C0.907893 13.3737 0.813559 13.1436 0.813559 12.9038C0.813559 12.6639 0.907893 12.4339 1.07581 12.2643C1.24372 12.0947 1.47146 11.9994 1.70893 11.9994C1.9464 11.9994 2.17414 12.0947 2.34206 12.2643L7.97306 17.9531L21.6579 4.12929ZM7.97309 16.7967L2.92026 11.692C2.60042 11.3689 2.16482 11.1858 1.70893 11.1858C1.25305 11.1858 0.817504 11.3688 0.49766 11.6919C0.178087 12.0147 0 12.4508 0 12.9038C0 13.3568 0.178087 13.7929 0.49766 14.1157L6.76147 20.4426C6.91976 20.6026 7.10818 20.73 7.31616 20.8171C7.52417 20.9042 7.74741 20.9491 7.97306 20.9491C8.19871 20.9491 8.42195 20.9042 8.62996 20.8171C8.8378 20.7301 9.02611 20.6028 9.18433 20.4429L23.5023 5.98068C23.8219 5.65789 24 5.2218 24 4.76879C24 4.31578 23.8219 3.8797 23.5023 3.55691C23.1825 3.23384 22.7469 3.05084 22.2911 3.05084C21.8352 3.05084 21.3996 3.23384 21.0798 3.55691L7.97309 16.7967Z" fill="black"/>
</svg>
