<svg width="100" height="100" viewBox="0 0 100 100" fill="none" xmlns="http://www.w3.org/2000/svg">
<g clip-path="url(#clip0_15980_8332)">
<rect width="100" height="100" fill="#A19FFF"/>
<path d="M28.1293 66.7094V89.1756L48.3455 100.403V77.9425L28.1293 66.7094Z" fill="white"/>
<path d="M48.3455 77.9425V100.403L68.5616 89.1756V66.7094L48.3455 77.9425Z" fill="#221F1F"/>
<path d="M39.0878 0.40332L25.5641 38.711L64.0181 32.4811L39.0878 0.40332Z" fill="white"/>
<path d="M45.3274 38.8954C56.1134 37.1481 64.6197 34.2653 64.3269 32.4566C64.034 30.6479 55.0528 30.5981 44.2668 32.3454C33.4807 34.0928 24.9744 36.9755 25.2673 38.7842C25.5602 40.593 34.5414 40.6427 45.3274 38.8954Z" fill="#221F1F"/>
<path d="M60.9413 61.2306C60.9413 65.1243 55.3047 68.2819 48.3455 68.2819C41.3863 68.2819 35.7443 65.1243 35.7443 61.2306C35.7443 60.8519 35.7977 60.4785 35.9043 60.1158C36.8589 56.7501 42.0636 54.1846 48.3455 54.1846C51.9397 54.1846 55.182 55.0273 57.4751 56.3768C57.971 58.7717 57.0271 61.3479 54.974 62.9534C56.9685 61.78 58.6056 60.1691 59.7948 58.2916C60.1841 58.761 60.4827 59.2624 60.6747 59.7851C60.8507 60.2492 60.9413 60.7345 60.9413 61.2306Z" fill="#221F1F"/>
<path d="M60.6906 59.8224C60.6266 59.9131 60.5626 59.9985 60.4986 60.0838C60.0987 60.6119 59.6774 61.0919 59.2454 61.5293C58.6908 62.0893 58.1149 62.5854 57.5283 63.0121C57.443 63.0761 57.3523 63.1401 57.267 63.2041C57.1497 63.2895 57.0324 63.3695 56.9151 63.4495C54.382 65.1936 51.385 66.1217 48.3454 66.1591C48.2974 66.1591 48.2441 66.1644 48.1961 66.1644H48.1534C47.8281 66.1751 47.6042 66.1697 47.5082 66.1644C47.5295 66.1591 47.5508 66.1537 47.5722 66.1537C44.9272 66.0524 42.2715 65.2736 39.8771 63.7535C38.9065 63.1348 38.0267 62.4254 37.2427 61.6466C36.7575 61.1612 36.3096 60.6492 35.9043 60.1158C36.1283 59.3264 36.5868 58.5797 37.2321 57.9023C38.016 57.0915 39.0719 56.3714 40.3357 55.7954C42.5168 54.7873 45.3059 54.1846 48.3455 54.1846C51.9451 54.1846 55.1873 55.0273 57.4751 56.3768C57.971 58.7663 57.0271 61.3479 54.974 62.9534C56.9685 61.78 58.6056 60.1691 59.7948 58.2916C60.1841 58.7663 60.4827 59.2624 60.6747 59.7851C60.68 59.7958 60.6853 59.8064 60.6906 59.8224Z" fill="#006A4D"/>
<path d="M62.3652 44.5736C62.3652 44.5736 62.3545 44.5469 62.3438 44.5309C61.1547 41.7893 59.1656 39.3677 56.4619 37.6502C56.0033 37.3569 55.5393 37.0955 55.0647 36.8608H55.0594C52.2971 35.4794 49.2787 34.9993 46.3724 35.3407H46.3671C45.9565 35.394 45.5405 35.458 45.1352 35.5434C45.1139 35.5434 45.0872 35.5487 45.0659 35.554C42.0849 36.1621 39.2906 37.6502 37.0829 39.9171C36.363 40.6639 35.7017 41.4959 35.1204 42.408C31.5422 48.0459 32.0648 55.1127 35.9043 60.1158C36.3096 60.6492 36.7575 61.1612 37.2427 61.6466C38.0267 62.4254 38.9065 63.1348 39.8771 63.7535C42.2715 65.2736 44.9272 66.0524 47.5722 66.1537C47.7641 66.1591 47.9615 66.1644 48.1534 66.1644H48.1961C48.2441 66.1644 48.2974 66.1591 48.3454 66.1591C51.385 66.1217 54.382 65.1936 56.9151 63.4495C57.0324 63.3695 57.1497 63.2895 57.267 63.2041C57.3523 63.1401 57.443 63.0761 57.5283 63.0121C58.1202 62.5587 58.6856 62.0633 59.2189 61.5192C59.7415 60.9858 60.2267 60.4038 60.6747 59.7851C60.8667 59.5291 61.048 59.263 61.2186 58.991C62.0772 57.6468 62.6958 56.212 63.0958 54.7506C63.1491 54.5425 63.2024 54.3238 63.2504 54.1105C63.2717 54.0198 63.2877 53.9345 63.3091 53.8438C63.3517 53.6358 63.389 53.4331 63.421 53.2304C63.453 53.0277 63.485 52.8197 63.5064 52.617C63.533 52.409 63.5544 52.201 63.5704 51.9983C63.789 49.4594 63.3677 46.8991 62.3652 44.5736ZM59.7948 58.2916C58.6056 60.1691 56.9685 61.78 54.974 62.9534C57.0271 61.3479 57.971 58.7723 57.4751 56.3827C57.4271 56.1374 57.3631 55.8973 57.2831 55.6626C56.1366 52.249 52.521 51.4276 52.361 51.3956C52.9903 51.0969 55.358 49.9021 56.4459 47.1658C57.5444 44.4082 56.9045 41.1492 54.8247 38.7277C55.2567 38.9784 61.5599 42.7121 61.9492 50.1581C62.0985 53.0651 61.3146 55.8914 59.7948 58.2916Z" fill="white"/>
<path d="M28.8653 68.2818C28.8813 71.8981 28.9026 75.5198 28.9186 79.1362C29.0146 78.6295 29.6439 75.6105 32.4969 73.8983C34.3633 72.7782 36.2084 72.7996 36.9443 72.8529C34.2513 71.3274 31.5583 69.8019 28.8653 68.2818Z" fill="white"/>
<path d="M20.4022 54.0568C20.4022 54.0568 21.698 58.3612 26.9667 59.5507C26.9667 59.5507 22.9779 60.2387 22.8979 65.0339C22.8979 65.0339 21.49 60.8788 16.4453 59.5507C16.4453 59.5507 20.6635 59.0493 20.4022 54.0621V54.0568Z" fill="white"/>
<path d="M72.46 28.9608C72.46 28.9608 74.6304 36.1668 83.4453 38.1563C83.4453 38.1563 76.7688 39.3084 76.6355 47.3252C76.6355 47.3252 74.2837 40.3752 65.8368 38.1457C65.8368 38.1457 72.8919 37.3082 72.4546 28.9608H72.46Z" fill="white"/>
<path d="M22.8232 2.29722C22.8232 2.29722 23.4738 4.4521 26.1082 5.04415C26.1082 5.04415 24.1137 5.39085 24.0711 7.78575C24.0711 7.78575 23.3672 5.71088 20.8448 5.04415C20.8448 5.04415 22.9512 4.79346 22.8232 2.29722Z" fill="white"/>
</g>
<defs>
<clipPath id="clip0_15980_8332">
<rect width="100" height="100" fill="white"/>
</clipPath>
</defs>
</svg>
