<svg width="100" height="100" viewBox="0 0 100 100" fill="none" xmlns="http://www.w3.org/2000/svg">
<rect width="100" height="100" fill="#A19FFF"/>
<path d="M49.9507 97.181L24.0334 82.1863C22.6485 81.3867 22.3764 79.499 23.481 78.3449L55.3583 44.8437C56.0425 44.1265 57.1307 43.9699 57.988 44.4645L84.6883 59.9126C86.0732 60.7122 86.3453 62.6 85.2406 63.754L53.9899 96.5958C52.9429 97.7004 51.2696 97.9394 49.9507 97.181Z" fill="black"/>
<path d="M3.71566 52.9056C2.94902 45.7009 9.48609 40.2849 18.6033 40.1942C20.2685 36.1797 24.9919 33.4841 31.0426 33.0555C26.7478 32.2394 21.9584 32.2146 17.1607 33.0307C5.03465 35.0916 -2.59056 45.7091 0.813965 54.4636C2.40494 58.5605 6.05684 61.7425 10.7721 63.655C6.83996 60.8357 4.15256 56.9943 3.71566 52.9139V52.9056Z" fill="white"/>
<path d="M26.893 3C26.893 3 28.7313 9.07542 36.1586 10.7571C36.1586 10.7571 30.5284 11.7298 30.413 18.4894C30.413 18.4894 28.4264 12.6283 21.3041 10.7488C21.3041 10.7488 27.264 10.0399 26.893 3Z" fill="white"/>
<path d="M90.7344 60.786C90.7344 60.786 92.5727 66.8613 100 68.543C100 68.543 94.3698 69.5157 94.2544 76.2753C94.2544 76.2753 92.2677 70.4142 85.1454 68.5347C85.1454 68.5347 91.1054 67.8258 90.7344 60.786Z" fill="white"/>
<path d="M98.1314 41.8914V37.9346L92.6577 36.7641L68.0017 12.1081C66.7157 10.8221 64.6385 10.8221 63.3525 12.1081L26.0922 49.3682L19.4563 51.866V55.6497C19.4399 56.5152 19.753 57.3891 20.4125 58.0485L49.5859 87.222C50.8719 88.5079 52.9493 88.5079 54.2352 87.222L97.1668 44.2903C97.8263 43.6308 98.1396 42.7652 98.1231 41.8997L98.1314 41.8914Z" fill="black"/>
<path d="M97.1701 35.4851L67.9961 6.3111C66.7116 5.02662 64.629 5.02662 63.3446 6.3111L20.4142 49.2415C19.1297 50.5259 19.1297 52.6085 20.4142 53.893L49.5882 83.067C50.8727 84.3515 52.9552 84.3515 54.2397 83.067L97.1701 40.1366C98.4546 38.8521 98.4546 36.7696 97.1701 35.4851Z" fill="white"/>
<path d="M92.891 36.9925L66.48 10.5815C65.9617 10.0632 65.1214 10.0632 64.6031 10.5815L58.745 16.4396C58.2267 16.9579 58.2266 17.7982 58.7449 18.3165L85.1559 44.7276C85.6742 45.2458 86.5146 45.2458 87.0329 44.7275L92.891 38.8694C93.4093 38.3511 93.4093 37.5108 92.891 36.9925Z" fill="black"/>
<path d="M72.0314 42.4877L68.4991 38.9553C68.0323 38.4885 67.2755 38.4886 66.8087 38.9554L63.2763 42.4877C62.8095 42.9545 62.8095 43.7113 63.2763 44.1781L66.8087 47.7105C67.2755 48.1773 68.0323 48.1772 68.4991 47.7104L72.0314 44.1781C72.4982 43.7113 72.4982 42.9545 72.0314 42.4877Z" fill="#A19FFF"/>
<path d="M79.5278 49.9824L75.9954 46.4501C75.5286 45.9833 74.7718 45.9833 74.305 46.4501L70.7727 49.9824C70.3059 50.4492 70.3059 51.206 70.7727 51.6728L74.3051 55.2052C74.7719 55.672 75.5286 55.672 75.9954 55.2052L79.5278 51.6728C79.9946 51.206 79.9946 50.4492 79.5278 49.9824Z" fill="#A19FFF"/>
<path d="M64.5287 34.9841L60.9963 31.4518C60.5296 30.985 59.7727 30.985 59.3059 31.4518L55.7735 34.9841C55.3068 35.4509 55.3068 36.2077 55.7736 36.6745L59.3059 40.2068C59.7727 40.6736 60.5296 40.6737 60.9963 40.2069L64.5287 36.6746C64.9955 36.2078 64.9955 35.4509 64.5287 34.9841Z" fill="#A19FFF"/>
<path d="M57.0388 27.495L53.5064 23.9627C53.0396 23.4959 52.2828 23.4959 51.816 23.9627L48.2836 27.495C47.8168 27.9618 47.8169 28.7187 48.2837 29.1855L51.816 32.7178C52.2828 33.1846 53.0396 33.1845 53.5064 32.7177L57.0387 29.1854C57.5055 28.7186 57.5055 27.9618 57.0388 27.495Z" fill="#A19FFF"/>
<path d="M58.6026 62.1445L48.1804 72.5667C47.7136 73.0335 47.7136 73.7903 48.1804 74.2571L51.7127 77.7895C52.1795 78.2562 52.9363 78.2563 53.4031 77.7895L63.8253 67.3673C64.2921 66.9005 64.2922 66.1436 63.8254 65.6768L60.293 62.1445C59.8262 61.6777 59.0693 61.6777 58.6026 62.1445Z" fill="#A19FFF"/>
<path d="M56.7167 57.7952L53.1844 54.2628C52.7176 53.7961 51.9608 53.796 51.494 54.2628L47.9616 57.7952C47.4948 58.262 47.4949 59.0188 47.9617 59.4856L51.494 63.0179C51.9608 63.4847 52.7176 63.4848 53.1844 63.018L56.7168 59.4856C57.1836 59.0188 57.1835 58.262 56.7167 57.7952Z" fill="black"/>
<path d="M49.214 50.3061L45.6816 46.7737C45.2148 46.3069 44.458 46.3069 43.9912 46.7737L40.4588 50.3061C39.9921 50.7729 39.992 51.5297 40.4588 51.9964L43.9912 55.5288C44.458 55.9956 45.2148 55.9956 45.6816 55.5288L49.2139 51.9964C49.6807 51.5297 49.6808 50.7729 49.214 50.3061Z" fill="black"/>
<path d="M41.7241 42.8057L38.1917 39.2733C37.7249 38.8065 36.9681 38.8065 36.5013 39.2733L32.9689 42.8057C32.5021 43.2725 32.5021 44.0293 32.9689 44.4961L36.5013 48.0285C36.9681 48.4953 37.7249 48.4952 38.1917 48.0284L41.724 44.4961C42.1908 44.0293 42.1908 43.2725 41.7241 42.8057Z" fill="black"/>
<path d="M49.0593 65.4533L45.527 61.9209C45.0602 61.4541 44.3034 61.4542 43.8366 61.921L40.3043 65.4533C39.8375 65.9201 39.8374 66.6769 40.3042 67.1437L43.8366 70.676C44.3033 71.1428 45.0602 71.1428 45.527 70.6761L49.0594 67.1437C49.5262 66.6769 49.5261 65.92 49.0593 65.4533Z" fill="black"/>
<path d="M41.5566 57.9642L38.0243 54.4319C37.5575 53.9651 36.8006 53.9651 36.3338 54.4319L32.8015 57.9642C32.3347 58.431 32.3348 59.1878 32.8016 59.6546L36.3339 63.187C36.8007 63.6537 37.5575 63.6538 38.0243 63.187L41.5566 59.6547C42.0234 59.1879 42.0234 58.431 41.5566 57.9642Z" fill="black"/>
<path d="M34.0667 50.463L30.5343 46.9307C30.0675 46.4639 29.3107 46.4639 28.8439 46.9307L25.3116 50.463C24.8448 50.9298 24.8448 51.6866 25.3115 52.1534L28.8439 55.6858C29.3107 56.1526 30.0675 56.1526 30.5343 55.6858L34.0667 52.1534C34.5335 51.6866 34.5335 50.9298 34.0667 50.463Z" fill="black"/>
<path d="M64.3741 50.1459L60.8417 46.6135C60.3749 46.1467 59.6182 46.1467 59.1514 46.6135L55.619 50.1459C55.1522 50.6127 55.1522 51.3694 55.619 51.8362L59.1514 55.3686C59.6182 55.8354 60.3749 55.8354 60.8417 55.3686L64.3741 51.8362C64.8409 51.3694 64.8409 50.6127 64.3741 50.1459Z" fill="black"/>
<path d="M71.864 57.635L68.3317 54.1026C67.8649 53.6359 67.108 53.6358 66.6412 54.1026L63.1089 57.635C62.6421 58.1018 62.6421 58.8586 63.1089 59.3254L66.6412 62.8577C67.108 63.3245 67.8649 63.3246 68.3317 62.8578L71.864 59.3254C72.3308 58.8586 72.3308 58.1018 71.864 57.635Z" fill="black"/>
<path d="M56.8778 42.6479L53.3454 39.1155C52.8786 38.6487 52.1218 38.6488 51.655 39.1156L48.1226 42.6479C47.6558 43.1147 47.6558 43.8715 48.1226 44.3383L51.655 47.8707C52.1218 48.3375 52.8786 48.3374 53.3454 47.8706L56.8777 44.3383C57.3445 43.8715 57.3445 43.1147 56.8778 42.6479Z" fill="black"/>
<path d="M49.375 35.1532L45.8426 31.6209C45.3759 31.1541 44.619 31.154 44.1522 31.6208L40.6199 35.1531C40.1531 35.6199 40.1531 36.3768 40.6199 36.8436L44.1522 40.3759C44.619 40.8427 45.3759 40.8427 45.8427 40.3759L49.375 36.8436C49.8418 36.3768 49.8418 35.62 49.375 35.1532Z" fill="black"/>
<path d="M92.891 36.9925L66.48 10.5815C65.9617 10.0632 65.1214 10.0632 64.6031 10.5815L58.745 16.4396C58.2267 16.9579 58.2266 17.7982 58.7449 18.3165L85.1559 44.7276C85.6742 45.2458 86.5146 45.2458 87.0329 44.7275L92.891 38.8694C93.4093 38.3511 93.4093 37.5108 92.891 36.9925Z" fill="#00482F"/>
<path d="M92.891 36.9925L66.48 10.5815C65.9617 10.0632 65.1214 10.0632 64.6031 10.5815L58.745 16.4396C58.2267 16.9579 58.2266 17.7982 58.7449 18.3165L85.1559 44.7276C85.6742 45.2458 86.5146 45.2458 87.0329 44.7275L92.891 38.8694C93.4093 38.3511 93.4093 37.5108 92.891 36.9925Z" fill="black"/>
<path d="M66.1245 11.7893L92.891 38.5558C93.4098 39.0746 93.4098 39.914 92.891 40.4328L87.0329 46.2909C86.5142 46.8096 85.6748 46.8096 85.156 46.2909L58.745 19.8798C58.2262 19.3611 58.2262 18.5217 58.745 18.0029L64.9587 11.7893C65.2793 11.4687 65.8039 11.4687 66.1245 11.7893Z" fill="#A19FFF"/>
</svg>
