<svg width="100" height="100" viewBox="0 0 100 100" fill="none" xmlns="http://www.w3.org/2000/svg">
<g clip-path="url(#clip0_15980_8373)">
<rect width="100" height="100" fill="#A19FFF"/>
<path d="M59.427 85.1396C58.9677 84.5988 58.7126 83.915 58.7126 83.2109V73.812H38.8432V83.2109C38.8432 83.9252 38.5983 84.609 38.1289 85.1396L31.8833 92.4567C31.6078 92.7833 31.4547 93.2017 31.4547 93.6303V94.2426C31.4547 94.7427 31.8629 95.1509 32.363 95.1509H65.1929C65.6929 95.1509 66.1011 94.7427 66.1011 94.2426V93.6303C66.1011 93.2017 65.948 92.7833 65.6725 92.4567L59.427 85.1396Z" fill="white"/>
<path d="M97.1758 7.60171H2.7172C1.18643 7.60171 -0.0585938 8.84674 -0.0585938 10.3775V69.6387C-0.0585938 71.1694 1.18643 72.4145 2.7172 72.4145H97.1656C98.6964 72.4145 99.9414 71.1694 99.9414 69.6387V10.3877C99.9414 8.85695 98.6964 7.61192 97.1656 7.61192L97.1758 7.60171Z" fill="white"/>
<path d="M57.0899 84.8245L63.5293 92.1415H40.4249C40.4249 92.1415 56.6204 91.3659 57.0797 84.8245H57.0899Z" fill="#A19FFF"/>
<path d="M2.71751 6.22472H97.1761C97.615 6.22472 98.0436 6.30636 98.4416 6.44923C98.3599 5.08174 97.2169 4 95.8393 4H4.05438C2.66649 4 1.53372 5.08174 1.45208 6.44923C1.86028 6.31656 2.27869 6.22472 2.71751 6.22472Z" fill="black"/>
<path d="M4.52356 12.1726V67.8518H95.3798V12.1726H4.52356Z" fill="black"/>
<path d="M92.543 42.0954H8.04462V64.7814H92.543V42.0954Z" fill="white"/>
<path d="M89.8379 51.055L80.8064 46.8913L66.9478 59.2905L58.3857 54.3002L45.5273 56.4433L42.6902 49.3507L33.1995 46.1973L24.5557 54.8411L18.8001 50.5345L10.2482 55.8105V57.4332L18.7184 52.2081L24.668 56.6678L33.5669 47.7689L41.6391 50.4528L44.6496 57.9944L58.1204 55.7493L67.1111 60.9947L81.0411 48.5343L89.8175 52.5857V51.055H89.8379Z" fill="black"/>
<path d="M19.0448 20.4941L33.1381 33.0732L41.7002 28.0829L54.5587 30.226L57.3957 23.1335L66.8865 19.9801L75.5302 28.6238L81.2859 24.3173L89.8378 29.5933V31.2159L81.3675 25.9909L75.4179 30.4505L66.5191 21.5517L58.4468 24.2356L55.4363 31.7772L41.9655 29.5321L32.9748 34.7775L19.0448 22.317V20.4941Z" fill="white"/>
<path d="M38.854 73.812V83.2109C38.854 83.6293 38.7519 84.0477 38.5784 84.4355H45.2526C46.916 84.4355 48.457 83.517 49.2326 82.0373L50.6409 79.4044C51.0083 78.7104 51.7328 78.2818 52.5288 78.2818H58.7335V73.8222H38.8642L38.854 73.812Z" fill="black"/>
<path d="M8.17712 15.5715H21.9438C21.9438 15.5715 12.1469 20.3271 8.17712 39.1861V15.5715Z" fill="white"/>
</g>
<defs>
<clipPath id="clip0_15980_8373">
<rect width="100" height="100" fill="white"/>
</clipPath>
</defs>
</svg>
