<svg width="100" height="100" viewBox="0 0 100 100" fill="none" xmlns="http://www.w3.org/2000/svg">
<g clip-path="url(#clip0_15980_8387)">
<rect width="100" height="100" fill="#A19FFF"/>
<path d="M53.4632 19.0806C31.3036 19.0806 13.1456 32.3838 11.4565 49.2876C12.8641 65.8384 31.1628 78.9802 53.4632 78.9802C75.7636 78.9802 94.0623 65.8384 95.4699 49.2876C93.7808 32.3838 75.6329 19.0806 53.4632 19.0806Z" fill="#A19FFF"/>
<path d="M53.4631 14.0456C29.916 14.0456 10.833 28.8919 10.833 47.1976C10.833 48.4584 10.9335 49.709 11.1145 50.9395C11.215 50.2536 11.3457 49.5779 11.5066 48.9021C13.427 32.19 31.4744 19.0784 53.4731 19.0784C75.4719 19.0784 93.5193 32.1799 95.4397 48.9021C95.5905 49.5779 95.7312 50.2536 95.8318 50.9395C96.0128 49.709 96.1133 48.4684 96.1133 47.1976C96.1133 28.8919 77.0303 14.0456 53.4832 14.0456H53.4631Z" fill="black"/>
<path d="M53.463 15.4869C76.6783 15.4869 95.5602 29.7281 95.5602 47.227C95.5602 64.7258 76.6783 78.967 53.463 78.967C30.2477 78.967 11.3657 64.7359 11.3657 47.237C11.3657 29.7382 30.2477 15.4869 53.463 15.4869ZM53.463 11.0592C27.7743 11.0592 6.94185 27.257 6.94185 47.237C6.94185 67.217 27.7642 83.4148 53.463 83.4148C79.1617 83.4148 99.9841 67.217 99.9841 47.237C99.9841 27.257 79.1516 11.0592 53.463 11.0592Z" fill="white"/>
<path d="M70.867 12.1189C70.7866 11.8264 70.7363 11.5339 70.7463 11.2313C70.8368 9.28477 73.0588 7.69121 75.7131 7.69121C75.8237 7.69121 75.9343 7.69121 76.055 7.69121C78.8601 7.83242 81.1424 9.6882 81.052 11.7558C80.9916 13.1476 79.8253 14.3478 78.1965 14.9227C79.6444 15.6086 81.0319 16.3448 82.3791 17.1416C83.9677 15.8204 84.9832 13.9948 85.0737 11.9273C85.2647 7.60044 81.3134 3.89895 76.2561 3.6468C76.0751 3.6468 75.8941 3.63672 75.7232 3.63672C70.9072 3.63672 66.9458 6.84401 66.7447 10.9994C68.1523 11.3221 69.5298 11.6852 70.877 12.0987L70.867 12.1189Z" fill="white"/>
<path d="M75.5024 42.4583C75.0298 42.307 74.4668 42.2969 73.9439 42.4583L56.1479 47.6928C57.4348 48.2274 58.0481 49.3166 57.646 50.3454L75.432 45.1108C76.4676 44.8083 76.9602 43.9611 76.548 43.2349C76.3469 42.8819 75.9649 42.6096 75.4923 42.4684" fill="black"/>
<path d="M57.7664 49.0568H57.7563C57.7965 48.2197 57.2033 47.4028 56.1476 46.9691C56.037 46.9187 55.9164 46.8783 55.7857 46.838C55.293 46.6867 54.7803 46.6262 54.2876 46.6564L43.8814 26.8782C43.7809 26.6865 43.5798 26.5453 43.3385 26.4747C43.1073 26.4041 42.8358 26.394 42.5744 26.4646C42.0616 26.6058 41.7901 27.0294 41.9912 27.3925L52.3974 47.1708C51.9852 47.4028 51.6433 47.7154 51.4121 48.0785C51.211 48.4013 51.1306 48.7341 51.1306 49.0568V50.247C51.1004 51.1749 51.8444 52.0523 53.1012 52.4356C54.7803 52.95 56.7408 52.3952 57.4849 51.185C57.5552 51.074 57.6055 50.9732 57.6457 50.8622C57.7262 50.6504 57.7563 50.4487 57.7563 50.2369H57.7664V49.0468V49.0568Z" fill="black"/>
<path d="M68.8962 25.5904C67.7801 25.2475 66.4731 25.6206 65.9804 26.4275C65.4878 27.2344 65.9804 28.1522 67.1065 28.4951C68.2326 28.838 69.5296 28.4749 70.0222 27.6681C70.5149 26.8612 70.0122 25.9333 68.8962 25.5904Z" fill="black"/>
<path d="M41.3376 70.2518C40.2216 69.9088 38.9246 70.282 38.4219 71.0788C37.9192 71.8756 38.4219 72.8136 39.548 73.1464C40.674 73.4792 41.9811 73.1161 42.4738 72.3194C42.9664 71.5226 42.4537 70.5947 41.3376 70.2518Z" fill="black"/>
<path d="M23.9735 38.3712C22.8575 38.0282 21.5404 38.4014 21.0477 39.1982C20.555 39.995 21.0678 40.9229 22.1838 41.2658C23.2998 41.6087 24.6069 41.2355 25.0996 40.4387C25.5922 39.642 25.0996 38.704 23.9735 38.3712Z" fill="black"/>
<path d="M86.27 57.4711C85.154 57.1282 83.8368 57.5014 83.3442 58.2982C82.8515 59.095 83.3643 60.0229 84.4803 60.3658C85.5963 60.7087 86.9034 60.3355 87.3961 59.5387C87.8887 58.742 87.3961 57.804 86.27 57.4711Z" fill="black"/>
<path d="M51.1906 23.7745C50.9292 23.6938 50.6477 23.6635 50.3461 23.6938C49.4311 23.7644 48.7776 24.3594 48.8781 25.0049C48.9385 25.4386 49.3306 25.7916 49.8534 25.953C50.1148 26.0337 50.4064 26.0639 50.708 26.0438C51.623 25.9631 52.2765 25.3781 52.1759 24.7326C52.1056 24.2989 51.7235 23.9459 51.2007 23.7845" fill="black"/>
<path d="M58.6008 72.7898C58.3394 72.7091 58.0478 72.6789 57.7462 72.699C56.8413 72.7797 56.1777 73.3647 56.2782 74.0102C56.3486 74.4439 56.7307 74.7969 57.2535 74.9583C57.5149 75.0389 57.8065 75.0692 58.1081 75.049C59.013 74.9683 59.6665 74.3834 59.576 73.7379C59.5057 73.3042 59.1236 72.9512 58.6008 72.7898Z" fill="black"/>
<path d="M34.4806 28.5213C33.9578 28.3599 33.3244 28.4003 32.8317 28.6625C32.0978 29.0559 31.9369 29.8022 32.4698 30.3166C32.6507 30.488 32.882 30.6192 33.1434 30.6998C33.6662 30.8612 34.2996 30.8209 34.7923 30.5586C35.5263 30.1653 35.6871 29.419 35.1543 28.9046C34.9733 28.7331 34.742 28.602 34.4806 28.5213Z" fill="black"/>
<path d="M75.3108 68.0372C74.7879 67.8758 74.1545 67.9162 73.6618 68.1784C72.9178 68.5617 72.757 69.308 73.2999 69.8325C73.4809 70.0039 73.7121 70.135 73.9635 70.2157C74.4863 70.3771 75.1197 70.3368 75.6124 70.0745C76.3564 69.6812 76.5173 68.9449 75.9743 68.4205C75.7934 68.249 75.5621 68.1179 75.3007 68.0372" fill="black"/>
<path d="M82.8516 33.4854C82.3288 33.324 81.6954 33.3644 81.2027 33.6266C80.4687 34.02 80.3079 34.7562 80.8407 35.2807C81.0217 35.4522 81.253 35.5833 81.5144 35.664C82.0372 35.8253 82.6706 35.785 83.1633 35.5228C83.8972 35.1294 84.0581 34.3831 83.5252 33.8687C83.3442 33.6972 83.113 33.5661 82.8516 33.4854Z" fill="black"/>
<path d="M26.9398 63.081C26.417 62.9196 25.7936 62.9599 25.2909 63.2222C24.5469 63.6155 24.386 64.3518 24.9289 64.8762C25.1099 65.0477 25.3412 65.1788 25.5925 65.2595C26.1153 65.4209 26.7387 65.3805 27.2414 65.1183C27.9854 64.735 28.1463 63.9887 27.6034 63.4642C27.4224 63.2928 27.1911 63.1617 26.9297 63.081" fill="black"/>
<path d="M89.3163 45.3486C89.0549 45.2679 88.7633 45.2377 88.4717 45.2679C87.5568 45.3385 86.9032 45.9336 87.0038 46.5791C87.0641 47.0128 87.4562 47.3658 87.979 47.5272C88.2405 47.6079 88.532 47.6381 88.8337 47.6179C89.7486 47.5473 90.4021 46.9523 90.3016 46.3068C90.2413 45.8731 89.8491 45.5201 89.3263 45.3587" fill="black"/>
<path d="M20.4748 51.2156C20.2134 51.1349 19.9218 51.1047 19.6202 51.1249C18.7153 51.2056 18.0618 51.7905 18.1523 52.436C18.2227 52.8697 18.6047 53.2227 19.1276 53.3841C19.389 53.4648 19.6805 53.495 19.9822 53.4749C20.8871 53.3942 21.5506 52.8092 21.4501 52.1637C21.3797 51.73 20.9976 51.377 20.4748 51.2156Z" fill="black"/>
<path d="M20.5955 53.5779C20.5955 43.0684 30.137 34.1627 43.3483 31.0361C43.6399 27.0421 47.4907 23.734 52.6787 22.7052C52.6385 22.7052 52.5982 22.7052 52.5681 22.7052C32.4696 22.7052 16.1817 34.4854 16.1817 49.0191C16.1817 56.5633 20.5754 63.351 27.5933 68.1519C23.2096 64.1276 20.5955 59.0746 20.5955 53.5779Z" fill="white"/>
<path d="M5.59466 50.1654C2.01534 54.6031 -0.015625 59.6662 -0.015625 65.042C-0.015625 82.4904 21.3296 96.3382 47.6517 96.6307C57.3138 96.7416 67.6597 95.3296 76.9498 91.2751V80.09C70.0023 83.1561 61.9891 84.9211 53.463 84.9211C28.2369 84.9211 7.51502 69.5806 5.59466 50.1654Z" fill="black"/>
<path d="M86.1595 86.0728C86.803 85.6088 87.4464 85.1348 88.0698 84.6305C88.7032 84.0859 89.3065 83.521 89.8896 82.9462V71.7711C88.7133 72.8402 87.4666 73.8588 86.1595 74.8271V86.0828V86.0728Z" fill="black"/>
<path d="M93.2078 68.3586V79.2513C97.501 73.7747 99.9844 67.3399 99.9844 60.4513V56.6187C98.5868 60.8649 96.2643 64.8286 93.2078 68.3586Z" fill="black"/>
</g>
<defs>
<clipPath id="clip0_15980_8387">
<rect width="100" height="100" fill="white"/>
</clipPath>
</defs>
</svg>
