<svg width="100" height="100" viewBox="0 0 100 100" fill="none" xmlns="http://www.w3.org/2000/svg">
<g clip-path="url(#clip0_15980_8415)">
<rect width="100" height="100" fill="#A19FFF"/>
<path fill-rule="evenodd" clip-rule="evenodd" d="M36.2489 14.2975L48.453 21.3516C48.9723 21.6437 49.2644 22.163 49.2644 22.7472V36.8554C49.2644 37.4397 48.9723 37.959 48.453 38.2511C47.9336 38.5432 47.3494 38.5432 46.8409 38.2511L34.6369 31.197C34.1176 30.9049 33.8255 30.3856 33.8255 29.8013V15.6931C33.8255 15.1089 34.1176 14.5896 34.6369 14.2975C35.1562 14.0054 35.7404 14.0054 36.2489 14.2975Z" fill="black"/>
<path fill-rule="evenodd" clip-rule="evenodd" d="M51.5383 21.3625L63.7531 14.3084C64.2725 14.0163 64.8567 14.0163 65.3652 14.3084C65.8845 14.6005 66.1766 15.1198 66.1766 15.7041V29.8123C66.1766 30.3965 65.8845 30.9158 65.3652 31.2079L53.1504 38.262C52.631 38.5542 52.0468 38.5542 51.5383 38.262C51.019 37.9699 50.7269 37.4506 50.7269 36.8664V22.7582C50.7269 22.1739 51.019 21.6546 51.5383 21.3625Z" fill="white"/>
<path d="M49.1788 3.21899C49.6981 2.92696 50.2824 2.92705 50.7908 3.21899L63.0055 10.2733C63.5248 10.5654 63.8175 11.0848 63.8175 11.6798C63.8175 12.264 63.5249 12.7833 63.0055 13.0754L50.7908 20.1297C50.2715 20.4217 49.6873 20.4218 49.1788 20.1297L36.9641 13.0754C36.4448 12.7832 36.1532 12.264 36.1532 11.6798C36.1532 11.074 36.4448 10.5654 36.9641 10.2733V10.2842L49.1788 3.21899ZM50.8334 4.63641C50.325 4.34455 49.7406 4.34438 49.2215 4.63641L41.0207 9.11599L41.0098 9.12692C40.5036 9.41791 46.2908 6.6276 50.2608 6.73577C54.5126 6.84408 59.4671 9.23434 58.9478 8.94223L50.8334 4.63641Z" fill="white"/>
<path fill-rule="evenodd" clip-rule="evenodd" d="M65.029 16.5691L64.726 28.4269C64.726 29.1842 64.3474 29.8226 63.6982 30.2012L53.8095 36.3682C53.1604 36.7468 58.927 32.8303 61.7616 28.2322C64.4015 23.9369 65.029 15.8009 65.029 16.5583V16.5691Z" fill="black"/>
<path fill-rule="evenodd" clip-rule="evenodd" d="M19.3305 43.271L21.8838 44.7532L31.5237 50.3251C32.043 50.6172 32.3351 51.1365 32.3351 51.7208V65.829C32.3351 66.4132 32.043 66.9325 31.5237 67.2246C31.0044 67.5168 30.4201 67.5168 29.9116 67.2246L17.7076 60.1705C17.1883 59.8784 16.8962 59.3591 16.8962 58.7749V44.6775C16.8962 44.0716 17.1883 43.5631 17.7076 43.271C18.2269 42.9789 18.8112 42.9789 19.3197 43.271H19.3305Z" fill="black"/>
<path fill-rule="evenodd" clip-rule="evenodd" d="M34.6161 50.3251L46.831 43.271C47.3503 42.9789 47.9345 42.9789 48.443 43.271C48.9623 43.5631 49.2545 44.0824 49.2545 44.6775V58.7749C49.2545 59.3591 48.9623 59.8784 48.443 60.1705L36.2282 67.2246C35.7089 67.5168 35.1246 67.5168 34.6161 67.2246C34.1076 66.9325 33.8047 66.4132 33.8047 65.829V51.7208C33.8047 51.1365 34.0968 50.6172 34.6161 50.3251Z" fill="white"/>
<path fill-rule="evenodd" clip-rule="evenodd" d="M48.5959 45.8781L48.2929 57.7359C48.2929 58.4933 47.9142 59.1316 47.2651 59.5103L37.3764 65.6772C36.7272 66.0559 42.4938 62.1393 45.3285 57.5412C47.9683 53.246 48.5959 45.11 48.5959 45.8673V45.8781Z" fill="black"/>
<path fill-rule="evenodd" clip-rule="evenodd" d="M2.40787 72.2227L4.96119 73.7049L14.6011 79.2768C15.1204 79.5689 15.4125 80.0882 15.4125 80.6725V94.7807C15.4125 95.3649 15.1204 95.8842 14.6011 96.1763C14.0818 96.4684 13.4975 96.4684 12.989 96.1763L0.784993 89.1222C0.276493 88.8301 -0.015625 88.3108 -0.015625 87.7266V73.6292C-0.015625 73.0233 0.276493 72.5148 0.795813 72.2227C1.31513 71.9306 1.89937 71.9306 2.40787 72.2227Z" fill="black"/>
<path fill-rule="evenodd" clip-rule="evenodd" d="M17.6945 79.2768L29.9093 72.2227C30.4287 71.9306 31.0129 71.9306 31.5214 72.2227C32.0407 72.5148 32.3328 73.0341 32.3328 73.6292V87.7266C32.3328 88.3108 32.0407 88.8301 31.5214 89.1222L19.3066 96.1763C18.7872 96.4684 18.203 96.4684 17.6945 96.1763C17.186 95.8842 16.8831 95.3649 16.8831 94.7807V80.6725C16.8831 80.0882 17.1752 79.5689 17.6945 79.2768Z" fill="white"/>
<path d="M15.3476 61.0896C15.8668 60.7975 16.4511 60.7976 16.9596 61.0896L29.1743 68.1439C29.6936 68.436 29.9863 68.9554 29.9863 69.5504C29.9863 70.1346 29.6936 70.6538 29.1743 70.9459L16.9596 78.0003C16.4403 78.2923 15.8561 78.2924 15.3476 78.0003L3.13286 70.9459C2.61359 70.6538 2.32088 70.1346 2.32088 69.5504C2.3209 68.9662 2.61357 68.436 3.13286 68.1439L15.3476 61.0896ZM17.0022 62.507C16.4938 62.2151 15.9094 62.215 15.3902 62.507L7.18951 66.9866L7.17858 66.9975C6.67237 67.2885 12.4596 64.4982 16.4295 64.6063C20.6814 64.7147 25.6359 67.1049 25.1166 66.8128L17.0022 62.507Z" fill="white"/>
<path fill-rule="evenodd" clip-rule="evenodd" d="M31.6737 74.82L31.3707 86.6778C31.3707 87.4351 30.9921 88.0735 30.3429 88.4521L20.4542 94.619C19.8051 94.9977 25.5717 91.0812 28.4063 86.483C31.0462 82.1878 31.6737 74.0518 31.6737 74.8092V74.82Z" fill="black"/>
<path fill-rule="evenodd" clip-rule="evenodd" d="M53.1618 43.2175L65.3659 50.2716C65.8852 50.5637 66.1773 51.083 66.1773 51.6672V65.7754C66.1773 66.3597 65.8852 66.879 65.3659 67.1711C64.8465 67.4632 64.2623 67.4632 63.7538 67.1711L51.5498 60.117C51.0305 59.8249 50.7383 59.3056 50.7383 58.7213V44.6131C50.7383 44.0289 51.0305 43.5096 51.5498 43.2175C52.0691 42.9253 52.6533 42.9253 53.1618 43.2175Z" fill="black"/>
<path fill-rule="evenodd" clip-rule="evenodd" d="M68.4485 50.2825L80.6633 43.2284C81.1826 42.9363 81.7668 42.9363 82.2754 43.2284C82.7947 43.5205 83.0868 44.0398 83.0868 44.6241V58.7323C83.0868 59.3165 82.7947 59.8358 82.2754 60.1279L70.0605 67.182C69.5412 67.4741 68.957 67.4741 68.4485 67.182C67.9291 66.8899 67.637 66.3706 67.637 65.7864V51.6782C67.637 51.0939 67.9291 50.5746 68.4485 50.2825Z" fill="white"/>
<path d="M66.1021 32.1492C66.6213 31.8573 67.2057 31.8572 67.7141 32.1492L79.9288 39.2035C80.448 39.4957 80.7397 40.0151 80.7397 40.61C80.7396 41.2049 80.448 41.7135 79.9288 42.0056L67.7141 49.0599C67.1949 49.3519 66.6105 49.3518 66.1021 49.0599L53.8863 42.0056C53.3673 41.7135 53.0755 41.194 53.0754 40.61C53.0754 40.0043 53.3673 39.4957 53.8863 39.2035L66.1021 32.1492ZM67.7468 33.5557C67.2384 33.2636 66.6542 33.2637 66.1349 33.5557L57.9342 38.0353L57.9233 38.0462C57.4148 38.3383 63.2025 35.547 67.1731 35.6551C71.425 35.7632 76.3805 38.1536 75.8612 37.8615L67.7468 33.5557Z" fill="white"/>
<path d="M32.931 32.1489C33.4502 31.857 34.0345 31.8568 34.5429 32.1489L46.7576 39.2032C47.2768 39.4953 47.5685 40.0147 47.5685 40.6097C47.5685 41.2047 47.2768 41.7131 46.7576 42.0053L34.5429 49.0596C34.0237 49.3516 33.4394 49.3515 32.931 49.0596L20.7151 42.0053C20.1961 41.7131 19.9042 41.1938 19.9042 40.6097C19.9042 40.004 20.1961 39.4953 20.7151 39.2032L32.931 32.1489ZM34.5757 33.5554C34.0673 33.2633 33.483 33.2634 32.9637 33.5554L24.763 38.0349L24.7521 38.0459C24.2436 38.338 30.0313 35.5466 34.0019 35.6547C38.2539 35.7629 43.2094 38.1533 42.6901 37.8612L34.5757 33.5554Z" fill="white"/>
<path fill-rule="evenodd" clip-rule="evenodd" d="M81.9419 45.4891L81.6389 57.3469C81.6389 58.1042 81.2603 58.7426 80.6111 59.1212L70.7224 65.2882C70.0732 65.6668 75.8399 61.7503 78.6745 57.1521C81.3144 52.8569 81.9419 44.7209 81.9419 45.4783V45.4891Z" fill="black"/>
<path fill-rule="evenodd" clip-rule="evenodd" d="M36.2401 72.1913L38.7934 73.6735L48.4333 79.2454C48.9526 79.5375 49.2447 80.0568 49.2447 80.641V94.7492C49.2447 95.3335 48.9526 95.8528 48.4333 96.1449C47.914 96.437 47.3298 96.437 46.8213 96.1449L34.6172 89.0908C34.0979 88.7987 33.8058 88.2794 33.8058 87.6951V73.5977C33.8058 72.9919 34.0979 72.4834 34.6172 72.1913C35.1365 71.8991 35.7208 71.8991 36.2293 72.1913H36.2401Z" fill="black"/>
<path fill-rule="evenodd" clip-rule="evenodd" d="M51.5287 79.2454L63.7436 72.1913C64.2629 71.8991 64.8471 71.8991 65.3556 72.1913C65.8749 72.4834 66.1671 73.0027 66.1671 73.5977V87.6951C66.1671 88.2794 65.8749 88.7987 65.3556 89.0908L53.1408 96.1449C52.6215 96.437 52.0372 96.437 51.5287 96.1449C51.0202 95.8528 50.7173 95.3335 50.7173 94.7492V80.641C50.7173 80.0568 51.0094 79.5375 51.5287 79.2454Z" fill="white"/>
<path fill-rule="evenodd" clip-rule="evenodd" d="M65.5055 74.7981L65.2025 86.6559C65.2025 87.4133 64.8239 88.0516 64.1747 88.4303L54.286 94.5972C53.6368 94.9759 59.4035 91.0593 62.2381 86.4612C64.878 82.166 65.5055 74.03 65.5055 74.7873V74.7981Z" fill="black"/>
<path fill-rule="evenodd" clip-rule="evenodd" d="M70.0594 72.1812L82.2634 79.2353C82.7828 79.5274 83.0749 80.0467 83.0749 80.6309V94.7391C83.0749 95.3234 82.7828 95.8427 82.2634 96.1348C81.7441 96.4269 81.1599 96.4269 80.6514 96.1348L68.4474 89.0807C67.928 88.7886 67.6359 88.2693 67.6359 87.685V73.5768C67.6359 72.9926 67.928 72.4733 68.4474 72.1812C68.9667 71.889 69.5509 71.889 70.0594 72.1812Z" fill="black"/>
<path fill-rule="evenodd" clip-rule="evenodd" d="M85.346 79.2462L97.5609 72.1921C98.0802 71.9 98.6644 71.9 99.1729 72.1921C99.6923 72.4842 99.9844 73.0035 99.9844 73.5878V87.696C99.9844 88.2802 99.6923 88.7995 99.1729 89.0916L86.9581 96.1457C86.4388 96.4378 85.8545 96.4378 85.346 96.1457C84.8267 95.8536 84.5346 95.3343 84.5346 94.7501V80.6419C84.5346 80.0576 84.8267 79.5383 85.346 79.2462Z" fill="white"/>
<path d="M82.9992 61.1125C83.5184 60.8205 84.1027 60.8206 84.6111 61.1125L96.8258 68.1668C97.3451 68.4589 97.6378 68.9783 97.6378 69.5733C97.6378 70.1684 97.3452 70.6768 96.8258 70.9689L84.6111 78.0232C84.0918 78.3152 83.5076 78.3153 82.9992 78.0232L70.7844 70.9689C70.2651 70.6768 69.9724 70.1575 69.9724 69.5733C69.9725 68.9675 70.2651 68.4589 70.7844 68.1668L82.9992 61.1125ZM84.6537 62.519C84.1453 62.2271 83.5609 62.227 83.0418 62.519L74.8411 66.9986L74.8301 67.0095C74.3239 67.3005 80.1111 64.5102 84.0811 64.6184C88.3329 64.7267 93.2874 67.1169 92.7681 66.8248L84.6537 62.519Z" fill="white"/>
<path fill-rule="evenodd" clip-rule="evenodd" d="M98.8493 74.4528L98.5463 86.3106C98.5463 87.0679 98.1677 87.7063 97.5185 88.0849L87.6298 94.2519C86.9807 94.6305 92.7473 90.714 95.5819 86.1159C98.2218 81.8206 98.8493 73.6846 98.8493 74.442V74.4528Z" fill="black"/>
<path d="M49.1799 61.0689C49.6991 60.777 50.2835 60.7768 50.7919 61.0689L63.0066 68.1232C63.5258 68.4153 63.8175 68.9347 63.8175 69.5297C63.8175 70.1138 63.5258 70.6331 63.0066 70.9252L50.7919 77.9796C50.2727 78.2716 49.6884 78.2715 49.1799 77.9796L36.9641 70.9252C36.4451 70.6331 36.1532 70.1137 36.1532 69.5297C36.1532 68.924 36.445 68.4153 36.9641 68.1232L49.1799 61.0689ZM50.8334 62.5071C50.325 62.2152 49.7406 62.215 49.2215 62.5071L41.0207 66.9866L41.0098 66.9976C40.5038 67.2884 46.2909 64.4982 50.2608 64.6064C54.5126 64.7147 59.4671 67.105 58.9478 66.8129L50.8334 62.5071Z" fill="white"/>
</g>
<defs>
<clipPath id="clip0_15980_8415">
<rect width="100" height="100" fill="white"/>
</clipPath>
</defs>
</svg>
