<svg width="100" height="100" viewBox="0 0 100 100" fill="none" xmlns="http://www.w3.org/2000/svg">
<g clip-path="url(#clip0_15980_8443)">
<rect width="100" height="100" fill="#A19FFF"/>
<path d="M51.2556 99.7776L17.3916 80.1552C15.8315 79.2522 15.5281 77.125 16.7675 75.8226L57.6696 32.7574C59.0477 31.3075 61.2493 30.9862 62.9828 31.9934L97.0547 51.7374C98.6149 52.6404 98.9183 54.7676 97.6789 56.0699L56.9415 98.9614C55.4594 100.516 53.1104 100.854 51.2556 99.7776Z" fill="black"/>
<path d="M51.2556 97.6307L17.3916 78.0083C15.8315 77.1053 15.5281 74.9781 16.7675 73.6757L57.6696 30.6106C59.0477 29.1606 61.2493 28.8393 62.9828 29.8465L97.0547 49.5905C98.6149 50.4935 98.9183 52.6207 97.6789 53.9231L56.9415 96.8146C55.4594 98.3687 53.1104 98.7073 51.2556 97.6307Z" fill="white"/>
<path d="M51.2556 97.6307L17.3916 78.0083C15.8315 77.1053 15.5281 74.9781 16.7675 73.6757L57.6696 30.6106C59.0477 29.1606 61.2493 28.8393 62.9828 29.8465L97.0547 49.5905C98.6149 50.4935 98.9183 52.6207 97.6789 53.9231L56.9415 96.8146C55.4594 98.3687 53.1104 98.7073 51.2556 97.6307Z" fill="black"/>
<path d="M81.7391 38.4672L31.4501 91.413L39.4069 96.0234L89.6958 43.0863L81.7391 38.4672Z" fill="black"/>
<path d="M55.8319 66.7796L9.22661 82.1737L32.3775 49.5883L58.1201 54.5981L62.9826 62.3342L55.8319 66.7796Z" fill="black"/>
<path d="M68.7208 48.6008L55.5808 6.83799C55.0954 5.2925 53.4226 4.26798 51.8365 4.54582L24.5251 9.43407L16.0829 8.15774L14.5314 11.3876C14.1587 12.0649 14.0547 12.8202 14.2974 13.619L30.5663 65.3232C31.0517 66.8687 32.7245 67.8932 34.3107 67.6154L70.1855 61.1991C71.0436 61.0428 71.685 60.5305 72.023 59.8533L73.7219 56.4063L68.7208 48.6008Z" fill="black"/>
<path d="M35.9748 64.1782L71.8497 57.7619C73.4272 57.4754 74.3113 55.9993 73.8259 54.4452L57.557 2.74094C57.0716 1.19545 55.3987 0.170932 53.8125 0.448772L17.9378 6.86512C16.3603 7.15164 15.4762 8.62767 15.9616 10.1818L32.2305 61.8861C32.7159 63.4316 34.3887 64.4561 35.9748 64.1782Z" fill="white"/>
<path d="M23.6671 19.3508L56.153 13.5336C56.7857 13.4207 57.1496 12.8216 56.9503 12.1965L54.7315 5.13761C54.5321 4.51247 53.8561 4.10439 53.2233 4.21727L20.7375 10.0345C20.1048 10.1474 19.7407 10.7465 19.94 11.3716L22.159 18.4305C22.3583 19.0556 23.0344 19.4637 23.6671 19.3508Z" fill="black"/>
<path d="M37.1713 30.5082L41.5137 29.7268C42.0858 29.6226 42.4064 29.0843 42.2331 28.5286L40.8897 24.2742C40.7163 23.7098 40.1095 23.3451 39.5288 23.4407L35.1864 24.2221C34.6143 24.3263 34.2936 24.8646 34.467 25.4203L35.8105 29.6747C35.9839 30.239 36.5905 30.6037 37.1713 30.5082Z" fill="#A19FFF"/>
<path d="M27.9489 32.1565L32.2913 31.3751C32.8634 31.2709 33.1841 30.7326 33.0107 30.1769L31.6673 25.9225C31.4939 25.3581 30.8872 24.9935 30.3064 25.089L25.964 25.8704C25.3919 25.9746 25.0713 26.5129 25.2446 27.0686L26.5881 31.323C26.7615 31.8874 27.3682 32.252 27.9489 32.1565Z" fill="#A19FFF"/>
<path d="M46.3847 28.8565L50.7272 28.0751C51.2992 27.9709 51.6199 27.4326 51.4465 26.8769L50.1031 22.6225C49.9298 22.0581 49.323 21.6934 48.7423 21.7889L44.3998 22.5704C43.8278 22.6746 43.5071 23.2129 43.6805 23.7686L45.024 28.023C45.1973 28.5874 45.804 28.952 46.3847 28.8565Z" fill="#A19FFF"/>
<path d="M55.6067 27.2082L59.9491 26.4268C60.5212 26.3226 60.8418 25.7843 60.6685 25.2286L59.3251 20.9741C59.1517 20.4098 58.5449 20.0451 57.9642 20.1406L53.6218 20.9221C53.0497 21.0262 52.729 21.5646 52.9024 22.1202L54.2458 26.3747C54.4192 26.939 55.0259 27.3037 55.6067 27.2082Z" fill="#A19FFF"/>
<path d="M65.1325 39.4165L69.3275 52.666C69.5009 53.2304 69.1802 53.7687 68.6081 53.8642L64.2657 54.6456C63.6937 54.7498 63.087 54.3764 62.905 53.8121L58.7098 40.5626C58.5364 39.9983 58.8572 39.4599 59.4293 39.3644L63.7717 38.583C64.3438 38.4788 64.9504 38.8522 65.1325 39.4165Z" fill="#A19FFF"/>
<path d="M42.9782 48.9585L47.3207 48.1771C47.8927 48.0729 48.2135 47.5346 48.0401 46.9789L46.6966 42.7245C46.5233 42.1601 45.9166 41.7954 45.3359 41.8909L40.9934 42.6724C40.4214 42.7766 40.1006 43.3149 40.274 43.8706L41.6175 48.125C41.7908 48.6893 42.3975 49.054 42.9782 48.9585Z" fill="black"/>
<path d="M52.1917 47.3068L56.5341 46.5254C57.1062 46.4212 57.427 45.8829 57.2536 45.3272L55.9101 41.0728C55.7368 40.5084 55.1301 40.1437 54.5494 40.2392L50.2069 41.0207C49.6349 41.1249 49.3141 41.6632 49.4874 42.2188L50.831 46.4733C51.0043 47.0376 51.611 47.4023 52.1917 47.3068Z" fill="black"/>
<path d="M33.8079 50.6339L38.1504 49.8525C38.7224 49.7483 39.0431 49.21 38.8697 48.6543L37.5263 44.3999C37.353 43.8355 36.7462 43.4709 36.1655 43.5664L31.823 44.3478C31.251 44.452 30.9303 44.9903 31.1037 45.546L32.4472 49.8004C32.6205 50.3648 33.2272 50.7294 33.8079 50.6339Z" fill="black"/>
<path d="M45.8735 58.1802L50.2159 57.3988C50.788 57.2946 51.1086 56.7563 50.9353 56.2006L49.5918 51.9462C49.4184 51.3819 48.8117 51.0172 48.231 51.1127L43.8886 51.8941C43.3165 51.9983 42.9959 52.5366 43.1692 53.0923L44.5126 57.3467C44.686 57.9111 45.2928 58.2757 45.8735 58.1802Z" fill="black"/>
<path d="M55.0954 56.5285L59.4379 55.7471C60.0099 55.6429 60.3306 55.1046 60.1572 54.5489L58.8137 50.2945C58.6404 49.7301 58.0337 49.3655 57.453 49.461L53.1105 50.2424C52.5385 50.3466 52.2178 50.8849 52.3912 51.4406L53.7346 55.695C53.9079 56.2594 54.5147 56.624 55.0954 56.5285Z" fill="black"/>
<path d="M36.7116 59.8557L41.0541 59.0743C41.6261 58.9701 41.9469 58.4318 41.7735 57.8761L40.43 53.6217C40.2567 53.0573 39.65 52.6926 39.0693 52.7882L34.7268 53.5696C34.1548 53.6738 33.834 54.2121 34.0074 54.7678L35.3509 59.0222C35.5242 59.5865 36.1309 59.9512 36.7116 59.8557Z" fill="black"/>
<path d="M40.0745 39.7299L44.417 38.9485C44.989 38.8443 45.3098 38.306 45.1364 37.7503L43.7929 33.4959C43.6196 32.9316 43.0128 32.5669 42.4321 32.6624L38.0897 33.4438C37.5177 33.548 37.1969 34.0863 37.3703 34.642L38.7138 38.8964C38.8871 39.4608 39.4938 39.8255 40.0745 39.7299Z" fill="black"/>
<path d="M30.8526 41.3783L35.195 40.5968C35.7671 40.4927 36.0879 39.9543 35.9145 39.3987L34.571 35.1442C34.3976 34.5799 33.791 34.2152 33.2102 34.3107L28.8678 35.0921C28.2957 35.1963 27.975 35.7347 28.1483 36.2903L29.4918 40.5448C29.6652 41.1091 30.2719 41.4738 30.8526 41.3783Z" fill="black"/>
<path d="M49.288 38.0782L53.6304 37.2968C54.2025 37.1926 54.5232 36.6543 54.3498 36.0986L53.0064 31.8442C52.833 31.2799 52.2263 30.9152 51.6455 31.0107L47.3032 31.7921C46.7312 31.8963 46.4104 32.4346 46.5837 32.9903L47.9272 37.2447C48.1006 37.8091 48.7073 38.1737 49.288 38.0782Z" fill="black"/>
<path d="M58.5104 36.4299L62.8528 35.6485C63.4249 35.5443 63.7455 35.006 63.5722 34.4503L62.2288 30.1959C62.0554 29.6316 61.4486 29.2669 60.8679 29.3624L56.5255 30.1438C55.9534 30.248 55.6328 30.7863 55.8061 31.342L57.1496 35.5964C57.323 36.1608 57.9296 36.5255 58.5104 36.4299Z" fill="black"/>
<path d="M23.6671 19.3508L56.153 13.5336C56.7857 13.4207 57.1496 12.8216 56.9503 12.1965L54.7315 5.13761C54.5321 4.51247 53.8561 4.10439 53.2233 4.21727L20.7375 10.0345C20.1048 10.1474 19.7407 10.7465 19.94 11.3716L22.159 18.4305C22.3583 19.0556 23.0344 19.4637 23.6671 19.3508Z" fill="black"/>
<path d="M23.0082 20.463L55.494 14.6457C56.1267 14.5328 56.4908 13.9337 56.2914 13.3086L53.9338 5.82429C53.8125 5.43358 53.3965 5.18178 52.9977 5.25124L20.0785 11.1467C19.4458 11.2595 19.0817 11.8586 19.2811 12.4837L21.5 19.5426C21.6994 20.1678 22.3754 20.5758 23.0082 20.463Z" fill="black"/>
<path d="M10.7349 67.2155C4.80628 62.4141 5.63836 53.5145 12.3557 46.6554C10.6135 42.427 12.1044 36.9049 16.2908 32.0775C12.4944 34.6648 8.906 38.216 5.95037 42.3923C-1.52969 52.9588 0.697846 66.5469 9.7294 70.5322C13.9765 72.4076 19.0817 72.043 24.0308 69.9331C18.9863 70.784 14.1065 69.9418 10.7349 67.2155Z" fill="white"/>
</g>
<defs>
<clipPath id="clip0_15980_8443">
<rect width="100" height="100" fill="white"/>
</clipPath>
</defs>
</svg>
