<svg width="100" height="100" viewBox="0 0 100 100" fill="none" xmlns="http://www.w3.org/2000/svg">
<g clip-path="url(#clip0_4483_19651)">
<rect width="100" height="100" fill="#A19FFF"/>
<path d="M55.1966 14.8894C55.4445 13.9254 55.7554 12.9967 56.141 12.1153C56.4125 11.5015 56.7116 10.9231 57.0382 10.3722L36.2268 18.6117C33.4252 19.745 31.3712 22.0823 30.1868 25.0846L55.1966 14.8894Z" fill="white"/>
<path d="M57.6171 32.482L57.5384 32.3285C57.503 32.2577 57.4676 32.1869 57.4322 32.1161C57.0938 31.4471 56.779 30.7467 56.4878 30.0306C55.331 27.1582 54.6975 24.1638 54.5715 21.2598C54.5715 21.2913 42.8536 26.1823 42.8536 26.1823C32.2964 30.7861 30.6084 40.2376 33.4414 45.0223C37.7029 50.9797 44.1875 53.8993 49.5743 51.7194L70 43.6373C65.1248 42.1302 60.5328 38.0773 57.6171 32.4781V32.482Z" fill="white"/>
<path d="M23.462 34.123C23.462 34.123 23.462 34.123 23.466 34.123C23.3873 32.4586 23.4974 30.8217 23.7926 29.2556L17.4496 31.8251C14.8211 32.8914 13.1213 35.4569 12.5704 38.6323L23.4581 34.1191L23.462 34.123Z" fill="white"/>
<path d="M25.2602 42.1933C24.7801 41.009 24.4024 39.8049 24.1112 38.5969C15.726 42.1068 13.5776 47.6392 15.8205 50.8893C15.8047 50.8697 15.7851 50.85 15.7654 50.8303C17.8194 53.5296 20.5265 55.2727 23.214 55.6269C23.3282 55.6387 23.4423 55.6387 23.5485 55.6505C23.7846 55.6702 24.0168 55.682 24.2489 55.682C25.1461 55.682 26.0314 55.5246 26.8734 55.1822L33.2558 52.5931C29.919 50.2598 27.0544 46.6318 25.2641 42.1855L25.2602 42.1933Z" fill="white"/>
<path d="M51.6906 55.8472L47.2994 57.6258C44.4781 58.7315 44.8598 61.7613 47.2876 62.1076C47.3466 62.1076 47.4095 62.1154 47.4686 62.1154C48.0352 62.1154 48.6136 62.0092 49.1724 61.781C51.5057 60.8405 52.6311 58.1806 51.6867 55.8472H51.6906Z" fill="white"/>
<path d="M87.4242 1.0388C85.7952 0.346266 84.1701 0 82.604 0C81.2937 0 80.0267 0.24396 78.8305 0.727945C71.9721 3.50988 69.4971 13.4808 73.3178 22.9598C75.5292 28.445 79.5585 32.8717 84.0914 34.7958C87.0819 36.0628 90.0527 36.173 92.6851 35.1066C99.5435 32.3247 102.019 22.3538 98.1978 12.8748C95.9864 7.38963 91.9572 2.96293 87.4242 1.0388Z" fill="white"/>
<path d="M97.1396 25.7419C96.7146 27.4063 96.0378 28.8425 95.1525 30.0072C95.5656 29.2045 95.8922 28.3153 96.1401 27.3512C97.0766 23.6761 96.691 19.4147 95.0501 15.35C92.3981 8.77091 86.9365 4.17502 81.7701 4.17502C80.7313 4.17502 79.7318 4.36389 78.7993 4.74557C77.4457 5.29252 76.277 6.21327 75.3484 7.44487C76.3793 5.39482 77.91 3.89958 79.7987 3.13229C80.7352 2.75454 81.7346 2.56567 82.7734 2.56567C87.9399 2.56567 93.4015 7.16156 96.0535 13.7406C97.6904 17.8053 98.076 22.0667 97.1396 25.7419Z" fill="black"/>
<path d="M83.572 10.518C83.7806 14.1774 81.6282 17.0459 78.1695 17.7109C81.9469 18.3798 85.4607 21.2443 86.9914 24.9077C86.7828 21.2483 88.9352 18.3798 92.3939 17.7148C88.6165 17.0459 85.1027 14.1813 83.572 10.518Z" fill="#A19FFF"/>
<path d="M71.3414 6.80723C72.093 4.88309 73.1593 3.19111 74.5168 1.84933L63.7747 6.30357C60.9338 7.45254 58.7972 9.75049 57.4947 12.7134L71.3454 6.81116L71.3414 6.80723Z" fill="black"/>
<path fill-rule="evenodd" clip-rule="evenodd" d="M45.8277 52.4434C40.1869 52.4434 34.2015 47.9222 31.0713 40.862C31.7438 42.377 32.549 43.7741 33.4525 45.0383C33.4525 45.0383 33.451 45.0352 33.4489 45.032L33.4473 45.0297C33.4465 45.0285 33.4456 45.0274 33.4447 45.0265C33.4407 45.0186 33.4368 45.0107 33.4328 45.0068C33.3502 44.8651 33.2676 44.7196 33.1968 44.574C30.7217 39.6672 32.6223 30.6525 42.8568 26.1904L54.5747 21.2679C54.4685 19.0211 54.6692 16.9278 55.1886 14.8974L30.1905 25.0886V25.0965L30.1868 25.0927L30.1839 25.0939C31.3645 22.0928 33.422 19.7526 36.2268 18.6158L36.2268 18.6117L32.1109 20.1622C29.2542 21.319 27.1688 23.7311 26.0001 26.8199L26.0031 26.8187C25.2483 28.8169 24.8748 31.0981 24.9259 33.5129C24.981 36.1335 25.5279 38.9076 26.6296 41.6423C29.6516 49.1421 35.8686 53.9938 41.7119 53.9938C42.9907 53.9938 44.2538 53.7616 45.4618 53.2737L49.5776 51.7234L48.3578 52.1247C47.5315 52.3411 46.6816 52.4434 45.8277 52.4434ZM29.9383 37.7549C29.3612 35.7599 29.068 33.7732 29.0387 31.8675C29.0707 33.7727 29.3625 35.7608 29.9383 37.7549ZM29.2623 28.5524C29.4322 27.4666 29.6962 26.4289 30.0496 25.4553C29.6962 26.4277 29.4321 27.4658 29.2623 28.5524Z" fill="black"/>
<path d="M50.3427 62.859C50.1459 62.9653 49.9413 63.0637 49.7328 63.1502C49.0088 63.4453 48.2493 63.5949 47.4742 63.5949C46.5495 63.5949 45.6641 63.3863 44.8654 63.0046L24.841 100H29.8067L45.5461 70.9137V100H49.7406V70.9137L65.4839 100H70.4379L50.3427 62.863V62.859Z" fill="black"/>
<path d="M15.4369 53.8878C12.7494 54.9777 9.37327 52.8923 7.8977 49.2329C6.44905 45.6402 7.37077 41.8617 9.94797 40.6974L10.0933 40.6352C10.0443 40.6551 9.99586 40.6758 9.94797 40.6974L2.88078 43.7202C0.763837 44.578 -0.294636 47.1435 0.0713047 49.9844C0.169676 50.7517 0.370353 51.5387 0.68514 52.3178C1.27143 53.7737 2.16071 54.9777 3.18376 55.8355C4.73803 57.134 6.60707 57.6298 8.22429 56.9727L15.4369 53.8878Z" fill="black"/>
<path d="M12.2176 47.5367C11.5094 45.7739 11.0844 43.9599 10.9506 42.1774C8.93204 43.0195 8.20016 45.9273 9.31372 48.6896C10.4273 51.4519 12.9652 53.0297 14.9996 52.2349C13.8821 50.8774 12.9259 49.2916 12.2176 47.5367Z" fill="black"/>
<path d="M24.1075 38.5928C23.7495 37.0976 23.5329 35.5986 23.462 34.123L23.4583 34.1228L12.5706 38.6361C12.1299 41.1819 12.425 44.1173 13.5819 46.9858C14.1603 48.4181 14.904 49.7048 15.7618 50.8341C15.7658 50.8392 15.7705 50.8443 15.7753 50.8494C15.7799 50.8542 15.7846 50.8589 15.7893 50.8636C15.7991 50.8734 15.809 50.8833 15.8168 50.8931C13.574 47.639 15.7185 42.1106 24.1075 38.6046V38.5928Z" fill="black"/>
<path d="M51.6911 55.8511L47.2998 57.6296L47.2994 57.6258C44.4741 58.7354 44.8602 61.773 47.2998 62.1114C45.5685 62.0445 43.9512 60.9821 43.2587 59.2665L43.2508 59.235H43.2469C43.0423 58.7156 42.94 58.1805 42.9282 57.6493V57.6296H42.9321C42.9203 56.819 43.121 56.0242 43.5105 55.3277C44.3683 55.1979 45.1986 54.9696 46.0013 54.647L49.3223 53.3957C50.3493 53.8561 51.2268 54.7257 51.6911 55.8511Z" fill="black"/>
<path d="M83.5116 36.1492C85.3295 36.9205 87.1435 37.3061 88.9063 37.3061V37.3021C89.1463 37.3021 89.3864 37.2943 89.6225 37.2785L78.1839 42.0239C76.8814 42.5512 75.5161 42.803 74.1349 42.803C68.453 42.803 62.4445 38.5534 58.9228 31.7894C58.8993 31.7423 58.8756 31.6949 58.852 31.6517C58.8166 31.5887 58.7851 31.5258 58.7536 31.4589C55.9953 25.8203 58.4546 18.6274 70.023 13.6655L70.0584 13.6537C70.0073 16.8134 70.6093 20.1895 71.9472 23.5066C74.3002 29.3498 78.6246 34.0756 83.5116 36.1492Z" fill="black"/>
<path d="M71.3455 6.8072L57.4909 12.7095C56.5072 14.9366 55.9957 17.5414 56.0075 20.3194C56.0193 23.2588 56.6135 26.3948 57.8569 29.4798C58.1323 30.1605 58.4314 30.8255 58.754 31.4629C55.9957 25.8243 58.455 18.6314 70.0234 13.6696L70.0584 13.6537C70.0978 11.1905 70.5389 8.86119 71.3416 6.80327L71.3455 6.8072Z" fill="#A19FFF"/>
</g>
<defs>
<clipPath id="clip0_4483_19651">
<rect width="100" height="100" fill="white"/>
</clipPath>
</defs>
</svg>
