<svg width="100" height="100" viewBox="0 0 100 100" fill="none" xmlns="http://www.w3.org/2000/svg">
<rect width="100" height="100" fill="#A19FFF"/>
<path d="M45.671 62.0428C47.6817 57.6465 53.4503 55.6837 60.2163 56.4895C61.8041 59.0028 67.7962 68.8248 82.6847 72.0402C83.5464 74.4977 83.5783 76.9312 82.6049 79.0536C79.7166 85.3568 69.1127 86.6653 58.9158 81.9658C48.7189 77.2663 42.7827 68.346 45.671 62.0428Z" fill="white"/>
<path d="M41.9368 74.8892C41.0192 72.2562 40.9873 69.6631 42.0325 67.3812L44.067 62.9769C43.3729 65.1471 43.5724 67.5408 44.4979 69.9583L41.9368 74.8892Z" fill="black"/>
<path d="M46.5247 73.7246L43.9076 78.7672C43.5725 78.2726 43.2693 77.7699 42.9981 77.2752L45.5991 72.2725C45.8784 72.7592 46.1896 73.2539 46.5247 73.7326V73.7246Z" fill="black"/>
<path d="M58.3572 83.1716C69.1127 88.1264 80.3229 86.7062 83.4107 80.012L81.025 85.3498C77.9532 92.0679 66.727 93.4961 55.9556 88.5333C52.3971 86.8897 49.3332 84.7594 46.9395 82.3976L49.5885 77.2912C51.9423 79.5572 54.9104 81.5918 58.3493 83.1796L58.3572 83.1716Z" fill="black"/>
<path d="M60.272 79.1257C55.0459 76.7241 51.1841 72.982 49.6043 69.3038C54.2639 75.4395 58.9634 73.2134 58.9634 73.2134C62.139 76.6284 67.038 79.006 71.8173 79.2933C75.4716 79.5087 78.1285 78.1044 79.4211 77.0592C77.0673 81.9981 68.53 82.9236 60.272 79.1257Z" fill="#A19FFF"/>
<path d="M77.1632 65.8653C79.2617 67.9238 80.4026 69.9026 80.9851 71.6579C80.5782 71.5542 80.1792 71.4505 79.7883 71.3388C78.3122 68.0595 75.9346 66.0329 75.9346 66.0329L77.1632 65.8653Z" fill="#00482F"/>
<path d="M79.7886 71.3461C80.1795 71.4578 80.5864 71.5695 80.9854 71.6652C82.27 75.5589 80.7779 78.3435 80.7779 78.3435C81.2247 75.6785 80.6583 73.2929 79.7806 71.3461H79.7886Z" fill="#00482F"/>
<path d="M86.3951 54.4551C78.0014 61.9153 66.6157 62.9286 61.8603 57.3753C57.105 51.83 60.0491 41.2821 68.4428 33.8139C76.8365 26.3537 87.4882 24.8059 92.2515 30.3511C97.0069 35.8964 94.7968 46.9869 86.4031 54.4471L86.3951 54.4551Z" fill="white"/>
<path d="M69.966 35.7214C77.3943 29.1149 86.9529 27.7346 91.4849 32.2506C91.3174 32.0033 91.1338 31.7559 90.9343 31.5245C86.5859 26.458 76.8517 27.8703 69.1841 34.6921C61.5165 41.514 58.8277 51.1444 63.1761 56.2189C63.3118 56.3785 63.4553 56.5301 63.5989 56.6817C60.0643 51.4556 62.6495 42.2241 69.966 35.7214Z" fill="#00482F"/>
<path d="M70.4211 36.8783C76.6605 31.333 84.408 29.8011 88.509 33.0804C87.0489 32.3942 84.5515 31.6921 81.1765 32.4979C75.5514 33.8384 71.2509 37.756 71.6179 42.6549C71.6179 42.6549 66.3678 41.4102 63.7986 46.8438C64.78 43.4528 67.062 39.8703 70.4211 36.8783Z" fill="#A19FFF"/>
<path d="M94.9004 31.2526L98.2515 35.7127C99.56 37.3803 100.246 40.2686 99.9191 42.6224L96.6238 38.5612C96.7674 35.8883 96.2488 33.2473 94.9084 31.2606L94.9004 31.2526Z" fill="black"/>
<path d="M99.7276 45.407C99.6159 45.9815 99.4802 46.5639 99.3127 47.1543L95.6982 42.8458C95.8738 42.2713 96.0174 41.6968 96.1371 41.1303L99.7276 45.407Z" fill="black"/>
<path d="M62.8017 59.9445L62.0677 59.1307C67.1422 65.0191 79.2301 62.6972 87.3924 55.3567C90.2009 52.8274 92.0999 50.7051 93.6717 47.8008L97.2302 52.0934C95.3552 55.2131 93.8392 56.9844 90.911 59.5935C82.2939 67.2531 70.6049 68.067 66.4959 64.0057C66.3283 63.8621 63.9905 61.8355 62.0118 59.1227L61.8203 58.8514C61.8203 58.8514 62.1873 59.3461 62.8176 59.9445H62.8017Z" fill="black"/>
<path d="M7.35653 23.3861L50.9607 12.0882C51.2559 12.0084 51.5511 11.9765 51.8463 11.9765C53.7134 11.9765 55.3251 13.4924 55.3251 15.4632V47.0193C55.3251 49.2454 53.8251 51.1843 51.6708 51.7428L39.1441 54.9902C38.2026 55.2375 37.4047 55.8599 36.942 56.7216L29.5137 70.6446L22.2051 60.7349C21.8061 60.1923 21.1758 59.8812 20.5215 59.8812C20.346 59.8812 20.1705 59.9051 19.995 59.945L8.06665 63.0408C7.77144 63.1206 7.47623 63.1525 7.18102 63.1525C5.31398 63.1525 3.70227 61.6365 3.70227 59.6657V28.1096C3.70227 25.8835 5.20225 23.9447 7.35653 23.3861Z" fill="white"/>
<path d="M3.65425 20.6816L48.2637 9.11237C49.2771 8.84907 50.2824 9.0645 51.0723 9.5911L54.0643 11.3464C53.4021 10.9874 52.6441 10.7799 51.8462 10.7799C51.4473 10.7799 51.0563 10.8278 50.6654 10.9315L7.0692 22.2375C6.17558 22.4689 5.37773 22.9077 4.70751 23.4742L1.9947 21.4955C2.48939 21.1284 3.03191 20.8412 3.65425 20.6816Z" fill="black"/>
<path d="M0.446859 23.4104L3.16756 25.3971C2.75266 26.2269 2.51334 27.1445 2.51334 28.1179V28.2056L0 26.3705V25.4051C0 24.695 0.167602 24.0247 0.446859 23.4024V23.4104Z" fill="black"/>
<path d="M2.52133 59.6823C2.52133 60.0174 2.55324 60.3365 2.61707 60.6477L1.40428 59.7621C0.566503 59.1317 0.00798659 58.1264 0.00798659 56.9695V33.0969L2.52133 34.932V59.6823Z" fill="black"/>
<path d="M42.4717 42.8549C41.7696 40.0384 40.5569 39.2326 38.251 39.0171L33.4716 38.4506C33.3599 38.5544 33.2642 38.682 33.1525 38.7858C32.2031 39.6315 31.2456 40.19 30.32 40.4294C29.3945 40.6688 28.453 40.6129 27.5195 40.2539C27.4078 40.214 27.312 40.1342 27.2083 40.0863L22.3572 43.1741C20.0194 44.6103 18.7587 46.0624 17.9449 49.2779L16.9236 53.6104L43.3335 46.7007L42.4717 42.8549Z" fill="black"/>
<path d="M28.477 38.3467C29.0275 38.5621 29.6738 38.6658 30.36 38.4903C31.0461 38.3147 31.7004 37.8599 32.2669 37.3573C33.5435 36.2163 34.477 34.6525 35.0116 33.0248C35.6578 31.07 35.7377 29.4503 35.7377 29.4503C35.985 25.2854 33.5036 23.8731 30.6232 24.6311C27.7429 25.3811 25.1897 28.1178 25.2775 32.195C25.2775 32.195 25.2934 33.7908 25.8759 35.4264C26.3546 36.7828 27.2322 37.8679 28.4849 38.3546L28.477 38.3467Z" fill="black"/>
<path d="M34.5244 19.0144L50.6655 14.9931C51.5431 14.7776 52.3969 15.4399 52.3969 16.3495V32.5145C52.3969 32.5145 51.8623 16.4771 34.5244 19.0144Z" fill="#A19FFF"/>
</svg>
