<svg width="100" height="100" viewBox="0 0 100 100" fill="none" xmlns="http://www.w3.org/2000/svg">
<g clip-path="url(#clip0_15980_8549)">
<rect width="100" height="100" fill="#A19FFF"/>
<path d="M84.4967 81.3627H-0.0566406V85.6269H84.4967V81.3627Z" fill="black"/>
<path d="M73.0713 60.3835H11.3777L0.207079 84.5066C-0.634545 86.3182 0.683148 88.4033 2.67244 88.4033H81.7765C83.7658 88.4033 85.0835 86.3268 84.2419 84.5066L73.0713 60.3835Z" fill="black"/>
<path d="M73.0713 56.1709H11.3777L0.207079 80.2941C-0.634545 82.1057 0.683148 84.1908 2.67244 84.1908H81.7765C83.7658 84.1908 85.0835 82.1143 84.2419 80.2941L73.0713 56.1709Z" fill="white"/>
<path d="M14.234 12.4033H70.2062C71.7109 12.4033 72.9266 13.6338 72.9266 15.1378V54.5826H11.5136V15.1378C11.5136 13.6253 12.7377 12.4033 14.234 12.4033Z" fill="white"/>
<path d="M42.2202 17.9823C42.8212 17.9823 43.3084 17.4926 43.3084 16.8885C43.3084 16.2844 42.8212 15.7947 42.2202 15.7947C41.6192 15.7947 41.1321 16.2844 41.1321 16.8885C41.1321 17.4926 41.6192 17.9823 42.2202 17.9823Z" fill="#A19FFF"/>
<path d="M75.8935 71.1865L71.0988 60.992C70.8013 60.3511 70.1637 59.9495 69.4581 59.9495H14.9906C14.285 59.9495 13.6474 60.3597 13.3499 60.992L8.55517 71.1865C8.13011 72.0923 8.7847 73.1433 9.78785 73.1433H25.1326C25.6852 73.1433 26.1187 73.639 26.0337 74.1945L25.8552 75.331C25.7277 76.1598 26.3653 76.9118 27.1984 76.9118H57.2418C58.0749 76.9118 58.7125 76.1598 58.585 75.331L58.4065 74.1945C58.3215 73.639 58.7465 73.1433 59.3076 73.1433H74.6523C75.6555 73.1433 76.3101 72.1009 75.885 71.1865H75.8935Z" fill="black"/>
<path d="M66.3466 24.5536H53.9092C52.9702 24.5536 52.209 25.3187 52.209 26.2626V43.4556C52.209 44.3995 52.9702 45.1647 53.9092 45.1647H66.3466C67.2856 45.1647 68.0468 44.3995 68.0468 43.4556V26.2626C68.0468 25.3187 67.2856 24.5536 66.3466 24.5536Z" fill="black"/>
<path d="M99.9096 72.6231C99.731 74.6483 98.4218 77.3487 93.5251 77.3487C90.5922 77.3487 87.9568 75.9473 86.6986 73.3153L83.1451 65.8639C82.9921 65.5477 82.9496 65.1802 83.0091 64.8128L83.2301 63.608C83.3406 62.9756 83.7912 62.4629 84.3608 62.1894C86.027 61.4033 88.7049 60.8563 91.7229 61.2921C93.2956 61.5143 94.7238 62.2749 95.778 63.4456C97.5377 65.3853 100.216 68.9914 99.9011 72.6231H99.9096Z" fill="white"/>
<path d="M99.9434 72.0066C99.1527 75.194 95.8968 75.8691 92.9468 75.6726C92.0032 75.6128 90.932 75.3051 90.2604 74.9632C89.0448 74.3565 88.1011 73.3312 87.472 72.1263L83.672 64.8286C83.1449 63.769 83.5275 62.8803 83.5275 62.8803C83.5275 62.8803 83.2979 63.1965 83.2384 63.5982L83.0174 64.803C82.9494 65.1704 83.0004 65.5379 83.1534 65.8541L86.7069 73.3055C87.9651 75.9375 90.6005 77.3389 93.5334 77.3389C98.4216 77.3389 99.9434 74.6984 99.9434 71.9981V72.0066Z" fill="black"/>
<path d="M95.6249 64.616C95.6249 64.616 97.5717 66.7865 98.4983 69.7603C99.0679 71.606 98.0307 73.5971 96.1775 74.1098C95.5144 74.2978 94.6983 74.426 93.6866 74.4602C93.6866 74.4602 99.7225 71.7598 95.6249 64.616Z" fill="#A19FFF"/>
<path d="M65.0035 38.3556C64.6974 37.2362 64.2128 36.8174 63.2777 36.5098L61.909 36.0228C61.79 36.1168 61.671 36.2193 61.5434 36.2962C61.0759 36.5782 60.5913 36.7234 60.1152 36.7234C59.6392 36.7234 59.1546 36.5782 58.687 36.2962C58.5595 36.2193 58.4405 36.1168 58.313 36.0228L56.9443 36.5098C56.0176 36.8174 55.5246 37.2362 55.2185 38.3556L54.8445 39.8767H65.369L64.9949 38.3556H65.0035ZM59.3416 35.1939C59.5712 35.3306 59.8347 35.4417 60.1237 35.4417C60.4128 35.4417 60.6763 35.3392 60.9059 35.1939C61.4244 34.8863 61.7985 34.3736 62.011 33.801C62.2576 33.1089 62.2831 32.4936 62.2831 32.4936C62.3511 30.9127 61.3139 30.118 60.1322 30.118C58.9506 30.118 57.9134 30.9127 57.9814 32.4936C57.9814 32.4936 57.9984 33.1089 58.2535 33.801C58.4575 34.3736 58.8316 34.8777 59.3586 35.1939H59.3416Z" fill="white"/>
<path d="M48.2304 24.5536H35.793C34.854 24.5536 34.0928 25.3187 34.0928 26.2626V43.4556C34.0928 44.3995 34.854 45.1647 35.793 45.1647H48.2304C49.1694 45.1647 49.9306 44.3995 49.9306 43.4556V26.2626C49.9306 25.3187 49.1694 24.5536 48.2304 24.5536Z" fill="black"/>
<path d="M46.8956 38.3556C46.5895 37.2362 46.1049 36.8174 45.1698 36.5098L43.8011 36.0228C43.6821 36.1168 43.5631 36.2193 43.4356 36.2962C42.968 36.5782 42.4834 36.7234 42.0073 36.7234C41.5313 36.7234 41.0467 36.5782 40.5791 36.2962C40.4516 36.2193 40.3326 36.1168 40.2051 36.0228L38.8364 36.5098C37.9097 36.8174 37.4167 37.2362 37.1106 38.3556L36.7366 39.8767H47.2611L46.8871 38.3556H46.8956ZM41.2252 35.1939C41.4548 35.3306 41.7183 35.4417 42.0073 35.4417C42.2964 35.4417 42.5599 35.3392 42.7895 35.1939C43.308 34.8863 43.6821 34.3736 43.8946 33.801C44.1412 33.1089 44.1667 32.4936 44.1667 32.4936C44.2347 30.9127 43.1975 30.118 42.0158 30.118C40.8342 30.118 39.797 30.9127 39.865 32.4936C39.865 32.4936 39.882 33.1089 40.1371 33.801C40.3411 34.3736 40.7152 34.8777 41.2422 35.1939H41.2252Z" fill="white"/>
<path d="M30.1142 24.5536H17.6768C16.7378 24.5536 15.9766 25.3187 15.9766 26.2626V43.4556C15.9766 44.3995 16.7378 45.1647 17.6768 45.1647H30.1142C31.0532 45.1647 31.8144 44.3995 31.8144 43.4556V26.2626C31.8144 25.3187 31.0532 24.5536 30.1142 24.5536Z" fill="black"/>
<path d="M28.7793 38.3556C28.4733 37.2362 27.9887 36.8174 27.0536 36.5098L25.6849 36.0228C25.5659 36.1168 25.4469 36.2193 25.3193 36.2962C24.8518 36.5782 24.3672 36.7234 23.8911 36.7234C23.4151 36.7234 22.9305 36.5782 22.4629 36.2962C22.3354 36.2193 22.2164 36.1168 22.0889 36.0228L20.7202 36.5098C19.7935 36.8174 19.3005 37.2362 18.9944 38.3556L18.6204 39.8767H29.1449L28.7709 38.3556H28.7793ZM23.109 35.1939C23.3386 35.3306 23.6021 35.4417 23.8911 35.4417C24.1802 35.4417 24.4437 35.3392 24.6733 35.1939C25.1918 34.8863 25.5659 34.3736 25.7784 33.801C26.0249 33.1089 26.0505 32.4936 26.0505 32.4936C26.1185 30.9127 25.0813 30.118 23.8996 30.118C22.718 30.118 21.6808 30.9127 21.7488 32.4936C21.7488 32.4936 21.7658 33.1089 22.0209 33.801C22.2249 34.3736 22.5989 34.8777 23.126 35.1939H23.109Z" fill="white"/>
</g>
<defs>
<clipPath id="clip0_15980_8549">
<rect width="100" height="100" fill="white"/>
</clipPath>
</defs>
</svg>
