<svg width="100" height="100" viewBox="0 0 100 100" fill="none" xmlns="http://www.w3.org/2000/svg">
<rect width="100" height="100" fill="#A19FFF"/>
<path d="M26.3099 100L41.7756 73.2911V100H45.2866V73.2911L60.7523 100H64.8074L43.5311 63.2589L22.2548 100H26.3099Z" fill="black"/>
<path d="M76.0512 4.70877H9.25547C8.28595 4.70877 7.5 5.49264 7.5 6.4596V80.6422C7.5 81.6091 8.28595 82.393 9.25547 82.393H76.0512C77.0208 82.393 77.8067 81.6091 77.8067 80.6422V6.4596C77.8067 5.49264 77.0208 4.70877 76.0512 4.70877Z" fill="white"/>
<path d="M9.25547 3.39661H76.0512C76.5164 3.39661 76.9553 3.51038 77.3503 3.69422L76.1566 1.03298C75.8757 0.402684 75.2437 0 74.5502 0H10.7565C10.0631 0 9.4398 0.402684 9.15015 1.03298L7.95644 3.69422C8.35142 3.51038 8.79027 3.39661 9.25547 3.39661Z" fill="black"/>
<path d="M58.5491 63.5996C58.5491 63.5996 57.2588 71.8461 55.2313 76.1443L69.2136 77.7813L69.4594 75.7679L57.3291 74.3585L58.5491 63.6084V63.5996ZM17.436 61.595C17.436 61.595 15.1276 69.6225 12.5821 73.6319L26.2573 76.9847L26.7488 75.0151L14.8906 72.1087L17.436 61.5862V61.595ZM24.2297 57.6293L38.2998 58.0758L38.37 56.0536L26.1607 55.6772L26.4592 44.8571C26.4592 44.8571 25.8711 53.1822 24.2297 57.6381V57.6293ZM60.7435 47.6059L72.0136 47.5183V45.4873L59.7956 45.5837L59.6639 34.7635C59.6639 34.7635 59.4444 41.6355 58.3033 46.2752L48.7975 49.4792L45.2866 39.2456C45.2866 39.2456 47.6564 47.2557 47.674 52.0004L60.7435 47.5971V47.6059ZM36.7374 41.0052L36.6497 38.983L24.4491 39.5433L23.9137 28.7319C23.9137 28.7319 23.9751 37.0834 22.6761 41.6443L36.7374 41.0052ZM46.0414 28.478L59.9535 26.3246L59.6463 24.3198L47.5774 26.1932L45.8747 15.5044C45.8747 15.5044 46.8401 23.7946 46.0414 28.478ZM38.5017 71.6447L36.7988 60.9559C36.7988 60.9559 37.7644 69.2461 36.9656 73.9296L50.8777 71.776L50.5705 69.7713L38.5017 71.6447Z" fill="black"/>
<path d="M80.7735 44.2872C80.7735 44.2872 83.0907 51.9558 92.5 54.0743C92.5 54.0743 85.3728 55.2999 85.2323 63.8352C85.2323 63.8352 82.722 56.4379 73.7076 54.0656C73.7076 54.0656 81.2387 53.1726 80.7735 44.2872Z" fill="black"/>
<path d="M57.2858 74.3968L69.9097 75.8669L71.3837 63.2764L58.7599 61.8063L57.2858 74.3968Z" fill="#A19FFF"/>
<path d="M14.9543 72.0499L27.2971 75.0736L30.3287 62.7635L17.986 59.7398L14.9543 72.0499Z" fill="#A19FFF"/>
<path d="M26.155 55.684L38.8585 56.0778L39.2533 43.4079L26.5498 43.0141L26.155 55.684Z" fill="#A19FFF"/>
<path d="M72.4965 45.4869L72.3999 32.8109L59.6903 32.916L59.7693 42.2829L56.7674 33.4237L44.7249 37.4857L48.7976 49.4875L60.3837 45.5832L72.4965 45.4869Z" fill="#A19FFF"/>
<path d="M24.4184 39.582L37.1146 39.0004L36.5314 26.3377L23.8352 26.9194L24.4184 39.582Z" fill="#A19FFF"/>
<path d="M47.6021 26.1256L60.161 24.1798L58.2101 11.6541L45.6511 13.5999L47.6021 26.1256Z" fill="#A19FFF"/>
<path d="M38.5415 71.5822L51.1005 69.6364L49.1495 57.1106L36.5906 59.0564L38.5415 71.5822Z" fill="#A19FFF"/>
<path d="M20.8853 62.1544C20.8853 62.1544 22.1053 66.19 27.0558 67.3018C27.0558 67.3018 23.3078 67.9496 23.2288 72.4405C23.2288 72.4405 21.9122 68.5449 17.1637 67.3018C17.1637 67.3018 21.131 66.8291 20.8853 62.1544Z" fill="white"/>
<path d="M52.0714 14.1024C52.0714 14.1024 53.2915 18.138 58.242 19.2498C58.242 19.2498 54.494 19.8976 54.415 24.3885C54.415 24.3885 53.0984 20.4929 48.3499 19.2498C48.3499 19.2498 52.3172 18.7771 52.0714 14.1024Z" fill="white"/>
<path d="M16.9329 26.4148L29.5253 28.1329L31.2479 15.5739L18.6556 13.8558L16.9329 26.4148Z" fill="#A19FFF"/>
<path d="M14.7499 28.2131L28.6971 30.1215L28.9781 28.1168L16.8828 26.471L18.3135 15.7472C18.3135 15.7472 16.8565 23.9673 14.7499 28.2218V28.2131Z" fill="black"/>
</svg>
