<svg width="100" height="100" viewBox="0 0 100 100" fill="none" xmlns="http://www.w3.org/2000/svg">
<g clip-path="url(#clip0_15980_8563)">
<rect width="100" height="100" fill="#A19FFF"/>
<path d="M72.3075 19.5132C63.6032 19.5132 56.145 24.5641 52.8218 32.1359C49.5081 24.5641 42.0405 19.5132 33.3361 19.5132C21.7334 19.5132 12.3493 28.52 12.1983 40.9728C13.0291 72.1095 53.2372 93.9939 53.2372 93.9939C53.2372 93.9939 93.4453 72.1095 93.4453 40.9728C93.4453 29.1903 83.9102 19.5132 72.3075 19.5132Z" fill="black"/>
<path d="M20.676 21.9059C24.2446 19.4984 28.5779 18.1106 33.336 18.1106C34.4028 18.1106 35.4507 18.1861 36.4798 18.3277C33.7797 17.1098 30.7775 16.4301 27.6055 16.4301C22.97 16.4301 18.6651 17.9784 15.172 20.5842L20.676 21.8965V21.9059Z" fill="black"/>
<path d="M52.8219 29.0885C56.8436 22.3381 64.2263 18.1085 72.3076 18.1085C73.2705 18.1085 74.2146 18.1746 75.1398 18.2973C72.5153 17.1078 69.6264 16.4374 66.577 16.4374C59.6003 16.4374 53.4355 19.6852 49.5459 24.8683C50.7921 26.1334 51.8967 27.5402 52.8219 29.0885Z" fill="black"/>
<path d="M32.0898 80.1751C18.5235 67.6657 11.1597 54.1177 10.8104 41.004V40.9474C10.8482 37.7374 11.4713 34.7163 12.5758 31.9878L7.68552 30.7982C6.91138 33.0263 6.47708 35.4055 6.47708 37.8885C5.55189 59.5275 25.0471 76.3515 37.49 84.8296C35.734 83.4039 33.9119 81.8556 32.0898 80.1656V80.1751Z" fill="black"/>
<path d="M15.4646 26.8737C16.3142 25.7502 17.2583 24.7117 18.3062 23.7675L12.9627 22.493C11.9903 23.4466 11.1029 24.4945 10.3193 25.618L15.4646 26.8737Z" fill="black"/>
<path d="M82.8055 26.3748C76.2536 21.5598 68.9371 23.8729 68.9371 23.8729C82.6639 24.1844 79.6334 35.9669 79.6334 35.9669C91.9631 46.371 81.2667 66.2634 81.2667 66.2634C95.5222 45.2664 89.3574 31.1992 82.8055 26.3842V26.3748ZM28.4174 23.9107C36.2155 23.8162 38.3774 30.2079 38.3774 30.2079C45.4202 30.2079 50.7825 35.6554 50.7825 35.6554C43.362 19.0296 28.4268 23.9107 28.4268 23.9107H28.4174ZM18.0703 80.4911C18.5424 89.5451 10.8859 90.4514 10.8859 90.4514C20.0435 92.8683 22.5924 100.402 22.5924 100.402C22.734 91.7071 29.9751 90.4609 29.9751 90.4609C20.4211 88.2989 18.0703 80.4911 18.0703 80.4911ZM48.9699 0.402344C49.3003 6.69955 43.9757 7.3321 43.9757 7.3321C50.3388 9.01261 52.1136 14.2524 52.1136 14.2524C52.2175 8.21012 57.2494 7.34155 57.2494 7.34155C50.6126 5.84042 48.9699 0.411794 48.9699 0.411794V0.402344Z" fill="white"/>
</g>
<defs>
<clipPath id="clip0_15980_8563">
<rect width="100" height="100" fill="white"/>
</clipPath>
</defs>
</svg>
