<svg width="100" height="100" viewBox="0 0 100 100" fill="none" xmlns="http://www.w3.org/2000/svg">
<g clip-path="url(#clip0_15980_8659)">
<rect width="100" height="100" fill="#A19FFF"/>
<path d="M69.0087 16.7263L61.8943 13.2808L18.4265 38.2608V92.9903L25.5409 96.4359V41.7143L69.0087 16.7263Z" fill="black"/>
<path d="M67.6137 55.1615L62.7725 56.2541C64.0566 54.1725 65.8192 52.689 67.9806 52.0908L72.1599 50.9503C70.2776 51.708 68.7383 53.1915 67.6137 55.1615Z" fill="black"/>
<path d="M73.7461 51.4521C79.72 49.8012 86.6513 56.0459 89.2355 65.4014C91.8197 74.757 89.0756 83.6744 83.1017 85.3254C77.1279 86.976 70.1974 80.7305 67.6133 71.3751C65.0293 62.0198 67.7725 53.1033 73.7461 51.4521ZM69.3838 69.0226C69.5274 70.3305 69.8067 71.6786 70.2373 73.0265H70.2451C72.4066 79.8139 77.5589 84.1367 81.7462 82.6691C83.3652 82.1029 84.6013 80.7553 85.3829 78.9211C84.697 79.7026 83.5482 80.6593 81.9532 80.7072C79.2096 80.7947 75.5886 78.8803 73.3077 71.9816C73.2984 71.9851 72.5618 72.2676 71.8565 72.0616C71.2423 71.8782 70.1335 71.0963 69.3838 69.0226Z" fill="white"/>
<path d="M61.7505 58.2879L66.6636 57.1792C66.4881 57.6418 66.3286 58.1204 66.185 58.6149L61.2401 59.7315C61.3916 59.237 61.5591 58.7584 61.7426 58.2958L61.7505 58.2879Z" fill="black"/>
<path d="M65.5001 62.6424C65.2927 65.4658 65.5798 68.5684 66.4492 71.7188C69.1769 81.5848 76.5305 88.1647 82.8872 86.426L77.8625 87.8617C71.5058 89.6163 64.1282 83.0363 61.4085 73.1544C60.5073 69.8844 60.2281 66.6781 60.4833 63.767L65.5001 62.6424Z" fill="black"/>
<path d="M87.0342 66.0643C84.7532 57.7855 78.7315 52.1706 73.3957 53.1995C73.627 53.1038 73.8743 53.016 74.1215 52.9442C79.5769 51.4368 85.9176 57.1475 88.2784 65.6895C90.6393 74.2395 88.1349 82.3907 82.6715 83.8901C82.496 83.938 82.3285 83.9779 82.1531 84.0098C87.098 81.9999 89.2834 74.2076 87.0262 66.0564H87.0422L87.0342 66.0643Z" fill="black"/>
<path d="M33.1598 0.136719C33.1598 0.136719 35.0421 6.38172 42.6828 8.10448C42.6828 8.10448 36.8924 9.10145 36.7808 16.0483C36.7808 16.0483 34.739 10.0266 27.4252 8.09651C27.4252 8.09651 33.5426 7.37072 33.1598 0.136719Z" fill="white"/>
<path d="M13.929 54.085C13.929 54.085 15.3008 58.6232 20.8599 59.8833C20.8599 59.8833 16.6487 60.6091 16.5689 65.6658C16.5689 65.6658 15.0854 61.2791 9.76562 59.8754C9.76562 59.8754 14.2161 59.349 13.9449 54.085H13.929Z" fill="white"/>
<path d="M54.5249 91.7622C54.5249 91.7622 55.5139 95.0482 59.5337 95.9494C59.5337 95.9494 56.4869 96.4758 56.4231 100.137C56.4231 100.137 55.3544 96.9623 51.5021 95.9494C51.5021 95.9494 54.7243 95.5666 54.5249 91.7622Z" fill="white"/>
<path d="M70.6037 51.581C61.5672 52.4583 55.027 63.1294 55.9601 75.6035C55.9672 75.6994 55.9756 75.7951 55.9835 75.8906L31.0695 90.207V44.705L29.8009 45.4316V92.5283L56.1447 77.3896C56.2742 78.3713 56.4477 79.3314 56.6623 80.2695L27.1359 97.2421V42.5126L70.6037 17.5244V51.581Z" fill="white"/>
<path d="M58.1535 40.8843L60.3548 42.3917L49.7551 61.8365L45.2647 58.7579L36.7307 74.3983L32.8465 71.7424L27.1359 82.2225V87.3111L32.8465 76.8309L36.7307 79.4948L45.2647 63.8464L49.7551 66.9251L62.3807 43.7795L64.6458 45.3268L67.0226 32.7969L58.1535 40.8843Z" fill="black"/>
</g>
<defs>
<clipPath id="clip0_15980_8659">
<rect width="100" height="100" fill="white"/>
</clipPath>
</defs>
</svg>
