<svg width="100" height="100" viewBox="0 0 100 100" fill="none" xmlns="http://www.w3.org/2000/svg">
<rect width="100" height="100" fill="#A19FFF"/>
<path d="M96.9442 63.6618L51.1054 40.9689L49.4669 47.1763L91.6074 73.337C92.5047 73.8928 93.5033 74.1511 94.4786 74.1511C96.4136 74.1511 98.3018 73.1256 99.3083 71.3017C100.83 68.5463 99.753 65.0786 96.9442 63.6696V63.6618Z" fill="white"/>
<path d="M49.4668 47.1776L63.1053 55.6473C63.1599 54.3635 63.238 52.6649 63.3316 51.0993C63.511 48.1404 62.13 46.614 61.6541 46.1991L51.1053 40.9779L49.4668 47.1854V47.1776Z" fill="black"/>
<path d="M59.6879 37.2049C56.4889 36.1716 52.4864 34.3478 48.4136 32.0855C44.3407 29.8233 40.6814 27.381 38.1066 25.2127C37.3108 24.5395 36.6632 23.9289 36.1326 23.3653L25.1938 43.1854C25.1626 43.2323 25.1626 43.295 25.1469 43.3498C26.1456 45.0093 30.0468 48.5631 37.1392 52.5005C44.2237 56.4379 49.2952 57.8704 51.2302 57.8469C51.2692 57.8078 51.3238 57.7686 51.3472 57.7217L62.2861 37.9016C61.5293 37.7529 60.671 37.5259 59.6801 37.2049H59.6879Z" fill="white"/>
<path d="M38.7307 63.7398C23.7034 63.7398 11.5161 67.5128 11.5161 72.1626C11.5161 76.8123 23.7034 80.5853 38.7307 80.5853C53.758 80.5853 65.9453 76.8123 65.9453 72.1626C65.9453 67.5128 53.758 63.7398 38.7307 63.7398Z" fill="white"/>
<path d="M11.5161 72.1564C11.5161 72.5087 11.5941 72.8609 11.7346 73.1975C16.0727 73.9647 22.0649 74.223 28.4862 73.7768C40.494 72.947 49.4355 69.9803 48.468 67.1466C47.9218 65.5497 44.3327 64.3364 39.1598 63.7337C39.0193 63.7337 38.8789 63.7337 38.7385 63.7337C23.7112 63.7337 11.5239 67.5067 11.5239 72.1564H11.5161Z" fill="black"/>
<path d="M50.8869 62.5358C50.5046 62.7315 50.0208 62.8333 49.4278 62.8333C45.7919 62.8333 38.6918 59.483 34.658 57.2442C29.8986 54.5984 21.589 49.1502 21.5578 46.1209C21.0117 46.0817 20.6138 46.4575 20.6138 46.4575C19.4668 47.6003 17.5943 49.886 17.4772 52.6962C17.3212 54.5827 23.1027 59.3421 30.9519 63.7022C38.801 68.0623 45.8933 70.4576 47.3992 69.3304C49.7165 67.7413 50.6528 64.9311 51.0117 63.3577C51.0117 63.3577 51.1599 62.8098 50.8791 62.5358H50.8869Z" fill="black"/>
<path d="M69.043 79.6849C68.7933 78.5811 68.0832 77.1799 66.8036 76.8434L66.3823 74.4637C65.6177 75.63 64.2757 76.6711 62.5124 77.5635L63.6593 82.8003C63.1132 83.1056 62.5124 83.3952 61.857 83.6771L60.7023 78.3698C59.9298 78.6751 59.1105 78.9647 58.2367 79.2308L59.4305 84.5851C58.0651 85.0313 56.5436 85.4383 54.9051 85.7906L53.6957 80.3659C49.1235 81.2739 43.8726 81.7436 38.7464 81.7436C26.7854 81.7436 14.1768 79.1995 11.0871 74.448L10.6658 76.8355C9.39401 77.1643 8.68396 78.5733 8.43429 79.677C8.41088 79.7866 8.39532 79.8884 8.37971 79.998H8.35628L8.03641 81.7905C8.0052 81.9706 7.98179 82.1506 7.98179 82.3307C7.98179 87.591 21.7529 91.8493 38.7464 91.8493C55.7399 91.8493 69.5111 87.591 69.5111 82.3307C69.5111 82.0958 69.0898 79.7866 69.0663 79.677L69.043 79.6849Z" fill="black"/>
<path d="M7.60729 48.078C11.29 55.4127 4.72046 57.7454 4.72046 57.7454C12.0937 58.4186 18.8817 60.4303 18.8817 60.4303C12.1093 55.5458 7.60729 48.078 7.60729 48.078ZM29.4851 73.6672C29.4851 73.6672 13.3498 74.1447 19.9194 63.812C19.9194 63.812 11.6801 65.4949 0 64.3521C0 64.3521 8.64502 66.0977 10.3615 70.9823C12.3589 76.6574 7.68534 81.6673 7.68534 81.6673C7.68534 81.6673 15.5579 77.1976 20.2003 81.816C20.2003 81.816 23.1574 86.6066 21.3863 92C21.3863 92 26.4032 77.7847 29.4851 73.6672Z" fill="white"/>
<path d="M58.0807 14.5812C51.9012 11.1448 46.2055 9 43.6619 9C42.9753 9 42.5228 9.15656 42.3433 9.4775C41.4929 11.0196 47.1574 15.8024 55.0065 20.1625C61.186 23.5989 66.8817 25.7437 69.4253 25.7437C70.1119 25.7437 70.5644 25.5872 70.7439 25.2662C71.5943 23.7242 65.9298 18.9413 58.0807 14.5812Z" fill="white"/>
<path d="M50.5282 28.2628C49.3657 27.621 41.103 22.9477 37.8026 19.0416C37.3735 19.2452 36.999 19.5661 36.7493 20.0201C36.3358 20.7716 36.3826 21.6483 36.7883 22.3372C37.2642 22.8695 37.9274 23.527 38.8637 24.3176C41.3839 26.4389 44.973 28.8343 48.9834 31.0652C52.986 33.2883 56.9183 35.073 60.0471 36.0907C61.4905 36.5603 62.5438 36.7873 63.2928 36.8813C63.9795 36.7795 64.6193 36.3725 64.9782 35.7149C65.2357 35.2453 65.3059 34.7208 65.2279 34.2276C61.9665 33.7736 56.4112 31.5349 50.5204 28.2707L50.5282 28.2628Z" fill="black"/>
<path d="M69.4177 26.9191C66.5776 26.9191 60.6946 24.6725 54.4294 21.1892C50.575 19.0443 47.103 16.7273 44.653 14.6607C42.1095 12.5159 40.9703 10.9347 41.0796 9.66659C40.0184 10.6529 37.7323 13.1108 37.6075 16.2263C37.4515 18.1128 43.233 22.8721 51.0822 27.2323C57.6205 30.8644 63.6361 33.1344 66.3357 33.1344C66.8741 33.1344 67.2799 33.0405 67.5295 32.8526C70.1199 31.0835 70.9781 27.7959 71.2434 26.3868C70.8065 26.7234 70.1979 26.9035 69.4099 26.9035L69.4177 26.9191Z" fill="black"/>
<path d="M34.8064 42.8619L42.6868 28.5917C40.939 27.4019 39.6048 26.4078 38.6295 25.625L27.4488 45.8678C29.3916 47.6134 32.4579 49.8521 36.7179 52.2553C33.9091 50.0556 33.0275 46.0869 34.8064 42.8619Z" fill="#A19FFF"/>
<path d="M22.7674 46.1126C22.783 47.8504 28.3773 52.3749 35.2433 56.187C39.9638 58.8094 46.4085 61.6274 49.428 61.6274C49.9117 61.6274 50.1848 61.5413 50.3331 61.463C50.3331 61.463 50.9104 61.1812 51.2147 60.6411C51.519 60.101 51.5659 59.5217 51.4332 58.9816C51.3084 58.9894 51.1835 59.0051 51.0509 59.0051C47.4852 59.0051 40.5333 55.7252 36.5775 53.5256C32.5359 51.279 25.8805 46.9737 24.1562 43.9287C23.6724 44.1243 23.2589 44.4688 22.978 44.9541C22.6971 45.4394 22.7596 46.1126 22.7596 46.1126H22.7674Z" fill="black"/>
</svg>
