<svg width="100" height="100" viewBox="0 0 100 100" fill="none" xmlns="http://www.w3.org/2000/svg">
<g clip-path="url(#clip0_15980_8692)">
<rect width="100" height="100" fill="#A19FFF"/>
<path d="M61.1759 13.569C61.1871 11.7967 56.4404 10.3302 50.5737 10.2937C44.7071 10.2571 39.9421 11.6642 39.9309 13.4366C39.9197 15.2089 44.6664 16.6754 50.5331 16.7119C56.3997 16.7485 61.1647 15.3414 61.1759 13.569Z" fill="#6CF479"/>
<path d="M49.6747 97.3208C68.6438 97.4397 75.7622 87.1782 75.7622 87.1782C77.2498 84.3553 78.6675 82.0078 77.09 77.5209L61.3357 36.5145L61.4555 17.6754L50.1839 18.6361H50.4035L39.1418 17.5367L39.022 36.3758L22.7386 77.1841C21.9898 81.2154 22.6587 83.761 24.1063 86.6037C24.1063 86.6037 30.9252 97.202 49.8943 97.3208" fill="white"/>
<path d="M49.6547 100.401C69.0332 100.52 76.1316 89.7833 76.1316 89.7833C77.4968 87.6382 78.0714 84.6196 77.9224 81.7623C77.9037 81.6117 77.7515 80.6284 77.9037 80.6212L70.9151 84.0879H48.9508C48.9508 84.0879 40.1948 83.7435 33.9752 83.0974C29.0762 82.5886 22.7086 77.4715 22.7086 77.4715C21.5006 82.4834 21.6903 87.2179 23.5372 89.4564C23.5372 89.4564 30.4959 100.283 49.8744 100.401" fill="black"/>
<path d="M49.8444 97.5687C68.8135 97.6875 75.7622 87.1782 75.7622 87.1782C75.7622 87.1782 78.0485 84.4347 77.739 80.3341C77.739 80.3341 78.1184 72.3904 49.3752 72.1229C22.3392 71.8753 22.7086 77.4715 22.7086 77.4715C21.9598 81.5028 22.8184 84.0088 24.276 86.8515C24.276 86.8515 31.0949 97.4498 50.0641 97.5687" fill="#A19FFF"/>
<path d="M69.4724 91.1698C66.5073 91.7244 63.0729 94.2799 59.3889 94.587L59.3589 99.4701C65.0796 98.5192 68.3143 97.0137 69.8019 95.4784L69.8219 91.7542C68.9233 91.982 70.5707 90.9717 69.4724 91.1698Z" fill="#A19FFF"/>
<path d="M53.4391 49.9159C56.1933 49.9159 58.4266 47.7002 58.4266 44.9678C58.4266 42.2354 56.1933 40.0109 53.4391 40.0109C50.685 40.0109 48.4517 42.2266 48.4517 44.959C48.4517 47.6914 50.685 49.9071 53.4391 49.9071V49.9159Z" fill="black"/>
<path d="M53.6774 43.0496C53.6774 43.0496 57.0318 43.3999 56.2639 47.8138C57.0142 47.0869 57.4732 46.0798 57.4732 44.9588C57.4732 42.7519 55.6724 40.9565 53.4391 40.9565C53.1566 40.9565 52.883 40.9828 52.627 41.0354C53.139 41.1492 53.9423 41.5608 53.6774 43.0409V43.0496Z" fill="white"/>
<path d="M46.4549 33.0679C48.1091 33.0679 49.45 31.7375 49.45 30.0964C49.45 28.4553 48.1091 27.1249 46.4549 27.1249C44.8007 27.1249 43.4598 28.4553 43.4598 30.0964C43.4598 31.7375 44.8007 33.0679 46.4549 33.0679Z" fill="black"/>
<path d="M46.1081 66.3295C50.9537 59.2249 54.5541 49.7239 66.8066 56.2351L74.8335 76.5199C75.8019 79.1249 75.6821 82.1363 73.4858 85.0582C73.4858 85.0582 67.3716 94.3012 50.7535 94.4862L50.1535 94.4977C32.9833 94.389 26.7818 84.8177 26.7519 84.7712C24.815 82.3247 24.8245 79.8879 25.5034 76.2231L28.2196 69.1806V69.1707C28.2296 69.1418 29.437 65.6897 34.0996 64.5948C39.2819 63.3757 41.9625 67.0403 46.1081 66.3295Z" fill="black"/>
<path d="M64.6103 74.2521C69.8518 83.2259 57.5718 89.1887 57.5718 89.1887C68.2045 87.5246 71.0099 81.5718 71.0099 81.5718C73.6157 78.3725 66.0979 64.981 66.0979 64.981C62.5138 66.8531 61.5653 69.775 64.6203 74.2521H64.6103Z" fill="white"/>
<path d="M38.453 17.5367L62.0945 17.6853V19.7653C62.0745 21.3303 56.4037 22.7566 50.6132 22.7665C44.5431 22.7665 38.3232 21.2312 38.3432 19.2403L38.453 17.5466V17.5367Z" fill="#A19FFF"/>
<path d="M36.2465 13.8764V15.5159C36.2266 18.5072 42.5862 20.9735 50.4534 21.023C58.3206 21.0725 64.7102 18.6855 64.7301 15.6942H64.7501V14.0004C64.7465 13.9979 64.7429 13.9954 64.7393 13.9929C64.7481 11.0039 58.3889 8.54235 50.527 8.49334C42.6589 8.44429 36.2651 10.8302 36.2462 13.8224C36.2461 13.8404 36.2462 13.8584 36.2465 13.8764Z" fill="black"/>
<path d="M61.1759 13.569C61.1871 11.7967 56.4404 10.3302 50.5737 10.2937C44.7071 10.2571 39.9421 11.6642 39.9309 13.4366C39.9197 15.2089 44.6664 16.6754 50.5331 16.7119C56.3997 16.7485 61.1647 15.3414 61.1759 13.569Z" fill="#A19FFF"/>
<path d="M64.7701 13.7431C64.2709 15.7637 58.67 18.131 53.9577 18.5371C58.7299 18.646 64.1711 16.7245 64.7601 15.2982L64.7801 13.7431H64.7701Z" fill="white"/>
<path d="M61.1759 13.569C61.1871 11.7967 56.4404 10.3302 50.5737 10.2937C44.7071 10.2571 39.9421 11.6642 39.9309 13.4366C39.9197 15.2089 44.6664 16.6754 50.5331 16.7119C56.3997 16.7485 61.1647 15.3414 61.1759 13.569Z" fill="white"/>
<path d="M47.1136 13.3591C47.1136 14.9355 49.2411 15.2488 49.2411 15.2488C46.2037 15.1073 42.4614 14.3596 42.4614 13.248C42.4614 12.1364 46.947 11.2573 52.4451 11.2876C52.4451 11.2876 47.1136 11.6009 47.1136 13.3591Z" fill="black"/>
<path d="M55.2674 5.40379C56.6595 5.40379 57.7881 4.28418 57.7881 2.90307C57.7881 1.52196 56.6595 0.402344 55.2674 0.402344C53.8753 0.402344 52.7468 1.52196 52.7468 2.90307C52.7468 4.28418 53.8753 5.40379 55.2674 5.40379Z" fill="black"/>
</g>
<defs>
<clipPath id="clip0_15980_8692">
<rect width="100" height="100" fill="white"/>
</clipPath>
</defs>
</svg>
