<svg width="100" height="100" viewBox="0 0 100 100" fill="none" xmlns="http://www.w3.org/2000/svg">
<rect width="100" height="100" fill="#A19FFF"/>
<path d="M50.6928 67.3663L51.5704 67.6935L54.1077 68.627L57.9456 63.9035L59.9882 53.483L60.084 53.0042L60.4989 52.725L66.7703 48.4881L68.8927 44.9056V22.381L63.1 14.3941L58.3525 26.8572L54.4907 31.9478L52.5598 41.6023L46.2405 43.8843L43.4319 47.395L36.7615 47.2195L29.1416 55.9485V83.1008L47.0384 72.792L50.6928 67.3663Z" fill="black"/>
<path d="M27.9449 55.9486V55.5018L28.2402 55.1667L35.86 46.4377L36.2351 46.0148L36.7936 46.0228L42.8735 46.1824L45.3071 43.1424L45.5226 42.8791L45.8337 42.7594L51.5227 40.7088L53.318 31.7166L53.3739 31.4453L53.5414 31.2298L55.1053 29.1713V2.41784L44.9241 13.6043L41.94 26.3627L36.8494 22.8519L29.6524 24.2562L27.0194 36.3683L22.2799 40.5812L15.3541 41.3392V75.2657L27.9449 68.0128V55.9486Z" fill="white"/>
<path d="M41.1739 24.3837L43.759 13.3328L43.8308 13.0296L44.0383 12.7982L54.0439 1.79526L51.0678 0L40.8866 11.1945L38.2695 22.381L41.1739 24.3837Z" fill="black"/>
<path d="M14.1571 40.2698L15.2263 40.1501L21.769 39.432L25.9341 35.7377L28.4873 24.0007L28.6549 23.2347L35.3013 21.9341L32.8119 20.4421L25.6149 21.8464L22.9818 33.9584L18.2423 38.1713L11.3166 38.9293V72.8478L14.1571 74.5633V40.2698Z" fill="black"/>
<path d="M27.9448 82.5586L27.9449 55.9486V55.5018L28.2402 55.1667L35.86 46.4377L36.2351 46.0148L36.7936 46.0228L42.8735 46.1824L45.3071 43.1424L45.5226 42.8791L45.8337 42.7594L51.5227 40.7088L53.318 31.7166L53.3739 31.4453L53.5414 31.2298L57.2993 26.2751L61.975 13.9715L62.0309 13.8199L58.935 12.1523L54.1955 24.6154L50.3337 29.706L48.4028 39.3605L42.0835 41.6425L39.2749 45.1533L32.5965 44.9777L24.9846 53.7067V80.8591L25.0644 80.8112L24.9846 80.9548L27.9448 82.5586Z" fill="black"/>
<path d="M83.151 33.5757L79.752 31.6369L73.7199 38.0041L68.8049 37.3019L63.1877 46.7809L56.6848 51.1693L54.5784 61.8771L50.0144 67.4943L46.6792 66.2655L40.0008 76.2073V89.572L43.2802 91.4391V78.3855L50.6928 67.3663L54.1077 68.627L57.9456 63.9035L60.084 53.0042L66.7703 48.4881L72.6587 38.5546L77.7493 39.2807L83.151 33.5757Z" fill="black"/>
<path d="M67.6642 49.3259L61.1613 53.7143L59.0549 64.422L54.4909 70.0392L51.1557 68.8105L44.4773 78.7522V92.117L84.2284 69.2333V34.1818L78.1964 40.549L73.2813 39.8469L67.6642 49.3259Z" fill="white"/>
<path d="M92.295 71.587L45.8017 98.6276L8.20483 77.5871L7 78.2813L45.8096 100L93.4998 72.2731L92.295 71.587Z" fill="black"/>
<path d="M66.5231 76.582L81.4038 68.0206V45.3763C81.4038 45.3763 79.5607 66.5764 66.5231 76.582Z" fill="#A19FFF"/>
</svg>
