<svg width="100" height="100" viewBox="0 0 100 100" fill="none" xmlns="http://www.w3.org/2000/svg">
<g clip-path="url(#clip0_15980_8819)">
<rect width="100" height="100" fill="#A19FFF"/>
<path d="M13.0059 70.442C13.0059 70.442 15.5415 52.4328 51.0289 54.1557C80.6432 55.5969 106.227 73.0101 98.3598 86.0348C91.9992 96.5564 49.8369 98.691 29.0646 92.1462C8.29228 85.6013 13.0059 70.4312 13.0059 70.4312V70.442Z" fill="white"/>
<path d="M83.1245 65.5568C83.1245 65.5568 95.8891 71.5056 97.2869 81.1387C97.2869 81.1387 93.1585 74.518 84.9232 73.8787C84.9232 73.8787 86.4727 69.3493 83.1245 65.5568Z" fill="#A19FFF"/>
<path d="M35.8043 93.3815C30.939 92.0595 25.6403 89.5348 23.3431 85.0487C22.2595 82.9357 21.6202 80.5193 22.1728 78.0379C24.275 68.5132 36.8121 69.12 36.8121 69.12C84.4573 71.6773 81.0873 61.4374 81.0873 61.4374C72.6679 57.4823 62.1355 54.6975 51.0395 54.1557C15.5522 52.4328 13.0166 70.442 13.0166 70.442C13.0166 70.442 11.868 74.1587 13.2224 78.7097C6.30917 81.2562 3.42683 83.6617 3.42683 83.6617C3.42683 83.6617 -12.1443 94.5409 25.131 98.5177C66.914 102.982 86.9062 96.6214 94.8922 89.2855C83.9047 96.1771 49.4033 97.0765 35.8152 93.3815H35.8043Z" fill="black"/>
<path d="M85.8118 44.3301C85.8118 44.3301 83.9806 29.6476 54.6046 31.8581C32.2611 33.5485 16.7875 44.601 20.9593 52.3595C25.1311 60.1179 57.1402 62.8919 73.0039 59.0127C88.8675 55.1335 85.8118 44.3301 85.8118 44.3301Z" fill="white"/>
<path d="M75.3769 37.1339C75.3769 37.1339 84.3815 39.8537 83.1137 47.7856C83.1137 47.7856 80.6756 43.137 73.3723 44.8382C73.3723 44.8382 77.6091 41.8909 75.3877 37.1339H75.3769Z" fill="#A19FFF"/>
<path d="M20.9701 52.3676C23.029 56.1927 31.8818 58.8149 42.2084 60.0069C42.3818 60.0285 42.5551 60.0502 42.7393 60.0719V60.0285C33.5397 59.2375 30.8849 54.253 31.4159 50.2871C32.2611 43.9482 43.0644 43.3738 43.0644 43.3738C70.8909 41.4884 73.2531 34.3693 73.4481 33.3074C73.4481 33.3074 67.0875 30.956 54.6046 31.8662C32.2611 33.4916 16.7875 44.6091 20.9593 52.3676H20.9701Z" fill="black"/>
<path d="M74.5639 23.0999C74.1522 28.6587 67.3906 34.9652 53.1306 37.2407C40.3552 39.2887 29.3676 37.1973 28.4791 31.7903C27.5906 26.3832 38.1447 19.069 50.6926 15.8399C65.6894 11.9823 75.0624 16.3167 74.5639 23.0999Z" fill="white"/>
<path d="M53.8241 14.8656C48.7963 16.1551 41.4496 18.4848 37.9821 20.782C37.7112 21.6164 37.7871 22.4074 38.2205 23.1009C39.6942 25.4522 46.8242 26.9259 55.3303 24.0869C62.807 21.5947 68.4092 17.813 67.9432 15.1799C64.3782 14.0638 60.0331 13.2619 53.8241 14.8548V14.8656Z" fill="black"/>
<path d="M39.2501 10.4673C40.3012 14.9209 45.3941 18.7567 54.5504 17.9007C62.7531 17.1314 69.2438 13.3388 69.0162 8.7661C68.7887 4.19337 61.2036 0.249124 52.9791 0.0107358C43.151 -0.270996 37.9715 5.03857 39.261 10.4782L39.2501 10.4673Z" fill="white"/>
<path d="M69.5581 18.5522C69.5581 18.5522 72.3104 19.4624 72.2021 22.5181C72.0937 25.5738 68.9188 29.0954 63.4142 32.0428C63.4142 32.0428 69.9807 25.3571 69.5581 18.5522Z" fill="#A19FFF"/>
<path d="M55.4603 2.57775C55.4603 2.57775 60.434 3.14121 64.3565 5.75265C68.2791 8.36409 66.4804 11.1922 64.8875 12.6659C64.8875 12.6659 65.3101 6.77122 58.2126 7.68143C58.2126 7.68143 59.3829 4.96163 55.4603 2.57775Z" fill="#A19FFF"/>
</g>
<defs>
<clipPath id="clip0_15980_8819">
<rect width="100" height="100" fill="white"/>
</clipPath>
</defs>
</svg>
