<svg width="100" height="100" viewBox="0 0 100 100" fill="none" xmlns="http://www.w3.org/2000/svg">
<rect width="100" height="100" fill="#A19FFF"/>
<path d="M49.215 27.5016C38.4945 25.3337 29.4573 30.1796 26.8728 37.6015C25.317 42.0648 26.8473 46.6302 30.5285 50.0393C31.4211 50.8725 31.5997 52.0457 31.0216 53.0914L30.2309 54.5027L29.2447 54.5877V56.6451C29.2872 57.0532 29.5678 57.4187 30.0269 57.6228L33.5805 59.2296C33.5805 59.2296 33.6486 59.2806 33.6911 59.2976V61.7631C33.6996 61.9841 33.8271 62.1796 34.0226 62.3242L35.3659 63.3188C35.6039 63.4889 35.6974 63.7609 35.6209 64.0245L29.0237 86.2902H28.5731V88.4411C28.6156 89.2402 28.9387 90.3114 30.1459 91.2976L35.0938 95.2764C37.4063 97.2147 39.3106 95.6929 39.6252 94.2817L48.2798 63.4209C48.3903 62.9958 48.8239 62.6727 49.3425 62.6302L53.1767 62.2902C53.9844 62.2221 54.605 61.6525 54.6135 60.9809L54.656 56.407C54.6645 55.3954 55.2851 54.4517 56.3308 53.9331C60.4456 51.9182 62.384 47.8799 63.2511 43.9862C64.8494 36.7938 58.6603 29.3464 49.2405 27.5016H49.215Z" fill="black"/>
<path d="M35.0854 93.2356L30.1375 89.2569C27.8335 87.378 28.7177 85.1931 28.7177 85.1931L35.5955 61.9838C35.672 61.7202 35.5785 61.4482 35.3404 61.2781L33.9972 60.2834C33.7336 60.0879 33.6231 59.7903 33.7166 59.4928L34.0992 58.2176C34.2267 57.801 34.0057 57.3929 33.5636 57.1889L30.0099 55.5821C29.3128 55.2675 29.0408 54.5789 29.3808 53.9668L31.0046 51.0507C31.5827 50.005 31.4042 48.8233 30.5115 47.9986C26.8303 44.5895 25.3086 40.0241 26.8558 35.5608C29.4403 28.1389 38.4775 23.293 49.1981 25.4609C58.6178 27.3057 64.8155 34.7446 63.2087 41.9455C62.3415 45.8392 60.4117 49.8775 56.2884 51.8924C55.2427 52.4025 54.6221 53.3546 54.6136 54.3663L54.5711 58.9402C54.5711 59.6118 53.942 60.1814 53.1343 60.2494L49.3001 60.5895C48.7815 60.632 48.3479 60.9551 48.2374 61.3801L39.5827 92.241C39.2682 93.6522 37.3723 95.1825 35.0514 93.2356H35.0854Z" fill="white"/>
<path d="M45.0833 36.819C47.4808 37.2441 49.7847 36.1559 50.2438 34.413C50.7029 32.6957 49.1896 30.9529 46.8601 30.5108C44.5137 30.0687 42.1758 31.0889 41.6572 32.8317C41.1301 34.5916 42.6688 36.3854 45.0748 36.819H45.0833Z" fill="#00482F"/>
<path d="M40.0928 62.3238C40.943 62.4513 41.7506 62.0518 41.8952 61.4311C42.0397 60.819 41.4956 60.2154 40.6709 60.0794C39.8378 59.9434 39.0216 60.3259 38.8516 60.9466C38.6816 61.5672 39.2342 62.1963 40.0928 62.3238Z" fill="#A19FFF"/>
<path d="M38.5964 67.2547C39.4466 67.3822 40.2542 66.9827 40.3987 66.3621C40.5433 65.7414 39.9992 65.1463 39.1745 65.0103C38.3413 64.8743 37.5252 65.2568 37.3552 65.8775C37.1851 66.5066 37.7377 67.1272 38.5964 67.2547Z" fill="#A19FFF"/>
<path d="M37.6699 70.4343C38.52 70.5618 39.3277 70.1623 39.4722 69.5416C39.6167 68.9295 39.0726 68.3259 38.248 68.1899C37.4233 68.0539 36.5986 68.4364 36.4286 69.0571C36.2586 69.6862 36.8112 70.3068 37.6699 70.4343Z" fill="#A19FFF"/>
<path d="M36.3265 75.0422C37.1767 75.1697 37.9843 74.7702 38.1289 74.1496C38.2734 73.5374 37.7293 72.9338 36.9046 72.7978C36.0715 72.6618 35.2553 73.0443 35.0853 73.665C34.9153 74.2941 35.4679 74.9147 36.3265 75.0422Z" fill="#A19FFF"/>
<path d="M35.4851 78.1115C36.3353 78.2391 37.1429 77.8395 37.2874 77.2189C37.432 76.5983 36.8879 76.0031 36.0632 75.8671C35.23 75.7311 34.4139 76.1137 34.2439 76.7343C34.0738 77.3634 34.6264 77.984 35.4851 78.1115Z" fill="#A19FFF"/>
<path d="M33.9463 83.1187C34.7964 83.2463 35.6041 82.8467 35.7486 82.2261C35.8931 81.6055 35.349 81.0103 34.5244 80.8743C33.6997 80.7383 32.875 81.1209 32.705 81.7415C32.535 82.3706 33.0876 82.9912 33.9463 83.1187Z" fill="#A19FFF"/>
<path d="M32.7984 86.8764C33.6486 87.004 34.4563 86.6044 34.6008 85.9838C34.7453 85.3632 34.2012 84.768 33.3766 84.632C32.5519 84.496 31.7272 84.8786 31.5572 85.4992C31.3872 86.1283 31.9398 86.7489 32.7984 86.8764Z" fill="#A19FFF"/>
<path d="M44.5305 50.6426C43.6889 50.6426 42.8302 50.5916 41.9716 50.4811C36.9471 49.8605 32.8238 47.5396 30.6729 44.1134C29.1511 41.6905 28.8026 38.8934 29.6953 36.2409C31.7611 30.1028 40.1097 26.1665 48.2968 27.4673C52.8281 28.1814 56.6283 30.3833 58.7197 33.4949C60.233 35.7393 60.7261 38.2388 60.1395 40.7383C58.7962 46.5194 52.0715 50.6426 44.5221 50.6426H44.5305ZM45.1002 28.496C38.5624 28.496 32.5348 31.8116 30.9025 36.649C30.1203 38.9699 30.4179 41.3164 31.7526 43.4333C33.674 46.4854 37.5507 48.6448 42.1246 49.2144C50.0226 50.1921 57.555 46.2643 58.9067 40.4492C59.3998 38.3068 58.9748 36.1474 57.6655 34.209C55.7697 31.3865 52.2755 29.3886 48.1012 28.734C47.098 28.5725 46.0948 28.496 45.1087 28.496H45.1002Z" fill="white"/>
<path d="M53.2278 25.683C45.2448 21.0837 33.5551 21.7978 27.0258 27.6554C23.1066 31.1751 21.9929 35.7149 23.5317 39.8722C23.9058 40.8839 23.4212 41.9891 22.299 42.7543L19.689 44.5226L18.5582 43.5874V45.8318C18.5582 46.0699 18.6603 46.3079 18.8558 46.512L21.2788 49.0199C21.5848 49.3345 21.5508 49.7681 21.2022 50.0996L20.9982 50.2952L19.8845 49.3685V51.6129C19.8845 51.7149 19.91 51.817 19.961 51.919L20.6581 53.2112C20.7772 53.4408 20.7177 53.7043 20.5051 53.9169L18.9068 55.4726C18.7283 55.6512 18.4562 55.7702 18.1672 55.8042L16.9089 55.9487C16.5774 55.9912 16.2628 56.1273 16.0503 56.3313L15.1916 57.1645C14.9706 57.377 14.8856 57.6321 14.9451 57.8701L15.2341 58.9413C15.2936 59.1538 15.2086 59.3919 15.0131 59.5874L13.9334 60.6416C13.6868 60.8797 13.2958 61.0242 12.9132 61.0157L12.046 60.9987C11.5529 60.9902 11.0513 61.1687 10.7283 61.4748L8.37333 63.7532L7.29362 62.8605V65.105C7.29362 65.1985 7.29363 65.3005 7.32764 65.394L7.72721 66.4992C7.81223 66.7373 7.7272 67.0008 7.50616 67.2219L6.35845 68.3441L3.85898 69.1092C3.85898 69.1092 2.09915 69.6958 2.53273 71.4046C2.61775 71.7362 2.49873 72.1103 2.17567 72.4248L1.43602 73.1475C1.43602 73.1475 1.05346 73.4705 0.687886 73.9636L0.0077556 73.394V75.6385C-0.000745998 75.9785 0.0672647 76.3271 0.271303 76.6671L2.3967 81.241C2.65175 81.7851 3.13634 82.2272 3.79097 82.5162L4.80266 82.9583C5.26174 83.1624 5.93336 83.0093 6.30743 82.6268L32.1268 56.1528C32.4669 55.8042 33.045 55.6512 33.5551 55.7617L37.3213 56.6119C38.1119 56.7904 39.0046 56.4673 39.3872 55.8722L41.9632 51.8C42.5328 50.8988 43.638 50.2357 44.8962 50.0911C49.8526 49.5215 54.4095 47.5152 57.3766 44.3015C62.8601 38.3504 60.9897 30.1889 53.2363 25.7085L53.2278 25.683Z" fill="black"/>
<path d="M2.39677 78.9792L0.271371 74.4053C-0.748821 72.7135 1.43609 70.8771 1.43609 70.8771L2.17573 70.1545C2.49029 69.8399 2.61782 69.4744 2.5328 69.1343C2.09922 67.4255 3.85905 66.8389 3.85905 66.8389L6.35852 66.0737L7.50623 64.9515C7.73577 64.7305 7.81229 64.4669 7.72728 64.2289L7.3277 63.1237C7.21718 62.8261 7.3277 62.486 7.60826 62.214L10.7198 59.2129C11.0344 58.9069 11.536 58.7198 12.0376 58.7368L12.9048 58.7538C13.2958 58.7538 13.6869 58.6178 13.9249 58.3798L15.0046 57.3256C15.2002 57.13 15.2852 56.9005 15.2257 56.6795L14.9366 55.6083C14.8771 55.3702 14.9621 55.1152 15.1832 54.9026L16.0418 54.0695C16.2544 53.8654 16.5689 53.7294 16.9005 53.6869L18.1587 53.5424C18.4478 53.5084 18.7199 53.3893 18.8984 53.2108L20.4967 51.655C20.7177 51.4425 20.7772 51.1704 20.6497 50.9494L19.9526 49.6571C19.8165 49.4021 19.8846 49.1045 20.1311 48.8665L21.1938 47.8378C21.5424 47.5062 21.5679 47.0726 21.2703 46.7581L18.8474 44.2501C18.3713 43.757 18.5073 43.0599 19.1619 42.6178L22.2905 40.5009C23.4127 39.7443 23.8973 38.6306 23.5232 37.6189C21.9845 33.4616 23.0982 28.9302 27.0174 25.4021C33.5381 19.5445 44.6582 17.9207 53.4489 23.0726C61.2108 27.5445 62.8517 36.0631 57.3596 42.0142C54.3926 45.2363 49.8357 47.2427 44.8793 47.8038C43.621 47.9483 42.5158 48.6114 41.9462 49.5126L39.3702 53.5849C38.9962 54.18 38.1035 54.503 37.3043 54.3245L33.5381 53.4743C33.028 53.3638 32.4499 53.5169 32.1099 53.8654L6.29051 80.3394C5.91644 80.722 5.24481 80.875 4.78572 80.671L3.77403 80.2289C3.1194 79.9398 2.63481 79.4978 2.37976 78.9537L2.39677 78.9792Z" fill="white"/>
<path d="M43.3065 31.9908C45.3044 33.0875 48.0504 32.8155 49.4532 31.3872C50.839 29.9844 50.3884 27.9781 48.467 26.8899C46.5287 25.7847 43.7826 26.0057 42.3289 27.4C40.8581 28.8112 41.2917 30.8856 43.3065 31.9908Z" fill="#A19FFF"/>
<path d="M42.8731 29.2108C44.3183 27.8165 47.0644 27.5955 49.0112 28.7007C49.5383 28.9983 49.9379 29.3723 50.2355 29.7719C50.3375 28.7007 49.7253 27.604 48.467 26.8899C46.5287 25.7847 43.7826 26.0057 42.3289 27.4C41.2662 28.4287 41.2152 29.7889 42.0229 30.8856C42.0824 30.2905 42.346 29.7124 42.8731 29.2108Z" fill="black"/>
<path d="M41.8019 45.2278C38.7583 45.2278 35.6892 44.6072 32.9687 43.3149C29.0155 41.4361 26.465 38.4265 25.9634 35.0514C25.5213 32.0673 26.703 29.1257 29.3045 26.7538C34.5755 21.9419 44.4629 20.9642 51.3492 24.5689C54.8603 26.4052 57.1813 29.2618 57.7169 32.3904C58.1845 35.1194 57.2663 37.8739 55.1409 40.1438C52.0548 43.4424 46.9793 45.2278 41.8019 45.2278ZM41.9379 23.6507C37.4746 23.6507 33.0622 25.045 30.1632 27.6975C27.8933 29.7719 26.8475 32.3224 27.2301 34.8643C27.6637 37.8059 29.9591 40.4669 33.5213 42.1587C40.3821 45.4233 49.6658 44.1311 54.2057 39.2682C56.0505 37.2958 56.8497 34.9238 56.4501 32.5944C55.9825 29.8569 53.9081 27.3489 50.754 25.6911C48.1185 24.3138 45.024 23.6422 41.9379 23.6422V23.6507Z" fill="#A19FFF"/>
<path d="M54.7325 46.0521C55.0215 45.8396 55.319 45.6355 55.5911 45.406C55.183 42.6004 54.0098 33.3847 55.1065 27.6886C55.1065 27.6886 47.1575 36.4198 48.8578 49.0447C49.2829 48.9086 49.691 48.7386 50.0991 48.5856C50.0991 49.2827 50.2096 54.0181 54.6219 57.9968L54.6644 55.6419L55.03 53.7375L57.0194 51.6206L54.7325 46.0606V46.0521Z" fill="black"/>
<path d="M89.3684 31.769C81.8359 22.4257 70.5713 18.5915 62.2483 21.8816L60.9645 21.6691C60.9645 21.6691 58.3715 24.1091 58.295 24.1771C49.9464 30.9103 50.329 45.227 59.1367 56.1516C67.9528 67.0761 81.8614 70.4768 90.21 63.7435C90.6776 63.3695 95.0049 59.3567 95.0049 59.3567L94.7499 57.6394C97.8699 50.243 96.0336 40.0326 89.3684 31.769Z" fill="black"/>
<path d="M93.9791 60.2744C102.326 53.5416 101.948 39.2252 93.1337 28.298C84.3196 17.3707 70.4078 13.9705 62.0606 20.7033C53.7135 27.4362 54.092 41.7526 62.9061 52.6798C71.7201 63.6071 85.632 67.0073 93.9791 60.2744Z" fill="white"/>
<path d="M69.0784 28.189C69.8425 27.1134 69.4007 25.4876 68.0916 24.5576C66.7825 23.6276 65.1018 23.7456 64.3377 24.8212C63.5736 25.8968 64.0154 27.5227 65.3245 28.4527C66.6336 29.3826 68.3143 29.2646 69.0784 28.189Z" fill="black"/>
<path d="M68.3352 16.3475C67.7996 11.9351 65.6317 7.9989 62.3841 5.54194C59.6551 3.48455 56.3904 2.63439 53.1513 3.14449C45.8569 4.29221 40.7475 12.0627 41.7592 20.4538C42.2948 24.8661 44.4627 28.8023 47.7103 31.2593C48.0589 31.5228 48.4244 31.7609 48.7985 31.9904C48.7985 31.9904 48.8155 31.9904 48.824 31.9819C49.5126 31.4803 50.0992 30.7832 50.2183 29.8735C49.8867 29.678 49.5637 29.4654 49.2491 29.2274C46.5541 27.187 44.7432 23.8799 44.2927 20.1477C43.4425 13.1084 47.5913 6.61314 53.5509 5.66947C56.0929 5.26989 58.6774 5.95002 60.8453 7.58233C63.5403 9.62271 65.3511 12.9298 65.8017 16.662C66.2013 19.9862 65.4872 23.1743 63.9909 25.7332C63.8633 26.6684 64.3224 27.7141 65.2576 28.4112C67.6465 25.1891 68.8793 20.8703 68.3352 16.356V16.3475Z" fill="white"/>
<path d="M67.2896 14.6049C66.72 12.4625 65.8699 10.7792 64.9177 9.44446C61.8146 5.08314 55.9655 3.68038 51.2216 6.15434C49.5043 7.04701 48.5351 8.02469 48.5351 8.02469L48.6881 8.0502C50.0824 6.85147 51.7402 6.03532 53.568 5.74626C56.0845 5.34669 58.652 6.02682 60.8029 7.64212C63.4809 9.6655 65.2747 12.9556 65.7253 16.6623C66.1164 19.8759 65.4533 22.9705 64.0505 25.47C63.838 26.2861 64.11 27.2298 64.7902 27.9609C65.9124 26.3626 69.041 21.1427 67.2981 14.6049H67.2896Z" fill="black"/>
<path d="M78.9876 42.779L82.3882 39.9139L87.9908 46.1286L93.4488 41.5293L84.7177 31.8459C84.2416 31.3103 83.5699 30.9873 82.9238 30.9788L72.3563 30.7152C71.5912 30.6982 71.0046 31.1913 70.9195 31.9224L69.7378 42.0734C69.6698 42.694 69.9079 43.3741 70.3839 43.9097L79.1151 53.593L84.5731 48.9937L78.9706 42.779H78.9876Z" fill="black"/>
<path d="M91.6722 29.5675C86.6223 23.4633 79.9995 20.1052 73.5978 19.051C73.5978 19.051 86.5287 24.9086 86.1547 36.8873C86.1547 36.8873 94.1972 33.5207 97.7424 42.6599C97.1047 38.4346 95.1409 33.7587 91.6722 29.5675Z" fill="#A19FFF"/>
<path d="M38.4944 56.5171L33.402 57.9539L29.9673 56.8997L33.334 54.1707L37.8993 55.2929L38.4944 56.5171Z" fill="black"/>
<path d="M56.3054 37.9928L52.4712 41.0279C52.6243 42.2606 52.8793 43.5189 53.2279 44.7686L57.1131 41.691C56.756 40.4498 56.4925 39.2171 56.3139 37.9843L56.3054 37.9928Z" fill="white"/>
<path d="M56.0674 33.6737L52.3098 36.6493C52.2672 37.3719 52.2587 38.0946 52.2843 38.8342L56.0845 35.8246C56.042 35.102 56.0335 34.3794 56.059 33.6737H56.0674Z" fill="white"/>
</svg>
