<svg width="100" height="100" viewBox="0 0 100 100" fill="none" xmlns="http://www.w3.org/2000/svg">
<g clip-path="url(#clip0_15980_8891)">
<rect width="100" height="100" fill="#A19FFF"/>
<path d="M16.9228 68.9611C16.8139 75.6559 12.0741 82.4374 6.33489 84.1071C12.0741 82.4374 16.639 86.5133 16.5301 93.2081C16.639 86.5133 21.3788 79.7318 27.118 78.0621C21.3788 79.7318 16.8139 75.6559 16.9228 68.9611Z" fill="white"/>
<path d="M5.42432 13.5398C5.37075 16.8898 2.93082 20.2782 -0.015625 21.1133C2.93568 20.2782 5.27823 22.3132 5.22466 25.6633C5.27823 22.3132 7.71816 18.9248 10.6646 18.0897C7.71328 18.9248 5.37075 16.8898 5.42432 13.5398Z" fill="white"/>
<path d="M47.0995 18.447C57.2941 18.4472 65.0299 27.23 65.0888 39.8904C65.1206 47.0847 62.6744 54.1751 58.6845 59.8132H58.6933L65.2196 65.9441L43.0546 71.0574C41.5875 71.3966 40.152 71.5593 38.7616 71.5593C28.5624 71.5593 20.8264 62.7809 20.7675 50.116C20.6996 35.7272 30.5682 21.7724 42.8056 18.949C44.273 18.6096 45.7092 18.447 47.0995 18.447ZM55.4726 23.7966C46.9531 19.3268 36.7357 23.1212 30.1532 31.8298C27.327 35.5648 23.7114 43.5066 24.2939 47.8904C24.5964 46.8602 25.8735 43.7472 27.9999 42.2224C30.5687 40.3798 34.3926 40.979 37.8827 43.0574C36.9933 41.1923 36.542 39.1543 36.6728 37.0349C37.1513 29.2248 45.1253 23.3616 54.4755 23.947L54.4706 23.9421C54.9809 23.9739 55.4823 24.0332 55.9833 24.1013C55.8119 24.0015 55.6487 23.8919 55.4726 23.7966Z" fill="white"/>
<path d="M21.3336 43.4255C21.3653 43.2626 21.406 43.0998 21.4375 42.9415C21.4105 43.0682 21.3789 43.1948 21.3518 43.326C21.3428 43.3621 21.3381 43.3939 21.3336 43.43V43.4255ZM24.2841 30.1994L18.5006 27.5805C18.5006 27.5805 18.487 27.5986 18.4825 27.6076C18.2431 27.9695 18.0081 28.3359 17.7822 28.7112C17.7551 28.7611 17.7234 28.8064 17.6918 28.8515C17.6873 28.8605 17.6828 28.8696 17.6783 28.8741C17.4297 29.2902 17.1857 29.7154 16.9553 30.1408C16.8875 30.2673 16.8243 30.3941 16.7565 30.5206C16.5938 30.8283 16.4312 31.1402 16.2776 31.4524C16.2459 31.5157 16.2143 31.5746 16.1827 31.6378C16.1375 31.7329 16.0968 31.8324 16.0516 31.9274C15.9116 32.2213 15.776 32.5199 15.6404 32.823C15.5681 32.9859 15.4958 33.1487 15.4281 33.3161C15.2925 33.637 15.1615 33.9582 15.035 34.2839C14.9943 34.3926 14.9446 34.4966 14.9039 34.6051C14.8904 34.6367 14.8814 34.673 14.8678 34.7046C14.6871 35.1931 14.5108 35.6817 14.3527 36.1792C14.3211 36.2787 14.294 36.3782 14.2623 36.4778C14.1358 36.8802 14.0138 37.2874 13.9054 37.6945C13.8873 37.7669 13.8602 37.8348 13.8421 37.9072C13.7969 38.079 13.7563 38.2509 13.7111 38.4273C13.684 38.5403 13.6523 38.6535 13.6252 38.771C13.5303 39.1646 13.44 39.5582 13.3586 39.9561C13.3496 39.9924 13.3451 40.033 13.3361 40.0738C13.2638 40.4311 13.2005 40.7884 13.1372 41.1504C13.1147 41.2769 13.0966 41.4082 13.0785 41.5392C13.0559 41.6885 13.0288 41.8378 13.0062 41.9872C12.9881 42.1047 12.9791 42.2222 12.961 42.3399C12.9384 42.5118 12.9158 42.6791 12.8978 42.851C12.8707 43.1088 12.8436 43.3666 12.821 43.6244C12.8074 43.7873 12.7893 43.9501 12.7803 44.113C12.7577 44.3936 12.7441 44.6739 12.7306 44.9543C12.7261 45.0946 12.7125 45.2349 12.708 45.3749C12.6944 45.7911 12.6854 46.2027 12.6854 46.6189V46.6369C12.699 49.2876 13.0469 51.7664 13.684 54.028C13.7382 54.2179 13.7924 54.408 13.8512 54.5934C15.6043 60.3017 19.219 64.5718 23.8911 66.6525C20.4797 62.4683 18.4464 56.6877 18.4148 50.0159C18.3831 43.1404 20.4571 36.1657 24.2751 30.1949L24.2841 30.1994ZM23.0281 37.6539C22.9739 37.794 22.9151 37.9342 22.8609 38.079C22.6802 38.5676 22.5084 39.0559 22.3457 39.549C22.3141 39.6486 22.2825 39.7526 22.251 39.8521C22.1244 40.2547 22.0069 40.6573 21.8939 41.0644C22.4407 39.0742 23.1636 37.1428 24.0357 35.3016C23.8956 35.5957 23.7601 35.8943 23.629 36.1882C23.5568 36.3511 23.4844 36.5185 23.4122 36.6813C23.2766 37.0025 23.1501 37.3237 23.0236 37.6448L23.0281 37.6539ZM21.1393 44.4703C21.1393 44.4703 21.1348 44.5021 21.1303 44.5156C21.1077 44.6421 21.0897 44.7689 21.0716 44.8956C21.0942 44.7553 21.1168 44.6105 21.1393 44.4703ZM21.0173 45.2664C20.9947 45.4112 20.9722 45.5606 20.9541 45.7051C20.9316 45.8725 20.9135 46.0399 20.8908 46.2072C20.9271 45.8906 20.9722 45.5786 21.0173 45.2664ZM20.6785 49.9978C20.6785 49.6451 20.6875 49.2921 20.6965 48.9393C20.683 49.2966 20.6785 49.6496 20.6785 50.0068V49.9978ZM21.6318 57.2351C21.4375 56.5248 21.2749 55.7965 21.1348 55.0502C21.2704 55.7965 21.4375 56.5293 21.6318 57.2351ZM39.0775 20.0312C39.4118 19.891 39.7461 19.7598 40.0806 19.6331C39.9857 19.6693 39.8862 19.7055 39.7914 19.7417C39.5519 19.8322 39.3123 19.9272 39.073 20.0312H39.0775ZM37.9117 20.5649C38.2506 20.3976 38.5896 20.2438 38.9329 20.0945C38.8199 20.1443 38.7069 20.194 38.5986 20.2438C38.3681 20.3478 38.1421 20.4519 37.9162 20.5649H37.9117ZM24.9755 20.3749C24.7088 20.5921 24.4469 20.8092 24.1893 21.0354C24.1079 21.1032 24.0312 21.1756 23.9543 21.2479C23.7375 21.4424 23.5205 21.6369 23.3082 21.836C23.1997 21.94 23.0957 22.044 22.9875 22.1481C22.8066 22.3245 22.6304 22.4964 22.4542 22.6773L22.4452 22.6863L28.0886 25.242C28.8614 24.4006 29.6656 23.6091 30.4971 22.8718L24.9755 20.3704V20.3749ZM36.7595 21.1665C36.6918 21.2027 36.6239 21.2434 36.5517 21.2841C36.8996 21.0851 37.2519 20.8951 37.609 20.7142C37.5501 20.7459 37.4915 20.773 37.4328 20.8047C37.2068 20.9223 36.981 21.0444 36.7595 21.1665ZM32.7382 23.9347C32.7382 23.9347 32.7652 23.9167 32.7743 23.9031C32.7743 23.9031 32.7517 23.9212 32.7382 23.9347ZM30.976 25.5134C30.9354 25.5495 30.8991 25.5903 30.8585 25.6264C31.1115 25.3822 31.3646 25.1379 31.622 24.9027C31.5137 25.0023 31.4007 25.0972 31.2967 25.2013C31.1928 25.3053 31.0845 25.4093 30.976 25.5134ZM30.2665 26.2281C30.4382 26.0516 30.6144 25.8707 30.7908 25.6988C30.6733 25.8119 30.5557 25.9295 30.4382 26.0471C30.3796 26.1059 30.3207 26.1693 30.262 26.2326L30.2665 26.2281ZM20.7056 48.9348C20.7146 48.6272 20.7326 48.3152 20.7462 48.0076C20.7416 48.1115 20.7326 48.2155 20.7281 48.3197C20.7191 48.4598 20.7101 48.6001 20.7056 48.7359V48.9348ZM45.6201 18.4028C45.7557 18.3938 45.8867 18.3802 46.0223 18.3757H45.9681C45.8551 18.3802 45.7376 18.3938 45.6201 18.4028ZM44.4408 15.8879C44.2285 15.8155 44.0115 15.7431 43.7947 15.6798C43.7586 15.6662 43.7178 15.6527 43.6817 15.6436C43.6637 15.6391 43.6501 15.6346 43.6321 15.63C43.492 15.5893 43.3474 15.5532 43.2073 15.517C43.1304 15.4989 43.0537 15.4763 42.9768 15.4582C42.7916 15.4129 42.6064 15.3722 42.4165 15.3315C42.3804 15.3225 42.3443 15.3134 42.3082 15.3089C42.0822 15.2637 41.8564 15.2229 41.6303 15.1868C41.5672 15.1777 41.5038 15.1687 41.4451 15.1596C41.278 15.137 41.1108 15.1099 40.9435 15.0918C40.9299 15.0918 40.9209 15.0918 40.9074 15.0873C40.8713 15.0873 40.8307 15.0827 40.7944 15.0782C40.5686 15.0556 40.3425 15.033 40.1122 15.0194C40.0308 15.0149 39.9451 15.0104 39.8636 15.0058C39.6469 14.9968 39.4253 14.9877 39.204 14.9832H39.0186C38.7387 14.9832 38.463 14.9877 38.1784 15.0013C38.1105 15.0013 38.0428 15.0104 37.9749 15.0149C37.7536 15.0285 37.5321 15.042 37.3063 15.0646C37.2612 15.0646 37.2113 15.0692 37.1662 15.0737C37.1346 15.0737 37.0983 15.0827 37.0667 15.0873C36.7144 15.1234 36.3573 15.1687 35.9959 15.2275C35.9373 15.2365 35.8739 15.2501 35.8152 15.2592C35.4401 15.3225 35.0607 15.3948 34.6765 15.4853H34.672C34.2653 15.5803 33.8631 15.6888 33.4611 15.8065C33.3256 15.8472 33.1945 15.8924 33.0589 15.9331C32.7923 16.0191 32.5257 16.105 32.2593 16.2C32.1009 16.2543 31.9473 16.3176 31.7937 16.3764C31.5543 16.4669 31.3148 16.5618 31.0754 16.6659C30.9126 16.7337 30.7545 16.8061 30.5963 16.8785C30.366 16.9825 30.1355 17.0911 29.9097 17.1996C29.7515 17.2765 29.5932 17.3579 29.4351 17.4393C29.2093 17.557 28.9833 17.6791 28.762 17.8057C28.6986 17.8419 28.6354 17.8781 28.5768 17.9098L33.8451 20.2935C36.4658 18.5611 39.2672 17.3172 42.1636 16.6478C43.1712 16.4126 44.1832 16.2633 45.1863 16.1728C45.0101 16.1005 44.8294 16.0326 44.6533 15.9648C44.5809 15.9376 44.5087 15.915 44.4363 15.8879H44.4408ZM46.7001 18.3531C46.7994 18.3531 46.9034 18.3485 47.0028 18.3485H46.9575C46.8718 18.3485 46.7859 18.3531 46.6956 18.3576L46.7001 18.3531ZM42.7057 18.8416C43.1033 18.7511 43.4965 18.6742 43.8895 18.6063C43.8669 18.6063 43.8398 18.6154 43.8173 18.6199C43.4512 18.6832 43.0808 18.7556 42.7057 18.8416ZM47.5404 18.3621C47.7076 18.3666 47.8749 18.3711 48.0421 18.3847C47.9787 18.3847 47.92 18.3757 47.8567 18.3757C47.7529 18.3711 47.6444 18.3666 47.5404 18.3666V18.3621ZM52.4338 19.2577C52.2937 19.2079 52.1493 19.1627 52.0047 19.1175C52.1764 19.1718 52.3526 19.226 52.5197 19.2894C52.4927 19.2803 52.4611 19.2713 52.4338 19.2577ZM48.4713 18.4164C48.6114 18.4299 48.7558 18.439 48.8959 18.4526C48.8598 18.4526 48.8237 18.448 48.7876 18.4435C48.6836 18.4345 48.5751 18.4254 48.4713 18.4164ZM24.4242 63.5313C24.0583 62.9659 23.7149 62.3779 23.394 61.7673C23.7104 62.3824 24.0583 62.9704 24.4242 63.5313ZM25.6714 32.244C25.5719 32.4069 25.4816 32.5742 25.3867 32.7416C25.5313 32.4883 25.6804 32.235 25.834 31.9862C25.8159 32.0178 25.7934 32.0494 25.7753 32.0812C25.739 32.1353 25.7029 32.1897 25.6714 32.2485V32.244ZM24.7451 33.8951C24.7451 33.8951 24.7269 33.9357 24.7133 33.9537C24.8579 33.6779 25.007 33.4065 25.1607 33.135C25.0885 33.2617 25.0161 33.3838 24.9439 33.5105C24.876 33.6371 24.8083 33.7638 24.7406 33.8951H24.7451ZM42.6696 18.8506H42.6741C42.2674 18.9456 41.8609 19.0542 41.4587 19.1718C41.8609 19.0542 42.2629 18.9456 42.6696 18.8506ZM24.1442 35.0891C24.2888 34.795 24.4379 34.5011 24.587 34.2115C24.483 34.4152 24.3745 34.6186 24.2751 34.8223C24.2299 34.9128 24.1893 35.0032 24.1442 35.0891ZM26.1999 31.4072C26.2587 31.3168 26.3129 31.2309 26.3718 31.1404C26.3174 31.2309 26.2587 31.3168 26.2044 31.4072H26.1999ZM42.6741 18.8506C42.6741 18.8506 42.6921 18.8506 42.7011 18.8461C42.6921 18.8461 42.6831 18.8461 42.6741 18.8506Z" fill="black"/>
<path d="M74.4406 58.1856C74.4406 44.0706 63.0026 32.625 48.8969 32.625C63.0026 32.625 74.4406 21.1795 74.4406 7.06445C74.4406 21.1795 85.8787 32.625 99.9844 32.625C85.8787 32.625 74.4406 44.0706 74.4406 58.1856Z" fill="white"/>
<path d="M91.3801 32.646C82.9467 32.646 81.4265 33.0909 78.1492 30.199C77.1094 29.2805 73.825 25.1974 74.5134 13.9312C75.166 25.3696 89.3434 32.6603 91.3801 32.646Z" fill="black"/>
<path d="M76.8875 36.2692C75.0158 38.3933 74.5425 39.7782 74.4421 42.7849C74.3417 39.7854 73.8684 38.3933 71.9967 36.2692C71.0788 35.2287 66.9984 31.9421 55.7397 32.631C67.1705 33.284 74.4565 47.4708 74.4421 49.5088C74.4421 49.5016 74.4421 49.4872 74.4421 49.4801V49.5088C74.4278 47.4708 81.7065 33.284 93.1446 32.631C81.8858 31.9421 77.8054 35.2287 76.8875 36.2692Z" fill="black"/>
</g>
<defs>
<clipPath id="clip0_15980_8891">
<rect width="100" height="100" fill="white"/>
</clipPath>
</defs>
</svg>
