<svg width="100" height="100" viewBox="0 0 100 100" fill="none" xmlns="http://www.w3.org/2000/svg">
<g clip-path="url(#clip0_15980_8903)">
<rect width="100" height="100" fill="#A19FFF"/>
<path d="M85.6413 63.2414L84.6109 50.566V50.5808C84.4256 48.4312 82.6318 46.7856 80.4748 46.7856H50.8322V38.2538H49.194V46.7856H20.5966C18.4396 46.7856 16.6458 48.4312 16.4604 50.5808L15.3634 63.2414L16.9941 63.3822L18.0912 50.7217C18.2024 49.4245 19.292 48.4238 20.5966 48.4238H49.194V60.432H50.8322V48.4238H80.4748C81.7794 48.4238 82.869 49.4245 82.9802 50.7217L84.0105 63.3748L85.6413 63.2414Z" fill="black"/>
<path d="M59.1056 34.0286H40.8709C39.5366 34.0286 38.4692 32.9168 38.5211 31.5825L38.8917 22.48C38.9436 21.2198 39.9814 20.2266 41.2415 20.2266H58.735C59.9951 20.2266 61.0329 21.2198 61.0847 22.48L61.4554 31.5825C61.5073 32.9168 60.4399 34.0286 59.1056 34.0286Z" fill="white"/>
<path d="M60.6398 71.8399H39.3289C37.9946 71.8399 36.9272 70.728 36.9791 69.3938L37.5054 56.4886C37.5573 55.2285 38.595 54.2352 39.8552 54.2352H60.1135C61.3736 54.2352 62.4114 55.2285 62.4633 56.4886L62.9896 69.3938C63.0414 70.728 61.974 71.8399 60.6398 71.8399Z" fill="white"/>
<path d="M97.6432 71.8399H76.3619C75.1315 71.8399 74.1085 70.8911 74.0196 69.668L73.0485 56.7629C72.9448 55.399 74.027 54.2352 75.3909 54.2352H95.6196C96.7759 54.2352 97.7618 55.0802 97.9397 56.2218L99.9559 69.1269C100.178 70.5501 99.0738 71.8399 97.6358 71.8399H97.6432Z" fill="white"/>
<path d="M23.6145 71.8399H2.33321C0.887769 71.8399 -0.209281 70.5501 0.0130941 69.1269L2.02929 56.2218C2.20719 55.0802 3.19306 54.2352 4.3494 54.2352H24.5781C25.9494 54.2352 27.0242 55.399 26.9205 56.7629L25.9494 69.668C25.8605 70.8911 24.8375 71.8399 23.6071 71.8399H23.6145Z" fill="white"/>
<path d="M50.0096 27.2314C51.6757 27.2314 53.0264 26.1363 53.0264 24.7853C53.0264 23.4344 51.6757 22.3392 50.0096 22.3392C48.3434 22.3392 46.9927 23.4344 46.9927 24.7853C46.9927 26.1363 48.3434 27.2314 50.0096 27.2314Z" fill="black"/>
<path d="M44.5607 32.4423C44.5607 30.0036 46.9994 28.0245 50.0089 28.0245C53.0183 28.0245 55.457 30.0036 55.457 32.4423" fill="black"/>
<path d="M49.9352 63.2115C52.1418 63.2115 53.9305 61.7645 53.9305 59.9796C53.9305 58.1947 52.1418 56.7478 49.9352 56.7478C47.7287 56.7478 45.9399 58.1947 45.9399 59.9796C45.9399 61.7645 47.7287 63.2115 49.9352 63.2115Z" fill="black"/>
<path d="M42.7302 70.1124C42.7302 66.8879 45.9546 64.2713 49.9351 64.2713C53.9156 64.2713 57.1401 66.8879 57.1401 70.1124" fill="black"/>
<path d="M89.7928 60.0097C89.9559 61.7887 88.2585 63.2341 86.0051 63.2341C83.7517 63.2341 81.7948 61.7887 81.6317 60.0097C81.4686 58.2307 83.1661 56.7852 85.4195 56.7852C87.6729 56.7852 89.6298 58.2307 89.7928 60.0097Z" fill="black"/>
<path d="M79.2597 70.1128C78.9706 66.8958 82.032 64.2866 86.1014 64.2866C90.1709 64.2866 93.6993 66.8958 93.9958 70.1128" fill="black"/>
<path d="M9.76552 59.9796C9.60245 61.766 11.3073 63.2115 13.5607 63.2115C15.8215 63.2115 17.7784 61.766 17.9415 59.9796C18.1046 58.1932 16.3997 56.7478 14.1463 56.7478C11.8855 56.7478 9.9286 58.1932 9.76552 59.9796Z" fill="black"/>
<path d="M20.3218 70.1124C20.6109 66.8879 17.5421 64.2713 13.4653 64.2713C9.3884 64.2713 5.84522 66.8879 5.55614 70.1124" fill="black"/>
<path d="M30.2852 64.9611C30.3148 64.457 30.2111 63.9752 30.0035 63.5749L27.6538 57.9859L26.9422 67.4517L29.6477 74.3453" fill="black"/>
<path d="M26.7722 69.7273C26.6461 71.3803 25.2674 72.6627 23.6144 72.6627H2.33316C2.22197 72.6627 2.1182 72.6627 2.00701 72.6478L7.56638 78.9336C7.91477 79.5933 8.54483 80.0455 9.27126 80.0455H27.4541C28.5067 80.0455 29.3814 79.0967 29.4555 77.8736L29.537 76.5765" fill="black"/>
<path d="M70.3194 74.3528L73.0324 67.437L72.3134 57.9045L69.808 63.8567L69.845 63.879C69.7264 64.2125 69.6671 64.5758 69.6894 64.9612" fill="black"/>
<path d="M73.1881 69.7271L70.4306 76.5466L70.5122 77.866C70.5937 79.0891 71.461 80.0379 72.5135 80.0379H90.6964C91.4228 80.0379 92.0455 79.5857 92.4013 78.926L97.9606 72.6402C97.8568 72.6476 97.7457 72.655 97.6345 72.655H76.3532C74.6928 72.655 73.3141 71.3801 73.1955 69.7197" fill="black"/>
<path d="M42.1739 72.6632L43.1671 80.046H43.9825L43.1671 72.6632H42.1739Z" fill="black"/>
<path d="M39.328 72.6627C38.7127 72.6627 38.142 72.4848 37.6602 72.1809L38.8758 77.592C38.861 78.0886 38.9722 78.5408 39.1797 78.9263C39.5355 79.5934 40.1656 80.0381 40.8846 80.0381H42.2707L41.1885 72.6553H39.3354L39.328 72.6627Z" fill="black"/>
<path d="M60.6384 72.6627H45.5244L46.2434 80.0456H59.0818C59.8082 80.0456 60.4309 79.6008 60.7867 78.9337C60.9868 78.5557 61.098 78.1035 61.0906 77.6291L62.3507 72.1587C61.8541 72.4774 61.2685 72.6627 60.6384 72.6627Z" fill="black"/>
<path d="M40.8692 34.8512C40.1946 34.8512 39.5646 34.6363 39.0457 34.2731L40.1872 39.788C40.1427 41.1222 41.0545 42.2341 42.196 42.2341H42.2627L41.1805 34.8512H40.8618H40.8692Z" fill="black"/>
<path d="M59.1044 34.8512H45.5321L46.2512 42.234H57.7776C58.9191 42.234 59.8309 41.1221 59.7864 39.7879L60.8315 34.3397C60.3349 34.6584 59.7419 34.8512 59.1044 34.8512Z" fill="black"/>
<path d="M42.1733 34.8509L43.1665 42.2337H43.9819L43.1665 34.8509H42.1733Z" fill="black"/>
</g>
<defs>
<clipPath id="clip0_15980_8903">
<rect width="100" height="100" fill="white"/>
</clipPath>
</defs>
</svg>
