<svg width="100" height="100" viewBox="0 0 100 100" fill="none" xmlns="http://www.w3.org/2000/svg">
<rect width="100" height="100" fill="#A19FFF"/>
<path d="M43.2845 5C27.5799 5 14.856 17.7322 14.856 33.4285C14.856 40.868 17.7129 47.6305 22.3863 52.7002C24.6487 55.3672 30.2964 60.6929 33.69 67.0012C33.69 67.0012 36.1341 70.5764 36.4808 74.2424H50.0882C50.435 70.5764 52.8791 67.0012 52.8791 67.0012C56.1653 60.7342 61.9204 55.3672 64.1828 52.7002C68.8562 47.6305 71.7131 40.868 71.7131 33.4285C71.7131 17.7239 58.9809 5 43.2845 5Z" fill="white"/>
<path d="M0 57.7866C0 57.7866 4.56606 47.8454 19.6019 57.7702L0 57.7866Z" fill="white"/>
<path d="M87.5156 70.8238C87.1935 70.5513 86.9045 70.2458 86.6073 69.9485C85.9054 69.2137 83.9155 67.4962 81.0008 67.8265C79.7871 67.9669 78.8458 68.5201 78.1935 69.0815C76.5503 66.2246 73.4623 64.2925 69.9283 64.2925C64.6604 64.2925 60.3916 68.5613 60.3916 73.8293V74.7458H100C93.0064 74.7458 89.6541 72.6651 87.5238 70.8238H87.5156Z" fill="white"/>
<path d="M83.802 40.6039C80.5983 40.6039 77.8075 42.3544 76.313 44.9388C75.7185 44.4351 74.868 43.9232 73.7698 43.7993C72.8698 43.7002 72.0772 43.8159 71.3918 44.0388C70.5909 46.1526 69.5505 48.1755 68.2872 50.0663H92.4387V49.2406C92.4387 44.4682 88.5662 40.6039 83.802 40.6039Z" fill="white"/>
<path d="M71.7131 33.4285C71.7131 17.7817 59.0715 5.09083 43.4412 5C44.5641 5.06606 51.3348 6.18903 52.6146 23.6607C53.9522 41.9249 43.2843 56.8452 43.2843 72.0874L46.9008 74.2424H50.0882C52.8873 63.1782 61.4415 56.1103 64.1828 52.7002C68.8562 47.6305 71.7131 40.868 71.7131 33.4285Z" fill="black"/>
<path d="M37.7029 67.0908C34.912 56.6293 20.6936 46.7293 19.2652 33.1632C17.9606 20.8026 23.2368 12.9998 26.8781 10.209C25.7056 11.0429 24.5909 11.9677 23.5588 12.9585C23.5588 12.9585 23.5588 12.9503 23.567 12.9503C23.5505 12.9668 23.534 12.9833 23.5175 12.9998C23.3441 13.1649 23.1872 13.3383 23.022 13.5034C22.8569 13.6768 22.6835 13.842 22.5184 14.0236C22.345 14.2053 22.1798 14.4035 22.0065 14.5934C21.8578 14.7585 21.7092 14.9319 21.5606 15.0971C21.3955 15.2952 21.2303 15.5017 21.0734 15.6998C20.9331 15.8732 20.7927 16.0466 20.6606 16.22C20.5037 16.4264 20.3551 16.6329 20.2065 16.8393C20.0743 17.0209 19.9422 17.2108 19.8101 17.4007C19.6698 17.6072 19.5377 17.8136 19.4056 18.02C19.2734 18.2264 19.1413 18.4246 19.0175 18.631C18.9597 18.7218 18.9018 18.8044 18.8523 18.8952C16.3174 23.1558 14.856 28.11 14.856 33.4192C14.856 40.8586 17.7129 47.621 22.3863 52.6908C24.6487 55.3577 30.0817 61.0303 33.69 66.9917C33.69 66.9917 36.1341 70.567 36.4808 74.2331L39.2717 74.0597L37.7029 67.0826V67.0908Z" fill="black"/>
<path d="M55.9728 10.7462C59.0114 14.0489 60.5884 18.5407 60.0848 23.1481C65.6747 28.3499 68.3582 36.2683 66.4013 44.1041C66.2279 44.7976 66.0215 45.4747 65.782 46.1353C66.9215 44.1371 67.8132 41.9573 68.3912 39.6124C71.2729 28.0692 65.8811 16.3856 55.9728 10.7379V10.7462Z" fill="white"/>
<path d="M43.2825 76.3975C47.04 76.3975 50.0862 75.4326 50.0862 74.2424C50.0862 73.0522 47.04 72.0874 43.2825 72.0874C39.5249 72.0874 36.4788 73.0522 36.4788 74.2424C36.4788 75.4326 39.5249 76.3975 43.2825 76.3975Z" fill="black"/>
<path d="M34.4985 82.3262C34.0609 83.8124 33.0453 87.6189 32.938 91.2767C32.9215 91.7473 33.227 92.1684 33.6729 92.317L39.6013 94.3648C40.0967 94.5382 40.6169 94.5877 41.1371 94.5134L54.0757 92.6391C54.5711 92.5648 54.9509 92.1767 55.0005 91.6813C55.1491 90.2033 55.2977 86.9088 54.4142 82.6564C54.2904 82.0702 53.9188 81.5666 53.4069 81.2528L50.4344 79.4693C49.9885 79.1968 49.4518 79.0978 48.9399 79.1886L35.349 81.5583C34.9362 81.6326 34.6059 81.9216 34.4903 82.3262H34.4985Z" fill="white"/>
<path d="M49.4182 89.7079C48.6668 89.3693 47.8411 89.2455 47.0236 89.3611L32.9373 91.2932C32.9373 91.7556 33.2346 92.1684 33.6722 92.3253L39.6007 94.373C40.0961 94.5464 40.6163 94.596 41.1364 94.5217L54.0751 92.6473C54.3888 92.5978 54.6447 92.4161 54.8099 92.1767L49.4182 89.7243V89.7079Z" fill="black"/>
</svg>
