<svg width="100" height="100" viewBox="0 0 100 100" fill="none" xmlns="http://www.w3.org/2000/svg">
<g clip-path="url(#clip0_15980_8945)">
<rect width="100" height="100" fill="#A19FFF"/>
<path d="M91.3091 31.5228C91.6546 38.1188 86.0794 38.7821 86.0794 38.7821C92.7473 40.5386 94.6057 46.0321 94.6057 46.0321C94.7084 39.6977 99.9849 38.7915 99.9849 38.7915C93.0275 37.2219 91.3091 31.5322 91.3091 31.5322V31.5228ZM7.50261 48.0128C7.99757 57.4957 -0.0151367 58.4486 -0.0151367 58.4486C9.57582 60.9805 12.2467 68.8751 12.2467 68.8751C12.3961 59.766 19.9793 58.458 19.9793 58.458C9.9774 56.197 7.50261 48.0128 7.50261 48.0128Z" fill="white"/>
<path d="M19.5309 19.6182C21.2493 16.694 23.6026 14.3956 26.6004 12.7139C29.5888 11.0322 32.9228 10.1914 36.5929 10.1914C40.2631 10.1914 43.5877 11.0322 46.5855 12.7139C49.5739 14.3956 51.9273 16.694 53.655 19.6182C55.3733 22.5332 56.2325 25.7191 56.2325 29.1572C56.2325 32.5953 55.3733 35.912 53.655 38.8737C51.9366 41.8353 49.5739 44.171 46.5855 45.8901C43.5877 47.6091 40.2631 48.4687 36.5929 48.4687C32.9228 48.4687 29.5982 47.6091 26.6004 45.8901C23.6026 44.171 21.2493 41.8353 19.5309 38.8737C17.8126 35.9213 16.9534 32.6794 16.9534 29.1572C16.9534 25.635 17.8126 22.5332 19.5309 19.6182ZM83.3804 11.8637H95.6142L32.101 90.4457H19.8671L83.3804 11.8637ZM29.9624 35.8933C31.7648 37.6871 33.9687 38.584 36.5836 38.584C39.1985 38.584 41.5238 37.7058 43.3169 35.9494C45.1099 34.1929 46.0065 31.932 46.0065 29.1572C46.0065 26.3824 45.1099 24.2616 43.3169 22.5332C41.5145 20.8141 39.2732 19.9546 36.5836 19.9546C33.894 19.9546 31.6621 20.8141 29.9064 22.5332C28.1507 24.2522 27.2728 26.4665 27.2728 29.1572C27.2728 31.8479 28.1693 34.0995 29.9624 35.8933ZM61.4435 63.3984C63.1992 60.4835 65.5806 58.1571 68.569 56.438C71.5574 54.719 74.8914 53.8594 78.5616 53.8594C82.2317 53.8594 85.4443 54.719 88.4327 56.438C91.4211 58.1571 93.7745 60.4835 95.5022 63.3984C97.2299 66.3133 98.0797 69.4992 98.0797 72.9373C98.0797 76.3755 97.2205 79.6735 95.5022 82.5978C93.7838 85.5127 91.4211 87.8391 88.4327 89.5581C85.4349 91.2772 82.1477 92.1367 78.5616 92.1367C74.9755 92.1367 71.5668 91.2772 68.569 89.5581C65.5713 87.8391 63.1992 85.522 61.4435 82.5978C59.6878 79.6735 58.81 76.4596 58.81 72.9373C58.81 69.4151 59.6878 66.3133 61.4435 63.3984ZM71.7723 79.6735C73.6027 81.4766 75.8626 82.3642 78.5616 82.3642C81.2605 82.3642 83.3897 81.486 85.1828 79.7295C86.9758 77.9731 87.8724 75.7122 87.8724 72.9373C87.8724 70.1626 86.9758 68.0417 85.1828 66.3133C83.3804 64.5943 81.1764 63.7347 78.5616 63.7347C75.9467 63.7347 73.6027 64.5943 71.7723 66.3133C69.9325 68.0324 69.0266 70.2466 69.0266 72.9373C69.0266 75.6281 69.9418 77.8797 71.7723 79.6735Z" fill="white"/>
<path d="M39.2452 64.2506L33.8847 62.9707L31.8115 65.5306L37.1626 66.8292L39.2452 64.2506Z" fill="black"/>
<path d="M32.6801 36.211C33.8288 36.8556 35.1269 37.1826 36.5931 37.1826C38.9278 37.1826 40.8143 36.4539 42.3458 34.9404C43.868 33.4455 44.6152 31.5489 44.6152 29.1479C44.6152 26.7468 43.8774 24.9997 42.3551 23.5422C41.0477 22.2903 39.4788 21.5896 37.6017 21.4027C38.8344 22.9723 39.4695 24.8689 39.4695 27.1018C39.4695 29.8766 38.5729 32.1375 36.7799 33.894C35.6032 35.0431 34.2397 35.8092 32.6801 36.211Z" fill="black"/>
<path d="M81.3258 70.8907C81.3258 73.6655 80.4293 75.9265 78.6363 77.6829C77.4503 78.8414 76.0774 79.6168 74.5365 80.0092C75.7132 80.6539 77.0393 80.9715 78.5522 80.9715C80.8122 80.9715 82.6613 80.2428 84.1929 78.7293C85.7151 77.2344 86.4622 75.3379 86.4622 72.9368C86.4622 70.5357 85.7244 68.7886 84.2022 67.3311C82.8668 66.0512 81.3072 65.3505 79.4394 65.1823C80.6815 66.7519 81.3165 68.6484 81.3165 70.8907H81.3258Z" fill="black"/>
<path d="M19.1669 17.6005C19.802 16.6849 20.5117 15.8347 21.2868 15.0406L15.9357 13.7606C15.1512 14.5361 14.4508 15.3863 13.8064 16.3019L19.1669 17.6098V17.6005Z" fill="black"/>
<path d="M23.4159 13.1444C24.2004 12.5465 25.0316 11.9859 25.9094 11.4908C28.7858 9.86513 31.9983 8.97757 35.463 8.81874C33.7447 8.37029 31.9423 8.13672 30.0465 8.13672C26.3763 8.13672 23.0517 8.97757 20.054 10.6593C19.3816 11.033 18.7559 11.4441 18.1488 11.8832L23.4159 13.1444Z" fill="black"/>
<path d="M33.2684 71.6488L27.9173 70.3501L13.33 88.4004L18.429 90.0073L33.2684 71.6488Z" fill="black"/>
<path d="M60.239 83.3183C58.3619 80.1885 57.3999 76.6943 57.3999 72.9385C57.3999 69.1827 58.3525 65.8007 60.239 62.6708C62.1161 59.5597 64.6842 57.0558 67.8688 55.2153C70.7171 53.571 73.8923 52.6647 77.3103 52.4872C75.62 52.0294 73.8549 51.7959 72.0152 51.7959C69.0454 51.7959 66.2905 52.3751 63.7597 53.5056L52.6091 67.3048C52.385 68.4633 52.2729 69.6499 52.2729 70.8738C52.2729 74.396 53.1508 77.6099 54.9065 80.5342C56.6715 83.4491 59.0436 85.7755 62.032 87.4945C63.0499 88.0831 64.1145 88.5596 65.2165 88.952C63.2367 87.3824 61.5651 85.5045 60.2483 83.309L60.239 83.3183Z" fill="black"/>
<path d="M20.054 43.837C21.0812 44.4256 22.1552 44.9114 23.2665 45.3038C21.2774 43.7249 19.615 41.8096 18.3263 39.586C16.4865 36.4282 15.5527 32.9247 15.5527 29.1689C15.5527 26.936 15.8982 24.7871 16.5799 22.7504L11.2662 21.4611C10.6965 23.2642 10.407 25.1515 10.407 27.1228C10.407 30.645 11.2661 33.8776 12.9845 36.8393C14.7028 39.7916 17.0562 42.1366 20.054 43.8557V43.837Z" fill="black"/>
<path d="M54.8596 39.5742C53.0199 42.7321 50.4704 45.264 47.2765 47.0951C46.9496 47.282 46.6134 47.4595 46.2772 47.6277L35.5096 60.9598L40.8701 62.2398L82.2877 10.9854L82.7079 10.4622H91.1315L89.0583 9.8082H76.8245L56.9608 34.3797C56.4939 36.1921 55.7935 37.9299 54.8409 39.5649L54.8596 39.5742Z" fill="black"/>
</g>
<defs>
<clipPath id="clip0_15980_8945">
<rect width="100" height="100" fill="white"/>
</clipPath>
</defs>
</svg>
