<svg width="100" height="100" viewBox="0 0 100 100" fill="none" xmlns="http://www.w3.org/2000/svg">
<g clip-path="url(#clip0_15980_8931)">
<rect width="100" height="100" fill="#A19FFF"/>
<path d="M93.5438 83.4506L77.5229 47.0973C77.1582 46.2667 76.2646 45.6917 75.4075 45.6917C75.289 45.6917 75.1795 45.7008 75.061 45.7282L5.65264 60.3955C4.69522 60.5872 4.26666 61.509 4.6861 62.4582L20.8802 99.0944C21.2449 99.925 22.1476 100.5 23.0047 100.5C23.1233 100.5 23.2509 100.491 23.3695 100.463L92.6137 85.495C93.5529 85.3034 93.9723 84.3815 93.562 83.4414L93.5438 83.4506Z" fill="black"/>
<path d="M93.5438 82.2918L77.5229 45.9386C77.1582 45.108 76.2646 44.533 75.4075 44.533C75.289 44.533 75.1795 44.5421 75.061 44.5695L5.65264 59.2459C4.69522 59.4376 4.26666 60.3594 4.6861 61.3086L20.8802 97.9448C21.2449 98.7754 22.1476 99.3504 23.0047 99.3504C23.1233 99.3504 23.2509 99.3413 23.3695 99.3139L92.6137 84.3455C93.5529 84.1538 93.9723 83.2319 93.562 82.2918H93.5438Z" fill="#FFB065"/>
<path d="M18.1277 91.728L90.7822 76.0294L87.3902 68.317L14.7175 84.0156L18.1277 91.728Z" fill="black"/>
<path d="M87.818 19.9718C87.818 19.9718 90.2252 27.9672 100 30.1759C100 30.1759 92.5959 31.4537 92.4501 40.3526C92.4501 40.3526 89.8422 32.6402 80.4778 30.1668C80.4778 30.1668 88.3012 29.2358 87.818 19.9718Z" fill="white"/>
<path d="M5.3342 34.1117C5.3342 34.1117 7.08491 39.9257 14.1972 41.5412C14.1972 41.5412 8.80826 42.4721 8.70796 48.9433C8.70796 48.9433 6.81136 43.3301 0 41.532C0 41.532 5.69893 40.8566 5.34331 34.1117H5.3342Z" fill="white"/>
<path d="M43.9961 73.7219C43.9961 73.7219 45.7468 79.5359 52.859 81.1514C52.859 81.1514 47.4701 82.0824 47.3698 88.5535C47.3698 88.5535 45.4732 82.9403 38.6619 81.1423C38.6619 81.1423 44.3608 80.4669 44.0052 73.7219H43.9961Z" fill="white"/>
<path d="M78.5533 39.9696C77.2767 37.7973 75.5169 36.0723 73.3012 34.7945C71.0763 33.5167 68.6326 32.8778 65.961 32.8778C63.2893 32.8778 60.7544 33.5167 58.5387 34.7945C56.3138 36.0723 54.5449 37.8065 53.241 39.9696C51.937 42.1418 51.2805 44.5058 51.2805 47.0705C51.2805 47.9193 51.3535 48.7499 51.4994 49.5531L37.5666 52.5011L79.9484 6.30882L78.6354 1.64487H69.5444L26.5882 54.8194L5.65264 59.2459C4.69522 59.4376 4.26666 60.3594 4.6861 61.3086L7.36688 67.3692L30.5456 67.4878L31.8221 63.7366L43.0102 63.335C55.6482 69.8609 66.6995 68.793 66.6995 68.793C61.493 65.6807 58.3198 61.6282 56.3776 57.8861C57.0524 58.452 57.7545 58.9814 58.5478 59.4286C60.7727 60.7064 63.2528 61.3453 65.9701 61.3453C68.6873 61.3453 71.0854 60.7064 73.3103 59.4286C75.5352 58.1508 77.2859 56.4258 78.5624 54.2535C79.839 52.0813 80.4773 49.69 80.4773 47.0705C80.4773 44.451 79.839 42.1418 78.5624 39.9696H78.5533ZM70.8757 52.1178C69.5353 53.4321 67.9032 54.0801 65.9518 54.0801C64.0005 54.0801 62.2681 53.4138 60.9003 52.0721C59.5326 50.7396 58.8578 49.0693 58.8578 47.0614C58.8578 45.0534 59.5326 43.4196 60.9003 42.1327C62.2589 40.8549 63.9458 40.216 65.9518 40.216C67.9579 40.216 69.5353 40.8549 70.8757 42.1327C72.207 43.4105 72.8726 45.0534 72.8726 47.0614C72.8726 49.0693 72.207 50.8035 70.8757 52.1178ZM27.3268 26.9452C29.5517 28.223 32.0318 28.8619 34.7491 28.8619C37.4663 28.8619 39.9465 28.223 42.1714 26.9452C44.3962 25.6674 46.1469 23.9241 47.4235 21.7245C48.7001 19.5249 49.3383 17.1153 49.3383 14.4958C49.3383 11.8764 48.7001 9.5672 47.4235 7.39495C46.1469 5.2227 44.3871 3.5068 42.1714 2.25639C40.4024 1.26153 38.4693 0.66827 36.3904 0.467473L35.1685 7.65963C36.9831 7.74178 38.5149 8.37155 39.7641 9.5672C41.0954 10.845 41.761 12.4879 41.761 14.4958C41.761 16.5038 41.0954 18.238 39.7641 19.5523C38.4237 20.8666 36.7551 21.5146 34.7582 21.5146C32.7613 21.5146 31.1747 20.8483 29.8343 19.5066C28.5031 18.1741 27.8374 16.5038 27.8374 14.4958C27.8374 12.4879 28.4848 10.8541 29.7979 9.5672C30.5364 8.84616 31.3844 8.33504 32.3419 8.01559L33.6367 0.412711C32.7704 0.467473 31.9224 0.595253 31.1109 0.786922L29.1869 9.96879L24.7281 9.0287L25.9591 3.14172C24.3816 4.27348 23.0777 5.68818 22.0838 7.38582C20.8072 9.55807 20.1689 11.922 20.1689 14.4867C20.1689 17.0514 20.8072 19.5157 22.0838 21.7154C23.3603 23.915 25.1111 25.6492 27.3359 26.9361L27.3268 26.9452Z" fill="black"/>
<path d="M20.7537 12.3323C22.0941 10.0596 23.9269 8.27072 26.252 6.95642C28.5772 5.64212 31.1668 4.99409 34.0208 4.99409C36.8748 4.99409 39.4644 5.65124 41.7896 6.95642C44.1147 8.27072 45.9475 10.0596 47.2879 12.3323C48.6283 14.6049 49.2939 17.0784 49.2939 19.7618C49.2939 22.4451 48.6283 25.019 47.2879 27.319C45.9475 29.619 44.1147 31.4445 41.7896 32.777C39.4553 34.1187 36.8748 34.785 34.0208 34.785C31.1668 34.785 28.5772 34.1187 26.252 32.777C23.9178 31.4353 22.085 29.619 20.7537 27.319C19.4133 25.019 18.7477 22.4999 18.7477 19.7618C18.7477 17.0236 19.4133 14.6049 20.7537 12.3323ZM70.4392 6.30839H79.9587L30.5467 67.4874H21.0273L70.4392 6.30839ZM28.8781 25.0098C30.2732 26.4063 31.9966 27.1091 34.0299 27.1091C36.0633 27.1091 37.8687 26.4245 39.2729 25.0555C40.668 23.6864 41.361 21.9249 41.361 19.7709C41.361 17.6169 40.668 15.9557 39.2729 14.6141C37.8778 13.2724 36.1271 12.6061 34.0299 12.6061C31.9327 12.6061 30.2003 13.2724 28.8325 14.6141C27.4648 15.9557 26.7809 17.6716 26.7809 19.7709C26.7809 21.8701 27.4739 23.6134 28.869 25.0098H28.8781ZM53.3698 46.422C54.7376 44.1494 56.5886 42.3422 58.9137 41.0005C61.2389 39.6588 63.8285 38.9926 66.6825 38.9926C69.5365 38.9926 72.0349 39.6588 74.3692 41.0005C76.6944 42.3422 78.5271 44.1494 79.8675 46.422C81.2079 48.6947 81.8736 51.1681 81.8736 53.8515C81.8736 56.5349 81.2079 59.0905 79.8675 61.3722C78.5271 63.6449 76.6944 65.452 74.3692 66.7846C72.0349 68.1263 69.4818 68.7926 66.6825 68.7926C63.8832 68.7926 61.2389 68.1263 58.9137 66.7846C56.5794 65.4429 54.7376 63.6357 53.3698 61.3722C52.0021 59.0996 51.3182 56.5988 51.3182 53.8515C51.3182 51.1042 52.0021 48.6947 53.3698 46.422ZM61.403 59.0905C62.8255 60.4869 64.5853 61.1897 66.6825 61.1897C68.7797 61.1897 70.4392 60.5052 71.8343 59.1361C73.2294 57.767 73.9224 56.0055 73.9224 53.8515C73.9224 51.6975 73.2294 50.0364 71.8343 48.6947C70.4392 47.353 68.7159 46.6867 66.6825 46.6867C64.6491 46.6867 62.8255 47.353 61.403 48.6947C59.9714 50.0364 59.2693 51.7523 59.2693 53.8515C59.2693 55.9507 59.9806 57.694 61.403 59.0905Z" fill="white"/>
<path d="M93.5438 82.5378L77.5229 46.1846C77.1582 45.354 76.2646 44.779 75.4075 44.779C75.289 44.779 75.1795 44.7881 75.061 44.8155L5.65264 59.4828C4.69522 59.6744 4.26666 60.5963 4.6861 61.5455L20.8802 98.1817C21.2449 99.0123 22.1476 99.5873 23.0047 99.5873C23.1233 99.5873 23.2509 99.5782 23.3695 99.5508L92.6137 84.5823C93.5529 84.3907 93.9723 83.4688 93.562 82.5287L93.5438 82.5378Z" fill="black"/>
<path d="M93.5438 81.3791L77.5229 45.0259C77.1582 44.1953 76.2646 43.6203 75.4075 43.6203C75.289 43.6203 75.1795 43.6294 75.061 43.6568L5.65264 58.3332C4.69522 58.5249 4.26666 59.4467 4.6861 60.3959L20.8802 97.0321C21.2449 97.8627 22.1476 98.4377 23.0047 98.4377C23.1233 98.4377 23.2509 98.4286 23.3695 98.4012L92.6137 83.4327C93.5529 83.2411 93.9723 82.3192 93.562 81.3791H93.5438Z" fill="#A19FFF"/>
<path d="M18.1277 90.8153L90.7822 75.1167L87.3902 67.4043L14.7175 83.1029L18.1277 90.8153Z" fill="black"/>
<path d="M87.818 19.0591C87.818 19.0591 90.2252 27.0545 100 29.2632C100 29.2632 92.5959 30.541 92.4501 39.4399C92.4501 39.4399 89.8422 31.7275 80.4778 29.2541C80.4778 29.2541 88.3012 28.3231 87.818 19.0591Z" fill="white"/>
<path d="M5.3342 33.199C5.3342 33.199 7.08491 39.013 14.1972 40.6285C14.1972 40.6285 8.80826 41.5594 8.70796 48.0305C8.70796 48.0305 6.81136 42.4174 0 40.6193C0 40.6193 5.69893 39.9439 5.34331 33.199H5.3342Z" fill="white"/>
<path d="M43.9961 72.8092C43.9961 72.8092 45.7468 78.6232 52.859 80.2387C52.859 80.2387 47.4701 81.1696 47.3698 87.6408C47.3698 87.6408 45.4732 82.0276 38.6619 80.2296C38.6619 80.2296 44.3608 79.5541 44.0052 72.8092H43.9961Z" fill="white"/>
<path d="M78.5533 39.0569C77.2767 36.8846 75.5169 35.1596 73.3012 33.8818C71.0763 32.604 68.6326 31.9651 65.961 31.9651C63.2893 31.9651 60.7544 32.604 58.5387 33.8818C56.3138 35.1596 54.5449 36.8938 53.241 39.0569C51.937 41.2291 51.2805 43.5931 51.2805 46.1578C51.2805 47.0066 51.3535 47.8372 51.4994 48.6403L37.5666 51.5884L79.9484 5.39611L78.6354 0.732159H69.5444L26.5882 53.9067L5.65264 58.3332C4.69522 58.5249 4.26666 59.4467 4.6861 60.3959L7.36688 66.4565L30.5456 66.5751L31.8221 62.8239L43.0102 62.4223C55.6482 68.9482 66.6995 67.8803 66.6995 67.8803C61.493 64.768 58.3198 60.7155 56.3776 56.9734C57.0524 57.5393 57.7545 58.0686 58.5478 58.5159C60.7727 59.7937 63.2528 60.4326 65.9701 60.4326C68.6873 60.4326 71.0854 59.7937 73.3103 58.5159C75.5352 57.2381 77.2859 55.5131 78.5624 53.3408C79.839 51.1686 80.4773 48.7773 80.4773 46.1578C80.4773 43.5383 79.839 41.2291 78.5624 39.0569H78.5533ZM70.8757 51.2051C69.5353 52.5194 67.9032 53.1674 65.9518 53.1674C64.0005 53.1674 62.2681 52.5011 60.9003 51.1594C59.5326 49.8269 58.8578 48.1566 58.8578 46.1486C58.8578 44.1407 59.5326 42.5069 60.9003 41.22C62.2589 39.9422 63.9458 39.3033 65.9518 39.3033C67.9579 39.3033 69.5353 39.9422 70.8757 41.22C72.207 42.4978 72.8726 44.1407 72.8726 46.1486C72.8726 48.1566 72.207 49.8908 70.8757 51.2051ZM27.3268 26.0325C29.5517 27.3103 32.0318 27.9492 34.7491 27.9492C37.4663 27.9492 39.9465 27.3103 42.1714 26.0325C44.3962 24.7547 46.1469 23.0114 47.4235 20.8118C48.7001 18.6122 49.3383 16.2026 49.3383 13.5831C49.3383 10.9636 48.7001 8.65449 47.4235 6.48224C46.1469 4.30999 44.3871 2.59409 42.1714 1.34368C40.4024 0.348821 38.4693 -0.244441 36.3904 -0.445237L35.1685 6.74692C36.9831 6.82907 38.5149 7.45884 39.7641 8.65449C41.0954 9.93228 41.761 11.5752 41.761 13.5831C41.761 15.5911 41.0954 17.3252 39.7641 18.6395C38.4237 19.9538 36.7551 20.6019 34.7582 20.6019C32.7613 20.6019 31.1747 19.9356 29.8343 18.5939C28.5031 17.2614 27.8374 15.5911 27.8374 13.5831C27.8374 11.5752 28.4848 9.94141 29.7979 8.65449C30.5364 7.93345 31.3844 7.42233 32.3419 7.10288L33.6367 -0.5C32.7704 -0.445237 31.9224 -0.317458 31.1109 -0.125789L29.1869 9.05608L24.7281 8.11599L25.9591 2.22901C24.3816 3.36077 23.0777 4.77547 22.0838 6.47311C20.8072 8.64536 20.1689 11.0093 20.1689 13.574C20.1689 16.1387 20.8072 18.603 22.0838 20.8027C23.3603 23.0023 25.1111 24.7365 27.3359 26.0234L27.3268 26.0325Z" fill="black"/>
<path d="M20.7537 11.4196C22.0941 9.14692 23.9269 7.35801 26.252 6.04371C28.5772 4.7294 31.1668 4.08138 34.0208 4.08138C36.8748 4.08138 39.4644 4.73853 41.7896 6.04371C44.1147 7.35801 45.9475 9.14692 47.2879 11.4196C48.6283 13.6922 49.2939 16.1657 49.2939 18.849C49.2939 21.5324 48.6283 24.1063 47.2879 26.4063C45.9475 28.7063 44.1147 30.5317 41.7896 31.8643C39.4553 33.206 36.8748 33.8723 34.0208 33.8723C31.1668 33.8723 28.5772 33.206 26.252 31.8643C23.9178 30.5226 22.085 28.7063 20.7537 26.4063C19.4133 24.1063 18.7477 21.5872 18.7477 18.849C18.7477 16.1109 19.4133 13.6922 20.7537 11.4196ZM70.4392 5.39568H79.9587L30.5467 66.5747H21.0273L70.4392 5.39568ZM28.8781 24.0971C30.2732 25.4936 31.9966 26.1964 34.0299 26.1964C36.0633 26.1964 37.8687 25.5118 39.2729 24.1428C40.668 22.7737 41.361 21.0122 41.361 18.8582C41.361 16.7042 40.668 15.043 39.2729 13.7014C37.8778 12.3597 36.1271 11.6934 34.0299 11.6934C31.9327 11.6934 30.2003 12.3597 28.8325 13.7014C27.4648 15.043 26.7809 16.7589 26.7809 18.8582C26.7809 20.9574 27.4739 22.7007 28.869 24.0971H28.8781ZM53.3698 45.5093C54.7376 43.2367 56.5886 41.4295 58.9137 40.0878C61.2389 38.7461 63.8285 38.0799 66.6825 38.0799C69.5365 38.0799 72.0349 38.7461 74.3692 40.0878C76.6944 41.4295 78.5271 43.2367 79.8675 45.5093C81.2079 47.782 81.8736 50.2554 81.8736 52.9388C81.8736 55.6222 81.2079 58.1777 79.8675 60.4595C78.5271 62.7322 76.6944 64.5393 74.3692 65.8719C72.0349 67.2136 69.4818 67.8799 66.6825 67.8799C63.8832 67.8799 61.2389 67.2136 58.9137 65.8719C56.5794 64.5302 54.7376 62.723 53.3698 60.4595C52.0021 58.1869 51.3182 55.686 51.3182 52.9388C51.3182 50.1915 52.0021 47.782 53.3698 45.5093ZM61.403 58.1777C62.8255 59.5742 64.5853 60.277 66.6825 60.277C68.7797 60.277 70.4392 59.5924 71.8343 58.2234C73.2294 56.8543 73.9224 55.0928 73.9224 52.9388C73.9224 50.7848 73.2294 49.1237 71.8343 47.782C70.4392 46.4403 68.7159 45.774 66.6825 45.774C64.6491 45.774 62.8255 46.4403 61.403 47.782C59.9714 49.1237 59.2693 50.8396 59.2693 52.9388C59.2693 55.038 59.9806 56.7813 61.403 58.1777Z" fill="white"/>
</g>
<defs>
<clipPath id="clip0_15980_8931">
<rect width="100" height="100" fill="white"/>
</clipPath>
</defs>
</svg>
