<svg width="100" height="100" viewBox="0 0 100 100" fill="none" xmlns="http://www.w3.org/2000/svg">
<rect width="100" height="100" fill="#A19FFF"/>
<path d="M30.8425 78.8588C32.6646 74.4909 33.5654 69.6821 33.5654 64.4222C33.5654 61.9204 33.1252 58.8034 32.2347 55.0814H23.8817V49.3806H30.6583C29.6039 45.9867 28.8157 43.0132 28.2936 40.4704C27.7716 37.9173 27.5054 35.313 27.5054 32.6471C27.5054 27.6333 28.7748 23.1731 31.3237 19.246C33.8623 15.3293 37.4348 12.2738 42.0412 10.0898C46.6476 7.90587 51.9296 6.81901 57.9076 6.81901C62.2684 6.81901 66.363 7.40345 70.2016 8.57233C74.0403 9.75146 77.2852 11.3817 79.9569 13.4837V31.5603C77.9403 28.8124 75.1867 26.5874 71.7166 24.8854C68.2464 23.1833 64.6944 22.3425 61.0605 22.3425C56.536 22.3425 52.943 23.5114 50.2815 25.8594C47.62 28.2074 46.2893 31.3142 46.2893 35.2002C46.2893 37.6302 46.5759 39.8142 47.1389 41.7521C47.7019 43.69 48.5925 46.243 49.8004 49.3908H73.0473V55.0917H51.4894C51.8988 56.9475 52.0934 58.8136 52.0934 60.6695C52.0934 63.9915 51.6532 66.9342 50.7626 69.5283C49.8721 72.1224 48.4594 74.5832 46.5247 76.9312C48.05 76.5314 49.7082 76.3263 51.4894 76.3263C53.2705 76.3263 55.0005 76.4903 56.4541 76.8082C57.9077 77.1363 59.6478 77.6182 61.6644 78.2642C63.7629 78.9101 65.5031 79.4023 66.8748 79.7201C68.2465 80.038 69.8229 80.202 71.604 80.202C74.6647 80.202 77.1521 79.5561 79.0561 78.2642C80.9498 76.9723 82.5468 75.0754 83.8366 72.5633C83.8366 80.4891 82.3625 86.272 79.4144 89.9119C76.4663 93.5519 71.8087 95.3667 65.4314 95.3667C62.8518 95.3667 60.5486 95.2232 58.5321 94.9463C56.5155 94.6592 53.8028 94.1978 50.4146 93.5519C47.5893 92.9879 45.2656 92.5676 43.4436 92.2805C41.6317 92.0036 39.6766 91.8601 37.5679 91.8601C34.1796 91.8601 31.211 92.1472 28.6724 92.7111C26.1235 93.275 23.4416 94.2081 20.6163 95.5C25.6219 88.7841 29.0307 83.2473 30.8528 78.8794L30.8425 78.8588Z" fill="white"/>
<path d="M28.1811 21.931L22.0699 20.4647C21.5786 21.6234 21.1794 22.823 20.8723 24.0637L26.922 25.5401C27.2496 24.2995 27.6693 23.0998 28.1811 21.931Z" fill="black"/>
<path d="M68.2158 47.8711L65.6567 47.0713H50.5375C50.6398 47.3379 50.732 47.5942 50.8344 47.8711H68.2158Z" fill="black"/>
<path d="M22.3668 49.3871V47.8696H28.6213C27.8433 45.2345 27.2394 42.8558 26.8197 40.7743C26.2771 38.1495 26.0008 35.4118 26.0008 32.6434C26.0008 32.3051 26.0212 31.977 26.0314 31.6489L20.1251 30.2134C20.1251 30.2134 20.1251 30.2852 20.1251 30.3262C20.1251 32.9921 20.3809 35.6067 20.9132 38.1495C21.4353 40.6923 22.2235 43.6658 23.2778 47.0596H16.5013V52.7605L22.377 54.6061V49.3769L22.3668 49.3871Z" fill="black"/>
<path d="M71.5938 78.6821C74.3371 78.6821 76.5584 78.1182 78.186 77.0006C79.8034 75.8932 81.2058 74.2322 82.342 72.0893L76.4254 70.2334C75.1356 72.7455 73.5387 74.6423 71.6449 75.9342C70.048 77.0211 68.0213 77.6466 65.5952 77.8209C66.1787 77.9747 66.7315 78.1182 67.2126 78.231C68.4717 78.5283 69.9457 78.6719 71.5938 78.6719V78.6821Z" fill="black"/>
<path d="M19.3981 94.5758C24.3013 87.9931 27.6793 82.5178 29.4502 78.2832C31.1802 74.1306 32.0605 69.4756 32.0605 64.431C32.0605 62.2983 31.7125 59.6734 31.0369 56.6077H25.6321C25.9904 58.6789 26.1848 60.5347 26.1848 62.1137C26.1848 67.3737 25.284 72.1825 23.4619 76.5504C21.6398 80.9183 18.2311 86.4551 13.2255 93.171L19.091 95.0064L19.4083 94.5758H19.3981Z" fill="black"/>
<path d="M77.2747 30.7174C75.5959 28.9539 73.5179 27.4466 71.0509 26.247C70.232 25.8471 69.4028 25.4985 68.5737 25.1909C70.1194 26.3803 71.4501 27.7235 72.5557 29.2307L77.2644 30.7072L77.2747 30.7174Z" fill="black"/>
<path d="M29.3683 19.5826C29.5935 19.193 29.8187 18.8034 30.0644 18.424C32.7464 14.2817 36.5646 11.0211 41.3961 8.72437C46.1766 6.45838 51.735 5.29976 57.9075 5.29976C58.3067 5.29976 58.6958 5.33052 59.0847 5.34077C56.3516 4.79735 53.4957 4.5 50.5168 4.5C44.5388 4.5 39.2568 5.58685 34.6504 7.77081C30.044 9.95477 26.4817 13.0103 23.9328 16.927C23.6769 17.3167 23.4517 17.7165 23.2265 18.1164L29.3683 19.5826Z" fill="black"/>
<path d="M49.9638 74.6952C49.9331 74.7465 49.9024 74.7977 49.8717 74.849C50.0764 74.8388 50.2914 74.8387 50.5064 74.8285C50.3221 74.7772 50.1481 74.7362 49.974 74.6952H49.9638Z" fill="black"/>
<path d="M86.3241 48.3009C86.3241 48.3009 89.0265 57.2828 100 59.7641C100 59.7641 91.688 61.1996 91.5243 71.1966C91.5243 71.1966 88.5966 62.5325 78.0838 59.7539C78.0838 59.7539 86.8667 58.708 86.3241 48.3009Z" fill="white"/>
<path d="M5.73244 14.1388C5.73244 14.1388 7.61592 20.383 15.2421 22.1056C15.2421 22.1056 9.45847 23.1002 9.34587 30.0519C9.34587 30.0519 7.30882 24.0332 0 22.0953C0 22.0953 6.11119 21.3674 5.73244 14.1285V14.1388Z" fill="white"/>
</svg>
