<svg width="100" height="100" viewBox="0 0 100 100" fill="none" xmlns="http://www.w3.org/2000/svg">
<g clip-path="url(#clip0_15980_9012)">
<rect width="100" height="100" fill="#A19FFF"/>
<path d="M93.5538 82.9579L77.5329 46.6396C77.1682 45.8099 76.2746 45.2354 75.4175 45.2354C75.299 45.2354 75.1896 45.2445 75.071 45.2719L5.65353 59.9341C4.69611 60.1256 4.26755 61.0466 4.68699 61.9949L20.881 98.5958C21.2458 99.4255 22.1485 100 23.0056 100C23.1242 100 23.2518 99.9909 23.3703 99.9635L92.6146 85.0095C93.5538 84.818 93.9732 83.8971 93.5629 82.9579H93.5538Z" fill="black"/>
<path d="M93.5538 81.8003L77.5329 45.482C77.1682 44.6523 76.2746 44.0778 75.4175 44.0778C75.299 44.0778 75.1896 44.0869 75.071 44.1143L5.65353 58.7765C4.69611 58.968 4.26755 59.889 4.68699 60.8373L20.881 97.4382C21.2458 98.268 22.1485 98.8424 23.0056 98.8424C23.1242 98.8424 23.2518 98.8333 23.3703 98.8059L92.6146 83.8519C93.5538 83.6604 93.9732 82.7395 93.5629 81.8003H93.5538Z" fill="#A19FFF"/>
<path d="M18.1271 91.2273L90.7907 75.5438L87.3895 67.8388L14.7259 83.5223L18.1271 91.2273Z" fill="black"/>
<path d="M87.818 19.5403C87.818 19.5403 90.2252 27.5279 100 29.7345C100 29.7345 92.596 31.0111 92.4501 39.9015C92.4501 39.9015 89.8422 32.1965 80.4778 29.7254C80.4778 29.7254 88.3012 28.7954 87.818 19.5403Z" fill="white"/>
<path d="M5.3342 33.6665C5.3342 33.6665 7.08491 39.4749 14.1972 41.0888C14.1972 41.0888 8.80828 42.0189 8.70798 48.4838C8.70798 48.4838 6.81136 42.876 0 41.0797C0 41.0797 5.69894 40.405 5.34333 33.6665H5.3342Z" fill="white"/>
<path d="M44.005 73.2386C44.005 73.2386 45.7557 79.047 52.868 80.6609C52.868 80.6609 47.479 81.591 47.3787 88.0559C47.3787 88.0559 45.4821 82.4481 38.6708 80.6518C38.6708 80.6518 44.3697 79.977 44.0141 73.2386H44.005Z" fill="white"/>
<path d="M72.5815 51.792L71.9797 46.3758C71.0679 48.1447 69.9372 49.4851 68.5968 50.3969C67.2564 51.3088 65.4966 51.7647 63.3356 51.7647C62.0772 51.7647 60.9648 51.6461 59.9983 51.4273C59.0318 51.1993 57.8008 50.8528 56.3236 50.3969C54.9012 49.941 53.6702 49.5945 52.6489 49.3666C51.6186 49.1386 50.4515 49.0292 49.1384 49.0292C47.8254 49.0292 46.713 49.1751 45.6279 49.4577C46.9956 47.8073 47.9895 46.0657 48.6187 44.2421C49.2478 42.4184 49.5579 40.3394 49.5579 37.996C49.5579 37.7407 49.5488 37.4854 49.5396 37.2301L64.758 35.0143L64.3659 30.0357H47.9348C47.0777 27.8109 46.4576 26.0146 46.0564 24.6468C45.6552 23.2791 45.4546 21.7381 45.4546 20.0238C45.4546 17.2883 46.3938 15.0908 48.2813 13.4404C50.1597 11.79 52.7037 10.9602 55.8951 10.9602C58.4573 10.9602 60.9648 11.562 63.4268 12.7565C65.8796 13.951 67.8218 15.5194 69.2442 17.4616L69.7731 9.0089L69.2442 4.70505C67.3659 3.21877 65.0589 2.06986 62.3508 1.24009C59.6427 0.419443 56.7522 0 53.6702 0C49.4485 0 45.7191 0.765938 42.4638 2.30693C39.2086 3.84793 36.6919 5.99985 34.8956 8.7627C33.0993 11.5347 32.1966 14.6805 32.1966 18.2184C32.1966 20.0968 32.379 21.9387 32.7529 23.735C33.1176 25.5313 33.6738 27.6285 34.4215 30.0175H29.6344L29.0964 34.9961L35.9534 35.9353C36.309 37.7407 36.4822 39.2999 36.4822 40.6221C36.4822 44.3333 35.844 47.7253 34.5583 50.7981C34.2938 51.4455 33.9565 52.1294 33.5917 52.8498L5.66243 58.7493C4.70501 58.9408 4.27646 59.8617 4.6959 60.8101L8.04232 68.3691H26.7348L56.7978 68.1959L50.9256 63.8282L48.9834 61.2568C51.0806 61.6489 52.804 61.9407 54.1079 62.1231C55.5303 62.3237 57.1534 62.424 58.977 62.424C63.4815 62.424 70.384 57.8101 70.384 57.8101L72.5907 51.7647L72.5815 51.792Z" fill="black"/>
<path d="M33.8653 56.7433C35.1875 53.5792 35.844 50.096 35.844 46.2937C35.844 44.4791 35.5248 42.2178 34.8774 39.5279H28.8229V35.3973H33.7468C32.9808 32.9354 32.4064 30.7834 32.0325 28.9415C31.6496 27.0905 31.4581 25.203 31.4581 23.2699C31.4581 19.6409 32.379 16.4039 34.23 13.5589C36.0719 10.714 38.6615 8.50739 41.9988 6.92992C45.3361 5.35245 49.1749 4.55916 53.5061 4.55916C56.6701 4.55916 59.6427 4.98772 62.4238 5.83572C65.2048 6.68373 67.5665 7.86911 69.4995 9.39187V22.4858C68.0315 20.498 66.0437 18.884 63.5271 17.6531C61.0104 16.4221 58.43 15.8112 55.7948 15.8112C52.5122 15.8112 49.9044 16.6592 47.9713 18.3552C46.0382 20.0512 45.0717 22.3125 45.0717 25.121C45.0717 26.8808 45.2814 28.4583 45.6826 29.8625C46.0929 31.2667 46.7403 33.1086 47.6157 35.3973H64.4845V39.5279H48.8466C49.1384 40.8774 49.2843 42.2178 49.2843 43.5673C49.2843 45.9745 48.9652 48.1082 48.3178 49.9775C47.6704 51.8559 46.6491 53.6431 45.2449 55.3391C46.3573 55.0473 47.5519 54.9014 48.8466 54.9014C50.1414 54.9014 51.3907 55.0199 52.4484 55.2479C53.5061 55.485 54.7644 55.8315 56.2233 56.3056C57.7461 56.7706 59.0044 57.1263 59.9983 57.3633C60.9922 57.6004 62.1411 57.7098 63.4268 57.7098C65.6516 57.7098 67.448 57.2448 68.8339 56.3056C70.2108 55.3664 71.3688 53.9896 72.308 52.175C72.308 57.9195 71.232 62.1049 69.0983 64.74C66.9556 67.3752 63.5818 68.6974 58.9497 68.6974C57.0713 68.6974 55.4118 68.5971 53.9438 68.3874C52.4757 68.1777 50.5153 67.8494 48.0534 67.3752C46.0017 66.9649 44.3149 66.6549 43.0018 66.4543C41.6888 66.2537 40.2664 66.1443 38.7436 66.1443C36.2817 66.1443 34.1389 66.354 32.2878 66.7552C30.4368 67.1655 28.4946 67.8403 26.443 68.7795C30.0721 63.9194 32.5523 59.9073 33.8653 56.7433Z" fill="white"/>
</g>
<defs>
<clipPath id="clip0_15980_9012">
<rect width="100" height="100" fill="white"/>
</clipPath>
</defs>
</svg>
