<svg width="100" height="100" viewBox="0 0 100 100" fill="none" xmlns="http://www.w3.org/2000/svg">
<g clip-path="url(#clip0_4483_19880)">
<rect width="100" height="100" fill="#A19FFF"/>
<path d="M32.1845 62.281L6.07341 47.1718C5.69038 46.9355 5.29924 46.8051 4.93251 46.8051C4.49243 46.8051 4.11756 46.9844 3.81603 47.3348C3.31891 47.9053 3.11513 48.8506 3.26182 49.853C3.44926 51.1325 4.19087 52.3386 5.15251 52.9254L31.7281 68.3116C32.3393 68.662 33.1135 68.5561 33.5943 68.0427L65.8582 34.1326L65.5648 28.9006L34.0588 62.0121C33.5699 62.5255 32.8038 62.6314 32.1926 62.281H32.1845Z" fill="black"/>
<path d="M33.8206 69.9493C33.2991 70.4953 32.476 70.6176 31.824 70.2346L3.42299 53.7889C2.39615 53.1614 1.60567 51.8737 1.40193 50.5046C1.24709 49.4289 1.46711 48.4184 1.99683 47.8071C2.32281 47.4323 2.72216 47.2448 3.19483 47.2448C3.58601 47.2448 4.00162 47.3833 4.4091 47.636L32.3212 63.7801C32.9731 64.155 33.7962 64.0409 34.3178 63.4949L69.6051 26.4065C70.1511 25.8361 70.0126 24.8989 69.3362 24.5077L41.7827 8.55099C40.1528 7.60565 38.091 7.89903 36.7952 9.25999C28.6946 17.7762 1.07593 46.8129 1.02703 46.8618L0.994455 46.8944C0.220252 47.7745 -0.162787 49.1436 0.0653995 50.692C0.334333 52.5338 1.39378 54.1312 2.72215 54.938L32.0767 71.9296C32.7286 72.3045 33.5517 72.1905 34.0733 71.6444L69.6296 34.2708C70.1267 33.7411 70.0533 32.9017 69.4747 32.4698L33.8288 69.9331L33.8206 69.9493Z" fill="white"/>
<path d="M20.2528 37.2618H43.5604V48.3778H20.2528C19.3563 48.3778 18.6229 47.6443 18.6229 46.7478V38.8917C18.6229 37.9953 19.3563 37.2618 20.2528 37.2618Z" fill="black"/>
<path d="M53.6717 23.7223C53.9242 20.4915 49.5238 17.5125 43.8431 17.0684C38.1623 16.6243 33.3525 18.8833 33.0999 22.1141C32.8473 25.3448 37.2477 28.3239 42.9285 28.768C48.6092 29.2121 53.4191 26.953 53.6717 23.7223Z" fill="#A19FFF"/>
<path d="M37.6616 46.0305C37.6616 46.0305 32.4541 57.0242 35.7302 69.9167C37.955 67.5778 40.7503 64.6358 43.7819 61.4575L39.2263 49.6407L37.6698 46.0305H37.6616Z" fill="black"/>
<path d="M51.7685 33.4311C51.7685 33.4311 59.7468 31.8746 66.3316 37.7341C67.8474 36.1367 69.2981 34.621 70.6346 33.2111C65.6226 30.7662 58.4999 29.0059 51.7685 33.4229V33.4311Z" fill="black"/>
<path d="M66.9269 64.7091C59.6493 59.143 50.7582 58.3363 46.8954 62.8511C46.7894 62.9733 46.6916 63.1119 46.602 63.2586L44.2875 66.9829L45.1269 67.1947C44.7113 71.8155 47.7348 77.5935 53.2683 81.8149C58.7203 85.9875 65.0769 87.4707 69.5428 86.0609L70.0318 86.8024L73.1612 83.7627C73.3568 83.5753 73.5442 83.3715 73.7072 83.1433C77.0974 78.3677 74.1391 70.2182 66.935 64.701L66.9269 64.7091Z" fill="black"/>
<path d="M70.7931 86.0039C74.2794 81.2992 71.2427 73.1407 64.0104 67.7812C56.778 62.4217 48.0888 61.8909 44.6025 66.5955C41.1162 71.3002 44.1529 79.4587 51.3852 84.8182C58.6176 90.1777 67.3068 90.7085 70.7931 86.0039Z" fill="white"/>
<path d="M43.8331 39.3398C43.8331 39.3398 49.0488 32.2416 58.3719 32.209C67.6949 32.1764 74.6301 37.9707 79.2753 46.9922L86.3165 44.9467C86.3165 44.9467 74.6138 15.6166 47.4434 33.9612L42.5048 38.2967L43.8331 39.3398Z" fill="black"/>
<path d="M49.3973 77.4227C49.3973 77.4227 34.5326 61.8164 36.8715 48.9239C38.1347 41.9724 41.533 38.028 44.7521 35.4935C47.1236 33.6191 49.2343 32.3152 51.3939 31.1091C51.3939 31.1091 51.9155 31.81 52.543 31.4188C52.543 31.4188 41.1989 35.9825 43.5867 49.8611C44.9721 57.8965 47.857 63.5441 58.3943 75.1001L49.3973 77.4227Z" fill="white"/>
<path d="M55.1574 73.315C52.1991 70.4383 47.8717 63.4378 47.6843 63.1363C40.3823 51.2951 43.0146 42.8685 43.2672 42.1187C43.4465 41.2794 45.9892 30.8643 58.6942 28.289C70.7555 25.8523 80.6164 31.9155 86.4433 45.3541L85.3187 45.8431C79.7444 32.9832 70.3725 27.1726 58.9306 29.487C46.5515 31.9889 44.4652 42.2899 44.4489 42.3958L44.4245 42.4854C44.3919 42.5669 41.5559 50.8713 48.7193 62.4844C48.76 62.5577 53.1526 69.6559 55.9968 72.4268L55.1492 73.3069L55.1574 73.315Z" fill="white"/>
<path d="M90.7969 47.3993L93.2744 47.652C94.2849 47.7579 95.271 48.1165 96.0126 48.801C96.1348 48.9151 96.249 49.0374 96.3631 49.1596C97.6262 50.6102 99.6799 53.6174 99.9895 58.1404C100.071 59.2732 99.6717 60.3896 98.9383 61.2861L96.0534 64.8393L92.8098 58.393L90.7969 47.3993Z" fill="black"/>
<path d="M98.3033 59.3061C99.2812 68.3602 93.7559 75.6377 85.9649 75.5562C78.174 75.4747 71.0676 68.0668 70.0897 59.0127C69.1117 49.9586 74.6371 42.6811 82.428 42.7626C90.2189 42.8441 97.3253 50.252 98.3033 59.3061Z" fill="black"/>
<path d="M88.5624 59.8112C90.1678 65.7604 88.1304 71.0168 84.0149 71.5384C79.8994 72.0681 75.2705 67.6674 73.6651 61.7101C72.0596 55.7609 74.097 50.5045 78.2125 49.9829C82.328 49.4532 86.9569 53.8539 88.5624 59.8112Z" fill="#A19FFF"/>
<path d="M59.2201 74.3094C54.6075 70.7806 49.0007 69.8516 46.2217 72.3209C45.8794 72.6224 45.6349 73.0217 45.4964 73.4618L43.2879 80.2667L50.8751 88.514L56.7997 91.2359L61.5102 88.4813C62.1621 88.1227 63.0341 87.5604 63.5883 86.8677C66.1146 83.7057 64.1587 78.0826 59.2201 74.3012V74.3094Z" fill="#A19FFF"/>
<path d="M51.31 79.0444L53.4289 71.3513C53.4289 71.3513 56.8354 71.9787 60.1197 75.1L54.3498 81.3099L51.31 79.0362V79.0444Z" fill="white"/>
<path d="M57.8937 90.3233C59.7963 87.7558 58.1404 83.3044 54.1952 80.3808C50.25 77.4572 45.5094 77.1686 43.6067 79.7361C41.7041 82.3036 43.36 86.7549 47.3052 89.6785C51.2505 92.6021 55.9911 92.8908 57.8937 90.3233Z" fill="black"/>
<path d="M88.5888 60.0493C90.1943 65.9984 88.1569 71.2549 84.0414 71.7764C79.9259 72.3062 75.2969 67.9054 73.6915 61.9481C72.086 55.999 74.1234 50.7426 78.2389 50.221C82.3544 49.6913 86.9833 54.092 88.5888 60.0493Z" fill="#A19FFF"/>
<path fill-rule="evenodd" clip-rule="evenodd" d="M98.429 62.1791C98.186 69.9689 93.006 75.8677 85.9875 75.7943C78.1965 75.7128 71.0901 68.3049 70.1122 59.2508C69.1342 50.1967 74.6596 42.9192 82.4505 43.0007C86.3201 43.0412 90.0208 44.889 92.8856 47.8481L93.2968 47.89C94.3074 47.996 95.2935 48.3545 96.0351 49.0391C96.1573 49.1532 96.2715 49.2754 96.3856 49.3977C97.6488 50.8483 99.7023 53.8555 100.012 58.3785C100.094 59.5112 99.6943 60.6277 98.9608 61.5242L98.429 62.1791Z" fill="black"/>
<path d="M88.5888 60.0493C90.1943 65.9984 88.1569 71.2549 84.0414 71.7764C79.9259 72.3062 75.2969 67.9054 73.6915 61.9481C72.086 55.999 74.1234 50.7426 78.2389 50.221C82.3544 49.6913 86.9833 54.092 88.5888 60.0493Z" fill="#A19FFF"/>
</g>
<defs>
<clipPath id="clip0_4483_19880">
<rect width="100" height="100" fill="white"/>
</clipPath>
</defs>
</svg>
