<svg width="100" height="100" viewBox="0 0 100 100" fill="none" xmlns="http://www.w3.org/2000/svg">
<g clip-path="url(#clip0_15980_9068)">
<rect width="100" height="100" fill="#A19FFF"/>
<path d="M44.898 9.99204C45.2475 9.69626 45.5612 9.36463 45.8839 9.04196C46.6456 8.24426 48.8054 6.37997 51.9689 6.73849C53.2863 6.89086 54.308 7.49137 55.0159 8.10085C56.7994 4.99967 60.1511 2.90234 63.9868 2.90234C69.7044 2.90234 74.3378 7.53619 74.3378 13.2545V14.2494H31.3476C38.9383 14.2494 42.5768 11.9908 44.889 9.99204H44.898Z" fill="white"/>
<path d="M22.063 60.1874C23.2818 60.1515 24.4827 59.9902 25.6478 59.7034V26.4239C24.4827 26.1371 23.2818 25.9758 22.063 25.9399V60.1874ZM11.0041 56.5663C12.1154 57.4357 13.3163 58.1617 14.5889 58.7354V27.4188C13.3163 27.9835 12.1154 28.7005 11.0041 29.5699V56.5663ZM34.3498 31.6941C33.9375 31.2281 33.4536 30.6993 32.9607 30.2511C32.8979 30.1973 32.8263 30.1435 32.7635 30.0898V56.0375C33.0772 55.7686 33.3908 55.4908 33.6955 55.195L36.3483 52.524V33.9618L34.3498 31.6941Z" fill="black"/>
<path d="M85.0652 67.3849C84.8501 66.5424 84.1152 65.9419 83.2549 65.8791L71.47 65.0545C71.4073 65.0545 71.3446 65.0545 71.2819 65.0545C70.6993 65.0545 70.1347 65.2427 69.6597 65.5923L59.1654 73.5066C58.8428 73.7486 58.9862 74.2684 59.3895 74.3132L70.8517 75.4874C72.2766 75.6308 73.4507 76.6705 73.7823 78.0598L75.5746 85.6603C75.6732 86.0906 76.0585 86.3594 76.4529 86.3594C76.6411 86.3594 76.8292 86.2967 76.9906 86.1712C80.2796 83.572 83.6671 80.3095 86.6872 76.2761C87.0099 75.8369 87.1175 75.2723 86.9831 74.7524L85.0742 67.3939L85.0652 67.3849ZM94.2869 59.5692L93.6417 56.5487C93.4624 55.7151 92.7366 55.1325 91.8941 55.1325C91.8673 55.1325 91.8314 55.1325 91.8045 55.1325C89.6089 55.2401 85.2713 55.4552 80.4767 55.6613C80.0197 55.6793 79.5894 55.8765 79.2758 56.1991L72.5723 63.0379C72.3035 63.3067 72.4828 63.7728 72.8592 63.7997L83.3445 64.5347C84.7873 64.6333 85.9972 65.6461 86.3646 67.0443L87.9419 73.1212C87.9957 73.3363 88.1928 73.4618 88.3811 73.4618C88.5244 73.4618 88.6679 73.399 88.7485 73.2556C90.9531 69.7959 92.853 65.8522 94.2152 61.3528C94.3945 60.7792 94.4125 60.1607 94.278 59.5692H94.2869ZM70.7083 76.8229L57.0684 75.4247C56.8802 75.4067 56.7009 75.3978 56.5127 75.3978C56.0557 75.3978 55.6076 75.4515 55.1595 75.5681C50.6606 76.7422 39.3238 80.3274 37.5225 86.951C37.5225 86.951 35.2641 94.2648 48.8055 95.3224C49.7644 95.3941 50.7323 95.4389 51.6823 95.4389C59.506 95.4389 67.1504 92.9651 73.6836 88.5823C73.9524 87.8921 74.1497 87.3812 74.4095 86.6911L72.4468 78.3735C72.2497 77.5399 71.5417 76.9215 70.6903 76.8318L70.7083 76.8229Z" fill="white"/>
<path d="M50.2752 78.3707C52.3274 77.6716 55.4462 76.6408 56.3872 76.4615L68.5305 77.6267L63.8077 80.1453C63.1624 80.4859 62.4364 80.6293 61.7105 80.5487L50.3737 79.2401C49.8988 79.1863 49.8271 78.523 50.2841 78.3707H50.2752Z" fill="black"/>
<path d="M61.576 73.3301L70.986 66.2942L81.3459 66.9664L72.7067 74.2174L61.576 73.3301Z" fill="black"/>
<path d="M74.7768 62.7933L80.2705 56.9674L90.2181 56.582L84.8857 63.3401L74.7768 62.7933Z" fill="black"/>
<path d="M94.2866 59.5658L93.6413 56.5453C93.5517 56.1151 93.3008 55.7476 92.9782 55.4967L85.262 65.3021C85.7908 65.7413 86.1851 66.3418 86.3643 67.0409L87.601 71.8003L87.9416 73.1178C88.0402 73.4943 88.5421 73.5839 88.7572 73.2523C90.9618 69.7926 92.8617 65.8489 94.2239 61.3495C94.4031 60.7758 94.421 60.1574 94.2866 59.5658ZM85.0649 67.3815C84.9394 66.8886 84.6347 66.4852 84.2314 66.2163L72.7333 76.3086C73.2442 76.7568 73.6206 77.3662 73.7819 78.0564L75.5832 85.7108C75.7355 86.3471 76.4884 86.616 77.0082 86.2127C81.1217 83.0577 84.9125 78.7914 86.7048 76.6582C87.0813 76.21 87.2067 75.6185 87.0633 75.0628L85.0649 67.3905V67.3815ZM72.2673 77.8682C72.2404 77.8234 72.2225 77.7696 72.1867 77.7337C72.115 77.6262 72.0253 77.5276 71.9357 77.429C71.864 77.3573 71.7923 77.2856 71.7117 77.2318C69.6594 78.4418 62.1853 82.6185 60.4467 83.6762C60.4467 83.6762 53.0531 87.6199 53.788 91.7159C54.3167 94.6199 56.7991 94.8978 59.8999 94.5213C65.1516 93.3561 70.2509 91.0437 74.7049 87.8798C74.7408 87.8529 72.4644 78.3701 72.4644 78.3701C72.4196 78.1908 72.348 78.0295 72.2673 77.8771V77.8682Z" fill="black"/>
<path d="M92.4497 32.2487C84.3661 24.8543 72.8323 24.1193 62.786 29.6853C62.7502 29.7033 62.7233 29.7122 62.6874 29.7302C60.2409 31.1015 57.8838 32.8403 55.6882 34.9466L34.6278 56.144C30.9803 59.7919 26.132 61.701 20.9789 61.5486C15.8258 61.3873 11.1029 59.1645 7.67052 55.2746C1.52269 48.3103 1.52269 37.8058 7.67052 30.8505C10.9685 27.1219 15.5032 24.8991 20.4412 24.6033C25.3971 24.3076 30.1469 25.9568 33.8392 29.2372C34.3321 29.6764 34.7981 30.1783 35.3448 30.7878L45.5971 42.4127L47.6135 40.6381L37.3612 29.0042C36.7518 28.323 36.232 27.7583 35.6315 27.2205C31.4015 23.4561 25.9527 21.5559 20.2799 21.9055C14.616 22.2461 9.42705 24.7826 5.6541 29.0579C-1.38992 37.035 -1.38992 49.0722 5.6541 57.0492C9.5794 61.4949 14.9924 64.0403 20.8983 64.2285C21.1134 64.2285 21.3284 64.2375 21.5435 64.2375C27.1357 64.2375 32.5666 61.9968 36.5367 58.0352L57.5702 36.8647C59.6135 34.9018 61.8091 33.2974 64.0854 32.0336C72.5902 27.9824 78.3617 32.679 79.4371 33.6739C82.4124 36.4076 85.5222 44.4204 84.1869 54.1452C85.1459 54.1004 86.0689 54.0556 86.9202 54.0197C87.5207 49.1708 87.0636 45.1195 86.4632 42.3141C85.4774 37.6982 83.5775 33.8262 81.2564 31.693C80.6739 31.1553 78.9532 29.7212 76.3363 28.7353C81.5701 28.7353 86.5887 30.5368 90.6305 34.2296C96.142 39.2667 98.5349 49.5921 96.5991 59.9174C94.7978 69.5167 87.8164 87.0213 61.4775 97.8934H68.0018C91.0158 86.4746 97.4683 69.8394 99.2428 60.4103C101.349 49.2066 98.6155 37.8864 92.4408 32.2398L92.4497 32.2487Z" fill="white"/>
<path d="M40.6591 94.7026C36.6263 96.0381 32.7637 97.0867 29.3134 97.9023H39.4852C41.2238 97.3556 42.9982 96.7641 44.7995 96.1098C43.2043 95.7692 41.8331 95.2941 40.6591 94.7026Z" fill="white"/>
<path d="M47.7657 48.6624L44.1809 52.2745V78.3387C45.3549 77.7024 46.5737 77.1377 47.7657 76.6358V48.6624Z" fill="black"/>
<path d="M68.8531 64.5162C69.1668 64.2831 69.5162 64.0949 69.8836 63.9605V31.7028C68.7276 31.8193 67.5356 32.1062 66.2989 32.5722V66.4432L68.8531 64.5162Z" fill="black"/>
<path d="M56.5216 74.0528C56.7546 74.0528 56.9875 74.0617 57.2116 74.0886L57.6776 74.1334C57.579 73.4881 57.821 72.8338 58.3497 72.4305L58.8158 72.0809V37.5287L58.529 37.8156L55.231 41.1408V74.1962C55.6522 74.1155 56.0825 74.0617 56.5126 74.0617L56.5216 74.0528Z" fill="black"/>
<path d="M78.3079 55.2684C78.8635 54.6947 79.6163 54.3631 80.4139 54.3273C80.5931 54.3273 80.7635 54.3093 80.9337 54.3004V38.176C80.1541 36.5537 79.2757 35.3617 78.5229 34.6715C78.1465 34.322 77.7523 34.0083 77.349 33.7125V56.2364L78.3079 55.2594V55.2684Z" fill="black"/>
<path d="M22.0633 86.5855H25.6481V65.2088C24.4651 65.4329 23.2732 65.5584 22.0633 65.5853V86.5944V86.5855Z" fill="black"/>
<path d="M-0.0546875 86.5858H3.53006V56.5509C1.88107 54.346 0.680185 51.9081 -0.0546875 49.3626V86.5858Z" fill="black"/>
<path d="M36.7069 85.3004V59.7471C35.6046 60.7509 34.3947 61.6382 33.1221 62.3911V86.5911H36.241C36.3575 86.1519 36.5187 85.7217 36.7069 85.3004Z" fill="black"/>
<path d="M11.0041 86.5835H14.5889V64.4898C13.3521 64.0865 12.1512 63.5846 11.0041 62.9751V86.5835Z" fill="black"/>
</g>
<defs>
<clipPath id="clip0_15980_9068">
<rect width="100" height="100" fill="white"/>
</clipPath>
</defs>
</svg>
