<svg width="100" height="100" viewBox="0 0 100 100" fill="none" xmlns="http://www.w3.org/2000/svg">
<g clip-path="url(#clip0_15980_9083)">
<rect width="100" height="100" fill="#A19FFF"/>
<path fill-rule="evenodd" clip-rule="evenodd" d="M36.7419 43.6873L39.2315 45.1365L48.6231 50.5606C49.1253 50.8476 49.4123 51.3498 49.4123 51.9238V65.6704C49.4123 66.2444 49.1253 66.7466 48.6231 67.0336C48.1208 67.3206 47.5469 67.3206 47.0518 67.0336L35.1706 60.1603C34.6684 59.8733 34.3814 59.371 34.3814 58.7971V45.0648C34.3814 44.4765 34.6684 43.9742 35.1706 43.6873C35.6728 43.4003 36.2468 43.4003 36.7419 43.6873Z" fill="black"/>
<path fill-rule="evenodd" clip-rule="evenodd" d="M36.7419 62.7149L48.6231 69.5882C49.1253 69.8752 49.4123 70.3774 49.4123 70.9514V84.698C49.4123 85.272 49.1253 85.7742 48.6231 86.0612C48.1208 86.3482 47.5469 86.3482 47.0518 86.0612L35.1706 79.1879C34.6684 78.9009 34.3814 78.3987 34.3814 77.8247V64.0781C34.3814 63.5041 34.6684 63.0019 35.1706 62.7149C35.6728 62.4279 36.2468 62.4279 36.7419 62.7149Z" fill="black"/>
<path fill-rule="evenodd" clip-rule="evenodd" d="M68.1099 60.067L80.0055 53.208C80.5077 52.9067 81.0817 52.9067 81.5767 53.208C82.079 53.495 82.3659 53.9829 82.3659 54.5712V68.3178C82.3659 68.8918 82.079 69.394 81.5767 69.681L69.6812 76.5543C69.1789 76.8413 68.605 76.8413 68.1099 76.5543C67.6077 76.253 67.3207 75.7651 67.3207 75.1768V61.4301C67.3207 60.8562 67.6077 60.3539 68.1099 60.067Z" fill="white"/>
<path fill-rule="evenodd" clip-rule="evenodd" d="M51.6292 69.5882L63.5247 62.7149C64.0269 62.4279 64.6009 62.4279 65.096 62.7149C65.5982 63.0019 65.8852 63.5041 65.8852 64.0781V77.8247C65.8852 78.3987 65.5982 78.9009 65.096 79.1879L53.2004 86.0612C52.6982 86.3482 52.1242 86.3482 51.6292 86.0612C51.1269 85.7742 50.8399 85.272 50.8399 84.698V70.9514C50.8399 70.3774 51.1269 69.8752 51.6292 69.5882Z" fill="white"/>
<path fill-rule="evenodd" clip-rule="evenodd" d="M67.3207 42.8979C67.3207 42.0298 67.7799 41.2262 68.5332 40.7957C71.0659 39.3393 76.9276 35.9528 80.0055 34.1807C80.5077 33.8937 81.0817 33.8937 81.5767 34.1807C82.079 34.4677 82.3659 34.9699 82.3659 35.5439V49.2905C82.3659 49.8645 82.079 50.3667 81.5767 50.6537L69.6812 57.527C69.1789 57.814 68.605 57.814 68.1099 57.527C67.6077 57.24 67.3207 56.7378 67.3207 56.1495V42.8979Z" fill="white"/>
<path d="M65.8211 23.3411C66.3233 23.0541 66.8973 23.0541 67.3923 23.3411L79.2878 30.2141C79.7901 30.5011 80.0779 31.0034 80.0779 31.5774C80.0778 32.1512 79.79 32.6537 79.2878 32.9407L67.8162 39.5696H67.823C67.0697 40.0072 66.1443 40.0072 65.3982 39.5696L53.9255 32.9407C53.4234 32.6537 53.1366 32.1656 53.1365 31.5774C53.1365 31.0035 53.4235 30.5011 53.9255 30.2141L65.8211 23.3411ZM67.5281 24.7747C67.0331 24.4878 66.4589 24.4878 65.9568 24.7747L57.9646 29.137C57.4624 29.4239 63.1014 26.7123 66.9685 26.8127C71.1082 26.9275 75.9296 29.252 75.4275 28.9651L67.5281 24.7747Z" fill="white"/>
<path fill-rule="evenodd" clip-rule="evenodd" d="M51.6292 50.5606L63.5247 43.6873C64.0269 43.4003 64.6009 43.4003 65.096 43.6873C65.5982 43.9742 65.8852 44.4765 65.8852 45.0648V58.7971C65.8852 59.371 65.5982 59.8733 65.096 60.1603L53.2004 67.0336C52.6982 67.3206 52.1242 67.3206 51.6292 67.0336C51.1341 66.7466 50.8399 66.2444 50.8399 65.6704V51.9238C50.8399 51.3498 51.1269 50.8476 51.6292 50.5606Z" fill="white"/>
<path fill-rule="evenodd" clip-rule="evenodd" d="M22.9235 61.2009L32.9035 66.1945V67.0985C32.9035 67.0985 32.9035 67.3567 32.9035 70.6499V80.9742L28.9502 78.9868C28.3476 78.6855 27.831 78.1546 27.5727 77.5232L21.2877 62.6932C21.0151 62.0762 21.0725 61.5309 21.4168 61.2152C21.7612 60.8996 22.3209 60.8852 22.9235 61.2009Z" fill="black"/>
<path fill-rule="evenodd" clip-rule="evenodd" d="M30.916 49.492L32.9105 54.2919V64.6736L21.0149 58.5895C20.4123 58.2738 19.91 57.7429 19.6518 57.1115L13.4672 42.2384C13.2089 41.6071 13.2663 41.0762 13.6107 40.7605C13.9694 40.4448 14.5147 40.4448 15.1317 40.7461L29.7824 48.258C30.2918 48.5234 30.6935 48.9539 30.916 49.4848V49.492Z" fill="black"/>
<path d="M41.9508 14.8876C42.4386 14.5002 42.9844 14.4288 43.4722 14.6728L55.0806 20.4267C55.5685 20.6706 55.8554 21.1586 55.8697 21.7899C55.884 22.4069 55.6263 22.9953 55.1529 23.3612L44.3765 32.0497C43.6376 32.6452 42.6255 32.7529 41.7789 32.3368L31.9644 27.4726L30.8013 26.8837C30.2994 26.654 30.013 26.1516 29.9986 25.5204C29.9844 24.9035 30.242 24.3293 30.7154 23.9491L41.9508 14.8876ZM43.6002 16.1933C43.1124 15.9496 42.5674 16.0218 42.0797 16.4091L34.8902 22.206H34.898C34.4245 22.5862 39.3105 19.1427 42.6324 18.87C47.7475 18.454 51.4636 20.0894 50.9762 19.8456L43.6002 16.1933Z" fill="white"/>
<path d="M26.67 27.3652C27.1434 26.9922 27.6881 26.9057 28.1758 27.1493L39.7559 32.9609C40.2437 33.2049 40.5306 33.7072 40.5449 34.3242C40.5593 34.9556 40.3014 35.5296 39.8135 35.8955L29.001 44.5411L29.0088 44.548C28.2699 45.1435 27.251 45.2437 26.4044 44.8204L16.6104 39.9063L15.4483 39.3174C14.9606 39.0734 14.6736 38.5854 14.6593 37.9541C14.6451 37.3229 14.9173 36.7487 15.3907 36.3828L26.67 27.3652ZM28.5499 28.7919C28.062 28.548 27.5163 28.6203 27.0284 29.0078L19.8399 34.8047H19.8468C19.3746 35.184 24.2597 31.7403 27.5811 31.4677C32.6966 31.0516 36.4127 32.6883 35.9248 32.4443L28.5499 28.7919Z" fill="white"/>
<path d="M49.3403 32.8535C49.8425 32.5665 50.4166 32.5666 50.9116 32.8535L62.8071 39.7265C63.3093 40.0135 63.5961 40.5162 63.5962 41.1045C63.5962 41.6784 63.3093 42.1807 62.8071 42.4677L50.9116 49.3408C50.4094 49.6278 49.8353 49.6278 49.3403 49.3408L37.4448 42.4677C36.9426 42.1807 36.6557 41.6784 36.6557 41.1045C36.6558 40.5305 36.9426 40.0135 37.4448 39.7265L49.3403 32.8535ZM50.9546 34.2314C50.4595 33.9444 49.8855 33.9444 49.3833 34.2314L41.3911 38.5927C40.8889 38.8797 46.5279 36.1682 50.395 36.2685C54.5348 36.3833 59.3562 38.7078 58.854 38.4209L50.9546 34.2314Z" fill="white"/>
<path fill-rule="evenodd" clip-rule="evenodd" d="M65.2386 46.2269L64.9445 57.7781C64.9445 58.5099 64.5786 59.1413 63.94 59.5072L54.3116 65.5195C53.6803 65.8855 59.298 62.0757 62.0531 57.5987C64.6288 53.4159 65.2386 45.4951 65.2314 46.2269H65.2386Z" fill="black"/>
<path fill-rule="evenodd" clip-rule="evenodd" d="M64.7738 64.9171L64.4797 76.4683C64.4797 77.2001 64.1138 77.8314 63.4752 78.1973L53.8469 84.2097C53.2155 84.5756 58.8332 80.7659 61.5883 76.2889C64.164 72.1061 64.7738 64.1853 64.7667 64.9171H64.7738Z" fill="black"/>
<path fill-rule="evenodd" clip-rule="evenodd" d="M81.2247 55.2388L80.9305 66.79C80.9305 67.5218 80.5646 68.1532 79.9261 68.5191L70.2977 74.5314C69.6663 74.8973 75.2841 71.0876 78.0392 66.6106C80.6149 62.4278 81.2247 54.507 81.2175 55.2388H81.2247Z" fill="black"/>
<path fill-rule="evenodd" clip-rule="evenodd" d="M81.2247 36.5486L80.9305 48.0998C80.9305 48.8316 80.5646 49.463 79.9261 49.8289L70.2977 55.8413C69.6663 56.2072 75.2841 52.3974 78.0392 47.9205C80.6149 43.7376 81.2247 35.8168 81.2175 36.5486H81.2247Z" fill="black"/>
<path d="M97.3462 66.7609C98.157 71.5034 94.0531 75.3705 88.012 75.8153C87.0793 78.5417 84.066 80.5363 80.0769 81.0672C82.9539 81.4331 86.1323 81.2465 89.2748 80.5004C97.2171 78.6206 101.823 71.2666 99.2045 65.6058C97.9704 62.944 95.4019 60.9925 92.1733 59.9235C94.9212 61.6239 96.8799 64.0561 97.3391 66.7537L97.3462 66.7609Z" fill="white"/>
<path d="M2.5399 36.714C1.72916 31.9715 5.83306 28.1044 11.8741 27.6596C12.8068 24.9332 15.8202 22.9386 19.8093 22.4077C16.9322 22.0418 13.7539 22.2283 10.6114 22.9745C2.66186 24.8471 -1.94426 32.2011 0.681661 37.8619C1.9157 40.5237 4.48423 42.4752 7.71282 43.5442C4.96493 41.8438 3.00625 39.4116 2.54707 36.714H2.5399Z" fill="white"/>
</g>
<defs>
<clipPath id="clip0_15980_9083">
<rect width="100" height="100" fill="white"/>
</clipPath>
</defs>
</svg>
