<svg width="100" height="100" viewBox="0 0 100 100" fill="none" xmlns="http://www.w3.org/2000/svg">
<g clip-path="url(#clip0_15980_9097)">
<rect width="100" height="100" fill="#A19FFF"/>
<path d="M7.0949 49.5061C7.0949 49.5061 7.72737 51.6114 10.2796 52.1927C10.2796 52.1927 8.34093 52.5265 8.30312 54.8688C8.30312 54.8688 7.61909 52.8379 5.17343 52.1875C5.17343 52.1875 7.2238 51.9418 7.09318 49.5061H7.0949Z" fill="white"/>
<path d="M19.9472 10.6367C19.9472 10.6367 20.7224 13.216 23.8521 13.927C23.8521 13.927 21.4786 14.3405 21.4287 17.2121C21.4287 17.2121 20.5935 14.7262 17.5875 13.927C17.5875 13.927 20.0985 13.6243 19.9421 10.6367H19.9472Z" fill="white"/>
<path d="M69.5018 83.0613C69.5018 83.0613 70.2769 85.6406 73.4066 86.3516C73.4066 86.3516 71.0331 86.7651 70.9833 89.6367C70.9833 89.6367 70.148 87.1508 67.142 86.3516C67.142 86.3516 69.653 86.0489 69.4966 83.0613H69.5018Z" fill="white"/>
<path d="M76.0859 27.8512C76.0859 27.8512 77.2855 31.8473 82.1373 32.9527C82.1373 32.9527 78.4576 33.5893 78.3837 38.0404C78.3837 38.0404 77.0861 34.1879 72.4337 32.9527C72.4337 32.9527 76.3248 32.4874 76.0859 27.8547V27.8495V27.8512Z" fill="white"/>
<path d="M43.2506 41.9154L41.4701 41.1421C41.4477 41.1335 41.4391 41.1075 41.4477 41.0868L42.1627 39.4019C42.1713 39.3794 42.1971 39.3707 42.2177 39.3794L43.9982 40.1526C44.0189 40.1613 44.0292 40.1872 44.0206 40.208L43.3056 41.8929C43.297 41.9154 43.2712 41.9241 43.2506 41.9154Z" fill="white"/>
<path d="M48.5549 42.7027L43.8245 40.6688L43.5153 41.3974L48.2457 43.4313L48.5549 42.7027Z" fill="white"/>
<path d="M44.0662 40.7757L43.8228 40.6712L43.5141 41.4L43.7575 41.5045L44.0662 40.7757Z" fill="black"/>
<path d="M43.5491 39.9612L43.3895 39.8925L42.6405 41.6548L42.8001 41.7235L43.5491 39.9612Z" fill="black"/>
<path d="M39.8104 50.0276L37.4837 49.0277C37.4619 49.0183 37.4367 49.0285 37.4274 49.0505L36.7134 50.7338C36.704 50.7557 36.7142 50.7811 36.736 50.7905L39.0627 51.7904C39.0845 51.7998 39.1098 51.7896 39.1191 51.7676L39.8331 50.0844C39.8424 50.0624 39.8323 50.037 39.8104 50.0276Z" fill="white"/>
<path d="M44.3633 52.5799L34.433 48.3103L34.1238 49.0389L44.0541 53.3085L44.3633 52.5799Z" fill="white"/>
<path d="M39.8746 50.6519L39.6311 50.5474L39.3224 51.2762L39.5659 51.3807L39.8746 50.6519Z" fill="black"/>
<path d="M39.3539 49.8397L39.1943 49.7711L38.4463 51.5337L38.6059 51.6024L39.3539 49.8397Z" fill="black"/>
<path d="M60.1625 49.186L61.876 49.9299C61.8966 49.9385 61.9224 49.9299 61.931 49.9074L62.646 48.2225C62.6546 48.2017 62.646 48.1758 62.6236 48.1671L60.9101 47.4232C60.8878 47.4146 60.8637 47.4232 60.8551 47.4457L60.1401 49.1307C60.1315 49.1532 60.1401 49.1774 60.1625 49.186Z" fill="white"/>
<path d="M55.6222 46.5978L60.3526 48.6317L60.6619 47.9031L55.9314 45.8692L55.6222 46.5978Z" fill="white"/>
<path d="M60.1064 48.5272L60.3514 48.6326L60.6607 47.904L60.4157 47.7987L60.1064 48.5272Z" fill="black"/>
<path d="M60.6112 49.3783L60.7708 49.4469L61.5186 47.6841L61.3589 47.6155L60.6112 49.3783Z" fill="black"/>
<path d="M55.9684 59.0649L58.2949 60.0652C58.3168 60.0746 58.342 60.0644 58.3513 60.0424L59.0656 58.3593C59.0749 58.3373 59.0648 58.3119 59.043 58.3025L56.7165 57.3023C56.6946 57.2929 56.6694 57.3031 56.6601 57.325L55.9458 59.0082C55.9365 59.0301 55.9466 59.0555 55.9684 59.0649Z" fill="white"/>
<path d="M51.4293 56.4767L61.3597 60.7463L61.6689 60.0176L51.7385 55.7481L51.4293 56.4767Z" fill="white"/>
<path d="M55.9163 58.4056L56.1597 58.5103L56.469 57.7818L56.2256 57.6771L55.9163 58.4056Z" fill="black"/>
<path d="M56.4151 59.2586L56.5747 59.3272L57.3225 57.5644L57.1628 57.4958L56.4151 59.2586Z" fill="black"/>
<path d="M56.8453 33.437C55.0664 32.6723 53.5368 32.2018 53.2756 32.3298C53.2584 32.3385 53.2464 32.3488 53.2412 32.3627L52.8854 33.2017L52.7565 33.5044L48.1488 44.3613L55.0166 47.3143L60.1073 35.3156C60.2018 35.0942 58.7409 34.2517 56.8435 33.437H56.8453Z" fill="white"/>
<path d="M52.7755 37.7895L54.9376 32.6949C53.9717 32.3645 53.2997 32.2226 53.2396 32.3627L51.2201 37.12L52.7755 37.7895Z" fill="#035D3E"/>
<path d="M57.4024 32.1224C56.3419 31.6674 55.419 31.4477 55.3417 31.6328L55.1457 32.093L50.6996 42.571L54.5373 44.2214L54.7453 43.7301L54.9412 43.2699L59.1795 33.2814C59.2585 33.0963 58.4628 32.5773 57.4024 32.1206V32.1224Z" fill="black"/>
<path d="M57.2649 32.4476C56.2044 31.9927 55.2815 31.773 55.2024 31.958L50.9642 41.9466L54.802 43.5969L59.0402 33.6084C59.1193 33.4233 58.3235 32.9043 57.2631 32.4476H57.2649Z" fill="white"/>
<path d="M55.5788 36.4211C53.6831 35.6063 52.0675 35.1254 51.9747 35.3469L46.884 47.3455L53.7518 50.2985L58.8425 38.2998C58.937 38.0784 57.4762 37.2359 55.5788 36.4211Z" fill="black"/>
<path d="M52.3907 35.2827L53.6315 32.3332C53.4081 32.2986 53.2654 32.3022 53.2396 32.3627L52.0693 35.1443L52.3907 35.2827Z" fill="white"/>
<path d="M55.2436 37.21C51.5519 35.622 48.4102 34.6861 48.2263 35.1203L47.9307 35.8157C48.1146 35.3833 51.2563 36.3191 54.948 37.9055C58.6397 39.4935 61.4841 41.13 61.3002 41.5625L61.5958 40.8671C61.7797 40.4346 58.9353 38.7964 55.2436 37.21Z" fill="#A7BABD"/>
<path d="M60.7281 39.7338C60.6731 39.6975 60.6147 39.6612 60.5545 39.6231C59.4168 38.9086 57.5228 37.9485 55.3315 37.0057C55.3263 37.004 55.3212 37.0006 55.316 36.9988C55.1734 36.9366 55.0307 36.8777 54.8881 36.8172C54.8468 36.7999 54.8073 36.7826 54.7661 36.767C54.6389 36.7134 54.5117 36.6615 54.3862 36.6096C54.3656 36.6009 54.3467 36.5923 54.3261 36.5854C54.1834 36.5266 54.0408 36.4695 53.8998 36.4141C53.8638 36.4003 53.8294 36.3864 53.7933 36.3726C53.673 36.3242 53.5527 36.2775 53.4358 36.2308C53.4117 36.2221 53.3894 36.2117 53.3653 36.2031C53.2261 36.1494 53.0886 36.0958 52.9529 36.0456C52.9271 36.0353 52.9013 36.0266 52.8755 36.0162C52.7569 35.9713 52.6401 35.928 52.5249 35.8848C52.5026 35.8761 52.4802 35.8675 52.4579 35.8605C52.3238 35.8104 52.1915 35.7637 52.0609 35.717C52.0488 35.7118 52.0351 35.7083 52.0231 35.7031C51.9028 35.6599 51.7859 35.6201 51.669 35.5803C51.6501 35.5734 51.6329 35.5682 51.614 35.5613C51.3579 35.4748 51.1139 35.3935 50.8819 35.3208C50.8698 35.3174 50.8578 35.3139 50.8458 35.3087C50.6103 35.2343 50.3886 35.1686 50.1789 35.1098C50.1721 35.108 50.1652 35.1063 50.16 35.1046C49.9486 35.0458 49.7527 34.9956 49.5722 34.9541C49.5705 34.9541 49.5688 34.9541 49.5671 34.9541C49.0773 34.8399 48.7095 34.7932 48.5015 34.8209C48.5015 34.8209 48.486 34.8243 48.4792 34.8243C48.4585 34.8278 48.4396 34.833 48.4207 34.8382C48.4139 34.8399 48.4053 34.8434 48.3984 34.8468C48.3829 34.852 48.3709 34.8607 48.3589 34.8676C48.3537 34.871 48.3486 34.8745 48.3434 34.878C48.3296 34.8901 48.3176 34.9039 48.3125 34.9177L48.2953 34.961L48.2489 35.07L46.1572 39.9985L45.9029 40.6005L44.0003 45.0862L43.8749 45.3802C43.8749 45.3802 43.8749 45.382 43.8749 45.3837L38.4061 58.2715L51.7756 64.0183L55.0462 56.3115L55.1717 56.0175L57.2461 51.1287L57.3716 50.8312L61.6665 40.7095L61.6871 40.6628C61.6923 40.6489 61.6957 40.6351 61.6957 40.6195C61.6957 40.4448 61.3434 40.1334 60.7315 39.7355L60.7281 39.7338Z" fill="white"/>
<path d="M55.4639 37.0632C55.4192 37.0441 55.3762 37.0251 55.3316 37.0043C51.6399 35.418 48.4981 34.4804 48.3142 34.9146L38.4027 58.2701L38.6691 58.3843L48.5806 35.0288C48.7611 34.6015 51.8306 35.5097 55.4639 37.0632Z" fill="white"/>
<path d="M51.545 61.6138L60.0679 41.5278C60.214 41.1835 60.0868 40.7891 59.7671 40.6058C59.2343 40.2996 58.5864 39.9553 57.8508 39.592C57.4761 39.4069 57.0224 39.573 56.8591 39.9622L48.3414 60.0344C48.1885 60.3925 48.3414 60.8059 48.6869 60.9789C49.3812 61.3283 49.9999 61.6622 50.519 61.9632C50.8954 62.1829 51.3731 62.0203 51.5467 61.6138H51.545Z" fill="black"/>
<path d="M51.7721 64.0182C51.5882 64.4507 48.4465 63.5149 44.7548 61.9285C41.0631 60.3405 38.2187 58.704 38.4026 58.2715C38.5865 57.839 41.7282 58.7749 45.4199 60.3612C49.1116 61.9475 51.956 63.5858 51.7721 64.0182Z" fill="black"/>
<path d="M51.449 63.8801C51.2892 64.2572 48.3107 63.3386 44.7978 61.8267C41.2848 60.3165 38.5659 58.7855 38.7257 58.4101C38.8856 58.033 41.864 58.9516 45.377 60.4635C48.8899 61.9737 51.6089 63.5047 51.449 63.8801Z" fill="white"/>
<path d="M50.3559 63.4095C50.2425 63.6759 47.7934 62.8767 44.8837 61.626C41.974 60.3753 39.7071 59.1453 39.8188 58.8789C39.9322 58.6125 42.3831 59.41 45.2928 60.6624C48.2025 61.9132 50.4694 63.1431 50.3559 63.4095Z" fill="black"/>
<path d="M46.2609 61.7656L43.4618 60.5622L42.5288 62.7607L45.3279 63.9642L46.2609 61.7656Z" fill="white"/>
<path d="M46.2606 63.677L42.0896 61.8837C42.0661 61.8736 42.0388 61.8846 42.0287 61.9083L41.571 62.9869C41.5609 63.0107 41.5719 63.0381 41.5954 63.0482L45.7664 64.8415C45.79 64.8517 45.8173 64.8407 45.8273 64.8169L46.2851 63.7383C46.2951 63.7146 46.2842 63.6872 46.2606 63.677Z" fill="black"/>
<path d="M46.4028 62.5167L42.8245 60.9788C42.6372 60.8975 42.5495 60.6795 42.6303 60.491C42.7094 60.3024 42.9259 60.2142 43.1133 60.2955L46.6915 61.8334C46.8789 61.913 46.9665 62.1309 46.8857 62.3195C46.805 62.5081 46.5884 62.5963 46.4011 62.515L46.4028 62.5167Z" fill="white"/>
<path d="M44.189 63.2537C40.3667 61.6103 36.2522 62.0947 33.4972 64.1792C33.48 64.1913 33.4645 64.2034 33.4473 64.2173C33.37 64.2778 33.2927 64.3384 33.217 64.4006C33.1878 64.4249 33.1586 64.4491 33.1294 64.475C33.0624 64.5321 32.9936 64.5909 32.9283 64.6497C32.8922 64.6826 32.8578 64.7155 32.8217 64.7484C32.7616 64.8054 32.7014 64.8608 32.643 64.9179C32.5949 64.9646 32.5502 65.0148 32.5038 65.0632C32.4282 65.1428 32.3543 65.2223 32.2821 65.3054C32.2271 65.3677 32.1721 65.4299 32.1188 65.4939C32.0827 65.5372 32.0466 65.5839 32.0122 65.6289C31.9624 65.6912 31.9126 65.7552 31.8644 65.8209C31.8301 65.8659 31.7974 65.9126 31.7648 65.9593C31.7166 66.0268 31.6702 66.096 31.6238 66.1651C31.5946 66.2101 31.5637 66.2551 31.5362 66.3001C31.4863 66.3779 31.4399 66.4575 31.3935 66.5371C31.3712 66.5769 31.3471 66.6149 31.3248 66.6547C31.2578 66.7758 31.1924 66.8969 31.1306 67.0215L31.1271 67.0301L31.0618 67.1841C30.7714 68.2947 34.6968 70.9639 39.9611 73.2266C45.2254 75.4894 49.8623 76.5014 50.4587 75.524L50.524 75.37L50.5275 75.3614C52.1464 70.8359 49.3966 65.4939 44.1924 63.2554L44.189 63.2537Z" fill="white"/>
<path d="M50.4897 75.4667C50.4828 75.484 50.4707 75.51 50.4553 75.5221C49.8589 76.5012 45.2219 75.4875 39.9577 73.2248C34.6934 70.962 30.7697 68.2928 31.0584 67.1822C31.0584 67.1614 31.0687 67.1355 31.0756 67.1182C31.091 67.0836 31.1014 67.0576 31.1237 67.0282L31.1271 67.0196C31.8232 66.1148 36.4155 67.1164 41.6024 69.3463C46.798 71.5796 50.6925 74.2264 50.524 75.3577L50.5206 75.3664C50.5154 75.4044 50.5034 75.4304 50.4897 75.465V75.4667Z" fill="black"/>
<path d="M41.604 69.3529C37.1372 67.4327 33.1292 66.4225 31.6495 66.7563C33.2478 66.528 37.132 67.5348 41.439 69.3875C46.8012 71.6918 50.7782 74.4285 50.3245 75.4993C50.2489 75.6775 50.0444 75.7934 49.7487 75.8608C50.1406 75.8055 50.4003 75.6778 50.4897 75.4667C50.9434 74.3959 46.9645 71.6606 41.604 69.3547V69.3529Z" fill="white"/>
<path d="M42.0302 70.021L38.2543 77.8298L37.7954 77.6326L40.7893 69.4882C41.0059 69.5713 41.2173 69.6629 41.4304 69.7546C41.6349 69.8429 41.8377 69.9293 42.0302 70.0228V70.021Z" fill="white"/>
<path d="M39.0054 78.1531C38.7734 78.698 38.1478 78.9506 37.6064 78.7188C37.065 78.4852 36.8141 77.8555 37.0444 77.3106C37.2764 76.7657 37.902 76.5131 38.4434 76.7449C38.9848 76.9785 39.2357 77.6082 39.0054 78.1531Z" fill="white"/>
<path d="M38.1014 78.551C37.5601 78.3174 37.3091 77.6877 37.5394 77.1428C37.6288 76.9318 37.7886 76.7813 37.9674 76.6688C37.5755 76.6913 37.2077 76.9214 37.0427 77.3089C36.8107 77.8538 37.0634 78.4852 37.6047 78.717C37.9364 78.8589 38.2905 78.8035 38.5758 78.6254C38.4177 78.634 38.2561 78.6167 38.1014 78.551Z" fill="black"/>
<path d="M46.0018 62.3727L43.2027 61.1693L43.0636 61.497L45.8627 62.7004L46.0018 62.3727Z" fill="black"/>
<path d="M45.7011 63.0765L42.902 61.8731L42.763 62.2008L45.5621 63.4043L45.7011 63.0765Z" fill="black"/>
<path d="M46.7602 65.2657C49.2815 69.625 47.9702 71.6611 47.9702 71.6611C47.9702 71.6611 48.9309 72.1593 49.7369 72.9274C50.543 73.6955 50.6908 73.9706 50.6908 73.9706C50.6908 73.9706 50.9899 72.0763 50.1322 69.5074C49.2746 66.9385 46.7585 65.2657 46.7585 65.2657H46.7602Z" fill="white"/>
<path d="M56.4922 36.1231L57.8238 33.0064C58.3945 33.3207 58.7752 33.5533 58.7206 33.6807L57.4838 36.6115L56.4922 36.1231Z" fill="white"/>
<path d="M44.0103 38.3117L6.27868 22.0903C6.25462 22.0799 6.22712 22.0903 6.21681 22.1145L-0.0116432 36.7894C-0.0219552 36.8136 -0.0116433 36.8413 0.012418 36.8516L37.7423 53.073C37.7664 53.0834 37.7939 53.073 37.8025 53.0488L44.0292 38.374C44.0395 38.3497 44.0292 38.3221 44.0052 38.3117H44.0103ZM6.54335 38.713L19.2942 28.6346L26.3785 31.6809C21.4631 34.8847 16.4394 38.1716 12.0139 41.0657L6.54164 38.713H6.54335ZM42.3346 39.0036L42.1542 39.4275C35.7899 41.73 29.4532 44.0169 23.6905 46.0842L15.7434 42.6676C20.6605 39.9845 26.2169 36.952 31.6961 33.9644L42.0235 38.4051C42.2882 38.5193 42.4274 38.7874 42.3346 39.0036Z" fill="white"/>
<path d="M42.1644 39.405L42.1558 39.4274C35.7916 41.73 29.4549 44.0169 23.6922 46.0841L36.8795 51.7548C36.9019 51.7634 36.9259 51.7548 36.9345 51.7323L42.1644 39.4067V39.405Z" fill="black"/>
<path d="M19.282 28.6275L7.14648 23.4101C7.12413 23.4015 7.10007 23.4101 7.09148 23.4326L1.54018 36.5142C1.53159 36.5367 1.54018 36.5609 1.56252 36.5695L6.54494 38.7112L19.2682 28.6535C19.2734 28.6431 19.2786 28.6362 19.2837 28.6258L19.282 28.6275Z" fill="black"/>
<path d="M26.3734 31.6773L26.3802 31.6808C21.4648 34.8846 16.4412 38.1714 12.0156 41.0655L11.995 41.0569L15.7434 42.6692C20.6605 39.9861 26.217 36.9535 31.6961 33.966L31.7047 33.9694L26.3734 31.6773Z" fill="black"/>
<path d="M62.1422 46.1675L55.9344 60.851C55.9241 60.8752 55.9344 60.9029 55.9585 60.9115L93.7107 77.0827C93.7348 77.0931 93.7623 77.0827 93.7726 77.0585L99.9804 62.375C99.9907 62.3508 99.9804 62.3231 99.9563 62.3127L62.2058 46.1415C62.1817 46.1312 62.1542 46.1415 62.1439 46.1658L62.1422 46.1675ZM82.3812 71.2858C81.393 66.0684 80.2707 60.1434 79.1639 54.3551L86.2534 57.3911L87.8552 73.6298L82.3812 71.284V71.2858ZM63.512 47.65L73.8463 52.0769C75.498 58.1246 77.172 64.2589 78.6517 69.6873L70.6995 66.2811C68.1919 60.6641 65.4438 54.4797 62.6887 48.2624L62.8675 47.8386C62.9603 47.6206 63.2473 47.5376 63.512 47.65Z" fill="white"/>
<path d="M62.6973 48.2418L62.6887 48.2642C65.4437 54.4815 68.1918 60.666 70.6994 66.283L57.5034 60.6296C57.4811 60.621 57.4725 60.595 57.4811 60.5743L62.6955 48.2418H62.6973Z" fill="black"/>
<path d="M86.2654 57.3965L98.4078 62.5983C98.4302 62.607 98.4388 62.6329 98.4302 62.6537L92.8961 75.7422C92.8875 75.7647 92.8617 75.7733 92.8411 75.7647L87.8569 73.63L86.2586 57.4259C86.262 57.4155 86.2637 57.4052 86.2672 57.3965H86.2654Z" fill="black"/>
<path d="M79.1708 54.357H79.1639C80.2707 60.1419 81.393 66.0666 82.3812 71.284L82.4019 71.2929L78.6517 69.6858C77.1702 64.2573 75.4962 58.1213 73.8463 52.0753L73.8377 52.0718L79.1708 54.357Z" fill="black"/>
</g>
<defs>
<clipPath id="clip0_15980_9097">
<rect width="100" height="100" fill="white"/>
</clipPath>
</defs>
</svg>
