<svg width="100" height="100" viewBox="0 0 100 100" fill="none" xmlns="http://www.w3.org/2000/svg">
<rect width="100" height="100" fill="#A19FFF"/>
<path d="M73.8548 60.1777C70.193 56.403 63.5721 56.4898 56.934 59.7785C56.2224 62.937 53.654 75.1807 39.5707 83.8928C39.5881 86.7303 40.4384 89.2294 42.2086 91.0516C47.467 96.4663 58.8084 93.9412 67.5465 85.4113C76.2845 76.8815 79.1133 65.5837 73.8635 60.1777H73.8548Z" fill="white"/>
<path d="M81.3251 25.5976C84.5645 13.8689 81.1203 2.68435 73.6323 0.616174C66.1442 -1.452 57.4479 6.37939 54.2085 18.1081C50.969 29.8367 54.4132 41.0213 61.9013 43.0894C69.3893 45.1576 78.0857 37.3262 81.3251 25.5976Z" fill="white"/>
<path d="M81.3166 5.27583L87.3821 6.64687C85.7768 4.03499 83.564 2.17803 80.8567 1.43178L75.6156 0C77.9758 0.954507 79.9022 2.81147 81.3166 5.27583Z" fill="black"/>
<path d="M88.6777 9.20643L82.5168 7.81808C82.7337 8.39946 82.9332 8.9982 83.1154 9.61429L89.3198 11.0113C89.1289 10.3866 88.9206 9.78781 88.6863 9.20643H88.6777Z" fill="black"/>
<path d="M83.9835 14.6652C84.2438 18.2056 83.8881 22.093 82.7947 26.0412C79.3758 38.4151 70.1518 46.6586 62.186 44.4806L68.4858 46.2768C76.4603 48.4808 85.7017 40.2287 89.1205 27.8374C90.2486 23.7417 90.6043 19.7155 90.2833 16.071L83.9922 14.6566L83.9835 14.6652Z" fill="black"/>
<path d="M56.9888 18.9433C59.8523 8.56525 67.4016 1.52791 74.0918 2.81216C73.7968 2.69067 73.4931 2.57787 73.1807 2.4911C66.343 0.599439 58.3945 7.75828 55.4355 18.4748C52.4766 29.1913 55.6178 39.4132 62.4643 41.2962C62.6812 41.3569 62.8981 41.409 63.1151 41.4437C56.9194 38.9272 54.1774 29.1566 57.0062 18.9347L56.9888 18.9433Z" fill="black"/>
<path d="M78.0401 27.6725C78.5781 25.9804 78.9338 24.2884 79.1074 22.6484C78.1702 25.2516 76.7732 26.2321 76.0096 26.4577C75.1245 26.718 74.1873 26.3535 74.1873 26.3535C71.3238 35.0048 66.7855 37.3998 63.3493 37.2957C61.3448 37.235 59.9044 36.0375 59.0541 35.0569C60.0346 37.3564 61.5878 39.0485 63.6097 39.76C68.8595 41.5996 75.3154 36.185 78.0314 27.6725H78.0401Z" fill="#A19FFF"/>
<path d="M77.9392 67.857L82.356 71.9787C82.3386 68.9503 81.4188 66.2777 79.5272 64.3253L75.8393 60.5507C77.3405 62.5204 78.0087 65.0455 77.9392 67.857Z" fill="black"/>
<path d="M82.1385 74.8079L77.6523 70.6254C77.5395 71.2328 77.4007 71.8402 77.2358 72.4563L81.7481 76.6648C81.9043 76.0401 82.0431 75.4153 82.1385 74.7992V74.8079Z" fill="black"/>
<path d="M75.3809 77.2283C73.793 80.4042 71.4935 83.5801 68.5432 86.4523C59.3192 95.4507 47.3185 98.0713 41.7129 92.3356L46.1036 96.9432C51.7005 102.705 63.7187 100.084 72.9514 91.0773C76.0058 88.101 78.366 84.8036 79.9626 81.5062L75.3809 77.237V77.2283Z" fill="black"/>
<path d="M65.1108 82.991C69.5883 78.6263 72.1915 73.4025 72.4692 69.0552C69.9267 77.0383 64.3039 76.4656 64.3039 76.4656C62.2907 81.1166 58.143 85.3425 53.3444 87.373C49.6826 88.9262 46.4459 88.449 44.7365 87.8502C48.945 92.0501 58.0301 89.8981 65.1108 82.9996V82.991Z" fill="#A19FFF"/>
<path d="M29.3622 67.2239C40.6775 71.8142 52.7216 68.7077 55.5764 61.2885C58.4313 53.8694 51.5762 44.1334 40.2609 39.5431C28.9457 34.9528 17.4569 37.2437 14.6021 44.6628C11.7472 52.0819 18.0557 62.6336 29.3622 67.2325V67.2239Z" fill="white"/>
<path d="M39.3834 42.0424C29.3697 37.9814 19.0697 40.0466 16.0674 46.3203C16.1541 45.9993 16.241 45.6869 16.3625 45.3745C18.9743 38.5975 29.4651 36.5063 39.8085 40.6974C50.1519 44.8973 56.417 53.7915 53.8051 60.5685C53.727 60.7854 53.6316 60.9937 53.5361 61.1933C55.2629 54.5551 49.2495 46.0427 39.3834 42.0424Z" fill="black"/>
<path d="M39.3308 43.3962C30.9138 39.986 22.4186 41.2355 19.4163 46.0862C20.6571 44.854 22.9653 43.2227 26.7226 42.8149C32.9703 42.138 38.8102 44.585 40.2159 49.748C40.2159 49.748 45.1446 46.5548 49.7523 51.1885C47.5135 48.0733 43.8604 45.2271 39.3308 43.3875V43.3962Z" fill="#A19FFF"/>
<path d="M42.9727 75.5544C41.5669 78.4266 41.1158 80.8736 41.1678 82.8868C41.5496 82.6351 41.9228 82.3835 42.2785 82.1232C42.5996 78.227 44.2916 75.2767 44.2916 75.2767L42.9727 75.5544Z" fill="black"/>
<path d="M42.2813 82.1228C41.9169 82.3832 41.5437 82.6348 41.1706 82.8865C41.2747 87.3466 43.8086 89.6548 43.8086 89.6548C42.3855 87.0863 42.0904 84.4397 42.2813 82.1228Z" fill="black"/>
<path d="M12.1956 46.5373L10.3821 52.3251C9.65319 54.5118 9.99155 57.7137 11.189 60.0132L13.0894 54.6506C11.97 51.9607 11.5361 49.0624 12.1869 46.5373H12.1956Z" fill="black"/>
<path d="M12.4066 62.8075C12.7277 63.3628 13.0834 63.9095 13.4652 64.4475L15.5999 58.7205C15.2094 58.1912 14.8537 57.6618 14.5239 57.1238L12.4066 62.8161V62.8075Z" fill="black"/>
<path d="M56.1626 62.781C56.1626 62.781 55.963 63.4231 55.5378 64.2648L55.9977 63.1628C52.9433 71.0419 39.7104 73.0637 28.6728 68.5167C24.8721 66.9461 22.1562 65.4623 19.4922 63.0587L17.4096 68.751C20.4641 71.2675 22.6681 72.5343 26.6163 74.1309C38.2352 78.8514 50.5049 75.4239 53.247 69.7663C53.3684 69.558 55.0258 66.6337 56.0671 63.1281L56.1713 62.781H56.1626Z" fill="black"/>
</svg>
