<svg width="100" height="100" viewBox="0 0 100 100" fill="none" xmlns="http://www.w3.org/2000/svg">
<g clip-path="url(#clip0_15980_9123)">
<rect width="100" height="100" fill="#A19FFF"/>
<path d="M84.6824 15.0752L26.5099 4.77185L4.91039 72.7205L0.855943 73.8001L2.82614 77.0289C3.27203 77.8001 4.04973 78.3451 4.93113 78.4994L71.7413 90.3349C72.7472 90.5097 73.7323 89.9235 74.0434 88.9569L92.0136 32.4223C92.3246 31.4351 92.2417 30.3657 91.7854 29.4299L84.6927 15.0752H84.6824Z" fill="black"/>
<path d="M80.2545 9.76123L34.6497 1.67898L26.7171 26.6353C26.3127 27.8898 27.1215 29.2163 28.4281 29.4425L68.7029 36.5787C70.3413 36.8666 71.9382 35.9104 72.4359 34.3371L80.2441 9.751L80.2545 9.76123Z" fill="white"/>
<path d="M80.7004 9.84047L25.3588 0.0307231C24.353 -0.144084 23.3679 0.441999 23.0568 1.40858L0.596594 72.0821C0.223295 73.2441 0.969892 74.4574 2.18311 74.6734L69.5014 86.6014C70.5073 86.7762 71.4924 86.1901 71.8035 85.2235L89.9292 28.185C90.2403 27.1978 90.1573 26.1284 89.7011 25.1926L82.9091 11.4755C82.4839 10.6117 81.6648 10.005 80.7108 9.83018L80.7004 9.84047Z" fill="white"/>
<path d="M19.9252 43.4478L9.58692 75.9826L61.3926 85.1651L71.8553 52.2499C72.2597 50.9954 71.4509 49.6689 70.1444 49.4427L23.6582 41.2062C22.0199 40.9183 20.423 41.8746 19.9252 43.4478Z" fill="black"/>
<path d="M52.9002 33.7828L68.7136 36.5797C70.352 36.8676 71.9489 35.9113 72.4466 34.338L80.2548 9.75194L59.1115 6.009L51.1789 30.9653C50.7745 32.2198 51.5833 33.5463 52.8899 33.7725L52.9002 33.7828Z" fill="black"/>
<path d="M5.60498 2.34576C5.60498 2.34576 7.04633 7.08612 12.8947 8.39204C12.8947 8.39204 8.46694 9.15296 8.37362 14.428C8.37362 14.428 6.8182 9.85219 1.20834 8.39204C1.20834 8.39204 5.89533 7.83676 5.60498 2.34576Z" fill="white"/>
<path d="M29.2678 87.9177C29.2678 87.9177 30.7092 92.6581 36.5575 93.964C36.5575 93.964 32.1298 94.7249 32.0365 100C32.0365 100 30.481 95.4242 24.8712 93.964C24.8712 93.964 29.5582 93.4087 29.2678 87.9177Z" fill="white"/>
<path d="M85.6464 36.4396C85.6464 36.4396 88.384 45.4473 99.5 47.9357C99.5 47.9357 91.08 49.3753 90.9141 59.401C90.9141 59.401 87.9485 50.7121 77.2991 47.9254C77.2991 47.9254 86.196 46.8766 85.6464 36.4396Z" fill="white"/>
<path d="M49.8931 33.2574C49.7064 32.8667 49.6131 32.4656 49.5716 32.0955L28.895 28.4553C28.895 28.4553 28.8743 28.4553 28.8639 28.4553C28.1795 28.3216 27.7751 27.6019 27.9825 26.9335L35.9151 1.91547L34.6604 1.67898L26.7278 26.6353C26.3648 27.7664 26.9041 28.8667 28.0758 29.3397C28.2521 29.4322 28.7083 29.5351 28.7083 29.5351L49.8931 33.2574Z" fill="black"/>
<path d="M77.2785 11.2297L70.611 32.1141C70.611 32.1141 73.3381 22.3865 68.5993 17.677C68.5993 17.677 72.3012 11.9084 64.7833 8.95726L77.2889 11.2297H77.2785Z" fill="white"/>
</g>
<defs>
<clipPath id="clip0_15980_9123">
<rect width="100" height="100" fill="white"/>
</clipPath>
</defs>
</svg>
