<svg width="100" height="100" viewBox="0 0 100 100" fill="none" xmlns="http://www.w3.org/2000/svg">
<g clip-path="url(#clip0_15980_9137)">
<rect width="100" height="100" fill="#A19FFF"/>
<path d="M84.8288 80.1428H83.1644L73.7186 59.992H13.7752L4.32945 80.1428H2.66507V84.2429C2.64791 85.6408 3.77182 86.9023 5.31609 86.9023H82.1778C83.7135 86.9023 84.8374 85.6408 84.8202 84.2429V80.1428H84.8288Z" fill="black"/>
<path d="M73.727 55.9498H13.7836L2.9222 79.1181C2.10717 80.857 3.38552 82.8601 5.32444 82.8601H82.1861C84.125 82.8601 85.4033 80.8655 84.5883 79.1181L73.727 55.9498Z" fill="white"/>
<path d="M16.555 13.9023H70.9476C72.4061 13.9023 73.59 15.0787 73.59 16.5277V54.4085H13.9126V16.5363C13.9126 15.0872 15.0965 13.9109 16.555 13.9109V13.9023Z" fill="white"/>
<path d="M76.464 70.3639L71.8055 60.5783C71.5138 59.9646 70.8961 59.5725 70.2097 59.5725H17.2842C16.5979 59.5725 15.9801 59.9646 15.6884 60.5783L11.0299 70.3639C10.6181 71.2333 11.253 72.2392 12.2224 72.2392H27.1332C27.6737 72.2392 28.0855 72.7165 28.0083 73.245L27.8367 74.3361C27.7166 75.1288 28.3343 75.8533 29.1408 75.8533H58.336C59.151 75.8533 59.7688 75.1373 59.6401 74.3361L59.4685 73.245C59.3827 72.7165 59.8031 72.2392 60.3436 72.2392H75.2544C76.2238 72.2392 76.8672 71.2333 76.4468 70.3639H76.464Z" fill="black"/>
<path d="M43.7513 19.2624C44.3341 19.2624 44.8065 18.7929 44.8065 18.2139C44.8065 17.6349 44.3341 17.1654 43.7513 17.1654C43.1685 17.1654 42.6961 17.6349 42.6961 18.2139C42.6961 18.7929 43.1685 19.2624 43.7513 19.2624Z" fill="black"/>
<path d="M73.59 43.7098H13.9126V47.8439H73.59V43.7098Z" fill="#A19FFF"/>
<path d="M84.8887 25.4597H2.61345C1.13987 25.4597 -0.0546875 26.6466 -0.0546875 28.1107V42.1583C-0.0546875 43.6224 1.13987 44.8093 2.61345 44.8093H84.8887C86.3623 44.8093 87.5568 43.6224 87.5568 42.1583V28.1107C87.5568 26.6466 86.3623 25.4597 84.8887 25.4597Z" fill="black"/>
<path d="M16.1343 31.7756L12.205 34.026V29.5253H10.9181V34.026L6.98886 31.7756L6.34542 32.8837L10.2747 35.1341L6.34542 37.393L6.98886 38.5011L10.9181 36.2422V40.7514H12.205V36.2422L16.1343 38.5011L16.7778 37.393L12.8485 35.1341L16.7778 32.8837L16.1343 31.7756Z" fill="white"/>
<path d="M31.0623 31.7756L27.133 34.026V29.5253H25.8461V34.026L21.9168 31.7756L21.2733 32.8837L25.2026 35.1341L21.2733 37.393L21.9168 38.5011L25.8461 36.2422V40.7514H27.133V36.2422L31.0623 38.5011L31.7057 37.393L27.7764 35.1341L31.7057 32.8837L31.0623 31.7756Z" fill="white"/>
<path d="M45.9902 31.7756L42.0609 34.026V29.5253H40.774V34.026L36.8447 31.7756L36.2013 32.8837L40.1306 35.1341L36.2013 37.393L36.8447 38.5011L40.774 36.2422V40.7514H42.0609V36.2422L45.9902 38.5011L46.6336 37.393L42.7044 35.1341L46.6336 32.8837L45.9902 31.7756Z" fill="white"/>
<path d="M60.9184 31.7756L56.989 34.026V29.5253H55.7022V34.026L51.7728 31.7756L51.1294 32.8837L55.0587 35.1341L51.1294 37.393L51.7728 38.5011L55.7022 36.2422V40.7514H56.989V36.2422L60.9184 38.5011L61.5618 37.393L57.6325 35.1341L61.5618 32.8837L60.9184 31.7756Z" fill="white"/>
<path d="M76.4895 32.8837L75.8461 31.7756L71.9168 34.026V29.5253H70.6299V34.026L66.7006 31.7756L66.0571 32.8837L69.9865 35.1341L66.0571 37.393L66.7006 38.5011L70.6299 36.2422V40.7514H71.9168V36.2422L75.8461 38.5011L76.4895 37.393L72.5602 35.1341L76.4895 32.8837Z" fill="white"/>
<path d="M81.7831 27.7106H80.4962V42.568H81.7831V27.7106Z" fill="white"/>
<path d="M99.9453 61.4251L85.9353 51.4946L88.166 68.4489L92.0953 63.6584L98.075 73.5463L99.8166 72.5063L93.8455 62.6185L99.9453 61.4251Z" fill="white"/>
</g>
<defs>
<clipPath id="clip0_15980_9137">
<rect width="100" height="100" fill="white"/>
</clipPath>
</defs>
</svg>
