<svg width="100" height="100" viewBox="0 0 100 100" fill="none" xmlns="http://www.w3.org/2000/svg">
<g clip-path="url(#clip0_15980_9209)">
<rect width="100" height="100" fill="#A19FFF"/>
<path d="M6.87575 42.8584C6.87575 42.8584 9.1459 50.3606 18.3665 52.4301C18.3665 52.4301 11.386 53.634 11.246 61.972C11.246 61.972 8.78587 54.7484 -0.0546875 52.4202C-0.0546875 52.4202 7.33578 51.5446 6.87575 42.8484V42.8584Z" fill="white"/>
<path d="M55.2588 4.40234C55.2588 4.40234 56.7289 9.25786 62.6993 10.6011C62.6993 10.6011 58.179 11.3772 58.089 16.7799C58.089 16.7799 56.4989 12.1035 50.7785 10.6011C50.7785 10.6011 55.5588 10.0339 55.2588 4.41229V4.40234Z" fill="white"/>
<path d="M98.7416 40.152C98.6516 39.4854 98.2115 38.8984 97.5115 38.4904L69.8797 22.4414C69.2897 22.1031 68.5897 21.9439 67.8896 21.9439C66.7895 21.9439 65.6695 22.3518 64.9394 23.108L55.0788 33.3663C43.5581 45.5249 31.8773 57.5145 20.2766 69.5836C19.7466 70.1408 19.4965 70.7975 19.5966 71.4442C19.6966 72.1109 20.1366 72.7079 20.8366 73.1058L48.4784 89.1549C49.9985 90.0305 52.2086 89.732 53.4087 88.4883L98.0715 42.0127C98.6016 41.4654 98.8516 40.7988 98.7516 40.152H98.7416Z" fill="white"/>
<path d="M99.9316 46.3408L99.4516 41.9331C99.2916 42.2216 99.0916 42.5102 98.8416 42.7688L54.1787 89.2444C53.2487 90.2195 51.8286 90.7369 50.4285 90.7369C49.5485 90.7369 48.6684 90.528 47.9184 90.1001L20.2766 74.0511C19.3765 73.5337 18.7865 72.7775 18.5665 71.9019L19.1565 77.3445C19.2465 78.1703 19.7666 78.9563 20.6666 79.4837L48.8284 95.8312C50.5585 96.8262 53.0687 96.4879 54.4288 95.075L99.0916 48.5994C99.7416 47.9228 100.012 47.1269 99.9316 46.3707V46.3408Z" fill="black"/>
<path d="M36.3076 86.1998C36.4676 85.7521 36.1776 85.1352 35.6476 84.8367L31.6673 82.5184C31.1473 82.2199 30.5973 82.3393 30.4372 82.787C30.2772 83.2348 30.5673 83.8516 31.0973 84.1501L35.0775 86.4685C35.5976 86.7669 36.1476 86.6475 36.3076 86.1998Z" fill="#A19FFF"/>
<path d="M42.278 73.4939C44.0981 74.5386 44.4081 76.5883 42.978 78.0708C41.5579 79.5533 38.9278 79.9115 37.1177 78.8668C35.2975 77.8221 34.9775 75.7724 36.4076 74.2899C37.8277 72.8073 40.4579 72.4492 42.278 73.4939Z" fill="black"/>
<path d="M76.4101 30.8987C77.0402 31.2569 77.1502 31.9733 76.6602 32.4807C76.1701 32.9882 75.2501 33.1175 74.63 32.7593C74 32.4011 73.89 31.6847 74.39 31.1773C74.8801 30.6699 75.7901 30.5405 76.4202 30.8987H76.4101Z" fill="black"/>
<path d="M85.2307 35.9632C85.8607 36.3214 85.9708 37.0378 85.4807 37.5452C84.9907 38.0526 84.0706 38.182 83.4506 37.8238L78.3903 34.9184C77.7602 34.5602 77.6502 33.8439 78.1403 33.3265C78.6303 32.819 79.5404 32.6897 80.1704 33.0479L85.2307 35.9532V35.9632Z" fill="black"/>
<path d="M87.7009 57.4349C87.9109 57.8229 88.3209 57.8926 88.6209 57.5742L93.0212 53.0072C93.3212 52.6988 93.4012 52.1316 93.1912 51.7336C92.9812 51.3456 92.5712 51.2759 92.2712 51.5943L87.8709 56.1613C87.5709 56.4697 87.4909 57.0369 87.7009 57.4349Z" fill="#A19FFF"/>
<path d="M81.1905 64.1908C81.4005 64.5788 81.8105 64.6485 82.1105 64.3301L86.5108 59.7631C86.8108 59.4547 86.8908 58.8876 86.6808 58.4896C86.4708 58.1015 86.0608 58.0319 85.7607 58.3503L81.3605 62.9172C81.0604 63.2257 80.9804 63.7928 81.1905 64.1908Z" fill="#A19FFF"/>
<path d="M53.6487 44.3011L37.6777 51.5545L25.3169 64.36L38.2077 68.7876C39.3478 69.1657 42.608 70.7278 44.0881 67.2056L53.6587 44.2912L53.6487 44.3011Z" fill="black"/>
<path d="M73.0699 49.3656C73.0699 49.3656 74.07 52.659 78.1303 53.5743C78.1303 53.5743 75.0601 54.1017 74.9901 57.7732C74.9901 57.7732 73.91 54.5892 70.0197 53.5743C70.0197 53.5743 73.27 53.1863 73.0699 49.3656Z" fill="#A19FFF"/>
<path d="M18.2865 14.0437L7.06576 32.0529C6.27571 33.3165 6.73574 35.0876 8.08583 36.0229L50.1685 65.0067C51.3586 65.8226 52.8587 65.4843 53.5187 64.2605L67.4496 38.6596C68.0696 37.5153 67.6796 35.9035 66.5595 35.0677L35.7576 11.8946C33.1574 9.93444 33.0974 9.65585 31.1573 9.89464C30.5272 9.97424 22.7268 10.9394 22.1667 11.009C20.0966 11.2578 20.0966 11.1284 18.2765 14.0437H18.2865Z" fill="white"/>
<path d="M18.6865 13.3174L7.46579 31.3266C6.67574 32.5902 7.13577 34.3612 8.48585 35.2965L50.5685 64.2804C51.7586 65.0962 53.2587 64.7579 53.9187 63.5341L67.8496 37.9332C68.4697 36.789 68.0796 35.1771 66.9596 34.3413L36.1576 11.1782C33.5574 9.21806 33.4974 8.93946 31.5573 9.17826C30.9273 9.25786 23.1268 10.223 22.5667 10.2926C20.4966 10.5414 20.4966 10.412 18.6765 13.3273L18.6865 13.3174Z" fill="black"/>
<path d="M33.5574 26.9984L30.4072 32.2917L37.0977 37.0775L40.1779 31.8041L33.5574 26.9984Z" fill="white"/>
<path d="M40.7379 30.8291L44.0481 25.1477L39.4878 21.7648C38.4077 20.9588 37.0177 21.1578 36.3976 22.2125L34.1375 26.0134L40.7479 30.8291H40.7379Z" fill="white"/>
<path d="M52.1586 31.1574L45.0282 25.884L37.5277 38.7989L29.8172 33.2966L27.4971 37.1969C26.847 38.2914 27.237 39.8237 28.3571 40.6097L41.5379 49.8432L52.1586 31.1574Z" fill="white"/>
<path d="M45.8382 44.7091L42.538 50.5397L48.1984 54.5096C49.2584 55.2559 50.5985 54.9773 51.1986 53.9027L53.3287 50.0521L45.8482 44.719L45.8382 44.7091Z" fill="white"/>
<path d="M50.0185 37.3163L57.3889 42.6892L59.3591 39.1372C59.9291 38.1024 59.5791 36.6497 58.559 35.8935L53.1187 31.8638L50.0285 37.3263L50.0185 37.3163Z" fill="white"/>
<path d="M53.8587 49.0671L56.8589 43.6544L49.4684 38.2914L46.3883 43.724L53.8587 49.0671Z" fill="white"/>
</g>
<defs>
<clipPath id="clip0_15980_9209">
<rect width="100" height="100" fill="white"/>
</clipPath>
</defs>
</svg>
