<svg width="100" height="100" viewBox="0 0 100 100" fill="none" xmlns="http://www.w3.org/2000/svg">
<g clip-path="url(#clip0_15980_9279)">
<rect width="100" height="100" fill="#A19FFF"/>
<path d="M53.4632 19.0806C31.3036 19.0806 13.1456 32.3838 11.4565 49.2876C12.8641 65.8384 31.1628 78.9802 53.4632 78.9802C75.7636 78.9802 94.0624 65.8384 95.47 49.2876C93.7808 32.3838 75.6329 19.0806 53.4632 19.0806Z" fill="#A19FFF"/>
<path d="M53.4631 14.0456C29.916 14.0456 10.833 28.8919 10.833 47.1976C10.833 48.4584 10.9335 49.709 11.1145 50.9395C11.2151 50.2536 11.3458 49.5779 11.5066 48.9021C13.427 32.19 31.4744 19.0784 53.4731 19.0784C75.4719 19.0784 93.5193 32.1799 95.4397 48.9021C95.5905 49.5779 95.7312 50.2536 95.8318 50.9395C96.0128 49.709 96.1133 48.4684 96.1133 47.1976C96.1133 28.8919 77.0303 14.0456 53.4832 14.0456H53.4631Z" fill="black"/>
<path d="M88.0195 38.7389C87.919 38.5573 87.728 38.4262 87.4967 38.3556C87.2554 38.285 86.9739 38.2749 86.7225 38.3556L55.6749 47.4833C55.3532 47.2109 54.941 46.979 54.4483 46.8277C52.7793 46.3133 50.8187 46.868 50.0848 48.0682C49.9239 48.3305 49.8435 48.5927 49.8234 48.8549H49.8133V48.9356C49.8133 48.9356 49.8133 49.0163 49.8133 49.0566V49.7324C49.7831 50.6603 50.5272 51.5378 51.784 51.921C53.463 52.4354 55.4236 51.8807 56.1676 50.6805C56.238 50.5695 56.2883 50.4687 56.3285 50.3577C56.4089 50.1459 56.4391 49.9442 56.4391 49.7324H56.4491V48.8549H56.429C56.429 48.8549 56.429 48.8146 56.429 48.7944L87.4766 39.6668C87.9894 39.5155 88.2407 39.1019 88.0296 38.7288L88.0195 38.7389Z" fill="black"/>
<path d="M63.4167 30.5009L65.2667 31.0657L68.9164 25.1453L67.0765 24.5805L63.4167 30.5009Z" fill="black"/>
<path d="M37.2858 72.8692L39.1257 73.434L42.7855 67.5136L40.9355 66.9488L37.2858 72.8692Z" fill="black"/>
<path d="M78.9305 56.1381L78.1161 57.4593L86.3807 60.0009L87.1951 58.6696L78.9305 56.1381Z" fill="black"/>
<path d="M19.007 39.3364L27.2716 41.8679L28.086 40.5467L19.8214 38.0151L19.007 39.3364Z" fill="black"/>
<path d="M76.9803 28.809L75.4219 27.9215L71.1488 31.7339L72.7072 32.6214L76.9803 28.809Z" fill="white"/>
<path d="M29.2223 69.2112L30.7807 70.0987L35.0538 66.2762L33.4953 65.3887L29.2223 69.2112Z" fill="white"/>
<path d="M77.9252 36.7431L83.4349 33.8384L82.2485 32.6886L76.7488 35.6034L77.9252 36.7431Z" fill="white"/>
<path d="M28.2773 61.2677L22.7675 64.1825L23.9539 65.3322L29.4536 62.4174L28.2773 61.2677Z" fill="white"/>
<path d="M24.7381 56.3035L18.3938 58.1089L19.1177 59.4402L25.462 57.6349L24.7381 56.3035Z" fill="white"/>
<path d="M83.0529 47.1768L89.8195 46.6019L89.6083 45.1698L82.8418 45.7547L83.0529 47.1768Z" fill="white"/>
<path d="M23.1495 50.843L16.383 51.4179L16.5941 52.84L23.3606 52.2651L23.1495 50.843Z" fill="white"/>
<path d="M82.6004 52.7515L89.3368 53.4474L89.6384 52.0253L82.9121 51.3394L82.6004 52.7515Z" fill="white"/>
<path d="M23.6021 45.2568L16.8657 44.5709L16.5641 45.9829L23.2904 46.6789L23.6021 45.2568Z" fill="white"/>
<path d="M46.4451 74.9037L48.4258 75.1054L49.4715 70.2944L47.4908 70.0927L46.4451 74.9037Z" fill="white"/>
<path d="M56.7306 27.7188L58.7113 27.9205L59.757 23.1096L57.7763 22.9179L56.7306 27.7188Z" fill="white"/>
<path d="M55.3133 70.343L56.0372 75.164L58.0481 75.0026L57.3141 70.1715L55.3133 70.343Z" fill="white"/>
<path d="M48.1545 23.0185L48.8884 27.8395L50.8892 27.668L50.1653 22.847L48.1545 23.0185Z" fill="white"/>
<path d="M62.9944 69.1381L65.4476 73.6464L67.3278 73.1119L64.8645 68.6035L62.9944 69.1381Z" fill="white"/>
<path d="M38.8745 24.8922L41.3378 29.4006L43.2079 28.8661L40.7546 24.3678L38.8745 24.8922Z" fill="white"/>
<path d="M69.9923 66.569L74.014 70.452L75.6428 69.5947L71.6211 65.7117L69.9923 66.569Z" fill="white"/>
<path d="M30.5596 28.4264L34.5813 32.3094L36.2101 31.4521L32.1884 27.559L30.5596 28.4264Z" fill="white"/>
<path d="M75.8441 62.7991L81.1527 65.7946L82.4095 64.6751L77.1008 61.6695L75.8441 62.7991Z" fill="white"/>
<path d="M30.3585 35.2214L25.0499 32.2158L23.7931 33.3454L29.1017 36.3409L30.3585 35.2214Z" fill="white"/>
<path d="M53.463 15.4869C76.6783 15.4869 95.5602 29.7281 95.5602 47.227C95.5602 64.7258 76.6783 78.967 53.463 78.967C30.2477 78.967 11.3657 64.7258 11.3657 47.227C11.3657 29.7281 30.2477 15.4869 53.463 15.4869ZM53.463 11.0592C27.7743 11.0592 6.94185 27.257 6.94185 47.237C6.94185 67.217 27.7643 83.4148 53.463 83.4148C79.1617 83.4148 99.9841 67.217 99.9841 47.237C99.9841 27.257 79.1617 11.0592 53.463 11.0592Z" fill="white"/>
<path d="M70.867 12.1189C70.7866 11.8264 70.7363 11.5339 70.7463 11.2313C70.8368 9.28477 73.0588 7.69121 75.7132 7.69121C75.8238 7.69121 75.9343 7.69121 76.055 7.69121C78.8601 7.83242 81.1425 9.6882 81.052 11.7558C80.9917 13.1476 79.8254 14.3478 78.1966 14.9227C79.6444 15.6086 81.0319 16.3448 82.3792 17.1416C83.9677 15.8204 84.9832 13.9948 85.0737 11.9273C85.2647 7.60044 81.3134 3.89895 76.2561 3.6468C76.0751 3.6468 75.8941 3.63672 75.7232 3.63672C70.9072 3.63672 66.9458 6.84401 66.7447 10.9994C68.1523 11.3221 69.5298 11.6852 70.8771 12.0987L70.867 12.1189Z" fill="white"/>
<path d="M20.5955 53.5779C20.5955 43.0684 30.137 34.1627 43.3483 31.0361C43.6399 27.0421 47.4907 23.734 52.6787 22.7052C52.6385 22.7052 52.5982 22.7052 52.5681 22.7052C32.4696 22.7052 16.1817 34.4854 16.1817 49.0191C16.1817 56.5633 20.5754 63.351 27.5933 68.1519C23.2096 64.1276 20.5955 59.0746 20.5955 53.5779Z" fill="white"/>
<path d="M5.59466 50.1654C2.01534 54.6031 -0.015625 59.6662 -0.015625 65.042C-0.015625 82.4904 21.3296 96.3382 47.6517 96.6307C57.3138 96.7416 67.6597 95.3296 76.9498 91.2751V80.09C70.0023 83.1561 61.9891 84.9211 53.4631 84.9211C28.2369 84.9211 7.51503 69.5806 5.59466 50.1654Z" fill="black"/>
<path d="M86.1595 86.0728C86.803 85.6088 87.4464 85.1348 88.0698 84.6305C88.7032 84.0859 89.3065 83.521 89.8897 82.9462V71.7711C88.7133 72.8402 87.4666 73.8588 86.1595 74.8271V86.0828V86.0728Z" fill="black"/>
<path d="M93.2078 68.3586V79.2513C97.501 73.7747 99.9844 67.3399 99.9844 60.4513V56.6187C98.5868 60.8649 96.2643 64.8286 93.2078 68.3586Z" fill="black"/>
</g>
<defs>
<clipPath id="clip0_15980_9279">
<rect width="100" height="100" fill="white"/>
</clipPath>
</defs>
</svg>
