<svg width="100" height="100" viewBox="0 0 100 100" fill="none" xmlns="http://www.w3.org/2000/svg">
<g clip-path="url(#clip0_15980_1866)">
<rect width="100" height="100" fill="#A19FFF"/>
<path d="M37.5591 42.3155C32.2979 46.0302 27.0366 49.7448 21.7755 53.4595C17.1835 56.7844 17.0576 63.5627 21.523 67.0546L22.1866 67.5735L36.1162 52.6075C36.5972 49.1769 37.0782 45.7462 37.5591 42.3155Z" fill="white"/>
<path d="M37.5591 42.3155C36.5876 43.1917 35.1645 44.5592 33.6258 46.3917C31.6011 48.8031 31.2658 49.7691 29.6886 51.9045C25.9085 57.0225 23.9275 56.7629 22.2393 60.1418C21.4403 61.741 20.6646 64.2398 21.1037 67.9718C24.7224 63.8531 28.3411 59.7344 31.9598 55.6158L33.9846 48.7362L37.5591 42.3155Z" fill="#A19FFF"/>
<path d="M68.1088 64.7391C68.932 61.2069 73.0569 59.1441 77.3224 60.1312C81.588 61.1183 84.3788 64.7819 83.5555 68.3141C83.1733 69.9536 82.0784 71.2749 80.5894 72.1232C83.093 72.9113 85.59 74.2208 87.6974 75.8027C88.3115 74.6257 89.2494 73.64 90.4746 73.0012C93.9534 71.1873 98.4197 72.8507 100.45 76.7167C102.48 80.5828 101.305 85.1875 97.8265 87.0014C96.0559 87.9244 94.0305 87.945 92.1998 87.2346C87.7821 93.5032 70.3309 97.2261 55.7311 95.8533C42.6575 94.624 28.5426 88.9959 28.8945 84.8194C29.1769 81.4762 38.4848 82.7479 61.0515 75.0985C65.372 73.6339 68.5828 72.3956 71.5086 71.7576C68.9277 70.1498 67.4868 67.4075 68.1088 64.7391Z" fill="black"/>
<path d="M4.13843 62.5455C6.18226 62.2579 9.77737 62.0187 14.0024 63.2002C18.4074 64.4321 21.4396 66.633 23.0343 67.9767C23.8715 72.5157 24.7086 77.0547 25.5457 81.5938C22.7043 82.3598 18.9895 83.0838 14.6081 83.2355C10.4821 83.3783 6.92195 82.9734 4.13843 82.4599V62.5455Z" fill="white"/>
<path d="M4.13843 82.4599C7.2826 82.4599 9.83135 78.0018 9.83135 72.5026C9.83135 67.0034 7.2826 62.5455 4.13843 62.5455C0.994266 62.5455 -1.55469 67.0034 -1.55469 72.5026C-1.55469 78.0018 0.994266 82.4599 4.13843 82.4599Z" fill="white"/>
<path d="M69.2264 54.5315L70.2739 51.7812L68.5781 47.391L39.0229 41.3835C36.8167 42.6562 34.0015 44.795 32.7243 48.2631C32.1404 49.8486 32.476 50.0829 31.8383 51.8146C30.6166 55.1316 28.6687 56.2339 25.4926 59.9725C25.2203 60.2929 22.6119 63.3764 21.7151 65.079C18.3247 71.5155 24.7554 86.011 36.0172 92.0057C47.9926 98.3802 66.9583 95.9556 70.913 85.433C72.4118 81.445 71.4314 77.1535 69.8562 73.5875C67.1835 67.537 66.8725 60.7122 69.2264 54.5315Z" fill="white"/>
<path d="M60.8413 67.3784C57.5217 75.5782 59.7457 83.238 64.2843 85.5291C66.9958 86.898 70.1104 86.1369 71.9125 85.4778L62.9819 79.081C62.2684 75.1802 61.5548 71.2793 60.8413 67.3784Z" fill="#A19FFF"/>
<path d="M2.49652 80.8992C4.60043 80.8992 6.30598 78.1108 6.30598 74.671C6.30598 71.2313 4.60043 68.4428 2.49652 68.4428C0.392617 68.4428 -1.31294 71.2313 -1.31294 74.671C-1.31294 78.1108 0.392617 80.8992 2.49652 80.8992Z" fill="black"/>
<path d="M6.16994 69.0133C6.83472 69.0133 7.37362 68.229 7.37362 67.2616C7.37362 66.2941 6.83472 65.5099 6.16994 65.5099C5.50517 65.5099 4.96626 66.2941 4.96626 67.2616C4.96626 68.229 5.50517 69.0133 6.16994 69.0133Z" fill="black"/>
<path d="M2.51566 67.8723C3.18044 67.8723 3.71935 67.0881 3.71935 66.1206C3.71935 65.1532 3.18044 64.3689 2.51566 64.3689C1.85089 64.3689 1.31198 65.1532 1.31198 66.1206C1.31198 67.0881 1.85089 67.8723 2.51566 67.8723Z" fill="black"/>
<path d="M59.2149 92.585C46.426 94.8726 35.3962 85.9695 30.234 81.8025C25.8664 78.277 22.7972 74.7045 20.8101 72.0908C20.847 72.4141 20.886 72.8983 20.8695 73.4848C20.8695 73.4849 20.8117 75.5387 19.9079 77.5049C18.9458 79.598 13.2723 82.695 5.12893 82.6496C8.15072 83.1313 11.998 83.4569 16.4254 83.1344C19.6006 82.903 22.3986 82.3874 24.7435 81.8015C24.7423 81.799 24.7411 81.7964 24.74 81.7939C25.8219 83.5164 27.1789 85.2716 28.8886 86.9362C29.5927 87.6217 31.7602 89.6589 35.1409 91.5143C42.0189 95.289 57.3513 98.8975 66.663 91.1002C67.9304 90.0389 68.824 88.9859 69.3884 88.2488C65.3995 91.0397 61.7846 92.1253 59.2149 92.585Z" fill="black"/>
<path d="M46.5938 100.402C53.1162 100.402 58.4037 95.1338 58.4037 88.6347C58.4037 82.1356 53.1162 76.8671 46.5938 76.8671C40.0713 76.8671 34.7839 82.1356 34.7839 88.6347C34.7839 95.1338 40.0713 100.402 46.5938 100.402Z" fill="white"/>
<path d="M46.5935 98.2603C50.4819 98.2603 53.634 95.1194 53.634 91.2449C53.634 87.3705 50.4819 84.2296 46.5935 84.2296C42.7051 84.2296 39.5529 87.3705 39.5529 91.2449C39.5529 95.1194 42.7051 98.2603 46.5935 98.2603Z" fill="black"/>
<path d="M40.6505 85.4877C41.9049 85.4877 42.9217 84.4745 42.9217 83.2247C42.9217 81.9748 41.9049 80.9616 40.6505 80.9616C39.3962 80.9616 38.3794 81.9748 38.3794 83.2247C38.3794 84.4745 39.3962 85.4877 40.6505 85.4877Z" fill="black"/>
<path d="M52.6156 85.4877C53.8699 85.4877 54.8868 84.4745 54.8868 83.2247C54.8868 81.9748 53.8699 80.9616 52.6156 80.9616C51.3613 80.9616 50.3445 81.9748 50.3445 83.2247C50.3445 84.4745 51.3613 85.4877 52.6156 85.4877Z" fill="black"/>
<path d="M46.6333 83.2247C47.8876 83.2247 48.9044 82.2115 48.9044 80.9617C48.9044 79.7119 47.8876 78.6987 46.6333 78.6987C45.379 78.6987 44.3622 79.7119 44.3622 80.9617C44.3622 82.2115 45.379 83.2247 46.6333 83.2247Z" fill="black"/>
<path d="M68.6991 47.6686C66.5386 49.0124 63.1202 50.7012 58.6885 51.2107C47.6125 52.4842 39.508 45.3222 38.0464 43.9842C40.6223 48.2897 43.6541 50.4871 45.4049 51.5426C45.4049 51.5426 54.0156 56.7342 66.5022 53.5098C66.5777 53.4903 68.7699 52.9217 68.7699 52.9217C69.2822 52.7428 69.7944 52.5639 70.3067 52.385C70.2161 51.9233 70.1028 51.4389 69.9613 50.936C69.6074 49.6782 69.1566 48.5865 68.6991 47.6686Z" fill="#A19FFF"/>
<path d="M70.2174 51.3802C70.5732 51.4244 71.1472 51.5888 72.5704 53.2876C74.9171 56.0888 76.9794 59.9664 78.8533 71.1746C79.7656 76.6314 79.6624 78.0132 79.0676 79.4885C78.8779 79.9588 77.1296 84.1045 72.9508 85.1471C72.5727 85.2414 70.9662 85.6118 69.1594 85.1681C64.3448 83.9859 61.4491 77.6932 60.5976 73.2888C58.5426 62.6603 66.0576 50.8638 70.2174 51.3802Z" fill="white"/>
<path d="M89.0787 24.3006C84.8365 27.6574 77.949 25.7981 75.2076 21.1491C72.9628 17.3424 73.4304 11.551 77.5773 8.74096C81.7071 5.94244 87.2398 7.62261 90.03 11.1022C93.1391 14.9794 92.9568 21.232 89.0787 24.3006Z" fill="black"/>
<path d="M86.6908 23.3029C83.6608 25.7006 78.7414 24.3725 76.7832 21.052C75.1799 18.333 75.5139 14.1965 78.4759 12.1894C81.4256 10.1905 85.3773 11.3906 87.3703 13.8759C89.591 16.6452 89.4607 21.1112 86.6908 23.3029Z" fill="#A19FFF"/>
<path d="M47.5659 7.25186C48.7426 12.5208 44.0548 17.8815 38.6601 18.3073C34.2429 18.6559 29.2193 15.7064 28.4944 10.7618C27.7726 5.83755 31.7067 1.61292 36.067 0.632438C40.9255 -0.460059 46.4902 2.43519 47.5659 7.25186Z" fill="black"/>
<path d="M45.6222 8.95612C46.4626 12.7194 43.1144 16.5484 39.2612 16.8525C36.1061 17.1015 32.518 14.9948 32.0003 11.463C31.4847 7.94589 34.2947 4.92842 37.4091 4.22814C40.8792 3.44784 44.8539 5.51581 45.6222 8.95612Z" fill="#A19FFF"/>
<path d="M43.6696 16.0282C46.4261 13.3063 46.5692 8.9847 44.224 6.30244C42.1742 3.95799 38.589 3.28403 35.6035 4.80008C38.5935 4.46806 41.5181 5.81674 43.1503 8.28471C45.5409 11.8993 43.7706 15.8149 43.6696 16.0282Z" fill="white"/>
<path d="M80.2421 26.881C81.483 39.728 70.1702 49.6378 58.918 51.1503C49.1423 52.4644 38.2705 47.5939 34.6152 39.5407C33.0675 36.1305 33.2304 33.0678 33.3401 31.3787C33.8827 23.0296 40.0327 8.5125 54.6642 7.10941C67.6158 5.86736 79.0674 14.7195 80.2421 26.881Z" fill="white"/>
<path d="M46.405 26.0127C47.6688 26.0127 48.6933 24.9919 48.6933 23.7327C48.6933 22.4734 47.6688 21.4526 46.405 21.4526C45.1413 21.4526 44.1168 22.4734 44.1168 23.7327C44.1168 24.9919 45.1413 26.0127 46.405 26.0127Z" fill="black"/>
<path d="M47.1635 23.9271C47.523 23.9271 47.8145 23.6366 47.8145 23.2783C47.8145 22.92 47.523 22.6296 47.1635 22.6296C46.8039 22.6296 46.5124 22.92 46.5124 23.2783C46.5124 23.6366 46.8039 23.9271 47.1635 23.9271Z" fill="white"/>
<path d="M62.3936 29.0907C63.6574 29.0907 64.6819 28.0698 64.6819 26.8106C64.6819 25.5513 63.6574 24.5305 62.3936 24.5305C61.1298 24.5305 60.1053 25.5513 60.1053 26.8106C60.1053 28.0698 61.1298 29.0907 62.3936 29.0907Z" fill="black"/>
<path d="M63.3646 27.0644C63.7242 27.0644 64.0157 26.774 64.0157 26.4157C64.0157 26.0574 63.7242 25.7669 63.3646 25.7669C63.005 25.7669 62.7135 26.0574 62.7135 26.4157C62.7135 26.774 63.005 27.0644 63.3646 27.0644Z" fill="white"/>
<path d="M67.7185 40.8534C69.0351 35.2045 63.3153 29.0545 54.9429 27.117C46.5704 25.1795 38.7159 28.1882 37.3992 33.837C36.0826 39.4859 41.8024 45.6359 50.1749 47.5734C58.5473 49.5109 66.4019 46.5023 67.7185 40.8534Z" fill="#A19FFF"/>
<path d="M46.2646 29.3712C47.0525 27.5007 52.9629 28.5148 53.5938 28.6275C54.6263 28.8118 59.5098 29.6837 59.6642 31.5C59.808 33.1915 55.8529 35.7316 52.2099 35.1514C48.5778 34.573 45.6005 30.9481 46.2646 29.3712Z" fill="black"/>
<path d="M83.7038 11.4624C86.1719 13.0056 87.4234 15.932 86.8308 18.7739C86.2377 21.6182 83.9165 23.8068 81.0328 24.2401C81.4368 24.3749 83.5477 25.0342 85.7306 23.9116C87.6092 22.9455 88.3288 21.2832 88.5342 20.788C89.7954 17.7469 88.1206 14.9331 87.921 14.61C86.526 12.3526 84.2972 11.6336 83.7038 11.4624Z" fill="white"/>
<path d="M49.0951 29.0056C49.0271 29.0071 49.0152 29.1018 49.08 29.1221C49.6615 29.3049 50.4507 29.6432 51.2223 30.2859C51.7919 30.7601 52.1828 31.2593 52.4417 31.6537C52.7363 31.4043 53.101 31.1427 53.5426 30.9107C54.6559 30.326 55.7393 30.2021 56.488 30.2002C56.5564 30.2 56.572 30.1052 56.5069 30.0843C55.559 29.7806 54.4534 29.4948 53.2079 29.293C51.6618 29.0425 50.2685 28.981 49.0951 29.0056Z" fill="white"/>
<path d="M50.9927 87.4192C51.1542 87.5791 53.197 89.6706 52.6159 92.5446C52.1713 94.7443 50.3728 96.4954 48.0661 96.959C48.2006 96.8885 49.2449 96.3196 49.4458 95.126C49.5633 94.4275 49.3327 93.8677 49.2228 93.6402C49.634 93.2996 50.5202 92.4707 50.9926 91.0851C51.5773 89.3703 51.154 87.9006 50.9927 87.4192Z" fill="white"/>
<path d="M3.91714 70.5536C4.30431 71.0727 5.73863 73.1228 5.5167 76.0278C5.31787 78.6305 3.91157 80.3236 3.44332 80.8431C3.49503 80.7085 4.0494 79.1953 3.1646 78.0312C2.84447 77.6099 2.44622 77.3796 2.16963 77.256C2.57635 77.0016 3.65115 76.2532 4.20978 74.8236C5.03133 72.7211 4.07232 70.8452 3.91714 70.5536Z" fill="white"/>
</g>
<defs>
<clipPath id="clip0_15980_1866">
<rect width="100" height="100" fill="white"/>
</clipPath>
</defs>
</svg>
