<svg width="100" height="100" viewBox="0 0 100 100" fill="none" xmlns="http://www.w3.org/2000/svg">
<g clip-path="url(#clip0_15980_9293)">
<rect width="100" height="100" fill="#A19FFF"/>
<path d="M66.8977 74.5771C66.8977 80.4085 71.6424 85.1537 77.4731 85.1537C83.3037 85.1537 88.0484 80.4085 88.0484 74.5771C88.0484 70.3482 85.5292 66.5289 81.6392 64.8551L80.5709 64.3922L81.5145 63.7155C89.8822 57.7239 94.4844 49.6223 94.4844 40.9063C94.4844 23.6258 76.0042 9.56821 53.2958 9.56821C30.5873 9.56821 12.1073 23.6258 12.1073 40.9063C12.1073 58.1868 30.5873 72.2446 53.2958 72.2446C57.8268 72.2446 62.2956 71.6837 66.5951 70.5619L67.7435 70.268L67.3874 71.3987C67.0669 72.4225 66.8977 73.4999 66.8977 74.5771Z" fill="white"/>
<path d="M67.6812 100.137C70.4146 100.137 72.6306 97.9206 72.6306 95.1868C72.6306 92.453 70.4146 90.2367 67.6812 90.2367C64.9477 90.2367 62.7318 92.453 62.7318 95.1868C62.7318 97.9206 64.9477 100.137 67.6812 100.137Z" fill="white"/>
<path d="M26.1365 15.8058C33.5072 11.0873 42.9787 8.24724 53.2958 8.24724C57.72 8.24724 61.984 8.77254 65.9987 9.73406C60.3728 7.58846 54.0436 6.36874 47.3317 6.36874C36.7831 6.36874 27.1513 9.36012 19.7985 14.2834L26.1365 15.7969V15.8058Z" fill="black"/>
<path d="M20.5818 20.0825C21.5521 19.1833 22.5937 18.3286 23.6797 17.5185L17.4128 16.0228C16.3713 16.8419 15.3832 17.6966 14.4574 18.5958L20.5818 20.0825Z" fill="black"/>
<path d="M65.5805 74.5721C65.5805 73.7352 65.6695 72.9072 65.8386 72.0971C64.0316 72.5244 62.1799 72.8449 60.3195 73.0853C60.7735 77.9997 64.3876 81.9882 69.1055 83.012C66.9246 80.8575 65.5805 77.8662 65.5805 74.5721Z" fill="black"/>
<path d="M10.7899 40.9013C10.7899 34.9631 12.8729 29.3899 16.5048 24.5824L10.5317 23.1312C7.31813 27.6628 5.48438 32.8532 5.48438 38.3729C5.48438 50.0802 13.7096 60.3097 25.9763 65.8829C16.7006 59.8912 10.7988 50.9171 10.7988 40.9013H10.7899Z" fill="black"/>
<path d="M61.4144 95.1846C61.4144 92.2288 63.4707 89.7538 66.2214 89.0949C65.2778 88.3827 64.1117 87.9553 62.8477 87.9553C59.7498 87.9553 57.2395 90.466 57.2395 93.5642C57.2395 96.6624 59.7498 99.1731 62.8477 99.1731C61.9486 98.0869 61.4144 96.6981 61.4144 95.1846Z" fill="black"/>
<path d="M56.7055 14.152C56.7055 14.152 70.797 13.5645 81.1141 23.046C91.4313 32.5276 89.1168 46.8256 89.1168 46.8256C89.1168 46.8256 87.8973 23.7849 68.7585 23.1172C68.7585 23.1172 67.5746 16.3866 56.6966 14.152H56.7055Z" fill="#A19FFF"/>
<path d="M22.8339 69.6627C22.8339 69.6627 25.184 77.4616 34.7267 79.6161C34.7267 79.6161 27.4984 80.8625 27.356 89.5428C27.356 89.5428 24.8101 82.0199 15.668 79.6073C15.668 79.6073 23.3057 78.6991 22.8339 69.6627Z" fill="white"/>
<path d="M82.0041 0.14563C82.0041 0.14563 83.6421 5.56751 90.2739 7.06319C90.2739 7.06319 85.2444 7.92677 85.1465 13.9629C85.1465 13.9629 83.375 8.73692 77.0191 7.05428C77.0191 7.05428 82.3335 6.42216 82.0041 0.136719V0.14563Z" fill="white"/>
</g>
<defs>
<clipPath id="clip0_15980_9293">
<rect width="100" height="100" fill="white"/>
</clipPath>
</defs>
</svg>
