<svg width="100" height="100" viewBox="0 0 100 100" fill="none" xmlns="http://www.w3.org/2000/svg">
<g clip-path="url(#clip0_15980_9333)">
<rect width="100" height="100" fill="#A19FFF"/>
<path d="M31.8454 94.9882C31.8454 94.9882 36.0408 91.6753 39.0192 90.9702L41.819 91.1486L46.7122 89.2289L49.1631 87.3091C49.1631 87.3091 50.3886 86.2642 51.4353 86.0858C52.482 85.9075 58.0815 86.9608 58.0815 86.9608C58.0815 86.9608 61.2302 88.0056 62.8045 90.8003C62.8045 90.8003 65.0766 90.8003 65.7745 93.765C65.7745 93.765 67.8764 93.4167 69.9698 95.6847C69.9698 95.6847 70.4974 97.0778 66.9998 97.4346C63.5023 97.7829 62.8045 99.0061 60.0047 99.1845C57.205 99.3629 52.3117 97.613 52.3117 97.613L44.9677 97.0863C44.9677 97.0863 40.7723 97.7829 38.1427 97.0863C35.5216 96.3898 31.8454 94.9882 31.8454 94.9882Z" fill="black"/>
<path d="M43.1465 50.7533C41.3254 50.7533 40.7297 51.1355 40.5255 51.3904C40.4574 51.4838 40.4319 51.6027 40.4234 51.7216L39.8787 93.2686C40.6446 93.2941 41.9296 93.4385 42.9508 94.0416C42.9508 94.0416 44.1762 92.5891 45.5038 91.8755L45.8612 51.6197C45.8612 51.6197 45.9208 50.7533 43.1465 50.7533Z" fill="white"/>
<path d="M72.0293 64.5668C72.3612 64.2865 72.659 63.9721 72.9654 63.6663C73.6887 62.9103 75.7397 61.1435 78.7437 61.4833C79.9946 61.6277 80.9648 62.1968 81.6371 62.7744C83.3305 59.8353 86.5132 57.8476 90.1555 57.8476C95.5848 57.8476 99.9844 62.2393 99.9844 67.6588V68.6017H59.1623C66.3702 68.6017 69.8253 66.4611 72.0208 64.5668H72.0293Z" fill="white"/>
<path d="M28.9349 53.1669C28.9349 53.1669 24.2289 42.9395 8.73238 53.15L28.9349 53.1669Z" fill="white"/>
<path d="M-0.015625 10.6424C-0.015625 10.6424 1.68635 8.26395 4.65631 7.35503C7.09014 6.60751 9.74531 7.37202 11.5409 9.17287L11.5834 9.22384C11.5834 9.22384 12.128 5.94493 14.9703 3.59193C16.3064 2.48763 18.0169 1.86753 19.7444 1.98645C20.5188 2.03742 21.3528 2.24129 22.0591 2.71699C22.0591 2.71699 19.8381 -0.527935 15.9065 0.347007C14.5024 0.661306 13.2513 1.47678 12.3067 2.55559C11.6514 3.29462 10.9707 4.29699 10.6644 5.44375C10.6644 5.44375 4.17126 1.42581 -0.00710678 10.6424H-0.015625Z" fill="white"/>
<path d="M51.9631 55.8649C50.627 62.0999 49.4867 72.5312 49.8271 89.8347C49.8441 90.5313 50.4058 91.0834 51.1036 91.0834H51.129C51.8354 91.0664 52.3971 90.4888 52.3801 89.7837C52.0822 74.5444 52.9757 64.7842 54.065 58.6426C53.4863 57.9546 52.6778 56.9437 51.9715 55.8649H51.9631ZM80.4457 29.4807C80.4457 29.4807 77.0758 26.5756 73.4251 27.7648C73.4251 27.7648 66.132 29.812 69.4594 37.1258C72.7868 44.4312 86.4282 49.4175 86.4282 49.4175C86.4282 49.4175 91.7554 41.7809 92.0872 32.4793C92.4191 23.1777 81.7733 24.5029 80.4372 29.4892L80.4457 29.4807ZM85.7389 45.544C85.7389 45.544 84.6156 38.3491 81.4329 31.341C81.4329 31.341 81.8073 28.1641 84.99 27.4165C84.99 27.4165 83.7731 29.2853 84.2411 31.5279C84.7092 33.7705 87.5175 38.2556 85.7389 45.544ZM88.2068 16.1187L86.8537 14.3179C84.3603 11.005 81.3818 8.07439 77.9353 5.77236C70.3785 0.726578 66.4469 2.2556 64.7534 3.6742C63.5876 4.64258 63.2812 6.39245 64.2343 7.58169C65.5278 9.20416 68.251 9.81577 68.251 9.81577C68.251 9.81577 57.937 7.81955 62.2601 14.4623C66.5831 21.1051 88.2153 16.1272 88.2153 16.1272L88.2068 16.1187ZM72.4464 5.40708C72.4464 5.40708 73.4506 7.59868 73.2379 9.35706C73.2379 9.35706 75.6036 7.36933 79.816 8.3547C79.816 8.3547 77.4247 8.49912 77.0077 9.68836C77.0077 9.68836 80.2415 9.34007 84.2411 13.0522C84.2411 13.0522 77.714 10.9455 70.4125 10.1046L69.1275 9.9177C69.1275 9.9177 72.2422 7.99793 72.4549 5.40708H72.4464ZM28.2714 21.4873V18.1405C28.2714 18.1405 15.7023 16.1867 13.4727 33.4732C13.4727 33.4732 30.7904 31.5194 38.611 23.1607C46.4316 14.8021 31.0712 18.1405 28.2799 21.4873H28.2714ZM24.2377 29.005C18.434 30.0329 18.0596 30.0329 16.281 31.0607C16.281 31.0607 18.5276 28.2575 21.6167 26.7625C24.7058 25.2674 27.046 23.7724 27.8885 22.3708C27.8885 22.3708 28.3565 23.6789 27.2332 24.8002C26.1099 25.9215 27.3269 27.7903 32.2882 25.2674C32.2882 25.2674 30.0415 27.9772 24.2377 29.005ZM58.5583 42.4859C59.1199 40.2433 59.5539 37.7459 59.7071 35.0277C59.8092 33.2183 59.6816 31.8507 59.3837 30.8399C60.6687 26.7115 62.3706 22.4047 63.6982 19.2702C63.1706 18.5227 62.5664 17.5713 62.0898 16.535C60.8474 19.3722 58.9838 23.8573 57.4775 28.4104C56.3542 27.9517 54.9926 28.249 53.8438 28.7162C52.7715 20.1282 50.8397 13.2476 50.0058 10.5123C51.1716 8.48212 53.2905 3.0286 42.3979 3.23247C29.0288 3.48731 23.3017 10.4868 23.3017 10.4868C23.3017 10.4868 36.7899 8.02342 47.3677 10.6397C48.0315 12.7464 50.3122 20.4765 51.4184 30.0414C51.4184 30.0414 47.9378 29.8035 45.7082 31.8167C43.9807 29.2089 42.4831 27.2891 41.2236 25.8705C41.2236 26.7964 41.1129 27.9942 40.7811 29.3193C41.7767 30.5935 42.9255 32.1905 44.2105 34.1867C44.0147 34.8238 43.8956 35.5543 43.8956 36.3953C43.8956 43.2844 53.4523 54.3104 53.4523 54.3104C53.4523 54.3104 53.5544 54.166 53.7331 53.9026L57.3243 48.602C60.3198 43.7261 64.0387 40.0055 67.2809 37.3552C67.2384 36.4548 67.2809 35.2316 67.5532 33.8809C64.83 35.9026 61.5878 38.7483 58.5583 42.4774V42.4859ZM53.4438 49.8167C53.4438 49.8167 53.9374 47.795 53.0949 42.7493C52.2524 37.7035 51.1546 36.7606 51.3844 31.8762C51.3844 31.8762 52.4141 36.5482 54.4735 36.3613C54.4735 36.3613 55.5202 36.3528 56.6265 35.4269C56.6265 35.4269 57.7498 39.9121 53.4438 49.8167Z" fill="white"/>
<path d="M54.2863 67.1287V65.2769C54.2863 64.6738 53.8437 64.1811 53.2821 64.0791C53.1544 65.1665 53.0438 66.3302 52.9417 67.5704C52.9246 67.8083 52.78 68.0291 52.5758 68.1396C48.0485 70.5945 43.6234 71.4015 41.1895 71.6648C40.1002 71.7243 40.1768 71.1212 40.1768 71.1212L40.2023 69.2608C40.1257 69.3118 40.0577 69.3628 39.9896 69.4052C39.5301 69.7195 39.2663 70.2462 39.2663 70.7984V75.309C39.2663 75.9546 39.8194 76.3963 40.4662 76.3878C46.0061 76.2859 52.0141 73.3892 53.6225 72.1405C54.048 71.8092 54.2948 71.325 54.2948 70.7219V67.1202L54.2863 67.1287ZM50.6525 64.4614C48.908 64.8691 47.24 65.4892 45.7338 66.1603L45.6913 70.4756C47.3933 69.7705 48.9421 69.2948 50.2356 68.989C50.3547 67.2816 50.4994 65.914 50.6525 64.4529V64.4614Z" fill="black"/>
</g>
<defs>
<clipPath id="clip0_15980_9333">
<rect width="100" height="100" fill="white"/>
</clipPath>
</defs>
</svg>
