<svg width="100" height="100" viewBox="0 0 100 100" fill="none" xmlns="http://www.w3.org/2000/svg">
<g clip-path="url(#clip0_15980_9364)">
<rect width="100" height="100" fill="#A19FFF"/>
<path d="M97.2362 32.7014C97.1198 31.8962 96.5959 31.1879 95.7616 30.7028L62.6489 11.3766C61.9406 10.9691 61.1063 10.7751 60.2719 10.7751C58.9524 10.7751 57.6233 11.2602 56.7404 12.1818L44.9235 24.5324C31.1273 39.1629 17.1372 53.5994 3.24401 68.1328C2.60368 68.8023 2.31262 69.5978 2.42905 70.374C2.54547 71.1792 3.06937 71.8875 3.91344 72.3726L37.0164 91.6988C38.8404 92.7563 41.489 92.3973 42.9249 90.8935L96.4116 34.9426C97.0519 34.2828 97.343 33.4776 97.2265 32.7014H97.2362Z" fill="white"/>
<path d="M98.662 40.1511L98.0798 34.8442C97.8858 35.1934 97.653 35.533 97.3522 35.8435L43.8655 91.7945C42.7498 92.9587 41.0519 93.5893 39.3735 93.5893C38.316 93.5893 37.2585 93.3371 36.3659 92.8229L3.26293 73.4966C2.18601 72.8757 1.47777 71.9637 1.21582 70.9062L1.92406 77.455C2.03078 78.4543 2.65171 79.4051 3.73832 80.026L37.4622 99.7112C39.5384 100.914 42.5363 100.507 44.1662 98.7993L97.653 42.8483C98.4291 42.0333 98.759 41.0728 98.6523 40.1608L98.662 40.1511Z" fill="black"/>
<path d="M29.6135 72.8383C31.7867 74.0898 32.1651 76.5638 30.4575 78.3489C28.75 80.1341 25.6066 80.561 23.4333 79.3094C21.2601 78.0579 20.872 75.5839 22.5796 73.7987C24.2871 72.0136 27.4305 71.5867 29.6135 72.8383Z" fill="#A19FFF"/>
<path d="M79.763 61.9338C79.763 61.9338 82.4892 70.9663 93.5203 73.4597C93.5203 73.4597 85.1572 74.9052 84.9923 84.9467C84.9923 84.9467 82.0526 76.2441 71.4581 73.45C71.4581 73.45 80.3063 72.3924 79.763 61.9338Z" fill="black"/>
<path d="M70.4879 21.5509C71.235 21.9875 71.3708 22.8413 70.779 23.4622C70.1871 24.0831 69.0908 24.2286 68.3438 23.792C67.5967 23.3555 67.4609 22.5017 68.0527 21.8808C68.6445 21.2598 69.7312 21.1143 70.4879 21.5509Z" fill="#A19FFF"/>
<path d="M81.043 27.6472C81.7998 28.0838 81.9259 28.9375 81.3438 29.5585C80.752 30.1794 79.6557 30.3249 78.9086 29.8883L72.8546 26.3956C72.1076 25.9591 71.9717 25.1053 72.5636 24.4844C73.1554 23.8634 74.242 23.7179 74.9987 24.1545L81.0527 27.6472H81.043Z" fill="#A19FFF"/>
<path d="M84.0127 53.5011C84.265 53.9668 84.7598 54.0444 85.1187 53.666L90.3869 48.1748C90.7459 47.8061 90.8332 47.1172 90.5906 46.6419C90.3384 46.1762 89.8436 46.0985 89.4846 46.4769L84.2165 51.9682C83.8575 52.3369 83.7605 53.0257 84.0127 53.5011Z" fill="#A19FFF"/>
<path d="M76.2114 61.6303C76.4636 62.096 76.9584 62.1736 77.3174 61.7952L82.5855 56.3039C82.9445 55.9255 83.0415 55.2464 82.7893 54.771C82.537 54.3053 82.0422 54.2277 81.6833 54.6061L76.4151 60.0974C76.0562 60.466 75.9591 61.1549 76.2114 61.6303Z" fill="#A19FFF"/>
<path d="M39.0144 0.402344C39.0144 0.402344 40.7802 6.2429 47.9208 7.86312C47.9208 7.86312 42.5071 8.79451 42.4004 15.3045C42.4004 15.3045 40.4891 9.67738 33.6396 7.86312C33.6396 7.86312 39.3637 7.18399 39.0047 0.412046L39.0144 0.402344Z" fill="black"/>
<path d="M18.4753 63.0557C15.002 62.8326 9.71448 61.2802 9.71448 61.2899C9.71448 61.2996 17.5342 53.2859 17.5342 53.2859C17.9999 52.3836 42.6622 26.1011 42.6622 26.1011C48.1535 37.6755 58.0495 38.0927 58.0495 38.0927L57.8263 43.6616C57.8263 43.6616 42.5361 64.5983 18.4753 63.0557Z" fill="black"/>
<path d="M58.0501 38.1034C56.1873 37.3952 54.3439 36.5608 52.6655 35.3869C47.0384 31.4576 44.0211 25.6947 43.633 19.6989C37.0648 20.834 30.1764 19.9511 24.5202 15.9054C22.8321 14.6927 21.435 13.1404 20.2029 11.6657C19.8439 12.0634 19.3976 12.4224 19.0774 12.8493C9.00684 26.238 0.556467 40.6065 10.598 57.7595C28.8376 62.9985 45.5831 52.1906 57.0702 39.3647C57.4291 38.9669 57.7008 38.5109 58.0404 38.0937C58.0404 38.0937 58.0404 38.0937 58.0501 38.0937V38.1034ZM12.2473 55.8676C3.79691 40.0341 11.4905 28.5858 20.3678 15.3621C21.2798 16.3323 22.1918 17.1473 23.1328 17.8264C28.3622 21.5907 34.8237 22.6968 41.4792 22.1729C42.5464 28.0813 46.0391 33.4077 51.2005 37.0459C52.1319 37.7056 53.1506 38.2975 54.3051 38.8602C41.6247 50.2696 30.3996 59.3312 12.257 55.8676H12.2473Z" fill="white"/>
<path d="M40.6155 23.1738C33.9794 23.494 27.712 22.4462 22.5311 18.7012C21.8423 18.2064 21.1826 17.6437 20.5325 17.0131C12.3829 29.1308 4.87364 40.482 13.0136 54.9961C30.118 58.0231 40.5573 49.7377 52.675 39.1238C51.9086 38.7066 51.2003 38.27 50.5309 37.7946C45.4471 34.1952 41.8962 29.0241 40.6252 23.1738H40.6155Z" fill="white"/>
<path d="M20.6874 19.359C20.6874 19.359 27.1973 24.0644 35.4925 24.3264C35.4925 24.3264 29.9818 25.0249 27.3332 26.6936C27.3332 26.6936 20.144 21.3867 13.8378 29.6042C13.8378 29.6042 17.5051 23.5502 20.6874 19.359Z" fill="#A19FFF"/>
<path d="M13.2561 39.5979C14.3912 44.7399 25.985 51.1335 29.7493 50.3088C29.7493 50.3088 31.3598 47.8154 30.7874 46.3504C30.215 44.8855 27.2753 41.451 27.2753 41.451C25.0245 42.4115 22.4244 41.2957 22.1527 38.2687C20.0474 37.5605 17.7675 36.7941 16.3898 37.0754C14.983 37.1821 14.0904 38.3367 13.2561 39.5882V39.5979Z" fill="black"/>
<path d="M30.4969 30.8675C30.4969 30.8675 29.0222 29.8488 27.1304 30.3533C25.2385 30.8578 24.084 33.0213 24.084 33.0213C23.5698 33.8072 22.0757 38.5611 24.3459 39.997C26.6162 41.4329 29.6432 38.8716 29.6432 38.8716C29.6432 38.8716 31.4962 37.5909 32.1269 34.9035C32.7575 32.216 30.4872 30.8675 30.4872 30.8675H30.4969Z" fill="black"/>
</g>
<defs>
<clipPath id="clip0_15980_9364">
<rect width="100" height="100" fill="white"/>
</clipPath>
</defs>
</svg>
