<svg width="100" height="100" viewBox="0 0 100 100" fill="none" xmlns="http://www.w3.org/2000/svg">
<g clip-path="url(#clip0_15980_9362)">
<rect width="100" height="100" fill="#A19FFF"/>
<path d="M97.2362 31.8752C97.1198 31.07 96.5959 30.3617 95.7616 29.8766L62.6489 10.5504C61.9406 10.1429 61.1063 9.94889 60.2719 9.94889C58.9524 9.94889 57.6233 10.434 56.7404 11.3557L44.9235 23.7062C31.1273 38.3367 17.1372 52.7732 3.24401 67.3067C2.60368 67.9761 2.31262 68.7717 2.42905 69.5478C2.54547 70.3531 3.06937 71.0613 3.91344 71.5464L37.0164 90.8726C38.8404 91.9301 41.489 91.5712 42.9249 90.0674L96.4116 34.1164C97.0519 33.4567 97.343 32.6514 97.2265 31.8752H97.2362Z" fill="white"/>
<path d="M98.662 39.325L98.0798 34.018C97.8858 34.3673 97.653 34.7068 97.3522 35.0173L43.8655 90.9683C42.7498 92.1325 41.0519 92.7632 39.3735 92.7632C38.316 92.7632 37.2585 92.5109 36.3659 91.9967L3.26293 72.6705C2.18601 72.0495 1.47777 71.1376 1.21582 70.08L1.92406 76.6289C2.03078 77.6282 2.65171 78.5789 3.73832 79.1999L37.4622 98.8851C39.5384 100.088 42.5363 99.6806 44.1662 97.9731L97.653 42.0221C98.4291 41.2071 98.759 40.2466 98.6523 39.3347L98.662 39.325Z" fill="black"/>
<path d="M29.6135 72.0121C31.7867 73.2636 32.1651 75.7376 30.4575 77.5228C28.75 79.3079 25.6066 79.7348 23.4333 78.4833C21.2601 77.2317 20.872 74.7577 22.5796 72.9726C24.2871 71.1874 27.4305 70.7605 29.6135 72.0121Z" fill="#A19FFF"/>
<path d="M79.763 61.1076C79.763 61.1076 82.4892 70.1401 93.5203 72.6335C93.5203 72.6335 85.1572 74.0791 84.9923 84.1206C84.9923 84.1206 82.0526 75.4179 71.4581 72.6238C71.4581 72.6238 80.3063 71.5663 79.763 61.1076Z" fill="black"/>
<path d="M70.4879 20.7247C71.235 21.1613 71.3708 22.0151 70.779 22.636C70.1871 23.2569 69.0908 23.4025 68.3438 22.9659C67.5967 22.5293 67.4609 21.6755 68.0527 21.0546C68.6445 20.4337 69.7312 20.2881 70.4879 20.7247Z" fill="#A19FFF"/>
<path d="M81.043 26.821C81.7998 27.2576 81.9259 28.1114 81.3438 28.7323C80.752 29.3532 79.6557 29.4988 78.9086 29.0622L72.8546 25.5695C72.1076 25.1329 71.9717 24.2791 72.5636 23.6582C73.1554 23.0373 74.242 22.8917 74.9987 23.3283L81.0527 26.821H81.043Z" fill="#A19FFF"/>
<path d="M84.0127 52.6749C84.265 53.1406 84.7598 53.2183 85.1187 52.8399L90.3869 47.3486C90.7459 46.9799 90.8332 46.2911 90.5906 45.8157C90.3384 45.35 89.8436 45.2724 89.4846 45.6508L84.2165 51.142C83.8575 51.5107 83.7605 52.1995 84.0127 52.6749Z" fill="#A19FFF"/>
<path d="M76.2114 60.8041C76.4636 61.2698 76.9584 61.3474 77.3174 60.969L82.5855 55.4777C82.9445 55.0994 83.0415 54.4202 82.7893 53.9448C82.537 53.4791 82.0422 53.4015 81.6833 53.7799L76.4151 59.2712C76.0562 59.6399 75.9591 60.3287 76.2114 60.8041Z" fill="#A19FFF"/>
<path d="M39.0144 -0.423828C39.0144 -0.423828 40.7802 5.41673 47.9208 7.03695C47.9208 7.03695 42.5071 7.96834 42.4004 14.4783C42.4004 14.4783 40.4891 8.85121 33.6396 7.03695C33.6396 7.03695 39.3637 6.35782 39.0047 -0.414126L39.0144 -0.423828Z" fill="black"/>
<path d="M18.4753 62.2295C15.002 62.0064 9.71448 60.4541 9.71448 60.4638C9.71448 60.4735 17.5342 52.4597 17.5342 52.4597C17.9999 51.5574 42.6622 25.2749 42.6622 25.2749C48.1535 36.8493 58.0495 37.2665 58.0495 37.2665L57.8263 42.8354C57.8263 42.8354 42.5361 63.7721 18.4753 62.2295Z" fill="black"/>
<path d="M58.0501 37.2772C56.1873 36.569 54.3439 35.7346 52.6655 34.5607C47.0384 30.6314 44.0211 24.8685 43.633 18.8727C37.0648 20.0078 30.1764 19.1249 24.5202 15.0792C22.8321 13.8665 21.435 12.3142 20.2029 10.8395C19.8439 11.2373 19.3976 11.5962 19.0774 12.0231C9.00684 25.4118 0.556467 39.7803 10.598 56.9333C28.8376 62.1724 45.5831 51.3644 57.0702 38.5385C57.4291 38.1407 57.7008 37.6847 58.0404 37.2675C58.0404 37.2675 58.0404 37.2675 58.0501 37.2675V37.2772ZM12.2473 55.0415C3.79691 39.2079 11.4905 27.7597 20.3678 14.5359C21.2798 15.5061 22.1918 16.3211 23.1328 17.0002C28.3622 20.7646 34.8237 21.8706 41.4792 21.3467C42.5464 27.2552 46.0391 32.5815 51.2005 36.2197C52.1319 36.8795 53.1506 37.4713 54.3051 38.034C41.6247 49.4435 30.3996 58.505 12.257 55.0415H12.2473Z" fill="white"/>
<path d="M40.6155 22.3476C33.9794 22.6678 27.712 21.62 22.5311 17.8751C21.8423 17.3803 21.1826 16.8176 20.5325 16.1869C12.3829 28.3046 4.87364 39.6559 13.0136 54.17C30.118 57.197 40.5573 48.9115 52.675 38.2976C51.9086 37.8804 51.2003 37.4438 50.5309 36.9684C45.4471 33.369 41.8962 28.1979 40.6252 22.3476H40.6155Z" fill="white"/>
<path d="M20.6874 18.5328C20.6874 18.5328 27.1973 23.2383 35.4925 23.5002C35.4925 23.5002 29.9818 24.1987 27.3332 25.8675C27.3332 25.8675 20.144 20.5605 13.8378 28.7781C13.8378 28.7781 17.5051 22.7241 20.6874 18.5328Z" fill="#A19FFF"/>
<path d="M13.2561 38.7717C14.3912 43.9138 25.985 50.3073 29.7493 49.4827C29.7493 49.4827 31.3598 46.9893 30.7874 45.5243C30.215 44.0593 27.2753 40.6248 27.2753 40.6248C25.0245 41.5853 22.4244 40.4696 22.1527 37.4426C20.0474 36.7343 17.7675 35.9679 16.3898 36.2492C14.983 36.356 14.0904 37.5105 13.2561 38.762V38.7717Z" fill="black"/>
<path d="M30.4969 30.0413C30.4969 30.0413 29.0222 29.0226 27.1304 29.5271C25.2385 30.0316 24.084 32.1951 24.084 32.1951C23.5698 32.981 22.0757 37.7349 24.3459 39.1708C26.6162 40.6067 29.6432 38.0454 29.6432 38.0454C29.6432 38.0454 31.4962 36.7647 32.1269 34.0773C32.7575 31.3899 30.4872 30.0413 30.4872 30.0413H30.4969Z" fill="black"/>
</g>
<defs>
<clipPath id="clip0_15980_9362">
<rect width="100" height="100" fill="white"/>
</clipPath>
</defs>
</svg>
