<svg width="100" height="100" viewBox="0 0 100 100" fill="none" xmlns="http://www.w3.org/2000/svg">
<g clip-path="url(#clip0_15980_9390)">
<rect width="100" height="100" fill="#A19FFF"/>
<path d="M53.741 44.6011C55.9726 44.0242 57.5265 42.0215 57.5265 39.7221V7.12727C57.5265 5.09164 55.8569 3.52577 53.9229 3.52577C53.6253 3.52577 53.3195 3.56699 53.0054 3.64116L7.84469 15.3193C5.6131 15.8962 4.05924 17.8988 4.05924 20.1982V52.793C4.05924 54.8287 5.72879 56.3945 7.66283 56.3945C7.96037 56.3945 8.26617 56.3533 8.58025 56.2791L20.9367 53.0815C21.7962 52.8589 53.741 44.6011 53.741 44.6011Z" fill="black"/>
<path d="M3.98468 16.5812C4.81946 15.4026 6.051 14.496 7.53046 14.1169L52.6912 2.43883C52.8895 2.38939 53.0962 2.34817 53.2946 2.32344L51.8316 1.30976C51.0134 0.765828 49.9802 0.543329 48.9223 0.815297L3.76155 12.4934C2.48046 12.823 1.43905 13.6307 0.769574 14.6856L3.97645 16.5729L3.98468 16.5812Z" fill="black"/>
<path d="M2.81931 20.9497V20.1915C2.81931 19.5817 2.92677 19.0047 3.08381 18.4443L0.0422371 16.6477C0.00917649 16.8867 -0.015625 17.1257 -0.015625 17.3729V19.2767L2.81931 20.9497Z" fill="black"/>
<path d="M2.81931 52.7846V26.7006L-0.015625 25.0275V49.9661C-0.015625 51.1611 0.562935 52.1995 1.43078 52.8506L2.95153 53.9054C2.86888 53.5428 2.81931 53.172 2.81931 52.7846Z" fill="black"/>
<path d="M29.5983 30.7574C30.119 30.9552 30.7306 31.0623 31.3835 30.8892C32.0365 30.7162 32.6563 30.2958 33.1936 29.8178C34.4086 28.7382 35.2929 27.2548 35.8053 25.7219C36.417 23.8758 36.4914 22.3346 36.4914 22.3346C36.7228 18.3952 34.3672 17.0519 31.6397 17.7689C28.904 18.4859 26.474 21.0655 26.5649 24.9307C26.5649 24.9307 26.5814 26.4389 27.1269 27.9883C27.5815 29.2739 28.4163 30.3041 29.6065 30.7574H29.5983ZM42.8886 35.0265C42.2191 32.3562 41.0703 31.598 38.88 31.392L34.3424 30.8563C34.235 30.9551 34.1441 31.0788 34.0366 31.1694C33.1357 31.9771 32.2266 32.4963 31.3505 32.7271C30.4661 32.9578 29.5734 32.9002 28.6973 32.5623C28.5899 32.5211 28.499 32.4551 28.3998 32.4056L23.7961 35.3314C21.5728 36.6912 20.3826 38.0676 19.6057 41.1086L18.6387 45.2129L43.7151 38.6691L42.8969 35.0347L42.8886 35.0265Z" fill="white"/>
<path d="M35.9789 10.7961L52.6993 6.64247C53.6085 6.41995 54.4929 7.10395 54.4929 8.04347V24.7407C54.4929 24.7407 53.9391 8.17536 35.9789 10.7961Z" fill="white"/>
<path d="M8.87773 62.9735C8.87773 62.9735 10.0266 66.7728 14.6881 67.8195C14.6881 67.8195 11.1589 68.4294 11.0845 72.6572C11.0845 72.6572 9.84471 68.9898 5.37327 67.8195C5.37327 67.8195 9.10916 67.3745 8.87773 62.9735Z" fill="white"/>
<path d="M75.3047 1.62316C75.3047 1.62316 77.4867 8.84265 86.3469 10.8371C86.3469 10.8371 79.6356 11.9909 79.5034 20.0263C79.5034 20.0263 77.1396 13.0623 68.6513 10.8288C68.6513 10.8288 75.7428 9.98821 75.3047 1.62316Z" fill="white"/>
<path d="M48.7241 45.8964L57.5347 35.6689V35.0589L37.7563 48.7315C41.7649 47.6931 45.7404 46.6629 48.7323 45.8964H48.7241Z" fill="black"/>
<path d="M99.9844 43.4482L89.6529 43.6955L70.5687 32.6848C69.3289 31.9678 67.5106 32.2316 66.5188 33.2618L37.1858 64.0023L21.0853 74.6997V80.3203C21.1183 80.9549 21.4903 81.5565 22.168 81.9521L50.4927 98.2949C51.7324 99.0119 53.5508 98.7482 54.5426 97.718L99.3479 50.7583C99.7777 50.305 99.9844 49.7858 99.9761 49.2748V43.4564L99.9844 43.4482Z" fill="black"/>
<path d="M54.5426 91.9412C53.559 92.9713 51.7324 93.2351 50.4926 92.5181L22.168 76.1753C20.9282 75.4583 20.7216 74.0325 21.7134 72.9941L66.5188 26.0345C67.5023 25.0043 69.3289 24.7406 70.5686 25.4576L98.8933 41.8003C100.133 42.5173 100.34 43.9431 99.3479 44.9815L54.5426 91.9412Z" fill="white"/>
<path d="M86.4211 39.0895L81.6108 36.2793C80.9165 35.8755 80.0321 35.9991 79.4784 36.576C79.0816 36.9963 79.1726 37.672 79.6767 37.9605L84.4871 40.7708C85.1731 41.1747 86.0492 41.0593 86.6029 40.4906C87.0079 40.0703 86.917 39.378 86.4128 39.0895H86.4211ZM41.3926 76.1018C39.0701 76.1678 37.1443 77.6018 37.0865 79.2995C37.0286 80.9973 38.8552 82.3158 41.1777 82.2499C43.5002 82.184 45.426 80.75 45.4838 79.0522C45.5417 77.3545 43.7151 76.0359 41.3926 76.1018ZM76.974 33.8398C76.1806 33.8645 75.5111 34.3508 75.4946 34.9359C75.4698 35.5211 76.1062 35.9743 76.8997 35.9496C77.6931 35.9249 78.3626 35.4386 78.3791 34.8534C78.4039 34.2683 77.7675 33.815 76.974 33.8398Z" fill="black"/>
<path d="M69.7752 49.16C67.3535 47.7589 63.94 47.9072 61.5018 50.7175C61.5018 50.7175 60.543 51.8054 59.9314 53.2888C59.4272 54.525 59.3611 55.8437 59.9149 56.9975C60.1629 57.5084 60.5348 58.0029 61.1133 58.3408C61.6919 58.6705 62.411 58.8024 63.1052 58.8436C64.6756 58.9178 66.2708 58.4809 67.6263 57.7392C69.2628 56.8491 70.3042 55.8107 70.3042 55.8107C73.0152 53.1652 72.1969 50.5692 69.767 49.1681L69.7752 49.16ZM63.6755 61.2666C63.6755 61.2666 63.3532 60.8627 62.7746 60.327C61.6506 60.2611 60.7001 60.0138 59.9397 59.577C59.1876 59.1402 58.6007 58.4975 58.1875 57.6816C57.361 57.4014 56.7741 57.2777 56.7741 57.2777L52.8895 56.4289C50.4926 55.8602 48.8065 56.0086 46.3601 57.5827L43.1201 59.7667L64.6591 72.2112L66.37 69.1454C67.5767 66.8543 67.2544 65.5439 65.8576 63.9203L63.6838 61.2666H63.6755Z" fill="black"/>
</g>
<defs>
<clipPath id="clip0_15980_9390">
<rect width="100" height="100" fill="white"/>
</clipPath>
</defs>
</svg>
