<svg width="100" height="100" viewBox="0 0 100 100" fill="none" xmlns="http://www.w3.org/2000/svg">
<g clip-path="url(#clip0_15980_9443)">
<rect width="100" height="100" fill="#A19FFF"/>
<path d="M49.9567 59.9953C43.5878 59.9953 37.8206 62.5661 33.6543 66.7216L33.4596 70.9828H37.9355L49.9567 82.9476L61.9779 70.9828H66.4538L66.2592 66.7216C62.0841 62.5661 56.3167 59.9953 49.9478 59.9953H49.9567Z" fill="black"/>
<path d="M49.9565 44.516C39.2887 44.516 29.6381 48.8213 22.6501 55.7765L22.3316 59.9144C22.3316 59.9144 23.3666 59.2541 25.1976 58.3121L27.869 60.9709C33.0349 55.8293 39.9875 52.4838 47.7097 51.9379C48.4527 51.8939 49.2047 51.8587 49.9654 51.8499C58.581 51.8499 66.4006 55.3363 72.0618 60.9709L74.7774 58.2681C76.5819 59.2365 77.5903 59.9232 77.5903 59.9232L77.2718 55.7853C70.2838 48.8301 60.6332 44.5248 49.9654 44.5248L49.9565 44.516Z" fill="black"/>
<path d="M42.2874 21.2028C42.5086 21.1764 42.7209 21.1412 42.942 21.1235C43.287 21.0795 43.6319 21.0443 43.968 21.0179C45.9318 20.833 47.9309 20.7274 49.9477 20.7274C59.8548 20.7274 69.2224 23.0428 77.555 27.1367L79.1117 19.7501C78.1121 19.2923 77.1038 18.8609 76.0866 18.4471L75.1312 24.0289L72.9552 23.6591L73.9902 17.6283C66.4979 14.899 58.4041 13.4023 49.9565 13.4023C30.6642 13.4023 13.1941 21.1852 0.544856 33.775L-0.0389321 37.6576L4.01233 37.2351L5.7638 38.9783C12.5926 32.1815 21.0048 26.9607 30.3811 23.8704C34.4944 22.5674 38.4749 21.7046 42.2962 21.2116L42.2874 21.2028Z" fill="white"/>
<path d="M49.9567 28.9608C34.9722 28.9608 21.4119 35.0005 11.5932 44.773L11.1421 48.7789C11.1421 48.7789 12.1947 48.1538 14.0435 47.2118L16.8121 49.9674C20.5008 46.2961 24.8086 43.2323 29.5499 40.9344C36.0249 38.9623 43.6144 37.4568 51.3013 37.7121C58.2716 37.941 64.8351 39.3057 70.4698 40.9961C75.1668 43.2851 79.4303 46.3225 83.0924 49.9674L85.8788 47.1941C87.7275 48.1538 88.7625 48.7789 88.7625 48.7789L88.3113 44.773C78.4927 35.0005 64.9323 28.9608 49.9478 28.9608H49.9567Z" fill="black"/>
<path d="M99.3684 33.7658C94.8306 29.2493 89.6647 25.3667 84.0212 22.2236L82.4378 29.7512L82.3494 29.7335C86.6484 32.3396 90.6112 35.4386 94.1494 38.9602L95.0428 38.071L99.9434 37.6484L99.3595 33.7658H99.3684Z" fill="white"/>
<path d="M-0.0389321 37.6479L5.24188 42.9039C16.697 31.5026 32.5129 24.4417 49.9477 24.4417C67.3824 24.4417 83.1984 31.5026 94.6535 42.9039L99.9343 37.6479C87.1436 24.9171 69.4611 17.0375 49.9388 17.0375C30.4165 17.0375 12.743 24.9171 -0.0566406 37.6479H-0.0389321Z" fill="black"/>
<path d="M22.3227 59.9071L27.5947 65.1544C33.3178 59.4581 41.2258 55.9277 49.9476 55.9277C58.6694 55.9277 66.5774 59.4581 72.3006 65.1544L77.5725 59.9071C70.5049 52.8727 60.7304 48.5146 49.9476 48.5146C39.1648 48.5146 29.3904 52.8638 22.3227 59.9071ZM33.4505 70.9827L49.9476 87.4023L66.4447 70.9827C62.2254 66.7831 56.3872 64.1771 49.9476 64.1771C43.508 64.1771 37.6699 66.7743 33.4505 70.9827ZM49.9565 32.7817C34.8039 32.7817 21.0755 38.8917 11.1507 48.7787L16.4316 54.0348C25.0207 45.486 36.8826 40.1859 49.9653 40.1859C63.048 40.1859 74.91 45.486 83.4991 54.0348L88.78 48.7787C78.8463 38.8917 65.1268 32.7817 49.9742 32.7817H49.9565Z" fill="white"/>
<path d="M8.86868 64.0947C8.86868 64.0947 11.2039 71.8071 20.6864 73.9377C20.6864 73.9377 13.5037 75.1703 13.3622 83.7543C13.3622 83.7543 10.8324 76.3148 1.7479 73.9289C1.7479 73.9289 9.3375 73.0309 8.86868 64.0947Z" fill="white"/>
</g>
<defs>
<clipPath id="clip0_15980_9443">
<rect width="100" height="100" fill="white"/>
</clipPath>
</defs>
</svg>
