<svg width="24" height="24" viewBox="0 0 24 24" fill="none" xmlns="http://www.w3.org/2000/svg">
<path d="M10.8789 5.00488C11.7871 5.00488 12.5312 5.74087 12.5312 6.65723V10.0693L16.3691 11.5088H16.377C17.5306 11.9424 18.2919 13.0149 18.3164 14.2422C18.3491 15.764 18.0375 18.4226 17.2686 20.6396L17.1465 21H10.4697L5.53613 14.9209C5.1844 14.3974 5.09444 13.6694 5.65039 13.2275C6.54221 12.5157 8.04017 12.7039 8.98926 13.6611L9.22656 13.8984V6.65723C9.22657 5.74907 9.97076 5.00491 10.8789 5.00488ZM10.8711 6.07617C10.5438 6.07617 10.2734 6.34656 10.2734 6.67383V16.5654L8.21973 14.4219C7.66336 13.8655 6.74687 13.7015 6.29688 14.0615C6.2887 14.0942 6.32989 14.2251 6.37891 14.2988L10.9609 19.9365H16.3691L16.377 19.9443C16.9824 18.0053 17.2769 15.6653 17.2441 14.2744C17.2195 13.4808 16.7285 12.7938 15.9922 12.5156L11.4678 10.8223V6.67383C11.4678 6.34666 11.1982 6.07635 10.8711 6.07617ZM17.3184 3C18.4473 3.00017 19.3633 3.91691 19.3633 5.0459V6.68164C19.3633 7.81063 18.4473 8.72737 17.3184 8.72754H14.0449V7.66406H17.3184C17.8582 7.66389 18.2998 7.22154 18.2998 6.68164V5.0459C18.2998 4.506 17.8582 4.06365 17.3184 4.06348H6.68164C6.14166 4.0635 5.7002 4.50591 5.7002 5.0459V6.68164C5.7002 7.22163 6.14166 7.66404 6.68164 7.66406H7.90918V8.72754H6.68164C5.55257 8.72751 4.63574 7.81072 4.63574 6.68164V5.0459C4.63574 3.91682 5.55257 3.00002 6.68164 3H17.3184Z" fill="black"/>
</svg>
