<svg width="24" height="24" viewBox="0 0 24 24" fill="none" xmlns="http://www.w3.org/2000/svg">
<path d="M9.17578 9.87988C10.4109 11.5102 11.5715 13.2149 12.6172 15.0264C13.6629 16.8379 14.5528 18.6988 15.3516 20.5762L9.17578 18.6494L3 20.5762C3.79867 18.6989 4.68774 16.8378 5.7334 15.0264C6.77913 13.2066 7.9489 11.5102 9.17578 9.87988ZM9.16699 11.6826C8.22006 13.0083 7.3891 14.2852 6.65625 15.5615C6.05516 16.599 5.48626 17.6862 4.93457 18.8555L8.84668 17.6367L9.16699 17.5371L9.48828 17.6367L13.3994 18.8555C12.8477 17.6862 12.2716 16.599 11.6787 15.5615C10.9459 14.2852 10.1139 13.0083 9.16699 11.6826ZM21 3.42383C20.2013 5.30109 19.3122 7.16223 18.2666 8.97363C17.2209 10.7934 16.0511 12.4898 14.8242 14.1201C13.5891 12.4898 12.4285 10.7851 11.3828 8.97363C10.3371 7.16213 9.44715 5.3012 8.64844 3.42383L14.8242 5.35059L21 3.42383ZM15.1455 6.37207L14.8242 6.4707L14.5029 6.37207L10.5918 5.15332C11.1435 6.32258 11.7196 7.40975 12.3125 8.44727C13.0453 9.72351 13.8773 10.9995 14.8242 12.3252C15.7711 10.9995 16.6031 9.72351 17.3359 8.44727C17.937 7.40978 18.505 6.32255 19.0566 5.15332L15.1455 6.37207Z" fill="black"/>
</svg>
