<svg width="24" height="24" viewBox="0 0 24 24" fill="none" xmlns="http://www.w3.org/2000/svg">
<path d="M12 3C12.315 3 12.6304 3.10105 12.9004 3.30371L20.2803 8.97852C20.7301 9.32852 20.9999 9.87197 21 10.4521V21H3V10.4521C3.00008 9.87197 3.2699 9.32852 3.71973 8.97852L11.0996 3.30371C11.3696 3.10105 11.685 3 12 3ZM12 4.19727C11.946 4.19727 11.8738 4.20645 11.8018 4.26172L4.42188 9.92773C4.26005 10.0475 4.16992 10.2408 4.16992 10.4434V19.793H8.40039V12.7002H15.5996V19.793H19.8301V10.4521C19.83 10.2496 19.74 10.0562 19.5781 9.93652L12.1982 4.26172C12.1262 4.20645 12.054 4.19727 12 4.19727ZM9.57031 13.8975V19.793H14.4297V13.8975H9.57031Z" fill="black"/>
</svg>
