<svg width="24" height="24" viewBox="0 0 24 24" fill="none" xmlns="http://www.w3.org/2000/svg">
<path d="M3.04541 11.139C2.53133 6.44885 6.45129 2.53007 11.1421 3.04431C14.405 3.40802 17.092 5.99677 17.5532 9.24158C17.8281 11.1833 17.3403 12.9926 16.356 14.4379C16.1165 14.7837 16.1786 15.2537 16.4712 15.5463L20.7983 19.8724L20.8071 19.8636C21.0643 20.1208 21.0643 20.547 20.8071 20.8041C20.6742 20.9369 20.5057 20.9984 20.3374 20.9984C20.1691 20.9984 20.0006 20.9368 19.8677 20.8041L15.5396 16.4769C15.2381 16.1845 14.7769 16.1224 14.4312 16.3617C12.9858 17.3458 11.1679 17.825 9.23486 17.5502C5.98943 17.089 3.4001 14.393 3.04541 11.139ZM10.3081 4.33923C7.0094 4.33923 4.32278 7.02532 4.32275 10.3236C4.32275 13.6219 7.00939 16.309 10.3081 16.309C13.6068 16.3089 16.2935 13.6219 16.2935 10.3236C16.2934 7.02533 13.6068 4.33925 10.3081 4.33923Z" fill="black"/>
</svg>
