<svg width="24" height="24" viewBox="0 0 24 24" fill="none" xmlns="http://www.w3.org/2000/svg">
<path d="M15 7L15 22C15 23.1 14.1 24 13 24H3C1.9 24 1 23.1 1 22L1 7C1 5.9 1.9 5 3 5L13 5C14.1 5 15 5.9 15 7ZM3 6.3C2.62 6.3 2.29999 6.62 2.29999 7L2.29999 22C2.29999 22.38 2.62 22.7 3 22.7H13C13.38 22.7 13.7 22.38 13.7 22L13.7 7C13.7 6.62 13.38 6.3 13 6.3L3 6.3Z" fill="black"/>
<path d="M23 2L23 16C23 17.1 22.1 18 21 18H16.5V16.7H21C21.38 16.7 21.7 16.38 21.7 16L21.7 2C21.7 1.62 21.38 1.3 21 1.3L12 1.3C11.62 1.3 11.3 1.62 11.3 2V3.5H10V2C10 0.899999 10.9 -4.80825e-08 12 0L21 3.93402e-07C22.1 4.41485e-07 23 0.9 23 2Z" fill="black"/>
</svg>
