<svg width="24" height="24" viewBox="0 0 24 24" fill="none" xmlns="http://www.w3.org/2000/svg">
<path d="M21.8621 15.1975C21.4537 12.6073 20.0135 10.3287 17.9821 8.81322C17.434 8.4048 17.1975 7.69542 17.4017 7.05055L18.2508 4.30992C18.6915 2.88045 17.9821 1.32199 16.5849 0.806092C13.6292 -0.268697 10.3081 -0.268697 7.35245 0.806092C5.95522 1.32199 5.23512 2.88045 5.68653 4.30992L6.54636 7.07207C6.75057 7.71694 6.53561 8.41555 5.99822 8.81322C3.56919 10.6296 2 13.5316 2 16.799C2 18.5294 2.44066 20.1522 3.21451 21.571C4.05285 23.1079 5.71877 24 7.47068 24H16.5097C18.2508 24 19.9275 23.1079 20.7658 21.5817C21.7761 19.7331 22.2275 17.5298 21.8621 15.1975ZM7.01927 3.90149C6.79356 3.15989 7.18048 2.36448 7.91134 2.09579C10.5123 1.16072 13.4358 1.16072 16.0368 2.09579C16.7676 2.35374 17.1545 3.15989 16.9288 3.90149L16.112 6.51316C15.94 7.07205 15.3381 7.38377 14.7792 7.22255C14.2633 7.07208 13.7367 6.96455 13.1886 6.90006C12.7909 6.85707 12.3932 6.83564 11.9955 6.83564C11.0067 6.83564 10.0609 6.97537 9.1581 7.24407C8.59921 7.40529 8.01882 7.09356 7.83611 6.53467L7.01927 3.91225V3.90149ZM19.5513 20.8938C18.9709 21.9579 17.8102 22.6135 16.5097 22.6135H7.48143C6.18093 22.6135 5.02016 21.9579 4.45052 20.9046C3.76265 19.6578 3.40797 18.2392 3.40797 16.799C3.40797 12.0591 7.26647 8.20065 12.0063 8.20065C12.3502 8.20065 12.6942 8.22208 13.0381 8.26507C16.7784 8.69498 19.9167 11.7044 20.4971 15.4124C20.7981 17.3256 20.4756 19.2279 19.5728 20.8938H19.5513Z" fill="black"/>
<path d="M9.73848 15.7563L10.91 14.6064C11.4044 14.1442 11.5764 13.9722 12.1245 13.5423H10.2221C10.3619 13.9615 10.2221 14.1335 9.79222 14.5312L8.38425 15.8853V14.1979C8.38425 14.0833 8.44874 13.8648 8.57771 13.5423H6.78281C6.90462 13.8648 6.96553 14.0833 6.96553 14.1979V18.1532C6.96553 18.2679 6.90462 18.4864 6.78281 18.8088H8.6207C8.47023 18.4864 8.395 18.2679 8.395 18.1532V16.2723L10.3081 18.8088H12.1997C11.8988 18.4864 11.7913 18.3573 11.5656 18.0564L9.75998 15.7563H9.73848Z" fill="black"/>
<path d="M14.6288 16.7667H16.1012C16.026 17.6265 15.6498 18.0564 14.9835 18.0564C14.1451 18.0564 13.64 17.3901 13.64 16.2185C13.64 14.9718 14.2204 14.2731 15.2307 14.2731C15.9938 14.2731 16.5634 14.6601 17.1115 15.5307V14.0044C16.5956 13.6175 15.94 13.4241 15.1662 13.4241C13.3068 13.4241 12.146 14.5956 12.146 16.197C12.146 17.7985 13.2745 18.9163 14.9297 18.9163C16.5849 18.9163 17.5307 17.8738 17.5522 15.9929H14.9512L14.618 16.7559L14.6288 16.7667Z" fill="black"/>
</svg>
