<svg width="24" height="24" viewBox="0 0 24 24" fill="none" xmlns="http://www.w3.org/2000/svg">
<path d="M0 21H24C24 20.17 23.33 19.5 22.5 19.5H1.5C0.67 19.5 0 20.17 0 21Z" fill="black"/>
<path d="M14.76 5.81993C14.76 4.18993 13.51 2.78995 11.88 2.70995C10.14 2.61995 8.7 4.00997 8.7 5.72997V6.01C8.7 6.22 8.57 6.40998 8.38 6.48998C4.65 7.93998 2 11.56 2 15.8V17.99H22V15.8C22 11.36 19.11 7.61004 15.11 6.30004C14.9 6.23004 14.76 6.03005 14.76 5.81005V5.81993ZM10 5.72997C10 4.77997 10.77 3.99999 11.73 3.99999C12.69 3.99999 13.46 4.76997 13.46 5.72997V5.92003C12.98 5.85003 12.5 5.80004 12 5.80004C11.32 5.80004 10.65 5.86999 10 5.99999V5.72997ZM20.7 16.6999H3.3V15.81C3.3 11.01 7.2 7.10997 12 7.10997C16.8 7.10997 20.7 11.01 20.7 15.81V16.6999Z" fill="black"/>
</svg>
