<svg width="24" height="24" viewBox="0 0 24 24" fill="none" xmlns="http://www.w3.org/2000/svg">
<path d="M14.717 7.25244C16.851 6.71688 17.907 5.6569 17.962 5.60111C19.227 4.31799 19.227 2.22036 17.962 0.937238C16.73 -0.312413 14.585 -0.312413 13.364 0.937238C13.309 0.993026 12.473 1.87448 11.923 3.60391C11.373 1.87448 10.537 0.993029 10.482 0.948398C9.25 -0.301253 7.105 -0.301253 5.884 0.948398C4.663 2.19805 4.619 4.32915 5.884 5.61228C5.939 5.66806 6.995 6.72804 9.129 7.2636H1V24H23V7.2636H14.717V7.25244ZM14.376 1.96374C14.717 1.61786 15.179 1.41702 15.663 1.41702C16.147 1.41702 16.609 1.6067 16.95 1.96374C17.665 2.68899 17.665 3.86053 16.95 4.57462C16.895 4.63041 15.608 5.88006 12.891 6.08089C13.089 3.32497 14.321 2.01953 14.376 1.96374ZM6.907 1.96374C7.248 1.61786 7.71 1.41702 8.194 1.41702C8.678 1.41702 9.14 1.6067 9.481 1.96374C9.536 2.01953 10.768 3.32497 10.966 6.08089C8.249 5.88006 6.962 4.63041 6.907 4.57462C6.192 3.84937 6.192 2.67783 6.907 1.96374ZM2.43 22.5383V16.5133H11.285V22.5383H2.43ZM12.715 16.5133H14.629L14.365 15.8438C14.244 15.5537 14.079 15.2971 13.87 15.0628H12.715V14.2594C12.198 14.0251 11.714 13.7015 11.285 13.3333V15.0739H2.43V8.71409H10.9V10.0084C11.032 10.5328 11.648 11.4031 12.077 11.8382C12.506 12.2734 12.99 12.5858 13.507 12.8089C14.024 13.0209 14.519 13.3445 14.937 13.7796C15.355 14.2148 15.674 14.7057 15.894 15.2301L18.6 12.4854C18.391 11.961 18.072 11.4589 17.643 11.0349C17.214 10.6109 16.73 10.2873 16.213 10.0642C15.696 9.85216 15.201 9.52859 14.783 9.09345C14.662 8.97072 14.574 8.83682 14.475 8.71409H21.57V15.0739H18.369L16.939 16.5244H21.57V22.5495H12.715V16.5133Z" fill="black"/>
</svg>
