<svg width="24" height="24" viewBox="0 0 24 24" fill="none" xmlns="http://www.w3.org/2000/svg">
<path d="M21.6436 5.57455L21.2509 5.65092C20.76 5.7491 20.3018 5.94546 19.8873 6.19637L22.5818 7.74546V10.8982L12 17.0073L1.41818 10.8982V7.74546L12 1.63636L14.1382 2.8691C14.5527 2.59637 14.9127 2.24728 15.1964 1.84364L12 0L0 6.92728V23.2909H24V6.92728L21.6436 5.56364V5.57455ZM1.41818 21.8836V12.5564L12 18.6655L22.5818 12.5564V21.8836H1.41818Z" fill="black"/>
<path d="M16.7782 8.02909H3.27273V10.1018L4.69091 10.92V9.44728H19.3091V10.92L20.7273 10.1018V8.02909H17.1273C17.7164 6.27273 19.2 4.94181 21.0436 4.58181C18.9818 4.17818 17.3564 2.55272 16.9527 0.490906C16.5491 2.55272 14.9236 4.17818 12.8618 4.58181C14.7055 4.94181 16.1891 6.27273 16.7782 8.02909Z" fill="black"/>
</svg>
