<svg width="24" height="24" viewBox="0 0 24 24" fill="none" xmlns="http://www.w3.org/2000/svg">
<path d="M10.2857 5.80586L13.7621 2.3296L11.9343 0.501795H6.03285L4.20508 2.3296L7.66949 5.7939C3.333 6.4151 0 10.1424 0 14.6461C0 19.5918 4.01394 23.6058 8.95968 23.6058C13.9054 23.6058 17.9194 19.5918 17.9194 14.6461C17.9194 10.1543 14.6103 6.439 10.2857 5.7939V5.80586ZM6.67795 2.05472H11.2892L11.564 2.3296L8.98357 4.90989L6.40319 2.3296L6.67795 2.05472ZM8.95968 22.0647C4.87407 22.0647 1.55301 18.7437 1.55301 14.6581C1.55301 10.5724 4.87407 7.25145 8.95968 7.25145C13.0453 7.25145 16.3664 10.5724 16.3664 14.6581C16.3664 18.7437 13.0453 22.0647 8.95968 22.0647Z" fill="black"/>
<path d="M19.5202 0C19.0781 2.25784 17.2982 4.03783 15.0403 4.47984C17.2982 4.92185 19.0781 6.70184 19.5202 8.95968C19.9622 6.70184 21.7422 4.92185 24 4.47984C21.7422 4.03783 19.9622 2.25784 19.5202 0Z" fill="black"/>
</svg>
