<svg width="24" height="24" viewBox="0 0 24 24" fill="none" xmlns="http://www.w3.org/2000/svg">
<path d="M24 2C24 2 22.4291 2.86181 20.0291 2.86181C19.2873 2.86181 18.4691 2.77455 17.5855 2.56728C16.7236 2.36 15.96 2.27273 15.3055 2.27273C13.1018 2.27273 12 3.16728 12 3.16728C12 3.16728 10.8982 2.27273 8.69454 2.27273C8.02909 2.27273 7.27636 2.3491 6.41454 2.56728C5.53091 2.78546 4.71273 2.86181 3.97091 2.86181C1.57091 2.86181 0 2 0 2V16.9127C0 16.9127 0.403635 17.1309 1.10182 17.3491V22.0509C1.21091 22.0509 3.77454 22.1491 7.24364 20.3491C9.79636 19.0291 11.4109 20.6873 11.4764 20.7527L12 21.32L12.5236 20.7527C12.5236 20.7527 14.1709 19.0073 16.7564 20.3491C19.8545 21.9527 22.2655 22.0509 22.8218 22.0509C22.8873 22.0509 22.9309 22.0509 22.9418 22.0509V17.3382C23.6182 17.1309 24 16.9127 24 16.9127V2ZM6.58909 19.0945C4.93091 19.9564 3.50182 20.3273 2.52 20.5018V17.6764C2.95636 17.7418 3.43636 17.7855 3.97091 17.7855C4.71273 17.7855 5.53091 17.6982 6.41454 17.4909C6.81818 17.3927 7.21091 17.3491 7.57091 17.3491C8.98909 17.3491 10.0582 18.0255 10.8 18.7236C9.70909 18.3309 8.24727 18.2436 6.6 19.1054L6.58909 19.0945ZM11.3455 17.3164C10.4291 16.5636 9.17454 15.9309 7.57091 15.9309C7.08 15.9309 6.57818 15.9964 6.07636 16.1164C5.37818 16.2909 4.66909 16.3673 3.97091 16.3673C2.88 16.3673 1.99636 16.16 1.41818 15.9745V3.99637C2.12727 4.16 2.98909 4.28 3.97091 4.28C4.89818 4.28 5.83636 4.17091 6.75273 3.94182C7.42909 3.77818 8.08363 3.69091 8.69454 3.69091C10.3091 3.69091 11.0945 4.26909 11.1055 4.26909L11.3455 4.46545V17.3164ZM12.7636 4.38909L12.8727 4.30182C12.8727 4.30182 13.7018 3.70182 15.3055 3.70182C15.9164 3.70182 16.5709 3.78908 17.2473 3.95272C18.1636 4.18181 19.1018 4.29092 20.0291 4.29092C21.0109 4.29092 21.8727 4.17091 22.5818 4.00727V15.9855C22.0036 16.1709 21.12 16.3782 20.0291 16.3782C19.3309 16.3782 18.6218 16.2909 17.9236 16.1273C17.4218 16.0073 16.92 15.9418 16.4291 15.9418C14.88 15.9418 13.6691 16.5418 12.7527 17.2509V4.4L12.7636 4.38909ZM21.5018 20.5018C20.5091 20.3382 19.08 19.9564 17.4109 19.0945C15.7636 18.2436 14.3127 18.3309 13.2109 18.7127C13.9527 18.0146 15.0218 17.3382 16.44 17.3382C16.8 17.3382 17.1927 17.3818 17.5964 17.48C18.48 17.6982 19.2982 17.7746 20.04 17.7746C20.5745 17.7746 21.0655 17.7309 21.5127 17.6655V20.4909L21.5018 20.5018Z" fill="black"/>
<path d="M17.4436 10.9127C18.7091 11.2182 19.8218 11.1855 20.7382 11.0109V9.54909C19.9527 9.73455 18.96 9.82183 17.7818 9.53819C16.2436 9.15637 15.0545 9.37456 14.1927 9.74547V11.36C14.7818 10.9564 15.8509 10.5309 17.4436 10.9236V10.9127Z" fill="black"/>
<path d="M17.2473 7.63999C18.6109 7.96727 19.7891 7.89091 20.7382 7.69454V6.23273C19.9309 6.45091 18.8509 6.57091 17.5745 6.26545C16.1564 5.92727 15.0327 6.06908 14.1927 6.37453V7.92362C14.8255 7.57453 15.8182 7.2909 17.2473 7.63999Z" fill="black"/>
<path d="M20.7382 14.2945V12.8545C19.9855 13.0182 19.0364 13.0727 17.9345 12.8C16.3636 12.4182 15.1091 12.7345 14.1927 13.2691V15.0255C14.7055 14.5018 15.8073 13.7382 17.6073 14.1745C18.8073 14.4691 19.8545 14.4364 20.7382 14.2836V14.2945Z" fill="black"/>
<path d="M6.24 9.52727C5.07272 9.81091 4.06909 9.72364 3.28363 9.53819V11C4.2 11.1745 5.31273 11.2182 6.57818 10.9018C8.18182 10.5091 9.24 10.9455 9.82909 11.3382V9.72364C8.96727 9.35273 7.77818 9.13455 6.24 9.51637V9.52727Z" fill="black"/>
<path d="M6.44727 6.26547C5.17091 6.57092 4.10182 6.45092 3.28363 6.23274V7.69455C4.23273 7.90183 5.42182 7.97819 6.77454 7.64C8.20364 7.29091 9.19636 7.58545 9.82909 7.92364V6.37455C8.98909 6.06909 7.86545 5.91637 6.44727 6.26547Z" fill="black"/>
<path d="M6.08727 12.8C4.99636 13.0727 4.04727 13.0182 3.28363 12.8545V14.2945C4.16727 14.4473 5.22545 14.4691 6.41454 14.1854C8.21454 13.7491 9.30545 14.5127 9.82909 15.0364V13.28C8.90182 12.7564 7.64727 12.4291 6.08727 12.8109V12.8Z" fill="black"/>
</svg>
