<svg width="24" height="24" viewBox="0 0 24 24" fill="none" xmlns="http://www.w3.org/2000/svg">
<path d="M17.4805 8.78049L15.5488 2.58734C15.0688 1.04198 13.6522 0 12.0366 0C10.421 0 9.00439 1.04198 8.52439 2.58734L6.59268 8.78049H1.5V24H22.5732V8.78049H17.4805ZM9.9761 3.03223C10.2571 2.13076 11.0883 1.52194 12.0366 1.52194C12.9849 1.52194 13.8161 2.13076 14.0971 3.03223L15.8883 8.78049H8.19659L9.98781 3.03223H9.9761ZM21.0512 22.4781H3.02195V10.3024H6.12439L5.55073 12.1288C5.42195 12.5268 5.64439 12.96 6.05415 13.0771C6.4522 13.2058 6.88537 12.9717 7.00244 12.5736L7.71659 10.2907H16.3566L17.0707 12.5736C17.1761 12.9015 17.4688 13.1122 17.7966 13.1122C17.8668 13.1122 17.9488 13.1122 18.019 13.0771C18.4171 12.9483 18.6395 12.5268 18.5224 12.1288L17.9488 10.3024H21.0512V22.4781Z" fill="black"/>
</svg>
