<svg width="24" height="24" viewBox="0 0 24 24" fill="none" xmlns="http://www.w3.org/2000/svg">
<path d="M23.3948 13.1239L20.1496 1.03003L0 6.42479L3.24522 18.5187L23.4052 13.1135L23.3948 13.1239ZM19.2 2.68912L21.7357 12.1639L4.19478 16.8596L1.65913 7.38478L19.2 2.68912Z" fill="black"/>
<path d="M20.1704 15.6074L15.2243 16.9326L15.7043 17.2874L14.8278 20.0005L17.1339 18.3204L19.44 20.0005L18.5635 17.2874L20.8696 15.6074H20.1704Z" fill="black"/>
<path d="M13.9096 12.5813L15.7043 10.3691L18.3652 11.3918L16.8104 8.99171L18.6052 6.77954L15.8504 7.52043L14.2957 5.12045L14.1496 7.96912L11.3948 8.71001L14.0557 9.7326L13.9096 12.5813Z" fill="black"/>
<path d="M6.88696 13.8335C6.48 13.9378 6.22957 14.3657 6.33391 14.7831C6.43826 15.1379 6.7513 15.3674 7.09565 15.3674C7.15826 15.3674 7.2313 15.3569 7.29391 15.3361C7.7113 15.2317 7.96174 14.8039 7.84696 14.3865C7.74261 13.9587 7.31478 13.7187 6.88696 13.8335Z" fill="black"/>
<path d="M6.30261 11.6108C5.88522 11.7256 5.63478 12.1535 5.74957 12.5709C5.84348 12.9152 6.15652 13.1552 6.50087 13.1552C6.57391 13.1552 6.63652 13.1448 6.69913 13.1239C7.11652 13.0091 7.36696 12.5813 7.25217 12.1639C7.14783 11.7465 6.72 11.496 6.30261 11.6108Z" fill="black"/>
<path d="M5.70783 9.38826C5.29043 9.50304 5.04 9.93091 5.15478 10.3483C5.2487 10.7031 5.56174 10.9326 5.90609 10.9326C5.97913 10.9326 6.04174 10.9222 6.11478 10.9013C6.53217 10.797 6.77217 10.3692 6.66783 9.95178C6.55304 9.53439 6.12522 9.28391 5.70783 9.38826Z" fill="black"/>
<path d="M5.3113 8.71C5.38435 8.71 5.44696 8.70997 5.52 8.68911C5.93739 8.57432 6.17739 8.14651 6.07304 7.72912C5.95826 7.31173 5.53043 7.06127 5.11304 7.17605C4.69565 7.29083 4.44522 7.7187 4.56 8.1361C4.65391 8.48044 4.96696 8.71 5.3113 8.71Z" fill="black"/>
<path d="M23.8017 14.637L22.6435 14.9395V21.5552H4.48696V19.8126L3.64174 20.0317L3.13043 20.1674V22.9117H24V14.5848L23.8017 14.637Z" fill="black"/>
</svg>
