<svg width="100" height="100" viewBox="0 0 100 100" fill="none" xmlns="http://www.w3.org/2000/svg">
<g clip-path="url(#clip0_15980_5869)">
<rect width="100" height="100" fill="#9DE7DE"/>
<path d="M28.6551 46.9389C27.2951 45.8089 25.8351 44.9389 24.3151 44.3089L23.0951 44.5389C20.8851 44.9589 18.8051 43.3289 18.6951 41.0789L18.6751 40.6389H18.6551L17.9251 25.7189C17.7951 23.6789 16.4751 23.1889 16.1251 23.0889C16.0951 23.0889 16.0651 23.0789 16.0351 23.0689L-5.7049 16.5389C-6.1449 16.4389 -6.49489 16.1889 -6.51489 15.8889H-6.54492L-5.84491 33.0089C-5.71491 35.4689 -4.09488 37.6089 -1.75488 38.3889L13.9751 43.6589C2.6151 46.6689 -6.43488 61.1789 -6.43488 76.7789C-6.43488 86.2489 -3.20488 94.3589 2.43512 99.0289C5.50512 101.569 9.02513 102.869 12.7551 102.869C13.7951 102.869 14.8551 102.769 15.9251 102.569C27.8451 100.299 37.5351 85.3189 37.5351 69.1689C37.5351 59.6989 34.3051 51.5889 28.6651 46.9189L28.6551 46.9389ZM15.1651 98.6589C11.4751 99.3589 7.9451 98.4289 4.9751 95.9689C0.325098 92.1189 -2.44489 84.9589 -2.44489 76.7989C-2.44489 62.4789 5.7951 49.2589 15.9151 47.3289C16.7151 47.1789 17.5051 47.0989 18.2951 47.0989C21.1151 47.0989 23.7851 48.0889 26.1151 50.0189C30.7651 53.8689 33.5351 61.0289 33.5351 69.1889C33.5351 83.5089 25.2951 96.7289 15.1751 98.6589H15.1651Z" fill="black"/>
<path d="M41.4051 43.4177C45.3151 48.5577 49.9351 53.8577 56.1851 53.8577C56.3951 53.8577 56.6151 53.8577 56.8351 53.8377L55.5751 58.5377L59.9351 57.7077L67.0251 31.1876C67.0251 31.1876 63.8151 30.4476 61.5151 36.3076L57.9551 49.6377C53.7551 50.6177 50.0851 48.2376 44.5851 40.9976C39.5451 34.3776 31.8851 21.8477 31.8051 21.7277C31.2251 20.7877 29.9951 20.4876 29.0551 21.0676C28.1151 21.6476 27.8151 22.8776 28.3951 23.8176C28.7151 24.3377 36.2451 36.6376 41.4051 43.4276V43.4177Z" fill="black"/>
<path d="M50.7551 60.6088C42.2551 50.6888 30.5951 33.0887 30.4551 32.8787C29.8451 31.9587 28.6051 31.7087 27.6851 32.3087C26.7651 32.9187 26.5151 34.1587 27.1151 35.0787C27.6851 35.9487 39.8951 54.3587 48.6151 64.2387C49.0951 62.8087 49.8351 61.5487 50.7451 60.5987L50.7551 60.6088Z" fill="black"/>
<path d="M82.1351 89.2097C78.4551 89.2097 74.9851 87.9297 71.9651 85.4297C66.4051 80.8297 63.2251 72.8397 63.2251 63.5097C63.2251 47.5997 72.7751 32.8397 84.5251 30.5997C89.3551 29.6797 93.9551 30.8797 97.8151 34.0797C103.375 38.6797 106.555 46.6697 106.555 55.9997C106.555 71.9097 97.0051 86.6697 85.2551 88.9097C84.2051 89.1097 83.1551 89.2097 82.1351 89.2097ZM87.5951 34.2497C86.8251 34.2497 86.0451 34.3198 85.2551 34.4798C75.2751 36.3798 67.1651 49.4097 67.1651 63.5197C67.1651 71.5597 69.8951 78.6197 74.4751 82.3997C77.4051 84.8297 80.8751 85.7397 84.5151 85.0497C94.4951 83.1497 102.605 70.1197 102.605 56.0097C102.605 47.9697 99.8751 40.9097 95.2951 37.1297C92.9951 35.2297 90.3751 34.2597 87.5951 34.2597V34.2497Z" fill="black"/>
<path d="M64.565 9.35865C64.3651 8.16865 63.195 7.4486 62.075 7.7486L51.785 10.5286C50.755 10.6986 41.425 12.0486 30.325 8.75861C25.745 7.39861 23.465 5.9086 22.325 4.8086C21.775 4.2786 22.0251 3.35863 22.7551 3.14863L29.875 1.07862C30.885 0.788619 31.585 -0.201379 31.395 -1.23138C31.175 -2.41138 29.995 -3.11138 28.865 -2.79138L20.235 -0.291376C18.595 0.188624 17.385 1.65861 17.335 3.50861C17.315 4.15861 17.495 4.80862 17.795 5.38862C19.255 8.26862 22.875 10.6286 28.555 12.3986C29.465 12.6886 30.015 13.6186 29.815 14.5586L22.435 48.7386C22.415 48.8886 19.875 63.7986 15.715 70.7286C15.235 71.5186 15.335 72.5686 16.005 73.2086C16.415 73.5986 16.915 73.7886 17.415 73.7886C18.095 73.7886 18.755 73.4386 19.125 72.8186C23.695 65.2486 26.275 50.0386 26.365 49.4886L33.725 15.6886C33.955 14.6486 34.955 13.9686 35.995 14.1386C39.625 14.7386 42.895 14.9286 45.555 14.9286C49.345 14.9286 51.885 14.5586 52.415 14.4686C52.555 14.4486 52.675 14.4186 52.805 14.3886L62.995 11.6386C64.005 11.3686 64.735 10.3886 64.565 9.34864V9.35865Z" fill="white"/>
<path d="M50.8149 69.0378C50.8149 64.7178 53.3449 60.7278 56.4749 60.1378L85.3249 54.6378C85.7549 54.5578 86.1549 54.5978 86.5349 54.7078V54.6678L83.8249 53.8078C82.9849 53.5378 82.0949 53.4878 81.2349 53.6478L53.7049 58.8978C50.5749 59.4978 48.0449 63.4777 48.0449 67.7977C48.0449 71.0377 49.4549 73.4978 51.4449 74.3278L54.2449 75.5978H54.2649C52.2549 74.7878 50.8149 72.3078 50.8149 69.0378Z" fill="black"/>
<path d="M79.365 19.5181C78.465 19.0481 77.435 18.5581 76.235 18.0181C73.035 16.5781 70.365 15.9781 68.395 15.7481C66.495 15.5281 64.565 15.7582 62.745 16.3582L59.735 17.3382C58.595 17.7082 58.1751 19.0781 58.8751 20.0581C58.9851 20.2181 59.085 20.3781 59.165 20.5481C59.485 21.2581 59.115 22.0982 58.385 22.3482C57.385 22.6882 56.135 22.9181 55.225 23.3681C53.405 24.2781 53.765 26.0681 53.765 26.0681C53.765 27.1881 55.8951 28.2582 58.5051 28.0982C62.0751 27.8782 65.405 24.9282 73.495 26.6482C75.095 26.9882 76.745 26.9481 78.335 26.5581L78.525 26.5081C81.895 25.6781 82.4551 21.1081 79.3751 19.5081L79.365 19.5181Z" fill="white"/>
<path d="M5.89505 58.8186C5.89505 58.8186 -1.69493 69.9586 1.35507 85.3886C1.35507 85.3886 1.52506 76.3086 5.97506 78.7886C10.4251 81.2686 13.975 85.4686 20.085 80.9386C20.085 80.9386 9.70507 82.6686 9.60507 69.6386C9.52507 58.9086 5.89505 58.8286 5.89505 58.8286V58.8186Z" fill="white"/>
<path d="M85.2651 68.5567C85.2651 68.5567 89.7252 67.8167 91.5352 62.7767C91.5352 62.7767 93.1052 65.3367 91.6152 68.9667C91.6152 68.9667 96.8951 68.0567 99.7051 59.3967C99.7051 59.3967 99.9852 71.7567 88.8152 80.8467C88.8152 80.8467 92.2851 71.8767 85.2651 68.5567Z" fill="white"/>
<path d="M40.735 18.9391L18.185 11.559C17.225 11.249 16.205 11.179 15.215 11.369L-5.98501 15.3491C-5.98501 15.3491 -6.415 15.3991 -6.535 15.7591C-6.655 16.1291 -6.235 16.439 -5.725 16.559L16.015 23.0891C16.015 23.0891 16.075 23.0991 16.105 23.1091C16.455 23.1991 17.795 23.6891 17.915 25.7691L18.695 41.0891C18.815 43.3391 20.885 44.969 23.095 44.549L34.215 42.429C36.735 41.949 38.675 39.909 39.035 37.369L41.285 19.4691C41.335 19.0991 40.735 18.9491 40.735 18.9491V18.9391Z" fill="white"/>
<path d="M85.3249 54.6388L56.4749 60.1388C53.3449 60.7388 50.8149 64.7189 50.8149 69.0389C50.8149 72.8989 52.8149 75.6489 55.3949 75.8489L55.3449 68.3389L57.1849 67.7089L58.9349 74.9388L85.8149 64.9189C87.6849 64.2189 89.0849 61.7488 89.0849 59.1288C89.0849 56.2488 87.3949 54.2388 85.3149 54.6388H85.3249Z" fill="white"/>
<path d="M58.9849 66.6498C58.8449 65.7498 58.275 65.0999 57.505 65.0999C56.505 65.0999 55.5649 66.1498 55.3849 67.4698C55.3049 68.0499 55.4049 68.5798 55.6149 68.9998L60.3949 79.1398L61.9949 78.4199L58.9849 66.6398V66.6498Z" fill="white"/>
<path d="M63.975 77.4372C63.765 77.3572 63.525 77.3572 63.315 77.4372L58.845 78.9972C58.275 79.1872 57.865 79.7972 57.865 80.5372C57.865 81.2772 58.245 81.8272 58.765 82.0472L65.085 84.1972C65.395 84.3072 65.735 84.2972 66.045 84.1772L69.805 82.6972C70.185 82.5472 70.435 82.1772 70.435 81.7672V80.4472C70.435 80.0272 70.165 79.6472 69.765 79.5072L63.985 77.4572L63.975 77.4372Z" fill="white"/>
<path d="M65.435 84.2589C65.295 84.2389 65.185 84.1589 65.105 84.0689C64.895 83.8189 64.885 83.4989 64.925 83.2589C64.965 83.0189 64.835 82.7589 64.595 82.6789L58.835 80.7489C58.545 80.6489 58.345 80.5589 58.195 80.1689C58.065 79.8189 58.225 79.4489 58.265 79.3889C58.005 79.6789 57.855 80.0789 57.855 80.5389C57.855 81.2389 58.235 81.8289 58.755 82.0489L65.075 84.1989C65.195 84.2389 65.315 84.2589 65.425 84.2689L65.435 84.2589Z" fill="black"/>
<path d="M-3.50488 16.0873L16.7051 12.2874L36.7951 18.9273L17.7751 22.4774L-3.50488 16.0873Z" fill="black"/>
</g>
<defs>
<clipPath id="clip0_15980_5869">
<rect width="100" height="100" fill="white"/>
</clipPath>
</defs>
</svg>
