<svg width="100" height="100" viewBox="0 0 100 100" fill="none" xmlns="http://www.w3.org/2000/svg">
<rect width="100" height="100" fill="#9DE7DE"/>
<path d="M7.21575 52.8296C7.21575 52.8296 8.76116 57.9552 15.0312 59.378C15.0312 59.378 10.2801 60.1998 10.183 65.9086C10.183 65.9086 8.51394 60.9598 2.5 59.378C2.5 59.378 7.52483 58.7859 7.21575 52.8385V52.8296Z" fill="white"/>
<path d="M57.42 28.9762L11.7812 76.9443L51.1765 99.753C51.9006 100.177 52.8191 100.045 53.3931 99.4349L97.248 53.3314C97.6542 52.9072 97.5571 52.2179 97.0449 51.9175L57.4112 28.9762H57.42Z" fill="white"/>
<path d="M95.6496 36.799L57.42 28.9693L11.7812 76.9374L50.629 84.8909C51.2383 85.0146 51.8742 84.8202 52.3069 84.3606L79.2239 56.0729L85.3968 55.4808C86.2534 55.4013 87.0481 55.0124 87.6486 54.4027L94.7135 47.1385C95.2433 46.5906 95.3758 45.7687 95.0491 45.0883L93.2476 41.3502L96.1265 38.319C96.6211 37.8065 96.3473 36.9493 95.6496 36.8079V36.799Z" fill="black"/>
<path d="M80.4163 6.16875C80.4163 6.16875 82.8095 14.1134 92.5236 16.3138C92.5236 16.3138 85.1674 17.5864 85.0172 26.4235C85.0172 26.4235 82.4297 18.7617 73.113 16.305C73.113 16.305 80.8932 15.3771 80.4163 6.16875Z" fill="white"/>
<path d="M82.5358 64.5913C79.4449 60.2258 75.6917 56.5142 71.7177 53.81C76.0891 58.8472 77.6521 64.6179 75.8329 69.0364C82.8536 76.2034 83.7279 85.5001 77.5285 90.5196C74.0049 93.374 68.9006 94.2489 63.6196 93.3563C68.7946 95.5568 74.1375 95.9368 78.5795 93.9837C88.0287 89.8214 90.3601 75.6201 82.5269 64.5913H82.5358Z" fill="black"/>
<path d="M49.2602 61.578C49.2602 61.578 49.6047 64.0171 49.9579 66.1115C49.9579 66.1115 34.9892 66.8096 23.0762 64.998L31.6423 55.9399L49.2602 61.5869V61.578Z" fill="black"/>
<path d="M30.3882 0C39.599 13.9362 62.5156 16.3046 62.5156 16.3046C43.1932 34.5179 51.5033 62.6201 51.5033 62.6201C51.5033 62.6201 10.1651 58.122 18.7048 41.7114L23.2792 34.2882L23.5353 24.6734L25.8402 6.15066L28.3218 2.13859L29.6729 0.645113L30.3882 0Z" fill="white"/>
<path d="M17.7512 44.0621C17.7512 44.0621 19.5351 35.87 31.404 34.1733C31.404 34.1733 19.0668 11.1702 30.3882 0C30.3882 0 21.3719 5.83253 21.3454 26.6971C21.3366 36.0733 17.7512 44.0621 17.7512 44.0621Z" fill="black"/>
</svg>
