<svg width="100" height="100" viewBox="0 0 100 100" fill="none" xmlns="http://www.w3.org/2000/svg">
<rect width="100" height="100" fill="#9DE7DE"/>
<path d="M99.8364 82.3022L84.0838 46.5923C83.7252 45.7764 82.8466 45.2115 82.0039 45.2115C81.8873 45.2115 81.7797 45.2205 81.6632 45.2474L13.4082 59.6641C12.4668 59.8523 12.0453 60.7579 12.4578 61.6903L28.3806 97.6782C28.7393 98.494 29.6269 99.0589 30.4697 99.0589C30.5863 99.0589 30.7117 99.0499 30.8282 99.023L98.913 84.3194C99.8364 84.1311 100.249 83.2256 99.8454 82.3022H99.8364Z" fill="black"/>
<path d="M99.8364 81.1622L84.0838 45.4523C83.7252 44.6364 82.8466 44.0716 82.0039 44.0716C81.8873 44.0716 81.7797 44.0806 81.6632 44.1075L13.4082 58.5241C12.4668 58.7124 12.0453 59.6179 12.4578 60.5503L28.3806 96.5382C28.7393 97.354 29.6269 97.9189 30.4697 97.9189C30.5863 97.9189 30.7117 97.9099 30.8282 97.883L98.913 83.1795C99.8364 82.9912 100.249 82.0857 99.8454 81.1622H99.8364Z" fill="white"/>
<path d="M66.6438 64.7644L74.0494 45.7036L13.4152 58.5065C12.4738 58.6947 12.0523 59.6002 12.4648 60.5327L13.4062 62.6665L64.1514 66.1989C65.1914 66.2706 66.3032 65.6251 66.6438 64.7555V64.7644Z" fill="black"/>
<path d="M67.8203 62.7473L5.27634 50.4286C4.25427 50.2314 3.78814 49.2362 4.24539 48.2231L21.5489 9.10623C21.9972 8.09311 23.1897 7.43862 24.2028 7.64483L86.5584 20.2684C87.5625 20.4746 88.0108 21.4518 87.5715 22.456L70.4472 61.277C69.999 62.2811 68.8244 62.9446 67.8203 62.7473Z" fill="white"/>
<path d="M58.6881 37.4996L56.1419 32.8913L53.6942 33.1782C53.6942 32.2458 53.4073 31.3851 52.9053 30.8023C51.5246 29.1885 52.8515 28.2292 52.8515 28.2292L53.9902 29.2513C53.9902 29.2513 53.8915 29.6458 54.4922 29.7982C55.2632 29.9954 56.0701 29.2423 55.9356 28.7402L55.1915 26.2478C55.9088 25.4857 54.8509 25.1092 55.1288 24.7864C55.5681 24.2843 55.4067 23.7285 55.4067 23.7285L54.8239 24.2664C55.1198 23.854 54.7792 23.4595 54.7792 23.4595C54.7792 23.4595 53.9453 24.625 53.3715 24.5264C53.3715 24.5264 53.3357 24.5264 53.3267 24.5175C53.3267 24.5175 53.3177 24.5175 53.2998 24.5175C52.9681 24.383 53.1115 23.8181 53.2819 23.7106C52.2419 23.6478 52.3405 24.3112 51.5336 24.4637C50.8074 24.5981 50.6639 24.0512 50.6639 24.0512C49.7853 24.8043 50.0453 25.4319 50.0453 25.4319C50.0453 25.4319 49.4446 24.6968 47.9832 25.6382C48.6915 26.732 47.9563 27.3954 47.5349 26.8126C47.5349 26.8126 46.6384 28.3189 48.0639 28.6954C47.5529 28.5878 46.4859 29.3051 46.4321 30.4078C46.4321 30.4078 47.1853 29.9685 47.275 30.6768C47.275 30.6768 46.1363 31.5196 46.7101 32.183C47.3198 31.8782 48.9246 32.3803 45.697 33.3934C44.8005 33.6265 43.6797 33.6982 42.1914 33.3934C40.9632 33.1513 39.7618 33.232 38.7666 33.5996C38.6142 30.5872 33.8893 30.8561 32.652 33.6623C31.621 35.9934 33.2528 36.0651 32.8135 37.0513C32.5086 37.7506 31.7018 37.5534 31.7018 37.5534C31.7018 37.5534 31.9348 38.45 32.7237 38.6024C33.8355 38.8265 34.6245 38.0017 34.8397 37.5086C35.3776 36.2893 34.3107 36.2175 35.01 34.6396C35.1355 35.4017 35.8528 35.1237 35.8528 35.1237C35.5301 34.3258 36.83 33.3396 37.5025 34.2989C36.6059 35.0251 36.0949 36.092 36.2652 37.41C36.5073 39.2658 34.0418 40.1803 34.0418 40.1803C34.0418 40.1803 34.3107 42.5831 33.3155 45.3983L33.6921 45.8286L33.432 46.4473L35.5032 46.8597L35.2072 45.8645C34.2658 44.7976 35.0369 42.5921 35.3238 41.6148C35.6017 40.6824 37.5114 40.6107 37.9328 40.1355C37.9328 40.1355 37.1707 41.3189 36.5341 41.9286C37.3858 43.4707 37.8969 44.9411 38.0314 46.3128L38.399 46.7611L38.139 47.3797L40.1203 47.7742L39.7886 46.788C38.9369 45.6942 38.5873 43.641 38.399 42.5741C38.1838 41.31 40.8376 40.7721 41.9494 38.8893C46.6563 39.2658 49.0949 38.6741 50.6818 37.9927C50.9687 37.8672 51.2287 37.7417 51.4708 37.6162C55.2812 35.8589 55.0302 36.9617 52.4302 39.9562L52.3404 40.4583L51.7219 40.3417L50.9329 42.1707L52.466 41.57L53.3715 40.5748L56.1508 36.1458C55.5681 35.4375 54.1336 35.2941 53.2729 35.2762C53.8288 34.9624 54.3398 34.6844 54.7074 34.532C55.2363 34.3079 55.4785 34.4065 55.8013 34.7382C56.8592 35.8231 57.0026 37.141 57.0026 37.141L57.4419 37.401L57.1461 38.1451L59.0019 38.5127L58.7061 37.4996H58.6881Z" fill="black"/>
<path d="M43.9661 35.5716C43.9661 35.5088 43.9661 35.4281 43.9034 35.3564C43.9482 35.4281 43.9661 35.4998 43.9661 35.5716Z" fill="white"/>
<path d="M27.7803 29.9164L23.5933 29.0826C22.7774 28.9212 22.4098 28.1322 22.7684 27.3164L23.934 24.6805C24.2926 23.8736 25.243 23.3446 26.0588 23.506L30.2368 24.3488C31.0527 24.5101 31.4202 25.2991 31.0616 26.115L29.8961 28.7509C29.5375 29.5578 28.5872 30.0867 27.7713 29.9254L27.7803 29.9164Z" fill="white"/>
<path d="M23.566 13.1673L24.4625 11.1321C24.5163 11.0156 24.597 10.8901 24.7136 10.7287L24.0412 10.5942C24.0053 10.7735 23.9784 10.908 23.9246 11.0246L23.0011 13.1225C22.9473 13.2391 22.8667 13.3646 22.7502 13.526L24.4984 13.8756L24.9018 13.3735C24.7136 13.3825 24.5522 13.3735 24.3102 13.3197L23.566 13.1673Z" fill="black"/>
<path d="M25.7514 13.6069L26.648 11.5717C26.7018 11.4551 26.7824 11.3296 26.8989 11.1682L26.2265 11.0338C26.1907 11.2131 26.1639 11.3476 26.1101 11.4641L25.1866 13.5621C25.1328 13.6786 25.0521 13.8041 24.9355 13.9655L26.6838 14.3152L27.0873 13.8131C26.899 13.8221 26.7376 13.8131 26.4955 13.7503L25.7514 13.5979V13.6069Z" fill="black"/>
<path d="M29.7323 11.7056C28.8447 11.5263 27.9391 12.0642 27.5715 12.907C27.2039 13.7408 27.5267 14.5298 28.4054 14.7091C29.293 14.8884 30.1985 14.3505 30.5661 13.5077C30.9337 12.6739 30.6109 11.8849 29.7323 11.7056ZM30.0192 13.4001C29.7502 14.0008 29.2122 14.3505 28.6116 14.2249C28.0198 14.1084 27.8406 13.6153 28.1095 13.0146C28.3785 12.4139 28.9164 12.0643 29.5171 12.1898C30.1088 12.3063 30.2882 12.7994 30.0192 13.4001Z" fill="black"/>
<path d="M33.8633 12.5838L33.2626 12.4583C33.1909 12.5928 33.1191 12.7004 33.0026 12.8349C32.6798 13.2114 32.2944 13.5073 31.9268 13.7314C31.8102 13.3997 31.7384 13.0142 31.7743 12.5838C31.7833 12.4314 31.8191 12.3059 31.8639 12.1714L31.2454 12.0459C31.1019 12.8528 31.2185 13.5521 31.4695 14.099L30.9943 15.1838L31.5322 15.2914L32.0074 14.2066C32.6619 13.839 33.3253 13.3011 33.8633 12.5748V12.5838Z" fill="black"/>
<path d="M35.1628 12.8455L34.1766 12.6483C34.1407 12.8276 34.1138 12.9621 34.06 13.0786L33.1366 15.1676C33.0828 15.2841 33.002 15.4097 32.8855 15.571L33.8717 15.7683C34.8131 15.9566 35.6738 15.4814 36.0504 14.6117C36.4359 13.751 36.1042 13.0248 35.1628 12.8366V12.8455ZM35.5035 14.5041C35.2255 15.1407 34.7055 15.4186 34.0421 15.2841L33.6924 15.2124L34.562 13.24L34.9117 13.3117C35.5752 13.4462 35.7814 13.8676 35.5035 14.5041Z" fill="black"/>
<path d="M37.8438 13.8222C38.0948 13.876 38.2921 14.0105 38.5252 14.2974L38.7762 13.7326C38.6417 13.616 38.3817 13.4547 38.068 13.3919C37.4583 13.2664 36.9203 13.5085 36.6962 14.0105C36.5348 14.3871 36.6156 14.665 36.9742 14.925L37.3596 15.2119C37.6017 15.3912 37.6376 15.5257 37.5658 15.6871C37.4582 15.9202 37.1983 16.0098 36.8666 15.9381C36.5797 15.8843 36.3734 15.723 36.1134 15.4092L35.8623 15.9919C36.0148 16.1174 36.2837 16.2968 36.6513 16.3685C37.3506 16.5119 37.9065 16.2161 38.1217 15.714C38.292 15.3285 38.1755 15.0326 37.8975 14.8264L37.4135 14.4678C37.2252 14.3243 37.1714 14.2167 37.2521 14.0285C37.3327 13.8402 37.539 13.7505 37.8438 13.8133V13.8222Z" fill="black"/>
<path d="M65.0447 1C65.0447 1 66.5778 6.06556 72.773 7.47315C72.773 7.47315 68.0751 8.28007 67.9855 13.9284C67.9855 13.9284 66.3268 9.04213 60.3916 7.47315C60.3916 7.47315 65.3585 6.88143 65.0537 1.00897L65.0447 1Z" fill="white"/>
<path d="M3.80151 58.5233C3.80151 58.5233 5.04764 62.6565 10.1042 63.7951C10.1042 63.7951 6.27594 64.4586 6.19525 69.0579C6.19525 69.0579 4.85038 65.0682 0 63.7951C0 63.7951 4.05255 63.311 3.80151 58.5233Z" fill="white"/>
<path d="M25.683 90.4333L97.1209 75.0036L93.7857 67.4276L22.3299 82.8574L25.683 90.4333Z" fill="#9DE7DE"/>
<path d="M32.5651 60.721C32.5651 60.721 34.5286 67.2389 42.499 69.041C42.499 69.041 36.4562 70.081 36.3396 77.3342C36.3396 77.3342 34.2148 71.0493 26.5671 69.032C26.5671 69.032 32.9507 68.27 32.5562 60.721H32.5651Z" fill="#9DE7DE"/>
</svg>
