<svg width="100" height="100" viewBox="0 0 100 100" fill="none" xmlns="http://www.w3.org/2000/svg">
<rect width="100" height="100" fill="#9DE7DE"/>
<path d="M69.7956 11.4992C64.2132 12.5952 56.8104 13.199 48.9616 13.199C41.1128 13.199 33.7098 12.5952 28.1274 11.4992C24.2913 10.7468 21.6162 9.83652 20 8.70332V44.7891C20 47.9194 21.0496 50.966 22.9816 53.4275L32.9853 66.2084C33.8213 67.2859 34.2857 68.6049 34.2857 69.9703V79.008C34.2857 80.5127 33.7285 81.971 32.716 83.0949L25.0901 91.566C24.0591 92.7085 24.2263 94.4919 25.4616 95.4115C28.1182 97.3806 34.3879 100 48.9616 100C63.5353 100 69.8049 97.3806 72.4614 95.4115C73.6968 94.4919 73.864 92.7085 72.833 91.566L65.2072 83.0949C64.1947 81.971 63.6374 80.522 63.6374 79.008V69.9703C63.6374 68.6049 64.0925 67.2859 64.9378 66.2084L74.9415 53.4275C76.8735 50.9567 77.9231 47.9194 77.9231 44.7891V8.70332C76.3162 9.82723 73.6318 10.7468 69.7956 11.4992Z" fill="white"/>
<path d="M48.9616 11.332C64.9566 11.332 77.9231 8.79522 77.9231 5.66599C77.9231 2.53675 64.9566 0 48.9616 0C32.9666 0 20 2.53675 20 5.66599C20 8.79522 32.9666 11.332 48.9616 11.332Z" fill="white"/>
<path d="M39.5895 7.38462L55.6121 2.78681C56.1694 2.6289 56.7454 2.57317 57.3213 2.6289L60.3029 2.90756C60.6094 2.93542 60.6465 3.36269 60.3585 3.45558L44.4566 8.09983C43.8715 8.26702 43.2678 8.32275 42.664 8.25773L39.6359 7.93264C39.3294 7.89548 39.2922 7.46821 39.5895 7.38462Z" fill="black"/>
<path d="M55.872 88.0919C55.389 87.8225 54.9338 87.5253 54.488 87.2095C52.8625 86.8008 51.2928 86.1877 49.8623 85.3146C45.7382 82.7882 43.2303 78.4319 42.4129 72.3665L42.2086 70.8153V70.7224C42.2086 68.8647 41.8277 67.0163 41.0939 65.3072L35.9575 53.4086C34.8986 50.9472 34.3505 48.2999 34.3505 45.6156V12.3163C32.1212 12.0655 30.0314 11.759 28.1551 11.3874C24.2725 10.6258 21.5881 9.70623 20.0091 8.56374V44.7889C20.0091 47.9191 21.0586 50.9658 22.9906 53.4272L32.9944 66.2082C33.8303 67.2856 34.2948 68.6046 34.2948 69.97V79.0077C34.2948 80.5125 33.7374 81.9708 32.725 83.0947L25.0992 91.5658C24.0681 92.7083 24.2353 94.4917 25.4707 95.4112C27.1519 96.6652 30.31 98.1699 36.0967 99.1081C35.3536 96.8324 36.9141 94.1944 36.9141 94.1944L40.3416 88.1755C41.4934 86.1506 42.2086 83.8842 42.2086 81.5528C42.2086 81.5342 42.2086 81.5156 42.2086 81.4971V81.0233C43.7041 83.8192 45.7567 86.067 48.404 87.6832C50.1502 88.7514 52.0544 89.4852 54.0236 89.9496C56.903 90.6277 59.8939 90.6369 62.8197 90.2004L63.7393 90.0611C60.9063 90.0611 58.2219 89.4016 55.8627 88.0826L55.872 88.0919Z" fill="black"/>
<path d="M55.1104 18.1685C55.1104 18.1685 64.8911 18.5958 73.9566 16.0136V41.1854C73.9566 41.1854 71.5138 22.3391 55.1104 18.1685Z" fill="#9DE7DE"/>
<path d="M68.3652 86.6249C64.2875 87.7488 60.3771 87.4237 57.2283 85.6682C53.8194 83.7641 51.4695 80.2252 50.4291 75.4323C48.2556 65.4007 46.3236 57.4405 41.3543 46.4614C38.0383 39.1421 33.4405 29.1663 31.1834 24.2898C31.5735 23.6396 31.8056 22.8408 31.8056 21.977C31.8056 19.7942 30.3567 18.0201 28.5733 18.0201C26.7899 18.0201 25.3409 19.7942 25.3409 21.977C25.3409 24.1598 26.7899 25.9339 28.5733 25.9339C28.6662 25.9339 28.7591 25.906 28.8613 25.8967C31.1741 30.9125 35.6047 40.5168 38.8185 47.6132C43.6857 58.3507 45.5712 66.1624 47.7169 76.0267C48.9336 81.6277 51.7574 85.8075 55.8815 88.1111C58.2408 89.43 60.9158 90.0895 63.7581 90.0895C65.9223 90.0895 68.1702 89.6994 70.4366 88.9285L68.3838 86.6435L68.3652 86.6249Z" fill="#9DE7DE"/>
<path d="M79.8179 72.738C79.5299 70.9174 78.9075 69.0876 77.9137 67.1556C76.8641 65.0935 74.5699 59.8269 74.8299 53.5758L72.1269 57.0218C72.5635 62.0469 74.2634 66.1338 75.4244 68.4188C76.279 70.0907 76.8084 71.6512 77.0592 73.1838C77.5886 76.4812 77.5607 82.463 71.3838 85.5097L73.836 87.3302C78.666 84.3579 80.8396 79.1192 79.8086 72.7287L79.8179 72.738Z" fill="black"/>
</svg>
