<svg width="100" height="100" viewBox="0 0 100 100" fill="none" xmlns="http://www.w3.org/2000/svg">
<g clip-path="url(#clip0_4540_1187)">
<rect width="100" height="100" fill="#9DE7DE"/>
<path d="M91.4672 61.0522C103.379 40.4201 100.97 16.7406 86.0826 8.14388L84.7442 7.37172C88.5227 11.8914 90.9112 17.8833 91.6216 24.8946C92.6717 35.2106 89.9846 46.5357 84.0647 56.79C75.0562 72.3979 60.1998 82.4772 46.2186 82.4772C44.6434 82.4772 43.1197 82.3433 41.6371 82.0859L42.9549 82.8478C44.5095 83.7435 46.1362 84.4333 47.8144 84.9377L39.1147 100H43.8712L52.0664 85.8129C55.2889 86.1732 58.6349 85.9158 62.0118 85.0922V100H66.13V83.8053C68.4362 82.9301 70.7321 81.8079 72.9765 80.4489L84.2603 100H89.0168L76.4049 78.1531C82.1292 73.9319 87.3696 68.1355 91.4569 61.0625L91.4672 61.0522Z" fill="black"/>
<path d="M77.348 3.11956C73.6828 0.998691 69.5955 0 65.3435 0C52.3506 0 37.8134 9.36889 28.8358 24.915C16.9239 45.5472 19.333 69.2268 34.2203 77.8235C37.8855 79.9443 41.9728 80.943 46.2248 80.943C59.2177 80.943 73.7549 71.5741 82.7325 56.028C94.6444 35.3959 92.2352 11.7163 77.348 3.11956Z" fill="white"/>
<path d="M75.5432 51.8755C85.1184 35.2907 83.6195 16.499 72.1953 9.90325C60.771 3.30746 43.7475 11.4052 34.1723 27.99C24.597 44.5749 26.0959 63.3665 37.5201 69.9623C48.9444 76.5581 65.9679 68.4604 75.5432 51.8755Z" fill="#9DE7DE"/>
<path d="M68.299 47.6758C75.0597 35.9659 74.1493 22.7833 66.2656 18.2317C58.3818 13.68 46.5102 19.4829 39.7495 31.1927C32.9888 42.9026 33.8992 56.0851 41.7829 60.6368C49.6667 65.1885 61.5383 59.3856 68.299 47.6758Z" fill="white"/>
<path d="M60.9131 43.4281C64.0688 37.9621 63.5054 31.7289 59.6547 29.5056C55.8039 27.2824 50.124 29.9111 46.9682 35.377C43.8125 40.8429 44.3759 47.0762 48.2267 49.2994C52.0774 51.5227 57.7573 48.894 60.9131 43.4281Z" fill="black"/>
<path d="M54.0006 40.0494C54.4948 39.7612 54.6595 39.1331 54.3815 38.639C54.0933 38.1448 45.4536 43.1501 44.9594 43.4281L30.1666 51.4259C28.2207 51.6318 25.688 51.498 23.176 50.2008L21.2919 51.2921C21.261 55.5441 21.8376 59.58 23.0112 63.2348L27.4383 60.6404C27.5721 57.8091 29.0444 55.3588 30.5166 53.5879L54.0006 40.0288V40.0494Z" fill="black"/>
<path d="M53.4828 40.3473C53.3078 40.3473 53.1328 40.3062 52.9681 40.2135L17.109 19.5093C16.6148 19.221 16.4501 18.593 16.728 18.0988C17.0163 17.6047 17.6443 17.4399 18.1385 17.7179L53.9976 38.4221C54.4918 38.7104 54.6565 39.3384 54.3786 39.8326C54.183 40.162 53.8432 40.3473 53.4828 40.3473Z" fill="white"/>
<path d="M15.3402 14.4744C14.7843 12.0138 15.7727 11.0975 15.7727 11.0975L19.3143 13.1463C19.5923 18.9427 23.3192 21.9077 23.3192 21.9077C23.3192 21.9077 18.8922 20.1575 13.7239 22.8137L6.63028 18.7161C6.63028 18.7161 6.87738 17.5527 8.96736 16.8835C8.96736 16.8835 7.08328 16.3688 4.82858 17.7793L0 14.9892C0 14.9892 3.38721 12.6109 7.89662 13.0022C5.30216 9.28551 5.6728 5.16734 5.6728 5.16734L13.765 9.84146C13.765 9.84146 13.8062 12.2197 15.3299 14.4744H15.3402Z" fill="white"/>
<path d="M98.9864 32.3485L91.831 28.22C91.8928 30.7527 91.7384 33.3369 91.3884 35.9416L98.6672 40.1421C98.9967 37.4859 99.1099 34.8709 98.9967 32.3485H98.9864Z" fill="#9DE7DE"/>
<path d="M98.6431 28.6524C98.4887 27.561 98.2931 26.5006 98.0563 25.4608L91.1068 21.4455C91.3024 22.4648 91.4672 23.5046 91.5804 24.5753L98.6431 28.6524Z" fill="#9DE7DE"/>
<path d="M54.0006 40.0494C54.4948 39.7612 54.6595 39.1331 54.3815 38.639C54.0933 38.1448 53.4652 37.9801 52.971 38.258L30.1666 51.4259C28.2207 51.6318 25.688 51.498 23.176 50.2008L21.2919 51.2921C21.261 55.5441 21.8376 59.58 23.0112 63.2348L27.4383 60.6404C27.5721 57.8091 29.0444 55.3588 30.5166 53.5879L54.0006 40.0288V40.0494Z" fill="black"/>
<path d="M53.3622 40.286C53.1872 40.286 53.0122 40.2448 52.8474 40.1522L16.9883 19.448C16.4941 19.1597 16.3294 18.5317 16.6074 18.0375C16.8957 17.5433 17.5237 17.3785 18.0179 17.6565L53.877 38.3608C54.3712 38.649 54.5359 39.2771 54.2579 39.7712C54.0623 40.1007 53.7225 40.286 53.3622 40.286Z" fill="white"/>
</g>
<defs>
<clipPath id="clip0_4540_1187">
<rect width="100" height="100" fill="white"/>
</clipPath>
</defs>
</svg>
