<svg width="100" height="100" viewBox="0 0 100 100" fill="none" xmlns="http://www.w3.org/2000/svg">
<g clip-path="url(#clip0_15980_6013)">
<rect width="100" height="100" fill="#9DE7DE"/>
<path fill-rule="evenodd" clip-rule="evenodd" d="M36.2489 14.7369L48.453 21.791C48.9723 22.0831 49.2644 22.6025 49.2644 23.1867V37.2949C49.2644 37.8791 48.9723 38.3984 48.453 38.6906C47.9336 38.9827 47.3494 38.9827 46.8409 38.6906L34.6369 31.6365C34.1176 31.3443 33.8255 30.825 33.8255 30.2408V16.1326C33.8255 15.5484 34.1176 15.029 34.6369 14.7369C35.1562 14.4448 35.7404 14.4448 36.2489 14.7369Z" fill="black"/>
<path fill-rule="evenodd" clip-rule="evenodd" d="M51.5383 21.8019L63.7531 14.7479C64.2725 14.4557 64.8567 14.4557 65.3652 14.7479C65.8845 15.04 66.1766 15.5593 66.1766 16.1435V30.2517C66.1766 30.836 65.8845 31.3553 65.3652 31.6474L53.1504 38.7015C52.631 38.9936 52.0468 38.9936 51.5383 38.7015C51.019 38.4094 50.7269 37.89 50.7269 37.3058V23.1976C50.7269 22.6134 51.019 22.0941 51.5383 21.8019Z" fill="white"/>
<path d="M49.1788 3.65845C49.6981 3.36641 50.2824 3.3665 50.7908 3.65845L63.0055 10.7128C63.5248 11.0049 63.8175 11.5242 63.8175 12.1193C63.8175 12.7035 63.5249 13.2227 63.0055 13.5148L50.7908 20.5691C50.2715 20.8612 49.6873 20.8612 49.1788 20.5691L36.9641 13.5148C36.4448 13.2227 36.1532 12.7035 36.1532 12.1193C36.1532 11.5134 36.4448 11.0049 36.9641 10.7128V10.7237L49.1788 3.65845ZM50.8334 5.07587C50.325 4.784 49.7406 4.78383 49.2215 5.07587L41.0207 9.55544L41.0098 9.56637C40.5036 9.85736 46.2908 7.06705 50.2608 7.17523C54.5126 7.28354 59.4671 9.67379 58.9478 9.38168L50.8334 5.07587Z" fill="white"/>
<path fill-rule="evenodd" clip-rule="evenodd" d="M65.029 17.0085L64.726 28.8664C64.726 29.6237 64.3474 30.262 63.6982 30.6407L53.8095 36.8076C53.1604 37.1863 58.927 33.2698 61.7616 28.6716C64.4015 24.3764 65.029 16.2404 65.029 16.9977V17.0085Z" fill="black"/>
<path fill-rule="evenodd" clip-rule="evenodd" d="M19.3305 43.7105L21.8838 45.1927L31.5237 50.7646C32.043 51.0567 32.3351 51.576 32.3351 52.1602V66.2684C32.3351 66.8527 32.043 67.372 31.5237 67.6641C31.0044 67.9562 30.4201 67.9562 29.9116 67.6641L17.7076 60.61C17.1883 60.3179 16.8962 59.7986 16.8962 59.2143V45.1169C16.8962 44.5111 17.1883 44.0026 17.7076 43.7105C18.2269 43.4183 18.8112 43.4183 19.3197 43.7105H19.3305Z" fill="black"/>
<path fill-rule="evenodd" clip-rule="evenodd" d="M34.6161 50.7646L46.831 43.7105C47.3503 43.4183 47.9345 43.4183 48.443 43.7105C48.9623 44.0026 49.2545 44.5219 49.2545 45.1169V59.2143C49.2545 59.7986 48.9623 60.3179 48.443 60.61L36.2282 67.6641C35.7089 67.9562 35.1246 67.9562 34.6161 67.6641C34.1076 67.372 33.8047 66.8527 33.8047 66.2684V52.1602C33.8047 51.576 34.0968 51.0567 34.6161 50.7646Z" fill="white"/>
<path fill-rule="evenodd" clip-rule="evenodd" d="M48.5959 46.3176L48.2929 58.1754C48.2929 58.9327 47.9142 59.5711 47.2651 59.9497L37.3764 66.1167C36.7272 66.4953 42.4938 62.5788 45.3285 57.9806C47.9683 53.6854 48.5959 45.5494 48.5959 46.3068V46.3176Z" fill="black"/>
<path fill-rule="evenodd" clip-rule="evenodd" d="M2.40787 72.6621L4.96119 74.1444L14.6011 79.7162C15.1204 80.0084 15.4125 80.5277 15.4125 81.1119V95.2201C15.4125 95.8043 15.1204 96.3237 14.6011 96.6158C14.0818 96.9079 13.4975 96.9079 12.989 96.6158L0.784993 89.5617C0.276493 89.2696 -0.015625 88.7502 -0.015625 88.166V74.0686C-0.015625 73.4628 0.276493 72.9543 0.795813 72.6621C1.31513 72.37 1.89937 72.37 2.40787 72.6621Z" fill="black"/>
<path fill-rule="evenodd" clip-rule="evenodd" d="M17.6945 79.7162L29.9093 72.6621C30.4287 72.37 31.0129 72.37 31.5214 72.6621C32.0407 72.9543 32.3328 73.4736 32.3328 74.0686V88.166C32.3328 88.7502 32.0407 89.2696 31.5214 89.5617L19.3066 96.6158C18.7872 96.9079 18.203 96.9079 17.6945 96.6158C17.186 96.3237 16.8831 95.8043 16.8831 95.2201V81.1119C16.8831 80.5277 17.1752 80.0084 17.6945 79.7162Z" fill="white"/>
<path d="M15.3476 61.529C15.8668 61.237 16.4511 61.2371 16.9596 61.529L29.1743 68.5833C29.6936 68.8755 29.9863 69.3948 29.9863 69.9898C29.9863 70.5741 29.6936 71.0933 29.1743 71.3854L16.9596 78.4397C16.4403 78.7317 15.8561 78.7318 15.3476 78.4397L3.13286 71.3854C2.61359 71.0933 2.32088 70.574 2.32088 69.9898C2.3209 69.4056 2.61357 68.8755 3.13286 68.5833L15.3476 61.529ZM17.0022 62.9464C16.4938 62.6546 15.9094 62.6544 15.3902 62.9464L7.18951 67.426L7.17858 67.4369C6.67237 67.7279 12.4596 64.9376 16.4295 65.0458C20.6814 65.1541 25.6359 67.5444 25.1166 67.2523L17.0022 62.9464Z" fill="white"/>
<path fill-rule="evenodd" clip-rule="evenodd" d="M31.6737 75.2594L31.3707 87.1172C31.3707 87.8746 30.9921 88.5129 30.3429 88.8916L20.4542 95.0585C19.8051 95.4372 25.5717 91.5206 28.4063 86.9225C31.0462 82.6273 31.6737 74.4913 31.6737 75.2486V75.2594Z" fill="black"/>
<path fill-rule="evenodd" clip-rule="evenodd" d="M53.1618 43.6569L65.3659 50.711C65.8852 51.0031 66.1773 51.5224 66.1773 52.1067V66.2149C66.1773 66.7991 65.8852 67.3184 65.3659 67.6105C64.8465 67.9027 64.2623 67.9027 63.7538 67.6105L51.5498 60.5565C51.0305 60.2643 50.7383 59.745 50.7383 59.1608V45.0526C50.7383 44.4683 51.0305 43.949 51.5498 43.6569C52.0691 43.3648 52.6533 43.3648 53.1618 43.6569Z" fill="black"/>
<path fill-rule="evenodd" clip-rule="evenodd" d="M68.4485 50.7219L80.6633 43.6678C81.1826 43.3757 81.7668 43.3757 82.2754 43.6678C82.7947 43.96 83.0868 44.4793 83.0868 45.0635V59.1717C83.0868 59.7559 82.7947 60.2753 82.2754 60.5674L70.0605 67.6215C69.5412 67.9136 68.957 67.9136 68.4485 67.6215C67.9291 67.3294 67.637 66.81 67.637 66.2258V52.1176C67.637 51.5334 67.9291 51.0141 68.4485 50.7219Z" fill="white"/>
<path d="M66.1021 32.5887C66.6213 32.2967 67.2057 32.2966 67.7141 32.5887L79.9288 39.643C80.448 39.9351 80.7397 40.4545 80.7397 41.0495C80.7396 41.6444 80.448 42.1529 79.9288 42.445L67.7141 49.4994C67.1949 49.7914 66.6105 49.7912 66.1021 49.4994L53.8863 42.445C53.3673 42.1529 53.0755 41.6335 53.0754 41.0495C53.0754 40.4438 53.3673 39.9351 53.8863 39.643L66.1021 32.5887ZM67.7468 33.9952C67.2384 33.7031 66.6542 33.7031 66.1349 33.9952L57.9342 38.4747L57.9233 38.4857C57.4148 38.7778 63.2025 35.9864 67.1731 36.0945C71.425 36.2027 76.3805 38.5931 75.8612 38.301L67.7468 33.9952Z" fill="white"/>
<path d="M32.931 32.5883C33.4502 32.2965 34.0345 32.2963 34.5429 32.5883L46.7576 39.6427C47.2768 39.9348 47.5685 40.4542 47.5685 41.0491C47.5685 41.6441 47.2768 42.1526 46.7576 42.4447L34.5429 49.499C34.0237 49.7911 33.4394 49.7909 32.931 49.499L20.7151 42.4447C20.1961 42.1525 19.9042 41.6332 19.9042 41.0491C19.9042 40.4434 20.1961 39.9348 20.7151 39.6427L32.931 32.5883ZM34.5757 33.9948C34.0673 33.7028 33.483 33.7029 32.9637 33.9948L24.763 38.4744L24.7521 38.4853C24.2436 38.7774 30.0313 35.9861 34.0019 36.0942C38.2539 36.2024 43.2094 38.5928 42.6901 38.3006L34.5757 33.9948Z" fill="white"/>
<path fill-rule="evenodd" clip-rule="evenodd" d="M81.9419 45.9285L81.6389 57.7863C81.6389 58.5437 81.2603 59.182 80.6111 59.5607L70.7224 65.7276C70.0732 66.1063 75.8399 62.1897 78.6745 57.5916C81.3144 53.2964 81.9419 45.1604 81.9419 45.9177V45.9285Z" fill="black"/>
<path fill-rule="evenodd" clip-rule="evenodd" d="M36.2401 72.6307L38.7934 74.1129L48.4333 79.6848C48.9526 79.9769 49.2447 80.4962 49.2447 81.0805V95.1887C49.2447 95.7729 48.9526 96.2922 48.4333 96.5843C47.914 96.8765 47.3298 96.8765 46.8213 96.5843L34.6172 89.5303C34.0979 89.2381 33.8058 88.7188 33.8058 88.1346V74.0372C33.8058 73.4313 34.0979 72.9228 34.6172 72.6307C35.1365 72.3386 35.7208 72.3386 36.2293 72.6307H36.2401Z" fill="black"/>
<path fill-rule="evenodd" clip-rule="evenodd" d="M51.5287 79.6848L63.7436 72.6307C64.2629 72.3386 64.8471 72.3386 65.3556 72.6307C65.8749 72.9228 66.1671 73.4421 66.1671 74.0372V88.1346C66.1671 88.7188 65.8749 89.2381 65.3556 89.5303L53.1408 96.5843C52.6215 96.8765 52.0372 96.8765 51.5287 96.5843C51.0202 96.2922 50.7173 95.7729 50.7173 95.1887V81.0805C50.7173 80.4962 51.0094 79.9769 51.5287 79.6848Z" fill="white"/>
<path fill-rule="evenodd" clip-rule="evenodd" d="M65.5055 75.2376L65.2025 87.0954C65.2025 87.8527 64.8239 88.4911 64.1747 88.8697L54.286 95.0367C53.6368 95.4153 59.4035 91.4988 62.2381 86.9006C64.878 82.6054 65.5055 74.4694 65.5055 75.2268V75.2376Z" fill="black"/>
<path fill-rule="evenodd" clip-rule="evenodd" d="M70.0594 72.6206L82.2634 79.6747C82.7828 79.9668 83.0749 80.4862 83.0749 81.0704V95.1786C83.0749 95.7628 82.7828 96.2821 82.2634 96.5743C81.7441 96.8664 81.1599 96.8664 80.6514 96.5743L68.4474 89.5201C67.928 89.228 67.6359 88.7087 67.6359 88.1245V74.0163C67.6359 73.4321 67.928 72.9127 68.4474 72.6206C68.9667 72.3285 69.5509 72.3285 70.0594 72.6206Z" fill="black"/>
<path fill-rule="evenodd" clip-rule="evenodd" d="M85.346 79.6856L97.5609 72.6315C98.0802 72.3394 98.6644 72.3394 99.1729 72.6315C99.6923 72.9237 99.9844 73.443 99.9844 74.0272V88.1354C99.9844 88.7197 99.6923 89.239 99.1729 89.5311L86.9581 96.5852C86.4388 96.8773 85.8545 96.8773 85.346 96.5852C84.8267 96.2931 84.5346 95.7738 84.5346 95.1895V81.0813C84.5346 80.4971 84.8267 79.9778 85.346 79.6856Z" fill="white"/>
<path d="M82.9992 61.552C83.5184 61.2599 84.1027 61.26 84.6111 61.552L96.8258 68.6063C97.3451 68.8984 97.6378 69.4178 97.6378 70.0128C97.6378 70.6078 97.3452 71.1162 96.8258 71.4084L84.6111 78.4627C84.0918 78.7547 83.5076 78.7548 82.9992 78.4627L70.7844 71.4084C70.2651 71.1162 69.9724 70.597 69.9724 70.0128C69.9725 69.4069 70.2651 68.8984 70.7844 68.6063L82.9992 61.552ZM84.6537 62.9585C84.1453 62.6666 83.5609 62.6664 83.0418 62.9585L74.8411 67.438L74.8301 67.449C74.3239 67.74 80.1111 64.9497 84.0811 65.0578C88.3329 65.1661 93.2874 67.5564 92.7681 67.2643L84.6537 62.9585Z" fill="white"/>
<path fill-rule="evenodd" clip-rule="evenodd" d="M98.8493 74.8922L98.5463 86.75C98.5463 87.5074 98.1677 88.1457 97.5185 88.5244L87.6298 94.6913C86.9807 95.07 92.7473 91.1535 95.5819 86.5553C98.2218 82.2601 98.8493 74.1241 98.8493 74.8814V74.8922Z" fill="black"/>
<path d="M49.1799 61.5083C49.6991 61.2164 50.2835 61.2163 50.7919 61.5083L63.0066 68.5626C63.5258 68.8548 63.8175 69.3742 63.8175 69.9691C63.8175 70.5533 63.5258 71.0726 63.0066 71.3647L50.7919 78.419C50.2727 78.7111 49.6884 78.7109 49.1799 78.419L36.9641 71.3647C36.4451 71.0725 36.1532 70.5532 36.1532 69.9691C36.1532 69.3634 36.445 68.8548 36.9641 68.5626L49.1799 61.5083ZM50.8334 62.9465C50.325 62.6546 49.7406 62.6545 49.2215 62.9465L41.0207 67.4261L41.0098 67.437C40.5038 67.7279 46.2909 64.9377 50.2608 65.0459C54.5126 65.1542 59.4671 67.5444 58.9478 67.2523L50.8334 62.9465Z" fill="white"/>
</g>
<defs>
<clipPath id="clip0_15980_6013">
<rect width="100" height="100" fill="white"/>
</clipPath>
</defs>
</svg>
