<svg width="100" height="100" viewBox="0 0 100 100" fill="none" xmlns="http://www.w3.org/2000/svg">
<g clip-path="url(#clip0_15980_1924)">
<rect width="100" height="100" fill="#9DE7DE"/>
<path d="M16.6348 52.2399C27.5156 48.5388 39.1346 46.4658 51.2592 46.4658C63.3837 46.4658 75.0128 48.5388 85.8936 52.2399C87.4408 52.7657 88.6744 53.8578 89.4228 55.2331L82.8397 40.8737C81.9802 39.3973 80.6049 38.2445 78.906 37.6883C70.1893 34.867 60.9163 33.2895 51.2592 33.2895C41.602 33.2895 32.329 34.867 23.6123 37.6883C21.9033 38.2445 20.5381 39.3973 19.6786 40.8737L13.0956 55.2331C13.854 53.8578 15.0775 52.7657 16.6247 52.2399H16.6348Z" fill="white"/>
<path d="M90.2517 58.378C90.2517 55.6174 88.5025 53.1297 85.8936 52.2399C75.0128 48.5388 63.3938 46.4658 51.2592 46.4658C39.1245 46.4658 27.5055 48.5388 16.6348 52.2399C14.0158 53.1297 12.2863 55.6174 12.2863 58.378V94.8023C12.2863 97.6742 14.6121 100 17.484 100H85.054C87.9259 100 90.2517 97.6742 90.2517 94.8023V58.378Z" fill="white"/>
<path d="M12.2764 94.7924C12.2764 94.7924 12.782 97.5126 17.5145 97.5126H86.6924V99.9901H17.2617C17.2617 99.9901 12.5191 100.051 12.2764 94.7924Z" fill="black"/>
<path d="M19.6786 40.8737L13.0956 55.2331C13.854 53.8578 15.0775 52.7657 16.6247 52.2399C21.0842 50.723 25.6752 49.4994 30.3673 48.559C41.5716 43.3916 36.0301 37.4254 44.1401 33.5828C37.0312 34.1592 30.165 35.5749 23.6123 37.6984C21.9033 38.2546 20.5381 39.4074 19.6786 40.8838V40.8737Z" fill="black"/>
<path d="M70.9173 41.4501C68.3893 41.8647 66.1646 42.3501 64.4961 42.7444C64.0107 42.8658 64.1017 43.5736 64.6073 43.5838C71.0387 43.6646 73.8701 43.9781 73.8701 43.9781V41.2175L70.9173 41.4501Z" fill="black"/>
<path d="M76.9039 43.1287V29.9727C76.9039 15.8863 65.4366 4.41905 51.3502 4.41905C37.2639 4.41905 25.7966 15.8863 25.7966 29.9727V43.1692C25.837 43.9074 27.1718 44.2714 28.8201 43.9883C30.4887 43.695 31.8538 42.8456 31.8538 42.0872V29.9727C31.8538 19.2234 40.6009 10.4864 51.3401 10.4864C62.0793 10.4864 70.8264 19.2335 70.8264 29.9727V42.0872C70.8264 42.8456 72.1916 43.7051 73.8601 43.9883C75.5084 44.2714 76.8533 43.8669 76.9039 43.1287Z" fill="white"/>
<path d="M26.9085 43.9984C26.9085 43.9984 27.8793 44.2309 29.0625 43.9276V30.994C29.0625 30.994 27.9097 14.2684 42.4915 7.16958C42.4915 7.16958 26.9085 12.1246 26.9085 30.994V43.9984Z" fill="black"/>
<path d="M60.5722 10.9718C73.5462 17.2919 72.5148 32.167 72.5148 32.167V43.604C73.4957 43.9984 74.4361 44.0489 74.4361 44.0489V32.1772C74.4361 15.3908 60.5722 10.9819 60.5722 10.9819V10.9718Z" fill="black"/>
<path d="M5.12691 23.0461C5.12691 23.0461 6.81567 28.628 13.6414 30.1651C13.6414 30.1651 8.46397 31.055 8.36285 37.2639C8.36285 37.2639 6.54262 31.8842 0 30.155C0 30.155 5.47073 29.5078 5.12691 23.036V23.0461Z" fill="white"/>
<path d="M86.8035 0C86.8035 0 89.4125 8.64597 99.9899 11.0426C99.9899 11.0426 91.9709 12.4279 91.8192 22.0447C91.8192 22.0447 88.9979 13.7021 78.8553 11.0325C78.8553 11.0325 87.3293 10.0313 86.8035 0Z" fill="white"/>
<path d="M70.0577 61.4723C70.3914 61.9678 70.6948 62.4734 70.9881 62.9892H90.2822V61.4723H70.0577Z" fill="black"/>
<path d="M73.506 69.6629H90.2822V68.146H73.1419C73.2835 68.6415 73.4049 69.1471 73.5161 69.6629H73.506Z" fill="black"/>
<path d="M90.2721 76.3277V74.8108H73.961C73.9509 75.3164 73.9206 75.822 73.8801 76.3277H90.2721Z" fill="black"/>
<path d="M72.2927 83.0013H90.2823V81.4845H72.8488C72.6769 82.0002 72.4949 82.5058 72.2927 83.0013Z" fill="black"/>
<path d="M68.1263 89.675H90.2822V88.1582H69.3802C68.9859 88.684 68.5713 89.1896 68.1364 89.675H68.1263Z" fill="black"/>
<path d="M31.8939 61.4723H12.2458V62.9892H30.9635C31.2568 62.4734 31.5703 61.9678 31.8939 61.4723Z" fill="black"/>
<path d="M28.8099 68.146H12.2359V69.6629H28.4357C28.5368 69.1471 28.6683 68.6415 28.8099 68.146Z" fill="black"/>
<path d="M27.9706 74.8108H12.2359V76.3277H28.0515C28.011 75.822 27.9807 75.3164 27.9706 74.8108Z" fill="black"/>
<path d="M29.093 81.4845H12.2359V83.0013H29.6492C29.447 82.5058 29.2649 82.0002 29.093 81.4845Z" fill="black"/>
<path d="M12.2359 88.1582V89.675H33.8154C33.3806 89.1896 32.966 88.684 32.5716 88.1582H12.2359Z" fill="black"/>
<path d="M37.8577 79.1836C38.2547 79.1836 38.5765 79.5171 38.5766 79.9282V83.2216C38.5766 85.0218 39.9907 86.4864 41.7288 86.4864H44.9086C45.3056 86.4864 45.6275 86.8198 45.6276 87.2309C45.6276 87.6422 45.3057 87.9755 44.9086 87.9755H41.7288C39.1979 87.9755 37.1388 85.8429 37.1388 83.2216V79.9282C37.1389 79.5171 37.4607 79.1836 37.8577 79.1836Z" fill="black"/>
<path d="M64.7332 79.1836C65.1301 79.1836 65.452 79.5171 65.4521 79.9282V83.2216C65.4521 85.8429 63.393 87.9755 60.8621 87.9755H57.6823C57.2854 87.9754 56.9633 87.6421 56.9633 87.2309C56.9634 86.8199 57.2854 86.4865 57.6823 86.4864H60.8621C62.6002 86.4864 64.0143 85.0218 64.0143 83.2216V79.9282C64.0144 79.5172 64.3363 79.1838 64.7332 79.1836Z" fill="black"/>
<path d="M55.2441 79.1905C55.5469 78.9008 56.019 78.9203 56.2987 79.234C56.5784 79.5476 56.5599 80.0364 56.2573 80.3262C54.9028 81.6219 53.1408 82.3357 51.2959 82.3358C49.451 82.3358 47.6891 81.6219 46.3346 80.3262C46.0318 80.0365 46.0127 79.5477 46.2922 79.234C46.572 78.9203 47.0449 78.9008 47.3478 79.1905C48.4255 80.2215 49.8277 80.7893 51.2959 80.7893C52.7641 80.7893 54.1664 80.2216 55.2441 79.1905Z" fill="black"/>
<path d="M52.0435 68.9331C52.4558 68.9331 52.79 69.2793 52.7901 69.7063V75.2049C52.7901 76.2945 51.9342 77.1809 50.8822 77.1809H50.2738C49.8616 77.1808 49.5273 76.8346 49.5273 76.4077C49.5273 75.9808 49.8617 75.6346 50.2738 75.6345H50.8822C51.1109 75.6345 51.2969 75.4417 51.2969 75.2049V69.7063C51.297 69.2794 51.6313 68.9333 52.0435 68.9331Z" fill="black"/>
<path d="M45.5308 68.9331C45.92 68.9333 46.2359 69.2607 46.2359 69.6639V71.869C46.2357 72.272 45.9199 72.5986 45.5308 72.5988C45.1415 72.5988 44.8259 72.2722 44.8257 71.869V69.6639C44.8257 69.2606 45.1414 68.9331 45.5308 68.9331Z" fill="black"/>
<path d="M57.228 68.9331C57.6174 68.9331 57.9331 69.2606 57.9331 69.6639V71.869C57.9329 72.2722 57.6173 72.5988 57.228 72.5988C56.8389 72.5986 56.5231 72.272 56.5229 71.869V69.6639C56.5229 69.2607 56.8388 68.9334 57.228 68.9331Z" fill="black"/>
<path d="M44.9086 58.651C45.3057 58.651 45.6276 58.9844 45.6276 59.3956C45.6276 59.8068 45.3057 60.1402 44.9086 60.1402H41.7288C39.9907 60.1402 38.5766 61.6048 38.5766 63.405V66.6983C38.5766 67.1096 38.2547 67.4429 37.8577 67.4429C37.4607 67.4429 37.1388 67.1096 37.1388 66.6983V63.405C37.1388 60.7836 39.1979 58.651 41.7288 58.651H44.9086Z" fill="black"/>
<path d="M60.8621 58.651C63.393 58.651 65.4521 60.7836 65.4521 63.405V66.6983C65.4521 67.1096 65.1302 67.4429 64.7332 67.4429C64.3363 67.4428 64.0143 67.1095 64.0143 66.6983V63.405C64.0143 61.6048 62.6002 60.1402 60.8621 60.1402H57.6823C57.2854 60.14 56.9633 59.8067 56.9633 59.3956C56.9633 58.9845 57.2854 58.6512 57.6823 58.651H60.8621Z" fill="black"/>
</g>
<defs>
<clipPath id="clip0_15980_1924">
<rect width="100" height="100" fill="white"/>
</clipPath>
</defs>
</svg>
