<svg width="100" height="100" viewBox="0 0 100 100" fill="none" xmlns="http://www.w3.org/2000/svg">
<g clip-path="url(#clip0_15980_6147)">
<rect width="100" height="100" fill="#9DE7DE"/>
<path d="M84.4966 81.3637H-0.0566406V85.6278H84.4966V81.3637Z" fill="black"/>
<path d="M73.0709 60.3844H11.3775L0.20687 84.5076C-0.634751 86.3192 0.682939 88.4043 2.67223 88.4043H81.7762C83.7654 88.4043 85.0831 86.3278 84.2415 84.5076L73.0709 60.3844Z" fill="black"/>
<path d="M73.0709 56.1719H11.3775L0.20687 80.2951C-0.634751 82.1067 0.682939 84.1918 2.67223 84.1918H81.7762C83.7654 84.1918 85.0831 82.1152 84.2415 80.2951L73.0709 56.1719Z" fill="white"/>
<path d="M14.2339 12.4043H70.206C71.7107 12.4043 72.9264 13.6348 72.9264 15.1388V54.5836H11.5135V15.1388C11.5135 13.6263 12.7377 12.4043 14.2339 12.4043Z" fill="white"/>
<path d="M42.2199 17.9833C42.8209 17.9833 43.3081 17.4935 43.3081 16.8894C43.3081 16.2854 42.8209 15.7957 42.2199 15.7957C41.6189 15.7957 41.1318 16.2854 41.1318 16.8894C41.1318 17.4935 41.6189 17.9833 42.2199 17.9833Z" fill="#9DE7DE"/>
<path d="M75.8934 71.1875L71.0987 60.993C70.8011 60.3521 70.1635 59.9505 69.4579 59.9505H14.9906C14.285 59.9505 13.6474 60.3607 13.3498 60.993L8.55515 71.1875C8.13009 72.0933 8.78468 73.1443 9.78783 73.1443H25.1325C25.6851 73.1443 26.1187 73.64 26.0337 74.1954L25.8551 75.3319C25.7276 76.1608 26.3652 76.9128 27.1983 76.9128H57.2417C58.0748 76.9128 58.7124 76.1608 58.5849 75.3319L58.4063 74.1954C58.3213 73.64 58.7464 73.1443 59.3075 73.1443H74.6522C75.6553 73.1443 76.3099 72.1018 75.8849 71.1875H75.8934Z" fill="black"/>
<path d="M66.3464 24.5546H53.9091C52.9701 24.5546 52.2089 25.3197 52.2089 26.2636V43.4566C52.2089 44.4005 52.9701 45.1656 53.9091 45.1656H66.3464C67.2855 45.1656 68.0467 44.4005 68.0467 43.4566V26.2636C68.0467 25.3197 67.2855 24.5546 66.3464 24.5546Z" fill="black"/>
<path d="M99.9094 72.6241C99.7308 74.6493 98.4216 77.3496 93.5249 77.3496C90.592 77.3496 87.9566 75.9482 86.6985 73.3163L83.1449 65.8649C82.9919 65.5487 82.9494 65.1812 83.0089 64.8137L83.2299 63.6089C83.3405 62.9766 83.791 62.4639 84.3606 62.1904C86.0269 61.4042 88.7047 60.8573 91.7227 61.2931C93.2954 61.5153 94.7236 62.2758 95.7778 63.4465C97.5375 65.3863 100.215 68.9924 99.9009 72.6241H99.9094Z" fill="white"/>
<path d="M99.9434 72.0076C99.1527 75.195 95.8968 75.8701 92.9469 75.6735C92.0032 75.6137 90.9321 75.306 90.2605 74.9642C89.0448 74.3575 88.1012 73.3321 87.4721 72.1273L83.672 64.8296C83.1449 63.77 83.5275 62.8813 83.5275 62.8813C83.5275 62.8813 83.298 63.1975 83.2385 63.5991L83.0174 64.8039C82.9494 65.1714 83.0004 65.5389 83.1534 65.8551L86.7069 73.3065C87.9651 75.9384 90.6005 77.3398 93.5334 77.3398C98.4216 77.3398 99.9434 74.6993 99.9434 71.9991V72.0076Z" fill="black"/>
<path d="M95.6247 64.617C95.6247 64.617 97.5715 66.7875 98.4981 69.7613C99.0677 71.607 98.0305 73.598 96.1773 74.1107C95.5142 74.2987 94.6981 74.4269 93.6864 74.4611C93.6864 74.4611 99.7223 71.7608 95.6247 64.617Z" fill="#9DE7DE"/>
<path d="M65.0033 38.3566C64.6973 37.2372 64.2127 36.8184 63.2776 36.5108L61.9089 36.0238C61.7899 36.1177 61.6708 36.2202 61.5433 36.2972C61.0758 36.5791 60.5912 36.7244 60.1151 36.7244C59.639 36.7244 59.1545 36.5791 58.6869 36.2972C58.5594 36.2202 58.4404 36.1177 58.3129 36.0238L56.9442 36.5108C56.0175 36.8184 55.5245 37.2372 55.2184 38.3566L54.8444 39.8777H65.3689L64.9948 38.3566H65.0033ZM59.3415 35.1949C59.571 35.3316 59.8346 35.4426 60.1236 35.4426C60.4127 35.4426 60.6762 35.3402 60.9057 35.1949C61.4243 34.8873 61.7984 34.3745 62.0109 33.802C62.2574 33.1098 62.2829 32.4946 62.2829 32.4946C62.3509 30.9137 61.3138 30.119 60.1321 30.119C58.9505 30.119 57.9133 30.9137 57.9813 32.4946C57.9813 32.4946 57.9983 33.1098 58.2533 33.802C58.4574 34.3745 58.8314 34.8787 59.3585 35.1949H59.3415Z" fill="white"/>
<path d="M48.2303 24.5546H35.793C34.854 24.5546 34.0927 25.3197 34.0927 26.2636V43.4566C34.0927 44.4005 34.854 45.1656 35.793 45.1656H48.2303C49.1693 45.1656 49.9305 44.4005 49.9305 43.4566V26.2636C49.9305 25.3197 49.1693 24.5546 48.2303 24.5546Z" fill="black"/>
<path d="M46.8957 38.3566C46.5896 37.2372 46.1051 36.8184 45.1699 36.5108L43.8012 36.0238C43.6822 36.1177 43.5632 36.2202 43.4357 36.2972C42.9681 36.5791 42.4835 36.7244 42.0075 36.7244C41.5314 36.7244 41.0468 36.5791 40.5793 36.2972C40.4517 36.2202 40.3327 36.1177 40.2052 36.0238L38.8365 36.5108C37.9099 36.8184 37.4168 37.2372 37.1108 38.3566L36.7367 39.8777H47.2612L46.8872 38.3566H46.8957ZM41.2253 35.1949C41.4549 35.3316 41.7184 35.4426 42.0075 35.4426C42.2965 35.4426 42.56 35.3402 42.7896 35.1949C43.3082 34.8873 43.6822 34.3745 43.8947 33.802C44.1413 33.1098 44.1668 32.4946 44.1668 32.4946C44.2348 30.9137 43.1976 30.119 42.016 30.119C40.8343 30.119 39.7971 30.9137 39.8652 32.4946C39.8652 32.4946 39.8822 33.1098 40.1372 33.802C40.3412 34.3745 40.7153 34.8787 41.2424 35.1949H41.2253Z" fill="white"/>
<path d="M30.1143 24.5546H17.677C16.738 24.5546 15.9768 25.3197 15.9768 26.2636V43.4566C15.9768 44.4005 16.738 45.1656 17.677 45.1656H30.1143C31.0533 45.1656 31.8146 44.4005 31.8146 43.4566V26.2636C31.8146 25.3197 31.0533 24.5546 30.1143 24.5546Z" fill="black"/>
<path d="M28.7797 38.3566C28.4737 37.2372 27.9891 36.8184 27.054 36.5108L25.6853 36.0238C25.5662 36.1177 25.4472 36.2202 25.3197 36.2972C24.8521 36.5791 24.3676 36.7244 23.8915 36.7244C23.4154 36.7244 22.9309 36.5791 22.4633 36.2972C22.3358 36.2202 22.2168 36.1177 22.0892 36.0238L20.7205 36.5108C19.7939 36.8184 19.3008 37.2372 18.9948 38.3566L18.6207 39.8777H29.1453L28.7712 38.3566H28.7797ZM23.1094 35.1949C23.3389 35.3316 23.6025 35.4426 23.8915 35.4426C24.1805 35.4426 24.4441 35.3402 24.6736 35.1949C25.1922 34.8873 25.5662 34.3745 25.7788 33.802C26.0253 33.1098 26.0508 32.4946 26.0508 32.4946C26.1188 30.9137 25.0817 30.119 23.9 30.119C22.7183 30.119 21.6812 30.9137 21.7492 32.4946C21.7492 32.4946 21.7662 33.1098 22.0212 33.802C22.2253 34.3745 22.5993 34.8787 23.1264 35.1949H23.1094Z" fill="white"/>
</g>
<defs>
<clipPath id="clip0_15980_6147">
<rect width="100" height="100" fill="white"/>
</clipPath>
</defs>
</svg>
