<svg width="100" height="100" viewBox="0 0 100 100" fill="none" xmlns="http://www.w3.org/2000/svg">
<g clip-path="url(#clip0_15980_6245)">
<rect width="100" height="100" fill="#9DE7DE"/>
<path d="M84.4052 81.3637H-0.0546875V85.6278H84.4052V81.3637Z" fill="black"/>
<path d="M72.9921 60.3844H11.3668L0.20853 84.5076C-0.632162 86.3192 0.684094 88.4043 2.67119 88.4043H81.6878C83.6749 88.4043 84.9911 86.3278 84.1504 84.5076L72.9921 60.3844Z" fill="black"/>
<path d="M72.9921 56.1719H11.3668L0.20853 80.2951C-0.632162 82.1067 0.684094 84.1918 2.67119 84.1918H81.6878C83.6749 84.1918 84.9911 82.1152 84.1504 80.2951L72.9921 56.1719Z" fill="white"/>
<path d="M70.1304 12.4043C71.6335 12.4043 72.8478 13.6348 72.8478 15.1388V54.5836H11.4942V15.1388C11.4942 13.6263 12.717 12.4043 14.2116 12.4043H70.1304Z" fill="white"/>
<path d="M42.1752 17.9833C42.7755 17.9833 43.2622 17.4935 43.2622 16.8894C43.2622 16.2854 42.7755 15.7957 42.1752 15.7957C41.5749 15.7957 41.0882 16.2854 41.0882 16.8894C41.0882 17.4935 41.5749 17.9833 42.1752 17.9833Z" fill="#9DE7DE"/>
<path d="M75.8115 71.1875L71.0221 60.993C70.7249 60.3521 70.088 59.9505 69.3832 59.9505H14.9759C14.2711 59.9505 13.6342 60.3607 13.337 60.993L8.5476 71.1875C8.123 72.0933 8.77689 73.1443 9.77892 73.1443H25.1067C25.6587 73.1443 26.0917 73.64 26.0068 74.1954L25.8285 75.3319C25.7011 76.1608 26.338 76.9128 27.1702 76.9128H57.1804C58.0126 76.9128 58.6495 76.1608 58.5221 75.3319L58.3438 74.1954C58.2589 73.64 58.6834 73.1443 59.2439 73.1443H74.5717C75.5737 73.1443 76.2276 72.1018 75.803 71.1875H75.8115Z" fill="black"/>
<path d="M99.9453 61.8818L85.5431 51.5421L87.8444 69.1965L91.8781 64.2061L98.0176 74.5032L99.8179 73.4179L93.6783 63.1209L99.9453 61.8818Z" fill="white"/>
<path d="M30.5499 35.4764C31.1699 35.8524 31.9001 36.1429 32.6644 36.1429C33.4287 36.1429 34.159 35.8524 34.7789 35.4764C36.1885 34.6304 37.2075 33.246 37.7765 31.6908C38.4558 29.8194 38.5152 28.136 38.5152 28.136C38.7021 23.8378 35.8828 21.6673 32.6644 21.6673C29.446 21.6673 26.6267 23.8293 26.8135 28.136C26.8135 28.136 26.873 29.8108 27.5523 31.6908C28.1213 33.246 29.1318 34.6304 30.5499 35.4764ZM45.9626 44.0814C45.1389 41.0307 43.8057 39.8858 41.2836 39.0483L37.25 37.6212C37.25 37.6212 36.6471 37.3991 35.713 37.2025C34.6939 37.8007 33.6749 38.1083 32.6729 38.1083C31.6709 38.1083 30.6433 37.8007 29.6328 37.2025C28.6987 37.4076 28.0958 37.6212 28.0958 37.6212L24.0622 39.0483C21.5401 39.8858 20.2069 41.0307 19.3832 44.0814L18.3641 48.2173H46.9901L45.9711 44.0814H45.9626Z" fill="black"/>
<path d="M65.392 17.9086H50.9049C49.9669 17.9086 49.2065 18.6738 49.2065 19.6177V36.8107C49.2065 37.7546 49.9669 38.5198 50.9049 38.5198H65.392C66.3299 38.5198 67.0903 37.7546 67.0903 36.8107V19.6177C67.0903 18.6738 66.3299 17.9086 65.392 17.9086Z" fill="black"/>
<path d="M64.0418 32.0399C63.6936 30.7495 63.1331 30.271 62.0632 29.9121L60.3648 29.3054C60.3648 29.3054 60.3308 29.2969 60.2798 29.2798C60.1779 29.3567 60.0845 29.4336 59.9742 29.502C59.4646 29.8096 58.9466 29.9634 58.4286 29.9634C57.9106 29.9634 57.3926 29.8096 56.8831 29.502C56.7727 29.4336 56.6793 29.3567 56.5774 29.2798C56.5265 29.2969 56.4925 29.3054 56.4925 29.3054L54.7941 29.9121C53.7327 30.2625 53.1637 30.7495 52.8155 32.0399L52.3824 33.7831H64.4748L64.0418 32.0399ZM57.5285 28.4081C57.7917 28.562 58.0974 28.6902 58.4201 28.6902C58.7428 28.6902 59.0486 28.5705 59.3118 28.4081C59.9062 28.0492 60.3393 27.4682 60.5771 26.8102C60.8658 26.0155 60.8913 25.3062 60.8913 25.3062C60.9677 23.4861 59.7788 22.5718 58.4201 22.5718C57.0614 22.5718 55.8726 23.4861 55.949 25.3062C55.949 25.3062 55.9745 26.0155 56.2632 26.8102C56.501 27.4682 56.9341 28.0492 57.5285 28.4081Z" fill="white"/>
</g>
<defs>
<clipPath id="clip0_15980_6245">
<rect width="100" height="100" fill="white"/>
</clipPath>
</defs>
</svg>
