<svg width="100" height="100" viewBox="0 0 100 100" fill="none" xmlns="http://www.w3.org/2000/svg">
<g clip-path="url(#clip0_15980_6288)">
<rect width="100" height="100" fill="#9DE7DE"/>
<path d="M61.1759 13.571C61.1871 11.7986 56.4404 10.3322 50.5737 10.2956C44.7071 10.259 39.9421 11.6662 39.9309 13.4385C39.9197 15.2109 44.6664 16.6773 50.5331 16.7139C56.3997 16.7504 61.1647 15.3433 61.1759 13.571Z" fill="#6CF479"/>
<path d="M49.6747 97.3228C68.6438 97.4416 75.7622 87.1801 75.7622 87.1801C77.2498 84.3572 78.6675 82.0098 77.09 77.5228L61.3357 36.5165L61.4555 17.6773L50.1839 18.6381H50.4035L39.1418 17.5386L39.022 36.3778L22.7386 77.1861C21.9898 81.2174 22.6587 83.7629 24.1063 86.6057C24.1063 86.6057 30.9252 97.2039 49.8943 97.3228" fill="white"/>
<path d="M49.6547 100.403C69.0332 100.522 76.1316 89.7852 76.1316 89.7852C77.4968 87.6401 78.0714 84.6216 77.9224 81.7643C77.9037 81.6137 77.7515 80.6304 77.9037 80.6232L70.9151 84.0899H48.9508C48.9508 84.0899 40.1948 83.7455 33.9752 83.0994C29.0762 82.5905 22.7086 77.4734 22.7086 77.4734C21.5006 82.4853 21.6903 87.2199 23.5372 89.4584C23.5372 89.4584 30.4959 100.284 49.8744 100.403" fill="black"/>
<path d="M49.8444 97.5706C68.8135 97.6895 75.7622 87.1801 75.7622 87.1801C75.7622 87.1801 78.0485 84.4367 77.739 80.3361C77.739 80.3361 78.1184 72.3923 49.3752 72.1249C22.3392 71.8773 22.7086 77.4734 22.7086 77.4734C21.9598 81.5047 22.8184 84.0108 24.276 86.8535C24.276 86.8535 31.0949 97.4518 50.0641 97.5706" fill="#9DE7DE"/>
<path d="M69.4724 91.1717C66.5073 91.7264 63.0729 94.2819 59.3889 94.5889L59.3589 99.4721C65.0796 98.5212 68.3143 97.0156 69.8019 95.4804L69.8219 91.7561C68.9233 91.9839 70.5707 90.9736 69.4724 91.1717Z" fill="#9DE7DE"/>
<path d="M53.4391 49.9178C56.1933 49.9178 58.4266 47.7021 58.4266 44.9697C58.4266 42.2373 56.1933 40.0129 53.4391 40.0129C50.685 40.0129 48.4517 42.2286 48.4517 44.961C48.4517 47.6934 50.685 49.9091 53.4391 49.9091V49.9178Z" fill="black"/>
<path d="M53.6774 43.0516C53.6774 43.0516 57.0318 43.4019 56.2639 47.8157C57.0142 47.0889 57.4732 46.0817 57.4732 44.9607C57.4732 42.7538 55.6724 40.9585 53.4391 40.9585C53.1566 40.9585 52.883 40.9848 52.627 41.0373C53.139 41.1512 53.9423 41.5628 53.6774 43.0428V43.0516Z" fill="white"/>
<path d="M46.4549 33.0698C48.1091 33.0698 49.45 31.7394 49.45 30.0983C49.45 28.4572 48.1091 27.1269 46.4549 27.1269C44.8007 27.1269 43.4598 28.4572 43.4598 30.0983C43.4598 31.7394 44.8007 33.0698 46.4549 33.0698Z" fill="black"/>
<path d="M46.1088 66.3314C50.9544 59.2269 54.5542 49.7259 66.8066 56.2371L74.8335 76.5219C75.8019 79.1268 75.6822 82.1382 73.4858 85.0601C73.4858 85.0601 67.3717 94.3032 50.7535 94.4882L50.1535 94.4996C32.9757 94.3908 26.7763 84.8111 26.7519 84.7732C24.815 82.3267 24.8253 79.8898 25.5042 76.225L28.2196 69.1826V69.1727C28.2272 69.1505 29.4325 65.6928 34.0996 64.5967C39.2821 63.3776 41.963 67.0427 46.1088 66.3314Z" fill="black"/>
<path d="M64.6103 74.254C69.8518 83.2279 57.5718 89.1906 57.5718 89.1906C68.2045 87.5266 71.0099 81.5737 71.0099 81.5737C73.6157 78.3745 66.0979 64.983 66.0979 64.983C62.5138 66.855 61.5653 69.777 64.6203 74.254H64.6103Z" fill="white"/>
<path d="M38.453 17.5386L62.0945 17.6872V19.7672C62.0745 21.3322 56.4037 22.7585 50.6132 22.7684C44.5431 22.7684 38.3232 21.2332 38.3432 19.2423L38.453 17.5485V17.5386Z" fill="#9DE7DE"/>
<path d="M36.2465 13.8783V15.5178C36.2266 18.5091 42.5862 20.9755 50.4534 21.025C58.3206 21.0745 64.7102 18.6874 64.7301 15.6961H64.7501V14.0024C64.7465 13.9999 64.7429 13.9974 64.7393 13.9949C64.7481 11.0059 58.3889 8.5443 50.527 8.49529C42.6589 8.44625 36.2651 10.8322 36.2462 13.8244C36.2461 13.8424 36.2462 13.8604 36.2465 13.8783Z" fill="black"/>
<path d="M61.1759 13.571C61.1871 11.7986 56.4404 10.3322 50.5737 10.2956C44.7071 10.259 39.9421 11.6662 39.9309 13.4385C39.9197 15.2109 44.6664 16.6773 50.5331 16.7139C56.3997 16.7504 61.1647 15.3433 61.1759 13.571Z" fill="#9DE7DE"/>
<path d="M64.7701 13.7451C64.2709 15.7657 58.67 18.1329 53.9577 18.539C58.7299 18.648 64.1711 16.7264 64.7601 15.3001L64.7801 13.7451H64.7701Z" fill="white"/>
<path d="M61.1759 13.571C61.1871 11.7986 56.4404 10.3322 50.5737 10.2956C44.7071 10.259 39.9421 11.6662 39.9309 13.4385C39.9197 15.2109 44.6664 16.6773 50.5331 16.7139C56.3997 16.7504 61.1647 15.3433 61.1759 13.571Z" fill="white"/>
<path d="M47.1136 13.3611C47.1136 14.9375 49.2411 15.2508 49.2411 15.2508C46.2037 15.1093 42.4614 14.3615 42.4614 13.2499C42.4614 12.1384 46.947 11.2592 52.4451 11.2895C52.4451 11.2895 47.1136 11.6028 47.1136 13.3611Z" fill="black"/>
<path d="M55.2674 5.40574C56.6595 5.40574 57.7881 4.28613 57.7881 2.90502C57.7881 1.52391 56.6595 0.404297 55.2674 0.404297C53.8753 0.404297 52.7468 1.52391 52.7468 2.90502C52.7468 4.28613 53.8753 5.40574 55.2674 5.40574Z" fill="black"/>
</g>
<defs>
<clipPath id="clip0_15980_6288">
<rect width="100" height="100" fill="white"/>
</clipPath>
</defs>
</svg>
