<svg width="100" height="100" viewBox="0 0 100 100" fill="none" xmlns="http://www.w3.org/2000/svg">
<g clip-path="url(#clip0_15980_6302)">
<rect width="100" height="100" fill="#9DE7DE"/>
<path d="M83.4436 24.5403C84.5275 24.5405 85.4094 25.4221 85.4095 26.5052V68.0628H85.4182C85.4182 69.4489 85.9227 70.7968 86.8274 71.8616L99.1389 86.2728C99.6809 86.9153 99.9827 87.0308 99.9827 87.8753V88.6077C99.9827 89.593 99.1786 89.6878 98.1927 89.6878H1.78446C0.798721 89.6877 -0.00558261 89.5928 -0.00558261 88.6077V87.8753C-0.00556297 87.0309 0.296678 86.9152 0.84012 86.2728L13.1497 71.8606C14.076 70.8156 14.5589 69.4684 14.5589 68.0608H14.5638V26.4974C14.5638 25.4143 15.4458 24.5327 16.5296 24.5325H83.4514L83.4436 24.5403ZM34.1624 79.8831L32.1819 84.4749C41.2999 80.2553 63.7073 79.8831 63.7073 79.8831H34.1624ZM11.8147 76.5472L10.5022 78.2981H11.3313C11.7749 78.2569 12.2175 78.2164 12.6565 78.1751L14.2063 76.0774H12.1897L11.8147 76.5472ZM13.6048 78.0862C14.6502 77.9883 15.6793 77.892 16.6927 77.7972L17.8313 76.0784H15.0872L13.6048 78.0862ZM17.5989 77.7112C18.5649 77.621 19.5208 77.5308 20.4593 77.4436L21.2659 76.0774H18.6809L17.5989 77.7112ZM21.3313 77.3626C22.3631 77.2662 23.3797 77.1708 24.3763 77.0774L24.8909 76.0774H22.0901L21.3313 77.3626ZM25.2171 76.9983C26.2133 76.9051 27.192 76.8161 28.1546 76.7259L28.4417 76.0784H25.6907L25.2171 76.9983ZM28.72 76.6722C29.9601 76.5559 31.1751 76.4444 32.3616 76.3343L32.4534 76.0774H28.9837L28.72 76.6722ZM32.8811 76.2854C33.6389 76.2151 34.388 76.1463 35.1243 76.0774H32.9563L32.8811 76.2854ZM12.7561 75.3685H14.7298L15.9056 73.7747H14.0315L12.7561 75.3685ZM15.6126 75.3685H18.303L19.3597 73.7747H16.7884L15.6126 75.3685ZM19.1526 75.3685H21.6858L22.6272 73.7747H20.2093L19.1526 75.3685ZM22.512 75.3685H25.2591L26.0794 73.7747H23.4534L22.512 75.3685ZM26.0559 75.3685H28.7552L29.4622 73.7747H26.8763L26.0559 75.3685ZM29.2981 75.3685H32.7073L33.2806 73.7747H30.0042L29.2981 75.3685ZM33.2102 75.3685H36.6702L37.1097 73.7747H33.7825L33.2102 75.3685ZM37.1136 75.3685H40.2571L40.5755 73.7747H37.552L37.1136 75.3685ZM40.6409 75.3685H42.7874C43.1408 75.3363 43.4918 75.3049 43.8391 75.2728L44.0247 73.7757H40.9593L40.6409 75.3685ZM44.2044 75.2376C45.4333 75.1244 46.6276 75.015 47.7815 74.9095L47.8274 73.7757H44.385L44.2044 75.2376ZM48.136 74.8763C49.2857 74.7707 50.3977 74.6675 51.4739 74.5696L51.4417 73.7747H48.18L48.136 74.8763ZM51.8284 74.5374C53.0285 74.4273 54.1833 74.3219 55.2962 74.221L55.2415 73.7747H51.7981L51.8284 74.5374ZM55.6497 74.1888C56.7027 74.0924 57.7148 74.0006 58.6897 73.9134L58.6624 73.7757H55.5989L55.6497 74.1888ZM59.0716 73.8782C59.4603 73.843 59.8435 73.8084 60.22 73.7747H59.0501L59.0716 73.8782ZM14.5979 73.0657H16.429L17.2581 71.9466H15.4934L14.5979 73.0657ZM17.3108 73.0657H19.8284L20.5706 71.9466H18.1389L17.3108 73.0657ZM20.68 73.0657H23.0472L23.7083 71.9466H21.4222L20.68 73.0657ZM23.8704 73.0657H26.4427L27.0198 71.9466H24.5335L23.8704 73.0657ZM27.2415 73.0657H29.7757L30.2718 71.9466H27.8177L27.2415 73.0657ZM30.3196 73.0657H33.5345L33.9368 71.9466H30.8157L30.3196 73.0657ZM34.0393 73.0657H37.305L37.6145 71.9466H34.4407L34.0393 73.0657ZM37.7483 73.0657H40.7171L40.9397 71.9466H38.0559L37.7483 73.0657ZM41.1018 73.0657H44.1136L44.2522 71.9466H41.3255L41.1018 73.0657ZM44.472 73.0657H47.8548L47.8987 71.9466H44.6097L44.472 73.0657ZM48.2093 73.0657H51.4153L51.3714 71.9466H48.2542L48.2093 73.0657ZM51.7708 73.0657H55.1526L55.0149 71.9466H51.7259L51.7708 73.0657ZM55.51 73.0657H58.5218L58.2981 71.9466H55.3714L55.51 73.0657ZM58.9085 73.0657H61.8772L61.5696 71.9466H58.6848L58.9085 73.0657ZM62.3206 73.0657H65.5882L65.1858 71.9466H62.011L62.3206 73.0657ZM66.0901 73.0657H68.135C68.5191 73.0321 68.8963 72.9992 69.262 72.9671L68.8108 71.9466H65.6868L66.0901 73.0657ZM69.7845 72.9212C70.6415 72.8462 71.4439 72.7756 72.1985 72.7083L71.8069 71.9466H69.3528L69.7845 72.9212ZM72.9632 72.6429C73.8372 72.5664 74.6414 72.4966 75.3792 72.4339L75.0921 71.9476H72.6057L72.9632 72.6429ZM76.1634 72.3665C76.9792 72.2977 77.7086 72.2355 78.3577 72.1819L78.2014 71.9466H75.9153L76.1634 72.3665ZM79.1653 72.1145C80.0147 72.0442 80.707 71.9894 81.2688 71.9466H79.054L79.1653 72.1145Z" fill="white"/>
<path d="M68.1888 85.445H31.1556L33.762 79.4381H65.5833L68.1888 85.445ZM34.1653 79.8834L32.1839 84.4743C33.4035 83.9098 34.8613 83.4152 36.471 82.9801C36.6109 82.9423 36.7518 82.9047 36.8939 82.8678C38.1695 82.5367 39.5332 82.2415 40.9446 81.9791C41.0598 81.9577 41.1756 81.9386 41.2913 81.9176C43.0687 81.5956 44.9155 81.3234 46.7523 81.0944C47.2529 81.032 47.7527 80.9719 48.2503 80.9157C49.2954 80.7975 50.3299 80.6913 51.3392 80.5983C53.9743 80.3554 56.4364 80.1942 58.4593 80.0866C59.4393 80.0344 60.3163 79.9959 61.0599 79.9665C61.7243 79.9402 62.2822 79.9205 62.7122 79.9079C63.3401 79.8895 63.6948 79.8837 63.7093 79.8834H34.1653Z" fill="black"/>
<path d="M89.8099 78.6594H9.53452L15.183 71.5969H84.1615L89.8099 78.6594ZM11.8167 76.5471L10.5042 78.2981H11.3333C11.7771 78.2568 12.2194 78.2163 12.6585 78.175L14.2083 76.0774H12.1917L11.8167 76.5471ZM13.6068 78.0862C14.6524 77.9883 15.6812 77.892 16.6947 77.7971L17.8333 76.0784H15.0892L13.6068 78.0862ZM17.6009 77.7112C18.5671 77.6209 19.5227 77.5308 20.4613 77.4436L21.2679 76.0774H18.683L17.6009 77.7112ZM21.3333 77.3625C22.3652 77.2662 23.3816 77.1707 24.3783 77.0774L24.8929 76.0774H22.0921L21.3333 77.3625ZM25.2171 76.9983C26.2133 76.9051 27.192 76.8161 28.1546 76.7259L28.4427 76.0784L25.6907 76.0784L25.2171 76.9983ZM28.722 76.6721C29.9622 76.5558 31.177 76.4444 32.3636 76.3342L32.4554 76.0774H28.9857L28.722 76.6721ZM32.8832 76.2854C33.641 76.215 34.3899 76.1462 35.1263 76.0774H32.9583L32.8832 76.2854ZM12.7582 75.3684H14.7318L15.9076 73.7747H14.0335L12.7582 75.3684ZM15.6146 75.3684H18.305L19.3617 73.7747H16.7904L15.6146 75.3684ZM19.1546 75.3684H21.6878L22.6292 73.7747H20.2113L19.1546 75.3684ZM22.514 75.3684H25.2611L26.0814 73.7747H23.4554L22.514 75.3684ZM26.058 75.3684H28.7572L29.4642 73.7747H26.8783L26.058 75.3684ZM29.3001 75.3684H32.7093L33.2826 73.7747H30.0062L29.3001 75.3684ZM33.2123 75.3684H36.6722L37.1117 73.7747H33.7845L33.2123 75.3684ZM37.1156 75.3684H40.2591L40.5775 73.7747H37.5541L37.1156 75.3684ZM40.6429 75.3684H42.7894C43.143 75.3363 43.4937 75.3048 43.8412 75.2727L44.0267 73.7756H40.9613L40.6429 75.3684ZM44.2064 75.2375C45.4354 75.1244 46.6295 75.015 47.7835 74.9094L47.8294 73.7756H44.3871L44.2064 75.2375ZM48.138 74.8762C49.2879 74.7707 50.3996 74.6675 51.4759 74.5696L51.4437 73.7747H48.182L48.138 74.8762ZM51.8304 74.5374C53.0307 74.4272 54.1852 74.3219 55.2982 74.2209L55.2435 73.7747H51.8001L51.8304 74.5374ZM55.6517 74.1887C56.7048 74.0924 57.7167 74.0005 58.6917 73.9133L58.6644 73.7756H55.6009L55.6517 74.1887ZM59.0736 73.8782C59.4625 73.843 59.8454 73.8083 60.222 73.7747H59.0521L59.0736 73.8782ZM14.5999 73.0657H16.431L17.2601 71.9465H15.4955L14.5999 73.0657ZM17.3128 73.0657H19.8304L20.5726 71.9465H18.141L17.3128 73.0657ZM20.682 73.0657H23.0492L23.7103 71.9465H21.4242L20.682 73.0657ZM23.8724 73.0657H26.4447L27.0218 71.9465H24.5355L23.8724 73.0657ZM27.2435 73.0657H29.7777L30.2738 71.9465H27.8197L27.2435 73.0657ZM30.3216 73.0657H33.5365L33.9388 71.9465H30.8177L30.3216 73.0657ZM34.0414 73.0657H37.307L37.6166 71.9465H34.4427L34.0414 73.0657ZM37.7503 73.0657H40.7191L40.9417 71.9465H38.058L37.7503 73.0657ZM41.1039 73.0657H44.1156L44.2542 71.9465H41.3275L41.1039 73.0657ZM44.474 73.0657H47.8568L47.9007 71.9465H44.6117L44.474 73.0657ZM48.2113 73.0657H51.4173L51.3734 71.9465H48.2562L48.2113 73.0657ZM51.7728 73.0657H55.1546L55.0169 71.9465H51.7279L51.7728 73.0657ZM55.5121 73.0657H58.5238L58.3001 71.9465H55.3734L55.5121 73.0657ZM58.9105 73.0657H61.8792L61.5716 71.9465H58.6869L58.9105 73.0657ZM62.3226 73.0657H65.5902L65.1878 71.9465H62.013L62.3226 73.0657ZM66.0921 73.0657H68.1371C68.5213 73.032 68.8982 72.9992 69.264 72.967L68.8128 71.9465H65.6888L66.0921 73.0657ZM69.7865 72.9211C70.6437 72.8462 71.4458 72.7756 72.2005 72.7083L71.8089 71.9465H69.3548L69.7865 72.9211ZM72.9652 72.6428C73.8393 72.5663 74.6433 72.4966 75.3812 72.4338L75.0941 71.9475H72.6078L72.9652 72.6428ZM76.1654 72.3665C76.9814 72.2976 77.7105 72.2354 78.3597 72.1819L78.2035 71.9465H75.9173L76.1654 72.3665ZM79.1673 72.1145C80.017 72.0441 80.709 71.9894 81.2708 71.9465H79.056L79.1673 72.1145Z" fill="black"/>
<path d="M-0.015625 87.4541V88.6598C-0.015625 89.6451 0.788207 89.74 1.77424 89.74H98.1821C99.1681 89.74 99.9719 89.6451 99.9719 88.6598V87.4541H-0.015625Z" fill="black"/>
<path d="M89.2625 10.5342C89.2625 10.5342 91.2652 17.1515 99.3663 18.9844C99.3663 18.9844 93.2281 20.0416 93.0995 27.4102C93.0995 27.4102 90.9421 21.027 83.1733 18.9768C83.1733 18.9768 89.6667 18.2026 89.2625 10.5342Z" fill="white"/>
<path d="M16.0035 26.1326V67.1858H83.9955V26.1326H16.0035Z" fill="black"/>
<path d="M18.6237 28.7335H25.6117C25.6117 28.7335 20.6386 31.1448 18.6237 40.7104V28.7335Z" fill="white"/>
</g>
<defs>
<clipPath id="clip0_15980_6302">
<rect width="100" height="100" fill="white"/>
</clipPath>
</defs>
</svg>
