<svg width="100" height="100" viewBox="0 0 100 100" fill="none" xmlns="http://www.w3.org/2000/svg">
<g clip-path="url(#clip0_15980_6332)">
<rect width="100" height="100" fill="#9DE7DE"/>
<path d="M52.4111 100.137C65.7007 100.137 76.474 97.5955 76.474 94.4608C76.474 91.3261 65.7007 88.7849 52.4111 88.7849C39.1215 88.7849 28.3481 91.3261 28.3481 94.4608C28.3481 97.5955 39.1215 100.137 52.4111 100.137Z" fill="black"/>
<path d="M54.194 90.6624H44.9098L44.1362 82.7677L48.9254 82.7677L54.194 90.6624Z" fill="black"/>
<path d="M53.8429 0.136719H43.3166L47.7026 2.06654L53.8429 0.136719Z" fill="black"/>
<path d="M30.6921 18.6802C27.9898 22.0872 26.3698 26.4277 26.3698 31.1556C26.3698 42.109 35.062 50.9856 45.7727 50.9856C51.0166 50.9856 55.776 48.8568 59.2691 45.3994H73.5729C70.8648 53.6922 66.3433 62.0543 61.7272 69.2967C57.1053 70.3748 52.8264 69.6038 50.1582 68.9078C43.0916 67.064 35.6445 58.0312 32.2643 51.3648C33.8433 55.0489 36.889 60.4871 41.3872 67.5044C45.4453 73.835 49.1121 78.9545 52.126 82.9075C48.4072 87.7169 45.7727 90.663 45.7727 90.663C45.7727 90.663 16.7857 58.2936 15.4665 32.912C15.4553 32.8177 15.4557 32.7328 15.4557 32.6385C15.4331 32.138 15.4219 31.6466 15.4219 31.1556C15.4219 26.7376 16.3291 22.5366 17.9584 18.7325H30.6507C30.6644 18.715 30.6783 18.6976 30.6921 18.6802ZM75.4012 38.3816C75.2034 39.4284 74.9705 40.4824 74.7006 41.5402H62.3036C62.9051 40.5424 63.4231 39.4863 63.8464 38.3816H75.4012ZM45.7727 0.136937C52.854 0.136956 59.3667 2.61188 64.5285 6.76037C66.2395 9.53188 65.8991 12.1548 65.8991 12.1548C67.3355 11.8953 68.7588 12.1088 70.1288 12.6353C73.8983 17.8043 76.1281 24.2136 76.1236 31.1556C76.1236 31.6466 76.1123 32.138 76.0898 32.6385C76.0845 32.6832 76.0815 32.7257 76.08 32.7682H65.1114C65.1533 32.2363 65.1756 31.6985 65.1756 31.1556C65.1756 20.2023 56.4834 11.3268 45.7727 11.3267C42.8607 11.3267 40.0979 11.9828 37.6184 13.1583C37.6467 13.1449 37.6751 13.1312 37.7034 13.118H21.08C21.8573 12.0084 22.705 10.9541 23.6154 9.96041H40.9024V6.10119H27.8799C32.8967 2.35202 39.0806 0.136937 45.7727 0.136937ZM17.9584 18.7325H17.9562C17.9709 18.6982 17.9861 18.6642 18.0009 18.63C17.9862 18.6639 17.9729 18.6985 17.9584 18.7325ZM18.0009 18.63C18.0849 18.4357 18.1691 18.2416 18.2569 18.0493L18.2852 17.9905C18.1881 18.2023 18.0935 18.4156 18.0009 18.63Z" fill="black"/>
<path d="M54.1938 0.136719C70.9701 0.136763 84.5558 14.0267 84.5446 31.1554C84.5446 31.6464 84.5334 32.1378 84.5108 32.6383C84.4996 32.7326 84.4989 32.8174 84.4989 32.9118C83.1798 58.2934 54.194 90.6624 54.194 90.6624C54.194 90.6624 25.2067 58.2934 23.8876 32.9118C23.8764 32.8175 23.8767 32.7326 23.8767 32.6383C23.8542 32.1378 23.8429 31.6464 23.8429 31.1554C23.843 14.0267 37.4287 0.136719 54.1938 0.136719ZM32.2643 51.3648C33.8433 55.0489 36.889 60.4871 41.3872 67.5044C46.4274 75.3671 50.8605 81.364 54.1938 85.5745C56.0066 83.7617 58.0879 81.0128 60.3335 78.2058C63.8422 73.8199 65.4214 71.1885 68.9301 65.9254C61.9126 71.1884 54.1933 69.9604 50.1582 68.9078C43.0916 67.064 35.6445 58.0312 32.2643 51.3648ZM54.1938 11.3265C43.4831 11.3265 34.7909 20.2021 34.7909 31.1554C34.7909 42.1088 43.4831 50.9854 54.1938 50.9854C64.9045 50.9853 73.5967 42.1087 73.5967 31.1554C73.5966 20.2021 64.9044 11.3265 54.1938 11.3265ZM58.053 1.89091C66.8249 5.07366 65.8991 12.1548 65.8991 12.1548C74.0241 10.6873 81.7305 24.3336 81.7379 24.3467C78.0536 5.39961 58.053 1.89091 58.053 1.89091Z" fill="white"/>
</g>
<defs>
<clipPath id="clip0_15980_6332">
<rect width="100" height="100" fill="white"/>
</clipPath>
</defs>
</svg>
