<svg width="100" height="100" viewBox="0 0 100 100" fill="none" xmlns="http://www.w3.org/2000/svg">
<g clip-path="url(#clip0_15980_6388)">
<rect width="100" height="100" fill="#9DE7DE"/>
<path fill-rule="evenodd" clip-rule="evenodd" d="M52.3186 46.208C50.1984 32.7582 52.8328 21.0667 58.1965 20.103C63.5602 19.1393 69.628 29.2584 71.7481 42.7167C73.8683 56.1665 71.2339 67.858 65.8702 68.8217C60.5065 69.7854 54.4387 59.6663 52.3186 46.208Z" fill="white"/>
<path fill-rule="evenodd" clip-rule="evenodd" d="M54.7788 38.3798C53.1966 38.6672 52.4213 42.1079 53.0463 46.0811C53.6713 50.0459 55.4592 53.0385 57.0414 52.7511C58.6236 52.4637 60.6409 48.7947 60.016 44.83C59.391 40.8652 56.361 38.1008 54.7788 38.3882" fill="#1A1A1A"/>
<path fill-rule="evenodd" clip-rule="evenodd" d="M72.4759 42.5899C70.1975 28.1257 63.6709 17.2373 57.9037 18.2687C52.1365 19.3085 49.3044 31.8791 51.5828 46.3434C53.8612 60.8077 60.3878 71.696 66.1549 70.6647C71.9221 69.6249 74.7543 57.0542 72.4759 42.5899ZM52.3186 46.208C50.1984 32.7582 52.8328 21.0667 58.1965 20.103C63.5602 19.1393 69.628 29.2584 71.7481 42.7167C73.8683 56.1665 71.2339 67.858 65.8702 68.8217C60.5065 69.7854 54.4387 59.6663 52.3186 46.208Z" fill="black"/>
<path fill-rule="evenodd" clip-rule="evenodd" d="M75.1418 42.108C72.3651 24.482 64.4223 11.2181 57.3894 12.4862L55.5145 12.8243C48.4895 14.0839 45.0402 29.4021 47.817 47.028C50.5938 64.654 58.5365 77.9178 65.5695 76.6498L67.4444 76.3116C74.4694 75.052 77.9186 59.7339 75.1418 42.108ZM51.108 46.4278C48.6398 30.7716 51.7093 17.1695 57.9511 16.0452C64.1929 14.9209 71.2575 26.7053 73.7178 42.3616C76.1861 58.0178 73.1245 71.6198 66.8748 72.7442C60.633 73.8685 53.5684 62.0841 51.1001 46.4278" fill="white"/>
<path d="M57.2392 24.4481C60.2058 23.6703 63.9082 28.21 66.4398 35.1843C67.6027 35.049 69.0188 36.9004 69.9523 39.6563C69.9523 39.6309 69.9444 39.614 69.9364 39.5971C67.6343 28.7426 62.3023 20.8806 58.2043 21.9458C56.0763 22.5037 54.0906 25.7415 53.6159 29.9261C54.2013 27.2463 55.6807 24.8623 57.2313 24.4565L57.2392 24.4481Z" fill="#9DE7DE"/>
<path fill-rule="evenodd" clip-rule="evenodd" d="M23.7515 51.3478C22.9604 46.3178 23.5854 41.8035 25.1359 39.7662C24.5031 39.352 23.8702 39.166 23.2452 39.2759L12.1539 41.271C9.45621 41.7528 8.10342 47.4506 9.13186 53.9853C10.1603 60.52 13.1823 65.4232 15.88 64.9413L26.9792 62.9462C27.6042 62.8363 28.1501 62.4306 28.6168 61.8219C26.5204 60.4355 24.5505 56.3862 23.7594 51.3562" fill="black"/>
<path fill-rule="evenodd" clip-rule="evenodd" d="M98.0207 37.991C99.595 47.9917 98.0049 57.071 94.4053 61.2978C98.883 58.2629 101.074 48.575 99.3656 37.7543C97.6647 26.9335 92.6253 18.539 87.4673 17.2371C92.1665 19.9761 96.4385 27.9987 98.0207 37.991Z" fill="white"/>
<path fill-rule="evenodd" clip-rule="evenodd" d="M90.6 39.3268C91.6047 45.7094 90.8136 51.4663 88.82 54.1124C91.3199 52.2356 92.4512 46.0982 91.3674 39.1916C90.2757 32.2764 87.3327 26.8745 84.3898 25.9784C87.0796 27.7791 89.5953 32.9443 90.6 39.3268Z" fill="white"/>
<path fill-rule="evenodd" clip-rule="evenodd" d="M7.78714 54.3235C7.35994 51.6183 7.35203 49.0653 7.66848 46.9603L5.15276 47.4168C1.751 48.0255 -0.54321 51.4661 0.0342981 55.1012C0.603895 58.7363 3.8237 61.1794 7.22546 60.5708L9.40891 60.1819C8.70483 58.4996 8.13523 56.513 7.79505 54.3319" fill="white"/>
<path fill-rule="evenodd" clip-rule="evenodd" d="M26.3305 81.8234C25.9982 81.4599 25.8084 80.9696 25.8084 80.4624L25.9587 65.009L16.5682 66.6998L16.0699 86.3884C16.0461 87.6227 17.0904 88.578 18.2296 88.3751L26.821 86.828C28.2924 86.566 28.8858 84.647 27.8415 83.4973L26.3226 81.8234H26.3305Z" fill="black"/>
<path fill-rule="evenodd" clip-rule="evenodd" d="M46.3456 47.2818C44.7397 37.0782 45.1985 27.6523 47.208 21.2867L26.4572 40.671C23.7675 45.8193 26.0142 57.8827 29.5663 60.4358L55.6095 72.1949C51.5511 66.962 48.0149 57.9166 46.3377 47.2818" fill="black"/>
<path d="M26.4574 40.6795C23.7677 45.8278 26.0144 57.8912 29.5665 60.4442L55.6176 72.2118C51.5513 66.979 48.023 57.9335 46.3458 47.2987C44.7399 37.0951 45.1987 27.6692 47.2081 21.3036L26.4574 40.6879V40.6795Z" fill="black"/>
<path d="M47.2081 21.3036C45.1987 27.6692 44.7399 37.0951 46.3458 47.2987C46.484 48.1748 46.6361 49.0401 46.7986 49.8933L25.7112 51.7569C24.9997 47.7173 25.0875 43.3016 26.4574 40.6795V40.6879L47.2081 21.3036Z" fill="white"/>
<path d="M51.6691 65.5563C52.8861 68.1649 54.2202 70.4135 55.6176 72.2118L29.5665 60.4442C28.9536 60.0037 28.3795 59.2797 27.863 58.3573L51.6691 65.5563Z" fill="black"/>
<path d="M23.245 39.2679L12.1537 41.2629C9.456 41.7448 8.10321 47.4426 9.13165 53.9773C10.1601 60.512 13.1821 65.4152 15.8798 64.9333L26.9711 62.9382C27.5961 62.8283 28.1419 62.4225 28.6087 61.8139C26.5123 60.4275 24.5426 56.3777 23.7515 51.3478C22.9604 46.3263 23.5854 41.8035 25.1359 39.7662C24.6296 39.4281 24.1073 39.2425 23.601 39.2425C23.4823 39.2425 23.3639 39.2505 23.2452 39.2759" fill="black"/>
<path d="M26.3333 59.1741C26.559 59.5606 26.7919 59.9173 27.0313 60.2404L12.4083 62.87C12.1693 62.5463 11.9365 62.1896 11.7112 61.8027L26.3333 59.1741Z" fill="#9DE7DE"/>
<path d="M24.5368 54.8707C24.792 55.7368 25.0831 56.5493 25.4003 57.2968L10.78 59.9244C10.4633 59.1768 10.1723 58.3647 9.91743 57.4993L24.5368 54.8707Z" fill="#9DE7DE"/>
<path d="M0.0325298 55.1138C0.114547 55.3089 1.23339 57.5972 8.1792 56.3435C8.50442 57.7439 8.92022 59.0386 9.40129 60.1822L7.2178 60.5706C3.82395 61.1863 0.61125 58.7477 0.0307003 55.1265L0.0325298 55.1138Z" fill="black"/>
<path d="M0.0342981 55.1012L0.0325298 55.1138C0.0289229 55.1052 0.0261266 55.1011 0.0261266 55.1011L0.0342981 55.1012Z" fill="black"/>
<path fill-rule="evenodd" clip-rule="evenodd" d="M28.6802 39.9016L43.2287 26.6716C43.2287 26.6716 36.615 33.35 36.702 36.8498C36.702 36.8498 34.7006 34.8886 28.6802 39.9016Z" fill="black"/>
<path fill-rule="evenodd" clip-rule="evenodd" d="M1.03114 53.5882C1.03114 53.5882 1.51372 49.5643 6.01511 48.3977C6.01511 48.3977 3.75255 49.6404 4.28259 50.8577C4.28259 50.8577 2.32856 49.8094 1.03114 53.5882Z" fill="#9DE7DE"/>
<path d="M23.601 39.2425C24.1073 39.2425 24.6296 39.4281 25.1359 39.7662C23.5854 41.8035 22.9604 46.3263 23.7515 51.3478C24.5426 56.3777 26.5123 60.4275 28.6087 61.8139C28.2246 62.3148 27.786 62.6752 27.2947 62.8494C25.1212 62.8935 22.6259 58.0378 21.6315 51.7197C20.6396 45.4648 21.4882 40.0458 23.5122 39.2449C23.5418 39.2438 23.5714 39.2425 23.601 39.2425Z" fill="white"/>
</g>
<defs>
<clipPath id="clip0_15980_6388">
<rect width="100" height="100" fill="white"/>
</clipPath>
</defs>
</svg>
