<svg width="100" height="100" viewBox="0 0 100 100" fill="none" xmlns="http://www.w3.org/2000/svg">
<g clip-path="url(#clip0_15980_6472)">
<rect width="100" height="100" fill="#9DE7DE"/>
<path d="M59.4309 85.9679C58.9717 85.4271 58.7166 84.7433 58.7166 84.0392V74.6402H38.8472V84.0392C38.8472 84.7535 38.6023 85.4373 38.1328 85.9679L31.8873 93.285C31.6117 93.6116 31.4587 94.03 31.4587 94.4586V95.0709C31.4587 95.571 31.8669 95.9792 32.3669 95.9792H65.1968C65.6969 95.9792 66.1051 95.571 66.1051 95.0709V94.4586C66.1051 94.03 65.952 93.6116 65.6765 93.285L59.4309 85.9679Z" fill="white"/>
<path d="M97.1797 8.42917H2.72111C1.19034 8.42917 -0.0546875 9.67419 -0.0546875 11.205V70.4661C-0.0546875 71.9969 1.19034 73.2419 2.72111 73.2419H97.1695C98.7003 73.2419 99.9453 71.9969 99.9453 70.4661V11.2152C99.9453 9.6844 98.7003 8.43937 97.1695 8.43937L97.1797 8.42917Z" fill="white"/>
<path d="M57.094 85.6518L63.5334 92.9689H40.429C40.429 92.9689 56.6246 92.1933 57.0838 85.6518H57.094Z" fill="#9DE7DE"/>
<path d="M2.72101 7.05284H97.1796C97.6184 7.05284 98.0471 7.13448 98.4451 7.27735C98.3634 5.90987 97.2204 4.82812 95.8428 4.82812H4.05788C2.66998 4.82812 1.53721 5.90987 1.45557 7.27735C1.86378 7.14469 2.28219 7.05284 2.72101 7.05284Z" fill="black"/>
<path d="M4.5274 13.0008V68.6799H95.3836V13.0008H4.5274Z" fill="black"/>
<path d="M8.18088 16.4023H21.9476C21.9476 16.4023 12.1507 21.1578 8.18088 40.0169V16.4023Z" fill="white"/>
<path d="M38.8572 74.6402V84.0392C38.8572 84.4576 38.7552 84.876 38.5817 85.2638H45.2558C46.9193 85.2638 48.4602 84.3453 49.2358 82.8656L50.6441 80.2327C51.0115 79.5387 51.7361 79.1101 52.5321 79.1101H58.7368V74.6505H38.8674L38.8572 74.6402Z" fill="black"/>
</g>
<defs>
<clipPath id="clip0_15980_6472">
<rect width="100" height="100" fill="white"/>
</clipPath>
</defs>
</svg>
