<svg width="100" height="100" viewBox="0 0 100 100" fill="none" xmlns="http://www.w3.org/2000/svg">
<g clip-path="url(#clip0_15980_6488)">
<rect width="100" height="100" fill="#9DE7DE"/>
<path d="M16.9228 68.8967C16.8139 75.5914 12.0741 82.373 6.33489 84.0426C12.0741 82.373 16.639 86.4488 16.5301 93.1436C16.639 86.4488 21.3788 79.6673 27.118 77.9976C21.3788 79.6673 16.8139 75.5914 16.9228 68.8967Z" fill="white"/>
<path d="M5.42432 13.4753C5.37075 16.8254 2.93082 20.2138 -0.015625 21.0489C2.93568 20.2138 5.27823 22.2488 5.22466 25.5988C5.27823 22.2488 7.71816 18.8603 10.6646 18.0252C7.71328 18.8603 5.37075 16.8254 5.42432 13.4753Z" fill="white"/>
<path d="M47.0995 18.3826C57.2941 18.3828 65.0299 27.1656 65.0888 39.8259C65.1206 47.0203 62.6744 54.1107 58.6845 59.7488H58.6933L65.2196 65.8796L43.0546 70.9929C41.5875 71.3321 40.152 71.4948 38.7616 71.4949C28.5624 71.4949 20.8264 62.7164 20.7675 50.0515C20.6996 35.6627 30.5682 21.708 42.8056 18.8845C44.273 18.5452 45.7092 18.3826 47.0995 18.3826ZM55.4726 23.7322C46.9531 19.2624 36.7357 23.0567 30.1532 31.7654C27.327 35.5004 23.7114 43.4421 24.2939 47.8259C24.5964 46.7958 25.8735 43.6827 27.9999 42.158C30.5687 40.3154 34.3926 40.9145 37.8827 42.9929C36.9933 41.1278 36.542 39.0898 36.6728 36.9705C37.1513 29.1604 45.1253 23.2971 54.4755 23.8826L54.4706 23.8777C54.9809 23.9094 55.4823 23.9688 55.9833 24.0369C55.8119 23.937 55.6487 23.8275 55.4726 23.7322Z" fill="white"/>
<path d="M21.3336 43.361C21.3653 43.1982 21.406 43.0353 21.4375 42.877C21.4105 43.0038 21.3789 43.1303 21.3518 43.2616C21.3428 43.2977 21.3381 43.3295 21.3336 43.3656V43.361ZM24.2841 30.135L18.5006 27.516C18.5006 27.516 18.487 27.5341 18.4825 27.5432C18.2431 27.9051 18.0081 28.2715 17.7822 28.6468C17.7551 28.6966 17.7234 28.742 17.6918 28.7871C17.6873 28.7961 17.6828 28.8051 17.6783 28.8096C17.4297 29.2258 17.1857 29.6509 16.9553 30.0763C16.8875 30.2029 16.8243 30.3296 16.7565 30.4562C16.5938 30.7638 16.4312 31.0757 16.2776 31.3879C16.2459 31.4513 16.2143 31.5101 16.1827 31.5733C16.1375 31.6685 16.0968 31.768 16.0516 31.8629C15.9116 32.1568 15.776 32.4554 15.6404 32.7586C15.5681 32.9214 15.4958 33.0843 15.4281 33.2516C15.2925 33.5726 15.1615 33.8938 15.035 34.2195C14.9943 34.3282 14.9446 34.4322 14.9039 34.5407C14.8904 34.5722 14.8814 34.6085 14.8678 34.6401C14.6871 35.1287 14.5108 35.6172 14.3527 36.1148C14.3211 36.2142 14.294 36.3137 14.2623 36.4134C14.1358 36.8158 14.0138 37.2229 13.9054 37.63C13.8873 37.7024 13.8602 37.7703 13.8421 37.8427C13.7969 38.0146 13.7563 38.1865 13.7111 38.3628C13.684 38.4758 13.6523 38.5891 13.6252 38.7066C13.5303 39.1002 13.44 39.4937 13.3586 39.8916C13.3496 39.9279 13.3451 39.9685 13.3361 40.0093C13.2638 40.3666 13.2005 40.7239 13.1372 41.0859C13.1147 41.2124 13.0966 41.3437 13.0785 41.4748C13.0559 41.6241 13.0288 41.7734 13.0062 41.9227C12.9881 42.0402 12.9791 42.1577 12.961 42.2755C12.9384 42.4473 12.9158 42.6147 12.8978 42.7866C12.8707 43.0444 12.8436 43.3022 12.821 43.56C12.8074 43.7228 12.7893 43.8857 12.7803 44.0485C12.7577 44.3291 12.7441 44.6095 12.7306 44.8898C12.7261 45.0301 12.7125 45.1704 12.708 45.3105C12.6944 45.7266 12.6854 46.1383 12.6854 46.5544V46.5724C12.699 49.2231 13.0469 51.7019 13.684 53.9635C13.7382 54.1534 13.7924 54.3436 13.8512 54.529C15.6043 60.2372 19.219 64.5073 23.8911 66.588C20.4797 62.4039 18.4464 56.6232 18.4148 49.9514C18.3831 43.076 20.4571 36.1012 24.2751 30.1305L24.2841 30.135ZM23.0281 37.5894C22.9739 37.7295 22.9151 37.8698 22.8609 38.0146C22.6802 38.5031 22.5084 38.9915 22.3457 39.4845C22.3141 39.5842 22.2825 39.6882 22.251 39.7876C22.1244 40.1902 22.0069 40.5929 21.8939 41C22.4407 39.0097 23.1636 37.0783 24.0357 35.2372C23.8956 35.5313 23.7601 35.8299 23.629 36.1238C23.5568 36.2866 23.4844 36.454 23.4122 36.6168C23.2766 36.938 23.1501 37.2592 23.0236 37.5804L23.0281 37.5894ZM21.1393 44.4058C21.1393 44.4058 21.1348 44.4376 21.1303 44.4511C21.1077 44.5777 21.0897 44.7044 21.0716 44.8312C21.0942 44.6909 21.1168 44.5461 21.1393 44.4058ZM21.0173 45.202C20.9947 45.3468 20.9722 45.4961 20.9541 45.6407C20.9316 45.808 20.9135 45.9754 20.8908 46.1428C20.9271 45.8261 20.9722 45.5141 21.0173 45.202ZM20.6785 49.9334C20.6785 49.5806 20.6875 49.2276 20.6965 48.8749C20.683 49.2321 20.6785 49.5851 20.6785 49.9424V49.9334ZM21.6318 57.1706C21.4375 56.4604 21.2749 55.7321 21.1348 54.9857C21.2704 55.7321 21.4375 56.4649 21.6318 57.1706ZM39.0775 19.9667C39.4118 19.8265 39.7461 19.6953 40.0806 19.5687C39.9857 19.6049 39.8862 19.6411 39.7914 19.6772C39.5519 19.7677 39.3123 19.8627 39.073 19.9667H39.0775ZM37.9117 20.5005C38.2506 20.3331 38.5896 20.1793 38.9329 20.0301C38.8199 20.0798 38.7069 20.1296 38.5986 20.1793C38.3681 20.2834 38.1421 20.3874 37.9162 20.5005H37.9117ZM24.9755 20.3105C24.7088 20.5276 24.4469 20.7447 24.1893 20.9709C24.1079 21.0387 24.0312 21.1111 23.9543 21.1835C23.7375 21.378 23.5205 21.5725 23.3082 21.7715C23.1997 21.8755 23.0957 21.9796 22.9875 22.0836C22.8066 22.26 22.6304 22.4319 22.4542 22.6128L22.4452 22.6219L28.0886 25.1775C28.8614 24.3362 29.6656 23.5446 30.4971 22.8073L24.9755 20.306V20.3105ZM36.7595 21.1021C36.6918 21.1383 36.6239 21.179 36.5517 21.2197C36.8996 21.0207 37.2519 20.8307 37.609 20.6497C37.5501 20.6814 37.4915 20.7085 37.4328 20.7402C37.2068 20.8578 36.981 20.9799 36.7595 21.1021ZM32.7382 23.8703C32.7382 23.8703 32.7652 23.8522 32.7743 23.8386C32.7743 23.8386 32.7517 23.8567 32.7382 23.8703ZM30.976 25.4489C30.9354 25.4851 30.8991 25.5258 30.8585 25.562C31.1115 25.3177 31.3646 25.0735 31.622 24.8383C31.5137 24.9378 31.4007 25.0328 31.2967 25.1368C31.1928 25.2408 31.0845 25.3449 30.976 25.4489ZM30.2665 26.1636C30.4382 25.9872 30.6144 25.8063 30.7908 25.6344C30.6733 25.7475 30.5557 25.8651 30.4382 25.9827C30.3796 26.0415 30.3207 26.1048 30.262 26.1681L30.2665 26.1636ZM20.7056 48.8704C20.7146 48.5627 20.7326 48.2508 20.7462 47.9431C20.7416 48.0471 20.7326 48.1511 20.7281 48.2553C20.7191 48.3953 20.7101 48.5356 20.7056 48.6714V48.8704ZM45.6201 18.3384C45.7557 18.3293 45.8867 18.3157 46.0223 18.3112H45.9681C45.8551 18.3157 45.7376 18.3293 45.6201 18.3384ZM44.4408 15.8234C44.2285 15.751 44.0115 15.6787 43.7947 15.6154C43.7586 15.6018 43.7178 15.5882 43.6817 15.5792C43.6637 15.5746 43.6501 15.5701 43.6321 15.5656C43.492 15.5249 43.3474 15.4887 43.2073 15.4525C43.1304 15.4344 43.0537 15.4118 42.9768 15.3937C42.7916 15.3485 42.6064 15.3078 42.4165 15.2671C42.3804 15.258 42.3443 15.249 42.3082 15.2445C42.0822 15.1992 41.8564 15.1585 41.6303 15.1223C41.5672 15.1133 41.5038 15.1042 41.4451 15.0952C41.278 15.0726 41.1108 15.0454 40.9435 15.0273C40.9299 15.0273 40.9209 15.0273 40.9074 15.0228C40.8713 15.0228 40.8307 15.0183 40.7944 15.0138C40.5686 14.9911 40.3425 14.9685 40.1122 14.955C40.0308 14.9504 39.9451 14.9459 39.8636 14.9414C39.6469 14.9323 39.4253 14.9233 39.204 14.9188H39.0186C38.7387 14.9188 38.463 14.9233 38.1784 14.9369C38.1105 14.9369 38.0428 14.9459 37.9749 14.9504C37.7536 14.964 37.5321 14.9776 37.3063 15.0002C37.2612 15.0002 37.2113 15.0047 37.1662 15.0092C37.1346 15.0092 37.0983 15.0183 37.0667 15.0228C36.7144 15.059 36.3573 15.1042 35.9959 15.163C35.9373 15.1721 35.8739 15.1857 35.8152 15.1947C35.4401 15.258 35.0607 15.3304 34.6765 15.4209H34.672C34.2653 15.5158 33.8631 15.6244 33.4611 15.742C33.3256 15.7827 33.1945 15.828 33.0589 15.8686C32.7923 15.9546 32.5257 16.0405 32.2593 16.1355C32.1009 16.1898 31.9473 16.2531 31.7937 16.3119C31.5543 16.4024 31.3148 16.4974 31.0754 16.6014C30.9126 16.6693 30.7545 16.7416 30.5963 16.814C30.366 16.918 30.1355 17.0266 29.9097 17.1352C29.7515 17.2121 29.5932 17.2935 29.4351 17.3749C29.2093 17.4925 28.9833 17.6146 28.762 17.7413C28.6986 17.7775 28.6354 17.8137 28.5768 17.8453L33.8451 20.2291C36.4658 18.4967 39.2672 17.2528 42.1636 16.5833C43.1712 16.3481 44.1832 16.1989 45.1863 16.1084C45.0101 16.036 44.8294 15.9682 44.6533 15.9003C44.5809 15.8732 44.5087 15.8506 44.4363 15.8234H44.4408ZM46.7001 18.2886C46.7994 18.2886 46.9034 18.2841 47.0028 18.2841H46.9575C46.8718 18.2841 46.7859 18.2886 46.6956 18.2931L46.7001 18.2886ZM42.7057 18.7771C43.1033 18.6867 43.4965 18.6097 43.8895 18.5419C43.8669 18.5419 43.8398 18.5509 43.8173 18.5555C43.4512 18.6188 43.0808 18.6912 42.7057 18.7771ZM47.5404 18.2976C47.7076 18.3022 47.8749 18.3067 48.0421 18.3203C47.9787 18.3203 47.92 18.3112 47.8567 18.3112C47.7529 18.3067 47.6444 18.3022 47.5404 18.3022V18.2976ZM52.4338 19.1932C52.2937 19.1435 52.1493 19.0983 52.0047 19.053C52.1764 19.1073 52.3526 19.1616 52.5197 19.2249C52.4927 19.2159 52.4611 19.2068 52.4338 19.1932ZM48.4713 18.3519C48.6114 18.3655 48.7558 18.3745 48.8959 18.3881C48.8598 18.3881 48.8237 18.3836 48.7876 18.3791C48.6836 18.37 48.5751 18.361 48.4713 18.3519ZM24.4242 63.4669C24.0583 62.9014 23.7149 62.3134 23.394 61.7028C23.7104 62.3179 24.0583 62.9059 24.4242 63.4669ZM25.6714 32.1796C25.5719 32.3424 25.4816 32.5098 25.3867 32.6771C25.5313 32.4238 25.6804 32.1706 25.834 31.9218C25.8159 31.9534 25.7934 31.9849 25.7753 32.0167C25.739 32.0709 25.7029 32.1252 25.6714 32.1841V32.1796ZM24.7451 33.8306C24.7451 33.8306 24.7269 33.8712 24.7133 33.8893C24.8579 33.6134 25.007 33.3421 25.1607 33.0705C25.0885 33.1973 25.0161 33.3193 24.9439 33.4461C24.876 33.5726 24.8083 33.6993 24.7406 33.8306H24.7451ZM42.6696 18.7862H42.6741C42.2674 18.8811 41.8609 18.9897 41.4587 19.1073C41.8609 18.9897 42.2629 18.8811 42.6696 18.7862ZM24.1442 35.0247C24.2888 34.7306 24.4379 34.4367 24.587 34.1471C24.483 34.3507 24.3745 34.5542 24.2751 34.7579C24.2299 34.8483 24.1893 34.9387 24.1442 35.0247ZM26.1999 31.3428C26.2587 31.2523 26.3129 31.1664 26.3718 31.076C26.3174 31.1664 26.2587 31.2523 26.2044 31.3428H26.1999ZM42.6741 18.7862C42.6741 18.7862 42.6921 18.7862 42.7011 18.7816C42.6921 18.7816 42.6831 18.7816 42.6741 18.7862Z" fill="black"/>
<path d="M74.4406 58.1212C74.4406 44.0062 63.0026 32.5606 48.8969 32.5606C63.0026 32.5606 74.4406 21.115 74.4406 7C74.4406 21.115 85.8787 32.5606 99.9844 32.5606C85.8787 32.5606 74.4406 44.0062 74.4406 58.1212Z" fill="white"/>
<path d="M91.3801 32.5815C82.9467 32.5815 81.4265 33.0264 78.1492 30.1346C77.1094 29.216 73.825 25.1329 74.5134 13.8668C75.166 25.3052 89.3434 32.5959 91.3801 32.5815Z" fill="black"/>
<path d="M76.8875 36.2048C75.0158 38.3288 74.5425 39.7138 74.4421 42.7205C74.3417 39.721 73.8684 38.3288 71.9967 36.2048C71.0788 35.1642 66.9984 31.8777 55.7397 32.5666C67.1705 33.2196 74.4565 47.4064 74.4421 49.4443C74.4421 49.4371 74.4421 49.4228 74.4421 49.4156V49.4443C74.4278 47.4064 81.7065 33.2196 93.1446 32.5666C81.8858 31.8777 77.8054 35.1642 76.8875 36.2048Z" fill="black"/>
</g>
<defs>
<clipPath id="clip0_15980_6488">
<rect width="100" height="100" fill="white"/>
</clipPath>
</defs>
</svg>
