<svg width="100" height="100" viewBox="0 0 100 100" fill="none" xmlns="http://www.w3.org/2000/svg">
<g clip-path="url(#clip0_4483_21760)">
<rect width="100" height="100" fill="#9DE7DE"/>
<path d="M68.9604 63.6424C64.6085 62.3437 59.9643 59.7292 56.2145 56.4868C52.4303 53.21 49.4029 49.1936 47.6656 45.1858C46.711 42.9841 46.2723 41.006 46.3153 39.4407L44.234 40.791C44.0018 40.92 43.804 41.0662 43.6406 41.2554C41.4131 43.8269 44.5093 53.167 52.8431 60.3828C59.001 65.7237 66.3028 68.407 70.5858 68.407C72.0995 68.407 73.2348 68.0716 73.8196 67.4008C73.983 67.2116 74.1034 66.9879 74.1894 66.7471L75.2645 64.3992C74.8689 64.4594 74.4388 64.4938 73.9744 64.4938C72.5553 64.4938 70.8438 64.21 68.9431 63.6424H68.9604Z" fill="black"/>
<path d="M82.4723 17.9057C82.2315 17.3553 82.0767 16.8479 81.9821 16.3748L48.4403 38.0652C47.9759 38.3662 47.6749 38.865 47.6577 39.4155C47.6061 40.6625 47.9415 42.4428 48.8961 44.6617C50.5474 48.4975 53.463 52.3333 57.0924 55.4811C60.7046 58.6117 65.1682 61.123 69.3394 62.3701C71.8507 63.1183 73.7686 63.2731 75.0415 63.0839C75.6091 62.9979 76.0822 62.6195 76.323 62.1035L92.8789 25.8955C90.8835 25.6891 88.1572 24.4765 86.0157 22.6188C84.4418 21.2599 83.1861 19.5914 82.4637 17.9143L82.4723 17.9057Z" fill="black"/>
<path d="M97.2645 7C96.7743 7 96.2669 7.13761 95.7767 7.45582L83.6758 15.2822C83.3748 15.4714 83.2286 15.8241 83.2974 16.1767C83.3662 16.5121 83.4866 16.9077 83.693 17.3807C84.0628 18.2408 84.9745 19.9437 86.8924 21.6036C89.1027 23.5129 91.399 24.3557 92.8353 24.5621C93.2051 24.6137 93.5577 24.4073 93.7125 24.0633L99.7415 10.8874C100.636 8.9265 99.0792 7 97.2559 7H97.2645Z" fill="black"/>
<path d="M17.3648 63.7282C17.0724 63.7282 16.4274 63.8745 16.4274 63.8745L2.39143 67.5469C0.757342 67.8135 -0.22311 69.353 0.0435042 71.5375C0.310118 73.722 1.66899 75.4077 3.22567 75.3819C3.51809 75.3819 4.17172 75.2443 4.17172 75.2443L18.2077 71.5719C19.6267 71.2193 20.8222 69.7658 20.5556 67.5813C20.289 65.3967 18.9301 63.7024 17.3648 63.7282Z" fill="black"/>
<path d="M40.5772 62.8599L26.5413 59.1875C26.5413 59.1875 25.8963 59.0499 25.5953 59.0499C24.03 59.0327 22.6797 60.7184 22.4131 62.8943C22.1465 65.0788 23.1269 66.6183 24.761 66.8849L38.797 70.5573C38.797 70.5573 39.442 70.7035 39.7344 70.7035C41.2997 70.7207 42.6586 69.035 42.9252 66.8505C43.1918 64.666 41.9963 63.2125 40.5772 62.8599Z" fill="black"/>
<path d="M83.0546 75.9588C79.5456 75.2708 76.5182 74.7634 73.9209 74.3936C73.4135 74.3248 73.078 73.8259 73.207 73.3271C73.3962 72.5875 73.3962 71.7532 73.121 70.8674C72.9748 70.3858 72.9404 69.8783 73.035 69.3881C72.347 69.6117 71.5386 69.7407 70.5839 69.7407C64.4088 69.7407 56.6082 65.4147 51.9639 61.3897C45.7974 56.0402 41.6348 48.5664 41.5918 43.7501C39.0632 45.8143 37.0249 48.4546 35.6919 51.482C34.9866 53.0902 34.849 54.8963 35.193 56.625V56.668C35.451 57.9323 35.2876 58.9472 35.0382 59.9534C34.3932 62.5851 34.5394 65.3631 35.5973 67.8486C35.7177 68.141 35.8639 68.4162 35.9929 68.7001C29.0867 70.1879 15.4034 73.6883 29.3103 76.2513C34.2986 77.1715 42.2282 80.3021 21.7247 80.9127C4.81622 81.4115 2.66611 89.2551 19.3166 91.5343C28.2611 92.7555 42.8388 93.134 55.1633 91.6289C55.1633 91.6289 68.7434 90.4764 62.7489 84.5163C59.7215 81.4975 65.3032 81.3943 69.0616 81.5147C86.1937 82.0394 92.1366 77.7477 83.0374 75.9502L83.0546 75.9588Z" fill="white"/>
<path d="M11.2082 85.1097C10.3654 85.7031 10.7352 86.5632 11.191 86.933C13.1261 88.5241 17.2543 89.0487 17.2543 89.0487C13.5733 83.1402 26.173 82.5898 26.173 82.5898C18.7852 81.4889 13.1261 83.7508 11.2082 85.1011V85.1097Z" fill="#9DE7DE"/>
<path d="M43.3218 72.6648C43.3218 72.6648 38.325 68.8118 40.4579 63.8149C40.4579 63.8149 37.1123 62.0174 38.54 57.4506C38.54 57.4506 31.7628 66.8509 43.3218 72.6648Z" fill="#9DE7DE"/>
<path d="M60.5152 77.0937C60.5152 77.0937 55.1141 76.5089 51.9148 76.7411C48.7154 76.9733 44.656 78.1946 47.4425 80.9811C50.2291 83.7676 37.9734 83.243 37.9734 83.243C40.4676 84.1719 46.6943 84.5159 48.9562 83.9139C51.6912 83.1914 51.7428 81.9185 50.5817 79.4674C49.2744 76.7067 60.5152 77.0851 60.5152 77.0851V77.0937Z" fill="#9DE7DE"/>
<path d="M56.4714 37.9532L52.7646 38.5896C52.4378 38.6412 52.1539 38.8476 51.9905 39.1314L50.1414 42.4082C50.0038 42.649 50.2102 42.9414 50.4855 42.8984L54.1923 42.262C54.5191 42.2104 54.8029 42.004 54.9663 41.7202L56.8154 38.4434C56.953 38.2026 56.7466 37.9102 56.4714 37.9532Z" fill="#9DE7DE"/>
<path d="M58.6643 37.2998L62.3711 36.6633C62.6979 36.6117 62.9817 36.4053 63.1451 36.1215L64.9942 32.8447C65.1318 32.6039 64.9254 32.3115 64.6502 32.3545L60.9434 32.9909C60.6166 33.0425 60.3328 33.2489 60.1694 33.5328L58.3203 36.8095C58.1827 37.0503 58.3891 37.3428 58.6643 37.2998Z" fill="#9DE7DE"/>
<path d="M72.7014 26.8843L68.9946 27.5207C68.6678 27.5723 68.3839 27.7787 68.2205 28.0626L66.3714 31.3393C66.2338 31.5801 66.4402 31.8726 66.7155 31.8296L70.4223 31.1931C70.7491 31.1415 71.0329 30.9351 71.1963 30.6513L73.0454 27.3745C73.183 27.1337 72.9766 26.8413 72.7014 26.8843Z" fill="#9DE7DE"/>
<path d="M70.9544 33.2918L67.2476 33.9282C66.9208 33.9798 66.637 34.1863 66.4736 34.4701L64.6245 37.7468C64.4869 37.9877 64.6933 38.2801 64.9685 38.2371L68.6753 37.6006C69.0021 37.549 69.2859 37.3426 69.4493 37.0588L71.2984 33.782C71.436 33.5412 71.2296 33.2488 70.9544 33.2918Z" fill="#9DE7DE"/>
<path d="M62.8965 38.9854L59.1897 39.6218C58.8629 39.6734 58.5791 39.8799 58.4157 40.1637L56.5666 43.4404C56.429 43.6813 56.6354 43.9737 56.9106 43.9307L60.6174 43.2942C60.9442 43.2426 61.228 43.0362 61.3914 42.7524L63.2405 39.4756C63.3782 39.2348 63.1717 38.9424 62.8965 38.9854Z" fill="#9DE7DE"/>
<path d="M80.9827 21.3973L77.2759 22.0337C76.9491 22.0853 76.6652 22.2917 76.5018 22.5755L74.6527 25.8523C74.5151 26.0931 74.7215 26.3855 74.9968 26.3425L78.7036 25.7061C79.0304 25.6545 79.3142 25.4481 79.4776 25.1643L81.3267 21.8961C81.4643 21.6553 81.2579 21.3629 80.9827 21.4059V21.3973Z" fill="#9DE7DE"/>
<path d="M90.7703 20.803C90.5638 21.0954 90.6498 21.5083 90.9681 21.6717C91.1831 21.7921 91.3981 21.8953 91.6045 21.9985C91.8969 22.1361 92.2409 22.0071 92.3871 21.7233L98.1494 10.3018L90.7703 20.803Z" fill="white"/>
<path d="M88.6809 27.0641C88.3455 26.9093 88.0101 26.7373 87.6747 26.5566C87.2877 26.3502 86.8146 26.4448 86.5566 26.8061L68.8655 51.9796C63.1892 58.7654 57.1517 55.4972 57.1517 55.4972C57.3323 55.6606 57.5129 55.8068 57.6935 55.9616C61.1939 58.86 65.3995 61.1821 69.3471 62.3603C70.1728 62.6098 70.921 62.7732 71.6176 62.9022L89.111 28.2251C89.3346 27.7865 89.1282 27.2619 88.6895 27.0555L88.6809 27.0641Z" fill="white"/>
</g>
<defs>
<clipPath id="clip0_4483_21760">
<rect width="100" height="100" fill="white"/>
</clipPath>
</defs>
</svg>
