<svg width="100" height="100" viewBox="0 0 100 100" fill="none" xmlns="http://www.w3.org/2000/svg">
<rect width="100" height="100" fill="#9DE7DE"/>
<path d="M46.6611 10.9234L45.596 18.5177C46.8741 18.3707 48.1816 18.1942 49.5478 17.9884C51.4944 17.687 53.3968 17.3414 55.2405 16.9518C54.2122 14.4669 53.2499 12.1511 52.3832 10.078C51.6486 10.2029 50.9067 10.3279 50.1575 10.4455C48.9822 10.6293 47.8143 10.7837 46.6537 10.9234H46.6611Z" fill="white"/>
<path d="M45.0157 22.6803L43.9506 30.2673C45.7282 30.0909 47.5939 29.863 49.5478 29.5615C53.0736 29.0175 56.4599 28.3191 59.6111 27.4884C58.6635 25.1946 57.7306 22.945 56.8271 20.7762C54.6749 21.2541 52.4419 21.6658 50.1648 22.0187C48.4313 22.2833 46.7051 22.5039 45.0157 22.6803Z" fill="white"/>
<path d="M43.3703 34.4132L42.3052 41.9929C44.5676 41.8091 46.9769 41.537 49.5478 41.1401C54.7263 40.3461 59.6331 39.1992 63.8787 37.8097C62.9826 35.641 62.0791 33.4575 61.183 31.2888C57.738 32.2224 54.0212 33.0091 50.1648 33.5972C47.8657 33.9501 45.5886 34.2221 43.3703 34.4132Z" fill="white"/>
<path d="M49.5478 6.4246C49.9591 6.35844 50.3705 6.29227 50.7818 6.22611C49.1805 2.37382 48.1962 0.00656825 48.1962 0.00656825L47.2486 6.74808C48.0052 6.64515 48.7618 6.54223 49.5478 6.4246Z" fill="white"/>
<path d="M44.9348 11.1163C44.4573 11.1677 43.9872 11.2118 43.5171 11.2486C42.5402 13.5938 41.4604 16.2036 40.3072 18.9826C41.0784 18.9385 41.8717 18.8797 42.6797 18.8135L44.9348 11.1163Z" fill="white"/>
<path d="M38.0155 34.7295C37.2369 34.7516 36.4583 34.7663 35.7017 34.7663C35.0479 34.7663 34.4089 34.7589 33.7845 34.7369C32.7635 37.2071 31.7425 39.6699 30.7508 42.0812C32.2787 42.2062 33.9608 42.2724 35.8045 42.2724L38.0155 34.7222V34.7295Z" fill="white"/>
<path d="M39.2201 30.62L41.4604 22.9889C40.4908 23.0551 39.5286 23.1065 38.5884 23.1359C37.5674 25.5914 36.517 28.1351 35.4519 30.7008C36.6418 30.7008 37.8979 30.6788 39.2201 30.62Z" fill="white"/>
<path d="M34.6146 46.3238C32.6827 46.2943 30.8464 46.1914 29.1349 46.0076C28.1212 48.4705 27.1516 50.8377 26.2408 53.0579C27.9449 53.3961 30.0163 53.6534 32.433 53.771L34.6146 46.3238Z" fill="white"/>
<path d="M48.1962 0.00656825C48.1962 0.00656825 47.0797 2.69072 45.2947 6.98412C45.5885 6.94736 45.8824 6.91795 46.1835 6.88119L48.2035 0L48.1962 0.00656825Z" fill="white"/>
<path d="M74.1184 72.2375C74.0302 72.3184 73.9348 72.3919 73.8393 72.4654C73.8907 73.9284 73.6997 75.509 72.9505 76.8764C71.9735 78.6703 70.1592 79.8318 67.5589 80.3317C66.8611 80.4641 66.2735 80.6993 65.7299 80.9713C66.1413 80.8464 66.5746 80.7434 67.0668 80.6993C69.6964 80.4641 71.6209 79.4863 72.7742 77.8028C73.9127 76.1413 74.1698 74.024 74.1184 72.2375Z" fill="black"/>
<path d="M22.6269 85.4175C22.8693 85.0793 23.1778 84.5059 23.4275 83.9912C23.31 83.9398 23.1998 83.8883 23.0823 83.8368C22.4285 83.5354 21.7528 83.2267 21.099 82.8664C20.482 82.5283 20.2322 81.5505 20.2249 80.2786C20.0339 80.1536 19.8429 80.0434 19.652 79.911C19.1965 79.5949 18.888 79.1538 18.675 78.6465C18.4326 81.0432 18.675 83.3958 20.3057 84.2927C21.0109 84.6823 21.7528 85.0205 22.3992 85.3145C22.4726 85.3439 22.5461 85.3807 22.6122 85.4101L22.6269 85.4175Z" fill="black"/>
<path d="M58.1199 84.1917C55.6959 83.9711 54.146 85.9561 52.7724 87.7132C52.7577 87.7352 52.7357 87.7573 52.721 87.7793C52.699 87.8087 52.6843 87.8381 52.6623 87.8675C51.7588 89.2938 51.1344 90.2274 50.5394 90.0804C50.51 90.0731 50.4733 90.0657 50.4366 90.0583C49.8857 90.3671 49.2834 90.4701 48.6076 90.2348C47.9832 90.0142 47.0503 89.801 45.9706 89.6246C42.1656 89.4996 37.4499 89.8084 36.1938 91.1538C30.075 97.7115 28.2387 98.873 25.609 97.8438C24.61 97.4542 24.2575 96.6896 24.1546 96.0132C23.7286 95.8515 23.3393 95.6383 22.8325 95.381C22.5754 95.2486 22.3477 95.109 22.1273 94.9546C22.0832 95.3295 22.0538 95.6824 22.0685 95.9765C22.1199 97.3953 23.2218 98.6598 25.0214 99.3583C26.1746 99.8067 26.7255 100.123 28.3856 99.9537C31.1695 99.6744 34.1885 95.506 37.3544 92.2859C38.537 91.0802 47.3001 90.9626 50.1501 91.6537C51.9057 92.0801 52.9855 90.3745 54.0285 88.7277C55.2185 86.8457 56.5627 84.7137 58.994 84.6916C62.4096 84.6549 64.1211 83.6918 65.4947 82.9125C65.7739 82.7581 66.0383 82.6111 66.3027 82.4714C65.7738 82.6184 65.2817 82.8243 64.7455 83.0595C63.2984 83.6918 61.4988 84.4858 58.1052 84.177L58.1199 84.1917Z" fill="black"/>
<path d="M22.5461 92.8884C22.7298 93.2854 23.053 93.653 23.5892 93.9324C23.8022 94.0427 24.0152 94.1309 24.2209 94.2044C24.3678 93.0061 24.7498 91.4475 25.6312 89.7199C26.1307 88.7421 26.5861 87.235 26.4392 86.5072C26.2923 85.7794 25.7414 85.25 24.9775 84.7869C24.8012 85.1692 24.6028 85.5367 24.4045 85.8455C24.3237 85.9705 24.2576 86.0881 24.1842 86.2131C24.5441 86.4337 24.8012 86.6395 24.8379 86.8233C24.8599 86.9483 24.0373 89.3082 23.6333 89.7346C23.4349 89.9404 22.9281 91.3666 22.5461 92.8884Z" fill="black"/>
<path d="M21.503 73.4147L23.5671 73.2088C22.8546 72.7457 22.2449 72.2605 21.7454 71.7532L20.9228 71.8341C20.0266 74.5395 19.5271 77.3405 20.3645 78.3624C20.5775 76.7377 21.0109 74.9438 21.503 73.4147Z" fill="black"/>
<path d="M69.5641 51.6308C70.4309 53.7408 71.2389 55.7257 71.9808 57.5489C72.539 58.9164 73.0532 60.1882 73.5233 61.3498C74.4048 63.5406 75.1173 65.3123 75.5874 66.5327C76.0208 67.6428 76.2558 68.2971 76.2558 68.3927C76.2558 67.8487 86.2823 39.2138 86.2823 39.2138L67.3311 46.2126C67.5588 46.764 67.7865 47.3154 68.0069 47.8594C68.5358 49.1533 69.0573 50.4104 69.5568 51.6308H69.5641Z" fill="black"/>
<path d="M67.3385 46.2132C66.7142 44.6988 66.0825 43.1549 65.4287 41.589C60.8966 43.0961 55.6666 44.3312 50.1576 45.1766C47.2855 45.6177 44.4502 45.9338 41.7177 46.125L40.6526 53.6972C43.3704 53.5281 46.3306 53.2194 49.5332 52.7268C51.0464 52.4916 52.5301 52.2343 53.9845 51.9475C59.2365 50.9036 64.0625 49.5068 68.007 47.8747C67.7866 47.3307 67.5589 46.7793 67.3312 46.2279L67.3385 46.2132Z" fill="white"/>
<path d="M27.9743 57.4459C26.7769 57.2916 25.6898 57.0931 24.6762 56.8652C23.6625 59.35 22.7737 61.5408 22.0612 63.3273C23.141 63.8713 24.7863 64.3712 26.9459 64.7535C27.6217 64.8712 28.3415 64.9741 29.1201 65.0697L31.265 57.7621C30.1265 57.6885 29.0247 57.5856 27.9816 57.4459H27.9743Z" fill="white"/>
<path d="M41.7177 57.6868C41.4312 57.8265 40.087 57.7897 40.087 57.7897L39.9842 58.5102L39.0219 65.3547C42.1658 65.215 45.6842 64.8841 49.5406 64.296C57.3708 63.0977 64.5767 61.0907 69.8213 58.6572C70.6293 58.2823 71.3345 57.9147 71.9809 57.5618C71.239 55.7386 70.4236 53.7537 69.5642 51.6437C64.2241 53.8419 57.4369 55.6431 50.1649 56.7532C47.2855 57.1943 44.4575 57.5104 41.7177 57.7015V57.6868Z" fill="white"/>
<path d="M75.6314 70.5102C75.5433 70.6572 75.4551 70.7969 75.3449 70.9366C75.0144 71.385 74.6032 71.8185 74.1184 72.2375C74.1625 74.024 73.9127 76.1339 72.7742 77.8028C71.6209 79.4863 69.6964 80.4641 67.0668 80.6993C66.582 80.7434 66.1413 80.8464 65.7299 80.9713C65.1496 81.1478 64.6206 81.3686 64.1138 81.5892C62.7034 82.2067 61.249 82.8463 58.2741 82.5743C54.976 82.2729 52.9634 84.8386 51.4943 86.7133C50.4513 88.044 49.7388 88.9041 49.1658 88.7056C46.6977 87.8308 36.8842 86.5001 34.7908 88.338C28.6206 93.7489 26.4684 95.0134 24.2281 94.2121C24.015 94.1385 23.8094 94.0503 23.5964 93.94C23.0601 93.668 22.7443 93.2931 22.5533 92.8961C22.355 92.4771 22.3109 92.0286 22.3329 91.6537C22.4064 90.5583 22.8104 88.5145 24.1987 86.2134C24.2721 86.0884 24.3382 85.9708 24.419 85.8458C24.6174 85.537 24.8157 85.1695 24.992 84.7872C25.3446 84.03 25.5943 83.2213 25.5502 82.7287C25.4254 81.4568 24.0591 80.6629 22.4798 79.7366C21.8555 79.3763 21.2164 79.0014 20.5994 78.575C20.5186 78.5162 20.4452 78.4427 20.3791 78.3618C19.549 77.3399 20.0412 74.5389 20.9373 71.8335C21.0181 71.5909 21.0989 71.3483 21.1871 71.1057C20.6802 70.4587 20.3497 69.7897 20.2175 69.106C19.2625 71.385 17.6098 76.0534 18.6969 78.6485C18.91 79.1631 19.2185 79.5969 19.6739 79.913C19.8649 80.0453 20.0559 80.163 20.2468 80.2806C20.7316 80.5894 21.2164 80.8834 21.6572 81.1407C22.6488 81.7215 23.8828 82.442 23.9269 82.8831C23.9269 82.9419 23.7212 83.4345 23.4421 83.9932C23.185 84.5078 22.8765 85.0812 22.6414 85.4194C22.568 85.5297 22.4945 85.6106 22.4358 85.662C22.0612 85.9855 20.3864 89.8304 20.2615 91.7198C20.1807 92.9255 20.8859 94.0944 22.1566 94.9619C22.377 95.109 22.6121 95.256 22.8618 95.3883C23.3686 95.6456 23.758 95.8662 24.184 96.0206C24.6835 96.2044 25.2491 96.3146 26.1526 96.3146C28.9512 96.3146 32.3668 92.4697 35.8412 89.5805C36.8475 88.7424 42.2978 89.007 45.9999 89.6246C47.0797 89.801 48.0126 90.0142 48.6369 90.2348C49.3054 90.47 49.9077 90.3671 50.466 90.0583C51.3033 89.5952 52.0305 88.6836 52.743 87.772C52.7577 87.7499 52.7798 87.7279 52.7944 87.7058C54.168 85.9487 55.7179 83.9638 58.1419 84.1843C61.5429 84.4931 63.3425 83.7065 64.7822 83.0669C65.3184 82.8316 65.8106 82.6258 66.3394 82.4787C66.6259 82.3979 66.9124 82.3391 67.2282 82.3097C70.3721 82.0229 72.6932 80.8173 74.1329 78.7073C75.9179 76.0975 75.9179 72.723 75.6461 70.5028L75.6314 70.5102Z" fill="white"/>
<path d="M21.7161 67.5769C21.65 67.5548 21.5839 67.5328 21.5251 67.5034C21.1946 67.371 20.8787 67.2387 20.5775 67.099C20.2837 67.8636 20.1295 68.3121 20.1295 68.3856C20.1295 68.6282 20.1589 68.8634 20.2103 69.0987C20.3498 69.7897 20.6804 70.4588 21.1799 71.0984C21.3488 71.3189 21.5398 71.5321 21.7455 71.7379C22.245 72.2452 22.8546 72.7304 23.5671 73.1936C24.3604 73.7082 25.2786 74.1934 26.2996 74.6492L27.3133 71.1719L27.8936 69.1869L27.945 69.0031C25.4623 68.6796 23.3835 68.1944 21.7014 67.5548L21.7161 67.5769Z" fill="white"/>
<path d="M73.5306 61.3475C72.9062 61.6784 72.2525 62.0092 71.5473 62.34C66.9417 64.4794 60.9626 66.2952 54.4104 67.5744C53.0222 67.8465 51.6045 68.0964 50.1721 68.3096C47.5645 68.7066 44.9936 69.008 42.4961 69.1992C41.1226 69.3094 39.7783 69.383 38.4635 69.4271L38.3754 70.074L38.1403 71.7355L37.4058 76.9699C40.9536 76.889 45.0156 76.5509 49.5551 75.8524C57.3853 74.6541 64.5912 72.6471 69.8358 70.2137C70.5777 69.8682 71.2388 69.53 71.8412 69.1992C72.3186 68.9419 72.752 68.6845 73.1486 68.4346C73.6261 68.1332 74.0374 67.8465 74.4047 67.5671C74.4561 67.5303 74.5002 67.4936 74.5443 67.4568C74.9703 67.126 75.3229 66.8099 75.602 66.5231C75.1246 65.3028 74.4194 63.5237 73.5379 61.3402L73.5306 61.3475Z" fill="white"/>
<path d="M37.2957 77.6328C37.2957 77.6328 37.2516 77.6328 37.1928 77.6181C37.2296 77.6181 37.2663 77.6328 37.2957 77.6328Z" fill="black"/>
<path d="M36.8549 77.5587C36.2526 77.4632 35.092 77.2573 33.7331 76.9779C34.7321 77.1911 35.7751 77.3823 36.8549 77.5587Z" fill="black"/>
<path d="M33.6377 76.9647C33.6377 76.9647 33.6451 76.9647 33.6524 76.9647C33.6524 76.9647 33.6451 76.9647 33.6377 76.9647Z" fill="black"/>
<path d="M74.5737 67.5775C74.559 67.5408 74.5516 67.504 74.5369 67.4672C74.4929 67.504 74.4415 67.5408 74.3974 67.5775H74.5737Z" fill="black"/>
<path d="M75.5947 66.5318C75.3155 66.8185 74.963 67.1346 74.5369 67.4654C74.5516 67.5022 74.559 67.539 74.5737 67.5757H74.3974C74.0301 67.8551 73.6188 68.1418 73.1413 68.4432C72.7446 68.6932 72.3113 68.9505 71.8338 69.2078C71.2315 69.5386 70.5704 69.8768 69.8285 70.2223C64.5839 72.6557 57.378 74.6628 49.5478 75.8611C45.0083 76.5595 40.9463 76.8977 37.3984 76.9785L37.3029 77.6328C40.6524 78.1401 44.3325 78.4121 48.1962 78.4121C54.7116 78.4121 60.7055 77.6181 65.4727 76.2875C68.1097 75.5523 70.3647 74.6554 72.1276 73.6335C72.7667 73.2586 73.3396 72.8689 73.8465 72.4646C73.9419 72.3911 74.0374 72.3102 74.1256 72.2367C74.6177 71.8176 75.0291 71.3839 75.3523 70.9354C75.4551 70.7958 75.5506 70.6487 75.6387 70.509C76.0501 69.8253 76.2705 69.1196 76.2705 68.3918C76.2705 68.3035 76.0281 67.6419 75.602 66.5318H75.5947Z" fill="black"/>
<path d="M22.0612 63.3341C21.4148 64.9441 20.908 66.2307 20.5774 67.1055C20.8786 67.2452 21.1944 67.3775 21.525 67.5099C21.5837 67.5319 21.6499 67.554 21.716 67.5834C23.3981 68.2156 25.4768 68.7008 27.9596 69.0317L28.3856 67.5834L29.1202 65.0764C28.3489 64.9882 27.6217 64.878 26.9459 64.7603C24.7864 64.3854 23.141 63.8781 22.0612 63.3341Z" fill="black"/>
<path d="M39.0292 65.3415L38.7133 67.5691L38.4856 69.2012L38.4562 69.4291C39.771 69.385 41.1153 69.3114 42.4888 69.2012C44.9863 69.0027 47.5572 68.7086 50.1648 68.3116C51.5972 68.0911 53.0149 67.8411 54.4031 67.5764C60.9553 66.2972 66.9344 64.4814 71.54 62.342C72.2452 62.0112 72.9063 61.6806 73.5233 61.3498C73.0532 60.1882 72.539 58.9164 71.9808 57.5489C71.3417 57.9092 70.6292 58.2692 69.8212 58.6441C64.5766 61.0775 57.3707 63.0846 49.5405 64.2829C45.6841 64.871 42.173 65.2092 39.0218 65.3415H39.0292Z" fill="black"/>
<path d="M49.5478 52.7115C46.3452 53.2041 43.385 53.5129 40.6672 53.6819L40.0942 57.7842C40.6304 57.7548 41.174 57.7254 41.7249 57.6813C44.4574 57.4901 47.2928 57.174 50.1722 56.7329C57.4441 55.6154 64.2313 53.8216 69.5715 51.6235C69.072 50.4031 68.5578 49.146 68.0216 47.8521C64.0771 49.4768 59.2511 50.881 53.9991 51.9249C52.5447 52.2116 51.061 52.4763 49.5478 52.7042V52.7115Z" fill="black"/>
<path d="M24.6761 56.8719C25.6898 57.0998 26.7843 57.2983 27.9742 57.4527C29.0173 57.5924 30.1191 57.6879 31.2577 57.7688L32.4256 53.7768C30.0089 53.6519 27.9375 53.3946 26.2334 53.0637C25.6898 54.3944 25.1683 55.6736 24.6761 56.8793V56.8719Z" fill="black"/>
<path d="M42.3052 41.9919L41.7249 46.1088C44.4574 45.9177 47.2854 45.6016 50.1648 45.1605C55.6739 44.315 60.9039 43.0799 65.436 41.5728C64.9218 40.323 64.4003 39.0659 63.8788 37.7941C59.6331 39.1835 54.7337 40.3304 49.5478 41.1244C46.9769 41.5214 44.5676 41.7934 42.3052 41.9772V41.9919Z" fill="black"/>
<path d="M29.1349 46.0058C30.8463 46.1896 32.6827 46.2925 34.6145 46.3219L35.8045 42.2712C33.9608 42.2712 32.2787 42.205 30.7509 42.08C30.1999 43.4107 29.6637 44.7193 29.1349 46.0058Z" fill="black"/>
<path d="M61.1829 31.2873C60.6541 30.0154 60.1325 28.7436 59.611 27.4938C56.4672 28.3245 53.0736 29.0303 49.5478 29.567C47.5939 29.8684 45.7282 30.0963 43.9506 30.2727L43.3703 34.4117C45.5886 34.2206 47.8657 33.9486 50.1648 33.5957C54.0211 33.0076 57.7379 32.2209 61.1829 31.2873Z" fill="black"/>
<path d="M38.0155 34.7283L39.2201 30.6187C37.898 30.6775 36.6419 30.7069 35.4519 30.6995C34.8937 32.0376 34.3428 33.3903 33.7845 34.7356C34.4162 34.7503 35.0553 34.765 35.7017 34.765C36.4583 34.765 37.2295 34.7503 38.0155 34.7283Z" fill="black"/>
<path d="M42.68 18.819C41.872 18.8852 41.0787 18.944 40.3074 18.9881C39.7492 20.3335 39.1762 21.7156 38.5886 23.1345C39.5288 23.0977 40.4911 23.0536 41.4607 22.9875L42.68 18.819Z" fill="black"/>
<path d="M45.5959 18.5273L45.0157 22.6883C46.7124 22.5119 48.4313 22.2913 50.1648 22.0267C52.4419 21.6738 54.6749 21.2621 56.8271 20.7842C56.2835 19.4756 55.7547 18.1964 55.2405 16.9614C53.3968 17.351 51.487 17.7039 49.5478 17.9979C48.1889 18.2038 46.874 18.3802 45.5959 18.5273Z" fill="black"/>
<path d="M46.1763 6.88671C45.8752 6.92347 45.5813 6.95288 45.2875 6.98964C44.7513 8.27619 44.1563 9.70977 43.5173 11.2536C43.9874 11.2095 44.4575 11.1654 44.9349 11.1213L46.1763 6.88671Z" fill="black"/>
<path d="M52.3831 10.0862C51.8028 8.68204 51.2592 7.38768 50.7818 6.22611C50.3705 6.29227 49.9591 6.35844 49.5478 6.4246C48.7691 6.54223 48.0052 6.65251 47.2486 6.74808L46.661 10.9243C47.8216 10.7846 48.9895 10.6302 50.1648 10.4464C50.914 10.3288 51.6486 10.2112 52.3905 10.0789L52.3831 10.0862Z" fill="black"/>
<path d="M33.7332 76.9794C33.7332 76.9794 33.6745 76.9647 33.6524 76.9647C33.6818 76.9647 33.7039 76.9794 33.7332 76.9794Z" fill="white"/>
<path d="M37.1927 77.6099C37.0825 77.5952 36.9723 77.5732 36.8621 77.5585C37.0091 77.5805 37.1192 77.6026 37.1927 77.6099Z" fill="white"/>
<path d="M37.303 77.6315C37.303 77.6315 37.303 77.6315 37.2955 77.6315H37.303Z" fill="white"/>
<path d="M46.1763 6.88671L44.9349 11.1213L28.3856 67.582L27.9595 69.0303L27.9081 69.2141L27.3278 71.1991L26.3142 74.6764C27.7979 75.6248 31.0593 76.4408 33.6449 76.9775C33.6449 76.9775 33.6523 76.9775 33.6596 76.9775C33.689 76.9775 33.7184 76.9922 33.7404 76.9922C35.0993 77.2716 36.2599 77.4701 36.8622 77.573C36.9724 77.5877 37.0826 77.6098 37.1928 77.6245C37.2515 77.6318 37.2882 77.6392 37.2956 77.6392C37.2956 77.6392 37.2956 77.6392 37.3029 77.6392L37.3984 76.9849L38.133 71.7504L38.368 70.089L38.4562 69.442L38.4855 69.2141L38.7133 67.582L39.0291 65.3545L39.9914 58.51L40.0942 57.7896L48.2036 0.0199038L46.1836 6.9011L46.1763 6.88671Z" fill="white"/>
<path d="M67.221 9.26341C66.0604 6.33008 67.5589 4.65389 67.5589 4.65389L64.8264 4.14663H64.8191C64.8191 4.14663 63.5409 6.38154 64.562 9.2487C65.583 12.1159 64.1947 14.2258 64.1947 14.2258L66.8317 14.7772C66.8317 14.7772 68.6901 12.9613 67.221 9.26341Z" fill="white"/>
<path d="M17.1178 29.3332C19.5344 31.1711 19.5344 33.7001 19.5344 33.7001L22.0466 32.7149C22.0466 32.7149 22.6048 30.1786 19.3508 27.8849C16.7725 26.069 17.1104 23.8414 17.1104 23.8414L14.5469 24.9148C14.5469 24.9148 14.7011 27.4879 17.1178 29.3332Z" fill="black"/>
<path d="M79.429 32.5248C75.5653 27.6065 79.3702 25.5333 79.3702 25.5333C68.1758 23.144 64.9731 29.8561 64.9731 29.8561C73.3102 25.9818 79.429 32.5321 79.429 32.5321V32.5248Z" fill="white"/>
</svg>
