<svg width="100" height="100" viewBox="0 0 100 100" fill="none" xmlns="http://www.w3.org/2000/svg">
<g clip-path="url(#clip0_15980_6530)">
<rect width="100" height="100" fill="#9DE7DE"/>
<path d="M93.5438 82.9654L77.5229 46.6439C77.1582 45.814 76.2646 45.2395 75.4075 45.2395C75.289 45.2395 75.1795 45.2486 75.061 45.276L5.65264 59.9305C4.69522 60.122 4.26666 61.043 4.6861 61.9914L20.8802 98.5956C21.2449 99.4255 22.1476 100 23.0047 100C23.1233 100 23.2509 99.9909 23.3695 99.9635L92.6137 85.0081C93.5529 84.8166 93.9723 83.8956 93.562 82.9563L93.5438 82.9654Z" fill="black"/>
<path d="M93.5438 81.8077L77.5229 45.4862C77.1582 44.6563 76.2646 44.0818 75.4075 44.0818C75.289 44.0818 75.1795 44.0909 75.061 44.1183L5.65264 58.7819C4.69522 58.9734 4.26666 59.8944 4.6861 60.8428L20.8802 97.4471C21.2449 98.2769 22.1476 98.8514 23.0047 98.8514C23.1233 98.8514 23.2509 98.8423 23.3695 98.8149L92.6137 83.8595C93.5529 83.668 93.9723 82.747 93.562 81.8077H93.5438Z" fill="#9DE7DE"/>
<path d="M18.1277 91.2356L90.7822 75.5507L87.3902 67.845L14.7175 83.53L18.1277 91.2356Z" fill="black"/>
<path d="M87.818 19.542C87.818 19.542 90.2252 27.5304 100 29.7373C100 29.7373 92.5959 31.0139 92.4501 39.9051C92.4501 39.9051 89.8422 32.1994 80.4778 29.7281C80.4778 29.7281 88.3012 28.798 87.818 19.542Z" fill="white"/>
<path d="M5.3342 33.6696C5.3342 33.6696 7.08491 39.4785 14.1972 41.0926C14.1972 41.0926 8.80826 42.0227 8.70796 48.4882C8.70796 48.4882 6.81136 42.8799 0 41.0835C0 41.0835 5.69893 40.4086 5.34331 33.6696H5.3342Z" fill="white"/>
<path d="M43.9961 73.2453C43.9961 73.2453 45.7468 79.0542 52.859 80.6683C52.859 80.6683 47.4701 81.5984 47.3698 88.0639C47.3698 88.0639 45.4732 82.4556 38.6619 80.6591C38.6619 80.6591 44.3608 79.9843 44.0052 73.2453H43.9961Z" fill="white"/>
<path d="M78.5533 39.5224C77.2767 37.352 75.5169 35.6285 73.3012 34.3518C71.0763 33.0751 68.6326 32.4368 65.961 32.4368C63.2893 32.4368 60.7544 33.0751 58.5387 34.3518C56.3138 35.6285 54.5449 37.3611 53.241 39.5224C51.937 41.6927 51.2805 44.0546 51.2805 46.6171C51.2805 47.4652 51.3535 48.295 51.4994 49.0975L37.5666 52.043L79.9484 5.89097L78.6354 1.23108H69.5444L26.5882 54.3592L5.65264 58.7819C4.69522 58.9734 4.26666 59.8944 4.6861 60.8428L7.36688 66.8981L30.5456 67.0166L31.8221 63.2686L43.0102 62.8674C55.6482 69.3876 66.6995 68.3207 66.6995 68.3207C61.493 65.211 58.3198 61.1621 56.3776 57.4233C57.0524 57.9887 57.7545 58.5176 58.5478 58.9644C60.7727 60.2411 63.2528 60.8794 65.9701 60.8794C68.6873 60.8794 71.0854 60.2411 73.3103 58.9644C75.5352 57.6877 77.2859 55.9642 78.5624 53.7938C79.839 51.6235 80.4773 49.2343 80.4773 46.6171C80.4773 43.9999 79.839 41.6927 78.5624 39.5224H78.5533ZM70.8757 51.66C69.5353 52.9731 67.9032 53.6206 65.9518 53.6206C64.0005 53.6206 62.2681 52.9549 60.9003 51.6144C59.5326 50.283 58.8578 48.6142 58.8578 46.608C58.8578 44.6017 59.5326 42.9694 60.9003 41.6836C62.2589 40.4069 63.9458 39.7686 65.9518 39.7686C67.9579 39.7686 69.5353 40.4069 70.8757 41.6836C72.207 42.9603 72.8726 44.6017 72.8726 46.608C72.8726 48.6142 72.207 50.3468 70.8757 51.66ZM27.3268 26.5094C29.5517 27.786 32.0318 28.4244 34.7491 28.4244C37.4663 28.4244 39.9465 27.786 42.1714 26.5094C44.3962 25.2327 46.1469 23.4909 47.4235 21.2932C48.7001 19.0955 49.3383 16.688 49.3383 14.0708C49.3383 11.4536 48.7001 9.14651 47.4235 6.97615C46.1469 4.80579 44.3871 3.09139 42.1714 1.84207C40.4024 0.848081 38.4693 0.255336 36.3904 0.0547148L35.1685 7.2406C36.9831 7.32268 38.5149 7.9519 39.7641 9.1465C41.0954 10.4232 41.761 12.0646 41.761 14.0708C41.761 16.0771 41.0954 17.8097 39.7641 19.1229C38.4237 20.436 36.7551 21.0835 34.7582 21.0835C32.7613 21.0835 31.1747 20.4178 29.8343 19.0773C28.5031 17.7459 27.8374 16.0771 27.8374 14.0708C27.8374 12.0646 28.4848 10.4323 29.7979 9.1465C30.5364 8.42609 31.3844 7.91542 32.3419 7.59625L33.6367 0C32.7704 0.0547149 31.9224 0.182383 31.1109 0.373885L29.1869 9.54775L24.7281 8.60848L25.9591 2.72662C24.3816 3.8574 23.0777 5.27087 22.0838 6.96703C20.8072 9.13739 20.1689 11.4992 20.1689 14.0617C20.1689 16.6242 20.8072 19.0864 22.0838 21.2841C23.3603 23.4818 25.1111 25.2144 27.3359 26.5002L27.3268 26.5094Z" fill="black"/>
<path d="M20.7537 11.9092C22.0941 9.63851 23.9269 7.85116 26.252 6.538C28.5772 5.22484 31.1668 4.57738 34.0208 4.57738C36.8748 4.57738 39.4644 5.23396 41.7896 6.538C44.1147 7.85116 45.9475 9.63851 47.2879 11.9092C48.6283 14.1798 49.2939 16.6511 49.2939 19.3322C49.2939 22.0132 48.6283 24.5848 47.2879 26.8828C45.9475 29.1808 44.1147 31.0047 41.7896 32.3361C39.4553 33.6766 36.8748 34.3423 34.0208 34.3423C31.1668 34.3423 28.5772 33.6766 26.252 32.3361C23.9178 30.9956 22.085 29.1808 20.7537 26.8828C19.4133 24.5848 18.7477 22.0679 18.7477 19.3322C18.7477 16.5964 19.4133 14.1798 20.7537 11.9092ZM70.4392 5.89054H79.9587L30.5467 67.0162H21.0273L70.4392 5.89054ZM28.8781 24.5757C30.2732 25.9709 31.9966 26.6731 34.0299 26.6731C36.0633 26.6731 37.8687 25.9891 39.2729 24.6213C40.668 23.2534 41.361 21.4934 41.361 19.3413C41.361 17.1892 40.668 15.5295 39.2729 14.189C37.8778 12.8485 36.1271 12.1828 34.0299 12.1828C31.9327 12.1828 30.2003 12.8485 28.8325 14.189C27.4648 15.5295 26.7809 17.2439 26.7809 19.3413C26.7809 21.4387 27.4739 23.1804 28.869 24.5757H28.8781ZM53.3698 45.9692C54.7376 43.6985 56.5886 41.8929 58.9137 40.5524C61.2389 39.2119 63.8285 38.5462 66.6825 38.5462C69.5365 38.5462 72.0349 39.2119 74.3692 40.5524C76.6944 41.8929 78.5271 43.6985 79.8675 45.9692C81.2079 48.2399 81.8736 50.7111 81.8736 53.3922C81.8736 56.0732 81.2079 58.6266 79.8675 60.9064C78.5271 63.177 76.6944 64.9826 74.3692 66.314C72.0349 67.6545 69.4818 68.3202 66.6825 68.3202C63.8832 68.3202 61.2389 67.6545 58.9137 66.314C56.5794 64.9735 54.7376 63.1679 53.3698 60.9064C52.0021 58.6357 51.3182 56.137 51.3182 53.3922C51.3182 50.6473 52.0021 48.2399 53.3698 45.9692ZM61.403 58.6266C62.8255 60.0218 64.5853 60.724 66.6825 60.724C68.7797 60.724 70.4392 60.04 71.8343 58.6722C73.2294 57.3043 73.9224 55.5443 73.9224 53.3922C73.9224 51.2401 73.2294 49.5804 71.8343 48.2399C70.4392 46.8993 68.7159 46.2337 66.6825 46.2337C64.6491 46.2337 62.8255 46.8993 61.403 48.2399C59.9714 49.5804 59.2693 51.2948 59.2693 53.3922C59.2693 55.4896 59.9806 57.2313 61.403 58.6266Z" fill="white"/>
</g>
<defs>
<clipPath id="clip0_15980_6530">
<rect width="100" height="100" fill="white"/>
</clipPath>
</defs>
</svg>
