<svg width="100" height="100" viewBox="0 0 100 100" fill="none" xmlns="http://www.w3.org/2000/svg">
<g clip-path="url(#clip0_15980_6579)">
<rect width="100" height="100" fill="#9DE7DE"/>
<path d="M96.7887 44.0475C92.3359 45.3833 80.8871 47.2535 70.7445 44.0475C69.2107 45.5218 67.5879 47.6592 67.5879 50.1528L73.9506 62.69C73.9506 62.69 74.0495 62.6703 74.0891 62.6604L77.1566 61.8193C77.1566 61.8193 82.124 60.3152 86.7649 64.6988C89.496 67.0538 91.8312 70.7744 93.078 75.2867C93.9785 78.562 94.1764 81.7779 93.7806 84.5981C98.4511 83.2523 99.9453 81.0457 99.9453 79.6603V50.1528C99.9453 47.6691 98.3225 45.5218 96.7887 44.0475Z" fill="black"/>
<path d="M70.4675 36.0217V41.9589C70.4675 43.3937 76.4244 44.5613 83.7667 44.5613C91.1089 44.5613 97.0658 43.3937 97.0658 41.9589V36.0217H70.4675Z" fill="black"/>
<path d="M83.7667 38.6249C91.1089 38.6249 97.0658 37.4565 97.0658 36.0217C97.0658 34.5869 91.1089 33.42 83.7667 33.42C76.4244 33.42 70.4675 34.5869 70.4675 36.0217C70.4675 37.4565 76.4244 38.6249 83.7667 38.6249Z" fill="white"/>
<path d="M78.8285 36.982L87.2098 34.5774L88.8524 34.7358L80.5008 37.1799L78.8384 36.982H78.8285Z" fill="black"/>
<path d="M96.9275 47.3519C96.9275 47.3519 98.1347 51.4782 87.2697 53.9916C87.2697 53.9916 101.885 53.5859 96.9275 47.3519Z" fill="white"/>
<path d="M13.7792 44.4029V49.0636C13.7792 50.1916 18.4497 51.102 24.2186 51.102C29.9875 51.102 34.6581 50.1817 34.6581 49.0636V44.4029H13.7792Z" fill="black"/>
<path d="M24.2186 46.4511C29.9875 46.4511 34.6581 45.5407 34.6581 44.4127C34.6581 43.2846 29.9875 42.3743 24.2186 42.3743C18.4497 42.3743 13.7792 43.2846 13.7792 44.4127C13.7792 45.5407 18.4497 46.4511 24.2186 46.4511Z" fill="white"/>
<path d="M20.3503 45.1655L26.9207 43.2854L28.2071 43.4042L21.6565 45.3238L20.3503 45.1655Z" fill="black"/>
<path d="M11.5236 55.4959C11.5236 53.5465 12.8001 51.8644 14.0073 50.7066C21.973 53.22 30.9578 51.7555 34.4509 50.7066C35.6581 51.8644 36.9346 53.5465 36.9346 55.4959V78.6507C36.9346 80.3032 34.2826 83.44 24.2291 83.44C14.1755 83.44 11.5236 80.3032 11.5236 78.6507V55.4959Z" fill="black"/>
<path d="M34.5586 53.2989C34.5586 53.2989 35.4986 56.5446 26.9789 58.5038C26.9789 58.5038 38.4474 58.1872 34.5586 53.2989Z" fill="white"/>
<path d="M14.0368 4.36719C14.0368 4.36719 16.3721 12.1151 25.8517 14.2525C25.8517 14.2525 18.6678 15.4894 18.5293 24.1082C18.5293 24.1082 15.9961 16.6373 6.92217 14.2426C6.92217 14.2426 14.5118 13.3422 14.0368 4.36719Z" fill="white"/>
<path d="M5.11062 59.8987C5.11062 59.8987 6.8126 65.5291 13.7096 67.0925C13.7096 67.0925 8.48489 67.993 8.38594 74.2666C8.38594 74.2666 6.54543 68.8242 -0.0546875 67.0826C-0.0546875 67.0826 5.46685 66.4296 5.13041 59.8987H5.11062Z" fill="white"/>
<path d="M34.2738 20.9711V29.9065C34.2738 32.0736 43.229 33.825 54.282 33.825C65.3349 33.825 74.2901 32.0637 74.2901 29.9065V20.9711H34.2738Z" fill="black"/>
<path d="M54.2725 24.8892C65.3254 24.8892 74.2806 23.1378 74.2806 20.9806C74.2806 18.8235 65.3254 17.0621 54.2725 17.0621C43.2195 17.0621 34.2643 18.8136 34.2643 20.9806C34.2643 23.1477 43.2195 24.8892 54.2725 24.8892Z" fill="white"/>
<path d="M46.85 22.4258L59.4466 18.8141L61.9105 19.0516L49.3436 22.7227L46.8401 22.4258H46.85Z" fill="black"/>
<path d="M36.7863 35.8736C36.7863 35.8736 33.3923 38.5849 33.3923 44.4627V59.5924C33.3923 59.5924 34.1839 46.9563 44.9202 47.4015C44.9202 47.4015 32.6105 45.8183 36.7863 35.8736Z" fill="#F3F3F5"/>
<path d="M74.0812 38.0208C74.0812 38.0208 75.892 44.235 59.5451 48.0051C59.5451 48.0051 81.5323 47.4015 74.0812 38.0208Z" fill="#F3F3F5"/>
<path d="M66.215 74.3163C66.5217 68.5474 69.0846 63.9659 73.201 62.8378C73.4978 62.7587 73.7947 62.6993 74.0915 62.6597L77.1591 61.8186C77.1591 61.8186 77.7132 61.6504 78.6137 61.591V42.2261C78.6137 38.4857 76.1695 35.2598 73.864 33.0532C67.1649 35.0619 49.9472 37.8821 34.6789 33.0532C32.3733 35.2697 29.9292 38.4857 29.9292 42.2261V86.616C29.9292 89.7924 35.0153 95.7988 54.2714 95.7988C60.5054 95.7988 65.2452 95.1655 68.8174 94.2057C67.7289 92.1079 67.254 90.4158 67.254 90.4158C65.6014 83.7068 65.6707 78.2546 66.2051 74.3064L66.215 74.3163Z" fill="white"/>
<path d="M66.1837 75.0785C66.3024 68.9534 68.895 64.0058 73.1994 62.8382C73.4962 62.759 73.7922 62.6999 74.0891 62.6604L74.3176 62.6007C74.4066 61.7497 74.2285 61.0075 73.7337 60.4831L72.8827 59.6024C71.8141 58.4843 69.647 58.7613 67.6383 60.1071C67.6185 60.018 67.5888 59.9389 67.5591 59.8597L67.0841 58.7316C66.3519 56.9901 63.3833 56.5745 60.4346 57.8015C59.8211 58.0588 59.2669 58.3655 58.7623 58.7119C58.5545 58.5832 58.3467 58.4645 58.129 58.3556C56.6843 57.6135 55.2099 57.2968 53.9829 57.3859L53.6662 56.6734C52.8944 54.9517 49.9159 54.5954 46.9968 55.8917C44.8694 56.8417 43.3653 58.4051 43.019 59.8498C42.5638 59.741 42.0987 59.6519 41.604 59.6123C38.4276 59.3254 35.7163 60.6216 35.5481 62.5017L35.4986 63.0262C33.4107 64.3818 32.3024 66.3312 32.9357 67.7759L33.4305 68.894C33.6185 69.3294 33.9549 69.6758 34.3903 69.933L34.331 70.5564C34.2518 71.4173 34.7268 72.2485 35.5679 72.9313C33.9154 74.4947 33.2029 76.4045 33.9747 77.6711L34.6179 78.7101C34.6674 78.7893 34.7466 78.8486 34.8059 78.9278C34.7861 78.9377 34.7664 78.9476 34.7565 78.9674L33.9055 79.848C32.7279 81.0454 33.2227 83.4796 34.9544 85.5675C34.5685 86.0128 34.331 86.4877 34.331 86.9726C34.331 90.1589 43.2861 92.7316 54.3391 92.7316C59.4351 92.7316 64.076 92.1775 67.6086 91.277C67.4206 90.7427 67.3216 90.4161 67.3216 90.4161C65.778 84.1624 65.7384 78.9773 66.1738 75.1082L66.1837 75.0785Z" fill="black"/>
<path d="M72.8629 80.7978C70.4584 72.0801 73.0114 63.7583 78.5824 62.2146C84.1534 60.6808 90.615 66.4992 93.0294 75.2268C95.4339 83.9445 92.881 92.2664 87.31 93.81C81.739 95.3438 75.2774 89.5254 72.8629 80.7978Z" fill="white"/>
<path d="M72.8645 65.6882L68.3522 66.7074C69.5496 64.768 71.1922 63.3827 73.2009 62.8285L77.3965 61.7598C75.645 62.4723 73.9134 63.8477 72.8546 65.6882H72.8645Z" fill="black"/>
<path d="M67.3913 68.5971L71.9727 67.568C71.8144 68.0034 71.666 68.4487 71.5275 68.9039L66.9163 69.9428C67.0548 69.4778 67.2131 69.0325 67.3913 68.5971Z" fill="black"/>
<path d="M70.8945 72.664C70.6966 75.2961 70.9638 78.1855 71.7752 81.1244C74.3183 90.327 81.1757 96.462 87.1029 94.8392L82.4225 96.1751C76.4952 97.8177 69.618 91.6727 67.075 82.4603C66.2339 79.4126 65.9667 76.4242 66.2141 73.7129L70.8945 72.664Z" fill="black"/>
<path d="M90.9726 75.8507C88.8451 68.1324 83.2246 62.8978 78.2572 63.8577C78.4749 63.7686 78.7025 63.6795 78.9301 63.6202C84.0163 62.215 89.9237 67.5387 92.1303 75.5043C94.3271 83.47 91.9918 91.0794 86.9057 92.4746C86.7473 92.5241 86.5791 92.5538 86.4208 92.5835C91.032 90.7133 93.0704 83.4502 90.9627 75.8408H90.9726V75.8507Z" fill="black"/>
<path d="M75.3067 82.3413C74.9109 81.0846 74.6437 79.8279 74.5151 78.6009C75.2077 80.5404 76.2467 81.2627 76.8206 81.4309C77.4836 81.6288 78.1763 81.3518 78.1763 81.3518C80.3038 87.7837 83.678 89.5648 86.2409 89.4856C87.7351 89.4362 88.8038 88.5456 89.4371 87.8232C88.7048 89.5351 87.557 90.7918 86.0529 91.3163C82.1443 92.6818 77.3451 88.6544 75.3265 82.3314L75.3067 82.3413Z" fill="#9DE7DE"/>
</g>
<defs>
<clipPath id="clip0_15980_6579">
<rect width="100" height="100" fill="white"/>
</clipPath>
</defs>
</svg>
