<svg width="100" height="100" viewBox="0 0 100 100" fill="none" xmlns="http://www.w3.org/2000/svg">
<rect width="100" height="100" fill="#9DE7DE"/>
<path d="M30.8426 78.8588C32.6647 74.4909 33.5655 69.6821 33.5655 64.4222C33.5655 61.9204 33.1253 58.8034 32.2347 55.0814H23.8818V49.3806H30.6583C29.604 45.9867 28.8158 43.0132 28.2937 40.4704C27.7717 37.9173 27.5055 35.313 27.5055 32.6471C27.5055 27.6333 28.7749 23.1731 31.3237 19.246C33.8624 15.3293 37.4349 12.2738 42.0413 10.0898C46.6477 7.90587 51.9297 6.81901 57.9078 6.81901C62.2685 6.81901 66.3631 7.40345 70.2018 8.57233C74.0405 9.75146 77.2854 11.3817 79.9571 13.4837V31.5603C77.9405 28.8124 75.1869 26.5874 71.7168 24.8854C68.2466 23.1833 64.6946 22.3425 61.0606 22.3425C56.5361 22.3425 52.9431 23.5114 50.2816 25.8594C47.6201 28.2074 46.2894 31.3142 46.2894 35.2002C46.2894 37.6302 46.576 39.8142 47.139 41.7521C47.702 43.69 48.5926 46.243 49.8005 49.3908H73.0475V55.0917H51.4895C51.899 56.9475 52.0935 58.8136 52.0935 60.6695C52.0935 63.9915 51.6533 66.9342 50.7628 69.5283C49.8722 72.1224 48.4595 74.5832 46.5249 76.9312C48.0501 76.5314 49.7084 76.3263 51.4895 76.3263C53.2707 76.3263 55.0007 76.4903 56.4542 76.8082C57.9078 77.1363 59.648 77.6182 61.6646 78.2642C63.763 78.9101 65.5033 79.4023 66.875 79.7201C68.2466 80.038 69.823 80.202 71.6042 80.202C74.6649 80.202 77.1523 79.5561 79.0563 78.2642C80.9501 76.9723 82.547 75.0754 83.8368 72.5633C83.8368 80.4891 82.3627 86.272 79.4146 89.9119C76.4665 93.5519 71.8089 95.3667 65.4316 95.3667C62.852 95.3667 60.5488 95.2232 58.5322 94.9463C56.5156 94.6592 53.803 94.1978 50.4147 93.5519C47.5894 92.9879 45.2658 92.5676 43.4437 92.2805C41.6318 92.0036 39.6767 91.8601 37.568 91.8601C34.1797 91.8601 31.2111 92.1472 28.6725 92.7111C26.1236 93.275 23.4416 94.2081 20.6164 95.5C25.622 88.7841 29.0307 83.2473 30.8528 78.8794L30.8426 78.8588Z" fill="white"/>
<path d="M28.1809 21.931L22.0697 20.4647C21.5784 21.6234 21.1792 22.823 20.8721 24.0637L26.9218 25.5401C27.2494 24.2995 27.6691 23.0998 28.1809 21.931Z" fill="black"/>
<path d="M68.2157 47.8711L65.6566 47.0713H50.5373C50.6397 47.3379 50.7319 47.5942 50.8342 47.8711H68.2157Z" fill="black"/>
<path d="M22.3666 49.3871V47.8696H28.6211C27.8431 45.2345 27.2392 42.8558 26.8195 40.7743C26.2769 38.1495 26.0006 35.4118 26.0006 32.6434C26.0006 32.3051 26.021 31.977 26.0313 31.6489L20.1249 30.2134C20.1249 30.2134 20.1249 30.2852 20.1249 30.3262C20.1249 32.9921 20.3807 35.6067 20.913 38.1495C21.4351 40.6923 22.2233 43.6658 23.2776 47.0596H16.5011V52.7605L22.3768 54.6061V49.3769L22.3666 49.3871Z" fill="black"/>
<path d="M71.5939 78.6821C74.3373 78.6821 76.5586 78.1182 78.1862 77.0006C79.8036 75.8932 81.206 74.2322 82.3422 72.0893L76.4256 70.2334C75.1358 72.7455 73.5389 74.6423 71.6451 75.9342C70.0482 77.0211 68.0214 77.6466 65.5954 77.8209C66.1789 77.9747 66.7317 78.1182 67.2128 78.231C68.4719 78.5283 69.9459 78.6719 71.5939 78.6719V78.6821Z" fill="black"/>
<path d="M19.3981 94.5758C24.3014 87.9931 27.6794 82.5178 29.4503 78.2832C31.1803 74.1306 32.0606 69.4756 32.0606 64.431C32.0606 62.2983 31.7126 59.6734 31.037 56.6077H25.6321C25.9904 58.6789 26.1849 60.5347 26.1849 62.1137C26.1849 67.3737 25.284 72.1825 23.462 76.5504C21.6399 80.9183 18.2311 86.4551 13.2255 93.171L19.091 95.0064L19.4084 94.5758H19.3981Z" fill="black"/>
<path d="M77.2751 30.7174C75.5963 28.9539 73.5184 27.4466 71.0514 26.247C70.2325 25.8471 69.4033 25.4985 68.5741 25.1909C70.1198 26.3803 71.4506 27.7235 72.5561 29.2307L77.2649 30.7072L77.2751 30.7174Z" fill="black"/>
<path d="M29.3684 19.5826C29.5936 19.193 29.8188 18.8034 30.0645 18.424C32.7464 14.2817 36.5646 11.0211 41.3963 8.72437C46.1767 6.45838 51.7351 5.29976 57.9077 5.29976C58.3069 5.29976 58.6959 5.33052 59.0849 5.34077C56.3518 4.79735 53.4958 4.5 50.517 4.5C44.5389 4.5 39.2569 5.58685 34.6505 7.77081C30.0441 9.95477 26.4817 13.0103 23.9329 16.927C23.6769 17.3167 23.4517 17.7165 23.2265 18.1164L29.3684 19.5826Z" fill="black"/>
<path d="M49.9642 74.6952C49.9335 74.7465 49.9028 74.7977 49.8721 74.849C50.0768 74.8388 50.2918 74.8387 50.5067 74.8285C50.3225 74.7772 50.1484 74.7362 49.9744 74.6952H49.9642Z" fill="black"/>
<path d="M86.3241 48.3009C86.3241 48.3009 89.0265 57.2828 100 59.7641C100 59.7641 91.688 61.1996 91.5242 71.1966C91.5242 71.1966 88.5966 62.5325 78.0838 59.7539C78.0838 59.7539 86.8666 58.708 86.3241 48.3009Z" fill="white"/>
<path d="M5.73246 14.1388C5.73246 14.1388 7.61594 20.383 15.2421 22.1056C15.2421 22.1056 9.4585 23.1002 9.34589 30.0519C9.34589 30.0519 7.30883 24.0332 0 22.0953C0 22.0953 6.11121 21.3674 5.73246 14.1285V14.1388Z" fill="white"/>
</svg>
