<svg width="100" height="100" viewBox="0 0 100 100" fill="none" xmlns="http://www.w3.org/2000/svg">
<rect width="100" height="100" fill="#9DE7DE"/>
<path d="M23.1879 53.7155L36.6326 47.4921L27.9058 54.1182C27.9058 54.1182 24.6146 56.3152 26.4615 59.1774C26.4615 59.1774 23.4943 57.3305 23.1879 53.7155Z" fill="white"/>
<path d="M58.1347 3.70865C58.1347 3.70865 64.0342 2.57076 69.1723 3.21848C72.2884 3.60362 73.8814 4.96033 74.6867 6.15949C75.3519 7.14859 75.3344 8.43528 74.6517 9.40687L55.3075 36.9177L58.1259 3.70865H58.1347Z" fill="black"/>
<path d="M76.6124 10.3346C76.6124 10.3346 80.0348 11.5338 84.1663 14.6499C88.9279 18.2561 87.1685 22.1249 87.1685 22.1249L55.5263 36.1298L76.6124 10.3259V10.3346Z" fill="white"/>
<path d="M86.9722 24.7071C86.9722 24.7071 89.423 27.298 91.4362 32.0596C93.7557 37.5653 90.1757 39.3859 90.1757 39.3859L55.3212 36.9088L72.6959 28.9873L86.9722 24.6983V24.7071Z" fill="black"/>
<path d="M88.9104 41.6085C88.9104 41.6085 89.6544 45.6349 89.0155 50.7729C88.2802 56.6987 84.0437 57.1101 84.0437 57.1101L70.6691 49.1974L55.3075 36.9081L74.2666 38.6325L88.9104 41.5997V41.6085Z" fill="white"/>
<path d="M23.6857 49.215C23.6857 49.215 21.2173 46.5366 19.2041 41.7662C17.7861 38.4138 18.5214 36.1905 19.3092 34.9563C19.7818 34.2123 20.6571 33.8184 21.5324 33.8972L55.3192 36.917L33.314 47.0968L23.6857 49.215Z" fill="black"/>
<path d="M22.0995 34.0898C22.0995 34.0898 20.9616 28.1903 21.6093 23.0522C21.9944 19.9361 23.3511 18.3431 24.5503 17.5378C25.5394 16.8726 26.8261 16.8901 27.7977 17.5728L55.3085 36.9171L22.0995 34.0986V34.0898Z" fill="white"/>
<path d="M28.1408 17.8006C28.1408 17.8006 29.9352 12.1899 33.0513 8.05844C35.0295 5.44128 37.0951 4.79354 38.5482 4.74103C39.6598 4.69726 40.6752 5.38874 41.1478 6.39534L55.3103 36.9085L28.132 17.7918L28.1408 17.8006Z" fill="black"/>
<path d="M41.2821 6.59665C41.2821 6.59665 45.6936 2.81534 50.464 0.802142C53.3525 -0.414532 55.4095 -0.0468954 56.7137 0.592077C57.7816 1.10851 58.4206 2.23764 58.3155 3.42806L55.322 36.926L41.2909 6.60542L41.2821 6.59665Z" fill="white"/>
<path d="M52.6901 71.0885C52.6901 71.0885 47.2982 72.5328 41.4511 70.6159C35.7792 68.7602 35.1139 65.6441 35.1139 65.6441L41.4949 54.5103L55.316 36.9167L52.6988 71.0885H52.6901Z" fill="black"/>
<path d="M34.3903 63.5609C34.3903 63.5609 30.5915 62.3005 26.46 59.1756C21.6984 55.5694 23.4577 51.7005 23.4577 51.7005L55.3192 36.917L43.5722 51.718L34.3991 63.5609H34.3903Z" fill="white"/>
<path d="M84.0437 57.1101L70.6691 49.1974L55.3075 36.9081L52.1824 71.8853C52.1824 71.8853 54.6595 75.3427 60.1564 73.0232C64.5066 71.1851 69.3558 67.1674 69.3558 67.1674C69.4171 67.1149 66.3098 54.6068 66.3098 54.6068C68.5943 58.5194 72.0693 65.9507 73.4085 68.8567C74.6602 68.5066 76.1307 67.6488 77.5574 65.7581C79.2905 63.4648 81.0937 61.0578 82.3541 59.3597L72.4106 50.3353L84.0084 57.1364L84.0347 57.1014L84.0437 57.1101Z" fill="black"/>
<path d="M53.5218 74.9674L56.6204 58.9668L50.0557 75.0374" fill="#00482F"/>
<path d="M49.4607 50.4839C49.4607 50.4839 51.115 62.6331 46.9836 76.4542C42.7209 90.7216 43.3598 89.4087 42.6771 96.8925C42.6771 96.8925 47.0011 93.5489 50.266 91.9908C50.266 91.9908 51.3688 96.6737 55.5528 99.6935C55.5528 99.6935 57.461 92.6123 59.1941 81.8285C60.9272 71.0448 61.75 66.2744 61.2686 51.4992L49.4607 50.4926V50.4839Z" fill="black"/>
<path d="M63.1442 53.5412C63.1442 53.5412 66.8462 60.6901 68.0979 72.5329C69.7872 88.4897 70.4874 90.3191 74.6189 96.2274C74.6189 96.2274 67.6515 94.4418 64.7104 92.201C64.7104 92.201 60.7716 97.5054 60.0101 100C60.0101 100 56.36 94.0654 55.1959 83.2029C54.0317 72.3404 54.0317 66.0732 49.8915 55.0006L55.5263 55.5818L59.2053 55.5552L63.1442 53.5412Z" fill="white"/>
<path d="M55.3075 55.9545C65.8218 55.9545 74.3454 47.431 74.3454 36.9167C74.3454 26.4023 65.8218 17.8788 55.3075 17.8788C44.7932 17.8788 36.2696 26.4023 36.2696 36.9167C36.2696 47.431 44.7932 55.9545 55.3075 55.9545Z" fill="white"/>
<path d="M55.345 56.6114C54.7411 56.6114 54.1371 56.5851 53.5244 56.5326C42.7144 55.5522 34.7141 45.9501 35.6944 35.1314C36.1671 29.8883 38.6617 25.1529 42.7056 21.783C46.7495 18.4131 51.8526 16.82 57.0956 17.3014C62.3387 17.7741 67.0741 20.2687 70.444 24.3039C73.8139 28.339 75.407 33.4596 74.9256 38.6939C74.4442 43.9282 71.9583 48.6724 67.9231 52.0423C64.3519 55.0183 59.9404 56.6114 55.3538 56.6114H55.345ZM55.2837 18.5269C50.9948 18.5269 46.8808 20.0061 43.5459 22.7896C39.7734 25.9319 37.4538 30.3522 37.0074 35.2452C36.0883 45.3374 43.5547 54.3005 53.6469 55.2196C63.7304 56.1474 72.7023 48.6724 73.6214 38.5801C74.0678 33.6871 72.5798 28.9167 69.4374 25.1442C66.2951 21.3716 61.8748 19.052 56.9818 18.6056C56.4129 18.5531 55.8439 18.5269 55.2837 18.5269Z" fill="#9DE7DE"/>
<path d="M28.51 16.7406C28.51 16.7406 29.8492 12.189 32.7115 8.35517C33.403 7.4361 34.217 6.6133 35.1623 5.95682C36.2039 5.23907 37.6132 4.54759 38.9699 4.76642C39.2762 4.81894 39.425 5.16905 39.2412 5.41413C38.681 6.1669 38.506 6.49952 33.5168 10.6222C30.2431 13.3269 28.5013 16.7406 28.5013 16.7406H28.51Z" fill="black"/>
<path d="M59.5883 3.50689C59.5883 3.50689 64.385 2.62282 69.0678 3.22678C70.197 3.37559 71.2474 3.59443 72.2715 4.09335C73.4006 4.6448 74.5735 5.59011 75.0462 6.86805C75.1512 7.14815 74.9236 7.45451 74.6173 7.4195C73.707 7.30571 74.8536 7.33197 68.8928 5.03867C64.9801 3.53315 59.5883 3.51565 59.5883 3.51565V3.50689Z" fill="black"/>
<path d="M19.054 35.5353L33.8204 36.7257L22.9667 38.205C22.9667 38.205 19.0278 38.4938 19.2204 41.8988C19.2204 41.8988 17.5398 38.8265 19.054 35.5353Z" fill="black"/>
<path d="M24.1595 17.9405L37.0264 25.2756L26.5665 22.0107C26.5665 22.0107 22.8728 20.6014 21.6123 23.77C21.6123 23.77 21.3935 20.2776 24.1595 17.9318V17.9405Z" fill="white"/>
<path d="M48.3256 24.8303C48.3256 24.8303 55.328 20.3663 62.4355 24.629C69.5429 28.8917 70.4533 36.9095 68.2213 42.0913C68.2213 42.0913 69.3416 28.7955 58.7767 27.0711C58.7767 27.0711 55.5293 22.7033 48.3256 24.8391V24.8303Z" fill="#9DE7DE"/>
<path d="M83.553 69.915C83.553 69.915 85.2511 75.5432 92.1397 77.1012C92.1397 77.1012 86.923 78.0028 86.8179 84.27C86.8179 84.27 84.9798 78.8431 78.38 77.1012C78.38 77.1012 83.8944 76.4447 83.553 69.9237V69.915Z" fill="white"/>
<path d="M11.2824 24.8128C11.2824 24.8128 12.359 28.3753 16.7093 29.3557C16.7093 29.3557 13.4094 29.9246 13.3394 33.8897C13.3394 33.8897 12.1752 30.4586 8 29.3557C8 29.3557 11.4925 28.9443 11.2737 24.8128H11.2824Z" fill="white"/>
</svg>
