<svg width="100" height="100" viewBox="0 0 100 100" fill="none" xmlns="http://www.w3.org/2000/svg">
<rect width="100" height="100" fill="#9DE7DE"/>
<path d="M41.127 3.69703C41.127 3.69703 44.2947 1.71617 49.8957 1.71617C58.9974 1.71617 64.4277 7.47944 73.8367 0C73.8367 0 71.1216 10.6129 55.0357 10.1604C45.7974 9.89574 45.0631 15.8298 45.0631 15.8298L41.127 3.69703Z" fill="white"/>
<path d="M58.2087 33.3849C58.166 32.4713 58.8747 31.7114 59.7883 31.6858L59.7967 31.6944H62.085C63.3316 31.6944 64.4757 32.3689 65.0734 33.4532L70.1194 42.5805L70.1297 42.7261C70.154 42.8479 70.1816 42.9788 70.2115 43.1207C70.3722 43.8829 70.5999 44.9629 70.7419 46.6535L75.1647 77.4421C75.3867 78.9876 74.1913 80.3707 72.6289 80.3707H63.5699C63.1515 80.3707 62.8099 80.0463 62.7843 79.6279L62.3574 72.3449C61.2218 61.527 51.7189 61.0147 49.9173 61.0147H49.3282C47.5352 61.0147 38.0237 61.5355 36.8881 72.3449L36.4612 79.6279C36.4356 80.0463 36.094 80.3707 35.6756 80.3707H33.0459C33.0459 80.3707 33.6009 81.8308 36.2221 82.3431C37.3833 82.5736 38.4847 81.6856 38.553 80.4988L39.0226 72.5327C39.6118 67.1024 42.6343 64.8056 45.3579 63.8408C45.3579 63.8408 49.5502 62.2869 53.8876 63.8408C56.6112 64.8056 59.6337 67.1024 60.2229 72.5327L60.6925 80.4988C60.7608 81.6942 61.8793 82.565 63.0576 82.3345H72.8423C75.4208 82.3345 77.4103 80.0719 77.0773 77.519L76.2235 70.9104C80.0912 71.0385 80.8938 74.3769 80.8938 74.3769H80.8853L83.4553 88.4905C83.8566 90.6763 82.2001 92.7084 79.8778 92.512C78.4306 92.3896 76.9171 92.0385 75.2546 91.6528C74.2492 91.4195 73.1894 91.1737 72.0568 90.9581C66.1399 89.831 59.6594 90.3946 53.1789 95.1845C46.6984 99.9744 37.6736 99.9744 37.6736 99.9744V100H21.4425L26.574 47.2853C26.716 45.5947 26.9437 44.5147 27.1044 43.7525C27.1466 43.5524 27.1841 43.3742 27.2143 43.2126C27.2143 43.2126 27.2123 43.265 27.2203 43.3538L27.2237 43.2123L31.4244 33.9484C32.1075 32.4457 33.5931 31.4724 35.2495 31.4467L37.6573 31.4126C38.6136 31.3955 39.382 32.1981 39.3051 33.1544L39.2454 33.9826C39.1686 35.0157 40.0736 35.861 41.0982 35.7073L42.6948 35.4682C43.4035 35.3572 43.967 34.7937 44.0609 34.085L44.2402 32.7445C44.3512 31.9505 45.0172 31.3614 45.8113 31.3443L51.8136 31.2248C52.5906 31.2077 53.2651 31.7456 53.4273 32.4969L53.7603 34.0167C53.9225 34.7596 54.58 35.2889 55.3398 35.2889H56.6035C57.5256 35.2889 58.2684 34.512 58.2087 33.5898V33.3849Z" fill="white"/>
<path d="M38.4949 37.2082C38.2729 37.2082 38.0765 37.063 38.0168 36.8495C37.9314 36.5422 37.6496 36.3373 37.3337 36.3373L28.5735 37.1142L28.4198 37.6863L36.7702 37.4643C37.1117 37.4558 37.4105 37.6863 37.4874 38.0193L37.5557 38.3181C37.6325 38.6511 37.9314 38.8902 38.2729 38.8731L48.2711 38.5657L48.6809 37.2082H38.4949Z" fill="black"/>
<path d="M27.6597 78.9178L30.2382 45.4908H30.1955C27.1388 45.3628 27.2242 43.2112 27.2242 43.2112C27.0791 43.9881 26.7632 45.1493 26.5839 47.2839L24.0651 70.9517C20.6498 71.353 19.9241 74.3755 19.9241 74.3755L17.0382 95.405C16.7052 97.8298 18.5921 99.9985 21.0426 99.9985H25.7898L27.1132 85.4239C27.2584 83.8272 26.2936 81.7695 25.047 80.762C22.5197 78.7129 23.6553 76.4246 24.1932 75.6135C25.0641 78.6531 27.6597 78.9178 27.6597 78.9178Z" fill="black"/>
<path d="M49.0465 38.6609C48.6622 38.6609 48.3122 38.4133 48.1926 38.029L37.5114 3.73974C37.3662 3.27014 37.6309 2.76639 38.1005 2.62124C38.5701 2.47609 39.0739 2.74077 39.219 3.21037L49.9003 37.4997C50.0454 37.9693 49.7807 38.473 49.3111 38.6182C49.2257 38.6438 49.1318 38.6609 49.0465 38.6609Z" fill="black"/>
</svg>
