<svg width="100" height="100" viewBox="0 0 100 100" fill="none" xmlns="http://www.w3.org/2000/svg">
<rect width="100" height="100" fill="#9DE7DE"/>
<path d="M19 32.4779C19 27.7635 22.0796 23.705 24.988 20.9106C44.2257 26.9936 65.9284 23.4452 74.375 20.9106C77.2834 23.6955 80.363 27.7635 80.363 32.4779V88.4231C80.363 92.4247 73.9473 100 49.6815 100C25.4157 100 19 92.4247 19 88.4231V32.4779Z" fill="white"/>
<path d="M57.3706 35.5103C47.8373 35.5103 40.0814 46.1651 40.0814 59.2628C40.0814 72.3604 47.8373 83.0152 57.3706 83.0152C66.9039 83.0152 74.6598 72.3604 74.6598 59.2628C74.6598 46.1651 66.9039 35.5103 57.3706 35.5103Z" fill="#9DE7DE"/>
<path d="M23.5148 4.9334V16.1966C23.5148 18.9245 34.8065 21.1296 48.731 21.1296C62.6556 21.1296 73.9473 18.915 73.9473 16.1966V4.9334H23.5148Z" fill="black"/>
<path d="M48.731 9.86599C62.6576 9.86599 73.9473 7.65782 73.9473 4.9334C73.9473 2.20898 62.6576 0 48.731 0C34.8045 0 23.5148 2.20898 23.5148 4.9334C23.5148 7.65782 34.8045 9.86599 48.731 9.86599Z" fill="#9DE7DE"/>
<path d="M39.3759 6.76747L55.2585 2.21469L58.3665 2.50934L42.5315 7.13817L39.3759 6.76747Z" fill="black"/>
<path d="M71.0369 78.1198C70.8754 78.0247 70.7233 77.9487 70.5617 77.8632C67.121 82.2259 62.4827 84.9062 57.3691 84.9062C48.1399 84.9062 40.441 76.2094 38.5971 64.6135C38.5781 64.4899 38.5591 64.3664 38.5401 64.2333C38.3025 62.627 38.1789 60.9637 38.1789 59.2623C38.1789 55.4414 38.8062 51.82 39.9278 48.5599C37.0193 45.3663 32.3809 44.2257 29.3964 44.7864L24.9197 57.9886C24.9197 57.9886 29.2919 57.8651 32.0578 61.9711C31.516 62.2943 30.9838 62.646 30.4515 63.0737C28.3414 64.7751 26.9917 66.8471 26.7541 68.4725C24.8817 68.1493 23.3419 68.4819 22.7431 69.5275C21.7451 71.2573 23.7031 74.2513 27.1153 76.2188C27.2864 76.3234 27.467 76.409 27.6381 76.504C24.6916 77.7301 22.8001 79.7546 23.2753 81.4085C23.8266 83.3284 27.3339 84.0033 31.1263 82.9198C31.8962 82.7011 32.609 82.4255 33.2649 82.1118C33.1033 82.568 33.1223 83.0623 33.2934 83.5755C32.7041 83.49 32.0768 83.452 31.4305 83.452C27.486 83.452 24.2923 85.0678 24.2923 87.0543C24.2923 89.0408 27.486 90.6661 31.4305 90.6661C32.9227 90.6661 34.3104 90.4285 35.4605 90.0388C35.7741 91.8828 38.8347 93.337 42.5701 93.337C45.2885 93.337 47.6457 92.5671 48.8528 91.4455C49.9363 92.7382 52.4741 93.6507 55.4301 93.6507C59.27 93.6507 62.3971 92.1109 62.5492 90.1909C66.3131 90.0958 69.3071 88.5181 69.3071 86.5981C69.3071 86.0088 69.022 85.448 68.5182 84.9537C71.5693 86.3795 74.5157 86.3699 75.4092 84.8302C76.4072 83.1003 74.4492 80.1063 71.0369 78.1388V78.1198Z" fill="black"/>
<path d="M67.372 61.7143C67.2199 62.6363 66.9063 63.4062 66.4311 64.0335C65.9558 64.6608 65.281 65.155 64.397 65.5162C63.8647 65.7348 63.38 65.8964 62.9333 65.9915C62.4866 66.0865 61.9638 66.1816 61.346 66.2576C60.2149 66.4002 59.2739 66.6283 58.5231 66.9419C58.1999 67.075 57.9433 67.2081 57.7722 67.3222C58.5136 65.7348 58.6466 64.0905 58.1619 62.3796C58.1048 62.161 58.0098 61.9519 57.9338 61.7333C59.7112 61.0015 61.6502 60.108 63.4751 59.091L62.9333 57.209C61.0418 58.3116 58.9413 59.2621 57.0593 60.032L56.5366 59.2716C56.4605 59.1671 56.2895 58.9484 56.0043 58.6063C55.7287 58.2641 55.4435 57.8649 55.1679 57.4086C54.8923 56.9524 54.6641 56.4106 54.4835 55.7833C54.1699 54.6807 54.2934 53.6352 54.8542 52.6467C55.415 51.6582 56.299 50.9074 57.5346 50.3941C58.5136 49.9854 59.5115 49.8143 60.5286 49.8713C61.5361 49.9284 62.42 50.204 63.1709 50.6792L62.2109 47.2575C61.4315 46.9914 60.5191 46.9058 59.5021 47.0009C58.4756 47.0959 57.4205 47.3716 56.337 47.8183C54.9683 48.3886 53.8182 49.149 52.9057 50.0995C51.9838 51.0499 51.3564 52.1144 51.0238 53.2835C50.6911 54.4526 50.6911 55.6312 51.0238 56.8098C51.2329 57.5607 51.499 58.226 51.8222 58.8153C52.1453 59.4046 52.5541 60.0415 53.0388 60.7163L53.4855 61.3626C52.1929 61.8093 51.3564 62.0565 51.3279 62.066L51.7461 63.9194C51.8507 63.9004 52.9152 63.5868 54.4835 63.0355C54.6831 63.4347 54.8257 63.8244 54.9398 64.2046C55.2725 65.3832 55.3294 66.6378 55.1203 67.9685C54.9112 69.2991 54.398 70.972 53.5711 73.006C54.1604 72.4072 54.7211 71.932 55.2534 71.5613C55.7952 71.2001 56.451 70.8484 57.2304 70.5253C57.7627 70.3067 58.2665 70.1356 58.7322 70.0215C59.1979 69.898 59.8062 69.7649 60.5381 69.6128C61.3555 69.4418 62.0398 69.2896 62.5721 69.1471C63.1044 69.0045 63.6937 68.7954 64.3495 68.5198C65.8893 67.8829 66.8968 67.018 67.372 65.925C67.8568 64.8319 67.8568 63.4252 67.372 61.6953V61.7143Z" fill="black"/>
</svg>
