<svg width="100" height="100" viewBox="0 0 100 100" fill="none" xmlns="http://www.w3.org/2000/svg">
<rect width="100" height="100" fill="#9DE7DE"/>
<path d="M26.3059 29.9778L24.0814 29.2529C28.9332 14.44 36.6488 -2.60891 45.8007 0.334466C51.1867 2.06381 54.3745 10.1515 55.2677 24.388L52.9381 24.5365C52.1237 11.5402 49.4088 3.94162 45.0912 2.56164C39.5388 0.779892 32.5152 11.0337 26.3059 29.9866V29.9778Z" fill="white"/>
<path d="M24.9923 34.5271L8.13363 31.968L4 90.9927L19.7639 91.936L33.8989 99.9975L34.293 39.8548L24.9923 34.5271Z" fill="black"/>
<path d="M62.747 23.425V33.5478L81.3921 30.2725L68.7373 27.827L62.747 23.425Z" fill="black"/>
<path d="M34.293 39.8573L88.6259 30.3372L96 89.1174L33.8988 100L34.293 39.8573Z" fill="white"/>
<path d="M4 90.9955L23.267 82.1479L33.8988 100L19.7639 91.9387L4 90.9955Z" fill="white"/>
<path d="M68.7372 27.8305L81.3921 30.2761L34.5295 38.4861L25.6492 33.3941L16.1294 31.8569L62.7469 23.4285M63.071 22.0398L8.14239 31.9705L25.0011 34.5295L34.293 39.8573L88.6259 30.3372L69.2802 26.599L63.071 22.0486V22.0398Z" fill="black"/>
<path d="M16.1296 31.8534L62.747 23.425V33.5478L34.5296 38.4825L25.6493 33.3906L16.1296 31.8534Z" fill="#9DE7DE"/>
<path d="M44.8285 48.5227C44.198 48.5227 43.6637 48.0336 43.62 47.4047C43.62 47.2912 42.8143 36.295 43.6813 25.1766C44.8811 9.73476 48.612 1.40248 54.7774 0.398061C60.9516 -0.606355 67.0908 6.1276 73.0198 20.4165C77.2935 30.7052 79.9471 41.3957 79.9734 41.5093C80.131 42.1556 79.7369 42.8106 79.0888 42.9766C78.432 43.1338 77.784 42.7408 77.6176 42.0944C74.7801 30.6092 65.2341 1.19286 55.1627 2.79993C45.1001 4.43319 45.1613 35.4304 46.0371 47.2388C46.0897 47.9026 45.5818 48.4878 44.9162 48.5314C44.8899 48.5314 44.8548 48.5314 44.8285 48.5314V48.5227Z" fill="white"/>
</svg>
