<svg width="100" height="100" viewBox="0 0 100 100" fill="none" xmlns="http://www.w3.org/2000/svg">
<g clip-path="url(#clip0_15980_6807)">
<rect width="100" height="100" fill="#9DE7DE"/>
<path d="M6.87575 42.8603C6.87575 42.8603 9.1459 50.3625 18.3665 52.4321C18.3665 52.4321 11.386 53.636 11.246 61.9739C11.246 61.9739 8.78587 54.7504 -0.0546875 52.4221C-0.0546875 52.4221 7.33578 51.5465 6.87575 42.8504V42.8603Z" fill="white"/>
<path d="M55.2588 4.4043C55.2588 4.4043 56.7289 9.25981 62.6993 10.603C62.6993 10.603 58.179 11.3791 58.089 16.7819C58.089 16.7819 56.4989 12.1055 50.7785 10.603C50.7785 10.603 55.5588 10.0359 55.2588 4.41425V4.4043Z" fill="white"/>
<path d="M98.7416 40.154C98.6516 39.4874 98.2115 38.9003 97.5115 38.4924L69.8797 22.4433C69.2897 22.105 68.5897 21.9458 67.8896 21.9458C66.7895 21.9458 65.6695 22.3538 64.9394 23.11L55.0788 33.3682C43.5581 45.5269 31.8773 57.5164 20.2766 69.5856C19.7466 70.1428 19.4965 70.7994 19.5966 71.4462C19.6966 72.1128 20.1366 72.7098 20.8366 73.1078L48.4784 89.1569C49.9985 90.0324 52.2086 89.7339 53.4087 88.4902L98.0715 42.0146C98.6016 41.4674 98.8516 40.8007 98.7516 40.154H98.7416Z" fill="white"/>
<path d="M99.9316 46.3428L99.4516 41.935C99.2916 42.2236 99.0916 42.5121 98.8416 42.7708L54.1787 89.2464C53.2487 90.2215 51.8286 90.7389 50.4285 90.7389C49.5485 90.7389 48.6684 90.5299 47.9184 90.1021L20.2766 74.053C19.3765 73.5356 18.7865 72.7794 18.5665 71.9039L19.1565 77.3464C19.2465 78.1722 19.7666 78.9583 20.6666 79.4856L48.8284 95.8332C50.5585 96.8282 53.0687 96.4899 54.4288 95.077L99.0916 48.6014C99.7416 47.9248 100.012 47.1288 99.9316 46.3726V46.3428Z" fill="black"/>
<path d="M36.3076 86.2018C36.4676 85.754 36.1776 85.1371 35.6476 84.8386L31.6673 82.5203C31.1473 82.2218 30.5973 82.3412 30.4372 82.789C30.2772 83.2367 30.5673 83.8536 31.0973 84.1521L35.0775 86.4704C35.5976 86.7689 36.1476 86.6495 36.3076 86.2018Z" fill="#9DE7DE"/>
<path d="M42.278 73.4958C44.0981 74.5406 44.4081 76.5902 42.978 78.0728C41.5579 79.5553 38.9278 79.9135 37.1177 78.8687C35.2975 77.824 34.9775 75.7743 36.4076 74.2918C37.8277 72.8093 40.4579 72.4511 42.278 73.4958Z" fill="black"/>
<path d="M76.4101 30.9007C77.0402 31.2589 77.1502 31.9752 76.6602 32.4827C76.1701 32.9901 75.2501 33.1195 74.63 32.7613C74 32.4031 73.89 31.6867 74.39 31.1793C74.8801 30.6718 75.7901 30.5425 76.4202 30.9007H76.4101Z" fill="black"/>
<path d="M85.2307 35.9651C85.8607 36.3233 85.9708 37.0397 85.4807 37.5471C84.9907 38.0546 84.0706 38.1839 83.4506 37.8257L78.3903 34.9204C77.7602 34.5622 77.6502 33.8458 78.1403 33.3284C78.6303 32.821 79.5404 32.6916 80.1704 33.0498L85.2307 35.9552V35.9651Z" fill="black"/>
<path d="M87.7009 57.4368C87.9109 57.8249 88.3209 57.8945 88.6209 57.5761L93.0212 53.0092C93.3212 52.7007 93.4012 52.1336 93.1912 51.7356C92.9812 51.3475 92.5712 51.2779 92.2712 51.5963L87.8709 56.1633C87.5709 56.4717 87.4909 57.0388 87.7009 57.4368Z" fill="#9DE7DE"/>
<path d="M81.1905 64.1928C81.4005 64.5808 81.8105 64.6504 82.1105 64.3321L86.5108 59.7651C86.8108 59.4566 86.8908 58.8895 86.6808 58.4915C86.4708 58.1035 86.0608 58.0338 85.7607 58.3522L81.3605 62.9192C81.0604 63.2276 80.9804 63.7948 81.1905 64.1928Z" fill="#9DE7DE"/>
<path d="M53.6487 44.3031L37.6777 51.5565L25.3169 64.3619L38.2077 68.7896C39.3478 69.1677 42.608 70.7298 44.0881 67.2076L53.6587 44.2931L53.6487 44.3031Z" fill="black"/>
<path d="M73.0699 49.3675C73.0699 49.3675 74.07 52.6609 78.1303 53.5763C78.1303 53.5763 75.0601 54.1036 74.9901 57.7751C74.9901 57.7751 73.91 54.5912 70.0197 53.5763C70.0197 53.5763 73.27 53.1883 73.0699 49.3675Z" fill="#9DE7DE"/>
<path d="M18.2865 14.0457L7.06576 32.0548C6.27571 33.3185 6.73574 35.0895 8.08583 36.0248L50.1685 65.0086C51.3586 65.8245 52.8587 65.4862 53.5187 64.2624L67.4496 38.6615C68.0696 37.5173 67.6796 35.9054 66.5595 35.0696L35.7576 11.8965C33.1574 9.9364 33.0974 9.6578 31.1573 9.8966C30.5272 9.9762 22.7268 10.9413 22.1667 11.011C20.0966 11.2597 20.0966 11.1304 18.2765 14.0457H18.2865Z" fill="white"/>
<path d="M18.6865 13.3193L7.46579 31.3285C6.67574 32.5921 7.13577 34.3632 8.48585 35.2985L50.5685 64.2823C51.7586 65.0982 53.2587 64.7599 53.9187 63.5361L67.8496 37.9352C68.4697 36.791 68.0796 35.1791 66.9596 34.3433L36.1576 11.1801C33.5574 9.22001 33.4974 8.94141 31.5573 9.18021C30.9273 9.25981 23.1268 10.2249 22.5667 10.2946C20.4966 10.5433 20.4966 10.414 18.6765 13.3293L18.6865 13.3193Z" fill="black"/>
<path d="M33.5574 27.0003L30.4072 32.2936L37.0977 37.0795L40.1779 31.8061L33.5574 27.0003Z" fill="white"/>
<path d="M40.7379 30.831L44.0481 25.1497L39.4878 21.7667C38.4077 20.9608 37.0177 21.1598 36.3976 22.2145L34.1375 26.0153L40.7479 30.831H40.7379Z" fill="white"/>
<path d="M52.1586 31.1594L45.0282 25.886L37.5277 38.8008L29.8172 33.2986L27.4971 37.1989C26.847 38.2934 27.237 39.8257 28.3571 40.6117L41.5379 49.8451L52.1586 31.1594Z" fill="white"/>
<path d="M45.8382 44.711L42.538 50.5416L48.1984 54.5116C49.2584 55.2578 50.5985 54.9792 51.1986 53.9046L53.3287 50.0541L45.8482 44.721L45.8382 44.711Z" fill="white"/>
<path d="M50.0185 37.3183L57.3889 42.6912L59.3591 39.1391C59.9291 38.1043 59.5791 36.6517 58.559 35.8955L53.1187 31.8658L50.0285 37.3282L50.0185 37.3183Z" fill="white"/>
<path d="M53.8587 49.069L56.8589 43.6563L49.4684 38.2934L46.3883 43.726L53.8587 49.069Z" fill="white"/>
</g>
<defs>
<clipPath id="clip0_15980_6807">
<rect width="100" height="100" fill="white"/>
</clipPath>
</defs>
</svg>
