<svg width="100" height="100" viewBox="0 0 100 100" fill="none" xmlns="http://www.w3.org/2000/svg">
<rect width="100" height="100" fill="#9DE7DE"/>
<path d="M20.8503 0C21.5366 5.33344 25.1219 8.84541 29.8551 8.8097C25.0509 10.8574 21.1816 15.9884 20.1284 21.7147C19.4421 16.3813 15.8568 12.8693 11.1236 12.905C15.9278 10.8455 19.7971 5.7144 20.8503 0Z" fill="white"/>
<path d="M89.6697 44.3654C90.1483 48.0842 92.6482 50.5329 95.9484 50.508C92.5987 51.9357 89.9007 55.5134 89.1664 59.5061C88.6879 55.7873 86.188 53.3386 82.8878 53.3635C86.2375 51.9274 88.9354 48.3498 89.6697 44.3654Z" fill="white"/>
<path d="M23.0655 86.7407C23.363 89.0523 24.9169 90.5744 26.9684 90.5589C24.8862 91.4464 23.2091 93.6703 22.7527 96.1521C22.4552 93.8406 20.9013 92.3184 18.8498 92.3339C20.932 91.4413 22.6091 89.2174 23.0655 86.7407Z" fill="white"/>
<path d="M44.1305 53.3867C44.0675 53.5035 43.9866 53.6384 43.9146 53.7553L4.1643 76.5218L21.1205 53.3867H44.1305Z" fill="white"/>
<path d="M56.0133 73.7539L44.4364 99.9282V53.4691L56.0133 73.7539Z" fill="black"/>
<path d="M84.753 76.6657L44.6249 53.3867H67.7608L67.7518 53.4046L84.753 76.6657Z" fill="black"/>
<path d="M44.4364 53.4691L44.4357 53.397H44.1299L43.824 53.9275C39.9291 60.4913 36.0341 67.0641 32.1481 73.6279L32.7688 73.5649L44.4087 100L44.4357 99.9371V53.4779L44.4364 53.4691Z" fill="white"/>
<path d="M84.7714 76.6747L84.753 76.6657L44.6249 53.3867H44.4364V53.4676L44.4634 53.5125L56.0133 73.7524L56.0853 73.5816L84.8074 76.7196L84.7714 76.6747Z" fill="white"/>
<path d="M44.733 53.3866C44.796 53.2697 44.8769 53.1349 44.9489 53.018L84.6992 30.2604L67.743 53.3956H44.733V53.3866Z" fill="white"/>
<path d="M32.8588 33.0222L44.4268 6.84788V53.316L32.8588 33.0222Z" fill="black"/>
<path d="M4.11074 30.1183L44.2388 53.3883H21.1119L21.1209 53.3704L4.11074 30.1183Z" fill="black"/>
<path d="M44.4268 53.316L44.4271 53.3873L44.733 53.3866L45.0388 52.8568C48.9338 46.293 52.8287 39.7202 56.7147 33.1564L56.094 33.2193L44.4541 6.78428L44.4268 6.84788L44.4271 53.3064L44.4268 53.316Z" fill="white"/>
<path d="M4.1014 30.1076L4.11039 30.1166L44.2385 53.3867L44.4271 53.3873L44.4274 53.3147L44.4004 53.2608L32.8594 33.0209L32.7785 33.2007L4.06542 30.0627L4.1014 30.1076Z" fill="white"/>
<path d="M44.4364 53.4676C42.3225 56.5876 40.1631 59.9958 38.0222 63.7003C36.0522 67.108 34.307 70.4179 32.7688 73.5649C23.1978 74.599 13.6269 75.641 4.04688 76.675L4.15482 76.5222C17.5758 68.8344 31.0058 61.1467 44.4268 53.4589L44.4364 53.4676Z" fill="black"/>
<path d="M44.4364 53.4691C46.5593 50.2681 54.5288 36.3934 56.094 33.2193C65.665 32.1853 75.2363 31.1421 84.8163 30.1081L84.7084 30.261C71.2874 37.9937 57.8664 45.7354 44.4454 53.4681L44.4364 53.4691Z" fill="black"/>
<path d="M4.1643 76.5218L32.7694 73.5546L44.4363 99.9267L31.0693 76.7196L4.1643 76.5218Z" fill="black"/>
<path d="M56.0133 73.7524L44.4363 99.9267L57.9293 76.7196L84.753 76.6657L56.0133 73.7524Z" fill="black"/>
</svg>
