<svg width="100" height="100" viewBox="0 0 100 100" fill="none" xmlns="http://www.w3.org/2000/svg">
<g clip-path="url(#clip0_15980_6879)">
<rect width="100" height="100" fill="#9DE7DE"/>
<path d="M53.4631 19.0806C31.3034 19.0806 13.1454 32.3838 11.4562 49.2876C12.8638 65.8384 31.1627 78.9802 53.4631 78.9802C75.7635 78.9802 94.0623 65.8384 95.4699 49.2876C93.7808 32.3838 75.6328 19.0806 53.4631 19.0806Z" fill="#9DE7DE"/>
<path d="M53.4632 14.0456C29.9161 14.0456 10.833 28.8919 10.833 47.1976C10.833 48.4584 10.9336 49.709 11.1145 50.9395C11.2151 50.2536 11.3458 49.5779 11.5067 48.9021C13.427 32.19 31.4745 19.0784 53.4733 19.0784C75.4721 19.0784 93.5196 32.1799 95.4399 48.9021C95.5907 49.5779 95.7315 50.2536 95.832 50.9395C96.013 49.709 96.1135 48.4684 96.1135 47.1976C96.1135 28.8919 77.0305 14.0456 53.4833 14.0456H53.4632Z" fill="black"/>
<path d="M88.0198 38.7389C87.9192 38.5573 87.7282 38.4262 87.4969 38.3556C87.2556 38.285 86.9741 38.2749 86.7227 38.3556L55.6751 47.4833C55.3534 47.2109 54.9411 46.979 54.4485 46.8277C52.7794 46.3133 50.8189 46.868 50.0849 48.0682C49.924 48.3305 49.8436 48.5927 49.8235 48.8549H49.8134V48.9356C49.8134 48.9356 49.8134 49.0163 49.8134 49.0566V49.7324C49.7833 50.6603 50.5273 51.5378 51.7841 51.921C53.4632 52.4354 55.4237 51.8807 56.1678 50.6805C56.2381 50.5695 56.2884 50.4687 56.3286 50.3577C56.4091 50.1459 56.4392 49.9442 56.4392 49.7324H56.4493V48.8549H56.4292C56.4292 48.8549 56.4292 48.8146 56.4292 48.7944L87.4768 39.6668C87.9896 39.5155 88.241 39.1019 88.0298 38.7288L88.0198 38.7389Z" fill="black"/>
<path d="M63.4171 30.5009L65.2671 31.0657L68.9168 25.1453L67.0769 24.5805L63.4171 30.5009Z" fill="black"/>
<path d="M37.2859 72.8692L39.1258 73.434L42.7856 67.5136L40.9356 66.9488L37.2859 72.8692Z" fill="black"/>
<path d="M78.9309 56.1381L78.1165 57.4593L86.3812 60.0009L87.1956 58.6696L78.9309 56.1381Z" fill="black"/>
<path d="M19.0073 39.3364L27.2719 41.8679L28.0863 40.5467L19.8217 38.0151L19.0073 39.3364Z" fill="black"/>
<path d="M76.9802 28.809L75.4218 27.9215L71.1487 31.7339L72.7071 32.6214L76.9802 28.809Z" fill="white"/>
<path d="M29.2224 69.2112L30.7808 70.0987L35.0538 66.2762L33.4954 65.3887L29.2224 69.2112Z" fill="white"/>
<path d="M77.9254 36.7431L83.4351 33.8384L82.2487 32.6886L76.749 35.6034L77.9254 36.7431Z" fill="white"/>
<path d="M28.2773 61.2677L22.7676 64.1825L23.954 65.3322L29.4537 62.4174L28.2773 61.2677Z" fill="white"/>
<path d="M24.7381 56.3035L18.3939 58.1089L19.1178 59.4402L25.462 57.6349L24.7381 56.3035Z" fill="white"/>
<path d="M83.0531 47.1768L89.8197 46.6019L89.6086 45.1698L82.842 45.7547L83.0531 47.1768Z" fill="white"/>
<path d="M23.1495 50.843L16.383 51.4179L16.5941 52.84L23.3607 52.2651L23.1495 50.843Z" fill="white"/>
<path d="M82.6006 52.7515L89.337 53.4474L89.6386 52.0253L82.9123 51.3394L82.6006 52.7515Z" fill="white"/>
<path d="M23.6019 45.2568L16.8655 44.5709L16.5639 45.9829L23.2902 46.6789L23.6019 45.2568Z" fill="white"/>
<path d="M46.4452 74.9037L48.4259 75.1054L49.4716 70.2944L47.4909 70.0927L46.4452 74.9037Z" fill="white"/>
<path d="M56.7308 27.7188L58.7115 27.9205L59.7571 23.1096L57.7764 22.9179L56.7308 27.7188Z" fill="white"/>
<path d="M55.3132 70.343L56.0371 75.164L58.048 75.0026L57.314 70.1715L55.3132 70.343Z" fill="white"/>
<path d="M48.1546 23.0185L48.8885 27.8395L50.8894 27.668L50.1654 22.847L48.1546 23.0185Z" fill="white"/>
<path d="M62.9948 69.1381L65.448 73.6464L67.3282 73.1119L64.8649 68.6035L62.9948 69.1381Z" fill="white"/>
<path d="M38.8746 24.8922L41.3379 29.4006L43.208 28.8661L40.7547 24.3678L38.8746 24.8922Z" fill="white"/>
<path d="M69.9925 66.569L74.0142 70.452L75.643 69.5947L71.6213 65.7117L69.9925 66.569Z" fill="white"/>
<path d="M30.5597 28.4264L34.5814 32.3094L36.2102 31.4521L32.1884 27.559L30.5597 28.4264Z" fill="white"/>
<path d="M75.8442 62.7991L81.1529 65.7946L82.4097 64.6751L77.101 61.6695L75.8442 62.7991Z" fill="white"/>
<path d="M30.3586 35.2214L25.0499 32.2158L23.7931 33.3454L29.1018 36.3409L30.3586 35.2214Z" fill="white"/>
<path d="M53.4631 15.4869C76.6785 15.4869 95.5604 29.7281 95.5604 47.227C95.5604 64.7258 76.6785 78.967 53.4631 78.967C30.2477 78.967 11.3658 64.7258 11.3658 47.227C11.3658 29.7281 30.2477 15.4869 53.4631 15.4869ZM53.4631 11.0592C27.7744 11.0592 6.94187 27.257 6.94187 47.237C6.94187 67.217 27.7643 83.4148 53.4631 83.4148C79.1619 83.4148 99.9843 67.217 99.9843 47.237C99.9843 27.257 79.1619 11.0592 53.4631 11.0592Z" fill="white"/>
<path d="M70.8672 12.1189C70.7867 11.8264 70.7365 11.5339 70.7465 11.2313C70.837 9.28477 73.059 7.69121 75.7133 7.69121C75.824 7.69121 75.9345 7.69121 76.0552 7.69121C78.8603 7.83242 81.1427 9.6882 81.0522 11.7558C80.9919 13.1476 79.8256 14.3478 78.1968 14.9227C79.6446 15.6086 81.0321 16.3448 82.3794 17.1416C83.9679 15.8204 84.9834 13.9948 85.0739 11.9273C85.2649 7.60044 81.3136 3.89895 76.2563 3.6468C76.0753 3.6468 75.8943 3.63672 75.7234 3.63672C70.9074 3.63672 66.946 6.84401 66.7449 10.9994C68.1525 11.3221 69.53 11.6852 70.8772 12.0987L70.8672 12.1189Z" fill="white"/>
<path d="M20.5958 53.5779C20.5958 43.0684 30.1373 34.1627 43.3487 31.0361C43.6402 27.0421 47.491 23.734 52.6791 22.7052C52.6388 22.7052 52.5986 22.7052 52.5685 22.7052C32.4699 22.7052 16.182 34.4854 16.182 49.0191C16.182 56.5633 20.5757 63.351 27.5936 68.1519C23.2099 64.1276 20.5958 59.0746 20.5958 53.5779Z" fill="white"/>
<path d="M5.59467 50.1654C2.01535 54.6031 -0.015625 59.6662 -0.015625 65.042C-0.015625 82.4904 21.3297 96.3382 47.6518 96.6307C57.314 96.7416 67.6598 95.3296 76.95 91.2751V80.09C70.0025 83.1561 61.9892 84.9211 53.4632 84.9211C28.237 84.9211 7.51505 69.5806 5.59467 50.1654Z" fill="black"/>
<path d="M86.1597 86.0728C86.8032 85.6088 87.4467 85.1348 88.07 84.6305C88.7035 84.0859 89.3067 83.521 89.8899 82.9462V71.7711C88.7135 72.8402 87.4668 73.8588 86.1597 74.8271V86.0828V86.0728Z" fill="black"/>
<path d="M93.2078 68.3586V79.2513C97.501 73.7747 99.9844 67.3399 99.9844 60.4513V56.6187C98.5868 60.8649 96.2643 64.8286 93.2078 68.3586Z" fill="black"/>
</g>
<defs>
<clipPath id="clip0_15980_6879">
<rect width="100" height="100" fill="white"/>
</clipPath>
</defs>
</svg>
