<svg width="100" height="100" viewBox="0 0 100 100" fill="none" xmlns="http://www.w3.org/2000/svg">
<rect width="100" height="100" fill="#9DE7DE"/>
<path d="M45.2953 100C38.8894 100 34.5197 96.9879 31.881 94.2643C27.4859 89.7165 25.7296 85.1772 25.6617 84.9905L27.2484 84.3881C27.2653 84.4305 28.9623 88.8086 33.1028 93.0849C37.8542 97.9976 48.7656 103.827 68.4416 87.6038L69.5192 88.9105C59.3969 97.2594 51.4128 100 45.2953 100Z" fill="white"/>
<path d="M22.3788 80.9352C20.9703 80.9352 19.2903 80.4855 17.4152 79.1703C12.7232 75.8613 11.1789 70.4565 12.4007 61.6239C13.6904 52.3162 20.02 41.897 20.2915 41.4558L21.7424 42.3382C21.6745 42.44 15.328 52.9101 14.0892 61.853C12.9522 70.0832 14.2419 74.8431 18.3994 77.7788C22.8709 80.9267 25.6793 78.0249 25.7896 77.8976L27.0369 79.0431C27.0369 79.0431 25.2636 80.9352 22.3788 80.9352Z" fill="white"/>
<path d="M77.5956 80.9337C74.7193 80.9337 72.9629 79.0755 72.9375 79.0416L74.1932 77.8962L73.5653 78.4647L74.1847 77.8877C74.3035 78.015 77.112 80.9167 81.5749 77.7689C85.7409 74.8332 87.0306 70.0733 85.8851 61.8431C84.6464 52.8917 78.2913 42.4301 78.2319 42.3283L79.6828 41.4458C79.9543 41.887 86.2839 52.3147 87.5736 61.614C88.7954 70.4466 87.2512 75.8514 82.5591 79.1604C80.684 80.484 79.004 80.9252 77.5956 80.9252V80.9337Z" fill="white"/>
<path d="M79.8218 44.7896C70.3529 28.3887 49.3787 22.7633 32.9777 32.2407C16.5768 41.7097 10.9514 62.6839 20.4288 79.0848C29.8978 95.4858 50.872 101.111 67.2729 91.6337C83.6739 82.1648 89.2993 61.1906 79.8218 44.7896ZM58.7798 76.9212C50.5072 81.6981 39.9267 78.8642 35.1498 70.5916C30.3729 62.319 33.2068 51.7386 41.4794 46.9617C49.752 42.1848 60.3325 45.0187 65.1094 53.2913C69.8862 61.5639 67.0524 72.1443 58.7798 76.9212Z" fill="black"/>
<path d="M79.8218 41.3875C70.3529 24.9865 49.3787 19.3611 32.9777 28.8386C16.5768 38.3075 10.9514 59.2817 20.4288 75.6827C29.8978 92.0836 50.872 97.709 67.2729 88.2316C83.6739 78.7626 89.2993 57.7884 79.8218 41.3875ZM58.7798 73.5106C50.5072 78.2875 39.9267 75.4536 35.1498 67.181C30.3729 58.9084 33.2068 48.328 41.4794 43.5511C49.752 38.7742 60.3325 41.6081 65.1094 49.8807C69.8862 58.1533 67.0524 68.7337 58.7798 73.5106Z" fill="white"/>
<path d="M58.7831 73.5097C57.6716 74.1545 56.5092 74.6467 55.3383 75.02L63.9418 89.9191C65.0703 89.4185 66.1903 88.8585 67.2848 88.2307C68.3793 87.5943 69.423 86.9071 70.4241 86.1774L61.8206 71.2782C60.9128 72.1097 59.9031 72.8649 58.7916 73.5097H58.7831Z" fill="black"/>
<path d="M41.4794 43.5511C42.5909 42.9062 43.7527 42.4137 44.9236 42.0403L36.3201 27.1411C35.1917 27.6417 34.0717 28.2017 32.9771 28.8296C31.8826 29.466 30.839 30.1532 29.8378 30.8829L38.4413 45.7821C39.3492 44.9506 40.3589 44.1954 41.4703 43.5506L41.4794 43.5511Z" fill="black"/>
<path d="M65.1133 49.8802C65.7581 50.9917 66.2502 52.1541 66.6235 53.325L81.5227 44.7215C81.0221 43.5931 80.4621 42.4731 79.8342 41.3786C79.1979 40.284 78.5106 39.2404 77.7809 38.2392L62.8818 46.8427C63.7133 47.7506 64.4684 48.7603 65.1133 49.8717V49.8802Z" fill="black"/>
<path d="M35.1508 67.1812C34.506 66.0697 34.0139 64.9073 33.6405 63.7364L18.7414 72.34C19.242 73.4684 19.802 74.5884 20.4298 75.6829C21.0577 76.7775 21.7534 77.8211 22.4831 78.8223L37.3823 70.2188C36.5508 69.3109 35.7956 68.3012 35.1508 67.1897V67.1812Z" fill="black"/>
<path d="M81.0277 68.0385C83.344 60.5211 82.521 53.1988 79.8992 47.3189C79.8992 47.3189 83.5476 62.9053 75.3853 69.6761C75.3853 69.6761 78.0156 74.5887 73.4678 80.2056C76.6241 77.3717 79.4325 73.2057 81.0192 68.0385H81.0277Z" fill="white"/>
<path d="M20.6469 46.0872C17.533 53.2399 17.5246 60.5537 19.4506 66.6457C19.4506 66.6457 17.5924 50.8726 26.3911 45.0945C26.3911 45.0945 24.3463 39.9528 29.4541 34.9298C26.0262 37.3734 22.7936 41.1746 20.6469 46.0872Z" fill="white"/>
<path d="M31.621 4.48715C31.621 4.48715 31.5786 2.90899 33.3858 2.6799C35.1931 2.45081 35.8209 2.36597 37.2209 1.41568C38.6209 0.465396 41.4633 -1.20611 44.3565 1.37324C44.3565 1.37324 46.2996 2.90899 45.0778 6.79499C45.0778 6.79499 48.1916 7.38042 50.5843 8.5598C52.977 9.73069 56.1757 10.8761 60.469 12.7597C60.469 12.7597 67.6725 15.4918 69.4119 19.1233C69.4119 19.1233 75.733 20.9305 76.2251 21.9232C76.7172 22.9159 68.6398 22.8226 62.955 22.059C62.955 22.059 60.2908 22.3729 58.6194 22.7378C56.9479 23.1026 53.3843 23.5947 48.0135 22.5596C42.6426 21.5244 37.7215 18.0033 36.6355 12.5391C35.5494 7.07497 38.0354 5.40348 38.0354 5.40348C38.0354 5.40348 36.907 4.27503 35.0573 4.41079C33.2076 4.54654 32.9785 4.77562 31.6295 4.50411L31.621 4.48715Z" fill="white"/>
<path d="M76.2355 21.9155C75.7349 20.9227 69.4223 19.1155 69.4223 19.1155C68.4466 13.4732 50.2044 8.36536 50.0008 8.28052C49.882 8.24658 47.5148 7.65265 45.0457 9.50232C42.5173 11.3944 43.2724 13.7362 44.4179 15.4162C45.5803 17.1301 48.5075 19.1494 52.0541 20.4985C56.2031 22.0767 62.9739 22.0597 62.9739 22.0597C68.6587 22.8233 76.7446 22.9166 76.244 21.9239L76.2355 21.9155Z" fill="black"/>
<path d="M35.1421 2.39992C34.667 2.51871 34.124 2.58657 33.3858 2.6799C31.5786 2.90899 31.621 4.48715 31.621 4.48715C32.9785 4.75866 33.1992 4.52956 35.0488 4.39381C35.3034 4.37684 35.5409 4.38533 35.77 4.4023C36.3979 3.53686 38.7481 3.48596 38.7481 3.48596C37.6197 2.90052 36.3979 3.07868 35.4985 2.94293C35.1167 2.88354 35.0658 2.64597 35.1337 2.39143L35.1421 2.39992Z" fill="black"/>
<path d="M61.0199 27.1321C58.0333 27.6497 54.4188 29.4485 50.9146 31.1963C47.7074 32.7914 44.6868 34.2932 42.3111 34.7853C35.8373 36.1089 34.0725 29.7454 33.9961 29.4739L32.3501 29.8981C32.367 29.9745 34.1827 36.6689 40.5548 36.6689C41.1996 36.6689 41.8953 36.6011 42.642 36.4483C45.2298 35.9223 48.3522 34.3611 51.6528 32.7151C55.0467 31.0266 58.5508 29.2788 61.2914 28.8036C63.8538 28.3624 65.4065 28.2776 66.3313 28.32C65.2877 27.76 64.2186 27.2594 63.1241 26.8097C62.4708 26.8946 61.7666 26.9964 61.0029 27.1236L61.0199 27.1321Z" fill="black"/>
<path d="M61.66 25.4958C57.4261 25.5127 53.362 27.4982 49.1111 29.5854C46.8202 30.7139 44.453 31.8678 41.9925 32.7502C39.727 33.5562 37.8604 33.5393 36.4434 32.7078C34.2968 31.4436 33.7962 28.6436 33.7877 28.5842C33.7114 28.126 33.2787 27.8036 32.8205 27.88C32.3538 27.9563 32.0399 28.3891 32.1162 28.8472C32.1417 28.9915 32.7271 32.4702 35.5695 34.1587C36.5622 34.7441 37.6907 35.0411 38.938 35.0411C40.0494 35.0411 41.2628 34.812 42.5609 34.3453C45.1148 33.4375 47.5245 32.2496 49.8578 31.1042C54.8553 28.6521 59.5813 26.3358 64.3836 27.4982C64.5533 27.5406 64.723 27.5151 64.8842 27.4473C63.9763 25.8606 62.4406 25.5382 61.66 25.4873V25.4958Z" fill="white"/>
</svg>
