<svg width="100" height="100" viewBox="0 0 100 100" fill="none" xmlns="http://www.w3.org/2000/svg">
<rect width="100" height="100" fill="#9DE7DE"/>
<path d="M47.2936 52.8789C46.1725 52.7876 45.1261 52.4471 44.1961 51.9239L40.1104 97.1989H55.4567L52.5834 66.2987C50.1668 62.1299 48.2319 57.6041 47.2936 52.8789Z" fill="white"/>
<path d="M47.9495 38.762C44.387 38.762 41.4971 41.6519 41.4971 45.2144C41.4971 48.7769 44.387 51.6668 47.9495 51.6668C51.5121 51.6668 54.402 48.7769 54.402 45.2144C54.402 41.6519 51.5121 38.762 47.9495 38.762Z" fill="white"/>
<path d="M47.2685 45.513L42.0534 47.8382C43.0582 50.0887 45.317 51.6665 47.9412 51.6665C50.5653 51.6665 52.8241 50.097 53.8289 47.8382L48.6138 45.513C48.182 45.322 47.7003 45.322 47.2685 45.513Z" fill="black"/>
<path d="M48.3315 39.7751C48.3315 39.7751 52.4421 40.0574 53.4137 44.2095L48.3315 44.6497C48.3315 44.6497 50.2664 42.1086 48.3315 39.7667V39.7751Z" fill="#9DE7DE"/>
<path d="M47.2936 52.8789C46.1725 52.7876 45.1261 52.4471 44.1961 51.9239L40.1104 97.1989H44.9102L46.2472 60.6185C47.3351 64.8786 49.544 70.6086 53.5633 76.8202L52.5751 66.2987C50.1668 62.1299 48.2319 57.6041 47.2853 52.8872L47.2936 52.8789Z" fill="black"/>
<path d="M75.2947 39.2517C75.5854 39.0025 75.8511 38.7285 76.1169 38.4544C76.7563 37.7901 78.5666 36.2206 81.224 36.5195C82.3285 36.6441 83.1838 37.1507 83.7817 37.6655C85.2848 35.058 88.0917 33.3058 91.3137 33.3058C96.1136 33.3058 100 37.2005 100 41.9921V42.8225H63.9179C70.2873 42.8225 73.3515 40.9291 75.2947 39.2517Z" fill="white"/>
<path d="M39.3875 6.69061C42.2441 6.46639 45.0344 6.69891 47.6834 7.33004C47.5589 7.33004 47.4426 7.35495 47.3264 7.34665C39.1549 7.15565 30.9586 9.79641 26.5158 17.7602C25.7352 18.0758 24.9712 18.4329 24.2072 18.8398C20.6447 20.7332 17.7548 23.3822 15.5957 26.4797C18.4524 15.817 27.7615 7.61238 39.3875 6.69061Z" fill="white"/>
<path d="M24.8632 75.0021C24.8632 75.0021 20.2709 65.0037 5.14882 74.9855L24.8632 75.0021Z" fill="white"/>
<path d="M40.999 41.9253C26.4167 37.1171 8.2801 42.2574 0.822846 44.8318C-0.314841 45.2221 -0.256711 46.8414 0.897585 47.1653C21.1268 52.9035 33.9985 51.0683 41.0654 48.6683C40.5423 47.6303 40.2433 46.4511 40.2433 45.2138C40.2433 44.0346 40.5173 42.9218 40.9907 41.9253H40.999Z" fill="white"/>
<path d="M54.203 40.7463C59.6174 35.606 67.2324 25.0762 71.5756 4.48982C71.8247 3.31892 70.4213 2.5134 69.541 3.33553C63.7944 8.73331 50.7982 22.3939 48.2654 37.5409C50.7069 37.6405 52.8577 38.8862 54.203 40.7546V40.7463Z" fill="white"/>
<path d="M71.4389 78.8422C72.0411 80.7766 72.6175 82.819 73.1618 84.975V84.9833C73.3777 85.8303 72.6967 86.5196 71.966 86.5196C71.7002 86.5196 71.4179 86.4199 71.1771 86.2123C69.7996 85.0174 68.0172 83.3957 66.0523 81.4227C63.9345 82.1584 61.6893 82.6386 59.3503 82.8241C56.4936 83.0483 53.7034 82.8158 51.0543 82.1847C51.1086 82.1847 51.1613 82.1799 51.2132 82.1753C51.2802 82.1692 51.3458 82.1634 51.4114 82.168C55.8798 82.2725 60.3557 81.5301 64.2212 79.5337C58.0156 72.9538 50.7597 63.3783 48.5728 52.8789C50.9976 52.6796 53.1069 51.3592 54.3775 49.4326C58.9719 53.4629 65.1794 61.0421 70.1047 74.8423C70.8794 73.9163 71.5888 72.8895 72.222 71.7545C73.0026 71.4389 73.7666 71.0818 74.5306 70.6749C78.0931 68.7815 80.983 66.1325 83.1421 63.035C81.3777 69.6207 77.1518 75.2687 71.4389 78.8422Z" fill="white"/>
</svg>
