<svg width="100" height="100" viewBox="0 0 100 100" fill="none" xmlns="http://www.w3.org/2000/svg">
<rect width="100" height="100" fill="#9DE7DE"/>
<path d="M47.8433 39.7706C47.8433 39.7706 36.7611 44.0939 22.4429 40.8318L25.0177 35.63L26.4269 33.8293V32.7768C21.8861 33.8989 17.3628 35.2472 12.8829 36.9696C8.40303 38.6832 4.13192 40.71 0 42.9021V43.9547L1.60928 44.5288C4.37549 47.3124 7.28088 50.0004 10.4037 52.5317C13.0743 54.6977 15.8318 56.6897 18.6415 58.56L21.9818 61.7698V60.7173L20.7727 52.4012C34.3602 56.2461 45.8513 52.2794 45.8513 52.2794L47.6346 41.0754L47.8433 40.8231V39.7706Z" fill="white"/>
<path d="M45.8252 8.18556C42.0934 5.16708 38.2138 2.47915 34.2471 0V1.05255L34.5168 1.82675L35.4563 8.31604C21.8687 4.47118 10.3777 8.43782 10.3777 8.43782L8.38563 20.9554V22.0079L15.075 19.3026C19.668 18.5632 26.279 18.1892 33.7861 19.8941L29.802 27.9492V29.0018L56.229 18.8764V17.8238C52.9843 14.4574 49.557 11.2127 45.8252 8.18556Z" fill="black"/>
<path d="M58.4298 31.8984L14.6401 77.8976L52.445 99.7664C53.141 100.167 54.0195 100.045 54.5763 99.4619L96.661 55.2547C97.0524 54.8458 96.9567 54.1847 96.4696 53.8977L58.4385 31.8984H58.4298Z" fill="black"/>
<path d="M95.1126 39.4142L58.4298 31.8984L14.6401 77.8976L51.9144 85.5265C52.5059 85.6482 53.1062 85.4569 53.5237 85.0219L79.3504 57.8904L85.2656 57.325C86.0833 57.2467 86.8488 56.8814 87.4316 56.2898L94.2079 49.3221C94.7212 48.8002 94.8429 48.0086 94.5298 47.3562L92.7987 43.7723L95.5649 40.8669C96.0347 40.3711 95.7824 39.5534 95.1126 39.4142Z" fill="white"/>
<path d="M80.4899 10.0299C80.4899 10.0299 82.7863 17.6501 92.1114 19.7552C92.1114 19.7552 85.048 20.973 84.9088 29.4543C84.9088 29.4543 82.421 22.1039 73.4873 19.7465C73.4873 19.7465 80.9509 18.8592 80.4899 10.0299Z" fill="white"/>
<path d="M82.5252 66.0499C79.5589 61.8658 75.9576 58.308 72.1475 55.7157C76.3403 60.5435 77.8452 66.0847 76.0968 70.321C82.8383 77.193 83.6734 86.1093 77.7234 90.9197C74.3396 93.6511 69.4422 94.4949 64.3795 93.6424C69.3465 95.7562 74.4701 96.1216 78.7325 94.2426C87.7966 90.2499 90.0322 76.6363 82.5252 66.0499Z" fill="white"/>
<path d="M42.1455 63.9448C42.6848 64.084 42.9371 64.719 42.6152 65.1713C42.1194 65.8672 41.3626 66.4849 39.3619 66.7719L22.7124 69.3555L30.6109 61.0307L42.1455 63.9448Z" fill="black"/>
<path d="M45.8253 9.23813C42.0935 6.21965 38.2138 3.53171 34.2471 1.05255L35.4564 9.36861C21.8689 5.52375 10.3778 9.49039 10.3778 9.49039L8.38563 22.0079C8.38563 22.0079 19.468 17.6847 33.7862 20.9467L29.802 29.0018C34.3428 27.8796 38.8663 26.5313 43.3462 24.809C47.826 23.0953 52.097 21.0685 56.229 18.8764C52.9843 15.5099 49.5571 12.2653 45.8253 9.23813Z" fill="white"/>
<path d="M22.4429 41.8843L26.4269 33.8293C21.8861 34.9515 17.3628 36.2997 12.8829 38.0221C8.40303 39.7358 4.13192 41.7626 0 43.9547C3.24465 47.3211 6.67197 50.5657 10.4037 53.5929C14.1355 56.6114 18.0152 59.2993 21.9818 61.7785L20.7727 53.4624C34.3602 57.3073 45.8513 53.3407 45.8513 53.3407L47.8433 40.8231C47.8433 40.8231 36.7611 45.1464 22.4429 41.8843Z" fill="black"/>
<path d="M74.4965 46.6951L70.9735 42.1978C70.7212 41.8759 70.1036 41.7629 69.4686 41.9281L60.6741 44.1898C60.1348 44.329 59.6564 44.6161 59.3867 44.9553L53.602 51.1402L59.3519 52.184L63.0054 48.2L66.5719 48.8437L62.9184 52.8277L68.6248 53.8629L74.4095 47.678C74.6792 47.3301 74.714 46.9647 74.4965 46.6951Z" fill="#9DE7DE"/>
</svg>
