<svg width="100" height="100" viewBox="0 0 100 100" fill="none" xmlns="http://www.w3.org/2000/svg">
<g clip-path="url(#clip0_15980_6893)">
<rect width="100" height="100" fill="#9DE7DE"/>
<path d="M66.8977 74.5127C66.8977 80.344 71.6424 85.0893 77.4731 85.0893C83.3037 85.0893 88.0484 80.344 88.0484 74.5127C88.0484 70.2838 85.5292 66.4644 81.6392 64.7907L80.5709 64.3277L81.5145 63.6511C89.8822 57.6594 94.4844 49.5578 94.4844 40.8419C94.4844 23.5614 76.0042 9.50376 53.2958 9.50376C30.5873 9.50376 12.1073 23.5614 12.1073 40.8419C12.1073 58.1224 30.5873 72.1801 53.2958 72.1801C57.8268 72.1801 62.2956 71.6192 66.5951 70.4974L67.7435 70.2036L67.3874 71.3343C67.0669 72.3581 66.8977 73.4354 66.8977 74.5127Z" fill="white"/>
<path d="M67.6812 100.072C70.4146 100.072 72.6306 97.8561 72.6306 95.1223C72.6306 92.3885 70.4146 90.1723 67.6812 90.1723C64.9477 90.1723 62.7318 92.3885 62.7318 95.1223C62.7318 97.8561 64.9477 100.072 67.6812 100.072Z" fill="white"/>
<path d="M26.1365 15.7414C33.5072 11.0228 42.9787 8.18278 53.2958 8.18278C57.72 8.18278 61.984 8.70809 65.9987 9.6696C60.3728 7.52401 54.0436 6.30429 47.3317 6.30429C36.7831 6.30429 27.1513 9.29567 19.7985 14.219L26.1365 15.7325V15.7414Z" fill="black"/>
<path d="M20.5818 20.0181C21.5521 19.1189 22.5937 18.2642 23.6797 17.454L17.4128 15.9584C16.3713 16.7774 15.3832 17.6321 14.4574 18.5313L20.5818 20.0181Z" fill="black"/>
<path d="M65.5805 74.5077C65.5805 73.6708 65.6695 72.8428 65.8386 72.0326C64.0316 72.46 62.1799 72.7805 60.3195 73.0208C60.7735 77.9352 64.3876 81.9237 69.1055 82.9476C66.9246 80.7931 65.5805 77.8017 65.5805 74.5077Z" fill="black"/>
<path d="M10.7899 40.8369C10.7899 34.8987 12.8729 29.3255 16.5048 24.5179L10.5317 23.0668C7.31813 27.5983 5.48438 32.7887 5.48438 38.3085C5.48438 50.0158 13.7096 60.2452 25.9763 65.8184C16.7006 59.8268 10.7988 50.8526 10.7988 40.8369H10.7899Z" fill="black"/>
<path d="M61.4144 95.1201C61.4144 92.1644 63.4707 89.6893 66.2214 89.0305C65.2778 88.3183 64.1117 87.8909 62.8477 87.8909C59.7498 87.8909 57.2395 90.4016 57.2395 93.4998C57.2395 96.598 59.7498 99.1086 62.8477 99.1086C61.9486 98.0225 61.4144 96.6336 61.4144 95.1201Z" fill="black"/>
<path d="M56.7053 14.0875C56.7053 14.0875 70.7968 13.5 81.1139 22.9816C91.4311 32.4631 89.1166 46.7612 89.1166 46.7612C89.1166 46.7612 87.8971 23.7205 68.7582 23.0528C68.7582 23.0528 67.5744 16.3222 56.6964 14.0875H56.7053Z" fill="#9DE7DE"/>
<path d="M22.8339 69.5982C22.8339 69.5982 25.184 77.3971 34.7267 79.5516C34.7267 79.5516 27.4984 80.798 27.356 89.4783C27.356 89.4783 24.8101 81.9555 15.668 79.5428C15.668 79.5428 23.3057 78.6347 22.8339 69.5982Z" fill="white"/>
<path d="M82.0041 0.0811772C82.0041 0.0811772 83.6421 5.50305 90.2739 6.99874C90.2739 6.99874 85.2444 7.86232 85.1465 13.8985C85.1465 13.8985 83.375 8.67247 77.0191 6.98983C77.0191 6.98983 82.3335 6.3577 82.0041 0.0722656V0.0811772Z" fill="white"/>
</g>
<defs>
<clipPath id="clip0_15980_6893">
<rect width="100" height="100" fill="white"/>
</clipPath>
</defs>
</svg>
