<svg width="100" height="100" viewBox="0 0 100 100" fill="none" xmlns="http://www.w3.org/2000/svg">
<rect width="100" height="100" fill="#9DE7DE"/>
<path d="M7.68691 40.1049C7.68691 40.1049 3.90452 26.5965 12.0096 20.2925C20.1147 13.9886 35.064 9.48575 49.473 15.7897C63.882 22.0936 62.8013 34.5214 60.0997 39.9248L7.68691 40.1049Z" fill="black"/>
<path d="M57.7332 89.7162L28.0719 72.5563C27.155 72.0242 26.9748 70.7798 27.7035 70.0102L65.257 30.541C66.0429 29.7223 67.2874 29.5422 68.2698 30.1071L98.3649 47.5207C100.199 48.585 100.559 51.0738 99.0936 52.613L64.7494 88.7092C62.9237 90.6249 60.0174 91.0424 57.725 89.7162H57.7332Z" fill="white"/>
<path d="M82.1014 60.0464C81.6265 56.7307 78.4091 52.9811 73.718 50.2712C66.4561 46.0713 58.1792 45.5064 54.8717 48.994C53.7828 50.132 53.3407 51.6139 53.5781 53.2758C54.0529 56.5915 57.2704 60.3411 61.9615 63.051C66.0222 65.4007 70.4105 66.6123 74.0618 66.6123C76.9355 66.6123 79.3588 65.8591 80.8161 64.3282C81.9049 63.1902 82.347 61.7084 82.1096 60.0464H82.1014ZM78.4991 55.6418C77.9916 55.6091 77.4758 55.5681 76.9518 55.4781C76.9518 55.2407 76.9272 54.9951 76.8945 54.7577C76.8454 54.4465 76.7717 54.1436 76.6816 53.8407C77.3611 54.422 77.967 55.0278 78.4991 55.6336V55.6418ZM75.6828 54.9378C75.6992 55.036 75.6992 55.1342 75.7074 55.2243C74.2992 54.8886 72.8829 54.3647 71.5321 53.6606L73.5133 51.5811C74.7249 52.4162 75.4945 53.5869 75.691 54.9296L75.6828 54.9378ZM66.8573 56.7962L65.0316 58.7201C63.427 57.8523 61.7241 57.2219 60.0294 56.8453C60.2095 55.7646 60.7253 54.684 61.544 53.7179L66.8573 56.788V56.7962ZM62.4364 52.8173C63.4597 51.9168 64.6796 51.2454 65.9731 50.8279C66.9065 51.9741 68.1345 53.0302 69.5672 53.939L67.7251 55.8711L62.4282 52.8092L62.4364 52.8173ZM67.9462 57.4266L73.2513 60.4967C72.2279 61.3972 70.9999 62.0604 69.7064 62.4779C68.7731 61.3318 67.545 60.2756 66.1123 59.3587L67.9544 57.4266H67.9462ZM68.8222 56.5096L70.656 54.5857C72.2607 55.4535 73.9554 56.0839 75.6583 56.4605C75.4781 57.5412 74.9624 58.6219 74.1437 59.5879L68.8304 56.5178L68.8222 56.5096ZM72.3917 50.9835L70.435 53.0384C69.2069 52.2852 68.159 51.4174 67.3158 50.4922C67.9134 50.3858 68.5111 50.3203 69.1087 50.3203C70.2631 50.3203 71.3847 50.5414 72.3917 50.9753V50.9835ZM68.2982 49.1496C67.6842 49.1905 67.062 49.2888 66.4561 49.4361C66.2269 49.1087 66.0386 48.7812 65.8585 48.4537C66.6608 48.6338 67.4795 48.8712 68.2982 49.1496ZM61.5768 47.9297C62.4609 47.9297 63.3942 48.0116 64.3685 48.159C64.5895 48.7157 64.8761 49.2642 65.2199 49.8045C63.779 50.3203 62.4282 51.1226 61.3229 52.1787L56.3698 49.3133C57.6224 48.3882 59.4481 47.9379 61.5849 47.9379L61.5768 47.9297ZM54.7898 53.0957C54.626 51.9823 54.8552 51.008 55.4529 50.2057L60.4633 53.1039C59.5873 54.1927 59.0306 55.4044 58.8259 56.6243C57.9417 56.4851 57.0657 56.4278 56.2225 56.436C55.4447 55.3062 54.9535 54.1682 54.798 53.0957H54.7898ZM57.1722 57.6558C57.688 57.6886 58.2037 57.7377 58.7277 57.8278C58.7277 58.0652 58.7522 58.3108 58.785 58.5482C58.8341 58.8593 58.9078 59.1622 58.9979 59.4651C58.3183 58.8757 57.7043 58.278 57.1722 57.664V57.6558ZM59.9966 58.3681C59.9803 58.2699 59.9803 58.1716 59.9721 58.0815C61.3803 58.4172 62.7966 58.9412 64.1474 59.6453L62.1662 61.7247C60.9545 60.8897 60.185 59.7189 59.9885 58.3763L59.9966 58.3681ZM63.2796 62.3306L65.2445 60.2674C66.4725 61.0288 67.5287 61.8885 68.3719 62.8218C66.6117 63.1411 64.8106 63.0019 63.2796 62.3387V62.3306ZM67.3403 64.1481C67.9707 64.0989 68.5929 64.0171 69.2151 63.8697C69.4444 64.1972 69.6409 64.5247 69.8128 64.8521C69.0023 64.6638 68.1754 64.4346 67.3403 64.1481ZM71.311 65.1469C71.0899 64.5902 70.8034 64.0416 70.4514 63.5013C71.8923 62.9855 73.2431 62.1914 74.3484 61.1353L79.3178 64.0089C77.5495 65.3188 74.6185 65.6708 71.311 65.1469ZM80.2266 63.1083L75.2162 60.2102C76.0922 59.1213 76.6489 57.9096 76.8536 56.6898C77.7296 56.8289 78.6056 56.9026 79.4488 56.9026C79.4488 56.9026 79.4652 56.9026 79.4734 56.9026C80.243 58.0242 80.7342 59.154 80.8897 60.2183C81.0535 61.3399 80.8242 62.306 80.2266 63.1083Z" fill="#9DE7DE"/>
<path d="M55.345 74.5124L49.4832 71.123C48.8282 70.7464 48.0013 70.861 47.4774 71.4096L45.1113 73.8984C44.6365 74.3978 44.7511 75.2083 45.3488 75.5522L51.2106 78.9415C51.8656 79.3181 52.6925 79.2035 53.2164 78.655L55.5825 76.1662C56.0573 75.6668 55.9426 74.8563 55.345 74.5124Z" fill="#9DE7DE"/>
<path d="M34.1232 56.1244C18.6171 56.1244 5.95188 46.6767 5.19869 34.7975C1.92391 37.9003 0 41.6663 0 45.7352C0 56.3045 12.9681 64.8763 28.9736 64.8763C31.4952 64.8763 33.9348 64.6634 36.2681 64.2622C51.2584 63.4108 63.0803 53.7175 63.0803 41.8792V36.484H62.8511C61.0664 47.5609 48.8924 56.1244 34.1232 56.1244Z" fill="black"/>
<path d="M59.4689 36.7962C59.4689 47.6439 48.1218 53.604 34.1222 53.604C20.1225 53.604 8.77537 47.6521 8.77537 36.7962C8.77537 25.9404 20.1225 17.1476 34.1222 17.1476C48.1218 17.1476 59.4689 25.9404 59.4689 36.7962Z" fill="white"/>
<path d="M34.1252 11.228C50.1225 11.228 63.0824 21.2816 63.0824 33.6766C63.0824 46.0717 50.1143 56.1252 34.1252 56.1252C18.1361 56.1252 5.168 46.0717 5.168 33.6766C5.168 21.2816 18.1361 11.228 34.1252 11.228ZM34.1252 10C17.4812 10 3.93996 20.6185 3.93996 33.6766C3.93996 46.7348 17.4812 57.3532 34.1252 57.3532C50.7692 57.3532 64.3104 46.7348 64.3104 33.6766C64.3104 20.6185 50.7692 10 34.1252 10Z" fill="#9DE7DE"/>
<path d="M45.9917 24.1544L31.1487 34.0279L38.3696 38.4325L45.9917 24.1544Z" fill="white"/>
<path d="M23.5247 48.3048L31.1467 34.0267L38.3676 38.4313L23.5247 48.3048Z" fill="white"/>
<path d="M45.3584 22.2964L30.5155 32.1617L34.1259 34.364L37.7364 36.5744L45.3584 22.2964Z" fill="black"/>
<path d="M22.8914 46.4403L30.5135 32.1623L34.1239 34.3646L37.7343 36.575L22.8914 46.4403Z" fill="black"/>
<path d="M14.3957 37.9171C14.3957 31.6213 20.1266 26.2916 28.0598 24.4168C28.2317 22.0262 30.5486 20.045 33.6678 19.431C33.6432 19.431 33.6186 19.431 33.6023 19.431C21.5265 19.431 11.7431 26.4881 11.7431 35.1908C11.7431 39.71 14.3793 43.7789 18.6038 46.6525C15.9758 44.2456 14.4039 41.2164 14.4039 37.9253L14.3957 37.9171Z" fill="white"/>
<path d="M34.1259 35.9374C35.2156 35.9374 36.099 35.2519 36.099 34.4064C36.099 33.5609 35.2156 32.8755 34.1259 32.8755C33.0363 32.8755 32.1529 33.5609 32.1529 34.4064C32.1529 35.2519 33.0363 35.9374 34.1259 35.9374Z" fill="white"/>
<path d="M34.1252 14.5028C48.2886 14.5028 59.8076 23.1073 59.8076 33.6766C59.8076 44.246 48.2886 52.8504 34.1252 52.8504C19.9618 52.8504 8.44278 44.246 8.44278 33.6766C8.44278 23.1073 19.9618 14.5028 34.1252 14.5028ZM34.1252 11.228C18.1279 11.228 5.168 21.2816 5.168 33.6766C5.168 46.0717 18.1361 56.1252 34.1252 56.1252C50.1143 56.1252 63.0824 46.0717 63.0824 33.6766C63.0824 21.2816 50.1143 11.228 34.1252 11.228Z" fill="white"/>
<path d="M48.7443 61.1598C50.8319 60.2101 52.764 59.064 54.4751 57.7541V51.1554C52.7395 52.3998 50.8156 53.4886 48.7443 54.3892V61.1598Z" fill="#9DE7DE"/>
<path d="M56.8033 49.2817V55.733C57.5483 55.0044 58.2441 54.243 58.8664 53.4489V47.2186C58.2278 47.939 57.5401 48.6268 56.8033 49.2817Z" fill="#9DE7DE"/>
</svg>
