<svg width="100" height="100" viewBox="0 0 100 100" fill="none" xmlns="http://www.w3.org/2000/svg">
<g clip-path="url(#clip0_15980_6935)">
<rect width="100" height="100" fill="#9DE7DE"/>
<path d="M31.8454 95.3632C31.8454 95.3632 36.0408 92.0503 39.0192 91.3452L41.819 91.5236L46.7122 89.6039L49.1631 87.6841C49.1631 87.6841 50.3886 86.6392 51.4353 86.4608C52.482 86.2825 58.0815 87.3358 58.0815 87.3358C58.0815 87.3358 61.2302 88.3806 62.8045 91.1753C62.8045 91.1753 65.0766 91.1753 65.7745 94.14C65.7745 94.14 67.8764 93.7917 69.9698 96.0597C69.9698 96.0597 70.4974 97.4528 66.9998 97.8096C63.5023 98.1579 62.8045 99.3811 60.0047 99.5595C57.205 99.7379 52.3117 97.988 52.3117 97.988L44.9677 97.4613C44.9677 97.4613 40.7723 98.1579 38.1427 97.4613C35.5216 96.7648 31.8454 95.3632 31.8454 95.3632Z" fill="black"/>
<path d="M43.1465 51.1283C41.3254 51.1283 40.7297 51.5105 40.5255 51.7654C40.4574 51.8588 40.4319 51.9777 40.4234 52.0966L39.8787 93.6436C40.6446 93.6691 41.9296 93.8135 42.9508 94.4166C42.9508 94.4166 44.1762 92.9641 45.5038 92.2505L45.8612 51.9947C45.8612 51.9947 45.9208 51.1283 43.1465 51.1283Z" fill="white"/>
<path d="M72.0293 64.9418C72.3612 64.6615 72.659 64.3471 72.9654 64.0413C73.6887 63.2853 75.7397 61.5185 78.7437 61.8583C79.9946 62.0027 80.9648 62.5718 81.6371 63.1494C83.3305 60.2103 86.5132 58.2226 90.1555 58.2226C95.5848 58.2226 99.9844 62.6143 99.9844 68.0338V68.9767H59.1623C66.3702 68.9767 69.8253 66.8361 72.0208 64.9418H72.0293Z" fill="white"/>
<path d="M28.9351 53.5419C28.9351 53.5419 24.2291 43.3145 8.73259 53.525L28.9351 53.5419Z" fill="white"/>
<path d="M-0.015625 11.0174C-0.015625 11.0174 1.68635 8.63895 4.65631 7.73003C7.09014 6.98251 9.74531 7.74702 11.5409 9.54787L11.5834 9.59884C11.5834 9.59884 12.128 6.31993 14.9703 3.96693C16.3064 2.86263 18.0169 2.24253 19.7444 2.36145C20.5188 2.41242 21.3528 2.61629 22.0591 3.09199C22.0591 3.09199 19.8381 -0.152935 15.9065 0.722007C14.5024 1.03631 13.2513 1.85178 12.3067 2.93059C11.6514 3.66962 10.9707 4.67199 10.6644 5.81875C10.6644 5.81875 4.17126 1.80081 -0.00710678 11.0174H-0.015625Z" fill="white"/>
<path d="M51.9631 56.2399C50.627 62.4749 49.4867 72.9062 49.8271 90.2097C49.8441 90.9063 50.4058 91.4584 51.1036 91.4584H51.129C51.8354 91.4414 52.3971 90.8638 52.3801 90.1587C52.0822 74.9194 52.9757 65.1592 54.065 59.0176C53.4863 58.3296 52.6778 57.3187 51.9715 56.2399H51.9631ZM80.4457 29.8557C80.4457 29.8557 77.0758 26.9506 73.4251 28.1398C73.4251 28.1398 66.132 30.187 69.4594 37.5008C72.7868 44.8062 86.4282 49.7925 86.4282 49.7925C86.4282 49.7925 91.7554 42.1559 92.0872 32.8543C92.4191 23.5527 81.7733 24.8779 80.4372 29.8642L80.4457 29.8557ZM85.7389 45.919C85.7389 45.919 84.6156 38.7241 81.4329 31.716C81.4329 31.716 81.8073 28.5391 84.99 27.7915C84.99 27.7915 83.7731 29.6603 84.2411 31.9029C84.7092 34.1455 87.5175 38.6306 85.7389 45.919ZM88.2068 16.4937L86.8537 14.6929C84.3603 11.38 81.3818 8.44939 77.9353 6.14736C70.3785 1.10158 66.4469 2.6306 64.7534 4.0492C63.5876 5.01758 63.2812 6.76745 64.2343 7.95669C65.5278 9.57916 68.251 10.1908 68.251 10.1908C68.251 10.1908 57.937 8.19455 62.2601 14.8373C66.5831 21.4801 88.2153 16.5022 88.2153 16.5022L88.2068 16.4937ZM72.4464 5.78208C72.4464 5.78208 73.4506 7.97368 73.2379 9.73206C73.2379 9.73206 75.6036 7.74433 79.816 8.7297C79.816 8.7297 77.4247 8.87412 77.0077 10.0634C77.0077 10.0634 80.2415 9.71507 84.2411 13.4272C84.2411 13.4272 77.714 11.3205 70.4125 10.4796L69.1275 10.2927C69.1275 10.2927 72.2422 8.37293 72.4549 5.78208H72.4464ZM28.2714 21.8623V18.5155C28.2714 18.5155 15.7023 16.5617 13.4727 33.8482C13.4727 33.8482 30.7904 31.8944 38.611 23.5357C46.4316 15.1771 31.0712 18.5155 28.2799 21.8623H28.2714ZM24.2377 29.38C18.434 30.4079 18.0596 30.4079 16.281 31.4357C16.281 31.4357 18.5276 28.6325 21.6167 27.1375C24.7058 25.6424 27.046 24.1474 27.8885 22.7458C27.8885 22.7458 28.3565 24.0539 27.2332 25.1752C26.1099 26.2965 27.3269 28.1653 32.2882 25.6424C32.2882 25.6424 30.0415 28.3522 24.2377 29.38ZM58.5583 42.8609C59.1199 40.6183 59.5539 38.1209 59.7071 35.4027C59.8092 33.5933 59.6816 32.2257 59.3837 31.2149C60.6687 27.0865 62.3706 22.7797 63.6982 19.6452C63.1706 18.8977 62.5664 17.9463 62.0898 16.91C60.8474 19.7472 58.9838 24.2323 57.4775 28.7854C56.3542 28.3267 54.9926 28.624 53.8438 29.0912C52.7715 20.5032 50.8397 13.6226 50.0058 10.8873C51.1716 8.85712 53.2905 3.4036 42.3979 3.60747C29.0288 3.86231 23.3017 10.8618 23.3017 10.8618C23.3017 10.8618 36.7899 8.39842 47.3677 11.0147C48.0315 13.1214 50.3122 20.8515 51.4184 30.4164C51.4184 30.4164 47.9378 30.1785 45.7082 32.1917C43.9807 29.5839 42.4831 27.6641 41.2236 26.2455C41.2236 27.1714 41.1129 28.3692 40.7811 29.6943C41.7767 30.9685 42.9255 32.5655 44.2105 34.5617C44.0147 35.1988 43.8956 35.9293 43.8956 36.7703C43.8956 43.6594 53.4523 54.6854 53.4523 54.6854C53.4523 54.6854 53.5544 54.541 53.7331 54.2776L57.3243 48.977C60.3198 44.1011 64.0387 40.3805 67.2809 37.7302C67.2384 36.8298 67.2809 35.6066 67.5532 34.2559C64.83 36.2776 61.5878 39.1233 58.5583 42.8524V42.8609ZM53.4438 50.1917C53.4438 50.1917 53.9374 48.17 53.0949 43.1243C52.2524 38.0785 51.1546 37.1356 51.3844 32.2512C51.3844 32.2512 52.4141 36.9232 54.4735 36.7363C54.4735 36.7363 55.5202 36.7278 56.6265 35.8019C56.6265 35.8019 57.7498 40.2871 53.4438 50.1917Z" fill="white"/>
<path d="M54.2863 67.5037V65.6519C54.2863 65.0488 53.8437 64.5561 53.2821 64.4541C53.1544 65.5415 53.0438 66.7052 52.9417 67.9454C52.9246 68.1833 52.78 68.4041 52.5758 68.5146C48.0485 70.9695 43.6234 71.7765 41.1895 72.0398C40.1002 72.0993 40.1768 71.4962 40.1768 71.4962L40.2023 69.6358C40.1257 69.6868 40.0577 69.7378 39.9896 69.7802C39.5301 70.0945 39.2663 70.6212 39.2663 71.1734V75.684C39.2663 76.3296 39.8194 76.7713 40.4662 76.7628C46.0061 76.6609 52.0141 73.7642 53.6225 72.5155C54.048 72.1842 54.2948 71.7 54.2948 71.0969V67.4952L54.2863 67.5037ZM50.6525 64.8364C48.908 65.2441 47.24 65.8642 45.7338 66.5353L45.6913 70.8506C47.3933 70.1455 48.9421 69.6698 50.2356 69.364C50.3547 67.6566 50.4994 66.289 50.6525 64.8279V64.8364Z" fill="black"/>
</g>
<defs>
<clipPath id="clip0_15980_6935">
<rect width="100" height="100" fill="white"/>
</clipPath>
</defs>
</svg>
