<svg width="100" height="100" viewBox="0 0 100 100" fill="none" xmlns="http://www.w3.org/2000/svg">
<g clip-path="url(#clip0_15980_6964)">
<rect width="100" height="100" fill="#9DE7DE"/>
<path d="M97.2353 32.7034C97.1188 31.8981 96.5949 31.1899 95.7606 30.7048L62.6479 11.3785C61.9397 10.9711 61.1053 10.777 60.2709 10.777C58.9515 10.777 57.6223 11.2621 56.7394 12.1838L44.9225 24.5343C31.1264 39.1648 17.1362 53.6013 3.24303 68.1348C2.60271 68.8042 2.31165 69.5998 2.42807 70.3759C2.54449 71.1812 3.0684 71.8894 3.91246 72.3745L37.0154 91.7008C38.8394 92.7583 41.488 92.3993 42.9239 90.8955L96.4106 34.9445C97.0509 34.2848 97.342 33.4795 97.2256 32.7034H97.2353Z" fill="white"/>
<path d="M98.661 40.1531L98.0789 34.8461C97.8848 35.1954 97.652 35.535 97.3512 35.8454L43.8645 91.7964C42.7488 92.9606 41.0509 93.5913 39.3725 93.5913C38.315 93.5913 37.2575 93.339 36.3649 92.8248L3.26195 73.4986C2.18504 72.8777 1.4768 71.9657 1.21484 70.9082L1.92308 77.457C2.02981 78.4563 2.65073 79.4071 3.73734 80.028L37.4612 99.7132C39.5374 100.916 42.5353 100.509 44.1653 98.8012L97.652 42.8502C98.4281 42.0353 98.758 41.0748 98.6513 40.1628L98.661 40.1531Z" fill="black"/>
<path d="M29.6125 72.8402C31.7857 74.0918 32.1641 76.5657 30.4565 78.3509C28.749 80.136 25.6056 80.5629 23.4324 79.3114C21.2591 78.0598 20.871 75.5859 22.5786 73.8007C24.2861 72.0155 27.4296 71.5887 29.6125 72.8402Z" fill="#9DE7DE"/>
<path d="M79.762 61.9357C79.762 61.9357 82.4882 70.9682 93.5193 73.4616C93.5193 73.4616 85.1563 74.9072 84.9913 84.9487C84.9913 84.9487 82.0516 76.2461 71.4571 73.4519C71.4571 73.4519 80.3053 72.3944 79.762 61.9357Z" fill="black"/>
<path d="M70.4869 21.5529C71.234 21.9894 71.3698 22.8432 70.778 23.4641C70.1862 24.0851 69.0899 24.2306 68.3428 23.794C67.5958 23.3574 67.4599 22.5036 68.0517 21.8827C68.6436 21.2618 69.7302 21.1163 70.4869 21.5529Z" fill="#9DE7DE"/>
<path d="M81.0421 27.6491C81.7988 28.0857 81.9249 28.9395 81.3428 29.5604C80.751 30.1813 79.6547 30.3269 78.9076 29.8903L72.8536 26.3976C72.1066 25.961 71.9708 25.1072 72.5626 24.4863C73.1544 23.8654 74.241 23.7199 74.9978 24.1565L81.0518 27.6491H81.0421Z" fill="#9DE7DE"/>
<path d="M84.0117 53.5031C84.264 53.9688 84.7588 54.0464 85.1178 53.668L90.3859 48.1767C90.7449 47.808 90.8322 47.1192 90.5896 46.6438C90.3374 46.1781 89.8426 46.1005 89.4836 46.4789L84.2155 51.9702C83.8565 52.3388 83.7595 53.0277 84.0117 53.5031Z" fill="#9DE7DE"/>
<path d="M76.2104 61.6322C76.4627 62.0979 76.9575 62.1755 77.3164 61.7971L82.5846 56.3059C82.9435 55.9275 83.0406 55.2484 82.7883 54.773C82.5361 54.3073 82.0413 54.2296 81.6823 54.608L76.4141 60.0993C76.0552 60.468 75.9582 61.1568 76.2104 61.6322Z" fill="#9DE7DE"/>
<path d="M39.0135 0.404297C39.0135 0.404297 40.7792 6.24485 47.9198 7.86508C47.9198 7.86508 42.5062 8.79646 42.3994 15.3065C42.3994 15.3065 40.4882 9.67934 33.6386 7.86508C33.6386 7.86508 39.3627 7.18594 39.0038 0.413999L39.0135 0.404297Z" fill="black"/>
<path d="M18.4743 63.0577C15.0011 62.8345 9.7135 61.2822 9.7135 61.2919C9.7135 61.3016 17.5333 53.2878 17.5333 53.2878C17.9989 52.3855 42.6612 26.103 42.6612 26.103C48.1525 37.6774 58.0485 38.0946 58.0485 38.0946L57.8253 43.6635C57.8253 43.6635 42.5351 64.6003 18.4743 63.0577Z" fill="black"/>
<path d="M58.0491 38.1054C56.1863 37.3971 54.343 36.5628 52.6645 35.3888C47.0374 31.4595 44.0201 25.6966 43.632 19.7008C37.0638 20.8359 30.1755 19.9531 24.5192 15.9074C22.8311 14.6946 21.434 13.1423 20.2019 11.6676C19.8429 12.0654 19.3966 12.4244 19.0765 12.8513C9.00587 26.2399 0.55549 40.6085 10.597 57.7615C28.8366 63.0005 45.5821 52.1926 57.0692 39.3666C57.4282 38.9688 57.6998 38.5128 58.0394 38.0957C58.0394 38.0957 58.0394 38.0957 58.0491 38.0957V38.1054ZM12.2463 55.8696C3.79593 40.036 11.4896 28.5878 20.3668 15.3641C21.2788 16.3342 22.1908 17.1492 23.1319 17.8283C28.3612 21.5927 34.8227 22.6987 41.4782 22.1748C42.5454 28.0833 46.0381 33.4096 51.1995 37.0479C52.1309 37.7076 53.1496 38.2994 54.3041 38.8621C41.6237 50.2716 30.3986 59.3332 12.256 55.8696H12.2463Z" fill="white"/>
<path d="M40.6145 23.1758C33.9784 23.4959 27.711 22.4481 22.5302 18.7032C21.8413 18.2084 21.1816 17.6457 20.5316 17.0151C12.382 29.1328 4.87266 40.484 13.0126 54.9981C30.1171 58.0251 40.5563 49.7396 52.674 39.1257C51.9076 38.7085 51.1993 38.272 50.5299 37.7966C45.4461 34.1972 41.8952 29.026 40.6242 23.1758H40.6145Z" fill="white"/>
<path d="M20.6864 19.3609C20.6864 19.3609 27.1964 24.0664 35.4915 24.3283C35.4915 24.3283 29.9808 25.0269 27.3322 26.6956C27.3322 26.6956 20.1431 21.3886 13.8368 29.6062C13.8368 29.6062 17.5041 23.5522 20.6864 19.3609Z" fill="#9DE7DE"/>
<path d="M13.2551 39.5999C14.3902 44.7419 25.984 51.1354 29.7484 50.3108C29.7484 50.3108 31.3589 47.8174 30.7865 46.3524C30.214 44.8874 27.2744 41.4529 27.2744 41.4529C25.0235 42.4134 22.4234 41.2977 22.1517 38.2707C20.0464 37.5625 17.7665 36.796 16.3888 37.0774C14.982 37.1841 14.0894 38.3386 13.2551 39.5902V39.5999Z" fill="black"/>
<path d="M30.496 30.8694C30.496 30.8694 29.0213 29.8507 27.1294 30.3552C25.2375 30.8597 24.083 33.0233 24.083 33.0233C23.5688 33.8091 22.0747 38.5631 24.3449 39.9989C26.6152 41.4348 29.6422 38.8735 29.6422 38.8735C29.6422 38.8735 31.4953 37.5929 32.1259 34.9054C32.7565 32.218 30.4862 30.8694 30.4862 30.8694H30.496Z" fill="black"/>
</g>
<defs>
<clipPath id="clip0_15980_6964">
<rect width="100" height="100" fill="white"/>
</clipPath>
</defs>
</svg>
