<svg width="100" height="100" viewBox="0 0 100 100" fill="none" xmlns="http://www.w3.org/2000/svg">
<rect width="100" height="100" fill="#F5B2F2"/>
<path d="M60.0484 71.7841C59.0985 71.5363 58.3221 70.7103 58.3221 69.5704L58.2478 33.0619C57.81 33.0372 57.3805 32.9793 56.9592 32.8472C46.081 29.4772 38.259 26.5697 33.9143 24.8682L27.8846 59.163L45.7176 67.6459L60.0484 71.8088V71.7841ZM57.0749 60.848L54.44 63.0451L53.647 54.521C53.4984 52.3321 53.2754 50.7215 53.0524 49.5568C52.7302 47.8801 52.0034 46.3107 50.8965 45.0139C46.0398 39.3146 38.9693 38.8769 38.9693 38.8769C52.4081 33.6071 57.0666 41.9082 57.0666 41.9082V60.8398L57.0749 60.848Z" fill="black"/>
<path d="M78.7072 15.708L54.4728 8.53842C53.9028 8.37323 53.3164 8.28237 52.7382 8.28237C52.16 8.28237 51.6149 8.35671 51.078 8.51365C46.915 9.71132 36.4333 13.3126 31.1057 20.383C30.5193 21.1595 30.8496 22.291 31.75 22.6627C35.2108 24.0917 43.9167 27.503 57.3307 31.666C57.7189 31.7816 58.1154 31.8477 58.5118 31.8477C59.1396 31.8477 59.7674 31.699 60.3373 31.4099L79.1119 21.7955C79.88 21.4072 80.3591 20.6143 80.3591 19.7553V17.9133C80.3591 16.8974 79.6901 16.0053 78.7237 15.7162L78.7072 15.708Z" fill="white"/>
<path d="M20.1037 53.8357L19.9881 53.7944C19.955 53.7861 19.9137 53.7696 19.8807 53.7613L15.8664 52.5306C15.123 52.2663 14.3219 52.1176 13.4546 52.1341C7.78833 52.2498 1.93209 58.7833 0.379242 66.7375C-0.991891 73.7501 1.46955 79.309 5.91334 80.7049L9.59725 81.8283C10.415 82.1587 11.307 82.3486 12.2734 82.3238C17.9397 82.2082 23.7959 75.6747 25.3487 67.7205C26.6868 60.8565 24.3906 55.1985 20.0955 53.8357H20.1037Z" fill="black"/>
<path d="M11.7614 78.4913L24.0355 84.0832C25.8857 84.9257 28.0416 84.7027 29.677 83.4885L50.8387 67.8443C52.0777 66.9275 52.755 65.4407 52.6393 63.9044L51.6564 50.8208C51.5077 48.7972 50.6157 46.8974 49.1702 45.485C44.4869 40.9338 39.5062 40.017 36.6152 39.9344C35.2028 39.8931 33.7987 40.2565 32.568 40.9668C23.5978 46.1788 16.7916 51.9607 13.4299 55.0499C11.7697 56.5779 10.6298 58.5685 10.159 60.7657C9.47345 63.9787 8.77133 69.1742 9.44863 75.3278C9.60557 76.7154 10.4894 77.9131 11.7614 78.4913Z" fill="white"/>
<path d="M51.8298 67.9848L51.7142 67.9435C51.6812 67.9352 51.6399 67.9187 51.6069 67.9104L47.5926 66.6797C46.8492 66.4154 46.048 66.2667 45.1807 66.2833C39.5144 66.3989 33.6583 72.9324 32.1054 80.8866C30.7343 87.8992 33.1957 93.4581 37.6395 94.8623L41.3234 95.9856C42.1411 96.316 43.0331 96.506 43.9995 96.4812C49.6658 96.3656 55.522 89.832 57.0749 81.8778C58.413 75.0139 56.125 69.3476 51.8298 67.9848ZM53.2175 81.9439C52.2429 86.9081 48.592 90.9884 45.0568 91.0545C42.0089 91.1123 40.0513 88.1801 40.1835 84.1906C40.6378 85.8095 41.7446 86.8585 43.2479 86.8255C45.635 86.7759 48.0964 84.0254 48.7489 80.6801C49.4015 77.3349 48.0056 74.6587 45.6185 74.7083C45.1972 74.7166 44.776 74.8157 44.3547 74.9809C45.6515 73.8162 47.1218 73.1059 48.5672 73.0811C52.1025 73.015 54.1922 76.9797 53.2175 81.9439Z" fill="black"/>
<path d="M31.9234 64.1029L28.2643 66.5973C27.0749 67.4068 25.5716 67.5803 24.2335 67.0516L22.598 66.4156C21.8134 66.11 20.9626 66.6882 20.9626 67.5307V68.8192C20.9626 69.2983 21.2434 69.7278 21.6812 69.9178L24.2583 71.0494C24.2583 71.0494 26.8931 72.2388 29.7923 69.5957C29.7923 69.5957 32.3199 68.1006 32.5511 64.4663C32.5677 64.1359 32.2042 63.9129 31.9234 64.1029Z" fill="black"/>
<path d="M13.2809 62.9219L9.9605 61.493C9.77053 62.4346 9.43186 65.053 9.43186 65.053L13.1405 66.5728C13.6691 66.7875 14.2391 66.3993 14.2391 65.8376V64.3922C14.2391 63.7562 13.8591 63.178 13.2727 62.9219H13.2809Z" fill="black"/>
<path d="M78.6824 23.3896L72.9005 26.3549V39.9011C72.9005 40.8096 72.5123 41.6687 71.835 42.2716C67.4243 46.1785 65.3758 51.3161 64.6572 53.5463C64.4177 54.2897 63.9139 54.9092 63.2365 55.3056L61.7084 56.1977C61.1798 56.5116 60.5025 56.1234 60.5025 55.5121V32.682C59.8665 32.9463 59.1892 33.0867 58.5036 33.0867C58.421 33.0867 58.3302 33.0702 58.2476 33.0702L58.3219 69.5786C58.3219 71.4949 60.5438 72.5604 62.0389 71.3628L63.8973 69.9338L63.8808 69.2235C63.7073 59.5677 65.9788 51.7209 70.6373 45.8977C74.792 40.7023 79.5166 38.7777 81.5651 38.15L78.6824 23.3979V23.3896Z" fill="white"/>
<path d="M61.973 32.0962V48.9876C61.973 48.9876 62.6999 35.0202 67.8788 28.8666L61.973 32.0962Z" fill="white"/>
<path d="M80.3264 17.9718C80.3264 17.468 80.1612 16.9972 79.8804 16.6172C67.1685 20.7554 61.114 28.3214 59.3382 31.0554C59.1152 31.3941 59.4869 31.8071 59.8503 31.6253L79.1535 21.8044C79.8721 21.3997 80.3264 20.648 80.3264 19.822V17.9718Z" fill="black"/>
<path d="M17.2787 62.6732L24.44 63.1688C25.5303 63.2679 26.6288 62.9954 27.5539 62.4089L39.349 55.8176L28.6442 64.4326C27.2649 65.5311 25.4064 65.8037 23.7709 65.1512L17.2787 62.6732Z" fill="#F5B2F2"/>
<path d="M4.63325 25.3475C4.63325 25.3475 6.68168 23.3816 9.68 23.0512C12.1414 22.7787 14.5285 23.9929 15.9162 26.0413L15.9492 26.0909C15.9492 26.0909 17.0643 23.0595 20.203 21.3249C21.6733 20.5072 23.4161 20.2264 25.0515 20.6559C25.7784 20.8459 26.5383 21.1845 27.1248 21.771C27.1248 21.771 25.5967 18.2688 21.6815 18.3927C20.2856 18.434 18.9475 18.9874 17.8407 19.8547C17.0808 20.4411 16.2465 21.2754 15.751 22.3161C15.751 22.3161 10.2912 17.3024 4.63325 25.3475Z" fill="white"/>
<path d="M98.1262 9.57119C98.1262 9.57119 95.9621 7.73751 92.9473 7.58883C90.4776 7.46493 88.1648 8.81955 86.9093 10.9506L86.8763 11.0084C86.8763 11.0084 85.6868 7.80359 82.3416 6.50679C78.509 5.02002 74.8004 7.0189 74.247 7.63839C74.247 7.63839 78.1787 1.82347 84.6048 4.89613C85.4721 5.30912 86.2981 6.07728 86.9341 7.13454C86.9341 7.13454 91.9891 1.88955 98.1262 9.57119Z" fill="white"/>
<path d="M30.1066 13.9735C30.1066 13.9735 29.3053 12.1646 27.4634 11.1569C25.9518 10.3309 24.0934 10.4796 22.6562 11.4295L22.6149 11.4542C22.6149 11.4542 22.7058 9.20756 21.1364 7.25824C20.4013 6.3414 19.3523 5.69713 18.1959 5.54845C17.6755 5.48237 15.8666 5.19328 15.338 5.4163C15.338 5.4163 18.485 3.87171 20.9629 4.98678C21.855 5.38326 22.5653 6.0936 23.0444 6.94437C23.3748 7.52255 23.697 8.28246 23.7383 9.08366C23.7383 9.08366 28.5867 7.29954 30.0983 13.9817L30.1066 13.9735Z" fill="white"/>
<path d="M86.6367 38.58C85.2821 38.58 83.7953 38.7782 82.1186 39.2656C77.1379 40.7193 64.7151 47.5584 65.1115 69.1909C65.1115 69.1909 65.3345 69.2736 65.7228 69.3561C66.0945 69.4305 66.4662 69.4635 66.8213 69.4635C69.5306 69.4635 71.9424 67.4729 72.4793 64.6976C74.3543 55.0749 79.3846 42.2391 93.418 42.2391C93.7236 42.2391 94.0375 42.2391 94.3596 42.2556C94.3596 42.2556 94.3679 42.2556 94.3761 42.2556C94.7396 42.2556 94.9296 41.8179 94.657 41.5701C93.4676 40.4715 90.8161 38.58 86.6367 38.58Z" fill="white"/>
<path d="M92.815 44.9811L89.6019 43.8577C79.5744 45.9392 75.4197 56.1814 73.71 64.9286C73.0574 68.2656 70.1665 70.694 66.8378 70.694C66.7717 70.694 66.7138 70.6939 66.6478 70.6857C67.7711 74.7165 70.2656 77.6074 73.7017 78.7142L79.0375 80.5892C80.1774 81.1179 81.4494 81.3987 82.8288 81.3657C90.0562 81.2252 97.5313 72.8745 99.5137 62.7232C101.223 53.9595 98.2912 46.7074 92.815 44.9811ZM92.5424 62.8636C91.6173 67.6048 88.1234 71.5034 84.7451 71.5695C81.3668 71.6356 79.3845 67.8443 80.3096 63.1032C81.2347 58.362 84.7286 54.4634 88.1068 54.3973C91.4851 54.3312 93.4675 58.1225 92.5424 62.8636Z" fill="black"/>
</svg>
