<svg width="100" height="100" viewBox="0 0 100 100" fill="none" xmlns="http://www.w3.org/2000/svg">
<rect width="100" height="100" fill="#F5B2F2"/>
<path d="M88.5208 22.5062L37.0525 12.1882C36.7233 12.9333 35.8137 13.4011 35.0167 13.2452C34.2196 13.0892 33.8471 12.3528 34.1763 11.6078L26.5094 10.0744C25.5911 12.1363 23.278 13.5397 21.0342 13.5397C20.6963 13.5397 20.3585 13.5051 20.0293 13.4444L8.74107 38.871C11.2621 39.3821 12.4576 41.6952 11.418 44.0516L19.059 45.585C19.3882 44.8487 20.2978 44.3808 21.0862 44.5368C21.8745 44.6927 22.2557 45.4204 21.9265 46.1655L73.2042 56.4834C74.1225 54.4389 76.4443 53.0441 78.6881 53.0441C79.0259 53.0441 79.3725 53.0787 79.7017 53.1394L91.1805 27.7128C88.6421 27.2016 87.4553 24.8712 88.5208 22.5062Z" fill="white"/>
<path d="M99.5148 69.9977L89.5867 47.6205C87.6375 48.0364 85.567 47.4733 84.1982 46.3297L80.8802 53.6675L80.4557 54.6118L79.4421 54.4039C79.1995 54.3519 78.9396 54.3259 78.6797 54.3259C76.8864 54.3259 75.0758 55.4521 74.3741 57.0028L73.9496 57.9471L72.936 57.7392L46.5998 52.4373L28.4762 56.2838L26.7523 57.54L24.2399 57.1848L17.6819 58.5795L17.6472 58.5449L16.0358 57.8432V58.9261C16.7982 60.6934 15.9925 62.4953 14.2166 63.4396L12.7525 62.8765V63.9594L22.9751 87.7054C25.7387 87.1076 28.7535 88.4157 29.7064 90.6249L39.1234 88.589C38.6556 88.4417 38.257 88.1385 38.0751 87.7314C37.7719 87.0383 38.2311 86.3279 39.0974 86.1373C39.9637 85.9467 40.908 86.3625 41.2112 87.0556C41.3845 87.4628 41.2979 87.87 41.0206 88.1818L96.8205 76.0966V75.0137H96.5347C96.3527 73.2204 97.7129 71.5657 99.9826 71.0719V69.989H99.4975L99.5148 69.9977Z" fill="black"/>
<path d="M100 70.0066L89.5954 46.5379C87.8108 46.9191 85.9309 46.4773 84.5707 45.5243L80.8889 53.6764L80.4644 54.6207L79.4508 54.4128C79.2082 54.3608 78.9483 54.3348 78.6884 54.3348C76.8951 54.3348 75.0845 55.461 74.3828 57.0118L73.9583 57.9561L72.9447 57.7481L43.9835 51.9178L27.5147 55.4177C27.8092 56.1021 27.35 56.8125 26.4924 56.9944C25.6261 57.1764 24.6904 56.7692 24.3959 56.0848L16.0532 57.8521C16.9975 60.0439 15.5334 62.2963 12.7698 62.8854L22.9925 86.6314C25.756 86.0336 28.7708 87.3418 29.7238 89.5509L38.0925 87.7403C37.7893 87.0472 38.2484 86.3368 39.1147 86.1462C39.9811 85.9557 40.9254 86.3715 41.2286 87.0645L96.8379 75.0226C95.8676 72.8308 97.2884 70.5871 100 69.998V70.0066Z" fill="white"/>
<path d="M29.4638 59.9307C29.1692 59.2463 28.2249 58.8392 27.3673 59.0211C26.5009 59.203 26.0418 59.9134 26.345 60.5978C26.6396 61.2822 27.5839 61.698 28.4502 61.5074C29.3165 61.3255 29.767 60.6151 29.4724 59.9307H29.4638Z" fill="#F5B2F2"/>
<path d="M31.4128 64.4354C31.1183 63.751 30.1739 63.3351 29.3076 63.5257C28.4413 63.7076 27.9821 64.418 28.2854 65.1024C28.5799 65.7868 29.5242 66.2027 30.3905 66.0121C31.2568 65.8301 31.716 65.1198 31.4128 64.4354Z" fill="#F5B2F2"/>
<path d="M33.3709 68.9495C33.0763 68.2564 32.1321 67.8492 31.2657 68.0398C30.3994 68.2304 29.9403 68.9321 30.2435 69.6252C30.538 70.3183 31.4823 70.7254 32.3486 70.5348C33.215 70.3529 33.6741 69.6425 33.3709 68.9495Z" fill="#F5B2F2"/>
<path d="M35.3286 73.4714C35.034 72.7783 34.0898 72.3712 33.2234 72.5617C32.3571 72.7437 31.8979 73.4541 32.2012 74.1471C32.4957 74.8402 33.44 75.2474 34.3063 75.0568C35.1727 74.8748 35.6318 74.1644 35.3286 73.4714Z" fill="#F5B2F2"/>
<path d="M37.2867 78.0019C36.9835 77.3088 36.0479 76.9016 35.1815 77.0836C34.3152 77.2655 33.8561 77.9845 34.1593 78.6689C34.4625 79.362 35.3981 79.7692 36.2644 79.5872C37.1308 79.4053 37.5899 78.6863 37.2867 78.0019Z" fill="#F5B2F2"/>
<path d="M39.2533 82.5331C38.9501 81.84 38.0058 81.4329 37.1481 81.6148C36.2818 81.8054 35.8226 82.5158 36.1258 83.2088C36.4291 83.9019 37.3734 84.3091 38.231 84.1271C39.0887 83.9452 39.5565 83.2262 39.2533 82.5331Z" fill="#F5B2F2"/>
<path d="M60.0534 40.8461L65.3986 47.5947L66.2476 38.585L76.2796 34.9204L66.776 33.0058L67.625 23.9787L60.8937 31.8276L51.3988 29.9217L56.744 36.679L50.0387 44.502L60.0534 40.8461Z" fill="black"/>
<path d="M34.0462 15.4191C33.2492 15.2631 32.3396 15.7309 32.0104 16.476C31.6812 17.221 32.0537 17.9487 32.8507 18.1047C33.6477 18.2606 34.5574 17.7928 34.8866 17.0477C35.2158 16.3027 34.8433 15.575 34.0462 15.4191Z" fill="#F5B2F2"/>
<path d="M31.8804 20.2878C31.0834 20.1319 30.1738 20.5997 29.8446 21.3447C29.5154 22.0897 29.8879 22.8175 30.6849 22.9734C31.4819 23.1293 32.3916 22.6615 32.7208 21.9165C33.05 21.1714 32.6775 20.4437 31.8804 20.2878Z" fill="#F5B2F2"/>
<path d="M29.7146 25.1483C28.9176 24.9923 28.008 25.4602 27.6788 26.2052C27.3496 26.9416 27.7221 27.6779 28.5191 27.8339C29.3161 27.9898 30.2258 27.522 30.555 26.777C30.8842 26.0319 30.5117 25.3042 29.7146 25.1483Z" fill="#F5B2F2"/>
<path d="M27.5488 29.9993C26.7518 29.8434 25.8422 30.3112 25.513 31.0475C25.1838 31.7839 25.5563 32.5203 26.3533 32.6762C27.1503 32.8322 28.06 32.3644 28.3892 31.628C28.7184 30.8916 28.3458 30.1552 27.5488 29.9993Z" fill="#F5B2F2"/>
<path d="M25.3921 34.8504C24.6038 34.6945 23.6941 35.1623 23.3649 35.8987C23.0357 36.6351 23.4082 37.3628 24.2052 37.5274C24.9936 37.6833 25.9032 37.2155 26.2324 36.4791C26.5616 35.7428 26.1891 35.015 25.3921 34.8504Z" fill="#F5B2F2"/>
<path d="M23.2348 39.6931C22.4464 39.5371 21.5368 40.0049 21.2076 40.7413C20.8784 41.4777 21.2509 42.2054 22.0479 42.37C22.8362 42.5259 23.7459 42.0581 24.0751 41.3218C24.4043 40.5854 24.0318 39.8577 23.2348 39.6931Z" fill="#F5B2F2"/>
<path d="M66.0139 2C66.0139 2 67.4693 6.8081 73.343 8.13357C73.343 8.13357 68.8901 8.9046 68.7948 14.2585C68.7948 14.2585 67.2267 9.62365 61.587 8.13357C61.587 8.13357 66.2998 7.57046 66.0052 2H66.0139Z" fill="white"/>
<path d="M3.60391 47.404C3.60391 47.404 4.79077 51.3285 9.58154 52.4114C9.58154 52.4114 5.94298 53.0351 5.87367 57.4014C5.87367 57.4014 4.59152 53.6156 0 52.4027C0 52.4027 3.84648 51.9436 3.60391 47.404Z" fill="white"/>
<path d="M56.1984 79.8736C56.1984 79.8736 58.4509 87.3239 67.5559 89.3858C67.5559 89.3858 60.6513 90.5726 60.5127 98.872C60.5127 98.872 58.0783 91.6902 49.3458 89.3858C49.3458 89.3858 56.6489 88.5195 56.1984 79.8822V79.8736Z" fill="white"/>
<path d="M43.9834 51.9261L27.8438 55.3568L66.889 60.4508C67.4261 59.004 68.6476 57.8258 70.0857 57.1761L43.9834 51.9261Z" fill="black"/>
<path d="M82.0149 57.7046L71.5584 59.9484L68.7428 56.9076L64.9223 56.1452L65.0782 61.3345L54.5784 63.5783L65.2429 66.6971L65.5027 75.4123L71.8269 68.629L82.4827 71.7477L75.7254 64.4446L82.0149 57.7046Z" fill="black"/>
</svg>
