<svg width="100" height="100" viewBox="0 0 100 100" fill="none" xmlns="http://www.w3.org/2000/svg">
<rect width="100" height="100" fill="#F5B2F2"/>
<path d="M31.1294 47.3077C29.9271 46.3138 28.6363 45.5486 27.2925 44.9945L26.2139 45.1968C24.2601 45.5662 22.4212 44.1326 22.3239 42.1536L22.3063 41.7666H22.2886L21.6432 28.644C21.5283 26.8497 20.3613 26.4187 20.0518 26.3308C20.0253 26.3308 19.9988 26.322 19.9722 26.3132L0.752156 20.5699C0.363156 20.4819 0.0537274 20.262 0.0360456 19.9981H0.00949705L0.62837 35.0558C0.743302 37.2194 2.17555 39.1016 4.24432 39.7877L18.151 44.4228C8.10777 47.0702 0.106788 59.8322 0.106788 73.553C0.106788 81.8822 2.96239 89.0152 7.94865 93.1226C10.6628 95.3566 13.7748 96.5 17.0725 96.5C17.9919 96.5 18.929 96.4121 19.875 96.2361C30.4133 94.2396 38.9802 81.0642 38.9802 66.8597C38.9802 58.5306 36.1246 51.3975 31.1383 47.2901L31.1294 47.3077ZM19.2031 92.7972C15.9408 93.4129 12.82 92.5949 10.1942 90.4312C6.08321 87.045 3.63429 80.7475 3.63429 73.5705C3.63429 60.9756 10.9192 49.3482 19.8662 47.6507C20.5734 47.5188 21.2719 47.4484 21.9703 47.4484C24.4634 47.4484 26.8239 48.3191 28.8839 50.0166C32.9949 53.4028 35.4438 59.7003 35.4438 66.8773C35.4438 79.4722 28.1589 91.0997 19.2119 92.7972H19.2031Z" fill="black"/>
<path d="M42.4016 44.2106C45.8584 48.7314 49.9429 53.393 55.4685 53.393C55.6541 53.393 55.8486 53.393 56.0431 53.3754L54.9291 57.5092L58.7838 56.7792L65.052 33.4539C65.052 33.4539 62.214 32.803 60.1806 37.9571L57.0333 49.6813C53.3201 50.5433 50.0755 48.4499 45.213 42.0821C40.7572 36.2596 33.9851 25.2391 33.9144 25.1335C33.4016 24.3068 32.3142 24.0429 31.4831 24.553C30.6521 25.0631 30.3868 26.145 30.8996 26.9717C31.1825 27.4291 37.8397 38.2473 42.4016 44.2194V44.2106Z" fill="black"/>
<path d="M50.6678 59.3308C43.1531 50.6058 32.8446 35.1259 32.7208 34.9412C32.1815 34.1321 31.0853 33.9122 30.2719 34.4399C29.4585 34.9764 29.2375 36.0671 29.768 36.8762C30.2719 37.6414 41.0666 53.8336 48.7759 62.5234C49.2002 61.2657 49.8545 60.1575 50.659 59.322L50.6678 59.3308Z" fill="black"/>
<path d="M78.4105 84.4863C75.1571 84.4863 72.0893 83.3605 69.4193 81.1616C64.5038 77.1158 61.6924 70.0883 61.6924 61.8823C61.6924 47.8889 70.1354 34.907 80.5235 32.9368C84.7936 32.1276 88.8605 33.1831 92.2731 35.9976C97.1886 40.0434 100 47.0709 100 55.2769C100 69.2703 91.557 82.2523 81.1689 84.2225C80.2406 84.3984 79.3123 84.4863 78.4105 84.4863ZM83.2377 36.1471C82.5569 36.1471 81.8673 36.2087 81.1689 36.3494C72.3457 38.0205 65.1757 49.4808 65.1757 61.8911C65.1757 68.9625 67.5893 75.172 71.6384 78.4967C74.2288 80.6339 77.2966 81.4343 80.5146 80.8274C89.3379 79.1563 96.5078 67.696 96.5078 55.2858C96.5078 48.2143 94.0943 42.0048 90.0452 38.6801C88.0117 37.009 85.6954 36.1559 83.2377 36.1559V36.1471Z" fill="black"/>
<path d="M62.877 14.2545C62.7002 13.2079 61.6658 12.5746 60.6756 12.8385L51.5784 15.2836C50.6677 15.4331 42.4192 16.6205 32.6058 13.7268C28.5567 12.5306 26.5409 11.2201 25.5331 10.2526C25.0468 9.78647 25.2679 8.97732 25.9133 8.79262L32.208 6.97197C33.1009 6.71691 33.7197 5.84617 33.5518 4.94025C33.3573 3.9024 32.3141 3.28673 31.3151 3.56818L23.6854 5.76702C22.2355 6.18919 21.1657 7.4821 21.1215 9.10924C21.1038 9.68093 21.263 10.2526 21.5282 10.7628C22.819 13.2958 26.0194 15.3715 31.041 16.9283C31.8455 17.1834 32.3318 18.0013 32.1549 18.8281L25.6304 48.8905C25.6127 49.0225 23.3671 62.1364 19.6893 68.2316C19.2649 68.9264 19.3533 69.8499 19.9457 70.4128C20.3082 70.7558 20.7502 70.9229 21.1922 70.9229C21.7934 70.9229 22.3769 70.6151 22.704 70.0697C26.7443 63.4117 29.0253 50.0339 29.1048 49.5502L35.6117 19.822C35.8151 18.9072 36.6992 18.3092 37.6186 18.4587C40.8279 18.9864 43.7188 19.1535 46.0705 19.1535C49.4212 19.1535 51.6668 18.8281 52.1353 18.7489C52.2591 18.7314 52.3652 18.705 52.4801 18.6786L61.489 16.2599C62.3819 16.0224 63.0273 15.1605 62.877 14.2457V14.2545Z" fill="white"/>
<path d="M50.7207 66.7444C50.7207 62.9448 52.9574 59.4354 55.7246 58.9165L81.2306 54.0791C81.6107 54.0087 81.9644 54.0439 82.3004 54.1406V54.1055L79.9045 53.349C79.1618 53.1116 78.375 53.0676 77.6147 53.2083L53.2757 57.8259C50.5085 58.3536 48.2718 61.8541 48.2718 65.6537C48.2718 68.5034 49.5184 70.6671 51.2777 71.3971L53.7531 72.5141H53.7708C51.9938 71.8017 50.7207 69.6205 50.7207 66.7444Z" fill="black"/>
<path d="M75.9616 23.1902C75.1659 22.7768 74.2553 22.3458 73.1944 21.8709C70.3653 20.6043 68.0047 20.0766 66.2631 19.8743C64.5833 19.6808 62.877 19.8831 61.268 20.4109L58.6069 21.2728C57.599 21.5982 57.2277 22.8032 57.8466 23.6651C57.9438 23.8058 58.0322 23.9465 58.1029 24.0961C58.3859 24.7205 58.0587 25.4594 57.4133 25.6793C56.5292 25.9783 55.4242 26.1806 54.6196 26.5764C53.0106 27.3767 53.3288 28.9511 53.3288 28.9511C53.3288 29.9362 55.212 30.8773 57.5195 30.7366C60.6757 30.5431 63.6197 27.9485 70.772 29.4613C72.1865 29.7603 73.6452 29.7251 75.0509 29.3821L75.2189 29.3381C78.1983 28.6081 78.6934 24.5886 75.9704 23.1814L75.9616 23.1902Z" fill="white"/>
<path d="M11.0075 57.7563C11.0075 57.7563 4.29732 67.5543 6.99379 81.1255C6.99379 81.1255 7.14408 73.1393 11.0783 75.3206C15.0125 77.5018 18.151 81.1958 23.5528 77.2116C23.5528 77.2116 14.3759 78.7332 14.2875 67.2728C14.2168 57.8354 11.0075 57.7651 11.0075 57.7651V57.7563Z" fill="white"/>
<path d="M81.1778 66.3213C81.1778 66.3213 85.1208 65.6704 86.721 61.2376C86.721 61.2376 88.1091 63.4892 86.7918 66.6819C86.7918 66.6819 91.4597 65.8815 93.944 58.2647C93.944 58.2647 94.1916 69.1358 84.3163 77.1308C84.3163 77.1308 87.3841 69.2413 81.1778 66.3213Z" fill="white"/>
<path d="M41.8092 22.6808L21.873 16.1899C21.0243 15.9172 20.1225 15.8556 19.2472 16.0228L0.504508 19.5233C0.504508 19.5233 0.12436 19.5673 0.0182694 19.8839C-0.0878213 20.2094 0.283494 20.482 0.734379 20.5875L19.9545 26.3309C19.9545 26.3309 20.0075 26.3397 20.0341 26.3485C20.3435 26.4277 21.5282 26.8586 21.6343 28.6881L22.3239 42.1625C22.43 44.1415 24.26 45.5751 26.2138 45.2057L36.0449 43.3411C38.2728 42.9189 39.9879 41.1247 40.3062 38.8906L42.2954 23.147C42.3396 22.8216 41.8092 22.6896 41.8092 22.6896V22.6808Z" fill="white"/>
<path d="M81.2306 54.08L55.7246 58.9175C52.9574 59.4452 50.7207 62.9457 50.7207 66.7453C50.7207 70.1403 52.4889 72.5591 54.7698 72.735L54.7256 66.1297L56.3524 65.5755L57.8995 71.9346L81.6638 63.1217C83.3171 62.506 84.5548 60.3335 84.5548 58.0291C84.5548 55.4961 83.0607 53.7282 81.2218 54.08H81.2306Z" fill="white"/>
<path d="M57.9437 64.6441C57.82 63.8525 57.316 63.2808 56.6353 63.2808C55.7512 63.2808 54.9201 64.2043 54.761 65.3653C54.6903 65.8755 54.7787 66.3416 54.9644 66.711L59.1903 75.6295L60.6048 74.9962L57.9437 64.6353V64.6441Z" fill="white"/>
<path d="M62.3554 74.132C62.1697 74.0616 61.9576 74.0616 61.7719 74.132L57.82 75.504C57.3161 75.6711 56.9536 76.2077 56.9536 76.8585C56.9536 77.5094 57.2895 77.9931 57.7492 78.1866L63.3367 80.0776C63.6108 80.1744 63.9114 80.1655 64.1854 80.06L67.5096 78.7583C67.8456 78.6264 68.0666 78.301 68.0666 77.9403V76.7794C68.0666 76.41 67.8279 76.0757 67.4742 75.9526L62.3642 74.1496L62.3554 74.132Z" fill="white"/>
<path d="M63.6462 80.1319C63.5224 80.1143 63.4251 80.0439 63.3544 79.9648C63.1687 79.7449 63.1599 79.4634 63.1953 79.2523C63.2306 79.0413 63.1157 78.8126 62.9035 78.7422L57.8111 77.0447C57.5547 76.9568 57.378 76.8776 57.2454 76.5346C57.1304 76.2268 57.2718 75.9013 57.3072 75.8486C57.0773 76.1036 56.9447 76.4555 56.9447 76.86C56.9447 77.4757 57.2807 77.9946 57.7404 78.1881L63.3278 80.0791C63.4339 80.1143 63.5401 80.1319 63.6373 80.1407L63.6462 80.1319Z" fill="black"/>
<path d="M2.69716 20.1727L20.5646 16.8304L38.3259 22.6705L21.5105 25.7929L2.69716 20.1727Z" fill="black"/>
</svg>
