<svg width="100" height="100" viewBox="0 0 100 100" fill="none" xmlns="http://www.w3.org/2000/svg">
<g clip-path="url(#clip0_15980_7103)">
<rect width="100" height="100" fill="#F5B2F2"/>
<path d="M98.0753 27.3829L85.2268 27.6932L61.4889 13.9388C59.9489 13.0444 57.6799 13.373 56.4588 14.6599L19.9725 53.0663L-0.0566406 66.4282V73.4469C-0.0110784 74.2409 0.453667 74.9985 1.29201 75.4822L36.5299 95.8993C38.0699 96.7938 40.3389 96.4651 41.5599 95.1782L97.3008 36.5008C97.8384 35.9349 98.0936 35.2777 98.0845 34.648V27.3829H98.0753Z" fill="black"/>
<path d="M41.5599 87.9754C40.3298 89.2714 38.0699 89.5909 36.5299 88.6964L1.29202 68.2793C-0.247982 67.3849 -0.503136 65.5959 0.717933 64.309L56.4588 5.63156C57.689 4.33553 59.9489 4.0161 61.4889 4.91055L96.7267 25.3276C98.2667 26.2221 98.5219 28.011 97.3008 29.2979L41.5599 87.9754Z" fill="white"/>
<path d="M84.8349 54.3348C84.8349 54.3348 91.7057 56.7169 99.9434 56.5527C99.9434 56.5527 89.8832 58.7888 87.9969 64.5206C85.8008 71.1833 91.3686 76.915 91.3686 76.915C91.3686 76.915 78.921 68.6003 75.0573 79.0416C75.0573 79.0416 73.417 83.0301 75.604 89.273C75.604 89.273 69.6809 79.7444 64.8422 75.3543L84.8349 54.3348Z" fill="black"/>
<path d="M91.6328 35.2587L92.6807 34.1543C83.6867 34.1543 74.7474 35.286 71.8679 35.6876C72.9705 32.9221 76.1872 24.0872 76.8798 13.8284L75.8227 13.2169C75.1484 24.7535 71.1662 34.5741 70.5739 35.9797C60.1493 41.5289 48.9865 44.9789 40.8764 46.9868L34.2973 39.813C36.6756 34.2456 39.4731 27.3456 41.3959 21.4951L39.6007 23.3844C37.2497 30.1202 34.0148 37.7777 31.682 43.0987L24.7018 43.9385C24.064 43.1353 23.3714 42.2317 22.6424 41.246L21.877 42.0492C22.9978 43.5551 24.0184 44.8512 24.9114 45.9373L24.0093 51.9611L24.1824 51.9884C23.9911 52.1071 23.7997 52.2257 23.6083 52.3353C22.7427 52.8646 21.9134 53.3666 21.0751 53.8321C21.0751 53.8321 21.0569 53.823 21.0477 53.823L21.0295 53.8595C20.9111 53.9234 20.7926 53.9964 20.6741 54.0603C17.4119 55.8035 11.7348 57.0539 6.85968 57.8662L5.60216 59.1896C10.7689 58.3865 17.3025 57.0539 21.0751 55.0734C22.123 55.6392 24.4194 56.8897 25.3488 57.4555C25.0117 58.4869 24.6654 59.6004 24.3556 60.796C23.4534 61.7543 16.5007 69.2294 12.7828 74.9429L13.7304 75.4905C17.6397 69.5031 25.1666 61.5353 25.2486 61.444L25.3488 61.3436L25.3853 61.2067C26.1234 58.3865 26.9891 56.0226 27.7454 54.2063L31.6546 52.9468C34.1241 55.5115 37.7053 59.8833 40.111 65.7246C40.2204 66.7833 41.3321 78.4933 40.3297 88.825C40.7671 88.6334 41.168 88.3778 41.4961 88.0492C42.2706 78.8766 41.4961 68.9282 41.2501 66.2357C43.7378 66.6191 52.4401 68.0155 59.0376 69.5853L59.9123 68.6726C52.8137 66.9385 42.8903 65.3778 41.0314 65.0948C39.1451 60.5861 36.63 56.9809 34.4339 54.3706L38.3158 50.6194C47.6926 50.8019 62.7372 51.1762 75.8683 51.8698L76.8615 50.8293C61.7622 49.9988 43.8562 49.6154 34.9078 49.4603C42.7627 47.8631 57.6069 44.1484 71.1936 36.8924C72.1595 36.7464 81.7367 35.3682 91.6601 35.2587H91.6328ZM31.1626 44.2487C30.2058 46.4118 29.4403 48.0821 29.0303 48.9674C28.3742 48.2829 27.1531 46.9503 25.5037 44.9241L31.1626 44.2396V44.2487ZM25.7042 56.3876C24.8203 55.8674 23.2712 55.0095 22.1959 54.4254C22.8611 54.042 23.5172 53.6495 24.1642 53.248C25.3762 52.4995 26.6246 51.742 27.9459 51.0849C27.3627 52.2349 26.5426 54.0237 25.7042 56.3785V56.3876ZM25.1939 51.3587L25.8409 47.0507C26.9253 48.3285 27.7454 49.2139 28.2648 49.7432C27.1987 50.227 26.1781 50.7837 25.1939 51.3587ZM28.3195 52.8646C28.7478 51.9246 29.1123 51.2127 29.3583 50.7654C29.6955 51.0575 30.1693 51.4865 30.7799 52.0706L28.3195 52.8646ZM36.7576 50.5829L33.705 53.5309C32.5021 52.1801 31.4542 51.1579 30.7069 50.4825C32.01 50.5008 34.0968 50.5281 36.7576 50.5829ZM30.1238 49.223C30.789 47.7627 32.1741 44.7142 33.8234 40.9083L39.6645 47.2789C35.1538 48.3559 31.7276 48.9674 30.1238 49.223Z" fill="#F5B2F2"/>
<path d="M78.7934 24.0313L72.8156 20.5265C72.1959 20.1614 72.0775 19.3126 72.5696 18.7924C73.2621 18.0622 74.3556 17.9162 75.2213 18.4182L81.1991 21.9229C81.8278 22.288 81.9372 23.146 81.436 23.6662H81.4269C80.7343 24.3872 79.6499 24.5333 78.7934 24.0313Z" fill="black"/>
<path d="M30.2787 71.8633C30.2058 73.9808 27.8092 75.7697 24.9206 75.8518C22.0319 75.934 19.7538 74.2911 19.8358 72.1737C19.9087 70.0562 22.3053 68.2673 25.194 68.1851C28.0826 68.103 30.3607 69.7459 30.2787 71.8633Z" fill="black"/>
<path d="M69.5432 17.9873C70.5293 17.8844 71.2677 17.2157 71.1926 16.4937C71.1175 15.7718 70.2572 15.27 69.2711 15.3729C68.285 15.4759 67.5465 16.1446 67.6216 16.8665C67.6968 17.5885 68.5571 18.0903 69.5432 17.9873Z" fill="black"/>
</g>
<defs>
<clipPath id="clip0_15980_7103">
<rect width="100" height="100" fill="white"/>
</clipPath>
</defs>
</svg>
