<svg width="100" height="100" viewBox="0 0 100 100" fill="none" xmlns="http://www.w3.org/2000/svg">
<rect width="100" height="100" fill="#F5B2F2"/>
<path d="M14.2613 39.8161C14.2613 39.8161 27.7454 77.72 41.8896 93.1289C42.4755 93.7706 43.3124 94.1146 44.1772 94.0495C50.2497 93.5753 75.7577 91.111 91.52 82.4068C92.2825 81.9884 92.4499 81.0212 91.9477 80.3052C71.9077 51.8958 66.4862 30.2843 66.4862 30.2843L14.2613 39.8161Z" fill="white"/>
<path d="M28.634 72.8294C21.9292 60.3498 16.5077 46.624 14.2852 40.7468H14.2759L31.433 32.9447L44.9449 30.4804L64.427 52.8545C64.427 52.8545 60.668 56.3042 54.6184 60.4415C57.5477 67.8126 62.317 75.9073 62.317 75.9073C60.6245 76.5582 58.8204 76.9209 58.8204 76.9209C55.7963 72.0905 53.053 66.1669 51.4661 62.5188C45.2194 66.4812 37.2227 70.6442 28.634 72.8294Z" fill="black"/>
<path d="M14.1183 72.5688C14.1183 72.5688 15.7085 77.8229 22.1343 79.2829C22.1343 79.2829 17.2615 80.1199 17.1685 85.9784C17.1685 85.9784 15.4482 80.9103 9.29203 79.2829C9.29203 79.2829 14.4438 78.6692 14.1276 72.5781L14.1183 72.5688Z" fill="white"/>
<path d="M7.15405 14.0396C7.15405 14.0396 8.44668 18.3265 13.6915 19.5076C13.6915 19.5076 9.7207 20.1957 9.63701 24.9662C9.63701 24.9662 8.24208 20.8281 3.21116 19.5076C3.21116 19.5076 7.41443 19.0054 7.15405 14.0396Z" fill="white"/>
<path d="M87.576 28.4989C87.576 28.4989 90.0312 36.6451 100 38.8955C100 38.8955 92.4489 40.1974 92.3002 49.2642C92.3002 49.2642 89.6406 41.4063 80.0902 38.8862C80.0902 38.8862 88.0689 37.9377 87.576 28.4989Z" fill="white"/>
<path d="M21.7166 17.9366L21.4562 17.8901C17.6434 26.8732 12.8544 38.0509 10.5853 42.9331C7.36778 49.8517 2.26244 56.259 0.216598 58.6861C-0.20187 59.1882 0.0119679 59.9694 0.635021 60.1647C5.15448 61.6153 7.10734 60.7691 16.1091 58.8907C25.9291 56.8448 35.5446 62.3686 35.5446 62.3686C54.1618 62.9823 64.4283 52.8647 64.4283 52.8647L75.0109 28.3146L21.7166 17.9459V17.9366Z" fill="white"/>
<path d="M79.2718 15.5919L71.8045 14.0575L70.9025 18.3166C71.2001 18.6328 71.3767 19.0233 71.3767 19.4511C71.3767 20.4554 70.4189 21.2738 69.2286 21.2738C68.0382 21.2738 67.0805 20.4554 67.0805 19.4511C67.0805 18.6607 67.6757 17.9911 68.5033 17.74L70.0562 13.7041L36.1696 6.75757L34.8491 11.0539C35.1653 11.37 35.3699 11.7792 35.3699 12.2349C35.3699 13.2392 34.412 14.0575 33.2217 14.0575C32.0314 14.0575 31.0736 13.2392 31.0736 12.2349C31.0736 11.3793 31.7711 10.6633 32.701 10.468L34.5143 6.42279L27.6794 5.0186C27.6143 5.0093 27.5584 5 27.4933 5C27.1306 5 26.7866 5.21388 26.6378 5.56726C25.9218 7.25973 23.9968 11.7792 21.9696 16.5683L75.5614 26.9928L79.9227 16.8752C80.1552 16.3358 79.8298 15.7128 79.2532 15.5919H79.2718Z" fill="black"/>
<path d="M29.2457 48.4545C27.5347 48.0825 26.0932 47.5339 24.9215 46.8085C23.7498 46.0832 22.9222 45.2463 22.4294 44.2977C21.9365 43.3492 21.8528 42.3449 22.1783 41.294L25.4423 42.0008C25.275 42.6518 25.3587 43.2655 25.7028 43.8328C26.0468 44.4 26.5955 44.9115 27.3394 45.3392C28.0834 45.767 28.9668 46.1018 29.9897 46.3157C31.1335 46.5668 32.1936 46.6318 33.1886 46.5296C34.1836 46.4273 35.0299 46.1576 35.7273 45.7391C36.4248 45.3207 36.9084 44.7627 37.1687 44.0652C37.4384 43.3399 37.4384 42.6424 37.1687 41.9822C36.8991 41.3219 36.3504 40.7361 35.5321 40.2153C34.7137 39.6946 33.635 39.2947 32.2866 39.0064L30.157 38.5415L30.9569 36.4212L33.0863 36.8862C34.1372 37.1187 35.1229 37.1745 36.0249 37.0629C36.927 36.9513 37.7081 36.6909 38.3498 36.2724C39.0007 35.854 39.447 35.296 39.7074 34.5986C39.9585 33.929 39.9772 33.306 39.7633 32.7201C39.5494 32.1343 39.1401 31.6321 38.5171 31.195C37.894 30.758 37.1037 30.4418 36.1272 30.2279C35.2066 30.0326 34.3045 29.9675 33.4025 30.0419C32.5005 30.1163 31.7101 30.3302 31.0219 30.6836C30.3338 31.0369 29.8503 31.5391 29.562 32.19L26.4466 31.5205C26.8837 30.4976 27.6463 29.6792 28.725 29.0655C29.8037 28.4517 31.0591 28.0705 32.5005 27.9031C33.9419 27.7357 35.4205 27.8287 36.9549 28.1542C38.6008 28.5075 39.9121 29.0655 40.9071 29.8094C41.9021 30.5534 42.5624 31.3996 42.8878 32.3388C43.2133 33.2781 43.204 34.2173 42.8599 35.1472C42.4414 36.2631 41.6975 37.128 40.6187 37.7417C39.54 38.3555 38.2754 38.6716 36.8247 38.6809L36.7689 38.839C38.3684 39.4063 39.4843 40.2246 40.098 41.2755C40.7211 42.3356 40.7955 43.4887 40.3305 44.7441C39.9307 45.8228 39.1774 46.6969 38.0707 47.3851C36.9641 48.0732 35.6529 48.5103 34.1185 48.7056C32.5842 48.9009 30.9661 48.8172 29.2457 48.4452V48.4545Z" fill="black"/>
<path d="M58.6161 32.9998L51.2045 52.7701L47.9869 52.0727L54.4592 34.8132L54.3012 34.776L46.62 36.58L47.5313 34.1436L55.3985 32.2931L58.6161 32.9905V32.9998Z" fill="black"/>
<path d="M49.0599 55.829C48.5485 55.5965 47.9626 55.8755 47.7952 56.4056C45.7494 62.8779 35.548 62.3571 35.548 62.3571C54.1652 62.9709 64.4317 52.8532 64.4317 52.8532C57.8943 58.8327 51.5056 56.9449 49.0599 55.829Z" fill="#F5B2F2"/>
</svg>
