<svg width="100" height="100" viewBox="0 0 100 100" fill="none" xmlns="http://www.w3.org/2000/svg">
<rect width="100" height="100" fill="#F5B2F2"/>
<path d="M43.4773 39.1931C43.4773 36.6079 45.5757 34.5095 48.1529 34.5095C48.5519 34.5095 50.5705 34.5573 50.9535 34.6611L55.5414 35.8499V12.2243C55.5414 10.2535 53.9297 8.73745 52.0626 8.73745C51.7754 8.73745 51.4801 8.77735 51.1769 8.84916L7.58 20.1553C5.42568 20.7139 3.92558 22.6527 3.92558 24.8789V56.4356C3.92558 58.4064 5.53731 59.9224 7.40439 59.9224C7.69163 59.9224 7.98684 59.8825 8.29004 59.8107L20.2186 56.7149C20.3942 56.667 20.5697 56.651 20.7453 56.651C21.3995 56.651 22.0299 56.9622 22.4288 57.5048L29.7374 67.4146L37.1659 53.4914C37.6287 52.6296 38.4266 51.9993 39.3681 51.7599L43.4773 50.6987V39.1931Z" fill="white"/>
<path d="M2.73672 56.4276V31.8445L0 29.8418V53.6988C0 54.8558 0.558526 55.8611 1.39632 56.4914L2.86441 57.5127C2.78463 57.1617 2.73672 56.8026 2.73672 56.4276Z" fill="black"/>
<path d="M2.73672 24.8789C2.73672 23.9533 2.96013 23.0756 3.33514 22.2857L0.438784 20.1713C0.167499 20.7857 0 21.4559 0 22.158V23.1394L2.73672 25.1422V24.8789Z" fill="black"/>
<path d="M4.81922 20.3149C5.51339 19.7005 6.35116 19.2377 7.29267 18.9904L50.8896 7.68423C51.0811 7.63636 51.2807 7.59646 51.4722 7.57252L50.0599 6.59111C49.27 6.0645 48.2726 5.84907 47.2513 6.11238L3.65432 17.4185C3.03196 17.5781 2.47346 17.8654 1.97876 18.2404L4.81123 20.3149H4.81922Z" fill="black"/>
<path d="M42.7673 40.3982C42.7195 39.8077 42.6157 39.2173 42.4082 38.6508C41.6742 36.6082 40.4933 35.9699 38.4746 35.7784L33.6953 35.2119C33.5836 35.3156 33.4878 35.4432 33.3761 35.547C32.4266 36.3927 31.4691 36.9513 30.5435 37.1906C29.618 37.43 28.6764 37.3742 27.7429 37.0151C27.6312 36.9752 27.5355 36.8954 27.4318 36.8475L22.5806 39.9354C20.2427 41.3716 18.982 42.8238 18.1682 46.0393L17.1469 50.3719L43.0386 43.5977L42.7673 40.3982Z" fill="black"/>
<path d="M28.7084 35.1079C29.2589 35.3233 29.9052 35.427 30.5914 35.2515C31.2776 35.076 31.9319 34.6212 32.4984 34.1185C33.775 32.9775 34.7085 31.4136 35.2431 29.7859C35.8894 27.8311 35.9692 26.2113 35.9692 26.2113C36.2166 22.0463 33.7351 20.6341 30.8547 21.3921C27.9743 22.1421 25.4211 24.8789 25.5088 28.9561C25.5088 28.9561 25.5248 30.5519 26.1072 32.1876C26.586 33.544 27.4637 34.6291 28.7164 35.1158L28.7084 35.1079Z" fill="black"/>
<path d="M34.7482 15.7746L50.8895 11.7532C51.7672 11.5377 52.621 12.2 52.621 13.1096V29.2749C52.621 29.2749 52.0864 13.2373 34.7482 15.7746Z" fill="#F5B2F2"/>
<path d="M92.6437 47.1159L49.0388 35.8177C48.7435 35.7379 48.4483 35.706 48.1531 35.706C46.286 35.706 44.6743 37.222 44.6743 39.1928V70.7495C44.6743 72.9756 46.1743 74.9145 48.3286 75.4731L60.8555 78.7205C61.7971 78.9678 62.595 79.5902 63.0577 80.4519L70.4862 94.3752L77.7949 84.4653C78.1939 83.9228 78.8242 83.6116 79.4785 83.6116C79.654 83.6116 79.8295 83.6355 80.005 83.6754L91.9336 86.7712C92.2288 86.851 92.524 86.883 92.8192 86.883C94.6863 86.883 96.298 85.367 96.298 83.3962V51.8394C96.298 49.6133 94.798 47.6744 92.6437 47.1159Z" fill="black"/>
<path d="M96.3457 44.4113L51.7354 32.8418C50.722 32.5785 49.7167 32.794 48.9268 33.3206L45.9347 35.076C46.5969 34.7169 47.355 34.5095 48.1529 34.5095C48.5519 34.5095 48.9427 34.5573 49.3337 34.6611L92.9307 45.9672C93.8243 46.1986 94.6222 46.6374 95.2924 47.204L98.0053 45.2252C97.5106 44.8581 96.968 44.5709 96.3457 44.4113Z" fill="black"/>
<path d="M99.5531 47.1401L96.8324 49.1269C97.2473 49.9567 97.4866 50.8743 97.4866 51.8477V51.9355L100 50.1003V49.1349C100 48.4247 99.8324 47.7545 99.5531 47.1321V47.1401Z" fill="black"/>
<path d="M97.4786 83.4127C97.4786 83.7478 97.4467 84.0669 97.3829 84.3781L98.5957 83.4925C99.4335 82.8621 99.992 81.8568 99.992 80.6998V56.8268L97.4786 58.662V83.4127Z" fill="black"/>
<path d="M57.5283 66.5851C58.2304 63.7685 59.4432 62.9627 61.7491 62.7472L66.5285 62.1807C66.6403 62.2844 66.7359 62.4121 66.8476 62.5158C67.7971 63.3616 68.7546 63.9201 69.6802 64.1595C70.6058 64.3989 71.5473 64.343 72.4808 63.984C72.5925 63.9441 72.6883 63.8643 72.792 63.8164L77.6432 66.9043C79.981 68.3405 81.2417 69.7926 82.0555 73.0081L83.0769 77.3407L56.6665 70.4309L57.5283 66.5851Z" fill="white"/>
<path d="M71.5233 62.0767C70.9727 62.2922 70.3264 62.3959 69.6403 62.2203C68.9541 62.0448 68.2998 61.59 67.7333 61.0873C66.4566 59.9463 65.5232 58.3825 64.9886 56.7548C64.3423 54.7999 64.2625 53.1802 64.2625 53.1802C64.0151 49.0152 66.4966 47.6029 69.377 48.3609C72.2574 49.1109 74.8106 51.8477 74.7228 55.925C74.7228 55.925 74.7069 57.5207 74.1244 59.1564C73.6457 60.5128 72.7681 61.598 71.5154 62.0847L71.5233 62.0767Z" fill="white"/>
<path d="M65.4754 42.744L49.334 38.7226C48.4563 38.5072 47.6025 39.1695 47.6025 40.0791V56.2444C47.6025 56.2444 48.1371 40.2067 65.4754 42.744Z" fill="white"/>
</svg>
