<svg width="100" height="100" viewBox="0 0 100 100" fill="none" xmlns="http://www.w3.org/2000/svg">
<g clip-path="url(#clip0_15980_7188)">
<rect width="100" height="100" fill="#F5B2F2"/>
<path d="M53.4631 19.0806C31.3034 19.0806 13.1454 32.3838 11.4562 49.2876C12.8638 65.8384 31.1627 78.9802 53.4631 78.9802C75.7635 78.9802 94.0623 65.8384 95.4699 49.2876C93.7808 32.3838 75.6328 19.0806 53.4631 19.0806Z" fill="#F5B2F2"/>
<path d="M53.4632 14.0456C29.9161 14.0456 10.833 28.8919 10.833 47.1976C10.833 48.4584 10.9335 49.709 11.1145 50.9395C11.2151 50.2536 11.3458 49.5779 11.5066 48.9021C13.427 32.19 31.4745 19.0784 53.4733 19.0784C75.4721 19.0784 93.5195 32.1799 95.4399 48.9021C95.5907 49.5779 95.7315 50.2536 95.832 50.9395C96.013 49.709 96.1135 48.4684 96.1135 47.1976C96.1135 28.8919 77.0305 14.0456 53.4833 14.0456H53.4632Z" fill="black"/>
<path d="M53.4631 15.4869C76.6785 15.4869 95.5604 29.7281 95.5604 47.227C95.5604 64.7258 76.6785 78.967 53.4631 78.967C30.2477 78.967 11.3658 64.7359 11.3658 47.237C11.3658 29.7382 30.2477 15.4869 53.4631 15.4869ZM53.4631 11.0592C27.7744 11.0592 6.94187 27.257 6.94187 47.237C6.94187 67.217 27.7643 83.4148 53.4631 83.4148C79.1619 83.4148 99.9843 67.217 99.9843 47.237C99.9843 27.257 79.1518 11.0592 53.4631 11.0592Z" fill="white"/>
<path d="M70.8672 12.1189C70.7867 11.8264 70.7365 11.5339 70.7465 11.2313C70.837 9.28477 73.059 7.69121 75.7133 7.69121C75.8239 7.69121 75.9345 7.69121 76.0552 7.69121C78.8603 7.83242 81.1427 9.6882 81.0522 11.7558C80.9918 13.1476 79.8255 14.3478 78.1967 14.9227C79.6446 15.6086 81.0321 16.3448 82.3793 17.1416C83.9679 15.8204 84.9834 13.9948 85.0739 11.9273C85.2649 7.60044 81.3136 3.89895 76.2563 3.6468C76.0753 3.6468 75.8943 3.63672 75.7234 3.63672C70.9074 3.63672 66.946 6.84401 66.7449 10.9994C68.1525 11.3221 69.5299 11.6852 70.8772 12.0987L70.8672 12.1189Z" fill="white"/>
<path d="M75.5023 42.4583C75.0297 42.307 74.4667 42.2969 73.9439 42.4583L56.1478 47.6928C57.4347 48.2274 58.048 49.3166 57.6459 50.3454L75.4319 45.1108C76.4675 44.8083 76.9602 43.9611 76.548 43.2349C76.3469 42.8819 75.9648 42.6096 75.4922 42.4684" fill="black"/>
<path d="M57.7665 49.0568H57.7565C57.7967 48.2197 57.2035 47.4028 56.1478 46.9691C56.0372 46.9187 55.9165 46.8783 55.7858 46.838C55.2932 46.6867 54.7804 46.6262 54.2877 46.6564L43.8815 26.8782C43.781 26.6865 43.5799 26.5453 43.3386 26.4747C43.1074 26.4041 42.8359 26.394 42.5745 26.4646C42.0617 26.6058 41.7902 27.0294 41.9913 27.3925L52.3975 47.1708C51.9853 47.4028 51.6435 47.7154 51.4122 48.0785C51.2111 48.4013 51.1307 48.7341 51.1307 49.0568V50.247C51.1005 51.1749 51.8445 52.0523 53.1013 52.4356C54.7804 52.95 56.741 52.3952 57.485 51.185C57.5554 51.074 57.6057 50.9732 57.6459 50.8622C57.7263 50.6504 57.7565 50.4487 57.7565 50.2369H57.7665V49.0468V49.0568Z" fill="black"/>
<path d="M68.8966 25.5904C67.7806 25.2475 66.4735 25.6206 65.9808 26.4275C65.4882 27.2344 65.9808 28.1522 67.1069 28.4951C68.233 28.838 69.53 28.4749 70.0227 27.6681C70.5153 26.8612 70.0126 25.9333 68.8966 25.5904Z" fill="black"/>
<path d="M41.3377 70.2518C40.2217 69.9088 38.9247 70.282 38.422 71.0788C37.9193 71.8756 38.422 72.8136 39.5481 73.1464C40.6741 73.4792 41.9812 73.1161 42.4739 72.3194C42.9665 71.5226 42.4538 70.5947 41.3377 70.2518Z" fill="black"/>
<path d="M23.974 38.3712C22.858 38.0282 21.5409 38.4014 21.0482 39.1982C20.5556 39.995 21.0683 40.9229 22.1844 41.2658C23.3004 41.6087 24.6075 41.2355 25.1001 40.4387C25.5928 39.642 25.1001 38.704 23.974 38.3712Z" fill="black"/>
<path d="M86.2704 57.4711C85.1544 57.1282 83.8373 57.5014 83.3446 58.2982C82.852 59.095 83.3647 60.0229 84.4808 60.3658C85.5968 60.7087 86.9039 60.3355 87.3965 59.5387C87.8892 58.742 87.3965 57.804 86.2704 57.4711Z" fill="black"/>
<path d="M51.191 23.7745C50.9296 23.6938 50.6481 23.6635 50.3464 23.6938C49.4315 23.7644 48.778 24.3594 48.8785 25.0049C48.9388 25.4386 49.331 25.7916 49.8538 25.953C50.1152 26.0337 50.4068 26.0639 50.7084 26.0438C51.6233 25.9631 52.2769 25.3781 52.1763 24.7326C52.1059 24.2989 51.7239 23.9459 51.201 23.7845" fill="black"/>
<path d="M58.6009 72.7898C58.3395 72.7091 58.0479 72.6789 57.7463 72.699C56.8414 72.7797 56.1778 73.3647 56.2784 74.0102C56.3488 74.4439 56.7308 74.7969 57.2536 74.9583C57.5151 75.0389 57.8066 75.0692 58.1083 75.049C59.0131 74.9683 59.6667 74.3834 59.5762 73.7379C59.5058 73.3042 59.1237 72.9512 58.6009 72.7898Z" fill="black"/>
<path d="M34.4807 28.5213C33.9579 28.3599 33.3245 28.4003 32.8318 28.6625C32.0978 29.0559 31.937 29.8022 32.4699 30.3166C32.6508 30.488 32.8821 30.6192 33.1435 30.6998C33.6663 30.8612 34.2997 30.8209 34.7924 30.5586C35.5264 30.1653 35.6872 29.419 35.1544 28.9046C34.9734 28.7331 34.7421 28.602 34.4807 28.5213Z" fill="black"/>
<path d="M75.3112 68.0372C74.7884 67.8758 74.1549 67.9162 73.6623 68.1784C72.9183 68.5617 72.7574 69.308 73.3003 69.8325C73.4813 70.0039 73.7126 70.135 73.9639 70.2157C74.4867 70.3771 75.1202 70.3368 75.6128 70.0745C76.3568 69.6812 76.5177 68.9449 75.9748 68.4205C75.7938 68.249 75.5625 68.1179 75.3011 68.0372" fill="black"/>
<path d="M82.852 33.4854C82.3292 33.324 81.6958 33.3644 81.2031 33.6266C80.4692 34.02 80.3083 34.7562 80.8412 35.2807C81.0222 35.4522 81.2534 35.5833 81.5148 35.664C82.0376 35.8253 82.6711 35.785 83.1637 35.5228C83.8977 35.1294 84.0586 34.3831 83.5257 33.8687C83.3447 33.6972 83.1135 33.5661 82.852 33.4854Z" fill="black"/>
<path d="M26.9401 63.081C26.4173 62.9196 25.7939 62.9599 25.2912 63.2222C24.5472 63.6155 24.3863 64.3518 24.9292 64.8762C25.1102 65.0477 25.3415 65.1788 25.5928 65.2595C26.1157 65.4209 26.739 65.3805 27.2417 65.1183C27.9858 64.735 28.1466 63.9887 27.6037 63.4642C27.4227 63.2928 27.1915 63.1617 26.93 63.081" fill="black"/>
<path d="M89.317 45.3486C89.0556 45.2679 88.764 45.2377 88.4724 45.2679C87.5575 45.3385 86.904 45.9336 87.0045 46.5791C87.0648 47.0128 87.4569 47.3658 87.9798 47.5272C88.2412 47.6079 88.5327 47.6381 88.8344 47.6179C89.7493 47.5473 90.4028 46.9523 90.3023 46.3068C90.242 45.8731 89.8499 45.5201 89.327 45.3587" fill="black"/>
<path d="M20.4751 51.2156C20.2137 51.1349 19.9221 51.1047 19.6205 51.1249C18.7156 51.2056 18.0621 51.7905 18.1526 52.436C18.223 52.8697 18.605 53.2227 19.1278 53.3841C19.3893 53.4648 19.6808 53.495 19.9825 53.4749C20.8873 53.3942 21.5509 52.8092 21.4504 52.1637C21.38 51.73 20.9979 51.377 20.4751 51.2156Z" fill="black"/>
<path d="M20.5958 53.5779C20.5958 43.0684 30.1373 34.1627 43.3487 31.0361C43.6402 27.0421 47.491 23.734 52.6791 22.7052C52.6388 22.7052 52.5986 22.7052 52.5685 22.7052C32.4699 22.7052 16.182 34.4854 16.182 49.0191C16.182 56.5633 20.5757 63.351 27.5936 68.1519C23.2099 64.1276 20.5958 59.0746 20.5958 53.5779Z" fill="white"/>
<path d="M5.59467 50.1654C2.01534 54.6031 -0.015625 59.6662 -0.015625 65.042C-0.015625 82.4904 21.3296 96.3382 47.6518 96.6307C57.314 96.7416 67.6598 95.3296 76.95 91.2751V80.09C70.0025 83.1561 61.9892 84.9211 53.4632 84.9211C28.2369 84.9211 7.51504 69.5806 5.59467 50.1654Z" fill="black"/>
<path d="M86.1597 86.0728C86.8032 85.6088 87.4467 85.1348 88.07 84.6305C88.7034 84.0859 89.3067 83.521 89.8899 82.9462V71.7711C88.7135 72.8402 87.4668 73.8588 86.1597 74.8271V86.0828V86.0728Z" fill="black"/>
<path d="M93.2078 68.3586V79.2513C97.501 73.7747 99.9844 67.3399 99.9844 60.4513V56.6187C98.5868 60.8649 96.2643 64.8286 93.2078 68.3586Z" fill="black"/>
</g>
<defs>
<clipPath id="clip0_15980_7188">
<rect width="100" height="100" fill="white"/>
</clipPath>
</defs>
</svg>
