<svg width="100" height="100" viewBox="0 0 100 100" fill="none" xmlns="http://www.w3.org/2000/svg">
<g clip-path="url(#clip0_15980_7242)">
<rect width="100" height="100" fill="#F5B2F2"/>
<path d="M51.2556 99.7776L17.3916 80.1552C15.8315 79.2522 15.5281 77.125 16.7675 75.8226L57.6696 32.7574C59.0477 31.3075 61.2493 30.9862 62.9828 31.9934L97.0547 51.7374C98.6149 52.6404 98.9183 54.7676 97.6789 56.0699L56.9415 98.9614C55.4594 100.516 53.1104 100.854 51.2556 99.7776Z" fill="black"/>
<path d="M51.2556 97.6307L17.3916 78.0083C15.8315 77.1053 15.5281 74.9781 16.7675 73.6757L57.6696 30.6106C59.0477 29.1606 61.2493 28.8393 62.9828 29.8465L97.0547 49.5905C98.6149 50.4935 98.9183 52.6207 97.6789 53.9231L56.9415 96.8146C55.4594 98.3687 53.1104 98.7073 51.2556 97.6307Z" fill="white"/>
<path d="M51.2556 97.6307L17.3916 78.0083C15.8315 77.1053 15.5281 74.9781 16.7675 73.6757L57.6696 30.6106C59.0477 29.1606 61.2493 28.8393 62.9828 29.8465L97.0547 49.5905C98.6149 50.4935 98.9183 52.6207 97.6789 53.9231L56.9415 96.8146C55.4594 98.3687 53.1104 98.7073 51.2556 97.6307Z" fill="black"/>
<path d="M81.7393 38.4672L31.4504 91.413L39.4071 96.0234L89.696 43.0863L81.7393 38.4672Z" fill="black"/>
<path d="M55.8321 66.7796L9.22682 82.1737L32.3777 49.5883L58.1203 54.5981L62.9828 62.3342L55.8321 66.7796Z" fill="black"/>
<path d="M68.7206 48.6008L55.5806 6.83799C55.0952 5.2925 53.4224 4.26798 51.8362 4.54582L24.5249 9.43407L16.0827 8.15774L14.5312 11.3876C14.1585 12.0649 14.0545 12.8202 14.2972 13.619L30.5661 65.3232C31.0515 66.8687 32.7243 67.8932 34.3104 67.6154L70.1853 61.1991C71.0434 61.0428 71.6848 60.5305 72.0228 59.8533L73.7217 56.4063L68.7206 48.6008Z" fill="black"/>
<path d="M35.9746 64.1782L71.8495 57.7619C73.427 57.4754 74.3111 55.9993 73.8257 54.4452L57.5568 2.74094C57.0714 1.19545 55.3985 0.170932 53.8123 0.448772L17.9376 6.86512C16.3601 7.15164 15.476 8.62767 15.9613 10.1818L32.2303 61.8861C32.7157 63.4316 34.3885 64.4561 35.9746 64.1782Z" fill="white"/>
<path d="M23.6667 19.3508L56.1525 13.5336C56.7853 13.4207 57.1492 12.8216 56.9499 12.1965L54.731 5.13761C54.5317 4.51247 53.8556 4.10439 53.2229 4.21727L20.7371 10.0345C20.1043 10.1474 19.7403 10.7465 19.9396 11.3716L22.1585 18.4305C22.3579 19.0556 23.034 19.4637 23.6667 19.3508Z" fill="black"/>
<path d="M37.1708 30.5082L41.5133 29.7268C42.0853 29.6226 42.406 29.0843 42.2326 28.5286L40.8892 24.2742C40.7159 23.7098 40.1091 23.3451 39.5284 23.4407L35.1859 24.2221C34.6139 24.3263 34.2932 24.8646 34.4666 25.4203L35.8101 29.6747C35.9834 30.239 36.5901 30.6037 37.1708 30.5082Z" fill="#F5B2F2"/>
<path d="M27.9485 32.1565L32.2909 31.3751C32.863 31.2709 33.1836 30.7326 33.0103 30.1769L31.6669 25.9225C31.4935 25.3581 30.8867 24.9935 30.306 25.089L25.9636 25.8704C25.3915 25.9746 25.0709 26.5129 25.2442 27.0686L26.5877 31.323C26.7611 31.8874 27.3678 32.252 27.9485 32.1565Z" fill="#F5B2F2"/>
<path d="M46.3843 28.8565L50.7267 28.0751C51.2988 27.9709 51.6195 27.4326 51.4461 26.8769L50.1027 22.6225C49.9294 22.0581 49.3226 21.6934 48.7418 21.7889L44.3994 22.5704C43.8274 22.6746 43.5067 23.2129 43.68 23.7686L45.0236 28.023C45.1969 28.5874 45.8036 28.952 46.3843 28.8565Z" fill="#F5B2F2"/>
<path d="M55.6067 27.2082L59.9491 26.4268C60.5212 26.3226 60.8418 25.7843 60.6685 25.2286L59.3251 20.9741C59.1517 20.4098 58.5449 20.0451 57.9642 20.1406L53.6218 20.9221C53.0497 21.0262 52.729 21.5646 52.9024 22.1202L54.2458 26.3747C54.4192 26.939 55.0259 27.3037 55.6067 27.2082Z" fill="#F5B2F2"/>
<path d="M65.1323 39.4165L69.3273 52.666C69.5006 53.2304 69.18 53.7687 68.6079 53.8642L64.2655 54.6456C63.6934 54.7498 63.0868 54.3764 62.9047 53.8121L58.7096 40.5626C58.5362 39.9983 58.857 39.4599 59.4291 39.3644L63.7715 38.583C64.3436 38.4788 64.9502 38.8522 65.1323 39.4165Z" fill="#F5B2F2"/>
<path d="M42.978 48.9585L47.3205 48.1771C47.8925 48.0729 48.2133 47.5346 48.0399 46.9789L46.6964 42.7245C46.5231 42.1601 45.9164 41.7954 45.3357 41.8909L40.9932 42.6724C40.4212 42.7766 40.1004 43.3149 40.2738 43.8706L41.6173 48.125C41.7906 48.6893 42.3973 49.054 42.978 48.9585Z" fill="black"/>
<path d="M52.1917 47.3068L56.5341 46.5254C57.1062 46.4212 57.427 45.8829 57.2536 45.3272L55.9101 41.0728C55.7368 40.5084 55.1301 40.1437 54.5494 40.2392L50.2069 41.0207C49.6349 41.1249 49.3141 41.6632 49.4874 42.2188L50.831 46.4733C51.0043 47.0376 51.611 47.4023 52.1917 47.3068Z" fill="black"/>
<path d="M33.8079 50.6339L38.1504 49.8525C38.7224 49.7483 39.0431 49.21 38.8697 48.6543L37.5263 44.3999C37.353 43.8355 36.7462 43.4709 36.1655 43.5664L31.823 44.3478C31.251 44.452 30.9303 44.9903 31.1037 45.546L32.4472 49.8004C32.6205 50.3648 33.2272 50.7294 33.8079 50.6339Z" fill="black"/>
<path d="M45.8731 58.1802L50.2155 57.3988C50.7875 57.2946 51.1082 56.7563 50.9349 56.2006L49.5914 51.9462C49.418 51.3819 48.8113 51.0172 48.2306 51.1127L43.8882 51.8941C43.3161 51.9983 42.9954 52.5366 43.1688 53.0923L44.5122 57.3467C44.6855 57.9111 45.2923 58.2757 45.8731 58.1802Z" fill="black"/>
<path d="M55.0954 56.5285L59.4379 55.7471C60.0099 55.6429 60.3306 55.1046 60.1572 54.5489L58.8137 50.2945C58.6404 49.7301 58.0337 49.3655 57.453 49.461L53.1105 50.2424C52.5385 50.3466 52.2178 50.8849 52.3912 51.4406L53.7346 55.695C53.9079 56.2594 54.5147 56.624 55.0954 56.5285Z" fill="black"/>
<path d="M36.7114 59.8557L41.0539 59.0743C41.6259 58.9701 41.9467 58.4318 41.7733 57.8761L40.4298 53.6217C40.2565 53.0573 39.6498 52.6926 39.0691 52.7882L34.7266 53.5696C34.1546 53.6738 33.8338 54.2121 34.0072 54.7678L35.3507 59.0222C35.524 59.5865 36.1307 59.9512 36.7114 59.8557Z" fill="black"/>
<path d="M40.0745 39.7299L44.417 38.9485C44.989 38.8443 45.3098 38.306 45.1364 37.7503L43.7929 33.4959C43.6196 32.9316 43.0128 32.5669 42.4321 32.6624L38.0897 33.4438C37.5177 33.548 37.1969 34.0863 37.3703 34.642L38.7138 38.8964C38.8871 39.4608 39.4938 39.8255 40.0745 39.7299Z" fill="black"/>
<path d="M30.8522 41.3783L35.1946 40.5968C35.7667 40.4927 36.0874 39.9543 35.9141 39.3987L34.5706 35.1442C34.3972 34.5799 33.7905 34.2152 33.2098 34.3107L28.8674 35.0921C28.2953 35.1963 27.9746 35.7347 28.1479 36.2903L29.4914 40.5448C29.6648 41.1091 30.2715 41.4738 30.8522 41.3783Z" fill="black"/>
<path d="M49.288 38.0782L53.6304 37.2968C54.2025 37.1926 54.5232 36.6543 54.3498 36.0986L53.0064 31.8442C52.833 31.2799 52.2263 30.9152 51.6455 31.0107L47.3032 31.7921C46.7312 31.8963 46.4104 32.4346 46.5837 32.9903L47.9272 37.2447C48.1006 37.8091 48.7073 38.1737 49.288 38.0782Z" fill="black"/>
<path d="M58.5104 36.4299L62.8528 35.6485C63.4249 35.5443 63.7455 35.006 63.5722 34.4503L62.2288 30.1959C62.0554 29.6316 61.4486 29.2669 60.8679 29.3624L56.5255 30.1438C55.9534 30.248 55.6328 30.7863 55.8061 31.342L57.1496 35.5964C57.323 36.1608 57.9296 36.5255 58.5104 36.4299Z" fill="black"/>
<path d="M23.6667 19.3508L56.1525 13.5336C56.7853 13.4207 57.1492 12.8216 56.9499 12.1965L54.731 5.13761C54.5317 4.51247 53.8556 4.10439 53.2229 4.21727L20.7371 10.0345C20.1043 10.1474 19.7403 10.7465 19.9396 11.3716L22.1585 18.4305C22.3579 19.0556 23.034 19.4637 23.6667 19.3508Z" fill="black"/>
<path d="M23.0079 20.463L55.4938 14.6457C56.1265 14.5328 56.4906 13.9337 56.2912 13.3086L53.9336 5.82429C53.8122 5.43358 53.3962 5.18178 52.9975 5.25124L20.0783 11.1467C19.4456 11.2595 19.0815 11.8586 19.2809 12.4837L21.4998 19.5426C21.6992 20.1678 22.3752 20.5758 23.0079 20.463Z" fill="black"/>
<path d="M10.7349 67.2155C4.80628 62.4141 5.63836 53.5145 12.3557 46.6554C10.6135 42.427 12.1044 36.9049 16.2908 32.0775C12.4944 34.6648 8.906 38.216 5.95037 42.3923C-1.52969 52.9588 0.697846 66.5469 9.7294 70.5322C13.9765 72.4076 19.0817 72.043 24.0308 69.9331C18.9863 70.784 14.1065 69.9418 10.7349 67.2155Z" fill="white"/>
</g>
<defs>
<clipPath id="clip0_15980_7242">
<rect width="100" height="100" fill="white"/>
</clipPath>
</defs>
</svg>
