<svg width="100" height="100" viewBox="0 0 100 100" fill="none" xmlns="http://www.w3.org/2000/svg">
<g clip-path="url(#clip0_15980_1986)">
<rect width="100" height="100" fill="#F5B2F2"/>
<path d="M49.9453 78.9043C77.5595 78.9043 99.9453 70.3997 99.9453 59.9088C99.9453 49.4178 77.5595 40.9133 49.9453 40.9133C22.3311 40.9133 -0.0546875 49.4178 -0.0546875 59.9088C-0.0546875 70.3997 22.3311 78.9043 49.9453 78.9043Z" fill="black"/>
<path d="M93.5089 54.9005L87.5667 31.6157C87.5667 31.6157 81.7314 21.4002 49.1042 21.9238C16.4742 22.4473 11.9366 32.3694 11.9366 32.3694L5.63023 56.2555C5.52329 56.5115 5.4337 56.7676 5.36145 57.0265L5.35279 57.0524C5.22273 57.5328 5.15336 58.019 5.15336 58.5138C5.15336 67.078 25.2054 74.0226 49.9424 74.0226C74.6794 74.0226 94.7314 67.0809 94.7314 58.5138C94.7314 57.271 94.3065 56.0599 93.5089 54.9034V54.9005Z" fill="white"/>
<path d="M50.2344 43.413C68.3162 43.413 82.9743 39.2193 82.9743 34.0461C82.9743 28.873 68.3162 24.6793 50.2344 24.6793C32.1527 24.6793 17.4946 28.873 17.4946 34.0461C17.4946 39.2193 32.1527 43.413 50.2344 43.413Z" fill="black"/>
<path d="M93.5089 54.9005V54.9034C94.3065 56.0599 94.7314 57.271 94.7314 58.5138C94.7314 67.0809 74.6794 74.0226 49.9424 74.0226C25.2054 74.0226 5.15336 67.078 5.15336 58.5138C5.15336 58.019 5.22273 57.5328 5.35279 57.0524L5.36145 57.0265C5.4337 56.7676 5.52329 56.5115 5.63023 56.2555L6.33544 53.5835C6.21739 55.838 6.29639 57.9455 6.86131 58.8707C8.53472 61.6123 17.4945 71.0943 49.9453 71.3676C58.2649 71.4378 65.1387 70.7409 70.5826 69.6018C70.8677 69.4907 84.1464 64.2698 82.9742 55.4531C81.7825 46.4744 61.08 45.7175 61.0147 45.7152C61.0575 45.7097 71.5839 44.3558 77.24 42.2457C81.526 40.6462 85.0203 37.8184 86.4856 36.0635C87.3715 35.0041 87.8536 34.0855 87.9679 33.1885L93.5089 54.9005Z" fill="black"/>
<path d="M8.31806 54.6877L13.0464 34.95C13.0464 34.95 13.3556 36.9062 16.3816 39.619C19.5637 42.4671 27.5695 43.4135 27.5695 43.4135C27.5695 43.4135 17.9423 42.562 13.584 46.4313C10.4481 49.216 8.31806 54.6877 8.31806 54.6877Z" fill="#F5B2F2"/>
<path d="M51.266 24.3976C52.5203 23.4799 54.2488 22.732 56.6794 23.8309C57.7545 24.3142 58.3615 24.8263 58.6939 25.3239C59.9944 27.2542 57.2893 28.9891 62.318 28.1491C68.6446 27.0876 65.4135 34.7658 69.2083 34.9096C73.0031 35.0506 70.85 40.6431 76.0003 38.9429C76.4691 38.7892 76.9646 38.9784 77.4474 39.255C71.5723 41.7622 61.5768 43.413 50.2344 43.413C36.544 43.413 24.8155 41.0084 19.9268 37.5952C21.5644 36.3403 23.5027 35.7423 25.665 35.4561C30.1563 34.8577 30.4541 38.1114 32.9078 34.2364C35.3645 30.3585 37.4018 33.1689 39.0492 31.5637C40.1619 30.4734 38.165 27.8786 40.1852 25.7814C40.6707 25.2751 41.2893 24.7977 41.9772 24.4209C43.6506 23.4917 45.7285 23.1205 47.2632 24.2741C47.7141 24.6106 48.1187 25.0795 48.451 25.7038C49.0031 26.7394 49.8267 25.4534 51.266 24.3976Z" fill="white"/>
<path d="M55.48 23.4198C55.8586 23.5061 56.2575 23.6382 56.6765 23.8281C57.7516 24.3114 58.3586 24.8235 58.691 25.3211C59.9915 27.2514 57.2863 28.9863 62.3151 28.1463C62.711 28.0801 63.0695 28.0454 63.3932 28.0454C63.7863 28.0454 64.1244 28.0916 64.4279 28.1693C64.5753 28.2096 64.7113 28.2555 64.8413 28.3101C65.2112 28.4684 65.509 28.69 65.7489 28.9604C65.7516 28.9631 65.7545 28.9661 65.7545 28.9661C65.7661 28.9805 65.7776 28.9978 65.792 29.015L65.7659 29.0267C65.8671 29.1446 65.9569 29.2711 66.0379 29.4063C66.2691 29.786 66.4365 30.2204 66.5694 30.6749C67.0637 32.3607 67.1273 34.3228 68.5464 34.809C68.7314 34.8751 68.9423 34.9125 69.1793 34.9212C69.6532 34.9384 70.0348 35.0419 70.3498 35.2059C70.5839 35.3267 70.7834 35.485 70.9539 35.6634C71.1273 35.8417 71.2459 36.0603 71.3991 36.2617C73.1023 38.5054 76.4622 38.8116 78.5209 38.7652C72.8421 41.5451 62.3003 43.413 50.2344 43.413C45.5243 43.413 41.0465 43.1279 36.9995 42.6155C39.0154 41.2824 41.3006 39.5498 41.7632 38.2841C42.6245 35.928 44.8846 37.9908 44.8846 37.9908C44.8929 37.9937 46.4596 38.5466 47.4714 37.7088C49.8008 35.7784 49.5263 33.5028 49.5263 33.5028C49.5332 33.5064 51.3421 34.454 53.2344 33.9056C55.0377 33.3849 54.3326 30.2836 54.3326 30.2836C54.3217 30.263 51.91 25.6595 54.2486 23.923C54.5463 23.7015 54.9829 23.5177 55.48 23.4198Z" fill="#F5B2F2"/>
<path d="M52.9307 65.6282C51.8874 65.9791 50.9192 65.3232 50.2255 64.8543C49.8267 64.5839 49.4134 64.3048 49.185 64.3394C48.9654 64.371 48.8007 64.5609 48.5521 64.8629C48.0579 65.4642 47.3845 66.287 45.5348 65.8353C44.4336 65.5649 43.9076 64.4516 44.0521 62.6967C44.2978 59.7365 46.5954 55.03 49.1446 54.8373C51.1186 54.6877 52.8613 57.0006 53.7515 59.0259C54.7024 61.1835 55.0839 63.8963 53.7978 65.0902C53.5059 65.3606 53.214 65.5332 52.9307 65.6282Z" fill="black"/>
<path d="M55.5955 57.8433C54.977 58.0505 54.399 57.9958 53.9395 57.6736C53.0811 57.0723 52.9742 55.9187 53.6678 54.7364C54.3499 53.5799 55.7343 52.6622 56.9568 53.2433C57.6302 53.5626 58.0088 54.1092 58.0233 54.7795C58.0493 55.9475 57.0291 57.127 56.0551 57.6448C55.899 57.7282 55.7458 57.7944 55.5955 57.8462V57.8433Z" fill="black"/>
<path d="M44.0753 58.9913C43.5839 59.1582 42.9741 59.1467 42.3123 58.9424C41.0261 58.5426 39.818 57.4062 40.1128 56.0886C40.2747 55.3637 40.7227 54.8746 41.3758 54.7078C42.5146 54.4201 43.899 55.1451 44.6215 55.9736C45.2111 56.6467 45.3903 57.3746 45.1273 58.019C44.9308 58.4994 44.5608 58.8302 44.0782 58.9942L44.0753 58.9913Z" fill="black"/>
<path d="M47.1766 55.0727C46.2748 55.3748 45.3095 54.8857 44.6679 53.7781C43.9945 52.6159 43.8818 50.9646 44.9945 50.1936C45.6072 49.7707 46.2719 49.7132 46.8615 50.0297C47.8933 50.5849 48.4193 52.052 48.3875 53.151C48.3615 54.0457 47.9974 54.6987 47.3644 54.995C47.3008 55.0238 47.2372 55.0497 47.1737 55.0698L47.1766 55.0727Z" fill="black"/>
<path d="M51.8586 54.731C51.5377 54.8375 51.2112 54.8519 50.8904 54.7598C49.8788 54.4779 49.3903 53.425 49.6505 52.0815C49.9048 50.7639 50.9019 49.4406 52.2516 49.5816C52.9944 49.6592 53.5349 50.0476 53.7718 50.6747C54.188 51.7679 53.6216 53.2178 52.8759 54.0291C52.558 54.3743 52.214 54.6102 51.8586 54.7282V54.731Z" fill="black"/>
</g>
<defs>
<clipPath id="clip0_15980_1986">
<rect width="100" height="100" fill="white"/>
</clipPath>
</defs>
</svg>
