<svg width="100" height="100" viewBox="0 0 100 100" fill="none" xmlns="http://www.w3.org/2000/svg">
<g clip-path="url(#clip0_15980_7360)">
<rect width="100" height="100" fill="#F5B2F2"/>
<path d="M72.3036 19.5132C63.5993 19.5132 56.1411 24.5641 52.8179 32.1359C49.5042 24.5641 42.0366 19.5132 33.3322 19.5132C21.7295 19.5132 12.3454 28.52 12.1944 40.9728C13.0251 72.1095 53.2333 93.9939 53.2333 93.9939C53.2333 93.9939 93.4414 72.1095 93.4414 40.9728C93.4414 29.1903 83.9063 19.5132 72.3036 19.5132Z" fill="black"/>
<path d="M20.6721 21.9059C24.2407 19.4984 28.5739 18.1106 33.3321 18.1106C34.3989 18.1106 35.4468 18.1861 36.4759 18.3277C33.7758 17.1098 30.7736 16.4301 27.6015 16.4301C22.9661 16.4301 18.6612 17.9784 15.1681 20.5842L20.6721 21.8965V21.9059Z" fill="black"/>
<path d="M52.8177 29.0885C56.8395 22.3381 64.2222 18.1085 72.3035 18.1085C73.2664 18.1085 74.2105 18.1746 75.1357 18.2973C72.5111 17.1078 69.6223 16.4374 66.5729 16.4374C59.5962 16.4374 53.4314 19.6852 49.5418 24.8683C50.7879 26.1334 51.8925 27.5402 52.8177 29.0885Z" fill="black"/>
<path d="M32.0859 80.1751C18.5196 67.6657 11.1558 54.1177 10.8065 41.004V40.9474C10.8443 37.7374 11.4673 34.7163 12.5719 31.9878L7.68161 30.7982C6.90747 33.0263 6.47317 35.4055 6.47317 37.8885C5.54798 59.5275 25.0431 76.3515 37.486 84.8296C35.7301 83.4039 33.908 81.8556 32.0859 80.1656V80.1751Z" fill="black"/>
<path d="M15.4606 26.8737C16.3103 25.7502 17.2544 24.7117 18.3023 23.7675L12.9588 22.493C11.9864 23.4466 11.099 24.4945 10.3154 25.618L15.4606 26.8737Z" fill="black"/>
<path d="M82.8016 26.3748C76.2497 21.5598 68.9332 23.8729 68.9332 23.8729C82.66 24.1844 79.6295 35.9669 79.6295 35.9669C91.9591 46.371 81.2628 66.2634 81.2628 66.2634C95.5183 45.2664 89.3535 31.1992 82.8016 26.3842V26.3748ZM28.4135 23.9107C36.2115 23.8162 38.3735 30.2079 38.3735 30.2079C45.4163 30.2079 50.7786 35.6554 50.7786 35.6554C43.3581 19.0296 28.4229 23.9107 28.4229 23.9107H28.4135ZM18.0664 80.4911C18.5385 89.5451 10.882 90.4514 10.882 90.4514C20.0395 92.8683 22.5885 100.402 22.5885 100.402C22.7301 91.7071 29.9712 90.4609 29.9712 90.4609C20.4171 88.2989 18.0664 80.4911 18.0664 80.4911ZM48.966 0.402344C49.2964 6.69955 43.9718 7.3321 43.9718 7.3321C50.3349 9.01261 52.1097 14.2524 52.1097 14.2524C52.2136 8.21012 57.2455 7.34155 57.2455 7.34155C50.6087 5.84042 48.966 0.411794 48.966 0.411794V0.402344Z" fill="white"/>
</g>
<defs>
<clipPath id="clip0_15980_7360">
<rect width="100" height="100" fill="white"/>
</clipPath>
</defs>
</svg>
