<svg width="100" height="100" viewBox="0 0 100 100" fill="none" xmlns="http://www.w3.org/2000/svg">
<g clip-path="url(#clip0_15980_7388)">
<rect width="100" height="100" fill="#F5B2F2"/>
<path d="M99.5144 70.7451L75.8004 16.8708C74.3389 13.5384 70.7201 11.6986 67.1621 12.471L56.2359 14.8227C56.8275 15.9422 57.2363 17.0097 57.4712 17.7386C57.6713 18.3461 57.6017 19.0143 57.2712 19.5697C56.9493 20.1251 56.3925 20.5243 55.7662 20.6545L48.0413 22.2426C47.8935 22.2773 47.7368 22.286 47.5803 22.286C46.432 22.286 45.4663 21.4269 45.3271 20.2987C45.1793 19.0664 44.8922 18.0944 44.5268 17.3394L26.015 21.3314C22.8572 22.0083 21.1174 25.4102 22.4135 28.3694L46.0492 82.0702C47.5107 85.3853 51.1034 87.225 54.6527 86.4787L95.8868 77.7918C99.062 77.1236 100.811 73.7131 99.5144 70.7538V70.7451ZM36.8803 25.1411C35.5145 25.1411 34.401 24.2733 34.401 23.1972C34.401 22.1211 35.5145 21.2533 36.8803 21.2533C38.2461 21.2533 39.3595 22.1211 39.3595 23.1972C39.3595 24.2733 38.2461 25.1411 36.8803 25.1411ZM67.6667 19.6478C66.1443 19.6478 64.909 18.6759 64.909 17.4783C64.909 16.2807 66.1443 15.3087 67.6667 15.3087C69.189 15.3087 70.4243 16.2807 70.4243 17.4783C70.4243 18.6759 69.189 19.6478 67.6667 19.6478Z" fill="black"/>
<path d="M91.6763 51.0545L75.8003 14.9792C74.3388 11.6468 70.72 9.80702 67.162 10.5794L55.2006 13.1568C56.4011 14.797 57.1144 16.6454 57.4711 17.7476C57.6712 18.3551 57.6016 19.0233 57.271 19.5787C56.9492 20.1341 56.3924 20.5333 55.7661 20.6635L48.0412 22.2516C47.8933 22.2863 47.7367 22.295 47.5802 22.295C46.4319 22.295 45.4662 21.4358 45.327 20.3076C45.0313 17.9038 44.2309 16.5066 43.3175 15.7082L26.0062 19.4398C22.8484 20.1167 21.1086 23.5186 22.4047 26.4779L38.2807 62.5618L91.6676 51.0632L91.6763 51.0545ZM67.6667 15.3087C69.189 15.3087 70.4243 16.2807 70.4243 17.4783C70.4243 18.6759 69.189 19.6478 67.6667 19.6478C66.1443 19.6478 64.909 18.6759 64.909 17.4783C64.909 16.2807 66.1443 15.3087 67.6667 15.3087ZM34.4009 23.1888C34.4009 22.1127 35.5144 21.2449 36.8802 21.2449C38.2459 21.2449 39.3594 22.1127 39.3594 23.1888C39.3594 24.2649 38.2459 25.1327 36.8802 25.1327C35.5144 25.1327 34.4009 24.2649 34.4009 23.1888Z" fill="white"/>
<path d="M0.448021 76.926C1.22225 88.5548 15.6716 94.942 26.4672 86.6283C37.8893 77.8285 35.3665 67.3019 34.7924 63.0235L31.217 54.7445C31.217 54.7445 36.0973 79.7638 17.1505 84.4413C17.1505 84.4413 6.05899 87.0622 1.48323 78.9133L0.448021 76.9173V76.926Z" fill="white"/>
<path d="M99.5142 68.8539L92.2155 52.2699L38.8287 63.7685L46.049 80.1703C47.5105 83.4854 51.1032 85.3252 54.6525 84.5788L95.8866 75.892C99.0618 75.2237 100.81 71.8132 99.5142 68.8539Z" fill="white"/>
<path d="M62.8212 17.4689C62.8212 17.4689 62.3949 20.9749 66.7619 21.6171C71.1289 22.2593 72.834 19.3868 72.834 19.3868L85.0911 44.1631C85.0911 44.1631 72.0858 21.0877 53.9741 23.9602C53.9741 23.9602 59.4111 22.7886 62.8212 17.4776V17.4689Z" fill="#F5B2F2"/>
<path d="M34.5749 45.8563L38.4112 55.7408C38.4112 55.7408 43.6829 49.6834 46.5624 34.8523C46.5624 34.8523 43.5263 41.873 34.5749 45.8563Z" fill="#F5B2F2"/>
<path d="M68.1798 73.3061L76.1831 71.6139C76.4266 71.5618 76.5658 71.3014 76.4702 71.0758L73.2862 63.4911C73.1818 63.2481 72.9209 63.1092 72.6599 63.1613L64.6567 64.8535C64.4131 64.9056 64.2739 65.166 64.3696 65.3916L67.5535 72.9763C67.6579 73.2193 67.9188 73.3582 68.1798 73.3061ZM50.9033 67.7521L47.4236 68.4897L53.6609 71.7701L50.9642 76.9423L54.4438 76.2046L57.1405 71.0324L50.9033 67.7521ZM54.6004 66.9797L60.8377 70.2601L58.141 75.4323L61.6206 74.6946L64.3174 69.5224L58.0801 66.2421L54.6004 66.9797ZM90.0061 59.4904L86.5264 60.2281L83.8296 65.4003L90.067 68.6806L93.5466 67.943L87.3093 64.6626L90.0061 59.4904ZM82.8292 61.0091L79.3496 61.7467L76.6528 66.919L82.8902 70.1993L86.3698 69.4617L80.1325 66.1813L82.8292 61.0091Z" fill="black"/>
<path d="M57.3232 39.9139C58.0104 40.1135 58.7585 40.2177 59.4371 40.0788C60.1156 39.94 60.6463 39.5581 61.0638 39.1329C62.0033 38.1609 62.3861 36.8071 62.3165 35.4013C62.2295 33.7003 61.6641 32.2858 61.6641 32.2858C60.2461 28.6496 56.9665 27.3566 54.1306 27.9554C51.2947 28.5542 49.5983 30.8886 51.3381 34.464C51.3381 34.464 52.008 35.8612 53.2955 37.3018C54.3655 38.4994 55.7747 39.4713 57.3319 39.9226L57.3232 39.9139ZM74.0865 44.253C72.2336 41.8492 70.6416 41.1462 68.1101 40.9119L64.0302 40.4607C64.0302 40.4607 63.4213 40.3912 62.5166 40.3912C61.838 41.0768 61.0464 41.5281 60.1591 41.7103C59.2718 41.8926 58.254 41.8318 57.1405 41.5194C56.3837 41.8665 55.94 42.1616 55.94 42.1616L52.904 44.1055C50.9902 45.2771 50.2246 46.4833 50.6161 49.1909L51.2338 52.8445L76.4962 47.516L74.0778 44.2357L74.0865 44.253Z" fill="black"/>
<path d="M24.8057 42.5389C24.0141 43.5195 23.2746 44.5522 22.57 45.5936C21.3695 47.3726 18.5423 50.8786 13.2271 53.9594C5.71971 58.3072 -0.404509 61.8479 -0.039144 70.8298C-0.039144 70.8298 -0.0391462 73.1296 0.448008 75.7851C0.448008 75.7851 0.448027 69.8926 5.41526 65.0588C10.3825 60.2251 15.5324 60.0255 20.7432 55.3132C25.954 50.6009 26.4324 44.4134 25.8322 41.2719L24.8144 42.5302L24.8057 42.5389ZM56.2358 18.1358C55.566 16.0704 53.687 11.575 49.9202 11.0891L39.8988 13.4322C39.8988 13.4322 45.675 12.4515 46.6233 20.1491C46.6929 20.7045 47.2235 21.0864 47.7802 20.9735L55.5051 19.3854C56.0705 19.2726 56.4098 18.6912 56.2358 18.1444V18.1358Z" fill="black"/>
<path d="M91.6763 51.0495L38.2982 62.5481L38.8288 63.7631L92.2156 52.2644L91.6763 51.0495Z" fill="black"/>
</g>
<defs>
<clipPath id="clip0_15980_7388">
<rect width="100" height="100" fill="white"/>
</clipPath>
</defs>
</svg>
