<svg width="100" height="100" viewBox="0 0 100 100" fill="none" xmlns="http://www.w3.org/2000/svg">
<g clip-path="url(#clip0_15980_7432)">
<rect width="100" height="100" fill="#F5B2F2"/>
<path d="M43.6336 80.9179L8.20502 60.3561C7.68928 60.0317 7.15607 59.8563 6.65781 59.8563C6.0634 59.8563 5.54764 60.0931 5.1368 60.5753C4.46372 61.3557 4.18401 62.6359 4.38506 64.0037C4.63856 65.7487 5.6438 67.3883 6.94626 68.1863L43.0042 89.1251C43.8347 89.6074 44.8836 89.4583 45.5392 88.7569L89.3158 42.6001L88.9137 35.4802L46.1599 80.5497C45.5043 81.2424 44.4553 81.4002 43.6249 80.9179H43.6336Z" fill="black"/>
<path d="M45.8452 91.3604C45.1371 92.1057 44.0182 92.2635 43.1354 91.7549L4.59484 69.378C3.20497 68.5275 2.12978 66.7738 1.8588 64.9062C1.64901 63.4418 1.94623 62.074 2.66301 61.241C3.10008 60.7324 3.64203 60.4781 4.28889 60.4781C4.82211 60.4781 5.39031 60.6623 5.94101 61.013L43.8085 82.9865C44.6913 83.5039 45.8102 83.3373 46.5182 82.592L94.3945 32.1212C95.1375 31.3408 94.9539 30.0694 94.0274 29.5345L56.6407 7.81528C54.4292 6.52633 51.6319 6.92968 49.8662 8.78857C38.8696 20.3804 1.40427 59.8994 1.33434 59.9696L1.29937 60.0134C0.25041 61.2147 -0.27408 63.0823 0.0318663 65.1868C0.399002 67.6945 1.83258 69.8691 3.63329 70.9739L43.4675 94.1049C44.3504 94.6222 45.4693 94.4556 46.1773 93.7103L94.4295 42.8362C95.1113 42.1172 95.0064 40.9685 94.211 40.381L45.8452 91.3779V91.3604Z" fill="white"/>
<path d="M92.3927 51.7469L84.5081 33.8156L75.8192 14.1481C75.5395 13.5168 74.8576 13.0696 74.2108 13.0696C74.1234 13.0696 74.0359 13.0696 73.9485 13.0959L43.7385 19.4969L20.1544 18.5499V25.0998C20.1544 25.4769 20.2331 25.6873 20.3117 25.8715L24.4988 35.3062L18.275 42.0842C18.8344 41.5932 19.324 41.5581 19.7436 41.637C20.5215 41.7948 20.845 42.4788 20.845 42.4788L34.5077 74.8779C34.8311 75.6495 35.6528 76.0792 36.4657 75.9126L95.8018 63.1721C96.5099 63.0231 96.8333 62.5145 96.7984 61.664V55.5436L92.3927 51.7294V51.7469Z" fill="black"/>
<path d="M89.176 37.9191L96.711 54.9122C97.0257 55.6312 96.711 56.3327 95.9942 56.4817L43.2316 67.9069C43.1442 67.9244 43.048 67.9332 42.9606 67.9332C42.305 67.9332 41.6232 67.4948 41.3435 66.8635L34.3329 50.9576L89.1848 37.9191H89.176Z" fill="black"/>
<path d="M89.1759 37.9178L75.8104 7.48281C75.5307 6.85148 74.8489 6.4043 74.202 6.4043C74.1146 6.4043 74.0272 6.4043 73.9398 6.4306L21.046 17.6366C20.3205 17.7769 19.9883 18.4871 20.3118 19.2149L34.193 51.009C34.193 51.009 38.6336 60.1281 47.8994 62.3904C49.2368 62.7148 50.6442 62.671 51.9903 62.3816L99.0799 52.1664C100.006 51.9648 100.26 50.7723 99.4907 50.2199C96.7022 48.2207 91.877 44.082 89.1759 37.9178Z" fill="white"/>
<path d="M5.66132 12.8675C5.66132 12.8675 6.87637 16.9098 11.8065 18.0234C11.8065 18.0234 8.07394 18.6722 7.99527 23.1704C7.99527 23.1704 6.68407 19.2685 1.95501 18.0234C1.95501 18.0234 5.90608 17.5499 5.66132 12.8675Z" fill="white"/>
<path d="M78.092 64.9229C78.092 64.9229 80.3997 72.604 89.7704 74.726C89.7704 74.726 82.6725 75.9535 82.5326 84.5027C82.5326 84.5027 80.0326 77.0934 71.0553 74.7172C71.0553 74.7172 78.5553 73.8228 78.092 64.9229Z" fill="white"/>
</g>
<defs>
<clipPath id="clip0_15980_7432">
<rect width="100" height="100" fill="white"/>
</clipPath>
</defs>
</svg>
