<svg width="100" height="100" viewBox="0 0 100 100" fill="none" xmlns="http://www.w3.org/2000/svg">
<rect width="100" height="100" fill="#F5B2F2"/>
<path d="M28.8789 12.627C28.6117 11.7585 27.5905 11.3576 26.7983 11.8157H26.8079L23.2479 13.8677C22.4749 14.3163 22.1122 15.242 22.3795 16.0915L27.266 31.7818L31.133 44.0607C23.5947 44.8297 18.6163 46.1557 18.6163 47.6625C18.6163 50.0397 31.008 51.9668 46.2939 51.9668C61.5798 51.9668 73.9715 50.0397 73.9715 47.6625C73.9715 45.2853 61.5798 43.3581 46.2939 43.3581C43.5914 43.3581 40.9794 43.4184 38.5104 43.5307L28.8789 12.627Z" fill="white"/>
<path d="M58.7425 23.6596C58.4753 23.8886 57.1582 25.1103 56.9196 25.3393C56.557 25.6925 55.9748 25.3203 56.137 24.8335C56.2516 24.4804 56.5283 23.1347 56.5283 23.1347C57.6927 16.1198 57.4159 2.27147 37.9653 0C37.9653 0 39.3587 4.14209 42.3746 9.13361C47.1561 17.036 54.7913 21.1304 50.8115 31.4857C46.383 41.3923 46.5739 47.3383 46.593 47.6437L49.9334 47.491C49.9334 47.4242 49.5803 42.3372 53.3788 34.0053C55.3162 29.7487 59.5251 31.562 65.0607 30.9894C80.5792 29.3765 85.7998 19.3552 85.7998 19.3552C73.1445 14.1919 63.8581 19.2503 58.7425 23.6596Z" fill="black"/>
<path d="M56.9563 27.6301C56.9563 27.6301 60.9744 25.0246 68.3423 23.2685C75.7199 21.5124 84.0327 19.7563 84.0327 19.7563C84.0327 19.7563 75.2713 15.9292 65.0306 20.7775C65.0306 20.7775 59.6382 23.2971 56.9563 27.6206V27.6301Z" fill="#F5B2F2"/>
<path d="M54.4185 10.8891C53.5882 9.16165 52.3761 7.45326 50.62 5.92622C50.62 5.92622 45.9339 1.82231 40.6943 1.77459C40.6943 1.77459 44.0919 4.41827 46.5256 6.55613C49.5224 9.18073 52.6147 13.3801 53.7123 18.0567C56.7091 15.6039 54.4185 10.8891 54.4185 10.8891Z" fill="#F5B2F2"/>
<path d="M46.2948 54.4867C29.1252 54.4867 15.7922 51.8621 15 48.4358L16.3839 57.9512C16.9565 61.263 29.7742 63.8112 46.3044 63.8112C62.8346 63.8112 75.7094 61.2057 76.2248 57.9512L77.5992 48.4358C76.8643 51.8049 63.4645 54.4867 46.3044 54.4867H46.2948Z" fill="black"/>
<path d="M46.2924 65.7109C42.723 65.7109 29.1323 65.5296 20.9054 62.9813L25.6869 95.9559C26.0782 98.2369 34.916 99.993 46.302 99.993C57.688 99.993 66.5639 98.1987 66.917 95.9559L71.6986 62.9718C70.5628 63.3154 69.2267 63.6494 67.6424 63.9644C61.9542 65.0906 54.3762 65.7109 46.3116 65.7109H46.2924Z" fill="black"/>
<path d="M54.9522 93.7964L56.6701 65.403C59.6383 65.2121 62.9119 64.9162 66.0232 64.4295L62.1292 98.7307C58.4166 99.5133 53.177 100 47.2215 100C47.231 100 54.1887 99.6564 54.9426 93.806L54.9522 93.7964Z" fill="#F5B2F2"/>
<path d="M60.9377 57.5014L61.1572 53.8461C64.1636 53.5502 66.8741 53.1685 69.2219 52.7008L68.1625 62.1207C64.2113 62.8938 59.1625 63.4474 53.4552 63.6764C54.6673 63.5714 60.2696 62.7793 60.9377 57.5014Z" fill="#F5B2F2"/>
</svg>
