<svg width="100" height="100" viewBox="0 0 100 100" fill="none" xmlns="http://www.w3.org/2000/svg">
<g clip-path="url(#clip0_15980_7575)">
<rect width="100" height="100" fill="#F5B2F2"/>
<path d="M14.5292 79.5433L2.46717 93.0745H99.9844L83.1439 81.6078L14.5292 79.5433Z" fill="black"/>
<path d="M19.987 93.0736L26.9923 77.679L42.3173 70.1325L39.9822 83.2306L19.987 93.0736Z" fill="white"/>
<path d="M57.6508 77.679L59.9859 93.0736L79.9811 83.2306L72.9758 70.1325L57.6508 77.679Z" fill="white"/>
<path d="M-0.015625 83.2306L19.987 93.0736L26.9923 77.679L11.6598 70.1325L-0.015625 83.2306Z" fill="black"/>
<path d="M39.9822 83.2306L42.3173 70.1325L57.6508 77.679L59.9859 93.0736L39.9822 83.2306Z" fill="black"/>
<path d="M72.9758 70.1325L79.9811 83.2306L99.9844 93.0745L88.3084 77.679L72.9758 70.1325Z" fill="black"/>
<path d="M33.2788 79.813L41.382 75.4058L58.1298 80.8569L72.9758 70.1325L57.6508 77.679L42.3173 70.1325L29.5674 76.0166L33.2788 79.813Z" fill="black"/>
<path d="M33.2885 79.8138H26.4988L25.933 73.4813L31.9306 71.9334L33.2885 79.8138Z" fill="black"/>
<path d="M33.007 7.20226H24.5638L28.0818 8.75018L33.007 7.20226Z" fill="black"/>
<path d="M26.534 7.2002C39.9903 7.2003 50.8877 18.3416 50.8787 32.0807C50.8787 32.4745 50.869 32.8683 50.8509 33.2697C50.8466 33.3058 50.848 33.3405 50.8468 33.3748H42.046C42.0797 32.9479 42.0975 32.5164 42.0975 32.0807C42.0975 23.295 35.125 16.1752 26.534 16.1751C17.9428 16.1751 10.9704 23.2949 10.9704 32.0807C10.9704 40.8665 17.9428 47.9863 26.534 47.9863C30.7401 47.9863 34.5574 46.2787 37.3592 43.5056H48.8336C42.9764 61.4421 26.5537 79.79 26.534 79.812C26.534 79.812 3.28333 53.8479 2.22526 33.4891C2.21626 33.4135 2.21599 33.3453 2.21599 33.2697C2.19791 32.8683 2.1892 32.4745 2.1892 32.0807C2.18922 18.3415 13.0866 7.2002 26.534 7.2002ZM50.2976 37.8782C50.1391 38.7171 49.9524 39.5618 49.7361 40.4096H39.7938C40.2759 39.6099 40.6908 38.7635 41.0302 37.8782H50.2976Z" fill="black"/>
<path d="M20.0599 17.6164C17.8468 18.6529 15.9125 20.2036 14.4036 22.1198H4.22119C4.90415 20.5245 5.74534 19.0163 6.72583 17.6164H20.0599Z" fill="white"/>
<path d="M22.6263 15.083H8.75963C9.80159 13.9455 10.9469 12.9086 12.1802 11.9869H22.6263V15.083Z" fill="white"/>
<path d="M33.2879 7.20226C19.8405 7.20226 8.94328 18.3436 8.94328 32.0828C8.94328 32.4766 8.95232 32.8704 8.97041 33.2719C8.97041 33.3476 8.97041 33.4158 8.97945 33.4915C10.0375 53.8503 33.2885 79.8138 33.2885 79.8138C33.2885 79.8138 56.5382 53.8503 57.5963 33.4915C57.5963 33.4158 57.5963 33.3476 57.6054 33.2719C57.6234 32.8704 57.6325 32.4766 57.6325 32.0828C57.6415 18.3436 46.7443 7.20226 33.2879 7.20226ZM33.2879 47.9881C24.6967 47.9881 17.7243 40.8686 17.7243 32.0828C17.7243 23.2969 24.6967 16.1774 33.2879 16.1774C41.879 16.1774 48.8514 23.2969 48.8514 32.0828C48.8514 40.8686 41.879 47.9881 33.2879 47.9881Z" fill="white"/>
<path d="M23.0164 61.2386C19.4081 55.6098 16.9654 51.2475 15.6989 48.2923C18.4102 53.6397 24.384 60.8857 30.0524 62.3644C33.2889 63.2087 39.4806 64.1937 45.1094 59.9721C42.295 64.1937 41.0285 66.3045 38.2141 69.8225C36.4129 72.0741 34.743 74.2787 33.2889 75.7328C30.6152 72.3555 27.0591 67.5454 23.0164 61.2386Z" fill="#F5B2F2"/>
<path d="M36.3843 8.60757C36.3843 8.60757 52.4264 11.422 55.3816 26.6198C55.3816 26.6198 49.1979 15.6621 42.6777 16.8398C42.6777 16.8398 43.4203 11.1605 36.3843 8.60757Z" fill="#F5B2F2"/>
</g>
<defs>
<clipPath id="clip0_15980_7575">
<rect width="100" height="100" fill="white"/>
</clipPath>
</defs>
</svg>
