<svg width="100" height="100" viewBox="0 0 100 100" fill="none" xmlns="http://www.w3.org/2000/svg">
<g clip-path="url(#clip0_15980_7589)">
<rect width="100" height="100" fill="#F5B2F2"/>
<path fill-rule="evenodd" clip-rule="evenodd" d="M52.3186 46.484C50.1984 33.919 52.8328 22.9967 58.1965 22.0964C63.5602 21.1961 69.628 30.6494 71.7481 43.2223C73.8683 55.7873 71.2339 66.7096 65.8702 67.6099C60.5065 68.5102 54.4387 59.0569 52.3186 46.484Z" fill="white"/>
<path fill-rule="evenodd" clip-rule="evenodd" d="M54.7788 39.1707C53.1966 39.4393 52.4213 42.6536 53.0463 46.3654C53.6713 50.0693 55.4592 52.8651 57.0414 52.5966C58.6236 52.328 60.6409 48.9005 60.016 45.1966C59.391 41.4926 56.361 38.9101 54.7788 39.1786" fill="#1A1A1A"/>
<path fill-rule="evenodd" clip-rule="evenodd" d="M72.4759 43.1039C70.1975 29.5912 63.6709 19.4192 57.9037 20.3827C52.1365 21.3541 49.3044 33.0977 51.5828 46.6104C53.8612 60.1231 60.3878 70.2951 66.1549 69.3316C71.9221 68.3602 74.7543 56.6166 72.4759 43.1039ZM52.3186 46.484C50.1984 33.919 52.8328 22.9967 58.1965 22.0964C63.5602 21.1961 69.628 30.6494 71.7481 43.2223C73.8683 55.7873 71.2339 66.7096 65.8702 67.6099C60.5065 68.5102 54.4387 59.0569 52.3186 46.484Z" fill="black"/>
<path fill-rule="evenodd" clip-rule="evenodd" d="M75.1418 42.6536C72.3651 26.1873 64.4223 13.796 57.3894 14.9807L55.5145 15.2966C48.4895 16.4733 45.0402 30.7837 47.817 47.25C50.5938 63.7164 58.5365 76.1076 65.5695 74.923L67.4444 74.6071C74.4694 73.4304 77.9186 59.12 75.1418 42.6536ZM51.108 46.6893C48.6398 32.0631 51.7093 19.3559 57.9511 18.3055C64.1929 17.2552 71.2575 28.2643 73.7178 42.8906C76.1861 57.5168 73.1245 70.2239 66.8748 71.2743C60.633 72.3247 53.5684 61.3155 51.1001 46.6893" fill="white"/>
<path d="M57.2392 26.1556C60.2058 25.429 63.9082 29.67 66.4398 36.1855C67.6027 36.0591 69.0188 37.7887 69.9523 40.3633C69.9523 40.3396 69.9444 40.3238 69.9364 40.308C67.6343 30.1676 62.3023 22.8228 58.2043 23.8179C56.0763 24.3392 54.0906 27.3639 53.6159 31.2732C54.2013 28.7697 55.6807 26.5426 57.2313 26.1635L57.2392 26.1556Z" fill="#F5B2F2"/>
<path fill-rule="evenodd" clip-rule="evenodd" d="M23.7515 51.2856C22.9604 46.5865 23.5854 42.3693 25.1359 40.4659C24.5031 40.079 23.8702 39.9052 23.2452 40.0079L12.1539 41.8717C9.45621 42.3219 8.10342 47.6448 9.13186 53.7496C10.1603 59.8544 13.1823 64.435 15.88 63.9848L26.9792 62.121C27.6042 62.0183 28.1501 61.6392 28.6168 61.0706C26.5204 59.7754 24.5505 55.9925 23.7594 51.2935" fill="black"/>
<path fill-rule="evenodd" clip-rule="evenodd" d="M98.0207 38.8075C99.595 48.1503 98.0049 56.6322 94.4053 60.581C98.883 57.7458 101.074 48.6952 99.3656 38.5864C97.6647 28.4775 92.6253 20.6353 87.4673 19.4191C92.1665 21.9779 96.4385 29.4726 98.0207 38.8075Z" fill="white"/>
<path fill-rule="evenodd" clip-rule="evenodd" d="M90.6 40.0555C91.6047 46.0181 90.8136 51.3963 88.82 53.8683C91.3199 52.115 92.4512 46.3814 91.3674 39.9291C90.2757 33.4689 87.3327 28.4224 84.3898 27.5853C87.0796 29.2674 89.5953 34.0928 90.6 40.0555Z" fill="white"/>
<path fill-rule="evenodd" clip-rule="evenodd" d="M7.78714 54.0655C7.35994 51.5383 7.35203 49.1532 7.66848 47.1868L5.15276 47.6132C1.751 48.1819 -0.54321 51.3962 0.0342981 54.7921C0.603895 58.188 3.8237 60.4704 7.22546 59.9018L9.40891 59.5385C8.70483 57.9669 8.13523 56.111 7.79505 54.0734" fill="white"/>
<path fill-rule="evenodd" clip-rule="evenodd" d="M26.3305 79.7563C25.9982 79.4167 25.8084 78.9586 25.8084 78.4848L25.9587 64.0481L16.5682 65.6276L16.0699 84.0209C16.0461 85.174 17.0904 86.0664 18.2296 85.8769L26.821 84.4316C28.2924 84.1868 28.8858 82.3941 27.8415 81.32L26.3226 79.7563H26.3305Z" fill="black"/>
<path fill-rule="evenodd" clip-rule="evenodd" d="M46.3456 47.4871C44.7397 37.9548 45.1985 29.149 47.208 23.2022L26.4572 41.3112C23.7675 46.1208 26.0142 57.3906 29.5663 59.7757L55.6095 70.7611C51.5511 65.8726 48.0149 57.4222 46.3377 47.4871" fill="black"/>
<path d="M26.4574 41.3192C23.7677 46.1288 26.0144 57.3985 29.5665 59.7836L55.6176 70.777C51.5513 65.8884 48.023 57.438 46.3458 47.5029C44.7399 37.9706 45.1987 29.1648 47.2081 23.218L26.4574 41.3271V41.3192Z" fill="black"/>
<path d="M47.2081 23.218C45.1987 29.1648 44.7399 37.9706 46.3458 47.5029C46.484 48.3214 46.6361 49.1297 46.7986 49.9268L25.7112 51.6678C24.9997 47.8939 25.0875 43.7688 26.4574 41.3192V41.3271L47.2081 23.218Z" fill="white"/>
<path d="M51.6691 64.5593C52.8861 66.9963 54.2202 69.097 55.6176 70.777L29.5665 59.7836C28.9536 59.372 28.3795 58.6956 27.863 57.8339L51.6691 64.5593Z" fill="black"/>
<path d="M23.245 40.0004L12.1537 41.8642C9.456 42.3144 8.10321 47.6373 9.13165 53.7421C10.1601 59.8469 13.1821 64.4275 15.8798 63.9773L26.9711 62.1135C27.5961 62.0108 28.1419 61.6317 28.6087 61.0631C26.5123 59.7679 24.5426 55.9846 23.7515 51.2856C22.9604 46.5944 23.5854 42.3693 25.1359 40.4659C24.6296 40.15 24.1073 39.9767 23.601 39.9767C23.4823 39.9767 23.3639 39.9842 23.2452 40.0079" fill="black"/>
<path d="M26.3333 58.597C26.559 58.9581 26.7919 59.2913 27.0313 59.5932L12.4083 62.0497C12.1693 61.7474 11.9365 61.4141 11.7112 61.0527L26.3333 58.597Z" fill="#F5B2F2"/>
<path d="M24.5368 54.5768C24.792 55.3858 25.0831 56.1449 25.4003 56.8432L10.78 59.298C10.4633 58.5996 10.1723 57.8408 9.91743 57.0324L24.5368 54.5768Z" fill="#F5B2F2"/>
<path d="M0.0325298 54.8039C0.114547 54.9861 1.23339 57.1239 8.1792 55.9526C8.50442 57.2609 8.92022 58.4704 9.40129 59.5388L7.2178 59.9016C3.82395 60.4768 0.61125 58.1987 0.0307003 54.8157L0.0325298 54.8039Z" fill="black"/>
<path d="M0.0342981 54.7921L0.0325298 54.8039C0.0289229 54.7958 0.0261266 54.792 0.0261266 54.792L0.0342981 54.7921Z" fill="black"/>
<path fill-rule="evenodd" clip-rule="evenodd" d="M28.6802 40.5925L43.2287 28.2328C43.2287 28.2328 36.615 34.4719 36.702 37.7415C36.702 37.7415 34.7006 35.9092 28.6802 40.5925Z" fill="black"/>
<path fill-rule="evenodd" clip-rule="evenodd" d="M1.03114 53.3786C1.03114 53.3786 1.51372 49.6194 6.01511 48.5296C6.01511 48.5296 3.75255 49.6905 4.28259 50.8277C4.28259 50.8277 2.32856 49.8484 1.03114 53.3786Z" fill="#F5B2F2"/>
<path d="M23.601 39.9767C24.1073 39.9767 24.6296 40.15 25.1359 40.4659C23.5854 42.3693 22.9604 46.5944 23.7515 51.2856C24.5426 55.9846 26.5123 59.7679 28.6087 61.0631C28.2246 61.5311 27.786 61.8678 27.2947 62.0306C25.1212 62.0717 22.6259 57.5355 21.6315 51.6331C20.6396 45.7897 21.4882 40.7271 23.5122 39.979C23.5418 39.9779 23.5714 39.9767 23.601 39.9767Z" fill="white"/>
</g>
<defs>
<clipPath id="clip0_15980_7589">
<rect width="100" height="100" fill="white"/>
</clipPath>
</defs>
</svg>
