<svg width="100" height="100" viewBox="0 0 100 100" fill="none" xmlns="http://www.w3.org/2000/svg">
<rect width="100" height="100" fill="#F5B2F2"/>
<path d="M45.85 76.5145L95.356 17.4881L49.1771 60.1883L45.85 76.5145Z" fill="black"/>
<path d="M99.9284 13.8606L11.941 39.3752C11.941 39.3752 50.8318 61.472 71.0055 72.8584L99.9189 13.851L99.9284 13.8606Z" fill="white"/>
<path d="M47.3348 59.3792L43.5457 76.7824L33.8825 51.7819L99.9255 13.8622L47.3348 59.3792Z" fill="black"/>
<path d="M16.1565 19.069C14.3571 20.5542 13.4146 22.801 13.5764 25.1049C12.0627 23.3722 9.80636 22.4582 7.48338 22.6772C3.78947 23.039 1 26.1045 1 29.8175C1 29.9222 1.07617 30.0174 1.18089 30.046C1.19993 30.046 1.21897 30.046 1.23801 30.046C1.32369 30.046 1.39986 29.9984 1.44746 29.9222C2.74223 27.5612 5.11281 25.9903 7.78804 25.7332C10.4347 25.4762 13.0719 26.552 14.795 28.6084C14.8617 28.7036 14.995 28.7417 15.0997 28.6941C15.1378 28.675 15.1663 28.6465 15.1854 28.6179C15.2235 28.5608 15.2425 28.4942 15.2235 28.4275C14.9855 25.7523 16.0708 23.1437 18.1272 21.4395C20.2026 19.7259 22.9826 19.1546 25.5626 19.9068C25.6578 19.9353 25.7816 19.8972 25.8292 19.802C25.8863 19.7068 25.8672 19.5926 25.7911 19.5164C23.1635 16.8983 19.0221 16.7079 16.1565 19.0785V19.069Z" fill="white"/>
<path d="M38.2432 3.34129C35.9107 3.45554 33.8067 4.6932 32.569 6.63536C32.3881 4.34094 31.1314 2.25597 29.1321 1.04688C25.9523 -0.876241 21.8871 -0.0860464 19.6594 2.89384C19.5927 2.97952 19.5927 3.10328 19.6594 3.18897C19.726 3.27465 19.8402 3.2937 19.945 3.25561C22.3917 2.13221 25.2288 2.29405 27.5232 3.68403C29.8081 5.06449 31.2647 7.49219 31.417 10.1865C31.417 10.2341 31.4361 10.2817 31.4646 10.3197C31.5027 10.3673 31.5503 10.4149 31.617 10.4245C31.636 10.4245 31.6455 10.4245 31.6646 10.4245C31.7598 10.4245 31.8455 10.3673 31.8835 10.2817C33.283 7.99676 35.7203 6.54966 38.3955 6.41638C41.0802 6.27357 43.6507 7.48266 45.2787 9.63427C45.3454 9.71996 45.4596 9.75804 45.5643 9.71044C45.6691 9.67236 45.7262 9.56763 45.7071 9.45338C45.1645 5.77851 41.9466 3.16993 38.2432 3.34129Z" fill="white"/>
<path d="M23.9333 94.8221C17.1548 89.3384 18.1068 79.1706 25.7898 71.3448C23.8 66.518 25.5042 60.206 30.2929 54.7032C25.9421 57.6545 21.8483 61.7102 18.4591 66.4799C9.90023 78.5422 12.4422 94.0605 22.7813 98.6112C27.6367 100.753 33.4822 100.334 39.1373 97.9257C33.368 98.8968 27.789 97.9353 23.9333 94.8221Z" fill="white"/>
</svg>
