<svg width="100" height="100" viewBox="0 0 100 100" fill="none" xmlns="http://www.w3.org/2000/svg">
<g clip-path="url(#clip0_15980_7825)">
<rect width="100" height="100" fill="#F5B2F2"/>
<path d="M64.7587 7.80523L61.133 6.52146L65.4841 1.17477L55.4485 6.44478L59.0692 7.72688L54.7231 13.0752L64.7587 7.80523Z" fill="white"/>
<path d="M45.0785 12.7774L40.7324 7.42906L44.3531 6.14696L34.3176 0.876953L38.6686 6.22364L35.0429 7.50741L45.0785 12.7774Z" fill="white"/>
<path d="M55.5738 17.8705L59.9199 23.2189L56.2991 24.501L66.3347 29.771L61.9837 24.4243L65.6093 23.1405L55.5738 17.8705Z" fill="white"/>
<path d="M34.2353 23.8294L37.861 25.1132L33.5099 30.4599L43.5455 25.1898L39.9248 23.9077L44.2709 18.5594L34.2353 23.8294Z" fill="white"/>
<path fill-rule="evenodd" clip-rule="evenodd" d="M42.4837 45.727C42.5788 45.7158 42.8095 45.7667 42.9952 45.8412C43.179 45.9149 43.475 45.9591 43.6501 45.9382C43.825 45.9177 44.0289 45.9421 44.1031 45.9923C44.2266 46.079 44.0826 46.7636 43.1445 50.531C42.5864 52.7658 42.3914 53.3851 40.9907 57.3528C40.8542 57.7405 40.7096 58.1492 40.5632 58.5647L49.6729 53.8509L50.1462 54.7916L50.5254 54.0389L61.1536 59.6677L60.385 61.0779L49.8867 55.6585L40.9771 60.2685L50.4304 65.1608L50.1148 65.7874L51.0997 67.746L45.0837 70.8677L49.1325 80.6824L49.0918 80.6996L51.0938 81.7356L49.9791 83.9517L34.9051 76.1514L33.4706 76.8964C33.2805 77.3703 33.0979 77.8212 32.9303 78.2406C32.3822 79.6151 31.6601 81.3355 31.3287 82.0617C30.995 82.7883 30.7073 83.3796 30.6874 83.3749C30.6647 83.3698 30.2045 83.281 29.6635 83.1758C29.1212 83.0715 28.5064 82.9508 28.2961 82.9097C27.942 82.839 27.9515 82.7514 28.4284 81.6154C28.7131 80.9445 29.3241 79.4893 29.7908 78.3787C30.2559 77.2685 31.018 75.5051 31.484 74.4597C32.5369 72.0979 35.3486 65.5488 36.0868 63.7446C38.4492 57.9627 39.84 54.003 41.7431 47.6454C42.0554 46.6017 42.3887 45.7383 42.4837 45.727ZM37.5993 74.7524L45.6741 78.9306L42.8306 72.0367L37.5993 74.7524ZM38.9828 63.0537C38.5825 64.1879 37.9151 65.9406 37.4983 66.9487C36.9584 68.257 35.9358 70.7788 34.9042 73.3336L41.8772 69.7253L39.0481 62.8666C39.0249 62.9325 39.0034 62.9951 38.9828 63.0537ZM44.1319 68.5589L48.7109 66.1899L41.6464 62.5344L44.1319 68.5589Z" fill="black"/>
<path fill-rule="evenodd" clip-rule="evenodd" d="M57.7805 46.8856C57.9098 47.2451 58.6074 49.4816 59.3295 51.8535C61.8341 60.0702 63.3554 64.1401 69.6591 79.4858C70.5662 81.6934 71.3006 83.6134 71.2895 83.7542C71.2762 83.9339 70.9609 84.1184 70.2291 84.3748C69.6545 84.5746 69.1366 84.7511 69.0746 84.767C69.0145 84.7811 68.7358 84.1665 68.4571 83.4006C67.4826 80.7234 66.5753 78.3244 65.6704 76.0148L52.1165 83.0272C52.2205 86.4052 52.3134 89.0999 52.3787 90.4035L52.4847 92.5347L51.7408 92.6145C51.3314 92.6593 50.3843 92.6956 49.6362 92.6969L48.2764 92.6978L48.4019 86.7033C48.473 83.4063 48.6203 73.4115 48.7285 64.4904C48.8388 55.5693 48.9813 47.853 49.0441 47.3414C49.1215 46.7228 49.335 46.4405 49.6854 46.4942C50.3858 46.6044 50.4403 46.5149 50.9951 46.5148C52.1724 46.5148 51.0557 46.536 51.1775 47.2976L51.5813 62.5454C51.5913 63.0175 51.6027 63.4996 51.6135 63.99L59.802 59.7525C59.5625 59.0113 59.2051 57.9387 58.8697 56.9587C58.3902 55.5597 57.7342 53.4519 57.4132 52.2749C57.0902 51.0994 56.654 49.5284 56.4453 48.7842C56.0431 47.3573 55.9894 46.7607 56.2613 46.7758C56.3525 46.7808 56.6785 46.66 56.9865 46.508L57.5456 46.2299L57.7805 46.8856ZM53.7894 79.4781L62.6429 74.8518L56.9815 71.8564L53.7894 79.4781ZM51.7331 69.0797C51.803 71.9194 51.8791 74.8443 51.9562 77.601L54.8378 70.7225L51.7331 69.0797ZM57.8857 69.696L64.5592 73.1481C63.3675 70.0107 61.7616 65.5799 60.7894 62.7643L57.8857 69.696ZM51.6568 65.9169C51.6611 66.1034 51.6651 66.2909 51.6695 66.4791L55.7336 68.5819L58.2861 62.4871L51.6568 65.9169Z" fill="white"/>
<path d="M50.0111 51.3439C54.9506 51.3439 58.9549 49.656 58.9549 47.5738C58.9549 45.4917 54.9506 43.8038 50.0111 43.8038C45.0716 43.8038 41.0673 45.4917 41.0673 47.5738C41.0673 49.656 45.0716 51.3439 50.0111 51.3439Z" fill="black"/>
<path d="M55.974 44.679L54.7513 37.7083C53.6161 38.6996 51.9142 39.3302 50.0111 39.3302C47.8205 39.3302 45.8959 38.4952 44.7963 37.2353L43.4905 44.6794C42.2822 45.1269 41.5478 45.7114 41.5478 46.3457C41.5478 47.7694 45.2127 50.016 49.7323 50.016C54.2519 50.016 57.9168 47.7694 57.9168 46.3457C57.9168 45.7114 57.1823 45.1331 55.974 44.679Z" fill="black"/>
<path d="M55.9339 44.679L54.7165 37.7381C53.5813 38.7122 51.8948 39.3302 50.0111 39.3302C47.7982 39.3302 45.857 38.4776 44.7627 37.1959L43.4503 44.6786C42.2421 45.1261 41.5076 45.7106 41.5076 46.3449C41.5076 47.7686 45.1725 49.7517 49.6921 49.7517C54.2117 49.7517 57.8766 47.7686 57.8766 46.3449C57.8766 45.7106 57.1422 45.1332 55.9339 44.679Z" fill="black"/>
<path d="M55.9178 44.6789L55.9149 44.6634C54.5501 46.9221 51.6994 47.5732 49.6752 47.5732C47.528 47.5732 44.4736 47.311 43.2294 44.7577C42.1434 45.1942 41.4911 45.7473 41.4911 46.3448C41.4911 47.7685 45.156 50.0151 49.6756 50.0151C54.1952 50.0151 57.8602 47.7685 57.8602 46.3448C57.8602 45.7104 57.1261 45.1331 55.9178 44.6789Z" fill="#F5B2F2"/>
<path d="M50.0111 38.3346C53.4289 38.3346 56.1996 36.3017 56.1996 33.794C56.1996 31.2864 53.4289 29.2535 50.0111 29.2535C46.5933 29.2535 43.8226 31.2864 43.8226 33.794C43.8226 36.3017 46.5933 38.3346 50.0111 38.3346Z" fill="white"/>
<path d="M50.0994 12.4898C52.3332 12.49 54.1439 14.3269 54.144 16.5926C54.144 18.4223 52.9629 19.9715 51.332 20.5004C51.3456 24.0978 51.2107 27.6896 51.2106 31.2859C51.2106 31.6379 51.1749 31.7432 50.996 31.9108C50.4932 32.3828 49.5113 32.3811 49.0441 31.9073C48.868 31.7286 48.8217 31.6345 48.7973 31.4413L48.7413 29.2552C48.7495 27.525 48.7617 24.8246 48.7617 24.8246L48.782 20.4712C47.195 19.9169 46.0539 18.3905 46.0539 16.5926C46.054 14.3268 47.8655 12.4898 50.0994 12.4898Z" fill="black"/>
<path d="M65.5361 88.9946L69.5484 86.875V91.8412L65.5361 93.9609V88.9946Z" fill="#F5B2F2"/>
<path d="M65.5361 88.9946L53.9293 95.1266C51.7681 96.2683 48.232 96.2683 46.0708 95.1266L24.9809 83.9849C24.2175 83.5814 23.7243 83.0874 23.5 82.5671V88.1689L45.8382 99.9701C48.1271 101.179 51.873 101.179 54.1619 99.9701L65.5361 93.9609V88.9946Z" fill="black"/>
<path d="M75.0191 83.9849L69.5484 86.875V91.8412L76.5 88.1689V82.5671C76.2761 83.0879 75.7825 83.5819 75.0191 83.9849Z" fill="black"/>
<path d="M68.7083 87.3189L67.918 87.7362V92.7025L68.7083 92.2851V87.3189Z" fill="black"/>
</g>
<defs>
<clipPath id="clip0_15980_7825">
<rect width="100" height="100" fill="white"/>
</clipPath>
</defs>
</svg>
