<svg width="100" height="100" viewBox="0 0 100 100" fill="none" xmlns="http://www.w3.org/2000/svg">
<g clip-path="url(#clip0_15980_7867)">
<rect width="100" height="100" fill="#F5B2F2"/>
<path d="M44.898 9.99399C45.2475 9.69821 45.5612 9.36658 45.8839 9.04392C46.6456 8.24621 48.8054 6.38192 51.9689 6.74044C53.2863 6.89281 54.308 7.49333 55.0159 8.10281C56.7994 5.00163 60.1511 2.9043 63.9868 2.9043C69.7044 2.9043 74.3378 7.53814 74.3378 13.2565V14.2514H31.3476C38.9383 14.2514 42.5768 11.9927 44.889 9.99399H44.898Z" fill="white"/>
<path d="M22.0632 60.1893C23.282 60.1535 24.4829 59.9921 25.648 59.7053V26.4259C24.4829 26.1391 23.282 25.9777 22.0632 25.9419V60.1893ZM11.0043 56.5683C12.1156 57.4377 13.3165 58.1637 14.5891 58.7373V27.4208C13.3165 27.9854 12.1156 28.7025 11.0043 29.5719V56.5683ZM34.35 31.6961C33.9378 31.23 33.4538 30.7012 32.9609 30.2531C32.8981 30.1993 32.8265 30.1455 32.7637 30.0917V56.0395C33.0774 55.7706 33.391 55.4927 33.6957 55.1969L36.3485 52.526V33.9637L34.35 31.6961Z" fill="black"/>
<path d="M85.065 67.3868C84.8499 66.5443 84.115 65.9438 83.2547 65.8811L71.4698 65.0565C71.4071 65.0565 71.3444 65.0565 71.2816 65.0565C70.6991 65.0565 70.1345 65.2447 69.6595 65.5942L59.1652 73.5085C58.8426 73.7505 58.986 74.2704 59.3892 74.3152L70.8515 75.4893C72.2764 75.6328 73.4504 76.6725 73.782 78.0617L75.5744 85.6623C75.673 86.0925 76.0583 86.3614 76.4527 86.3614C76.6409 86.3614 76.829 86.2987 76.9903 86.1732C80.2793 83.5739 83.6669 80.3114 86.687 76.2781C87.0097 75.8389 87.1173 75.2742 86.9828 74.7544L85.074 67.3958L85.065 67.3868ZM94.2867 59.5711L93.6414 56.5506C93.4622 55.7171 92.7363 55.1345 91.8939 55.1345C91.867 55.1345 91.8312 55.1345 91.8043 55.1345C89.6087 55.242 85.2711 55.4571 80.4765 55.6633C80.0195 55.6812 79.5892 55.8784 79.2756 56.2011L72.5721 63.0398C72.3032 63.3087 72.4825 63.7748 72.8589 63.8017L83.3443 64.5366C84.7871 64.6352 85.997 65.648 86.3644 67.0462L87.9417 73.1231C87.9955 73.3382 88.1926 73.4637 88.3808 73.4637C88.5242 73.4637 88.6676 73.401 88.7483 73.2576C90.9529 69.7979 92.8528 65.8542 94.215 61.3548C94.3942 60.7811 94.4122 60.1627 94.2778 59.5711H94.2867ZM70.7081 76.8248L57.0681 75.4266C56.8799 75.4087 56.7007 75.3997 56.5125 75.3997C56.0555 75.3997 55.6074 75.4535 55.1593 75.57C50.6604 76.7442 39.3236 80.3293 37.5223 86.953C37.5223 86.953 35.2639 94.2667 48.8052 95.3243C49.7641 95.396 50.7321 95.4409 51.6821 95.4409C59.5058 95.4409 67.1502 92.9671 73.6834 88.5842C73.9522 87.8941 74.1494 87.3832 74.4093 86.693L72.4466 78.3754C72.2495 77.5419 71.5415 76.9234 70.6901 76.8338L70.7081 76.8248Z" fill="white"/>
<path d="M50.2752 78.3726C52.3274 77.6735 55.4462 76.6428 56.3872 76.4635L68.5305 77.6287L63.8077 80.1473C63.1624 80.4879 62.4364 80.6313 61.7105 80.5506L50.3737 79.242C49.8988 79.1882 49.8271 78.525 50.2841 78.3726H50.2752Z" fill="black"/>
<path d="M61.576 73.3321L70.986 66.2962L81.3459 66.9684L72.7067 74.2194L61.576 73.3321Z" fill="black"/>
<path d="M74.7768 62.7953L80.2705 56.9694L90.2181 56.584L84.8857 63.342L74.7768 62.7953Z" fill="black"/>
<path d="M94.2868 59.5678L93.6415 56.5473C93.5519 56.117 93.301 55.7496 92.9784 55.4986L85.2622 65.3041C85.791 65.7433 86.1853 66.3438 86.3645 67.0429L87.6013 71.8022L87.9418 73.1198C88.0404 73.4962 88.5423 73.5858 88.7574 73.2542C90.962 69.7945 92.8619 65.8508 94.2241 61.3514C94.4033 60.7778 94.4212 60.1593 94.2868 59.5678ZM85.0651 67.3835C84.9396 66.8905 84.6349 66.4872 84.2316 66.2183L72.7336 76.3106C73.2444 76.7587 73.6208 77.3682 73.7821 78.0583L75.5834 85.7127C75.7357 86.3491 76.4886 86.618 77.0084 86.2146C81.1219 83.0597 84.9127 78.7933 86.7051 76.6601C87.0815 76.212 87.207 75.6204 87.0636 75.0647L85.0651 67.3924V67.3835ZM72.2675 77.8701C72.2406 77.8253 72.2227 77.7715 72.1869 77.7357C72.1152 77.6281 72.0256 77.5295 71.9359 77.4309C71.8643 77.3592 71.7926 77.2875 71.7119 77.2338C69.6596 78.4438 62.1855 82.6205 60.4469 83.6781C60.4469 83.6781 53.0533 87.6218 53.7882 91.7179C54.3169 94.6219 56.7993 94.8997 59.9001 94.5233C65.1518 93.3581 70.2511 91.0457 74.7051 87.8817C74.741 87.8549 72.4647 78.3721 72.4647 78.3721C72.4199 78.1928 72.3482 78.0315 72.2675 77.8791V77.8701Z" fill="black"/>
<path d="M92.4497 32.2507C84.3661 24.8563 72.8323 24.1213 62.786 29.6873C62.7502 29.7052 62.7233 29.7142 62.6874 29.7321C60.2409 31.1034 57.8838 32.8423 55.6882 34.9485L34.6278 56.1459C30.9803 59.7938 26.132 61.7029 20.9789 61.5506C15.8258 61.3892 11.1029 59.1664 7.67052 55.2765C1.52269 48.3123 1.52269 37.8077 7.67052 30.8525C10.9685 27.1239 15.5032 24.9011 20.4412 24.6053C25.3971 24.3095 30.1469 25.9587 33.8392 29.2391C34.3321 29.6783 34.7981 30.1803 35.3448 30.7897L45.5971 42.4147L47.6135 40.64L37.3612 29.0061C36.7518 28.3249 36.232 27.7603 35.6315 27.2225C31.4015 23.458 25.9527 21.5579 20.2799 21.9075C14.616 22.248 9.42705 24.7846 5.6541 29.0599C-1.38992 37.0369 -1.38992 49.0742 5.6541 57.0512C9.5794 61.4968 14.9924 64.0423 20.8983 64.2305C21.1134 64.2305 21.3284 64.2395 21.5435 64.2395C27.1357 64.2395 32.5666 61.9987 36.5367 58.0371L57.5702 36.8666C59.6135 34.9037 61.8091 33.2994 64.0854 32.0356C72.5902 27.9843 78.3617 32.6809 79.4371 33.6758C82.4124 36.4095 85.5222 44.4224 84.1869 54.1472C85.1459 54.1024 86.0689 54.0576 86.9202 54.0217C87.5207 49.1727 87.0636 45.1215 86.4632 42.3161C85.4774 37.7002 83.5775 33.8282 81.2564 31.695C80.6739 31.1572 78.9532 29.7231 76.3363 28.7372C81.5701 28.7372 86.5887 30.5388 90.6305 34.2315C96.142 39.2687 98.5349 49.594 96.5991 59.9193C94.7978 69.5186 87.8164 87.0233 61.4775 97.8953H68.0018C91.0158 86.4765 97.4683 69.8413 99.2428 60.4123C101.349 49.2086 98.6155 37.8884 92.4408 32.2417L92.4497 32.2507Z" fill="white"/>
<path d="M40.6591 94.7045C36.6263 96.04 32.7637 97.0887 29.3134 97.9043H39.4852C41.2238 97.3576 42.9982 96.766 44.7995 96.1117C43.2043 95.7711 41.8331 95.2961 40.6591 94.7045Z" fill="white"/>
<path d="M47.7659 48.6644L44.1811 52.2764V78.3407C45.3551 77.7043 46.574 77.1396 47.7659 76.6377V48.6644Z" fill="black"/>
<path d="M68.8531 64.5181C69.1668 64.2851 69.5162 64.0969 69.8836 63.9624V31.7048C68.7276 31.8213 67.5356 32.1081 66.2989 32.5742V66.4452L68.8531 64.5181Z" fill="black"/>
<path d="M56.5216 74.0547C56.7546 74.0547 56.9875 74.0637 57.2116 74.0906L57.6776 74.1354C57.579 73.49 57.821 72.8358 58.3497 72.4324L58.8158 72.0829V37.5307L58.529 37.8175L55.231 41.1428V74.1981C55.6522 74.1175 56.0825 74.0637 56.5126 74.0637L56.5216 74.0547Z" fill="black"/>
<path d="M78.3079 55.2703C78.8635 54.6967 79.6163 54.3651 80.4139 54.3292C80.5931 54.3292 80.7635 54.3113 80.9337 54.3023V38.178C80.1541 36.5557 79.2757 35.3636 78.5229 34.6735C78.1465 34.3239 77.7523 34.0102 77.349 33.7144V56.2383L78.3079 55.2614V55.2703Z" fill="black"/>
<path d="M22.0631 86.5874H25.6479V65.2108C24.4649 65.4349 23.273 65.5604 22.0631 65.5872V86.5964V86.5874Z" fill="black"/>
<path d="M-0.0546875 86.5877H3.53006V56.5529C1.88107 54.348 0.680185 51.9101 -0.0546875 49.3646V86.5877Z" fill="black"/>
<path d="M36.7069 85.3024V59.749C35.6046 60.7529 34.3947 61.6402 33.1221 62.3931V86.593H36.241C36.3575 86.1539 36.5187 85.7236 36.7069 85.3024Z" fill="black"/>
<path d="M11.0043 86.5855H14.5891V64.4918C13.3523 64.0885 12.1514 63.5865 11.0043 62.9771V86.5855Z" fill="black"/>
</g>
<defs>
<clipPath id="clip0_15980_7867">
<rect width="100" height="100" fill="white"/>
</clipPath>
</defs>
</svg>
