<svg width="100" height="100" viewBox="0 0 100 100" fill="none" xmlns="http://www.w3.org/2000/svg">
<g clip-path="url(#clip0_15980_7882)">
<rect width="100" height="100" fill="#F5B2F2"/>
<path fill-rule="evenodd" clip-rule="evenodd" d="M36.7458 43.6873L39.2354 45.1365L48.627 50.5606C49.1292 50.8476 49.4162 51.3498 49.4162 51.9238V65.6704C49.4162 66.2444 49.1292 66.7466 48.627 67.0336C48.1248 67.3206 47.5508 67.3206 47.0557 67.0336L35.1745 60.1603C34.6723 59.8733 34.3853 59.371 34.3853 58.7971V45.0648C34.3853 44.4765 34.6723 43.9742 35.1745 43.6873C35.6767 43.4003 36.2507 43.4003 36.7458 43.6873Z" fill="black"/>
<path fill-rule="evenodd" clip-rule="evenodd" d="M36.7458 62.7149L48.627 69.5882C49.1292 69.8752 49.4162 70.3774 49.4162 70.9514V84.698C49.4162 85.272 49.1292 85.7742 48.627 86.0612C48.1248 86.3482 47.5508 86.3482 47.0557 86.0612L35.1745 79.1879C34.6723 78.9009 34.3853 78.3987 34.3853 77.8247V64.0781C34.3853 63.5041 34.6723 63.0019 35.1745 62.7149C35.6767 62.4279 36.2507 62.4279 36.7458 62.7149Z" fill="black"/>
<path fill-rule="evenodd" clip-rule="evenodd" d="M68.1138 60.067L80.0094 53.208C80.5116 52.9067 81.0856 52.9067 81.5806 53.208C82.0829 53.495 82.3698 53.9829 82.3698 54.5712V68.3178C82.3698 68.8918 82.0829 69.394 81.5806 69.681L69.6851 76.5543C69.1828 76.8413 68.6089 76.8413 68.1138 76.5543C67.6116 76.253 67.3246 75.7651 67.3246 75.1768V61.4301C67.3246 60.8562 67.6116 60.3539 68.1138 60.067Z" fill="white"/>
<path fill-rule="evenodd" clip-rule="evenodd" d="M51.6331 69.5882L63.5286 62.7149C64.0309 62.4279 64.6048 62.4279 65.0999 62.7149C65.6021 63.0019 65.8891 63.5041 65.8891 64.0781V77.8247C65.8891 78.3987 65.6021 78.9009 65.0999 79.1879L53.2043 86.0612C52.7021 86.3482 52.1281 86.3482 51.6331 86.0612C51.1308 85.7742 50.8438 85.272 50.8438 84.698V70.9514C50.8438 70.3774 51.1308 69.8752 51.6331 69.5882Z" fill="white"/>
<path fill-rule="evenodd" clip-rule="evenodd" d="M67.3246 42.8979C67.3246 42.0298 67.7838 41.2262 68.5371 40.7957C71.0698 39.3393 76.9315 35.9528 80.0094 34.1807C80.5116 33.8937 81.0856 33.8937 81.5806 34.1807C82.0829 34.4677 82.3698 34.9699 82.3698 35.5439V49.2905C82.3698 49.8645 82.0829 50.3667 81.5806 50.6537L69.6851 57.527C69.1828 57.814 68.6089 57.814 68.1138 57.527C67.6116 57.24 67.3246 56.7378 67.3246 56.1495V42.8979Z" fill="white"/>
<path d="M65.825 23.3411C66.3272 23.0541 66.9012 23.0541 67.3962 23.3411L79.2918 30.2141C79.794 30.5011 80.0818 31.0034 80.0818 31.5774C80.0817 32.1512 79.7939 32.6537 79.2918 32.9407L67.8201 39.5696H67.8269C67.0736 40.0072 66.1482 40.0072 65.4021 39.5696L53.9295 32.9407C53.4273 32.6537 53.1405 32.1656 53.1404 31.5774C53.1404 31.0035 53.4274 30.5011 53.9295 30.2141L65.825 23.3411ZM67.532 24.7747C67.037 24.4878 66.4628 24.4878 65.9607 24.7747L57.9685 29.137C57.4663 29.4239 63.1053 26.7123 66.9724 26.8127C71.1121 26.9275 75.9335 29.252 75.4314 28.9651L67.532 24.7747Z" fill="white"/>
<path fill-rule="evenodd" clip-rule="evenodd" d="M51.6331 50.5606L63.5286 43.6873C64.0309 43.4003 64.6048 43.4003 65.0999 43.6873C65.6021 43.9742 65.8891 44.4765 65.8891 45.0648V58.7971C65.8891 59.371 65.6021 59.8733 65.0999 60.1603L53.2043 67.0336C52.7021 67.3206 52.1281 67.3206 51.6331 67.0336C51.138 66.7466 50.8438 66.2444 50.8438 65.6704V51.9238C50.8438 51.3498 51.1308 50.8476 51.6331 50.5606Z" fill="white"/>
<path fill-rule="evenodd" clip-rule="evenodd" d="M22.9274 61.2009L32.9074 66.1945V67.0985C32.9074 67.0985 32.9074 67.3567 32.9074 70.6499V80.9742L28.9541 78.9868C28.3515 78.6855 27.8349 78.1546 27.5766 77.5232L21.2916 62.6932C21.019 62.0762 21.0764 61.5309 21.4208 61.2152C21.7651 60.8996 22.3248 60.8852 22.9274 61.2009Z" fill="black"/>
<path fill-rule="evenodd" clip-rule="evenodd" d="M30.9199 49.492L32.9144 54.2919V64.6736L21.0189 58.5895C20.4162 58.2738 19.914 57.7429 19.6557 57.1115L13.4711 42.2384C13.2128 41.6071 13.2702 41.0762 13.6146 40.7605C13.9733 40.4448 14.5186 40.4448 15.1356 40.7461L29.7863 48.258C30.2957 48.5234 30.6975 48.9539 30.9199 49.4848V49.492Z" fill="black"/>
<path d="M41.9547 14.8876C42.4425 14.5002 42.9883 14.4288 43.4762 14.6728L55.0845 20.4267C55.5724 20.6706 55.8593 21.1586 55.8736 21.7899C55.888 22.4069 55.6302 22.9953 55.1568 23.3612L44.3804 32.0497C43.6415 32.6452 42.6294 32.7529 41.7828 32.3368L31.9683 27.4726L30.8053 26.8837C30.3033 26.654 30.0169 26.1516 30.0025 25.5204C29.9883 24.9035 30.2459 24.3293 30.7193 23.9491L41.9547 14.8876ZM43.6041 16.1933C43.1163 15.9496 42.5713 16.0218 42.0836 16.4091L34.8941 22.206H34.9019C34.4284 22.5862 39.3144 19.1427 42.6363 18.87C47.7514 18.454 51.4675 20.0894 50.9801 19.8456L43.6041 16.1933Z" fill="white"/>
<path d="M26.6739 27.3652C27.1473 26.9922 27.692 26.9057 28.1797 27.1493L39.7598 32.9609C40.2477 33.2049 40.5345 33.7072 40.5488 34.3242C40.5632 34.9556 40.3053 35.5296 39.8174 35.8955L29.0049 44.5411L29.0127 44.548C28.2738 45.1435 27.2549 45.2437 26.4083 44.8204L16.6144 39.9063L15.4523 39.3174C14.9645 39.0734 14.6775 38.5854 14.6632 37.9541C14.649 37.3229 14.9212 36.7487 15.3946 36.3828L26.6739 27.3652ZM28.5538 28.7919C28.0659 28.548 27.5202 28.6203 27.0323 29.0078L19.8438 34.8047H19.8507C19.3785 35.184 24.2636 31.7403 27.585 31.4677C32.7005 31.0516 36.4166 32.6883 35.9287 32.4443L28.5538 28.7919Z" fill="white"/>
<path d="M49.3442 32.8535C49.8464 32.5665 50.4205 32.5666 50.9155 32.8535L62.811 39.7265C63.3132 40.0135 63.6 40.5162 63.6001 41.1045C63.6001 41.6784 63.3132 42.1807 62.811 42.4677L50.9155 49.3408C50.4133 49.6278 49.8393 49.6278 49.3442 49.3408L37.4487 42.4677C36.9465 42.1807 36.6596 41.6784 36.6596 41.1045C36.6597 40.5305 36.9465 40.0135 37.4487 39.7265L49.3442 32.8535ZM50.9585 34.2314C50.4634 33.9444 49.8894 33.9444 49.3872 34.2314L41.395 38.5927C40.8928 38.8797 46.5318 36.1682 50.3989 36.2685C54.5387 36.3833 59.3601 38.7078 58.8579 38.4209L50.9585 34.2314Z" fill="white"/>
<path fill-rule="evenodd" clip-rule="evenodd" d="M65.2425 46.2269L64.9484 57.7781C64.9484 58.5099 64.5825 59.1413 63.9439 59.5072L54.3155 65.5195C53.6842 65.8855 59.3019 62.0757 62.057 57.5987C64.6327 53.4159 65.2425 45.4951 65.2354 46.2269H65.2425Z" fill="black"/>
<path fill-rule="evenodd" clip-rule="evenodd" d="M64.7777 64.9171L64.4836 76.4683C64.4836 77.2001 64.1177 77.8314 63.4791 78.1973L53.8508 84.2097C53.2194 84.5756 58.8371 80.7659 61.5922 76.2889C64.1679 72.1061 64.7777 64.1853 64.7706 64.9171H64.7777Z" fill="black"/>
<path fill-rule="evenodd" clip-rule="evenodd" d="M81.2286 55.2388L80.9344 66.79C80.9344 67.5218 80.5685 68.1532 79.93 68.5191L70.3016 74.5314C69.6702 74.8973 75.288 71.0876 78.0431 66.6106C80.6188 62.4278 81.2286 54.507 81.2214 55.2388H81.2286Z" fill="black"/>
<path fill-rule="evenodd" clip-rule="evenodd" d="M81.2286 36.5486L80.9344 48.0998C80.9344 48.8316 80.5685 49.463 79.93 49.8289L70.3016 55.8413C69.6702 56.2072 75.288 52.3974 78.0431 47.9205C80.6188 43.7376 81.2286 35.8168 81.2214 36.5486H81.2286Z" fill="black"/>
<path d="M97.3501 66.7609C98.1609 71.5034 94.057 75.3705 88.0159 75.8153C87.0832 78.5417 84.0699 80.5363 80.0808 81.0672C82.9578 81.4331 86.1362 81.2465 89.2787 80.5004C97.221 78.6206 101.827 71.2666 99.2084 65.6058C97.9743 62.944 95.4058 60.9925 92.1772 59.9235C94.9251 61.6239 96.8838 64.0561 97.343 66.7537L97.3501 66.7609Z" fill="white"/>
<path d="M2.5438 36.714C1.73307 31.9715 5.83697 28.1044 11.878 27.6596C12.8107 24.9332 15.8241 22.9386 19.8132 22.4077C16.9361 22.0418 13.7578 22.2283 10.6153 22.9745C2.66577 24.8471 -1.94035 32.2011 0.685568 37.8619C1.91961 40.5237 4.48813 42.4752 7.71672 43.5442C4.96883 41.8438 3.01015 39.4116 2.55098 36.714H2.5438Z" fill="white"/>
</g>
<defs>
<clipPath id="clip0_15980_7882">
<rect width="100" height="100" fill="white"/>
</clipPath>
</defs>
</svg>
