<svg width="100" height="100" viewBox="0 0 100 100" fill="none" xmlns="http://www.w3.org/2000/svg">
<g clip-path="url(#clip0_15980_7924)">
<rect width="100" height="100" fill="#F5B2F2"/>
<path d="M84.6275 15.4795L26.4552 5.17615L4.85569 73.1248L0.801254 74.2045L2.77145 77.4333C3.21733 78.2045 3.99504 78.7495 4.87644 78.9038L71.6865 90.7393C72.6923 90.9141 73.6774 90.3279 73.9885 89.3613L91.9586 32.8266C92.2697 31.8394 92.1868 30.77 91.7305 29.8343L84.6378 15.4795H84.6275Z" fill="black"/>
<path d="M80.1996 10.1655L34.5949 2.08328L26.6624 27.0396C26.2579 28.2941 27.0668 29.6206 28.3733 29.8468L68.648 36.9831C70.2864 37.271 71.8833 36.3147 72.381 34.7414L80.1892 10.1553L80.1996 10.1655Z" fill="white"/>
<path d="M80.6455 10.2448L25.304 0.43502C24.2982 0.260213 23.3131 0.846296 23.002 1.81288L0.541906 72.4865C0.168608 73.6485 0.915203 74.8618 2.12842 75.0778L69.4466 87.0058C70.4524 87.1806 71.4375 86.5945 71.7486 85.6279L89.8743 28.5893C90.1854 27.6022 90.1024 26.5327 89.6461 25.597L82.8542 11.8798C82.4291 11.016 81.6099 10.4093 80.6559 10.2345L80.6455 10.2448Z" fill="white"/>
<path d="M19.8705 43.8522L9.53221 76.3869L61.3377 85.5695L71.8004 52.6542C72.2049 51.3997 71.396 50.0733 70.0895 49.8471L23.6035 41.6105C21.9651 41.3226 20.3682 42.2789 19.8705 43.8522Z" fill="black"/>
<path d="M52.8452 34.1871L68.6585 36.984C70.2969 37.2719 71.8938 36.3156 72.3915 34.7424L80.1997 10.1563L59.0564 6.4133L51.1239 31.3696C50.7194 32.6241 51.5283 33.9506 52.8348 34.1768L52.8452 34.1871Z" fill="black"/>
<path d="M5.55028 2.75006C5.55028 2.75006 6.99163 7.49043 12.84 8.79634C12.84 8.79634 8.41223 9.55726 8.31891 14.8323C8.31891 14.8323 6.7635 10.2565 1.15365 8.79634C1.15365 8.79634 5.84063 8.24107 5.55028 2.75006Z" fill="white"/>
<path d="M29.2133 88.322C29.2133 88.322 30.6547 93.0624 36.503 94.3683C36.503 94.3683 32.0753 95.1292 31.9819 100.404C31.9819 100.404 30.4265 95.8285 24.8167 94.3683C24.8167 94.3683 29.5037 93.813 29.2133 88.322Z" fill="white"/>
<path d="M85.5918 36.8439C85.5918 36.8439 88.3293 45.8516 99.4453 48.3401C99.4453 48.3401 91.0254 49.7797 90.8595 59.8054C90.8595 59.8054 87.8938 51.1164 77.2444 48.3298C77.2444 48.3298 86.1414 47.281 85.5918 36.8439Z" fill="white"/>
<path d="M49.838 33.6618C49.6514 33.271 49.558 32.87 49.5166 32.4998L28.84 28.8596C28.84 28.8596 28.8192 28.8596 28.8089 28.8596C28.1245 28.726 27.7201 28.0062 27.9275 27.3378L35.8601 2.31977L34.6054 2.08328L26.6728 27.0396C26.3098 28.1707 26.849 29.271 28.0208 29.744C28.1971 29.8366 28.6533 29.9394 28.6533 29.9394L49.838 33.6618Z" fill="black"/>
<path d="M77.2236 11.634L70.5561 32.5184C70.5561 32.5184 73.2833 22.7909 68.5445 18.0814C68.5445 18.0814 72.2463 12.3127 64.7285 9.36157L77.234 11.634H77.2236Z" fill="white"/>
</g>
<defs>
<clipPath id="clip0_15980_7924">
<rect width="100" height="100" fill="white"/>
</clipPath>
</defs>
</svg>
