<svg width="100" height="100" viewBox="0 0 100 100" fill="none" xmlns="http://www.w3.org/2000/svg">
<g clip-path="url(#clip0_15980_7910)">
<rect width="100" height="100" fill="#F5B2F2"/>
<path d="M96.5769 68.1625L74.1433 17.1297L67.2916 13.8639L11.7157 24.7743L7.33238 22.8563L6.15262 26.1674C5.85314 26.9998 5.88037 27.9135 6.24337 28.7277C10.79 39.1043 27.3248 76.8383 31.2725 85.8308C31.7716 86.9617 32.9877 87.5859 34.2038 87.3416L96.5678 74.7395C97.4663 74.5586 98.2013 73.9252 98.519 73.0658L99.735 69.7185L96.5769 68.1534V68.1625Z" fill="black"/>
<path d="M76.6934 18.3446L62.8721 11.7496C62.1914 11.4239 61.42 11.3244 60.6759 11.4691L8.64834 21.6829C7.55025 21.9 6.93314 23.0671 7.37782 24.0893C11.4525 33.4075 28.6589 72.6614 32.6973 81.8529C33.1965 82.9837 34.4125 83.6079 35.6286 83.3637L98.5372 70.662C99.6353 70.4449 100.243 69.2688 99.7986 68.2466L78.817 20.5159C78.3995 19.5569 77.6463 18.7789 76.6934 18.3266V18.3446Z" fill="white"/>
<path d="M30.0019 54.7872L42.0174 82.1265L92.1573 72.0032L80.1237 44.6187C79.6246 43.4878 78.4085 42.8545 77.1925 43.0988L31.2634 52.3717C30.1653 52.5889 29.5573 53.7649 30.0019 54.7872Z" fill="black"/>
<path d="M83.9536 19.9987C83.9536 19.9987 85.215 24.1693 90.3334 25.3182C90.3334 25.3182 86.4583 25.9877 86.3766 30.6287C86.3766 30.6287 85.0154 26.6029 80.1057 25.3182C80.1057 25.3182 84.2077 24.8297 83.9536 19.9987Z" fill="white"/>
<path d="M7.25077 41.0395C7.25077 41.0395 9.64659 48.9644 19.3751 51.1538C19.3751 51.1538 12.0061 52.4203 11.8609 61.2409C11.8609 61.2409 9.26544 53.5964 -0.0546875 51.1447C-0.0546875 51.1447 7.73175 50.2219 7.25077 41.0395Z" fill="white"/>
<path d="M54.2507 35.1354L67.4641 32.4667C68.5621 32.2495 69.1702 31.0734 68.7255 30.0511L60.567 11.4962L43.1065 14.925L51.3194 33.6156C51.8186 34.7464 53.0346 35.3797 54.2507 35.1354Z" fill="black"/>
<path d="M68.3354 78.7744C68.3354 78.7744 69.5968 82.9449 74.7152 84.0938C74.7152 84.0938 70.8401 84.7633 70.7584 89.4043C70.7584 89.4043 69.3971 85.3784 64.4875 84.0938C64.4875 84.0938 68.5895 83.6053 68.3354 78.7744Z" fill="white"/>
<path d="M50.4846 34.9301L30.5375 38.9921C30.4286 39.0102 30.3197 39.0283 30.2108 39.0283C29.5574 39.0283 28.9675 38.6393 28.7044 38.0422L20.5005 19.3697L19.5113 19.5597L27.8059 38.4312C28.2324 39.3992 29.1853 40.0053 30.2108 40.0053C30.3832 40.0053 30.5557 39.9872 30.7372 39.9511L51.3195 35.7624C50.902 35.4548 50.6298 35.1382 50.4937 34.9301H50.4846Z" fill="black"/>
<path d="M66.1844 28.9764L59.369 13.7508L49.3319 15.6144C49.3319 15.6144 55.3215 15.5601 55.5302 20.753C55.5302 20.753 61.5561 20.2463 66.1844 28.9764Z" fill="white"/>
</g>
<defs>
<clipPath id="clip0_15980_7910">
<rect width="100" height="100" fill="white"/>
</clipPath>
</defs>
</svg>
