<svg width="100" height="100" viewBox="0 0 100 100" fill="none" xmlns="http://www.w3.org/2000/svg">
<rect width="100" height="100" fill="#F5B2F2"/>
<path d="M40.6033 73.8131L52.2154 61.0836L38.4779 53.2224L26.8892 65.9285L40.6033 73.8131Z" fill="white"/>
<path d="M26.0765 66.812L14.1753 79.8619L27.9129 87.7231L39.7907 74.6966L26.0765 66.812Z" fill="white"/>
<path d="M11.9247 58.677L0 71.7426L13.1359 79.26L25.0371 66.2179L11.9247 58.677Z" fill="white"/>
<path d="M37.4384 52.6209L24.3104 45.1036L12.7296 57.794L25.842 65.327L37.4384 52.6209Z" fill="white"/>
<path d="M53.2546 61.6777L41.6426 74.4072L55.7708 82.5263L67.3985 69.7734L53.2546 61.6777Z" fill="white"/>
<path d="M28.9519 88.3165L43.0958 96.42L54.958 83.4091L40.8375 75.2978L28.9519 88.3165Z" fill="white"/>
<path d="M100 59.2552L98.8357 48.9481L74.5253 75.5949L100 59.2552Z" fill="black"/>
<path d="M57.5056 45.9872L47.4564 57.0054L61.1939 64.8744L71.2275 53.8718L57.5056 45.9872Z" fill="white"/>
<path d="M83.6444 40.2588L69.9147 32.3976L58.3182 45.1037L72.0323 52.9883L83.6444 40.2588Z" fill="white"/>
<path d="M43.3537 37.8522L33.2811 48.8939L46.417 56.4113L56.4662 45.3931L43.3537 37.8522Z" fill="white"/>
<path d="M72.2666 54.473L62.233 65.4678L67.9843 68.7576L68.5001 69.0546L68.5626 69.6406L68.8752 72.3522L74.5253 75.5949L86.3871 62.5843L72.2666 54.473Z" fill="white"/>
<path d="M57.2789 44.5022L68.8675 31.7961L55.7394 24.2788L44.1586 36.9692L57.2789 44.5022Z" fill="white"/>
<path d="M98.8357 48.9481L84.6914 40.8529L73.0715 53.5825L87.1999 61.7015L98.8357 48.9481Z" fill="white"/>
<path d="M56.0989 26.6933L48.7925 35.2031C56.4427 28.0686 64.5227 31.0771 64.5227 31.0771L56.0989 26.6933Z" fill="#F5B2F2"/>
<path d="M62.8896 43.541C70.5399 36.4065 78.6199 39.415 78.6199 39.415L70.196 35.0312L62.8896 43.541Z" fill="#F5B2F2"/>
<path d="M84.9805 43.4551L81.4563 47.4092C87.3014 45.4322 93.4044 47.839 93.4044 47.839L84.9805 43.4551Z" fill="#F5B2F2"/>
<path d="M24.5525 48.0964L17.2461 56.6062C24.8963 49.4717 32.9763 52.4803 32.9763 52.4803L24.5525 48.0964Z" fill="#F5B2F2"/>
<path d="M31.3431 64.6005C38.9934 57.4661 47.0734 60.4746 47.0734 60.4746L38.6495 56.0907L31.3431 64.6005Z" fill="#F5B2F2"/>
<path d="M71.6262 26.1226C71.6262 26.1226 73.5641 24.2628 76.4007 23.9502C78.7294 23.6923 80.9877 24.8411 82.3005 26.779L82.3318 26.8259C82.3318 26.8259 83.3867 23.958 86.3562 22.317C87.7471 21.5434 89.3959 21.2777 90.9432 21.6841C91.6308 21.8638 92.3498 22.1842 92.9046 22.739C92.9046 22.739 91.459 19.4257 87.755 19.5429C86.4343 19.582 85.1684 20.1056 84.1213 20.9261C83.4024 21.4809 82.6131 22.2701 82.1442 23.2547C82.1442 23.2547 76.979 18.5115 71.6262 26.1226Z" fill="#F5B2F2"/>
<path d="M79.6436 15.2607C79.6436 15.2607 78.8856 13.5494 77.143 12.596C75.713 11.8146 73.9548 11.9552 72.5951 12.8539L72.556 12.8773C72.556 12.8773 72.6419 10.7518 71.1572 8.90765C70.4617 8.04026 69.4693 7.43075 68.3753 7.29009C67.883 7.22757 66.1717 6.95407 65.6716 7.16506C65.6716 7.16506 68.6488 5.70378 70.9931 6.75872C71.8371 7.1338 72.5091 7.80583 72.9623 8.61071C73.2749 9.15771 73.5797 9.87663 73.6187 10.6346C73.6187 10.6346 78.2058 8.94673 79.6358 15.2685L79.6436 15.2607Z" fill="#F5B2F2"/>
<path d="M68.5706 80.0728L67.3985 69.7734L43.0958 96.42L68.5706 80.0728Z" fill="black"/>
<path d="M38.6496 13.299C38.6496 13.299 36.0006 14.815 32.9373 14.1664C35.7192 19.6521 33.8047 26.4271 28.4363 29.5997C25.9826 31.0454 23.2163 31.4986 20.6063 31.0766C21.5284 32.03 22.4584 33.5772 22.8491 36.0856C22.8491 36.0856 25.9826 29.0449 31.5308 32.8661C31.5308 32.8661 29.9132 30.1233 32.7732 26.8491C35.6333 23.5671 41.2283 25.4581 41.2283 25.4581C41.2283 25.4581 31.7808 20.9493 38.6574 13.3068L38.6496 13.299Z" fill="white"/>
<path d="M26.9204 27.0525C31.101 24.5909 32.492 19.1991 30.0304 15.0184C27.5689 10.8377 22.1771 9.44679 17.9964 11.9083C13.8158 14.3698 12.4248 19.7617 14.8863 23.9424C17.3478 28.123 22.7397 29.514 26.9204 27.0525Z" fill="white"/>
<path d="M12.3388 25.4427C9.0412 19.8477 10.9088 12.6429 16.4961 9.35304C20.3876 7.06345 25.0527 7.26662 28.6395 9.48589C26.8813 6.32109 27.1861 3 27.1861 3C20.0516 10.4158 11.9715 5.87567 11.9715 5.87567C13.0734 8.61068 12.2294 11.4785 12.2294 11.4785C10.815 16.5422 6.39211 16.7766 6.39211 16.7766C6.56402 16.8313 6.73596 16.9017 6.90006 16.972C10.0336 18.3317 11.0182 22.3014 9.18965 25.1849C8.19723 26.7555 7.0876 27.7089 7.0876 27.7089C10.3149 26.9743 12.9171 27.5448 14.5659 28.1777C13.7141 27.4041 12.9562 26.482 12.3388 25.4427Z" fill="white"/>
</svg>
