<svg width="100" height="100" viewBox="0 0 100 100" fill="none" xmlns="http://www.w3.org/2000/svg">
<rect width="100" height="100" fill="#F5B2F2"/>
<path d="M22.5302 78.2608H14.86V98.5H22.5302V78.2608Z" fill="black"/>
<path d="M31.9369 14.6765H8.26026C6.7101 14.6765 5.45345 15.937 5.45345 17.4918V80.0777C5.45345 81.6325 6.7101 82.8929 8.26026 82.8929H31.9369C33.4871 82.8929 34.7437 81.6325 34.7437 80.0777V17.4918C34.7437 15.937 33.4871 14.6765 31.9369 14.6765Z" fill="white"/>
<path d="M74.4943 77.0125H66.824V98.4945H74.4943V77.0125Z" fill="black"/>
<path d="M85.3254 27.6087H55.9845L41.3183 53.0979L55.9845 78.5786H85.3254L100 53.0979L85.3254 27.6087Z" fill="white"/>
<path d="M85.3254 25.3829H55.9845L41.3183 50.8721V53.0955L55.9845 27.6063H85.3254L100 53.0955V50.8721L85.3254 25.3829Z" fill="black"/>
<path d="M83.3866 30.9904H57.9399L45.2123 53.0979L57.9399 75.2054H83.3866L96.1142 53.0979L83.3866 30.9904ZM82.6533 73.9289H58.6648L46.6705 53.0895L58.6648 32.25H82.6533L94.6476 53.0895L82.6533 73.9289ZM62.1122 55.1607H62.0279L60.3505 48.7356H58.5299L56.8526 55.1438H56.7767L55.2511 48.7356H53.127L55.7568 57.959H57.6533L59.3981 51.9312H59.4739L61.2271 57.959H63.1236L65.7534 48.7356H63.6294L62.1037 55.1607H62.1122ZM69.1756 48.744L65.9979 57.9675H68.0798L68.7625 55.8624H72.0835L72.7663 57.9675H74.8482L71.6789 48.744H69.1756ZM69.2598 54.3407L70.3893 50.8491H70.4652L71.5946 54.3407H69.2598ZM80.4112 48.744V50.3503H83.2265V57.9675H85.1482V50.3503H87.9635V48.744H80.4112ZM76.5845 57.9675H78.5316V48.744H76.5845V57.9675Z" fill="black"/>
<path d="M5.69791 16.3433C6.13621 15.3627 7.11396 14.6779 8.26028 14.6779H31.9369C32.2825 14.6779 32.6028 14.7455 32.9063 14.8639L28.7171 12.0994C27.7984 11.4907 26.7279 11.1694 25.6322 11.1694H3.50641C2.16622 11.1694 1.01146 11.9303 0.421443 13.0378L5.69791 16.3433Z" fill="black"/>
<path d="M5.45347 18.6817L0 15.2578V18.9691L5.45347 22.4776V18.6817Z" fill="black"/>
<path d="M6.86943 82.5077L7.00429 82.6092H7.04643C6.98743 82.5753 6.92 82.5415 6.861 82.5077H6.86943Z" fill="black"/>
<path d="M5.45345 80.0777L5.45347 28.4998L0 24.9998V75.6147C0 76.7222 0.522589 77.7705 1.40762 78.4384L6.26264 82.0736C5.75691 81.5664 5.44504 80.8647 5.44504 80.0954L5.45345 80.0777Z" fill="black"/>
<path d="M20.0944 36.5466C24.5354 36.5466 28.1356 32.9356 28.1356 28.4813C28.1356 24.027 24.5354 20.4161 20.0944 20.4161C15.6534 20.4161 12.0533 24.027 12.0533 28.4813C12.0533 32.9356 15.6534 36.5466 20.0944 36.5466Z" fill="black"/>
<path d="M19.8079 24.9029C19.8079 24.9029 26.669 24.2096 24.8146 32.5961C25.7755 31.4971 26.3571 30.0599 26.3571 28.479C26.3571 25.0128 23.5587 22.206 20.1029 22.206C19.201 22.206 18.3497 22.4004 17.5743 22.7471C17.5743 22.7471 19.6393 22.8147 19.8163 24.9113L19.8079 24.9029Z" fill="#F5B2F2"/>
<path d="M20.0944 56.8497C24.5354 56.8497 28.1356 53.2388 28.1356 48.7845C28.1356 44.3302 24.5354 40.7192 20.0944 40.7192C15.6534 40.7192 12.0533 44.3302 12.0533 48.7845C12.0533 53.2388 15.6534 56.8497 20.0944 56.8497Z" fill="#F5B2F2"/>
<path d="M19.8079 45.272C19.8079 45.272 26.669 44.5788 24.8146 52.9653C25.7755 51.8662 26.3571 50.429 26.3571 48.8481C26.3571 45.3819 23.5587 42.5752 20.1029 42.5752C19.201 42.5752 18.3497 42.7696 17.5743 43.1162C17.5743 43.1162 19.6393 43.1839 19.8163 45.2805L19.8079 45.272Z" fill="white"/>
<path d="M20.0944 77.1593C24.5354 77.1593 28.1356 73.5484 28.1356 69.0941C28.1356 64.6398 24.5354 61.0288 20.0944 61.0288C15.6534 61.0288 12.0533 64.6398 12.0533 69.0941C12.0533 73.5484 15.6534 77.1593 20.0944 77.1593Z" fill="black"/>
<path d="M19.8079 65.6346C19.8079 65.6346 26.669 64.9413 24.8146 73.3278C25.7755 72.2288 26.3571 70.7916 26.3571 69.2107C26.3571 65.7445 23.5587 62.9377 20.1029 62.9377C19.201 62.9377 18.3497 63.1322 17.5743 63.4788C17.5743 63.4788 19.6393 63.5464 19.8163 65.643L19.8079 65.6346Z" fill="#F5B2F2"/>
<path d="M69.4876 1.50329C68.0631 1.54556 66.6976 2.12044 65.5681 2.99967C64.7927 3.59991 63.9414 4.45378 63.4356 5.519C63.4356 5.519 57.8642 0.387343 52.0904 8.62166C52.0904 8.62166 54.1807 6.60958 57.2404 6.27141C59.7522 5.99243 62.1882 7.23518 63.6042 9.33181L63.6379 9.38253C63.6379 9.38253 64.7758 6.27987 67.9788 4.5045C69.4791 3.66754 71.2576 3.3801 72.9181 3.81972C73.6598 4.01416 74.4353 4.36078 75.0337 4.96102C75.0337 4.96102 73.4744 1.37648 69.4791 1.50329H69.4876ZM84.2296 16.2896C84.1875 15.461 83.8588 14.6917 83.5216 14.0999C83.0243 13.2376 82.2994 12.5106 81.3975 12.0963C78.8605 10.955 75.6575 12.5359 75.6575 12.5359C76.1969 12.3077 78.0428 12.6036 78.5739 12.6712C79.7623 12.8318 80.8328 13.4912 81.5745 14.4212C83.1676 16.4164 83.0833 18.7159 83.0833 18.7159L83.1255 18.6905C84.5921 17.7183 86.4886 17.5661 88.031 18.4115C89.9107 19.4429 90.7283 21.2944 90.7283 21.2944C89.1858 14.455 84.2381 16.2811 84.2381 16.2811L84.2296 16.2896Z" fill="white"/>
</svg>
