<svg width="100" height="100" viewBox="0 0 100 100" fill="none" xmlns="http://www.w3.org/2000/svg">
<rect width="100" height="100" fill="#F5B2F2"/>
<path d="M98.4054 52.0396C98.5615 47.9907 98.43 43.6127 98.2574 39.9012C97.9861 33.9265 96.9421 16.4801 96.2351 14.4967L67.1511 14.0195C64.833 13.3858 62.3833 13.3364 60.0486 13.896C50.3485 16.2332 29.6658 22.1584 25.6049 24.2487C24.2979 24.9153 23.0402 25.5983 22.177 27.0056C18.9382 32.2971 11.5479 42.7651 11.4 42.979C8.18575 47.7768 3.77961 54.706 3.77961 54.706C2.66163 56.2367 1.54362 58.5739 1.28879 60.3432C0.902428 63.0919 0.491421 67.9473 0.688712 72.6628C0.688712 72.6628 13.1263 83.6409 35.1489 87.484C36.2258 88.8007 38.0836 89.2287 39.629 88.4387L98.0765 58.6644L98.5533 52.1466L98.3807 52.0479L98.4054 52.0396Z" fill="white"/>
<path d="M25.35 26.1257C28.8766 27.8703 37.8945 31.8534 51.2445 34.4704C52.7159 34.7584 53.6202 36.2644 53.1763 37.6963L48.5153 52.6657C48.0467 54.1717 46.5999 55.1511 45.0216 55.0194C38.2233 54.4434 20.3191 52.0815 11.4081 42.9797C11.4081 42.9797 16.4637 35.0711 22.3495 26.7346C23.0072 25.8047 24.3307 25.6237 25.3583 26.1257H25.35Z" fill="black"/>
<path d="M62.4573 86.4785L84.6854 74.7597C84.6854 74.7597 80.9368 78.5123 84.0935 78.7757L59.7609 91.8112C59.7609 91.8112 66.4688 87.9927 62.4573 86.4785Z" fill="white"/>
<path d="M40.6811 33.9466C40.6811 33.9466 43.9611 34.9918 47.5123 35.5514C47.5123 35.5514 42.6294 44.2746 29.2465 48.4634C29.2465 48.4634 40.2619 42.6699 40.6811 33.9466Z" fill="white"/>
<path d="M58.3634 34.2435C57.5084 34.6467 56.8672 35.4039 56.6042 36.3091L52.3789 50.9658C51.9679 52.3895 52.7981 53.7721 54.7793 52.9162L63.3203 49.1883C64.5123 48.6616 65.285 47.4847 65.285 46.1762V33.0667C65.285 32.1614 64.3479 31.5689 63.5258 31.9475L58.3551 34.2353L58.3634 34.2435Z" fill="black"/>
<path d="M33.4473 73.9041C32.7485 74.653 31.6635 74.9246 30.6277 74.6777C27.4792 73.9288 24.75 73.04 24.75 73.04C22.6209 72.4063 23.9773 70.7111 23.9773 70.7111C28.178 66.3659 34.3597 66.1931 34.3597 66.1931C36.571 66.0532 37.1794 67.4028 36.7602 68.4562C36.7602 68.4562 35.897 71.2954 33.4473 73.9206V73.9041Z" fill="black"/>
<path d="M1.08335 61.9302C1.72455 62.7284 3.49198 63.8065 4.24826 64.1604C5.00454 64.5142 5.57174 64.2426 5.57174 64.2426C6.39379 63.9382 6.33624 62.6955 6.33624 62.6955C5.71148 56.4164 4.32222 53.8324 4.32222 53.8324C2.85075 55.8321 1.60944 58.0376 1.32173 60.0785C1.24774 60.597 1.15734 61.2965 1.08335 61.9219V61.9302Z" fill="black"/>
<path d="M24.865 28.1865C24.7417 28.1206 24.602 28.096 24.4622 28.096C24.191 28.096 23.9033 28.203 23.7388 28.4252C19.4971 34.0459 14.1374 42.4564 14.1374 42.4564L33.998 31.9474C29.6082 30.4084 26.4927 28.9847 24.8733 28.1865H24.865Z" fill="#F5B2F2"/>
<path d="M60.7309 39.3062C63.2793 40.5159 64.0273 46.8937 64.0273 46.8937V34.0393C64.0438 33.3809 63.641 33.241 63.1478 33.4715L58.3799 35.5618C58.3799 35.5618 60.1144 34.9857 61.0433 36.2037C61.9722 37.4216 60.7309 39.298 60.7309 39.298V39.3062Z" fill="white"/>
<path d="M51.6884 63.2065C50.5457 63.7908 49.5921 64.7208 49.1071 65.9058C48.9756 66.235 48.8688 66.5889 48.8359 66.9427C48.8359 66.9427 49.921 66.128 51.0965 65.5849L94.2786 43.5134C95.3637 42.962 96.0378 41.851 96.0378 40.6331L51.6884 63.1983V63.2065Z" fill="#F5B2F2"/>
<path d="M95.3473 13.8195L69.8146 6.75857C68.376 6.36355 66.847 6.42113 65.4413 6.93136C55.4205 10.5935 25.7858 24.1475 25.7858 24.1475C25.7858 24.1475 25.1528 24.5178 26.2379 25.0445C29.896 26.822 39.6866 31.0685 53.5627 33.5702C54.3355 33.7101 55.1328 33.5949 55.8398 33.241L95.3391 15.5805C96.2516 15.1855 96.7942 14.2556 95.3391 13.8112L95.3473 13.8195Z" fill="black"/>
<path d="M48.7455 72.1767C44.2818 72.1767 41.0676 75.1969 39.2344 78.8425C38.5521 80.2004 37.0067 80.8835 35.5188 80.5543C34.5899 80.3485 33.513 80.077 32.469 79.7561C29.7151 78.9002 13.0605 74.4809 1.65869 65.9881C1.23944 65.6754 1.00106 65.1816 1.00106 64.6632V62.6469C1.00106 62.6469 0.25299 62.9843 0.121463 63.6674C0.121463 63.6674 -0.100504 66.8193 0.0556852 72.2343C0.088567 73.4276 0.664028 74.5303 1.62582 75.238C5.30037 77.9538 15.839 84.7513 34.5816 89.4175C35.938 89.7549 37.3766 89.6314 38.6508 89.0554L46.5178 85.1875L55.6096 80.2992C55.5438 77.3119 53.8668 72.1767 48.7619 72.1767H48.7455Z" fill="black"/>
<path d="M25.9091 60.8903C25.868 63.8694 22.4812 65.7786 18.3463 65.1532C14.2114 64.5277 10.8903 61.598 10.9314 58.6189C10.9725 55.6399 14.3594 53.7306 18.4943 54.3561C22.6292 54.9815 25.9502 57.9112 25.9091 60.8903Z" fill="#F5B2F2"/>
<path d="M90.0122 31.0685C91.0644 34.6154 88.0557 39.1251 83.2878 41.1249C78.52 43.1247 73.8014 41.8738 72.7492 38.3269C71.697 34.78 74.7057 30.2702 79.4735 28.2705C84.2414 26.2707 88.96 27.5215 90.0122 31.0685Z" fill="#F5B2F2"/>
<path d="M99.9918 50.0633C99.9918 49.0428 99.5232 48.08 98.7258 47.4463C98.6519 47.3887 98.5614 47.3146 98.4792 47.2488H98.4628V49.2238C98.4628 49.5201 98.3066 49.7917 98.0435 49.9398L95.9637 51.1084C95.1006 50.6064 94.073 50.3101 92.8317 50.3101C88.368 50.3101 85.1538 53.3303 83.3206 56.976C83.3206 56.976 81.3642 60.5394 80.6244 67.5262C80.6244 67.5262 81.7259 67.3863 82.3013 67.2711C82.7288 67.1888 84.4222 67.2053 84.7264 64.5718C84.8497 63.5185 85.0634 62.4487 85.2607 61.601C85.606 60.1032 86.1649 58.663 87.0199 57.3875C88.59 55.0503 90.7684 53.4867 92.914 53.4456C95.7171 53.388 97.5832 55.9556 97.6571 59.5272L97.8873 59.4037C99.0629 58.77 99.6794 57.4122 99.3588 56.1202C99.3095 55.9309 99.2602 55.7416 99.1944 55.5441C99.4903 55.1161 99.6876 54.6224 99.7616 54.0875C99.8849 53.1576 99.9918 51.8161 100 50.0633H99.9918Z" fill="#171717"/>
<path d="M92.9141 53.4475C90.0534 53.5051 87.1269 56.2619 85.6801 59.9652C85.5322 60.4754 84.9649 62.5575 84.7347 64.582C84.4799 66.7628 83.2715 67.1249 82.6221 67.2318C83.3208 68.6144 84.3895 69.5937 85.7294 70.0216L88.508 70.8528C88.9436 70.968 89.2478 70.9598 89.4944 70.9516C92.9305 70.8857 96.49 66.9109 97.4271 62.0802C98.3725 57.2495 96.3503 53.3816 92.9141 53.4475Z" fill="black"/>
<path d="M95.0842 62.121C94.4923 65.133 92.281 67.6183 90.1355 67.6595C87.9899 67.7006 86.724 65.2894 87.3159 62.2774C87.9077 59.2654 90.119 56.7801 92.2646 56.7389C94.4101 56.6978 95.6761 59.109 95.0842 62.121Z" fill="white"/>
<path d="M48.5565 75.9877C46.748 76.0206 44.9066 77.1234 43.4434 78.8845C41.1581 81.6496 40.4922 85.4681 40.2949 87.2703C40.2292 87.9205 39.8181 88.48 39.2263 88.7516C38.7002 88.9985 38.1412 89.2536 38.0343 89.2947C38.7084 90.9324 39.8592 92.0846 41.3553 92.5619L44.0106 93.3766C44.0106 93.3766 44.4874 93.5 45.1286 93.5C48.5647 93.4753 52.1241 89.4594 53.0613 84.6286C54.0066 79.7979 51.9844 75.9301 48.5482 75.9959L48.5565 75.9877Z" fill="black"/>
<path d="M50.7349 84.6621C50.143 87.6741 47.9317 90.1594 45.7861 90.2005C43.6406 90.2417 42.3746 87.8304 42.9665 84.8184C43.5584 81.8064 45.7697 79.3212 47.9152 79.28C50.0608 79.2389 51.3267 81.6501 50.7349 84.6621Z" fill="white"/>
</svg>
