<svg width="100" height="100" viewBox="0 0 100 100" fill="none" xmlns="http://www.w3.org/2000/svg">
<g clip-path="url(#clip0_15980_15196)">
<rect width="100" height="100" fill="#F1F1F1"/>
<path d="M31.1314 47.3075C29.929 46.3137 28.6383 45.5485 27.2945 44.9944L26.2159 45.1967C24.262 45.5661 22.4232 44.1324 22.3259 42.1535L22.3082 41.7665H22.2905L21.6451 28.6439C21.5302 26.8496 20.3632 26.4186 20.0538 26.3307C20.0273 26.3307 20.0007 26.3219 19.9742 26.3131L0.754109 20.5697C0.36511 20.4818 0.0556805 20.2619 0.0379987 19.998H0.0114502L0.630323 35.0556C0.745255 37.2193 2.1775 39.1015 4.24627 39.7875L18.153 44.4227C8.10972 47.0701 0.108741 59.8321 0.108741 73.5529C0.108741 81.882 2.96434 89.0151 7.95061 93.1225C10.6648 95.3565 13.7768 96.4999 17.0744 96.4999C17.9939 96.4999 18.931 96.4119 19.877 96.236C30.4153 94.2395 38.9821 81.0641 38.9821 66.8596C38.9821 58.5304 36.1265 51.3974 31.1402 47.29L31.1314 47.3075ZM19.205 92.7971C15.9428 93.4127 12.8219 92.5948 10.1962 90.4311C6.08516 87.0449 3.63625 80.7474 3.63625 73.5704C3.63625 60.9755 10.9211 49.3481 19.8681 47.6506C20.5754 47.5186 21.2738 47.4483 21.9722 47.4483C24.4654 47.4483 26.8259 48.319 28.8858 50.0165C32.9968 53.4027 35.4458 59.7002 35.4458 66.8772C35.4458 79.4721 28.1609 91.0996 19.2139 92.7971H19.205Z" fill="black"/>
<path d="M42.4036 44.2105C45.8603 48.7313 49.9449 53.3928 55.4704 53.3928C55.6561 53.3928 55.8505 53.3928 56.045 53.3752L54.9311 57.5091L58.7857 56.779L65.0539 33.4538C65.0539 33.4538 62.216 32.8029 60.1826 37.957L57.0352 49.6812C53.322 50.5431 50.0774 48.4498 45.2149 42.082C40.7591 36.2595 33.987 25.239 33.9163 25.1334C33.4035 24.3066 32.3161 24.0428 31.4851 24.5529C30.654 25.063 30.3888 26.1448 30.9015 26.9716C31.1845 27.429 37.8417 38.2472 42.4036 44.2193V44.2105Z" fill="#11B67A"/>
<path d="M50.6698 59.3306C43.155 50.6057 32.8465 35.1258 32.7227 34.9411C32.1834 34.1319 31.0872 33.9121 30.2738 34.4398C29.4605 34.9763 29.2395 36.0669 29.7699 36.8761C30.2738 37.6413 41.0686 53.8335 48.7778 62.5233C49.2022 61.2656 49.8564 60.1574 50.6609 59.3218L50.6698 59.3306Z" fill="#11B67A"/>
<path d="M78.4125 84.4862C75.159 84.4862 72.0912 83.3603 69.4213 81.1615C64.5058 77.1157 61.6944 70.0882 61.6944 61.8821C61.6944 47.8887 70.1374 34.9068 80.5254 32.9367C84.7956 32.1275 88.8624 33.1829 92.275 35.9975C97.1906 40.0433 100.002 47.0708 100.002 55.2768C100.002 69.2702 91.5589 82.2522 81.1709 84.2223C80.2426 84.3982 79.3142 84.4862 78.4125 84.4862ZM83.2396 36.147C82.5589 36.147 81.8693 36.2086 81.1709 36.3493C72.3477 38.0204 65.1777 49.4807 65.1777 61.8909C65.1777 68.9624 67.5912 75.1719 71.6404 78.4966C74.2307 80.6338 77.2985 81.4342 80.5166 80.8273C89.3398 79.1562 96.5098 67.6959 96.5098 55.2856C96.5098 48.2142 94.0962 42.0047 90.0471 38.68C88.0137 37.0089 85.6974 36.1558 83.2396 36.1558V36.147Z" fill="black"/>
<path d="M62.879 14.2544C62.7022 13.2078 61.6677 12.5745 60.6776 12.8383L51.5803 15.2835C50.6697 15.433 42.4211 16.6203 32.6077 13.7267C28.5586 12.5305 26.5429 11.22 25.535 10.2525C25.0488 9.78634 25.2698 8.9772 25.9152 8.79249L32.2099 6.97185C33.1029 6.71679 33.7217 5.84605 33.5537 4.94013C33.3592 3.90228 32.316 3.28661 31.317 3.56806L23.6873 5.7669C22.2374 6.18907 21.1676 7.48198 21.1234 9.10911C21.1058 9.68081 21.2649 10.2525 21.5301 10.7626C22.8209 13.2957 26.0213 15.3714 31.0429 16.9282C31.8475 17.1833 32.3337 18.0012 32.1569 18.828L25.6323 48.8904C25.6146 49.0224 23.369 62.1363 19.6912 68.2314C19.2668 68.9263 19.3553 69.8498 19.9476 70.4127C20.3101 70.7557 20.7521 70.9228 21.1942 70.9228C21.7954 70.9228 22.3789 70.6149 22.706 70.0696C26.7463 63.4115 29.0272 50.0338 29.1068 49.5501L35.6137 19.8218C35.817 18.9071 36.7011 18.309 37.6206 18.4586C40.8298 18.9863 43.7208 19.1534 46.0725 19.1534C49.4232 19.1534 51.6687 18.828 52.1373 18.7488C52.2611 18.7312 52.3672 18.7048 52.4821 18.6784L61.491 16.2597C62.3839 16.0223 63.0293 15.1603 62.879 14.2456V14.2544Z" fill="#11B67A"/>
<path d="M50.7227 66.7443C50.7227 62.9447 52.9594 59.4353 55.7266 58.9164L81.2325 54.079C81.6127 54.0086 81.9664 54.0438 82.3023 54.1405V54.1054L79.9064 53.3489C79.1638 53.1115 78.377 53.0675 77.6167 53.2082L53.2777 57.8258C50.5105 58.3535 48.2737 61.854 48.2737 65.6536C48.2737 68.5033 49.5203 70.667 51.2797 71.397L53.7551 72.514H53.7727C51.9957 71.8016 50.7227 69.6203 50.7227 66.7443Z" fill="black"/>
<path d="M75.9635 23.19C75.1678 22.7767 74.2572 22.3457 73.1963 21.8707C70.3672 20.6042 68.0067 20.0765 66.265 19.8742C64.5853 19.6807 62.879 19.883 61.27 20.4107L58.6088 21.2727C57.601 21.5981 57.2297 22.803 57.8485 23.665C57.9458 23.8057 58.0342 23.9464 58.1049 24.0959C58.3878 24.7204 58.0607 25.4593 57.4153 25.6791C56.5312 25.9782 55.4261 26.1804 54.6216 26.5762C53.0125 27.3766 53.3308 28.951 53.3308 28.951C53.3308 29.9361 55.214 30.8772 57.5214 30.7365C60.6776 30.543 63.6216 27.9483 70.7739 29.4611C72.1885 29.7602 73.6472 29.725 75.0529 29.3819L75.2208 29.338C78.2002 28.608 78.6954 24.5885 75.9724 23.1812L75.9635 23.19Z" fill="#00482F"/>
<path d="M11.0095 57.7561C11.0095 57.7561 4.29927 67.5542 6.99574 81.1254C6.99574 81.1254 7.14604 73.1392 11.0802 75.3205C15.0144 77.5017 18.1529 81.1957 23.5547 77.2114C23.5547 77.2114 14.3779 78.733 14.2895 67.2727C14.2188 57.8353 11.0095 57.7649 11.0095 57.7649V57.7561Z" fill="#6CF479"/>
<path d="M81.1797 66.3211C81.1797 66.3211 85.1228 65.6703 86.723 61.2374C86.723 61.2374 88.111 63.4891 86.7937 66.6818C86.7937 66.6818 91.4617 65.8814 93.946 58.2646C93.946 58.2646 94.1936 69.1357 84.3183 77.1306C84.3183 77.1306 87.386 69.2412 81.1797 66.3211Z" fill="#6CF479"/>
<path d="M41.8111 22.6807L21.8749 16.1897C21.0262 15.9171 20.1244 15.8555 19.2492 16.0226L0.506461 19.5232C0.506461 19.5232 0.126313 19.5672 0.0202226 19.8838C-0.0858681 20.2092 0.285447 20.4819 0.736333 20.5874L19.9564 26.3308C19.9564 26.3308 20.0095 26.3396 20.036 26.3484C20.3454 26.4276 21.5301 26.8585 21.6362 28.6879L22.3258 42.1624C22.4319 44.1414 24.2619 45.575 26.2158 45.2056L36.0469 43.341C38.2748 42.9188 39.9899 41.1245 40.3082 38.8905L42.2974 23.1469C42.3416 22.8215 41.8111 22.6895 41.8111 22.6895V22.6807Z" fill="#6CF479"/>
<path d="M81.2325 54.0799L55.7266 58.9173C52.9594 59.4451 50.7227 62.9456 50.7227 66.7452C50.7227 70.1402 52.4908 72.5589 54.7718 72.7348L54.7276 66.1295L56.3543 65.5754L57.9015 71.9344L81.6658 63.1215C83.319 62.5059 84.5567 60.3334 84.5567 58.029C84.5567 55.4959 83.0627 53.7281 81.2237 54.0799H81.2325Z" fill="#6CF479"/>
<path d="M57.9457 64.644C57.8219 63.8524 57.318 63.2807 56.6372 63.2807C55.7532 63.2807 54.9221 64.2042 54.7629 65.3652C54.6922 65.8753 54.7807 66.3415 54.9663 66.7109L59.1922 75.6294L60.6068 74.9961L57.9457 64.6352V64.644Z" fill="#6CF479"/>
<path d="M62.3573 74.1318C62.1717 74.0615 61.9595 74.0615 61.7738 74.1318L57.8219 75.5039C57.318 75.671 56.9555 76.2076 56.9555 76.8584C56.9555 77.5093 57.2915 77.993 57.7512 78.1865L63.3386 80.0775C63.6127 80.1742 63.9133 80.1654 64.1874 80.0599L67.5116 78.7582C67.8475 78.6263 68.0686 78.3008 68.0686 77.9402V76.7792C68.0686 76.4098 67.8298 76.0756 67.4762 75.9525L62.3662 74.1494L62.3573 74.1318Z" fill="#11B67A"/>
<path d="M63.6481 80.1318C63.5243 80.1142 63.4271 80.0438 63.3563 79.9646C63.1707 79.7448 63.1618 79.4633 63.1972 79.2522C63.2326 79.0411 63.1176 78.8124 62.9054 78.7421L57.8131 77.0446C57.5567 76.9566 57.3799 76.8775 57.2473 76.5345C57.1324 76.2267 57.2738 75.9012 57.3092 75.8484C57.0793 76.1035 56.9467 76.4553 56.9467 76.8599C56.9467 77.4756 57.2827 77.9945 57.7424 78.188L63.3298 80.079C63.4359 80.1142 63.542 80.1318 63.6393 80.1406L63.6481 80.1318Z" fill="black"/>
<path d="M2.69912 20.1725L20.5665 16.8303L38.3279 22.6704L21.5125 25.7928L2.69912 20.1725Z" fill="#00482F"/>
</g>
<defs>
<clipPath id="clip0_15980_15196">
<rect width="100" height="100" fill="white"/>
</clipPath>
</defs>
</svg>
