<svg width="100" height="100" viewBox="0 0 100 100" fill="none" xmlns="http://www.w3.org/2000/svg">
<g clip-path="url(#clip0_15980_15198)">
<path d="M31.0806 47.3075C29.8783 46.3137 28.5875 45.5485 27.2437 44.9944L26.1651 45.1967C24.2112 45.5661 22.3724 44.1324 22.2751 42.1535L22.2574 41.7665H22.2397L21.5944 28.6439C21.4794 26.8496 20.3124 26.4186 20.003 26.3307C19.9765 26.3307 19.9499 26.3219 19.9234 26.3131L0.703327 20.5697C0.314328 20.4818 0.00489928 20.2619 -0.0127825 19.998H-0.0393311L0.579542 35.0556C0.694474 37.2193 2.12672 39.1015 4.19549 39.7875L18.1022 44.4227C8.05894 47.0701 0.0579597 59.8321 0.0579597 73.5529C0.0579597 81.882 2.91356 89.0151 7.89983 93.1225C10.614 95.3565 13.726 96.4999 17.0236 96.4999C17.9431 96.4999 18.8802 96.4119 19.8262 96.236C30.3645 94.2395 38.9313 81.0641 38.9313 66.8596C38.9313 58.5304 36.0757 51.3974 31.0895 47.29L31.0806 47.3075ZM19.1543 92.7971C15.892 93.4127 12.7711 92.5948 10.1454 90.4311C6.03438 87.0449 3.58547 80.7474 3.58547 73.5704C3.58547 60.9755 10.8703 49.3481 19.8173 47.6506C20.5246 47.5186 21.223 47.4483 21.9215 47.4483C24.4146 47.4483 26.7751 48.319 28.835 50.0165C32.9461 53.4027 35.395 59.7002 35.395 66.8772C35.395 79.4721 28.1101 91.0996 19.1631 92.7971H19.1543Z" fill="#024731"/>
<path d="M42.3528 44.2105C45.8096 48.7313 49.8941 53.3928 55.4196 53.3928C55.6053 53.3928 55.7998 53.3928 55.9943 53.3752L54.8803 57.5091L58.735 56.779L65.0031 33.4538C65.0031 33.4538 62.1652 32.8029 60.1318 37.957L56.9844 49.6812C53.2713 50.5431 50.0267 48.4498 45.1642 42.082C40.7084 36.2595 33.9363 25.239 33.8655 25.1334C33.3528 24.3066 32.2653 24.0428 31.4343 24.5529C30.6032 25.063 30.338 26.1448 30.8508 26.9716C31.1337 27.429 37.7909 38.2472 42.3528 44.2193V44.2105Z" fill="#11B67A"/>
<path d="M50.619 59.3306C43.1042 50.6057 32.7957 35.1258 32.672 34.9411C32.1327 34.1319 31.0364 33.9121 30.2231 34.4398C29.4097 34.9763 29.1887 36.0669 29.7191 36.8761C30.2231 37.6413 41.0178 53.8335 48.727 62.5233C49.1514 61.2656 49.8056 60.1574 50.6102 59.3218L50.619 59.3306Z" fill="#11B67A"/>
<path d="M78.3617 84.4862C75.1082 84.4862 72.0405 83.3603 69.3705 81.1615C64.455 77.1157 61.6436 70.0882 61.6436 61.8821C61.6436 47.8887 70.0866 34.9068 80.4747 32.9367C84.7448 32.1275 88.8117 33.1829 92.2242 35.9975C97.1398 40.0433 99.9512 47.0708 99.9512 55.2768C99.9512 69.2702 91.5081 82.2522 81.1201 84.2223C80.1918 84.3982 79.2635 84.4862 78.3617 84.4862ZM83.1888 36.147C82.5081 36.147 81.8185 36.2086 81.1201 36.3493C72.2969 38.0204 65.1269 49.4807 65.1269 61.8909C65.1269 68.9624 67.5405 75.1719 71.5896 78.4966C74.18 80.6338 77.2477 81.4342 80.4658 80.8273C89.289 79.1562 96.459 67.6959 96.459 55.2856C96.459 48.2142 94.0454 42.0047 89.9963 38.68C87.9629 37.0089 85.6466 36.1558 83.1888 36.1558V36.147Z" fill="#024731"/>
<path d="M62.8282 14.2544C62.6514 13.2078 61.617 12.5745 60.6268 12.8383L51.5295 15.2835C50.6189 15.433 42.3703 16.6203 32.557 13.7267C28.5078 12.5305 26.4921 11.22 25.4842 10.2525C24.998 9.78634 25.2191 8.9772 25.8645 8.79249L32.1592 6.97185C33.0521 6.71679 33.6709 5.84605 33.5029 4.94013C33.3084 3.90228 32.2652 3.28661 31.2662 3.56806L23.6365 5.7669C22.1866 6.18907 21.1169 7.48198 21.0727 9.10911C21.055 9.68081 21.2141 10.2525 21.4794 10.7626C22.7701 13.2957 25.9705 15.3714 30.9922 16.9282C31.7967 17.1833 32.2829 18.0012 32.1061 18.828L25.5815 48.8904C25.5639 49.0224 23.3182 62.1363 19.6404 68.2314C19.2161 68.9263 19.3045 69.8498 19.8969 70.4127C20.2593 70.7557 20.7013 70.9228 21.1434 70.9228C21.7446 70.9228 22.3281 70.6149 22.6552 70.0696C26.6955 63.4115 28.9764 50.0338 29.056 49.5501L35.5629 19.8218C35.7662 18.9071 36.6503 18.309 37.5698 18.4586C40.779 18.9863 43.67 19.1534 46.0217 19.1534C49.3724 19.1534 51.6179 18.828 52.0865 18.7488C52.2103 18.7312 52.3164 18.7048 52.4313 18.6784L61.4402 16.2597C62.3331 16.0223 62.9785 15.1603 62.8282 14.2456V14.2544Z" fill="#11B67A"/>
<path d="M50.6719 66.7443C50.6719 62.9447 52.9086 59.4353 55.6758 58.9164L81.1818 54.079C81.5619 54.0086 81.9156 54.0438 82.2515 54.1405V54.1054L79.8556 53.3489C79.113 53.1115 78.3262 53.0675 77.5659 53.2082L53.2269 57.8258C50.4597 58.3535 48.223 61.854 48.223 65.6536C48.223 68.5033 49.4695 70.667 51.2289 71.397L53.7043 72.514H53.722C51.9449 71.8016 50.6719 69.6203 50.6719 66.7443Z" fill="#024731"/>
<path d="M75.9127 23.19C75.1171 22.7767 74.2064 22.3457 73.1455 21.8707C70.3164 20.6042 67.9559 20.0765 66.2142 19.8742C64.5345 19.6807 62.8282 19.883 61.2192 20.4107L58.5581 21.2727C57.5502 21.5981 57.1789 22.803 57.7978 23.665C57.895 23.8057 57.9834 23.9464 58.0541 24.0959C58.337 24.7204 58.0099 25.4593 57.3645 25.6791C56.4804 25.9782 55.3753 26.1804 54.5708 26.5762C52.9618 27.3766 53.28 28.951 53.28 28.951C53.28 29.9361 55.1632 30.8772 57.4706 30.7365C60.6268 30.543 63.5709 27.9483 70.7231 29.4611C72.1377 29.7602 73.5964 29.725 75.0021 29.3819L75.1701 29.338C78.1495 28.608 78.6446 24.5885 75.9216 23.1812L75.9127 23.19Z" fill="#6CF479"/>
<path d="M10.9587 57.7561C10.9587 57.7561 4.24849 67.5542 6.94496 81.1254C6.94496 81.1254 7.09525 73.1392 11.0294 75.3205C14.9636 77.5017 18.1021 81.1957 23.5039 77.2114C23.5039 77.2114 14.3271 78.733 14.2387 67.2727C14.168 57.8353 10.9587 57.7649 10.9587 57.7649V57.7561Z" fill="white"/>
<path d="M81.1289 66.3211C81.1289 66.3211 85.072 65.6703 86.6722 61.2374C86.6722 61.2374 88.0602 63.4891 86.7429 66.6818C86.7429 66.6818 91.4109 65.8814 93.8952 58.2646C93.8952 58.2646 94.1428 69.1357 84.2675 77.1306C84.2675 77.1306 87.3352 69.2412 81.1289 66.3211Z" fill="white"/>
<path d="M41.7603 22.6807L21.8242 16.1897C20.9754 15.9171 20.0736 15.8555 19.1984 16.0226L0.455679 19.5232C0.455679 19.5232 0.075532 19.5672 -0.0305587 19.8838C-0.136649 20.2092 0.234666 20.4819 0.685551 20.5874L19.9056 26.3308C19.9056 26.3308 19.9587 26.3396 19.9852 26.3484C20.2947 26.4276 21.4793 26.8585 21.5854 28.6879L22.275 42.1624C22.3811 44.1414 24.2112 45.575 26.165 45.2056L35.9961 43.341C38.224 42.9188 39.9391 41.1245 40.2574 38.8905L42.2466 23.1469C42.2908 22.8215 41.7603 22.6895 41.7603 22.6895V22.6807Z" fill="#6CF479"/>
<path d="M81.1818 54.0799L55.6758 58.9173C52.9086 59.4451 50.6719 62.9456 50.6719 66.7452C50.6719 70.1402 52.44 72.5589 54.721 72.7348L54.6768 66.1295L56.3035 65.5754L57.8507 71.9344L81.615 63.1215C83.2683 62.5059 84.506 60.3334 84.506 58.029C84.506 55.4959 83.0119 53.7281 81.173 54.0799H81.1818Z" fill="#6CF479"/>
<path d="M57.8949 64.644C57.7711 63.8524 57.2672 63.2807 56.5865 63.2807C55.7024 63.2807 54.8713 64.2042 54.7122 65.3652C54.6414 65.8753 54.7299 66.3415 54.9155 66.7109L59.1414 75.6294L60.556 74.9961L57.8949 64.6352V64.644Z" fill="white"/>
<path d="M62.3065 74.1318C62.1209 74.0615 61.9087 74.0615 61.7231 74.1318L57.7712 75.5039C57.2672 75.671 56.9048 76.2076 56.9048 76.8584C56.9048 77.5093 57.2407 77.993 57.7004 78.1865L63.2879 80.0775C63.5619 80.1742 63.8625 80.1654 64.1366 80.0599L67.4608 78.7582C67.7967 78.6263 68.0178 78.3008 68.0178 77.9402V76.7792C68.0178 76.4098 67.779 76.0756 67.4254 75.9525L62.3154 74.1494L62.3065 74.1318Z" fill="#11B67A"/>
<path d="M63.5973 80.1318C63.4736 80.1142 63.3763 80.0438 63.3056 79.9646C63.1199 79.7448 63.1111 79.4633 63.1464 79.2522C63.1818 79.0411 63.0668 78.8124 62.8547 78.7421L57.7623 77.0446C57.5059 76.9566 57.3291 76.8775 57.1965 76.5345C57.0816 76.2267 57.223 75.9012 57.2584 75.8484C57.0285 76.1035 56.8959 76.4553 56.8959 76.8599C56.8959 77.4756 57.2319 77.9945 57.6916 78.188L63.279 80.079C63.3851 80.1142 63.4912 80.1318 63.5885 80.1406L63.5973 80.1318Z" fill="#024731"/>
<path d="M2.64833 20.1725L20.5157 16.8303L38.2771 22.6704L21.4617 25.7928L2.64833 20.1725Z" fill="#00482F"/>
</g>
<defs>
<clipPath id="clip0_15980_15198">
<rect width="100" height="100" fill="white"/>
</clipPath>
</defs>
</svg>
