<svg width="100" height="100" viewBox="0 0 100 100" fill="none" xmlns="http://www.w3.org/2000/svg">
<path d="M7.13698 52.8296C7.13698 52.8296 8.68346 57.9552 14.9578 59.378C14.9578 59.378 10.2035 60.1998 10.1063 65.9086C10.1063 65.9086 8.43607 60.9598 2.41797 59.378C2.41797 59.378 7.44628 58.7859 7.13698 52.8385V52.8296Z" fill="white"/>
<path d="M57.3762 28.9762L11.7058 76.9443L51.1284 99.753C51.853 100.177 52.7721 100.045 53.3465 99.4349L97.2318 53.3314C97.6383 52.9072 97.5411 52.2179 97.0285 51.9175L57.3674 28.9762H57.3762Z" fill="#024731"/>
<path d="M95.6323 36.799L57.3762 28.9693L11.7058 76.9374L50.5805 84.8908C51.1902 85.0146 51.8265 84.8202 52.2596 84.3606L79.1952 56.0729L85.3724 55.4808C86.2296 55.4013 87.0249 55.0124 87.6258 54.4027L94.6955 47.1385C95.2257 46.5906 95.3583 45.7687 95.0313 45.0883L93.2286 41.3502L96.1095 38.319C96.6044 37.8065 96.3304 36.9493 95.6323 36.8079V36.799Z" fill="#11B67A"/>
<path d="M80.3882 6.16875C80.3882 6.16875 82.783 14.1134 92.5039 16.3138C92.5039 16.3138 85.1426 17.5864 84.9923 26.4235C84.9923 26.4235 82.4031 18.7617 73.0799 16.305C73.0799 16.305 80.8654 15.3771 80.3882 6.16875Z" fill="white"/>
<path d="M82.5091 64.5913C79.4161 60.2258 75.6603 56.5142 71.6836 53.81C76.058 58.8472 77.6221 64.6179 75.8017 69.0364C82.8272 76.2034 83.7021 85.5001 77.4984 90.5196C73.9724 93.374 68.8645 94.2488 63.5799 93.3563C68.7585 95.5567 74.105 95.9367 78.5501 93.9837C88.0059 89.8214 90.3389 75.6201 82.5003 64.5913H82.5091Z" fill="white"/>
<path d="M49.2106 61.578C49.2106 61.578 49.5553 64.0171 49.9087 66.1115C49.9087 66.1115 34.9297 66.8096 23.0084 64.998L31.5805 55.9399L49.2106 61.5868V61.578Z" fill="#024731"/>
<path d="M30.3257 0C39.5429 13.9362 62.4753 16.3046 62.4753 16.3046C43.1396 34.5179 51.4554 62.6201 51.4554 62.6201C51.4554 62.6201 10.0886 58.122 18.6342 41.7114L23.2117 34.2882L23.4681 24.6733L25.7745 6.15066L28.2578 2.13859L29.6099 0.645113L30.3257 0Z" fill="#6CF479"/>
<path d="M17.6798 44.0621C17.6798 44.0621 19.4648 35.87 31.342 34.1733C31.342 34.1733 18.9965 11.1702 30.3257 0C30.3257 0 21.3029 5.83253 21.2764 26.6971C21.2676 36.0733 17.6798 44.0621 17.6798 44.0621Z" fill="#024731"/>
</svg>
