<svg width="100" height="100" viewBox="0 0 100 100" fill="none" xmlns="http://www.w3.org/2000/svg">
<g clip-path="url(#clip0_15980_15227)">
<rect width="100" height="100" fill="#F1F1F1"/>
<path d="M98.1652 26.9796L85.3167 27.2899L61.5787 13.5355C60.0387 12.641 57.7697 12.9696 56.5486 14.2566L20.0624 52.663L0.0332031 66.0249V73.0435C0.0787654 73.8376 0.54351 74.5952 1.38186 75.0789L36.6197 95.496C38.1597 96.3904 40.4287 96.0618 41.6498 94.7749L97.3907 36.0975C97.9283 35.5316 98.1834 34.8744 98.1743 34.2446V26.9796H98.1652Z" fill="black"/>
<path d="M41.6498 87.5721C40.4196 88.8681 38.1597 89.1875 36.6197 88.2931L1.38187 67.876C-0.158139 66.9815 -0.413292 65.1926 0.807777 63.9057L56.5487 5.22824C57.7788 3.93221 60.0387 3.61278 61.5787 4.50723L96.8166 24.9243C98.3566 25.8188 98.6117 27.6076 97.3907 28.8945L41.6498 87.5721Z" fill="#11B67A"/>
<path d="M84.9248 53.9315C84.9248 53.9315 91.7955 56.3136 100.033 56.1493C100.033 56.1493 89.9731 58.3855 88.0868 64.1172C85.8907 70.78 91.4584 76.5117 91.4584 76.5117C91.4584 76.5117 79.0108 68.197 75.1471 78.6383C75.1471 78.6383 73.5069 82.6268 75.6939 88.8697C75.6939 88.8697 69.7708 79.3411 64.9321 74.951L84.9248 53.9315Z" fill="#006A4D"/>
<path d="M91.7227 34.8554L92.7706 33.751C83.7766 33.751 74.8373 34.8827 71.9577 35.2843C73.0603 32.5188 76.277 23.6839 76.9696 13.4251L75.9125 12.8136C75.2382 24.3502 71.2561 34.1708 70.6638 35.5764C60.2391 41.1256 49.0764 44.5756 40.9663 46.5835L34.3871 39.4097C36.7654 33.8422 39.563 26.9422 41.4857 21.0918L39.6906 22.9811C37.3395 29.7168 34.1046 37.3744 31.7718 42.6954L24.7917 43.5351C24.1538 42.732 23.4613 41.8284 22.7323 40.8427L21.9668 41.6458C23.0877 43.1518 24.1083 44.4478 25.0013 45.534L24.0991 51.5578L24.2723 51.5851C24.0809 51.7038 23.8895 51.8224 23.6982 51.9319C22.8325 52.4613 22.0033 52.9633 21.1649 53.4288C21.1649 53.4288 21.1467 53.4196 21.1376 53.4196L21.1194 53.4562C21.0009 53.5201 20.8824 53.5931 20.764 53.657C17.5017 55.4002 11.8247 56.6506 6.94952 57.4629L5.692 58.7863C10.8588 57.9831 17.3924 56.6506 21.1649 54.67C22.2129 55.2359 24.5092 56.4864 25.4387 57.0522C25.1015 58.0836 24.7552 59.197 24.4454 60.3927C23.5433 61.351 16.5905 68.826 12.8726 74.5395L13.8203 75.0871C17.7295 69.0998 25.2564 61.132 25.3384 61.0407L25.4387 60.9403L25.4751 60.8034C26.2132 57.9832 27.0789 55.6193 27.8352 53.803L31.7445 52.5435C34.214 55.1082 37.7952 59.48 40.2008 65.3213C40.3102 66.38 41.4219 78.09 40.4195 88.4217C40.8569 88.2301 41.2579 87.9745 41.5859 87.6459C42.3605 78.4733 41.5859 68.5249 41.3399 65.8324C43.8276 66.2157 52.53 67.6121 59.1274 69.182L60.0022 68.2693C52.9036 66.5352 42.9802 64.9745 41.1212 64.6915C39.2349 60.1828 36.7199 56.5776 34.5238 53.9673L38.4057 50.2161C47.7824 50.3986 62.8271 50.7729 75.9581 51.4665L76.9513 50.426C61.852 49.5955 43.9461 49.2121 34.9976 49.057C42.8526 47.4597 57.6967 43.745 71.2834 36.4891C72.2493 36.343 81.8265 34.9649 91.75 34.8554H91.7227ZM31.2524 43.8454C30.2956 46.0085 29.5302 47.6788 29.1201 48.5641C28.464 47.8795 27.2429 46.547 25.5936 44.5208L31.2524 43.8363V43.8454ZM25.7941 55.9843C24.9102 55.4641 23.361 54.6062 22.2858 54.0221C22.951 53.6387 23.6071 53.2462 24.2541 52.8446C25.466 52.0962 26.7144 51.3387 28.0357 50.6815C27.4525 51.8315 26.6324 53.6204 25.7941 55.9752V55.9843ZM25.2838 50.9553L25.9307 46.6474C27.0151 47.9252 27.8353 48.8105 28.3547 49.3399C27.2885 49.8236 26.2679 50.3803 25.2838 50.9553ZM28.4093 52.4613C28.8376 51.5212 29.2021 50.8093 29.4481 50.3621C29.7853 50.6542 30.2592 51.0831 30.8697 51.6673L28.4093 52.4613ZM36.8475 50.1796L33.7948 53.1276C32.592 51.7768 31.544 50.7546 30.7968 50.0792C32.0999 50.0974 34.1866 50.1248 36.8475 50.1796ZM30.2136 48.8197C30.8788 47.3593 32.2639 44.3109 33.9133 40.505L39.7543 46.8756C35.2437 47.9526 31.8174 48.5641 30.2136 48.8197Z" fill="#6CF479"/>
<path d="M78.8832 23.6316L72.9054 20.1268C72.2858 19.7617 72.1673 18.9129 72.6594 18.3926C73.352 17.6625 74.4454 17.5164 75.3111 18.0184L81.2889 21.5232C81.9177 21.8882 82.027 22.7462 81.5258 23.2665H81.5167C80.8242 23.9875 79.7398 24.1335 78.8832 23.6316Z" fill="#024731"/>
<path d="M30.3685 71.4636C30.2956 73.581 27.8991 75.3699 25.0104 75.4521C22.1218 75.5342 19.8437 73.8914 19.9257 71.7739C19.9986 69.6564 22.3952 67.8675 25.2838 67.7854C28.1724 67.7032 30.4506 69.3461 30.3685 71.4636Z" fill="#024731"/>
<path d="M69.633 17.5876C70.6191 17.4846 71.3576 16.8159 71.2825 16.094C71.2073 15.372 70.347 14.8702 69.3609 14.9732C68.3749 15.0761 67.6364 15.7448 67.7115 16.4668C67.7866 17.1887 68.6469 17.6905 69.633 17.5876Z" fill="#024731"/>
</g>
<defs>
<clipPath id="clip0_15980_15227">
<rect width="100" height="100" fill="white"/>
</clipPath>
</defs>
</svg>
