<svg width="100" height="100" viewBox="0 0 100 100" fill="none" xmlns="http://www.w3.org/2000/svg">
<g clip-path="url(#clip0_15980_15241)">
<rect width="100" height="100" fill="#F1F1F1"/>
<path d="M26.7676 89.9683C24.8957 88.7041 23.1184 87.303 21.4463 85.7755C23.1184 87.2925 24.8957 88.6936 26.7676 89.9683Z" fill="black"/>
<path d="M20.3423 14.9893C28.7869 7.26736 39.9553 2.5057 52.2068 2.295C50.5032 2.10538 48.7785 2 47.0328 2C35.0441 2 24.1176 6.4983 15.8202 13.9042L20.3528 14.9893H20.3423Z" fill="black"/>
<path d="M15.284 20.3741C16.1779 19.2574 17.1349 18.1934 18.1234 17.161L13.5383 16.0655C12.5392 17.0873 11.5822 18.1407 10.6778 19.2469L15.284 20.3741Z" fill="black"/>
<path d="M4.47303 50.9237C4.47303 41.7902 7.00749 33.236 11.3928 25.9249L6.76559 24.7977C2.49595 31.8876 0.0351562 40.1889 0.0351562 49.0696C0.0351562 67.1788 10.2571 82.8965 25.2219 90.766C12.6864 81.959 4.47303 67.3895 4.47303 50.9132V50.9237Z" fill="black"/>
<path d="M53.0376 3.8518C59.9994 3.8518 66.5932 5.37931 72.535 8.10779C71.3887 23.6991 64.9106 38.985 53.0376 50.9313C52.9955 34.0653 46.7909 18.6741 36.59 6.83314C41.7115 4.91582 47.2536 3.86235 53.0376 3.86235V3.8518Z" fill="#11B67A"/>
<path d="M6.05049 50.9214C6.05049 43.9475 7.5754 37.3422 10.2991 31.3901C25.8634 32.5384 41.1226 39.0278 53.0481 50.9214C36.2114 50.9636 20.847 57.1791 9.02663 67.3977C7.11266 62.2673 6.06101 56.7155 6.06101 50.9214H6.05049Z" fill="#11B67A"/>
<path d="M53.0375 98C46.0756 98 39.4819 96.4725 33.5401 93.744C34.6864 78.1527 41.1645 62.8668 53.0375 50.9205C53.0795 67.7865 59.2842 83.1777 69.4851 95.0187C64.3636 96.936 58.8215 97.9895 53.0375 97.9895V98Z" fill="#11B67A"/>
<path d="M100.035 50.9198C100.035 57.8938 98.5103 64.4991 95.7866 70.4512C80.2224 69.3029 64.963 62.8141 53.0375 50.9205C69.8742 50.8783 85.2387 44.6622 97.0591 34.4436C98.973 39.5739 100.025 45.1257 100.025 50.9198H100.035Z" fill="#11B67A"/>
<path d="M19.8165 17.648C24.7382 12.7177 30.48 9.1254 36.6006 6.83937C46.8014 18.6804 52.9956 34.0715 53.0377 50.927C41.1016 39.0334 25.8529 32.544 10.2781 31.3957C12.5497 26.4128 15.7151 21.746 19.8165 17.6374V17.648Z" fill="#6CF479"/>
<path d="M19.8165 84.216C14.8948 79.2858 11.3087 73.5338 9.0267 67.4027C20.8471 57.184 36.2115 50.9791 53.0377 50.9369C41.1647 62.8938 34.6866 78.1691 33.5403 93.771C28.5661 91.4955 23.9074 88.3246 19.806 84.216H19.8165Z" fill="#6CF479"/>
<path d="M86.2695 84.216C81.3479 89.1463 75.6059 92.7386 69.4854 95.0246C59.2845 83.1836 53.0904 67.7924 53.0483 50.9369C64.9844 62.8306 80.2331 69.3199 95.8079 70.4682C93.5363 75.4511 90.3709 80.118 86.2695 84.2265V84.216Z" fill="#6CF479"/>
<path d="M86.2695 17.6453C91.1912 22.5756 94.7773 28.3275 97.0593 34.4587C85.2389 44.6773 69.8745 50.8823 53.0483 50.9244C64.9213 38.9675 71.3994 23.6922 72.5457 8.09037C77.5199 10.3659 82.1787 13.5368 86.2801 17.6453H86.2695Z" fill="#6CF479"/>
<path d="M48.5366 20.6638C40.3338 19.9685 35.8222 15.9338 35.8222 15.9338C30.5115 17.9459 25.695 21.4434 22.0458 26.3315C18.4808 31.1037 16.5037 36.5712 16.02 42.0914C16.977 39.0152 18.4598 36.0445 20.4894 33.316C26.9465 24.6776 37.9255 20.3478 48.5366 20.6533V20.6638Z" fill="#006A4D"/>
<path d="M63.5328 78.9625C71.4411 77.9827 76.4995 80.9114 76.4995 80.9114C81.1267 77.9512 84.9967 73.6846 87.4786 68.3224C89.9078 63.0972 90.6861 57.5349 90.0551 52.2044C89.7606 55.3121 88.9509 58.4093 87.5627 61.4011C83.1669 70.8718 73.6391 77.1505 63.5328 78.9625Z" fill="#006A4D"/>
</g>
<defs>
<clipPath id="clip0_15980_15241">
<rect width="100" height="100" fill="white"/>
</clipPath>
</defs>
</svg>
