<svg width="100" height="100" viewBox="0 0 100 100" fill="none" xmlns="http://www.w3.org/2000/svg">
<rect width="100" height="100" fill="#F1F1F1"/>
<path d="M54.1175 61.5261L33.3197 83.3875C26.5756 90.4692 15.856 92.0138 7.39 87.1182C-0.898731 82.3239 -2.51935 71.0472 4.08125 64.109L24.8791 42.2476C31.6232 35.1659 42.3428 33.6213 50.8088 38.5169C59.0975 43.3112 60.7181 54.5879 54.1175 61.5261Z" fill="black"/>
<path d="M54.1175 55.3902L33.3197 77.2515C26.5756 84.3332 15.856 85.8778 7.39 80.9822C-0.898731 76.188 -2.51935 64.9112 4.08125 57.973L24.8791 36.1117C31.6232 29.03 42.3428 27.4853 50.8088 32.3809C59.0975 37.1752 60.7181 48.4519 54.1175 55.3902Z" fill="#11B67A"/>
<path d="M53.8146 38.677C53.8146 38.677 49.5437 46.9404 50.9364 59.4748L53.3082 59.5676L56.0514 53.9377C56.0514 53.9377 52.5316 45.4126 53.8231 38.677H53.8146Z" fill="black"/>
<path d="M31.3093 65.7461C22.4382 65.7461 15.213 60.4538 15.213 53.9545C15.213 47.4552 22.4298 42.1629 31.3093 42.1629C40.1889 42.1629 47.4057 47.4552 47.4057 53.9545C47.4057 60.4538 40.1889 65.7461 31.3093 65.7461ZM31.3093 43.4374C23.1303 43.4374 16.4791 48.1558 16.4791 53.9629C16.4791 59.7701 23.1303 64.4885 31.3093 64.4885C39.4883 64.4885 46.1396 59.7701 46.1396 53.9629C46.1396 48.1558 39.4883 43.4374 31.3093 43.4374Z" fill="#035D3D"/>
<path d="M46.7349 38.8623C48.553 38.8623 50.0268 37.8004 50.0268 36.4905C50.0268 35.1806 48.553 34.1187 46.7349 34.1187C44.9169 34.1187 43.4431 35.1806 43.4431 36.4905C43.4431 37.8004 44.9169 38.8623 46.7349 38.8623Z" fill="#00482F"/>
<path d="M37.7675 55.0858L29.0567 50.4688C28.8457 50.359 28.7697 50.148 28.8963 50.0045L30.4241 48.2995C31.5636 47.0334 33.9692 46.6367 35.978 47.5145C38.2823 48.5274 39.1011 50.646 37.8265 52.0641L38.8394 52.6042C40.0211 51.2875 39.8776 49.4221 38.3583 48.021C35.7501 45.6069 31.3441 45.6154 29.504 47.658L27.8834 49.4643C27.7568 49.6078 27.4783 49.6331 27.2588 49.515L26.8705 49.3124C26.018 48.8566 24.8954 48.9494 24.389 49.5234L20.6751 53.6593C20.1687 54.2249 20.4472 55.0605 21.2997 55.5163L32.1882 61.2897C33.0407 61.7455 34.1633 61.6527 34.6697 61.0787L38.3836 56.9428C38.8901 56.3772 38.6115 55.5416 37.759 55.0858H37.7675ZM33.6653 60.5469C33.488 60.7411 33.0913 60.7748 32.7959 60.6229L21.9074 54.8495C21.612 54.6891 21.5107 54.3937 21.688 54.1995L25.4019 50.0636C25.5791 49.8695 25.9758 49.8357 26.2713 49.9876L37.1597 55.7611C37.4551 55.9215 37.5564 56.2169 37.3792 56.411L33.6653 60.5469Z" fill="white"/>
<path d="M23.7075 78.2554C22.1544 78.7028 20.4663 78.956 18.7022 78.956C11.6458 78.956 5.81326 75.048 4.91855 70.0005L3.26416 70.2959C4.31081 76.1368 10.8101 80.6357 18.7022 80.6357C20.6688 80.6357 22.5426 80.3403 24.2814 79.8338L23.7075 78.247V78.2554Z" fill="#00482F"/>
<path d="M18.8649 77.091C20.3505 77.091 21.7685 76.8631 23.0684 76.4664L22.5028 74.8796C21.3802 75.2087 20.1563 75.3944 18.8733 75.3944C13.9356 75.3944 9.85869 72.6934 9.25097 69.2159L7.5966 69.5113C8.34782 73.7823 13.0999 77.0741 18.8733 77.0741L18.8649 77.091Z" fill="#00482F"/>
<path d="M19.0234 73.343C20.0025 73.343 20.931 73.1826 21.7751 72.8956L21.2011 71.3003C20.5343 71.5282 19.7915 71.6548 19.0234 71.6548C16.3815 71.6548 14.1278 70.1862 13.9084 68.3883L12.2456 68.6922C12.6254 71.3088 15.5121 73.3514 19.0234 73.3514V73.343Z" fill="#00482F"/>
<path d="M89.4357 39.5636C81.9572 30.2873 70.7818 26.4805 62.5184 29.7471L61.2439 29.536C61.2439 29.536 58.6695 31.9585 58.5935 32.026C50.3048 38.711 50.6846 52.9251 59.4291 63.7714C68.1821 74.6177 81.991 77.9939 90.2798 71.3089C90.744 70.9375 95.0403 66.9535 95.0403 66.9535L94.787 65.2485C97.8848 57.9051 96.0616 47.7679 89.4441 39.5636H89.4357Z" fill="#024731"/>
<path d="M56.6137 45.7419L52.8069 48.7552C52.9589 49.9791 53.2121 51.2283 53.5581 52.4691L57.4155 49.422C57.061 48.1897 56.7994 46.9658 56.6221 45.7419H56.6137Z" fill="#006A4D"/>
<path d="M56.3794 41.4539L52.6487 44.4082C52.6065 45.1256 52.598 45.8431 52.6233 46.5774L56.3963 43.5894C56.3541 42.872 56.3457 42.1545 56.371 41.4539H56.3794Z" fill="#006A4D"/>
<path d="M94.0223 67.8515C102.31 61.1669 101.934 46.9531 93.1829 36.1042C84.432 25.2552 70.6198 21.8794 62.3325 28.564C54.0453 35.2486 54.4211 49.4624 63.1719 60.3113C71.9228 71.1603 85.735 74.5361 94.0223 67.8515Z" fill="#6CF479"/>
<path d="M69.2996 36.0158C70.0582 34.9479 69.6195 33.3337 68.3198 32.4104C67.0201 31.4871 65.3515 31.6043 64.5929 32.6722C63.8343 33.7401 64.2729 35.3543 65.5726 36.2776C66.8723 37.2009 68.5409 37.0837 69.2996 36.0158Z" fill="#00482F"/>
<path d="M69.5316 50.6623C69.8355 49.9448 69.1349 49.2696 69.1349 49.2696C68.5778 48.7041 67.6156 48.5521 67.1598 49.6325C66.704 50.7214 67.3961 51.2278 67.3961 51.2278C67.9701 51.8187 69.2277 51.3798 69.5316 50.6623Z" fill="#00482F"/>
<path d="M81.197 35.1655C80.1419 35.6466 80.2938 36.6258 80.8509 37.1913C80.8509 37.1913 81.5092 37.9003 82.2098 37.588C82.9104 37.2757 83.3324 35.9843 82.75 35.3934C82.75 35.3934 82.252 34.6844 81.197 35.1655Z" fill="#00482F"/>
<path d="M81.8265 38.7103L81.6998 38.6427C79.8766 37.5792 78.1716 36.7605 77.049 36.254C76.1881 35.8658 75.2681 35.9502 74.6181 36.4566C73.4702 37.3513 72.3476 38.3473 71.2756 39.453C70.2037 40.5588 69.2414 41.7151 68.372 42.8968C67.8825 43.5636 67.8065 44.5006 68.1948 45.3868C68.7012 46.5432 69.5115 48.282 70.5497 50.1389L70.6173 50.2655C70.6088 50.6538 70.575 51.7764 71.2587 53.3801C71.5035 53.9541 71.8749 54.4859 72.3223 54.9417L72.4995 55.1189L77.1166 59.8204L78.6528 61.3903C79.0748 61.8208 79.7079 61.8799 80.0624 61.5169L81.3453 60.2002C81.6998 59.8372 81.6408 59.1873 81.2187 58.7568L79.6825 57.1869L88.6381 47.9444L90.1743 49.5143C90.5963 49.9448 91.2294 50.0039 91.5839 49.6409L92.8669 48.3242C93.2214 47.9612 93.1623 47.3113 92.7402 46.8808L91.204 45.3109L86.587 40.6094L86.4097 40.4322C85.9624 39.9764 85.4391 39.605 84.882 39.3518C83.312 38.6596 82.2231 38.7018 81.8349 38.7103H81.8265ZM69.368 45.0323C69.1823 44.6018 69.2161 44.1461 69.4609 43.8084C70.3218 42.6267 71.2672 41.5041 72.2716 40.4744C73.2761 39.4446 74.3649 38.4655 75.5128 37.5708C75.842 37.3175 76.2894 37.2753 76.703 37.461C77.5217 37.8324 78.6865 38.3895 79.978 39.0901C80.3325 39.2842 80.4253 39.7485 80.1552 39.9595C78.619 41.1581 77.125 42.4832 75.6901 43.9604C74.2552 45.4375 72.9806 46.9821 71.8158 48.5605C71.6132 48.8391 71.1574 48.7378 70.9717 48.3833C70.2796 47.0665 69.731 45.8764 69.368 45.0408V45.0323ZM75.3356 51.903C75.5466 53.1016 74.9979 54.0807 74.1032 54.0807C73.2085 54.0807 72.3138 53.1185 72.1028 51.9199C71.8918 50.7213 72.4404 49.7422 73.3352 49.7422C74.2299 49.7422 75.1246 50.7045 75.3356 51.903ZM84.0885 47.9106L79.6066 52.5276C79.0748 53.0763 78.1294 52.9919 77.4879 52.3419L83.886 45.7413C84.5275 46.3913 84.6119 47.3619 84.0801 47.9106H84.0885ZM85.5657 42.2638C85.5657 43.1754 84.6203 43.7493 83.447 43.5383C82.2738 43.3273 81.3285 42.4157 81.3285 41.5041C81.3285 40.5925 82.2738 40.0186 83.447 40.2296C84.6203 40.4406 85.5657 41.3522 85.5657 42.2638Z" fill="black"/>
<path d="M91.7281 37.3778C86.7144 31.3174 80.1391 27.9833 73.7833 26.9366C73.7833 26.9366 88.4616 31.3849 87.4825 43.8011C87.4825 43.8011 95.5433 42.1636 97.7548 50.3679C97.1217 46.1729 95.1719 41.5306 91.7281 37.3693V37.3778Z" fill="white"/>
<path d="M68.566 24.2518C68.0342 19.8711 65.8818 15.9631 62.6575 13.5237C59.9565 11.4811 56.6984 10.637 53.4909 11.1435C46.2404 12.2829 41.1676 19.9977 42.1805 28.3287C42.6953 32.5406 44.7126 36.2967 47.726 38.7444C48.7388 38.5081 49.5323 37.9341 49.853 37.1914C49.7771 37.1323 49.6926 37.0901 49.6167 37.031C46.941 35.0052 45.1431 31.7218 44.6958 28.0248C43.8432 21.0275 47.9707 14.5872 53.8877 13.6503C54.3603 13.5744 54.833 13.5406 55.3057 13.5406C57.3568 13.5406 59.3825 14.2327 61.1297 15.5579C63.8054 17.5837 65.6033 20.8671 66.0507 24.5641C66.4474 27.8644 65.7383 31.0297 64.2528 33.5619C64.1262 34.4903 64.582 35.5285 65.5104 36.2207C67.8738 33.0217 69.1062 28.7338 68.566 24.2518Z" fill="white"/>
<path d="M67.5298 22.5209C66.9643 20.3939 66.1202 18.7226 65.1749 17.3974C62.094 13.0674 56.2869 11.6747 51.577 14.1309C49.872 15.0172 48.9097 15.9878 48.9097 15.9878L49.0616 16.0132C50.4459 14.823 52.0918 14.0127 53.9066 13.7257C56.405 13.329 58.9541 14.0043 61.0896 15.608C63.7484 17.6169 65.5294 20.8834 65.9767 24.5636C66.365 27.7541 65.7066 30.8266 64.3139 33.3081C64.1029 34.1184 64.373 35.0553 65.0483 35.7812C66.1624 34.1944 69.2686 29.0118 67.5382 22.5209H67.5298Z" fill="#11B67A"/>
</svg>
