<svg width="100" height="100" viewBox="0 0 100 100" fill="none" xmlns="http://www.w3.org/2000/svg">
<path d="M18.3641 73.7512C17.2901 71.8934 16.4435 69.9806 15.8085 68.0679L6.55849 73.4063C4.42628 74.637 4.13624 78.1254 5.82947 81.0572C7.08371 83.2286 9.07484 84.4828 10.8856 84.4828C11.5206 84.4828 12.132 84.3339 12.6808 84.0125L21.9073 78.6898C20.5982 77.2004 19.4066 75.5542 18.3641 73.7512Z" fill="#11B67A"/>
<path d="M18.3962 73.8063L5.83027 81.0653C7.5235 83.9971 10.5494 85.2513 12.6816 84.0206L21.9081 78.6979C20.6147 77.2241 19.4309 75.5936 18.3962 73.8142V73.8063Z" fill="black"/>
<path d="M10.8866 85.6588C8.56621 85.6588 6.23802 84.1224 4.81132 81.6453C3.87064 80.0147 3.43166 78.1804 3.58844 76.4872C3.74522 74.794 4.47424 73.43 5.64226 72.6069C5.38357 72.5677 5.12485 72.5363 4.874 72.5363C4.04306 72.5363 3.24349 72.7323 2.53014 73.1478C-0.378135 74.8253 -0.84845 79.4582 1.47974 83.4953C3.23568 86.5368 6.08123 88.3711 8.62108 88.3711C9.45201 88.3711 10.2516 88.1752 10.9649 87.7597C11.9605 87.1875 12.666 86.2546 13.0736 85.1258C12.4073 85.4707 11.6704 85.6588 10.8944 85.6588H10.8866Z" fill="#11B67A"/>
<path d="M14.9928 75.6167C13.2995 72.6849 13.6523 69.3063 15.7845 68.0756L10.4853 71.1406C8.35312 72.3714 8.00035 75.75 9.69358 78.6818C11.3868 81.6136 14.491 82.9932 16.6232 81.7625L21.3502 79.0345C19.2729 79.7244 16.5371 78.282 15.0006 75.6167H14.9928Z" fill="#6CF479"/>
<path d="M47.2125 57.0931C43.4028 50.5005 42.3837 43.2808 43.9045 37.5348L27.0741 47.2552C20.6069 50.9865 19.5329 61.2243 24.6675 70.1138C28.5243 76.8004 34.8034 80.8219 40.4239 80.8219C42.2818 80.8219 44.0691 80.3829 45.6683 79.4578L62.4751 69.7532C56.6272 68.1775 50.9439 63.5525 47.2125 57.0931Z" fill="#6CF479"/>
<path d="M46.2548 80.4697C44.5067 81.481 42.5391 81.9905 40.4225 81.9905C34.1984 81.9905 27.6136 77.5536 23.647 70.6945C18.1989 61.2563 19.4688 50.2817 26.4847 46.2289L29.1343 44.7003C28.8286 44.6768 28.5229 44.6611 28.225 44.6611C26.0615 44.6611 23.9841 45.1706 22.1184 46.2446C14.5459 50.6109 13.323 62.6673 19.3826 73.1559C23.9449 81.0655 31.3449 85.8316 37.9532 85.8316C40.1168 85.8316 42.1941 85.3221 44.0598 84.2481C46.192 83.0174 47.8226 81.1753 48.92 78.9333L46.2548 80.4697Z" fill="#11B67A"/>
<path d="M52.5349 32.3076C49.7678 33.9067 48.0197 37.0188 47.6042 41.0716C47.1574 45.5085 48.3411 50.4314 50.9436 54.9388C54.7769 61.5785 61.15 66.0467 66.802 66.0467C68.4717 66.0467 70.0003 65.6548 71.3408 64.8787C77.2984 61.4374 78.0274 51.0742 72.9321 42.2474C69.0988 35.6078 62.7257 31.1395 57.0816 31.1395C55.4119 31.1395 53.8832 31.5315 52.5428 32.3076H52.5349Z" fill="black"/>
<path d="M43.2509 41.9092L21.9993 54.1772C20.7686 58.6455 21.4897 64.2817 24.3353 69.5182C23.5671 65.9201 24.1863 59.061 31.1709 55.0239L43.6977 47.7884C43.3057 45.7738 43.1646 43.7984 43.2509 41.9014V41.9092Z" fill="white"/>
<path d="M55.4949 66.3595L33.4751 78.9254C37.6219 81.1517 42.0902 81.5123 45.6648 79.4506L62.4716 69.7459C60.0807 69.1031 57.7133 67.9351 55.5027 66.3516L55.4949 66.3595Z" fill="black"/>
<path d="M70.9965 43.3587C66.6224 35.7783 58.603 31.8745 53.492 34.8298C53.2411 34.9787 53.006 35.1434 52.7787 35.3158C57.8975 33.1444 65.3446 37.0169 69.5071 44.221C73.6696 51.425 73.3012 59.8128 68.8564 63.16C69.123 63.0503 69.3817 62.9327 69.6404 62.7837C74.7514 59.8284 75.3785 50.9312 71.0044 43.3587H70.9965Z" fill="#00482F"/>
<path d="M57.0763 31.1395C62.7204 31.1395 69.0935 35.5999 72.9268 42.2474C75.5293 46.7549 76.713 51.6778 76.2662 56.1147C75.8507 60.1674 74.1027 63.2795 71.3433 64.8787C70.0029 65.6548 68.4742 66.0467 66.8045 66.0467C61.1526 66.0467 54.7873 61.5863 50.9462 54.9388C48.3436 50.4314 47.1599 45.5085 47.6068 41.0716C48.0222 37.0188 49.7703 33.9067 52.5297 32.3076C53.8702 31.5315 55.3987 31.1395 57.0685 31.1395M57.0763 28.0039C54.9127 28.0039 52.8354 28.5135 50.9697 29.5874C43.3972 33.9537 42.1743 46.0102 48.2339 56.4988C52.7962 64.4084 60.1962 69.1745 66.8045 69.1745C68.9681 69.1745 71.0454 68.6649 72.9111 67.591C80.4836 63.2247 81.7065 51.1682 75.6469 40.6796C71.0846 32.7701 63.6846 28.0039 57.0763 28.0039Z" fill="#11B67A"/>
<path d="M70.9965 43.3587C66.6224 35.7783 58.603 31.8745 53.492 34.8298C53.2411 34.9787 53.006 35.1434 52.7787 35.3158C57.8975 33.1444 65.3446 37.0169 69.5071 44.221C73.6696 51.425 73.3012 59.8128 68.8564 63.16C69.123 63.0503 69.3817 62.9327 69.6404 62.7837C74.7514 59.8284 75.3785 50.9312 71.0044 43.3587H70.9965Z" fill="#00482F"/>
<path d="M68.945 28.0337L68.8901 28.3316C68.8666 28.5589 68.8117 28.7784 68.7098 29.0293C68.6862 29.0685 68.6706 29.0998 68.6549 29.1312L68.6236 29.2017C68.5687 29.3036 68.5216 29.4055 68.4668 29.4761C68.4511 29.4996 68.4198 29.5231 68.3962 29.5466C68.3649 29.578 68.3335 29.6015 68.31 29.6329L68.2394 29.7034C68.1767 29.7661 68.1219 29.8288 68.0513 29.8837C68.0121 29.9072 67.9729 29.9308 67.9259 29.9543C67.8867 29.9778 67.8475 29.9935 67.8083 30.017L67.7064 30.0797C67.628 30.1267 67.5575 30.1816 67.4634 30.213C66.946 30.4246 66.4051 30.4952 65.8407 30.5657L65.5977 30.5971C65.3547 30.6284 65.1117 30.6676 64.8765 30.7068L64.6727 30.746C64.3748 30.8087 64.1083 30.8793 63.9515 30.9655L63.881 30.9812C63.881 30.9812 63.8261 31.0047 63.8026 31.0204C63.9045 30.4011 63.881 29.7818 63.732 29.1469C63.6458 28.7863 63.5125 28.4178 63.3401 28.0415C63.2225 27.7907 63.0892 27.532 62.9246 27.2576L66.4835 25.7604L66.311 25.3449C66.2718 25.243 66.2327 25.1568 66.1935 25.0627L66.1229 24.8981L66.0602 24.757C66.021 24.6708 65.974 24.6159 65.9348 24.5924L65.8407 24.5297L65.7701 24.514C65.6917 24.4983 65.6055 24.514 65.5742 24.5218C65.5428 24.5218 65.4958 24.5453 65.4331 24.5689L64.1788 25.0941C63.4733 25.3919 61.929 26.0112 61.929 26.0112V25.9956C61.6625 25.7055 61.4038 25.4155 61.1686 25.1019C60.8864 24.7335 60.6826 24.4043 60.5337 24.0593C60.0006 22.86 60.3534 21.739 61.4352 21.1354C61.6625 21.0099 61.9055 20.9237 62.1329 20.8453C62.2426 20.8061 62.3523 20.7748 62.4621 20.7434C62.6346 20.7042 62.8148 20.6807 62.9873 20.6572H63.0814C63.1597 20.6415 63.2382 20.6337 63.3087 20.6337C63.5047 20.6337 63.7007 20.6572 63.8888 20.6885L64.0142 20.7042C64.0691 20.7042 64.1161 20.7121 64.171 20.7277C64.4846 20.7983 64.7668 20.8924 65.049 21.0256C65.1038 21.0492 65.1587 21.0727 65.2292 21.0962L65.9426 21.3705L65.6996 20.7826C65.6055 20.5631 65.5193 20.3515 65.4252 20.1476C65.2214 19.6773 65.0333 19.2383 64.8765 18.7837C64.7119 18.3133 64.4062 18.0625 63.9201 18.0076L63.8496 17.9449L63.7556 17.9841C63.3166 17.9449 62.8697 17.9371 62.3837 17.9841L62.2034 17.9998C61.7722 18.0468 61.349 18.1409 60.91 18.282L60.6121 18.3839C60.3848 18.4544 60.1731 18.572 59.9693 18.6974L59.7968 18.7993C59.7498 18.8229 59.7028 18.8464 59.6636 18.8699C59.5773 18.9169 59.4832 18.964 59.4049 19.0188C58.9815 19.301 58.6131 19.6146 58.276 19.9595C57.0688 21.2138 56.7396 22.8051 57.3197 24.5689C57.453 24.9765 57.6411 25.3841 57.8841 25.7996C58.0879 26.1367 58.3231 26.4894 58.6366 26.8892C58.7386 27.0225 58.8326 27.1479 58.9424 27.2812C58.715 27.3752 58.4956 27.4693 58.2604 27.5634C58.182 27.5947 58.1349 27.6418 58.1271 27.6574L58.0252 27.728L57.9938 27.7985C57.9468 27.8926 57.939 27.9945 57.9703 28.1043V28.1199L58.0095 28.214C58.0801 28.3551 58.135 28.4962 58.1977 28.653L58.4015 29.139L59.9066 28.504C60.1261 28.7862 60.322 29.0841 60.4866 29.3899C60.6591 29.7034 60.8002 30.0326 60.9021 30.3619C61.1138 31.0282 61.2 31.7416 61.1608 32.4706C61.1451 32.7136 61.1059 32.9488 61.0746 33.1918L61.0511 33.3486C61.004 33.6778 60.9492 34.007 60.8943 34.3363C60.8473 34.6028 60.808 34.8693 60.7688 35.1359C60.761 35.1986 60.7453 35.2613 60.7297 35.3397L60.5415 36.296L61.2705 35.6532C61.3176 35.614 61.3568 35.5827 61.3881 35.5513C61.9134 35.0183 62.4621 34.6263 63.0814 34.3441C63.3714 34.2109 63.6772 34.1246 63.9907 34.0227C64.0534 34.007 64.1083 33.9835 64.171 33.96C64.2337 33.9365 64.2964 33.913 64.3591 33.8973C64.7119 33.8032 65.1038 33.7248 65.582 33.6386H65.5899C66.0053 33.5602 66.4287 33.4583 66.8912 33.325C66.9774 33.3015 67.0636 33.2702 67.1577 33.2388L67.4555 33.1369C67.7848 33.0272 68.114 32.8861 68.4197 32.7293C68.7333 32.5647 69.0077 32.3687 69.2272 32.1414C69.4702 31.8905 69.6661 31.6005 69.7916 31.2712C70.0894 30.55 69.9876 29.8445 69.8621 29.3036C69.7994 29.0136 69.7054 28.7314 69.6191 28.4492L69.4466 27.8926L69.2272 27.9161L68.945 28.0102V28.0337Z" fill="#6CF479"/>
<path d="M89.7989 31.6486L89.6264 31.8681C89.5089 32.0484 89.3756 32.2052 89.1796 32.3619C89.1483 32.3855 89.1169 32.4011 89.0856 32.4246L89.0229 32.4717C88.9367 32.5344 88.8583 32.5971 88.7799 32.6285C88.7564 32.6441 88.725 32.6441 88.6936 32.652C88.6544 32.6598 88.6153 32.6755 88.5839 32.6833L88.4976 32.7147C88.4192 32.7382 88.3409 32.7696 88.2625 32.7852C88.2233 32.7852 88.1763 32.7852 88.1292 32.7852C88.09 32.7852 88.0508 32.7852 88.0116 32.7852H87.9019C87.8157 32.7931 87.7373 32.8087 87.6432 32.7931C87.1337 32.7539 86.6555 32.5814 86.1616 32.4011L85.95 32.3227C85.7383 32.2443 85.5266 32.1738 85.315 32.1111L85.1347 32.0562C84.8603 31.9856 84.6173 31.9229 84.4527 31.9308L84.39 31.9151C84.39 31.9151 84.3351 31.9151 84.3116 31.9151C84.6565 31.4526 84.8995 30.9352 85.0406 30.3473C85.119 30.0181 85.1661 29.6575 85.1896 29.2734C85.1974 29.0147 85.1974 28.7481 85.1817 28.4581L88.7328 28.7325L88.7642 28.317C88.772 28.2151 88.7798 28.1288 88.7877 28.0348L88.8034 27.8702V27.7291C88.8034 27.6428 88.7956 27.5723 88.7799 27.5409L88.725 27.4547L88.6701 27.4155C88.6074 27.3685 88.5368 27.345 88.5055 27.3371C88.4741 27.3371 88.4349 27.3214 88.3722 27.3136L87.118 27.2195C86.4125 27.1647 84.8839 27.0314 84.8839 27.0314V27.0157C84.7898 26.6708 84.7036 26.318 84.633 25.9653C84.5546 25.542 84.5311 25.1892 84.5468 24.8443C84.6173 23.6371 85.3699 22.861 86.5222 22.8218C86.7652 22.8218 87.0004 22.8454 87.2199 22.8767C87.3296 22.8924 87.4315 22.9081 87.5334 22.9316C87.6981 22.9708 87.847 23.0257 87.996 23.0805L88.0743 23.1119C88.1449 23.1354 88.2076 23.1668 88.2703 23.1981C88.4271 23.2765 88.5839 23.3862 88.725 23.4882L88.8191 23.5509C88.8583 23.5822 88.8974 23.6057 88.9366 23.6371C89.1639 23.8252 89.3599 24.029 89.5324 24.2485C89.5637 24.2956 89.603 24.3348 89.65 24.3818L90.1282 24.907L90.1752 24.3269C90.1909 24.1074 90.2065 23.8958 90.2144 23.692C90.2457 23.2216 90.2693 22.7748 90.332 22.3437C90.3947 21.889 90.2457 21.5519 89.8773 21.3089L89.846 21.2305H89.7519C89.407 21.0032 89.0464 20.815 88.6309 20.6426L88.4741 20.5799C88.1057 20.4388 87.7138 20.3369 87.2983 20.2742L87.0082 20.2271C86.7888 20.1879 86.5692 20.1958 86.3497 20.2114L86.1616 20.2271C86.1146 20.2271 86.0676 20.2271 86.0205 20.2271C85.9265 20.2271 85.8402 20.2271 85.7462 20.235C85.2758 20.2898 84.8447 20.3839 84.4214 20.5329C82.9084 21.0502 81.9599 22.2261 81.7012 23.9193C81.6385 24.3112 81.6228 24.7189 81.6463 25.1657C81.6699 25.5263 81.7169 25.9183 81.8031 26.3808C81.8266 26.5297 81.858 26.6786 81.8893 26.8354C81.662 26.8197 81.4504 26.8041 81.2152 26.7806C81.1368 26.7806 81.0819 26.7962 81.0741 26.8041L80.9643 26.8197L80.9095 26.8589C80.8311 26.9138 80.784 27 80.7605 27.102H80.7527V27.2038C80.7527 27.3449 80.737 27.4939 80.7213 27.6428L80.6822 28.1289L82.1872 28.2464C82.2499 28.5678 82.2813 28.8971 82.297 29.2185C82.297 29.5477 82.2813 29.8769 82.2343 30.1905C82.1324 30.8255 81.905 31.4448 81.5601 32.0327C81.4425 32.2287 81.3171 32.409 81.1839 32.5893L81.0976 32.7069C80.9173 32.9577 80.737 33.2007 80.5567 33.4515C80.4078 33.6475 80.2588 33.8514 80.1177 34.0552C80.0864 34.1022 80.0472 34.1492 80.0002 34.2041L79.4436 34.9096L80.3137 34.6901C80.3686 34.6744 80.4156 34.6666 80.447 34.6509C81.0976 34.4393 81.7169 34.3452 82.344 34.3687C82.6341 34.3766 82.9241 34.4314 83.222 34.4863C83.2769 34.4941 83.3396 34.502 83.3945 34.5098C83.4572 34.5177 83.512 34.5255 83.5748 34.5412C83.904 34.6117 84.2567 34.7136 84.6879 34.8391H84.6957C85.072 34.9567 85.464 35.0507 85.8951 35.1291C85.9813 35.1448 86.0675 35.1526 86.1459 35.1683L86.436 35.2153C86.7574 35.2624 87.0788 35.2859 87.4002 35.2859C87.7294 35.2859 88.0351 35.2388 88.3095 35.1448C88.6152 35.0429 88.8974 34.8861 89.1404 34.6744C89.6813 34.2041 89.9008 33.5848 90.0263 33.091C90.0968 32.8244 90.1438 32.5579 90.183 32.2914L90.2771 31.7583L90.0811 31.6799L89.8068 31.6329L89.7989 31.6486Z" fill="#11B67A"/>
<path d="M98.5194 60.2606L98.5429 60.5271C98.5743 60.7231 98.5821 60.9191 98.5429 61.1543C98.5351 61.1856 98.5194 61.2248 98.5194 61.2562L98.5037 61.3267C98.4881 61.4208 98.4646 61.5149 98.4332 61.5933C98.4254 61.6168 98.4097 61.6403 98.394 61.6638C98.3705 61.6952 98.3548 61.7265 98.3391 61.7579L98.2999 61.8363C98.2607 61.9068 98.2294 61.9695 98.1824 62.0322C98.1588 62.0636 98.1275 62.0871 98.0961 62.1185C98.0648 62.142 98.0412 62.1733 98.0177 62.1969L97.9472 62.2674C97.8923 62.3223 97.8453 62.385 97.7669 62.432C97.3828 62.7299 96.9438 62.9102 96.4813 63.1062L96.2853 63.1924C96.0893 63.2786 95.8933 63.3649 95.7052 63.4511L95.5485 63.5295C95.3133 63.6549 95.1016 63.7725 94.9919 63.8822L94.937 63.9136C94.937 63.9136 94.8978 63.945 94.8743 63.9606C94.8194 63.4119 94.6548 62.9024 94.3804 62.4007C94.2236 62.1185 94.0277 61.8363 93.8003 61.5619C93.6435 61.3738 93.4711 61.1856 93.2751 60.9975L95.9326 58.9123L95.6896 58.6066C95.6347 58.5282 95.5798 58.4655 95.5249 58.4028L95.4309 58.2774L95.3446 58.1754C95.2898 58.1127 95.2349 58.0735 95.2035 58.0657L95.1095 58.0343H95.0467C94.9762 58.0422 94.9135 58.0735 94.8821 58.097C94.8586 58.1127 94.8194 58.1362 94.7724 58.1676L93.8395 58.9045C93.3143 59.3199 92.162 60.1979 92.162 60.1979H92.1463C91.8641 60.0019 91.574 59.8216 91.3075 59.61C90.9861 59.367 90.7353 59.1318 90.5315 58.8809C89.8103 57.9951 89.8416 56.9682 90.6177 56.2078C90.7823 56.0511 90.9626 55.9178 91.1429 55.8002C91.2291 55.7453 91.3154 55.6905 91.4016 55.6356C91.5349 55.5572 91.6838 55.5023 91.8249 55.4474L91.9033 55.4161C91.966 55.3926 92.0287 55.3691 92.0914 55.3456C92.256 55.2985 92.4285 55.275 92.5931 55.2593L92.7029 55.2437C92.7499 55.2437 92.797 55.228 92.844 55.228C93.1262 55.2123 93.3848 55.228 93.6514 55.275C93.7063 55.2828 93.7533 55.2907 93.8239 55.2907L94.4902 55.3534L94.1452 54.9144C94.0198 54.7498 93.8944 54.593 93.769 54.4441C93.4868 54.0991 93.2281 53.7699 92.9929 53.425C92.7421 53.0644 92.4285 52.9311 92.0131 52.9939L91.9425 52.9625L91.872 53.0174C91.4957 53.0801 91.1194 53.182 90.7196 53.3309L90.5706 53.3858C90.2179 53.5269 89.8808 53.6994 89.5516 53.9267L89.3243 54.0835C89.1518 54.1932 89.0028 54.3422 88.8539 54.4989L88.7285 54.6244C88.7285 54.6244 88.6658 54.6871 88.6266 54.7184C88.5639 54.7811 88.5012 54.836 88.4385 54.9066C88.1484 55.2437 87.9054 55.5886 87.7016 55.957C86.9726 57.2896 87.0666 58.7085 87.9602 60.0568C88.1719 60.3704 88.4149 60.6682 88.7206 60.9583C88.9715 61.2013 89.2537 61.4365 89.6065 61.703C89.7162 61.7892 89.8338 61.8755 89.9514 61.9617C89.7789 62.095 89.6221 62.2282 89.4418 62.3615C89.3791 62.4085 89.3556 62.4556 89.3556 62.4712L89.285 62.5496L89.2694 62.6202C89.2537 62.7064 89.2694 62.7926 89.3243 62.8789V62.8945L89.3791 62.9651C89.4653 63.067 89.5516 63.1767 89.6378 63.2943L89.92 63.6549L91.041 62.7769C91.2919 62.9651 91.527 63.1689 91.7308 63.3884C91.9503 63.6157 92.1385 63.8587 92.3109 64.1096C92.648 64.6191 92.8832 65.1992 93.0164 65.8263C93.0556 66.0301 93.087 66.2418 93.1105 66.4534L93.1262 66.5867C93.1575 66.8768 93.1889 67.1668 93.2202 67.4568C93.2438 67.692 93.2673 67.9272 93.2986 68.1623C93.2986 68.2172 93.3065 68.2721 93.3143 68.3427L93.377 69.1893L93.8474 68.4759C93.8787 68.4289 93.9023 68.3975 93.9179 68.3662C94.2315 67.8018 94.6077 67.3392 95.0624 66.963C95.274 66.7827 95.5092 66.6416 95.7522 66.4848C95.7993 66.4534 95.8463 66.4221 95.8855 66.3907C95.9326 66.3594 95.9796 66.328 96.0266 66.2967C96.301 66.1399 96.6145 65.9753 96.9908 65.795C97.3279 65.6303 97.6571 65.4501 98.0099 65.2306C98.0804 65.1835 98.1431 65.1443 98.2137 65.0973L98.4411 64.9405C98.6919 64.7759 98.9349 64.5799 99.1622 64.3761C99.3896 64.1645 99.5699 63.9371 99.711 63.6941C99.8599 63.4276 99.954 63.1375 99.9853 62.8318C100.064 62.1577 99.8129 61.5854 99.5934 61.1621C99.4758 60.9348 99.3347 60.7153 99.1936 60.4958L98.9192 60.0646L98.7389 60.1352L98.5194 60.2763V60.2606Z" fill="#11B67A"/>
<path d="M80.7217 67.48C80.7217 67.48 80.4004 69.33 81.4351 71.3838C82.4699 73.4377 81.5448 75.1387 81.5448 75.1387L88.208 75.7423C88.208 75.7423 88.5843 73.8688 87.1262 71.2427C85.9739 69.1576 87.0165 68.0052 87.0165 68.0052L80.7217 67.4878V67.48Z" fill="#6CF479"/>
<path d="M49.0389 12.6859C49.0389 12.6859 47.7297 14.967 48.7723 17.8988C49.8149 20.8306 48.396 22.9942 48.396 22.9942L51.1005 23.5586C51.1005 23.5586 53.0054 21.7008 51.5003 17.9145C50.3088 14.9122 51.8452 13.1954 51.8452 13.1954L49.0467 12.678L49.0389 12.6859Z" fill="#11B67A"/>
<path d="M66.1809 54.9375C66.1809 54.9375 63.4843 55.353 61.0307 53.2522C58.5771 51.1513 55.951 51.7157 55.951 51.7157L56.4135 48.8858C56.4135 48.8858 58.9298 47.7335 62.0341 50.6026C64.4956 52.8759 66.7297 52.0293 66.7297 52.0293L66.1809 54.9375Z" fill="#6CF479"/>
<path d="M73.8957 83.2522C73.8957 83.2522 70.7366 82.8367 68.6671 79.6776C66.5976 76.5185 63.4777 76.2912 63.4777 76.2912L64.9201 73.2653C64.9201 73.2653 68.1184 72.7949 70.6583 77.0359C72.6729 80.391 75.4635 80.1715 75.4635 80.1715L73.9036 83.2522H73.8957Z" fill="#11B67A"/>
<path d="M70.4777 11C70.4777 11 75.2752 17.0909 70.8853 23.7149C70.8853 23.7149 77.0389 21.8492 76.451 11.9642C76.451 11.9642 74.1855 14.943 70.4777 11Z" fill="white"/>
<path d="M83.0748 50.3597C83.0748 50.3597 76.8035 43.6574 68.2668 47.6239C68.2668 47.6239 71.5436 40.7569 83.012 43.2027C83.012 43.2027 79.1161 45.3271 83.0748 50.3597Z" fill="white"/>
</svg>
