<svg width="100" height="100" viewBox="0 0 100 100" fill="none" xmlns="http://www.w3.org/2000/svg">
<rect width="100" height="100" fill="#F1F1F1"/>
<path d="M0.209753 62.7721C0.209753 62.7721 -1.04534 66.8367 2.58478 69.8103C6.2149 72.7742 28.3046 88.2698 47.4303 80.691C61.217 75.2265 75.612 69.3372 87.0333 59.6247C87.4292 59.2868 87.8153 58.9489 88.2015 58.6013C93.6757 53.6871 100.772 45.9249 99.9318 37.9502C99.787 36.5406 99.3333 35.189 98.5995 33.9725C98.5609 33.9049 98.5223 33.847 98.4837 33.7794L77.4367 38.8094L41.1644 68.2655L13.0503 71.2971L0.209753 62.7721Z" fill="black"/>
<path d="M0.209415 59.4698C0.209415 59.4698 -1.16153 65.4073 3.24095 68.4871C7.63378 71.567 28.2946 86.7343 43.684 74.8592C59.0733 62.9937 85.1214 30.9019 99.9508 39.2531C99.9508 39.2531 100.656 33.721 92.8837 27.3104L62.8 42.0047L18.5048 66.4018L0.209415 59.4698Z" fill="#17B47A"/>
<path d="M1.12728 55.4344C0.24871 57.4715 -0.0409269 59.7307 0.441802 61.8933C0.799021 63.5056 1.5907 65.2338 3.24163 66.4116C7.2 69.2597 29.0676 78.4026 36.8685 71.3065C44.6694 64.2104 81.4919 24.0956 96.109 30.4677C96.109 30.4677 83.4711 14.3156 54.2371 17.714C26.5092 20.9483 7.08415 41.6863 1.12728 55.4344Z" fill="#6BF278"/>
<path d="M13.0403 72.6587C12.6445 72.6587 12.2969 72.3691 12.2487 71.9636C12.1521 71.2588 10.395 54.315 57.4031 20.9005C57.77 20.6399 58.272 20.7267 58.523 21.0936C58.7837 21.4605 58.6968 21.9625 58.3299 22.2136C12.3935 54.875 13.8224 71.587 13.8417 71.7512C13.89 72.1953 13.581 72.5911 13.1465 72.649C13.1079 72.649 13.079 72.649 13.0403 72.649V72.6587Z" fill="#17B47A"/>
<path d="M32.7747 36.5011L23.1105 46.175C22.3381 46.9473 21.7395 47.8935 21.4499 48.9458C21.083 50.2685 21.2664 51.7746 23.0043 52.6822C26.2965 54.391 31.5099 50.5968 34.8794 47.1308C38.2488 43.6648 44.4567 37.5148 40.4501 34.8791C37.1289 32.6972 32.765 36.5107 32.765 36.5107L32.7747 36.5011Z" fill="#17B47A"/>
<path d="M32.1953 37.8236L24.6454 45.4797C24.0372 46.0976 23.5737 46.841 23.342 47.6713C23.062 48.7237 23.1972 49.9112 24.5585 50.6256C27.1363 51.9772 31.2105 48.9747 33.8462 46.2328C36.4819 43.4812 41.3382 38.625 38.2004 36.5299C35.6033 34.8018 32.1953 37.8236 32.1953 37.8236Z" fill="black"/>
<path d="M23.2262 32.4671C23.2262 32.4671 -4.16379 55.6767 4.70876 64.4527C4.70876 64.4527 2.66199 57.82 7.82719 57.5304C7.82719 57.5304 4.29361 54.1127 23.2166 32.4671H23.2262Z" fill="white"/>
<path d="M32.1953 37.8236L24.6454 45.4797C24.0372 46.0976 23.5737 46.841 23.342 47.6713C23.062 48.7237 23.1972 49.9112 24.5585 50.6256C27.1363 51.9772 31.2105 48.9747 33.8462 46.2328C36.4819 43.4812 41.3382 38.625 38.2004 36.5299C35.6033 34.8018 32.1953 37.8236 32.1953 37.8236Z" fill="black"/>
<path d="M24.9156 51.1861C24.9156 51.1861 25.7555 37.4187 39.465 36.9939C39.465 36.9939 40.2663 39.369 38.2196 41.966C36.1728 44.5728 31.8282 49.7959 28.4588 50.9641C28.4588 50.9641 26.7403 51.6303 24.9156 51.1861Z" fill="white"/>
</svg>
