<svg width="100" height="100" viewBox="0 0 100 100" fill="none" xmlns="http://www.w3.org/2000/svg">
<path d="M51.2634 99.3743L17.3995 79.7518C15.8393 78.8488 15.5359 76.7216 16.7753 75.4193L57.6774 32.3541C59.0555 30.9041 61.2571 30.5829 62.9906 31.5901L97.0625 51.3341C98.6227 52.237 98.9261 54.3642 97.6867 55.6666L56.9494 98.5581C55.4672 100.112 53.1183 100.451 51.2634 99.3743Z" fill="#024731"/>
<path d="M51.2634 97.2274L17.3995 77.6049C15.8393 76.702 15.5359 74.5748 16.7753 73.2724L57.6774 30.2072C59.0555 28.7573 61.2571 28.436 62.9906 29.4432L97.0625 49.1872C98.6227 50.0902 98.9261 52.2174 97.6867 53.5197L56.9494 96.4112C55.4672 97.9654 53.1183 98.304 51.2634 97.2274Z" fill="#6CF479"/>
<path d="M51.2634 97.2274L17.3995 77.6049C15.8393 76.702 15.5359 74.5748 16.7753 73.2724L57.6774 30.2072C59.0555 28.7573 61.2571 28.436 62.9906 29.4432L97.0625 49.1872C98.6227 50.0902 98.9261 52.2174 97.6867 53.5197L56.9494 96.4112C55.4672 97.9654 53.1183 98.304 51.2634 97.2274Z" fill="black"/>
<path d="M81.7471 38.0639L31.4582 91.0097L39.4149 95.6201L89.7038 42.683L81.7471 38.0639Z" fill="#024731"/>
<path d="M55.8399 66.3763L9.23464 81.7703L32.3855 49.1849L58.1281 54.1947L62.9906 61.9308L55.8399 66.3763Z" fill="#024731"/>
<path d="M68.7284 48.1974L55.5884 6.43467C55.103 4.88918 53.4302 3.86466 51.8441 4.1425L24.5327 9.03075L16.0905 7.75442L14.539 10.9843C14.1663 11.6615 14.0623 12.4169 14.305 13.2157L30.5739 64.9199C31.0593 66.4654 32.7321 67.4899 34.3183 67.2121L70.1931 60.7957C71.0512 60.6395 71.6926 60.1272 72.0306 59.45L73.7295 56.003L68.7284 48.1974Z" fill="#024731"/>
<path d="M35.9824 63.7749L71.8573 57.3586C73.4348 57.0721 74.3189 55.596 73.8335 54.0419L57.5646 2.33762C57.0792 0.792132 55.4063 -0.232388 53.8201 0.0454518L17.9454 6.4618C16.3679 6.74832 15.4838 8.22435 15.9692 9.77852L32.2381 61.4828C32.7235 63.0282 34.3963 64.0528 35.9824 63.7749Z" fill="#11B67A"/>
<path d="M23.6745 18.9475L56.1603 13.1303C56.7931 13.0174 57.157 12.4183 56.9577 11.7932L54.7389 4.73429C54.5395 4.10915 53.8634 3.70107 53.2307 3.81395L20.7449 9.63122C20.1121 9.7441 19.7481 10.3432 19.9474 10.9683L22.1664 18.0272C22.3657 18.6523 23.0418 19.0604 23.6745 18.9475Z" fill="#024731"/>
<path d="M37.1786 30.1049L41.5211 29.3235C42.0931 29.2193 42.4138 28.6809 42.2404 28.1253L40.897 23.8708C40.7237 23.3065 40.1169 22.9418 39.5362 23.0373L35.1938 23.8188C34.6217 23.9229 34.301 24.4613 34.4744 25.0169L35.8179 29.2714C35.9912 29.8357 36.5979 30.2004 37.1786 30.1049Z" fill="#6CF479"/>
<path d="M27.9563 31.7532L32.2987 30.9718C32.8708 30.8676 33.1914 30.3293 33.0181 29.7736L31.6747 25.5192C31.5013 24.9548 30.8946 24.5901 30.3138 24.6857L25.9714 25.4671C25.3993 25.5713 25.0787 26.1096 25.252 26.6653L26.5955 30.9197C26.7689 31.484 27.3756 31.8487 27.9563 31.7532Z" fill="#6CF479"/>
<path d="M46.3921 28.4532L50.7346 27.6718C51.3066 27.5676 51.6273 27.0293 51.4539 26.4736L50.1105 22.2192C49.9372 21.6548 49.3304 21.2901 48.7497 21.3856L44.4072 22.1671C43.8352 22.2713 43.5145 22.8096 43.6879 23.3652L45.0314 27.6197C45.2047 28.184 45.8114 28.5487 46.3921 28.4532Z" fill="#6CF479"/>
<path d="M55.6145 26.8049L59.9569 26.0235C60.529 25.9193 60.8496 25.3809 60.6763 24.8253L59.3329 20.5708C59.1595 20.0065 58.5527 19.6418 57.972 19.7373L53.6296 20.5187C53.0575 20.6229 52.7369 21.1612 52.9102 21.7169L54.2536 25.9713C54.427 26.5357 55.0338 26.9004 55.6145 26.8049Z" fill="#6CF479"/>
<path d="M65.1401 39.0132L69.3351 52.2627C69.5085 52.827 69.1878 53.3654 68.6157 53.4609L64.2733 54.2423C63.7013 54.3465 63.0946 53.9731 62.9126 53.4088L58.7174 40.1593C58.5441 39.5949 58.8648 39.0566 59.4369 38.9611L63.7793 38.1797C64.3514 38.0755 64.958 38.4488 65.1401 39.0132Z" fill="#6CF479"/>
<path d="M42.9858 48.5552L47.3283 47.7737C47.9003 47.6696 48.2211 47.1312 48.0477 46.5756L46.7042 42.3211C46.5309 41.7568 45.9242 41.3921 45.3435 41.4876L41.001 42.269C40.429 42.3732 40.1082 42.9116 40.2816 43.4672L41.6251 47.7216C41.7984 48.286 42.4051 48.6507 42.9858 48.5552Z" fill="#00482F"/>
<path d="M52.1995 46.9035L56.542 46.1221C57.114 46.0179 57.4348 45.4795 57.2614 44.9239L55.9179 40.6695C55.7446 40.1051 55.1379 39.7404 54.5572 39.8359L50.2147 40.6174C49.6427 40.7216 49.3219 41.2598 49.4953 41.8155L50.8388 46.07C51.0121 46.6343 51.6188 46.999 52.1995 46.9035Z" fill="#00482F"/>
<path d="M33.8158 50.2306L38.1582 49.4492C38.7302 49.345 39.0509 48.8067 38.8776 48.251L37.5341 43.9966C37.3608 43.4322 36.754 43.0676 36.1733 43.1631L31.8309 43.9445C31.2588 44.0487 30.9381 44.587 31.1115 45.1427L32.455 49.3971C32.6283 49.9615 33.235 50.3261 33.8158 50.2306Z" fill="#00482F"/>
<path d="M45.8809 57.7769L50.2233 56.9955C50.7954 56.8913 51.116 56.353 50.9427 55.7973L49.5992 51.5429C49.4258 50.9785 48.8191 50.6139 48.2384 50.7094L43.896 51.4908C43.3239 51.595 43.0033 52.1333 43.1766 52.689L44.52 56.9434C44.6934 57.5078 45.3001 57.8724 45.8809 57.7769Z" fill="#00482F"/>
<path d="M55.1032 56.1252L59.4457 55.3438C60.0177 55.2396 60.3384 54.7013 60.165 54.1456L58.8215 49.8912C58.6482 49.3268 58.0415 48.9622 57.4608 49.0577L53.1183 49.8391C52.5463 49.9433 52.2256 50.4816 52.399 51.0373L53.7424 55.2917C53.9157 55.8561 54.5225 56.2207 55.1032 56.1252Z" fill="#00482F"/>
<path d="M36.7192 59.4524L41.0617 58.6709C41.6337 58.5668 41.9545 58.0284 41.7811 57.4728L40.4376 53.2183C40.2643 52.654 39.6576 52.2893 39.0769 52.3848L34.7344 53.1663C34.1624 53.2704 33.8416 53.8088 34.015 54.3644L35.3585 58.6189C35.5318 59.1832 36.1385 59.5479 36.7192 59.4524Z" fill="#00482F"/>
<path d="M40.0823 39.3266L44.4248 38.5452C44.9968 38.441 45.3176 37.9027 45.1442 37.347L43.8007 33.0926C43.6274 32.5282 43.0206 32.1636 42.4399 32.2591L38.0976 33.0405C37.5255 33.1447 37.2047 33.683 37.3781 34.2387L38.7216 38.4931C38.8949 39.0575 39.5016 39.4221 40.0823 39.3266Z" fill="#00482F"/>
<path d="M30.86 40.9749L35.2024 40.1935C35.7745 40.0893 36.0952 39.551 35.9219 38.9953L34.5784 34.7409C34.405 34.1766 33.7984 33.8119 33.2176 33.9074L28.8752 34.6888C28.3031 34.793 27.9824 35.3313 28.1557 35.887L29.4992 40.1414C29.6726 40.7058 30.2793 41.0704 30.86 40.9749Z" fill="#00482F"/>
<path d="M49.2958 37.6749L53.6382 36.8935C54.2103 36.7893 54.531 36.251 54.3576 35.6953L53.0142 31.4409C52.8409 30.8765 52.2341 30.5119 51.6534 30.6074L47.311 31.3888C46.739 31.493 46.4182 32.0313 46.5916 32.587L47.9351 36.8414C48.1084 37.4058 48.7151 37.7704 49.2958 37.6749Z" fill="#00482F"/>
<path d="M58.5182 36.0266L62.8606 35.2452C63.4327 35.141 63.7533 34.6027 63.58 34.047L62.2366 29.7926C62.0632 29.2282 61.4564 28.8636 60.8757 28.9591L56.5333 29.7405C55.9612 29.8447 55.6406 30.383 55.8139 30.9387L57.1574 35.1931C57.3308 35.7575 57.9375 36.1221 58.5182 36.0266Z" fill="#00482F"/>
<path d="M23.6745 18.9475L56.1603 13.1303C56.7931 13.0174 57.157 12.4183 56.9577 11.7932L54.7389 4.73429C54.5395 4.10915 53.8634 3.70107 53.2307 3.81395L20.7449 9.63122C20.1121 9.7441 19.7481 10.3432 19.9474 10.9683L22.1664 18.0272C22.3657 18.6523 23.0418 19.0604 23.6745 18.9475Z" fill="black"/>
<path d="M23.0158 20.0596L55.5016 14.2424C56.1343 14.1295 56.4984 13.5304 56.299 12.9053L53.9414 5.42097C53.8201 5.03026 53.4041 4.77846 53.0053 4.84792L20.0861 10.7433C19.4534 10.8562 19.0893 11.4553 19.2887 12.0804L21.5076 19.1393C21.707 19.7644 22.383 20.1725 23.0158 20.0596Z" fill="#2F8260"/>
<path d="M10.7427 66.8122C4.81409 62.0107 5.64617 53.1112 12.3635 46.252C10.6213 42.0237 12.1122 36.5016 16.2986 31.6741C12.5022 34.2615 8.91381 37.8127 5.95819 41.9889C-1.52188 52.5555 0.705658 66.1436 9.73721 70.1289C13.9843 72.0043 19.0895 71.6396 24.0386 69.5298C18.9941 70.3807 14.1143 69.5385 10.7427 66.8122Z" fill="white"/>
</svg>
