<svg width="100" height="100" viewBox="0 0 100 100" fill="none" xmlns="http://www.w3.org/2000/svg">
<path d="M49.7201 17.7932C43.9922 18.0419 36.8809 17.8544 28.8606 16.4937C22.4392 15.4042 16.8629 13.8048 12.2529 12.1651C13.5104 10.6335 14.7679 9.10179 16.0254 7.57012C17.8631 5.3317 20.4763 3.86721 23.3448 3.4681L46.855 0.196896C48.7558 -0.0675953 50.6842 -0.065612 52.5845 0.202814L75.8678 3.49136C78.5979 3.87696 81.0993 5.22856 82.9181 7.30083L87.1873 12.1651C82.4154 13.6991 76.8439 15.1539 70.5631 16.2017C62.7154 17.5109 55.6536 17.8688 49.7201 17.7932Z" fill="#C7FFC6"/>
<path d="M49.7201 17.7932C58.8577 16.6939 64.5857 12.5384 64.5274 8.86914C64.5176 8.25107 64.3226 6.32144 61.1554 4.05186C69.8328 6.75634 78.5099 9.46064 87.1873 12.1651C82.4154 13.6991 76.8439 15.1539 70.5631 16.2017C62.7154 17.5109 55.6536 17.8688 49.7201 17.7932Z" fill="white"/>
<path d="M70.4211 44.2534L50.1204 99.938C50.114 99.9412 50.1044 99.9444 50.098 99.9444C49.8516 100.021 49.5862 100.018 49.3398 99.938C49.3334 99.938 49.3238 99.9348 49.3174 99.9316L29.0199 44.2534L70.4211 44.2534Z" fill="#6CF479"/>
<path d="M49.3398 99.938C49.3334 99.938 49.3238 99.9348 49.3174 99.9316C49.1671 99.8804 49.0232 99.7961 48.8984 99.6842C34.1127 76.3508 19.3207 53.0175 4.53502 29.6841C12.6956 34.5338 20.8562 39.3803 29.02 44.2267C29.0232 44.2363 29.0264 44.2427 29.0296 44.2523C35.7986 62.816 42.5707 81.3743 49.3398 99.938Z" fill="#024731"/>
<path d="M94.7562 30.0094C80.0205 53.2368 65.2848 76.4642 50.549 99.6917C50.4211 99.8068 50.2739 99.8868 50.1204 99.938C50.114 99.9412 50.1044 99.9444 50.098 99.9444C56.8703 81.3807 63.6392 62.817 70.4114 44.2534C70.4146 44.2438 70.4178 44.2374 70.421 44.2278C78.5327 39.4883 86.6445 34.7488 94.7562 30.0094Z" fill="#11B67A"/>
<path d="M29.0191 44.2526C34.1453 45.7344 41.4693 47.2567 50.3306 47.1841C58.6079 47.1163 65.4859 45.6803 70.4211 44.2534C68.4516 39.9809 65.4738 34.6014 60.9889 29.029C57.0751 24.1664 53.0849 20.4866 49.7201 17.7946C46.0373 20.7209 41.4964 24.9156 37.1433 30.6549C33.3844 35.6109 30.7979 40.3573 29.0191 44.2526Z" fill="#C7FFC6"/>
<path d="M12.2529 12.1664L29.0191 44.2526C30.7979 40.3573 33.3844 35.6109 37.1433 30.6549C41.4964 24.9156 46.0373 20.7209 49.7201 17.7946C44.2421 18.0336 37.4688 17.8735 29.8271 16.6546C22.9569 15.5588 17.0468 13.8721 12.2529 12.1664Z" fill="#6CF479"/>
<path d="M87.1873 12.1664L70.4211 44.2534C68.4516 39.9809 65.4738 34.6014 60.9889 29.029C57.0751 24.1664 53.0849 20.4866 49.7201 17.7946C55.6536 17.8702 62.7154 17.5122 70.5631 16.203C76.8439 15.1552 82.4154 13.7004 87.1873 12.1664Z" fill="#6CF479"/>
<path d="M12.2529 12.1664L29.0191 44.2526C24.0587 41.8263 18.829 39.0389 13.4183 35.8334C10.8945 34.3381 8.47174 32.8351 6.14929 31.3352C3.5681 29.6683 2.85956 26.2073 4.56807 23.6535C7.12971 19.8245 9.69123 15.9954 12.2529 12.1664Z" fill="#0BE248"/>
<path d="M87.1873 12.1664L70.4211 44.2534C75.8155 41.7558 81.7062 38.6422 87.845 34.7495C90.0315 33.363 92.1092 31.9665 94.0801 30.5745C96.5682 28.8174 97.1111 25.3529 95.2795 22.9191C92.5821 19.3349 89.8847 15.7507 87.1873 12.1664Z" fill="#0BE248"/>
<path d="M49.7201 17.7946C46.2473 20.3817 41.7829 24.2573 37.5046 29.7516C33.3119 35.1359 30.6754 40.3056 29.0191 44.2526C30.863 44.9027 33.0194 45.5157 35.4572 45.9497C36.7807 46.1854 38.0354 46.3413 39.2065 46.4395C39.2716 43.1227 39.7053 38.7813 41.1635 33.9202C43.4128 26.4217 47.0984 21.0254 49.7201 17.7946Z" fill="white"/>
</svg>
