<svg width="100" height="100" viewBox="0 0 100 100" fill="none" xmlns="http://www.w3.org/2000/svg">
<g clip-path="url(#clip0_15980_15396)">
<rect width="100" height="100" fill="#F1F1F1"/>
<path d="M90.3862 73.8778L88.4433 71.3995L87.8323 70.6237L70.3876 48.4077C69.3922 47.1376 66.9825 46.4305 65.0121 46.8218L2.19487 59.3784C0.224539 59.7766 -0.564968 61.1222 0.430497 62.3991L20.429 87.8624C21.4245 89.1325 23.8342 89.8396 25.8046 89.4483L88.6218 76.8848C90.5921 76.4866 91.3817 75.141 90.3862 73.8641V73.8778Z" fill="black"/>
<path d="M96.1083 67.8022L78.0389 26.8371C77.627 25.9034 76.6178 25.2512 75.6498 25.2512C75.5193 25.2512 75.3958 25.2649 75.2585 25.2924L6.32423 40.2381C5.24638 40.4509 4.75895 41.4944 5.23265 42.5654L23.5011 83.8463C23.9131 84.78 24.9291 85.4322 25.8971 85.4322C26.0276 85.4322 26.1717 85.4185 26.309 85.391L95.051 70.1158C96.1083 69.9029 96.582 68.8594 96.122 67.8022H96.1083Z" fill="black"/>
<path d="M96.4794 66.6692L78.41 25.7041C77.9981 24.7704 76.9889 24.1182 76.0209 24.1182C75.8905 24.1182 75.7669 24.1319 75.6296 24.1594L6.69538 39.112C5.61754 39.3248 5.1301 40.3683 5.6038 41.4393L23.8723 82.7202C24.2842 83.6539 25.3003 84.3061 26.2683 84.3061C26.3987 84.3061 26.5429 84.2923 26.6802 84.2649L95.4222 68.9896C96.4794 68.7768 96.9531 67.7333 96.4932 66.676H96.4794V66.6692Z" fill="#035D3E"/>
<path d="M7.05117 39.9836V35.6447L34.2445 30.5095L94.858 67.2936L26.1298 81.9647L7.05117 39.9836Z" fill="black"/>
<path d="M62.0225 73.8364C62.0225 73.8364 50.8733 69.2572 26.378 77.6191L6.46869 32.8232C6.46869 32.8232 29.5635 20.6785 42.3123 29.4386L62.0225 73.8432V73.8364Z" fill="#6CF479"/>
<path d="M96.0673 63.0854L89.6758 51.2496L83.3666 67.2389L96.0673 63.0854Z" fill="black"/>
<path d="M63.7381 73.8368C63.7381 73.8368 67.1988 67.4654 96.0673 63.0854L94.8584 67.2873L63.7381 73.8368Z" fill="black"/>
<path d="M42.3107 29.439L62.0209 73.8436C62.0209 73.8436 70.1837 63.8889 97.8645 61.8156L77.5903 18.7185C77.5903 18.7185 50.2744 17.8916 42.3107 29.439Z" fill="#6CF479"/>
<path d="M42.3123 29.4386L56.8117 62.0902C56.8117 62.0902 45.0309 28.1208 63.0797 19.7178C63.0797 19.7178 48.4772 21.0702 42.3054 29.4321L42.3123 29.4386Z" fill="#11B67A"/>
<path d="M9.27099 34.0934L23.8322 67.2047C23.8322 67.2047 13.5 29.631 35.565 27.7705C35.565 27.7705 25.4799 26.1091 9.27099 34.0934Z" fill="white"/>
<path d="M55.5479 77.4279C55.5479 77.4279 61.0264 79.7758 69.0862 74.4209L55.5479 77.4279Z" fill="#035D3E"/>
<path d="M42.2862 29.4511L61.9418 73.8057C61.9418 73.8057 53.7951 70.4435 36.0791 74.7109C36.0791 74.7109 56.64 66.0469 42.2862 29.4511Z" fill="#11B67A"/>
<path d="M77.5891 18.7179L97.8913 61.7793C97.8913 61.7793 89.8739 61.9086 76.6839 66.1759C76.6839 66.1759 91.9429 55.3136 77.5891 18.7179Z" fill="#11B67A"/>
<path d="M26.1263 81.9655C26.1263 81.9655 56.7935 74.908 62.018 75.9859C62.018 75.9859 67.2974 73.0201 94.8546 67.2944L75.3297 69.354L61.6335 74.4137L44.4978 74.6334L28.7008 78.423L26.1332 81.9655H26.1263Z" fill="black"/>
<path d="M26.1278 81.9648C26.1278 81.9648 53.8498 72.7928 62.0195 75.9851L29.3751 82.4865L26.121 81.9717L26.1278 81.9648Z" fill="#035D3E"/>
<path d="M62.0195 75.9851C62.0195 75.9851 64.9513 71.3518 94.8564 67.2944L93.9982 68.4684L67.4708 74.4206L63.743 76.1781L62.0267 75.9859L62.0195 75.9851Z" fill="#035D3E"/>
<path d="M81.7249 50.0098C79.3539 50.7858 72.4362 53.8899 68.0178 60.0967C64.2142 65.44 62.8661 69.7298 61.9612 73.7129L42.3079 29.4375C46.6613 23.1252 56.8459 20.5044 65.1848 19.4228L81.7249 50.0098Z" fill="black"/>
<path d="M44.7448 15.6146C42.3187 20.2121 41.812 26.4769 42.2862 29.4511L61.9435 73.8057C61.8573 69.797 61.2893 62.5554 64.7887 55.9604C68.0136 49.8827 74.2717 47.2102 77.3321 46.0033L54.9608 5.26953C52.1157 6.95061 47.2015 10.9593 44.7448 15.6146Z" fill="#6CF479"/>
<path d="M50.1027 8.96201C47.0064 14.2992 50.0414 21.6469 55.3341 32.5382C58.1146 38.2597 61.45 43.1663 64.5031 46.4161C66.2439 48.269 68.3718 49.3679 69.8966 50.0372C67.9695 51.5221 66.1203 53.4511 64.7887 55.9604C64.0267 57.3965 63.4576 58.8631 63.0343 60.3204C62.8025 57.484 61.9991 51.8168 60.0011 46.7784C57.027 39.2784 54.0557 33.8582 50.1183 28.2071C46.7261 23.3385 44.255 21.4019 42.798 21.128C43.2178 19.2292 43.8509 17.3087 44.7448 15.6146C46.0582 13.126 48.0763 10.8242 50.1027 8.96201Z" fill="white"/>
<path d="M71.0112 94.7307C77.3773 94.7307 82.538 93.867 82.538 92.8015C82.538 91.7361 77.3773 90.8724 71.0112 90.8724C64.6451 90.8724 59.4844 91.7361 59.4844 92.8015C59.4844 93.867 64.6451 94.7307 71.0112 94.7307Z" fill="black"/>
<path d="M61.9142 92.8016C61.9142 92.8016 66.6718 88.6893 69.4866 89.4308C69.4866 89.4308 69.2395 85.2292 72.0268 82.744L69.9946 81.6593L61.9142 92.8016Z" fill="black"/>
<path d="M68.9926 81.2897L61.9213 92.7959C61.9213 92.7959 66.0405 88.4296 68.5326 88.9239C68.5326 88.9239 68.0863 85.2166 71.0178 82.0243L68.9994 81.2828L68.9926 81.2897Z" fill="#11B67A"/>
<path d="M68.3321 81.2068C69.8562 83.5822 72.4375 83.6509 72.4375 83.6509L73.3918 82.2641L83.7995 67.0918L77.511 63.3434L68.3321 81.2068Z" fill="#035D3E"/>
<path d="M68.3321 81.2068C69.8562 83.5822 72.4375 83.6509 72.4375 83.6509L73.3918 82.2641L83.7995 67.0918L77.511 63.3434L68.3321 81.2068Z" fill="black"/>
<path d="M69.5741 82.5593L79.5288 65.8698L77.5173 63.3365L67.3017 83.4175L69.5741 82.5593Z" fill="#11B67A"/>
<path d="M84.3007 68.0188C85.406 66.2956 86.525 64.4901 87.6441 62.6158C95.9991 48.6107 102.768 37.2555 98.8688 34.9282C94.9693 32.6008 88.1933 43.956 79.8451 57.9612C78.6094 60.0345 77.7032 61.641 76.6253 63.6113C78.4034 66.7075 81.6438 67.9158 84.3007 68.0188Z" fill="black"/>
<path d="M84.3007 68.0188C85.406 66.2956 86.525 64.4901 87.6441 62.6158C95.9991 48.6107 102.768 37.2555 98.8688 34.9282C94.9693 32.6008 88.1933 43.956 79.8451 57.9612C78.6094 60.0345 77.7032 61.641 76.6253 63.6113C78.4034 66.7075 81.6438 67.9158 84.3007 68.0188Z" fill="black"/>
<path d="M80.7645 67.8532C81.1764 67.1804 99.6646 38.923 98.4495 36.0739C98.4495 36.0739 104.017 34.7077 82.7829 68.1759" fill="#6CF479"/>
<path d="M72.4375 83.6509C72.4375 83.6509 70.1445 83.5891 68.3321 81.2068C68.3321 81.2068 69.0323 84.3992 72.4375 83.6509Z" fill="black"/>
</g>
<defs>
<clipPath id="clip0_15980_15396">
<rect width="100" height="100" fill="white"/>
</clipPath>
</defs>
</svg>
