<svg width="100" height="100" viewBox="0 0 100 100" fill="none" xmlns="http://www.w3.org/2000/svg">
<path d="M7.67562 76.8905L7.6972 86.4993L30.9257 100L30.9038 90.4055L7.67562 76.8905Z" fill="#024731"/>
<path d="M50.2098 79.2938L50.2242 88.9026L30.9257 100L30.9038 90.4055L50.2098 79.2938Z" fill="#024731"/>
<path d="M53.4324 36.4263V20.3518C53.4324 19.273 52.9003 18.3955 52.1377 17.8345C52.1377 17.8345 23.1694 1.13327 22.4789 0.622643C21.5294 -0.075008 20.2059 -0.247635 19.0406 0.421263L7.74044 6.88701C6.50323 7.59184 5.56094 8.6635 5.00707 9.91493L34.7163 26.3285L53.4396 36.4263H53.4324Z" fill="#6CF479"/>
<path d="M34.709 26.3358L5.00707 9.91493C4.64741 10.7204 4.45313 11.5908 4.45313 12.5043V74.9703C4.45313 74.9703 4.45312 74.9775 4.46031 74.9847V75.0855L4.4891 75.0353C4.4891 75.0353 4.4891 75.0568 4.50346 75.064L34.1406 92.2829L53.4323 81.1782L53.4324 36.4263L34.709 26.3286V26.3358Z" fill="#11B67A"/>
<path d="M10.5311 22.0055V43.0734L27.7821 53.1147V32.0108L10.5311 22.0055Z" fill="#006A4D"/>
<path d="M53.4323 20.3589L53.4323 81.1782L34.1406 92.2829L34.1406 29.7302C34.1406 27.4001 35.3923 25.2424 37.4209 24.0844L48.7209 17.6187C50.8213 16.4176 53.4324 17.9352 53.4324 20.3518L53.4323 20.3589Z" fill="#024731"/>
<path d="M42.1143 50.3087L42.0996 61.4492L48.5445 65.1678V54.0125L42.1143 50.3087Z" fill="#11B67A"/>
<path d="M54.9826 50.3023L54.9897 61.45L48.5445 65.1678V54.0125L54.9826 50.3023Z" fill="#024731"/>
<path d="M42.1143 50.3087L48.5591 46.5911L54.9826 50.3023L48.5445 54.0125L42.1143 50.3087Z" fill="#6CF479"/>
<path d="M74.0365 64.2405V86.6207C74.0365 89.1378 73.0513 91.1591 71.3178 92.1585C70.5695 92.5903 69.7207 92.8061 68.8145 92.8061C67.649 92.8061 66.3977 92.4536 65.1605 91.7414C61.2547 89.4759 58.1903 84.1611 58.1903 79.6514V64.5065C58.1903 63.5857 57.428 62.2697 56.6366 61.8092L52.0979 59.1913C51.1988 58.6736 50.8822 57.5084 51.4146 56.5952C51.9324 55.696 53.0978 55.3794 53.9969 55.8974L58.5356 58.5153C60.4993 59.6518 61.9883 62.2192 61.9883 64.4993V79.6442C61.9883 82.8304 64.3189 86.858 67.0595 88.4475C68.0303 89.0014 68.9222 89.1668 69.426 88.8646C69.9437 88.5771 70.246 87.7281 70.246 86.6135V64.233C70.246 63.183 71.0948 62.3344 72.1447 62.3344C73.1949 62.3344 74.0437 63.183 74.0437 64.233L74.0365 64.2405Z" fill="#6CF479"/>
<path d="M74.0365 64.2405L74.0365 70.4758C73.8207 70.5049 73.6049 70.512 73.382 70.512C72.2671 70.512 71.2025 70.2816 70.246 69.8789V64.2402C70.246 63.1902 71.0948 62.3416 72.1447 62.3416C73.1949 62.3416 74.0437 63.1902 74.0437 64.2402L74.0365 64.2405Z" fill="#024731"/>
<path d="M94.0547 44.2754L86.049 58.2066L82.4667 56.1712L81.1648 55.4232V59.6597C81.1648 63.529 78.4102 66.7582 74.749 67.4773C74.2452 67.5781 73.7275 67.6284 73.195 67.6284C68.7931 67.6284 65.2252 64.061 65.2252 59.6597V48.7776C65.2252 43.9735 67.34 39.989 71.03 37.86C74.7127 35.7385 78.9998 35.6807 83.1791 38.0901L94.0622 44.2754H94.0547Z" fill="#6CF479"/>
<path d="M81.1648 55.4232V59.6597C81.1648 63.529 78.4102 66.7582 74.749 67.4773L74.7488 51.7119L81.1646 55.4161L81.1648 55.4232Z" fill="#024731"/>
<path d="M93.7851 53.3948C96.01 49.5419 96.009 45.3772 93.783 44.092C91.5571 42.8071 87.9492 44.8886 85.7243 48.7415C83.4997 52.5941 83.5008 56.7591 85.7267 58.0444C87.9526 59.3292 91.5605 57.2477 93.7851 53.3948Z" fill="#024731"/>
<path d="M88.3364 54.178C87.6675 54.178 87.5666 53.3797 87.5666 52.8979C87.5666 51.2219 88.7967 49.0932 90.2498 48.2518C90.6814 47.9998 90.9905 47.9496 91.1776 47.9496C91.8465 47.9496 91.9474 48.7479 91.9474 49.23C91.9474 50.9057 90.7173 53.0343 89.2642 53.8761C88.8327 54.1277 88.5235 54.178 88.3436 54.178H88.3364Z" fill="#11B67A"/>
<path d="M21.3862 54.4993L12.2655 65.1799L19.1492 66.2371L13.999 75.5437L24.3066 64.5539L17.2503 63.5327L21.3862 54.4993Z" fill="#6CF479"/>
<path d="M74.7488 55.3721C74.6838 59.3494 73.9502 63.1828 69.3465 63.1326C67.1599 63.1038 65.9226 61.4928 65.2394 59.9536C65.3977 64.2184 68.8934 67.6347 73.1948 67.6347C73.7273 67.6347 74.245 67.5845 74.7488 67.4836C75.4751 67.34 76.1656 67.0952 76.8058 66.7646L74.7488 55.3721Z" fill="#024731"/>
<path d="M69.6489 40.3409C74.5546 36.7376 78.3594 37.6078 79.8699 38.0324C81.3805 38.4567 88.8828 42.6279 88.8828 42.6279C88.8828 42.6279 84.2507 40.3194 80.5101 40.9379C78.2661 41.3119 78.079 42.9948 78.079 42.9948C78.079 42.9948 78.7264 39.852 74.979 39.3269C72.3317 38.9528 69.6489 40.3481 69.6489 40.3481V40.3409Z" fill="white"/>
<path d="M20.7093 29.9421L11.9051 24.6703V40.2108C11.9051 40.2108 12.164 34.7752 15.2283 31.9343C18.4148 28.9782 20.7093 29.9421 20.7093 29.9421Z" fill="white"/>
</svg>
