<svg width="100" height="100" viewBox="0 0 100 100" fill="none" xmlns="http://www.w3.org/2000/svg">
<rect width="100" height="100" fill="#F1F1F1"/>
<path d="M7.72258 76.8905L7.74416 86.4993L30.9726 100L30.9507 90.4055L7.72258 76.8905Z" fill="black"/>
<path d="M50.2567 79.2938L50.2711 88.9026L30.9726 100L30.9507 90.4055L50.2567 79.2938Z" fill="black"/>
<path d="M53.4792 36.4263V20.3518C53.4792 19.273 52.9471 18.3955 52.1845 17.8345C52.1845 17.8345 23.2163 1.13327 22.5257 0.622643C21.5763 -0.075008 20.2528 -0.247635 19.0875 0.421263L7.78731 6.88701C6.5501 7.59184 5.60781 8.6635 5.05394 9.91493L34.7631 26.3285L53.4864 36.4263H53.4792Z" fill="#6CF479"/>
<path d="M34.7558 26.3358L5.05394 9.91493C4.69429 10.7204 4.5 11.5908 4.5 12.5043V74.9703C4.5 74.9703 4.5 74.9775 4.50718 74.9847V75.0855L4.53598 75.0353C4.53598 75.0353 4.53598 75.0568 4.55034 75.064L34.1875 92.2829L53.4791 81.1782L53.4792 36.4263L34.7558 26.3286V26.3358Z" fill="#11B67A"/>
<path d="M10.5782 22.0055V43.0734L27.8292 53.1147V32.0108L10.5782 22.0055Z" fill="#006A4D"/>
<path d="M53.4792 20.3589L53.4791 81.1782L34.1875 92.2829L34.1875 29.7302C34.1875 27.4001 35.4391 25.2424 37.4677 24.0844L48.7677 17.6187C50.8682 16.4176 53.4792 17.9352 53.4792 20.3518L53.4792 20.3589Z" fill="black"/>
<path d="M42.1611 50.3087L42.1464 61.4492L48.5913 65.1678V54.0125L42.1611 50.3087Z" fill="#11B67A"/>
<path d="M55.0294 50.3023L55.0366 61.45L48.5913 65.1678V54.0125L55.0294 50.3023Z" fill="black"/>
<path d="M42.1611 50.3087L48.6059 46.5911L55.0294 50.3023L48.5913 54.0125L42.1611 50.3087Z" fill="#6CF479"/>
<path d="M74.0834 64.2405V86.6207C74.0834 89.1378 73.0982 91.1591 71.3647 92.1585C70.6164 92.5903 69.7676 92.8061 68.8614 92.8061C67.6959 92.8061 66.4446 92.4536 65.2074 91.7414C61.3016 89.4759 58.2372 84.1611 58.2372 79.6514V64.5065C58.2372 63.5857 57.4749 62.2697 56.6836 61.8092L52.1448 59.1913C51.2458 58.6736 50.9291 57.5084 51.4615 56.5952C51.9793 55.696 53.1448 55.3794 54.0438 55.8974L58.5826 58.5153C60.5462 59.6518 62.0352 62.2192 62.0352 64.4993V79.6442C62.0352 82.8304 64.3658 86.858 67.1064 88.4475C68.0772 89.0014 68.9691 89.1668 69.4729 88.8646C69.9906 88.5771 70.2929 87.7281 70.2929 86.6135V64.233C70.2929 63.183 71.1417 62.3344 72.1916 62.3344C73.2418 62.3344 74.0906 63.183 74.0906 64.233L74.0834 64.2405Z" fill="#6CF479"/>
<path d="M74.0834 64.2405L74.0834 70.4758C73.8676 70.5049 73.6518 70.512 73.4288 70.512C72.314 70.512 71.2494 70.2816 70.2929 69.8789V64.2402C70.2929 63.1902 71.1417 62.3416 72.1916 62.3416C73.2418 62.3416 74.0906 63.1902 74.0906 64.2402L74.0834 64.2405Z" fill="black"/>
<path d="M94.1015 44.2754L86.0958 58.2066L82.5135 56.1712L81.2116 55.4232V59.6597C81.2116 63.529 78.457 66.7582 74.7958 67.4773C74.292 67.5781 73.7743 67.6284 73.2418 67.6284C68.8399 67.6284 65.272 64.061 65.272 59.6597V48.7776C65.272 43.9735 67.3868 39.989 71.0768 37.86C74.7595 35.7385 79.0466 35.6807 83.2259 38.0901L94.109 44.2754H94.1015Z" fill="#6CF479"/>
<path d="M81.2116 55.4232V59.6597C81.2116 63.529 78.457 66.7582 74.7958 67.4773L74.7958 51.7119L81.2117 55.4161L81.2116 55.4232Z" fill="black"/>
<path d="M93.832 53.3948C96.0569 49.5419 96.0558 45.3772 93.8299 44.092C91.604 42.8071 87.9961 44.8886 85.7712 48.7415C83.5466 52.5941 83.5477 56.7591 85.7736 58.0444C87.9995 59.3292 91.6074 57.2477 93.832 53.3948Z" fill="black"/>
<path d="M88.3832 54.178C87.7143 54.178 87.6134 53.3797 87.6134 52.8979C87.6134 51.2219 88.8435 49.0932 90.2966 48.2518C90.7282 47.9998 91.0373 47.9496 91.2244 47.9496C91.8933 47.9496 91.9942 48.7479 91.9942 49.23C91.9942 50.9057 90.7641 53.0343 89.311 53.8761C88.8794 54.1277 88.5703 54.178 88.3904 54.178H88.3832Z" fill="#11B67A"/>
<path d="M21.4331 54.4993L12.3124 65.1799L19.1961 66.2371L14.0459 75.5437L24.3535 64.5539L17.2971 63.5327L21.4331 54.4993Z" fill="#6CF479"/>
<path d="M74.7956 55.3721C74.7306 59.3494 73.9971 63.1828 69.3933 63.1326C67.2067 63.1038 65.9695 61.4928 65.2862 59.9536C65.4445 64.2184 68.9402 67.6347 73.2416 67.6347C73.7741 67.6347 74.2918 67.5845 74.7956 67.4836C75.5219 67.34 76.2124 67.0952 76.8526 66.7646L74.7956 55.3721Z" fill="black"/>
<path d="M69.6957 40.3409C74.6014 36.7376 78.4062 37.6078 79.9167 38.0324C81.4273 38.4567 88.9296 42.6279 88.9296 42.6279C88.9296 42.6279 84.2975 40.3194 80.5569 40.9379C78.3129 41.3119 78.1258 42.9948 78.1258 42.9948C78.1258 42.9948 78.7732 39.852 75.0258 39.3269C72.3785 38.9528 69.6957 40.3481 69.6957 40.3481V40.3409Z" fill="white"/>
<path d="M20.7563 29.9421L11.9521 24.6703V40.2108C11.9521 40.2108 12.211 34.7752 15.2752 31.9343C18.4617 28.9782 20.7563 29.9421 20.7563 29.9421Z" fill="white"/>
</svg>
