<svg width="100" height="100" viewBox="0 0 100 100" fill="none" xmlns="http://www.w3.org/2000/svg">
<g clip-path="url(#clip0_15980_15443)">
<path d="M80.543 44.5656L73.6312 29.1484L71.1312 57.4866L79.8077 52.788L86.7195 67.3242L89.3666 39.7202L80.543 44.5656Z" fill="#006A4D"/>
<path d="M54.0745 61.053L33.2743 82.9225C26.5342 90.0059 15.8142 91.5564 7.34409 86.6543C-0.94597 81.8621 -2.56598 70.5773 4.03406 63.6343L24.8342 41.7645C31.5743 34.6815 42.2944 33.1308 50.7645 38.033C59.0545 42.8249 60.6745 54.11 54.0745 61.053Z" fill="#024731"/>
<path d="M54.0745 54.9107L33.2743 76.7804C26.5342 83.8635 15.8142 85.414 7.34409 80.512C-0.94597 75.7197 -2.56598 64.4349 4.03406 57.4919L24.8342 35.6222C31.5743 28.5391 42.2944 26.9885 50.7645 31.8906C59.0545 36.6826 60.6745 47.9677 54.0745 54.9107Z" fill="#006A4D"/>
<path d="M56.0146 44.4862C56.0146 37.313 48.8646 31.4905 40.0445 31.4905C35.0245 31.4905 30.5444 33.3813 27.6144 36.3326C20.4443 43.9858 13.2743 51.6492 6.11421 59.3026C3.61419 61.5937 2.08418 64.6049 2.08418 67.9165C2.08418 75.0894 9.23423 80.9121 18.0543 80.9121C23.2843 80.9121 27.9144 78.8612 30.8244 75.69C30.8244 75.69 30.8244 75.69 30.8344 75.69C37.9445 68.0965 45.0646 60.503 52.1746 52.9099C54.5646 50.639 56.0046 47.6977 56.0046 44.4762L56.0146 44.4862Z" fill="#11B67A"/>
<path d="M18.0642 81.2922C9.0541 81.2922 1.71404 75.2898 1.71404 67.9266C1.71404 64.6851 3.15405 61.5638 5.78407 59.1126L27.5543 35.8524H27.5743C30.6943 32.8511 35.2143 31.1303 40.0444 31.1303C49.0544 31.1303 56.3945 37.133 56.3945 44.4963C56.3945 47.6475 55.0245 50.699 52.5345 53.1099L52.4645 53.1901L30.9043 76.2001H30.8943C27.7643 79.4416 23.1142 81.2922 18.0642 81.2922ZM6.66408 59.2627L6.69408 59.2827L6.37408 59.5828C3.85406 61.8939 2.46405 64.8552 2.46405 67.9166C2.46405 74.8795 9.4641 80.5319 18.0642 80.5319C23.0242 80.5319 27.5743 78.6713 30.5643 75.4398L30.7843 75.1996H30.8043L51.6845 52.9299L51.6645 52.9099L51.9345 52.6398C54.3345 50.3589 55.6545 47.4576 55.6545 44.4763C55.6545 37.513 48.6544 31.8607 40.0544 31.8607C35.3143 31.8607 30.8743 33.5814 27.8943 36.5927L27.7743 36.7128L6.66408 59.2627Z" fill="#00482F"/>
<path d="M46.6846 38.3732C48.5046 38.3732 49.9746 37.3128 49.9746 36.0023C49.9746 34.6917 48.5046 33.6312 46.6846 33.6312C44.8646 33.6312 43.3946 34.6917 43.3946 36.0023C43.3946 37.3128 44.8646 38.3732 46.6846 38.3732Z" fill="#00482F"/>
<path d="M19.0243 70.1874L14.7943 67.6563C14.6943 67.5961 14.6643 67.4863 14.7243 67.4161L15.5343 66.6059C16.1343 66.0057 17.3443 65.8656 18.3243 66.3557C19.4443 66.926 19.8044 68.0064 19.1243 68.6768L19.6144 68.9769C20.2344 68.3465 20.2144 67.4161 19.4943 66.6758C18.2543 65.4052 16.0543 65.2953 15.0843 66.2656L14.2243 67.126C14.1543 67.1962 14.0143 67.1962 13.9143 67.126L13.7243 67.0159C13.3143 66.766 12.7443 66.7859 12.4843 67.0561L10.5243 69.0269C10.2543 69.297 10.3743 69.7173 10.7843 69.9672L16.0743 73.1387C16.4843 73.3889 17.0543 73.3686 17.3143 73.0988L19.2743 71.1277C19.5444 70.8575 19.4243 70.4376 19.0143 70.1874H19.0243ZM16.8343 72.8086C16.7443 72.8985 16.5443 72.9085 16.3943 72.8286L11.1043 69.6571C10.9643 69.5672 10.9143 69.4171 11.0143 69.327L12.9743 67.3562C13.0643 67.2661 13.2643 67.2561 13.4143 67.3363L18.7043 70.5075C18.8443 70.5977 18.8943 70.7477 18.7943 70.8376L16.8343 72.8086Z" fill="white"/>
<path d="M89.395 39.0733C81.9149 29.7892 70.7448 25.9876 62.4748 29.249L61.2048 29.0389C61.2048 29.0389 58.6347 31.46 58.5547 31.53C50.2647 38.2129 50.6447 52.4392 59.3947 63.2938C68.1448 74.1487 81.9549 77.5202 90.245 70.8373C90.705 70.467 95.005 66.4753 95.005 66.4753L94.755 64.7645C97.8551 57.4215 96.025 47.277 89.415 39.0733H89.395Z" fill="black"/>
<path d="M56.5645 45.2569L52.7544 48.2681C52.9044 49.4889 53.1645 50.7393 53.5045 51.98L57.3645 48.9286C57.0145 47.6981 56.7445 46.4674 56.5745 45.247L56.5645 45.2569Z" fill="#00482F"/>
<path d="M56.3345 40.965L52.6045 43.9163C52.5645 44.6366 52.5545 45.3467 52.5745 46.087L56.3445 43.0958C56.3045 42.3755 56.2945 41.6651 56.3145 40.955L56.3345 40.965Z" fill="#00482F"/>
<path d="M93.9749 67.3764C102.265 60.6935 101.885 46.4672 93.1349 35.6124C84.3848 24.7577 70.5747 21.3862 62.2846 28.0691C53.9946 34.7521 54.3746 48.9783 63.1246 59.8331C71.8747 70.6877 85.6848 74.0592 93.9749 67.3764Z" fill="#6CF479"/>
<path d="M69.2545 35.5325C70.0145 34.462 69.5745 32.8513 68.2745 31.9209C66.9745 31.0005 65.3045 31.1106 64.5445 32.181C63.7845 33.2515 64.2245 34.8622 65.5245 35.7926C66.8245 36.7131 68.4945 36.603 69.2545 35.5325Z" fill="#00482F"/>
<path d="M68.5246 23.7567C67.9946 19.3747 65.8446 15.463 62.6145 13.022C59.9145 10.9811 56.6545 10.1407 53.4445 10.6409C46.1944 11.7814 41.1244 19.4948 42.1344 27.8384C42.6444 32.0503 44.6644 35.8119 47.6844 38.2629C48.6944 38.023 49.4944 37.4527 49.8144 36.7124C49.7344 36.6522 49.6544 36.6123 49.5744 36.5523C46.8944 34.5214 45.1044 31.2399 44.6544 27.5383C43.8044 20.5353 47.9244 14.0924 53.8445 13.162C54.3145 13.082 54.7945 13.052 55.2645 13.052C57.3145 13.052 59.3445 13.7423 61.0845 15.0729C63.7645 17.1038 65.5546 20.3852 66.0046 24.0868C66.4046 27.3882 65.6945 30.5597 64.2045 33.0907C64.0745 34.0212 64.5345 35.0616 65.4646 35.7519C67.8246 32.5505 69.0646 28.2586 68.5246 23.7767V23.7567Z" fill="white"/>
<path d="M67.4848 22.0266C66.9148 19.8956 66.0748 18.2249 65.1348 16.9043C62.0548 12.5724 56.2447 11.1818 51.5347 13.6329C49.8347 14.5233 48.8647 15.4937 48.8647 15.4937L49.0147 15.5237C50.3947 14.3332 52.0447 13.5228 53.8647 13.2327C56.3647 12.8325 58.9148 13.5128 61.0448 15.1135C63.7048 17.1244 65.4848 20.3958 65.9348 24.0775C66.3248 27.2689 65.6648 30.3402 64.2748 32.8213C64.0648 33.6316 64.3348 34.5721 65.0048 35.2924C66.1148 33.7017 69.2248 28.5194 67.4948 22.0266H67.4848Z" fill="#11B67A"/>
<path d="M15.8341 75.2794C11.3941 75.2794 7.78405 72.6282 7.78405 69.3768C7.78405 66.1254 11.3941 63.4743 15.8341 63.4743C20.2742 63.4743 23.8842 66.1254 23.8842 69.3768C23.8842 72.6282 20.2742 75.2794 15.8341 75.2794ZM15.8341 64.1144C11.7441 64.1144 8.41406 66.4755 8.41406 69.3768C8.41406 72.2779 11.7441 74.6389 15.8341 74.6389C19.9241 74.6389 23.2542 72.2779 23.2542 69.3768C23.2542 66.4755 19.9241 64.1144 15.8341 64.1144Z" fill="#006A4D"/>
<path d="M39.0144 49.9585C34.5744 49.9585 30.9643 47.3073 30.9643 44.0559C30.9643 40.8045 34.5744 38.1534 39.0144 38.1534C43.4544 38.1534 47.0645 40.8045 47.0645 44.0559C47.0645 47.3073 43.4544 49.9585 39.0144 49.9585ZM39.0144 38.8035C34.9244 38.8035 31.5943 41.1645 31.5943 44.0659C31.5943 46.967 34.9244 49.328 39.0144 49.328C43.1044 49.328 46.4345 46.967 46.4345 44.0659C46.4345 41.1645 43.1044 38.8035 39.0144 38.8035Z" fill="#006A4D"/>
<path d="M42.7346 43.6757C43.2146 43.0655 43.1546 42.225 42.5046 41.5449C41.2846 40.2543 39.0846 40.1042 38.1046 41.0648L37.2345 41.9149C37.1645 41.9851 37.0245 41.9851 36.9245 41.9149L36.7345 41.8051C36.3245 41.5449 35.7645 41.5549 35.4845 41.8251L33.4945 43.7659C33.2245 44.0261 33.3345 44.4563 33.7445 44.7161L38.9846 47.9676C39.3946 48.2277 39.9546 48.2178 40.2346 47.9476L42.2246 46.0068C42.4946 45.7466 42.3846 45.3164 41.9746 45.0565L41.6746 44.8662L42.6046 43.8358L42.7446 43.6857L42.7346 43.6757ZM41.7346 45.6967L39.7446 47.6375C39.6446 47.7276 39.4546 47.7276 39.3046 47.6375L34.0645 44.3861C33.9245 44.2962 33.8845 44.1459 33.9745 44.056L35.9645 42.1152C36.0545 42.025 36.2545 42.025 36.4045 42.1152L41.6446 45.3666C41.7846 45.4565 41.8246 45.6065 41.7346 45.6967ZM41.3046 44.426C41.2346 44.5062 41.1146 44.5162 41.0346 44.4662L37.7845 42.4553C37.6846 42.3954 37.6546 42.2852 37.7246 42.215L38.5446 41.4148C39.1546 40.8246 40.3746 40.7045 41.3446 41.2148C42.4646 41.7951 42.7946 42.8855 42.1146 43.5456L41.3146 44.426H41.3046Z" fill="white"/>
<path d="M89.3666 39.2286C86.4272 40.9087 83.4977 42.5884 80.558 44.2684L73.5538 28.1209L73.1077 33.5781C72.4285 41.3362 71.1312 57.4937 71.1312 57.4937L79.8486 52.8104C79.8486 52.8104 79.8689 52.7799 79.8789 52.7696C82.2001 57.738 84.6228 62.6049 86.9439 67.4714C87.5116 61.1081 88.0287 54.7142 88.5657 48.3206C88.8293 45.2865 89.1031 42.2524 89.3666 39.2183V39.2286Z" fill="#006A4D"/>
<path d="M91.685 36.8931C86.6749 30.8305 80.0949 27.499 73.7448 26.4486C73.7448 26.4486 88.425 30.9005 87.4449 43.3161C87.4449 43.3161 95.505 41.6754 97.715 49.8888C97.085 45.6971 95.135 41.0449 91.685 36.8832V36.8931Z" fill="white"/>
<path d="M20.6721 43.5674L20.3073 44.2229L46.7017 58.9261L47.0664 58.2707L20.6721 43.5674Z" fill="#00482F"/>
<path d="M10.0411 54.9682L9.6743 55.6228L35.9724 70.3748L36.3395 69.7205L10.0411 54.9682Z" fill="#00482F"/>
<path d="M33.2443 59.5529C33.4043 59.1726 33.2543 58.6625 32.9543 58.3624C32.6543 58.0622 32.2343 57.9621 31.9643 57.622L31.8843 57.4919C32.2743 57.2717 32.6543 57.0418 33.0343 56.8215C33.1043 56.7916 33.2243 56.7616 33.3743 56.7816C33.5343 56.8015 33.6543 56.8817 33.7443 56.9516C33.8543 57.0318 33.9643 57.1116 34.0543 57.1918C34.2343 57.3419 34.5043 57.2118 34.4643 56.9819C34.4043 56.6715 33.9243 56.3916 33.6443 56.3014C32.7243 56.0113 32.3143 56.7217 31.5743 57.0318C31.4743 57.0318 31.1843 55.421 31.1243 55.261C30.9843 54.8907 30.6643 54.5407 30.3343 54.3104C29.7143 53.8802 28.7643 53.3002 28.1043 52.9499C26.8543 52.2898 26.0043 53.3102 24.8543 53.44C24.3943 53.4902 24.2643 53.3502 23.8743 53.1801C23.4043 52.9799 22.4143 52.5097 21.9443 52.5297C21.6243 52.5397 21.2643 52.7699 21.0743 53.0301C20.8943 53.28 20.7743 53.6203 20.5943 53.8802C20.5343 54.1504 20.5143 54.3606 20.6143 54.6308C20.7443 55.0008 20.9943 55.1908 21.3043 55.4111C20.9443 56.7416 22.4343 57.9321 23.5843 57.1818C23.6643 57.1319 23.8143 56.9516 23.8943 56.9819L28.3343 59.6829C27.9543 61.2035 29.8543 62.3141 30.9143 61.2035C31.0843 61.2737 31.2343 61.3735 31.4143 61.4138C31.8343 61.5136 32.2643 61.3037 32.4843 60.9636C32.7143 60.6133 33.0843 59.9431 33.2443 59.5728V59.5529ZM32.0643 60.6532C31.7543 61.1137 31.3543 60.8635 31.1143 60.7134C30.9943 60.6432 30.8843 60.5633 30.8043 60.5733C30.7443 60.5733 30.7143 60.6133 30.6443 60.7134C30.6043 60.7733 30.5643 60.8335 30.4943 60.8934C30.1843 61.1835 29.7243 61.2235 29.3243 60.9836C28.9243 60.7433 28.7243 60.3131 28.8043 59.8729C28.8243 59.7831 28.8543 59.7129 28.8743 59.643C28.9443 59.4627 28.9543 59.4427 28.8343 59.3429L23.8143 56.3114C23.7243 56.2815 23.6943 56.3114 23.5643 56.4715C23.5043 56.5516 23.4343 56.6315 23.3443 56.7017C23.0343 56.9316 22.6143 56.9316 22.2743 56.7217C22.2443 56.7017 22.2143 56.6814 22.1843 56.6615C21.8243 56.3916 21.6643 55.9514 21.7943 55.5312C21.8143 55.481 21.8343 55.421 21.8543 55.3711C21.9243 55.1808 21.9243 55.1609 21.8343 55.091C21.7843 55.0507 21.7143 55.0108 21.6343 54.9709C21.3543 54.8008 20.8743 54.5307 21.0843 54.0303C21.1643 53.8403 21.3743 53.4802 21.4943 53.3102C21.6643 53.07 21.9143 52.9699 22.1943 53.0401C22.5743 53.1299 22.9343 53.29 23.2843 53.4503C23.8643 53.7102 24.4143 53.9704 25.0643 53.8702C25.3143 53.8303 25.6843 53.6802 26.0343 53.5402C26.5743 53.3202 27.0843 53.1099 27.4243 53.1602C27.5443 53.1801 27.6843 53.2201 27.8343 53.3002C28.1543 53.4603 28.5743 53.7002 28.9943 53.9504C29.4143 54.2006 29.8243 54.4705 30.1143 54.6807C30.7043 55.101 30.7843 55.5911 30.8643 56.1114C30.8843 56.2715 30.9143 56.4415 30.9643 56.6215C31.1643 57.4018 31.4743 57.9222 31.9343 58.2422C31.9943 58.2822 32.0643 58.3224 32.1443 58.3723C32.4543 58.5424 32.9643 58.8325 32.7543 59.3828C32.6443 59.6829 32.2543 60.3733 32.0643 60.6532Z" fill="white"/>
</g>
<defs>
<clipPath id="clip0_15980_15443">
<rect width="100" height="100" fill="white"/>
</clipPath>
</defs>
</svg>
