<svg width="100" height="100" viewBox="0 0 100 100" fill="none" xmlns="http://www.w3.org/2000/svg">
<g clip-path="url(#clip0_15980_1401)">
<path d="M16.6348 52.2399C27.5156 48.5388 39.1346 46.4658 51.2592 46.4658C63.3837 46.4658 75.0128 48.5388 85.8936 52.2399C87.4408 52.7657 88.6744 53.8578 89.4228 55.2331L82.8397 40.8737C81.9802 39.3973 80.6049 38.2445 78.906 37.6883C70.1893 34.867 60.9163 33.2895 51.2592 33.2895C41.602 33.2895 32.329 34.867 23.6123 37.6883C21.9033 38.2445 20.5381 39.3973 19.6786 40.8737L13.0956 55.2331C13.854 53.8578 15.0775 52.7657 16.6247 52.2399H16.6348Z" fill="#6CF479"/>
<path d="M90.2517 58.378C90.2517 55.6174 88.5025 53.1297 85.8936 52.2399C75.0128 48.5388 63.3938 46.4658 51.2592 46.4658C39.1245 46.4658 27.5055 48.5388 16.6348 52.2399C14.0158 53.1297 12.2863 55.6174 12.2863 58.378V94.8023C12.2863 97.6742 14.6121 100 17.484 100H85.054C87.9259 100 90.2517 97.6742 90.2517 94.8023V58.378Z" fill="#11B67A"/>
<path d="M12.2764 94.7924C12.2764 94.7924 12.782 97.5126 17.5145 97.5126H86.6924V99.9901H17.2617C17.2617 99.9901 12.5191 100.051 12.2764 94.7924Z" fill="#024731"/>
<path d="M19.6786 40.8737L13.0956 55.2331C13.854 53.8578 15.0775 52.7657 16.6247 52.2399C21.0842 50.723 25.6752 49.4994 30.3673 48.559C41.5716 43.3916 36.0301 37.4254 44.1401 33.5828C37.0312 34.1592 30.165 35.5749 23.6123 37.6984C21.9033 38.2546 20.5381 39.4074 19.6786 40.8838V40.8737Z" fill="#024731"/>
<path d="M70.9173 41.4501C68.3893 41.8647 66.1646 42.3501 64.4961 42.7444C64.0107 42.8658 64.1017 43.5736 64.6073 43.5838C71.0387 43.6646 73.8701 43.9781 73.8701 43.9781V41.2175L70.9173 41.4501Z" fill="black"/>
<path d="M76.9039 43.1287V29.9727C76.9039 15.8863 65.4366 4.41905 51.3502 4.41905C37.2639 4.41905 25.7966 15.8863 25.7966 29.9727V43.1692C25.837 43.9074 27.1718 44.2714 28.8201 43.9883C30.4887 43.695 31.8538 42.8456 31.8538 42.0872V29.9727C31.8538 19.2234 40.6009 10.4864 51.3401 10.4864C62.0793 10.4864 70.8264 19.2335 70.8264 29.9727V42.0872C70.8264 42.8456 72.1916 43.7051 73.8601 43.9883C75.5084 44.2714 76.8533 43.8669 76.9039 43.1287Z" fill="white"/>
<path d="M26.9085 43.9984C26.9085 43.9984 27.8793 44.2309 29.0625 43.9276V30.994C29.0625 30.994 27.9097 14.2684 42.4915 7.16958C42.4915 7.16958 26.9085 12.1246 26.9085 30.994V43.9984Z" fill="black"/>
<path d="M60.5722 10.9718C73.5462 17.2919 72.5148 32.167 72.5148 32.167V43.604C73.4957 43.9984 74.4361 44.0489 74.4361 44.0489V32.1772C74.4361 15.3908 60.5722 10.9819 60.5722 10.9819V10.9718Z" fill="black"/>
<path d="M5.12691 23.0461C5.12691 23.0461 6.81567 28.628 13.6414 30.1651C13.6414 30.1651 8.46397 31.055 8.36285 37.2639C8.36285 37.2639 6.54262 31.8842 0 30.155C0 30.155 5.47073 29.5078 5.12691 23.036V23.0461Z" fill="white"/>
<path d="M86.8035 0C86.8035 0 89.4125 8.64597 99.9899 11.0426C99.9899 11.0426 91.9709 12.4279 91.8192 22.0447C91.8192 22.0447 88.9979 13.7021 78.8553 11.0325C78.8553 11.0325 87.3293 10.0313 86.8035 0Z" fill="white"/>
<path d="M70.0577 61.4723C70.3914 61.9678 70.6948 62.4734 70.9881 62.9892H90.2822V61.4723H70.0577Z" fill="#00482F"/>
<path d="M73.506 69.6629H90.2822V68.146H73.1419C73.2835 68.6415 73.4049 69.1471 73.5161 69.6629H73.506Z" fill="#00482F"/>
<path d="M90.2721 76.3277V74.8108H73.961C73.9509 75.3164 73.9206 75.822 73.8801 76.3277H90.2721Z" fill="#00482F"/>
<path d="M72.2927 83.0013H90.2823V81.4845H72.8488C72.6769 82.0002 72.4949 82.5058 72.2927 83.0013Z" fill="#00482F"/>
<path d="M68.1263 89.675H90.2822V88.1582H69.3802C68.9859 88.684 68.5713 89.1896 68.1364 89.675H68.1263Z" fill="#00482F"/>
<path d="M31.8939 61.4723H12.2458V62.9892H30.9635C31.2568 62.4734 31.5703 61.9678 31.8939 61.4723Z" fill="#00482F"/>
<path d="M28.8099 68.146H12.2359V69.6629H28.4357C28.5368 69.1471 28.6683 68.6415 28.8099 68.146Z" fill="#00482F"/>
<path d="M27.9706 74.8108H12.2359V76.3277H28.0515C28.011 75.822 27.9807 75.3164 27.9706 74.8108Z" fill="#00482F"/>
<path d="M29.093 81.4845H12.2359V83.0013H29.6492C29.447 82.5058 29.2649 82.0002 29.093 81.4845Z" fill="#00482F"/>
<path d="M12.2359 88.1582V89.675H33.8154C33.3806 89.1896 32.966 88.684 32.5716 88.1582H12.2359Z" fill="#00482F"/>
<path d="M36.1095 79.183C36.5065 79.183 36.8284 79.5164 36.8285 79.9276V83.221C36.8285 85.0211 38.2425 86.4857 39.9806 86.4857H43.1605C43.5574 86.4857 43.8793 86.8192 43.8794 87.2303C43.8794 87.6415 43.5575 87.9749 43.1605 87.9749H39.9806C37.4497 87.9749 35.3906 85.8423 35.3906 83.221V79.9276C35.3907 79.5164 35.7126 79.183 36.1095 79.183ZM62.988 79.183C63.3849 79.183 63.7068 79.5164 63.7069 79.9276V83.221C63.7069 85.8423 61.6478 87.9749 59.1169 87.9749H55.937C55.5401 87.9748 55.2181 87.6415 55.2181 87.2303C55.2182 86.8193 55.5402 86.4858 55.937 86.4857H59.1169C60.855 86.4857 62.269 85.0211 62.269 83.221V79.9276C62.2691 79.5165 62.5911 79.1831 62.988 79.183ZM53.4959 79.1899C53.7988 78.9002 54.2708 78.9197 54.5506 79.2334C54.8302 79.547 54.8117 80.0358 54.5091 80.3256C53.1547 81.6213 51.3926 82.3351 49.5478 82.3352C47.7028 82.3352 45.9409 81.6213 44.5864 80.3256C44.2837 80.0359 44.2645 79.5471 44.544 79.2334C44.8238 78.9197 45.2967 78.9002 45.5996 79.1899C46.6774 80.2209 48.0796 80.7887 49.5478 80.7887C51.016 80.7886 52.4182 80.2209 53.4959 79.1899ZM50.2924 68.9325C50.7046 68.9325 51.0389 69.2787 51.0389 69.7057V75.2043C51.0389 76.2939 50.1831 77.1803 49.131 77.1803H48.5227C48.1105 77.1801 47.7761 76.834 47.7761 76.4071C47.7762 75.9802 48.1106 75.634 48.5227 75.6338H49.131C49.3597 75.6338 49.5458 75.4411 49.5458 75.2043V69.7057C49.5459 69.2788 49.8802 68.9327 50.2924 68.9325ZM43.7856 68.9325C44.1747 68.9328 44.4907 69.2601 44.4907 69.6633V71.8684C44.4905 72.2714 44.1746 72.5979 43.7856 72.5982C43.3963 72.5982 43.0807 72.2715 43.0805 71.8684V69.6633C43.0805 69.2599 43.3962 68.9325 43.7856 68.9325ZM55.4798 68.9325C55.8692 68.9325 56.1849 69.2599 56.1849 69.6633V71.8684C56.1847 72.2715 55.8691 72.5982 55.4798 72.5982C55.0907 72.5979 54.7749 72.2714 54.7747 71.8684V69.6633C54.7747 69.2601 55.0906 68.9327 55.4798 68.9325ZM43.1605 58.6504C43.5575 58.6504 43.8794 58.9838 43.8794 59.395C43.8794 59.8062 43.5575 60.1396 43.1605 60.1396H39.9806C38.2425 60.1396 36.8285 61.6041 36.8285 63.4043V66.6977C36.8285 67.1089 36.5066 67.4423 36.1095 67.4423C35.7125 67.4423 35.3906 67.1089 35.3906 66.6977V63.4043C35.3906 60.783 37.4497 58.6504 39.9806 58.6504H43.1605ZM59.1169 58.6504C61.6478 58.6504 63.7069 60.783 63.7069 63.4043V66.6977C63.7069 67.1089 63.385 67.4423 62.988 67.4423C62.591 67.4422 62.269 67.1089 62.269 66.6977V63.4043C62.269 61.6041 60.855 60.1396 59.1169 60.1396H55.937C55.5401 60.1395 55.2181 59.8061 55.2181 59.395C55.2181 58.9838 55.5401 58.6505 55.937 58.6504H59.1169Z" fill="#024731"/>
</g>
<defs>
<clipPath id="clip0_15980_1401">
<rect width="100" height="100" fill="white"/>
</clipPath>
</defs>
</svg>
