<svg width="100" height="100" viewBox="0 0 100 100" fill="none" xmlns="http://www.w3.org/2000/svg">
<path d="M84.5532 81.0473H0V85.3114H84.5532V81.0473Z" fill="#024731"/>
<path d="M73.1275 60.068H11.4341L0.263511 84.1912C-0.57811 86.0028 0.73958 88.0879 2.72887 88.0879H81.8328C83.8221 88.0879 85.1398 86.0114 84.2982 84.1912L73.1275 60.068Z" fill="#024731"/>
<path d="M73.1275 55.8555H11.4341L0.263511 79.9787C-0.57811 81.7903 0.73958 83.8754 2.72887 83.8754H81.8328C83.8221 83.8754 85.1398 81.7988 84.2982 79.9787L73.1275 55.8555Z" fill="#6CF479"/>
<path d="M14.2906 12.0879H70.2626C71.7674 12.0879 72.983 13.3184 72.983 14.8224V54.2671H11.5702V14.8224C11.5702 13.3099 12.7943 12.0879 14.2906 12.0879Z" fill="#11B67A"/>
<path d="M42.2766 17.6669C42.8775 17.6669 43.3647 17.1771 43.3647 16.573C43.3647 15.969 42.8775 15.4793 42.2766 15.4793C41.6756 15.4793 41.1884 15.969 41.1884 16.573C41.1884 17.1771 41.6756 17.6669 42.2766 17.6669Z" fill="#6CF479"/>
<path d="M75.95 70.8711L71.1553 60.6766C70.8578 60.0357 70.2202 59.6341 69.5146 59.6341H15.0472C14.3416 59.6341 13.704 60.0442 13.4065 60.6766L8.61179 70.8711C8.18673 71.7769 8.84132 72.8279 9.84447 72.8279H25.1892C25.7418 72.8279 26.1753 73.3236 26.0903 73.879L25.9118 75.0155C25.7843 75.8444 26.4219 76.5964 27.255 76.5964H57.2983C58.1314 76.5964 58.769 75.8444 58.6415 75.0155L58.463 73.879C58.378 73.3236 58.803 72.8279 59.3641 72.8279H74.7088C75.712 72.8279 76.3666 71.7854 75.9415 70.8711H75.95Z" fill="#024731"/>
<path d="M66.4031 24.2381H53.9658C53.0268 24.2381 52.2655 25.0033 52.2655 25.9472V43.1402C52.2655 44.0841 53.0268 44.8492 53.9658 44.8492H66.4031C67.3421 44.8492 68.1033 44.0841 68.1033 43.1402V25.9472C68.1033 25.0033 67.3421 24.2381 66.4031 24.2381Z" fill="#00482F"/>
<path d="M99.966 72.3077C99.7875 74.3329 98.4783 77.0332 93.5816 77.0332C90.6487 77.0332 88.0133 75.6318 86.7551 72.9999L83.2016 65.5485C83.0486 65.2323 83.0061 64.8648 83.0656 64.4973L83.2866 63.2925C83.3971 62.6602 83.8477 62.1474 84.4173 61.874C86.0835 61.0878 88.7614 60.5409 91.7793 60.9767C93.352 61.1989 94.7803 61.9594 95.8344 63.1301C97.5942 65.0699 100.272 68.676 99.9575 72.3077H99.966Z" fill="#11B67A"/>
<path d="M100 71.6912C99.2094 74.8786 95.9534 75.5537 93.0035 75.3571C92.0599 75.2973 90.9887 74.9896 90.3171 74.6478C89.1014 74.0411 88.1578 73.0157 87.5287 71.8108L83.7287 64.5132C83.2016 63.4536 83.5841 62.5648 83.5841 62.5648C83.5841 62.5648 83.3546 62.8811 83.2951 63.2827L83.0741 64.4875C83.0061 64.855 83.0571 65.2225 83.2101 65.5387L86.7636 72.9901C88.0218 75.622 90.6572 77.0234 93.5901 77.0234C98.4783 77.0234 100 74.3829 100 71.6827V71.6912Z" fill="#024731"/>
<path d="M95.6813 64.3006C95.6813 64.3006 97.6281 66.4711 98.5548 69.4448C99.1243 71.2906 98.0872 73.2816 96.2339 73.7943C95.5708 73.9823 94.7547 74.1105 93.7431 74.1447C93.7431 74.1447 99.7789 71.4444 95.6813 64.3006Z" fill="white"/>
<path d="M65.06 38.0402C64.7539 36.9208 64.2693 36.502 63.3342 36.1944L61.9655 35.7073C61.8465 35.8013 61.7275 35.9038 61.6 35.9807C61.1324 36.2627 60.6478 36.408 60.1718 36.408C59.6957 36.408 59.2111 36.2627 58.7435 35.9807C58.616 35.9038 58.497 35.8013 58.3695 35.7073L57.0008 36.1944C56.0742 36.502 55.5811 36.9208 55.275 38.0402L54.901 39.5613H65.4255L65.0515 38.0402H65.06ZM59.3981 34.8785C59.6277 35.0152 59.8912 35.1262 60.1803 35.1262C60.4693 35.1262 60.7328 35.0238 60.9624 34.8785C61.4809 34.5709 61.855 34.0581 62.0675 33.4856C62.3141 32.7934 62.3396 32.1782 62.3396 32.1782C62.4076 30.5973 61.3704 29.8026 60.1888 29.8026C59.0071 29.8026 57.9699 30.5973 58.0379 32.1782C58.0379 32.1782 58.0549 32.7934 58.31 33.4856C58.514 34.0581 58.8881 34.5623 59.4151 34.8785H59.3981Z" fill="white"/>
<path d="M48.2869 24.2381H35.8496C34.9106 24.2381 34.1494 25.0033 34.1494 25.9472V43.1402C34.1494 44.0841 34.9106 44.8492 35.8496 44.8492H48.2869C49.2259 44.8492 49.9872 44.0841 49.9872 43.1402V25.9472C49.9872 25.0033 49.2259 24.2381 48.2869 24.2381Z" fill="#00482F"/>
<path d="M46.9523 38.0402C46.6463 36.9208 46.1617 36.502 45.2266 36.1944L43.8579 35.7073C43.7388 35.8013 43.6198 35.9038 43.4923 35.9807C43.0247 36.2627 42.5402 36.408 42.0641 36.408C41.588 36.408 41.1035 36.2627 40.6359 35.9807C40.5084 35.9038 40.3894 35.8013 40.2618 35.7073L38.8931 36.1944C37.9665 36.502 37.4734 36.9208 37.1674 38.0402L36.7933 39.5613H47.3179L46.9438 38.0402H46.9523ZM41.282 34.8785C41.5115 35.0152 41.7751 35.1262 42.0641 35.1262C42.3531 35.1262 42.6167 35.0238 42.8462 34.8785C43.3648 34.5709 43.7388 34.0581 43.9514 33.4856C44.1979 32.7934 44.2234 32.1782 44.2234 32.1782C44.2914 30.5973 43.2543 29.8026 42.0726 29.8026C40.8909 29.8026 39.8538 30.5973 39.9218 32.1782C39.9218 32.1782 39.9388 32.7934 40.1938 33.4856C40.3979 34.0581 40.7719 34.5623 41.299 34.8785H41.282Z" fill="white"/>
<path d="M30.1709 24.2381H17.7337C16.7946 24.2381 16.0334 25.0033 16.0334 25.9472V43.1402C16.0334 44.0841 16.7946 44.8492 17.7337 44.8492H30.1709C31.11 44.8492 31.8712 44.0841 31.8712 43.1402V25.9472C31.8712 25.0033 31.11 24.2381 30.1709 24.2381Z" fill="#6CF479"/>
<path d="M28.8363 38.0402C28.5303 36.9208 28.0457 36.502 27.1106 36.1944L25.7419 35.7073C25.6229 35.8013 25.5039 35.9038 25.3763 35.9807C24.9088 36.2627 24.4242 36.408 23.9481 36.408C23.4721 36.408 22.9875 36.2627 22.5199 35.9807C22.3924 35.9038 22.2734 35.8013 22.1459 35.7073L20.7772 36.1944C19.8506 36.502 19.3575 36.9208 19.0514 38.0402L18.6774 39.5613H29.2019L28.8278 38.0402H28.8363ZM23.166 34.8785C23.3956 35.0152 23.6591 35.1262 23.9481 35.1262C24.2372 35.1262 24.5007 35.0238 24.7303 34.8785C25.2488 34.5709 25.6229 34.0581 25.8354 33.4856C26.082 32.7934 26.1075 32.1782 26.1075 32.1782C26.1755 30.5973 25.1383 29.8026 23.9566 29.8026C22.775 29.8026 21.7378 30.5973 21.8058 32.1782C21.8058 32.1782 21.8228 32.7934 22.0779 33.4856C22.2819 34.0581 22.656 34.5623 23.183 34.8785H23.166Z" fill="#024731"/>
</svg>
