<svg width="100" height="100" viewBox="0 0 100 100" fill="none" xmlns="http://www.w3.org/2000/svg">
<path d="M26.2611 100L41.7268 73.2911V100H45.2377V73.2911L60.7034 100H64.7586L43.4823 63.2589L22.206 100H26.2611Z" fill="#024731"/>
<path d="M76.0024 4.70877H9.20664C8.23712 4.70877 7.45117 5.49264 7.45117 6.4596V80.6422C7.45117 81.6091 8.23712 82.393 9.20664 82.393H76.0024C76.9719 82.393 77.7579 81.6091 77.7579 80.6422V6.4596C77.7579 5.49264 76.9719 4.70877 76.0024 4.70877Z" fill="#11B67A"/>
<path d="M9.20664 3.39661H76.0024C76.4676 3.39661 76.9065 3.51038 77.3014 3.69422L76.1077 1.03298C75.8269 0.402684 75.1948 0 74.5014 0H10.7076C10.0142 0 9.39097 0.402684 9.10132 1.03298L7.90761 3.69422C8.30259 3.51038 8.74144 3.39661 9.20664 3.39661Z" fill="#024731"/>
<path d="M58.5003 63.5996C58.5003 63.5996 57.21 71.8461 55.1824 76.1443L69.1648 77.7813L69.4106 75.7679L57.2802 74.3585L58.5003 63.6084V63.5996ZM17.3872 61.595C17.3872 61.595 15.0787 69.6225 12.5333 73.6319L26.2085 76.9847L26.7 75.0151L14.8417 72.1087L17.3872 61.5862V61.595ZM24.1809 57.6293L38.251 58.0758L38.3212 56.0536L26.1118 55.6772L26.4103 44.8571C26.4103 44.8571 25.8222 53.1822 24.1809 57.6381V57.6293ZM60.6946 47.6059L71.9647 47.5183V45.4873L59.7467 45.5837L59.6151 34.7635C59.6151 34.7635 59.3956 41.6355 58.2545 46.2752L48.7487 49.4792L45.2377 39.2456C45.2377 39.2456 47.6076 47.2557 47.6252 52.0004L60.6946 47.5971V47.6059ZM36.6886 41.0052L36.6008 38.983L24.4003 39.5433L23.8649 28.7319C23.8649 28.7319 23.9263 37.0834 22.6273 41.6443L36.6886 41.0052ZM45.9926 28.478L59.9047 26.3246L59.5975 24.3198L47.5286 26.1932L45.8259 15.5044C45.8259 15.5044 46.7913 23.7946 45.9926 28.478ZM38.4529 71.6447L36.75 60.9559C36.75 60.9559 37.7156 69.2461 36.9168 73.9296L50.8289 71.776L50.5217 69.7713L38.4529 71.6447Z" fill="#00482F"/>
<path d="M80.7246 44.2872C80.7246 44.2872 83.0418 51.9558 92.4512 54.0743C92.4512 54.0743 85.3239 55.2999 85.1835 63.8352C85.1835 63.8352 82.6732 56.4379 73.6588 54.0656C73.6588 54.0656 81.1898 53.1726 80.7246 44.2872Z" fill="white"/>
<path d="M57.237 74.3968L69.8608 75.8669L71.3349 63.2764L58.711 61.8063L57.237 74.3968Z" fill="#6CF479"/>
<path d="M14.9057 72.0498L27.2484 75.0735L30.2801 62.7633L17.9374 59.7397L14.9057 72.0498Z" fill="#6CF479"/>
<path d="M26.1062 55.684L38.8097 56.0778L39.2044 43.4079L26.501 43.0141L26.1062 55.684Z" fill="#6CF479"/>
<path d="M72.4476 45.4869L72.3511 32.8109L59.6415 32.916L59.7205 42.2829L56.7186 33.4237L44.6761 37.4857L48.7488 49.4875L60.3349 45.5832L72.4476 45.4869Z" fill="#6CF479"/>
<path d="M24.3695 39.582L37.0658 39.0004L36.4826 26.3377L23.7863 26.9194L24.3695 39.582Z" fill="#6CF479"/>
<path d="M47.5532 26.1256L60.1122 24.1798L58.1612 11.6541L45.6023 13.5999L47.5532 26.1256Z" fill="#6CF479"/>
<path d="M38.4927 71.5822L51.0517 69.6364L49.1007 57.1106L36.5417 59.0564L38.4927 71.5822Z" fill="#6CF479"/>
<path d="M20.8366 62.1544C20.8366 62.1544 22.0567 66.19 27.0071 67.3018C27.0071 67.3018 23.2592 67.9496 23.1802 72.4405C23.1802 72.4405 21.8636 68.5449 17.1151 67.3018C17.1151 67.3018 21.0824 66.8291 20.8366 62.1544Z" fill="#024731"/>
<path d="M52.0226 14.1024C52.0226 14.1024 53.2427 18.138 58.1931 19.2498C58.1931 19.2498 54.4452 19.8976 54.3662 24.3885C54.3662 24.3885 53.0496 20.4929 48.301 19.2498C48.301 19.2498 52.2684 18.7771 52.0226 14.1024Z" fill="#024731"/>
<path d="M16.8841 26.4148L29.4764 28.1329L31.1991 15.5739L18.6068 13.8558L16.8841 26.4148Z" fill="#6CF479"/>
<path d="M14.7013 28.2131L28.6485 30.1215L28.9294 28.1168L16.8342 26.471L18.2649 15.7472C18.2649 15.7472 16.8078 23.9673 14.7013 28.2218V28.2131Z" fill="#00482F"/>
</svg>
