<svg width="100" height="100" viewBox="0 0 100 100" fill="none" xmlns="http://www.w3.org/2000/svg">
<g clip-path="url(#clip0_15980_15472)">
<rect width="100" height="100" fill="#F1F1F1"/>
<path d="M84.5864 80.9594H0.0332031V85.2235H84.5864V80.9594Z" fill="black"/>
<path d="M73.1607 59.9801H11.4673L0.296714 84.1033C-0.544907 85.9149 0.772783 88 2.76207 88H81.866C83.8553 88 85.173 85.9235 84.3314 84.1033L73.1607 59.9801Z" fill="black"/>
<path d="M73.1607 55.7676H11.4673L0.296714 79.8908C-0.544907 81.7024 0.772783 83.7875 2.76207 83.7875H81.866C83.8553 83.7875 85.173 81.7109 84.3314 79.8908L73.1607 55.7676Z" fill="#6CF479"/>
<path d="M14.3238 12H70.2959C71.8006 12 73.0162 13.2305 73.0162 14.7345V54.1793H11.6034V14.7345C11.6034 13.222 12.8276 12 14.3238 12Z" fill="#11B67A"/>
<path d="M42.3098 17.579C42.9107 17.579 43.3979 17.0892 43.3979 16.4852C43.3979 15.8811 42.9107 15.3914 42.3098 15.3914C41.7088 15.3914 41.2216 15.8811 41.2216 16.4852C41.2216 17.0892 41.7088 17.579 42.3098 17.579Z" fill="white"/>
<path d="M75.9832 70.7832L71.1885 60.5887C70.891 59.9478 70.2534 59.5462 69.5478 59.5462H15.0804C14.3748 59.5462 13.7372 59.9564 13.4397 60.5887L8.64499 70.7832C8.21993 71.689 8.87453 72.74 9.87767 72.74H25.2224C25.775 72.74 26.2085 73.2357 26.1235 73.7912L25.945 74.9276C25.8175 75.7565 26.4551 76.5085 27.2882 76.5085H57.3315C58.1646 76.5085 58.8022 75.7565 58.6747 74.9276L58.4962 73.7912C58.4112 73.2357 58.8362 72.74 59.3973 72.74H74.742C75.7452 72.74 76.3998 71.6976 75.9747 70.7832H75.9832Z" fill="black"/>
<path d="M66.4363 24.1503H53.999C53.06 24.1503 52.2987 24.9154 52.2987 25.8593V43.0523C52.2987 43.9962 53.06 44.7614 53.999 44.7614H66.4363C67.3753 44.7614 68.1365 43.9962 68.1365 43.0523V25.8593C68.1365 24.9154 67.3753 24.1503 66.4363 24.1503Z" fill="#00482F"/>
<path d="M99.9992 72.2198C99.8207 74.245 98.5115 76.9453 93.6148 76.9453C90.6819 76.9453 88.0465 75.5439 86.7883 72.912L83.2348 65.4606C83.0818 65.1444 83.0393 64.7769 83.0988 64.4095L83.3198 63.2046C83.4303 62.5723 83.8809 62.0596 84.4505 61.7861C86.1167 61 88.7946 60.453 91.8125 60.8888C93.3852 61.111 94.8135 61.8715 95.8676 63.0422C97.6274 64.982 100.305 68.5881 99.9907 72.2198H99.9992Z" fill="#11B67A"/>
<path d="M100.033 71.6033C99.2426 74.7907 95.9866 75.4658 93.0367 75.2693C92.0931 75.2094 91.0219 74.9017 90.3503 74.5599C89.1346 73.9532 88.191 72.9278 87.5619 71.723L83.7619 64.4253C83.2348 63.3657 83.6173 62.477 83.6173 62.477C83.6173 62.477 83.3878 62.7932 83.3283 63.1948L83.1073 64.3996C83.0393 64.7671 83.0903 65.1346 83.2433 65.4508L86.7968 72.9022C88.055 75.5341 90.6904 76.9355 93.6233 76.9355C98.5115 76.9355 100.033 74.2951 100.033 71.5948V71.6033Z" fill="black"/>
<path d="M95.7145 64.2127C95.7145 64.2127 97.6613 66.3832 98.588 69.357C99.1575 71.2027 98.1204 73.1937 96.2671 73.7065C95.604 73.8944 94.7879 74.0227 93.7763 74.0568C93.7763 74.0568 99.8121 71.3565 95.7145 64.2127Z" fill="#6CF479"/>
<path d="M65.0932 37.9523C64.7871 36.8329 64.3026 36.4141 63.3674 36.1065L61.9987 35.6195C61.8797 35.7135 61.7607 35.8159 61.6332 35.8929C61.1656 36.1748 60.681 36.3201 60.205 36.3201C59.7289 36.3201 59.2443 36.1748 58.7768 35.8929C58.6492 35.8159 58.5302 35.7135 58.4027 35.6195L57.034 36.1065C56.1074 36.4141 55.6143 36.8329 55.3083 37.9523L54.9342 39.4734H65.4587L65.0847 37.9523H65.0932ZM59.4314 34.7906C59.6609 34.9273 59.9244 35.0383 60.2135 35.0383C60.5025 35.0383 60.766 34.9359 60.9956 34.7906C61.5141 34.483 61.8882 33.9702 62.1007 33.3977C62.3473 32.7056 62.3728 32.0903 62.3728 32.0903C62.4408 30.5094 61.4036 29.7147 60.222 29.7147C59.0403 29.7147 58.0031 30.5094 58.0711 32.0903C58.0711 32.0903 58.0882 32.7056 58.3432 33.3977C58.5472 33.9702 58.9213 34.4744 59.4483 34.7906H59.4314Z" fill="#6CF479"/>
<path d="M48.3201 24.1503H35.8828C34.9438 24.1503 34.1826 24.9154 34.1826 25.8593V43.0523C34.1826 43.9962 34.9438 44.7614 35.8828 44.7614H48.3201C49.2591 44.7614 50.0204 43.9962 50.0204 43.0523V25.8593C50.0204 24.9154 49.2591 24.1503 48.3201 24.1503Z" fill="#00482F"/>
<path d="M46.9855 37.9523C46.6795 36.8329 46.1949 36.4141 45.2598 36.1065L43.8911 35.6195C43.772 35.7135 43.653 35.8159 43.5255 35.8929C43.0579 36.1748 42.5734 36.3201 42.0973 36.3201C41.6212 36.3201 41.1367 36.1748 40.6691 35.8929C40.5416 35.8159 40.4226 35.7135 40.295 35.6195L38.9263 36.1065C37.9997 36.4141 37.5066 36.8329 37.2006 37.9523L36.8265 39.4734H47.3511L46.977 37.9523H46.9855ZM41.3152 34.7906C41.5447 34.9273 41.8083 35.0383 42.0973 35.0383C42.3863 35.0383 42.6499 34.9359 42.8794 34.7906C43.398 34.483 43.772 33.9702 43.9846 33.3977C44.2311 32.7056 44.2566 32.0903 44.2566 32.0903C44.3246 30.5094 43.2875 29.7147 42.1058 29.7147C40.9241 29.7147 39.887 30.5094 39.955 32.0903C39.955 32.0903 39.972 32.7056 40.227 33.3977C40.4311 33.9702 40.8051 34.4744 41.3322 34.7906H41.3152Z" fill="#6CF479"/>
<path d="M30.2042 24.1503H17.7669C16.8278 24.1503 16.0666 24.9154 16.0666 25.8593V43.0523C16.0666 43.9962 16.8278 44.7614 17.7669 44.7614H30.2042C31.1432 44.7614 31.9044 43.9962 31.9044 43.0523V25.8593C31.9044 24.9154 31.1432 24.1503 30.2042 24.1503Z" fill="#6CF479"/>
<path d="M28.8695 37.9523C28.5635 36.8329 28.0789 36.4141 27.1438 36.1065L25.7751 35.6195C25.6561 35.7135 25.5371 35.8159 25.4096 35.8929C24.942 36.1748 24.4574 36.3201 23.9813 36.3201C23.5053 36.3201 23.0207 36.1748 22.5531 35.8929C22.4256 35.8159 22.3066 35.7135 22.1791 35.6195L20.8104 36.1065C19.8838 36.4141 19.3907 36.8329 19.0846 37.9523L18.7106 39.4734H29.2351L28.8611 37.9523H28.8695ZM23.1992 34.7906C23.4288 34.9273 23.6923 35.0383 23.9813 35.0383C24.2704 35.0383 24.5339 34.9359 24.7635 34.7906C25.282 34.483 25.6561 33.9702 25.8686 33.3977C26.1152 32.7056 26.1407 32.0903 26.1407 32.0903C26.2087 30.5094 25.1715 29.7147 23.9898 29.7147C22.8082 29.7147 21.771 30.5094 21.839 32.0903C21.839 32.0903 21.856 32.7056 22.1111 33.3977C22.3151 33.9702 22.6892 34.4744 23.2162 34.7906H23.1992Z" fill="#00482F"/>
</g>
<defs>
<clipPath id="clip0_15980_15472">
<rect width="100" height="100" fill="white"/>
</clipPath>
</defs>
</svg>
