<svg width="100" height="100" viewBox="0 0 100 100" fill="none" xmlns="http://www.w3.org/2000/svg">
<rect width="100" height="100" fill="#F1F1F1"/>
<path d="M72.3974 19.1108C63.693 19.1108 56.2348 24.1618 52.9117 31.7336C49.598 24.1618 42.1303 19.1108 33.426 19.1108C21.8233 19.1108 12.4392 28.1176 12.2881 40.5704C13.1189 71.7071 53.3271 93.5916 53.3271 93.5916C53.3271 93.5916 93.5352 71.7071 93.5352 40.5704C93.5352 28.7879 84 19.1108 72.3974 19.1108Z" fill="#11B67A"/>
<path d="M20.7658 21.5036C24.3344 19.0961 28.6677 17.7082 33.4258 17.7082C34.4926 17.7082 35.5406 17.7838 36.5696 17.9254C33.8696 16.7075 30.8674 16.0277 27.6953 16.0277C23.0599 16.0277 18.7549 17.5761 15.2619 20.1818L20.7658 21.4941V21.5036Z" fill="black"/>
<path d="M52.9115 28.6861C56.9332 21.9358 64.3159 17.7062 72.3972 17.7062C73.3602 17.7062 74.3042 17.7723 75.2294 17.895C72.6049 16.7054 69.716 16.0351 66.6667 16.0351C59.6899 16.0351 53.5251 19.2828 49.6355 24.466C50.8817 25.7311 51.9863 27.1378 52.9115 28.6861Z" fill="black"/>
<path d="M32.1797 79.7728C18.6133 67.2633 11.2496 53.7154 10.9002 40.6017V40.545C10.938 37.3351 11.5611 34.3139 12.6657 31.5855L7.77536 30.3959C7.00122 32.624 6.56692 35.0031 6.56692 37.4861C5.64173 59.1251 25.1369 75.9491 37.5798 84.4272C35.8238 83.0016 34.0017 81.4533 32.1797 79.7633V79.7728Z" fill="black"/>
<path d="M15.5544 26.4713C16.4041 25.3478 17.3481 24.3093 18.3961 23.3652L13.0526 22.0907C12.0802 23.0442 11.1928 24.0922 10.4092 25.2157L15.5544 26.4713Z" fill="black"/>
<path d="M82.8954 25.9724C76.3435 21.1575 69.0269 23.4705 69.0269 23.4705C82.7537 23.7821 79.7233 35.5646 79.7233 35.5646C92.0529 45.9687 81.3565 65.861 81.3565 65.861C95.612 44.8641 89.4472 30.7968 82.8954 25.9819V25.9724ZM28.5072 23.5083C36.3053 23.4139 38.4672 29.8055 38.4672 29.8055C45.51 29.8055 50.8723 35.253 50.8723 35.253C43.4519 18.6273 28.5166 23.5083 28.5166 23.5083H28.5072ZM18.1602 80.0888C18.6322 89.1428 10.9758 90.0491 10.9758 90.0491C20.1333 92.466 22.6823 100 22.6823 100C22.8239 91.3048 30.0649 90.0585 30.0649 90.0585C20.5109 87.8965 18.1602 80.0888 18.1602 80.0888ZM49.0597 0C49.3901 6.2972 44.0656 6.92975 44.0656 6.92975C50.4286 8.61027 52.2035 13.8501 52.2035 13.8501C52.3073 7.80778 57.3393 6.9392 57.3393 6.9392C50.7024 5.43807 49.0597 0.00945031 49.0597 0.00945031V0Z" fill="#00482F"/>
</svg>
