<svg width="100" height="100" viewBox="0 0 100 100" fill="none" xmlns="http://www.w3.org/2000/svg">
<rect width="100" height="100" fill="#F1F1F1"/>
<path d="M16.1771 36.7481V89.8496L88.4266 71.0526C89.1782 70.8647 89.7419 70.1128 89.7419 69.2669V16.1654L17.4924 34.9624C16.6469 35.1504 16.1771 35.9023 16.1771 36.7481Z" fill="#11B67A"/>
<path d="M11.6674 33.9286C12.513 32.0489 14.1102 30.6391 16.1771 30.0752L88.8963 11.1842H89.0842L85.9838 8.83459C84.8564 7.98872 83.541 7.70677 82.2257 8.08271L12.3251 26.2218C9.78834 26.8797 7.81533 28.7594 6.96976 31.109L11.6674 33.9286Z" fill="black"/>
<path d="M11.1037 36.7481C11.1037 36.5602 11.1037 36.3722 11.1037 36.2782L6.5 33.5526V37.9699L11.1037 40.6955V36.7481Z" fill="black"/>
<path d="M11.1037 90.4135V47.1805L6.5 44.4549V85.2444C6.5 86.6541 7.15767 87.9699 8.2851 88.8158L11.1037 90.9774C11.1037 90.7895 11.1037 90.6015 11.1037 90.4135Z" fill="black"/>
<path d="M85.3261 46.3346L76.8704 48.5902C76.2127 48.7782 75.649 49.4361 75.649 50.094V69.7368C75.649 70.3947 76.2127 70.7707 76.8704 70.5827L85.3261 68.4211C85.9838 68.2331 86.5475 67.5752 86.5475 66.9173V47.2744C86.5475 46.6165 85.9838 46.2406 85.3261 46.4286V46.3346ZM83.2592 64.5677L78.8434 65.6955V64.4737L83.2592 63.3459V64.5677ZM83.635 53.2895L81.662 53.7594V55.6391L80.4406 56.015V54.0414L78.4676 54.5113V53.2895L80.4406 52.8195V50.8459L81.662 50.5639V52.5376L83.635 51.9737V53.2895Z" fill="#00482F"/>
<path d="M12.513 36.7481V90.4135C12.513 92.2932 14.0162 93.703 15.8013 93.703C17.5864 93.703 16.365 93.703 16.6469 93.609L89.3661 74.718C91.8089 74.0602 93.5 71.8985 93.5 69.3609V15.6955C93.5 13.8158 91.9968 12.406 90.2117 12.406C88.4266 12.406 89.6479 12.406 89.3661 12.5L16.6469 31.391C14.2041 32.0489 12.513 34.2105 12.513 36.7481ZM89.9298 14.7556C89.9298 14.7556 90.1177 14.7556 90.2117 14.7556C90.6814 14.7556 91.2451 15.1316 91.2451 15.7895V69.4549C91.2451 70.9586 90.2117 72.1805 88.8024 72.5564L16.0832 91.4474C16.0832 91.4474 15.8952 91.4474 15.8013 91.4474C15.3315 91.4474 14.7678 91.0714 14.7678 90.4135V36.7481C14.7678 35.2444 15.8013 34.0226 17.2106 33.6466L89.9298 14.7556Z" fill="#006A4D"/>
<path d="M60.0529 66.2594C60.0529 62.9699 57.7981 60.8083 54.7916 60.9023C54.1339 49.6241 43.5173 48.5902 42.5778 48.4962L16.1771 45.3947V48.9662L41.3564 51.9737H41.4503C41.8261 51.9737 50.7516 52.5376 51.4093 61.8421C48.4028 63.3459 46.1479 66.6353 46.1479 69.9248C46.1479 73.2143 48.4028 75.282 51.4093 75.282V80.7331L54.6976 79.8872V74.4361C57.7041 72.9323 59.959 69.6429 59.959 66.3534L60.0529 66.2594Z" fill="#006A4D"/>
<path d="M76.7765 19.5489L70.7635 27.1617C68.9784 29.3233 67.1933 30.5451 64.5626 32.0489L60.8045 34.1165C60.3348 34.3985 59.7711 34.3045 59.4892 33.9286C58.6436 32.6128 57.2343 31.7669 55.5432 31.5789C55.0734 31.5789 54.7916 31.203 54.7916 30.7331V25.282L51.5032 26.1278V31.6729C51.5032 32.1429 51.2214 32.6128 50.7516 32.8947C49.0605 33.9286 47.6512 35.5263 46.7117 37.312C46.5238 37.782 45.96 38.1579 45.5842 38.1579L16.1771 40.0376V43.4211L45.1145 41.5414C45.5842 41.5414 45.96 41.7293 45.96 42.1992C46.4298 44.7368 48.3089 46.4286 50.7516 46.6165C51.2214 46.6165 51.5032 46.9925 51.5032 47.4624V52.7256C53.1944 54.5113 54.5097 57.1429 54.7916 60.9023V46.5226C54.7916 46.0526 55.0734 45.5827 55.5432 45.3008C57.986 43.797 59.865 41.1654 60.3348 38.4398C60.3348 37.9699 60.7106 37.594 61.0864 37.406C62.4957 36.6541 65.5022 34.9624 65.5022 34.9624C67.9449 33.5526 70.5756 31.9549 73.0184 28.9474L81.2862 18.4211L76.6825 19.6429L76.7765 19.5489ZM53.1944 43.1391C51.0335 43.703 49.2484 42.3872 49.2484 40.2256C49.2484 38.0639 51.0335 35.8083 53.1944 35.2444C55.3553 34.6805 57.1404 35.9962 57.1404 38.1579C57.1404 40.3195 55.3553 42.5752 53.1944 43.1391Z" fill="#00482F"/>
<path d="M53.1944 63.9098L49.5302 72.5564L53.1944 70.3947L56.7646 70.6767L53.1944 63.9098Z" fill="#00482F"/>
<path d="M70.1058 87.0301C70.3877 92.9511 65.4082 93.515 65.4082 93.515C71.4212 95.1128 73.0184 100 73.0184 100C73.0184 94.3609 77.8099 93.515 77.8099 93.515C71.6091 92.1053 70.0119 87.0301 70.0119 87.0301H70.1058ZM22.1901 0C22.7538 11.2782 13.2646 12.312 13.2646 12.312C24.6328 15.3195 27.7333 24.6241 27.7333 24.6241C27.9212 13.8158 36.8467 12.312 36.8467 12.312C25.0086 9.58647 22.0961 0 22.0961 0H22.1901ZM67.5691 24.6241C77.9978 23.4023 78.5616 29.3233 78.5616 29.3233C87.6749 28.1015 87.6749 39.1917 87.6749 39.1917V19.4549L67.5691 24.6241Z" fill="#006A4D"/>
</svg>
