<svg width="100" height="100" viewBox="0 0 100 100" fill="none" xmlns="http://www.w3.org/2000/svg">
<path d="M99.569 70.4287L75.8551 16.5544C74.3936 13.222 70.7748 11.3822 67.2168 12.1545L56.2906 14.5063C56.8822 15.6258 57.291 16.6933 57.5259 17.4222C57.726 18.0297 57.6564 18.6979 57.3258 19.2533C57.004 19.8087 56.4472 20.2079 55.8208 20.3381L48.096 21.9262C47.9481 21.9609 47.7915 21.9696 47.6349 21.9696C46.4867 21.9696 45.521 21.1105 45.3818 19.9823C45.2339 18.75 44.9469 17.778 44.5815 17.023L26.0697 21.015C22.9119 21.6919 21.1721 25.0938 22.4682 28.053L46.1039 81.7538C47.5653 85.0688 51.1581 86.9086 54.7074 86.1623L95.9415 77.4754C99.1167 76.8072 100.865 73.3967 99.569 70.4374V70.4287ZM36.935 24.8247C35.5692 24.8247 34.4557 23.9569 34.4557 22.8808C34.4557 21.8047 35.5692 20.9369 36.935 20.9369C38.3007 20.9369 39.4142 21.8047 39.4142 22.8808C39.4142 23.9569 38.3007 24.8247 36.935 24.8247ZM67.7214 19.3314C66.199 19.3314 64.9637 18.3595 64.9637 17.1619C64.9637 15.9643 66.199 14.9923 67.7214 14.9923C69.2437 14.9923 70.479 15.9643 70.479 17.1619C70.479 18.3595 69.2437 19.3314 67.7214 19.3314Z" fill="#024731"/>
<path d="M91.731 50.7381L75.855 14.6628C74.3935 11.3304 70.7747 9.49061 67.2167 10.263L55.2553 12.8404C56.4558 14.4806 57.1691 16.329 57.5258 17.4312C57.7259 18.0386 57.6563 18.7069 57.3257 19.2623C57.0039 19.8177 56.4471 20.2169 55.8207 20.347L48.0959 21.9352C47.948 21.9699 47.7914 21.9786 47.6348 21.9786C46.4865 21.9786 45.5209 21.1194 45.3817 19.9912C45.086 17.5874 44.2856 16.1902 43.3722 15.3918L26.0609 19.1234C22.9031 19.8003 21.1632 23.2022 22.4594 26.1614L38.3354 62.2454L91.7223 50.7468L91.731 50.7381ZM67.7214 14.9923C69.2437 14.9923 70.479 15.9643 70.479 17.1619C70.479 18.3595 69.2437 19.3314 67.7214 19.3314C66.199 19.3314 64.9637 18.3595 64.9637 17.1619C64.9637 15.9643 66.199 14.9923 67.7214 14.9923ZM34.4556 22.8724C34.4556 21.7963 35.5691 20.9285 36.9349 20.9285C38.3006 20.9285 39.4141 21.7963 39.4141 22.8724C39.4141 23.9485 38.3006 24.8163 36.9349 24.8163C35.5691 24.8163 34.4556 23.9485 34.4556 22.8724Z" fill="#11B67A"/>
<path d="M0.502709 76.6096C1.27694 88.2384 15.7262 94.6256 26.5219 86.3118C37.9439 77.5121 35.4212 66.9855 34.847 62.7071L31.2717 54.4281C31.2717 54.4281 36.152 79.4474 17.2051 84.1249C17.2051 84.1249 6.11368 86.7458 1.53791 78.5969L0.502709 76.6009V76.6096Z" fill="#11B67A"/>
<path d="M99.5688 68.5375L92.2702 51.9535L38.8834 63.4521L46.1037 79.8539C47.5651 83.169 51.1579 85.0088 54.7072 84.2624L95.9413 75.5755C99.1165 74.9073 100.865 71.4968 99.5688 68.5375Z" fill="#6CF479"/>
<path d="M62.8759 17.1525C62.8759 17.1525 62.4496 20.6585 66.8166 21.3007C71.1836 21.9429 72.8886 19.0704 72.8886 19.0704L85.1458 43.8467C85.1458 43.8467 72.1405 20.7713 54.0288 23.6438C54.0288 23.6438 59.4658 22.4722 62.8759 17.1612V17.1525Z" fill="white"/>
<path d="M34.6296 45.5399L38.4659 55.4244C38.4659 55.4244 43.7376 49.367 46.6171 34.5359C46.6171 34.5359 43.581 41.5566 34.6296 45.5399Z" fill="white"/>
<path d="M68.2345 72.9897L76.2378 71.2975C76.4813 71.2454 76.6205 70.985 76.5248 70.7594L73.3409 63.1747C73.2365 62.9317 72.9756 62.7928 72.7146 62.8449L64.7113 64.5371C64.4678 64.5892 64.3286 64.8495 64.4243 65.0752L67.6082 72.6599C67.7126 72.9029 67.9735 73.0418 68.2345 72.9897ZM50.9579 67.4357L47.4783 68.1733L53.7156 71.4537L51.0188 76.6259L54.4985 75.8882L57.1952 70.716L50.9579 67.4357ZM54.6551 66.6633L60.8924 69.9437L58.1957 75.1159L61.6753 74.3782L64.3721 69.206L58.1348 65.9256L54.6551 66.6633ZM90.0608 59.174L86.5811 59.9117L83.8843 65.0839L90.1217 68.3642L93.6013 67.6266L87.364 64.3462L90.0608 59.174ZM82.8839 60.6927L79.4043 61.4303L76.7075 66.6025L82.9448 69.8829L86.4245 69.1453L80.1872 65.8649L82.8839 60.6927Z" fill="#00482F"/>
<path d="M57.3779 39.5975C58.0651 39.7971 58.8132 39.9013 59.4918 39.7624C60.1703 39.6236 60.7009 39.2417 61.1185 38.8165C62.058 37.8445 62.4408 36.4907 62.3712 35.0849C62.2842 33.3839 61.7188 31.9694 61.7188 31.9694C60.3008 28.3332 57.0212 27.0402 54.1853 27.639C51.3494 28.2377 49.653 30.5722 51.3928 34.1476C51.3928 34.1476 52.0627 35.5448 53.3501 36.9854C54.4201 38.183 55.8294 39.1549 57.3866 39.6062L57.3779 39.5975ZM74.1412 43.9366C72.2883 41.5328 70.6963 40.8298 68.1648 40.5955L64.0849 40.1443C64.0849 40.1443 63.476 40.0748 62.5713 40.0748C61.8927 40.7604 61.1011 41.2117 60.2138 41.3939C59.3265 41.5762 58.3087 41.5154 57.1952 41.203C56.4383 41.5501 55.9947 41.8452 55.9947 41.8452L52.9587 43.7891C51.0449 44.9607 50.2793 46.1669 50.6708 48.8745L51.2884 52.5281L76.5508 47.1996L74.1325 43.9193L74.1412 43.9366Z" fill="#024731"/>
<path d="M24.8604 42.2225C24.0688 43.2031 23.3293 44.2358 22.6247 45.2772C21.4242 47.0562 18.597 50.5622 13.2818 53.643C5.7744 57.9908 -0.349822 61.5315 0.0155435 70.5134C0.0155435 70.5134 0.0155413 72.8132 0.502695 75.4687C0.502695 75.4687 0.502714 69.5762 5.46994 64.7424C10.4372 59.9087 15.5871 59.7091 20.7979 54.9968C26.0087 50.2845 26.4871 44.097 25.8869 40.9555L24.8691 42.2138L24.8604 42.2225ZM56.2905 17.8194C55.6207 15.7539 53.7417 11.2586 49.9749 10.7727L39.9534 13.1158C39.9534 13.1158 45.7297 12.1351 46.6779 19.8327C46.7475 20.3881 47.2782 20.77 47.8349 20.6571L55.5598 19.069C56.1252 18.9562 56.4645 18.3748 56.2905 17.828V17.8194Z" fill="#024731"/>
<path d="M91.731 50.7331L38.3528 62.2317L38.8835 63.4467L92.2703 51.948L91.731 50.7331Z" fill="#024731"/>
</svg>
