<svg width="100" height="100" viewBox="0 0 100 100" fill="none" xmlns="http://www.w3.org/2000/svg">
<g clip-path="url(#clip0_15980_15556)">
<rect width="100" height="100" fill="#F1F1F1"/>
<path d="M43.7196 80.5136L8.29095 59.9518C7.77522 59.6274 7.242 59.452 6.74375 59.452C6.14934 59.452 5.63358 59.6888 5.22274 60.171C4.54966 60.9514 4.26995 62.2316 4.471 63.5995C4.7245 65.3444 5.72974 66.9841 7.0322 67.782L43.0902 88.7208C43.9206 89.2031 44.9696 89.054 45.6252 88.3526L89.4018 42.1959L88.9996 35.0759L46.2458 80.1454C45.5902 80.8381 44.5412 80.9959 43.7108 80.5136H43.7196Z" fill="white"/>
<path d="M45.9311 90.9561C45.2231 91.7014 44.1042 91.8592 43.2213 91.3506L4.68078 68.9737C3.29091 68.1232 2.21572 66.3695 1.94474 64.5019C1.73495 63.0376 2.03216 61.6697 2.74895 60.8367C3.18602 60.3281 3.72797 60.0738 4.37483 60.0738C4.90805 60.0738 5.47625 60.258 6.02695 60.6087L43.8944 82.5823C44.7773 83.0996 45.8961 82.933 46.6042 82.1877L94.4805 31.7169C95.2235 30.9365 95.0399 29.6651 94.1133 29.1302L56.7267 7.41099C54.5151 6.12204 51.7179 6.52538 49.9521 8.38428C38.9555 19.9761 1.49021 59.4951 1.42028 59.5653L1.38531 59.6091C0.336348 60.8104 -0.188143 62.6781 0.117804 64.7825C0.48494 67.2902 1.91851 69.4648 3.71923 70.5696L43.5535 93.7006C44.4363 94.2179 45.5552 94.0513 46.2633 93.306L94.5154 42.4319C95.1973 41.7129 95.0924 40.5642 94.2969 39.9767L45.9311 90.9736V90.9561Z" fill="#11B67A"/>
<path d="M92.4787 51.3426L84.594 33.4113L75.9051 13.7438C75.6254 13.1125 74.9436 12.6653 74.2967 12.6653C74.2093 12.6653 74.1219 12.6653 74.0345 12.6916L43.8244 19.0926L20.2403 18.1456V24.6955C20.2403 25.0726 20.319 25.283 20.3977 25.4672L24.5848 34.9019L18.3609 41.6799C18.9204 41.1889 19.4099 41.1538 19.8295 41.2327C20.6075 41.3905 20.9309 42.0745 20.9309 42.0745L34.5936 74.4736C34.917 75.2452 35.7387 75.6749 36.5516 75.5083L95.8878 62.7678C96.5958 62.6188 96.9193 62.1102 96.8843 61.2597V55.1393L92.4787 51.3251V51.3426Z" fill="black"/>
<path d="M89.2619 37.5148L96.797 54.5079C97.1117 55.2269 96.797 55.9284 96.0802 56.0774L43.3175 67.5026C43.2301 67.5202 43.134 67.5289 43.0465 67.5289C42.3909 67.5289 41.7091 67.0905 41.4294 66.4592L34.4189 50.5533L89.2707 37.5148H89.2619Z" fill="#00482F"/>
<path d="M89.2619 37.5135L75.8964 7.07851C75.6167 6.44719 74.9348 6 74.288 6C74.2006 6 74.1132 6 74.0257 6.0263L21.132 17.2323C20.4064 17.3726 20.0743 18.0828 20.3977 18.8106L34.2789 50.6047C34.2789 50.6047 38.7195 59.7238 47.9853 61.9861C49.3228 62.3105 50.7301 62.2667 52.0763 61.9773L99.1658 51.7621C100.092 51.5605 100.346 50.368 99.5767 49.8156C96.7882 47.8164 91.963 43.6777 89.2619 37.5135Z" fill="#6CF479"/>
<path d="M5.74726 12.4633C5.74726 12.4633 6.9623 16.5055 11.8924 17.6191C11.8924 17.6191 8.15988 18.2679 8.08121 22.7661C8.08121 22.7661 6.77 18.8642 2.04094 17.6191C2.04094 17.6191 5.99202 17.1456 5.74726 12.4633Z" fill="#006A4D"/>
<path d="M78.178 64.5186C78.178 64.5186 80.4857 72.1997 89.8564 74.3217C89.8564 74.3217 82.7584 75.5492 82.6186 84.0984C82.6186 84.0984 80.1185 76.6891 71.1412 74.3129C71.1412 74.3129 78.6413 73.4185 78.178 64.5186Z" fill="#006A4D"/>
</g>
<defs>
<clipPath id="clip0_15980_15556">
<rect width="100" height="100" fill="white"/>
</clipPath>
</defs>
</svg>
