<svg width="100" height="100" viewBox="0 0 100 100" fill="none" xmlns="http://www.w3.org/2000/svg">
<g clip-path="url(#clip0_15980_15570)">
<rect width="100" height="100" fill="#F1F1F1"/>
<path d="M84.4911 80.9594H0.03125V85.2235H84.4911V80.9594Z" fill="black"/>
<path d="M73.0781 59.9801H11.4528L0.294468 84.1033C-0.546225 85.9149 0.770032 88 2.75712 88H81.7737C83.7608 88 85.0771 85.9235 84.2364 84.1033L73.0781 59.9801Z" fill="black"/>
<path d="M73.0781 55.7676H11.4528L0.294468 79.8908C-0.546225 81.7024 0.770032 83.7875 2.75712 83.7875H81.7737C83.7608 83.7875 85.0771 81.7109 84.2364 79.8908L73.0781 55.7676Z" fill="#6CF479"/>
<path d="M70.2164 12C71.7194 12 72.9338 13.2305 72.9338 14.7345V54.1793H11.5802V14.7345C11.5802 13.222 12.803 12 14.2975 12H70.2164Z" fill="#11B67A"/>
<path d="M42.2612 17.579C42.8615 17.579 43.3481 17.0892 43.3481 16.4852C43.3481 15.8811 42.8615 15.3914 42.2612 15.3914C41.6609 15.3914 41.1742 15.8811 41.1742 16.4852C41.1742 17.0892 41.6609 17.579 42.2612 17.579Z" fill="#F1F1F1"/>
<path d="M75.8974 70.7832L71.108 60.5887C70.8108 59.9478 70.1739 59.5462 69.4691 59.5462H15.0619C14.357 59.5462 13.7202 59.9564 13.4229 60.5887L8.63353 70.7832C8.20894 71.689 8.86282 72.74 9.86486 72.74H25.1926C25.7446 72.74 26.1777 73.2357 26.0928 73.7912L25.9145 74.9276C25.7871 75.7565 26.4239 76.5085 27.2561 76.5085H57.2663C58.0985 76.5085 58.7354 75.7565 58.6081 74.9276L58.4297 73.7912C58.3448 73.2357 58.7694 72.74 59.3298 72.74H74.6576C75.6596 72.74 76.3135 71.6976 75.8889 70.7832H75.8974Z" fill="black"/>
<path d="M100.031 61.4775L85.6291 51.1378L87.9304 68.7922L91.964 63.8018L98.1036 74.0989L99.9039 73.0136L93.7643 62.7166L100.031 61.4775Z" fill="#006A4D"/>
<path d="M30.6359 35.0721C31.2558 35.4481 31.9861 35.7386 32.7503 35.7386C33.5146 35.7386 34.2449 35.4481 34.8648 35.0721C36.2745 34.2261 37.2934 32.8417 37.8624 31.2865C38.5417 29.4151 38.6012 27.7318 38.6012 27.7318C38.788 23.4335 35.9688 21.263 32.7503 21.263C29.5319 21.263 26.7126 23.425 26.8995 27.7318C26.8995 27.7318 26.9589 29.4065 27.6382 31.2865C28.2072 32.8417 29.2177 34.2261 30.6359 35.0721ZM46.0485 43.6771C45.2248 40.6264 43.8916 39.4815 41.3695 38.644L37.3359 37.2169C37.3359 37.2169 36.733 36.9948 35.7989 36.7982C34.7799 37.3964 33.7609 37.704 32.7588 37.704C31.7568 37.704 30.7293 37.3964 29.7188 36.7982C28.7846 37.0033 28.1817 37.2169 28.1817 37.2169L24.1481 38.644C21.626 39.4815 20.2928 40.6264 19.4691 43.6771L18.4501 47.813H47.0761L46.057 43.6771H46.0485Z" fill="black"/>
<path d="M65.4779 17.5043H50.9908C50.0528 17.5043 49.2924 18.2695 49.2924 19.2134V36.4064C49.2924 37.3503 50.0528 38.1155 50.9908 38.1155H65.4779C66.4159 38.1155 67.1763 37.3503 67.1763 36.4064V19.2134C67.1763 18.2695 66.4159 17.5043 65.4779 17.5043Z" fill="#00482F"/>
<path d="M64.1277 31.6356C63.7795 30.3452 63.2191 29.8667 62.1491 29.5078L60.4507 28.9011C60.4507 28.9011 60.4167 28.8926 60.3658 28.8755C60.2639 28.9524 60.1705 29.0293 60.0601 29.0977C59.5506 29.4053 59.0326 29.5591 58.5146 29.5591C57.9966 29.5591 57.4786 29.4053 56.969 29.0977C56.8587 29.0293 56.7653 28.9524 56.6634 28.8755C56.6124 28.8926 56.5785 28.9011 56.5785 28.9011L54.8801 29.5078C53.8186 29.8582 53.2496 30.3452 52.9015 31.6356L52.4684 33.3788H64.5608L64.1277 31.6356ZM57.6144 28.0038C57.8777 28.1577 58.1834 28.2859 58.5061 28.2859C58.8288 28.2859 59.1345 28.1662 59.3978 28.0038C59.9922 27.6449 60.4253 27.0639 60.663 26.4059C60.9518 25.6112 60.9772 24.9019 60.9772 24.9019C61.0536 23.0818 59.8648 22.1675 58.5061 22.1675C57.1474 22.1675 55.9585 23.0818 56.035 24.9019C56.035 24.9019 56.0604 25.6112 56.3492 26.4059C56.5869 27.0639 57.02 27.6449 57.6144 28.0038Z" fill="#6CF479"/>
</g>
<defs>
<clipPath id="clip0_15980_15570">
<rect width="100" height="100" fill="white"/>
</clipPath>
</defs>
</svg>
