<svg width="100" height="100" viewBox="0 0 100 100" fill="none" xmlns="http://www.w3.org/2000/svg">
<g clip-path="url(#clip0_15980_15584)">
<rect width="100" height="100" fill="#F1F1F1"/>
<path d="M73.2568 39.5923L75.9287 35.0462C76.5508 33.1399 77.5956 31.1859 79.0632 29.3674C79.2865 29.0962 79.5098 28.833 79.7411 28.5698L83.6891 21.8463C88.1396 20.2113 91.0826 22.6838 91.0826 22.6838L92.933 24.1513C93.1244 24.2709 93.3079 24.3906 93.4833 24.5341C97.0405 27.3575 96.3546 34.097 91.944 39.5843C88.0598 44.4176 82.5964 46.6668 78.9116 45.2152L78.8957 45.2072C78.4012 45.0079 77.9386 44.7526 77.5239 44.4176C77.3404 44.2741 77.1809 44.1146 77.0214 43.9551L74.6127 42.344L73.2568 39.6003V39.5923Z" fill="white"/>
<path d="M88.4189 36.9209C92.6062 31.6728 93.2842 25.2524 89.9343 22.5725C86.5845 19.9006 80.4751 21.9823 76.2799 27.2303C72.0926 32.4784 71.4147 38.8989 74.7645 41.5787C78.1143 44.2506 84.2237 42.1689 88.4189 36.9209Z" fill="#6CF479"/>
<path d="M92.8298 26.6081L95.6133 28.618C95.3661 26.9431 94.6483 25.5234 93.436 24.5584L91.0911 22.692C92.0801 23.689 92.6544 25.0529 92.8378 26.6081H92.8298Z" fill="black"/>
<path d="M95.7092 30.1889L92.8858 28.1472C92.8699 28.4901 92.838 28.8331 92.7981 29.192L95.6454 31.2497C95.6853 30.8908 95.7092 30.5399 95.7172 30.1969L95.7092 30.1889Z" fill="black"/>
<path d="M92.1437 31.936C91.5057 33.7864 90.4848 35.6846 89.0731 37.4472C84.6545 42.9824 78.1862 45.1678 74.613 42.3284L77.4205 44.6095C80.9857 47.4568 87.4699 45.2794 91.8885 39.7283C93.3481 37.8939 94.4009 35.9318 95.0309 34.0097L92.1437 31.928V31.936Z" fill="black"/>
<path d="M77.5083 28.2509C81.217 23.609 86.5688 21.6709 89.6873 23.7765C89.5677 23.6489 89.4321 23.5292 89.2965 23.4176C86.2338 20.977 80.6508 22.8832 76.8224 27.6766C72.9941 32.47 72.372 38.3402 75.4346 40.7808C75.5303 40.8605 75.634 40.9323 75.7297 40.9961C73.1297 38.3721 73.8634 32.821 77.5163 28.2509H77.5083Z" fill="#024731"/>
<path d="M86.3052 37.2556C86.9433 36.5138 87.4936 35.7322 87.9402 34.9346C86.9034 36.0512 85.9782 36.2426 85.5395 36.1948C85.037 36.131 84.6383 35.7481 84.6383 35.7481C81.3044 39.5127 78.489 39.744 76.7662 38.9464C75.7613 38.4838 75.2907 37.5586 75.0753 36.8807C75.0753 38.2605 75.4981 39.4569 76.3674 40.2544C78.6325 42.3281 83.083 40.9802 86.3052 37.2476V37.2556Z" fill="white"/>
<path d="M50.3096 75.938C49.3764 63.4639 55.9165 52.7923 64.953 51.915V17.8586L21.4852 42.8466V97.5761L51.0114 80.6038C50.6685 79.1043 50.4292 77.5491 50.3096 75.938Z" fill="#11B67A"/>
<path d="M52.5029 41.2198L54.7042 42.7272L44.1044 62.1721L39.6141 59.0934L31.0801 74.7339L27.1959 72.0779L21.4852 82.5581V87.6466L27.1959 77.1665L31.0801 79.8304L39.6141 64.182L44.1044 67.2606L56.73 44.115L58.9952 45.6623L61.3719 33.1324L52.5029 41.2198Z" fill="#6CF479"/>
<path d="M63.358 17.0609L56.2436 13.6154L12.7758 38.5954V93.325L19.8902 96.7705V42.0489L63.358 17.0609Z" fill="black"/>
<path d="M61.9596 71.7112C59.3754 62.3556 62.1191 53.4388 68.0929 51.7878C74.0667 50.1368 80.9977 56.3818 83.5818 65.7374C86.1659 75.0929 83.4223 84.0098 77.4485 85.6608C71.4746 87.3117 64.5437 81.0667 61.9596 71.7112Z" fill="#6CF479"/>
<path d="M61.9604 55.4963L57.1191 56.589C58.4032 54.5073 60.1658 53.0238 62.3272 52.4256L66.5065 51.2851C64.6243 52.0428 63.0849 53.5263 61.9604 55.4963Z" fill="black"/>
<path d="M56.0988 58.6227L61.0118 57.5141C60.8363 57.9767 60.6768 58.4552 60.5333 58.9497L55.5883 60.0663C55.7398 59.5718 55.9073 59.0933 56.0908 58.6307L56.0988 58.6227Z" fill="black"/>
<path d="M59.8467 62.9777C59.6393 65.8011 59.9264 68.9036 60.7958 72.0541C63.5235 81.9201 70.8771 88.5 77.2338 86.7613L72.2091 88.197C65.8524 89.9516 58.4749 83.3717 55.7551 73.4897C54.8539 70.2197 54.5747 67.0134 54.8299 64.1023L59.8467 62.9777Z" fill="black"/>
<path d="M81.3809 66.3988C79.0998 58.12 73.0781 52.505 67.7424 53.5339C67.9737 53.4382 68.2209 53.3505 68.4682 53.2787C73.9236 51.7713 80.2643 57.4819 82.6251 66.0239C84.9859 74.5739 82.4815 82.7251 77.0182 84.2246C76.8427 84.2724 76.6752 84.3123 76.4997 84.3442C81.4447 82.3343 83.63 74.542 81.3729 66.3908H81.3889L81.3809 66.3988Z" fill="#024731"/>
<path d="M64.5838 73.3616C64.1531 72.0137 63.8739 70.6658 63.7303 69.3578C64.4801 71.4315 65.5887 72.2131 66.2028 72.3966C66.9127 72.6039 67.6544 72.3168 67.6544 72.3168C69.9355 79.2158 73.5565 81.13 76.3001 81.0423C77.8953 80.9944 79.0438 80.0373 79.7297 79.2557C78.9481 81.0901 77.7118 82.438 76.0928 83.0043C71.9055 84.4718 66.7532 80.149 64.5917 73.3616H64.5838Z" fill="white"/>
<path d="M27.5059 0.47168C27.5059 0.47168 29.3882 6.71669 37.0289 8.43945C37.0289 8.43945 31.2386 9.43641 31.1269 16.3833C31.1269 16.3833 29.0851 10.3616 21.7713 8.43147C21.7713 8.43147 27.8887 7.70568 27.5059 0.47168Z" fill="#11B67A"/>
<path d="M8.27662 54.4198C8.27662 54.4198 9.64845 58.958 15.2075 60.2182C15.2075 60.2182 10.9963 60.944 10.9166 66.0006C10.9166 66.0006 9.4331 61.6139 4.11328 60.2102C4.11328 60.2102 8.56375 59.6838 8.29257 54.4198H8.27662Z" fill="#11B67A"/>
<path d="M48.8728 92.0972C48.8728 92.0972 49.8617 95.3832 53.8815 96.2844C53.8815 96.2844 50.8348 96.8108 50.771 100.472C50.771 100.472 49.7022 97.2973 45.8499 96.2844C45.8499 96.2844 49.0721 95.9016 48.8728 92.0972Z" fill="#11B67A"/>
<path d="M50.3335 76.2251L25.4173 90.5416V45.04L24.1491 45.7657V92.8625L50.493 77.7245C50.4292 77.23 50.3734 76.7276 50.3335 76.2251Z" fill="#006B4E"/>
</g>
<defs>
<clipPath id="clip0_15980_15584">
<rect width="100" height="100" fill="white"/>
</clipPath>
</defs>
</svg>
