<svg width="100" height="100" viewBox="0 0 100 100" fill="none" xmlns="http://www.w3.org/2000/svg">
<g clip-path="url(#clip0_15980_15600)">
<path d="M96.8953 63.1618L51.0565 40.4689L49.4181 46.6763L91.5586 72.837C92.4558 73.3928 93.4545 73.6511 94.4298 73.6511C96.3648 73.6511 98.253 72.6256 99.2595 70.8017C100.781 68.0463 99.7042 64.5786 96.8953 63.1696V63.1618Z" fill="#11B67A"/>
<path d="M49.418 46.6776L63.0565 55.1473C63.1111 53.8635 63.1891 52.1649 63.2828 50.5993C63.4622 47.6404 62.0812 46.114 61.6052 45.6991L51.0564 40.4779L49.418 46.6854V46.6776Z" fill="#024731"/>
<path d="M59.6391 36.7049C56.4401 35.6716 52.4375 33.8478 48.3647 31.5855C44.2919 29.3233 40.6326 26.881 38.0578 24.7127C37.262 24.0395 36.6143 23.4289 36.0838 22.8653L25.1449 42.6854C25.1137 42.7323 25.1137 42.795 25.0981 42.8498C26.0968 44.5093 29.998 48.0631 37.0903 52.0005C44.1749 55.9379 49.2464 57.3704 51.1814 57.3469C51.2204 57.3078 51.275 57.2686 51.2984 57.2217L62.2373 37.4016C61.4804 37.2529 60.6222 37.0259 59.6313 36.7049H59.6391Z" fill="#6CF479"/>
<path d="M38.682 63.2398C23.6547 63.2398 11.4674 67.0128 11.4674 71.6626C11.4674 76.3123 23.6547 80.0853 38.682 80.0853C53.7094 80.0853 65.8966 76.3123 65.8966 71.6626C65.8966 67.0128 53.7094 63.2398 38.682 63.2398Z" fill="#6CF479"/>
<path d="M11.4674 71.6564C11.4674 72.0087 11.5455 72.3609 11.6859 72.6975C16.024 73.4647 22.0162 73.723 28.4375 73.2768C40.4454 72.447 49.3868 69.4803 48.4193 66.6466C47.8732 65.0497 44.2841 63.8364 39.1112 63.2337C38.9707 63.2337 38.8303 63.2337 38.6898 63.2337C23.6625 63.2337 11.4753 67.0067 11.4753 71.6564H11.4674Z" fill="#024731"/>
<path d="M50.838 62.0358C50.4557 62.2315 49.972 62.3333 49.379 62.3333C45.7431 62.3333 38.643 58.983 34.6092 56.7442C29.8497 54.0984 21.5402 48.6502 21.509 45.6209C20.9628 45.5817 20.5649 45.9575 20.5649 45.9575C19.418 47.1003 17.5454 49.386 17.4284 52.1962C17.2723 54.0827 23.0539 58.8421 30.9031 63.2022C38.7522 67.5623 45.8445 69.9576 47.3504 68.8304C49.6677 67.2413 50.604 64.4311 50.9629 62.8577C50.9629 62.8577 51.1111 62.3098 50.8302 62.0358H50.838Z" fill="#11B67A"/>
<path d="M68.9941 79.1849C68.7445 78.0811 68.0344 76.6799 66.7548 76.3434L66.3335 73.9637C65.5689 75.13 64.2269 76.1711 62.4635 77.0635L63.6105 82.3003C63.0643 82.6056 62.4636 82.8952 61.8082 83.1771L60.6534 77.8698C59.881 78.1751 59.0617 78.4647 58.1879 78.7308L59.3816 84.0851C58.0162 84.5313 56.4947 84.9383 54.8562 85.2906L53.6469 79.8659C49.0747 80.7739 43.8237 81.2436 38.6976 81.2436C26.7366 81.2436 14.128 78.6995 11.0383 73.948L10.617 76.3355C9.34518 76.6643 8.63513 78.0733 8.38546 79.177C8.36205 79.2866 8.34649 79.3884 8.33088 79.498H8.30746L7.98758 81.2905C7.95637 81.4706 7.93296 81.6506 7.93296 81.8307C7.93296 87.091 21.7041 91.3493 38.6976 91.3493C55.6911 91.3493 69.4623 87.091 69.4623 81.8307C69.4623 81.5958 69.0409 79.2866 69.0175 79.177L68.9941 79.1849Z" fill="#024731"/>
<path d="M7.55846 47.578C11.2412 54.9127 4.67163 57.2454 4.67163 57.2454C12.0448 57.9186 18.8329 59.9303 18.8329 59.9303C12.0604 55.0458 7.55846 47.578 7.55846 47.578ZM29.4363 73.1672C29.4363 73.1672 13.301 73.6447 19.8706 63.312C19.8706 63.312 11.6313 64.9949 -0.0488281 63.8521C-0.0488281 63.8521 8.5962 65.5977 10.3127 70.4823C12.3101 76.1574 7.63651 81.1673 7.63651 81.1673C7.63651 81.1673 15.5091 76.6976 20.1515 81.316C20.1515 81.316 23.1086 86.1066 21.3374 91.5C21.3374 91.5 26.3543 77.2847 29.4363 73.1672Z" fill="white"/>
<path d="M58.0318 14.0812C51.8524 10.6448 46.1567 8.5 43.6131 8.5C42.9265 8.5 42.474 8.65656 42.2945 8.9775C41.444 10.5196 47.1085 15.3024 54.9577 19.6625C61.1372 23.0989 66.8329 25.2437 69.3765 25.2437C70.0631 25.2437 70.5156 25.0872 70.6951 24.7662C71.5455 23.2242 65.881 18.4413 58.0318 14.0812Z" fill="#6CF479"/>
<path d="M50.4792 27.7628C49.3166 27.121 41.054 22.4477 37.7536 18.5416C37.3244 18.7452 36.9499 19.0661 36.7003 19.5201C36.2867 20.2716 36.3336 21.1483 36.7393 21.8372C37.2152 22.3695 37.8784 23.027 38.8147 23.8176C41.3348 25.9389 44.9239 28.3343 48.9343 30.5652C52.937 32.7883 56.8693 34.573 59.9981 35.5907C61.4415 36.0603 62.4948 36.2873 63.2438 36.3813C63.9304 36.2795 64.5703 35.8725 64.9292 35.2149C65.1866 34.7453 65.2569 34.2208 65.1788 33.7276C61.9175 33.2736 56.3622 31.0349 50.4714 27.7707L50.4792 27.7628Z" fill="#11B67A"/>
<path d="M69.3687 26.4191C66.5286 26.4191 60.6456 24.1725 54.3803 20.6892C50.526 18.5443 47.054 16.2273 44.604 14.1607C42.0605 12.0159 40.9213 10.4347 41.0305 9.16659C39.9694 10.1529 37.6833 12.6108 37.5585 15.7263C37.4024 17.6128 43.184 22.3721 51.0331 26.7323C57.5715 30.3644 63.5871 32.6344 66.2867 32.6344C66.8251 32.6344 67.2308 32.5405 67.4805 32.3526C70.0709 30.5835 70.9291 27.2959 71.1944 25.8868C70.7575 26.2234 70.1489 26.4035 69.3609 26.4035L69.3687 26.4191Z" fill="#11B67A"/>
<path d="M34.7576 42.3619L42.6379 28.0917C40.8902 26.9019 39.556 25.9078 38.5807 25.125L27.4 45.3678C29.3428 47.1134 32.409 49.3521 36.6691 51.7553C33.8603 49.5556 32.9786 45.5869 34.7576 42.3619Z" fill="white"/>
<path d="M22.7186 45.6126C22.7342 47.3504 28.3284 51.8749 35.1945 55.687C39.9149 58.3094 46.3597 61.1274 49.3792 61.1274C49.8629 61.1274 50.136 61.0413 50.2842 60.963C50.2842 60.963 50.8616 60.6812 51.1659 60.1411C51.4702 59.601 51.517 59.0217 51.3844 58.4816C51.2595 58.4894 51.1347 58.5051 51.0021 58.5051C47.4364 58.5051 40.4845 55.2252 36.5287 53.0256C32.4871 50.779 25.8317 46.4737 24.1074 43.4287C23.6236 43.6243 23.2101 43.9688 22.9292 44.4541C22.6483 44.9394 22.7108 45.6126 22.7108 45.6126H22.7186Z" fill="#11B67A"/>
</g>
<defs>
<clipPath id="clip0_15980_15600">
<rect width="100" height="100" fill="white"/>
</clipPath>
</defs>
</svg>
