<svg width="100" height="100" viewBox="0 0 100 100" fill="none" xmlns="http://www.w3.org/2000/svg">
<g clip-path="url(#clip0_15980_15598)">
<rect width="100" height="100" fill="#F1F1F1"/>
<path d="M96.9461 63.1618L51.1073 40.4689L49.4689 46.6763L91.6093 72.837C92.5066 73.3928 93.5053 73.6511 94.4806 73.6511C96.4156 73.6511 98.3037 72.6256 99.3102 70.8017C100.832 68.0463 99.755 64.5786 96.9461 63.1696V63.1618Z" fill="#11B67A"/>
<path d="M49.4688 46.6776L63.1072 55.1473C63.1619 53.8635 63.2399 52.1649 63.3335 50.5993C63.513 47.6404 62.132 46.114 61.656 45.6991L51.1072 40.4779L49.4688 46.6854V46.6776Z" fill="black"/>
<path d="M59.6899 36.7049C56.4909 35.6716 52.4883 33.8478 48.4155 31.5855C44.3427 29.3233 40.6834 26.881 38.1086 24.7127C37.3127 24.0395 36.6651 23.4289 36.1346 22.8653L25.1957 42.6854C25.1645 42.7323 25.1645 42.795 25.1489 42.8498C26.1476 44.5093 30.0488 48.0631 37.1411 52.0005C44.2256 55.9379 49.2972 57.3704 51.2321 57.3469C51.2712 57.3078 51.3257 57.2686 51.3491 57.2217L62.2881 37.4016C61.5312 37.2529 60.673 37.0259 59.6821 36.7049H59.6899Z" fill="#6CF479"/>
<path d="M38.7328 63.2398C23.7055 63.2398 11.5182 67.0128 11.5182 71.6626C11.5182 76.3123 23.7055 80.0853 38.7328 80.0853C53.7601 80.0853 65.9474 76.3123 65.9474 71.6626C65.9474 67.0128 53.7601 63.2398 38.7328 63.2398Z" fill="#6CF479"/>
<path d="M11.5182 71.6564C11.5182 72.0087 11.5963 72.3609 11.7367 72.6975C16.0748 73.4647 22.067 73.723 28.4883 73.2768C40.4961 72.447 49.4376 69.4803 48.4701 66.6466C47.924 65.0497 44.3349 63.8364 39.1619 63.2337C39.0215 63.2337 38.8811 63.2337 38.7406 63.2337C23.7133 63.2337 11.526 67.0067 11.526 71.6564H11.5182Z" fill="#00482F"/>
<path d="M50.8888 62.0358C50.5065 62.2315 50.0228 62.3333 49.4298 62.3333C45.7939 62.3333 38.6938 58.983 34.66 56.7442C29.9005 54.0984 21.591 48.6502 21.5598 45.6209C21.0136 45.5817 20.6157 45.9575 20.6157 45.9575C19.4688 47.1003 17.5962 49.386 17.4792 52.1962C17.3231 54.0827 23.1047 58.8421 30.9538 63.2022C38.803 67.5623 45.8953 69.9576 47.4011 68.8304C49.7184 67.2413 50.6547 64.4311 51.0136 62.8577C51.0136 62.8577 51.1619 62.3098 50.881 62.0358H50.8888Z" fill="#11B67A"/>
<path d="M69.0449 79.1849C68.7952 78.0811 68.0852 76.6799 66.8056 76.3434L66.3843 73.9637C65.6197 75.13 64.2776 76.1711 62.5143 77.0635L63.6613 82.3003C63.1151 82.6056 62.5143 82.8952 61.8589 83.1771L60.7042 77.8698C59.9318 78.1751 59.1125 78.4647 58.2386 78.7308L59.4324 84.0851C58.067 84.5313 56.5455 84.9383 54.907 85.2906L53.6977 79.8659C49.1255 80.7739 43.8745 81.2436 38.7484 81.2436C26.7874 81.2436 14.1788 78.6995 11.0891 73.948L10.6677 76.3355C9.39597 76.6643 8.68592 78.0733 8.43624 79.177C8.41283 79.2866 8.39727 79.3884 8.38167 79.498H8.35824L8.03836 81.2905C8.00715 81.4706 7.98374 81.6506 7.98374 81.8307C7.98374 87.091 21.7549 91.3493 38.7484 91.3493C55.7419 91.3493 69.513 87.091 69.513 81.8307C69.513 81.5958 69.0917 79.2866 69.0683 79.177L69.0449 79.1849Z" fill="black"/>
<path d="M7.60924 47.578C11.2919 54.9127 4.72241 57.2454 4.72241 57.2454C12.0956 57.9186 18.8836 59.9303 18.8836 59.9303C12.1112 55.0458 7.60924 47.578 7.60924 47.578ZM29.4871 73.1672C29.4871 73.1672 13.3518 73.6447 19.9214 63.312C19.9214 63.312 11.6821 64.9949 0.00195312 63.8521C0.00195312 63.8521 8.64698 65.5977 10.3635 70.4823C12.3609 76.1574 7.68729 81.1673 7.68729 81.1673C7.68729 81.1673 15.5598 76.6976 20.2022 81.316C20.2022 81.316 23.1593 86.1066 21.3882 91.5C21.3882 91.5 26.4051 77.2847 29.4871 73.1672Z" fill="#11B67A"/>
<path d="M58.0826 14.0812C51.9031 10.6448 46.2074 8.5 43.6639 8.5C42.9773 8.5 42.5247 8.65656 42.3453 8.9775C41.4948 10.5196 47.1593 15.3024 55.0085 19.6625C61.1879 23.0989 66.8837 25.2437 69.4272 25.2437C70.1139 25.2437 70.5664 25.0872 70.7458 24.7662C71.5963 23.2242 65.9318 18.4413 58.0826 14.0812Z" fill="#6CF479"/>
<path d="M50.53 27.7628C49.3674 27.121 41.1047 22.4477 37.8044 18.5416C37.3752 18.7452 37.0007 19.0661 36.7511 19.5201C36.3375 20.2716 36.3843 21.1483 36.7901 21.8372C37.266 22.3695 37.9292 23.027 38.8655 23.8176C41.3856 25.9389 44.9747 28.3343 48.9851 30.5652C52.9877 32.7883 56.9201 34.573 60.0489 35.5907C61.4923 36.0603 62.5456 36.2873 63.2946 36.3813C63.9812 36.2795 64.621 35.8725 64.9799 35.2149C65.2374 34.7453 65.3076 34.2208 65.2296 33.7276C61.9682 33.2736 56.4129 31.0349 50.5222 27.7707L50.53 27.7628Z" fill="#11B67A"/>
<path d="M69.4194 26.4191C66.5794 26.4191 60.6964 24.1725 54.4311 20.6892C50.5768 18.5443 47.1047 16.2273 44.6548 14.1607C42.1112 12.0159 40.9721 10.4347 41.0813 9.16659C40.0202 10.1529 37.7341 12.6108 37.6093 15.7263C37.4532 17.6128 43.2348 22.3721 51.0839 26.7323C57.6223 30.3644 63.6379 32.6344 66.3375 32.6344C66.8759 32.6344 67.2816 32.5405 67.5313 32.3526C70.1217 30.5835 70.9799 27.2959 71.2452 25.8868C70.8082 26.2234 70.1997 26.4035 69.4116 26.4035L69.4194 26.4191Z" fill="#11B67A"/>
<path d="M34.8084 42.3619L42.6887 28.0917C40.941 26.9019 39.6068 25.9078 38.6315 25.125L27.4507 45.3678C29.3935 47.1134 32.4598 49.3521 36.7199 51.7553C33.911 49.5556 33.0294 45.5869 34.8084 42.3619Z" fill="#6CF479"/>
<path d="M22.7693 45.6126C22.785 47.3504 28.3792 51.8749 35.2453 55.687C39.9657 58.3094 46.4104 61.1274 49.43 61.1274C49.9137 61.1274 50.1868 61.0413 50.335 60.963C50.335 60.963 50.9124 60.6812 51.2167 60.1411C51.521 59.601 51.5678 59.0217 51.4352 58.4816C51.3103 58.4894 51.1855 58.5051 51.0529 58.5051C47.4872 58.5051 40.5353 55.2252 36.5795 53.0256C32.5378 50.779 25.8825 46.4737 24.1581 43.4287C23.6744 43.6243 23.2609 43.9688 22.98 44.4541C22.6991 44.9394 22.7615 45.6126 22.7615 45.6126H22.7693Z" fill="#11B67A"/>
</g>
<defs>
<clipPath id="clip0_15980_15598">
<rect width="100" height="100" fill="white"/>
</clipPath>
</defs>
</svg>
