<svg width="100" height="100" viewBox="0 0 100 100" fill="none" xmlns="http://www.w3.org/2000/svg">
<path d="M52.0772 42.5418C44.7673 43.1987 34.27 42.2988 28.0505 41.6225C26.1186 41.4126 24.5968 41.2221 23.7144 41.1094C23.1741 41.0394 22.6279 41.1618 22.1692 41.4573C22.1692 41.4573 23.5103 47.4396 23.9204 49.7778C23.9204 49.7778 27.0224 50.1373 31.858 50.528C41.8792 51.3385 59.3462 52.285 72.0418 50.4503L52.0752 42.5418H52.0772Z" fill="#11B67A"/>
<path d="M61.3344 41.6922L49.7195 42.0673L68.8308 51.8882L81.606 48.6658L61.3344 41.6922Z" fill="#6AEF80"/>
<path d="M73.3672 77.9604C72.9668 71.0062 72.0436 50.4508 72.0436 50.4508C59.3481 52.2856 41.883 51.339 31.8599 50.5286C27.0242 50.1379 23.9222 49.7783 23.9222 49.7783C23.9222 49.7783 26.6608 62.5827 21.6307 82.2888C21.382 83.2625 21.9339 84.2635 22.8902 84.5705C24.2196 84.9981 26.2856 85.6123 28.9484 86.2381C37.2805 88.1973 51.4571 90.2847 67.1807 87.2507C70.3041 85.0739 73.5868 81.762 73.3672 77.9604Z" fill="#6CF479"/>
<path d="M61.828 89.9564C61.8591 89.97 61.9213 89.97 62.0068 89.9564H61.828Z" fill="#0C0D11"/>
<path d="M80.6187 80.9038C78.4011 75.3199 77.6392 62.7021 77.9482 51.1047C77.1338 50.6946 76.2903 50.2825 75.4254 49.8705C74.3448 50.0901 72.3137 50.5235 67.1826 51.0055C67.1826 51.0055 68.2633 71.9283 68.6637 78.8805C68.8833 82.6822 65.4179 85.8755 62.2926 88.0523C69.5538 87.4653 75.1281 85.9513 79.2582 83.9105C80.4224 83.3352 81.0968 82.1108 80.6187 80.9038Z" fill="#024731"/>
<path d="M85.7518 32.7199C81.7461 31.4196 77.7948 30.6674 75.2642 30.407C72.4421 30.1174 69.6025 30.0144 66.7668 29.9833C57.5076 29.8822 48.2347 31.2311 39.403 34.0201C37.9492 34.4788 36.5071 34.9783 35.0785 35.5147C35.3545 35.5711 35.1213 35.4078 37.6013 36.0745C37.7471 36.1134 37.8928 36.1522 38.0386 36.1931C38.3321 36.2727 38.6256 36.3524 38.9191 36.4341C39.0668 36.4749 39.2145 36.5157 39.3622 36.5565C39.8053 36.679 40.2485 36.8053 40.6955 36.9336C40.9929 37.0171 41.2902 37.1046 41.5896 37.1901C41.8442 37.264 42.0988 37.3378 42.3553 37.4136C43.0317 37.6119 43.7081 37.816 44.3883 38.0239C44.9092 38.1833 45.432 38.3427 45.9568 38.5079C46.122 38.5584 46.2853 38.6109 46.4505 38.6634C46.5243 38.6867 46.6001 38.71 46.674 38.7333C46.8742 38.7975 47.0763 38.8597 47.2765 38.9238C47.4942 38.9918 47.7099 39.0618 47.9257 39.1318C48.1006 39.1881 48.2736 39.2425 48.4465 39.2989C48.7225 39.3883 48.9985 39.4777 49.2745 39.5691C49.4378 39.6215 49.5991 39.676 49.7624 39.7284C50.0617 39.8276 50.3629 39.9267 50.6622 40.0278C50.9324 40.1172 51.2026 40.2085 51.4727 40.2999C52.0636 40.4981 52.6525 40.7002 53.2414 40.9063C53.4027 40.9607 53.5621 41.017 53.7234 41.0734C53.9741 41.1609 54.2248 41.2483 54.4756 41.3377C54.703 41.4174 54.9304 41.4971 55.1578 41.5807C55.4785 41.6934 55.7972 41.8081 56.1179 41.9228C63.041 44.4144 69.7386 47.1607 75.4216 49.8701C76.2865 50.2821 77.1301 50.6942 77.9444 51.1043C77.9444 51.1043 94.7429 58.3422 99.1432 48.6223C102.787 40.5778 94.1423 35.4448 85.746 32.7179L85.7518 32.7199Z" fill="#11B67A"/>
<path d="M81.853 41.7373C83.6119 38.6684 76.7433 36.3982 74.8483 35.8754C70.0729 34.5557 68.0399 34.1709 63.0857 34.1398C59.5231 34.1165 55.7856 34.5363 52.2482 35.0086C50.4446 35.2496 48.6545 35.5936 46.9033 36.0931C45.7586 36.4196 44.0638 36.8822 42.3534 37.4147C43.0298 37.613 47.0141 39.4633 47.7158 39.3447C48.3805 39.2339 52.015 38.6217 54.0946 38.6936C59.9895 38.8977 61.0546 39.5546 66.7513 40.9696C69.9096 41.7548 79.6023 45.6595 81.8511 41.7373H81.853Z" fill="#024731"/>
<path d="M59.0955 43.0101C57.5775 42.4543 56.5552 42.0442 55.6417 41.7138C54.2326 41.2045 52.8157 40.7089 51.3969 40.2289C48.5573 39.2687 45.6964 38.3669 42.8179 37.5234C36.0251 35.5351 29.0048 33.4982 21.9496 32.7596C16.7505 32.2154 10.9877 31.3389 4.75269 34.0482C3.09092 34.7713 1.48745 35.8325 0.593401 37.4087C-0.147106 38.7129 -0.275383 40.5496 0.675032 41.7799C1.0929 42.3221 1.65655 42.7361 2.25517 43.0704C4.43005 44.2851 6.76041 44.1802 9.15686 43.9489C11.5553 43.7176 13.9245 43.2725 16.2898 42.8313C19.7494 42.188 23.244 41.5447 26.7775 41.6185C29.7628 41.6807 32.7365 42.2852 35.7141 42.5456C41.8014 43.0762 47.9062 43.2298 54.013 43.1015C55.6864 43.0665 57.4201 43.0743 59.0935 43.0063L59.0955 43.0101Z" fill="#6CF479"/>
<path d="M26.2312 55.2886C28.0349 64.7538 23.7862 78.7555 25.2206 81.1325C26.6549 83.5114 31.3332 84.7242 39.4787 85.9662C44.4096 86.7184 50.0363 86.1236 50.0363 86.1236C50.0363 86.1236 40.6449 86.318 32.5868 74.0151C28.307 67.4788 26.2312 55.2886 26.2312 55.2886Z" fill="white"/>
<path d="M0.593366 37.4108C5.53592 29.4907 17.3627 30.1224 25.4733 31.2885C34.3224 32.684 42.8451 35.4673 51.1598 38.7169C63.589 43.3543 75.0115 50.5554 88.0277 53.1131C91.1316 53.6165 94.6904 53.5485 96.9916 51.1151C97.7787 50.3649 98.5095 49.5311 99.1489 48.6234C98.665 49.6302 98.0605 50.5806 97.3531 51.4494C93.8021 56.046 86.0958 54.2851 81.2563 53.0354C72.6734 50.6506 64.59 46.8548 56.3919 43.4807C52.324 41.8034 48.2055 40.2485 44.0579 38.7908C33.1504 35.1155 9.09269 26.8105 0.593366 37.4108Z" fill="black"/>
<path d="M89.3009 62.1123C89.3009 62.1123 90.3308 65.5341 94.5167 66.4726C94.5167 66.4726 91.344 67.0208 91.2776 70.833C91.2776 70.833 90.1647 67.5274 86.1531 66.4726C86.1531 66.4726 89.5085 66.074 89.3009 62.1123Z" fill="white"/>
<path d="M36.7213 10.0342C36.7213 10.0342 38.6814 16.5373 46.638 18.3313C46.638 18.3313 40.6082 19.3695 40.492 26.6035C40.492 26.6035 38.3658 20.3329 30.7497 18.323C30.7497 18.323 37.12 17.5672 36.7213 10.0342Z" fill="white"/>
<path d="M10.4304 70.1472C10.4304 70.1472 11.859 74.873 17.6479 76.1852C17.6479 76.1852 13.2626 76.941 13.1795 82.2067C13.1795 82.2067 11.6347 77.6387 6.095 76.1769C6.095 76.1769 10.7294 75.6288 10.4471 70.1472H10.4304Z" fill="white"/>
</svg>
