<svg width="100" height="100" viewBox="0 0 100 100" fill="none" xmlns="http://www.w3.org/2000/svg">
<g clip-path="url(#clip0_15980_15701)">
<rect width="100" height="100" fill="#F1F1F1"/>
<path d="M14.4826 79.8779L2.42055 93.4091H99.9376L83.0971 81.9424L14.4826 79.8779Z" fill="black"/>
<path d="M19.9396 93.4084L26.9449 78.0138L42.2698 70.4673L39.9347 83.5654L19.9396 93.4084Z" fill="white"/>
<path d="M57.6049 78.0138L59.94 93.4084L79.9352 83.5654L72.9299 70.4673L57.6049 78.0138Z" fill="white"/>
<path d="M-0.0625 83.5654L19.9396 93.4084L26.9449 78.0138L11.6129 70.4673L-0.0625 83.5654Z" fill="#11B67A"/>
<path d="M39.9347 83.5654L42.2698 70.4673L57.6033 78.0138L59.9383 93.4084L39.9347 83.5654Z" fill="#11B67A"/>
<path d="M72.9299 70.4673L79.9352 83.5654L99.9376 93.4091L88.2622 78.0138L72.9299 70.4673Z" fill="#11B67A"/>
<path d="M33.2326 80.1479L41.3359 75.7406L58.0835 81.1917L72.9299 70.4673L57.6049 78.0138L42.2714 70.4673L29.5212 76.3514L33.2326 80.1479Z" fill="black"/>
<path d="M33.2416 80.1485H26.452L25.8862 73.8161L31.8837 72.2682L33.2416 80.1485Z" fill="black"/>
<path d="M32.9591 7.53718H24.5159L28.0339 9.0851L32.9591 7.53718Z" fill="black"/>
<path d="M26.487 7.53516C39.9434 7.53527 50.8408 18.6769 50.8318 32.416C50.8318 32.8096 50.8225 33.2033 50.8044 33.6045C50.8001 33.6407 50.8017 33.6756 50.8005 33.71H41.9988C42.0324 33.2832 42.0505 32.8517 42.0505 32.416C42.0505 23.6303 35.0781 16.5109 26.487 16.5107C17.8959 16.5107 10.9236 23.6302 10.9236 32.416C10.9238 41.2016 17.896 48.3213 26.487 48.3213C30.693 48.3212 34.5105 46.6138 37.3122 43.8408H48.7859C42.9373 61.7503 26.5556 80.0699 26.487 80.1465C26.4558 80.1115 3.23581 54.1693 2.17845 33.8242C2.16943 33.7486 2.16966 33.6802 2.16966 33.6045C2.15159 33.2033 2.14232 32.8097 2.14232 32.416C2.14232 18.6769 13.0397 7.53516 26.487 7.53516ZM50.2507 38.2129C50.0922 39.0518 49.9055 39.8965 49.6892 40.7441H39.7478C40.2297 39.9446 40.6439 39.098 40.9831 38.2129H50.2507Z" fill="black"/>
<path d="M20.0127 17.9513C17.8 18.9875 15.8663 20.5385 14.3574 22.4543H4.17579C4.85866 20.8593 5.69847 19.3509 6.67872 17.9513H20.0127Z" fill="#11B67A"/>
<path d="M22.5805 15.4175H8.71427C9.75611 14.2803 10.9011 13.2434 12.1342 12.3218H22.5805V15.4175Z" fill="#11B67A"/>
<path d="M33.2412 7.53718C19.7939 7.53718 8.89669 18.6785 8.89669 32.4176C8.89669 32.8115 8.90573 33.2053 8.92382 33.6067C8.92382 33.6825 8.92382 33.7506 8.93286 33.8264C9.99093 54.1852 33.2416 80.1485 33.2416 80.1485C33.2416 80.1485 56.4916 54.1852 57.5496 33.8264C57.5496 33.7506 57.5496 33.6825 57.5587 33.6067C57.5768 33.2053 57.5858 32.8115 57.5858 32.4176C57.5948 18.6785 46.6977 7.53718 33.2412 7.53718ZM33.2412 48.3229C24.6501 48.3229 17.6777 41.2034 17.6777 32.4176C17.6777 23.6318 24.6501 16.5123 33.2412 16.5123C41.8324 16.5123 48.8048 23.6318 48.8048 32.4176C48.8048 41.2034 41.8324 48.3229 33.2412 48.3229Z" fill="#6CF479"/>
<path d="M22.9687 61.5734C19.3605 55.9446 16.9177 51.5823 15.6513 48.6272C18.3625 53.9745 24.3363 61.2205 30.0047 62.6992C33.2413 63.5435 39.4329 64.5285 45.0617 60.3069C42.2473 64.5285 40.9809 66.6393 38.1665 70.1573C36.3652 72.4089 34.6954 74.6135 33.2413 76.0676C30.5676 72.6903 27.0115 67.8802 22.9687 61.5734Z" fill="white"/>
<path d="M36.3374 8.94249C36.3374 8.94249 52.3795 11.7569 55.3346 26.9546C55.3346 26.9546 49.151 15.997 42.6308 17.1747C42.6308 17.1747 43.3734 11.4954 36.3374 8.94249Z" fill="white"/>
</g>
<defs>
<clipPath id="clip0_15980_15701">
<rect width="100" height="100" fill="white"/>
</clipPath>
</defs>
</svg>
