<svg width="100" height="100" viewBox="0 0 100 100" fill="none" xmlns="http://www.w3.org/2000/svg">
<g clip-path="url(#clip0_15980_15715)">
<rect width="100" height="100" fill="#F1F1F1"/>
<path fill-rule="evenodd" clip-rule="evenodd" d="M52.4045 46.0816C50.2843 33.5167 52.9187 22.5944 58.2824 21.694C63.6461 20.7937 69.7139 30.2471 71.8341 42.82C73.9542 55.3849 71.3198 66.3072 65.9561 67.2075C60.5924 68.1079 54.5247 58.6545 52.4045 46.0816Z" fill="#6CF479"/>
<path fill-rule="evenodd" clip-rule="evenodd" d="M54.8648 38.7684C53.2826 39.0369 52.5073 42.2512 53.1322 45.9631C53.7572 49.667 55.5451 52.4627 57.1273 52.1942C58.7096 51.9257 60.7269 48.4982 60.1019 44.7942C59.4769 41.0903 56.447 38.5078 54.8648 38.7763" fill="#1A1A1A"/>
<path fill-rule="evenodd" clip-rule="evenodd" d="M72.5618 42.7016C70.2834 29.1889 63.7568 19.0169 57.9896 19.9804C52.2225 20.9518 49.3903 32.6954 51.6687 46.2081C53.9471 59.7208 60.4737 69.8928 66.2409 68.9293C72.008 67.9579 74.8402 56.2143 72.5618 42.7016ZM52.4045 46.0816C50.2843 33.5167 52.9187 22.5944 58.2824 21.694C63.6461 20.7937 69.7139 30.2471 71.8341 42.82C73.9542 55.3849 71.3198 66.3072 65.9561 67.2075C60.5924 68.1079 54.5247 58.6545 52.4045 46.0816Z" fill="black"/>
<path fill-rule="evenodd" clip-rule="evenodd" d="M75.2278 42.2513C72.451 25.7849 64.5083 13.3937 57.4753 14.5783L55.6004 14.8942C48.5754 16.071 45.1262 30.3813 47.903 46.8477C50.6797 63.314 58.6225 75.7053 65.6554 74.5206L67.5303 74.2047C74.5553 73.028 78.0046 58.7177 75.2278 42.2513ZM51.194 46.2869C48.7257 31.6607 51.7952 18.9536 58.037 17.9032C64.2789 16.8528 71.3435 27.862 73.8038 42.4882C76.272 57.1145 73.2105 69.8216 66.9607 70.872C60.7189 71.9224 53.6543 60.9132 51.1861 46.2869" fill="#11B67A"/>
<path d="M57.3251 25.7533C60.2918 25.0267 63.9942 29.2677 66.5257 35.7831C67.6886 35.6568 69.1047 37.3863 70.0382 39.9609C70.0382 39.9372 70.0303 39.9214 70.0224 39.9056C67.7203 29.7652 62.3882 22.4205 58.2903 23.4156C56.1622 23.9368 54.1765 26.9616 53.7019 30.8709C54.2873 28.3673 55.7666 26.1402 57.3172 25.7612L57.3251 25.7533Z" fill="white"/>
<path fill-rule="evenodd" clip-rule="evenodd" d="M23.8374 50.8832C23.0463 46.1842 23.6713 41.9669 25.2219 40.0636C24.589 39.6766 23.9561 39.5029 23.3311 39.6055L12.2398 41.4694C9.54215 41.9195 8.18936 47.2425 9.2178 53.3473C10.2462 59.4521 13.2683 64.0326 15.9659 63.5825L27.0652 61.7186C27.6901 61.616 28.236 61.2369 28.7028 60.6683C26.6063 59.3731 24.6365 55.5902 23.8454 50.8911" fill="black"/>
<path fill-rule="evenodd" clip-rule="evenodd" d="M98.1066 38.4052C99.6809 47.7479 98.0908 56.2299 94.4913 60.1787C98.9689 57.3435 101.16 48.2929 99.4515 38.184C97.7506 28.0752 92.7113 20.2329 87.5533 19.0167C92.2524 21.5755 96.5244 29.0703 98.1066 38.4052Z" fill="#11B67A"/>
<path fill-rule="evenodd" clip-rule="evenodd" d="M90.686 39.6531C91.6907 45.6158 90.8996 50.994 88.906 53.4659C91.4059 51.7127 92.5372 45.9791 91.4533 39.5268C90.3616 33.0666 87.4187 28.0201 84.4758 27.1829C87.1655 28.8651 89.6813 33.6905 90.686 39.6531Z" fill="#11B67A"/>
<path fill-rule="evenodd" clip-rule="evenodd" d="M7.87308 53.6632C7.44588 51.136 7.43797 48.7509 7.75441 46.7844L5.23869 47.2109C1.83694 47.7795 -0.457272 50.9938 0.120236 54.3897C0.689832 57.7857 3.90964 60.0681 7.31139 59.4995L9.49485 59.1362C8.79076 57.5646 8.22117 55.7086 7.88099 53.6711" fill="#11B67A"/>
<path fill-rule="evenodd" clip-rule="evenodd" d="M26.4164 79.3539C26.0842 79.0143 25.8943 78.5563 25.8943 78.0824L26.0446 63.6457L16.6542 65.2252L16.1558 83.6186C16.1321 84.7716 17.1763 85.6641 18.3155 85.4745L26.9069 84.0293C28.3784 83.7844 28.9717 81.9917 27.9275 80.9176L26.4085 79.3539H26.4164Z" fill="black"/>
<path fill-rule="evenodd" clip-rule="evenodd" d="M46.4316 47.0848C44.8256 37.5524 45.2845 28.7467 47.2939 22.7998L26.5432 40.9089C23.8534 45.7185 26.1001 56.9883 29.6522 59.3733L55.6954 70.3588C51.6371 65.4702 48.1008 57.0199 46.4237 47.0848" fill="black"/>
<path d="M26.5434 40.9168C23.8536 45.7264 26.1003 56.9962 29.6524 59.3813L55.7035 70.3746C51.6373 65.486 48.1089 57.0357 46.4318 47.1006C44.8258 37.5683 45.2847 28.7625 47.2941 22.8157L26.5434 40.9247V40.9168Z" fill="black"/>
<path d="M47.2941 22.8157C45.2847 28.7625 44.8258 37.5683 46.4318 47.1006C46.5699 47.919 46.722 48.7273 46.8846 49.5245L25.7971 51.2655C25.0857 47.4916 25.1734 43.3664 26.5434 40.9168V40.9247L47.2941 22.8157Z" fill="#11B67A"/>
<path d="M51.755 64.157C52.9721 66.594 54.3061 68.6946 55.7035 70.3746L29.6524 59.3813C29.0396 58.9697 28.4654 58.2933 27.9489 57.4316L51.755 64.157Z" fill="#035D3E"/>
<path d="M23.3309 39.598L12.2396 41.4619C9.54194 41.912 8.18915 47.235 9.21759 53.3398C10.246 59.4446 13.2681 64.0251 15.9657 63.575L27.057 61.7111C27.682 61.6085 28.2279 61.2294 28.6946 60.6608C26.5982 59.3656 24.6286 55.5823 23.8374 50.8832C23.0463 46.1921 23.6713 41.9669 25.2219 40.0636C24.7156 39.7477 24.1932 39.5744 23.6869 39.5744C23.5683 39.5744 23.4498 39.5819 23.3311 39.6055" fill="black"/>
<path d="M26.4193 58.1947C26.6449 58.5557 26.8778 58.889 27.1172 59.1908L12.4942 61.6474C12.2553 61.3451 12.0224 61.0117 11.7972 60.6503L26.4193 58.1947Z" fill="#035D3E"/>
<path d="M24.6227 54.1744C24.8779 54.9835 25.169 55.7426 25.4862 56.4409L10.866 58.8956C10.5492 58.1972 10.2582 57.4385 10.0034 56.6301L24.6227 54.1744Z" fill="#035D3E"/>
<path d="M0.118467 54.4015C0.200485 54.5837 1.31933 56.7216 8.26513 55.5503C8.59035 56.8586 9.00616 58.068 9.48722 59.1364L7.30374 59.4993C3.90989 60.0745 0.697188 57.7963 0.116638 54.4134L0.118467 54.4015Z" fill="black"/>
<path d="M0.120236 54.3897L0.118467 54.4015C0.11486 54.3935 0.112064 54.3896 0.112064 54.3896L0.120236 54.3897Z" fill="black"/>
<path fill-rule="evenodd" clip-rule="evenodd" d="M28.7662 40.1901L43.3146 27.8305C43.3146 27.8305 36.701 34.0695 36.788 37.3391C36.788 37.3391 34.7865 35.5069 28.7662 40.1901Z" fill="#6CF479"/>
<path fill-rule="evenodd" clip-rule="evenodd" d="M1.11708 52.9763C1.11708 52.9763 1.59966 49.2171 6.10105 48.1272C6.10105 48.1272 3.83849 49.2882 4.36853 50.4254C4.36853 50.4254 2.4145 49.4461 1.11708 52.9763Z" fill="#6CF479"/>
<path d="M23.6869 39.5744C24.1932 39.5744 24.7156 39.7477 25.2219 40.0636C23.6713 41.9669 23.0463 46.1921 23.8374 50.8832C24.6286 55.5823 26.5982 59.3656 28.6946 60.6608C28.3105 61.1287 27.8719 61.4654 27.3806 61.6282C25.2071 61.6693 22.7118 57.1331 21.7175 51.2307C20.7255 45.3873 21.5741 40.3248 23.5982 39.5766C23.6278 39.5755 23.6573 39.5744 23.6869 39.5744Z" fill="#11B67A"/>
</g>
<defs>
<clipPath id="clip0_15980_15715">
<rect width="100" height="100" fill="white"/>
</clipPath>
</defs>
</svg>
