<svg width="100" height="100" viewBox="0 0 100 100" fill="none" xmlns="http://www.w3.org/2000/svg">
<g clip-path="url(#clip0_15980_15743)">
<rect width="100" height="100" fill="#F1F1F1"/>
<path d="M13.039 70.442C13.039 70.442 15.5746 52.4328 51.062 54.1557C80.6763 55.5969 106.26 73.0101 98.393 86.0348C92.0323 96.5564 49.87 98.691 29.0977 92.1462C8.32541 85.6013 13.039 70.4312 13.039 70.4312V70.442Z" fill="#6CF479"/>
<path d="M83.1587 65.5569C83.1587 65.5569 95.9233 71.5057 97.3212 81.1388C97.3212 81.1388 93.1927 74.5181 84.9575 73.8788C84.9575 73.8788 86.507 69.3494 83.1587 65.5569Z" fill="#6CF479"/>
<path d="M35.8385 93.3815C30.9732 92.0595 25.6745 89.5348 23.3773 85.0487C22.2937 82.9357 21.6544 80.5193 22.207 78.0379C24.3092 68.5132 36.8462 69.12 36.8462 69.12C84.4915 71.6773 81.1215 61.4374 81.1215 61.4374C72.7021 57.4823 62.1696 54.6975 51.0737 54.1557C15.5863 52.4328 13.0507 70.442 13.0507 70.442C13.0507 70.442 11.9021 74.1587 13.2566 78.7097C6.34335 81.2562 3.46101 83.6617 3.46101 83.6617C3.46101 83.6617 -12.1101 94.5409 25.1652 98.5177C66.9482 102.982 86.9404 96.6214 94.9264 89.2855C83.9389 96.1771 49.4375 97.0765 35.8493 93.3815H35.8385Z" fill="black"/>
<path d="M85.846 44.3301C85.846 44.3301 84.0148 29.6476 54.6388 31.8581C32.2953 33.5485 16.8217 44.601 20.9935 52.3595C25.1653 60.1179 57.1744 62.8919 73.0381 59.0127C88.9017 55.1335 85.846 44.3301 85.846 44.3301Z" fill="#11B67A"/>
<path d="M75.4111 37.1339C75.4111 37.1339 84.4156 39.8537 83.1479 47.7856C83.1479 47.7856 80.7098 43.137 73.4064 44.8382C73.4064 44.8382 77.6433 41.8909 75.4219 37.1339H75.4111Z" fill="#6CF479"/>
<path d="M21.0043 52.3676C23.0631 56.1926 31.916 58.8149 42.2426 60.0069C42.416 60.0285 42.5893 60.0502 42.7735 60.0719V60.0285C33.5739 59.2375 30.9191 54.253 31.4501 50.2871C32.2953 43.9482 43.0986 43.3739 43.0986 43.3739C70.9251 41.4884 73.2873 34.3693 73.4823 33.3074C73.4823 33.3074 67.1217 30.956 54.6388 31.8662C32.2953 33.4916 16.8217 44.6091 20.9935 52.3676H21.0043Z" fill="black"/>
<path d="M74.5981 23.0999C74.1864 28.6587 67.4248 34.9652 53.1648 37.2407C40.3894 39.2887 29.4018 37.1973 28.5133 31.7903C27.6247 26.3832 38.1789 19.069 50.7268 15.8399C65.7236 11.9823 75.0966 16.3167 74.5981 23.0999Z" fill="#6CF479"/>
<path d="M53.8578 14.8656C48.8299 16.1551 41.4832 18.4848 38.0158 20.782C37.7449 21.6164 37.8207 22.4074 38.2542 23.1009C39.7278 25.4522 46.8578 26.9259 55.364 24.0869C62.8407 21.5947 68.4428 17.813 67.9769 15.1799C64.4119 14.0638 60.0667 13.2619 53.8578 14.8548V14.8656Z" fill="black"/>
<path d="M39.2838 10.4673C40.3348 14.9209 45.4277 18.7567 54.584 17.9007C62.7867 17.1314 69.2774 13.3388 69.0498 8.7661C68.8223 4.19337 61.2372 0.249124 53.0128 0.0107358C43.1847 -0.270996 38.0051 5.03857 39.2946 10.4782L39.2838 10.4673Z" fill="#11B67A"/>
<path d="M69.5928 18.5522C69.5928 18.5522 72.3451 19.4624 72.2368 22.5181C72.1284 25.5738 68.9535 29.0954 63.4489 32.0428C63.4489 32.0428 70.0154 25.3571 69.5928 18.5522Z" fill="#6CF479"/>
<path d="M55.4956 2.57775C55.4956 2.57775 60.4692 3.14121 64.3918 5.75265C68.3143 8.36409 66.5156 11.1922 64.9228 12.6659C64.9228 12.6659 65.3453 6.77122 58.2479 7.68143C58.2479 7.68143 59.4181 4.96163 55.4956 2.57775Z" fill="#6CF479"/>
</g>
<defs>
<clipPath id="clip0_15980_15743">
<rect width="100" height="100" fill="white"/>
</clipPath>
</defs>
</svg>
