<svg width="100" height="100" viewBox="0 0 100 100" fill="none" xmlns="http://www.w3.org/2000/svg">
<path d="M81.5439 43.6142C70.9516 45.7438 56.063 55.6229 54.0293 57.3469C53.7921 57.5497 53.4362 57.5582 53.1819 57.3723C52.843 57.1187 52.8006 56.6032 53.1226 56.3412C66.5875 45.2114 71.138 38.0619 71.7312 37.0732C66.4265 34.6647 60.2576 33.2787 53.6565 33.2787C35.0395 33.2787 19.7527 44.2733 18.0409 58.3188C19.7527 72.3642 35.0395 83.3588 53.6565 83.3588C72.2735 83.3588 87.5603 72.3642 89.272 58.3188C88.5941 52.7834 85.8062 47.7213 81.5354 43.6142H81.5439Z" fill="#6CF479"/>
<path d="M84.2385 71.8496V76.3539C87.3145 72.4496 89.1534 67.8861 89.4161 62.9593C88.3399 66.1706 86.5773 69.1707 84.2385 71.8496Z" fill="#024731"/>
<path d="M81.6879 74.4426C80.7897 75.2623 79.8321 76.0398 78.8153 76.775V81.6089C79.8321 80.8399 80.7981 80.0371 81.6879 79.1751V74.4341V74.4426Z" fill="#024731"/>
<path d="M71.7312 80.816C66.3842 83.1653 60.2237 84.5091 53.6649 84.5091C33.2938 84.5091 16.7275 71.5792 16.7275 55.6915C16.7275 54.745 16.7868 53.8154 16.9054 52.8942C14.1175 56.3253 12.5329 60.2127 12.5329 64.3452C12.5329 77.9427 29.6162 89.081 50.877 89.3937C52.1735 89.4359 52.7243 89.4021 53.6649 89.3937C60.4016 89.3092 66.5282 87.9739 71.7312 85.7006V80.816Z" fill="#024731"/>
<path d="M49.4195 48.0349C49.8263 44.9757 47.0553 44.4518 45.53 44.3926C45.1318 44.3757 44.903 43.9278 45.1233 43.5898C50.2415 35.7051 45.1318 37.0657 45.1318 37.0657C37.5816 38.1812 32.0821 42.3644 32.0821 42.3644C40.9372 39.3897 44.1064 38.0882 42.2422 43.4799C40.378 48.8716 47.2757 43.7588 47.4621 48.2209C47.6485 52.6829 50.2584 55.7506 50.2584 55.7506C50.2584 55.7506 48.8603 52.2181 49.4195 48.0349ZM27.1927 58.2606C20.3458 59.4437 25.8708 68.858 25.8708 68.858C24.0489 62.4437 25.5064 59.7817 31.8194 61.3536C38.1324 62.9254 42.6235 60.7451 42.6235 60.7451C34.2514 61.5902 31.4889 57.5169 27.2011 58.2606H27.1927Z" fill="white"/>
<path d="M91.1701 16.437C84.4843 18.854 83.0691 34.5727 83.0691 34.5896C83.0691 34.9614 83.7386 35.2656 84.569 35.2656C85.3994 35.2656 86.0689 34.9614 86.0689 34.5896C86.0689 34.5811 86.3655 26.2147 88.9161 20.8484C91.5006 15.406 95.8307 17.6455 95.8307 17.6455C93.7292 15.2708 91.1617 16.437 91.1617 16.437H91.1701ZM88.5517 0C83.0522 6.48184 80.7219 17.8568 79.7305 25.7837C78.7221 19.8765 76.6629 11.9242 72.4938 4.97758C72.4938 4.97758 77.4764 18.1779 77.7645 34.5473C77.7645 34.5473 77.7645 34.5726 77.7645 34.5811C77.7645 35.105 78.6966 35.5191 79.8491 35.5191C81.0015 35.5191 81.9336 35.0966 81.9336 34.5811V34.5473C81.9336 11.9073 88.5432 0 88.5432 0H88.5517Z" fill="#6CF479"/>
<path d="M18.2274 59.4875C18.1512 59.0734 18.1088 58.6593 18.0579 58.2452C18.0579 58.2706 18.0579 58.2959 18.0495 58.3128C18.1003 58.7016 18.1596 59.0987 18.2274 59.479V59.4875Z" fill="#11B67A"/>
<path d="M53.665 33.2812C60.2577 33.2812 66.4351 34.6672 71.7397 37.0757C71.7905 36.9996 73.265 32.2587 68.6298 30.5854C64.681 29.0473 59.2408 28.0332 53.665 28.0332C33.904 28.0332 17.8885 40.4223 17.8885 55.693C17.8885 56.555 17.9647 57.4086 18.0664 58.2452C19.8205 44.2336 35.0904 33.2812 53.6735 33.2812H53.665Z" fill="#11B67A"/>
<path d="M84.8234 42.0961C84.0947 41.1496 83.3913 40.9383 82.9507 41.0397C81.5525 41.3524 81.5694 43.6088 81.544 43.6172C85.8148 47.7159 88.6027 52.778 89.2806 58.3218C89.3823 57.4598 89.4416 56.5809 89.4416 55.6936C89.4416 50.7498 87.7553 46.1102 84.8149 42.0961H84.8234Z" fill="#11B67A"/>
<path d="M29.4298 76.0344C28.3028 75.2315 27.2351 74.3695 26.2521 73.4568C27.2436 74.3695 28.3028 75.2315 29.4298 76.0344Z" fill="#11B67A"/>
<path d="M18.4307 35.359C20.3543 33.4237 22.3033 30.6096 23.371 26.5869C23.371 26.5869 19.9814 28.1926 16.8376 32.1561C17.4647 29.6293 17.5325 26.5193 16.1597 23.0122C16.1597 23.0122 14.2192 26.3588 13.3973 32.0969C12.5753 26.3588 10.6348 23.0122 10.6348 23.0122C9.26203 26.5193 9.32982 29.6293 9.95689 32.1561C6.82157 28.1926 3.42356 26.5869 3.42356 26.5869C4.49126 30.6096 6.44025 33.4237 8.36381 35.359C4.63532 33.6772 1.5 33.7702 1.5 33.7702C7.80453 41.1225 18.9561 41.0211 25.2945 33.7702C25.2945 33.7702 22.1592 33.6857 18.4307 35.359ZM91.6362 96.1125C93.5597 94.1773 95.5087 91.3631 96.5764 87.3405C96.5764 87.3405 93.1869 88.9462 90.0431 92.9096C90.6702 90.3828 90.738 87.2729 89.3652 83.7658C89.3652 83.7658 87.4247 87.1123 86.6027 92.8505C85.7808 87.1123 83.8403 83.7658 83.8403 83.7658C82.4675 87.2729 82.5353 90.3828 83.1623 92.9096C80.027 88.9462 76.629 87.3405 76.629 87.3405C77.6967 91.3631 79.6457 94.1773 81.5693 96.1125C77.8408 94.4308 74.7055 94.5237 74.7055 94.5237C81.01 101.876 92.1616 101.775 98.5 94.5237C98.5 94.5237 95.3647 94.4392 91.6362 96.1125Z" fill="white"/>
</svg>
