<svg width="100" height="100" viewBox="0 0 100 100" fill="none" xmlns="http://www.w3.org/2000/svg">
<g clip-path="url(#clip0_15980_15771)">
<rect width="100" height="100" fill="#F1F1F1"/>
<path d="M93.6656 31.9635C93.568 31.2614 93.1089 30.6444 92.3756 30.2186H92.3714L63.464 13.3427C62.845 12.9855 62.1179 12.8151 61.3846 12.8151C60.2317 12.8151 59.0664 13.2389 58.302 14.0407L47.9862 24.8301V24.8384C49.9097 27.1816 51.476 29.8758 52.4731 32.7425C54.6729 39.0657 54.1079 44.421 51.0585 47.2544L51.0086 47.3001L46.9891 50.6757C45.3854 51.9719 43.2915 52.7093 40.7884 52.7093H40.7344C34.3218 52.7093 28.871 52.1297 24.5503 49.3462L11.5839 62.9088C11.0272 63.4925 10.7717 64.1863 10.8714 64.8656C10.9732 65.5718 11.4322 66.1888 12.1655 66.6146L41.0771 83.4926C42.6704 84.4149 44.9845 84.0991 46.235 82.7904L92.9489 33.9245C93.5056 33.3449 93.7611 32.6469 93.6614 31.9677H93.6656V31.9635Z" fill="#11B67A"/>
<path d="M27.331 46.4383L24.5558 49.3444C28.8765 52.128 34.3252 52.7055 40.7357 52.7096C36.2031 52.6868 31.3153 50.248 27.3331 46.4404L27.331 46.4383Z" fill="#006A4D"/>
<path d="M24.3578 32.3769C27.6337 41.787 36.8091 49.4168 44.8502 49.421C47.3492 49.421 49.4057 48.5984 51.0094 47.298L46.9898 50.6736C45.3862 51.9698 43.2923 52.7072 40.7891 52.7072C32.748 52.7031 23.5747 45.0732 20.2967 35.6631C20.2697 35.5842 20.2427 35.5073 20.2199 35.4326L24.3246 32.273C24.335 32.3063 24.3474 32.3416 24.3578 32.3748V32.379V32.3769Z" fill="black"/>
<path d="M94.9137 38.4718L94.4089 33.8332C94.2427 34.1406 94.0329 34.4356 93.7712 34.7098L47.0573 83.5758C46.083 84.5957 44.5999 85.142 43.1312 85.142C42.2048 85.142 41.2887 84.926 40.5076 84.4752L11.596 67.5973C10.655 67.0552 10.0339 66.2575 9.80955 65.3331L10.4307 71.0518C10.5262 71.9243 11.0642 72.7511 12.0115 73.2974L41.4652 90.4869C43.2787 91.5338 45.8982 91.1765 47.3211 89.6871L94.035 40.8212C94.7143 40.1128 94.9989 39.2736 94.9116 38.478V38.4738L94.9137 38.4718Z" fill="#024731"/>
<path d="M28.3549 80.3791C28.521 79.9055 28.2136 79.2594 27.6694 78.9416L23.5086 76.507C22.9664 76.1892 22.3889 76.318 22.2269 76.7916C22.0607 77.2652 22.3681 77.9113 22.9124 78.2291L27.0732 80.6637C27.6153 80.9815 28.1928 80.8527 28.3549 80.3791Z" fill="#6CF479"/>
<path d="M34.6163 67.0196C36.517 68.1164 36.8432 70.2706 35.3517 71.8285C33.8602 73.3865 31.1161 73.7625 29.2195 72.6677C27.3188 71.5709 26.9865 69.4168 28.4759 67.8588C29.9674 66.3009 32.7115 65.9249 34.6163 67.0217V67.0196Z" fill="#6CF479"/>
<path d="M70.3153 22.2356C70.9717 22.6158 71.088 23.3615 70.5728 23.9016C70.0577 24.4396 69.1021 24.5726 68.4457 24.1945C67.7893 23.8144 67.675 23.0686 68.1923 22.5285C68.7074 21.9905 69.6568 21.8576 70.3153 22.2398V22.2356Z" fill="#6CF479"/>
<path d="M79.5281 27.5536C80.1845 27.9337 80.3008 28.6795 79.7857 29.2195C79.2705 29.7576 78.315 29.8905 77.6585 29.5124L72.3677 26.4588C71.7113 26.0787 71.595 25.333 72.1101 24.7908C72.6253 24.2528 73.5788 24.124 74.2373 24.502L79.5281 27.5556V27.5536Z" fill="#6CF479"/>
<path d="M32.9796 16.4116C29.9758 16.4116 27.5704 17.5604 26.0269 19.7332C23.9185 22.7037 23.6755 27.1823 25.3622 32.0286C28.4989 41.0295 37.2401 48.3561 44.8533 48.3602C47.8654 48.3602 50.2688 47.2115 51.8122 45.0387C53.9207 42.0681 54.1637 37.5895 52.477 32.7432C49.3403 23.7424 40.5991 16.4158 32.9858 16.4116H32.9775H32.9796Z" fill="#6CF479"/>
<path d="M50.0548 33.6487C47.9007 27.4625 42.6369 21.8372 36.9555 19.654C35.3518 19.035 33.7876 18.7255 32.3128 18.7255C30.7236 18.7255 29.3277 19.0848 28.1748 19.787C29.4939 18.5198 31.2887 17.8572 33.4387 17.8593C34.9135 17.8593 36.4756 18.175 38.0814 18.7878C43.7627 20.9731 49.0266 26.5963 51.1807 32.7824C52.7054 37.1551 52.4998 41.1788 50.624 43.819C50.0901 44.5731 49.4296 45.1838 48.6672 45.6512C48.9705 45.3583 49.2468 45.0405 49.4981 44.6832C51.376 42.043 51.5775 38.0193 50.0548 33.6466V33.6487Z" fill="black"/>
<path d="M48.4084 44.0283C47.4902 45.2684 46.0112 45.9062 44.1292 45.8688C43.7719 45.8605 43.4001 45.8314 43.0303 45.7774C40.1512 45.3682 37.0228 43.6835 34.2226 41.0287C31.5118 38.5401 29.8874 35.5405 29.8874 35.5405C32.9472 39.1882 34.5031 38.8974 35.5729 37.703C40.7869 44.5933 49.4927 45.0046 49.5675 38.1392C49.8334 40.5447 49.4429 42.6345 48.4105 44.0283H48.4063H48.4084Z" fill="white"/>
<path d="M7.43053 30.8566C7.71512 35.867 4.76745 39.793 0.03125 40.707C5.20368 41.6252 10.0147 45.5471 12.1106 50.5596C11.8261 45.545 14.7737 41.6231 19.5099 40.7091C14.3375 39.791 9.5265 35.8691 7.43053 30.8566Z" fill="#006A4D"/>
<path d="M44.4543 8.91211C44.5748 11.0663 43.3118 12.7551 41.276 13.1456C43.4987 13.5403 45.5656 15.225 46.4692 17.3812C46.3488 15.227 47.6118 13.5382 49.6475 13.1477C47.4206 12.753 45.3537 11.0663 44.4543 8.91211Z" fill="#006A4D"/>
<path d="M82.128 50.1318C82.3481 50.541 82.7802 50.6096 83.096 50.2793L87.7013 45.4808C88.0171 45.1546 88.096 44.5543 87.8758 44.1451C87.6556 43.7358 87.2235 43.6673 86.9078 43.9976L82.3024 48.7961C81.9867 49.1222 81.9078 49.7226 82.128 50.1318Z" fill="#6CF479"/>
<path d="M75.3126 57.2322C75.3126 57.2322 75.9648 57.71 76.2806 57.3797L80.8859 52.5812C81.2017 52.255 81.2806 51.6568 81.0604 51.2455C80.8402 50.8362 80.4081 50.7677 80.0924 51.098L75.487 55.8965C75.1713 56.2226 75.3126 57.2322 75.3126 57.2322Z" fill="#6CF479"/>
<path d="M22.7241 20.6653L26.7852 17.377C24.8845 18.9121 23.6797 21.2428 23.3141 24.0638L19.2779 27.1693C19.6726 24.4273 20.867 22.1714 22.7262 20.6653H22.722H22.7241Z" fill="black"/>
<path d="M19.1363 29.3774L23.1973 26.2531C23.2077 26.8306 23.2513 27.4185 23.322 28.0209L19.2443 31.1576C19.1757 30.551 19.1383 29.9549 19.1342 29.3794L19.1363 29.3774Z" fill="black"/>
<path d="M71.7876 90.7031C71.7876 75.1027 59.1411 62.4604 43.547 62.4604C59.1473 62.4604 71.7876 49.8139 71.7876 34.2177C71.7876 49.8181 84.4341 62.4604 100.03 62.4604C84.4299 62.4604 71.7876 75.1069 71.7876 90.7031Z" fill="#6CF479"/>
<path d="M71.7875 69.6267C73.9583 60.9146 84.4341 62.4604 100.03 62.4604C84.4299 62.4604 71.7876 75.1069 71.7876 90.7031" fill="#11B57A"/>
<path d="M71.7875 69.6267C69.6167 60.9146 59.1411 62.4604 43.547 62.4604C59.1473 62.4604 71.7876 75.1069 71.7876 90.7031" fill="black"/>
<path d="M90.517 62.07C81.1879 62.07 79.5136 62.768 75.8846 59.571C74.7317 58.5532 71.0985 54.0476 71.865 41.5942C72.5859 54.2366 88.2673 62.0825 90.517 62.07Z" fill="white"/>
</g>
<defs>
<clipPath id="clip0_15980_15771">
<rect width="100" height="100" fill="white"/>
</clipPath>
</defs>
</svg>
