<svg width="100" height="100" viewBox="0 0 100 100" fill="none" xmlns="http://www.w3.org/2000/svg">
<g clip-path="url(#clip0_15980_15785)">
<rect width="100" height="100" fill="#F1F1F1"/>
<path d="M100.023 35.1909L90.043 35.4319L71.603 24.7646C70.407 24.0712 68.644 24.3251 67.6954 25.3239L39.3538 55.1103L23.7956 65.4734V70.9173C23.8304 71.5333 24.1925 72.121 24.8434 72.496L52.2159 88.33C53.4118 89.0234 55.1749 88.7695 56.1234 87.7707L99.4227 42.2637C99.8403 41.8242 100.039 41.3152 100.031 40.8267V35.1922H100.025L100.023 35.1909Z" fill="black"/>
<path d="M56.1229 82.185C55.1679 83.1903 53.4112 83.4377 52.2153 82.7444L24.8428 66.9104C23.6468 66.217 23.4483 64.829 24.3968 63.8315L67.6961 18.3232C68.6511 17.318 70.4077 17.0705 71.6037 17.7639L98.9762 33.5979C100.172 34.2912 100.371 35.6793 99.4221 36.6768L56.1229 82.1837V82.185Z" fill="#11B57A"/>
<path d="M85.0452 32.6003L80.4017 29.8822C79.921 29.5987 79.8282 28.9414 80.211 28.5367C80.7484 27.971 81.599 27.8575 82.2705 28.2468L86.914 30.9648C87.4024 31.2483 87.4875 31.9134 87.0983 32.3167H87.0918C86.5544 32.8761 85.7115 32.9895 85.0465 32.6003H85.0452Z" fill="#024731"/>
<path d="M47.3612 69.693C47.3045 71.335 45.4435 72.723 43.1984 72.7861C40.9546 72.8493 39.1851 71.576 39.2483 69.934C39.305 68.2921 41.166 66.9041 43.4111 66.841C45.6548 66.7778 47.4243 68.0511 47.3612 69.693Z" fill="#024731"/>
<path d="M77.8608 27.921C78.6264 27.8411 79.1999 27.323 79.1419 26.7624C79.0839 26.203 78.415 25.8138 77.6495 25.8937C76.8839 25.9736 76.3104 26.4917 76.3684 27.0523C76.4264 27.6117 77.0953 28.0009 77.8608 27.9223V27.921Z" fill="#024731"/>
<path d="M6.50095 33.2261C6.50095 33.2261 8.62486 40.2615 17.2249 42.2089C17.2249 42.2089 10.7062 43.334 10.5787 51.1634C10.5787 51.1634 8.28462 44.3818 0.03125 42.2025C0.03125 42.2025 6.92624 41.3815 6.50095 33.2274V33.2261Z" fill="#006A4D"/>
<path d="M54.914 11.2793C54.914 11.2793 55.8484 14.3724 59.6349 15.2294C59.6349 15.2294 56.7686 15.7243 56.7042 19.1718C56.7042 19.1718 55.6925 16.1844 52.0607 15.2294C52.0607 15.2294 55.097 14.8686 54.9063 11.2793H54.914Z" fill="#006A4D"/>
<path d="M68.886 45.1501C68.886 45.1501 70.2599 49.7021 75.83 50.9612C75.83 50.9612 71.6118 51.6907 71.5267 56.7582C71.5267 56.7582 70.0408 52.3699 64.7026 50.9612C64.7026 50.9612 69.1618 50.4303 68.886 45.1566V45.1488V45.1501Z" fill="#006A4D"/>
<path d="M58.2984 29.1828L56.4104 36.0817L60.7768 36.971L60.1298 41.9908L56.7377 45.9087L56.199 47.2799L52.8752 51.1192L47.5719 49.1616L45.4763 49.7003L38.406 50.2854L34.8696 46.8186L54.0532 28.7485L58.2984 29.1828Z" fill="#006A4D"/>
<path d="M60.7768 36.971C60.7755 36.8614 60.7429 36.7973 60.6294 36.7587C60.4851 36.711 60.3472 36.6427 60.2106 36.5757C59.3097 36.1298 58.5442 35.5137 57.9178 34.7263C57.4294 34.1141 57.0647 33.4375 56.8636 32.6771C56.7554 32.2673 56.7103 31.851 56.7399 31.4283C56.7489 31.2955 56.7605 31.1615 56.8056 31.0339C56.8134 30.8754 56.8714 30.7298 56.9281 30.5854C57.1897 29.9294 57.6511 29.4655 58.298 29.1845C58.3419 29.1652 58.445 29.1329 58.4501 29.1265C58.4643 29.0814 58.4321 29.0492 58.414 29.0144C58.182 28.5736 57.9359 28.1393 57.6756 27.714C56.8675 26.393 55.9512 25.1519 54.924 23.9933C54.8673 23.9288 54.8093 23.8657 54.7552 23.8C54.732 23.7716 54.7088 23.7561 54.6804 23.7561C54.665 23.7561 54.6482 23.76 54.6302 23.769C54.5799 23.7935 54.5283 23.8141 54.4755 23.8335C54.0837 23.9804 53.6855 24.0423 53.2821 24.0423C53.0321 24.0423 52.7808 24.0191 52.5269 23.9765C51.9869 23.8876 51.4752 23.7072 50.9868 23.4623C50.2741 23.104 49.6477 22.631 49.1026 22.0498C48.5355 21.4454 48.0909 20.7649 47.8125 19.9813C47.6011 19.3872 47.5109 18.7776 47.5947 18.1486C47.605 18.0726 47.5857 18.0275 47.5148 17.9875C47.1165 17.7684 46.7157 17.5558 46.3085 17.3547C45.106 16.758 43.8649 16.258 42.5813 15.8662C42.3042 15.7811 42.0271 15.6948 41.7436 15.6342C41.7359 15.6342 41.7281 15.6342 41.7204 15.6342C41.7037 15.6342 41.6882 15.6316 41.6753 15.6149C41.6689 15.6123 41.6637 15.611 41.6573 15.611C41.6495 15.611 41.6418 15.6136 41.6341 15.62C41.6276 15.8507 41.5864 16.0776 41.509 16.2928C41.4008 16.5918 41.2719 16.8856 41.058 17.1266C40.8685 17.3393 40.6662 17.5378 40.4097 17.6769C40.2035 17.7891 39.9973 17.8922 39.7718 17.9592C39.7086 17.9785 39.5488 18.0198 39.5308 18.0223C39.2678 18.0739 39.0049 18.0984 38.742 18.0984C38.4546 18.0984 38.1672 18.0687 37.8798 18.0107C37.1298 17.86 36.4428 17.5558 35.8049 17.1369C35.0651 16.6511 34.4401 16.0479 33.9413 15.3159C33.8949 15.2489 33.8782 15.227 33.8369 15.227C33.8163 15.227 33.7892 15.2321 33.748 15.2411C33.1783 15.3546 32.6177 15.5028 32.0674 15.6884C31.2323 15.9706 30.4384 16.3405 29.687 16.8019C29.5169 16.9063 29.3442 17.0094 29.1883 17.1369C29.1908 17.1859 29.236 17.2091 29.2579 17.2465C29.3764 17.454 29.5246 17.6434 29.6355 17.8587C29.718 18.0198 29.7798 18.1899 29.8649 18.3497C29.9551 18.5185 30.0079 18.6977 30.0556 18.8807C30.0659 18.9232 30.1097 18.9541 30.0994 19.0031C30.1497 19.132 30.1626 19.2686 30.1897 19.4013C30.2515 19.7055 30.2373 20.0135 30.2335 20.3215C30.2322 20.4736 30.2013 20.6244 30.1613 20.7687C30.0518 21.1734 29.8816 21.5459 29.5994 21.8668C29.3068 22.198 28.9498 22.4222 28.5439 22.5821C28.3286 22.6671 28.1044 22.7174 27.8789 22.7509C27.7783 22.7664 27.6752 22.7818 27.5696 22.7818C27.5541 22.7818 27.5399 22.7818 27.5244 22.7818C27.4806 22.7792 27.4368 22.7792 27.393 22.7792C27.3182 22.7792 27.2422 22.7805 27.1662 22.7805C27.0553 22.7805 26.9445 22.7767 26.8349 22.756C26.7396 22.7277 26.6403 22.7328 26.5437 22.7135C26.3594 22.6865 26.1802 22.6375 26.0011 22.5885C25.7756 22.5254 25.5591 22.4351 25.3387 22.3565C25.3374 22.3565 25.3348 22.3565 25.3335 22.3565C25.3181 22.3565 25.3039 22.3527 25.2936 22.3385C25.2871 22.3346 25.2807 22.3333 25.2742 22.3333C25.2665 22.3333 25.2588 22.3359 25.2523 22.3423C25.2111 22.4725 25.1698 22.604 25.1273 22.7341C25.0023 23.1105 24.9147 23.4971 24.8296 23.8837C24.7729 24.1428 24.7317 24.4057 24.6943 24.6699C24.6724 24.8271 24.6569 24.9856 24.6427 25.1442C24.626 25.3246 24.617 25.5063 24.5963 25.6855C24.5693 25.9303 24.586 26.1752 24.5796 26.4201C24.5757 26.5721 24.5796 26.7255 24.5796 26.8776C24.5796 27.0889 24.5731 27.3003 24.6028 27.5117C25.1724 27.7192 25.6957 28.0117 26.1828 28.3726C26.4973 28.6045 26.7937 28.8584 27.0605 29.1445C27.2525 29.3508 27.4433 29.5582 27.5966 29.7967C27.6353 29.8109 27.6469 29.8495 27.6675 29.8792C27.8286 30.1189 27.9871 30.3599 28.116 30.6176C28.2939 30.972 28.4356 31.3419 28.5258 31.7286C28.5336 31.7608 28.5709 31.9 28.5787 31.9386C28.5993 32.0404 28.6135 32.1435 28.6186 32.2454C28.6264 32.4039 28.6624 32.5624 28.6457 32.7222C28.6186 32.9941 28.5993 33.2648 28.5168 33.5303C28.4343 33.7958 28.3248 34.0458 28.1688 34.2726C28.0181 34.4891 27.8389 34.6825 27.625 34.841C27.4265 34.9879 27.2113 35.1013 26.9844 35.1967C26.9484 35.2121 26.8891 35.2057 26.8813 35.265C26.9548 35.399 27.0308 35.5305 27.1017 35.6658C27.2048 35.8643 27.3144 36.0576 27.4317 36.2483C27.5025 36.3617 27.5515 36.4855 27.6198 36.6002C27.71 36.7497 27.8131 36.8889 27.9059 37.0358C28.0567 37.2742 28.2062 37.5139 28.3738 37.742C28.4047 37.7833 28.4305 37.8271 28.4511 37.8774C28.4846 37.9598 28.5555 38.0191 28.6057 38.0913C28.7037 38.2305 28.7939 38.3748 28.897 38.5101C28.9563 38.5888 29.0156 38.6687 29.0736 38.7486C29.2269 38.9251 29.3597 39.1172 29.5053 39.2989C29.6136 39.4329 29.7218 39.5682 29.8314 39.7023C29.9139 39.8028 29.9963 39.902 30.0724 40.0064C30.1561 40.1224 30.2734 40.2113 30.3636 40.3235C30.4513 40.433 30.5454 40.5374 30.6369 40.6444C30.6949 40.6418 30.7413 40.607 30.7928 40.5864C31.124 40.4549 31.4643 40.3724 31.8213 40.3557C31.8844 40.3531 31.9476 40.3415 32.0107 40.3415C32.0365 40.3415 32.0623 40.3428 32.088 40.3479C32.1319 40.3415 32.1757 40.3389 32.2195 40.3389C32.3316 40.3389 32.4437 40.3557 32.5546 40.366C32.958 40.4072 33.3523 40.5013 33.7351 40.6379C34.3808 40.8686 34.9723 41.2024 35.511 41.6264C35.8706 41.91 36.2044 42.2193 36.497 42.575C36.6104 42.7129 36.7264 42.8469 36.8256 42.9951C36.8939 43.0492 36.9287 43.1291 36.9751 43.1987C37.2496 43.6137 37.47 44.0558 37.6221 44.5301C37.6646 44.6628 37.7548 45.0172 37.7638 45.061C37.836 45.409 37.8386 45.7608 37.8283 46.1127C37.8257 46.2042 37.8012 46.2957 37.8077 46.3885C38.0757 46.5418 38.3464 46.6888 38.6209 46.8305C39.0964 47.0767 39.5784 47.31 40.0682 47.5265C40.701 47.8061 41.3428 48.06 41.9975 48.2843C42.5156 48.4621 43.6935 48.823 43.7734 48.823C43.8211 48.7212 43.8173 48.6078 43.8379 48.4995C43.9835 47.7005 44.3959 47.087 45.1009 46.6772C45.436 46.4826 45.8007 46.3782 46.1822 46.3189C46.2995 46.2931 46.5005 46.2828 46.6925 46.2828C46.8652 46.2828 47.0315 46.2918 47.1243 46.306C47.5212 46.3447 47.9091 46.4336 48.2855 46.565C48.9556 46.7996 49.5639 47.1463 50.122 47.5845C50.4042 47.8049 50.671 48.0433 50.9081 48.3113C51.0551 48.4763 51.5061 49.0614 51.5744 49.1607C51.5757 49.1607 51.5783 49.1607 51.5796 49.1607C51.7239 49.1607 52.9534 48.8385 53.4548 48.6632C53.7808 48.5498 54.1018 48.4183 54.4162 48.2753C54.9936 48.0123 56.187 47.2842 56.1986 47.2777C56.2708 47.2236 56.2708 47.2236 56.2295 47.1592C56.2141 47.1347 56.1947 47.1102 56.178 47.087C55.8893 46.6797 55.6522 46.2454 55.4769 45.7776C55.4653 45.7467 55.455 45.7144 55.4434 45.6835C55.424 45.6255 55.4034 45.574 55.3828 45.5044C55.3119 45.2518 55.2449 45.0005 55.2269 44.7375C55.1792 44.4875 55.1869 44.2362 55.2075 43.9836C55.2217 43.8096 55.2526 43.6382 55.3003 43.4694C55.5375 42.6381 56.062 42.0633 56.8662 41.7489C57.2077 41.6148 57.5634 41.5427 57.932 41.5427C57.9501 41.5427 57.9681 41.5427 57.9874 41.5427C58.0454 41.5401 58.1034 41.5375 58.1601 41.5375C58.5236 41.5375 58.8806 41.5955 59.2337 41.6844C59.4979 41.7514 59.7531 41.8404 60.0044 41.9435C60.0456 41.9602 60.0843 41.9821 60.1294 41.9886C60.1629 41.9641 60.1642 41.9241 60.1758 41.8906C60.2905 41.5491 60.3872 41.2011 60.4683 40.8493C60.7003 39.8479 60.8021 38.8323 60.8009 37.8052C60.8009 37.5255 60.7815 37.2471 60.7764 36.9688L60.7768 36.971ZM51.8399 35.149C51.8322 35.3449 51.8219 35.5408 51.8013 35.7354C51.7794 35.9455 51.7497 36.153 51.7098 36.3605C51.6853 36.488 51.6544 36.6131 51.6157 36.7368C51.5719 36.8785 51.5384 37.0229 51.4894 37.1634C51.3566 37.5436 51.1891 37.907 50.9726 38.2459C50.8038 38.5114 50.6156 38.764 50.4042 38.9999C50.0434 39.402 49.6284 39.7319 49.1631 40.0026C48.8925 40.1598 48.6115 40.2925 48.3216 40.4124C48.2893 40.4253 48.1824 40.4717 48.1695 40.4717C47.9285 40.5477 47.6875 40.625 47.4413 40.6817C46.8665 40.8158 46.284 40.8776 45.6976 40.8776C45.5661 40.8776 45.4334 40.8751 45.3019 40.8686C44.1201 40.8132 42.9847 40.5438 41.8854 40.1121C40.643 39.6237 39.5063 38.9535 38.4572 38.1312C37.3037 37.2265 36.3049 36.1749 35.4827 34.9608C34.7597 33.8924 34.2042 32.7467 33.8704 31.4966C33.6423 30.6421 33.5392 29.7735 33.5882 28.8894C33.6036 28.6033 33.6423 28.3197 33.6964 28.0375C33.7042 27.9975 33.7377 27.8442 33.7467 27.8068C33.8266 27.4666 33.931 27.1328 34.074 26.8131C34.3086 26.286 34.6128 25.8053 34.9994 25.3749C35.4646 24.8555 36.015 24.4508 36.64 24.1454C37.2122 23.8657 37.8141 23.6827 38.4417 23.5822C38.5887 23.559 38.7343 23.5358 38.8825 23.5254C39.1609 23.4932 39.4393 23.4752 39.7189 23.4752C39.804 23.4752 39.889 23.4765 39.9728 23.4803C40.5038 23.5023 41.0309 23.5628 41.5542 23.6646C42.3042 23.8116 43.0311 24.0371 43.7374 24.3284C44.423 24.6119 45.079 24.9534 45.7079 25.3465C46.3175 25.728 46.8949 26.1533 47.4413 26.6198C47.9375 27.0425 48.4028 27.4988 48.8332 27.9872C49.0536 28.2372 49.2701 28.4911 49.4712 28.7579C49.5098 28.8082 49.6168 28.9474 49.6348 28.9719C49.8127 29.2232 49.9944 29.4706 50.1452 29.74C50.2251 29.8817 50.3334 30.0067 50.4055 30.1537C50.555 30.4565 50.7483 30.7349 50.8746 31.0494C50.921 31.1666 50.9842 31.2775 51.0319 31.3935C51.211 31.8278 51.3837 32.2647 51.5023 32.7209C51.5061 32.7351 51.5061 32.7506 51.5074 32.7647C51.5719 32.8872 51.5899 33.0238 51.6183 33.1565C51.6647 33.3692 51.7033 33.5844 51.7446 33.7983C51.7613 33.8821 51.7652 33.9672 51.7729 34.0509C51.7897 34.2494 51.8193 34.4479 51.8283 34.6477C51.8361 34.8139 51.8477 34.9815 51.8412 35.1477L51.8399 35.149Z" fill="#6CF379"/>
<path d="M34.9256 27.6053C34.9411 27.604 34.9565 27.6014 34.972 27.6001C35.0029 27.6053 35.0326 27.5962 35.0596 27.5834C35.0751 27.5821 35.0906 27.5795 35.106 27.5782C35.1511 27.5834 35.1937 27.5731 35.2349 27.5602C35.2517 27.5589 35.2671 27.5576 35.2839 27.5563C35.329 27.5602 35.3715 27.5499 35.4141 27.5383C35.4373 27.537 35.4605 27.5357 35.4849 27.5344C35.5507 27.5395 35.6151 27.5279 35.6795 27.5151C35.8174 27.5099 35.9541 27.5009 36.092 27.4983C36.9155 27.4841 37.7261 27.5834 38.5265 27.7741C39.3436 27.9687 40.1284 28.2548 40.8862 28.6157C41.5873 28.9495 42.2523 29.3413 42.8877 29.7872C43.719 30.3723 44.4807 31.036 45.1714 31.7809C45.8339 32.4962 46.4164 33.2708 46.9113 34.1123C47.0479 34.3456 47.1716 34.5866 47.2992 34.825C47.3082 34.8495 47.316 34.874 47.3276 34.8972C47.4616 35.1498 47.5712 35.4127 47.6794 35.6769C47.8096 35.9965 47.9153 36.3239 48.0209 36.6525C48.0171 36.6744 48.0197 36.6964 48.0261 36.7183C48.2091 37.3175 48.3135 37.9323 48.3522 38.5561C48.3754 38.9363 48.3728 39.3152 48.3367 39.6915C48.5158 39.609 48.6821 39.5252 48.8355 39.4363C49.2543 39.1927 49.6087 38.9066 49.9167 38.5625C50.0972 38.3615 50.2608 38.1437 50.4207 37.8936C50.6011 37.6101 50.7493 37.3008 50.8717 36.9477C50.8936 36.8858 50.913 36.8149 50.9336 36.7402C50.9516 36.677 50.9697 36.6113 50.9916 36.5417C51.0212 36.4489 51.0457 36.3484 51.0676 36.2363C51.1024 36.0584 51.1295 35.8715 51.1514 35.6679C51.1694 35.5004 51.1785 35.329 51.1862 35.1227C51.1901 35.0145 51.1849 34.8946 51.1785 34.7683L51.1746 34.6807C51.1694 34.575 51.1578 34.4642 51.145 34.3469C51.1359 34.2683 51.1282 34.1897 51.1205 34.1098L51.1153 34.0543C51.1114 34.0028 51.1076 33.9551 51.1011 33.9242C51.0908 33.8675 51.0792 33.8121 51.0689 33.7553C51.0393 33.5968 51.0096 33.446 50.9774 33.2965C50.971 33.2669 50.9645 33.236 50.9594 33.2063C50.9504 33.1574 50.9362 33.0903 50.9284 33.0723L50.8704 32.9627L50.8576 32.8442C50.7467 32.4318 50.5843 32.0258 50.4271 31.643C50.4116 31.6044 50.3897 31.5606 50.3665 31.5129C50.3356 31.4484 50.2995 31.375 50.2673 31.2925C50.208 31.1456 50.1217 30.9935 50.0302 30.8324C49.9593 30.7087 49.8871 30.5811 49.8188 30.4419C49.7995 30.4019 49.7621 30.3478 49.7221 30.2911C49.6757 30.2241 49.6242 30.148 49.5752 30.0604C49.4566 29.849 49.311 29.6441 49.1564 29.4263L49.1048 29.3542C49.0919 29.3374 49.0623 29.2974 49.0313 29.2588C48.9991 29.2175 48.9669 29.1763 48.9502 29.1518C48.7504 28.8863 48.5326 28.6337 48.3444 28.4211C47.9423 27.9648 47.4951 27.5267 47.0183 27.1181C46.4976 26.6735 45.9396 26.2636 45.3622 25.9015C44.759 25.5226 44.1288 25.1978 43.4896 24.9336C42.8104 24.6527 42.117 24.4426 41.4314 24.3073C40.9545 24.2145 40.4558 24.1552 39.9493 24.1346C39.8745 24.132 39.7985 24.1294 39.7225 24.1294C39.4815 24.1294 39.2314 24.1449 38.9608 24.1758H38.9479L38.935 24.1784C38.8126 24.1874 38.6824 24.2067 38.5497 24.2287C37.971 24.3214 37.4258 24.4916 36.9322 24.7339C36.3652 25.0109 35.8935 25.3641 35.4914 25.8126C35.1615 26.1799 34.8882 26.6052 34.6782 27.0794C34.5905 27.2766 34.5158 27.4854 34.4526 27.7135C34.5828 27.6813 34.713 27.6504 34.8431 27.6233C34.8741 27.6285 34.9024 27.6194 34.9308 27.6066L34.9256 27.6053ZM35.5532 27.4596C35.5404 27.4738 35.53 27.4893 35.5326 27.5125C35.5661 27.5125 35.5984 27.5125 35.6319 27.5138C35.5984 27.5138 35.5661 27.5138 35.5326 27.5138C35.53 27.4919 35.5404 27.4751 35.5532 27.4609V27.4596ZM25.9312 21.4603C26.0459 21.6253 26.1477 21.798 26.2405 21.9746C26.3707 22.0107 26.5098 22.0467 26.6374 22.0648L26.6542 22.0674L26.6671 22.0699C26.6774 22.0712 26.7057 22.0738 26.7264 22.0764C26.7908 22.0828 26.8772 22.0906 26.9751 22.115C27.0357 22.1241 27.1053 22.1254 27.1671 22.1254C27.2019 22.1254 27.2367 22.1254 27.2715 22.1254C27.3115 22.1254 27.3527 22.1254 27.3927 22.1254C27.4532 22.1254 27.5048 22.1254 27.5551 22.1292C27.5602 22.1292 27.5641 22.1292 27.5692 22.1292C27.6221 22.1292 27.6942 22.1189 27.7716 22.1073H27.7819C27.9907 22.0751 28.1569 22.0326 28.3038 21.9746C28.6479 21.8392 28.9031 21.6691 29.108 21.4359C29.3001 21.2193 29.4341 20.9526 29.5295 20.5994C29.5617 20.4809 29.5772 20.3907 29.5784 20.3159C29.5784 20.2747 29.5784 20.2347 29.5797 20.1935C29.5836 19.955 29.5875 19.7295 29.5475 19.5349C29.5385 19.4911 29.5308 19.4473 29.523 19.4047C29.5114 19.3403 29.4998 19.2746 29.4882 19.2423L29.4199 19.0658L29.4225 19.0529C29.4225 19.0529 29.4212 19.0477 29.4199 19.0452C29.38 18.8892 29.3426 18.7655 29.2872 18.6624C29.2292 18.5554 29.1828 18.4485 29.1415 18.3544C29.1106 18.2848 29.081 18.2178 29.0513 18.1598C29.0049 18.0696 28.9418 17.9729 28.8748 17.8711C28.8284 17.8002 28.7807 17.728 28.733 17.6494C27.9017 18.6199 27.0705 19.5916 26.2392 20.5634C26.0871 20.7412 25.9363 20.9216 25.7817 21.0982C25.7404 21.1446 25.734 21.182 25.774 21.2335C25.8307 21.307 25.8783 21.3869 25.9312 21.4629V21.4603ZM53.671 49.2839C53.2959 49.4141 51.8899 49.8175 51.5806 49.8175C51.5587 49.8175 51.5393 49.8175 51.5226 49.8149L51.2146 49.7891L51.038 49.5365C50.9851 49.4605 50.5495 48.8947 50.4194 48.7478C50.2312 48.5351 50.0031 48.3238 49.7196 48.1021C49.2028 47.6974 48.6486 47.3894 48.0712 47.1858C47.7361 47.0685 47.3972 46.9925 47.0634 46.9602H47.0453L47.0273 46.9551C46.9886 46.9486 46.8649 46.9396 46.6948 46.9396C46.4705 46.9396 46.3507 46.9551 46.3223 46.9615L46.303 46.9654L46.2837 46.968C45.9357 47.0221 45.665 47.1097 45.4318 47.2451C44.8995 47.5544 44.5979 47.9913 44.4832 48.6189C44.4807 48.6305 44.4781 48.655 44.4755 48.6769C44.4639 48.7787 44.4459 48.9347 44.3685 49.1022L44.1971 49.4695L43.7912 49.4798H43.7744C43.6739 49.4798 43.6185 49.4798 42.8594 49.2478C42.4611 49.1267 42.0397 48.9914 41.7858 48.905C41.1363 48.682 40.4687 48.4204 39.8037 48.1279C39.3216 47.9152 38.8229 47.6755 38.3203 47.4139C38.0071 47.2515 37.7339 47.102 37.4826 46.9589L37.1797 46.785L37.1552 46.4357C37.1475 46.3171 37.1591 46.2179 37.1694 46.1457C37.172 46.1277 37.1745 46.1032 37.1745 46.0955C37.1823 45.799 37.1823 45.4846 37.1243 45.1972C37.1101 45.1366 37.0315 44.8324 36.9993 44.7306C36.8704 44.3298 36.6835 43.9471 36.4283 43.5591C36.4116 43.5334 36.3948 43.5063 36.3781 43.4792C36.3781 43.4792 36.3768 43.4766 36.3755 43.4754L36.3381 43.4457L36.2801 43.3581C36.217 43.264 36.1371 43.1673 36.052 43.0642L35.9901 42.9895C35.7491 42.6969 35.4605 42.4186 35.1047 42.1402C34.6137 41.7535 34.0789 41.4558 33.5131 41.2535C33.169 41.1298 32.8236 41.0499 32.4872 41.0164C32.4589 41.0138 32.4305 41.0099 32.4022 41.0073C32.3326 40.9996 32.2668 40.9919 32.2166 40.9919C32.2011 40.9919 32.1869 40.9919 32.1766 40.9944L32.0684 41.0099L31.9936 40.9957C31.9846 40.9957 31.9756 40.9983 31.9666 40.9983C31.9356 41.0022 31.8957 41.006 31.8519 41.0073C31.5851 41.0202 31.3209 41.0808 31.0425 41.1891L31.0373 41.1916C30.9742 41.2239 30.8427 41.2896 30.6623 41.296L30.3453 41.3089L30.1391 41.0679C30.112 41.037 30.0862 41.006 30.0592 40.9751C29.9921 40.8978 29.9225 40.8179 29.853 40.7315C29.8349 40.7083 29.8014 40.6761 29.7679 40.6413C29.7022 40.5756 29.6197 40.4931 29.5424 40.3874C29.4831 40.305 29.4135 40.2212 29.3413 40.1335L29.3258 40.1142C29.2498 40.0214 29.1751 39.9286 29.1003 39.8358L28.9959 39.707C28.9302 39.6258 28.8696 39.5459 28.8103 39.4672C28.7304 39.3628 28.6557 39.2636 28.5796 39.1747L28.5629 39.1554L28.5474 39.1347L28.4933 39.0613C28.4533 39.0071 28.4147 38.9543 28.3734 38.9002C28.3 38.8022 28.2342 38.7069 28.1724 38.6141C28.1389 38.5638 28.1054 38.5135 28.0719 38.4671C28.0641 38.4581 28.0564 38.4491 28.0487 38.4401C27.9958 38.3782 27.9095 38.2764 27.8476 38.1295C27.8476 38.1282 27.845 38.1269 27.845 38.1256C27.6762 37.8949 27.528 37.6604 27.3836 37.4322L27.3527 37.382C27.3179 37.3279 27.2793 37.2712 27.2393 37.2119C27.18 37.1242 27.1182 37.034 27.0589 36.9348C27.0125 36.8575 26.9751 36.784 26.9429 36.7196C26.9184 36.6693 26.8939 36.6229 26.8733 36.5894C26.7496 36.3896 26.631 36.1796 26.5202 35.9643C26.4763 35.8806 26.4299 35.7955 26.3797 35.7066C26.3565 35.664 26.332 35.6215 26.3088 35.579L26.2018 35.3857L26.234 35.1679C26.2508 35.057 26.3372 34.6962 26.7676 34.5763C26.9506 34.4964 27.104 34.41 27.2367 34.3134C27.3836 34.2051 27.5164 34.0659 27.6311 33.8984C27.7368 33.745 27.8218 33.5607 27.8927 33.3339C27.9456 33.1625 27.9649 32.9615 27.9855 32.7488L27.9945 32.656C27.9984 32.6212 27.9907 32.5529 27.9829 32.4859C27.9765 32.4227 27.9675 32.3519 27.9649 32.2732C27.9623 32.2165 27.9533 32.1469 27.9378 32.0683C27.9327 32.0451 27.9211 32.0013 27.912 31.9652C27.9017 31.924 27.8927 31.8879 27.8888 31.8737C27.8154 31.5567 27.6994 31.2409 27.5319 30.9084C27.4326 30.7112 27.3089 30.5153 27.1916 30.3401L27.1658 30.331L27.0486 30.1506C26.9261 29.9625 26.765 29.7846 26.582 29.5887C26.3603 29.3516 26.1026 29.1247 25.7946 28.8966C25.3358 28.5577 24.8731 28.3051 24.3795 28.1247L24.0109 27.9893L23.9568 27.6001C23.9258 27.3823 23.9271 27.1748 23.9271 26.9918C23.9271 26.9544 23.9271 26.9158 23.9271 26.8784V26.765C23.9258 26.6477 23.9245 26.5253 23.9271 26.4003C23.9297 26.3268 23.9284 26.2495 23.9271 26.167C23.9271 25.9994 23.9245 25.8087 23.9477 25.6115C23.9593 25.5123 23.9671 25.4105 23.9748 25.3022C23.98 25.23 23.9864 25.1566 23.9929 25.0844C24.0057 24.9465 24.0225 24.7648 24.0483 24.5792C24.0831 24.333 24.1269 24.0418 24.1913 23.7428C24.2094 23.6603 24.2274 23.5817 24.2455 23.5018C23.4683 24.4091 22.6912 25.3177 21.914 26.225C21.847 26.3023 21.7968 26.3861 21.7671 26.484C21.7259 26.6232 21.6769 26.7598 21.6357 26.899C21.3753 27.787 21.2181 28.6943 21.1562 29.6184C21.1163 30.2176 21.1176 30.8156 21.1434 31.4149C21.1446 31.4574 21.1382 31.5038 21.1794 31.5348C21.4256 31.6392 21.673 31.7423 21.9089 31.8699C22.7569 32.3274 23.476 32.9357 24.0663 33.6961C24.3846 34.1072 24.6463 34.5518 24.8447 35.0325C24.9311 35.2426 24.9955 35.4604 25.0651 35.6756C25.0651 35.7362 25.0845 35.7916 25.1025 35.847C25.1399 36.088 25.1811 36.3265 25.1876 36.5713C25.1927 36.7866 25.1708 36.9979 25.1476 37.2106C25.1283 37.2686 25.0857 37.3124 25.0471 37.3575C24.5303 37.9581 24.0135 38.5599 23.498 39.1605C23.4447 39.2224 23.437 39.2894 23.4748 39.3616C23.7828 39.9441 24.1114 40.5137 24.4633 41.0705C24.8164 41.6298 25.1901 42.175 25.5845 42.7047C25.6129 42.7433 25.6373 42.7859 25.6773 42.8142C25.6889 42.8323 25.7005 42.8516 25.7134 42.8696C25.9892 43.2318 26.265 43.5939 26.5627 43.938C26.7521 44.1571 26.9403 44.3762 27.131 44.594C27.1581 44.625 27.18 44.6765 27.238 44.6404C27.5048 44.5283 27.7806 44.4471 28.0654 44.3981C28.1041 44.402 28.1402 44.3917 28.1762 44.3814C28.3593 44.3724 28.5423 44.3633 28.7253 44.3543C28.8735 44.3659 29.023 44.3698 29.1699 44.3891C29.88 44.4793 30.5437 44.7113 31.1675 45.058C32.04 45.5426 32.7721 46.187 33.3584 46.9937C33.718 47.4873 33.9977 48.0222 34.1781 48.6073C34.2993 49.0004 34.3676 49.4025 34.3714 49.8149C34.3611 49.8445 34.3663 49.8755 34.3714 49.9051C34.3624 50.0198 34.3508 50.1345 34.3444 50.2492C34.3418 50.2956 34.3121 50.3407 34.3379 50.3884C34.3637 50.4284 34.4088 50.4399 34.4462 50.4619C34.9656 50.7531 35.494 51.0251 36.0314 51.2777C37.3795 51.9117 38.7713 52.426 40.2122 52.8049C40.2985 52.8281 40.3462 52.8049 40.4004 52.7417C41.0125 52.0316 41.6273 51.3241 42.242 50.6165C42.3181 50.5302 42.3838 50.4335 42.4766 50.3639C42.6738 50.333 42.871 50.2995 43.0707 50.2969C43.2151 50.2956 43.3581 50.2969 43.5025 50.2969C43.9149 50.3304 44.3196 50.4064 44.7113 50.5392C45.9112 50.9452 46.8984 51.6578 47.7052 52.6296C47.847 52.801 47.9681 52.9892 48.106 53.1632C48.1047 53.1709 48.106 53.1773 48.106 53.1851H48.1511C48.1511 53.1773 48.1511 53.1709 48.1524 53.1632C48.1924 53.1554 48.2323 53.1477 48.271 53.14C48.686 53.0523 49.0971 52.9505 49.5018 52.8203C49.9116 52.6889 50.3163 52.5497 50.7081 52.368C50.9529 52.2546 51.2004 52.1463 51.4414 52.0277C51.8731 51.8151 52.2791 51.5612 52.676 51.2906C52.7469 51.2416 52.8114 51.1887 52.8681 51.123C53.555 50.333 54.2419 49.5442 54.9288 48.7555C54.8399 48.8006 54.7561 48.8419 54.6814 48.8754C54.336 49.0326 53.9932 49.1705 53.6645 49.2852L53.671 49.2839ZM58.1598 42.1956C58.1134 42.1956 58.067 42.1956 58.0206 42.1995H57.9742C57.9601 42.1995 57.9459 42.1995 57.9317 42.1995C57.6572 42.1995 57.3788 42.2536 57.1043 42.3606C56.4857 42.6028 56.1119 43.014 55.9289 43.6519C55.8941 43.7756 55.8696 43.9058 55.8593 44.0398C55.8439 44.2203 55.8336 44.4303 55.8696 44.6185L55.8774 44.6572L55.88 44.6958C55.8928 44.8943 55.9495 45.1082 56.0127 45.3273C56.0204 45.3531 56.0282 45.3763 56.0398 45.4085C56.0475 45.4304 56.0552 45.4524 56.063 45.4743C56.072 45.5 56.0797 45.5245 56.09 45.5503C56.1235 45.6418 56.1609 45.732 56.2009 45.8209C56.3156 45.8609 56.4303 45.9034 56.5437 45.9498C56.6584 45.9975 56.6578 45.9989 56.7377 45.9087C57.6566 44.8532 58.5761 43.7976 59.495 42.742C59.5581 42.6699 59.6213 42.5964 59.6832 42.5229C59.4705 42.4379 59.2695 42.3709 59.0736 42.3206C58.7333 42.2343 58.4343 42.193 58.1598 42.193V42.1956Z" fill="black"/>
<path d="M42.1728 16.5835L47.0689 18.6958C47.0689 18.6958 46.8369 19.9562 47.5328 21.3468C48.2288 22.7387 50.305 24.6294 51.8425 24.8021C53.4445 24.9825 54.567 24.5894 54.567 24.5894L57.4113 28.738C57.4113 28.738 55.4627 29.4945 55.937 32.8157C56.4525 36.4282 59.9863 37.1099 59.9773 37.4708C59.9683 37.8317 59.744 40.4982 59.5366 40.8487C59.4837 40.9389 57.5312 40.2056 55.8468 41.4841C52.773 43.8193 55.0091 46.964 55.0091 46.964L51.8425 48.294C51.8425 48.294 53.9136 44.9947 51.9546 42.5447C50.7122 40.9905 48.6721 41.1193 48.7468 41.0871C55.1354 38.3394 52.4843 31.755 52.4843 31.755C52.4843 31.755 50.1246 25.8189 45.088 23.5957C37.4171 20.2088 34.4478 23.4991 34.4478 23.4991C33.9001 21.1625 30.8701 21.553 30.8701 21.553C31.7529 19.4691 30.3817 17.358 30.3817 17.358L33.2866 16.0989C33.2866 16.0989 37.1903 21.1496 41.3492 17.9754C42.2772 17.2678 42.1728 16.5809 42.1728 16.5809V16.5835Z" fill="white"/>
<path d="M48.2761 53.1383L33.5762 54.1835L37.8447 49.6496L47.8224 50.0092L48.2761 53.1383Z" fill="black"/>
</g>
<defs>
<clipPath id="clip0_15980_15785">
<rect width="100" height="100" fill="white"/>
</clipPath>
</defs>
</svg>
