<svg width="100" height="100" viewBox="0 0 100 100" fill="none" xmlns="http://www.w3.org/2000/svg">
<path d="M59.4856 85.6515C59.0264 85.1107 58.7712 84.4269 58.7712 83.7228V74.3238H38.9019V83.7228C38.9019 84.4371 38.6569 85.1209 38.1875 85.6515L31.942 92.9686C31.6664 93.2952 31.5134 93.7136 31.5134 94.1422V94.7545C31.5134 95.2545 31.9216 95.6628 32.4216 95.6628H65.2515C65.7516 95.6628 66.1598 95.2545 66.1598 94.7545V94.1422C66.1598 93.7136 66.0067 93.2952 65.7311 92.9686L59.4856 85.6515Z" fill="#11B67A"/>
<path d="M97.2344 8.11276H2.77579C1.24503 8.11276 0 9.35779 0 10.8886V70.1497C0 71.6805 1.24503 72.9255 2.77579 72.9255H97.2242C98.755 72.9255 100 71.6805 100 70.1497V10.8988C100 9.36799 98.755 8.12296 97.2242 8.12296L97.2344 8.11276Z" fill="#11B67A"/>
<path d="M57.1487 85.3354L63.5881 92.6525H40.4837C40.4837 92.6525 56.6792 91.8769 57.1385 85.3354H57.1487Z" fill="white"/>
<path d="M2.7757 6.73644H97.2343C97.6731 6.73644 98.1017 6.81808 98.4997 6.96095C98.4181 5.59346 97.2751 4.51172 95.8974 4.51172H4.11257C2.72467 4.51172 1.5919 5.59346 1.51026 6.96095C1.91847 6.82828 2.33687 6.73644 2.7757 6.73644Z" fill="#006A4D"/>
<path d="M4.58209 12.6844V68.3635H95.4383V12.6844H4.58209Z" fill="black"/>
<path d="M8.23557 16.0858H22.0023C22.0023 16.0858 12.2054 20.8414 8.23557 39.7005V16.0858Z" fill="white"/>
<path d="M38.9119 74.3238V83.7228C38.9119 84.1412 38.8098 84.5596 38.6364 84.9474H45.3105C46.9739 84.9474 48.5149 84.0289 49.2905 82.5492L50.6988 79.9162C51.0662 79.2223 51.7908 78.7937 52.5868 78.7937H58.7915V74.334H38.9221L38.9119 74.3238Z" fill="#006A4D"/>
</svg>
