<svg width="100" height="100" viewBox="0 0 100 100" fill="none" xmlns="http://www.w3.org/2000/svg">
<g clip-path="url(#clip0_15980_15799)">
<rect width="100" height="100" fill="#F1F1F1"/>
<path d="M59.5169 85.5656C59.0576 85.0247 58.8025 84.341 58.8025 83.6368V74.2379H38.9331V83.6368C38.9331 84.3512 38.6882 85.0349 38.2188 85.5656L31.9732 92.8827C31.6977 93.2092 31.5446 93.6276 31.5446 94.0563V94.6686C31.5446 95.1686 31.9528 95.5768 32.4529 95.5768H65.2828C65.7828 95.5768 66.191 95.1686 66.191 94.6686V94.0563C66.191 93.6276 66.0379 93.2092 65.7624 92.8827L59.5169 85.5656Z" fill="#11B67A"/>
<path d="M97.2657 8.02682H2.80704C1.27628 8.02682 0.03125 9.27185 0.03125 10.8026V70.0638C0.03125 71.5945 1.27628 72.8396 2.80704 72.8396H97.2555C98.7862 72.8396 100.031 71.5945 100.031 70.0638V10.8128C100.031 9.28205 98.7862 8.03703 97.2555 8.03703L97.2657 8.02682Z" fill="#11B67A"/>
<path d="M57.1799 85.2495L63.6194 92.5665H40.515C40.515 92.5665 56.7105 91.791 57.1697 85.2495H57.1799Z" fill="white"/>
<path d="M2.80695 6.6505H97.2656C97.7044 6.6505 98.133 6.73214 98.531 6.87501C98.4493 5.50752 97.3064 4.42578 95.9287 4.42578H4.14382C2.75592 4.42578 1.62315 5.50752 1.54151 6.87501C1.94972 6.74234 2.36812 6.6505 2.80695 6.6505Z" fill="black"/>
<path d="M4.61334 12.5984V68.2776H95.4696V12.5984H4.61334Z" fill="black"/>
<path d="M8.26682 15.9999H22.0335C22.0335 15.9999 12.2366 20.7555 8.26682 39.6146V15.9999Z" fill="white"/>
<path d="M38.9431 74.2379V83.6368C38.9431 84.0552 38.8411 84.4736 38.6676 84.8614H45.3418C47.0052 84.8614 48.5462 83.943 49.3218 82.4632L50.7301 79.8303C51.0974 79.1364 51.822 78.7077 52.618 78.7077H58.8227V74.2481H38.9534L38.9431 74.2379Z" fill="black"/>
</g>
<defs>
<clipPath id="clip0_15980_15799">
<rect width="100" height="100" fill="white"/>
</clipPath>
</defs>
</svg>
