<svg width="100" height="100" viewBox="0 0 100 100" fill="none" xmlns="http://www.w3.org/2000/svg">
<path d="M6.719 52.8284C6.719 52.8284 8.26548 57.9539 14.5398 59.3766C14.5398 59.3766 9.78547 60.1985 9.68826 65.9072C9.68826 65.9072 8.01806 60.9585 2 59.3766C2 59.3766 7.0283 58.7845 6.719 52.8372V52.8284Z" fill="white"/>
<path d="M56.9576 28.9768L11.2876 76.9445L50.7098 99.753C51.4344 100.177 52.3535 100.045 52.9279 99.4349L96.8129 53.3318C97.2194 52.9076 97.1222 52.2183 96.6096 51.9179L56.9488 28.9768H56.9576Z" fill="#024731"/>
<path d="M11.2876 76.9445L56.9576 28.9768V28.9682L95.2134 36.7979C95.9115 36.9393 96.1855 37.7965 95.6906 38.309L92.7978 41.3475L94.6034 45.0868C94.9304 45.776 94.7978 46.5979 94.2676 47.137L87.1979 54.401C86.597 55.0196 85.8017 55.3996 84.9445 55.4792L78.7811 56.0705L51.841 84.3679C51.4079 84.8274 50.7717 85.0219 50.1619 84.8981L11.2876 76.9445Z" fill="#11B67A"/>
<path d="M79.9609 6.17733C79.9609 6.17733 82.3558 14.1219 92.0766 16.3223C92.0766 16.3223 84.7153 17.5948 84.5651 26.4319C84.5651 26.4319 81.9758 18.7702 72.6527 16.3135C72.6527 16.3135 80.4381 15.3856 79.9609 6.17733Z" fill="white"/>
<path d="M82.0905 64.59C78.9975 60.2244 75.2417 56.5129 71.265 53.8087C75.6394 58.8459 77.2036 64.6165 75.3831 69.035C82.4086 76.2019 83.2835 85.4985 77.0799 90.518C73.5539 93.3724 68.446 94.2472 63.1614 93.3547C68.34 95.5551 73.6864 95.9351 78.1314 93.9821C87.5871 89.8199 89.929 75.6186 82.0905 64.59Z" fill="white"/>
<path d="M48.7922 61.5768C48.7922 61.5768 49.1369 64.0159 49.4903 66.1102C49.4903 66.1102 34.5115 66.8084 22.5902 64.9968L31.1622 55.9388L48.7922 61.5857V61.5768Z" fill="#024731"/>
<path d="M29.8987 0C39.1158 13.9361 62.048 16.3044 62.048 16.3044C42.7125 34.5177 51.0282 62.6196 51.0282 62.6196C51.0282 62.6196 9.66175 58.1215 18.2072 41.7111L22.7848 34.2879L23.0411 24.6731L25.3476 6.15061L27.8308 2.13858L29.1829 0.645107L29.8987 0Z" fill="#6CF479"/>
<path d="M17.2526 44.0704C17.2526 44.0704 19.0377 35.8784 30.9147 34.1816C30.9147 34.1816 18.5693 11.1787 29.8985 0.00862997C29.8985 0.00862997 20.8758 5.84111 20.8493 26.7055C20.8405 36.0816 17.2526 44.0704 17.2526 44.0704Z" fill="#024731"/>
<path d="M44.8159 53.1109C44.3828 53.2523 43.9321 53.2611 43.5345 53.0225C43.2429 52.8546 43.1015 52.5719 42.854 52.3598C42.4652 52.0328 42.0145 52.024 41.5638 52.2272C41.334 52.3333 41.1396 52.4923 40.9275 52.616C40.6447 52.7839 40.5917 52.837 40.468 52.5188C40.3796 52.2891 40.4061 51.9621 40.415 51.7235C40.415 51.644 40.4592 51.2021 40.4327 51.3788C40.5033 50.8398 39.982 50.5216 39.5489 50.8663C39.1778 51.1579 37.2071 53.0402 36.8713 52.3156C36.6239 51.7854 37.428 50.7072 37.7285 50.1151C37.7285 50.1063 37.7462 50.0975 37.7462 50.0886C37.7639 50.0444 37.7904 50.0003 37.808 49.9649C38.0466 49.364 37.1629 49.1077 36.836 49.5584C36.2616 50.3537 35.2541 51.1844 34.2909 51.4672C33.5132 51.697 32.8858 51.423 32.6207 50.8398C33.3983 50.7337 34.176 50.4951 34.8653 50.177C36.6769 49.3375 38.9127 47.6938 38.1527 45.3961C37.8699 44.5478 37.1541 43.8496 36.2262 43.8055C35.0597 43.7524 34.0876 44.592 33.3983 45.4403C32.5853 46.4212 31.4984 48.224 31.3746 49.8235C30.6147 49.7263 29.9165 49.3817 29.3686 48.6747C28.9533 48.1356 28.2021 48.8956 28.6175 49.4259C29.3598 50.3803 30.376 50.8044 31.4542 50.884C31.5425 51.2286 31.6928 51.5556 31.9314 51.8384C32.9918 53.0844 34.5471 52.7132 35.8462 51.8826C35.7136 52.4746 35.7932 53.0402 36.3941 53.4379C37.3132 54.0565 38.4885 53.1993 39.4075 52.4128C39.4959 53.2081 39.8229 53.9416 40.7243 53.8532C41.0601 53.8179 41.3429 53.6235 41.6257 53.4467C41.7405 53.376 41.988 53.1374 42.1382 53.1551C42.2531 53.1639 42.4917 53.5263 42.5712 53.597C43.2517 54.2509 44.2503 54.4276 45.134 54.136C45.7791 53.9239 45.5051 52.8988 44.8512 53.1109H44.8159ZM33.6016 46.9426C34.1053 46.1473 34.9006 45.0515 35.8992 44.8836C36.9508 44.7068 37.4104 45.944 37.1806 46.7836C36.9243 47.7291 35.9964 48.3742 35.1923 48.8249C34.3969 49.2756 33.4514 49.6645 32.5146 49.8058C32.6472 48.7984 33.0714 47.7998 33.6104 46.9426H33.6016Z" fill="#11B67A"/>
<path d="M69.4978 38.6622L60.5635 40.9599C60.0156 41.1013 59.5296 41.3929 59.2556 41.7375L53.3789 48.0207L68.6317 50.7779L74.5084 44.4947C74.7824 44.1412 74.8177 43.7701 74.5968 43.4961L71.0178 38.9362C70.7615 38.6092 70.134 38.4943 69.4889 38.6622H69.4978Z" fill="#00482F"/>
<path d="M62.6755 49.9295L59.0523 49.2756L62.9406 45.0338L66.5638 45.6965L62.6755 49.9295Z" fill="#11B67A"/>
</svg>
