<svg width="100" height="100" viewBox="0 0 100 100" fill="none" xmlns="http://www.w3.org/2000/svg">
<g clip-path="url(#clip0_15980_15813)">
<rect width="100" height="100" fill="#F1F1F1"/>
<path d="M16.8492 68.3823C16.7404 75.0662 12.0083 81.8366 6.27851 83.5036C12.0083 81.8366 16.5658 85.9059 16.4571 92.5897C16.5658 85.9059 21.2978 79.1354 27.0277 77.4684C21.2978 79.1354 16.7404 75.0662 16.8492 68.3823Z" fill="#006A4D"/>
<path d="M5.36856 13.0515C5.31508 16.396 2.87913 19.7789 -0.0625 20.6127C2.88398 19.7789 5.22271 21.8106 5.16923 25.1552C5.22271 21.8106 7.65866 18.4277 10.6003 17.594C7.65379 18.4277 5.31508 16.396 5.36856 13.0515Z" fill="#006A4D"/>
<path d="M58.543 59.2492C62.5265 53.6203 64.9683 46.5415 64.9365 39.3589C64.8778 26.7191 57.1548 17.9507 46.9767 17.9507C45.5886 17.9507 44.1553 18.1133 42.6902 18.4521C30.4726 21.271 20.6199 35.2028 20.6879 49.5683C20.7467 62.2126 28.4697 70.9764 38.6523 70.9764C40.0406 70.9764 41.4739 70.8138 42.9388 70.4751L65.0678 65.3704L58.5521 59.2492H58.543Z" fill="#11B57A"/>
<path d="M54.3352 23.4368C54.8446 23.4685 55.3448 23.5274 55.8451 23.5953C55.6739 23.4957 55.5117 23.3869 55.3358 23.2918C46.8302 18.829 36.6298 22.6167 30.058 31.3112C27.2363 35.04 23.6258 42.9688 24.2073 47.3455C24.5093 46.317 25.7848 43.2089 27.908 41.6867C30.4726 39.8472 34.2904 40.4453 37.7748 42.5203C36.8868 40.6582 36.4361 38.6239 36.5667 36.5079C37.0444 28.7106 45.0048 22.8568 54.3397 23.4413L54.3352 23.4368Z" fill="white"/>
<path d="M21.2518 42.8882C21.2836 42.7256 21.3241 42.563 21.3556 42.4049C21.3286 42.5315 21.2971 42.6578 21.2701 42.7889C21.261 42.8249 21.2563 42.8567 21.2518 42.8927V42.8882ZM24.1975 29.6837L18.4235 27.0691C18.4235 27.0691 18.41 27.0871 18.4055 27.0961C18.1664 27.4574 17.9318 27.8232 17.7063 28.198C17.6792 28.2477 17.6476 28.293 17.616 28.338C17.6115 28.347 17.607 28.356 17.6025 28.3605C17.3544 28.776 17.1108 29.2005 16.8807 29.6251C16.8131 29.7515 16.7499 29.878 16.6822 30.0044C16.5198 30.3115 16.3574 30.6229 16.2041 30.9346C16.1725 30.9979 16.1409 31.0566 16.1093 31.1197C16.0642 31.2147 16.0236 31.314 15.9785 31.4088C15.8387 31.7022 15.7033 32.0004 15.568 32.303C15.4958 32.4656 15.4237 32.6282 15.356 32.7953C15.2207 33.1157 15.0898 33.4364 14.9635 33.7615C14.9229 33.8701 14.8733 33.9739 14.8327 34.0822C14.8192 34.1137 14.8102 34.15 14.7966 34.1815C14.6162 34.6692 14.4403 35.157 14.2824 35.6537C14.2508 35.7531 14.2237 35.8524 14.1922 35.9519C14.0658 36.3536 13.944 36.7601 13.8358 37.1665C13.8177 37.2388 13.7907 37.3066 13.7726 37.3789C13.7275 37.5505 13.6869 37.722 13.6418 37.8981C13.6147 38.011 13.5831 38.124 13.5561 38.2413C13.4614 38.6343 13.3711 39.0272 13.2899 39.4244C13.2809 39.4607 13.2764 39.5012 13.2674 39.542C13.1952 39.8987 13.1321 40.2554 13.0689 40.6168C13.0463 40.7431 13.0283 40.8741 13.0102 41.005C12.9877 41.1541 12.9606 41.3031 12.9381 41.4522C12.92 41.5695 12.911 41.6868 12.893 41.8044C12.8704 41.976 12.8478 42.1431 12.8298 42.3146C12.8027 42.572 12.7757 42.8294 12.7531 43.0868C12.7396 43.2494 12.7216 43.412 12.7125 43.5745C12.69 43.8547 12.6764 44.1346 12.6629 44.4145C12.6584 44.5545 12.6449 44.6946 12.6403 44.8344C12.6268 45.2499 12.6178 45.6609 12.6178 46.0763V46.0943C12.6313 48.7407 12.9787 51.2154 13.6147 53.4734C13.6689 53.663 13.723 53.8528 13.7816 54.0379C15.5319 59.7368 19.1408 64 23.8052 66.0773C20.3993 61.8999 18.3694 56.1287 18.3378 49.4678C18.3062 42.6036 20.3768 35.6402 24.1885 29.6792L24.1975 29.6837ZM22.9436 37.126C22.8895 37.2658 22.8307 37.4059 22.7767 37.5505C22.5963 38.0382 22.4247 38.5257 22.2623 39.018C22.2308 39.1175 22.1993 39.2213 22.1677 39.3206C22.0414 39.7226 21.9241 40.1245 21.8112 40.531C22.3571 38.544 23.0789 36.6157 23.9496 34.7776C23.8097 35.0712 23.6744 35.3693 23.5435 35.6628C23.4714 35.8253 23.3992 35.9924 23.3271 36.155C23.1917 36.4757 23.0654 36.7963 22.9391 37.117L22.9436 37.126ZM21.0579 43.9312C21.0579 43.9312 21.0534 43.963 21.0489 43.9765C21.0264 44.1028 21.0084 44.2294 20.9903 44.3559C21.0129 44.2159 21.0354 44.0713 21.0579 43.9312ZM20.9361 44.7261C20.9136 44.8707 20.891 45.0198 20.873 45.1641C20.8505 45.3312 20.8325 45.4983 20.8097 45.6654C20.846 45.3492 20.891 45.0378 20.9361 44.7261ZM20.5978 49.4498C20.5978 49.0976 20.6068 48.7452 20.6158 48.393C20.6023 48.7497 20.5978 49.1021 20.5978 49.4588V49.4498ZM21.5496 56.6752C21.3556 55.9661 21.1933 55.239 21.0534 54.4939C21.1888 55.239 21.3556 55.9706 21.5496 56.6752ZM38.9668 19.5321C39.3006 19.3921 39.6343 19.2611 39.9683 19.1347C39.8735 19.1708 39.7742 19.2069 39.6796 19.243C39.4404 19.3334 39.2013 19.4282 38.9623 19.5321H38.9668ZM37.8029 20.0649C38.1412 19.8978 38.4797 19.7443 38.8224 19.5953C38.7096 19.645 38.5968 19.6946 38.4887 19.7443C38.2585 19.8482 38.0329 19.952 37.8074 20.0649H37.8029ZM24.8878 19.8753C24.6216 20.092 24.3601 20.3088 24.1029 20.5346C24.0216 20.6023 23.9451 20.6746 23.8683 20.7468C23.6518 20.941 23.4352 21.1352 23.2233 21.3339C23.115 21.4378 23.0111 21.5416 22.903 21.6455C22.7224 21.8216 22.5465 21.9932 22.3706 22.1739L22.3616 22.1829L27.9959 24.7343C28.7674 23.8944 29.5703 23.1041 30.4004 22.368L24.8878 19.8708V19.8753ZM36.6526 20.6655C36.585 20.7017 36.5172 20.7423 36.4452 20.7829C36.7924 20.5843 37.1442 20.3946 37.5007 20.214C37.4419 20.2456 37.3834 20.2727 37.3248 20.3043C37.0992 20.4217 36.8737 20.5436 36.6526 20.6655ZM32.6378 23.4293C32.6378 23.4293 32.6648 23.4112 32.6739 23.3977C32.6739 23.3977 32.6513 23.4157 32.6378 23.4293ZM30.8785 25.0053C30.838 25.0414 30.8017 25.0821 30.7612 25.1182C31.0139 24.8743 31.2665 24.6305 31.5235 24.3957C31.4154 24.495 31.3026 24.5898 31.1988 24.6937C31.0949 24.7976 30.9868 24.9014 30.8785 25.0053ZM30.1702 25.7188C30.3416 25.5427 30.5175 25.3621 30.6936 25.1905C30.5763 25.3034 30.4589 25.4208 30.3416 25.5382C30.2831 25.5969 30.2243 25.6601 30.1657 25.7233L30.1702 25.7188ZM20.6248 48.3885C20.6339 48.0814 20.6519 47.7699 20.6654 47.4628C20.6609 47.5666 20.6519 47.6704 20.6474 47.7744C20.6384 47.9143 20.6294 48.0543 20.6248 48.1899V48.3885ZM45.4987 17.9064C45.6341 17.8973 45.7649 17.8838 45.9002 17.8793H45.8462C45.7334 17.8838 45.616 17.8973 45.4987 17.9064ZM44.3213 15.3955C44.1094 15.3233 43.8928 15.251 43.6763 15.1878C43.6403 15.1742 43.5995 15.1607 43.5635 15.1517C43.5455 15.1471 43.532 15.1426 43.514 15.1381C43.3741 15.0975 43.2297 15.0613 43.0899 15.0252C43.0131 15.0071 42.9365 14.9846 42.8597 14.9665C42.6748 14.9214 42.4899 14.8807 42.3003 14.8401C42.2643 14.831 42.2283 14.822 42.1922 14.8175C41.9666 14.7723 41.7411 14.7317 41.5155 14.6956C41.4524 14.6865 41.3891 14.6775 41.3306 14.6685C41.1637 14.6459 40.9968 14.6188 40.8297 14.6007C40.8162 14.6007 40.8072 14.6007 40.7937 14.5962C40.7577 14.5962 40.7171 14.5917 40.6809 14.5872C40.4554 14.5646 40.2298 14.542 39.9998 14.5285C39.9185 14.524 39.833 14.5194 39.7517 14.5149C39.5352 14.5059 39.3141 14.4969 39.0931 14.4924H38.908C38.6285 14.4924 38.3533 14.4969 38.0691 14.5104C38.0014 14.5104 37.9338 14.5194 37.866 14.524C37.6451 14.5375 37.4239 14.5511 37.1985 14.5736C37.1534 14.5736 37.1037 14.5782 37.0586 14.5827C37.0271 14.5827 36.9909 14.5917 36.9593 14.5962C36.6075 14.6323 36.251 14.6775 35.8903 14.7362C35.8317 14.7452 35.7684 14.7588 35.7099 14.7678C35.3354 14.831 34.9565 14.9033 34.573 14.9936H34.5685C34.1625 15.0884 33.7609 15.1968 33.3596 15.3142C33.2243 15.3549 33.0934 15.4 32.9581 15.4407C32.6919 15.5265 32.4257 15.6123 32.1597 15.7071C32.0016 15.7613 31.8483 15.8245 31.6949 15.8832C31.4559 15.9736 31.2168 16.0684 30.9778 16.1722C30.8152 16.24 30.6574 16.3122 30.4995 16.3845C30.2695 16.4884 30.0394 16.5967 29.8139 16.7051C29.6561 16.7819 29.498 16.8632 29.3401 16.9445C29.1147 17.0619 28.889 17.1838 28.6681 17.3102C28.6048 17.3464 28.5418 17.3825 28.4832 17.4141L33.7429 19.794C36.3594 18.0644 39.1562 16.8225 42.0479 16.1542C43.0539 15.9194 44.0641 15.7703 45.0656 15.68C44.8897 15.6078 44.7094 15.54 44.5335 15.4723C44.4612 15.4452 44.3891 15.4226 44.3168 15.3955H44.3213ZM46.577 17.8567C46.6761 17.8567 46.7799 17.8522 46.8792 17.8522H46.834C46.7484 17.8522 46.6626 17.8567 46.5725 17.8612L46.577 17.8567ZM42.589 18.3444C42.9861 18.2541 43.3786 18.1773 43.7709 18.1096C43.7484 18.1096 43.7214 18.1186 43.6989 18.1231C43.3334 18.1863 42.9636 18.2586 42.589 18.3444ZM47.4159 17.8657C47.5828 17.8702 47.7499 17.8747 47.9167 17.8883C47.8535 17.8883 47.7949 17.8793 47.7316 17.8793C47.628 17.8747 47.5197 17.8702 47.4159 17.8702V17.8657ZM52.3013 18.7598C52.1615 18.7102 52.0173 18.665 51.8729 18.6199C52.0443 18.674 52.2202 18.7282 52.3871 18.7915C52.3601 18.7824 52.3285 18.7734 52.3013 18.7598ZM48.3453 17.9199C48.4852 17.9334 48.6293 17.9425 48.7692 17.956C48.7331 17.956 48.6971 17.9515 48.6611 17.947C48.5572 17.938 48.4489 17.9289 48.3453 17.9199ZM24.3374 62.9612C23.9721 62.3967 23.6293 61.8096 23.3089 61.2C23.6248 61.8141 23.9721 62.4012 24.3374 62.9612ZM25.5825 31.725C25.4832 31.8876 25.3931 32.0546 25.2983 32.2217C25.4427 31.9688 25.5916 31.716 25.7449 31.4676C25.7269 31.4991 25.7044 31.5307 25.6864 31.5624C25.6501 31.6165 25.6141 31.6707 25.5825 31.7295V31.725ZM24.6578 33.3733C24.6578 33.3733 24.6396 33.4139 24.6261 33.4319C24.7705 33.1565 24.9193 32.8856 25.0727 32.6145C25.0006 32.741 24.9283 32.8628 24.8563 32.9894C24.7885 33.1157 24.7209 33.2423 24.6533 33.3733H24.6578ZM42.553 18.3534H42.5575C42.1515 18.4483 41.7456 18.5566 41.3441 18.674C41.7456 18.5566 42.147 18.4483 42.553 18.3534ZM24.0579 34.5654C24.2022 34.2718 24.3511 33.9784 24.5 33.6893C24.3962 33.8926 24.2878 34.0957 24.1885 34.299C24.1435 34.3893 24.1029 34.4796 24.0579 34.5654ZM26.1102 30.8895C26.169 30.7992 26.223 30.7135 26.2818 30.6232C26.2275 30.7135 26.169 30.7992 26.1147 30.8895H26.1102ZM42.5575 18.3534C42.5575 18.3534 42.5755 18.3534 42.5845 18.3489C42.5755 18.3489 42.5665 18.3489 42.5575 18.3534Z" fill="black"/>
<path d="M74.4324 58.0084C74.4324 43.9208 63.0118 32.5043 48.9282 32.5043C63.0159 32.5043 74.4324 21.0836 74.4324 7C74.4324 21.0877 85.853 32.5043 99.9367 32.5043C85.8489 32.5043 74.4324 43.9249 74.4324 58.0084Z" fill="#6CF479"/>
<path d="M74.4332 38.9768C76.393 31.1096 85.853 32.5043 99.9367 32.5043C85.8489 32.5043 74.4324 43.9249 74.4324 58.0084" fill="#11B57A"/>
<path d="M74.4332 38.9768C72.4736 31.1096 63.0118 32.5043 48.9282 32.5043C63.0159 32.5043 74.4324 43.9249 74.4324 58.0084" fill="black"/>
<path d="M91.3465 32.1498C82.9224 32.1498 81.4098 32.78 78.133 29.8933C77.092 28.9745 73.8111 24.9047 74.5021 13.6589C75.1527 25.0755 89.3136 32.162 91.3465 32.1498Z" fill="white"/>
</g>
<defs>
<clipPath id="clip0_15980_15813">
<rect width="100" height="100" fill="white"/>
</clipPath>
</defs>
</svg>
