<svg width="100" height="100" viewBox="0 0 100 100" fill="none" xmlns="http://www.w3.org/2000/svg">
<rect width="100" height="100" fill="#F1F1F1"/>
<path d="M18.5062 87.2084L90.3022 63.9722C89.4831 61.4443 87.2634 57.9826 81.864 55.5428C71.9195 51.0417 72.395 46.1532 63.3842 29.4616C57.6853 18.9005 49.3967 16.6632 43.3895 16.6632C38.9766 16.6632 35.7968 17.8787 35.7968 17.8787C35.7968 17.8787 17.5109 22.7673 20.2239 43.4226C22.699 62.237 24.2757 64.122 19.1845 76.339C17.4757 80.4349 17.6871 84.6804 18.5062 87.2084Z" fill="#11B67A"/>
<path d="M4.95904 54.8553C4.95904 54.8553 6.58859 60.246 13.186 61.7434C13.186 61.7434 8.18285 62.6066 8.08596 68.6138C8.08596 68.6138 6.32432 63.4081 0 61.7434C0 61.7434 5.28495 61.118 4.95904 54.8641V54.8553Z" fill="#6CF479"/>
<path d="M85.5368 22.5118C85.5368 22.5118 88.3995 31.9895 100 34.6144C100 34.6144 91.2093 36.1294 91.0332 46.6817C91.0332 46.6817 87.9415 37.5387 76.8166 34.6056C76.8166 34.6056 86.1094 33.5045 85.5368 22.5118Z" fill="#6CF479"/>
<path d="M30.3004 18.4689C29.7895 17.773 29.4635 16.901 29.4635 15.9409C29.4635 13.6772 31.19 11.8274 33.304 11.8274C35.418 11.8274 37.0211 13.5627 37.1268 15.7295C37.8843 15.5445 38.8355 15.3507 39.9365 15.2098C39.5842 11.7217 36.748 9 33.304 9C29.6222 9 26.6273 12.1093 26.6273 15.9409C26.6273 17.4647 27.103 18.8652 27.9046 20.0103C28.7237 19.4113 29.534 18.9005 30.2916 18.4689H30.3004Z" fill="#6CF479"/>
<path d="M57.3924 84.8661C77.2205 78.4504 91.9612 69.1297 90.3168 64.0477C88.6725 58.9657 71.2657 60.0469 51.4376 66.4627C31.6095 72.8784 16.8687 82.1992 18.5131 87.2812C20.1575 92.3632 37.5644 91.2819 57.3924 84.8661Z" fill="black"/>
<path d="M61.4726 48.8401C66.7928 57.4017 76.57 56.6178 76.57 56.6178C65.7094 51.7028 62.697 36.5085 58.7068 29.1008C52.0038 16.6636 39.5489 20.6273 39.5489 20.6273C53.7566 21.6667 57.3856 42.2691 61.4726 48.8489V48.8401Z" fill="white"/>
<path d="M66.2115 72.7097C65.1634 72.4191 64.1504 72.375 63.1991 72.516C62.4944 72.6217 61.7986 72.3222 61.4551 71.7056L59.0152 67.2927C58.5836 67.7595 57.9141 68.6139 57.4296 69.988L59.0944 73.0004C59.4379 73.6258 59.3234 74.3833 58.8566 74.9294C57.6058 76.3916 56.9452 78.3646 57.2182 80.4874C57.6322 83.6584 60.2483 86.2216 63.4281 86.5739C68.1317 87.1024 72.0426 83.033 71.241 78.2854C70.7918 75.6429 68.8012 73.432 66.2115 72.7097Z" fill="#6CF479"/>
<path d="M42.623 42.9647C42.3676 42.3922 41.4956 42.6035 41.5308 43.2376C41.6629 45.5278 42.2884 48.5138 42.2179 51.9754C42.0858 58.0619 37.0298 57.7624 34.264 63.4526C34.0879 63.8137 34.4754 64.1925 34.8278 64.0075C37.9635 62.3868 47.8992 57.6567 61.226 55.3402C61.5696 55.2785 61.7017 54.8469 61.4374 54.6267C60.5038 53.8252 58.0815 52.5303 52.4794 53.0148C48.6831 53.3407 47.3531 51.5262 46.1463 49.4739L42.623 42.9647Z" fill="#6CF479"/>
<path d="M18.5062 87.2084C17.7487 84.8742 20.4617 81.6328 25.544 78.1976C25.8787 76.3919 26.7508 74.6302 27.5347 72.6836C29.6222 67.522 29.5077 62.1578 29.5077 62.1313C29.6927 57.7272 28.2217 48.919 26.3896 37.5475C24.8922 28.2548 27.429 23.2517 28.4067 21.7279C23.6855 25.3393 18.7088 31.9455 20.2239 43.4138C22.699 62.2282 24.2757 64.1132 19.1845 76.3302C17.4757 80.426 17.6871 84.6716 18.5062 87.1996V87.2084Z" fill="black"/>
</svg>
