<svg width="100" height="100" viewBox="0 0 100 100" fill="none" xmlns="http://www.w3.org/2000/svg">
<g clip-path="url(#clip0_15980_15857)">
<path d="M93.4949 82.9654L77.4741 46.6439C77.1094 45.814 76.2158 45.2395 75.3587 45.2395C75.2401 45.2395 75.1307 45.2486 75.0122 45.276L5.60381 59.9305C4.64639 60.122 4.21783 61.043 4.63727 61.9914L20.8313 98.5956C21.1961 99.4255 22.0988 100 22.9559 100C23.0744 100 23.2021 99.9909 23.3206 99.9635L92.5649 85.0081C93.5041 84.8166 93.9235 83.8956 93.5132 82.9563L93.4949 82.9654Z" fill="#024731"/>
<path d="M93.4949 81.8077L77.4741 45.4862C77.1094 44.6563 76.2158 44.0818 75.3587 44.0818C75.2401 44.0818 75.1307 44.0909 75.0122 44.1183L5.60381 58.7819C4.64639 58.9734 4.21783 59.8944 4.63727 60.8428L20.8313 97.4471C21.1961 98.2769 22.0988 98.8514 22.9559 98.8514C23.0744 98.8514 23.2021 98.8423 23.3206 98.8149L92.5649 83.8595C93.5041 83.668 93.9235 82.747 93.5132 81.8077H93.4949Z" fill="#11B67A"/>
<path d="M18.0789 91.2356L90.7334 75.5507L87.3414 67.845L14.6687 83.53L18.0789 91.2356Z" fill="#024731"/>
<path d="M87.7691 19.542C87.7691 19.542 90.1764 27.5304 99.9512 29.7373C99.9512 29.7373 92.5471 31.0139 92.4012 39.9051C92.4012 39.9051 89.7934 32.1994 80.4289 29.7281C80.4289 29.7281 88.2524 28.798 87.7691 19.542Z" fill="white"/>
<path d="M5.28537 33.6696C5.28537 33.6696 7.03608 39.4785 14.1483 41.0926C14.1483 41.0926 8.75943 42.0227 8.65913 48.4882C8.65913 48.4882 6.76253 42.8799 -0.0488281 41.0835C-0.0488281 41.0835 5.6501 40.4086 5.29449 33.6696H5.28537Z" fill="white"/>
<path d="M43.9472 73.2453C43.9472 73.2453 45.698 79.0542 52.8102 80.6683C52.8102 80.6683 47.4213 81.5984 47.321 88.0639C47.321 88.0639 45.4244 82.4556 38.613 80.6591C38.613 80.6591 44.312 79.9843 43.9564 73.2453H43.9472Z" fill="white"/>
<path d="M78.5045 39.5224C77.2279 37.352 75.4681 35.6285 73.2523 34.3518C71.0275 33.0751 68.5838 32.4368 65.9121 32.4368C63.2405 32.4368 60.7056 33.0751 58.4899 34.3518C56.265 35.6285 54.496 37.3611 53.1921 39.5224C51.8882 41.6927 51.2317 44.0546 51.2317 46.6171C51.2317 47.4652 51.3046 48.295 51.4505 49.0975L37.5178 52.043L79.8996 5.89097L78.5866 1.23108H69.4956L26.5394 54.3592L5.60381 58.7819C4.64639 58.9734 4.21783 59.8944 4.63727 60.8428L7.31805 66.8981L30.4967 67.0166L31.7733 63.2686L42.9614 62.8674C55.5994 69.3876 66.6507 68.3207 66.6507 68.3207C61.4442 65.211 58.271 61.1621 56.3288 57.4233C57.0036 57.9887 57.7057 58.5176 58.499 58.9644C60.7238 60.2411 63.204 60.8794 65.9212 60.8794C68.6385 60.8794 71.0366 60.2411 73.2615 58.9644C75.4863 57.6877 77.237 55.9642 78.5136 53.7938C79.7902 51.6235 80.4284 49.2343 80.4284 46.6171C80.4284 43.9999 79.7902 41.6927 78.5136 39.5224H78.5045ZM70.8269 51.66C69.4865 52.9731 67.8543 53.6206 65.903 53.6206C63.9517 53.6206 62.2192 52.9549 60.8515 51.6144C59.4837 50.283 58.809 48.6142 58.809 46.608C58.809 44.6017 59.4837 42.9694 60.8515 41.6836C62.2101 40.4069 63.897 39.7686 65.903 39.7686C67.909 39.7686 69.4865 40.4069 70.8269 41.6836C72.1582 42.9603 72.8238 44.6017 72.8238 46.608C72.8238 48.6142 72.1582 50.3468 70.8269 51.66ZM27.278 26.5094C29.5028 27.786 31.983 28.4244 34.7003 28.4244C37.4175 28.4244 39.8977 27.786 42.1225 26.5094C44.3474 25.2327 46.0981 23.4909 47.3747 21.2932C48.6512 19.0955 49.2895 16.688 49.2895 14.0708C49.2895 11.4536 48.6512 9.14651 47.3747 6.97615C46.0981 4.80579 44.3383 3.09139 42.1225 1.84207C40.3536 0.848081 38.4205 0.255336 36.3415 0.0547148L35.1197 7.2406C36.9342 7.32268 38.4661 7.9519 39.7153 9.1465C41.0466 10.4232 41.7122 12.0646 41.7122 14.0708C41.7122 16.0771 41.0466 17.8097 39.7153 19.1229C38.3749 20.436 36.7063 21.0835 34.7094 21.0835C32.7125 21.0835 31.1259 20.4178 29.7855 19.0773C28.4542 17.7459 27.7886 16.0771 27.7886 14.0708C27.7886 12.0646 28.436 10.4323 29.749 9.1465C30.4876 8.42609 31.3356 7.91542 32.293 7.59625L33.5878 0C32.7216 0.0547149 31.8736 0.182383 31.0621 0.373885L29.1381 9.54775L24.6793 8.60848L25.9102 2.72662C24.3328 3.8574 23.0288 5.27087 22.035 6.96703C20.7584 9.13739 20.1201 11.4992 20.1201 14.0617C20.1201 16.6242 20.7584 19.0864 22.035 21.2841C23.3115 23.4818 25.0622 25.2144 27.2871 26.5002L27.278 26.5094Z" fill="#024731"/>
<path d="M20.7049 11.9092C22.0453 9.63851 23.878 7.85116 26.2032 6.538C28.5284 5.22484 31.118 4.57738 33.972 4.57738C36.826 4.57738 39.4156 5.23396 41.7408 6.538C44.0659 7.85116 45.8987 9.63851 47.2391 11.9092C48.5795 14.1798 49.2451 16.6511 49.2451 19.3322C49.2451 22.0132 48.5795 24.5848 47.2391 26.8828C45.8987 29.1808 44.0659 31.0047 41.7408 32.3361C39.4065 33.6766 36.826 34.3423 33.972 34.3423C31.118 34.3423 28.5284 33.6766 26.2032 32.3361C23.8689 30.9956 22.0362 29.1808 20.7049 26.8828C19.3645 24.5848 18.6989 22.0679 18.6989 19.3322C18.6989 16.5964 19.3645 14.1798 20.7049 11.9092ZM70.3904 5.89054H79.9099L30.4979 67.0162H20.9784L70.3904 5.89054ZM28.8293 24.5757C30.2244 25.9709 31.9477 26.6731 33.9811 26.6731C36.0145 26.6731 37.8199 25.9891 39.2241 24.6213C40.6192 23.2534 41.3122 21.4934 41.3122 19.3413C41.3122 17.1892 40.6192 15.5295 39.2241 14.189C37.829 12.8485 36.0783 12.1828 33.9811 12.1828C31.8839 12.1828 30.1514 12.8485 28.7837 14.189C27.4159 15.5295 26.7321 17.2439 26.7321 19.3413C26.7321 21.4387 27.4251 23.1804 28.8202 24.5757H28.8293ZM53.321 45.9692C54.6887 43.6985 56.5397 41.8929 58.8649 40.5524C61.1901 39.2119 63.7797 38.5462 66.6337 38.5462C69.4877 38.5462 71.9861 39.2119 74.3204 40.5524C76.6455 41.8929 78.4783 43.6985 79.8187 45.9692C81.1591 48.2399 81.8247 50.7111 81.8247 53.3922C81.8247 56.0732 81.1591 58.6266 79.8187 60.9064C78.4783 63.177 76.6455 64.9826 74.3204 66.314C71.9861 67.6545 69.433 68.3202 66.6337 68.3202C63.8344 68.3202 61.1901 67.6545 58.8649 66.314C56.5306 64.9735 54.6887 63.1679 53.321 60.9064C51.9532 58.6357 51.2694 56.137 51.2694 53.3922C51.2694 50.6473 51.9532 48.2399 53.321 45.9692ZM61.3542 58.6266C62.7766 60.0218 64.5365 60.724 66.6337 60.724C68.7309 60.724 70.3904 60.04 71.7855 58.6722C73.1806 57.3043 73.8736 55.5443 73.8736 53.3922C73.8736 51.2401 73.1806 49.5804 71.7855 48.2399C70.3904 46.8993 68.6671 46.2337 66.6337 46.2337C64.6003 46.2337 62.7766 46.8993 61.3542 48.2399C59.9226 49.5804 59.2205 51.2948 59.2205 53.3922C59.2205 55.4896 59.9317 57.2313 61.3542 58.6266Z" fill="#6CF479"/>
</g>
<defs>
<clipPath id="clip0_15980_15857">
<rect width="100" height="100" fill="white"/>
</clipPath>
</defs>
</svg>
