<svg width="100" height="100" viewBox="0 0 100 100" fill="none" xmlns="http://www.w3.org/2000/svg">
<g clip-path="url(#clip0_15980_15871)">
<path d="M91.2608 31.8587C91.6063 38.4547 86.031 39.1181 86.031 39.1181C92.6989 40.8745 94.5574 46.368 94.5574 46.368C94.6601 40.0337 99.9365 39.1274 99.9365 39.1274C92.9791 37.5578 91.2608 31.8681 91.2608 31.8681V31.8587ZM7.45427 48.3487C7.94923 57.8316 -0.0634766 58.7846 -0.0634766 58.7846C9.52748 61.3165 12.1984 69.2111 12.1984 69.2111C12.3478 60.1019 19.9309 58.7939 19.9309 58.7939C9.92906 56.533 7.45427 48.3487 7.45427 48.3487Z" fill="white"/>
<path d="M19.4826 19.9542C21.2009 17.0299 23.5543 14.7316 26.5521 13.0499C29.5405 11.3682 32.8744 10.5273 36.5446 10.5273C40.2147 10.5273 43.5394 11.3682 46.5371 13.0499C49.5256 14.7316 51.8789 17.0299 53.6066 19.9542C55.325 22.8691 56.1841 26.055 56.1841 29.4931C56.1841 32.9313 55.325 36.2479 53.6066 39.2096C51.8883 42.1712 49.5256 44.5069 46.5371 46.226C43.5394 47.9451 40.2147 48.8046 36.5446 48.8046C32.8744 48.8046 29.5498 47.9451 26.5521 46.226C23.5543 44.5069 21.2009 42.1712 19.4826 39.2096C17.7643 36.2573 16.9051 33.0154 16.9051 29.4931C16.9051 25.9709 17.7643 22.8691 19.4826 19.9542ZM83.332 12.1997H95.5659L32.0526 90.7816H19.8188L83.332 12.1997ZM29.914 36.2293C31.7164 38.0231 33.9204 38.92 36.5353 38.92C39.1501 38.92 41.4755 38.0418 43.2686 36.2853C45.0616 34.5289 45.9581 32.2679 45.9581 29.4931C45.9581 26.7183 45.0616 24.5975 43.2686 22.8691C41.4662 21.15 39.2248 20.2905 36.5353 20.2905C33.8457 20.2905 31.6137 21.15 29.858 22.8691C28.1023 24.5882 27.2245 26.8024 27.2245 29.4931C27.2245 32.1838 28.121 34.4354 29.914 36.2293ZM61.3952 63.7343C63.1509 60.8194 65.5323 58.493 68.5207 56.774C71.5091 55.0549 74.8431 54.1954 78.5132 54.1954C82.1834 54.1954 85.3959 55.0549 88.3843 56.774C91.3728 58.493 93.7262 60.8194 95.4538 63.7343C97.1815 66.6493 98.0313 69.8352 98.0313 73.2733C98.0313 76.7114 97.1722 80.0094 95.4538 82.9337C93.7355 85.8486 91.3728 88.175 88.3843 89.8941C85.3866 91.6131 82.0993 92.4727 78.5132 92.4727C74.9271 92.4727 71.5184 91.6131 68.5207 89.8941C65.5229 88.175 63.1509 85.858 61.3952 82.9337C59.6395 80.0094 58.7616 76.7955 58.7616 73.2733C58.7616 69.7511 59.6395 66.6493 61.3952 63.7343ZM71.7239 80.0094C73.5543 81.8126 75.8143 82.7001 78.5132 82.7001C81.2121 82.7001 83.3414 81.8219 85.1344 80.0655C86.9275 78.309 87.824 76.0481 87.824 73.2733C87.824 70.4985 86.9275 68.3777 85.1344 66.6493C83.332 64.9302 81.1281 64.0707 78.5132 64.0707C75.8984 64.0707 73.5543 64.9302 71.7239 66.6493C69.8842 68.3683 68.9783 70.5826 68.9783 73.2733C68.9783 75.964 69.8935 78.2156 71.7239 80.0094Z" fill="#6CF479"/>
<path d="M39.1968 64.5866L33.8363 63.3066L31.7631 65.8665L37.1143 67.1652L39.1968 64.5866Z" fill="#024731"/>
<path d="M32.6318 36.5469C33.7805 37.1916 35.0786 37.5186 36.5448 37.5186C38.8795 37.5186 40.7659 36.7898 42.2975 35.2763C43.8197 33.7815 44.5668 31.8849 44.5668 29.4838C44.5668 27.0827 43.829 25.3356 42.3068 23.8781C40.9994 22.6262 39.4305 21.9255 37.5534 21.7386C38.7861 23.3082 39.4211 25.2048 39.4211 27.4377C39.4211 30.2125 38.5246 32.4735 36.7316 34.2299C35.5549 35.3791 34.1914 36.1452 32.6318 36.5469Z" fill="#024731"/>
<path d="M81.2775 71.2266C81.2775 74.0014 80.381 76.2624 78.5879 78.0188C77.4019 79.1773 76.0291 79.9528 74.4882 80.3452C75.6649 80.9898 76.991 81.3075 78.5039 81.3075C80.7639 81.3075 82.613 80.5787 84.1445 79.0652C85.6667 77.5704 86.4138 75.6738 86.4138 73.2727C86.4138 70.8716 85.6761 69.1245 84.1539 67.667C82.8184 66.3871 81.2588 65.6864 79.3911 65.5182C80.6331 67.0878 81.2682 68.9844 81.2682 71.2266H81.2775Z" fill="#024731"/>
<path d="M19.1184 17.9364C19.7534 17.0208 20.4631 16.1707 21.2383 15.3765L15.8871 14.0966C15.1027 14.872 14.4022 15.7222 13.7579 16.6378L19.1184 17.9458V17.9364Z" fill="#024731"/>
<path d="M23.3676 13.4804C24.1521 12.8824 24.9832 12.3219 25.8611 11.8267C28.7374 10.2011 31.95 9.3135 35.4147 9.15468C33.6963 8.70622 31.8939 8.47266 29.9982 8.47266C26.328 8.47266 23.0034 9.3135 20.0056 10.9952C19.3332 11.3689 18.7075 11.78 18.1005 12.2191L23.3676 13.4804Z" fill="#024731"/>
<path d="M33.2201 71.9847L27.8689 70.6861L13.2817 88.7363L18.3807 90.3432L33.2201 71.9847Z" fill="#024731"/>
<path d="M60.1906 83.6543C58.3135 80.5244 57.3516 77.0302 57.3516 73.2745C57.3516 69.5187 58.3042 66.1366 60.1906 63.0068C62.0677 59.8956 64.6359 57.3918 67.8204 55.5513C70.6687 53.9069 73.844 53.0007 77.262 52.8232C75.5716 52.3654 73.8066 52.1318 71.9668 52.1318C68.9971 52.1318 66.2422 52.711 63.7113 53.8415L52.5608 67.6408C52.3367 68.7993 52.2246 69.9858 52.2246 71.2097C52.2246 74.7319 53.1025 77.9458 54.8582 80.8701C56.6232 83.7851 58.9952 86.1114 61.9837 87.8305C63.0016 88.4191 64.0662 88.8955 65.1682 89.2879C63.1884 87.7184 61.5167 85.8405 60.2 83.6449L60.1906 83.6543Z" fill="#024731"/>
<path d="M20.0056 44.1729C21.0329 44.7615 22.1069 45.2474 23.2182 45.6398C21.229 44.0608 19.5667 42.1456 18.278 39.922C16.4382 36.7641 15.5043 33.2606 15.5043 29.5048C15.5043 27.2719 15.8499 25.1231 16.5316 23.0863L11.2178 21.797C10.6481 23.6002 10.3586 25.4874 10.3586 27.4587C10.3586 30.981 11.2178 34.2136 12.9361 37.1752C14.6545 40.1275 17.0079 42.4726 20.0056 44.1916V44.1729Z" fill="#024731"/>
<path d="M54.8115 39.9102C52.9717 43.068 50.4223 45.5999 47.2284 47.4311C46.9015 47.6179 46.5653 47.7954 46.2291 47.9636L35.4615 61.2957L40.822 62.5757L82.2396 11.3213L82.6598 10.7981H91.0834L89.0102 10.1441H76.7764L56.9127 34.7156C56.4458 36.5281 55.7454 38.2658 54.7928 39.9008L54.8115 39.9102Z" fill="#024731"/>
</g>
<defs>
<clipPath id="clip0_15980_15871">
<rect width="100" height="100" fill="white"/>
</clipPath>
</defs>
</svg>
