<svg width="100" height="100" viewBox="0 0 100 100" fill="none" xmlns="http://www.w3.org/2000/svg">
<g clip-path="url(#clip0_15980_15883)">
<rect width="100" height="100" fill="#F1F1F1"/>
<path d="M51.113 67.5032C36.2371 67.5032 24.6208 65.1814 23.9793 62.2619L25.1756 70.5007C25.6177 73.3163 36.7833 75.5774 51.113 75.5774C65.4428 75.5774 76.5477 73.3683 77.0505 70.5007L78.2468 62.2619C77.5619 65.2334 65.9976 67.5032 51.113 67.5032Z" fill="#11B67A"/>
<path d="M51.1123 77.1115C44.1338 77.1115 37.5627 76.5744 32.6388 75.6041C31.2431 75.3269 30.0728 75.041 29.0759 74.7378L33.2369 96.5C33.5403 98.4406 41.2297 100 51.1036 100C60.9775 100 68.6322 98.4753 68.9702 96.5L73.1313 74.7638C66.0488 76.9642 54.2071 77.1288 51.1036 77.1288L51.1123 77.1115Z" fill="#11B67A"/>
<path d="M51.1141 65.3291C64.3602 65.3291 75.101 63.657 75.101 61.5952C75.101 59.5333 64.3602 57.8613 51.1141 57.8613C37.868 57.8613 27.1272 59.5333 27.1272 61.5952C27.1272 63.657 37.868 65.3291 51.1141 65.3291Z" fill="black"/>
<path d="M69.257 74.1233L70.1759 65.9624C68.1387 66.3696 65.7894 66.6988 63.1888 66.95L62.998 70.1122C62.4259 74.6864 57.5713 75.3708 56.5224 75.4574C61.4636 75.2495 65.8414 74.7817 69.2657 74.1059L69.257 74.1233Z" fill="#01482F"/>
<path d="M59.3053 76.8437L57.8056 94.6121C57.1467 99.6889 51.1131 99.9834 51.1131 99.9834C56.2712 99.9834 60.8137 99.5676 64.0298 98.8832L67.4107 76.0033C64.7234 76.4192 61.88 76.6791 59.2966 76.8437H59.3053Z" fill="#01482F"/>
<path d="M22.1352 17.2143C23.0454 17.067 33.1447 15.5769 40.496 23.1833C46.963 29.8714 46.2782 38.3961 46.1568 39.6263L38.1901 23.1833L22.1352 17.2143Z" fill="black"/>
<path d="M75.2683 33.8392C75.9358 35.927 77.2708 41.1163 75.0776 46.6522C72.1475 54.068 64.094 59.0321 54.7489 59.1014C56.0319 58.9021 68.3245 56.7536 73.3958 45.9245C75.7017 41.0037 75.5457 36.3515 75.2596 33.8478L75.2683 33.8392Z" fill="black"/>
<path d="M52.8589 59.1007C52.6335 58.217 50.3709 48.6267 57.1327 40.7604C64.1545 32.5823 74.5054 33.7439 75.2683 33.8392C75.3723 34.6448 76.7418 46.8681 67.5094 54.3705C61.5798 59.1787 54.8354 59.1787 52.8589 59.1007Z" fill="#11B67A"/>
<path d="M74.591 36.6292C74.409 39.1675 73.6895 43.8544 70.5166 48.4632C69.1903 50.3865 67.7426 51.8506 66.4856 52.9249C67.1184 50.7244 67.1271 49.4249 66.5203 49.0004C65.636 48.3853 63.4168 49.6934 59.8712 52.9249C60.7034 51.686 62.0644 49.9187 64.119 48.212C66.633 46.1155 68.1587 45.8209 70.0399 44.2269C71.5656 42.9361 73.4294 40.7096 74.591 36.6378V36.6292Z" fill="#01482F"/>
<path d="M45.36 41.7405C44.4584 41.8878 34.6972 43.2999 27.45 35.8841C19.9167 28.1737 21.9705 17.9767 22.1352 17.2143C22.9501 17.1796 35.252 16.8854 41.9271 26.7356C46.2009 33.0598 45.6114 39.7739 45.36 41.7318V41.7405Z" fill="#11B67A"/>
<path d="M23.4372 18.4443C25.9772 18.6262 30.6671 19.3452 35.2789 22.516C37.2034 23.8415 38.6685 25.2883 39.7434 26.5445C37.5415 25.912 36.2412 25.9034 35.8164 26.5098C35.2009 27.3935 36.5099 29.6113 39.7434 33.1546C38.5038 32.3229 36.7353 30.9628 35.0275 28.9096C32.9297 26.3972 32.6349 24.8724 31.0398 22.9925C29.7482 21.4678 27.5203 19.6052 23.4459 18.4443H23.4372Z" fill="#01482F"/>
<path d="M63.0443 30.8414C61.536 32.7473 59.9062 34.3327 58.2591 35.6409C56.586 36.9491 54.9042 37.9973 53.3005 38.8203C52.8063 39.0456 51.0986 39.9726 50.2143 42.0344C50.1276 42.2077 50.067 42.3896 50.0236 42.5542C49.5728 43.8884 49.6855 45.3438 50.1883 46.6693L56.0052 62.4019H51.48L44.1548 41.8612L43.9554 41.298C43.5739 40.4664 42.9324 38.8983 42.3603 36.8191C41.5714 33.9602 40.9299 30.1224 41.3027 25.8254C41.5888 22.4813 42.5077 18.8514 44.4582 15.1955C51.61 1.724 66.2952 0.10396 67.3875 0C67.7949 1.09158 73.4991 17.5865 63.0357 30.8414H63.0443Z" fill="#6CF479"/>
<path d="M65.9667 1.43716C63.2533 2.13022 56.8469 4.1661 51.1775 10.0572C45.3259 16.1388 43.6008 22.8702 43.0547 25.6078C46.1928 23.3987 48.282 22.6536 49.331 23.3987C50.9521 24.5509 50.0592 29.2551 46.635 37.5285C48.282 35.2934 50.536 31.7848 52.2351 27.1066C54.3243 21.3715 53.8908 18.5212 55.5033 14.2069C56.8123 10.7242 59.543 6.03738 65.9667 1.44582V1.43716Z" fill="#11B67A"/>
<path d="M67.8128 12.2153C67.8908 9.72027 67.6567 7.51979 67.3273 5.74381C67.336 6.61014 67.3273 7.57177 67.2666 8.6027C67.1019 10.0755 66.7031 11.8688 65.8016 13.7574C64.3625 16.7635 62.3253 18.6002 61.1897 19.4838C61.5105 20.3502 61.7532 21.3118 61.8745 22.3514C62.2213 25.5568 61.1897 28.3897 59.9674 30.5296C59.3779 31.4132 58.7971 32.2189 58.2423 32.9293C57.8608 33.4058 57.4794 33.8736 57.1066 34.3501C59.5686 32.1323 65.9143 25.8254 67.4833 15.8106C67.6741 14.5977 67.7694 13.4455 67.8128 12.3453C67.8128 12.3279 67.8128 12.3106 67.8214 12.3019C67.8214 12.276 67.8214 12.2586 67.8214 12.2326L67.8128 12.2153Z" fill="white"/>
<path d="M55.9892 62.4278C55.9892 62.6877 54.8016 62.9909 53.7267 62.9909C52.6517 62.9909 51.4554 62.6877 51.4641 62.4278C51.4641 62.1679 52.7384 61.9599 53.7267 61.9599C54.7149 61.9599 55.9806 62.1679 55.9892 62.4278Z" fill="#6CF479"/>
</g>
<defs>
<clipPath id="clip0_15980_15883">
<rect width="100" height="100" fill="white"/>
</clipPath>
</defs>
</svg>
