<svg width="100" height="100" viewBox="0 0 100 100" fill="none" xmlns="http://www.w3.org/2000/svg">
<g clip-path="url(#clip0_15980_15922)">
<path d="M30.7938 78.8588C32.6159 74.4909 33.5167 69.6821 33.5167 64.4222C33.5167 61.9204 33.0765 58.8034 32.1859 55.0814H23.833V49.3806H30.6095C29.5552 45.9867 28.767 43.0132 28.2449 40.4704C27.7228 37.9173 27.4567 35.313 27.4567 32.6471C27.4567 27.6333 28.726 23.1731 31.2749 19.246C33.8136 15.3293 37.386 12.2738 41.9925 10.0898C46.5989 7.90587 51.8809 6.81901 57.859 6.81901C62.2197 6.81901 66.3143 7.40345 70.153 8.57233C73.9916 9.75146 77.2366 11.3817 79.9083 13.4837V31.5603C77.8917 28.8124 75.1381 26.5874 71.6679 24.8854C68.1978 23.1833 64.6458 22.3425 61.0118 22.3425C56.4873 22.3425 52.8943 23.5114 50.2328 25.8594C47.5713 28.2074 46.2406 31.3142 46.2406 35.2002C46.2406 37.6302 46.5272 39.8142 47.0902 41.7521C47.6532 43.69 48.5438 46.243 49.7517 49.3908H72.9987V55.0917H51.4407C51.8501 56.9475 52.0447 58.8136 52.0447 60.6695C52.0447 63.9915 51.6045 66.9342 50.7139 69.5283C49.8234 72.1224 48.4107 74.5832 46.476 76.9312C48.0013 76.5314 49.6595 76.3263 51.4407 76.3263C53.2218 76.3263 54.9518 76.4903 56.4054 76.8082C57.859 77.1363 59.5992 77.6182 61.6157 78.2642C63.7142 78.9101 65.4544 79.4023 66.8261 79.7201C68.1978 80.038 69.7742 80.202 71.5554 80.202C74.6161 80.202 77.1035 79.5561 79.0075 78.2642C80.9012 76.9723 82.4982 75.0754 83.7879 72.5633C83.7879 80.4891 82.3139 86.272 79.3658 89.9119C76.4177 93.5519 71.7601 95.3667 65.3827 95.3667C62.8032 95.3667 60.5 95.2232 58.4834 94.9463C56.4668 94.6592 53.7541 94.1978 50.3659 93.5519C47.5406 92.9879 45.2169 92.5676 43.3948 92.2805C41.583 92.0036 39.6278 91.8601 37.5191 91.8601C34.1309 91.8601 31.1623 92.1472 28.6236 92.7111C26.0748 93.275 23.3928 94.2081 20.5675 95.5C25.5732 88.7841 28.9819 83.2473 30.804 78.8794L30.7938 78.8588Z" fill="#6CF479"/>
<path d="M28.1321 21.931L22.0209 20.4647C21.5296 21.6234 21.1304 22.823 20.8233 24.0637L26.873 25.5401C27.2006 24.2995 27.6203 23.0998 28.1321 21.931Z" fill="#024731"/>
<path d="M68.1669 47.8711L65.6078 47.0713H50.4885C50.5909 47.3379 50.6831 47.5942 50.7854 47.8711H68.1669Z" fill="#024731"/>
<path d="M22.3178 49.3871V47.8696H28.5723C27.7943 45.2345 27.1903 42.8558 26.7707 40.7743C26.2281 38.1495 25.9517 35.4118 25.9517 32.6434C25.9517 32.3051 25.9722 31.977 25.9824 31.6489L20.076 30.2134C20.076 30.2134 20.076 30.2852 20.076 30.3262C20.076 32.9921 20.3319 35.6067 20.8642 38.1495C21.3863 40.6923 22.1745 43.6658 23.2288 47.0596H16.4523V52.7605L22.328 54.6061V49.3769L22.3178 49.3871Z" fill="#024731"/>
<path d="M71.5451 78.6821C74.2885 78.6821 76.5098 78.1182 78.1374 77.0006C79.7548 75.8932 81.1572 74.2322 82.2934 72.0893L76.3768 70.2334C75.087 72.7455 73.49 74.6423 71.5963 75.9342C69.9994 77.0211 67.9726 77.6466 65.5466 77.8209C66.13 77.9747 66.6828 78.1182 67.1639 78.231C68.423 78.5283 69.897 78.6719 71.5451 78.6719V78.6821Z" fill="#024731"/>
<path d="M19.3493 94.5758C24.2525 87.9931 27.6306 82.5178 29.4015 78.2832C31.1315 74.1306 32.0118 69.4756 32.0118 64.431C32.0118 62.2983 31.6637 59.6734 30.9881 56.6077H25.5833C25.9416 58.6789 26.1361 60.5347 26.1361 62.1137C26.1361 67.3737 25.2352 72.1825 23.4131 76.5504C21.591 80.9183 18.1823 86.4551 13.1767 93.171L19.0422 95.0064L19.3595 94.5758H19.3493Z" fill="#024731"/>
<path d="M77.2263 30.7174C75.5475 28.9539 73.4695 27.4466 71.0026 26.247C70.1836 25.8471 69.3544 25.4985 68.5253 25.1909C70.071 26.3803 71.4017 27.7235 72.5073 29.2307L77.216 30.7072L77.2263 30.7174Z" fill="#024731"/>
<path d="M29.3196 19.5826C29.5448 19.193 29.77 18.8034 30.0157 18.424C32.6976 14.2817 36.5158 11.0211 41.3474 8.72437C46.1279 6.45838 51.6863 5.29976 57.8588 5.29976C58.2581 5.29976 58.6471 5.33052 59.0361 5.34077C56.3029 4.79735 53.447 4.5 50.4682 4.5C44.4901 4.5 39.208 5.58685 34.6016 7.77081C29.9952 9.95477 26.4329 13.0103 23.884 16.927C23.6281 17.3167 23.4029 17.7165 23.1777 18.1164L29.3196 19.5826Z" fill="#024731"/>
<path d="M49.9153 74.6952C49.8846 74.7465 49.854 74.7977 49.8232 74.849C50.028 74.8388 50.2429 74.8387 50.4579 74.8285C50.2736 74.7772 50.0996 74.7362 49.9256 74.6952H49.9153Z" fill="#024731"/>
<path d="M86.2753 48.3009C86.2753 48.3009 88.9777 57.2828 99.9512 59.7641C99.9512 59.7641 91.6392 61.1996 91.4754 71.1966C91.4754 71.1966 88.5478 62.5325 78.0349 59.7539C78.0349 59.7539 86.8178 58.708 86.2753 48.3009Z" fill="white"/>
<path d="M5.68363 14.1388C5.68363 14.1388 7.56711 20.383 15.1933 22.1056C15.1933 22.1056 9.40967 23.1002 9.29707 30.0519C9.29707 30.0519 7.26001 24.0332 -0.0488281 22.0953C-0.0488281 22.0953 6.06238 21.3674 5.68363 14.1285V14.1388Z" fill="white"/>
</g>
<defs>
<clipPath id="clip0_15980_15922">
<rect width="100" height="100" fill="white"/>
</clipPath>
</defs>
</svg>
