<svg width="100" height="100" viewBox="0 0 100 100" fill="none" xmlns="http://www.w3.org/2000/svg">
<g clip-path="url(#clip0_15980_15936)">
<path d="M93.5045 82.9579L77.4837 46.6396C77.119 45.8099 76.2254 45.2354 75.3683 45.2354C75.2497 45.2354 75.1403 45.2445 75.0218 45.2719L5.60447 59.9341C4.64705 60.1256 4.21849 61.0466 4.63793 61.9949L20.8319 98.5958C21.1967 99.4255 22.0994 100 22.9565 100C23.0751 100 23.2027 99.9909 23.3212 99.9635L92.5653 85.0095C93.5045 84.818 93.924 83.8971 93.5136 82.9579H93.5045Z" fill="#024731"/>
<path d="M93.5045 81.8004L77.4837 45.4822C77.119 44.6524 76.2254 44.0779 75.3683 44.0779C75.2497 44.0779 75.1403 44.0871 75.0218 44.1144L5.60447 58.7767C4.64705 58.9681 4.21849 59.8891 4.63793 60.8374L20.8319 97.4383C21.1967 98.2681 22.0994 98.8425 22.9565 98.8425C23.0751 98.8425 23.2027 98.8334 23.3212 98.8061L92.5653 83.852C93.5045 83.6605 93.924 82.7396 93.5136 81.8004H93.5045Z" fill="#11B67A"/>
<path d="M18.0782 91.2273L90.7416 75.5438L87.3405 67.8388L14.6771 83.5223L18.0782 91.2273Z" fill="#024731"/>
<path d="M87.7692 19.5403C87.7692 19.5403 90.1764 27.5279 99.9512 29.7345C99.9512 29.7345 92.5471 31.0111 92.4013 39.9015C92.4013 39.9015 89.7934 32.1965 80.429 29.7254C80.429 29.7254 88.2524 28.7954 87.7692 19.5403Z" fill="white"/>
<path d="M5.28536 33.6665C5.28536 33.6665 7.03607 39.4749 14.1483 41.0888C14.1483 41.0888 8.75943 42.0189 8.65913 48.4838C8.65913 48.4838 6.76251 42.876 -0.0488281 41.0797C-0.0488281 41.0797 5.6501 40.405 5.29449 33.6665H5.28536Z" fill="white"/>
<path d="M43.9561 73.2386C43.9561 73.2386 45.7068 79.047 52.819 80.6609C52.819 80.6609 47.4301 81.591 47.3298 88.0559C47.3298 88.0559 45.4332 82.4481 38.6219 80.6518C38.6219 80.6518 44.3208 79.977 43.9652 73.2386H43.9561Z" fill="white"/>
<path d="M72.5325 51.792L71.9307 46.3758C71.0189 48.1447 69.8882 49.4851 68.5479 50.3969C67.2075 51.3088 65.4476 51.7647 63.2866 51.7647C62.0283 51.7647 60.9159 51.6461 59.9493 51.4273C58.9828 51.1993 57.7518 50.8528 56.2747 50.3969C54.8522 49.941 53.6212 49.5945 52.6 49.3666C51.5696 49.1386 50.4025 49.0292 49.0895 49.0292C47.7765 49.0292 46.664 49.1751 45.579 49.4577C46.9467 47.8073 47.9406 46.0657 48.5697 44.2421C49.1989 42.4184 49.5089 40.3394 49.5089 37.996C49.5089 37.7407 49.4998 37.4854 49.4907 37.2301L64.709 35.0143L64.317 30.0357H47.8859C47.0288 27.8109 46.4087 26.0146 46.0075 24.6468C45.6063 23.2791 45.4057 21.7381 45.4057 20.0238C45.4057 17.2883 46.3449 15.0908 48.2324 13.4404C50.1107 11.79 52.6547 10.9602 55.8461 10.9602C58.4084 10.9602 60.9159 11.562 63.3778 12.7565C65.8306 13.951 67.7728 15.5194 69.1952 17.4616L69.7241 9.0089L69.1952 4.70505C67.3169 3.21877 65.01 2.06986 62.3018 1.24009C59.5937 0.419443 56.7032 0 53.6213 0C49.3995 0 45.6701 0.765938 42.4149 2.30693C39.1597 3.84793 36.643 5.99985 34.8467 8.7627C33.0504 11.5347 32.1477 14.6805 32.1477 18.2184C32.1477 20.0968 32.3301 21.9387 32.704 23.735C33.0687 25.5313 33.6249 27.6285 34.3726 30.0175H29.5855L29.0475 34.9961L35.9045 35.9353C36.2601 37.7407 36.4333 39.2999 36.4333 40.6221C36.4333 44.3333 35.795 47.7253 34.5094 50.7981C34.2449 51.4455 33.9076 52.1294 33.5428 52.8498L5.61359 58.7493C4.65618 58.9408 4.22762 59.8617 4.64706 60.8101L7.99347 68.3691H26.6859L56.7488 68.1959L50.8767 63.8282L48.9345 61.2568C51.0317 61.6489 52.755 61.9407 54.0589 62.1231C55.4814 62.3237 57.1044 62.424 58.9281 62.424C63.4325 62.424 70.335 57.8101 70.335 57.8101L72.5417 51.7647L72.5325 51.792Z" fill="#024731"/>
<path d="M34.0991 56.3586C35.4213 53.1945 36.0778 49.7113 36.0778 45.909C36.0778 44.0945 35.7586 41.8331 35.1112 39.1432H29.0567V35.0126H33.9806C33.2147 32.5507 32.6402 30.3988 32.2664 28.5569C31.8834 26.7058 31.6919 24.8183 31.6919 22.8853C31.6919 19.2562 32.6129 16.0192 34.4639 13.1743C36.3057 10.3293 38.8953 8.12271 42.2326 6.54524C45.5699 4.96777 49.4087 4.17448 53.7398 4.17448C56.9039 4.17448 59.8764 4.60304 62.6575 5.45104C65.4386 6.29905 67.8002 7.48443 69.7333 9.00719V22.1011C68.2653 20.1133 66.2775 18.4994 63.7608 17.2684C61.2442 16.0374 58.6637 15.4265 56.0285 15.4265C52.746 15.4265 50.1382 16.2745 48.2051 17.9705C46.272 19.6665 45.3055 21.9278 45.3055 24.7363C45.3055 26.4961 45.5152 28.0736 45.9164 29.4778C46.3267 30.882 46.9741 32.7239 47.8495 35.0126H64.7182V39.1432H49.0804C49.3722 40.4927 49.5181 41.8331 49.5181 43.1826C49.5181 45.5899 49.199 47.7236 48.5516 49.5928C47.9042 51.4712 46.8829 53.2584 45.4787 54.9544C46.5911 54.6626 47.7856 54.5167 49.0804 54.5167C50.3752 54.5167 51.6244 54.6352 52.6822 54.8632C53.7399 55.1003 54.9982 55.4468 56.4571 55.9209C57.9799 56.386 59.2382 56.7416 60.2321 56.9787C61.226 57.2157 62.3748 57.3251 63.6605 57.3251C65.8854 57.3251 67.6817 56.8601 69.0677 55.9209C70.4445 54.9817 71.6025 53.6049 72.5417 51.7903C72.5417 57.5349 71.4658 61.7202 69.3321 64.3554C67.1893 66.9906 63.8155 68.3127 59.1835 68.3127C57.3051 68.3127 55.6456 68.2124 54.1775 68.0027C52.7095 67.793 50.7491 67.4647 48.2871 66.9906C46.2355 66.5802 44.5486 66.2702 43.2356 66.0696C41.9226 65.869 40.5002 65.7596 38.9774 65.7596C36.5155 65.7596 34.3727 65.9693 32.5217 66.3705C30.6707 66.7808 28.7285 67.4556 26.6769 68.3948C30.3059 63.5347 32.7861 59.5227 34.0991 56.3586Z" fill="#6CF479"/>
</g>
<defs>
<clipPath id="clip0_15980_15936">
<rect width="100" height="100" fill="white"/>
</clipPath>
</defs>
</svg>
