<svg width="100" height="100" viewBox="0 0 100 100" fill="none" xmlns="http://www.w3.org/2000/svg">
<g clip-path="url(#clip0_4483_6175)">
<rect width="100" height="100" fill="#F1F1F1"/>
<path d="M27.5659 50.7073L66.3401 28.5154V70.3148L27.5659 92.5153V50.7073Z" fill="#11B67A"/>
<path d="M54.6201 77.0169L62.5258 72.5113V55.8587L54.6201 60.2782V77.0169Z" fill="black"/>
<path d="M12.6907 22.1919L0 35.4588V77.7061L27.5659 92.5153V50.7073L12.6907 22.1919Z" fill="black"/>
<path d="M12.6907 22.1919L51.4648 0L66.3401 28.5154L27.5659 50.7073L12.6907 22.1919Z" fill="#6CF479"/>
<path d="M40.4298 18.8838V32.0301L35.168 23.5961V16.7128L40.4298 18.8838Z" fill="black"/>
<path d="M47.0699 15.3428L40.4298 18.8838L35.168 16.7128L41.8081 13.1632L47.0699 15.3428Z" fill="#6CF479"/>
<path d="M47.0699 15.3428L40.4298 18.8838V32.0301L47.07 28.4808L47.0699 15.3428Z" fill="#11B67A"/>
<path d="M41.8688 14.404L44.4433 15.4723L40.3605 17.6518L37.7859 16.5836L41.8688 14.404Z" fill="#00482F"/>
<path d="M54.6201 54.1959L62.5257 49.6904V38L54.6201 42.4194V54.1959Z" fill="#6CF479"/>
<path d="M48.0232 57.409V46.1666L32.2032 55.0916V66.334L48.0232 57.409Z" fill="#6CF479"/>
<path d="M48.0232 74.415V63.1726L32.2032 72.1062V83.3486L48.0232 74.415Z" fill="#6CF479"/>
<path d="M46.9742 48.0708V56.7029L38.0456 61.6133C38.0456 61.6133 44.5817 56.4703 43.7061 49.811L46.9742 48.0708Z" fill="white"/>
<path d="M46.9742 65.0852V73.7173L38.0456 78.6278C38.0456 78.6278 44.5817 73.4847 43.7061 66.8254L46.9742 65.0852Z" fill="white"/>
<path d="M55.7556 52.1887L61.5549 48.9925V40.3088C61.5549 40.3088 60.8527 48.1052 55.7556 52.1887Z" fill="white"/>
<path d="M40.4298 32.0301L32.2729 32.0475L27.1672 24.5525L32.3769 21.4856H37.7427L40.4298 32.0301Z" fill="black"/>
<path d="M70.7695 55.729C70.7695 55.729 54.7588 61.7078 47.9887 80.8586L57.5241 75.2934L71.6624 56.1426L70.7695 55.729Z" fill="black"/>
<path d="M99.8094 66.5235C99.3066 63.2499 97.885 60.4673 95.5011 58.5806L90.8635 54.9365C92.8139 56.8835 93.9495 59.5455 94.3222 62.5951L99.8094 66.5235Z" fill="black"/>
<path d="M94.4348 65.6276C94.4088 66.2996 94.3568 66.9715 94.2614 67.6607L99.87 71.6752C99.948 70.9774 99.9913 70.2883 100 69.6077L94.4262 65.619L94.4348 65.6276Z" fill="black"/>
<path d="M86.9538 83.8564C78.268 94.7111 65.534 99.0099 58.4865 93.4706L63.2108 97.2697C63.9476 97.8641 64.7538 98.3638 65.6293 98.717H65.6467C65.6467 98.717 65.6553 98.717 65.6727 98.717C77.4878 103.843 89.1383 91.9544 89.1383 91.9544C90.3172 90.8603 91.4528 89.6456 92.519 88.3017C95.3883 84.7093 97.4601 80.8498 98.691 77.0937L93.0044 73.0275C91.7649 76.663 89.7451 80.376 86.9712 83.8391L86.9538 83.8564Z" fill="black"/>
<path d="M85.6957 82.8644C93.9284 72.5748 95.2437 59.999 88.6336 54.7754C82.0235 49.5519 69.991 53.6587 61.7583 63.9483C53.5256 74.2379 52.2102 86.8137 58.8204 92.0373C65.4305 97.2608 77.463 93.154 85.6957 82.8644Z" fill="#6CF479"/>
<path d="M64.5804 66.2994C71.8619 57.1935 82.4115 53.3857 88.5488 57.495C88.3061 57.2452 88.046 57.0126 87.7686 56.7886C81.7267 52.016 70.735 55.7721 63.2108 65.1709C55.6865 74.5697 54.4902 86.0619 60.5235 90.8346C60.7142 90.981 60.9049 91.1275 61.1043 91.2567C55.9726 86.1309 57.3942 75.2675 64.5717 66.2994H64.5804Z" fill="#00482F"/>
<path d="M81.5011 83.478C82.7667 82.0221 83.8329 80.4886 84.7084 78.938C82.6627 81.1347 80.8509 81.5138 79.9841 81.4104C78.9872 81.2985 78.207 80.5317 78.207 80.5317C71.6623 87.9147 66.1058 88.3799 62.7078 86.8206C60.7313 85.916 59.7951 84.1155 59.3704 82.7802C59.3704 85.4853 60.2026 87.8199 61.9276 89.3878C66.3919 93.4368 75.1557 90.7834 81.5011 83.4694V83.478Z" fill="white"/>
</g>
<defs>
<clipPath id="clip0_4483_6175">
<rect width="100" height="100" fill="white"/>
</clipPath>
</defs>
</svg>
