<svg width="100" height="100" viewBox="0 0 100 100" fill="none" xmlns="http://www.w3.org/2000/svg">
<g clip-path="url(#clip0_15980_15999)">
<rect width="100" height="100" fill="#F1F1F1"/>
<path d="M89.9795 29.8674C95.3495 17.9421 94.7807 2.99 94.7807 2.99C94.7807 2.99 79.7931 2.42249 67.8394 7.77981C60.3684 11.1244 28.6183 50.82 28.6183 50.82C28.6183 50.82 25.9712 58.8408 32.388 65.2348C39.4949 72.3249 46.837 68.9955 46.837 68.9955C46.837 68.9955 86.6194 37.3132 89.9795 29.8598V29.8674Z" fill="#6CF479"/>
<path d="M66.4445 8.66513C63.2741 11.6011 66.3156 21.0899 71.4809 26.2429C76.6461 31.3959 85.6038 34.9069 89.1004 31.2673C89.4872 30.7603 89.7898 30.2836 89.9795 29.8674C95.3495 17.9421 94.7807 2.99 94.7807 2.99C94.7807 2.99 79.7931 2.42249 67.8394 7.77981C67.4222 7.96898 66.9527 8.26409 66.437 8.65756L66.4445 8.66513Z" fill="#11B67A"/>
<path d="M66.5736 10.4509C66.5736 10.4509 60.6575 15.445 54.9992 22.1492C45.5106 33.386 29.5673 52.3712 29.5673 52.3712L35.3166 60.9368C35.3166 60.9368 30.432 55.4433 45.6699 37.2754C49.614 32.5763 56.4555 24.3134 61.3325 21.0067C64.8898 18.6004 67.8479 19.7884 67.8479 19.7884L66.566 10.4585L66.5736 10.4509Z" fill="white"/>
<path d="M66.4445 8.66513C63.2741 11.6011 66.3156 21.0899 71.4809 26.2429C76.6461 31.3959 85.6038 34.9069 89.1004 31.2673C89.4872 30.7603 89.7898 30.2836 89.9795 29.8674C95.3495 17.9421 94.7807 2.99 94.7807 2.99C94.7807 2.99 79.7931 2.42249 67.8394 7.77981C67.4222 7.96898 66.9527 8.26409 66.437 8.65756L66.4445 8.66513Z" fill="#11B67A"/>
<path d="M94.784 3.107C94.8233 4.52542 95.0723 18.5576 89.9795 29.8674C89.7898 30.2836 89.4872 30.7603 89.1004 31.2673C85.6038 34.9069 76.6461 31.3959 71.4809 26.2429C70.9007 25.6641 70.347 25.0303 69.8262 24.3575C69.9254 24.372 70.0592 24.414 70.2297 24.4873C72.9906 25.6829 81.8192 29.5721 87.3941 23.5793C91.8842 18.7517 93.4847 9.2782 94.3494 5.2677C94.5334 4.4139 94.6747 3.69752 94.784 3.107Z" fill="black"/>
<path d="M91.4359 4.29905C91.4359 4.29905 83.8739 4.6093 78.2308 6.03186C74.1046 7.07608 70.9114 8.30191 69.2807 9.29317C68.2112 9.94391 67.4452 11.0033 67.1873 12.214C66.9749 13.2204 66.9673 13.9316 67.1342 15.4072C67.3996 17.7529 68.3933 19.6673 68.3933 19.6673C68.3933 19.6673 67.0052 11.1319 79.8084 6.73558C84.0711 5.27518 91.4283 4.30662 91.4283 4.30662L91.4359 4.29905Z" fill="white"/>
<path d="M90.3599 28.9889C90.2359 29.2832 90.1105 29.5765 89.9795 29.8674V29.8598C86.6194 37.3132 46.837 68.9955 46.837 68.9955C46.8227 69.002 45.3107 69.6824 43.0024 69.7674L32.3565 57.9631C32.3748 57.9812 38.6767 64.254 45.3492 61.1864C50.8103 58.6818 68.8396 41.3689 80.7477 29.3754L90.3599 28.9889Z" fill="black"/>
<path d="M31.8589 46.8139C31.4596 50.0283 31.6023 55.9595 36.6671 61.0124C41.9396 66.2724 47.3201 66.5402 50.4752 66.0665C48.2262 67.8882 46.853 68.9828 46.837 68.9955C46.837 68.9955 39.4949 72.3249 32.388 65.2348C25.9712 58.8408 28.6183 50.82 28.6183 50.82C28.6315 50.8035 29.8504 49.28 31.8589 46.8139Z" fill="#11B67A"/>
<path d="M46.892 28.7043C48.1511 29.5518 39.3679 41.1366 38.3667 41.5528C37.3655 41.9689 36.88 40.9096 34.9156 40.5615C32.5567 40.1378 28.6278 38.9271 25.0174 42.1127C22.1958 44.6022 22.3172 45.934 21.6118 44.7611C20.9064 43.5882 25.1994 34.8637 32.9056 29.8771C40.6118 24.8906 46.8996 28.7043 46.8996 28.7043H46.892Z" fill="#11B67A"/>
<path d="M69.0125 50.7724C68.163 49.5163 56.5507 58.2787 56.1335 59.2775C55.7164 60.2763 56.7782 60.7606 57.1271 62.7204C57.5519 65.0737 58.7655 68.9933 55.5723 72.5951C53.0768 75.41 51.7419 75.2889 52.9176 75.9926C54.0932 76.6964 62.8385 72.4135 67.8369 64.7256C72.8353 57.0377 69.0125 50.7648 69.0125 50.7648V50.7724Z" fill="black"/>
<path d="M68.6638 53.6402C67.5185 55.2217 65.8043 55.5924 65.8043 55.5924C65.8043 55.5924 68.9824 60.579 65.4857 65.9439C68.459 62.8944 69.7181 57.2799 68.6638 53.6402Z" fill="#11B67A"/>
<path d="M41.8559 37.5014C40.2238 39.6557 38.7437 41.3961 38.3667 41.5528C37.3655 41.9689 36.88 40.9096 34.9156 40.5615C32.5567 40.1378 28.6278 38.9271 25.0174 42.1127C22.1958 44.6022 22.3172 45.934 21.6118 44.7611C21.3395 44.3083 21.8123 42.73 22.9387 40.6758C22.9624 41.5808 23.4895 41.8814 25.4565 40.2059C27.9519 38.0797 32.5332 37.2925 35.6809 38.314C37.3273 38.848 39.293 39.3952 41.8559 37.5014Z" fill="black"/>
<path d="M44.0252 29.0524C42.4324 29.5896 41.6436 31.7008 41.6436 31.7008C41.6436 31.7008 37.0623 28.7346 31.6923 32.2229C34.749 29.2567 40.3769 28.0006 44.0252 29.0524Z" fill="white"/>
<path d="M32.4254 65.2716C32.8039 65.5388 38.2803 69.3205 42.1962 67.2322C42.3454 67.1503 44.1402 65.8229 44.3564 65.6869C46.4041 66.2562 48.2592 66.3023 49.7405 66.1568C49.7472 66.1561 49.7538 66.1554 49.7605 66.1548C49.8464 66.1462 49.9311 66.1368 50.0145 66.127C50.0545 66.1224 50.0941 66.1178 50.1335 66.1129C50.1791 66.1072 50.2243 66.101 50.2692 66.095C50.3322 66.0865 50.3944 66.0782 50.4557 66.0691C50.4622 66.0682 50.4688 66.0675 50.4752 66.0665C48.2278 67.8869 46.8549 68.9813 46.837 68.9955C46.837 68.9955 39.5207 72.3129 32.4254 65.2716Z" fill="black"/>
<path d="M65.5953 31.0705C68.7278 33.9005 68.9706 38.7357 66.1338 41.8684C63.2971 44.9935 58.4504 45.2356 55.3103 42.4056C52.1778 39.5756 51.9351 34.7404 54.7718 31.6078C57.6161 28.4751 62.4552 28.2405 65.5953 31.0705Z" fill="#C7FFC6"/>
<path d="M64.6387 32.1299C67.1645 34.4075 67.3541 38.2968 65.0711 40.8166C62.788 43.3364 58.8894 43.5255 56.3637 41.2479C53.8455 38.9703 53.6483 35.0809 55.9314 32.5612C58.2144 30.0414 62.113 29.8523 64.6387 32.1299Z" fill="#00482F"/>
<path d="M55.2879 36.3067C55.614 33.9762 57.4344 32.1374 59.7174 31.7893C61.8563 31.464 64.0028 32.5158 65.095 34.4302C63.5477 32.7503 61.295 32.145 59.4823 32.879C58.0184 33.4692 57.3206 34.7328 57.1007 35.1793C56.9338 35.1793 56.7442 35.202 56.5318 35.2701C55.8036 35.4971 55.4168 36.0949 55.2955 36.3067H55.2879Z" fill="white"/>
<path d="M24.4389 75.3227L0.39467 97.9147C0.304925 97.9968 0.170307 97.9893 0.0805618 97.9072L0.0057742 97.8326C-0.0839709 97.7431 -0.0839709 97.6088 -0.00170457 97.5193L22.644 73.5321C24.4838 71.5847 26.518 70.182 26.9667 70.6297L27.3556 71.0177C27.8043 71.4653 26.3983 73.4947 24.4464 75.3302L24.4389 75.3227Z" fill="#11B67A"/>
<path d="M32.9122 77.4043L14.7538 93.3411C14.6865 93.4008 14.5668 93.3709 14.4845 93.2889L14.4097 93.2142C14.3275 93.1247 14.305 93.0053 14.3649 92.9456L31.1547 75.5764C32.5158 74.1662 34.1088 73.256 34.5501 73.7186L34.924 74.114C35.3652 74.5766 34.378 76.121 32.9047 77.4118L32.9122 77.4043Z" fill="#11B67A"/>
<path d="M22.0086 66.5262L4.62796 83.2986C4.56813 83.3583 4.44099 83.3433 4.35872 83.2538L4.28393 83.1792C4.19419 83.0971 4.17175 82.9777 4.23158 82.9106L20.1763 64.7728C21.4701 63.303 23.0182 62.3181 23.4819 62.7583L23.8783 63.1314C24.342 63.5716 23.4296 65.1608 22.0236 66.5262H22.0086Z" fill="#11B67A"/>
<path d="M82.6915 56.6179C82.6915 56.6179 86.7076 47.896 99.9375 56.603L82.6915 56.6179Z" fill="#11B67A"/>
<path d="M36.5322 11.0459C36.248 10.8071 35.9937 10.5385 35.7319 10.2774C35.1112 9.63574 33.3612 8.12861 30.8034 8.41213C29.734 8.53897 28.9113 9.02394 28.3354 9.51637C26.892 7.00946 24.1772 5.3158 21.0661 5.3158C16.4293 5.3158 12.6749 9.06124 12.6749 13.6871V14.4929H47.5185C41.3634 14.4929 38.4168 12.6649 36.5471 11.0533L36.5322 11.0459Z" fill="#11B67A"/>
</g>
<defs>
<clipPath id="clip0_15980_15999">
<rect width="100" height="100" fill="white"/>
</clipPath>
</defs>
</svg>
