<svg width="100" height="100" viewBox="0 0 100 100" fill="none" xmlns="http://www.w3.org/2000/svg">
<path d="M44.9527 9.67758C45.3022 9.38181 45.6159 9.05018 45.9386 8.72751C46.7003 7.92981 48.86 6.06552 52.0236 6.42403C53.341 6.5764 54.3626 7.17692 55.0706 7.7864C56.854 4.68522 60.2058 2.58789 64.0415 2.58789C69.7591 2.58789 74.3925 7.22173 74.3925 12.9401V13.935H31.4023C38.993 13.935 42.6315 11.6763 44.9437 9.67758H44.9527Z" fill="white"/>
<path d="M22.1179 59.8729C23.3367 59.8371 24.5376 59.6757 25.7027 59.3889V26.1095C24.5376 25.8227 23.3367 25.6613 22.1179 25.6255V59.8729ZM11.059 56.2519C12.1703 57.1213 13.3712 57.8473 14.6438 58.4209V27.1044C13.3712 27.669 12.1703 28.3861 11.059 29.2555V56.2519ZM34.4047 31.3797C33.9925 30.9136 33.5085 30.3848 33.0156 29.9367C32.9528 29.8829 32.8812 29.8291 32.8184 29.7753V55.7231C33.1321 55.4542 33.4457 55.1763 33.7504 54.8805L36.4032 52.2096V33.6473L34.4047 31.3797Z" fill="#024731"/>
<path d="M85.1197 67.0704C84.9046 66.2279 84.1697 65.6274 83.3094 65.5647L71.5245 64.7401C71.4618 64.7401 71.3991 64.7401 71.3363 64.7401C70.7538 64.7401 70.1892 64.9283 69.7142 65.2778L59.2199 73.1921C58.8973 73.4341 59.0406 73.954 59.4439 73.9988L70.9062 75.1729C72.3311 75.3164 73.5051 76.356 73.8367 77.7453L75.6291 85.3459C75.7277 85.7761 76.113 86.045 76.5073 86.045C76.6955 86.045 76.8837 85.9823 77.045 85.8568C80.334 83.2575 83.7216 79.995 86.7417 75.9617C87.0643 75.5225 87.172 74.9578 87.0375 74.438L85.1286 67.0794L85.1197 67.0704ZM94.3414 59.2547L93.6961 56.2342C93.5169 55.4007 92.791 54.8181 91.9486 54.8181C91.9217 54.8181 91.8859 54.8181 91.859 54.8181C89.6634 54.9256 85.3258 55.1407 80.5312 55.3469C80.0742 55.3648 79.6439 55.562 79.3302 55.8847L72.6268 62.7234C72.3579 62.9923 72.5372 63.4584 72.9136 63.4852L83.399 64.2202C84.8418 64.3188 86.0517 65.3316 86.4191 66.7298L87.9964 72.8067C88.0502 73.0218 88.2473 73.1473 88.4355 73.1473C88.5789 73.1473 88.7223 73.0846 88.803 72.9412C91.0076 69.4815 92.9075 65.5378 94.2697 61.0384C94.4489 60.4647 94.4669 59.8463 94.3325 59.2547H94.3414ZM70.7628 76.5084L57.1228 75.1102C56.9346 75.0923 56.7554 75.0833 56.5672 75.0833C56.1101 75.0833 55.662 75.1371 55.214 75.2536C50.7151 76.4277 39.3783 80.0129 37.577 86.6366C37.577 86.6366 35.3186 93.9503 48.8599 95.0079C49.8188 95.0796 50.7868 95.1245 51.7367 95.1245C59.5605 95.1245 67.2048 92.6507 73.738 88.2678C74.0069 87.5777 74.2041 87.0668 74.464 86.3766L72.5013 78.059C72.3041 77.2255 71.5962 76.607 70.7448 76.5174L70.7628 76.5084Z" fill="#6CF479"/>
<path d="M50.3299 78.0562C52.3821 77.3571 55.5009 76.3264 56.4419 76.1471L68.5852 77.3123L63.8623 79.8309C63.2171 80.1715 62.4911 80.3149 61.7652 80.2342L50.4284 78.9256C49.9534 78.8718 49.8818 78.2086 50.3388 78.0562H50.3299Z" fill="#024731"/>
<path d="M61.6307 73.0157L71.0407 65.9798L81.4006 66.652L72.7614 73.903L61.6307 73.0157Z" fill="#024731"/>
<path d="M74.8315 62.4789L80.3251 56.653L90.2728 56.2676L84.9404 63.0256L74.8315 62.4789Z" fill="#024731"/>
<path d="M94.3415 59.2514L93.6962 56.2309C93.6066 55.8006 93.3557 55.4332 93.0331 55.1822L85.3169 64.9877C85.8457 65.4269 86.24 66.0274 86.4192 66.7265L87.6559 71.4858L87.9965 72.8034C88.0951 73.1798 88.597 73.2694 88.8121 72.9378C91.0167 69.4781 92.9166 65.5344 94.2788 61.035C94.458 60.4614 94.4759 59.8429 94.3415 59.2514ZM85.1198 67.0671C84.9943 66.5741 84.6896 66.1708 84.2863 65.9019L72.7883 75.9942C73.2991 76.4423 73.6755 77.0518 73.8368 77.7419L75.6381 85.3963C75.7904 86.0327 76.5433 86.3016 77.0631 85.8982C81.1766 82.7433 84.9674 78.4769 86.7598 76.3437C87.1362 75.8956 87.2616 75.304 87.1183 74.7483L85.1198 67.076V67.0671ZM72.3222 77.5537C72.2953 77.5089 72.2774 77.4551 72.2416 77.4193C72.1699 77.3117 72.0803 77.2131 71.9906 77.1145C71.9189 77.0428 71.8472 76.9711 71.7666 76.9174C69.7143 78.1273 62.2402 82.3041 60.5016 83.3617C60.5016 83.3617 53.108 87.3054 53.8429 91.4015C54.3716 94.3055 56.854 94.5833 59.9548 94.2069C65.2065 93.0417 70.3058 90.7293 74.7598 87.5653C74.7957 87.5385 72.5193 78.0556 72.5193 78.0556C72.4745 77.8764 72.4029 77.7151 72.3222 77.5627V77.5537Z" fill="#11B67A"/>
<path d="M92.5044 31.9343C84.4208 24.5399 72.8869 23.8049 62.8407 29.3709C62.8048 29.3888 62.778 29.3978 62.7421 29.4157C60.2955 30.787 57.9385 32.5258 55.7429 34.6321L34.6825 55.8295C31.035 59.4774 26.1867 61.3865 21.0336 61.2342C15.8805 61.0728 11.1576 58.85 7.72521 54.9601C1.57738 47.9959 1.57738 37.4913 7.72521 30.5361C11.0232 26.8075 15.5579 24.5847 20.4959 24.2889C25.4518 23.9931 30.2016 25.6423 33.8939 28.9227C34.3868 29.3619 34.8528 29.8638 35.3995 30.4733L45.6518 42.0983L47.6682 40.3236L37.4159 28.6897C36.8065 28.0085 36.2867 27.4439 35.6862 26.9061C31.4562 23.1416 26.0074 21.2415 20.3346 21.591C14.6707 21.9316 9.48173 24.4682 5.70879 28.7435C-1.33523 36.7205 -1.33523 48.7578 5.70879 56.7348C9.63409 61.1804 15.0471 63.7259 20.953 63.9141C21.1681 63.9141 21.3831 63.9231 21.5982 63.9231C27.1904 63.9231 32.6213 61.6823 36.5914 57.7207L57.6248 36.5502C59.6681 34.5873 61.8638 32.983 64.1401 31.7192C72.6449 27.6679 78.4164 32.3645 79.4918 33.3594C82.4671 36.0931 85.5769 44.106 84.2416 53.8308C85.2005 53.786 86.1235 53.7411 86.9749 53.7053C87.5754 48.8563 87.1183 44.8051 86.5179 41.9997C85.5321 37.3838 83.6322 33.5118 81.3111 31.3786C80.7286 30.8408 79.0079 29.4067 76.391 28.4208C81.6247 28.4208 86.6433 30.2224 90.6851 33.9151C96.1967 38.9523 98.5895 49.2776 96.6538 59.6029C94.8524 69.2022 87.8711 86.7069 61.5322 97.5789H68.0564C91.0705 86.1601 97.523 69.5249 99.2975 60.0959C101.404 48.8922 98.6702 37.572 92.4955 31.9253L92.5044 31.9343Z" fill="#6CF479"/>
<path d="M40.7138 94.3881C36.681 95.7236 32.8184 96.7723 29.3681 97.5879H39.5399C41.2785 97.0412 43.0529 96.4496 44.8542 95.7953C43.259 95.4547 41.8878 94.9797 40.7138 94.3881Z" fill="#6CF479"/>
<path d="M47.8206 48.3479L44.2358 51.96V78.0243C45.4098 77.3879 46.6287 76.8232 47.8206 76.3213V48.3479Z" fill="#11B67A"/>
<path d="M68.9078 64.2017C69.2215 63.9687 69.5709 63.7805 69.9383 63.646V31.3884C68.7822 31.5049 67.5903 31.7917 66.3536 32.2578V66.1288L68.9078 64.2017Z" fill="#11B67A"/>
<path d="M56.5763 73.7383C56.8093 73.7383 57.0422 73.7473 57.2662 73.7741L57.7323 73.819C57.6337 73.1736 57.8757 72.5193 58.4044 72.116L58.8705 71.7665V37.2143L58.5837 37.5011L55.2857 40.8264V73.8817C55.7069 73.801 56.1371 73.7473 56.5673 73.7473L56.5763 73.7383Z" fill="#11B67A"/>
<path d="M78.3626 54.9539C78.9182 54.3803 79.671 54.0487 80.4686 54.0128C80.6478 54.0128 80.8182 53.9949 80.9884 53.9859V37.8616C80.2087 36.2393 79.3304 35.0472 78.5776 34.3571C78.2012 34.0075 77.807 33.6938 77.4037 33.398V55.9219L78.3626 54.945V54.9539Z" fill="#11B67A"/>
<path d="M22.1178 86.271H25.7026V64.8944C24.5196 65.1185 23.3277 65.2439 22.1178 65.2708V86.28V86.271Z" fill="#11B67A"/>
<path d="M0 86.2713H3.58474V56.2365C1.93576 54.0316 0.734872 51.5937 0 49.0482V86.2713Z" fill="#11B67A"/>
<path d="M36.7616 84.986V59.4326C35.6593 60.4364 34.4494 61.3238 33.1768 62.0767V86.2766H36.2956C36.4121 85.8374 36.5734 85.4072 36.7616 84.986Z" fill="#11B67A"/>
<path d="M11.059 86.2691H14.6438V64.1754C13.407 63.7721 12.2061 63.2701 11.059 62.6607V86.2691Z" fill="#11B67A"/>
</svg>
