<svg width="100" height="100" viewBox="0 0 100 100" fill="none" xmlns="http://www.w3.org/2000/svg">
<g clip-path="url(#clip0_15980_16013)">
<rect width="100" height="100" fill="#F1F1F1"/>
<path d="M44.9839 9.58969C45.3334 9.29392 45.6472 8.96229 45.9698 8.63962C46.7316 7.84192 48.8913 5.97762 52.0548 6.33614C53.3722 6.48851 54.3939 7.08903 55.1019 7.69851C56.8853 4.59733 60.237 2.5 64.0727 2.5C69.7904 2.5 74.4237 7.13384 74.4237 12.8522V13.8471H31.4336C39.0243 13.8471 42.6628 11.5884 44.9749 9.58969H44.9839Z" fill="#6CF479"/>
<path d="M22.1492 59.785C23.368 59.7492 24.5689 59.5878 25.7339 59.301V26.0216C24.5689 25.7348 23.368 25.5734 22.1492 25.5376V59.785ZM11.0903 56.164C12.2015 57.0334 13.4024 57.7594 14.675 58.333V27.0165C13.4024 27.5811 12.2015 28.2982 11.0903 29.1676V56.164ZM34.436 31.2918C34.0237 30.8257 33.5397 30.2969 33.0468 29.8488C32.9841 29.795 32.9124 29.7412 32.8497 29.6874V55.6352C33.1633 55.3663 33.4769 55.0884 33.7816 54.7926L36.4344 52.1217V33.5594L34.436 31.2918Z" fill="black"/>
<path d="M85.1509 66.9825C84.9358 66.14 84.201 65.5395 83.3406 65.4768L71.5557 64.6522C71.493 64.6522 71.4303 64.6522 71.3676 64.6522C70.7851 64.6522 70.2204 64.8404 69.7454 65.1899L59.2511 73.1042C58.9285 73.3462 59.0719 73.8661 59.4752 73.9109L70.9374 75.0851C72.3624 75.2285 73.5364 76.2682 73.868 77.6574L75.6603 85.258C75.7589 85.6882 76.1443 85.9571 76.5386 85.9571C76.7268 85.9571 76.915 85.8944 77.0763 85.7689C80.3653 83.1696 83.7528 79.9071 86.773 75.8738C87.0956 75.4346 87.2032 74.8699 87.0688 74.3501L85.1599 66.9915L85.1509 66.9825ZM94.3726 59.1668L93.7274 56.1463C93.5481 55.3128 92.8223 54.7302 91.9799 54.7302C91.953 54.7302 91.9171 54.7302 91.8903 54.7302C89.6946 54.8377 85.357 55.0529 80.5625 55.259C80.1054 55.2769 79.6752 55.4741 79.3615 55.7968L72.658 62.6355C72.3892 62.9044 72.5685 63.3705 72.9449 63.3974L83.4302 64.1323C84.8731 64.2309 86.0829 65.2437 86.4503 66.642L88.0276 72.7188C88.0814 72.9339 88.2786 73.0594 88.4668 73.0594C88.6102 73.0594 88.7536 72.9967 88.8342 72.8533C91.0389 69.3936 92.9387 65.4499 94.3009 60.9505C94.4802 60.3769 94.4982 59.7584 94.3637 59.1668H94.3726ZM70.794 76.4205L57.1541 75.0223C56.9659 75.0044 56.7867 74.9954 56.5985 74.9954C56.1414 74.9954 55.6933 75.0492 55.2452 75.1657C50.7463 76.3399 39.4095 79.925 37.6082 86.5487C37.6082 86.5487 35.3498 93.8624 48.8912 94.9201C49.8501 94.9918 50.818 95.0366 51.768 95.0366C59.5917 95.0366 67.2361 92.5628 73.7693 88.1799C74.0382 87.4898 74.2354 86.9789 74.4953 86.2887L72.5326 77.9711C72.3354 77.1376 71.6274 76.5191 70.7761 76.4295L70.794 76.4205Z" fill="#6CF479"/>
<path d="M50.3611 77.9683C52.4134 77.2692 55.5322 76.2385 56.4732 76.0592L68.6164 77.2244L63.8936 79.743C63.2483 80.0836 62.5224 80.227 61.7964 80.1463L50.4597 78.8377C49.9847 78.7839 49.913 78.1207 50.3701 77.9683H50.3611Z" fill="black"/>
<path d="M61.662 72.9278L71.0719 65.8919L81.4319 66.5641L72.7926 73.8151L61.662 72.9278Z" fill="black"/>
<path d="M74.8628 62.391L80.3564 56.5651L90.304 56.1797L84.9717 62.9377L74.8628 62.391Z" fill="black"/>
<path d="M94.3727 59.1635L93.7275 56.143C93.6379 55.7127 93.3869 55.3453 93.0643 55.0943L85.3482 64.8998C85.8769 65.339 86.2712 65.9395 86.4505 66.6386L87.6872 71.3979L88.0277 72.7155C88.1263 73.0919 88.6282 73.1815 88.8433 72.8499C91.0479 69.3902 92.9478 65.4465 94.31 60.9471C94.4893 60.3735 94.5071 59.755 94.3727 59.1635ZM85.151 66.9792C85.0256 66.4862 84.7208 66.0829 84.3175 65.814L72.8195 75.9063C73.3303 76.3544 73.7068 76.9639 73.8681 77.6541L75.6693 85.3084C75.8217 85.9448 76.5745 86.2137 77.0943 85.8103C81.2078 82.6554 84.9986 78.389 86.791 76.2558C87.1674 75.8077 87.2929 75.2161 87.1495 74.6604L85.151 66.9881V66.9792ZM72.3535 77.4658C72.3266 77.421 72.3087 77.3672 72.2728 77.3314C72.2011 77.2238 72.1115 77.1252 72.0219 77.0266C71.9502 76.9549 71.8785 76.8832 71.7978 76.8295C69.7456 78.0395 62.2714 82.2162 60.5328 83.2738C60.5328 83.2738 53.1392 87.2175 53.8741 91.3136C54.4029 94.2176 56.8853 94.4954 59.9861 94.119C65.2377 92.9538 70.337 90.6414 74.7911 87.4774C74.8269 87.4506 72.5506 77.9678 72.5506 77.9678C72.5058 77.7885 72.4341 77.6272 72.3535 77.4748V77.4658Z" fill="#11B67A"/>
<path d="M92.5357 31.8464C84.4521 24.452 72.9182 23.717 62.8719 29.283C62.8361 29.3009 62.8092 29.3099 62.7734 29.3278C60.3268 30.6991 57.9698 32.438 55.7741 34.5442L34.7137 55.7416C31.0663 59.3895 26.2179 61.2987 21.0649 61.1463C15.9118 60.9849 11.1889 58.7621 7.75646 54.8722C1.60863 47.908 1.60863 37.4034 7.75646 30.4482C11.0544 26.7196 15.5892 24.4968 20.5272 24.201C25.4831 23.9052 30.2328 25.5544 33.9251 28.8348C34.418 29.274 34.8841 29.776 35.4307 30.3854L45.6831 42.0104L47.6995 40.2357L37.4472 28.6018C36.8378 27.9206 36.3179 27.356 35.7175 26.8182C31.4875 23.0537 26.0387 21.1536 20.3658 21.5032C14.7019 21.8438 9.51298 24.3803 5.74004 28.6556C-1.30398 36.6326 -1.30398 48.6699 5.74004 56.6469C9.66534 61.0925 15.0784 63.638 20.9842 63.8262C21.1993 63.8262 21.4144 63.8352 21.6295 63.8352C27.2217 63.8352 32.6525 61.5944 36.6226 57.6328L57.6561 36.4623C59.6994 34.4994 61.8951 32.8951 64.1714 31.6313C72.6762 27.58 78.4476 32.2766 79.523 33.2715C82.4984 36.0052 85.6082 44.0181 84.2729 53.7429C85.2318 53.6981 86.1548 53.6533 87.0062 53.6174C87.6066 48.7685 87.1496 44.7172 86.5491 41.9118C85.5633 37.2959 83.6634 33.4239 81.3423 31.2907C80.7598 30.7529 79.0391 29.3188 76.4223 28.3329C81.656 28.3329 86.6746 30.1345 90.7164 33.8272C96.2279 38.8644 98.6208 49.1897 96.685 59.515C94.8837 69.1143 87.9023 86.619 61.5634 97.491H68.0877C91.1018 86.0723 97.5543 69.437 99.3287 60.008C101.435 48.8043 98.7014 37.4841 92.5267 31.8374L92.5357 31.8464Z" fill="#11B67A"/>
<path d="M40.7451 94.3002C36.7122 95.6357 32.8497 96.6844 29.3993 97.5H39.5711C41.3097 96.9533 43.0841 96.3617 44.8855 95.7074C43.2902 95.3668 41.9191 94.8918 40.7451 94.3002Z" fill="#6CF479"/>
<path d="M47.8518 48.2601L44.2671 51.8721V77.9364C45.4411 77.3 46.6599 76.7354 47.8518 76.2334V48.2601Z" fill="#00482F"/>
<path d="M68.9391 64.1138C69.2527 63.8808 69.6021 63.6926 69.9696 63.5581V31.3005C68.8135 31.417 67.6216 31.7038 66.3848 32.1699V66.0409L68.9391 64.1138Z" fill="#00482F"/>
<path d="M56.6075 73.6504C56.8405 73.6504 57.0735 73.6594 57.2975 73.6863L57.7635 73.7311C57.665 73.0857 57.9069 72.4315 58.4357 72.0281L58.9017 71.6786V37.1264L58.615 37.4132L55.317 40.7385V73.7938C55.7382 73.7132 56.1684 73.6594 56.5986 73.6594L56.6075 73.6504Z" fill="#00482F"/>
<path d="M78.3938 54.866C78.9494 54.2924 79.7022 53.9608 80.4998 53.9249C80.6791 53.9249 80.8494 53.907 81.0197 53.898V37.7737C80.24 36.1514 79.3617 34.9593 78.6089 34.2692C78.2325 33.9196 77.8382 33.6059 77.4349 33.3101V55.834L78.3938 54.8571V54.866Z" fill="#00482F"/>
<path d="M22.1491 86.1831H25.7338V64.8065C24.5508 65.0306 23.3589 65.1561 22.1491 65.1829V86.1921V86.1831Z" fill="#00482F"/>
<path d="M0.03125 86.1834H3.61599V56.1486C1.96701 53.9437 0.766122 51.5058 0.03125 48.9603V86.1834Z" fill="#00482F"/>
<path d="M36.7928 84.8981V59.3447C35.6905 60.3486 34.4807 61.2359 33.2081 61.9888V86.1887H36.3269C36.4434 85.7496 36.6046 85.3193 36.7928 84.8981Z" fill="#00482F"/>
<path d="M11.0903 86.1812H14.675V64.0875C13.4383 63.6842 12.2374 63.1823 11.0903 62.5728V86.1812Z" fill="#00482F"/>
</g>
<defs>
<clipPath id="clip0_15980_16013">
<rect width="100" height="100" fill="white"/>
</clipPath>
</defs>
</svg>
