<svg width="100" height="100" viewBox="0 0 100 100" fill="none" xmlns="http://www.w3.org/2000/svg">
<g clip-path="url(#clip0_15980_16028)">
<rect width="100" height="100" fill="#F1F1F1"/>
<path fill-rule="evenodd" clip-rule="evenodd" d="M36.8315 43.2842L39.3211 44.7335L48.7127 50.1575C49.2149 50.4445 49.5019 50.9467 49.5019 51.5207V65.2673C49.5019 65.8413 49.2149 66.3435 48.7127 66.6305C48.2105 66.9175 47.6365 66.9175 47.1415 66.6305L35.2602 59.7572C34.758 59.4702 34.471 58.968 34.471 58.394V44.6617C34.471 44.0734 34.758 43.5712 35.2602 43.2842C35.7625 42.9972 36.3364 42.9972 36.8315 43.2842Z" fill="black"/>
<path fill-rule="evenodd" clip-rule="evenodd" d="M36.8314 62.3118L48.7126 69.1851C49.2148 69.4721 49.5018 69.9743 49.5018 70.5483V84.2949C49.5018 84.8689 49.2148 85.3711 48.7126 85.6581C48.2104 85.9451 47.6364 85.9451 47.1414 85.6581L35.2601 78.7848C34.7579 78.4978 34.4709 77.9956 34.4709 77.4216V63.6749C34.4709 63.101 34.7579 62.5987 35.2601 62.3118C35.7624 62.0248 36.3363 62.0248 36.8314 62.3118Z" fill="black"/>
<path fill-rule="evenodd" clip-rule="evenodd" d="M68.1991 59.6639L80.0947 52.805C80.5969 52.5036 81.1709 52.5036 81.666 52.805C82.1682 53.0919 82.4552 53.5798 82.4552 54.1681V67.9148C82.4552 68.4887 82.1682 68.991 81.666 69.278L69.7704 76.1513C69.2682 76.4383 68.6942 76.4383 68.1991 76.1513C67.6969 75.8499 67.4099 75.3621 67.4099 74.7737V61.0271C67.4099 60.4531 67.6969 59.9509 68.1991 59.6639Z" fill="#11B67A"/>
<path fill-rule="evenodd" clip-rule="evenodd" d="M51.7184 69.1851L63.614 62.3118C64.1162 62.0248 64.6902 62.0248 65.1853 62.3118C65.6875 62.5987 65.9745 63.101 65.9745 63.6749V77.4216C65.9745 77.9956 65.6875 78.4978 65.1853 78.7848L53.2897 85.6581C52.7875 85.9451 52.2135 85.9451 51.7184 85.6581C51.2162 85.3711 50.9292 84.8689 50.9292 84.2949V70.5483C50.9292 69.9743 51.2162 69.4721 51.7184 69.1851Z" fill="#11B67A"/>
<path fill-rule="evenodd" clip-rule="evenodd" d="M67.4099 42.4957C67.4099 41.6276 67.8691 40.824 68.6224 40.3935C71.1551 38.9371 77.0168 35.5506 80.0947 33.7785C80.5969 33.4915 81.1709 33.4915 81.666 33.7785C82.1682 34.0655 82.4552 34.5677 82.4552 35.1417V48.8883C82.4552 49.4623 82.1682 49.9645 81.666 50.2515L69.7704 57.1248C69.2682 57.4118 68.6942 57.4118 68.1991 57.1248C67.6969 56.8378 67.4099 56.3356 67.4099 55.7473V42.4957Z" fill="#11B67A"/>
<path fill-rule="evenodd" clip-rule="evenodd" d="M67.9118 39.1664C67.1584 39.6041 66.2329 39.6041 65.4867 39.1664L54.0144 32.537C53.5122 32.2501 53.2252 31.7622 53.2252 31.1739C53.2252 30.5999 53.5122 30.0977 54.0144 29.8107L65.91 22.9373C66.4122 22.6504 66.9862 22.6504 67.4813 22.9373L79.3768 29.8107C79.8791 30.0977 80.1661 30.5999 80.1661 31.1739C80.1661 31.7478 79.8791 32.2501 79.3768 32.537L67.9046 39.1664H67.9118Z" fill="#6CF479"/>
<path fill-rule="evenodd" clip-rule="evenodd" d="M58.0539 28.7341L66.0465 24.3719C66.5487 24.0849 67.1227 24.0849 67.6177 24.3719L75.517 28.5619C76.0193 28.8489 71.1979 26.5243 67.0581 26.4095C63.191 26.3091 57.5517 29.0211 58.0539 28.7341Z" fill="white"/>
<path fill-rule="evenodd" clip-rule="evenodd" d="M51.7184 50.1575L63.614 43.2842C64.1162 42.9972 64.6901 42.9972 65.1852 43.2842C65.6874 43.5712 65.9744 44.0734 65.9744 44.6617V58.394C65.9744 58.968 65.6874 59.4702 65.1852 59.7572L53.2896 66.6305C52.7874 66.9175 52.2134 66.9175 51.7184 66.6305C51.2233 66.3435 50.9292 65.8413 50.9292 65.2673V51.5207C50.9292 50.9467 51.2161 50.4445 51.7184 50.1575Z" fill="#11B67A"/>
<path fill-rule="evenodd" clip-rule="evenodd" d="M37.5345 39.3242L49.4301 32.4509C49.9323 32.1639 50.5063 32.1639 51.0013 32.4509L62.8969 39.3242C63.3991 39.6112 63.6861 40.1134 63.6861 40.7017C63.6861 41.2757 63.3991 41.7779 62.8969 42.0649L51.0013 48.9382C50.4991 49.2252 49.9251 49.2252 49.4301 48.9382L37.5345 42.0649C37.0323 41.7779 36.7453 41.2757 36.7453 40.7017C36.7453 40.1278 37.0323 39.6112 37.5345 39.3242Z" fill="#6CF479"/>
<path fill-rule="evenodd" clip-rule="evenodd" d="M23.0128 60.7979L32.9927 65.7914V66.6954C32.9927 66.6954 32.9927 66.9537 32.9927 70.2469V80.5712L29.0395 78.5838C28.4368 78.2825 27.9202 77.7516 27.6619 77.1202L21.3769 62.2902C21.1043 61.6732 21.1617 61.1279 21.5061 60.8122C21.8505 60.4965 22.4101 60.4822 23.0128 60.7979Z" fill="black"/>
<path fill-rule="evenodd" clip-rule="evenodd" d="M31.0054 49.0889L33 53.8887V64.2704L21.1044 58.1863C20.5017 57.8706 19.9995 57.3397 19.7412 56.7084L13.5566 41.8353C13.2984 41.2039 13.3557 40.673 13.7001 40.3573C14.0589 40.0416 14.6041 40.0416 15.2212 40.343L29.8718 47.8548C30.3812 48.1203 30.783 48.5508 31.0054 49.0817V49.0889Z" fill="black"/>
<path fill-rule="evenodd" clip-rule="evenodd" d="M29.0968 44.1455C28.3578 44.741 27.339 44.8414 26.4924 44.4181L16.699 39.5035L15.5367 38.9152C15.0488 38.6712 14.7618 38.1833 14.7475 37.552C14.7331 36.9206 15.0058 36.3466 15.4793 35.9807L26.7579 26.9622C27.2314 26.5891 27.7767 26.503 28.2645 26.7469L39.8444 32.5584C40.3323 32.8024 40.6193 33.3046 40.6336 33.9216C40.648 34.553 40.3897 35.1269 39.9018 35.4928L29.0896 44.1383L29.0968 44.1455Z" fill="#6CF479"/>
<path fill-rule="evenodd" clip-rule="evenodd" d="M44.4649 31.6473C43.7259 32.2428 42.7142 32.3504 41.8676 31.9343L32.0527 27.0699L30.8904 26.4815C30.3882 26.252 30.1012 25.7497 30.0868 25.1184C30.0725 24.5013 30.3308 23.9274 30.8043 23.5471L42.0398 14.4855C42.5277 14.0981 43.073 14.0263 43.5608 14.2703L55.1694 20.0244C55.6573 20.2683 55.9443 20.7562 55.9587 21.3875C55.973 22.0046 55.7147 22.5929 55.2412 22.9588L44.4649 31.6473Z" fill="#6CF479"/>
<path fill-rule="evenodd" clip-rule="evenodd" d="M34.9799 21.8035L42.1689 16.0063C42.6567 15.6189 43.202 15.5472 43.6899 15.7911L51.0654 19.443C51.5533 19.6869 47.8368 18.0511 42.7213 18.4672C39.3994 18.7399 34.5135 22.1837 34.987 21.8035H34.9799Z" fill="white"/>
<path fill-rule="evenodd" clip-rule="evenodd" d="M19.9278 34.402L27.1168 28.6048C27.6047 28.2174 28.15 28.1457 28.6378 28.3896L36.0134 32.0415C36.5013 32.2854 32.7848 30.6496 27.6693 31.0658C24.3474 31.3384 19.4614 34.7822 19.935 34.402H19.9278Z" fill="white"/>
<path fill-rule="evenodd" clip-rule="evenodd" d="M41.48 38.1902L49.4726 33.8281C49.9748 33.5411 50.5488 33.5411 51.0438 33.8281L58.9431 38.0181C59.4454 38.305 54.624 35.9805 50.4842 35.8657C46.6171 35.7652 40.9778 38.4772 41.48 38.1902Z" fill="white"/>
<path fill-rule="evenodd" clip-rule="evenodd" d="M65.3287 45.8247L65.0345 57.3759C65.0345 58.1077 64.6686 58.7391 64.0301 59.105L54.4017 65.1174C53.7703 65.4833 59.3881 61.6735 62.1432 57.1965C64.7189 53.0137 65.3287 45.0929 65.3215 45.8247H65.3287Z" fill="#006A4D"/>
<path fill-rule="evenodd" clip-rule="evenodd" d="M64.8629 64.514L64.5687 76.0652C64.5687 76.797 64.2028 77.4284 63.5642 77.7943L53.9359 83.8067C53.3045 84.1726 58.9222 80.3628 61.6773 75.8859C64.253 71.703 64.8629 63.7822 64.8557 64.514H64.8629Z" fill="#006A4D"/>
<path fill-rule="evenodd" clip-rule="evenodd" d="M81.314 54.8358L81.0199 66.387C81.0199 67.1188 80.654 67.7502 80.0154 68.1161L70.387 74.1285C69.7557 74.4944 75.3734 70.6846 78.1285 66.2076C80.7042 62.0248 81.314 54.104 81.3069 54.8358H81.314Z" fill="#006A4D"/>
<path fill-rule="evenodd" clip-rule="evenodd" d="M81.3139 36.1456L81.0198 47.6968C81.0198 48.4286 80.6539 49.06 80.0153 49.4259L70.3869 55.4382C69.7556 55.8041 75.3733 51.9944 78.1284 47.5174C80.7041 43.3346 81.3139 35.4138 81.3068 36.1456H81.3139Z" fill="#006A4D"/>
<path d="M97.4361 66.3582C98.2468 71.1007 94.1429 74.9678 88.1019 75.4126C87.1692 78.139 84.1558 80.1336 80.1667 80.6645C83.0437 81.0304 86.2221 80.8438 89.3646 80.0977C97.3069 78.2179 101.913 70.8639 99.2943 65.2031C98.0603 62.5413 95.4918 60.5898 92.2632 59.5208C95.0111 61.2212 96.9697 63.6534 97.4289 66.3511L97.4361 66.3582Z" fill="#006A4D"/>
<path d="M2.62974 36.311C1.81901 31.5685 5.92291 27.7014 11.964 27.2566C12.8967 24.5302 15.91 22.5356 19.8991 22.0047C17.0221 21.6388 13.8437 21.8254 10.7012 22.5715C2.75171 24.4441 -1.85442 31.7981 0.771506 37.4589C2.00555 40.1207 4.57407 42.0722 7.80267 43.1412C5.05478 41.4409 3.09609 39.0086 2.63692 36.311H2.62974Z" fill="#006A4D"/>
</g>
<defs>
<clipPath id="clip0_15980_16028">
<rect width="100" height="100" fill="white"/>
</clipPath>
</defs>
</svg>
