<svg width="100" height="100" viewBox="0 0 100 100" fill="none" xmlns="http://www.w3.org/2000/svg">
<g clip-path="url(#clip0_15980_16056)">
<rect width="100" height="100" fill="#F1F1F1"/>
<path d="M96.6628 67.7582L74.2292 16.7255L67.3775 13.4596L11.8016 24.37L7.41832 22.452L6.23856 25.7632C5.93908 26.5955 5.96631 27.5092 6.32931 28.3234C10.8759 38.7 27.4108 76.434 31.3584 85.4265C31.8576 86.5574 33.0736 87.1816 34.2897 86.9373L96.6538 74.3352C97.5522 74.1543 98.2873 73.5209 98.6049 72.6615L99.821 69.3143L96.6628 67.7491V67.7582Z" fill="black"/>
<path d="M76.7794 17.9403L62.958 11.3453C62.2774 11.0196 61.506 10.9201 60.7618 11.0648L8.73428 21.2786C7.63619 21.4957 7.01908 22.6628 7.46376 23.685C11.5385 33.0032 28.7449 72.2571 32.7833 81.4486C33.2824 82.5794 34.4985 83.2036 35.7145 82.9594L98.6231 70.2577C99.7212 70.0406 100.329 68.8645 99.8846 67.8423L78.9029 20.1116C78.4855 19.1526 77.7323 18.3746 76.7794 17.9223V17.9403Z" fill="#11B67A"/>
<path d="M30.0879 54.3829L42.1033 81.7222L92.2432 71.5989L80.2096 44.2144C79.7105 43.0835 78.4945 42.4502 77.2784 42.6945L31.3493 51.9674C30.2512 52.1846 29.6432 53.3606 30.0879 54.3829Z" fill="#00482F"/>
<path d="M84.0395 19.5944C84.0395 19.5944 85.3009 23.765 90.4193 24.9139C90.4193 24.9139 86.5442 25.5834 86.4626 30.2244C86.4626 30.2244 85.1013 26.1986 80.1917 24.9139C80.1917 24.9139 84.2936 24.4254 84.0395 19.5944Z" fill="#006A4D"/>
<path d="M7.3367 40.6352C7.3367 40.6352 9.73253 48.5601 19.461 50.7495C19.461 50.7495 12.0921 52.016 11.9469 60.8366C11.9469 60.8366 9.35138 53.1921 0.03125 50.7404C0.03125 50.7404 7.81768 49.8176 7.3367 40.6352Z" fill="#006A4D"/>
<path d="M54.3366 34.7311L67.55 32.0624C68.6481 31.8452 69.2561 30.6691 68.8114 29.6468L60.6529 11.0919L43.1924 14.5207L51.4054 33.2113C51.9045 34.3421 53.1206 34.9754 54.3366 34.7311Z" fill="#6CF479"/>
<path d="M68.4211 78.3701C68.4211 78.3701 69.6825 82.5406 74.8009 83.6895C74.8009 83.6895 70.9258 84.359 70.8441 89C70.8441 89 69.4829 84.9741 64.5732 83.6895C64.5732 83.6895 68.6752 83.201 68.4211 78.3701Z" fill="#006A4D"/>
<path d="M50.5705 34.5258L30.6235 38.5878C30.5146 38.6059 30.4057 38.624 30.2968 38.624C29.6434 38.624 29.0535 38.235 28.7903 37.6379L20.5864 18.9654L19.5972 19.1554L27.8919 38.0269C28.3184 38.9949 29.2713 39.601 30.2968 39.601C30.4692 39.601 30.6416 39.5829 30.8231 39.5468L51.4054 35.3581C50.988 35.0505 50.7157 34.7339 50.5796 34.5258H50.5705Z" fill="#6CF479"/>
<path d="M66.2703 28.5722L59.4549 13.3465L49.4179 15.2101C49.4179 15.2101 55.4074 15.1558 55.6162 20.3487C55.6162 20.3487 61.642 19.842 66.2703 28.5722Z" fill="white"/>
</g>
<defs>
<clipPath id="clip0_15980_16056">
<rect width="100" height="100" fill="white"/>
</clipPath>
</defs>
</svg>
