<svg width="100" height="100" viewBox="0 0 100 100" fill="none" xmlns="http://www.w3.org/2000/svg">
<path d="M96.6316 67.8461L74.198 16.8133L67.3463 13.5475L11.7703 24.4579L7.38707 22.5399L6.20731 25.851C5.90783 26.6833 5.93506 27.5971 6.29806 28.4113C10.8447 38.7879 27.3795 76.5219 31.3272 85.5144C31.8263 86.6453 33.0424 87.2695 34.2584 87.0252L96.6225 74.4231C97.521 74.2421 98.256 73.6088 98.5737 72.7494L99.7897 69.4021L96.6316 67.837V67.8461Z" fill="#024731"/>
<path d="M76.7481 18.0282L62.9267 11.4331C62.2461 11.1075 61.4747 11.008 60.7306 11.1527L8.70303 21.3665C7.60494 21.5836 6.98783 22.7507 7.43251 23.7729C11.5072 33.0911 28.7136 72.3449 32.752 81.5365C33.2512 82.6673 34.4672 83.2915 35.6833 83.0472L98.5919 70.3456C99.69 70.1285 100.298 68.9524 99.8533 67.9302L78.8717 20.1995C78.4542 19.2405 77.701 18.4625 76.7481 18.0102V18.0282Z" fill="#11B67A"/>
<path d="M30.0566 54.4708L42.0721 81.8101L92.212 71.6867L80.1784 44.3022C79.6793 43.1714 78.4632 42.5381 77.2471 42.7824L31.3181 52.0553C30.22 52.2724 29.6119 53.4485 30.0566 54.4708Z" fill="#00482F"/>
<path d="M84.0083 19.6823C84.0083 19.6823 85.2697 23.8529 90.3881 25.0018C90.3881 25.0018 86.513 25.6713 86.4313 30.3122C86.4313 30.3122 85.07 26.2864 80.1604 25.0018C80.1604 25.0018 84.2624 24.5133 84.0083 19.6823Z" fill="white"/>
<path d="M7.30545 40.7231C7.30545 40.7231 9.70128 48.648 19.4298 50.8374C19.4298 50.8374 12.0608 52.1039 11.9156 60.9245C11.9156 60.9245 9.32013 53.28 0 50.8283C0 50.8283 7.78643 49.9055 7.30545 40.7231Z" fill="white"/>
<path d="M54.3054 34.819L67.5187 32.1503C68.6168 31.9331 69.2249 30.757 68.7802 29.7347L60.6217 11.1798L43.1612 14.6086L51.3741 33.2992C51.8733 34.43 53.0893 35.0633 54.3054 34.819Z" fill="#6CF479"/>
<path d="M68.3901 78.458C68.3901 78.458 69.6515 82.6285 74.7698 83.7774C74.7698 83.7774 70.8948 84.4469 70.8131 89.0879C70.8131 89.0879 69.4518 85.062 64.5422 83.7774C64.5422 83.7774 68.6442 83.2889 68.3901 78.458Z" fill="white"/>
<path d="M50.5393 34.6137L30.5922 38.6757C30.4833 38.6938 30.3744 38.7119 30.2655 38.7119C29.6121 38.7119 29.0222 38.3229 28.759 37.7258L20.5552 19.0533L19.566 19.2433L27.8606 38.1148C28.2871 39.0828 29.24 39.6889 30.2655 39.6889C30.4379 39.6889 30.6104 39.6708 30.7919 39.6346L51.3742 35.446C50.9567 35.1384 50.6845 34.8218 50.5484 34.6137H50.5393Z" fill="#6CF479"/>
<path d="M66.2391 28.66L59.4237 13.4344L49.3866 15.298C49.3866 15.298 55.3762 15.2437 55.5849 20.4366C55.5849 20.4366 61.6108 19.9299 66.2391 28.66Z" fill="white"/>
</svg>
