<svg width="100" height="100" viewBox="0 0 100 100" fill="none" xmlns="http://www.w3.org/2000/svg">
<g clip-path="url(#clip0_15980_16070)">
<rect width="100" height="100" fill="#F1F1F1"/>
<path d="M84.7134 15.0752L26.5411 4.77186L4.94163 72.7206L0.887192 73.8002L2.85739 77.029C3.30327 77.8002 4.08097 78.3452 4.96237 78.4995L71.7724 90.335C72.7783 90.5098 73.7633 89.9236 74.0744 88.957L92.0446 32.4223C92.3557 31.4351 92.2727 30.3657 91.8165 29.43L84.7238 15.0752H84.7134Z" fill="black"/>
<path d="M80.2855 9.76124L34.6809 1.67899L26.7483 26.6353C26.3439 27.8898 27.1527 29.2163 28.4592 29.4425L68.734 36.5788C70.3723 36.8667 71.9692 35.9104 72.467 34.3371L80.2751 9.75101L80.2855 9.76124Z" fill="#11B67A"/>
<path d="M80.7315 9.84048L25.39 0.0307232C24.3841 -0.144084 23.399 0.442 23.088 1.40858L0.627844 72.0822C0.254545 73.2442 1.00114 74.4575 2.21436 74.6735L69.5325 86.6015C70.5383 86.7763 71.5234 86.1902 71.8345 85.2236L89.9602 28.185C90.2713 27.1979 90.1883 26.1284 89.7321 25.1927L82.9401 11.4755C82.515 10.6117 81.6958 10.005 80.7418 9.83019L80.7315 9.84048Z" fill="#11B67A"/>
<path d="M19.9564 43.4479L9.61814 75.9826L61.4237 85.1652L71.8864 52.25C72.2908 50.9954 71.482 49.669 70.1754 49.4428L23.6894 41.2062C22.0511 40.9183 20.4542 41.8746 19.9564 43.4479Z" fill="#00482F"/>
<path d="M52.9311 33.7828L68.7445 36.5797C70.3828 36.8676 71.9797 35.9113 72.4774 34.3381L80.2856 9.75196L59.1424 6.00901L51.2098 30.9653C50.8054 32.2198 51.6142 33.5463 52.9207 33.7725L52.9311 33.7828Z" fill="#6CF479"/>
<path d="M5.63622 2.34576C5.63622 2.34576 7.07757 7.08613 12.9259 8.39205C12.9259 8.39205 8.49817 9.15297 8.40485 14.428C8.40485 14.428 6.84943 9.8522 1.23959 8.39205C1.23959 8.39205 5.92656 7.83677 5.63622 2.34576Z" fill="#006A4D"/>
<path d="M29.2993 87.9177C29.2993 87.9177 30.7406 92.6581 36.5889 93.964C36.5889 93.964 32.1612 94.7249 32.0679 100C32.0679 100 30.5125 95.4242 24.9026 93.964C24.9026 93.964 29.5896 93.4087 29.2993 87.9177Z" fill="#006A4D"/>
<path d="M85.6777 36.4396C85.6777 36.4396 88.4153 45.4473 99.5313 47.9358C99.5313 47.9358 91.1113 49.3754 90.9454 59.4011C90.9454 59.4011 87.9797 50.7121 77.3304 47.9255C77.3304 47.9255 86.2273 46.8767 85.6777 36.4396Z" fill="#006A4D"/>
<path d="M49.9239 33.2575C49.7373 32.8667 49.644 32.4657 49.6025 32.0955L28.9259 28.4553C28.9259 28.4553 28.9052 28.4553 28.8948 28.4553C28.2104 28.3217 27.806 27.6019 28.0134 26.9335L35.946 1.91547L34.6913 1.67899L26.7587 26.6353C26.3958 27.7664 26.935 28.8667 28.1067 29.3397C28.283 29.4323 28.7393 29.5351 28.7393 29.5351L49.9239 33.2575Z" fill="#6CF479"/>
<path d="M77.3096 11.2297L70.642 32.1141C70.642 32.1141 73.3692 22.3866 68.6304 17.6771C68.6304 17.6771 72.3322 11.9084 64.8144 8.95727L77.3199 11.2297H77.3096Z" fill="#006A4D"/>
</g>
<defs>
<clipPath id="clip0_15980_16070">
<rect width="100" height="100" fill="white"/>
</clipPath>
</defs>
</svg>
