<svg width="100" height="100" viewBox="0 0 100 100" fill="none" xmlns="http://www.w3.org/2000/svg">
<rect width="100" height="100" fill="#F1F1F1"/>
<path d="M94.1647 13.635C90.5207 14.6252 86.7778 15.3382 82.8269 15.3382C69.6077 15.3382 57.8541 9.34748 49.675 0V99.9903C84.5993 85.1175 94.3528 53.2925 94.3528 16.8037C94.3528 15.7244 94.1944 14.6946 94.1647 13.6252V13.635Z" fill="#6CF479"/>
<path d="M16.5259 15.338C12.575 15.338 8.83207 14.625 5.18814 13.6348C5.15843 14.7042 5 15.734 5 16.8134C5 53.3022 14.7535 85.1173 49.6778 100V0.00966992C41.4987 9.35715 29.7451 15.3478 16.5259 15.3478V15.338Z" fill="#11B67A"/>
<path d="M49.675 25.1012V45.3309L77.6184 67.7689C80.1137 63.2437 82.1535 58.2431 83.7577 52.7475L49.675 25.1012Z" fill="#11B67A"/>
<path d="M73.563 29.0128C73.563 29.0128 80.8805 31.7161 85.3067 24.5074C85.3067 24.5074 85.6929 44.6877 73.1768 65.7592C73.1768 65.7592 82.0391 44.6778 73.563 29.0029V29.0128Z" fill="white"/>
<path d="M12.4147 81.1074C12.4147 81.1074 14.3357 87.4744 22.1286 89.2369C22.1286 89.2369 16.227 90.2568 16.1081 97.3466C16.1081 97.3466 14.0288 91.2074 6.56266 89.2369C6.56266 89.2369 12.8009 88.4943 12.4147 81.1173V81.1074Z" fill="#6CF479"/>
<path d="M82.8284 19.7036C70.5896 19.7036 58.7567 14.9407 49.6766 6.49432C40.5965 14.9407 28.7735 19.7036 16.5247 19.7036C14.3067 19.7036 12.0589 19.5154 9.6725 19.1194C10.1478 58.6481 22.9016 82.9179 49.6667 95.1667C76.4318 82.908 89.1954 58.6481 89.6608 19.1194C87.2745 19.5154 85.0267 19.7036 82.8087 19.7036H82.8284ZM49.6766 93.5328C37.309 87.7303 28.0606 79.2641 21.7332 67.7777L49.6766 45.3398V25.1101L15.5939 52.7564C12.9105 43.5377 11.4549 32.9425 11.1974 20.8423C13.0194 21.0799 14.7721 21.1889 16.5346 21.1889C28.6844 21.1889 40.4083 16.6934 49.6865 8.49451C58.9647 16.6934 70.6787 21.1889 82.8384 21.1889C84.591 21.1889 86.3536 21.07 88.1755 20.8423C87.3636 58.4699 75.1148 81.6108 49.6964 93.5328H49.6766Z" fill="black"/>
<path d="M22.197 56.6889C22.197 56.6889 26.5638 73.2649 42.9912 84.7908C42.9912 84.7908 31.1781 65.571 22.197 56.6889Z" fill="white"/>
</svg>
