<svg width="100" height="100" viewBox="0 0 100 100" fill="none" xmlns="http://www.w3.org/2000/svg">
<g clip-path="url(#clip0_15980_16114)">
<path d="M56.3752 77.7034C56.3752 77.5498 56.3343 77.4577 56.1705 77.4065C55.976 77.3451 55.7815 77.2428 55.587 77.1507C54.3382 76.5365 53.2838 75.6767 52.4137 74.5918C51.7381 73.7422 51.2365 72.8108 50.9499 71.7565C50.7964 71.1936 50.735 70.6102 50.7759 70.0268C50.7861 69.8425 50.8066 69.6583 50.868 69.4843C50.8783 69.2693 50.9602 69.0646 51.0421 68.8599C51.4003 67.949 52.0452 67.3144 52.9358 66.9254C52.9972 66.8947 53.1405 66.8538 53.1507 66.8435C53.1712 66.7821 53.1303 66.7412 53.0996 66.69C52.7822 66.0759 52.4342 65.4822 52.0759 64.8885C50.9602 63.0666 49.6909 61.3471 48.268 59.7401C48.1861 59.648 48.1042 59.5661 48.0326 59.474C48.0019 59.433 47.9711 59.4126 47.9302 59.4126C47.9097 59.4126 47.8893 59.4126 47.8585 59.433C47.7869 59.4637 47.7152 59.4944 47.6436 59.5252C47.1011 59.7299 46.5483 59.8117 45.9955 59.8117C45.6475 59.8117 45.2995 59.781 44.9514 59.7196C44.2042 59.5968 43.4979 59.3512 42.8223 59.0031C41.8396 58.5118 40.9695 57.8568 40.212 57.0482C39.4238 56.2089 38.8096 55.2672 38.4309 54.1822C38.134 53.3634 38.0112 52.5138 38.134 51.6438C38.1442 51.5415 38.1238 51.4801 38.0214 51.4187C37.4686 51.1116 36.9159 50.825 36.3529 50.5384C34.6946 49.7093 32.9749 49.0235 31.1937 48.4811C30.815 48.3685 30.426 48.2457 30.037 48.1638C30.0268 48.1638 30.0166 48.1638 30.0063 48.1638C29.9859 48.1638 29.9654 48.1638 29.9449 48.1331H29.9244C29.9142 48.1331 29.904 48.1331 29.8937 48.1433C29.8937 48.4606 29.8323 48.7779 29.7197 49.0747C29.5662 49.4841 29.3921 49.8936 29.0953 50.2313C28.8291 50.5282 28.5528 50.8045 28.1945 50.9888C27.9079 51.1423 27.6213 51.2856 27.3142 51.3777C27.222 51.4084 27.0071 51.4596 26.9764 51.4698C26.6079 51.5415 26.2496 51.5722 25.8811 51.5722C25.4819 51.5722 25.0826 51.5312 24.6834 51.4494C23.6495 51.2446 22.6976 50.825 21.8172 50.2416C20.7936 49.566 19.9337 48.737 19.2377 47.7236C19.1763 47.6315 19.1558 47.6008 19.0944 47.6008C19.0637 47.6008 19.0227 47.6008 18.9715 47.6213C18.1833 47.7748 17.4054 47.9795 16.6479 48.2354C15.4912 48.6244 14.3959 49.1361 13.3518 49.781C13.1163 49.9243 12.8809 50.0676 12.6659 50.2416C12.6659 50.3132 12.7273 50.3439 12.758 50.3951C12.9218 50.6817 13.1266 50.9478 13.2801 51.2446C13.3927 51.4698 13.4848 51.7052 13.5974 51.9202C13.7203 52.1556 13.7919 52.4013 13.8636 52.6571C13.8738 52.7186 13.9352 52.7595 13.925 52.8311C13.9967 53.0051 14.0171 53.1996 14.0478 53.3839C14.1297 53.8035 14.1093 54.2334 14.1093 54.6531C14.1093 54.8578 14.0683 55.0727 14.0069 55.2672C13.8533 55.8301 13.6179 56.3419 13.2289 56.782C12.8297 57.2426 12.3281 57.5497 11.7651 57.7749C11.4683 57.8875 11.1612 57.9591 10.8439 58.0103C10.7005 58.0308 10.5572 58.0512 10.4139 58.0512C10.3934 58.0512 10.373 58.0512 10.3525 58.0512C10.2911 58.0512 10.2297 58.0512 10.1683 58.0512C10.0659 58.0512 9.96352 58.0512 9.85092 58.0512C9.69738 58.0512 9.54383 58.0512 9.39029 58.0205C9.25721 57.9796 9.12414 57.9898 8.99107 57.9591C8.73516 57.9182 8.48949 57.8568 8.24381 57.7851C7.92649 57.7032 7.62963 57.5702 7.33278 57.4678C7.3123 57.4678 7.29183 57.4678 7.2816 57.4371C7.2816 57.4371 7.26112 57.4371 7.25089 57.4371C7.24065 57.4371 7.23041 57.4371 7.22018 57.4473C7.15876 57.6316 7.10758 57.8056 7.04616 57.9898C6.87214 58.5118 6.7493 59.0441 6.6367 59.5763C6.55481 59.9346 6.50363 60.3031 6.45245 60.6613C6.42174 60.8762 6.40127 61.1014 6.3808 61.3164C6.36032 61.562 6.33985 61.8179 6.31938 62.0635C6.27843 62.4013 6.30914 62.7391 6.29891 63.0769C6.29891 63.2918 6.29891 63.4965 6.29891 63.7115C6.29891 64.0083 6.2989 64.2949 6.32961 64.5917C7.11781 64.8783 7.8446 65.2877 8.5202 65.779C8.95012 66.0963 9.36981 66.4546 9.73832 66.8435C10.0045 67.1301 10.2706 67.4167 10.4856 67.7442C10.5368 67.7647 10.5572 67.8159 10.5879 67.8568C10.8131 68.1844 11.0281 68.5221 11.2124 68.8804C11.458 69.3717 11.6525 69.8835 11.7754 70.4157C11.7754 70.4566 11.8368 70.6511 11.847 70.7023C11.8777 70.8456 11.8982 70.9889 11.8982 71.122C11.8982 71.3471 11.9596 71.5621 11.9391 71.777C11.8982 72.1557 11.8777 72.5242 11.7651 72.8927C11.6525 73.2612 11.499 73.6092 11.284 73.9162C11.0793 74.2131 10.8234 74.4792 10.5368 74.7044C10.2604 74.9091 9.96352 75.0626 9.6462 75.1957C9.59501 75.2161 9.51312 75.2059 9.50289 75.2878C9.60525 75.472 9.70761 75.6563 9.80998 75.8405C9.95329 76.1169 10.1068 76.383 10.2706 76.6491C10.3627 76.8027 10.4344 76.9766 10.5265 77.1404C10.6494 77.3451 10.7927 77.5396 10.9257 77.7443C11.1305 78.0718 11.3454 78.4096 11.5706 78.7167C11.6116 78.7781 11.6525 78.8395 11.673 78.9009C11.7242 79.0135 11.8163 79.0954 11.888 79.1977C12.021 79.3922 12.1439 79.5867 12.2872 79.7812C12.3691 79.8938 12.451 79.9961 12.5329 80.1087C12.7478 80.3544 12.9321 80.6205 13.1266 80.8661C13.2801 81.0504 13.4234 81.2346 13.577 81.4291C13.6896 81.5724 13.8022 81.7054 13.9148 81.8487C14.0274 82.0125 14.1911 82.1353 14.314 82.2889C14.4368 82.4424 14.5699 82.5857 14.6927 82.729C14.7746 82.729 14.836 82.6778 14.9077 82.6471C15.3683 82.4629 15.8392 82.3503 16.3305 82.3298C16.4227 82.3298 16.5046 82.3093 16.5967 82.3093C16.6274 82.3093 16.6683 82.3093 16.6991 82.3093C16.7605 82.3093 16.8219 82.2991 16.8833 82.2991C17.0369 82.2991 17.1904 82.3196 17.3439 82.34C17.9069 82.4015 18.4495 82.5243 18.9715 82.7188C19.8621 83.0361 20.681 83.4967 21.4283 84.0903C21.9298 84.4793 22.3905 84.9091 22.7897 85.4004C22.9432 85.5949 23.107 85.7792 23.2401 85.9839C23.3322 86.0555 23.3834 86.1681 23.4448 86.2705C23.8236 86.8436 24.1307 87.4578 24.3354 88.1129C24.3968 88.2971 24.5196 88.7884 24.5299 88.8498C24.6322 89.3309 24.6322 89.8222 24.622 90.3032C24.622 90.4261 24.5811 90.5591 24.5913 90.682C24.9598 90.8969 25.3385 91.1016 25.7173 91.2961C26.3724 91.6339 27.0378 91.9614 27.7236 92.2582C28.5937 92.6472 29.4843 92.9952 30.3953 93.3022C31.1119 93.5479 32.7394 94.0494 32.852 94.0494C32.9135 93.9061 32.9135 93.7526 32.9442 93.5991C33.1489 92.4936 33.7119 91.6441 34.6946 91.0811C35.1552 90.815 35.667 90.6717 36.1891 90.5898C36.3529 90.5591 36.6293 90.5387 36.8954 90.5387C37.1308 90.5387 37.3663 90.5489 37.4891 90.5694C38.0419 90.6205 38.5742 90.7434 39.0962 90.9276C40.0277 91.2551 40.8671 91.7362 41.6348 92.3401C42.0238 92.6472 42.3923 92.9747 42.7199 93.3432C42.9246 93.5684 43.549 94.377 43.6412 94.5203C43.8357 94.5203 45.5451 94.0699 46.231 93.8345C46.6814 93.6809 47.1215 93.4967 47.5617 93.3022C48.3601 92.944 50.0082 91.9307 50.0287 91.9204C50.131 91.8488 50.131 91.8488 50.0696 91.7567C50.0491 91.726 50.0184 91.685 49.9979 91.6543C49.5987 91.0914 49.2712 90.4875 49.0255 89.8427C49.005 89.8017 48.9948 89.7608 48.9845 89.7096C48.9538 89.6277 48.9334 89.5561 48.9027 89.4639C48.8003 89.1159 48.7082 88.7679 48.6877 88.3994C48.6263 88.0514 48.6365 87.7034 48.657 87.3554C48.6775 87.1098 48.7184 86.8744 48.7901 86.6492C49.1176 85.5028 49.8444 84.7044 50.9602 84.2643C51.431 84.0801 51.9224 83.9777 52.4342 83.9777C52.4547 83.9777 52.4854 83.9777 52.5059 83.9777C52.5877 83.9777 52.6696 83.9777 52.7413 83.9777C53.2429 83.9777 53.7342 84.0596 54.2256 84.1824C54.5941 84.2746 54.9421 84.3974 55.2901 84.5407C55.3516 84.5611 55.4027 84.5918 55.4642 84.6021C55.5153 84.5714 55.5153 84.51 55.5256 84.469C55.6894 83.9982 55.8224 83.5171 55.935 83.0258C56.2524 81.644 56.3957 80.2315 56.3957 78.819C56.3957 78.4301 56.365 78.0514 56.365 77.6624L56.3752 77.7034ZM44.0097 75.1854C43.9994 75.4516 43.9892 75.7279 43.9585 75.994C43.9278 76.2806 43.8868 76.5672 43.8357 76.8538C43.8049 77.0278 43.764 77.2018 43.7026 77.3758C43.6412 77.5703 43.6002 77.775 43.5286 77.9695C43.3443 78.4915 43.1089 78.993 42.812 79.4639C42.5766 79.8323 42.3207 80.1804 42.0238 80.5079C41.5222 81.0606 40.949 81.5212 40.3041 81.8897C39.9254 82.1046 39.5364 82.2889 39.1372 82.4526C39.0962 82.4731 38.9427 82.5345 38.9222 82.5345C38.5844 82.6369 38.2568 82.7495 37.919 82.8211C37.1206 83.0053 36.3222 83.0872 35.5033 83.0872C35.319 83.0872 35.1347 83.0872 34.9505 83.077C33.3127 83.0053 31.7465 82.6266 30.2213 82.033C28.5016 81.3574 26.9252 80.426 25.4819 79.2899C23.885 78.0411 22.5031 76.5877 21.3668 74.8988C20.3637 73.4249 19.5959 71.8384 19.1353 70.1086C18.818 68.9316 18.6747 67.7238 18.7463 66.5057C18.7668 66.1066 18.818 65.7176 18.8999 65.3287C18.9101 65.2775 18.9613 65.0625 18.9715 65.0114C19.0841 64.5405 19.2274 64.0799 19.4219 63.6398C19.7495 62.9131 20.1692 62.2478 20.7015 61.6541C21.3464 60.9376 22.1039 60.3747 22.9739 59.955C23.7621 59.5661 24.6015 59.3204 25.4716 59.1771C25.6763 59.1464 25.8811 59.1157 26.0858 59.0953C26.4748 59.0543 26.8535 59.0236 27.2425 59.0236C27.3551 59.0236 27.4779 59.0236 27.5905 59.0236C28.3276 59.0543 29.0543 59.1362 29.7811 59.2795C30.815 59.4842 31.8284 59.7913 32.8009 60.2007C33.7528 60.5896 34.6536 61.0605 35.5237 61.6132C36.3631 62.1454 37.1615 62.7289 37.919 63.3737C38.6049 63.9571 39.2498 64.5917 39.8435 65.2673C40.1506 65.6153 40.4474 65.9633 40.7238 66.3317C40.775 66.4034 40.9285 66.5979 40.949 66.6286C41.1947 66.9766 41.4506 67.3144 41.6553 67.6931C41.7679 67.8875 41.9112 68.0615 42.0136 68.2663C42.2183 68.6859 42.4845 69.0749 42.6585 69.5047C42.7199 69.6685 42.812 69.8221 42.8734 69.9858C43.1191 70.5897 43.3648 71.1936 43.5286 71.818C43.5286 71.8384 43.5286 71.8589 43.5286 71.8794C43.6207 72.0534 43.6412 72.2376 43.6821 72.4219C43.7435 72.7187 43.7947 73.0155 43.8561 73.3123C43.8766 73.4249 43.8868 73.5478 43.8971 73.6603C43.9175 73.9367 43.9585 74.2131 43.9687 74.4894C43.979 74.7248 43.9994 74.95 43.9892 75.1854H44.0097Z" fill="#6CF379"/>
<path d="M20.6088 64.755C20.6088 64.755 20.6498 64.755 20.6702 64.755C20.6702 64.755 20.7521 64.755 20.7931 64.7345C20.8135 64.7345 20.834 64.7345 20.8545 64.7345C20.9159 64.7345 20.9773 64.7345 21.0285 64.7141C21.0285 64.7141 21.0694 64.7141 21.1002 64.7141C21.1616 64.7141 21.223 64.7141 21.2844 64.6936C21.3151 64.6936 21.3458 64.6936 21.3765 64.6936C21.4687 64.6936 21.5608 64.6936 21.6427 64.6629C21.8372 64.6629 22.0214 64.6424 22.2159 64.6424C23.3522 64.6219 24.4782 64.755 25.5837 65.0211C26.7097 65.2873 27.7947 65.6864 28.8491 66.188C29.8215 66.6486 30.7428 67.1911 31.6129 67.8052C32.7594 68.6138 33.8137 69.535 34.7759 70.5585C35.6972 71.5514 36.4956 72.6159 37.1815 73.7827C37.376 74.1102 37.5398 74.4378 37.7138 74.7653C37.724 74.796 37.7342 74.837 37.7547 74.8677C37.939 75.2157 38.0925 75.5841 38.2461 75.9424C38.4303 76.3825 38.5736 76.8431 38.7169 77.2935C38.7169 77.3242 38.7169 77.3549 38.7169 77.3856C38.9728 78.2147 39.1162 79.0642 39.1673 79.924C39.198 80.446 39.198 80.9782 39.1469 81.5003C39.3925 81.3877 39.628 81.2751 39.8327 81.142C40.4162 80.8042 40.9075 80.4051 41.3272 79.9342C41.5729 79.6579 41.8083 79.3508 42.0233 79.013C42.269 78.6241 42.4737 78.1942 42.6477 77.7029C42.6784 77.621 42.7091 77.5187 42.7296 77.4163C42.7501 77.3242 42.7808 77.2423 42.8115 77.1399C42.8524 77.0069 42.8831 76.8738 42.9138 76.7203C42.965 76.4746 42.9957 76.2187 43.0264 75.9322C43.0469 75.6967 43.0674 75.4613 43.0776 75.1747C43.0776 75.0212 43.0776 74.8574 43.0674 74.6834V74.5606C43.0572 74.4173 43.0367 74.2638 43.0162 74.1C43.006 73.9874 42.9957 73.8851 42.9855 73.7725V73.7008C42.9753 73.6292 42.965 73.5677 42.965 73.5166C42.9548 73.4347 42.9343 73.363 42.9241 73.2812C42.8831 73.0662 42.8422 72.8513 42.8013 72.6466C42.8013 72.6056 42.7808 72.5647 42.7808 72.5237C42.7705 72.4521 42.7501 72.36 42.7398 72.3395L42.6579 72.186L42.6375 72.0222C42.4839 71.449 42.2587 70.8861 42.0438 70.3641C42.0233 70.3129 41.9926 70.2515 41.9619 70.1798C41.9209 70.0877 41.8697 69.9853 41.8288 69.8727C41.7469 69.668 41.6241 69.4633 41.5012 69.2381C41.3989 69.0641 41.3067 68.8901 41.2044 68.6957C41.1737 68.6445 41.1225 68.5626 41.0713 68.491C41.0099 68.3988 40.9382 68.2965 40.8666 68.1737C40.7028 67.8768 40.4981 67.6005 40.2831 67.2934L40.2114 67.191C40.2114 67.191 40.15 67.1092 40.1091 67.058C40.0681 66.9966 40.017 66.9454 39.9965 66.9147C39.7201 66.5462 39.4232 66.1982 39.1571 65.9014C38.6043 65.2668 37.9799 64.6629 37.3248 64.0999C36.6082 63.4858 35.8303 62.9229 35.0318 62.4213C34.1925 61.8993 33.3224 61.4489 32.442 61.0805C31.5003 60.6915 30.5483 60.4049 29.5963 60.2105C28.9412 60.0774 28.2451 60.0057 27.5491 59.975C27.4467 59.975 27.3443 59.975 27.2317 59.975C26.8939 59.975 26.5561 59.9955 26.1774 60.0364H26.1364C25.9624 60.0467 25.7884 60.0774 25.6042 60.1081C24.8057 60.2412 24.0482 60.4766 23.3624 60.8041C22.5742 61.1931 21.9293 61.6741 21.3663 62.2985C20.9057 62.8103 20.5269 63.3937 20.2403 64.0488C20.1175 64.3251 20.0151 64.6117 19.9332 64.929C20.1175 64.8881 20.2915 64.8369 20.4757 64.8062C20.5167 64.8062 20.5576 64.8062 20.5986 64.7857L20.6088 64.755ZM21.4789 64.5503C21.4789 64.5503 21.4482 64.5912 21.4482 64.6219C21.4482 64.5912 21.4584 64.5708 21.4789 64.5503ZM8.17163 56.2493C8.33541 56.4745 8.46848 56.7202 8.60156 56.9658C8.78581 57.017 8.97007 57.0682 9.15432 57.0886H9.19527C9.2055 57.0886 9.24645 57.0886 9.27716 57.0886C9.36928 57.0886 9.48188 57.1091 9.62519 57.1398C9.70708 57.15 9.80945 57.15 9.89134 57.15C9.94252 57.15 9.98347 57.15 10.0346 57.15C10.0858 57.15 10.1472 57.15 10.1984 57.15C10.2803 57.15 10.352 57.15 10.4236 57.15C10.4236 57.15 10.4339 57.15 10.4441 57.15C10.5158 57.15 10.6181 57.1398 10.7205 57.1193H10.7307C11.0173 57.0784 11.2528 57.017 11.4575 56.9351C11.9284 56.7509 12.2866 56.5154 12.5733 56.1879C12.8394 55.8911 13.0237 55.5226 13.1567 55.0313C13.1977 54.8675 13.2182 54.7447 13.2284 54.6423C13.2284 54.5809 13.2284 54.5298 13.2284 54.4683C13.2284 54.1408 13.2386 53.8235 13.1874 53.5574C13.1772 53.496 13.167 53.4346 13.1567 53.3731C13.1363 53.281 13.126 53.1889 13.1056 53.148L13.0134 52.9023V52.8818C13.0134 52.8818 13.0134 52.8818 13.0134 52.8716C12.9622 52.6567 12.9111 52.4827 12.8292 52.3394C12.7473 52.1858 12.6859 52.0425 12.6244 51.9095C12.5835 51.8174 12.5426 51.7252 12.5016 51.6434C12.4402 51.5205 12.3481 51.3875 12.2559 51.2442C12.1945 51.1418 12.1229 51.0497 12.0614 50.9371C10.915 52.278 9.75827 53.6188 8.61179 54.9699C8.39683 55.2155 8.1921 55.4612 7.97714 55.7068C7.91572 55.7683 7.90548 55.8194 7.9669 55.8911C8.04879 55.9934 8.11021 56.106 8.18187 56.2084L8.17163 56.2493ZM46.5375 94.7347C46.0155 94.919 44.0706 95.4717 43.6406 95.4717C43.6099 95.4717 43.5792 95.4717 43.5587 95.4717L43.1288 95.4307L42.8831 95.0827C42.8115 94.9804 42.2075 94.1922 42.0233 93.9875C41.7674 93.6907 41.45 93.4041 41.0508 93.0971C40.3343 92.5341 39.5666 92.1144 38.7681 91.8279C38.3075 91.6641 37.8366 91.5617 37.376 91.5106H37.3146C37.2634 91.5106 37.0894 91.4901 36.8539 91.4901C36.5468 91.4901 36.3728 91.5106 36.3421 91.5208H36.2807C35.7996 91.5924 35.4208 91.7153 35.1035 91.8995C34.3665 92.3294 33.9468 92.9333 33.7932 93.8033C33.7932 93.8238 33.7932 93.8545 33.783 93.8852C33.7625 94.0285 33.7421 94.2434 33.6295 94.4686L33.394 94.9804H32.831L32.8208 94.9906H32.8106C32.6672 94.9906 32.5956 94.9906 31.5412 94.6733C30.9885 94.5096 30.405 94.3151 30.057 94.2025C29.1562 93.8954 28.2349 93.5372 27.3136 93.1278C26.6483 92.8309 25.9522 92.5034 25.2561 92.1349C24.8262 91.9097 24.4474 91.705 24.0994 91.5003L23.6797 91.2547L23.649 90.7736C23.6388 90.6098 23.649 90.4768 23.6695 90.3744C23.6695 90.3539 23.6695 90.313 23.6695 90.3028C23.6797 89.8933 23.6797 89.4532 23.5978 89.0643C23.5774 88.9824 23.4648 88.5627 23.4238 88.4194C23.2498 87.8667 22.9836 87.3345 22.6356 86.8022C22.6151 86.7613 22.5844 86.7306 22.564 86.6896L22.5128 86.6487L22.4309 86.5259C22.349 86.3928 22.2364 86.2598 22.1136 86.1165L22.0317 86.0141C21.6939 85.6047 21.2946 85.226 20.8033 84.837C20.1277 84.3048 19.3804 83.8851 18.6025 83.6088C18.1214 83.4348 17.6505 83.3324 17.1796 83.2812C17.1387 83.2812 17.0977 83.2812 17.067 83.271C16.9749 83.2607 16.8828 83.2505 16.8111 83.2505C16.7906 83.2505 16.7702 83.2505 16.7599 83.2505L16.6064 83.271L16.504 83.2505C16.504 83.2505 16.4836 83.2505 16.4631 83.2505C16.4221 83.2505 16.3607 83.2505 16.2993 83.2608C15.9308 83.2812 15.5623 83.3631 15.1835 83.5166C15.0914 83.5678 14.9174 83.6599 14.6615 83.6599L14.2213 83.6804L13.9347 83.3426C13.9347 83.3426 13.863 83.2607 13.8221 83.2096C13.73 83.1072 13.6378 82.9946 13.5355 82.8718C13.515 82.8411 13.4638 82.8002 13.4126 82.749C13.3205 82.6569 13.2079 82.5443 13.1056 82.401C13.0237 82.2884 12.9315 82.1758 12.8292 82.053L12.8087 82.0223C12.7063 81.8994 12.604 81.7664 12.4914 81.6333L12.3481 81.4593C12.2559 81.3467 12.174 81.2341 12.0922 81.1318C11.9796 80.9885 11.8772 80.8452 11.7748 80.7326L11.7339 80.6712L11.6622 80.5688C11.611 80.4972 11.5496 80.4153 11.4984 80.3436C11.3961 80.2106 11.304 80.0775 11.2221 79.9445C11.1709 79.8728 11.1299 79.8012 11.0788 79.7397C11.0788 79.7295 11.0583 79.7193 11.048 79.6988C10.9764 79.6169 10.8536 79.4736 10.7717 79.2689C10.5362 78.9516 10.3315 78.6241 10.137 78.3068L10.0961 78.2351C10.0449 78.1635 9.9937 78.0816 9.94252 77.9997C9.86063 77.8769 9.77874 77.7541 9.69685 77.6108C9.63543 77.5084 9.58425 77.4061 9.53307 77.3139C9.50236 77.2423 9.46141 77.1809 9.44094 77.1297C9.26692 76.8533 9.10314 76.5667 8.94959 76.2699C8.88818 76.1573 8.82676 76.0345 8.7551 75.9117C8.72439 75.8503 8.69368 75.7889 8.65274 75.7377L8.50943 75.4716L8.55037 75.1645C8.57085 75.011 8.69368 74.5094 9.28739 74.3457C9.5433 74.2331 9.75827 74.1205 9.93228 73.9772C10.137 73.8236 10.3213 73.6394 10.4748 73.404C10.6181 73.189 10.741 72.9332 10.8331 72.6261C10.9047 72.3907 10.9354 72.1143 10.9662 71.8175V71.6844C10.9662 71.6844 10.9662 71.5411 10.9662 71.449C10.9662 71.3569 10.9457 71.2648 10.9457 71.1522C10.9457 71.0703 10.9252 70.9782 10.9047 70.8656C10.9047 70.8349 10.8843 70.7735 10.8638 70.7223C10.8536 70.6609 10.8331 70.6199 10.8331 70.5995C10.7307 70.1593 10.5669 69.7192 10.3417 69.2689C10.2087 68.9925 10.0346 68.7264 9.87086 68.4807H9.84016L9.67637 68.2146C9.50236 67.9587 9.28739 67.7131 9.03148 67.4367C8.72439 67.1092 8.36612 66.7919 7.93619 66.4746C7.30154 66.0037 6.65665 65.6557 5.98105 65.4101L5.46923 65.2258L5.39757 64.6834C5.35663 64.3865 5.35663 64.0897 5.35663 63.844C5.35663 63.7929 5.35663 63.7417 5.35663 63.6905V63.537C5.35663 63.3732 5.35663 63.2094 5.35663 63.0354C5.35663 62.9331 5.35663 62.8307 5.35663 62.7181C5.35663 62.4827 5.35663 62.2268 5.38734 61.9505C5.39757 61.8174 5.41805 61.6741 5.42828 61.5206C5.42828 61.4182 5.43852 61.3159 5.44876 61.2238C5.46923 61.0293 5.4897 60.7836 5.53065 60.5277C5.58183 60.19 5.64325 59.7806 5.72514 59.3711C5.74561 59.2585 5.77632 59.146 5.79679 59.0436C4.72197 60.3026 3.64716 61.5513 2.57234 62.8103C2.48021 62.9229 2.40856 63.0354 2.36761 63.1685C2.30619 63.363 2.24477 63.5472 2.18336 63.7417C1.82508 64.9699 1.61012 66.2289 1.51799 67.4981C1.46681 68.3272 1.46681 69.1563 1.49752 69.9853C1.49752 70.0467 1.49752 70.1082 1.5487 70.1491C1.8865 70.2924 2.23454 70.4357 2.5621 70.6097C3.73928 71.2443 4.73221 72.0836 5.55112 73.1379C5.99128 73.7008 6.34956 74.3252 6.62594 74.9905C6.74877 75.2771 6.83067 75.5841 6.93303 75.881C6.93303 75.9629 6.96374 76.0447 6.98421 76.1164C7.03539 76.4439 7.09681 76.7817 7.09681 77.1195C7.09681 77.4163 7.07634 77.7131 7.04563 77.9997C7.01492 78.0816 6.96374 78.143 6.90232 78.2044C6.18578 79.0335 5.46923 79.8626 4.76292 80.7019C4.68785 80.7906 4.67762 80.8827 4.73221 80.9782C5.16214 81.7868 5.61254 82.575 6.10388 83.3426C6.59523 84.1205 7.10705 84.8677 7.65981 85.6047C7.70076 85.6559 7.73147 85.7173 7.79288 85.7582C7.81336 85.7787 7.82359 85.8094 7.84407 85.8299C8.22281 86.3314 8.61179 86.8329 9.02125 87.3038C9.28739 87.6108 9.5433 87.9077 9.80945 88.2147C9.85039 88.2557 9.8811 88.3273 9.95276 88.2761C10.3213 88.1226 10.7 88.01 11.0992 87.9384C11.1504 87.9384 11.2016 87.9384 11.2528 87.9179C11.5087 87.9077 11.7646 87.8974 12.0103 87.877C12.215 87.8974 12.4197 87.8974 12.6244 87.9281C13.6071 88.051 14.5284 88.3785 15.3883 88.8493C16.5962 89.5146 17.6096 90.4154 18.4182 91.531C18.9198 92.2168 19.2986 92.9538 19.5545 93.7624C19.7182 94.3048 19.8206 94.8576 19.8206 95.4307C19.8104 95.4717 19.8206 95.5126 19.8206 95.5536C19.8104 95.7071 19.7899 95.8709 19.7797 96.0244C19.7797 96.0858 19.7387 96.1472 19.7797 96.2189C19.8104 96.27 19.882 96.2905 19.9332 96.3212C20.6498 96.7204 21.3868 97.0991 22.1238 97.4471C23.9868 98.3274 25.9112 99.0336 27.9073 99.5556C28.0302 99.5863 28.0916 99.5556 28.1735 99.4635C29.0231 98.4809 29.8727 97.4983 30.7223 96.5259C30.8247 96.4031 30.9168 96.27 31.0499 96.1779C31.3263 96.137 31.5924 96.0858 31.8688 96.0858C32.0633 96.0858 32.268 96.0858 32.4625 96.0858C33.0358 96.1268 33.5885 96.2393 34.131 96.4236C35.7893 96.9865 37.161 97.9691 38.2768 99.3202C38.4713 99.5556 38.6453 99.8218 38.8295 100.057C38.8295 100.057 38.8295 100.078 38.8295 100.088H38.891C38.891 100.088 38.891 100.067 38.891 100.057C38.9421 100.047 39.0036 100.037 39.0547 100.026C39.628 99.9036 40.2012 99.7604 40.754 99.5863C41.317 99.4021 41.88 99.2076 42.4225 98.962C42.7603 98.8084 43.0981 98.6549 43.4359 98.4911C44.0296 98.1943 44.5926 97.8463 45.1454 97.4676C45.2477 97.396 45.3296 97.3243 45.4115 97.2322C46.3635 96.137 47.3155 95.052 48.2675 93.9568C48.1446 94.0182 48.032 94.0797 47.9297 94.1206C47.4486 94.3355 46.9777 94.53 46.5273 94.6835L46.5375 94.7347ZM42.2997 96.1677C42.2997 96.1677 42.3406 96.1165 42.3508 96.0756C42.3508 96.0756 42.3201 96.137 42.2997 96.1677ZM52.751 84.9291C52.6896 84.9291 52.6179 84.9291 52.5565 84.9291H52.4951C52.4746 84.9291 52.4541 84.9291 52.4337 84.9291C52.0549 84.9291 51.6659 85.0008 51.2872 85.1543C50.4273 85.4921 49.9155 86.055 49.6596 86.9455C49.6084 87.1195 49.5777 87.2935 49.5675 87.4778C49.547 87.7234 49.5368 88.0203 49.5777 88.2761V88.3273L49.588 88.3785C49.6084 88.6549 49.6801 88.9517 49.7722 89.2485C49.7722 89.2792 49.7927 89.3202 49.8132 89.3611C49.8234 89.3918 49.8336 89.4225 49.8439 89.4532C49.8541 89.4839 49.8643 89.5249 49.8848 89.5556C49.936 89.6784 49.9872 89.8012 50.0384 89.9343C50.2021 89.9855 50.3557 90.0469 50.5092 90.1083C50.673 90.1697 50.673 90.1799 50.7754 90.0469C52.0447 88.5832 53.314 87.1298 54.5935 85.6661C54.6857 85.5637 54.7676 85.4614 54.8597 85.359C54.5628 85.2362 54.2864 85.1441 54.0203 85.0827C53.5494 84.9599 53.14 84.9087 52.7612 84.9087L52.751 84.9291Z" fill="#024731"/>
<path d="M30.64 49.5058L37.4165 52.4331C37.4165 52.4331 37.0992 54.1731 38.0614 56.0974C39.0236 58.0217 41.9 60.642 44.019 60.8774C46.2402 61.123 47.7859 60.5805 47.7859 60.5805L51.7167 66.3226C51.7167 66.3226 49.0245 67.3667 49.6797 71.9624C50.3962 76.9573 55.2789 77.899 55.2687 78.4005C55.2585 78.9021 54.9412 82.5868 54.6545 83.0679C54.5829 83.1907 51.8805 82.1774 49.5466 83.9481C45.2985 87.1826 48.3899 91.5326 48.3899 91.5326L44.0087 93.375C44.0087 93.375 46.8749 88.81 44.1623 85.4221C42.4426 83.2726 39.6173 83.4466 39.7299 83.4057C48.5639 79.6083 44.8993 70.4987 44.8993 70.4987C44.8993 70.4987 41.6339 62.2899 34.6629 59.209C24.0478 54.5211 19.943 59.0759 19.943 59.0759C19.1855 55.8415 14.9989 56.384 14.9989 56.384C16.217 53.4976 14.3233 50.5805 14.3233 50.5805L18.3461 48.8404C18.3461 48.8404 23.7509 55.8313 29.5038 51.4403C30.7833 50.4576 30.64 49.516 30.64 49.516V49.5058Z" fill="white"/>
<path d="M64.8812 0.118597C64.7277 0.118597 64.6356 0.159539 64.5844 0.323307C64.523 0.517781 64.4206 0.712255 64.3285 0.906729C63.7143 2.15546 62.8544 3.20971 61.7694 4.07973C60.9198 4.75527 59.9882 5.25681 58.9339 5.5434C58.3709 5.69693 57.7874 5.75835 57.204 5.71741C57.0197 5.70717 56.8354 5.6867 56.6614 5.62529C56.4465 5.61505 56.2417 5.53317 56.037 5.45128C55.126 5.09304 54.4913 4.44821 54.1023 3.55772C54.0716 3.49631 54.0307 3.35301 54.0205 3.34277C53.959 3.3223 53.9181 3.36325 53.8669 3.39395C53.2527 3.71125 52.659 4.05926 52.0653 4.4175C50.2432 5.53317 48.5235 6.80237 46.9164 8.2251C46.8243 8.30698 46.7424 8.38887 46.6503 8.46052C46.6093 8.49122 46.5888 8.52193 46.5888 8.56287C46.5888 8.58334 46.5888 8.60381 46.6093 8.63452C46.64 8.70617 46.6707 8.77782 46.7014 8.84946C46.9062 9.39194 46.9881 9.94466 46.9881 10.4974C46.9881 10.8454 46.9574 11.1934 46.8959 11.5414C46.7731 12.2886 46.5274 12.9948 46.1794 13.6704C45.688 14.653 45.0329 15.523 44.2242 16.2804C43.3849 17.0686 42.4431 17.6827 41.3581 18.0614C40.5392 18.3582 39.6895 18.4811 38.8194 18.3582C38.7171 18.348 38.6557 18.3685 38.5942 18.4708C38.2872 19.0235 38.0005 19.5762 37.7139 20.1392C36.8848 21.7973 36.1989 23.5169 35.6564 25.2979C35.5438 25.6766 35.421 26.0655 35.3391 26.4545C35.3391 26.4647 35.3391 26.475 35.3391 26.4852C35.3391 26.5057 35.3391 26.5261 35.3084 26.5466V26.5671C35.3084 26.5773 35.3084 26.5876 35.3186 26.5978C35.6359 26.5978 35.9533 26.6592 36.2501 26.7718C36.6596 26.9253 37.069 27.0993 37.4068 27.3962C37.7037 27.6623 37.9801 27.9386 38.1643 28.2969C38.3179 28.5835 38.4612 28.8701 38.5533 29.1771C38.584 29.2693 38.6352 29.4842 38.6454 29.5149C38.7171 29.8834 38.7478 30.2416 38.7478 30.6101C38.7478 31.0093 38.7068 31.4085 38.625 31.8076C38.4202 32.8414 38.0005 33.7933 37.4171 34.6736C36.7415 35.6971 35.9123 36.5569 34.8989 37.2529C34.8068 37.3143 34.7761 37.3348 34.7761 37.3962C34.7761 37.4269 34.7761 37.4679 34.7966 37.519C34.9501 38.3072 35.1548 39.0851 35.4107 39.8425C35.7997 40.9991 36.3115 42.0943 36.9564 43.1383C37.0997 43.3737 37.243 43.6092 37.4171 43.8241C37.4887 43.8241 37.5194 43.7627 37.5706 43.732C37.8572 43.5682 38.1234 43.3635 38.4202 43.21C38.6454 43.0974 38.8809 43.0053 39.0958 42.8927C39.3313 42.7698 39.5769 42.6982 39.8328 42.6266C39.8943 42.6163 39.9352 42.5549 40.0069 42.5651C40.1809 42.4935 40.3754 42.473 40.5596 42.4423C40.9793 42.3604 41.4092 42.3809 41.8289 42.3809C42.0337 42.3809 42.2486 42.4218 42.4431 42.4833C43.0061 42.6368 43.5179 42.8722 43.9581 43.2612C44.4187 43.6603 44.7258 44.1619 44.951 44.7248C45.0636 45.0217 45.1353 45.3287 45.1865 45.646C45.2069 45.7893 45.2274 45.9326 45.2274 46.0759C45.2274 46.0964 45.2274 46.1169 45.2274 46.1373C45.2274 46.1987 45.2274 46.2601 45.2274 46.3216C45.2274 46.4239 45.2274 46.5263 45.2274 46.6389C45.2274 46.7924 45.2274 46.9459 45.1967 47.0995C45.1558 47.2325 45.166 47.3656 45.1353 47.4986C45.0943 47.7545 45.0329 48.0002 44.9613 48.2458C44.8794 48.5631 44.7463 48.86 44.6439 49.1568C44.6439 49.1773 44.6439 49.1977 44.6132 49.208C44.6132 49.208 44.6132 49.2284 44.6132 49.2387C44.6132 49.2489 44.6132 49.2591 44.6235 49.2694C44.8077 49.3308 44.9817 49.382 45.166 49.4434C45.688 49.6174 46.2203 49.7402 46.7526 49.8528C47.1109 49.9347 47.4794 49.9859 47.8377 50.037C48.0526 50.0677 48.2778 50.0882 48.4928 50.1087C48.7385 50.1292 48.9944 50.1496 49.2401 50.1701C49.5779 50.211 49.9157 50.1803 50.2535 50.1906C50.4684 50.1906 50.6732 50.1906 50.8881 50.1906C51.185 50.1906 51.4716 50.1906 51.7684 50.1599C52.0551 49.3717 52.4645 48.645 52.9559 47.9695C53.2732 47.5396 53.6315 47.1199 54.0205 46.7515C54.3071 46.4853 54.5937 46.2192 54.9212 46.0043C54.9417 45.9531 54.9929 45.9326 55.0338 45.9019C55.3614 45.6767 55.6992 45.4618 56.0575 45.2775C56.5488 45.0319 57.0606 44.8374 57.5929 44.7146C57.6339 44.7146 57.8284 44.6532 57.8796 44.6429C58.0229 44.6122 58.1662 44.5918 58.2992 44.5918C58.5244 44.5918 58.7394 44.5303 58.9544 44.5508C59.3331 44.5918 59.7016 44.6122 60.0701 44.7248C60.4386 44.8374 60.7867 44.991 61.0938 45.2059C61.3906 45.4106 61.6568 45.6665 61.882 45.9531C62.0867 46.2294 62.2402 46.5263 62.3733 46.8436C62.3938 46.8947 62.3836 46.9766 62.4655 46.9869C62.6497 46.8845 62.834 46.7822 63.0182 46.6798C63.2946 46.5365 63.5607 46.383 63.8269 46.2192C63.9804 46.1271 64.1544 46.0554 64.3182 45.9633C64.523 45.8405 64.7174 45.6972 64.9222 45.5641C65.2497 45.3594 65.5875 45.1445 65.8946 44.9193C65.956 44.8784 66.0175 44.8374 66.0789 44.8169C66.1915 44.7658 66.2734 44.6737 66.3757 44.602C66.5702 44.4689 66.7647 44.3461 66.9592 44.2028C67.0718 44.1209 67.1742 44.039 67.2868 43.9572C67.5324 43.7422 67.7986 43.558 68.0443 43.3635C68.2285 43.21 68.4128 43.0667 68.6073 42.9131C68.7506 42.8006 68.8836 42.688 69.027 42.5754C69.1907 42.4628 69.3136 42.299 69.4671 42.1762C69.6207 42.0534 69.764 41.9203 69.9073 41.7975C69.9073 41.7156 69.8561 41.6542 69.8254 41.5825C69.6411 41.1219 69.5285 40.6511 69.5081 40.1598C69.5081 40.0677 69.4876 39.9858 69.4876 39.8937C69.4876 39.863 69.4876 39.822 69.4876 39.7913C69.4876 39.7299 69.4774 39.6685 69.4774 39.6071C69.4774 39.4536 69.4978 39.3 69.5183 39.1465C69.5797 38.5835 69.7026 38.0411 69.897 37.519C70.2144 36.6286 70.675 35.8097 71.2687 35.0625C71.6577 34.561 72.0876 34.1004 72.579 33.7012C72.7735 33.5477 72.9577 33.3839 73.1624 33.2509C73.2341 33.1587 73.3467 33.1076 73.4491 33.0461C74.0223 32.6674 74.6365 32.3604 75.2916 32.1557C75.4759 32.0942 75.9672 31.9714 76.0286 31.9612C76.5097 31.8588 77.0011 31.8588 77.4822 31.8691C77.605 31.8691 77.7381 31.91 77.8609 31.8998C78.0759 31.5313 78.2806 31.1526 78.4751 30.7739C78.8129 30.1188 79.1405 29.4535 79.4373 28.7677C79.8263 27.8977 80.1744 27.0072 80.4814 26.0963C80.7271 25.3798 81.2287 23.7523 81.2287 23.6397C81.0854 23.5681 80.9318 23.5783 80.7783 23.5476C79.6728 23.3429 78.8232 22.78 78.2602 21.7973C77.994 21.3368 77.8507 20.825 77.7688 20.303C77.7381 20.1392 77.7176 19.8628 77.7176 19.5967C77.7176 19.3613 77.7279 19.1259 77.7483 19.0031C77.7995 18.4503 77.9224 17.9181 78.1066 17.3961C78.4342 16.4647 78.9153 15.6254 79.5192 14.8577C79.8263 14.4687 80.1539 14.1003 80.5224 13.7727C80.7476 13.568 81.5563 12.9437 81.6996 12.8515C81.6996 12.6571 81.2492 10.9477 81.0137 10.262C80.8602 9.8116 80.6759 9.37147 80.4814 8.93135C80.1232 8.13298 79.1098 6.48507 79.0995 6.4646C79.0279 6.36224 79.0279 6.36224 78.9358 6.42365C78.905 6.44413 78.8641 6.47483 78.8334 6.4953C78.2704 6.89449 77.6665 7.22202 77.0216 7.46767C76.9806 7.48814 76.9397 7.49838 76.8885 7.50862C76.8066 7.53932 76.7349 7.55979 76.6428 7.5905C76.2948 7.69285 75.9467 7.78497 75.5782 7.80544C75.2302 7.86686 74.8822 7.85662 74.5341 7.83615C74.2884 7.81568 74.053 7.77474 73.8278 7.70309C72.6813 7.37555 71.8829 6.64883 71.4427 5.53317C71.2585 5.06234 71.1561 4.57103 71.1561 4.05926C71.1561 4.03879 71.1561 4.00808 71.1561 3.98761C71.1561 3.90573 71.1561 3.82384 71.1561 3.75219C71.1561 3.25065 71.238 2.75935 71.3608 2.26805C71.453 1.89957 71.5758 1.55156 71.7191 1.20356C71.7396 1.14215 71.7703 1.09097 71.7805 1.02955C71.7498 0.978378 71.6884 0.978378 71.6475 0.968142C71.1766 0.804374 70.6955 0.671313 70.2041 0.558723C68.8632 0.231187 67.4608 0.0878906 66.0379 0.0878906C65.649 0.0878906 65.2702 0.118597 64.8812 0.118597ZM62.3631 12.4831C62.6292 12.4933 62.9056 12.5035 63.1718 12.5342C63.4584 12.5649 63.745 12.6059 64.0316 12.6571C64.2056 12.6878 64.3797 12.7287 64.5537 12.7901C64.7482 12.8515 64.9529 12.8925 65.1474 12.9641C65.6694 13.1484 66.171 13.3838 66.6419 13.6806C67.0104 13.916 67.3584 14.1719 67.686 14.4687C68.2388 14.9703 68.6994 15.5435 69.0679 16.1883C69.2829 16.567 69.4671 16.956 69.6309 17.3552C69.6514 17.3961 69.7128 17.5496 69.7128 17.5701C69.8152 17.9079 69.9278 18.2354 69.9994 18.5732C70.1837 19.3715 70.2656 20.1699 70.2656 20.9887C70.2656 21.173 70.2656 21.3572 70.2553 21.5415C70.1837 23.1791 69.8049 24.7452 69.2112 26.2703C68.5356 27.9898 67.6041 29.5661 66.4679 31.0093C65.219 32.606 63.7655 33.9878 62.0765 35.1239C60.6024 36.127 59.0158 36.8947 57.2858 37.3553C56.1087 37.6726 54.9008 37.8159 53.6826 37.7442C53.2834 37.7238 52.8944 37.6726 52.5055 37.5907C52.4543 37.5805 52.2393 37.5293 52.1881 37.519C51.7173 37.4065 51.2566 37.2632 50.8165 37.0687C50.0897 36.7412 49.4243 36.3215 48.8306 35.7893C48.1141 35.1444 47.5511 34.387 47.1314 33.517C46.7424 32.7288 46.4967 31.8895 46.3534 31.0195C46.3227 30.8148 46.292 30.6101 46.2715 30.4054C46.2306 30.0164 46.1999 29.6377 46.1999 29.2488C46.1999 29.1362 46.1999 29.0134 46.1999 28.9008C46.2306 28.1638 46.3125 27.4371 46.4558 26.7104C46.6605 25.6766 46.9676 24.6633 47.377 23.6909C47.766 22.739 48.2369 21.8383 48.7897 20.9683C49.322 20.129 49.9054 19.3306 50.5503 18.5732C51.1338 17.8874 51.7684 17.2426 52.444 16.6489C52.7921 16.3418 53.1401 16.045 53.5086 15.7686C53.5803 15.7175 53.7748 15.5639 53.8055 15.5435C54.1535 15.2978 54.4913 15.0419 54.8701 14.8372C55.0646 14.7246 55.2386 14.5813 55.4433 14.479C55.863 14.2743 56.252 14.0081 56.6819 13.8341C56.8457 13.7727 56.9992 13.6806 57.163 13.6192C57.767 13.3735 58.3709 13.1279 58.9953 12.9641C59.0158 12.9641 59.0363 12.9641 59.0567 12.9641C59.2308 12.872 59.415 12.8515 59.5993 12.8106C59.8961 12.7492 60.193 12.698 60.4898 12.6366C60.6024 12.6161 60.7253 12.6059 60.8379 12.5957C61.1142 12.5752 61.3906 12.5342 61.667 12.524C61.9024 12.5138 62.1276 12.4933 62.3631 12.5035V12.4831Z" fill="#6CF379"/>
<path d="M51.9212 35.8818C51.9212 35.8818 51.9212 35.8409 51.9212 35.8204C51.9212 35.8204 51.9212 35.7385 51.9008 35.6976C51.9008 35.6771 51.9008 35.6566 51.9008 35.6361C51.9008 35.5747 51.9008 35.5133 51.8803 35.4621V35.3905C51.8803 35.3291 51.87 35.2677 51.8496 35.2063C51.8496 35.1756 51.8496 35.1448 51.8496 35.1141C51.8496 35.022 51.8496 34.9299 51.8189 34.848C51.8189 34.6535 51.7984 34.4693 51.7984 34.2748C51.7779 33.1387 51.911 32.0128 52.1771 30.9074C52.4433 29.7814 52.8425 28.6965 53.3441 27.6422C53.8047 26.6699 54.3472 25.7487 54.9614 24.8787C55.7701 23.7323 56.6914 22.678 57.715 21.7159C58.7079 20.7947 59.7725 19.9963 60.9395 19.3106C61.267 19.1161 61.5946 18.9523 61.9222 18.7783C61.9529 18.7681 61.9938 18.7578 62.0245 18.7374C62.3726 18.5531 62.7411 18.3996 63.0993 18.2461C63.5395 18.0618 64.0001 17.9185 64.4505 17.7752C64.4812 17.7752 64.512 17.7752 64.5427 17.7752C65.3718 17.5193 66.2214 17.376 67.0813 17.3249C67.6033 17.2942 68.1356 17.2942 68.6577 17.3453C68.5451 17.0997 68.4325 16.8643 68.2994 16.6596C67.9616 16.0761 67.5624 15.5848 67.0915 15.1652C66.8151 14.9195 66.508 14.6841 66.1702 14.4692C65.7813 14.2235 65.3513 14.0188 64.86 13.8448C64.7781 13.8141 64.6757 13.7834 64.5734 13.7629C64.4812 13.7425 64.3994 13.7117 64.297 13.681C64.1639 13.6401 64.0308 13.6094 63.8773 13.5787C63.6316 13.5275 63.3757 13.4968 63.0891 13.4661C62.8537 13.4456 62.6182 13.4252 62.3316 13.4149C62.1781 13.4149 62.0143 13.4149 61.8403 13.4252H61.7174C61.5741 13.4354 61.4206 13.4559 61.2568 13.4763C61.1442 13.4866 61.0418 13.4968 60.9292 13.507H60.8576C60.7859 13.5173 60.7245 13.5275 60.6733 13.5275C60.5914 13.5377 60.5198 13.5582 60.4379 13.5684C60.2229 13.6094 60.008 13.6503 59.8032 13.6913C59.7623 13.6913 59.7213 13.7117 59.6804 13.7117C59.6087 13.722 59.5166 13.7425 59.4961 13.7527L59.3426 13.8346L59.1788 13.855C58.6056 14.0086 58.0426 14.2338 57.5205 14.4487C57.4693 14.4692 57.4079 14.4999 57.3363 14.5306C57.2441 14.5715 57.1418 14.6227 57.0292 14.6636C56.8244 14.7455 56.6197 14.8684 56.3945 14.9912C56.2205 15.0935 56.0465 15.1857 55.852 15.288C55.8008 15.3187 55.7189 15.3699 55.6473 15.4211C55.5551 15.4825 55.4528 15.5541 55.3299 15.6258C55.0331 15.7895 54.7567 15.9943 54.4496 16.2092L54.3472 16.2809C54.3472 16.2809 54.2654 16.3423 54.2142 16.3832C54.1528 16.4241 54.1016 16.4753 54.0709 16.4958C53.7024 16.7722 53.3543 17.069 53.0575 17.3351C52.4228 17.8878 51.8189 18.5122 51.2559 19.1673C50.6417 19.8837 50.0787 20.6616 49.5771 21.46C49.055 22.2993 48.6046 23.1693 48.2361 24.0496C47.8472 24.9912 47.5605 25.9431 47.366 26.895C47.233 27.5501 47.1613 28.2461 47.1306 28.9421C47.1306 29.0445 47.1306 29.1469 47.1306 29.2594C47.1306 29.5972 47.1511 29.935 47.192 30.3137V30.3546C47.2023 30.5286 47.233 30.7026 47.2637 30.8869C47.3968 31.6852 47.6322 32.4427 47.9598 33.1285C48.3487 33.9166 48.8298 34.5614 49.4543 35.1244C49.9661 35.585 50.5496 35.9637 51.2047 36.2503C51.4811 36.3731 51.7677 36.4755 52.085 36.5573C52.0441 36.3731 51.9929 36.1991 51.9622 36.0149C51.9622 35.9739 51.9622 35.933 51.9417 35.892L51.9212 35.8818ZM51.7267 35.0118C51.7267 35.0118 51.7677 35.0425 51.7984 35.0425C51.7677 35.0425 51.7472 35.0323 51.7267 35.0118ZM43.425 48.3179C43.6502 48.1541 43.8959 48.0211 44.1416 47.888C44.1928 47.7038 44.244 47.5195 44.2644 47.3353V47.2944C44.2644 47.2841 44.2644 47.2432 44.2644 47.2125C44.2644 47.1204 44.2849 47.0078 44.3156 46.8645C44.3258 46.7826 44.3258 46.6802 44.3258 46.5983C44.3258 46.5472 44.3258 46.5062 44.3258 46.455C44.3258 46.4039 44.3258 46.3425 44.3258 46.2913C44.3258 46.2094 44.3258 46.1377 44.3258 46.0661C44.3258 46.0661 44.3258 46.0559 44.3258 46.0456C44.3258 45.974 44.3156 45.8716 44.2951 45.7693C44.2542 45.4622 44.1928 45.237 44.1109 45.0323C43.9266 44.5615 43.6912 44.2032 43.3636 43.9167C43.0668 43.6505 42.6983 43.4663 42.2069 43.3332C42.0431 43.2923 41.9203 43.2718 41.8179 43.2616C41.7565 43.2616 41.7053 43.2616 41.6439 43.2616C41.3164 43.2616 40.999 43.2513 40.7329 43.3025C40.6715 43.3128 40.6101 43.323 40.5486 43.3332C40.4565 43.3537 40.3644 43.3639 40.3234 43.3844L40.0778 43.4765H40.0573C40.0573 43.4765 40.0573 43.4765 40.047 43.4765C39.8321 43.5277 39.6581 43.5789 39.5148 43.6608C39.3612 43.7426 39.2179 43.8041 39.0848 43.8655C38.9927 43.9064 38.9006 43.9474 38.8187 43.9883C38.6958 44.0497 38.5628 44.1418 38.4195 44.234C38.3171 44.2954 38.225 44.367 38.1124 44.4284C39.4533 45.5748 40.7943 46.7314 42.1455 47.8778C42.3912 48.0927 42.6368 48.2974 42.8825 48.5124C42.9439 48.5738 42.9951 48.584 43.0668 48.5226C43.1691 48.4407 43.2817 48.3793 43.3841 48.3077L43.425 48.3179ZM81.9138 9.95532C82.098 10.4773 82.6508 12.4221 82.6508 12.852C82.6508 12.8827 82.6508 12.9134 82.6508 12.9338L82.6099 13.3637L82.2618 13.6094C82.1594 13.681 81.3713 14.2849 81.1665 14.4692C80.8697 14.7251 80.5831 15.0424 80.276 15.4415C79.713 16.158 79.2933 16.9257 79.0067 17.7241C78.8429 18.1846 78.7405 18.6555 78.6893 19.1161V19.1775C78.6893 19.2287 78.6689 19.4027 78.6689 19.6381C78.6689 19.9452 78.6893 20.1192 78.6996 20.1499V20.2113C78.7712 20.6923 78.8941 21.0711 79.0783 21.3884C79.5082 22.1253 80.1122 22.545 80.9823 22.6985C81.0027 22.6985 81.0335 22.6985 81.0642 22.7087C81.2075 22.7292 81.4224 22.7497 81.6476 22.8623L82.1595 23.0977V23.6606L82.1697 23.6709C82.1697 23.8244 82.1697 23.896 81.8524 24.9503C81.6886 25.503 81.4941 26.0864 81.3815 26.4344C81.0744 27.3352 80.7161 28.2564 80.3067 29.1776C80.0098 29.8429 79.6823 30.5389 79.3137 31.2349C79.0885 31.6648 78.8838 32.0435 78.6791 32.3915L78.4334 32.8111L77.9523 32.8419C77.7885 32.8521 77.6555 32.8419 77.5531 32.8214C77.5326 32.8214 77.4917 32.8214 77.4814 32.8214C77.072 32.8111 76.6318 32.8112 76.2428 32.893C76.1609 32.9135 75.7413 33.0261 75.5979 33.067C75.0452 33.241 74.5129 33.5072 73.9806 33.8552C73.9397 33.8756 73.9089 33.9064 73.868 33.9268L73.8271 33.978L73.7042 34.0599C73.5711 34.1418 73.4381 34.2544 73.2948 34.3772L73.1924 34.4591C72.7829 34.7968 72.4042 35.196 72.0152 35.6873C71.4829 36.3629 71.0632 37.1101 70.7868 37.888C70.6128 38.369 70.5105 38.8399 70.4593 39.3107C70.4593 39.3516 70.4593 39.3926 70.4491 39.4233C70.4388 39.5154 70.4286 39.6075 70.4286 39.6792C70.4286 39.6996 70.4286 39.7201 70.4286 39.7303L70.4491 39.8839L70.4286 39.9862C70.4286 39.9862 70.4286 40.0067 70.4286 40.0272C70.4286 40.0681 70.4286 40.1295 70.4388 40.1909C70.4593 40.5594 70.5412 40.9279 70.6947 41.3066C70.7357 41.3987 70.8278 41.583 70.838 41.8286L70.8585 42.2687L70.5207 42.5553C70.5207 42.5553 70.4388 42.627 70.3876 42.6679C70.2853 42.76 70.1727 42.8522 70.0498 42.9545C70.0191 42.975 69.9782 43.0262 69.927 43.0773C69.8349 43.1695 69.7223 43.2821 69.579 43.3844C69.4664 43.4663 69.3538 43.5584 69.2309 43.6608L69.2002 43.6812C69.0774 43.7836 68.9443 43.8859 68.8112 43.9985L68.6372 44.1418C68.5246 44.234 68.412 44.3158 68.3097 44.3977C68.1663 44.5103 68.023 44.6127 67.9104 44.715L67.849 44.756L67.7466 44.8276C67.675 44.8788 67.5931 44.9402 67.5215 44.9914C67.3884 45.0937 67.2553 45.1859 67.1222 45.2677C67.0506 45.3189 66.9789 45.3599 66.9175 45.411C66.9073 45.411 66.897 45.4315 66.8766 45.4417C66.7947 45.5134 66.6514 45.6362 66.4466 45.7181C66.1293 45.9535 65.8017 46.1582 65.4844 46.3527L65.4128 46.3936C65.3411 46.4448 65.2592 46.496 65.1773 46.5472C65.0545 46.6291 64.9317 46.7109 64.7883 46.7928C64.686 46.8542 64.5836 46.9054 64.4915 46.9566C64.4198 46.9873 64.3584 47.0282 64.3072 47.0487C64.0308 47.2227 63.7442 47.3865 63.4474 47.54C63.3348 47.6014 63.2119 47.6628 63.0891 47.7345C63.0277 47.7652 62.9663 47.7959 62.9151 47.8368L62.6489 47.9801L62.3418 47.9392C62.1883 47.9187 61.6867 47.7959 61.5229 47.2022C61.4103 46.9464 61.2977 46.7314 61.1544 46.5574C61.0009 46.3527 60.8166 46.1685 60.5812 46.0149C60.3662 45.8716 60.1103 45.7488 59.8032 45.6567C59.5678 45.585 59.2914 45.5543 58.9946 45.5236H58.8615C58.8615 45.5236 58.7182 45.5236 58.626 45.5236C58.5339 45.5236 58.4418 45.5441 58.3292 45.5441C58.2473 45.5441 58.1552 45.5646 58.0426 45.585C58.0119 45.585 57.9505 45.6055 57.8993 45.626C57.8379 45.6362 57.7969 45.6567 57.7764 45.6567C57.3363 45.759 56.8961 45.9228 56.4457 46.148C56.1693 46.281 55.9032 46.4551 55.6575 46.6188V46.6495L55.3914 46.8133C55.1355 46.9873 54.8898 47.2022 54.6134 47.4581C54.2858 47.7652 53.9685 48.1234 53.6512 48.5533C53.1803 49.1879 52.8323 49.8328 52.5866 50.5083L52.4023 51.0201L51.8598 51.0917C51.563 51.1327 51.2661 51.1327 51.0204 51.1327C50.9692 51.1327 50.9181 51.1327 50.8669 51.1327H50.7133C50.5496 51.1327 50.3858 51.1327 50.2118 51.1327C50.1094 51.1327 50.007 51.1327 49.8944 51.1327C49.659 51.1327 49.4031 51.1327 49.1267 51.102C48.9936 51.0917 48.8503 51.0713 48.6968 51.061C48.5944 51.061 48.4921 51.0508 48.3999 51.0405C48.2054 51.0201 47.9598 50.9996 47.7038 50.9587C47.366 50.9075 46.9566 50.8461 46.5471 50.7642C46.4345 50.7437 46.3219 50.713 46.2196 50.6925C47.4786 51.7673 48.7275 52.842 49.9866 53.9167C50.0992 54.0088 50.2118 54.0805 50.3448 54.1214C50.5393 54.1828 50.7236 54.2443 50.9181 54.3057C52.1464 54.6639 53.4055 54.8788 54.6748 54.971C55.504 55.0221 56.3331 55.0221 57.1623 54.9914C57.2237 54.9914 57.2851 54.9914 57.326 54.9403C57.4693 54.6025 57.6127 54.2545 57.7867 53.9269C58.4213 52.7499 59.2607 51.757 60.315 50.9382C60.878 50.4981 61.5025 50.1398 62.1678 49.8635C62.4544 49.7406 62.7615 49.6588 63.0584 49.5564C63.1403 49.5564 63.2222 49.5257 63.2938 49.5052C63.6214 49.454 63.9592 49.3926 64.297 49.3926C64.5938 49.3926 64.8907 49.4131 65.1773 49.4438C65.2592 49.4745 65.3206 49.5257 65.382 49.5871C66.2112 50.3036 67.0403 51.0201 67.8797 51.7263C67.9684 51.8014 68.0606 51.8116 68.1561 51.757C68.9648 51.3271 69.753 50.8768 70.5207 50.3855C71.2987 49.8942 72.0459 49.3824 72.7829 48.8297C72.8341 48.7887 72.8955 48.758 72.9365 48.6966C72.957 48.6761 72.9877 48.6659 73.0081 48.6454C73.5097 48.2667 74.0113 47.8778 74.4822 47.4684C74.7893 47.2022 75.0861 46.9464 75.3932 46.6802C75.4342 46.6393 75.5058 46.6086 75.4546 46.5369C75.3011 46.1685 75.1885 45.7897 75.1168 45.3906C75.1168 45.3394 75.1168 45.2882 75.0964 45.237C75.0861 44.9811 75.0759 44.7253 75.0554 44.4796C75.0759 44.2749 75.0759 44.0702 75.1066 43.8655C75.2294 42.8829 75.557 41.9617 76.0279 41.1019C76.6932 39.8941 77.594 38.8808 78.7098 38.0722C79.3956 37.5707 80.1327 37.1919 80.9413 36.9361C81.4838 36.7723 82.0366 36.6699 82.6099 36.6699C82.6508 36.6802 82.6917 36.6699 82.7327 36.6699C82.8862 36.6802 83.05 36.7006 83.2036 36.7109C83.265 36.7109 83.3264 36.7518 83.398 36.7109C83.4492 36.6802 83.4697 36.6085 83.5004 36.5573C83.8996 35.8409 84.2784 35.1039 84.6264 34.3669C85.5067 32.5041 86.2131 30.5798 86.7351 28.5839C86.7658 28.4611 86.7351 28.3997 86.643 28.3178C85.6603 27.4682 84.6776 26.6187 83.7051 25.7691C83.5823 25.6668 83.4492 25.5747 83.3571 25.4416C83.3162 25.1652 83.265 24.8991 83.265 24.6228C83.265 24.4283 83.265 24.2236 83.265 24.0291C83.3059 23.4559 83.4185 22.9032 83.6028 22.3607C84.1658 20.7026 85.1485 19.331 86.4997 18.2154C86.7351 18.0209 87.0013 17.8469 87.2367 17.6626C87.2367 17.6626 87.2572 17.6626 87.2674 17.6626V17.6012C87.2674 17.6012 87.2469 17.6012 87.2367 17.6012C87.2265 17.5501 87.2162 17.4886 87.206 17.4375C87.0831 16.8643 86.9398 16.2911 86.7658 15.7384C86.5816 15.1754 86.3871 14.6125 86.1414 14.07C85.9879 13.7322 85.8343 13.3944 85.6705 13.0567C85.3737 12.463 85.0256 11.9001 84.6469 11.3473C84.5752 11.245 84.5036 11.1631 84.4115 11.0812C83.3162 10.1293 82.2311 9.17743 81.1358 8.22553C81.1972 8.34835 81.2587 8.46094 81.2996 8.5633C81.5146 9.04436 81.7091 9.5152 81.8626 9.96556L81.9138 9.95532ZM83.3469 14.1928C83.3469 14.1928 83.2957 14.1519 83.2547 14.1416C83.2547 14.1416 83.3162 14.1723 83.3469 14.1928ZM72.1073 3.74239C72.1073 3.8038 72.1073 3.87545 72.1073 3.93686V3.99827C72.1073 4.01874 72.1073 4.03922 72.1073 4.05969C72.1073 4.4384 72.179 4.82735 72.3325 5.20606C72.6703 6.06584 73.2333 6.57761 74.1239 6.8335C74.2979 6.88468 74.4719 6.91539 74.6562 6.92562C74.9019 6.94609 75.1987 6.95633 75.4546 6.91539H75.5058L75.557 6.90515C75.8334 6.88468 76.1302 6.81303 76.4271 6.72091C76.4578 6.72091 76.4987 6.70044 76.5397 6.67997C76.5704 6.66973 76.6011 6.6595 76.6318 6.64926C76.6625 6.63903 76.7035 6.62879 76.7342 6.60832C76.857 6.55714 76.9799 6.50597 77.1129 6.45479C77.1641 6.29102 77.2255 6.13749 77.2869 5.98396C77.3484 5.82019 77.3586 5.82019 77.2255 5.71783C75.7617 4.44863 74.3082 3.17943 72.8444 1.9C72.742 1.80788 72.6396 1.726 72.5373 1.63388C72.4144 1.93071 72.3223 2.20706 72.2609 2.47319C72.1381 2.94402 72.0869 3.35344 72.0869 3.73215L72.1073 3.74239Z" fill="#024731"/>
<path d="M36.6811 25.8516L39.6087 19.0757C39.6087 19.0757 41.3489 19.393 43.2733 18.4309C45.1977 17.4688 47.8182 14.5926 48.0537 12.4738C48.2994 10.2527 47.7568 8.70719 47.7568 8.70719L53.4994 4.77677C53.4994 4.77677 54.5435 7.4687 59.1397 6.81363C64.135 6.09714 65.0768 1.21482 65.5783 1.22506C66.0799 1.23529 69.765 1.55259 70.2461 1.83918C70.3689 1.91083 69.3556 4.613 71.1264 6.94669C74.3611 11.1944 78.7116 8.1033 78.7116 8.1033L80.5541 12.4841C80.5541 12.4841 75.9887 9.61815 72.6005 12.3306C70.4508 14.0501 70.6249 16.8751 70.5839 16.7625C66.7862 7.9293 57.6759 11.5936 57.6759 11.5936C57.6759 11.5936 49.4663 14.8587 46.3852 21.8291C41.6969 32.4433 46.2521 36.5477 46.2521 36.5477C43.0174 37.3051 43.5599 41.4914 43.5599 41.4914C40.6733 40.2734 37.7559 42.167 37.7559 42.167L36.0157 38.1444C36.0157 38.1444 43.0072 32.7401 38.6158 26.9878C37.6331 25.7083 36.6913 25.8516 36.6913 25.8516H36.6811Z" fill="white"/>
<path d="M98.5276 80.8654C98.5276 80.8654 85.9369 75.6351 73.0186 85.6966C73.0186 85.6966 79.0683 75.021 67.9925 65.6146C67.9925 65.6146 80.4195 70.3024 93.2456 61.0291C93.2456 61.0291 86.3156 71.8787 98.5071 80.8552H98.5276V80.8654Z" fill="white"/>
<path d="M21.9811 34.4176C21.9811 34.4176 15.5629 29.1566 6.258 32.739C6.258 32.739 11.673 27.5803 6.86194 20.1494C6.86194 20.1494 13.2904 25.0726 22.4007 21.9201C22.4007 21.9201 16.4534 27.0276 21.9811 34.4074V34.4176Z" fill="white"/>
</g>
<defs>
<clipPath id="clip0_15980_16114">
<rect width="100" height="100" fill="white"/>
</clipPath>
</defs>
</svg>
