<svg width="100" height="100" viewBox="0 0 100 100" fill="none" xmlns="http://www.w3.org/2000/svg">
<g clip-path="url(#clip0_15980_16140)">
<rect width="100" height="100" fill="#F1F1F1"/>
<path d="M72.0291 88.6932C71.7818 85.4894 73.5291 82.3842 75.9358 81.7516C76.0512 81.7188 76.1666 81.7023 76.282 81.6859C75.4001 80.7987 74.238 80.4044 73.0099 80.7248C70.6032 81.3573 68.8558 84.4625 69.1031 87.6663C69.2926 90.0568 70.5372 91.8312 72.1609 92.3077L74.8396 93.2524C73.3396 92.6609 72.2022 90.9604 72.0291 88.6932Z" fill="black"/>
<path d="M80.741 86.4121C80.9882 89.6159 79.2409 92.7211 76.8342 93.3536C74.4275 93.9862 72.2763 91.8996 72.0208 88.6958C71.7736 85.492 73.5209 82.3868 75.9276 81.7543C78.3343 81.1217 80.4855 83.2083 80.741 86.4121Z" fill="#11B67A"/>
<path d="M97.8597 22.9767L71.2459 14.3593C70.8915 14.2443 70.1744 14.1128 69.4821 14.2279C69.4573 14.2279 64.1329 15.1808 64.1329 15.1808C62.501 15.4765 60.9432 16.8073 60.5723 18.4339L57.8112 29.5239L61.891 30.8957L64.2565 20.389C64.4049 19.7482 64.9159 19.2471 65.5753 19.1321L69.309 18.4585C69.8447 18.3599 70.3969 18.401 70.9162 18.5653L96.5822 26.8787C96.7965 26.9444 97.0108 26.9773 97.2169 26.9773C98.0823 26.9773 98.89 26.4269 99.1785 25.5561C99.5329 24.48 98.9394 23.3217 97.8597 22.9684V22.9767Z" fill="#11B67A"/>
<path d="M40.1318 78.2064V78.1818C40.0412 78.1654 39.967 78.1489 39.8846 78.1243L40.1318 78.2064Z" fill="black"/>
<path d="M43.2721 92.9454C43.5194 96.1492 41.772 99.2544 39.3653 99.887C36.9586 100.52 34.8074 98.4329 34.5519 95.2292C34.3046 92.0254 36.052 88.9202 38.4587 88.2876C40.8654 87.6551 43.0166 89.7417 43.2721 92.9454Z" fill="#11B67A"/>
<path d="M45.3327 0C45.3327 0 47.5086 7.19618 56.3442 9.18417C56.3442 9.18417 49.6516 10.3343 49.5197 18.3437C49.5197 18.3437 47.1625 11.4022 38.6978 9.17596C38.6978 9.17596 45.7695 8.33805 45.3327 0Z" fill="#006A4D"/>
<path d="M36.4147 74.8191L28.6588 51.6451C27.6615 48.7535 24.8509 47.9813 24.8509 47.9813L1.27018 40.7604C1.13007 40.7276 1.00647 40.6783 0.891079 40.6208L0.536623 40.5222L8.81176 66.4811C9.48761 68.4198 12.0015 69.2823 12.0015 69.2823L30.1507 75.0409L15.4302 77.6204C15.3725 77.6286 15.1005 77.7107 15.0675 77.7189C12.6196 78.4829 10.8723 81.8181 11.1443 85.2766C11.4163 88.7925 13.6828 91.0927 16.1967 90.4026C18.6611 89.7372 20.4497 86.4513 20.2601 83.0093L33.8678 88.1682C32.376 89.4579 31.4447 91.8074 31.626 94.2061C31.8156 96.5966 33.0601 98.371 34.6838 98.8475L37.3625 99.7922C35.8625 99.2007 34.725 97.5002 34.5519 95.2329C34.3541 92.6946 35.4173 90.2219 37.0575 88.9897L37.0081 87.2317C37.0823 85.638 38.6895 85.4491 38.6895 85.4491C37.7746 85.5723 36.8845 85.408 36.0191 85.0794L24.6614 80.7748C24.1091 80.5695 24.1916 79.7726 24.7685 79.6741L37.7169 77.4643L39.4313 78.0229C38.3021 77.5547 36.9999 76.5853 36.4147 74.852V74.8191Z" fill="black"/>
<path d="M58.38 30.8028C58.38 30.8028 58.2975 30.7946 58.2563 30.7864C58.2975 30.7864 58.3388 30.7946 58.38 30.8028Z" fill="#11B67A"/>
<path d="M58.2646 30.7835C58.1987 30.7835 58.1327 30.7671 58.0586 30.7671C57.8031 30.7671 57.5476 30.7917 57.2921 30.841L4.72369 40.3867L25.6752 46.7942C26.2274 46.9585 26.8044 47.0407 27.3896 47.0407C27.7192 47.0407 28.0489 47.016 28.3704 46.9585L55.8002 42.1857L58.2646 30.7835Z" fill="#11B67A"/>
<path d="M97.3983 23.1006L91.8183 24.1028C90.1864 24.3985 88.7441 25.7129 88.2578 27.3559L85.1175 37.9694L59.7729 29.6642C59.2207 29.4835 58.6355 29.3931 58.0586 29.3931C57.7206 29.3931 57.3745 29.426 57.0366 29.4835L1.02298 39.6534C1.02298 39.6534 0.635612 39.6945 0.520222 40.0313C0.404832 40.3764 0.800432 40.6557 1.27023 40.7624L24.851 47.9833C24.851 47.9833 27.6616 48.7555 28.6589 51.6471L36.4147 74.8211C37.2637 77.3759 39.7693 78.7643 42.6128 78.2549L72.9356 72.8003C73.8422 72.636 74.6005 73.4821 74.345 74.3611L73.323 77.8195C73.0592 78.715 72.3092 79.3803 71.3943 79.5446L38.4999 85.4593C37.6428 85.6154 37.0246 86.3547 37.0246 87.2173L37.2224 94.1178C37.2472 94.9392 37.89 95.6621 38.7143 95.6704C39.3571 95.6704 39.9094 95.2843 40.1319 94.7092L42.0936 89.6653C42.4068 88.8603 43.1155 88.277 43.9645 88.1292L71.3201 83.307C72.0702 83.1756 72.812 83.5699 73.1169 84.26L75.0291 88.5974C75.3423 89.3121 76.183 89.6242 76.8754 89.2792C77.7078 88.8603 78.1611 87.9484 78.0045 87.0366L76.8836 80.6372C76.727 79.75 76.7847 78.8464 77.0484 77.9838L92.1728 28.2348L97.39 27.2983C98.5604 27.0848 99.5 25.9758 99.5 24.8175C99.5 23.6592 98.5522 22.887 97.39 23.0924L97.3983 23.1006ZM28.3704 46.9646C28.0489 47.0221 27.7192 47.0468 27.3896 47.0468C26.8044 47.0468 26.2274 46.9646 25.6752 46.8004L4.72369 40.3928L57.2921 30.8472C57.5393 30.7979 57.8031 30.7732 58.0586 30.7732C58.4954 30.7732 58.9322 30.8389 59.3443 30.9786L80.4524 37.9037L28.3704 46.9646Z" fill="#6CF479"/>
<path d="M59.3443 30.9689C58.9981 30.8539 58.6272 30.7964 58.2646 30.7799L55.8002 42.1821L80.4524 37.894L59.3443 30.9689Z" fill="#00482F"/>
<path d="M79.5294 45.3302C79.2327 44.4348 78.1942 43.983 77.3206 44.4348C76.6365 44.788 76.3562 45.6259 76.5952 46.3653L77.8068 50.0702C78.2766 51.516 80.3289 51.4995 80.774 50.0455C80.8647 49.7416 80.8647 49.413 80.774 49.109L79.5377 45.3302H79.5294Z" fill="#00482F"/>
<path d="M43.7008 50.2613C42.8849 50.5242 42.4315 51.4032 42.7035 52.2165L48.9346 71.2995C49.1489 71.9567 49.7588 72.3757 50.4181 72.3757C50.5747 72.3757 50.7396 72.351 50.9044 72.3017C51.7204 72.0389 52.1737 71.1599 51.9017 70.3466L45.6707 51.2636C45.4069 50.4503 44.525 50.0067 43.709 50.2696L43.7008 50.2613Z" fill="#00482F"/>
<path d="M43.6432 73.5564C43.7998 73.5564 43.9646 73.5317 44.1294 73.4824C44.9454 73.2195 45.3987 72.3406 45.1267 71.5273L38.8957 52.4443C38.6319 51.631 37.75 51.1874 36.9341 51.4503C36.1181 51.7131 35.6648 52.5921 35.9367 53.4054L42.1678 72.4884C42.3821 73.1456 42.992 73.5646 43.6514 73.5646L43.6432 73.5564Z" fill="#00482F"/>
<path d="M57.1849 71.1884C57.3415 71.1884 57.5064 71.1637 57.6712 71.1144C58.4872 70.8516 58.9405 69.9726 58.6685 69.1593L52.4375 50.0763C52.1737 49.263 51.2918 48.8194 50.4758 49.0823C49.6599 49.3451 49.2065 50.2241 49.4785 51.0374L55.7096 70.1204C55.9239 70.7776 56.5338 71.1966 57.1932 71.1966L57.1849 71.1884Z" fill="#00482F"/>
<path d="M77.2795 60.3828L72.7792 46.5901C72.5402 45.8507 71.8149 45.3332 71.0484 45.4564C70.0676 45.6043 69.4989 46.5736 69.7956 47.4773L74.3205 61.3439C74.7903 62.7897 76.8426 62.7733 77.2877 61.3192C77.3784 61.0153 77.3784 60.6867 77.2877 60.3828H77.2795Z" fill="#00482F"/>
<path d="M65.9792 47.7017C65.7155 46.8884 64.8336 46.4448 64.0176 46.7077C63.2016 46.9705 62.7483 47.8495 63.0203 48.6628L69.2514 67.7458C69.4657 68.403 70.0756 68.822 70.735 68.822C70.8916 68.822 71.0564 68.7973 71.2212 68.7481C72.0372 68.4852 72.4905 67.6062 72.2185 66.7929L65.9875 47.7099L65.9792 47.7017Z" fill="#00482F"/>
<path d="M63.96 70.0076C64.1166 70.0076 64.2815 69.9829 64.4463 69.9336C65.2623 69.6707 65.7156 68.7918 65.4436 67.9785L59.2125 48.8954C58.9488 48.0822 58.0669 47.6386 57.2509 47.9015C56.4349 48.1643 55.9816 49.0433 56.2536 49.8566L62.4847 68.9396C62.699 69.5968 63.3089 70.0158 63.9683 70.0158L63.96 70.0076Z" fill="#00482F"/>
</g>
<defs>
<clipPath id="clip0_15980_16140">
<rect width="100" height="100" fill="white"/>
</clipPath>
</defs>
</svg>
