<svg width="100" height="100" viewBox="0 0 100 100" fill="none" xmlns="http://www.w3.org/2000/svg">
<path d="M20.8027 0C21.489 5.33344 25.0743 8.84541 29.8075 8.8097C25.0033 10.8574 21.134 15.9884 20.0809 21.7147C19.3945 16.3813 15.8092 12.8693 11.076 12.905C15.8802 10.8455 19.7495 5.7144 20.8027 0Z" fill="white"/>
<path d="M89.6225 44.3654C90.101 48.0842 92.6009 50.5329 95.9012 50.508C92.5514 51.9357 89.8535 55.5134 89.1192 59.5061C88.6407 55.7873 86.1408 53.3386 82.8406 53.3635C86.1903 51.9274 88.8882 48.3498 89.6225 44.3654Z" fill="white"/>
<path d="M23.0184 86.7407C23.3159 89.0522 24.8698 90.5744 26.9212 90.5589C24.839 91.4464 23.162 93.6703 22.7056 96.1521C22.4081 93.8405 20.8542 92.3184 18.8027 92.3339C20.8849 91.4412 22.562 89.2174 23.0184 86.7407Z" fill="white"/>
<path d="M44.0836 53.3867C44.0206 53.5036 43.9397 53.6384 43.8677 53.7553L4.1174 76.5218L21.0736 53.3867H44.0836Z" fill="#6CF479"/>
<path d="M55.9659 73.7539L44.389 99.9282V53.4691L55.9659 73.7539Z" fill="#11B67A"/>
<path d="M84.7061 76.6657L44.578 53.3867H67.7139L67.7049 53.4046L84.7061 76.6657Z" fill="#11B67A"/>
<path d="M44.389 53.4691L44.3883 53.397H44.0825L43.7766 53.9275C39.8817 60.4913 35.9867 67.0641 32.1007 73.6279L32.7214 73.5649L44.3613 100L44.3883 99.9371V53.4779L44.389 53.4691Z" fill="#6CF479"/>
<path d="M84.724 76.6747L84.7061 76.6657L44.578 53.3867H44.389V53.4676L44.416 53.5125L55.9659 73.7524L56.0379 73.5816L84.7599 76.7197L84.724 76.6747Z" fill="#6CF479"/>
<path d="M44.6856 53.3866C44.7486 53.2697 44.8295 53.1349 44.9015 53.018L84.6518 30.2604L67.6956 53.3956H44.6856V53.3866Z" fill="#6CF479"/>
<path d="M32.8125 33.0222L44.3804 6.84788V53.3161L32.8125 33.0222Z" fill="#11B67A"/>
<path d="M4.06333 30.1183L44.1914 53.3884H21.0645L21.0735 53.3704L4.06333 30.1183Z" fill="#11B67A"/>
<path d="M44.3804 53.3161L44.3799 53.3873L44.6856 53.3866L44.9916 52.8568C48.8866 46.293 52.7816 39.7202 56.6675 33.1564L56.0469 33.2193L44.4069 6.78427L44.3804 6.84788L44.3799 53.3064L44.3804 53.3161Z" fill="#6CF479"/>
<path d="M4.0545 30.1076L4.0635 30.1166L44.1916 53.3867L44.3799 53.3873L44.3805 53.3147L44.3535 53.2608L32.8125 33.0209L32.7316 33.2007L4.01852 30.0627L4.0545 30.1076Z" fill="#6CF479"/>
<path d="M44.3804 6.84788L44.3799 53.3873L52.6377 39.9636L46.6468 43.4434L44.3804 6.84788Z" fill="#C7FFC6"/>
<path d="M44.3799 53.3873L35.9335 67.1527L42.3111 62.3782L44.3891 99.9268L44.3799 53.3873Z" fill="#C7FFC6"/>
<path d="M32.8125 33.0222L35.0613 27.9243L44.3804 53.3883L32.8125 33.0222Z" fill="#006A4D"/>
<path d="M55.9659 73.7524C55.3093 75.2361 54.6526 76.7286 53.996 78.2122C50.7936 69.94 47.5913 61.6589 44.389 53.3867L55.9659 73.7524Z" fill="#006A4D"/>
<path d="M44.389 53.4676C42.2751 56.5876 40.1162 59.9958 37.9753 63.7003C36.0053 67.1081 34.2602 70.4169 32.722 73.564C23.151 74.598 13.58 75.641 4 76.675L4.10794 76.5222C17.529 68.8344 30.959 61.1467 44.38 53.4589L44.389 53.4676Z" fill="#11B67A"/>
<path d="M44.389 53.4691C46.5119 50.2681 54.4817 36.3933 56.0469 33.2193C65.6179 32.1853 75.189 31.1421 84.769 30.1081L84.661 30.2609C71.24 37.9936 57.819 45.7353 44.398 53.468L44.389 53.4691Z" fill="#11B67A"/>
<path d="M4.1174 76.5218L32.7225 73.5546L44.3891 99.9268L31.0224 76.7196L4.1174 76.5218Z" fill="#01482F"/>
<path d="M55.9659 73.7524L44.3891 99.9268L57.8819 76.7196L84.7061 76.6657L55.9659 73.7524Z" fill="#01482F"/>
</svg>
