<svg width="100" height="100" viewBox="0 0 100 100" fill="none" xmlns="http://www.w3.org/2000/svg">
<rect width="100" height="100" fill="#F1F1F1"/>
<path d="M20.8542 0C21.5405 5.33344 25.1258 8.84541 29.859 8.8097C25.0548 10.8574 21.1855 15.9884 20.1324 21.7147C19.446 16.3813 15.8607 12.8693 11.1275 12.905C15.9317 10.8455 19.801 5.7144 20.8542 0Z" fill="#006A4D"/>
<path d="M89.6736 44.3654C90.1522 48.0842 92.6521 50.5329 95.9523 50.508C92.6026 51.9357 89.9046 55.5134 89.1703 59.5061C88.6918 55.7873 86.1919 53.3386 82.8917 53.3635C86.2414 51.9274 88.9393 48.3498 89.6736 44.3654Z" fill="#006A4D"/>
<path d="M23.0705 86.7406C23.3679 89.0522 24.9219 90.5744 26.9733 90.5589C24.8911 91.4464 23.2141 93.6702 22.7576 96.1521C22.4602 93.8405 20.9062 92.3184 18.8548 92.3339C20.937 91.4412 22.614 89.2173 23.0705 86.7406Z" fill="#006A4D"/>
<path d="M44.1344 53.3867C44.0714 53.5035 43.9905 53.6384 43.9185 53.7553L4.1682 76.5218L21.1244 53.3867H44.1344Z" fill="#6CF479"/>
<path d="M56.0173 73.7539L44.4403 99.9282V53.4691L56.0173 73.7539Z" fill="#11B67A"/>
<path d="M84.7579 76.6657L44.6298 53.3867H67.7658L67.7568 53.4046L84.7579 76.6657Z" fill="#11B67A"/>
<path d="M44.4403 53.4691L44.4396 53.397H44.1338L43.828 53.9275C39.933 60.4913 36.038 67.0641 32.152 73.6279L32.7727 73.5649L44.4126 100L44.4396 99.9371V53.4779L44.4403 53.4691Z" fill="#6CF479"/>
<path d="M84.7753 76.6747L84.7579 76.6657L44.6298 53.3867H44.4403V53.4676L44.4673 53.5125L56.0173 73.7524L56.0892 73.5816L84.8113 76.7196L84.7753 76.6747Z" fill="#6CF479"/>
<path d="M44.7369 53.3866C44.7999 53.2697 44.8809 53.1349 44.9528 53.018L84.7031 30.2604L67.7469 53.3956H44.7369V53.3866Z" fill="#6CF479"/>
<path d="M32.8628 33.0222L44.4307 6.84788V53.316L32.8628 33.0222Z" fill="#11B67A"/>
<path d="M4.11464 30.1183L44.2427 53.3883H21.1158L21.1248 53.3704L4.11464 30.1183Z" fill="#11B67A"/>
<path d="M44.43 53.3873H44.7358L45.0417 52.8568C48.9366 46.293 52.8316 39.7202 56.7176 33.1564L56.0969 33.2193L44.457 6.78428L44.43 6.84722V53.3873Z" fill="#6CF479"/>
<path d="M4.1053 30.1076L4.1143 30.1166L44.2424 53.3867H44.4313V53.3147L44.4043 53.2608L32.8633 33.0209L32.7824 33.2007L4.06932 30.0627L4.1053 30.1076Z" fill="#6CF479"/>
<path d="M44.43 6.84722V53.3873L52.6877 39.9636L46.6968 43.4434L44.43 6.84722Z" fill="#C7FFC6"/>
<path d="M44.43 53.3873L35.9837 67.1527L42.3614 62.3782L44.4393 99.9268L44.43 53.3873Z" fill="#C7FFC6"/>
<path d="M32.8628 33.0222L35.1116 27.9243L44.4307 53.3883L32.8628 33.0222Z" fill="#006A4D"/>
<path d="M56.0173 73.7524C55.3606 75.236 54.7039 76.7286 54.0473 78.2122C50.8449 69.94 47.6426 61.6589 44.4403 53.3867L56.0173 73.7524Z" fill="#006A4D"/>
<path d="M44.4403 53.4676C42.3264 56.5876 40.167 59.9958 38.0261 63.7003C36.0561 67.108 34.3109 70.4179 32.7727 73.5649C23.2017 74.599 13.6308 75.641 4.05078 76.675L4.15872 76.5222C17.5797 68.8344 31.0097 61.1467 44.4308 53.4589L44.4403 53.4676Z" fill="#11B67A"/>
<path d="M44.4403 53.4691C46.5632 50.2681 54.533 36.3932 56.0982 33.2192C65.6692 32.1851 75.2402 31.1421 84.8202 30.1081L84.7123 30.261C71.2913 37.9937 57.8703 45.7354 44.4493 53.4681L44.4403 53.4691Z" fill="#11B67A"/>
<path d="M4.1682 76.5218L32.7733 73.5546L44.4393 99.9268L31.0732 76.7196L4.1682 76.5218Z" fill="black"/>
<path d="M56.0173 73.7524L44.4393 99.9268L57.9332 76.7196L84.7579 76.6657L56.0173 73.7524Z" fill="black"/>
</svg>
