<svg width="100" height="100" viewBox="0 0 100 100" fill="none" xmlns="http://www.w3.org/2000/svg">
<g clip-path="url(#clip0_15980_16226)">
<path d="M53.4162 19.4165C31.2565 19.4165 13.0985 32.7197 11.4094 49.6235C12.817 66.1744 31.1158 79.3162 53.4162 79.3162C75.7167 79.3162 94.0155 66.1744 95.4231 49.6235C93.7339 32.7197 75.5859 19.4165 53.4162 19.4165Z" fill="#6CF479"/>
<path d="M53.4164 14.3815C29.8692 14.3815 10.7861 29.2278 10.7861 47.5336C10.7861 48.7943 10.8867 50.0449 11.0677 51.2754C11.1682 50.5896 11.2989 49.9138 11.4598 49.2381C13.3801 32.5259 31.4276 19.4143 53.4264 19.4143C75.4252 19.4143 93.4727 32.5158 95.3931 49.2381C95.5439 49.9138 95.6846 50.5896 95.7851 51.2754C95.9661 50.0449 96.0667 48.8044 96.0667 47.5336C96.0667 29.2278 76.9836 14.3815 53.4365 14.3815H53.4164Z" fill="#00482F"/>
<path d="M87.9729 39.0748C87.8723 38.8933 87.6813 38.7621 87.4501 38.6915C87.2088 38.6209 86.9272 38.6109 86.6759 38.6915L55.6282 47.8192C55.3065 47.5469 54.8942 47.3149 54.4016 47.1636C52.7326 46.6492 50.772 47.204 50.038 48.4042C49.8772 48.6664 49.7967 48.9286 49.7766 49.1909H49.7666V49.2716C49.7666 49.2716 49.7666 49.3522 49.7666 49.3926V50.0683C49.7364 50.9962 50.4804 51.8737 51.7372 52.257C53.4163 52.7713 55.3769 52.2166 56.1209 51.0164C56.1913 50.9055 56.2415 50.8046 56.2818 50.6936C56.3622 50.4818 56.3923 50.2801 56.3923 50.0683H56.4024V49.1909H56.3823C56.3823 49.1909 56.3823 49.1505 56.3823 49.1303L87.4299 40.0027C87.9427 39.8514 88.1941 39.4379 87.9829 39.0647L87.9729 39.0748Z" fill="#024731"/>
<path d="M63.3702 30.8368L65.2202 31.4016L68.8699 25.4813L67.03 24.9165L63.3702 30.8368Z" fill="#00482F"/>
<path d="M37.239 73.2051L39.079 73.7699L42.7387 67.8495L40.8887 67.2847L37.239 73.2051Z" fill="#00482F"/>
<path d="M78.884 56.474L78.0696 57.7953L86.3343 60.3369L87.1487 59.0056L78.884 56.474Z" fill="#00482F"/>
<path d="M18.9604 39.6723L27.225 42.2039L28.0394 40.8826L19.7748 38.3511L18.9604 39.6723Z" fill="#00482F"/>
<path d="M76.9333 29.1449L75.3749 28.2574L71.1018 32.0698L72.6602 32.9574L76.9333 29.1449Z" fill="#11B67A"/>
<path d="M29.1755 69.5471L30.7339 70.4347L35.007 66.6121L33.4486 65.7246L29.1755 69.5471Z" fill="#11B67A"/>
<path d="M77.8785 37.079L83.3883 34.1743L82.2019 33.0245L76.7022 35.9393L77.8785 37.079Z" fill="#11B67A"/>
<path d="M28.2304 61.6036L22.7207 64.5184L23.9071 65.6682L29.4068 62.7534L28.2304 61.6036Z" fill="#11B67A"/>
<path d="M24.6912 56.6395L18.347 58.4448L19.0709 59.7762L25.4151 57.9708L24.6912 56.6395Z" fill="#11B67A"/>
<path d="M83.0063 47.5128L89.7728 46.9379L89.5617 45.5057L82.7951 46.0907L83.0063 47.5128Z" fill="#11B67A"/>
<path d="M23.1027 51.179L16.3361 51.7539L16.5473 53.176L23.3138 52.6011L23.1027 51.179Z" fill="#11B67A"/>
<path d="M82.5537 53.0874L89.2901 53.7833L89.5917 52.3612L82.8654 51.6754L82.5537 53.0874Z" fill="#11B67A"/>
<path d="M23.555 45.5927L16.8186 44.9069L16.517 46.3189L23.2433 47.0148L23.555 45.5927Z" fill="#11B67A"/>
<path d="M46.3984 75.2396L48.3791 75.4413L49.4247 70.6304L47.444 70.4287L46.3984 75.2396Z" fill="#11B67A"/>
<path d="M56.6839 28.0547L58.6646 28.2564L59.7103 23.4455L57.7296 23.2539L56.6839 28.0547Z" fill="#11B67A"/>
<path d="M55.2663 70.6789L55.9902 75.5L58.0011 75.3386L57.2671 70.5075L55.2663 70.6789Z" fill="#11B67A"/>
<path d="M48.1077 23.3544L48.8417 28.1754L50.8425 28.004L50.1186 23.183L48.1077 23.3544Z" fill="#11B67A"/>
<path d="M62.9479 69.474L65.4012 73.9823L67.2813 73.4478L64.818 68.9394L62.9479 69.474Z" fill="#11B67A"/>
<path d="M38.8277 25.2282L41.291 29.7365L43.1611 29.202L40.7079 24.7037L38.8277 25.2282Z" fill="#11B67A"/>
<path d="M69.9456 66.9049L73.9674 70.788L75.5962 69.9307L71.5744 66.0477L69.9456 66.9049Z" fill="#11B67A"/>
<path d="M30.5128 28.7623L34.5345 32.6453L36.1633 31.7881L32.1416 27.8949L30.5128 28.7623Z" fill="#11B67A"/>
<path d="M75.7974 63.1351L81.106 66.1305L82.3628 65.011L77.0542 62.0055L75.7974 63.1351Z" fill="#11B67A"/>
<path d="M30.3117 35.5573L25.003 32.5517L23.7463 33.6814L29.0549 36.6768L30.3117 35.5573Z" fill="#11B67A"/>
<path d="M53.4162 15.8228C76.6316 15.8228 95.5136 30.064 95.5136 47.5629C95.5136 65.0618 76.6316 79.3029 53.4162 79.3029C30.2009 79.3029 11.3189 65.0618 11.3189 47.5629C11.3189 30.064 30.2009 15.8228 53.4162 15.8228ZM53.4162 11.3952C27.7275 11.3952 6.895 27.593 6.895 47.573C6.895 67.553 27.7174 83.7508 53.4162 83.7508C79.115 83.7508 99.9375 67.553 99.9375 47.573C99.9375 27.593 79.115 11.3952 53.4162 11.3952Z" fill="#11B67A"/>
<path d="M70.8203 12.4548C70.7399 12.1623 70.6896 11.8698 70.6997 11.5673C70.7901 9.62071 73.0121 8.02715 75.6665 8.02715C75.7771 8.02715 75.8877 8.02715 76.0083 8.02715C78.8135 8.16835 81.0958 10.0241 81.0053 12.0917C80.945 13.4836 79.7787 14.6838 78.1499 15.2587C79.5977 15.9445 80.9852 16.6808 82.3325 17.4776C83.9211 16.1563 84.9365 14.3308 85.027 12.2632C85.2181 7.93638 81.2667 4.23489 76.2094 3.98274C76.0284 3.98274 75.8474 3.97266 75.6765 3.97266C70.8605 3.97266 66.8991 7.17994 66.698 11.3353C68.1056 11.658 69.4831 12.0211 70.8304 12.4346L70.8203 12.4548Z" fill="#11B67A"/>
<path d="M20.5489 53.9138C20.5489 43.4044 30.0905 34.4986 43.3018 31.372C43.5934 27.378 47.4442 24.0699 52.6322 23.0411C52.592 23.0411 52.5518 23.0411 52.5216 23.0411C32.423 23.0411 16.1351 34.8214 16.1351 49.355C16.1351 56.8992 20.5288 63.6869 27.5467 68.4878C23.163 64.4636 20.5489 59.4106 20.5489 53.9138Z" fill="white"/>
<path d="M5.5478 50.5013C1.96847 54.9391 -0.0625 60.0022 -0.0625 65.3779C-0.0625 82.8263 21.2828 96.6742 47.6049 96.9666C57.2671 97.0776 67.613 95.6656 76.9031 91.6111V80.4259C69.9556 83.492 61.9424 85.257 53.4163 85.257C28.1901 85.257 7.46817 69.9165 5.5478 50.5013Z" fill="#024731"/>
<path d="M86.1128 86.4087C86.7563 85.9447 87.3998 85.4707 88.0232 84.9664C88.6566 84.4218 89.2599 83.857 89.843 83.2821V72.107C88.6667 73.1761 87.4199 74.1948 86.1128 75.163V86.4188V86.4087Z" fill="#024731"/>
<path d="M93.1609 68.6945V79.5872C97.4541 74.1106 99.9375 67.6759 99.9375 60.7873V56.9547C98.54 61.2008 96.2174 65.1645 93.1609 68.6945Z" fill="#024731"/>
</g>
<defs>
<clipPath id="clip0_15980_16226">
<rect width="100" height="100" fill="white"/>
</clipPath>
</defs>
</svg>
