<svg width="100" height="100" viewBox="0 0 100 100" fill="none" xmlns="http://www.w3.org/2000/svg">
<g clip-path="url(#clip0_15980_16240)">
<path d="M66.7884 73.8388C66.7884 79.6702 71.533 84.4155 77.3637 84.4155C83.1944 84.4155 87.939 79.6702 87.939 73.8388C87.939 69.61 85.4199 65.7906 81.5298 64.1168L80.4615 63.6539L81.4051 62.9772C89.7728 56.9856 94.375 48.884 94.375 40.168C94.375 22.8875 75.8949 8.82993 53.1864 8.82993C30.478 8.82993 11.9979 22.8875 11.9979 40.168C11.9979 57.4486 30.478 71.5063 53.1864 71.5063C57.7174 71.5063 62.1862 70.9454 66.4857 69.8236L67.6341 69.5298L67.278 70.6604C66.9575 71.6843 66.7884 72.7616 66.7884 73.8388Z" fill="#6CF479"/>
<path d="M67.5718 99.3984C70.3053 99.3984 72.5212 97.1823 72.5212 94.4485C72.5212 91.7147 70.3053 89.4984 67.5718 89.4984C64.8383 89.4984 62.6224 91.7147 62.6224 94.4485C62.6224 97.1823 64.8383 99.3984 67.5718 99.3984Z" fill="#6CF479"/>
<path d="M26.0271 15.0676C33.3978 10.349 42.8693 7.50895 53.1865 7.50895C57.6107 7.50895 61.8746 8.03426 65.8893 8.99578C60.2634 6.85018 53.9343 5.63046 47.2223 5.63046C36.6737 5.63046 27.042 8.62184 19.6891 13.5451L26.0271 15.0586V15.0676Z" fill="#024731"/>
<path d="M20.4725 19.3442C21.4427 18.445 22.4843 17.5904 23.5704 16.7802L17.3035 15.2845C16.262 16.1036 15.2739 16.9583 14.3481 17.8575L20.4725 19.3442Z" fill="#024731"/>
<path d="M65.4711 73.8338C65.4711 72.997 65.5601 72.169 65.7293 71.3588C63.9222 71.7861 62.0706 72.1066 60.2101 72.347C60.6641 77.2614 64.2782 81.2499 68.9962 82.2738C66.8152 80.1192 65.4711 77.1279 65.4711 73.8338Z" fill="#024731"/>
<path d="M10.6805 40.1631C10.6805 34.2248 12.7635 28.6517 16.3954 23.8441L10.4223 22.3929C7.20875 26.9245 5.375 32.1149 5.375 37.6347C5.375 49.342 13.6003 59.5714 25.8669 65.1446C16.5913 59.153 10.6894 50.1788 10.6894 40.1631H10.6805Z" fill="#024731"/>
<path d="M61.305 94.4463C61.305 91.4906 63.3613 89.0155 66.112 88.3567C65.1684 87.6444 64.0023 87.2171 62.7383 87.2171C59.6405 87.2171 57.1301 89.7277 57.1301 92.8259C57.1301 95.9241 59.6405 98.4348 62.7383 98.4348C61.8392 97.3486 61.305 95.9598 61.305 94.4463Z" fill="#024731"/>
<path d="M56.5959 13.4137C56.5959 13.4137 70.6874 12.8262 81.0046 22.3077C91.3217 31.7893 89.0072 46.0873 89.0072 46.0873C89.0072 46.0873 87.7877 23.0466 68.6489 22.3789C68.6489 22.3789 67.465 15.6483 56.587 13.4137H56.5959Z" fill="white"/>
<path d="M22.7245 68.9244C22.7245 68.9244 25.0746 76.7233 34.6173 78.8778C34.6173 78.8778 27.389 80.1242 27.2466 88.8045C27.2466 88.8045 24.7007 81.2817 15.5586 78.869C15.5586 78.869 23.1963 77.9608 22.7245 68.9244Z" fill="white"/>
<path d="M81.8947 -0.592651C81.8947 -0.592651 83.5327 4.82922 90.1645 6.32491C90.1645 6.32491 85.135 7.18849 85.0371 13.2246C85.0371 13.2246 83.2656 7.99864 76.9098 6.316C76.9098 6.316 82.2241 5.68388 81.8947 -0.601562V-0.592651Z" fill="white"/>
</g>
<defs>
<clipPath id="clip0_15980_16240">
<rect width="100" height="100" fill="white"/>
</clipPath>
</defs>
</svg>
