<svg width="100" height="100" viewBox="0 0 100 100" fill="none" xmlns="http://www.w3.org/2000/svg">
<g clip-path="url(#clip0_15980_16254)">
<path d="M22.4834 78.2608H14.8131V98.5H22.4834V78.2608Z" fill="#024731"/>
<path d="M31.89 14.6765H8.21338C6.66322 14.6765 5.40657 15.937 5.40657 17.4918V80.0777C5.40657 81.6325 6.66322 82.8929 8.21338 82.8929H31.89C33.4402 82.8929 34.6969 81.6325 34.6969 80.0777V17.4918C34.6969 15.937 33.4402 14.6765 31.89 14.6765Z" fill="#11B67A"/>
<path d="M74.4474 77.0125H66.7771V98.4945H74.4474V77.0125Z" fill="#024731"/>
<path d="M85.2785 27.6087H55.9376L41.2714 53.0979L55.9376 78.5786H85.2785L99.9531 53.0979L85.2785 27.6087Z" fill="#6CF479"/>
<path d="M85.2785 25.3829H55.9376L41.2714 50.8721V53.0955L55.9376 27.6063H85.2785L99.9531 53.0955V50.8721L85.2785 25.3829Z" fill="#024731"/>
<path d="M83.3397 30.9904H57.893L45.1654 53.0979L57.893 75.2054H83.3397L96.0673 53.0979L83.3397 30.9904ZM82.6064 73.9289H58.6179L46.6236 53.0895L58.6179 32.25H82.6064L94.6007 53.0895L82.6064 73.9289ZM62.0653 55.1607H61.981L60.3037 48.7356H58.483L56.8057 55.1438H56.7298L55.2042 48.7356H53.0801L55.7099 57.959H57.6064L59.3512 51.9312H59.4271L61.1803 57.959H63.0768L65.7066 48.7356H63.5825L62.0569 55.1607H62.0653ZM69.1287 48.744L65.951 57.9675H68.0329L68.7157 55.8624H72.0366L72.7194 57.9675H74.8013L71.6321 48.744H69.1287ZM69.213 54.3407L70.3424 50.8491H70.4183L71.5478 54.3407H69.213ZM80.3643 48.744V50.3503H83.1796V57.9675H85.1014V50.3503H87.9166V48.744H80.3643ZM76.5377 57.9675H78.4847V48.744H76.5377V57.9675Z" fill="#00482F"/>
<path d="M5.65103 16.3433C6.08933 15.3627 7.06708 14.6779 8.21341 14.6779H31.8901C32.2357 14.6779 32.556 14.7455 32.8594 14.8639L28.6702 12.0994C27.7515 11.4907 26.681 11.1694 25.5853 11.1694H3.45953C2.11934 11.1694 0.964588 11.9303 0.374568 13.0378L5.65103 16.3433Z" fill="#024731"/>
<path d="M5.4066 18.6817L-0.046875 15.2578V18.9691L5.4066 22.4776V18.6817Z" fill="#024731"/>
<path d="M6.82255 82.5077L6.95742 82.6092H6.99956C6.94056 82.5753 6.87313 82.5415 6.81413 82.5077H6.82255Z" fill="#024731"/>
<path d="M5.40657 80.0777L5.4066 28.4998L-0.046875 24.9998V75.6147C-0.046875 76.7222 0.475714 77.7705 1.36074 78.4384L6.21577 82.0736C5.71004 81.5664 5.39817 80.8647 5.39817 80.0954L5.40657 80.0777Z" fill="#024731"/>
<path d="M20.0476 36.5466C24.4886 36.5466 28.0887 32.9356 28.0887 28.4813C28.0887 24.027 24.4886 20.4161 20.0476 20.4161C15.6066 20.4161 12.0064 24.027 12.0064 28.4813C12.0064 32.9356 15.6066 36.5466 20.0476 36.5466Z" fill="#024731"/>
<path d="M19.761 24.9029C19.761 24.9029 26.6221 24.2096 24.7678 32.5961C25.7287 31.4971 26.3102 30.0599 26.3102 28.479C26.3102 25.0128 23.5119 22.206 20.056 22.206C19.1541 22.206 18.3028 22.4004 17.5274 22.7471C17.5274 22.7471 19.5924 22.8147 19.7695 24.9113L19.761 24.9029Z" fill="white"/>
<path d="M20.0476 56.8497C24.4886 56.8497 28.0887 53.2388 28.0887 48.7845C28.0887 44.3302 24.4886 40.7192 20.0476 40.7192C15.6066 40.7192 12.0064 44.3302 12.0064 48.7845C12.0064 53.2388 15.6066 56.8497 20.0476 56.8497Z" fill="#6CF479"/>
<path d="M19.761 45.272C19.761 45.272 26.6221 44.5788 24.7678 52.9653C25.7287 51.8662 26.3102 50.429 26.3102 48.8481C26.3102 45.3819 23.5119 42.5752 20.056 42.5752C19.1541 42.5752 18.3028 42.7696 17.5274 43.1162C17.5274 43.1162 19.5924 43.1839 19.7695 45.2805L19.761 45.272Z" fill="white"/>
<path d="M20.0476 77.1593C24.4886 77.1593 28.0887 73.5484 28.0887 69.0941C28.0887 64.6398 24.4886 61.0288 20.0476 61.0288C15.6066 61.0288 12.0064 64.6398 12.0064 69.0941C12.0064 73.5484 15.6066 77.1593 20.0476 77.1593Z" fill="#024731"/>
<path d="M19.761 65.6346C19.761 65.6346 26.6221 64.9413 24.7678 73.3278C25.7287 72.2288 26.3102 70.7916 26.3102 69.2107C26.3102 65.7445 23.5119 62.9377 20.056 62.9377C19.1541 62.9377 18.3028 63.1322 17.5274 63.4788C17.5274 63.4788 19.5924 63.5464 19.7695 65.643L19.761 65.6346Z" fill="white"/>
<path d="M69.4407 1.50329C68.0162 1.54556 66.6507 2.12044 65.5213 2.99967C64.7458 3.59991 63.8945 4.45378 63.3888 5.519C63.3888 5.519 57.8173 0.387343 52.0435 8.62166C52.0435 8.62166 54.1339 6.60958 57.1936 6.27141C59.7053 5.99243 62.1413 7.23518 63.5573 9.33181L63.591 9.38253C63.591 9.38253 64.729 6.27987 67.9319 4.5045C69.4323 3.66754 71.2107 3.3801 72.8712 3.81972C73.613 4.01416 74.3884 4.36078 74.9869 4.96102C74.9869 4.96102 73.4275 1.37648 69.4323 1.50329H69.4407ZM84.1828 16.2896C84.1406 15.461 83.8119 14.6917 83.4747 14.0999C82.9774 13.2376 82.2525 12.5106 81.3507 12.0963C78.8136 10.955 75.6106 12.5359 75.6106 12.5359C76.1501 12.3077 77.996 12.6036 78.527 12.6712C79.7155 12.8318 80.7859 13.4912 81.5277 14.4212C83.1207 16.4164 83.0364 18.7159 83.0364 18.7159L83.0786 18.6905C84.5452 17.7183 86.4417 17.5661 87.9842 18.4115C89.8638 19.4429 90.6814 21.2944 90.6814 21.2944C89.1389 14.455 84.1912 16.2811 84.1912 16.2811L84.1828 16.2896Z" fill="white"/>
</g>
<defs>
<clipPath id="clip0_15980_16254">
<rect width="100" height="100" fill="white"/>
</clipPath>
</defs>
</svg>
