<svg width="100" height="100" viewBox="0 0 100 100" fill="none" xmlns="http://www.w3.org/2000/svg">
<path d="M55.4251 73.2729H47.3736V100H55.4251V73.2729Z" fill="#6CF479"/>
<path d="M47.2665 94.5374C47.2665 94.5374 47.8734 87.085 55.4607 87.991V73.2729H47.2665V94.5374Z" fill="#024731"/>
<path d="M78.5884 3.77528L25.0042 17.5963C22.362 18.2802 20.5143 20.6519 20.5143 23.3788V81.4874C20.5143 84.2765 23.1654 86.3194 25.879 85.6177L79.4632 71.7967C82.1054 71.1127 83.9531 68.7412 83.9531 66.0143V7.90557C83.9531 5.11649 81.302 3.07357 78.5884 3.77528Z" fill="#11B67A"/>
<path d="M19.604 20.9114C20.4073 18.682 22.264 16.9233 24.6651 16.3104L78.2494 2.48935C78.7135 2.36499 79.1955 2.31169 79.6686 2.31169C80.9272 2.31169 82.0876 2.72917 83.0249 3.43088L83.1409 3.29762L78.7224 0.721759C77.7495 0.0822256 76.5266 -0.184277 75.2769 0.13549L20.443 14.2852C18.3186 14.8359 16.7297 16.4791 16.1763 18.5132L19.604 20.9114Z" fill="#024731"/>
<path d="M19.1755 81.4866V33.8858L15.9531 31.6297V78.1734C15.9531 79.5946 16.6404 80.8115 17.6759 81.5843L19.3362 82.8012C19.238 82.3837 19.1755 81.9396 19.1755 81.4866Z" fill="#024731"/>
<path d="M19.1755 27.3567V23.3685C19.1755 23.3685 19.1755 23.3329 19.1755 23.3241L15.9531 21.0679V25.1005L19.1755 27.3567Z" fill="#024731"/>
<path d="M58.3796 12.2425L78.2226 7.33054C79.3027 7.06407 80.3471 7.87235 80.3471 8.98265V28.7549C80.3471 28.7549 79.6865 9.14252 58.3796 12.2425Z" fill="white"/>
<path d="M56.6389 32.8249V23.978L52.6132 20.9847L48.5875 26.0032V34.7968C42.7497 37.9589 38.483 44.3898 38.483 50.7407C38.483 57.0916 42.7497 61.364 48.5875 61.5861V71.3656L56.6389 69.3316V59.4899C62.3696 56.2922 66.5292 49.9324 66.5292 43.6525C66.5292 37.3727 62.3696 33.118 56.6389 32.816V32.8249ZM52.5061 53.9029C48.7928 54.8444 45.7757 52.606 45.7757 48.9021C45.7757 45.1981 48.7928 41.4497 52.5061 40.5082C56.2194 39.5666 59.2365 41.805 59.2365 45.509C59.2365 49.2129 56.2283 52.9613 52.5061 53.9029Z" fill="#024731"/>
</svg>
