<svg width="100" height="100" viewBox="0 0 100 100" fill="none" xmlns="http://www.w3.org/2000/svg">
<rect width="100" height="100" fill="#F1F1F1"/>
<path d="M10.8493 23.2038L0.0635104 62.5831C-0.28157 63.827 0.833945 64.9906 2.09389 64.7098L8.11273 63.3615C9.14797 63.1288 10.2153 63.5541 10.8092 64.4289L22.574 81.8354L29.1064 74.5726L16.6594 25.5472L10.8493 23.2038Z" fill="black"/>
<path d="M79.5364 59.1325C76.6955 56.6286 70.0025 49.6709 66.3672 37.2319L60.9342 13.5257C60.6934 12.4905 59.61 11.7442 58.639 11.9448L12.4304 21.6552C11.2748 21.8959 10.6167 22.9713 10.8735 24.1991L22.5821 81.8355C22.7426 82.622 23.5692 83.2078 24.3156 83.0554L73.1083 72.7993C73.8947 72.6307 74.3281 71.8924 74.1355 71.0578L73.3651 67.7033C75.8128 65.9217 78.0919 63.8673 79.9537 61.4919C80.4673 60.8338 80.2988 59.7986 79.5524 59.1325H79.5364Z" fill="#11B67A"/>
<path d="M13.2006 35.6915L63.5823 25.0983L60.8136 13.0285C60.6371 12.2501 59.8185 11.6883 59.0882 11.8488L12.4222 21.6635C11.2665 21.9043 10.6085 22.9797 10.8653 24.2075L13.2006 35.6995V35.6915Z" fill="#6CF479"/>
<path d="M24.4518 27.6577C24.3314 28.5084 23.5932 29.0059 22.8147 28.7572C22.0363 28.5084 21.4906 27.6256 21.6109 26.775C21.7313 25.9243 22.4696 25.4267 23.2481 25.6755C24.0265 25.9243 24.5722 26.8071 24.4518 27.6577Z" fill="#F1F1F1"/>
<path d="M24.0506 27.2086C25.5914 26.3338 26.6828 24.6245 27.0359 22.5139C27.6779 18.6939 25.8001 14.7616 22.7666 13.5659C21.4023 13.0282 19.9578 13.1165 18.7059 13.8307C17.1651 14.7054 16.0736 16.4148 15.7205 18.5254C15.5841 19.3359 15.568 20.1545 15.6483 20.957L17.7268 20.5156C17.6867 19.9699 17.7108 19.4242 17.7991 18.8785C18.0478 17.4019 18.754 16.2302 19.7492 15.6684C20.1424 15.4437 20.5597 15.3314 20.993 15.3314C21.3221 15.3314 21.6591 15.3956 21.9962 15.532C24.0667 16.3506 25.4229 19.3841 24.9575 22.1688C24.7087 23.6454 24.0025 24.8171 23.0074 25.3788C22.8388 25.4751 22.6623 25.5474 22.4857 25.6035C22.4857 25.6035 21.4023 25.8924 21.611 27.337C21.611 27.337 21.6431 27.5536 21.7715 27.8185C22.5579 27.8185 23.3283 27.6178 24.0426 27.2086H24.0506Z" fill="#11B67A"/>
<path d="M53.9602 21.4383C53.8399 22.2889 53.1015 22.7865 52.3231 22.5377C51.5447 22.2889 50.9989 21.4062 51.1193 20.5555C51.2397 19.7048 51.978 19.2073 52.7565 19.4561C53.5349 19.7048 54.0806 20.5876 53.9602 21.4383Z" fill="#F1F1F1"/>
<path d="M53.5508 20.9891C55.0916 20.1144 56.183 18.405 56.5361 16.2944C57.1781 12.4744 55.3002 8.54213 52.2667 7.34639C50.9024 6.80871 49.4579 6.89699 48.206 7.61122C46.6652 8.48596 45.5738 10.1953 45.2207 12.3059C45.0842 13.1165 45.0682 13.935 45.1484 14.7375L47.227 14.2961C47.1868 13.7504 47.2109 13.2047 47.2992 12.659C47.5479 11.1824 48.2542 10.0107 49.2493 9.44897C49.6425 9.22427 50.0598 9.11192 50.4932 9.11192C50.8222 9.11192 51.1593 9.17612 51.4963 9.31255C53.5668 10.1311 54.9231 13.1726 54.4576 15.9493C54.2088 17.4259 53.5026 18.5976 52.5075 19.1594C52.339 19.2557 52.1624 19.3279 51.9858 19.3841C51.9858 19.3841 50.9024 19.673 51.1111 21.1175C51.1111 21.1175 51.1432 21.3342 51.2716 21.599C52.0581 21.599 52.8285 21.3984 53.5427 20.9891H53.5508Z" fill="#11B67A"/>
<path d="M13.3292 36.3251L13.0643 35.0732L63.454 24.472L63.7349 25.7239L13.3292 36.3251Z" fill="#F1F1F1"/>
<path d="M42.3878 40.1929C41.0958 42.1189 39.7556 43.5313 37.8536 44.8073L38.3592 47.4396C40.0124 46.2519 41.481 44.9036 42.6206 43.2023L46.4325 62.904L49.2012 62.3342L44.8194 39.6873L42.3878 40.1929Z" fill="black"/>
<path d="M59.3931 41.3247C57.7159 37.4646 54.5139 34.8485 50.4291 33.8614C42.1472 31.8551 33.8572 36.606 29.3952 43.4674C26.755 47.5362 25.9605 52.2951 27.0359 57.0299C27.9668 61.1628 30.3181 64.8945 33.8733 67.2539C38.0624 70.0306 43.2466 70.2713 47.9573 68.7947C49.0568 68.4496 50.1161 68.0082 51.1353 67.5107C48.8161 69.196 46.1597 70.3757 43.2627 70.5763C42.4923 70.6325 42.4842 71.8362 43.2627 71.78C48.4469 71.4269 53.1897 68.2731 56.5282 64.0599C57.9647 62.9203 59.329 61.6844 60.621 60.4004C61.1747 59.8547 60.3241 59.0041 59.7703 59.5498C59.5135 59.8066 59.2407 60.0634 58.9759 60.3202C59.9228 58.5306 60.637 56.6527 61.0463 54.7829C62.0013 50.3369 61.1988 45.4657 59.3931 41.3247ZM55.501 63.2895C50.3408 67.2378 44.009 69.9824 37.5728 67.7595C29.3792 64.9266 25.5994 54.5902 28.9458 46.83C31.9472 39.8722 39.3705 34.3108 47.1067 34.6157C50.7982 34.7602 54.6262 36.2288 56.8653 39.2864C58.077 40.9395 58.7993 42.8896 59.337 44.8558C59.9388 47.0547 60.3161 49.3258 60.2358 51.6129C60.0833 55.9144 58.1814 59.9751 55.501 63.2975V63.2895Z" fill="#00482F"/>
<path d="M73.983 52.7284C73.983 52.7284 59.8106 59.6782 53.7918 76.8279L61.6083 75.2389L74.7855 53.7877L73.991 52.7284H73.983Z" fill="black"/>
<path d="M91.8626 52.7042L95.9875 55.9624C98.1141 57.6557 99.3741 60.1434 99.8235 63.0726L94.9362 59.5576C94.6072 56.821 93.596 54.4456 91.8626 52.6961V52.7042Z" fill="black"/>
<path d="M95.0405 62.2785L100 65.8496C99.992 66.4515 99.9518 67.0695 99.8796 67.6954L94.888 64.1002C94.9683 63.4822 95.0164 62.8723 95.0405 62.2785Z" fill="black"/>
<path d="M63.0524 87.2119C69.32 92.1715 80.6515 88.3194 88.3796 78.601C90.8434 75.4953 92.641 72.1729 93.7485 68.9227L98.8123 72.5661C97.7209 75.9286 95.8832 79.3875 93.3231 82.6055C92.3682 83.8013 91.365 84.8927 90.3137 85.8717C90.3137 85.8717 79.9453 96.5131 69.4324 91.9227C69.4163 91.9227 69.4083 91.9227 69.4083 91.9227C69.4083 91.9227 69.4003 91.9227 69.3922 91.9227C68.6138 91.6017 67.8996 91.1603 67.2415 90.6306L63.0364 87.228L63.0524 87.2119Z" fill="black"/>
<path d="M88.3719 78.5851C96.137 68.8195 97.4148 56.9136 91.2259 51.9925C85.037 47.0714 73.725 50.9986 65.9599 60.7641C58.1948 70.5297 56.917 82.4356 63.1059 87.3568C69.2949 92.2779 80.6068 88.3506 88.3719 78.5851Z" fill="#F1F1F1"/>
<path d="M87.2541 77.7034C94.5778 68.4929 95.748 57.236 89.8679 52.5604C83.9877 47.8848 73.2839 51.561 65.9601 60.7715C58.6364 69.982 57.4661 81.239 63.3463 85.9146C69.2264 90.5902 79.9303 86.9139 87.2541 77.7034Z" fill="#6CF479"/>
<path d="M68.4696 62.8801C74.9539 54.7266 84.3353 51.3159 89.8004 54.9995C89.5837 54.7828 89.351 54.5661 89.1102 54.3735C83.7334 50.1041 73.9508 53.4586 67.2578 61.877C60.5649 70.2953 59.4975 80.5835 64.8663 84.8529C65.0348 84.9893 65.2114 85.1177 65.388 85.2301C60.8217 80.6397 62.0816 70.9133 68.4696 62.8801Z" fill="#00482F"/>
<path d="M83.5327 78.2564C84.6562 76.9483 85.6112 75.584 86.3816 74.1876C84.5599 76.1538 82.9469 76.4908 82.1845 76.4026C81.2937 76.2982 80.6035 75.6161 80.6035 75.6161C74.7773 82.2288 69.8338 82.6461 66.8164 81.2497C65.0589 80.4392 64.2243 78.8262 63.8471 77.6304C63.8471 80.046 64.5854 82.1405 66.1262 83.5449C70.0986 87.1723 77.8991 84.7968 83.5488 78.2484L83.5327 78.2564Z" fill="white"/>
</svg>
