<svg width="100" height="100" viewBox="0 0 100 100" fill="none" xmlns="http://www.w3.org/2000/svg">
<g clip-path="url(#clip0_15980_16325)">
<path d="M98.3585 52.0396C98.5147 47.9907 98.3831 43.6127 98.2105 39.9012C97.9392 33.9265 96.8952 16.4801 96.1883 14.4967L67.1043 14.0195C64.7861 13.3858 62.3364 13.3364 60.0018 13.896C50.3016 16.2332 29.619 22.1584 25.5581 24.2487C24.251 24.9153 22.9933 25.5983 22.1301 27.0056C18.8913 32.2971 11.501 42.7651 11.3531 42.979C8.13887 47.7768 3.73274 54.706 3.73274 54.706C2.61476 56.2367 1.49675 58.5739 1.24191 60.3432C0.855553 63.0919 0.444546 67.9473 0.641837 72.6628C0.641837 72.6628 13.0794 83.6409 35.102 87.484C36.1789 88.8007 38.0367 89.2287 39.5822 88.4387L98.0296 58.6644L98.5064 52.1466L98.3338 52.0479L98.3585 52.0396Z" fill="#11B67A"/>
<path d="M25.3032 26.1257C28.8297 27.8703 37.8476 31.8534 51.1976 34.4704C52.6691 34.7584 53.5733 36.2644 53.1294 37.6963L48.4684 52.6657C47.9998 54.1717 46.553 55.1511 44.9747 55.0194C38.1764 54.4434 20.2722 52.0815 11.3612 42.9797C11.3612 42.9797 16.4168 35.0711 22.3027 26.7346C22.9603 25.8047 24.2838 25.6237 25.3114 26.1257H25.3032Z" fill="#024731"/>
<path d="M62.4104 86.4785L84.6385 74.7597C84.6385 74.7597 80.8899 78.5123 84.0466 78.7757L59.714 91.8112C59.714 91.8112 66.422 87.9927 62.4104 86.4785Z" fill="white"/>
<path d="M40.6342 33.9466C40.6342 33.9466 43.9142 34.9918 47.4654 35.5514C47.4654 35.5514 42.5825 44.2746 29.1996 48.4634C29.1996 48.4634 40.215 42.6699 40.6342 33.9466Z" fill="white"/>
<path d="M58.3165 34.2435C57.4616 34.6467 56.8204 35.4039 56.5573 36.3091L52.332 50.9658C51.921 52.3895 52.7513 53.7721 54.7324 52.9162L63.2735 49.1883C64.4654 48.6616 65.2382 47.4847 65.2382 46.1762V33.0667C65.2382 32.1614 64.301 31.5689 63.479 31.9475L58.3083 34.2353L58.3165 34.2435Z" fill="#00482F"/>
<path d="M33.4004 73.9041C32.7017 74.653 31.6166 74.9246 30.5808 74.6777C27.4324 73.9288 24.7031 73.04 24.7031 73.04C22.574 72.4063 23.9305 70.7111 23.9305 70.7111C28.1311 66.3659 34.3129 66.1931 34.3129 66.1931C36.5242 66.0532 37.1325 67.4028 36.7133 68.4562C36.7133 68.4562 35.8501 71.2954 33.4004 73.9206V73.9041Z" fill="white"/>
<path d="M1.03648 61.9302C1.67767 62.7284 3.4451 63.8065 4.20138 64.1604C4.95767 64.5142 5.52487 64.2426 5.52487 64.2426C6.34691 63.9382 6.28936 62.6955 6.28936 62.6955C5.66461 56.4164 4.27534 53.8324 4.27534 53.8324C2.80388 55.8321 1.56257 58.0376 1.27485 60.0785C1.20087 60.597 1.11046 61.2965 1.03648 61.9219V61.9302Z" fill="white"/>
<path d="M24.8182 28.1865C24.6949 28.1206 24.5551 28.096 24.4154 28.096C24.1441 28.096 23.8564 28.203 23.692 28.4252C19.4502 34.0459 14.0905 42.4564 14.0905 42.4564L33.9511 31.9474C29.5614 30.4084 26.4458 28.9847 24.8264 28.1865H24.8182Z" fill="#00482F"/>
<path d="M60.6841 39.3062C63.2324 40.5159 63.9805 46.8937 63.9805 46.8937V34.0393C63.9969 33.3809 63.5941 33.241 63.1009 33.4715L58.333 35.5618C58.333 35.5618 60.0675 34.9857 60.9964 36.2037C61.9254 37.4216 60.6841 39.298 60.6841 39.298V39.3062Z" fill="white"/>
<path d="M51.6415 63.2065C50.4989 63.7908 49.5453 64.7208 49.0603 65.9058C48.9287 66.235 48.8219 66.5889 48.789 66.9427C48.789 66.9427 49.8741 66.128 51.0496 65.5849L94.2317 43.5134C95.3168 42.962 95.9909 41.851 95.9909 40.6331L51.6415 63.1983V63.2065Z" fill="#00482F"/>
<path d="M95.3004 13.8195L69.7677 6.75857C68.3291 6.36355 66.8001 6.42113 65.3944 6.93136C55.3736 10.5935 25.7389 24.1475 25.7389 24.1475C25.7389 24.1475 25.1059 24.5178 26.191 25.0445C29.8491 26.822 39.6397 31.0685 53.5159 33.5702C54.2886 33.7101 55.0859 33.5949 55.7929 33.241L95.2923 15.5805C96.2047 15.1855 96.7473 14.2556 95.2923 13.8112L95.3004 13.8195Z" fill="#6CF479"/>
<path d="M48.6986 72.1767C44.2349 72.1767 41.0207 75.1969 39.1876 78.8425C38.5053 80.2004 36.9598 80.8835 35.4719 80.5543C34.543 80.3485 33.4661 80.077 32.4221 79.7561C29.6682 78.9002 13.0136 74.4809 1.61181 65.9881C1.19257 65.6754 0.954184 65.1816 0.954184 64.6632V62.6469C0.954184 62.6469 0.206115 62.9843 0.0745879 63.6674C0.0745879 63.6674 -0.147379 66.8193 0.00881015 72.2343C0.041692 73.4276 0.617153 74.5303 1.57895 75.238C5.25349 77.9538 15.7921 84.7513 34.5348 89.4175C35.8911 89.7549 37.3297 89.6314 38.6039 89.0554L46.4709 85.1875L55.5627 80.2992C55.497 77.3119 53.82 72.1767 48.7151 72.1767H48.6986Z" fill="#6CF479"/>
<path d="M25.8623 60.8903C25.8212 63.8694 22.4343 65.7786 18.2994 65.1532C14.1645 64.5277 10.8434 61.598 10.8846 58.6189C10.9257 55.6399 14.3125 53.7306 18.4474 54.3561C22.5823 54.9815 25.9034 57.9112 25.8623 60.8903Z" fill="#6CF479"/>
<path d="M89.9653 31.0685C91.0175 34.6154 88.0088 39.1251 83.241 41.1249C78.4731 43.1247 73.7545 41.8738 72.7023 38.3269C71.6501 34.78 74.6588 30.2702 79.4267 28.2705C84.1945 26.2707 88.9131 27.5215 89.9653 31.0685Z" fill="#6CF479"/>
<path d="M99.9449 50.0633C99.9449 49.0428 99.4763 48.08 98.679 47.4463C98.605 47.3887 98.5145 47.3146 98.4323 47.2488H98.4159V49.2238C98.4159 49.5201 98.2597 49.7917 97.9967 49.9398L95.9168 51.1084C95.0537 50.6064 94.0261 50.3101 92.7849 50.3101C88.3211 50.3101 85.1069 53.3303 83.2738 56.976C83.2738 56.976 81.3173 60.5394 80.5775 67.5262C80.5775 67.5262 81.679 67.3863 82.2544 67.2711C82.6819 67.1888 84.3753 67.2053 84.6795 64.5718C84.8028 63.5185 85.0165 62.4487 85.2138 61.601C85.5591 60.1032 86.1181 58.663 86.973 57.3875C88.5431 55.0503 90.7215 53.4867 92.8671 53.4456C95.6703 53.388 97.5363 55.9556 97.6103 59.5272L97.8405 59.4037C99.016 58.77 99.6325 57.4122 99.3119 56.1202C99.2626 55.9309 99.2133 55.7416 99.1475 55.5441C99.4435 55.1161 99.6407 54.6224 99.7147 54.0875C99.838 53.1576 99.9449 51.8161 99.9531 50.0633H99.9449Z" fill="#6CF479"/>
<path d="M92.8672 53.4475C90.0065 53.5051 87.08 56.2619 85.6332 59.9652C85.4853 60.4754 84.918 62.5575 84.6879 64.582C84.433 66.7628 83.2246 67.1249 82.5752 67.2318C83.2739 68.6144 84.3426 69.5937 85.6826 70.0216L88.4611 70.8528C88.8968 70.968 89.2009 70.9598 89.4475 70.9516C92.8837 70.8857 96.4431 66.9109 97.3803 62.0802C98.3256 57.2495 96.3034 53.3816 92.8672 53.4475Z" fill="#024731"/>
<path d="M95.0373 62.121C94.4455 65.133 92.2342 67.6183 90.0886 67.6595C87.9431 67.7006 86.6771 65.2894 87.269 62.2774C87.8609 59.2654 90.0721 56.7801 92.2177 56.7389C94.3632 56.6978 95.6292 59.109 95.0373 62.121Z" fill="white"/>
<path d="M48.5096 75.9877C46.7011 76.0206 44.8597 77.1234 43.3965 78.8845C41.1112 81.6496 40.4453 85.4681 40.248 87.2703C40.1823 87.9205 39.7713 88.48 39.1794 88.7516C38.6533 88.9985 38.0943 89.2536 37.9874 89.2947C38.6615 90.9324 39.8123 92.0846 41.3085 92.5619L43.9637 93.3766C43.9637 93.3766 44.4405 93.5 45.0817 93.5C48.5178 93.4753 52.0773 89.4594 53.0144 84.6286C53.9598 79.7979 51.9375 75.9301 48.5014 75.9959L48.5096 75.9877Z" fill="#024731"/>
<path d="M50.688 84.6621C50.0961 87.6741 47.8848 90.1594 45.7393 90.2005C43.5937 90.2417 42.3278 87.8304 42.9196 84.8184C43.5115 81.8064 45.7228 79.3212 47.8684 79.28C50.0139 79.2389 51.2799 81.6501 50.688 84.6621Z" fill="white"/>
</g>
<defs>
<clipPath id="clip0_15980_16325">
<rect width="100" height="100" fill="white"/>
</clipPath>
</defs>
</svg>
