<svg width="100" height="100" viewBox="0 0 100 100" fill="none" xmlns="http://www.w3.org/2000/svg">
<g clip-path="url(#clip0_15980_16337)">
<rect width="100" height="100" fill="#F1F1F1"/>
<path d="M53.6939 44.6968C55.9255 44.1199 57.4794 42.1172 57.4794 39.8178V7.22298C57.4794 5.18734 55.8098 3.62148 53.8758 3.62148C53.5783 3.62148 53.2724 3.66269 52.9583 3.73687L7.79761 15.415C5.56602 15.9919 4.01216 17.9945 4.01216 20.2939V52.8887C4.01216 54.9244 5.68171 56.4902 7.61575 56.4902C7.9133 56.4902 8.2191 56.449 8.53317 56.3748L20.8896 53.1772C21.7492 52.9546 53.6939 44.6968 53.6939 44.6968Z" fill="#6CF479"/>
<path d="M3.9378 16.6769C4.77258 15.4983 6.00412 14.5917 7.48358 14.2126L52.6443 2.53454C52.8427 2.48509 53.0493 2.44387 53.2477 2.41915L51.7847 1.40547C50.9665 0.861531 49.9333 0.639033 48.8754 0.911L3.71468 12.5891C2.43358 12.9188 1.39218 13.7264 0.722699 14.7813L3.92958 16.6686L3.9378 16.6769Z" fill="black"/>
<path d="M2.77244 21.0454V20.2872C2.77244 19.6774 2.87989 19.1004 3.03693 18.54L-0.00463792 16.7434C-0.0376985 16.9824 -0.0625 17.2214 -0.0625 17.4686V19.3724L2.77244 21.0454Z" fill="black"/>
<path d="M2.77244 52.8803V26.7963L-0.0625 25.1232V50.0618C-0.0625 51.2568 0.51606 52.2952 1.3839 52.9463L2.90466 54.0012C2.82201 53.6385 2.77244 53.2677 2.77244 52.8803Z" fill="black"/>
<path d="M29.5516 30.8531C30.0723 31.0509 30.6839 31.158 31.3368 30.985C31.9898 30.8119 32.6097 30.3915 33.1469 29.9135C34.3619 28.8339 35.2462 27.3505 35.7587 25.8176C36.3703 23.9715 36.4447 22.4303 36.4447 22.4303C36.6761 18.4909 34.3205 17.1476 31.5931 17.8646C28.8573 18.5816 26.4273 21.1612 26.5182 25.0264C26.5182 25.0264 26.5348 26.5346 27.0803 28.084C27.5348 29.3696 28.3696 30.3998 29.5598 30.8531H29.5516ZM42.8419 35.1222C42.1724 32.4519 41.0236 31.6937 38.8333 31.4877L34.2958 30.952C34.1883 31.0509 34.0974 31.1745 33.99 31.2651C33.0891 32.0728 32.1799 32.592 31.3038 32.8228C30.4194 33.0535 29.5268 32.9959 28.6507 32.658C28.5432 32.6168 28.4523 32.5508 28.3531 32.5013L23.7494 35.4271C21.5261 36.7869 20.3359 38.1633 19.559 41.2043L18.592 45.3086L43.6684 38.7648L42.8502 35.1304L42.8419 35.1222Z" fill="black"/>
<path d="M35.9323 10.8918L52.6526 6.73817C53.5618 6.51565 54.4462 7.19965 54.4462 8.13918V24.8364C54.4462 24.8364 53.8924 8.27106 35.9323 10.8918Z" fill="#6CF479"/>
<path d="M8.83086 63.0692C8.83086 63.0692 9.97969 66.8685 14.6412 67.9152C14.6412 67.9152 11.112 68.5251 11.0376 72.7529C11.0376 72.7529 9.79784 69.0855 5.32639 67.9152C5.32639 67.9152 9.06228 67.4702 8.83086 63.0692Z" fill="#006A4D"/>
<path d="M75.2578 1.71886C75.2578 1.71886 77.4398 8.93835 86.3001 10.9328C86.3001 10.9328 79.5887 12.0866 79.4565 20.122C79.4565 20.122 77.0927 13.158 68.6044 10.9245C68.6044 10.9245 75.6959 10.0839 75.2578 1.71886Z" fill="#006A4D"/>
<path d="M48.677 45.9921L57.4877 35.7646V35.1546L37.7092 48.8272C41.7178 47.7888 45.6933 46.7586 48.6853 45.9921H48.677Z" fill="black"/>
<path d="M99.9375 43.5439L89.6061 43.7912L70.5218 32.7805C69.2821 32.0635 67.4637 32.3273 66.4719 33.3575L37.1389 64.098L21.0384 74.7954V80.416C21.0715 81.0506 21.4434 81.6522 22.1211 82.0478L50.4458 98.3906C51.6856 99.1077 53.5039 98.8439 54.4957 97.8137L99.3011 50.854C99.7309 50.4007 99.9375 49.8815 99.9292 49.3705V43.5521L99.9375 43.5439Z" fill="black"/>
<path d="M54.4957 92.0369C53.5121 93.067 51.6855 93.3308 50.4458 92.6138L22.1211 76.271C20.8813 75.554 20.6747 74.1282 21.6665 73.0898L66.4719 26.1302C67.4554 25.1 69.282 24.8363 70.5218 25.5533L98.8464 41.896C100.086 42.613 100.293 44.0388 99.301 45.0772L54.4957 92.0369Z" fill="#11B67A"/>
<path d="M86.3744 39.1852L81.5641 36.375C80.8699 35.9712 79.9855 36.0948 79.4317 36.6717C79.035 37.092 79.1259 37.7677 79.6301 38.0562L84.4404 40.8665C85.1264 41.2704 86.0025 41.155 86.5563 40.5863C86.9612 40.166 86.8703 39.4737 86.3662 39.1852H86.3744ZM41.3459 76.1975C39.0234 76.2635 37.0976 77.6975 37.0398 79.3952C36.9819 81.093 38.8085 82.4115 41.131 82.3456C43.4535 82.2797 45.3793 80.8457 45.4371 79.1479C45.495 77.4502 43.6684 76.1316 41.3459 76.1975ZM76.9273 33.9355C76.1339 33.9602 75.4644 34.4465 75.4479 35.0316C75.4231 35.6168 76.0595 36.07 76.853 36.0453C77.6464 36.0206 78.3159 35.5343 78.3324 34.9491C78.3572 34.364 77.7208 33.9107 76.9273 33.9355Z" fill="#024731"/>
<path d="M69.7283 49.2557C67.3067 47.8546 63.8931 48.0029 61.4549 50.8132C61.4549 50.8132 60.4962 51.9011 59.8845 53.3845C59.3804 54.6207 59.3143 55.9394 59.868 57.0932C60.116 57.6041 60.4879 58.0986 61.0664 58.4365C61.645 58.7662 62.3641 58.8981 63.0584 58.9393C64.6287 59.0135 66.2239 58.5766 67.5794 57.8349C69.2159 56.9448 70.2573 55.9065 70.2573 55.9065C72.9683 53.261 72.15 50.6649 69.7201 49.2638L69.7283 49.2557ZM63.6287 61.3623C63.6287 61.3623 63.3063 60.9584 62.7277 60.4227C61.6037 60.3568 60.6532 60.1095 59.8928 59.6727C59.1407 59.2359 58.5539 58.5932 58.1406 57.7773C57.3141 57.4971 56.7272 57.3735 56.7272 57.3735L52.8427 56.5246C50.4458 55.9559 48.7597 56.1043 46.3132 57.6784L43.0733 59.8624L64.6122 72.3069L66.3231 69.2411C67.5298 66.95 67.2075 65.6396 65.8107 64.016L63.6369 61.3623H63.6287Z" fill="black"/>
</g>
<defs>
<clipPath id="clip0_15980_16337">
<rect width="100" height="100" fill="white"/>
</clipPath>
</defs>
</svg>
