<svg width="100" height="100" viewBox="0 0 100 100" fill="none" xmlns="http://www.w3.org/2000/svg">
<g clip-path="url(#clip0_15980_16339)">
<path d="M53.6939 44.6011C55.9255 44.0242 57.4794 42.0215 57.4794 39.7221V7.12727C57.4794 5.09164 55.8098 3.52577 53.8758 3.52577C53.5783 3.52577 53.2724 3.56699 52.9583 3.64116L7.79761 15.3193C5.56602 15.8962 4.01216 17.8988 4.01216 20.1982V52.793C4.01216 54.8287 5.68171 56.3945 7.61575 56.3945C7.9133 56.3945 8.2191 56.3533 8.53317 56.2791L20.8896 53.0815C21.7492 52.8589 53.6939 44.6011 53.6939 44.6011Z" fill="#6CF479"/>
<path d="M3.9378 16.5812C4.77258 15.4026 6.00412 14.496 7.48358 14.1169L52.6443 2.43883C52.8427 2.38939 53.0493 2.34817 53.2477 2.32344L51.7847 1.30976C50.9665 0.765828 49.9333 0.543329 48.8754 0.815297L3.71468 12.4934C2.43358 12.823 1.39218 13.6307 0.722699 14.6856L3.92958 16.5729L3.9378 16.5812Z" fill="#024731"/>
<path d="M2.77244 20.9497V20.1915C2.77244 19.5817 2.87989 19.0047 3.03693 18.4443L-0.00463792 16.6477C-0.0376985 16.8867 -0.0625 17.1257 -0.0625 17.3729V19.2767L2.77244 20.9497Z" fill="#024731"/>
<path d="M2.77244 52.7846V26.7006L-0.0625 25.0275V49.9661C-0.0625 51.1611 0.51606 52.1995 1.3839 52.8506L2.90466 53.9054C2.82201 53.5428 2.77244 53.172 2.77244 52.7846Z" fill="#024731"/>
<path d="M29.5516 30.7574C30.0723 30.9552 30.6839 31.0623 31.3368 30.8892C31.9898 30.7162 32.6097 30.2958 33.1469 29.8178C34.3619 28.7382 35.2462 27.2548 35.7587 25.7219C36.3703 23.8758 36.4447 22.3346 36.4447 22.3346C36.6761 18.3952 34.3205 17.0519 31.5931 17.7689C28.8573 18.4859 26.4273 21.0655 26.5182 24.9307C26.5182 24.9307 26.5348 26.4389 27.0803 27.9883C27.5348 29.2739 28.3696 30.3041 29.5598 30.7574H29.5516ZM42.8419 35.0265C42.1724 32.3562 41.0236 31.598 38.8333 31.392L34.2958 30.8563C34.1883 30.9551 34.0974 31.0788 33.99 31.1694C33.0891 31.9771 32.1799 32.4963 31.3038 32.7271C30.4194 32.9578 29.5268 32.9002 28.6507 32.5623C28.5432 32.5211 28.4523 32.4551 28.3531 32.4056L23.7494 35.3314C21.5261 36.6912 20.3359 38.0676 19.559 41.1086L18.592 45.2129L43.6684 38.6691L42.8502 35.0347L42.8419 35.0265Z" fill="#024731"/>
<path d="M35.9323 10.7961L52.6526 6.64247C53.5618 6.41995 54.4462 7.10395 54.4462 8.04347V24.7407C54.4462 24.7407 53.8924 8.17536 35.9323 10.7961Z" fill="white"/>
<path d="M8.83086 62.9735C8.83086 62.9735 9.97969 66.7728 14.6412 67.8195C14.6412 67.8195 11.112 68.4294 11.0376 72.6572C11.0376 72.6572 9.79784 68.9898 5.32639 67.8195C5.32639 67.8195 9.06228 67.3745 8.83086 62.9735Z" fill="white"/>
<path d="M75.2578 1.62316C75.2578 1.62316 77.4398 8.84265 86.3001 10.8371C86.3001 10.8371 79.5887 11.9909 79.4565 20.0263C79.4565 20.0263 77.0927 13.0623 68.6044 10.8288C68.6044 10.8288 75.6959 9.98821 75.2578 1.62316Z" fill="white"/>
<path d="M48.677 45.8964L57.4877 35.6689V35.0589L37.7092 48.7315C41.7178 47.6931 45.6933 46.6629 48.6853 45.8964H48.677Z" fill="#024731"/>
<path d="M99.9375 43.4482L89.6061 43.6955L70.5218 32.6848C69.2821 31.9678 67.4637 32.2316 66.4719 33.2618L37.1389 64.0023L21.0384 74.6997V80.3203C21.0715 80.9549 21.4434 81.5565 22.1211 81.9521L50.4458 98.2949C51.6856 99.0119 53.5039 98.7482 54.4957 97.718L99.3011 50.7583C99.7309 50.305 99.9375 49.7858 99.9292 49.2748V43.4564L99.9375 43.4482Z" fill="#024731"/>
<path d="M54.4957 91.9412C53.5121 92.9713 51.6855 93.2351 50.4458 92.5181L22.1211 76.1753C20.8813 75.4583 20.6747 74.0325 21.6665 72.9941L66.4719 26.0345C67.4554 25.0043 69.282 24.7406 70.5218 25.4576L98.8464 41.8003C100.086 42.5173 100.293 43.9431 99.301 44.9815L54.4957 91.9412Z" fill="#11B67A"/>
<path d="M86.3744 39.0895L81.5641 36.2793C80.8699 35.8755 79.9855 35.9991 79.4317 36.576C79.035 36.9963 79.1259 37.672 79.6301 37.9605L84.4404 40.7708C85.1264 41.1747 86.0025 41.0593 86.5563 40.4906C86.9612 40.0703 86.8703 39.378 86.3662 39.0895H86.3744ZM41.3459 76.1018C39.0234 76.1678 37.0976 77.6018 37.0398 79.2995C36.9819 80.9973 38.8085 82.3158 41.131 82.2499C43.4535 82.184 45.3793 80.75 45.4371 79.0522C45.495 77.3545 43.6684 76.0359 41.3459 76.1018ZM76.9273 33.8398C76.1339 33.8645 75.4644 34.3508 75.4479 34.9359C75.4231 35.5211 76.0595 35.9743 76.853 35.9496C77.6464 35.9249 78.3159 35.4386 78.3324 34.8534C78.3572 34.2683 77.7208 33.815 76.9273 33.8398Z" fill="#024731"/>
<path d="M69.7283 49.16C67.3067 47.7589 63.8931 47.9072 61.4549 50.7175C61.4549 50.7175 60.4962 51.8054 59.8845 53.2888C59.3804 54.525 59.3143 55.8437 59.868 56.9975C60.116 57.5084 60.4879 58.0029 61.0664 58.3408C61.645 58.6705 62.3641 58.8024 63.0584 58.8436C64.6287 58.9178 66.2239 58.4809 67.5794 57.7392C69.2159 56.8491 70.2573 55.8107 70.2573 55.8107C72.9683 53.1652 72.15 50.5692 69.7201 49.1681L69.7283 49.16ZM63.6287 61.2666C63.6287 61.2666 63.3063 60.8627 62.7277 60.327C61.6037 60.2611 60.6532 60.0138 59.8928 59.577C59.1407 59.1402 58.5539 58.4975 58.1406 57.6816C57.3141 57.4014 56.7272 57.2777 56.7272 57.2777L52.8427 56.4289C50.4458 55.8602 48.7597 56.0086 46.3132 57.5827L43.0733 59.7667L64.6122 72.2112L66.3231 69.1454C67.5298 66.8543 67.2075 65.5439 65.8107 63.9203L63.6369 61.2666H63.6287Z" fill="#024731"/>
</g>
<defs>
<clipPath id="clip0_15980_16339">
<rect width="100" height="100" fill="white"/>
</clipPath>
</defs>
</svg>
