<svg width="100" height="100" viewBox="0 0 100 100" fill="none" xmlns="http://www.w3.org/2000/svg">
<path d="M9.19892 40.8599L15.2582 15.382C16.1608 11.5714 18.8537 8.37419 22.4589 6.82883C26.2198 5.21987 30.376 5.52496 33.8604 7.66617C37.3448 9.80739 39.4952 13.3777 39.7555 17.461L40.417 27.6926L35.9423 27.9822L35.2808 17.7506C35.1145 15.14 33.7387 12.858 31.5109 11.4882C29.2831 10.1183 26.626 9.92414 24.223 10.9512C21.9183 11.9391 20.1972 13.983 19.6196 16.417L13.5603 41.8949L9.19696 40.8571L9.19892 40.8599Z" fill="#6CF479"/>
<path d="M41.6568 12.2752L1.22426 45.3808C1.02528 45.5025 0.846703 45.6468 0.690477 45.8166L0.679517 45.8245C-2.17282 49.0073 4.22286 59.4118 14.9706 69.0715C18.8147 72.5264 22.6919 75.4166 26.2222 77.5581C30.7621 80.3142 35.8103 81.2142 38.6211 80.9627C38.6211 80.9627 39.6116 80.8032 39.6085 80.8075L39.6089 80.8052C39.7635 80.6303 39.89 80.4362 39.9913 80.2186L68.6074 36.4957L41.6568 12.2752Z" fill="#11B67A"/>
<path d="M32.839 80.3321C32.7626 80.3122 32.6838 80.2919 32.6073 80.272C32.6861 80.2923 32.7626 80.3122 32.839 80.3321Z" fill="#11B67A"/>
<path d="M32.3981 80.2123C32.3197 80.1896 32.2409 80.1693 32.1625 80.1466C32.2409 80.1693 32.3193 80.1919 32.3981 80.2123Z" fill="#11B67A"/>
<path d="M31.9508 80.0846C31.87 80.0616 31.7897 80.0362 31.7069 80.0104C31.7873 80.0358 31.8704 80.0592 31.9508 80.0846Z" fill="#11B67A"/>
<path d="M33.2759 80.44C33.2014 80.4228 33.127 80.4056 33.0505 80.3857C33.1246 80.4052 33.2014 80.4228 33.2759 80.44Z" fill="#11B67A"/>
<path d="M30.1243 79.4659C29.9722 79.4068 29.8177 79.3474 29.664 79.2832C29.8181 79.345 29.9698 79.4064 30.1243 79.4659Z" fill="#11B67A"/>
<path d="M30.5843 79.6356C30.4702 79.5949 30.3589 79.5523 30.2452 79.5093C30.3589 79.5523 30.4726 79.5953 30.5843 79.6356Z" fill="#11B67A"/>
<path d="M33.886 80.5776C33.8319 80.5687 33.7763 80.5546 33.7206 80.5405C33.7767 80.5522 33.83 80.5659 33.886 80.5776Z" fill="#11B67A"/>
<path d="M31.0436 79.7956C30.9523 79.7636 30.861 79.7315 30.7673 79.6991C30.8586 79.7311 30.9523 79.7636 31.0436 79.7956Z" fill="#11B67A"/>
<path d="M31.4994 79.947C31.4143 79.9208 31.3297 79.8923 31.245 79.8637C31.3297 79.8923 31.4147 79.9185 31.4994 79.947Z" fill="#11B67A"/>
<path d="M34.7076 80.733C34.6558 80.7244 34.6017 80.7155 34.55 80.7069C34.6041 80.7159 34.6558 80.7244 34.7076 80.733Z" fill="#11B67A"/>
<path d="M34.3028 80.6594C34.2464 80.65 34.1927 80.6387 34.1366 80.627C34.1931 80.6363 34.2487 80.6504 34.3028 80.6594Z" fill="#11B67A"/>
<path d="M37.7905 81.0043C37.7785 81.0023 37.7633 81.0048 37.7509 81.0052C37.7629 81.0072 37.7781 81.0048 37.7905 81.0043Z" fill="#11B67A"/>
<path d="M38.092 80.9963C38.0796 80.9967 38.0648 80.9967 38.05 80.9967C38.0648 80.9967 38.0772 80.9963 38.092 80.9963Z" fill="#11B67A"/>
<path d="M38.3713 80.9842C38.3713 80.9842 38.3513 80.9859 38.3437 80.9871C38.3533 80.9887 38.3637 80.9855 38.3713 80.9842Z" fill="#11B67A"/>
<path d="M35.1055 80.7973C35.0561 80.7891 35.0091 80.7813 34.9597 80.7732C35.0091 80.7813 35.0584 80.7895 35.1055 80.7973Z" fill="#11B67A"/>
<path d="M35.4914 80.8516C35.449 80.8446 35.4039 80.8395 35.3589 80.8345C35.4036 80.8419 35.4463 80.8465 35.4914 80.8516Z" fill="#11B67A"/>
<path d="M37.473 81.0023C37.473 81.0023 37.4659 81.0012 37.4611 81.0004C37.4659 81.0012 37.4682 81.0015 37.473 81.0023Z" fill="#11B67A"/>
<path d="M28.0767 78.5715C27.9849 78.5273 27.8912 78.4803 27.7975 78.4334C27.8912 78.4803 27.9826 78.5269 28.0767 78.5715Z" fill="#11B67A"/>
<path d="M26.6856 77.8322C26.5335 77.7441 26.3794 77.6533 26.2277 77.5629C26.379 77.6557 26.5335 77.7441 26.6856 77.8322Z" fill="#11B67A"/>
<path d="M28.5481 78.7955C28.454 78.7509 28.3619 78.7091 28.2678 78.6645C28.3619 78.7091 28.4536 78.7533 28.5481 78.7955Z" fill="#11B67A"/>
<path d="M27.6085 78.334C27.5128 78.2843 27.4171 78.2346 27.3242 78.183C27.4195 78.235 27.5151 78.2847 27.6085 78.334Z" fill="#11B67A"/>
<path d="M27.1435 78.089C27.0392 78.033 26.9353 77.9747 26.8338 77.9168C26.9377 77.9751 27.0416 78.0334 27.1435 78.089Z" fill="#11B67A"/>
<path d="M39.6109 80.8085L39.6113 80.8061C39.766 80.6312 39.8924 80.4371 39.9937 80.2196L68.6099 36.4966L39.6085 80.8075L39.6109 80.8085Z" fill="#11B67A"/>
<path d="M26.218 77.5561C26.1148 77.4931 25.1115 76.87 23.6831 75.9251C24.5434 76.5076 25.3907 77.0516 26.218 77.5561Z" fill="#11B67A"/>
<path d="M44.185 56.8079L62.3169 35.8573C64.5025 37.0002 68.6111 36.5 68.6111 36.5L41.6562 12.2764L1.22359 45.382C1.02461 45.5037 0.846026 45.648 0.6898 45.8179L0.678836 45.8257C-1.98674 48.8003 3.42597 58.0801 12.9157 67.1662C12.9267 67.1729 28.158 75.3241 44.1803 56.8072L44.185 56.8079Z" fill="#11B67A"/>
<path d="M35.7486 80.8838C35.6632 80.8744 35.5758 80.8623 35.4907 80.8506C35.5781 80.8627 35.6636 80.8721 35.7486 80.8838Z" fill="#006B4E"/>
<path d="M34.9608 80.7752C34.8785 80.7616 34.7938 80.7476 34.7115 80.7339C34.7962 80.7479 34.8785 80.7616 34.9608 80.7752Z" fill="#006B4E"/>
<path d="M26.2257 77.5603C26.2257 77.5603 26.2191 77.5568 26.2171 77.5541C26.2237 77.5576 26.2257 77.5603 26.2257 77.5603Z" fill="#006B4E"/>
<path d="M35.3589 80.8345C35.2766 80.8208 35.1901 80.8114 35.1055 80.7973C35.1901 80.8114 35.2762 80.8232 35.3589 80.8345Z" fill="#006B4E"/>
<path d="M29.664 79.2832C29.6186 79.266 29.5755 79.2461 29.5304 79.2266C29.5755 79.2461 29.619 79.2637 29.664 79.2832Z" fill="#006B4E"/>
<path d="M38.3412 80.9842C38.2581 80.9898 38.1754 80.993 38.088 80.9954C38.1731 80.9926 38.2585 80.9874 38.3412 80.9842Z" fill="#006B4E"/>
<path d="M26.8337 77.9179C26.7827 77.8901 26.7341 77.8627 26.6835 77.8326C26.7345 77.8604 26.7831 77.8878 26.8337 77.9179Z" fill="#006B4E"/>
<path d="M37.4609 81.0043C37.0584 80.998 36.6301 80.9729 36.1778 80.9317C36.6297 80.9752 37.0584 80.998 37.4609 81.0043Z" fill="#006B4E"/>
<path d="M38.3715 80.9856C38.8429 80.9551 39.263 80.8958 39.6109 80.8085C39.6117 80.8038 38.6239 80.9646 38.6239 80.9646C38.5404 80.9725 38.4573 80.9781 38.3696 80.9829L38.3715 80.9856Z" fill="#006B4E"/>
<path d="M28.7357 78.8819C28.673 78.8521 28.6098 78.8248 28.5471 78.795C28.6098 78.8248 28.6726 78.8545 28.7357 78.8819Z" fill="#006B4E"/>
<path d="M31.706 80.0099C31.637 79.9888 31.568 79.9677 31.4994 79.9443C31.5684 79.9654 31.637 79.9888 31.706 80.0099Z" fill="#006B4E"/>
<path d="M34.552 80.7056C34.4697 80.6919 34.3843 80.6777 34.3028 80.6594C34.3875 80.6734 34.4701 80.6896 34.552 80.7056Z" fill="#006B4E"/>
<path d="M29.2011 79.0899C29.1423 79.0656 29.0839 79.039 29.0255 79.0124C29.0839 79.039 29.1427 79.0633 29.2011 79.0899Z" fill="#006B4E"/>
<path d="M28.2666 78.6635C28.2016 78.6334 28.1392 78.6013 28.0741 78.5712C28.1388 78.6036 28.2016 78.6334 28.2666 78.6635Z" fill="#006B4E"/>
<path d="M30.246 79.5085C30.2053 79.4921 30.1665 79.4784 30.1253 79.4643C30.1661 79.4807 30.2049 79.4944 30.246 79.5085Z" fill="#006B4E"/>
<path d="M32.1625 80.1466C32.0912 80.1251 32.0221 80.1061 31.9508 80.0846C32.0221 80.1061 32.0908 80.1274 32.1625 80.1466Z" fill="#006B4E"/>
<path d="M32.6079 80.2698C32.5385 80.2511 32.4668 80.2319 32.3974 80.2132C32.4668 80.2319 32.5381 80.2534 32.6079 80.2698Z" fill="#006B4E"/>
<path d="M33.0505 80.3857C32.9808 80.3693 32.9084 80.3509 32.839 80.3321C32.9084 80.3509 32.9811 80.367 33.0505 80.3857Z" fill="#006B4E"/>
<path d="M61.3403 34.1395L59.3049 36.5336C59.3049 36.5336 59.3048 36.5336 43.7767 54.7989C28.2543 73.058 13.5833 65.0902 13.5727 65.0837C14.2126 65.7081 14.8714 66.3309 15.5491 66.9521C18.3782 69.5395 21.2262 71.8021 23.9287 73.6625C25.3042 74.5872 26.2706 75.1967 26.3699 75.2584C26.3721 75.2588 26.3763 75.2618 26.3782 75.2645C26.5239 75.3553 26.6727 75.4417 26.8193 75.5279C26.8684 75.555 26.9152 75.5818 26.9639 75.6113C27.064 75.6683 27.1641 75.7253 27.2623 75.7796C27.3201 75.8106 27.3779 75.8416 27.4356 75.8726C27.5274 75.9235 27.6196 75.972 27.7095 76.0202C27.7695 76.0516 27.8318 76.0833 27.8919 76.1147C27.9822 76.1605 28.0702 76.2061 28.1608 76.2496C28.2232 76.2813 28.2836 76.3104 28.3463 76.3398C28.437 76.3834 28.5254 76.4266 28.6164 76.4678C28.6769 76.4969 28.7373 76.5259 28.7981 76.5526C28.891 76.5966 28.9844 76.6382 29.0777 76.6798C29.134 76.7058 29.1906 76.7295 29.2469 76.7554C29.3535 76.8016 29.46 76.8478 29.5669 76.8917C29.6104 76.9108 29.6519 76.9272 29.6954 76.9463C29.8438 77.0066 29.9901 77.0665 30.1389 77.1245C30.1782 77.1405 30.2156 77.1538 30.2553 77.1675C30.3649 77.2095 30.4744 77.2514 30.5821 77.2907C30.6415 77.3124 30.6989 77.3315 30.7582 77.3532C30.8463 77.3844 30.9366 77.416 31.0246 77.4473C31.0885 77.4698 31.1527 77.4899 31.2166 77.5124C31.2982 77.5402 31.3802 77.5657 31.4618 77.5935C31.5283 77.614 31.5945 77.6369 31.661 77.6574C31.7384 77.6822 31.8186 77.705 31.896 77.7297C31.9648 77.7506 32.0313 77.7712 32.1005 77.7898C32.1761 77.8118 32.2516 77.8339 32.3276 77.8536C32.3945 77.8718 32.4633 77.8927 32.5306 77.9086C32.6065 77.9284 32.6802 77.9477 32.7539 77.9671C32.8208 77.9853 32.8904 78.0016 32.9573 78.0198C33.0287 78.0388 33.1028 78.0558 33.1746 78.0725C33.3182 78.1058 33.4619 78.1392 33.6036 78.1698C33.6576 78.1811 33.7091 78.1944 33.7631 78.2058C33.844 78.2239 33.923 78.2394 34.0043 78.2553C34.0587 78.2643 34.1124 78.278 34.1645 78.2866C34.2462 78.3001 34.3252 78.3156 34.4042 78.3311C34.4564 78.3398 34.5063 78.348 34.5562 78.3563C34.6378 78.3699 34.7172 78.383 34.7966 78.3962C34.8442 78.4041 34.8919 78.412 34.9372 78.4195C35.0189 78.433 35.1009 78.4443 35.1807 78.4551C35.2238 78.4623 35.265 78.4667 35.3085 78.4716C35.3928 78.4832 35.4752 78.4921 35.5573 78.5033C35.5913 78.509 35.6261 78.51 35.6601 78.5156C35.7493 78.5257 35.8385 78.5357 35.9259 78.543C35.9418 78.5457 35.9558 78.5456 35.9716 78.5483C36.4076 78.5897 36.8213 78.6107 37.2096 78.6157C37.2142 78.6164 37.2164 78.6168 37.221 78.6176C37.3117 78.6184 37.4002 78.6188 37.4891 78.6169C37.5005 78.6187 37.5148 78.6164 37.5266 78.6159C37.6105 78.6156 37.6949 78.6129 37.7769 78.6099C37.7909 78.6099 37.8027 78.6094 37.8166 78.6094C37.8987 78.6063 37.9812 78.601 38.061 78.5976C38.0701 78.5991 38.0799 78.596 38.0871 78.5948C38.1695 78.5894 38.2524 78.5818 38.3326 78.5761C38.3326 78.5761 39.289 78.4161 39.286 78.4204L67.4121 34.7542C67.4121 34.7542 63.4456 35.2589 61.3399 34.1418L61.3403 34.1395Z" fill="#006B4E"/>
<path d="M41.8115 68.3292C41.8115 68.3292 40.2625 79.6045 39.6109 80.8085L45.9544 71.1184L41.8111 68.3315L41.8115 68.3292Z" fill="#035D3E"/>
<path d="M68.6112 36.4972C70.5904 34.2956 66.1579 27.0896 58.7157 20.4018C51.2735 13.7139 43.6351 10.0743 41.6586 12.274C39.6794 14.4756 44.1119 21.6816 51.5541 28.3695C58.9963 35.0573 66.6347 38.6969 68.6112 36.4972Z" fill="black"/>
<path d="M40.4856 16.2666L3.96768 46.6168C3.96768 46.6168 29.0128 25.2566 35.5509 28.9457C35.5509 28.9457 33.9517 23.1882 40.4809 16.2658L40.4856 16.2666Z" fill="white"/>
<path d="M82.4058 55.907C82.4058 55.907 48.492 59.8029 48.3278 59.8312C46.5646 60.1332 44.489 61.925 43.0905 64.5588C41.2252 68.0697 41.2732 71.7432 43.1939 72.7649C43.6401 73.0032 44.1503 73.0733 44.6915 73.0011L44.6903 73.0082L44.7683 72.9897C44.8823 72.9724 44.9995 72.9507 45.1158 72.9193C45.1664 72.9059 45.22 72.8882 45.271 72.8725L81.4388 64.3898C82.1433 64.2215 82.7307 63.739 83.028 63.0827L84.7911 59.1829C85.5387 57.5308 84.1985 55.7042 82.4031 55.909L82.4058 55.907Z" fill="#11B67A"/>
<path d="M81.5144 63.5739C81.2261 64.205 80.6633 64.6699 79.9839 64.8327L45.1937 72.993C45.1428 73.0087 45.0942 73.0248 45.0437 73.0381C44.9301 73.0676 44.8204 73.0881 44.7087 73.1058L44.6307 73.1243L44.6319 73.1172C44.1131 73.1858 43.6216 73.1188 43.1931 72.8907C42.4937 72.5186 42.0526 71.7834 41.87 70.83L81.5089 63.5778L81.5144 63.5739Z" fill="#006B4E"/>
<path d="M85.0327 57.5659C84.5585 57.074 83.8674 56.783 83.0915 56.8718C83.0915 56.8718 49.1777 60.7677 49.0135 60.796C47.2502 61.098 45.1747 62.8898 43.7762 65.5236C43.7762 65.5236 45.4624 62.4519 52.6404 61.8446C59.8185 61.2373 85.0327 57.5659 85.0327 57.5659Z" fill="#6CF479"/>
<path d="M83.4506 68.539C87.5745 68.1356 90.5476 64.0352 90.0948 59.3788C89.6396 54.722 85.93 51.2725 81.8061 51.6759C77.6822 52.0793 74.7091 56.1796 75.1619 60.8361C75.6171 65.4929 79.3291 68.9428 83.453 68.5394L83.4506 68.539Z" fill="#6CF479"/>
<path d="M84.4724 71.7912C87.9068 71.2324 90.4008 65.3443 90.0431 58.6425C89.6854 51.9408 86.6137 46.9612 83.1793 47.52C79.7449 48.0789 77.2509 53.967 77.6086 60.6687C77.9663 67.3705 81.0376 72.3524 84.4724 71.7912Z" fill="#11B67A"/>
<path d="M85.4611 69.4383C87.9366 68.9645 89.7653 64.1597 89.5461 58.706C89.327 53.2523 87.1425 49.2172 84.667 49.691C82.1914 50.1648 80.3628 54.9697 80.5819 60.4234C80.8011 65.8771 82.9855 69.9121 85.4611 69.4383Z" fill="#6CF479"/>
<path d="M87.7607 55.752C87.7786 56.0957 87.6656 56.3983 87.5053 56.4322C87.3451 56.466 87.2011 56.2125 87.1832 55.8689C87.1652 55.5252 87.2783 55.2226 87.4385 55.1888C87.5988 55.1549 87.7428 55.4084 87.7607 55.752Z" fill="black"/>
<path d="M86.6654 57.9708C86.6833 58.3145 86.5703 58.6171 86.41 58.6509C86.2498 58.6847 86.1058 58.4313 86.0879 58.0876C86.0699 57.744 86.183 57.4413 86.3432 57.4075C86.5035 57.3737 86.6475 57.6271 86.6654 57.9708Z" fill="black"/>
<path d="M87.9838 58.3345C88.0017 58.6782 87.8887 58.9808 87.7284 59.0147C87.5682 59.0485 87.4241 58.7951 87.4062 58.4514C87.3883 58.1077 87.5013 57.8051 87.6616 57.7713C87.8219 57.7374 87.9659 57.9909 87.9838 58.3345Z" fill="black"/>
<path d="M87.1075 60.0911C87.1254 60.4347 87.0124 60.7374 86.8522 60.7712C86.6919 60.805 86.5479 60.5516 86.53 60.2079C86.5121 59.8642 86.6251 59.5616 86.7853 59.5278C86.9456 59.494 87.0896 59.7474 87.1075 60.0911Z" fill="black"/>
<path d="M88.3556 60.6096C88.3735 60.9532 88.2605 61.2559 88.1002 61.2897C87.94 61.3235 87.796 61.0701 87.778 60.7264C87.7601 60.3828 87.8731 60.0801 88.0334 60.0463C88.1937 60.0125 88.3377 60.2659 88.3556 60.6096Z" fill="black"/>
<path d="M89.1635 58.9051C89.1814 59.2487 89.0684 59.5514 88.9081 59.5852C88.7479 59.619 88.6039 59.3656 88.586 59.0219C88.568 58.6782 88.6811 58.3756 88.8413 58.3418C89.0016 58.308 89.1456 58.5614 89.1635 58.9051Z" fill="black"/>
<path d="M88.8942 56.5278C88.9121 56.8715 88.7991 57.1741 88.6388 57.2079C88.4786 57.2417 88.3346 56.9883 88.3167 56.6446C88.2987 56.301 88.4118 55.9983 88.572 55.9645C88.7323 55.9307 88.8763 56.1841 88.8942 56.5278Z" fill="black"/>
<path d="M86.6011 55.4968C86.619 55.8405 86.506 56.1431 86.3457 56.1769C86.1855 56.2108 86.0415 55.9573 86.0235 55.6136C86.0056 55.27 86.1186 54.9674 86.2789 54.9335C86.4392 54.8997 86.5832 55.1531 86.6011 55.4968Z" fill="black"/>
<path d="M87.403 53.1092C87.4209 53.4529 87.3079 53.7555 87.1476 53.7893C86.9874 53.8232 86.8433 53.5697 86.8254 53.2261C86.8075 52.8824 86.9205 52.5798 87.0808 52.5459C87.241 52.5121 87.3851 52.7655 87.403 53.1092Z" fill="black"/>
<path d="M86.177 53.0992C86.1949 53.4428 86.0819 53.7455 85.9217 53.7793C85.7614 53.8131 85.6174 53.5597 85.5995 53.216C85.5816 52.8724 85.6946 52.5697 85.8548 52.5359C86.0151 52.5021 86.1591 52.7555 86.177 53.0992Z" fill="black"/>
<path d="M85.3872 56.8031C85.4051 57.1468 85.2921 57.4494 85.1318 57.4832C84.9716 57.5171 84.8276 57.2636 84.8096 56.92C84.7917 56.5763 84.9048 56.2737 85.065 56.2398C85.2253 56.206 85.3693 56.4594 85.3872 56.8031Z" fill="black"/>
<path d="M88.4862 63.8774C88.5041 64.2211 88.3911 64.5237 88.2309 64.5575C88.0706 64.5914 87.9266 64.3379 87.9087 63.9943C87.8908 63.6506 88.0038 63.348 88.164 63.3141C88.3243 63.2803 88.4683 63.5337 88.4862 63.8774Z" fill="black"/>
<path d="M82.8931 53.9915C82.911 54.3352 82.798 54.6378 82.6378 54.6716C82.4775 54.7054 82.3335 54.452 82.3156 54.1083C82.2977 53.7647 82.4107 53.4621 82.5709 53.4282C82.7312 53.3944 82.8752 53.6478 82.8931 53.9915Z" fill="black"/>
<path d="M86.2011 62.0385C86.2191 62.3822 86.106 62.6848 85.9458 62.7186C85.7855 62.7525 85.6415 62.499 85.6236 62.1553C85.6057 61.8117 85.7187 61.5091 85.879 61.4752C86.0392 61.4414 86.1832 61.6948 86.2011 62.0385Z" fill="black"/>
<path d="M86.7719 64.1266C86.7898 64.4703 86.6768 64.7729 86.5166 64.8067C86.3563 64.8406 86.2123 64.5871 86.1944 64.2435C86.1765 63.8998 86.2895 63.5972 86.4497 63.5633C86.61 63.5295 86.754 63.7829 86.7719 64.1266Z" fill="black"/>
<path d="M85.9419 67.1452C85.9598 67.4889 85.8468 67.7915 85.6865 67.8254C85.5263 67.8592 85.3822 67.6058 85.3643 67.2621C85.3464 66.9184 85.4594 66.6158 85.6197 66.582C85.78 66.5481 85.924 66.8016 85.9419 67.1452Z" fill="black"/>
<path d="M84.6396 60.1031C84.6575 60.4468 84.5445 60.7494 84.3842 60.7832C84.224 60.8171 84.0799 60.5636 84.062 60.22C84.0441 59.8763 84.1571 59.5737 84.3174 59.5398C84.4776 59.506 84.6217 59.7594 84.6396 60.1031Z" fill="black"/>
<path d="M83.277 63.1016C83.2949 63.4453 83.1819 63.7479 83.0216 63.7818C82.8614 63.8156 82.7173 63.5622 82.6994 63.2185C82.6815 62.8748 82.7945 62.5722 82.9548 62.5384C83.115 62.5045 83.2591 62.758 83.277 63.1016Z" fill="black"/>
<path d="M83.9 66.4901C83.9179 66.8337 83.8049 67.1364 83.6446 67.1702C83.4844 67.204 83.3404 66.9506 83.3224 66.6069C83.3045 66.2633 83.4175 65.9606 83.5778 65.9268C83.7381 65.893 83.8821 66.1464 83.9 66.4901Z" fill="black"/>
<path d="M85.5078 64.0281C85.5257 64.3718 85.4127 64.6744 85.2524 64.7083C85.0922 64.7421 84.9481 64.4887 84.9302 64.145C84.9123 63.8013 85.0253 63.4987 85.1856 63.4649C85.3458 63.431 85.4899 63.6845 85.5078 64.0281Z" fill="black"/>
<path d="M96.1563 68.0342C96.0402 67.9038 95.9504 67.7464 95.8711 67.5834C95.7345 67.2998 95.6257 66.9942 95.5177 66.6984C95.4167 66.4183 95.3362 66.1174 95.3155 65.8192C95.3116 65.7702 95.2994 65.6836 95.3393 65.6467C95.3996 65.5891 95.5631 65.6524 95.625 65.6724C95.8116 65.7275 95.9919 65.8057 96.1695 65.8859C96.5086 66.0412 96.8591 66.2008 97.17 66.4094C97.4896 66.6243 97.8092 66.9117 97.8464 67.3142C97.9057 67.9619 97.2818 68.4891 96.6543 68.3391C96.4473 68.2903 96.2869 68.1791 96.1587 68.0346L96.1563 68.0342Z" fill="white"/>
<path d="M90.2886 71.2902C90.3014 71.1836 90.3335 71.0777 90.3769 70.9762C90.4496 70.7998 90.5439 70.6246 90.6324 70.4556C90.7169 70.2956 90.8206 70.1364 90.9487 70.0054C90.969 69.9847 91.0027 69.9419 91.0383 69.9454C91.0885 69.9489 91.125 70.0492 91.1431 70.086C91.193 70.1934 91.2322 70.3062 91.2692 70.4186C91.3371 70.6353 91.4086 70.8598 91.439 71.0847C91.4705 71.3171 91.4731 71.5784 91.3051 71.7608C91.0369 72.0522 90.5431 71.9848 90.3539 71.6393C90.2931 71.5253 90.2765 71.4066 90.2909 71.2906L90.2886 71.2902Z" fill="white"/>
<path d="M96.1337 75.4032C95.8975 75.0934 95.7232 74.7311 95.5755 74.3538C95.3215 73.7004 95.1297 73.0065 94.9395 72.3322C94.7599 71.6959 94.6339 71.013 94.6381 70.3467C94.6392 70.2382 94.6253 70.045 94.7228 69.9669C94.8677 69.8508 95.2166 70.0198 95.3531 70.0715C95.7576 70.2255 96.1442 70.4298 96.5229 70.6376C97.2513 71.0387 97.9994 71.4527 98.6531 71.9695C99.3236 72.5011 99.9845 73.193 99.9997 74.092C100.023 75.5385 98.5486 76.6059 97.1818 76.1642C96.7298 76.0192 96.3957 75.7463 96.136 75.4036L96.1337 75.4032Z" fill="white"/>
<path d="M68.6112 36.4972C70.5904 34.2956 66.1579 27.0896 58.7157 20.4018C51.2735 13.7139 43.6351 10.0743 41.6586 12.274C39.6794 14.4756 44.1119 21.6816 51.5541 28.3695C58.9963 35.0573 66.6347 38.6969 68.6112 36.4972Z" fill="#6CF479"/>
<path d="M54.7406 19.2038C49.6283 14.6107 44.386 12.1127 43.0266 13.6222C41.8677 14.9136 43.9152 18.7109 47.722 22.6526" fill="black"/>
<path d="M41.8115 68.3292C41.8115 68.3292 41.8761 70.8256 47.0094 69.8864L41.8761 70.8256C41.8761 70.8256 41.4976 69.7414 41.8115 68.3292Z" fill="#006B4E"/>
<path d="M36.5605 94.19C50.3528 94.19 61.5336 92.7644 61.5336 91.0057C61.5336 89.247 50.3528 87.8214 36.5605 87.8214C22.7683 87.8214 11.5875 89.247 11.5875 91.0057C11.5875 92.7644 22.7683 94.19 36.5605 94.19Z" fill="#035D3E"/>
</svg>
