<svg width="100" height="100" viewBox="0 0 100 100" fill="none" xmlns="http://www.w3.org/2000/svg">
<g clip-path="url(#clip0_15980_16388)">
<rect width="100" height="100" fill="#F1F1F1"/>
<path d="M50.0464 59.593C43.6776 59.593 37.9103 62.1638 33.744 66.3193L33.5493 70.5805H38.0252L50.0464 82.5453L62.0676 70.5805H66.5436L66.349 66.3193C62.1739 62.1638 56.4064 59.593 50.0376 59.593H50.0464Z" fill="black"/>
<path d="M50.0465 44.1137C39.3786 44.1137 29.728 48.4189 22.74 55.3741L22.4215 59.5121C22.4215 59.5121 23.4565 58.8518 25.2875 57.9097L27.9589 60.5686C33.1248 55.427 40.0774 52.0814 47.7997 51.5356C48.5427 51.4915 49.2946 51.4563 50.0553 51.4475C58.671 51.4475 66.4905 54.9339 72.1518 60.5686L74.8674 57.8657C76.6719 58.8342 77.6803 59.5209 77.6803 59.5209L77.3619 55.383C70.3738 48.4277 60.7232 44.1225 50.0553 44.1225L50.0465 44.1137Z" fill="black"/>
<path d="M42.3774 20.8004C42.5985 20.774 42.8108 20.7388 43.0319 20.7212C43.3769 20.6772 43.7218 20.642 44.058 20.6155C46.0217 20.4307 48.0208 20.325 50.0376 20.325C59.9448 20.325 69.3124 22.6405 77.645 26.7344L79.2017 19.3478C78.2022 18.8899 77.1938 18.4585 76.1766 18.0448L75.2212 23.6266L73.0452 23.2568L74.0802 17.226C66.5879 14.4967 58.4941 13 50.0465 13C30.7541 13 13.284 20.7828 0.634701 33.3727L0.0509117 37.2553L4.10218 36.8327L5.85366 38.5759C12.6825 31.7792 21.0947 26.5583 30.4711 23.4681C34.5843 22.1651 38.5648 21.3023 42.3861 20.8092L42.3774 20.8004Z" fill="black"/>
<path d="M50.0464 28.5585C35.0619 28.5585 21.5015 34.5981 11.6829 44.3707L11.2317 48.3765C11.2317 48.3765 12.2844 47.7514 14.1331 46.8094L16.9018 49.5651C20.5904 45.8938 24.8983 42.83 29.6396 40.5321C36.1146 38.56 43.7041 37.0545 51.391 37.3098C58.3614 37.5387 64.9249 38.9033 70.5595 40.5937C75.2566 42.8828 79.5201 45.9202 83.1822 49.5651L85.9686 46.7918C87.8173 47.7514 88.8523 48.3765 88.8523 48.3765L88.4012 44.3707C78.5825 34.5981 65.0221 28.5585 50.0376 28.5585H50.0464Z" fill="black"/>
<path d="M99.4582 33.3635C94.9204 28.847 89.7546 24.9644 84.111 21.8213L82.5276 29.3488L82.4392 29.3312C86.7382 31.9372 90.701 35.0363 94.2393 38.5579L95.1327 37.6687L100.033 37.2461L99.4494 33.3635H99.4582Z" fill="black"/>
<path d="M0.0509117 37.2455L5.33174 42.5016C16.7869 31.1003 32.6029 24.0394 50.0376 24.0394C67.4724 24.0394 83.2885 31.1003 94.7436 42.5016L100.024 37.2455C87.2336 24.5148 69.5511 16.6351 50.0288 16.6351C30.5064 16.6351 12.8329 24.5148 0.0332031 37.2455H0.0509117Z" fill="#11B67A"/>
<path d="M22.4126 59.5048L27.6846 64.752C33.4077 59.0558 41.3158 55.5253 50.0376 55.5253C58.7594 55.5253 66.6674 59.0558 72.3905 64.752L77.6625 59.5048C70.5948 52.4703 60.8204 48.1123 50.0376 48.1123C39.2547 48.1123 29.4803 52.4615 22.4126 59.5048ZM33.5404 70.5804L50.0376 87L66.5347 70.5804C62.3154 66.3808 56.4772 63.7748 50.0376 63.7748C43.5979 63.7748 37.7598 66.372 33.5404 70.5804ZM50.0464 32.3793C34.8938 32.3793 21.1654 38.4894 11.2406 48.3764L16.5215 53.6325C25.1106 45.0837 36.9726 39.7836 50.0553 39.7836C63.138 39.7836 75 45.0837 83.5892 53.6325L88.87 48.3764C78.9363 38.4894 65.2167 32.3793 50.0641 32.3793H50.0464Z" fill="#6CF479"/>
<path d="M8.95854 63.6924C8.95854 63.6924 11.2938 71.4048 20.7763 73.5354C20.7763 73.5354 13.5936 74.7679 13.4521 83.3519C13.4521 83.3519 10.9222 75.9125 1.83775 73.5266C1.83775 73.5266 9.42736 72.6285 8.95854 63.6924Z" fill="#006A4D"/>
</g>
<defs>
<clipPath id="clip0_15980_16388">
<rect width="100" height="100" fill="white"/>
</clipPath>
</defs>
</svg>
