<svg width="100" height="100" viewBox="0 0 100 100" fill="none" xmlns="http://www.w3.org/2000/svg">
<path d="M50.0132 59.6789C43.6444 59.6789 37.8771 62.2497 33.7108 66.4052L33.5161 70.6664H37.992L50.0132 82.6312L62.0344 70.6664H66.5104L66.3158 66.4052C62.1407 62.2497 56.3732 59.6789 50.0044 59.6789H50.0132Z" fill="#024731"/>
<path d="M50.0133 44.1996C39.3454 44.1996 29.6948 48.5048 22.7068 55.4601L22.3883 59.598C22.3883 59.598 23.4233 58.9377 25.2543 57.9957L27.9257 60.6545C33.0916 55.5129 40.0442 52.1674 47.7665 51.6215C48.5095 51.5775 49.2614 51.5423 50.0221 51.5335C58.6378 51.5335 66.4573 55.0199 72.1186 60.6545L74.8342 57.9516C76.6387 58.9201 77.6471 59.6068 77.6471 59.6068L77.3287 55.4689C70.3406 48.5136 60.69 44.2084 50.0221 44.2084L50.0133 44.1996Z" fill="#024731"/>
<path d="M42.3442 20.8864C42.5653 20.86 42.7776 20.8247 42.9987 20.8071C43.3437 20.7631 43.6886 20.7279 44.0248 20.7015C45.9885 20.5166 47.9876 20.411 50.0044 20.411C59.9116 20.411 69.2792 22.7264 77.6118 26.8203L79.1685 19.4337C78.169 18.9759 77.1606 18.5445 76.1434 18.1307L75.188 23.7125L73.012 23.3427L74.047 17.3119C66.5547 14.5826 58.4609 13.0859 50.0133 13.0859C30.7209 13.0859 13.2508 20.8688 0.601498 33.4586L0.0177086 37.3412L4.06898 36.9186L5.82045 38.6619C12.6493 31.8651 21.0615 26.6443 30.4379 23.554C34.5511 22.251 38.5316 21.3882 42.3529 20.8952L42.3442 20.8864Z" fill="#024731"/>
<path d="M50.0132 28.6444C35.0287 28.6444 21.4683 34.6841 11.6497 44.4566L11.1985 48.4625C11.1985 48.4625 12.2512 47.8374 14.0999 46.8953L16.8686 49.651C20.5572 45.9797 24.8651 42.9159 29.6064 40.618C36.0814 38.6459 43.6709 37.1404 51.3578 37.3957C58.3282 37.6246 64.8917 38.9893 70.5263 40.6796C75.2234 42.9687 79.4869 46.0061 83.149 49.651L85.9354 46.8777C87.7841 47.8374 88.8191 48.4625 88.8191 48.4625L88.368 44.4566C78.5493 34.6841 64.9889 28.6444 50.0044 28.6444H50.0132Z" fill="#024731"/>
<path d="M99.425 33.4494C94.8872 28.9329 89.7214 25.0503 84.0778 21.9072L82.4944 29.4347L82.406 29.4171C86.705 32.0232 90.6678 35.1222 94.2061 38.6438L95.0995 37.7546L100 37.332L99.4162 33.4494H99.425Z" fill="#024731"/>
<path d="M0.0177086 37.3315L5.29854 42.5875C16.7537 31.1862 32.5697 24.1253 50.0044 24.1253C67.4392 24.1253 83.2553 31.1862 94.7104 42.5875L99.9912 37.3315C87.2004 24.6007 69.5179 16.7211 49.9956 16.7211C30.4732 16.7211 12.7997 24.6007 0 37.3315H0.0177086Z" fill="#11B67A"/>
<path d="M22.3794 59.5907L27.6514 64.838C33.3745 59.1417 41.2826 55.6113 50.0044 55.6113C58.7262 55.6113 66.6342 59.1417 72.3573 64.838L77.6293 59.5907C70.5616 52.5562 60.7872 48.1982 50.0044 48.1982C39.2215 48.1982 29.4471 52.5474 22.3794 59.5907ZM33.5072 70.6663L50.0044 87.0859L66.5015 70.6663C62.2822 66.4667 56.444 63.8607 50.0044 63.8607C43.5647 63.8607 37.7266 66.4579 33.5072 70.6663ZM50.0132 32.4653C34.8606 32.4653 21.1322 38.5753 11.2074 48.4623L16.4882 53.7184C25.0774 45.1696 36.9394 39.8695 50.0221 39.8695C63.1048 39.8695 74.9668 45.1696 83.556 53.7184L88.8368 48.4623C78.9031 38.5753 65.1835 32.4653 50.0309 32.4653H50.0132Z" fill="#6CF479"/>
<path d="M8.92534 63.7783C8.92534 63.7783 11.2606 71.4907 20.7431 73.6213C20.7431 73.6213 13.5604 74.8539 13.4189 83.4379C13.4189 83.4379 10.889 75.9984 1.80455 73.6125C1.80455 73.6125 9.39416 72.7145 8.92534 63.7783Z" fill="white"/>
</svg>
