<svg width="24" height="24" viewBox="0 0 24 24" fill="none" xmlns="http://www.w3.org/2000/svg">
<path d="M19.04 7.96002L18.09 8.91002C19.78 9.88002 21.27 11.25 22.45 12.96C19.99 16.54 16.14 18.66 12 18.66C10.9 18.66 9.82 18.5 8.79 18.21L7.74 19.26C9.09 19.71 10.51 19.96 12 19.96C17.03 19.96 21.44 17.17 24 12.96C22.75 10.9 21.04 9.18002 19.04 7.96002Z" fill="black"/>
<path d="M12 16.13C11.65 16.13 11.32 16.08 11 16.01L9.96 17.05C10.6 17.29 11.28 17.43 12.01 17.43C15.19 17.43 17.76 14.86 17.76 11.68C17.76 10.96 17.62 10.27 17.37 9.64002L16.33 10.68C16.41 11 16.46 11.34 16.46 11.68C16.46 14.13 14.46 16.13 12.01 16.13H12Z" fill="black"/>
<path d="M21.96 2.92002L21.04 2.00002L16.34 6.70002C15.2 6.31002 14 6.06002 12.76 5.99002C12.51 5.96002 12.26 5.93002 12 5.93002C11.74 5.93002 11.49 5.95002 11.24 5.99002C6.53 6.26002 2.43 8.97002 0 12.96C1.27 15.05 3 16.78 5.04 18L0.0400009 23L0.959999 23.92L21.96 2.92002ZM11.2 7.31002C11.47 7.29002 11.73 7.26002 12 7.26002C12.27 7.26002 12.53 7.29002 12.8 7.31002C13.55 7.45002 14.22 7.79002 14.78 8.26002L8.55 14.49C7.92 13.72 7.54 12.75 7.54 11.69C7.54 9.51002 9.12 7.70002 11.19 7.32002L11.2 7.31002ZM5.99 17.05C4.27 16.08 2.74 14.7 1.54 12.96C3.07 10.74 5.13 9.08002 7.47 8.14002C6.71 9.12002 6.25 10.34 6.25 11.68C6.25 13.11 6.77 14.41 7.63 15.41L5.99 17.05Z" fill="black"/>
</svg>
