<svg width="24" height="24" viewBox="0 0 24 24" fill="none" xmlns="http://www.w3.org/2000/svg">
<path d="M11.1491 15.278L10.1564 14.9288C10.0255 15.027 9.90545 15.1361 9.76364 15.2125C9.25091 15.5179 8.72727 15.6707 8.20364 15.6707C7.68 15.6707 7.14545 15.5179 6.64364 15.2125C6.50182 15.1252 6.37091 15.027 6.25091 14.9288L5.25818 15.278C4.39636 15.5616 3.93818 15.9543 3.65455 16.9907L3.30545 18.398H13.1236L12.7745 16.9907C12.4909 15.9543 12.0327 15.5616 11.1709 15.278H11.1491Z" fill="black"/>
<path d="M7.47273 13.8053C7.69091 13.9362 7.93091 14.0343 8.20364 14.0343C8.47636 14.0343 8.71636 13.9362 8.92364 13.8053C9.40364 13.5217 9.75273 13.0416 9.94909 12.518C10.1782 11.8852 10.2 11.3071 10.2 11.3071C10.2655 9.84526 9.29455 9.10342 8.19273 9.10342C7.09091 9.10342 6.12 9.84526 6.18545 11.3071C6.18545 11.3071 6.20727 11.8743 6.43636 12.518C6.63273 13.0525 6.98182 13.5217 7.46182 13.8053H7.47273Z" fill="black"/>
<path d="M21.2836 4.21617H17.1927L16.7455 2.77623C16.4618 1.85986 15.6218 1.23801 14.6618 1.23801H9.34909C8.38909 1.23801 7.54909 1.85986 7.26545 2.77623L6.81818 4.21617H2.72727C1.22182 4.21617 0 5.43799 0 6.94344V20.0343C0 21.5398 1.22182 22.7616 2.72727 22.7616H21.2727C22.7782 22.7616 24 21.5398 24 20.0343V6.94344C24 5.43799 22.7782 4.21617 21.2727 4.21617H21.2836ZM22.5927 20.0343C22.5927 20.7543 22.0036 21.3434 21.2836 21.3434H2.73818C2.01818 21.3434 1.42909 20.7543 1.42909 20.0343V6.94344C1.42909 6.22344 2.01818 5.6344 2.73818 5.6344H7.86545L8.61818 3.20156C8.71636 2.8852 9.01091 2.66703 9.34909 2.66703H14.6618C15 2.66703 15.2945 2.8852 15.3927 3.20156L16.1455 5.6344H21.2727C21.9927 5.6344 22.5818 6.22344 22.5818 6.94344V20.0343H22.5927Z" fill="black"/>
<path d="M20.7382 8.5798H14.1927V9.99804H20.7382V8.5798Z" fill="black"/>
<path d="M18.5564 11.8525H14.1927V13.2708H18.5564V11.8525Z" fill="black"/>
<path d="M13.4836 4.21617H10.5382C10.1466 4.21617 9.82909 4.53366 9.82909 4.92528C9.82909 5.31691 10.1466 5.6344 10.5382 5.6344H13.4836C13.8753 5.6344 14.1927 5.31691 14.1927 4.92528C14.1927 4.53366 13.8753 4.21617 13.4836 4.21617Z" fill="black"/>
</svg>
