<svg width="24" height="24" viewBox="0 0 24 24" fill="none" xmlns="http://www.w3.org/2000/svg">
<path d="M18.919 0L9.82557 9.09699C9.57414 9.34852 9.20747 9.44272 8.85127 9.36936C6.14839 8.83486 3.20455 9.7991 1.39215 12.2934C-0.399295 14.7563 -0.47263 18.1834 1.23501 20.7092C2.72264 22.8995 5.05886 24 7.39507 24C9.29128 24 11.177 23.2768 12.6227 21.841C14.4351 20.0279 15.1056 17.5021 14.6342 15.1545C14.5609 14.7982 14.6551 14.4419 14.9066 14.1799L16.8761 12.2096V10.1554H18.9295L19.799 9.28556V7.23146H21.8524L24 5.08294V0H18.919ZM11.6589 20.8769C9.31223 23.2245 5.48838 23.2245 3.13122 20.8769C0.784526 18.5293 0.784526 14.7039 3.13122 12.3459C4.30456 11.1721 5.84458 10.5851 7.39507 10.5851C8.94556 10.5851 10.4856 11.1721 11.6589 12.3459C14.0056 14.6935 14.0056 18.5188 11.6589 20.8769ZM22.6381 4.51709L21.2866 5.86896H18.4371V8.71959L18.3638 8.79302H15.5142V11.6436L13.9532 13.2052C13.618 12.5449 13.1675 11.9266 12.6227 11.3816C12.0675 10.8262 11.4599 10.386 10.7999 10.0506L19.4847 1.3625H22.6381V4.51709Z" fill="black"/>
<path d="M4.72361 17.062C4.10551 17.6804 4.10551 18.676 4.72361 19.2838C5.34172 19.9022 6.33696 19.9022 6.94459 19.2838C7.56269 18.6655 7.56269 17.6699 6.94459 17.062C6.32649 16.4437 5.33124 16.4437 4.72361 17.062Z" fill="black"/>
</svg>
