<svg width="24" height="24" viewBox="0 0 24 24" fill="none" xmlns="http://www.w3.org/2000/svg">
<path d="M2.82 5.31L4 4.63V6H5.31001V4.63L6.49001 5.31L7.15 4.19L5.95 3.5L7.15 2.81L6.49001 1.69L5.31001 2.37V1H4V2.37L2.82 1.69L2.16 2.81L3.36 3.5L2.16 4.19L2.82 5.31Z" fill="black"/>
<path d="M10.16 5.31L11.35 4.63V6H12.66V4.63L13.84 5.31L14.49 4.19L13.3 3.5L14.49 2.81L13.84 1.69L12.66 2.37V1H11.35V2.37L10.16 1.69L9.51 2.81L10.71 3.5L9.51 4.19L10.16 5.31Z" fill="black"/>
<path d="M17.52 5.31L18.7 4.63V6H20.01V4.63L21.2 5.31L21.85 4.19L20.65 3.5L21.85 2.81L21.2 1.69L20.01 2.37V1H18.7V2.37L17.52 1.69L16.87 2.81L18.06 3.5L16.87 4.19L17.52 5.31Z" fill="black"/>
<path d="M18 9H6C3.8 9 2 10.8 2 13C2 15.2 3.8 17 6 17H11.52V15.7H6C4.51 15.7 3.3 14.49 3.3 13C3.3 11.51 4.51 10.3 6 10.3H18C19.49 10.3 20.7 11.51 20.7 13C20.7 14.49 19.49 15.7 18 15.7H17.56L18.98 16.86C20.71 16.42 22 14.86 22 13C22 10.8 20.2 9 18 9Z" fill="black"/>
<path d="M13.03 13.92V20.7L15.07 19.73L16.62 23L17.79 22.44L16.24 19.17L18.27 18.21L13.03 13.92Z" fill="black"/>
</svg>
