<svg width="24" height="24" viewBox="0 0 24 24" fill="none" xmlns="http://www.w3.org/2000/svg">
<path d="M2 3C2.55228 3 3 2.55228 3 2C3 1.44772 2.55228 1 2 1C1.44772 1 1 1.44772 1 2C1 2.55228 1.44772 3 2 3Z" fill="black"/>
<path d="M6 3C6.55228 3 7 2.55228 7 2C7 1.44772 6.55228 1 6 1C5.44772 1 5 1.44772 5 2C5 2.55228 5.44772 3 6 3Z" fill="black"/>
<path d="M10 3C10.5523 3 11 2.55228 11 2C11 1.44772 10.5523 1 10 1C9.44771 1 9 1.44772 9 2C9 2.55228 9.44771 3 10 3Z" fill="black"/>
<path d="M2 7C2.55228 7 3 6.55228 3 6C3 5.44772 2.55228 5 2 5C1.44772 5 1 5.44772 1 6C1 6.55228 1.44772 7 2 7Z" fill="black"/>
<path d="M6 7C6.55228 7 7 6.55228 7 6C7 5.44772 6.55228 5 6 5C5.44772 5 5 5.44772 5 6C5 6.55228 5.44772 7 6 7Z" fill="black"/>
<path d="M10 7C10.5523 7 11 6.55228 11 6C11 5.44772 10.5523 5 10 5C9.44771 5 9 5.44772 9 6C9 6.55228 9.44771 7 10 7Z" fill="black"/>
<path d="M2 11C2.55228 11 3 10.5523 3 10C3 9.44771 2.55228 9 2 9C1.44772 9 1 9.44771 1 10C1 10.5523 1.44772 11 2 11Z" fill="black"/>
<path d="M6 11C6.55228 11 7 10.5523 7 10C7 9.44771 6.55228 9 6 9C5.44772 9 5 9.44771 5 10C5 10.5523 5.44772 11 6 11Z" fill="black"/>
<path d="M10 11C10.5523 11 11 10.5523 11 10C11 9.44771 10.5523 9 10 9C9.44771 9 9 9.44771 9 10C9 10.5523 9.44771 11 10 11Z" fill="black"/>
<path d="M21.44 11.4L16.75 9.64001V5.47C16.75 4.35 15.84 3.45001 14.72 3.45001C13.6 3.45001 12.69 4.36 12.69 5.47V14.32L12.4 14.03C11.23 12.86 9.4 12.62 8.32 13.5C7.64 14.04 7.75 14.93 8.18 15.57L14.21 23H22.37L22.52 22.56C23.46 19.85 23.84 16.6 23.8 14.74C23.77 13.24 22.84 11.93 21.43 11.4H21.44ZM21.44 21.7H14.83L9.23 14.81C9.17 14.72 9.12 14.56 9.13 14.52C9.68 14.08 10.8 14.28 11.48 14.96L13.99 17.58V5.48999C13.99 5.08999 14.32 4.76001 14.71 4.76001C15.1 4.76001 15.43 5.08999 15.43 5.48999V10.56L20.96 12.63C21.86 12.97 22.46 13.81 22.49 14.78C22.53 16.48 22.17 19.34 21.43 21.71L21.44 21.7Z" fill="black"/>
</svg>
