<svg width="24" height="24" viewBox="0 0 24 24" fill="none" xmlns="http://www.w3.org/2000/svg">
<path d="M20.7 4.73V7H22V4.73C22 3.23 20.77 2 19.27 2H16V3.3H19.27C20.06 3.3 20.7 3.94 20.7 4.73Z" fill="black"/>
<path d="M3.3 4.73C3.3 3.94 3.94 3.3 4.73 3.3H8V2H4.73C3.23 2 2 3.23 2 4.73V7H3.3V4.73Z" fill="black"/>
<path d="M20.7 19.27C20.7 20.06 20.06 20.7 19.27 20.7H16V22H19.27C20.77 22 22 20.77 22 19.27V16H20.7V19.27Z" fill="black"/>
<path d="M3.3 19.27V16H2V19.27C2 20.77 3.23 22 4.73 22H8V20.7H4.73C3.94 20.7 3.3 20.06 3.3 19.27Z" fill="black"/>
<path d="M11.04 10.78C11.32 10.95 11.65 11.08 12 11.08C12.35 11.08 12.68 10.95 12.96 10.78C13.6 10.4 14.06 9.78 14.31 9.08C14.62 8.24 14.64 7.48 14.64 7.48C14.72 5.55 13.45 4.58 12 4.58C10.55 4.58 9.27001 5.55 9.36001 7.48C9.36001 7.48 9.39001 8.23 9.69001 9.08C9.95001 9.78 10.41 10.4 11.04 10.78ZM11 6.25C11.23 6.01 11.59 5.88 12 5.88C12.41 5.88 12.78 6.01 13 6.25C13.25 6.51 13.36 6.91 13.34 7.43C13.34 7.43 13.31 8.01 13.08 8.63C12.91 9.09 12.63 9.46 12.28 9.66C12.09 9.77 12 9.77 11.99 9.77C11.98 9.77 11.89 9.77 11.7 9.66C11.35 9.45 11.07 9.09 10.9 8.63C10.67 8.01 10.64 7.44 10.64 7.43C10.62 6.91 10.73 6.51 10.98 6.25H11Z" fill="black"/>
<path d="M22 12H2V13.3H22V12Z" fill="black"/>
<path d="M6.74001 15L6 18H18L17.26 15H15.92L16.34 16.7H7.66L8.08 15H6.74001Z" fill="black"/>
</svg>
