<svg width="24" height="24" viewBox="0 0 24 24" fill="none" xmlns="http://www.w3.org/2000/svg">
<path d="M0 18V20C0 21.1 0.9 22 2 22H22C23.1 22 24 21.1 24 20V18H0ZM22.7 20C22.7 20.39 22.39 20.7 22 20.7H2C1.61 20.7 1.29999 20.39 1.29999 20V19.3H22.7V20Z" fill="black"/>
<path d="M3.29999 5C3.29999 4.61 3.61 4.3 4 4.3H20C20.39 4.3 20.7 4.61 20.7 5V16.5H22V5C22 3.9 21.1 3 20 3H4C2.9 3 2 3.9 2 5V16.5H3.29999V5Z" fill="black"/>
<path d="M12 7C10.62 7 9.5 8.12 9.5 9.5V11H9C8.45 11 8 11.45 8 12V15C8 15.55 8.45 16 9 16H15C15.55 16 16 15.55 16 15V12C16 11.45 15.55 11 15 11H14.5V9.5C14.5 8.12 13.38 7 12 7ZM10.8 11V9.5C10.8 8.84 11.34 8.3 12 8.3C12.66 8.3 13.2 8.84 13.2 9.5V11H10.8Z" fill="black"/>
</svg>
