<svg width="24" height="24" viewBox="0 0 24 24" fill="none" xmlns="http://www.w3.org/2000/svg">
<path d="M22.9453 3.2747C22.0442 3.51646 21.1321 3.68129 20.1541 3.68129C16.9013 3.68129 14.0112 2.24176 12.0002 0C9.98924 2.24176 7.09913 3.68129 3.84639 3.68129C2.87936 3.68129 1.95628 3.50547 1.05519 3.2747C1.05519 3.52745 1.01123 3.7802 1.01123 4.03294C1.01123 12.7912 3.40683 20.4286 12.0002 24C20.5936 20.4286 22.9892 12.7912 22.9892 4.03294C22.9892 3.76921 22.9453 3.52745 22.9453 3.2747ZM2.45079 5.01098C2.9343 5.07691 3.39584 5.10991 3.84639 5.10991C6.5387 5.10991 9.14309 4.19777 11.2859 2.58239V22.0989C5.48375 19.1538 2.64859 13.6813 2.45079 5.01098ZM12.7145 22.0989V2.58239C14.8574 4.20876 17.4618 5.10991 20.1541 5.10991C20.6046 5.10991 21.0662 5.07691 21.5497 5.01098C21.3519 13.6703 18.5167 19.1538 12.7145 22.0989Z" fill="black"/>
</svg>
