<svg width="24" height="24" viewBox="0 0 24 24" fill="none" xmlns="http://www.w3.org/2000/svg">
<path d="M20.01 10.98C17.49 10.12 14.8 9.64 12 9.64C10.39 9.64 8.81999 9.81 7.29999 10.11V7C7.29999 4.41 9.41 2.3 12 2.3C14.25 2.3 16.13 3.89 16.59 6H17.91C17.43 3.16 14.97 1 12 1C8.69 1 6 3.69 6 7V10.39C5.32 10.56 4.64999 10.76 3.98999 10.98C3.38999 11.18 3 11.76 3 12.39V20.5C3 21.33 3.67 22 4.5 22H19.5C20.33 22 21 21.33 21 20.5V12.39C21 11.76 20.61 11.18 20.01 10.98ZM19.7 20.5C19.7 20.61 19.61 20.7 19.5 20.7H4.5C4.39 20.7 4.29999 20.61 4.29999 20.5V12.39C4.29999 12.31 4.35 12.23 4.41 12.21C6.88 11.37 9.43 10.94 12 10.94C14.57 10.94 17.12 11.37 19.59 12.21C19.65 12.23 19.7 12.31 19.7 12.39V20.5Z" fill="black"/>
<path d="M12 13.25C11.64 13.25 11.35 13.54 11.35 13.9V18H12.65V13.9C12.65 13.54 12.36 13.25 12 13.25Z" fill="black"/>
</svg>
