<svg width="24" height="24" viewBox="0 0 24 24" fill="none" xmlns="http://www.w3.org/2000/svg">
<path d="M14.47 7.5C16.41 7.02 17.37 6.07 17.42 6.02C18.57 4.87 18.57 2.99 17.42 1.84C16.3 0.72 14.35 0.72 13.24 1.84C13.19 1.89 12.43 2.68001 11.93 4.23001C11.43 2.68001 10.67 1.89 10.62 1.85C9.5 0.730002 7.55 0.730002 6.44 1.85C5.33 2.97 5.29 4.88 6.44 6.03C6.49 6.08 7.45 7.03001 9.39 7.51001H2V22.51H22V7.51001H14.47V7.5ZM14.16 2.76001C14.47 2.45001 14.89 2.27 15.33 2.27C15.77 2.27 16.19 2.44001 16.5 2.76001C17.15 3.41001 17.15 4.46 16.5 5.1C16.45 5.15 15.28 6.27 12.81 6.45C12.99 3.98 14.11 2.81001 14.16 2.76001ZM7.37 2.76001C7.68 2.45001 8.1 2.27 8.54 2.27C8.98 2.27 9.4 2.44001 9.71 2.76001C9.76 2.81001 10.88 3.98 11.06 6.45C8.59 6.27 7.42 5.15 7.37 5.1C6.72 4.45 6.72 3.40001 7.37 2.76001ZM3.3 21.2V15.8H11.35V21.2H3.3ZM12.65 15.8H14.39L14.15 15.2C14.04 14.94 13.89 14.71 13.7 14.5H12.65V13.78C12.18 13.57 11.74 13.28 11.35 12.95V14.51H3.3V8.81H11V9.97001C11.12 10.44 11.68 11.22 12.07 11.61C12.46 12 12.9 12.28 13.37 12.48C13.84 12.67 14.29 12.96 14.67 13.35C15.05 13.74 15.34 14.18 15.54 14.65L18 12.19C17.81 11.72 17.52 11.27 17.13 10.89C16.74 10.51 16.3 10.22 15.83 10.02C15.36 9.83 14.91 9.54001 14.53 9.15001C14.42 9.04001 14.34 8.92 14.25 8.81H20.7V14.51H17.79L16.49 15.81H20.7V21.21H12.65V15.8Z" fill="black"/>
</svg>
