<svg width="25" height="24" viewBox="0 0 25 24" fill="none" xmlns="http://www.w3.org/2000/svg">
<path d="M12 1C5.92 1 1 5.92 1 12C1 18.08 5.92 23 12 23C18.08 23 23 18.08 23 12C23 5.92 18.08 1 12 1ZM12 6.4C15.09 6.4 17.6 8.91 17.6 12C17.6 15.09 15.09 17.6 12 17.6C8.91 17.6 6.39999 15.09 6.39999 12C6.39999 8.91 8.91 6.4 12 6.4ZM16.34 6.52C15.31 5.7 14.04 5.17 12.65 5.04V2.34C14.78 2.48 16.72 3.31 18.26 4.61L16.34 6.53V6.52ZM12 21.7C6.65 21.7 2.29999 17.35 2.29999 12C2.29999 6.65 6.30001 2.67 11.35 2.33V5.03C7.79001 5.36 5 8.35 5 12C5 15.87 8.13 19 12 19C15.87 19 19 15.87 19 12C19 10.24 18.35 8.64 17.28 7.42L19.19 5.51C20.75 7.23 21.7 9.5 21.7 12C21.7 17.35 17.35 21.7 12 21.7Z" fill="black"/>
<path d="M11.35 12H12.65V15H15V10.57C15 10.38 14.91 10.2 14.76 10.09L12.3 8.24C12.12 8.11 11.88 8.11 11.7 8.24L9.23999 10.09C9.08999 10.2 9 10.38 9 10.57V15H11.35V12Z" fill="black"/>
</svg>
