<svg width="25" height="24" viewBox="0 0 25 24" fill="none" xmlns="http://www.w3.org/2000/svg">
<path d="M20.5 6.9V9.47C20.68 9.94 20.79 10.42 20.81 10.88C20.87 12.2 20.46 13.23 19.63 13.87C19.44 14.02 19.23 14.13 19 14.23V4.65C19 4.46 19.16 4.3 19.35 4.3C19.71 4.3 20 4.01 20 3.65C20 3.29 19.71 3 19.35 3H2.64999C2.28999 3 2 3.29 2 3.65C2 4.01 2.28999 4.3 2.64999 4.3C2.83999 4.3 3 4.46 3 4.65V20.35C3 20.54 2.83999 20.7 2.64999 20.7C2.28999 20.7 2 20.99 2 21.35C2 21.71 2.28999 22 2.64999 22H19.35C19.71 22 20 21.71 20 21.35C20 20.99 19.71 20.7 19.35 20.7C19.16 20.7 19 20.54 19 20.35V17.19C18.53 17.31 18.08 17.37 17.7 17.41V20.71H4.29999V4.3H10.2C10.64 4.3 11 4.66 11 5.1V6.01C11 6.57 11.46 6.99 12.02 7C12.58 7.01 13 7.45 13 8V8.96C13 9.48 13.38 9.95 13.9 10C14.5 10.06 15 9.59 15 9V5.1C15 4.66 15.36 4.3 15.8 4.3H17.7V14.58C16.81 14.68 15.78 14.57 14.69 14.22C11.79 13.3 9.27999 10.16 8.82999 7H7.51999C7.97999 10.73 10.85 14.37 14.31 15.46C15.28 15.77 16.22 15.91 17.09 15.92C18.7 15.92 19.87 15.33 20.44 14.9C21.63 13.99 22.21 12.57 22.13 10.82C22.07 9.47 21.48 8.09 20.52 6.9H20.5Z" fill="black"/>
</svg>
