<svg width="25" height="24" viewBox="0 0 25 24" fill="none" xmlns="http://www.w3.org/2000/svg">
<path d="M16.5 1C12.36 1 9 4.36 9 8.5C9 12.64 12.36 16 16.5 16C20.64 16 24 12.64 24 8.5C24 4.36 20.64 1 16.5 1ZM16.5 14.7C13.08 14.7 10.3 11.92 10.3 8.5C10.3 5.08 13.08 2.3 16.5 2.3C19.92 2.3 22.7 5.08 22.7 8.5C22.7 11.92 19.92 14.7 16.5 14.7Z" fill="black"/>
<path d="M18.74 10.62C18.59 10.72 18.39 10.77 18.15 10.77C18 10.77 17.88 10.76 17.77 10.73C17.66 10.7 17.52 10.67 17.34 10.61C17.19 10.56 17.04 10.52 16.9 10.49C16.78 10.46 16.64 10.45 16.48 10.45C16.38 10.45 16.28 10.45 16.19 10.47C16.31 10.3 16.4 10.13 16.46 9.95C16.54 9.73 16.57 9.48 16.57 9.2C16.57 9.06 16.56 8.93 16.53 8.79H18.3V8.22H16.36C16.27 7.98 16.2 7.78 16.15 7.63C16.11 7.47 16.08 7.3 16.08 7.1C16.08 6.79 16.18 6.55 16.39 6.37C16.6 6.19 16.89 6.09 17.25 6.09C17.54 6.09 17.83 6.16 18.11 6.3C18.39 6.44 18.61 6.62 18.77 6.83L18.86 6.95V5.28H18.84C18.62 5.09 18.34 4.95 18.02 4.85C17.7 4.75 17.35 4.7 16.99 4.7C16.49 4.7 16.04 4.79 15.66 4.97C15.27 5.15 14.97 5.41 14.75 5.74C14.54 6.07 14.43 6.45 14.43 6.87C14.43 7.09 14.45 7.31 14.5 7.53C14.54 7.73 14.6 7.96 14.68 8.2H14.14V8.77H14.84C14.91 9.06 14.94 9.3 14.94 9.49C14.94 9.91 14.87 10.31 14.72 10.66C14.57 11.01 14.29 11.47 13.88 12.02L13.76 12.18L13.94 12.1C14.17 12 14.39 11.92 14.6 11.87C14.81 11.82 15.05 11.8 15.32 11.8C15.49 11.8 15.65 11.81 15.8 11.84C15.95 11.86 16.14 11.9 16.37 11.94C16.67 12 16.88 12.03 17.04 12.06C17.21 12.08 17.41 12.09 17.62 12.09C18.16 12.09 18.56 11.93 18.81 11.62C19.06 11.31 19.19 10.82 19.19 10.16V9.95L19.1 10.13C19 10.33 18.87 10.48 18.72 10.58L18.74 10.62Z" fill="black"/>
<path d="M15.06 21.7H11V16H5V21.7H1.3V13.64C1.3 13.53 1.35 13.43 1.43 13.37L7.51 8.8C7.51 8.7 7.49 8.6 7.49 8.5C7.49 8.04 7.54 7.6 7.6 7.16C7.52 7.2 7.43 7.23 7.35 7.29L0.65 12.33C0.24 12.64 0 13.12 0 13.64V23H16.36V17.49C15.92 17.49 15.48 17.44 15.06 17.37V21.7ZM9.7 21.7H6.3V17.3H9.7V21.7Z" fill="black"/>
</svg>
