<svg width="25" height="24" viewBox="0 0 25 24" fill="none" xmlns="http://www.w3.org/2000/svg">
<path d="M19.25 1C18.88 2.89 17.39 4.38 15.5 4.75C17.39 5.12 18.88 6.61 19.25 8.5C19.62 6.61 21.11 5.12 23 4.75C21.11 4.38 19.62 2.89 19.25 1Z" fill="black"/>
<path d="M14.18 10.82L13.19 11.81C16.41 13.09 18.7 16.23 18.7 19.9C18.7 20.99 18.49 22.04 18.12 23H19.51C19.83 22.02 20.01 20.98 20.01 19.9C20.01 15.87 17.62 12.41 14.19 10.83L14.18 10.82Z" fill="black"/>
<path d="M6.79 11.82L5.8 10.83C2.38 12.42 0 15.88 0 19.9C0 20.98 0.18 22.03 0.5 23H1.89C1.52 22.03 1.31 20.99 1.31 19.9C1.31 16.24 3.59 13.1 6.8 11.82H6.79Z" fill="black"/>
<path d="M11.19 11.71L15.79 7.11L13.58 4.9H6.43L4.22 7.11L8.82 11.71C9.1 11.99 8.95 12.47 8.56 12.55C5.11 13.22 2.51 16.26 2.51 19.9C2.51 21.01 2.76 22.06 3.19 23H4.65C3.87 21.66 3.57 20 4.02 18.26C4.6 16.05 6.44 14.3 8.68 13.83C12.67 13 16.2 16.04 16.2 19.89C16.2 21.02 15.89 22.08 15.36 22.99H16.82C17.25 22.04 17.5 20.99 17.5 19.89C17.5 16.24 14.9 13.21 11.45 12.54C11.06 12.46 10.91 11.99 11.19 11.7V11.71ZM13.04 6.2L13.95 7.11L10 11.06L6.05 7.11L6.96 6.2H13.04Z" fill="black"/>
</svg>
