<svg width="25" height="24" viewBox="0 0 25 24" fill="none" xmlns="http://www.w3.org/2000/svg">
<path d="M12.8167 16.63L13.7067 15.74V19.32H15.0067V15.74L15.8967 16.63C16.0267 16.76 16.1867 16.82 16.3567 16.82C16.5267 16.82 16.6867 16.76 16.8167 16.63C17.0667 16.38 17.0667 15.96 16.8167 15.71L14.3567 13.25L11.8967 15.71C11.6467 15.96 11.6467 16.38 11.8967 16.63C12.1467 16.88 12.5667 16.88 12.8167 16.63Z" fill="black"/>
<path d="M9.4767 2.46L15.6367 6.02H18.0567C17.9867 5.92 17.8967 5.83 17.7867 5.76L9.7367 1.11C9.6067 1.03 9.4567 1 9.3167 1C9.0167 1 8.73671 1.15 8.57671 1.43L5.9267 6.02H7.4267L9.4767 2.46Z" fill="black"/>
<path d="M23.8267 14.65L19.8267 7.71C19.8267 7.71 19.6067 7.32 19.1067 7.32H4.8167C4.2967 7.32 4.0967 7.71 4.0967 7.71L0.0866973 14.65C-0.0933027 14.96 0.0167028 15.36 0.326703 15.54C0.426703 15.6 0.536703 15.63 0.646703 15.63C0.866703 15.63 1.0867 15.51 1.2067 15.3L3.9467 10.55V21.47C3.9467 21.94 4.3267 22.32 4.7967 22.32H19.0867C19.5567 22.32 19.9367 21.94 19.9367 21.47V10.55L22.6767 15.3C22.7967 15.51 23.0167 15.63 23.2367 15.63C23.3467 15.63 23.4567 15.6 23.5567 15.54C23.8667 15.36 23.9767 14.96 23.7967 14.65H23.8267ZM18.6567 21.02H5.2567V8.62H18.6567V21.02Z" fill="black"/>
</svg>
