<svg width="25" height="24" viewBox="0 0 25 24" fill="none" xmlns="http://www.w3.org/2000/svg">
<path d="M8.15 16.11C8.04 16.11 7.92 16.11 7.8 16.13C7.34 16.18 6.99 16.39 6.74 16.61C6.12 15.53 4.95 14.8 3.61 14.8C1.62 14.8 0 16.42 0 18.41V21.01H11.5V20.51C11.5 19.96 11.72 19.46 12.08 19.1L9.92 16.94C9.52 16.53 9.03 16.12 8.15 16.12V16.11ZM1.3 19.7V18.4C1.3 17.13 2.34 16.09 3.61 16.09C4.43 16.09 5.2 16.53 5.61 17.25C5.8 17.58 6.13 17.82 6.51 17.88C6.58 17.89 6.66 17.9 6.73 17.9C7.04 17.9 7.34 17.79 7.57 17.59C7.69 17.49 7.81 17.43 7.94 17.42C8.01 17.42 8.08 17.41 8.14 17.41C8.49 17.41 8.66 17.52 8.99 17.85L10.84 19.69H1.29L1.3 19.7Z" fill="black"/>
<path d="M15.5 0C15.46 0 15.42 0 15.38 0C11.2 0.06 7.77 3.71 7.94 7.88C8.02 9.74 8.76 11.42 9.94 12.7C10.54 13.41 12.05 14.83 12.95 16.51C12.95 16.51 13.43 17.21 13.62 18.02C13.68 18.27 13.9 18.44 14.16 18.44H16.85C17.1 18.44 17.33 18.27 17.39 18.02C17.59 17.21 18.06 16.51 18.06 16.51C18.93 14.84 20.47 13.41 21.07 12.7C22.31 11.35 23.08 9.55 23.08 7.57C23.07 3.39 19.68 0 15.5 0ZM17.78 7.57C17.78 9.3 17.48 10.94 16.93 12.22C16.87 12.37 16.79 12.56 16.69 12.78C16.35 13.55 15.85 14.68 15.51 15.99C15.16 14.67 14.66 13.54 14.32 12.77C14.23 12.56 14.14 12.37 14.07 12.18C13.53 10.94 13.23 9.3 13.23 7.57C13.23 3.68 14.7 1.3 15.51 1.3C16.32 1.3 17.79 3.68 17.79 7.57H17.78ZM11.42 12.4C11.22 12.19 11.05 12 10.93 11.86C10.92 11.85 10.91 11.83 10.89 11.82C9.88 10.73 9.29 9.31 9.23 7.83C9.16 6.19 9.8 4.53 10.97 3.29C11.6 2.62 12.37 2.11 13.2 1.77C12.42 3.16 11.92 5.24 11.92 7.57C11.92 9.55 12.28 11.35 12.87 12.7C13.12 13.33 13.71 14.53 14.14 15.97C14.11 15.92 14.08 15.87 14.06 15.84C13.28 14.42 12.16 13.21 11.42 12.41V12.4ZM20.11 11.82C20.11 11.82 20.09 11.85 20.07 11.86C19.94 12.01 19.77 12.2 19.57 12.41C18.82 13.22 17.69 14.43 16.93 15.85C16.91 15.88 16.88 15.93 16.85 15.98C17.27 14.54 17.87 13.34 18.13 12.7C18.72 11.35 19.08 9.55 19.08 7.57C19.08 5.22 18.57 3.12 17.78 1.74C20.11 2.65 21.77 4.92 21.77 7.57C21.77 9.15 21.18 10.66 20.11 11.82Z" fill="black"/>
<path d="M17.5 20H13.5C13.36 20 13.24 20.06 13.15 20.15C13.06 20.24 13 20.36 13 20.5V23.5C13 23.78 13.23 24 13.5 24H17.5C17.78 24 18 23.78 18 23.5V20.5C18 20.22 17.78 20 17.5 20ZM16.7 22.7H14.3V21.3H16.7V22.7Z" fill="black"/>
<path d="M3 9C4.66 9 6 7.66 6 6C6 4.34 4.66 3 3 3C1.34 3 0 4.34 0 6C0 7.66 1.34 9 3 9ZM3 4.3C3.94 4.3 4.7 5.06 4.7 6C4.7 6.94 3.94 7.7 3 7.7C2.06 7.7 1.3 6.94 1.3 6C1.3 5.06 2.06 4.3 3 4.3Z" fill="black"/>
</svg>
