<svg width="25" height="24" viewBox="0 0 25 24" fill="none" xmlns="http://www.w3.org/2000/svg">
<path d="M20 2.74H14.5V4.04H20C20.38 4.04 20.7 4.36 20.7 4.74V5.74H14.5V7.74H20.7V14.74C20.7 15.12 20.38 15.44 20 15.44H13.65L14.5 16.74H19.99C21.09 16.74 21.99 15.84 21.99 14.74V4.74C21.99 3.64 21.09 2.74 19.99 2.74H20Z" fill="black"/>
<path d="M12.65 1H11.35V3.91H12.65V1Z" fill="black"/>
<path d="M12.65 5.5H11.35V8.41H12.65V5.5Z" fill="black"/>
<path d="M12.65 9.99H11.35V12.9H12.65V9.99Z" fill="black"/>
<path d="M15.56 18.13C15.17 18.13 14.79 18.23 14.44 18.43C14.35 18.48 14.27 18.54 14.19 18.6C14.1 18.67 13.97 18.65 13.9 18.55L13.61 18.12L8.45 10.35C7.85 10.75 7.69 11.56 8.09 12.15L10.28 15.44H4C3.62 15.44 3.3 15.12 3.3 14.74V7.74H9.5V5.74H3.3V4.74C3.3 4.36 3.62 4.04 4 4.04H9.5V2.74H4C2.9 2.74 2 3.64 2 4.74V14.74C2 15.84 2.9 16.74 4 16.74H11.15L11.22 16.85L10.09 18.55C10.03 18.65 9.89 18.67 9.8 18.6C9.72 18.54 9.64 18.48 9.55 18.43C9.2 18.23 8.81999 18.13 8.42999 18.13C7.52999 18.13 6.62001 18.65 6.10001 19.55C5.35001 20.84 5.69001 22.43 6.85001 23.1C7.20001 23.3 7.58 23.4 7.97 23.4C8.87 23.4 10.12 22.84 10.62 21.17C10.93 20.16 11.23 19.15 11.82 18.27C11.86 18.21 11.92 18.18 11.99 18.18C12.06 18.18 12.12 18.21 12.16 18.27C12.74 19.15 13.05 20.16 13.36 21.17C13.86 22.84 15.11 23.4 16.01 23.4C16.4 23.4 16.78 23.3 17.13 23.1C18.29 22.43 18.63 20.84 17.88 19.55C17.36 18.65 16.45 18.13 15.55 18.13H15.56ZM9.19 21.33C8.92 21.8 8.45 22.1 7.98 22.1C7.81 22.1 7.64999 22.06 7.50999 21.98C7.18999 21.79 7.07999 21.47 7.03999 21.29C6.95999 20.93 7.04 20.55 7.23 20.2C7.5 19.73 7.97 19.43 8.44 19.43C8.61 19.43 8.77 19.47 8.91 19.55C9.45 19.86 9.57 20.66 9.19 21.33ZM16.96 21.29C16.92 21.47 16.81 21.79 16.49 21.98C16.35 22.06 16.19 22.1 16.02 22.1C15.56 22.1 15.08 21.8 14.81 21.33C14.42 20.66 14.55 19.86 15.09 19.55C15.23 19.47 15.39 19.43 15.56 19.43C16.02 19.43 16.5 19.73 16.77 20.2C16.97 20.55 17.04 20.93 16.96 21.29Z" fill="black"/>
</svg>
