<svg width="100" height="100" viewBox="0 0 100 100" fill="none" xmlns="http://www.w3.org/2000/svg">
<rect width="100" height="100" fill="#FFB16A"/>
<path d="M6.71575 52.8296C6.71575 52.8296 8.26116 57.9552 14.5312 59.378C14.5312 59.378 9.78011 60.1998 9.68296 65.9086C9.68296 65.9086 8.01394 60.9598 2 59.378C2 59.378 7.02483 58.7859 6.71575 52.8385V52.8296Z" fill="white"/>
<path d="M56.92 28.9762L11.2812 76.9443L50.6765 99.753C51.4006 100.177 52.3191 100.045 52.8931 99.4349L96.748 53.3314C97.1542 52.9072 97.0571 52.2179 96.5449 51.9175L56.9112 28.9762H56.92Z" fill="white"/>
<path d="M95.1496 36.799L56.92 28.9693L11.2812 76.9374L50.129 84.8909C50.7383 85.0146 51.3742 84.8202 51.8069 84.3606L78.7239 56.0729L84.8968 55.4808C85.7534 55.4013 86.5481 55.0124 87.1486 54.4027L94.2135 47.1385C94.7433 46.5906 94.8758 45.7687 94.5491 45.0883L92.7476 41.3502L95.6265 38.319C96.1211 37.8065 95.8473 36.9493 95.1496 36.8079V36.799Z" fill="black"/>
<path d="M79.9163 6.16875C79.9163 6.16875 82.3095 14.1134 92.0236 16.3138C92.0236 16.3138 84.6674 17.5864 84.5172 26.4235C84.5172 26.4235 81.9297 18.7617 72.613 16.305C72.613 16.305 80.3932 15.3771 79.9163 6.16875Z" fill="white"/>
<path d="M82.0358 64.5913C78.9449 60.2258 75.1917 56.5142 71.2177 53.81C75.5891 58.8472 77.1521 64.6179 75.3329 69.0364C82.3536 76.2034 83.2279 85.5001 77.0285 90.5196C73.5049 93.374 68.4006 94.2489 63.1196 93.3563C68.2946 95.5568 73.6375 95.9368 78.0795 93.9837C87.5287 89.8214 89.8601 75.6201 82.0269 64.5913H82.0358Z" fill="black"/>
<path d="M48.7602 61.578C48.7602 61.578 49.1047 64.0171 49.4579 66.1115C49.4579 66.1115 34.4892 66.8096 22.5762 64.998L31.1423 55.9399L48.7602 61.5869V61.578Z" fill="black"/>
<path d="M29.8882 0C39.099 13.9362 62.0156 16.3046 62.0156 16.3046C42.6932 34.5179 51.0033 62.6201 51.0033 62.6201C51.0033 62.6201 9.66513 58.122 18.2048 41.7114L22.7792 34.2882L23.0353 24.6734L25.3402 6.15066L27.8218 2.13859L29.1729 0.645113L29.8882 0Z" fill="white"/>
<path d="M17.2512 44.0621C17.2512 44.0621 19.0351 35.87 30.904 34.1733C30.904 34.1733 18.5668 11.1702 29.8882 0C29.8882 0 20.8719 5.83253 20.8454 26.6971C20.8366 36.0733 17.2512 44.0621 17.2512 44.0621Z" fill="black"/>
</svg>
