<svg width="100" height="100" viewBox="0 0 100 100" fill="none" xmlns="http://www.w3.org/2000/svg">
<g clip-path="url(#clip0_15980_5747)">
<rect width="100" height="100" fill="#FFB16A"/>
<path d="M28.1254 66.7104V89.1765L48.3416 100.404V77.9435L28.1254 66.7104Z" fill="white"/>
<path d="M48.3416 77.9435V100.404L68.5577 89.1765V66.7104L48.3416 77.9435Z" fill="#221F1F"/>
<path d="M39.0839 0.404297L25.5602 38.712L64.0142 32.4821L39.0839 0.404297Z" fill="white"/>
<path d="M45.3235 38.8964C56.1095 37.149 64.6158 34.2663 64.323 32.4576C64.0301 30.6488 55.0488 30.5991 44.2628 32.3464C33.4768 34.0937 24.9705 36.9765 25.2634 38.7852C25.5563 40.5939 34.5375 40.6437 45.3235 38.8964Z" fill="#221F1F"/>
<path d="M60.9374 61.2316C60.9374 65.1253 55.3008 68.2829 48.3416 68.2829C41.3824 68.2829 35.7404 65.1253 35.7404 61.2316C35.7404 60.8529 35.7938 60.4795 35.9004 60.1168C36.855 56.7511 42.0597 54.1855 48.3416 54.1855C51.9358 54.1855 55.1781 55.0283 57.4712 56.3778C57.9671 58.7727 57.0232 61.3489 54.9701 62.9544C56.9646 61.7809 58.6017 60.1701 59.7909 58.2926C60.1802 58.762 60.4788 59.2634 60.6708 59.7861C60.8468 60.2501 60.9374 60.7355 60.9374 61.2316Z" fill="#221F1F"/>
<path d="M60.6867 59.8234C60.6227 59.9141 60.5587 59.9994 60.4947 60.0848C60.0948 60.6128 59.6735 61.0929 59.2415 61.5303C58.6869 62.0903 58.111 62.5864 57.5244 63.0131C57.4391 63.0771 57.3484 63.1411 57.2631 63.2051C57.1458 63.2904 57.0285 63.3704 56.9111 63.4504C54.3781 65.1946 51.3811 66.1227 48.3415 66.16C48.2935 66.16 48.2402 66.1654 48.1922 66.1654H48.1495C47.8242 66.176 47.6003 66.1707 47.5043 66.1654C47.5256 66.16 47.5469 66.1547 47.5683 66.1547C44.9232 66.0534 42.2676 65.2746 39.8732 63.7545C38.9026 63.1357 38.0227 62.4263 37.2388 61.6476C36.7536 61.1622 36.3057 60.6502 35.9004 60.1168C36.1244 59.3274 36.5829 58.5806 37.2282 57.9032C38.0121 57.0925 39.068 56.3724 40.3318 55.7964C42.5129 54.7883 45.302 54.1855 48.3416 54.1855C51.9412 54.1855 55.1834 55.0283 57.4712 56.3778C57.9671 58.7673 57.0232 61.3489 54.9701 62.9544C56.9646 61.7809 58.6017 60.1701 59.7909 58.2926C60.1802 58.7673 60.4788 59.2634 60.6708 59.7861C60.6761 59.7968 60.6814 59.8074 60.6867 59.8234Z" fill="#006A4D"/>
<path d="M62.3613 44.5745C62.3613 44.5745 62.3506 44.5479 62.3399 44.5319C61.1507 41.7903 59.1616 39.3687 56.458 37.6512C55.9994 37.3578 55.5354 37.0965 55.0608 36.8618H55.0555C52.2931 35.4803 49.2748 35.0003 46.3685 35.3417H46.3632C45.9526 35.395 45.5366 35.459 45.1313 35.5443C45.11 35.5443 45.0833 35.5497 45.062 35.555C42.081 36.1631 39.2867 37.6512 37.079 39.9181C36.3591 40.6648 35.6978 41.4969 35.1165 42.409C31.5383 48.0469 32.0609 55.1136 35.9004 60.1168C36.3057 60.6502 36.7536 61.1622 37.2388 61.6476C38.0227 62.4263 38.9026 63.1357 39.8732 63.7545C42.2676 65.2746 44.9232 66.0534 47.5683 66.1547C47.7602 66.16 47.9576 66.1654 48.1495 66.1654H48.1922C48.2402 66.1654 48.2935 66.16 48.3415 66.16C51.3811 66.1227 54.3781 65.1946 56.9111 63.4504C57.0285 63.3704 57.1458 63.2904 57.2631 63.2051C57.3484 63.1411 57.4391 63.0771 57.5244 63.0131C58.1163 62.5597 58.6817 62.0642 59.215 61.5202C59.7376 60.9868 60.2228 60.4048 60.6708 59.7861C60.8628 59.5301 61.0441 59.264 61.2147 58.9919C62.0733 57.6478 62.6919 56.213 63.0918 54.7515C63.1452 54.5435 63.1985 54.3248 63.2465 54.1115C63.2678 54.0208 63.2838 53.9355 63.3052 53.8448C63.3478 53.6368 63.3851 53.4341 63.4171 53.2314C63.4491 53.0287 63.4811 52.8207 63.5025 52.618C63.5291 52.41 63.5505 52.202 63.5665 51.9993C63.7851 49.4604 63.3638 46.9001 62.3613 44.5745ZM59.7909 58.2926C58.6017 60.1701 56.9646 61.7809 54.9701 62.9544C57.0232 61.3489 57.9671 58.7733 57.4712 56.3837C57.4232 56.1383 57.3592 55.8983 57.2792 55.6636C56.1327 52.25 52.5171 51.4285 52.3571 51.3965C52.9864 51.0978 55.3541 49.9031 56.442 47.1668C57.5405 44.4092 56.9006 41.1502 54.8208 38.7286C55.2528 38.9793 61.556 42.713 61.9453 50.1591C62.0946 53.066 61.3107 55.8924 59.7909 58.2926Z" fill="white"/>
<path d="M28.8614 68.2828C28.8774 71.8991 28.8987 75.5208 28.9147 79.1372C29.0107 78.6304 29.64 75.6115 32.4929 73.8993C34.3594 72.7792 36.2045 72.8005 36.9404 72.8539C34.2474 71.3284 31.5544 69.8029 28.8614 68.2828Z" fill="white"/>
<path d="M20.3983 54.0578C20.3983 54.0578 21.6941 58.3622 26.9628 59.5516C26.9628 59.5516 22.974 60.2397 22.894 65.0348C22.894 65.0348 21.4861 60.8798 16.4414 59.5516C16.4414 59.5516 20.6596 59.0503 20.3983 54.0631V54.0578Z" fill="white"/>
<path d="M72.4561 28.9618C72.4561 28.9618 74.6265 36.1678 83.4414 38.1573C83.4414 38.1573 76.7649 39.3094 76.6316 47.3262C76.6316 47.3262 74.2798 40.3762 65.8329 38.1466C65.8329 38.1466 72.888 37.3092 72.4507 28.9618H72.4561Z" fill="white"/>
<path d="M22.8193 2.2982C22.8193 2.2982 23.4699 4.45307 26.1043 5.04513C26.1043 5.04513 24.1098 5.39183 24.0672 7.78673C24.0672 7.78673 23.3633 5.71186 20.8409 5.04513C20.8409 5.04513 22.9473 4.79444 22.8193 2.2982Z" fill="white"/>
</g>
<defs>
<clipPath id="clip0_15980_5747">
<rect width="100" height="100" fill="white"/>
</clipPath>
</defs>
</svg>
