<svg width="100" height="100" viewBox="0 0 100 100" fill="none" xmlns="http://www.w3.org/2000/svg">
<g clip-path="url(#clip0_15980_5661)">
<rect width="100" height="100" fill="#FFB16A"/>
<path fill-rule="evenodd" clip-rule="evenodd" d="M36.4833 14.5997L48.6873 21.6538C49.2067 21.9459 49.4988 22.4653 49.4988 23.0495V37.1577C49.4988 37.7419 49.2067 38.2612 48.6873 38.5534C48.168 38.8455 47.5838 38.8455 47.0753 38.5534L34.8713 31.4993C34.3519 31.2071 34.0598 30.6878 34.0598 30.1036V15.9954C34.0598 15.4112 34.3519 14.8918 34.8713 14.5997C35.3906 14.3076 35.9748 14.3076 36.4833 14.5997Z" fill="black"/>
<path fill-rule="evenodd" clip-rule="evenodd" d="M51.7727 21.6647L63.9875 14.6106C64.5068 14.3185 65.0911 14.3185 65.5996 14.6106C66.1189 14.9028 66.411 15.4221 66.411 16.0063V30.1145C66.411 30.6987 66.1189 31.2181 65.5996 31.5102L53.3847 38.5643C52.8654 38.8564 52.2812 38.8564 51.7727 38.5643C51.2534 38.2722 50.9612 37.7528 50.9612 37.1686V23.0604C50.9612 22.4762 51.2534 21.9569 51.7727 21.6647Z" fill="white"/>
<path d="M49.4132 3.52124C49.9324 3.2292 50.5168 3.22929 51.0252 3.52124L63.2399 10.5756C63.7592 10.8677 64.0519 11.387 64.0519 11.9821C64.0519 12.5663 63.7592 13.0855 63.2399 13.3776L51.0252 20.4319C50.5059 20.724 49.9217 20.724 49.4132 20.4319L37.1985 13.3776C36.6792 13.0855 36.3876 12.5663 36.3876 11.9821C36.3876 11.3762 36.6792 10.8677 37.1985 10.5756V10.5865L49.4132 3.52124ZM51.0678 4.93866C50.5594 4.6468 49.975 4.64663 49.4558 4.93866L41.2551 9.41824L41.2442 9.42917C40.738 9.72015 46.5252 6.92985 50.4951 7.03802C54.747 7.14633 59.7015 9.53658 59.1822 9.24447L51.0678 4.93866Z" fill="white"/>
<path fill-rule="evenodd" clip-rule="evenodd" d="M65.2634 16.8713L64.9604 28.7291C64.9604 29.4865 64.5817 30.1248 63.9326 30.5035L54.0439 36.6704C53.3947 37.0491 59.1613 33.1325 61.996 28.5344C64.6358 24.2392 65.2634 16.1032 65.2634 16.8605V16.8713Z" fill="black"/>
<path fill-rule="evenodd" clip-rule="evenodd" d="M19.5649 43.5732L22.1182 45.0555L31.7581 50.6273C32.2774 50.9195 32.5695 51.4388 32.5695 52.023V66.1312C32.5695 66.7155 32.2774 67.2348 31.7581 67.5269C31.2387 67.819 30.6545 67.819 30.146 67.5269L17.942 60.4728C17.4227 60.1807 17.1305 59.6614 17.1305 59.0771V44.9797C17.1305 44.3739 17.4227 43.8654 17.942 43.5732C18.4613 43.2811 19.0455 43.2811 19.554 43.5732H19.5649Z" fill="black"/>
<path fill-rule="evenodd" clip-rule="evenodd" d="M34.8505 50.6273L47.0653 43.5732C47.5847 43.2811 48.1689 43.2811 48.6774 43.5732C49.1967 43.8654 49.4888 44.3847 49.4888 44.9797V59.0771C49.4888 59.6614 49.1967 60.1807 48.6774 60.4728L36.4626 67.5269C35.9432 67.819 35.359 67.819 34.8505 67.5269C34.342 67.2348 34.0391 66.7155 34.0391 66.1312V52.023C34.0391 51.4388 34.3312 50.9195 34.8505 50.6273Z" fill="white"/>
<path fill-rule="evenodd" clip-rule="evenodd" d="M48.8302 46.1804L48.5273 58.0382C48.5273 58.7955 48.1486 59.4339 47.4995 59.8125L37.6108 65.9795C36.9616 66.3581 42.7282 62.4416 45.5628 57.8434C48.2027 53.5482 48.8302 45.4122 48.8302 46.1696V46.1804Z" fill="black"/>
<path fill-rule="evenodd" clip-rule="evenodd" d="M2.64224 72.5249L5.19557 74.0072L14.8354 79.579C15.3548 79.8711 15.6469 80.3905 15.6469 80.9747V95.0829C15.6469 95.6671 15.3548 96.1865 14.8354 96.4786C14.3161 96.7707 13.7319 96.7707 13.2234 96.4786L1.01937 89.4245C0.510868 89.1324 0.21875 88.613 0.21875 88.0288V73.9314C0.21875 73.3256 0.510868 72.817 1.03019 72.5249C1.54951 72.2328 2.13374 72.2328 2.64224 72.5249Z" fill="black"/>
<path fill-rule="evenodd" clip-rule="evenodd" d="M17.9289 79.579L30.1437 72.5249C30.663 72.2328 31.2473 72.2328 31.7558 72.5249C32.2751 72.817 32.5672 73.3364 32.5672 73.9314V88.0288C32.5672 88.613 32.2751 89.1324 31.7558 89.4245L19.5409 96.4786C19.0216 96.7707 18.4374 96.7707 17.9289 96.4786C17.4204 96.1865 17.1174 95.6671 17.1174 95.0829V80.9747C17.1174 80.3905 17.4095 79.8711 17.9289 79.579Z" fill="white"/>
<path d="M15.582 61.3918C16.1012 61.0998 16.6855 61.0999 17.1939 61.3918L29.4087 68.4461C29.928 68.7382 30.2206 69.2576 30.2207 69.8526C30.2207 70.4369 29.928 70.9561 29.4087 71.2482L17.1939 78.3025C16.6747 78.5945 16.0904 78.5946 15.582 78.3025L3.36724 71.2482C2.84797 70.9561 2.55526 70.4368 2.55526 69.8526C2.55528 69.2684 2.84794 68.7382 3.36724 68.4461L15.582 61.3918ZM17.2366 62.8092C16.7282 62.5174 16.1438 62.5172 15.6246 62.8092L7.42388 67.2888L7.41296 67.2997C6.90675 67.5907 12.694 64.8004 16.6639 64.9086C20.9158 65.0169 25.8702 67.4072 25.3509 67.115L17.2366 62.8092Z" fill="white"/>
<path fill-rule="evenodd" clip-rule="evenodd" d="M31.9081 75.1222L31.6051 86.98C31.6051 87.7374 31.2264 88.3757 30.5773 88.7544L20.6886 94.9213C20.0394 95.3 25.806 91.3834 28.6407 86.7853C31.2805 82.4901 31.9081 74.3541 31.9081 75.1114V75.1222Z" fill="black"/>
<path fill-rule="evenodd" clip-rule="evenodd" d="M53.3962 43.5197L65.6002 50.5738C66.1195 50.8659 66.4117 51.3852 66.4117 51.9695V66.0777C66.4117 66.6619 66.1195 67.1812 65.6002 67.4733C65.0809 67.7655 64.4967 67.7655 63.9882 67.4733L51.7841 60.4192C51.2648 60.1271 50.9727 59.6078 50.9727 59.0236V44.9154C50.9727 44.3311 51.2648 43.8118 51.7841 43.5197C52.3035 43.2276 52.8877 43.2276 53.3962 43.5197Z" fill="black"/>
<path fill-rule="evenodd" clip-rule="evenodd" d="M68.6828 50.5847L80.8977 43.5306C81.417 43.2385 82.0012 43.2385 82.5097 43.5306C83.029 43.8228 83.3212 44.3421 83.3212 44.9263V59.0345C83.3212 59.6187 83.029 60.1381 82.5097 60.4302L70.2949 67.4843C69.7756 67.7764 69.1913 67.7764 68.6828 67.4843C68.1635 67.1922 67.8714 66.6728 67.8714 66.0886V51.9804C67.8714 51.3962 68.1635 50.8768 68.6828 50.5847Z" fill="white"/>
<path d="M66.3365 32.4515C66.8557 32.1595 67.44 32.1594 67.9484 32.4515L80.1632 39.5058C80.6823 39.7979 80.9741 40.3173 80.9741 40.9123C80.974 41.5072 80.6824 42.0157 80.1632 42.3078L67.9484 49.3622C67.4293 49.6542 66.8449 49.654 66.3365 49.3622L54.1207 42.3078C53.6016 42.0157 53.3098 41.4963 53.3098 40.9123C53.3098 40.3066 53.6017 39.7979 54.1207 39.5058L66.3365 32.4515ZM67.9812 33.8579C67.4728 33.5659 66.8885 33.5659 66.3693 33.8579L58.1686 38.3375L58.1576 38.3485C57.6491 38.6406 63.4368 35.8492 67.4075 35.9573C71.6594 36.0655 76.6149 38.4559 76.0956 38.1638L67.9812 33.8579Z" fill="white"/>
<path d="M33.1653 32.4511C33.6845 32.1593 34.2689 32.1591 34.7773 32.4511L46.992 39.5054C47.5112 39.7976 47.8029 40.317 47.8029 40.9119C47.8029 41.5069 47.5112 42.0154 46.992 42.3075L34.7773 49.3618C34.2581 49.6539 33.6737 49.6537 33.1653 49.3618L20.9495 42.3075C20.4305 42.0153 20.1386 41.496 20.1386 40.9119C20.1386 40.3062 20.4304 39.7976 20.9495 39.5054L33.1653 32.4511ZM34.8101 33.8576C34.3017 33.5656 33.7174 33.5657 33.1981 33.8576L24.9974 38.3372L24.9865 38.3481C24.478 38.6402 30.2657 35.8489 34.2363 35.957C38.4883 36.0652 43.4438 38.4555 42.9244 38.1634L34.8101 33.8576Z" fill="white"/>
<path fill-rule="evenodd" clip-rule="evenodd" d="M82.1763 45.7913L81.8733 57.6491C81.8733 58.4065 81.4946 59.0448 80.8455 59.4235L70.9568 65.5904C70.3076 65.9691 76.0742 62.0525 78.9089 57.4544C81.5487 53.1592 82.1763 45.0232 82.1763 45.7805V45.7913Z" fill="black"/>
<path fill-rule="evenodd" clip-rule="evenodd" d="M36.4745 72.4935L39.0278 73.9757L48.6677 79.5476C49.187 79.8397 49.4791 80.359 49.4791 80.9433V95.0515C49.4791 95.6357 49.187 96.155 48.6677 96.4471C48.1484 96.7393 47.5641 96.7393 47.0556 96.4471L34.8516 89.393C34.3323 89.1009 34.0402 88.5816 34.0402 87.9974V73.9C34.0402 73.2941 34.3323 72.7856 34.8516 72.4935C35.3709 72.2014 35.9552 72.2014 36.4637 72.4935H36.4745Z" fill="black"/>
<path fill-rule="evenodd" clip-rule="evenodd" d="M51.7631 79.5476L63.9779 72.4935C64.4973 72.2014 65.0815 72.2014 65.59 72.4935C66.1093 72.7856 66.4014 73.3049 66.4014 73.9V87.9974C66.4014 88.5816 66.1093 89.1009 65.59 89.393L53.3752 96.4471C52.8558 96.7393 52.2716 96.7393 51.7631 96.4471C51.2546 96.155 50.9517 95.6357 50.9517 95.0515V80.9433C50.9517 80.359 51.2438 79.8397 51.7631 79.5476Z" fill="white"/>
<path fill-rule="evenodd" clip-rule="evenodd" d="M65.7398 75.1004L65.4369 86.9582C65.4369 87.7155 65.0582 88.3538 64.4091 88.7325L54.5204 94.8994C53.8712 95.2781 59.6378 91.3616 62.4725 86.7634C65.1123 82.4682 65.7398 74.3322 65.7398 75.0896V75.1004Z" fill="black"/>
<path fill-rule="evenodd" clip-rule="evenodd" d="M70.2938 72.4834L82.4978 79.5375C83.0171 79.8296 83.3092 80.3489 83.3092 80.9332V95.0414C83.3092 95.6256 83.0171 96.1449 82.4978 96.4371C81.9785 96.7292 81.3943 96.7292 80.8858 96.4371L68.6817 89.3829C68.1624 89.0908 67.8703 88.5715 67.8703 87.9873V73.8791C67.8703 73.2949 68.1624 72.7755 68.6817 72.4834C69.2011 72.1913 69.7853 72.1913 70.2938 72.4834Z" fill="black"/>
<path fill-rule="evenodd" clip-rule="evenodd" d="M85.5804 79.5484L97.7953 72.4943C98.3146 72.2022 98.8988 72.2022 99.4073 72.4943C99.9266 72.7865 100.219 73.3058 100.219 73.89V87.9982C100.219 88.5824 99.9266 89.1018 99.4073 89.3939L87.1925 96.448C86.6731 96.7401 86.0889 96.7401 85.5804 96.448C85.0611 96.1559 84.769 95.6365 84.769 95.0523V80.9441C84.769 80.3599 85.0611 79.8406 85.5804 79.5484Z" fill="white"/>
<path d="M83.2335 61.4148C83.7527 61.1227 84.3371 61.1228 84.8455 61.4148L97.0602 68.4691C97.5795 68.7612 97.8722 69.2806 97.8722 69.8756C97.8722 70.4706 97.5795 70.979 97.0602 71.2711L84.8455 78.3255C84.3262 78.6175 83.742 78.6176 83.2335 78.3255L71.0188 71.2711C70.4995 70.979 70.2068 70.4598 70.2068 69.8756C70.2068 69.2697 70.4995 68.7612 71.0188 68.4691L83.2335 61.4148ZM84.8881 62.8213C84.3797 62.5294 83.7953 62.5292 83.2762 62.8213L75.0754 67.3008L75.0645 67.3118C74.5583 67.6028 80.3455 64.8124 84.3154 64.9206C88.5673 65.0289 93.5218 67.4192 93.0025 67.1271L84.8881 62.8213Z" fill="white"/>
<path fill-rule="evenodd" clip-rule="evenodd" d="M99.0837 74.755L98.7807 86.6128C98.7807 87.3702 98.4021 88.0085 97.7529 88.3872L87.8642 94.5541C87.215 94.9328 92.9817 91.0162 95.8163 86.4181C98.4562 82.1229 99.0837 73.9869 99.0837 74.7442V74.755Z" fill="black"/>
<path d="M49.4143 61.3711C49.9335 61.0792 50.5179 61.0791 51.0263 61.3711L63.241 68.4254C63.7602 68.7176 64.0519 69.2369 64.0519 69.8319C64.0519 70.4161 63.7602 70.9353 63.241 71.2275L51.0263 78.2818C50.5071 78.5739 49.9227 78.5737 49.4143 78.2818L37.1985 71.2275C36.6794 70.9353 36.3876 70.416 36.3876 69.8319C36.3876 69.2262 36.6794 68.7176 37.1985 68.4254L49.4143 61.3711ZM51.0678 62.8093C50.5594 62.5174 49.975 62.5173 49.4558 62.8093L41.2551 67.2889L41.2442 67.2998C40.7382 67.5907 46.5253 64.8005 50.4951 64.9087C54.747 65.017 59.7015 67.4072 59.1822 67.1151L51.0678 62.8093Z" fill="white"/>
</g>
<defs>
<clipPath id="clip0_15980_5661">
<rect width="100" height="100" fill="white"/>
</clipPath>
</defs>
</svg>
