<svg width="100" height="100" viewBox="0 0 100 100" fill="none" xmlns="http://www.w3.org/2000/svg">
<g clip-path="url(#clip0_15980_5635)">
<rect width="100" height="100" fill="#FFB16A"/>
<path d="M51.2517 99.7776L17.3877 80.1552C15.8276 79.2522 15.5241 77.125 16.7636 75.8226L57.6657 32.7574C59.0438 31.3075 61.2454 30.9862 62.9789 31.9934L97.0508 51.7374C98.611 52.6404 98.9144 54.7676 97.675 56.0699L56.9376 98.9614C55.4555 100.516 53.1065 100.854 51.2517 99.7776Z" fill="black"/>
<path d="M51.2517 97.6307L17.3877 78.0083C15.8276 77.1053 15.5241 74.9781 16.7636 73.6757L57.6657 30.6106C59.0438 29.1606 61.2454 28.8393 62.9789 29.8465L97.0508 49.5905C98.611 50.4935 98.9144 52.6207 97.675 53.9231L56.9376 96.8146C55.4555 98.3687 53.1065 98.7073 51.2517 97.6307Z" fill="white"/>
<path d="M51.2517 97.6307L17.3877 78.0083C15.8276 77.1053 15.5241 74.9781 16.7636 73.6757L57.6657 30.6106C59.0438 29.1606 61.2454 28.8393 62.9789 29.8465L97.0508 49.5905C98.611 50.4935 98.9144 52.6207 97.675 53.9231L56.9376 96.8146C55.4555 98.3687 53.1065 98.7073 51.2517 97.6307Z" fill="black"/>
<path d="M81.7352 38.4672L31.4462 91.413L39.403 96.0234L89.6919 43.0863L81.7352 38.4672Z" fill="black"/>
<path d="M55.828 66.7796L9.2227 82.1737L32.3736 49.5883L58.1162 54.5981L62.9787 62.3342L55.828 66.7796Z" fill="black"/>
<path d="M68.7169 48.6008L55.5769 6.83799C55.0915 5.2925 53.4187 4.26798 51.8326 4.54582L24.5212 9.43407L16.079 8.15774L14.5275 11.3876C14.1548 12.0649 14.0508 12.8202 14.2935 13.619L30.5624 65.3232C31.0478 66.8687 32.7206 67.8932 34.3068 67.6154L70.1816 61.1991C71.0397 61.0428 71.6811 60.5305 72.0191 59.8533L73.718 56.4063L68.7169 48.6008Z" fill="black"/>
<path d="M35.9709 64.1782L71.8458 57.7619C73.4233 57.4754 74.3074 55.9993 73.822 54.4452L57.5531 2.74094C57.0677 1.19545 55.3948 0.170932 53.8086 0.448772L17.9339 6.86512C16.3564 7.15164 15.4723 8.62767 15.9577 10.1818L32.2266 61.8861C32.712 63.4316 34.3848 64.4561 35.9709 64.1782Z" fill="white"/>
<path d="M23.6632 19.3508L56.149 13.5336C56.7818 13.4207 57.1457 12.8216 56.9464 12.1965L54.7276 5.13761C54.5282 4.51247 53.8521 4.10439 53.2194 4.21727L20.7336 10.0345C20.1008 10.1474 19.7368 10.7465 19.9361 11.3716L22.1551 18.4305C22.3544 19.0556 23.0305 19.4637 23.6632 19.3508Z" fill="black"/>
<path d="M37.1674 30.5082L41.5098 29.7268C42.0818 29.6226 42.4025 29.0843 42.2292 28.5286L40.8857 24.2742C40.7124 23.7098 40.1056 23.3451 39.5249 23.4407L35.1825 24.2221C34.6104 24.3263 34.2897 24.8646 34.4631 25.4203L35.8066 29.6747C35.9799 30.239 36.5866 30.6037 37.1674 30.5082Z" fill="#FFB065"/>
<path d="M27.945 32.1565L32.2874 31.3751C32.8595 31.2709 33.1801 30.7326 33.0068 30.1769L31.6634 25.9225C31.49 25.3581 30.8833 24.9935 30.3025 25.089L25.9601 25.8704C25.388 25.9746 25.0674 26.5129 25.2407 27.0686L26.5842 31.323C26.7576 31.8874 27.3643 32.252 27.945 32.1565Z" fill="#FFB065"/>
<path d="M46.3808 28.8565L50.7233 28.0751C51.2953 27.9709 51.616 27.4326 51.4426 26.8769L50.0992 22.6225C49.9259 22.0581 49.3191 21.6934 48.7384 21.7889L44.3959 22.5704C43.8239 22.6746 43.5032 23.2129 43.6766 23.7686L45.0201 28.023C45.1934 28.5874 45.8001 28.952 46.3808 28.8565Z" fill="#FFB065"/>
<path d="M55.6028 27.2082L59.9452 26.4268C60.5173 26.3226 60.8379 25.7843 60.6646 25.2286L59.3212 20.9741C59.1478 20.4098 58.541 20.0451 57.9603 20.1406L53.6179 20.9221C53.0458 21.0262 52.7251 21.5646 52.8985 22.1202L54.2419 26.3747C54.4152 26.939 55.022 27.3037 55.6028 27.2082Z" fill="#FFB065"/>
<path d="M65.1286 39.4165L69.3236 52.666C69.497 53.2304 69.1763 53.7687 68.6042 53.8642L64.2618 54.6456C63.6897 54.7498 63.0831 54.3764 62.9011 53.8121L58.7059 40.5626C58.5325 39.9983 58.8533 39.4599 59.4254 39.3644L63.7678 38.583C64.3399 38.4788 64.9465 38.8522 65.1286 39.4165Z" fill="#FFB065"/>
<path d="M42.9743 48.9585L47.3168 48.1771C47.8888 48.0729 48.2096 47.5346 48.0362 46.9789L46.6927 42.7245C46.5194 42.1601 45.9127 41.7954 45.332 41.8909L40.9895 42.6724C40.4175 42.7766 40.0967 43.3149 40.2701 43.8706L41.6136 48.125C41.7869 48.6893 42.3936 49.054 42.9743 48.9585Z" fill="black"/>
<path d="M52.1878 47.3068L56.5302 46.5254C57.1023 46.4212 57.4231 45.8829 57.2497 45.3272L55.9062 41.0728C55.7328 40.5084 55.1262 40.1437 54.5454 40.2392L50.203 41.0207C49.631 41.1249 49.3102 41.6632 49.4835 42.2188L50.827 46.4733C51.0004 47.0376 51.6071 47.4023 52.1878 47.3068Z" fill="black"/>
<path d="M33.804 50.6339L38.1465 49.8525C38.7185 49.7483 39.0392 49.21 38.8658 48.6543L37.5224 44.3999C37.3491 43.8355 36.7423 43.4709 36.1616 43.5664L31.8191 44.3478C31.2471 44.452 30.9264 44.9903 31.0998 45.546L32.4433 49.8004C32.6166 50.3648 33.2233 50.7294 33.804 50.6339Z" fill="black"/>
<path d="M45.8696 58.1802L50.212 57.3988C50.7841 57.2946 51.1047 56.7563 50.9314 56.2006L49.5879 51.9462C49.4145 51.3819 48.8078 51.0172 48.2271 51.1127L43.8847 51.8941C43.3126 51.9983 42.992 52.5366 43.1653 53.0923L44.5087 57.3467C44.6821 57.9111 45.2888 58.2757 45.8696 58.1802Z" fill="black"/>
<path d="M55.0915 56.5285L59.4339 55.7471C60.006 55.6429 60.3267 55.1046 60.1533 54.5489L58.8098 50.2945C58.6365 49.7301 58.0298 49.3655 57.449 49.461L53.1066 50.2424C52.5346 50.3466 52.2139 50.8849 52.3872 51.4406L53.7306 55.695C53.904 56.2594 54.5108 56.624 55.0915 56.5285Z" fill="black"/>
<path d="M36.7077 59.8557L41.0502 59.0743C41.6222 58.9701 41.943 58.4318 41.7696 57.8761L40.4261 53.6217C40.2528 53.0573 39.6461 52.6926 39.0654 52.7882L34.7229 53.5696C34.1509 53.6738 33.8301 54.2121 34.0035 54.7678L35.347 59.0222C35.5203 59.5865 36.127 59.9512 36.7077 59.8557Z" fill="black"/>
<path d="M40.0706 39.7299L44.4131 38.9485C44.9851 38.8443 45.3059 38.306 45.1325 37.7503L43.789 33.4959C43.6157 32.9316 43.0089 32.5669 42.4282 32.6624L38.0858 33.4438C37.5138 33.548 37.193 34.0863 37.3664 34.642L38.7099 38.8964C38.8832 39.4608 39.4899 39.8255 40.0706 39.7299Z" fill="black"/>
<path d="M30.8487 41.3783L35.1911 40.5968C35.7632 40.4927 36.0839 39.9543 35.9106 39.3987L34.5671 35.1442C34.3937 34.5799 33.7871 34.2152 33.2063 34.3107L28.8639 35.0921C28.2918 35.1963 27.9711 35.7347 28.1444 36.2903L29.4879 40.5448C29.6613 41.1091 30.268 41.4738 30.8487 41.3783Z" fill="black"/>
<path d="M49.2841 38.0782L53.6265 37.2968C54.1986 37.1926 54.5192 36.6543 54.3459 36.0986L53.0025 31.8442C52.8291 31.2799 52.2224 30.9152 51.6416 31.0107L47.2993 31.7921C46.7272 31.8963 46.4065 32.4346 46.5798 32.9903L47.9233 37.2447C48.0967 37.8091 48.7034 38.1737 49.2841 38.0782Z" fill="black"/>
<path d="M58.5065 36.4299L62.8489 35.6485C63.421 35.5443 63.7416 35.006 63.5683 34.4503L62.2249 30.1959C62.0515 29.6316 61.4447 29.2669 60.864 29.3624L56.5216 30.1438C55.9495 30.248 55.6288 30.7863 55.8022 31.342L57.1457 35.5964C57.3191 36.1608 57.9257 36.5255 58.5065 36.4299Z" fill="black"/>
<path d="M23.6632 19.3508L56.149 13.5336C56.7818 13.4207 57.1457 12.8216 56.9464 12.1965L54.7276 5.13761C54.5282 4.51247 53.8521 4.10439 53.2194 4.21727L20.7336 10.0345C20.1008 10.1474 19.7368 10.7465 19.9361 11.3716L22.1551 18.4305C22.3544 19.0556 23.0305 19.4637 23.6632 19.3508Z" fill="black"/>
<path d="M23.0042 20.463L55.4901 14.6457C56.1228 14.5328 56.4869 13.9337 56.2875 13.3086L53.9299 5.82429C53.8086 5.43358 53.3925 5.18178 52.9938 5.25124L20.0746 11.1467C19.4419 11.2595 19.0778 11.8586 19.2772 12.4837L21.4961 19.5426C21.6955 20.1678 22.3715 20.5758 23.0042 20.463Z" fill="black"/>
<path d="M10.731 67.2155C4.80237 62.4141 5.63445 53.5145 12.3518 46.6554C10.6096 42.427 12.1005 36.9049 16.2869 32.0775C12.4905 34.6648 8.90209 38.216 5.94647 42.3923C-1.5336 52.9588 0.693939 66.5469 9.72549 70.5322C13.9726 72.4076 19.0777 72.043 24.0269 69.9331C18.9824 70.784 14.1026 69.9418 10.731 67.2155Z" fill="white"/>
</g>
<defs>
<clipPath id="clip0_15980_5635">
<rect width="100" height="100" fill="white"/>
</clipPath>
</defs>
</svg>
