<svg width="100" height="100" viewBox="0 0 100 100" fill="none" xmlns="http://www.w3.org/2000/svg">
<rect width="100" height="100" fill="#FFB065"/>
<path d="M53.464 73.0093C51.9713 74.3608 50.2164 75.9644 48.5321 77.6286L48.169 77.9816L47.6647 78.0522C43.4993 78.6271 40.3526 82.2377 40.3526 86.4435C40.3526 91.1232 44.1549 94.9255 48.8346 94.9255C53.5144 94.9255 57.3167 91.1232 57.3167 86.4435C57.3167 85.5257 57.1654 84.6079 56.8629 83.7203L56.7217 83.2967L56.8326 82.8631C57.4579 80.4526 57.9824 77.9715 58.416 75.8434C58.9304 73.3018 59.3641 70.6594 59.707 67.8253C57.4478 69.56 55.3904 71.2645 53.464 73.0093Z" fill="white"/>
<path d="M26.8581 27.4833C25.9 27.9876 24.962 28.512 24.0341 29.0768L23.6206 34.4021C24.5787 33.8272 25.5571 33.2927 26.5455 32.7783L26.8581 27.4833Z" fill="black"/>
<path d="M13.1922 42.6114C15.4312 40.322 17.8619 38.2746 20.4338 36.4692L20.8473 31.1944C10.2775 38.799 2.79387 50.4278 0.645622 63.8418C3.00567 55.9346 7.27192 48.6628 13.1922 42.6114Z" fill="black"/>
<path d="M31.7398 30.4582C37.1357 28.4209 42.8946 27.2812 48.8149 27.1501H49.2183C49.4806 27.1299 49.7428 27.1198 50.005 27.1198C73.3634 27.1198 93.1214 42.7526 99.4148 64.094C95.7134 40.1304 75.0074 21.7845 50.005 21.7845C49.6217 21.7845 49.2385 21.8047 48.8452 21.8148C42.935 21.9459 37.2769 23.1057 32.0525 25.1229L31.7398 30.4582Z" fill="black"/>
<path d="M12.9904 45.0417C4.92182 53.9171 0 65.6972 0 78.6371V82.8025H25.0024V78.6371C25.0024 72.0713 27.544 66.0905 31.6892 61.6326L12.9904 45.0417Z" fill="black"/>
<path d="M14.3721 43.5689L33.1214 60.2002C37.3069 56.3677 42.7936 53.937 48.845 53.6647V28.6623C35.3604 28.9648 23.187 34.6128 14.3721 43.5689Z" fill="black"/>
<path d="M85.547 43.4789C76.48 34.321 63.9132 28.6327 50.005 28.6327C49.6217 28.6327 49.2383 28.6522 48.845 28.6623L48.8452 53.6957C49.2284 53.6755 49.6116 53.6351 50.005 53.6351C56.4699 53.6351 62.36 56.086 66.7977 60.1102L85.547 43.4789Z" fill="white"/>
<path d="M86.9391 44.9413L68.2301 61.5322C72.4257 66.0002 74.9976 72.0113 74.9976 78.6275V82.7929H100V78.6275C100 65.6472 95.048 53.8167 86.9391 44.9312V44.9413Z" fill="white"/>
<path d="M47.4735 76.5595C49.1981 74.855 51.0035 73.201 52.4558 71.8898C54.7856 69.792 57.186 67.8455 59.6267 65.9897C59.3141 65.1929 58.7392 63.7305 58.7392 63.7305C55.774 65.8888 54.13 67.2504 51.3362 69.7718C49.9646 71.0124 48.25 72.5757 46.6161 74.1994C42.007 74.8348 38.4468 78.7784 38.4468 83.5691C38.4468 84.5373 38.598 85.4652 38.8602 86.3527C38.9107 81.3502 42.6424 77.2352 47.4735 76.5595Z" fill="black"/>
<path d="M48.8447 90.9013C51.3068 90.9013 53.3026 88.9055 53.3026 86.4435C53.3026 83.9814 51.3068 81.9856 48.8447 81.9856C46.3827 81.9856 44.3869 83.9814 44.3869 86.4435C44.3869 88.9055 46.3827 90.9013 48.8447 90.9013Z" fill="#FFB065"/>
<path d="M77.4984 6C77.4984 6 79.9795 14.1997 90.0047 16.4689C90.0047 16.4689 82.4001 17.7801 82.2488 26.9076C82.2488 26.9076 79.5761 19.0005 69.9543 16.4589C69.9543 16.4589 77.9926 15.5007 77.4984 6Z" fill="white"/>
</svg>
