<svg width="100" height="100" viewBox="0 0 100 100" fill="none" xmlns="http://www.w3.org/2000/svg">
<rect width="100" height="100" fill="#FFB16A"/>
<path d="M49.7198 17.7932C43.992 18.0419 36.8806 17.8544 28.8603 16.4937C22.439 15.4042 16.8626 13.8048 12.2526 12.1651C13.5101 10.6335 14.7676 9.10179 16.0251 7.57012C17.8628 5.3317 20.476 3.86721 23.3445 3.4681L46.8547 0.196896C48.7555 -0.0675954 50.6839 -0.065612 52.5842 0.202814L75.8675 3.49136C78.5976 3.87696 81.099 5.22856 82.9178 7.30083L87.187 12.1651C82.4151 13.6991 76.8436 15.1539 70.5628 16.2017C62.7151 17.5109 55.6533 17.8688 49.7198 17.7932Z" fill="white"/>
<path d="M49.7198 17.7932C58.8574 16.6939 64.5857 12.5384 64.5275 8.8691C64.5176 8.25102 64.3226 6.3214 61.1554 4.05181C69.8328 6.7563 78.5097 9.46064 87.187 12.1651C82.4151 13.6991 76.8436 15.1539 70.5628 16.2017C62.7151 17.5109 55.6533 17.8688 49.7198 17.7932Z" fill="#FFB16A"/>
<path d="M70.4216 44.2534L50.1209 99.938C50.1145 99.9412 50.1049 99.9444 50.0985 99.9444C49.8522 100.021 49.5867 100.018 49.3404 99.938C49.334 99.938 49.3244 99.9348 49.318 99.9316L29.0205 44.2534L70.4216 44.2534Z" fill="white"/>
<path d="M49.3397 99.9369C49.3333 99.9369 49.3237 99.9337 49.3172 99.9305C49.1669 99.8793 49.023 99.7961 48.8982 99.6842C34.1125 76.3508 19.3205 53.0175 4.5348 29.6841C12.6954 34.5338 20.856 39.3803 29.0198 44.2267C29.023 44.2363 29.0262 44.2427 29.0294 44.2523C35.7983 62.816 42.5706 81.3732 49.3397 99.9369Z" fill="black"/>
<path d="M94.7557 30.0094C80.0199 53.2368 65.2843 76.4642 50.5485 99.6917C50.4205 99.8068 50.2734 99.8868 50.1198 99.938C50.1134 99.9412 50.1038 99.9444 50.0974 99.9444C56.8697 81.3807 63.6387 62.817 70.4109 44.2534C70.4141 44.2438 70.4173 44.2374 70.4205 44.2278C78.5322 39.4883 86.644 34.7488 94.7557 30.0094Z" fill="black"/>
<path d="M29.0194 44.2526C34.1455 45.7344 41.4696 47.2567 50.3309 47.1841C58.6082 47.1163 65.4864 45.6803 70.4216 44.2534C68.4522 39.9809 65.474 34.6014 60.9892 29.029C57.0754 24.1664 53.0851 20.4866 49.7204 17.7946C46.0376 20.7209 41.4967 24.9156 37.1436 30.6549C33.3846 35.6109 30.7982 40.3573 29.0194 44.2526Z" fill="white"/>
<path d="M12.2526 12.1664L29.0194 44.2526C30.7982 40.3573 33.3846 35.6109 37.1436 30.6549C41.4967 24.9156 46.0376 20.7209 49.7204 17.7946C44.2424 18.0336 37.4685 17.8735 29.8268 16.6546C22.9566 15.5588 17.0465 13.8721 12.2526 12.1664Z" fill="black"/>
<path d="M87.1865 12.1664L70.4203 44.2525C68.4509 39.98 65.4729 34.6014 60.988 29.029C57.0742 24.1662 53.084 20.4866 49.7192 17.7945C55.6527 17.8701 62.7145 17.5122 70.5623 16.203C76.8431 15.1552 82.4146 13.7004 87.1865 12.1664Z" fill="black"/>
<path d="M12.2526 12.1664L29.0194 44.2526C24.0589 41.8263 18.829 39.0389 13.4183 35.8334C10.8945 34.3381 8.47174 32.8351 6.14929 31.3352C3.5681 29.6684 2.85956 26.2073 4.56807 23.6535C7.12971 19.8245 9.69095 15.9954 12.2526 12.1664Z" fill="white"/>
<path d="M87.1875 12.1664L70.4216 44.2534C75.8161 41.7558 81.7064 38.6422 87.8453 34.7495C90.0318 33.363 92.1095 31.9665 94.0804 30.5745C96.5684 28.8174 97.1114 25.3529 95.2798 22.9192C92.5824 19.3349 89.8849 15.7507 87.1875 12.1664Z" fill="white"/>
<path d="M49.7204 17.7946C46.2476 20.3817 41.7831 24.2573 37.5048 29.7516C33.3122 35.1359 30.6756 40.3056 29.0194 44.2526C30.8633 44.9027 33.0197 45.5157 35.4575 45.9497C36.7809 46.1854 38.0357 46.3413 39.2067 46.4395C39.2719 43.1227 39.7055 38.7813 41.1638 33.9202C43.4131 26.4217 47.0987 21.0254 49.7204 17.7946Z" fill="#FFB16A"/>
</svg>
