<svg width="100" height="100" viewBox="0 0 100 100" fill="none" xmlns="http://www.w3.org/2000/svg">
<rect width="100" height="100" fill="#FFB16A"/>
<path d="M15.7526 91.7891L70.8206 59.9023C73.7252 58.2214 75.529 55.0869 75.529 51.7252V25.0499H74.3846V51.7252C74.3846 54.6791 72.7987 57.432 70.2484 58.9089L15.1804 90.7958L15.7526 91.7891Z" fill="black"/>
<path d="M74.0012 19.8296H75.9095V24.7702C75.9095 25.2975 75.4826 25.7257 74.9568 25.7257C74.4311 25.7257 74.0041 25.2975 74.0041 24.7702V19.8296H74.0012Z" fill="black"/>
<path d="M78.4191 4.15687V10.1928C78.4191 13.7526 76.5979 17.0474 73.6207 18.9467L73.2257 21.1956L69.7721 19.1798H69.7663C68.7555 18.5884 68.0352 17.5018 68.0352 16.1618V10.1695L78.422 4.15687H78.4191Z" fill="black"/>
<path d="M68.0322 10.1695L71.4945 12.1766L81.8784 6.16108L78.4191 4.15687L68.0322 10.1695Z" fill="white"/>
<path d="M71.4945 12.1766L71.4945 18.1691C71.4945 20.8521 74.3903 22.5271 76.7053 21.1871C79.9062 19.3343 81.8784 15.9085 81.8784 12.2001V6.16418L71.4916 12.1768L71.4945 12.1766Z" fill="white"/>
<path d="M72.1567 3.18685C72.5227 3.18685 72.8189 3.48398 72.8189 3.85104V9.57529C72.8189 9.94234 72.5227 10.2395 72.1567 10.2395C71.7907 10.2395 71.4945 9.94234 71.4945 9.57529V3.84812C71.4945 3.48107 71.7907 3.18393 72.1567 3.18393V3.18685Z" fill="black"/>
<path d="M77.7568 0C78.1228 0 78.419 0.297137 78.419 0.664188V6.38844C78.419 6.75549 78.1228 7.05263 77.7568 7.05263C77.3908 7.05263 77.0945 6.75549 77.0945 6.38844V0.664188C77.0945 0.297137 77.3908 0 77.7568 0Z" fill="black"/>
<path d="M23.9319 51.8416C24.295 51.2619 22.8804 49.9247 22.4883 49.6946C20.3796 48.4653 18.9389 48.7012 18.1837 48.9052C17.5708 49.0712 17.1555 49.4499 17.0509 50.0558C16.6269 52.465 19.1422 55.1771 20.9314 56.3685C20.9314 56.3685 23.929 51.8503 23.9319 51.8416Z" fill="#FFB16A"/>
<path d="M17.6791 49.1178C17.618 49.5491 17.6362 50.0599 17.8387 50.6122C18.1488 51.4598 19.1389 52.4693 20.2072 53.3735L23.3158 50.4335C23.7547 50.9155 24.1424 51.5055 23.9319 51.8416C23.9182 51.8665 20.9314 56.3685 20.9314 56.3685C19.1422 55.1771 16.6269 52.465 17.0509 50.0558C17.1235 49.6356 17.3454 49.3243 17.6791 49.1178Z" fill="black"/>
<path d="M53.457 90.1462L44.8914 85.188L48.0051 81.7943L54.4388 85.5172L53.457 90.1462Z" fill="black"/>
<path d="M96.1602 65.0614L87.5946 60.1003L91.2892 56.7066L96.1486 60.313L96.1602 65.0614Z" fill="black"/>
<path d="M38.9892 88.1315C41.2461 84.2109 45.0745 82.1896 47.5404 83.6171C47.5821 83.6413 47.6222 83.6686 47.6627 83.6945L50.4974 85.3365C50.502 85.3391 50.507 85.3409 50.5116 85.3436C50.516 85.3461 50.5205 85.349 50.5249 85.3516L50.6392 85.4183L50.6357 85.4218C52.9817 86.9224 53.1084 91.175 50.8901 95.0285C48.6331 98.9489 44.8048 100.969 42.3389 99.5419C42.2956 99.5169 42.254 99.4888 42.2122 99.4619L39.4111 97.8395C39.3966 97.8314 39.3812 97.8247 39.3668 97.8164C36.9009 96.3885 36.7321 92.0523 38.9892 88.1315Z" fill="black"/>
<path d="M49.7819 94.5201C51.4005 91.7084 51.279 88.5989 49.5105 87.5748C47.742 86.5508 44.9962 88 43.3776 90.8117C41.759 93.6234 41.8806 96.7329 43.6491 97.757C45.4176 98.781 48.1633 97.3318 49.7819 94.5201Z" fill="#FFB16A"/>
<path d="M47.8387 93.3951C49.0651 91.2647 48.9736 88.909 47.6344 88.1335C46.2952 87.3581 44.2153 88.4564 42.989 90.5868C41.7626 92.7172 41.8541 95.0729 43.1933 95.8483C44.5325 96.6238 46.6124 95.5254 47.8387 93.3951Z" fill="black"/>
<path d="M81.646 63.4047C83.9029 59.4841 87.7313 57.4628 90.1972 58.8903C90.2451 58.9181 90.291 58.9493 90.3372 58.9792L93.1294 60.599C93.141 60.6055 93.1533 60.611 93.1649 60.6177C93.1757 60.624 93.186 60.6317 93.1968 60.6381L93.2934 60.6941L93.2898 60.6977C95.6343 62.1991 95.761 66.45 93.5434 70.3025C91.2863 74.2233 87.4572 76.2446 84.9913 74.8169C84.9515 74.7939 84.9137 74.7676 84.8752 74.7431L82.0236 73.0896C79.5577 71.6617 79.3889 67.3255 81.646 63.4047Z" fill="black"/>
<path d="M92.4374 69.7963C94.056 66.9846 93.9344 63.8751 92.1659 62.851C90.3974 61.827 87.6516 63.2762 86.0331 66.0879C84.4145 68.8996 84.536 72.0091 86.3045 73.0332C88.073 74.0572 90.8188 72.608 92.4374 69.7963Z" fill="#FFB16A"/>
<path d="M90.5377 68.88C91.7521 66.7705 91.661 64.4377 90.3343 63.6695C89.0075 62.9012 86.9476 63.9885 85.7332 66.098C84.5189 68.2075 84.61 70.5403 85.9367 71.3086C87.2634 72.0768 89.3234 70.9895 90.5377 68.88Z" fill="black"/>
<path d="M7.5791 90.1809C12.5488 93.059 21.3091 98.1308 21.3091 98.1308C21.3149 98.1308 21.3178 98.1308 21.3236 98.1366C21.6954 98.2793 30.6531 101.647 39.6225 98.1686L39.6719 98.1424C38.9341 95.7974 39.4192 92.4968 41.1968 89.4118C43.8428 84.8208 48.3275 82.4553 51.2147 84.1245C52.9894 85.147 53.7417 87.4601 53.4512 90.1518L82.378 73.046C81.6605 70.7039 82.1543 67.4383 83.9145 64.3766C86.5606 59.7826 91.0452 57.4143 93.9324 59.0835C95.6897 60.1031 96.4449 62.384 96.1747 65.0466L96.381 64.8398C97.6706 62.8239 96.6162 58.4339 96.1631 57.3181C95.4486 55.5528 89.1921 43.8479 86.7436 41.7738C81.0012 36.9147 66.7281 29.8475 62.7575 29.4543C59.4956 29.1309 57.9156 29.6174 57.4799 29.7077C46.7416 31.9392 37.0635 37.8032 35.954 38.4529C32.8287 40.2852 30.0954 42.7206 27.9228 45.6278L19.6128 57.8862C19.6128 57.8862 12.4559 61.9879 6.36208 68.1578C2.99857 71.5632 3.00147 76.6612 3.00728 77.0807V83.1661C3.00728 83.1661 2.61517 87.3115 7.58491 90.1838L7.5791 90.1809Z" fill="black"/>
<path d="M82.427 38.667C84.1064 39.7439 85.5956 40.8024 86.7436 41.7738C89.1921 43.8479 95.4486 55.5528 96.1631 57.3181C96.6162 58.4339 97.6706 62.8239 96.381 64.8398L96.1747 65.0466C96.4449 62.384 95.6897 60.1031 93.9324 59.0835C91.0452 57.4143 86.5606 59.7826 83.9145 64.3766C82.1543 67.4383 81.6605 70.7039 82.378 73.046L53.4512 90.1518C53.7417 87.4601 52.9894 85.147 51.2147 84.1245C48.3275 82.4553 43.8428 84.8208 41.1968 89.4118C39.4192 92.4968 38.9341 95.7974 39.6719 98.1424L39.6225 98.1686C30.6542 101.646 21.6974 98.2801 21.3236 98.1366C21.3178 98.1308 21.3149 98.1308 21.3091 98.1308C21.2706 98.1085 12.5379 93.0527 7.5791 90.1809L7.58491 90.1838C2.63069 87.3204 3.00492 83.1916 3.00728 83.1661V77.0807C3.00147 76.6612 2.99857 71.5632 6.36208 68.1578C12.4559 61.9879 19.6128 57.8862 19.6128 57.8862L27.9228 45.6278C29.3897 43.665 31.1129 41.9177 33.039 40.4255C29.5046 45.035 42.5647 50.7796 46.5266 51.9844C50.6394 53.237 56.5507 53.3125 61.5902 51.0607C73.0201 45.9531 85.0904 42.0446 82.427 38.667Z" fill="white"/>
<path d="M13.6027 61.9217C8.11866 66.2459 6.5547 71.7648 18.1694 78.027C30.3367 84.5902 34.4818 80.5505 44.1598 75.1875C44.1185 75.2171 32.5476 83.512 34.6806 99.4628C27.6228 100.507 21.628 98.2534 21.3236 98.1366C21.3178 98.1308 21.3149 98.1308 21.3091 98.1308C21.2706 98.1085 12.5379 93.0527 7.5791 90.1809L7.58491 90.1838C2.63069 87.3204 3.00492 83.1916 3.00728 83.1661V77.0807C3.00147 76.6612 2.99857 71.5632 6.36208 68.1578C8.77878 65.7109 11.3643 63.5912 13.6027 61.9217Z" fill="black"/>
<path d="M6.76575 81.0689L22.3372 90.085C22.3372 91.7047 20.5887 92.7155 19.1916 91.9057L9.91141 86.531C7.96534 85.4036 6.76575 83.3207 6.76575 81.066V81.0689Z" fill="#FFB16A"/>
<path d="M20.6961 58.2797C20.7077 58.3117 20.7136 58.3379 20.7194 58.3554C21.1463 59.9809 22.0322 61.4928 23.3974 62.9261C24.9717 64.572 27.1821 66.1043 30.0518 67.5492C35.039 70.0632 40.4154 71.5547 45.5942 71.913L52.7598 56.2871C50.9793 55.9113 49.1175 55.4685 47.2353 54.9121C44.9 54.2217 42.5328 53.3623 40.2585 52.2408C39.422 51.8271 38.5855 51.3785 37.7519 50.8891C35.068 49.3189 32.3726 47.3497 29.4796 44.8473C28.8987 45.5698 28.3613 46.3184 27.8763 47.0788L22.0061 56.2347L20.6961 58.2826V58.2797Z" fill="#FFB16A"/>
<path d="M52.3735 71.1146C52.4752 68.9181 54.5752 61.5189 55.3072 59.436C56.1495 57.0298 58.3541 55.9315 60.884 54.7168C64.1168 53.1641 69.4264 50.6355 72.7753 49.0741C73.3621 48.8002 74.5878 48.2467 75.0438 48.0836C75.3256 49.4732 76.2608 54.137 76.9579 59.0252C69.6006 63.2988 57.8777 69.9814 53.1403 72.679C52.9022 72.813 52.7337 72.7926 52.6146 72.6673C52.2719 72.309 52.3503 71.5632 52.3706 71.1117L52.3735 71.1146Z" fill="#FFB16A"/>
<path d="M76.3249 47.6498C76.5602 47.5245 78.2768 46.7584 78.4627 46.6681C80.0021 45.9281 84.5913 43.7491 86.3806 44.76C88.1698 45.7708 90.781 50.8222 89.5175 51.5038C89.2822 51.6874 83.322 55.2064 83.078 55.3899C82.4826 55.7861 80.7689 56.8057 78.4249 58.1748C78.1954 56.9426 77.5651 53.0944 76.3278 47.6498H76.3249Z" fill="#FFB16A"/>
<path d="M49.2133 67.4792C50.3374 66.4304 51.1594 66.2382 51.9843 66.2382C53.2682 66.2382 54.0756 66.512 55.0487 67.1412C56.286 67.9423 58.1362 69.4659 58.9728 70.7069C59.8093 71.9479 58.4325 73.1218 57.5147 73.5676C56.3093 74.156 54.857 74.0715 53.5848 73.786C52.4084 73.5239 51.2204 73.1918 50.1486 72.6295C49.3905 72.2334 48.6092 71.6478 48.3158 70.7972C48.066 70.0747 48.281 68.3502 49.2163 67.4792H49.2133Z" fill="#FFB16A"/>
<path d="M18.1343 76.3585C19.1626 76.6294 22.5057 79.8892 30.0489 79.5541C35.4457 79.3153 41.5743 75.0796 41.5743 75.0796C41.5743 75.0796 35.7623 77.2062 29.5 77.5121C22.2327 77.8675 18.1343 76.3585 18.1343 76.3585Z" fill="white"/>
<path d="M17.1526 61.1752C17.1526 61.1752 13.2517 63.6485 11.9912 65.4662C9.36831 69.2533 13.06 72.7723 13.06 72.7723C13.06 72.7723 12.7522 69.4048 13.8298 66.3344C14.521 64.3651 17.1497 61.1781 17.1497 61.1781L17.1526 61.1752Z" fill="white"/>
<path d="M29.0337 90.2116C30.3683 89.5252 30.7619 87.6225 29.9127 85.9618C29.0636 84.3012 27.2933 83.5114 25.9587 84.1979C24.6241 84.8843 24.2305 86.787 25.0796 88.4477C25.9288 90.1083 27.6991 90.8981 29.0337 90.2116Z" fill="#FFB16A"/>
<path d="M8.13754 76.9965C9.47216 76.3101 9.86573 74.4074 9.01659 72.7467C8.16746 71.0861 6.39718 70.2963 5.06255 70.9828C3.72793 71.6692 3.33436 73.5719 4.1835 75.2326C5.03263 76.8932 6.80292 77.683 8.13754 76.9965Z" fill="#FFB16A"/>
<path d="M49.7689 67.0126C48.8559 69.4312 49.8389 70.3752 52.3794 71.4177C55.9412 72.8788 58.0499 72.2933 59.2304 71.4648C59.2568 72.4038 58.2421 73.2143 57.5147 73.5676C56.3093 74.156 54.857 74.0715 53.5848 73.786C52.4084 73.5239 51.2204 73.1918 50.1486 72.6295C49.3905 72.2334 48.6092 71.6478 48.3158 70.7972C48.066 70.0747 48.281 68.3502 49.2163 67.4792H49.2133C49.4001 67.305 49.5789 67.1551 49.7503 67.0251L49.7689 67.0126Z" fill="black"/>
<path d="M49.7742 67.01L49.7689 67.0126L49.7707 67.01H49.7742Z" fill="black"/>
<path d="M22.9153 56.9134L29.6307 46.3884C29.6307 46.3884 31.2863 47.8071 32.4307 48.7422C35.039 50.8687 42.103 54.4781 41.8532 54.2625C41.8532 54.2625 35.1814 51.9845 30.7606 52.5554C26.3398 53.1264 22.9124 56.9134 22.9124 56.9134H22.9153Z" fill="white"/>
<path d="M71.3841 50.6502C71.3841 50.6502 58.7463 56.2492 57.233 58.3787C55.5658 60.7208 54.3255 66.4247 54.3255 66.4247C54.3255 66.4247 57.8662 61.0005 60.4919 58.3787C64.8837 53.9945 71.387 50.6502 71.387 50.6502H71.3841Z" fill="white"/>
<path d="M81.6983 46.3855L77.4169 48.081L78.8431 55.9784C78.8431 55.9784 78.5962 51.7456 79.5576 49.6307C80.519 47.5158 81.6983 46.3855 81.6983 46.3855Z" fill="white"/>
</svg>
