<svg width="100" height="100" viewBox="0 0 100 100" fill="none" xmlns="http://www.w3.org/2000/svg">
<rect width="100" height="100" fill="#FFB16A"/>
<path d="M80.5899 44.5656L73.6781 29.1484L71.178 57.4866L79.8546 52.788L86.7664 67.3242L89.4135 39.7202L80.5899 44.5656Z" fill="#006A4D"/>
<path d="M54.1214 61.053L33.3212 82.9225C26.5811 90.0059 15.861 91.5564 7.39096 86.6543C-0.899095 81.8621 -2.51911 70.5773 4.08094 63.6343L24.8811 41.7645C31.6212 34.6815 42.3413 33.1308 50.8113 38.033C59.1014 42.8249 60.7214 54.11 54.1214 61.053Z" fill="black"/>
<path d="M54.1214 54.9107L33.3212 76.7804C26.5811 83.8635 15.861 85.414 7.39096 80.512C-0.899095 75.7197 -2.51911 64.4349 4.08094 57.4919L24.8811 35.6222C31.6212 28.5391 42.3413 26.9885 50.8113 31.8906C59.1014 36.6826 60.7214 47.9677 54.1214 54.9107Z" fill="white"/>
<path d="M56.0615 44.4862C56.0615 37.313 48.9115 31.4905 40.0914 31.4905C35.0713 31.4905 30.5913 33.3813 27.6613 36.3326C20.4912 43.9858 13.3211 51.6492 6.16108 59.3026C3.66106 61.5937 2.13105 64.6049 2.13105 67.9165C2.13105 75.0894 9.28111 80.9121 18.1012 80.9121C23.3312 80.9121 27.9613 78.8612 30.8713 75.69C30.8713 75.69 30.8713 75.69 30.8813 75.69C37.9914 68.0965 45.1114 60.503 52.2215 52.9099C54.6115 50.639 56.0515 47.6977 56.0515 44.4762L56.0615 44.4862Z" fill="#FFB16A"/>
<path d="M18.111 81.2922C9.10097 81.2922 1.76091 75.2898 1.76091 67.9266C1.76091 64.6851 3.20093 61.5638 5.83095 59.1126L27.6011 35.8524H27.6212C30.7412 32.8511 35.2612 31.1303 40.0913 31.1303C49.1013 31.1303 56.4414 37.133 56.4414 44.4963C56.4414 47.6475 55.0714 50.699 52.5814 53.1099L52.5114 53.1901L30.9512 76.2001H30.9412C27.8112 79.4416 23.1611 81.2922 18.111 81.2922ZM6.71095 59.2627L6.74095 59.2827L6.42095 59.5828C3.90093 61.8939 2.51092 64.8552 2.51092 67.9166C2.51092 74.8795 9.51097 80.5319 18.111 80.5319C23.0711 80.5319 27.6211 78.6713 30.6112 75.4398L30.8312 75.1996H30.8512L51.7313 52.9299L51.7113 52.9099L51.9813 52.6398C54.3814 50.3589 55.7014 47.4576 55.7014 44.4763C55.7014 37.513 48.7013 31.8607 40.1012 31.8607C35.3612 31.8607 30.9212 33.5814 27.9412 36.5927L27.8212 36.7128L6.71095 59.2627Z" fill="black"/>
<path d="M46.7315 38.3732C48.5515 38.3732 50.0215 37.3128 50.0215 36.0023C50.0215 34.6917 48.5515 33.6312 46.7315 33.6312C44.9115 33.6312 43.4414 34.6917 43.4414 36.0023C43.4414 37.3128 44.9115 38.3732 46.7315 38.3732Z" fill="black"/>
<path d="M19.0712 70.1874L14.8412 67.6563C14.7412 67.5961 14.7112 67.4863 14.7712 67.4161L15.5812 66.6059C16.1812 66.0057 17.3912 65.8656 18.3712 66.3557C19.4912 66.926 19.8512 68.0064 19.1712 68.6768L19.6612 68.9769C20.2812 68.3465 20.2612 67.4161 19.5412 66.6758C18.3012 65.4052 16.1012 65.2953 15.1312 66.2656L14.2712 67.126C14.2012 67.1962 14.0612 67.1962 13.9612 67.126L13.7712 67.0159C13.3612 66.766 12.7912 66.7859 12.5312 67.0561L10.5712 69.0269C10.3012 69.297 10.4212 69.7173 10.8312 69.9672L16.1212 73.1387C16.5312 73.3889 17.1012 73.3686 17.3612 73.0988L19.3212 71.1277C19.5912 70.8575 19.4712 70.4376 19.0612 70.1874H19.0712ZM16.8812 72.8086C16.7912 72.8985 16.5912 72.9085 16.4412 72.8286L11.1512 69.6571C11.0112 69.5672 10.9612 69.4171 11.0612 69.327L13.0212 67.3562C13.1112 67.2661 13.3112 67.2561 13.4612 67.3363L18.7512 70.5075C18.8912 70.5977 18.9412 70.7477 18.8412 70.8376L16.8812 72.8086Z" fill="white"/>
<path d="M89.4419 39.0733C81.9618 29.7892 70.7917 25.9876 62.5216 29.249L61.2516 29.0389C61.2516 29.0389 58.6816 31.46 58.6016 31.53C50.3116 38.2129 50.6915 52.4392 59.4416 63.2938C68.1917 74.1487 82.0018 77.5202 90.2919 70.8373C90.7519 70.467 95.0519 66.4753 95.0519 66.4753L94.8019 64.7645C97.9019 57.4215 96.0719 47.277 89.4619 39.0733H89.4419Z" fill="black"/>
<path d="M56.6114 45.2569L52.8013 48.2681C52.9513 49.4889 53.2113 50.7393 53.5513 51.98L57.4114 48.9286C57.0614 47.6981 56.7914 46.4674 56.6213 45.247L56.6114 45.2569Z" fill="white"/>
<path d="M56.3814 40.965L52.6513 43.9163C52.6113 44.6366 52.6013 45.3467 52.6213 46.087L56.3914 43.0958C56.3514 42.3755 56.3414 41.6651 56.3614 40.955L56.3814 40.965Z" fill="white"/>
<path d="M94.0218 67.3764C102.312 60.6935 101.932 46.4672 93.1818 35.6124C84.4317 24.7577 70.6216 21.3862 62.3315 28.0691C54.0414 34.7521 54.4214 48.9783 63.1715 59.8331C71.9216 70.6877 85.7317 74.0592 94.0218 67.3764Z" fill="white"/>
<path d="M69.3014 35.5325C70.0614 34.462 69.6214 32.8513 68.3214 31.9209C67.0214 31.0005 65.3513 31.1106 64.5913 32.181C63.8313 33.2515 64.2713 34.8622 65.5714 35.7926C66.8714 36.7131 68.5414 36.603 69.3014 35.5325Z" fill="black"/>
<path d="M68.5714 23.7567C68.0414 19.3747 65.8914 15.463 62.6614 13.022C59.9614 10.9811 56.7014 10.1407 53.4913 10.6409C46.2413 11.7814 41.1712 19.4948 42.1812 27.8384C42.6912 32.0503 44.7113 35.8119 47.7313 38.2629C48.7413 38.023 49.5413 37.4527 49.8613 36.7124C49.7813 36.6522 49.7013 36.6123 49.6213 36.5523C46.9413 34.5214 45.1513 31.2399 44.7013 27.5383C43.8513 20.5353 47.9713 14.0924 53.8913 13.162C54.3613 13.082 54.8413 13.052 55.3113 13.052C57.3614 13.052 59.3914 13.7423 61.1314 15.0729C63.8114 17.1038 65.6014 20.3852 66.0514 24.0868C66.4514 27.3882 65.7414 30.5597 64.2514 33.0907C64.1214 34.0212 64.5814 35.0616 65.5114 35.7519C67.8714 32.5505 69.1115 28.2586 68.5714 23.7767V23.7567Z" fill="white"/>
<path d="M67.5317 22.0266C66.9617 19.8956 66.1217 18.2249 65.1817 16.9043C62.1017 12.5724 56.2916 11.1818 51.5816 13.6329C49.8816 14.5233 48.9116 15.4937 48.9116 15.4937L49.0616 15.5237C50.4416 14.3332 52.0916 13.5228 53.9116 13.2327C56.4116 12.8325 58.9616 13.5128 61.0917 15.1135C63.7517 17.1244 65.5317 20.3958 65.9817 24.0775C66.3717 27.2689 65.7117 30.3402 64.3217 32.8213C64.1117 33.6316 64.3817 34.5721 65.0517 35.2924C66.1617 33.7017 69.2717 28.5194 67.5417 22.0266H67.5317Z" fill="black"/>
<path d="M15.881 75.2794C11.441 75.2794 7.83093 72.6282 7.83093 69.3768C7.83093 66.1254 11.441 63.4743 15.881 63.4743C20.321 63.4743 23.9311 66.1254 23.9311 69.3768C23.9311 72.6282 20.321 75.2794 15.881 75.2794ZM15.881 64.1144C11.791 64.1144 8.46093 66.4755 8.46093 69.3768C8.46093 72.2779 11.791 74.6389 15.881 74.6389C19.971 74.6389 23.3011 72.2779 23.3011 69.3768C23.3011 66.4755 19.971 64.1144 15.881 64.1144Z" fill="black"/>
<path d="M39.0613 49.9585C34.6212 49.9585 31.0112 47.3073 31.0112 44.0559C31.0112 40.8045 34.6212 38.1534 39.0613 38.1534C43.5013 38.1534 47.1113 40.8045 47.1113 44.0559C47.1113 47.3073 43.5013 49.9585 39.0613 49.9585ZM39.0613 38.8035C34.9712 38.8035 31.6412 41.1645 31.6412 44.0659C31.6412 46.967 34.9712 49.328 39.0613 49.328C43.1513 49.328 46.4813 46.967 46.4813 44.0659C46.4813 41.1645 43.1513 38.8035 39.0613 38.8035Z" fill="black"/>
<path d="M42.7815 43.6757C43.2615 43.0655 43.2015 42.225 42.5515 41.5449C41.3315 40.2543 39.1314 40.1042 38.1514 41.0648L37.2814 41.9149C37.2114 41.9851 37.0714 41.9851 36.9714 41.9149L36.7814 41.8051C36.3714 41.5449 35.8114 41.5549 35.5314 41.8251L33.5414 43.7659C33.2714 44.0261 33.3814 44.4563 33.7914 44.7161L39.0314 47.9676C39.4414 48.2277 40.0014 48.2178 40.2814 47.9476L42.2715 46.0068C42.5415 45.7466 42.4315 45.3164 42.0215 45.0565L41.7215 44.8662L42.6515 43.8358L42.7915 43.6857L42.7815 43.6757ZM41.7815 45.6967L39.7914 47.6375C39.6914 47.7276 39.5014 47.7276 39.3514 47.6375L34.1114 44.3861C33.9714 44.2962 33.9314 44.1459 34.0214 44.056L36.0114 42.1152C36.1014 42.025 36.3014 42.025 36.4514 42.1152L41.6915 45.3666C41.8315 45.4565 41.8715 45.6065 41.7815 45.6967ZM41.3515 44.426C41.2815 44.5062 41.1615 44.5162 41.0815 44.4662L37.8314 42.4553C37.7314 42.3954 37.7014 42.2852 37.7714 42.215L38.5914 41.4148C39.2014 40.8246 40.4214 40.7045 41.3915 41.2148C42.5115 41.7951 42.8415 42.8855 42.1615 43.5456L41.3615 44.426H41.3515Z" fill="white"/>
<path d="M89.4135 39.2286C86.4741 40.9087 83.5446 42.5884 80.6049 44.2684L73.6007 28.1209L73.1545 33.5781C72.4754 41.3362 71.178 57.4937 71.178 57.4937L79.8955 52.8104C79.8955 52.8104 79.9158 52.7799 79.9258 52.7696C82.247 57.738 84.6696 62.6049 86.9908 67.4714C87.5585 61.1081 88.0755 54.7142 88.6126 48.3206C88.8761 45.2865 89.15 42.2524 89.4135 39.2183V39.2286Z" fill="#FFB16A"/>
<path d="M20.719 43.5674L20.3541 44.2229L46.7486 58.9261L47.1133 58.2707L20.719 43.5674Z" fill="black"/>
<path d="M10.088 54.9682L9.72118 55.6228L36.0193 70.3748L36.3864 69.7205L10.088 54.9682Z" fill="black"/>
<path d="M33.2912 59.5529C33.4512 59.1726 33.3012 58.6625 33.0012 58.3624C32.7012 58.0622 32.2812 57.9621 32.0112 57.622L31.9312 57.4919C32.3212 57.2717 32.7012 57.0418 33.0812 56.8215C33.1512 56.7916 33.2712 56.7616 33.4212 56.7816C33.5812 56.8015 33.7012 56.8817 33.7912 56.9516C33.9012 57.0318 34.0112 57.1116 34.1012 57.1918C34.2812 57.3419 34.5512 57.2118 34.5112 56.9819C34.4512 56.6715 33.9712 56.3916 33.6912 56.3014C32.7712 56.0113 32.3612 56.7217 31.6212 57.0318C31.5212 57.0318 31.2312 55.421 31.1712 55.261C31.0312 54.8907 30.7112 54.5407 30.3812 54.3104C29.7612 53.8802 28.8112 53.3002 28.1512 52.9499C26.9011 52.2898 26.0512 53.3102 24.9012 53.44C24.4412 53.4902 24.3112 53.3502 23.9212 53.1801C23.4512 52.9799 22.4611 52.5097 21.9911 52.5297C21.6711 52.5397 21.3111 52.7699 21.1211 53.0301C20.9411 53.28 20.8211 53.6203 20.6411 53.8802C20.5811 54.1504 20.5611 54.3606 20.6611 54.6308C20.7911 55.0008 21.0411 55.1908 21.3511 55.4111C20.9911 56.7416 22.4811 57.9321 23.6312 57.1818C23.7112 57.1319 23.8612 56.9516 23.9412 56.9819L28.3812 59.6829C28.0012 61.2035 29.9012 62.3141 30.9612 61.2035C31.1312 61.2737 31.2812 61.3735 31.4612 61.4138C31.8812 61.5136 32.3112 61.3037 32.5312 60.9636C32.7612 60.6133 33.1312 59.9431 33.2912 59.5728V59.5529ZM32.1112 60.6532C31.8012 61.1137 31.4012 60.8635 31.1612 60.7134C31.0412 60.6432 30.9312 60.5633 30.8512 60.5733C30.7912 60.5733 30.7612 60.6133 30.6912 60.7134C30.6512 60.7733 30.6112 60.8335 30.5412 60.8934C30.2312 61.1835 29.7712 61.2235 29.3712 60.9836C28.9712 60.7433 28.7712 60.3131 28.8512 59.8729C28.8712 59.7831 28.9012 59.7129 28.9212 59.643C28.9912 59.4627 29.0012 59.4427 28.8812 59.3429L23.8612 56.3114C23.7712 56.2815 23.7412 56.3114 23.6112 56.4715C23.5512 56.5516 23.4812 56.6315 23.3912 56.7017C23.0811 56.9316 22.6611 56.9316 22.3211 56.7217C22.2911 56.7017 22.2611 56.6814 22.2311 56.6615C21.8711 56.3916 21.7111 55.9514 21.8411 55.5312C21.8611 55.481 21.8811 55.421 21.9011 55.3711C21.9711 55.1808 21.9711 55.1609 21.8811 55.091C21.8311 55.0507 21.7611 55.0108 21.6811 54.9709C21.4011 54.8008 20.9211 54.5307 21.1311 54.0303C21.2111 53.8403 21.4211 53.4802 21.5411 53.3102C21.7111 53.07 21.9611 52.9699 22.2411 53.0401C22.6211 53.1299 22.9811 53.29 23.3311 53.4503C23.9112 53.7102 24.4612 53.9704 25.1112 53.8702C25.3612 53.8303 25.7312 53.6802 26.0812 53.5402C26.6212 53.3202 27.1311 53.1099 27.4712 53.1602C27.5912 53.1801 27.7312 53.2201 27.8812 53.3002C28.2012 53.4603 28.6212 53.7002 29.0412 53.9504C29.4612 54.2006 29.8712 54.4705 30.1612 54.6807C30.7512 55.101 30.8312 55.5911 30.9112 56.1114C30.9312 56.2715 30.9612 56.4415 31.0112 56.6215C31.2112 57.4018 31.5212 57.9222 31.9812 58.2422C32.0412 58.2822 32.1112 58.3224 32.1912 58.3723C32.5012 58.5424 33.0112 58.8325 32.8012 59.3828C32.6912 59.6829 32.3012 60.3733 32.1112 60.6532Z" fill="white"/>
</svg>
