<svg width="100" height="100" viewBox="0 0 100 100" fill="none" xmlns="http://www.w3.org/2000/svg">
<g clip-path="url(#clip0_15980_5531)">
<rect width="100" height="100" fill="#FFB16A"/>
<path d="M84.4958 81.3637H-0.0576172V85.6278H84.4958V81.3637Z" fill="black"/>
<path d="M73.0703 60.3844H11.3767L0.206102 84.5076C-0.635521 86.3192 0.682172 88.4043 2.67146 88.4043H81.7756C83.7648 88.4043 85.0825 86.3278 84.2409 84.5076L73.0703 60.3844Z" fill="black"/>
<path d="M73.0703 56.1719H11.3767L0.206102 80.2951C-0.635521 82.1067 0.682172 84.1918 2.67146 84.1918H81.7756C83.7648 84.1918 85.0825 82.1152 84.2409 80.2951L73.0703 56.1719Z" fill="white"/>
<path d="M14.233 12.4043H70.2052C71.7099 12.4043 72.9256 13.6348 72.9256 15.1388V54.5836H11.5126V15.1388C11.5126 13.6263 12.7368 12.4043 14.233 12.4043Z" fill="white"/>
<path d="M42.2192 17.9833C42.8202 17.9833 43.3074 17.4935 43.3074 16.8894C43.3074 16.2854 42.8202 15.7957 42.2192 15.7957C41.6183 15.7957 41.1311 16.2854 41.1311 16.8894C41.1311 17.4935 41.6183 17.9833 42.2192 17.9833Z" fill="#FFB065"/>
<path d="M75.8925 71.1875L71.0978 60.993C70.8003 60.3521 70.1627 59.9505 69.4571 59.9505H14.9896C14.284 59.9505 13.6464 60.3607 13.3489 60.993L8.55419 71.1875C8.12913 72.0933 8.78372 73.1443 9.78687 73.1443H25.1316C25.6842 73.1443 26.1178 73.64 26.0328 74.1954L25.8542 75.3319C25.7267 76.1608 26.3643 76.9128 27.1974 76.9128H57.2408C58.0739 76.9128 58.7115 76.1608 58.584 75.3319L58.4055 74.1954C58.3205 73.64 58.7455 73.1443 59.3066 73.1443H74.6514C75.6545 73.1443 76.3091 72.1018 75.8841 71.1875H75.8925Z" fill="black"/>
<path d="M66.3456 24.5546H53.9083C52.9692 24.5546 52.208 25.3197 52.208 26.2636V43.4566C52.208 44.4005 52.9692 45.1656 53.9083 45.1656H66.3456C67.2846 45.1656 68.0458 44.4005 68.0458 43.4566V26.2636C68.0458 25.3197 67.2846 24.5546 66.3456 24.5546Z" fill="black"/>
<path d="M99.9086 72.6241C99.7301 74.6493 98.4209 77.3496 93.5242 77.3496C90.5912 77.3496 87.9558 75.9482 86.6977 73.3163L83.1441 65.8649C82.9911 65.5487 82.9486 65.1812 83.0081 64.8137L83.2291 63.6089C83.3397 62.9766 83.7902 62.4639 84.3598 62.1904C86.0261 61.4042 88.7039 60.8573 91.7219 61.2931C93.2946 61.5153 94.7228 62.2758 95.777 63.4465C97.5367 65.3863 100.215 68.9924 99.9001 72.6241H99.9086Z" fill="white"/>
<path d="M99.9424 72.0076C99.1518 75.195 95.8958 75.8701 92.9459 75.6735C92.0022 75.6137 90.9311 75.306 90.2595 74.9642C89.0438 74.3575 88.1002 73.3321 87.4711 72.1273L83.671 64.8296C83.1439 63.77 83.5265 62.8813 83.5265 62.8813C83.5265 62.8813 83.2969 63.1975 83.2374 63.5991L83.0164 64.8039C82.9484 65.1714 82.9994 65.5389 83.1524 65.8551L86.7059 73.3065C87.9641 75.9384 90.5995 77.3398 93.5324 77.3398C98.4207 77.3398 99.9424 74.6993 99.9424 71.9991V72.0076Z" fill="black"/>
<path d="M95.6239 64.617C95.6239 64.617 97.5707 66.7875 98.4973 69.7613C99.0669 71.607 98.0298 73.598 96.1765 74.1107C95.5134 74.2987 94.6973 74.4269 93.6856 74.4611C93.6856 74.4611 99.7215 71.7608 95.6239 64.617Z" fill="#FFB065"/>
<path d="M65.0025 38.3566C64.6964 37.2372 64.2119 36.8184 63.2767 36.5108L61.908 36.0238C61.789 36.1177 61.67 36.2202 61.5425 36.2972C61.0749 36.5791 60.5903 36.7244 60.1143 36.7244C59.6382 36.7244 59.1536 36.5791 58.6861 36.2972C58.5585 36.2202 58.4395 36.1177 58.312 36.0238L56.9433 36.5108C56.0167 36.8184 55.5236 37.2372 55.2175 38.3566L54.8435 39.8777H65.368L64.994 38.3566H65.0025ZM59.3407 35.1949C59.5702 35.3316 59.8337 35.4426 60.1228 35.4426C60.4118 35.4426 60.6753 35.3402 60.9049 35.1949C61.4235 34.8873 61.7975 34.3745 62.01 33.802C62.2566 33.1098 62.2821 32.4946 62.2821 32.4946C62.3501 30.9137 61.3129 30.119 60.1313 30.119C58.9496 30.119 57.9124 30.9137 57.9804 32.4946C57.9804 32.4946 57.9974 33.1098 58.2525 33.802C58.4565 34.3745 58.8306 34.8787 59.3577 35.1949H59.3407Z" fill="white"/>
<path d="M48.2294 24.5546H35.7921C34.853 24.5546 34.0918 25.3197 34.0918 26.2636V43.4566C34.0918 44.4005 34.853 45.1656 35.7921 45.1656H48.2294C49.1684 45.1656 49.9296 44.4005 49.9296 43.4566V26.2636C49.9296 25.3197 49.1684 24.5546 48.2294 24.5546Z" fill="black"/>
<path d="M46.8946 38.3566C46.5885 37.2372 46.104 36.8184 45.1688 36.5108L43.8001 36.0238C43.6811 36.1177 43.5621 36.2202 43.4346 36.2972C42.967 36.5791 42.4824 36.7244 42.0064 36.7244C41.5303 36.7244 41.0457 36.5791 40.5782 36.2972C40.4506 36.2202 40.3316 36.1177 40.2041 36.0238L38.8354 36.5108C37.9088 36.8184 37.4157 37.2372 37.1096 38.3566L36.7356 39.8777H47.2601L46.8861 38.3566H46.8946ZM41.2243 35.1949C41.4538 35.3316 41.7173 35.4426 42.0064 35.4426C42.2954 35.4426 42.5589 35.3402 42.7885 35.1949C43.3071 34.8873 43.6811 34.3745 43.8936 33.802C44.1402 33.1098 44.1657 32.4946 44.1657 32.4946C44.2337 30.9137 43.1965 30.119 42.0149 30.119C40.8332 30.119 39.796 30.9137 39.864 32.4946C39.864 32.4946 39.8811 33.1098 40.1361 33.802C40.3401 34.3745 40.7142 34.8787 41.2413 35.1949H41.2243Z" fill="white"/>
<path d="M30.1132 24.5546H17.6759C16.7368 24.5546 15.9756 25.3197 15.9756 26.2636V43.4566C15.9756 44.4005 16.7368 45.1656 17.6759 45.1656H30.1132C31.0522 45.1656 31.8134 44.4005 31.8134 43.4566V26.2636C31.8134 25.3197 31.0522 24.5546 30.1132 24.5546Z" fill="black"/>
<path d="M28.7784 38.3566C28.4723 37.2372 27.9878 36.8184 27.0526 36.5108L25.6839 36.0238C25.5649 36.1177 25.4459 36.2202 25.3184 36.2972C24.8508 36.5791 24.3662 36.7244 23.8902 36.7244C23.4141 36.7244 22.9295 36.5791 22.462 36.2972C22.3344 36.2202 22.2154 36.1177 22.0879 36.0238L20.7192 36.5108C19.7926 36.8184 19.2995 37.2372 18.9934 38.3566L18.6194 39.8777H29.1439L28.7699 38.3566H28.7784ZM23.108 35.1949C23.3376 35.3316 23.6011 35.4426 23.8902 35.4426C24.1792 35.4426 24.4427 35.3402 24.6723 35.1949C25.1908 34.8873 25.5649 34.3745 25.7774 33.802C26.024 33.1098 26.0495 32.4946 26.0495 32.4946C26.1175 30.9137 25.0803 30.119 23.8987 30.119C22.717 30.119 21.6798 30.9137 21.7478 32.4946C21.7478 32.4946 21.7648 33.1098 22.0199 33.802C22.2239 34.3745 22.598 34.8787 23.125 35.1949H23.108Z" fill="white"/>
</g>
<defs>
<clipPath id="clip0_15980_5531">
<rect width="100" height="100" fill="white"/>
</clipPath>
</defs>
</svg>
