<svg width="100" height="100" viewBox="0 0 100 100" fill="none" xmlns="http://www.w3.org/2000/svg">
<rect width="100" height="100" fill="#FFB065"/>
<path d="M89.9054 27.8515L45.0219 2L0 27.7564L20.4841 39.5629C16.7071 48.0331 15.8514 59.0012 15.8514 59.1654C15.8514 64.8699 28.6519 69.5026 44.4514 69.5026C60.251 69.5026 73.0514 64.8785 73.0514 59.1654C73.0514 59.0012 71.6772 48.3961 68.557 40.1506L89.9054 27.8515Z" fill="white"/>
<path d="M65.0393 16.6155L84.8665 27.7392L72.455 34.7314C72.455 34.7314 78.4447 26.1748 65.0393 16.6155Z" fill="#FFB065"/>
<path d="M0 27.7564V30.0467H0.164219L12.0139 36.892C12.0312 36.9611 13.6042 43.2533 10.2853 49.0528C9.99141 49.5714 9.65433 50.1159 9.30861 50.6864C6.6379 55.0511 2.98187 61.0322 6.74161 69.3727C8.37516 72.9855 11.1842 76.0452 14.8748 78.2579C14.7883 78.5604 14.7278 78.8715 14.7019 79.1913C14.5118 81.3953 15.9292 82.7695 15.9292 82.7695C20.8731 88.0332 27.4764 90.8163 27.4764 90.8163C36.3356 85.665 35.7738 76.7539 35.7738 76.7539C27.0356 76.9009 20.8817 75.1204 20.8817 75.1204C20.8817 75.1204 20.1384 74.9389 19.7581 74.913C18.4357 74.8092 17.1998 75.2673 16.2749 76.0798C13.0079 74.1351 10.5359 71.4644 9.10982 68.3183C5.91188 61.231 9.02339 56.1402 11.5212 52.052C11.8843 51.4556 12.23 50.8938 12.5411 50.3493C15.0995 45.8635 15.16 41.2222 14.892 38.5428L19.7495 41.3432C16.5947 49.4936 15.8601 59.0183 15.8601 59.1739C15.8601 61.594 18.1764 63.8239 22.0399 65.5871C22.3597 59.606 24.1056 55.5956 26.0589 52.9422C26.7244 53.1064 37.9777 56.0451 43.518 64.0659C43.518 64.0659 48.0383 55.2154 60.5449 50.2197C60.5449 50.2197 67.8656 47.3242 71.1672 48.9318C70.64 46.676 69.9831 44.2646 69.2139 41.9655L89.9141 30.0467V27.8513L45.0305 53.7028L0 27.7564Z" fill="black"/>
<path d="M89.7499 27.7562L89.9054 27.8515V27.7562H89.7499Z" fill="black"/>
<path d="M60.8252 97.5003C64.6608 95.2464 65.7823 90.0362 63.33 85.8631C60.8778 81.69 55.7804 80.1343 51.9448 82.3882C48.1092 84.6422 46.9877 89.8523 49.44 94.0254C51.8923 98.1985 56.9896 99.7543 60.8252 97.5003Z" fill="black"/>
<path d="M98.8676 48.9834C96.5685 44.731 91.5123 42.9764 87.5884 45.0681C86.7327 45.5262 86.0067 46.1312 85.4103 46.8399L51.3133 82.8298C51.5985 82.6223 51.8924 82.4235 52.2122 82.2507C56.1361 80.159 61.1923 81.9136 63.4914 86.166C65.341 89.58 64.8484 93.5645 62.5666 96.0882L97.7354 59.1217C100.199 56.6152 100.769 52.5011 98.8676 48.992V48.9834Z" fill="white"/>
<path d="M56.4655 85.3014L53.8553 87.9808C53.3367 88.5166 52.8959 89.1389 52.6193 89.8304C52.3427 90.5218 52.1439 91.4553 52.3514 92.4752C52.7922 94.6273 54.4516 96.3645 57.373 96.6411C59.214 96.814 61.0982 96.2522 62.3169 94.8606C62.6021 94.5409 62.8527 94.1606 63.0515 93.7198C63.0515 93.7198 59.0843 94.4026 56.9668 91.317C54.9789 88.4129 56.4568 85.2927 56.4568 85.2927L56.4655 85.3014Z" fill="white"/>
<path d="M89.5591 45.8196C88.3491 46.1221 87.2773 46.8222 86.4217 47.7297L79.3257 55.2751C89.006 47.2111 95.3241 47.0901 95.3241 47.0901C93.0941 45.4739 91.0457 45.4479 89.5591 45.8196Z" fill="#FFB065"/>
<path d="M55.5057 80.1588C58.2715 79.7958 60.5014 81.1182 60.5014 81.1182C60.5014 81.1182 59.421 79.5538 60.7434 78.4129C62.0658 77.272 63.7512 77.6869 63.7512 77.6869C62.9733 72.4492 65.4971 69.8044 65.4971 69.8044L55.5143 80.1502L55.5057 80.1588Z" fill="#FFB065"/>
<path d="M85.3934 63.1754C83.0943 58.923 78.0381 57.1684 74.1142 59.2601C73.2585 59.7182 72.5325 60.3232 71.9361 61.0319L65.0908 68.2575C65.5488 67.8254 66.0588 67.4451 66.6379 67.1426C70.5878 65.0423 75.6699 66.8055 77.9776 71.0838C79.6284 74.1435 79.421 77.6439 77.7356 80.1677L84.2525 73.3138C86.7158 70.8073 87.2862 66.6931 85.3847 63.184L85.3934 63.1754Z" fill="black"/>
</svg>
