<svg width="100" height="100" viewBox="0 0 100 100" fill="none" xmlns="http://www.w3.org/2000/svg">
<g clip-path="url(#clip0_15980_5431)">
<rect width="100" height="100" fill="#FFB16A"/>
<path d="M84.4015 81.3637H-0.0585938V85.6278H84.4015V81.3637Z" fill="black"/>
<path d="M72.9886 60.3844H11.3631L0.204832 84.5076C-0.635862 86.3192 0.680397 88.4043 2.66749 88.4043H81.6842C83.6713 88.4043 84.9876 86.3278 84.1469 84.5076L72.9886 60.3844Z" fill="black"/>
<path d="M72.9886 56.1719H11.3631L0.204832 80.2951C-0.635862 82.1067 0.680397 84.1918 2.66749 84.1918H81.6842C83.6713 84.1918 84.9876 82.1152 84.1469 80.2951L72.9886 56.1719Z" fill="white"/>
<path d="M70.1266 12.4043C71.6297 12.4043 72.8441 13.6348 72.8441 15.1388V54.5836H11.4904V15.1388C11.4904 13.6263 12.7132 12.4043 14.2077 12.4043H70.1266Z" fill="white"/>
<path d="M42.1716 17.9833C42.7719 17.9833 43.2585 17.4935 43.2585 16.8894C43.2585 16.2854 42.7719 15.7957 42.1716 15.7957C41.5713 15.7957 41.0846 16.2854 41.0846 16.8894C41.0846 17.4935 41.5713 17.9833 42.1716 17.9833Z" fill="#FFB065"/>
<path d="M75.8077 71.1875L71.0183 60.993C70.7211 60.3521 70.0842 59.9505 69.3794 59.9505H14.9721C14.2672 59.9505 13.6303 60.3607 13.3331 60.993L8.54371 71.1875C8.11911 72.0933 8.773 73.1443 9.77504 73.1443H25.1028C25.6548 73.1443 26.0879 73.64 26.003 74.1954L25.8247 75.3319C25.6973 76.1608 26.3341 76.9128 27.1663 76.9128H57.1766C58.0088 76.9128 58.6457 76.1608 58.5183 75.3319L58.34 74.1954C58.2551 73.64 58.6797 73.1443 59.2401 73.1443H74.5679C75.57 73.1443 76.2238 72.1018 75.7992 71.1875H75.8077Z" fill="black"/>
<path d="M99.9414 61.8818L85.5392 51.5421L87.8405 69.1965L91.8741 64.2061L98.0137 74.5032L99.814 73.4179L93.6744 63.1209L99.9414 61.8818Z" fill="white"/>
<path d="M30.5461 35.4764C31.166 35.8524 31.8963 36.1429 32.6606 36.1429C33.4248 36.1429 34.1551 35.8524 34.775 35.4764C36.1847 34.6304 37.2037 33.246 37.7726 31.6908C38.452 29.8194 38.5114 28.136 38.5114 28.136C38.6982 23.8378 35.879 21.6673 32.6606 21.6673C29.4422 21.6673 26.6228 23.8293 26.8097 28.136C26.8097 28.136 26.8691 29.8108 27.5485 31.6908C28.1174 33.246 29.128 34.6304 30.5461 35.4764ZM45.9588 44.0814C45.1351 41.0307 43.8019 39.8858 41.2798 39.0483L37.2461 37.6212C37.2461 37.6212 36.6432 37.3991 35.7091 37.2025C34.6901 37.8007 33.6711 38.1083 32.6691 38.1083C31.667 38.1083 30.6395 37.8007 29.629 37.2025C28.6949 37.4076 28.0919 37.6212 28.0919 37.6212L24.0583 39.0483C21.5362 39.8858 20.203 41.0307 19.3793 44.0814L18.3603 48.2173H46.9863L45.9673 44.0814H45.9588Z" fill="black"/>
<path d="M65.388 17.9086H50.9009C49.9629 17.9086 49.2025 18.6738 49.2025 19.6177V36.8107C49.2025 37.7546 49.9629 38.5198 50.9009 38.5198H65.388C66.326 38.5198 67.0863 37.7546 67.0863 36.8107V19.6177C67.0863 18.6738 66.326 17.9086 65.388 17.9086Z" fill="black"/>
<path d="M64.038 32.0399C63.6898 30.7495 63.1294 30.271 62.0594 29.9121L60.361 29.3054C60.361 29.3054 60.327 29.2969 60.2761 29.2798C60.1742 29.3567 60.0808 29.4336 59.9704 29.502C59.4609 29.8096 58.9428 29.9634 58.4248 29.9634C57.9068 29.9634 57.3888 29.8096 56.8793 29.502C56.7689 29.4336 56.6755 29.3567 56.5736 29.2798C56.5227 29.2969 56.4887 29.3054 56.4887 29.3054L54.7904 29.9121C53.7289 30.2625 53.1599 30.7495 52.8117 32.0399L52.3786 33.7831H64.471L64.038 32.0399ZM57.5247 28.4081C57.788 28.562 58.0937 28.6902 58.4163 28.6902C58.739 28.6902 59.0448 28.5705 59.308 28.4081C59.9025 28.0492 60.3355 27.4682 60.5733 26.8102C60.862 26.0155 60.8875 25.3062 60.8875 25.3062C60.9639 23.4861 59.775 22.5718 58.4163 22.5718C57.0576 22.5718 55.8688 23.4861 55.9452 25.3062C55.9452 25.3062 55.9707 26.0155 56.2594 26.8102C56.4972 27.4682 56.9303 28.0492 57.5247 28.4081Z" fill="white"/>
</g>
<defs>
<clipPath id="clip0_15980_5431">
<rect width="100" height="100" fill="white"/>
</clipPath>
</defs>
</svg>
