<svg width="100" height="100" viewBox="0 0 100 100" fill="none" xmlns="http://www.w3.org/2000/svg">
<g clip-path="url(#clip0_15980_5445)">
<rect width="100" height="100" fill="#FFB16A"/>
<path d="M43.6297 80.9179L8.20111 60.3561C7.68537 60.0317 7.15216 59.8563 6.6539 59.8563C6.05949 59.8563 5.54374 60.0931 5.13289 60.5753C4.45981 61.3557 4.1801 62.6359 4.38115 64.0037C4.63465 65.7487 5.6399 67.3883 6.94236 68.1863L43.0003 89.1251C43.8308 89.6074 44.8797 89.4583 45.5353 88.7569L89.3119 42.6001L88.9098 35.4802L46.156 80.5497C45.5004 81.2424 44.4514 81.4002 43.621 80.9179H43.6297Z" fill="black"/>
<path d="M45.8413 91.3604C45.1332 92.1057 44.0143 92.2635 43.1315 91.7549L4.59093 69.378C3.20106 68.5275 2.12588 66.7738 1.85489 64.9062C1.6451 63.4418 1.94232 62.074 2.65911 61.241C3.09617 60.7324 3.63812 60.4781 4.28498 60.4781C4.8182 60.4781 5.3864 60.6623 5.93711 61.013L43.8046 82.9865C44.6874 83.5039 45.8063 83.3373 46.5143 82.592L94.3906 32.1212C95.1336 31.3408 94.95 30.0694 94.0235 29.5345L56.6368 7.81528C54.4253 6.52633 51.628 6.92968 49.8623 8.78857C38.8657 20.3804 1.40037 59.8994 1.33044 59.9696L1.29546 60.0134C0.246504 61.2147 -0.277986 63.0823 0.0279601 65.1868C0.395096 67.6945 1.82867 69.8691 3.62938 70.9739L43.4636 94.1049C44.3465 94.6222 45.4654 94.4556 46.1734 93.7103L94.4256 42.8362C95.1074 42.1172 95.0025 40.9685 94.2071 40.381L45.8413 91.3779V91.3604Z" fill="white"/>
<path d="M92.389 51.7469L84.5044 33.8156L75.8155 14.1481C75.5358 13.5168 74.8539 13.0696 74.2071 13.0696C74.1197 13.0696 74.0322 13.0696 73.9448 13.0959L43.7348 19.4969L20.1507 18.5499V25.0998C20.1507 25.4769 20.2294 25.6873 20.3081 25.8715L24.4952 35.3062L18.2713 42.0842C18.8308 41.5932 19.3203 41.5581 19.7399 41.637C20.5178 41.7948 20.8413 42.4788 20.8413 42.4788L34.504 74.8779C34.8274 75.6495 35.6491 76.0792 36.462 75.9126L95.7982 63.1721C96.5062 63.0231 96.8296 62.5145 96.7947 61.664V55.5436L92.389 51.7294V51.7469Z" fill="black"/>
<path d="M89.1719 37.9191L96.7069 54.9122C97.0216 55.6312 96.7069 56.3327 95.9901 56.4817L43.2275 67.9069C43.1401 67.9244 43.0439 67.9332 42.9565 67.9332C42.3009 67.9332 41.6191 67.4948 41.3393 66.8635L34.3288 50.9576L89.1806 37.9191H89.1719Z" fill="black"/>
<path d="M89.172 37.9178L75.8065 7.48281C75.5268 6.85148 74.845 6.4043 74.1981 6.4043C74.1107 6.4043 74.0233 6.4043 73.9359 6.4306L21.0421 17.6366C20.3166 17.7769 19.9844 18.4871 20.3079 19.2149L34.1891 51.009C34.1891 51.009 38.6297 60.1281 47.8955 62.3904C49.2329 62.7148 50.6403 62.671 51.9864 62.3816L99.076 52.1664C100.003 51.9648 100.256 50.7723 99.4868 50.2199C96.6983 48.2207 91.8731 44.082 89.172 37.9178Z" fill="white"/>
<path d="M5.6572 12.8675C5.6572 12.8675 6.87225 16.9098 11.8024 18.0234C11.8024 18.0234 8.06982 18.6722 7.99115 23.1704C7.99115 23.1704 6.67995 19.2685 1.95089 18.0234C1.95089 18.0234 5.90196 17.5499 5.6572 12.8675Z" fill="white"/>
<path d="M78.0881 64.9229C78.0881 64.9229 80.3958 72.604 89.7665 74.726C89.7665 74.726 82.6686 75.9535 82.5287 84.5027C82.5287 84.5027 80.0287 77.0934 71.0513 74.7172C71.0513 74.7172 78.5514 73.8228 78.0881 64.9229Z" fill="white"/>
</g>
<defs>
<clipPath id="clip0_15980_5445">
<rect width="100" height="100" fill="white"/>
</clipPath>
</defs>
</svg>
