<svg width="100" height="100" viewBox="0 0 100 100" fill="none" xmlns="http://www.w3.org/2000/svg">
<g clip-path="url(#clip0_15980_5400)">
<rect width="100" height="100" fill="#FFB16A"/>
<path d="M96.4442 63.1618L50.6054 40.4689L48.9669 46.6763L91.1074 72.837C92.0047 73.3928 93.0033 73.6511 93.9786 73.6511C95.9136 73.6511 97.8018 72.6256 98.8083 70.8017C100.33 68.0463 99.253 64.5786 96.4442 63.1696V63.1618Z" fill="white"/>
<path d="M48.9668 46.6776L62.6053 55.1473C62.6599 53.8635 62.738 52.1649 62.8316 50.5993C63.011 47.6404 61.63 46.114 61.1541 45.6991L50.6053 40.4779L48.9668 46.6854V46.6776Z" fill="black"/>
<path d="M59.1879 36.7049C55.9889 35.6716 51.9864 33.8478 47.9136 31.5855C43.8407 29.3233 40.1814 26.881 37.6066 24.7127C36.8108 24.0395 36.1632 23.4289 35.6326 22.8653L24.6938 42.6854C24.6626 42.7323 24.6626 42.795 24.6469 42.8498C25.6456 44.5093 29.5468 48.0631 36.6392 52.0005C43.7237 55.9379 48.7952 57.3704 50.7302 57.3469C50.7692 57.3078 50.8238 57.2686 50.8472 57.2217L61.7861 37.4016C61.0293 37.2529 60.171 37.0259 59.1801 36.7049H59.1879Z" fill="white"/>
<path d="M38.2307 63.2398C23.2034 63.2398 11.0161 67.0128 11.0161 71.6626C11.0161 76.3123 23.2034 80.0853 38.2307 80.0853C53.258 80.0853 65.4453 76.3123 65.4453 71.6626C65.4453 67.0128 53.258 63.2398 38.2307 63.2398Z" fill="white"/>
<path d="M11.0161 71.6564C11.0161 72.0087 11.0941 72.3609 11.2346 72.6975C15.5727 73.4647 21.5649 73.723 27.9862 73.2768C39.994 72.447 48.9355 69.4803 47.968 66.6466C47.4218 65.0497 43.8327 63.8364 38.6598 63.2337C38.5193 63.2337 38.3789 63.2337 38.2385 63.2337C23.2112 63.2337 11.0239 67.0067 11.0239 71.6564H11.0161Z" fill="black"/>
<path d="M50.3869 62.0358C50.0046 62.2315 49.5208 62.3333 48.9278 62.3333C45.2919 62.3333 38.1918 58.983 34.158 56.7442C29.3986 54.0984 21.089 48.6502 21.0578 45.6209C20.5117 45.5817 20.1138 45.9575 20.1138 45.9575C18.9668 47.1003 17.0943 49.386 16.9772 52.1962C16.8212 54.0827 22.6027 58.8421 30.4519 63.2022C38.301 67.5623 45.3933 69.9576 46.8992 68.8304C49.2165 67.2413 50.1528 64.4311 50.5117 62.8577C50.5117 62.8577 50.6599 62.3098 50.3791 62.0358H50.3869Z" fill="black"/>
<path d="M68.543 79.1849C68.2933 78.0811 67.5832 76.6799 66.3036 76.3434L65.8823 73.9637C65.1177 75.13 63.7757 76.1711 62.0124 77.0635L63.1593 82.3003C62.6132 82.6056 62.0124 82.8952 61.357 83.1771L60.2023 77.8698C59.4298 78.1751 58.6105 78.4647 57.7367 78.7308L58.9305 84.0851C57.5651 84.5313 56.0436 84.9383 54.4051 85.2906L53.1957 79.8659C48.6235 80.7739 43.3726 81.2436 38.2464 81.2436C26.2854 81.2436 13.6768 78.6995 10.5871 73.948L10.1658 76.3355C8.89401 76.6643 8.18396 78.0733 7.93429 79.177C7.91088 79.2866 7.89532 79.3884 7.87971 79.498H7.85628L7.53641 81.2905C7.5052 81.4706 7.48179 81.6506 7.48179 81.8307C7.48179 87.091 21.2529 91.3493 38.2464 91.3493C55.2399 91.3493 69.0111 87.091 69.0111 81.8307C69.0111 81.5958 68.5898 79.2866 68.5663 79.177L68.543 79.1849Z" fill="black"/>
<path d="M7.10729 47.578C10.79 54.9127 4.22046 57.2454 4.22046 57.2454C11.5937 57.9186 18.3817 59.9303 18.3817 59.9303C11.6093 55.0458 7.10729 47.578 7.10729 47.578ZM28.9851 73.1672C28.9851 73.1672 12.8498 73.6447 19.4194 63.312C19.4194 63.312 11.1801 64.9949 -0.5 63.8521C-0.5 63.8521 8.14502 65.5977 9.86154 70.4823C11.8589 76.1574 7.18534 81.1673 7.18534 81.1673C7.18534 81.1673 15.0579 76.6976 19.7003 81.316C19.7003 81.316 22.6574 86.1066 20.8863 91.5C20.8863 91.5 25.9032 77.2847 28.9851 73.1672Z" fill="white"/>
<path d="M57.5807 14.0812C51.4012 10.6448 45.7055 8.5 43.1619 8.5C42.4753 8.5 42.0228 8.65656 41.8433 8.9775C40.9929 10.5196 46.6574 15.3024 54.5065 19.6625C60.686 23.0989 66.3817 25.2437 68.9253 25.2437C69.6119 25.2437 70.0644 25.0872 70.2439 24.7662C71.0943 23.2242 65.4298 18.4413 57.5807 14.0812Z" fill="white"/>
<path d="M50.0282 27.7628C48.8657 27.121 40.603 22.4477 37.3026 18.5416C36.8735 18.7452 36.499 19.0661 36.2493 19.5201C35.8358 20.2716 35.8826 21.1483 36.2883 21.8372C36.7642 22.3695 37.4274 23.027 38.3637 23.8176C40.8839 25.9389 44.473 28.3343 48.4834 30.5652C52.486 32.7883 56.4183 34.573 59.5471 35.5907C60.9905 36.0603 62.0438 36.2873 62.7928 36.3813C63.4795 36.2795 64.1193 35.8725 64.4782 35.2149C64.7357 34.7453 64.8059 34.2208 64.7279 33.7276C61.4665 33.2736 55.9112 31.0349 50.0204 27.7707L50.0282 27.7628Z" fill="black"/>
<path d="M68.9177 26.4191C66.0776 26.4191 60.1946 24.1725 53.9294 20.6892C50.075 18.5443 46.603 16.2273 44.153 14.1607C41.6095 12.0159 40.4703 10.4347 40.5796 9.16659C39.5184 10.1529 37.2323 12.6108 37.1075 15.7263C36.9515 17.6128 42.733 22.3721 50.5822 26.7323C57.1205 30.3644 63.1361 32.6344 65.8357 32.6344C66.3741 32.6344 66.7799 32.5405 67.0295 32.3526C69.6199 30.5835 70.4781 27.2959 70.7434 25.8868C70.3065 26.2234 69.6979 26.4035 68.9099 26.4035L68.9177 26.4191Z" fill="black"/>
<path d="M34.3064 42.3619L42.1868 28.0917C40.439 26.9019 39.1048 25.9078 38.1295 25.125L26.9488 45.3678C28.8916 47.1134 31.9579 49.3521 36.2179 51.7553C33.4091 49.5556 32.5275 45.5869 34.3064 42.3619Z" fill="#FFB065"/>
<path d="M22.2674 45.6126C22.283 47.3504 27.8773 51.8749 34.7433 55.687C39.4638 58.3094 45.9085 61.1274 48.928 61.1274C49.4117 61.1274 49.6848 61.0413 49.8331 60.963C49.8331 60.963 50.4104 60.6812 50.7147 60.1411C51.019 59.601 51.0659 59.0217 50.9332 58.4816C50.8084 58.4894 50.6835 58.5051 50.5509 58.5051C46.9852 58.5051 40.0333 55.2252 36.0775 53.0256C32.0359 50.779 25.3805 46.4737 23.6562 43.4287C23.1724 43.6243 22.7589 43.9688 22.478 44.4541C22.1971 44.9394 22.2596 45.6126 22.2596 45.6126H22.2674Z" fill="black"/>
</g>
<defs>
<clipPath id="clip0_15980_5400">
<rect width="100" height="100" fill="white"/>
</clipPath>
</defs>
</svg>
