<svg width="100" height="100" viewBox="0 0 100 100" fill="none" xmlns="http://www.w3.org/2000/svg">
<g clip-path="url(#clip0_13742_1541)">
<path d="M98.9259 35.6161C98.8313 34.9432 98.3912 34.3502 97.6891 33.9428H97.6855L69.9597 17.7554C69.3668 17.4135 68.6684 17.2498 67.9663 17.2498C66.8605 17.2498 65.7437 17.6572 65.0089 18.4247L55.1147 28.7738V28.781C43.5581 41.0303 31.8382 53.1201 20.201 65.2918C19.6662 65.852 19.4225 66.5177 19.5171 67.1688C19.6153 67.8454 20.0555 68.4384 20.7575 68.8458L48.4869 85.0332C50.0147 85.9171 52.2337 85.6152 53.4341 84.3602L98.2384 37.4931C98.7731 36.9366 99.0169 36.2673 98.9223 35.6161H98.9259Z" fill="#4F4F4F"/>
<path d="M100.125 41.8578L99.6412 37.4089C99.4811 37.7036 99.281 37.9873 99.03 38.2492L54.2257 85.1163C53.2909 86.0948 51.8686 86.6187 50.4608 86.6187C49.5732 86.6187 48.6929 86.4113 47.9436 85.9784L20.2142 69.791C19.312 69.2709 18.7155 68.507 18.5009 67.6194L19.0974 73.1049C19.1884 73.9416 19.7049 74.7346 20.6143 75.2584L48.8639 91.7441C50.6027 92.7481 53.1163 92.4061 54.4804 90.9765L99.2847 44.1094C99.9358 43.4292 100.209 42.6253 100.125 41.8614V41.8578Z" fill="black"/>
<path d="M36.2892 82.0497C36.4492 81.595 36.1546 80.9766 35.6308 80.6711L31.6403 78.3357C31.1202 78.0302 30.5673 78.1538 30.4108 78.6085C30.2508 79.0632 30.5454 79.6816 31.0692 79.9872L35.0597 82.3225C35.5799 82.6281 36.1328 82.5044 36.2892 82.0497Z" fill="#4F4F4F"/>
<path d="M42.2863 69.9256C44.1087 70.9769 44.4216 73.043 42.992 74.5381C41.5624 76.0332 38.9288 76.3933 37.11 75.342C35.2875 74.2907 34.9674 72.2246 36.397 70.7295C37.8266 69.2344 40.4602 68.8743 42.2863 69.9256Z" fill="black"/>
<path d="M76.5272 26.9731C77.1565 27.3369 77.2693 28.0535 76.7746 28.57C76.2798 29.0865 75.3632 29.2139 74.7339 28.8501C74.1046 28.4863 73.9954 27.7697 74.4902 27.2532C74.9849 26.7366 75.8943 26.6093 76.5272 26.9767V26.9731Z" fill="black"/>
<path d="M85.3693 32.0723C85.9986 32.436 86.1113 33.1526 85.6166 33.6692C85.1219 34.1857 84.2052 34.313 83.5759 33.9493L78.5015 31.021C77.8722 30.6572 77.7594 29.9406 78.2541 29.4204C78.7488 28.9039 79.6619 28.7802 80.2948 29.144L85.3693 32.0723Z" fill="black"/>
<path d="M87.8543 53.0404C88.0653 53.4333 88.48 53.4987 88.7819 53.1823L93.1979 48.5807C93.4999 48.2678 93.5763 47.6931 93.3653 47.3002C93.1543 46.9074 92.7396 46.8419 92.4377 47.1584L88.0216 51.7599C87.7197 52.0728 87.6433 52.6475 87.8543 53.0404Z" fill="#4F4F4F"/>
<path d="M81.3213 59.8501C81.5323 60.2429 81.947 60.3084 82.2489 59.9919L86.665 55.3904C86.9669 55.0775 87.0433 54.5028 86.8323 54.1099C86.6213 53.717 86.2066 53.6516 85.9047 53.968L81.4887 58.5696C81.1868 58.8825 81.1104 59.4572 81.3213 59.8501Z" fill="#4F4F4F"/>
<path d="M84.2955 60.7948C84.2955 60.7948 86.578 68.3573 95.8219 70.4496C95.8219 70.4496 88.8148 71.6593 88.6778 80.0739C88.6778 80.0739 86.2128 72.7853 77.3416 70.442C77.3416 70.442 84.752 69.5594 84.2955 60.7948Z" fill="#6CF479"/>
<path d="M3.20574 60.0169C3.20574 60.0169 4.21002 63.3417 8.28039 64.2623C8.28039 64.2623 5.19908 64.7949 5.1306 68.5C5.1306 68.5 4.04264 65.2894 0.139648 64.2623C0.139648 64.2623 3.40355 63.8743 3.19813 60.0169H3.20574Z" fill="#6CF479"/>
<path d="M47.2428 8.28125C47.2428 8.28125 48.7188 13.1733 54.7064 14.5276C54.7064 14.5276 50.172 15.3112 50.0807 20.7587C50.0807 20.7587 48.4829 16.0416 42.7464 14.5276C42.7464 14.5276 47.5395 13.957 47.2428 8.28887V8.28125Z" fill="#6CF479"/>
<path d="M53.0427 67.8225L59.3271 51.6475L27.855 57.3537C26.3334 58.8753 22.9097 62.6794 20.6273 64.9618L23.6706 65.3422L50.9276 69.0398C51.8102 69.1007 52.7536 68.5529 53.0427 67.8149V67.8225Z" fill="#393939"/>
<path d="M54.2383 64.2029L1.16374 53.7492C0.296411 53.5819 -0.0991397 52.7374 0.288877 51.8776L14.9726 18.6832C15.353 17.8235 16.3649 17.2681 17.2247 17.4431L70.1394 28.1554C70.9915 28.3304 71.3719 29.1596 70.9991 30.0118L56.4676 62.9551C56.0871 63.8072 55.0904 64.3703 54.2383 64.2029Z" fill="black"/>
<path d="M46.4928 42.7791L44.3321 38.8685L42.255 39.1119C42.255 38.3207 42.0115 37.5903 41.5854 37.0958C40.4138 35.7263 41.5398 34.9122 41.5398 34.9122L42.5061 35.7796C42.5061 35.7796 42.4224 36.1143 42.9321 36.2437C43.5864 36.411 44.2711 35.772 44.157 35.3459L43.5256 33.2308C44.1342 32.5841 43.2365 32.2646 43.4723 31.9907C43.8451 31.5646 43.7081 31.0929 43.7081 31.0929L43.2136 31.5494C43.4647 31.1994 43.1756 30.8647 43.1756 30.8647C43.1756 30.8647 42.468 31.8537 41.9811 31.7701C41.9811 31.7701 41.9507 31.7701 41.9431 31.7624C41.9431 31.7624 41.9355 31.7624 41.9202 31.7624C41.6387 31.6483 41.7605 31.169 41.905 31.0777C41.0225 31.0245 41.1062 31.5875 40.4215 31.7168C39.8052 31.8309 39.6834 31.3668 39.6834 31.3668C38.9378 32.0059 39.1585 32.5385 39.1585 32.5385C39.1585 32.5385 38.6487 31.9146 37.4086 32.7135C38.0096 33.6417 37.3857 34.2047 37.0282 33.7101C37.0282 33.7101 36.2674 34.9883 37.4771 35.3079C37.0434 35.2166 36.138 35.8252 36.0924 36.761C36.0924 36.761 36.7315 36.3882 36.8076 36.9893C36.8076 36.9893 35.8413 37.7044 36.3283 38.2674C36.8456 38.0087 38.2075 38.4348 35.4685 39.2945C34.7077 39.4923 33.7567 39.5532 32.4937 39.2945C31.4514 39.0891 30.4319 39.1576 29.5874 39.4695C29.4581 36.9132 25.4485 37.1414 24.3986 39.5228C23.5237 41.5009 24.9084 41.5618 24.5356 42.3987C24.2769 42.9921 23.5922 42.8247 23.5922 42.8247C23.5922 42.8247 23.7899 43.5855 24.4594 43.7149C25.4029 43.9051 26.0725 43.2051 26.2551 42.7867C26.7115 41.752 25.8061 41.6911 26.3996 40.3521C26.5061 40.9988 27.1148 40.7629 27.1148 40.7629C26.8409 40.0858 27.944 39.2489 28.5147 40.063C27.7538 40.6792 27.3202 41.5846 27.4647 42.703C27.6701 44.2779 25.5779 45.0539 25.5779 45.0539C25.5779 45.0539 25.8061 47.0929 24.9616 49.4819L25.2812 49.8471L25.0605 50.372L26.8181 50.722L26.5669 49.8775C25.7681 48.9721 26.4224 47.1005 26.6658 46.2712C26.9017 45.48 28.5223 45.4191 28.8798 45.0159C28.8798 45.0159 28.2331 46.0201 27.6929 46.5375C28.4157 47.8461 28.8494 49.0938 28.9635 50.2579L29.2755 50.6383L29.0548 51.1633L30.7362 51.498L30.4547 50.6611C29.7319 49.7329 29.4352 47.9907 29.2755 47.0853C29.0929 46.0125 31.3449 45.556 32.2883 43.9583C36.2826 44.2779 38.352 43.7757 39.6986 43.1975C39.9421 43.091 40.1627 42.9845 40.3681 42.878C43.6016 41.3868 43.3886 42.3226 41.1823 44.8637L41.1061 45.2898L40.5812 45.1909L39.9117 46.7429L41.2126 46.2332L41.9811 45.3887L44.3396 41.6302C43.8451 41.0292 42.6278 40.9075 41.8974 40.8922C42.3691 40.626 42.8028 40.3901 43.1147 40.2608C43.5636 40.0706 43.7691 40.1543 44.043 40.4358C44.9407 41.3563 45.0624 42.4747 45.0624 42.4747L45.4352 42.6954L45.1842 43.3269L46.759 43.6388L46.508 42.7791H46.4928Z" fill="#6CF479"/>
<path d="M20.2606 36.3427L16.7076 35.6351C16.0152 35.4982 15.7033 34.8287 16.0076 34.1363L16.9967 31.8995C17.301 31.2148 18.1075 30.7659 18.7998 30.9028L22.3453 31.618C23.0376 31.755 23.3495 32.4245 23.0452 33.1168L22.0561 35.3536C21.7518 36.0384 20.9454 36.4872 20.253 36.3503L20.2606 36.3427Z" fill="#4F4F4F"/>
</g>
<defs>
<clipPath id="clip0_13742_1541">
<rect width="100" height="100" fill="white"/>
</clipPath>
</defs>
</svg>
