<svg width="100" height="100" viewBox="0 0 100 100" fill="none" xmlns="http://www.w3.org/2000/svg">
<g clip-path="url(#clip0_15980_5232)">
<rect width="100" height="100" fill="#FFB16A"/>
<path d="M96.4549 31.8124C96.3543 31.0887 95.8811 30.4528 95.1253 30.0138H95.121L65.3244 12.6189C64.6863 12.2506 63.9369 12.075 63.1811 12.075C61.9927 12.075 60.7915 12.5118 60.0036 13.3383L49.3705 24.4596V24.4682C51.3532 26.8834 52.9676 29.6605 53.9954 32.6153C56.2629 39.1331 55.6805 44.653 52.5373 47.5736L52.4859 47.6207L48.3427 51.1001C46.6897 52.4362 44.5314 53.1963 41.9513 53.1963H41.8956C35.2858 53.1963 29.6674 52.5989 25.2137 49.7298L11.8485 63.7095C11.2747 64.3112 11.0113 65.0263 11.1141 65.7265C11.219 66.4545 11.6922 67.0904 12.448 67.5294L42.2489 84.9264C43.8912 85.8771 46.2765 85.5517 47.5655 84.2027L95.7162 33.8337C96.2901 33.2363 96.5534 32.5169 96.4507 31.8167H96.4549V31.8124Z" fill="white"/>
<path d="M28.0809 46.732L25.2203 49.7275C29.6739 52.5967 35.2902 53.1919 41.8979 53.1962C37.2259 53.1726 32.1877 50.6589 28.083 46.7341L28.0809 46.732Z" fill="black"/>
<path d="M25.0171 32.2385C28.3938 41.938 37.8513 49.8026 46.1398 49.8069C48.7157 49.8069 50.8354 48.9589 52.4884 47.6186L48.3452 51.098C46.6923 52.4341 44.534 53.1942 41.9538 53.1942C33.6653 53.1899 24.2099 45.3254 20.8311 35.6258C20.8033 35.5445 20.7755 35.4653 20.7519 35.3882L24.9829 32.1314C24.9936 32.1657 25.0064 32.2021 25.0171 32.2364V32.2406V32.2385Z" fill="black"/>
<path d="M97.7423 38.5206L97.222 33.7394C97.0507 34.0563 96.8345 34.3603 96.5647 34.643L48.4139 85.012C47.4097 86.0633 45.8809 86.6264 44.3671 86.6264C43.4121 86.6264 42.4679 86.4037 41.6628 85.9391L11.8619 68.5421C10.8919 67.9832 10.2517 67.161 10.0205 66.2082L10.6607 72.1028C10.7592 73.0021 11.3137 73.8543 12.2901 74.4174L42.6499 92.1357C44.5191 93.2148 47.2191 92.8465 48.6858 91.3113L96.8366 40.9423C97.5368 40.2122 97.8301 39.3471 97.7402 38.527V38.5228L97.7423 38.5206Z" fill="black"/>
<path d="M29.1362 81.7168C29.3075 81.2286 28.9906 80.5627 28.4296 80.2351L24.1409 77.7256C23.582 77.398 22.9868 77.5307 22.8197 78.0189C22.6485 78.5071 22.9653 79.173 23.5263 79.5006L27.8151 82.0101C28.374 82.3377 28.9692 82.2049 29.1362 81.7168Z" fill="white"/>
<path d="M35.5903 67.9466C37.5494 69.0771 37.8856 71.2975 36.3482 72.9034C34.8109 74.5093 31.9824 74.8968 30.0275 73.7684C28.0683 72.6379 27.7257 70.4175 29.261 68.8116C30.7983 67.2057 33.6268 66.8182 35.5903 67.9487V67.9466Z" fill="#FFB16A"/>
<path d="M72.3881 21.7853C73.0648 22.1772 73.1847 22.9458 72.6537 23.5026C72.1226 24.0571 71.1377 24.1942 70.4611 23.8045C69.7845 23.4126 69.6667 22.6439 70.1999 22.0872C70.7309 21.5327 71.7094 21.3956 72.3881 21.7896V21.7853Z" fill="#FFB16A"/>
<path d="M81.8844 27.2668C82.561 27.6587 82.6809 28.4273 82.1499 28.9841C81.6189 29.5386 80.6339 29.6757 79.9573 29.286L74.5037 26.1384C73.8271 25.7466 73.7072 24.9779 74.2382 24.4191C74.7692 23.8645 75.752 23.7317 76.4308 24.1214L81.8844 27.269V27.2668Z" fill="#FFB16A"/>
<path d="M33.9032 15.782C30.8071 15.782 28.3276 16.966 26.7367 19.2057C24.5634 22.2676 24.3129 26.884 26.0515 31.8793C29.2847 41.157 38.2948 48.709 46.1422 48.7132C49.2469 48.7132 51.7242 47.5292 53.3151 45.2895C55.4884 42.2276 55.7389 37.6113 54.0003 32.6159C50.7671 23.3382 41.757 15.7862 33.9096 15.782H33.9011H33.9032Z" fill="white"/>
<path d="M51.5036 33.549C49.2832 27.1725 43.8575 21.3742 38.0014 19.1239C36.3484 18.4858 34.7361 18.1667 33.2159 18.1667C31.5779 18.1667 30.139 18.5372 28.9506 19.2609C30.3103 17.9548 32.1603 17.2717 34.3764 17.2739C35.8966 17.2739 37.5068 17.5993 39.1619 18.231C45.018 20.4835 50.4438 26.2797 52.6642 32.6561C54.2358 37.1633 54.0238 41.3107 52.0903 44.0322C51.54 44.8094 50.8592 45.4389 50.0733 45.9207C50.386 45.6188 50.6707 45.2912 50.9298 44.9229C52.8654 42.2015 53.0731 38.054 51.5036 33.5468V33.549Z" fill="black"/>
<path d="M49.8075 44.2483C48.8611 45.5266 47.3366 46.1839 45.3967 46.1454C45.0284 46.1368 44.6451 46.1068 44.264 46.0512C41.2963 45.6294 38.0717 43.8929 35.1854 41.1564C32.3911 38.5913 30.7167 35.4995 30.7167 35.4995C33.8707 39.2594 35.4744 38.9596 36.5771 37.7284C41.9515 44.8307 50.9252 45.2547 51.0023 38.1781C51.2763 40.6576 50.8738 42.8116 49.8096 44.2483H49.8053H49.8075Z" fill="#FFB16A"/>
<path d="M7.56828 30.6712C7.86162 35.8357 4.82329 39.8825 -0.0585938 40.8247C5.27293 41.7711 10.2319 45.8136 12.3923 50.9803C12.099 45.8115 15.1373 41.7689 20.0192 40.8268C14.6877 39.8804 9.72872 35.8379 7.56828 30.6712Z" fill="white"/>
<path d="M45.7308 8.05176C45.855 10.2722 44.5532 12.0129 42.4548 12.4155C44.7459 12.8223 46.8764 14.5588 47.8078 16.7813C47.6836 14.5609 48.9854 12.8202 51.0838 12.4176C48.7884 12.0108 46.658 10.2722 45.7308 8.05176Z" fill="white"/>
<path d="M84.5624 50.5393C84.7894 50.9611 85.2347 51.0318 85.5602 50.6913L90.3072 45.7452C90.6327 45.409 90.714 44.7902 90.4871 44.3684C90.2601 43.9466 89.8147 43.876 89.4893 44.2164L84.7423 49.1625C84.4168 49.4987 84.3354 50.1175 84.5624 50.5393Z" fill="white"/>
<path d="M77.5383 57.8581C77.5383 57.8581 78.2106 58.3506 78.5361 58.0101L83.283 53.064C83.6085 52.7278 83.6899 52.1112 83.4629 51.6872C83.2359 51.2654 82.7906 51.1948 82.4651 51.5352L77.7181 56.4813C77.3927 56.8175 77.5383 57.8581 77.5383 57.8581Z" fill="white"/>
<path d="M23.3323 20.1665L27.5183 16.777C25.5591 18.3593 24.3172 20.7617 23.9404 23.6695L19.7801 26.8705C20.1869 24.0442 21.4181 21.7189 23.3344 20.1665H23.3301H23.3323Z" fill="black"/>
<path d="M19.6341 29.1467L23.8201 25.9264C23.8308 26.5216 23.8757 27.1276 23.9485 27.7485L19.7454 30.9817C19.6747 30.3565 19.6362 29.742 19.6319 29.1489L19.6341 29.1467Z" fill="black"/>
<path d="M73.4535 89.3647C73.4535 74.728 85.3143 62.8595 99.9413 62.8595C85.3143 62.8595 73.4535 50.9909 73.4535 36.3542C73.4535 50.9909 61.5928 62.8595 46.9657 62.8595C61.5928 62.8595 73.4535 74.728 73.4535 89.3647Z" fill="white"/>
<path d="M72.997 36.3542C72.997 50.7387 61.3401 62.4019 46.9657 62.4019V63.316C61.3401 63.316 72.997 74.9802 72.997 89.3647H73.9101L73.9189 88.6919C74.2755 74.6181 85.7917 63.316 99.9413 63.316V62.4019C85.5669 62.4019 73.9101 50.7387 73.9101 36.3542H72.997ZM73.454 41.3132C75.4825 52.2267 84.0802 60.8299 94.9872 62.859C84.0804 64.888 75.4827 73.4915 73.454 84.4048C71.4254 73.4918 62.8273 64.8883 51.9208 62.859C62.8275 60.8295 71.4257 52.2265 73.454 41.3132Z" fill="#FFB16A"/>
<path d="M55.8881 62.8812C64.6331 62.8812 66.2096 63.3426 69.608 60.3438C70.6862 59.3913 74.092 55.1573 73.3781 43.4748C72.7014 55.3359 58 62.8961 55.8881 62.8812Z" fill="black"/>
<path d="M70.9163 66.6383C72.8572 68.8409 73.348 70.2771 73.4521 73.3949C73.5562 70.2845 74.047 68.8409 75.9878 66.6383C76.9397 65.5594 81.1709 62.1514 92.8457 62.8657C80.9924 63.5428 73.4372 78.2539 73.4521 80.3672C73.4521 80.3598 73.4521 80.3449 73.4521 80.3374V80.3672C73.4669 78.2539 65.9192 63.5428 54.0584 62.8657C65.7333 62.1514 69.9645 65.5594 70.9163 66.6383Z" fill="black"/>
</g>
<defs>
<clipPath id="clip0_15980_5232">
<rect width="100" height="100" fill="white"/>
</clipPath>
</defs>
</svg>
