<svg width="100" height="100" viewBox="0 0 100 100" fill="none" xmlns="http://www.w3.org/2000/svg">
<rect width="100" height="100" fill="#FFB065"/>
<path fill-rule="evenodd" clip-rule="evenodd" d="M34.7192 14.8344H34.7271C42.7484 14.8383 51.9607 22.4944 55.2659 31.8981C57.0444 36.9625 56.7886 41.6425 54.5665 44.7454C52.9398 47.016 50.406 48.2167 47.2326 48.2167C39.2114 48.2128 29.9991 40.5567 26.6939 31.1531C24.9154 26.0886 25.1712 21.4086 27.3933 18.3058C29.0199 16.0351 31.5538 14.8344 34.7192 14.8344ZM38.9087 18.2226C44.8957 20.5051 50.443 26.3819 52.7131 32.8452C54.3158 37.4143 54.104 41.6188 52.1256 44.3769C51.8618 44.7494 51.5701 45.0822 51.2504 45.3874C52.0537 44.9 52.7491 44.2619 53.3126 43.4734C55.291 40.7153 55.5068 36.5108 53.9001 31.9417C51.63 25.4784 46.0827 19.6016 40.0957 17.3191C38.4052 16.6771 36.7585 16.3482 35.2038 16.3482C32.9377 16.3442 31.0473 17.0377 29.6565 18.3613C30.8715 17.6282 32.3422 17.2517 34.0168 17.2517C35.5715 17.2517 37.2181 17.5767 38.9087 18.2226Z" fill="white"/>
<path d="M50.9783 43.6912C50.0111 44.9871 48.4524 45.6528 46.4701 45.6132C46.0944 45.6053 45.7027 45.5735 45.3111 45.5181C42.2776 45.0901 38.9804 43.3306 36.0309 40.5567C33.1733 37.9571 31.4627 34.8226 31.4627 34.8226C34.688 38.6347 36.3266 38.3296 37.4537 37.0813C42.9491 44.2817 52.1214 44.7097 52.2013 37.5371C52.4811 40.0494 52.0694 42.2329 50.9823 43.6912H50.9783Z" fill="black"/>
<path d="M7.79745 29.9285C8.0972 35.1634 4.99181 39.2648 0 40.2198C5.45142 41.1788 10.5192 45.2763 12.7293 50.5151C12.4296 45.2763 15.535 41.1788 20.5268 40.2238C15.0753 39.2648 10.0076 35.1673 7.79745 29.9285Z" fill="white"/>
<path d="M46.812 7C46.9399 9.25085 45.609 11.0143 43.4628 11.4225C45.8049 11.8346 47.983 13.594 48.9342 15.8489C48.8063 13.598 50.1372 11.8346 52.2834 11.4264C49.9374 11.0143 47.7592 9.25085 46.812 7Z" fill="white"/>
<path fill-rule="evenodd" clip-rule="evenodd" d="M97.31 29.2628C98.0813 29.7066 98.5649 30.3525 98.6688 31.0857H98.6648C98.7688 31.795 98.501 32.5241 97.9135 33.1304L48.6868 84.1868C47.3679 85.5539 44.93 85.8828 43.2514 84.9199L12.785 67.2856C12.0136 66.8417 11.53 66.1958 11.4221 65.4587C11.3182 64.7494 11.586 64.0242 12.1735 63.4139L25.838 49.2431C30.3902 52.1517 36.1334 52.758 42.8917 52.758H42.9476C45.5854 52.758 47.7916 51.9893 49.4822 50.634L53.7186 47.1071L53.7705 47.0596C56.9838 44.0994 57.5793 38.504 55.2613 31.898C54.2102 28.9022 52.5596 26.0886 50.5333 23.6396V23.6317L61.4041 12.3576C62.2115 11.5215 63.4384 11.0776 64.6534 11.0776C65.4248 11.0776 66.1921 11.256 66.8436 11.6285L97.306 29.2628H97.31ZM58.0284 49.3225C61.1937 48.7201 63.1601 46.1206 62.9683 42.8037C64.3631 46.1245 67.5764 48.7201 71.0295 49.3265C67.8642 49.9288 65.8978 52.5284 66.0896 55.8452C64.6948 52.5244 61.4815 49.9288 58.0284 49.3225Z" fill="white"/>
<path fill-rule="evenodd" clip-rule="evenodd" d="M99.4523 33.0394L99.9838 37.8858V37.8898C100.076 38.722 99.776 39.5978 99.0606 40.3388L49.834 91.3951C48.3352 92.9525 45.5736 93.325 43.6632 92.2312L12.6252 74.272C11.6261 73.7013 11.0586 72.8375 10.9586 71.926L10.3032 65.9502C10.539 66.9171 11.1944 67.7493 12.1856 68.3159L42.652 85.9503C43.4753 86.4218 44.4425 86.6477 45.4177 86.6477C46.9644 86.6477 48.5271 86.0771 49.5542 85.0111L98.7809 33.9548C99.0566 33.6694 99.2764 33.3603 99.4523 33.0394ZM29.1222 80.1687C29.6978 80.5015 30.0215 81.1752 29.8456 81.6706C29.6738 82.1659 29.0663 82.3006 28.4948 81.9678L24.1104 79.4237C23.5349 79.0908 23.2112 78.4171 23.3871 77.9218C23.5589 77.4264 24.1664 77.2917 24.7379 77.6246L29.1222 80.1687ZM86.5099 50.0674C86.7417 50.4953 87.1973 50.5667 87.529 50.2219L92.381 45.209C92.7127 44.8682 92.7966 44.2421 92.5648 43.8141C92.333 43.3861 91.8774 43.3148 91.5457 43.6596L86.6937 48.6725C86.362 49.0133 86.2781 49.6394 86.5099 50.0674ZM80.3478 57.6401C80.016 57.9849 79.5604 57.9135 79.3286 57.4856C79.0968 57.0576 79.1807 56.4315 79.5125 56.0907L84.3644 51.0778C84.6961 50.733 85.1517 50.8043 85.3835 51.2323C85.6153 51.6603 85.5314 52.2864 85.1997 52.6272L80.3478 57.6401Z" fill="black"/>
<path d="M36.4433 67.7134C38.4456 68.8586 38.7893 71.1095 37.2186 72.7382C35.648 74.3669 32.7544 74.7592 30.7561 73.614C28.7537 72.4687 28.402 70.2179 29.9727 68.5892C31.5434 66.9605 34.437 66.5682 36.4433 67.7134Z" fill="black"/>
<path d="M74.0634 20.9211C74.7549 21.3174 74.8788 22.098 74.3352 22.6608C73.7917 23.2235 72.7845 23.3622 72.0931 22.9659C71.4017 22.5696 71.2818 21.7889 71.8253 21.2262C72.3689 20.6635 73.368 20.5248 74.0634 20.9251V20.9211Z" fill="black"/>
<path d="M83.7727 26.4768C84.4641 26.8731 84.588 27.6537 84.0444 28.2164C83.5009 28.7791 82.4937 28.9178 81.8023 28.5216L76.227 25.3315C75.5356 24.9353 75.4117 24.1546 75.9552 23.5879C76.4988 23.0252 77.5019 22.8905 78.1973 23.2867L83.7727 26.4768Z" fill="black"/>
<path d="M23.9118 19.2807L28.1826 15.8527C26.1859 17.4577 24.9184 19.8877 24.5353 22.8313L20.2829 26.0768C20.6985 23.2118 21.9575 20.8539 23.9158 19.2807H23.9118Z" fill="black"/>
<path d="M47.2293 49.3264C38.7565 49.3224 29.0886 41.3493 25.6355 31.5177V31.5137L25.5995 31.4067L21.2751 34.7077C21.2931 34.767 21.3132 34.8262 21.334 34.8871L21.3551 34.9494C22.8551 39.2204 25.528 43.1407 28.7663 46.2092L25.8425 49.2429C30.3919 52.1499 36.131 52.7532 42.8802 52.7579L42.9489 52.7581C45.5867 52.7581 47.7929 51.9893 49.4834 50.6341L53.7199 47.1072C52.0293 48.4664 49.8631 49.3264 47.2293 49.3264Z" fill="black"/>
<path d="M24.4118 25.1178L20.1314 28.3831C20.1354 28.9855 20.1753 29.6076 20.2473 30.2417L24.5437 26.9645C24.4677 26.3344 24.4238 25.7202 24.4118 25.1178Z" fill="black"/>
</svg>
