<svg width="100" height="100" viewBox="0 0 100 100" fill="none" xmlns="http://www.w3.org/2000/svg">
<g clip-path="url(#clip0_15980_5202)">
<rect width="100" height="100" fill="#FFB16A"/>
<path d="M59.427 85.9679C58.9678 85.4271 58.7127 84.7433 58.7127 84.0392V74.6402H38.8433V84.0392C38.8433 84.7535 38.5984 85.4373 38.1289 85.9679L31.8834 93.285C31.6078 93.6116 31.4548 94.03 31.4548 94.4586V95.0709C31.4548 95.571 31.863 95.9792 32.363 95.9792H65.1929C65.693 95.9792 66.1012 95.571 66.1012 95.0709V94.4586C66.1012 94.03 65.9481 93.6116 65.6726 93.285L59.427 85.9679Z" fill="white"/>
<path d="M97.1758 8.42917H2.7172C1.18643 8.42917 -0.0585938 9.67419 -0.0585938 11.205V70.4661C-0.0585938 71.9969 1.18643 73.2419 2.7172 73.2419H97.1656C98.6964 73.2419 99.9414 71.9969 99.9414 70.4661V11.2152C99.9414 9.6844 98.6964 8.43937 97.1656 8.43937L97.1758 8.42917Z" fill="white"/>
<path d="M57.0901 85.6518L63.5295 92.9689H40.4251C40.4251 92.9689 56.6207 92.1933 57.0799 85.6518H57.0901Z" fill="#FFB16A"/>
<path d="M2.7171 7.05284H97.1757C97.6145 7.05284 98.0431 7.13448 98.4411 7.27735C98.3595 5.90987 97.2165 4.82812 95.8388 4.82812H4.05397C2.66608 4.82812 1.53331 5.90987 1.45167 7.27735C1.85987 7.14469 2.27828 7.05284 2.7171 7.05284Z" fill="black"/>
<path d="M4.52349 13.0008V68.6799H95.3797V13.0008H4.52349Z" fill="black"/>
<path d="M8.17697 16.4023H21.9437C21.9437 16.4023 12.1468 21.1578 8.17697 40.0169V16.4023Z" fill="white"/>
<path d="M38.8533 74.6402V84.0392C38.8533 84.4576 38.7513 84.876 38.5778 85.2638H45.2519C46.9154 85.2638 48.4563 84.3453 49.2319 82.8656L50.6402 80.2327C51.0076 79.5387 51.7322 79.1101 52.5282 79.1101H58.7329V74.6505H38.8635L38.8533 74.6402Z" fill="black"/>
</g>
<defs>
<clipPath id="clip0_15980_5202">
<rect width="100" height="100" fill="white"/>
</clipPath>
</defs>
</svg>
