<svg width="100" height="100" viewBox="0 0 100 100" fill="none" xmlns="http://www.w3.org/2000/svg">
<g clip-path="url(#clip0_15980_5188)">
<rect width="100" height="100" fill="#FFB16A"/>
<path d="M17.1572 68.8244C17.0483 75.5192 12.3084 82.3007 6.56927 83.9704C12.3084 82.3007 16.8733 86.3766 16.7645 93.0713C16.8733 86.3766 21.6131 79.5951 27.3524 77.9254C21.6131 79.5951 17.0483 75.5192 17.1572 68.8244Z" fill="white"/>
<path d="M5.65869 13.403C5.60512 16.7531 3.16519 20.1415 0.21875 20.9766C3.17005 20.1415 5.5126 22.1765 5.45903 25.5265C5.5126 22.1765 7.95254 18.7881 10.899 17.953C7.94766 18.7881 5.60512 16.7531 5.65869 13.403Z" fill="white"/>
<path d="M47.3339 18.3103C57.5285 18.3105 65.2643 27.0933 65.3232 39.7537C65.3549 46.948 62.9088 54.0384 58.9189 59.6765H58.9276L65.454 65.8074L43.289 70.9206C41.8219 71.2598 40.3864 71.4226 38.996 71.4226C28.7967 71.4226 21.0607 62.6442 21.0019 49.9792C20.934 35.5904 30.8026 21.6357 43.04 18.8123C44.5074 18.4729 45.9436 18.3103 47.3339 18.3103ZM55.7069 23.6599C47.1875 19.1901 36.9701 22.9845 30.3876 31.6931C27.5614 35.4281 23.9458 43.3699 24.5282 47.7537C24.8307 46.7235 26.1078 43.6105 28.2343 42.0857C30.8031 40.2431 34.627 40.8423 38.1171 42.9206C37.2276 41.0556 36.7763 39.0176 36.9071 36.8982C37.3856 29.0881 45.3597 23.2249 54.7099 23.8103L54.705 23.8054C55.2152 23.8372 55.7167 23.8965 56.2177 23.9646C56.0462 23.8648 55.8831 23.7552 55.7069 23.6599Z" fill="white"/>
<path d="M21.5679 43.2888C21.5997 43.1259 21.6403 42.9631 21.6719 42.8047C21.6448 42.9315 21.6133 43.058 21.5862 43.1893C21.5772 43.2254 21.5724 43.2572 21.5679 43.2933V43.2888ZM24.5185 30.0627L18.735 27.4438C18.735 27.4438 18.7214 27.4619 18.7169 27.4709C18.4774 27.8328 18.2425 28.1992 18.0166 28.5745C17.9894 28.6244 17.9578 28.6697 17.9262 28.7148C17.9217 28.7238 17.9171 28.7329 17.9126 28.7374C17.6641 29.1535 17.4201 29.5787 17.1897 30.004C17.1219 30.1306 17.0587 30.2573 16.9909 30.3839C16.8282 30.6915 16.6655 31.0035 16.5119 31.3156C16.4803 31.379 16.4487 31.4379 16.417 31.501C16.3718 31.5962 16.3312 31.6957 16.286 31.7906C16.1459 32.0845 16.0104 32.3832 15.8748 32.6863C15.8025 32.8491 15.7302 33.012 15.6625 33.1794C15.5269 33.5003 15.3959 33.8215 15.2693 34.1472C15.2287 34.2559 15.179 34.3599 15.1383 34.4684C15.1248 34.5 15.1157 34.5363 15.1022 34.5679C14.9214 35.0564 14.7452 35.5449 14.5871 36.0425C14.5554 36.142 14.5283 36.2415 14.4967 36.3411C14.3702 36.7435 14.2482 37.1506 14.1398 37.5578C14.1217 37.6302 14.0946 37.698 14.0765 37.7704C14.0313 37.9423 13.9906 38.1142 13.9454 38.2906C13.9184 38.4036 13.8867 38.5168 13.8596 38.6343C13.7647 39.0279 13.6744 39.4215 13.593 39.8194C13.584 39.8557 13.5795 39.8963 13.5704 39.9371C13.4981 40.2944 13.4349 40.6516 13.3716 41.0136C13.349 41.1402 13.331 41.2714 13.3129 41.4025C13.2903 41.5518 13.2632 41.7011 13.2406 41.8504C13.2225 41.968 13.2135 42.0855 13.1954 42.2032C13.1728 42.3751 13.1502 42.5424 13.1321 42.7143C13.105 42.9721 13.0779 43.2299 13.0553 43.4877C13.0418 43.6506 13.0237 43.8134 13.0147 43.9763C12.9921 44.2568 12.9785 44.5372 12.965 44.8176C12.9605 44.9579 12.9469 45.0981 12.9424 45.2382C12.9288 45.6544 12.9198 46.066 12.9198 46.4821V46.5002C12.9333 49.1508 13.2812 51.6297 13.9184 53.8913C13.9726 54.0812 14.0268 54.2713 14.0855 54.4567C15.8387 60.165 19.4534 64.4351 24.1255 66.5158C20.7141 62.3316 18.6808 56.5509 18.6491 49.8792C18.6175 43.0037 20.6915 36.029 24.5094 30.0582L24.5185 30.0627ZM23.2624 37.5172C23.2083 37.6572 23.1494 37.7975 23.0953 37.9423C22.9146 38.4309 22.7427 38.9192 22.5801 39.4122C22.5485 39.5119 22.5169 39.6159 22.4853 39.7154C22.3588 40.118 22.2413 40.5206 22.1283 40.9277C22.675 38.9374 23.398 37.0061 24.2701 35.1649C24.13 35.459 23.9944 35.7576 23.8634 36.0515C23.7912 36.2144 23.7188 36.3817 23.6466 36.5446C23.511 36.8658 23.3845 37.1869 23.2579 37.5081L23.2624 37.5172ZM21.3737 44.3335C21.3737 44.3335 21.3692 44.3653 21.3647 44.3789C21.3421 44.5054 21.3241 44.6322 21.306 44.7589C21.3286 44.6186 21.3511 44.4738 21.3737 44.3335ZM21.2517 45.1297C21.2291 45.2745 21.2066 45.4238 21.1885 45.5684C21.1659 45.7358 21.1479 45.9031 21.1251 46.0705C21.1614 45.7538 21.2066 45.4419 21.2517 45.1297ZM20.9129 49.8611C20.9129 49.5083 20.9219 49.1554 20.9309 48.8026C20.9174 49.1599 20.9129 49.5128 20.9129 49.8701V49.8611ZM21.8661 57.0984C21.6719 56.3881 21.5093 55.6598 21.3692 54.9135C21.5048 55.6598 21.6719 56.3926 21.8661 57.0984ZM39.3119 19.8945C39.6462 19.7542 39.9805 19.6231 40.315 19.4964C40.22 19.5326 40.1206 19.5688 40.0258 19.605C39.7863 19.6954 39.5467 19.7904 39.3074 19.8945H39.3119ZM38.1461 20.4282C38.4849 20.2608 38.824 20.1071 39.1673 19.9578C39.0543 20.0075 38.9413 20.0573 38.833 20.1071C38.6024 20.2111 38.3764 20.3151 38.1506 20.4282H38.1461ZM25.2098 20.2382C24.9432 20.4553 24.6813 20.6725 24.4237 20.8986C24.3423 20.9665 24.2656 21.0388 24.1887 21.1112C23.9719 21.3057 23.7549 21.5002 23.5426 21.6992C23.4341 21.8033 23.3301 21.9073 23.2218 22.0113C23.0409 22.1877 22.8648 22.3596 22.6886 22.5406L22.6796 22.5496L28.323 25.1052C29.0958 24.2639 29.9 23.4723 30.7314 22.7351L25.2098 20.2337V20.2382ZM36.9939 21.0298C36.9262 21.066 36.8583 21.1067 36.7861 21.1474C37.134 20.9484 37.4863 20.7584 37.8434 20.5775C37.7845 20.6091 37.7259 20.6363 37.6672 20.6679C37.4412 20.7855 37.2154 20.9077 36.9939 21.0298ZM32.9725 23.798C32.9725 23.798 32.9996 23.7799 33.0086 23.7664C33.0086 23.7664 32.9861 23.7845 32.9725 23.798ZM31.2104 25.3767C31.1697 25.4128 31.1334 25.4535 31.0928 25.4897C31.3459 25.2455 31.599 25.0012 31.8564 24.766C31.7481 24.8655 31.6351 24.9605 31.5311 25.0645C31.4271 25.1686 31.3188 25.2726 31.2104 25.3767ZM30.5009 26.0913C30.6726 25.9149 30.8488 25.734 31.0252 25.5621C30.9076 25.6752 30.7901 25.7928 30.6726 25.9104C30.6139 25.9692 30.5551 26.0325 30.4964 26.0958L30.5009 26.0913ZM20.9399 48.7981C20.9489 48.4904 20.967 48.1785 20.9805 47.8708C20.976 47.9748 20.967 48.0788 20.9625 48.183C20.9535 48.3231 20.9444 48.4634 20.9399 48.5991V48.7981ZM45.8545 18.2661C45.99 18.257 46.1211 18.2435 46.2567 18.239H46.2025C46.0895 18.2435 45.972 18.257 45.8545 18.2661ZM44.6752 15.7512C44.4629 15.6788 44.2459 15.6064 44.0291 15.5431C43.993 15.5295 43.9522 15.516 43.9161 15.5069C43.898 15.5024 43.8845 15.4979 43.8665 15.4933C43.7264 15.4526 43.5818 15.4164 43.4417 15.3803C43.3648 15.3621 43.2881 15.3395 43.2112 15.3214C43.026 15.2762 42.8408 15.2355 42.6508 15.1948C42.6147 15.1857 42.5787 15.1767 42.5426 15.1722C42.3165 15.1269 42.0907 15.0862 41.8647 15.0501C41.8015 15.041 41.7382 15.032 41.6795 15.0229C41.5124 15.0003 41.3452 14.9732 41.1778 14.9551C41.1643 14.9551 41.1553 14.9551 41.1418 14.9505C41.1057 14.9505 41.065 14.946 41.0287 14.9415C40.8029 14.9189 40.5769 14.8963 40.3466 14.8827C40.2652 14.8782 40.1794 14.8736 40.098 14.8691C39.8812 14.8601 39.6597 14.851 39.4384 14.8465H39.253C38.9731 14.8465 38.6974 14.851 38.4127 14.8646C38.3448 14.8646 38.2772 14.8736 38.2093 14.8782C37.988 14.8917 37.7665 14.9053 37.5407 14.9279C37.4955 14.9279 37.4457 14.9325 37.4006 14.937C37.369 14.937 37.3327 14.946 37.3011 14.9505C36.9487 14.9867 36.5917 15.032 36.2303 15.0908C36.1716 15.0998 36.1083 15.1134 36.0496 15.1224C35.6745 15.1857 35.2951 15.2581 34.9109 15.3486H34.9064C34.4997 15.4436 34.0975 15.5521 33.6955 15.6697C33.5599 15.7104 33.4289 15.7557 33.2933 15.7964C33.0267 15.8823 32.7601 15.9683 32.4936 16.0633C32.3353 16.1175 32.1817 16.1809 32.0281 16.2397C31.7887 16.3301 31.5492 16.4251 31.3098 16.5291C31.147 16.597 30.9888 16.6694 30.8307 16.7418C30.6004 16.8458 30.3699 16.9543 30.1441 17.0629C29.9859 17.1398 29.8276 17.2212 29.6695 17.3026C29.4436 17.4202 29.2176 17.5424 28.9963 17.669C28.933 17.7052 28.8698 17.7414 28.8111 17.7731L34.0794 20.1568C36.7002 18.4244 39.5016 17.1805 42.398 16.5111C43.4056 16.2759 44.4176 16.1266 45.4207 16.0361C45.2445 15.9638 45.0638 15.8959 44.8876 15.828C44.8152 15.8009 44.743 15.7783 44.6706 15.7512H44.6752ZM46.9345 18.2163C47.0338 18.2163 47.1377 18.2118 47.2372 18.2118H47.1919C47.1062 18.2118 47.0202 18.2163 46.93 18.2208L46.9345 18.2163ZM42.94 18.7048C43.3377 18.6144 43.7309 18.5375 44.1239 18.4696C44.1013 18.4696 44.0742 18.4787 44.0517 18.4832C43.6856 18.5465 43.3152 18.6189 42.94 18.7048ZM47.7748 18.2254C47.9419 18.2299 48.1093 18.2344 48.2764 18.248C48.2131 18.248 48.1544 18.239 48.091 18.239C47.9873 18.2344 47.8788 18.2299 47.7748 18.2299V18.2254ZM52.6682 19.121C52.5281 19.0712 52.3837 19.026 52.2391 18.9808C52.4108 19.035 52.587 19.0893 52.7541 19.1526C52.7271 19.1436 52.6955 19.1346 52.6682 19.121ZM48.7057 18.2796C48.8458 18.2932 48.9902 18.3023 49.1303 18.3158C49.0942 18.3158 49.0581 18.3113 49.022 18.3068C48.918 18.2978 48.8095 18.2887 48.7057 18.2796ZM24.6585 63.3946C24.2926 62.8292 23.9493 62.2412 23.6283 61.6306C23.9448 62.2457 24.2926 62.8337 24.6585 63.3946ZM25.9057 32.1073C25.8063 32.2702 25.716 32.4375 25.6211 32.6049C25.7656 32.3516 25.9148 32.0983 26.0684 31.8495C26.0503 31.8811 26.0278 31.9127 26.0097 31.9445C25.9734 31.9986 25.9373 32.053 25.9057 32.1118V32.1073ZM24.9795 33.7583C24.9795 33.7583 24.9613 33.799 24.9477 33.817C25.0923 33.5411 25.2414 33.2698 25.395 32.9983C25.3228 33.125 25.2504 33.247 25.1782 33.3738C25.1104 33.5003 25.0427 33.6271 24.975 33.7583H24.9795ZM42.9039 18.7139H42.9085C42.5017 18.8089 42.0952 18.9174 41.6931 19.035C42.0952 18.9174 42.4972 18.8089 42.9039 18.7139ZM24.3786 34.9524C24.5232 34.6583 24.6723 34.3644 24.8214 34.0748C24.7174 34.2785 24.6089 34.4819 24.5094 34.6856C24.4643 34.776 24.4237 34.8665 24.3786 34.9524ZM26.4343 31.2705C26.4931 31.1801 26.5473 31.0941 26.6061 31.0037C26.5518 31.0941 26.4931 31.1801 26.4388 31.2705H26.4343ZM42.9085 18.7139C42.9085 18.7139 42.9265 18.7139 42.9355 18.7094C42.9265 18.7094 42.9175 18.7094 42.9085 18.7139Z" fill="black"/>
<path d="M74.675 58.0489C74.675 43.9339 63.237 32.4883 49.1312 32.4883C63.237 32.4883 74.675 21.0428 74.675 6.92773C74.675 21.0428 86.113 32.4883 100.219 32.4883C86.113 32.4883 74.675 43.9339 74.675 58.0489Z" fill="white"/>
<path d="M91.6144 32.5093C83.1811 32.5093 81.6608 32.9542 78.3836 30.0623C77.3438 29.1438 74.0594 25.0607 74.7478 13.7945C75.4004 25.2329 89.5778 32.5236 91.6144 32.5093Z" fill="black"/>
<path d="M77.1219 36.1325C75.2502 38.2566 74.7769 39.6415 74.6765 42.6482C74.5761 39.6487 74.1028 38.2566 72.2311 36.1325C71.3132 35.092 67.2328 31.8054 55.9741 32.4943C67.4049 33.1473 74.6908 47.3341 74.6765 49.372C74.6765 49.3649 74.6765 49.3505 74.6765 49.3433V49.372C74.6622 47.3341 81.9409 33.1473 93.379 32.4943C82.1202 31.8054 78.0398 35.092 77.1219 36.1325Z" fill="black"/>
</g>
<defs>
<clipPath id="clip0_15980_5188">
<rect width="100" height="100" fill="white"/>
</clipPath>
</defs>
</svg>
