<svg width="100" height="100" viewBox="0 0 100 100" fill="none" xmlns="http://www.w3.org/2000/svg">
<g clip-path="url(#clip0_15980_5190)">
<rect width="100" height="100" fill="#FFB16A"/>
<path d="M16.9228 68.9631C16.8139 75.6578 12.0741 82.4394 6.33489 84.1091C12.0741 82.4394 16.639 86.5152 16.5301 93.21C16.639 86.5152 21.3788 79.7337 27.118 78.064C21.3788 79.7337 16.8139 75.6578 16.9228 68.9631Z" fill="white"/>
<path d="M5.42432 13.5417C5.37075 16.8918 2.93082 20.2802 -0.015625 21.1153C2.93568 20.2802 5.27823 22.3152 5.22466 25.6652C5.27823 22.3152 7.71816 18.9267 10.6646 18.0916C7.71328 18.9267 5.37075 16.8918 5.42432 13.5417Z" fill="white"/>
<path d="M47.0995 18.449C57.2941 18.4492 65.0299 27.232 65.0888 39.8923C65.1206 47.0867 62.6744 54.1771 58.6845 59.8152H58.6933L65.2196 65.946L43.0546 71.0593C41.5875 71.3985 40.152 71.5612 38.7616 71.5613C28.5624 71.5613 20.8264 62.7828 20.7675 50.1179C20.6996 35.7291 30.5682 21.7744 42.8056 18.9509C44.273 18.6116 45.7092 18.449 47.0995 18.449ZM55.4726 23.7986C46.9531 19.3288 36.7357 23.1231 30.1532 31.8318C27.327 35.5668 23.7114 43.5085 24.2939 47.8923C24.5964 46.8622 25.8735 43.7491 27.9999 42.2244C30.5687 40.3818 34.3926 40.9809 37.8827 43.0593C36.9933 41.1942 36.542 39.1562 36.6728 37.0369C37.1513 29.2268 45.1253 23.3635 54.4755 23.949L54.4706 23.9441C54.9809 23.9758 55.4823 24.0352 55.9833 24.1033C55.8119 24.0034 55.6487 23.8939 55.4726 23.7986Z" fill="white"/>
<path d="M21.3336 43.4274C21.3653 43.2646 21.406 43.1018 21.4375 42.9434C21.4105 43.0702 21.3789 43.1967 21.3518 43.328C21.3428 43.3641 21.3381 43.3959 21.3336 43.432V43.4274ZM24.2841 30.2014L18.5006 27.5825C18.5006 27.5825 18.487 27.6005 18.4825 27.6096C18.2431 27.9715 18.0081 28.3379 17.7822 28.7132C17.7551 28.763 17.7234 28.8084 17.6918 28.8535C17.6873 28.8625 17.6828 28.8715 17.6783 28.876C17.4297 29.2922 17.1857 29.7173 16.9553 30.1427C16.8875 30.2693 16.8243 30.396 16.7565 30.5226C16.5938 30.8302 16.4312 31.1422 16.2776 31.4543C16.2459 31.5177 16.2143 31.5765 16.1827 31.6397C16.1375 31.7349 16.0968 31.8344 16.0516 31.9293C15.9116 32.2232 15.776 32.5218 15.6404 32.825C15.5681 32.9878 15.4958 33.1507 15.4281 33.318C15.2925 33.639 15.1615 33.9602 15.035 34.2859C14.9943 34.3946 14.9446 34.4986 14.9039 34.6071C14.8904 34.6386 14.8814 34.6749 14.8678 34.7065C14.6871 35.1951 14.5108 35.6836 14.3527 36.1812C14.3211 36.2806 14.294 36.3801 14.2623 36.4798C14.1358 36.8822 14.0138 37.2893 13.9054 37.6964C13.8873 37.7688 13.8602 37.8367 13.8421 37.9091C13.7969 38.081 13.7563 38.2529 13.7111 38.4292C13.684 38.5422 13.6523 38.6555 13.6252 38.773C13.5303 39.1666 13.44 39.5601 13.3586 39.958C13.3496 39.9943 13.3451 40.0349 13.3361 40.0758C13.2638 40.433 13.2005 40.7903 13.1372 41.1523C13.1147 41.2789 13.0966 41.4101 13.0785 41.5412C13.0559 41.6905 13.0288 41.8398 13.0062 41.9891C12.9881 42.1066 12.9791 42.2241 12.961 42.3419C12.9384 42.5137 12.9158 42.6811 12.8978 42.853C12.8707 43.1108 12.8436 43.3686 12.821 43.6264C12.8074 43.7892 12.7893 43.9521 12.7803 44.1149C12.7577 44.3955 12.7441 44.6759 12.7306 44.9562C12.7261 45.0965 12.7125 45.2368 12.708 45.3769C12.6944 45.793 12.6854 46.2047 12.6854 46.6208V46.6389C12.699 49.2895 13.0469 51.7683 13.684 54.0299C13.7382 54.2198 13.7924 54.41 13.8512 54.5954C15.6043 60.3036 19.219 64.5737 23.8911 66.6545C20.4797 62.4703 18.4464 56.6896 18.4148 50.0178C18.3831 43.1424 20.4571 36.1676 24.2751 30.1969L24.2841 30.2014ZM23.0281 37.6558C22.9739 37.7959 22.9151 37.9362 22.8609 38.081C22.6802 38.5695 22.5084 39.0579 22.3457 39.5509C22.3141 39.6506 22.2825 39.7546 22.251 39.854C22.1244 40.2567 22.0069 40.6593 21.8939 41.0664C22.4407 39.0761 23.1636 37.1447 24.0357 35.3036C23.8956 35.5977 23.7601 35.8963 23.629 36.1902C23.5568 36.353 23.4844 36.5204 23.4122 36.6833C23.2766 37.0044 23.1501 37.3256 23.0236 37.6468L23.0281 37.6558ZM21.1393 44.4722C21.1393 44.4722 21.1348 44.504 21.1303 44.5175C21.1077 44.6441 21.0897 44.7708 21.0716 44.8976C21.0942 44.7573 21.1168 44.6125 21.1393 44.4722ZM21.0173 45.2684C20.9947 45.4132 20.9722 45.5625 20.9541 45.7071C20.9316 45.8745 20.9135 46.0418 20.8908 46.2092C20.9271 45.8925 20.9722 45.5806 21.0173 45.2684ZM20.6785 49.9998C20.6785 49.647 20.6875 49.294 20.6965 48.9413C20.683 49.2985 20.6785 49.6515 20.6785 50.0088V49.9998ZM21.6318 57.237C21.4375 56.5268 21.2749 55.7985 21.1348 55.0521C21.2704 55.7985 21.4375 56.5313 21.6318 57.237ZM39.0775 20.0331C39.4118 19.8929 39.7461 19.7617 40.0806 19.6351C39.9857 19.6713 39.8862 19.7075 39.7914 19.7436C39.5519 19.8341 39.3123 19.9291 39.073 20.0331H39.0775ZM37.9117 20.5669C38.2506 20.3995 38.5896 20.2457 38.9329 20.0965C38.8199 20.1462 38.7069 20.196 38.5986 20.2457C38.3681 20.3498 38.1421 20.4538 37.9162 20.5669H37.9117ZM24.9755 20.3769C24.7088 20.594 24.4469 20.8111 24.1893 21.0373C24.1079 21.1052 24.0312 21.1775 23.9543 21.2499C23.7375 21.4444 23.5205 21.6389 23.3082 21.8379C23.1997 21.9419 23.0957 22.046 22.9875 22.15C22.8066 22.3264 22.6304 22.4983 22.4542 22.6792L22.4452 22.6883L28.0886 25.2439C28.8614 24.4026 29.6656 23.611 30.4971 22.8737L24.9755 20.3724V20.3769ZM36.7595 21.1685C36.6918 21.2047 36.6239 21.2454 36.5517 21.2861C36.8996 21.0871 37.2519 20.8971 37.609 20.7161C37.5501 20.7478 37.4915 20.7749 37.4328 20.8066C37.2068 20.9242 36.981 21.0463 36.7595 21.1685ZM32.7382 23.9367C32.7382 23.9367 32.7652 23.9186 32.7743 23.9051C32.7743 23.9051 32.7517 23.9231 32.7382 23.9367ZM30.976 25.5153C30.9354 25.5515 30.8991 25.5922 30.8585 25.6284C31.1115 25.3841 31.3646 25.1399 31.622 24.9047C31.5137 25.0042 31.4007 25.0992 31.2967 25.2032C31.1928 25.3073 31.0845 25.4113 30.976 25.5153ZM30.2665 26.23C30.4382 26.0536 30.6144 25.8727 30.7908 25.7008C30.6733 25.8139 30.5557 25.9315 30.4382 26.0491C30.3796 26.1079 30.3207 26.1712 30.262 26.2345L30.2665 26.23ZM20.7056 48.9368C20.7146 48.6291 20.7326 48.3172 20.7462 48.0095C20.7416 48.1135 20.7326 48.2175 20.7281 48.3217C20.7191 48.4618 20.7101 48.602 20.7056 48.7378V48.9368ZM45.6201 18.4048C45.7557 18.3957 45.8867 18.3821 46.0223 18.3776H45.9681C45.8551 18.3821 45.7376 18.3957 45.6201 18.4048ZM44.4408 15.8898C44.2285 15.8174 44.0115 15.7451 43.7947 15.6818C43.7586 15.6682 43.7178 15.6546 43.6817 15.6456C43.6637 15.641 43.6501 15.6365 43.6321 15.632C43.492 15.5913 43.3474 15.5551 43.2073 15.5189C43.1304 15.5008 43.0537 15.4782 42.9768 15.4601C42.7916 15.4149 42.6064 15.3742 42.4165 15.3335C42.3804 15.3244 42.3443 15.3154 42.3082 15.3109C42.0822 15.2656 41.8564 15.2249 41.6303 15.1887C41.5672 15.1797 41.5038 15.1706 41.4451 15.1616C41.278 15.139 41.1108 15.1118 40.9435 15.0937C40.9299 15.0937 40.9209 15.0937 40.9074 15.0892C40.8713 15.0892 40.8307 15.0847 40.7944 15.0802C40.5686 15.0575 40.3425 15.0349 40.1122 15.0214C40.0308 15.0168 39.9451 15.0123 39.8636 15.0078C39.6469 14.9987 39.4253 14.9897 39.204 14.9852H39.0186C38.7387 14.9852 38.463 14.9897 38.1784 15.0033C38.1105 15.0033 38.0428 15.0123 37.9749 15.0168C37.7536 15.0304 37.5321 15.044 37.3063 15.0666C37.2612 15.0666 37.2113 15.0711 37.1662 15.0756C37.1346 15.0756 37.0983 15.0847 37.0667 15.0892C36.7144 15.1254 36.3573 15.1706 35.9959 15.2294C35.9373 15.2385 35.8739 15.2521 35.8152 15.2611C35.4401 15.3244 35.0607 15.3968 34.6765 15.4873H34.672C34.2653 15.5822 33.8631 15.6908 33.4611 15.8084C33.3256 15.8491 33.1945 15.8944 33.0589 15.9351C32.7923 16.021 32.5257 16.1069 32.2593 16.2019C32.1009 16.2562 31.9473 16.3195 31.7937 16.3783C31.5543 16.4688 31.3148 16.5638 31.0754 16.6678C30.9126 16.7357 30.7545 16.808 30.5963 16.8804C30.366 16.9844 30.1355 17.093 29.9097 17.2016C29.7515 17.2785 29.5932 17.3599 29.4351 17.4413C29.2093 17.5589 28.9833 17.681 28.762 17.8077C28.6986 17.8439 28.6354 17.8801 28.5768 17.9117L33.8451 20.2955C36.4658 18.5631 39.2672 17.3192 42.1636 16.6497C43.1712 16.4145 44.1832 16.2653 45.1863 16.1748C45.0101 16.1024 44.8294 16.0346 44.6533 15.9667C44.5809 15.9396 44.5087 15.917 44.4363 15.8898H44.4408ZM46.7001 18.355C46.7994 18.355 46.9034 18.3505 47.0028 18.3505H46.9575C46.8718 18.3505 46.7859 18.355 46.6956 18.3595L46.7001 18.355ZM42.7057 18.8435C43.1033 18.7531 43.4965 18.6761 43.8895 18.6083C43.8669 18.6083 43.8398 18.6173 43.8173 18.6219C43.4512 18.6852 43.0808 18.7576 42.7057 18.8435ZM47.5404 18.3641C47.7076 18.3686 47.8749 18.3731 48.0421 18.3867C47.9787 18.3867 47.92 18.3776 47.8567 18.3776C47.7529 18.3731 47.6444 18.3686 47.5404 18.3686V18.3641ZM52.4338 19.2596C52.2937 19.2099 52.1493 19.1647 52.0047 19.1194C52.1764 19.1737 52.3526 19.228 52.5197 19.2913C52.4927 19.2823 52.4611 19.2732 52.4338 19.2596ZM48.4713 18.4183C48.6114 18.4319 48.7558 18.4409 48.8959 18.4545C48.8598 18.4545 48.8237 18.45 48.7876 18.4455C48.6836 18.4364 48.5751 18.4274 48.4713 18.4183ZM24.4242 63.5333C24.0583 62.9678 23.7149 62.3798 23.394 61.7693C23.7104 62.3843 24.0583 62.9723 24.4242 63.5333ZM25.6714 32.246C25.5719 32.4088 25.4816 32.5762 25.3867 32.7435C25.5313 32.4903 25.6804 32.237 25.834 31.9882C25.8159 32.0198 25.7934 32.0513 25.7753 32.0831C25.739 32.1373 25.7029 32.1916 25.6714 32.2505V32.246ZM24.7451 33.897C24.7451 33.897 24.7269 33.9376 24.7133 33.9557C24.8579 33.6798 25.007 33.4085 25.1607 33.1369C25.0885 33.2637 25.0161 33.3857 24.9439 33.5125C24.876 33.639 24.8083 33.7658 24.7406 33.897H24.7451ZM42.6696 18.8526H42.6741C42.2674 18.9476 41.8609 19.0561 41.4587 19.1737C41.8609 19.0561 42.2629 18.9476 42.6696 18.8526ZM24.1442 35.0911C24.2888 34.797 24.4379 34.5031 24.587 34.2135C24.483 34.4171 24.3745 34.6206 24.2751 34.8243C24.2299 34.9147 24.1893 35.0051 24.1442 35.0911ZM26.1999 31.4092C26.2587 31.3187 26.3129 31.2328 26.3718 31.1424C26.3174 31.2328 26.2587 31.3187 26.2044 31.4092H26.1999ZM42.6741 18.8526C42.6741 18.8526 42.6921 18.8526 42.7011 18.848C42.6921 18.848 42.6831 18.848 42.6741 18.8526Z" fill="black"/>
<path d="M74.4406 58.1876C74.4406 44.0726 63.0026 32.627 48.8969 32.627C63.0026 32.627 74.4406 21.1814 74.4406 7.06641C74.4406 21.1814 85.8787 32.627 99.9844 32.627C85.8787 32.627 74.4406 44.0726 74.4406 58.1876Z" fill="white"/>
<path d="M91.3801 32.6479C82.9467 32.6479 81.4265 33.0929 78.1492 30.201C77.1094 29.2824 73.825 25.1994 74.5134 13.9332C75.166 25.3716 89.3434 32.6623 91.3801 32.6479Z" fill="black"/>
<path d="M76.8875 36.2712C75.0158 38.3952 74.5425 39.7802 74.4421 42.7869C74.3417 39.7874 73.8684 38.3952 71.9967 36.2712C71.0788 35.2307 66.9984 31.9441 55.7397 32.633C67.1705 33.286 74.4565 47.4728 74.4421 49.5107C74.4421 49.5035 74.4421 49.4892 74.4421 49.482V49.5107C74.4278 47.4728 81.7065 33.286 93.1446 32.633C81.8858 31.9441 77.8054 35.2307 76.8875 36.2712Z" fill="black"/>
</g>
<defs>
<clipPath id="clip0_15980_5190">
<rect width="100" height="100" fill="white"/>
</clipPath>
</defs>
</svg>
