<svg width="100" height="100" viewBox="0 0 100 100" fill="none" xmlns="http://www.w3.org/2000/svg">
<g clip-path="url(#clip0_15980_5132)">
<rect width="100" height="100" fill="#FFB16A"/>
<path d="M91.3067 31.5228C91.6522 38.1188 86.0769 38.7821 86.0769 38.7821C92.7448 40.5386 94.6033 46.0321 94.6033 46.0321C94.706 39.6977 99.9824 38.7915 99.9824 38.7915C93.025 37.2219 91.3067 31.5322 91.3067 31.5322V31.5228ZM7.50017 48.0128C7.99513 57.4957 -0.0175781 58.4486 -0.0175781 58.4486C9.57338 60.9805 12.2443 68.8751 12.2443 68.8751C12.3937 59.766 19.9768 58.458 19.9768 58.458C9.97495 56.197 7.50017 48.0128 7.50017 48.0128Z" fill="white"/>
<path d="M19.5285 19.6182C21.2468 16.694 23.6002 14.3956 26.598 12.7139C29.5864 11.0322 32.9203 10.1914 36.5905 10.1914C40.2606 10.1914 43.5853 11.0322 46.583 12.7139C49.5715 14.3956 51.9248 16.694 53.6525 19.6182C55.3709 22.5332 56.23 25.7191 56.23 29.1572C56.23 32.5953 55.3709 35.912 53.6525 38.8737C51.9342 41.8353 49.5715 44.171 46.583 45.8901C43.5853 47.6091 40.2606 48.4687 36.5905 48.4687C32.9203 48.4687 29.5957 47.6091 26.598 45.8901C23.6002 44.171 21.2468 41.8353 19.5285 38.8737C17.8102 35.9213 16.951 32.6794 16.951 29.1572C16.951 25.635 17.8102 22.5332 19.5285 19.6182ZM83.3779 11.8637H95.6118L32.0985 90.4457H19.8647L83.3779 11.8637ZM29.9599 35.8933C31.7623 37.6871 33.9663 38.584 36.5812 38.584C39.196 38.584 41.5214 37.7058 43.3144 35.9494C45.1075 34.1929 46.004 31.932 46.004 29.1572C46.004 26.3824 45.1075 24.2616 43.3144 22.5332C41.5121 20.8141 39.2707 19.9546 36.5812 19.9546C33.8916 19.9546 31.6596 20.8141 29.9039 22.5332C28.1482 24.2522 27.2704 26.4665 27.2704 29.1572C27.2704 31.8479 28.1669 34.0995 29.9599 35.8933ZM61.4411 63.3984C63.1968 60.4835 65.5782 58.1571 68.5666 56.438C71.555 54.719 74.889 53.8594 78.5591 53.8594C82.2293 53.8594 85.4418 54.719 88.4302 56.438C91.4187 58.1571 93.7721 60.4835 95.4997 63.3984C97.2274 66.3133 98.0772 69.4992 98.0772 72.9373C98.0772 76.3755 97.2181 79.6735 95.4997 82.5978C93.7814 85.5127 91.4187 87.8391 88.4302 89.5581C85.4325 91.2772 82.1452 92.1367 78.5591 92.1367C74.973 92.1367 71.5643 91.2772 68.5666 89.5581C65.5688 87.8391 63.1968 85.522 61.4411 82.5978C59.6854 79.6735 58.8075 76.4596 58.8075 72.9373C58.8075 69.4151 59.6854 66.3133 61.4411 63.3984ZM71.7698 79.6735C73.6002 81.4766 75.8602 82.3642 78.5591 82.3642C81.258 82.3642 83.3873 81.486 85.1803 79.7295C86.9734 77.9731 87.8699 75.7122 87.8699 72.9373C87.8699 70.1626 86.9734 68.0417 85.1803 66.3133C83.3779 64.5943 81.174 63.7347 78.5591 63.7347C75.9443 63.7347 73.6002 64.5943 71.7698 66.3133C69.9301 68.0324 69.0242 70.2466 69.0242 72.9373C69.0242 75.6281 69.9394 77.8797 71.7698 79.6735Z" fill="white"/>
<path d="M39.2427 64.2506L33.8822 62.9707L31.809 65.5306L37.1602 66.8292L39.2427 64.2506Z" fill="black"/>
<path d="M32.6777 36.211C33.8264 36.8556 35.1245 37.1826 36.5907 37.1826C38.9254 37.1826 40.8118 36.4539 42.3434 34.9404C43.8656 33.4455 44.6127 31.5489 44.6127 29.1479C44.6127 26.7468 43.8749 24.9997 42.3527 23.5422C41.0453 22.2903 39.4764 21.5896 37.5993 21.4027C38.832 22.9723 39.467 24.8689 39.467 27.1018C39.467 29.8766 38.5705 32.1375 36.7775 33.894C35.6008 35.0431 34.2373 35.8092 32.6777 36.211Z" fill="black"/>
<path d="M81.3234 70.8907C81.3234 73.6655 80.4269 75.9265 78.6338 77.6829C77.4478 78.8414 76.075 79.6168 74.5341 80.0092C75.7108 80.6539 77.0369 80.9715 78.5498 80.9715C80.8098 80.9715 82.6589 80.2428 84.1904 78.7293C85.7126 77.2344 86.4597 75.3379 86.4597 72.9368C86.4597 70.5357 85.722 68.7886 84.1998 67.3311C82.8643 66.0512 81.3047 65.3505 79.437 65.1823C80.679 66.7519 81.3141 68.6484 81.3141 70.8907H81.3234Z" fill="black"/>
<path d="M19.1645 17.6005C19.7995 16.6849 20.5093 15.8347 21.2844 15.0406L15.9332 13.7606C15.1488 14.5361 14.4484 15.3863 13.804 16.3019L19.1645 17.6098V17.6005Z" fill="black"/>
<path d="M23.4135 13.1444C24.198 12.5465 25.0291 11.9859 25.907 11.4908C28.7833 9.86513 31.9959 8.97757 35.4606 8.81874C33.7422 8.37029 31.9398 8.13672 30.0441 8.13672C26.3739 8.13672 23.0493 8.97757 20.0515 10.6593C19.3791 11.033 18.7534 11.4441 18.1464 11.8832L23.4135 13.1444Z" fill="black"/>
<path d="M33.2659 71.6488L27.9148 70.3501L13.3276 88.4004L18.4266 90.0073L33.2659 71.6488Z" fill="black"/>
<path d="M60.2365 83.3183C58.3594 80.1885 57.3975 76.6943 57.3975 72.9385C57.3975 69.1827 58.3501 65.8007 60.2365 62.6708C62.1136 59.5597 64.6818 57.0558 67.8663 55.2153C70.7146 53.571 73.8899 52.6647 77.3079 52.4872C75.6175 52.0294 73.8525 51.7959 72.0127 51.7959C69.043 51.7959 66.2881 52.3751 63.7572 53.5056L52.6067 67.3048C52.3826 68.4633 52.2705 69.6499 52.2705 70.8738C52.2705 74.396 53.1484 77.6099 54.9041 80.5342C56.6691 83.4491 59.0411 85.7755 62.0295 87.4945C63.0475 88.0831 64.1121 88.5596 65.2141 88.952C63.2343 87.3824 61.5626 85.5045 60.2459 83.309L60.2365 83.3183Z" fill="black"/>
<path d="M20.0515 43.837C21.0788 44.4256 22.1528 44.9114 23.2641 45.3038C21.2749 43.7249 19.6126 41.8096 18.3238 39.586C16.4841 36.4282 15.5502 32.9247 15.5502 29.1689C15.5502 26.936 15.8958 24.7871 16.5775 22.7504L11.2637 21.4611C10.694 23.2642 10.4045 25.1515 10.4045 27.1228C10.4045 30.645 11.2637 33.8776 12.982 36.8393C14.7004 39.7916 17.0538 42.1366 20.0515 43.8557V43.837Z" fill="black"/>
<path d="M54.8572 39.5742C53.0174 42.7321 50.4679 45.264 47.2741 47.0951C46.9472 47.282 46.611 47.4595 46.2748 47.6277L35.5072 60.9598L40.8676 62.2398L82.2852 10.9854L82.7055 10.4622H91.1291L89.0559 9.8082H76.8221L56.9584 34.3797C56.4915 36.1921 55.7911 37.9299 54.8385 39.5649L54.8572 39.5742Z" fill="black"/>
</g>
<defs>
<clipPath id="clip0_15980_5132">
<rect width="100" height="100" fill="white"/>
</clipPath>
</defs>
</svg>
