<svg width="100" height="100" viewBox="0 0 100 100" fill="none" xmlns="http://www.w3.org/2000/svg">
<g clip-path="url(#clip0_15980_5095)">
<rect width="100" height="100" fill="#FFB16A"/>
<path d="M96.7848 44.0475C92.332 45.3833 80.8832 47.2535 70.7406 44.0475C69.2068 45.5218 67.584 47.6592 67.584 50.1528L73.9467 62.69C73.9467 62.69 74.0456 62.6703 74.0852 62.6604L77.1527 61.8193C77.1527 61.8193 82.1201 60.3152 86.761 64.6988C89.4921 67.0538 91.8273 70.7744 93.0741 75.2867C93.9746 78.562 94.1725 81.7779 93.7767 84.5981C98.4472 83.2523 99.9414 81.0457 99.9414 79.6603V50.1528C99.9414 47.6691 98.3186 45.5218 96.7848 44.0475Z" fill="black"/>
<path d="M70.4636 36.0217V41.9589C70.4636 43.3937 76.4205 44.5613 83.7627 44.5613C91.105 44.5613 97.0619 43.3937 97.0619 41.9589V36.0217H70.4636Z" fill="black"/>
<path d="M83.7627 38.6249C91.105 38.6249 97.0619 37.4565 97.0619 36.0217C97.0619 34.5869 91.105 33.42 83.7627 33.42C76.4205 33.42 70.4636 34.5869 70.4636 36.0217C70.4636 37.4565 76.4205 38.6249 83.7627 38.6249Z" fill="white"/>
<path d="M78.8246 36.982L87.2059 34.5774L88.8485 34.7358L80.4969 37.1799L78.8345 36.982H78.8246Z" fill="black"/>
<path d="M96.9235 47.3519C96.9235 47.3519 98.1308 51.4782 87.2658 53.9916C87.2658 53.9916 101.881 53.5859 96.9235 47.3519Z" fill="white"/>
<path d="M13.7752 44.4029V49.0636C13.7752 50.1916 18.4458 51.102 24.2147 51.102C29.9836 51.102 34.6542 50.1817 34.6542 49.0636V44.4029H13.7752Z" fill="black"/>
<path d="M24.2147 46.4511C29.9836 46.4511 34.6542 45.5407 34.6542 44.4127C34.6542 43.2846 29.9836 42.3743 24.2147 42.3743C18.4458 42.3743 13.7752 43.2846 13.7752 44.4127C13.7752 45.5407 18.4458 46.4511 24.2147 46.4511Z" fill="white"/>
<path d="M20.3464 45.1655L26.9168 43.2854L28.2032 43.4042L21.6526 45.3238L20.3464 45.1655Z" fill="black"/>
<path d="M11.5197 55.4959C11.5197 53.5465 12.7962 51.8644 14.0034 50.7066C21.9691 53.22 30.9539 51.7555 34.4469 50.7066C35.6542 51.8644 36.9306 53.5465 36.9306 55.4959V78.6507C36.9306 80.3032 34.2787 83.44 24.2252 83.44C14.1716 83.44 11.5197 80.3032 11.5197 78.6507V55.4959Z" fill="black"/>
<path d="M34.5547 53.2989C34.5547 53.2989 35.4947 56.5446 26.975 58.5038C26.975 58.5038 38.4435 58.1872 34.5547 53.2989Z" fill="white"/>
<path d="M14.0329 4.36719C14.0329 4.36719 16.3682 12.1151 25.8478 14.2525C25.8478 14.2525 18.6639 15.4894 18.5254 24.1082C18.5254 24.1082 15.9922 16.6373 6.91826 14.2426C6.91826 14.2426 14.5079 13.3422 14.0329 4.36719Z" fill="white"/>
<path d="M5.10671 59.8987C5.10671 59.8987 6.80869 65.5291 13.7057 67.0925C13.7057 67.0925 8.48098 67.993 8.38203 74.2666C8.38203 74.2666 6.54152 68.8242 -0.0585938 67.0826C-0.0585938 67.0826 5.46294 66.4296 5.1265 59.8987H5.10671Z" fill="white"/>
<path d="M34.2699 20.9711V29.9065C34.2699 32.0736 43.2251 33.825 54.278 33.825C65.331 33.825 74.2862 32.0637 74.2862 29.9065V20.9711H34.2699Z" fill="black"/>
<path d="M54.2686 24.8892C65.3215 24.8892 74.2767 23.1378 74.2767 20.9806C74.2767 18.8235 65.3215 17.0621 54.2686 17.0621C43.2156 17.0621 34.2604 18.8136 34.2604 20.9806C34.2604 23.1477 43.2156 24.8892 54.2686 24.8892Z" fill="white"/>
<path d="M46.8461 22.4258L59.4427 18.8141L61.9066 19.0516L49.3397 22.7227L46.8362 22.4258H46.8461Z" fill="black"/>
<path d="M36.7824 35.8736C36.7824 35.8736 33.3883 38.5849 33.3883 44.4627V59.5924C33.3883 59.5924 34.18 46.9563 44.9163 47.4015C44.9163 47.4015 32.6066 45.8183 36.7824 35.8736Z" fill="#F3F3F5"/>
<path d="M74.0773 38.0208C74.0773 38.0208 75.8881 44.235 59.5412 48.0051C59.5412 48.0051 81.5284 47.4015 74.0773 38.0208Z" fill="#F3F3F5"/>
<path d="M66.211 74.3163C66.5178 68.5474 69.0807 63.9659 73.1971 62.8378C73.4939 62.7587 73.7908 62.6993 74.0876 62.6597L77.1552 61.8186C77.1552 61.8186 77.7093 61.6504 78.6098 61.591V42.2261C78.6098 38.4857 76.1656 35.2598 73.8601 33.0532C67.161 35.0619 49.9433 37.8821 34.675 33.0532C32.3694 35.2697 29.9253 38.4857 29.9253 42.2261V86.616C29.9253 89.7924 35.0114 95.7988 54.2675 95.7988C60.5015 95.7988 65.2413 95.1655 68.8135 94.2057C67.725 92.1079 67.25 90.4158 67.25 90.4158C65.5975 83.7068 65.6668 78.2546 66.2011 74.3064L66.211 74.3163Z" fill="white"/>
<path d="M66.1798 75.0785C66.2985 68.9534 68.8911 64.0058 73.1955 62.8382C73.4923 62.759 73.7883 62.6999 74.0852 62.6604L74.3136 62.6007C74.4027 61.7497 74.2246 61.0075 73.7298 60.4831L72.8788 59.6024C71.8102 58.4843 69.6431 58.7613 67.6344 60.1071C67.6146 60.018 67.5849 59.9389 67.5552 59.8597L67.0802 58.7316C66.348 56.9901 63.3794 56.5745 60.4306 57.8015C59.8171 58.0588 59.263 58.3655 58.7584 58.7119C58.5506 58.5832 58.3428 58.4645 58.1251 58.3556C56.6804 57.6135 55.206 57.2968 53.979 57.3859L53.6623 56.6734C52.8905 54.9517 49.912 54.5954 46.9929 55.8917C44.8655 56.8417 43.3614 58.4051 43.0151 59.8498C42.5599 59.741 42.0948 59.6519 41.6 59.6123C38.4237 59.3254 35.7124 60.6216 35.5442 62.5017L35.4947 63.0262C33.4068 64.3818 32.2985 66.3312 32.9318 67.7759L33.4266 68.894C33.6146 69.3294 33.951 69.6758 34.3864 69.933L34.3271 70.5564C34.2479 71.4173 34.7229 72.2485 35.564 72.9313C33.9115 74.4947 33.199 76.4045 33.9708 77.6711L34.614 78.7101C34.6635 78.7893 34.7427 78.8486 34.802 78.9278C34.7822 78.9377 34.7625 78.9476 34.7526 78.9674L33.9016 79.848C32.724 81.0454 33.2188 83.4796 34.9505 85.5675C34.5645 86.0128 34.3271 86.4877 34.3271 86.9726C34.3271 90.1589 43.2822 92.7316 54.3352 92.7316C59.4312 92.7316 64.0721 92.1775 67.6047 91.277C67.4167 90.7427 67.3177 90.4161 67.3177 90.4161C65.7741 84.1624 65.7345 78.9773 66.1699 75.1082L66.1798 75.0785Z" fill="black"/>
<path d="M72.859 80.7978C70.4545 72.0801 73.0075 63.7583 78.5785 62.2146C84.1495 60.6808 90.6111 66.4992 93.0255 75.2268C95.43 83.9445 92.8771 92.2664 87.3061 93.81C81.7351 95.3438 75.2735 89.5254 72.859 80.7978Z" fill="white"/>
<path d="M72.8606 65.6882L68.3483 66.7074C69.5457 64.768 71.1883 63.3827 73.197 62.8285L77.3926 61.7598C75.6411 62.4723 73.9095 63.8477 72.8507 65.6882H72.8606Z" fill="black"/>
<path d="M67.3873 68.5971L71.9688 67.568C71.8105 68.0034 71.6621 68.4487 71.5236 68.9039L66.9124 69.9428C67.0509 69.4778 67.2092 69.0325 67.3873 68.5971Z" fill="black"/>
<path d="M70.8906 72.664C70.6927 75.2961 70.9599 78.1855 71.7713 81.1244C74.3144 90.327 81.1718 96.462 87.099 94.8392L82.4185 96.1751C76.4913 97.8177 69.6141 91.6727 67.0711 82.4603C66.23 79.4126 65.9628 76.4242 66.2102 73.7129L70.8906 72.664Z" fill="black"/>
<path d="M90.9687 75.8507C88.8412 68.1324 83.2207 62.8978 78.2533 63.8577C78.471 63.7686 78.6986 63.6795 78.9262 63.6202C84.0124 62.215 89.9198 67.5387 92.1264 75.5043C94.3232 83.47 91.9879 91.0794 86.9018 92.4746C86.7434 92.5241 86.5752 92.5538 86.4169 92.5835C91.0281 90.7133 93.0665 83.4502 90.9588 75.8408H90.9687V75.8507Z" fill="black"/>
<path d="M75.3028 82.3413C74.907 81.0846 74.6398 79.8279 74.5112 78.6009C75.2038 80.5404 76.2428 81.2627 76.8167 81.4309C77.4797 81.6288 78.1724 81.3518 78.1724 81.3518C80.2999 87.7837 83.6741 89.5648 86.237 89.4856C87.7312 89.4362 88.7999 88.5456 89.4332 87.8232C88.7009 89.5351 87.5531 90.7918 86.049 91.3163C82.1404 92.6818 77.3412 88.6544 75.3226 82.3314L75.3028 82.3413Z" fill="#FFB16A"/>
</g>
<defs>
<clipPath id="clip0_15980_5095">
<rect width="100" height="100" fill="white"/>
</clipPath>
</defs>
</svg>
