<svg width="100" height="100" viewBox="0 0 100 100" fill="none" xmlns="http://www.w3.org/2000/svg">
<g clip-path="url(#clip0_15980_4953)">
<rect width="100" height="100" fill="#FFB16A"/>
<path d="M84.6238 15.4795L26.4513 5.17615L4.8518 73.1247L0.797349 74.2044L2.76755 77.4332C3.21343 78.2044 3.99114 78.7494 4.87254 78.9037L71.6828 90.7392C72.6886 90.914 73.6737 90.3278 73.9848 89.3612L91.955 32.8265C92.2661 31.8394 92.1831 30.77 91.7268 29.8342L84.6342 15.4795H84.6238Z" fill="black"/>
<path d="M80.1959 10.1655L34.5911 2.08328L26.6585 27.0396C26.2541 28.2941 27.0629 29.6206 28.3695 29.8468L68.6443 36.983C70.2827 37.2709 71.8796 36.3147 72.3773 34.7414L80.1855 10.1553L80.1959 10.1655Z" fill="white"/>
<path d="M80.6418 10.2448L25.3002 0.43502C24.2944 0.260213 23.3093 0.846296 22.9982 1.81288L0.538 72.4864C0.164701 73.6484 0.911298 74.8617 2.12452 75.0777L69.4428 87.0057C70.4487 87.1805 71.4338 86.5944 71.7449 85.6278L89.8706 28.5893C90.1817 27.6021 90.0987 26.5327 89.6425 25.5969L82.8505 11.8798C82.4254 11.016 81.6062 10.4093 80.6522 10.2345L80.6418 10.2448Z" fill="white"/>
<path d="M19.8666 43.8521L9.52832 76.3868L61.334 85.5694L71.7967 52.6542C72.2011 51.3997 71.3923 50.0732 70.0858 49.847L23.5996 41.6105C21.9613 41.3226 20.3644 42.2789 19.8666 43.8521Z" fill="black"/>
<path d="M52.8417 34.1871L68.655 36.984C70.2934 37.2719 71.8903 36.3156 72.388 34.7423L80.1962 10.1562L59.0529 6.41329L51.1203 31.3696C50.7159 32.6241 51.5247 33.9506 52.8313 34.1768L52.8417 34.1871Z" fill="black"/>
<path d="M5.54639 2.75006C5.54639 2.75006 6.98774 7.49042 12.8361 8.79633C12.8361 8.79633 8.40835 9.55725 8.31502 14.8323C8.31502 14.8323 6.75961 10.2565 1.14975 8.79633C1.14975 8.79633 5.83673 8.24106 5.54639 2.75006Z" fill="white"/>
<path d="M29.2092 88.322C29.2092 88.322 30.6506 93.0624 36.4989 94.3683C36.4989 94.3683 32.0712 95.1292 31.9779 100.404C31.9779 100.404 30.4225 95.8285 24.8126 94.3683C24.8126 94.3683 29.4996 93.813 29.2092 88.322Z" fill="white"/>
<path d="M85.5878 36.8439C85.5878 36.8439 88.3254 45.8516 99.4414 48.34C99.4414 48.34 91.0214 49.7796 90.8555 59.8053C90.8555 59.8053 87.8899 51.1164 77.2405 48.3297C77.2405 48.3297 86.1374 47.2809 85.5878 36.8439Z" fill="white"/>
<path d="M49.8345 33.6617C49.6478 33.271 49.5545 32.8699 49.513 32.4998L28.8364 28.8596C28.8364 28.8596 28.8157 28.8596 28.8053 28.8596C28.1209 28.7259 27.7165 28.0062 27.9239 27.3378L35.8565 2.31977L34.6018 2.08328L26.6692 27.0396C26.3062 28.1707 26.8455 29.271 28.0172 29.744C28.1935 29.8365 28.6497 29.9394 28.6497 29.9394L49.8345 33.6617Z" fill="black"/>
<path d="M77.2199 11.634L70.5524 32.5184C70.5524 32.5184 73.2795 22.7908 68.5407 18.0813C68.5407 18.0813 72.2426 12.3127 64.7248 9.36156L77.2303 11.634H77.2199Z" fill="white"/>
</g>
<defs>
<clipPath id="clip0_15980_4953">
<rect width="100" height="100" fill="white"/>
</clipPath>
</defs>
</svg>
