<svg width="100" height="100" viewBox="0 0 100 100" fill="none" xmlns="http://www.w3.org/2000/svg">
<g clip-path="url(#clip0_15980_4967)">
<rect width="100" height="100" fill="#FFB16A"/>
<path d="M96.5732 68.1625L74.1396 17.1297L67.2879 13.8639L11.712 24.7743L7.3287 22.8563L6.14894 26.1674C5.84946 26.9998 5.87668 27.9135 6.23969 28.7277C10.7863 39.1043 27.3211 76.8383 31.2688 85.8308C31.7679 86.9617 32.984 87.5859 34.2001 87.3416L96.5641 74.7395C97.4626 74.5586 98.1977 73.9252 98.5153 73.0658L99.7314 69.7185L96.5732 68.1534V68.1625Z" fill="black"/>
<path d="M76.6895 18.3446L62.8681 11.7496C62.1875 11.4239 61.4161 11.3244 60.672 11.4691L8.64443 21.6829C7.54635 21.9 6.92924 23.0671 7.37392 24.0893C11.4486 33.4075 28.655 72.6614 32.6934 81.8529C33.1926 82.9837 34.4086 83.6079 35.6247 83.3637L98.5333 70.662C99.6314 70.4449 100.239 69.2688 99.7947 68.2466L78.8131 20.5159C78.3956 19.5569 77.6424 18.7789 76.6895 18.3266V18.3446Z" fill="white"/>
<path d="M29.9983 54.7872L42.0137 82.1265L92.1536 72.0032L80.12 44.6187C79.6209 43.4878 78.4048 42.8545 77.1888 43.0988L31.2597 52.3717C30.1616 52.5889 29.5536 53.7649 29.9983 54.7872Z" fill="black"/>
<path d="M83.9497 19.9987C83.9497 19.9987 85.2111 24.1693 90.3295 25.3182C90.3295 25.3182 86.4544 25.9877 86.3727 30.6287C86.3727 30.6287 85.0115 26.6029 80.1018 25.3182C80.1018 25.3182 84.2038 24.8297 83.9497 19.9987Z" fill="white"/>
<path d="M7.24686 41.0395C7.24686 41.0395 9.64269 48.9644 19.3712 51.1538C19.3712 51.1538 12.0022 52.4203 11.857 61.2409C11.857 61.2409 9.26153 53.5964 -0.0585938 51.1447C-0.0585938 51.1447 7.72784 50.2219 7.24686 41.0395Z" fill="white"/>
<path d="M54.2468 35.1354L67.4601 32.4667C68.5582 32.2495 69.1663 31.0734 68.7216 30.0511L60.5631 11.4962L43.1026 14.925L51.3155 33.6156C51.8147 34.7464 53.0307 35.3797 54.2468 35.1354Z" fill="black"/>
<path d="M68.3315 78.7744C68.3315 78.7744 69.5929 82.9449 74.7113 84.0938C74.7113 84.0938 70.8362 84.7633 70.7545 89.4043C70.7545 89.4043 69.3932 85.3784 64.4836 84.0938C64.4836 84.0938 68.5856 83.6053 68.3315 78.7744Z" fill="white"/>
<path d="M50.4807 34.9301L30.5336 38.9921C30.4247 39.0102 30.3158 39.0283 30.2069 39.0283C29.5535 39.0283 28.9636 38.6393 28.7004 38.0422L20.4966 19.3697L19.5074 19.5597L27.802 38.4312C28.2285 39.3992 29.1814 40.0053 30.2069 40.0053C30.3793 40.0053 30.5518 39.9872 30.7333 39.9511L51.3156 35.7624C50.8981 35.4548 50.6259 35.1382 50.4898 34.9301H50.4807Z" fill="black"/>
<path d="M66.1805 28.9764L59.3651 13.7508L49.328 15.6144C49.328 15.6144 55.3176 15.5601 55.5263 20.753C55.5263 20.753 61.5522 20.2463 66.1805 28.9764Z" fill="white"/>
</g>
<defs>
<clipPath id="clip0_15980_4967">
<rect width="100" height="100" fill="white"/>
</clipPath>
</defs>
</svg>
