<svg width="100" height="100" viewBox="0 0 100 100" fill="none" xmlns="http://www.w3.org/2000/svg">
<rect width="100" height="100" fill="#FFB065"/>
<path d="M99.9843 39.5007L99.4669 34.7426C99.2957 35.0577 99.0817 35.3612 98.8132 35.6413L50.8934 85.7673C49.8935 86.8139 48.3723 87.3742 46.8667 87.3742C45.9174 87.3742 44.9759 87.1524 44.1744 86.6894L14.5168 69.3764C13.5519 68.82 12.9139 68.003 12.6843 67.0537L13.3224 72.9207C13.4196 73.8155 13.9721 74.6637 14.9447 75.2239L45.1587 92.856C47.0184 93.9298 49.7068 93.5641 51.1657 92.0351L99.0856 41.909C99.782 41.1815 100.074 40.3216 99.9843 39.5046V39.5007Z" fill="black"/>
<path d="M98.7024 32.8251C98.6012 32.1053 98.1305 31.4712 97.3796 31.0354H97.3757L67.722 13.7224C67.0878 13.3567 66.3408 13.1816 65.5899 13.1816C64.4072 13.1816 63.2128 13.6174 62.4269 14.4383L51.8446 25.5069V25.5147C39.4845 38.6157 26.9497 51.5462 14.5032 64.5643C13.9313 65.1635 13.6706 65.8755 13.7717 66.5719C13.8768 67.2955 14.3475 67.9297 15.0984 68.3654L44.7561 85.6784C46.3901 86.6238 48.7633 86.3009 50.0472 84.9587L97.9671 34.8326C98.539 34.2374 98.7996 33.5215 98.6985 32.8251H98.7024Z" fill="white"/>
<path d="M31.7091 82.4877C31.8803 82.0014 31.5652 81.34 31.005 81.0132L26.737 78.5154C26.1807 78.1886 25.5893 78.3209 25.422 78.8072C25.2508 79.2935 25.566 79.9549 26.1262 80.2817L30.3941 82.7795C30.9505 83.1063 31.5419 82.974 31.7091 82.4877Z" fill="#FFB065"/>
<path d="M38.1234 68.7854C40.0726 69.9097 40.4071 72.1196 38.8782 73.7186C37.3492 75.3176 34.5324 75.7028 32.5871 74.5784C30.638 73.454 30.2956 71.2442 31.8246 69.6452C33.3536 68.0462 36.1703 67.661 38.1234 68.7854Z" fill="#FFB065"/>
<path d="M74.7457 22.8458C75.4187 23.2349 75.5393 24.0013 75.0102 24.5538C74.4811 25.1062 73.5007 25.2424 72.8276 24.8534C72.1546 24.4643 72.0378 23.6979 72.567 23.1454C73.0961 22.5929 74.0687 22.4568 74.7457 22.8497V22.8458Z" fill="#FFB065"/>
<path d="M84.202 28.2997C84.8751 28.6887 84.9957 29.4552 84.4666 30.0076C83.9375 30.5601 82.9571 30.6963 82.284 30.3072L76.8567 27.1753C76.1836 26.7862 76.063 26.0198 76.5921 25.4634C77.1212 24.911 78.0978 24.7787 78.7747 25.1678L84.202 28.2997Z" fill="#FFB065"/>
<path d="M86.8605 51.4612C87.0861 51.8814 87.5296 51.9515 87.8526 51.613L92.5757 46.6914C92.8986 46.3568 92.9803 45.7421 92.7547 45.3219C92.529 44.9017 92.0855 44.8317 91.7626 45.1702L87.0394 50.0918C86.7165 50.4264 86.6348 51.0411 86.8605 51.4612Z" fill="#FFB065"/>
<path d="M79.8732 58.7447C80.0989 59.1649 80.5424 59.2349 80.8653 58.8964L85.5884 53.9749C85.9114 53.6403 85.9931 53.0256 85.7674 52.6054C85.5418 52.1852 85.0982 52.1152 84.7753 52.4537L80.0522 57.3752C79.7293 57.7098 79.6476 58.3245 79.8732 58.7447Z" fill="#FFB065"/>
<path d="M68.2378 39.8364C68.6203 43.4 66.4734 45.4599 66.4734 45.4599C72.1229 51.5962 76.8164 50.6575 76.8164 50.6575C76.8164 50.6575 78.4505 45.8597 73.7135 38.889C73.7135 38.889 71.4624 40.8186 68.2378 39.8277V39.8364Z" fill="black"/>
<path d="M49.3423 55.0554C49.3423 55.0554 35.0445 58.4886 22.998 55.4726L30.3163 47.7284L49.3509 55.0554H49.3423Z" fill="#FFB065"/>
<path d="M50.5504 44.7733C50.3418 37.4897 48.1602 26.7034 39.9031 13.6139C39.9031 13.6139 35.905 16.795 29.6645 17.3599L26.014 12.5709L20.6773 16.23C21.5899 28.7199 12.6724 34.3868 12.6724 34.3868C13.3938 35.2994 14.1152 36.1512 14.8366 36.9856L19.7734 33.5263L20.7729 34.9517L15.9925 38.298C16.4271 38.7847 16.8617 39.2367 17.2963 39.6974L22.8502 35.8035L25.3447 39.3671L20.4427 42.8002C36.105 57.2544 49.3509 55.0467 49.3509 55.0467L55.635 51.4137L50.5678 44.7645L50.5504 44.7733Z" fill="black"/>
<path d="M2.59878 42.5222C3.16374 47.7893 0 50.84 0 50.84C8.34394 59.9053 15.2712 58.5234 15.2712 58.5234C15.2712 58.5234 17.6787 51.431 10.6907 41.1402C10.6907 41.1402 7.36178 43.9823 2.59878 42.5222Z" fill="black"/>
<path d="M45.1442 9.3028C45.1442 9.3028 37.4348 16.0475 25.9271 12.6491L24.9623 13.3792C25.8488 25.8169 18.3219 32.5354 18.3219 32.5354C39.1209 55.1336 55.635 51.431 55.635 51.431C55.635 51.431 62.3797 34.8996 45.1529 9.3115L45.1442 9.3028Z" fill="#FFB065"/>
<path d="M55.6176 6.94736C56 10.5109 53.8532 12.5709 53.8532 12.5709C59.5027 18.7071 64.1962 17.7684 64.1962 17.7684C64.1962 17.7684 65.8302 12.9707 61.0933 6C61.0933 6 58.8422 7.92955 55.6176 6.93871V6.94736Z" fill="black"/>
<path d="M45.1442 9.3028C45.1442 9.3028 40.1639 13.5617 32.4544 13.5617C30.4727 13.5617 28.3173 13.2836 26.0227 12.5796C27.3612 25.0259 19.869 32.24 19.869 32.24C34.9924 48.6671 48.1428 50.5879 53.4708 50.5879C55.0961 50.5879 55.9913 50.4054 55.9913 50.4054C55.9913 50.4054 61.6844 33.648 45.1529 9.3028H45.1442Z" fill="white"/>
<path d="M54.5485 48.1282H54.6354C54.9657 46.4247 55.4003 43.1392 54.9657 38.6196C54.3921 32.6572 52.1671 23.3224 44.9443 12.0841C42.615 13.4922 38.3648 15.4652 32.8456 15.4652C31.481 15.4652 30.1077 15.3435 28.7432 15.1001C28.7518 15.7694 28.7258 16.4212 28.6823 17.0557C29.9426 17.2643 31.2116 17.3773 32.4632 17.3773C37.9737 17.3773 42.2239 15.413 44.5619 13.9963C51.7846 25.2345 54.0096 34.5693 54.5833 40.5318C54.8962 43.7303 54.7658 46.2943 54.5485 48.1282Z" fill="#FFB065"/>
<path d="M27.4394 25.504C26.4833 28.5634 23.9019 31.5272 23.9019 31.5272C27.8566 35.9339 31.6288 39.0194 35.0272 41.1923C29.6644 33.4046 27.4394 25.504 27.4394 25.504Z" fill="#FFB065"/>
</svg>
