<svg width="100" height="100" viewBox="0 0 100 100" fill="none" xmlns="http://www.w3.org/2000/svg">
<g clip-path="url(#clip0_15980_4937)">
<rect width="100" height="100" fill="#FFB16A"/>
<path d="M84.8249 80.1428H83.1605L73.7147 59.992H13.7713L4.32554 80.1428H2.66116V84.2429C2.644 85.6408 3.76791 86.9023 5.31218 86.9023H82.1739C83.7095 86.9023 84.8335 85.6408 84.8163 84.2429V80.1428H84.8249Z" fill="black"/>
<path d="M73.7231 55.9498H13.7797L2.91829 79.1181C2.10326 80.857 3.38162 82.8601 5.32053 82.8601H82.1822C84.1211 82.8601 85.3994 80.8655 84.5844 79.1181L73.7231 55.9498Z" fill="white"/>
<path d="M16.5511 13.9023H70.9437C72.4022 13.9023 73.5861 15.0787 73.5861 16.5277V54.4085H13.9087V16.5363C13.9087 15.0872 15.0926 13.9109 16.5511 13.9109V13.9023Z" fill="white"/>
<path d="M76.4601 70.3639L71.8016 60.5783C71.5099 59.9646 70.8922 59.5725 70.2058 59.5725H17.2803C16.594 59.5725 15.9762 59.9646 15.6845 60.5783L11.026 70.3639C10.6142 71.2333 11.2491 72.2392 12.2185 72.2392H27.1293C27.6698 72.2392 28.0816 72.7165 28.0044 73.245L27.8328 74.3361C27.7127 75.1288 28.3304 75.8533 29.1369 75.8533H58.3321C59.1471 75.8533 59.7649 75.1373 59.6362 74.3361L59.4646 73.245C59.3788 72.7165 59.7992 72.2392 60.3397 72.2392H75.2505C76.2199 72.2392 76.8633 71.2333 76.4429 70.3639H76.4601Z" fill="black"/>
<path d="M43.7474 19.2624C44.3302 19.2624 44.8026 18.7929 44.8026 18.2139C44.8026 17.6349 44.3302 17.1654 43.7474 17.1654C43.1646 17.1654 42.6921 17.6349 42.6921 18.2139C42.6921 18.7929 43.1646 19.2624 43.7474 19.2624Z" fill="black"/>
<path d="M73.5861 43.7098H13.9087V47.8439H73.5861V43.7098Z" fill="#FFB065"/>
<path d="M84.8848 25.4597H2.60955C1.13597 25.4597 -0.0585938 26.6466 -0.0585938 28.1107V42.1583C-0.0585938 43.6224 1.13597 44.8093 2.60955 44.8093H84.8848C86.3584 44.8093 87.5529 43.6224 87.5529 42.1583V28.1107C87.5529 26.6466 86.3584 25.4597 84.8848 25.4597Z" fill="black"/>
<path d="M16.1304 31.7756L12.2011 34.026V29.5253H10.9142V34.026L6.98496 31.7756L6.34151 32.8837L10.2708 35.1341L6.34151 37.393L6.98496 38.5011L10.9142 36.2422V40.7514H12.2011V36.2422L16.1304 38.5011L16.7739 37.393L12.8446 35.1341L16.7739 32.8837L16.1304 31.7756Z" fill="white"/>
<path d="M31.0584 31.7756L27.1291 34.026V29.5253H25.8422V34.026L21.9129 31.7756L21.2694 32.8837L25.1987 35.1341L21.2694 37.393L21.9129 38.5011L25.8422 36.2422V40.7514H27.1291V36.2422L31.0584 38.5011L31.7018 37.393L27.7725 35.1341L31.7018 32.8837L31.0584 31.7756Z" fill="white"/>
<path d="M45.9863 31.7756L42.057 34.026V29.5253H40.7701V34.026L36.8408 31.7756L36.1974 32.8837L40.1267 35.1341L36.1974 37.393L36.8408 38.5011L40.7701 36.2422V40.7514H42.057V36.2422L45.9863 38.5011L46.6297 37.393L42.7005 35.1341L46.6297 32.8837L45.9863 31.7756Z" fill="white"/>
<path d="M60.9145 31.7756L56.9851 34.026V29.5253H55.6982V34.026L51.7689 31.7756L51.1255 32.8837L55.0548 35.1341L51.1255 37.393L51.7689 38.5011L55.6982 36.2422V40.7514H56.9851V36.2422L60.9145 38.5011L61.5579 37.393L57.6286 35.1341L61.5579 32.8837L60.9145 31.7756Z" fill="white"/>
<path d="M76.4856 32.8837L75.8422 31.7756L71.9129 34.026V29.5253H70.626V34.026L66.6967 31.7756L66.0532 32.8837L69.9826 35.1341L66.0532 37.393L66.6967 38.5011L70.626 36.2422V40.7514H71.9129V36.2422L75.8422 38.5011L76.4856 37.393L72.5563 35.1341L76.4856 32.8837Z" fill="white"/>
<path d="M81.7792 27.7106H80.4923V42.568H81.7792V27.7106Z" fill="white"/>
<path d="M99.9414 61.4251L85.9314 51.4946L88.1621 68.4489L92.0913 63.6584L98.0711 73.5463L99.8127 72.5063L93.8416 62.6185L99.9414 61.4251Z" fill="white"/>
</g>
<defs>
<clipPath id="clip0_15980_4937">
<rect width="100" height="100" fill="white"/>
</clipPath>
</defs>
</svg>
