<svg width="100" height="100" viewBox="0 0 100 100" fill="none" xmlns="http://www.w3.org/2000/svg">
<g clip-path="url(#clip0_15980_4911)">
<rect width="100" height="100" fill="#FFB16A"/>
<path d="M56.3166 78.0178C56.3166 77.8643 56.2757 77.7722 56.1119 77.721C55.9174 77.6596 55.7229 77.5572 55.5284 77.4651C54.2796 76.851 53.2252 75.9912 52.3551 74.9062C51.6795 74.0567 51.178 73.1253 50.8913 72.071C50.7378 71.508 50.6764 70.9246 50.7173 70.3412C50.7276 70.157 50.748 69.9727 50.8094 69.7987C50.8197 69.5838 50.9016 69.3791 50.9835 69.1744C51.3417 68.2634 51.9866 67.6288 52.8772 67.2399C52.9386 67.2092 53.0819 67.1682 53.0922 67.158C53.1126 67.0966 53.0717 67.0556 53.041 67.0044C52.7236 66.3903 52.3756 65.7967 52.0173 65.203C50.9016 63.3811 49.6323 61.6615 48.2094 60.0545C48.1275 59.9624 48.0456 59.8805 47.974 59.7884C47.9433 59.7475 47.9126 59.727 47.8716 59.727C47.8511 59.727 47.8307 59.727 47.8 59.7475C47.7283 59.7782 47.6566 59.8089 47.585 59.8396C47.0425 60.0443 46.4897 60.1262 45.9369 60.1262C45.5889 60.1262 45.2409 60.0955 44.8928 60.0341C44.1456 59.9113 43.4393 59.6656 42.7637 59.3176C41.781 58.8263 40.9109 58.1712 40.1534 57.3626C39.3652 56.5233 38.751 55.5816 38.3723 54.4967C38.0754 53.6778 37.9526 52.8283 38.0754 51.9583C38.0856 51.8559 38.0652 51.7945 37.9628 51.7331C37.41 51.426 36.8573 51.1394 36.2943 50.8529C34.636 50.0238 32.9163 49.338 31.1352 48.7955C30.7564 48.6829 30.3674 48.5601 29.9784 48.4782C29.9682 48.4782 29.958 48.4782 29.9477 48.4782C29.9273 48.4782 29.9068 48.4782 29.8863 48.4475H29.8658C29.8556 48.4475 29.8454 48.4475 29.8351 48.4577C29.8351 48.7751 29.7737 49.0924 29.6611 49.3892C29.5076 49.7986 29.3335 50.208 29.0367 50.5458C28.7705 50.8426 28.4942 51.119 28.1359 51.3032C27.8493 51.4567 27.5627 51.6 27.2556 51.6922C27.1634 51.7229 26.9485 51.774 26.9178 51.7843C26.5493 51.8559 26.191 51.8866 25.8225 51.8866C25.4233 51.8866 25.024 51.8457 24.6248 51.7638C23.5909 51.5591 22.639 51.1394 21.7586 50.556C20.735 49.8805 19.8751 49.0514 19.1791 48.0381C19.1177 47.946 19.0972 47.9153 19.0358 47.9153C19.0051 47.9153 18.9641 47.9153 18.9129 47.9357C18.1247 48.0893 17.3468 48.294 16.5893 48.5499C15.4326 48.9388 14.3373 49.4506 13.2932 50.0954C13.0577 50.2387 12.8223 50.382 12.6073 50.556C12.6073 50.6277 12.6687 50.6584 12.6995 50.7096C12.8632 50.9962 13.068 51.2623 13.2215 51.5591C13.3341 51.7843 13.4262 52.0197 13.5388 52.2346C13.6617 52.4701 13.7333 52.7157 13.805 52.9716C13.8152 53.033 13.8766 53.074 13.8664 53.1456C13.9381 53.3196 13.9585 53.5141 13.9892 53.6983C14.0711 54.118 14.0507 54.5479 14.0507 54.9675C14.0507 55.1722 14.0097 55.3872 13.9483 55.5816C13.7947 56.1446 13.5593 56.6564 13.1703 57.0965C12.7711 57.5571 12.2695 57.8642 11.7065 58.0893C11.4097 58.2019 11.1026 58.2736 10.7853 58.3248C10.6419 58.3452 10.4986 58.3657 10.3553 58.3657C10.3349 58.3657 10.3144 58.3657 10.2939 58.3657C10.2325 58.3657 10.1711 58.3657 10.1097 58.3657C10.0073 58.3657 9.90493 58.3657 9.79233 58.3657C9.63879 58.3657 9.48524 58.3657 9.33169 58.335C9.19862 58.294 9.06555 58.3043 8.93248 58.2736C8.67657 58.2326 8.43089 58.1712 8.18522 58.0996C7.86789 58.0177 7.57104 57.8846 7.27418 57.7823C7.25371 57.7823 7.23324 57.7823 7.223 57.7516C7.223 57.7516 7.20253 57.7516 7.19229 57.7516C7.18206 57.7516 7.17182 57.7516 7.16158 57.7618C7.10017 57.946 7.04898 58.12 6.98757 58.3043C6.81355 58.8263 6.69071 59.3585 6.57811 59.8908C6.49622 60.249 6.44504 60.6175 6.39386 60.9757C6.36315 61.1907 6.34267 61.4159 6.3222 61.6308C6.30173 61.8765 6.28126 62.1324 6.26078 62.378C6.21984 62.7158 6.25055 63.0535 6.24031 63.3913C6.24031 63.6063 6.24031 63.811 6.24031 64.0259C6.24031 64.3227 6.24031 64.6093 6.27102 64.9062C7.05922 65.1928 7.786 65.6022 8.4616 66.0935C8.89153 66.4108 9.31122 66.769 9.67973 67.158C9.94587 67.4446 10.212 67.7312 10.427 68.0587C10.4782 68.0792 10.4986 68.1303 10.5293 68.1713C10.7545 68.4988 10.9695 68.8366 11.1538 69.1948C11.3994 69.6861 11.5939 70.1979 11.7168 70.7302C11.7168 70.7711 11.7782 70.9656 11.7884 71.0167C11.8191 71.16 11.8396 71.3033 11.8396 71.4364C11.8396 71.6616 11.901 71.8765 11.8805 72.0915C11.8396 72.4702 11.8191 72.8387 11.7065 73.2071C11.5939 73.5756 11.4404 73.9236 11.2254 74.2307C11.0207 74.5275 10.7648 74.7936 10.4782 75.0188C10.2018 75.2235 9.90493 75.3771 9.5876 75.5101C9.53642 75.5306 9.45453 75.5204 9.44429 75.6022C9.54666 75.7865 9.64902 75.9707 9.75138 76.155C9.89469 76.4313 10.0482 76.6974 10.212 76.9636C10.3041 77.1171 10.3758 77.2911 10.4679 77.4549C10.5908 77.6596 10.7341 77.8541 10.8671 78.0588C11.0719 78.3863 11.2868 78.7241 11.512 79.0311C11.553 79.0925 11.5939 79.154 11.6144 79.2154C11.6656 79.328 11.7577 79.4098 11.8294 79.5122C11.9624 79.7067 12.0853 79.9012 12.2286 80.0956C12.3105 80.2082 12.3924 80.3106 12.4743 80.4232C12.6892 80.6688 12.8735 80.9349 13.068 81.1806C13.2215 81.3648 13.3648 81.5491 13.5184 81.7435C13.631 81.8868 13.7436 82.0199 13.8562 82.1632C13.9688 82.327 14.1325 82.4498 14.2554 82.6033C14.3782 82.7568 14.5113 82.9001 14.6341 83.0434C14.716 83.0434 14.7774 82.9923 14.8491 82.9616C15.3097 82.7773 15.7806 82.6647 16.2719 82.6443C16.3641 82.6443 16.446 82.6238 16.5381 82.6238C16.5688 82.6238 16.6097 82.6238 16.6405 82.6238C16.7019 82.6238 16.7633 82.6135 16.8247 82.6135C16.9783 82.6135 17.1318 82.634 17.2853 82.6545C17.8483 82.7159 18.3909 82.8387 18.9129 83.0332C19.8035 83.3505 20.6224 83.8111 21.3697 84.4048C21.8712 84.7937 22.3319 85.2236 22.7311 85.7149C22.8846 85.9094 23.0484 86.0936 23.1815 86.2983C23.2736 86.37 23.3248 86.4826 23.3862 86.5849C23.765 87.1581 24.0721 87.7722 24.2768 88.4273C24.3382 88.6115 24.461 89.1028 24.4713 89.1643C24.5736 89.6453 24.5736 90.1366 24.5634 90.6177C24.5634 90.7405 24.5225 90.8736 24.5327 90.9964C24.9012 91.2114 25.2799 91.4161 25.6587 91.6105C26.3138 91.9483 26.9792 92.2758 27.665 92.5727C28.5351 92.9616 29.4257 93.3096 30.3367 93.6167C31.0533 93.8623 32.6808 94.3639 32.7934 94.3639C32.8549 94.2206 32.8549 94.067 32.8856 93.9135C33.0903 92.8081 33.6533 91.9585 34.636 91.3956C35.0966 91.1295 35.6084 90.9862 36.1305 90.9043C36.2943 90.8736 36.5707 90.8531 36.8368 90.8531C37.0722 90.8531 37.3077 90.8633 37.4305 90.8838C37.9833 90.935 38.5156 91.0578 39.0376 91.2421C39.9691 91.5696 40.8085 92.0507 41.5762 92.6545C41.9652 92.9616 42.3337 93.2892 42.6613 93.6576C42.866 93.8828 43.4904 94.6914 43.5826 94.8347C43.7771 94.8347 45.4865 94.3843 46.1724 94.1489C46.6228 93.9954 47.0629 93.8112 47.5031 93.6167C48.3015 93.2584 49.9496 92.2451 49.9701 92.2349C50.0724 92.1633 50.0724 92.1633 50.011 92.0711C49.9905 92.0404 49.9598 91.9995 49.9394 91.9688C49.5401 91.4058 49.2126 90.8019 48.9669 90.1571C48.9464 90.1162 48.9362 90.0752 48.926 90.024C48.8952 89.9422 48.8748 89.8705 48.8441 89.7784C48.7417 89.4304 48.6496 89.0824 48.6291 88.7139C48.5677 88.3659 48.5779 88.0179 48.5984 87.6699C48.6189 87.4242 48.6598 87.1888 48.7315 86.9636C49.059 85.8173 49.7858 85.0189 50.9016 84.5788C51.3724 84.3945 51.8638 84.2922 52.3756 84.2922C52.3961 84.2922 52.4268 84.2922 52.4473 84.2922C52.5292 84.2922 52.611 84.2922 52.6827 84.2922C53.1843 84.2922 53.6756 84.3741 54.167 84.4969C54.5355 84.589 54.8835 84.7118 55.2316 84.8551C55.293 84.8756 55.3442 84.9063 55.4056 84.9165C55.4568 84.8858 55.4567 84.8244 55.467 84.7835C55.6308 84.3126 55.7638 83.8316 55.8764 83.3403C56.1938 81.9585 56.3371 80.546 56.3371 79.1335C56.3371 78.7445 56.3064 78.3658 56.3064 77.9769L56.3166 78.0178ZM43.9511 75.4999C43.9408 75.766 43.9306 76.0424 43.8999 76.3085C43.8692 76.5951 43.8282 76.8817 43.7771 77.1683C43.7463 77.3423 43.7054 77.5163 43.644 77.6903C43.5826 77.8848 43.5416 78.0895 43.47 78.2839C43.2857 78.8059 43.0503 79.3075 42.7534 79.7783C42.518 80.1468 42.2621 80.4948 41.9652 80.8223C41.4636 81.3751 40.8904 81.8357 40.2455 82.2041C39.8668 82.4191 39.4778 82.6033 39.0786 82.7671C39.0376 82.7876 38.8841 82.849 38.8636 82.849C38.5258 82.9513 38.1982 83.0639 37.8604 83.1356C37.062 83.3198 36.2636 83.4017 35.4447 83.4017C35.2604 83.4017 35.0761 83.4017 34.8919 83.3914C33.2541 83.3198 31.6879 82.9411 30.1627 82.3474C28.443 81.6719 26.8666 80.7405 25.4233 79.6043C23.8264 78.3556 22.4445 76.9021 21.3082 75.2133C20.3051 73.7394 19.5373 72.1529 19.0767 70.4231C18.7594 69.246 18.6161 68.0382 18.6877 66.8202C18.7082 66.421 18.7594 66.0321 18.8413 65.6431C18.8515 65.5919 18.9027 65.377 18.9129 65.3258C19.0255 64.855 19.1688 64.3944 19.3633 63.9543C19.6909 63.2275 20.1106 62.5622 20.6429 61.9686C21.2878 61.2521 22.0453 60.6892 22.9153 60.2695C23.7036 59.8805 24.5429 59.6349 25.413 59.4916C25.6177 59.4609 25.8225 59.4302 26.0272 59.4097C26.4162 59.3688 26.7949 59.3381 27.1839 59.3381C27.2965 59.3381 27.4193 59.3381 27.5319 59.3381C28.269 59.3688 28.9958 59.4507 29.7225 59.594C30.7564 59.7987 31.7698 60.1057 32.7423 60.5151C33.6942 60.9041 34.595 61.3749 35.4651 61.9276C36.3045 62.4599 37.103 63.0433 37.8604 63.6881C38.5463 64.2716 39.1912 64.9062 39.7849 65.5817C40.092 65.9297 40.3888 66.2777 40.6652 66.6462C40.7164 66.7178 40.8699 66.9123 40.8904 66.943C41.1361 67.291 41.392 67.6288 41.5967 68.0075C41.7093 68.202 41.8526 68.376 41.955 68.5807C42.1597 69.0004 42.4259 69.3893 42.5999 69.8192C42.6613 69.983 42.7534 70.1365 42.8148 70.3003C43.0605 70.9042 43.3062 71.5081 43.47 72.1324C43.47 72.1529 43.47 72.1734 43.47 72.1938C43.5621 72.3678 43.5826 72.5521 43.6235 72.7363C43.6849 73.0331 43.7361 73.33 43.7975 73.6268C43.818 73.7394 43.8282 73.8622 43.8385 73.9748C43.859 74.2512 43.8999 74.5275 43.9101 74.8039C43.9204 75.0393 43.9408 75.2645 43.9306 75.4999H43.9511Z" fill="white"/>
<path d="M20.5502 65.0695C20.5502 65.0695 20.5912 65.0695 20.6116 65.0695C20.6116 65.0695 20.6935 65.0695 20.7345 65.049C20.7549 65.049 20.7754 65.049 20.7959 65.049C20.8573 65.049 20.9187 65.049 20.9699 65.0285C20.9699 65.0285 21.0109 65.0285 21.0416 65.0285C21.103 65.0285 21.1644 65.0285 21.2258 65.008C21.2565 65.008 21.2872 65.008 21.3179 65.008C21.4101 65.008 21.5022 65.008 21.5841 64.9773C21.7786 64.9773 21.9628 64.9569 22.1573 64.9569C23.2936 64.9364 24.4196 65.0695 25.5251 65.3356C26.6511 65.6017 27.7361 66.0009 28.7905 66.5024C29.7629 66.963 30.6842 67.5055 31.5543 68.1196C32.7008 68.9282 33.7551 69.8494 34.7173 70.873C35.6386 71.8658 36.437 72.9303 37.1229 74.0972C37.3174 74.4247 37.4812 74.7522 37.6552 75.0798C37.6654 75.1105 37.6757 75.1514 37.6961 75.1821C37.8804 75.5301 38.0339 75.8986 38.1875 76.2568C38.3717 76.697 38.515 77.1576 38.6583 77.6079C38.6583 77.6386 38.6583 77.6693 38.6583 77.7C38.9143 78.5291 39.0576 79.3787 39.1087 80.2384C39.1395 80.7605 39.1395 81.2927 39.0883 81.8147C39.3339 81.7021 39.5694 81.5895 39.7741 81.4565C40.3576 81.1187 40.8489 80.7195 41.2686 80.2487C41.5143 79.9723 41.7497 79.6653 41.9647 79.3275C42.2104 78.9385 42.4151 78.5087 42.5891 78.0173C42.6198 77.9355 42.6505 77.8331 42.671 77.7308C42.6915 77.6386 42.7222 77.5567 42.7529 77.4544C42.7938 77.3213 42.8245 77.1883 42.8553 77.0347C42.9064 76.7891 42.9371 76.5332 42.9678 76.2466C42.9883 76.0112 43.0088 75.7758 43.019 75.4892C43.019 75.3356 43.019 75.1719 43.0088 74.9979V74.875C42.9986 74.7318 42.9781 74.5782 42.9576 74.4145C42.9474 74.3019 42.9371 74.1995 42.9269 74.0869V74.0153C42.9167 73.9436 42.9064 73.8822 42.9064 73.831C42.8962 73.7491 42.8757 73.6775 42.8655 73.5956C42.8245 73.3807 42.7836 73.1657 42.7427 72.961C42.7427 72.9201 42.7222 72.8791 42.7222 72.8382C42.7119 72.7665 42.6915 72.6744 42.6812 72.6539L42.5993 72.5004L42.5789 72.3366C42.4253 71.7635 42.2001 71.2005 41.9852 70.6785C41.9647 70.6273 41.934 70.5659 41.9033 70.4943C41.8623 70.4021 41.8111 70.2998 41.7702 70.1872C41.6883 69.9825 41.5655 69.7778 41.4426 69.5526C41.3403 69.3786 41.2481 69.2046 41.1458 69.0101C41.1151 68.9589 41.0639 68.8771 41.0127 68.8054C40.9513 68.7133 40.8796 68.6109 40.808 68.4881C40.6442 68.1913 40.4395 67.9149 40.2245 67.6079L40.1529 67.5055C40.1529 67.5055 40.0914 67.4236 40.0505 67.3724C40.0095 67.311 39.9584 67.2598 39.9379 67.2291C39.6615 66.8607 39.3647 66.5127 39.0985 66.2158C38.5457 65.5812 37.9213 64.9773 37.2662 64.4144C36.5497 63.8003 35.7717 63.2373 34.9733 62.7358C34.1339 62.2138 33.2638 61.7634 32.3835 61.3949C31.4417 61.006 30.4897 60.7194 29.5377 60.5249C28.8826 60.3918 28.1865 60.3202 27.4905 60.2895C27.3881 60.2895 27.2857 60.2895 27.1731 60.2895C26.8353 60.2895 26.4975 60.31 26.1188 60.3509H26.0779C25.9038 60.3611 25.7298 60.3918 25.5456 60.4225C24.7471 60.5556 23.9896 60.791 23.3038 61.1186C22.5156 61.5075 21.8707 61.9886 21.3077 62.6129C20.8471 63.1247 20.4683 63.7081 20.1817 64.3632C20.0589 64.6396 19.9565 64.9262 19.8746 65.2435C20.0589 65.2025 20.2329 65.1513 20.4171 65.1206C20.4581 65.1206 20.499 65.1206 20.54 65.1002L20.5502 65.0695ZM21.4203 64.8647C21.4203 64.8647 21.3896 64.9057 21.3896 64.9364C21.3896 64.9057 21.3998 64.8852 21.4203 64.8647ZM8.11304 56.5638C8.27682 56.789 8.40989 57.0346 8.54296 57.2803C8.72722 57.3314 8.91147 57.3826 9.09573 57.4031H9.13667C9.14691 57.4031 9.18785 57.4031 9.21856 57.4031C9.31069 57.4031 9.42329 57.4236 9.5666 57.4543C9.64849 57.4645 9.75085 57.4645 9.83274 57.4645C9.88393 57.4645 9.92487 57.4645 9.97605 57.4645C10.0272 57.4645 10.0887 57.4645 10.1398 57.4645C10.2217 57.4645 10.2934 57.4645 10.365 57.4645C10.365 57.4645 10.3753 57.4645 10.3855 57.4645C10.4572 57.4645 10.5595 57.4543 10.6619 57.4338H10.6721C10.9587 57.3928 11.1942 57.3314 11.3989 57.2496C11.8698 57.0653 12.2281 56.8299 12.5147 56.5024C12.7808 56.2055 12.9651 55.8371 13.0981 55.3457C13.1391 55.182 13.1596 55.0592 13.1698 54.9568C13.1698 54.8954 13.1698 54.8442 13.1698 54.7828C13.1698 54.4553 13.18 54.138 13.1289 53.8718C13.1186 53.8104 13.1084 53.749 13.0981 53.6876C13.0777 53.5955 13.0674 53.5034 13.047 53.4624L12.9548 53.2168V53.1963C12.9548 53.1963 12.9548 53.1963 12.9548 53.1861C12.9037 52.9711 12.8525 52.7971 12.7706 52.6538C12.6887 52.5003 12.6273 52.357 12.5659 52.2239C12.5249 52.1318 12.484 52.0397 12.443 51.9578C12.3816 51.835 12.2895 51.7019 12.1973 51.5586C12.1359 51.4563 12.0643 51.3642 12.0029 51.2516C10.8564 52.5924 9.69967 53.9333 8.5532 55.2843C8.33824 55.53 8.13351 55.7756 7.91854 56.0213C7.85713 56.0827 7.84689 56.1339 7.90831 56.2055C7.9902 56.3079 8.05162 56.4205 8.12327 56.5228L8.11304 56.5638ZM46.4789 95.0492C45.9569 95.2334 44.012 95.7861 43.582 95.7861C43.5513 95.7861 43.5206 95.7861 43.5001 95.7861L43.0702 95.7452L42.8245 95.3972C42.7529 95.2948 42.1489 94.5067 41.9647 94.302C41.7088 94.0052 41.3915 93.7186 40.9922 93.4115C40.2757 92.8486 39.508 92.4289 38.7095 92.1423C38.2489 91.9785 37.778 91.8762 37.3174 91.825H37.256C37.2048 91.825 37.0308 91.8045 36.7953 91.8045C36.4882 91.8045 36.3142 91.825 36.2835 91.8352H36.2221C35.741 91.9069 35.3622 92.0297 35.0449 92.214C34.3079 92.6438 33.8882 93.2477 33.7347 94.1178C33.7347 94.1382 33.7347 94.1689 33.7244 94.1996C33.7039 94.3429 33.6835 94.5579 33.5709 94.7831L33.3354 95.2948H32.7724L32.7622 95.3051H32.752C32.6087 95.3051 32.537 95.3051 31.4827 94.9878C30.9299 94.824 30.3464 94.6295 29.9984 94.5169C29.0976 94.2099 28.1763 93.8516 27.255 93.4422C26.5897 93.1454 25.8936 92.8178 25.1975 92.4494C24.7676 92.2242 24.3889 92.0195 24.0408 91.8148L23.6211 91.5691L23.5904 91.0881C23.5802 90.9243 23.5904 90.7912 23.6109 90.6889C23.6109 90.6684 23.6109 90.6275 23.6109 90.6172C23.6211 90.2078 23.6211 89.7677 23.5392 89.3787C23.5188 89.2968 23.4062 88.8772 23.3652 88.7339C23.1912 88.1812 22.9251 87.6489 22.577 87.1167C22.5565 87.0757 22.5258 87.045 22.5054 87.0041L22.4542 86.9632L22.3723 86.8403C22.2904 86.7073 22.1778 86.5742 22.055 86.4309L21.9731 86.3286C21.6353 85.9191 21.2361 85.5404 20.7447 85.1515C20.0691 84.6192 19.3219 84.1996 18.5439 83.9232C18.0628 83.7492 17.5919 83.6469 17.121 83.5957C17.0801 83.5957 17.0391 83.5957 17.0084 83.5854C16.9163 83.5752 16.8242 83.565 16.7525 83.565C16.7321 83.565 16.7116 83.565 16.7013 83.565L16.5478 83.5854L16.4454 83.565C16.4454 83.565 16.425 83.565 16.4045 83.565C16.3635 83.565 16.3021 83.565 16.2407 83.5752C15.8722 83.5957 15.5037 83.6776 15.1249 83.8311C15.0328 83.8823 14.8588 83.9744 14.6029 83.9744L14.1627 83.9949L13.8761 83.6571C13.8761 83.6571 13.8045 83.5752 13.7635 83.524C13.6714 83.4217 13.5793 83.3091 13.4769 83.1863C13.4564 83.1555 13.4052 83.1146 13.3541 83.0634C13.2619 82.9713 13.1493 82.8587 13.047 82.7154C12.9651 82.6028 12.8729 82.4902 12.7706 82.3674L12.7501 82.3367C12.6477 82.2139 12.5454 82.0808 12.4328 81.9478L12.2895 81.7738C12.1973 81.6612 12.1155 81.5486 12.0336 81.4462C11.921 81.3029 11.8186 81.1596 11.7162 81.0471L11.6753 80.9856L11.6036 80.8833C11.5525 80.8116 11.491 80.7297 11.4399 80.6581C11.3375 80.525 11.2454 80.392 11.1635 80.2589C11.1123 80.1873 11.0713 80.1156 11.0202 80.0542C11.0202 80.044 10.9997 80.0337 10.9895 80.0133C10.9178 79.9314 10.795 79.7881 10.7131 79.5834C10.4776 79.2661 10.2729 78.9385 10.0784 78.6212L10.0375 78.5496C9.98629 78.4779 9.93511 78.3961 9.88393 78.3142C9.80204 78.1914 9.72014 78.0685 9.63825 77.9252C9.57684 77.8229 9.52565 77.7205 9.47447 77.6284C9.44376 77.5567 9.40282 77.4953 9.38234 77.4442C9.20833 77.1678 9.04455 76.8812 8.891 76.5844C8.82958 76.4718 8.76816 76.349 8.69651 76.2261C8.6658 76.1647 8.63509 76.1033 8.59414 76.0521L8.45084 75.786L8.49178 75.4789C8.51225 75.3254 8.63509 74.8239 9.2288 74.6601C9.48471 74.5475 9.69967 74.4349 9.87369 74.2916C10.0784 74.1381 10.2627 73.9539 10.4162 73.7184C10.5595 73.5035 10.6824 73.2476 10.7745 72.9405C10.8461 72.7051 10.8769 72.4288 10.9076 72.1319V71.9989C10.9076 71.9989 10.9076 71.8556 10.9076 71.7635C10.9076 71.6713 10.8871 71.5792 10.8871 71.4666C10.8871 71.3848 10.8666 71.2926 10.8461 71.18C10.8461 71.1493 10.8257 71.0879 10.8052 71.0367C10.795 70.9753 10.7745 70.9344 10.7745 70.9139C10.6721 70.4738 10.5083 70.0337 10.2831 69.5833C10.1501 69.3069 9.97605 69.0408 9.81227 68.7952H9.78156L9.61778 68.529C9.44376 68.2732 9.2288 68.0275 8.97289 67.7512C8.6658 67.4236 8.30753 67.1063 7.8776 66.789C7.24294 66.3182 6.59805 65.9702 5.92245 65.7245L5.41064 65.5403L5.33898 64.9978C5.29804 64.701 5.29804 64.4042 5.29804 64.1585C5.29804 64.1073 5.29804 64.0561 5.29804 64.005V63.8514C5.29804 63.6877 5.29804 63.5239 5.29804 63.3499C5.29804 63.2475 5.29804 63.1452 5.29804 63.0326C5.29804 62.7972 5.29804 62.5413 5.32874 62.2649C5.33898 62.1319 5.35945 61.9886 5.36969 61.835C5.36969 61.7327 5.37993 61.6303 5.39016 61.5382C5.41064 61.3437 5.43111 61.0981 5.47205 60.8422C5.52324 60.5044 5.58465 60.095 5.66654 59.6856C5.68702 59.573 5.71773 59.4604 5.7382 59.3581C4.66338 60.617 3.58856 61.8657 2.51374 63.1247C2.42162 63.2373 2.34996 63.3499 2.30902 63.483C2.2476 63.6774 2.18618 63.8617 2.12476 64.0561C1.76649 65.2844 1.55153 66.5434 1.4594 67.8126C1.40822 68.6416 1.40822 69.4707 1.43893 70.2998C1.43893 70.3612 1.43893 70.4226 1.49011 70.4636C1.82791 70.6068 2.17594 70.7502 2.50351 70.9242C3.68069 71.5588 4.67362 72.3981 5.49253 73.4523C5.93269 74.0153 6.29096 74.6396 6.56734 75.3049C6.69018 75.5915 6.77207 75.8986 6.87444 76.1954C6.87444 76.2773 6.90515 76.3592 6.92562 76.4308C6.9768 76.7584 7.03822 77.0961 7.03822 77.4339C7.03822 77.7308 7.01774 78.0276 6.98704 78.3142C6.95633 78.3961 6.90515 78.4575 6.84373 78.5189C6.12718 79.348 5.41064 80.177 4.70433 81.0163C4.62926 81.105 4.61902 81.1972 4.67362 81.2927C5.10354 82.1013 5.55394 82.8894 6.04529 83.6571C6.53664 84.435 7.04845 85.1822 7.60122 85.9191C7.64216 85.9703 7.67287 86.0317 7.73429 86.0727C7.75476 86.0931 7.765 86.1238 7.78547 86.1443C8.16422 86.6459 8.5532 87.1474 8.96265 87.6182C9.2288 87.9253 9.48471 88.2221 9.75085 88.5292C9.7918 88.5701 9.82251 88.6418 9.89416 88.5906C10.2627 88.4371 10.6414 88.3245 11.0406 88.2528C11.0918 88.2528 11.143 88.2528 11.1942 88.2324C11.4501 88.2221 11.706 88.2119 11.9517 88.1914C12.1564 88.2119 12.3611 88.2119 12.5659 88.2426C13.5485 88.3654 14.4698 88.693 15.3297 89.1638C16.5376 89.8291 17.551 90.7298 18.3596 91.8455C18.8612 92.5312 19.24 93.2682 19.4959 94.0768C19.6597 94.6193 19.762 95.172 19.762 95.7452C19.7518 95.7861 19.762 95.8271 19.762 95.868C19.7518 96.0215 19.7313 96.1853 19.7211 96.3389C19.7211 96.4003 19.6801 96.4617 19.7211 96.5333C19.7518 96.5845 19.8234 96.605 19.8746 96.6357C20.5912 97.0349 21.3282 97.4136 22.0652 97.7616C23.9282 98.6418 25.8527 99.3481 27.8487 99.8701C27.9716 99.9008 28.033 99.8701 28.1149 99.778C28.9645 98.7954 29.8141 97.8128 30.6637 96.8404C30.7661 96.7176 30.8582 96.5845 30.9913 96.4924C31.2677 96.4514 31.5338 96.4003 31.8102 96.4003C32.0047 96.4003 32.2094 96.4003 32.4039 96.4003C32.9772 96.4412 33.5299 96.5538 34.0725 96.738C35.7307 97.301 37.1024 98.2836 38.2182 99.6347C38.4127 99.8701 38.5867 100.136 38.7709 100.372C38.7709 100.372 38.7709 100.392 38.7709 100.402H38.8324C38.8324 100.402 38.8324 100.382 38.8324 100.372C38.8835 100.361 38.945 100.351 38.9961 100.341C39.5694 100.218 40.1426 100.075 40.6954 99.9008C41.2584 99.7166 41.8214 99.5221 42.3639 99.2764C42.7017 99.1229 43.0395 98.9694 43.3773 98.8056C43.971 98.5088 44.534 98.1608 45.0868 97.7821C45.1891 97.7104 45.271 97.6388 45.3529 97.5466C46.3049 96.4514 47.2569 95.3665 48.2089 94.2713C48.086 94.3327 47.9734 94.3941 47.8711 94.4351C47.39 94.65 46.9191 94.8445 46.4687 94.998L46.4789 95.0492ZM42.2411 96.4822C42.2411 96.4822 42.282 96.431 42.2923 96.39C42.2923 96.39 42.2615 96.4514 42.2411 96.4822ZM52.6924 85.2436C52.631 85.2436 52.5593 85.2436 52.4979 85.2436H52.4365C52.416 85.2436 52.3955 85.2436 52.3751 85.2436C51.9963 85.2436 51.6073 85.3152 51.2286 85.4688C50.3687 85.8065 49.8569 86.3695 49.601 87.26C49.5498 87.434 49.5191 87.608 49.5089 87.7922C49.4884 88.0379 49.4782 88.3347 49.5191 88.5906V88.6418L49.5294 88.693C49.5498 88.9693 49.6215 89.2661 49.7136 89.563C49.7136 89.5937 49.7341 89.6346 49.7546 89.6756C49.7648 89.7063 49.775 89.737 49.7853 89.7677C49.7955 89.7984 49.8057 89.8393 49.8262 89.87C49.8774 89.9929 49.9286 90.1157 49.9798 90.2487C50.1435 90.2999 50.2971 90.3613 50.4506 90.4227C50.6144 90.4842 50.6144 90.4944 50.7168 90.3613C51.9861 88.8977 53.2554 87.4442 54.5349 85.9805C54.6271 85.8782 54.709 85.7758 54.8011 85.6735C54.5042 85.5507 54.2279 85.4585 53.9617 85.3971C53.4908 85.2743 53.0814 85.2231 52.7026 85.2231L52.6924 85.2436Z" fill="black"/>
<path d="M30.5814 49.8202L37.3579 52.7476C37.3579 52.7476 37.0406 54.4876 38.0028 56.4119C38.965 58.3361 41.8414 60.9564 43.9604 61.1918C46.1816 61.4375 47.7273 60.895 47.7273 60.895L51.6581 66.6371C51.6581 66.6371 48.9659 67.6811 49.6211 72.2769C50.3376 77.2718 55.2204 78.2134 55.2101 78.715C55.1999 79.2165 54.8826 82.9013 54.5959 83.3823C54.5243 83.5052 51.8219 82.4919 49.488 84.2626C45.2399 87.497 48.3313 91.8471 48.3313 91.8471L43.9501 93.6895C43.9501 93.6895 46.8163 89.1245 44.1037 85.7365C42.384 83.5871 39.5587 83.7611 39.6713 83.7201C48.5053 79.9228 44.8407 70.8132 44.8407 70.8132C44.8407 70.8132 41.5753 62.6043 34.6043 59.5234C23.9892 54.8356 19.8844 59.3904 19.8844 59.3904C19.1269 56.156 14.9403 56.6984 14.9403 56.6984C16.1584 53.812 14.2647 50.8949 14.2647 50.8949L18.2876 49.1549C18.2876 49.1549 23.6924 56.1457 29.4452 51.7547C30.7247 50.7721 30.5814 49.8304 30.5814 49.8304V49.8202Z" fill="#FFB16A"/>
<path d="M64.8226 0.43305C64.6691 0.43305 64.577 0.473992 64.5258 0.63776C64.4644 0.832234 64.362 1.02671 64.2699 1.22118C63.6557 2.46991 62.7958 3.52417 61.7108 4.39418C60.8612 5.06972 59.9297 5.57126 58.8753 5.85786C58.3123 6.01139 57.7288 6.0728 57.1454 6.03186C56.9611 6.02162 56.7769 6.00115 56.6028 5.93974C56.3879 5.9295 56.1831 5.84762 55.9784 5.76574C55.0674 5.40749 54.4327 4.76266 54.0437 3.87217C54.013 3.81076 53.9721 3.66746 53.9619 3.65723C53.9004 3.63676 53.8595 3.6777 53.8083 3.7084C53.1941 4.0257 52.6004 4.37371 52.0067 4.73195C50.1846 5.84762 48.4649 7.11682 46.8578 8.53955C46.7657 8.62144 46.6838 8.70332 46.5917 8.77497C46.5507 8.80567 46.5303 8.83638 46.5303 8.87732C46.5303 8.89779 46.5303 8.91827 46.5507 8.94897C46.5814 9.02062 46.6121 9.09227 46.6429 9.16392C46.8476 9.7064 46.9295 10.2591 46.9295 10.8118C46.9295 11.1598 46.8988 11.5078 46.8373 11.8558C46.7145 12.603 46.4688 13.3093 46.1208 13.9848C45.6295 14.9674 44.9743 15.8375 44.1657 16.5949C43.3263 17.383 42.3845 17.9971 41.2995 18.3759C40.4806 18.6727 39.6309 18.7955 38.7608 18.6727C38.6585 18.6624 38.5971 18.6829 38.5357 18.7853C38.2286 19.338 37.9419 19.8907 37.6553 20.4537C36.8262 22.1118 36.1403 23.8314 35.5978 25.6123C35.4852 25.991 35.3624 26.38 35.2805 26.7689C35.2805 26.7792 35.2805 26.7894 35.2805 26.7997C35.2805 26.8201 35.2805 26.8406 35.2498 26.8611V26.8815C35.2498 26.8918 35.2498 26.902 35.26 26.9122C35.5773 26.9122 35.8947 26.9737 36.1915 27.0862C36.601 27.2398 37.0104 27.4138 37.3482 27.7106C37.6451 27.9767 37.9215 28.2531 38.1057 28.6113C38.2593 28.8979 38.4026 29.1845 38.4947 29.4916C38.5254 29.5837 38.5766 29.7986 38.5868 29.8294C38.6585 30.1978 38.6892 30.5561 38.6892 30.9246C38.6892 31.3237 38.6483 31.7229 38.5664 32.1221C38.3616 33.1559 37.9419 34.1078 37.3585 34.988C36.6829 36.0116 35.8537 36.8714 34.8403 37.5674C34.7482 37.6288 34.7175 37.6493 34.7175 37.7107C34.7175 37.7414 34.7175 37.7823 34.738 37.8335C34.8915 38.6216 35.0962 39.3995 35.3521 40.157C35.7411 41.3136 36.2529 42.4088 36.8978 43.4528C37.0411 43.6882 37.1845 43.9236 37.3585 44.1386C37.4301 44.1386 37.4608 44.0771 37.512 44.0464C37.7986 43.8827 38.0648 43.678 38.3616 43.5244C38.5868 43.4118 38.8223 43.3197 39.0372 43.2071C39.2727 43.0843 39.5183 43.0127 39.7743 42.941C39.8357 42.9308 39.8766 42.8694 39.9483 42.8796C40.1223 42.8079 40.3168 42.7875 40.501 42.7568C40.9207 42.6749 41.3507 42.6954 41.7703 42.6954C41.9751 42.6954 42.19 42.7363 42.3845 42.7977C42.9475 42.9512 43.4593 43.1867 43.8995 43.5756C44.3601 43.9748 44.6672 44.4763 44.8924 45.0393C45.005 45.3361 45.0767 45.6432 45.1279 45.9605C45.1483 46.1038 45.1688 46.2471 45.1688 46.3904C45.1688 46.4108 45.1688 46.4313 45.1688 46.4518C45.1688 46.5132 45.1688 46.5746 45.1688 46.636C45.1688 46.7384 45.1688 46.8407 45.1688 46.9533C45.1688 47.1068 45.1688 47.2604 45.1381 47.4139C45.0972 47.547 45.1074 47.68 45.0767 47.8131C45.0357 48.069 44.9743 48.3146 44.9027 48.5603C44.8208 48.8776 44.6877 49.1744 44.5853 49.4712C44.5853 49.4917 44.5853 49.5122 44.5546 49.5224C44.5546 49.5224 44.5546 49.5429 44.5546 49.5531C44.5546 49.5634 44.5546 49.5736 44.5649 49.5838C44.7491 49.6452 44.9231 49.6964 45.1074 49.7578C45.6295 49.9318 46.1617 50.0547 46.694 50.1673C47.0523 50.2491 47.4208 50.3003 47.7791 50.3515C47.9941 50.3822 48.2193 50.4027 48.4342 50.4231C48.6799 50.4436 48.9358 50.4641 49.1815 50.4846C49.5193 50.5255 49.8571 50.4948 50.1949 50.505C50.4098 50.505 50.6146 50.505 50.8295 50.505C51.1264 50.505 51.413 50.505 51.7099 50.4743C51.9965 49.6862 52.4059 48.9595 52.8973 48.2839C53.2146 47.854 53.5729 47.4344 53.9619 47.0659C54.2485 46.7998 54.5351 46.5337 54.8627 46.3187C54.8831 46.2675 54.9343 46.2471 54.9753 46.2164C55.3028 45.9912 55.6406 45.7762 55.9989 45.592C56.4902 45.3463 57.0021 45.1519 57.5343 45.029C57.5753 45.029 57.7698 44.9676 57.821 44.9574C57.9643 44.9267 58.1076 44.9062 58.2407 44.9062C58.4659 44.9062 58.6808 44.8448 58.8958 44.8653C59.2745 44.9062 59.643 44.9267 60.0115 45.0393C60.3801 45.1519 60.7281 45.3054 61.0352 45.5203C61.332 45.7251 61.5982 45.9809 61.8234 46.2675C62.0281 46.5439 62.1817 46.8407 62.3147 47.158C62.3352 47.2092 62.325 47.2911 62.4069 47.3013C62.5911 47.199 62.7754 47.0966 62.9596 46.9943C63.236 46.851 63.5021 46.6974 63.7683 46.5337C63.9218 46.4415 64.0959 46.3699 64.2596 46.2778C64.4644 46.1549 64.6589 46.0117 64.8636 45.8786C65.1911 45.6739 65.5289 45.4589 65.836 45.2338C65.8975 45.1928 65.9589 45.1519 66.0203 45.1314C66.1329 45.0802 66.2148 44.9881 66.3171 44.9165C66.5116 44.7834 66.7061 44.6606 66.9006 44.5173C67.0132 44.4354 67.1156 44.3535 67.2282 44.2716C67.4739 44.0567 67.74 43.8724 67.9857 43.678C68.1699 43.5244 68.3542 43.3811 68.5487 43.2276C68.692 43.115 68.8251 43.0024 68.9684 42.8898C69.1321 42.7772 69.255 42.6135 69.4085 42.4906C69.5621 42.3678 69.7054 42.2348 69.8487 42.1119C69.8487 42.03 69.7975 41.9686 69.7668 41.897C69.5826 41.4364 69.4699 40.9656 69.4495 40.4743C69.4495 40.3821 69.429 40.3003 69.429 40.2081C69.429 40.1774 69.429 40.1365 69.429 40.1058C69.429 40.0444 69.4188 39.983 69.4188 39.9215C69.4188 39.768 69.4392 39.6145 69.4597 39.4609C69.5211 38.898 69.644 38.3555 69.8385 37.8335C70.1558 36.943 70.6164 36.1242 71.2101 35.377C71.5991 34.8754 72.029 34.4149 72.5204 34.0157C72.7149 33.8621 72.8991 33.6984 73.1039 33.5653C73.1755 33.4732 73.2881 33.422 73.3905 33.3606C73.9637 32.9819 74.5779 32.6748 75.233 32.4701C75.4173 32.4087 75.9086 32.2859 75.97 32.2756C76.4511 32.1733 76.9425 32.1733 77.4236 32.1835C77.5464 32.1835 77.6795 32.2245 77.8023 32.2142C78.0173 31.8457 78.222 31.467 78.4165 31.0883C78.7543 30.4332 79.0819 29.7679 79.3787 29.0822C79.7677 28.2121 80.1158 27.3217 80.4229 26.4107C80.6685 25.6942 81.1701 24.0668 81.1701 23.9542C81.0268 23.8825 80.8733 23.8928 80.7197 23.8621C79.6142 23.6574 78.7646 23.0944 78.2016 22.1118C77.9354 21.6512 77.7921 21.1394 77.7102 20.6174C77.6795 20.4537 77.659 20.1773 77.659 19.9112C77.659 19.6758 77.6693 19.4403 77.6897 19.3175C77.7409 18.7648 77.8638 18.2326 78.048 17.7105C78.3756 16.7791 78.8567 15.9398 79.4606 15.1721C79.7677 14.7832 80.0953 14.4147 80.4638 14.0872C80.689 13.8825 81.4977 13.2581 81.641 13.166C81.641 12.9715 81.1906 11.2622 80.9551 10.5764C80.8016 10.1261 80.6173 9.68593 80.4229 9.2458C80.0646 8.44743 79.0512 6.79952 79.0409 6.77905C78.9693 6.67669 78.9693 6.67669 78.8772 6.73811C78.8465 6.75858 78.8055 6.78929 78.7748 6.80976C78.2118 7.20894 77.6079 7.53648 76.963 7.78213C76.922 7.8026 76.8811 7.81283 76.8299 7.82307C76.748 7.85377 76.6763 7.87425 76.5842 7.90495C76.2362 8.00731 75.8881 8.09943 75.5196 8.1199C75.1716 8.18131 74.8236 8.17107 74.4755 8.1506C74.2299 8.13013 73.9944 8.08919 73.7692 8.01754C72.6227 7.69001 71.8243 6.96329 71.3841 5.84762C71.1999 5.37679 71.0975 4.88549 71.0975 4.37371C71.0975 4.35324 71.0975 4.32253 71.0975 4.30206C71.0975 4.22018 71.0975 4.13829 71.0975 4.06665C71.0975 3.56511 71.1794 3.0738 71.3023 2.5825C71.3944 2.21402 71.5172 1.86602 71.6605 1.51801C71.681 1.4566 71.7117 1.40542 71.7219 1.34401C71.6912 1.29283 71.6298 1.29283 71.5889 1.2826C71.118 1.11883 70.6369 0.985766 70.1455 0.873176C68.8046 0.545641 67.4022 0.402344 65.9793 0.402344C65.5904 0.402344 65.2116 0.43305 64.8226 0.43305ZM62.3045 12.7975C62.5706 12.8077 62.847 12.818 63.1132 12.8487C63.3998 12.8794 63.6864 12.9203 63.973 12.9715C64.147 13.0022 64.3211 13.0432 64.4951 13.1046C64.6896 13.166 64.8943 13.2069 65.0888 13.2786C65.6108 13.4628 66.1124 13.6982 66.5833 13.9951C66.9518 14.2305 67.2998 14.4864 67.6274 14.7832C68.1802 15.2847 68.6408 15.8579 69.0093 16.5028C69.2243 16.8815 69.4085 17.2704 69.5723 17.6696C69.5928 17.7105 69.6542 17.8641 69.6542 17.8845C69.7566 18.2223 69.8692 18.5499 69.9408 18.8876C70.1251 19.686 70.207 20.4844 70.207 21.3032C70.207 21.4874 70.207 21.6717 70.1967 21.8559C70.1251 23.4936 69.7463 25.0596 69.1526 26.5847C68.477 28.3043 67.5455 29.8805 66.4093 31.3237C65.1604 32.9205 63.7069 34.3023 62.0179 35.4384C60.5438 36.4415 58.9572 37.2091 57.2273 37.6697C56.0501 37.987 54.8422 38.1303 53.6241 38.0587C53.2248 38.0382 52.8359 37.987 52.4469 37.9051C52.3957 37.8949 52.1807 37.8437 52.1295 37.8335C51.6587 37.7209 51.198 37.5776 50.7579 37.3831C50.0311 37.0556 49.3657 36.636 48.772 36.1037C48.0555 35.4589 47.4925 34.7014 47.0728 33.8314C46.6838 33.0433 46.4381 32.204 46.2948 31.334C46.2641 31.1293 46.2334 30.9246 46.2129 30.7198C46.172 30.3309 46.1413 29.9522 46.1413 29.5632C46.1413 29.4506 46.1413 29.3278 46.1413 29.2152C46.172 28.4783 46.2539 27.7516 46.3972 27.0248C46.6019 25.9911 46.909 24.9777 47.3185 24.0054C47.7074 23.0535 48.1783 22.1527 48.7311 21.2827C49.2634 20.4434 49.8468 19.645 50.4917 18.8876C51.0752 18.2018 51.7099 17.557 52.3855 16.9634C52.7335 16.6563 53.0815 16.3595 53.45 16.0831C53.5217 16.0319 53.7162 15.8784 53.7469 15.8579C54.0949 15.6123 54.4327 15.3564 54.8115 15.1517C55.006 15.0391 55.18 14.8958 55.3847 14.7934C55.8044 14.5887 56.1934 14.3226 56.6233 14.1486C56.7871 14.0872 56.9406 13.9951 57.1044 13.9337C57.7084 13.688 58.3123 13.4423 58.9367 13.2786C58.9572 13.2786 58.9777 13.2786 58.9981 13.2786C59.1722 13.1865 59.3564 13.166 59.5407 13.125C59.8375 13.0636 60.1344 13.0125 60.4312 12.951C60.5438 12.9306 60.6667 12.9203 60.7793 12.9101C61.0557 12.8896 61.332 12.8487 61.6084 12.8385C61.8439 12.8282 62.0691 12.8077 62.3045 12.818V12.7975Z" fill="white"/>
<path d="M51.8626 36.1963C51.8626 36.1963 51.8626 36.1553 51.8626 36.1348C51.8626 36.1348 51.8626 36.053 51.8422 36.012C51.8422 35.9915 51.8422 35.9711 51.8422 35.9506C51.8422 35.8892 51.8422 35.8278 51.8217 35.7766V35.7049C51.8217 35.6435 51.8115 35.5821 51.791 35.5207C51.791 35.49 51.791 35.4593 51.791 35.4286C51.791 35.3365 51.791 35.2444 51.7603 35.1625C51.7603 34.968 51.7398 34.7838 51.7398 34.5893C51.7193 33.4531 51.8524 32.3272 52.1185 31.2218C52.3847 30.0959 52.7839 29.0109 53.2855 27.9567C53.7461 26.9843 54.2887 26.0631 54.9028 25.1931C55.7115 24.0467 56.6328 22.9925 57.6564 22.0303C58.6493 21.1092 59.7139 20.3108 60.8809 19.625C61.2084 19.4305 61.536 19.2668 61.8636 19.0928C61.8943 19.0825 61.9352 19.0723 61.9659 19.0518C62.314 18.8676 62.6825 18.714 63.0407 18.5605C63.4809 18.3763 63.9415 18.233 64.3919 18.0897C64.4227 18.0897 64.4534 18.0897 64.4841 18.0897C65.3132 17.8338 66.1628 17.6905 67.0227 17.6393C67.5448 17.6086 68.077 17.6086 68.5991 17.6598C68.4865 17.4141 68.3739 17.1787 68.2408 16.974C67.903 16.3906 67.5038 15.8993 67.0329 15.4796C66.7565 15.234 66.4495 14.9986 66.1117 14.7836C65.7227 14.538 65.2927 14.3333 64.8014 14.1593C64.7195 14.1286 64.6171 14.0978 64.5148 14.0774C64.4227 14.0569 64.3408 14.0262 64.2384 13.9955C64.1053 13.9545 63.9723 13.9238 63.8187 13.8931C63.573 13.842 63.3171 13.8113 63.0305 13.7805C62.7951 13.7601 62.5596 13.7396 62.273 13.7294C62.1195 13.7294 61.9557 13.7294 61.7817 13.7396H61.6588C61.5155 13.7498 61.362 13.7703 61.1982 13.7908C61.0856 13.801 60.9832 13.8113 60.8706 13.8215H60.799C60.7273 13.8317 60.6659 13.842 60.6147 13.842C60.5328 13.8522 60.4612 13.8727 60.3793 13.8829C60.1643 13.9238 59.9494 13.9648 59.7446 14.0057C59.7037 14.0057 59.6627 14.0262 59.6218 14.0262C59.5501 14.0364 59.458 14.0569 59.4375 14.0671L59.284 14.149L59.1202 14.1695C58.547 14.323 57.984 14.5482 57.4619 14.7632C57.4107 14.7836 57.3493 14.8143 57.2777 14.845C57.1855 14.886 57.0832 14.9372 56.9706 14.9781C56.7659 15.06 56.5611 15.1828 56.3359 15.3056C56.1619 15.408 55.9879 15.5001 55.7934 15.6025C55.7422 15.6332 55.6603 15.6843 55.5887 15.7355C55.4965 15.7969 55.3942 15.8686 55.2713 15.9402C54.9745 16.104 54.6981 16.3087 54.391 16.5237L54.2887 16.5953C54.2887 16.5953 54.2068 16.6567 54.1556 16.6977C54.0942 16.7386 54.043 16.7898 54.0123 16.8102C53.6438 17.0866 53.2957 17.3834 52.9989 17.6496C52.3642 18.2023 51.7603 18.8266 51.1973 19.4817C50.5831 20.1982 50.0201 20.9761 49.5185 21.7745C48.9965 22.6138 48.5461 23.4838 48.1775 24.364C47.7886 25.3057 47.5019 26.2576 47.3075 27.2095C47.1744 27.8646 47.1027 28.5606 47.072 29.2566C47.072 29.3589 47.072 29.4613 47.072 29.5739C47.072 29.9117 47.0925 30.2494 47.1334 30.6281V30.6691C47.1437 30.8431 47.1744 31.0171 47.2051 31.2013C47.3382 31.9997 47.5736 32.7571 47.9012 33.4429C48.2901 34.231 48.7713 34.8759 49.3957 35.4388C49.9075 35.8994 50.491 36.2781 51.1461 36.5647C51.4225 36.6876 51.7091 36.7899 52.0264 36.8718C51.9855 36.6876 51.9343 36.5136 51.9036 36.3293C51.9036 36.2884 51.9036 36.2474 51.8831 36.2065L51.8626 36.1963ZM51.6681 35.3262C51.6681 35.3262 51.7091 35.3569 51.7398 35.3569C51.7091 35.3569 51.6886 35.3467 51.6681 35.3262ZM43.3665 48.6324C43.5917 48.4686 43.8373 48.3355 44.083 48.2025C44.1342 48.0182 44.1854 47.834 44.2058 47.6498V47.6088C44.2058 47.5986 44.2058 47.5576 44.2058 47.5269C44.2058 47.4348 44.2263 47.3222 44.257 47.1789C44.2673 47.097 44.2673 46.9947 44.2673 46.9128C44.2673 46.8616 44.2673 46.8207 44.2673 46.7695C44.2673 46.7183 44.2673 46.6569 44.2673 46.6057C44.2673 46.5238 44.2673 46.4522 44.2673 46.3806C44.2673 46.3806 44.2673 46.3703 44.2673 46.3601C44.2673 46.2884 44.257 46.1861 44.2365 46.0837C44.1956 45.7767 44.1342 45.5515 44.0523 45.3468C43.868 44.8759 43.6326 44.5177 43.305 44.2311C43.0082 43.965 42.6397 43.7807 42.1483 43.6477C41.9845 43.6067 41.8617 43.5863 41.7593 43.576C41.6979 43.576 41.6467 43.576 41.5853 43.576C41.2578 43.576 40.9404 43.5658 40.6743 43.617C40.6129 43.6272 40.5515 43.6374 40.49 43.6477C40.3979 43.6682 40.3058 43.6784 40.2648 43.6989L40.0192 43.791H39.9987C39.9987 43.791 39.9987 43.791 39.9885 43.791C39.7735 43.8422 39.5995 43.8933 39.4562 43.9752C39.3026 44.0571 39.1593 44.1185 39.0262 44.1799C38.9341 44.2209 38.842 44.2618 38.7601 44.3028C38.6373 44.3642 38.5042 44.4563 38.3609 44.5484C38.2585 44.6098 38.1664 44.6815 38.0538 44.7429C39.3947 45.8893 40.7357 47.0459 42.0869 48.1922C42.3326 48.4072 42.5783 48.6119 42.8239 48.8268C42.8853 48.8882 42.9365 48.8985 43.0082 48.8371C43.1105 48.7552 43.2231 48.6938 43.3255 48.6221L43.3665 48.6324ZM81.8552 10.2698C82.0394 10.7918 82.5922 12.7365 82.5922 13.1664C82.5922 13.1971 82.5922 13.2278 82.5922 13.2483L82.5513 13.6782L82.2032 13.9238C82.1009 13.9955 81.3127 14.5994 81.1079 14.7836C80.8111 15.0395 80.5245 15.3568 80.2174 15.756C79.6544 16.4725 79.2347 17.2401 78.9481 18.0385C78.7843 18.4991 78.6819 18.9699 78.6307 19.4305V19.4919C78.6307 19.5431 78.6103 19.7171 78.6103 19.9525C78.6103 20.2596 78.6307 20.4336 78.641 20.4643V20.5257C78.7126 21.0068 78.8355 21.3855 79.0197 21.7028C79.4496 22.4398 80.0536 22.8594 80.9237 23.0129C80.9441 23.0129 80.9749 23.013 81.0056 23.0232C81.1489 23.0437 81.3638 23.0641 81.589 23.1767L82.1009 23.4121V23.9751L82.1111 23.9853C82.1111 24.1389 82.1111 24.2105 81.7938 25.2648C81.63 25.8175 81.4355 26.4009 81.3229 26.7489C81.0158 27.6496 80.6575 28.5708 80.2481 29.492C79.9512 30.1573 79.6237 30.8533 79.2551 31.5493C79.0299 31.9792 78.8252 32.3579 78.6205 32.706L78.3748 33.1256L77.8937 33.1563C77.7299 33.1665 77.5969 33.1563 77.4945 33.1358C77.474 33.1358 77.4331 33.1358 77.4228 33.1358C77.0134 33.1256 76.5732 33.1256 76.1842 33.2075C76.1023 33.228 75.6827 33.3406 75.5394 33.3815C74.9866 33.5555 74.4543 33.8216 73.922 34.1696C73.8811 34.1901 73.8503 34.2208 73.8094 34.2413L73.7685 34.2925L73.6456 34.3743C73.5125 34.4562 73.3795 34.5688 73.2362 34.6916L73.1338 34.7735C72.7243 35.1113 72.3456 35.5105 71.9566 36.0018C71.4243 36.6773 71.0046 37.4245 70.7283 38.2024C70.5542 38.6835 70.4519 39.1543 70.4007 39.6251C70.4007 39.6661 70.4007 39.707 70.3905 39.7377C70.3802 39.8298 70.37 39.922 70.37 39.9936C70.37 40.0141 70.37 40.0346 70.37 40.0448L70.3905 40.1983L70.37 40.3007C70.37 40.3007 70.37 40.3211 70.37 40.3416C70.37 40.3826 70.37 40.444 70.3802 40.5054C70.4007 40.8739 70.4826 41.2423 70.6361 41.6211C70.6771 41.7132 70.7692 41.8974 70.7794 42.1431L70.7999 42.5832L70.4621 42.8698C70.4621 42.8698 70.3802 42.9414 70.329 42.9824C70.2267 43.0745 70.1141 43.1666 69.9912 43.269C69.9605 43.2894 69.9196 43.3406 69.8684 43.3918C69.7763 43.4839 69.6637 43.5965 69.5204 43.6989C69.4078 43.7807 69.2952 43.8729 69.1723 43.9752L69.1416 43.9957C69.0188 44.098 68.8857 44.2004 68.7526 44.313L68.5786 44.4563C68.466 44.5484 68.3534 44.6303 68.2511 44.7122C68.1077 44.8248 67.9644 44.9271 67.8518 45.0295L67.7904 45.0704L67.688 45.1421C67.6164 45.1932 67.5345 45.2547 67.4629 45.3058C67.3298 45.4082 67.1967 45.5003 67.0636 45.5822C66.992 45.6334 66.9203 45.6743 66.8589 45.7255C66.8487 45.7255 66.8384 45.746 66.818 45.7562C66.7361 45.8278 66.5928 45.9507 66.388 46.0326C66.0707 46.268 65.7431 46.4727 65.4258 46.6671L65.3542 46.7081C65.2825 46.7593 65.2006 46.8104 65.1187 46.8616C64.9959 46.9435 64.8731 47.0254 64.7297 47.1073C64.6274 47.1687 64.525 47.2199 64.4329 47.271C64.3612 47.3018 64.2998 47.3427 64.2486 47.3632C63.9723 47.5372 63.6856 47.7009 63.3888 47.8545C63.2762 47.9159 63.1534 47.9773 63.0305 48.0489C62.9691 48.0796 62.9077 48.1104 62.8565 48.1513L62.5903 48.2946L62.2833 48.2536C62.1297 48.2332 61.6281 48.1104 61.4643 47.5167C61.3517 47.2608 61.2391 47.0459 61.0958 46.8719C60.9423 46.6671 60.758 46.4829 60.5226 46.3294C60.3076 46.1861 60.0517 46.0633 59.7446 45.9711C59.5092 45.8995 59.2328 45.8688 58.936 45.8381H58.8029C58.8029 45.8381 58.6596 45.8381 58.5675 45.8381C58.4753 45.8381 58.3832 45.8585 58.2706 45.8585C58.1887 45.8585 58.0966 45.879 57.984 45.8995C57.9533 45.8995 57.8919 45.92 57.8407 45.9404C57.7793 45.9507 57.7383 45.9711 57.7178 45.9711C57.2777 46.0735 56.8375 46.2373 56.3871 46.4624C56.1107 46.5955 55.8446 46.7695 55.5989 46.9333V46.964L55.3328 47.1277C55.0769 47.3017 54.8312 47.5167 54.5548 47.7726C54.2272 48.0796 53.9099 48.4379 53.5926 48.8678C53.1217 49.5024 52.7737 50.1472 52.528 50.8228L52.3437 51.3345L51.8012 51.4062C51.5044 51.4471 51.2075 51.4471 50.9618 51.4471C50.9107 51.4471 50.8595 51.4471 50.8083 51.4471H50.6547C50.491 51.4471 50.3272 51.4471 50.1532 51.4471C50.0508 51.4471 49.9484 51.4471 49.8358 51.4471C49.6004 51.4471 49.3445 51.4471 49.0681 51.4164C48.935 51.4062 48.7917 51.3857 48.6382 51.3755C48.5358 51.3755 48.4335 51.3652 48.3413 51.355C48.1468 51.3345 47.9012 51.3141 47.6453 51.2731C47.3075 51.2219 46.898 51.1605 46.4885 51.0786C46.3759 51.0582 46.2633 51.0275 46.161 51.007C47.4201 52.0817 48.6689 53.1564 49.928 54.2312C50.0406 54.3233 50.1532 54.3949 50.2862 54.4359C50.4807 54.4973 50.665 54.5587 50.8595 54.6201C52.0878 54.9784 53.3469 55.1933 54.6162 55.2854C55.4454 55.3366 56.2745 55.3366 57.1037 55.3059C57.1651 55.3059 57.2265 55.3059 57.2674 55.2547C57.4107 54.9169 57.5541 54.5689 57.7281 54.2414C58.3627 53.0643 59.2021 52.0715 60.2565 51.2526C60.8195 50.8125 61.4439 50.4543 62.1092 50.1779C62.3959 50.0551 62.7029 49.9732 62.9998 49.8709C63.0817 49.8709 63.1636 49.8401 63.2352 49.8197C63.5628 49.7685 63.9006 49.7071 64.2384 49.7071C64.5353 49.7071 64.8321 49.7276 65.1187 49.7583C65.2006 49.789 65.262 49.8401 65.3235 49.9016C66.1526 50.618 66.9818 51.3345 67.8211 52.0408C67.9099 52.1158 68.002 52.1261 68.0975 52.0715C68.9062 51.6416 69.6944 51.1912 70.4621 50.6999C71.2401 50.2086 71.9873 49.6968 72.7243 49.1441C72.7755 49.1032 72.8369 49.0725 72.8779 49.0111C72.8984 48.9906 72.9291 48.9804 72.9495 48.9599C73.4511 48.5812 73.9527 48.1922 74.4236 47.7828C74.7307 47.5167 75.0275 47.2608 75.3346 46.9947C75.3756 46.9537 75.4472 46.923 75.396 46.8514C75.2425 46.4829 75.1299 46.1042 75.0582 45.705C75.0582 45.6538 75.0582 45.6027 75.0378 45.5515C75.0275 45.2956 75.0173 45.0397 74.9968 44.7941C75.0173 44.5893 75.0173 44.3846 75.048 44.1799C75.1708 43.1973 75.4984 42.2761 75.9693 41.4163C76.6346 40.2086 77.5354 39.1952 78.6512 38.3866C79.337 37.8851 80.0741 37.5064 80.8827 37.2505C81.4253 37.0867 81.978 36.9844 82.5513 36.9844C82.5922 36.9946 82.6331 36.9844 82.6741 36.9844C82.8276 36.9946 82.9914 37.0151 83.145 37.0253C83.2064 37.0253 83.2678 37.0663 83.3395 37.0253C83.3906 36.9946 83.4111 36.923 83.4418 36.8718C83.841 36.1553 84.2198 35.4184 84.5678 34.6814C85.4482 32.8185 86.1545 30.8943 86.6765 28.8984C86.7072 28.7755 86.6765 28.7141 86.5844 28.6322C85.6017 27.7827 84.619 26.9331 83.6466 26.0836C83.5237 25.9812 83.3906 25.8891 83.2985 25.7561C83.2576 25.4797 83.2064 25.2136 83.2064 24.9372C83.2064 24.7427 83.2064 24.538 83.2064 24.3436C83.2473 23.7704 83.3599 23.2177 83.5442 22.6752C84.1072 21.017 85.0899 19.6455 86.4411 18.5298C86.6765 18.3353 86.9427 18.1613 87.1781 17.9771C87.1781 17.9771 87.1986 17.9771 87.2088 17.9771V17.9157C87.2088 17.9157 87.1883 17.9157 87.1781 17.9157C87.1679 17.8645 87.1576 17.8031 87.1474 17.7519C87.0246 17.1787 86.8812 16.6055 86.7072 16.0528C86.523 15.4899 86.3285 14.9269 86.0828 14.3844C85.9293 14.0467 85.7757 13.7089 85.6119 13.3711C85.3151 12.7775 84.967 12.2145 84.5883 11.6618C84.5166 11.5594 84.445 11.4776 84.3529 11.3957C83.2576 10.4438 82.1725 9.49188 81.0772 8.53998C81.1386 8.66281 81.2001 8.7754 81.241 8.87775C81.456 9.35882 81.6505 9.82965 81.804 10.28L81.8552 10.2698ZM83.2883 14.5073C83.2883 14.5073 83.2371 14.4663 83.1961 14.4561C83.1961 14.4561 83.2576 14.4868 83.2883 14.5073ZM72.0487 4.05684C72.0487 4.11825 72.0487 4.1899 72.0487 4.25131V4.31273C72.0487 4.3332 72.0487 4.35367 72.0487 4.37414C72.0487 4.75285 72.1204 5.1418 72.2739 5.52051C72.6117 6.38029 73.1748 6.89207 74.0653 7.14795C74.2393 7.19913 74.4133 7.22984 74.5976 7.24007C74.8433 7.26054 75.1401 7.27078 75.396 7.22984H75.4472L75.4984 7.2196C75.7748 7.19913 76.0716 7.12748 76.3685 7.03536C76.3992 7.03536 76.4402 7.01489 76.4811 6.99442C76.5118 6.98419 76.5425 6.97395 76.5732 6.96372C76.6039 6.95348 76.6449 6.94324 76.6756 6.92277C76.7984 6.8716 76.9213 6.82042 77.0543 6.76924C77.1055 6.60547 77.1669 6.45194 77.2283 6.29841C77.2898 6.13464 77.3 6.13464 77.1669 6.03229C75.7031 4.76309 74.2496 3.49389 72.7858 2.21445C72.6834 2.12233 72.581 2.04045 72.4787 1.94833C72.3558 2.24516 72.2637 2.52152 72.2023 2.78764C72.0795 3.25847 72.0283 3.66789 72.0283 4.0466L72.0487 4.05684Z" fill="black"/>
<path d="M36.6225 26.1661L39.5501 19.3902C39.5501 19.3902 41.2903 19.7075 43.2147 18.7454C45.1391 17.7832 47.7596 14.907 47.9951 12.7883C48.2408 10.5672 47.6982 9.02164 47.6982 9.02164L53.4408 5.09122C53.4408 5.09122 54.4849 7.78315 59.0811 7.12808C64.0764 6.4116 65.0182 1.52927 65.5197 1.53951C66.0213 1.54974 69.7064 1.86704 70.1875 2.15364C70.3104 2.22529 69.297 4.92745 71.0678 7.26114C74.3025 11.5089 78.653 8.41775 78.653 8.41775L80.4955 12.7985C80.4955 12.7985 75.9301 9.9326 72.5419 12.645C70.3923 14.3646 70.5663 17.1896 70.5253 17.077C66.7276 8.24375 57.6173 11.908 57.6173 11.908C57.6173 11.908 49.4077 15.1732 46.3266 22.1435C41.6383 32.7577 46.1935 36.8621 46.1935 36.8621C42.9588 37.6196 43.5013 41.8059 43.5013 41.8059C40.6147 40.5879 37.6973 42.4814 37.6973 42.4814L35.9571 38.4589C35.9571 38.4589 42.9486 33.0546 38.5572 27.3022C37.5745 26.0228 36.6327 26.1661 36.6327 26.1661H36.6225Z" fill="#FFB16A"/>
<path d="M98.469 81.1799C98.469 81.1799 85.8783 75.9495 72.96 86.011C72.96 86.011 79.0097 75.3354 67.9339 65.929C67.9339 65.929 80.3609 70.6169 93.187 61.3435C93.187 61.3435 86.257 72.1931 98.4485 81.1696H98.469V81.1799Z" fill="white"/>
<path d="M21.9225 34.7321C21.9225 34.7321 15.5043 29.471 6.1994 33.0535C6.1994 33.0535 11.6144 27.8948 6.80335 20.4638C6.80335 20.4638 13.2318 25.3871 22.3421 22.2346C22.3421 22.2346 16.3948 27.3421 21.9225 34.7218V34.7321Z" fill="white"/>
</g>
<defs>
<clipPath id="clip0_15980_4911">
<rect width="100" height="100" fill="white"/>
</clipPath>
</defs>
</svg>
