<svg width="100" height="100" viewBox="0 0 100 100" fill="none" xmlns="http://www.w3.org/2000/svg">
<g clip-path="url(#clip0_15980_4867)">
<rect width="100" height="100" fill="#FFB16A"/>
<path d="M6.87184 42.8603C6.87184 42.8603 9.14199 50.3625 18.3626 52.4321C18.3626 52.4321 11.3821 53.636 11.2421 61.9739C11.2421 61.9739 8.78197 54.7504 -0.0585938 52.4221C-0.0585938 52.4221 7.33187 51.5465 6.87184 42.8504V42.8603Z" fill="white"/>
<path d="M55.2549 4.4043C55.2549 4.4043 56.725 9.25981 62.6954 10.603C62.6954 10.603 58.1751 11.3791 58.0851 16.7819C58.0851 16.7819 56.495 12.1055 50.7746 10.603C50.7746 10.603 55.5549 10.0359 55.2549 4.41425V4.4043Z" fill="white"/>
<path d="M98.7377 40.154C98.6477 39.4874 98.2076 38.9003 97.5076 38.4924L69.8758 22.4433C69.2858 22.105 68.5858 21.9458 67.8857 21.9458C66.7856 21.9458 65.6656 22.3538 64.9355 23.11L55.0749 33.3682C43.5542 45.5269 31.8734 57.5164 20.2727 69.5856C19.7427 70.1428 19.4926 70.7994 19.5926 71.4462C19.6927 72.1128 20.1327 72.7098 20.8327 73.1078L48.4745 89.1569C49.9946 90.0324 52.2047 89.7339 53.4048 88.4902L98.0676 42.0146C98.5977 41.4674 98.8477 40.8007 98.7477 40.154H98.7377Z" fill="white"/>
<path d="M99.9277 46.3428L99.4477 41.935C99.2877 42.2236 99.0877 42.5121 98.8377 42.7708L54.1748 89.2464C53.2448 90.2215 51.8247 90.7389 50.4246 90.7389C49.5445 90.7389 48.6645 90.5299 47.9144 90.1021L20.2727 74.053C19.3726 73.5356 18.7826 72.7794 18.5626 71.9039L19.1526 77.3464C19.2426 78.1722 19.7627 78.9583 20.6627 79.4856L48.8245 95.8332C50.5546 96.8282 53.0648 96.4899 54.4249 95.077L99.0877 48.6014C99.7377 47.9248 100.008 47.1288 99.9277 46.3726V46.3428Z" fill="black"/>
<path d="M36.3037 86.2018C36.4637 85.754 36.1737 85.1371 35.6437 84.8386L31.6634 82.5203C31.1434 82.2218 30.5933 82.3412 30.4333 82.789C30.2733 83.2367 30.5633 83.8536 31.0934 84.1521L35.0736 86.4704C35.5937 86.7689 36.1437 86.6495 36.3037 86.2018Z" fill="#FFB065"/>
<path d="M42.2741 73.4958C44.0942 74.5406 44.4042 76.5902 42.9741 78.0728C41.554 79.5553 38.9239 79.9135 37.1138 78.8687C35.2936 77.824 34.9736 75.7743 36.4037 74.2918C37.8238 72.8093 40.454 72.4511 42.2741 73.4958Z" fill="black"/>
<path d="M76.4062 30.9007C77.0363 31.2589 77.1463 31.9752 76.6563 32.4827C76.1662 32.9901 75.2462 33.1195 74.6261 32.7613C73.9961 32.4031 73.8861 31.6867 74.3861 31.1793C74.8762 30.6718 75.7862 30.5425 76.4162 30.9007H76.4062Z" fill="black"/>
<path d="M85.2268 35.9651C85.8568 36.3233 85.9669 37.0397 85.4768 37.5471C84.9868 38.0546 84.0667 38.1839 83.4467 37.8257L78.3864 34.9204C77.7563 34.5622 77.6463 33.8458 78.1364 33.3284C78.6264 32.821 79.5364 32.6916 80.1665 33.0498L85.2268 35.9552V35.9651Z" fill="black"/>
<path d="M87.697 57.4368C87.907 57.8249 88.317 57.8945 88.617 57.5761L93.0173 53.0092C93.3173 52.7007 93.3973 52.1336 93.1873 51.7356C92.9773 51.3475 92.5673 51.2779 92.2673 51.5963L87.867 56.1633C87.5669 56.4717 87.4869 57.0388 87.697 57.4368Z" fill="#FFB065"/>
<path d="M81.1865 64.1928C81.3966 64.5808 81.8066 64.6504 82.1066 64.3321L86.5069 59.7651C86.8069 59.4566 86.8869 58.8895 86.6769 58.4915C86.4669 58.1035 86.0569 58.0338 85.7568 58.3522L81.3566 62.9192C81.0565 63.2276 80.9765 63.7948 81.1865 64.1928Z" fill="#FFB065"/>
<path d="M53.6448 44.3031L37.6738 51.5565L25.313 64.3619L38.2038 68.7896C39.3439 69.1677 42.6041 70.7298 44.0842 67.2076L53.6548 44.2931L53.6448 44.3031Z" fill="black"/>
<path d="M73.066 49.3675C73.066 49.3675 74.0661 52.6609 78.1264 53.5763C78.1264 53.5763 75.0562 54.1036 74.9862 57.7751C74.9862 57.7751 73.9061 54.5912 70.0158 53.5763C70.0158 53.5763 73.2661 53.1883 73.066 49.3675Z" fill="#FFB065"/>
<path d="M18.2826 14.0457L7.06186 32.0548C6.27181 33.3185 6.73184 35.0895 8.08192 36.0248L50.1646 65.0086C51.3547 65.8245 52.8548 65.4862 53.5148 64.2624L67.4457 38.6615C68.0657 37.5173 67.6757 35.9054 66.5556 35.0696L35.7537 11.8965C33.1535 9.9364 33.0935 9.6578 31.1534 9.8966C30.5233 9.9762 22.7228 10.9413 22.1628 11.011C20.0927 11.2597 20.0927 11.1304 18.2726 14.0457H18.2826Z" fill="white"/>
<path d="M18.6826 13.3193L7.46188 31.3285C6.67183 32.5921 7.13186 34.3632 8.48195 35.2985L50.5646 64.2823C51.7547 65.0982 53.2548 64.7599 53.9148 63.5361L67.8457 37.9352C68.4657 36.791 68.0757 35.1791 66.9557 34.3433L36.1537 11.1801C33.5535 9.22001 33.4935 8.94141 31.5534 9.18021C30.9234 9.25981 23.1229 10.2249 22.5628 10.2946C20.4927 10.5433 20.4927 10.414 18.6726 13.3293L18.6826 13.3193Z" fill="black"/>
<path d="M33.5535 27.0003L30.4033 32.2936L37.0938 37.0795L40.174 31.8061L33.5535 27.0003Z" fill="white"/>
<path d="M40.734 30.831L44.0442 25.1497L39.4839 21.7667C38.4038 20.9608 37.0138 21.1598 36.3937 22.2145L34.1336 26.0153L40.744 30.831H40.734Z" fill="white"/>
<path d="M52.1547 31.1594L45.0243 25.886L37.5238 38.8008L29.8133 33.2986L27.4931 37.1989C26.8431 38.2934 27.2331 39.8257 28.3532 40.6117L41.534 49.8451L52.1547 31.1594Z" fill="white"/>
<path d="M45.8343 44.711L42.5341 50.5416L48.1945 54.5116C49.2545 55.2578 50.5946 54.9792 51.1946 53.9046L53.3248 50.0541L45.8443 44.721L45.8343 44.711Z" fill="white"/>
<path d="M50.0146 37.3183L57.385 42.6912L59.3552 39.1391C59.9252 38.1043 59.5752 36.6517 58.5551 35.8955L53.1148 31.8658L50.0246 37.3282L50.0146 37.3183Z" fill="white"/>
<path d="M53.8548 49.069L56.855 43.6563L49.4645 38.2934L46.3843 43.726L53.8548 49.069Z" fill="white"/>
</g>
<defs>
<clipPath id="clip0_15980_4867">
<rect width="100" height="100" fill="white"/>
</clipPath>
</defs>
</svg>
