<svg width="100" height="100" viewBox="0 0 100 100" fill="none" xmlns="http://www.w3.org/2000/svg">
<g clip-path="url(#clip0_15980_1806)">
<rect width="100" height="100" fill="#FFB16A"/>
<path d="M37.5552 42.3175C32.294 46.0322 27.0327 49.7468 21.7716 53.4615C17.1796 56.7863 17.0537 63.5647 21.5191 67.0566L22.1826 67.5755L36.1123 52.6094C36.5933 49.1788 37.0742 45.7482 37.5552 42.3175Z" fill="white"/>
<path d="M37.5552 42.3175C36.5837 43.1937 35.1606 44.5611 33.6219 46.3936C31.5972 48.805 31.2619 49.771 29.6847 51.9064C25.9046 57.0244 23.9236 56.7649 22.2354 60.1438C21.4364 61.743 20.6607 64.2417 21.0998 67.9738C24.7185 63.8551 28.3372 59.7364 31.9558 55.6178L33.9807 48.7382L37.5552 42.3175Z" fill="#FFB16A"/>
<path d="M68.1049 64.741C68.9281 61.2089 73.053 59.146 77.3185 60.1331C81.5841 61.1202 84.3749 64.7839 83.5516 68.316C83.1694 69.9555 82.0745 71.2769 80.5855 72.1252C83.0891 72.9133 85.5861 74.2228 87.6935 75.8046C88.3076 74.6277 89.2455 73.642 90.4707 73.0032C93.9495 71.1893 98.4158 72.8526 100.446 76.7186C102.476 80.5847 101.301 85.1895 97.8226 87.0033C96.052 87.9264 94.0266 87.947 92.1959 87.2365C87.7782 93.5052 70.327 97.2281 55.7272 95.8553C42.6536 94.626 28.5387 88.9979 28.8906 84.8214C29.173 81.4781 38.4809 82.7499 61.0475 75.1004C65.3681 73.6359 68.5789 72.3976 71.5047 71.7596C68.9238 70.1518 67.4829 67.4095 68.1049 64.741Z" fill="black"/>
<path d="M4.13453 62.5474C6.17835 62.2598 9.77347 62.0206 13.9985 63.2022C18.4035 64.4341 21.4357 66.6349 23.0304 67.9786C23.8676 72.5177 24.7047 77.0567 25.5417 81.5958C22.7004 82.3617 18.9855 83.0858 14.6042 83.2374C10.4782 83.3802 6.91805 82.9754 4.13453 82.4619V62.5474Z" fill="white"/>
<path d="M4.13453 82.4619C7.27869 82.4619 9.82744 78.0038 9.82744 72.5046C9.82744 67.0054 7.27869 62.5474 4.13453 62.5474C0.99036 62.5474 -1.55859 67.0054 -1.55859 72.5046C-1.55859 78.0038 0.99036 82.4619 4.13453 82.4619Z" fill="white"/>
<path d="M69.2225 54.5335L70.27 51.7831L68.5742 47.393L39.019 41.3854C36.8128 42.6581 33.9976 44.797 32.7204 48.265C32.1365 49.8506 32.4721 50.0849 31.8344 51.8165C30.6127 55.1335 28.6648 56.2359 25.4887 59.9744C25.2164 60.2949 22.608 63.3783 21.7112 65.0809C18.3208 71.5174 24.7515 86.0129 36.0133 92.0076C47.9887 98.3822 66.9544 95.9576 70.9091 85.4349C72.4079 81.4469 71.4275 77.1554 69.8523 73.5895C67.1796 67.5389 66.8685 60.7142 69.2225 54.5335Z" fill="white"/>
<path d="M60.8374 67.3804C57.5178 75.5801 59.7418 83.2399 64.2804 85.5311C66.9919 86.9 70.1065 86.1389 71.9086 85.4797L62.978 79.083C62.2645 75.1821 61.5509 71.2812 60.8374 67.3804Z" fill="#FFB16A"/>
<path d="M2.49262 80.9012C4.59652 80.9012 6.30208 78.1127 6.30208 74.673C6.30208 71.2332 4.59652 68.4448 2.49262 68.4448C0.38871 68.4448 -1.31684 71.2332 -1.31684 74.673C-1.31684 78.1127 0.38871 80.9012 2.49262 80.9012Z" fill="black"/>
<path d="M6.16603 69.0152C6.83081 69.0152 7.36972 68.231 7.36972 67.2635C7.36972 66.2961 6.83081 65.5118 6.16603 65.5118C5.50126 65.5118 4.96235 66.2961 4.96235 67.2635C4.96235 68.231 5.50126 69.0152 6.16603 69.0152Z" fill="black"/>
<path d="M2.51176 67.8743C3.17653 67.8743 3.71544 67.09 3.71544 66.1226C3.71544 65.1551 3.17653 64.3709 2.51176 64.3709C1.84698 64.3709 1.30807 65.1551 1.30807 66.1226C1.30807 67.09 1.84698 67.8743 2.51176 67.8743Z" fill="black"/>
<path d="M59.211 92.5869C46.4221 94.8745 35.3923 85.9714 30.2301 81.8044C25.8624 78.279 22.7933 74.7065 20.8062 72.0927C20.8431 72.4161 20.8821 72.9003 20.8656 73.4868C20.8656 73.4868 20.8078 75.5406 19.904 77.5068C18.9419 79.5999 13.2683 82.6969 5.12503 82.6516C8.14682 83.1332 11.9941 83.4589 16.4215 83.1363C19.5967 82.905 22.3947 82.3894 24.7395 81.8034C24.7384 81.8009 24.7372 81.7984 24.7361 81.7959C25.818 83.5184 27.175 85.2735 28.8847 86.9382C29.5887 87.6237 31.7563 89.6609 35.137 91.5162C42.015 95.291 57.3474 98.8994 66.6591 91.1021C67.9265 90.0409 68.82 88.9878 69.3845 88.2507C65.3956 91.0416 61.7807 92.1273 59.211 92.5869Z" fill="black"/>
<path d="M46.5899 100.404C53.1123 100.404 58.3998 95.1357 58.3998 88.6367C58.3998 82.1376 53.1123 76.869 46.5899 76.869C40.0674 76.869 34.7799 82.1376 34.7799 88.6367C34.7799 95.1357 40.0674 100.404 46.5899 100.404Z" fill="white"/>
<path d="M46.5896 98.2623C50.478 98.2623 53.6301 95.1214 53.6301 91.2469C53.6301 87.3724 50.478 84.2315 46.5896 84.2315C42.7012 84.2315 39.549 87.3724 39.549 91.2469C39.549 95.1214 42.7012 98.2623 46.5896 98.2623Z" fill="black"/>
<path d="M40.6466 85.4896C41.9009 85.4896 42.9178 84.4765 42.9178 83.2266C42.9178 81.9768 41.9009 80.9636 40.6466 80.9636C39.3923 80.9636 38.3755 81.9768 38.3755 83.2266C38.3755 84.4765 39.3923 85.4896 40.6466 85.4896Z" fill="black"/>
<path d="M52.6117 85.4896C53.866 85.4896 54.8829 84.4765 54.8829 83.2266C54.8829 81.9768 53.866 80.9636 52.6117 80.9636C51.3574 80.9636 50.3406 81.9768 50.3406 83.2266C50.3406 84.4765 51.3574 85.4896 52.6117 85.4896Z" fill="black"/>
<path d="M46.6294 83.2267C47.8837 83.2267 48.9005 82.2135 48.9005 80.9636C48.9005 79.7138 47.8837 78.7006 46.6294 78.7006C45.3751 78.7006 44.3582 79.7138 44.3582 80.9636C44.3582 82.2135 45.3751 83.2267 46.6294 83.2267Z" fill="black"/>
<path d="M68.6952 47.6706C66.5347 49.0144 63.1163 50.7031 58.6846 51.2127C47.6086 52.4862 39.5041 45.3242 38.0425 43.9861C40.6184 48.2917 43.6502 50.489 45.4009 51.5446C45.4009 51.5446 54.0117 56.7362 66.4983 53.5118C66.5737 53.4923 68.766 52.9237 68.766 52.9237C69.2783 52.7448 69.7905 52.5659 70.3028 52.387C70.2122 51.9253 70.0989 51.4408 69.9574 50.9379C69.6035 49.6801 69.1527 48.5885 68.6952 47.6706Z" fill="#FFB16A"/>
<path d="M70.2135 51.3822C70.5693 51.4263 71.1433 51.5907 72.5665 53.2895C74.9132 56.0907 76.9755 59.9684 78.8494 71.1765C79.7617 76.6334 79.6585 78.0151 79.0637 79.4904C78.874 79.9607 77.1257 84.1064 72.9469 85.149C72.5688 85.2434 70.9623 85.6138 69.1555 85.1701C64.3409 83.9879 61.4452 77.6952 60.5937 73.2907C58.5387 62.6622 66.0537 50.8658 70.2135 51.3822Z" fill="white"/>
<path d="M89.0748 24.3026C84.8326 27.6594 77.9451 25.8001 75.2036 21.1511C72.9589 17.3443 73.4265 11.553 77.5734 8.74291C81.7032 5.94439 87.2358 7.62457 90.0261 11.1042C93.1352 14.9813 92.9529 21.2339 89.0748 24.3026Z" fill="black"/>
<path d="M86.6869 23.3049C83.6569 25.7025 78.7375 24.3745 76.7793 21.0539C75.176 18.335 75.51 14.1985 78.4719 12.1913C81.4217 10.1925 85.3734 11.3925 87.3664 13.8779C89.5871 16.6471 89.4568 21.1131 86.6869 23.3049Z" fill="#FFB16A"/>
<path d="M47.562 7.25382C48.7387 12.5227 44.0509 17.8834 38.6562 18.3092C34.239 18.6579 29.2154 15.7083 28.4905 10.7637C27.7687 5.83951 31.7028 1.61488 36.0631 0.634391C40.9216 -0.458106 46.4863 2.43714 47.562 7.25382Z" fill="black"/>
<path d="M45.6183 8.95807C46.4587 12.7214 43.1105 16.5503 39.2573 16.8544C36.1022 17.1035 32.5141 14.9967 31.9964 11.465C31.4808 7.94784 34.2908 4.93038 37.4052 4.2301C40.8753 3.44979 44.85 5.51776 45.6183 8.95807Z" fill="#FFB16A"/>
<path d="M43.6657 16.0302C46.4222 13.3082 46.5653 8.98665 44.2201 6.30439C42.1703 3.95994 38.5851 3.28598 35.5996 4.80203C38.5896 4.47001 41.5142 5.81869 43.1464 8.28667C45.537 11.9013 43.7667 15.8169 43.6657 16.0302Z" fill="white"/>
<path d="M80.2382 26.8829C81.4791 39.73 70.1663 49.6398 58.9141 51.1523C49.1384 52.4664 38.2666 47.5958 34.6113 39.5426C33.0635 36.1325 33.2265 33.0698 33.3362 31.3807C33.8788 23.0315 40.0288 8.51445 54.6603 7.11136C67.6119 5.86932 79.0635 14.7214 80.2382 26.8829Z" fill="white"/>
<path d="M46.4011 26.0147C47.6649 26.0147 48.6894 24.9939 48.6894 23.7346C48.6894 22.4754 47.6649 21.4545 46.4011 21.4545C45.1374 21.4545 44.1129 22.4754 44.1129 23.7346C44.1129 24.9939 45.1374 26.0147 46.4011 26.0147Z" fill="black"/>
<path d="M47.1596 23.9291C47.5191 23.9291 47.8106 23.6386 47.8106 23.2803C47.8106 22.922 47.5191 22.6315 47.1596 22.6315C46.8 22.6315 46.5085 22.922 46.5085 23.2803C46.5085 23.6386 46.8 23.9291 47.1596 23.9291Z" fill="white"/>
<path d="M62.3897 29.0926C63.6535 29.0926 64.6779 28.0718 64.6779 26.8125C64.6779 25.5533 63.6535 24.5325 62.3897 24.5325C61.1259 24.5325 60.1014 25.5533 60.1014 26.8125C60.1014 28.0718 61.1259 29.0926 62.3897 29.0926Z" fill="black"/>
<path d="M63.3607 27.0664C63.7203 27.0664 64.0118 26.7759 64.0118 26.4176C64.0118 26.0593 63.7203 25.7689 63.3607 25.7689C63.0011 25.7689 62.7096 26.0593 62.7096 26.4176C62.7096 26.7759 63.0011 27.0664 63.3607 27.0664Z" fill="white"/>
<path d="M67.7146 40.8553C69.0312 35.2065 63.3114 29.0565 54.939 27.119C46.5665 25.1815 38.712 28.1901 37.3953 33.839C36.0787 39.4878 41.7985 45.6378 50.1709 47.5753C58.5434 49.5129 66.3979 46.5042 67.7146 40.8553Z" fill="#FFB16A"/>
<path d="M46.2607 29.3731C47.0486 27.5026 52.959 28.5168 53.5899 28.6294C54.6224 28.8138 59.5059 29.6856 59.6603 31.5019C59.8041 33.1934 55.849 35.7335 52.2059 35.1534C48.5739 34.5749 45.5966 30.95 46.2607 29.3731Z" fill="black"/>
<path d="M83.6999 11.4644C86.168 13.0075 87.4195 15.934 86.8269 18.7759C86.2338 21.6202 83.9125 23.8087 81.0289 24.242C81.4329 24.3768 83.5438 25.0362 85.7267 23.9135C87.6053 22.9475 88.3249 21.2852 88.5303 20.79C89.7915 17.7489 88.1167 14.9351 87.9171 14.6119C86.5221 12.3546 84.2933 11.6355 83.6999 11.4644Z" fill="white"/>
<path d="M49.0912 29.0076C49.0232 29.009 49.0113 29.1037 49.0761 29.1241C49.6576 29.3069 50.4468 29.6452 51.2184 30.2878C51.788 30.7621 52.1789 31.2612 52.4378 31.6556C52.7324 31.4063 53.0971 31.1447 53.5387 30.9127C54.652 30.3279 55.7354 30.204 56.4841 30.2021C56.5525 30.2019 56.5681 30.1072 56.503 30.0863C55.5551 29.7825 54.4495 29.4968 53.204 29.295C51.6578 29.0445 50.2646 28.983 49.0912 29.0076Z" fill="white"/>
<path d="M50.9888 87.4212C51.1503 87.581 53.1931 89.6726 52.612 92.5465C52.1674 94.7462 50.3689 96.4973 48.0622 96.9609C48.1967 96.8905 49.241 96.3216 49.4419 95.1279C49.5594 94.4295 49.3288 93.8697 49.2189 93.6421C49.6301 93.3015 50.5163 92.4726 50.9887 91.0871C51.5734 89.3723 51.1501 87.9025 50.9888 87.4212Z" fill="white"/>
<path d="M3.91323 70.5556C4.30041 71.0747 5.73472 73.1248 5.51279 76.0297C5.31397 78.6324 3.90767 80.3255 3.43941 80.845C3.49112 80.7104 4.04549 79.1973 3.16069 78.0331C2.84056 77.6119 2.44232 77.3815 2.16572 77.258C2.57244 77.0035 3.64724 76.2551 4.20588 74.8255C5.02742 72.723 4.06841 70.8471 3.91323 70.5556Z" fill="white"/>
</g>
<defs>
<clipPath id="clip0_15980_1806">
<rect width="100" height="100" fill="white"/>
</clipPath>
</defs>
</svg>
