<svg width="100" height="100" viewBox="0 0 100 100" fill="none" xmlns="http://www.w3.org/2000/svg">
<rect width="100" height="100" fill="#FFB16A"/>
<path d="M67.1321 74.4404C67.1321 80.2718 71.8768 85.017 77.7074 85.017C83.5381 85.017 88.2828 80.2718 88.2828 74.4404C88.2828 70.2115 85.7636 66.3921 81.8735 64.7184L80.8053 64.2554L81.7489 63.5788C90.1166 57.5872 94.7188 49.4855 94.7188 40.7696C94.7188 23.4891 76.2386 9.4315 53.5302 9.4315C30.8217 9.4315 12.3416 23.4891 12.3416 40.7696C12.3416 58.0501 30.8217 72.1078 53.5302 72.1078C58.0612 72.1078 62.5299 71.5469 66.8295 70.4252L67.9779 70.1313L67.6218 71.262C67.3013 72.2858 67.1321 73.3631 67.1321 74.4404Z" fill="white"/>
<path d="M67.9155 100C70.649 100 72.865 97.7839 72.865 95.05C72.865 92.3162 70.649 90.1 67.9155 90.1C65.1821 90.1 62.9662 92.3162 62.9662 95.05C62.9662 97.7839 65.1821 100 67.9155 100Z" fill="white"/>
<path d="M26.3709 15.6691C33.7415 10.9506 43.213 8.11052 53.5302 8.11052C57.9544 8.11052 62.2184 8.63583 66.2331 9.59734C60.6072 7.45174 54.278 6.23202 47.5661 6.23202C37.0174 6.23202 27.3857 9.2234 20.0328 14.1467L26.3709 15.6602V15.6691Z" fill="black"/>
<path d="M20.8162 19.9458C21.7865 19.0466 22.8281 18.1919 23.9141 17.3818L17.6472 15.8861C16.6057 16.7052 15.6176 17.5598 14.6918 18.459L20.8162 19.9458Z" fill="black"/>
<path d="M65.8148 74.4354C65.8148 73.5985 65.9039 72.7705 66.073 71.9604C64.266 72.3877 62.4143 72.7082 60.5538 72.9486C61.0078 77.863 64.622 81.8515 69.3399 82.8753C67.159 80.7208 65.8148 77.7295 65.8148 74.4354Z" fill="black"/>
<path d="M11.0242 40.7646C11.0242 34.8264 13.1072 29.2532 16.7392 24.4457L10.766 22.9945C7.5525 27.5261 5.71875 32.7164 5.71875 38.2362C5.71875 49.9435 13.944 60.173 26.2107 65.7462C16.935 59.7545 11.0331 50.7804 11.0331 40.7646H11.0242Z" fill="black"/>
<path d="M61.6488 95.0479C61.6488 92.0921 63.7051 89.617 66.4557 88.9582C65.5121 88.246 64.3461 87.8186 63.082 87.8186C59.9842 87.8186 57.4739 90.3293 57.4739 93.4275C57.4739 96.5257 59.9842 99.0364 63.082 99.0364C62.183 97.9502 61.6488 96.5614 61.6488 95.0479Z" fill="black"/>
<path d="M56.9399 14.0153C56.9399 14.0153 71.0313 13.4277 81.3485 22.9093C91.6657 32.3909 89.3512 46.6889 89.3512 46.6889C89.3512 46.6889 88.1317 23.6482 68.9928 22.9805C68.9928 22.9805 67.809 16.2499 56.931 14.0153H56.9399Z" fill="#FFB065"/>
<path d="M23.0683 69.526C23.0683 69.526 25.4183 77.3248 34.961 79.4793C34.961 79.4793 27.7328 80.7258 27.5903 89.4061C27.5903 89.4061 25.0445 81.8832 15.9023 79.4705C15.9023 79.4705 23.5401 78.5624 23.0683 69.526Z" fill="white"/>
<path d="M82.2385 0.00891158C82.2385 0.00891158 83.8764 5.43079 90.5083 6.92647C90.5083 6.92647 85.4788 7.79005 85.3808 13.8262C85.3808 13.8262 83.6094 8.60021 77.2535 6.91756C77.2535 6.91756 82.5678 6.28544 82.2385 0V0.00891158Z" fill="white"/>
</svg>
