<svg width="100" height="100" viewBox="0 0 100 100" fill="none" xmlns="http://www.w3.org/2000/svg">
<g clip-path="url(#clip0_15980_1790)">
<rect width="100" height="100" fill="#FFB16A"/>
<path d="M16.6348 52.2397C27.5156 48.5386 39.1345 46.4656 51.2591 46.4656C63.3836 46.4656 75.0127 48.5386 85.8934 52.2397C87.4406 52.7655 88.6743 53.8576 89.4226 55.2329L82.8395 40.8735C81.98 39.3972 80.6047 38.2444 78.9059 37.6882C70.1891 34.8669 60.9162 33.2894 51.2591 33.2894C41.6019 33.2894 32.329 34.8669 23.6122 37.6882C21.9033 38.2444 20.5381 39.3972 19.6786 40.8735L13.0955 55.2329C13.8539 53.8576 15.0775 52.7655 16.6247 52.2397H16.6348Z" fill="white"/>
<path d="M90.252 58.3781C90.252 55.6174 88.5024 53.1296 85.8934 52.2397C75.0127 48.5386 63.3937 46.4656 51.2591 46.4656C39.1244 46.4656 27.5055 48.5386 16.6348 52.2397C14.0157 53.1296 12.2867 55.6174 12.2867 58.3781V94.8023C12.2867 97.6742 14.6126 100 17.4844 100H85.0544C87.9262 100 90.252 97.6742 90.252 94.8023V58.3781Z" fill="white"/>
<path d="M12.2769 94.7922C12.2769 94.7922 12.7825 97.5124 17.515 97.5124H86.6927V99.9899H17.2622C17.2622 99.9899 12.5196 100.051 12.2769 94.7922Z" fill="black"/>
<path d="M19.6786 40.8735L13.0955 55.2329C13.8539 53.8576 15.0775 52.7655 16.6247 52.2397C21.0842 50.7228 25.6748 49.4997 30.3669 48.5593C41.5712 43.3919 36.0297 37.4257 44.1397 33.5831C37.0308 34.1595 30.1646 35.5752 23.6119 37.6988C21.9029 38.2549 20.5378 39.4077 19.6782 40.8841L19.6786 40.8735Z" fill="black"/>
<path d="M70.9169 41.4502C68.3888 41.8648 66.1641 42.3502 64.4956 42.7446C64.0102 42.8659 64.1013 43.5738 64.6069 43.5839C71.0382 43.6648 73.8697 43.9783 73.8697 43.9783V41.2176L70.9169 41.4502Z" fill="black"/>
<path d="M76.9033 43.1288V29.9728C76.9033 15.8864 65.436 4.41916 51.3496 4.41916C37.2633 4.41916 25.7961 15.8864 25.7961 29.9728V43.1692C25.8365 43.9074 27.1713 44.2714 28.8196 43.9883C30.4881 43.695 31.8533 42.8456 31.8533 42.0872V29.9728C31.8533 19.2235 40.6004 10.4865 51.3395 10.4865C62.0787 10.4865 70.8258 19.2336 70.8258 29.9728V42.0872C70.8258 42.8456 72.1909 43.7052 73.8595 43.9883C75.5078 44.2714 76.8527 43.867 76.9033 43.1288Z" fill="white"/>
<path d="M26.9076 43.9984C26.9076 43.9984 27.8784 44.231 29.0615 43.9276V30.9941C29.0615 30.9941 27.9088 14.2684 42.4906 7.16966C42.4906 7.16966 26.9076 12.1247 26.9076 30.9941V43.9984Z" fill="black"/>
<path d="M60.5713 10.9716C73.5453 17.2918 72.5138 32.1668 72.5138 32.1668V43.6038C73.4947 43.9981 74.4352 44.0487 74.4352 44.0487V32.177C74.4352 15.3907 60.5713 10.9817 60.5713 10.9817V10.9716Z" fill="black"/>
<path d="M5.12691 23.046C5.12691 23.046 6.81566 28.628 13.6414 30.165C13.6414 30.165 8.46395 31.0549 8.36283 37.2638C8.36283 37.2638 6.54261 31.8841 0 30.1549C0 30.1549 5.47072 29.5078 5.12691 23.0359V23.046Z" fill="white"/>
<path d="M86.8038 0C86.8038 0 89.4128 8.64595 99.9902 11.0426C99.9902 11.0426 91.9712 12.4279 91.8195 22.0447C91.8195 22.0447 88.9982 13.7021 78.8556 11.0324C78.8556 11.0324 87.3296 10.0313 86.8038 0Z" fill="white"/>
<path d="M70.0567 61.4726C70.3904 61.9681 70.6938 62.4737 70.987 62.9895H90.2811V61.4726H70.0567Z" fill="black"/>
<path d="M73.5057 69.6631H90.2819V68.1463H73.1417C73.2833 68.6418 73.4046 69.1474 73.5158 69.6631H73.5057Z" fill="black"/>
<path d="M90.2713 76.3279V74.8111H73.9603C73.9502 75.3167 73.9198 75.8223 73.8794 76.3279H90.2713Z" fill="black"/>
<path d="M72.2924 83.0016H90.2821V81.4848H72.8486C72.6767 82.0005 72.4947 82.5061 72.2924 83.0016Z" fill="black"/>
<path d="M68.1251 89.6753H90.281V88.1584H69.379C68.9846 88.6843 68.57 89.1899 68.1352 89.6753H68.1251Z" fill="black"/>
<path d="M31.8932 61.4726H12.2452V62.9895H30.9629C31.2561 62.4737 31.5696 61.9681 31.8932 61.4726Z" fill="black"/>
<path d="M28.8092 68.1463H12.2353V69.6631H28.4351C28.5362 69.1474 28.6677 68.6418 28.8092 68.1463Z" fill="black"/>
<path d="M27.9699 74.8111H12.2353V76.3279H28.0508C28.0104 75.8223 27.98 75.3167 27.9699 74.8111Z" fill="black"/>
<path d="M29.0924 81.4848H12.2353V83.0016H29.6485C29.4463 82.5061 29.2643 82.0005 29.0924 81.4848Z" fill="black"/>
<path d="M12.2353 88.1584V89.6753H33.8148C33.3799 89.1899 32.9653 88.6843 32.571 88.1584H12.2353Z" fill="black"/>
<path d="M51.2953 61.3989C47.4681 61.3989 44.0644 63.3284 41.7555 66.3259C41.4507 66.7215 41.5133 67.2981 41.8953 67.6138C42.2773 67.9294 42.834 67.8645 43.1388 67.4689C45.152 64.8553 48.0676 63.2317 51.2953 63.2317C54.523 63.2317 57.4387 64.8553 59.4518 67.4689C59.7566 67.8645 60.3133 67.9294 60.6953 67.6138C61.0773 67.2981 61.1399 66.7215 60.8352 66.3259C58.5263 63.3284 55.1225 61.3989 51.2953 61.3989Z" fill="black"/>
<path d="M40.6775 75.893C40.6775 69.8975 45.4458 65.0645 51.2953 65.0645C57.1448 65.0645 61.9132 69.8975 61.9132 75.893C61.9132 78.2387 60.0497 80.1134 57.7836 80.1134C55.5176 80.1134 53.6541 78.2387 53.6541 75.893C53.6541 74.5889 52.6116 73.5054 51.2942 73.5054C49.9769 73.5054 48.9344 74.5889 48.9344 75.893C48.9344 79.1077 50.595 81.9348 53.1047 83.528C53.5213 83.7925 53.6521 84.3567 53.3967 84.7883C53.1413 85.2198 52.5966 85.3552 52.1799 85.0907C49.1761 83.1838 47.1647 79.7819 47.1647 75.893C47.1647 73.5472 49.0282 71.6725 51.2942 71.6725C53.5603 71.6725 55.4238 73.5472 55.4238 75.893C55.4238 77.1971 56.4663 78.2806 57.7836 78.2806C59.1009 78.2806 60.1435 77.1971 60.1435 75.893C60.1435 70.9389 56.1958 66.8974 51.2953 66.8974C46.3948 66.8974 42.4471 70.9389 42.4471 75.893C42.4471 77.0434 42.5736 78.1648 42.8067 79.2475C42.9131 79.7415 42.6127 80.2312 42.1358 80.3414C41.6588 80.4516 41.1859 80.1405 41.0795 79.6465C40.8194 78.4384 40.6775 77.1831 40.6775 75.893Z" fill="black"/>
<path d="M51.2953 75.1452C51.784 75.1452 52.1801 75.5555 52.1801 76.0616C52.1801 79.0301 54.7223 81.5601 58.0121 81.5601C58.0714 81.5601 58.118 81.5571 58.1868 81.5527C58.2252 81.5502 58.2704 81.5473 58.3286 81.5442C58.8167 81.5183 59.2326 81.9071 59.2575 82.4126C59.2825 82.918 58.9072 83.3488 58.4191 83.3746C58.4009 83.3756 58.3777 83.3771 58.3508 83.3788C58.2605 83.3846 58.129 83.3929 58.0121 83.3929C53.8829 83.3929 50.4105 80.1795 50.4105 76.0616C50.4105 75.5555 50.8066 75.1452 51.2953 75.1452Z" fill="black"/>
<path d="M51.2953 69.6466C48.415 69.6466 45.9864 72.2396 45.9864 75.5623C45.9864 78.2944 46.7637 80.8183 48.0798 82.8891C48.3485 83.3118 48.2354 83.8801 47.8272 84.1584C47.419 84.4367 46.8703 84.3196 46.6016 83.8968C45.0982 81.5313 44.2168 78.6579 44.2168 75.5623C44.2168 71.3378 47.3343 67.8138 51.2953 67.8138C55.2563 67.8138 58.3739 71.3378 58.3739 75.5623C58.3739 76.0684 57.9777 76.4787 57.4891 76.4787C57.0004 76.4787 56.6042 76.0684 56.6042 75.5623C56.6042 72.2396 54.1757 69.6466 51.2953 69.6466Z" fill="black"/>
</g>
<defs>
<clipPath id="clip0_15980_1790">
<rect width="100" height="100" fill="white"/>
</clipPath>
</defs>
</svg>
