<svg width="100" height="100" viewBox="0 0 100 100" fill="none" xmlns="http://www.w3.org/2000/svg">
<rect width="100" height="100" fill="#FFB065"/>
<path d="M53.2106 80.2213C74.1874 80.2213 91.1924 63.2163 91.1924 42.2395C91.1924 21.2628 74.1874 4.25774 53.2106 4.25774C32.2338 4.25774 15.2288 21.2628 15.2288 42.2395C15.2288 63.2163 32.2338 80.2213 53.2106 80.2213Z" fill="white"/>
<path d="M58.205 16.5774L60.8561 16.1733C61.2207 16.1142 61.3882 15.6806 61.1418 15.3948L58.6978 12.5368C58.4218 12.2116 57.8897 12.389 57.8601 12.8127L57.6532 16.0748C57.6335 16.3803 57.8995 16.6168 58.1951 16.5774H58.205Z" fill="black"/>
<path d="M59.7371 18.0752L58.9093 18.6961C58.5052 19.0016 58.2588 19.4845 58.2588 19.997V21.8399C58.2588 22.0567 58.2194 22.2637 58.1307 22.4608L56.8102 25.6243C56.7313 25.8214 56.682 26.0382 56.682 26.2452V30.069C56.682 30.3351 56.751 30.5913 56.8692 30.8278L60.5058 37.7067C60.7621 38.1896 61.2449 38.505 61.7869 38.5641L66.7836 39.047C67.1482 39.0864 67.5226 38.9879 67.8282 38.7908L71.3859 36.4551C71.7209 36.2383 72.1152 36.1496 72.5094 36.2087L73.8891 36.4058C74.6578 36.5142 75.2294 37.145 75.2787 37.9137L75.4266 40.3775C75.4857 41.4024 75.7419 42.3978 76.1657 43.3241L78.3437 48.0152C78.4521 48.2419 78.5014 48.4883 78.4915 48.7346L78.3437 55.8993C78.3437 56.1063 78.3732 56.3034 78.4422 56.4906L79.1124 58.304C79.5164 59.3979 80.9257 59.733 81.7634 58.915C83.0347 57.6536 84.6214 55.6135 85.4 52.7555C86.6319 48.2517 85.7251 42.6934 85.4591 41.3038C85.4196 41.087 85.4295 40.8604 85.4788 40.6435L86.8979 34.6615C86.9373 34.4841 87.0162 34.3067 87.1148 34.1588L87.8342 33.0452C88.3072 32.3061 88.1199 31.3304 87.4005 30.8278L86.2081 30C85.6167 29.5959 85.5477 28.7484 86.0503 28.2458C86.415 27.8811 86.4939 27.3292 86.2475 26.8759C84.7397 24.1361 79.1123 14.754 70.5383 10.674C69.4838 10.1714 68.2421 10.8908 68.1928 12.0636C68.1632 12.8224 67.6015 13.463 66.8525 13.5911L65.6502 13.7981C64.9801 13.9164 64.4479 14.4485 64.3296 15.1187L64.1226 16.3112C63.9945 17.0601 63.354 17.6219 62.5951 17.6515L60.634 17.7303C60.3087 17.7402 59.9933 17.8584 59.7272 18.0555L59.7371 18.0752Z" fill="black"/>
<path d="M32.9678 49.9271L36.4763 48.6262C36.6537 48.5572 36.8508 48.5277 37.038 48.5277H41.4827C41.8769 48.5277 42.2514 48.6656 42.547 48.9219L46.6764 52.4993C46.7552 52.5683 46.834 52.6471 46.903 52.7358L49.5541 56.1753C49.8104 56.5005 50.1749 56.7173 50.579 56.7863L54.6985 57.4466C54.7773 57.4564 54.8463 57.4762 54.9251 57.4959L58.0985 58.4814C58.8376 58.7081 59.3107 59.4275 59.2318 60.1962L58.611 66.4148C58.5913 66.6217 58.5321 66.8188 58.4434 66.9962L56.0979 71.5493C55.9796 71.776 55.9205 72.0322 55.9205 72.2885V75.9447C55.9205 76.8908 55.1124 77.6398 54.1663 77.561L45.1488 76.8514C44.4589 76.7923 43.8775 76.3094 43.7001 75.6293L41.7587 67.9818C41.5911 67.3116 41.0195 66.8287 40.3296 66.7696L35.0275 66.2965C34.6333 66.2571 34.2589 66.0797 33.9928 65.7939L29.755 61.3C29.4298 60.955 29.2722 60.4721 29.3215 59.9991L30.0507 53.8199C30.1296 53.1695 29.8043 52.5387 29.2327 52.2135L26.7788 50.8239C26.6408 50.7451 26.5128 50.6465 26.3945 50.5283L23.7335 47.7196L19.6831 43.3636C19.5648 43.2355 19.4169 43.1172 19.2593 43.0384L18.0372 42.3879C17.4755 42.0923 17.1404 41.5009 17.1798 40.8702C17.3474 38.1206 18.2048 30.4533 22.6002 23.9095C23.0437 23.2393 23.9011 22.9831 24.6304 23.3083L27.1533 24.4417C27.6657 24.6683 28.2571 24.6191 28.7203 24.3136L30.1493 23.3576C30.5632 23.0817 31.0757 23.0127 31.5487 23.1605L34.6235 24.146C34.998 24.2643 35.3134 24.5106 35.5105 24.8457L36.6734 26.7478C37.0873 27.4278 36.9493 28.3147 36.3285 28.8371L34.8601 30.069C34.5644 30.3153 34.1997 30.4533 33.8153 30.4533H32.4061C31.5783 30.4533 30.8884 31.0742 30.7899 31.8922L30.4843 34.6812L29.6368 42.8511C29.5776 43.4326 29.213 43.9352 28.6809 44.1717L26.6901 45.0587C25.9115 45.4036 25.5272 46.3004 25.8228 47.0987L26.0889 47.828C26.2762 48.3404 26.7099 48.7248 27.242 48.8529L32.0316 49.9567C32.3371 50.0257 32.6623 50.0059 32.958 49.8975L32.9678 49.9271Z" fill="black"/>
<path d="M90.007 32.7894C84.0742 27.9111 67.8723 28.6897 49.9654 35.2039C33.5073 41.1959 21.2672 49.9768 18.3008 57.2204C18.5866 57.8807 18.8922 58.5311 19.2174 59.1717C20.6661 52.3322 33.6453 42.7136 50.4681 36.5935C69.794 29.5569 88.1936 29.3204 90.6476 36.0613H90.6772C90.4998 34.9477 90.273 33.8538 89.9971 32.7894H90.007Z" fill="white"/>
<path d="M53.2102 86.4495C28.8286 86.4495 9 66.6209 9 42.2392C9 22.7359 21.5061 5.76527 40.1127 0L41.1377 3.29162C23.9798 8.60355 12.4493 24.2535 12.4493 42.2293C12.4493 64.6991 30.7306 82.9903 53.2102 82.9903C63.2921 82.9903 72.9698 79.2847 80.4598 72.5438L82.7658 75.1062C74.6452 82.4187 64.1495 86.4396 53.2102 86.4396V86.4495Z" fill="black"/>
<path d="M68.0919 98.1275C63.2825 95.851 57.9214 94.5402 52.2547 94.5402C46.588 94.5402 41.2267 95.851 36.4174 98.1275V100H68.1017V98.1275H68.0919Z" fill="black"/>
<path d="M54.4603 84.6754H50.0452V96.6199H54.4603V84.6754Z" fill="black"/>
<path d="M90.751 36.4247C90.6131 35.5476 90.4455 34.6803 90.2484 33.8328C84.0298 29.2797 68.1236 30.1666 50.5814 36.5429C34.1233 42.5349 21.8832 51.3158 18.9168 58.5594C19.2124 59.1802 19.5278 59.8011 19.8531 60.4023C21.4102 53.5726 34.3401 44.023 51.084 37.9325C69.4245 31.2606 86.9174 30.6988 90.751 36.4247Z" fill="#FFB065"/>
</svg>
