<svg width="100" height="100" viewBox="0 0 100 100" fill="none" xmlns="http://www.w3.org/2000/svg">
<g clip-path="url(#clip0_15980_4742)">
<rect width="100" height="100" fill="#FFB16A"/>
<path d="M31.8454 95.4276C31.8454 95.4276 36.0408 92.1147 39.0192 91.4097L41.819 91.5881L46.7122 89.6683L49.1631 87.7485C49.1631 87.7485 50.3886 86.7037 51.4353 86.5253C52.482 86.3469 58.0815 87.4002 58.0815 87.4002C58.0815 87.4002 61.2302 88.4451 62.8045 91.2398C62.8045 91.2398 65.0766 91.2398 65.7745 94.2044C65.7745 94.2044 67.8764 93.8561 69.9698 96.1242C69.9698 96.1242 70.4974 97.5173 66.9998 97.874C63.5023 98.2223 62.8045 99.4456 60.0047 99.6239C57.205 99.8023 52.3117 98.0525 52.3117 98.0525L44.9677 97.5258C44.9677 97.5258 40.7723 98.2223 38.1427 97.5258C35.5216 96.8292 31.8454 95.4276 31.8454 95.4276Z" fill="black"/>
<path d="M43.1465 51.1927C41.3254 51.1927 40.7297 51.575 40.5255 51.8298C40.4574 51.9233 40.4319 52.0422 40.4234 52.1611L39.8787 93.7081C40.6446 93.7336 41.9296 93.878 42.9508 94.4811C42.9508 94.4811 44.1762 93.0285 45.5038 92.315L45.8612 52.0592C45.8612 52.0592 45.9208 51.1927 43.1465 51.1927Z" fill="white"/>
<path d="M72.0293 65.0062C72.3612 64.7259 72.659 64.4116 72.9654 64.1058C73.6887 63.3498 75.7397 61.5829 78.7437 61.9227C79.9946 62.0671 80.9648 62.6362 81.6371 63.2139C83.3305 60.2747 86.5132 58.287 90.1555 58.287C95.5848 58.287 99.9844 62.6787 99.9844 68.0983V69.0412H59.1623C66.3702 69.0412 69.8253 66.9005 72.0208 65.0062H72.0293Z" fill="white"/>
<path d="M28.9349 53.6064C28.9349 53.6064 24.2289 43.3789 8.73238 53.5894L28.9349 53.6064Z" fill="white"/>
<path d="M-0.015625 11.0819C-0.015625 11.0819 1.68635 8.70341 4.65631 7.79449C7.09014 7.04696 9.74531 7.81148 11.5409 9.61233L11.5834 9.66329C11.5834 9.66329 12.128 6.38438 14.9703 4.03138C16.3064 2.92709 18.0169 2.30698 19.7444 2.42591C20.5188 2.47687 21.3528 2.68075 22.0591 3.15644C22.0591 3.15644 19.8381 -0.0884816 15.9065 0.78646C14.5024 1.10076 13.2513 1.91623 12.3067 2.99504C11.6514 3.73407 10.9707 4.73644 10.6644 5.88321C10.6644 5.88321 4.17126 1.86527 -0.00710678 11.0819H-0.015625Z" fill="white"/>
<path d="M51.9631 56.3043C50.627 62.5393 49.4867 72.9707 49.8271 90.2742C49.8441 90.9707 50.4058 91.5229 51.1036 91.5229H51.129C51.8354 91.5059 52.3971 90.9282 52.3801 90.2232C52.0822 74.9839 52.9757 65.2236 54.065 59.0821C53.4863 58.394 52.6778 57.3831 51.9715 56.3043H51.9631ZM80.4457 29.9202C80.4457 29.9202 77.0758 27.015 73.4251 28.2043C73.4251 28.2043 66.132 30.2515 69.4594 37.5653C72.7868 44.8706 86.4282 49.8569 86.4282 49.8569C86.4282 49.8569 91.7554 42.2203 92.0872 32.9188C92.4191 23.6172 81.7733 24.9424 80.4372 29.9287L80.4457 29.9202ZM85.7389 45.9834C85.7389 45.9834 84.6156 38.7885 81.4329 31.7805C81.4329 31.7805 81.8073 28.6035 84.99 27.856C84.99 27.856 83.7731 29.7248 84.2411 31.9674C84.7092 34.2099 87.5175 38.6951 85.7389 45.9834ZM88.2068 16.5582L86.8537 14.7574C84.3603 11.4445 81.3818 8.51384 77.9353 6.21181C70.3785 1.16603 66.4469 2.69505 64.7534 4.11365C63.5876 5.08203 63.2812 6.8319 64.2343 8.02115C65.5278 9.64361 68.251 10.2552 68.251 10.2552C68.251 10.2552 57.937 8.259 62.2601 14.9018C66.5831 21.5445 88.2153 16.5667 88.2153 16.5667L88.2068 16.5582ZM72.4464 5.84654C72.4464 5.84654 73.4506 8.03813 73.2379 9.79651C73.2379 9.79651 75.6036 7.80878 79.816 8.79416C79.816 8.79416 77.4247 8.93857 77.0077 10.1278C77.0077 10.1278 80.2415 9.77953 84.2411 13.4917C84.2411 13.4917 77.714 11.385 70.4125 10.544L69.1275 10.3572C69.1275 10.3572 72.2422 8.43738 72.4549 5.84654H72.4464ZM28.2714 21.9268V18.5799C28.2714 18.5799 15.7023 16.6262 13.4727 33.9126C13.4727 33.9126 30.7904 31.9589 38.611 23.6002C46.4316 15.2415 31.0712 18.5799 28.2799 21.9268H28.2714ZM24.2377 29.4445C18.434 30.4723 18.0596 30.4723 16.281 31.5002C16.281 31.5002 18.5276 28.697 21.6167 27.2019C24.7058 25.7069 27.046 24.2118 27.8885 22.8102C27.8885 22.8102 28.3565 24.1184 27.2332 25.2397C26.1099 26.3609 27.3269 28.2298 32.2882 25.7069C32.2882 25.7069 30.0415 28.4166 24.2377 29.4445ZM58.5583 42.9254C59.1199 40.6828 59.5539 38.1854 59.7071 35.4671C59.8092 33.6578 59.6816 32.2902 59.3837 31.2793C60.6687 27.1509 62.3706 22.8442 63.6982 19.7097C63.1706 18.9622 62.5664 18.0108 62.0898 16.9744C60.8474 19.8116 58.9838 24.2968 57.4775 28.8499C56.3542 28.3911 54.9926 28.6885 53.8438 29.1557C52.7715 20.5676 50.8397 13.687 50.0058 10.9518C51.1716 8.92157 53.2905 3.46806 42.3979 3.67193C29.0288 3.92676 23.3017 10.9263 23.3017 10.9263C23.3017 10.9263 36.7899 8.46287 47.3677 11.0792C48.0315 13.1859 50.3122 20.9159 51.4184 30.4808C51.4184 30.4808 47.9378 30.243 45.7082 32.2562C43.9807 29.6483 42.4831 27.7286 41.2236 26.31C41.2236 27.2359 41.1129 28.4336 40.7811 29.7588C41.7767 31.033 42.9255 32.6299 44.2105 34.6262C44.0147 35.2633 43.8956 35.9938 43.8956 36.8348C43.8956 43.7239 53.4523 54.7498 53.4523 54.7498C53.4523 54.7498 53.5544 54.6054 53.7331 54.3421L57.3243 49.0415C60.3198 44.1656 64.0387 40.445 67.2809 37.7946C67.2384 36.8942 67.2809 35.671 67.5532 34.3204C64.83 36.3421 61.5878 39.1878 58.5583 42.9169V42.9254ZM53.4438 50.2562C53.4438 50.2562 53.9374 48.2345 53.0949 43.1887C52.2524 38.1429 51.1546 37.2 51.3844 32.3156C51.3844 32.3156 52.4141 36.9877 54.4735 36.8008C54.4735 36.8008 55.5202 36.7923 56.6265 35.8664C56.6265 35.8664 57.7498 40.3515 53.4438 50.2562Z" fill="white"/>
<path d="M54.2863 67.5682V65.7163C54.2863 65.1132 53.8437 64.6205 53.2821 64.5186C53.1544 65.6059 53.0438 66.7697 52.9417 68.0099C52.9246 68.2477 52.78 68.4686 52.5758 68.579C48.0485 71.0339 43.6234 71.8409 41.1895 72.1042C40.1002 72.1637 40.1768 71.5606 40.1768 71.5606L40.2023 69.7003C40.1257 69.7513 40.0577 69.8022 39.9896 69.8447C39.5301 70.159 39.2663 70.6857 39.2663 71.2378V75.7484C39.2663 76.394 39.8194 76.8357 40.4662 76.8272C46.0061 76.7253 52.0141 73.8287 53.6225 72.5799C54.048 72.2487 54.2948 71.7645 54.2948 71.1614V67.5596L54.2863 67.5682ZM50.6525 64.9008C48.908 65.3086 47.24 65.9287 45.7338 66.5998L45.6913 70.915C47.3933 70.21 48.9421 69.7343 50.2356 69.4285C50.3547 67.7211 50.4994 66.3534 50.6525 64.8924V64.9008Z" fill="black"/>
</g>
<defs>
<clipPath id="clip0_15980_4742">
<rect width="100" height="100" fill="white"/>
</clipPath>
</defs>
</svg>
