<svg width="100" height="100" viewBox="0 0 100 100" fill="none" xmlns="http://www.w3.org/2000/svg">
<g clip-path="url(#clip0_15980_4684)">
<rect width="100" height="100" fill="#FFB16A"/>
<path d="M53.9754 44.9019C56.207 44.325 57.7608 42.3223 57.7608 40.0229V7.42806C57.7608 5.39242 56.0913 3.82655 54.1573 3.82655C53.8597 3.82655 53.5539 3.86777 53.2398 3.94195L8.07906 15.62C5.84747 16.1969 4.29361 18.1996 4.29361 20.499V53.0938C4.29361 55.1294 5.96316 56.6953 7.8972 56.6953C8.19475 56.6953 8.50055 56.6541 8.81462 56.5799L21.171 53.3822C22.0306 53.1597 53.9754 44.9019 53.9754 44.9019Z" fill="black"/>
<path d="M4.21905 16.8819C5.05383 15.7034 6.28537 14.7968 7.76483 14.4177L52.9256 2.73962C53.1239 2.69017 53.3306 2.64895 53.5289 2.62422L52.066 1.61054C51.2477 1.06661 50.2146 0.844111 49.1567 1.11608L3.99593 12.7942C2.71483 13.1238 1.67343 13.9315 1.00395 14.9864L4.21083 16.8737L4.21905 16.8819Z" fill="black"/>
<path d="M3.05369 21.2505V20.4923C3.05369 19.8824 3.16114 19.3055 3.31818 18.7451L0.276612 16.9485C0.243551 17.1875 0.21875 17.4265 0.21875 17.6737V19.5775L3.05369 21.2505Z" fill="black"/>
<path d="M3.05369 53.0854V27.0014L0.21875 25.3283V50.2669C0.21875 51.4619 0.79731 52.5003 1.66515 53.1514L3.18591 54.2062C3.10326 53.8436 3.05369 53.4728 3.05369 53.0854Z" fill="black"/>
<path d="M29.8326 31.0581C30.3533 31.2559 30.9649 31.3631 31.6179 31.19C32.2708 31.017 32.8907 30.5966 33.428 30.1186C34.6429 29.039 35.5273 27.5555 36.0397 26.0226C36.6513 24.1766 36.7257 22.6354 36.7257 22.6354C36.9572 18.696 34.6016 17.3527 31.8741 18.0697C29.1383 18.7867 26.7084 21.3663 26.7993 25.2315C26.7993 25.2315 26.8158 26.7396 27.3613 28.289C27.8159 29.5747 28.6507 30.6049 29.8409 31.0581H29.8326ZM43.123 35.3272C42.4535 32.657 41.3046 31.8988 39.1144 31.6927L34.5768 31.157C34.4694 31.2559 34.3785 31.3796 34.271 31.4702C33.3701 32.2779 32.4609 32.7971 31.5848 33.0279C30.7005 33.2586 29.8078 33.201 28.9317 32.8631C28.8243 32.8219 28.7334 32.7559 28.6342 32.7064L24.0305 35.6322C21.8072 36.992 20.617 38.3683 19.84 41.4094L18.873 45.5136L43.9495 38.9699L43.1312 35.3355L43.123 35.3272Z" fill="white"/>
<path d="M36.2133 11.0969L52.9337 6.94325C53.8428 6.72073 54.7272 7.40473 54.7272 8.34425V25.0415C54.7272 25.0415 54.1735 8.47614 36.2133 11.0969Z" fill="white"/>
<path d="M9.11211 63.2743C9.11211 63.2743 10.2609 67.0736 14.9225 68.1203C14.9225 68.1203 11.3933 68.7301 11.3189 72.958C11.3189 72.958 10.0791 69.2906 5.60764 68.1203C5.60764 68.1203 9.34353 67.6752 9.11211 63.2743Z" fill="white"/>
<path d="M75.5391 1.92394C75.5391 1.92394 77.7211 9.14343 86.5813 11.1379C86.5813 11.1379 79.87 12.2917 79.7377 20.3271C79.7377 20.3271 77.374 13.363 68.8857 11.1296C68.8857 11.1296 75.9771 10.289 75.5391 1.92394Z" fill="white"/>
<path d="M48.9584 46.1972L57.7691 35.9696V35.3597L37.9906 49.0323C41.9992 47.9939 45.9747 46.9636 48.9667 46.1972H48.9584Z" fill="black"/>
<path d="M100.219 43.749L89.8873 43.9962L70.8031 32.9856C69.5633 32.2686 67.745 32.5324 66.7532 33.5626L37.4202 64.303L21.3196 75.0005V80.6211C21.3527 81.2557 21.7246 81.8573 22.4024 82.2529L50.727 98.5957C51.9668 99.3127 53.7852 99.0489 54.777 98.0188L99.5823 51.0591C100.012 50.6058 100.219 50.0866 100.21 49.5756V43.7572L100.219 43.749Z" fill="black"/>
<path d="M54.7769 92.2419C53.7934 93.2721 51.9668 93.5359 50.727 92.8189L22.4023 76.4761C21.1626 75.7591 20.9559 74.3333 21.9478 73.2949L66.7531 26.3352C67.7367 25.3051 69.5632 25.0414 70.803 25.7584L99.1277 42.1011C100.367 42.8181 100.574 44.2439 99.5823 45.2823L54.7769 92.2419Z" fill="white"/>
<path d="M86.6555 39.3903L81.8452 36.5801C81.1509 36.1762 80.2665 36.2998 79.7127 36.8767C79.316 37.2971 79.4069 37.9728 79.9111 38.2612L84.7214 41.0716C85.4074 41.4754 86.2835 41.3601 86.8373 40.7914C87.2423 40.3711 87.1514 39.6788 86.6472 39.3903H86.6555ZM41.6269 76.4026C39.3044 76.4686 37.3787 77.9026 37.3208 79.6003C37.263 81.298 39.0895 82.6166 41.412 82.5507C43.7345 82.4848 45.6603 81.0508 45.7182 79.353C45.7761 77.6553 43.9494 76.3367 41.6269 76.4026ZM77.2084 34.1405C76.4149 34.1653 75.7455 34.6516 75.7289 35.2367C75.7041 35.8218 76.3406 36.2751 77.134 36.2504C77.9275 36.2257 78.5969 35.7394 78.6135 35.1542C78.6383 34.5691 78.0018 34.1158 77.2084 34.1405Z" fill="black"/>
<path d="M70.0096 49.4607C67.5879 48.0597 64.1744 48.208 61.7362 51.0183C61.7362 51.0183 60.7774 52.1061 60.1658 53.5896C59.6616 54.8258 59.5955 56.1444 60.1493 57.2982C60.3972 57.8092 60.7691 58.3037 61.3477 58.6416C61.9263 58.9713 62.6453 59.1032 63.3396 59.1444C64.91 59.2186 66.5051 58.7817 67.8606 58.04C69.4971 57.1499 70.5386 56.1115 70.5386 56.1115C73.2495 53.466 72.4313 50.8699 70.0013 49.4689L70.0096 49.4607ZM63.9099 61.5674C63.9099 61.5674 63.5876 61.1635 63.009 60.6278C61.8849 60.5619 60.9344 60.3146 60.1741 59.8778C59.4219 59.441 58.8351 58.7983 58.4218 57.9824C57.5953 57.7021 57.0085 57.5785 57.0085 57.5785L53.1239 56.7296C50.727 56.161 49.0409 56.3093 46.5944 57.8835L43.3545 60.0675L64.8935 72.512L66.6044 69.4462C67.8111 67.1551 67.4887 65.8446 66.0919 64.2211L63.9182 61.5674H63.9099Z" fill="black"/>
</g>
<defs>
<clipPath id="clip0_15980_4684">
<rect width="100" height="100" fill="white"/>
</clipPath>
</defs>
</svg>
