<svg width="24" height="25" viewBox="0 0 24 25" fill="none" xmlns="http://www.w3.org/2000/svg">
<path d="M18.0297 13.8605C18.0055 11.1214 20.3161 9.80599 20.4198 9.74174C19.1177 7.87848 17.0972 7.62486 16.3754 7.59442C14.6554 7.42196 13.0182 8.58523 12.1444 8.58523C11.2706 8.58523 9.92364 7.61809 8.49721 7.64515C6.6218 7.6722 4.89144 8.71035 3.92437 10.3572C1.97642 13.6644 3.42702 18.5711 5.32662 21.2595C6.25569 22.5715 7.36091 24.0527 8.81496 23.9986C10.2172 23.9445 10.7456 23.1092 12.438 23.1092C14.1304 23.1092 14.607 23.9986 16.0852 23.9681C17.5911 23.9377 18.5478 22.6256 19.47 21.3068C20.5337 19.7817 20.9724 18.3039 21 18.2296C20.9655 18.216 18.0643 17.1272 18.0332 13.8538M15.2771 4.64434C16.104 3.67799 16.6576 2.33721 16.5063 1C15.3177 1.04636 13.8782 1.76667 13.0255 2.72946C12.2614 3.58171 11.5933 4.94744 11.7742 6.25969C13.0956 6.35954 14.4503 5.60713 15.2771 4.64434Z" stroke="black" stroke-miterlimit="10"/>
</svg>
