<svg width="24" height="24" viewBox="0 0 24 24" fill="none" xmlns="http://www.w3.org/2000/svg">
<path fill-rule="evenodd" clip-rule="evenodd" d="M17.9265 5.11877C18.137 4.9401 18.4526 4.96595 18.6312 5.1765L23.7312 11.1865L23.742 11.1997C24.067 11.6101 24.0969 12.2223 23.7361 12.6577L18.4377 19.1657C18.3428 19.2823 18.2004 19.35 18.05 19.35H13.9C13.7064 19.35 13.5303 19.2383 13.4477 19.0632C13.3652 18.8881 13.3911 18.6812 13.5143 18.5318L18.8843 12.0218L18.8871 12.0184C18.9172 11.9827 18.9275 11.9463 18.9275 11.9163C18.9275 11.8866 18.9176 11.8566 18.8937 11.8293L18.8918 11.8271L13.8514 6.00001H9.97249L14.5314 11.1352C14.9295 11.5717 14.9388 12.247 14.5237 12.6831C13.4319 13.8551 10.3947 17.112 9.10526 18.4915L9.1025 18.4944C8.62931 18.9925 7.96879 19.28 7.28 19.28H2.5C1.12386 19.28 0 18.1562 0 16.78V7.50001C0 6.12387 1.12386 5.00001 2.5 5.00001H6.01C6.28614 5.00001 6.51 5.22387 6.51 5.50001C6.51 5.77615 6.28614 6.00001 6.01 6.00001H2.5C1.67614 6.00001 1 6.67615 1 7.50001V16.78C1 17.6039 1.67614 18.28 2.5 18.28H7.28C7.69058 18.28 8.08949 18.1081 8.3762 17.807C9.66674 16.4264 12.7046 13.1687 13.7942 11.9992L13.799 11.994C13.8399 11.9513 13.8497 11.8712 13.792 11.8085L13.786 11.802L8.48609 5.83196C8.35541 5.68476 8.32325 5.47458 8.40394 5.29504C8.48464 5.1155 8.66316 5.00001 8.86 5.00001H14.08C14.2252 5.00001 14.3632 5.06311 14.4582 5.1729L19.6463 11.1708L19.6475 11.1721C20.024 11.6037 20.0154 12.2282 19.6544 12.6598L19.6529 12.6616L14.9606 18.35H17.8123L22.9659 12.0199C23.0021 11.9764 23.012 11.893 22.9615 11.825L17.8688 5.82352C17.6901 5.61297 17.7159 5.29744 17.9265 5.11877Z" fill="black"/>
</svg>
