<svg width="24" height="24" viewBox="0 0 24 24" fill="none" xmlns="http://www.w3.org/2000/svg">
<path d="M12.6564 10.111V4C12.5367 4.00534 12.4182 4.01001 12.3007 4.01464C12.066 4.0239 11.835 4.03301 11.6044 4.047C11.4457 4.0567 11.2867 4.06466 11.1277 4.07262C10.697 4.09419 10.2663 4.11575 9.84042 4.172C9.11142 4.268 8.38442 4.393 7.66742 4.553C6.63042 4.784 5.63042 5.133 4.67742 5.608C3.47942 6.206 2.41342 6.972 1.56542 8.019C0.899423 8.841 0.432423 9.766 0.191423 10.793C0.0244231 11.507 -0.0405769 12.233 0.0254231 12.97C0.0754231 13.529 0.195423 14.068 0.382423 14.593C0.734423 15.579 1.31042 16.43 2.02342 17.185C2.95442 18.172 4.06742 18.916 5.28542 19.501C6.12542 19.905 7.00642 20.2 7.90742 20.438C8.79642 20.673 9.70342 20.806 10.6154 20.883C11.2214 20.935 11.8344 20.928 12.4424 20.911C13.0744 20.894 13.7094 20.864 14.3364 20.785C15.2834 20.666 16.2124 20.454 17.1244 20.163C18.2504 19.805 19.3114 19.319 20.2994 18.67C21.2154 18.068 22.0254 17.349 22.6644 16.459C23.6094 15.146 24.0814 13.685 23.9714 12.05C23.9034 11.054 23.6114 10.131 23.1274 9.268C22.4864 8.128 21.5954 7.209 20.5394 6.449C19.2714 5.536 17.8674 4.899 16.3504 4.531C15.7085 4.3753 15.0552 4.26575 14.4024 4.15628C14.3047 4.1399 14.207 4.12353 14.1094 4.107C13.9048 4.07245 13.6956 4.06222 13.4815 4.05176C13.3796 4.04678 13.2766 4.04174 13.1724 4.034C13.1761 4.07101 13.1738 4.1066 13.1717 4.13989C13.1657 4.23432 13.1609 4.31029 13.2954 4.348C13.3599 4.36618 13.4244 4.38427 13.489 4.40235C13.9249 4.52452 14.3614 4.64683 14.7864 4.801C16.0004 5.239 17.0524 5.93 17.8954 6.914C18.4944 7.613 18.9204 8.412 19.1964 9.292C19.3784 9.872 19.5224 10.46 19.5454 11.068C19.5684 11.693 19.5904 12.319 19.5744 12.943C19.5544 13.702 19.3674 14.431 19.1074 15.146C18.6334 16.448 17.8414 17.519 16.7594 18.367C15.3144 19.5 13.6394 20 11.8194 20.006C11.3521 20.0075 10.8841 19.9591 10.4169 19.9107C10.2603 19.8945 10.1038 19.8783 9.94742 19.864C8.98442 19.776 8.05442 19.531 7.15242 19.198C5.85142 18.718 4.64142 18.074 3.60542 17.128C3.04242 16.614 2.57142 16.039 2.27542 15.335C2.08142 14.872 2.00242 14.388 2.12142 13.885C2.23142 13.42 2.49342 13.045 2.81942 12.717C3.44142 12.093 4.20442 11.674 5.00342 11.323C6.06942 10.855 7.18642 10.543 8.33242 10.349C8.94842 10.245 9.57042 10.173 10.1934 10.118C10.4579 10.0951 10.7247 10.1006 10.9916 10.1061C11.1093 10.1086 11.227 10.111 11.3444 10.111H12.6564Z" fill="black"/>
<path d="M12.6272 19.3276V10.4186C12.4907 10.4402 12.3549 10.4584 12.2203 10.4764C11.9249 10.516 11.6348 10.5548 11.3532 10.6276C10.2272 10.9176 9.22322 11.4386 8.42822 12.3076C8.08722 12.6806 7.80622 13.1006 7.64122 13.5786C7.52622 13.9146 7.45222 14.2686 7.39422 14.6196C7.28422 15.2886 7.40822 15.9326 7.71622 16.5286C8.09622 17.2636 8.66422 17.8276 9.37822 18.2566C10.2732 18.7956 11.2302 19.1466 12.2632 19.2916C12.3451 19.3033 12.4274 19.3103 12.5115 19.3174C12.5497 19.3206 12.5882 19.3239 12.6272 19.3276Z" fill="black"/>
</svg>
