<svg width="24" height="24" viewBox="0 0 24 24" fill="none" xmlns="http://www.w3.org/2000/svg">
<path d="M13.4147 3.50853C12.2752 3.50853 11.2656 3.86838 10.5559 4.60807C9.83621 5.34776 9.45637 6.40732 9.45637 7.71677V9.41607H7.06737V13.1145H9.45637V20.4715H13.1348V13.1145H15.4639L15.5138 12.7447L15.8637 9.87588L15.9237 9.40607H13.1348V7.98666C13.1348 7.58683 13.1948 7.36692 13.2948 7.23697C13.3847 7.12702 13.5747 7.00707 14.0844 7.00707H15.9637V3.65847L15.6038 3.60849C15.3239 3.5685 14.4443 3.48854 13.4147 3.48854V3.50853Z" fill="black"/>
<path d="M2.08913 0C0.939608 0 0 0.939608 0 2.08913V21.9109C0 23.0604 0.939608 24 2.08913 24H21.9109C23.0604 24 24 23.0604 24 21.9109V2.08913C24 0.939608 23.0604 0 21.9109 0H2.08913ZM22.9904 21.9009C22.9904 22.5006 22.5006 22.9904 21.9009 22.9904H2.08913C1.48938 22.9904 0.999583 22.5006 0.999583 21.9009V2.08913C0.999583 1.48938 1.48938 0.999583 2.08913 0.999583H21.9109C22.5106 0.999583 23.0004 1.48938 23.0004 2.08913V21.9109L22.9904 21.9009Z" fill="black"/>
</svg>
