<svg width="24" height="24" viewBox="0 0 24 24" fill="none" xmlns="http://www.w3.org/2000/svg">
<path d="M12 0C5.37766 0 0 5.37766 0 12C0 18.6223 5.37766 24 12 24C18.6223 24 24 18.6223 24 12C24 5.37766 18.6223 0 12 0ZM12 0.857143C18.1591 0.857143 23.1429 5.84089 23.1429 12C23.1429 18.1591 18.1591 23.1429 12 23.1429C5.84089 23.1429 0.857143 18.1591 0.857143 12C0.857143 5.84089 5.84089 0.857143 12 0.857143ZM11.0282 3.42941C11.017 3.42855 10.9947 3.43199 10.9754 3.44699C10.9647 3.45727 10.9503 3.47474 10.9503 3.50474C10.9482 3.5326 10.9593 3.55219 10.9688 3.56334C10.985 3.58005 11.0129 3.58592 11.0223 3.58677C11.2636 3.63777 11.4293 3.72314 11.548 3.85128C11.674 3.99957 11.7474 4.20767 11.7757 4.4841C11.1367 4.4301 10.9686 4.12669 10.885 3.80441C10.8765 3.77998 10.8511 3.7433 10.798 3.7433C10.7526 3.7433 10.7237 3.77571 10.7168 3.80357L10.7143 3.80943V5.56808C10.7143 5.60022 10.7417 5.64513 10.8055 5.64342C10.8698 5.64342 10.8853 5.6078 10.8934 5.59152L10.8959 5.58315C11.0472 5.21672 11.3663 4.97938 11.779 4.91853C11.7542 5.20738 11.6792 5.42345 11.5463 5.57645C11.4263 5.70502 11.2675 5.78659 11.0223 5.83845L11.0156 5.84012C11.0006 5.84355 10.9829 5.85027 10.9696 5.86356C10.9606 5.87385 10.949 5.89295 10.9512 5.92467C10.9512 5.95209 10.9656 5.97005 10.9763 5.97991C10.9956 5.99448 11.0156 5.99786 11.034 6H12.9676C12.9861 5.99786 13.0065 5.99491 13.0254 5.97991C13.0361 5.97005 13.0505 5.95209 13.0505 5.92467C13.0526 5.89338 13.0415 5.87427 13.0321 5.86356C13.0188 5.85027 13.0006 5.84355 12.986 5.84012L12.9794 5.83845C12.7342 5.78659 12.5745 5.70502 12.4554 5.57645C12.3225 5.42345 12.2471 5.20696 12.2227 4.91853C12.6354 4.97938 12.9545 5.21672 13.1057 5.58315L13.1083 5.59152C13.116 5.6078 13.1315 5.64342 13.1953 5.64342C13.2596 5.64556 13.2874 5.60022 13.2874 5.56808V3.80943C13.2861 3.80943 13.2832 3.80357 13.2832 3.80357C13.2763 3.77571 13.247 3.7433 13.202 3.7433C13.1489 3.7433 13.1235 3.77998 13.115 3.80441C13.0314 4.12669 12.8633 4.4301 12.2243 4.4841C12.2526 4.20767 12.3264 3.99957 12.452 3.85128C12.5716 3.72314 12.7368 3.63777 12.9777 3.58677C12.9875 3.58592 13.015 3.58005 13.0312 3.56334C13.0402 3.55219 13.0518 3.5326 13.0497 3.50474C13.0497 3.47474 13.0353 3.45727 13.0246 3.44699C13.0053 3.43156 12.9834 3.42855 12.9718 3.42941H11.0282ZM12 6.42857C11.7727 6.42857 11.5547 6.51888 11.3939 6.67962C11.2332 6.84037 11.1429 7.05839 11.1429 7.28571C11.1429 7.51304 11.2332 7.73106 11.3939 7.89181C11.5547 8.05255 11.7727 8.14286 12 8.14286C12.2273 8.14286 12.4453 8.05255 12.6061 7.89181C12.7668 7.73106 12.8571 7.51304 12.8571 7.28571C12.8571 7.05839 12.7668 6.84037 12.6061 6.67962C12.4453 6.51888 12.2273 6.42857 12 6.42857ZM7.18862 6.84542C7.11901 6.8455 7.05038 6.86189 6.98825 6.89329C6.92613 6.92469 6.87222 6.97021 6.83088 7.02621C6.78953 7.08221 6.76188 7.14712 6.75016 7.21574C6.73844 7.28436 6.74298 7.35477 6.76339 7.42132C6.64613 7.45621 6.53259 7.49562 6.42439 7.54269C6.39687 7.45106 6.34058 7.37072 6.26384 7.31358C6.1871 7.25644 6.094 7.22554 5.99833 7.22545C5.90821 7.22548 5.82022 7.25285 5.74599 7.30395C5.67176 7.35505 5.61478 7.42746 5.58258 7.51163C5.55038 7.5958 5.54448 7.68776 5.56565 7.77536C5.58683 7.86295 5.63408 7.94206 5.70117 8.00223C5.6221 8.07157 5.54702 8.14373 5.47768 8.2207C5.43942 8.15064 5.38302 8.09215 5.3144 8.05136C5.24577 8.01056 5.16744 7.98897 5.08761 7.98884C4.97452 7.98978 4.86602 8.03373 4.78414 8.11175C4.70226 8.18977 4.65314 8.29603 4.64675 8.40895C4.64036 8.52186 4.67718 8.63298 4.74973 8.71975C4.82228 8.80651 4.92512 8.86242 5.03739 8.87612C4.98951 8.97352 4.94552 9.07251 4.90848 9.17411C4.82791 9.10548 4.72553 9.06779 4.6197 9.0678C4.50159 9.0678 4.38833 9.11472 4.30482 9.19823C4.2213 9.28174 4.17439 9.39501 4.17439 9.51311C4.17439 9.63122 4.2213 9.74448 4.30482 9.828C4.38833 9.91151 4.50159 9.95843 4.6197 9.95843C4.65845 9.95814 4.697 9.95279 4.73438 9.94252C4.72257 10.0566 4.71429 10.1712 4.71429 10.2857C4.71429 10.2975 4.71589 10.3075 4.71596 10.3192C4.65718 10.2921 4.5932 10.2781 4.52846 10.2782C4.41036 10.2782 4.29709 10.3251 4.21358 10.4086C4.13006 10.4921 4.08315 10.6054 4.08315 10.7235C4.08315 10.8416 4.13006 10.9549 4.21358 11.0384C4.29709 11.1219 4.41036 11.1688 4.52846 11.1688C4.61501 11.1687 4.69965 11.1434 4.77204 11.096C4.78623 11.2025 4.80013 11.3079 4.81808 11.4049C4.70295 11.4115 4.59488 11.4625 4.51662 11.5473C4.43836 11.632 4.39603 11.7437 4.39852 11.859C4.40102 11.9743 4.44815 12.0842 4.52999 12.1654C4.61184 12.2467 4.72202 12.293 4.83733 12.2946C4.91227 12.2946 4.98598 12.2756 5.05162 12.2394C5.11029 12.3251 5.19812 12.3867 5.29875 12.4125C5.39939 12.4383 5.50599 12.4267 5.59871 12.3799C5.69144 12.333 5.76398 12.254 5.80284 12.1577C5.84171 12.0613 5.84425 11.9541 5.80999 11.856C5.70072 11.5146 5.57143 10.964 5.57143 10.2857C5.57143 9.7381 5.75628 9.19624 6.10631 8.80246C6.45633 8.40868 6.96429 8.14286 7.71429 8.14286C9.09436 8.14286 10.1149 9.05307 10.2857 9.2101V11.5714C10.2849 11.6282 10.2954 11.6846 10.3166 11.7373C10.3378 11.79 10.3692 11.838 10.4091 11.8784C10.449 11.9189 10.4965 11.951 10.5489 11.9729C10.6013 11.9948 10.6575 12.0061 10.7143 12.0061C10.7711 12.0061 10.8273 11.9948 10.8797 11.9729C10.9321 11.951 10.9796 11.9189 11.0195 11.8784C11.0594 11.838 11.0908 11.79 11.112 11.7373C11.1332 11.6846 11.1437 11.6282 11.1429 11.5714V9C11.1428 8.88634 11.0977 8.77735 11.0173 8.69699C11.0173 8.69699 10.9082 8.58919 10.7218 8.4375C10.808 8.3896 10.8759 8.31444 10.9148 8.2238C10.9537 8.13316 10.9614 8.03217 10.9367 7.93669C10.912 7.8412 10.8562 7.75663 10.7783 7.69622C10.7003 7.63582 10.6045 7.60302 10.5059 7.60296C10.3997 7.60308 10.2972 7.6411 10.2166 7.71016C10.136 7.77922 10.0828 7.87478 10.0664 7.97963C10.0066 7.94392 9.93594 7.90943 9.87137 7.87416C9.9156 7.80716 9.94088 7.72945 9.94456 7.64925C9.94823 7.56905 9.93015 7.48936 9.89224 7.41859C9.85433 7.34783 9.79799 7.28863 9.72919 7.24726C9.66038 7.20589 9.58168 7.18389 9.5014 7.18359C9.40291 7.18351 9.30717 7.21609 9.22917 7.27622C9.15117 7.33635 9.0953 7.42064 9.07031 7.5159C9.00293 7.49316 8.93362 7.47318 8.86356 7.45312C8.87981 7.38761 8.88095 7.31925 8.86689 7.25323C8.85283 7.1872 8.82395 7.12524 8.78242 7.07202C8.7409 7.0188 8.68781 6.97572 8.62719 6.94604C8.56656 6.91635 8.49998 6.90084 8.43248 6.90067C8.32262 6.90065 8.21664 6.94124 8.1349 7.01464C8.05316 7.08803 8.00144 7.18905 7.98968 7.29827C7.89884 7.29195 7.80782 7.28571 7.71429 7.28571C7.68651 7.28571 7.66055 7.28928 7.63309 7.2899C7.63288 7.17208 7.58598 7.05915 7.50267 6.97584C7.41936 6.89254 7.30643 6.84564 7.18862 6.84542ZM16.8114 6.84542C16.6936 6.84564 16.5806 6.89254 16.4973 6.97584C16.414 7.05915 16.3671 7.17208 16.3669 7.2899C16.3394 7.28928 16.3135 7.28571 16.2857 7.28571C16.1922 7.28571 16.1012 7.29195 16.0103 7.29827C15.9986 7.18905 15.9468 7.08803 15.8651 7.01464C15.7834 6.94124 15.6774 6.90065 15.5675 6.90067C15.4999 6.90068 15.4331 6.91611 15.3723 6.94579C15.3115 6.97547 15.2582 7.01862 15.2166 7.07195C15.175 7.12529 15.146 7.18741 15.132 7.25361C15.118 7.3198 15.1192 7.38832 15.1356 7.45396C15.0659 7.47394 14.9967 7.49327 14.9297 7.5159C14.9047 7.42064 14.8488 7.33635 14.7708 7.27622C14.6928 7.21609 14.5971 7.18351 14.4986 7.18359C14.4183 7.18374 14.3394 7.20563 14.2705 7.24694C14.2016 7.28824 14.1451 7.34743 14.1071 7.41822C14.0691 7.48901 14.051 7.56877 14.0546 7.64904C14.0582 7.72931 14.0835 7.8071 14.1278 7.87416C14.0635 7.90931 13.9932 7.94404 13.9336 7.97963C13.9172 7.87478 13.864 7.77922 13.7834 7.71016C13.7028 7.6411 13.6003 7.60308 13.4941 7.60296C13.3956 7.6032 13.2999 7.63614 13.2221 7.69661C13.1442 7.75707 13.0887 7.84165 13.0641 7.93709C13.0395 8.03253 13.0472 8.13343 13.0861 8.22399C13.125 8.31455 13.1929 8.38964 13.279 8.4375C13.0923 8.58939 12.9827 8.69699 12.9827 8.69699C12.9023 8.77735 12.8572 8.88634 12.8571 9V11.5714C12.8563 11.6282 12.8668 11.6846 12.888 11.7373C12.9092 11.79 12.9406 11.838 12.9805 11.8784C13.0204 11.9189 13.0679 11.951 13.1203 11.9729C13.1727 11.9948 13.2289 12.0061 13.2857 12.0061C13.3425 12.0061 13.3987 11.9948 13.4511 11.9729C13.5035 11.951 13.551 11.9189 13.5909 11.8784C13.6308 11.838 13.6622 11.79 13.6834 11.7373C13.7046 11.6846 13.7151 11.6282 13.7143 11.5714V9.2101C13.8851 9.05307 14.9056 8.14286 16.2857 8.14286C17.0357 8.14286 17.5437 8.40868 17.8937 8.80246C18.2437 9.19623 18.4286 9.7381 18.4286 10.2857C18.4286 10.964 18.2993 11.5146 18.19 11.856C18.1558 11.9541 18.1583 12.0613 18.1972 12.1577C18.236 12.254 18.3086 12.333 18.4013 12.3799C18.494 12.4267 18.6006 12.4383 18.7012 12.4125C18.8019 12.3867 18.8897 12.3251 18.9484 12.2394C19.014 12.2756 19.0877 12.2946 19.1627 12.2946C19.2808 12.2972 19.3951 12.2527 19.4804 12.171C19.5657 12.0893 19.6151 11.9771 19.6176 11.859C19.6202 11.7409 19.5757 11.6266 19.494 11.5413C19.4123 11.4559 19.3 11.4066 19.1819 11.404C19.1998 11.3073 19.2138 11.2022 19.228 11.096C19.3004 11.1434 19.385 11.1687 19.4715 11.1688C19.5896 11.1688 19.7029 11.1219 19.7864 11.0384C19.8699 10.9549 19.9169 10.8416 19.9169 10.7235C19.9169 10.6054 19.8699 10.4921 19.7864 10.4086C19.7029 10.3251 19.5896 10.2782 19.4715 10.2782C19.4067 10.2783 19.3428 10.2926 19.284 10.32C19.2841 10.3081 19.2857 10.2978 19.2857 10.2857C19.2857 10.1712 19.2774 10.0566 19.2656 9.94252C19.303 9.95279 19.3415 9.95814 19.3803 9.95843C19.4984 9.95843 19.6117 9.91151 19.6952 9.828C19.7787 9.74448 19.8256 9.63122 19.8256 9.51311C19.8256 9.39501 19.7787 9.28174 19.6952 9.19823C19.6117 9.11472 19.4984 9.0678 19.3803 9.0678C19.2745 9.06779 19.1721 9.10548 19.0915 9.17411C19.0545 9.07251 19.0105 8.97352 18.9626 8.87612C19.0749 8.86242 19.1777 8.80651 19.2503 8.71975C19.3228 8.63298 19.3596 8.52186 19.3532 8.40895C19.3469 8.29603 19.2977 8.18977 19.2159 8.11175C19.134 8.03373 19.0255 7.98978 18.9124 7.98884C18.8326 7.98897 18.7542 8.01056 18.6856 8.05136C18.617 8.09215 18.5606 8.15064 18.5223 8.2207C18.453 8.14373 18.3779 8.07157 18.2988 8.00223C18.3659 7.94206 18.4132 7.86295 18.4343 7.77536C18.4555 7.68776 18.4496 7.5958 18.4174 7.51163C18.3852 7.42746 18.3282 7.35505 18.254 7.30395C18.1798 7.25285 18.0918 7.22548 18.0017 7.22545C17.906 7.22554 17.8129 7.25644 17.7362 7.31358C17.6594 7.37072 17.6031 7.45106 17.5756 7.54269C17.4674 7.49562 17.3539 7.45621 17.2366 7.42132C17.257 7.35477 17.2616 7.28436 17.2498 7.21574C17.2381 7.14712 17.2105 7.08221 17.1691 7.02621C17.1278 6.97021 17.0739 6.92469 17.0117 6.89329C16.9496 6.86189 16.881 6.8455 16.8114 6.84542ZM12 8.57143C11.8863 8.57143 11.7773 8.61658 11.697 8.69695C11.6166 8.77733 11.5714 8.88634 11.5714 9C11.5714 9.11366 11.6166 9.22267 11.697 9.30305C11.7773 9.38342 11.8863 9.42857 12 9.42857C12.1137 9.42857 12.2227 9.38342 12.303 9.30305C12.3834 9.22267 12.4286 9.11366 12.4286 9C12.4286 8.88634 12.3834 8.77733 12.303 8.69695C12.2227 8.61658 12.1137 8.57143 12 8.57143ZM12 9.85714C11.8863 9.85714 11.7773 9.9023 11.697 9.98267C11.6166 10.063 11.5714 10.1721 11.5714 10.2857C11.5714 10.3994 11.6166 10.5084 11.697 10.5888C11.7773 10.6691 11.8863 10.7143 12 10.7143C12.1137 10.7143 12.2227 10.6691 12.303 10.5888C12.3834 10.5084 12.4286 10.3994 12.4286 10.2857C12.4286 10.1721 12.3834 10.063 12.303 9.98267C12.2227 9.9023 12.1137 9.85714 12 9.85714ZM12 11.1429C11.8863 11.1429 11.7773 11.188 11.697 11.2684C11.6166 11.3488 11.5714 11.4578 11.5714 11.5714C11.5714 11.6851 11.6166 11.7941 11.697 11.8745C11.7773 11.9548 11.8863 12 12 12C12.1137 12 12.2227 11.9548 12.303 11.8745C12.3834 11.7941 12.4286 11.6851 12.4286 11.5714C12.4286 11.4578 12.3834 11.3488 12.303 11.2684C12.2227 11.188 12.1137 11.1429 12 11.1429ZM8.30441 11.2483C7.98041 11.4232 7.75408 12.0586 7.80636 12.6295C7.84365 13.0345 8.17315 13.4982 8.25586 14.0232C7.98029 13.6897 7.61662 13.5179 7.35519 13.6657C6.95362 13.8903 6.92308 14.4359 7.18108 14.7899C7.33623 15.0016 7.53126 15.0769 7.75112 15.0812C7.68512 15.0199 7.62522 14.9375 7.58622 14.8359C7.49279 14.5929 7.51556 14.3619 7.72684 14.2852C7.93041 14.214 8.11055 14.3753 8.20312 14.6183C8.22584 14.6757 8.23816 14.7338 8.2433 14.7899C8.14473 15.2326 7.87566 15.4236 7.50837 15.5299C7.12351 15.562 6.74465 15.5972 6.36579 15.6353L6.36747 15.6345C5.86132 15.5025 5.47254 15.1106 5.33454 14.6066C5.85226 14.6194 6.28864 14.8902 6.50893 15.3449C6.5205 15.3762 6.56013 15.4033 6.6077 15.3926C6.65613 15.3819 6.67718 15.3447 6.67718 15.3147V15.3122L6.40095 13.1635L6.39844 13.1593C6.38901 13.1366 6.36075 13.1107 6.30804 13.115C6.24761 13.1201 6.22684 13.1588 6.22684 13.1802C6.18141 13.677 6.00025 14.0361 5.27511 14.1814C5.28236 13.6732 5.55509 13.2481 6.01842 13.0371L6.01925 13.0363C6.04494 13.0285 6.08175 12.9968 6.07031 12.94C6.06003 12.8882 6.02292 12.8676 5.99163 12.8697C5.88877 12.8834 5.013 12.9947 4.98214 13.0003C4.88871 13.0144 4.8158 13.0557 4.77037 13.1183C4.72023 13.1852 4.70423 13.2715 4.72266 13.377C4.74837 13.5214 5.05302 15.5944 5.08259 15.7852C5.08473 15.8014 5.10877 15.9956 5.11691 16.053C5.12591 16.1134 5.2048 16.1735 5.2048 16.1735C5.2048 16.1735 5.65286 16.4668 5.73214 16.5259C5.80757 16.5821 5.76395 16.68 5.76395 16.68L5.19392 17.2416C5.1622 17.2793 5.14621 17.317 5.14621 17.317C5.13721 17.3397 5.13281 17.3641 5.13281 17.389C5.13281 17.4571 5.16462 17.5174 5.21819 17.5555H18.7818C18.8345 17.517 18.8672 17.4571 18.8672 17.389C18.8672 17.3641 18.8628 17.3397 18.853 17.317C18.853 17.317 18.8374 17.2793 18.8052 17.2416L18.236 16.6791C18.236 16.6791 18.1932 16.5813 18.2695 16.5251C18.348 16.466 18.796 16.1727 18.796 16.1727C18.796 16.1727 18.8753 16.1126 18.8848 16.0522C18.8921 15.9947 18.9161 15.8006 18.9182 15.7843C18.947 15.594 19.2516 13.5205 19.2773 13.3761C19.2962 13.2715 19.281 13.1847 19.2313 13.1183C19.1859 13.0557 19.1125 13.0144 19.0204 13.0003C18.9887 12.9947 18.1121 12.883 18.0092 12.8697C17.9783 12.8676 17.9416 12.8882 17.9314 12.94C17.9198 12.9974 17.9575 13.0303 17.9833 13.0371C18.4462 13.2478 18.7189 13.6735 18.7257 14.1814C18.001 14.0365 17.8199 13.6774 17.774 13.1802C17.774 13.1588 17.7536 13.1201 17.6936 13.115C17.6409 13.1107 17.6127 13.1366 17.6024 13.1593L17.6016 13.1635L17.3245 15.3122V15.3147C17.3245 15.3447 17.3464 15.3819 17.394 15.3926C17.4415 15.4033 17.482 15.3762 17.4936 15.3449C17.713 14.8902 18.1494 14.6194 18.668 14.6066C18.5291 15.1106 18.1395 15.5025 17.6334 15.6345L17.6359 15.6353C17.2579 15.5968 16.8782 15.562 16.4933 15.5299C16.126 15.4231 15.8565 15.2326 15.7584 14.7899C15.7635 14.7338 15.7746 14.6757 15.7969 14.6183C15.8903 14.3753 16.0721 14.214 16.2748 14.2852C16.4861 14.3619 16.508 14.5929 16.4155 14.8359C16.3765 14.9375 16.3174 15.0203 16.2506 15.0812C16.47 15.0769 16.6659 15.0016 16.8206 14.7899C17.0777 14.4359 17.0472 13.8907 16.6456 13.6657C16.3842 13.5179 16.0201 13.6897 15.7441 14.0232C15.8277 13.4977 16.1572 13.0345 16.1945 12.6295C16.2468 12.0586 16.02 11.4232 15.6964 11.2483C15.36 11.3679 15.053 11.9569 15.0234 12.5265C15.0042 12.9324 15.2884 13.4682 15.303 14.0031C15.0763 13.6212 14.7296 13.3939 14.4459 13.5084C14.0164 13.6781 13.9091 14.2138 14.1144 14.5982C14.2413 14.8284 14.4219 14.9289 14.6392 14.9623C14.5797 14.8933 14.5339 14.8016 14.5103 14.697C14.4538 14.4433 14.5055 14.2185 14.7271 14.1713C14.9371 14.1272 15.0949 14.3077 15.1523 14.5614C15.1707 14.6429 15.1734 14.721 15.1616 14.7941C14.9948 15.1755 14.6934 15.3575 14.3186 15.447C13.9376 15.4307 13.553 15.448 13.1669 15.4395L13.1258 15.4319C12.5824 15.3475 12.3051 14.816 12.2503 14.1855C12.7281 14.2554 13.3264 14.5253 13.5008 14.9397C13.509 14.9646 13.5374 15.0033 13.6013 15.0033C13.6754 15.0033 13.7017 14.9568 13.7017 14.9247V12.9375C13.6914 12.9054 13.6611 12.873 13.6088 12.873C13.5531 12.873 13.5249 12.9106 13.5151 12.9333L13.5126 12.9375C13.417 13.3035 12.9947 13.6484 12.2486 13.7076C12.3095 13.0056 12.642 12.7156 13.1258 12.6136C13.1391 12.6136 13.1631 12.6078 13.1819 12.5876C13.1913 12.5778 13.2054 12.5598 13.2054 12.5307V12.5248C13.2024 12.4944 13.1868 12.4744 13.1744 12.4637C13.1551 12.4474 13.132 12.4419 13.12 12.4428H10.8817C10.8706 12.4419 10.8466 12.4474 10.8273 12.4637C10.8149 12.4744 10.7985 12.494 10.7955 12.5248V12.5307C10.7955 12.5598 10.8099 12.5778 10.8198 12.5876C10.839 12.6073 10.8626 12.6136 10.8758 12.6136C11.3597 12.7151 11.6922 13.0052 11.7539 13.7076C11.0069 13.6484 10.5964 13.3035 10.5017 12.9375L10.4983 12.9342C10.4889 12.9114 10.4607 12.873 10.4046 12.873C10.3523 12.873 10.3219 12.9058 10.3125 12.9375V14.9247C10.3125 14.9568 10.3388 15.0033 10.4113 15.0033C10.476 15.0033 10.5048 14.9646 10.5126 14.9397C10.6866 14.5253 11.2731 14.255 11.7497 14.1855C11.6953 14.816 11.4184 15.3471 10.875 15.4319L10.834 15.4395C10.4483 15.448 10.0632 15.4307 9.6822 15.447C9.307 15.3575 9.00604 15.1755 8.84012 14.7941C8.82785 14.721 8.83054 14.6429 8.84933 14.5614C8.90676 14.3077 9.06372 14.1272 9.27372 14.1713C9.49615 14.218 9.54623 14.4428 9.49051 14.697C9.46608 14.8016 9.42118 14.8933 9.36161 14.9623C9.57889 14.9289 9.75956 14.8284 9.88728 14.5982C10.0921 14.2138 9.98397 13.6781 9.55497 13.5084C9.27082 13.3939 8.9254 13.6216 8.69782 14.0031C8.71325 13.4678 8.99711 12.9319 8.9774 12.5265C8.94869 11.9574 8.64084 11.3679 8.30441 11.2483ZM11.9992 15.6462H12.0017C12.0265 15.6475 12.0502 15.6562 12.0686 15.6747L12.5884 16.1777C12.6317 16.218 12.6317 16.2814 12.5884 16.3225L12.0686 16.8256C12.0502 16.844 12.027 16.8536 12.0017 16.8549H11.9992C11.9743 16.8536 11.9502 16.844 11.9314 16.8256L11.4116 16.3225C11.3683 16.2814 11.3683 16.218 11.4116 16.1777L11.9314 15.6747C11.9506 15.6562 11.9743 15.6475 11.9992 15.6462ZM9.32896 15.9584C9.47896 15.9511 9.60627 16.0609 9.61356 16.2062L9.62444 16.4054C9.63044 16.5507 9.51743 16.6727 9.36914 16.68L7.90932 16.7545C7.76189 16.7622 7.63282 16.6519 7.6264 16.5084L7.61384 16.3075C7.60655 16.1639 7.72081 16.0415 7.87081 16.0346L9.32896 15.9584ZM14.6727 15.9584L16.13 16.0346C16.2805 16.0419 16.3943 16.1639 16.387 16.3075C16.3866 16.3075 16.3753 16.5084 16.3753 16.5084C16.3689 16.6519 16.2398 16.7622 16.0915 16.7545L14.6317 16.68C14.4843 16.6727 14.3695 16.5511 14.3764 16.4054L14.3873 16.2062C14.3946 16.0613 14.5223 15.9516 14.6727 15.9584ZM8.25 19.2656C8.16598 19.2623 8.08286 19.2838 8.01097 19.3275C7.93908 19.3711 7.88161 19.4349 7.8457 19.5109L7.46819 20.281C7.41824 20.3831 7.4109 20.5009 7.44779 20.6084C7.48468 20.7159 7.56278 20.8044 7.6649 20.8544C7.76702 20.9043 7.8848 20.9116 7.99233 20.8748C8.09986 20.8379 8.18833 20.7598 8.23828 20.6576L8.61496 19.8884C8.64758 19.8243 8.66356 19.7531 8.66144 19.6812C8.65931 19.6094 8.63915 19.5392 8.6028 19.4772C8.56646 19.4152 8.51509 19.3633 8.45344 19.3263C8.39179 19.2893 8.32183 19.2685 8.25 19.2656ZM15.7793 19.2656C15.705 19.2635 15.6314 19.2808 15.5658 19.3157C15.5001 19.3506 15.4447 19.402 15.4049 19.4648C15.3652 19.5276 15.3424 19.5997 15.3389 19.674C15.3354 19.7482 15.3513 19.8221 15.385 19.8884L15.7617 20.6576C15.7865 20.7082 15.8209 20.7534 15.8631 20.7907C15.9053 20.8279 15.9544 20.8565 16.0077 20.8748C16.0609 20.893 16.1172 20.9006 16.1734 20.8971C16.2296 20.8936 16.2845 20.8791 16.3351 20.8544C16.3857 20.8296 16.4309 20.7952 16.4681 20.753C16.5054 20.7108 16.5339 20.6616 16.5522 20.6084C16.5705 20.5552 16.5781 20.4988 16.5746 20.4427C16.5711 20.3865 16.5565 20.3315 16.5318 20.281L16.1543 19.5109C16.1205 19.4394 16.0676 19.3786 16.0014 19.3353C15.9352 19.2921 15.8583 19.2679 15.7793 19.2656ZM10.0706 19.916C9.97184 19.915 9.87576 19.948 9.79858 20.0097C9.72141 20.0713 9.66788 20.1577 9.64704 20.2542L9.45452 21.0896C9.42899 21.2003 9.44851 21.3167 9.50879 21.4131C9.56907 21.5095 9.66517 21.578 9.77595 21.6035C9.88673 21.629 10.0031 21.6095 10.0995 21.5492C10.1959 21.489 10.2644 21.3929 10.2899 21.2821L10.4824 20.4467C10.4978 20.384 10.4988 20.3186 10.4854 20.2554C10.4719 20.1922 10.4444 20.1329 10.4048 20.0818C10.3652 20.0308 10.3145 19.9894 10.2567 19.9607C10.1988 19.9319 10.1352 19.9167 10.0706 19.916ZM13.916 19.9169C13.8527 19.9195 13.7907 19.9362 13.7345 19.9657C13.6784 19.9952 13.6295 20.0368 13.5914 20.0875C13.5533 20.1382 13.5269 20.1967 13.5141 20.2588C13.5014 20.3209 13.5025 20.3851 13.5176 20.4467L13.7101 21.2821C13.7356 21.3929 13.8041 21.489 13.9005 21.5492C13.9969 21.6095 14.1133 21.629 14.2241 21.6035C14.3348 21.578 14.4309 21.5095 14.4912 21.4131C14.5515 21.3167 14.571 21.2003 14.5455 21.0896L14.353 20.2542C14.3315 20.1555 14.276 20.0675 14.196 20.0058C14.1161 19.9441 14.0169 19.9126 13.916 19.9169ZM11.9933 20.137C11.8798 20.1388 11.7716 20.1855 11.6925 20.267C11.6134 20.3484 11.5699 20.4579 11.5714 20.5714V21.4286C11.5706 21.4854 11.5811 21.5417 11.6023 21.5944C11.6235 21.6471 11.6549 21.6951 11.6948 21.7356C11.7347 21.776 11.7822 21.8081 11.8346 21.83C11.887 21.852 11.9432 21.8632 12 21.8632C12.0568 21.8632 12.113 21.852 12.1654 21.83C12.2178 21.8081 12.2653 21.776 12.3052 21.7356C12.3451 21.6951 12.3765 21.6471 12.3977 21.5944C12.4189 21.5417 12.4294 21.4854 12.4286 21.4286V20.5714C12.4294 20.5141 12.4186 20.4572 12.397 20.4041C12.3754 20.3509 12.3434 20.3027 12.3028 20.2622C12.2622 20.2217 12.2139 20.1897 12.1607 20.1682C12.1076 20.1467 12.0506 20.1361 11.9933 20.137Z" fill="black"/>
</svg>
