<svg width="24" height="24" viewBox="0 0 24 24" fill="none" xmlns="http://www.w3.org/2000/svg">
<path d="M2.08913 0C0.939608 0 0 0.939608 0 2.08913V21.9109C0 23.0604 0.939608 24 2.08913 24H21.9109C23.0604 24 24 23.0604 24 21.9109V2.08913C24 0.939608 23.0604 0 21.9109 0H2.08913ZM22.9904 21.9009C22.9904 22.5006 22.5006 22.9904 21.9009 22.9904H2.08913C1.48938 22.9904 0.999583 22.5006 0.999583 21.9009V2.08913C0.999583 1.48938 1.48938 0.999583 2.08913 0.999583H21.9109C22.5106 0.999583 23.0004 1.48938 23.0004 2.08913V21.9109L22.9904 21.9009Z" fill="black"/>
<path d="M15.5235 8.82632C13.8942 8.82632 13.1645 9.71595 12.7547 10.3257V9.03623H9.68596C9.72595 9.89588 9.68596 18.1324 9.68596 18.1324H12.7547V13.0546C12.7547 12.7847 12.7747 12.5148 12.8546 12.3149C13.0746 11.7651 13.5843 11.2053 14.434 11.2053C15.5435 11.2053 15.9933 12.035 15.9933 13.2645V18.1324H19.0621V12.9146C19.0621 10.1158 17.5527 8.81633 15.5235 8.81633V8.82632Z" fill="black"/>
<path d="M6.4673 4.65806C5.41774 4.65806 4.72803 5.33778 4.72803 6.22741C4.72803 7.11703 5.39775 7.79675 6.42732 7.79675H6.44731C7.51687 7.79675 8.18659 7.09704 8.18659 6.22741C8.1666 5.33778 7.51687 4.65806 6.4673 4.65806Z" fill="black"/>
<path d="M7.98667 9.04623H4.91795V18.1424H7.98667V9.04623Z" fill="black"/>
</svg>
