<svg width="24" height="24" viewBox="0 0 24 24" fill="none" xmlns="http://www.w3.org/2000/svg">
<path d="M23.0194 6.51413C22.7551 5.52463 21.9758 4.74531 20.9859 4.48065C19.1919 4 12 4 12 4C12 4 4.80767 4 3.01413 4.48065C2.02463 4.74531 1.24531 5.52424 0.980648 6.51413C0.5 8.30767 0.5 12.0501 0.5 12.0501C0.5 12.0501 0.5 15.7925 0.980648 17.586C1.24493 18.5755 2.02463 19.3552 3.01413 19.6195C4.80806 20.1002 12 20.1002 12 20.1002C12 20.1002 19.1923 20.1002 20.9859 19.6195C21.9754 19.3552 22.7547 18.5755 23.0194 17.586C23.5 15.7925 23.5 12.0501 23.5 12.0501C23.5 12.0501 23.5 8.30767 23.0194 6.51413Z" stroke="black" stroke-miterlimit="10"/>
<path d="M9.68292 15.5V8.59977L15.6586 12.0501L9.68292 15.5Z" stroke="black" stroke-miterlimit="10"/>
</svg>
