<svg width="24" height="24" viewBox="0 0 24 24" fill="none" xmlns="http://www.w3.org/2000/svg">
<path d="M23.2316 4.77137H17.7689C17.2406 4.77137 16.7844 4.43736 16.6283 3.93637L15.92 1.68188C15.6078 0.679889 14.6833 0 13.6268 0H10.3972C9.34067 0 8.41621 0.679889 8.10405 1.68188L7.3957 3.93637C7.23962 4.43736 6.77139 4.77137 6.25513 4.77137H0.78039C0.348174 4.77137 0 5.11733 0 5.54675C0 5.97617 0.348174 6.32205 0.78039 6.32205H2.35318L4.27414 21.9006C4.41821 23.0934 5.43872 24 6.65133 24H17.3367C18.5493 24 19.5698 23.1054 19.7259 21.9006L21.6468 6.32205H23.2196C23.6518 6.32205 24 5.97617 24 5.54675C24 5.11733 23.6518 4.77137 23.2196 4.77137H23.2316ZM9.5928 2.13516C9.70085 1.78924 10.025 1.55068 10.3972 1.55068H13.6268C13.999 1.55068 14.3232 1.78924 14.4312 2.13516L14.9715 3.84092C15.1156 4.30613 14.7674 4.77137 14.2871 4.77137H9.76088C9.28064 4.77137 8.93247 4.30613 9.07654 3.84092L9.61681 2.13516H9.5928ZM18.1891 21.7098C18.1411 22.1273 17.7809 22.4374 17.3607 22.4374H6.66333C6.24312 22.4374 5.88294 22.1273 5.83492 21.7098L3.93797 6.32205H20.098L18.2011 21.7098H18.1891Z" fill="black"/>
</svg>
