<svg width="24" height="24" viewBox="0 0 24 24" fill="none" xmlns="http://www.w3.org/2000/svg">
<path d="M22.8328 5.11046C23.7224 4.22661 23.7224 2.78753 22.8328 1.90368L21.5895 0.668551C21.1447 0.226625 20.563 0 19.9813 0C19.3996 0 18.8179 0.226625 18.373 0.668551L3.47694 15.4674L0.5 22.8669L7.94805 19.9094L22.8442 5.11046H22.8328ZM19.411 1.71103C19.5593 1.56372 19.7646 1.47307 19.9813 1.47307C20.198 1.47307 20.3919 1.55238 20.5402 1.71103L21.7834 2.94618C21.9317 3.09349 22.0229 3.29745 22.0229 3.50141C22.0229 3.70538 21.9431 3.90933 21.7834 4.05664L7.93665 17.813L5.56422 15.4561L19.411 1.69972V1.71103ZM3.14617 20.2266L4.60612 16.6119L6.79606 18.7876L3.15758 20.238L3.14617 20.2266Z" fill="black"/>
<path d="M2.2451 24H23.3004V22.5269H5.95202L2.2451 24Z" fill="black"/>
</svg>
