<svg width="24" height="24" viewBox="0 0 24 24" fill="none" xmlns="http://www.w3.org/2000/svg">
<path d="M21 1H3C1.9 1 1 1.9 1 3V8C1 9.1 1.9 10 3 10H21C22.1 10 23 9.1 23 8V3C23 1.9 22.1 1 21 1ZM21.7 8C21.7 8.39 21.39 8.69995 21 8.69995H3C2.61 8.69995 2.3 8.39 2.3 8V3C2.3 2.61 2.61 2.30005 3 2.30005H21C21.39 2.30005 21.7 2.61 21.7 3V8Z" fill="black"/>
<path d="M5.7 6.75C6.39036 6.75 6.95 6.19036 6.95 5.5C6.95 4.80964 6.39036 4.25 5.7 4.25C5.00964 4.25 4.45 4.80964 4.45 5.5C4.45 6.19036 5.00964 6.75 5.7 6.75Z" fill="black"/>
<path d="M18.99 5H8.99V6.30005H18.99V5Z" fill="black"/>
<path d="M19 12.7H9V14H19V12.7Z" fill="black"/>
<path d="M5.7 14.58C6.39036 14.58 6.95 14.0203 6.95 13.33C6.95 12.6396 6.39036 12.08 5.7 12.08C5.00964 12.08 4.45 12.6396 4.45 13.33C4.45 14.0203 5.00964 14.58 5.7 14.58Z" fill="black"/>
<path d="M19 16.7H9V18H19V16.7Z" fill="black"/>
<path d="M5.7 18.58C6.39036 18.58 6.95 18.0203 6.95 17.33C6.95 16.6396 6.39036 16.08 5.7 16.08C5.00964 16.08 4.45 16.6396 4.45 17.33C4.45 18.0203 5.00964 18.58 5.7 18.58Z" fill="black"/>
<path d="M19 20.7H9V22H19V20.7Z" fill="black"/>
<path d="M5.7 22.58C6.39036 22.58 6.95 22.0203 6.95 21.33C6.95 20.6396 6.39036 20.08 5.7 20.08C5.00964 20.08 4.45 20.6396 4.45 21.33C4.45 22.0203 5.00964 22.58 5.7 22.58Z" fill="black"/>
</svg>
