<svg width="100" height="100" viewBox="0 0 100 100" fill="none" xmlns="http://www.w3.org/2000/svg">
<g clip-path="url(#clip0_15980_10337)">
<rect width="100" height="100" fill="#C7FFC6"/>
<path d="M98.1659 26.9791L85.3174 27.2894L61.5795 13.535C60.0395 12.6405 57.7706 12.9692 56.5495 14.2561L20.0633 52.6625L0.0341797 66.0244V73.043C0.0797418 73.8371 0.544486 74.5947 1.38283 75.0784L36.6206 95.4955C38.1606 96.3899 40.4296 96.0613 41.6507 94.7744L97.3914 36.097C97.929 35.5311 98.1842 34.8739 98.1751 34.2442V26.9791H98.1659Z" fill="black"/>
<path d="M41.6507 87.5716C40.4205 88.8676 38.1606 89.187 36.6206 88.2926L1.38284 67.8755C-0.157162 66.9811 -0.412314 65.1921 0.808752 63.9052L56.5495 5.22775C57.7797 3.93172 60.0396 3.6123 61.5796 4.50674L96.8173 24.9238C98.3573 25.8183 98.6125 27.6072 97.3914 28.8941L41.6507 87.5716Z" fill="#11B67A"/>
<path d="M84.9258 53.931C84.9258 53.931 91.7965 56.3131 100.034 56.1488C100.034 56.1488 89.9741 58.385 88.0878 64.1168C85.8917 70.7795 91.4594 76.5112 91.4594 76.5112C91.4594 76.5112 79.0118 68.1965 75.1482 78.6378C75.1482 78.6378 73.5079 82.6263 75.6949 88.8692C75.6949 88.8692 69.7718 79.3406 64.9331 74.9505L84.9258 53.931Z" fill="white"/>
<path d="M91.7234 34.8549L92.7713 33.7505C83.7774 33.7505 74.8381 34.8822 71.9586 35.2838C73.0612 32.5183 76.2779 23.6834 76.9704 13.4246L75.9134 12.8131C75.239 24.3497 71.2569 34.1703 70.6646 35.5759C60.24 41.1251 49.0772 44.5751 40.9672 46.583L34.388 39.4092C36.7663 33.8418 39.5639 26.9417 41.4866 21.0913L39.6914 22.9806C37.3404 29.7164 34.1055 37.3739 31.7727 42.6949L24.7926 43.5347C24.1547 42.7315 23.4622 41.8279 22.7332 40.8422L21.9678 41.6454C23.0886 43.1513 24.1092 44.4474 25.0022 45.5335L24.1001 51.5573L24.2732 51.5846C24.0818 51.7033 23.8905 51.8219 23.6991 51.9314C22.8334 52.4608 22.0042 52.9628 21.1659 53.4283C21.1659 53.4283 21.1476 53.4192 21.1385 53.4192L21.1203 53.4557C21.0018 53.5196 20.8834 53.5926 20.7649 53.6565C17.5027 55.3997 11.8256 56.6501 6.95048 57.4624L5.69296 58.7858C10.8597 57.9827 17.3933 56.6501 21.1659 54.6695C22.2138 55.2354 24.5101 56.4859 25.4396 57.0517C25.1024 58.0831 24.7562 59.1966 24.4463 60.3922C23.5442 61.3505 16.5914 68.8255 12.8736 74.539L13.8212 75.0866C17.7305 69.0993 25.2574 61.1315 25.3394 61.0402L25.4396 60.9398L25.476 60.8029C26.2141 57.9827 27.0798 55.6188 27.8362 53.8025L31.7454 52.543C34.2149 55.1077 37.7961 59.4795 40.2017 65.3208C40.3111 66.3795 41.4228 78.0895 40.4204 88.4212C40.8578 88.2296 41.2588 87.974 41.5868 87.6454C42.3614 78.4728 41.5868 68.5244 41.3408 65.8319C43.8285 66.2152 52.5308 67.6117 59.1282 69.1815L60.003 68.2688C52.9044 66.5347 42.981 64.974 41.1221 64.691C39.2358 60.1823 36.7208 56.5771 34.5247 53.9668L38.4066 50.2156C47.7833 50.3981 62.8279 50.7724 75.9589 51.466L76.9522 50.4255C61.8529 49.595 43.947 49.2116 34.9985 49.0565C42.8535 47.4593 57.6976 43.7445 71.2842 36.4886C72.2501 36.3425 81.8273 34.9644 91.7508 34.8549H91.7234ZM31.2533 43.8449C30.2965 46.008 29.5311 47.6783 29.121 48.5636C28.4649 47.8791 27.2439 46.5465 25.5945 44.5203L31.2533 43.8358V43.8449ZM25.795 55.9838C24.9111 55.4636 23.362 54.6057 22.2867 54.0216C22.9519 53.6382 23.608 53.2457 24.255 52.8442C25.4669 52.0957 26.7153 51.3382 28.0366 50.6811C27.4534 51.8311 26.6333 53.6199 25.795 55.9747V55.9838ZM25.2847 50.9549L25.9317 46.6469C27.016 47.9247 27.8362 48.81 28.3556 49.3394C27.2894 49.8231 26.2688 50.3799 25.2847 50.9549ZM28.4102 52.4608C28.8385 51.5207 29.203 50.8089 29.449 50.3616C29.7862 50.6537 30.2601 51.0827 30.8706 51.6668L28.4102 52.4608ZM36.8484 50.1791L33.7957 53.1271C32.5929 51.7763 31.5449 50.7541 30.7977 50.0787C32.1008 50.097 34.1875 50.1243 36.8484 50.1791ZM30.2145 48.8192C30.8797 47.3588 32.2648 44.3104 33.9142 40.5045L39.7552 46.8751C35.2446 47.9521 31.8183 48.5636 30.2145 48.8192Z" fill="#C7FFC6"/>
<path d="M78.884 23.6275L72.9062 20.1227C72.2866 19.7576 72.1682 18.9088 72.6602 18.3886C73.3528 17.6584 74.4463 17.5124 75.3119 18.0144L81.2897 21.5191C81.9185 21.8842 82.0278 22.7422 81.5266 23.2624H81.5175C80.825 23.9834 79.7406 24.1295 78.884 23.6275Z" fill="#024731"/>
<path d="M30.3694 71.4631C30.2965 73.5806 27.9 75.3694 25.0113 75.4516C22.1227 75.5337 19.8446 73.8909 19.9266 71.7734C19.9995 69.656 22.3961 67.867 25.2847 67.7849C28.1734 67.7027 30.4515 69.3456 30.3694 71.4631Z" fill="#024731"/>
<path d="M69.634 17.5871C70.6201 17.4842 71.3586 16.8155 71.2835 16.0935C71.2084 15.3716 70.3481 14.8697 69.362 14.9727C68.3759 15.0756 67.6374 15.7443 67.7125 16.4663C67.7877 17.1882 68.6479 17.69 69.634 17.5871Z" fill="#024731"/>
</g>
<defs>
<clipPath id="clip0_15980_10337">
<rect width="100" height="100" fill="white"/>
</clipPath>
</defs>
</svg>
