<svg width="100" height="100" viewBox="0 0 100 100" fill="none" xmlns="http://www.w3.org/2000/svg">
<rect width="100" height="100" fill="#C7FFC6"/>
<path d="M28.2191 66.3052L48.4354 77.5382L68.6516 66.3052L48.4354 55.0721L28.2191 66.3052Z" fill="white"/>
<path d="M28.2191 66.3061V88.7722L48.4354 100V77.5392L28.2191 66.3061Z" fill="#6CF479"/>
<path d="M48.4354 77.5392V100L68.6515 88.7722V66.3061L48.4354 77.5392Z" fill="#221F1F"/>
<path d="M39.1776 0L25.6539 38.3077L64.108 32.0778L39.1776 0Z" fill="#6CF479"/>
<path d="M37.0287 9.13744C34.0424 18.733 31.0561 28.3233 28.0751 37.9189C29.2163 37.3855 30.3575 36.8521 31.4987 36.3187C33.3438 27.2565 35.1836 18.1997 37.0287 9.13744Z" fill="white"/>
<path d="M39.1776 0C44.121 11.0357 49.0592 22.0715 54.0026 33.1072C57.3728 32.7658 60.7377 32.4191 64.108 32.0778C55.7996 21.3834 47.4913 10.6944 39.1776 0Z" fill="#11B67A"/>
<path d="M45.4172 38.4921C56.2032 36.7447 64.7096 33.862 64.4167 32.0533C64.1238 30.2446 55.1426 30.1948 44.3566 31.9421C33.5706 33.6894 25.0642 36.5722 25.3571 38.3809C25.65 40.1896 34.6312 40.2394 45.4172 38.4921Z" fill="#221F1F"/>
<path d="M48.4353 67.8791C55.3948 67.8791 61.0365 64.7221 61.0365 60.8277C61.0365 56.9334 55.3948 53.7764 48.4353 53.7764C41.4759 53.7764 35.8342 56.9334 35.8342 60.8277C35.8342 64.7221 41.4759 67.8791 48.4353 67.8791Z" fill="#C7FFC6"/>
<path d="M48.2594 65.7614C56.7974 65.7614 63.7188 58.8384 63.7188 50.2986C63.7188 41.7587 56.7974 34.8357 48.2594 34.8357C39.7213 34.8357 32.7999 41.7587 32.7999 50.2986C32.7999 58.8384 39.7213 65.7614 48.2594 65.7614Z" fill="#11B67A"/>
<path d="M42.276 38.324C37.7325 40.9963 35.0342 45.9408 35.3062 51.1199C35.6901 58.566 41.9934 62.2997 42.4306 62.5504C40.3509 60.1288 39.711 56.8752 40.8095 54.1122C41.8974 51.3813 44.2651 50.1812 44.8997 49.8878C44.7344 49.8558 41.1241 49.0291 39.9723 45.6207C39.103 43.0391 40.0203 40.0949 42.2813 38.324H42.276Z" fill="white"/>
<path d="M47.5979 65.7615C48.7498 65.5108 56.9248 63.5693 60.8283 55.7019C63.324 50.6774 62.7428 45.9249 62.4281 44.1221C64.6359 49.3066 63.9373 55.2592 60.583 59.681C55.8369 65.9269 48.3072 65.7882 47.5979 65.7615Z" fill="#006A4D"/>
<path d="M28.9551 67.8785C28.9711 71.4948 28.9925 75.1165 29.0085 78.7329C29.1044 78.2261 29.7337 75.2072 32.5867 73.495C34.4531 72.3749 36.2983 72.3962 37.0342 72.4496C34.3412 70.9241 31.6481 69.3986 28.9551 67.8785Z" fill="#C7FFC6"/>
<path d="M20.492 53.6535C20.492 53.6535 21.7879 57.9579 27.0566 59.1473C27.0566 59.1473 23.0677 59.8354 22.9877 64.6305C22.9877 64.6305 21.5799 60.4755 16.5352 59.1473C16.5352 59.1473 20.7533 58.646 20.492 53.6588V53.6535Z" fill="#11B67A"/>
<path d="M72.5498 28.5575C72.5498 28.5575 74.7202 35.7635 83.5352 37.753C83.5352 37.753 76.8586 38.9051 76.7253 46.9219C76.7253 46.9219 74.3736 39.9719 65.9266 37.7423C65.9266 37.7423 72.9818 36.9049 72.5445 28.5575H72.5498Z" fill="#11B67A"/>
<path d="M22.9131 1.8939C22.9131 1.8939 23.5637 4.04878 26.198 4.64083C26.198 4.64083 24.2036 4.98753 24.1609 7.38243C24.1609 7.38243 23.457 5.30756 20.9347 4.64083C20.9347 4.64083 23.0411 4.39014 22.9131 1.8939Z" fill="#11B67A"/>
</svg>
