<svg width="100" height="100" viewBox="0 0 100 100" fill="none" xmlns="http://www.w3.org/2000/svg">
<rect width="100" height="100" fill="#C7FFC6"/>
<path d="M49.9539 97.1871L24.0349 82.1914C22.6499 81.3918 22.3778 79.5039 23.4825 78.3497L55.3619 44.8464C56.0461 44.1292 57.1344 43.9725 57.9917 44.4672L84.6938 59.9163C86.0787 60.716 86.3508 62.6038 85.2461 63.758L53.9933 96.6018C52.9464 97.7065 51.2729 97.9456 49.9539 97.1871Z" fill="black"/>
<path d="M3.7159 52.9087C2.94921 45.7035 9.4867 40.2872 18.6045 40.1965C20.2698 36.1817 24.9935 33.4859 31.0446 33.0572C26.7495 32.2411 21.9598 32.2164 17.1618 33.0325C5.03498 35.0935 -2.59073 45.7117 0.814017 54.4667C2.4051 58.564 6.05723 61.7462 10.7728 63.6588C6.8404 60.8393 4.15283 56.9976 3.7159 52.9169V52.9087Z" fill="white"/>
<path d="M26.8947 3C26.8947 3 28.7331 9.07578 36.1609 10.7575C36.1609 10.7575 30.5303 11.7303 30.4149 18.4904C30.4149 18.4904 28.4282 12.6289 21.3054 10.7493C21.3054 10.7493 27.2657 10.0403 26.8947 3Z" fill="white"/>
<path d="M90.7338 60.7897C90.7338 60.7897 92.5722 66.8655 100 68.5472C100 68.5472 94.3694 69.52 94.254 76.28C94.254 76.28 92.2672 70.4186 85.1444 68.539C85.1444 68.539 91.1048 67.83 90.7338 60.7897Z" fill="white"/>
<path d="M97.3004 42.7192V38.7621L91.8264 37.5915L67.1688 12.9338C65.8827 11.6478 63.8053 11.6478 62.5193 12.9338L25.2566 50.1964L18.6203 52.6944V56.4783C18.6038 57.3439 18.917 58.2178 19.5765 58.8773L48.7519 88.0526C50.0379 89.3387 52.1154 89.3387 53.4014 88.0526L96.3358 45.1182C96.9953 44.4587 97.3086 43.5931 97.2922 42.7274L97.3004 42.7192Z" fill="black"/>
<path d="M97.1699 35.488L67.994 6.31212C66.7094 5.02755 64.6268 5.02755 63.3422 6.31212L20.4091 49.2452C19.1245 50.5298 19.1245 52.6125 20.4091 53.897L49.585 83.0729C50.8695 84.3575 52.9522 84.3575 54.2368 83.0729L97.1699 40.1398C98.4545 38.8552 98.4545 36.7726 97.1699 35.488Z" fill="#6CF479"/>
<path d="M92.9099 36.9907L66.4971 10.5779C65.9788 10.0596 65.1384 10.0596 64.6201 10.578L58.7616 16.4364C58.2433 16.9548 58.2433 17.7952 58.7616 18.3135L85.1743 44.7262C85.6926 45.2445 86.533 45.2445 87.0514 44.7262L92.9098 38.8677C93.4282 38.3494 93.4282 37.509 92.9099 36.9907Z" fill="black"/>
<path d="M72.0232 42.4854L68.4906 38.9528C68.0238 38.486 67.2669 38.486 66.8001 38.9528L63.2675 42.4854C62.8007 42.9522 62.8007 43.7091 63.2675 44.1759L66.8001 47.7085C67.2669 48.1753 68.0238 48.1753 68.4906 47.7085L72.0232 44.1759C72.49 43.7091 72.49 42.9522 72.0232 42.4854Z" fill="#006A4D"/>
<path d="M79.5265 49.9806L75.9939 46.448C75.527 45.9812 74.7702 45.9812 74.3034 46.4481L70.7708 49.9806C70.304 50.4475 70.304 51.2043 70.7708 51.6711L74.3034 55.2037C74.7702 55.6705 75.527 55.6705 75.9939 55.2037L79.5264 51.6711C79.9933 51.2043 79.9933 50.4475 79.5265 49.9806Z" fill="#006A4D"/>
<path d="M64.5264 34.987L60.9938 31.4544C60.527 30.9876 59.7701 30.9876 59.3033 31.4544L55.7707 34.987C55.3039 35.4538 55.3039 36.2107 55.7708 36.6775L59.3033 40.2101C59.7701 40.6769 60.527 40.6769 60.9938 40.2101L64.5264 36.6775C64.9932 36.2107 64.9932 35.4538 64.5264 34.987Z" fill="#006A4D"/>
<path d="M57.036 27.4974L53.5034 23.9648C53.0366 23.498 52.2797 23.498 51.8129 23.9648L48.2803 27.4974C47.8135 27.9642 47.8135 28.7211 48.2804 29.1879L51.8129 32.7205C52.2797 33.1873 53.0366 33.1873 53.5034 32.7204L57.036 29.1879C57.5028 28.721 57.5028 27.9642 57.036 27.4974Z" fill="#006A4D"/>
<path d="M58.5999 62.1491L48.177 72.572C47.7102 73.0388 47.7102 73.7956 48.177 74.2625L51.7096 77.7951C52.1764 78.2619 52.9333 78.2619 53.4001 77.7951L63.823 67.3722C64.2898 66.9054 64.2898 66.1485 63.823 65.6817L60.2904 62.1491C59.8236 61.6823 59.0667 61.6823 58.5999 62.1491Z" fill="#006A4D"/>
<path d="M56.714 57.7995L53.1814 54.2669C52.7146 53.8001 51.9577 53.8001 51.4909 54.2669L47.9583 57.7995C47.4915 58.2663 47.4915 59.0232 47.9583 59.4901L51.4909 63.0226C51.9577 63.4894 52.7146 63.4895 53.1814 63.0226L56.714 59.4901C57.1808 59.0232 57.1808 58.2663 56.714 57.7995Z" fill="#C7FFC6"/>
<path d="M49.2171 50.3043L45.6845 46.7717C45.2177 46.3048 44.4608 46.3049 43.994 46.7717L40.4614 50.3043C39.9946 50.7711 39.9946 51.5279 40.4614 51.9948L43.994 55.5274C44.4608 55.9942 45.2177 55.9942 45.6845 55.5273L49.2171 51.9948C49.6839 51.5279 49.684 50.7711 49.2171 50.3043Z" fill="#C7FFC6"/>
<path d="M41.7203 42.8083L38.1877 39.2756C37.7209 38.8088 36.964 38.8088 36.4972 39.2757L32.9646 42.8082C32.4978 43.2751 32.4978 44.0319 32.9646 44.4987L36.4972 48.0313C36.964 48.4982 37.7209 48.4981 38.1877 48.0313L41.7203 44.4987C42.1871 44.0319 42.1871 43.2751 41.7203 42.8083Z" fill="#C7FFC6"/>
<path d="M49.056 65.4581L45.5235 61.9255C45.0567 61.4587 44.2998 61.4587 43.833 61.9256L40.3004 65.4581C39.8336 65.925 39.8336 66.6818 40.3004 67.1486L43.833 70.6812C44.2998 71.148 45.0567 71.148 45.5235 70.6812L49.0561 67.1486C49.5229 66.6818 49.5229 65.9249 49.056 65.4581Z" fill="#C7FFC6"/>
<path d="M41.5464 57.9629L38.0139 54.4304C37.547 53.9636 36.7901 53.9635 36.3233 54.4303L32.7907 57.9629C32.3239 58.4297 32.324 59.1866 32.7908 59.6535L36.3233 63.186C36.7901 63.6528 37.547 63.6529 38.0139 63.1861L41.5464 59.6535C42.0133 59.1867 42.0132 58.4297 41.5464 57.9629Z" fill="#C7FFC6"/>
<path d="M34.0625 50.4669L30.5298 46.9343C30.063 46.4675 29.3062 46.4675 28.8394 46.9343L25.3068 50.4669C24.8399 50.9337 24.8399 51.6906 25.3067 52.1574L28.8394 55.69C29.3062 56.1568 30.063 56.1568 30.5298 55.69L34.0624 52.1574C34.5292 51.6906 34.5293 50.9337 34.0625 50.4669Z" fill="#C7FFC6"/>
<path d="M64.3718 50.1497L60.8392 46.6171C60.3724 46.1503 59.6155 46.1503 59.1487 46.6171L55.6161 50.1497C55.1493 50.6165 55.1493 51.3734 55.6161 51.8402L59.1487 55.3728C59.6155 55.8396 60.3724 55.8396 60.8392 55.3728L64.3718 51.8402C64.8386 51.3734 64.8386 50.6165 64.3718 50.1497Z" fill="#C7FFC6"/>
<path d="M71.8622 57.6393L68.3297 54.1067C67.8628 53.6399 67.1059 53.6399 66.6391 54.1067L63.1065 57.6393C62.6397 58.1061 62.6397 58.863 63.1066 59.3298L66.6391 62.8624C67.1059 63.3292 67.8628 63.3292 68.3297 62.8624L71.8622 59.3298C72.3291 58.863 72.329 58.1061 71.8622 57.6393Z" fill="#C7FFC6"/>
<path d="M56.8685 42.6456L53.3359 39.113C52.8691 38.6462 52.1123 38.6462 51.6454 39.113L48.1129 42.6456C47.646 43.1124 47.646 43.8693 48.1128 44.3361L51.6454 47.8687C52.1123 48.3355 52.8691 48.3355 53.3359 47.8687L56.8685 44.3361C57.3353 43.8693 57.3354 43.1124 56.8685 42.6456Z" fill="#C7FFC6"/>
<path d="M49.3781 35.156L45.8456 31.6235C45.3788 31.1567 44.6219 31.1566 44.155 31.6235L40.6225 35.156C40.1556 35.6229 40.1557 36.3798 40.6225 36.8466L44.155 40.3792C44.6219 40.846 45.3788 40.846 45.8456 40.3792L49.3782 36.8466C49.845 36.3798 49.845 35.6229 49.3781 35.156Z" fill="#C7FFC6"/>
<path d="M92.9099 36.9907L66.4971 10.5779C65.9788 10.0596 65.1384 10.0596 64.6201 10.578L58.7616 16.4364C58.2433 16.9548 58.2433 17.7952 58.7616 18.3135L85.1743 44.7262C85.6926 45.2445 86.533 45.2445 87.0514 44.7262L92.9098 38.8677C93.4282 38.3494 93.4282 37.509 92.9099 36.9907Z" fill="#11B67A"/>
<path d="M58.6175 18.1435C58.6599 18.2032 58.7081 18.26 58.7616 18.3135L85.1743 44.7262C85.6926 45.2445 86.533 45.2445 87.0514 44.7262L92.9098 38.8677C92.9554 38.8222 92.9967 38.7742 93.0342 38.7242C92.9918 38.6646 92.9438 38.6077 92.8903 38.5542L66.122 11.7859C65.8014 11.4653 65.2768 11.4653 64.9562 11.7859L58.7421 18C58.6966 18.0455 58.655 18.0935 58.6175 18.1435Z" fill="#006A4D"/>
<path d="M51.7554 84.8211C50.6178 84.8211 49.4801 84.3841 48.6145 83.5185L19.4392 54.3432C18.5983 53.5024 18.1367 52.3894 18.1367 51.2023C18.1367 50.0152 18.5983 48.9022 19.4392 48.0614L62.3736 5.12694C63.2145 4.28605 64.3274 3.82439 65.5146 3.82439C66.7017 3.82439 67.8146 4.28605 68.6555 5.12694L97.8308 34.3022C98.6717 35.1431 99.1333 36.256 99.1333 37.4432C99.1333 38.6303 98.6717 39.7432 97.8308 40.5841L54.8964 83.5185C54.0308 84.3841 52.8931 84.8211 51.7554 84.8211ZM65.5146 4.97854C64.6325 4.97854 63.8081 5.32479 63.1898 5.94309L20.2554 48.8775C19.6371 49.4958 19.2908 50.3202 19.2908 51.2023C19.2908 52.0844 19.6371 52.9088 20.2554 53.5271L49.4306 82.7024C50.7085 83.9802 52.8024 83.9802 54.0802 82.7024L97.0146 39.768C97.6329 39.1497 97.9792 38.317 97.9792 37.4432C97.9792 36.5693 97.6329 35.7367 97.0146 35.1184L67.8394 5.94309C67.2211 5.32479 66.3967 4.97854 65.5146 4.97854Z" fill="#C7FFC6"/>
</svg>
