<svg width="100" height="100" viewBox="0 0 100 100" fill="none" xmlns="http://www.w3.org/2000/svg">
<g clip-path="url(#clip0_15980_10408)">
<rect width="100" height="100" fill="#C7FFC6"/>
<path d="M59.5213 85.5645C59.062 85.0236 58.8069 84.3398 58.8069 83.6357V74.2368H38.9375V83.6357C38.9375 84.35 38.6926 85.0338 38.2232 85.5645L31.9776 92.8815C31.7021 93.2081 31.549 93.6265 31.549 94.0551V94.6674C31.549 95.1675 31.9572 95.5757 32.4573 95.5757H65.2872C65.7872 95.5757 66.1954 95.1675 66.1954 94.6674V94.0551C66.1954 93.6265 66.0424 93.2081 65.7668 92.8815L59.5213 85.5645Z" fill="#11B67A"/>
<path d="M97.2696 8.02652H2.81095C1.28018 8.02652 0.0351562 9.27154 0.0351562 10.8023V70.0635C0.0351562 71.5942 1.28018 72.8393 2.81095 72.8393H97.2594C98.7901 72.8393 100.035 71.5942 100.035 70.0635V10.8125C100.035 9.28175 98.7901 8.03672 97.2594 8.03672L97.2696 8.02652Z" fill="#11B67A"/>
<path d="M57.1845 85.2493L63.6239 92.5663H40.5195C40.5195 92.5663 56.715 91.7908 57.1743 85.2493H57.1845Z" fill="white"/>
<path d="M2.8107 6.64952H97.2693C97.7082 6.64952 98.1368 6.73116 98.5348 6.87403C98.4531 5.50655 97.3102 4.4248 95.9325 4.4248H4.14757C2.75967 4.4248 1.6269 5.50655 1.54526 6.87403C1.95347 6.74137 2.37188 6.64952 2.8107 6.64952Z" fill="black"/>
<path d="M4.61731 12.5974V68.2766H95.4735V12.5974H4.61731Z" fill="black"/>
<path d="M92.6363 42.5203H8.13789V65.2063H92.6363V42.5203Z" fill="#6CF479"/>
<path d="M89.932 51.4798L80.9004 47.3161L67.0419 59.7153L58.4798 54.725L45.6213 56.8681L42.7843 49.7755L33.2935 46.6221L24.6498 55.2659L18.8941 50.9593L10.3422 56.2353V57.858L18.8124 52.6329L24.762 57.0926L33.6609 48.1937L41.7332 50.8777L44.7437 58.4192L58.2144 56.1741L67.2051 61.4195L81.1351 48.9591L89.9116 53.0105V51.4798H89.932Z" fill="#01482F"/>
<path d="M19.1386 20.9189L33.2319 33.4981L41.794 28.5077L54.6524 30.6508L57.4894 23.5583L66.9802 20.4049L75.6239 29.0486L81.3796 24.7421L89.9315 30.0181V31.6407L81.4613 26.4157L75.5117 30.8753L66.6128 21.9765L58.5406 24.6604L55.5301 32.202L42.0593 29.9569L33.0686 35.2023L19.1386 22.7419V20.9189Z" fill="#6CF479"/>
<path d="M38.9469 74.2368V83.6357C38.9469 84.0541 38.8448 84.4725 38.6713 84.8603H45.3455C47.0089 84.8603 48.5499 83.9418 49.3255 82.4621L50.7338 79.8292C51.1012 79.1352 51.8257 78.7066 52.6217 78.7066H58.8264V74.247H38.9571L38.9469 74.2368Z" fill="black"/>
<path d="M8.27087 15.9963H22.0376C22.0376 15.9963 12.2407 20.7519 8.27087 39.6109V15.9963Z" fill="white"/>
</g>
<defs>
<clipPath id="clip0_15980_10408">
<rect width="100" height="100" fill="white"/>
</clipPath>
</defs>
</svg>
