<svg width="100" height="100" viewBox="0 0 100 100" fill="none" xmlns="http://www.w3.org/2000/svg">
<g clip-path="url(#clip0_15980_10406)">
<rect width="100" height="100" fill="#C7FFC6"/>
<path d="M59.5174 85.5645C59.0581 85.0236 58.803 84.3398 58.803 83.6357V74.2368H38.9336V83.6357C38.9336 84.35 38.6887 85.0338 38.2193 85.5645L31.9737 92.8815C31.6982 93.2081 31.5451 93.6265 31.5451 94.0551V94.6674C31.5451 95.1675 31.9533 95.5757 32.4534 95.5757H65.2833C65.7833 95.5757 66.1915 95.1675 66.1915 94.6674V94.0551C66.1915 93.6265 66.0384 93.2081 65.7629 92.8815L59.5174 85.5645Z" fill="#11B67A"/>
<path d="M97.2657 8.02652H2.80704C1.27628 8.02652 0.03125 9.27154 0.03125 10.8023V70.0635C0.03125 71.5942 1.27628 72.8393 2.80704 72.8393H97.2555C98.7862 72.8393 100.031 71.5942 100.031 70.0635V10.8125C100.031 9.28175 98.7862 8.03672 97.2555 8.03672L97.2657 8.02652Z" fill="#11B67A"/>
<path d="M57.1806 85.2493L63.62 92.5663H40.5156C40.5156 92.5663 56.7111 91.7908 57.1704 85.2493H57.1806Z" fill="white"/>
<path d="M2.80679 6.64952H97.2654C97.7042 6.64952 98.1329 6.73116 98.5309 6.87403C98.4492 5.50655 97.3062 4.4248 95.9286 4.4248H4.14366C2.75577 4.4248 1.623 5.50655 1.54136 6.87403C1.94956 6.74137 2.36797 6.64952 2.80679 6.64952Z" fill="black"/>
<path d="M4.61341 12.5974V68.2766H95.4696V12.5974H4.61341Z" fill="black"/>
<path d="M92.6324 42.5203H8.13398V65.2063H92.6324V42.5203Z" fill="#6CF479"/>
<path d="M89.928 51.4798L80.8965 47.3161L67.038 59.7153L58.4759 54.725L45.6174 56.8681L42.7804 49.7755L33.2896 46.6221L24.6459 55.2659L18.8902 50.9593L10.3383 56.2353V57.858L18.8085 52.6329L24.7581 57.0926L33.657 48.1937L41.7292 50.8777L44.7398 58.4192L58.2105 56.1741L67.2012 61.4195L81.1312 48.9591L89.9076 53.0105V51.4798H89.928Z" fill="#01482F"/>
<path d="M19.1347 20.9189L33.228 33.4981L41.7901 28.5077L54.6485 30.6508L57.4855 23.5583L66.9763 20.4049L75.62 29.0486L81.3757 24.7421L89.9276 30.0181V31.6407L81.4574 26.4157L75.5078 30.8753L66.6089 21.9765L58.5367 24.6604L55.5261 32.202L42.0554 29.9569L33.0647 35.2023L19.1347 22.7419V20.9189Z" fill="#6CF479"/>
<path d="M38.943 74.2368V83.6357C38.943 84.0541 38.8409 84.4725 38.6674 84.8603H45.3416C47.005 84.8603 48.546 83.9418 49.3216 82.4621L50.7299 79.8292C51.0973 79.1352 51.8218 78.7066 52.6178 78.7066H58.8225V74.247H38.9532L38.943 74.2368Z" fill="black"/>
<path d="M8.26696 15.9963H22.0337C22.0337 15.9963 12.2368 20.7519 8.26696 39.6109V15.9963Z" fill="white"/>
</g>
<defs>
<clipPath id="clip0_15980_10406">
<rect width="100" height="100" fill="white"/>
</clipPath>
</defs>
</svg>
