<svg width="100" height="100" viewBox="0 0 100 100" fill="none" xmlns="http://www.w3.org/2000/svg">
<g clip-path="url(#clip0_15980_10422)">
<rect width="100" height="100" fill="#C7FFC6"/>
<path d="M53.4163 19.4156C31.2567 19.4156 13.0987 32.7188 11.4096 49.6226C12.8172 66.1734 31.116 79.3152 53.4163 79.3152C75.7167 79.3152 94.0155 66.1734 95.4231 49.6226C93.7339 32.7188 75.586 19.4156 53.4163 19.4156Z" fill="#6CF479"/>
<path d="M53.4162 14.3805C29.8691 14.3805 10.7861 29.2269 10.7861 47.5326C10.7861 48.7933 10.8866 50.044 11.0676 51.2744C11.1682 50.5886 11.2989 49.9129 11.4597 49.2371C13.3801 32.5249 31.4275 19.4134 53.4263 19.4134C75.425 19.4134 93.4724 32.5148 95.3928 49.2371C95.5436 49.9129 95.6844 50.5886 95.7849 51.2744C95.9659 50.044 96.0664 48.8034 96.0664 47.5326C96.0664 29.2269 76.9834 14.3805 53.4363 14.3805H53.4162Z" fill="#00482F"/>
<path d="M53.4161 15.8219C76.6314 15.8219 95.5133 30.063 95.5133 47.5619C95.5133 65.0608 76.6314 79.3019 53.4161 79.3019C30.2008 79.3019 11.3189 65.0709 11.3189 47.572C11.3189 30.0731 30.2008 15.8219 53.4161 15.8219ZM53.4161 11.3942C27.7274 11.3942 6.89498 27.592 6.89498 47.572C6.89498 67.552 27.7174 83.7498 53.4161 83.7498C79.1148 83.7498 99.9372 67.552 99.9372 47.572C99.9372 27.592 79.1048 11.3942 53.4161 11.3942Z" fill="#11B67A"/>
<path d="M70.8201 12.4538C70.7397 12.1614 70.6894 11.8689 70.6995 11.5663C70.7899 9.61973 73.0119 8.02617 75.6663 8.02617C75.7769 8.02617 75.8875 8.02617 76.0081 8.02617C78.8133 8.16738 81.0956 10.0232 81.0051 12.0908C80.9448 13.4826 79.7785 14.6828 78.1497 15.2577C79.5975 15.9435 80.985 16.6798 82.3323 17.4766C83.9208 16.1553 84.9363 14.3298 85.0268 12.2622C85.2178 7.9354 81.2665 4.23391 76.2092 3.98177C76.0282 3.98177 75.8473 3.97168 75.6763 3.97168C70.8603 3.97168 66.8989 7.17897 66.6979 11.3343C68.1055 11.6571 69.4829 12.0202 70.8302 12.4337L70.8201 12.4538Z" fill="#11B67A"/>
<path d="M75.4555 42.7932C74.9829 42.642 74.4199 42.6319 73.8971 42.7932L56.101 48.0278C57.388 48.5623 58.0013 49.6516 57.5991 50.6803L75.3851 45.4458C76.4207 45.1432 76.9134 44.296 76.5011 43.5699C76.3 43.2169 75.918 42.9445 75.4454 42.8033" fill="#00482F"/>
<path d="M57.7195 49.3918H57.7094C57.7497 48.5547 57.1565 47.7377 56.1008 47.304C55.9902 47.2536 55.8695 47.2133 55.7388 47.1729C55.2462 47.0216 54.7334 46.9611 54.2407 46.9914L43.8346 27.2131C43.734 27.0215 43.5329 26.8803 43.2916 26.8097C43.0604 26.7391 42.7889 26.729 42.5275 26.7996C42.0147 26.9408 41.7433 27.3644 41.9444 27.7275L52.3505 47.5058C51.9383 47.7377 51.5965 48.0504 51.3652 48.4135C51.1641 48.7362 51.0837 49.0691 51.0837 49.3918V50.5819C51.0535 51.5098 51.7975 52.3873 53.0543 52.7706C54.7334 53.2849 56.694 52.7302 57.438 51.5199C57.5084 51.409 57.5586 51.3081 57.5989 51.1972C57.6793 50.9854 57.7094 50.7837 57.7094 50.5718H57.7195V49.3817V49.3918Z" fill="black"/>
<path d="M68.8493 25.9253C67.7333 25.5824 66.4262 25.9556 65.9335 26.7625C65.4409 27.5693 65.9336 28.4871 67.0596 28.8301C68.1857 29.173 69.4827 28.8099 69.9754 28.003C70.468 27.1961 69.9653 26.2683 68.8493 25.9253Z" fill="black"/>
<path d="M41.2908 70.5867C40.1747 70.2438 38.8777 70.617 38.375 71.4138C37.8723 72.2105 38.375 73.1485 39.5011 73.4814C40.6272 73.8142 41.9342 73.4511 42.4269 72.6543C42.9195 71.8575 42.4068 70.9296 41.2908 70.5867Z" fill="black"/>
<path d="M23.9266 38.7061C22.8106 38.3632 21.4935 38.7364 21.0008 39.5331C20.5082 40.3299 21.0209 41.2578 22.1369 41.6007C23.253 41.9437 24.56 41.5705 25.0527 40.7737C25.5453 39.9769 25.0527 39.0389 23.9266 38.7061Z" fill="black"/>
<path d="M86.2231 57.8061C85.1071 57.4632 83.79 57.8364 83.2973 58.6331C82.8047 59.4299 83.3174 60.3578 84.4334 60.7007C85.5495 61.0436 86.8565 60.6705 87.3492 59.8737C87.8418 59.0769 87.3492 58.1389 86.2231 57.8061Z" fill="black"/>
<path d="M51.1437 24.1094C50.8823 24.0287 50.6008 23.9985 50.2992 24.0287C49.3843 24.0993 48.7307 24.6944 48.8313 25.3399C48.8916 25.7736 49.2837 26.1266 49.8065 26.288C50.0679 26.3686 50.3595 26.3989 50.6611 26.3787C51.5761 26.298 52.2296 25.7131 52.1291 25.0676C52.0587 24.6339 51.6766 24.2809 51.1538 24.1195" fill="#00482F"/>
<path d="M58.5539 73.1248C58.2925 73.0441 58.0009 73.0138 57.6993 73.034C56.7944 73.1147 56.1308 73.6997 56.2314 74.3452C56.3017 74.7788 56.6838 75.1318 57.2066 75.2932C57.468 75.3739 57.7596 75.4042 58.0612 75.384C58.9661 75.3033 59.6197 74.7183 59.5292 74.0728C59.4588 73.6391 59.0767 73.2861 58.5539 73.1248Z" fill="#00482F"/>
<path d="M34.4338 28.8563C33.9109 28.6949 33.2775 28.7352 32.7848 28.9975C32.0509 29.3908 31.89 30.1372 32.4229 30.6516C32.6039 30.823 32.8351 30.9541 33.0965 31.0348C33.6194 31.1962 34.2528 31.1558 34.7454 30.8936C35.4794 30.5003 35.6403 29.7539 35.1074 29.2395C34.9264 29.0681 34.6952 28.937 34.4338 28.8563Z" fill="#00482F"/>
<path d="M75.2639 68.3722C74.7411 68.2108 74.1076 68.2511 73.615 68.5134C72.871 68.8966 72.7101 69.643 73.253 70.1674C73.434 70.3389 73.6653 70.47 73.9166 70.5507C74.4394 70.7121 75.0728 70.6717 75.5655 70.4095C76.3095 70.0161 76.4704 69.2799 75.9275 68.7554C75.7465 68.584 75.5152 68.4528 75.2538 68.3722" fill="#00482F"/>
<path d="M82.8047 33.8204C82.2819 33.659 81.6485 33.6994 81.1558 33.9616C80.4219 34.3549 80.261 35.0912 80.7939 35.6157C80.9748 35.7871 81.2061 35.9182 81.4675 35.9989C81.9903 36.1603 82.6237 36.1199 83.1164 35.8577C83.8504 35.4644 84.0112 34.718 83.4783 34.2036C83.2974 34.0322 83.0661 33.9011 82.8047 33.8204Z" fill="#00482F"/>
<path d="M26.8929 63.4159C26.3701 63.2546 25.7467 63.2949 25.244 63.5571C24.5 63.9505 24.3391 64.6867 24.8821 65.2112C25.063 65.3827 25.2943 65.5138 25.5456 65.5945C26.0685 65.7558 26.6918 65.7155 27.1945 65.4533C27.9386 65.07 28.0994 64.3237 27.5565 63.7992C27.3755 63.6277 27.1443 63.4966 26.8829 63.4159" fill="#00482F"/>
<path d="M89.2694 45.6836C89.008 45.6029 88.7164 45.5726 88.4248 45.6029C87.5099 45.6735 86.8564 46.2686 86.9569 46.9141C87.0172 47.3478 87.4093 47.7008 87.9322 47.8621C88.1936 47.9428 88.4852 47.9731 88.7868 47.9529C89.7017 47.8823 90.3553 47.2872 90.2547 46.6417C90.1944 46.2081 89.8023 45.855 89.2794 45.6937" fill="#00482F"/>
<path d="M20.4279 51.5506C20.1665 51.4699 19.875 51.4397 19.5733 51.4598C18.6685 51.5405 18.0149 52.1255 18.1054 52.771C18.1758 53.2047 18.5579 53.5577 19.0807 53.719C19.3421 53.7997 19.6337 53.83 19.9353 53.8098C20.8402 53.7291 21.5038 53.1442 21.4032 52.4987C21.3328 52.065 20.9508 51.712 20.4279 51.5506Z" fill="#00482F"/>
<path d="M20.5486 53.9128C20.5486 43.4034 30.0901 34.4976 43.3014 31.371C43.593 27.3771 47.4438 24.0689 52.6318 23.0402C52.5916 23.0402 52.5514 23.0402 52.5212 23.0402C32.4227 23.0402 16.1348 34.8204 16.1348 49.354C16.1348 56.8982 20.5285 63.686 27.5464 68.4868C23.1627 64.4626 20.5486 59.4096 20.5486 53.9128Z" fill="white"/>
<path d="M5.54778 50.5003C1.96846 54.9381 -0.0625 60.0012 -0.0625 65.3769C-0.0625 82.8254 21.2827 96.6732 47.6048 96.9657C57.267 97.0766 67.6128 95.6646 76.9029 91.6101V80.4249C69.9554 83.491 61.9422 85.256 53.4162 85.256C28.19 85.256 7.46815 69.9155 5.54778 50.5003Z" fill="black"/>
<path d="M86.1126 86.4077C86.7561 85.9438 87.3996 85.4697 88.0229 84.9654C88.6563 84.4208 89.2596 83.856 89.8428 83.2811V72.106C88.6664 73.1751 87.4197 74.1938 86.1126 75.162V86.4178V86.4077Z" fill="black"/>
<path d="M93.1609 68.6936V79.5862C97.4541 74.1096 99.9375 67.6749 99.9375 60.7863V56.9537C98.54 61.1998 96.2174 65.1635 93.1609 68.6936Z" fill="black"/>
</g>
<defs>
<clipPath id="clip0_15980_10422">
<rect width="100" height="100" fill="white"/>
</clipPath>
</defs>
</svg>
