<svg width="100" height="100" viewBox="0 0 100 100" fill="none" xmlns="http://www.w3.org/2000/svg">
<g clip-path="url(#clip0_15980_10478)">
<rect width="100" height="100" fill="#C7FFC6"/>
<path d="M51.3454 99.3752L17.4815 79.7528C15.9213 78.8498 15.6179 76.7226 16.8574 75.4202L57.7594 32.3551C59.1376 30.9051 61.3391 30.5839 63.0726 31.591L97.1446 51.335C98.7047 52.238 99.0082 54.3652 97.7687 55.6676L57.0314 98.5591C55.5492 100.113 53.2003 100.452 51.3454 99.3752Z" fill="black"/>
<path d="M51.3454 97.2284L17.4815 77.6059C15.9213 76.7029 15.6179 74.5757 16.8574 73.2734L57.7594 30.2082C59.1376 28.7582 61.3391 28.437 63.0726 29.4442L97.1446 49.1882C98.7047 50.0911 99.0082 52.2183 97.7687 53.5207L57.0314 96.4122C55.5492 97.9664 53.2003 98.305 51.3454 97.2284Z" fill="#6CF479"/>
<path d="M51.3454 97.2284L17.4815 77.6059C15.9213 76.7029 15.6179 74.5757 16.8574 73.2734L57.7594 30.2082C59.1376 28.7582 61.3391 28.437 63.0726 29.4442L97.1446 49.1882C98.7047 50.0911 99.0082 52.2183 97.7687 53.5207L57.0314 96.4122C55.5492 97.9664 53.2003 98.305 51.3454 97.2284Z" fill="black"/>
<path d="M81.8289 38.0649L31.54 91.0107L39.4967 95.6211L89.7857 42.6839L81.8289 38.0649Z" fill="black"/>
<path d="M55.9217 66.3772L9.31645 81.7713L32.4674 49.1859L58.21 54.1957L63.0724 61.9318L55.9217 66.3772Z" fill="black"/>
<path d="M68.8106 48.1984L55.6706 6.43564C55.1852 4.89016 53.5125 3.86564 51.9263 4.14348L24.6149 9.03172L16.1728 7.7554L14.6213 10.9853C14.2486 11.6625 14.1445 12.4179 14.3872 13.2167L30.6562 64.9209C31.1416 66.4664 32.8143 67.4909 34.4005 67.2131L70.2754 60.7967C71.1335 60.6404 71.7748 60.1282 72.1129 59.4509L73.8118 56.004L68.8106 48.1984Z" fill="black"/>
<path d="M36.0647 63.7759L71.9395 57.3596C73.517 57.073 74.4011 55.597 73.9158 54.0428L57.6468 2.33859C57.1614 0.793109 55.4885 -0.231411 53.9024 0.0464284L18.0276 6.46277C16.4501 6.7493 15.566 8.22533 16.0514 9.77949L32.3204 61.4837C32.8057 63.0292 34.4785 64.0537 36.0647 63.7759Z" fill="#11B67A"/>
<path d="M23.757 18.9485L56.2428 13.1312C56.8755 13.0184 57.2395 12.4193 57.0401 11.7941L54.8213 4.73526C54.622 4.11012 53.9459 3.70205 53.3132 3.81492L20.8273 9.6322C20.1946 9.74507 19.8305 10.3441 20.0299 10.9693L22.2488 18.0282C22.4482 18.6533 23.1242 19.0614 23.757 18.9485Z" fill="black"/>
<path d="M37.2611 30.1058L41.6035 29.3244C42.1756 29.2202 42.4963 28.6819 42.3229 28.1262L40.9795 23.8718C40.8061 23.3075 40.1994 22.9428 39.6186 23.0383L35.2762 23.8197C34.7042 23.9239 34.3835 24.4622 34.5568 25.0179L35.9003 29.2723C36.0737 29.8367 36.6804 30.2014 37.2611 30.1058Z" fill="#6CF479"/>
<path d="M28.0387 31.7542L32.3812 30.9727C32.9532 30.8686 33.2739 30.3302 33.1005 29.7746L31.7571 25.5201C31.5838 24.9558 30.977 24.5911 30.3963 24.6866L26.0538 25.468C25.4818 25.5722 25.1611 26.1106 25.3345 26.6662L26.678 30.9207C26.8513 31.485 27.458 31.8497 28.0387 31.7542Z" fill="#6CF479"/>
<path d="M46.4746 28.4542L50.817 27.6727C51.3891 27.5686 51.7097 27.0302 51.5364 26.4746L50.193 22.2201C50.0196 21.6558 49.4128 21.2911 48.8321 21.3866L44.4897 22.168C43.9176 22.2722 43.597 22.8105 43.7703 23.3662L45.1138 27.6207C45.2872 28.185 45.8938 28.5497 46.4746 28.4542Z" fill="#6CF479"/>
<path d="M55.6965 26.8058L60.0389 26.0244C60.611 25.9202 60.9317 25.3819 60.7583 24.8262L59.4149 20.5718C59.2416 20.0074 58.6348 19.6428 58.054 19.7383L53.7116 20.5197C53.1396 20.6239 52.8189 21.1622 52.9922 21.7179L54.3356 25.9723C54.509 26.5367 55.1158 26.9014 55.6965 26.8058Z" fill="#6CF479"/>
<path d="M65.2223 39.0142L69.4174 52.2636C69.5907 52.828 69.27 53.3663 68.698 53.4618L64.3556 54.2433C63.7835 54.3475 63.1768 53.9741 62.9948 53.4097L58.7996 40.1603C58.6263 39.5959 58.9471 39.0576 59.5191 38.9621L63.8616 38.1807C64.4336 38.0765 65.0403 38.4498 65.2223 39.0142Z" fill="#6CF479"/>
<path d="M43.0681 48.5561L47.4105 47.7747C47.9826 47.6705 48.3033 47.1322 48.13 46.5765L46.7865 42.3221C46.6131 41.7578 46.0064 41.3931 45.4257 41.4886L41.0833 42.27C40.5112 42.3742 40.1905 42.9125 40.3638 43.4682L41.7073 47.7226C41.8807 48.287 42.4874 48.6516 43.0681 48.5561Z" fill="#006A4D"/>
<path d="M52.2815 46.9045L56.624 46.123C57.196 46.0188 57.5168 45.4805 57.3435 44.9248L55.9999 40.6704C55.8266 40.1061 55.2199 39.7414 54.6392 39.8369L50.2968 40.6183C49.7247 40.7225 49.4039 41.2608 49.5773 41.8165L50.9208 46.0709C51.0941 46.6353 51.7008 47 52.2815 46.9045Z" fill="#006A4D"/>
<path d="M33.8978 50.2316L38.2402 49.4502C38.8123 49.346 39.1329 48.8077 38.9596 48.252L37.6162 43.9976C37.4428 43.4332 36.836 43.0685 36.2553 43.1641L31.9129 43.9455C31.3408 44.0497 31.0202 44.588 31.1935 45.1437L32.537 49.3981C32.7104 49.9624 33.3171 50.3271 33.8978 50.2316Z" fill="#006A4D"/>
<path d="M45.9633 57.7779L50.3058 56.9965C50.8778 56.8923 51.1985 56.354 51.0251 55.7983L49.6816 51.5439C49.5083 50.9795 48.9016 50.6149 48.3209 50.7104L43.9784 51.4918C43.4064 51.596 43.0857 52.1343 43.2591 52.69L44.6025 56.9444C44.7758 57.5087 45.3826 57.8734 45.9633 57.7779Z" fill="#006A4D"/>
<path d="M55.1853 56.1262L59.5277 55.3448C60.0998 55.2406 60.4204 54.7023 60.2471 54.1466L58.9036 49.8922C58.7302 49.3278 58.1235 48.9631 57.5428 49.0587L53.2004 49.8401C52.6283 49.9443 52.3076 50.4826 52.481 51.0383L53.8244 55.2927C53.9977 55.857 54.6045 56.2217 55.1853 56.1262Z" fill="#006A4D"/>
<path d="M36.8015 59.4534L41.1439 58.6719C41.716 58.5677 42.0367 58.0294 41.8634 57.4737L40.5199 53.2193C40.3465 52.655 39.7398 52.2903 39.1591 52.3858L34.8167 53.1672C34.2446 53.2714 33.9239 53.8097 34.0972 54.3654L35.4407 58.6198C35.6141 59.1842 36.2208 59.5489 36.8015 59.4534Z" fill="#006A4D"/>
<path d="M40.1644 39.3276L44.5068 38.5462C45.0789 38.442 45.3996 37.9037 45.2263 37.348L43.8828 33.0936C43.7094 32.5292 43.1026 32.1646 42.5219 32.2601L38.1796 33.0415C37.6075 33.1457 37.2868 33.684 37.4601 34.2397L38.8036 38.4941C38.977 39.0585 39.5837 39.4231 40.1644 39.3276Z" fill="#006A4D"/>
<path d="M30.9424 40.9759L35.2849 40.1945C35.8569 40.0903 36.1777 39.552 36.0043 38.9963L34.6608 34.7419C34.4875 34.1775 33.8808 33.8129 33.3001 33.9084L28.9576 34.6898C28.3856 34.794 28.0648 35.3323 28.2382 35.888L29.5817 40.1424C29.755 40.7068 30.3617 41.0714 30.9424 40.9759Z" fill="#006A4D"/>
<path d="M49.3778 37.6759L53.7203 36.8945C54.2923 36.7903 54.613 36.252 54.4396 35.6963L53.0962 31.4419C52.9229 30.8775 52.3161 30.5129 51.7354 30.6084L47.3931 31.3898C46.821 31.494 46.5002 32.0323 46.6736 32.588L48.0171 36.8424C48.1904 37.4067 48.7971 37.7714 49.3778 37.6759Z" fill="#006A4D"/>
<path d="M58.6002 36.0276L62.9426 35.2462C63.5147 35.142 63.8354 34.6037 63.662 34.048L62.3186 29.7936C62.1453 29.2292 61.5385 28.8645 60.9577 28.96L56.6153 29.7415C56.0433 29.8457 55.7226 30.384 55.896 30.9396L57.2395 35.1941C57.4128 35.7584 58.0195 36.1231 58.6002 36.0276Z" fill="#006A4D"/>
<path d="M23.757 18.9485L56.2428 13.1312C56.8755 13.0184 57.2395 12.4193 57.0401 11.7941L54.8213 4.73526C54.622 4.11012 53.9459 3.70205 53.3132 3.81492L20.8273 9.6322C20.1946 9.74507 19.8305 10.3441 20.0299 10.9693L22.2488 18.0282C22.4482 18.6533 23.1242 19.0614 23.757 18.9485Z" fill="black"/>
<path d="M23.098 20.0606L55.5838 14.2434C56.2166 14.1305 56.5806 13.5314 56.3813 12.9062L54.0236 5.42195C53.9023 5.03124 53.4863 4.77944 53.0876 4.8489L20.1684 10.7443C19.5356 10.8572 19.1716 11.4563 19.3709 12.0814L21.5899 19.1403C21.7892 19.7654 22.4653 20.1735 23.098 20.0606Z" fill="#2F8260"/>
<path d="M10.8247 66.8131C4.89612 62.0117 5.7282 53.1122 12.4455 46.253C10.7034 42.0246 12.1942 36.5026 16.3806 31.6751C12.5842 34.2625 8.99584 37.8136 6.04022 41.9899C-1.43985 52.5565 0.787689 66.1446 9.81924 70.1299C14.0663 72.0053 19.1715 71.6406 24.1206 69.5308C19.0762 70.3817 14.1964 69.5394 10.8247 66.8131Z" fill="#006A4D"/>
</g>
<defs>
<clipPath id="clip0_15980_10478">
<rect width="100" height="100" fill="white"/>
</clipPath>
</defs>
</svg>
