<svg width="100" height="100" viewBox="0 0 100 100" fill="none" xmlns="http://www.w3.org/2000/svg">
<rect width="100" height="100" fill="#C7FFC6"/>
<path d="M51.3454 99.3743L17.4815 79.7518C15.9213 78.8488 15.6179 76.7216 16.8574 75.4193L57.7594 32.3541C59.1376 30.9041 61.3391 30.5829 63.0726 31.5901L97.1446 51.3341C98.7047 52.237 99.0082 54.3642 97.7687 55.6666L57.0314 98.5581C55.5492 100.112 53.2003 100.451 51.3454 99.3743Z" fill="black"/>
<path d="M51.3454 97.2274L17.4815 77.6049C15.9213 76.702 15.6179 74.5748 16.8574 73.2724L57.7594 30.2072C59.1376 28.7573 61.3391 28.436 63.0726 29.4432L97.1446 49.1872C98.7047 50.0902 99.0082 52.2174 97.7687 53.5197L57.0314 96.4112C55.5492 97.9654 53.2003 98.304 51.3454 97.2274Z" fill="#6CF479"/>
<path d="M51.3454 97.2274L17.4815 77.6049C15.9213 76.702 15.6179 74.5748 16.8574 73.2724L57.7594 30.2072C59.1376 28.7573 61.3391 28.436 63.0726 29.4432L97.1446 49.1872C98.7047 50.0902 99.0082 52.2174 97.7687 53.5197L57.0314 96.4112C55.5492 97.9654 53.2003 98.304 51.3454 97.2274Z" fill="black"/>
<path d="M81.8289 38.0639L31.54 91.0097L39.4967 95.6201L89.7857 42.683L81.8289 38.0639Z" fill="black"/>
<path d="M55.9217 66.3763L9.31645 81.7703L32.4674 49.1849L58.21 54.1947L63.0724 61.9308L55.9217 66.3763Z" fill="black"/>
<path d="M68.8106 48.1974L55.6706 6.43467C55.1852 4.88918 53.5125 3.86466 51.9263 4.1425L24.6149 9.03075L16.1728 7.75442L14.6213 10.9843C14.2486 11.6615 14.1445 12.4169 14.3872 13.2157L30.6562 64.9199C31.1416 66.4654 32.8143 67.4899 34.4005 67.2121L70.2754 60.7957C71.1335 60.6395 71.7748 60.1272 72.1129 59.45L73.8118 56.003L68.8106 48.1974Z" fill="black"/>
<path d="M36.0647 63.7749L71.9395 57.3586C73.517 57.0721 74.4011 55.596 73.9158 54.0419L57.6468 2.33762C57.1614 0.792132 55.4885 -0.232388 53.9024 0.0454518L18.0276 6.4618C16.4501 6.74832 15.566 8.22435 16.0514 9.77852L32.3204 61.4828C32.8057 63.0282 34.4785 64.0528 36.0647 63.7749Z" fill="#11B67A"/>
<path d="M23.757 18.9475L56.2428 13.1303C56.8755 13.0174 57.2395 12.4183 57.0401 11.7932L54.8213 4.73429C54.622 4.10915 53.9459 3.70107 53.3132 3.81395L20.8273 9.63122C20.1946 9.7441 19.8305 10.3432 20.0299 10.9683L22.2488 18.0272C22.4482 18.6523 23.1242 19.0604 23.757 18.9475Z" fill="black"/>
<path d="M37.2611 30.1049L41.6035 29.3235C42.1756 29.2193 42.4963 28.6809 42.3229 28.1253L40.9795 23.8708C40.8061 23.3065 40.1994 22.9418 39.6186 23.0373L35.2762 23.8188C34.7042 23.9229 34.3835 24.4613 34.5568 25.0169L35.9003 29.2714C36.0737 29.8357 36.6804 30.2004 37.2611 30.1049Z" fill="#6CF479"/>
<path d="M28.0387 31.7532L32.3812 30.9718C32.9532 30.8676 33.2739 30.3293 33.1005 29.7736L31.7571 25.5192C31.5838 24.9548 30.977 24.5901 30.3963 24.6857L26.0538 25.4671C25.4818 25.5713 25.1611 26.1096 25.3345 26.6653L26.678 30.9197C26.8513 31.484 27.458 31.8487 28.0387 31.7532Z" fill="#6CF479"/>
<path d="M46.4746 28.4532L50.817 27.6718C51.3891 27.5676 51.7097 27.0293 51.5364 26.4736L50.193 22.2192C50.0196 21.6548 49.4128 21.2901 48.8321 21.3856L44.4897 22.1671C43.9176 22.2713 43.597 22.8096 43.7703 23.3652L45.1138 27.6197C45.2872 28.184 45.8938 28.5487 46.4746 28.4532Z" fill="#6CF479"/>
<path d="M55.6965 26.8049L60.0389 26.0235C60.611 25.9193 60.9317 25.3809 60.7583 24.8253L59.4149 20.5708C59.2416 20.0065 58.6348 19.6418 58.054 19.7373L53.7116 20.5187C53.1396 20.6229 52.8189 21.1612 52.9922 21.7169L54.3356 25.9713C54.509 26.5357 55.1158 26.9004 55.6965 26.8049Z" fill="#6CF479"/>
<path d="M65.2223 39.0132L69.4174 52.2627C69.5907 52.827 69.27 53.3654 68.698 53.4609L64.3556 54.2423C63.7835 54.3465 63.1768 53.9731 62.9948 53.4088L58.7996 40.1593C58.6263 39.5949 58.9471 39.0566 59.5191 38.9611L63.8616 38.1797C64.4336 38.0755 65.0403 38.4488 65.2223 39.0132Z" fill="#6CF479"/>
<path d="M43.0681 48.5552L47.4105 47.7737C47.9826 47.6696 48.3033 47.1312 48.13 46.5756L46.7865 42.3211C46.6131 41.7568 46.0064 41.3921 45.4257 41.4876L41.0833 42.269C40.5112 42.3732 40.1905 42.9116 40.3638 43.4672L41.7073 47.7216C41.8807 48.286 42.4874 48.6507 43.0681 48.5552Z" fill="#006A4D"/>
<path d="M52.2815 46.9035L56.624 46.1221C57.196 46.0179 57.5168 45.4795 57.3435 44.9239L55.9999 40.6695C55.8266 40.1051 55.2199 39.7404 54.6392 39.8359L50.2968 40.6174C49.7247 40.7216 49.4039 41.2598 49.5773 41.8155L50.9208 46.07C51.0941 46.6343 51.7008 46.999 52.2815 46.9035Z" fill="#006A4D"/>
<path d="M33.8978 50.2306L38.2402 49.4492C38.8123 49.345 39.1329 48.8067 38.9596 48.251L37.6162 43.9966C37.4428 43.4322 36.836 43.0676 36.2553 43.1631L31.9129 43.9445C31.3408 44.0487 31.0202 44.587 31.1935 45.1427L32.537 49.3971C32.7104 49.9615 33.3171 50.3261 33.8978 50.2306Z" fill="#006A4D"/>
<path d="M45.9633 57.7769L50.3058 56.9955C50.8778 56.8913 51.1985 56.353 51.0251 55.7973L49.6816 51.5429C49.5083 50.9785 48.9016 50.6139 48.3209 50.7094L43.9784 51.4908C43.4064 51.595 43.0857 52.1333 43.2591 52.689L44.6025 56.9434C44.7758 57.5078 45.3826 57.8724 45.9633 57.7769Z" fill="#006A4D"/>
<path d="M55.1853 56.1252L59.5277 55.3438C60.0998 55.2396 60.4204 54.7013 60.2471 54.1456L58.9036 49.8912C58.7302 49.3268 58.1235 48.9622 57.5428 49.0577L53.2004 49.8391C52.6283 49.9433 52.3076 50.4816 52.481 51.0373L53.8244 55.2917C53.9977 55.8561 54.6045 56.2207 55.1853 56.1252Z" fill="#006A4D"/>
<path d="M36.8015 59.4524L41.1439 58.6709C41.716 58.5668 42.0367 58.0284 41.8634 57.4728L40.5199 53.2183C40.3465 52.654 39.7398 52.2893 39.1591 52.3848L34.8167 53.1663C34.2446 53.2704 33.9239 53.8088 34.0972 54.3644L35.4407 58.6189C35.6141 59.1832 36.2208 59.5479 36.8015 59.4524Z" fill="#006A4D"/>
<path d="M40.1644 39.3266L44.5068 38.5452C45.0789 38.441 45.3996 37.9027 45.2263 37.347L43.8828 33.0926C43.7094 32.5282 43.1026 32.1636 42.5219 32.2591L38.1796 33.0405C37.6075 33.1447 37.2868 33.683 37.4601 34.2387L38.8036 38.4931C38.977 39.0575 39.5837 39.4221 40.1644 39.3266Z" fill="#006A4D"/>
<path d="M30.9424 40.9749L35.2849 40.1935C35.8569 40.0893 36.1777 39.551 36.0043 38.9953L34.6608 34.7409C34.4875 34.1766 33.8808 33.8119 33.3001 33.9074L28.9576 34.6888C28.3856 34.793 28.0648 35.3313 28.2382 35.887L29.5817 40.1414C29.755 40.7058 30.3617 41.0704 30.9424 40.9749Z" fill="#006A4D"/>
<path d="M49.3778 37.6749L53.7203 36.8935C54.2923 36.7893 54.613 36.251 54.4396 35.6953L53.0962 31.4409C52.9229 30.8765 52.3161 30.5119 51.7354 30.6074L47.3931 31.3888C46.821 31.493 46.5002 32.0313 46.6736 32.587L48.0171 36.8414C48.1904 37.4058 48.7971 37.7704 49.3778 37.6749Z" fill="#006A4D"/>
<path d="M58.6002 36.0266L62.9426 35.2452C63.5147 35.141 63.8354 34.6027 63.662 34.047L62.3186 29.7926C62.1453 29.2282 61.5385 28.8636 60.9577 28.9591L56.6153 29.7405C56.0433 29.8447 55.7226 30.383 55.896 30.9387L57.2395 35.1931C57.4128 35.7575 58.0195 36.1221 58.6002 36.0266Z" fill="#006A4D"/>
<path d="M23.757 18.9475L56.2428 13.1303C56.8755 13.0174 57.2395 12.4183 57.0401 11.7932L54.8213 4.73429C54.622 4.10915 53.9459 3.70107 53.3132 3.81395L20.8273 9.63122C20.1946 9.7441 19.8305 10.3432 20.0299 10.9683L22.2488 18.0272C22.4482 18.6523 23.1242 19.0604 23.757 18.9475Z" fill="black"/>
<path d="M23.098 20.0596L55.5838 14.2424C56.2166 14.1295 56.5806 13.5304 56.3813 12.9053L54.0236 5.42097C53.9023 5.03026 53.4863 4.77846 53.0876 4.84792L20.1684 10.7433C19.5356 10.8562 19.1716 11.4553 19.3709 12.0804L21.5899 19.1393C21.7892 19.7644 22.4653 20.1725 23.098 20.0596Z" fill="#2F8260"/>
<path d="M10.8247 66.8122C4.89612 62.0107 5.7282 53.1112 12.4455 46.252C10.7034 42.0237 12.1942 36.5016 16.3806 31.6741C12.5842 34.2615 8.99584 37.8127 6.04022 41.9889C-1.43985 52.5555 0.787689 66.1436 9.81924 70.1289C14.0663 72.0043 19.1715 71.6396 24.1206 69.5298C19.0762 70.3807 14.1964 69.5385 10.8247 66.8122Z" fill="#006A4D"/>
</svg>
