<svg width="100" height="100" viewBox="0 0 100 100" fill="none" xmlns="http://www.w3.org/2000/svg">
<rect width="100" height="100" fill="#C7FFC6"/>
<path d="M49.7198 17.7932C43.992 18.0419 36.8806 17.8544 28.8603 16.4937C22.439 15.4042 16.8626 13.8048 12.2526 12.1651C13.5101 10.6335 14.7676 9.10179 16.0251 7.57012C17.8628 5.3317 20.476 3.86721 23.3445 3.4681L46.8547 0.196896C48.7555 -0.0675954 50.6839 -0.065612 52.5842 0.202814L75.8675 3.49136C78.5976 3.87696 81.099 5.22856 82.9178 7.30083L87.187 12.1651C82.4151 13.6991 76.8436 15.1539 70.5628 16.2017C62.7151 17.5109 55.6533 17.8688 49.7198 17.7932Z" fill="#95F49F"/>
<path d="M49.7198 17.7932C58.8574 16.6939 64.5846 12.5384 64.5264 8.8691C64.5165 8.25102 64.3215 6.3214 61.1543 4.05181C69.8317 6.7563 78.5097 9.46064 87.187 12.1651C82.4151 13.6991 76.8436 15.1539 70.5628 16.2017C62.7151 17.5109 55.6533 17.8688 49.7198 17.7932Z" fill="white"/>
<path d="M70.4216 44.2534L50.1209 99.938C50.1145 99.9412 50.1049 99.9444 50.0985 99.9444C49.8522 100.021 49.5867 100.018 49.3404 99.938C49.334 99.938 49.3244 99.9348 49.318 99.9316L29.0205 44.2534L70.4216 44.2534Z" fill="#6CF479"/>
<path d="M49.3408 99.9369C49.3344 99.9369 49.3248 99.9337 49.3183 99.9305C49.168 99.8793 49.0241 99.7961 48.8993 99.6842C34.1136 76.3508 19.3216 53.0175 4.5359 29.6841C12.6965 34.5338 20.8571 39.3803 29.0209 44.2267C29.024 44.2363 29.0273 44.2427 29.0304 44.2523C35.7994 62.816 42.5717 81.3732 49.3408 99.9369Z" fill="black"/>
<path d="M94.7557 30.0094C80.0199 53.2368 65.2843 76.4642 50.5485 99.6917C50.4205 99.8068 50.2734 99.8868 50.1198 99.938C50.1134 99.9412 50.1038 99.9444 50.0974 99.9444C56.8697 81.3807 63.6387 62.817 70.4109 44.2534C70.4141 44.2438 70.4173 44.2374 70.4205 44.2278C78.5322 39.4883 86.644 34.7488 94.7557 30.0094Z" fill="#006A4D"/>
<path d="M29.0205 44.2534C34.1466 45.7353 41.4707 47.2567 50.332 47.1841C58.6093 47.1163 65.4875 45.6795 70.4227 44.2526C68.4532 39.9801 65.4751 34.6014 60.9903 29.029C57.0765 24.1664 53.0862 20.4866 49.7215 17.7946C46.0387 20.7209 41.4978 24.9156 37.1447 30.6549C33.3857 35.6109 30.7993 40.3582 29.0205 44.2534Z" fill="#95F49F"/>
<path d="M12.2526 12.1664L29.0188 44.2525C30.7976 40.3572 33.384 35.6108 37.143 30.6548C41.496 24.9155 46.037 20.7208 49.7198 17.7945C44.2418 18.0335 37.4685 17.8735 29.8268 16.6546C22.9566 15.5588 17.0465 13.8721 12.2526 12.1664Z" fill="#6CF479"/>
<path d="M87.1865 12.1664L70.4203 44.2525C68.4509 39.98 65.4729 34.6014 60.988 29.029C57.0742 24.1662 53.0845 20.4866 49.7198 17.7945C55.6533 17.8701 62.7145 17.5122 70.5623 16.203C76.8431 15.1552 82.4146 13.7004 87.1865 12.1664Z" fill="#6CF479"/>
<path d="M12.2526 12.1664L29.0188 44.2525C24.0583 41.8262 18.829 39.0389 13.4183 35.8334C10.8945 34.3381 8.47174 32.8351 6.14929 31.3352C3.5681 29.6684 2.85956 26.2073 4.56807 23.6535C7.12971 19.8245 9.69095 15.9954 12.2526 12.1664Z" fill="#11B67A"/>
<path d="M87.1886 12.1664L70.4227 44.2526C75.8171 41.755 81.7075 38.6422 87.8464 34.7495C90.0329 33.363 92.1106 31.9665 94.0815 30.5745C96.5695 28.8174 97.1124 25.3529 95.2809 22.9192C92.5835 19.3349 89.886 15.7507 87.1886 12.1664Z" fill="#11B67A"/>
<path d="M49.7215 17.7946C46.2486 20.3817 41.7842 24.2573 37.5059 29.7516C33.3133 35.1359 30.6767 40.3065 29.0205 44.2534C30.8644 44.9036 33.0208 45.5157 35.4586 45.9497C36.782 46.1854 38.0368 46.3413 39.2078 46.4395C39.273 43.1227 39.7066 38.7813 41.1649 33.9202C43.4142 26.4217 47.0998 21.0254 49.7215 17.7946Z" fill="white"/>
</svg>
