<svg width="100" height="100" viewBox="0 0 100 100" fill="none" xmlns="http://www.w3.org/2000/svg">
<g clip-path="url(#clip0_15980_2076)">
<rect width="100" height="100" fill="#C7FFC6"/>
<path d="M50.0352 78.5C77.6494 78.5 100.035 69.9954 100.035 59.5045C100.035 49.0135 77.6494 40.509 50.0352 40.509C22.4209 40.509 0.0351562 49.0135 0.0351562 59.5045C0.0351562 69.9954 22.4209 78.5 50.0352 78.5Z" fill="#11B67A"/>
<path d="M93.5987 54.4962L87.6565 31.2114C87.6565 31.2114 81.8213 20.9959 49.1941 21.5195C16.564 22.043 12.0264 31.9651 12.0264 31.9651L5.72007 55.8512C5.61314 56.1072 5.52354 56.3633 5.45129 56.6222L5.44263 56.6481C5.31257 57.1285 5.24321 57.6147 5.24321 58.1095C5.24321 66.6737 25.2952 73.6183 50.0322 73.6183C74.7692 73.6183 94.8212 66.6766 94.8212 58.1095C94.8212 56.8667 94.3964 55.6556 93.5987 54.4991V54.4962Z" fill="#6CF379"/>
<path d="M50.3243 43.0087C68.406 43.0087 83.0642 38.815 83.0642 33.6418C83.0642 28.4687 68.406 24.275 50.3243 24.275C32.2425 24.275 17.5844 28.4687 17.5844 33.6418C17.5844 38.815 32.2425 43.0087 50.3243 43.0087Z" fill="#11B67A"/>
<path d="M93.5987 54.4962V54.4991C94.3964 55.6556 94.8212 56.8667 94.8212 58.1095C94.8212 66.6766 74.7692 73.6183 50.0322 73.6183C25.2952 73.6183 5.24321 66.6737 5.24321 58.1095C5.24321 57.6147 5.31257 57.1285 5.44263 56.6481L5.45129 56.6222C5.52354 56.3633 5.61314 56.1072 5.72007 55.8512L6.42528 53.1792C6.30724 55.4337 6.38623 57.5412 6.95115 58.4664C8.62456 61.208 17.5843 70.69 50.0352 70.9633C58.3547 71.0335 65.2285 70.3366 70.6725 69.1975C70.9576 69.0865 84.2362 63.8655 83.0641 55.0488C81.8723 46.0701 61.1698 45.3133 61.1046 45.3109C61.1473 45.3054 71.6737 43.9515 77.3298 41.8414C81.6159 40.2419 85.1101 37.4141 86.5755 35.6592C87.4614 34.5998 87.9434 33.6812 88.0577 32.7842L93.5987 54.4962Z" fill="black"/>
<path d="M8.40791 54.2834L13.1362 34.5457C13.1362 34.5457 13.4455 36.5019 16.4715 39.2147C19.6536 42.0628 27.6593 43.0092 27.6593 43.0092C27.6593 43.0092 18.0322 42.1577 13.6738 46.027C10.538 48.8117 8.40791 54.2834 8.40791 54.2834Z" fill="white"/>
<path d="M51.3558 23.9933C52.6102 23.0756 54.3386 22.3277 56.7693 23.4266C57.8443 23.9099 58.4513 24.422 58.7837 24.9196C60.0843 26.8499 57.3791 28.5848 62.4078 27.7448C68.7344 26.6833 65.5033 34.3615 69.2981 34.5054C73.0929 34.6463 70.9398 40.2388 76.0901 38.5386C76.559 38.3849 77.0545 38.5741 77.5373 38.8507C71.6621 41.3579 61.6666 43.0087 50.3243 43.0087C36.6339 43.0087 24.9054 40.6041 20.0167 37.1909C21.6542 35.936 23.5925 35.338 25.7548 35.0518C30.2461 34.4534 30.5439 37.7071 32.9977 33.8321C35.4543 29.9542 37.4917 32.7647 39.1391 31.1594C40.2518 30.0691 38.2548 27.4743 40.275 25.3771C40.7606 24.8708 41.3792 24.3934 42.067 24.0166C43.7404 23.0874 45.8184 22.7162 47.353 23.8698C47.8039 24.2063 48.2085 24.6752 48.5409 25.2995C49.0929 26.3351 49.9165 25.0491 51.3558 23.9933Z" fill="#006A4D"/>
<path d="M55.5698 23.0155C55.9484 23.1018 56.3473 23.2339 56.7664 23.4238C57.8414 23.9071 58.4484 24.4192 58.7808 24.9168C60.0814 26.8471 57.3762 28.582 62.4049 27.742C62.8009 27.6758 63.1594 27.6411 63.4831 27.6411C63.8761 27.6411 64.2143 27.6873 64.5177 27.765C64.6651 27.8053 64.8011 27.8512 64.9312 27.9058C65.3011 28.0641 65.5988 28.2857 65.8387 28.5561C65.8414 28.5588 65.8444 28.5618 65.8444 28.5618C65.8559 28.5762 65.8674 28.5935 65.8819 28.6107L65.8558 28.6224C65.9569 28.7403 66.0468 28.8668 66.1277 29.002C66.3589 29.3817 66.5263 29.8161 66.6593 30.2706C67.1535 31.9564 67.2172 33.9185 68.6363 34.4047C68.8212 34.4708 69.0322 34.5082 69.2692 34.5169C69.7431 34.5341 70.1246 34.6376 70.4396 34.8016C70.6737 34.9224 70.8732 35.0807 71.0437 35.2591C71.2172 35.4374 71.3358 35.656 71.489 35.8574C73.1922 38.1011 76.552 38.4073 78.6107 38.3609C72.932 41.1408 62.3902 43.0087 50.3243 43.0087C45.6142 43.0087 41.1364 42.7236 37.0893 42.2112C39.1052 40.8781 41.3904 39.1455 41.8531 37.8798C42.7143 35.5237 44.9744 37.5865 44.9744 37.5865C44.9828 37.5894 46.5495 38.1423 47.5612 37.3045C49.8906 35.3741 49.6161 33.0985 49.6161 33.0985C49.6231 33.1021 51.4319 34.0497 53.3242 33.5013C55.1276 32.9806 54.4224 29.8793 54.4224 29.8793C54.4116 29.8587 51.9998 25.2552 54.3385 23.5187C54.6362 23.2972 55.0727 23.1134 55.5698 23.0155Z" fill="black"/>
<path d="M53.0206 65.2239C51.9772 65.5748 51.009 64.9189 50.3154 64.45C49.9165 64.1796 49.5032 63.9006 49.2749 63.9351C49.0552 63.9667 48.8905 64.1566 48.6419 64.4586C48.1477 65.0599 47.4743 65.8827 45.6246 65.431C44.5234 65.1606 43.9974 64.0473 44.1419 62.2924C44.3876 59.3322 46.6853 54.6257 49.2344 54.433C51.2084 54.2834 52.9512 56.5963 53.8414 58.6216C54.7922 60.7792 55.1737 63.492 53.8876 64.6859C53.5957 64.9563 53.3038 65.1289 53.0206 65.2239Z" fill="#11B67A"/>
<path d="M55.6854 57.439C55.0669 57.6462 54.4889 57.5915 54.0293 57.2693C53.1709 56.668 53.064 55.5144 53.7576 54.3321C54.4397 53.1756 55.8241 52.2579 57.0467 52.839C57.7201 53.1583 58.0987 53.7049 58.1131 54.3752C58.1391 55.5432 57.1189 56.7227 56.1449 57.2405C55.9889 57.324 55.8357 57.3901 55.6854 57.4419V57.439Z" fill="#11B67A"/>
<path d="M44.1651 58.587C43.6738 58.7539 43.064 58.7424 42.4021 58.5381C41.116 58.1383 39.9079 57.0019 40.2027 55.6843C40.3645 54.9594 40.8125 54.4703 41.4657 54.3035C42.6044 54.0158 43.9888 54.7408 44.7114 55.5693C45.301 56.2424 45.4801 56.9703 45.2171 57.6147C45.0206 58.0951 44.6507 58.4259 44.168 58.5899L44.1651 58.587Z" fill="#11B67A"/>
<path d="M47.2664 54.6684C46.3647 54.9705 45.3993 54.4814 44.7577 53.3738C44.0843 52.2116 43.9716 50.5603 45.0843 49.7893C45.697 49.3664 46.3618 49.3089 46.9514 49.6254C47.9832 50.1806 48.5092 51.6477 48.4774 52.7467C48.4514 53.6414 48.0872 54.2944 47.4543 54.5907C47.3907 54.6195 47.3271 54.6454 47.2635 54.6655L47.2664 54.6684Z" fill="#11B67A"/>
<path d="M51.9484 54.3267C51.6276 54.4332 51.301 54.4476 50.9802 54.3555C49.9686 54.0736 49.4802 53.0207 49.7403 51.6772C49.9946 50.3596 50.9917 49.0363 52.3415 49.1773C53.0842 49.2549 53.6247 49.6433 53.8617 50.2704C54.2779 51.3636 53.7114 52.8135 52.9657 53.6248C52.6478 53.97 52.3039 54.2059 51.9484 54.3239V54.3267Z" fill="#11B67A"/>
</g>
<defs>
<clipPath id="clip0_15980_2076">
<rect width="100" height="100" fill="white"/>
</clipPath>
</defs>
</svg>
