<svg width="100" height="100" viewBox="0 0 100 100" fill="none" xmlns="http://www.w3.org/2000/svg">
<rect width="100" height="100" fill="#C7FFC6"/>
<path d="M7.7225 76.8905L7.74407 86.4993L30.9726 100L30.9507 90.4055L7.7225 76.8905Z" fill="black"/>
<path d="M50.2567 79.2938L50.2711 88.9026L30.9726 100L30.9507 90.4055L50.2567 79.2938Z" fill="black"/>
<path d="M53.479 36.4263V20.3518C53.479 19.273 52.9469 18.3955 52.1843 17.8345C52.1843 17.8345 23.2161 1.13327 22.5255 0.622643C21.5761 -0.075008 20.2525 -0.247635 19.0873 0.421263L7.78708 6.88701C6.54987 7.59184 5.60759 8.6635 5.05372 9.91493L34.7629 26.3285L53.4862 36.4263H53.479Z" fill="#11B67A"/>
<path d="M34.7559 26.3358L5.05372 9.91493C4.69406 10.7204 4.5 11.5908 4.5 12.5043V74.9703C4.5 74.9703 4.5 74.9775 4.50718 74.9847V75.0855L4.53598 75.0353C4.53598 75.0353 4.53598 75.0568 4.55034 75.064L34.1875 92.2829L53.4792 81.1782L53.479 36.4263L34.7559 26.3286V26.3358Z" fill="#006A4D"/>
<path d="M10.578 22.0055V43.0734L27.829 53.1147V32.0108L10.578 22.0055Z" fill="#11B67A"/>
<path d="M53.4792 20.3589L53.4792 81.1782L34.1875 92.2829L34.1875 29.7302C34.1875 27.4001 35.4392 25.2424 37.4678 24.0844L48.7678 17.6187C50.8682 16.4176 53.479 17.9352 53.479 20.3518L53.4792 20.3589Z" fill="black"/>
<path d="M42.1609 50.3087L42.1462 61.4492L48.5912 65.1678V54.0125L42.1609 50.3087Z" fill="#006A4D"/>
<path d="M55.0292 50.3023L55.0364 61.45L48.5912 65.1678V54.0125L55.0292 50.3023Z" fill="black"/>
<path d="M42.1609 50.3087L48.6058 46.5911L55.0292 50.3023L48.5912 54.0125L42.1609 50.3087Z" fill="#6CF479"/>
<path d="M74.0834 64.2405V86.6207C74.0834 89.1378 73.0981 91.1591 71.3647 92.1585C70.6164 92.5903 69.7676 92.8061 68.8614 92.8061C67.6959 92.8061 66.4446 92.4536 65.2073 91.7414C61.3016 89.4759 58.2371 84.1611 58.2371 79.6514V64.5065C58.2371 63.5857 57.4749 62.2697 56.6835 61.8092L52.1448 59.1913C51.2457 58.6736 50.929 57.5084 51.4615 56.5952C51.9793 55.696 53.1447 55.3794 54.0438 55.8974L58.5825 58.5153C60.5462 59.6518 62.0351 62.2192 62.0351 64.4993V79.6442C62.0351 82.8304 64.3657 86.858 67.1063 88.4475C68.0772 89.0014 68.9691 89.1668 69.4728 88.8646C69.9906 88.5771 70.2929 87.7281 70.2929 86.6135V64.233C70.2929 63.183 71.1417 62.3344 72.1916 62.3344C73.2418 62.3344 74.0906 63.183 74.0906 64.233L74.0834 64.2405Z" fill="#6CF479"/>
<path d="M74.0834 64.2405L74.0834 70.4758C73.8676 70.5049 73.6518 70.512 73.4289 70.512C72.314 70.512 71.2494 70.2816 70.2929 69.8789V64.2402C70.2929 63.1902 71.1417 62.3416 72.1916 62.3416C73.2418 62.3416 74.0906 63.1902 74.0906 64.2402L74.0834 64.2405Z" fill="black"/>
<path d="M94.1016 44.2754L86.0958 58.2066L82.5136 56.1712L81.2117 55.4232V59.6597C81.2117 63.529 78.4571 66.7582 74.7958 67.4773C74.2921 67.5781 73.7744 67.6284 73.2419 67.6284C68.8399 67.6284 65.2721 64.061 65.2721 59.6597V48.7776C65.2721 43.9735 67.3869 39.989 71.0768 37.86C74.7596 35.7385 79.0466 35.6807 83.226 38.0901L94.1091 44.2754H94.1016Z" fill="#6CF479"/>
<path d="M81.2117 55.4232V59.6597C81.2117 63.529 78.4571 66.7582 74.7958 67.4773L74.7956 51.7119L81.2115 55.4161L81.2117 55.4232Z" fill="black"/>
<path d="M93.832 53.3948C96.0569 49.5419 96.0558 45.3772 93.8299 44.092C91.604 42.8071 87.9961 44.8886 85.7712 48.7415C83.5466 52.5941 83.5476 56.7591 85.7736 58.0444C87.9995 59.3292 91.6074 57.2477 93.832 53.3948Z" fill="black"/>
<path d="M88.3833 54.178C87.7144 54.178 87.6135 53.3797 87.6135 52.8979C87.6135 51.2219 88.8436 49.0932 90.2967 48.2518C90.7283 47.9998 91.0374 47.9496 91.2245 47.9496C91.8934 47.9496 91.9943 48.7479 91.9943 49.23C91.9943 50.9057 90.7642 53.0343 89.3111 53.8761C88.8795 54.1277 88.5704 54.178 88.3905 54.178H88.3833Z" fill="#11B67A"/>
<path d="M21.4333 54.4993L12.3126 65.1799L19.1963 66.2371L14.0461 75.5437L24.3537 64.5539L17.2974 63.5327L21.4333 54.4993Z" fill="#6CF479"/>
<path d="M74.7956 55.3721C74.7307 59.3494 73.9971 63.1828 69.3934 63.1326C67.2068 63.1038 65.9695 61.4928 65.2862 59.9536C65.4446 64.2184 68.9403 67.6347 73.2417 67.6347C73.7741 67.6347 74.2919 67.5845 74.7956 67.4836C75.522 67.34 76.2125 67.0952 76.8526 66.7646L74.7956 55.3721Z" fill="black"/>
<path d="M69.696 40.3409C74.6017 36.7376 78.4065 37.6078 79.917 38.0324C81.4276 38.4567 88.9299 42.6279 88.9299 42.6279C88.9299 42.6279 84.2978 40.3194 80.5572 40.9379C78.3132 41.3119 78.1261 42.9948 78.1261 42.9948C78.1261 42.9948 78.7735 39.852 75.0261 39.3269C72.3788 38.9528 69.696 40.3481 69.696 40.3481V40.3409Z" fill="white"/>
<path d="M20.7562 29.9421L11.952 24.6703V40.2108C11.952 40.2108 12.2109 34.7752 15.2752 31.9343C18.4616 28.9782 20.7562 29.9421 20.7562 29.9421Z" fill="white"/>
</svg>
