<svg width="100" height="100" viewBox="0 0 100 100" fill="none" xmlns="http://www.w3.org/2000/svg">
<g clip-path="url(#clip0_15980_10525)">
<rect width="100" height="100" fill="#C7FFC6"/>
<path d="M13.5666 94.2965L72.1496 60.4964C75.2396 58.7147 77.1585 55.3921 77.1585 51.8287V23.5529H75.941V51.8287C75.941 54.9598 74.2539 57.8779 71.5409 59.4434L12.9579 93.2435L13.5666 94.2965Z" fill="#006A4D"/>
<path d="M75.5332 18.0194H77.5633V23.2564C77.5633 23.8154 77.1091 24.2693 76.5498 24.2693C75.9905 24.2693 75.5363 23.8154 75.5363 23.2564V18.0194H75.5332Z" fill="black"/>
<path d="M80.2331 1.40628V7.80439C80.2331 11.5778 78.2956 15.0702 75.1284 17.0835L74.7082 19.4674L71.0342 17.3305H71.028C69.9527 16.7037 69.1864 15.5519 69.1864 14.1315V7.77969L80.2361 1.40628H80.2331Z" fill="black"/>
<path d="M69.1832 7.77969L72.8665 9.90725L83.9131 3.53075L80.2331 1.40628L69.1832 7.77969Z" fill="#6CF379"/>
<path d="M72.8665 9.90725L72.8665 16.2592C72.8665 19.1032 75.9472 20.8787 78.4099 19.4583C81.8151 17.4944 83.9132 13.863 83.9132 9.93214V3.53403L72.8634 9.90744L72.8665 9.90725Z" fill="#006A4D"/>
<path d="M73.571 0.378058C73.9603 0.378058 74.2755 0.693023 74.2755 1.0821V7.14981C74.2755 7.53888 73.9603 7.85385 73.571 7.85385C73.1816 7.85385 72.8664 7.53888 72.8664 7.14981V1.07901C72.8664 0.689935 73.1816 0.37497 73.571 0.37497V0.378058Z" fill="white"/>
<path d="M79.5285 -3C79.9178 -3 80.233 -2.68503 80.233 -2.29596V3.77175C80.233 4.16082 79.9178 4.47579 79.5285 4.47579C79.1392 4.47579 78.824 4.16082 78.824 3.77175V-2.29596C78.824 -2.68503 79.1392 -3 79.5285 -3Z" fill="white"/>
<path d="M22.268 51.9521C22.6542 51.3376 21.1494 49.9202 20.7322 49.6763C18.4889 48.3732 16.9563 48.6233 16.1529 48.8395C15.5009 49.0155 15.059 49.4169 14.9478 50.0592C14.4967 52.6129 17.1726 55.4877 19.076 56.7506C19.076 56.7506 22.2649 51.9613 22.268 51.9521Z" fill="#6CF379"/>
<path d="M15.6161 49.0648C15.551 49.522 15.5704 50.0635 15.7858 50.6489C16.1157 51.5474 17.1691 52.6174 18.3055 53.5759L21.6126 50.4595C22.0795 50.9704 22.4919 51.5958 22.268 51.9521C22.2534 51.9785 19.076 56.7506 19.076 56.7506C17.1726 55.4877 14.4967 52.6129 14.9478 50.0592C15.025 49.6138 15.2611 49.2837 15.6161 49.0648Z" fill="black"/>
<path d="M53.6777 92.5549L44.5653 87.2993L47.8778 83.7019L54.7221 87.6483L53.6777 92.5549Z" fill="black"/>
<path d="M99.1066 65.965L89.9943 60.7064L93.9247 57.109L99.0943 60.9318L99.1066 65.965Z" fill="black"/>
<path d="M38.2864 90.4194C40.6874 86.2636 44.7601 84.121 47.3834 85.6341C47.4278 85.6598 47.4705 85.6887 47.5135 85.7161L50.5292 87.4567C50.534 87.4594 50.5394 87.4614 50.5443 87.4642C50.5489 87.4669 50.5538 87.47 50.5584 87.4727L50.6801 87.5434L50.6763 87.5471C53.172 89.1377 53.3068 93.6455 50.9469 97.7302C48.5459 101.886 44.4732 104.028 41.8499 102.514C41.8039 102.488 41.7596 102.458 41.7151 102.43L38.7352 100.71C38.7198 100.701 38.7034 100.694 38.6881 100.685C36.0648 99.1718 35.8853 94.5754 38.2864 90.4194Z" fill="black"/>
<path d="M49.768 97.1913C51.4899 94.2109 51.3607 90.9148 49.4793 89.8293C47.5979 88.7439 44.6768 90.28 42.9549 93.2604C41.233 96.2408 41.3623 99.5369 43.2437 100.622C45.1251 101.708 48.0461 100.172 49.768 97.1913Z" fill="#006A4D"/>
<path d="M47.7008 95.9988C49.0055 93.7406 48.9081 91.2436 47.4834 90.4216C46.0587 89.5996 43.8461 90.7638 42.5415 93.022C41.2368 95.2802 41.3341 97.7772 42.7588 98.5992C44.1835 99.4212 46.3961 98.257 47.7008 95.9988Z" fill="black"/>
<path d="M83.6659 64.209C86.0669 60.0531 90.1396 57.9106 92.7629 59.4237C92.8139 59.4531 92.8628 59.4863 92.9119 59.518L95.8823 61.2349C95.8947 61.2419 95.9078 61.2476 95.9201 61.2547C95.9316 61.2614 95.9425 61.2696 95.954 61.2764L96.0568 61.3358L96.053 61.3395C98.5471 62.931 98.6819 67.437 96.3227 71.5207C93.9216 75.6766 89.8481 77.8193 87.2248 76.3059C87.1825 76.2815 87.1423 76.2537 87.1012 76.2277L84.0676 74.4749C81.4444 72.9614 81.2648 68.365 83.6659 64.209Z" fill="black"/>
<path d="M95.1461 70.9841C96.8681 68.0037 96.7388 64.7076 94.8574 63.6221C92.976 62.5366 90.0549 64.0728 88.333 67.0532C86.6111 70.0336 86.7404 73.3297 88.6218 74.4151C90.5032 75.5006 93.4242 73.9645 95.1461 70.9841Z" fill="#006A4D"/>
<path d="M93.1253 70.0128C94.4171 67.7768 94.3202 65.304 92.9088 64.4896C91.4974 63.6753 89.3059 64.8278 88.0141 67.0639C86.7222 69.2999 86.8191 71.7728 88.2306 72.5871C89.642 73.4014 91.8334 72.2489 93.1253 70.0128Z" fill="black"/>
<path d="M4.87138 92.5918C10.1583 95.6426 19.4777 101.019 19.4777 101.019C19.4839 101.019 19.487 101.019 19.4932 101.025C19.8887 101.176 29.4182 104.746 38.9601 101.059L39.0126 101.031C38.2278 98.5452 38.7438 95.0466 40.6349 91.7765C43.4498 86.91 48.2208 84.4027 51.2922 86.172C53.1802 87.2559 53.9805 89.7077 53.6715 92.5609L84.4446 74.4288C83.6814 71.9461 84.2067 68.4846 86.0792 65.2392C88.8942 60.3696 93.6652 57.8591 96.7366 59.6285C98.606 60.7093 99.4094 63.1271 99.1221 65.9494L99.3415 65.7302C100.713 63.5933 99.5918 58.9399 99.1097 57.7572C98.3496 55.886 91.6937 43.4788 89.0889 41.2802C82.98 36.1296 67.7958 28.6384 63.5718 28.2215C60.1018 27.8788 58.4208 28.3945 57.9573 28.4902C46.5336 30.8555 36.2378 37.0714 35.0574 37.76C31.7326 39.7023 28.8249 42.2838 26.5136 45.3655L17.6732 58.3594C17.6732 58.3594 10.0595 62.7071 3.57668 69.2473C-0.00151992 72.857 0.00156906 78.2608 0.00774903 78.7055V85.1561C0.00774903 85.1561 -0.409398 89.5502 4.87756 92.5948L4.87138 92.5918Z" fill="#006A4D"/>
<path d="M84.4968 37.987C86.2834 39.1286 87.8676 40.2506 89.0889 41.2802C91.6937 43.4788 98.3496 55.886 99.1097 57.7572C99.5918 58.9399 100.713 63.5933 99.3415 65.7302L99.1221 65.9494C99.4094 63.1271 98.606 60.7093 96.7366 59.6285C93.6652 57.8591 88.8942 60.3696 86.0792 65.2392C84.2067 68.4846 83.6814 71.9461 84.4446 74.4288L53.6715 92.5609C53.9805 89.7077 53.1802 87.2559 51.2922 86.172C48.2208 84.4027 43.4498 86.91 40.6349 91.7765C38.7438 95.0466 38.2278 98.5452 39.0126 101.031L38.9601 101.059C29.4194 104.745 19.8908 101.177 19.4932 101.025C19.487 101.019 19.4839 101.019 19.4777 101.019C19.4368 100.995 10.1467 95.6359 4.87138 92.5918L4.87756 92.5948C-0.392885 89.5596 0.00523842 85.1831 0.00774903 85.1561V78.7055C0.00156906 78.2608 -0.00151992 72.857 3.57668 69.2473C10.0595 62.7071 17.6732 58.3594 17.6732 58.3594L26.5136 45.3655C28.0741 43.2849 29.9073 41.4328 31.9563 39.851C28.1964 44.7371 42.0901 50.8264 46.3048 52.1035C50.6803 53.4312 56.9689 53.5113 62.33 51.1243C74.4894 45.7103 87.3302 41.5673 84.4968 37.987Z" fill="#11B67A"/>
<path d="M11.2794 62.637C5.44538 67.2206 3.78159 73.0707 16.1377 79.7086C29.0816 86.6657 33.4913 82.3836 43.7871 76.6988C43.7431 76.7301 31.4336 85.5227 33.7027 102.431C26.1945 103.537 19.817 101.149 19.4932 101.025C19.487 101.019 19.4839 101.019 19.4777 101.019C19.4368 100.995 10.1467 95.6359 4.87138 92.5918L4.87756 92.5948C-0.392885 89.5596 0.00523842 85.1831 0.00774903 85.1561V78.7055C0.00156906 78.2608 -0.00151992 72.857 3.57668 69.2473C6.14764 66.6536 8.89816 64.4067 11.2794 62.637Z" fill="black"/>
<path d="M4.00612 82.9331L20.5715 92.4901C20.5715 94.2069 18.7113 95.2784 17.2251 94.42L7.35257 88.7229C5.28228 87.5278 4.00612 85.32 4.00612 82.93V82.9331Z" fill="#11B67A"/>
<path d="M18.8257 58.7764C18.838 58.8104 18.8442 58.8382 18.8504 58.8567C19.3046 60.5798 20.2471 62.1824 21.6994 63.7016C23.3741 65.4463 25.7256 67.0705 28.7785 68.6021C34.084 71.267 39.8036 72.848 45.313 73.2278L52.936 56.6643C51.0418 56.266 49.0612 55.7966 47.0588 55.2068C44.5745 54.475 42.0562 53.5641 39.6367 52.3752C38.7468 51.9368 37.8569 51.4612 36.9701 50.9425C34.1149 49.2781 31.2474 47.1907 28.1698 44.5382C27.5518 45.304 26.9801 46.0976 26.4641 46.9035L20.2192 56.6087L18.8257 58.7795V58.7764Z" fill="#6CF479"/>
<path d="M52.525 72.3815C52.6332 70.0532 54.8672 62.21 55.6459 60.0021C56.542 57.4515 58.8873 56.2874 61.5787 54.9998C65.0178 53.3539 70.6663 50.6736 74.2291 49.0185C74.8533 48.7282 76.1572 48.1415 76.6424 47.9686C76.9421 49.4415 77.9371 54.3853 78.6787 59.5667C70.8517 64.0967 58.3806 71.1803 53.3408 74.0397C53.0874 74.1817 52.9082 74.1601 52.7815 74.0274C52.4169 73.6475 52.5003 72.857 52.5219 72.3784L52.525 72.3815Z" fill="#6CF479"/>
<path d="M78.0052 47.5088C78.2555 47.376 80.0817 46.5639 80.2794 46.4682C81.9171 45.6838 86.7993 43.3741 88.7027 44.4456C90.6061 45.5171 93.384 50.8715 92.0399 51.5941C91.7896 51.7886 85.449 55.5188 85.1894 55.7133C84.556 56.1333 82.7329 57.214 80.2393 58.6653C79.9951 57.3591 79.3246 53.28 78.0083 47.5088H78.0052Z" fill="#6CF479"/>
<path d="M49.1631 68.5279C50.359 67.4163 51.2334 67.2125 52.111 67.2125C53.4768 67.2125 54.3358 67.5027 55.3709 68.1697C56.6872 69.0189 58.6556 70.6339 59.5455 71.9493C60.4354 73.2647 58.9708 74.5092 57.9943 74.9816C56.712 75.6054 55.167 75.5158 53.8136 75.2132C52.5621 74.9353 51.2983 74.5833 50.1581 73.9873C49.3516 73.5674 48.5204 72.9467 48.2083 72.045C47.9426 71.2792 48.1713 69.4512 49.1662 68.5279H49.1631Z" fill="#6CF379"/>
<path d="M16.1004 77.94C17.1942 78.2271 20.7508 81.6825 28.7755 81.3274C34.5167 81.0742 41.0365 76.5844 41.0365 76.5844C41.0365 76.5844 34.8535 78.8386 28.1915 79.1628C20.4603 79.5395 16.1004 77.94 16.1004 77.94Z" fill="white"/>
<path d="M15.056 61.8457C15.056 61.8457 10.9061 64.4674 9.56506 66.3942C6.7748 70.4085 10.7022 74.1386 10.7022 74.1386C10.7022 74.1386 10.3746 70.569 11.521 67.3144C12.2564 65.227 15.0529 61.8488 15.0529 61.8488L15.056 61.8457Z" fill="white"/>
<path d="M27.6954 92.6243C29.1152 91.8967 29.5339 89.8798 28.6306 88.1195C27.7272 86.3593 25.8439 85.5221 24.4241 86.2497C23.0043 86.9774 22.5856 88.9942 23.489 90.7545C24.3923 92.5148 26.2756 93.3519 27.6954 92.6243Z" fill="#6CF379"/>
<path d="M5.46547 78.6163C6.88528 77.8887 7.30397 75.8718 6.40063 74.1115C5.4973 72.3513 3.61402 71.5141 2.19421 72.2418C0.774395 72.9694 0.355706 74.9862 1.25904 76.7465C2.16237 78.5068 4.04566 79.3439 5.46547 78.6163Z" fill="#6CF379"/>
<path d="M49.7542 68.0334C48.7829 70.5971 49.8287 71.5977 52.5313 72.7028C56.3205 74.2515 58.5637 73.6309 59.8196 72.7527C59.8477 73.748 58.7682 74.6072 57.9943 74.9816C56.712 75.6054 55.167 75.5158 53.8136 75.2132C52.5621 74.9353 51.2983 74.5833 50.1581 73.9873C49.3516 73.5674 48.5204 72.9467 48.2083 72.045C47.9426 71.2792 48.1713 69.4512 49.1662 68.5279H49.1631C49.3618 68.3433 49.552 68.1844 49.7344 68.0466L49.7542 68.0334Z" fill="black"/>
<path d="M49.7598 68.0306L49.7542 68.0334L49.7561 68.0306H49.7598Z" fill="black"/>
<path d="M21.1865 57.3282L28.3305 46.1717C28.3305 46.1717 30.0918 47.6755 31.3093 48.6667C34.0841 50.9209 41.5989 54.7468 41.3332 54.5182C41.3332 54.5182 34.2355 52.1035 29.5325 52.7087C24.8296 53.314 21.1834 57.3282 21.1834 57.3282H21.1865Z" fill="white"/>
<path d="M72.7491 50.6892C72.7491 50.6892 59.3045 56.6242 57.6947 58.8814C55.921 61.3641 54.6016 67.4102 54.6016 67.4102C54.6016 67.4102 58.3683 61.6605 61.1616 58.8814C65.8337 54.2341 72.7522 50.6892 72.7522 50.6892H72.7491Z" fill="white"/>
<path d="M83.7216 46.1687L79.167 47.9658L80.6841 56.3371C80.6841 56.3371 80.4215 51.8504 81.4443 49.6086C82.4671 47.3668 83.7216 46.1687 83.7216 46.1687Z" fill="white"/>
</g>
<defs>
<clipPath id="clip0_15980_10525">
<rect width="100" height="100" fill="white"/>
</clipPath>
</defs>
</svg>
