<svg width="100" height="100" viewBox="0 0 100 100" fill="none" xmlns="http://www.w3.org/2000/svg">
<g clip-path="url(#clip0_15980_2059)">
<rect width="100" height="100" fill="#C7FFC6"/>
<path d="M16.6348 52.2397C27.5156 48.5386 39.1345 46.4656 51.2591 46.4656C63.3836 46.4656 75.0127 48.5386 85.8934 52.2397C87.4406 52.7655 88.6743 53.8576 89.4226 55.2329L82.8395 40.8735C81.98 39.3972 80.6047 38.2444 78.9059 37.6882C70.1891 34.8669 60.9162 33.2894 51.2591 33.2894C41.6019 33.2894 32.329 34.8669 23.6122 37.6882C21.9033 38.2444 20.5381 39.3972 19.6786 40.8735L13.0955 55.2329C13.8539 53.8576 15.0775 52.7655 16.6247 52.2397H16.6348Z" fill="#006A4D"/>
<path d="M90.252 58.3781C90.252 55.6174 88.5024 53.1296 85.8934 52.2397C75.0127 48.5386 63.3937 46.4656 51.2591 46.4656C39.1244 46.4656 27.5055 48.5386 16.6348 52.2397C14.0157 53.1296 12.2867 55.6174 12.2867 58.3781V94.8023C12.2867 97.6742 14.6126 100 17.4844 100H85.0544C87.9262 100 90.252 97.6742 90.252 94.8023V58.3781Z" fill="#11B67A"/>
<path d="M12.2769 94.7922C12.2769 94.7922 12.7825 97.5124 17.515 97.5124H86.6927V99.9899H17.2622C17.2622 99.9899 12.5196 100.051 12.2769 94.7922Z" fill="black"/>
<path d="M19.6786 40.8735L13.0955 55.2329C13.8539 53.8576 15.0775 52.7655 16.6247 52.2397C21.0842 50.7228 25.6748 49.4997 30.3669 48.5593C41.5712 43.3919 36.0297 37.4257 44.1397 33.5831C37.0308 34.1595 30.1646 35.5752 23.6119 37.6988C21.9029 38.2549 20.5378 39.4077 19.6782 40.8841L19.6786 40.8735Z" fill="black"/>
<path d="M70.9169 41.4502C68.3888 41.8648 66.1641 42.3502 64.4956 42.7446C64.0102 42.8659 64.1013 43.5738 64.6069 43.5839C71.0382 43.6648 73.8697 43.9783 73.8697 43.9783V41.2176L70.9169 41.4502Z" fill="black"/>
<path d="M76.9033 43.1288V29.9728C76.9033 15.8864 65.436 4.41916 51.3496 4.41916C37.2633 4.41916 25.7961 15.8864 25.7961 29.9728V43.1692C25.8365 43.9074 27.1713 44.2714 28.8196 43.9883C30.4881 43.695 31.8533 42.8456 31.8533 42.0872V29.9728C31.8533 19.2235 40.6004 10.4865 51.3395 10.4865C62.0787 10.4865 70.8258 19.2336 70.8258 29.9728V42.0872C70.8258 42.8456 72.1909 43.7052 73.8595 43.9883C75.5078 44.2714 76.8527 43.867 76.9033 43.1288Z" fill="white"/>
<path d="M26.9076 43.9984C26.9076 43.9984 27.8784 44.231 29.0615 43.9276V30.9941C29.0615 30.9941 27.9088 14.2684 42.4906 7.16966C42.4906 7.16966 26.9076 12.1247 26.9076 30.9941V43.9984Z" fill="black"/>
<path d="M60.5713 10.9716C73.5453 17.2918 72.5138 32.1668 72.5138 32.1668V43.6038C73.4947 43.9981 74.4352 44.0487 74.4352 44.0487V32.177C74.4352 15.3907 60.5713 10.9817 60.5713 10.9817V10.9716Z" fill="black"/>
<path d="M5.12691 23.046C5.12691 23.046 6.81566 28.628 13.6414 30.165C13.6414 30.165 8.46395 31.0549 8.36283 37.2638C8.36283 37.2638 6.54261 31.8841 0 30.1549C0 30.1549 5.47072 29.5078 5.12691 23.0359V23.046Z" fill="#11B67A"/>
<path d="M86.8038 0C86.8038 0 89.4128 8.64595 99.9902 11.0426C99.9902 11.0426 91.9712 12.4279 91.8195 22.0447C91.8195 22.0447 88.9982 13.7021 78.8556 11.0324C78.8556 11.0324 87.3296 10.0313 86.8038 0Z" fill="#11B67A"/>
<path d="M70.0567 61.4726C70.3904 61.9681 70.6938 62.4737 70.987 62.9895H90.2811V61.4726H70.0567Z" fill="#00482F"/>
<path d="M73.5057 69.6631H90.2819V68.1463H73.1417C73.2833 68.6418 73.4046 69.1474 73.5158 69.6631H73.5057Z" fill="#00482F"/>
<path d="M90.2713 76.3279V74.8111H73.9603C73.9502 75.3167 73.9198 75.8223 73.8794 76.3279H90.2713Z" fill="#00482F"/>
<path d="M72.2924 83.0016H90.2821V81.4848H72.8486C72.6767 82.0005 72.4947 82.5061 72.2924 83.0016Z" fill="#00482F"/>
<path d="M68.1251 89.6753H90.281V88.1584H69.379C68.9846 88.6843 68.57 89.1899 68.1352 89.6753H68.1251Z" fill="#00482F"/>
<path d="M31.8932 61.4726H12.2452V62.9895H30.9629C31.2561 62.4737 31.5696 61.9681 31.8932 61.4726Z" fill="#00482F"/>
<path d="M28.8092 68.1463H12.2353V69.6631H28.4351C28.5362 69.1474 28.6677 68.6418 28.8092 68.1463Z" fill="#00482F"/>
<path d="M27.9699 74.8111H12.2353V76.3279H28.0508C28.0104 75.8223 27.98 75.3167 27.9699 74.8111Z" fill="#00482F"/>
<path d="M29.0924 81.4848H12.2353V83.0016H29.6485C29.4463 82.5061 29.2643 82.0005 29.0924 81.4848Z" fill="#00482F"/>
<path d="M12.2353 88.1584V89.6753H33.8148C33.3799 89.1899 32.9653 88.6843 32.571 88.1584H12.2353Z" fill="#00482F"/>
<path d="M37.8576 79.1838C38.2546 79.1838 38.5763 79.5167 38.5763 79.9279V83.2209C38.5763 85.021 39.9907 86.4865 41.7287 86.4865H44.9084C45.3054 86.4865 45.6271 86.8195 45.6271 87.2307C45.6271 87.6419 45.3054 87.9748 44.9084 87.9748H41.7287C39.1978 87.9747 37.1388 85.8422 37.1388 83.2209V79.9279C37.1388 79.5168 37.4606 79.1839 37.8576 79.1838Z" fill="black"/>
<path d="M64.7336 79.1838C65.1305 79.1839 65.4523 79.5168 65.4523 79.9279V83.2209C65.4523 85.8422 63.3933 87.9748 60.8625 87.9748H57.6828C57.2858 87.9748 56.964 87.6419 56.964 87.2307C56.964 86.8195 57.2857 86.4865 57.6828 86.4865H60.8625C62.6005 86.4865 64.0148 85.021 64.0148 83.2209V79.9279C64.0148 79.5167 64.3365 79.1838 64.7336 79.1838Z" fill="black"/>
<path d="M55.2443 79.1897C55.5472 78.9003 56.0193 78.92 56.299 79.2336C56.5786 79.5473 56.5598 80.0367 56.257 80.3264C54.9026 81.6219 53.1408 82.3351 51.2961 82.3352C49.4512 82.3352 47.6886 81.6221 46.3341 80.3264C46.0314 80.0367 46.0127 79.5473 46.2922 79.2336C46.5719 78.9199 47.0449 78.8999 47.3478 79.1897C48.4256 80.2208 49.8278 80.7893 51.2961 80.7893C52.7642 80.7892 54.1666 80.2207 55.2443 79.1897Z" fill="black"/>
<path d="M52.0441 68.9328C52.4563 68.933 52.7902 69.2793 52.7902 69.7063V75.2043C52.7902 76.2939 51.934 77.1809 50.882 77.1809H50.2746C49.8623 77.1809 49.5275 76.8344 49.5275 76.4074C49.5275 75.9804 49.8622 75.634 50.2746 75.634H50.882C51.1107 75.634 51.297 75.4412 51.297 75.2043V69.7063C51.297 69.2792 51.6318 68.9328 52.0441 68.9328Z" fill="black"/>
<path d="M45.5304 68.9328C45.9198 68.9329 46.2355 69.26 46.2355 69.6633V71.8684C46.2354 72.2716 45.9198 72.5988 45.5304 72.5988C45.1411 72.5988 44.8254 72.2716 44.8254 71.8684V69.6633C44.8254 69.26 45.141 68.9328 45.5304 68.9328Z" fill="black"/>
<path d="M57.2287 68.9328C57.618 68.933 57.9338 69.2601 57.9338 69.6633V71.8684C57.9337 72.2715 57.6179 72.5987 57.2287 72.5988C56.8393 72.5988 56.5237 72.2716 56.5236 71.8684V69.6633C56.5236 69.26 56.8393 68.9328 57.2287 68.9328Z" fill="black"/>
<path d="M44.9084 58.6506C45.3053 58.6506 45.6269 58.9837 45.6271 59.3947C45.6271 59.806 45.3054 60.1399 44.9084 60.1399H41.7287C39.9907 60.1399 38.5763 61.6044 38.5763 63.4045V66.6975C38.5763 67.1087 38.2546 67.4426 37.8576 67.4426C37.4606 67.4425 37.1388 67.1086 37.1388 66.6975V63.4045C37.1388 60.7832 39.1978 58.6507 41.7287 58.6506H44.9084Z" fill="black"/>
<path d="M60.8625 58.6506C63.3933 58.6507 65.4523 60.7832 65.4523 63.4045V66.6975C65.4523 67.1087 65.1305 67.4425 64.7336 67.4426C64.3365 67.4426 64.0148 67.1087 64.0148 66.6975V63.4045C64.0148 61.6044 62.6005 60.1399 60.8625 60.1399H57.6828C57.2857 60.1399 56.964 59.806 56.964 59.3947C56.9643 58.9837 57.2859 58.6506 57.6828 58.6506H60.8625Z" fill="black"/>
</g>
<defs>
<clipPath id="clip0_15980_2059">
<rect width="100" height="100" fill="white"/>
</clipPath>
</defs>
</svg>
