<svg width="100" height="100" viewBox="0 0 100 100" fill="none" xmlns="http://www.w3.org/2000/svg">
<g clip-path="url(#clip0_15980_10582)">
<rect width="100" height="100" fill="#C7FFC6"/>
<path d="M84.5866 80.552H0.0332031V84.7601H84.5866V80.552Z" fill="black"/>
<path d="M73.1611 59.8488H11.4676L0.296922 83.6546C-0.544701 85.4423 0.772992 87.5 2.76228 87.5H81.8664C83.8557 87.5 85.1734 85.4508 84.3317 83.6546L73.1611 59.8488Z" fill="black"/>
<path d="M73.1611 55.6917H11.4676L0.296922 79.4975C-0.544701 81.2852 0.772992 83.3429 2.76228 83.3429H81.8664C83.8557 83.3429 85.1734 81.2937 84.3317 79.4975L73.1611 55.6917Z" fill="#6CF479"/>
<path d="M14.3238 12.5H70.296C71.8007 12.5 73.0164 13.7143 73.0164 15.1985V54.1243H11.6034V15.1985C11.6034 13.7059 12.8276 12.5 14.3238 12.5Z" fill="#11B67A"/>
<path d="M42.3101 18.0056C42.911 18.0056 43.3982 17.5223 43.3982 16.9261C43.3982 16.33 42.911 15.8468 42.3101 15.8468C41.7091 15.8468 41.2219 16.33 41.2219 16.9261C41.2219 17.5223 41.7091 18.0056 42.3101 18.0056Z" fill="#6CF479"/>
<path d="M75.9834 70.5097L71.1887 60.4494C70.8911 59.8169 70.2535 59.4206 69.5479 59.4206H15.0805C14.3749 59.4206 13.7373 59.8254 13.4397 60.4494L8.64501 70.5097C8.21995 71.4036 8.87455 72.4408 9.87769 72.4408H25.2224C25.775 72.4408 26.2086 72.93 26.1236 73.4781L25.945 74.5996C25.8175 75.4176 26.4551 76.1597 27.2882 76.1597H57.3316C58.1648 76.1597 58.8024 75.4176 58.6748 74.5996L58.4963 73.4781C58.4113 72.93 58.8364 72.4408 59.3974 72.4408H74.7422C75.7453 72.4408 76.3999 71.4121 75.9749 70.5097H75.9834Z" fill="black"/>
<path d="M66.4364 24.4904H53.9991C53.0601 24.4904 52.2988 25.2455 52.2988 26.1769V43.1437C52.2988 44.0752 53.0601 44.8303 53.9991 44.8303H66.4364C67.3754 44.8303 68.1367 44.0752 68.1367 43.1437V26.1769C68.1367 25.2455 67.3754 24.4904 66.4364 24.4904Z" fill="#00482F"/>
<path d="M99.9994 71.9274C99.8209 73.926 98.5117 76.5908 93.615 76.5908C90.682 76.5908 88.0467 75.2078 86.7885 72.6105L83.235 65.2572C83.0819 64.9452 83.0394 64.5825 83.0989 64.2199L83.32 63.0309C83.4305 62.4069 83.8811 61.9009 84.4506 61.631C86.1169 60.8552 88.7948 60.3155 91.8127 60.7455C93.3854 60.9648 94.8137 61.7153 95.8678 62.8706C97.6276 64.7849 100.305 68.3435 99.9909 71.9274H99.9994Z" fill="#11B67A"/>
<path d="M100.033 71.3191C99.2426 74.4645 95.9866 75.1307 93.0367 74.9368C92.093 74.8777 91.0219 74.5741 90.3503 74.2368C89.1346 73.638 88.191 72.6262 87.5619 71.4371L83.7618 64.2355C83.2347 63.1898 83.6173 62.3128 83.6173 62.3128C83.6173 62.3128 83.3878 62.6249 83.3283 63.0212L83.1072 64.2102C83.0392 64.5728 83.0902 64.9355 83.2432 65.2475L86.7968 72.6009C88.0549 75.1982 90.6903 76.5811 93.6233 76.5811C98.5115 76.5811 100.033 73.9754 100.033 71.3106V71.3191Z" fill="black"/>
<path d="M95.7147 64.0257C95.7147 64.0257 97.6615 66.1676 98.5882 69.1023C99.1577 70.9237 98.1206 72.8886 96.2673 73.3945C95.6042 73.58 94.7881 73.7066 93.7765 73.7403C93.7765 73.7403 99.8123 71.0755 95.7147 64.0257Z" fill="white"/>
<path d="M65.0933 38.1108C64.7873 37.0061 64.3027 36.5929 63.3675 36.2893L61.9988 35.8087C61.8798 35.9014 61.7608 36.0026 61.6333 36.0785C61.1657 36.3568 60.6812 36.5001 60.2051 36.5001C59.729 36.5001 59.2444 36.3568 58.7769 36.0785C58.6494 36.0026 58.5303 35.9014 58.4028 35.8087L57.0341 36.2893C56.1075 36.5929 55.6144 37.0061 55.3084 38.1108L54.9343 39.6119H65.4589L65.0848 38.1108H65.0933ZM59.4315 34.9907C59.661 35.1256 59.9245 35.2352 60.2136 35.2352C60.5026 35.2352 60.7662 35.1341 60.9957 34.9907C61.5143 34.6871 61.8883 34.1812 62.1009 33.6162C62.3474 32.9331 62.3729 32.3259 62.3729 32.3259C62.4409 30.7659 61.4038 29.9816 60.2221 29.9816C59.0404 29.9816 58.0033 30.7659 58.0713 32.3259C58.0713 32.3259 58.0883 32.9331 58.3433 33.6162C58.5473 34.1812 58.9214 34.6787 59.4485 34.9907H59.4315Z" fill="white"/>
<path d="M48.3202 24.4904H35.8829C34.9439 24.4904 34.1826 25.2455 34.1826 26.1769V43.1437C34.1826 44.0752 34.9439 44.8303 35.8829 44.8303H48.3202C49.2592 44.8303 50.0205 44.0752 50.0205 43.1437V26.1769C50.0205 25.2455 49.2592 24.4904 48.3202 24.4904Z" fill="#00482F"/>
<path d="M46.9854 38.1108C46.6794 37.0061 46.1948 36.5929 45.2596 36.2893L43.8909 35.8087C43.7719 35.9014 43.6529 36.0026 43.5254 36.0785C43.0578 36.3568 42.5733 36.5001 42.0972 36.5001C41.6211 36.5001 41.1365 36.3568 40.669 36.0785C40.5415 36.0026 40.4224 35.9014 40.2949 35.8087L38.9262 36.2893C37.9996 36.5929 37.5065 37.0061 37.2005 38.1108L36.8264 39.6119H47.351L46.9769 38.1108H46.9854ZM41.3151 34.9907C41.5446 35.1256 41.8081 35.2352 42.0972 35.2352C42.3862 35.2352 42.6498 35.1341 42.8793 34.9907C43.3979 34.6871 43.7719 34.1812 43.9845 33.6162C44.231 32.9331 44.2565 32.3259 44.2565 32.3259C44.3245 30.7659 43.2874 29.9816 42.1057 29.9816C40.924 29.9816 39.8869 30.7659 39.9549 32.3259C39.9549 32.3259 39.9719 32.9331 40.2269 33.6162C40.4309 34.1812 40.805 34.6787 41.3321 34.9907H41.3151Z" fill="white"/>
<path d="M30.204 24.4904H17.7667C16.8277 24.4904 16.0664 25.2455 16.0664 26.1769V43.1437C16.0664 44.0752 16.8277 44.8303 17.7667 44.8303H30.204C31.143 44.8303 31.9043 44.0752 31.9043 43.1437V26.1769C31.9043 25.2455 31.143 24.4904 30.204 24.4904Z" fill="#6CF479"/>
<path d="M28.8692 38.1108C28.5631 37.0061 28.0786 36.5929 27.1434 36.2893L25.7747 35.8087C25.6557 35.9014 25.5367 36.0026 25.4092 36.0785C24.9416 36.3568 24.457 36.5001 23.981 36.5001C23.5049 36.5001 23.0203 36.3568 22.5528 36.0785C22.4253 36.0026 22.3062 35.9014 22.1787 35.8087L20.81 36.2893C19.8834 36.5929 19.3903 37.0061 19.0843 38.1108L18.7102 39.6119H29.2347L28.8607 38.1108H28.8692ZM23.1989 34.9907C23.4284 35.1256 23.6919 35.2352 23.981 35.2352C24.27 35.2352 24.5336 35.1341 24.7631 34.9907C25.2817 34.6871 25.6557 34.1812 25.8683 33.6162C26.1148 32.9331 26.1403 32.3259 26.1403 32.3259C26.2083 30.7659 25.1712 29.9816 23.9895 29.9816C22.8078 29.9816 21.7707 30.7659 21.8387 32.3259C21.8387 32.3259 21.8557 32.9331 22.1107 33.6162C22.3147 34.1812 22.6888 34.6787 23.2159 34.9907H23.1989Z" fill="black"/>
</g>
<defs>
<clipPath id="clip0_15980_10582">
<rect width="100" height="100" fill="white"/>
</clipPath>
</defs>
</svg>
