<svg width="100" height="100" viewBox="0 0 100 100" fill="none" xmlns="http://www.w3.org/2000/svg">
<g clip-path="url(#clip0_15980_10584)">
<rect width="100" height="100" fill="#C7FFC6"/>
<path d="M84.5876 80.552H0.0341797V84.7601H84.5876V80.552Z" fill="black"/>
<path d="M73.1621 59.8488H11.4685L0.297899 83.6546C-0.543724 85.4423 0.773969 87.5 2.76326 87.5H81.8673C83.8566 87.5 85.1743 85.4508 84.3327 83.6546L73.1621 59.8488Z" fill="black"/>
<path d="M73.1621 55.6917H11.4685L0.297899 79.4975C-0.543724 81.2852 0.773969 83.3429 2.76326 83.3429H81.8673C83.8566 83.3429 85.1743 81.2937 84.3327 79.4975L73.1621 55.6917Z" fill="#6CF479"/>
<path d="M14.3248 12.5H70.297C71.8017 12.5 73.0174 13.7143 73.0174 15.1985V54.1243H11.6044V15.1985C11.6044 13.7059 12.8286 12.5 14.3248 12.5Z" fill="#11B67A"/>
<path d="M42.311 18.0056C42.912 18.0056 43.3992 17.5223 43.3992 16.9261C43.3992 16.33 42.912 15.8468 42.311 15.8468C41.7101 15.8468 41.2229 16.33 41.2229 16.9261C41.2229 17.5223 41.7101 18.0056 42.311 18.0056Z" fill="#6CF479"/>
<path d="M75.9843 70.5097L71.1896 60.4494C70.8921 59.8169 70.2545 59.4206 69.5489 59.4206H15.0814C14.3758 59.4206 13.7382 59.8254 13.4407 60.4494L8.64599 70.5097C8.22093 71.4036 8.87552 72.4408 9.87867 72.4408H25.2234C25.776 72.4408 26.2096 72.93 26.1245 73.4781L25.946 74.5996C25.8185 75.4176 26.4561 76.1597 27.2892 76.1597H57.3326C58.1657 76.1597 58.8033 75.4176 58.6758 74.5996L58.4973 73.4781C58.4123 72.93 58.8373 72.4408 59.3984 72.4408H74.7432C75.7463 72.4408 76.4009 71.4121 75.9759 70.5097H75.9843Z" fill="black"/>
<path d="M66.4374 24.4904H54.0001C53.061 24.4904 52.2998 25.2455 52.2998 26.1769V43.1437C52.2998 44.0752 53.061 44.8303 54.0001 44.8303H66.4374C67.3764 44.8303 68.1376 44.0752 68.1376 43.1437V26.1769C68.1376 25.2455 67.3764 24.4904 66.4374 24.4904Z" fill="#00482F"/>
<path d="M100 71.9274C99.8219 73.926 98.5127 76.5908 93.616 76.5908C90.683 76.5908 88.0476 75.2078 86.7895 72.6105L83.2359 65.2572C83.0829 64.9452 83.0404 64.5825 83.0999 64.2199L83.3209 63.0309C83.4315 62.4069 83.882 61.9009 84.4516 61.631C86.1179 60.8552 88.7957 60.3155 91.8137 60.7455C93.3864 60.9648 94.8146 61.7153 95.8688 62.8706C97.6285 64.7849 100.306 68.3435 99.9919 71.9274H100Z" fill="#11B67A"/>
<path d="M100.034 71.3191C99.2436 74.4645 95.9876 75.1307 93.0377 74.9368C92.094 74.8777 91.0229 74.5741 90.3513 74.2368C89.1356 73.638 88.1919 72.6262 87.5629 71.4371L83.7628 64.2355C83.2357 63.1898 83.6183 62.3128 83.6183 62.3128C83.6183 62.3128 83.3887 62.6249 83.3292 63.0212L83.1082 64.2102C83.0402 64.5728 83.0912 64.9355 83.2442 65.2475L86.7977 72.6009C88.0559 75.1982 90.6913 76.5811 93.6242 76.5811C98.5125 76.5811 100.034 73.9754 100.034 71.3106V71.3191Z" fill="black"/>
<path d="M95.7157 64.0257C95.7157 64.0257 97.6625 66.1676 98.5891 69.1023C99.1587 70.9237 98.1216 72.8886 96.2683 73.3945C95.6052 73.58 94.7891 73.7066 93.7774 73.7403C93.7774 73.7403 99.8133 71.0755 95.7157 64.0257Z" fill="white"/>
<path d="M65.0943 38.1108C64.7882 37.0061 64.3037 36.5929 63.3685 36.2893L61.9998 35.8087C61.8808 35.9014 61.7618 36.0026 61.6343 36.0785C61.1667 36.3568 60.6821 36.5001 60.2061 36.5001C59.73 36.5001 59.2454 36.3568 58.7778 36.0785C58.6503 36.0026 58.5313 35.9014 58.4038 35.8087L57.0351 36.2893C56.1085 36.5929 55.6154 37.0061 55.3093 38.1108L54.9353 39.6119H65.4598L65.0858 38.1108H65.0943ZM59.4324 34.9907C59.662 35.1256 59.9255 35.2352 60.2146 35.2352C60.5036 35.2352 60.7671 35.1341 60.9967 34.9907C61.5153 34.6871 61.8893 34.1812 62.1018 33.6162C62.3484 32.9331 62.3739 32.3259 62.3739 32.3259C62.4419 30.7659 61.4047 29.9816 60.2231 29.9816C59.0414 29.9816 58.0042 30.7659 58.0722 32.3259C58.0722 32.3259 58.0892 32.9331 58.3443 33.6162C58.5483 34.1812 58.9224 34.6787 59.4494 34.9907H59.4324Z" fill="white"/>
<path d="M48.3212 24.4904H35.8839C34.9448 24.4904 34.1836 25.2455 34.1836 26.1769V43.1437C34.1836 44.0752 34.9448 44.8303 35.8839 44.8303H48.3212C49.2602 44.8303 50.0214 44.0752 50.0214 43.1437V26.1769C50.0214 25.2455 49.2602 24.4904 48.3212 24.4904Z" fill="#00482F"/>
<path d="M46.9864 38.1108C46.6803 37.0061 46.1958 36.5929 45.2606 36.2893L43.8919 35.8087C43.7729 35.9014 43.6539 36.0026 43.5264 36.0785C43.0588 36.3568 42.5742 36.5001 42.0982 36.5001C41.6221 36.5001 41.1375 36.3568 40.6699 36.0785C40.5424 36.0026 40.4234 35.9014 40.2959 35.8087L38.9272 36.2893C38.0006 36.5929 37.5075 37.0061 37.2014 38.1108L36.8274 39.6119H47.3519L46.9779 38.1108H46.9864ZM41.316 34.9907C41.5456 35.1256 41.8091 35.2352 42.0982 35.2352C42.3872 35.2352 42.6507 35.1341 42.8803 34.9907C43.3989 34.6871 43.7729 34.1812 43.9854 33.6162C44.232 32.9331 44.2575 32.3259 44.2575 32.3259C44.3255 30.7659 43.2883 29.9816 42.1067 29.9816C40.925 29.9816 39.8878 30.7659 39.9558 32.3259C39.9558 32.3259 39.9728 32.9331 40.2279 33.6162C40.4319 34.1812 40.806 34.6787 41.333 34.9907H41.316Z" fill="white"/>
<path d="M30.205 24.4904H17.7677C16.8286 24.4904 16.0674 25.2455 16.0674 26.1769V43.1437C16.0674 44.0752 16.8286 44.8303 17.7677 44.8303H30.205C31.144 44.8303 31.9052 44.0752 31.9052 43.1437V26.1769C31.9052 25.2455 31.144 24.4904 30.205 24.4904Z" fill="#6CF479"/>
<path d="M28.8702 38.1108C28.5641 37.0061 28.0796 36.5929 27.1444 36.2893L25.7757 35.8087C25.6567 35.9014 25.5377 36.0026 25.4102 36.0785C24.9426 36.3568 24.458 36.5001 23.982 36.5001C23.5059 36.5001 23.0213 36.3568 22.5537 36.0785C22.4262 36.0026 22.3072 35.9014 22.1797 35.8087L20.811 36.2893C19.8844 36.5929 19.3913 37.0061 19.0852 38.1108L18.7112 39.6119H29.2357L28.8617 38.1108H28.8702ZM23.1998 34.9907C23.4294 35.1256 23.6929 35.2352 23.982 35.2352C24.271 35.2352 24.5345 35.1341 24.7641 34.9907C25.2826 34.6871 25.6567 34.1812 25.8692 33.6162C26.1158 32.9331 26.1413 32.3259 26.1413 32.3259C26.2093 30.7659 25.1721 29.9816 23.9905 29.9816C22.8088 29.9816 21.7716 30.7659 21.8396 32.3259C21.8396 32.3259 21.8566 32.9331 22.1117 33.6162C22.3157 34.1812 22.6898 34.6787 23.2168 34.9907H23.1998Z" fill="black"/>
</g>
<defs>
<clipPath id="clip0_15980_10584">
<rect width="100" height="100" fill="white"/>
</clipPath>
</defs>
</svg>
