<svg width="100" height="100" viewBox="0 0 100 100" fill="none" xmlns="http://www.w3.org/2000/svg">
<g clip-path="url(#clip0_15980_10668)">
<rect width="100" height="100" fill="#C7FFC6"/>
<path d="M43.7233 80.5115L8.29473 59.95C7.77899 59.6256 7.24578 59.4502 6.74753 59.4502C6.15311 59.4502 5.63736 59.687 5.22652 60.1692C4.55343 60.9496 4.27372 62.2297 4.47477 63.5976C4.72827 65.3425 5.73352 66.9821 7.03598 67.78L43.094 88.7186C43.9244 89.2008 44.9733 89.0518 45.6289 88.3503L89.4055 42.1943L89.0034 35.0745L46.2496 80.1433C45.594 80.8359 44.545 80.9938 43.7146 80.5115H43.7233Z" fill="white"/>
<path d="M45.935 90.9561C45.227 91.7014 44.1081 91.8592 43.2252 91.3507L4.68468 68.9741C3.29481 68.1236 2.21963 66.37 1.94864 64.5023C1.73885 63.038 2.03607 61.6702 2.75286 60.8372C3.18992 60.3286 3.73187 60.0744 4.37873 60.0744C4.91195 60.0744 5.48015 60.2585 6.03086 60.6092L43.8983 82.5824C44.7812 83.0998 45.9 82.9332 46.6081 82.1879L94.4843 31.7179C95.2274 30.9375 95.0438 29.6661 94.1172 29.1313L56.7306 7.41232C54.519 6.12339 51.7218 6.52673 49.956 8.3856C38.9594 19.9772 1.49412 59.4957 1.42419 59.5658L1.38921 59.6096C0.340254 60.8109 -0.184236 62.6785 0.12171 64.7829C0.488846 67.2906 1.92242 69.4651 3.72313 70.5699L43.5574 93.7006C44.4402 94.2179 45.5591 94.0513 46.2672 93.306L94.5193 42.4327C95.2011 41.7137 95.0962 40.565 94.3008 39.9776L45.935 90.9736V90.9561Z" fill="#11B67A"/>
<path d="M92.4825 51.3395L84.5978 33.4084L75.9089 13.7413C75.6292 13.11 74.9474 12.6628 74.3005 12.6628C74.2131 12.6628 74.1257 12.6628 74.0383 12.6891L43.8283 19.0899L20.2442 18.1429V24.6928C20.2442 25.0698 20.3228 25.2803 20.4015 25.4644L24.5886 34.899L18.3648 41.6769C18.9242 41.1859 19.4138 41.1508 19.8333 41.2297C20.6113 41.3875 20.9347 42.0714 20.9347 42.0714L34.5974 74.4701C34.9209 75.2417 35.7425 75.6713 36.5555 75.5047L95.8916 62.7645C96.5997 62.6154 96.9231 62.1069 96.8881 61.2563V55.1361L92.4825 51.3219V51.3395Z" fill="black"/>
<path d="M89.2657 37.5141L96.8007 54.5069C97.1154 55.2259 96.8007 55.9274 96.0839 56.0765L43.3212 67.5015C43.2338 67.519 43.1377 67.5278 43.0503 67.5278C42.3947 67.5278 41.7128 67.0894 41.4331 66.458L34.4226 50.5525L89.2744 37.5141H89.2657Z" fill="#00482F"/>
<path d="M89.2658 37.5131L75.9003 7.07849C75.6206 6.44718 74.9387 6 74.2919 6C74.2045 6 74.1171 6 74.0297 6.0263L21.1359 17.2321C20.4103 17.3724 20.0782 18.0826 20.4016 18.8104L34.2828 50.604C34.2828 50.604 38.7234 59.723 47.9892 61.9852C49.3267 62.3096 50.734 62.2658 52.0802 61.9764L99.1697 51.7614C100.096 51.5598 100.35 50.3673 99.5806 49.8149C96.7921 47.8157 91.9669 43.6771 89.2658 37.5131Z" fill="#6CF479"/>
<path d="M5.75116 12.4624C5.75116 12.4624 6.9662 16.5046 11.8963 17.6182C11.8963 17.6182 8.16378 18.267 8.08511 22.7651C8.08511 22.7651 6.7739 18.8633 2.04485 17.6182C2.04485 17.6182 5.99592 17.1447 5.75116 12.4624Z" fill="#006A4D"/>
<path d="M78.1818 64.5206C78.1818 64.5206 80.4895 72.2016 89.8602 74.3235C89.8602 74.3235 82.7622 75.5511 82.6224 84.1001C82.6224 84.1001 80.1224 76.6909 71.145 74.3148C71.145 74.3148 78.6451 73.4204 78.1818 64.5206Z" fill="#006A4D"/>
</g>
<defs>
<clipPath id="clip0_15980_10668">
<rect width="100" height="100" fill="white"/>
</clipPath>
</defs>
</svg>
