<svg width="100" height="100" viewBox="0 0 100 100" fill="none" xmlns="http://www.w3.org/2000/svg">
<g clip-path="url(#clip0_15980_10682)">
<rect width="100" height="100" fill="#C7FFC6"/>
<path d="M84.4952 80.9593H0.0351562V85.2233H84.4952V80.9593Z" fill="black"/>
<path d="M73.0821 59.9808H11.4567L0.298356 84.1034C-0.542338 85.915 0.773922 88 2.76102 88H81.7778C83.7649 88 85.0812 85.9235 84.2405 84.1034L73.0821 59.9808Z" fill="black"/>
<path d="M73.0821 55.7675H11.4567L0.298356 79.8901C-0.542338 81.7016 0.773922 83.7867 2.76102 83.7867H81.7778C83.7649 83.7867 85.0812 81.7102 84.2405 79.8901L73.0821 55.7675Z" fill="#6CF479"/>
<path d="M70.2205 12C71.7235 12 72.9379 13.2305 72.9379 14.7344V54.1783H11.5842V14.7344C11.5842 13.222 12.807 12 14.3015 12H70.2205Z" fill="#11B67A"/>
<path d="M42.2652 17.5821C42.8656 17.5821 43.3522 17.0924 43.3522 16.4883C43.3522 15.8843 42.8656 15.3946 42.2652 15.3946C41.6649 15.3946 41.1783 15.8843 41.1783 16.4883C41.1783 17.0924 41.6649 17.5821 42.2652 17.5821Z" fill="#6CF479"/>
<path d="M75.9013 70.783L71.1119 60.5887C70.8147 59.9478 70.1778 59.5462 69.473 59.5462H15.0656C14.3608 59.5462 13.7239 59.9564 13.4267 60.5887L8.63725 70.783C8.21266 71.6888 8.86654 72.7397 9.86858 72.7397H25.1964C25.7484 72.7397 26.1814 73.2354 26.0965 73.7908L25.9182 74.9273C25.7908 75.7562 26.4277 76.5081 27.2599 76.5081H57.2702C58.1024 76.5081 58.7393 75.7562 58.6119 74.9273L58.4335 73.7908C58.3486 73.2354 58.7732 72.7397 59.3337 72.7397H74.6615C75.6635 72.7397 76.3174 71.6973 75.8928 70.783H75.9013Z" fill="black"/>
<path d="M100.035 61.478L85.6329 51.1385L87.9342 68.7925L91.9679 63.8022L98.1075 74.099L99.9078 73.0138L93.7682 62.717L100.035 61.478Z" fill="#006A4D"/>
<path d="M30.6398 35.073C31.2597 35.449 31.99 35.7395 32.7543 35.7395C33.5185 35.7395 34.2488 35.449 34.8687 35.073C36.2784 34.2271 37.2974 32.8427 37.8663 31.2875C38.5457 29.4162 38.6051 27.7329 38.6051 27.7329C38.7919 23.4347 35.9727 21.2643 32.7543 21.2643C29.5358 21.2643 26.7165 23.4262 26.9033 27.7329C26.9033 27.7329 26.9628 29.4076 27.6421 31.2875C28.2111 32.8427 29.2216 34.2271 30.6398 35.073ZM46.0525 43.6778C45.2288 40.6272 43.8955 39.4823 41.3735 38.6449L37.3398 37.2178C37.3398 37.2178 36.7369 36.9957 35.8028 36.7991C34.7838 37.3973 33.7648 37.7048 32.7628 37.7048C31.7607 37.7048 30.7332 37.3973 29.7227 36.7991C28.7886 37.0042 28.1856 37.2178 28.1856 37.2178L24.152 38.6449C21.6299 39.4823 20.2967 40.6272 19.473 43.6778L18.4539 47.8137H47.08L46.061 43.6778H46.0525Z" fill="black"/>
<path d="M65.4821 17.5044H50.995C50.057 17.5044 49.2966 18.2695 49.2966 19.2134V36.4061C49.2966 37.3499 50.057 38.1151 50.995 38.1151H65.4821C66.4201 38.1151 67.1805 37.3499 67.1805 36.4061V19.2134C67.1805 18.2695 66.4201 17.5044 65.4821 17.5044Z" fill="#00482F"/>
<path d="M64.1319 31.6359C63.7838 30.3456 63.2233 29.8671 62.1533 29.5082L60.4549 28.9015C60.4549 28.9015 60.4209 28.8929 60.37 28.8758C60.2681 28.9527 60.1747 29.0297 60.0643 29.098C59.5548 29.4056 59.0368 29.5595 58.5188 29.5595C58.0008 29.5595 57.4827 29.4056 56.9732 29.098C56.8628 29.0297 56.7694 28.9527 56.6675 28.8758C56.6166 28.8929 56.5826 28.9015 56.5826 28.9015L54.8843 29.5082C53.8228 29.8585 53.2538 30.3456 52.9056 31.6359L52.4726 33.3791H64.565L64.1319 31.6359ZM57.6186 28.0042C57.8819 28.158 58.1876 28.2863 58.5103 28.2863C58.8329 28.2863 59.1387 28.1666 59.4019 28.0042C59.9964 27.6453 60.4295 27.0643 60.6672 26.4063C60.9559 25.6116 60.9814 24.9024 60.9814 24.9024C61.0578 23.0823 59.8689 22.168 58.5103 22.168C57.1516 22.168 55.9627 23.0823 56.0391 24.9024C56.0391 24.9024 56.0646 25.6116 56.3533 26.4063C56.5911 27.0643 57.0242 27.6453 57.6186 28.0042Z" fill="white"/>
</g>
<defs>
<clipPath id="clip0_15980_10682">
<rect width="100" height="100" fill="white"/>
</clipPath>
</defs>
</svg>
