<svg width="100" height="100" viewBox="0 0 100 100" fill="none" xmlns="http://www.w3.org/2000/svg">
<g clip-path="url(#clip0_15980_10739)">
<rect width="100" height="100" fill="#C7FFC6"/>
<path d="M99.09 86.6076L86.7783 72.1964C85.8734 71.1315 85.3697 69.7836 85.3697 68.3974H85.3605V26.8393C85.3605 25.756 84.4786 24.8748 83.3945 24.8748L83.4022 24.8671H16.4804C15.3964 24.8671 14.5145 25.7484 14.5145 26.8316V68.3959H14.5099C14.5099 69.8035 14.0276 71.1499 13.1013 72.1949L0.79115 86.6076C0.247606 87.2502 -0.054023 87.3649 -0.054023 88.2095V88.9424C-0.054023 89.9277 0.74981 90.0225 1.73584 90.0225H98.1437C99.1298 90.0225 99.9336 89.9277 99.9336 88.9424V88.2095C99.9336 87.3649 99.632 87.2502 99.09 86.6076Z" fill="#11B67A"/>
<path d="M84.1094 71.9319H15.1314L9.48313 78.9944H89.7577L84.1094 71.9319Z" fill="#6CF479"/>
<path d="M65.5308 79.7732H33.7098L31.1038 85.78H68.1368L65.5308 79.7732Z" fill="#6CF479"/>
<path d="M34.1126 80.2182H63.6569C63.6569 80.2182 41.2491 80.59 32.1314 84.8098L34.1126 80.2182Z" fill="#11B67A"/>
<path d="M59.0221 74.2132C59.411 74.178 59.7938 74.1428 60.1704 74.1091H59.0007L59.0221 74.2132Z" fill="#11B67A"/>
<path d="M58.6361 72.2808L58.8596 73.4008H61.8284L61.5207 72.2808H58.6361Z" fill="#11B67A"/>
<path d="M48.1313 74.1091L48.0869 75.2107C49.2367 75.1051 50.3483 75.0026 51.4247 74.9047L51.3926 74.1091H48.1298H48.1313Z" fill="#11B67A"/>
<path d="M51.322 72.2808H48.2047L48.1603 73.4008H51.3664L51.322 72.2808Z" fill="#11B67A"/>
<path d="M55.5494 74.1091L55.5999 74.5237C56.6533 74.4274 57.6653 74.3355 58.6407 74.2483L58.6131 74.1106H55.5478L55.5494 74.1091Z" fill="#11B67A"/>
<path d="M79.0046 72.2808L79.1164 72.4491C79.9661 72.3787 80.6582 72.3237 81.2201 72.2808H79.0046Z" fill="#11B67A"/>
<path d="M54.9661 72.2808H51.6772L51.7216 73.4008H55.1038L54.9661 72.2808Z" fill="#11B67A"/>
<path d="M58.2503 72.2808H55.3228L55.4621 73.4008H58.4738L58.2503 72.2808Z" fill="#11B67A"/>
<path d="M51.7492 74.1091L51.7798 74.8726C52.9802 74.7624 54.1347 74.6569 55.2478 74.5559L55.1926 74.1091H51.7492Z" fill="#11B67A"/>
<path d="M72.5554 72.2808L72.9137 72.977C73.788 72.9005 74.5918 72.8316 75.3298 72.7689L75.042 72.2824H72.5554V72.2808Z" fill="#11B67A"/>
<path d="M69.3032 72.2808L69.7349 73.2554C70.5924 73.1805 71.3947 73.1101 72.1495 73.0428L71.7575 72.2808H69.3032Z" fill="#11B67A"/>
<path d="M65.6379 72.2808L66.0406 73.4008H68.0862C68.4705 73.3671 68.8471 73.3335 69.2131 73.3013L68.7614 72.2808H65.6379Z" fill="#11B67A"/>
<path d="M75.8671 72.2808L76.1152 72.7016C76.9313 72.6327 77.6601 72.57 78.3093 72.5165L78.1531 72.2808H75.8656H75.8671Z" fill="#11B67A"/>
<path d="M61.9618 72.2808L62.2711 73.4008H65.5385L65.1358 72.2808H61.9618Z" fill="#11B67A"/>
<path d="M41.2762 72.2808L41.0527 73.4008H44.0644L44.2037 72.2808H41.2762Z" fill="#11B67A"/>
<path d="M42.7385 75.7034C43.0922 75.6713 43.4428 75.6392 43.7904 75.607L43.9757 74.1107H40.9104L40.5919 75.7034H42.7385Z" fill="#11B67A"/>
<path d="M32.8323 76.6199C33.5902 76.5496 34.3389 76.4807 35.0754 76.4119H32.9073L32.8323 76.6199Z" fill="#11B67A"/>
<path d="M21.2831 77.6971C22.3151 77.6007 23.3302 77.5058 24.3269 77.4125L24.8414 76.4119H22.041L21.2815 77.6971H21.2831Z" fill="#11B67A"/>
<path d="M25.1662 77.3345C26.163 77.2412 27.1414 77.1509 28.1044 77.0606L28.3923 76.4134H25.6409L25.1662 77.336V77.3345Z" fill="#11B67A"/>
<path d="M28.6722 77.007C29.9124 76.8908 31.1266 76.7791 32.3132 76.6689L32.4051 76.4119H28.9356L28.6722 77.007Z" fill="#11B67A"/>
<path d="M12.1409 76.4119L11.7658 76.8816L10.4536 78.6334H11.2819C11.726 78.5921 12.1685 78.5508 12.6079 78.5095L14.1574 76.4119H12.1409Z" fill="#11B67A"/>
<path d="M37.0643 75.7034H40.2076L40.5261 74.1091H37.5022L37.0643 75.7034Z" fill="#11B67A"/>
<path d="M44.4229 73.4008H47.8051L47.8495 72.2808H44.5607L44.4229 73.4008Z" fill="#11B67A"/>
<path d="M17.2087 72.2808H15.4449L14.5492 73.4008H16.3804L17.2087 72.2808Z" fill="#11B67A"/>
<path d="M44.1534 75.5734C45.3829 75.4601 46.5771 75.35 47.7316 75.2444L47.7775 74.1107H44.3356L44.1549 75.5734H44.1534Z" fill="#11B67A"/>
<path d="M17.5518 78.0459C18.5179 77.9556 19.4718 77.8654 20.4103 77.7782L21.2172 76.4119H18.6327L17.5502 78.0459H17.5518Z" fill="#11B67A"/>
<path d="M37.565 72.2808H34.391L33.9898 73.4008H37.2557L37.565 72.2808Z" fill="#11B67A"/>
<path d="M15.0391 76.4119L13.5555 78.4208C14.6012 78.3228 15.6301 78.2265 16.6437 78.1316L17.7829 76.4134H15.0376L15.0391 76.4119Z" fill="#11B67A"/>
<path d="M30.2232 72.2808H27.7689L27.1932 73.4008H29.7271L30.2232 72.2808Z" fill="#11B67A"/>
<path d="M29.4133 74.1091H26.8273L26.0066 75.7034H28.7059L29.4133 74.1091Z" fill="#11B67A"/>
<path d="M33.1613 75.7034H36.6217L37.0611 74.1091H33.734L33.1613 75.7034Z" fill="#11B67A"/>
<path d="M40.8905 72.2808H38.0058L37.6981 73.4008H40.6669L40.8905 72.2808Z" fill="#11B67A"/>
<path d="M26.9712 72.2808H24.4847L23.8217 73.4008H26.394L26.9712 72.2808Z" fill="#11B67A"/>
<path d="M33.8887 72.2808H30.7668L30.2707 73.4008H33.486L33.8887 72.2808Z" fill="#11B67A"/>
<path d="M29.9553 74.1091L29.2494 75.7034H32.6592L33.2318 74.1091H29.9553Z" fill="#11B67A"/>
<path d="M20.5222 72.2808H18.0908L17.2625 73.4008H19.7796L20.5222 72.2808Z" fill="#11B67A"/>
<path d="M15.563 75.7034H18.2531L19.3096 74.1091H16.7389L15.563 75.7034Z" fill="#11B67A"/>
<path d="M26.0297 74.1091H23.4039L22.4623 75.7034H25.2091L26.0297 74.1091Z" fill="#11B67A"/>
<path d="M15.857 74.1091H13.983L12.7076 75.7034H14.6812L15.857 74.1091Z" fill="#11B67A"/>
<path d="M22.5785 74.1091H20.1609L19.1045 75.7034H21.6369L22.5785 74.1091Z" fill="#11B67A"/>
<path d="M23.6593 72.2808H21.3733L20.6307 73.4008H22.9978L23.6593 72.2808Z" fill="#11B67A"/>
<path d="M-0.0664062 87.7889V88.9946C-0.0664062 89.9799 0.737427 90.0747 1.72346 90.0747H98.1313C99.1174 90.0747 99.9212 89.9799 99.9212 88.9946V87.7889H-0.0664062Z" fill="black"/>
<path d="M89.2109 10.8691C89.2109 10.8691 91.2136 17.4864 99.3147 19.3194C99.3147 19.3194 93.1765 20.3766 93.0479 27.7451C93.0479 27.7451 90.8905 21.3619 83.1217 19.3117C83.1217 19.3117 89.6151 18.5375 89.2109 10.8691Z" fill="#11B67A"/>
<path d="M15.9535 26.4675V67.5207H83.9455V26.4675H15.9535Z" fill="black"/>
<path d="M18.5734 29.0685H25.5614C25.5614 29.0685 20.5884 31.4798 18.5734 41.0454V29.0685Z" fill="white"/>
</g>
<defs>
<clipPath id="clip0_15980_10739">
<rect width="100" height="100" fill="white"/>
</clipPath>
</defs>
</svg>
