<svg width="100" height="100" viewBox="0 0 100 100" fill="none" xmlns="http://www.w3.org/2000/svg">
<g clip-path="url(#clip0_15980_10811)">
<rect width="100" height="100" fill="#C7FFC6"/>
<path d="M14.4782 79.8785L2.41613 93.4097H99.9336L83.093 81.9429L14.4782 79.8785Z" fill="black"/>
<path d="M19.9357 93.4088L26.941 78.0141L42.2661 70.4676L39.931 83.5658L19.9357 93.4088Z" fill="white"/>
<path d="M57.5997 78.0141L59.9348 93.4088L79.93 83.5658L72.9247 70.4676L57.5997 78.0141Z" fill="white"/>
<path d="M-0.0664062 83.5658L19.9357 93.4088L26.941 78.0141L11.6091 70.4676L-0.0664062 83.5658Z" fill="#11B67A"/>
<path d="M39.9322 83.5658L42.2673 70.4676L57.5997 78.0141L59.9348 93.4088L39.9322 83.5658Z" fill="#11B67A"/>
<path d="M72.9247 70.4676L79.93 83.5658L99.9336 93.4097L88.2576 78.0141L72.9247 70.4676Z" fill="#11B67A"/>
<path d="M33.2278 80.1482L41.3311 75.7409L58.0789 81.192L72.9247 70.4676L57.5997 78.0141L42.2673 70.4676L29.5164 76.3517L33.2278 80.1482Z" fill="black"/>
<path d="M33.2371 80.1489H26.4474L25.8816 73.8165L31.8791 72.2685L33.2371 80.1489Z" fill="black"/>
<path d="M32.956 7.53722H24.5128L28.0308 9.08514L32.956 7.53722Z" fill="black"/>
<path d="M26.4827 7.53516C39.9391 7.53526 50.8366 18.6766 50.8276 32.4157C50.8276 32.8095 50.8178 33.2033 50.7997 33.6047C50.7954 33.6408 50.7968 33.6755 50.7956 33.7098H41.9948C42.0285 33.283 42.0464 32.8514 42.0464 32.4157C42.0463 23.63 35.0738 16.5102 26.4827 16.51C17.8916 16.51 10.9191 23.6299 10.9191 32.4157C10.9191 41.2016 17.8916 48.3214 26.4827 48.3214C30.6888 48.3214 34.5062 46.6138 37.308 43.8407H48.7824C42.9252 61.7772 26.5025 80.1251 26.4827 80.1472C26.4827 80.1472 3.23204 54.183 2.17397 33.8241C2.16497 33.7486 2.1647 33.6803 2.1647 33.6047C2.14662 33.2033 2.13791 32.8095 2.13791 32.4157C2.13793 18.6765 13.0353 7.53516 26.4827 7.53516ZM50.2465 38.2132C50.0879 39.0522 49.9013 39.8969 49.685 40.7446H39.7426C40.2247 39.9449 40.6396 39.0985 40.979 38.2132H50.2465Z" fill="black"/>
<path d="M20.0078 17.9514C17.7949 18.9879 15.8604 20.5386 14.3515 22.4548H4.17016C4.85305 20.8597 5.69341 19.3511 6.67378 17.9514H20.0078Z" fill="#11B67A"/>
<path d="M22.5753 15.4179H8.70861C9.75056 14.2805 10.8959 13.2436 12.1292 12.3219H22.5753V15.4179Z" fill="#11B67A"/>
<path d="M33.2367 7.53722C19.7892 7.53722 8.892 18.6786 8.892 32.4178C8.892 32.8116 8.90104 33.2055 8.91913 33.6069C8.91913 33.6826 8.91913 33.7508 8.92817 33.8265C9.98625 54.1854 33.2371 80.1489 33.2371 80.1489C33.2371 80.1489 56.4871 54.1854 57.5452 33.8265C57.5452 33.7508 57.5452 33.6826 57.5542 33.6069C57.5723 33.2055 57.5813 32.8116 57.5813 32.4178C57.5904 18.6786 46.6932 7.53722 33.2367 7.53722ZM33.2367 48.3232C24.6455 48.3232 17.6731 41.2036 17.6731 32.4178C17.6731 23.6319 24.6455 16.5124 33.2367 16.5124C41.8278 16.5124 48.8003 23.6319 48.8003 32.4178C48.8003 41.2036 41.8278 48.3232 33.2367 48.3232Z" fill="#6CF479"/>
<path d="M22.9651 61.5737C19.3569 55.9449 16.9141 51.5825 15.6476 48.6274C18.3589 53.9748 24.3327 61.2208 30.0011 62.6995C33.2377 63.5438 39.4294 64.5288 45.0583 60.3072C42.2438 64.5288 40.9774 66.6397 38.1629 70.1577C36.3617 72.4092 34.6918 74.6138 33.2377 76.0679C30.564 72.6906 27.0079 67.8805 22.9651 61.5737Z" fill="white"/>
<path d="M36.3329 8.94254C36.3329 8.94254 52.375 11.757 55.3301 26.9548C55.3301 26.9548 49.1465 15.9971 42.6262 17.1748C42.6262 17.1748 43.3689 11.4955 36.3329 8.94254Z" fill="white"/>
</g>
<defs>
<clipPath id="clip0_15980_10811">
<rect width="100" height="100" fill="white"/>
</clipPath>
</defs>
</svg>
