<svg width="100" height="100" viewBox="0 0 100 100" fill="none" xmlns="http://www.w3.org/2000/svg">
<g clip-path="url(#clip0_15980_10825)">
<rect width="100" height="100" fill="#C7FFC6"/>
<path fill-rule="evenodd" clip-rule="evenodd" d="M52.4084 46.0816C50.2882 33.5167 52.9226 22.5944 58.2863 21.694C63.65 20.7937 69.7178 30.2471 71.838 42.82C73.9581 55.3849 71.3238 66.3072 65.9601 67.2075C60.5963 68.1079 54.5286 58.6545 52.4084 46.0816Z" fill="#6CF479"/>
<path fill-rule="evenodd" clip-rule="evenodd" d="M54.8687 38.7684C53.2865 39.0369 52.5112 42.2512 53.1362 45.9631C53.7611 49.667 55.549 52.4627 57.1312 52.1942C58.7135 51.9257 60.7308 48.4982 60.1058 44.7942C59.4808 41.0903 56.4509 38.5078 54.8687 38.7763" fill="#1A1A1A"/>
<path fill-rule="evenodd" clip-rule="evenodd" d="M72.5657 42.7016C70.2873 29.1889 63.7607 19.0169 57.9936 19.9804C52.2264 20.9518 49.3942 32.6954 51.6726 46.2081C53.951 59.7208 60.4776 69.8928 66.2448 68.9293C72.012 67.9579 74.8441 56.2143 72.5657 42.7016ZM52.4084 46.0816C50.2882 33.5167 52.9226 22.5944 58.2863 21.694C63.65 20.7937 69.7178 30.2471 71.838 42.82C73.9581 55.3849 71.3238 66.3072 65.9601 67.2075C60.5963 68.1079 54.5286 58.6545 52.4084 46.0816Z" fill="black"/>
<path fill-rule="evenodd" clip-rule="evenodd" d="M75.2317 42.2513C72.4549 25.7849 64.5122 13.3937 57.4793 14.5783L55.6043 14.8942C48.5793 16.071 45.1301 30.3813 47.9069 46.8477C50.6837 63.314 58.6264 75.7053 65.6593 74.5206L67.5342 74.2047C74.5592 73.028 78.0085 58.7177 75.2317 42.2513ZM51.1979 46.2869C48.7296 31.6607 51.7991 18.9536 58.0409 17.9032C64.2828 16.8528 71.3474 27.862 73.8077 42.4882C76.2759 57.1145 73.2144 69.8216 66.9646 70.872C60.7228 71.9224 53.6582 60.9132 51.19 46.2869" fill="#11B67A"/>
<path d="M57.329 25.7533C60.2957 25.0267 63.9981 29.2677 66.5296 35.7831C67.6925 35.6568 69.1086 37.3863 70.0421 39.9609C70.0421 39.9372 70.0342 39.9214 70.0263 39.9056C67.7242 29.7652 62.3921 22.4205 58.2942 23.4156C56.1661 23.9368 54.1804 26.9616 53.7058 30.8709C54.2912 28.3673 55.7706 26.1402 57.3211 25.7612L57.329 25.7533Z" fill="white"/>
<path fill-rule="evenodd" clip-rule="evenodd" d="M23.8414 50.8832C23.0502 46.1842 23.6752 41.9669 25.2258 40.0636C24.5929 39.6766 23.96 39.5029 23.335 39.6055L12.2437 41.4694C9.54606 41.9195 8.19327 47.2425 9.22171 53.3473C10.2501 59.4521 13.2722 64.0326 15.9698 63.5825L27.0691 61.7186C27.694 61.616 28.2399 61.2369 28.7067 60.6683C26.6102 59.3731 24.6404 55.5902 23.8493 50.8911" fill="black"/>
<path fill-rule="evenodd" clip-rule="evenodd" d="M98.1105 38.4052C99.6848 47.7479 98.0947 56.2299 94.4952 60.1787C98.9728 57.3435 101.164 48.2929 99.4554 38.184C97.7545 28.0752 92.7152 20.2329 87.5572 19.0167C92.2563 21.5755 96.5283 29.0703 98.1105 38.4052Z" fill="#11B67A"/>
<path fill-rule="evenodd" clip-rule="evenodd" d="M90.6899 39.6531C91.6946 45.6158 90.9035 50.994 88.9099 53.4659C91.4098 51.7127 92.5411 45.9791 91.4572 39.5268C90.3655 33.0666 87.4226 28.0201 84.4797 27.1829C87.1694 28.8651 89.6852 33.6905 90.6899 39.6531Z" fill="#11B67A"/>
<path fill-rule="evenodd" clip-rule="evenodd" d="M7.87698 53.6632C7.44979 51.136 7.44188 48.7509 7.75832 46.7844L5.2426 47.2109C1.84084 47.7795 -0.453366 50.9938 0.124142 54.3897C0.693739 57.7857 3.91354 60.0681 7.3153 59.4995L9.49875 59.1362C8.79467 57.5646 8.22507 55.7086 7.8849 53.6711" fill="#11B67A"/>
<path fill-rule="evenodd" clip-rule="evenodd" d="M26.4203 79.3539C26.0881 79.0143 25.8982 78.5563 25.8982 78.0824L26.0485 63.6457L16.6581 65.2252L16.1597 83.6186C16.136 84.7716 17.1802 85.6641 18.3194 85.4745L26.9108 84.0293C28.3823 83.7844 28.9756 81.9917 27.9314 80.9176L26.4124 79.3539H26.4203Z" fill="black"/>
<path fill-rule="evenodd" clip-rule="evenodd" d="M46.4355 47.0848C44.8295 37.5524 45.2884 28.7467 47.2978 22.7998L26.5471 40.9089C23.8573 45.7185 26.104 56.9883 29.6561 59.3733L55.6993 70.3588C51.641 65.4702 48.1047 57.0199 46.4276 47.0848" fill="black"/>
<path d="M26.5473 40.9168C23.8575 45.7264 26.1042 56.9962 29.6563 59.3813L55.7074 70.3746C51.6412 65.486 48.1128 57.0357 46.4357 47.1006C44.8297 37.5683 45.2886 28.7625 47.298 22.8157L26.5473 40.9247V40.9168Z" fill="black"/>
<path d="M47.298 22.8157C45.2886 28.7625 44.8297 37.5683 46.4357 47.1006C46.5738 47.919 46.7259 48.7273 46.8885 49.5245L25.801 51.2655C25.0896 47.4916 25.1773 43.3664 26.5473 40.9168V40.9247L47.298 22.8157Z" fill="#11B67A"/>
<path d="M51.7589 64.157C52.976 66.594 54.31 68.6946 55.7074 70.3746L29.6563 59.3813C29.0435 58.9697 28.4693 58.2933 27.9528 57.4316L51.7589 64.157Z" fill="#035D3E"/>
<path d="M23.3348 39.598L12.2435 41.4619C9.54585 41.912 8.19305 47.235 9.22149 53.3398C10.2499 59.4446 13.272 64.0251 15.9696 63.575L27.0609 61.7111C27.6859 61.6085 28.2318 61.2294 28.6985 60.6608C26.6021 59.3656 24.6325 55.5823 23.8414 50.8832C23.0502 46.1921 23.6752 41.9669 25.2258 40.0636C24.7195 39.7477 24.1971 39.5744 23.6908 39.5744C23.5722 39.5744 23.4537 39.5819 23.335 39.6055" fill="black"/>
<path d="M26.4232 58.1947C26.6488 58.5557 26.8817 58.889 27.1211 59.1908L12.4981 61.6474C12.2592 61.3451 12.0263 61.0117 11.8011 60.6503L26.4232 58.1947Z" fill="#035D3E"/>
<path d="M24.6266 54.1744C24.8818 54.9835 25.1729 55.7426 25.4901 56.4409L10.8699 58.8956C10.5531 58.1972 10.2621 57.4385 10.0073 56.6301L24.6266 54.1744Z" fill="#035D3E"/>
<path d="M0.122374 54.4015C0.204391 54.5837 1.32324 56.7216 8.26904 55.5503C8.59426 56.8586 9.01006 58.068 9.49113 59.1364L7.30765 59.4993C3.9138 60.0745 0.701094 57.7963 0.120544 54.4134L0.122374 54.4015Z" fill="black"/>
<path d="M0.124142 54.3897L0.122374 54.4015C0.118767 54.3935 0.11597 54.3896 0.11597 54.3896L0.124142 54.3897Z" fill="black"/>
<path fill-rule="evenodd" clip-rule="evenodd" d="M28.7701 40.1901L43.3185 27.8305C43.3185 27.8305 36.7049 34.0695 36.7919 37.3391C36.7919 37.3391 34.7904 35.5069 28.7701 40.1901Z" fill="#6CF479"/>
<path fill-rule="evenodd" clip-rule="evenodd" d="M1.12099 52.9763C1.12099 52.9763 1.60356 49.2171 6.10496 48.1272C6.10496 48.1272 3.84239 49.2882 4.37244 50.4254C4.37244 50.4254 2.4184 49.4461 1.12099 52.9763Z" fill="#6CF479"/>
<path d="M23.6908 39.5744C24.1971 39.5744 24.7195 39.7477 25.2258 40.0636C23.6752 41.9669 23.0502 46.1921 23.8414 50.8832C24.6325 55.5823 26.6021 59.3656 28.6985 60.6608C28.3144 61.1287 27.8758 61.4654 27.3845 61.6282C25.211 61.6693 22.7157 57.1331 21.7214 51.2307C20.7294 45.3873 21.578 40.3248 23.6021 39.5766C23.6317 39.5755 23.6612 39.5744 23.6908 39.5744Z" fill="#11B67A"/>
</g>
<defs>
<clipPath id="clip0_15980_10825">
<rect width="100" height="100" fill="white"/>
</clipPath>
</defs>
</svg>
