<svg width="100" height="100" viewBox="0 0 100 100" fill="none" xmlns="http://www.w3.org/2000/svg">
<g clip-path="url(#clip0_15980_10853)">
<rect width="100" height="100" fill="#C7FFC6"/>
<path d="M13.0391 70.442C13.0391 70.442 15.5747 52.4328 51.0621 54.1557C80.6764 55.5969 106.26 73.0101 98.393 86.0348C92.0324 96.5564 49.8701 98.691 29.0978 92.1462C8.32549 85.6013 13.0391 70.4312 13.0391 70.4312V70.442Z" fill="#6CF479"/>
<path d="M83.1577 65.5568C83.1577 65.5568 95.9223 71.5056 97.3201 81.1387C97.3201 81.1387 93.1917 74.518 84.9564 73.8787C84.9564 73.8787 86.506 69.3493 83.1577 65.5568Z" fill="white"/>
<path d="M35.8375 93.3815C30.9722 92.0595 25.6735 89.5348 23.3763 85.0487C22.2927 82.9357 21.6534 80.5193 22.206 78.0379C24.3082 68.5132 36.8453 69.12 36.8453 69.12C84.4905 71.6773 81.1205 61.4374 81.1205 61.4374C72.7011 57.4823 62.1687 54.6975 51.0728 54.1557C15.5854 52.4328 13.0498 70.442 13.0498 70.442C13.0498 70.442 11.9012 74.1587 13.2556 78.7097C6.34238 81.2562 3.46003 83.6617 3.46003 83.6617C3.46003 83.6617 -12.1111 94.5409 25.1642 98.5177C66.9472 102.982 86.9394 96.6214 94.9254 89.2855C83.9379 96.1771 49.4365 97.0765 35.8484 93.3815H35.8375Z" fill="black"/>
<path d="M85.845 44.3301C85.845 44.3301 84.0138 29.6476 54.6378 31.8581C32.2943 33.5485 16.8207 44.601 20.9925 52.3595C25.1643 60.1179 57.1734 62.8919 73.0371 59.0127C88.9007 55.1335 85.845 44.3301 85.845 44.3301Z" fill="#11B67A"/>
<path d="M75.4101 37.1339C75.4101 37.1339 84.4147 39.8537 83.1469 47.7856C83.1469 47.7856 80.7088 43.137 73.4055 44.8382C73.4055 44.8382 77.6423 41.8909 75.421 37.1339H75.4101Z" fill="white"/>
<path d="M21.0033 52.3676C23.0622 56.1927 31.915 58.8149 42.2416 60.0069C42.415 60.0285 42.5883 60.0502 42.7726 60.0719V60.0285C33.5729 59.2375 30.9181 54.253 31.4491 50.2871C32.2943 43.9482 43.0976 43.3738 43.0976 43.3738C70.9241 41.4884 73.2863 34.3693 73.4813 33.3074C73.4813 33.3074 67.1207 30.956 54.6378 31.8662C32.2943 33.4916 16.8207 44.6091 20.9925 52.3676H21.0033Z" fill="black"/>
<path d="M74.5972 23.0999C74.1854 28.6587 67.4238 34.9652 53.1639 37.2407C40.3884 39.2887 29.4008 37.1973 28.5123 31.7903C27.6238 26.3832 38.1779 19.069 50.7258 15.8399C65.7226 11.9823 75.0956 16.3167 74.5972 23.0999Z" fill="#6CF479"/>
<path d="M53.8573 14.8656C48.8295 16.1551 41.4828 18.4848 38.0153 20.782C37.7444 21.6164 37.8203 22.4074 38.2537 23.1009C39.7274 25.4522 46.8574 26.9259 55.3635 24.0869C62.8402 21.5947 68.4424 17.813 67.9764 15.1799C64.4114 14.0638 60.0663 13.2619 53.8573 14.8548V14.8656Z" fill="black"/>
<path d="M39.2833 10.4673C40.3344 14.9209 45.4273 18.7567 54.5836 17.9007C62.7863 17.1314 69.277 13.3388 69.0494 8.7661C68.8219 4.19337 61.2368 0.249124 53.0124 0.0107358C43.1842 -0.270996 38.0047 5.03857 39.2942 10.4782L39.2833 10.4673Z" fill="#11B67A"/>
<path d="M69.5913 18.5522C69.5913 18.5522 72.3436 19.4624 72.2353 22.5181C72.1269 25.5738 68.952 29.0954 63.4474 32.0428C63.4474 32.0428 70.0139 25.3571 69.5913 18.5522Z" fill="white"/>
<path d="M55.4935 2.57775C55.4935 2.57775 60.4672 3.14121 64.3897 5.75265C68.3123 8.36409 66.5136 11.1922 64.9207 12.6659C64.9207 12.6659 65.3433 6.77122 58.2458 7.68143C58.2458 7.68143 59.4161 4.96163 55.4935 2.57775Z" fill="white"/>
</g>
<defs>
<clipPath id="clip0_15980_10853">
<rect width="100" height="100" fill="white"/>
</clipPath>
</defs>
</svg>
