<svg width="100" height="100" viewBox="0 0 100 100" fill="none" xmlns="http://www.w3.org/2000/svg">
<g clip-path="url(#clip0_15980_10855)">
<rect width="100" height="100" fill="#C7FFC6"/>
<path d="M13.0401 70.442C13.0401 70.442 15.5756 52.4328 51.063 54.1557C80.6774 55.5969 106.261 73.0101 98.394 86.0348C92.0334 96.5564 49.8711 98.691 29.0988 92.1462C8.32646 85.6013 13.0401 70.4312 13.0401 70.4312V70.442Z" fill="#6CF479"/>
<path d="M83.1587 65.5568C83.1587 65.5568 95.9233 71.5056 97.3211 81.1387C97.3211 81.1387 93.1926 74.518 84.9574 73.8787C84.9574 73.8787 86.5069 69.3493 83.1587 65.5568Z" fill="white"/>
<path d="M35.8385 93.3815C30.9732 92.0595 25.6745 89.5348 23.3773 85.0487C22.2937 82.9357 21.6544 80.5193 22.207 78.0379C24.3092 68.5132 36.8462 69.12 36.8462 69.12C84.4915 71.6773 81.1215 61.4374 81.1215 61.4374C72.702 57.4823 62.1696 54.6975 51.0737 54.1557C15.5863 52.4328 13.0507 70.442 13.0507 70.442C13.0507 70.442 11.9021 74.1587 13.2566 78.7097C6.34335 81.2562 3.46101 83.6617 3.46101 83.6617C3.46101 83.6617 -12.1101 94.5409 25.1652 98.5177C66.9482 102.982 86.9404 96.6214 94.9264 89.2855C83.9388 96.1771 49.4375 97.0765 35.8493 93.3815H35.8385Z" fill="black"/>
<path d="M85.846 44.3301C85.846 44.3301 84.0147 29.6476 54.6388 31.8581C32.2953 33.5485 16.8217 44.601 20.9935 52.3595C25.1653 60.1179 57.1744 62.8919 73.038 59.0127C88.9017 55.1335 85.846 44.3301 85.846 44.3301Z" fill="#11B67A"/>
<path d="M75.4111 37.1339C75.4111 37.1339 84.4156 39.8537 83.1479 47.7856C83.1479 47.7856 80.7098 43.137 73.4064 44.8382C73.4064 44.8382 77.6433 41.8909 75.4219 37.1339H75.4111Z" fill="white"/>
<path d="M21.0043 52.3676C23.0631 56.1927 31.916 58.8149 42.2426 60.0069C42.416 60.0285 42.5893 60.0502 42.7735 60.0719V60.0285C33.5739 59.2375 30.9191 54.253 31.4501 50.2871C32.2953 43.9482 43.0986 43.3738 43.0986 43.3738C70.9251 41.4884 73.2873 34.3693 73.4823 33.3074C73.4823 33.3074 67.1217 30.956 54.6388 31.8662C32.2953 33.4916 16.8217 44.6091 20.9935 52.3676H21.0043Z" fill="black"/>
<path d="M74.5981 23.0999C74.1864 28.6587 67.4248 34.9652 53.1648 37.2407C40.3894 39.2887 29.4018 37.1973 28.5133 31.7903C27.6247 26.3832 38.1789 19.069 50.7268 15.8399C65.7236 11.9823 75.0966 16.3167 74.5981 23.0999Z" fill="#6CF479"/>
<path d="M53.8583 14.8656C48.8305 16.1551 41.4838 18.4848 38.0163 20.782C37.7454 21.6164 37.8213 22.4074 38.2547 23.1009C39.7284 25.4522 46.8584 26.9259 55.3645 24.0869C62.8412 21.5947 68.4433 17.813 67.9774 15.1799C64.4124 14.0638 60.0672 13.2619 53.8583 14.8548V14.8656Z" fill="black"/>
<path d="M39.2843 10.4673C40.3354 14.9209 45.4283 18.7567 54.5845 17.9007C62.7873 17.1314 69.278 13.3388 69.0504 8.7661C68.8228 4.19337 61.2377 0.249124 53.0133 0.0107358C43.1852 -0.270996 38.0057 5.03857 39.2952 10.4782L39.2843 10.4673Z" fill="#11B67A"/>
<path d="M69.5923 18.5522C69.5923 18.5522 72.3446 19.4624 72.2363 22.5181C72.1279 25.5738 68.953 29.0954 63.4484 32.0428C63.4484 32.0428 70.0149 25.3571 69.5923 18.5522Z" fill="white"/>
<path d="M55.4945 2.57775C55.4945 2.57775 60.4681 3.14121 64.3907 5.75265C68.3133 8.36409 66.5146 11.1922 64.9217 12.6659C64.9217 12.6659 65.3443 6.77122 58.2468 7.68143C58.2468 7.68143 59.4171 4.96163 55.4945 2.57775Z" fill="white"/>
</g>
<defs>
<clipPath id="clip0_15980_10855">
<rect width="100" height="100" fill="white"/>
</clipPath>
</defs>
</svg>
