<svg width="100" height="100" viewBox="0 0 100 100" fill="none" xmlns="http://www.w3.org/2000/svg">
<rect width="100" height="100" fill="#C7FFC6"/>
<path d="M92.7592 20.784C78.327 12.7815 65.928 16.4656 58.0298 18.3858C47.4728 20.9491 34.2223 17.8211 34.2223 17.8211C37.7326 33.183 36.438 48.9272 33.84 56.1998C38.1671 56.9644 49.619 59.154 60.9754 56.4431C68.8214 54.5663 81.5767 51.9596 92.151 58.5632C92.2119 52.6461 91.2387 46.5465 90.2829 41.394C88.1454 29.8638 92.7505 20.784 92.7505 20.784H92.7592ZM44.0495 30.9586C38.1758 27.318 37.9412 21.7745 37.9412 21.7745C43.0155 24.5723 44.0495 30.9586 44.0495 30.9586ZM36.968 54.2014C36.968 54.2014 39.8788 49.5181 46.7517 49.3703C46.7517 49.3703 42.7287 54.3664 36.968 54.2014ZM41.1734 21.6963C45.5352 20.8622 49.1585 24.1639 49.1585 24.1639C43.9191 24.8938 41.1734 21.6963 41.1734 21.6963Z" fill="#6CF479"/>
<path d="M30.3644 16.9518C32.3281 15.8657 33.6574 13.7803 33.6574 11.3735C33.6574 7.85453 30.8075 5.00459 27.2885 5.00459C23.7695 5.00459 20.9196 7.85453 20.9196 11.3735C20.9196 13.7717 22.2489 15.8657 24.2126 16.9518V78.6428C15.2196 80.0069 8.15562 87.2013 7 96.2638C7.99053 98.3578 16.6881 100 27.2798 100C37.8715 100 46.6907 98.3404 47.577 96.2203C46.404 87.1752 39.34 80.0069 30.3644 78.6514V16.9518Z" fill="#11B67A"/>
<path d="M27.3319 6.44713C27.3319 6.44713 32.0672 6.88157 32.354 11.6083C32.354 11.6083 28.9828 11.1739 27.3319 6.44713Z" fill="white"/>
<path d="M31.8935 81.0755C31.8935 81.0755 42.2159 82.8914 45.6567 95.1254C45.6567 95.1254 42.1203 87.288 33.7095 88.3394C33.7095 88.3394 37.1503 84.2295 31.8935 81.0755Z" fill="white"/>
<path d="M30.1559 14.8756C26.6369 14.8756 23.7868 12.0256 23.7868 8.50664C23.7868 7.49004 24.0302 6.52558 24.4559 5.67407C22.3619 6.71673 20.9196 8.87113 20.9196 11.3735C20.9196 13.8759 22.2489 15.8657 24.2126 16.9518V78.6258C15.124 79.99 8.14693 87.2621 7 96.2638C7.65167 97.6453 11.6833 98.8274 17.3919 99.4704C17.8784 86.7065 26.689 79.7032 26.689 79.7032V17.7168C26.8889 17.7342 27.0886 17.7429 27.2885 17.7429C29.7909 17.7429 31.9458 16.3006 32.9884 14.2065C32.1369 14.6323 31.1725 14.8756 30.1559 14.8756Z" fill="black"/>
<path d="M47.2556 35.1119C47.2556 35.1119 55.2146 45.1215 58.2296 50.804C58.2296 50.804 68.0134 34.1127 82.3848 21.7137C82.3848 21.7137 69.0733 27.5179 57.4563 40.4469C57.4563 40.4469 52.6862 35.9547 47.2643 35.1119H47.2556Z" fill="black"/>
<path d="M72.5489 57.2687C72.5489 57.2687 73.8784 61.6652 79.2568 62.8817C79.2568 62.8817 75.1817 63.5855 75.1035 68.4773C75.1035 68.4773 73.6697 64.2372 68.5085 62.873C68.5085 62.873 72.8182 62.3604 72.5489 57.26V57.2687Z" fill="white"/>
<path d="M11.9525 26.3968C11.9525 26.3968 13.2819 30.7934 18.6603 32.0098C18.6603 32.0098 14.5852 32.7136 14.507 37.6054C14.507 37.6054 13.0734 33.3653 7.91216 32.0011C7.91216 32.0011 12.2218 31.4885 11.9525 26.3881V26.3968Z" fill="white"/>
<path d="M63.6949 0.00868886C63.6949 0.00868886 66.2147 8.35869 76.4328 10.6699C76.4328 10.6699 68.6909 12.008 68.5345 21.3051C68.5345 21.3051 65.8063 13.2505 56.0139 10.6612C56.0139 10.6612 64.1988 9.68809 63.6949 0V0.00868886Z" fill="white"/>
</svg>
