<svg width="100" height="100" viewBox="0 0 100 100" fill="none" xmlns="http://www.w3.org/2000/svg">
<g clip-path="url(#clip0_15980_10899)">
<rect width="100" height="100" fill="#C7FFC6"/>
<path d="M100.027 35.1907L90.047 35.4317L71.6072 24.7645C70.4112 24.0712 68.6482 24.3251 67.6997 25.3239L39.3583 55.11L23.8002 65.473V70.9167C23.835 71.5328 24.1972 72.1205 24.848 72.4955L52.2202 88.3293C53.4162 89.0227 55.1792 88.7688 56.1278 87.77L99.4266 42.2635C99.8442 41.824 100.043 41.3149 100.035 40.8265V35.192H100.028L100.027 35.1907Z" fill="black"/>
<path d="M56.1262 82.1844C55.1712 83.1897 53.4146 83.4371 52.2187 82.7437L24.8464 66.9099C23.6505 66.2165 23.452 64.8285 24.4005 63.831L67.6994 18.3232C68.6544 17.318 70.411 17.0705 71.6069 17.7639L98.9792 33.5977C100.175 34.2911 100.374 35.6791 99.4251 36.6766L56.1262 82.1831V82.1844Z" fill="#11B57A"/>
<path d="M85.0493 32.6001L80.4058 29.8821C79.9251 29.5986 79.8324 28.9413 80.2151 28.5366C80.7525 27.9709 81.6031 27.8574 82.2746 28.2467L86.918 30.9647C87.4065 31.2482 87.4915 31.9132 87.1023 32.3166H87.0959C86.5584 32.8759 85.7156 32.9893 85.0506 32.6001H85.0493Z" fill="#024731"/>
<path d="M47.3641 69.6925C47.3074 71.3344 45.4465 72.7224 43.2014 72.7856C40.9577 72.8487 39.1882 71.5754 39.2513 69.9335C39.308 68.2916 41.169 66.9036 43.4141 66.8405C45.6578 66.7773 47.4273 68.0506 47.3641 69.6925Z" fill="#024731"/>
<path d="M77.863 27.9209C78.6286 27.841 79.2021 27.3229 79.1441 26.7623C79.0861 26.203 78.4172 25.8137 77.6517 25.8937C76.8861 25.9736 76.3126 26.4916 76.3706 27.0523C76.4286 27.6116 77.0975 28.0008 77.863 27.9222V27.9209Z" fill="#024731"/>
<path d="M6.50479 33.2259C6.50479 33.2259 8.62869 40.2613 17.2287 42.2087C17.2287 42.2087 10.7101 43.3338 10.5825 51.163C10.5825 51.163 8.28845 44.3815 0.0351562 42.2022C0.0351562 42.2022 6.93008 41.3813 6.50479 33.2272V33.2259Z" fill="#006A4D"/>
<path d="M54.9165 11.2793C54.9165 11.2793 55.8509 14.3723 59.6373 15.2294C59.6373 15.2294 56.7711 15.7243 56.7066 19.1717C56.7066 19.1717 55.695 16.1844 52.0632 15.2294C52.0632 15.2294 55.0995 14.8685 54.9088 11.2793H54.9165Z" fill="#006A4D"/>
<path d="M68.8893 45.1499C68.8893 45.1499 70.2631 49.7018 75.8332 50.9609C75.8332 50.9609 71.615 51.6904 71.53 56.7578C71.53 56.7578 70.044 52.3696 64.7059 50.9609C64.7059 50.9609 69.1651 50.43 68.8893 45.1563V45.1486V45.1499Z" fill="#006A4D"/>
<path d="M58.3018 29.1827L56.4137 36.0815L60.7801 36.9708L60.1331 41.9905L56.7411 45.9084L56.2024 47.2796L52.8786 51.1189L47.5753 49.1613L45.4798 49.7L38.4096 50.2851L34.8732 46.8183L54.0566 28.7484L58.3018 29.1827Z" fill="#006A4D"/>
<path d="M60.7801 36.9708C60.7788 36.8612 60.7471 36.797 60.6337 36.7583C60.4894 36.7107 60.3515 36.6423 60.2149 36.5753C59.314 36.1294 58.5485 35.5134 57.9222 34.7259C57.4337 34.1138 57.069 33.4372 56.8679 32.6768C56.7597 32.267 56.7146 31.8507 56.7442 31.428C56.7532 31.2952 56.7648 31.1612 56.8099 31.0336C56.8177 30.8751 56.8757 30.7295 56.9324 30.5851C57.194 29.9291 57.6554 29.4652 58.3023 29.1842C58.3462 29.1649 58.4493 29.1327 58.4544 29.1262C58.4686 29.0811 58.4364 29.0489 58.4183 29.0141C58.1864 28.5733 57.9402 28.139 57.6799 27.7137C56.8718 26.3927 55.9555 25.1517 54.9283 23.9931C54.8716 23.9286 54.8136 23.8655 54.7595 23.7997C54.7363 23.7714 54.7131 23.7559 54.6848 23.7559C54.6693 23.7559 54.6525 23.7598 54.6345 23.7688C54.5842 23.7933 54.5327 23.8139 54.4798 23.8332C54.0881 23.9802 53.6898 24.042 53.2864 24.042C53.0364 24.042 52.7851 24.0188 52.5312 23.9763C51.9912 23.8874 51.4796 23.7069 50.9911 23.4621C50.2785 23.1038 49.6521 22.6308 49.107 22.0496C48.5399 21.4451 48.0953 20.7647 47.8169 19.9811C47.6055 19.387 47.5153 18.7774 47.5991 18.1485C47.6094 18.0724 47.5901 18.0273 47.5192 17.9874C47.121 17.7683 46.7201 17.5556 46.3129 17.3546C45.1105 16.7579 43.8694 16.2578 42.5858 15.8661C42.3087 15.781 42.0316 15.6946 41.7481 15.6341C41.7403 15.6341 41.7326 15.6341 41.7249 15.6341C41.7081 15.6341 41.6927 15.6315 41.6798 15.6147C41.6733 15.6122 41.6682 15.6109 41.6617 15.6109C41.654 15.6109 41.6463 15.6135 41.6385 15.6199C41.6321 15.8506 41.5908 16.0774 41.5135 16.2926C41.4053 16.5916 41.2764 16.8855 41.0624 17.1265C40.873 17.3391 40.6707 17.5376 40.4142 17.6768C40.208 17.7889 40.0018 17.892 39.7762 17.959C39.7131 17.9784 39.5533 18.0196 39.5352 18.0222C39.2723 18.0737 39.0094 18.0982 38.7465 18.0982C38.4591 18.0982 38.1717 18.0686 37.8843 18.0106C37.1343 17.8598 36.4474 17.5556 35.8094 17.1368C35.0697 16.6509 34.4446 16.0478 33.9458 15.3158C33.8995 15.2487 33.8827 15.2268 33.8415 15.2268C33.8208 15.2268 33.7938 15.232 33.7525 15.241C33.1829 15.3544 32.6223 15.5026 32.072 15.6882C31.2369 15.9704 30.443 16.3403 29.6916 16.8017C29.5215 16.9061 29.3488 17.0092 29.1929 17.1368C29.1954 17.1858 29.2405 17.209 29.2625 17.2463C29.381 17.4538 29.5292 17.6433 29.6401 17.8585C29.7225 18.0196 29.7844 18.1897 29.8695 18.3495C29.9597 18.5183 30.0125 18.6975 30.0602 18.8805C30.0705 18.923 30.1143 18.954 30.104 19.0029C30.1543 19.1318 30.1672 19.2684 30.1942 19.4012C30.2561 19.7053 30.2419 20.0133 30.2381 20.3213C30.2368 20.4734 30.2058 20.6242 30.1659 20.7685C30.0563 21.1732 29.8862 21.5457 29.604 21.8666C29.3114 22.1978 28.9544 22.422 28.5485 22.5818C28.3332 22.6669 28.109 22.7172 27.8835 22.7507C27.7829 22.7661 27.6798 22.7816 27.5742 22.7816C27.5587 22.7816 27.5445 22.7816 27.5291 22.7816C27.4852 22.779 27.4414 22.779 27.3976 22.779C27.3228 22.779 27.2468 22.7803 27.1708 22.7803C27.0599 22.7803 26.9491 22.7765 26.8396 22.7558C26.7442 22.7275 26.645 22.7326 26.5483 22.7133C26.364 22.6862 26.1849 22.6373 26.0057 22.5883C25.7802 22.5251 25.5637 22.4349 25.3433 22.3563C25.342 22.3563 25.3394 22.3563 25.3381 22.3563C25.3227 22.3563 25.3085 22.3524 25.2982 22.3383C25.2917 22.3344 25.2853 22.3331 25.2789 22.3331C25.2711 22.3331 25.2634 22.3357 25.2569 22.3421C25.2157 22.4723 25.1745 22.6038 25.1319 22.7339C25.0069 23.1102 24.9193 23.4969 24.8342 23.8835C24.7775 24.1425 24.7363 24.4055 24.6989 24.6697C24.677 24.8269 24.6615 24.9854 24.6474 25.1439C24.6306 25.3244 24.6216 25.5061 24.601 25.6852C24.5739 25.9301 24.5907 26.1749 24.5842 26.4198C24.5803 26.5719 24.5842 26.7252 24.5842 26.8773C24.5842 27.0887 24.5778 27.3 24.6074 27.5114C25.177 27.7189 25.7003 28.0114 26.1874 28.3723C26.5019 28.6043 26.7983 28.8582 27.0651 29.1443C27.2571 29.3505 27.4479 29.558 27.6012 29.7964C27.6399 29.8106 27.6515 29.8492 27.6721 29.8789C27.8332 30.1186 27.9917 30.3596 28.1206 30.6173C28.2984 30.9718 28.4402 31.3416 28.5304 31.7283C28.5382 31.7605 28.5755 31.8997 28.5833 31.9383C28.6039 32.0401 28.6181 32.1432 28.6232 32.2451C28.631 32.4036 28.667 32.5621 28.6503 32.7219C28.6232 32.9938 28.6039 33.2645 28.5214 33.53C28.4389 33.7954 28.3294 34.0455 28.1734 34.2723C28.0227 34.4888 27.8435 34.6821 27.6296 34.8406C27.4311 34.9876 27.2159 35.101 26.9891 35.1963C26.953 35.2118 26.8937 35.2054 26.886 35.2647C26.9594 35.3987 27.0355 35.5301 27.1063 35.6655C27.2094 35.8639 27.319 36.0572 27.4363 36.248C27.5071 36.3614 27.5561 36.4851 27.6244 36.5998C27.7146 36.7493 27.8177 36.8885 27.9105 37.0354C28.0613 37.2738 28.2108 37.5136 28.3784 37.7417C28.4093 37.7829 28.4351 37.8267 28.4557 37.877C28.4892 37.9595 28.5601 38.0188 28.6103 38.0909C28.7083 38.2301 28.7985 38.3745 28.9016 38.5098C28.9609 38.5884 29.0202 38.6683 29.0782 38.7482C29.2315 38.9248 29.3643 39.1168 29.5099 39.2985C29.6182 39.4325 29.7264 39.5679 29.836 39.7019C29.9184 39.8024 30.0009 39.9016 30.077 40.006C30.1607 40.122 30.278 40.211 30.3682 40.3231C30.4559 40.4326 30.5499 40.537 30.6414 40.644C30.6994 40.6414 30.7458 40.6066 30.7974 40.586C31.1286 40.4545 31.4688 40.3721 31.8258 40.3553C31.889 40.3527 31.9521 40.3411 32.0153 40.3411C32.041 40.3411 32.0668 40.3424 32.0926 40.3476C32.1364 40.3411 32.1802 40.3385 32.224 40.3385C32.3362 40.3385 32.4483 40.3553 32.5591 40.3656C32.9625 40.4068 33.3569 40.5009 33.7396 40.6375C34.3853 40.8682 34.9769 41.202 35.5156 41.626C35.8751 41.9096 36.2089 42.2189 36.5015 42.5746C36.6149 42.7125 36.7309 42.8465 36.8301 42.9947C36.8984 43.0488 36.9332 43.1287 36.9796 43.1983C37.2541 43.6133 37.4745 44.0554 37.6266 44.5296C37.6691 44.6624 37.7593 45.0168 37.7683 45.0606C37.8405 45.4086 37.8431 45.7604 37.8328 46.1122C37.8302 46.2037 37.8057 46.2952 37.8122 46.388C38.0802 46.5414 38.3509 46.6883 38.6254 46.8301C39.1009 47.0762 39.5829 47.3095 40.0727 47.526C40.7055 47.8057 41.3473 48.0596 42.002 48.2838C42.52 48.4617 43.698 48.8225 43.7779 48.8225C43.8256 48.7207 43.8217 48.6073 43.8423 48.499C43.988 47.7 44.4004 47.0866 45.1053 46.6767C45.4404 46.4821 45.8051 46.3777 46.1866 46.3184C46.3039 46.2927 46.5049 46.2824 46.697 46.2824C46.8696 46.2824 47.0359 46.2914 47.1287 46.3056C47.5256 46.3442 47.9136 46.4331 48.2899 46.5646C48.96 46.7992 49.5683 47.1458 50.1264 47.584C50.4086 47.8044 50.6754 48.0428 50.9125 48.3109C51.0594 48.4758 51.5105 49.0609 51.5788 49.1602C51.5801 49.1602 51.5827 49.1602 51.584 49.1602C51.7283 49.1602 52.9578 48.838 53.4591 48.6627C53.7852 48.5493 54.1061 48.4179 54.4206 48.2748C54.9979 48.0119 56.1913 47.2837 56.2029 47.2773C56.2751 47.2232 56.2751 47.2232 56.2339 47.1587C56.2184 47.1342 56.1991 47.1097 56.1823 47.0865C55.8936 46.6793 55.6565 46.245 55.4812 45.7772C55.4696 45.7462 55.4593 45.714 55.4477 45.6831C55.4284 45.6251 55.4078 45.5735 55.3871 45.5039C55.3163 45.2513 55.2492 45 55.2312 44.7371C55.1835 44.4871 55.1912 44.2358 55.2119 43.9832C55.226 43.8092 55.257 43.6378 55.3047 43.469C55.5418 42.6377 56.0663 42.0629 56.8705 41.7485C57.212 41.6144 57.5677 41.5423 57.9363 41.5423C57.9544 41.5423 57.9724 41.5423 57.9918 41.5423C58.0497 41.5397 58.1077 41.5371 58.1644 41.5371C58.5279 41.5371 58.8849 41.5951 59.238 41.684C59.5022 41.751 59.7574 41.84 60.0087 41.9431C60.0499 41.9598 60.0886 41.9817 60.1337 41.9882C60.1672 41.9637 60.1685 41.9237 60.1801 41.8902C60.2948 41.5487 60.3914 41.2007 60.4726 40.8489C60.7046 39.8475 60.8064 38.832 60.8051 37.8048C60.8051 37.5252 60.7858 37.2468 60.7807 36.9684L60.7801 36.9708ZM51.8443 35.1487C51.8366 35.3446 51.8263 35.5404 51.8056 35.7351C51.7837 35.9451 51.7541 36.1526 51.7141 36.3601C51.6897 36.4877 51.6587 36.6127 51.6201 36.7364C51.5762 36.8782 51.5427 37.0225 51.4938 37.163C51.361 37.5432 51.1935 37.9066 50.977 38.2456C50.8081 38.5111 50.62 38.7637 50.4086 38.9995C50.0478 39.4016 49.6328 39.7315 49.1675 40.0022C48.8969 40.1594 48.6159 40.2921 48.326 40.412C48.2937 40.4249 48.1868 40.4713 48.1739 40.4713C47.9329 40.5473 47.6919 40.6247 47.4457 40.6814C46.8709 40.8154 46.2884 40.8773 45.702 40.8773C45.5706 40.8773 45.4378 40.8747 45.3064 40.8682C44.1246 40.8128 42.9892 40.5435 41.8898 40.1117C40.6475 39.6233 39.5108 38.9531 38.4617 38.1309C37.3083 37.2262 36.3095 36.1745 35.4872 34.9605C34.7642 33.8921 34.2088 32.7464 33.875 31.4963C33.6469 30.6418 33.5438 29.7732 33.5927 28.8891C33.6082 28.603 33.6469 28.3195 33.701 28.0372C33.7087 27.9973 33.7422 27.8439 33.7512 27.8065C33.8311 27.4663 33.9355 27.1325 34.0786 26.8129C34.3131 26.2858 34.6173 25.8051 35.0039 25.3746C35.4692 24.8552 36.0195 24.4506 36.6445 24.1451C37.2167 23.8655 37.8186 23.6825 38.4462 23.5819C38.5932 23.5587 38.7388 23.5355 38.887 23.5252C39.1654 23.493 39.4437 23.475 39.7234 23.475C39.8085 23.475 39.8935 23.4763 39.9773 23.4801C40.5083 23.502 41.0354 23.5626 41.5586 23.6644C42.3087 23.8113 43.0356 24.0369 43.7418 24.3281C44.4274 24.6117 45.0834 24.9532 45.7123 25.3463C46.3219 25.7277 46.8993 26.153 47.4457 26.6196C47.9419 27.0423 48.4072 27.4985 48.8376 27.987C49.058 28.237 49.2745 28.4909 49.4755 28.7576C49.5142 28.8079 49.6212 28.9471 49.6392 28.9716C49.8171 29.2229 49.9988 29.4703 50.1496 29.7397C50.2295 29.8815 50.3377 30.0065 50.4099 30.1534C50.5594 30.4562 50.7527 30.7346 50.879 31.0491C50.9254 31.1664 50.9886 31.2772 51.0363 31.3932C51.2154 31.8275 51.3881 32.2644 51.5066 32.7206C51.5105 32.7348 51.5105 32.7503 51.5118 32.7644C51.5762 32.8869 51.5943 33.0235 51.6226 33.1562C51.669 33.3689 51.7077 33.5841 51.7489 33.798C51.7657 33.8818 51.7696 33.9669 51.7773 34.0506C51.794 34.2491 51.8237 34.4476 51.8327 34.6473C51.8404 34.8136 51.852 34.9811 51.8456 35.1474L51.8443 35.1487Z" fill="#6CF379"/>
<path d="M34.9304 27.6051C34.9459 27.6038 34.9613 27.6012 34.9768 27.5999C35.0077 27.6051 35.0374 27.596 35.0644 27.5831C35.0799 27.5819 35.0954 27.5793 35.1108 27.578C35.1559 27.5831 35.1985 27.5728 35.2397 27.5599C35.2565 27.5587 35.2719 27.5574 35.2887 27.5561C35.3338 27.5599 35.3763 27.5496 35.4188 27.538C35.442 27.5367 35.4652 27.5355 35.4897 27.5342C35.5555 27.5393 35.6199 27.5277 35.6843 27.5148C35.8222 27.5097 35.9588 27.5007 36.0967 27.4981C36.9203 27.4839 37.7309 27.5831 38.5312 27.7739C39.3483 27.9685 40.1332 28.2546 40.891 28.6154C41.5921 28.9492 42.2571 29.341 42.8924 29.7869C43.7237 30.372 44.4854 31.0358 45.1761 31.7807C45.8386 32.4959 46.4211 33.2705 46.916 34.1121C47.0526 34.3453 47.1763 34.5863 47.3039 34.8248C47.3129 34.8492 47.3207 34.8737 47.3323 34.8969C47.4663 35.1495 47.5758 35.4124 47.6841 35.6766C47.8143 35.9962 47.9199 36.3236 48.0256 36.6522C48.0217 36.6741 48.0243 36.6961 48.0308 36.718C48.2138 37.3172 48.3182 37.932 48.3568 38.5557C48.38 38.9359 48.3774 39.3148 48.3414 39.6912C48.5205 39.6087 48.6868 39.5249 48.8401 39.436C49.259 39.1924 49.6134 38.9063 49.9214 38.5622C50.1018 38.3611 50.2655 38.1433 50.4253 37.8933C50.6057 37.6098 50.7539 37.3005 50.8764 36.9474C50.8983 36.8855 50.9176 36.8146 50.9382 36.7399C50.9563 36.6767 50.9743 36.611 50.9962 36.5414C51.0259 36.4486 51.0504 36.3481 51.0723 36.236C51.1071 36.0581 51.1341 35.8712 51.156 35.6676C51.1741 35.5001 51.1831 35.3287 51.1908 35.1225C51.1947 35.0142 51.1895 34.8943 51.1831 34.768L51.1792 34.6804C51.1741 34.5747 51.1625 34.4639 51.1496 34.3466C51.1406 34.268 51.1328 34.1894 51.1251 34.1095L51.12 34.0541C51.1161 34.0025 51.1122 33.9548 51.1058 33.9239C51.0955 33.8672 51.0839 33.8118 51.0736 33.7551C51.0439 33.5966 51.0143 33.4458 50.9821 33.2963C50.9756 33.2666 50.9692 33.2357 50.964 33.2061C50.955 33.1571 50.9408 33.0901 50.9331 33.072L50.8751 32.9625L50.8622 32.8439C50.7514 32.4315 50.589 32.0255 50.4318 31.6428C50.4163 31.6041 50.3944 31.5603 50.3712 31.5126C50.3402 31.4482 50.3042 31.3747 50.2719 31.2922C50.2127 31.1453 50.1263 30.9932 50.0348 30.8321C49.9639 30.7084 49.8918 30.5808 49.8234 30.4416C49.8041 30.4017 49.7667 30.3476 49.7268 30.2909C49.6804 30.2238 49.6288 30.1478 49.5799 30.0602C49.4613 29.8488 49.3157 29.6439 49.161 29.4261L49.1095 29.3539C49.0966 29.3372 49.0669 29.2972 49.036 29.2585C49.0038 29.2173 48.9716 29.1761 48.9548 29.1516C48.7551 28.8861 48.5373 28.6335 48.3491 28.4208C47.947 27.9646 47.4998 27.5264 47.0229 27.1179C46.5023 26.6733 45.9442 26.2634 45.3669 25.9013C44.7637 25.5224 44.1335 25.1976 43.4943 24.9334C42.8151 24.6525 42.1217 24.4424 41.4361 24.3071C40.9593 24.2143 40.4605 24.155 39.954 24.1344C39.8793 24.1318 39.8033 24.1292 39.7272 24.1292C39.4862 24.1292 39.2362 24.1447 38.9655 24.1756H38.9527L38.9398 24.1782C38.8173 24.1872 38.6872 24.2066 38.5544 24.2285C37.9758 24.3213 37.4306 24.4914 36.937 24.7337C36.37 25.0108 35.8983 25.3639 35.4962 25.8124C35.1662 26.1797 34.893 26.605 34.683 27.0792C34.5953 27.2764 34.5206 27.4852 34.4574 27.7133C34.5876 27.6811 34.7178 27.6502 34.8479 27.6231C34.8789 27.6283 34.9072 27.6192 34.9356 27.6063L34.9304 27.6051ZM35.558 27.4594C35.5451 27.4736 35.5348 27.4891 35.5374 27.5123C35.5709 27.5123 35.6031 27.5123 35.6367 27.5135C35.6031 27.5135 35.5709 27.5135 35.5374 27.5135C35.5348 27.4916 35.5451 27.4749 35.558 27.4607V27.4594ZM25.9361 21.4602C26.0508 21.6252 26.1526 21.7978 26.2454 21.9744C26.3755 22.0105 26.5147 22.0466 26.6423 22.0646L26.6591 22.0672L26.672 22.0698C26.6823 22.0711 26.7106 22.0736 26.7312 22.0762C26.7957 22.0827 26.882 22.0904 26.98 22.1149C27.0405 22.1239 27.1101 22.1252 27.172 22.1252C27.2068 22.1252 27.2416 22.1252 27.2764 22.1252C27.3163 22.1252 27.3576 22.1252 27.3975 22.1252C27.4581 22.1252 27.5097 22.1252 27.5599 22.1291C27.5651 22.1291 27.5689 22.1291 27.5741 22.1291C27.6269 22.1291 27.6991 22.1188 27.7764 22.1072H27.7867C27.9955 22.0749 28.1618 22.0324 28.3087 21.9744C28.6528 21.8391 28.908 21.669 29.1129 21.4357C29.3049 21.2192 29.4389 20.9524 29.5343 20.5993C29.5665 20.4807 29.582 20.3905 29.5833 20.3158C29.5833 20.2745 29.5833 20.2346 29.5846 20.1933C29.5884 19.9549 29.5923 19.7294 29.5524 19.5348C29.5433 19.4909 29.5356 19.4471 29.5279 19.4046C29.5163 19.3402 29.5047 19.2744 29.4931 19.2422L29.4248 19.0657L29.4273 19.0528C29.4273 19.0528 29.4261 19.0476 29.4248 19.045C29.3848 18.8891 29.3474 18.7654 29.292 18.6623C29.234 18.5553 29.1876 18.4483 29.1464 18.3542C29.1155 18.2847 29.0858 18.2176 29.0562 18.1596C29.0098 18.0694 28.9466 17.9728 28.8796 17.871C28.8332 17.8001 28.7855 17.7279 28.7379 17.6493C27.9066 18.6197 27.0753 19.5915 26.2441 20.5632C26.092 20.7411 25.9412 20.9215 25.7866 21.098C25.7453 21.1444 25.7389 21.1818 25.7788 21.2334C25.8355 21.3068 25.8832 21.3867 25.9361 21.4628V21.4602ZM53.6756 49.2835C53.3006 49.4137 51.8945 49.817 51.5852 49.817C51.5633 49.817 51.544 49.817 51.5272 49.8145L51.2192 49.7887L51.0426 49.5361C50.9898 49.46 50.5542 48.8943 50.424 48.7474C50.2359 48.5347 50.0077 48.3233 49.7242 48.1017C49.2074 47.697 48.6532 47.389 48.0759 47.1854C47.7408 47.0681 47.4019 46.992 47.0681 46.9598H47.05L47.032 46.9547C46.9933 46.9482 46.8696 46.9392 46.6995 46.9392C46.4752 46.9392 46.3554 46.9547 46.327 46.9611L46.3077 46.965L46.2884 46.9676C45.9404 47.0217 45.6697 47.1093 45.4365 47.2446C44.9042 47.554 44.6026 47.9908 44.4879 48.6185C44.4854 48.6301 44.4828 48.6546 44.4802 48.6765C44.4686 48.7783 44.4506 48.9342 44.3732 49.1018L44.2018 49.4691L43.7959 49.4794H43.7791C43.6786 49.4794 43.6232 49.4794 42.8641 49.2474C42.4659 49.1263 42.0444 48.9909 41.7905 48.9046C41.141 48.6816 40.4734 48.42 39.8084 48.1275C39.3264 47.9148 38.8277 47.6751 38.325 47.4135C38.0119 47.2511 37.7386 47.1016 37.4873 46.9585L37.1845 46.7846L37.16 46.4353C37.1522 46.3167 37.1638 46.2175 37.1742 46.1453C37.1767 46.1273 37.1793 46.1028 37.1793 46.0951C37.187 45.7986 37.187 45.4842 37.1291 45.1968C37.1149 45.1362 37.0363 44.8321 37.004 44.7303C36.8752 44.3294 36.6883 43.9467 36.4331 43.5588C36.4164 43.533 36.3996 43.5059 36.3829 43.4789C36.3829 43.4789 36.3816 43.4763 36.3803 43.475L36.3429 43.4453L36.2849 43.3577C36.2218 43.2636 36.1418 43.167 36.0568 43.0639L35.9949 42.9891C35.7539 42.6966 35.4652 42.4182 35.1095 42.1398C34.6185 41.7532 34.0837 41.4555 33.5179 41.2531C33.1738 41.1294 32.8284 41.0495 32.492 41.016C32.4637 41.0134 32.4353 41.0096 32.407 41.007C32.3374 40.9993 32.2717 40.9915 32.2214 40.9915C32.2059 40.9915 32.1918 40.9915 32.1815 40.9941L32.0732 41.0096L31.9984 40.9954C31.9894 40.9954 31.9804 40.998 31.9714 40.998C31.9405 41.0018 31.9005 41.0057 31.8567 41.007C31.5899 41.0199 31.3257 41.0805 31.0473 41.1887L31.0422 41.1913C30.979 41.2235 30.8476 41.2892 30.6671 41.2957L30.3501 41.3086L30.1439 41.0676C30.1168 41.0366 30.0911 41.0057 30.064 40.9748C29.997 40.8974 29.9274 40.8175 29.8578 40.7312C29.8398 40.708 29.8062 40.6758 29.7727 40.641C29.707 40.5753 29.6245 40.4928 29.5472 40.3871C29.4879 40.3046 29.4183 40.2208 29.3462 40.1332L29.3307 40.1139C29.2547 40.0211 29.1799 39.9283 29.1052 39.8355L29.0008 39.7066C28.935 39.6254 28.8745 39.5455 28.8152 39.4669C28.7353 39.3625 28.6605 39.2633 28.5845 39.1744L28.5677 39.155L28.5523 39.1344L28.4981 39.0609C28.4582 39.0068 28.4195 38.954 28.3783 38.8998C28.3048 38.8019 28.2391 38.7065 28.1772 38.6137C28.1437 38.5635 28.1102 38.5132 28.0767 38.4668C28.069 38.4578 28.0613 38.4488 28.0535 38.4398C28.0007 38.3779 27.9143 38.2761 27.8525 38.1292C27.8525 38.1279 27.8499 38.1266 27.8499 38.1253C27.6811 37.8946 27.5329 37.6601 27.3885 37.4319L27.3576 37.3817C27.3228 37.3275 27.2841 37.2708 27.2442 37.2116C27.1849 37.1239 27.123 37.0337 27.0637 36.9345C27.0173 36.8571 26.98 36.7837 26.9478 36.7192C26.9233 36.669 26.8988 36.6226 26.8782 36.5891C26.7544 36.3893 26.6359 36.1793 26.525 35.964C26.4812 35.8803 26.4348 35.7952 26.3846 35.7063C26.3614 35.6637 26.3369 35.6212 26.3137 35.5787L26.2067 35.3854L26.2389 35.1676C26.2557 35.0567 26.342 34.6959 26.7725 34.576C26.9555 34.4961 27.1089 34.4098 27.2416 34.3131C27.3885 34.2049 27.5213 34.0657 27.636 33.8981C27.7416 33.7448 27.8267 33.5605 27.8976 33.3336C27.9504 33.1622 27.9697 32.9612 27.9904 32.7485L27.9994 32.6558C28.0033 32.621 27.9955 32.5526 27.9878 32.4856C27.9813 32.4225 27.9723 32.3516 27.9697 32.273C27.9672 32.2163 27.9581 32.1467 27.9427 32.0681C27.9375 32.0449 27.9259 32.0011 27.9169 31.965C27.9066 31.9237 27.8976 31.8876 27.8937 31.8735C27.8203 31.5564 27.7043 31.2407 27.5367 30.9082C27.4375 30.711 27.3138 30.5151 27.1965 30.3398L27.1707 30.3308L27.0534 30.1504C26.931 29.9622 26.7699 29.7844 26.5869 29.5885C26.3652 29.3513 26.1075 29.1245 25.7995 28.8964C25.3407 28.5575 24.878 28.3049 24.3844 28.1244L24.0158 27.9891L23.9617 27.5999C23.9307 27.3821 23.932 27.1746 23.932 26.9916C23.932 26.9542 23.932 26.9156 23.932 26.8782V26.7648C23.9307 26.6475 23.9294 26.5251 23.932 26.4001C23.9346 26.3266 23.9333 26.2493 23.932 26.1668C23.932 25.9992 23.9294 25.8085 23.9526 25.6113C23.9642 25.5121 23.972 25.4103 23.9797 25.302C23.9849 25.2298 23.9913 25.1564 23.9978 25.0842C24.0106 24.9463 24.0274 24.7646 24.0532 24.579C24.088 24.3329 24.1318 24.0416 24.1962 23.7426C24.2143 23.6601 24.2323 23.5815 24.2504 23.5016C23.4732 24.4089 22.6961 25.3175 21.919 26.2248C21.8519 26.3021 21.8017 26.3859 21.772 26.4838C21.7308 26.623 21.6818 26.7596 21.6406 26.8988C21.3803 27.7868 21.223 28.6941 21.1612 29.6181C21.1212 30.2174 21.1225 30.8154 21.1483 31.4147C21.1496 31.4572 21.1431 31.5036 21.1844 31.5345C21.4305 31.6389 21.678 31.742 21.9138 31.8696C22.7618 32.3271 23.481 32.9354 24.0712 33.6958C24.3895 34.1069 24.6512 34.5515 24.8496 35.0322C24.936 35.2423 25.0004 35.4601 25.07 35.6753C25.07 35.7359 25.0893 35.7913 25.1074 35.8467C25.1448 36.0877 25.186 36.3262 25.1924 36.571C25.1976 36.7863 25.1757 36.9976 25.1525 37.2103C25.1332 37.2683 25.0906 37.3121 25.052 37.3572C24.5352 37.9578 24.0184 38.5596 23.5029 39.1602C23.4496 39.222 23.4419 39.2891 23.4797 39.3612C23.7877 39.9438 24.1163 40.5134 24.4682 41.0701C24.8213 41.6295 25.195 42.1746 25.5894 42.7043C25.6177 42.743 25.6422 42.7855 25.6822 42.8138C25.6938 42.8319 25.7054 42.8512 25.7183 42.8693C25.9941 43.2314 26.2699 43.5936 26.5676 43.9377C26.757 44.1567 26.9452 44.3758 27.1359 44.5936C27.163 44.6246 27.1849 44.6761 27.2429 44.64C27.5097 44.5279 27.7855 44.4467 28.0703 44.3978C28.1089 44.4016 28.145 44.3913 28.1811 44.381C28.3641 44.372 28.5471 44.363 28.7301 44.3539C28.8783 44.3655 29.0278 44.3694 29.1747 44.3887C29.8849 44.4789 30.5486 44.7109 31.1723 45.0576C32.0448 45.5422 32.7769 46.1866 33.3633 46.9933C33.7228 47.4869 34.0025 48.0218 34.1829 48.6069C34.3041 49 34.3724 49.4021 34.3762 49.8145C34.3659 49.8441 34.3711 49.875 34.3762 49.9047C34.3672 50.0194 34.3556 50.1341 34.3492 50.2488C34.3466 50.2952 34.3169 50.3403 34.3427 50.388C34.3685 50.4279 34.4136 50.4395 34.451 50.4614C34.9704 50.7527 35.4988 51.0246 36.0362 51.2772C37.3842 51.9113 38.7761 52.4255 40.2169 52.8044C40.3033 52.8276 40.351 52.8044 40.4051 52.7413C41.0173 52.0311 41.632 51.3236 42.2468 50.6161C42.3228 50.5297 42.3885 50.4331 42.4813 50.3635C42.6785 50.3325 42.8757 50.299 43.0754 50.2965C43.2198 50.2952 43.3628 50.2965 43.5072 50.2965C43.9196 50.33 44.3243 50.406 44.716 50.5387C45.9159 50.9447 46.9031 51.6574 47.7099 52.6291C47.8516 52.8005 47.9728 52.9887 48.1107 53.1627C48.1094 53.1704 48.1107 53.1769 48.1107 53.1846H48.1558C48.1558 53.1769 48.1558 53.1704 48.1571 53.1627C48.197 53.155 48.237 53.1472 48.2756 53.1395C48.6906 53.0519 49.1017 52.95 49.5064 52.8199C49.9162 52.6884 50.3209 52.5492 50.7127 52.3675C50.9576 52.2541 51.205 52.1458 51.446 52.0273C51.8778 51.8146 52.2837 51.5607 52.6807 51.2901C52.7515 51.2411 52.816 51.1883 52.8727 51.1226C53.5596 50.3325 54.2465 49.5438 54.9334 48.7551C54.8445 48.8002 54.7607 48.8414 54.686 48.8749C54.3406 49.0322 53.9978 49.1701 53.6692 49.2848L53.6756 49.2835ZM58.1644 42.1952C58.118 42.1952 58.0716 42.1952 58.0252 42.1991H57.9788C57.9646 42.1991 57.9504 42.1991 57.9363 42.1991C57.6618 42.1991 57.3834 42.2532 57.1089 42.3602C56.4903 42.6025 56.1165 43.0136 55.9335 43.6516C55.8987 43.7753 55.8742 43.9054 55.8639 44.0395C55.8485 44.2199 55.8382 44.43 55.8742 44.6181L55.882 44.6568L55.8845 44.6955C55.8974 44.8939 55.9541 45.1079 56.0173 45.327C56.025 45.3527 56.0327 45.3759 56.0443 45.4081C56.0521 45.4301 56.0598 45.452 56.0676 45.4739C56.0766 45.4997 56.0843 45.5241 56.0946 45.5499C56.1281 45.6414 56.1655 45.7316 56.2054 45.8206C56.3201 45.8605 56.4348 45.903 56.5483 45.9494C56.663 45.9971 56.663 45.9984 56.7429 45.9082C57.6618 44.8527 58.5807 43.7972 59.4995 42.7417C59.5627 42.6695 59.6259 42.596 59.6877 42.5226C59.4751 42.4375 59.274 42.3705 59.0781 42.3203C58.7379 42.2339 58.4389 42.1927 58.1644 42.1927V42.1952Z" fill="black"/>
<path d="M42.177 16.5834L47.0731 18.6957C47.0731 18.6957 46.8411 19.9561 47.537 21.3467C48.2329 22.7385 50.3092 24.6292 51.8467 24.8019C53.4486 24.9823 54.5711 24.5892 54.5711 24.5892L57.4154 28.7378C57.4154 28.7378 55.4668 29.4943 55.9411 32.8154C56.4566 36.4279 59.9904 37.1096 59.9814 37.4705C59.9724 37.8313 59.7481 40.4978 59.5406 40.8484C59.4878 40.9386 57.5353 40.2053 55.8509 41.4837C52.7772 43.819 55.0132 46.9636 55.0132 46.9636L51.8467 48.2936C51.8467 48.2936 53.9177 44.9943 51.9588 42.5444C50.7164 40.9901 48.6763 41.119 48.751 41.0868C55.1395 38.3391 52.4885 31.7548 52.4885 31.7548C52.4885 31.7548 50.1287 25.8187 45.0922 23.5956C37.4214 20.2087 34.4521 23.4989 34.4521 23.4989C33.9044 21.1624 30.8745 21.5529 30.8745 21.5529C31.7573 19.4689 30.386 17.3579 30.386 17.3579L33.2909 16.0988C33.2909 16.0988 37.1946 21.1495 41.3535 17.9752C42.2814 17.2677 42.177 16.5808 42.177 16.5808V16.5834Z" fill="white"/>
<path d="M48.28 53.138L33.5803 54.1832L37.8487 49.6493L47.8264 50.0089L48.28 53.138Z" fill="black"/>
</g>
<defs>
<clipPath id="clip0_15980_10899">
<rect width="100" height="100" fill="white"/>
</clipPath>
</defs>
</svg>
