<svg width="100" height="100" viewBox="0 0 100 100" fill="none" xmlns="http://www.w3.org/2000/svg">
<g clip-path="url(#clip0_15980_10897)">
<rect width="100" height="100" fill="#C7FFC6"/>
<path d="M100.027 35.1917L90.047 35.4327L71.6072 24.7655C70.4112 24.0722 68.6482 24.326 67.6997 25.3248L39.3583 55.1109L23.8002 65.4739V70.9177C23.835 71.5338 24.1972 72.1214 24.848 72.4965L52.2202 88.3303C53.4162 89.0237 55.1792 88.7698 56.1278 87.771L99.4266 42.2645C99.8442 41.825 100.043 41.3159 100.035 40.8275V35.193H100.028L100.027 35.1917Z" fill="black"/>
<path d="M56.1262 82.1854C55.1712 83.1906 53.4146 83.4381 52.2187 82.7447L24.8464 66.9109C23.6505 66.2175 23.452 64.8295 24.4005 63.832L67.6994 18.3242C68.6544 17.3189 70.411 17.0715 71.6069 17.7649L98.9792 33.5987C100.175 34.2921 100.374 35.6801 99.4251 36.6776L56.1262 82.1841V82.1854Z" fill="#11B57A"/>
<path d="M85.0493 32.6011L80.4058 29.8831C79.9251 29.5996 79.8324 28.9423 80.2151 28.5376C80.7525 27.9718 81.6031 27.8584 82.2746 28.2476L86.918 30.9657C87.4065 31.2492 87.4915 31.9142 87.1023 32.3176H87.0959C86.5584 32.8769 85.7156 32.9903 85.0506 32.6011H85.0493Z" fill="#024731"/>
<path d="M47.3641 69.6935C47.3074 71.3354 45.4465 72.7234 43.2014 72.7866C40.9577 72.8497 39.1882 71.5764 39.2513 69.9345C39.308 68.2926 41.169 66.9046 43.4141 66.8415C45.6578 66.7783 47.4273 68.0516 47.3641 69.6935Z" fill="#024731"/>
<path d="M77.863 27.9219C78.6286 27.842 79.2021 27.3239 79.1441 26.7633C79.0861 26.2039 78.4172 25.8147 77.6517 25.8946C76.8861 25.9745 76.3126 26.4926 76.3706 27.0532C76.4286 27.6126 77.0975 28.0018 77.863 27.9232V27.9219Z" fill="#024731"/>
<path d="M6.50479 33.2269C6.50479 33.2269 8.62869 40.2623 17.2287 42.2096C17.2287 42.2096 10.7101 43.3347 10.5825 51.164C10.5825 51.164 8.28845 44.3825 0.0351562 42.2032C0.0351562 42.2032 6.93008 41.3822 6.50479 33.2282V33.2269Z" fill="#006A4D"/>
<path d="M54.9165 11.2803C54.9165 11.2803 55.8509 14.3733 59.6373 15.2304C59.6373 15.2304 56.7711 15.7252 56.7066 19.1727C56.7066 19.1727 55.695 16.1853 52.0632 15.2304C52.0632 15.2304 55.0995 14.8695 54.9088 11.2803H54.9165Z" fill="#006A4D"/>
<path d="M68.8893 45.1508C68.8893 45.1508 70.2631 49.7028 75.8332 50.9619C75.8332 50.9619 71.615 51.6913 71.53 56.7588C71.53 56.7588 70.044 52.3705 64.7059 50.9619C64.7059 50.9619 69.1651 50.4309 68.8893 45.1573V45.1495V45.1508Z" fill="#006A4D"/>
<path d="M58.3018 29.1837L56.4137 36.0825L60.7801 36.9717L60.1331 41.9915L56.7411 45.9094L56.2024 47.2806L52.8786 51.1199L47.5753 49.1622L45.4798 49.7009L38.4096 50.286L34.8732 46.8192L54.0566 28.7494L58.3018 29.1837Z" fill="#006A4D"/>
<path d="M60.7801 36.9717C60.7788 36.8622 60.7471 36.798 60.6337 36.7593C60.4894 36.7116 60.3515 36.6433 60.2149 36.5763C59.314 36.1304 58.5485 35.5144 57.9222 34.7269C57.4337 34.1148 57.069 33.4381 56.8679 32.6778C56.7597 32.2679 56.7146 31.8517 56.7442 31.429C56.7532 31.2962 56.7648 31.1622 56.8099 31.0346C56.8177 30.8761 56.8757 30.7304 56.9324 30.5861C57.194 29.9301 57.6554 29.4662 58.3023 29.1852C58.3462 29.1659 58.4493 29.1336 58.4544 29.1272C58.4686 29.0821 58.4364 29.0499 58.4183 29.0151C58.1864 28.5743 57.9402 28.14 57.6799 27.7147C56.8718 26.3937 55.9555 25.1526 54.9283 23.994C54.8716 23.9296 54.8136 23.8664 54.7595 23.8007C54.7363 23.7724 54.7131 23.7569 54.6848 23.7569C54.6693 23.7569 54.6525 23.7608 54.6345 23.7698C54.5842 23.7943 54.5327 23.8149 54.4798 23.8342C54.0881 23.9811 53.6898 24.043 53.2864 24.043C53.0364 24.043 52.7851 24.0198 52.5312 23.9773C51.9912 23.8883 51.4796 23.7079 50.9911 23.4631C50.2785 23.1048 49.6521 22.6318 49.107 22.0506C48.5399 21.4461 48.0953 20.7657 47.8169 19.9821C47.6055 19.388 47.5153 18.7784 47.5991 18.1494C47.6094 18.0734 47.5901 18.0283 47.5192 17.9884C47.121 17.7693 46.7201 17.5566 46.3129 17.3556C45.1105 16.7589 43.8694 16.2588 42.5858 15.867C42.3087 15.782 42.0316 15.6956 41.7481 15.6351C41.7403 15.6351 41.7326 15.6351 41.7249 15.6351C41.7081 15.6351 41.6927 15.6325 41.6798 15.6157C41.6733 15.6131 41.6682 15.6119 41.6617 15.6119C41.654 15.6119 41.6463 15.6144 41.6385 15.6209C41.6321 15.8516 41.5908 16.0784 41.5135 16.2936C41.4053 16.5926 41.2764 16.8865 41.0624 17.1275C40.873 17.3401 40.6707 17.5386 40.4142 17.6778C40.208 17.7899 40.0018 17.893 39.7762 17.96C39.7131 17.9793 39.5533 18.0206 39.5352 18.0231C39.2723 18.0747 39.0094 18.0992 38.7465 18.0992C38.4591 18.0992 38.1717 18.0695 37.8843 18.0115C37.1343 17.8608 36.4474 17.5566 35.8094 17.1378C35.0697 16.6519 34.4446 16.0487 33.9458 15.3167C33.8995 15.2497 33.8827 15.2278 33.8415 15.2278C33.8208 15.2278 33.7938 15.233 33.7525 15.242C33.1829 15.3554 32.6223 15.5036 32.072 15.6892C31.2369 15.9714 30.443 16.3413 29.6916 16.8027C29.5215 16.9071 29.3488 17.0102 29.1929 17.1378C29.1954 17.1867 29.2405 17.2099 29.2625 17.2473C29.381 17.4548 29.5292 17.6442 29.6401 17.8595C29.7225 18.0206 29.7844 18.1907 29.8695 18.3505C29.9597 18.5193 30.0125 18.6985 30.0602 18.8815C30.0705 18.924 30.1143 18.9549 30.104 19.0039C30.1543 19.1328 30.1672 19.2694 30.1942 19.4021C30.2561 19.7063 30.2419 20.0143 30.2381 20.3223C30.2368 20.4744 30.2058 20.6252 30.1659 20.7695C30.0563 21.1742 29.8862 21.5467 29.604 21.8676C29.3114 22.1988 28.9544 22.423 28.5485 22.5828C28.3332 22.6679 28.109 22.7181 27.8835 22.7517C27.7829 22.7671 27.6798 22.7826 27.5742 22.7826C27.5587 22.7826 27.5445 22.7826 27.5291 22.7826C27.4852 22.78 27.4414 22.78 27.3976 22.78C27.3228 22.78 27.2468 22.7813 27.1708 22.7813C27.0599 22.7813 26.9491 22.7774 26.8396 22.7568C26.7442 22.7285 26.645 22.7336 26.5483 22.7143C26.364 22.6872 26.1849 22.6382 26.0057 22.5893C25.7802 22.5261 25.5637 22.4359 25.3433 22.3573C25.342 22.3573 25.3394 22.3573 25.3381 22.3573C25.3227 22.3573 25.3085 22.3534 25.2982 22.3392C25.2917 22.3354 25.2853 22.3341 25.2789 22.3341C25.2711 22.3341 25.2634 22.3367 25.2569 22.3431C25.2157 22.4733 25.1745 22.6047 25.1319 22.7349C25.0069 23.1112 24.9193 23.4979 24.8342 23.8845C24.7775 24.1435 24.7363 24.4064 24.6989 24.6706C24.677 24.8279 24.6615 24.9864 24.6474 25.1449C24.6306 25.3253 24.6216 25.507 24.601 25.6862C24.5739 25.9311 24.5907 26.1759 24.5842 26.4208C24.5803 26.5729 24.5842 26.7262 24.5842 26.8783C24.5842 27.0897 24.5778 27.301 24.6074 27.5124C25.177 27.7199 25.7003 28.0124 26.1874 28.3733C26.5019 28.6053 26.7983 28.8591 27.0651 29.1452C27.2571 29.3515 27.4479 29.5589 27.6012 29.7974C27.6399 29.8115 27.6515 29.8502 27.6721 29.8798C27.8332 30.1196 27.9917 30.3606 28.1206 30.6183C28.2984 30.9727 28.4402 31.3426 28.5304 31.7292C28.5382 31.7615 28.5755 31.9006 28.5833 31.9393C28.6039 32.0411 28.6181 32.1442 28.6232 32.246C28.631 32.4046 28.667 32.5631 28.6503 32.7229C28.6232 32.9948 28.6039 33.2654 28.5214 33.5309C28.4389 33.7964 28.3294 34.0464 28.1734 34.2733C28.0227 34.4898 27.8435 34.6831 27.6296 34.8416C27.4311 34.9885 27.2159 35.102 26.9891 35.1973C26.953 35.2128 26.8937 35.2063 26.886 35.2656C26.9594 35.3997 27.0355 35.5311 27.1063 35.6664C27.2094 35.8649 27.319 36.0582 27.4363 36.249C27.5071 36.3624 27.5561 36.4861 27.6244 36.6008C27.7146 36.7503 27.8177 36.8895 27.9105 37.0364C28.0613 37.2748 28.2108 37.5145 28.3784 37.7426C28.4093 37.7839 28.4351 37.8277 28.4557 37.878C28.4892 37.9604 28.5601 38.0197 28.6103 38.0919C28.7083 38.2311 28.7985 38.3754 28.9016 38.5108C28.9609 38.5894 29.0202 38.6693 29.0782 38.7492C29.2315 38.9257 29.3643 39.1178 29.5099 39.2995C29.6182 39.4335 29.7264 39.5688 29.836 39.7029C29.9184 39.8034 30.0009 39.9026 30.077 40.007C30.1607 40.123 30.278 40.2119 30.3682 40.3241C30.4559 40.4336 30.5499 40.538 30.6414 40.645C30.6994 40.6424 30.7458 40.6076 30.7974 40.587C31.1286 40.4555 31.4688 40.373 31.8258 40.3563C31.889 40.3537 31.9521 40.3421 32.0153 40.3421C32.041 40.3421 32.0668 40.3434 32.0926 40.3485C32.1364 40.3421 32.1802 40.3395 32.224 40.3395C32.3362 40.3395 32.4483 40.3563 32.5591 40.3666C32.9625 40.4078 33.3569 40.5019 33.7396 40.6385C34.3853 40.8692 34.9769 41.203 35.5156 41.627C35.8751 41.9105 36.2089 42.2198 36.5015 42.5755C36.6149 42.7134 36.7309 42.8475 36.8301 42.9957C36.8984 43.0498 36.9332 43.1297 36.9796 43.1993C37.2541 43.6143 37.4745 44.0563 37.6266 44.5306C37.6691 44.6633 37.7593 45.0178 37.7683 45.0616C37.8405 45.4095 37.8431 45.7614 37.8328 46.1132C37.8302 46.2047 37.8057 46.2962 37.8122 46.389C38.0802 46.5424 38.3509 46.6893 38.6254 46.8311C39.1009 47.0772 39.5829 47.3105 40.0727 47.527C40.7055 47.8067 41.3473 48.0606 42.002 48.2848C42.52 48.4626 43.698 48.8235 43.7779 48.8235C43.8256 48.7217 43.8217 48.6083 43.8423 48.5C43.988 47.701 44.4004 47.0875 45.1053 46.6777C45.4404 46.4831 45.8051 46.3787 46.1866 46.3194C46.3039 46.2936 46.5049 46.2833 46.697 46.2833C46.8696 46.2833 47.0359 46.2924 47.1287 46.3065C47.5256 46.3452 47.9136 46.4341 48.2899 46.5656C48.96 46.8001 49.5683 47.1468 50.1264 47.585C50.4086 47.8054 50.6754 48.0438 50.9125 48.3119C51.0594 48.4768 51.5105 49.0619 51.5788 49.1612C51.5801 49.1612 51.5827 49.1612 51.584 49.1612C51.7283 49.1612 52.9578 48.839 53.4591 48.6637C53.7852 48.5503 54.1061 48.4188 54.4206 48.2758C54.9979 48.0129 56.1913 47.2847 56.2029 47.2783C56.2751 47.2241 56.2751 47.2241 56.2339 47.1597C56.2184 47.1352 56.1991 47.1107 56.1823 47.0875C55.8936 46.6803 55.6565 46.246 55.4812 45.7781C55.4696 45.7472 55.4593 45.715 55.4477 45.6841C55.4284 45.6261 55.4078 45.5745 55.3871 45.5049C55.3163 45.2523 55.2492 45.001 55.2312 44.7381C55.1835 44.4881 55.1912 44.2368 55.2119 43.9842C55.226 43.8102 55.257 43.6388 55.3047 43.4699C55.5418 42.6387 56.0663 42.0639 56.8705 41.7494C57.212 41.6154 57.5677 41.5432 57.9363 41.5432C57.9544 41.5432 57.9724 41.5432 57.9918 41.5432C58.0497 41.5407 58.1077 41.5381 58.1644 41.5381C58.5279 41.5381 58.8849 41.5961 59.238 41.685C59.5022 41.752 59.7574 41.8409 60.0087 41.944C60.0499 41.9608 60.0886 41.9827 60.1337 41.9891C60.1672 41.9647 60.1685 41.9247 60.1801 41.8912C60.2948 41.5497 60.3914 41.2017 60.4726 40.8499C60.7046 39.8485 60.8064 38.8329 60.8051 37.8058C60.8051 37.5261 60.7858 37.2478 60.7807 36.9694L60.7801 36.9717ZM51.8443 35.1496C51.8366 35.3455 51.8263 35.5414 51.8056 35.736C51.7837 35.9461 51.7541 36.1536 51.7141 36.3611C51.6897 36.4887 51.6587 36.6137 51.6201 36.7374C51.5762 36.8792 51.5427 37.0235 51.4938 37.164C51.361 37.5442 51.1935 37.9076 50.977 38.2466C50.8081 38.512 50.62 38.7646 50.4086 39.0005C50.0478 39.4026 49.6328 39.7325 49.1675 40.0032C48.8969 40.1604 48.6159 40.2931 48.326 40.413C48.2937 40.4259 48.1868 40.4723 48.1739 40.4723C47.9329 40.5483 47.6919 40.6256 47.4457 40.6823C46.8709 40.8164 46.2884 40.8782 45.702 40.8782C45.5706 40.8782 45.4378 40.8756 45.3064 40.8692C44.1246 40.8138 42.9892 40.5444 41.8898 40.1127C40.6475 39.6243 39.5108 38.9541 38.4617 38.1319C37.3083 37.2271 36.3095 36.1755 35.4872 34.9615C34.7642 33.8931 34.2088 32.7474 33.875 31.4973C33.6469 30.6428 33.5438 29.7742 33.5927 28.8901C33.6082 28.604 33.6469 28.3204 33.701 28.0382C33.7087 27.9982 33.7422 27.8449 33.7512 27.8075C33.8311 27.4673 33.9355 27.1335 34.0786 26.8139C34.3131 26.2868 34.6173 25.806 35.0039 25.3756C35.4692 24.8562 36.0195 24.4515 36.6445 24.1461C37.2167 23.8664 37.8186 23.6834 38.4462 23.5829C38.5932 23.5597 38.7388 23.5365 38.887 23.5262C39.1654 23.494 39.4437 23.4759 39.7234 23.4759C39.8085 23.4759 39.8935 23.4772 39.9773 23.4811C40.5083 23.503 41.0354 23.5636 41.5586 23.6654C42.3087 23.8123 43.0356 24.0378 43.7418 24.3291C44.4274 24.6126 45.0834 24.9542 45.7123 25.3472C46.3219 25.7287 46.8993 26.154 47.4457 26.6205C47.9419 27.0433 48.4072 27.4995 48.8376 27.9879C49.058 28.238 49.2745 28.4918 49.4755 28.7586C49.5142 28.8089 49.6212 28.9481 49.6392 28.9726C49.8171 29.2239 49.9988 29.4713 50.1496 29.7407C50.2295 29.8824 50.3377 30.0074 50.4099 30.1544C50.5594 30.4572 50.7527 30.7356 50.879 31.0501C50.9254 31.1673 50.9886 31.2782 51.0363 31.3942C51.2154 31.8285 51.3881 32.2654 51.5066 32.7216C51.5105 32.7358 51.5105 32.7512 51.5118 32.7654C51.5762 32.8878 51.5943 33.0245 51.6226 33.1572C51.669 33.3698 51.7077 33.5851 51.7489 33.799C51.7657 33.8828 51.7696 33.9678 51.7773 34.0516C51.794 34.2501 51.8237 34.4485 51.8327 34.6483C51.8404 34.8146 51.852 34.9821 51.8456 35.1483L51.8443 35.1496Z" fill="#6CF379"/>
<path d="M34.9304 27.606C34.9459 27.6047 34.9613 27.6022 34.9768 27.6009C35.0077 27.606 35.0374 27.597 35.0644 27.5841C35.0799 27.5828 35.0954 27.5803 35.1108 27.579C35.1559 27.5841 35.1985 27.5738 35.2397 27.5609C35.2565 27.5596 35.2719 27.5583 35.2887 27.5571C35.3338 27.5609 35.3763 27.5506 35.4188 27.539C35.442 27.5377 35.4652 27.5364 35.4897 27.5351C35.5555 27.5403 35.6199 27.5287 35.6843 27.5158C35.8222 27.5107 35.9588 27.5016 36.0967 27.4991C36.9203 27.4849 37.7309 27.5841 38.5312 27.7749C39.3483 27.9695 40.1332 28.2556 40.891 28.6164C41.5921 28.9502 42.2571 29.342 42.8924 29.7879C43.7237 30.373 44.4854 31.0367 45.1761 31.7817C45.8386 32.4969 46.4211 33.2715 46.916 34.113C47.0526 34.3463 47.1763 34.5873 47.3039 34.8257C47.3129 34.8502 47.3207 34.8747 47.3323 34.8979C47.4663 35.1505 47.5758 35.4134 47.6841 35.6776C47.8143 35.9972 47.9199 36.3246 48.0256 36.6532C48.0217 36.6751 48.0243 36.697 48.0308 36.7189C48.2138 37.3182 48.3182 37.933 48.3568 38.5567C48.38 38.9369 48.3774 39.3158 48.3414 39.6921C48.5205 39.6096 48.6868 39.5259 48.8401 39.437C49.259 39.1934 49.6134 38.9073 49.9214 38.5632C50.1018 38.3621 50.2655 38.1443 50.4253 37.8943C50.6057 37.6108 50.7539 37.3015 50.8764 36.9483C50.8983 36.8865 50.9176 36.8156 50.9382 36.7408C50.9563 36.6777 50.9743 36.612 50.9962 36.5424C51.0259 36.4496 51.0504 36.3491 51.0723 36.2369C51.1071 36.0591 51.1341 35.8722 51.156 35.6686C51.1741 35.501 51.1831 35.3296 51.1908 35.1234C51.1947 35.0152 51.1895 34.8953 51.1831 34.769L51.1792 34.6814C51.1741 34.5757 51.1625 34.4649 51.1496 34.3476C51.1406 34.269 51.1328 34.1904 51.1251 34.1105L51.12 34.055C51.1161 34.0035 51.1122 33.9558 51.1058 33.9249C51.0955 33.8682 51.0839 33.8128 51.0736 33.7561C51.0439 33.5975 51.0143 33.4467 50.9821 33.2972C50.9756 33.2676 50.9692 33.2367 50.964 33.207C50.955 33.1581 50.9408 33.091 50.9331 33.073L50.8751 32.9635L50.8622 32.8449C50.7514 32.4325 50.589 32.0265 50.4318 31.6438C50.4163 31.6051 50.3944 31.5613 50.3712 31.5136C50.3402 31.4491 50.3042 31.3757 50.2719 31.2932C50.2127 31.1463 50.1263 30.9942 50.0348 30.8331C49.9639 30.7094 49.8918 30.5818 49.8234 30.4426C49.8041 30.4027 49.7667 30.3485 49.7268 30.2918C49.6804 30.2248 49.6288 30.1488 49.5799 30.0611C49.4613 29.8498 49.3157 29.6449 49.161 29.4271L49.1095 29.3549C49.0966 29.3381 49.0669 29.2982 49.036 29.2595C49.0038 29.2183 48.9716 29.177 48.9548 29.1526C48.7551 28.8871 48.5373 28.6345 48.3491 28.4218C47.947 27.9656 47.4998 27.5274 47.0229 27.1189C46.5023 26.6742 45.9442 26.2644 45.3669 25.9023C44.7637 25.5234 44.1335 25.1986 43.4943 24.9344C42.8151 24.6535 42.1217 24.4434 41.4361 24.3081C40.9593 24.2153 40.4605 24.156 39.954 24.1354C39.8793 24.1328 39.8033 24.1302 39.7272 24.1302C39.4862 24.1302 39.2362 24.1457 38.9655 24.1766H38.9527L38.9398 24.1792C38.8173 24.1882 38.6872 24.2075 38.5544 24.2294C37.9758 24.3222 37.4306 24.4924 36.937 24.7346C36.37 25.0117 35.8983 25.3649 35.4962 25.8133C35.1662 26.1806 34.893 26.6059 34.683 27.0802C34.5953 27.2774 34.5206 27.4862 34.4574 27.7143C34.5876 27.6821 34.7178 27.6511 34.8479 27.6241C34.8789 27.6292 34.9072 27.6202 34.9356 27.6073L34.9304 27.606ZM35.558 27.4604C35.5451 27.4746 35.5348 27.49 35.5374 27.5132C35.5709 27.5132 35.6031 27.5132 35.6367 27.5145C35.6031 27.5145 35.5709 27.5145 35.5374 27.5145C35.5348 27.4926 35.5451 27.4759 35.558 27.4617V27.4604ZM25.9361 21.4612C26.0508 21.6261 26.1526 21.7988 26.2454 21.9754C26.3755 22.0115 26.5147 22.0476 26.6423 22.0656L26.6591 22.0682L26.672 22.0708C26.6823 22.072 26.7106 22.0746 26.7312 22.0772C26.7957 22.0836 26.882 22.0914 26.98 22.1159C27.0405 22.1249 27.1101 22.1262 27.172 22.1262C27.2068 22.1262 27.2416 22.1262 27.2764 22.1262C27.3163 22.1262 27.3576 22.1262 27.3975 22.1262C27.4581 22.1262 27.5097 22.1262 27.5599 22.13C27.5651 22.13 27.5689 22.13 27.5741 22.13C27.6269 22.13 27.6991 22.1197 27.7764 22.1081H27.7867C27.9955 22.0759 28.1618 22.0334 28.3087 21.9754C28.6528 21.8401 28.908 21.6699 29.1129 21.4367C29.3049 21.2202 29.4389 20.9534 29.5343 20.6003C29.5665 20.4817 29.582 20.3915 29.5833 20.3167C29.5833 20.2755 29.5833 20.2355 29.5846 20.1943C29.5884 19.9559 29.5923 19.7303 29.5524 19.5357C29.5433 19.4919 29.5356 19.4481 29.5279 19.4056C29.5163 19.3411 29.5047 19.2754 29.4931 19.2432L29.4248 19.0666L29.4273 19.0537C29.4273 19.0537 29.4261 19.0486 29.4248 19.046C29.3848 18.8901 29.3474 18.7663 29.292 18.6632C29.234 18.5563 29.1876 18.4493 29.1464 18.3552C29.1155 18.2856 29.0858 18.2186 29.0562 18.1606C29.0098 18.0704 28.9466 17.9737 28.8796 17.8719C28.8332 17.8011 28.7855 17.7289 28.7379 17.6503C27.9066 18.6207 27.0753 19.5924 26.2441 20.5642C26.092 20.742 25.9412 20.9225 25.7866 21.099C25.7453 21.1454 25.7389 21.1828 25.7788 21.2343C25.8355 21.3078 25.8832 21.3877 25.9361 21.4637V21.4612ZM53.6756 49.2845C53.3006 49.4146 51.8945 49.818 51.5852 49.818C51.5633 49.818 51.544 49.818 51.5272 49.8154L51.2192 49.7897L51.0426 49.5371C50.9898 49.461 50.5542 48.8952 50.424 48.7483C50.2359 48.5357 50.0077 48.3243 49.7242 48.1027C49.2074 47.698 48.6532 47.39 48.0759 47.1863C47.7408 47.0691 47.4019 46.993 47.0681 46.9608H47.05L47.032 46.9557C46.9933 46.9492 46.8696 46.9402 46.6995 46.9402C46.4752 46.9402 46.3554 46.9556 46.327 46.9621L46.3077 46.966L46.2884 46.9685C45.9404 47.0227 45.6697 47.1103 45.4365 47.2456C44.9042 47.5549 44.6026 47.9918 44.4879 48.6195C44.4854 48.6311 44.4828 48.6555 44.4802 48.6775C44.4686 48.7793 44.4506 48.9352 44.3732 49.1027L44.2018 49.47L43.7959 49.4804H43.7791C43.6786 49.4804 43.6232 49.4804 42.8641 49.2484C42.4659 49.1272 42.0444 48.9919 41.7905 48.9056C41.141 48.6826 40.4734 48.421 39.8084 48.1284C39.3264 47.9158 38.8277 47.6761 38.325 47.4145C38.0119 47.2521 37.7386 47.1026 37.4873 46.9595L37.1845 46.7855L37.16 46.4363C37.1522 46.3177 37.1638 46.2185 37.1742 46.1463C37.1767 46.1283 37.1793 46.1038 37.1793 46.096C37.187 45.7996 37.187 45.4852 37.1291 45.1978C37.1149 45.1372 37.0363 44.833 37.004 44.7312C36.8752 44.3304 36.6883 43.9477 36.4331 43.5597C36.4164 43.534 36.3996 43.5069 36.3829 43.4798C36.3829 43.4798 36.3816 43.4773 36.3803 43.476L36.3429 43.4463L36.2849 43.3587C36.2218 43.2646 36.1418 43.1679 36.0568 43.0648L35.9949 42.9901C35.7539 42.6975 35.4652 42.4192 35.1095 42.1408C34.6185 41.7542 34.0837 41.4565 33.5179 41.2541C33.1738 41.1304 32.8284 41.0505 32.492 41.017C32.4637 41.0144 32.4353 41.0105 32.407 41.008C32.3374 41.0002 32.2717 40.9925 32.2214 40.9925C32.2059 40.9925 32.1918 40.9925 32.1815 40.9951L32.0732 41.0105L31.9984 40.9964C31.9894 40.9964 31.9804 40.9989 31.9714 40.9989C31.9405 41.0028 31.9005 41.0067 31.8567 41.008C31.5899 41.0209 31.3257 41.0814 31.0473 41.1897L31.0422 41.1923C30.979 41.2245 30.8476 41.2902 30.6671 41.2967L30.3501 41.3095L30.1439 41.0685C30.1168 41.0376 30.0911 41.0067 30.064 40.9757C29.997 40.8984 29.9274 40.8185 29.8578 40.7322C29.8398 40.709 29.8062 40.6768 29.7727 40.642C29.707 40.5762 29.6245 40.4937 29.5472 40.3881C29.4879 40.3056 29.4183 40.2218 29.3462 40.1342L29.3307 40.1148C29.2547 40.0221 29.1799 39.9293 29.1052 39.8365L29.0008 39.7076C28.935 39.6264 28.8745 39.5465 28.8152 39.4679C28.7353 39.3635 28.6605 39.2643 28.5845 39.1753L28.5677 39.156L28.5523 39.1354L28.4981 39.0619C28.4582 39.0078 28.4195 38.955 28.3783 38.9008C28.3048 38.8029 28.2391 38.7075 28.1772 38.6147C28.1437 38.5645 28.1102 38.5142 28.0767 38.4678C28.069 38.4588 28.0613 38.4498 28.0535 38.4407C28.0007 38.3789 27.9143 38.2771 27.8525 38.1301C27.8525 38.1289 27.8499 38.1276 27.8499 38.1263C27.6811 37.8956 27.5329 37.661 27.3885 37.4329L27.3576 37.3827C27.3228 37.3285 27.2841 37.2718 27.2442 37.2125C27.1849 37.1249 27.123 37.0347 27.0637 36.9354C27.0173 36.8581 26.98 36.7847 26.9478 36.7202C26.9233 36.67 26.8988 36.6236 26.8782 36.5901C26.7544 36.3903 26.6359 36.1802 26.525 35.965C26.4812 35.8812 26.4348 35.7962 26.3846 35.7072C26.3614 35.6647 26.3369 35.6222 26.3137 35.5797L26.2067 35.3863L26.2389 35.1685C26.2557 35.0577 26.342 34.6969 26.7725 34.577C26.9555 34.4971 27.1089 34.4107 27.2416 34.3141C27.3885 34.2058 27.5213 34.0666 27.636 33.8991C27.7416 33.7457 27.8267 33.5614 27.8976 33.3346C27.9504 33.1632 27.9697 32.9622 27.9904 32.7495L27.9994 32.6567C28.0033 32.6219 27.9955 32.5536 27.9878 32.4866C27.9813 32.4235 27.9723 32.3526 27.9697 32.274C27.9672 32.2173 27.9581 32.1477 27.9427 32.069C27.9375 32.0458 27.9259 32.002 27.9169 31.9659C27.9066 31.9247 27.8976 31.8886 27.8937 31.8744C27.8203 31.5574 27.7043 31.2417 27.5367 30.9092C27.4375 30.712 27.3138 30.5161 27.1965 30.3408L27.1707 30.3318L27.0534 30.1514C26.931 29.9632 26.7699 29.7853 26.5869 29.5895C26.3652 29.3523 26.1075 29.1255 25.7995 28.8974C25.3407 28.5584 24.878 28.3058 24.3844 28.1254L24.0158 27.9901L23.9617 27.6009C23.9307 27.3831 23.932 27.1756 23.932 26.9926C23.932 26.9552 23.932 26.9165 23.932 26.8792V26.7657C23.9307 26.6485 23.9294 26.526 23.932 26.401C23.9346 26.3276 23.9333 26.2502 23.932 26.1678C23.932 26.0002 23.9294 25.8095 23.9526 25.6123C23.9642 25.5131 23.972 25.4113 23.9797 25.303C23.9849 25.2308 23.9913 25.1574 23.9978 25.0852C24.0106 24.9473 24.0274 24.7656 24.0532 24.58C24.088 24.3338 24.1318 24.0426 24.1962 23.7436C24.2143 23.6611 24.2323 23.5825 24.2504 23.5026C23.4732 24.4099 22.6961 25.3185 21.919 26.2258C21.8519 26.3031 21.8017 26.3869 21.772 26.4848C21.7308 26.624 21.6818 26.7606 21.6406 26.8998C21.3803 27.7877 21.223 28.695 21.1612 29.6191C21.1212 30.2184 21.1225 30.8164 21.1483 31.4156C21.1496 31.4582 21.1431 31.5046 21.1844 31.5355C21.4305 31.6399 21.678 31.743 21.9138 31.8706C22.7618 32.3281 23.481 32.9364 24.0712 33.6968C24.3895 34.1079 24.6512 34.5525 24.8496 35.0332C24.936 35.2433 25.0004 35.4611 25.07 35.6763C25.07 35.7369 25.0893 35.7923 25.1074 35.8477C25.1448 36.0887 25.186 36.3272 25.1924 36.572C25.1976 36.7872 25.1757 36.9986 25.1525 37.2112C25.1332 37.2692 25.0906 37.3131 25.052 37.3582C24.5352 37.9587 24.0184 38.5606 23.5029 39.1612C23.4496 39.223 23.4419 39.29 23.4797 39.3622C23.7877 39.9447 24.1163 40.5144 24.4682 41.0711C24.8213 41.6304 25.195 42.1756 25.5894 42.7053C25.6177 42.7439 25.6422 42.7865 25.6822 42.8148C25.6938 42.8329 25.7054 42.8522 25.7183 42.8702C25.9941 43.2324 26.2699 43.5945 26.5676 43.9386C26.757 44.1577 26.9452 44.3768 27.1359 44.5946C27.163 44.6255 27.1849 44.6771 27.2429 44.641C27.5097 44.5289 27.7855 44.4477 28.0703 44.3987C28.1089 44.4026 28.145 44.3923 28.1811 44.382C28.3641 44.373 28.5471 44.3639 28.7301 44.3549C28.8783 44.3665 29.0278 44.3704 29.1747 44.3897C29.8849 44.4799 30.5486 44.7119 31.1723 45.0586C32.0448 45.5432 32.7769 46.1875 33.3633 46.9943C33.7228 47.4879 34.0025 48.0228 34.1829 48.6079C34.3041 49.0009 34.3724 49.403 34.3762 49.8154C34.3659 49.8451 34.3711 49.876 34.3762 49.9057C34.3672 50.0204 34.3556 50.1351 34.3492 50.2498C34.3466 50.2961 34.3169 50.3413 34.3427 50.3889C34.3685 50.4289 34.4136 50.4405 34.451 50.4624C34.9704 50.7537 35.4988 51.0256 36.0362 51.2782C37.3842 51.9123 38.7761 52.4265 40.2169 52.8054C40.3033 52.8286 40.351 52.8054 40.4051 52.7422C41.0173 52.0321 41.632 51.3246 42.2468 50.6171C42.3228 50.5307 42.3885 50.434 42.4813 50.3645C42.6785 50.3335 42.8757 50.3 43.0754 50.2974C43.2198 50.2961 43.3628 50.2974 43.5072 50.2974C43.9196 50.3309 44.3243 50.407 44.716 50.5397C45.9159 50.9457 46.9031 51.6584 47.7099 52.6301C47.8516 52.8015 47.9728 52.9897 48.1107 53.1637C48.1094 53.1714 48.1107 53.1778 48.1107 53.1856H48.1558C48.1558 53.1778 48.1558 53.1714 48.1571 53.1637C48.197 53.1559 48.237 53.1482 48.2756 53.1405C48.6906 53.0528 49.1017 52.951 49.5064 52.8209C49.9162 52.6894 50.3209 52.5502 50.7127 52.3685C50.9576 52.2551 51.205 52.1468 51.446 52.0283C51.8778 51.8156 52.2837 51.5617 52.6807 51.2911C52.7515 51.2421 52.816 51.1893 52.8727 51.1235C53.5596 50.3335 54.2465 49.5448 54.9334 48.7561C54.8445 48.8012 54.7607 48.8424 54.686 48.8759C54.3406 49.0331 53.9978 49.171 53.6692 49.2857L53.6756 49.2845ZM58.1644 42.1962C58.118 42.1962 58.0716 42.1962 58.0252 42.2001H57.9788C57.9646 42.2001 57.9504 42.2001 57.9363 42.2001C57.6618 42.2001 57.3834 42.2542 57.1089 42.3612C56.4903 42.6035 56.1165 43.0146 55.9335 43.6525C55.8987 43.7762 55.8742 43.9064 55.8639 44.0404C55.8485 44.2209 55.8382 44.4309 55.8742 44.6191L55.882 44.6578L55.8845 44.6964C55.8974 44.8949 55.9541 45.1088 56.0173 45.3279C56.025 45.3537 56.0327 45.3769 56.0443 45.4091C56.0521 45.431 56.0598 45.4529 56.0676 45.4749C56.0766 45.5006 56.0843 45.5251 56.0946 45.5509C56.1281 45.6424 56.1655 45.7326 56.2054 45.8215C56.3201 45.8615 56.4348 45.904 56.5483 45.9504C56.663 45.9981 56.663 45.9994 56.7429 45.9092C57.6618 44.8537 58.5807 43.7982 59.4995 42.7427C59.5627 42.6705 59.6259 42.597 59.6877 42.5236C59.4751 42.4385 59.274 42.3715 59.0781 42.3212C58.7379 42.2349 58.4389 42.1936 58.1644 42.1936V42.1962Z" fill="black"/>
<path d="M42.177 16.5843L47.0731 18.6966C47.0731 18.6966 46.8411 19.9571 47.537 21.3476C48.2329 22.7395 50.3092 24.6301 51.8467 24.8028C53.4486 24.9833 54.5711 24.5902 54.5711 24.5902L57.4154 28.7387C57.4154 28.7387 55.4668 29.4953 55.9411 32.8164C56.4566 36.4288 59.9904 37.1106 59.9814 37.4715C59.9724 37.8323 59.7481 40.4988 59.5406 40.8493C59.4878 40.9395 57.5353 40.2062 55.8509 41.4847C52.7772 43.82 55.0132 46.9646 55.0132 46.9646L51.8467 48.2946C51.8467 48.2946 53.9177 44.9953 51.9588 42.5454C50.7164 40.9911 48.6763 41.12 48.751 41.0878C55.1395 38.3401 52.4885 31.7558 52.4885 31.7558C52.4885 31.7558 50.1287 25.8197 45.0922 23.5965C37.4214 20.2097 34.4521 23.4999 34.4521 23.4999C33.9044 21.1633 30.8745 21.5538 30.8745 21.5538C31.7573 19.4699 30.386 17.3589 30.386 17.3589L33.2909 16.0998C33.2909 16.0998 37.1946 21.1505 41.3535 17.9762C42.2814 17.2687 42.177 16.5818 42.177 16.5818V16.5843Z" fill="white"/>
<path d="M48.28 53.139L33.5803 54.1842L37.8487 49.6503L47.8264 50.0098L48.28 53.139Z" fill="black"/>
</g>
<defs>
<clipPath id="clip0_15980_10897">
<rect width="100" height="100" fill="white"/>
</clipPath>
</defs>
</svg>
