<svg width="100" height="100" viewBox="0 0 100 100" fill="none" xmlns="http://www.w3.org/2000/svg">
<g clip-path="url(#clip0_15980_10885)">
<rect width="100" height="100" fill="#C7FFC6"/>
<path d="M93.6678 31.9637C93.5701 31.2616 93.1111 30.6446 92.3778 30.2188H92.3736L63.4662 13.343C62.8471 12.9857 62.1201 12.8153 61.3868 12.8153C60.2339 12.8153 59.0686 13.2391 58.3041 14.0409L47.9883 24.8303V24.8386C49.9119 27.1818 51.4782 29.876 52.4753 32.7427C54.6751 39.0659 54.1101 44.4212 51.0606 47.2546L51.0108 47.3003L46.9913 50.6759C45.3876 51.9721 43.2937 52.7095 40.7906 52.7095H40.7366C34.324 52.7095 28.8732 52.13 24.5525 49.3464L11.5861 62.909C11.0294 63.4927 10.7738 64.1865 10.8736 64.8658C10.9753 65.5721 11.4344 66.189 12.1677 66.6149L41.0793 83.4928C42.6726 84.4151 44.9867 84.0993 46.2372 82.7906L92.9511 33.9247C93.5078 33.3451 93.7633 32.6471 93.6636 31.9679H93.6678V31.9637Z" fill="#11B67A"/>
<path d="M27.3349 46.4381L24.5597 49.3442C28.8804 52.1278 34.3292 52.7052 40.7396 52.7094C36.207 52.6866 31.3192 50.2478 27.337 46.4402L27.3349 46.4381Z" fill="#006A4D"/>
<path d="M24.3617 32.3771C27.6376 41.7872 36.813 49.417 44.8541 49.4212C47.3531 49.4212 49.4096 48.5986 51.0133 47.2982L46.9937 50.6738C45.3901 51.97 43.2962 52.7075 40.793 52.7075C32.7519 52.7033 23.5786 45.0734 20.3006 35.6634C20.2736 35.5844 20.2466 35.5076 20.2238 35.4328L24.3285 32.2732C24.3389 32.3065 24.3513 32.3418 24.3617 32.375V32.3792V32.3771Z" fill="black"/>
<path d="M94.9176 38.4718L94.4128 33.8332C94.2466 34.1406 94.0368 34.4356 93.7751 34.7098L47.0612 83.5758C46.0869 84.5957 44.6038 85.142 43.1351 85.142C42.2087 85.142 41.2926 84.926 40.5115 84.4752L11.5999 67.5973C10.6589 67.0552 10.0378 66.2575 9.81346 65.3331L10.4346 71.0518C10.5301 71.9243 11.0681 72.7511 12.0154 73.2974L41.4692 90.4869C43.2826 91.5338 45.9021 91.1765 47.325 89.6871L94.0389 40.8212C94.7182 40.1128 95.0028 39.2736 94.9155 38.478V38.4738L94.9176 38.4718Z" fill="#024731"/>
<path d="M28.3588 80.3789C28.525 79.9053 28.2175 79.2592 27.6733 78.9414L23.5125 76.5068C22.9703 76.189 22.3928 76.3178 22.2308 76.7914C22.0646 77.265 22.372 77.9111 22.9163 78.2289L27.0771 80.6635C27.6193 80.9813 28.1967 80.8525 28.3588 80.3789Z" fill="#6CF479"/>
<path d="M34.6202 67.0196C36.5209 68.1164 36.8471 70.2706 35.3556 71.8285C33.8641 73.3865 31.12 73.7625 29.2234 72.6677C27.3227 71.5709 26.9904 69.4168 28.4798 67.8588C29.9713 66.3009 32.7154 65.9249 34.6202 67.0217V67.0196Z" fill="#6CF479"/>
<path d="M70.3192 22.2359C70.9756 22.616 71.0919 23.3617 70.5767 23.9018C70.0616 24.4399 69.106 24.5728 68.4496 24.1947C67.7932 23.8146 67.6789 23.0688 68.1962 22.5288C68.7113 21.9907 69.6607 21.8578 70.3192 22.24V22.2359Z" fill="#6CF479"/>
<path d="M79.532 27.5538C80.1884 27.9339 80.3048 28.6797 79.7896 29.2198C79.2744 29.7578 78.3189 29.8907 77.6625 29.5127L72.3716 26.4591C71.7152 26.0789 71.5989 25.3332 72.114 24.791C72.6292 24.253 73.5827 24.1242 74.2412 24.5023L79.532 27.5559V27.5538Z" fill="#6CF479"/>
<path d="M32.9818 16.4116C29.978 16.4116 27.5725 17.5604 26.0291 19.7332C23.9207 22.7037 23.6776 27.1823 25.3644 32.0286C28.5011 41.0295 37.2423 48.3561 44.8555 48.3602C47.8676 48.3602 50.271 47.2115 51.8144 45.0387C53.9228 42.0681 54.1659 37.5895 52.4791 32.7432C49.3424 23.7424 40.6012 16.4158 32.988 16.4116H32.9797H32.9818Z" fill="#6CF479"/>
<path d="M50.0587 33.6485C47.9046 27.4623 42.6408 21.837 36.9594 19.6538C35.3557 19.0348 33.7915 18.7253 32.3167 18.7253C30.7275 18.7253 29.3316 19.0846 28.1787 19.7868C29.4978 18.5196 31.2926 17.857 33.4426 17.859C34.9174 17.859 36.4795 18.1748 38.0853 18.7876C43.7666 20.9729 49.0305 26.5961 51.1846 32.7822C52.7093 37.1549 52.5037 41.1786 50.6279 43.8188C50.094 44.5729 49.4335 45.1836 48.6711 45.651C48.9744 45.3581 49.2507 45.0403 49.502 44.683C51.3799 42.0427 51.5814 38.0191 50.0587 33.6464V33.6485Z" fill="black"/>
<path d="M48.4123 44.0285C47.4942 45.2687 46.0151 45.9064 44.1331 45.869C43.7758 45.8607 43.404 45.8316 43.0342 45.7776C40.1551 45.3684 37.0267 43.6837 34.2266 41.0289C31.5157 38.5403 29.8913 35.5407 29.8913 35.5407C32.9511 39.1885 34.507 38.8976 35.5768 37.7032C40.7908 44.5935 49.4967 45.0048 49.5714 38.1394C49.8373 40.5449 49.4468 42.6347 48.4144 44.0285H48.4102H48.4123Z" fill="white"/>
<path d="M7.43443 30.8566C7.71902 35.867 4.77136 39.793 0.0351562 40.707C5.20759 41.6252 10.0186 45.5471 12.1145 50.5596C11.83 45.545 14.7776 41.6231 19.5138 40.7091C14.3414 39.791 9.53041 35.8691 7.43443 30.8566Z" fill="#006A4D"/>
<path d="M44.4582 8.91211C44.5787 11.0663 43.3157 12.7551 41.2799 13.1456C43.5026 13.5403 45.5695 15.225 46.4732 17.3812C46.3527 15.227 47.6157 13.5382 49.6514 13.1477C47.4246 12.753 45.3577 11.0663 44.4582 8.91211Z" fill="#006A4D"/>
<path d="M82.1319 50.1318C82.3521 50.541 82.7841 50.6096 83.0999 50.2793L87.7052 45.4808C88.021 45.1546 88.0999 44.5543 87.8797 44.1451C87.6595 43.7358 87.2274 43.6673 86.9117 43.9976L82.3064 48.7961C81.9906 49.1222 81.9117 49.7226 82.1319 50.1318Z" fill="#6CF479"/>
<path d="M75.3147 57.2322C75.3147 57.2322 75.967 57.71 76.2827 57.3797L80.8881 52.5812C81.2038 52.255 81.2828 51.6568 81.0626 51.2455C80.8424 50.8362 80.4103 50.7677 80.0946 51.098L75.4892 55.8965C75.1735 56.2226 75.3147 57.2322 75.3147 57.2322Z" fill="#6CF479"/>
<path d="M22.728 20.6653L26.7891 17.377C24.8884 18.9121 23.6836 21.2428 23.318 24.0638L19.2818 27.1693C19.6765 24.4273 20.8709 22.1714 22.7301 20.6653H22.7259H22.728Z" fill="black"/>
<path d="M19.1402 29.3776L23.2012 26.2534C23.2116 26.8308 23.2553 27.4187 23.3259 28.0211L19.2482 31.1578C19.1796 30.5513 19.1422 29.9551 19.1381 29.3797L19.1402 29.3776Z" fill="black"/>
<path d="M71.7915 90.7031C71.7915 75.1027 59.145 62.4604 43.5509 62.4604C59.1512 62.4604 71.7915 49.8139 71.7915 34.2177C71.7915 49.8181 84.438 62.4604 100.034 62.4604C84.4338 62.4604 71.7915 75.1069 71.7915 90.7031Z" fill="#6CF479"/>
<path d="M71.7914 69.6269C73.9622 60.9148 84.438 62.4604 100.034 62.4604C84.4338 62.4604 71.7915 75.1069 71.7915 90.7031" fill="#11B57A"/>
<path d="M71.7914 69.6269C69.6206 60.9148 59.145 62.4604 43.5509 62.4604C59.1513 62.4604 71.7915 75.1069 71.7915 90.7031" fill="black"/>
<path d="M90.5209 62.07C81.1918 62.07 79.5175 62.768 75.8885 59.571C74.7356 58.5532 71.1024 54.0476 71.8689 41.5942C72.5898 54.2366 88.2712 62.0825 90.5209 62.07Z" fill="white"/>
</g>
<defs>
<clipPath id="clip0_15980_10885">
<rect width="100" height="100" fill="white"/>
</clipPath>
</defs>
</svg>
