<svg width="100" height="100" viewBox="0 0 100 100" fill="none" xmlns="http://www.w3.org/2000/svg">
<g clip-path="url(#clip0_15980_10913)">
<rect width="100" height="100" fill="#C7FFC6"/>
<path d="M59.521 85.5656C59.0618 85.0247 58.8067 84.341 58.8067 83.6368V74.2379H38.9373V83.6368C38.9373 84.3512 38.6924 85.0349 38.2229 85.5656L31.9774 92.8827C31.7019 93.2092 31.5488 93.6276 31.5488 94.0563V94.6686C31.5488 95.1686 31.957 95.5768 32.4571 95.5768H65.2869C65.787 95.5768 66.1952 95.1686 66.1952 94.6686V94.0563C66.1952 93.6276 66.0421 93.2092 65.7666 92.8827L59.521 85.5656Z" fill="#11B67A"/>
<path d="M97.2696 8.02682H2.81095C1.28018 8.02682 0.0351562 9.27185 0.0351562 10.8026V70.0638C0.0351562 71.5945 1.28018 72.8396 2.81095 72.8396H97.2594C98.7901 72.8396 100.035 71.5945 100.035 70.0638V10.8128C100.035 9.28205 98.7901 8.03703 97.2594 8.03703L97.2696 8.02682Z" fill="#11B67A"/>
<path d="M57.1838 85.2495L63.6233 92.5665H40.5189C40.5189 92.5665 56.7144 91.791 57.1736 85.2495H57.1838Z" fill="white"/>
<path d="M2.81085 6.6505H97.2695C97.7083 6.6505 98.1369 6.73214 98.5349 6.87501C98.4533 5.50752 97.3103 4.42578 95.9326 4.42578H4.14772C2.75983 4.42578 1.62706 5.50752 1.54542 6.87501C1.95362 6.74234 2.37203 6.6505 2.81085 6.6505Z" fill="black"/>
<path d="M4.61696 12.5984V68.2776H95.4732V12.5984H4.61696Z" fill="black"/>
<path d="M8.27072 15.9999H22.0374C22.0374 15.9999 12.2405 20.7555 8.27072 39.6146V15.9999Z" fill="white"/>
<path d="M38.9471 74.2379V83.6368C38.9471 84.0552 38.845 84.4736 38.6715 84.8614H45.3457C47.0091 84.8614 48.5501 83.943 49.3257 82.4632L50.734 79.8303C51.1013 79.1364 51.8259 78.7077 52.6219 78.7077H58.8266V74.2481H38.9573L38.9471 74.2379Z" fill="black"/>
</g>
<defs>
<clipPath id="clip0_15980_10913">
<rect width="100" height="100" fill="white"/>
</clipPath>
</defs>
</svg>
