<svg width="100" height="100" viewBox="0 0 100 100" fill="none" xmlns="http://www.w3.org/2000/svg">
<g clip-path="url(#clip0_15980_10925)">
<rect width="100" height="100" fill="#C7FFC6"/>
<path d="M16.8492 69.0601C16.7404 75.7439 12.0083 82.5144 6.27851 84.1813C12.0083 82.5144 16.5658 86.5836 16.4571 93.2674C16.5658 86.5836 21.2978 79.8131 27.0277 78.1462C21.2978 79.8131 16.7404 75.7439 16.8492 69.0601Z" fill="#006A4D"/>
<path d="M5.36856 13.7292C5.31508 17.0738 2.87913 20.4567 -0.0625 21.2904C2.88398 20.4567 5.22271 22.4883 5.16923 25.8329C5.22271 22.4883 7.65866 19.1054 10.6003 18.2717C7.65379 19.1054 5.31508 17.0738 5.36856 13.7292Z" fill="#006A4D"/>
<path d="M58.543 59.927C62.5265 54.2981 64.9683 47.2193 64.9365 40.0366C64.8778 27.3968 57.1548 18.6284 46.9767 18.6284C45.5886 18.6284 44.1553 18.7911 42.6902 19.1299C30.4726 21.9488 20.6199 35.8806 20.6879 50.246C20.7467 62.8903 28.4697 71.6541 38.6523 71.6541C40.0406 71.6541 41.4739 71.4915 42.9388 71.1529L65.0678 66.0481L58.5521 59.927H58.543Z" fill="#11B57A"/>
<path d="M54.3352 24.1145C54.8446 24.1462 55.3448 24.2051 55.8451 24.2731C55.6739 24.1734 55.5117 24.0647 55.3358 23.9695C46.8302 19.5067 36.6298 23.2944 30.058 31.989C27.2363 35.7177 23.6258 43.6465 24.2073 48.0233C24.5093 46.9948 25.7848 43.8867 27.908 42.3645C30.4726 40.5249 34.2904 41.123 37.7748 43.1981C36.8868 41.3359 36.4361 39.3016 36.5667 37.1856C37.0444 29.3883 45.0048 23.5346 54.3397 24.119L54.3352 24.1145Z" fill="white"/>
<path d="M21.2518 43.5659C21.2836 43.4033 21.3241 43.2408 21.3556 43.0827C21.3286 43.2092 21.2971 43.3356 21.2701 43.4666C21.261 43.5027 21.2563 43.5344 21.2518 43.5704V43.5659ZM24.1975 30.3614L18.4235 27.7468C18.4235 27.7468 18.41 27.7649 18.4055 27.7739C18.1664 28.1352 17.9318 28.501 17.7063 28.8757C17.6792 28.9254 17.6476 28.9707 17.616 29.0157C17.6115 29.0248 17.607 29.0338 17.6025 29.0383C17.3544 29.4537 17.1108 29.8782 16.8807 30.3029C16.8131 30.4292 16.7499 30.5558 16.6822 30.6821C16.5198 30.9892 16.3574 31.3007 16.2041 31.6123C16.1725 31.6756 16.1409 31.7344 16.1093 31.7974C16.0642 31.8924 16.0236 31.9918 15.9785 32.0866C15.8387 32.38 15.7033 32.6781 15.568 32.9808C15.4958 33.1433 15.4237 33.3059 15.356 33.473C15.2207 33.7934 15.0898 34.1141 14.9635 34.4393C14.9229 34.5478 14.8733 34.6516 14.8327 34.7599C14.8192 34.7915 14.8102 34.8277 14.7966 34.8592C14.6162 35.347 14.4403 35.8347 14.2824 36.3315C14.2508 36.4308 14.2237 36.5301 14.1922 36.6296C14.0658 37.0314 13.944 37.4378 13.8358 37.8443C13.8177 37.9165 13.7907 37.9843 13.7726 38.0566C13.7275 38.2282 13.6869 38.3998 13.6418 38.5759C13.6147 38.6887 13.5831 38.8017 13.5561 38.9191C13.4614 39.312 13.3711 39.7049 13.2899 40.1022C13.2809 40.1384 13.2764 40.179 13.2674 40.2197C13.1952 40.5764 13.1321 40.9331 13.0689 41.2945C13.0463 41.4208 13.0283 41.5519 13.0102 41.6827C12.9877 41.8318 12.9606 41.9809 12.9381 42.1299C12.92 42.2473 12.911 42.3646 12.893 42.4821C12.8704 42.6537 12.8478 42.8208 12.8298 42.9924C12.8027 43.2498 12.7757 43.5072 12.7531 43.7645C12.7396 43.9271 12.7216 44.0897 12.7125 44.2523C12.69 44.5324 12.6764 44.8123 12.6629 45.0922C12.6584 45.2323 12.6449 45.3723 12.6403 45.5122C12.6268 45.9276 12.6178 46.3386 12.6178 46.7541V46.7721C12.6313 49.4184 12.9787 51.8932 13.6147 54.1511C13.6689 54.3407 13.723 54.5305 13.7816 54.7156C15.5319 60.4146 19.1408 64.6777 23.8052 66.755C20.3993 62.5777 18.3694 56.8064 18.3378 50.1455C18.3062 43.2813 20.3768 36.318 24.1885 30.3569L24.1975 30.3614ZM22.9436 37.8037C22.8895 37.9436 22.8307 38.0836 22.7767 38.2282C22.5963 38.7159 22.4247 39.2035 22.2623 39.6957C22.2308 39.7952 22.1993 39.899 22.1677 39.9984C22.0414 40.4003 21.9241 40.8022 21.8112 41.2087C22.3571 39.2217 23.0789 37.2934 23.9496 35.4553C23.8097 35.7489 23.6744 36.0471 23.5435 36.3405C23.4714 36.5031 23.3992 36.6702 23.3271 36.8327C23.1917 37.1534 23.0654 37.4741 22.9391 37.7947L22.9436 37.8037ZM21.0579 44.609C21.0579 44.609 21.0534 44.6407 21.0489 44.6542C21.0264 44.7806 21.0084 44.9071 20.9903 45.0337C21.0129 44.8936 21.0354 44.749 21.0579 44.609ZM20.9361 45.4039C20.9136 45.5484 20.891 45.6975 20.873 45.8419C20.8505 46.0089 20.8325 46.176 20.8097 46.3431C20.846 46.027 20.891 45.7155 20.9361 45.4039ZM20.5978 50.1275C20.5978 49.7753 20.6068 49.4229 20.6158 49.0707C20.6023 49.4274 20.5978 49.7798 20.5978 50.1365V50.1275ZM21.5496 57.353C21.3556 56.6439 21.1933 55.9168 21.0534 55.1716C21.1888 55.9168 21.3556 56.6484 21.5496 57.353ZM38.9668 20.2098C39.3006 20.0698 39.6343 19.9389 39.9683 19.8124C39.8735 19.8485 39.7742 19.8847 39.6796 19.9208C39.4404 20.0111 39.2013 20.1059 38.9623 20.2098H38.9668ZM37.8029 20.7427C38.1412 20.5756 38.4797 20.422 38.8224 20.273C38.7096 20.3227 38.5968 20.3724 38.4887 20.422C38.2585 20.5259 38.0329 20.6298 37.8074 20.7427H37.8029ZM24.8878 20.553C24.6216 20.7698 24.3601 20.9865 24.1029 21.2123C24.0216 21.2801 23.9451 21.3523 23.8683 21.4246C23.6518 21.6187 23.4352 21.8129 23.2233 22.0116C23.115 22.1155 23.0111 22.2194 22.903 22.3232C22.7224 22.4993 22.5465 22.6709 22.3706 22.8516L22.3616 22.8606L27.9959 25.4121C28.7674 24.5721 29.5703 23.7818 30.4004 23.0458L24.8878 20.5485V20.553ZM36.6526 21.3433C36.585 21.3794 36.5172 21.4201 36.4452 21.4607C36.7924 21.262 37.1442 21.0723 37.5007 20.8917C37.4419 20.9233 37.3834 20.9504 37.3248 20.982C37.0992 21.0994 36.8737 21.2214 36.6526 21.3433ZM32.6378 24.107C32.6378 24.107 32.6648 24.0889 32.6739 24.0754C32.6739 24.0754 32.6513 24.0935 32.6378 24.107ZM30.8785 25.683C30.838 25.7192 30.8017 25.7598 30.7612 25.7959C31.0139 25.5521 31.2665 25.3082 31.5235 25.0734C31.4154 25.1728 31.3026 25.2676 31.1988 25.3714C31.0949 25.4753 30.9868 25.5792 30.8785 25.683ZM30.1702 26.3966C30.3416 26.2204 30.5175 26.0398 30.6936 25.8682C30.5763 25.9811 30.4589 26.0985 30.3416 26.2159C30.2831 26.2746 30.2243 26.3378 30.1657 26.4011L30.1702 26.3966ZM20.6248 49.0662C20.6339 48.7591 20.6519 48.4477 20.6654 48.1405C20.6609 48.2443 20.6519 48.3481 20.6474 48.4522C20.6384 48.592 20.6294 48.7321 20.6248 48.8676V49.0662ZM45.4987 18.5841C45.6341 18.5751 45.7649 18.5615 45.9002 18.557H45.8462C45.7334 18.5615 45.616 18.5751 45.4987 18.5841ZM44.3213 16.0733C44.1094 16.001 43.8928 15.9288 43.6763 15.8655C43.6403 15.852 43.5995 15.8384 43.5635 15.8294C43.5455 15.8249 43.532 15.8204 43.514 15.8158C43.3741 15.7752 43.2297 15.7391 43.0899 15.703C43.0131 15.6849 42.9365 15.6623 42.8597 15.6442C42.6748 15.5991 42.4899 15.5584 42.3003 15.5178C42.2643 15.5088 42.2283 15.4997 42.1922 15.4952C41.9666 15.4501 41.7411 15.4094 41.5155 15.3733C41.4524 15.3643 41.3891 15.3552 41.3306 15.3462C41.1637 15.3236 40.9968 15.2965 40.8297 15.2785C40.8162 15.2785 40.8072 15.2785 40.7937 15.2739C40.7577 15.2739 40.7171 15.2694 40.6809 15.2649C40.4554 15.2423 40.2298 15.2197 39.9998 15.2062C39.9185 15.2017 39.833 15.1972 39.7517 15.1927C39.5352 15.1836 39.3141 15.1746 39.0931 15.1701H38.908C38.6285 15.1701 38.3533 15.1746 38.0691 15.1882C38.0014 15.1882 37.9338 15.1972 37.866 15.2017C37.6451 15.2152 37.4239 15.2288 37.1985 15.2514C37.1534 15.2514 37.1037 15.2559 37.0586 15.2604C37.0271 15.2604 36.9909 15.2694 36.9593 15.2739C36.6075 15.3101 36.251 15.3552 35.8903 15.4139C35.8317 15.423 35.7684 15.4365 35.7099 15.4456C35.3354 15.5088 34.9565 15.581 34.573 15.6713H34.5685C34.1625 15.7662 33.7609 15.8746 33.3596 15.992C33.2243 16.0326 33.0934 16.0778 32.9581 16.1184C32.6919 16.2042 32.4257 16.29 32.1597 16.3848C32.0016 16.439 31.8483 16.5023 31.6949 16.561C31.4559 16.6513 31.2168 16.7461 30.9778 16.85C30.8152 16.9177 30.6574 16.99 30.4995 17.0622C30.2695 17.1661 30.0394 17.2745 29.8139 17.3828C29.6561 17.4596 29.498 17.5409 29.3401 17.6222C29.1147 17.7396 28.889 17.8615 28.6681 17.988C28.6048 18.0241 28.5418 18.0602 28.4832 18.0919L33.7429 20.4717C36.3594 18.7421 39.1562 17.5003 42.0479 16.8319C43.0539 16.5971 44.0641 16.4481 45.0656 16.3577C44.8897 16.2855 44.7094 16.2178 44.5335 16.15C44.4612 16.1229 44.3891 16.1003 44.3168 16.0733H44.3213ZM46.577 18.5344C46.6761 18.5344 46.7799 18.5299 46.8792 18.5299H46.834C46.7484 18.5299 46.6626 18.5344 46.5725 18.5389L46.577 18.5344ZM42.589 19.0221C42.9861 18.9318 43.3786 18.855 43.7709 18.7873C43.7484 18.7873 43.7214 18.7963 43.6989 18.8008C43.3334 18.8641 42.9636 18.9363 42.589 19.0221ZM47.4159 18.5434C47.5828 18.5479 47.7499 18.5525 47.9167 18.566C47.8535 18.566 47.7949 18.557 47.7316 18.557C47.628 18.5525 47.5197 18.5479 47.4159 18.5479V18.5434ZM52.3013 19.4376C52.1615 19.3879 52.0173 19.3427 51.8729 19.2976C52.0443 19.3518 52.2202 19.406 52.3871 19.4692C52.3601 19.4602 52.3285 19.4511 52.3013 19.4376ZM48.3453 18.5976C48.4852 18.6112 48.6293 18.6202 48.7692 18.6338C48.7331 18.6338 48.6971 18.6292 48.6611 18.6247C48.5572 18.6157 48.4489 18.6067 48.3453 18.5976ZM24.3374 63.6389C23.9721 63.0744 23.6293 62.4874 23.3089 61.8778C23.6248 62.4919 23.9721 63.0789 24.3374 63.6389ZM25.5825 32.4027C25.4832 32.5653 25.3931 32.7324 25.2983 32.8995C25.4427 32.6466 25.5916 32.3937 25.7449 32.1453C25.7269 32.1769 25.7044 32.2084 25.6864 32.2401C25.6501 32.2942 25.6141 32.3484 25.5825 32.4072V32.4027ZM24.6578 34.051C24.6578 34.051 24.6396 34.0916 24.6261 34.1096C24.7705 33.8342 24.9193 33.5633 25.0727 33.2922C25.0006 33.4187 24.9283 33.5406 24.8563 33.6671C24.7885 33.7935 24.7209 33.92 24.6533 34.051H24.6578ZM42.553 19.0312H42.5575C42.1515 19.126 41.7456 19.2344 41.3441 19.3518C41.7456 19.2344 42.147 19.126 42.553 19.0312ZM24.0579 35.2432C24.2022 34.9495 24.3511 34.6561 24.5 34.367C24.3962 34.5703 24.2878 34.7734 24.1885 34.9768C24.1435 35.0671 24.1029 35.1574 24.0579 35.2432ZM26.1102 31.5673C26.169 31.477 26.223 31.3912 26.2818 31.3009C26.2275 31.3912 26.169 31.477 26.1147 31.5673H26.1102ZM42.5575 19.0312C42.5575 19.0312 42.5755 19.0312 42.5845 19.0266C42.5755 19.0266 42.5665 19.0266 42.5575 19.0312Z" fill="black"/>
<path d="M74.4324 58.6862C74.4324 44.5986 63.0118 33.1821 48.9282 33.1821C63.0159 33.1821 74.4324 21.7614 74.4324 7.67773C74.4324 21.7654 85.853 33.1821 99.9367 33.1821C85.8489 33.1821 74.4324 44.6027 74.4324 58.6862Z" fill="#6CF479"/>
<path d="M74.4332 39.6545C76.393 31.7874 85.853 33.1821 99.9367 33.1821C85.8489 33.1821 74.4324 44.6027 74.4324 58.6862" fill="#11B57A"/>
<path d="M74.4332 39.6545C72.4736 31.7874 63.0118 33.1821 48.9282 33.1821C63.0159 33.1821 74.4324 44.6027 74.4324 58.6862" fill="black"/>
<path d="M91.3465 32.8275C82.9224 32.8275 81.4098 33.4578 78.133 30.571C77.092 29.6523 73.8111 25.5824 74.5021 14.3367C75.1527 25.7532 89.3136 32.8398 91.3465 32.8275Z" fill="white"/>
</g>
<defs>
<clipPath id="clip0_15980_10925">
<rect width="100" height="100" fill="white"/>
</clipPath>
</defs>
</svg>
