<svg width="100" height="100" viewBox="0 0 100 100" fill="none" xmlns="http://www.w3.org/2000/svg">
<g clip-path="url(#clip0_15980_10941)">
<rect width="100" height="100" fill="#C7FFC6"/>
<path d="M85.59 63.5772L84.5597 50.902V50.9168C84.3744 48.7672 82.5806 47.1216 80.4236 47.1216H50.7812V38.5899H49.1431V47.1216H20.5459C18.3889 47.1216 16.5951 48.7672 16.4098 50.9168L15.3127 63.5772L16.9435 63.7181L18.0405 51.0576C18.1517 49.7605 19.2413 48.7598 20.5459 48.7598H49.1431V60.7679H50.7812V48.7598H80.4236C81.7282 48.7598 82.8178 49.7605 82.929 51.0576L83.9593 63.7107L85.59 63.5772Z" fill="black"/>
<path d="M59.0547 34.3645H40.8201C39.4859 34.3645 38.4185 33.2526 38.4704 31.9184L38.841 22.8159C38.8929 21.5558 39.9306 20.5625 41.1908 20.5625H58.6841C59.9442 20.5625 60.982 21.5558 61.0338 22.8159L61.4045 31.9184C61.4564 33.2526 60.389 34.3645 59.0547 34.3645Z" fill="#6CF479"/>
<path d="M60.5889 72.1753H39.2781C37.9439 72.1753 36.8765 71.0635 36.9284 69.7292L37.4547 56.8242C37.5066 55.5641 38.5443 54.5708 39.8044 54.5708H60.0626C61.3227 54.5708 62.3605 55.5641 62.4123 56.8242L62.9386 69.7292C62.9905 71.0635 61.9231 72.1753 60.5889 72.1753Z" fill="#11B67A"/>
<path d="M97.5924 72.1753H76.3112C75.0808 72.1753 74.0579 71.2265 73.9689 70.0035L72.9979 57.0984C72.8941 55.7345 73.9763 54.5708 75.3402 54.5708H95.5688C96.7251 54.5708 97.7109 55.4158 97.8888 56.5573L99.905 69.4624C100.127 70.8856 99.023 72.1753 97.5849 72.1753H97.5924Z" fill="#6CF479"/>
<path d="M23.5635 72.1753H2.28241C0.83698 72.1753 -0.26006 70.8856 -0.0376874 69.4624L1.9785 56.5573C2.15639 55.4158 3.14225 54.5708 4.29859 54.5708H24.5271C25.8984 54.5708 26.9732 55.7345 26.8695 57.0984L25.8984 70.0035C25.8095 71.2265 24.7866 72.1753 23.5561 72.1753H23.5635Z" fill="#6CF479"/>
<path d="M49.9589 27.5678C51.6251 27.5678 52.9758 26.4727 52.9758 25.1217C52.9758 23.7708 51.6251 22.6756 49.9589 22.6756C48.2928 22.6756 46.9421 23.7708 46.9421 25.1217C46.9421 26.4727 48.2928 27.5678 49.9589 27.5678Z" fill="black"/>
<path d="M44.5101 32.7787C44.5101 30.34 46.9487 28.3609 49.9582 28.3609C52.9676 28.3609 55.4063 30.34 55.4063 32.7787" fill="black"/>
<path d="M49.8846 63.5475C52.0911 63.5475 53.8799 62.1005 53.8799 60.3157C53.8799 58.5308 52.0911 57.0838 49.8846 57.0838C47.678 57.0838 45.8893 58.5308 45.8893 60.3157C45.8893 62.1005 47.678 63.5475 49.8846 63.5475Z" fill="black"/>
<path d="M42.6796 70.4484C42.6796 67.224 45.904 64.6074 49.8844 64.6074C53.8649 64.6074 57.0893 67.224 57.0893 70.4484" fill="black"/>
<path d="M89.7423 60.3457C89.9054 62.1247 88.2079 63.5701 85.9545 63.5701C83.7012 63.5701 81.7443 62.1247 81.5812 60.3457C81.4181 58.5667 83.1156 57.1213 85.369 57.1213C87.6223 57.1213 89.5792 58.5667 89.7423 60.3457Z" fill="black"/>
<path d="M79.2092 70.4488C78.9201 67.2318 81.9815 64.6227 86.0509 64.6227C90.1203 64.6227 93.6486 67.2318 93.9451 70.4488" fill="black"/>
<path d="M9.71477 60.3157C9.5517 62.1021 11.2566 63.5475 13.5099 63.5475C15.7707 63.5475 17.7276 62.1021 17.8907 60.3157C18.0538 58.5293 16.3489 57.0838 14.0955 57.0838C11.8347 57.0838 9.87784 58.5293 9.71477 60.3157Z" fill="black"/>
<path d="M20.2709 70.4484C20.56 67.224 17.4913 64.6074 13.4144 64.6074C9.3376 64.6074 5.79446 67.224 5.50537 70.4484" fill="black"/>
<path d="M30.2344 65.2967C30.2641 64.7927 30.1603 64.3109 29.9528 63.9106L27.603 58.3216L26.8914 67.7873L29.597 74.6809" fill="black"/>
<path d="M26.7212 70.0631C26.5952 71.716 25.2165 72.9984 23.5635 72.9984H2.28238C2.1712 72.9984 2.06742 72.9984 1.95624 72.9836L7.51556 79.2693C7.86395 79.929 8.494 80.3812 9.22042 80.3812H27.4031C28.4557 80.3812 29.3304 79.4324 29.4045 78.2093L29.486 76.9121" fill="black"/>
<path d="M70.2689 74.6879L72.9818 67.7721L72.2628 58.2397L69.7574 64.1919L69.7945 64.2142C69.6759 64.5477 69.6166 64.9109 69.6388 65.2964" fill="black"/>
<path d="M73.1375 70.0628L70.3801 76.8822L70.4616 78.2016C70.5432 79.4247 71.4104 80.3735 72.463 80.3735H90.6457C91.3721 80.3735 91.9948 79.9213 92.3505 79.2616L97.9099 72.9758C97.8061 72.9833 97.6949 72.9907 97.5837 72.9907H76.3026C74.6422 72.9907 73.2635 71.7157 73.1449 70.0553" fill="black"/>
<path d="M42.1232 72.999L43.1165 80.3817H43.9319L43.1165 72.999H42.1232Z" fill="black"/>
<path d="M39.2773 72.9985C38.6621 72.9985 38.0913 72.8206 37.6095 72.5167L38.8252 77.9277C38.8103 78.4244 38.9215 78.8765 39.1291 79.262C39.4849 79.9291 40.1149 80.3739 40.8339 80.3739H42.2201L41.1378 72.9911H39.2847L39.2773 72.9985Z" fill="black"/>
<path d="M60.5877 72.9985H45.4737L46.1927 80.3813H59.0311C59.7575 80.3813 60.3801 79.9365 60.7359 79.2694C60.9361 78.8914 61.0473 78.4392 61.0398 77.9648L62.3 72.4945C61.8033 72.8132 61.2178 72.9985 60.5877 72.9985Z" fill="black"/>
<path d="M40.8185 35.1872C40.144 35.1872 39.5139 34.9723 38.995 34.6091L40.1366 40.1239C40.0921 41.4581 41.0038 42.57 42.1453 42.57H42.212L41.1298 35.1872H40.8111H40.8185Z" fill="black"/>
<path d="M59.0537 35.1876H45.4815L46.2005 42.5703H57.7269C58.8684 42.5703 59.7801 41.4585 59.7356 40.1242L60.7808 34.6761C60.2841 34.9948 59.6912 35.1876 59.0537 35.1876Z" fill="black"/>
<path d="M42.1226 35.1873L43.1159 42.5701H43.9313L43.1159 35.1873H42.1226Z" fill="black"/>
</g>
<defs>
<clipPath id="clip0_15980_10941">
<rect width="100" height="100" fill="white"/>
</clipPath>
</defs>
</svg>
