<svg width="100" height="100" viewBox="0 0 100 100" fill="none" xmlns="http://www.w3.org/2000/svg">
<rect width="100" height="100" fill="#C7FFC6"/>
<path d="M51.1116 67.5032C36.2358 67.5032 24.6194 65.1814 23.9779 62.2619L25.1742 70.5007C25.6163 73.3163 36.7819 75.5774 51.1116 75.5774C65.4414 75.5774 76.5463 73.3682 77.0491 70.5007L78.2454 62.2619C77.5605 65.2334 65.9962 67.5032 51.1116 67.5032Z" fill="#11B67A"/>
<path d="M51.1115 77.1115C44.133 77.1115 37.562 76.5744 32.638 75.6041C31.2424 75.3269 30.072 75.041 29.0751 74.7378L33.2362 96.5C33.5396 98.4406 41.229 100 51.1029 100C60.9768 100 68.6314 98.4753 68.9695 96.5L73.1306 74.7637C66.0481 76.9642 54.2063 77.1288 51.1029 77.1288L51.1115 77.1115Z" fill="#11B67A"/>
<path d="M51.1116 65.3291C64.3577 65.3291 75.0986 63.657 75.0986 61.5952C75.0986 59.5333 64.3577 57.8613 51.1116 57.8613C37.8655 57.8613 27.1247 59.5333 27.1247 61.5952C27.1247 63.657 37.8655 65.3291 51.1116 65.3291Z" fill="black"/>
<path d="M69.2557 74.1233L70.1746 65.9624C68.1374 66.3696 65.7881 66.6988 63.1874 66.95L62.9967 70.1121C62.4246 74.6864 57.57 75.3708 56.521 75.4574C61.4623 75.2495 65.8401 74.7817 69.2643 74.1059L69.2557 74.1233Z" fill="#01482F"/>
<path d="M59.3039 76.8437L57.8042 94.6121C57.1453 99.6888 51.1118 99.9834 51.1118 99.9834C56.2698 99.9834 60.8123 99.5676 64.0285 98.8832L67.4093 76.0033C64.722 76.4192 61.8786 76.6791 59.2952 76.8437H59.3039Z" fill="#01482F"/>
<path d="M22.1315 17.2143C23.0417 17.067 33.141 15.5769 40.4923 23.1833C46.9593 29.8714 46.2744 38.3961 46.1531 39.6263L38.1863 23.1833L22.1315 17.2143Z" fill="black"/>
<path d="M75.2634 33.8391C75.9309 35.927 77.2659 41.1163 75.0727 46.6522C72.1426 54.068 64.0892 59.0321 54.7441 59.1014C56.0271 58.9021 68.3196 56.7536 73.3909 45.9245C75.6969 41.0037 75.5408 36.3515 75.2547 33.8478L75.2634 33.8391Z" fill="black"/>
<path d="M52.8544 59.1007C52.629 58.217 50.3664 48.6267 57.1282 40.7604C64.15 32.5823 74.5005 33.7438 75.2634 33.8391C75.3674 34.6448 76.7373 46.8681 67.5049 54.3705C61.5753 59.1787 54.8309 59.1787 52.8544 59.1007Z" fill="#11B67A"/>
<path d="M74.5873 36.6291C74.4053 39.1675 73.6857 43.8544 70.5129 48.4632C69.1866 50.3865 67.7388 51.8506 66.4819 52.9249C67.1147 50.7244 67.1234 49.4249 66.5165 49.0004C65.6323 48.3853 63.4131 49.6934 59.8675 52.9249C60.6997 51.686 62.0607 49.9187 64.1152 48.212C66.6292 46.1155 68.155 45.8209 70.0361 44.2269C71.5618 42.936 73.4257 40.7096 74.5873 36.6378V36.6291Z" fill="#01482F"/>
<path d="M45.3557 41.7405C44.4542 41.8878 34.6929 43.2999 27.4457 35.8841C19.9124 28.1737 21.9668 17.9766 22.1315 17.2143C22.9463 17.1796 35.2478 16.8854 41.9228 26.7356C46.1966 33.0598 45.6071 39.7739 45.3557 41.7318V41.7405Z" fill="#11B67A"/>
<path d="M23.432 18.4443C25.972 18.6262 30.6619 19.3452 35.2737 22.516C37.1982 23.8415 38.6633 25.2883 39.7382 26.5445C37.5363 25.912 36.236 25.9034 35.8112 26.5098C35.1957 27.3935 36.5047 29.6113 39.7382 33.1546C38.4986 32.3229 36.7301 30.9628 35.0223 28.9095C32.9244 26.3972 32.6297 24.8724 31.0346 22.9925C29.7429 21.4678 27.515 19.6051 23.4406 18.4443H23.432Z" fill="#01482F"/>
<path d="M63.0403 30.8414C61.5319 32.7474 59.9022 34.3327 58.2551 35.6409C56.582 36.9491 54.9002 37.9973 53.2965 38.8203C52.8023 39.0456 51.0945 39.9726 50.2103 42.0344C50.1236 42.2077 50.0629 42.3896 50.0196 42.5542C49.5688 43.8884 49.6815 45.3438 50.1843 46.6693L56.0012 62.4019H51.476L44.1507 41.8612L43.9514 41.298C43.5699 40.4664 42.9284 38.8983 42.3563 36.8191C41.5674 33.9602 40.9259 30.1224 41.2987 25.8254C41.5847 22.4813 42.5036 18.8514 44.4541 15.1955C51.606 1.724 66.2912 0.10396 67.3835 0C67.7909 1.09158 73.4951 17.5865 63.0317 30.8414H63.0403Z" fill="#6CF479"/>
<path d="M65.9618 1.43715C63.2485 2.13021 56.8421 4.16609 51.1727 10.0571C45.3211 16.1388 43.596 22.8702 43.0499 25.6078C46.188 23.3987 48.2772 22.6536 49.3262 23.3987C50.9473 24.5509 50.0544 29.2551 46.6301 37.5285C48.2772 35.2934 50.5312 31.7848 52.2303 27.1066C54.3195 21.3714 53.886 18.5212 55.4985 14.2069C56.8075 10.7242 59.5382 6.03737 65.9618 1.44581V1.43715Z" fill="#11B67A"/>
<path d="M67.8082 12.2153C67.8862 9.72025 67.6521 7.51977 67.3227 5.74379C67.3314 6.61012 67.3227 7.57175 67.262 8.60268C67.0973 10.0754 66.6985 11.8688 65.797 13.7574C64.3579 16.7635 62.3207 18.6002 61.1851 19.4838C61.5058 20.3501 61.7486 21.3118 61.8699 22.3514C62.2167 25.5568 61.1851 28.3897 59.9628 30.5295C59.3733 31.4132 58.7925 32.2189 58.2377 32.9293C57.8562 33.4058 57.4748 33.8736 57.102 34.3501C59.564 32.1323 65.9097 25.8254 67.4787 15.8106C67.6694 14.5977 67.7648 13.4455 67.8082 12.3452C67.8082 12.3279 67.8081 12.3106 67.8168 12.3019C67.8168 12.2759 67.8168 12.2586 67.8168 12.2326L67.8082 12.2153Z" fill="white"/>
<path d="M55.9839 62.4278C55.9839 62.6877 54.7963 62.9909 53.7213 62.9909C52.6464 62.9909 51.45 62.6877 51.4587 62.4278C51.4587 62.1679 52.733 61.9599 53.7213 61.9599C54.7096 61.9599 55.9752 62.1679 55.9839 62.4278Z" fill="#6CF479"/>
</svg>
