<svg width="100" height="100" viewBox="0 0 100 100" fill="none" xmlns="http://www.w3.org/2000/svg">
<g clip-path="url(#clip0_15980_11018)">
<rect width="100" height="100" fill="#C7FFC6"/>
<path d="M96.8786 43.6451C92.4257 44.9809 80.9769 46.8511 70.8343 43.6451C69.3006 45.1195 67.6778 47.2568 67.6778 49.7504L74.0404 62.2877C74.0404 62.2877 74.1394 62.2679 74.1789 62.258L77.2465 61.4169C77.2465 61.4169 82.2139 59.9128 86.8547 64.2964C89.5858 66.6515 91.9211 70.3721 93.1679 74.8843C94.0683 78.1596 94.2662 81.3756 93.8704 84.1957C98.541 82.85 100.035 80.6433 100.035 79.258V49.7504C100.035 47.2667 98.4123 45.1195 96.8786 43.6451Z" fill="#11B67A"/>
<path d="M70.5573 35.6193V41.5565C70.5573 42.9913 76.5142 44.1589 83.8565 44.1589C91.1988 44.1589 97.1557 42.9913 97.1557 41.5565V35.6193H70.5573Z" fill="black"/>
<path d="M83.8565 38.2225C91.1988 38.2225 97.1557 37.0542 97.1557 35.6193C97.1557 34.1845 91.1988 33.0177 83.8565 33.0177C76.5142 33.0177 70.5573 34.1845 70.5573 35.6193C70.5573 37.0542 76.5142 38.2225 83.8565 38.2225Z" fill="#11B67A"/>
<path d="M78.9184 36.5796L87.2996 34.1751L88.9422 34.3334L80.5907 36.7775L78.9283 36.5796H78.9184Z" fill="black"/>
<path d="M97.0173 46.9496C97.0173 46.9496 98.2245 51.0759 87.3596 53.5892C87.3596 53.5892 101.975 53.1835 97.0173 46.9496Z" fill="#6CF479"/>
<path d="M13.869 44.0006V48.6612C13.869 49.7893 18.5395 50.6996 24.3085 50.6996C30.0774 50.6996 34.7479 49.7794 34.7479 48.6612V44.0006H13.869Z" fill="black"/>
<path d="M24.3085 46.0487C30.0774 46.0487 34.7479 45.1384 34.7479 44.0103C34.7479 42.8823 30.0774 41.9719 24.3085 41.9719C18.5395 41.9719 13.869 42.8823 13.869 44.0103C13.869 45.1384 18.5395 46.0487 24.3085 46.0487Z" fill="#11B67A"/>
<path d="M20.4402 44.7631L27.0106 42.8831L28.297 43.0018L21.7463 44.9215L20.4402 44.7631Z" fill="black"/>
<path d="M11.6132 55.0935C11.6132 53.1442 12.8897 51.462 14.0969 50.3043C22.0626 52.8176 31.0474 51.3531 34.5404 50.3043C35.7477 51.462 37.0241 53.1442 37.0241 55.0935V78.2484C37.0241 79.9009 34.3722 83.0377 24.3187 83.0377C14.2651 83.0377 11.6132 79.9009 11.6132 78.2484V55.0935Z" fill="#11B67A"/>
<path d="M34.6482 52.8966C34.6482 52.8966 35.5882 56.1422 27.0685 58.1015C27.0685 58.1015 38.537 57.7848 34.6482 52.8966Z" fill="#6CF479"/>
<path d="M14.1267 3.96484C14.1267 3.96484 16.462 11.7128 25.9416 13.8502C25.9416 13.8502 18.7577 15.0871 18.6191 23.7058C18.6191 23.7058 16.0859 16.2349 7.01203 13.8403C7.01203 13.8403 14.6017 12.9398 14.1267 3.96484Z" fill="#006A4D"/>
<path d="M5.20046 59.4963C5.20046 59.4963 6.90244 65.1267 13.7994 66.6902C13.7994 66.6902 8.57473 67.5906 8.47578 73.8642C8.47578 73.8642 6.63527 68.4218 0.0351562 66.6803C0.0351562 66.6803 5.55669 66.0272 5.22025 59.4963H5.20046Z" fill="#006A4D"/>
<path d="M34.3637 20.5688V29.5042C34.3637 31.6712 43.3188 33.4227 54.3718 33.4227C65.4248 33.4227 74.3799 31.6613 74.3799 29.5042V20.5688H34.3637Z" fill="black"/>
<path d="M54.3623 24.4869C65.4153 24.4869 74.3705 22.7354 74.3705 20.5782C74.3705 18.4211 65.4153 16.6597 54.3623 16.6597C43.3094 16.6597 34.3542 18.4112 34.3542 20.5782C34.3542 22.7453 43.3094 24.4869 54.3623 24.4869Z" fill="#11B67A"/>
<path d="M46.9398 22.0235L59.5364 18.4117L62.0004 18.6492L49.4334 22.3203L46.9299 22.0235H46.9398Z" fill="black"/>
<path d="M36.8764 35.4712C36.8764 35.4712 33.4823 38.1825 33.4823 44.0603V59.1901C33.4823 59.1901 34.274 46.5539 45.0103 46.9992C45.0103 46.9992 32.7006 45.4159 36.8764 35.4712Z" fill="#F3F3F5"/>
<path d="M74.171 37.6184C74.171 37.6184 75.9818 43.8326 59.6349 47.6027C59.6349 47.6027 81.6221 46.9991 74.171 37.6184Z" fill="#F3F3F5"/>
<path d="M66.3048 73.9139C66.6115 68.145 69.1744 63.5635 73.2908 62.4354C73.5877 62.3563 73.8845 62.2969 74.1814 62.2573L77.2489 61.4162C77.2489 61.4162 77.803 61.248 78.7035 61.1887V41.8237C78.7035 38.0833 76.2594 34.8575 73.9538 32.6508C67.2547 34.6596 50.0371 37.4797 34.7687 32.6508C32.4631 34.8674 30.019 38.0833 30.019 41.8237V86.2137C30.019 89.39 35.1052 95.3964 54.3613 95.3964C60.5953 95.3964 65.3351 94.7631 68.9072 93.8033C67.8188 91.7055 67.3438 90.0134 67.3438 90.0134C65.6913 83.3045 65.7606 77.8522 66.2949 73.904L66.3048 73.9139Z" fill="#6CF479"/>
<path d="M66.2725 74.6762C66.3913 68.551 68.9838 63.6034 73.2882 62.4358C73.5851 62.3566 73.8821 62.2976 74.1789 62.258L74.4064 62.1983C74.4955 61.3473 74.3173 60.6051 73.8226 60.0807L72.9716 59.2C71.9029 58.0819 69.7358 58.3589 67.7271 59.7047C67.7073 59.6156 67.6776 59.5365 67.648 59.4573L67.173 58.3292C66.4407 56.5877 63.4722 56.1721 60.5234 57.3991C59.9099 57.6564 59.3558 57.9631 58.8511 58.3095C58.6433 58.1808 58.4355 58.0621 58.2178 57.9532C56.7731 57.2111 55.2987 56.8944 54.0717 56.9835L53.7551 56.271C52.9832 54.5493 50.0048 54.193 47.0857 55.4893C44.9582 56.4393 43.4542 58.0027 43.1078 59.4474C42.6526 59.3386 42.1876 59.2495 41.6928 59.2099C38.5164 58.923 35.8051 60.2192 35.6369 62.0993L35.5874 62.6238C33.4996 63.9794 32.3913 65.9288 33.0246 67.3735L33.5193 68.4916C33.7074 68.927 34.0438 69.2734 34.4792 69.5306L34.4198 70.154C34.3407 71.0149 34.8156 71.8461 35.6567 72.5289C34.0042 74.0923 33.2918 76.0021 34.0636 77.2687L34.7068 78.3077C34.7562 78.3869 34.8354 78.4462 34.8948 78.5254C34.875 78.5353 34.8552 78.5452 34.8453 78.565L33.9943 79.4456C32.8168 80.643 33.3116 83.0772 35.0432 85.1651C34.6573 85.6104 34.4198 86.0854 34.4198 86.5702C34.4198 89.7565 43.375 92.3292 54.428 92.3292C59.524 92.3292 64.1648 91.7751 67.6974 90.8746C67.5094 90.3403 67.4105 90.0137 67.4105 90.0137C65.8668 83.76 65.8272 78.5749 66.2626 74.7058L66.2725 74.6762Z" fill="#11B67A"/>
<path d="M72.9528 80.3954C70.5482 71.6778 73.1012 63.3559 78.6722 61.8122C84.2432 60.2785 90.7048 66.0969 93.1193 74.8244C95.5238 83.5421 92.9708 91.864 87.3998 93.4077C81.8288 94.9414 75.3672 89.123 72.9528 80.3954Z" fill="#6CF479"/>
<path d="M72.9546 65.2859L68.4424 66.3051C69.6397 64.3656 71.2823 62.9803 73.291 62.4262L77.4866 61.3575C75.7351 62.0699 74.0035 63.4454 72.9447 65.2859H72.9546Z" fill="black"/>
<path d="M67.4811 68.1947L72.0626 67.1656C71.9043 67.601 71.7558 68.0463 71.6173 68.5015L67.0061 69.5405C67.1447 69.0754 67.303 68.6301 67.4811 68.1947Z" fill="black"/>
<path d="M70.9844 72.2616C70.7865 74.8938 71.0536 77.7832 71.865 80.7221C74.4081 89.9246 81.2655 96.0597 87.1927 94.4368L82.5123 95.7727C76.5851 97.4153 69.7079 91.2704 67.1648 82.0579C66.3237 79.0102 66.0565 76.0218 66.3039 73.3105L70.9844 72.2616Z" fill="black"/>
<path d="M91.0624 75.4483C88.935 67.73 83.3145 62.4954 78.3471 63.4553C78.5648 63.3662 78.7924 63.2772 79.02 63.2178C84.1061 61.8127 90.0135 67.1363 92.2202 75.102C94.4169 83.0676 92.0816 90.677 86.9955 92.0723C86.8372 92.1217 86.669 92.1514 86.5107 92.1811C91.1218 90.3109 93.1602 83.0478 91.0526 75.4384H91.0624V75.4483Z" fill="#024731"/>
<path d="M75.3965 81.9389C75.0007 80.6822 74.7336 79.4255 74.6049 78.1985C75.2976 80.138 76.3366 80.8603 76.9105 81.0286C77.5735 81.2265 78.2661 80.9494 78.2661 80.9494C80.3936 87.3813 83.7679 89.1624 86.3307 89.0833C87.8249 89.0338 88.8936 88.1432 89.5269 87.4209C88.7947 89.1328 87.6468 90.3895 86.1427 90.9139C82.2341 92.2794 77.435 88.2521 75.4163 81.929L75.3965 81.9389Z" fill="white"/>
<path d="M87.2924 61.0704C87.2924 61.0704 88.9943 66.7008 95.8913 68.2643C95.8913 68.2643 90.6666 69.1647 90.5677 75.4383C90.5677 75.4383 88.7272 69.9959 82.1271 68.2544C82.1271 68.2544 87.6486 67.6013 87.3122 61.0704H87.2924Z" fill="#006A4D"/>
</g>
<defs>
<clipPath id="clip0_15980_11018">
<rect width="100" height="100" fill="white"/>
</clipPath>
</defs>
</svg>
