<svg width="100" height="100" viewBox="0 0 100 100" fill="none" xmlns="http://www.w3.org/2000/svg">
<rect width="100" height="100" fill="#C7FFC6"/>
<path d="M58.1484 3.70865C58.1484 3.70865 64.0479 2.57076 69.186 3.21848C72.3021 3.60362 73.8951 4.96034 74.7004 6.15951C75.3656 7.1486 75.3481 8.43529 74.6654 9.40688L55.3212 36.9177L58.1396 3.70865H58.1484Z" fill="#11B67A"/>
<path d="M76.6261 10.3346C76.6261 10.3346 80.0485 11.5338 84.18 14.6499C88.9416 18.2561 87.1823 22.125 87.1823 22.125L55.54 36.1298L76.6261 10.3259V10.3346Z" fill="#6CF479"/>
<path d="M86.9722 24.7071C86.9722 24.7071 89.423 27.298 91.4362 32.0596C93.7558 37.5653 90.1758 39.3859 90.1758 39.3859L55.3212 36.9088L72.696 28.9873L86.9722 24.6983V24.7071Z" fill="#11B67A"/>
<path d="M88.9241 41.5999C88.9241 41.5999 89.6681 45.6263 89.0291 50.7644C88.2939 56.6902 84.0574 57.1016 84.0574 57.1016L70.6828 49.1888L55.3212 36.8996L74.2803 38.6239L88.9241 41.5912V41.5999Z" fill="#6CF479"/>
<path d="M52.7037 71.0886C52.7037 71.0886 47.3118 72.5328 41.4648 70.6159C35.7928 68.7602 35.1276 65.6442 35.1276 65.6442L41.5086 54.5103L55.3296 36.9167L52.7125 71.0886H52.7037Z" fill="#11B67A"/>
<path d="M34.3971 63.5609C34.3971 63.5609 30.5983 62.3005 26.4669 59.1756C21.7052 55.5694 23.4646 51.7005 23.4646 51.7005L55.3257 36.9167L43.5791 51.7181L34.4059 63.5609H34.3971Z" fill="#6CF479"/>
<path d="M23.6857 49.215C23.6857 49.215 21.2173 46.5366 19.2041 41.7662C17.7861 38.4138 18.5214 36.1905 19.3092 34.9563C19.7818 34.2123 20.6571 33.8184 21.5324 33.8972L55.3192 36.917L33.314 47.0968L23.6857 49.215Z" fill="#11B67A"/>
<path d="M22.1132 34.0898C22.1132 34.0898 20.9753 28.1903 21.623 23.0522C22.0081 19.9361 23.3649 18.3431 24.564 17.5378C25.5531 16.8726 26.8398 16.8901 27.8114 17.5728L55.3222 36.9171L22.1132 34.0986V34.0898Z" fill="#6CF479"/>
<path d="M28.1476 17.8005C28.1476 17.8005 29.942 12.1898 33.0581 8.05833C35.0362 5.44117 37.102 4.79344 38.555 4.74092C39.6666 4.69715 40.682 5.38864 41.1546 6.39524L55.317 36.9084L28.1388 17.7917L28.1476 17.8005Z" fill="#11B67A"/>
<path d="M41.2889 6.59667C41.2889 6.59667 45.7005 2.81534 50.4709 0.802142C53.3594 -0.414532 55.4164 -0.0468954 56.7206 0.592077C57.7884 1.10851 58.4274 2.23764 58.3224 3.42806L55.3288 36.926L41.2977 6.60542L41.2889 6.59667Z" fill="#6CF479"/>
<path d="M84.0571 57.1102L70.6825 49.1974L55.3212 36.9088L52.196 71.8853C52.196 71.8853 54.6731 75.3427 60.1701 73.0232C64.5203 71.185 69.3695 67.1674 69.3695 67.1674C69.4308 67.1149 66.3234 54.6068 66.3234 54.6068C68.608 58.5194 72.083 65.9507 73.4222 68.8567C74.6739 68.5066 76.1444 67.6488 77.5711 65.7581C79.3042 63.4648 81.1074 61.0578 82.3678 59.3597L72.4243 50.3353L84.0221 57.1364L84.0484 57.1014L84.0571 57.1102Z" fill="#11B67A"/>
<path d="M53.5268 74.9674L56.6341 58.9668L50.0693 75.0374" fill="#00482F"/>
<path d="M49.4607 50.4839C49.4607 50.4839 51.1151 62.6331 46.9836 76.4542C42.7209 90.7216 43.3598 89.4087 42.6771 96.8925C42.6771 96.8925 47.0011 93.5489 50.266 91.9908C50.266 91.9908 51.3689 96.6737 55.5529 99.6935C55.5529 99.6935 57.461 92.6123 59.1941 81.8285C60.9272 71.0448 61.75 66.2744 61.2686 51.4992L49.4607 50.4926V50.4839Z" fill="black"/>
<path d="M63.1943 52.6022C63.1943 52.6022 66.853 60.6901 68.1047 72.5329C69.7941 88.4897 70.4943 90.3191 74.6257 96.2274C74.6257 96.2274 67.6583 94.4418 64.7173 92.201C64.7173 92.201 60.7784 97.5054 60.0169 100C60.0169 100 56.3669 94.0654 55.2027 83.2029C54.0386 72.3404 54.0386 66.0732 49.8984 55.0006L63.1855 52.5935L63.1943 52.6022Z" fill="#6CF479"/>
<path d="M28.51 16.7406C28.51 16.7406 29.8492 12.189 32.7115 8.35517C33.403 7.4361 34.217 6.61331 35.1623 5.95683C36.2039 5.23908 37.6132 4.54759 38.9699 4.76642C39.2763 4.81893 39.4251 5.16906 39.2413 5.41415C38.6811 6.16691 38.506 6.49952 33.5168 10.6222C30.2431 13.3269 28.5013 16.7406 28.5013 16.7406H28.51Z" fill="#006A4D"/>
<path d="M59.6019 3.50689C59.6019 3.50689 64.3986 2.62282 69.0815 3.22678C70.2106 3.37559 71.261 3.59442 72.2851 4.09334C73.4142 4.64478 74.5872 5.59011 75.0598 6.86805C75.1649 7.14815 74.9373 7.45451 74.6309 7.4195C73.7206 7.30571 74.8673 7.33197 68.9064 5.03867C64.9938 3.53315 59.6019 3.51564 59.6019 3.51564V3.50689Z" fill="#006A4D"/>
<path d="M23.1947 53.7155L36.6394 47.4921L27.9126 54.1182C27.9126 54.1182 24.6215 56.3152 26.4684 59.1774C26.4684 59.1774 23.5011 57.3306 23.1947 53.7155Z" fill="white"/>
<path d="M19.0609 35.5353L33.8273 36.7257L22.9735 38.205C22.9735 38.205 19.0346 38.4939 19.2272 41.8988C19.2272 41.8988 17.5466 38.8265 19.0609 35.5353Z" fill="white"/>
<path d="M24.1663 17.9405L37.0333 25.2756L26.5734 22.0107C26.5734 22.0107 22.8796 20.6015 21.6192 23.7701C21.6192 23.7701 21.4004 20.2776 24.1663 17.9318V17.9405Z" fill="white"/>
<path d="M55.3212 55.9545C65.8355 55.9545 74.359 47.431 74.359 36.9167C74.359 26.4023 65.8355 17.8788 55.3212 17.8788C44.8068 17.8788 36.2833 26.4023 36.2833 36.9167C36.2833 47.431 44.8068 55.9545 55.3212 55.9545Z" fill="#6CF479"/>
<path d="M55.3519 56.6114C54.7479 56.6114 54.144 56.5851 53.5312 56.5326C42.7212 55.5523 34.7209 45.9501 35.7013 35.1314C36.1739 29.8883 38.6686 25.1529 42.7125 21.783C46.7564 18.4131 51.8594 16.82 57.1025 17.3014C62.3455 17.7741 67.0809 20.2687 70.4509 24.3039C73.8208 28.339 75.4138 33.4596 74.9324 38.6939C74.451 43.9282 71.9651 48.6724 67.93 52.0423C64.3587 55.0183 59.9472 56.6114 55.3606 56.6114H55.3519ZM55.2818 18.5269C50.9929 18.5269 46.8789 20.0061 43.544 22.7896C39.7714 25.9319 37.4519 30.3522 37.0055 35.2452C36.0864 45.3374 43.5527 54.3006 53.645 55.2196C63.7285 56.1475 72.7004 48.6724 73.6195 38.5801C74.0659 33.6871 72.5779 28.9167 69.4355 25.1442C66.2932 21.3716 61.8729 19.052 56.9799 18.6056C56.411 18.5531 55.842 18.5269 55.2818 18.5269Z" fill="#C7FFC6"/>
<path d="M55.3223 53.0846C64.251 53.0846 71.4891 45.8465 71.4891 36.9178C71.4891 27.989 64.251 20.7509 55.3223 20.7509C46.3935 20.7509 39.1554 27.989 39.1554 36.9178C39.1554 45.8465 46.3935 53.0846 55.3223 53.0846Z" fill="#024731"/>
<path d="M48.3324 24.8303C48.3324 24.8303 55.3348 20.3663 62.4423 24.629C69.5498 28.8917 70.4601 36.9095 68.2281 42.0913C68.2281 42.0913 69.3485 28.7955 58.7835 27.0711C58.7835 27.0711 55.5362 22.7033 48.3324 24.8391V24.8303Z" fill="white"/>
<path d="M83.553 69.915C83.553 69.915 85.2511 75.5432 92.1398 77.1012C92.1398 77.1012 86.923 78.0028 86.8179 84.27C86.8179 84.27 84.9798 78.8431 78.38 77.1012C78.38 77.1012 83.8944 76.4447 83.553 69.9237V69.915Z" fill="#6CF479"/>
<path d="M11.2824 24.8128C11.2824 24.8128 12.359 28.3753 16.7093 29.3557C16.7093 29.3557 13.4094 29.9246 13.3394 33.8897C13.3394 33.8897 12.1752 30.4586 8 29.3557C8 29.3557 11.4925 28.9443 11.2737 24.8128H11.2824Z" fill="#6CF479"/>
</svg>
