<svg width="100" height="100" viewBox="0 0 100 100" fill="none" xmlns="http://www.w3.org/2000/svg">
<g clip-path="url(#clip0_15980_11127)">
<rect width="100" height="100" fill="#C7FFC6"/>
<path d="M44.9878 9.58969C45.3373 9.29392 45.6511 8.96229 45.9737 8.63962C46.7355 7.84192 48.8952 5.97762 52.0587 6.33614C53.3761 6.48851 54.3978 7.08903 55.1058 7.69851C56.8892 4.59733 60.2409 2.5 64.0766 2.5C69.7943 2.5 74.4276 7.13384 74.4276 12.8522V13.8471H31.4375C39.0282 13.8471 42.6667 11.5884 44.9788 9.58969H44.9878Z" fill="#006A4D"/>
<path d="M22.1529 59.785C23.3717 59.7492 24.5726 59.5878 25.7376 59.301V26.0216C24.5726 25.7348 23.3717 25.5734 22.1529 25.5376V59.785ZM11.094 56.164C12.2052 57.0334 13.4061 57.7594 14.6787 58.333V27.0165C13.4061 27.5811 12.2052 28.2982 11.094 29.1676V56.164ZM34.4396 31.2918C34.0274 30.8257 33.5434 30.2969 33.0505 29.8488C32.9878 29.795 32.9161 29.7412 32.8534 29.6874V55.6352C33.167 55.3663 33.4806 55.0884 33.7853 54.7926L36.4381 52.1217V33.5594L34.4396 31.2918Z" fill="black"/>
<path d="M85.1551 66.9825C84.94 66.14 84.2051 65.5395 83.3447 65.4768L71.5599 64.6522C71.4971 64.6522 71.4344 64.6522 71.3717 64.6522C70.7892 64.6522 70.2245 64.8404 69.7496 65.1899L59.2553 73.1042C58.9326 73.3462 59.076 73.8661 59.4793 73.9109L70.9416 75.0851C72.3665 75.2285 73.5405 76.2682 73.8721 77.6574L75.6645 85.258C75.7631 85.6882 76.1484 85.9571 76.5427 85.9571C76.7309 85.9571 76.9191 85.8944 77.0804 85.7689C80.3694 83.1696 83.7569 79.9071 86.7771 75.8738C87.0997 75.4346 87.2073 74.8699 87.0729 74.3501L85.164 66.9915L85.1551 66.9825ZM94.3767 59.1668L93.7315 56.1463C93.5523 55.3128 92.8264 54.7302 91.984 54.7302C91.9571 54.7302 91.9213 54.7302 91.8944 54.7302C89.6987 54.8377 85.3612 55.0529 80.5666 55.259C80.1095 55.2769 79.6793 55.4741 79.3656 55.7968L72.6622 62.6355C72.3933 62.9044 72.5726 63.3705 72.949 63.3974L83.4343 64.1323C84.8772 64.2309 86.087 65.2437 86.4545 66.642L88.0318 72.7188C88.0855 72.9339 88.2827 73.0594 88.4709 73.0594C88.6143 73.0594 88.7577 72.9967 88.8384 72.8533C91.043 69.3936 92.9429 65.4499 94.3051 60.9505C94.4843 60.3769 94.5023 59.7584 94.3679 59.1668H94.3767ZM70.7981 76.4205L57.1582 75.0223C56.97 75.0044 56.7908 74.9954 56.6026 74.9954C56.1455 74.9954 55.6974 75.0492 55.2493 75.1657C50.7505 76.3399 39.4137 79.925 37.6123 86.5487C37.6123 86.5487 35.3539 93.8624 48.8953 94.9201C49.8542 94.9918 50.8222 95.0366 51.7721 95.0366C59.5958 95.0366 67.2402 92.5628 73.7734 88.1799C74.0423 87.4898 74.2395 86.9789 74.4994 86.2887L72.5367 77.9711C72.3395 77.1376 71.6316 76.5191 70.7802 76.4295L70.7981 76.4205Z" fill="#6CF479"/>
<path d="M50.365 77.9683C52.4173 77.2692 55.5361 76.2385 56.4771 76.0592L68.6203 77.2244L63.8975 79.743C63.2523 80.0836 62.5263 80.227 61.8004 80.1463L50.4636 78.8377C49.9886 78.7839 49.9169 78.1207 50.374 77.9683H50.365Z" fill="black"/>
<path d="M61.6659 72.9278L71.0758 65.8919L81.4358 66.5641L72.7965 73.8151L61.6659 72.9278Z" fill="black"/>
<path d="M74.8667 62.391L80.3603 56.5651L90.3079 56.1797L84.9756 62.9377L74.8667 62.391Z" fill="black"/>
<path d="M94.3764 59.1635L93.7312 56.143C93.6415 55.7127 93.3906 55.3453 93.068 55.0943L85.3519 64.8998C85.8806 65.339 86.2749 65.9395 86.4541 66.6386L87.6909 71.3979L88.0314 72.7155C88.13 73.0919 88.6319 73.1815 88.847 72.8499C91.0516 69.3902 92.9515 65.4465 94.3137 60.9471C94.4929 60.3735 94.5108 59.755 94.3764 59.1635ZM85.1547 66.9792C85.0293 66.4862 84.7245 66.0829 84.3212 65.814L72.8232 75.9063C73.334 76.3544 73.7104 76.9639 73.8718 77.6541L75.673 85.3084C75.8253 85.9448 76.5782 86.2137 77.098 85.8103C81.2115 82.6554 85.0023 78.389 86.7947 76.2558C87.1711 75.8077 87.2966 75.2161 87.1532 74.6604L85.1547 66.9881V66.9792ZM72.3572 77.4658C72.3303 77.421 72.3124 77.3672 72.2765 77.3314C72.2048 77.2238 72.1152 77.1252 72.0256 77.0266C71.9539 76.9549 71.8822 76.8832 71.8015 76.8295C69.7493 78.0395 62.2751 82.2162 60.5365 83.2738C60.5365 83.2738 53.1429 87.2175 53.8778 91.3136C54.4066 94.2176 56.8889 94.4954 59.9897 94.119C65.2414 92.9538 70.3407 90.6414 74.7948 87.4774C74.8306 87.4506 72.5543 77.9678 72.5543 77.9678C72.5095 77.7885 72.4378 77.6272 72.3572 77.4748V77.4658Z" fill="#11B67A"/>
<path d="M92.5396 31.8464C84.456 24.452 72.9221 23.717 62.8759 29.283C62.84 29.3009 62.8131 29.3099 62.7773 29.3278C60.3307 30.6991 57.9737 32.438 55.778 34.5442L34.7177 55.7416C31.0702 59.3895 26.2218 61.2987 21.0688 61.1463C15.9157 60.9849 11.1928 58.7621 7.76037 54.8722C1.61253 47.908 1.61253 37.4034 7.76037 30.4482C11.0583 26.7196 15.5931 24.4968 20.5311 24.201C25.487 23.9052 30.2367 25.5544 33.929 28.8348C34.4219 29.274 34.888 29.776 35.4346 30.3854L45.687 42.0104L47.7034 40.2357L37.4511 28.6018C36.8417 27.9206 36.3218 27.356 35.7214 26.8182C31.4914 23.0537 26.0426 21.1536 20.3697 21.5032C14.7058 21.8438 9.51689 24.3803 5.74395 28.6556C-1.30007 36.6326 -1.30007 48.6699 5.74395 56.6469C9.66924 61.0925 15.0823 63.638 20.9881 63.8262C21.2032 63.8262 21.4183 63.8352 21.6334 63.8352C27.2256 63.8352 32.6564 61.5944 36.6265 57.6328L57.66 36.4623C59.7033 34.4994 61.899 32.8951 64.1753 31.6313C72.6801 27.58 78.4515 32.2766 79.5269 33.2715C82.5023 36.0052 85.6121 44.0181 84.2768 53.7429C85.2357 53.6981 86.1587 53.6533 87.0101 53.6174C87.6105 48.7685 87.1535 44.7172 86.553 41.9118C85.5672 37.2959 83.6674 33.4239 81.3462 31.2907C80.7637 30.7529 79.043 29.3188 76.4262 28.3329C81.6599 28.3329 86.6785 30.1345 90.7203 33.8272C96.2318 38.8644 98.6247 49.1897 96.6889 59.515C94.8876 69.1143 87.9062 86.619 61.5673 97.491H68.0916C91.1057 86.0723 97.5582 69.437 99.3326 60.008C101.439 48.8043 98.7053 37.4841 92.5306 31.8374L92.5396 31.8464Z" fill="#6CF479"/>
<path d="M40.749 94.3002C36.7161 95.6357 32.8536 96.6844 29.4032 97.5H39.575C41.3136 96.9533 43.088 96.3617 44.8894 95.7074C43.2942 95.3668 41.923 94.8918 40.749 94.3002Z" fill="#6CF479"/>
<path d="M47.8555 48.2601L44.2708 51.8721V77.9364C45.4448 77.3 46.6636 76.7354 47.8555 76.2334V48.2601Z" fill="#11B67A"/>
<path d="M68.943 64.1138C69.2566 63.8808 69.606 63.6926 69.9735 63.5581V31.3005C68.8174 31.417 67.6255 31.7038 66.3887 32.1699V66.0409L68.943 64.1138Z" fill="#11B67A"/>
<path d="M56.6114 73.6504C56.8444 73.6504 57.0774 73.6594 57.3014 73.6863L57.7674 73.7311C57.6689 73.0857 57.9108 72.4315 58.4396 72.0281L58.9056 71.6786V37.1264L58.6189 37.4132L55.3209 40.7385V73.7938C55.7421 73.7132 56.1723 73.6594 56.6025 73.6594L56.6114 73.6504Z" fill="#11B67A"/>
<path d="M78.3977 54.866C78.9533 54.2924 79.7061 53.9608 80.5037 53.9249C80.683 53.9249 80.8533 53.907 81.0236 53.898V37.7737C80.2439 36.1514 79.3656 34.9593 78.6128 34.2692C78.2364 33.9196 77.8421 33.6059 77.4388 33.3101V55.834L78.3977 54.8571V54.866Z" fill="#11B67A"/>
<path d="M22.1532 86.1831H25.7379V64.8065C24.555 65.0306 23.363 65.1561 22.1532 65.1829V86.1921V86.1831Z" fill="#11B67A"/>
<path d="M0.0351562 86.1834H3.6199V56.1486C1.97092 53.9437 0.770029 51.5058 0.0351562 48.9603V86.1834Z" fill="#11B67A"/>
<path d="M36.7967 84.8981V59.3447C35.6944 60.3486 34.4846 61.2359 33.212 61.9888V86.1887H36.3308C36.4473 85.7496 36.6085 85.3193 36.7967 84.8981Z" fill="#11B67A"/>
<path d="M11.094 86.1812H14.6787V64.0875C13.442 63.6842 12.2411 63.1823 11.094 62.5728V86.1812Z" fill="#11B67A"/>
</g>
<defs>
<clipPath id="clip0_15980_11127">
<rect width="100" height="100" fill="white"/>
</clipPath>
</defs>
</svg>
