<svg width="100" height="100" viewBox="0 0 100 100" fill="none" xmlns="http://www.w3.org/2000/svg">
<g clip-path="url(#clip0_15980_11140)">
<rect width="100" height="100" fill="#C7FFC6"/>
<path fill-rule="evenodd" clip-rule="evenodd" d="M36.833 43.2844L39.3226 44.7337L48.7143 50.1578C49.2165 50.4448 49.5035 50.947 49.5035 51.521V65.2677C49.5035 65.8417 49.2165 66.3439 48.7143 66.6309C48.2121 66.9179 47.6381 66.9179 47.143 66.6309L35.2617 59.7575C34.7595 59.4706 34.4725 58.9683 34.4725 58.3943V44.662C34.4725 44.0736 34.7595 43.5714 35.2617 43.2844C35.764 42.9974 36.3379 42.9974 36.833 43.2844Z" fill="black"/>
<path fill-rule="evenodd" clip-rule="evenodd" d="M36.8347 62.3122L48.716 69.1856C49.2182 69.4726 49.5052 69.9748 49.5052 70.5488V84.2955C49.5052 84.8695 49.2182 85.3717 48.716 85.6587C48.2138 85.9457 47.6398 85.9457 47.1448 85.6587L35.2634 78.7853C34.7612 78.4984 34.4742 77.9961 34.4742 77.4221V63.6754C34.4742 63.1014 34.7612 62.5992 35.2634 62.3122C35.7657 62.0252 36.3396 62.0252 36.8347 62.3122Z" fill="black"/>
<path fill-rule="evenodd" clip-rule="evenodd" d="M68.2013 59.6642L80.097 52.8052C80.5992 52.5039 81.1732 52.5039 81.6682 52.8052C82.1705 53.0922 82.4575 53.5801 82.4575 54.1684V67.9152C82.4575 68.4891 82.1705 68.9914 81.6682 69.2784L69.7726 76.1517C69.2703 76.4387 68.6964 76.4387 68.2013 76.1517C67.6991 75.8504 67.4121 75.3625 67.4121 74.7742V61.0274C67.4121 60.4535 67.6991 59.9512 68.2013 59.6642Z" fill="#11B67A"/>
<path fill-rule="evenodd" clip-rule="evenodd" d="M51.7204 69.1856L63.6161 62.3122C64.1183 62.0252 64.6923 62.0252 65.1873 62.3122C65.6896 62.5992 65.9766 63.1014 65.9766 63.6754V77.4221C65.9766 77.9961 65.6896 78.4984 65.1873 78.7853L53.2917 85.6587C52.7894 85.9457 52.2155 85.9457 51.7204 85.6587C51.2182 85.3717 50.9312 84.8695 50.9312 84.2955V70.5488C50.9312 69.9748 51.2182 69.4726 51.7204 69.1856Z" fill="#11B67A"/>
<path fill-rule="evenodd" clip-rule="evenodd" d="M67.4121 42.4959C67.4121 41.6278 67.8713 40.8242 68.6246 40.3937C71.1573 38.9372 77.019 35.5508 80.097 33.7786C80.5992 33.4916 81.1732 33.4916 81.6682 33.7786C82.1705 34.0656 82.4575 34.5678 82.4575 35.1418V48.8886C82.4575 49.4625 82.1705 49.9648 81.6682 50.2518L69.7726 57.1251C69.2703 57.4121 68.6964 57.4121 68.2013 57.1251C67.6991 56.8381 67.4121 56.3359 67.4121 55.7476V42.4959Z" fill="#11B67A"/>
<path fill-rule="evenodd" clip-rule="evenodd" d="M67.9144 39.1667C67.161 39.6043 66.2355 39.6043 65.4893 39.1667L54.017 32.5372C53.5147 32.2502 53.2278 31.7624 53.2278 31.174C53.2278 30.6 53.5147 30.0978 54.017 29.8108L65.9126 22.9375C66.4149 22.6505 66.9888 22.6505 67.4839 22.9375L79.3796 29.8108C79.8818 30.0978 80.1688 30.6 80.1688 31.174C80.1688 31.748 79.8818 32.2502 79.3796 32.5372L67.9072 39.1667H67.9144Z" fill="#6CF479"/>
<path fill-rule="evenodd" clip-rule="evenodd" d="M58.0573 28.7342L66.0499 24.372C66.5521 24.085 67.1261 24.085 67.6212 24.372L75.5205 28.562C76.0228 28.849 71.2014 26.5244 67.0615 26.4096C63.1944 26.3091 57.5551 29.0212 58.0573 28.7342Z" fill="white"/>
<path fill-rule="evenodd" clip-rule="evenodd" d="M51.7204 50.1578L63.6161 43.2844C64.1183 42.9974 64.6923 42.9974 65.1873 43.2844C65.6896 43.5714 65.9766 44.0736 65.9766 44.662V58.3943C65.9766 58.9683 65.6896 59.4706 65.1873 59.7575L53.2917 66.6309C52.7894 66.9179 52.2155 66.9179 51.7204 66.6309C51.2254 66.3439 50.9312 65.8417 50.9312 65.2677V51.521C50.9312 50.947 51.2182 50.4448 51.7204 50.1578Z" fill="#11B67A"/>
<path fill-rule="evenodd" clip-rule="evenodd" d="M37.5378 39.3243L49.4334 32.4509C49.9357 32.1639 50.5097 32.1639 51.0047 32.4509L62.9004 39.3243C63.4026 39.6113 63.6896 40.1135 63.6896 40.7018C63.6896 41.2758 63.4026 41.778 62.9004 42.065L51.0047 48.9384C50.5025 49.2254 49.9285 49.2254 49.4334 48.9384L37.5378 42.065C37.0355 41.778 36.7486 41.2758 36.7486 40.7018C36.7486 40.1279 37.0355 39.6113 37.5378 39.3243Z" fill="#6CF479"/>
<path fill-rule="evenodd" clip-rule="evenodd" d="M23.0154 60.7982L32.9954 65.7918V66.6958C32.9954 66.6958 32.9954 66.9541 32.9954 70.2473V80.5717L29.0421 78.5843C28.4395 78.283 27.9229 77.752 27.6646 77.1207L21.3796 62.2905C21.1069 61.6735 21.1643 61.1282 21.5087 60.8125C21.8531 60.4969 22.4127 60.4825 23.0154 60.7982Z" fill="black"/>
<path fill-rule="evenodd" clip-rule="evenodd" d="M31.0079 49.0892L33.0025 53.8891V64.2709L21.1068 58.1868C20.5041 57.8711 20.0019 57.3401 19.7436 56.7088L13.559 41.8356C13.3007 41.2042 13.3581 40.6733 13.7025 40.3576C14.0612 40.0419 14.6065 40.0419 15.2235 40.3432L29.8743 47.8552C30.3837 48.1206 30.7855 48.5511 31.0079 49.082V49.0892Z" fill="black"/>
<path fill-rule="evenodd" clip-rule="evenodd" d="M29.1001 44.1458C28.3611 44.7413 27.3423 44.8417 26.4956 44.4184L16.7022 39.5037L15.5399 38.9154C15.052 38.6715 14.765 38.1836 14.7506 37.5522C14.7363 36.9208 15.0089 36.3469 15.4825 35.981L26.7611 26.9623C27.2346 26.5893 27.7799 26.5032 28.2678 26.7471L39.8478 32.5586C40.3357 32.8026 40.6227 33.3048 40.637 33.9218C40.6514 34.5532 40.3931 35.1272 39.9052 35.4931L29.0929 44.1386L29.1001 44.1458Z" fill="#6CF479"/>
<path fill-rule="evenodd" clip-rule="evenodd" d="M44.4682 31.6474C43.7293 32.2429 42.7176 32.3506 41.871 31.9344L32.056 27.07L30.8937 26.4816C30.3915 26.252 30.1045 25.7498 30.0901 25.1184C30.0758 24.5014 30.3341 23.9274 30.8076 23.5472L42.0432 14.4855C42.5311 14.0981 43.0764 14.0263 43.5642 14.2703L55.1729 20.0244C55.6608 20.2683 55.9478 20.7562 55.9621 21.3876C55.9765 22.0046 55.7182 22.5929 55.2447 22.9589L44.4682 31.6474Z" fill="#6CF479"/>
<path fill-rule="evenodd" clip-rule="evenodd" d="M34.9826 21.8035L42.1717 16.0063C42.6596 15.6189 43.2048 15.5471 43.6927 15.7911L51.0683 19.443C51.5562 19.6869 47.8397 18.0511 42.7241 18.4672C39.4022 18.7399 34.5163 22.1837 34.9898 21.8035H34.9826Z" fill="white"/>
<path fill-rule="evenodd" clip-rule="evenodd" d="M19.9302 34.4021L27.1193 28.6049C27.6072 28.2175 28.1524 28.1457 28.6403 28.3897L36.0159 32.0416C36.5038 32.2856 32.7873 30.6497 27.6717 31.0659C24.3499 31.3385 19.4639 34.7824 19.9374 34.4021H19.9302Z" fill="white"/>
<path fill-rule="evenodd" clip-rule="evenodd" d="M41.4824 38.1904L49.475 33.8282C49.9773 33.5412 50.5512 33.5412 51.0463 33.8282L58.9457 38.0182C59.4479 38.3052 54.6265 35.9806 50.4867 35.8658C46.6195 35.7653 40.9802 38.4774 41.4824 38.1904Z" fill="white"/>
<path fill-rule="evenodd" clip-rule="evenodd" d="M65.3317 45.8249L65.0375 57.3762C65.0375 58.108 64.6716 58.7394 64.0331 59.1053L54.4046 65.1177C53.7732 65.4836 59.391 61.6739 62.1461 57.1969C64.7218 53.014 65.3317 45.0931 65.3245 45.8249H65.3317Z" fill="#006A4D"/>
<path fill-rule="evenodd" clip-rule="evenodd" d="M64.8652 64.5144L64.571 76.0657C64.571 76.7975 64.2051 77.4289 63.5666 77.7948L53.9381 83.8072C53.3068 84.1731 58.9245 80.3633 61.6796 75.8863C64.2554 71.7035 64.8652 63.7826 64.858 64.5144H64.8652Z" fill="#006A4D"/>
<path fill-rule="evenodd" clip-rule="evenodd" d="M81.3171 54.836L81.0229 66.3873C81.0229 67.1191 80.657 67.7505 80.0184 68.1164L70.39 74.1288C69.7586 74.4947 75.3764 70.685 78.1315 66.208C80.7072 62.0251 81.3171 54.1042 81.3099 54.836H81.3171Z" fill="#006A4D"/>
<path fill-rule="evenodd" clip-rule="evenodd" d="M81.3171 36.1457L81.0229 47.697C81.0229 48.4288 80.657 49.0602 80.0184 49.4261L70.39 55.4385C69.7586 55.8044 75.3764 51.9947 78.1315 47.5176C80.7072 43.3348 81.3171 35.4139 81.3099 36.1457H81.3171Z" fill="#006A4D"/>
<path d="M97.44 66.3586C98.2507 71.1011 94.1468 74.9683 88.1057 75.4131C87.173 78.1395 84.1596 80.1341 80.1704 80.665C83.0475 81.0309 86.2259 80.8444 89.3684 80.0982C97.3108 78.2184 101.917 70.8644 99.2982 65.2035C98.0642 62.5417 95.4956 60.5902 92.267 59.5211C95.0149 61.2215 96.9736 63.6538 97.4328 66.3515L97.44 66.3586Z" fill="#006A4D"/>
<path d="M2.63367 36.3114C1.82293 31.5689 5.92686 27.7018 11.968 27.2569C12.9007 24.5305 15.9141 22.536 19.9032 22.005C17.0261 21.6391 13.8477 21.8257 10.7052 22.5718C2.75564 24.4444 -1.85053 31.7985 0.775418 37.4594C2.00947 40.1212 4.57801 42.0727 7.80663 43.1417C5.05872 41.4413 3.10002 39.0091 2.64084 36.3114H2.63367Z" fill="#006A4D"/>
</g>
<defs>
<clipPath id="clip0_15980_11140">
<rect width="100" height="100" fill="white"/>
</clipPath>
</defs>
</svg>
