<svg width="100" height="100" viewBox="0 0 100 100" fill="none" xmlns="http://www.w3.org/2000/svg">
<g clip-path="url(#clip0_15980_11154)">
<rect width="100" height="100" fill="#C7FFC6"/>
<path d="M7.04412 49.8421C7.04412 49.8421 7.67659 51.9474 10.2288 52.5286C10.2288 52.5286 8.29015 52.8625 8.25234 55.2048C8.25234 55.2048 7.56831 53.1739 5.12265 52.5234C5.12265 52.5234 7.17302 52.2778 7.0424 49.8421H7.04412Z" fill="#11B67A"/>
<path d="M19.8965 10.9727C19.8965 10.9727 20.6716 13.552 23.8013 14.2629C23.8013 14.2629 21.4278 14.6764 21.378 17.548C21.378 17.548 20.5427 15.0622 17.5367 14.2629C17.5367 14.2629 20.0477 13.9602 19.8913 10.9727H19.8965Z" fill="#11B67A"/>
<path d="M69.451 83.3973C69.451 83.3973 70.2261 85.9766 73.3558 86.6876C73.3558 86.6876 70.9823 87.101 70.9325 89.9727C70.9325 89.9727 70.0972 87.4868 67.0913 86.6876C67.0913 86.6876 69.6022 86.3848 69.4458 83.3973H69.451Z" fill="#11B67A"/>
<path d="M76.0351 28.1872C76.0351 28.1872 77.2347 32.1833 82.0865 33.2887C82.0865 33.2887 78.4069 33.9253 78.3329 38.3763C78.3329 38.3763 77.0354 34.5238 72.3829 33.2887C72.3829 33.2887 76.274 32.8233 76.0351 28.1906V28.1854V28.1872Z" fill="#11B67A"/>
<path d="M43.1998 42.2514L41.4193 41.4781C41.397 41.4694 41.3884 41.4435 41.397 41.4227L42.1119 39.7378C42.1205 39.7153 42.1463 39.7067 42.1669 39.7153L43.9475 40.4886C43.9681 40.4972 43.9784 40.5232 43.9698 40.5439L43.2548 42.2289C43.2462 42.2514 43.2205 42.26 43.1998 42.2514Z" fill="#11B67A"/>
<path d="M48.5042 43.0386L43.7737 41.0047L43.4645 41.7333L48.195 43.7672L48.5042 43.0386Z" fill="#11B67A"/>
<path d="M44.0155 41.1116L43.772 41.0071L43.4633 41.736L43.7068 41.8405L44.0155 41.1116Z" fill="black"/>
<path d="M43.4983 40.2972L43.3387 40.2285L42.5897 41.9907L42.7493 42.0595L43.4983 40.2972Z" fill="black"/>
<path d="M39.7596 50.3635L37.433 49.3637C37.4111 49.3543 37.3859 49.3645 37.3766 49.3865L36.6626 51.0697C36.6533 51.0917 36.6634 51.1171 36.6852 51.1265L39.0119 52.1263C39.0337 52.1357 39.059 52.1255 39.0683 52.1035L39.7823 50.4203C39.7916 50.3983 39.7815 50.3729 39.7596 50.3635Z" fill="#11B67A"/>
<path d="M44.3126 52.9158L34.3822 48.6463L34.073 49.3749L44.0034 53.6444L44.3126 52.9158Z" fill="#11B67A"/>
<path d="M39.8238 50.9878L39.5803 50.8833L39.2716 51.6122L39.5151 51.7166L39.8238 50.9878Z" fill="black"/>
<path d="M39.3032 50.1756L39.1435 50.107L38.3955 51.8697L38.5551 51.9383L39.3032 50.1756Z" fill="black"/>
<path d="M60.1117 49.522L61.8252 50.2658C61.8458 50.2745 61.8716 50.2658 61.8802 50.2433L62.5952 48.5584C62.6038 48.5376 62.5952 48.5117 62.5728 48.503L60.8593 47.7592C60.837 47.7505 60.8129 47.7592 60.8043 47.7817L60.0894 49.4666C60.0808 49.4891 60.0894 49.5133 60.1117 49.522Z" fill="#11B67A"/>
<path d="M55.5714 46.9337L60.3019 48.9676L60.6111 48.239L55.8806 46.2051L55.5714 46.9337Z" fill="#11B67A"/>
<path d="M60.0556 48.8632L60.3006 48.9685L60.6099 48.24L60.3649 48.1346L60.0556 48.8632Z" fill="black"/>
<path d="M60.5604 49.7142L60.72 49.7828L61.4678 48.02L61.3081 47.9514L60.5604 49.7142Z" fill="black"/>
<path d="M55.9176 59.4009L58.2442 60.4011C58.266 60.4105 58.2912 60.4003 58.3005 60.3784L59.0148 58.6952C59.0242 58.6733 59.014 58.6479 58.9922 58.6385L56.6657 57.6382C56.6439 57.6288 56.6186 57.639 56.6093 57.661L55.895 59.3441C55.8857 59.3661 55.8958 59.3915 55.9176 59.4009Z" fill="#11B67A"/>
<path d="M51.3785 56.8126L61.3089 61.0822L61.6181 60.3536L51.6877 56.084L51.3785 56.8126Z" fill="#11B67A"/>
<path d="M55.8655 58.7416L56.1089 58.8463L56.4182 58.1177L56.1749 58.013L55.8655 58.7416Z" fill="black"/>
<path d="M56.3643 59.5945L56.524 59.6631L57.2717 57.9003L57.112 57.8317L56.3643 59.5945Z" fill="black"/>
<path d="M56.7945 33.7729C55.0157 33.0083 53.486 32.5377 53.2248 32.6657C53.2076 32.6744 53.1956 32.6848 53.1904 32.6986L52.8347 33.5376L52.7058 33.8404L48.098 44.6973L54.9658 47.6502L60.0565 35.6516C60.151 35.4301 58.6902 34.5877 56.7928 33.7729H56.7945Z" fill="#11B67A"/>
<path d="M52.7248 38.1254L54.8868 33.0308C53.921 32.7004 53.249 32.5586 53.1888 32.6987L51.1694 37.4559L52.7248 38.1254Z" fill="#035D3E"/>
<path d="M57.3516 32.4583C56.2912 32.0033 55.3682 31.7836 55.2909 31.9687L55.095 32.4289L50.6488 42.907L54.4865 44.5573L54.6945 44.066L54.8904 43.6058L59.1287 33.6174C59.2077 33.4323 58.412 32.9133 57.3516 32.4566V32.4583Z" fill="black"/>
<path d="M57.2141 32.7836C56.1537 32.3286 55.2307 32.1089 55.1517 32.294L50.9134 42.2825L54.7512 43.9328L58.9895 33.9443C59.0685 33.7592 58.2728 33.2402 57.2123 32.7836H57.2141Z" fill="#11B67A"/>
<path d="M55.528 36.7571C53.6323 35.9423 52.0167 35.4614 51.9239 35.6828L46.8332 47.6814L53.701 50.6344L58.7917 38.6358C58.8862 38.4143 57.4254 37.5719 55.528 36.7571Z" fill="black"/>
<path d="M52.3399 35.6186L53.5808 32.6691C53.3573 32.6345 53.2146 32.6381 53.1888 32.6987L52.0185 35.4802L52.3399 35.6186Z" fill="#11B67A"/>
<path d="M55.1928 37.546C51.5011 35.9579 48.3594 35.022 48.1755 35.4562L47.8799 36.1517C48.0638 35.7192 51.2055 36.6551 54.8972 38.2414C58.5889 39.8295 61.4333 41.466 61.2494 41.8984L61.545 41.203C61.7289 40.7705 58.8845 39.1323 55.1928 37.546Z" fill="#A7BABD"/>
<path d="M60.6773 40.0698C60.6223 40.0334 60.5639 39.9971 60.5037 39.959C59.366 39.2446 57.472 38.2845 55.2807 37.3417C55.2756 37.34 55.2704 37.3365 55.2652 37.3348C55.1226 37.2725 54.9799 37.2137 54.8373 37.1531C54.7961 37.1358 54.7565 37.1185 54.7153 37.103C54.5881 37.0493 54.4609 36.9974 54.3355 36.9455C54.3148 36.9369 54.2959 36.9282 54.2753 36.9213C54.1326 36.8625 53.99 36.8054 53.8491 36.7501C53.813 36.7362 53.7786 36.7224 53.7425 36.7085C53.6222 36.6601 53.5019 36.6134 53.385 36.5667C53.361 36.558 53.3386 36.5477 53.3146 36.539C53.1753 36.4854 53.0378 36.4318 52.9021 36.3816C52.8763 36.3712 52.8505 36.3626 52.8247 36.3522C52.7062 36.3072 52.5893 36.264 52.4741 36.2207C52.4518 36.2121 52.4294 36.2034 52.4071 36.1965C52.273 36.1463 52.1407 36.0996 52.0101 36.0529C51.9981 36.0477 51.9843 36.0443 51.9723 36.0391C51.852 35.9958 51.7351 35.956 51.6182 35.9162C51.5993 35.9093 51.5821 35.9041 51.5632 35.8972C51.3072 35.8107 51.0631 35.7294 50.8311 35.6568C50.8191 35.6533 50.807 35.6498 50.795 35.6446C50.5595 35.5703 50.3378 35.5045 50.1282 35.4457C50.1213 35.444 50.1144 35.4422 50.1092 35.4405C49.8978 35.3817 49.7019 35.3315 49.5215 35.29C49.5197 35.29 49.518 35.29 49.5163 35.29C49.0265 35.1758 48.6587 35.1291 48.4507 35.1568C48.4507 35.1568 48.4353 35.1603 48.4284 35.1603C48.4078 35.1637 48.3889 35.1689 48.3699 35.1741C48.3631 35.1758 48.3545 35.1793 48.3476 35.1828C48.3321 35.188 48.3201 35.1966 48.3081 35.2035C48.3029 35.207 48.2978 35.2104 48.2926 35.2139C48.2789 35.226 48.2668 35.2398 48.2617 35.2537L48.2445 35.2969L48.1981 35.4059L46.1065 40.3344L45.8521 40.9364L43.9495 45.4221L43.8241 45.7162C43.8241 45.7162 43.8241 45.7179 43.8241 45.7196L38.3553 58.6075L51.7248 64.3542L54.9954 56.6475L55.1209 56.3534L57.1953 51.4647L57.3208 51.1671L61.6157 41.0454L61.6363 40.9987C61.6415 40.9849 61.6449 40.971 61.6449 40.9555C61.6449 40.7807 61.2926 40.4694 60.6808 40.0715L60.6773 40.0698Z" fill="#11B67A"/>
<path d="M55.4131 37.3991C55.3684 37.3801 55.3255 37.361 55.2808 37.3403C51.5891 35.754 48.4473 34.8163 48.2635 35.2505L38.3519 58.6061L38.6183 58.7202L48.5298 35.3647C48.7103 34.9374 51.7798 35.8456 55.4131 37.3991Z" fill="#11B67A"/>
<path d="M51.4942 61.9497L60.0171 41.8637C60.1632 41.5195 60.036 41.1251 59.7163 40.9417C59.1836 40.6355 58.5356 40.2912 57.8 39.928C57.4254 39.7429 56.9716 39.9089 56.8084 40.2982L48.2906 60.3703C48.1377 60.7284 48.2906 61.1418 48.6361 61.3148C49.3304 61.6643 49.9492 61.9981 50.4682 62.2991C50.8446 62.5188 51.3224 62.3562 51.496 61.9497H51.4942Z" fill="black"/>
<path d="M51.7213 64.3542C51.5374 64.7867 48.3957 63.8508 44.704 62.2645C41.0123 60.6764 38.1679 59.0399 38.3518 58.6074C38.5357 58.1749 41.6774 59.1108 45.3691 60.6972C49.0608 62.2835 51.9052 63.9217 51.7213 64.3542Z" fill="black"/>
<path d="M51.3983 64.216C51.2384 64.5931 48.26 63.6745 44.747 62.1626C41.2341 60.6524 38.5151 59.1214 38.675 58.746C38.8348 58.3689 41.8132 59.2875 45.3262 60.7994C48.8392 62.3096 51.5581 63.8406 51.3983 64.216Z" fill="#11B67A"/>
<path d="M50.3052 63.7455C50.1917 64.0119 47.7426 63.2127 44.8329 61.9619C41.9232 60.7112 39.6563 59.4812 39.768 59.2148C39.8815 58.9484 42.3323 59.7459 45.242 60.9984C48.1517 62.2491 50.4186 63.4791 50.3052 63.7455Z" fill="black"/>
<path d="M46.2102 62.1016L43.4111 60.8981L42.478 63.0967L45.2771 64.3001L46.2102 62.1016Z" fill="white"/>
<path d="M46.2098 64.013L42.0389 62.2197C42.0153 62.2095 41.988 62.2205 41.978 62.2443L41.5202 63.3229C41.5102 63.3466 41.5211 63.374 41.5447 63.3842L45.7156 65.1775C45.7392 65.1876 45.7665 65.1766 45.7765 65.1529L46.2343 64.0743C46.2443 64.0505 46.2334 64.0231 46.2098 64.013Z" fill="black"/>
<path d="M46.352 62.8526L42.7737 61.3148C42.5864 61.2334 42.4988 61.0155 42.5795 60.8269C42.6586 60.6384 42.8751 60.5501 43.0625 60.6314L46.6407 62.1693C46.8281 62.2489 46.9157 62.4669 46.835 62.6554C46.7542 62.844 46.5376 62.9322 46.3503 62.8509L46.352 62.8526Z" fill="white"/>
<path d="M44.1382 63.5897C40.3159 61.9462 36.2014 62.4306 33.4464 64.5152C33.4292 64.5273 33.4137 64.5394 33.3966 64.5532C33.3192 64.6138 33.2419 64.6743 33.1663 64.7366C33.137 64.7608 33.1078 64.785 33.0786 64.811C33.0116 64.8681 32.9428 64.9269 32.8775 64.9857C32.8414 65.0186 32.8071 65.0514 32.771 65.0843C32.7108 65.1414 32.6507 65.1967 32.5922 65.2538C32.5441 65.3005 32.4994 65.3507 32.453 65.3991C32.3774 65.4787 32.3035 65.5583 32.2313 65.6413C32.1763 65.7036 32.1213 65.7659 32.068 65.8299C32.0319 65.8731 31.9958 65.9198 31.9615 65.9648C31.9116 66.0271 31.8618 66.0911 31.8137 66.1568C31.7793 66.2018 31.7466 66.2485 31.714 66.2952C31.6659 66.3627 31.6195 66.4319 31.573 66.5011C31.5438 66.5461 31.5129 66.591 31.4854 66.636C31.4356 66.7139 31.3892 66.7934 31.3427 66.873C31.3204 66.9128 31.2963 66.9509 31.274 66.9907C31.207 67.1117 31.1417 67.2328 31.0798 67.3574L31.0764 67.366L31.011 67.52C30.7206 68.6306 34.646 71.2999 39.9103 73.5626C45.1746 75.8253 49.8116 76.8373 50.4079 75.8599L50.4732 75.7059L50.4767 75.6973C52.0957 71.1718 49.3458 65.8299 44.1417 63.5914L44.1382 63.5897Z" fill="#11B67A"/>
<path d="M50.4389 75.8027C50.432 75.8199 50.42 75.8459 50.4045 75.858C49.8081 76.8371 45.1712 75.8234 39.9069 73.5607C34.6426 71.298 30.7189 68.6287 31.0076 67.5181C31.0076 67.4974 31.0179 67.4714 31.0248 67.4541C31.0403 67.4195 31.0506 67.3936 31.0729 67.3642L31.0764 67.3555C31.7724 66.4508 36.3647 67.4524 41.5516 69.6822C46.7472 71.9156 50.6417 74.5623 50.4732 75.6937L50.4698 75.7023C50.4646 75.7404 50.4526 75.7663 50.4389 75.8009V75.8027Z" fill="black"/>
<path d="M41.5532 69.6889C37.0864 67.7687 33.0784 66.7584 31.5987 67.0923C33.197 66.8639 37.0812 67.8707 41.3882 69.7235C46.7505 72.0277 50.7275 74.7644 50.2737 75.8352C50.1981 76.0134 49.9936 76.1293 49.698 76.1968C50.0898 76.1414 50.3495 76.0137 50.4389 75.8027C50.8926 74.7318 46.9137 71.9966 41.5532 69.6906V69.6889Z" fill="#11B67A"/>
<path d="M41.9794 70.357L38.2035 78.1658L37.7446 77.9686L40.7385 69.8242C40.9551 69.9072 41.1665 69.9989 41.3796 70.0906C41.5841 70.1788 41.7869 70.2653 41.9794 70.3587V70.357Z" fill="white"/>
<path d="M38.9546 78.489C38.7226 79.034 38.097 79.2865 37.5556 79.0547C37.0143 78.8212 36.7633 78.1915 36.9936 77.6466C37.2256 77.1016 37.8512 76.8491 38.3926 77.0809C38.934 77.3144 39.1849 77.9441 38.9546 78.489Z" fill="white"/>
<path d="M38.0507 78.8869C37.5093 78.6534 37.2583 78.0237 37.4886 77.4788C37.578 77.2677 37.7378 77.1172 37.9166 77.0048C37.5247 77.0273 37.1569 77.2573 36.9919 77.6448C36.7599 78.1898 37.0126 78.8212 37.554 79.053C37.8857 79.1948 38.2397 79.1395 38.525 78.9613C38.3669 78.9699 38.2053 78.9526 38.0507 78.8869Z" fill="black"/>
<path d="M45.951 62.7087L43.1519 61.5052L43.0128 61.8329L45.8119 63.0364L45.951 62.7087Z" fill="black"/>
<path d="M45.6504 63.4125L42.8513 62.209L42.7122 62.5367L45.5113 63.7402L45.6504 63.4125Z" fill="black"/>
<path d="M46.7094 65.6016C49.2307 69.961 47.9194 71.9971 47.9194 71.9971C47.9194 71.9971 48.8801 72.4953 49.6862 73.2634C50.4922 74.0314 50.64 74.3065 50.64 74.3065C50.64 74.3065 50.9391 72.4122 50.0815 69.8433C49.2238 67.2744 46.7077 65.6016 46.7077 65.6016H46.7094Z" fill="#6CF479"/>
<path d="M56.4414 36.459L57.7731 33.3424C58.3437 33.6566 58.7245 33.8892 58.6698 34.0166L57.433 36.9474L56.4414 36.459Z" fill="#6CF479"/>
<path d="M43.9595 38.6476L6.2279 22.4263C6.20384 22.4159 6.17634 22.4263 6.16603 22.4505L-0.0624245 37.1253C-0.0727365 37.1495 -0.0624246 37.1772 -0.0383632 37.1876L37.6916 53.4089C37.7156 53.4193 37.7431 53.4089 37.7517 53.3847L43.9784 38.7099C43.9888 38.6857 43.9784 38.658 43.9544 38.6476H43.9595ZM6.49257 39.049L19.2434 28.9705L26.3277 32.0169C21.4123 35.2207 16.3887 38.5075 11.9631 41.4016L6.49086 39.049H6.49257ZM42.2838 39.3396L42.1034 39.7634C35.7391 42.0659 29.4024 44.3529 23.6397 46.4201L15.6926 43.0035C20.6097 40.3204 26.1662 37.2879 31.6453 34.3004L41.9728 38.741C42.2374 38.8552 42.3766 39.1233 42.2838 39.3396Z" fill="#6CF479"/>
<path d="M42.1136 39.7409L42.1051 39.7634C35.7408 42.0659 29.4041 44.3528 23.6414 46.4201L36.8287 52.0907C36.8511 52.0994 36.8751 52.0907 36.8837 52.0682L42.1136 39.7426V39.7409Z" fill="black"/>
<path d="M19.2312 28.9635L7.09569 23.746C7.07335 23.7374 7.04929 23.746 7.0407 23.7685L1.4894 36.8501C1.48081 36.8726 1.4894 36.8968 1.51174 36.9055L6.49416 39.0471L19.2175 28.9894C19.2226 28.979 19.2278 28.9721 19.2329 28.9617L19.2312 28.9635Z" fill="black"/>
<path d="M26.3226 32.0133L26.3295 32.0167C21.4141 35.2205 16.3904 38.5073 11.9648 41.4015L11.9442 41.3928L15.6926 43.0051C20.6097 40.322 26.1662 37.2895 31.6453 34.3019L31.6539 34.3054L26.3226 32.0133Z" fill="black"/>
<path d="M62.0914 46.5034L55.8836 61.1869C55.8733 61.2111 55.8836 61.2388 55.9077 61.2474L93.6599 77.4186C93.684 77.429 93.7115 77.4186 93.7218 77.3944L99.9296 62.7109C99.9399 62.6867 99.9296 62.659 99.9055 62.6487L62.155 46.4775C62.131 46.4671 62.1035 46.4775 62.0932 46.5017L62.0914 46.5034ZM82.3305 71.6217C81.3422 66.4043 80.2199 60.4794 79.1131 54.6911L86.2026 57.7271L87.8044 73.9657L82.3305 71.62V71.6217ZM63.4612 47.986L73.7956 52.4128C75.4472 58.4606 77.1212 64.5948 78.601 70.0233L70.6487 66.6171C68.1411 61.0001 65.393 54.8156 62.638 48.5983L62.8167 48.1745C62.9095 47.9565 63.1965 47.8735 63.4612 47.986Z" fill="#6CF479"/>
<path d="M62.6465 48.5777L62.6379 48.6002C65.3929 54.8175 68.1411 61.0019 70.6486 66.6189L57.4527 60.9656C57.4303 60.9569 57.4217 60.931 57.4303 60.9102L62.6448 48.5777H62.6465Z" fill="black"/>
<path d="M86.2147 57.7324L98.3571 62.9343C98.3794 62.9429 98.388 62.9689 98.3794 62.9896L92.8453 76.0781C92.8367 76.1006 92.8109 76.1093 92.7903 76.1006L87.8061 73.9659L86.2078 57.7619C86.2112 57.7515 86.2129 57.7411 86.2164 57.7324H86.2147Z" fill="black"/>
<path d="M79.12 54.693H79.1131C80.2199 60.4778 81.3422 66.4026 82.3305 71.62L82.3511 71.6288L78.6009 70.0217C77.1194 64.5932 75.4455 58.4573 73.7955 52.4112L73.7869 52.4078L79.12 54.693Z" fill="black"/>
</g>
<defs>
<clipPath id="clip0_15980_11154">
<rect width="100" height="100" fill="white"/>
</clipPath>
</defs>
</svg>
