<svg width="100" height="100" viewBox="0 0 100 100" fill="none" xmlns="http://www.w3.org/2000/svg">
<g clip-path="url(#clip0_15980_11170)">
<rect width="100" height="100" fill="#C7FFC6"/>
<path d="M96.667 67.7582L74.2333 16.7255L67.3816 13.4596L11.8057 24.37L7.42245 22.452L6.24269 25.7632C5.94321 26.5955 5.97043 27.5092 6.33344 28.3234C10.8801 38.7 27.4149 76.434 31.3626 85.4265C31.8617 86.5574 33.0778 87.1816 34.2938 86.9373L96.6579 74.3352C97.5563 74.1543 98.2914 73.5209 98.609 72.6615L99.8251 69.3143L96.667 67.7491V67.7582Z" fill="black"/>
<path d="M76.7833 17.9403L62.9619 11.3453C62.2813 11.0196 61.5099 10.9201 60.7657 11.0648L8.73818 21.2786C7.6401 21.4957 7.02299 22.6628 7.46767 23.685C11.5424 33.0032 28.7488 72.2571 32.7872 81.4486C33.2863 82.5794 34.5024 83.2036 35.7185 82.9594L98.627 70.2577C99.7251 70.0406 100.333 68.8645 99.8885 67.8423L78.9068 20.1116C78.4894 19.1526 77.7362 18.3746 76.7833 17.9223V17.9403Z" fill="#11B67A"/>
<path d="M30.092 54.3829L42.1074 81.7222L92.2474 71.5989L80.2138 44.2144C79.7146 43.0835 78.4986 42.4502 77.2825 42.6945L31.3534 51.9674C30.2554 52.1846 29.6473 53.3606 30.092 54.3829Z" fill="#00482F"/>
<path d="M84.0434 19.5944C84.0434 19.5944 85.3048 23.765 90.4232 24.9139C90.4232 24.9139 86.5481 25.5834 86.4665 30.2244C86.4665 30.2244 85.1052 26.1986 80.1956 24.9139C80.1956 24.9139 84.2975 24.4254 84.0434 19.5944Z" fill="#006A4D"/>
<path d="M7.34061 40.6352C7.34061 40.6352 9.73644 48.5601 19.4649 50.7495C19.4649 50.7495 12.096 52.016 11.9508 60.8366C11.9508 60.8366 9.35528 53.1921 0.0351562 50.7404C0.0351562 50.7404 7.82159 49.8176 7.34061 40.6352Z" fill="#006A4D"/>
<path d="M54.3405 34.7311L67.5539 32.0624C68.652 31.8452 69.26 30.6691 68.8153 29.6468L60.6568 11.0919L43.1963 14.5207L51.4093 33.2113C51.9084 34.3421 53.1245 34.9754 54.3405 34.7311Z" fill="#6CF479"/>
<path d="M68.4252 78.3701C68.4252 78.3701 69.6866 82.5406 74.805 83.6895C74.805 83.6895 70.9299 84.359 70.8483 89C70.8483 89 69.487 84.9741 64.5774 83.6895C64.5774 83.6895 68.6793 83.201 68.4252 78.3701Z" fill="#006A4D"/>
<path d="M50.5744 34.5258L30.6274 38.5878C30.5185 38.6059 30.4096 38.624 30.3007 38.624C29.6473 38.624 29.0574 38.235 28.7942 37.6379L20.5903 18.9654L19.6011 19.1554L27.8958 38.0269C28.3223 38.9949 29.2752 39.601 30.3007 39.601C30.4731 39.601 30.6455 39.5829 30.827 39.5468L51.4093 35.3581C50.9919 35.0505 50.7196 34.7339 50.5835 34.5258H50.5744Z" fill="#6CF479"/>
<path d="M66.2742 28.5722L59.4588 13.3465L49.4218 15.2101C49.4218 15.2101 55.4113 15.1558 55.6201 20.3487C55.6201 20.3487 61.6459 19.842 66.2742 28.5722Z" fill="white"/>
</g>
<defs>
<clipPath id="clip0_15980_11170">
<rect width="100" height="100" fill="white"/>
</clipPath>
</defs>
</svg>
