<svg width="100" height="100" viewBox="0 0 100 100" fill="none" xmlns="http://www.w3.org/2000/svg">
<rect width="100" height="100" fill="#C7FFC6"/>
<path d="M84.3672 15.0752L26.7823 4.77185L5.401 72.7205L1.3875 73.8001L3.3378 77.0289C3.77918 77.8001 4.54903 78.3451 5.42153 78.4994L71.5569 90.3349C72.5526 90.5097 73.5277 89.9235 73.8357 88.9569L91.6243 32.4223C91.9323 31.4351 91.8502 30.3657 91.3985 29.4299L84.3775 15.0752H84.3672Z" fill="black"/>
<path d="M79.984 9.76123L34.8399 1.67898L26.9874 26.6353C26.5871 27.8898 27.3878 29.2163 28.6811 29.4425L68.5491 36.5787C70.171 36.8666 71.7517 35.9104 72.2444 34.3371L79.9737 9.751L79.984 9.76123Z" fill="#11B67A"/>
<path d="M80.4255 9.84047L25.6428 0.0307231C24.6472 -0.144084 23.672 0.441999 23.3641 1.40858L1.13077 72.0821C0.761246 73.2441 1.5003 74.4574 2.70127 74.6734L69.3396 86.6014C70.3353 86.7762 71.3104 86.1901 71.6184 85.2235L89.561 28.185C89.8689 27.1978 89.7868 26.1284 89.3352 25.1926L82.6118 11.4755C82.191 10.6117 81.3801 10.005 80.4357 9.83018L80.4255 9.84047Z" fill="#11B67A"/>
<path d="M20.2642 43.4478L10.0303 75.9826L61.3126 85.1651L71.6697 52.2499C72.07 50.9954 71.2694 49.6689 69.976 49.4427L23.9595 41.2062C22.3376 40.9183 20.7569 41.8746 20.2642 43.4478Z" fill="#00482F"/>
<path d="M52.9061 33.7828L68.5598 36.5797C70.1816 36.8676 71.7623 35.9113 72.255 34.338L79.9844 9.75194L59.0546 6.009L51.2022 30.9653C50.8018 32.2198 51.6025 33.5463 52.8958 33.7725L52.9061 33.7828Z" fill="#6CF479"/>
<path d="M6.08857 2.34576C6.08857 2.34576 7.51536 7.08612 13.3046 8.39204C13.3046 8.39204 8.92162 9.15296 8.82924 14.428C8.82924 14.428 7.28954 9.85219 1.73634 8.39204C1.73634 8.39204 6.37598 7.83676 6.08857 2.34576Z" fill="#006A4D"/>
<path d="M29.5124 87.9177C29.5124 87.9177 30.9392 92.6581 36.7285 93.964C36.7285 93.964 32.3454 94.7249 32.2531 100C32.2531 100 30.7134 95.4242 25.1602 93.964C25.1602 93.964 29.7998 93.4087 29.5124 87.9177Z" fill="#006A4D"/>
<path d="M85.3215 36.4396C85.3215 36.4396 88.0314 45.4473 99.0352 47.9357C99.0352 47.9357 90.7002 49.3753 90.536 59.401C90.536 59.401 87.6003 50.7121 77.0585 47.9254C77.0585 47.9254 85.8655 46.8766 85.3215 36.4396Z" fill="#006A4D"/>
<path d="M49.9293 33.2574C49.7445 32.8667 49.6522 32.4656 49.6111 32.0955L29.1433 28.4553C29.1433 28.4553 29.1228 28.4553 29.1125 28.4553C28.4351 28.3216 28.0347 27.6019 28.24 26.9335L36.0925 1.91547L34.8505 1.67898L26.998 26.6353C26.6387 27.7664 27.1725 28.8667 28.3324 29.3397C28.5069 29.4322 28.9586 29.5351 28.9586 29.5351L49.9293 33.2574Z" fill="#6CF479"/>
<path d="M77.0381 11.2297L70.4379 32.1141C70.4379 32.1141 73.1376 22.3865 68.4466 17.677C68.4466 17.677 72.1111 11.9084 64.6692 8.95726L77.0484 11.2297H77.0381Z" fill="white"/>
</svg>
