<svg width="100" height="100" viewBox="0 0 100 100" fill="none" xmlns="http://www.w3.org/2000/svg">
<g clip-path="url(#clip0_15980_11196)">
<rect width="100" height="100" fill="#C7FFC6"/>
<path d="M84.9186 79.7404H83.2542L73.8085 59.5897H13.8651L4.41929 79.7404H2.75491V83.8405C2.73775 85.2384 3.86166 86.5 5.40593 86.5H82.2676C83.8033 86.5 84.9272 85.2384 84.91 83.8405V79.7404H84.9186Z" fill="black"/>
<path d="M73.8168 55.5474H13.8734L3.01204 78.7157C2.19701 80.4546 3.47537 82.4578 5.41428 82.4578H82.276C84.2149 82.4578 85.4932 80.4631 84.6781 78.7157L73.8168 55.5474Z" fill="#11B67A"/>
<path d="M16.6448 13.5H71.0374C72.4959 13.5 73.6799 14.6763 73.6799 16.1254V54.0062H14.0024V16.1339C14.0024 14.6848 15.1863 13.5085 16.6448 13.5085V13.5Z" fill="#11B67A"/>
<path d="M76.5539 69.9615L71.8953 60.176C71.6036 59.5622 70.9859 59.1701 70.2996 59.1701H17.3741C16.6877 59.1701 16.07 59.5622 15.7783 60.176L11.1197 69.9615C10.7079 70.831 11.3428 71.8368 12.3123 71.8368H27.223C27.7635 71.8368 28.1754 72.3142 28.0981 72.8427L27.9265 73.9337C27.8064 74.7265 28.4242 75.451 29.2306 75.451H58.4259C59.2409 75.451 59.8586 74.735 59.7299 73.9337L59.5583 72.8427C59.4725 72.3142 59.8929 71.8368 60.4334 71.8368H75.3442C76.3137 71.8368 76.9571 70.831 76.5367 69.9615H76.5539Z" fill="black"/>
<path d="M43.8411 18.86C44.4239 18.86 44.8964 18.3906 44.8964 17.8116C44.8964 17.2325 44.4239 16.7631 43.8411 16.7631C43.2583 16.7631 42.7859 17.2325 42.7859 17.8116C42.7859 18.3906 43.2583 18.86 43.8411 18.86Z" fill="#00482F"/>
<path d="M73.6799 43.3074H14.0024V47.4416H73.6799V43.3074Z" fill="#00482F"/>
<path d="M84.9785 25.0574H2.7033C1.22972 25.0574 0.0351562 26.2443 0.0351562 27.7083V41.7559C0.0351562 43.22 1.22972 44.4069 2.7033 44.4069H84.9785C86.4521 44.4069 87.6467 43.22 87.6467 41.7559V27.7083C87.6467 26.2443 86.4521 25.0574 84.9785 25.0574Z" fill="#6CF479"/>
<path d="M16.2242 31.3733L12.2949 33.6236V29.1229H11.008V33.6236L7.07871 31.3733L6.43526 32.4814L10.3645 34.7317L6.43526 36.9906L7.07871 38.0987L11.008 35.8399V40.3491H12.2949V35.8399L16.2242 38.0987L16.8676 36.9906L12.9383 34.7317L16.8676 32.4814L16.2242 31.3733Z" fill="#00482F"/>
<path d="M31.1521 31.3733L27.2228 33.6236V29.1229H25.9359V33.6236L22.0066 31.3733L21.3632 32.4814L25.2925 34.7317L21.3632 36.9906L22.0066 38.0987L25.9359 35.8399V40.3491H27.2228V35.8399L31.1521 38.0987L31.7956 36.9906L27.8663 34.7317L31.7956 32.4814L31.1521 31.3733Z" fill="#00482F"/>
<path d="M46.08 31.3733L42.1508 33.6236V29.1229H40.8639V33.6236L36.9346 31.3733L36.2911 32.4814L40.2204 34.7317L36.2911 36.9906L36.9346 38.0987L40.8639 35.8399V40.3491H42.1508V35.8399L46.08 38.0987L46.7235 36.9906L42.7942 34.7317L46.7235 32.4814L46.08 31.3733Z" fill="#00482F"/>
<path d="M61.0082 31.3733L57.0789 33.6236V29.1229H55.792V33.6236L51.8627 31.3733L51.2192 32.4814L55.1486 34.7317L51.2192 36.9906L51.8627 38.0987L55.792 35.8399V40.3491H57.0789V35.8399L61.0082 38.0987L61.6517 36.9906L57.7223 34.7317L61.6517 32.4814L61.0082 31.3733Z" fill="#00482F"/>
<path d="M76.5793 32.4814L75.9359 31.3733L72.0066 33.6236V29.1229H70.7197V33.6236L66.7904 31.3733L66.147 32.4814L70.0763 34.7317L66.147 36.9906L66.7904 38.0987L70.7197 35.8399V40.3491H72.0066V35.8399L75.9359 38.0987L76.5793 36.9906L72.6501 34.7317L76.5793 32.4814Z" fill="#00482F"/>
<path d="M81.873 27.3083H80.5861V42.1656H81.873V27.3083Z" fill="white"/>
<path d="M100.035 61.0228L86.0252 51.0923L88.2558 68.0466L92.1851 63.2561L98.1649 73.1439L99.9064 72.104L93.9353 62.2161L100.035 61.0228Z" fill="#006A4D"/>
</g>
<defs>
<clipPath id="clip0_15980_11196">
<rect width="100" height="100" fill="white"/>
</clipPath>
</defs>
</svg>
