<svg width="100" height="100" viewBox="0 0 100 100" fill="none" xmlns="http://www.w3.org/2000/svg">
<rect width="100" height="100" fill="#C7FFC6"/>
<path d="M56.4056 77.6156C56.4056 77.4621 56.3647 77.3699 56.2009 77.3188C56.0064 77.2574 55.8119 77.155 55.6174 77.0629C54.3686 76.4488 53.3142 75.589 52.4441 74.504C51.7686 73.6545 51.267 72.723 50.9804 71.6688C50.8268 71.1058 50.7654 70.5224 50.8063 69.939C50.8166 69.7547 50.837 69.5705 50.8985 69.3965C50.9087 69.1816 50.9906 68.9768 51.0725 68.7721C51.4308 67.8612 52.0756 67.2266 52.9662 66.8376C53.0276 66.8069 53.1709 66.766 53.1812 66.7557C53.2016 66.6943 53.1607 66.6534 53.13 66.6022C52.8127 65.9881 52.4646 65.3944 52.1063 64.8008C50.9906 62.9788 49.7213 61.2593 48.2984 59.6523C48.2165 59.5602 48.1346 59.4783 48.063 59.3862C48.0323 59.3452 48.0016 59.3248 47.9606 59.3248C47.9401 59.3248 47.9197 59.3248 47.889 59.3452C47.8173 59.376 47.7457 59.4067 47.674 59.4374C47.1315 59.6421 46.5787 59.724 46.0259 59.724C45.6779 59.724 45.3299 59.6933 44.9818 59.6318C44.2346 59.509 43.5283 59.2634 42.8527 58.9154C41.87 58.4241 40.9999 57.769 40.2424 56.9604C39.4542 56.1211 38.84 55.1794 38.4613 54.0944C38.1644 53.2756 38.0416 52.4261 38.1644 51.556C38.1747 51.4537 38.1542 51.3923 38.0518 51.3309C37.4991 51.0238 36.9463 50.7372 36.3833 50.4506C34.725 49.6215 33.0053 48.9358 31.2242 48.3933C30.8454 48.2807 30.4564 48.1579 30.0674 48.076C30.0572 48.076 30.047 48.076 30.0367 48.076C30.0163 48.076 29.9958 48.076 29.9753 48.0453H29.9548C29.9446 48.0453 29.9344 48.0453 29.9241 48.0555C29.9241 48.3728 29.8627 48.6901 29.7501 48.9869C29.5966 49.3964 29.4226 49.8058 29.1257 50.1436C28.8596 50.4404 28.5832 50.7167 28.2249 50.901C27.9383 51.0545 27.6517 51.1978 27.3446 51.2899C27.2524 51.3206 27.0375 51.3718 27.0068 51.382C26.6383 51.4537 26.28 51.4844 25.9115 51.4844C25.5123 51.4844 25.113 51.4435 24.7138 51.3616C23.68 51.1569 22.728 50.7372 21.8476 50.1538C20.824 49.4782 19.9641 48.6492 19.2681 47.6359C19.2067 47.5437 19.1862 47.513 19.1248 47.513C19.0941 47.513 19.0531 47.513 19.0019 47.5335C18.2137 47.687 17.4358 47.8917 16.6783 48.1476C15.5216 48.5366 14.4263 49.0484 13.3822 49.6932C13.1467 49.8365 12.9113 49.9798 12.6963 50.1538C12.6963 50.2254 12.7577 50.2561 12.7885 50.3073C12.9522 50.5939 13.157 50.86 13.3105 51.1569C13.4231 51.382 13.5152 51.6175 13.6278 51.8324C13.7507 52.0678 13.8223 52.3135 13.894 52.5694C13.9042 52.6308 13.9656 52.6717 13.9554 52.7434C14.0271 52.9174 14.0475 53.1118 14.0782 53.2961C14.1601 53.7157 14.1397 54.1456 14.1397 54.5653C14.1397 54.77 14.0987 54.9849 14.0373 55.1794C13.8837 55.7424 13.6483 56.2541 13.2593 56.6943C12.8601 57.1549 12.3585 57.4619 11.7955 57.6871C11.4987 57.7997 11.1916 57.8713 10.8743 57.9225C10.7309 57.943 10.5876 57.9635 10.4443 57.9635C10.4239 57.9635 10.4034 57.9635 10.3829 57.9635C10.3215 57.9635 10.2601 57.9635 10.1987 57.9635C10.0963 57.9635 9.99393 57.9635 9.88133 57.9635C9.72778 57.9635 9.57423 57.9635 9.42069 57.9328C9.28762 57.8918 9.15454 57.902 9.02147 57.8713C8.76556 57.8304 8.51989 57.769 8.27422 57.6973C7.95689 57.6155 7.66003 57.4824 7.36318 57.38C7.34271 57.38 7.32223 57.38 7.312 57.3493C7.312 57.3493 7.29152 57.3493 7.28129 57.3493C7.27105 57.3493 7.26082 57.3493 7.25058 57.3596C7.18916 57.5438 7.13798 57.7178 7.07656 57.902C6.90254 58.4241 6.77971 58.9563 6.66711 59.4885C6.58521 59.8468 6.53403 60.2153 6.48285 60.5735C6.45214 60.7885 6.43167 61.0136 6.4112 61.2286C6.39072 61.4742 6.37025 61.7301 6.34978 61.9758C6.30883 62.3135 6.33954 62.6513 6.32931 62.9891C6.32931 63.204 6.32931 63.4087 6.32931 63.6237C6.32931 63.9205 6.32931 64.2071 6.36001 64.5039C7.14821 64.7905 7.875 65.2 8.5506 65.6913C8.98053 66.0086 9.40022 66.3668 9.76873 66.7557C10.0349 67.0423 10.301 67.3289 10.516 67.6565C10.5672 67.6769 10.5876 67.7281 10.6183 67.7691C10.8435 68.0966 11.0585 68.4344 11.2428 68.7926C11.4884 69.2839 11.6829 69.7957 11.8058 70.3279C11.8058 70.3689 11.8672 70.5633 11.8774 70.6145C11.9081 70.7578 11.9286 70.9011 11.9286 71.0342C11.9286 71.2594 11.99 71.4743 11.9695 71.6892C11.9286 72.068 11.9081 72.4364 11.7955 72.8049C11.6829 73.1734 11.5294 73.5214 11.3144 73.8285C11.1097 74.1253 10.8538 74.3914 10.5672 74.6166C10.2908 74.8213 9.99393 74.9748 9.6766 75.1079C9.62542 75.1284 9.54353 75.1181 9.53329 75.2C9.63565 75.3843 9.73802 75.5685 9.84038 75.7527C9.98369 76.0291 10.1372 76.2952 10.301 76.5613C10.3931 76.7149 10.4648 76.8889 10.5569 77.0526C10.6798 77.2574 10.8231 77.4518 10.9561 77.6565C11.1609 77.9841 11.3758 78.3218 11.601 78.6289C11.642 78.6903 11.6829 78.7517 11.7034 78.8131C11.7546 78.9257 11.8467 79.0076 11.9184 79.11C12.0514 79.3045 12.1743 79.4989 12.3176 79.6934C12.3995 79.806 12.4814 79.9083 12.5633 80.0209C12.7782 80.2666 12.9625 80.5327 13.157 80.7784C13.3105 80.9626 13.4538 81.1468 13.6074 81.3413C13.72 81.4846 13.8326 81.6177 13.9452 81.761C14.0578 81.9247 14.2215 82.0476 14.3444 82.2011C14.4672 82.3546 14.6003 82.4979 14.7231 82.6412C14.805 82.6412 14.8664 82.59 14.9381 82.5593C15.3987 82.3751 15.8696 82.2625 16.3609 82.242C16.4531 82.242 16.535 82.2216 16.6271 82.2216C16.6578 82.2216 16.6987 82.2216 16.7295 82.2216C16.7909 82.2216 16.8523 82.2113 16.9137 82.2113C17.0673 82.2113 17.2208 82.2318 17.3743 82.2523C17.9373 82.3137 18.4799 82.4365 19.0019 82.631C19.8925 82.9483 20.7114 83.4089 21.4587 84.0025C21.9602 84.3915 22.4209 84.8214 22.8201 85.3127C22.9736 85.5072 23.1374 85.6914 23.2705 85.8961C23.3626 85.9677 23.4138 86.0803 23.4752 86.1827C23.854 86.7559 24.1611 87.37 24.3658 88.0251C24.4272 88.2093 24.55 88.7006 24.5603 88.762C24.6626 89.2431 24.6626 89.7344 24.6524 90.2155C24.6524 90.3383 24.6115 90.4714 24.6217 90.5942C24.9902 90.8091 25.369 91.0138 25.7477 91.2083C26.4028 91.5461 27.0682 91.8736 27.754 92.1705C28.6241 92.5594 29.5147 92.9074 30.4257 93.2145C31.1423 93.4601 32.7698 93.9617 32.8825 93.9617C32.9439 93.8184 32.9439 93.6648 32.9746 93.5113C33.1793 92.4059 33.7423 91.5563 34.725 90.9934C35.1856 90.7273 35.6975 90.584 36.2195 90.5021C36.3833 90.4714 36.6597 90.4509 36.9258 90.4509C37.1613 90.4509 37.3967 90.4611 37.5195 90.4816C38.0723 90.5328 38.6046 90.6556 39.1266 90.8398C40.0581 91.1674 40.8975 91.6484 41.6652 92.2523C42.0542 92.5594 42.4227 92.8869 42.7503 93.2554C42.955 93.4806 43.5795 94.2892 43.6716 94.4325C43.8661 94.4325 45.5755 93.9821 46.2614 93.7467C46.7118 93.5932 47.1519 93.409 47.5921 93.2145C48.3905 92.8562 50.0386 91.8429 50.0591 91.8327C50.1614 91.761 50.1614 91.761 50.1 91.6689C50.0795 91.6382 50.0488 91.5973 50.0284 91.5666C49.6291 91.0036 49.3016 90.3997 49.0559 89.7549C49.0354 89.7139 49.0252 89.673 49.015 89.6218C48.9843 89.5399 48.9638 89.4683 48.9331 89.3762C48.8307 89.0282 48.7386 88.6802 48.7181 88.3117C48.6567 87.9637 48.6669 87.6157 48.6874 87.2677C48.7079 87.022 48.7488 86.7866 48.8205 86.5614C49.148 85.415 49.8748 84.6167 50.9906 84.1765C51.4615 83.9923 51.9528 83.8899 52.4646 83.8899C52.4851 83.8899 52.5158 83.8899 52.5363 83.8899C52.6182 83.8899 52.7001 83.8899 52.7717 83.8899C53.2733 83.8899 53.7646 83.9718 54.256 84.0947C54.6245 84.1868 54.9725 84.3096 55.3206 84.4529C55.382 84.4734 55.4332 84.5041 55.4946 84.5143C55.5458 84.4836 55.5458 84.4222 55.556 84.3813C55.7198 83.9104 55.8529 83.4293 55.9655 82.938C56.2828 81.5563 56.4261 80.1438 56.4261 78.7313C56.4261 78.3423 56.3954 77.9636 56.3954 77.5747L56.4056 77.6156ZM44.0401 75.0977C44.0299 75.3638 44.0196 75.6401 43.9889 75.9063C43.9582 76.1929 43.9173 76.4795 43.8661 76.7661C43.8354 76.94 43.7944 77.1141 43.733 77.2881C43.6716 77.4825 43.6306 77.6872 43.559 77.8817C43.3747 78.4037 43.1393 78.9053 42.8424 79.3761C42.607 79.7446 42.3511 80.0926 42.0542 80.4201C41.5527 80.9728 40.9794 81.4334 40.3345 81.8019C39.9558 82.0169 39.5668 82.2011 39.1676 82.3649C39.1266 82.3853 38.9731 82.4467 38.9526 82.4467C38.6148 82.5491 38.2873 82.6617 37.9495 82.7333C37.151 82.9176 36.3526 82.9995 35.5337 82.9995C35.3494 82.9995 35.1652 82.9995 34.9809 82.9892C33.3431 82.9176 31.7769 82.5389 30.2517 81.9452C28.532 81.2697 26.9556 80.3382 25.5123 79.2021C23.9154 77.9534 22.5335 76.4999 21.3972 74.8111C20.3941 73.3372 19.6263 71.7507 19.1657 70.0209C18.8484 68.8438 18.7051 67.636 18.7767 66.418C18.7972 66.0188 18.8484 65.6298 18.9303 65.2409C18.9405 65.1897 18.9917 64.9748 19.0019 64.9236C19.1145 64.4528 19.2578 63.9922 19.4523 63.552C19.7799 62.8253 20.1996 62.16 20.7319 61.5664C21.3768 60.8499 22.1343 60.2869 23.0044 59.8673C23.7926 59.4783 24.6319 59.2327 25.502 59.0894C25.7068 59.0587 25.9115 59.028 26.1162 59.0075C26.5052 58.9665 26.8839 58.9358 27.2729 58.9358C27.3855 58.9358 27.5084 58.9358 27.621 58.9358C28.358 58.9665 29.0848 59.0484 29.8115 59.1917C30.8454 59.3964 31.8588 59.7035 32.8313 60.1129C33.7833 60.5019 34.6841 60.9727 35.5541 61.5254C36.3935 62.0577 37.192 62.6411 37.9495 63.2859C38.6353 63.8693 39.2802 64.5039 39.8739 65.1795C40.181 65.5275 40.4778 65.8755 40.7542 66.244C40.8054 66.3156 40.9589 66.5101 40.9794 66.5408C41.2251 66.8888 41.481 67.2266 41.6857 67.6053C41.7983 67.7998 41.9416 67.9738 42.044 68.1785C42.2487 68.5981 42.5149 68.9871 42.6889 69.417C42.7503 69.5807 42.8424 69.7343 42.9039 69.898C43.1495 70.5019 43.3952 71.1058 43.559 71.7302C43.559 71.7507 43.559 71.7711 43.559 71.7916C43.6511 71.9656 43.6716 72.1498 43.7125 72.3341C43.7739 72.6309 43.8251 72.9277 43.8865 73.2246C43.907 73.3372 43.9173 73.46 43.9275 73.5726C43.948 73.8489 43.9889 74.1253 43.9991 74.4016C44.0094 74.6371 44.0299 74.8623 44.0196 75.0977H44.0401Z" fill="#11B67A"/>
<path d="M20.6401 64.6671C20.6401 64.6671 20.681 64.6671 20.7015 64.6671C20.7015 64.6671 20.7834 64.6671 20.8243 64.6466C20.8448 64.6466 20.8653 64.6466 20.8857 64.6466C20.9472 64.6466 21.0086 64.6466 21.0598 64.6262C21.0598 64.6262 21.1007 64.6262 21.1314 64.6262C21.1928 64.6262 21.2543 64.6262 21.3157 64.6057C21.3464 64.6057 21.3771 64.6057 21.4078 64.6057C21.4999 64.6057 21.5921 64.6057 21.6739 64.575C21.8684 64.575 22.0527 64.5545 22.2472 64.5545C23.3834 64.534 24.5094 64.6671 25.6149 64.9332C26.7409 65.1993 27.826 65.5985 28.8804 66.1001C29.8528 66.5607 30.7741 67.1031 31.6442 67.7173C32.7906 68.5259 33.845 69.4471 34.8072 70.4706C35.7285 71.4635 36.5269 72.5279 37.2128 73.6948C37.4072 74.0223 37.571 74.3499 37.745 74.6774C37.7553 74.7081 37.7655 74.749 37.786 74.7798C37.9702 75.1278 38.1238 75.4962 38.2773 75.8545C38.4616 76.2946 38.6049 76.7552 38.7482 77.2056C38.7482 77.2363 38.7482 77.267 38.7482 77.2977C39.0041 78.1268 39.1474 78.9763 39.1986 79.8361C39.2293 80.3581 39.2293 80.8903 39.1781 81.4124C39.4238 81.2998 39.6592 81.1872 39.864 81.0541C40.4474 80.7163 40.9388 80.3172 41.3585 79.8463C41.6042 79.57 41.8396 79.2629 42.0546 78.9251C42.3002 78.5362 42.505 78.1063 42.679 77.615C42.7097 77.5331 42.7404 77.4308 42.7609 77.3284C42.7813 77.2363 42.812 77.1544 42.8428 77.052C42.8837 76.919 42.9144 76.7859 42.9451 76.6324C42.9963 76.3867 43.027 76.1308 43.0577 75.8442C43.0782 75.6088 43.0987 75.3734 43.1089 75.0868C43.1089 74.9333 43.1089 74.7695 43.0987 74.5955V74.4727C43.0884 74.3294 43.068 74.1759 43.0475 74.0121C43.0373 73.8995 43.027 73.7971 43.0168 73.6846V73.6129C43.0065 73.5413 42.9963 73.4799 42.9963 73.4287C42.9861 73.3468 42.9656 73.2751 42.9554 73.1933C42.9144 72.9783 42.8735 72.7634 42.8325 72.5587C42.8325 72.5177 42.812 72.4768 42.812 72.4358C42.8018 72.3642 42.7813 72.2721 42.7711 72.2516L42.6892 72.0981L42.6687 71.9343C42.5152 71.3611 42.29 70.7982 42.075 70.2761C42.0546 70.225 42.0238 70.1636 41.9931 70.0919C41.9522 69.9998 41.901 69.8974 41.8601 69.7848C41.7782 69.5801 41.6553 69.3754 41.5325 69.1502C41.4301 68.9762 41.338 68.8022 41.2356 68.6078C41.2049 68.5566 41.1538 68.4747 41.1026 68.403C41.0412 68.3109 40.9695 68.2086 40.8978 68.0857C40.7341 67.7889 40.5293 67.5126 40.3144 67.2055L40.2427 67.1031C40.2427 67.1031 40.1813 67.0213 40.1404 66.9701C40.0994 66.9087 40.0482 66.8575 40.0278 66.8268C39.7514 66.4583 39.4545 66.1103 39.1884 65.8135C38.6356 65.1789 38.0112 64.575 37.3561 64.012C36.6395 63.3979 35.8616 62.8349 35.0631 62.3334C34.2237 61.8114 33.3536 61.361 32.4733 60.9926C31.5316 60.6036 30.5796 60.317 29.6276 60.1225C28.9725 59.9895 28.2764 59.9178 27.5803 59.8871C27.478 59.8871 27.3756 59.8871 27.263 59.8871C26.9252 59.8871 26.5874 59.9076 26.2087 59.9485H26.1677C25.9937 59.9588 25.8197 59.9895 25.6354 60.0202C24.837 60.1532 24.0795 60.3887 23.3937 60.7162C22.6055 61.1051 21.9606 61.5862 21.3976 62.2106C20.9369 62.7224 20.5582 63.3058 20.2716 63.9608C20.1487 64.2372 20.0464 64.5238 19.9645 64.8411C20.1487 64.8002 20.3227 64.749 20.507 64.7183C20.5479 64.7183 20.5889 64.7183 20.6298 64.6978L20.6401 64.6671ZM21.5102 64.4624C21.5102 64.4624 21.4795 64.5033 21.4795 64.534C21.4795 64.5033 21.4897 64.4829 21.5102 64.4624ZM8.20288 56.1614C8.36666 56.3866 8.49974 56.6322 8.63281 56.8779C8.81707 56.9291 9.00132 56.9802 9.18557 57.0007H9.22652C9.23676 57.0007 9.2777 57.0007 9.30841 57.0007C9.40054 57.0007 9.51314 57.0212 9.65645 57.0519C9.73834 57.0621 9.8407 57.0621 9.92259 57.0621C9.97377 57.0621 10.0147 57.0621 10.0659 57.0621C10.1171 57.0621 10.1785 57.0621 10.2297 57.0621C10.3116 57.0621 10.3832 57.0621 10.4549 57.0621C10.4549 57.0621 10.4651 57.0621 10.4754 57.0621C10.547 57.0621 10.6494 57.0519 10.7517 57.0314H10.762C11.0486 56.9905 11.284 56.9291 11.4888 56.8472C11.9596 56.6629 12.3179 56.4275 12.6045 56.1C12.8707 55.8032 13.0549 55.4347 13.188 54.9434C13.2289 54.7796 13.2494 54.6568 13.2596 54.5544C13.2596 54.493 13.2596 54.4418 13.2596 54.3804C13.2596 54.0529 13.2699 53.7356 13.2187 53.4695C13.2085 53.4081 13.1982 53.3466 13.188 53.2852C13.1675 53.1931 13.1573 53.101 13.1368 53.0601L13.0447 52.8144V52.7939C13.0447 52.7939 13.0447 52.7939 13.0447 52.7837C12.9935 52.5688 12.9423 52.3947 12.8604 52.2514C12.7785 52.0979 12.7171 51.9546 12.6557 51.8216C12.6148 51.7294 12.5738 51.6373 12.5329 51.5554C12.4714 51.4326 12.3793 51.2995 12.2872 51.1563C12.2258 51.0539 12.1541 50.9618 12.0927 50.8492C10.9462 52.19 9.78952 53.5309 8.64305 54.882C8.42808 55.1276 8.22336 55.3733 8.00839 55.6189C7.94697 55.6803 7.93674 55.7315 7.99816 55.8032C8.08005 55.9055 8.14147 56.0181 8.21312 56.1205L8.20288 56.1614ZM46.5688 94.6468C46.0467 94.8311 44.1018 95.3838 43.6719 95.3838C43.6412 95.3838 43.6105 95.3838 43.59 95.3838L43.1601 95.3429L42.9144 94.9948C42.8428 94.8925 42.2388 94.1044 42.0546 93.8997C41.7986 93.6028 41.4813 93.3162 41.0821 93.0092C40.3656 92.4462 39.5978 92.0266 38.7994 91.74C38.3388 91.5762 37.8679 91.4738 37.4072 91.4227H37.3458C37.2946 91.4227 37.1206 91.4022 36.8852 91.4022C36.5781 91.4022 36.4041 91.4227 36.3734 91.4329H36.312C35.8308 91.5045 35.4521 91.6274 35.1348 91.8116C34.3978 92.2415 33.9781 92.8454 33.8245 93.7154C33.8245 93.7359 33.8245 93.7666 33.8143 93.7973C33.7938 93.9406 33.7733 94.1555 33.6607 94.3807L33.4253 94.8925H32.8623L32.8521 94.9027H32.8418C32.6985 94.9027 32.6269 94.9027 31.5725 94.5854C31.0198 94.4217 30.4363 94.2272 30.0882 94.1146C29.1874 93.8075 28.2662 93.4493 27.3449 93.0399C26.6795 92.743 25.9835 92.4155 25.2874 92.047C24.8575 91.8218 24.4787 91.6171 24.1307 91.4124L23.711 91.1668L23.6803 90.6857C23.67 90.5219 23.6803 90.3889 23.7007 90.2865C23.7007 90.2661 23.7007 90.2251 23.7007 90.2149C23.711 89.8055 23.711 89.3653 23.6291 88.9764C23.6086 88.8945 23.496 88.4748 23.4551 88.3315C23.2811 87.7788 23.0149 87.2466 22.6669 86.7143C22.6464 86.6734 22.6157 86.6427 22.5952 86.6017L22.544 86.5608L22.4621 86.438C22.3803 86.3049 22.2677 86.1719 22.1448 86.0286L22.0629 85.9262C21.7251 85.5168 21.3259 85.1381 20.8346 84.7491C20.159 84.2169 19.4117 83.7972 18.6337 83.5209C18.1526 83.3469 17.6818 83.2445 17.2109 83.1933C17.1699 83.1933 17.129 83.1933 17.0983 83.1831C17.0062 83.1729 16.914 83.1626 16.8424 83.1626C16.8219 83.1626 16.8014 83.1626 16.7912 83.1626L16.6377 83.1831L16.5353 83.1626C16.5353 83.1626 16.5148 83.1626 16.4943 83.1626C16.4534 83.1626 16.392 83.1626 16.3306 83.1729C15.9621 83.1933 15.5935 83.2752 15.2148 83.4287C15.1227 83.4799 14.9487 83.572 14.6927 83.572L14.2526 83.5925L13.966 83.2547C13.966 83.2547 13.8943 83.1729 13.8534 83.1217C13.7612 83.0193 13.6691 82.9067 13.5667 82.7839C13.5463 82.7532 13.4951 82.7123 13.4439 82.6611C13.3518 82.569 13.2392 82.4564 13.1368 82.3131C13.0549 82.2005 12.9628 82.0879 12.8604 81.9651L12.84 81.9344C12.7376 81.8115 12.6352 81.6785 12.5226 81.5454L12.3793 81.3714C12.2872 81.2588 12.2053 81.1462 12.1234 81.0439C12.0108 80.9006 11.9085 80.7573 11.8061 80.6447L11.7651 80.5833L11.6935 80.4809C11.6423 80.4093 11.5809 80.3274 11.5297 80.2557C11.4273 80.1227 11.3352 79.9896 11.2533 79.8566C11.2021 79.7849 11.1612 79.7133 11.11 79.6518C11.11 79.6416 11.0895 79.6314 11.0793 79.6109C11.0076 79.529 10.8848 79.3857 10.8029 79.181C10.5675 78.8637 10.3628 78.5362 10.1683 78.2189L10.1273 78.1472C10.0761 78.0756 10.025 77.9937 9.97377 77.9118C9.89188 77.789 9.80999 77.6662 9.7281 77.5229C9.66668 77.4205 9.6155 77.3182 9.56432 77.226C9.53361 77.1544 9.49267 77.093 9.47219 77.0418C9.29817 76.7654 9.13439 76.4788 8.98085 76.182C8.91943 76.0694 8.85801 75.9466 8.78636 75.8238C8.75565 75.7624 8.72494 75.701 8.68399 75.6498L8.54068 75.3837L8.58163 75.0766C8.6021 74.923 8.72494 74.4215 9.31865 74.2577C9.57456 74.1452 9.78952 74.0326 9.96354 73.8893C10.1683 73.7357 10.3525 73.5515 10.5061 73.3161C10.6494 73.1011 10.7722 72.8453 10.8643 72.5382C10.936 72.3028 10.9667 72.0264 10.9974 71.7296V71.5965C10.9974 71.5965 10.9974 71.4532 10.9974 71.3611C10.9974 71.269 10.9769 71.1769 10.9769 71.0643C10.9769 70.9824 10.9565 70.8903 10.936 70.7777C10.936 70.747 10.9155 70.6856 10.895 70.6344C10.8848 70.573 10.8643 70.532 10.8643 70.5116C10.762 70.0714 10.5982 69.6313 10.373 69.1809C10.2399 68.9046 10.0659 68.6385 9.90212 68.3928H9.87141L9.70763 68.1267C9.53361 67.8708 9.31865 67.6252 9.06274 67.3488C8.75565 67.0213 8.39737 66.704 7.96745 66.3867C7.33279 65.9158 6.6879 65.5678 6.0123 65.3222L5.50048 65.1379L5.42883 64.5955C5.38788 64.2986 5.38788 64.0018 5.38788 63.7561C5.38788 63.705 5.38788 63.6538 5.38788 63.6026V63.4491C5.38788 63.2853 5.38788 63.1215 5.38788 62.9475C5.38788 62.8452 5.38788 62.7428 5.38788 62.6302C5.38788 62.3948 5.38788 62.1389 5.41859 61.8626C5.42883 61.7295 5.4493 61.5862 5.45954 61.4327C5.45954 61.3303 5.46977 61.228 5.48001 61.1358C5.50048 60.9414 5.52095 60.6957 5.5619 60.4398C5.61308 60.1021 5.6745 59.6926 5.75639 59.2832C5.77686 59.1706 5.80757 59.058 5.82805 58.9557C4.75323 60.2147 3.67841 61.4634 2.60359 62.7224C2.51146 62.8349 2.43981 62.9475 2.39886 63.0806C2.33744 63.2751 2.27603 63.4593 2.21461 63.6538C1.85633 64.882 1.64137 66.141 1.54924 67.4102C1.49806 68.2393 1.49806 69.0684 1.52877 69.8974C1.52877 69.9588 1.52877 70.0203 1.57995 70.0612C1.91775 70.2045 2.26579 70.3478 2.59335 70.5218C3.77053 71.1564 4.76346 71.9957 5.58237 73.05C6.02254 73.6129 6.38081 74.2373 6.65719 74.9026C6.78003 75.1892 6.86192 75.4962 6.96428 75.7931C6.96428 75.875 6.99499 75.9568 7.01546 76.0285C7.06665 76.356 7.12806 76.6938 7.12806 77.0316C7.12806 77.3284 7.10759 77.6252 7.07688 77.9118C7.04617 77.9937 6.99499 78.0551 6.93357 78.1165C6.21703 78.9456 5.50048 79.7747 4.79417 80.614C4.71911 80.7027 4.70887 80.7948 4.76346 80.8903C5.19339 81.6989 5.64379 82.4871 6.13514 83.2547C6.62648 84.0326 7.1383 84.7798 7.69106 85.5168C7.73201 85.568 7.76272 85.6294 7.82414 85.6703C7.84461 85.6908 7.85485 85.7215 7.87532 85.742C8.25406 86.2435 8.64305 86.745 9.0525 87.2159C9.31865 87.5229 9.57456 87.8198 9.8407 88.1268C9.88165 88.1678 9.91236 88.2394 9.98401 88.1882C10.3525 88.0347 10.7313 87.9221 11.1305 87.8505C11.1817 87.8505 11.2328 87.8505 11.284 87.83C11.5399 87.8198 11.7958 87.8095 12.0415 87.7891C12.2462 87.8095 12.451 87.8095 12.6557 87.8402C13.6384 87.9631 14.5597 88.2906 15.4195 88.7614C16.6274 89.4267 17.6408 90.3275 18.4495 91.4431C18.9511 92.1289 19.3298 92.8659 19.5857 93.6745C19.7495 94.2169 19.8519 94.7697 19.8519 95.3429C19.8416 95.3838 19.8519 95.4247 19.8519 95.4657C19.8416 95.6192 19.8212 95.783 19.8109 95.9365C19.8109 95.9979 19.77 96.0593 19.8109 96.131C19.8416 96.1822 19.9133 96.2026 19.9645 96.2333C20.681 96.6325 21.418 97.0112 22.1551 97.3592C24.0181 98.2395 25.9425 98.9457 27.9386 99.4678C28.0614 99.4985 28.1229 99.4678 28.2048 99.3756C29.0544 98.393 29.904 97.4104 30.7536 96.4381C30.856 96.3152 30.9481 96.1822 31.0812 96.09C31.3576 96.0491 31.6237 95.9979 31.9001 95.9979C32.0946 95.9979 32.2993 95.9979 32.4938 95.9979C33.067 96.0389 33.6198 96.1515 34.1623 96.3357C35.8206 96.8987 37.1923 97.8812 38.308 99.2323C38.5025 99.4678 38.6766 99.7339 38.8608 99.9693C38.8608 99.9693 38.8608 99.9898 38.8608 100H38.9222C38.9222 100 38.9222 99.9795 38.9222 99.9693C38.9734 99.9591 39.0348 99.9488 39.086 99.9386C39.6592 99.8158 40.2325 99.6725 40.7852 99.4985C41.3482 99.3142 41.9112 99.1198 42.4538 98.8741C42.7916 98.7206 43.1294 98.567 43.4672 98.4033C44.0609 98.1064 44.6239 97.7584 45.1766 97.3797C45.279 97.3081 45.3609 97.2364 45.4428 97.1443C46.3948 96.0491 47.3468 94.9641 48.2987 93.8689C48.1759 93.9304 48.0633 93.9918 47.9609 94.0327C47.4798 94.2477 47.009 94.4421 46.5586 94.5957L46.5688 94.6468ZM42.3309 96.0798C42.3309 96.0798 42.3719 96.0286 42.3821 95.9877C42.3821 95.9877 42.3514 96.0491 42.3309 96.0798ZM52.7823 84.8412C52.7209 84.8412 52.6492 84.8412 52.5878 84.8412H52.5264C52.5059 84.8412 52.4854 84.8412 52.4649 84.8412C52.0862 84.8412 51.6972 84.9129 51.3185 85.0664C50.4586 85.4042 49.9468 85.9671 49.6909 86.8576C49.6397 87.0316 49.609 87.2056 49.5988 87.3899C49.5783 87.6355 49.5681 87.9324 49.609 88.1882V88.2394L49.6192 88.2906C49.6397 88.567 49.7114 88.8638 49.8035 89.1606C49.8035 89.1913 49.824 89.2323 49.8444 89.2732C49.8547 89.3039 49.8649 89.3346 49.8751 89.3653C49.8854 89.396 49.8956 89.437 49.9161 89.4677C49.9673 89.5905 50.0185 89.7133 50.0696 89.8464C50.2334 89.8976 50.387 89.959 50.5405 90.0204C50.7043 90.0818 50.7043 90.092 50.8066 89.959C52.076 88.4953 53.3453 87.0419 54.6248 85.5782C54.7169 85.4758 54.7988 85.3735 54.891 85.2711C54.5941 85.1483 54.3177 85.0562 54.0516 84.9948C53.5807 84.8719 53.1713 84.8208 52.7925 84.8208L52.7823 84.8412Z" fill="black"/>
<path d="M30.6718 49.4178L37.4483 52.3452C37.4483 52.3452 37.131 54.0852 38.0932 56.0095C39.0554 57.9338 41.9318 60.554 44.0508 60.7895C46.2721 61.0351 47.8178 60.4926 47.8178 60.4926L51.7485 66.2347C51.7485 66.2347 49.0564 67.2788 49.7115 71.8745C50.428 76.8694 55.3108 77.8111 55.3005 78.3126C55.2903 78.8141 54.973 82.4989 54.6864 82.98C54.6147 83.1028 51.9123 82.0895 49.5784 83.8602C45.3303 87.0947 48.4217 91.4447 48.4217 91.4447L44.0405 93.2871C44.0405 93.2871 46.9067 88.7221 44.1941 85.3342C42.4744 83.1847 39.6491 83.3587 39.7617 83.3178C48.5957 79.5204 44.9311 70.4108 44.9311 70.4108C44.9311 70.4108 41.6657 62.202 34.6947 59.1211C24.0796 54.4332 19.9748 58.988 19.9748 58.988C19.2173 55.7536 15.0307 56.2961 15.0307 56.2961C16.2488 53.4097 14.3551 50.4926 14.3551 50.4926L18.378 48.7525C18.378 48.7525 23.7828 55.7434 29.5356 51.3523C30.8151 50.3697 30.6718 49.4281 30.6718 49.4281V49.4178Z" fill="#6CF479"/>
<path d="M64.9122 0.0307065C64.7586 0.0307065 64.6665 0.0716484 64.6153 0.235416C64.5539 0.42989 64.4515 0.624365 64.3594 0.818839C63.7452 2.06757 62.8854 3.12182 61.8003 3.99184C60.9507 4.66738 60.0192 5.16892 58.9649 5.45551C58.4019 5.60905 57.8184 5.67046 57.2349 5.62952C57.0507 5.61928 56.8664 5.59881 56.6924 5.5374C56.4774 5.52716 56.2727 5.44528 56.068 5.36339C55.1569 5.00515 54.5223 4.36032 54.1333 3.46983C54.1026 3.40842 54.0616 3.26512 54.0514 3.25488C53.99 3.23441 53.949 3.27536 53.8978 3.30606C53.2837 3.62336 52.69 3.97137 52.0963 4.32961C50.2742 5.44528 48.5545 6.71448 46.9474 8.13721C46.8552 8.2191 46.7733 8.30098 46.6812 8.37263C46.6403 8.40333 46.6198 8.43404 46.6198 8.47498C46.6198 8.49545 46.6198 8.51593 46.6403 8.54663C46.671 8.61828 46.7017 8.68993 46.7324 8.76158C46.9371 9.30406 47.019 9.85677 47.019 10.4095C47.019 10.7575 46.9883 11.1055 46.9269 11.4535C46.804 12.2007 46.5584 12.9069 46.2103 13.5825C45.719 14.5651 45.0639 15.4351 44.2552 16.1925C43.4158 16.9807 42.4741 17.5948 41.389 17.9735C40.5701 18.2703 39.7205 18.3932 38.8504 18.2703C38.748 18.2601 38.6866 18.2806 38.6252 18.3829C38.3181 18.9356 38.0315 19.4884 37.7449 20.0513C36.9157 21.7095 36.2299 23.429 35.6873 25.21C35.5747 25.5887 35.4519 25.9777 35.37 26.3666C35.37 26.3769 35.37 26.3871 35.37 26.3973C35.37 26.4178 35.37 26.4383 35.3393 26.4587V26.4792C35.3393 26.4894 35.3393 26.4997 35.3495 26.5099C35.6669 26.5099 35.9842 26.5713 36.2811 26.6839C36.6905 26.8374 37.1 27.0114 37.4378 27.3083C37.7346 27.5744 38.011 27.8508 38.1953 28.209C38.3488 28.4956 38.4921 28.7822 38.5842 29.0893C38.6149 29.1814 38.6661 29.3963 38.6764 29.427C38.748 29.7955 38.7787 30.1537 38.7787 30.5222C38.7787 30.9214 38.7378 31.3206 38.6559 31.7198C38.4512 32.7536 38.0315 33.7055 37.448 34.5857C36.7724 35.6093 35.9433 36.469 34.9299 37.1651C34.8377 37.2265 34.807 37.2469 34.807 37.3083C34.807 37.3391 34.807 37.38 34.8275 37.4312C34.981 38.2193 35.1858 38.9972 35.4417 39.7546C35.8307 40.9112 36.3425 42.0064 36.9874 43.0505C37.1307 43.2859 37.274 43.5213 37.448 43.7362C37.5197 43.7362 37.5504 43.6748 37.6016 43.6441C37.8882 43.4804 38.1543 43.2756 38.4512 43.1221C38.6764 43.0095 38.9118 42.9174 39.1268 42.8048C39.3622 42.682 39.6079 42.6103 39.8638 42.5387C39.9252 42.5285 39.9662 42.467 40.0378 42.4773C40.2118 42.4056 40.4063 42.3852 40.5906 42.3544C41.0103 42.2726 41.4402 42.293 41.8599 42.293C42.0646 42.293 42.2796 42.334 42.4741 42.3954C43.0371 42.5489 43.5489 42.7843 43.989 43.1733C44.4497 43.5725 44.7568 44.074 44.982 44.637C45.0946 44.9338 45.1662 45.2408 45.2174 45.5582C45.2379 45.7014 45.2584 45.8447 45.2584 45.988C45.2584 46.0085 45.2584 46.029 45.2584 46.0495C45.2584 46.1109 45.2584 46.1723 45.2584 46.2337C45.2584 46.336 45.2584 46.4384 45.2584 46.551C45.2584 46.7045 45.2584 46.8581 45.2276 47.0116C45.1867 47.1447 45.1969 47.2777 45.1662 47.4108C45.1253 47.6667 45.0639 47.9123 44.9922 48.158C44.9103 48.4753 44.7772 48.7721 44.6749 49.0689C44.6749 49.0894 44.6749 49.1099 44.6442 49.1201C44.6442 49.1201 44.6442 49.1406 44.6442 49.1508C44.6442 49.161 44.6442 49.1713 44.6544 49.1815C44.8387 49.2429 45.0127 49.2941 45.1969 49.3555C45.719 49.5295 46.2513 49.6523 46.7836 49.7649C47.1418 49.8468 47.5104 49.898 47.8686 49.9492C48.0836 49.9799 48.3088 50.0004 48.5238 50.0208C48.7694 50.0413 49.0253 50.0618 49.271 50.0822C49.6088 50.1232 49.9466 50.0925 50.2844 50.1027C50.4994 50.1027 50.7041 50.1027 50.9191 50.1027C51.2159 50.1027 51.5025 50.1027 51.7994 50.072C52.086 49.2839 52.4955 48.5571 52.9868 47.8816C53.3041 47.4517 53.6624 47.0321 54.0514 46.6636C54.338 46.3975 54.6246 46.1313 54.9522 45.9164C54.9727 45.8652 55.0238 45.8447 55.0648 45.814C55.3924 45.5889 55.7302 45.3739 56.0884 45.1897C56.5798 44.944 57.0916 44.7495 57.6239 44.6267C57.6648 44.6267 57.8593 44.5653 57.9105 44.5551C58.0538 44.5244 58.1971 44.5039 58.3302 44.5039C58.5554 44.5039 58.7704 44.4425 58.9853 44.463C59.3641 44.5039 59.7326 44.5244 60.1011 44.637C60.4696 44.7495 60.8176 44.9031 61.1247 45.118C61.4216 45.3227 61.6877 45.5786 61.9129 45.8652C62.1177 46.1416 62.2712 46.4384 62.4043 46.7557C62.4247 46.8069 62.4145 46.8888 62.4964 46.899C62.6807 46.7966 62.8649 46.6943 63.0492 46.5919C63.3256 46.4486 63.5917 46.2951 63.8578 46.1313C64.0114 46.0392 64.1854 45.9676 64.3492 45.8755C64.5539 45.7526 64.7484 45.6093 64.9531 45.4763C65.2807 45.2716 65.6185 45.0566 65.9256 44.8314C65.987 44.7905 66.0484 44.7495 66.1098 44.7291C66.2224 44.6779 66.3043 44.5858 66.4067 44.5141C66.6012 44.3811 66.7957 44.2582 66.9902 44.1149C67.1028 44.0331 67.2051 43.9512 67.3177 43.8693C67.5634 43.6544 67.8295 43.4701 68.0752 43.2756C68.2595 43.1221 68.4437 42.9788 68.6382 42.8253C68.7815 42.7127 68.9146 42.6001 69.0579 42.4875C69.2217 42.3749 69.3445 42.2111 69.4981 42.0883C69.6516 41.9655 69.7949 41.8324 69.9382 41.7096C69.9382 41.6277 69.8871 41.5663 69.8564 41.4947C69.6721 41.0341 69.5595 40.5632 69.539 40.0719C69.539 39.9798 69.5186 39.8979 69.5186 39.8058C69.5186 39.7751 69.5186 39.7342 69.5186 39.7035C69.5186 39.642 69.5083 39.5806 69.5083 39.5192C69.5083 39.3657 69.5288 39.2122 69.5493 39.0586C69.6107 38.4957 69.7335 37.9532 69.928 37.4312C70.2453 36.5407 70.706 35.7218 71.2997 34.9747C71.6887 34.4731 72.1186 34.0125 72.6099 33.6133C72.8044 33.4598 72.9887 33.296 73.1934 33.163C73.2651 33.0709 73.3777 33.0197 73.48 32.9583C74.0533 32.5796 74.6674 32.2725 75.3226 32.0678C75.5068 32.0064 75.9982 31.8835 76.0596 31.8733C76.5407 31.771 77.032 31.771 77.5132 31.7812C77.636 31.7812 77.7691 31.8221 77.8919 31.8119C78.1069 31.4434 78.3116 31.0647 78.5061 30.686C78.8439 30.0309 79.1715 29.3656 79.4683 28.6798C79.8573 27.8098 80.2053 26.9193 80.5124 26.0084C80.7581 25.2919 81.2597 23.6644 81.2597 23.5519C81.1164 23.4802 80.9628 23.4904 80.8093 23.4597C79.7037 23.255 78.8541 22.6921 78.2911 21.7095C78.025 21.2489 77.8817 20.7371 77.7998 20.2151C77.7691 20.0513 77.7486 19.775 77.7486 19.5088C77.7486 19.2734 77.7588 19.038 77.7793 18.9152C77.8305 18.3625 77.9533 17.8302 78.1376 17.3082C78.4651 16.3768 78.9462 15.5375 79.5502 14.7698C79.8573 14.3809 80.1849 14.0124 80.5534 13.6848C80.7786 13.4801 81.5872 12.8558 81.7305 12.7637C81.7305 12.5692 81.2801 10.8599 81.0447 10.1741C80.8912 9.72371 80.7069 9.28359 80.5124 8.84346C80.1541 8.04509 79.1407 6.39718 79.1305 6.37671C79.0588 6.27435 79.0588 6.27435 78.9667 6.33577C78.936 6.35624 78.8951 6.38694 78.8643 6.40741C78.3013 6.8066 77.6974 7.13413 77.0525 7.37979C77.0116 7.40026 76.9706 7.41049 76.9194 7.42073C76.8375 7.45143 76.7659 7.47191 76.6738 7.50261C76.3257 7.60497 75.9777 7.69709 75.6092 7.71756C75.2612 7.77897 74.9131 7.76873 74.5651 7.74826C74.3194 7.72779 74.084 7.68685 73.8588 7.6152C72.7123 7.28767 71.9139 6.56095 71.4737 5.44528C71.2894 4.97445 71.1871 4.48314 71.1871 3.97137C71.1871 3.9509 71.1871 3.92019 71.1871 3.89972C71.1871 3.81784 71.1871 3.73595 71.1871 3.6643C71.1871 3.16277 71.269 2.67146 71.3918 2.18016C71.4839 1.81168 71.6068 1.46367 71.7501 1.11567C71.7706 1.05426 71.8013 1.00308 71.8115 0.941665C71.7808 0.890487 71.7194 0.890487 71.6784 0.880252C71.2076 0.716484 70.7264 0.583423 70.2351 0.470832C68.8941 0.143297 67.4917 0 66.0689 0C65.6799 0 65.3012 0.0307065 64.9122 0.0307065ZM62.394 12.3952C62.6602 12.4054 62.9366 12.4156 63.2027 12.4464C63.4893 12.4771 63.7759 12.518 64.0626 12.5692C64.2366 12.5999 64.4106 12.6408 64.5846 12.7022C64.7791 12.7637 64.9838 12.8046 65.1783 12.8762C65.7004 13.0605 66.202 13.2959 66.6728 13.5927C67.0414 13.8281 67.3894 14.084 67.7169 14.3809C68.2697 14.8824 68.7303 15.4556 69.0989 16.1004C69.3138 16.4791 69.4981 16.8681 69.6619 17.2673C69.6823 17.3082 69.7438 17.4617 69.7438 17.4822C69.8461 17.82 69.9587 18.1475 70.0304 18.4853C70.2146 19.2837 70.2965 20.082 70.2965 20.9009C70.2965 21.0851 70.2965 21.2693 70.2863 21.4536C70.2146 23.0913 69.8359 24.6573 69.2422 26.1824C68.5666 27.9019 67.6351 29.4782 66.4988 30.9214C65.25 32.5181 63.7964 33.8999 62.1074 35.0361C60.6334 36.0391 59.0467 36.8068 57.3168 37.2674C56.1396 37.5847 54.9317 37.728 53.7136 37.6564C53.3144 37.6359 52.9254 37.5847 52.5364 37.5028C52.4852 37.4926 52.2703 37.4414 52.2191 37.4312C51.7482 37.3186 51.2876 37.1753 50.8474 36.9808C50.1206 36.6533 49.4553 36.2336 48.8616 35.7014C48.145 35.0565 47.582 34.2991 47.1623 33.4291C46.7733 32.641 46.5277 31.8017 46.3844 30.9316C46.3536 30.7269 46.3229 30.5222 46.3025 30.3175C46.2615 29.9286 46.2308 29.5498 46.2308 29.1609C46.2308 29.0483 46.2308 28.9255 46.2308 28.8129C46.2615 28.0759 46.3434 27.3492 46.4867 26.6225C46.6914 25.5887 46.9985 24.5754 47.408 23.603C47.797 22.6511 48.2678 21.7504 48.8206 20.8804C49.3529 20.0411 49.9364 19.2427 50.5813 18.4853C51.1647 17.7995 51.7994 17.1547 52.475 16.561C52.823 16.254 53.1711 15.9571 53.5396 15.6808C53.6112 15.6296 53.8057 15.4761 53.8364 15.4556C54.1845 15.2099 54.5223 14.954 54.901 14.7493C55.0955 14.6367 55.2695 14.4935 55.4743 14.3911C55.8939 14.1864 56.2829 13.9203 56.7128 13.7463C56.8766 13.6848 57.0302 13.5927 57.194 13.5313C57.7979 13.2857 58.4019 13.04 59.0263 12.8762C59.0467 12.8762 59.0672 12.8762 59.0877 12.8762C59.2617 12.7841 59.446 12.7637 59.6302 12.7227C59.9271 12.6613 60.2239 12.6101 60.5208 12.5487C60.6334 12.5282 60.7562 12.518 60.8688 12.5078C61.1452 12.4873 61.4216 12.4464 61.698 12.4361C61.9334 12.4259 62.1586 12.4054 62.394 12.4156V12.3952Z" fill="#11B67A"/>
<path d="M51.9531 35.7939C51.9531 35.7939 51.9531 35.7529 51.9531 35.7325C51.9531 35.7325 51.9531 35.6506 51.9326 35.6096C51.9326 35.5892 51.9326 35.5687 51.9326 35.5482C51.9326 35.4868 51.9326 35.4254 51.9121 35.3742V35.3026C51.9121 35.2412 51.9019 35.1797 51.8814 35.1183C51.8814 35.0876 51.8814 35.0569 51.8814 35.0262C51.8814 34.9341 51.8814 34.842 51.8507 34.7601C51.8507 34.5656 51.8302 34.3814 51.8302 34.1869C51.8097 33.0508 51.9428 31.9249 52.209 30.8194C52.4751 29.6935 52.8743 28.6086 53.3759 27.5543C53.8365 26.5819 54.3791 25.6607 54.9933 24.7907C55.8019 23.6443 56.7232 22.5901 57.7468 21.628C58.7398 20.7068 59.8044 19.9084 60.9713 19.2226C61.2989 19.0281 61.6264 18.8644 61.954 18.6904C61.9847 18.6801 62.0256 18.6699 62.0564 18.6494C62.4044 18.4652 62.7729 18.3117 63.1312 18.1581C63.5713 17.9739 64.032 17.8306 64.4824 17.6873C64.5131 17.6873 64.5438 17.6873 64.5745 17.6873C65.4036 17.4314 66.2533 17.2881 67.1131 17.2369C67.6352 17.2062 68.1675 17.2062 68.6895 17.2574C68.5769 17.0118 68.4643 16.7763 68.3312 16.5716C67.9934 15.9882 67.5942 15.4969 67.1234 15.0772C66.847 14.8316 66.5399 14.5962 66.2021 14.3812C65.8131 14.1356 65.3832 13.9309 64.8918 13.7569C64.8099 13.7262 64.7076 13.6955 64.6052 13.675C64.5131 13.6545 64.4312 13.6238 64.3288 13.5931C64.1958 13.5522 64.0627 13.5215 63.9091 13.4907C63.6635 13.4396 63.4076 13.4089 63.1209 13.3782C62.8855 13.3577 62.6501 13.3372 62.3634 13.327C62.2099 13.327 62.0461 13.327 61.8721 13.3372H61.7493C61.606 13.3474 61.4524 13.3679 61.2886 13.3884C61.176 13.3986 61.0737 13.4089 60.9611 13.4191H60.8894C60.8178 13.4293 60.7563 13.4396 60.7052 13.4396C60.6233 13.4498 60.5516 13.4703 60.4697 13.4805C60.2548 13.5215 60.0398 13.5624 59.8351 13.6033C59.7941 13.6033 59.7532 13.6238 59.7122 13.6238C59.6406 13.634 59.5484 13.6545 59.528 13.6647L59.3744 13.7466L59.2106 13.7671C58.6374 13.9206 58.0744 14.1458 57.5523 14.3608C57.5012 14.3812 57.4398 14.4119 57.3681 14.4426C57.276 14.4836 57.1736 14.5348 57.061 14.5757C56.8563 14.6576 56.6516 14.7804 56.4263 14.9032C56.2523 15.0056 56.0783 15.0977 55.8838 15.2001C55.8326 15.2308 55.7508 15.282 55.6791 15.3331C55.587 15.3945 55.4846 15.4662 55.3618 15.5378C55.0649 15.7016 54.7885 15.9063 54.4814 16.1213L54.3791 16.1929C54.3791 16.1929 54.2972 16.2543 54.246 16.2953C54.1846 16.3362 54.1334 16.3874 54.1027 16.4079C53.7342 16.6842 53.3861 16.981 53.0893 17.2472C52.4546 17.7999 51.8507 18.4242 51.2877 19.0793C50.6735 19.7958 50.1105 20.5737 49.6089 21.3721C49.0869 22.2114 48.6365 23.0814 48.268 23.9616C47.879 24.9033 47.5924 25.8552 47.3979 26.8071C47.2648 27.4622 47.1931 28.1582 47.1624 28.8542C47.1624 28.9566 47.1624 29.0589 47.1624 29.1715C47.1624 29.5093 47.1829 29.8471 47.2239 30.2258V30.2667C47.2341 30.4407 47.2648 30.6147 47.2955 30.799C47.4286 31.5973 47.664 32.3547 47.9916 33.0405C48.3806 33.8287 48.8617 34.4735 49.4861 35.0364C49.9979 35.497 50.5814 35.8758 51.2365 36.1623C51.5129 36.2852 51.7995 36.3875 52.1168 36.4694C52.0759 36.2852 52.0247 36.1112 51.994 35.9269C51.994 35.886 51.994 35.845 51.9735 35.8041L51.9531 35.7939ZM51.7586 34.9239C51.7586 34.9239 51.7995 34.9546 51.8302 34.9546C51.7995 34.9546 51.779 34.9443 51.7586 34.9239ZM43.4569 48.23C43.6821 48.0662 43.9277 47.9332 44.1734 47.8001C44.2246 47.6159 44.2758 47.4316 44.2962 47.2474V47.2064C44.2962 47.1962 44.2962 47.1553 44.2962 47.1246C44.2962 47.0324 44.3167 46.9198 44.3474 46.7765C44.3577 46.6947 44.3577 46.5923 44.3577 46.5104C44.3577 46.4592 44.3577 46.4183 44.3577 46.3671C44.3577 46.316 44.3577 46.2545 44.3577 46.2034C44.3577 46.1215 44.3577 46.0498 44.3577 45.9782C44.3577 45.9782 44.3577 45.9679 44.3577 45.9577C44.3577 45.8861 44.3474 45.7837 44.327 45.6814C44.286 45.3743 44.2246 45.1491 44.1427 44.9444C43.9585 44.4736 43.723 44.1153 43.3955 43.8287C43.0986 43.5626 42.7301 43.3784 42.2387 43.2453C42.075 43.2044 41.9521 43.1839 41.8498 43.1737C41.7883 43.1737 41.7372 43.1737 41.6757 43.1737C41.3482 43.1737 41.0308 43.1634 40.7647 43.2146C40.7033 43.2248 40.6419 43.2351 40.5804 43.2453C40.4883 43.2658 40.3962 43.276 40.3552 43.2965L40.1096 43.3886H40.0891C40.0891 43.3886 40.0891 43.3886 40.0789 43.3886C39.8639 43.4398 39.6899 43.491 39.5466 43.5728C39.393 43.6547 39.2497 43.7161 39.1166 43.7775C39.0245 43.8185 38.9324 43.8594 38.8505 43.9004C38.7277 43.9618 38.5946 44.0539 38.4513 44.146C38.3489 44.2074 38.2568 44.2791 38.1442 44.3405C39.4852 45.4869 40.8261 46.6435 42.1773 47.7899C42.423 48.0048 42.6687 48.2095 42.9143 48.4245C42.9758 48.4859 43.0269 48.4961 43.0986 48.4347C43.201 48.3528 43.3136 48.2914 43.4159 48.2198L43.4569 48.23ZM81.9456 9.86738C82.1299 10.3894 82.6826 12.3341 82.6826 12.764C82.6826 12.7947 82.6826 12.8254 82.6826 12.8459L82.6417 13.2758L82.2937 13.5215C82.1913 13.5931 81.4031 14.197 81.1984 14.3812C80.9015 14.6371 80.6149 14.9544 80.3078 15.3536C79.7448 16.0701 79.3251 16.8377 79.0385 17.6361C78.8747 18.0967 78.7723 18.5675 78.7212 19.0281V19.0896C78.7212 19.1407 78.7007 19.3147 78.7007 19.5502C78.7007 19.8572 78.7212 20.0312 78.7314 20.0619V20.1233C78.8031 20.6044 78.9259 20.9831 79.1101 21.3004C79.5401 22.0374 80.144 22.457 81.0141 22.6106C81.0346 22.6106 81.0653 22.6106 81.096 22.6208C81.2393 22.6413 81.4543 22.6617 81.6795 22.7743L82.1913 23.0097V23.5727L82.2015 23.5829C82.2015 23.7365 82.2015 23.8081 81.8842 24.8624C81.7204 25.4151 81.5259 25.9985 81.4133 26.3465C81.1062 27.2472 80.748 28.1684 80.3385 29.0896C80.0417 29.7549 79.7141 30.4509 79.3456 31.147C79.1204 31.5768 78.9156 31.9556 78.7109 32.3036L78.4653 32.7232L77.9841 32.7539C77.8204 32.7642 77.6873 32.7539 77.5849 32.7335C77.5645 32.7335 77.5235 32.7335 77.5133 32.7335C77.1038 32.7232 76.6637 32.7232 76.2747 32.8051C76.1928 32.8256 75.7731 32.9382 75.6298 32.9791C75.077 33.1531 74.5447 33.4192 74.0124 33.7672C73.9715 33.7877 73.9408 33.8184 73.8998 33.8389L73.8589 33.8901L73.736 33.972C73.603 34.0538 73.4699 34.1664 73.3266 34.2893L73.2242 34.3711C72.8148 34.7089 72.436 35.1081 72.0471 35.5994C71.5148 36.2749 71.0951 37.0221 70.8187 37.8C70.6447 38.2811 70.5423 38.7519 70.4911 39.2228C70.4911 39.2637 70.4911 39.3046 70.4809 39.3354C70.4706 39.4275 70.4604 39.5196 70.4604 39.5912C70.4604 39.6117 70.4604 39.6322 70.4604 39.6424L70.4809 39.7959L70.4604 39.8983C70.4604 39.8983 70.4604 39.9188 70.4604 39.9392C70.4604 39.9802 70.4604 40.0416 70.4706 40.103C70.4911 40.4715 70.573 40.84 70.7266 41.2187C70.7675 41.3108 70.8596 41.495 70.8699 41.7407L70.8903 42.1808L70.5525 42.4674C70.5525 42.4674 70.4706 42.5391 70.4195 42.58C70.3171 42.6721 70.2045 42.7642 70.0817 42.8666C70.051 42.8871 70.01 42.9382 69.9588 42.9894C69.8667 43.0815 69.7541 43.1941 69.6108 43.2965C69.4982 43.3784 69.3856 43.4705 69.2628 43.5728L69.2321 43.5933C69.1092 43.6957 68.9761 43.798 68.8431 43.9106L68.669 44.0539C68.5564 44.146 68.4438 44.2279 68.3415 44.3098C68.1982 44.4224 68.0549 44.5247 67.9423 44.6271L67.8809 44.668L67.7785 44.7397C67.7068 44.7909 67.6249 44.8523 67.5533 44.9035C67.4202 45.0058 67.2871 45.0979 67.1541 45.1798C67.0824 45.231 67.0108 45.2719 66.9493 45.3231C66.9391 45.3231 66.9289 45.3436 66.9084 45.3538C66.8265 45.4255 66.6832 45.5483 66.4785 45.6302C66.1611 45.8656 65.8336 46.0703 65.5163 46.2648L65.4446 46.3057C65.3729 46.3569 65.291 46.4081 65.2092 46.4592C65.0863 46.5411 64.9635 46.623 64.8202 46.7049C64.7178 46.7663 64.6154 46.8175 64.5233 46.8687C64.4517 46.8994 64.3902 46.9403 64.3391 46.9608C64.0627 47.1348 63.7761 47.2986 63.4792 47.4521C63.3666 47.5135 63.2438 47.5749 63.1209 47.6466C63.0595 47.6773 62.9981 47.708 62.9469 47.7489L62.6808 47.8922L62.3737 47.8513C62.2201 47.8308 61.7186 47.708 61.5548 47.1143C61.4422 46.8584 61.3296 46.6435 61.1863 46.4695C61.0327 46.2648 60.8485 46.0805 60.613 45.927C60.3981 45.7837 60.1421 45.6609 59.8351 45.5688C59.5996 45.4971 59.3232 45.4664 59.0264 45.4357H58.8933C58.8933 45.4357 58.75 45.4357 58.6579 45.4357C58.5658 45.4357 58.4736 45.4562 58.361 45.4562C58.2791 45.4562 58.187 45.4766 58.0744 45.4971C58.0437 45.4971 57.9823 45.5176 57.9311 45.5381C57.8697 45.5483 57.8287 45.5688 57.8083 45.5688C57.3681 45.6711 56.9279 45.8349 56.4775 46.0601C56.2011 46.1931 55.935 46.3671 55.6893 46.5309V46.5616L55.4232 46.7254C55.1673 46.8994 54.9216 47.1143 54.6452 47.3702C54.3177 47.6773 54.0003 48.0355 53.683 48.4654C53.2121 49.1 52.8641 49.7448 52.6184 50.4204L52.4342 50.9322L51.8916 51.0038C51.5948 51.0447 51.2979 51.0447 51.0523 51.0447C51.0011 51.0447 50.9499 51.0447 50.8987 51.0447H50.7452C50.5814 51.0447 50.4176 51.0447 50.2436 51.0447C50.1412 51.0447 50.0389 51.0447 49.9263 51.0447C49.6908 51.0447 49.4349 51.0447 49.1585 51.014C49.0255 51.0038 48.8821 50.9833 48.7286 50.9731C48.6262 50.9731 48.5239 50.9629 48.4317 50.9526C48.2373 50.9322 47.9916 50.9117 47.7357 50.8707C47.3979 50.8196 46.9884 50.7581 46.579 50.6763C46.4664 50.6558 46.3538 50.6251 46.2514 50.6046C47.5105 51.6793 48.7593 52.7541 50.0184 53.8288C50.131 53.9209 50.2436 53.9926 50.3767 54.0335C50.5711 54.0949 50.7554 54.1563 50.9499 54.2177C52.1783 54.576 53.4373 54.7909 54.7066 54.883C55.5358 54.9342 56.3649 54.9342 57.1941 54.9035C57.2555 54.9035 57.3169 54.9035 57.3579 54.8523C57.5012 54.5146 57.6445 54.1666 57.8185 53.839C58.4532 52.6619 59.2925 51.6691 60.3469 50.8503C60.9099 50.4101 61.5343 50.0519 62.1997 49.7755C62.4863 49.6527 62.7934 49.5708 63.0902 49.4685C63.1721 49.4685 63.254 49.4378 63.3257 49.4173C63.6532 49.3661 63.991 49.3047 64.3288 49.3047C64.6257 49.3047 64.9225 49.3252 65.2092 49.3559C65.291 49.3866 65.3525 49.4378 65.4139 49.4992C66.243 50.2157 67.0722 50.9322 67.9116 51.6384C68.0003 51.7135 68.0924 51.7237 68.1879 51.6691C68.9966 51.2392 69.7848 50.7889 70.5525 50.2976C71.3305 49.8063 72.0778 49.2945 72.8148 48.7418C72.866 48.7008 72.9274 48.6701 72.9683 48.6087C72.9888 48.5882 73.0195 48.578 73.04 48.5575C73.5416 48.1788 74.0431 47.7899 74.514 47.3804C74.8211 47.1143 75.118 46.8584 75.425 46.5923C75.466 46.5514 75.5377 46.5207 75.4865 46.449C75.3329 46.0805 75.2203 45.7018 75.1487 45.3026C75.1487 45.2515 75.1487 45.2003 75.1282 45.1491C75.118 44.8932 75.1077 44.6373 75.0872 44.3917C75.1077 44.187 75.1077 43.9823 75.1384 43.7775C75.2613 42.7949 75.5888 41.8737 76.0597 41.014C76.7251 39.8062 77.6259 38.7929 78.7416 37.9843C79.4275 37.4827 80.1645 37.104 80.9732 36.8481C81.5157 36.6844 82.0685 36.582 82.6417 36.582C82.6826 36.5922 82.7236 36.582 82.7645 36.582C82.9181 36.5922 83.0819 36.6127 83.2354 36.6229C83.2968 36.6229 83.3582 36.6639 83.4299 36.6229C83.4811 36.5922 83.5015 36.5206 83.5323 36.4694C83.9315 35.7529 84.3102 35.016 84.6583 34.279C85.5386 32.4162 86.2449 30.4919 86.767 28.496C86.7977 28.3731 86.767 28.3117 86.6748 28.2298C85.6921 27.3803 84.7094 26.5308 83.737 25.6812C83.6142 25.5789 83.4811 25.4867 83.3889 25.3537C83.348 25.0773 83.2968 24.8112 83.2968 24.5348C83.2968 24.3404 83.2968 24.1356 83.2968 23.9412C83.3378 23.368 83.4504 22.8153 83.6346 22.2728C84.1976 20.6146 85.1803 19.2431 86.5315 18.1274C86.7669 17.9329 87.0331 17.7589 87.2685 17.5747C87.2685 17.5747 87.289 17.5747 87.2992 17.5747V17.5133C87.2992 17.5133 87.2788 17.5133 87.2685 17.5133C87.2583 17.4621 87.2481 17.4007 87.2378 17.3495C87.115 16.7763 86.9717 16.2031 86.7977 15.6504C86.6134 15.0875 86.4189 14.5245 86.1732 13.982C86.0197 13.6443 85.8661 13.3065 85.7024 12.9687C85.4055 12.3751 85.0575 11.8121 84.6787 11.2594C84.6071 11.1571 84.5354 11.0752 84.4433 10.9933C83.348 10.0414 82.2629 9.08949 81.1676 8.13759C81.2291 8.26041 81.2905 8.373 81.3314 8.47536C81.5464 8.95642 81.7409 9.42726 81.8944 9.87762L81.9456 9.86738ZM83.3787 14.1049C83.3787 14.1049 83.3275 14.0639 83.2866 14.0537C83.2866 14.0537 83.348 14.0844 83.3787 14.1049ZM72.1392 3.65444C72.1392 3.71586 72.1392 3.7875 72.1392 3.84892V3.91033C72.1392 3.9308 72.1392 3.95127 72.1392 3.97174C72.1392 4.35046 72.2108 4.7394 72.3644 5.11812C72.7022 5.9779 73.2652 6.48967 74.1557 6.74556C74.3298 6.79674 74.5038 6.82744 74.688 6.83768C74.9337 6.85815 75.2306 6.86839 75.4865 6.82744H75.5377L75.5888 6.81721C75.8652 6.79674 76.1621 6.72509 76.4589 6.63297C76.4896 6.63297 76.5306 6.6125 76.5715 6.59203C76.6022 6.58179 76.6329 6.57156 76.6637 6.56132C76.6944 6.55109 76.7353 6.54085 76.766 6.52038C76.8889 6.4692 77.0117 6.41802 77.1448 6.36685C77.1959 6.20308 77.2574 6.04955 77.3188 5.89601C77.3802 5.73225 77.3904 5.73225 77.2574 5.62989C75.7936 4.36069 74.34 3.09149 72.8762 1.81206C72.7738 1.71994 72.6715 1.63805 72.5691 1.54593C72.4463 1.84276 72.3541 2.11912 72.2927 2.38524C72.1699 2.85608 72.1187 3.26549 72.1187 3.64421L72.1392 3.65444Z" fill="black"/>
<path d="M36.7107 25.7637L39.6383 18.9878C39.6383 18.9878 41.3785 19.3051 43.3029 18.343C45.2274 17.3808 47.8479 14.5047 48.0833 12.3859C48.329 10.1648 47.7865 8.61925 47.7865 8.61925L53.5291 4.68882C53.5291 4.68882 54.5732 7.38076 59.1693 6.72569C64.1647 6.0092 65.1064 1.12688 65.608 1.13711C66.1096 1.14735 69.7946 1.46465 70.2758 1.75124C70.3986 1.82289 69.3852 4.52506 71.1561 6.85875C74.3908 11.1065 78.7412 8.01536 78.7412 8.01536L80.5838 12.3961C80.5838 12.3961 76.0184 9.53021 72.6301 12.2426C70.4805 13.9622 70.6545 16.7872 70.6136 16.6746C66.8159 7.84136 57.7055 11.5057 57.7055 11.5057C57.7055 11.5057 49.4959 14.7708 46.4148 21.7411C41.7265 32.3553 46.2817 36.4598 46.2817 36.4598C43.047 37.2172 43.5896 41.4035 43.5896 41.4035C40.7029 40.1855 37.7855 42.0791 37.7855 42.0791L36.0453 38.0565C36.0453 38.0565 43.0368 32.6522 38.6454 26.8998C37.6627 25.6204 36.7209 25.7637 36.7209 25.7637H36.7107Z" fill="#6CF479"/>
<path d="M98.5594 80.7775C98.5594 80.7775 85.9687 75.5472 73.0504 85.6087C73.0504 85.6087 79.1001 74.9331 68.0244 65.5266C68.0244 65.5266 80.4513 70.2145 93.2775 60.9412C93.2775 60.9412 86.3475 71.7908 98.539 80.7673H98.5594V80.7775Z" fill="#006A4D"/>
<path d="M22.0115 34.3298C22.0115 34.3298 15.5933 29.0687 6.2884 32.6511C6.2884 32.6511 11.7034 27.4925 6.89234 20.0615C6.89234 20.0615 13.3208 24.9848 22.4312 21.8322C22.4312 21.8322 16.4838 26.9397 22.0115 34.3195V34.3298Z" fill="#006A4D"/>
</svg>
