<svg width="100" height="100" viewBox="0 0 100 100" fill="none" xmlns="http://www.w3.org/2000/svg">
<g clip-path="url(#clip0_15980_11338)">
<rect width="100" height="100" fill="#C7FFC6"/>
<path d="M53.4124 19.4165C31.2528 19.4165 13.0948 32.7197 11.4057 49.6235C12.8133 66.1744 31.112 79.3162 53.4124 79.3162C75.7128 79.3162 94.0116 66.1744 95.4192 49.6235C93.7301 32.7197 75.5821 19.4165 53.4124 19.4165Z" fill="#6CF479"/>
<path d="M53.4123 14.3815C29.8652 14.3815 10.7822 29.2278 10.7822 47.5336C10.7822 48.7943 10.8827 50.0449 11.0637 51.2754C11.1643 50.5896 11.295 49.9138 11.4558 49.2381C13.3762 32.5259 31.4236 19.4143 53.4224 19.4143C75.4211 19.4143 93.4685 32.5158 95.3889 49.2381C95.5397 49.9138 95.6805 50.5896 95.781 51.2754C95.962 50.0449 96.0625 48.8044 96.0625 47.5336C96.0625 29.2278 76.9795 14.3815 53.4324 14.3815H53.4123Z" fill="#00482F"/>
<path d="M87.9688 39.0748C87.8682 38.8933 87.6772 38.7621 87.446 38.6915C87.2047 38.6209 86.9231 38.6109 86.6718 38.6915L55.6242 47.8192C55.3024 47.5469 54.8902 47.3149 54.3975 47.1636C52.7285 46.6492 50.768 47.204 50.034 48.4042C49.8731 48.6664 49.7927 48.9286 49.7726 49.1909H49.7625V49.2716C49.7625 49.2716 49.7625 49.3522 49.7625 49.3926V50.0683C49.7324 50.9962 50.4764 51.8737 51.7332 52.257C53.4122 52.7713 55.3728 52.2166 56.1168 51.0164C56.1872 50.9055 56.2375 50.8046 56.2777 50.6936C56.3581 50.4818 56.3883 50.2801 56.3883 50.0683H56.3984V49.1909H56.3783C56.3783 49.1909 56.3783 49.1505 56.3783 49.1303L87.4258 40.0027C87.9386 39.8514 88.19 39.4379 87.9788 39.0647L87.9688 39.0748Z" fill="black"/>
<path d="M63.3659 30.8368L65.2159 31.4016L68.8656 25.4813L67.0257 24.9165L63.3659 30.8368Z" fill="#00482F"/>
<path d="M37.235 73.2051L39.075 73.7699L42.7347 67.8495L40.8847 67.2847L37.235 73.2051Z" fill="#00482F"/>
<path d="M78.8797 56.474L78.0653 57.7953L86.3299 60.3369L87.1443 59.0056L78.8797 56.474Z" fill="#00482F"/>
<path d="M18.9562 39.6723L27.2208 42.2039L28.0352 40.8826L19.7706 38.3511L18.9562 39.6723Z" fill="#00482F"/>
<path d="M76.9295 29.1449L75.3711 28.2574L71.098 32.0698L72.6564 32.9574L76.9295 29.1449Z" fill="#11B67A"/>
<path d="M29.1715 69.5471L30.7299 70.4347L35.003 66.6121L33.4446 65.7246L29.1715 69.5471Z" fill="#11B67A"/>
<path d="M77.8744 37.079L83.3841 34.1743L82.1977 33.0245L76.6981 35.9393L77.8744 37.079Z" fill="#11B67A"/>
<path d="M28.2265 61.6036L22.7167 64.5184L23.9031 65.6682L29.4028 62.7534L28.2265 61.6036Z" fill="#11B67A"/>
<path d="M24.6873 56.6395L18.343 58.4448L19.0669 59.7762L25.4112 57.9708L24.6873 56.6395Z" fill="#11B67A"/>
<path d="M83.0021 47.5128L89.7687 46.9379L89.5575 45.5057L82.791 46.0907L83.0021 47.5128Z" fill="#11B67A"/>
<path d="M23.0987 51.179L16.3322 51.7539L16.5433 53.176L23.3098 52.6011L23.0987 51.179Z" fill="#11B67A"/>
<path d="M82.5496 53.0874L89.286 53.7833L89.5876 52.3612L82.8613 51.6754L82.5496 53.0874Z" fill="#11B67A"/>
<path d="M23.5513 45.5927L16.8149 44.9069L16.5133 46.3189L23.2396 47.0148L23.5513 45.5927Z" fill="#11B67A"/>
<path d="M46.3943 75.2396L48.375 75.4413L49.4207 70.6304L47.44 70.4287L46.3943 75.2396Z" fill="#11B67A"/>
<path d="M56.6798 28.0547L58.6605 28.2564L59.7062 23.4455L57.7255 23.2539L56.6798 28.0547Z" fill="#11B67A"/>
<path d="M55.2625 70.6789L55.9864 75.5L57.9973 75.3386L57.2633 70.5075L55.2625 70.6789Z" fill="#11B67A"/>
<path d="M48.1037 23.3544L48.8376 28.1754L50.8384 28.004L50.1145 23.183L48.1037 23.3544Z" fill="#11B67A"/>
<path d="M62.9436 69.474L65.3969 73.9823L67.277 73.4478L64.8137 68.9394L62.9436 69.474Z" fill="#11B67A"/>
<path d="M38.8237 25.2282L41.287 29.7365L43.1571 29.202L40.7039 24.7037L38.8237 25.2282Z" fill="#11B67A"/>
<path d="M69.9416 66.9049L73.9633 70.788L75.5921 69.9307L71.5703 66.0477L69.9416 66.9049Z" fill="#11B67A"/>
<path d="M30.5088 28.7623L34.5305 32.6453L36.1593 31.7881L32.1376 27.8949L30.5088 28.7623Z" fill="#11B67A"/>
<path d="M75.7933 63.1351L81.1019 66.1305L82.3587 65.011L77.0501 62.0055L75.7933 63.1351Z" fill="#11B67A"/>
<path d="M30.3077 35.5573L24.9991 32.5517L23.7423 33.6814L29.051 36.6768L30.3077 35.5573Z" fill="#11B67A"/>
<path d="M53.4122 15.8228C76.6275 15.8228 95.5094 30.064 95.5094 47.5629C95.5094 65.0618 76.6275 79.3029 53.4122 79.3029C30.1969 79.3029 11.315 65.0618 11.315 47.5629C11.315 30.064 30.1969 15.8228 53.4122 15.8228ZM53.4122 11.3952C27.7235 11.3952 6.89107 27.593 6.89107 47.573C6.89107 67.553 27.7135 83.7508 53.4122 83.7508C79.1109 83.7508 99.9333 67.553 99.9333 47.573C99.9333 27.593 79.1109 11.3952 53.4122 11.3952Z" fill="#11B67A"/>
<path d="M70.8162 12.4548C70.7358 12.1623 70.6855 11.8698 70.6956 11.5673C70.7861 9.62071 73.0081 8.02715 75.6624 8.02715C75.773 8.02715 75.8836 8.02715 76.0042 8.02715C78.8094 8.16835 81.0917 10.0241 81.0012 12.0917C80.9409 13.4836 79.7746 14.6838 78.1458 15.2587C79.5936 15.9445 80.9811 16.6808 82.3284 17.4776C83.9169 16.1563 84.9324 14.3308 85.0229 12.2632C85.2139 7.93638 81.2626 4.23489 76.2053 3.98274C76.0243 3.98274 75.8433 3.97266 75.6724 3.97266C70.8564 3.97266 66.895 7.17994 66.694 11.3353C68.1016 11.658 69.479 12.0211 70.8263 12.4346L70.8162 12.4548Z" fill="#11B67A"/>
<path d="M20.5447 53.9138C20.5447 43.4044 30.0862 34.4986 43.2975 31.372C43.5891 27.378 47.4399 24.0699 52.6279 23.0411C52.5877 23.0411 52.5475 23.0411 52.5173 23.0411C32.4188 23.0411 16.1309 34.8214 16.1309 49.355C16.1309 56.8992 20.5246 63.6869 27.5425 68.4878C23.1588 64.4636 20.5447 59.4106 20.5447 53.9138Z" fill="white"/>
<path d="M5.54388 50.5013C1.96456 54.9391 -0.0664062 60.0022 -0.0664062 65.3779C-0.0664062 82.8263 21.2788 96.6742 47.6009 96.9666C57.2631 97.0776 67.6089 95.6656 76.899 91.6111V80.4259C69.9515 83.492 61.9383 85.257 53.4123 85.257C28.1861 85.257 7.46425 69.9165 5.54388 50.5013Z" fill="black"/>
<path d="M86.1087 86.4087C86.7522 85.9447 87.3957 85.4707 88.019 84.9664C88.6525 84.4218 89.2557 83.857 89.8389 83.2821V72.107C88.6625 73.1761 87.4158 74.1948 86.1087 75.163V86.4188V86.4087Z" fill="black"/>
<path d="M93.157 68.6945V79.5872C97.4502 74.1106 99.9336 67.6759 99.9336 60.7873V56.9547C98.536 61.2008 96.2135 65.1645 93.157 68.6945Z" fill="black"/>
</g>
<defs>
<clipPath id="clip0_15980_11338">
<rect width="100" height="100" fill="white"/>
</clipPath>
</defs>
</svg>
