<svg width="100" height="100" viewBox="0 0 100 100" fill="none" xmlns="http://www.w3.org/2000/svg">
<rect width="100" height="100" fill="#C7FFC6"/>
<path d="M45.2953 100C38.8894 100 34.5198 96.9879 31.881 94.2643C27.4859 89.7165 25.7296 85.1772 25.6617 84.9905L27.2484 84.3881C27.2653 84.4306 28.9623 88.8087 33.1028 93.085C37.8542 97.9976 48.7656 103.827 68.4416 87.6038L69.5192 88.9105C59.397 97.2594 51.4128 100 45.2953 100Z" fill="#0BE248"/>
<path d="M22.3788 80.9252C20.9703 80.9252 19.2903 80.4755 17.4152 79.1604C12.7232 75.8514 11.1789 70.4466 12.4007 61.614C13.6904 52.3063 20.02 41.8871 20.2915 41.4459L21.7424 42.3283C21.6745 42.4301 15.328 52.9002 14.0892 61.8431C12.9522 70.0733 14.2419 74.8332 18.3994 77.7689C22.8709 80.9167 25.6793 78.015 25.7896 77.8877L27.0369 79.0331C27.0369 79.0331 25.2636 80.9252 22.3788 80.9252Z" fill="#0BE248"/>
<path d="M77.5956 80.9271C74.7193 80.9271 72.963 79.0689 72.9375 79.035L74.1932 77.8896L73.5654 78.458L74.1848 77.8811C74.3035 78.0083 77.112 80.9101 81.5749 77.7623C85.7409 74.8266 87.0306 70.0667 85.8852 61.8365C84.6464 52.8851 78.2914 42.4235 78.232 42.3216L79.6828 41.4392C79.9543 41.8804 86.284 52.3081 87.5736 61.6074C88.7954 70.44 87.2512 75.8447 82.5592 79.1538C80.684 80.4774 79.0041 80.9186 77.5956 80.9186V80.9271Z" fill="#0BE248"/>
<path d="M79.8219 44.7896C70.3529 28.3887 49.3787 22.7633 32.9777 32.2407C16.5768 41.7097 10.9514 62.6839 20.4288 79.0849C29.8978 95.4858 50.872 101.111 67.273 91.6338C83.6739 82.1648 89.2993 61.1906 79.8219 44.7896ZM58.7713 76.9128C50.4987 81.6897 39.9183 78.8558 35.1414 70.5832C30.3645 62.3106 33.1983 51.7301 41.4709 46.9533C49.7435 42.1764 60.324 45.0102 65.1009 53.2828C69.8778 61.5554 67.0439 72.1359 58.7713 76.9128Z" fill="#024731"/>
<path d="M79.8219 41.3875C70.3529 24.9865 49.3787 19.3611 32.9777 28.8386C16.5768 38.3075 10.9514 59.2817 20.4288 75.6827C29.8978 92.0836 50.872 97.709 67.273 88.2316C83.6739 78.7626 89.2993 57.7884 79.8219 41.3875ZM58.7713 73.5106C50.4987 78.2875 39.9183 75.4536 35.1414 67.181C30.3645 58.9084 33.1983 48.328 41.4709 43.5511C49.7435 38.7742 60.324 41.6081 65.1009 49.8807C69.8778 58.1533 67.0439 68.7337 58.7713 73.5106Z" fill="#11B67A"/>
<path d="M58.7699 73.5097C57.6584 74.1546 56.496 74.6467 55.3251 75.02L63.9286 89.9192C65.0571 89.4186 66.177 88.8586 67.2716 88.2307C68.3661 87.6029 69.4097 86.9071 70.4109 86.1774L61.8074 71.2782C60.8996 72.1097 59.8899 72.8649 58.7784 73.5097H58.7699Z" fill="#6CF479"/>
<path d="M41.4788 43.5506C42.5903 42.9057 43.7527 42.4136 44.9236 42.0403L36.3201 27.1411C35.1916 27.6417 34.0717 28.2017 32.9771 28.8296C31.8826 29.466 30.839 30.1532 29.8378 30.8829L38.4413 45.7821C39.3492 44.9506 40.3594 44.1959 41.4709 43.5511L41.4788 43.5506Z" fill="#6CF479"/>
<path d="M65.1009 49.8807C65.7457 50.9921 66.2369 52.1541 66.6103 53.325L81.5095 44.7215C81.0089 43.5931 80.4488 42.4731 79.821 41.3786C79.1931 40.284 78.4974 39.2404 77.7677 38.2392L62.8685 46.8427C63.7 47.7506 64.4551 48.7603 65.1 49.8718L65.1009 49.8807Z" fill="#6CF479"/>
<path d="M35.1376 67.1813C34.4927 66.0698 34.0006 64.9073 33.6273 63.7365L18.7281 72.34C19.2287 73.4684 19.7887 74.5884 20.4166 75.6829C21.0444 76.7775 21.7402 77.8211 22.4699 78.8223L37.369 70.2188C36.5375 69.3109 35.7824 68.3012 35.1376 67.1897V67.1813Z" fill="#6CF479"/>
<path d="M81.0144 68.0385C83.3307 60.5211 82.5077 53.1988 79.886 47.3189C79.886 47.3189 83.5344 62.9053 75.3721 69.6761C75.3721 69.6761 78.0023 74.5888 73.4545 80.2056C76.6108 77.3717 79.4193 73.2057 81.0059 68.0385H81.0144Z" fill="white"/>
<path d="M20.6469 46.0872C17.533 53.2399 17.5246 60.5537 19.4506 66.6457C19.4506 66.6457 17.5924 50.8726 26.3911 45.0946C26.3911 45.0946 24.3463 39.9528 29.4541 34.9299C26.0262 37.3735 22.7936 41.1746 20.6469 46.0872Z" fill="white"/>
<path d="M31.621 4.48714C31.621 4.48714 31.5786 2.90899 33.3858 2.6799C35.1931 2.45082 35.8209 2.36596 37.2209 1.41568C38.6209 0.465387 41.4633 -1.2061 44.3566 1.37325C44.3566 1.37325 46.2996 2.90898 45.0778 6.79498C45.0778 6.79498 48.1917 7.38043 50.5843 8.5598C52.977 9.73918 56.1758 10.8761 60.469 12.7597C60.469 12.7597 67.6726 15.4918 69.4119 19.1233C69.4119 19.1233 75.733 20.9305 76.2252 21.9232C76.7173 22.9159 68.6398 22.8226 62.955 22.059C62.955 22.059 60.2909 22.3729 58.6194 22.7378C56.9479 23.1026 53.3843 23.5947 48.0135 22.5596C42.6426 21.5245 37.7215 18.0033 36.6355 12.5391C35.5494 7.07498 38.0354 5.40349 38.0354 5.40349C38.0354 5.40349 36.907 4.27502 35.0573 4.41078C33.2076 4.54654 32.9786 4.77562 31.6295 4.50411L31.621 4.48714Z" fill="white"/>
<path d="M76.2223 21.9155C75.7217 20.9228 69.4091 19.1155 69.4091 19.1155C68.4333 13.4732 50.1912 8.36537 49.9875 8.28052C49.8688 8.24658 47.5015 7.65265 45.0325 9.50232C42.504 11.3944 43.2592 13.7362 44.4046 15.4162C45.567 17.1301 48.4942 19.1494 52.0409 20.4985C56.1899 22.0767 62.9607 22.0597 62.9607 22.0597C68.6454 22.8233 76.7314 22.9167 76.2308 21.9239L76.2223 21.9155Z" fill="black"/>
<path d="M35.1422 2.39991C34.667 2.51869 34.124 2.58657 33.3858 2.6799C31.5786 2.90899 31.621 4.48714 31.621 4.48714C32.9785 4.75865 33.1992 4.52958 35.0488 4.39382C35.3034 4.37685 35.5409 4.38533 35.77 4.4023C36.3979 3.53686 38.7482 3.48595 38.7482 3.48595C37.6197 2.9005 36.3979 3.07868 35.4985 2.94293C35.1167 2.88354 35.0658 2.64597 35.1337 2.39143L35.1422 2.39991Z" fill="#024731"/>
<path d="M61.0067 27.1255C58.02 27.6431 54.4056 29.4418 50.9014 31.1897C47.6941 32.7848 44.6736 34.2866 42.2979 34.7787C35.824 36.1023 34.0592 29.7388 33.9828 29.4673L32.3368 29.8915C32.3538 29.9679 34.1695 36.6623 40.5415 36.6623C41.1864 36.6623 41.8821 36.5945 42.6288 36.4417C45.2166 35.9157 48.339 34.3545 51.6395 32.7085C55.0334 31.02 58.5376 29.2721 61.2782 28.797C63.8405 28.3558 65.3932 28.2709 66.3181 28.3134C65.2745 27.7534 64.2054 27.2528 63.1109 26.8031C62.4575 26.8879 61.7533 26.9898 60.9897 27.117L61.0067 27.1255Z" fill="#024731"/>
<path d="M61.6534 25.4958C57.4195 25.5128 53.3554 27.4982 49.1045 29.5854C46.8136 30.7139 44.4464 31.8678 41.9858 32.7502C39.7204 33.5563 37.8538 33.5393 36.4368 32.7078C34.2902 31.4436 33.7896 28.6436 33.7811 28.5842C33.7047 28.126 33.272 27.8036 32.8138 27.88C32.3472 27.9564 32.0332 28.3891 32.1096 28.8472C32.1351 28.9915 32.7205 32.4702 35.5629 34.1587C36.5556 34.7441 37.6841 35.0411 38.9313 35.0411C40.0428 35.0411 41.2561 34.812 42.5543 34.3453C45.1082 33.4375 47.5178 32.2496 49.8511 31.1042C54.8486 28.6521 59.5746 26.3358 64.377 27.4982C64.5467 27.5406 64.7164 27.5152 64.8776 27.4473C63.9697 25.8606 62.434 25.5382 61.6534 25.4873V25.4958Z" fill="#6CF479"/>
</svg>
