<svg width="100" height="100" viewBox="0 0 100 100" fill="none" xmlns="http://www.w3.org/2000/svg">
<g clip-path="url(#clip0_4538_825)">
<rect width="100" height="100" fill="#C7FFC6"/>
<path d="M59.2611 39.4674H53.7609V100H59.2611V39.4674Z" fill="black"/>
<path d="M59.2692 75.4141C57.422 74.314 55.0559 72.6744 53.769 71.7819V87.9295C55.2426 84.0068 59.2381 83.4567 59.2381 83.4567L59.2692 83.3322V75.4141Z" fill="#006A4D"/>
<path d="M93.6276 77.6032C94.5201 78.4956 93.8869 80.0315 92.6209 80.0315H71.5024C64.9438 80.0315 58.6031 77.6447 53.6738 73.3172L42.4347 62.7943L54.2652 38.2512L93.6276 77.6136V77.6032Z" fill="#6CF479"/>
<path d="M57.0634 41.0327C59.1493 43.1186 59.7199 46.2734 58.5161 48.9716C50.3904 67.2362 56.15 74.6458 59.4501 77.1779C57.385 76.1506 55.4444 74.8637 53.6802 73.3175L39.3175 60.086C37.3562 58.2803 37.2939 55.2085 39.1826 53.3302L54.2717 38.2411L57.0634 41.0327Z" fill="#006A4D"/>
<path d="M39.3804 60.1086L40.387 61.0426H40.4286C44.1957 58.1369 47.5372 61.8209 47.5372 61.8209L54.7808 69.0645C54.3657 66.8852 54.2931 64.2389 54.8016 61.0322L43.5211 49.7518L42.5559 50.0735L39.2559 53.3735C37.3776 55.2519 37.4398 58.3237 39.3908 60.1294L39.3804 60.1086Z" fill="black"/>
<path d="M17.3056 77.8099C16.4131 78.7024 14.8773 78.0694 14.8773 76.8033V55.6848C14.8773 49.1262 17.2641 42.7854 21.5916 37.8561L32.1145 26.6171L56.6576 38.4476L17.2952 77.8099H17.3056Z" fill="#6CF479"/>
<path d="M53.8763 41.2495C51.7904 43.3354 48.6356 43.9062 45.9374 42.7024C27.6728 34.5767 20.2633 40.3363 17.7311 43.6364C18.7585 41.5713 20.0453 39.6306 21.5916 37.8664L34.823 23.5038C36.6287 21.5424 39.7005 21.4802 41.5789 23.3689L56.668 38.458L53.8763 41.2495Z" fill="#006A4D"/>
<path d="M34.8189 23.5059L33.8848 24.5126V24.5541C36.7906 28.3211 33.1065 31.6627 33.1065 31.6627L25.863 38.9063C28.0423 38.4912 30.6885 38.4186 33.8952 38.9271L45.1757 27.6466L44.8541 26.6815L41.5539 23.3814C39.6756 21.503 36.6038 21.5653 34.7981 23.5163L34.8189 23.5059Z" fill="black"/>
<path d="M93.3723 1.75516C94.2648 0.862683 95.8007 1.49572 95.8007 2.76179V23.8802C95.8007 30.4389 93.4138 36.7796 89.0864 41.709L78.5634 52.9479L54.0204 41.1175L93.3827 1.75516H93.3723Z" fill="#6CF479"/>
<path d="M56.8039 38.3254C58.8898 36.2395 62.0445 35.6688 64.7427 36.8726C83.0073 44.9982 90.417 39.2387 92.9491 35.9386C91.9217 38.0037 90.6349 39.9444 89.0886 41.7085L75.8572 56.0712C74.0515 58.0325 70.9797 58.0948 69.1013 56.2061L54.0123 41.117L56.8039 38.3254Z" fill="#006A4D"/>
<path d="M18.4568 2.42836C17.5643 1.53588 18.1973 0 19.4634 0H40.5819C47.1406 0 53.4812 2.38685 58.4106 6.71432L69.6496 17.2372L57.8191 41.7803L18.4568 2.41799V2.42836Z" fill="#6CF479"/>
<path d="M55.029 38.9991C52.9431 36.9132 52.3723 33.7584 53.5761 31.0602C61.7018 12.7956 55.9423 5.38598 52.6422 2.85384C54.7074 3.88123 56.6479 5.16805 58.4121 6.71432L72.7747 19.9458C74.7361 21.7515 74.7983 24.8233 72.9096 26.7016L57.8206 41.7907L55.029 38.9991Z" fill="#006A4D"/>
<path d="M55.4778 43.5132C57.7245 43.5132 59.5458 41.6919 59.5458 39.4452C59.5458 37.1984 57.7245 35.3771 55.4778 35.3771C53.2311 35.3771 51.4097 37.1984 51.4097 39.4452C51.4097 41.6919 53.2311 43.5132 55.4778 43.5132Z" fill="black"/>
<path d="M73.8715 25.259L57.1532 10.0351C57.8796 12.8993 58.0041 16.6767 56.8418 21.6061C60.5154 18.2334 63.3382 21.3363 63.3382 21.3363L71.0592 28.5384L72.8857 26.7119C73.3111 26.2864 73.6328 25.7883 73.8611 25.259H73.8715Z" fill="#024731"/>
<path d="M70.4906 57.1821L85.7147 40.4638C82.8504 41.1902 79.073 41.3148 74.1436 40.1525H74.1332C77.5267 43.8365 74.4134 46.6592 74.4134 46.6592L67.2113 54.3802L69.0378 56.2066C69.4632 56.6321 69.9614 56.9538 70.4906 57.1821Z" fill="#024731"/>
<path d="M18.6746 15.7124C11.6179 19.4898 5.81683 18.587 5.81683 18.587C2.54788 23.0286 0.472377 28.4249 0.0676497 34.3298C-0.316322 40.0998 0.949714 45.5895 3.47148 50.3425C2.63089 47.333 2.26772 44.1366 2.48565 40.8366C3.19133 30.3863 9.85367 21.0672 18.6746 15.7124Z" fill="white"/>
<path d="M73.9162 72.7249C81.5956 71.7701 86.5146 74.6136 86.5146 74.6136C91.0081 71.739 94.7647 67.5983 97.1827 62.3992C99.5385 57.3349 100.306 51.9281 99.6942 46.7601C99.4036 49.7696 98.6149 52.7791 97.2658 55.6848C93.0006 64.869 83.7334 70.9607 73.9162 72.7249Z" fill="white"/>
</g>
<defs>
<clipPath id="clip0_4538_825">
<rect width="100" height="100" fill="white"/>
</clipPath>
</defs>
</svg>
