<svg width="100" height="100" viewBox="0 0 100 100" fill="none" xmlns="http://www.w3.org/2000/svg">
<g clip-path="url(#clip0_15980_11352)">
<rect width="100" height="100" fill="#C7FFC6"/>
<path d="M66.847 74.913C66.847 80.7444 71.5916 85.4897 77.4223 85.4897C83.253 85.4897 87.9976 80.7444 87.9976 74.913C87.9976 70.6842 85.4785 66.8648 81.5884 65.1911L80.5201 64.7281L81.4637 64.0515C89.8314 58.0598 94.4336 49.9582 94.4336 41.2423C94.4336 23.9618 75.9535 9.90415 53.245 9.90415C30.5365 9.90415 12.0565 23.9618 12.0565 41.2423C12.0565 58.5228 30.5365 72.5805 53.245 72.5805C57.776 72.5805 62.2448 72.0196 66.5443 70.8978L67.6927 70.604L67.3366 71.7347C67.0161 72.7585 66.847 73.8358 66.847 74.913Z" fill="#11B67A"/>
<path d="M67.6304 100.473C70.3639 100.473 72.5798 98.2565 72.5798 95.5227C72.5798 92.7889 70.3639 90.5726 67.6304 90.5726C64.8969 90.5726 62.681 92.7889 62.681 95.5227C62.681 98.2565 64.8969 100.473 67.6304 100.473Z" fill="#11B67A"/>
<path d="M26.0857 16.1418C33.4564 11.4232 42.9279 8.58317 53.2451 8.58317C57.6692 8.58317 61.9332 9.10848 65.9479 10.07C60.322 7.9244 53.9929 6.70468 47.2809 6.70468C36.7323 6.70468 27.1006 9.69606 19.7477 14.6194L26.0857 16.1329V16.1418Z" fill="black"/>
<path d="M20.531 20.4185C21.5013 19.5193 22.5429 18.6646 23.629 17.8544L17.3621 16.3587C16.3206 17.1778 15.3325 18.0325 14.4067 18.9317L20.531 20.4185Z" fill="black"/>
<path d="M65.5297 74.9081C65.5297 74.0712 65.6187 73.2432 65.7879 72.433C63.9808 72.8604 62.1292 73.1808 60.2687 73.4212C60.7227 78.3356 64.3368 82.3241 69.0548 83.348C66.8738 81.1935 65.5297 78.2021 65.5297 74.9081Z" fill="black"/>
<path d="M10.7391 41.2373C10.7391 35.299 12.8221 29.7259 16.454 24.9183L10.4809 23.4671C7.26735 27.9987 5.43359 33.1891 5.43359 38.7089C5.43359 50.4162 13.6589 60.6456 25.9255 66.2188C16.6499 60.2272 10.748 51.253 10.748 41.2373H10.7391Z" fill="black"/>
<path d="M61.3636 95.5205C61.3636 92.5648 63.4199 90.0897 66.1706 89.4309C65.227 88.7187 64.0609 88.2913 62.7969 88.2913C59.6991 88.2913 57.1887 90.8019 57.1887 93.9001C57.1887 96.9984 59.6991 99.509 62.7969 99.509C61.8978 98.4229 61.3636 97.034 61.3636 95.5205Z" fill="black"/>
<path d="M56.6547 14.4879C56.6547 14.4879 70.7462 13.9004 81.0634 23.382C91.3805 32.8635 89.0661 47.1615 89.0661 47.1615C89.0661 47.1615 87.8465 24.1209 68.7077 23.4531C68.7077 23.4531 67.5238 16.7226 56.6458 14.4879H56.6547Z" fill="white"/>
<path d="M22.7831 69.9986C22.7831 69.9986 25.1332 77.7975 34.6759 79.952C34.6759 79.952 27.4476 81.1984 27.3052 89.8787C27.3052 89.8787 24.7593 82.3559 15.6172 79.9432C15.6172 79.9432 23.2549 79.0351 22.7831 69.9986Z" fill="#006A4D"/>
<path d="M81.9533 0.481568C81.9533 0.481568 83.5913 5.90344 90.2231 7.39913C90.2231 7.39913 85.1936 8.26271 85.0957 14.2989C85.0957 14.2989 83.3242 9.07286 76.9683 7.39022C76.9683 7.39022 82.2827 6.75809 81.9533 0.472656V0.481568Z" fill="#006A4D"/>
</g>
<defs>
<clipPath id="clip0_15980_11352">
<rect width="100" height="100" fill="white"/>
</clipPath>
</defs>
</svg>
