<svg width="100" height="100" viewBox="0 0 100 100" fill="none" xmlns="http://www.w3.org/2000/svg">
<g clip-path="url(#clip0_15980_11394)">
<rect width="100" height="100" fill="#C7FFC6"/>
<path d="M31.7947 95.7636C31.7947 95.7636 35.99 92.4507 38.9685 91.7456L41.7683 91.924L46.6615 90.0042L49.1123 88.0845C49.1123 88.0845 50.3378 87.0396 51.3845 86.8612C52.4312 86.6829 58.0307 87.7362 58.0307 87.7362C58.0307 87.7362 61.1794 88.781 62.7537 91.5757C62.7537 91.5757 65.0259 91.5757 65.7237 94.5403C65.7237 94.5403 67.8256 94.192 69.919 96.4601C69.919 96.4601 70.4466 97.8532 66.9491 98.21C63.4515 98.5583 62.7537 99.7815 59.9539 99.9599C57.1542 100.138 52.2609 98.3884 52.2609 98.3884L44.9169 97.8617C44.9169 97.8617 40.7215 98.5583 38.0919 97.8617C35.4709 97.1652 31.7947 95.7636 31.7947 95.7636Z" fill="black"/>
<path d="M43.0957 51.5287C41.2746 51.5287 40.679 51.9109 40.4747 52.1658C40.4067 52.2592 40.3811 52.3781 40.3726 52.497L39.828 94.044C40.5939 94.0695 41.8788 94.2139 42.9 94.817C42.9 94.817 44.1255 93.3645 45.453 92.6509L45.8105 52.3951C45.8105 52.3951 45.87 51.5287 43.0957 51.5287Z" fill="#6CF479"/>
<path d="M71.9785 65.3422C72.3104 65.0619 72.6083 64.7475 72.9146 64.4417C73.638 63.6857 75.6889 61.9189 78.6929 62.2586C79.9438 62.4031 80.914 62.9722 81.5863 63.5498C83.2797 60.6107 86.4625 58.623 90.1047 58.623C95.534 58.623 99.9336 63.0147 99.9336 68.4342V69.3771H59.1116C66.3195 69.3771 69.7745 67.2365 71.97 65.3422H71.9785Z" fill="#006A4D"/>
<path d="M28.8841 53.9423C28.8841 53.9423 24.1782 43.7149 8.6816 53.9253L28.8841 53.9423Z" fill="#006A4D"/>
<path d="M-0.0664062 11.4178C-0.0664062 11.4178 1.63557 9.03934 4.60553 8.13042C7.03936 7.3829 9.69453 8.14741 11.4901 9.94826L11.5326 9.99923C11.5326 9.99923 12.0772 6.72032 14.9195 4.36732C16.2556 3.26302 17.9661 2.64292 19.6936 2.76184C20.468 2.81281 21.302 3.01668 22.0084 3.49238C22.0084 3.49238 19.7873 0.247456 15.8557 1.1224C14.4516 1.4367 13.2005 2.25217 12.2559 3.33098C11.6007 4.07001 10.9199 5.07238 10.6136 6.21914C10.6136 6.21914 4.12048 2.2012 -0.057888 11.4178H-0.0664062Z" fill="#006A4D"/>
<path d="M51.9123 56.6403C50.5763 62.8753 49.4359 73.3066 49.7763 90.6101C49.7933 91.3067 50.355 91.8588 51.0528 91.8588H51.0783C51.7846 91.8418 52.3463 91.2642 52.3293 90.5591C52.0314 75.3198 52.925 65.5596 54.0142 59.418C53.4356 58.7299 52.627 57.7191 51.9207 56.6403H51.9123ZM80.395 30.2561C80.395 30.2561 77.025 27.351 73.3743 28.5402C73.3743 28.5402 66.0813 30.5874 69.4086 37.9012C72.736 45.2066 86.3775 50.1929 86.3775 50.1929C86.3775 50.1929 91.7046 42.5563 92.0365 33.2547C92.3684 23.9531 81.7225 25.2783 80.3865 30.2646L80.395 30.2561ZM85.6881 46.3194C85.6881 46.3194 84.5649 39.1244 81.3821 32.1164C81.3821 32.1164 81.7565 28.9395 84.9392 28.1919C84.9392 28.1919 83.7223 30.0607 84.1904 32.3033C84.6584 34.5459 87.4667 39.031 85.6881 46.3194ZM88.156 16.8941L86.803 15.0933C84.3096 11.7804 81.331 8.84978 77.8845 6.54775C70.3277 1.50197 66.3961 3.03099 64.7026 4.44959C63.5368 5.41797 63.2304 7.16784 64.1835 8.35708C65.4771 9.97955 68.2002 10.5912 68.2002 10.5912C68.2002 10.5912 57.8863 8.59494 62.2093 15.2377C66.5323 21.8805 88.1645 16.9026 88.1645 16.9026L88.156 16.8941ZM72.3956 6.18247C72.3956 6.18247 73.3998 8.37407 73.1871 10.1324C73.1871 10.1324 75.5528 8.14472 79.7652 9.13009C79.7652 9.13009 77.3739 9.27451 76.9569 10.4637C76.9569 10.4637 80.1907 10.1155 84.1904 13.8276C84.1904 13.8276 77.6633 11.7209 70.3617 10.88L69.0767 10.6931C69.0767 10.6931 72.1914 8.77332 72.4041 6.18247H72.3956ZM28.2206 22.2627V18.9159C28.2206 18.9159 15.6515 16.9621 13.4219 34.2486C13.4219 34.2486 30.7396 32.2948 38.5602 23.9361C46.3808 15.5775 31.0204 18.9159 28.2292 22.2627H28.2206ZM24.187 29.7804C18.3832 30.8083 18.0088 30.8083 16.2302 31.8361C16.2302 31.8361 18.4768 29.0329 21.5659 27.5378C24.655 26.0428 26.9953 24.5478 27.8377 23.1461C27.8377 23.1461 28.3058 24.4543 27.1825 25.5756C26.0591 26.6969 27.2761 28.5657 32.2374 26.0428C32.2374 26.0428 29.9907 28.7526 24.187 29.7804ZM58.5075 43.2613C59.0691 41.0187 59.5031 38.5213 59.6563 35.8031C59.7584 33.9937 59.6308 32.6261 59.3329 31.6152C60.6179 27.4869 62.3199 23.1801 63.6474 20.0456C63.1198 19.2981 62.5156 18.3467 62.039 17.3104C60.7966 20.1476 58.933 24.6327 57.4267 29.1858C56.3034 28.7271 54.9418 29.0244 53.793 29.4916C52.7207 20.9036 50.789 14.023 49.955 11.2877C51.1208 9.25751 53.2398 3.80399 42.3471 4.00786C28.978 4.2627 23.2509 11.2622 23.2509 11.2622C23.2509 11.2622 36.7391 8.79881 47.3169 11.4151C47.9807 13.5218 50.2614 21.2519 51.3677 30.8168C51.3677 30.8168 47.887 30.5789 45.6574 32.5921C43.9299 29.9843 42.4323 28.0645 41.1728 26.6459C41.1728 27.5718 41.0622 28.7696 40.7303 30.0947C41.7259 31.3689 42.8747 32.9659 44.1597 34.9621C43.964 35.5992 43.8448 36.3297 43.8448 37.1707C43.8448 44.0598 53.4015 55.0858 53.4015 55.0858C53.4015 55.0858 53.5036 54.9413 53.6823 54.678L57.2735 49.3774C60.269 44.5015 63.9879 40.7809 67.2302 38.1306C67.1876 37.2302 67.2301 36.0069 67.5024 34.6563C64.7793 36.678 61.537 39.5237 58.5075 43.2528V43.2613ZM53.393 50.5921C53.393 50.5921 53.8866 48.5704 53.0441 43.5246C52.2016 38.4789 51.1038 37.536 51.3336 32.6516C51.3336 32.6516 52.3633 37.3236 54.4227 37.1367C54.4227 37.1367 55.4694 37.1282 56.5757 36.2023C56.5757 36.2023 57.699 40.6875 53.393 50.5921Z" fill="#11B67A"/>
<path d="M54.2355 67.9041V66.0523C54.2355 65.4492 53.7929 64.9565 53.2313 64.8545C53.1036 65.9418 52.993 67.1056 52.8909 68.3458C52.8739 68.5836 52.7292 68.8045 52.525 68.9149C47.9977 71.3699 43.5726 72.1769 41.1387 72.4402C40.0495 72.4996 40.126 71.8966 40.126 71.8966L40.1516 70.0362C40.075 70.0872 40.0069 70.1382 39.9388 70.1806C39.4793 70.4949 39.2155 71.0216 39.2155 71.5738V76.0844C39.2155 76.73 39.7687 77.1717 40.4154 77.1632C45.9554 77.0612 51.9633 74.1646 53.5717 72.9159C53.9972 72.5846 54.244 72.1004 54.244 71.4973V67.8956L54.2355 67.9041ZM50.6018 65.2368C48.8572 65.6445 47.1893 66.2646 45.683 66.9357L45.6405 71.251C47.3425 70.5459 48.8913 70.0702 50.1848 69.7644C50.3039 68.057 50.4486 66.6894 50.6018 65.2283V65.2368Z" fill="black"/>
</g>
<defs>
<clipPath id="clip0_15980_11394">
<rect width="100" height="100" fill="white"/>
</clipPath>
</defs>
</svg>
