<svg width="100" height="100" viewBox="0 0 100 100" fill="none" xmlns="http://www.w3.org/2000/svg">
<rect width="100" height="100" fill="#C7FFC6"/>
<path d="M97.3271 32.2991C97.2106 31.4938 96.6867 30.7856 95.8524 30.3005L62.7397 10.9742C62.0315 10.5668 61.1971 10.3727 60.3627 10.3727C59.0433 10.3727 57.7141 10.8578 56.8312 11.7795L45.0143 24.1301C31.2182 38.7606 17.228 53.197 3.33483 67.7305C2.6945 68.3999 2.40344 69.1955 2.51987 69.9716C2.63629 70.7769 3.16019 71.4851 4.00426 71.9702L37.1072 91.2965C38.9312 92.354 41.5798 91.995 43.0157 90.4912L96.5024 34.5402C97.1427 33.8805 97.4338 33.0752 97.3174 32.2991H97.3271Z" fill="#11B67A"/>
<path d="M98.7528 39.7488L98.1707 34.4418C97.9766 34.7911 97.7438 35.1307 97.443 35.4411L43.9563 91.3921C42.8406 92.5564 41.1427 93.187 39.4643 93.187C38.4068 93.187 37.3493 92.9347 36.4567 92.4205L3.35375 73.0943C2.27683 72.4734 1.56859 71.5614 1.30664 70.5039L2.01488 77.0527C2.1216 78.052 2.74253 79.0028 3.82914 79.6237L37.553 99.3089C39.6292 100.512 42.6271 100.104 44.2571 98.3969L97.7438 42.4459C98.5199 41.631 98.8498 40.6705 98.7431 39.7585L98.7528 39.7488Z" fill="black"/>
<path d="M29.7043 72.4359C31.8775 73.6875 32.2559 76.1614 30.5483 77.9466C28.8408 79.7318 25.6974 80.1586 23.5242 78.9071C21.3509 77.6555 20.9628 75.1816 22.6704 73.3964C24.3779 71.6112 27.5213 71.1844 29.7043 72.4359Z" fill="#C7FFC6"/>
<path d="M79.8538 61.5314C79.8538 61.5314 82.58 70.5639 93.6111 73.0573C93.6111 73.0573 85.2481 74.5029 85.0831 84.5444C85.0831 84.5444 82.1434 75.8418 71.5489 73.0476C71.5489 73.0476 80.3971 71.9901 79.8538 61.5314Z" fill="#17B17C"/>
<path d="M70.5787 21.1486C71.3258 21.5851 71.4616 22.4389 70.8698 23.0598C70.278 23.6808 69.1816 23.8263 68.4346 23.3897C67.6876 22.9531 67.5517 22.0993 68.1435 21.4784C68.7354 20.8575 69.822 20.712 70.5787 21.1486Z" fill="#C7FFC6"/>
<path d="M81.1339 27.2449C81.8906 27.6814 82.0167 28.5352 81.4346 29.1561C80.8428 29.7771 79.7465 29.9226 78.9994 29.486L72.9454 25.9933C72.1984 25.5567 72.0626 24.7029 72.6544 24.082C73.2462 23.4611 74.3328 23.3156 75.0896 23.7522L81.1436 27.2449H81.1339Z" fill="#C7FFC6"/>
<path d="M84.1035 53.0988C84.3558 53.5645 84.8506 53.6421 85.2096 53.2637L90.4777 47.7724C90.8367 47.4037 90.924 46.7149 90.6814 46.2395C90.4292 45.7738 89.9344 45.6962 89.5754 46.0746L84.3073 51.5659C83.9483 51.9345 83.8513 52.6234 84.1035 53.0988Z" fill="#C7FFC6"/>
<path d="M76.3022 61.2279C76.5545 61.6936 77.0493 61.7712 77.4082 61.3929L82.6764 55.9016C83.0353 55.5232 83.1324 54.8441 82.8801 54.3687C82.6279 53.903 82.1331 53.8254 81.7741 54.2037L76.5059 59.695C76.147 60.0637 76.05 60.7525 76.3022 61.2279Z" fill="#C7FFC6"/>
<path d="M39.1053 0C39.1053 0 40.871 5.84056 48.0116 7.46078C48.0116 7.46078 42.598 8.39216 42.4912 14.9022C42.4912 14.9022 40.58 9.27504 33.7304 7.46078C33.7304 7.46078 39.4545 6.78164 39.0956 0.00970192L39.1053 0Z" fill="#17B17C"/>
<path d="M18.5661 62.6534C15.0928 62.4302 9.8053 60.8779 9.8053 60.8876C9.8053 60.8973 17.625 52.8835 17.625 52.8835C18.0907 51.9812 42.753 25.6987 42.753 25.6987C48.2443 37.2731 58.1403 37.6903 58.1403 37.6903L57.9171 43.2592C57.9171 43.2592 42.6269 64.196 18.5661 62.6534Z" fill="#024731"/>
<path d="M58.1409 37.7011C56.2781 36.9928 54.4347 36.1585 52.7563 34.9845C47.1292 31.0553 44.1119 25.2923 43.7238 19.2965C37.1556 20.4316 30.2673 19.5488 24.611 15.5031C22.9229 14.2903 21.5258 12.738 20.2937 11.2633C19.9347 11.6611 19.4884 12.0201 19.1683 12.447C9.09766 25.8356 0.647287 40.2042 10.6888 57.3572C28.9284 62.5962 45.6739 51.7883 57.161 38.9623C57.52 38.5645 57.7916 38.1085 58.1312 37.6914C58.1312 37.6914 58.1312 37.6914 58.1409 37.6914V37.7011ZM12.3381 55.4653C3.88773 39.6317 11.5814 28.1835 20.4586 14.9598C21.3706 15.93 22.2826 16.7449 23.2237 17.424C28.453 21.1884 34.9145 22.2944 41.57 21.7705C42.6372 27.679 46.1299 33.0053 51.2913 36.6436C52.2227 37.3033 53.2414 37.8951 54.3959 38.4578C41.7155 49.8673 30.4904 58.9289 12.3478 55.4653H12.3381Z" fill="#6CF479"/>
<path d="M40.7063 22.7715C34.0702 23.0916 27.8028 22.0438 22.622 18.2989C21.9331 17.8041 21.2734 17.2414 20.6234 16.6108C12.4738 28.7285 4.96446 40.0797 13.1044 54.5938C30.2089 57.6208 40.6481 49.3353 52.7658 38.7214C51.9994 38.3043 51.2911 37.8677 50.6217 37.3923C45.5379 33.7929 41.987 28.6217 40.716 22.7715H40.7063Z" fill="#6CF479"/>
<path d="M20.7782 18.9566C20.7782 18.9566 27.2882 23.6621 35.5833 23.924C35.5833 23.924 30.0726 24.6226 27.424 26.2913C27.424 26.2913 20.2349 20.9844 13.9286 29.2019C13.9286 29.2019 17.5959 23.1479 20.7782 18.9566Z" fill="white"/>
<path d="M13.3469 39.1956C14.482 44.3376 26.0758 50.7312 29.8402 49.9065C29.8402 49.9065 31.4507 47.4131 30.8783 45.9481C30.3058 44.4831 27.3662 41.0486 27.3662 41.0486C25.1153 42.0091 22.5152 40.8934 22.2435 37.8664C20.1382 37.1582 17.8583 36.3917 16.4806 36.6731C15.0738 36.7798 14.1812 37.9343 13.3469 39.1859V39.1956Z" fill="black"/>
<path d="M30.5877 30.4651C30.5877 30.4651 29.1131 29.4464 27.2212 29.9509C25.3293 30.4554 24.1748 32.619 24.1748 32.619C23.6606 33.4048 22.1665 38.1588 24.4367 39.5946C26.707 41.0305 29.734 38.4692 29.734 38.4692C29.734 38.4692 31.587 37.1886 32.2177 34.5011C32.8483 31.8137 30.578 30.4651 30.578 30.4651H30.5877Z" fill="black"/>
</svg>
