<svg width="100" height="100" viewBox="0 0 100 100" fill="none" xmlns="http://www.w3.org/2000/svg">
<rect width="100" height="100" fill="#C7FFC6"/>
<path d="M97.3261 32.2991C97.2097 31.4938 96.6858 30.7856 95.8514 30.3005L62.7387 10.9742C62.0305 10.5668 61.1961 10.3727 60.3618 10.3727C59.0423 10.3727 57.7131 10.8578 56.8303 11.7795L45.0133 24.1301C31.2172 38.7606 17.227 53.197 3.33385 67.7305C2.69353 68.3999 2.40247 69.1955 2.51889 69.9716C2.63531 70.7769 3.15922 71.4851 4.00329 71.9702L37.1062 91.2965C38.9302 92.354 41.5788 91.995 43.0147 90.4912L96.5014 34.5402C97.1418 33.8805 97.4328 33.0752 97.3164 32.2991H97.3261Z" fill="#11B67A"/>
<path d="M98.7518 39.7488L98.1697 34.4418C97.9756 34.7911 97.7428 35.1307 97.442 35.4411L43.9553 91.3921C42.8396 92.5564 41.1418 93.187 39.4633 93.187C38.4058 93.187 37.3483 92.9347 36.4557 92.4205L3.35277 73.0943C2.27586 72.4734 1.56762 71.5614 1.30566 70.5039L2.0139 77.0527C2.12063 78.052 2.74155 79.0028 3.82816 79.6237L37.5521 99.3089C39.6283 100.512 42.6262 100.104 44.2561 98.3969L97.7428 42.4459C98.519 41.631 98.8488 40.6705 98.7421 39.7585L98.7518 39.7488Z" fill="black"/>
<path d="M29.7033 72.4359C31.8765 73.6875 32.2549 76.1614 30.5474 77.9466C28.8398 79.7318 25.6964 80.1586 23.5232 78.9071C21.3499 77.6555 20.9619 75.1816 22.6694 73.3964C24.3769 71.6112 27.5204 71.1844 29.7033 72.4359Z" fill="#C7FFC6"/>
<path d="M79.8528 61.5314C79.8528 61.5314 82.579 70.5639 93.6101 73.0573C93.6101 73.0573 85.2471 74.5029 85.0822 84.5444C85.0822 84.5444 82.1425 75.8418 71.548 73.0476C71.548 73.0476 80.3961 71.9901 79.8528 61.5314Z" fill="#17B17C"/>
<path d="M70.5778 21.1486C71.3248 21.5851 71.4606 22.4389 70.8688 23.0598C70.277 23.6808 69.1807 23.8263 68.4336 23.3897C67.6866 22.9531 67.5507 22.0993 68.1426 21.4784C68.7344 20.8575 69.821 20.712 70.5778 21.1486Z" fill="#C7FFC6"/>
<path d="M81.1329 27.2449C81.8896 27.6814 82.0157 28.5352 81.4336 29.1561C80.8418 29.7771 79.7455 29.9226 78.9985 29.486L72.9445 25.9933C72.1974 25.5567 72.0616 24.7029 72.6534 24.082C73.2452 23.4611 74.3318 23.3156 75.0886 23.7522L81.1426 27.2449H81.1329Z" fill="#C7FFC6"/>
<path d="M84.1026 53.0988C84.3548 53.5645 84.8496 53.6421 85.2086 53.2637L90.4767 47.7724C90.8357 47.4037 90.923 46.7149 90.6805 46.2395C90.4282 45.7738 89.9334 45.6962 89.5744 46.0746L84.3063 51.5659C83.9473 51.9345 83.8503 52.6234 84.1026 53.0988Z" fill="#C7FFC6"/>
<path d="M76.3012 61.2279C76.5535 61.6936 77.0483 61.7712 77.4072 61.3929L82.6754 55.9016C83.0344 55.5232 83.1314 54.8441 82.8791 54.3687C82.6269 53.903 82.1321 53.8254 81.7731 54.2037L76.505 59.695C76.146 60.0637 76.049 60.7525 76.3012 61.2279Z" fill="#C7FFC6"/>
<path d="M39.1043 0C39.1043 0 40.87 5.84056 48.0107 7.46078C48.0107 7.46078 42.597 8.39216 42.4903 14.9022C42.4903 14.9022 40.579 9.27504 33.7294 7.46078C33.7294 7.46078 39.4536 6.78164 39.0946 0.00970192L39.1043 0Z" fill="#17B17C"/>
<path d="M18.5652 62.6534C15.0919 62.4302 9.80432 60.8779 9.80432 60.8876C9.80432 60.8973 17.6241 52.8835 17.6241 52.8835C18.0898 51.9812 42.7521 25.6987 42.7521 25.6987C48.2433 37.2731 58.1393 37.6903 58.1393 37.6903L57.9162 43.2592C57.9162 43.2592 42.6259 64.196 18.5652 62.6534Z" fill="#024731"/>
<path d="M58.1399 37.7011C56.2771 36.9928 54.4338 36.1585 52.7553 34.9845C47.1282 31.0553 44.1109 25.2923 43.7229 19.2965C37.1547 20.4316 30.2663 19.5488 24.6101 15.5031C22.9219 14.2903 21.5248 12.738 20.2927 11.2633C19.9337 11.6611 19.4874 12.0201 19.1673 12.447C9.09669 25.8356 0.646311 40.2042 10.6878 57.3572C28.9274 62.5962 45.6729 51.7883 57.16 38.9623C57.519 38.5645 57.7906 38.1085 58.1302 37.6914C58.1302 37.6914 58.1302 37.6914 58.1399 37.6914V37.7011ZM12.3371 55.4653C3.88675 39.6317 11.5804 28.1835 20.4576 14.9598C21.3696 15.93 22.2816 16.7449 23.2227 17.424C28.452 21.1884 34.9135 22.2944 41.569 21.7705C42.6362 27.679 46.1289 33.0053 51.2904 36.6436C52.2217 37.3033 53.2404 37.8951 54.395 38.4578C41.7146 49.8673 30.4894 58.9289 12.3468 55.4653H12.3371Z" fill="#6CF479"/>
<path d="M40.7054 22.7715C34.0693 23.0916 27.8018 22.0438 22.621 18.2989C21.9321 17.8041 21.2724 17.2414 20.6224 16.6108C12.4728 28.7285 4.96348 40.0797 13.1034 54.5938C30.2079 57.6208 40.6472 49.3353 52.7649 38.7214C51.9984 38.3043 51.2902 37.8677 50.6207 37.3923C45.5369 33.7929 41.986 28.6217 40.7151 22.7715H40.7054Z" fill="#6CF479"/>
<path d="M20.7772 18.9566C20.7772 18.9566 27.2872 23.6621 35.5823 23.924C35.5823 23.924 30.0716 24.6226 27.423 26.2913C27.423 26.2913 20.2339 20.9844 13.9276 29.2019C13.9276 29.2019 17.595 23.1479 20.7772 18.9566Z" fill="white"/>
<path d="M13.3459 39.1956C14.481 44.3376 26.0748 50.7312 29.8392 49.9065C29.8392 49.9065 31.4497 47.4131 30.8773 45.9481C30.3049 44.4831 27.3652 41.0486 27.3652 41.0486C25.1143 42.0091 22.5142 40.8934 22.2426 37.8664C20.1372 37.1582 17.8573 36.3917 16.4796 36.6731C15.0728 36.7798 14.1803 37.9343 13.3459 39.1859V39.1956Z" fill="black"/>
<path d="M30.5868 30.4651C30.5868 30.4651 29.1121 29.4464 27.2202 29.9509C25.3283 30.4554 24.1738 32.619 24.1738 32.619C23.6596 33.4048 22.1655 38.1588 24.4358 39.5946C26.706 41.0305 29.733 38.4692 29.733 38.4692C29.733 38.4692 31.5861 37.1886 32.2167 34.5011C32.8473 31.8137 30.5771 30.4651 30.5771 30.4651H30.5868Z" fill="black"/>
</svg>
