<svg width="100" height="100" viewBox="0 0 100 100" fill="none" xmlns="http://www.w3.org/2000/svg">
<g clip-path="url(#clip0_15980_11451)">
<rect width="100" height="100" fill="#C7FFC6"/>
<path d="M53.6902 45.3745C55.9218 44.7976 57.4757 42.7949 57.4757 40.4956V7.90071C57.4757 5.86508 55.8061 4.29921 53.8721 4.29921C53.5746 4.29921 53.2687 4.34043 52.9546 4.4146L7.79391 16.0927C5.56232 16.6696 4.00846 18.6723 4.00846 20.9716V53.5665C4.00846 55.6021 5.678 57.168 7.61205 57.168C7.90959 57.168 8.21539 57.1267 8.52947 57.0526L20.8859 53.8549C21.7454 53.6324 53.6902 45.3745 53.6902 45.3745Z" fill="#6CF479"/>
<path d="M3.9339 17.3546C4.76868 16.1761 6.00022 15.2695 7.47968 14.8904L52.6404 3.21227C52.8388 3.16282 53.0454 3.1216 53.2438 3.09688L51.7808 2.0832C50.9626 1.53927 49.9294 1.31677 48.8715 1.58873L3.71077 13.2668C2.42967 13.5965 1.38827 14.4041 0.718793 15.459L3.92567 17.3463L3.9339 17.3546Z" fill="black"/>
<path d="M2.76853 21.7232V20.965C2.76853 20.3551 2.87599 19.7782 3.03302 19.2177L-0.00854417 17.4211C-0.0416048 17.6601 -0.0664062 17.8991 -0.0664062 18.1464V20.0501L2.76853 21.7232Z" fill="black"/>
<path d="M2.76853 53.5581V27.474L-0.0664062 25.801V50.7396C-0.0664062 51.9346 0.512154 52.973 1.37999 53.6241L2.90075 54.6789C2.8181 54.3163 2.76853 53.9454 2.76853 53.5581Z" fill="black"/>
<path d="M29.5475 31.5308C30.0682 31.7286 30.6798 31.8358 31.3327 31.6627C31.9857 31.4896 32.6056 31.0693 33.1428 30.5913C34.3578 29.5116 35.2421 28.0282 35.7546 26.4953C36.3662 24.6492 36.4406 23.1081 36.4406 23.1081C36.672 19.1687 34.3164 17.8253 31.5889 18.5423C28.8532 19.2593 26.4232 21.8389 26.5141 25.7041C26.5141 25.7041 26.5307 27.2123 27.0762 28.7617C27.5307 30.0474 28.3655 31.0775 29.5557 31.5308H29.5475ZM42.8378 35.7999C42.1683 33.1297 41.0195 32.3714 38.8292 32.1654L34.2917 31.6297C34.1842 31.7286 34.0933 31.8522 33.9859 31.9429C33.085 32.7505 32.1758 33.2698 31.2997 33.5005C30.4153 33.7313 29.5227 33.6736 28.6466 33.3357C28.5391 33.2945 28.4482 33.2285 28.349 33.1791L23.7453 36.1048C21.522 37.4647 20.3318 38.841 19.5549 41.8821L18.5879 45.9863L43.6643 39.4426L42.8461 35.8082L42.8378 35.7999Z" fill="black"/>
<path d="M35.9281 11.5696L52.6485 7.41591C53.5577 7.19339 54.4421 7.87739 54.4421 8.81691V25.5141C54.4421 25.5141 53.8883 8.94879 35.9281 11.5696Z" fill="white"/>
<path d="M8.82695 63.747C8.82695 63.747 9.97578 67.5463 14.6373 68.5929C14.6373 68.5929 11.1081 69.2028 11.0337 73.4307C11.0337 73.4307 9.79393 69.7632 5.32249 68.5929C5.32249 68.5929 9.05837 68.1479 8.82695 63.747Z" fill="#006A4D"/>
<path d="M75.2539 2.3966C75.2539 2.3966 77.4359 9.61609 86.2962 11.6105C86.2962 11.6105 79.5848 12.7643 79.4526 20.7997C79.4526 20.7997 77.0888 13.8357 68.6005 11.6023C68.6005 11.6023 75.692 10.7617 75.2539 2.3966Z" fill="#006A4D"/>
<path d="M48.6733 46.6698L57.484 36.4423V35.8323L37.7055 49.505C41.7141 48.4665 45.6896 47.4363 48.6816 46.6698H48.6733Z" fill="black"/>
<path d="M99.9336 44.2216L89.6022 44.4689L70.5179 33.4583C69.2781 32.7413 67.4598 33.005 66.468 34.0352L37.135 64.7757L21.0345 75.4732V81.0938C21.0675 81.7284 21.4395 82.33 22.1172 82.7256L50.4419 99.0684C51.6817 99.7854 53.5 99.5216 54.4918 98.4914L99.2972 51.5318C99.727 51.0785 99.9336 50.5592 99.9253 50.0483V44.2299L99.9336 44.2216Z" fill="black"/>
<path d="M54.4918 92.7146C53.5082 93.7448 51.6816 94.0086 50.4418 93.2916L22.1172 76.9487C20.8774 76.2317 20.6708 74.806 21.6626 73.7676L66.468 26.8079C67.4515 25.7777 69.2781 25.514 70.5179 26.231L98.8425 42.5738C100.082 43.2908 100.289 44.7165 99.2971 45.7549L54.4918 92.7146Z" fill="#11B67A"/>
<path d="M86.3703 39.863L81.56 37.0527C80.8657 36.6489 79.9814 36.7725 79.4276 37.3494C79.0309 37.7697 79.1218 38.4455 79.6259 38.7339L84.4363 41.5443C85.1223 41.9481 85.9984 41.8327 86.5521 41.2641C86.9571 40.8438 86.8662 40.1514 86.3621 39.863H86.3703ZM41.3418 76.8753C39.0193 76.9412 37.0935 78.3752 37.0357 80.073C36.9778 81.7707 38.8044 83.0893 41.1269 83.0233C43.4494 82.9574 45.3752 81.5234 45.433 79.8257C45.4909 78.1279 43.6643 76.8093 41.3418 76.8753ZM76.9232 34.6132C76.1298 34.6379 75.4603 35.1242 75.4438 35.7094C75.419 36.2945 76.0554 36.7478 76.8489 36.723C77.6423 36.6983 78.3118 36.212 78.3283 35.6269C78.3531 35.0417 77.7167 34.5885 76.9232 34.6132Z" fill="#024731"/>
<path d="M69.7244 49.9334C67.3028 48.5324 63.8892 48.6806 61.451 51.4909C61.451 51.4909 60.4922 52.5788 59.8806 54.0623C59.3765 55.2985 59.3104 56.6171 59.8641 57.7709C60.1121 58.2819 60.484 58.7764 61.0625 59.1143C61.6411 59.4439 62.3602 59.5759 63.0545 59.6171C64.6248 59.6912 66.22 59.2544 67.5755 58.5127C69.212 57.6226 70.2534 56.5842 70.2534 56.5842C72.9644 53.9387 72.1461 51.3426 69.7162 49.9415L69.7244 49.9334ZM63.6248 62.04C63.6248 62.04 63.3024 61.6362 62.7238 61.1005C61.5998 61.0345 60.6493 60.7873 59.8889 60.3505C59.1368 59.9137 58.5499 59.2709 58.1367 58.455C57.3102 58.1748 56.7233 58.0512 56.7233 58.0512L52.8388 57.2023C50.4419 56.6336 48.7558 56.782 46.3093 58.3561L43.0693 60.5401L64.6083 72.9847L66.3192 69.9189C67.5259 67.6277 67.2036 66.3173 65.8068 64.6937L63.633 62.04H63.6248Z" fill="black"/>
</g>
<defs>
<clipPath id="clip0_15980_11451">
<rect width="100" height="100" fill="white"/>
</clipPath>
</defs>
</svg>
