<svg width="100" height="100" viewBox="0 0 100 100" fill="none" xmlns="http://www.w3.org/2000/svg">
<rect width="100" height="100" fill="#C7FFC6"/>
<path d="M9.19855 40.8602L15.2579 15.3821C16.1605 11.5714 18.8534 8.37421 22.4587 6.82884C26.2196 5.21987 30.3758 5.52495 33.8602 7.66619C37.3447 9.80743 39.4951 13.3778 39.7554 17.4611L40.4169 27.6928L35.9422 27.9824L35.2807 17.7507C35.1144 15.1401 33.7386 12.858 31.5108 11.4882C29.283 10.1184 26.6258 9.92418 24.2228 10.9513C21.9181 11.9391 20.197 13.983 19.6193 16.4171L13.5599 41.8952L9.1966 40.8575L9.19855 40.8602Z" fill="#6CF479"/>
<path d="M41.6568 12.2753L1.22381 45.3812C1.02483 45.5028 0.846251 45.6472 0.690023 45.817L0.679061 45.8249C-2.17331 49.0077 4.22243 59.4124 14.9703 69.0721C18.8144 72.527 22.6917 75.4172 26.222 77.5588C30.7619 80.3149 35.8102 81.2149 38.621 80.9634C38.621 80.9634 39.6115 80.8039 39.6084 80.8082L39.6088 80.8059C39.7635 80.631 39.8899 80.4369 39.9912 80.2193L68.6076 36.496L41.6568 12.2753Z" fill="#11B67A"/>
<path d="M32.8399 80.3329C32.7634 80.3129 32.6847 80.2926 32.6082 80.2727C32.687 80.293 32.7634 80.3129 32.8399 80.3329Z" fill="#11B67A"/>
<path d="M32.3974 80.213C32.319 80.1903 32.2403 80.17 32.1619 80.1473C32.2403 80.17 32.3187 80.1927 32.3974 80.213Z" fill="#11B67A"/>
<path d="M31.9501 80.0854C31.8693 80.0623 31.789 80.0369 31.7063 80.0111C31.7866 80.0365 31.8697 80.0599 31.9501 80.0854Z" fill="#11B67A"/>
<path d="M33.2758 80.4407C33.2013 80.4235 33.1268 80.4063 33.0504 80.3864C33.1245 80.406 33.2013 80.4235 33.2758 80.4407Z" fill="#11B67A"/>
<path d="M30.1246 79.4666C29.9725 79.4075 29.818 79.3481 29.6644 79.2839C29.8184 79.3457 29.9701 79.4071 30.1246 79.4666Z" fill="#11B67A"/>
<path d="M30.5845 79.6364C30.4704 79.5957 30.3591 79.5531 30.2454 79.5101C30.3591 79.5531 30.4728 79.5961 30.5845 79.6364Z" fill="#11B67A"/>
<path d="M33.8864 80.5784C33.8323 80.5694 33.7766 80.5553 33.721 80.5413C33.777 80.553 33.8303 80.5667 33.8864 80.5784Z" fill="#11B67A"/>
<path d="M31.0435 79.7963C30.9522 79.7643 30.8608 79.7322 30.7671 79.6998C30.8585 79.7318 30.9522 79.7643 31.0435 79.7963Z" fill="#11B67A"/>
<path d="M31.4993 79.9478C31.4142 79.9216 31.3296 79.893 31.2449 79.8645C31.3296 79.893 31.4146 79.9192 31.4993 79.9478Z" fill="#11B67A"/>
<path d="M34.7084 80.7338C34.6566 80.7253 34.6026 80.7163 34.5508 80.7077C34.6049 80.7167 34.6566 80.7253 34.7084 80.7338Z" fill="#11B67A"/>
<path d="M34.3027 80.6601C34.2462 80.6507 34.1925 80.6394 34.1365 80.6277C34.1929 80.637 34.2486 80.6511 34.3027 80.6601Z" fill="#11B67A"/>
<path d="M37.7904 81.0051C37.7786 81.0031 37.7638 81.0055 37.7516 81.0059C37.7634 81.0078 37.7783 81.0055 37.7904 81.0051Z" fill="#11B67A"/>
<path d="M38.0909 80.997C38.0787 80.9974 38.0642 80.9974 38.0497 80.9975C38.0642 80.9974 38.0764 80.997 38.0909 80.997Z" fill="#11B67A"/>
<path d="M38.3707 80.985C38.3707 80.985 38.3511 80.9866 38.3437 80.9877C38.3531 80.9893 38.3633 80.9862 38.3707 80.985Z" fill="#11B67A"/>
<path d="M35.1064 80.7981C35.057 80.7899 35.01 80.7821 34.9606 80.7739C35.01 80.7821 35.0593 80.7903 35.1064 80.7981Z" fill="#11B67A"/>
<path d="M35.4912 80.8523C35.4489 80.8453 35.4038 80.8403 35.3588 80.8352C35.4034 80.8426 35.4462 80.8473 35.4912 80.8523Z" fill="#11B67A"/>
<path d="M37.4739 81.0031C37.4739 81.0031 37.4669 81.0019 37.4623 81.0011C37.4669 81.0019 37.4692 81.0023 37.4739 81.0031Z" fill="#11B67A"/>
<path d="M28.0765 78.5722C27.9847 78.528 27.891 78.481 27.7973 78.4341C27.891 78.481 27.9824 78.5276 28.0765 78.5722Z" fill="#11B67A"/>
<path d="M26.6844 77.8329C26.5323 77.7448 26.3782 77.654 26.2265 77.5636C26.3778 77.6564 26.5323 77.7448 26.6844 77.8329Z" fill="#11B67A"/>
<path d="M28.5469 78.7963C28.4528 78.7517 28.3607 78.7098 28.2666 78.6652C28.3607 78.7098 28.4524 78.754 28.5469 78.7963Z" fill="#11B67A"/>
<path d="M27.6083 78.3347C27.5126 78.285 27.4169 78.2353 27.324 78.1837C27.4193 78.2357 27.515 78.2854 27.6083 78.3347Z" fill="#11B67A"/>
<path d="M27.1439 78.0897C27.0396 78.0338 26.9357 77.9754 26.8342 77.9175C26.9381 77.9758 27.042 78.0341 27.1439 78.0897Z" fill="#11B67A"/>
<path d="M39.6109 80.8092L39.6112 80.8068C39.7659 80.6319 39.8923 80.4379 39.9937 80.2203L68.6101 36.4969L39.6084 80.8082L39.6109 80.8092Z" fill="#11B67A"/>
<path d="M26.2178 77.5568C26.1146 77.4938 25.1113 76.8707 23.6829 75.9258C24.5432 76.5083 25.3905 77.0523 26.2178 77.5568Z" fill="#11B67A"/>
<path d="M44.1854 56.8084L62.3175 35.8576C64.5032 37.0005 68.6117 36.5003 68.6117 36.5003L41.6566 12.2765L1.2236 45.3824C1.02462 45.5041 0.846032 45.6484 0.689804 45.8182L0.678842 45.8261C-1.98676 48.8007 3.42601 58.0806 12.9158 67.1668C12.9268 67.1735 28.1583 75.3247 44.1807 56.8077L44.1854 56.8084Z" fill="#11B67A"/>
<path d="M35.749 80.8845C35.6636 80.8752 35.5763 80.864 35.4912 80.8523C35.5786 80.8644 35.6639 80.8728 35.749 80.8845Z" fill="#006B4E"/>
<path d="M34.9602 80.776C34.8778 80.7623 34.7932 80.7483 34.7109 80.7346C34.7955 80.7487 34.8778 80.7623 34.9602 80.776Z" fill="#006B4E"/>
<path d="M26.2265 77.5609C26.2265 77.5609 26.22 77.5575 26.2181 77.5548C26.2246 77.5582 26.2265 77.5609 26.2265 77.5609Z" fill="#006B4E"/>
<path d="M35.3588 80.8352C35.2765 80.8215 35.191 80.8121 35.1064 80.7981C35.191 80.8121 35.2761 80.8239 35.3588 80.8352Z" fill="#006B4E"/>
<path d="M29.6644 79.2839C29.6189 79.2667 29.5762 79.2469 29.5311 79.2274C29.5762 79.2469 29.6193 79.2644 29.6644 79.2839Z" fill="#006B4E"/>
<path d="M38.3416 80.985C38.2585 80.9905 38.1758 80.9937 38.0884 80.9962C38.1735 80.9933 38.2589 80.9882 38.3416 80.985Z" fill="#006B4E"/>
<path d="M26.834 77.9186C26.783 77.8908 26.735 77.863 26.6844 77.8329C26.7354 77.8607 26.7834 77.8885 26.834 77.9186Z" fill="#006B4E"/>
<path d="M37.4618 81.0051C37.0593 80.9987 36.631 80.9736 36.1787 80.9324C36.6306 80.976 37.0593 80.9987 37.4618 81.0051Z" fill="#006B4E"/>
<path d="M38.3709 80.9864C38.8424 80.9558 39.2629 80.8965 39.6109 80.8092C39.6116 80.8045 38.6233 80.9654 38.6233 80.9654C38.5398 80.9733 38.4568 80.9788 38.369 80.9836L38.3709 80.9864Z" fill="#006B4E"/>
<path d="M28.7351 78.8826C28.6724 78.8528 28.6097 78.826 28.5469 78.7963C28.6097 78.826 28.672 78.8552 28.7351 78.8826Z" fill="#006B4E"/>
<path d="M31.7063 80.0111C31.6373 79.99 31.5683 79.9685 31.4997 79.945C31.5687 79.9661 31.6373 79.99 31.7063 80.0111Z" fill="#006B4E"/>
<path d="M34.5514 80.7063C34.4691 80.6926 34.3842 80.6784 34.3027 80.6601C34.3873 80.6741 34.4695 80.6903 34.5514 80.7063Z" fill="#006B4E"/>
<path d="M29.2012 79.0905C29.1424 79.0662 29.084 79.0396 29.0255 79.013C29.084 79.0396 29.1428 79.0639 29.2012 79.0905Z" fill="#006B4E"/>
<path d="M28.2666 78.6652C28.2015 78.6351 28.139 78.602 28.074 78.5719C28.1386 78.6044 28.2015 78.6351 28.2666 78.6652Z" fill="#006B4E"/>
<path d="M30.2454 79.5101C30.2047 79.4937 30.1658 79.4791 30.1246 79.465C30.1654 79.4815 30.2043 79.496 30.2454 79.5101Z" fill="#006B4E"/>
<path d="M32.1619 80.1473C32.0905 80.1258 32.0214 80.1068 31.9501 80.0854C32.0214 80.1068 32.0901 80.1282 32.1619 80.1473Z" fill="#006B4E"/>
<path d="M32.6077 80.2706C32.5384 80.2518 32.4668 80.2317 32.3974 80.213C32.4668 80.2317 32.538 80.2542 32.6077 80.2706Z" fill="#006B4E"/>
<path d="M33.0504 80.3864C32.9806 80.37 32.9092 80.3516 32.8399 80.3329C32.9092 80.3516 32.981 80.3677 33.0504 80.3864Z" fill="#006B4E"/>
<path d="M61.3409 34.1398L59.3055 36.5339C59.3055 36.5339 59.3055 36.5339 43.7772 54.7993C28.2547 73.0586 13.5834 65.0908 13.5729 65.0843C14.2128 65.7087 14.8716 66.3315 15.5493 66.9527C18.3784 69.5401 21.2264 71.8027 23.929 73.6631C25.3045 74.5878 26.2709 75.1974 26.3702 75.259C26.3724 75.2594 26.3766 75.2625 26.3785 75.2652C26.5242 75.3559 26.673 75.4424 26.8196 75.5285C26.8687 75.5557 26.9155 75.5825 26.9642 75.612C27.0643 75.669 27.1644 75.726 27.2626 75.7803C27.3204 75.8113 27.3782 75.8423 27.4359 75.8733C27.5277 75.9241 27.6199 75.9727 27.7098 76.0209C27.7698 76.0523 27.8322 76.084 27.8922 76.1153C27.9825 76.1612 28.0705 76.2067 28.1612 76.2503C28.2235 76.282 28.2839 76.3111 28.3466 76.3405C28.4373 76.3841 28.5257 76.4273 28.6167 76.4685C28.6772 76.4975 28.7376 76.5266 28.7984 76.5533C28.8914 76.5972 28.9847 76.6389 29.078 76.6805C29.1343 76.7065 29.191 76.7301 29.2472 76.7561C29.3538 76.8023 29.4603 76.8485 29.5672 76.8924C29.6107 76.9115 29.6522 76.9279 29.6957 76.947C29.8442 77.0073 29.9904 77.0672 30.1393 77.1252C30.1785 77.1412 30.216 77.1545 30.2556 77.1682C30.3652 77.2102 30.4748 77.2521 30.5825 77.2914C30.6418 77.3131 30.6992 77.3321 30.7586 77.3539C30.8466 77.3851 30.9369 77.4167 31.025 77.448C31.0888 77.4705 31.1531 77.4906 31.2169 77.5131C31.2985 77.5409 31.3805 77.5664 31.4622 77.5942C31.5287 77.6147 31.5948 77.6376 31.6613 77.6581C31.7388 77.6829 31.8189 77.7057 31.8964 77.7304C31.9652 77.7513 32.0317 77.7718 32.1008 77.7904C32.1764 77.8125 32.252 77.8345 32.328 77.8543C32.3949 77.8725 32.4636 77.8934 32.5309 77.9093C32.6069 77.9291 32.6806 77.9484 32.7543 77.9678C32.8212 77.986 32.8907 78.0023 32.9576 78.0205C33.0291 78.0395 33.1031 78.0565 33.175 78.0732C33.3186 78.1065 33.4622 78.1399 33.604 78.1705C33.658 78.1818 33.7094 78.1951 33.7635 78.2065C33.8444 78.2246 33.9234 78.2401 34.0046 78.256C34.0591 78.265 34.1128 78.2786 34.1649 78.2873C34.2466 78.3008 34.3256 78.3163 34.4046 78.3318C34.4568 78.3405 34.5066 78.3487 34.5565 78.357C34.6382 78.3705 34.7176 78.3837 34.797 78.3969C34.8446 78.4048 34.8923 78.4127 34.9376 78.4202C35.0193 78.4337 35.1013 78.445 35.1811 78.4558C35.2242 78.463 35.2654 78.4674 35.3089 78.4723C35.3932 78.4839 35.4756 78.4928 35.5576 78.504C35.5917 78.5097 35.6265 78.5107 35.6605 78.5163C35.7497 78.5264 35.8389 78.5364 35.9263 78.5437C35.9422 78.5464 35.9562 78.5463 35.972 78.549C36.408 78.5903 36.8217 78.6114 37.21 78.6164C37.2146 78.6171 37.2169 78.6175 37.2214 78.6183C37.3122 78.619 37.4006 78.6195 37.4895 78.6176C37.5009 78.6194 37.5152 78.6171 37.527 78.6166C37.6109 78.6163 37.6953 78.6136 37.7773 78.6106C37.7913 78.6106 37.8031 78.6101 37.8171 78.6101C37.8991 78.607 37.9816 78.6017 38.0614 78.5983C38.0705 78.5998 38.0803 78.5967 38.0875 78.5955C38.1699 78.5901 38.2528 78.5825 38.333 78.5768C38.333 78.5768 39.2894 78.4168 39.2864 78.4211L67.4128 34.7545C67.4128 34.7545 63.4463 35.2592 61.3405 34.1421L61.3409 34.1398Z" fill="#006B4E"/>
<path d="M41.811 68.3298C41.811 68.3298 40.2624 79.6052 39.6109 80.8092L45.9539 71.1191L41.8106 68.3321L41.811 68.3298Z" fill="black"/>
<path d="M68.6119 36.4975C70.5911 34.2959 66.1586 27.0898 58.7163 20.4019C51.2741 13.714 43.6356 10.0744 41.6591 12.2741C39.6798 14.4757 44.1124 21.6818 51.5546 28.3697C58.9969 35.0576 66.6354 38.6972 68.6119 36.4975Z" fill="black"/>
<path d="M40.485 16.2667L3.96676 46.6172C3.96676 46.6172 29.0122 25.2568 35.5503 28.9459C35.5503 28.9459 33.9511 23.1884 40.4803 16.2659L40.485 16.2667Z" fill="white"/>
<path d="M82.4064 55.9075C82.4064 55.9075 48.4923 59.8034 48.3281 59.8318C46.5648 60.1338 44.4892 61.9256 43.0907 64.5594C41.2254 68.0703 41.2734 71.7438 43.1941 72.7655C43.6403 73.0038 44.1506 73.0739 44.6917 73.0018L44.6905 73.0089L44.7685 72.9904C44.8825 72.973 44.9997 72.9514 45.1161 72.9199C45.1666 72.9066 45.2203 72.8889 45.2712 72.8732L81.4394 64.3904C82.1439 64.2221 82.7313 63.7396 83.0286 63.0833L84.7917 59.1834C85.5393 57.5314 84.1992 55.7047 82.4037 55.9095L82.4064 55.9075Z" fill="#11B67A"/>
<path d="M81.5147 63.5744C81.2264 64.2056 80.6637 64.6704 79.9842 64.8332L45.1937 72.9936C45.1428 73.0093 45.0942 73.0254 45.0437 73.0388C44.93 73.0683 44.8203 73.0887 44.7086 73.1064L44.6307 73.1249L44.6318 73.1179C44.113 73.1865 43.6216 73.1195 43.193 72.8913C42.4936 72.5192 42.0525 71.784 41.8699 70.8307L81.5093 63.5783L81.5147 63.5744Z" fill="#006B4E"/>
<path d="M85.0335 57.5664C84.5593 57.0745 83.8682 56.7835 83.0923 56.8723C83.0923 56.8723 49.1782 60.7682 49.014 60.7966C47.2507 61.0986 45.1751 62.8904 43.7766 65.5242C43.7766 65.5242 45.4628 62.4524 52.641 61.8451C59.8191 61.2378 85.0335 57.5664 85.0335 57.5664Z" fill="#6CF479"/>
<path d="M83.4504 68.5396C87.5744 68.1362 90.5475 64.0358 90.0947 59.3793C89.6395 54.7225 85.9298 51.2729 81.8059 51.6763C77.682 52.0797 74.7088 56.1801 75.1617 60.8366C75.6169 65.4934 79.3289 68.9434 83.4528 68.54L83.4504 68.5396Z" fill="#6CF479"/>
<path d="M84.4721 71.7919C87.9066 71.2331 90.4006 65.3449 90.0429 58.6431C89.6852 51.9412 86.6135 46.9616 83.179 47.5205C79.7446 48.0793 77.2506 53.9675 77.6083 60.6693C77.966 67.3711 81.0373 72.3531 84.4721 71.7919Z" fill="#11B67A"/>
<path d="M85.4619 69.4389C87.9375 68.9651 89.7662 64.1602 89.547 58.7065C89.3279 53.2527 87.1434 49.2176 84.6678 49.6915C82.1923 50.1653 80.3636 54.9701 80.5828 60.4239C80.8019 65.8776 82.9864 69.9127 85.4619 69.4389Z" fill="#6CF479"/>
<path d="M87.7606 55.7525C87.7785 56.0962 87.6655 56.3988 87.5052 56.4326C87.345 56.4665 87.2009 56.213 87.183 55.8694C87.1651 55.5257 87.2781 55.2231 87.4384 55.1892C87.5986 55.1554 87.7427 55.4088 87.7606 55.7525Z" fill="black"/>
<path d="M86.6648 57.9713C86.6827 58.315 86.5697 58.6176 86.4094 58.6514C86.2491 58.6852 86.1051 58.4318 86.0872 58.0881C86.0693 57.7445 86.1823 57.4418 86.3426 57.408C86.5028 57.3742 86.6469 57.6276 86.6648 57.9713Z" fill="black"/>
<path d="M87.9842 58.335C88.0021 58.6787 87.8891 58.9814 87.7288 59.0152C87.5686 59.049 87.4245 58.7956 87.4066 58.4519C87.3887 58.1082 87.5017 57.8056 87.662 57.7718C87.8222 57.7379 87.9663 57.9914 87.9842 58.335Z" fill="black"/>
<path d="M87.1084 60.0916C87.1263 60.4353 87.0133 60.7379 86.8531 60.7717C86.6928 60.8055 86.5488 60.5521 86.5309 60.2084C86.513 59.8648 86.626 59.5621 86.7862 59.5283C86.9465 59.4945 87.0905 59.7479 87.1084 60.0916Z" fill="black"/>
<path d="M88.3565 60.6101C88.3744 60.9538 88.2614 61.2564 88.1011 61.2902C87.9409 61.3241 87.7968 61.0706 87.7789 60.7269C87.761 60.3833 87.874 60.0807 88.0343 60.0468C88.1945 60.013 88.3386 60.2664 88.3565 60.6101Z" fill="black"/>
<path d="M89.1631 58.9057C89.181 59.2493 89.068 59.552 88.9078 59.5858C88.7475 59.6196 88.6035 59.3662 88.5856 59.0225C88.5677 58.6789 88.6807 58.3762 88.8409 58.3424C89.0012 58.3086 89.1452 58.562 89.1631 58.9057Z" fill="black"/>
<path d="M88.8951 56.5283C88.913 56.8719 88.8 57.1746 88.6397 57.2084C88.4795 57.2422 88.3354 56.9888 88.3175 56.6451C88.2996 56.3015 88.4126 55.9988 88.5729 55.965C88.7332 55.9312 88.8772 56.1846 88.8951 56.5283Z" fill="black"/>
<path d="M86.602 55.4973C86.6199 55.8409 86.5069 56.1436 86.3466 56.1774C86.1863 56.2112 86.0423 55.9578 86.0244 55.6141C86.0065 55.2705 86.1195 54.9678 86.2798 54.934C86.44 54.9002 86.584 55.1536 86.602 55.4973Z" fill="black"/>
<path d="M87.4037 53.1096C87.4216 53.4532 87.3086 53.7559 87.1483 53.7897C86.9881 53.8235 86.8441 53.5701 86.8261 53.2264C86.8082 52.8827 86.9212 52.5801 87.0815 52.5463C87.2418 52.5125 87.3858 52.7659 87.4037 53.1096Z" fill="black"/>
<path d="M86.1779 53.0996C86.1958 53.4433 86.0828 53.7459 85.9225 53.7798C85.7623 53.8136 85.6183 53.5602 85.6003 53.2165C85.5824 52.8728 85.6954 52.5702 85.8557 52.5363C86.016 52.5025 86.16 52.756 86.1779 53.0996Z" fill="black"/>
<path d="M85.3871 56.8036C85.405 57.1473 85.292 57.4499 85.1317 57.4837C84.9714 57.5176 84.8274 57.2641 84.8095 56.9205C84.7916 56.5768 84.9046 56.2742 85.0649 56.2403C85.2251 56.2065 85.3691 56.4599 85.3871 56.8036Z" fill="black"/>
<path d="M88.4861 63.878C88.504 64.2216 88.391 64.5243 88.2307 64.5581C88.0705 64.5919 87.9265 64.3385 87.9086 63.9948C87.8906 63.6511 88.0037 63.3485 88.1639 63.3147C88.3242 63.2809 88.4682 63.5343 88.4861 63.878Z" fill="black"/>
<path d="M82.8929 53.992C82.9109 54.3356 82.7978 54.6383 82.6376 54.6721C82.4773 54.7059 82.3333 54.4525 82.3154 54.1088C82.2975 53.7651 82.4105 53.4625 82.5708 53.4287C82.731 53.3948 82.875 53.6483 82.8929 53.992Z" fill="black"/>
<path d="M86.2008 62.039C86.2187 62.3826 86.1057 62.6853 85.9454 62.7191C85.7851 62.7529 85.6411 62.4995 85.6232 62.1558C85.6053 61.8122 85.7183 61.5095 85.8786 61.4757C86.0388 61.4419 86.1829 61.6953 86.2008 62.039Z" fill="black"/>
<path d="M86.7726 64.1273C86.7905 64.4709 86.6775 64.7736 86.5172 64.8074C86.357 64.8412 86.2129 64.5878 86.195 64.2441C86.1771 63.9004 86.2901 63.5978 86.4504 63.564C86.6106 63.5302 86.7547 63.7836 86.7726 64.1273Z" fill="black"/>
<path d="M85.9433 67.1458C85.9612 67.4895 85.8482 67.7921 85.6879 67.826C85.5276 67.8598 85.3836 67.6064 85.3657 67.2627C85.3478 66.919 85.4608 66.6164 85.6211 66.5826C85.7813 66.5487 85.9253 66.8022 85.9433 67.1458Z" fill="black"/>
<path d="M84.6394 60.1036C84.6573 60.4473 84.5443 60.7499 84.3841 60.7838C84.2238 60.8176 84.0798 60.5642 84.0619 60.2205C84.044 59.8768 84.157 59.5742 84.3172 59.5404C84.4775 59.5065 84.6215 59.76 84.6394 60.1036Z" fill="black"/>
<path d="M83.2768 63.1022C83.2947 63.4459 83.1817 63.7485 83.0214 63.7823C82.8612 63.8162 82.7172 63.5627 82.6993 63.2191C82.6814 62.8754 82.7944 62.5728 82.9546 62.5389C83.1149 62.5051 83.2589 62.7585 83.2768 63.1022Z" fill="black"/>
<path d="M83.9013 66.4907C83.9193 66.8343 83.8062 67.137 83.646 67.1708C83.4857 67.2046 83.3417 66.9512 83.3238 66.6075C83.3059 66.2638 83.4189 65.9612 83.5791 65.9274C83.7394 65.8935 83.8834 66.147 83.9013 66.4907Z" fill="black"/>
<path d="M85.5081 64.0287C85.5261 64.3724 85.413 64.675 85.2528 64.7088C85.0925 64.7427 84.9485 64.4892 84.9306 64.1456C84.9127 63.8019 85.0257 63.4993 85.186 63.4654C85.3462 63.4316 85.4902 63.685 85.5081 64.0287Z" fill="black"/>
<path d="M96.1573 68.0348C96.0412 67.9044 95.9513 67.747 95.872 67.584C95.7354 67.3004 95.6266 66.9948 95.5186 66.699C95.4177 66.4189 95.3371 66.118 95.3165 65.8198C95.3125 65.7708 95.3003 65.6842 95.3403 65.6473C95.4006 65.5896 95.564 65.653 95.626 65.6729C95.8125 65.728 95.9929 65.8063 96.1705 65.8865C96.5096 66.0418 96.8601 66.2014 97.171 66.41C97.4906 66.6249 97.8102 66.9123 97.8473 67.3147C97.9066 67.9625 97.2828 68.4897 96.6552 68.3397C96.4483 68.2909 96.2879 68.1797 96.1597 68.0352L96.1573 68.0348Z" fill="#006A4D"/>
<path d="M90.289 71.2908C90.3018 71.1842 90.3339 71.0784 90.3773 70.9768C90.45 70.8004 90.5443 70.6252 90.6328 70.4562C90.7173 70.2962 90.821 70.1371 90.9491 70.0061C90.9694 69.9853 91.0031 69.9425 91.0388 69.946C91.0889 69.9495 91.1255 70.0498 91.1435 70.0866C91.1934 70.194 91.2326 70.3068 91.2696 70.4192C91.3375 70.6359 91.409 70.8604 91.4394 71.0853C91.4709 71.3177 91.4735 71.5791 91.3055 71.7614C91.0373 72.0528 90.5435 71.9854 90.3543 71.6399C90.2935 71.5259 90.2769 71.4072 90.2913 71.2912L90.289 71.2908Z" fill="#006A4D"/>
<path d="M96.1336 75.4039C95.8974 75.0941 95.7232 74.7318 95.5755 74.3545C95.3214 73.701 95.1296 73.0071 94.9394 72.3328C94.7598 71.6966 94.6339 71.0136 94.638 70.3474C94.6391 70.2388 94.6252 70.0456 94.7228 69.9676C94.8677 69.8514 95.2166 70.0205 95.353 70.0721C95.7576 70.2262 96.1441 70.4304 96.5229 70.6382C97.2513 71.0393 97.9994 71.4533 98.6531 71.9701C99.3236 72.5018 99.9845 73.1937 99.9997 74.0927C100.023 75.5391 98.5486 76.6066 97.1817 76.1649C96.7298 76.0199 96.3957 75.747 96.136 75.4043L96.1336 75.4039Z" fill="#006A4D"/>
<path d="M68.6119 36.4975C70.5911 34.2959 66.1586 27.0898 58.7163 20.4019C51.2741 13.714 43.6356 10.0744 41.6591 12.2741C39.6798 14.4757 44.1124 21.6818 51.5546 28.3697C58.9969 35.0576 66.6354 38.6972 68.6119 36.4975Z" fill="#6CF479"/>
<path d="M54.7398 19.2039C49.6275 14.6107 44.3851 12.1127 43.0257 13.6222C41.8668 14.9136 43.9143 18.7109 47.7211 22.6527" fill="black"/>
<path d="M41.811 68.3298C41.811 68.3298 41.875 70.8262 47.0084 69.8871L41.875 70.8262C41.875 70.8262 41.497 69.742 41.811 68.3298Z" fill="#006B4E"/>
<path d="M36.5614 94.1909C50.3538 94.1909 61.5347 92.7652 61.5347 91.0065C61.5347 89.2479 50.3538 87.8222 36.5614 87.8222C22.7691 87.8222 11.5882 89.2479 11.5882 91.0065C11.5882 92.7652 22.7691 94.1909 36.5614 94.1909Z" fill="black"/>
</svg>
