<svg width="100" height="100" viewBox="0 0 100 100" fill="none" xmlns="http://www.w3.org/2000/svg">
<g clip-path="url(#clip0_15980_11500)">
<rect width="100" height="100" fill="#C7FFC6"/>
<path d="M50.0465 59.593C43.6777 59.593 37.9104 62.1638 33.7441 66.3193L33.5494 70.5805H38.0254L50.0465 82.5453L62.0677 70.5805H66.5437L66.3491 66.3193C62.1739 62.1638 56.4065 59.593 50.0377 59.593H50.0465Z" fill="black"/>
<path d="M50.0464 44.1137C39.3785 44.1137 29.728 48.4189 22.7399 55.3741L22.4215 59.5121C22.4215 59.5121 23.4564 58.8518 25.2875 57.9097L27.9589 60.5686C33.1247 55.427 40.0773 52.0814 47.7996 51.5356C48.5426 51.4915 49.2945 51.4563 50.0552 51.4475C58.6709 51.4475 66.4904 54.9339 72.1516 60.5686L74.8673 57.8657C76.6718 58.8342 77.6801 59.5209 77.6801 59.5209L77.3617 55.383C70.3736 48.4277 60.7231 44.1225 50.0552 44.1225L50.0464 44.1137Z" fill="black"/>
<path d="M42.3773 20.8004C42.5984 20.774 42.8107 20.7388 43.0319 20.7212C43.3768 20.6772 43.7217 20.642 44.0579 20.6155C46.0216 20.4307 48.0207 20.325 50.0375 20.325C59.9446 20.325 69.3122 22.6405 77.6448 26.7344L79.2015 19.3478C78.202 18.8899 77.1936 18.4585 76.1764 18.0448L75.221 23.6266L73.045 23.2568L74.08 17.226C66.5877 14.4967 58.494 13 50.0464 13C30.7541 13 13.284 20.7828 0.6347 33.3727L0.0509117 37.2553L4.10217 36.8327L5.85364 38.5759C12.6825 31.7792 21.0946 26.5583 30.471 23.4681C34.5842 22.1651 38.5647 21.3023 42.386 20.8092L42.3773 20.8004Z" fill="black"/>
<path d="M50.0465 28.5585C35.062 28.5585 21.5017 34.5981 11.683 44.3707L11.2319 48.3765C11.2319 48.3765 12.2846 47.7514 14.1333 46.8094L16.902 49.5651C20.5906 45.8938 24.8985 42.83 29.6397 40.5321C36.1147 38.56 43.7042 37.0545 51.3911 37.3098C58.3615 37.5387 64.9249 38.9033 70.5596 40.5937C75.2566 42.8828 79.5201 45.9202 83.1822 49.5651L85.9686 46.7918C87.8174 47.7514 88.8523 48.3765 88.8523 48.3765L88.4012 44.3707C78.5825 34.5981 65.0222 28.5585 50.0377 28.5585H50.0465Z" fill="black"/>
<path d="M99.4582 33.3635C94.9204 28.847 89.7546 24.9644 84.1111 21.8213L82.5277 29.3488L82.4392 29.3312C86.7382 31.9372 90.701 35.0363 94.2393 38.5579L95.1327 37.6687L100.033 37.2461L99.4494 33.3635H99.4582Z" fill="black"/>
<path d="M0.0509117 37.2455L5.33173 42.5016C16.7868 31.1003 32.6028 24.0394 50.0375 24.0394C67.4723 24.0394 83.2883 31.1003 94.7434 42.5016L100.024 37.2455C87.2334 24.5148 69.551 16.6351 50.0287 16.6351C30.5064 16.6351 12.8328 24.5148 0.0332031 37.2455H0.0509117Z" fill="#11B67A"/>
<path d="M22.4126 59.5048L27.6845 64.752C33.4077 59.0558 41.3157 55.5253 50.0375 55.5253C58.7593 55.5253 66.6673 59.0558 72.3904 64.752L77.6624 59.5048C70.5947 52.4703 60.8203 48.1123 50.0375 48.1123C39.2546 48.1123 29.4802 52.4615 22.4126 59.5048ZM33.5403 70.5804L50.0375 87L66.5346 70.5804C62.3152 66.3808 56.4771 63.7748 50.0375 63.7748C43.5979 63.7748 37.7597 66.372 33.5403 70.5804ZM50.0463 32.3793C34.8938 32.3793 21.1653 38.4894 11.2405 48.3764L16.5214 53.6325C25.1105 45.0837 36.9725 39.7836 50.0552 39.7836C63.1379 39.7836 74.9999 45.0837 83.589 53.6325L88.8698 48.3764C78.9362 38.4894 65.2166 32.3793 50.064 32.3793H50.0463Z" fill="#6CF479"/>
<path d="M8.95852 63.6924C8.95852 63.6924 11.2938 71.4048 20.7763 73.5354C20.7763 73.5354 13.5936 74.7679 13.4521 83.3519C13.4521 83.3519 10.9222 75.9125 1.83775 73.5266C1.83775 73.5266 9.42734 72.6285 8.95852 63.6924Z" fill="#006A4D"/>
</g>
<defs>
<clipPath id="clip0_15980_11500">
<rect width="100" height="100" fill="white"/>
</clipPath>
</defs>
</svg>
