<svg width="100" height="100" viewBox="0 0 100 100" fill="none" xmlns="http://www.w3.org/2000/svg">
<g clip-path="url(#clip0_15980_11502)">
<rect width="100" height="100" fill="#C7FFC6"/>
<path d="M50.0475 59.593C43.6787 59.593 37.9114 62.1638 33.7451 66.3193L33.5504 70.5805H38.0263L50.0475 82.5453L62.0687 70.5805H66.5446L66.3501 66.3193C62.1749 62.1638 56.4075 59.593 50.0387 59.593H50.0475Z" fill="black"/>
<path d="M50.0474 44.1137C39.3795 44.1137 29.7289 48.4189 22.7409 55.3741L22.4225 59.5121C22.4225 59.5121 23.4574 58.8518 25.2884 57.9097L27.9598 60.5686C33.1257 55.427 40.0783 52.0814 47.8005 51.5356C48.5436 51.4915 49.2955 51.4563 50.0562 51.4475C58.6719 51.4475 66.4914 54.9339 72.1526 60.5686L74.8682 57.8657C76.6728 58.8342 77.6811 59.5209 77.6811 59.5209L77.3627 55.383C70.3746 48.4277 60.724 44.1225 50.0562 44.1225L50.0474 44.1137Z" fill="black"/>
<path d="M42.3783 20.8004C42.5994 20.774 42.8117 20.7388 43.0328 20.7212C43.3778 20.6772 43.7227 20.642 44.0588 20.6155C46.0226 20.4307 48.0217 20.325 50.0385 20.325C59.9456 20.325 69.3132 22.6405 77.6458 26.7344L79.2025 19.3478C78.203 18.8899 77.1946 18.4585 76.1774 18.0448L75.222 23.6266L73.046 23.2568L74.081 17.226C66.5887 14.4967 58.4949 13 50.0474 13C30.755 13 13.2849 20.7828 0.635676 33.3727L0.0518882 37.2553L4.10315 36.8327L5.85462 38.5759C12.6834 31.7792 21.0956 26.5583 30.472 23.4681C34.5852 22.1651 38.5657 21.3023 42.387 20.8092L42.3783 20.8004Z" fill="black"/>
<path d="M50.0475 28.5585C35.063 28.5585 21.5027 34.5981 11.684 44.3707L11.2329 48.3765C11.2329 48.3765 12.2855 47.7514 14.1343 46.8094L16.903 49.5651C20.5916 45.8938 24.8994 42.83 29.6407 40.5321C36.1157 38.56 43.7052 37.0545 51.3921 37.3098C58.3624 37.5387 64.9259 38.9033 70.5606 40.5937C75.2576 42.8828 79.5211 45.9202 83.1832 49.5651L85.9696 46.7918C87.8183 47.7514 88.8533 48.3765 88.8533 48.3765L88.4022 44.3707C78.5835 34.5981 65.0232 28.5585 50.0387 28.5585H50.0475Z" fill="black"/>
<path d="M99.4592 33.3635C94.9214 28.847 89.7556 24.9644 84.112 21.8213L82.5286 29.3488L82.4402 29.3312C86.7392 31.9372 90.702 35.0363 94.2402 38.5579L95.1337 37.6687L100.034 37.2461L99.4503 33.3635H99.4592Z" fill="black"/>
<path d="M0.0518882 37.2455L5.3327 42.5016C16.7878 31.1003 32.6038 24.0394 50.0385 24.0394C67.4732 24.0394 83.2893 31.1003 94.7443 42.5016L100.025 37.2455C87.2344 24.5148 69.5519 16.6351 50.0296 16.6351C30.5073 16.6351 12.8338 24.5148 0.0341797 37.2455H0.0518882Z" fill="#11B67A"/>
<path d="M22.4136 59.5048L27.6855 64.752C33.4086 59.0558 41.3167 55.5253 50.0384 55.5253C58.7602 55.5253 66.6683 59.0558 72.3914 64.752L77.6633 59.5048C70.5957 52.4703 60.8213 48.1123 50.0384 48.1123C39.2556 48.1123 29.4812 52.4615 22.4136 59.5048ZM33.5413 70.5804L50.0384 87L66.5356 70.5804C62.3162 66.3808 56.4781 63.7748 50.0384 63.7748C43.5988 63.7748 37.7607 66.372 33.5413 70.5804ZM50.0473 32.3793C34.8947 32.3793 21.1663 38.4894 11.2415 48.3764L16.5224 53.6325C25.1115 45.0837 36.9735 39.7836 50.0562 39.7836C63.1388 39.7836 75.0009 45.0837 83.59 53.6325L88.8708 48.3764C78.9371 38.4894 65.2176 32.3793 50.065 32.3793H50.0473Z" fill="#6CF479"/>
<path d="M8.9595 63.6924C8.9595 63.6924 11.2947 71.4048 20.7772 73.5354C20.7772 73.5354 13.5946 74.7679 13.453 83.3519C13.453 83.3519 10.9232 75.9125 1.83872 73.5266C1.83872 73.5266 9.42832 72.6285 8.9595 63.6924Z" fill="#006A4D"/>
</g>
<defs>
<clipPath id="clip0_15980_11502">
<rect width="100" height="100" fill="white"/>
</clipPath>
</defs>
</svg>
