<svg width="24" height="24" viewBox="0 0 24 24" fill="none" xmlns="http://www.w3.org/2000/svg">
<path d="M20.4956 1.22144V0.803072C20.4956 0.396311 20.1935 0.0243419 19.7751 0.00109849C19.3335 -0.022145 18.9732 0.326535 18.9732 0.756539V1.22144C18.9732 1.60495 18.6594 1.91871 18.2759 1.91871H5.73603C5.35252 1.91871 5.03873 1.60495 5.03873 1.22144V0.803072C5.03873 0.396311 4.73657 0.0243419 4.31818 0.00109849C3.87656 -0.022145 3.51628 0.326535 3.51628 0.756539V1.22144C3.51628 1.60495 3.2025 1.91871 2.81898 1.91871H0.378418V22.2567C0.378418 23.2213 1.15707 24 2.12168 24H21.8786C22.8432 24 23.6219 23.2213 23.6219 22.2567V1.91871H21.1813C20.7978 1.91871 20.484 1.60495 20.484 1.22144H20.4956ZM22.1227 3.42959V6.5674H1.90086V3.42959H22.1227ZM1.90086 22.4891V8.07829H22.1227V22.4891H1.90086Z" fill="black"/>
<path d="M5.03873 12.3783C5.68058 12.3783 6.2009 11.858 6.2009 11.2161C6.2009 10.5743 5.68058 10.054 5.03873 10.054C4.39688 10.054 3.87656 10.5743 3.87656 11.2161C3.87656 11.858 4.39688 12.3783 5.03873 12.3783Z" fill="black"/>
<path d="M9.68742 12.3783C10.3293 12.3783 10.8496 11.858 10.8496 11.2161C10.8496 10.5743 10.3293 10.054 9.68742 10.054C9.04557 10.054 8.52525 10.5743 8.52525 11.2161C8.52525 11.858 9.04557 12.3783 9.68742 12.3783Z" fill="black"/>
<path d="M14.3361 12.3783C14.978 12.3783 15.4983 11.858 15.4983 11.2161C15.4983 10.5743 14.978 10.054 14.3361 10.054C13.6943 10.054 13.1739 10.5743 13.1739 11.2161C13.1739 11.858 13.6943 12.3783 14.3361 12.3783Z" fill="black"/>
<path d="M18.9848 12.3783C19.6267 12.3783 20.147 11.858 20.147 11.2161C20.147 10.5743 19.6267 10.054 18.9848 10.054C18.343 10.054 17.8226 10.5743 17.8226 11.2161C17.8226 11.858 18.343 12.3783 18.9848 12.3783Z" fill="black"/>
<path d="M5.03873 16.4459C5.68058 16.4459 6.2009 15.9256 6.2009 15.2837C6.2009 14.6419 5.68058 14.1216 5.03873 14.1216C4.39688 14.1216 3.87656 14.6419 3.87656 15.2837C3.87656 15.9256 4.39688 16.4459 5.03873 16.4459Z" fill="black"/>
<path d="M9.68742 16.4459C10.3293 16.4459 10.8496 15.9256 10.8496 15.2837C10.8496 14.6419 10.3293 14.1216 9.68742 14.1216C9.04557 14.1216 8.52525 14.6419 8.52525 15.2837C8.52525 15.9256 9.04557 16.4459 9.68742 16.4459Z" fill="black"/>
<path d="M14.3361 16.4459C14.978 16.4459 15.4983 15.9256 15.4983 15.2837C15.4983 14.6419 14.978 14.1216 14.3361 14.1216C13.6943 14.1216 13.1739 14.6419 13.1739 15.2837C13.1739 15.9256 13.6943 16.4459 14.3361 16.4459Z" fill="black"/>
<path d="M18.9848 16.4459C19.6267 16.4459 20.147 15.9256 20.147 15.2837C20.147 14.6419 19.6267 14.1216 18.9848 14.1216C18.343 14.1216 17.8226 14.6419 17.8226 15.2837C17.8226 15.9256 18.343 16.4459 18.9848 16.4459Z" fill="black"/>
<path d="M5.03873 20.5135C5.68058 20.5135 6.2009 19.9932 6.2009 19.3513C6.2009 18.7095 5.68058 18.1892 5.03873 18.1892C4.39688 18.1892 3.87656 18.7095 3.87656 19.3513C3.87656 19.9932 4.39688 20.5135 5.03873 20.5135Z" fill="black"/>
<path d="M9.68742 20.5135C10.3293 20.5135 10.8496 19.9932 10.8496 19.3513C10.8496 18.7095 10.3293 18.1892 9.68742 18.1892C9.04557 18.1892 8.52525 18.7095 8.52525 19.3513C8.52525 19.9932 9.04557 20.5135 9.68742 20.5135Z" fill="black"/>
<path d="M14.3361 20.5135C14.978 20.5135 15.4983 19.9932 15.4983 19.3513C15.4983 18.7095 14.978 18.1892 14.3361 18.1892C13.6943 18.1892 13.1739 18.7095 13.1739 19.3513C13.1739 19.9932 13.6943 20.5135 14.3361 20.5135Z" fill="black"/>
</svg>
