<svg width="24" height="24" viewBox="0 0 24 24" fill="none" xmlns="http://www.w3.org/2000/svg">
<path d="M12 0C5.36727 0 0 5.36727 0 12C0 18.6327 5.36727 24 12 24C18.6327 24 24 18.6327 24 12C24 5.36727 18.6327 0 12 0ZM12 22.5818C6.16364 22.5818 1.41818 17.8364 1.41818 12C1.41818 6.16364 6.16364 1.41817 12 1.41817C17.8364 1.41817 22.5818 6.16364 22.5818 12C22.5818 17.8364 17.8364 22.5818 12 22.5818Z" fill="black"/>
<path d="M13.7564 14.76L17.2473 18.2509L18.2509 17.2473L14.76 13.7563C14.4982 14.16 14.16 14.4982 13.7564 14.76Z" fill="black"/>
<path d="M12.7091 10.5273V3.08729H11.2909V10.5273C10.7455 10.7891 10.3636 11.3455 10.3636 12C10.3636 12.9055 11.0945 13.6364 12 13.6364C12.9055 13.6364 13.6364 12.9055 13.6364 12C13.6364 11.3564 13.2545 10.8 12.7091 10.5273Z" fill="black"/>
</svg>
