<svg width="24" height="24" viewBox="0 0 24 24" fill="none" xmlns="http://www.w3.org/2000/svg">
<path d="M20.2243 12.688V11.3014H15.4032C15.4566 11.5253 15.4886 11.76 15.4886 11.9947C15.4886 12.2293 15.4566 12.464 15.4032 12.688H20.2243Z" fill="black"/>
<path d="M11.5848 3.29128V10.5654C11.0515 10.8214 10.6782 11.3654 10.6782 12.0053C10.6782 12.8906 11.3928 13.6052 12.2781 13.6052C13.1634 13.6052 13.878 12.8906 13.878 12.0053C13.878 11.376 13.5047 10.832 12.9714 10.5654V3.29128H11.5848Z" fill="black"/>
<path d="M12.2781 0.262115C7.85175 0.262115 4.012 2.7153 2.01747 6.34172L1.36685 3.90985C1.27085 3.53655 0.886878 3.32327 0.513569 3.41926C0.140261 3.51525 -0.0730584 3.89922 0.0229352 4.27252L1.30285 9.06153L6.09186 7.7816C6.46517 7.68561 6.67849 7.30165 6.5825 6.92834C6.4865 6.55503 6.10253 6.34169 5.72922 6.43768L3.15873 7.13099C4.90794 3.87788 8.33171 1.65935 12.2675 1.65935C17.9737 1.65935 22.6134 6.29906 22.6134 12.0053C22.6134 17.7116 17.9737 22.3513 12.2675 22.3513C6.56116 22.3513 1.92148 17.7116 1.92148 12.0053H0.534901C0.534901 18.4902 5.78255 23.7379 12.2675 23.7379C18.7523 23.7379 24 18.4902 24 12.0053C24 5.52044 18.7523 0.272792 12.2675 0.272792L12.2781 0.262115Z" fill="black"/>
</svg>
