<svg width="24" height="24" viewBox="0 0 24 24" fill="none" xmlns="http://www.w3.org/2000/svg">
<path d="M11.8813 22.5983C6.11313 22.5983 1.4231 17.9084 1.4231 12.1402C1.4231 7.75203 4.14008 3.98924 7.97835 2.44746L7.51474 1.12134C3.1266 2.85718 0.0214844 7.13747 0.0214844 12.1402C0.0214844 18.6954 5.32606 24 11.8813 24C17.6926 24 22.5228 19.8167 23.5363 14.2965H22.1131C21.1212 19.0297 16.9056 22.5983 11.8813 22.5983Z" fill="black"/>
<path d="M11.8705 2.15633C12.466 2.15633 12.9487 1.67362 12.9487 1.07817C12.9487 0.482712 12.466 0 11.8705 0C11.2751 0 10.7924 0.482712 10.7924 1.07817C10.7924 1.67362 11.2751 2.15633 11.8705 2.15633Z" fill="black"/>
<path d="M16.2587 3.11592C16.8541 3.11592 17.3368 2.63321 17.3368 2.03775C17.3368 1.4423 16.8541 0.959584 16.2587 0.959584C15.6632 0.959584 15.1805 1.4423 15.1805 2.03775C15.1805 2.63321 15.6632 3.11592 16.2587 3.11592Z" fill="black"/>
<path d="M19.6333 5.434C20.2288 5.434 20.7115 4.95129 20.7115 4.35583C20.7115 3.76038 20.2288 3.27767 19.6333 3.27767C19.0379 3.27767 18.5552 3.76038 18.5552 4.35583C18.5552 4.95129 19.0379 5.434 19.6333 5.434Z" fill="black"/>
<path d="M22.9002 12.7655C23.4956 12.7655 23.9783 12.2828 23.9783 11.6874C23.9783 11.0919 23.4956 10.6092 22.9002 10.6092C22.3047 10.6092 21.822 11.0919 21.822 11.6874C21.822 12.2828 22.3047 12.7655 22.9002 12.7655Z" fill="black"/>
<path d="M21.9083 8.74392C22.5037 8.74392 22.9864 8.2612 22.9864 7.66575C22.9864 7.07029 22.5037 6.58758 21.9083 6.58758C21.3128 6.58758 20.8301 7.07029 20.8301 7.66575C20.8301 8.2612 21.3128 8.74392 21.9083 8.74392Z" fill="black"/>
<path d="M19.9137 12.841V11.4393H15.0403C15.0943 11.6657 15.1266 11.903 15.1266 12.1402C15.1266 12.3774 15.0943 12.6146 15.0403 12.841H19.9137Z" fill="black"/>
<path d="M11.8813 13.7574C12.7762 13.7574 13.4986 13.035 13.4986 12.1402C13.4986 11.504 13.1212 10.9542 12.5821 10.6847V4.593H11.1805V10.6847C10.6414 10.9434 10.2641 11.4933 10.2641 12.1402C10.2641 13.035 10.9864 13.7574 11.8813 13.7574Z" fill="black"/>
</svg>
