<svg width="24" height="24" viewBox="0 0 24 24" fill="none" xmlns="http://www.w3.org/2000/svg">
<path d="M5.72965 13.4044C2.84288 13.4044 0.5 15.7778 0.5 18.7022C0.5 21.6266 2.84288 24 5.72965 24C8.61642 24 10.9593 21.6266 10.9593 18.7022C10.9593 15.7778 8.61642 13.4044 5.72965 13.4044ZM5.72965 19.9419L2.70691 20.8954C3.09391 19.963 3.5332 19.0412 4.0457 18.1406C4.55821 17.24 5.12301 16.4029 5.72965 15.5977C6.32583 16.4029 6.90109 17.2506 7.4136 18.1406C7.9261 19.0412 8.36539 19.963 8.75239 20.8954L5.72965 19.9419Z" fill="black"/>
<path d="M6.77558 11.2853C7.35323 11.2853 7.82151 10.811 7.82151 10.2258C7.82151 9.6406 7.35323 9.16622 6.77558 9.16622C6.19793 9.16622 5.72965 9.6406 5.72965 10.2258C5.72965 10.811 6.19793 11.2853 6.77558 11.2853Z" fill="black"/>
<path d="M10.9593 11.2853C11.537 11.2853 12.0052 10.811 12.0052 10.2258C12.0052 9.6406 11.537 9.16622 10.9593 9.16622C10.3816 9.16622 9.91337 9.6406 9.91337 10.2258C9.91337 10.811 10.3816 11.2853 10.9593 11.2853Z" fill="black"/>
<path d="M15.143 11.2853C15.7207 11.2853 16.1889 10.811 16.1889 10.2258C16.1889 9.6406 15.7207 9.16622 15.143 9.16622C14.5654 9.16622 14.0971 9.6406 14.0971 10.2258C14.0971 10.811 14.5654 11.2853 15.143 11.2853Z" fill="black"/>
<path d="M19.3267 11.2853C19.9044 11.2853 20.3727 10.811 20.3727 10.2258C20.3727 9.6406 19.9044 9.16622 19.3267 9.16622C18.7491 9.16622 18.2808 9.6406 18.2808 10.2258C18.2808 10.811 18.7491 11.2853 19.3267 11.2853Z" fill="black"/>
<path d="M15.143 14.9938C15.7207 14.9938 16.1889 14.5194 16.1889 13.9342C16.1889 13.349 15.7207 12.8747 15.143 12.8747C14.5654 12.8747 14.0971 13.349 14.0971 13.9342C14.0971 14.5194 14.5654 14.9938 15.143 14.9938Z" fill="black"/>
<path d="M19.3267 14.9938C19.9044 14.9938 20.3727 14.5194 20.3727 13.9342C20.3727 13.349 19.9044 12.8747 19.3267 12.8747C18.7491 12.8747 18.2808 13.349 18.2808 13.9342C18.2808 14.5194 18.7491 14.9938 19.3267 14.9938Z" fill="black"/>
<path d="M15.143 18.7022C15.7207 18.7022 16.1889 18.2278 16.1889 17.6427C16.1889 17.0575 15.7207 16.5831 15.143 16.5831C14.5654 16.5831 14.0971 17.0575 14.0971 17.6427C14.0971 18.2278 14.5654 18.7022 15.143 18.7022Z" fill="black"/>
<path d="M21.314 1.74929C20.9688 1.74929 20.6864 1.46324 20.6864 1.11359V0.732162C20.6864 0.361318 20.4145 0.0221926 20.038 0.00100149C19.6405 -0.0201896 19.3163 0.297703 19.3163 0.689739V1.11359C19.3163 1.46324 19.0339 1.74929 18.6887 1.74929H7.40314C7.05798 1.74929 6.77558 1.46324 6.77558 1.11359V0.732162C6.77558 0.361318 6.50364 0.0221926 6.1271 0.00100149C5.72965 -0.0201896 5.40541 0.297703 5.40541 0.689739V1.11359C5.40541 1.46324 5.12301 1.74929 4.77785 1.74929H2.5814V12.5991C3.01023 12.3766 3.47044 12.1965 3.94111 12.0588V7.36499H22.1403V20.5034H12.2772C12.1517 20.9802 11.9739 21.4464 11.7437 21.8809H21.9311C22.7992 21.8809 23.5 21.171 23.5 20.2915V1.74929H21.3035H21.314ZM22.1508 5.98752H3.95157V3.12677H22.1508V5.98752Z" fill="black"/>
<path d="M10.9593 12.8747C10.5723 12.8747 10.2481 13.0972 10.0703 13.4044C10.5723 13.8283 11.0221 14.3369 11.3881 14.8878C11.7542 14.7183 12.0052 14.358 12.0052 13.9236C12.0052 13.3409 11.5346 12.8641 10.9593 12.8641V12.8747Z" fill="black"/>
</svg>
