<svg width="24" height="24" viewBox="0 0 24 24" fill="none" xmlns="http://www.w3.org/2000/svg">
<path d="M20.674 6.9078L21.227 6.35479C21.634 5.94784 21.634 5.29041 21.227 4.88346L20.4862 4.14263C20.0792 3.73567 19.4218 3.73567 19.0149 4.14263L18.4305 4.72697C18.2218 4.93567 17.8983 4.96693 17.6479 4.81041C16.2914 3.93389 14.7262 3.34954 13.0357 3.18259V1.98263C13.0357 1.63828 13.3175 1.35651 13.6618 1.35651H14.7053C14.9349 1.35651 15.1227 1.16872 15.1227 0.939153V0.417416C15.1227 0.187851 14.9349 0 14.7053 0H9.27923C9.04967 0 8.86184 0.187851 8.86184 0.417416V0.939153C8.86184 1.16872 9.04967 1.35651 9.27923 1.35651H10.3227C10.6671 1.35651 10.9488 1.63828 10.9488 1.98263V3.18259C5.56446 3.71476 1.39056 8.33738 1.56795 13.8991C1.74534 19.4817 6.37837 23.9791 11.961 23.9999C17.5436 24.0208 22.4375 19.346 22.4375 13.5652C22.4375 11.3843 21.7592 9.3704 20.6114 7.69041C20.4444 7.43997 20.4757 7.10605 20.6844 6.89736L20.674 6.9078ZM11.9818 22.6538C6.97315 22.6538 2.9036 18.5843 2.9036 13.5756C2.9036 8.56694 6.97315 4.49738 11.9818 4.49738C16.9905 4.49738 21.0601 8.56694 21.0601 13.5756C21.0601 18.5843 16.9905 22.6538 11.9818 22.6538Z" fill="black"/>
<path d="M12.6601 12.167V6.09392H11.3036V12.167C10.7818 12.4174 10.4166 12.9495 10.4166 13.5756C10.4166 14.4417 11.1158 15.1408 11.9818 15.1408C12.8479 15.1408 13.547 14.4417 13.547 13.5756C13.547 12.96 13.1818 12.4278 12.6601 12.167Z" fill="black"/>
</svg>
