<svg width="24" height="24" viewBox="0 0 24 24" fill="none" xmlns="http://www.w3.org/2000/svg">
<path d="M0 17.5V19.5C0 20.6 0.9 21.5 2 21.5H22C23.1 21.5 24 20.6 24 19.5V17.5H0ZM22.7 19.5C22.7 19.89 22.39 20.2 22 20.2H2C1.61 20.2 1.3 19.89 1.3 19.5V18.8H22.7V19.5Z" fill="black"/>
<path d="M3.3 6.79999H20.7V16H22V4.5C22 3.4 21.1 2.5 20 2.5H4C2.9 2.5 2 3.4 2 4.5V16H3.3V6.79999ZM3.3 4.5C3.3 4.11 3.61 3.79999 4 3.79999H20C20.39 3.79999 20.7 4.11 20.7 4.5V5.5H3.3V4.5Z" fill="black"/>
<path d="M11 8.34V13.77L12.52 13.05L13.76 15.67L14.94 15.12L13.69 12.5L15.21 11.78L11 8.34Z" fill="black"/>
</svg>
