<svg width="24" height="24" viewBox="0 0 24 24" fill="none" xmlns="http://www.w3.org/2000/svg">
<path d="M17.2175 0H6.78276C5.63493 0 4.6958 0.93913 4.6958 2.08696V21.913C4.6958 23.0609 5.63493 24 6.78276 24H17.2175C18.3654 24 19.3045 23.0609 19.3045 21.913V2.08696C19.3045 0.93913 18.3654 0 17.2175 0ZM17.948 21.913C17.948 22.32 17.6141 22.6435 17.2175 22.6435H6.78276C6.3758 22.6435 6.05232 22.3096 6.05232 21.913V2.08696C6.05232 1.68 6.38624 1.35651 6.78276 1.35651H17.2175C17.6245 1.35651 17.948 1.69043 17.948 2.08696V21.913Z" fill="black"/>
<path d="M14.4523 2.8174H9.54797C9.17338 2.8174 8.86971 3.12103 8.86971 3.49563C8.86971 3.87022 9.17338 4.17391 9.54797 4.17391H14.4523C14.8269 4.17391 15.1306 3.87022 15.1306 3.49563C15.1306 3.12103 14.8269 2.8174 14.4523 2.8174Z" fill="black"/>
<path d="M12.0001 21.3913C12.5764 21.3913 13.0436 20.9241 13.0436 20.3478C13.0436 19.7715 12.5764 19.3043 12.0001 19.3043C11.4239 19.3043 10.9567 19.7715 10.9567 20.3478C10.9567 20.9241 11.4239 21.3913 12.0001 21.3913Z" fill="black"/>
</svg>
