<svg width="100" height="100" viewBox="0 0 100 100" fill="none" xmlns="http://www.w3.org/2000/svg">
<rect width="100" height="100" fill="#11B67A"/>
<path d="M31.1294 47.2787C29.9271 46.2742 28.6363 45.5007 27.2925 44.9407L26.2139 45.1452C24.2601 45.5185 22.4212 44.0695 22.3239 42.0692L22.3063 41.6781H22.2886L21.6432 28.4143C21.5283 26.6008 20.3613 26.1652 20.0518 26.0763C20.0253 26.0763 19.9988 26.0674 19.9722 26.0585L0.752156 20.2534C0.363156 20.1645 0.0537274 19.9422 0.0360456 19.6755H0.00949705L0.62837 34.8951C0.743302 37.082 2.17555 38.9844 4.24432 39.6778L18.151 44.3629C8.10777 47.0387 0.106788 59.938 0.106788 73.8062C0.106788 82.225 2.96239 89.4347 7.94865 93.5863C10.6628 95.8443 13.7748 97 17.0725 97C17.9919 97 18.929 96.9111 19.875 96.7333C30.4133 94.7153 38.9802 81.3982 38.9802 67.041C38.9802 58.6223 36.1246 51.4126 31.1383 47.261L31.1294 47.2787ZM19.2031 93.2574C15.9408 93.8797 12.82 93.0529 10.1942 90.866C6.08321 87.4434 3.63429 81.0782 3.63429 73.824C3.63429 61.0936 10.9192 49.3412 19.8662 47.6254C20.5734 47.4921 21.2719 47.421 21.9703 47.421C24.4634 47.421 26.8239 48.3011 28.8839 50.0168C32.9949 53.4394 35.4438 59.8046 35.4438 67.0588C35.4438 79.7891 28.1589 91.5416 19.2119 93.2574H19.2031Z" fill="black"/>
<path d="M42.4016 44.1484C45.8584 48.7178 49.9429 53.4295 55.4685 53.4295C55.6541 53.4295 55.8486 53.4294 56.0431 53.4117L54.9291 57.5899L58.7838 56.8521L65.052 33.276C65.052 33.276 62.214 32.6181 60.1806 37.8276L57.0333 49.6779C53.3201 50.5491 50.0755 48.4333 45.213 41.997C40.7572 36.1119 33.9851 24.9728 33.9144 24.8662C33.4016 24.0305 32.3142 23.7638 31.4831 24.2794C30.6521 24.795 30.3868 25.8885 30.8996 26.7241C31.1825 27.1864 37.8397 38.121 42.4016 44.1572V44.1484Z" fill="#006A4D"/>
<path d="M50.6678 59.4311C43.1531 50.6123 32.8446 34.966 32.7208 34.7793C32.1815 33.9614 31.0853 33.7392 30.2719 34.2726C29.4585 34.8149 29.2375 35.9172 29.768 36.7351C30.2719 37.5085 41.0666 53.8748 48.7759 62.6581C49.2002 61.3868 49.8545 60.2667 50.659 59.4222L50.6678 59.4311Z" fill="#006A4D"/>
<path d="M78.4105 84.8571C75.1571 84.8571 72.0893 83.7192 69.4193 81.4967C64.5038 77.4073 61.6924 70.3043 61.6924 62.01C61.6924 47.8662 70.1354 34.7447 80.5235 32.7533C84.7936 31.9355 88.8605 33.0022 92.2731 35.847C97.1886 39.9364 100 47.0394 100 55.3337C100 69.4775 91.557 82.5991 81.1689 84.5904C80.2406 84.7682 79.3123 84.8571 78.4105 84.8571ZM83.2377 35.9981C82.5569 35.9981 81.8673 36.0604 81.1689 36.2026C72.3457 37.8917 65.1757 49.4753 65.1757 62.0189C65.1757 69.1664 67.5893 75.4427 71.6384 78.8031C74.2288 80.9633 77.2966 81.7723 80.5146 81.1589C89.3379 79.4698 96.5078 67.8863 96.5078 55.3426C96.5078 48.1951 94.0943 41.9188 90.0452 38.5584C88.0117 36.8693 85.6954 36.007 83.2377 36.007V35.9981Z" fill="black"/>
<path d="M62.877 13.8702C62.7002 12.8123 61.6658 12.1722 60.6756 12.4389L51.5784 14.9103C50.6677 15.0614 42.4192 16.2615 32.6058 13.3368C28.5567 12.1277 26.5409 10.8031 25.5331 9.82523C25.0468 9.35406 25.2679 8.53621 25.9133 8.34953L32.208 6.50931C33.1009 6.2515 33.7197 5.3714 33.5518 4.45574C33.3573 3.40673 32.3141 2.78444 31.3151 3.06891L23.6854 5.29139C22.2355 5.71811 21.1657 7.02492 21.1215 8.66955C21.1038 9.2474 21.263 9.82524 21.5282 10.3409C22.819 12.9012 26.0194 14.9992 31.041 16.5727C31.8455 16.8305 32.3318 17.6572 32.1549 18.4929L25.6304 48.8786C25.6127 49.012 23.3671 62.2669 19.6893 68.4276C19.2649 69.1299 19.3533 70.0633 19.9457 70.6323C20.3082 70.979 20.7502 71.1479 21.1922 71.1479C21.7934 71.1479 22.3769 70.8367 22.704 70.2856C26.7443 63.5559 29.0253 50.0343 29.1048 49.5454L35.6117 19.4975C35.8151 18.5729 36.6992 17.9684 37.6186 18.1195C40.8279 18.6529 43.7188 18.8218 46.0705 18.8218C49.4212 18.8218 51.6668 18.4929 52.1353 18.4129C52.2591 18.3951 52.3652 18.3685 52.4801 18.3418L61.489 15.8971C62.3819 15.657 63.0273 14.7858 62.877 13.8613V13.8702Z" fill="#006A4D"/>
<path d="M50.7207 66.9244C50.7207 63.084 52.9574 59.5369 55.7246 59.0124L81.2306 54.1229C81.6107 54.0518 81.9644 54.0874 82.3004 54.1852V54.1496L79.9045 53.3851C79.1618 53.145 78.375 53.1006 77.6147 53.2428L53.2757 57.91C50.5085 58.4434 48.2718 61.9816 48.2718 65.822C48.2718 68.7024 49.5184 70.8893 51.2777 71.6272L53.7531 72.7562H53.7708C51.9938 72.0361 50.7207 69.8314 50.7207 66.9244Z" fill="black"/>
<path d="M75.9618 22.9019C75.1661 22.4841 74.2555 22.0485 73.1946 21.5684C70.3655 20.2883 68.0049 19.7548 66.2633 19.5504C64.5835 19.3548 62.8773 19.5593 61.2682 20.0927L58.6071 20.9639C57.5992 21.2928 57.2279 22.5107 57.8468 23.3819C57.944 23.5242 58.0324 23.6664 58.1032 23.8175C58.3861 24.4487 58.0589 25.1955 57.4135 25.4178C56.5295 25.72 55.4244 25.9244 54.6199 26.3245C53.0108 27.1335 53.3291 28.7248 53.3291 28.7248C53.3291 29.7204 55.2122 30.6717 57.5197 30.5295C60.6759 30.3339 63.6199 27.7113 70.7722 29.2404C72.1867 29.5427 73.6454 29.5071 75.0511 29.1604L75.2191 29.1159C78.1985 28.3781 78.6936 24.3154 75.9706 22.893L75.9618 22.9019Z" fill="#6CF479"/>
<path d="M11.0075 57.8397C11.0075 57.8397 4.29732 67.743 6.99379 81.4602C6.99379 81.4602 7.14408 73.3882 11.0783 75.5929C15.0125 77.7976 18.151 81.5313 23.5528 77.5042C23.5528 77.5042 14.3759 79.0421 14.2875 67.4586C14.2168 57.9197 11.0075 57.8486 11.0075 57.8486V57.8397Z" fill="white"/>
<path d="M81.1778 66.4968C81.1778 66.4968 85.1208 65.8389 86.721 61.3584C86.721 61.3584 88.1091 63.6342 86.7918 66.8613C86.7918 66.8613 91.4597 66.0523 93.944 58.3536C93.944 58.3536 94.1916 69.3416 84.3163 77.4225C84.3163 77.4225 87.3841 69.4482 81.1778 66.4968Z" fill="white"/>
<path d="M41.8092 22.3871L21.873 15.8263C21.0243 15.5507 20.1225 15.4885 19.2472 15.6574L0.504508 19.1956C0.504508 19.1956 0.12436 19.2401 0.0182694 19.5601C-0.0878213 19.889 0.283494 20.1646 0.734379 20.2713L19.9545 26.0764C19.9545 26.0764 20.0075 26.0853 20.0341 26.0942C20.3435 26.1742 21.5282 26.6098 21.6343 28.4589L22.3239 42.0783C22.43 44.0785 24.26 45.5275 26.2138 45.1541L36.0449 43.2695C38.2728 42.8428 39.9879 41.0292 40.3062 38.7712L42.2954 22.8583C42.3396 22.5293 41.8092 22.396 41.8092 22.396V22.3871Z" fill="#6CF479"/>
<path d="M81.2306 54.1239L55.7246 59.0133C52.9574 59.5467 50.7207 63.085 50.7207 66.9254C50.7207 70.3569 52.4889 72.8016 54.7698 72.9794L54.7256 66.3031L56.3524 65.743L57.8995 72.1704L81.6638 63.2628C83.3171 62.6405 84.5548 60.4446 84.5548 58.1155C84.5548 55.5552 83.0607 53.7683 81.2218 54.1239H81.2306Z" fill="#6CF479"/>
<path d="M57.9437 64.8016C57.82 64.0015 57.316 63.4236 56.6353 63.4236C55.7512 63.4236 54.9201 64.3571 54.761 65.5305C54.6903 66.0462 54.7787 66.5173 54.9644 66.8907L59.1903 75.9051L60.6048 75.265L57.9437 64.7927V64.8016Z" fill="white"/>
<path d="M62.3556 74.3914C62.1699 74.3203 61.9578 74.3203 61.7721 74.3914L57.8202 75.7783C57.3163 75.9472 56.9538 76.4895 56.9538 77.1473C56.9538 77.8052 57.2897 78.2941 57.7495 78.4897L63.3369 80.401C63.611 80.4988 63.9116 80.4899 64.1857 80.3832L67.5098 79.0675C67.8458 78.9342 68.0668 78.6053 68.0668 78.2408V77.0673C68.0668 76.6939 67.8281 76.3561 67.4744 76.2317L62.3644 74.4092L62.3556 74.3914Z" fill="#006A4D"/>
<path d="M63.6462 80.4559C63.5224 80.4381 63.4251 80.367 63.3544 80.287C63.1687 80.0647 63.1599 79.7803 63.1953 79.5669C63.2306 79.3535 63.1157 79.1224 62.9035 79.0513L57.8111 77.3355C57.5547 77.2466 57.378 77.1666 57.2454 76.8199C57.1304 76.5088 57.2718 76.1798 57.3072 76.1265C57.0773 76.3843 56.9447 76.7399 56.9447 77.1489C56.9447 77.7712 57.2807 78.2956 57.7404 78.4912L63.3278 80.4025C63.4339 80.4381 63.5401 80.4559 63.6373 80.4648L63.6462 80.4559Z" fill="black"/>
<path d="M2.69716 19.8519L20.5646 16.4738L38.3259 22.3766L21.5105 25.5326L2.69716 19.8519Z" fill="#00482F"/>
</svg>
