<svg width="100" height="100" viewBox="0 0 100 100" fill="none" xmlns="http://www.w3.org/2000/svg">
<rect width="100" height="100" fill="#11B67A"/>
<path d="M7.18776 52.8296C7.18776 52.8296 8.73424 57.9552 15.0086 59.378C15.0086 59.378 10.2542 60.1998 10.157 65.9086C10.157 65.9086 8.48685 60.9598 2.46875 59.378C2.46875 59.378 7.49706 58.7859 7.18776 52.8385V52.8296Z" fill="white"/>
<path d="M57.4268 28.9762L11.7564 76.9443L51.1789 99.753C51.9036 100.177 52.8227 100.045 53.3971 99.4349L97.2823 53.3314C97.6888 52.9072 97.5916 52.2179 97.0791 51.9175L57.4179 28.9762H57.4268Z" fill="black"/>
<path d="M95.6829 36.799L57.4268 28.9693L11.7564 76.9374L50.631 84.8908C51.2408 85.0146 51.8771 84.8202 52.3101 84.3606L79.2458 56.0729L85.4229 55.4808C86.2801 55.4013 87.0754 55.0124 87.6763 54.4027L94.7461 47.1385C95.2763 46.5906 95.4089 45.7687 95.0819 45.0883L93.2792 41.3502L96.1601 38.319C96.655 37.8065 96.381 36.9493 95.6829 36.8079V36.799Z" fill="#006A4D"/>
<path d="M80.439 6.16875C80.439 6.16875 82.8338 14.1134 92.5547 16.3138C92.5547 16.3138 85.1933 17.5864 85.0431 26.4235C85.0431 26.4235 82.4538 18.7617 73.1306 16.305C73.1306 16.305 80.9162 15.3771 80.439 6.16875Z" fill="white"/>
<path d="M82.5599 64.5913C79.4669 60.2258 75.7111 56.5142 71.7344 53.81C76.1088 58.8472 77.6729 64.6179 75.8524 69.0364C82.878 76.2034 83.7529 85.5001 77.5492 90.5196C74.0232 93.374 68.9153 94.2488 63.6307 93.3563C68.8093 95.5567 74.1558 95.9367 78.6009 93.9837C88.0566 89.8214 90.3896 75.6201 82.5511 64.5913H82.5599Z" fill="white"/>
<path d="M49.2614 61.578C49.2614 61.578 49.606 64.0171 49.9595 66.1115C49.9595 66.1115 34.9805 66.8096 23.0592 64.998L31.6313 55.9399L49.2614 61.5868V61.578Z" fill="black"/>
<path d="M30.3763 0C39.5934 13.9362 62.5259 16.3046 62.5259 16.3046C43.1902 34.5179 51.5059 62.6201 51.5059 62.6201C51.5059 62.6201 10.1392 58.122 18.6847 41.7114L23.2623 34.2882L23.5186 24.6733L25.8251 6.15066L28.3084 2.13859L29.6605 0.645113L30.3763 0Z" fill="#6CF479"/>
<path d="M17.7305 44.0621C17.7305 44.0621 19.5156 35.87 31.3928 34.1733C31.3928 34.1733 19.047 11.1702 30.3763 0C30.3763 0 21.3537 5.83253 21.3272 26.6971C21.3184 36.0733 17.7305 44.0621 17.7305 44.0621Z" fill="black"/>
</svg>
