<svg width="100" height="100" viewBox="0 0 100 100" fill="none" xmlns="http://www.w3.org/2000/svg">
<rect width="100" height="100" fill="#11B67A"/>
<path d="M7.13503 52.8296C7.13503 52.8296 8.68151 57.9552 14.9559 59.378C14.9559 59.378 10.2015 60.1998 10.1043 65.9086C10.1043 65.9086 8.43412 60.9598 2.41602 59.378C2.41602 59.378 7.44433 58.7859 7.13503 52.8385V52.8296Z" fill="white"/>
<path d="M57.374 28.9762L11.7037 76.9443L51.1262 99.753C51.8509 100.177 52.7699 100.045 53.3443 99.4349L97.2296 53.3314C97.6361 52.9072 97.5389 52.2179 97.0264 51.9175L57.3652 28.9762H57.374Z" fill="black"/>
<path d="M95.6301 36.799L57.374 28.9693L11.7037 76.9374L50.5783 84.8908C51.1881 85.0146 51.8244 84.8202 52.2574 84.3606L79.193 56.0729L85.3702 55.4808C86.2274 55.4013 87.0227 55.0124 87.6236 54.4027L94.6933 47.1385C95.2236 46.5906 95.3561 45.7687 95.0292 45.0883L93.2264 41.3502L96.1074 38.319C96.6022 37.8065 96.3283 36.9493 95.6301 36.8079V36.799Z" fill="#006A4D"/>
<path d="M80.3862 6.16875C80.3862 6.16875 82.7811 14.1134 92.502 16.3138C92.502 16.3138 85.1406 17.5864 84.9904 26.4235C84.9904 26.4235 82.4011 18.7617 73.0779 16.305C73.0779 16.305 80.8634 15.3771 80.3862 6.16875Z" fill="white"/>
<path d="M82.5072 64.5913C79.4142 60.2258 75.6584 56.5142 71.6817 53.81C76.0561 58.8472 77.6202 64.6179 75.7997 69.0364C82.8252 76.2034 83.7002 85.5001 77.4965 90.5196C73.9705 93.374 68.8626 94.2488 63.578 93.3563C68.7565 95.5567 74.1031 95.9367 78.5482 93.9837C88.0039 89.8214 90.3369 75.6201 82.4983 64.5913H82.5072Z" fill="white"/>
<path d="M49.2086 61.578C49.2086 61.578 49.5533 64.0171 49.9068 66.1115C49.9068 66.1115 34.9277 66.8096 23.0064 64.998L31.5785 55.9399L49.2086 61.5868V61.578Z" fill="black"/>
<path d="M30.3235 0C39.5407 13.9362 62.4731 16.3046 62.4731 16.3046C43.1374 34.5179 51.4532 62.6201 51.4532 62.6201C51.4532 62.6201 10.0865 58.122 18.632 41.7114L23.2096 34.2882L23.4659 24.6733L25.7724 6.15066L28.2557 2.13859L29.6078 0.645113L30.3235 0Z" fill="#6CF479"/>
<path d="M17.6778 44.0621C17.6778 44.0621 19.4629 35.87 31.34 34.1733C31.34 34.1733 18.9943 11.1702 30.3235 0C30.3235 0 21.301 5.83253 21.2745 26.6971C21.2656 36.0733 17.6778 44.0621 17.6778 44.0621Z" fill="black"/>
</svg>
