<svg width="100" height="100" viewBox="0 0 100 100" fill="none" xmlns="http://www.w3.org/2000/svg">
<rect width="100" height="100" fill="#006A4D"/>
<path d="M13.951 40.6449C13.951 40.6449 27.437 78.5543 41.5833 93.9655C42.1692 94.6073 43.0062 94.9514 43.8712 94.8863C49.9445 94.4119 75.4562 91.9473 91.2208 83.2419C91.9835 82.8233 92.1508 81.8561 91.6486 81.1399C71.6057 52.7264 66.1834 31.1117 66.1834 31.1117L13.951 40.6449Z" fill="#11B67A"/>
<path d="M28.3185 73.6631C21.6127 61.1816 16.1904 47.4538 13.9675 41.5759H13.9582L31.118 33.7726L44.6317 31.3079L64.1167 53.6853C64.1167 53.6853 60.3571 57.1355 54.3066 61.2734C57.2364 68.6455 62.0063 76.7413 62.0063 76.7413C60.3136 77.3924 58.5093 77.7552 58.5093 77.7552C55.4846 72.9241 52.741 66.9996 51.1539 63.351C44.9063 67.3139 36.9084 71.4776 28.3185 73.6631Z" fill="black"/>
<path d="M14.1131 73.5786C14.1131 73.5786 15.7036 78.8335 22.1304 80.2937C22.1304 80.2937 17.2567 81.1308 17.1637 86.9902C17.1637 86.9902 15.4431 81.9213 9.28611 80.2937C9.28611 80.2937 14.4386 79.6799 14.1224 73.5879L14.1131 73.5786Z" fill="white"/>
<path d="M7.15509 15.0409C7.15509 15.0409 8.44791 19.3285 13.6935 20.5097C13.6935 20.5097 9.72211 21.1979 9.63841 25.9691C9.63841 25.9691 8.24328 21.8304 3.21163 20.5097C3.21163 20.5097 7.41551 20.0074 7.15509 15.0409Z" fill="white"/>
<path d="M87.5743 29.5023C87.5743 29.5023 90.0297 37.6497 100 39.9004C100 39.9004 92.4478 41.2025 92.299 50.2706C92.299 50.2706 89.639 42.4116 80.0873 39.8911C80.0873 39.8911 88.0673 38.9425 87.5743 29.5023Z" fill="white"/>
<path d="M21.7197 18.9384L21.4593 18.8919C17.646 27.8764 12.8562 39.0557 10.5869 43.9386C7.36885 50.8583 2.26277 57.2664 0.216629 59.6939C-0.2019 60.1961 0.0119696 60.9774 0.635113 61.1727C5.15523 62.6236 7.10838 61.7772 16.1114 59.8985C25.9329 57.8523 35.5498 63.3769 35.5498 63.3769C54.1697 63.9908 64.4376 53.8717 64.4376 53.8717L75.0218 29.318L21.7197 18.9477V18.9384Z" fill="#6CF479"/>
<path d="M79.2688 16.5934L71.8004 15.0588L70.8982 19.3185C71.1959 19.6347 71.3726 20.0254 71.3726 20.4532C71.3726 21.4577 70.4146 22.2761 69.2241 22.2761C68.0336 22.2761 67.0757 21.4577 67.0757 20.4532C67.0757 19.6626 67.671 18.993 68.4987 18.7419L70.0518 14.7054L36.1604 7.75782L34.8396 12.0547C35.1558 12.3709 35.3605 12.7802 35.3605 13.2359C35.3605 14.2404 34.4025 15.0588 33.212 15.0588C32.0215 15.0588 31.0636 14.2404 31.0636 13.2359C31.0636 12.3802 31.7612 11.6641 32.6912 11.4688L34.5048 7.423L27.6689 6.0186C27.6038 6.0093 27.5479 6 27.4828 6C27.12 6 26.776 6.21391 26.6272 6.56734C25.911 8.26006 23.9858 12.7802 21.9582 17.57L75.5579 27.996L79.9198 17.8769C80.1523 17.3375 79.8268 16.7143 79.2502 16.5934H79.2688Z" fill="#11B67A"/>
<path d="M29.25 49.4536C27.5387 49.0815 26.097 48.5328 24.9252 47.8073C23.7533 47.0819 22.9256 46.2448 22.4326 45.2962C21.9397 44.3475 21.856 43.343 22.1815 42.2921L25.446 42.9989C25.2786 43.65 25.3624 44.2638 25.7065 44.8311C26.0506 45.3985 26.5994 45.91 27.3434 46.3378C28.0875 46.7657 28.971 47.1005 29.9941 47.3144C31.1381 47.5655 32.1983 47.6306 33.1934 47.5283C34.1886 47.426 35.035 47.1563 35.7325 46.7378C36.43 46.3192 36.9137 45.7612 37.1741 45.0637C37.4439 44.3382 37.4439 43.6407 37.1741 42.9803C36.9044 42.32 36.3557 41.734 35.5372 41.2132C34.7188 40.6923 33.6399 40.2924 32.2913 40.0041L30.1614 39.5391L30.9614 37.4185L33.0911 37.8836C34.1421 38.1161 35.128 38.1719 36.0302 38.0603C36.9323 37.9487 37.7136 37.6882 38.3553 37.2697C39.0064 36.8512 39.4528 36.2931 39.7132 35.5956C39.9643 34.926 39.983 34.3028 39.7691 33.7169C39.5551 33.1309 39.1458 32.6287 38.5227 32.1916C37.8995 31.7544 37.109 31.4382 36.1325 31.2243C35.2117 31.029 34.3095 30.9639 33.4073 31.0383C32.5052 31.1127 31.7147 31.3266 31.0264 31.68C30.3382 32.0334 29.8546 32.5357 29.5663 33.1867L26.4505 32.5171C26.8876 31.494 27.6503 30.6756 28.7292 30.0617C29.8081 29.4479 31.0636 29.0665 32.5052 28.8991C33.9468 28.7317 35.4256 28.8247 36.9602 29.1502C38.6065 29.5037 39.9179 30.0617 40.913 30.8058C41.9082 31.5498 42.5685 32.3962 42.8941 33.3355C43.2196 34.2749 43.2103 35.2143 42.8661 36.1443C42.4476 37.2604 41.7035 38.1254 40.6246 38.7392C39.5458 39.3531 38.2809 39.6693 36.83 39.6786L36.7743 39.8367C38.374 40.404 39.49 41.2225 40.1039 42.2735C40.727 43.3337 40.8014 44.487 40.3364 45.7426C39.9365 46.8215 39.1831 47.6957 38.0763 48.384C36.9695 49.0722 35.6581 49.5094 34.1235 49.7047C32.5889 49.9 30.9706 49.8163 29.25 49.4443V49.4536Z" fill="#00482F"/>
<path d="M58.6246 34.0039L51.2119 53.7771L47.9939 53.0795L54.4671 35.8175L54.3091 35.7803L46.6268 37.5846L47.5382 35.1479L55.4065 33.297L58.6246 33.9946V34.0039Z" fill="#00482F"/>
<path d="M49.067 56.8364C48.5555 56.6039 47.9696 56.8829 47.8022 57.413C45.756 63.8863 35.5532 63.3654 35.5532 63.3654C54.1731 63.9793 64.441 53.8602 64.441 53.8602C57.9027 59.8405 51.5131 57.9525 49.067 56.8364Z" fill="#00482F"/>
</svg>
