<svg width="100" height="100" viewBox="0 0 100 100" fill="none" xmlns="http://www.w3.org/2000/svg">
<g clip-path="url(#clip0_15980_14049)">
<rect width="100" height="100" fill="#11B67A"/>
<path d="M80.9578 43.1115C81.017 42.9185 80.9784 42.7821 80.824 42.6509C80.3505 42.6844 79.7588 42.8387 79.046 43.253C78.7939 43.3997 77.8856 44.2565 78.1171 44.6296C78.1171 44.6296 78.2123 44.7737 78.359 44.9924C78.9894 44.766 80.5693 44.169 80.9578 43.1089V43.1115Z" fill="#6CEE79"/>
<path d="M78.0815 45.088L78.6758 45.4714C78.5575 45.2939 78.4494 45.1292 78.3594 44.9954C78.1895 45.0572 78.0815 45.0906 78.0815 45.0906V45.088Z" fill="black"/>
<path d="M82.5431 43.4882C82.4762 43.0997 82.2086 42.8578 81.8149 42.7497C81.5833 42.688 81.254 42.6211 80.8243 42.6545C80.9787 42.7858 80.9426 42.9093 80.8963 43.0637C80.5078 44.1238 78.9898 44.7664 78.3594 44.9954C78.4494 45.1292 78.5575 45.2939 78.6758 45.4714L80.7831 46.9695C81.7454 46.0844 82.7541 44.6847 82.5405 43.4882H82.5431Z" fill="black"/>
<path d="M73.0898 78.6442C89.1559 81.8605 98.5449 72.3428 98.8331 69.2037C98.8331 69.2037 100.879 77.8311 86.5725 82.3648C78.9306 84.7886 70.4395 83.3528 66.9325 80.8107C65.206 79.5602 73.0923 78.6442 73.0923 78.6442H73.0898Z" fill="#11B578"/>
<path d="M22.7301 35.4778L17.5505 37.8939L27.3847 46.6319L47.6037 62.9502L71.7491 76.2502L83.9248 78.1234C83.9248 78.1234 95.8971 79.783 99.5509 67.7103C102.919 56.587 83.8218 49.6604 83.8218 49.6604L52.3149 40.1839L38.5955 32.9742L30.4363 34.1527L24.8657 34.8062C24.1272 34.9375 23.4094 35.1639 22.7327 35.4829L22.7301 35.4778Z" fill="#6FF570"/>
<path d="M17.5506 37.892C17.5506 37.892 21.1734 40.4136 25.8204 42.9326C30.4673 45.4542 34.1776 47.5693 43.8934 54.4316C58.2484 64.5719 57.3684 62.426 63.5823 65.9691C69.7962 69.5122 74.4406 76.6781 82.5791 76.6318C97.7935 76.5417 99.7516 66.9366 99.7516 66.9366C99.7516 66.9366 98.5912 83.121 73.9208 83.1107C65.0798 83.1081 45.1954 63.6456 45.1954 63.6456L17.3936 50.4176C17.3936 50.4176 14.9261 43.5605 15.8164 40.725C16.7066 37.8895 17.548 37.8895 17.548 37.8895L17.5506 37.892Z" fill="#006A4D"/>
<path d="M64.2669 67.7053C58.0247 64.5121 56.3162 65.706 48.8775 59.8627C38.3126 51.562 31.7977 49.9487 29.3456 49.0662C26.8909 48.1836 24.3384 44.059 20.9034 44.059C17.4684 44.059 17.3912 50.4196 17.3912 50.4196C18.3124 52.5629 25.54 55.702 27.9664 57.5289L26.9063 59.1474C26.9063 59.1474 34.9188 61.6098 49.899 71.0863C60.5411 77.8174 63.6597 79.4178 64.9539 79.9916C65.0723 80.043 65.4788 80.2129 65.8905 80.3827V80.1382H66.8863V80.7756C66.8927 80.8019 66.9249 80.8098 66.9249 80.8098C74.8781 83.4909 78.2565 81.8416 82.1804 81.3579C91.6647 80.1897 97.7705 72.8874 97.7705 72.8874C76.9469 85.8736 72.0041 71.6678 64.2618 67.7053H64.2669Z" fill="#6FF570"/>
<path d="M37.1005 29.8119C37.1005 29.8119 43.7338 29.1404 51.2985 30.9698C57.7363 32.5291 65.1801 35.0584 70.6813 39.0878C84.7275 49.3774 80.8242 47.6148 80.8242 47.6148C80.8242 47.6148 90.769 51.6082 95.1998 56.9112C99.6306 62.2143 100.83 67.1957 94.0985 71.9713C88.5331 75.9209 80.2813 77.8558 67.0636 67.2369C53.8459 56.6179 41.7345 54.894 36.1227 47.499C31.4552 41.352 25.1796 37.1631 23.1983 35.9255C22.9333 35.7608 22.959 35.3671 23.2421 35.2359L32.5128 30.975L37.1031 29.8145L37.1005 29.8119Z" fill="#006A4D"/>
<path d="M29.0368 50.5537C29.0368 50.5537 30.241 56.7856 36.0329 61.1495C41.8274 65.5133 57.6156 74.7814 57.6156 74.7814C57.6156 74.7814 52.2534 70.2246 46.0112 62.1607C39.7715 54.0968 29.0342 50.5537 29.0342 50.5537H29.0368Z" fill="#006A4D"/>
<path d="M56.4807 60.1657C54.8056 56.4348 54.1212 55.2975 52.495 50.154C52.4281 49.9404 52.2583 49.7732 52.0422 49.7088C50.7685 49.3357 45.9621 47.7945 37.8544 43.6339C35.5361 42.4451 33.7813 42.6819 34.4786 43.9143C40.2988 54.2322 56.4807 60.1631 56.4807 60.1631V60.1657Z" fill="black"/>
<path d="M54.4993 49.4782C57.5896 48.6857 69.7189 45.2738 71.2756 40.1792C71.2756 40.1792 83.3303 48.575 83.8217 49.6557C84.3132 50.7364 83.1219 53.7263 78.4235 57.115C72.436 61.4325 62.4938 64.3195 60.2424 62.2791C57.4738 59.7678 54.8235 52.6379 54.0285 50.3633C53.8972 49.9876 54.116 49.5785 54.5019 49.4808L54.4993 49.4782Z" fill="black"/>
<path d="M32.5077 30.9721C32.5077 30.9721 36.2566 30.3031 38.6675 30.2234C45.8901 29.9841 48.6175 30.4138 48.6175 30.4138L39.4781 28.9754C39.1873 28.9265 38.8914 28.9471 38.6109 29.0372L32.5077 30.9721Z" fill="#6FF570"/>
<path d="M41.8427 52.4222L40.5125 51.3543L40.6977 45.0993L42.0923 44.4972L41.8427 52.4222Z" fill="#11B578"/>
<path d="M50.7068 30.6965C49.9992 30.5549 48.7976 30.6604 48.0849 30.7659C46.5899 30.9872 43.6669 31.5404 40.3889 32.7935C35.7214 34.5792 33.3207 35.9738 32.0265 37.021C30.8506 37.973 31.1182 39.8333 32.5179 40.4097C34.404 41.1842 37.628 42.5968 43.088 45.1621C48.831 47.8612 50.3311 49.6804 55.2791 48.2858C70.2619 44.0634 70.2671 40.2013 70.2619 39.1618C70.2568 37.5845 64.2178 34.6101 60.7597 33.5088C53.7867 31.2883 52.1194 30.9795 50.7068 30.699V30.6965Z" fill="#6FF570"/>
<path d="M73.5039 44.3118C71.1059 44.0623 65.6536 46.2982 65.6536 46.2982C70.9952 43.702 71.569 41.075 71.569 41.075L82.1854 48.825C82.1854 48.825 76.2957 44.5254 73.5039 44.3118Z" fill="white"/>
<path d="M44.5958 47.6537C44.5958 47.6537 48.3859 49.9721 50.5421 52.118C51.8312 53.3994 55.4952 58.9906 55.4952 58.9906C55.4952 58.9906 54.237 56.6028 53.3518 54.4749C52.4667 52.347 51.8492 50.2191 51.8492 50.2191C51.1107 49.9798 49.9837 49.6118 47.3618 48.5775C45.2262 47.7335 43.1163 46.7686 42.9259 46.6297L44.5958 47.6537Z" fill="white"/>
<path d="M68.3143 65.1631C68.3143 65.1631 75.5497 72.9388 81.424 73.3737C89.6346 73.986 91.5052 72.2647 92.6244 71.7706C92.6244 71.7706 89.3361 72.3702 83.8787 71.9688C78.4212 71.5648 68.3169 65.1631 68.3169 65.1631H68.3143Z" fill="white"/>
<path d="M95.4082 69.2025C95.4082 69.2025 99.7232 64.0822 97.0241 59.654C93.4218 53.7463 85.1958 50.7409 85.1958 50.7409C85.1958 50.7409 92.6602 55.4033 94.7058 59.2191C96.7513 63.035 95.4082 69.2051 95.4082 69.2051V69.2025Z" fill="white"/>
<path d="M39.2592 46.4502C40.062 48.2127 40.291 50.742 40.291 50.742V45.475L36.3363 43.5272C36.3363 43.5272 38.4565 44.6877 39.2592 46.4502Z" fill="white"/>
<path d="M54.3656 60.6904C55.1427 60.2684 56.2054 60.2195 56.2542 58.7091C55.7731 58.3489 55.3845 58.2691 54.9986 58.2691C54.2704 58.2691 53.8124 58.4235 53.2592 58.7812C52.5568 59.234 51.507 60.096 51.031 60.7985C50.9615 60.9014 50.9203 61.0043 50.8997 61.1046C51.5018 61.3645 52.5516 61.4288 54.3656 60.6878V60.6904Z" fill="#6CEE79"/>
<path d="M51.8594 62.4204C52.5439 62.7524 53.3672 62.7061 54.0903 62.544C54.7593 62.3947 55.4334 62.2069 56.0406 61.8904C56.4703 61.6665 56.9155 61.3346 57.0801 60.8535C57.2217 60.4444 57.1007 59.4692 56.5681 58.9751C56.4575 58.8722 56.352 58.7873 56.2516 58.7127C56.2182 60.0404 55.1323 60.3646 54.363 60.6939C52.549 61.435 51.4992 61.3707 50.8971 61.1108C50.7788 61.6923 51.4117 62.2095 51.8543 62.423L51.8594 62.4204Z" fill="black"/>
<path d="M77.253 77.0842C93.3113 79.5029 99.5716 70.932 99.7517 66.9387C99.7517 66.9387 100.163 70.2296 97.4334 74.3027C97.2481 74.5806 94.5284 78.3476 86.0579 80.918C81.2463 82.3769 79.0747 81.8186 77.7084 80.37C76.2469 78.8184 77.253 77.0842 77.253 77.0842Z" fill="black"/>
<path d="M54.5279 46.7113C64.8612 44.4213 68.2911 40.1629 68.2911 39.445C68.2911 36.239 49.6082 31.5715 49.6082 31.5715C49.6082 31.5715 66.0345 36.7253 64.7274 40.1372C63.7342 42.7308 54.5279 46.7087 54.5279 46.7087V46.7113Z" fill="white"/>
<path d="M20.7077 46.6615C20.3629 46.7052 20.031 46.8004 19.7145 46.9497C20.0053 46.8545 20.3114 46.8056 20.6279 46.8004C20.6562 46.7541 20.6794 46.7052 20.7077 46.6615Z" fill="black"/>
<path d="M21.5722 46.9073V46.65C21.2789 46.6191 20.9881 46.6242 20.7077 46.6602C20.6794 46.704 20.6562 46.7529 20.6279 46.7992C20.9341 46.794 21.2506 46.8326 21.5722 46.9073Z" fill="black"/>
<path d="M20.0796 48.4441C20.0539 48.6371 20.0385 48.8378 20.0308 49.0437C20.1594 48.969 20.2958 48.9176 20.4373 48.8738L20.0796 48.4441Z" fill="black"/>
<path d="M22.5319 55.4784C22.1073 55.113 21.7137 54.6395 21.3895 54.0812C21.1527 53.6721 20.9778 53.2527 20.8594 52.841C20.2702 51.5287 19.9949 50.2062 20.0335 49.0432C20.0335 49.0432 20.0283 49.0432 20.0257 49.0457C18.5437 49.9 18.4433 52.4988 19.7993 54.8454C21.1553 57.1946 23.4556 58.4039 24.9377 57.5497C24.9763 57.5265 25.0123 57.4982 25.0483 57.4725C24.1761 57.0479 23.3064 56.3661 22.5345 55.4784H22.5319Z" fill="#006A4D"/>
<path d="M26.0288 55.8806V55.0006C25.8976 55.4895 25.6377 55.8832 25.244 56.1096C24.485 56.547 23.4427 56.2631 22.5319 55.4784C23.3038 56.3661 24.1737 57.0488 25.0459 57.4733C25.5554 57.1311 25.8847 56.5702 26.0288 55.8806Z" fill="#006A4D"/>
<path d="M23.7181 49.9568C23.0285 49.3418 22.2798 48.943 21.5696 48.8169V49.7226C22.1768 49.3804 22.9616 49.4962 23.7181 49.9568Z" fill="#006A4D"/>
<path d="M26.093 54.6879L26.1007 54.6982C26.1007 54.6982 26.1007 54.6725 26.0981 54.6596C26.0981 54.6699 26.0956 54.6777 26.093 54.6879Z" fill="#006A4D"/>
<path d="M21.3096 49.9146L20.4373 48.8699C20.2958 48.9137 20.1594 48.9651 20.0308 49.0398C19.9922 50.2028 20.2675 51.5253 20.8567 52.8376C20.5068 51.6257 20.6637 50.491 21.307 49.912L21.3096 49.9146Z" fill="#006A4D"/>
<path d="M26.0285 54.9992V55.8792C26.1031 55.5164 26.129 55.1176 26.1007 54.6982L26.093 54.6879C26.0775 54.796 26.0542 54.8989 26.0285 54.9967V54.9992Z" fill="#006A4D"/>
<path d="M21.5723 49.7217V48.816C21.1735 48.7439 20.7927 48.762 20.4402 48.87L21.3125 49.9147C21.3897 49.8452 21.472 49.7809 21.562 49.7294C21.5672 49.7294 21.5698 49.7269 21.5749 49.7243L21.5723 49.7217Z" fill="#006A4D"/>
<path d="M25.1615 51.7497C25.725 52.7249 26.0338 53.7411 26.0981 54.6596C26.2139 53.8131 25.99 52.7558 25.4136 51.7574C24.9531 50.9598 24.3484 50.3397 23.7206 49.9563C24.2558 50.4323 24.7524 51.037 25.164 51.7471L25.1615 51.7497Z" fill="black"/>
<path d="M20.8571 52.8416C20.9754 53.2533 21.1504 53.6727 21.3871 54.0818C21.7113 54.6428 22.105 55.1136 22.5296 55.479C22.1024 54.9876 21.7062 54.4343 21.3537 53.8271C21.1658 53.5003 21.0037 53.171 20.8545 52.8416H20.8571Z" fill="black"/>
<path d="M26.0285 54.6102V54.9992C26.0542 54.8989 26.0774 54.7954 26.0928 54.6899L26.0285 54.6127V54.6102Z" fill="black"/>
<path d="M27.3873 51.4742C25.9721 48.6901 23.6564 46.8659 21.5722 46.6523C21.5722 46.6523 21.0859 46.5751 20.7077 46.6626C20.3989 46.7321 20.0053 46.8556 19.7145 46.9508C19.6862 46.9636 19.6553 46.9765 19.627 46.9919C19.4546 47.0794 19.2874 47.1849 19.1253 47.3007C18.747 47.5734 18.4306 47.823 18.0909 48.3351C17.1672 49.9972 17.4091 52.735 18.8731 55.272C20.7643 58.5475 23.9703 60.2354 26.0365 59.0415C26.0519 59.0312 26.0673 59.0183 26.0828 59.0106L27.5546 58.1589C27.6189 58.074 27.6806 57.9891 27.7398 57.9042C27.9045 57.6623 28.046 57.4153 28.1592 57.1683C28.9003 55.555 28.5632 53.7925 27.3873 51.4793V51.4742ZM26.1007 54.6982C26.1264 55.1176 26.1031 55.5164 26.0285 55.8792C25.8844 56.5688 25.5553 57.1297 25.0459 57.4719C25.0073 57.4977 24.9738 57.526 24.9352 57.5491C23.4531 58.4034 21.1528 57.194 19.7968 54.8449C18.4408 52.4957 18.5438 49.8995 20.0233 49.0452C20.0233 49.0452 20.0284 49.0452 20.031 49.0426C20.2729 48.9294 20.4375 48.8728 20.4375 48.8728C20.79 48.7648 21.1734 48.7467 21.5697 48.8188C22.2798 48.9474 23.0286 49.3437 23.7182 49.9587C24.346 50.342 24.9506 50.9621 25.4112 51.7598C25.9876 52.7581 26.2114 53.8156 26.0957 54.6622C26.0957 54.675 26.0957 54.6879 26.0982 54.7008L26.1007 54.6982Z" fill="black"/>
<path d="M21.5723 49.7217C21.5723 49.7217 21.5644 49.7243 21.5593 49.7269C21.4692 49.7784 21.3869 49.8427 21.3097 49.9122C20.6639 50.4911 20.5069 51.6258 20.8594 52.8377C21.0087 53.1671 21.1708 53.4964 21.3586 53.8232C21.7111 54.433 22.1073 54.9862 22.5345 55.4751C23.4453 56.2573 24.4874 56.5429 25.2465 56.1055C25.6401 55.8791 25.9 55.4854 26.0312 54.9965V54.608L26.0956 54.6852C26.0956 54.6852 26.0981 54.6672 26.1007 54.6569C26.0338 53.7383 25.7275 52.7223 25.164 51.7471C24.7549 51.037 24.2558 50.4323 23.7206 49.9563C22.9667 49.4957 22.1796 49.3795 21.5723 49.7217Z" fill="black"/>
<path d="M59.3986 70.5304C59.3729 70.7234 59.3575 70.9241 59.3498 71.13C59.4784 71.0553 59.6148 71.0039 59.7563 70.9601L59.3986 70.5304Z" fill="black"/>
<path d="M66.706 73.5616C65.2908 70.7775 62.9751 68.9533 60.8909 68.7397C60.5976 68.7088 60.3094 68.714 60.0263 68.75C59.6816 68.7937 59.3496 68.8889 59.0332 69.0382C59.0049 69.051 58.974 69.0639 58.9457 69.0793C58.7733 69.1668 58.606 69.2723 58.4439 69.3881C58.0657 69.6608 57.6875 69.9902 57.4096 70.4225C56.3752 72.0177 56.7277 74.8224 58.1918 77.3594C60.083 80.6349 63.289 82.3228 65.3551 81.1289C65.3706 81.1186 65.386 81.1057 65.4014 81.098L66.8732 80.2463C66.9375 80.1614 66.9993 80.0765 67.0585 79.9916C67.2257 79.7497 67.3647 79.5027 67.4779 79.2557C68.2189 77.6424 67.8819 75.8799 66.706 73.5667V73.5616ZM65.4194 76.7856C65.4452 77.205 65.422 77.6038 65.3474 77.9666C65.2033 78.6562 64.874 79.2171 64.3645 79.5593C64.3259 79.5851 64.2925 79.6134 64.2539 79.6365C62.7718 80.4908 60.4715 79.2814 59.1155 76.9323C57.7595 74.5831 57.8624 71.9869 59.3419 71.1326C59.3419 71.1326 59.3472 71.1325 59.3498 71.13C59.6276 70.9601 59.7563 70.9601 59.7563 70.9601C60.1088 70.8521 60.4921 70.8341 60.8883 70.9062C61.5985 71.0348 62.3472 71.4311 63.0368 72.0461C63.6646 72.4294 64.2693 73.0495 64.7299 73.8472C65.3062 74.8455 65.5301 75.903 65.4143 76.7496C65.4143 76.7624 65.4143 76.7753 65.4169 76.7882L65.4194 76.7856Z" fill="black"/>
<path d="M61.848 77.5645C61.4234 77.1991 61.0297 76.7257 60.7055 76.1673C60.4688 75.7582 60.2938 75.3388 60.1755 74.9271C59.5862 73.6149 59.3112 72.293 59.3498 71.13C59.3498 71.13 59.3445 71.1301 59.3419 71.1326C57.8598 71.9869 57.7595 74.5856 59.1155 76.9323C60.4715 79.2814 62.7718 80.4908 64.2539 79.6365C64.2925 79.6134 64.3285 79.5851 64.3645 79.5593C63.4922 79.1348 62.6224 78.4522 61.8505 77.5645H61.848Z" fill="#006A4D"/>
<path d="M63.0369 72.0432C62.3474 71.4282 61.5986 71.0294 60.8884 70.9033V71.809C61.4957 71.4668 62.2805 71.5826 63.0369 72.0432Z" fill="#006A4D"/>
<path d="M65.4116 76.7759L65.4194 76.7856C65.4194 76.7856 65.4193 76.7605 65.4168 76.7476C65.4168 76.7579 65.4142 76.7656 65.4116 76.7759Z" fill="#006A4D"/>
<path d="M65.3474 77.9666L65.3475 77.0867C65.2163 77.5755 64.9564 77.9692 64.5602 78.1957C63.8011 78.6331 62.7588 78.3492 61.848 77.5645C62.6199 78.4522 63.4898 79.1348 64.362 79.5594C64.8715 79.2171 65.2009 78.6562 65.3449 77.9666L65.3474 77.9666Z" fill="#006A4D"/>
<path d="M60.626 72.0026L59.7537 70.9579C59.6122 71.0017 59.4759 71.0531 59.3472 71.1277C59.3086 72.2907 59.5839 73.6133 60.1731 74.9255C59.8232 73.7136 59.9802 72.5789 60.6234 72L60.626 72.0026Z" fill="#006A4D"/>
<path d="M65.3475 77.0867L65.3474 77.9666C65.422 77.6038 65.4477 77.205 65.4194 76.7856L65.4116 76.7759C65.3962 76.884 65.3733 76.9869 65.3476 77.0847L65.3475 77.0867Z" fill="#006A4D"/>
<path d="M60.8884 71.809V70.9033C60.4896 70.8313 60.1087 70.8499 59.7562 70.958L60.6284 72.0027C60.7056 71.9332 60.788 71.8689 60.878 71.8174C60.8832 71.8174 60.8857 71.8148 60.8909 71.8123L60.8884 71.809Z" fill="#006A4D"/>
<path d="M64.4804 73.8345C65.0439 74.8097 65.3526 75.826 65.417 76.7446C65.5327 75.8981 65.3089 74.8406 64.7325 73.8422C64.272 73.0446 63.6673 72.4245 63.0395 72.0411C63.5747 72.5171 64.0713 73.1218 64.4829 73.8319L64.4804 73.8345Z" fill="black"/>
<path d="M65.3476 76.6981L65.3475 77.0867C65.3732 76.9863 65.3965 76.8834 65.4119 76.7779L65.3476 76.7007V76.6981Z" fill="black"/>
<path d="M64.4804 73.8345C64.0713 73.1243 63.5721 72.5192 63.0369 72.0432C62.283 71.5826 61.4957 71.4668 60.8884 71.809C60.8833 71.809 60.8808 71.8123 60.8757 71.8149C60.7856 71.8664 60.7033 71.9307 60.6261 72.0002C59.9803 72.5791 59.8233 73.7138 60.1758 74.9257C60.2942 75.3374 60.4692 75.7568 60.7059 76.1659C61.0301 76.7268 61.4238 77.1977 61.8483 77.5631C62.7592 78.3453 63.8013 78.6309 64.5603 78.1935C64.954 77.967 65.2138 77.5735 65.3476 77.0847L65.3477 76.696L65.412 76.7731C65.412 76.7731 65.4144 76.7549 65.417 76.7446C65.3501 75.826 65.0439 74.8097 64.4804 73.8345Z" fill="black"/>
<path d="M76.7332 77.7421C90.5402 82.0545 99.9884 71.6543 99.5535 68.5023C99.5535 68.5023 99.7774 72.2924 94.4306 76.772C92.5703 78.3313 89.2948 80.0527 86.0528 80.9146C80.7677 82.3195 79.1905 81.9439 77.7032 80.3666C76.1131 78.6812 76.7281 77.7421 76.7281 77.7421H76.7332Z" fill="black"/>
<path d="M87.0588 79.0293C88.9294 77.6038 89.9792 75.27 89.4029 73.8163C88.8265 72.3625 86.8401 72.3393 84.9695 73.7648C83.0989 75.1903 82.0491 77.524 82.6255 78.9778C83.2019 80.4316 85.1882 80.4547 87.0588 79.0293Z" fill="#6CEE79"/>
<path d="M98.9925 70.77C99.2755 69.6585 99.0311 68.4183 98.4496 68.004C97.868 67.5897 97.1656 68.1532 96.8851 69.2674C96.6021 70.3789 96.8465 71.6191 97.4281 72.0334C98.0096 72.4477 98.712 71.8842 98.9925 70.77Z" fill="#6CEE79"/>
<path d="M22.0791 29.5546L1.07024 16.7718C0.993052 16.7229 0.972467 16.6251 1.01364 16.5453L1.05223 16.4759C1.09855 16.3935 1.19632 16.3678 1.27609 16.409L23.0132 27.9079C24.7783 28.8419 26.106 30.1722 25.8718 30.5813C25.6377 30.993 23.7825 30.5941 22.074 29.5572V29.5495L22.0791 29.5546Z" fill="white"/>
<path d="M15.0498 33.2375L-0.00512758 23.3622C-0.0617345 23.3261 -0.0643076 23.2335 -0.0205658 23.1589L0.0180298 23.0894C0.0669177 23.0122 0.146682 22.9736 0.203289 23.0045L16.0198 31.6139C17.3037 32.3112 18.1863 33.4176 17.9419 33.8267C17.6974 34.2358 16.2668 34.0377 15.0472 33.2349L15.0549 33.2401L15.0498 33.2375Z" fill="white"/>
<path d="M29.8855 27.3285L14.3803 18.1762C14.3263 18.1453 14.3109 18.0501 14.3597 17.9729L14.3983 17.9034C14.4395 17.8237 14.5218 17.7825 14.581 17.8134L30.7835 25.6637C32.0957 26.3018 33.0349 27.3594 32.811 27.7788C32.5872 28.1982 31.1489 28.0747 29.8881 27.3362V27.3259L29.8855 27.3285Z" fill="white"/>
</g>
<defs>
<clipPath id="clip0_15980_14049">
<rect width="100" height="100" fill="white"/>
</clipPath>
</defs>
</svg>
