<svg width="100" height="100" viewBox="0 0 100 100" fill="none" xmlns="http://www.w3.org/2000/svg">
<g clip-path="url(#clip0_4483_1236)">
<rect width="100" height="100" fill="#006A4D"/>
<path d="M43.4773 39.1929C43.4773 36.6078 45.5757 34.5093 48.1529 34.5093C48.5519 34.5093 50.5705 34.5572 50.9535 34.6609L55.5414 35.8498V12.2241C55.5414 10.2533 53.9297 8.73731 52.0626 8.73731C51.7754 8.73731 51.4801 8.7772 51.1769 8.84901L7.58 20.1552C5.42568 20.7137 3.92558 22.6526 3.92558 24.8787V56.4355C3.92558 58.4062 5.53731 59.9222 7.40439 59.9222C7.69163 59.9222 7.98684 59.8824 8.29004 59.8105L20.2186 56.7147C20.3942 56.6668 20.5697 56.6509 20.7453 56.6509C21.3995 56.6509 22.0299 56.9621 22.4288 57.5046L29.7374 67.4145L37.1659 53.4912C37.6287 52.6295 38.4266 51.9992 39.3681 51.7598L43.4773 50.6986V39.1929Z" fill="#6CF479"/>
<path d="M2.73672 56.4276V31.8445L0 29.8418V53.6988C0 54.8558 0.558526 55.8611 1.39632 56.4915L2.86441 57.5128C2.78463 57.1617 2.73672 56.8026 2.73672 56.4276Z" fill="black"/>
<path d="M2.73672 24.8788C2.73672 23.9532 2.96013 23.0755 3.33514 22.2856L0.438784 20.1712C0.167499 20.7856 0 21.4558 0 22.158V23.1394L2.73672 25.1421V24.8788Z" fill="black"/>
<path d="M4.81922 20.3149C5.51339 19.7005 6.35116 19.2377 7.29267 18.9904L50.8896 7.68423C51.0811 7.63636 51.2807 7.59646 51.4722 7.57252L50.0599 6.59111C49.27 6.0645 48.2726 5.84907 47.2513 6.11238L3.65432 17.4185C3.03196 17.5781 2.47346 17.8654 1.97876 18.2404L4.81123 20.3149H4.81922Z" fill="black"/>
<path d="M42.7673 40.3986C42.7194 39.8082 42.6156 39.2177 42.4082 38.6512C41.6741 36.6086 40.4933 35.9703 38.4746 35.7788L33.6952 35.2123C33.5835 35.316 33.4878 35.4437 33.3761 35.5474C32.4266 36.3932 31.4691 36.9517 30.5435 37.1911C29.6179 37.4305 28.6764 37.3746 27.7429 37.0156C27.6312 36.9757 27.5355 36.8959 27.4318 36.848L22.5805 39.9358C20.2427 41.3721 18.982 42.8242 18.1681 46.0397L17.1469 50.3723L43.0386 43.5982L42.7673 40.3986Z" fill="black"/>
<path d="M28.7083 35.1083C29.2588 35.3237 29.9051 35.4275 30.5913 35.2519C31.2775 35.0764 31.9318 34.6216 32.4983 34.1189C33.7749 32.9779 34.7084 31.4141 35.243 29.7864C35.8893 27.8315 35.9691 26.2118 35.9691 26.2118C36.2164 22.0468 33.7349 20.6345 30.8545 21.3925C27.9741 22.1425 25.4209 24.8793 25.5087 28.9566C25.5087 28.9566 25.5247 30.5523 26.1071 32.188C26.5858 33.5444 27.4636 34.6296 28.7162 35.1163L28.7083 35.1083Z" fill="black"/>
<path d="M34.7482 15.7746L50.8895 11.7532C51.7672 11.5377 52.621 12.2 52.621 13.1096V29.2749C52.621 29.2749 52.0864 13.2373 34.7482 15.7746Z" fill="white"/>
<path d="M92.6437 47.1159L49.0388 35.8177C48.7435 35.7379 48.4483 35.706 48.1531 35.706C46.286 35.706 44.6743 37.222 44.6743 39.1928V70.7495C44.6743 72.9757 46.1743 74.9145 48.3286 75.4731L60.8555 78.7205C61.7971 78.9678 62.595 79.5902 63.0577 80.4519L70.4862 94.3752L77.7949 84.4653C78.1939 83.9228 78.8242 83.6116 79.4785 83.6116C79.654 83.6116 79.8295 83.6355 80.005 83.6754L91.9336 86.7712C92.2288 86.851 92.524 86.883 92.8192 86.883C94.6863 86.883 96.298 85.367 96.298 83.3962V51.8394C96.298 49.6133 94.798 47.6744 92.6437 47.1159Z" fill="#11B67A"/>
<path d="M96.3457 44.4113L51.7354 32.8418C50.722 32.5785 49.7167 32.794 48.9268 33.3206L45.9347 35.076C46.5969 34.7169 47.355 34.5093 48.1529 34.5093C48.5519 34.5093 48.9427 34.5573 49.3337 34.661L92.9307 45.9672C93.8243 46.1986 94.6222 46.6374 95.2924 47.204L98.0053 45.2252C97.5106 44.8581 96.968 44.5709 96.3457 44.4113Z" fill="black"/>
<path d="M99.5532 47.1401L96.8325 49.1268C97.2474 49.9566 97.4867 50.8742 97.4867 51.8476V51.9354L100 50.1002V49.1348C100 48.4247 99.8325 47.7544 99.5532 47.1321V47.1401Z" fill="black"/>
<path d="M97.4787 83.4127C97.4787 83.7478 97.4468 84.0669 97.383 84.3781L98.5958 83.4924C99.4336 82.8621 99.9921 81.8568 99.9921 80.6998V56.8268L97.4787 58.662V83.4127Z" fill="black"/>
<path d="M57.5283 66.5853C58.2304 63.7687 59.4431 62.9629 61.7491 62.7474L66.5285 62.1809C66.6402 62.2847 66.7359 62.4123 66.8476 62.516C67.7971 63.3618 68.7546 63.9203 69.6802 64.1597C70.6058 64.3991 71.5473 64.3432 72.4808 63.9842C72.5925 63.9443 72.6883 63.8645 72.792 63.8166L77.6432 66.9045C79.981 68.3407 81.2417 69.7928 82.0555 73.0084L83.0769 77.3409L56.6665 70.4312L57.5283 66.5853Z" fill="black"/>
<path d="M71.5232 62.0769C70.9726 62.2924 70.3263 62.3961 69.6402 62.2206C68.954 62.045 68.2997 61.5902 67.7332 61.0875C66.4565 59.9466 65.5231 58.3827 64.9885 56.755C64.3422 54.8001 64.2624 53.1804 64.2624 53.1804C64.015 49.0154 66.4965 47.6031 69.3769 48.3611C72.2573 49.1111 74.8105 51.8479 74.7227 55.9252C74.7227 55.9252 74.7068 57.521 74.1243 59.1566C73.6456 60.5131 72.768 61.5982 71.5153 62.0849L71.5232 62.0769Z" fill="black"/>
<path d="M65.4754 42.744L49.334 38.7226C48.4563 38.5072 47.6025 39.1695 47.6025 40.0791V56.2444C47.6025 56.2444 48.1371 40.2067 65.4754 42.744Z" fill="white"/>
</g>
<defs>
<clipPath id="clip0_4483_1236">
<rect width="100" height="100" fill="white"/>
</clipPath>
</defs>
</svg>
