<svg width="100" height="100" viewBox="0 0 100 100" fill="none" xmlns="http://www.w3.org/2000/svg">
<g clip-path="url(#clip0_4535_2790)">
<rect width="100" height="100" fill="#006A4D"/>
<path d="M91.4671 61.0523C103.379 40.4202 100.97 16.7406 86.0826 8.14387L84.7442 7.37171C88.5226 11.8914 90.9112 17.8834 91.6216 24.8946C92.6717 35.2107 89.9846 46.5356 84.0647 56.7899C75.0562 72.3978 60.1998 82.4771 46.2186 82.4771C44.6434 82.4771 43.1196 82.3433 41.6371 82.0859L42.9549 82.8477C44.5095 83.7434 46.1362 84.4333 47.8144 84.9377L39.1147 100H43.8712L52.0664 85.8128C55.2889 86.1732 58.6349 85.9158 62.0118 85.0922V100H66.13V83.8053C68.4362 82.9301 70.7321 81.8079 72.9765 80.4489L84.2603 100H89.0168L76.4049 78.153C82.1291 73.9319 87.3695 68.1355 91.4568 61.0626L91.4671 61.0523Z" fill="black"/>
<path d="M77.3479 3.11949C73.6828 0.998627 69.5955 0 65.3434 0C52.3506 0 37.8134 9.36888 28.8357 24.915C16.9239 45.5471 19.333 69.2267 34.2203 77.8234C37.8854 79.9443 41.9727 80.9429 46.2248 80.9429C59.2176 80.9429 73.7548 71.574 82.7325 56.0279C94.6443 35.3958 92.2352 11.7162 77.3479 3.11949Z" fill="#6CF479"/>
<path d="M75.5431 51.8674C85.1183 35.2826 83.6194 16.4909 72.1952 9.89516C60.7709 3.29937 43.7475 11.3971 34.1722 27.982C24.597 44.5668 26.0958 63.3584 37.5201 69.9542C48.9443 76.55 65.9678 68.4523 75.5431 51.8674Z" fill="#11B67A"/>
<path d="M68.2909 47.6868C75.0516 35.9769 74.1412 22.7944 66.2575 18.2427C58.3738 13.6911 46.5021 19.4939 39.7414 31.2038C32.9808 42.9136 33.8912 56.0962 41.7749 60.6478C49.6586 65.1995 61.5302 59.3966 68.2909 47.6868Z" fill="#6CF479"/>
<path d="M60.9131 43.4311C64.0688 37.9651 63.5054 31.7319 59.6546 29.5086C55.8039 27.2854 50.124 29.9141 46.9682 35.38C43.8125 40.8459 44.3759 47.0792 48.2267 49.3024C52.0774 51.5257 57.7573 48.897 60.9131 43.4311Z" fill="#006A4D"/>
<path d="M54.0005 40.0495C54.4947 39.7612 54.6595 39.1331 54.3815 38.6389C54.0932 38.1448 53.4652 37.98 52.971 38.258L30.1666 51.4259C28.2207 51.6319 25.688 51.498 23.1759 50.2008L21.2919 51.2921C21.261 55.5441 21.8375 59.5799 23.0112 63.2348L27.4383 60.6404C27.5721 57.8091 29.0443 55.3588 30.5166 53.588L54.0005 40.0289V40.0495Z" fill="black"/>
<path d="M53.4828 40.1839C53.3078 40.1839 53.1328 40.1428 52.9681 40.0501L17.109 19.3459C16.6148 19.0576 16.4501 18.4296 16.728 17.9354C17.0163 17.4412 17.6443 17.2765 18.1385 17.5545L53.9976 38.2586C54.4918 38.5469 54.6565 39.1749 54.3785 39.6691C54.1829 39.9986 53.8432 40.1839 53.4828 40.1839Z" fill="white"/>
<path d="M15.3402 14.3111C14.7843 11.8505 15.7726 10.9342 15.7726 10.9342L19.3143 12.9829C19.5923 18.7793 23.3192 21.7444 23.3192 21.7444C23.3192 21.7444 18.8922 19.9942 13.7238 22.6504L6.63028 18.5528C6.63028 18.5528 6.87737 17.3894 8.96735 16.7202C8.96735 16.7202 7.08328 16.2054 4.82857 17.6159L0 14.8259C0 14.8259 3.38721 12.4476 7.89662 12.8388C5.30216 9.12212 5.6728 5.00396 5.6728 5.00396L13.765 9.67813C13.765 9.67813 13.8062 12.0564 15.3299 14.3111H15.3402Z" fill="white"/>
<path d="M98.9863 32.3384L91.831 28.21C91.8928 30.7426 91.7383 33.3268 91.3883 35.9316L98.6672 40.1321C98.9966 37.4758 99.1099 34.8608 98.9966 32.3384H98.9863Z" fill="#00482F"/>
<path d="M98.6431 28.6523C98.4886 27.561 98.293 26.5006 98.0562 25.4607L91.1068 21.4455C91.3024 22.4648 91.4671 23.5046 91.5804 24.5753L98.6431 28.6523Z" fill="#00482F"/>
</g>
<defs>
<clipPath id="clip0_4535_2790">
<rect width="100" height="100" fill="white"/>
</clipPath>
</defs>
</svg>
