<svg width="100" height="100" viewBox="0 0 100 100" fill="none" xmlns="http://www.w3.org/2000/svg">
<rect width="100" height="100" fill="#11B67A"/>
<path d="M51.3415 99.3743L17.4776 79.7518C15.9174 78.8488 15.614 76.7216 16.8534 75.4193L57.7555 32.3541C59.1337 30.9041 61.3352 30.5829 63.0687 31.5901L97.1407 51.3341C98.7008 52.237 99.0043 54.3642 97.7648 55.6666L57.0275 98.5581C55.5453 100.112 53.1964 100.451 51.3415 99.3743Z" fill="black"/>
<path d="M51.3415 97.2274L17.4776 77.6049C15.9174 76.702 15.614 74.5748 16.8534 73.2724L57.7555 30.2072C59.1337 28.7573 61.3352 28.436 63.0687 29.4432L97.1407 49.1872C98.7008 50.0902 99.0043 52.2174 97.7648 53.5197L57.0275 96.4112C55.5453 97.9654 53.1964 98.304 51.3415 97.2274Z" fill="#6CF479"/>
<path d="M51.3415 97.2274L17.4776 77.6049C15.9174 76.702 15.614 74.5748 16.8534 73.2724L57.7555 30.2072C59.1337 28.7573 61.3352 28.436 63.0687 29.4432L97.1407 49.1872C98.7008 50.0902 99.0043 52.2174 97.7648 53.5197L57.0275 96.4112C55.5453 97.9654 53.1964 98.304 51.3415 97.2274Z" fill="black"/>
<path d="M81.825 38.0639L31.5361 91.0097L39.4928 95.6201L89.7818 42.683L81.825 38.0639Z" fill="black"/>
<path d="M55.9178 66.3763L9.31255 81.7703L32.4635 49.1849L58.2061 54.1947L63.0685 61.9308L55.9178 66.3763Z" fill="black"/>
<path d="M68.8067 48.1974L55.6667 6.43467C55.1813 4.88918 53.5086 3.86466 51.9224 4.1425L24.611 9.03075L16.1689 7.75442L14.6174 10.9843C14.2447 11.6615 14.1406 12.4169 14.3833 13.2157L30.6523 64.9199C31.1377 66.4654 32.8104 67.4899 34.3966 67.2121L70.2715 60.7957C71.1295 60.6395 71.7709 60.1272 72.109 59.45L73.8079 56.003L68.8067 48.1974Z" fill="black"/>
<path d="M36.0608 63.7749L71.9356 57.3586C73.5131 57.0721 74.3972 55.596 73.9119 54.0419L57.6429 2.33762C57.1575 0.792132 55.4846 -0.232388 53.8985 0.0454518L18.0237 6.4618C16.4462 6.74832 15.5621 8.22435 16.0475 9.77852L32.3164 61.4828C32.8018 63.0282 34.4746 64.0528 36.0608 63.7749Z" fill="#006A4D"/>
<path d="M23.753 18.9475L56.2389 13.1303C56.8716 13.0174 57.2356 12.4183 57.0362 11.7932L54.8174 4.73429C54.618 4.10915 53.942 3.70107 53.3093 3.81395L20.8234 9.63122C20.1907 9.7441 19.8266 10.3432 20.026 10.9683L22.2449 18.0272C22.4443 18.6523 23.1203 19.0604 23.753 18.9475Z" fill="black"/>
<path d="M37.2572 30.1049L41.5996 29.3235C42.1717 29.2193 42.4923 28.6809 42.319 28.1253L40.9756 23.8708C40.8022 23.3065 40.1955 22.9418 39.6147 23.0373L35.2723 23.8188C34.7002 23.9229 34.3796 24.4613 34.5529 25.0169L35.8964 29.2714C36.0698 29.8357 36.6765 30.2004 37.2572 30.1049Z" fill="#6CF479"/>
<path d="M28.0348 31.7532L32.3773 30.9718C32.9493 30.8676 33.27 30.3293 33.0966 29.7736L31.7532 25.5192C31.5799 24.9548 30.9731 24.5901 30.3924 24.6857L26.0499 25.4671C25.4779 25.5713 25.1572 26.1096 25.3306 26.6653L26.6741 30.9197C26.8474 31.484 27.4541 31.8487 28.0348 31.7532Z" fill="#6CF479"/>
<path d="M46.4707 28.4532L50.8131 27.6718C51.3852 27.5676 51.7058 27.0293 51.5325 26.4736L50.1891 22.2192C50.0157 21.6548 49.4089 21.2901 48.8282 21.3856L44.4858 22.1671C43.9137 22.2713 43.5931 22.8096 43.7664 23.3652L45.1099 27.6197C45.2833 28.184 45.8899 28.5487 46.4707 28.4532Z" fill="#6CF479"/>
<path d="M55.6926 26.8049L60.035 26.0235C60.6071 25.9193 60.9278 25.3809 60.7544 24.8253L59.411 20.5708C59.2376 20.0065 58.6309 19.6418 58.0501 19.7373L53.7077 20.5187C53.1357 20.6229 52.815 21.1612 52.9883 21.7169L54.3317 25.9713C54.5051 26.5357 55.1119 26.9004 55.6926 26.8049Z" fill="#6CF479"/>
<path d="M65.2184 39.0132L69.4135 52.2627C69.5868 52.827 69.2661 53.3654 68.6941 53.4609L64.3516 54.2423C63.7796 54.3465 63.1729 53.9731 62.9909 53.4088L58.7957 40.1593C58.6224 39.5949 58.9432 39.0566 59.5152 38.9611L63.8576 38.1797C64.4297 38.0755 65.0364 38.4488 65.2184 39.0132Z" fill="#6CF479"/>
<path d="M43.0642 48.5552L47.4066 47.7737C47.9787 47.6696 48.2994 47.1312 48.1261 46.5756L46.7826 42.3211C46.6092 41.7568 46.0025 41.3921 45.4218 41.4876L41.0794 42.269C40.5073 42.3732 40.1866 42.9116 40.3599 43.4672L41.7034 47.7216C41.8768 48.286 42.4834 48.6507 43.0642 48.5552Z" fill="#00482F"/>
<path d="M52.2776 46.9035L56.6201 46.1221C57.1921 46.0179 57.5129 45.4795 57.3396 44.9239L55.996 40.6695C55.8227 40.1051 55.216 39.7404 54.6353 39.8359L50.2929 40.6174C49.7208 40.7216 49.4 41.2598 49.5734 41.8155L50.9169 46.07C51.0902 46.6343 51.6969 46.999 52.2776 46.9035Z" fill="#00482F"/>
<path d="M33.8939 50.2306L38.2363 49.4492C38.8084 49.345 39.129 48.8067 38.9557 48.251L37.6123 43.9966C37.4389 43.4322 36.8321 43.0676 36.2514 43.1631L31.909 43.9445C31.3369 44.0487 31.0163 44.587 31.1896 45.1427L32.5331 49.3971C32.7065 49.9615 33.3132 50.3261 33.8939 50.2306Z" fill="#00482F"/>
<path d="M45.9594 57.7769L50.3019 56.9955C50.8739 56.8913 51.1946 56.353 51.0212 55.7973L49.6777 51.5429C49.5044 50.9785 48.8977 50.6139 48.317 50.7094L43.9745 51.4908C43.4025 51.595 43.0818 52.1333 43.2552 52.689L44.5986 56.9434C44.7719 57.5078 45.3787 57.8724 45.9594 57.7769Z" fill="#00482F"/>
<path d="M55.1814 56.1252L59.5238 55.3438C60.0958 55.2396 60.4165 54.7013 60.2432 54.1456L58.8996 49.8912C58.7263 49.3268 58.1196 48.9622 57.5389 49.0577L53.1965 49.8391C52.6244 49.9433 52.3037 50.4816 52.4771 51.0373L53.8205 55.2917C53.9938 55.8561 54.6006 56.2207 55.1814 56.1252Z" fill="#00482F"/>
<path d="M36.7976 59.4524L41.14 58.6709C41.7121 58.5668 42.0328 58.0284 41.8595 57.4728L40.516 53.2183C40.3426 52.654 39.7359 52.2893 39.1552 52.3848L34.8128 53.1663C34.2407 53.2704 33.92 53.8088 34.0933 54.3644L35.4368 58.6189C35.6102 59.1832 36.2169 59.5479 36.7976 59.4524Z" fill="#00482F"/>
<path d="M40.1605 39.3266L44.5029 38.5452C45.075 38.441 45.3957 37.9027 45.2224 37.347L43.8789 33.0926C43.7055 32.5282 43.0987 32.1636 42.518 32.2591L38.1757 33.0405C37.6036 33.1447 37.2829 33.683 37.4562 34.2387L38.7997 38.4931C38.9731 39.0575 39.5797 39.4221 40.1605 39.3266Z" fill="#00482F"/>
<path d="M30.9385 40.9749L35.281 40.1935C35.853 40.0893 36.1738 39.551 36.0004 38.9953L34.6569 34.7409C34.4836 34.1766 33.8769 33.8119 33.2962 33.9074L28.9537 34.6888C28.3817 34.793 28.0609 35.3313 28.2343 35.887L29.5778 40.1414C29.7511 40.7058 30.3578 41.0704 30.9385 40.9749Z" fill="#00482F"/>
<path d="M49.3739 37.6749L53.7164 36.8935C54.2884 36.7893 54.6091 36.251 54.4357 35.6953L53.0923 31.4409C52.919 30.8765 52.3122 30.5119 51.7315 30.6074L47.3891 31.3888C46.8171 31.493 46.4963 32.0313 46.6697 32.587L48.0132 36.8414C48.1865 37.4058 48.7932 37.7704 49.3739 37.6749Z" fill="#00482F"/>
<path d="M58.5963 36.0266L62.9387 35.2452C63.5108 35.141 63.8315 34.6027 63.6581 34.047L62.3147 29.7926C62.1414 29.2282 61.5346 28.8636 60.9538 28.9591L56.6114 29.7405C56.0394 29.8447 55.7187 30.383 55.892 30.9387L57.2355 35.1931C57.4089 35.7575 58.0156 36.1221 58.5963 36.0266Z" fill="#00482F"/>
<path d="M23.753 18.9475L56.2389 13.1303C56.8716 13.0174 57.2356 12.4183 57.0362 11.7932L54.8174 4.73429C54.618 4.10915 53.942 3.70107 53.3093 3.81395L20.8234 9.63122C20.1907 9.7441 19.8266 10.3432 20.026 10.9683L22.2449 18.0272C22.4443 18.6523 23.1203 19.0604 23.753 18.9475Z" fill="black"/>
<path d="M23.0941 20.0596L55.5799 14.2424C56.2127 14.1295 56.5767 13.5304 56.3774 12.9053L54.0197 5.42097C53.8984 5.03026 53.4824 4.77846 53.0837 4.84792L20.1645 10.7433C19.5317 10.8562 19.1677 11.4553 19.367 12.0804L21.586 19.1393C21.7853 19.7644 22.4614 20.1725 23.0941 20.0596Z" fill="#2F8260"/>
<path d="M10.8208 66.8122C4.89222 62.0107 5.72429 53.1112 12.4416 46.252C10.6994 42.0237 12.1903 36.5016 16.3767 31.6741C12.5803 34.2615 8.99194 37.8127 6.03631 41.9889C-1.44376 52.5555 0.783783 66.1436 9.81534 70.1289C14.0624 72.0043 19.1676 71.6396 24.1167 69.5298C19.0722 70.3807 14.1925 69.5385 10.8208 66.8122Z" fill="white"/>
</svg>
