<svg width="100" height="100" viewBox="0 0 100 100" fill="none" xmlns="http://www.w3.org/2000/svg">
<g clip-path="url(#clip0_15980_1624)">
<rect width="100" height="100" fill="#006A4D"/>
<path d="M49.9375 78.2676C77.5517 78.2676 99.9375 69.763 99.9375 59.2721C99.9375 48.7811 77.5517 40.2765 49.9375 40.2765C22.3233 40.2765 -0.0625 48.7811 -0.0625 59.2721C-0.0625 69.763 22.3233 78.2676 49.9375 78.2676Z" fill="#11B67A"/>
<path d="M93.501 54.2638L87.5588 30.979C87.5588 30.979 81.7236 20.7635 49.0964 21.287C16.4664 21.8106 11.9288 31.7327 11.9288 31.7327L5.62242 55.6188C5.51548 55.8748 5.42589 56.1309 5.35363 56.3898L5.34497 56.4157C5.21492 56.8961 5.14555 57.3823 5.14555 57.8771C5.14555 66.4413 25.1976 73.3859 49.9346 73.3859C74.6716 73.3859 94.7236 66.4442 94.7236 57.8771C94.7236 56.6343 94.2987 55.4232 93.501 54.2667V54.2638Z" fill="#6CF379"/>
<path d="M50.2266 42.7763C68.3084 42.7763 82.9665 38.5826 82.9665 33.4094C82.9665 28.2362 68.3084 24.0426 50.2266 24.0426C32.1449 24.0426 17.4868 28.2362 17.4868 33.4094C17.4868 38.5826 32.1449 42.7763 50.2266 42.7763Z" fill="#11B67A"/>
<path d="M93.501 54.2638V54.2667C94.2987 55.4232 94.7236 56.6343 94.7236 57.8771C94.7236 66.4442 74.6716 73.3859 49.9346 73.3859C25.1976 73.3859 5.14555 66.4413 5.14555 57.8771C5.14555 57.3823 5.21492 56.8961 5.34497 56.4157L5.35363 56.3898C5.42589 56.1309 5.51548 55.8748 5.62242 55.6188L6.32763 52.9468C6.20958 55.2013 6.28857 57.3088 6.8535 58.234C8.52691 60.9756 17.4867 70.4576 49.9375 70.7308C58.2571 70.8011 65.1309 70.1042 70.5748 68.9651C70.8599 68.854 84.1385 63.633 82.9664 54.8164C81.7746 45.8377 61.0722 45.0808 61.0069 45.0785C61.0496 45.073 71.5761 43.7191 77.2322 41.609C81.5182 40.0095 85.0125 37.1816 86.4778 35.4268C87.3637 34.3674 87.8457 33.4488 87.9601 32.5517L93.501 54.2638Z" fill="black"/>
<path d="M8.31025 54.051L13.0386 34.3133C13.0386 34.3133 13.3478 36.2695 16.3738 38.9823C19.5559 41.8303 27.5617 42.7768 27.5617 42.7768C27.5617 42.7768 17.9345 41.9253 13.5761 45.7946C10.4403 48.5793 8.31025 54.051 8.31025 54.051Z" fill="white"/>
<path d="M51.2582 23.7609C52.5125 22.8432 54.241 22.0952 56.6716 23.1942C57.7467 23.6774 58.3537 24.1895 58.686 24.6872C59.9866 26.6175 57.2815 28.3524 62.3102 27.5124C68.6368 26.4509 65.4057 34.1291 69.2005 34.2729C72.9953 34.4139 70.8421 40.0063 75.9924 38.3062C76.4613 38.1525 76.9568 38.3417 77.4396 38.6183C71.5644 41.1255 61.569 42.7763 50.2266 42.7763C36.5362 42.7763 24.8077 40.3717 19.919 36.9585C21.5566 35.7036 23.4949 35.1056 25.6572 34.8193C30.1484 34.221 30.4463 37.4747 32.9 33.5997C35.3567 29.7218 37.394 32.5322 39.0414 30.927C40.1541 29.8367 38.1572 27.2419 40.1774 25.1447C40.6629 24.6384 41.2815 24.161 41.9694 23.7842C43.6428 22.855 45.7207 22.4837 47.2554 23.6373C47.7062 23.9739 48.1109 24.4428 48.4432 25.0671C48.9953 26.1027 49.8189 24.8167 51.2582 23.7609Z" fill="#006A4D"/>
<path d="M55.4721 22.7831C55.8507 22.8694 56.2496 23.0015 56.6687 23.1914C57.7438 23.6746 58.3508 24.1867 58.6831 24.6844C59.9837 26.6147 57.2785 28.3496 62.3073 27.5096C62.7032 27.4434 63.0617 27.4087 63.3854 27.4087C63.7785 27.4087 64.1166 27.4549 64.4201 27.5326C64.5675 27.5728 64.7034 27.6188 64.8335 27.6734C65.2034 27.8316 65.5012 28.0533 65.741 28.3237C65.7438 28.3264 65.7467 28.3294 65.7467 28.3294C65.7583 28.3437 65.7698 28.3611 65.7842 28.3783L65.7581 28.3899C65.8593 28.5079 65.9491 28.6343 66.0301 28.7695C66.2612 29.1492 66.4287 29.5837 66.5616 30.0382C67.0558 31.724 67.1195 33.6861 68.5386 34.1722C68.7236 34.2384 68.9345 34.2758 69.1715 34.2845C69.6454 34.3017 70.027 34.4052 70.342 34.5691C70.5761 34.69 70.7756 34.8483 70.9461 35.0266C71.1195 35.205 71.2381 35.4236 71.3913 35.625C73.0945 37.8687 76.4544 38.1749 78.5131 38.1285C72.8343 40.9084 62.2925 42.7763 50.2266 42.7763C45.5165 42.7763 41.0387 42.4912 36.9917 41.9788C39.0076 40.6457 41.2928 38.9131 41.7554 37.6474C42.6167 35.2913 44.8768 37.3541 44.8768 37.3541C44.8851 37.357 46.4518 37.9098 47.4635 37.072C49.793 35.1417 49.5185 32.866 49.5185 32.866C49.5254 32.8697 51.3342 33.8173 53.2265 33.2689C55.0299 32.7481 54.3248 29.6469 54.3248 29.6469C54.3139 29.6263 51.9021 25.0228 54.2408 23.2863C54.5385 23.0648 54.975 22.8809 55.4721 22.7831Z" fill="black"/>
<path d="M52.9229 64.9915C51.8796 65.3424 50.9114 64.6865 50.2177 64.2176C49.8189 63.9472 49.4056 63.6681 49.1772 63.7026C48.9576 63.7343 48.7928 63.9242 48.5443 64.2262C48.0501 64.8275 47.3767 65.6502 45.5269 65.1986C44.4258 64.9282 43.8998 63.8148 44.0443 62.06C44.29 59.0998 46.5876 54.3933 49.1368 54.2006C51.1108 54.051 52.8535 56.3639 53.7437 58.3892C54.6946 60.5468 55.0761 63.2596 53.79 64.4535C53.4981 64.7239 53.2061 64.8965 52.9229 64.9915Z" fill="#11B67A"/>
<path d="M55.5877 57.2066C54.9692 57.4137 54.3912 57.3591 53.9317 57.0369C53.0733 56.4356 52.9663 55.282 53.66 54.0997C54.3421 52.9432 55.7265 52.0255 56.949 52.6066C57.6224 52.9259 58.001 53.4725 58.0155 54.1428C58.0415 55.3108 57.0213 56.4903 56.0473 57.0081C55.8912 57.0915 55.738 57.1577 55.5877 57.2095V57.2066Z" fill="#11B67A"/>
<path d="M44.0675 58.3546C43.5761 58.5215 42.9663 58.51 42.3045 58.3057C41.0183 57.9058 39.8102 56.7695 40.105 55.4519C40.2669 54.727 40.7148 54.2379 41.368 54.0711C42.5068 53.7834 43.8912 54.5083 44.6137 55.3369C45.2033 56.01 45.3825 56.7379 45.1195 57.3823C44.923 57.8627 44.553 58.1935 44.0704 58.3575L44.0675 58.3546Z" fill="#11B67A"/>
<path d="M47.1687 54.436C46.267 54.738 45.3017 54.249 44.6601 53.1414C43.9867 51.9792 43.8739 50.3279 44.9867 49.5569C45.5994 49.134 46.2641 49.0765 46.8537 49.3929C47.8855 49.9482 48.4115 51.4153 48.3797 52.5143C48.3537 53.409 47.9896 54.062 47.3566 54.3583C47.293 54.3871 47.2294 54.413 47.1658 54.4331L47.1687 54.436Z" fill="#11B67A"/>
<path d="M51.8507 54.0943C51.5299 54.2008 51.2034 54.2151 50.8825 54.1231C49.871 53.8412 49.3825 52.7882 49.6426 51.4448C49.897 50.1272 50.8941 48.8039 52.2438 48.9448C52.9866 49.0225 53.527 49.4109 53.764 50.038C54.1802 51.1312 53.6138 52.5811 52.8681 53.3924C52.5502 53.7376 52.2062 53.9735 51.8507 54.0914V54.0943Z" fill="#11B67A"/>
</g>
<defs>
<clipPath id="clip0_15980_1624">
<rect width="100" height="100" fill="white"/>
</clipPath>
</defs>
</svg>
