<svg width="100" height="100" viewBox="0 0 100 100" fill="none" xmlns="http://www.w3.org/2000/svg">
<g clip-path="url(#clip0_15980_14253)">
<rect width="100" height="100" fill="#11B67A"/>
<path d="M84.5846 80.9594H0.03125V85.2235H84.5846V80.9594Z" fill="black"/>
<path d="M73.1591 59.9801H11.4656L0.294969 84.1033C-0.546654 85.9149 0.771039 88 2.76033 88H81.8644C83.8537 88 85.1714 85.9235 84.3298 84.1033L73.1591 59.9801Z" fill="black"/>
<path d="M73.1591 55.7676H11.4656L0.294969 79.8908C-0.546654 81.7024 0.771039 83.7875 2.76033 83.7875H81.8644C83.8537 83.7875 85.1714 81.7109 84.3298 79.8908L73.1591 55.7676Z" fill="#6CF479"/>
<path d="M14.3218 12H70.294C71.7988 12 73.0144 13.2305 73.0144 14.7345V54.1793H11.6014V14.7345C11.6014 13.222 12.8256 12 14.3218 12Z" fill="#006A4D"/>
<path d="M42.3081 17.579C42.9091 17.579 43.3963 17.0892 43.3963 16.4852C43.3963 15.8811 42.9091 15.3914 42.3081 15.3914C41.7071 15.3914 41.22 15.8811 41.22 16.4852C41.22 17.0892 41.7071 17.579 42.3081 17.579Z" fill="#6CF479"/>
<path d="M75.9814 70.7832L71.1867 60.5887C70.8892 59.9478 70.2516 59.5462 69.546 59.5462H15.0785C14.3729 59.5462 13.7353 59.9564 13.4378 60.5887L8.64306 70.7832C8.218 71.689 8.87259 72.74 9.87574 72.74H25.2205C25.7731 72.74 26.2066 73.2357 26.1216 73.7912L25.9431 74.9276C25.8156 75.7565 26.4532 76.5085 27.2863 76.5085H57.3297C58.1628 76.5085 58.8004 75.7565 58.6729 74.9276L58.4944 73.7912C58.4093 73.2357 58.8344 72.74 59.3955 72.74H74.7402C75.7434 72.74 76.398 71.6976 75.9729 70.7832H75.9814Z" fill="black"/>
<path d="M66.4345 24.1503H53.9971C53.0581 24.1503 52.2969 24.9154 52.2969 25.8593V43.0523C52.2969 43.9962 53.0581 44.7614 53.9971 44.7614H66.4345C67.3735 44.7614 68.1347 43.9962 68.1347 43.0523V25.8593C68.1347 24.9154 67.3735 24.1503 66.4345 24.1503Z" fill="#00482F"/>
<path d="M99.9975 72.2198C99.8189 74.245 98.5097 76.9453 93.613 76.9453C90.6801 76.9453 88.0447 75.5439 86.7865 72.912L83.233 65.4606C83.08 65.1444 83.0375 64.7769 83.097 64.4095L83.318 63.2046C83.4285 62.5723 83.8791 62.0596 84.4487 61.7861C86.1149 61 88.7928 60.453 91.8108 60.8888C93.3835 61.111 94.8117 61.8715 95.8659 63.0422C97.6256 64.982 100.303 68.5881 99.989 72.2198H99.9975Z" fill="#006A4D"/>
<path d="M100.031 71.6033C99.2406 74.7907 95.9847 75.4658 93.0347 75.2693C92.0911 75.2094 91.0199 74.9017 90.3483 74.5599C89.1327 73.9532 88.189 72.9278 87.5599 71.723L83.7599 64.4253C83.2328 63.3657 83.6153 62.477 83.6153 62.477C83.6153 62.477 83.3858 62.7932 83.3263 63.1948L83.1053 64.3996C83.0373 64.7671 83.0883 65.1346 83.2413 65.4508L86.7948 72.9022C88.053 75.5341 90.6884 76.9355 93.6213 76.9355C98.5095 76.9355 100.031 74.2951 100.031 71.5948V71.6033Z" fill="black"/>
<path d="M95.7128 64.2127C95.7128 64.2127 97.6596 66.3832 98.5862 69.357C99.1558 71.2027 98.1186 73.1937 96.2654 73.7065C95.6023 73.8944 94.7861 74.0227 93.7745 74.0568C93.7745 74.0568 99.8104 71.3565 95.7128 64.2127Z" fill="white"/>
<path d="M65.0913 37.9523C64.7853 36.8329 64.3007 36.4141 63.3656 36.1065L61.9969 35.6195C61.8779 35.7135 61.7589 35.8159 61.6313 35.8929C61.1638 36.1748 60.6792 36.3201 60.2031 36.3201C59.7271 36.3201 59.2425 36.1748 58.7749 35.8929C58.6474 35.8159 58.5284 35.7135 58.4009 35.6195L57.0322 36.1065C56.1055 36.4141 55.6125 36.8329 55.3064 37.9523L54.9324 39.4734H65.4569L65.0828 37.9523H65.0913ZM59.4295 34.7906C59.6591 34.9273 59.9226 35.0383 60.2116 35.0383C60.5007 35.0383 60.7642 34.9359 60.9937 34.7906C61.5123 34.483 61.8864 33.9702 62.0989 33.3977C62.3454 32.7056 62.3709 32.0903 62.3709 32.0903C62.439 30.5094 61.4018 29.7147 60.2201 29.7147C59.0385 29.7147 58.0013 30.5094 58.0693 32.0903C58.0693 32.0903 58.0863 32.7056 58.3414 33.3977C58.5454 33.9702 58.9194 34.4744 59.4465 34.7906H59.4295Z" fill="white"/>
<path d="M48.3183 24.1503H35.8809C34.9419 24.1503 34.1807 24.9154 34.1807 25.8593V43.0523C34.1807 43.9962 34.9419 44.7614 35.8809 44.7614H48.3183C49.2573 44.7614 50.0185 43.9962 50.0185 43.0523V25.8593C50.0185 24.9154 49.2573 24.1503 48.3183 24.1503Z" fill="#00482F"/>
<path d="M46.9834 37.9523C46.6774 36.8329 46.1928 36.4141 45.2577 36.1065L43.889 35.6195C43.77 35.7135 43.651 35.8159 43.5234 35.8929C43.0559 36.1748 42.5713 36.3201 42.0952 36.3201C41.6192 36.3201 41.1346 36.1748 40.667 35.8929C40.5395 35.8159 40.4205 35.7135 40.293 35.6195L38.9243 36.1065C37.9976 36.4141 37.5046 36.8329 37.1985 37.9523L36.8245 39.4734H47.349L46.9749 37.9523H46.9834ZM41.3131 34.7906C41.5427 34.9273 41.8062 35.0383 42.0952 35.0383C42.3843 35.0383 42.6478 34.9359 42.8773 34.7906C43.3959 34.483 43.77 33.9702 43.9825 33.3977C44.229 32.7056 44.2545 32.0903 44.2545 32.0903C44.3226 30.5094 43.2854 29.7147 42.1037 29.7147C40.9221 29.7147 39.8849 30.5094 39.9529 32.0903C39.9529 32.0903 39.9699 32.7056 40.225 33.3977C40.429 33.9702 40.803 34.4744 41.3301 34.7906H41.3131Z" fill="white"/>
<path d="M30.2021 24.1503H17.7647C16.8257 24.1503 16.0645 24.9154 16.0645 25.8593V43.0523C16.0645 43.9962 16.8257 44.7614 17.7647 44.7614H30.2021C31.1411 44.7614 31.9023 43.9962 31.9023 43.0523V25.8593C31.9023 24.9154 31.1411 24.1503 30.2021 24.1503Z" fill="#6CF479"/>
<path d="M28.8672 37.9523C28.5612 36.8329 28.0766 36.4141 27.1415 36.1065L25.7728 35.6195C25.6538 35.7135 25.5348 35.8159 25.4072 35.8929C24.9397 36.1748 24.4551 36.3201 23.979 36.3201C23.503 36.3201 23.0184 36.1748 22.5508 35.8929C22.4233 35.8159 22.3043 35.7135 22.1768 35.6195L20.8081 36.1065C19.8814 36.4141 19.3884 36.8329 19.0823 37.9523L18.7083 39.4734H29.2328L28.8587 37.9523H28.8672ZM23.1969 34.7906C23.4264 34.9273 23.69 35.0383 23.979 35.0383C24.2681 35.0383 24.5316 34.9359 24.7611 34.7906C25.2797 34.483 25.6538 33.9702 25.8663 33.3977C26.1128 32.7056 26.1383 32.0903 26.1383 32.0903C26.2064 30.5094 25.1692 29.7147 23.9875 29.7147C22.8059 29.7147 21.7687 30.5094 21.8367 32.0903C21.8367 32.0903 21.8537 32.7056 22.1088 33.3977C22.3128 33.9702 22.6868 34.4744 23.2139 34.7906H23.1969Z" fill="black"/>
</g>
<defs>
<clipPath id="clip0_15980_14253">
<rect width="100" height="100" fill="white"/>
</clipPath>
</defs>
</svg>
