<svg width="100" height="100" viewBox="0 0 100 100" fill="none" xmlns="http://www.w3.org/2000/svg">
<g clip-path="url(#clip0_15980_14265)">
<rect width="100" height="100" fill="#11B67A"/>
<path d="M72.3622 19.1479C63.6578 19.1479 56.1996 24.1989 52.8765 31.7707C49.5628 24.1989 42.0952 19.1479 33.3908 19.1479C21.7881 19.1479 12.404 28.1547 12.253 40.6075C13.0837 71.7442 53.2919 93.6287 53.2919 93.6287C53.2919 93.6287 93.5 71.7442 93.5 40.6075C93.5 28.825 83.9649 19.1479 72.3622 19.1479Z" fill="#6CF479"/>
<path d="M20.7307 21.5407C24.2993 19.1332 28.6325 17.7454 33.3907 17.7454C34.4575 17.7454 35.5054 17.8209 36.5345 17.9625C33.8344 16.7446 30.8322 16.0648 27.6601 16.0648C23.0247 16.0648 18.7198 17.6132 15.2267 20.2189L20.7307 21.5312V21.5407Z" fill="black"/>
<path d="M52.8766 28.7233C56.8983 21.9729 64.281 17.7433 72.3623 17.7433C73.3252 17.7433 74.2693 17.8094 75.1945 17.9321C72.57 16.7425 69.6811 16.0722 66.6317 16.0722C59.655 16.0722 53.4902 19.3199 49.6006 24.5031C50.8468 25.7682 51.9514 27.1749 52.8766 28.7233Z" fill="black"/>
<path d="M32.1445 79.8099C18.5782 67.3004 11.2144 53.7525 10.8651 40.6388V40.5821C10.9029 37.3722 11.5259 34.351 12.6305 31.6226L7.74021 30.433C6.96607 32.6611 6.53177 35.0402 6.53177 37.5232C5.60657 59.1622 25.1017 75.9862 37.5446 84.4643C35.7887 83.0387 33.9666 81.4904 32.1445 79.8004V79.8099Z" fill="black"/>
<path d="M15.5192 26.5084C16.3689 25.385 17.313 24.3464 18.3609 23.4023L13.0174 22.1278C12.045 23.0813 11.1576 24.1293 10.374 25.2528L15.5192 26.5084Z" fill="black"/>
<path d="M82.8602 26.0095C76.3083 21.1946 68.9917 23.5077 68.9917 23.5077C82.7186 23.8192 79.6881 35.6017 79.6881 35.6017C92.0177 46.0058 81.3214 65.8981 81.3214 65.8981C95.5769 44.9012 89.4121 30.8339 82.8602 26.019V26.0095ZM28.4721 23.5454C36.2701 23.451 38.4321 29.8426 38.4321 29.8426C45.4749 29.8426 50.8372 35.2901 50.8372 35.2901C43.4167 18.6644 28.4815 23.5454 28.4815 23.5454H28.4721ZM18.125 80.1259C18.597 89.1799 10.9406 90.0862 10.9406 90.0862C20.0981 92.5031 22.6471 100.037 22.6471 100.037C22.7887 91.3419 30.0298 90.0956 30.0298 90.0956C20.4757 87.9336 18.125 80.1259 18.125 80.1259ZM49.0246 0.0371094C49.355 6.33431 44.0304 6.96686 44.0304 6.96686C50.3935 8.64738 52.1683 13.8872 52.1683 13.8872C52.2722 7.84489 57.3041 6.97631 57.3041 6.97631C50.6673 5.47518 49.0246 0.0465597 49.0246 0.0465597V0.0371094Z" fill="white"/>
</g>
<defs>
<clipPath id="clip0_15980_14265">
<rect width="100" height="100" fill="white"/>
</clipPath>
</defs>
</svg>
