<svg width="100" height="100" viewBox="0 0 100 100" fill="none" xmlns="http://www.w3.org/2000/svg">
<rect width="100" height="100" fill="#11B67A"/>
<path d="M72.3935 19.1108C63.6891 19.1108 56.2309 24.1618 52.9078 31.7336C49.5941 24.1618 42.1264 19.1108 33.422 19.1108C21.8194 19.1108 12.4353 28.1176 12.2842 40.5704C13.115 71.7071 53.3232 93.5916 53.3232 93.5916C53.3232 93.5916 93.5312 71.7071 93.5312 40.5704C93.5312 28.7879 83.9961 19.1108 72.3935 19.1108Z" fill="#6CF479"/>
<path d="M20.7619 21.5036C24.3305 19.0961 28.6638 17.7082 33.4219 17.7082C34.4887 17.7082 35.5367 17.7838 36.5657 17.9254C33.8657 16.7075 30.8635 16.0277 27.6914 16.0277C23.056 16.0277 18.751 17.5761 15.2579 20.1818L20.7619 21.4941V21.5036Z" fill="black"/>
<path d="M52.9078 28.6861C56.9296 21.9358 64.3122 17.7062 72.3935 17.7062C73.3565 17.7062 74.3006 17.7723 75.2257 17.895C72.6012 16.7054 69.7123 16.0351 66.663 16.0351C59.6863 16.0351 53.5214 19.2828 49.6318 24.466C50.878 25.7311 51.9826 27.1378 52.9078 28.6861Z" fill="black"/>
<path d="M32.1758 79.7728C18.6094 67.2633 11.2456 53.7154 10.8963 40.6017V40.545C10.9341 37.3351 11.5572 34.3139 12.6618 31.5855L7.77146 30.3959C6.99732 32.624 6.56302 35.0031 6.56302 37.4861C5.63782 59.1251 25.133 75.9491 37.5759 84.4272C35.8199 83.0016 33.9978 81.4533 32.1758 79.7633V79.7728Z" fill="black"/>
<path d="M15.5505 26.4713C16.4002 25.3478 17.3442 24.3093 18.3922 23.3652L13.0487 22.0907C12.0763 23.0442 11.1889 24.0922 10.4053 25.2157L15.5505 26.4713Z" fill="black"/>
<path d="M82.8915 25.9724C76.3396 21.1575 69.023 23.4705 69.023 23.4705C82.7498 23.7821 79.7194 35.5646 79.7194 35.5646C92.049 45.9687 81.3526 65.861 81.3526 65.861C95.6081 44.8641 89.4433 30.7968 82.8915 25.9819V25.9724ZM28.5033 23.5083C36.3014 23.4139 38.4633 29.8055 38.4633 29.8055C45.5061 29.8055 50.8684 35.253 50.8684 35.253C43.448 18.6273 28.5127 23.5083 28.5127 23.5083H28.5033ZM18.1563 80.0888C18.6283 89.1428 10.9719 90.0491 10.9719 90.0491C20.1294 92.466 22.6784 100 22.6784 100C22.82 91.3048 30.061 90.0585 30.061 90.0585C20.507 87.8965 18.1563 80.0888 18.1563 80.0888ZM49.0558 0C49.3862 6.2972 44.0617 6.92975 44.0617 6.92975C50.4247 8.61027 52.1996 13.8501 52.1996 13.8501C52.3034 7.80778 57.3354 6.9392 57.3354 6.9392C50.6985 5.43807 49.0558 0.00945031 49.0558 0.00945031V0Z" fill="white"/>
</svg>
