<svg width="100" height="100" viewBox="0 0 100 100" fill="none" xmlns="http://www.w3.org/2000/svg">
<rect width="100" height="100" fill="#11B67A"/>
<path d="M16.1263 36.7481V89.8496L88.3758 71.0526C89.1274 70.8647 89.6911 70.1128 89.6911 69.2669V16.1654L17.4417 34.9624C16.5961 35.1504 16.1263 35.9023 16.1263 36.7481Z" fill="#006A4D"/>
<path d="M11.6166 33.9286C12.4622 32.0489 14.0594 30.6391 16.1263 30.0752L88.8455 11.1842H89.0335L85.933 8.83459C84.8056 7.98872 83.4902 7.70677 82.1749 8.08271L12.2743 26.2218C9.73756 26.8797 7.76455 28.7594 6.91898 31.109L11.6166 33.9286Z" fill="black"/>
<path d="M11.0529 36.7481C11.0529 36.5602 11.0529 36.3722 11.0529 36.2782L6.44922 33.5526V37.9699L11.0529 40.6955V36.7481Z" fill="black"/>
<path d="M11.0529 90.4135V47.1805L6.44922 44.4549V85.2444C6.44922 86.6541 7.10689 87.9699 8.23432 88.8158L11.0529 90.9774C11.0529 90.7895 11.0529 90.6015 11.0529 90.4135Z" fill="black"/>
<path d="M85.2754 46.3346L76.8196 48.5902C76.162 48.7782 75.5982 49.4361 75.5982 50.094V69.7368C75.5982 70.3947 76.162 70.7707 76.8196 70.5827L85.2754 68.4211C85.933 68.2331 86.4967 67.5752 86.4967 66.9173V47.2744C86.4967 46.6165 85.933 46.2406 85.2754 46.4286V46.3346ZM83.2084 64.5677L78.7926 65.6955V64.4737L83.2084 63.3459V64.5677ZM83.5842 53.2895L81.6112 53.7594V55.6391L80.3898 56.015V54.0414L78.4168 54.5113V53.2895L80.3898 52.8195V50.8459L81.6112 50.5639V52.5376L83.5842 51.9737V53.2895Z" fill="#00482F"/>
<path d="M12.4622 36.7481V90.4135C12.4622 92.2932 13.9654 93.703 15.7505 93.703C17.5356 93.703 16.3142 93.703 16.5961 93.609L89.3153 74.718C91.7581 74.0602 93.4492 71.8985 93.4492 69.3609V15.6955C93.4492 13.8158 91.946 12.406 90.1609 12.406C88.3758 12.406 89.5972 12.406 89.3153 12.5L16.5961 31.391C14.1533 32.0489 12.4622 34.2105 12.4622 36.7481ZM89.879 14.7556C89.879 14.7556 90.0669 14.7556 90.1609 14.7556C90.6306 14.7556 91.1944 15.1316 91.1944 15.7895V69.4549C91.1944 70.9586 90.1609 72.1805 88.7516 72.5564L16.0324 91.4474C16.0324 91.4474 15.8445 91.4474 15.7505 91.4474C15.2808 91.4474 14.717 91.0714 14.717 90.4135V36.7481C14.717 35.2444 15.7505 34.0226 17.1598 33.6466L89.879 14.7556Z" fill="#6CF479"/>
<path d="M60.0021 66.2594C60.0021 62.9699 57.7473 60.8083 54.7408 60.9023C54.0831 49.6241 43.4665 48.5902 42.527 48.4962L16.1263 45.3947V48.9662L41.3056 51.9737H41.3995C41.7754 51.9737 50.7008 52.5376 51.3585 61.8421C48.352 63.3459 46.0972 66.6353 46.0972 69.9248C46.0972 73.2143 48.352 75.282 51.3585 75.282V80.7331L54.6468 79.8872V74.4361C57.6533 72.9323 59.9082 69.6429 59.9082 66.3534L60.0021 66.2594Z" fill="#6CF479"/>
<path d="M76.7257 19.5489L70.7127 27.1617C68.9276 29.3233 67.1425 30.5451 64.5119 32.0489L60.7538 34.1165C60.284 34.3985 59.7203 34.3045 59.4384 33.9286C58.5928 32.6128 57.1836 31.7669 55.4924 31.5789C55.0226 31.5789 54.7408 31.203 54.7408 30.7331V25.282L51.4525 26.1278V31.6729C51.4525 32.1429 51.1706 32.6128 50.7008 32.8947C49.0097 33.9286 47.6004 35.5263 46.6609 37.312C46.473 37.782 45.9093 38.1579 45.5335 38.1579L16.1263 40.0376V43.4211L45.0637 41.5414C45.5335 41.5414 45.9093 41.7293 45.9093 42.1992C46.379 44.7368 48.2581 46.4286 50.7008 46.6165C51.1706 46.6165 51.4525 46.9925 51.4525 47.4624V52.7256C53.1436 54.5113 54.4589 57.1429 54.7408 60.9023V46.5226C54.7408 46.0526 55.0226 45.5827 55.4924 45.3008C57.9352 43.797 59.8142 41.1654 60.284 38.4398C60.284 37.9699 60.6598 37.594 61.0356 37.406C62.4449 36.6541 65.4514 34.9624 65.4514 34.9624C67.8941 33.5526 70.5248 31.9549 72.9676 28.9474L81.2354 18.4211L76.6317 19.6429L76.7257 19.5489ZM53.1436 43.1391C50.9827 43.703 49.1976 42.3872 49.1976 40.2256C49.1976 38.0639 50.9827 35.8083 53.1436 35.2444C55.3045 34.6805 57.0896 35.9962 57.0896 38.1579C57.0896 40.3195 55.3045 42.5752 53.1436 43.1391Z" fill="#00482F"/>
<path d="M53.1436 63.9098L49.4795 72.5564L53.1436 70.3947L56.7138 70.6767L53.1436 63.9098Z" fill="#00482F"/>
<path d="M70.055 87.0301C70.3369 92.9511 65.3574 93.515 65.3574 93.515C71.3704 95.1128 72.9676 100 72.9676 100C72.9676 94.3609 77.7591 93.515 77.7591 93.515C71.5583 92.1053 69.9611 87.0301 69.9611 87.0301H70.055ZM22.1393 0C22.703 11.2782 13.2138 12.312 13.2138 12.312C24.582 15.3195 27.6825 24.6241 27.6825 24.6241C27.8704 13.8158 36.7959 12.312 36.7959 12.312C24.9579 9.58647 22.0453 0 22.0453 0H22.1393ZM67.5183 24.6241C77.9471 23.4023 78.5108 29.3233 78.5108 29.3233C87.6242 28.1015 87.6242 39.1917 87.6242 39.1917V19.4549L67.5183 24.6241Z" fill="white"/>
</svg>
