<svg width="100" height="100" viewBox="0 0 100 100" fill="none" xmlns="http://www.w3.org/2000/svg">
<rect width="100" height="100" fill="#11B67A"/>
<path d="M99.569 70.3779L75.8551 16.5036C74.3936 13.1712 70.7748 11.3314 67.2168 12.1038L56.2906 14.4556C56.8822 15.5751 57.291 16.6425 57.5259 17.3714C57.726 17.9789 57.6564 18.6471 57.3258 19.2025C57.004 19.7579 56.4472 20.1571 55.8208 20.2873L48.096 21.8754C47.9481 21.9101 47.7915 21.9188 47.6349 21.9188C46.4867 21.9188 45.521 21.0597 45.3818 19.9315C45.2339 18.6992 44.9469 17.7272 44.5815 16.9722L26.0697 20.9642C22.9119 21.6411 21.1721 25.043 22.4682 28.0022L46.1039 81.703C47.5653 85.0181 51.1581 86.8578 54.7074 86.1115L95.9415 77.4246C99.1167 76.7564 100.865 73.3459 99.569 70.3866V70.3779ZM36.935 24.774C35.5692 24.774 34.4557 23.9061 34.4557 22.83C34.4557 21.7539 35.5692 20.8861 36.935 20.8861C38.3007 20.8861 39.4142 21.7539 39.4142 22.83C39.4142 23.9061 38.3007 24.774 36.935 24.774ZM67.7214 19.2806C66.199 19.2806 64.9637 18.3087 64.9637 17.1111C64.9637 15.9135 66.199 14.9415 67.7214 14.9415C69.2437 14.9415 70.479 15.9135 70.479 17.1111C70.479 18.3087 69.2437 19.2806 67.7214 19.2806Z" fill="black"/>
<path d="M91.731 50.6874L75.855 14.612C74.3935 11.2796 70.7747 9.43983 67.2167 10.2122L55.2553 12.7896C56.4558 14.4298 57.1691 16.2783 57.5258 17.3804C57.7259 17.9879 57.6563 18.6561 57.3257 19.2115C57.0039 19.7669 56.4471 20.1661 55.8207 20.2963L48.0959 21.8844C47.948 21.9191 47.7914 21.9278 47.6348 21.9278C46.4865 21.9278 45.5209 21.0686 45.3817 19.9405C45.086 17.5366 44.2856 16.1394 43.3722 15.341L26.0609 19.0726C22.9031 19.7495 21.1632 23.1514 22.4594 26.1107L38.3354 62.1947L91.7223 50.696L91.731 50.6874ZM67.7214 14.9415C69.2437 14.9415 70.479 15.9135 70.479 17.1111C70.479 18.3087 69.2437 19.2806 67.7214 19.2806C66.199 19.2806 64.9637 18.3087 64.9637 17.1111C64.9637 15.9135 66.199 14.9415 67.7214 14.9415ZM34.4556 22.8216C34.4556 21.7455 35.5691 20.8777 36.9349 20.8777C38.3006 20.8777 39.4141 21.7455 39.4141 22.8216C39.4141 23.8977 38.3006 24.7655 36.9349 24.7655C35.5691 24.7655 34.4556 23.8977 34.4556 22.8216Z" fill="#006A4D"/>
<path d="M0.502921 76.5588C1.27715 88.1876 15.7265 94.5748 26.5221 86.2611C37.9442 77.4614 35.4214 66.9347 34.8473 62.6563L31.2719 54.3773C31.2719 54.3773 36.1522 79.3966 17.2054 84.0742C17.2054 84.0742 6.11389 86.695 1.53813 78.5461L0.502921 76.5502V76.5588Z" fill="#006A4D"/>
<path d="M99.5688 68.4867L92.2702 51.9027L38.8834 63.4013L46.1037 79.8031C47.5651 83.1182 51.1579 84.958 54.7072 84.2116L95.9413 75.5248C99.1165 74.8565 100.865 71.446 99.5688 68.4867Z" fill="#6CF479"/>
<path d="M62.8759 17.1017C62.8759 17.1017 62.4496 20.6077 66.8166 21.2499C71.1836 21.8921 72.8886 19.0196 72.8886 19.0196L85.1458 43.7959C85.1458 43.7959 72.1405 20.7205 54.0288 23.593C54.0288 23.593 59.4658 22.4215 62.8759 17.1104V17.1017Z" fill="white"/>
<path d="M34.6294 45.4892L38.4657 55.3737C38.4657 55.3737 43.7374 49.3163 46.6168 34.4852C46.6168 34.4852 43.5808 41.5059 34.6294 45.4892Z" fill="white"/>
<path d="M68.2347 72.9389L76.238 71.2467C76.4815 71.1946 76.6207 70.9343 76.5251 70.7086L73.3411 63.1239C73.2367 62.8809 72.9758 62.742 72.7148 62.7941L64.7116 64.4864C64.468 64.5384 64.3288 64.7988 64.4245 65.0244L67.6084 72.6092C67.7128 72.8521 67.9737 72.991 68.2347 72.9389ZM50.9582 67.3849L47.4785 68.1225L53.7158 71.4029L51.0191 76.5751L54.4987 75.8375L57.1954 70.6652L50.9582 67.3849ZM54.6553 66.6125L60.8926 69.8929L58.1959 75.0651L61.6755 74.3274L64.3723 69.1552L58.135 65.8749L54.6553 66.6125ZM90.061 59.1232L86.5813 59.8609L83.8845 65.0331L90.1219 68.3134L93.6015 67.5758L87.3642 64.2954L90.061 59.1232ZM82.8841 60.6419L79.4045 61.3796L76.7077 66.5518L82.945 69.8321L86.4247 69.0945L80.1874 65.8141L82.8841 60.6419Z" fill="#00482F"/>
<path d="M57.3781 39.5467C58.0653 39.7463 58.8134 39.8505 59.492 39.7116C60.1705 39.5728 60.7012 39.1909 61.1187 38.7657C62.0582 37.7937 62.441 36.4399 62.3714 35.0341C62.2844 33.3331 61.719 31.9186 61.719 31.9186C60.301 28.2824 57.0214 26.9894 54.1855 27.5882C51.3496 28.187 49.6532 30.5214 51.393 34.0968C51.393 34.0968 52.0629 35.494 53.3504 36.9346C54.4204 38.1322 55.8296 39.1042 57.3868 39.5554L57.3781 39.5467ZM74.1414 43.8858C72.2885 41.482 70.6965 40.779 68.165 40.5447L64.0851 40.0935C64.0851 40.0935 63.4762 40.024 62.5715 40.024C61.8929 40.7096 61.1013 41.1609 60.214 41.3431C59.3267 41.5254 58.3089 41.4646 57.1954 41.1522C56.4386 41.4993 55.9949 41.7944 55.9949 41.7944L52.9589 43.7383C51.0451 44.9099 50.2795 46.1161 50.671 48.8237L51.2887 52.4773L76.5511 47.1488L74.1327 43.8685L74.1414 43.8858Z" fill="black"/>
<path d="M24.8604 42.1717C24.0688 43.1523 23.3293 44.185 22.6247 45.2264C21.4242 47.0055 18.597 50.5115 13.2818 53.5922C5.7744 57.94 -0.349822 61.4807 0.0155435 70.4627C0.0155435 70.4627 0.0155413 72.7624 0.502695 75.4179C0.502695 75.4179 0.502714 69.5254 5.46994 64.6917C10.4372 59.8579 15.5871 59.6583 20.7979 54.946C26.0087 50.2338 26.4871 44.0462 25.8869 40.9047L24.8691 42.163L24.8604 42.1717ZM56.2905 17.7686C55.6207 15.7032 53.7417 11.2079 49.9749 10.7219L39.9534 13.065C39.9534 13.065 45.7297 12.0844 46.6779 19.7819C46.7475 20.3373 47.2782 20.7192 47.8349 20.6064L55.5598 19.0182C56.1252 18.9054 56.4645 18.324 56.2905 17.7773V17.7686Z" fill="black"/>
<path d="M91.731 50.6823L38.3528 62.1809L38.8835 63.3959L92.2703 51.8973L91.731 50.6823Z" fill="black"/>
</svg>
