<svg width="100" height="100" viewBox="0 0 100 100" fill="none" xmlns="http://www.w3.org/2000/svg">
<g clip-path="url(#clip0_15980_14351)">
<rect width="100" height="100" fill="#11B67A"/>
<path d="M84.4913 80.9594H0.03125V85.2235H84.4913V80.9594Z" fill="black"/>
<path d="M73.0784 59.9801H11.453L0.294676 84.1033C-0.546018 85.9149 0.770241 88 2.75734 88H81.7741C83.7612 88 85.0774 85.9235 84.2367 84.1033L73.0784 59.9801Z" fill="black"/>
<path d="M73.0784 55.7676H11.453L0.294676 79.8908C-0.546018 81.7024 0.770241 83.7875 2.75734 83.7875H81.7741C83.7612 83.7875 85.0774 81.7109 84.2367 79.8908L73.0784 55.7676Z" fill="#6CF479"/>
<path d="M70.2165 12C71.7196 12 72.9339 13.2305 72.9339 14.7345V54.1793H11.5802V14.7345C11.5802 13.222 12.803 12 14.2976 12H70.2165Z" fill="#006A4D"/>
<path d="M42.2615 17.579C42.8618 17.579 43.3484 17.0892 43.3484 16.4852C43.3484 15.8811 42.8618 15.3914 42.2615 15.3914C41.6612 15.3914 41.1745 15.8811 41.1745 16.4852C41.1745 17.0892 41.6612 17.579 42.2615 17.579Z" fill="#6CF479"/>
<path d="M75.8976 70.7832L71.1082 60.5887C70.811 59.9478 70.1741 59.5462 69.4692 59.5462H15.0619C14.3571 59.5462 13.7202 59.9564 13.423 60.5887L8.63355 70.7832C8.20896 71.689 8.86284 72.74 9.86488 72.74H25.1927C25.7446 72.74 26.1777 73.2357 26.0928 73.7912L25.9145 74.9276C25.7871 75.7565 26.424 76.5085 27.2562 76.5085H57.2664C58.0986 76.5085 58.7356 75.7565 58.6082 74.9276L58.4298 73.7912C58.3449 73.2357 58.7695 72.74 59.33 72.74H74.6578C75.6598 72.74 76.3137 71.6976 75.8891 70.7832H75.8976Z" fill="black"/>
<path d="M100.031 61.4775L85.629 51.1378L87.9303 68.7922L91.964 63.8018L98.1036 74.0989L99.9038 73.0136L93.7643 62.7166L100.031 61.4775Z" fill="white"/>
<path d="M30.6359 35.0721C31.2559 35.4481 31.9861 35.7386 32.7504 35.7386C33.5147 35.7386 34.245 35.4481 34.8649 35.0721C36.2745 34.2261 37.2935 32.8417 37.8625 31.2865C38.5418 29.4151 38.6013 27.7318 38.6013 27.7318C38.7881 23.4335 35.9688 21.263 32.7504 21.263C29.532 21.263 26.7127 23.425 26.8995 27.7318C26.8995 27.7318 26.9589 29.4065 27.6383 31.2865C28.2073 32.8417 29.2178 34.2261 30.6359 35.0721ZM46.0486 43.6771C45.2249 40.6264 43.8917 39.4815 41.3696 38.644L37.336 37.2169C37.336 37.2169 36.7331 36.9948 35.799 36.7982C34.7799 37.3964 33.761 37.704 32.7589 37.704C31.7569 37.704 30.7293 37.3964 29.7188 36.7982C28.7847 37.0033 28.1818 37.2169 28.1818 37.2169L24.1482 38.644C21.6261 39.4815 20.2928 40.6264 19.4691 43.6771L18.4501 47.813H47.0762L46.0571 43.6771H46.0486Z" fill="black"/>
<path d="M65.4778 17.5043H50.9907C50.0527 17.5043 49.2923 18.2695 49.2923 19.2134V36.4064C49.2923 37.3503 50.0527 38.1155 50.9907 38.1155H65.4778C66.4158 38.1155 67.1762 37.3503 67.1762 36.4064V19.2134C67.1762 18.2695 66.4158 17.5043 65.4778 17.5043Z" fill="#00482F"/>
<path d="M64.1278 31.6356C63.7797 30.3452 63.2192 29.8667 62.1492 29.5078L60.4509 28.9011C60.4509 28.9011 60.4169 28.8926 60.3659 28.8755C60.264 28.9524 60.1706 29.0293 60.0602 29.0977C59.5507 29.4053 59.0327 29.5591 58.5147 29.5591C57.9967 29.5591 57.4787 29.4053 56.9692 29.0977C56.8588 29.0293 56.7654 28.9524 56.6635 28.8755C56.6125 28.8926 56.5786 28.9011 56.5786 28.9011L54.8802 29.5078C53.8187 29.8582 53.2497 30.3452 52.9016 31.6356L52.4685 33.3788H64.5609L64.1278 31.6356ZM57.6146 28.0038C57.8778 28.1577 58.1835 28.2859 58.5062 28.2859C58.8289 28.2859 59.1346 28.1662 59.3979 28.0038C59.9923 27.6449 60.4254 27.0639 60.6632 26.4059C60.9519 25.6112 60.9773 24.9019 60.9773 24.9019C61.0538 23.0818 59.8649 22.1675 58.5062 22.1675C57.1475 22.1675 55.9586 23.0818 56.0351 24.9019C56.0351 24.9019 56.0605 25.6112 56.3493 26.4059C56.587 27.0639 57.0201 27.6449 57.6146 28.0038Z" fill="white"/>
</g>
<defs>
<clipPath id="clip0_15980_14351">
<rect width="100" height="100" fill="white"/>
</clipPath>
</defs>
</svg>
