<svg width="100" height="100" viewBox="0 0 100 100" fill="none" xmlns="http://www.w3.org/2000/svg">
<g clip-path="url(#clip0_15980_14377)">
<rect width="100" height="100" fill="#11B67A"/>
<path d="M96.893 63.1618L51.0542 40.4689L49.4158 46.6763L91.5562 72.837C92.4535 73.3928 93.4522 73.6511 94.4275 73.6511C96.3625 73.6511 98.2506 72.6256 99.2571 70.8017C100.779 68.0463 99.7019 64.5786 96.893 63.1696V63.1618Z" fill="#006A4D"/>
<path d="M49.4157 46.6776L63.0541 55.1473C63.1088 53.8635 63.1868 52.1649 63.2804 50.5993C63.4599 47.6404 62.0789 46.114 61.6029 45.6991L51.0541 40.4779L49.4157 46.6854V46.6776Z" fill="black"/>
<path d="M59.6368 36.7049C56.4378 35.6716 52.4352 33.8478 48.3624 31.5855C44.2896 29.3233 40.6303 26.881 38.0555 24.7127C37.2596 24.0395 36.612 23.4289 36.0815 22.8653L25.1426 42.6854C25.1114 42.7323 25.1114 42.795 25.0958 42.8498C26.0945 44.5093 29.9957 48.0631 37.088 52.0005C44.1725 55.9379 49.2441 57.3704 51.179 57.3469C51.2181 57.3078 51.2726 57.2686 51.296 57.2217L62.235 37.4016C61.4781 37.2529 60.6199 37.0259 59.629 36.7049H59.6368Z" fill="#6CF479"/>
<path d="M38.6795 63.2398C23.6522 63.2398 11.4649 67.0128 11.4649 71.6626C11.4649 76.3123 23.6522 80.0853 38.6795 80.0853C53.7068 80.0853 65.8941 76.3123 65.8941 71.6626C65.8941 67.0128 53.7068 63.2398 38.6795 63.2398Z" fill="#6CF479"/>
<path d="M11.4649 71.6564C11.4649 72.0087 11.543 72.3609 11.6834 72.6975C16.0215 73.4647 22.0137 73.723 28.435 73.2768C40.4429 72.447 49.3843 69.4803 48.4168 66.6466C47.8707 65.0497 44.2816 63.8364 39.1086 63.2337C38.9682 63.2337 38.8278 63.2337 38.6873 63.2337C23.66 63.2337 11.4727 67.0067 11.4727 71.6564H11.4649Z" fill="black"/>
<path d="M50.8357 62.0358C50.4534 62.2315 49.9697 62.3333 49.3767 62.3333C45.7408 62.3333 38.6407 58.983 34.6069 56.7442C29.8474 54.0984 21.5379 48.6502 21.5067 45.6209C20.9605 45.5817 20.5626 45.9575 20.5626 45.9575C19.4157 47.1003 17.5431 49.386 17.4261 52.1962C17.27 54.0827 23.0516 58.8421 30.9007 63.2022C38.7499 67.5623 45.8422 69.9576 47.348 68.8304C49.6653 67.2413 50.6016 64.4311 50.9605 62.8577C50.9605 62.8577 51.1088 62.3098 50.8279 62.0358H50.8357Z" fill="#006A4D"/>
<path d="M68.9918 79.1849C68.7421 78.0811 68.0321 76.6799 66.7525 76.3434L66.3312 73.9637C65.5666 75.13 64.2245 76.1711 62.4612 77.0635L63.6082 82.3003C63.062 82.6056 62.4612 82.8952 61.8058 83.1771L60.6511 77.8698C59.8787 78.1751 59.0594 78.4647 58.1855 78.7308L59.3793 84.0851C58.0139 84.5313 56.4924 84.9383 54.8539 85.2906L53.6446 79.8659C49.0724 80.7739 43.8214 81.2436 38.6953 81.2436C26.7343 81.2436 14.1257 78.6995 11.036 73.948L10.6146 76.3355C9.34286 76.6643 8.63282 78.0733 8.38314 79.177C8.35973 79.2866 8.34417 79.3884 8.32857 79.498H8.30514L7.98526 81.2905C7.95405 81.4706 7.93064 81.6506 7.93064 81.8307C7.93064 87.091 21.7018 91.3493 38.6953 91.3493C55.6888 91.3493 69.4599 87.091 69.4599 81.8307C69.4599 81.5958 69.0386 79.2866 69.0152 79.177L68.9918 79.1849Z" fill="black"/>
<path d="M7.55614 47.578C11.2388 54.9127 4.66931 57.2454 4.66931 57.2454C12.0425 57.9186 18.8305 59.9303 18.8305 59.9303C12.0581 55.0458 7.55614 47.578 7.55614 47.578ZM29.434 73.1672C29.434 73.1672 13.2987 73.6447 19.8683 63.312C19.8683 63.312 11.629 64.9949 -0.0511475 63.8521C-0.0511475 63.8521 8.59388 65.5977 10.3104 70.4823C12.3078 76.1574 7.63419 81.1673 7.63419 81.1673C7.63419 81.1673 15.5067 76.6976 20.1491 81.316C20.1491 81.316 23.1062 86.1066 21.3351 91.5C21.3351 91.5 26.352 77.2847 29.434 73.1672Z" fill="white"/>
<path d="M58.0295 14.0812C51.85 10.6448 46.1543 8.5 43.6108 8.5C42.9242 8.5 42.4716 8.65656 42.2922 8.9775C41.4417 10.5196 47.1062 15.3024 54.9554 19.6625C61.1348 23.0989 66.8306 25.2437 69.3741 25.2437C70.0608 25.2437 70.5133 25.0872 70.6927 24.7662C71.5432 23.2242 65.8787 18.4413 58.0295 14.0812Z" fill="#6CF479"/>
<path d="M50.4771 27.7628C49.3145 27.121 41.0518 22.4477 37.7514 18.5416C37.3223 18.7452 36.9478 19.0661 36.6981 19.5201C36.2846 20.2716 36.3314 21.1483 36.7371 21.8372C37.2131 22.3695 37.8763 23.027 38.8125 23.8176C41.3327 25.9389 44.9218 28.3343 48.9322 30.5652C52.9348 32.7883 56.8672 34.573 59.9959 35.5907C61.4394 36.0603 62.4927 36.2873 63.2417 36.3813C63.9283 36.2795 64.5681 35.8725 64.927 35.2149C65.1845 34.7453 65.2547 34.2208 65.1767 33.7276C61.9153 33.2736 56.36 31.0349 50.4693 27.7707L50.4771 27.7628Z" fill="#006A4D"/>
<path d="M69.3665 26.4191C66.5265 26.4191 60.6435 24.1725 54.3782 20.6892C50.5239 18.5443 47.0518 16.2273 44.6019 14.1607C42.0583 12.0159 40.9192 10.4347 41.0284 9.16659C39.9673 10.1529 37.6812 12.6108 37.5564 15.7263C37.4003 17.6128 43.1819 22.3721 51.031 26.7323C57.5694 30.3644 63.585 32.6344 66.2846 32.6344C66.823 32.6344 67.2287 32.5405 67.4784 32.3526C70.0688 30.5835 70.927 27.2959 71.1923 25.8868C70.7553 26.2234 70.1468 26.4035 69.3587 26.4035L69.3665 26.4191Z" fill="#006A4D"/>
<path d="M34.7553 42.3619L42.6356 28.0917C40.8879 26.9019 39.5537 25.9078 38.5784 25.125L27.3976 45.3678C29.3404 47.1134 32.4067 49.3521 36.6668 51.7553C33.8579 49.5556 32.9763 45.5869 34.7553 42.3619Z" fill="white"/>
<path d="M22.7162 45.6126C22.7319 47.3504 28.3261 51.8749 35.1922 55.687C39.9126 58.3094 46.3573 61.1274 49.3769 61.1274C49.8606 61.1274 50.1337 61.0413 50.2819 60.963C50.2819 60.963 50.8593 60.6812 51.1636 60.1411C51.4679 59.601 51.5147 59.0217 51.3821 58.4816C51.2572 58.4894 51.1324 58.5051 50.9998 58.5051C47.4341 58.5051 40.4822 55.2252 36.5264 53.0256C32.4847 50.779 25.8294 46.4737 24.105 43.4287C23.6213 43.6243 23.2078 43.9688 22.9269 44.4541C22.646 44.9394 22.7084 45.6126 22.7084 45.6126H22.7162Z" fill="#006A4D"/>
</g>
<defs>
<clipPath id="clip0_15980_14377">
<rect width="100" height="100" fill="white"/>
</clipPath>
</defs>
</svg>
