<svg width="100" height="100" viewBox="0 0 100 100" fill="none" xmlns="http://www.w3.org/2000/svg">
<g clip-path="url(#clip0_15980_14424)">
<rect width="100" height="100" fill="#11B67A"/>
<path d="M86.6342 45.5463C86.1003 45.1053 85.8914 44.3857 86.1158 43.728C87.0597 40.9889 87.5627 38.1027 87.5627 35.116C87.5627 32.1293 87.0597 29.2355 86.108 26.4963C85.8527 25.7613 86.1467 24.9411 86.8121 24.531L99.6875 16.6464L85.048 21.1265C84.3361 21.3431 83.5624 21.0646 83.16 20.4301C80.3358 16.0119 76.2735 12.1895 71.3524 9.27246C79.09 16.4839 83.9338 26.7594 83.9338 38.1724C83.9338 43.1941 82.9975 47.9914 81.2875 52.4095C82.4095 51.0013 83.3921 49.5157 84.2355 47.9682C84.5992 47.3027 85.3652 46.9623 86.1003 47.148L89.6673 48.0378L86.6264 45.5386L86.6342 45.5463Z" fill="white"/>
<path d="M9.46782 33.2435C9.87017 33.5762 10.0249 34.1179 9.8547 34.6053C9.15058 36.6558 8.77143 38.8223 8.77143 41.0585C8.77143 43.2946 9.15058 45.4612 9.8547 47.5116C10.0481 48.061 9.82375 48.6723 9.32854 48.9818L-0.3125 54.8856L10.6517 51.5274C11.1856 51.365 11.7659 51.5739 12.0676 52.0459C14.18 55.3576 17.2209 58.2127 20.9117 60.4025C15.1163 55.0016 11.4873 47.3027 11.4873 38.7527C11.4873 34.9922 12.1915 31.402 13.4682 28.0903C12.6325 29.1426 11.8897 30.2568 11.2629 31.4174C10.9921 31.9204 10.4118 32.168 9.86243 32.0287L7.19297 31.3633L9.46782 33.2358V33.2435Z" fill="white"/>
<path d="M59.0977 76.0015C60.7071 68.2561 63.7402 60.8745 68.0733 54.2511C70.5725 50.4365 72.0194 45.879 72.0194 40.9889C72.0194 27.6028 61.1791 16.7547 47.8008 16.7392C34.5385 16.7238 23.6672 27.4558 23.5202 40.718C23.466 45.7243 24.9284 50.39 27.4819 54.2743C31.8149 60.8822 34.8326 68.2639 36.442 76.0015C36.442 76.0015 36.5581 78.5858 47.6228 78.5858C59.206 78.5858 59.1054 76.0015 59.1054 76.0015H59.0977Z" fill="#6CF479"/>
<path d="M48.281 19.7258H48.134C55.5234 19.9888 63.3074 25.9468 63.408 32.3303C65.8685 33.3284 68.5612 35.6575 69.5284 40.9732C69.5284 35.3015 67.3155 29.9626 63.3074 25.9468C59.2916 21.931 53.9604 19.7258 48.281 19.7258Z" fill="white"/>
<path d="M47.77 88.4899C45.7272 88.4899 43.8083 88.3893 42.1525 88.2036C42.903 89.7666 45.5725 90.8498 47.4527 90.8498C48.1336 90.8498 47.4063 90.8498 48.0872 90.8498C49.9752 90.8498 52.6369 89.7666 53.3875 88.2036C51.7239 88.3815 49.8127 88.4899 47.77 88.4899Z" fill="#006A4D"/>
<path d="M47.7701 85.1162C41.4563 85.1162 36.3417 84.1181 36.3417 82.8801V84.2496C36.3417 84.2496 36.3417 85.124 36.3417 85.1395C36.3417 86.3697 41.4563 87.3756 47.7701 87.3756C54.084 87.3756 59.1986 86.3775 59.1986 85.1395C59.1986 85.1317 59.1986 84.2574 59.1986 84.2496V82.8801C59.1986 84.1104 54.084 85.1162 47.7701 85.1162Z" fill="#006A4D"/>
<path d="M59.1986 77.7501C59.1986 78.9804 54.084 79.9863 47.7701 79.9863C41.4563 79.9863 36.3417 78.9881 36.3417 77.7501V82.2534C36.3417 82.2534 36.3417 82.2689 36.3417 82.2766C36.3417 83.5069 41.4563 84.5128 47.7701 84.5128C54.084 84.5128 59.1986 83.5146 59.1986 82.2766C59.1986 82.2689 59.1986 82.2534 59.1986 82.2534V77.7501Z" fill="#006A4D"/>
<path d="M41.944 84.9229V84.8069C41.6887 84.7759 41.4411 84.745 41.1935 84.714C40.5048 84.6212 39.8703 84.5128 39.2977 84.389V86.6407C39.8935 86.7645 40.5667 86.8805 41.294 86.9811C41.3482 86.9889 41.4101 86.9966 41.4643 87.0043C41.619 87.0275 41.7738 87.043 41.9363 87.0662C42.3154 87.1049 42.6945 87.1436 43.0969 87.1823C42.0678 87.0353 41.944 85.2479 41.9363 84.9229H41.944Z" fill="black"/>
<path d="M41.085 84.0871C41.085 84.0871 41.1237 84.0871 41.1469 84.0948C41.2397 84.1103 41.3326 84.118 41.4254 84.1335C41.5492 84.149 41.6808 84.1644 41.8046 84.1799C41.851 84.1799 41.8897 84.1954 41.9361 84.1954C42.47 84.2573 43.0271 84.3115 43.6074 84.3579C41.8974 84.2263 41.9438 82.4776 41.9438 82.4776V79.6766C40.9612 79.5606 40.0714 79.4213 39.3053 79.2511V83.7776C39.8392 83.8936 40.435 83.9942 41.085 84.0871Z" fill="black"/>
<path fill-rule="evenodd" clip-rule="evenodd" d="M50.734 28.1678C48.3973 33.7389 46.0528 39.31 43.716 44.8888C42.8959 45.2911 40.1567 46.6375 39.6074 46.9005C43.3137 40.6563 47.0277 34.4121 50.734 28.1678Z" fill="#006A4D"/>
<path fill-rule="evenodd" clip-rule="evenodd" d="M57.5972 42.2578C53.535 48.5175 49.4728 54.785 45.4105 61.0447C47.6312 55.6593 49.8519 50.2662 52.0726 44.8809C53.9141 44.0065 55.7557 43.1322 57.5972 42.2578Z" fill="black"/>
<path fill-rule="evenodd" clip-rule="evenodd" d="M57.6673 42.1806L57.5976 42.2657C55.7561 43.1401 53.9145 44.0144 52.073 44.8888L43.716 44.8888C45.7046 43.9138 47.6935 42.9389 49.6821 41.9639C49.6821 41.9794 49.6821 41.9872 49.6743 42.0026C52.3438 42.0645 55.0055 42.1264 57.675 42.1883L57.6673 42.1806Z" fill="#006A4D"/>
<path fill-rule="evenodd" clip-rule="evenodd" d="M52.0726 44.8809C50.0144 45.8558 47.9638 46.8308 45.9056 47.8058H37.874L37.9513 47.7052C39.8703 46.7612 41.7892 45.8249 43.7081 44.881H52.0647L52.0726 44.8809Z" fill="#006A4D"/>
<path fill-rule="evenodd" clip-rule="evenodd" d="M50.7331 28.1677C50.3772 32.7638 50.029 37.36 49.6731 41.9561C48.8219 42.3739 47.9631 42.7918 47.1119 43.2096C45.9745 43.7667 44.8455 44.3239 43.7081 44.881C46.0449 39.3099 48.3886 33.7388 50.7254 28.16L50.7331 28.1677Z" fill="#006A4D"/>
<path d="M52.0726 44.8809C51.0203 47.4265 46.5867 58.205 45.4105 61.0447C45.5885 56.6343 45.7665 52.2161 45.9444 47.8057H45.898C46.6718 47.4342 47.4455 47.0706 48.2193 46.6992C49.5037 46.0879 50.7804 45.4844 52.0649 44.8731L52.0726 44.8809Z" fill="#006A4D"/>
<path d="M50.734 28.1678C50.587 28.0982 46.3231 34.6133 37.951 47.713C38.5004 47.4422 39.0498 47.1714 39.5991 46.9006C47.1587 34.4817 50.8728 28.2375 50.7258 28.1678L50.734 28.1678Z" fill="black"/>
</g>
<defs>
<clipPath id="clip0_15980_14424">
<rect width="100" height="100" fill="white"/>
</clipPath>
</defs>
</svg>
