<svg width="100" height="100" viewBox="0 0 100 100" fill="none" xmlns="http://www.w3.org/2000/svg">
<rect width="100" height="100" fill="#11B67A"/>
<path d="M14.5446 79.0093L2.48254 92.5405H100L83.1594 81.0738L14.5446 79.0093Z" fill="black"/>
<path d="M20.0021 92.5396L27.0074 77.145L42.3325 69.5984L39.9974 82.6967L20.0021 92.5396Z" fill="white"/>
<path d="M57.6661 77.145L60.0012 92.5396L79.9964 82.6967L72.9911 69.5984L57.6661 77.145Z" fill="white"/>
<path d="M0 82.6967L20.0021 92.5396L27.0074 77.145L11.6755 69.5984L0 82.6967Z" fill="#6CF479"/>
<path d="M39.9986 82.6967L42.3337 69.5984L57.6661 77.145L60.0012 92.5396L39.9986 82.6967Z" fill="#6CF479"/>
<path d="M72.9911 69.5984L79.9964 82.6967L100 92.5405L88.324 77.145L72.9911 69.5984Z" fill="#6CF479"/>
<path d="M33.2943 79.2791L41.3975 74.8717L58.1453 80.3229L72.9911 69.5984L57.6661 77.145L42.3337 69.5984L29.5828 75.4826L33.2943 79.2791Z" fill="black"/>
<path d="M33.3035 79.2798H26.5138L25.948 72.9473L31.9455 71.3994L33.3035 79.2798Z" fill="black"/>
<path d="M33.0224 6.66808H24.5792L28.0972 8.216L33.0224 6.66808Z" fill="black"/>
<path d="M26.5491 6.66602C40.0055 6.66612 50.903 17.8075 50.894 31.5466C50.894 31.9404 50.8842 32.3342 50.8661 32.7355C50.8618 32.7717 50.8632 32.8063 50.862 32.8406H42.0612C42.0949 32.4138 42.1128 31.9823 42.1128 31.5466C42.1127 22.7608 35.1402 15.641 26.5491 15.6409C17.958 15.6409 10.9855 22.7608 10.9855 31.5466C10.9855 40.3324 17.958 47.4523 26.5491 47.4523C30.7553 47.4522 34.5726 45.7447 37.3744 42.9715H48.8488C42.9916 60.908 26.5689 79.256 26.5491 79.2781C26.5491 79.2781 3.29845 53.3139 2.24037 32.955C2.23138 32.8794 2.2311 32.8112 2.2311 32.7355C2.21302 32.3342 2.20431 31.9404 2.20431 31.5466C2.20434 17.8074 13.1017 6.66602 26.5491 6.66602ZM50.3129 37.3441C50.1543 38.183 49.9677 39.0277 49.7514 39.8755H39.809C40.2911 39.0758 40.706 38.2294 41.0454 37.3441H50.3129Z" fill="black"/>
<path d="M20.0743 17.0823C17.8613 18.1188 15.9268 19.6695 14.4179 21.5857H4.23657C4.91946 19.9905 5.75982 18.482 6.74018 17.0823H20.0743Z" fill="#6CF479"/>
<path d="M22.6417 14.5488H8.77502C9.81697 13.4113 10.9623 12.3745 12.1956 11.4528H22.6417V14.5488Z" fill="#6CF479"/>
<path d="M33.3031 6.66808C19.8556 6.66808 8.95841 17.8094 8.95841 31.5486C8.95841 31.9425 8.96745 32.3363 8.98554 32.7378C8.98554 32.8135 8.98554 32.8817 8.99458 32.9574C10.0527 53.3163 33.3035 79.2798 33.3035 79.2798C33.3035 79.2798 56.5535 53.3163 57.6116 32.9574C57.6116 32.8817 57.6116 32.8135 57.6206 32.7378C57.6387 32.3363 57.6477 31.9425 57.6477 31.5486C57.6568 17.8094 46.7596 6.66808 33.3031 6.66808ZM33.3031 47.454C24.7119 47.454 17.7395 40.3345 17.7395 31.5486C17.7395 22.7628 24.7119 15.6433 33.3031 15.6433C41.8942 15.6433 48.8667 22.7628 48.8667 31.5486C48.8667 40.3345 41.8942 47.454 33.3031 47.454Z" fill="#6CF479"/>
<path d="M23.0315 60.7046C19.4233 55.0757 16.9805 50.7134 15.714 47.7583C18.4253 53.1057 24.3991 60.3516 30.0676 61.8303C33.3041 62.6747 39.4958 63.6597 45.1247 59.4381C42.3102 63.6597 41.0438 65.7705 38.2293 69.2885C36.4281 71.5401 34.7582 73.7447 33.3041 75.1988C30.6304 71.8215 27.0743 67.0113 23.0315 60.7046Z" fill="white"/>
<path d="M36.3993 8.0734C36.3993 8.0734 52.4414 10.8878 55.3965 26.0856C55.3965 26.0856 49.2129 15.128 42.6926 16.3056C42.6926 16.3056 43.4353 10.6263 36.3993 8.0734Z" fill="white"/>
</svg>
