<svg width="100" height="100" viewBox="0 0 100 100" fill="none" xmlns="http://www.w3.org/2000/svg">
<g clip-path="url(#clip0_15980_14494)">
<rect width="100" height="100" fill="#11B67A"/>
<path fill-rule="evenodd" clip-rule="evenodd" d="M52.4043 46.0784C50.2841 33.5019 52.9185 22.5697 58.2822 21.6685C63.6459 20.7674 69.7137 30.2294 71.8339 42.8138C73.954 55.3902 71.3197 66.3225 65.956 67.2237C60.5923 68.1248 54.5245 58.6628 52.4043 46.0784Z" fill="#6CF479"/>
<path fill-rule="evenodd" clip-rule="evenodd" d="M54.8646 38.7585C53.2824 39.0273 52.5071 42.2445 53.1321 45.9597C53.757 49.6671 55.5449 52.4654 57.1272 52.1966C58.7094 51.9278 60.7267 48.4972 60.1017 44.7898C59.4767 41.0825 56.4468 38.4976 54.8646 38.7664" fill="#1A1A1A"/>
<path fill-rule="evenodd" clip-rule="evenodd" d="M72.5618 42.6951C70.2834 29.1701 63.7568 18.9887 57.9897 19.9531C52.2225 20.9254 49.3903 32.6798 51.6687 46.2048C53.9471 59.7299 60.4737 69.9112 66.2409 68.9468C72.0081 67.9745 74.8402 56.2202 72.5618 42.6951ZM52.4043 46.0784C50.2841 33.5019 52.9185 22.5697 58.2822 21.6685C63.6459 20.7674 69.7137 30.2294 71.8339 42.8138C73.954 55.3902 71.3197 66.3225 65.956 67.2237C60.5923 68.1248 54.5245 58.6628 52.4043 46.0784Z" fill="black"/>
<path fill-rule="evenodd" clip-rule="evenodd" d="M75.2276 42.2445C72.4508 25.763 64.5081 13.3605 57.4752 14.5462L55.6003 14.8624C48.5752 16.0402 45.126 30.3636 47.9028 46.845C50.6796 63.3265 58.6223 75.729 65.6552 74.5433L67.5302 74.2271C74.5552 73.0493 78.0044 58.7259 75.2276 42.2445ZM51.1938 46.2838C48.7256 31.6442 51.7951 18.9254 58.0369 17.8741C64.2787 16.8228 71.3433 27.842 73.8036 42.4816C76.2719 57.1212 73.2103 69.84 66.9606 70.8913C60.7187 71.9427 53.6542 60.9234 51.1859 46.2838" fill="#006A4D"/>
<path d="M57.325 25.7311C60.2917 25.0039 63.994 29.2487 66.5256 35.7702C67.6885 35.6437 69.1046 37.3748 70.0381 39.9518C70.0381 39.9281 70.0302 39.9122 70.0223 39.8964C67.7201 29.7467 62.3881 22.3953 58.2902 23.3913C56.1621 23.913 54.1764 26.9405 53.7017 30.8534C54.2872 28.3476 55.7665 26.1184 57.3171 25.739L57.325 25.7311Z" fill="white"/>
<path fill-rule="evenodd" clip-rule="evenodd" d="M23.8374 50.8843C23.0463 46.181 23.6712 41.9599 25.2218 40.0548C24.5889 39.6675 23.956 39.4936 23.3311 39.5963L12.2398 41.4619C9.54208 41.9124 8.18929 47.2402 9.21773 53.3506C10.2462 59.461 13.2682 64.0458 15.9659 63.5952L27.0651 61.7297C27.6901 61.6269 28.2359 61.2475 28.7027 60.6783C26.6063 59.382 24.6364 55.5956 23.8453 50.8923" fill="black"/>
<path fill-rule="evenodd" clip-rule="evenodd" d="M98.1066 38.3946C99.6809 47.7459 98.0908 56.2356 94.4913 60.188C98.9689 57.3502 101.16 48.2914 99.4515 38.1733C97.7506 28.0552 92.7113 20.2057 87.5533 18.9884C92.2524 21.5496 96.5244 29.0512 98.1066 38.3946Z" fill="white"/>
<path fill-rule="evenodd" clip-rule="evenodd" d="M90.6858 39.6437C91.6905 45.6118 90.8994 50.9949 88.9058 53.4691C91.4057 51.7143 92.537 45.9754 91.4532 39.5172C90.3615 33.0511 87.4185 28 84.4756 27.1621C87.1654 28.8458 89.6811 33.6756 90.6858 39.6437Z" fill="white"/>
<path fill-rule="evenodd" clip-rule="evenodd" d="M7.87308 53.6669C7.44588 51.1374 7.43797 48.7501 7.75441 46.7818L5.2387 47.2087C1.83694 47.7778 -0.457272 50.9951 0.120236 54.3941C0.689832 57.7932 3.90964 60.0777 7.31139 59.5085L9.49485 59.1449C8.79076 57.5718 8.22117 55.7142 7.88099 53.6748" fill="#006A4D"/>
<path fill-rule="evenodd" clip-rule="evenodd" d="M26.4164 79.3809C26.0841 79.041 25.8943 78.5825 25.8943 78.1082L26.0446 63.6583L16.6541 65.2393L16.1558 83.6495C16.132 84.8036 17.1763 85.6968 18.3155 85.5071L26.9069 84.0605C28.3783 83.8155 28.9717 82.0211 27.9274 80.946L26.4085 79.3809H26.4164Z" fill="black"/>
<path fill-rule="evenodd" clip-rule="evenodd" d="M46.4315 47.0821C44.8255 37.5411 45.2844 28.7273 47.2938 22.775L26.543 40.9006C23.8533 45.7146 26.1 56.9947 29.6521 59.3819L55.6953 70.3774C51.6369 65.4844 48.1007 57.0263 46.4236 47.0821" fill="black"/>
<path d="M26.5433 40.9087C23.8535 45.7227 26.1003 57.0028 29.6523 59.39L55.7035 70.3935C51.6372 65.5004 48.1088 57.0423 46.4317 47.0981C44.8257 37.5571 45.2846 28.7433 47.294 22.791L26.5433 40.9166V40.9087Z" fill="black"/>
<path d="M47.294 22.791C45.2846 28.7433 44.8257 37.5571 46.4317 47.0981C46.5699 47.9173 46.7219 48.7264 46.8845 49.5242L25.797 51.2668C25.0856 47.4895 25.1733 43.3606 26.5433 40.9087V40.9166L47.294 22.791Z" fill="#006A4D"/>
<path d="M51.7549 64.1701C52.972 66.6094 54.306 68.7119 55.7035 70.3935L29.6523 59.39C29.0395 58.9781 28.4653 58.3011 27.9489 57.4386L51.7549 64.1701Z" fill="#035D3E"/>
<path d="M23.3308 39.5887L12.2395 41.4543C9.54185 41.9048 8.18906 47.2326 9.2175 53.343C10.2459 59.4534 13.268 64.0382 15.9656 63.5876L27.057 61.7221C27.6819 61.6193 28.2278 61.2399 28.6945 60.6707C26.5981 59.3743 24.6285 55.5877 23.8374 50.8843C23.0463 46.1889 23.6712 41.9599 25.2218 40.0548C24.7155 39.7386 24.1931 39.565 23.6868 39.565C23.5682 39.565 23.4497 39.5726 23.3311 39.5963" fill="black"/>
<path d="M26.4192 58.2024C26.6448 58.5638 26.8777 58.8973 27.1171 59.1994L12.4941 61.6582C12.2552 61.3556 12.0223 61.022 11.7971 60.6603L26.4192 58.2024Z" fill="#035D3E"/>
<path d="M24.6226 54.1784C24.8778 54.9882 25.1689 55.748 25.4862 56.447L10.8659 58.904C10.5491 58.2049 10.2582 57.4455 10.0033 56.6363L24.6226 54.1784Z" fill="#035D3E"/>
<path d="M0.118379 54.4057C0.200396 54.5881 1.31924 56.7279 8.26505 55.5556C8.59027 56.8651 9.00607 58.0756 9.48714 59.145L7.30365 59.5082C3.9098 60.0839 0.6971 57.8036 0.116549 54.4176L0.118379 54.4057Z" fill="black"/>
<path d="M0.120236 54.3941L0.118379 54.4057C0.114772 54.3977 0.111976 54.3938 0.111976 54.3938L0.120236 54.3941Z" fill="black"/>
<path fill-rule="evenodd" clip-rule="evenodd" d="M28.7662 40.1816L43.3146 27.8106C43.3146 27.8106 36.701 34.0554 36.788 37.3279C36.788 37.3279 34.7865 35.494 28.7662 40.1816Z" fill="#6CF479"/>
<path fill-rule="evenodd" clip-rule="evenodd" d="M1.11705 52.9791C1.11705 52.9791 1.59962 49.2165 6.10102 48.1256C6.10102 48.1256 3.83845 49.2876 4.36849 50.4259C4.36849 50.4259 2.41446 49.4457 1.11705 52.9791Z" fill="#6CF479"/>
<path d="M23.6868 39.565C24.1931 39.565 24.7155 39.7386 25.2218 40.0548C23.6712 41.9599 23.0463 46.1889 23.8374 50.8843C24.6285 55.5877 26.5981 59.3743 28.6945 60.6707C28.3104 61.1391 27.8718 61.4761 27.3805 61.639C25.207 61.6802 22.7117 57.1398 21.7174 51.2321C20.7254 45.3833 21.574 40.3161 23.5981 39.5673C23.6277 39.5662 23.6573 39.565 23.6868 39.565Z" fill="#006A4D"/>
</g>
<defs>
<clipPath id="clip0_15980_14494">
<rect width="100" height="100" fill="white"/>
</clipPath>
</defs>
</svg>
