<svg width="100" height="100" viewBox="0 0 100 100" fill="none" xmlns="http://www.w3.org/2000/svg">
<g clip-path="url(#clip0_15980_14524)">
<rect width="100" height="100" fill="#11B67A"/>
<path d="M13.0371 70.442C13.0371 70.442 15.5727 52.4328 51.0601 54.1557C80.6745 55.5969 106.258 73.0101 98.3911 86.0348C92.0304 96.5564 49.8682 98.691 29.0958 92.1462C8.32353 85.6013 13.0371 70.4312 13.0371 70.4312V70.442Z" fill="#6CF479"/>
<path d="M83.1557 65.5568C83.1557 65.5568 95.9204 71.5056 97.3182 81.1387C97.3182 81.1387 93.1897 74.518 84.9545 73.8787C84.9545 73.8787 86.504 69.3493 83.1557 65.5568Z" fill="white"/>
<path d="M35.8356 93.3815C30.9703 92.0595 25.6716 89.5348 23.3744 85.0487C22.2908 82.9357 21.6515 80.5193 22.2041 78.0379C24.3062 68.5132 36.8433 69.12 36.8433 69.12C84.4885 71.6773 81.1186 61.4374 81.1186 61.4374C72.6991 57.4823 62.1667 54.6975 51.0708 54.1557C15.5834 52.4328 13.0478 70.442 13.0478 70.442C13.0478 70.442 11.8992 74.1587 13.2537 78.7097C6.34042 81.2562 3.45808 83.6617 3.45808 83.6617C3.45808 83.6617 -12.113 94.5409 25.1623 98.5177C66.9453 102.982 86.9374 96.6214 94.9235 89.2855C83.9359 96.1771 49.4346 97.0765 35.8464 93.3815H35.8356Z" fill="black"/>
<path d="M85.8431 44.3301C85.8431 44.3301 84.0118 29.6476 54.6358 31.8581C32.2923 33.5485 16.8188 44.601 20.9906 52.3595C25.1624 60.1179 57.1714 62.8919 73.0351 59.0127C88.8988 55.1335 85.8431 44.3301 85.8431 44.3301Z" fill="#006A4D"/>
<path d="M75.4081 37.1339C75.4081 37.1339 84.4127 39.8537 83.1449 47.7856C83.1449 47.7856 80.7069 43.137 73.4035 44.8382C73.4035 44.8382 77.6403 41.8909 75.419 37.1339H75.4081Z" fill="white"/>
<path d="M21.0014 52.3676C23.0602 56.1927 31.9131 58.8149 42.2397 60.0069C42.413 60.0285 42.5864 60.0502 42.7706 60.0719V60.0285C33.571 59.2375 30.9162 54.253 31.4471 50.2871C32.2923 43.9482 43.0957 43.3738 43.0957 43.3738C70.9221 41.4884 73.2843 34.3693 73.4794 33.3074C73.4794 33.3074 67.1187 30.956 54.6358 31.8662C32.2923 33.4916 16.8188 44.6091 20.9906 52.3676H21.0014Z" fill="black"/>
<path d="M74.5952 23.0999C74.1834 28.6587 67.4219 34.9652 53.1619 37.2407C40.3864 39.2887 29.3989 37.1973 28.5104 31.7903C27.6218 26.3832 38.1759 19.069 50.7238 15.8399C65.7206 11.9823 75.0936 16.3167 74.5952 23.0999Z" fill="#6CF479"/>
<path d="M53.8554 14.8656C48.8275 16.1551 41.4808 18.4848 38.0134 20.782C37.7425 21.6164 37.8183 22.4074 38.2518 23.1009C39.7254 25.4522 46.8554 26.9259 55.3616 24.0869C62.8383 21.5947 68.4404 17.813 67.9745 15.1799C64.4095 14.0638 60.0643 13.2619 53.8554 14.8548V14.8656Z" fill="black"/>
<path d="M39.2814 10.4673C40.3325 14.9209 45.4253 18.7567 54.5816 17.9007C62.7843 17.1314 69.275 13.3388 69.0475 8.7661C68.8199 4.19337 61.2348 0.249124 53.0104 0.0107358C43.1823 -0.270996 38.0028 5.03857 39.2922 10.4782L39.2814 10.4673Z" fill="#006A4D"/>
<path d="M69.5894 18.5522C69.5894 18.5522 72.3417 19.4624 72.2333 22.5181C72.125 25.5738 68.95 29.0954 63.4454 32.0428C63.4454 32.0428 70.012 25.3571 69.5894 18.5522Z" fill="white"/>
<path d="M55.4916 2.57775C55.4916 2.57775 60.4652 3.14121 64.3878 5.75265C68.3104 8.36409 66.5116 11.1922 64.9188 12.6659C64.9188 12.6659 65.3414 6.77122 58.2439 7.68143C58.2439 7.68143 59.4141 4.96163 55.4916 2.57775Z" fill="white"/>
</g>
<defs>
<clipPath id="clip0_15980_14524">
<rect width="100" height="100" fill="white"/>
</clipPath>
</defs>
</svg>
