<svg width="100" height="100" viewBox="0 0 100 100" fill="none" xmlns="http://www.w3.org/2000/svg">
<rect width="100" height="100" fill="#11B67A"/>
<path d="M93.633 32.0006C93.5353 31.2985 93.0763 30.6816 92.343 30.2557H92.3388L63.4316 13.38C62.8125 13.0227 62.0855 12.8523 61.3522 12.8523C60.1993 12.8523 59.034 13.2761 58.2695 14.0779L47.9538 24.8673V24.8756C49.8774 27.2187 51.4436 29.913 52.4407 32.7796C54.6405 39.1028 54.0755 44.458 51.0261 47.2914L50.9762 47.3371L46.9567 50.7127C45.3531 52.0089 43.2592 52.7463 40.7561 52.7463H40.7021C34.2895 52.7463 28.8388 52.1668 24.5181 49.3832L11.5517 62.9457C10.995 63.5294 10.7395 64.2232 10.8392 64.9025C10.941 65.6088 11.4001 66.2257 12.1334 66.6516L41.0448 83.5294C42.6381 84.4517 44.9522 84.1359 46.2027 82.8273L92.9163 33.9616C93.473 33.382 93.7285 32.684 93.6288 32.0048H93.633V32.0006Z" fill="#006A4D"/>
<path d="M27.2994 46.475L24.5242 49.3811C28.8449 52.1646 34.2936 52.7421 40.704 52.7462C36.1714 52.7234 31.2836 50.2847 27.3015 46.477L27.2994 46.475Z" fill="#006A4D"/>
<path d="M24.3271 32.4139C27.6029 41.824 36.7782 49.4538 44.8193 49.4579C47.3183 49.4579 49.3748 48.6353 50.9784 47.335L46.9589 50.7105C45.3553 52.0067 43.2614 52.7442 40.7583 52.7442C32.7172 52.74 23.5439 45.1102 20.266 35.7002C20.239 35.6212 20.212 35.5444 20.1891 35.4696L24.2938 32.3101C24.3042 32.3433 24.3167 32.3786 24.3271 32.4119V32.416V32.4139Z" fill="black"/>
<path d="M94.8814 38.5087L94.3766 33.8702C94.2105 34.1776 94.0007 34.4726 93.7389 34.7468L47.0253 83.6124C46.051 84.6324 44.5679 85.1787 43.0993 85.1787C42.1728 85.1787 41.2567 84.9627 40.4757 84.5119L11.5642 67.6341C10.6232 67.0919 10.0021 66.2943 9.77776 65.3699L10.3989 71.0886C10.4944 71.9611 11.0324 72.7878 11.9797 73.3341L41.4333 90.5235C43.2467 91.5705 45.8662 91.2132 47.2891 89.7238L94.0027 40.8581C94.682 40.1497 94.9666 39.3105 94.8794 38.5149V38.5108L94.8814 38.5087Z" fill="#024731"/>
<path d="M28.3236 80.4156C28.4898 79.9419 28.1823 79.2959 27.6381 78.9781L23.4773 76.5435C22.9352 76.2257 22.3577 76.3545 22.1956 76.8281C22.0295 77.3017 22.3369 77.9478 22.8811 78.2656L27.0419 80.7001C27.5841 81.018 28.1616 80.8892 28.3236 80.4156Z" fill="#6CF479"/>
<path d="M34.5846 67.0563C36.4853 68.1531 36.8114 70.3072 35.3199 71.8652C33.8284 73.4232 31.0844 73.7991 29.1878 72.7044C27.2871 71.6076 26.9548 69.4535 28.4442 67.8955C29.9356 66.3376 32.6797 65.9616 34.5846 67.0584V67.0563Z" fill="#6CF479"/>
<path d="M70.2844 22.2728C70.9408 22.6529 71.0572 23.3987 70.542 23.9388C70.0268 24.4768 69.0713 24.6097 68.4149 24.2316C67.7585 23.8515 67.6442 23.1058 68.1615 22.5657C68.6766 22.0277 69.6259 21.8947 70.2844 22.2769V22.2728Z" fill="#6CF479"/>
<path d="M79.4971 27.5907C80.1535 27.9708 80.2698 28.7166 79.7547 29.2567C79.2395 29.7947 78.284 29.9276 77.6275 29.5496L72.3367 26.496C71.6803 26.1159 71.564 25.3701 72.0791 24.8279C72.5943 24.2899 73.5478 24.1611 74.2063 24.5392L79.4971 27.5928V27.5907Z" fill="#6CF479"/>
<path d="M32.9474 16.4486C29.9437 16.4486 27.5382 17.5974 25.9948 19.7702C23.8864 22.7407 23.6433 27.2193 25.3301 32.0655C28.4667 41.0664 37.2079 48.3929 44.8211 48.397C47.8331 48.397 50.2365 47.2483 51.7799 45.0755C53.8884 42.105 54.1314 37.6264 52.4447 32.7801C49.308 23.7793 40.5668 16.4528 32.9536 16.4486H32.9453H32.9474Z" fill="#C7FFC6"/>
<path d="M50.0228 33.6854C47.8687 27.4993 42.6049 21.8741 36.9235 19.6909C35.3199 19.0718 33.7557 18.7623 32.2808 18.7623C30.6917 18.7623 29.2958 19.1217 28.1429 19.8238C29.462 18.5567 31.2568 17.894 33.4067 17.8961C34.8816 17.8961 36.4437 18.2118 38.0494 18.8246C43.7308 21.0099 48.9946 26.6331 51.1487 32.8192C52.6734 37.1919 52.4678 41.2155 50.592 43.8557C50.0581 44.6098 49.3976 45.2205 48.6352 45.6879C48.9385 45.395 49.2148 45.0772 49.4661 44.7199C51.344 42.0797 51.5454 38.056 50.0228 33.6834V33.6854Z" fill="black"/>
<path d="M48.3776 44.0654C47.4594 45.3055 45.9804 45.9432 44.0984 45.9058C43.7411 45.8975 43.3693 45.8684 42.9995 45.8144C40.1204 45.4052 36.9921 43.7205 34.1919 41.0658C31.4811 38.5772 29.8566 35.5776 29.8566 35.5776C32.9165 39.2253 34.4723 38.9345 35.5421 37.7401C40.7561 44.6304 49.4619 45.0417 49.5367 38.1763C49.8026 40.5818 49.4121 42.6715 48.3797 44.0654H48.3755H48.3776Z" fill="white"/>
<path d="M7.39924 30.8935C7.68382 35.9039 4.73618 39.8299 0 40.7439C5.1724 41.6621 9.98336 45.584 12.0793 50.5964C11.7947 45.5819 14.7424 41.66 19.4786 40.746C14.3062 39.8278 9.4952 35.9059 7.39924 30.8935Z" fill="white"/>
<path d="M44.4224 8.94922C44.5429 11.1033 43.2799 12.7922 41.2442 13.1827C43.4669 13.5774 45.5338 15.262 46.4374 17.4182C46.3169 15.2641 47.5799 13.5753 49.6156 13.1848C47.3888 12.7901 45.3219 11.1033 44.4224 8.94922Z" fill="white"/>
<path d="M82.0956 50.1686C82.3158 50.5778 82.7479 50.6464 83.0636 50.3161L87.6689 45.5176C87.9847 45.1915 88.0636 44.5911 87.8434 44.1819C87.6232 43.7727 87.1912 43.7041 86.8754 44.0344L82.2701 48.8329C81.9544 49.159 81.8754 49.7594 82.0956 50.1686Z" fill="#6CF479"/>
<path d="M75.2801 57.2689C75.2801 57.2689 75.9324 57.7467 76.2481 57.4164L80.8534 52.6179C81.1692 52.2918 81.2481 51.6936 81.0279 51.2823C80.8077 50.873 80.3757 50.8045 80.0599 51.1348L75.4546 55.9333C75.1389 56.2594 75.2801 57.2689 75.2801 57.2689Z" fill="#6CF479"/>
<path d="M22.6922 20.7023L26.7533 17.414C24.8526 18.9491 23.6478 21.2798 23.2822 24.1008L19.2461 27.2063C19.6407 24.4643 20.8352 22.2084 22.6943 20.7023H22.6902H22.6922Z" fill="black"/>
<path d="M19.1046 29.4145L23.1657 26.2903C23.1761 26.8677 23.2197 27.4556 23.2903 28.058L19.2126 31.1947C19.1441 30.5881 19.1067 29.9919 19.1025 29.4165L19.1046 29.4145Z" fill="black"/>
<path d="M71.7574 90.7395C71.7574 75.1393 59.111 62.497 43.517 62.497C59.1173 62.497 71.7574 49.8506 71.7574 34.2544C71.7574 49.8547 84.4039 62.497 100 62.497C84.3997 62.497 71.7574 75.1434 71.7574 90.7395Z" fill="#6CF479"/>
<path d="M71.7573 69.6635C73.9281 60.9514 84.4039 62.497 100 62.497C84.3997 62.497 71.7574 75.1434 71.7574 90.7395" fill="#006A4D"/>
<path d="M71.7573 69.6635C69.5866 60.9514 59.111 62.497 43.517 62.497C59.1173 62.497 71.7574 75.1434 71.7574 90.7395" fill="black"/>
<path d="M90.4858 62.1066C81.1568 62.1066 79.4825 62.8046 75.8535 59.6077C74.7006 58.5898 71.0675 54.0842 71.834 41.631C72.5548 54.2732 88.2361 62.1191 90.4858 62.1066Z" fill="white"/>
</svg>
