<svg width="100" height="100" viewBox="0 0 100 100" fill="none" xmlns="http://www.w3.org/2000/svg">
<g clip-path="url(#clip0_15980_14566)">
<rect width="100" height="100" fill="#11B67A"/>
<path d="M100.023 35.1907L90.043 35.4317L71.6033 24.7645C70.4073 24.0712 68.6443 24.3251 67.6958 25.3239L39.3544 55.11L23.7963 65.473V70.9167C23.8311 71.5328 24.1933 72.1205 24.8441 72.4955L52.2163 88.3293C53.4123 89.0227 55.1753 88.7688 56.1239 87.77L99.4227 42.2635C99.8403 41.824 100.039 41.3149 100.031 40.8265V35.192H100.025L100.023 35.1907Z" fill="black"/>
<path d="M56.1223 82.1844C55.1673 83.1897 53.4107 83.4371 52.2148 82.7437L24.8425 66.9099C23.6465 66.2165 23.4481 64.8285 24.3966 63.831L67.6955 18.3232C68.6505 17.318 70.4071 17.0705 71.603 17.7639L98.9753 33.5977C100.171 34.2911 100.37 35.6791 99.4212 36.6766L56.1223 82.1831V82.1844Z" fill="#006A4D"/>
<path d="M85.0454 32.6001L80.4019 29.8821C79.9212 29.5986 79.8284 28.9413 80.2112 28.5366C80.7486 27.9709 81.5992 27.8574 82.2707 28.2467L86.9141 30.9647C87.4025 31.2482 87.4876 31.9132 87.0984 32.3166H87.092C86.5545 32.8759 85.7117 32.9893 85.0467 32.6001H85.0454Z" fill="#6CF479"/>
<path d="M47.3602 69.6925C47.3035 71.3344 45.4426 72.7224 43.1975 72.7856C40.9538 72.8487 39.1843 71.5754 39.2474 69.9335C39.3041 68.2916 41.1651 66.9036 43.4102 66.8405C45.6539 66.7773 47.4234 68.0506 47.3602 69.6925Z" fill="#6CF479"/>
<path d="M77.8591 27.9209C78.6247 27.841 79.1982 27.3229 79.1402 26.7623C79.0822 26.203 78.4133 25.8137 77.6478 25.8937C76.8822 25.9736 76.3087 26.4916 76.3667 27.0523C76.4247 27.6116 77.0936 28.0008 77.8591 27.9222V27.9209Z" fill="#6CF479"/>
<path d="M6.50088 33.2259C6.50088 33.2259 8.62478 40.2613 17.2248 42.2087C17.2248 42.2087 10.7061 43.3338 10.5786 51.163C10.5786 51.163 8.28454 44.3815 0.03125 42.2022C0.03125 42.2022 6.92618 41.3813 6.50088 33.2272V33.2259Z" fill="white"/>
<path d="M54.9126 11.2793C54.9126 11.2793 55.847 14.3723 59.6334 15.2294C59.6334 15.2294 56.7672 15.7243 56.7027 19.1717C56.7027 19.1717 55.6911 16.1844 52.0593 15.2294C52.0593 15.2294 55.0956 14.8685 54.9049 11.2793H54.9126Z" fill="white"/>
<path d="M68.8854 45.1499C68.8854 45.1499 70.2592 49.7018 75.8293 50.9609C75.8293 50.9609 71.6111 51.6904 71.5261 56.7578C71.5261 56.7578 70.0401 52.3696 64.702 50.9609C64.702 50.9609 69.1612 50.43 68.8854 45.1563V45.1486V45.1499Z" fill="white"/>
<path d="M58.2979 29.1827L56.4098 36.0815L60.7762 36.9708L60.1292 41.9905L56.7372 45.9084L56.1985 47.2796L52.8747 51.1189L47.5714 49.1613L45.4759 49.7L38.4057 50.2851L34.8693 46.8183L54.0527 28.7484L58.2979 29.1827Z" fill="#006A4D"/>
<path d="M60.7762 36.9708C60.7749 36.8612 60.7432 36.797 60.6298 36.7583C60.4855 36.7107 60.3476 36.6423 60.211 36.5753C59.3101 36.1294 58.5446 35.5134 57.9183 34.7259C57.4298 34.1138 57.0651 33.4372 56.864 32.6768C56.7558 32.267 56.7107 31.8507 56.7403 31.428C56.7493 31.2952 56.7609 31.1612 56.806 31.0336C56.8138 30.8751 56.8718 30.7295 56.9285 30.5851C57.1901 29.9291 57.6515 29.4652 58.2984 29.1842C58.3423 29.1649 58.4454 29.1327 58.4505 29.1262C58.4647 29.0811 58.4325 29.0489 58.4144 29.0141C58.1824 28.5733 57.9363 28.139 57.676 27.7137C56.8679 26.3927 55.9516 25.1517 54.9244 23.9931C54.8677 23.9286 54.8097 23.8655 54.7556 23.7997C54.7324 23.7714 54.7092 23.7559 54.6809 23.7559C54.6654 23.7559 54.6486 23.7598 54.6306 23.7688C54.5803 23.7933 54.5288 23.8139 54.4759 23.8332C54.0842 23.9802 53.6859 24.042 53.2825 24.042C53.0325 24.042 52.7812 24.0188 52.5273 23.9763C51.9873 23.8874 51.4757 23.7069 50.9872 23.4621C50.2745 23.1038 49.6482 22.6308 49.1031 22.0496C48.536 21.4451 48.0914 20.7647 47.813 19.9811C47.6016 19.387 47.5114 18.7774 47.5952 18.1485C47.6055 18.0724 47.5862 18.0273 47.5153 17.9874C47.1171 17.7683 46.7162 17.5556 46.309 17.3546C45.1066 16.7579 43.8655 16.2578 42.5819 15.8661C42.3048 15.781 42.0277 15.6946 41.7442 15.6341C41.7364 15.6341 41.7287 15.6341 41.721 15.6341C41.7042 15.6341 41.6887 15.6315 41.6759 15.6147C41.6694 15.6122 41.6643 15.6109 41.6578 15.6109C41.6501 15.6109 41.6424 15.6135 41.6346 15.6199C41.6282 15.8506 41.5869 16.0774 41.5096 16.2926C41.4014 16.5916 41.2725 16.8855 41.0585 17.1265C40.8691 17.3391 40.6668 17.5376 40.4103 17.6768C40.2041 17.7889 39.9979 17.892 39.7723 17.959C39.7092 17.9784 39.5494 18.0196 39.5313 18.0222C39.2684 18.0737 39.0055 18.0982 38.7426 18.0982C38.4552 18.0982 38.1678 18.0686 37.8804 18.0106C37.1304 17.8598 36.4434 17.5556 35.8055 17.1368C35.0658 16.6509 34.4407 16.0478 33.9419 15.3158C33.8955 15.2487 33.8788 15.2268 33.8376 15.2268C33.8169 15.2268 33.7899 15.232 33.7486 15.241C33.179 15.3544 32.6184 15.5026 32.0681 15.6882C31.2329 15.9704 30.4391 16.3403 29.6877 16.8017C29.5176 16.9061 29.3449 17.0092 29.189 17.1368C29.1915 17.1858 29.2366 17.209 29.2585 17.2463C29.3771 17.4538 29.5253 17.6433 29.6362 17.8585C29.7186 18.0196 29.7805 18.1897 29.8656 18.3495C29.9558 18.5183 30.0086 18.6975 30.0563 18.8805C30.0666 18.923 30.1104 18.954 30.1001 19.0029C30.1504 19.1318 30.1633 19.2684 30.1903 19.4012C30.2522 19.7053 30.238 20.0133 30.2341 20.3213C30.2329 20.4734 30.2019 20.6242 30.162 20.7685C30.0524 21.1732 29.8823 21.5457 29.6001 21.8666C29.3075 22.1978 28.9505 22.422 28.5446 22.5818C28.3293 22.6669 28.1051 22.7172 27.8796 22.7507C27.779 22.7661 27.6759 22.7816 27.5703 22.7816C27.5548 22.7816 27.5406 22.7816 27.5251 22.7816C27.4813 22.779 27.4375 22.779 27.3937 22.779C27.3189 22.779 27.2429 22.7803 27.1669 22.7803C27.056 22.7803 26.9452 22.7765 26.8357 22.7558C26.7403 22.7275 26.641 22.7326 26.5444 22.7133C26.3601 22.6862 26.181 22.6373 26.0018 22.5883C25.7763 22.5251 25.5598 22.4349 25.3394 22.3563H25.3342C25.3188 22.3563 25.3046 22.3524 25.2943 22.3383C25.2878 22.3344 25.2814 22.3331 25.275 22.3331C25.2672 22.3331 25.2595 22.3357 25.253 22.3421C25.2118 22.4723 25.1706 22.6038 25.128 22.7339C25.003 23.1102 24.9154 23.4969 24.8303 23.8835C24.7736 24.1425 24.7324 24.4055 24.695 24.6697C24.6731 24.8269 24.6576 24.9854 24.6435 25.1439C24.6267 25.3244 24.6177 25.5061 24.5971 25.6852C24.57 25.9301 24.5867 26.1749 24.5803 26.4198C24.5764 26.5719 24.5803 26.7252 24.5803 26.8773C24.5803 27.0887 24.5739 27.3 24.6035 27.5114C25.1731 27.7189 25.6964 28.0114 26.1835 28.3723C26.498 28.6043 26.7944 28.8582 27.0612 29.1443C27.2532 29.3505 27.444 29.558 27.5973 29.7964C27.636 29.8106 27.6476 29.8492 27.6682 29.8789C27.8293 30.1186 27.9878 30.3596 28.1167 30.6173C28.2945 30.9718 28.4363 31.3416 28.5265 31.7283C28.5343 31.7605 28.5716 31.8997 28.5794 31.9383C28.6 32.0401 28.6142 32.1432 28.6193 32.2451C28.627 32.4036 28.6631 32.5621 28.6464 32.7219C28.6193 32.9938 28.6 33.2645 28.5175 33.53C28.435 33.7954 28.3255 34.0455 28.1695 34.2723C28.0187 34.4888 27.8396 34.6821 27.6257 34.8406C27.4272 34.9876 27.212 35.101 26.9852 35.1963C26.9491 35.2118 26.8898 35.2054 26.882 35.2647C26.9555 35.3987 27.0315 35.5301 27.1024 35.6655C27.2055 35.8639 27.3151 36.0572 27.4324 36.248C27.5032 36.3614 27.5522 36.4851 27.6205 36.5998C27.7107 36.7493 27.8138 36.8885 27.9066 37.0354C28.0574 37.2738 28.2069 37.5136 28.3744 37.7417C28.4054 37.7829 28.4312 37.8267 28.4518 37.877C28.4853 37.9595 28.5562 38.0188 28.6064 38.0909C28.7044 38.2301 28.7946 38.3745 28.8977 38.5098C28.957 38.5884 29.0163 38.6683 29.0743 38.7482C29.2276 38.9248 29.3604 39.1168 29.506 39.2985C29.6142 39.4325 29.7225 39.5679 29.832 39.7019C29.9145 39.8024 29.997 39.9016 30.073 40.006C30.1568 40.122 30.2741 40.211 30.3643 40.3231C30.4519 40.4326 30.546 40.537 30.6375 40.644C30.6955 40.6414 30.7419 40.6066 30.7935 40.586C31.1247 40.4545 31.4649 40.3721 31.8219 40.3553C31.8851 40.3527 31.9482 40.3411 32.0114 40.3411C32.0371 40.3411 32.0629 40.3424 32.0887 40.3476C32.1325 40.3411 32.1763 40.3385 32.2201 40.3385C32.3323 40.3385 32.4444 40.3553 32.5552 40.3656C32.9586 40.4068 33.353 40.5009 33.7357 40.6375C34.3814 40.8682 34.973 41.202 35.5117 41.626C35.8712 41.9096 36.205 42.2189 36.4976 42.5746C36.611 42.7125 36.727 42.8465 36.8262 42.9947C36.8945 43.0488 36.9293 43.1287 36.9757 43.1983C37.2502 43.6133 37.4706 44.0554 37.6227 44.5296C37.6652 44.6624 37.7554 45.0168 37.7644 45.0606C37.8366 45.4086 37.8392 45.7604 37.8289 46.1122C37.8263 46.2037 37.8018 46.2952 37.8083 46.388C38.0763 46.5414 38.347 46.6883 38.6215 46.8301C39.097 47.0762 39.579 47.3095 40.0688 47.526C40.7015 47.8057 41.3434 48.0596 41.9981 48.2838C42.5161 48.4617 43.6941 48.8225 43.774 48.8225C43.8217 48.7207 43.8178 48.6073 43.8384 48.499C43.984 47.7 44.3965 47.0866 45.1014 46.6767C45.4365 46.4821 45.8012 46.3777 46.1827 46.3184C46.3 46.2927 46.501 46.2824 46.693 46.2824C46.8657 46.2824 47.032 46.2914 47.1248 46.3056C47.5217 46.3442 47.9096 46.4331 48.286 46.5646C48.9561 46.7992 49.5644 47.1458 50.1225 47.584C50.4047 47.8044 50.6715 48.0428 50.9086 48.3109C51.0555 48.4758 51.5066 49.0609 51.5749 49.1602H51.5801C51.7244 49.1602 52.9539 48.838 53.4552 48.6627C53.7813 48.5493 54.1022 48.4179 54.4167 48.2748C54.994 48.0119 56.1874 47.2837 56.199 47.2773C56.2712 47.2232 56.2712 47.2232 56.23 47.1587C56.2145 47.1342 56.1952 47.1097 56.1784 47.0865C55.8897 46.6793 55.6526 46.245 55.4773 45.7772C55.4657 45.7462 55.4554 45.714 55.4438 45.6831C55.4245 45.6251 55.4039 45.5735 55.3832 45.5039C55.3124 45.2513 55.2453 45 55.2273 44.7371C55.1796 44.4871 55.1873 44.2358 55.208 43.9832C55.2221 43.8092 55.2531 43.6378 55.3008 43.469C55.5379 42.6377 56.0624 42.0629 56.8666 41.7485C57.2081 41.6144 57.5638 41.5423 57.9324 41.5423C57.9505 41.5423 57.9685 41.5423 57.9878 41.5423C58.0458 41.5397 58.1038 41.5371 58.1605 41.5371C58.524 41.5371 58.881 41.5951 59.2341 41.684C59.4983 41.751 59.7535 41.84 60.0048 41.9431C60.046 41.9598 60.0847 41.9817 60.1298 41.9882C60.1633 41.9637 60.1646 41.9237 60.1762 41.8902C60.2909 41.5487 60.3875 41.2007 60.4687 40.8489C60.7007 39.8475 60.8025 38.832 60.8012 37.8048C60.8012 37.5252 60.7819 37.2468 60.7767 36.9684L60.7762 36.9708ZM51.8404 35.1487C51.8327 35.3446 51.8224 35.5404 51.8017 35.7351C51.7798 35.9451 51.7502 36.1526 51.7102 36.3601C51.6857 36.4877 51.6548 36.6127 51.6162 36.7364C51.5723 36.8782 51.5388 37.0225 51.4899 37.163C51.3571 37.5432 51.1896 37.9066 50.9731 38.2456C50.8042 38.5111 50.6161 38.7637 50.4047 38.9995C50.0439 39.4016 49.6289 39.7315 49.1636 40.0022C48.893 40.1594 48.612 40.2921 48.3221 40.412C48.2898 40.4249 48.1829 40.4713 48.17 40.4713C47.929 40.5473 47.688 40.6247 47.4418 40.6814C46.867 40.8154 46.2845 40.8773 45.6981 40.8773C45.5667 40.8773 45.4339 40.8747 45.3025 40.8682C44.1207 40.8128 42.9853 40.5435 41.8859 40.1117C40.6436 39.6233 39.5069 38.9531 38.4578 38.1309C37.3043 37.2262 36.3055 36.1745 35.4833 34.9605C34.7603 33.8921 34.2049 32.7464 33.8711 31.4963C33.643 30.6418 33.5398 29.7732 33.5888 28.8891C33.6043 28.603 33.6429 28.3195 33.6971 28.0372C33.7048 27.9973 33.7383 27.8439 33.7473 27.8065C33.8272 27.4663 33.9316 27.1325 34.0747 26.8129C34.3092 26.2858 34.6134 25.8051 35 25.3746C35.4653 24.8552 36.0156 24.4506 36.6406 24.1451C37.2128 23.8655 37.8147 23.6825 38.4423 23.5819C38.5893 23.5587 38.7349 23.5355 38.8831 23.5252C39.1615 23.493 39.4398 23.475 39.7195 23.475C39.8046 23.475 39.8896 23.4763 39.9734 23.4801C40.5044 23.502 41.0315 23.5626 41.5547 23.6644C42.3048 23.8113 43.0316 24.0369 43.7379 24.3281C44.4235 24.6117 45.0795 24.9532 45.7084 25.3463C46.318 25.7277 46.8954 26.153 47.4418 26.6196C47.938 27.0423 48.4032 27.4985 48.8337 27.987C49.0541 28.237 49.2706 28.4909 49.4716 28.7576C49.5103 28.8079 49.6173 28.9471 49.6353 28.9716C49.8132 29.2229 49.9949 29.4703 50.1457 29.7397C50.2256 29.8815 50.3338 30.0065 50.406 30.1534C50.5555 30.4562 50.7488 30.7346 50.8751 31.0491C50.9215 31.1664 50.9847 31.2772 51.0323 31.3932C51.2115 31.8275 51.3842 32.2644 51.5027 32.7206C51.5066 32.7348 51.5066 32.7503 51.5079 32.7644C51.5723 32.8869 51.5904 33.0235 51.6187 33.1562C51.6651 33.3689 51.7038 33.5841 51.745 33.798C51.7618 33.8818 51.7657 33.9669 51.7734 34.0506C51.7901 34.2491 51.8198 34.4476 51.8288 34.6473C51.8365 34.8136 51.8481 34.9811 51.8417 35.1474L51.8404 35.1487Z" fill="#6CF379"/>
<path d="M34.9265 27.6051C34.942 27.6038 34.9574 27.6012 34.9729 27.5999C35.0038 27.6051 35.0335 27.596 35.0605 27.5831C35.076 27.5819 35.0915 27.5793 35.1069 27.578C35.152 27.5831 35.1946 27.5728 35.2358 27.5599C35.2526 27.5587 35.268 27.5574 35.2848 27.5561C35.3299 27.5599 35.3724 27.5496 35.4149 27.538C35.4381 27.5367 35.4613 27.5355 35.4858 27.5342C35.5516 27.5393 35.616 27.5277 35.6804 27.5148C35.8183 27.5097 35.9549 27.5007 36.0928 27.4981C36.9164 27.4839 37.727 27.5831 38.5273 27.7739C39.3444 27.9685 40.1293 28.2546 40.8871 28.6154C41.5882 28.9492 42.2532 29.341 42.8885 29.7869C43.7198 30.372 44.4815 31.0358 45.1722 31.7807C45.8347 32.4959 46.4172 33.2705 46.9121 34.1121C47.0487 34.3453 47.1724 34.5863 47.3 34.8248C47.309 34.8492 47.3167 34.8737 47.3283 34.8969C47.4624 35.1495 47.5719 35.4124 47.6802 35.6766C47.8103 35.9962 47.916 36.3236 48.0217 36.6522C48.0178 36.6741 48.0204 36.6961 48.0269 36.718C48.2099 37.3172 48.3143 37.932 48.3529 38.5557C48.3761 38.9359 48.3735 39.3148 48.3375 39.6912C48.5166 39.6087 48.6828 39.5249 48.8362 39.436C49.2551 39.1924 49.6095 38.9063 49.9175 38.5622C50.0979 38.3611 50.2616 38.1433 50.4214 37.8933C50.6018 37.6098 50.75 37.3005 50.8725 36.9474C50.8944 36.8855 50.9137 36.8146 50.9343 36.7399C50.9524 36.6767 50.9704 36.611 50.9923 36.5414C51.022 36.4486 51.0465 36.3481 51.0684 36.236C51.1032 36.0581 51.1302 35.8712 51.1521 35.6676C51.1702 35.5001 51.1792 35.3287 51.1869 35.1225C51.1908 35.0142 51.1856 34.8943 51.1792 34.768L51.1753 34.6804C51.1702 34.5747 51.1586 34.4639 51.1457 34.3466C51.1367 34.268 51.1289 34.1894 51.1212 34.1095L51.1161 34.0541C51.1122 34.0025 51.1083 33.9548 51.1019 33.9239C51.0916 33.8672 51.08 33.8118 51.0697 33.7551C51.04 33.5966 51.0104 33.4458 50.9781 33.2963C50.9717 33.2666 50.9653 33.2357 50.9601 33.2061C50.9511 33.1571 50.9369 33.0901 50.9292 33.072L50.8712 32.9625L50.8583 32.8439C50.7475 32.4315 50.5851 32.0255 50.4278 31.6428C50.4124 31.6041 50.3905 31.5603 50.3673 31.5126C50.3363 31.4482 50.3003 31.3747 50.268 31.2922C50.2088 31.1453 50.1224 30.9932 50.0309 30.8321C49.96 30.7084 49.8878 30.5808 49.8195 30.4416C49.8002 30.4017 49.7628 30.3476 49.7229 30.2909C49.6765 30.2238 49.6249 30.1478 49.576 30.0602C49.4574 29.8488 49.3118 29.6439 49.1571 29.4261L49.1056 29.3539C49.0927 29.3372 49.063 29.2972 49.0321 29.2585C48.9999 29.2173 48.9677 29.1761 48.9509 29.1516C48.7512 28.8861 48.5334 28.6335 48.3452 28.4208C47.9431 27.9646 47.4959 27.5264 47.019 27.1179C46.4984 26.6733 45.9403 26.2634 45.363 25.9013C44.7598 25.5224 44.1296 25.1976 43.4904 24.9334C42.8112 24.6525 42.1178 24.4424 41.4322 24.3071C40.9554 24.2143 40.4566 24.155 39.9501 24.1344C39.8754 24.1318 39.7993 24.1292 39.7233 24.1292C39.4823 24.1292 39.2323 24.1447 38.9616 24.1756H38.9488L38.9359 24.1782C38.8134 24.1872 38.6833 24.2066 38.5505 24.2285C37.9719 24.3213 37.4267 24.4914 36.9331 24.7337C36.3661 25.0108 35.8944 25.3639 35.4923 25.8124C35.1623 26.1797 34.8891 26.605 34.6791 27.0792C34.5914 27.2764 34.5167 27.4852 34.4535 27.7133C34.5837 27.6811 34.7139 27.6502 34.844 27.6231C34.8749 27.6283 34.9033 27.6192 34.9317 27.6063L34.9265 27.6051ZM35.5541 27.4594C35.5412 27.4736 35.5309 27.4891 35.5335 27.5123C35.567 27.5123 35.5992 27.5123 35.6327 27.5135C35.5992 27.5135 35.567 27.5135 35.5335 27.5135C35.5309 27.4916 35.5412 27.4749 35.5541 27.4607V27.4594ZM25.9322 21.4602C26.0469 21.6252 26.1487 21.7978 26.2415 21.9744C26.3716 22.0105 26.5108 22.0466 26.6384 22.0646L26.6552 22.0672L26.668 22.0698C26.6784 22.0711 26.7067 22.0736 26.7273 22.0762C26.7918 22.0827 26.8781 22.0904 26.9761 22.1149C27.0366 22.1239 27.1062 22.1252 27.1681 22.1252C27.2029 22.1252 27.2377 22.1252 27.2725 22.1252C27.3124 22.1252 27.3537 22.1252 27.3936 22.1252C27.4542 22.1252 27.5058 22.1252 27.556 22.1291C27.5612 22.1291 27.565 22.1291 27.5702 22.1291C27.623 22.1291 27.6952 22.1188 27.7725 22.1072H27.7828C27.9916 22.0749 28.1579 22.0324 28.3048 21.9744C28.6489 21.8391 28.9041 21.669 29.109 21.4357C29.301 21.2192 29.435 20.9524 29.5304 20.5993C29.5626 20.4807 29.5781 20.3905 29.5794 20.3158C29.5794 20.2745 29.5794 20.2346 29.5807 20.1933C29.5845 19.9549 29.5884 19.7294 29.5485 19.5348C29.5394 19.4909 29.5317 19.4471 29.524 19.4046C29.5124 19.3402 29.5008 19.2744 29.4892 19.2422L29.4209 19.0657L29.4234 19.0528C29.4234 19.0528 29.4222 19.0476 29.4209 19.045C29.3809 18.8891 29.3435 18.7654 29.2881 18.6623C29.2301 18.5553 29.1837 18.4483 29.1425 18.3542C29.1116 18.2847 29.0819 18.2176 29.0523 18.1596C29.0059 18.0694 28.9427 17.9728 28.8757 17.871C28.8293 17.8001 28.7816 17.7279 28.7339 17.6493C27.9027 18.6197 27.0714 19.5915 26.2402 20.5632C26.0881 20.7411 25.9373 20.9215 25.7827 21.098C25.7414 21.1444 25.735 21.1818 25.7749 21.2334C25.8316 21.3068 25.8793 21.3867 25.9322 21.4628V21.4602ZM53.6717 49.2835C53.2966 49.4137 51.8906 49.817 51.5813 49.817C51.5594 49.817 51.5401 49.817 51.5233 49.8145L51.2153 49.7887L51.0387 49.5361C50.9859 49.46 50.5503 48.8943 50.4201 48.7474C50.232 48.5347 50.0038 48.3233 49.7203 48.1017C49.2035 47.697 48.6493 47.389 48.072 47.1854C47.7369 47.0681 47.3979 46.992 47.0642 46.9598H47.0461L47.0281 46.9547C46.9894 46.9482 46.8657 46.9392 46.6956 46.9392C46.4713 46.9392 46.3515 46.9547 46.3231 46.9611L46.3038 46.965L46.2844 46.9676C45.9365 47.0217 45.6658 47.1093 45.4326 47.2446C44.9003 47.554 44.5987 47.9908 44.484 48.6185C44.4815 48.6301 44.4789 48.6546 44.4763 48.6765C44.4647 48.7783 44.4467 48.9342 44.3693 49.1018L44.1979 49.4691L43.792 49.4794H43.7752C43.6747 49.4794 43.6193 49.4794 42.8602 49.2474C42.4619 49.1263 42.0405 48.9909 41.7866 48.9046C41.1371 48.6816 40.4695 48.42 39.8045 48.1275C39.3225 47.9148 38.8237 47.6751 38.3211 47.4135C38.008 47.2511 37.7347 47.1016 37.4834 46.9585L37.1806 46.7846L37.1561 46.4353C37.1483 46.3167 37.1599 46.2175 37.1703 46.1453C37.1728 46.1273 37.1754 46.1028 37.1754 46.0951C37.1831 45.7986 37.1831 45.4842 37.1251 45.1968C37.111 45.1362 37.0323 44.8321 37.0001 44.7303C36.8713 44.3294 36.6844 43.9467 36.4292 43.5588C36.4125 43.533 36.3957 43.5059 36.3789 43.4789L36.3764 43.475L36.339 43.4453L36.281 43.3577C36.2178 43.2636 36.1379 43.167 36.0529 43.0639L35.991 42.9891C35.75 42.6966 35.4613 42.4182 35.1056 42.1398C34.6146 41.7532 34.0798 41.4555 33.514 41.2531C33.1699 41.1294 32.8245 41.0495 32.4881 41.016C32.4598 41.0134 32.4314 41.0096 32.4031 41.007C32.3335 40.9993 32.2678 40.9915 32.2175 40.9915C32.202 40.9915 32.1879 40.9915 32.1775 40.9941L32.0693 41.0096L31.9945 40.9954C31.9855 40.9954 31.9765 40.998 31.9675 40.998C31.9365 41.0018 31.8966 41.0057 31.8528 41.007C31.586 41.0199 31.3218 41.0805 31.0434 41.1887L31.0383 41.1913C30.9751 41.2235 30.8437 41.2892 30.6632 41.2957L30.3462 41.3086L30.14 41.0676C30.1129 41.0366 30.0872 41.0057 30.0601 40.9748C29.9931 40.8974 29.9235 40.8175 29.8539 40.7312C29.8358 40.708 29.8023 40.6758 29.7688 40.641C29.7031 40.5753 29.6206 40.4928 29.5433 40.3871C29.484 40.3046 29.4144 40.2208 29.3423 40.1332L29.3268 40.1139C29.2507 40.0211 29.176 39.9283 29.1012 39.8355L28.9969 39.7066C28.9311 39.6254 28.8706 39.5455 28.8113 39.4669C28.7314 39.3625 28.6566 39.2633 28.5806 39.1744L28.5638 39.155L28.5484 39.1344L28.4942 39.0609C28.4543 39.0068 28.4156 38.954 28.3744 38.8998C28.3009 38.8019 28.2352 38.7065 28.1733 38.6137C28.1398 38.5635 28.1063 38.5132 28.0728 38.4668C28.0651 38.4578 28.0573 38.4488 28.0496 38.4398C27.9968 38.3779 27.9104 38.2761 27.8486 38.1292L27.846 38.1253C27.6772 37.8946 27.5289 37.6601 27.3846 37.4319L27.3537 37.3817C27.3189 37.3275 27.2802 37.2708 27.2403 37.2116C27.181 37.1239 27.1191 37.0337 27.0598 36.9345C27.0134 36.8571 26.9761 36.7837 26.9438 36.7192C26.9194 36.669 26.8949 36.6226 26.8743 36.5891C26.7505 36.3893 26.632 36.1793 26.5211 35.964C26.4773 35.8803 26.4309 35.7952 26.3807 35.7063C26.3575 35.6637 26.333 35.6212 26.3098 35.5787L26.2028 35.3854L26.235 35.1676C26.2518 35.0567 26.3381 34.6959 26.7686 34.576C26.9516 34.4961 27.1049 34.4098 27.2377 34.3131C27.3846 34.2049 27.5174 34.0657 27.6321 33.8981C27.7377 33.7448 27.8228 33.5605 27.8937 33.3336C27.9465 33.1622 27.9658 32.9612 27.9865 32.7485L27.9955 32.6558C27.9993 32.621 27.9916 32.5526 27.9839 32.4856C27.9774 32.4225 27.9684 32.3516 27.9658 32.273C27.9633 32.2163 27.9542 32.1467 27.9388 32.0681C27.9336 32.0449 27.922 32.0011 27.913 31.965C27.9027 31.9237 27.8937 31.8876 27.8898 31.8735C27.8163 31.5564 27.7004 31.2407 27.5328 30.9082C27.4336 30.711 27.3099 30.5151 27.1926 30.3398L27.1668 30.3308L27.0495 30.1504C26.9271 29.9622 26.766 29.7844 26.583 29.5885C26.3613 29.3513 26.1036 29.1245 25.7956 28.8964C25.3367 28.5575 24.8741 28.3049 24.3805 28.1244L24.0119 27.9891L23.9578 27.5999C23.9268 27.3821 23.9281 27.1746 23.9281 26.9916C23.9281 26.9542 23.9281 26.9156 23.9281 26.8782V26.7648C23.9268 26.6475 23.9255 26.5251 23.9281 26.4001C23.9307 26.3266 23.9294 26.2493 23.9281 26.1668C23.9281 25.9992 23.9255 25.8085 23.9487 25.6113C23.9603 25.5121 23.9681 25.4103 23.9758 25.302C23.981 25.2298 23.9874 25.1564 23.9938 25.0842C24.0067 24.9463 24.0235 24.7646 24.0493 24.579C24.0841 24.3329 24.1279 24.0416 24.1923 23.7426C24.2104 23.6601 24.2284 23.5815 24.2464 23.5016C23.4693 24.4089 22.6922 25.3175 21.9151 26.2248C21.848 26.3021 21.7978 26.3859 21.7681 26.4838C21.7269 26.623 21.6779 26.7596 21.6367 26.8988C21.3764 27.7868 21.2191 28.6941 21.1573 29.6181C21.1173 30.2174 21.1186 30.8154 21.1444 31.4147C21.1457 31.4572 21.1392 31.5036 21.1805 31.5345C21.4266 31.6389 21.6741 31.742 21.9099 31.8696C22.7579 32.3271 23.477 32.9354 24.0673 33.6958C24.3856 34.1069 24.6473 34.5515 24.8457 35.0322C24.9321 35.2423 24.9965 35.4601 25.0661 35.6753C25.0661 35.7359 25.0854 35.7913 25.1035 35.8467C25.1409 36.0877 25.1821 36.3262 25.1885 36.571C25.1937 36.7863 25.1718 36.9976 25.1486 37.2103C25.1293 37.2683 25.0867 37.3121 25.0481 37.3572C24.5313 37.9578 24.0145 38.5596 23.499 39.1602C23.4457 39.222 23.438 39.2891 23.4758 39.3612C23.7838 39.9438 24.1124 40.5134 24.4643 41.0701C24.8174 41.6295 25.1911 42.1746 25.5855 42.7043C25.6138 42.743 25.6383 42.7855 25.6783 42.8138C25.6899 42.8319 25.7015 42.8512 25.7144 42.8693C25.9902 43.2314 26.266 43.5936 26.5637 43.9377C26.7531 44.1567 26.9413 44.3758 27.132 44.5936C27.1591 44.6246 27.181 44.6761 27.239 44.64C27.5058 44.5279 27.7815 44.4467 28.0664 44.3978C28.105 44.4016 28.1411 44.3913 28.1772 44.381C28.3602 44.372 28.5432 44.363 28.7262 44.3539C28.8744 44.3655 29.0239 44.3694 29.1708 44.3887C29.881 44.4789 30.5447 44.7109 31.1684 45.0576C32.0409 45.5422 32.773 46.1866 33.3594 46.9933C33.7189 47.4869 33.9986 48.0218 34.179 48.6069C34.3002 49 34.3685 49.4021 34.3723 49.8145C34.362 49.8441 34.3672 49.875 34.3723 49.9047C34.3633 50.0194 34.3517 50.1341 34.3453 50.2488C34.3427 50.2952 34.313 50.3403 34.3388 50.388C34.3646 50.4279 34.4097 50.4395 34.4471 50.4614C34.9664 50.7527 35.4948 51.0246 36.0323 51.2772C37.3803 51.9113 38.7722 52.4255 40.213 52.8044C40.2994 52.8276 40.3471 52.8044 40.4012 52.7413C41.0134 52.0311 41.6281 51.3236 42.2429 50.6161C42.3189 50.5297 42.3846 50.4331 42.4774 50.3635C42.6746 50.3325 42.8718 50.299 43.0715 50.2965C43.2159 50.2952 43.3589 50.2965 43.5033 50.2965C43.9157 50.33 44.3204 50.406 44.7121 50.5387C45.912 50.9447 46.8992 51.6574 47.706 52.6291C47.8477 52.8005 47.9689 52.9887 48.1068 53.1627C48.1055 53.1704 48.1068 53.1769 48.1068 53.1846H48.1519C48.1519 53.1769 48.1519 53.1704 48.1532 53.1627C48.1931 53.155 48.2331 53.1472 48.2717 53.1395C48.6867 53.0519 49.0978 52.95 49.5025 52.8199C49.9123 52.6884 50.317 52.5492 50.7088 52.3675C50.9537 52.2541 51.2011 52.1458 51.4421 52.0273C51.8738 51.8146 52.2798 51.5607 52.6768 51.2901C52.7476 51.2411 52.8121 51.1883 52.8688 51.1226C53.5557 50.3325 54.2426 49.5438 54.9295 48.7551C54.8406 48.8002 54.7568 48.8414 54.6821 48.8749C54.3367 49.0322 53.9939 49.1701 53.6652 49.2848L53.6717 49.2835ZM58.1605 42.1952C58.1141 42.1952 58.0677 42.1952 58.0213 42.1991H57.9749C57.9607 42.1991 57.9465 42.1991 57.9324 42.1991C57.6579 42.1991 57.3795 42.2532 57.105 42.3602C56.4864 42.6025 56.1126 43.0136 55.9296 43.6516C55.8948 43.7753 55.8703 43.9054 55.86 44.0395C55.8446 44.2199 55.8342 44.43 55.8703 44.6181L55.8781 44.6568L55.8806 44.6955C55.8935 44.8939 55.9502 45.1079 56.0134 45.327C56.0211 45.3527 56.0288 45.3759 56.0404 45.4081C56.0482 45.4301 56.0559 45.452 56.0636 45.4739C56.0727 45.4997 56.0804 45.5241 56.0907 45.5499C56.1242 45.6414 56.1616 45.7316 56.2015 45.8206C56.3162 45.8605 56.4309 45.903 56.5444 45.9494C56.6591 45.9971 56.6591 45.9984 56.739 45.9082C57.6579 44.8527 58.5767 43.7972 59.4956 42.7417C59.5588 42.6695 59.6219 42.596 59.6838 42.5226C59.4712 42.4375 59.2701 42.3705 59.0742 42.3203C58.734 42.2339 58.435 42.1927 58.1605 42.1927V42.1952Z" fill="black"/>
<path d="M42.1731 16.5834L47.0691 18.6957C47.0691 18.6957 46.8372 19.9561 47.5331 21.3467C48.229 22.7385 50.3052 24.6292 51.8428 24.8019C53.4447 24.9823 54.5672 24.5892 54.5672 24.5892L57.4115 28.7378C57.4115 28.7378 55.4629 29.4943 55.9372 32.8154C56.4527 36.4279 59.9865 37.1096 59.9775 37.4705C59.9685 37.8313 59.7442 40.4978 59.5367 40.8484C59.4839 40.9386 57.5314 40.2053 55.847 41.4837C52.7732 43.819 55.0093 46.9636 55.0093 46.9636L51.8428 48.2936C51.8428 48.2936 53.9138 44.9943 51.9549 42.5444C50.7125 40.9901 48.6724 41.119 48.7471 41.0868C55.1356 38.3391 52.4846 31.7548 52.4846 31.7548C52.4846 31.7548 50.1248 25.8187 45.0883 23.5956C37.4175 20.2087 34.4482 23.4989 34.4482 23.4989C33.9005 21.1624 30.8706 21.5529 30.8706 21.5529C31.7534 19.4689 30.3821 17.3579 30.3821 17.3579L33.287 16.0988C33.287 16.0988 37.1907 21.1495 41.3496 17.9752C42.2775 17.2677 42.1731 16.5808 42.1731 16.5808V16.5834Z" fill="white"/>
<path d="M48.2761 53.138L33.5764 54.1832L37.8448 49.6493L47.8225 50.0089L48.2761 53.138Z" fill="black"/>
</g>
<defs>
<clipPath id="clip0_15980_14566">
<rect width="100" height="100" fill="white"/>
</clipPath>
</defs>
</svg>
