<svg width="100" height="100" viewBox="0 0 100 100" fill="none" xmlns="http://www.w3.org/2000/svg">
<rect width="100" height="100" fill="#11B67A"/>
<path d="M59.4859 85.6007C59.0267 85.0599 58.7715 84.3761 58.7715 83.672V74.2731H38.9022V83.672C38.9022 84.3863 38.6572 85.0701 38.1878 85.6007L31.9423 92.9178C31.6667 93.2444 31.5136 93.6628 31.5136 94.0914V94.7037C31.5136 95.2038 31.9219 95.612 32.4219 95.612H65.2518C65.7518 95.612 66.16 95.2038 66.16 94.7037V94.0914C66.16 93.6628 66.007 93.2444 65.7314 92.9178L59.4859 85.6007Z" fill="#006A4D"/>
<path d="M97.2344 8.06198H2.77579C1.24503 8.06198 0 9.307 0 10.8378V70.0989C0 71.6297 1.24503 72.8747 2.77579 72.8747H97.2242C98.755 72.8747 100 71.6297 100 70.0989V10.848C100 9.31721 98.755 8.07218 97.2242 8.07218L97.2344 8.06198Z" fill="#006A4D"/>
<path d="M57.1495 85.2845L63.5889 92.6016H40.4845C40.4845 92.6016 56.68 91.826 57.1393 85.2845H57.1495Z" fill="white"/>
<path d="M2.7757 6.68565H97.2343C97.6731 6.68565 98.1017 6.7673 98.4997 6.91017C98.4181 5.54268 97.2751 4.46094 95.8974 4.46094H4.11257C2.72467 4.46094 1.5919 5.54268 1.51026 6.91017C1.91847 6.7775 2.33688 6.68565 2.7757 6.68565Z" fill="black"/>
<path d="M4.58067 12.6336V68.3127H95.4369V12.6336H4.58067Z" fill="black"/>
<path d="M8.23613 16.0351H22.0028C22.0028 16.0351 12.2059 20.7907 8.23613 39.6497V16.0351Z" fill="white"/>
<path d="M38.9119 74.2731V83.672C38.9119 84.0904 38.8098 84.5088 38.6364 84.8966H45.3105C46.9739 84.8966 48.5149 83.9781 49.2905 82.4984L50.6988 79.8655C51.0662 79.1715 51.7908 78.7429 52.5868 78.7429H58.7915V74.2833H38.9221L38.9119 74.2731Z" fill="black"/>
</svg>
