<svg width="100" height="100" viewBox="0 0 100 100" fill="none" xmlns="http://www.w3.org/2000/svg">
<g clip-path="url(#clip0_15980_14580)">
<rect width="100" height="100" fill="#11B67A"/>
<path d="M59.5171 85.5636C59.0579 85.0228 58.8028 84.339 58.8028 83.6349V74.2359H38.9334V83.6349C38.9334 84.3492 38.6885 85.033 38.219 85.5636L31.9735 92.8807C31.698 93.2073 31.5449 93.6257 31.5449 94.0543V94.6666C31.5449 95.1667 31.9531 95.5749 32.4532 95.5749H65.283C65.7831 95.5749 66.1913 95.1667 66.1913 94.6666V94.0543C66.1913 93.6257 66.0382 93.2073 65.7627 92.8807L59.5171 85.5636Z" fill="#006A4D"/>
<path d="M97.2657 8.02487H2.80704C1.27628 8.02487 0.03125 9.26989 0.03125 10.8007V70.0618C0.03125 71.5926 1.27628 72.8376 2.80704 72.8376H97.2555C98.7862 72.8376 100.031 71.5926 100.031 70.0618V10.8109C100.031 9.2801 98.7862 8.03507 97.2555 8.03507L97.2657 8.02487Z" fill="#006A4D"/>
<path d="M57.1807 85.2474L63.6202 92.5645H40.5158C40.5158 92.5645 56.7113 91.7889 57.1705 85.2474H57.1807Z" fill="white"/>
<path d="M2.80695 6.64854H97.2656C97.7044 6.64854 98.133 6.73019 98.531 6.87306C98.4493 5.50557 97.3064 4.42383 95.9287 4.42383H4.14382C2.75592 4.42383 1.62315 5.50557 1.54151 6.87306C1.94972 6.74039 2.36813 6.64854 2.80695 6.64854Z" fill="black"/>
<path d="M4.61192 12.5965V68.2756H95.4681V12.5965H4.61192Z" fill="black"/>
<path d="M8.26738 15.998H22.0341C22.0341 15.998 12.2372 20.7535 8.26738 39.6126V15.998Z" fill="white"/>
<path d="M38.9431 74.2359V83.6349C38.9431 84.0533 38.8411 84.4717 38.6676 84.8595H45.3418C47.0052 84.8595 48.5462 83.941 49.3218 82.4613L50.7301 79.8284C51.0974 79.1344 51.822 78.7058 52.618 78.7058H58.8227V74.2462H38.9534L38.9431 74.2359Z" fill="black"/>
</g>
<defs>
<clipPath id="clip0_15980_14580">
<rect width="100" height="100" fill="white"/>
</clipPath>
</defs>
</svg>
