<svg width="100" height="100" viewBox="0 0 100 100" fill="none" xmlns="http://www.w3.org/2000/svg">
<rect width="100" height="100" fill="#11B67A"/>
<path d="M16.9108 68.3826C16.8021 75.0665 12.0699 81.837 6.34008 83.504C12.0699 81.837 16.6274 85.9062 16.5187 92.5901C16.6274 85.9062 21.3595 79.1358 27.0893 77.4688C21.3595 79.1358 16.8021 75.0665 16.9108 68.3826Z" fill="#6CF479"/>
<path d="M5.43109 13.0515C5.37761 16.3961 2.94164 19.779 0 20.6128C2.9465 19.779 5.28524 21.8107 5.23175 25.1553C5.28524 21.8107 7.7212 18.4278 10.6628 17.5941C7.71633 18.4278 5.37761 16.3961 5.43109 13.0515Z" fill="#6CF479"/>
<path d="M58.6049 59.2495C62.5884 53.6206 65.0302 46.5417 64.9984 39.359C64.9397 26.7192 57.2166 17.9508 47.0385 17.9508C45.6504 17.9508 44.217 18.1134 42.752 18.4522C30.5344 21.2711 20.6816 35.203 20.7496 49.5685C20.8083 62.2128 28.5314 70.9767 38.714 70.9767C40.1023 70.9767 41.5357 70.8141 43.0005 70.4754L65.1297 65.3707L58.6139 59.2495H58.6049Z" fill="#006A4D"/>
<path d="M54.3979 23.4368C54.9073 23.4685 55.4076 23.5274 55.9078 23.5954C55.7366 23.4957 55.5744 23.387 55.3985 23.2918C46.8929 18.829 36.6924 22.6167 30.1206 31.3113C27.2989 35.04 23.6883 42.9689 24.2699 47.3457C24.5719 46.3172 25.8474 43.2091 27.9706 41.6869C30.5352 39.8473 34.353 40.4454 37.8375 42.5204C36.9494 40.6583 36.4987 38.624 36.6294 36.508C37.1071 28.7106 45.0674 22.8569 54.4024 23.4413L54.3979 23.4368Z" fill="white"/>
<path d="M21.3143 42.8884C21.3461 42.7258 21.3866 42.5632 21.4181 42.4051C21.3911 42.5317 21.3596 42.658 21.3326 42.7891C21.3235 42.8251 21.3188 42.8568 21.3143 42.8929V42.8884ZM24.2601 29.6838L18.486 27.0692C18.486 27.0692 18.4725 27.0872 18.4679 27.0963C18.2289 27.4575 17.9943 27.8233 17.7687 28.1981C17.7417 28.2478 17.7101 28.2931 17.6785 28.3381C17.674 28.3471 17.6695 28.3561 17.665 28.3606C17.4169 28.7761 17.1733 29.2006 16.9432 29.6253C16.8755 29.7516 16.8124 29.8781 16.7447 30.0045C16.5823 30.3116 16.4199 30.6231 16.2666 30.9347C16.235 30.998 16.2034 31.0568 16.1718 31.1198C16.1267 31.2148 16.0861 31.3141 16.041 31.4089C15.9012 31.7024 15.7658 32.0005 15.6305 32.3031C15.5583 32.4657 15.4861 32.6283 15.4185 32.7954C15.2831 33.1158 15.1523 33.4365 15.026 33.7617C14.9854 33.8702 14.9358 33.974 14.8952 34.0823C14.8816 34.1139 14.8726 34.1501 14.8591 34.1816C14.6787 34.6694 14.5027 35.1571 14.3448 35.6539C14.3133 35.7532 14.2862 35.8525 14.2546 35.952C14.1283 36.3538 14.0065 36.7602 13.8983 37.1667C13.8802 37.239 13.8531 37.3067 13.8351 37.379C13.79 37.5506 13.7494 37.7222 13.7043 37.8983C13.6772 38.0111 13.6456 38.1241 13.6186 38.2415C13.5238 38.6344 13.4336 39.0274 13.3524 39.4246C13.3434 39.4608 13.3389 39.5014 13.3298 39.5421C13.2577 39.8988 13.1945 40.2555 13.1314 40.6169C13.1088 40.7433 13.0908 40.8743 13.0727 41.0052C13.0502 41.1542 13.0231 41.3033 13.0006 41.4524C12.9825 41.5697 12.9735 41.687 12.9554 41.8046C12.9329 41.9761 12.9103 42.1432 12.8923 42.3148C12.8652 42.5722 12.8382 42.8296 12.8156 43.087C12.8021 43.2496 12.784 43.4121 12.775 43.5747C12.7524 43.8548 12.7389 44.1348 12.7254 44.4147C12.7209 44.5547 12.7073 44.6948 12.7028 44.8346C12.6893 45.2501 12.6803 45.6611 12.6803 46.0765V46.0945C12.6938 48.7409 13.0411 51.2157 13.6772 53.4736C13.7313 53.6632 13.7855 53.853 13.8441 54.0381C15.5944 59.7371 19.2032 64.0002 23.8677 66.0776C20.4618 61.9002 18.4319 56.129 18.4003 49.468C18.3687 42.6037 20.4393 35.6404 24.251 29.6793L24.2601 29.6838ZM23.0061 37.1261C22.952 37.266 22.8933 37.406 22.8392 37.5506C22.6588 38.0384 22.4872 38.5259 22.3248 39.0181C22.2933 39.1177 22.2618 39.2215 22.2302 39.3208C22.1039 39.7227 21.9866 40.1247 21.8737 40.5311C22.4196 38.5441 23.1414 36.6159 24.0121 34.7777C23.8722 35.0713 23.7369 35.3695 23.606 35.6629C23.534 35.8255 23.4617 35.9926 23.3896 36.1551C23.2543 36.4758 23.1279 36.7965 23.0016 37.1171L23.0061 37.1261ZM21.1204 43.9314C21.1204 43.9314 21.1159 43.9632 21.1114 43.9767C21.0889 44.103 21.0709 44.2296 21.0529 44.3561C21.0754 44.2161 21.0979 44.0715 21.1204 43.9314ZM20.9986 44.7263C20.9761 44.8709 20.9535 45.0199 20.9355 45.1643C20.913 45.3314 20.895 45.4985 20.8723 45.6656C20.9085 45.3494 20.9535 45.038 20.9986 44.7263ZM20.6603 49.45C20.6603 49.0978 20.6693 48.7454 20.6783 48.3932C20.6648 48.7499 20.6603 49.1023 20.6603 49.459V49.45ZM21.6121 56.6755C21.4181 55.9664 21.2558 55.2393 21.1159 54.4941C21.2513 55.2393 21.4181 55.9709 21.6121 56.6755ZM39.0294 19.5321C39.3632 19.3921 39.6969 19.2612 40.0309 19.1347C39.9361 19.1709 39.8368 19.207 39.7422 19.2431C39.503 19.3334 39.2639 19.4283 39.0249 19.5321H39.0294ZM37.8655 20.065C38.2038 19.8979 38.5423 19.7444 38.885 19.5954C38.7722 19.645 38.6594 19.6947 38.5513 19.7444C38.3211 19.8482 38.0955 19.9521 37.87 20.065H37.8655ZM24.9503 19.8753C24.6841 20.0921 24.4226 20.3089 24.1655 20.5347C24.0842 20.6024 24.0076 20.6746 23.9308 20.7469C23.7144 20.9411 23.4977 21.1353 23.2858 21.334C23.1775 21.4378 23.0737 21.5417 22.9655 21.6456C22.7849 21.8217 22.6091 21.9933 22.4332 22.1739L22.4242 22.183L28.0584 24.7344C28.83 23.8945 29.6328 23.1042 30.4629 22.3681L24.9503 19.8708V19.8753ZM36.7152 20.6656C36.6476 20.7017 36.5798 20.7424 36.5077 20.783C36.855 20.5843 37.2068 20.3947 37.5633 20.214C37.5045 20.2456 37.446 20.2727 37.3874 20.3043C37.1618 20.4218 36.9363 20.5437 36.7152 20.6656ZM32.7004 23.4293C32.7004 23.4293 32.7274 23.4113 32.7364 23.3977C32.7364 23.3977 32.7139 23.4158 32.7004 23.4293ZM30.9411 25.0054C30.9005 25.0415 30.8643 25.0822 30.8237 25.1183C31.0764 24.8744 31.3291 24.6306 31.5861 24.3958C31.4779 24.4951 31.3651 24.5899 31.2613 24.6938C31.1575 24.7977 31.0494 24.9015 30.9411 25.0054ZM30.2328 25.7189C30.4042 25.5428 30.5801 25.3622 30.7562 25.1905C30.6388 25.3034 30.5215 25.4209 30.4042 25.5383C30.3456 25.597 30.2868 25.6602 30.2283 25.7234L30.2328 25.7189ZM20.6873 48.3887C20.6964 48.0816 20.7144 47.7701 20.7279 47.463C20.7234 47.5668 20.7144 47.6706 20.7099 47.7746C20.7009 47.9145 20.6919 48.0545 20.6873 48.1901V48.3887ZM45.5613 17.9064C45.6967 17.8974 45.8275 17.8838 45.9629 17.8793H45.9088C45.796 17.8838 45.6787 17.8974 45.5613 17.9064ZM44.384 15.3956C44.172 15.3233 43.9554 15.2511 43.7389 15.1878C43.7029 15.1743 43.6622 15.1607 43.6261 15.1517C43.6081 15.1472 43.5946 15.1427 43.5766 15.1382C43.4367 15.0975 43.2924 15.0614 43.1525 15.0253C43.0757 15.0072 42.9991 14.9846 42.9224 14.9665C42.7375 14.9214 42.5526 14.8807 42.3629 14.8401C42.3269 14.8311 42.2909 14.822 42.2548 14.8175C42.0292 14.7724 41.8037 14.7317 41.5781 14.6956C41.515 14.6866 41.4517 14.6775 41.3932 14.6685C41.2263 14.6459 41.0594 14.6188 40.8923 14.6008C40.8788 14.6008 40.8698 14.6008 40.8563 14.5962C40.8203 14.5962 40.7797 14.5917 40.7435 14.5872C40.518 14.5646 40.2924 14.542 40.0624 14.5285C39.9811 14.524 39.8955 14.5195 39.8143 14.515C39.5978 14.5059 39.3767 14.4969 39.1557 14.4924H38.9706C38.6911 14.4924 38.4159 14.4969 38.1317 14.5105C38.0639 14.5105 37.9964 14.5195 37.9286 14.524C37.7077 14.5375 37.4865 14.5511 37.2611 14.5737C37.216 14.5737 37.1663 14.5782 37.1212 14.5827C37.0897 14.5827 37.0534 14.5917 37.0219 14.5962C36.6701 14.6324 36.3136 14.6775 35.9528 14.7362C35.8943 14.7453 35.831 14.7588 35.7724 14.7679C35.3979 14.8311 35.0191 14.9033 34.6356 14.9937H34.6311C34.225 15.0885 33.8235 15.1969 33.4222 15.3143C33.2868 15.3549 33.156 15.4001 33.0206 15.4407C32.7544 15.5265 32.4883 15.6123 32.2223 15.7071C32.0642 15.7614 31.9108 15.8246 31.7575 15.8833C31.5185 15.9736 31.2793 16.0684 31.0404 16.1723C30.8778 16.24 30.7199 16.3123 30.562 16.3845C30.3321 16.4884 30.1019 16.5968 29.8765 16.7052C29.7186 16.7819 29.5605 16.8632 29.4027 16.9445C29.1772 17.0619 28.9516 17.1839 28.7306 17.3103C28.6674 17.3464 28.6043 17.3826 28.5457 17.4142L33.8055 19.7941C36.422 18.0645 39.2188 16.8226 42.1105 16.1542C43.1165 15.9194 44.1268 15.7704 45.1283 15.6801C44.9524 15.6078 44.772 15.5401 44.5961 15.4723C44.5238 15.4452 44.4517 15.4227 44.3794 15.3956H44.384ZM46.6396 17.8567C46.7387 17.8567 46.8425 17.8522 46.9418 17.8522H46.8966C46.811 17.8522 46.7252 17.8567 46.6351 17.8612L46.6396 17.8567ZM42.6517 18.3444C43.0487 18.2541 43.4412 18.1773 43.8335 18.1096C43.811 18.1096 43.784 18.1186 43.7615 18.1232C43.396 18.1864 43.0262 18.2586 42.6517 18.3444ZM47.4785 17.8658C47.6454 17.8703 47.8125 17.8748 47.9794 17.8883C47.9161 17.8883 47.8576 17.8793 47.7943 17.8793C47.6907 17.8748 47.5823 17.8703 47.4785 17.8703V17.8658ZM52.364 18.7599C52.2241 18.7102 52.08 18.6651 51.9356 18.6199C52.107 18.6741 52.2829 18.7283 52.4498 18.7915C52.4227 18.7825 52.3912 18.7735 52.364 18.7599ZM48.408 17.9199C48.5478 17.9335 48.692 17.9425 48.8318 17.9561C48.7958 17.9561 48.7597 17.9516 48.7237 17.9471C48.6199 17.938 48.5116 17.929 48.408 17.9199ZM24.3999 62.9615C24.0346 62.397 23.6918 61.8099 23.3714 61.2003C23.6873 61.8144 24.0346 62.4015 24.3999 62.9615ZM25.6451 31.7251C25.5458 31.8877 25.4557 32.0548 25.3609 32.2219C25.5052 31.969 25.6541 31.7161 25.8074 31.4677C25.7894 31.4992 25.7669 31.5308 25.7489 31.5625C25.7126 31.6166 25.6766 31.6708 25.6451 31.7296V31.7251ZM24.7204 33.3734C24.7204 33.3734 24.7021 33.414 24.6886 33.432C24.833 33.1566 24.9818 32.8857 25.1352 32.6146C25.0631 32.7411 24.9909 32.863 24.9188 32.9895C24.851 33.1159 24.7834 33.2424 24.7159 33.3734H24.7204ZM42.6156 18.3535H42.6201C42.2141 18.4483 41.8082 18.5567 41.4067 18.6741C41.8082 18.5567 42.2096 18.4483 42.6156 18.3535ZM24.1204 34.5656C24.2648 34.2719 24.4136 33.9785 24.5625 33.6894C24.4587 33.8927 24.3504 34.0958 24.251 34.2992C24.206 34.3895 24.1655 34.4798 24.1204 34.5656ZM26.1727 30.8897C26.2315 30.7994 26.2856 30.7136 26.3443 30.6233C26.2901 30.7136 26.2315 30.7994 26.1772 30.8897H26.1727ZM42.6201 18.3535C42.6201 18.3535 42.6381 18.3535 42.6471 18.349C42.6381 18.349 42.6291 18.349 42.6201 18.3535Z" fill="black"/>
<path d="M74.4956 58.0087C74.4956 43.921 63.0749 32.5045 48.9913 32.5045C63.079 32.5045 74.4956 21.0837 74.4956 7C74.4956 21.0878 85.9162 32.5045 100 32.5045C85.9121 32.5045 74.4956 43.9251 74.4956 58.0087Z" fill="#6CF479"/>
<path d="M74.4959 38.9769C76.4557 31.1097 85.9162 32.5045 100 32.5045C85.9121 32.5045 74.4956 43.9251 74.4956 58.0087" fill="#006A4D"/>
<path d="M74.4959 38.9769C72.5364 31.1097 63.0749 32.5045 48.9913 32.5045C63.079 32.5045 74.4956 43.9251 74.4956 58.0087" fill="black"/>
<path d="M91.4093 32.1499C82.9852 32.1499 81.4726 32.7801 78.1958 29.8934C77.1548 28.9746 73.8738 24.9048 74.5649 13.659C75.2155 25.0756 89.3764 32.1622 91.4093 32.1499Z" fill="white"/>
</svg>
