<svg width="100" height="100" viewBox="0 0 100 100" fill="none" xmlns="http://www.w3.org/2000/svg">
<g clip-path="url(#clip0_15980_14620)">
<rect width="100" height="100" fill="#11B67A"/>
<path d="M45.7869 10.8882L44.7218 18.4826C45.9999 18.3355 47.3074 18.1591 48.6736 17.9532C50.6202 17.6518 52.5227 17.3063 54.3664 16.9166C53.338 14.4318 52.3757 12.116 51.509 10.0428C50.7744 10.1678 50.0326 10.2928 49.2833 10.4104C48.108 10.5942 46.9401 10.7486 45.7795 10.8882H45.7869Z" fill="#6CF479"/>
<path d="M44.1415 22.6452L43.0764 30.2321C44.854 30.0557 46.7198 29.8278 48.6736 29.5264C52.1995 28.9823 55.5857 28.2839 58.7369 27.4532C57.7893 25.1595 56.8565 22.9098 55.953 20.7411C53.8008 21.219 51.5677 21.6306 49.2907 21.9835C47.5571 22.2482 45.831 22.4687 44.1415 22.6452Z" fill="#6CF479"/>
<path d="M42.4961 34.3781L41.431 41.9577C43.6934 41.7739 46.1027 41.5019 48.6736 41.1049C53.8522 40.3109 58.7589 39.164 63.0046 37.7746C62.1084 35.6058 61.2049 33.4224 60.3088 31.2536C56.8638 32.1873 53.147 32.9739 49.2907 33.5621C46.9915 33.9149 44.7145 34.1869 42.4961 34.3781Z" fill="#6CF479"/>
<path d="M48.6729 6.38951C49.0843 6.32335 49.4956 6.25718 49.907 6.19102C48.3057 2.33873 47.3214 -0.0285217 47.3214 -0.0285217L46.3738 6.71299C47.1304 6.61006 47.887 6.50714 48.6729 6.38951Z" fill="#6CF479"/>
<path d="M44.06 11.0811C43.5825 11.1326 43.1124 11.1767 42.6423 11.2134C41.6654 13.5586 40.5856 16.1685 39.4324 18.9474C40.2036 18.9033 40.9969 18.8445 41.8049 18.7783L44.06 11.0811Z" fill="#6CF479"/>
<path d="M37.1415 34.6944C36.3629 34.7164 35.5843 34.7311 34.8277 34.7311C34.174 34.7311 33.5349 34.7238 32.9106 34.7017C31.8895 37.1719 30.8685 39.6347 29.8769 42.0461C31.4047 42.1711 33.0868 42.2372 34.9305 42.2372L37.1415 34.687V34.6944Z" fill="#6CF479"/>
<path d="M38.3457 30.5848L40.5861 22.9537C39.6165 23.0199 38.6542 23.0714 37.714 23.1008C36.693 25.5562 35.6426 28.0999 34.5775 30.6657C35.7675 30.6657 37.0235 30.6436 38.3457 30.5848Z" fill="#6CF479"/>
<path d="M33.7392 46.2886C31.8073 46.2592 29.9709 46.1563 28.2595 45.9725C27.2458 48.4353 26.2762 50.8026 25.3654 53.0228C27.0695 53.3609 29.1409 53.6182 31.5576 53.7359L33.7392 46.2886Z" fill="#6CF479"/>
<path d="M47.3214 -0.0285217C47.3214 -0.0285217 46.2049 2.65557 44.4199 6.94896C44.7137 6.9122 45.0076 6.88279 45.3087 6.84604L47.3287 -0.0351562L47.3214 -0.0285217Z" fill="#6CF479"/>
<path d="M73.243 72.2024C73.1548 72.2832 73.0593 72.3568 72.9639 72.4303C73.0153 73.8933 72.8243 75.4739 72.0751 76.8413C71.0981 78.6351 69.2838 79.7967 66.6835 80.2966C65.9857 80.4289 65.3981 80.6642 64.8545 80.9362C65.2658 80.8112 65.6992 80.7083 66.1914 80.6642C68.821 80.4289 70.7455 79.4511 71.8988 77.7676C73.0373 76.1061 73.2944 73.9888 73.243 72.2024Z" fill="black"/>
<path d="M21.751 85.3823C21.9934 85.0441 22.3019 84.4707 22.5517 83.9561C22.4342 83.9046 22.324 83.8532 22.2064 83.8017C21.5527 83.5003 20.8769 83.1915 20.2232 82.8313C19.6062 82.4931 19.3564 81.5153 19.3491 80.2435C19.1581 80.1185 18.9671 80.0082 18.7761 79.8759C18.3207 79.5598 18.0122 79.1187 17.7992 78.6114C17.5568 81.008 17.7992 83.3606 19.4299 84.2575C20.135 84.6471 20.8769 84.9853 21.5233 85.2794C21.5968 85.3088 21.6702 85.3456 21.7363 85.375L21.751 85.3823Z" fill="black"/>
<path d="M57.2457 84.1565C54.8218 83.936 53.2719 85.9209 51.8983 87.678C51.8836 87.7001 51.8615 87.7221 51.8469 87.7442C51.8248 87.7736 51.8101 87.803 51.7881 87.8324C50.8846 89.2586 50.2602 90.1923 49.6653 90.0452C49.6359 90.0379 49.5991 90.0305 49.5624 90.0232C49.0115 90.332 48.4092 90.4349 47.7334 90.1996C47.109 89.9791 46.1762 89.7659 45.0964 89.5894C41.2915 89.4645 36.5757 89.7732 35.3196 91.1186C29.2009 97.6763 27.3645 98.8379 24.7349 97.8086C23.7359 97.419 23.3833 96.6544 23.2805 95.9781C22.8544 95.8163 22.4651 95.6031 21.9583 95.3458C21.7012 95.2135 21.4735 95.0738 21.2531 94.9194C21.209 95.2944 21.1797 95.6472 21.1944 95.9413C21.2458 97.3602 22.3476 98.6247 24.1472 99.3231C25.3005 99.7716 25.8514 100.088 27.5114 99.9186C30.2953 99.6392 33.3143 95.4708 36.4802 92.2508C37.6628 91.0451 46.4259 90.9275 49.2759 91.6185C51.0315 92.0449 52.1113 90.3393 53.1543 88.6925C54.3443 86.8105 55.6885 84.6785 58.1199 84.6565C61.5355 84.6197 63.247 83.6566 64.6206 82.8773C64.8997 82.723 65.1641 82.5759 65.4286 82.4362C64.8997 82.5833 64.4075 82.7891 63.8713 83.0244C62.4243 83.6566 60.6246 84.4506 57.2311 84.1418L57.2457 84.1565Z" fill="black"/>
<path d="M21.6715 92.8533C21.8552 93.2503 22.1784 93.6179 22.7146 93.8972C22.9276 94.0075 23.1406 94.0957 23.3463 94.1692C23.4932 92.9709 23.8752 91.4124 24.7566 89.6847C25.2561 88.7069 25.7115 87.1998 25.5646 86.472C25.4177 85.7442 24.8668 85.2149 24.1029 84.7517C23.9266 85.134 23.7283 85.5016 23.5299 85.8104C23.4491 85.9353 23.383 86.053 23.3096 86.1779C23.6695 86.3985 23.9266 86.6043 23.9633 86.7881C23.9854 86.9131 23.1627 89.273 22.7587 89.6994C22.5603 89.9053 22.0535 91.3315 21.6715 92.8533Z" fill="black"/>
<path d="M20.6278 73.3795L22.6919 73.1737C21.9794 72.7105 21.3697 72.2253 20.8702 71.718L20.0476 71.7989C19.1514 74.5043 18.6519 77.3053 19.4893 78.3272C19.7023 76.7025 20.1357 74.9087 20.6278 73.3795Z" fill="black"/>
<path d="M68.6898 51.5957C69.5565 53.7056 70.3645 55.6906 71.1064 57.5138C71.6647 58.8812 72.1788 60.153 72.649 61.3146C73.5304 63.5054 74.2429 65.2772 74.713 66.4976C75.1464 67.6077 75.3815 68.262 75.3815 68.3575C75.3815 67.8135 85.408 39.1786 85.408 39.1786L66.4568 46.1775C66.6845 46.7288 66.9122 47.2802 67.1325 47.8242C67.6614 49.1181 68.1829 50.3753 68.6824 51.5957H68.6898Z" fill="black"/>
<path d="M66.4633 46.1781C65.839 44.6636 65.2073 43.1197 64.5535 41.5538C60.0214 43.0609 54.7914 44.296 49.2824 45.1415C46.4103 45.5826 43.575 45.8987 40.8425 46.0898L39.7774 53.6621C42.4952 53.493 45.4554 53.1842 48.658 52.6917C50.1712 52.4564 51.6549 52.1991 53.1093 51.9124C58.3613 50.8684 63.1873 49.4716 67.1318 47.8395C66.9114 47.2955 66.6837 46.7441 66.456 46.1928L66.4633 46.1781Z" fill="#6CF479"/>
<path d="M27.0986 57.4108C25.9013 57.2564 24.8142 57.0579 23.8005 56.83C22.7869 59.3149 21.8981 61.5057 21.1856 63.2921C22.2653 63.8362 23.9107 64.3361 26.0703 64.7184C26.7461 64.836 27.4659 64.9389 28.2445 65.0345L30.3894 57.7269C29.2508 57.6534 28.149 57.5505 27.106 57.4108H27.0986Z" fill="#6CF479"/>
<path d="M40.8427 57.6517C40.5562 57.7914 39.212 57.7546 39.212 57.7546L39.1092 58.4751L38.1469 65.3195C41.2908 65.1798 44.8092 64.849 48.6656 64.2608C56.4958 63.0625 63.7017 61.0555 68.9463 58.6221C69.7543 58.2472 70.4595 57.8796 71.1059 57.5267C70.364 55.7035 69.5486 53.7185 68.6892 51.6086C63.3491 53.8067 56.5619 55.6079 49.2899 56.718C46.4105 57.1591 43.5825 57.4752 40.8427 57.6664V57.6517Z" fill="#6CF479"/>
<path d="M74.7568 70.475C74.6687 70.622 74.5805 70.7617 74.4703 70.9014C74.1398 71.3499 73.7278 71.7833 73.243 72.2024C73.2871 73.9888 73.0373 76.0988 71.8988 77.7676C70.7455 79.4511 68.821 80.4289 66.1914 80.6642C65.7066 80.7083 65.2658 80.8112 64.8545 80.9362C64.2742 81.1126 63.746 81.3335 63.2392 81.554C61.8289 82.1716 60.3745 82.8112 57.3996 82.5392C54.1015 82.2377 52.0888 84.8035 50.6197 86.6782C49.5767 88.0088 48.8642 88.869 48.2912 88.6705C45.8232 87.7956 36.0097 86.465 33.9162 88.3029C27.746 93.7137 25.5938 94.9782 23.3535 94.1769C23.1405 94.1034 22.9348 94.0152 22.7218 93.9049C22.1856 93.6329 21.8697 93.2579 21.6787 92.8609C21.4804 92.4419 21.4363 91.9934 21.4584 91.6185C21.5318 90.5231 21.9358 88.4793 23.3241 86.1782C23.3975 86.0533 23.4637 85.9356 23.5445 85.8107C23.7428 85.5019 23.9411 85.1343 24.1174 84.752C24.47 83.9948 24.7197 83.1861 24.6757 82.6935C24.5508 81.4217 23.1845 80.6277 21.6053 79.7014C20.9809 79.3412 20.3418 78.9662 19.7248 78.5398C19.644 78.481 19.5706 78.4075 19.5045 78.3266C18.6744 77.3047 19.1666 74.5037 20.0627 71.7983C20.1435 71.5557 20.2243 71.3131 20.3125 71.0705C19.8056 70.4235 19.4751 69.7545 19.3429 69.0708C18.388 71.3499 16.7352 76.0182 17.8224 78.6133C18.0354 79.128 18.3439 79.5617 18.7993 79.8778C18.9903 80.0102 19.1813 80.1278 19.3723 80.2454C19.857 80.5542 20.3418 80.8483 20.7826 81.1056C21.7742 81.6864 23.0082 82.4068 23.0523 82.8479C23.0523 82.9067 22.8466 83.3993 22.5675 83.958C22.3104 84.4726 22.0019 85.0461 21.7669 85.3843C21.6934 85.4945 21.62 85.5754 21.5612 85.6269C21.1866 85.9503 19.5118 89.7953 19.3869 91.6847C19.3061 92.8904 20.0113 94.0593 21.2821 94.9268C21.5024 95.0738 21.7375 95.2208 21.9872 95.3532C22.4941 95.6105 22.8834 95.831 23.3094 95.9854C23.8089 96.1692 24.3745 96.2795 25.278 96.2795C28.0766 96.2795 31.4922 92.4345 34.9666 89.5453C35.9729 88.7072 41.4232 88.9719 45.1253 89.5894C46.2051 89.7659 47.138 89.9791 47.7624 90.1996C48.4308 90.4349 49.0331 90.332 49.5914 90.0232C50.4287 89.56 51.1559 88.6484 51.8685 87.7368C51.8831 87.7148 51.9052 87.6927 51.9199 87.6706C53.2935 85.9136 54.8433 83.9286 57.2673 84.1492C60.6683 84.4579 62.4679 83.6713 63.9076 83.0317C64.4438 82.7965 64.936 82.5906 65.4648 82.4436C65.7513 82.3627 66.0378 82.3039 66.3536 82.2745C69.4975 81.9878 71.8186 80.7821 73.2584 78.6722C75.0433 76.0623 75.0433 72.6879 74.7715 70.4677L74.7568 70.475Z" fill="#6CF479"/>
<path d="M20.8415 67.5417C20.7754 67.5197 20.7093 67.4976 20.6505 67.4682C20.32 67.3359 20.0041 67.2036 19.703 67.0639C19.4091 67.8285 19.2549 68.2769 19.2549 68.3504C19.2549 68.593 19.2843 68.8283 19.3357 69.0635C19.4753 69.7546 19.8058 70.4236 20.3053 71.0632C20.4742 71.2837 20.6652 71.4969 20.8709 71.7028C21.3704 72.2101 21.98 72.6953 22.6926 73.1584C23.4859 73.6731 24.404 74.1583 25.4251 74.6141L26.4387 71.1367L27.019 69.1518L27.0704 68.968C24.5877 68.6445 22.5089 68.1593 20.8268 67.5197L20.8415 67.5417Z" fill="#6CF479"/>
<path d="M72.6562 61.3124C72.0319 61.6432 71.3781 61.974 70.673 62.3049C66.0674 64.4442 60.0882 66.2601 53.5361 67.5393C52.1478 67.8113 50.7301 68.0613 49.2978 68.2745C46.6901 68.6714 44.1192 68.9729 41.6218 69.164C40.2482 69.2743 38.904 69.3478 37.5891 69.3919L37.501 70.0389L37.2659 71.7003L36.5314 76.9348C40.0792 76.8539 44.1413 76.5157 48.6807 75.8173C56.511 74.619 63.7168 72.6119 68.9615 70.1785C69.7034 69.833 70.3645 69.4948 70.9668 69.164C71.4442 68.9067 71.8776 68.6494 72.2743 68.3994C72.7517 68.098 73.1631 67.8113 73.5303 67.5319C73.5818 67.4952 73.6258 67.4584 73.6699 67.4216C74.0959 67.0908 74.4485 66.7747 74.7276 66.488C74.2502 65.2676 73.545 63.4885 72.6636 61.305L72.6562 61.3124Z" fill="#6CF479"/>
<path d="M36.4203 77.5977C36.4203 77.5977 36.3762 77.5977 36.3174 77.583C36.3542 77.583 36.3909 77.5977 36.4203 77.5977Z" fill="black"/>
<path d="M35.9809 77.5236C35.3786 77.428 34.218 77.2222 32.8591 76.9428C33.8581 77.156 34.9012 77.3471 35.9809 77.5236Z" fill="black"/>
<path d="M32.7629 76.9295C32.7629 76.9295 32.7703 76.9295 32.7776 76.9295C32.7776 76.9295 32.7703 76.9295 32.7629 76.9295Z" fill="black"/>
<path d="M73.6989 67.5424C73.6842 67.5056 73.6769 67.4688 73.6622 67.4321C73.6181 67.4688 73.5667 67.5056 73.5226 67.5424H73.6989Z" fill="black"/>
<path d="M74.7203 66.4966C74.4412 66.7833 74.0886 67.0995 73.6626 67.4303C73.6773 67.467 73.6846 67.5038 73.6993 67.5406H73.523C73.1557 67.8199 72.7444 68.1066 72.2669 68.4081C71.8703 68.658 71.4369 68.9153 70.9594 69.1726C70.3571 69.5035 69.696 69.8416 68.9541 70.1872C63.7095 72.6206 56.5036 74.6276 48.6734 75.8259C44.1339 76.5243 40.0719 76.8625 36.524 76.9434L36.4286 77.5977C39.7781 78.1049 43.4581 78.377 47.3218 78.377C53.8372 78.377 59.8311 77.583 64.5983 76.2523C67.2353 75.5172 69.4904 74.6202 71.2533 73.5984C71.8923 73.2234 72.4653 72.8338 72.9721 72.4294C73.0676 72.3559 73.1631 72.2751 73.2512 72.2015C73.7434 71.7825 74.1547 71.3487 74.4779 70.9003C74.5807 70.7606 74.6762 70.6136 74.7644 70.4739C75.1757 69.7902 75.3961 69.0844 75.3961 68.3566C75.3961 68.2684 75.1537 67.6067 74.7277 66.4966H74.7203Z" fill="#006A4D"/>
<path d="M21.1865 63.2989C20.5401 64.909 20.0333 66.1955 19.7027 67.0704C20.0039 67.2101 20.3197 67.3424 20.6503 67.4747C20.7091 67.4968 20.7752 67.5188 20.8413 67.5482C22.5234 68.1805 24.6021 68.6657 27.0849 68.9965L27.5109 67.5482L28.2455 65.0413C27.4742 64.9531 26.747 64.8428 26.0712 64.7252C23.9117 64.3502 22.2663 63.843 21.1865 63.2989Z" fill="#006A4D"/>
<path d="M38.1543 65.3064L37.8384 67.5339L37.6107 69.166L37.5813 69.3939C38.8961 69.3498 40.2404 69.2763 41.614 69.166C44.1114 68.9675 46.6823 68.6735 49.2899 68.2765C50.7223 68.0559 52.14 67.806 53.5283 67.5413C60.0804 66.2621 66.0596 64.4462 70.6651 62.3069C71.3703 61.9761 72.0319 61.6454 72.649 61.3146C72.1788 60.153 71.6647 58.8812 71.1064 57.5138C70.4674 57.874 69.7543 58.234 68.9463 58.609C63.7017 61.0424 56.4958 63.0494 48.6656 64.2477C44.8092 64.8359 41.2981 65.174 38.1469 65.3064H38.1543Z" fill="#006A4D"/>
<path d="M48.6736 52.6764C45.471 53.1689 42.5108 53.4777 39.793 53.6468L39.2201 57.749C39.7563 57.7196 40.2998 57.6902 40.8507 57.6461C43.5833 57.455 46.4186 57.1389 49.298 56.6978C56.57 55.5803 63.3572 53.7865 68.6973 51.5883C68.1978 50.3679 67.6836 49.1108 67.1474 47.8169C63.2029 49.4416 58.377 50.8458 53.125 51.8897C51.6706 52.1765 50.1868 52.4411 48.6736 52.669V52.6764Z" fill="#006A4D"/>
<path d="M23.8013 56.8368C24.8149 57.0647 25.9094 57.2632 27.0993 57.4175C28.1424 57.5572 29.2442 57.6528 30.3828 57.7337L31.5507 53.7417C29.134 53.6167 27.0626 53.3594 25.3585 53.0286C24.8149 54.3592 24.2934 55.6384 23.8013 56.8441V56.8368Z" fill="#006A4D"/>
<path d="M41.4308 41.9567L40.8505 46.0736C43.583 45.8825 46.411 45.5663 49.2904 45.1252C54.7995 44.2798 60.0294 43.0447 64.5616 41.5376C64.0474 40.2878 63.5259 39.0307 63.0043 37.7588C58.7587 39.1483 53.8593 40.2952 48.6734 41.0892C46.1025 41.4862 43.6932 41.7582 41.4308 41.942V41.9567Z" fill="#006A4D"/>
<path d="M28.2597 45.9706C29.9712 46.1544 31.8075 46.2573 33.7394 46.2867L34.9294 42.2359C33.0857 42.2359 31.4035 42.1698 29.8757 42.0448C29.3248 43.3755 28.7886 44.6841 28.2597 45.9706Z" fill="#006A4D"/>
<path d="M60.3086 31.2521C59.7797 29.9803 59.2582 28.7084 58.7366 27.4586C55.5928 28.2894 52.1992 28.9951 48.6734 29.5318C46.7195 29.8332 44.8538 30.0611 43.0762 30.2376L42.4959 34.3766C44.7142 34.1854 46.9913 33.9134 49.2904 33.5605C53.1468 32.9724 56.8636 32.1858 60.3086 31.2521Z" fill="#006A4D"/>
<path d="M37.1399 34.6931L38.3445 30.5835C37.0223 30.6423 35.7663 30.6717 34.5763 30.6644C34.0181 32.0024 33.4671 33.3551 32.9089 34.7005C33.5406 34.7152 34.1797 34.7299 34.8261 34.7299C35.5826 34.7299 36.3539 34.7152 37.1399 34.6931Z" fill="#006A4D"/>
<path d="M41.8054 18.7839C40.9974 18.8501 40.2041 18.9089 39.4328 18.953C38.8746 20.2983 38.3016 21.6805 37.714 23.0993C38.6542 23.0626 39.6165 23.0185 40.5861 22.9523L41.8054 18.7839Z" fill="#006A4D"/>
<path d="M44.7216 18.4921L44.1413 22.6532C45.8381 22.4767 47.5569 22.2562 49.2904 21.9915C51.5675 21.6386 53.8005 21.2269 55.9527 20.7491C55.4092 19.4405 54.8803 18.1613 54.3661 16.9262C52.5224 17.3158 50.6126 17.6687 48.6734 17.9628C47.3145 18.1686 45.9997 18.3451 44.7216 18.4921Z" fill="#006A4D"/>
<path d="M45.3009 6.85156C44.9997 6.88832 44.7059 6.91772 44.4121 6.95448C43.8759 8.24103 43.2809 9.67461 42.6419 11.2185C43.112 11.1744 43.5821 11.1302 44.0595 11.0861L45.3009 6.85156Z" fill="#006A4D"/>
<path d="M51.5087 10.0511C50.9285 8.64688 50.3844 7.35259 49.907 6.19102C49.4956 6.25718 49.0843 6.32335 48.6729 6.38951C47.8943 6.50714 47.1304 6.61742 46.3738 6.71299L45.7869 10.8882C46.9475 10.7486 48.1152 10.5951 49.2904 10.4113C50.0397 10.2937 50.7742 10.176 51.5161 10.0437L51.5087 10.0511Z" fill="#006A4D"/>
<path d="M32.8587 76.9442C32.8587 76.9442 32.7997 76.9295 32.7776 76.9295C32.807 76.9295 32.8293 76.9442 32.8587 76.9442Z" fill="white"/>
<path d="M36.3179 77.5748C36.2077 77.5601 36.0975 77.538 35.9874 77.5233C36.1343 77.5454 36.2444 77.5674 36.3179 77.5748Z" fill="white"/>
<path d="M36.4278 77.5963C36.4278 77.5963 36.4278 77.5963 36.4203 77.5963H36.4278Z" fill="white"/>
<path d="M45.302 6.85123L41.8054 18.7839L40.5861 22.9523L27.5114 67.5469L27.0854 68.9952L27.034 69.179L26.4537 71.1639L25.44 74.6413C26.9238 75.5896 30.1851 76.4057 32.7707 76.9424C32.7707 76.9424 32.7781 76.9424 32.7854 76.9424C32.8148 76.9424 32.8442 76.9571 32.8662 76.9571C34.2251 77.2364 35.3857 77.4349 35.988 77.5378C36.0982 77.5525 36.2084 77.5746 36.3186 77.5893C36.3773 77.5967 36.4141 77.604 36.4214 77.604C36.4214 77.604 36.4214 77.604 36.4288 77.604L36.5243 76.9497L37.2588 71.7153L37.4939 70.0538L37.582 69.4069L37.6114 69.179L37.8391 67.5469L38.1549 65.3193L39.1172 58.4749L39.22 57.7544L47.3294 -0.0152525L45.3094 6.86594L45.302 6.85123Z" fill="#C7FFC6"/>
<path d="M66.3466 9.22825C65.1861 6.29492 66.6845 4.61874 66.6845 4.61874L63.952 4.11147H63.9447C63.9447 4.11147 62.6666 6.34639 63.6876 9.21355C64.7086 12.0807 63.3203 14.1906 63.3203 14.1906L65.9573 14.742C65.9573 14.742 67.8157 12.9262 66.3466 9.22825Z" fill="white"/>
<path d="M16.2428 29.298C18.6594 31.1359 18.6594 33.6649 18.6594 33.6649L21.1716 32.6798C21.1716 32.6798 21.7298 30.1434 18.4758 27.8497C15.8975 26.0338 16.2354 23.8063 16.2354 23.8063L13.6719 24.8796C13.6719 24.8796 13.8261 27.4527 16.2428 29.298Z" fill="#006A4D"/>
<path d="M78.554 32.4896C74.6903 27.5713 78.4952 25.4982 78.4952 25.4982C67.3008 23.1089 64.0982 29.821 64.0982 29.821C72.4352 25.9466 78.554 32.497 78.554 32.497V32.4896Z" fill="#6CF479"/>
</g>
<defs>
<clipPath id="clip0_15980_14620">
<rect width="100" height="100" fill="white"/>
</clipPath>
</defs>
</svg>
