<svg width="100" height="100" viewBox="0 0 100 100" fill="none" xmlns="http://www.w3.org/2000/svg">
<g clip-path="url(#clip0_15980_14650)">
<rect width="100" height="100" fill="#11B67A"/>
<path d="M91.3252 30.9896C91.6708 37.5856 86.0955 38.2489 86.0955 38.2489C92.7634 40.0054 94.6218 45.4989 94.6218 45.4989C94.7245 39.1645 100.001 38.2583 100.001 38.2583C93.0436 36.6887 91.3252 30.9989 91.3252 30.9989V30.9896ZM7.51872 47.4796C8.01368 56.9625 0.000976562 57.9154 0.000976562 57.9154C9.59194 60.4473 12.2628 68.3419 12.2628 68.3419C12.4123 59.2328 19.9954 57.9248 19.9954 57.9248C9.99351 55.6638 7.51872 47.4796 7.51872 47.4796Z" fill="white"/>
<path d="M19.547 19.085C21.2654 16.1608 23.6188 13.8624 26.6165 12.1807C29.6049 10.499 32.9389 9.65819 36.609 9.65819C40.2792 9.65819 43.6038 10.499 46.6016 12.1807C49.59 13.8624 51.9434 16.1608 53.6711 19.085C55.3894 22 56.2486 25.1859 56.2486 28.624C56.2486 32.0621 55.3894 35.3788 53.6711 38.3405C51.9527 41.3021 49.59 43.6378 46.6016 45.3569C43.6038 47.0759 40.2792 47.9355 36.609 47.9355C32.9389 47.9355 29.6143 47.0759 26.6165 45.3569C23.6188 43.6378 21.2654 41.3021 19.547 38.3405C17.8287 35.3881 16.9695 32.1462 16.9695 28.624C16.9695 25.1018 17.8287 22 19.547 19.085ZM83.3965 11.3305H95.6303L32.1171 89.9125H19.8832L83.3965 11.3305ZM29.9785 35.3601C31.7809 37.1539 33.9848 38.0508 36.5997 38.0508C39.2146 38.0508 41.54 37.1726 43.333 35.4162C45.1261 33.6597 46.0226 31.3988 46.0226 28.624C46.0226 25.8492 45.1261 23.7284 43.333 22C41.5306 20.2809 39.2893 19.4214 36.5997 19.4214C33.9101 19.4214 31.6782 20.2809 29.9225 22C28.1668 23.719 27.2889 25.9333 27.2889 28.624C27.2889 31.3147 28.1854 33.5663 29.9785 35.3601ZM61.4596 62.8652C63.2153 59.9503 65.5967 57.6239 68.5851 55.9048C71.5735 54.1858 74.9075 53.3262 78.5777 53.3262C82.2478 53.3262 85.4604 54.1858 88.4488 55.9048C91.4372 57.6239 93.7906 59.9503 95.5183 62.8652C97.246 65.7801 98.0958 68.966 98.0958 72.4041C98.0958 75.8423 97.2366 79.1403 95.5183 82.0646C93.7999 84.9795 91.4372 87.3058 88.4488 89.0249C85.451 90.744 82.1638 91.6035 78.5777 91.6035C74.9916 91.6035 71.5829 90.744 68.5851 89.0249C65.5874 87.3058 63.2153 84.9888 61.4596 82.0646C59.7039 79.1403 58.8261 75.9264 58.8261 72.4041C58.8261 68.8819 59.7039 65.7801 61.4596 62.8652ZM71.7884 79.1403C73.6188 80.9434 75.8788 81.831 78.5777 81.831C81.2766 81.831 83.4058 80.9528 85.1989 79.1963C86.9919 77.4399 87.8885 75.1789 87.8885 72.4041C87.8885 69.6293 86.9919 67.5085 85.1989 65.7801C83.3965 64.0611 81.1925 63.2015 78.5777 63.2015C75.9628 63.2015 73.6188 64.0611 71.7884 65.7801C69.9486 67.4992 69.0428 69.7134 69.0428 72.4041C69.0428 75.0949 69.958 77.3465 71.7884 79.1403Z" fill="#6CF479"/>
<path d="M39.2613 63.7174L33.9008 62.4375L31.8276 64.9974L37.1787 66.296L39.2613 63.7174Z" fill="black"/>
<path d="M32.6963 35.6778C33.8449 36.3224 35.143 36.6494 36.6092 36.6494C38.9439 36.6494 40.8304 35.9207 42.3619 34.4072C43.8842 32.9123 44.6313 31.0157 44.6313 28.6146C44.6313 26.2136 43.8935 24.4665 42.3713 23.009C41.0638 21.7571 39.4949 21.0564 37.6178 20.8695C38.8505 22.4391 39.4856 24.3357 39.4856 26.5686C39.4856 29.3434 38.5891 31.6043 36.796 33.3608C35.6193 34.5099 34.2558 35.276 32.6963 35.6778Z" fill="black"/>
<path d="M81.3419 70.3575C81.3419 73.1323 80.4454 75.3932 78.6524 77.1497C77.4664 78.3082 76.0935 79.0836 74.5526 79.476C75.7293 80.1207 77.0554 80.4383 78.5683 80.4383C80.8283 80.4383 82.6774 79.7096 84.209 78.1961C85.7312 76.7012 86.4783 74.8047 86.4783 72.4036C86.4783 70.0025 85.7405 68.2554 84.2183 66.7979C82.8829 65.518 81.3233 64.8172 79.4555 64.6491C80.6976 66.2187 81.3326 68.1152 81.3326 70.3575H81.3419Z" fill="black"/>
<path d="M19.183 17.0673C19.8181 16.1517 20.5278 15.3015 21.3029 14.5074L15.9518 13.2274C15.1673 14.0029 14.4669 14.8531 13.8225 15.7686L19.183 17.0766V17.0673Z" fill="black"/>
<path d="M23.4321 12.6112C24.2165 12.0133 25.0477 11.4527 25.9255 10.9576C28.8019 9.33193 32.0144 8.44436 35.4791 8.28554C33.7608 7.83708 31.9584 7.60352 30.0626 7.60352C26.3925 7.60352 23.0678 8.44436 20.0701 10.1261C19.3977 10.4998 18.772 10.9109 18.165 11.35L23.4321 12.6112Z" fill="black"/>
<path d="M33.2845 71.1156L27.9334 69.8169L13.3461 87.8671L18.4451 89.4741L33.2845 71.1156Z" fill="black"/>
<path d="M60.2551 82.7851C58.378 79.6553 57.4161 76.1611 57.4161 72.4053C57.4161 68.6495 58.3686 65.2674 60.2551 62.1376C62.1322 59.0265 64.7003 56.5226 67.8849 54.6821C70.7332 53.0378 73.9084 52.1315 77.3264 51.954C75.6361 51.4962 73.871 51.2627 72.0313 51.2627C69.0616 51.2627 66.3066 51.8419 63.7758 52.9724L52.6252 66.7716C52.4011 67.9301 52.2891 69.1167 52.2891 70.3406C52.2891 73.8628 53.1669 77.0767 54.9226 80.001C56.6876 82.9159 59.0597 85.2423 62.0481 86.9613C63.066 87.5499 64.1307 88.0264 65.2326 88.4188C63.2528 86.8492 61.5812 84.9713 60.2644 82.7758L60.2551 82.7851Z" fill="black"/>
<path d="M20.0701 43.3038C21.0974 43.8924 22.1713 44.3782 23.2826 44.7706C21.2935 43.1917 19.6312 41.2764 18.3424 39.0528C16.5027 35.895 15.5688 32.3915 15.5688 28.6357C15.5688 26.4027 15.9143 24.2539 16.5961 22.2172L11.2823 20.9279C10.7126 22.731 10.4231 24.6183 10.4231 26.5896C10.4231 30.1118 11.2823 33.3444 13.0006 36.3061C14.7189 39.2584 17.0723 41.6034 20.0701 43.3225V43.3038Z" fill="black"/>
<path d="M54.8757 39.041C53.036 42.1989 50.4865 44.7308 47.2926 46.5619C46.9657 46.7488 46.6296 46.9263 46.2934 47.0945L35.5257 60.4266L40.8862 61.7066L82.3038 10.4522L82.7241 9.92899H91.1477L89.0744 9.27499H76.8406L56.977 33.8464C56.51 35.6589 55.8096 37.3967 54.8571 39.0317L54.8757 39.041Z" fill="black"/>
</g>
<defs>
<clipPath id="clip0_15980_14650">
<rect width="100" height="100" fill="white"/>
</clipPath>
</defs>
</svg>
