<svg width="100" height="100" viewBox="0 0 100 100" fill="none" xmlns="http://www.w3.org/2000/svg">
<g clip-path="url(#clip0_15980_14636)">
<rect width="100" height="100" fill="#11B67A"/>
<path d="M93.5473 82.9654L77.5264 46.6439C77.1617 45.814 76.2681 45.2395 75.411 45.2395C75.2925 45.2395 75.183 45.2486 75.0645 45.276L5.65613 59.9305C4.69871 60.122 4.27015 61.043 4.68959 61.9914L20.8837 98.5956C21.2484 99.4255 22.1511 100 23.0082 100C23.1268 100 23.2544 99.9909 23.373 99.9635L92.6172 85.0081C93.5564 84.8166 93.9758 83.8956 93.5655 82.9563L93.5473 82.9654Z" fill="black"/>
<path d="M93.5455 81.8077L77.5247 45.4862C77.1599 44.6563 76.2663 44.0818 75.4092 44.0818C75.2907 44.0818 75.1813 44.0909 75.0627 44.1183L5.65435 58.7819C4.69693 58.9734 4.26837 59.8944 4.68781 60.8428L20.8819 97.4471C21.2466 98.2769 22.1493 98.8514 23.0064 98.8514C23.125 98.8514 23.2526 98.8423 23.3712 98.8149L92.6154 83.8595C93.5546 83.668 93.974 82.747 93.5637 81.8077H93.5455Z" fill="#006A4D"/>
<path d="M18.1294 91.2356L90.7839 75.5507L87.3919 67.845L14.7192 83.53L18.1294 91.2356Z" fill="black"/>
<path d="M87.8197 19.542C87.8197 19.542 90.2269 27.5304 100.002 29.7373C100.002 29.7373 92.5977 31.0139 92.4518 39.9051C92.4518 39.9051 89.8439 32.1994 80.4795 29.7281C80.4795 29.7281 88.3029 28.798 87.8197 19.542Z" fill="white"/>
<path d="M5.3359 33.6696C5.3359 33.6696 7.08661 39.4785 14.1989 41.0926C14.1989 41.0926 8.80997 42.0227 8.70967 48.4882C8.70967 48.4882 6.81307 42.8799 0.00170898 41.0835C0.00170898 41.0835 5.70064 40.4086 5.34502 33.6696H5.3359Z" fill="white"/>
<path d="M43.9978 73.2453C43.9978 73.2453 45.7485 79.0542 52.8608 80.6683C52.8608 80.6683 47.4718 81.5984 47.3715 88.0639C47.3715 88.0639 45.4749 82.4556 38.6636 80.6591C38.6636 80.6591 44.3625 79.9843 44.0069 73.2453H43.9978Z" fill="white"/>
<path d="M78.555 39.5224C77.2785 37.352 75.5186 35.6285 73.3029 34.3518C71.078 33.0751 68.6343 32.4368 65.9627 32.4368C63.291 32.4368 60.7561 33.0751 58.5404 34.3518C56.3155 35.6285 54.5466 37.3611 53.2427 39.5224C51.9388 41.6927 51.2822 44.0546 51.2822 46.6171C51.2822 47.4652 51.3552 48.295 51.5011 49.0975L37.5683 52.043L79.9501 5.89097L78.6371 1.23108H69.5462L26.5899 54.3592L5.65435 58.7819C4.69693 58.9734 4.26837 59.8944 4.68781 60.8428L7.36859 66.8981L30.5473 67.0166L31.8238 63.2686L43.012 62.8674C55.6499 69.3876 66.7013 68.3207 66.7013 68.3207C61.4947 65.211 58.3216 61.1621 56.3794 57.4233C57.0541 57.9887 57.7562 58.5176 58.5495 58.9644C60.7744 60.2411 63.2545 60.8794 65.9718 60.8794C68.689 60.8794 71.0871 60.2411 73.312 58.9644C75.5369 57.6877 77.2876 55.9642 78.5641 53.7938C79.8407 51.6235 80.479 49.2343 80.479 46.6171C80.479 43.9999 79.8407 41.6927 78.5641 39.5224H78.555ZM70.8774 51.66C69.537 52.9731 67.9049 53.6206 65.9536 53.6206C64.0022 53.6206 62.2698 52.9549 60.902 51.6144C59.5343 50.283 58.8595 48.6142 58.8595 46.608C58.8595 44.6017 59.5343 42.9694 60.902 41.6836C62.2607 40.4069 63.9475 39.7686 65.9536 39.7686C67.9596 39.7686 69.537 40.4069 70.8774 41.6836C72.2087 42.9603 72.8743 44.6017 72.8743 46.608C72.8743 48.6142 72.2087 50.3468 70.8774 51.66ZM27.3285 26.5094C29.5534 27.786 32.0335 28.4244 34.7508 28.4244C37.468 28.4244 39.9482 27.786 42.1731 26.5094C44.3979 25.2327 46.1486 23.4909 47.4252 21.2932C48.7018 19.0955 49.34 16.688 49.34 14.0708C49.34 11.4536 48.7018 9.14651 47.4252 6.97615C46.1486 4.80579 44.3888 3.09139 42.1731 1.84207C40.4041 0.848081 38.4711 0.255336 36.3921 0.0547148L35.1702 7.2406C36.9848 7.32268 38.5166 7.9519 39.7658 9.1465C41.0971 10.4232 41.7628 12.0646 41.7628 14.0708C41.7628 16.0771 41.0971 17.8097 39.7658 19.1229C38.4255 20.436 36.7568 21.0835 34.7599 21.0835C32.763 21.0835 31.1764 20.4178 29.836 19.0773C28.5048 17.7459 27.8391 16.0771 27.8391 14.0708C27.8391 12.0646 28.4865 10.4323 29.7996 9.1465C30.5381 8.42609 31.3861 7.91542 32.3436 7.59625L33.6384 0C32.7721 0.0547149 31.9241 0.182383 31.1126 0.373885L29.1886 9.54775L24.7298 8.60848L25.9608 2.72662C24.3833 3.8574 23.0794 5.27087 22.0855 6.96703C20.8089 9.13739 20.1707 11.4992 20.1707 14.0617C20.1707 16.6242 20.8089 19.0864 22.0855 21.2841C23.3621 23.4818 25.1128 25.2144 27.3376 26.5002L27.3285 26.5094Z" fill="black"/>
<path d="M20.7554 11.9092C22.0958 9.63851 23.9286 7.85116 26.2537 6.538C28.5789 5.22484 31.1685 4.57738 34.0225 4.57738C36.8765 4.57738 39.4661 5.23396 41.7913 6.538C44.1165 7.85116 45.9492 9.63851 47.2896 11.9092C48.63 14.1798 49.2956 16.6511 49.2956 19.3322C49.2956 22.0132 48.63 24.5848 47.2896 26.8828C45.9492 29.1808 44.1165 31.0047 41.7913 32.3361C39.457 33.6766 36.8765 34.3423 34.0225 34.3423C31.1685 34.3423 28.5789 33.6766 26.2537 32.3361C23.9195 30.9956 22.0867 29.1808 20.7554 26.8828C19.415 24.5848 18.7494 22.0679 18.7494 19.3322C18.7494 16.5964 19.415 14.1798 20.7554 11.9092ZM70.4409 5.89054H79.9604L30.5485 67.0162H21.029L70.4409 5.89054ZM28.8798 24.5757C30.2749 25.9709 31.9983 26.6731 34.0316 26.6731C36.065 26.6731 37.8704 25.9891 39.2747 24.6213C40.6698 23.2534 41.3627 21.4934 41.3627 19.3413C41.3627 17.1892 40.6698 15.5295 39.2747 14.189C37.8796 12.8485 36.1288 12.1828 34.0316 12.1828C31.9344 12.1828 30.202 12.8485 28.8342 14.189C27.4665 15.5295 26.7826 17.2439 26.7826 19.3413C26.7826 21.4387 27.4756 23.1804 28.8707 24.5757H28.8798ZM53.3715 45.9692C54.7393 43.6985 56.5903 41.8929 58.9154 40.5524C61.2406 39.2119 63.8302 38.5462 66.6842 38.5462C69.5382 38.5462 72.0366 39.2119 74.3709 40.5524C76.6961 41.8929 78.5289 43.6985 79.8692 45.9692C81.2096 48.2399 81.8753 50.7112 81.8753 53.3922C81.8753 56.0732 81.2096 58.6266 79.8692 60.9064C78.5289 63.177 76.6961 64.9826 74.3709 66.314C72.0366 67.6545 69.4835 68.3202 66.6842 68.3202C63.8849 68.3202 61.2406 67.6545 58.9154 66.314C56.5812 64.9735 54.7393 63.1679 53.3715 60.9064C52.0038 58.6357 51.3199 56.137 51.3199 53.3922C51.3199 50.6473 52.0038 48.2399 53.3715 45.9692ZM61.4047 58.6266C62.8272 60.0218 64.587 60.724 66.6842 60.724C68.7814 60.724 70.4409 60.04 71.836 58.6722C73.2311 57.3043 73.9241 55.5443 73.9241 53.3922C73.9241 51.2401 73.2311 49.5804 71.836 48.2399C70.4409 46.8993 68.7176 46.2337 66.6842 46.2337C64.6508 46.2337 62.8272 46.8993 61.4047 48.2399C59.9732 49.5804 59.271 51.2948 59.271 53.3922C59.271 55.4896 59.9823 57.2313 61.4047 58.6266Z" fill="#6CF479"/>
</g>
<defs>
<clipPath id="clip0_15980_14636">
<rect width="100" height="100" fill="white"/>
</clipPath>
</defs>
</svg>
