<svg width="100" height="100" viewBox="0 0 100 100" fill="none" xmlns="http://www.w3.org/2000/svg">
<g clip-path="url(#clip0_15980_14715)">
<rect width="100" height="100" fill="#11B67A"/>
<path d="M93.5557 82.9579L77.5349 46.6396C77.1702 45.8099 76.2766 45.2354 75.4194 45.2354C75.3009 45.2354 75.1915 45.2445 75.073 45.2719L5.65548 59.9341C4.69806 60.1256 4.26951 61.0466 4.68895 61.9949L20.883 98.5958C21.2477 99.4255 22.1505 100 23.0076 100C23.1261 100 23.2538 99.9909 23.3723 99.9635L92.6165 85.0095C93.5557 84.818 93.9752 83.8971 93.5648 82.9579H93.5557Z" fill="black"/>
<path d="M93.5557 81.8003L77.5349 45.482C77.1702 44.6523 76.2766 44.0778 75.4194 44.0778C75.3009 44.0778 75.1915 44.0869 75.073 44.1143L5.65548 58.7765C4.69806 58.968 4.26951 59.889 4.68895 60.8373L20.883 97.4382C21.2477 98.268 22.1505 98.8424 23.0076 98.8424C23.1261 98.8424 23.2538 98.8333 23.3723 98.8059L92.6165 83.8519C93.5557 83.6604 93.9752 82.7395 93.5648 81.8003H93.5557Z" fill="#006A4D"/>
<path d="M18.129 91.2273L90.7926 75.5438L87.3915 67.8388L14.7279 83.5223L18.129 91.2273Z" fill="black"/>
<path d="M87.8199 19.5403C87.8199 19.5403 90.2271 27.5279 100.002 29.7345C100.002 29.7345 92.5979 31.0111 92.452 39.9015C92.452 39.9015 89.8442 32.1965 80.4797 29.7254C80.4797 29.7254 88.3032 28.7954 87.8199 19.5403Z" fill="white"/>
<path d="M5.33615 33.6665C5.33615 33.6665 7.08687 39.4749 14.1991 41.0888C14.1991 41.0888 8.81023 42.0189 8.70993 48.4838C8.70993 48.4838 6.81331 42.876 0.00195312 41.0797C0.00195312 41.0797 5.70089 40.405 5.34528 33.6665H5.33615Z" fill="white"/>
<path d="M44.0069 73.2386C44.0069 73.2386 45.7576 79.047 52.8699 80.6609C52.8699 80.6609 47.481 81.591 47.3807 88.0559C47.3807 88.0559 45.4841 82.4481 38.6727 80.6518C38.6727 80.6518 44.3716 79.977 44.016 73.2386H44.0069Z" fill="white"/>
<path d="M72.5835 51.792L71.9817 46.3758C71.0698 48.1447 69.9392 49.4851 68.5988 50.3969C67.2584 51.3088 65.4986 51.7647 63.3375 51.7647C62.0792 51.7647 60.9668 51.6461 60.0003 51.4273C59.0337 51.1993 57.8027 50.8528 56.3256 50.3969C54.9031 49.941 53.6721 49.5945 52.6509 49.3666C51.6205 49.1386 50.4534 49.0292 49.1404 49.0292C47.8274 49.0292 46.7149 49.1751 45.6298 49.4577C46.9976 47.8073 47.9915 46.0657 48.6206 44.2421C49.2498 42.4184 49.5598 40.3394 49.5598 37.996C49.5598 37.7407 49.5507 37.4854 49.5416 37.2301L64.76 35.0143L64.3679 30.0357H47.9368C47.0796 27.8109 46.4596 26.0146 46.0584 24.6468C45.6572 23.2791 45.4566 21.7381 45.4566 20.0238C45.4566 17.2883 46.3958 15.0908 48.2833 13.4404C50.1616 11.79 52.7056 10.9602 55.897 10.9602C58.4593 10.9602 60.9668 11.562 63.4287 12.7565C65.8815 13.951 67.8237 15.5194 69.2462 17.4616L69.775 9.0089L69.2462 4.70505C67.3678 3.21877 65.0609 2.06986 62.3528 1.24009C59.6446 0.419443 56.7542 0 53.6722 0C49.4504 0 45.721 0.765938 42.4658 2.30693C39.2106 3.84793 36.6939 5.99985 34.8976 8.7627C33.1013 11.5347 32.1986 14.6805 32.1986 18.2184C32.1986 20.0968 32.381 21.9387 32.7548 23.735C33.1196 25.5313 33.6758 27.6285 34.4235 30.0175H29.6364L29.0984 34.9961L35.9553 35.9353C36.3109 37.7407 36.4842 39.2999 36.4842 40.6221C36.4842 44.3333 35.8459 47.7253 34.5602 50.7981C34.2958 51.4455 33.9584 52.1294 33.5937 52.8498L5.66439 58.7493C4.70697 58.9408 4.27841 59.8617 4.69785 60.8101L8.04427 68.3691H26.7368L56.7997 68.1959L50.9276 63.8282L48.9854 61.2568C51.0826 61.6489 52.8059 61.9407 54.1098 62.1231C55.5323 62.3237 57.1553 62.424 58.979 62.424C63.4834 62.424 70.386 57.8101 70.386 57.8101L72.5926 51.7647L72.5835 51.792Z" fill="black"/>
<path d="M34.15 56.3586C35.4721 53.1945 36.1286 49.7113 36.1286 45.909C36.1286 44.0945 35.8095 41.8331 35.1621 39.1432H29.1076V35.0126H34.0314C33.2655 32.5507 32.6911 30.3988 32.3172 28.5569C31.9342 26.7058 31.7427 24.8183 31.7427 22.8853C31.7427 19.2562 32.6637 16.0192 34.5147 13.1743C36.3566 10.3293 38.9462 8.12271 42.2835 6.54524C45.6208 4.96777 49.4596 4.17448 53.7907 4.17448C56.9548 4.17448 59.9274 4.60304 62.7084 5.45104C65.4895 6.29905 67.8512 7.48443 69.7842 9.00719V22.1011C68.3162 20.1133 66.3284 18.4994 63.8118 17.2684C61.2951 16.0374 58.7146 15.4265 56.0794 15.4265C52.7969 15.4265 50.189 16.2745 48.256 17.9705C46.3229 19.6665 45.3563 21.9278 45.3563 24.7363C45.3563 26.4961 45.5661 28.0736 45.9673 29.4778C46.3776 30.882 47.025 32.7239 47.9003 35.0126H64.7692V39.1432H49.1313C49.4231 40.4927 49.569 41.8331 49.569 43.1826C49.569 45.5899 49.2499 47.7236 48.6025 49.5928C47.9551 51.4712 46.9338 53.2584 45.5296 54.9544C46.642 54.6626 47.8365 54.5167 49.1313 54.5167C50.4261 54.5167 51.6753 54.6352 52.7331 54.8632C53.7908 55.1003 55.0491 55.4468 56.508 55.9209C58.0308 56.386 59.2891 56.7416 60.283 56.9787C61.2769 57.2157 62.4258 57.3251 63.7114 57.3251C65.9363 57.3251 67.7326 56.8601 69.1186 55.9209C70.4955 54.9817 71.6535 53.6049 72.5927 51.7903C72.5927 57.5349 71.5167 61.7202 69.383 64.3554C67.2402 66.9906 63.8665 68.3127 59.2344 68.3127C57.356 68.3127 55.6965 68.2124 54.2284 68.0027C52.7604 67.793 50.8 67.4647 48.338 66.9906C46.2864 66.5802 44.5995 66.2702 43.2865 66.0696C41.9735 65.869 40.551 65.7596 39.0283 65.7596C36.5663 65.7596 34.4235 65.9693 32.5725 66.3705C30.7215 66.7808 28.7793 67.4556 26.7277 68.3948C30.3568 63.5347 32.837 59.5227 34.15 56.3586Z" fill="#6CF479"/>
</g>
<defs>
<clipPath id="clip0_15980_14715">
<rect width="100" height="100" fill="white"/>
</clipPath>
</defs>
</svg>
