<svg width="100" height="100" viewBox="0 0 100 100" fill="none" xmlns="http://www.w3.org/2000/svg">
<rect width="100" height="100" fill="#11B67A"/>
<path d="M7.11052 48.9729C7.11052 48.9729 7.74299 51.0782 10.2952 51.6595C10.2952 51.6595 8.35656 51.9933 8.31875 54.3356C8.31875 54.3356 7.63472 52.3047 5.18905 51.6543C5.18905 51.6543 7.23942 51.4086 7.10881 48.9729H7.11052Z" fill="white"/>
<path d="M19.9629 10.1035C19.9629 10.1035 20.738 12.6828 23.8677 13.3938C23.8677 13.3938 21.4942 13.8073 21.4444 16.6789C21.4444 16.6789 20.6091 14.193 17.6031 13.3938C17.6031 13.3938 20.1141 13.0911 19.9577 10.1035H19.9629Z" fill="white"/>
<path d="M69.5174 82.5281C69.5174 82.5281 70.2925 85.1074 73.4222 85.8184C73.4222 85.8184 71.0487 86.2319 70.9989 89.1035C70.9989 89.1035 70.1636 86.6176 67.1577 85.8184C67.1577 85.8184 69.6686 85.5157 69.5122 82.5281H69.5174Z" fill="white"/>
<path d="M76.1015 27.318C76.1015 27.318 77.3011 31.3141 82.1529 32.4195C82.1529 32.4195 78.4733 33.0561 78.3994 37.5072C78.3994 37.5072 77.1018 33.6547 72.4493 32.4195C72.4493 32.4195 76.3404 31.9542 76.1015 27.3215V27.3163V27.318Z" fill="white"/>
<path d="M43.2662 41.3822L41.4857 40.6089C41.4634 40.6003 41.4548 40.5743 41.4634 40.5536L42.1783 38.8687C42.1869 38.8462 42.2127 38.8375 42.2333 38.8462L44.0139 39.6194C44.0345 39.6281 44.0448 39.654 44.0362 39.6748L43.3212 41.3597C43.3127 41.3822 43.2869 41.3909 43.2662 41.3822Z" fill="#11B67A"/>
<path d="M48.5706 42.1694L43.8401 40.1356L43.5309 40.8642L48.2614 42.8981L48.5706 42.1694Z" fill="#11B67A"/>
<path d="M44.0819 40.2425L43.8384 40.138L43.5297 40.8668L43.7732 40.9713L44.0819 40.2425Z" fill="black"/>
<path d="M43.5647 39.428L43.4051 39.3593L42.6562 41.1216L42.8157 41.1903L43.5647 39.428Z" fill="black"/>
<path d="M39.8261 49.4944L37.4994 48.4945C37.4775 48.4851 37.4523 48.4953 37.443 48.5173L36.729 50.2006C36.7197 50.2225 36.7298 50.2479 36.7516 50.2573L39.0783 51.2572C39.1001 51.2666 39.1254 51.2564 39.1347 51.2344L39.8487 49.5511C39.858 49.5292 39.8479 49.5038 39.8261 49.4944Z" fill="#11B67A"/>
<path d="M44.379 52.0467L34.4486 47.7771L34.1394 48.5057L44.0698 52.7753L44.379 52.0467Z" fill="#11B67A"/>
<path d="M39.8902 50.1187L39.6468 50.0142L39.3381 50.743L39.5815 50.8475L39.8902 50.1187Z" fill="black"/>
<path d="M39.3696 49.3065L39.2099 49.2379L38.4619 51.0005L38.6215 51.0692L39.3696 49.3065Z" fill="black"/>
<path d="M60.1781 48.6528L61.8916 49.3967C61.9122 49.4053 61.938 49.3967 61.9466 49.3742L62.6616 47.6893C62.6702 47.6685 62.6616 47.6426 62.6392 47.6339L60.9257 46.89C60.9034 46.8814 60.8793 46.89 60.8707 46.9125L60.1558 48.5975C60.1472 48.62 60.1558 48.6442 60.1781 48.6528Z" fill="#11B67A"/>
<path d="M55.6378 46.0646L60.3683 48.0985L60.6775 47.3699L55.947 45.336L55.6378 46.0646Z" fill="#11B67A"/>
<path d="M60.122 47.994L60.367 48.0994L60.6763 47.3708L60.4314 47.2655L60.122 47.994Z" fill="black"/>
<path d="M60.6268 48.8451L60.7864 48.9137L61.5342 47.1509L61.3745 47.0823L60.6268 48.8451Z" fill="black"/>
<path d="M55.984 58.5317L58.3106 59.532C58.3324 59.5414 58.3576 59.5312 58.367 59.5092L59.0812 57.8261C59.0906 57.8041 59.0804 57.7787 59.0586 57.7693L56.7321 56.7691C56.7103 56.7597 56.685 56.7699 56.6757 56.7918L55.9614 58.475C55.9521 58.4969 55.9622 58.5223 55.984 58.5317Z" fill="#11B67A"/>
<path d="M51.4449 55.9435L61.3753 60.2131L61.6845 59.4844L51.7541 55.2149L51.4449 55.9435Z" fill="#11B67A"/>
<path d="M55.9319 57.8724L56.1753 57.9771L56.4846 57.2486L56.2413 57.1439L55.9319 57.8724Z" fill="black"/>
<path d="M56.4307 58.7254L56.5904 58.794L57.3381 57.0312L57.1784 56.9626L56.4307 58.7254Z" fill="black"/>
<path d="M56.8609 32.9037C55.0821 32.1391 53.5524 31.6686 53.2912 31.7966C53.274 31.8053 53.262 31.8156 53.2568 31.8295L52.9011 32.6685L52.7722 32.9712L48.1644 43.8281L55.0322 46.7811L60.1229 34.7824C60.2174 34.561 58.7566 33.7185 56.8592 32.9037H56.8609Z" fill="#11B67A"/>
<path d="M52.7912 37.2563L54.9533 32.1617C53.9874 31.8313 53.3154 31.6894 53.2552 31.8295L51.2358 36.5868L52.7912 37.2563Z" fill="#035D3E"/>
<path d="M57.418 31.5892C56.3576 31.1342 55.4346 30.9145 55.3573 31.0996L55.1614 31.5598L50.7152 42.0378L54.553 43.6882L54.7609 43.1969L54.9568 42.7367L59.1951 32.7482C59.2741 32.5631 58.4784 32.0441 57.418 31.5874V31.5892Z" fill="black"/>
<path d="M57.2805 31.9144C56.2201 31.4594 55.2971 31.2397 55.2181 31.4248L50.9798 41.4133L54.8176 43.0637L59.0559 33.0752C59.1349 32.8901 58.3392 32.3711 57.2788 31.9144H57.2805Z" fill="#11B67A"/>
<path d="M55.5944 35.8879C53.6987 35.0731 52.0831 34.5922 51.9903 34.8137L46.8996 46.8123L53.7674 49.7653L58.8581 37.7666C58.9527 37.5452 57.4918 36.7027 55.5944 35.8879Z" fill="black"/>
<path d="M52.4063 34.7495L53.6472 31.8C53.4237 31.7654 53.281 31.769 53.2552 31.8295L52.0849 34.6111L52.4063 34.7495Z" fill="#11B67A"/>
<path d="M55.2592 36.6768C51.5675 35.0888 48.4258 34.1529 48.2419 34.5871L47.9463 35.2825C48.1302 34.8501 51.2719 35.7859 54.9636 37.3723C58.6553 38.9603 61.4997 40.5968 61.3158 41.0293L61.6114 40.3339C61.7953 39.9014 58.9509 38.2632 55.2592 36.6768Z" fill="#A7BABD"/>
<path d="M60.7437 39.2006C60.6887 39.1643 60.6303 39.128 60.5702 39.0899C59.4324 38.3754 57.5384 37.4153 55.3471 36.4725C55.342 36.4708 55.3368 36.4674 55.3317 36.4656C55.189 36.4033 55.0464 36.3445 54.9037 36.284C54.8625 36.2667 54.8229 36.2494 54.7817 36.2338C54.6545 36.1802 54.5273 36.1283 54.4019 36.0764C54.3812 36.0677 54.3623 36.0591 54.3417 36.0522C54.1991 35.9934 54.0564 35.9363 53.9155 35.8809C53.8794 35.8671 53.845 35.8532 53.8089 35.8394C53.6886 35.791 53.5683 35.7443 53.4514 35.6975C53.4274 35.6889 53.405 35.6785 53.381 35.6699C53.2418 35.6162 53.1043 35.5626 52.9685 35.5124C52.9427 35.5021 52.9169 35.4934 52.8911 35.483C52.7726 35.4381 52.6557 35.3948 52.5405 35.3516C52.5182 35.3429 52.4959 35.3343 52.4735 35.3273C52.3395 35.2772 52.2071 35.2305 52.0765 35.1838C52.0645 35.1786 52.0507 35.1751 52.0387 35.1699C51.9184 35.1267 51.8015 35.0869 51.6846 35.0471C51.6657 35.0402 51.6486 35.035 51.6296 35.0281C51.3736 34.9416 51.1295 34.8603 50.8975 34.7876C50.8855 34.7842 50.8734 34.7807 50.8614 34.7755C50.6259 34.7011 50.4042 34.6354 50.1946 34.5766C50.1877 34.5748 50.1808 34.5731 50.1756 34.5714C49.9643 34.5126 49.7683 34.4624 49.5879 34.4209C49.5861 34.4209 49.5844 34.4209 49.5827 34.4209C49.0929 34.3067 48.7251 34.26 48.5171 34.2877C48.5171 34.2877 48.5017 34.2911 48.4948 34.2911C48.4742 34.2946 48.4553 34.2998 48.4364 34.305C48.4295 34.3067 48.4209 34.3102 48.414 34.3136C48.3985 34.3188 48.3865 34.3275 48.3745 34.3344C48.3693 34.3378 48.3642 34.3413 48.359 34.3448C48.3453 34.3569 48.3332 34.3707 48.3281 34.3845L48.3109 34.4278L48.2645 34.5368L46.1729 39.4653L45.9185 40.0673L44.0159 44.5529L43.8905 44.847C43.8905 44.847 43.8905 44.8488 43.8905 44.8505L38.4217 57.7383L51.7912 63.4851L55.0618 55.7783L55.1873 55.4842L57.2617 50.5955L57.3872 50.298L61.6821 40.1763L61.7028 40.1296C61.7079 40.1157 61.7113 40.1019 61.7113 40.0863C61.7113 39.9116 61.359 39.6002 60.7472 39.2023L60.7437 39.2006Z" fill="#6CF479"/>
<path d="M55.4795 36.53C55.4348 36.5109 55.3919 36.4919 55.3472 36.4711C51.6555 34.8848 48.5138 33.9472 48.3299 34.3814L38.4183 57.7369L38.6847 57.8511L48.5962 34.4956C48.7767 34.0683 51.8462 34.9765 55.4795 36.53Z" fill="white"/>
<path d="M51.5606 61.0806L60.0835 40.9946C60.2296 40.6503 60.1024 40.2559 59.7827 40.0725C59.25 39.7664 58.602 39.4221 57.8664 39.0588C57.4918 38.8737 57.038 39.0398 56.8748 39.429L48.357 59.5012C48.2041 59.8593 48.357 60.2727 48.7025 60.4457C49.3968 60.7951 50.0156 61.129 50.5346 61.43C50.911 61.6497 51.3888 61.4871 51.5624 61.0806H51.5606Z" fill="black"/>
<path d="M51.7877 63.485C51.6038 63.9175 48.4621 62.9816 44.7704 61.3953C41.0787 59.8073 38.2343 58.1708 38.4182 57.7383C38.6021 57.3058 41.7439 58.2417 45.4355 59.828C49.1272 61.4143 51.9716 63.0526 51.7877 63.485Z" fill="black"/>
<path d="M51.4647 63.3469C51.3048 63.724 48.3264 62.8054 44.8134 61.2935C41.3005 59.7833 38.5815 58.2523 38.7414 57.8769C38.9012 57.4998 41.8797 58.4184 45.3926 59.9303C48.9056 61.4405 51.6245 62.9715 51.4647 63.3469Z" fill="#11B67A"/>
<path d="M50.3716 62.8763C50.2581 63.1427 47.809 62.3435 44.8993 61.0928C41.9896 59.8421 39.7227 58.6121 39.8344 58.3457C39.9479 58.0793 42.3987 58.8768 45.3084 60.1292C48.2181 61.38 50.485 62.6099 50.3716 62.8763Z" fill="black"/>
<path d="M46.2766 61.2324L43.4775 60.029L42.5444 62.2275L45.3435 63.431L46.2766 61.2324Z" fill="white"/>
<path d="M46.2762 63.1438L42.1053 61.3505C42.0817 61.3404 42.0544 61.3514 42.0444 61.3751L41.5866 62.4537C41.5766 62.4774 41.5875 62.5049 41.6111 62.515L45.782 64.3083C45.8056 64.3185 45.8329 64.3075 45.8429 64.2837L46.3007 63.2051C46.3107 63.1814 46.2998 63.154 46.2762 63.1438Z" fill="black"/>
<path d="M46.4184 61.9835L42.8401 60.4456C42.6528 60.3643 42.5652 60.1463 42.6459 59.9578C42.725 59.7692 42.9416 59.681 43.1289 59.7623L46.7072 61.3002C46.8945 61.3798 46.9821 61.5977 46.9014 61.7863C46.8206 61.9749 46.604 62.0631 46.4167 61.9818L46.4184 61.9835Z" fill="white"/>
<path d="M44.2046 62.7205C40.3823 61.0771 36.2678 61.5615 33.5128 63.646C33.4956 63.6581 33.4802 63.6702 33.463 63.6841C33.3856 63.7446 33.3083 63.8052 33.2327 63.8674C33.2034 63.8917 33.1742 63.9159 33.145 63.9418C33.078 63.9989 33.0092 64.0577 32.9439 64.1165C32.9078 64.1494 32.8735 64.1823 32.8374 64.2151C32.7772 64.2722 32.7171 64.3276 32.6586 64.3847C32.6105 64.4314 32.5658 64.4816 32.5194 64.53C32.4438 64.6096 32.3699 64.6891 32.2977 64.7722C32.2427 64.8345 32.1877 64.8967 32.1344 64.9607C32.0983 65.004 32.0622 65.0507 32.0279 65.0957C31.978 65.158 31.9282 65.222 31.8801 65.2877C31.8457 65.3327 31.813 65.3794 31.7804 65.4261C31.7323 65.4936 31.6859 65.5628 31.6395 65.6319C31.6102 65.6769 31.5793 65.7219 31.5518 65.7669C31.502 65.8447 31.4556 65.9243 31.4092 66.0039C31.3868 66.0437 31.3628 66.0817 31.3404 66.1215C31.2734 66.2426 31.2081 66.3637 31.1462 66.4883L31.1428 66.4969L31.0774 66.6509C30.787 67.7615 34.7124 70.4307 39.9767 72.6934C45.241 74.9562 49.878 75.9682 50.4743 74.9908L50.5396 74.8368L50.5431 74.8281C52.1621 70.3027 49.4122 64.9607 44.2081 62.7222L44.2046 62.7205Z" fill="#6CF479"/>
<path d="M50.5053 74.9335C50.4984 74.9508 50.4864 74.9768 50.4709 74.9889C49.8745 75.968 45.2376 74.9543 39.9733 72.6916C34.709 70.4288 30.7853 67.7596 31.074 66.649C31.074 66.6282 31.0843 66.6023 31.0912 66.585C31.1067 66.5504 31.117 66.5244 31.1393 66.495L31.1428 66.4864C31.8388 65.5816 36.4311 66.5832 41.618 68.8131C46.8136 71.0464 50.7081 73.6932 50.5397 74.8245L50.5362 74.8332C50.5311 74.8712 50.519 74.8972 50.5053 74.9318V74.9335Z" fill="black"/>
<path d="M41.6196 68.8197C37.1528 66.8995 33.1449 65.8893 31.6651 66.2231C33.2634 65.9948 37.1476 67.0016 41.4546 68.8543C46.8169 71.1586 50.7939 73.8953 50.3401 74.9661C50.2645 75.1443 50.06 75.2602 49.7644 75.3276C50.1562 75.2723 50.4159 75.1446 50.5053 74.9335C50.959 73.8627 46.9801 71.1274 41.6196 68.8215V68.8197Z" fill="#11B67A"/>
<path d="M42.0458 69.4878L38.2699 77.2966L37.811 77.0994L40.8049 68.955C41.0215 69.0381 41.2329 69.1297 41.446 69.2214C41.6505 69.3097 41.8533 69.3961 42.0458 69.4896V69.4878Z" fill="white"/>
<path d="M39.021 77.6199C38.789 78.1648 38.1634 78.4174 37.622 78.1856C37.0807 77.952 36.8297 77.3223 37.06 76.7774C37.292 76.2325 37.9176 75.9799 38.459 76.2117C39.0004 76.4453 39.2513 77.075 39.021 77.6199Z" fill="white"/>
<path d="M38.1171 78.0178C37.5757 77.7842 37.3247 77.1545 37.555 76.6096C37.6444 76.3986 37.8043 76.2481 37.983 76.1356C37.5911 76.1581 37.2233 76.3882 37.0584 76.7757C36.8263 77.3206 37.079 77.952 37.6204 78.1838C37.9521 78.3257 38.3061 78.2703 38.5914 78.0922C38.4333 78.1008 38.2717 78.0835 38.1171 78.0178Z" fill="black"/>
<path d="M46.0174 61.8395L43.2183 60.636L43.0792 60.9638L45.8783 62.1672L46.0174 61.8395Z" fill="black"/>
<path d="M45.7168 62.5433L42.9177 61.3399L42.7786 61.6676L45.5777 62.8711L45.7168 62.5433Z" fill="black"/>
<path d="M46.7758 64.7324C49.2971 69.0918 47.9858 71.1279 47.9858 71.1279C47.9858 71.1279 48.9465 71.6261 49.7526 72.3942C50.5586 73.1623 50.7064 73.4374 50.7064 73.4374C50.7064 73.4374 51.0055 71.5431 50.1479 68.9742C49.2903 66.4053 46.7741 64.7324 46.7741 64.7324H46.7758Z" fill="white"/>
<path d="M56.5078 35.5899L57.8395 32.4732C58.4101 32.7875 58.7909 33.0201 58.7362 33.1475L57.4994 36.0783L56.5078 35.5899Z" fill="white"/>
<path d="M44.0259 37.7785L6.29431 21.5571C6.27024 21.5467 6.24275 21.5571 6.23243 21.5813L0.00398177 36.2562C-0.00633024 36.2804 0.00398166 36.3081 0.028043 36.3184L37.758 52.5398C37.782 52.5502 37.8095 52.5398 37.8181 52.5156L44.0448 37.8408C44.0552 37.8165 44.0448 37.7889 44.0208 37.7785H44.0259ZM6.55898 38.1798L19.3098 28.1014L26.3941 31.1477C21.4787 34.3515 16.4551 37.6384 12.0295 40.5325L6.55726 38.1798H6.55898ZM42.3502 38.4704L42.1698 38.8943C35.8056 41.1968 29.4688 43.4837 23.7061 45.551L15.759 42.1344C20.6761 39.4513 26.2326 36.4188 31.7117 33.4312L42.0392 37.8719C42.3038 37.9861 42.443 38.2542 42.3502 38.4704Z" fill="white"/>
<path d="M42.1801 38.8718L42.1715 38.8942C35.8072 41.1967 29.4705 43.4837 23.7078 45.5509L36.8951 51.2216C36.9175 51.2302 36.9416 51.2216 36.9501 51.1991L42.1801 38.8735V38.8718Z" fill="black"/>
<path d="M19.2976 28.0943L7.1621 22.8769C7.13976 22.8683 7.1157 22.8769 7.1071 22.8994L1.55581 35.981C1.54721 36.0035 1.55581 36.0277 1.57815 36.0363L6.56057 38.178L19.2839 28.1203C19.289 28.1099 19.2942 28.103 19.2993 28.0926L19.2976 28.0943Z" fill="black"/>
<path d="M26.389 31.1441L26.3959 31.1476C21.4805 34.3514 16.4568 37.6382 12.0312 40.5323L12.0106 40.5237L15.759 42.136C20.6761 39.4529 26.2326 36.4203 31.7117 33.4328L31.7203 33.4362L26.389 31.1441Z" fill="black"/>
<path d="M62.1578 45.6343L55.95 60.3177C55.9397 60.342 55.95 60.3696 55.9741 60.3783L93.7263 76.5495C93.7504 76.5599 93.7779 76.5495 93.7882 76.5253L99.996 61.8418C100.006 61.8176 99.996 61.7899 99.972 61.7795L62.2214 45.6083C62.1974 45.5979 62.1699 45.6083 62.1596 45.6325L62.1578 45.6343ZM82.3969 70.7526C81.4086 65.5352 80.2863 59.6102 79.1795 53.8219L86.269 56.8579L87.8708 73.0966L82.3969 70.7508V70.7526ZM63.5276 47.1168L73.862 51.5436C75.5136 57.5914 77.1876 63.7257 78.6674 69.1541L70.7151 65.7479C68.2075 60.1309 65.4594 53.9465 62.7044 47.7292L62.8831 47.3054C62.9759 47.0874 63.2629 47.0044 63.5276 47.1168Z" fill="white"/>
<path d="M62.7129 47.7086L62.7043 47.731C65.4593 53.9483 68.2075 60.1328 70.715 65.7498L57.5191 60.0964C57.4967 60.0878 57.4881 60.0618 57.4967 60.0411L62.7112 47.7086H62.7129Z" fill="black"/>
<path d="M86.2811 56.8633L98.4235 62.0651C98.4458 62.0738 98.4544 62.0997 98.4458 62.1205L92.9117 75.209C92.9031 75.2315 92.8773 75.2401 92.8567 75.2315L87.8726 73.0968L86.2742 56.8927C86.2776 56.8823 86.2794 56.872 86.2828 56.8633H86.2811Z" fill="black"/>
<path d="M79.1864 53.8238H79.1795C80.2863 59.6087 81.4086 65.5334 82.3969 70.7508L82.4175 70.7597L78.6673 69.1526C77.1859 63.7241 75.5119 57.5881 73.862 51.5421L73.8534 51.5386L79.1864 53.8238Z" fill="black"/>
</svg>
