<svg width="100" height="100" viewBox="0 0 100 100" fill="none" xmlns="http://www.w3.org/2000/svg">
<rect width="100" height="100" fill="#006A4D"/>
<path d="M73.8554 60.1774C70.1935 56.4027 63.5726 56.4894 56.9344 59.7782C56.2229 62.9368 53.6544 75.1806 39.571 83.8927C39.5884 86.7302 40.4387 89.2293 42.2089 91.0516C47.4674 96.4663 58.8088 93.9412 67.547 85.4113C76.2851 76.8814 79.1139 65.5834 73.864 60.1774H73.8554Z" fill="#6CF479"/>
<path d="M81.3257 25.6046C84.5652 13.8758 81.121 2.69116 73.6328 0.622965C66.1447 -1.44523 57.4483 6.38622 54.2089 18.115C50.9694 29.8438 54.4136 41.0284 61.9017 43.0966C69.3899 45.1648 78.0863 37.3334 81.3257 25.6046Z" fill="#6CF479"/>
<path d="M81.3241 5.27586L87.3896 6.6469C85.7842 4.035 83.5715 2.17803 80.8641 1.43177L75.6229 0C77.9832 0.954515 79.9096 2.81147 81.3241 5.27586Z" fill="black"/>
<path d="M88.6784 9.19806L82.5174 7.80967C82.7343 8.39106 82.9339 8.98981 83.1161 9.6059L89.3205 11.003C89.1296 10.3782 88.9213 9.77945 88.687 9.19806H88.6784Z" fill="black"/>
<path d="M83.9774 14.6569C84.2377 18.1973 83.8819 22.0848 82.7886 26.033C79.3697 38.407 70.1456 46.6505 62.1797 44.4725L68.4795 46.2687C76.4541 48.4728 85.6955 40.2206 89.1144 27.8292C90.2425 23.7335 90.5983 19.7072 90.2772 16.0626L83.9861 14.6482L83.9774 14.6569Z" fill="black"/>
<path d="M56.9757 18.9435C59.8392 8.5653 67.3885 1.52792 74.0788 2.81218C73.7838 2.6907 73.4801 2.5779 73.1677 2.49112C66.3299 0.599446 58.3814 7.75832 55.4224 18.4749C52.4634 29.1915 55.6047 39.4135 62.4512 41.2965C62.6681 41.3573 62.885 41.4093 63.102 41.444C56.9063 38.9276 54.1642 29.1568 56.993 18.9348L56.9757 18.9435Z" fill="#024731"/>
<path d="M78.0407 27.6719C78.5787 25.9798 78.9344 24.2877 79.108 22.6477C78.1708 25.2509 76.7738 26.2315 76.0102 26.4571C75.1251 26.7174 74.1879 26.353 74.1879 26.353C71.3243 35.0043 66.786 37.3993 63.3498 37.2952C61.3453 37.2344 59.9049 36.0369 59.0545 35.0564C60.035 37.3559 61.5883 39.048 63.6101 39.7596C68.86 41.5992 75.316 36.1845 78.032 27.6719H78.0407Z" fill="white"/>
<path d="M77.9466 67.8567L82.3634 71.9785C82.346 68.9501 81.4262 66.2775 79.5346 64.3251L75.8466 60.5504C77.3478 62.5201 78.016 65.0453 77.9466 67.8567Z" fill="black"/>
<path d="M82.1324 74.8077L77.6462 70.6252C77.5334 71.2326 77.3945 71.84 77.2296 72.4561L81.7419 76.6647C81.8981 76.0399 82.0369 75.4151 82.1324 74.799V74.8077Z" fill="black"/>
<path d="M75.3747 77.2281C73.7868 80.4041 71.4874 83.58 68.5371 86.4522C59.313 95.4507 47.3121 98.0713 41.7065 92.3355L46.0972 96.9432C51.6941 102.705 63.7124 100.084 72.9451 91.0773C75.9996 88.1009 78.3598 84.8035 79.9565 81.5061L75.3747 77.2368V77.2281Z" fill="black"/>
<path d="M65.1113 82.99C69.5889 78.6253 72.1921 73.4015 72.4697 69.0541C69.9273 77.0373 64.3044 76.4646 64.3044 76.4646C62.2912 81.1157 58.1434 85.3416 53.3448 87.3721C49.6829 88.9254 46.4462 88.4481 44.7368 87.8493C48.9453 92.0492 58.0305 89.8972 65.1113 82.9987V82.99Z" fill="white"/>
<path d="M29.3624 67.2236C40.6778 71.8139 52.722 68.7074 55.5768 61.2882C58.4317 53.8691 51.5765 44.133 40.2612 39.5426C28.9458 34.9523 17.457 37.2431 14.6021 44.6623C11.7473 52.0815 18.0557 62.6332 29.3624 67.2322V67.2236Z" fill="#6CF479"/>
<path d="M39.3836 42.0419C29.3698 37.9809 19.0698 40.0462 16.0674 46.3199C16.1542 45.9989 16.2409 45.6865 16.3624 45.3741C18.9743 38.597 29.4653 36.5058 39.8087 40.6969C50.1522 44.8968 56.4173 53.7912 53.8054 60.5682C53.7273 60.7851 53.6319 60.9934 53.5365 61.193C55.2633 54.5548 49.2498 46.0422 39.3836 42.0419Z" fill="#024731"/>
<path d="M39.3311 43.3958C30.914 39.9855 22.4187 41.2351 19.4163 46.0857C20.6572 44.8535 22.9654 43.2222 26.7228 42.8144C32.9705 42.1375 38.8104 44.5845 40.2162 49.7476C40.2162 49.7476 45.145 46.5543 49.7527 51.1881C47.5139 48.0729 43.8607 45.2267 39.3311 43.3871V43.3958Z" fill="white"/>
<path d="M42.973 75.5542C41.5672 78.4265 41.116 80.8735 41.1681 82.8866C41.5499 82.635 41.9231 82.3833 42.2788 82.123C42.5999 78.2269 44.2919 75.2766 44.2919 75.2766L42.973 75.5542Z" fill="#024731"/>
<path d="M42.2816 82.1227C41.9172 82.383 41.544 82.6347 41.1709 82.8863C41.275 87.3465 43.8089 89.6547 43.8089 89.6547C42.3858 87.0862 42.0907 84.4396 42.2816 82.1227Z" fill="#024731"/>
<path d="M12.1957 46.5369L10.3821 52.3247C9.65318 54.5114 9.99159 57.7134 11.1891 60.0129L13.0894 54.6502C11.97 51.9602 11.5362 49.062 12.187 46.5369H12.1957Z" fill="black"/>
<path d="M12.3931 62.8072C12.7141 63.3626 13.0699 63.9092 13.4517 64.4472L15.5863 58.7201C15.1959 58.1908 14.8401 57.6615 14.5104 57.1235L12.3931 62.8159V62.8072Z" fill="black"/>
<path d="M56.1631 62.7723C56.1631 62.7723 55.9634 63.4144 55.5382 64.2561L55.9981 63.1541C52.9437 71.0332 39.7106 73.055 28.673 68.508C24.8723 66.9374 22.1563 65.4536 19.4923 63.05L17.4097 68.7423C20.4641 71.2588 22.6682 72.5257 26.6164 74.1223C38.2355 78.8428 50.5053 75.4153 53.2473 69.7576C53.3688 69.5493 55.0262 66.625 56.0675 63.1194L56.1717 62.7723H56.1631Z" fill="black"/>
</svg>
