<svg width="100" height="100" viewBox="0 0 100 100" fill="none" xmlns="http://www.w3.org/2000/svg">
<rect width="100" height="100" fill="#11B67A"/>
<path d="M96.6318 67.7953L74.1982 16.7626L67.3465 13.4967L11.7706 24.4071L7.38729 22.4891L6.20753 25.8003C5.90805 26.6326 5.93528 27.5463 6.29828 28.3605C10.8449 38.7371 27.3797 76.4712 31.3274 85.4636C31.8265 86.5945 33.0426 87.2187 34.2587 86.9744L96.6227 74.3723C97.5212 74.1914 98.2563 73.5581 98.5739 72.6986L99.7899 69.3514L96.6318 67.7862V67.7953Z" fill="black"/>
<path d="M76.7481 17.9774L62.9267 11.3824C62.2461 11.0567 61.4747 10.9572 60.7306 11.1019L8.70303 21.3157C7.60494 21.5328 6.98783 22.6999 7.43251 23.7222C11.5072 33.0403 28.7136 72.2942 32.752 81.4857C33.2512 82.6165 34.4672 83.2407 35.6833 82.9965L98.5919 70.2948C99.69 70.0777 100.298 68.9017 99.8533 67.8794L78.8717 20.1487C78.4542 19.1897 77.701 18.4117 76.7481 17.9594V17.9774Z" fill="#6CF479"/>
<path d="M30.0568 54.42L42.0723 81.7593L92.2122 71.636L80.1786 44.2515C79.6795 43.1206 78.4634 42.4874 77.2474 42.7316L31.3183 52.0045C30.2202 52.2217 29.6122 53.3977 30.0568 54.42Z" fill="#00482F"/>
<path d="M84.0083 19.6315C84.0083 19.6315 85.2697 23.8021 90.3881 24.951C90.3881 24.951 86.513 25.6205 86.4313 30.2615C86.4313 30.2615 85.07 26.2357 80.1604 24.951C80.1604 24.951 84.2624 24.4625 84.0083 19.6315Z" fill="white"/>
<path d="M7.30545 40.6723C7.30545 40.6723 9.70128 48.5973 19.4298 50.7866C19.4298 50.7866 12.0608 52.0531 11.9156 60.8737C11.9156 60.8737 9.32013 53.2292 0 50.7775C0 50.7775 7.78643 49.8548 7.30545 40.6723Z" fill="white"/>
<path d="M54.3054 34.7682L67.5187 32.0995C68.6168 31.8824 69.2249 30.7062 68.7802 29.684L60.6217 11.129L43.1612 14.5578L51.3741 33.2484C51.8733 34.3792 53.0893 35.0125 54.3054 34.7682Z" fill="#11B67A"/>
<path d="M68.3901 78.4072C68.3901 78.4072 69.6515 82.5777 74.7698 83.7266C74.7698 83.7266 70.8948 84.3961 70.8131 89.0371C70.8131 89.0371 69.4518 85.0113 64.5422 83.7266C64.5422 83.7266 68.6442 83.2381 68.3901 78.4072Z" fill="white"/>
<path d="M50.5393 34.5629L30.5922 38.6249C30.4833 38.643 30.3744 38.6611 30.2655 38.6611C29.6121 38.6611 29.0222 38.2721 28.759 37.675L20.5552 19.0025L19.566 19.1925L27.8606 38.064C28.2871 39.032 29.24 39.6381 30.2655 39.6381C30.4379 39.6381 30.6104 39.6201 30.7919 39.5839L51.3742 35.3952C50.9567 35.0876 50.6845 34.771 50.5484 34.5629H50.5393Z" fill="#11B67A"/>
<path d="M66.2391 28.6093L59.4237 13.3836L49.3866 15.2472C49.3866 15.2472 55.3762 15.193 55.5849 20.3858C55.5849 20.3858 61.6108 19.8791 66.2391 28.6093Z" fill="white"/>
</svg>
