<svg width="100" height="100" viewBox="0 0 100 100" fill="none" xmlns="http://www.w3.org/2000/svg">
<g clip-path="url(#clip0_4483_91)">
<rect width="100" height="100" fill="#006A4D"/>
<path d="M48.879 21.0956C62.7757 21.0956 74.0448 18.8854 74.0448 16.1725V4.93185H23.7132V16.1725C23.7132 18.8949 34.9823 21.0956 48.879 21.0956Z" fill="black"/>
<path d="M48.879 9.84624C62.7777 9.84624 74.0448 7.64209 74.0448 4.92312C74.0448 2.20416 62.7777 0 48.879 0C34.9803 0 23.7132 2.20416 23.7132 4.92312C23.7132 7.64209 34.9803 9.84624 48.879 9.84624Z" fill="#11B67A"/>
<path d="M39.5426 6.75396L55.3934 2.21027L58.4953 2.50433L42.6919 7.1239L39.5426 6.75396Z" fill="black"/>
<path d="M19 32.613C19 27.9081 22.0734 23.8576 24.976 21.0688C44.1753 27.1397 65.8345 23.5984 74.2642 21.0688C77.1668 23.8482 80.2402 27.9081 80.2402 32.613V88.4463C80.2402 92.4398 73.8373 100 49.6201 100C25.4029 100 19 92.4398 19 88.4463V32.613Z" fill="#6CF479"/>
<path d="M55.5069 66.7522C60.5154 69.1616 65.5049 68.3173 67.1839 67.3498L75.1899 48.2075L67.2883 42.0702L55.9812 39.4142L48.0131 58.3857C48.2124 61.1935 50.3656 64.2859 55.5069 66.7522Z" fill="#C7FFC6"/>
<path d="M52.254 74.1317C46.0408 71.2576 44.9689 67.5391 44.7887 66.0688L38.5944 80.8097C37.1621 83.4752 40.2734 87.6869 45.5286 90.2196C48.0707 91.4433 50.6414 92.0504 52.7852 92.0504C54.929 92.0504 56.7977 91.3864 57.566 90.0773L57.6703 90.1248L64.1966 74.5207C62.9919 75.4598 59.3304 77.4138 52.254 74.1412V74.1317Z" fill="#C7FFC6"/>
<path d="M75.2773 48.062C76.5435 45.323 73.2756 41.1173 67.9782 38.6684C62.6807 36.2195 57.3598 36.4548 56.0936 39.1938C54.8274 41.9329 58.0954 46.1386 63.3928 48.5874C68.6903 51.0363 74.0111 50.8011 75.2773 48.062Z" fill="#11B67A"/>
<path d="M55.509 66.751C55.9074 66.9407 56.3153 67.1115 56.7137 67.2632C56.9034 66.6182 57.0837 65.9637 57.2354 65.2902C59.0662 56.9617 56.6568 49.7145 51.838 49.1074L48.0057 58.2992C48.1765 61.1259 50.3203 64.2468 55.509 66.751Z" fill="black"/>
<path d="M52.2574 74.1306C46.0063 71.2374 44.9534 67.4905 44.7921 66.0392L40.884 75.4301C41.4247 77.204 43.2175 79.0442 45.2 79.2908C47.9414 79.6323 50.863 77.7541 53.2155 74.5385C52.9025 74.4057 52.5895 74.2918 52.2669 74.14L52.2574 74.1306Z" fill="black"/>
<path d="M66.2418 79.814C61.9638 79.814 58.492 81.5688 58.492 83.7316C58.492 85.8943 61.9638 87.6492 66.2418 87.6492C70.5199 87.6492 73.9917 85.8943 73.9917 83.7316C73.9917 81.5688 70.5199 79.814 66.2418 79.814Z" fill="#006A4D"/>
<path d="M37.3031 80.2023L48.3256 53.9551L45.053 40.4664H45.034C45.0056 40.3336 44.9866 40.2008 44.9392 40.068C43.9526 37.2127 38.6216 36.2452 33.025 37.9147C27.4379 39.5747 23.7005 43.2457 24.687 46.1009L33.0345 80.743C31.9816 80.4774 30.8053 80.3161 29.5437 80.3161C25.2656 80.3161 21.7939 82.071 21.7939 84.2337C21.7939 86.3965 25.2656 88.1514 29.5437 88.1514C31.4693 88.1514 33.2337 87.7909 34.5902 87.2028L35.3301 90.2572L35.4344 90.2288C36.4968 92.9512 41.5812 93.8903 46.9881 92.3726C46.2862 92.1164 45.5842 91.8319 44.9012 91.4999C41.1828 89.707 38.3276 87.0226 37.2841 84.395C37.2841 84.3476 37.3031 84.3002 37.3031 84.2432C37.3031 83.7974 37.1513 83.3706 36.8763 82.9722C36.734 81.9761 36.8763 81.0276 37.3031 80.2023Z" fill="#006A4D"/>
<path d="M26.8851 23.6663C26.8851 23.6663 22.6165 27.0812 22.6165 34.4706V53.4991C22.6165 53.4991 23.6125 37.6009 37.1202 38.17C37.1202 38.17 21.6299 36.178 26.8851 23.6663Z" fill="white"/>
<path d="M73.792 28.2498C73.792 28.2498 76.0685 36.0661 55.5128 40.809C55.5128 40.809 83.1734 40.0502 73.792 28.2498Z" fill="white"/>
</g>
<defs>
<clipPath id="clip0_4483_91">
<rect width="100" height="100" fill="white"/>
</clipPath>
</defs>
</svg>
