<svg width="100" height="100" viewBox="0 0 100 100" fill="none" xmlns="http://www.w3.org/2000/svg">
<rect width="100" height="100" fill="#11B67A"/>
<path d="M84.8835 79.7776H83.2191L73.7733 59.6268H13.8299L4.38414 79.7776H2.71976V83.8776C2.7026 85.2756 3.82651 86.5371 5.37077 86.5371H82.2325C83.7681 86.5371 84.892 85.2756 84.8749 83.8776V79.7776H84.8835Z" fill="black"/>
<path d="M73.7816 55.5845H13.8383L2.97689 78.7528C2.16186 80.4917 3.44021 82.4949 5.37913 82.4949H82.2408C84.1797 82.4949 85.458 80.5002 84.643 78.7528L73.7816 55.5845Z" fill="#006A4D"/>
<path d="M16.6097 13.5371H71.0023C72.4608 13.5371 73.6447 14.7134 73.6447 16.1625V54.0433H13.9673V16.171C13.9673 14.7219 15.1512 13.5456 16.6097 13.5456V13.5371Z" fill="#006A4D"/>
<path d="M76.5187 69.9986L71.8602 60.2131C71.5685 59.5993 70.9508 59.2072 70.2644 59.2072H17.3389C16.6526 59.2072 16.0348 59.5993 15.7431 60.2131L11.0846 69.9986C10.6728 70.8681 11.3076 71.8739 12.2771 71.8739H27.1879C27.7284 71.8739 28.1402 72.3513 28.063 72.8798L27.8914 73.9708C27.7713 74.7636 28.389 75.4881 29.1955 75.4881H58.3907C59.2057 75.4881 59.8235 74.7721 59.6948 73.9708L59.5232 72.8798C59.4374 72.3513 59.8578 71.8739 60.3983 71.8739H75.309C76.2785 71.8739 76.9219 70.8681 76.5015 69.9986H76.5187Z" fill="black"/>
<path d="M43.806 18.8971C44.3888 18.8971 44.8612 18.4277 44.8612 17.8487C44.8612 17.2696 44.3888 16.8002 43.806 16.8002C43.2232 16.8002 42.7507 17.2696 42.7507 17.8487C42.7507 18.4277 43.2232 18.8971 43.806 18.8971Z" fill="#00482F"/>
<path d="M73.6447 43.3446H13.9673V47.4787H73.6447V43.3446Z" fill="#00482F"/>
<path d="M84.9434 25.0945H2.66814C1.19456 25.0945 0 26.2814 0 27.7455V41.7931C0 43.2571 1.19456 44.444 2.66814 44.444H84.9434C86.417 44.444 87.6115 43.2571 87.6115 41.7931V27.7455C87.6115 26.2814 86.417 25.0945 84.9434 25.0945Z" fill="#6CF479"/>
<path d="M16.189 31.4104L12.2597 33.6607V29.16H10.9728V33.6607L7.04355 31.4104L6.4001 32.5185L10.3294 34.7689L6.4001 37.0277L7.04355 38.1358L10.9728 35.877V40.3862H12.2597V35.877L16.189 38.1358L16.8325 37.0277L12.9032 34.7689L16.8325 32.5185L16.189 31.4104Z" fill="#00482F"/>
<path d="M31.117 31.4104L27.1877 33.6607V29.16H25.9008V33.6607L21.9715 31.4104L21.328 32.5185L25.2573 34.7689L21.328 37.0277L21.9715 38.1358L25.9008 35.877V40.3862H27.1877V35.877L31.117 38.1358L31.7604 37.0277L27.8311 34.7689L31.7604 32.5185L31.117 31.4104Z" fill="#00482F"/>
<path d="M46.0449 31.4104L42.1156 33.6607V29.16H40.8287V33.6607L36.8994 31.4104L36.256 32.5185L40.1853 34.7689L36.256 37.0277L36.8994 38.1358L40.8287 35.877V40.3862H42.1156V35.877L46.0449 38.1358L46.6883 37.0277L42.7591 34.7689L46.6883 32.5185L46.0449 31.4104Z" fill="#00482F"/>
<path d="M60.9731 31.4104L57.0437 33.6607V29.16H55.7568V33.6607L51.8275 31.4104L51.1841 32.5185L55.1134 34.7689L51.1841 37.0277L51.8275 38.1358L55.7568 35.877V40.3862H57.0437V35.877L60.9731 38.1358L61.6165 37.0277L57.6872 34.7689L61.6165 32.5185L60.9731 31.4104Z" fill="#00482F"/>
<path d="M76.5442 32.5185L75.9007 31.4104L71.9715 33.6607V29.16H70.6846V33.6607L66.7553 31.4104L66.1118 32.5185L70.0411 34.7689L66.1118 37.0277L66.7553 38.1358L70.6846 35.877V40.3862H71.9715V35.877L75.9007 38.1358L76.5442 37.0277L72.6149 34.7689L76.5442 32.5185Z" fill="#00482F"/>
<path d="M81.8378 27.3454H80.5509V42.2027H81.8378V27.3454Z" fill="white"/>
<path d="M100 61.0599L85.99 51.1294L88.2207 68.0837L92.1499 63.2932L98.1297 73.181L99.8713 72.1411L93.9001 62.2532L100 61.0599Z" fill="white"/>
<path d="M84.8835 79.7776H83.2191L73.7733 59.6268H13.8299L4.38414 79.7776H2.71976V83.8776C2.7026 85.2756 3.82651 86.5371 5.37077 86.5371H82.2325C83.7681 86.5371 84.892 85.2756 84.8749 83.8776V79.7776H84.8835Z" fill="black"/>
<path d="M73.7816 55.5845H13.8383L2.97689 78.7528C2.16186 80.4917 3.44021 82.4949 5.37913 82.4949H82.2408C84.1797 82.4949 85.458 80.5002 84.643 78.7528L73.7816 55.5845Z" fill="#006A4D"/>
<path d="M16.6097 13.5371H71.0023C72.4608 13.5371 73.6447 14.7134 73.6447 16.1625V54.0433H13.9673V16.171C13.9673 14.7219 15.1512 13.5456 16.6097 13.5456V13.5371Z" fill="#006A4D"/>
<path d="M76.5187 69.9986L71.8602 60.2131C71.5685 59.5993 70.9508 59.2072 70.2644 59.2072H17.3389C16.6526 59.2072 16.0348 59.5993 15.7431 60.2131L11.0846 69.9986C10.6728 70.8681 11.3076 71.8739 12.2771 71.8739H27.1879C27.7284 71.8739 28.1402 72.3513 28.063 72.8798L27.8914 73.9708C27.7713 74.7636 28.389 75.4881 29.1955 75.4881H58.3907C59.2057 75.4881 59.8235 74.7721 59.6948 73.9708L59.5232 72.8798C59.4374 72.3513 59.8578 71.8739 60.3983 71.8739H75.309C76.2785 71.8739 76.9219 70.8681 76.5015 69.9986H76.5187Z" fill="black"/>
<path d="M43.806 18.8971C44.3888 18.8971 44.8612 18.4277 44.8612 17.8487C44.8612 17.2696 44.3888 16.8002 43.806 16.8002C43.2232 16.8002 42.7507 17.2696 42.7507 17.8487C42.7507 18.4277 43.2232 18.8971 43.806 18.8971Z" fill="#00482F"/>
<path d="M73.6447 43.3446H13.9673V47.4787H73.6447V43.3446Z" fill="#00482F"/>
<path d="M84.9434 25.0945H2.66814C1.19456 25.0945 0 26.2814 0 27.7455V41.7931C0 43.2571 1.19456 44.444 2.66814 44.444H84.9434C86.417 44.444 87.6115 43.2571 87.6115 41.7931V27.7455C87.6115 26.2814 86.417 25.0945 84.9434 25.0945Z" fill="#6CF479"/>
<path d="M16.189 31.4104L12.2597 33.6607V29.16H10.9728V33.6607L7.04355 31.4104L6.4001 32.5185L10.3294 34.7689L6.4001 37.0277L7.04355 38.1358L10.9728 35.877V40.3862H12.2597V35.877L16.189 38.1358L16.8325 37.0277L12.9032 34.7689L16.8325 32.5185L16.189 31.4104Z" fill="#00482F"/>
<path d="M31.117 31.4104L27.1877 33.6607V29.16H25.9008V33.6607L21.9715 31.4104L21.328 32.5185L25.2573 34.7689L21.328 37.0277L21.9715 38.1358L25.9008 35.877V40.3862H27.1877V35.877L31.117 38.1358L31.7604 37.0277L27.8311 34.7689L31.7604 32.5185L31.117 31.4104Z" fill="#00482F"/>
<path d="M46.0449 31.4104L42.1156 33.6607V29.16H40.8287V33.6607L36.8994 31.4104L36.256 32.5185L40.1853 34.7689L36.256 37.0277L36.8994 38.1358L40.8287 35.877V40.3862H42.1156V35.877L46.0449 38.1358L46.6883 37.0277L42.7591 34.7689L46.6883 32.5185L46.0449 31.4104Z" fill="#00482F"/>
<path d="M60.9731 31.4104L57.0437 33.6607V29.16H55.7568V33.6607L51.8275 31.4104L51.1841 32.5185L55.1134 34.7689L51.1841 37.0277L51.8275 38.1358L55.7568 35.877V40.3862H57.0437V35.877L60.9731 38.1358L61.6165 37.0277L57.6872 34.7689L61.6165 32.5185L60.9731 31.4104Z" fill="#00482F"/>
<path d="M76.5442 32.5185L75.9007 31.4104L71.9715 33.6607V29.16H70.6846V33.6607L66.7553 31.4104L66.1118 32.5185L70.0411 34.7689L66.1118 37.0277L66.7553 38.1358L70.6846 35.877V40.3862H71.9715V35.877L75.9007 38.1358L76.5442 37.0277L72.6149 34.7689L76.5442 32.5185Z" fill="#00482F"/>
<path d="M81.8378 27.3454H80.5509V42.2027H81.8378V27.3454Z" fill="white"/>
<path d="M100 61.0599L85.99 51.1294L88.2207 68.0837L92.1499 63.2932L98.1297 73.181L99.8713 72.1411L93.9001 62.2532L100 61.0599Z" fill="white"/>
</svg>
