<svg width="100" height="100" viewBox="0 0 100 100" fill="none" xmlns="http://www.w3.org/2000/svg">
<rect width="100" height="100" fill="#11B67A"/>
<path d="M6.93044 42.4932C6.93044 42.4932 9.20058 49.9953 18.4212 52.0649C18.4212 52.0649 11.4407 53.2688 11.3007 61.6068C11.3007 61.6068 8.84056 54.3832 0 52.0549C0 52.0549 7.39047 51.1794 6.93044 42.4832V42.4932Z" fill="white"/>
<path d="M55.3135 4.03711C55.3135 4.03711 56.7836 8.89262 62.754 10.2358C62.754 10.2358 58.2337 11.0119 58.1437 16.4147C58.1437 16.4147 56.5536 11.7383 50.8332 10.2358C50.8332 10.2358 55.6135 9.66871 55.3135 4.04706V4.03711Z" fill="white"/>
<path d="M98.7963 39.7868C98.7062 39.1202 98.2662 38.5331 97.5662 38.1252L69.9344 22.0761C69.3444 21.7378 68.6443 21.5786 67.9443 21.5786C66.8442 21.5786 65.7242 21.9866 64.9941 22.7428L55.1335 33.001C43.6128 45.1597 31.932 57.1492 20.3313 69.2184C19.8013 69.7756 19.5512 70.4323 19.6512 71.079C19.7512 71.7456 20.1913 72.3426 20.8913 72.7406L48.5331 88.7897C50.0532 89.6653 52.2633 89.3668 53.4634 88.123L98.1262 41.6474C98.6562 41.1002 98.9063 40.4335 98.8063 39.7868H98.7963Z" fill="#006A4D"/>
<path d="M99.9863 45.9756L99.5063 41.5678C99.3463 41.8564 99.1463 42.1449 98.8963 42.4036L54.2334 88.8792C53.3034 89.8543 51.8833 90.3717 50.4832 90.3717C49.6031 90.3717 48.7231 90.1627 47.973 89.7349L20.3313 73.6858C19.4312 73.1684 18.8412 72.4123 18.6212 71.5367L19.2112 76.9792C19.3012 77.8051 19.8213 78.5911 20.7213 79.1184L48.8831 95.466C50.6132 96.461 53.1234 96.1227 54.4835 94.7098L99.1463 48.2342C99.7963 47.5576 100.066 46.7616 99.9863 46.0054V45.9756Z" fill="black"/>
<path d="M36.3623 85.8346C36.5223 85.3868 36.2323 84.7699 35.7023 84.4714L31.722 82.1531C31.202 81.8546 30.6519 81.974 30.4919 82.4218C30.3319 82.8695 30.6219 83.4864 31.152 83.7849L35.1322 86.1032C35.6523 86.4017 36.2023 86.2823 36.3623 85.8346Z" fill="#C7FFC6"/>
<path d="M42.3327 73.1287C44.1528 74.1734 44.4628 76.223 43.0327 77.7056C41.6126 79.1881 38.9825 79.5463 37.1724 78.5015C35.3522 77.4568 35.0322 75.4072 36.4623 73.9246C37.8824 72.4421 40.5126 72.0839 42.3327 73.1287Z" fill="#C7FFC6"/>
<path d="M76.4648 30.5335C77.0949 30.8917 77.2049 31.6081 76.7149 32.1155C76.2248 32.6229 75.3048 32.7523 74.6847 32.3941C74.0547 32.0359 73.9447 31.3195 74.4447 30.8121C74.9347 30.3046 75.8448 30.1753 76.4748 30.5335H76.4648Z" fill="#C7FFC6"/>
<path d="M85.2854 35.5979C85.9154 35.9561 86.0254 36.6725 85.5354 37.18C85.0454 37.6874 84.1253 37.8167 83.5053 37.4585L78.445 34.5532C77.8149 34.195 77.7049 33.4786 78.195 32.9612C78.685 32.4538 79.595 32.3244 80.2251 32.6826L85.2854 35.588V35.5979Z" fill="#C7FFC6"/>
<path d="M87.7556 57.0696C87.9656 57.4577 88.3756 57.5273 88.6756 57.2089L93.0759 52.642C93.3759 52.3335 93.4559 51.7664 93.2459 51.3684C93.0359 50.9804 92.6259 50.9107 92.3258 51.2291L87.9256 55.7961C87.6255 56.1045 87.5455 56.6716 87.7556 57.0696Z" fill="#C7FFC6"/>
<path d="M81.2451 63.8256C81.4552 64.2136 81.8652 64.2833 82.1652 63.9649L86.5655 59.3979C86.8655 59.0895 86.9455 58.5223 86.7355 58.1243C86.5255 57.7363 86.1154 57.6666 85.8154 57.985L81.4152 62.552C81.1151 62.8604 81.0351 63.4276 81.2451 63.8256Z" fill="#C7FFC6"/>
<path d="M53.7034 43.9359L37.7324 51.1893L25.3716 63.9947L38.2624 68.4224C39.4025 68.8005 42.6627 70.3626 44.1428 66.8404L53.7134 43.9259L53.7034 43.9359Z" fill="#024731"/>
<path d="M73.1246 49.0003C73.1246 49.0003 74.1247 52.2937 78.185 53.2091C78.185 53.2091 75.1148 53.7365 75.0448 57.4079C75.0448 57.4079 73.9647 54.224 70.0744 53.2091C70.0744 53.2091 73.3246 52.8211 73.1246 49.0003Z" fill="white"/>
<path d="M18.3412 13.6785L7.12045 31.6877C6.3304 32.9513 6.79043 34.7224 8.14052 35.6576L50.2232 64.6415C51.4133 65.4573 52.9133 65.119 53.5734 63.8952L67.5043 38.2943C68.1243 37.1501 67.7343 35.5382 66.6142 34.7025L35.8123 11.5293C33.2121 9.56921 33.1521 9.29061 31.212 9.52941C30.5819 9.60901 22.7814 10.5741 22.2214 10.6438C20.1513 10.8925 20.1513 10.7632 18.3312 13.6785H18.3412Z" fill="black"/>
<path d="M18.7412 12.9521L7.52048 30.9613C6.73043 32.2249 7.19045 33.996 8.54054 34.9313L50.6232 63.9151C51.8133 64.731 53.3134 64.3927 53.9734 63.1689L67.9043 37.568C68.5243 36.4238 68.1343 34.8119 67.0142 33.9761L36.2123 10.8129C33.6121 8.85282 33.5521 8.57423 31.612 8.81302C30.982 8.89262 23.1815 9.85775 22.6214 9.9274C20.5513 10.1761 20.5513 10.0468 18.7312 12.9621L18.7412 12.9521Z" fill="#6CF479"/>
<path d="M33.6121 26.6331L30.4619 31.9265L37.1524 36.7123L40.2325 31.4389L33.6121 26.6331Z" fill="#006A4D"/>
<path d="M40.7926 30.4638L44.1028 24.7825L39.5425 21.3995C38.4624 20.5936 37.0723 20.7926 36.4523 21.8473L34.1922 25.6481L40.8026 30.4638H40.7926Z" fill="#006A4D"/>
<path d="M52.2133 30.7922L45.0829 25.5188L37.5824 38.4336L29.8719 32.9314L27.5517 36.8317C26.9017 37.9262 27.2917 39.4585 28.4118 40.2445L41.5926 49.4779L52.2133 30.7922Z" fill="#006A4D"/>
<path d="M45.8929 44.3438L42.5927 50.1744L48.2531 54.1444C49.3131 54.8906 50.6532 54.612 51.2532 53.5375L53.3834 49.6869L45.9029 44.3538L45.8929 44.3438Z" fill="#006A4D"/>
<path d="M50.0732 36.9511L57.4436 42.324L59.4138 38.7719C59.9838 37.7371 59.6338 36.2845 58.6137 35.5283L53.1734 31.4986L50.0832 36.9611L50.0732 36.9511Z" fill="#006A4D"/>
<path d="M53.9134 48.7018L56.9136 43.2891L49.5231 37.9262L46.4429 43.3588L53.9134 48.7018Z" fill="#006A4D"/>
</svg>
