<svg width="100" height="100" viewBox="0 0 100 100" fill="none" xmlns="http://www.w3.org/2000/svg">
<rect width="100" height="100" fill="#006A4D"/>
<path d="M96.8516 41.7869L95.6291 41.3736C95.6291 41.3736 95.5588 41.312 95.5148 41.2856L60.6366 21.1115C59.1943 20.276 57.3739 20.5399 56.2307 21.7447L10.3771 69.9375L9.51529 70.1749V71.8722L9.54167 71.8898C9.54167 72.8132 9.99018 73.7278 10.8784 74.2379L45.7566 94.4121C47.1989 95.2475 49.0193 94.9837 50.1626 93.7789L96.1217 45.4717C96.6317 44.9353 96.8604 44.2493 96.8516 43.5722H96.8604V41.7781L96.8516 41.7869Z" fill="black"/>
<path d="M56.231 19.9591L10.2719 68.2663C9.06713 69.5327 9.36613 71.5817 10.8788 72.4612L45.757 92.6353C47.1992 93.4708 49.0197 93.2069 50.1629 92.0021L96.122 43.695C97.3268 42.4286 97.0278 40.3795 95.5152 39.5001L60.637 19.326C59.1947 18.4905 57.3743 18.7543 56.231 19.9591Z" fill="#11B67A"/>
<path d="M80.301 30.6967L30.0239 83.5329L38.783 88.6776L89.1656 35.7535L80.301 30.6967Z" fill="black"/>
<path d="M10.2455 68.301C25.785 69.1805 37.5166 66.1376 37.5166 66.1376L28.3881 57.4752L23.7975 54.0454L10.2631 68.2658C10.2631 68.2658 10.2455 68.2922 10.2367 68.301H10.2455Z" fill="black"/>
<path d="M86.6766 44.2402C86.6766 44.2402 89.3149 52.9817 100 55.4002C100 55.4002 91.9005 56.7985 91.7422 66.525C91.7422 66.525 88.8928 58.1 78.6386 55.3914C78.6386 55.3914 87.2043 54.3712 86.6766 44.2402Z" fill="white"/>
<path d="M67.1972 25.0862C67.1972 25.0862 68.3581 28.9293 73.063 29.9935C73.063 29.9935 69.5013 30.6091 69.4222 34.8919C69.4222 34.8919 68.1646 31.1807 63.6531 29.9935C63.6531 29.9935 67.4258 29.5449 67.1884 25.0862H67.1972Z" fill="white"/>
<path d="M88.6468 7.84097C88.6468 7.84097 90.3529 13.4957 97.274 15.0611C97.274 15.0611 92.0325 15.9669 91.927 22.2636C91.927 22.2636 90.0802 16.8112 83.4493 15.0611C83.4493 15.0611 88.9897 14.4015 88.6468 7.84977V7.84097Z" fill="white"/>
<path d="M48.3687 45.2073C48.3687 45.2073 37.1648 49.5781 22.6893 46.2802L25.2924 41.0212L26.7171 39.2008V38.1367C22.1265 39.2711 17.5534 40.6343 13.0244 42.3755C8.4953 44.108 4.1773 46.1571 0 48.3733V49.4374L1.62695 50.0178C4.42354 52.832 7.36084 55.5494 10.518 58.1086C13.2179 60.2983 16.0056 62.3122 18.8462 64.203L22.2232 67.4481V66.384L21.0008 57.9766C34.7375 61.8637 46.3548 57.8535 46.3548 57.8535L48.1576 46.5265L48.3687 46.2714V45.2073Z" fill="black"/>
<path d="M46.3284 13.2754C42.5557 10.2238 38.6334 7.50638 34.6232 5V6.06411L34.8958 6.84681L35.8456 13.4074C22.1089 9.52027 10.4916 13.5305 10.4916 13.5305L8.47771 26.1855V27.2496L15.2405 24.5146C19.8839 23.7671 26.5676 23.3889 34.1571 25.1126L30.1293 33.2561V34.3202L56.8464 24.0837V23.0195C53.5662 19.6161 50.1012 16.3359 46.3284 13.2754Z" fill="black"/>
<path d="M46.3285 14.3396C42.5558 11.288 38.6334 8.57049 34.6232 6.06411L35.8457 14.4715C22.109 10.5844 10.4917 14.5946 10.4917 14.5946L8.47771 27.2496C8.47771 27.2496 19.6818 22.8788 34.1572 26.1767L30.1293 34.3202C34.7199 33.1858 39.2931 31.8227 43.8222 30.0814C48.3512 28.3489 52.6691 26.2998 56.8464 24.0837C53.5662 20.6803 50.1013 17.4 46.3285 14.3396Z" fill="#6CF479"/>
<path d="M22.6893 47.3443L26.7171 39.2008C22.1265 40.3353 17.5534 41.6983 13.0244 43.4396C8.4953 45.1721 4.1773 47.2212 0 49.4374C3.28028 52.8408 6.74524 56.121 10.518 59.1814C14.2908 62.2331 18.213 64.9505 22.2232 67.4569L21.0008 59.0495C34.7375 62.9366 46.3548 58.9264 46.3548 58.9264L48.3687 46.2714C48.3687 46.2714 37.1648 50.6422 22.6893 47.3443Z" fill="#6CF479"/>
</svg>
