<svg width="100" height="100" viewBox="0 0 100 100" fill="none" xmlns="http://www.w3.org/2000/svg">
<rect width="100" height="100" fill="#006A4D"/>
<path d="M49.8433 39.7706C49.8433 39.7706 38.7611 44.0939 24.4429 40.8318L27.0177 35.63L28.4269 33.8293V32.7768C23.8861 33.8989 19.3628 35.2472 14.8829 36.9696C10.403 38.6832 6.13192 40.71 2 42.9021V43.9547L3.60928 44.5288C6.37549 47.3124 9.28088 50.0004 12.4037 52.5317C15.0743 54.6977 17.8318 56.6897 20.6415 58.56L23.9818 61.7698V60.7173L22.7727 52.4012C36.3602 56.2461 47.8513 52.2794 47.8513 52.2794L49.6346 41.0754L49.8433 40.8231V39.7706Z" fill="black"/>
<path d="M47.8252 8.18556C44.0934 5.16708 40.2138 2.47915 36.2471 0V1.05255L36.5168 1.82675L37.4563 8.31604C23.8687 4.47118 12.3777 8.43782 12.3777 8.43782L10.3856 20.9554V22.0079L17.075 19.3026C21.668 18.5632 28.279 18.1892 35.7861 19.8941L31.802 27.9492V29.0018L58.229 18.8764V17.8238C54.9843 14.4574 51.557 11.2127 47.8252 8.18556Z" fill="black"/>
<path d="M60.4298 31.8984L16.6401 77.8976L54.445 99.7664C55.141 100.167 56.0195 100.045 56.5763 99.4619L98.661 55.2547C99.0524 54.8458 98.9567 54.1847 98.4696 53.8977L60.4385 31.8984H60.4298Z" fill="black"/>
<path d="M97.1126 39.4142L60.4298 31.8984L16.6401 77.8976L53.9144 85.5265C54.5059 85.6482 55.1062 85.4569 55.5237 85.0219L81.3504 57.8904L87.2656 57.325C88.0833 57.2467 88.8488 56.8814 89.4316 56.2898L96.2079 49.3221C96.7212 48.8002 96.8429 48.0086 96.5298 47.3562L94.7987 43.7723L97.5649 40.8669C98.0347 40.3711 97.7824 39.5534 97.1126 39.4142Z" fill="#11B67A"/>
<path d="M82.4899 10.0299C82.4899 10.0299 84.7863 17.6501 94.1114 19.7552C94.1114 19.7552 87.048 20.973 86.9088 29.4543C86.9088 29.4543 84.421 22.1039 75.4873 19.7465C75.4873 19.7465 82.9509 18.8592 82.4899 10.0299Z" fill="white"/>
<path d="M84.5252 66.0499C81.5589 61.8658 77.9576 58.308 74.1475 55.7157C78.3403 60.5435 79.8452 66.0847 78.0968 70.321C84.8383 77.193 85.6734 86.1093 79.7234 90.9197C76.3396 93.6511 71.4422 94.4949 66.3795 93.6424C71.3465 95.7562 76.4701 96.1216 80.7325 94.2426C89.7966 90.2499 92.0322 76.6363 84.5252 66.0499Z" fill="white"/>
<path d="M44.1455 63.9448C44.6848 64.084 44.9371 64.719 44.6152 65.1713C44.1194 65.8672 43.3626 66.4849 41.3619 66.7719L24.7124 69.3555L32.6109 61.0307L44.1455 63.9448Z" fill="black"/>
<path d="M47.8253 9.23813C44.0935 6.21965 40.2138 3.53171 36.2471 1.05255L37.4564 9.36861C23.8689 5.52375 12.3778 9.49039 12.3778 9.49039L10.3856 22.0079C10.3856 22.0079 21.468 17.6847 35.7862 20.9467L31.802 29.0018C36.3428 27.8796 40.8663 26.5313 45.3462 24.809C49.826 23.0953 54.097 21.0685 58.229 18.8764C54.9843 15.5099 51.5571 12.2653 47.8253 9.23813Z" fill="#6CF479"/>
<path d="M24.4429 41.8843L28.4269 33.8293C23.8861 34.9515 19.3628 36.2997 14.8829 38.0221C10.403 39.7358 6.13192 41.7626 2 43.9547C5.24465 47.3211 8.67197 50.5657 12.4037 53.5929C16.1355 56.6114 20.0152 59.2993 23.9818 61.7785L22.7727 53.4624C36.3602 57.3073 47.8513 53.3407 47.8513 53.3407L49.8433 40.8231C49.8433 40.8231 38.7611 45.1464 24.4429 41.8843Z" fill="#6CF479"/>
<path d="M76.4965 46.6951L72.9735 42.1978C72.7212 41.8759 72.1036 41.7629 71.4686 41.9281L62.6741 44.1898C62.1348 44.329 61.6564 44.6161 61.3867 44.9553L55.602 51.1402L61.3519 52.184L65.0054 48.2L68.5719 48.8437L64.9184 52.8277L70.6248 53.8629L76.4095 47.678C76.6792 47.3301 76.714 46.9647 76.4965 46.6951Z" fill="#00482F"/>
</svg>
