<svg width="100" height="100" viewBox="0 0 100 100" fill="none" xmlns="http://www.w3.org/2000/svg">
<g clip-path="url(#clip0_15980_15031)">
<rect width="100" height="100" fill="#11B67A"/>
<path d="M22.4795 78.2608H14.8092V98.5H22.4795V78.2608Z" fill="black"/>
<path d="M31.8859 14.6765H8.20927C6.65911 14.6765 5.40246 15.937 5.40246 17.4918V80.0777C5.40246 81.6325 6.65911 82.8929 8.20927 82.8929H31.8859C33.4361 82.8929 34.6927 81.6325 34.6927 80.0777V17.4918C34.6927 15.937 33.4361 14.6765 31.8859 14.6765Z" fill="#006A4D"/>
<path d="M74.4437 77.0125H66.7734V98.4945H74.4437V77.0125Z" fill="black"/>
<path d="M85.2746 27.6087H55.9337L41.2675 53.0979L55.9337 78.5786H85.2746L99.9492 53.0979L85.2746 27.6087Z" fill="#6CF479"/>
<path d="M85.2746 25.3829H55.9337L41.2675 50.8721V53.0955L55.9337 27.6063H85.2746L99.9492 53.0955V50.8721L85.2746 25.3829Z" fill="black"/>
<path d="M83.3356 30.9904H57.8889L45.1613 53.0979L57.8889 75.2054H83.3356L96.0632 53.0979L83.3356 30.9904ZM82.6023 73.9289H58.6138L46.6195 53.0895L58.6138 32.25H82.6023L94.5966 53.0895L82.6023 73.9289ZM62.0612 55.1607H61.9769L60.2996 48.7356H58.4789L56.8016 55.1438H56.7257L55.2001 48.7356H53.076L55.7058 57.959H57.6023L59.3471 51.9312H59.423L61.1762 57.959H63.0726L65.7025 48.7356H63.5784L62.0528 55.1607H62.0612ZM69.1246 48.744L65.9469 57.9675H68.0288L68.7116 55.8624H72.0325L72.7153 57.9675H74.7972L71.6279 48.744H69.1246ZM69.2089 54.3407L70.3383 50.8491H70.4142L71.5437 54.3407H69.2089ZM80.3602 48.744V50.3503H83.1755V57.9675H85.0973V50.3503H87.9125V48.744H80.3602ZM76.5335 57.9675H78.4806V48.744H76.5335V57.9675Z" fill="#00482F"/>
<path d="M5.64713 16.3433C6.08543 15.3627 7.06318 14.6779 8.2095 14.6779H31.8862C32.2318 14.6779 32.552 14.7455 32.8555 14.8639L28.6663 12.0994C27.7476 11.4907 26.6771 11.1694 25.5814 11.1694H3.45562C2.11544 11.1694 0.960682 11.9303 0.370662 13.0378L5.64713 16.3433Z" fill="black"/>
<path d="M5.40269 18.6817L-0.0507812 15.2578V18.9691L5.40269 22.4776V18.6817Z" fill="black"/>
<path d="M6.81844 82.5077L6.9533 82.6092H6.99545C6.93645 82.5753 6.86902 82.5415 6.81001 82.5077H6.81844Z" fill="black"/>
<path d="M5.40246 80.0777L5.40269 28.4998L-0.0507812 24.9998V75.6147C-0.0507812 76.7222 0.471808 77.7705 1.35684 78.4384L6.21186 82.0736C5.70613 81.5664 5.39426 80.8647 5.39426 80.0954L5.40246 80.0777Z" fill="black"/>
<path d="M20.0435 36.5466C24.4844 36.5466 28.0846 32.9356 28.0846 28.4813C28.0846 24.027 24.4844 20.4161 20.0435 20.4161C15.6025 20.4161 12.0023 24.027 12.0023 28.4813C12.0023 32.9356 15.6025 36.5466 20.0435 36.5466Z" fill="black"/>
<path d="M19.7571 24.9029C19.7571 24.9029 26.6182 24.2096 24.7639 32.5961C25.7248 31.4971 26.3063 30.0599 26.3063 28.479C26.3063 25.0128 23.508 22.206 20.0521 22.206C19.1502 22.206 18.2989 22.4004 17.5235 22.7471C17.5235 22.7471 19.5885 22.8147 19.7655 24.9113L19.7571 24.9029Z" fill="white"/>
<path d="M20.0435 56.8497C24.4844 56.8497 28.0846 53.2388 28.0846 48.7845C28.0846 44.3302 24.4844 40.7192 20.0435 40.7192C15.6025 40.7192 12.0023 44.3302 12.0023 48.7845C12.0023 53.2388 15.6025 56.8497 20.0435 56.8497Z" fill="#6CF479"/>
<path d="M19.7571 45.272C19.7571 45.272 26.6182 44.5788 24.7639 52.9653C25.7248 51.8662 26.3063 50.429 26.3063 48.8481C26.3063 45.3819 23.508 42.5752 20.0521 42.5752C19.1502 42.5752 18.2989 42.7696 17.5235 43.1162C17.5235 43.1162 19.5885 43.1839 19.7655 45.2805L19.7571 45.272Z" fill="white"/>
<path d="M20.0435 77.1594C24.4844 77.1594 28.0846 73.5485 28.0846 69.0942C28.0846 64.6399 24.4844 61.0289 20.0435 61.0289C15.6025 61.0289 12.0023 64.6399 12.0023 69.0942C12.0023 73.5485 15.6025 77.1594 20.0435 77.1594Z" fill="black"/>
<path d="M19.7571 65.6346C19.7571 65.6346 26.6182 64.9413 24.7639 73.3278C25.7248 72.2288 26.3063 70.7916 26.3063 69.2107C26.3063 65.7445 23.508 62.9377 20.0521 62.9377C19.1502 62.9377 18.2989 63.1322 17.5235 63.4788C17.5235 63.4788 19.5885 63.5464 19.7655 65.643L19.7571 65.6346Z" fill="white"/>
<path d="M69.4366 1.50329C68.0121 1.54556 66.6466 2.12044 65.5172 2.99967C64.7417 3.59991 63.8904 4.45378 63.3847 5.519C63.3847 5.519 57.8132 0.387343 52.0394 8.62166C52.0394 8.62166 54.1298 6.60958 57.1894 6.27141C59.7012 5.99243 62.1372 7.23518 63.5532 9.33181L63.5869 9.38253C63.5869 9.38253 64.7248 6.27987 67.9278 4.5045C69.4281 3.66754 71.2066 3.3801 72.8671 3.81972C73.6089 4.01416 74.3843 4.36078 74.9828 4.96102C74.9828 4.96102 73.4234 1.37648 69.4281 1.50329H69.4366ZM84.1786 16.2896C84.1365 15.461 83.8078 14.6917 83.4706 14.0999C82.9733 13.2376 82.2484 12.5106 81.3465 12.0963C78.8095 10.955 75.6065 12.5359 75.6065 12.5359C76.1459 12.3077 77.9919 12.6036 78.5229 12.6712C79.7113 12.8318 80.7818 13.4912 81.5236 14.4212C83.1166 16.4164 83.0323 18.7159 83.0323 18.7159L83.0745 18.6905C84.5411 17.7183 86.4376 17.5661 87.9801 18.4115C89.8597 19.4429 90.6773 21.2944 90.6773 21.2944C89.1348 14.455 84.1871 16.2811 84.1871 16.2811L84.1786 16.2896Z" fill="white"/>
</g>
<defs>
<clipPath id="clip0_15980_15031">
<rect width="100" height="100" fill="white"/>
</clipPath>
</defs>
</svg>
