<svg width="100" height="100" viewBox="0 0 100 100" fill="none" xmlns="http://www.w3.org/2000/svg">
<g clip-path="url(#clip0_15980_15061)">
<rect width="100" height="100" fill="#11B67A"/>
<path d="M31.8611 94.8944C31.8611 94.8944 36.0564 91.5815 39.0349 90.8765L41.8347 91.0549L46.7279 89.1351L49.1787 87.2153C49.1787 87.2153 50.4042 86.1705 51.4509 85.9921C52.4976 85.8137 58.0971 86.867 58.0971 86.867C58.0971 86.867 61.2458 87.9119 62.8201 90.7066C62.8201 90.7066 65.0923 90.7066 65.7901 93.6712C65.7901 93.6712 67.892 93.3229 69.9854 95.591C69.9854 95.591 70.513 96.9841 67.0155 97.3408C63.5179 97.6891 62.8201 98.9124 60.0203 99.0907C57.2206 99.2691 52.3273 97.5192 52.3273 97.5192L44.9833 96.9926C44.9833 96.9926 40.7879 97.6891 38.1583 96.9926C35.5373 96.296 31.8611 94.8944 31.8611 94.8944Z" fill="black"/>
<path d="M43.1622 50.6595C41.341 50.6595 40.7454 51.0418 40.5411 51.2966C40.4731 51.3901 40.4475 51.509 40.439 51.6279L39.8944 93.1749C40.6603 93.2004 41.9452 93.3448 42.9664 93.9479C42.9664 93.9479 44.1919 92.4953 45.5194 91.7818L45.8769 51.526C45.8769 51.526 45.9364 50.6595 43.1622 50.6595Z" fill="#6CF479"/>
<path d="M72.045 64.473C72.3768 64.1927 72.6747 63.8784 72.981 63.5726C73.7044 62.8166 75.7553 61.0497 78.7593 61.3895C80.0102 61.5339 80.9804 62.103 81.6527 62.6807C83.3462 59.7415 86.5289 57.7538 90.1711 57.7538C95.6004 57.7538 100 62.1455 100 67.5651V68.508H59.178C66.3859 68.508 69.8409 66.3673 72.0364 64.473H72.045Z" fill="white"/>
<path d="M28.9505 53.0732C28.9505 53.0732 24.2446 42.8457 8.74801 53.0562L28.9505 53.0732Z" fill="white"/>
<path d="M0 10.5487C0 10.5487 1.70197 8.1702 4.67193 7.26128C7.10577 6.51376 9.76094 7.27827 11.5565 9.07912L11.599 9.13009C11.599 9.13009 12.1436 5.85118 14.9859 3.49818C16.322 2.39388 18.0325 1.77378 19.76 1.8927C20.5344 1.94367 21.3684 2.14754 22.0748 2.62324C22.0748 2.62324 19.8537 -0.621685 15.9221 0.253257C14.518 0.567556 13.2669 1.38303 12.3223 2.46184C11.6671 3.20087 10.9863 4.20324 10.68 5.35C10.68 5.35 4.18689 1.33206 0.00851822 10.5487H0Z" fill="white"/>
<path d="M51.9787 55.7711C50.6427 62.0061 49.5023 72.4375 49.8427 89.741C49.8597 90.4375 50.4214 90.9897 51.1192 90.9897H51.1447C51.851 90.9727 52.4127 90.395 52.3957 89.69C52.0979 74.4507 52.9914 64.6904 54.0806 58.5489C53.502 57.8608 52.6935 56.8499 51.9871 55.7711H51.9787ZM80.4614 29.387C80.4614 29.387 77.0914 26.4818 73.4407 27.6711C73.4407 27.6711 66.1477 29.7183 69.475 37.0321C72.8024 44.3374 86.4439 49.3237 86.4439 49.3237C86.4439 49.3237 91.771 41.6871 92.1029 32.3856C92.4348 23.084 81.7889 24.4092 80.4529 29.3955L80.4614 29.387ZM85.7545 45.4502C85.7545 45.4502 84.6313 38.2553 81.4486 31.2473C81.4486 31.2473 81.8229 28.0703 85.0056 27.3228C85.0056 27.3228 83.7887 29.1916 84.2568 31.4342C84.7248 33.6767 87.5331 38.1619 85.7545 45.4502ZM88.2224 16.025L86.8694 14.2242C84.376 10.9113 81.3974 7.98064 77.9509 5.67861C70.3941 0.632828 66.4625 2.16185 64.769 3.58045C63.6032 4.54883 63.2968 6.2987 64.2499 7.48794C65.5435 9.11041 68.2666 9.72202 68.2666 9.72202C68.2666 9.72202 57.9527 7.7258 62.2757 14.3686C66.5987 21.0113 88.2309 16.0335 88.2309 16.0335L88.2224 16.025ZM72.462 5.31333C72.462 5.31333 73.4662 7.50493 73.2535 9.26331C73.2535 9.26331 75.6192 7.27558 79.8316 8.26095C79.8316 8.26095 77.4403 8.40537 77.0233 9.59461C77.0233 9.59461 80.2571 9.24632 84.2568 12.9585C84.2568 12.9585 77.7297 10.8518 70.4282 10.0108L69.1432 9.82395C69.1432 9.82395 72.2578 7.90418 72.4706 5.31333H72.462ZM28.287 21.3936V18.0467C28.287 18.0467 15.7179 16.093 13.4883 33.3794C13.4883 33.3794 30.806 31.4257 38.6266 23.067C46.4472 14.7083 31.0868 18.0467 28.2956 21.3936H28.287ZM24.2534 28.9113C18.4496 29.9391 18.0752 29.9391 16.2966 30.967C16.2966 30.967 18.5432 28.1637 21.6323 26.6687C24.7214 25.1737 27.0617 23.6786 27.9041 22.277C27.9041 22.277 28.3722 23.5852 27.2489 24.7065C26.1256 25.8277 27.3425 27.6966 32.3038 25.1737C32.3038 25.1737 30.0571 27.8834 24.2534 28.9113ZM58.5739 42.3922C59.1356 40.1496 59.5695 37.6522 59.7227 34.9339C59.8248 33.1246 59.6972 31.757 59.3993 30.7461C60.6843 26.6177 62.3863 22.311 63.7138 19.1765C63.1862 18.429 62.582 17.4776 62.1054 16.4412C60.863 19.2784 58.9994 23.7636 57.4931 28.3167C56.3698 27.8579 55.0082 28.1553 53.8594 28.6225C52.7871 20.0344 50.8554 13.1538 50.0214 10.4186C51.1873 8.38837 53.3062 2.93485 42.4135 3.13872C29.0444 3.39356 23.3173 10.3931 23.3173 10.3931C23.3173 10.3931 36.8055 7.92967 47.3833 10.546C48.0471 12.6527 50.3278 20.3827 51.4341 29.9476C51.4341 29.9476 47.9534 29.7098 45.7239 31.723C43.9963 29.1151 42.4987 27.1954 41.2392 25.7768C41.2392 26.7027 41.1286 27.9004 40.7967 29.2256C41.7923 30.4998 42.9411 32.0967 44.2261 34.093C44.0304 34.7301 43.9112 35.4606 43.9112 36.3016C43.9112 43.1907 53.468 54.2166 53.468 54.2166C53.468 54.2166 53.57 54.0722 53.7487 53.8089L57.3399 48.5083C60.3354 43.6324 64.0543 39.9118 67.2966 37.2614C67.254 36.361 67.2965 35.1378 67.5688 33.7872C64.8457 35.8089 61.6034 38.6546 58.5739 42.3837V42.3922ZM53.4594 49.723C53.4594 49.723 53.953 47.7013 53.1105 42.6555C52.268 37.6097 51.1702 36.6668 51.4 31.7824C51.4 31.7824 52.4297 36.4545 54.4891 36.2676C54.4891 36.2676 55.5358 36.2591 56.6421 35.3332C56.6421 35.3332 57.7655 39.8183 53.4594 49.723Z" fill="#006A4D"/>
<path d="M54.3019 67.035V65.1831C54.3019 64.58 53.8593 64.0873 53.2977 63.9854C53.17 65.0727 53.0594 66.2365 52.9573 67.4767C52.9403 67.7145 52.7956 67.9354 52.5914 68.0458C48.0641 70.5007 43.639 71.3077 41.2051 71.571C40.1159 71.6305 40.1924 71.0274 40.1924 71.0274L40.218 69.1671C40.1414 69.2181 40.0733 69.269 40.0052 69.3115C39.5457 69.6258 39.2819 70.1525 39.2819 70.7046V75.2152C39.2819 75.8608 39.8351 76.3025 40.4818 76.294C46.0218 76.1921 52.0297 73.2954 53.6381 72.0467C54.0636 71.7155 54.3104 71.2313 54.3104 70.6282V67.0264L54.3019 67.035ZM50.6682 64.3676C48.9236 64.7754 47.2557 65.3955 45.7494 66.0666L45.7069 70.3818C47.4089 69.6768 48.9577 69.2011 50.2512 68.8953C50.3703 67.1879 50.515 65.8202 50.6682 64.3592V64.3676Z" fill="black"/>
</g>
<defs>
<clipPath id="clip0_15980_15061">
<rect width="100" height="100" fill="white"/>
</clipPath>
</defs>
</svg>
