<svg width="100" height="100" viewBox="0 0 100 100" fill="none" xmlns="http://www.w3.org/2000/svg">
<g clip-path="url(#clip0_15980_15059)">
<rect width="100" height="100" fill="#11B67A"/>
<path d="M31.8611 95.0858C31.8611 95.0858 36.0564 91.7729 39.0349 91.0679L41.8347 91.2463L46.7279 89.3265L49.1787 87.4067C49.1787 87.4067 50.4042 86.3619 51.4509 86.1835C52.4976 86.0051 58.0971 87.0584 58.0971 87.0584C58.0971 87.0584 61.2458 88.1033 62.8201 90.898C62.8201 90.898 65.0923 90.898 65.7901 93.8626C65.7901 93.8626 67.892 93.5143 69.9854 95.7824C69.9854 95.7824 70.513 97.1755 67.0155 97.5322C63.5179 97.8805 62.8201 99.1038 60.0203 99.2822C57.2206 99.4605 52.3273 97.7107 52.3273 97.7107L44.9833 97.184C44.9833 97.184 40.7879 97.8805 38.1583 97.184C35.5373 96.4874 31.8611 95.0858 31.8611 95.0858Z" fill="black"/>
<path d="M43.1622 50.8509C41.341 50.8509 40.7454 51.2332 40.5411 51.488C40.4731 51.5815 40.4475 51.7004 40.439 51.8193L39.8944 93.3663C40.6603 93.3918 41.9452 93.5362 42.9664 94.1393C42.9664 94.1393 44.1919 92.6867 45.5194 91.9732L45.8769 51.7174C45.8769 51.7174 45.9364 50.8509 43.1622 50.8509Z" fill="#6CF479"/>
<path d="M72.045 64.6645C72.3768 64.3841 72.6747 64.0698 72.981 63.764C73.7044 63.008 75.7553 61.2411 78.7593 61.5809C80.0102 61.7253 80.9804 62.2944 81.6527 62.8721C83.3462 59.933 86.5289 57.9452 90.1711 57.9452C95.6004 57.9452 100 62.3369 100 67.7565V68.6994H59.178C66.3859 68.6994 69.8409 66.5587 72.0364 64.6645H72.045Z" fill="white"/>
<path d="M28.9505 53.2646C28.9505 53.2646 24.2446 43.0371 8.74801 53.2476L28.9505 53.2646Z" fill="white"/>
<path d="M0 10.7401C0 10.7401 1.70197 8.36161 4.67193 7.45269C7.10577 6.70517 9.76094 7.46968 11.5565 9.27053L11.599 9.32149C11.599 9.32149 12.1436 6.04258 14.9859 3.68959C16.322 2.58529 18.0325 1.96519 19.76 2.08411C20.5344 2.13508 21.3684 2.33895 22.0748 2.81464C22.0748 2.81464 19.8537 -0.430278 15.9221 0.444663C14.518 0.758962 13.2669 1.57443 12.3223 2.65325C11.6671 3.39227 10.9863 4.39464 10.68 5.54141C10.68 5.54141 4.18689 1.52347 0.00851822 10.7401H0Z" fill="white"/>
<path d="M51.9787 55.9625C50.6427 62.1975 49.5023 72.6289 49.8427 89.9324C49.8597 90.6289 50.4214 91.1811 51.1192 91.1811H51.1447C51.851 91.1641 52.4127 90.5864 52.3957 89.8814C52.0979 74.6421 52.9914 64.8819 54.0806 58.7403C53.502 58.0522 52.6935 57.0413 51.9871 55.9625H51.9787ZM80.4614 29.5784C80.4614 29.5784 77.0914 26.6732 73.4407 27.8625C73.4407 27.8625 66.1477 29.9097 69.475 37.2235C72.8024 44.5288 86.4439 49.5151 86.4439 49.5151C86.4439 49.5151 91.771 41.8785 92.1029 32.577C92.4348 23.2754 81.7889 24.6006 80.4529 29.5869L80.4614 29.5784ZM85.7545 45.6416C85.7545 45.6416 84.6313 38.4467 81.4486 31.4387C81.4486 31.4387 81.8229 28.2617 85.0056 27.5142C85.0056 27.5142 83.7887 29.383 84.2568 31.6256C84.7248 33.8681 87.5331 38.3533 85.7545 45.6416ZM88.2224 16.2164L86.8694 14.4156C84.376 11.1027 81.3974 8.17204 77.9509 5.87001C70.3941 0.824234 66.4625 2.35326 64.769 3.77185C63.6032 4.74023 63.2968 6.49011 64.2499 7.67935C65.5435 9.30181 68.2666 9.91343 68.2666 9.91343C68.2666 9.91343 57.9527 7.9172 62.2757 14.56C66.5987 21.2027 88.2309 16.2249 88.2309 16.2249L88.2224 16.2164ZM72.462 5.50474C72.462 5.50474 73.4662 7.69634 73.2535 9.45471C73.2535 9.45471 75.6192 7.46699 79.8316 8.45236C79.8316 8.45236 77.4403 8.59677 77.0233 9.78601C77.0233 9.78601 80.2571 9.43773 84.2568 13.1499C84.2568 13.1499 77.7297 11.0432 70.4282 10.2022L69.1432 10.0154C69.1432 10.0154 72.2578 8.09559 72.4706 5.50474H72.462ZM28.287 21.585V18.2381C28.287 18.2381 15.7179 16.2844 13.4883 33.5708C13.4883 33.5708 30.806 31.6171 38.6266 23.2584C46.4472 14.8997 31.0868 18.2381 28.2956 21.585H28.287ZM24.2534 29.1027C18.4496 30.1305 18.0752 30.1305 16.2966 31.1584C16.2966 31.1584 18.5432 28.3552 21.6323 26.8601C24.7214 25.3651 27.0617 23.87 27.9041 22.4684C27.9041 22.4684 28.3722 23.7766 27.2489 24.8979C26.1256 26.0191 27.3425 27.888 32.3038 25.3651C32.3038 25.3651 30.0571 28.0748 24.2534 29.1027ZM58.5739 42.5836C59.1356 40.341 59.5695 37.8436 59.7227 35.1253C59.8248 33.316 59.6972 31.9484 59.3993 30.9375C60.6843 26.8091 62.3863 22.5024 63.7138 19.3679C63.1862 18.6204 62.582 17.669 62.1054 16.6326C60.863 19.4698 58.9994 23.955 57.4931 28.5081C56.3698 28.0494 55.0082 28.3467 53.8594 28.8139C52.7871 20.2258 50.8554 13.3452 50.0214 10.61C51.1873 8.57977 53.3062 3.12626 42.4135 3.33013C29.0444 3.58497 23.3173 10.5845 23.3173 10.5845C23.3173 10.5845 36.8055 8.12107 47.3833 10.7374C48.0471 12.8441 50.3278 20.5741 51.4341 30.139C51.4341 30.139 47.9534 29.9012 45.7239 31.9144C43.9963 29.3065 42.4987 27.3868 41.2392 25.9682C41.2392 26.8941 41.1286 28.0918 40.7967 29.417C41.7923 30.6912 42.9411 32.2881 44.2261 34.2844C44.0304 34.9215 43.9112 35.652 43.9112 36.493C43.9112 43.3821 53.468 54.408 53.468 54.408C53.468 54.408 53.57 54.2636 53.7487 54.0003L57.3399 48.6997C60.3354 43.8238 64.0543 40.1032 67.2966 37.4529C67.254 36.5524 67.2965 35.3292 67.5688 33.9786C64.8457 36.0003 61.6034 38.846 58.5739 42.5751V42.5836ZM53.4594 49.9144C53.4594 49.9144 53.953 47.8927 53.1105 42.8469C52.268 37.8011 51.1702 36.8582 51.4 31.9738C51.4 31.9738 52.4297 36.6459 54.4891 36.459C54.4891 36.459 55.5358 36.4505 56.6421 35.5246C56.6421 35.5246 57.7655 40.0097 53.4594 49.9144Z" fill="#006A4D"/>
<path d="M54.3019 67.2264V65.3745C54.3019 64.7714 53.8593 64.2787 53.2977 64.1768C53.17 65.2641 53.0594 66.4279 52.9573 67.6681C52.9403 67.9059 52.7956 68.1268 52.5914 68.2372C48.0641 70.6921 43.639 71.4991 41.2051 71.7625C40.1159 71.8219 40.1924 71.2188 40.1924 71.2188L40.218 69.3585C40.1414 69.4095 40.0733 69.4604 40.0052 69.5029C39.5457 69.8172 39.2819 70.3439 39.2819 70.896V75.4066C39.2819 76.0522 39.8351 76.4939 40.4818 76.4854C46.0218 76.3835 52.0297 73.4869 53.6381 72.2382C54.0636 71.9069 54.3104 71.4227 54.3104 70.8196V67.2178L54.3019 67.2264ZM50.6682 64.559C48.9236 64.9668 47.2557 65.5869 45.7494 66.258L45.7069 70.5732C47.4089 69.8682 48.9577 69.3925 50.2512 69.0867C50.3703 67.3793 50.515 66.0116 50.6682 64.5506V64.559Z" fill="black"/>
</g>
<defs>
<clipPath id="clip0_15980_15059">
<rect width="100" height="100" fill="white"/>
</clipPath>
</defs>
</svg>
