<svg width="100" height="100" viewBox="0 0 100 100" fill="none" xmlns="http://www.w3.org/2000/svg">
<rect width="100" height="100" fill="#006A4D"/>
<path d="M49.5219 11.1792C65.274 11.1792 78.0437 8.67667 78.0437 5.58961C78.0437 2.50255 65.274 0 49.5219 0C33.7697 0 21 2.50255 21 5.58961C21 8.67667 33.7697 11.1792 49.5219 11.1792Z" fill="#6CF479"/>
<path d="M49.5219 13.1676C41.7755 13.1676 34.4843 12.5641 28.9739 11.4858C26.273 10.9614 23.038 10.1502 21 8.74536V11.8023C21 14.889 33.772 17.392 49.5219 17.392C65.2717 17.392 78.0437 14.889 78.0437 11.8023V8.76515C76.6191 9.72478 74.1953 10.6844 70.0698 11.4957C64.5594 12.574 57.2583 13.1676 49.5219 13.1676Z" fill="#6CF479"/>
<path d="M70.0698 94.1037C64.5594 95.1821 57.2583 95.7756 49.5219 95.7756C41.7854 95.7756 34.4843 95.1821 28.9739 94.1037C26.2829 93.5794 23.038 92.778 21 91.3732V94.4104C21 97.497 33.772 100 49.5219 100C65.2717 100 78.0437 97.497 78.0437 94.4104V91.3732C76.6092 92.3328 74.1854 93.2925 70.0698 94.1037Z" fill="#6CF479"/>
<path d="M40.1331 44.6279C42.1217 47.2693 42.1217 50.9001 40.1331 53.5317C39.4307 54.4616 38.5502 55.4311 37.4917 56.4798C23.4533 70.3698 21.5638 81.361 21.3362 84.8335C22.8004 83.9431 25.1648 83.0725 28.9638 82.3305C34.4743 81.2522 41.7754 80.6586 49.5118 80.6586C57.2482 80.6586 64.5494 81.2522 70.0598 82.3305C72.6024 82.8252 75.6494 83.5771 77.6874 84.8434C77.4599 81.3907 75.5703 70.3895 61.5319 56.4897C60.4734 55.441 59.5929 54.4715 58.8905 53.5416C56.902 50.9001 56.902 47.2495 58.8905 44.618C59.5929 43.688 60.4734 42.7185 61.5319 41.6698C73.5026 29.8278 76.6387 20.0929 77.4401 15.3343C75.9561 16.1753 73.6609 16.9964 70.0598 17.6988C64.5494 18.7771 57.2482 19.3707 49.5118 19.3707C41.7754 19.3707 34.4743 18.7771 28.9638 17.6988C26.5202 17.2239 23.6215 16.5116 21.5835 15.3442C22.3948 20.1127 25.5309 29.8475 37.4917 41.6797C38.5502 42.7284 39.4307 43.6979 40.1331 44.6279Z" fill="#11B67A"/>
<path d="M72.8796 86.584C66.9932 78.6398 60.5231 72.051 56.5263 68.2521C55.0126 66.8176 52.4305 64.552 50.4024 63.1472C50.1452 62.9691 49.8385 62.8801 49.522 62.8801C49.1955 62.8801 48.8789 62.979 48.6118 63.167C46.6035 64.6312 44.0115 66.8176 42.4978 68.2521C38.501 72.0609 32.0309 78.6497 26.1346 86.6038C25.5509 87.3952 25.9565 88.533 26.9162 88.7704C30.1809 89.5915 37.5612 91.026 49.334 91.026C49.3933 91.026 49.4527 91.026 49.5121 91.026C49.5714 91.026 49.6308 91.026 49.6902 91.026C61.2849 91.026 68.7839 89.5816 72.1079 88.7605C73.0676 88.5231 73.4633 87.3854 72.8796 86.584Z" fill="black"/>
<path d="M48.4635 58.5073C48.5327 59.002 49.0076 59.3582 49.5122 59.3582C50.0167 59.3582 50.4817 59.002 50.5411 58.5073C51.1149 54.1544 52.5296 48.1492 56.7539 43.4797C63.5703 35.951 66.8647 31.4694 66.8647 31.4694C63.2141 33.6756 56.289 34.6748 49.5023 34.5759C42.7156 34.6649 35.7904 33.6657 32.1398 31.4694C32.1398 31.4694 35.4343 35.951 42.2506 43.4797C46.4849 48.1492 47.8897 54.1445 48.4635 58.5073Z" fill="black"/>
<path d="M58.7028 38.8106C66.3897 30.2531 72.6224 20.1027 72.6224 20.1027C65.3707 22.7145 54.9335 22.2792 54.9335 22.2792C67.844 25.6033 58.7028 38.8106 58.7028 38.8106Z" fill="white"/>
<path d="M59.1479 58.9731C68.8134 72.309 63.016 76.563 63.016 76.563C66.7853 87.1091 53.8352 88.1776 53.8352 88.1776C65.6278 87.9797 74.4822 85.5856 74.4822 85.5856C72.1672 70.3106 59.1479 58.9632 59.1479 58.9632V58.9731Z" fill="white"/>
<path d="M27.7769 74.6238C36.008 70.3598 37.9866 60.4568 37.9866 60.4568C30.3689 67.1644 27.7769 74.6238 27.7769 74.6238Z" fill="white"/>
<path d="M70.07 11.4854C67.5374 11.9801 64.609 12.3659 61.4531 12.6528V16.8673C65.9248 16.4617 69.7633 15.8384 72.6224 15.0668V10.9018C71.8508 11.0996 71.0098 11.2975 70.07 11.4756V11.4854Z" fill="white"/>
<path d="M70.0698 94.1037C67.5372 94.5984 64.609 94.9841 61.4531 95.271V99.4855C65.9248 99.0799 69.7633 98.4566 72.6224 97.6849V93.5199C71.8508 93.7178 71.0098 93.9156 70.07 94.0937L70.0698 94.1037Z" fill="white"/>
</svg>
