<svg width="100" height="100" viewBox="0 0 100 100" fill="none" xmlns="http://www.w3.org/2000/svg">
<rect width="100" height="100" fill="#11B67A"/>
<path d="M50.0133 59.632C43.6445 59.632 37.8772 62.2028 33.7109 66.3584L33.5162 70.6196H37.9922L50.0133 82.5843L62.0345 70.6196H66.5105L66.3159 66.3584C62.1407 62.2028 56.3733 59.632 50.0045 59.632H50.0133Z" fill="black"/>
<path d="M50.0132 44.1528C39.3453 44.1528 29.6948 48.458 22.7067 55.4132L22.3883 59.5511C22.3883 59.5511 23.4232 58.8908 25.2543 57.9488L27.9257 60.6076C33.0915 55.466 40.0441 52.1205 47.7663 51.5746C48.5094 51.5306 49.2613 51.4954 50.022 51.4866C58.6377 51.4866 66.4572 54.973 72.1184 60.6076L74.8341 57.9048C76.6386 58.8732 77.6469 59.5599 77.6469 59.5599L77.3285 55.422C70.3404 48.4668 60.6899 44.1616 50.022 44.1616L50.0132 44.1528Z" fill="black"/>
<path d="M42.3441 20.8395C42.5652 20.8131 42.7775 20.7779 42.9986 20.7603C43.3436 20.7162 43.6885 20.681 44.0247 20.6546C45.9884 20.4697 47.9875 20.3641 50.0043 20.3641C59.9114 20.3641 69.279 22.6796 77.6116 26.7735L79.1683 19.3868C78.1688 18.929 77.1604 18.4976 76.1432 18.0838L75.1878 23.6656L73.0118 23.2958L74.0468 17.265C66.5545 14.5358 58.4608 13.0391 50.0132 13.0391C30.7209 13.0391 13.2507 20.8219 0.601496 33.4118L0.0177085 37.2944L4.06897 36.8718L5.82044 38.615C12.6493 31.8182 21.0614 26.5974 30.4378 23.5071C34.551 22.2041 38.5315 21.3413 42.3528 20.8483L42.3441 20.8395Z" fill="black"/>
<path d="M50.0133 28.5976C35.0288 28.5976 21.4685 34.6372 11.6498 44.4097L11.1987 48.4156C11.1987 48.4156 12.2514 47.7905 14.1001 46.8485L16.8688 49.6042C20.5574 45.9328 24.8653 42.869 29.6065 40.5711C36.0815 38.599 43.671 37.0935 51.3579 37.3488C58.3282 37.5777 64.8917 38.9424 70.5264 40.6328C75.2234 42.9218 79.4869 45.9593 83.149 49.6042L85.9354 46.8309C87.7842 47.7905 88.8191 48.4156 88.8191 48.4156L88.368 44.4097C78.5493 34.6372 64.989 28.5976 50.0045 28.5976H50.0133Z" fill="black"/>
<path d="M99.425 33.4025C94.8872 28.886 89.7214 25.0034 84.0779 21.8604L82.4945 29.3879L82.406 29.3703C86.705 31.9763 90.6678 35.0753 94.2061 38.597L95.0995 37.7077L100 37.2852L99.4162 33.4025H99.425Z" fill="black"/>
<path d="M0.0177085 37.2846L5.29852 42.5407C16.7536 31.1393 32.5696 24.0784 50.0043 24.0784C67.4391 24.0784 83.2551 31.1393 94.7102 42.5407L99.991 37.2846C87.2002 24.5539 69.5178 16.6742 49.9955 16.6742C30.4732 16.6742 12.7996 24.5539 0 37.2846H0.0177085Z" fill="#006A4D"/>
<path d="M22.3794 59.5439L27.6513 64.7911C33.3745 59.0948 41.2825 55.5644 50.0043 55.5644C58.7261 55.5644 66.6341 59.0948 72.3572 64.7911L77.6292 59.5439C70.5615 52.5094 60.7871 48.1513 50.0043 48.1513C39.2214 48.1513 29.447 52.5006 22.3794 59.5439ZM33.5071 70.6194L50.0043 87.0391L66.5014 70.6194C62.282 66.4199 56.4439 63.8138 50.0043 63.8138C43.5646 63.8138 37.7265 66.4111 33.5071 70.6194ZM50.0131 32.4184C34.8606 32.4184 21.1321 38.5285 11.2073 48.4155L16.4882 53.6715C25.0773 45.1227 36.9393 39.8227 50.022 39.8227C63.1047 39.8227 74.9667 45.1227 83.5558 53.6715L88.8366 48.4155C78.903 38.5285 65.1834 32.4184 50.0308 32.4184H50.0131Z" fill="#6CF479"/>
<path d="M8.92532 63.7314C8.92532 63.7314 11.2606 71.4438 20.7431 73.5744C20.7431 73.5744 13.5604 74.807 13.4189 83.391C13.4189 83.391 10.889 75.9515 1.80454 73.5656C1.80454 73.5656 9.39414 72.6676 8.92532 63.7314Z" fill="white"/>
</svg>
