<svg width="100" height="100" viewBox="0 0 100 100" fill="none" xmlns="http://www.w3.org/2000/svg">
<g clip-path="url(#clip0_15980_1262)">
<rect width="100" height="100" fill="#C7FFC6"/>
<path d="M88 43.3482C88 40.7182 86.3396 38.3484 83.8633 37.5006C73.5359 33.9748 62.5079 31.9999 50.9904 31.9999C39.4729 31.9999 28.4449 33.9748 18.1271 37.5006C15.6413 38.3484 14 40.7182 14 43.3482V78.0482C14 80.7842 16.2075 82.9999 18.9333 82.9999H83.0667C85.7925 82.9999 88 80.7842 88 78.0482V43.3482Z" fill="#6CF479"/>
<path d="M97.3169 40.4687L31.2607 35.0343L2.35097 46.0138L9.92339 47.5641V82.5982H15.4941V47.2489L17.5639 46.6527V79.7872H23.1346V45.0513L25.5793 44.3528V76.8827H31.1414V42.7515L35.6218 41.4653V75.6901H41.1926V41.4994L47.8535 41.9252V76.6697H53.4157V42.283L72.3084 43.4925V78.6373H77.8791V43.8503L84.5401 44.2762V79.6254H90.1023V44.3869L97.3169 40.4687Z" fill="black"/>
<path d="M53.2368 52.3682L65.937 52.8963V73.7992L53.2368 73.3989V52.3682Z" fill="black"/>
<path d="M31.5929 25.1278L2.35097 44.9574V46.0138L31.2607 35.0343L31.2607 33.6968L65.7155 10L31.5929 25.1278Z" fill="#11B67A"/>
<path d="M65.7155 10L31.2607 33.6968L31.2607 35.0343L97.3169 40.4687L97.3168 39.4123L65.7155 10Z" fill="#6CF479"/>
<path d="M87.9131 43.3222C86.7036 43.3222 85.724 43.9099 85.724 44.6425V79.6254H90.1107V44.6425C90.1107 43.9099 89.1312 43.3222 87.9216 43.3222H87.9131Z" fill="#11B67A"/>
<path d="M75.6814 42.3339C74.4719 42.3339 73.4923 42.9216 73.4923 43.6542V78.6371L77.8791 78.6373L77.879 43.6542C77.879 42.9216 76.8995 42.3339 75.69 42.3339H75.6814Z" fill="#11B67A"/>
<path d="M51.2266 40.3661C50.017 40.3661 49.0375 40.9538 49.0375 41.6863V76.6693H53.4242V41.6863C53.4242 40.9538 52.4447 40.3661 51.2351 40.3661H51.2266Z" fill="#11B67A"/>
<path d="M39.0034 39.3866C37.7939 39.3866 36.8143 39.9744 36.8143 40.7069V75.6899H41.201V40.7069C41.201 39.9744 40.2215 39.3866 39.012 39.3866H39.0034Z" fill="#11B67A"/>
<path d="M84.5315 40.9119V42.2663L92.6831 42.9732V41.6104L84.5315 40.9119Z" fill="#6CF479"/>
<path d="M72.2998 41.2868L80.4514 41.9852V40.6309L72.2998 39.9239V41.2868Z" fill="#6CF479"/>
<path d="M47.845 39.3189L55.9966 40.0174V38.663L47.845 37.9561V39.3189Z" fill="#6CF479"/>
<path d="M35.6133 38.3308L43.7649 39.0378V37.6749L35.6133 36.9764V38.3308Z" fill="#6CF479"/>
<path d="M28.9524 40.5788C27.7428 40.5788 26.7633 41.1665 26.7633 41.8991V76.882H31.15V41.8991C31.15 41.1665 30.1704 40.5788 28.9609 40.5788H28.9524Z" fill="#11B67A"/>
<path d="M20.9371 43.4833C19.7275 43.4833 18.748 44.071 18.748 44.8035V79.7865L23.1346 79.7872L23.1347 44.8035C23.1347 44.071 22.1551 43.4833 20.9456 43.4833H20.9371Z" fill="#11B67A"/>
<path d="M13.305 46.2937C12.0954 46.2937 11.1159 46.8815 11.1159 47.614V82.597H15.5026V47.614C15.5026 46.8815 14.523 46.2937 13.3135 46.2937H13.305Z" fill="#11B67A"/>
<path d="M23.5775 39.4555V40.8184L29.6167 38.723V37.2323L23.5775 39.4555Z" fill="#11B67A"/>
<path d="M15.5623 43.7236L21.6099 41.6282V40.1376L15.5623 42.3607V43.7236Z" fill="#11B67A"/>
<path d="M7.93018 46.5344L13.9694 44.439V42.9569L7.93018 45.1801V46.5344Z" fill="#11B67A"/>
<path d="M33.4412 83.8162V78.271H38.322V72.8877L7.8961 77.4278V81.2097L4.029 81.6271V85.0768L0 85.409V89.5317H29.2419V83.8162H33.4412Z" fill="#11B67A"/>
<path d="M65.8944 12.743L35.9795 33.2796L92.9898 38.0837L65.8944 12.743Z" fill="#11B67A"/>
<path d="M63.9608 14.0888L65.8944 12.743L92.9898 38.0837L89.0034 37.7515L63.9608 14.0888Z" fill="black"/>
<path d="M68.637 26.5501C68.7989 29.8295 66.6353 32.4871 63.7903 32.4956C60.9454 32.5042 58.5178 29.8381 58.3559 26.5587C58.1941 23.2793 60.3576 20.6217 63.2026 20.6132C66.0476 20.6047 68.4752 23.2708 68.637 26.5501Z" fill="white"/>
<path d="M38.322 72.8877L93.1005 74.7361V79.7446H97.1295V84.8213H100V89.5317H29.2419V83.8162H33.4412V78.271H38.322V72.8877Z" fill="#6CF479"/>
</g>
<defs>
<clipPath id="clip0_15980_1262">
<rect width="100" height="100" fill="white"/>
</clipPath>
</defs>
</svg>
