<svg width="100" height="100" viewBox="0 0 100 100" fill="none" xmlns="http://www.w3.org/2000/svg">
<g clip-path="url(#clip0_40000015_28292)">
<rect width="100" height="100" fill="#C7FFC6"/>
<path d="M54.1175 61.5278L33.3197 83.3891C26.5756 90.4708 15.856 92.0155 7.39 87.1199C-0.898731 82.3256 -2.51935 71.0489 4.08125 64.1107L24.8791 42.2493C31.6232 35.1676 42.3428 33.623 50.8088 38.5186C59.0975 43.3129 60.7181 54.5896 54.1175 61.5278Z" fill="#024731"/>
<path d="M54.1175 55.3911L33.3197 77.2524C26.5756 84.3341 15.856 85.8787 7.39 80.9831C-0.898731 76.1889 -2.51935 64.9121 4.08125 57.9739L24.8791 36.1126C31.6232 29.0309 42.3428 27.4862 50.8088 32.3818C59.0975 37.1761 60.7181 48.4528 54.1175 55.3911Z" fill="#11B67A"/>
<path d="M53.8146 38.6758C53.8146 38.6758 49.5437 46.9392 50.9364 59.4736L53.3082 59.5664L56.0514 53.9365C56.0514 53.9365 52.5316 45.4114 53.8231 38.6758H53.8146Z" fill="black"/>
<path d="M31.3092 65.7473C22.4381 65.7473 15.2129 60.455 15.2129 53.9557C15.2129 47.4564 22.4297 42.1641 31.3092 42.1641C40.1888 42.1641 47.4056 47.4564 47.4056 53.9557C47.4056 60.455 40.1888 65.7473 31.3092 65.7473ZM31.3092 43.4386C23.1302 43.4386 16.479 48.157 16.479 53.9641C16.479 59.7713 23.1302 64.4897 31.3092 64.4897C39.4882 64.4897 46.1395 59.7713 46.1395 53.9641C46.1395 48.157 39.4882 43.4386 31.3092 43.4386Z" fill="#00482F"/>
<path d="M46.7347 38.8608C48.5528 38.8608 50.0266 37.7989 50.0266 36.489C50.0266 35.1791 48.5528 34.1172 46.7347 34.1172C44.9167 34.1172 43.4429 35.1791 43.4429 36.489C43.4429 37.7989 44.9167 38.8608 46.7347 38.8608Z" fill="#00482F"/>
<path d="M37.7674 55.0843L29.0566 50.4673C28.8456 50.3575 28.7696 50.1465 28.8962 50.003L30.424 48.298C31.5635 47.0319 33.9691 46.6352 35.9779 47.513C38.2822 48.5259 39.101 50.6445 37.8264 52.0626L38.8393 52.6027C40.021 51.286 39.8775 49.4206 38.3582 48.0195C35.75 45.6054 31.344 45.6139 29.5039 47.6565L27.8833 49.4628C27.7567 49.6063 27.4782 49.6316 27.2587 49.5135L26.8704 49.3109C26.0179 48.8551 24.8953 48.9479 24.3889 49.5219L20.675 53.6578C20.1686 54.2234 20.4471 55.059 21.2996 55.5148L32.1881 61.2882C33.0406 61.744 34.1632 61.6512 34.6696 61.0772L38.3835 56.9413C38.89 56.3757 38.6114 55.5401 37.7589 55.0843H37.7674ZM33.6652 60.5454C33.4879 60.7396 33.0912 60.7733 32.7958 60.6214L21.9073 54.848C21.6119 54.6876 21.5106 54.3922 21.6879 54.198L25.4018 50.0621C25.579 49.868 25.9757 49.8342 26.2712 49.9861L37.1596 55.7596C37.455 55.92 37.5563 56.2154 37.3791 56.4095L33.6652 60.5454Z" fill="white"/>
<path d="M23.7075 78.2549C22.1544 78.7023 20.4663 78.9555 18.7022 78.9555C11.6458 78.9555 5.81326 75.0475 4.91855 70L3.26416 70.2954C4.31081 76.1363 10.8101 80.6352 18.7022 80.6352C20.6688 80.6352 22.5426 80.3398 24.2814 79.8333L23.7075 78.2465V78.2549Z" fill="#00482F"/>
<path d="M18.865 77.09C20.3506 77.09 21.7686 76.862 23.0685 76.4653L22.5029 74.8785C21.3803 75.2076 20.1564 75.3933 18.8734 75.3933C13.9357 75.3933 9.85877 72.6923 9.25105 69.2148L7.59668 69.5102C8.3479 73.7812 13.1 77.073 18.8734 77.073L18.865 77.09Z" fill="#00482F"/>
<path d="M19.0234 73.3414C20.0025 73.3414 20.931 73.181 21.7751 72.894L21.2011 71.2987C20.5343 71.5266 19.7915 71.6532 19.0234 71.6532C16.3815 71.6532 14.1278 70.1846 13.9084 68.3867L12.2456 68.6906C12.6254 71.3072 15.5121 73.3498 19.0234 73.3498V73.3414Z" fill="#00482F"/>
<path d="M89.4357 39.5622C81.9572 30.2859 70.7818 26.4791 62.5184 29.7457L61.2439 29.5346C61.2439 29.5346 58.6695 31.9571 58.5935 32.0246C50.3048 38.7096 50.6846 52.9237 59.4291 63.77C68.1821 74.6163 81.991 77.9925 90.2798 71.3075C90.744 70.9361 95.0403 66.9521 95.0403 66.9521L94.787 65.2471C97.8848 57.9037 96.0616 47.7665 89.4441 39.5622H89.4357Z" fill="black"/>
<path d="M56.6139 45.7422L52.8071 48.7555C52.9591 49.9794 53.2123 51.2286 53.5583 52.4694L57.4157 49.4223C57.0612 48.19 56.7996 46.9661 56.6223 45.7422H56.6139Z" fill="#00482F"/>
<path d="M56.3792 41.4531L52.6485 44.4074C52.6063 45.1248 52.5978 45.8423 52.6231 46.5766L56.3961 43.5886C56.3539 42.8712 56.3455 42.1537 56.3708 41.4531H56.3792Z" fill="#00482F"/>
<path d="M94.0225 67.853C102.31 61.1684 101.934 46.9546 93.1831 36.1057C84.4322 25.2567 70.62 21.8809 62.3327 28.5655C54.0455 35.2501 54.4213 49.4639 63.1721 60.3128C71.923 71.1618 85.7352 74.5376 94.0225 67.853Z" fill="#6CF479"/>
<path d="M69.2994 36.017C70.058 34.9491 69.6193 33.3349 68.3196 32.4116C67.0199 31.4883 65.3513 31.6055 64.5927 32.6734C63.8341 33.7413 64.2727 35.3555 65.5724 36.2788C66.8721 37.2021 68.5407 37.0849 69.2994 36.017Z" fill="#00482F"/>
<path d="M69.5316 50.6631C69.8355 49.9456 69.1349 49.2704 69.1349 49.2704C68.5778 48.7049 67.6156 48.5529 67.1598 49.6333C66.704 50.7222 67.3961 51.2286 67.3961 51.2286C67.9701 51.8195 69.2277 51.3806 69.5316 50.6631Z" fill="#00482F"/>
<path d="M81.1968 35.1674C80.1417 35.6485 80.2936 36.6277 80.8507 37.1932C80.8507 37.1932 81.509 37.9022 82.2096 37.5899C82.9102 37.2776 83.3322 35.9862 82.7498 35.3953C82.7498 35.3953 82.2518 34.6863 81.1968 35.1674Z" fill="#00482F"/>
<path d="M81.8264 38.7108L81.6997 38.6432C79.8765 37.5797 78.1715 36.761 77.0489 36.2545C76.188 35.8663 75.268 35.9507 74.618 36.4571C73.4701 37.3518 72.3475 38.3478 71.2755 39.4535C70.2036 40.5593 69.2413 41.7156 68.3719 42.8973C67.8824 43.5641 67.8064 44.5011 68.1947 45.3873C68.7011 46.5437 69.5114 48.2825 70.5496 50.1394L70.6172 50.266C70.6087 50.6543 70.5749 51.7769 71.2586 53.3806C71.5034 53.9546 71.8748 54.4864 72.3222 54.9422L72.4994 55.1194L77.1165 59.8209L78.6527 61.3908C79.0747 61.8213 79.7078 61.8804 80.0623 61.5174L81.3452 60.2007C81.6997 59.8377 81.6407 59.1878 81.2186 58.7573L79.6824 57.1874L88.638 47.9449L90.1742 49.5148C90.5962 49.9453 91.2293 50.0044 91.5838 49.6414L92.8668 48.3247C93.2213 47.9617 93.1622 47.3118 92.7401 46.8813L91.2039 45.3114L86.5869 40.6099L86.4096 40.4327C85.9623 39.9769 85.439 39.6055 84.8819 39.3523C83.3119 38.6601 82.223 38.7023 81.8348 38.7108H81.8264ZM69.3679 45.0328C69.1822 44.6023 69.216 44.1466 69.4608 43.8089C70.3217 42.6272 71.2671 41.5046 72.2715 40.4749C73.276 39.4451 74.3648 38.466 75.5127 37.5713C75.8419 37.318 76.2893 37.2758 76.7029 37.4615C77.5216 37.8329 78.6864 38.39 79.9779 39.0906C80.3324 39.2847 80.4252 39.749 80.1551 39.96C78.6189 41.1586 77.1249 42.4837 75.69 43.9609C74.2551 45.438 72.9805 46.9826 71.8157 48.561C71.6131 48.8396 71.1573 48.7383 70.9716 48.3838C70.2795 47.067 69.7309 45.8769 69.3679 45.0413V45.0328ZM75.3355 51.9035C75.5465 53.1021 74.9978 54.0812 74.1031 54.0812C73.2084 54.0812 72.3137 53.119 72.1027 51.9204C71.8917 50.7218 72.4403 49.7427 73.3351 49.7427C74.2298 49.7427 75.1245 50.705 75.3355 51.9035ZM84.0884 47.9111L79.6065 52.5281C79.0747 53.0768 78.1293 52.9924 77.4878 52.3424L83.8859 45.7418C84.5274 46.3918 84.6118 47.3624 84.08 47.9111H84.0884ZM85.5656 42.2643C85.5656 43.1759 84.6202 43.7498 83.4469 43.5388C82.2737 43.3278 81.3284 42.4162 81.3284 41.5046C81.3284 40.593 82.2737 40.0191 83.4469 40.2301C84.6202 40.4411 85.5656 41.3527 85.5656 42.2643Z" fill="#00482F"/>
<path d="M91.728 37.3787C86.7143 31.3183 80.139 27.9842 73.7832 26.9375C73.7832 26.9375 88.4615 31.3858 87.4824 43.802C87.4824 43.802 95.5432 42.1645 97.7547 50.3688C97.1216 46.1738 95.1718 41.5315 91.728 37.3702V37.3787Z" fill="white"/>
<path d="M68.566 24.2518C68.0342 19.8711 65.8818 15.9631 62.6575 13.5237C59.9565 11.4811 56.6984 10.637 53.4909 11.1435C46.2404 12.2829 41.1676 19.9977 42.1805 28.3287C42.6953 32.5406 44.7126 36.2967 47.726 38.7444C48.7388 38.5081 49.5323 37.9341 49.853 37.1914C49.7771 37.1323 49.6926 37.0901 49.6167 37.031C46.941 35.0052 45.1431 31.7218 44.6958 28.0248C43.8432 21.0275 47.9707 14.5872 53.8877 13.6503C54.3603 13.5744 54.833 13.5406 55.3057 13.5406C57.3568 13.5406 59.3825 14.2327 61.1297 15.5579C63.8054 17.5837 65.6033 20.8671 66.0507 24.5641C66.4474 27.8644 65.7383 31.0297 64.2528 33.5619C64.1262 34.4903 64.582 35.5285 65.5104 36.2207C67.8738 33.0217 69.1062 28.7338 68.566 24.2518Z" fill="white"/>
<path d="M67.5298 22.5228C66.9643 20.3958 66.1202 18.7245 65.1749 17.3993C62.094 13.0693 56.2869 11.6766 51.577 14.1328C49.872 15.0191 48.9097 15.9897 48.9097 15.9897L49.0616 16.0151C50.4459 14.8249 52.0918 14.0146 53.9066 13.7276C56.405 13.3309 58.9541 14.0062 61.0896 15.6099C63.7484 17.6188 65.5294 20.8853 65.9767 24.5655C66.365 27.756 65.7066 30.8285 64.3139 33.31C64.1029 34.1203 64.373 35.0572 65.0483 35.7831C66.1624 34.1963 69.2686 29.0137 67.5382 22.5228H67.5298Z" fill="#11B67A"/>
</g>
<defs>
<clipPath id="clip0_40000015_28292">
<rect width="100" height="100" fill="white"/>
</clipPath>
</defs>
</svg>
